<svg version="1.1" id="Layer_1" xmlns="http://www.w3.org/2000/svg" x="0" y="0" viewBox="0 0 200 200" style="enable-background:new 0 0 200 200" xml:space="preserve"><style>.st0{fill:#c9939d}.st1,.st2{fill:none;stroke:#000;stroke-width:.6235;stroke-linecap:round;stroke-linejoin:round;stroke-miterlimit:1}.st2{fill:#c9939d}.st3{fill:#c0aac3}.st5,.st6,.st7{fill:#ac86ac;stroke:#000;stroke-width:.6235;stroke-linecap:round;stroke-linejoin:round;stroke-miterlimit:1}.st6,.st7{fill:#998ec7}.st7{fill:#c0aac3}.st8,.st9{fill:#a25f80}.st9{stroke:#000;stroke-width:.6235;stroke-linecap:round;stroke-linejoin:round;stroke-miterlimit:1}.st10{fill:#7f5b9d}.st11{fill:#998ec7}.st12,.st13{fill:#e2beb3;stroke:#000;stroke-width:.6235;stroke-linecap:round;stroke-linejoin:round;stroke-miterlimit:1}.st13{fill:#7f5b9d}.st14{fill:#abbae4}.st14,.st15{stroke:#000;stroke-width:.6235;stroke-linecap:round;stroke-linejoin:round;stroke-miterlimit:1}.st15,.st16{fill:#d7e1de}.st20,.st22{fill:#c36154;stroke:#000;stroke-width:.6235;stroke-linecap:round;stroke-linejoin:round;stroke-miterlimit:1}.st22{fill:#4a53b9}.st23{fill:#f19e64}.st23,.st24{stroke:#000;stroke-width:.6235;stroke-linecap:round;stroke-linejoin:round;stroke-miterlimit:1}.st24,.st25{fill:#518eeb}.st26{fill:#44003b;stroke:#000;stroke-width:.6235;stroke-linecap:round;stroke-linejoin:round;stroke-miterlimit:1}.st28{fill:#f19e64}.st29{fill:#3d0000}.st30,.st31{fill:#ecdf71}.st31{stroke:#000;stroke-width:.6235;stroke-linecap:round;stroke-linejoin:round;stroke-miterlimit:1}.st32{fill:#000020}.st33,.st34,.st35{fill:#000020;stroke:#000;stroke-width:.6235;stroke-linecap:round;stroke-linejoin:round;stroke-miterlimit:1}.st34,.st35{fill:#56ceea}.st35{fill:#3d0000}.st36{fill:#56ceea}.st37{stroke:#000;stroke-width:.6235;stroke-linecap:round;stroke-linejoin:round;stroke-miterlimit:1}</style><path class="st0" d="m84.7 93.5-32 8.8L79 37.7"/><path class="st1" d="m84.7 93.5-32 8.8"/><path class="st2" d="m79.1 37.8 18.8 24.3-13.2 31.4"/><path class="st3" d="m84.7 93.5 25.8 22.9L73.1 159"/><path class="st1" d="m84.7 93.5 25.8 22.9"/><path class="st3" d="m52.8 102.4 32-8.8-11.6 65.6"/><path class="st1" d="m52.8 102.4 32-8.8"/><path d="m84.7 93.5 25.8 22.9 21.8-50.9" style="fill:#ac86ac"/><path class="st1" d="m84.7 93.5 25.8 22.9"/><path class="st5" d="M132.4 65.5 97.9 62 84.7 93.5"/><path class="st6" d="m105.3 149.1 5.2-32.6 29.6-16.9"/><path class="st7" d="m110.5 116.4-5.2 32.6-32.2 10"/><path class="st5" d="m110.5 116.4 29.6-16.9-7.7-34"/><path class="st8" d="M97.8 62.1 79.1 37.8l71.4 6.8"/><path class="st1" d="M97.8 62.1 79.1 37.8"/><path class="st9" d="m150.5 44.6-18.1 20.9L97.9 62"/><path class="st10" d="m140.1 99.5-7.7-34 45.7-6.6"/><path class="st1" d="m140.1 99.5-7.7-34"/><path class="st10" d="m166.2 114.9-26.1-15.4L178 58.9"/><path class="st1" d="m166.2 114.9-26.1-15.4"/><path class="st11" d="m140.1 99.5 26.1 15.4-60.8 34.2"/><path class="st1" d="m140.1 99.5 26.1 15.4"/><path class="st0" d="M52.8 102.4 32.5 79.1l46.6-41.3"/><path class="st1" d="M52.8 102.4 32.5 79.1"/><path class="st7" d="m73.1 159.1-26.8-23.8 6.4-32.9"/><path class="st12" d="m46.3 135.3 6.4-32.9-20.2-23.3"/><path class="st13" d="m132.4 65.5 18.1-20.9 27.6 14.3"/><path class="st6" d="m161.8 148.9-31.3 17.2-25.2-17.1"/><path class="st11" d="m166.2 114.9-4.4 34-56.5.2"/><path class="st1" d="m166.2 114.9-4.4 34"/><path class="st14" d="M130.5 166.1 105.3 149l-32.2 10"/><path class="st15" d="m46.3 135.3 26.8 23.8 3.7 24.5"/><path class="st16" d="m21 133.9 25.3 1.4 30.5 48.3"/><path class="st1" d="m21 133.9 25.3 1.4"/><path d="m21 133.9 25.3 1.4-13.8-56.2" style="fill:#e2beb3"/><path class="st1" d="m21 133.9 25.3 1.4"/><path d="m73.1 159.1 3.7 24.5 53.6-17.5" style="fill:#abbae4"/><path class="st1" d="m73.1 159.1 3.7 24.5"/><path class="st2" d="m32.5 79.1 13.2-33.2 33.4-8.2"/><path class="st8" d="m79.1 37.8 16.4-22.5 55 29.3"/><path class="st1" d="m79.1 37.8 16.4-22.5"/><path d="M79.1 37.8 45.7 46 71.3 8.4" style="fill:#c36154"/><path class="st1" d="M79.1 37.8 45.7 46"/><path class="st20" d="m71.3 8.4 24.2 6.9-16.4 22.5"/><path class="st13" d="m178.1 58.9 8 36.4-19.9 19.6"/><path d="m166.2 114.9-4.4 34 33.3-30.9" style="fill:#4a53b9"/><path class="st1" d="m166.2 114.9-4.4 34"/><path class="st22" d="M195.1 118 186 95.3l-19.9 19.6"/><path class="st23" d="M45.7 45.9 32.5 79.1 12 97.8"/><path class="st12" d="M32.5 79.1 12 97.8l9 36.1"/><path class="st24" d="m129.1 194.3-15.3-6 16.8-22.2"/><path class="st25" d="M163.4 175.8 129 194.3l1.4-28.1"/><path class="st1" d="M163.4 175.8 129 194.3"/><path class="st25" d="m179.3 152.6-15.8 23.1-32.9-9.6"/><path class="st1" d="m179.3 152.6-15.8 23.1"/><path class="st24" d="m130.5 166.1 31.3-17.2 17.5 3.7"/><path class="st14" d="m76.8 183.6 36.9 4.7 16.8-22.2"/><path class="st9" d="m95.5 15.3 36.9 3.3 18 26"/><path class="st26" d="m150.5 44.6-18-26 16.3-3.3"/><path d="m178.1 58.9-27.6-14.3-1.7-29.3" style="fill:#44003b"/><path class="st1" d="m178.1 58.9-27.6-14.3"/><path class="st23" d="m17.5 46.3 21.6-17.8L45.6 46"/><path class="st28" d="m3.5 82.6 14.1-36.3 28.1-.3"/><path class="st1" d="m3.5 82.6 14.1-36.3"/><path class="st28" d="M12 97.8 3.5 82.6l42.2-36.7"/><path class="st1" d="M12 97.8 3.5 82.6"/><path class="st20" d="m45.7 45.9-6.5-17.5 32.1-20"/><path class="st22" d="m161.8 148.9 17.5 3.7 15.9-34.6"/><path class="st29" d="M95.5 15.3 71.3 8.4l54.2-.4"/><path class="st1" d="M95.5 15.3 71.3 8.4"/><path class="st29" d="m132.4 18.6-36.9-3.3 30-7.2"/><path class="st1" d="m132.4 18.6-36.9-3.3"/><path class="st30" d="m21 133.9 1.5 24.4-19-75.7"/><path class="st1" d="m21 133.9 1.5 24.4"/><path class="st31" d="M3.5 82.6 12 97.8l9 36.1"/><path class="st16" d="M22.5 158.3 21 133.9l55.8 49.7"/><path class="st1" d="M22.5 158.3 21 133.9"/><path class="st32" d="m186 95.3-8-36.4 18.5 44.4"/><path class="st1" d="m186 95.3-8-36.4"/><path class="st33" d="m196.5 103.3-1.4 14.7-9.1-22.7"/><path class="st15" d="m76.8 183.6-25.1.7-29.2-26"/><path class="st34" d="m51.7 184.3 25.1-.7 36.9 4.7"/><path class="st35" d="m125.5 8 23.3 7.3-16.3 3.3"/><path class="st32" d="m178.1 58.9.4-17.3 18.1 61.7"/><path class="st1" d="m178.1 58.9.4-17.3"/><path class="st26" d="m148.8 15.3 29.7 26.2-.4 17.3"/><path class="st36" d="m64.1 190.3-12.4-6 62 4"/><path class="st1" d="m64.1 190.3-12.4-6"/><path class="st36" d="m104.8 195.6-40.7-5.3 49.6-2"/><path class="st1" d="m104.8 195.6-40.7-5.3"/><path class="st34" d="m113.7 188.3 15.3 6-24.3 1.3"/><path class="st35" d="m71.3 8.4 13.5-4L125.5 8"/><path class="st1" d="M39.2 28.4 17.5 46.3M179.3 152.6l15.9-34.6M163.4 175.8l15.8-23.1"/><path class="st30" d="m22.5 158.3-8.3-12.5L3.5 82.6"/><path class="st1" d="m22.5 158.3-8.3-12.5"/><path class="st37" d="m51.7 184.3-29.2-26-8.3-12.5"/><path d="m64.1 190.3-12.4-6-37.4-38.4"/><path class="st1" d="m64.1 190.3-12.4-6"/><path class="st31" d="M14.3 145.9 4.2 106l-.7-23.4"/><path class="st1" d="m3.5 82.6.7 23.4M178.5 41.6l-29.7-26.2"/><path class="st33" d="m178.5 41.6 9.3 21.5 8.7 40.2"/><path class="st1" d="m187.8 63.1-9.3-21.5M104.8 195.6l24.3-1.3M17.5 46.3l10.8-1.9"/><path style="fill:#df7b05;stroke:#000;stroke-width:.6235;stroke-linecap:round;stroke-linejoin:round;stroke-miterlimit:1" d="m180.3 125.9-17.3 38 .4 11.9 15.9-23.2 15.8-34.6 1.4-14.7z"/><path style="fill:#005acc;stroke:#000;stroke-width:.6235;stroke-linecap:round;stroke-linejoin:round;stroke-miterlimit:1" d="m71.3 8.4-32.1 20-21.7 17.9 10.8-1.9 35.3-21.9L84.8 4.4z"/><path class="st1" d="m84.8 4.4-21.2 18"/><path class="st37" d="m14.3 145.9 26.3 20 23.5 24.4"/><path class="st1" d="m64.1 190.3 40.7 5.3M196.5 103.3l-16.2 22.6M58.5 144.8l-10.6-43.2"/><path style="fill:#633e8f" d="M47.9 101.6 20 82.9 4.2 106l10.1 39.9 26.3 19.9 17.9-21z"/><path class="st1" d="m40.6 165.8 17.9-21"/><path style="fill:#00149d;stroke:#000;stroke-width:.6235;stroke-linecap:round;stroke-linejoin:round;stroke-miterlimit:1" d="m17.5 46.3-14 36.3.7 23.4L20 82.9l8.3-38.5z"/><path style="fill:#d4fbe0;stroke:#000;stroke-width:.6235;stroke-linecap:round;stroke-linejoin:round;stroke-miterlimit:1" d="m178.5 41.6-29.7-26.3L125.5 8l7.1 20.9 32.7 28.9 22.5 5.3z"/><path class="st1" d="m104.8 195.6 20.4-19.1"/><path style="fill:#b22f02;stroke:#000;stroke-width:.6235;stroke-linecap:round;stroke-linejoin:round;stroke-miterlimit:1" d="m163 163.9-37.9 12.5-20.3 19.2 24.3-1.3 34.3-18.5z"/><path class="st1" d="m163 163.9 17.3-38M47.9 101.6l37.8-22.4"/><path style="fill:#8d8ccd" d="M63.6 22.5 28.3 44.4 20 82.9l27.9 18.7 37.9-22.4L93 38.6z"/><path class="st1" d="m20 82.9 28 18.6"/><path style="fill:#a0c7f3;stroke:#000;stroke-width:.6235;stroke-linecap:round;stroke-linejoin:round;stroke-miterlimit:1" d="M125.5 8 84.8 4.4 63.6 22.5 93 38.6l39.6-9.7z"/><path class="st1" d="m180.3 125.9-20.3-28"/><path style="fill:#f1cead;stroke:#000;stroke-width:.6235;stroke-linecap:round;stroke-linejoin:round;stroke-miterlimit:1" d="m187.8 63.1-22.5-5.3-5.3 40.1 20.3 28 16.2-22.6z"/><path style="fill:#964564;stroke:#000;stroke-width:.6235;stroke-linecap:round;stroke-linejoin:round;stroke-miterlimit:1" d="m102.5 150.1-44-5.3-17.9 21 23.5 24.5 40.7 5.3 20.3-19.2z"/><path class="st1" d="M120 109.5 85.8 79.2M160 97.9l-40 11.6"/><path style="fill:#c4b1c8;stroke:#000;stroke-width:.6235;stroke-linecap:round;stroke-linejoin:round;stroke-miterlimit:1" d="M132.6 28.9 93 38.6l-7.2 40.6 34.2 30.3 40-11.6 5.3-40.1z"/><path class="st1" d="m102.5 150.1-44-5.3"/><path style="fill:#cf9293;stroke:#000;stroke-width:.6235;stroke-linecap:round;stroke-linejoin:round;stroke-miterlimit:1" d="m160 97.9-40 11.6-17.5 40.6 22.6 26.3 37.9-12.5 17.3-38z"/><path style="fill:#a982a9;stroke:#000;stroke-width:.6235;stroke-linecap:round;stroke-linejoin:round;stroke-miterlimit:1" d="m85.8 79.2-37.9 22.4 10.6 43.2 44 5.3 17.5-40.6z"/></svg>