<svg xmlns="http://www.w3.org/2000/svg" width="242pt" height="200pt" viewBox="0 0 242 200" version="1.2"><path style="fill-rule:nonzero;fill:#5a60be;fill-opacity:1;stroke-width:7.68;stroke-linecap:round;stroke-linejoin:round;stroke:#000;stroke-opacity:1;stroke-miterlimit:10" d="m2370.117 788.125-523.086-597.344-162.265 598.164M1684.766 788.945l470.625 581.446 214.726-582.266" transform="matrix(.1 0 0 -.1 0 200)"/><path style="fill-rule:nonzero;fill:#afb8e0;fill-opacity:1;stroke-width:7.68;stroke-linecap:round;stroke-linejoin:round;stroke:#000;stroke-opacity:1;stroke-miterlimit:10" d="m871.953 725.117 812.813 63.828 162.265-598.164" transform="matrix(.1 0 0 -.1 0 200)"/><path style="fill-rule:nonzero;fill:#b87585;fill-opacity:1;stroke-width:7.68;stroke-linecap:round;stroke-linejoin:round;stroke:#000;stroke-opacity:1;stroke-miterlimit:10" d="m1785.977 1968.242 369.414-597.851-470.625-581.446" transform="matrix(.1 0 0 -.1 0 200)"/><path style="stroke:none;fill-rule:nonzero;fill:#b87585;fill-opacity:1" d="m86.23 8.629 92.368-5.453-10.121 117.93"/><path style="fill:none;stroke-width:7.68;stroke-linecap:round;stroke-linejoin:round;stroke:#000;stroke-opacity:1;stroke-miterlimit:10" d="m862.305 1913.71 923.672 54.532" transform="matrix(.1 0 0 -.1 0 200)"/><path style="stroke:none;fill-rule:nonzero;fill:#b87585;fill-opacity:1" d="m42.57 74.969 43.66-66.34 82.247 112.476"/><path style="fill:none;stroke-width:7.68;stroke-linecap:round;stroke-linejoin:round;stroke:#000;stroke-opacity:1;stroke-miterlimit:10" d="m425.703 1250.313 436.602 663.398" transform="matrix(.1 0 0 -.1 0 200)"/><path style="fill-rule:nonzero;fill:#b87585;fill-opacity:1;stroke-width:7.68;stroke-linecap:round;stroke-linejoin:round;stroke:#000;stroke-opacity:1;stroke-miterlimit:10" d="m1684.766 788.945-812.813-63.828-446.25 525.196" transform="matrix(.1 0 0 -.1 0 200)"/><path style="fill-rule:nonzero;fill:#f2f2bc;fill-opacity:1;stroke-width:7.68;stroke-linecap:round;stroke-linejoin:round;stroke:#000;stroke-opacity:1;stroke-miterlimit:10" d="m425.703 1250.313 446.25-525.196 94.375-612.422" transform="matrix(.1 0 0 -.1 0 200)"/><path style="fill-rule:nonzero;fill:#afb8e0;fill-opacity:1;stroke-width:7.68;stroke-linecap:round;stroke-linejoin:round;stroke:#000;stroke-opacity:1;stroke-miterlimit:10" d="m1847.031 190.781-880.703-78.086-94.375 612.422" transform="matrix(.1 0 0 -.1 0 200)"/><path style="fill-rule:nonzero;fill:#d6ed8b;fill-opacity:1;stroke-width:7.68;stroke-linecap:round;stroke-linejoin:round;stroke:#000;stroke-opacity:1;stroke-miterlimit:10" d="m1982.383 1396.133 387.734-608.008-214.726 582.266" transform="matrix(.1 0 0 -.1 0 200)"/><path style="fill-rule:nonzero;fill:#d6ed8b;fill-opacity:1;stroke-width:7.68;stroke-linecap:round;stroke-linejoin:round;stroke:#000;stroke-opacity:1;stroke-miterlimit:10" d="m2155.39 1370.39-369.413 597.852 196.406-572.11" transform="matrix(.1 0 0 -.1 0 200)"/><path style="fill-rule:nonzero;fill:#b86f7d;fill-opacity:1;stroke-width:7.68;stroke-linecap:round;stroke-linejoin:round;stroke:#000;stroke-opacity:1;stroke-miterlimit:10" d="m1847.031 190.781 523.086 597.344-387.734 608.008" transform="matrix(.1 0 0 -.1 0 200)"/><path style="stroke:none;fill-rule:nonzero;fill:#b86f7d;fill-opacity:1" d="m96.633 188.73 88.07-7.808 13.535-120.535"/><path style="fill:none;stroke-width:7.68;stroke-linecap:round;stroke-linejoin:round;stroke:#000;stroke-opacity:1;stroke-miterlimit:10" d="m966.328 112.695 880.703 78.086" transform="matrix(.1 0 0 -.1 0 200)"/><path style="stroke:none;fill-rule:nonzero;fill:#f4f2ac;fill-opacity:1" d="m42.57 74.969 6.024 61.187-42.469-87.77"/><path style="fill:none;stroke-width:7.68;stroke-linecap:round;stroke-linejoin:round;stroke:#000;stroke-opacity:1;stroke-miterlimit:10" d="m425.703 1250.313 60.235-611.876L61.25 1516.133Zm0 0" transform="matrix(.1 0 0 -.1 0 200)"/><path style="stroke:none;fill-rule:nonzero;fill:#d77554;fill-opacity:1" d="M42.57 74.969 6.125 48.387 86.23 8.629"/><path style="fill:none;stroke-width:7.68;stroke-linecap:round;stroke-linejoin:round;stroke:#000;stroke-opacity:1;stroke-miterlimit:10" d="M425.703 1250.313 61.25 1516.132l801.055 397.578Zm0 0" transform="matrix(.1 0 0 -.1 0 200)"/><path style="fill-rule:nonzero;fill:#f2f2bc;fill-opacity:1;stroke-width:7.68;stroke-linecap:round;stroke-linejoin:round;stroke:#000;stroke-opacity:1;stroke-miterlimit:10" d="m966.328 112.695-480.39 525.742-60.235 611.875" transform="matrix(.1 0 0 -.1 0 200)"/><path style="stroke:none;fill-rule:nonzero;fill:#b86f7d;fill-opacity:1" d="m48.594 136.156 48.039 52.574L198.238 60.387"/><path style="fill:none;stroke-width:7.68;stroke-linecap:round;stroke-linejoin:round;stroke:#000;stroke-opacity:1;stroke-miterlimit:10" d="m485.938 638.438 480.39-525.743" transform="matrix(.1 0 0 -.1 0 200)"/><path style="fill-rule:nonzero;fill:#aac1ea;fill-opacity:1;stroke-width:7.68;stroke-linecap:round;stroke-linejoin:round;stroke:#000;stroke-opacity:1;stroke-miterlimit:10" d="m970.117 1326.523 1012.266 69.61-196.406 572.11" transform="matrix(.1 0 0 -.1 0 200)"/><path style="fill-rule:nonzero;fill:#aac1ea;fill-opacity:1;stroke-width:7.68;stroke-linecap:round;stroke-linejoin:round;stroke:#000;stroke-opacity:1;stroke-miterlimit:10" d="m1785.977 1968.242-923.672-54.531 107.812-587.188" transform="matrix(.1 0 0 -.1 0 200)"/><path style="stroke:none;fill-rule:nonzero;fill:#a2bae9;fill-opacity:1" d="M86.23 8.629 6.125 48.387l90.887 18.96"/><path style="fill:none;stroke-width:7.68;stroke-linecap:round;stroke-linejoin:round;stroke:#000;stroke-opacity:1;stroke-miterlimit:10" d="M862.305 1913.71 61.25 1516.134l908.867-189.61Zm0 0" transform="matrix(.1 0 0 -.1 0 200)"/><path style="stroke:none;fill-rule:nonzero;fill:#986899;fill-opacity:1" d="M97.012 67.348 6.125 48.387l42.469 87.77"/><path style="fill:none;stroke-width:7.68;stroke-linecap:round;stroke-linejoin:round;stroke:#000;stroke-opacity:1;stroke-miterlimit:10" d="M970.117 1326.523 61.25 1516.133l424.688-877.696Zm0 0" transform="matrix(.1 0 0 -.1 0 200)"/><path style="fill-rule:nonzero;fill:#b86f7d;fill-opacity:1;stroke-width:7.68;stroke-linecap:round;stroke-linejoin:round;stroke:#000;stroke-opacity:1;stroke-miterlimit:10" d="m1982.383 1396.133-1012.266-69.61-484.18-688.085" transform="matrix(.1 0 0 -.1 0 200)"/></svg>