<svg xmlns="http://www.w3.org/2000/svg" width="251.96" height="249.24" viewBox="0 0 188.97 186.93" version="1.2"><defs><clipPath id="a"><path d="M112 0h76.918v138H112Zm0 0"/></clipPath><clipPath id="b"><path d="M.02 61H113v125.86H.02Zm0 0"/></clipPath><clipPath id="c"><path d="M.02 61H114v125.86H.02Zm0 0"/></clipPath><clipPath id="d"><path d="M79 61h109.918v125.86H79Zm0 0"/></clipPath><clipPath id="e"><path d="M.02 27H113v63H.02Zm0 0"/></clipPath><clipPath id="f"><path d="M.02 27H114v64H.02Zm0 0"/></clipPath><clipPath id="g"><path d="M72 137h116.918v49.86H72Zm0 0"/></clipPath><clipPath id="h"><path d="M71 136h117.918v50.86H71Zm0 0"/></clipPath><clipPath id="i"><path d="M.02 89H80v97.86H.02Zm0 0"/></clipPath><clipPath id="j"><path d="M.02 89H81v97.86H.02Zm0 0"/></clipPath><clipPath id="k"><path d="M.02 27H73v146H.02Zm0 0"/></clipPath><clipPath id="l"><path d="M72 0h116.918v173H72Zm0 0"/></clipPath><clipPath id="m"><path d="M71 0h117.918v173H71Zm0 0"/></clipPath></defs><g clip-path="url(#a)"><path style="stroke:none;fill-rule:nonzero;fill:#806ab2;fill-opacity:1" d="m112.727 61.691 58.332-61.3 17.468 136.71-75.8-75.41"/><path style="fill:none;stroke-width:7.82001;stroke-linecap:round;stroke-linejoin:round;stroke:#231f20;stroke-opacity:1;stroke-miterlimit:10" d="m1127.484 1252.155 583.539 613.237 174.753-1367.621Zm0 0" transform="matrix(.09996 0 0 -.09996 .02 186.86)"/></g><g clip-path="url(#b)"><path style="stroke:none;fill-rule:nonzero;fill:#c9a7bd;fill-opacity:1" d="M79.93 186.469.41 89.793l112.317-28.102L79.93 186.47"/></g><g clip-path="url(#c)"><path style="fill:none;stroke-width:7.82001;stroke-linecap:round;stroke-linejoin:round;stroke:#231f20;stroke-opacity:1;stroke-miterlimit:10" d="M799.392 3.914 3.9 971.034l1123.585 281.12Zm0 0" transform="matrix(.09996 0 0 -.09996 .02 186.86)"/></g><g clip-path="url(#d)"><path style="stroke:none;fill-rule:nonzero;fill:#9a90c7;fill-opacity:1" d="M188.527 137.102 79.93 186.469 112.727 61.69l75.8 75.41"/><path style="fill:none;stroke-width:7.82001;stroke-linecap:round;stroke-linejoin:round;stroke:#231f20;stroke-opacity:1;stroke-miterlimit:10" d="M1885.776 497.771 799.392 3.914l328.092 1248.24Zm0 0" transform="matrix(.09996 0 0 -.09996 .02 186.86)"/></g><path style="fill-rule:nonzero;fill:#be5f4f;fill-opacity:1;stroke-width:7.82001;stroke-linecap:round;stroke-linejoin:round;stroke:#231f20;stroke-opacity:1;stroke-miterlimit:10" d="m508.346 1594.744 1202.677 270.648-583.54-613.237" transform="matrix(.09996 0 0 -.09996 .02 186.86)"/><g clip-path="url(#e)"><path style="stroke:none;fill-rule:nonzero;fill:#be5f4f;fill-opacity:1" d="M112.727 61.691.41 89.793l50.426-62.348"/></g><g clip-path="url(#f)"><path style="fill:none;stroke-width:7.82001;stroke-linecap:round;stroke-linejoin:round;stroke:#231f20;stroke-opacity:1;stroke-miterlimit:10" d="M1127.484 1252.155 3.899 971.035l504.447 623.71" transform="matrix(.09996 0 0 -.09996 .02 186.86)"/></g><g clip-path="url(#g)"><path style="stroke:none;fill-rule:nonzero;fill:#9a2825;fill-opacity:1" d="M188.527 137.102 72.324 172.137l7.606 14.332 108.597-49.367"/></g><g clip-path="url(#h)"><path style="fill:none;stroke-width:7.82001;stroke-linecap:round;stroke-linejoin:round;stroke:#231f20;stroke-opacity:1;stroke-miterlimit:10" d="M1885.776 497.771 723.309 147.288 799.392 3.914Zm0 0" transform="matrix(.09996 0 0 -.09996 .02 186.86)"/></g><g clip-path="url(#i)"><path style="stroke:none;fill-rule:nonzero;fill:#231f20;fill-opacity:1" d="m.41 89.793 79.52 96.676-7.606-14.332L.41 89.793"/></g><g clip-path="url(#j)"><path style="fill:none;stroke-width:7.82001;stroke-linecap:round;stroke-linejoin:round;stroke:#231f20;stroke-opacity:1;stroke-miterlimit:10" d="M3.9 971.034 799.391 3.914 723.31 147.288Zm0 0" transform="matrix(.09996 0 0 -.09996 .02 186.86)"/></g><g clip-path="url(#k)"><path style="stroke:none;fill-rule:nonzero;fill:#745eac;fill-opacity:1" d="M50.836 27.445.41 89.793l71.914 82.344L50.836 27.445"/><path style="fill:none;stroke-width:7.82001;stroke-linecap:round;stroke-linejoin:round;stroke:#231f20;stroke-opacity:1;stroke-miterlimit:10" d="M508.346 1594.744 3.899 971.034l719.41-823.746Zm0 0" transform="matrix(.09996 0 0 -.09996 .02 186.86)"/></g><g clip-path="url(#l)"><path style="stroke:none;fill-rule:nonzero;fill:#cca5b8;fill-opacity:1" d="m72.324 172.137 116.203-35.035L171.06.39"/></g><g clip-path="url(#m)"><path style="fill:none;stroke-width:7.82001;stroke-linecap:round;stroke-linejoin:round;stroke:#231f20;stroke-opacity:1;stroke-miterlimit:10" d="m723.31 147.288 1162.466 350.483-174.753 1367.621" transform="matrix(.09996 0 0 -.09996 .02 186.86)"/></g><path style="fill-rule:nonzero;fill:#cca5b8;fill-opacity:1;stroke-width:7.82001;stroke-linecap:round;stroke-linejoin:round;stroke:#231f20;stroke-opacity:1;stroke-miterlimit:10" d="M1711.023 1865.392 508.346 1594.744 723.309 147.288" transform="matrix(.09996 0 0 -.09996 .02 186.86)"/></svg>