<svg xmlns="http://www.w3.org/2000/svg" width="208pt" height="200pt" viewBox="0 0 208 200" version="1.2"><path style="stroke:none;fill-rule:nonzero;fill:#b287a7;fill-opacity:1" d="M125.023 125.914 65.965 105.27l62.875-78.598"/><path style="fill:none;stroke-width:7.3;stroke-linecap:round;stroke-linejoin:round;stroke:#000;stroke-opacity:1;stroke-miterlimit:10" d="M1250.234 740.86 659.648 947.304" transform="matrix(.1 0 0 -.1 0 200)"/><path style="fill-rule:nonzero;fill:#b287a7;fill-opacity:1;stroke-width:7.3;stroke-linecap:round;stroke-linejoin:round;stroke:#000;stroke-opacity:1;stroke-miterlimit:10" d="m1288.398 1733.281 355.235-519.61-393.399-472.812" transform="matrix(.1 0 0 -.1 0 200)"/><path style="fill-rule:nonzero;fill:#7d7bc6;fill-opacity:1;stroke-width:7.3;stroke-linecap:round;stroke-linejoin:round;stroke:#000;stroke-opacity:1;stroke-miterlimit:10" d="m1250.234 740.86 393.399 472.812 380.469-171.211" transform="matrix(.1 0 0 -.1 0 200)"/><path style="stroke:none;fill-rule:nonzero;fill:#7d7bc6;fill-opacity:1" d="m133.969 175.91-8.946-49.996 77.387-30.16"/><path style="fill:none;stroke-width:7.3;stroke-linecap:round;stroke-linejoin:round;stroke:#000;stroke-opacity:1;stroke-miterlimit:10" d="m1339.688 240.898-89.454 499.961" transform="matrix(.1 0 0 -.1 0 200)"/><path style="stroke:none;fill-rule:nonzero;fill:#c0bbd6;fill-opacity:1" d="m125.023 125.914 8.946 49.996-101.156-34.902"/><path style="fill:none;stroke-width:7.3;stroke-linecap:round;stroke-linejoin:round;stroke:#000;stroke-opacity:1;stroke-miterlimit:10" d="m1250.234 740.86 89.454-499.962" transform="matrix(.1 0 0 -.1 0 200)"/><path style="fill-rule:nonzero;fill:#c0bbd6;fill-opacity:1;stroke-width:7.3;stroke-linecap:round;stroke-linejoin:round;stroke:#000;stroke-opacity:1;stroke-miterlimit:10" d="m328.125 589.922 331.523 357.383 590.586-206.446" transform="matrix(.1 0 0 -.1 0 200)"/><path style="fill-rule:nonzero;fill:#b287a7;fill-opacity:1;stroke-width:7.3;stroke-linecap:round;stroke-linejoin:round;stroke:#000;stroke-opacity:1;stroke-miterlimit:10" d="m659.648 947.305 9.297 612.773 619.453 173.203" transform="matrix(.1 0 0 -.1 0 200)"/><path style="stroke:none;fill-rule:nonzero;fill:#ebb59a;fill-opacity:1" d="m65.965 105.27-33.153 35.738.25-105.383"/><path style="fill:none;stroke-width:7.3;stroke-linecap:round;stroke-linejoin:round;stroke:#000;stroke-opacity:1;stroke-miterlimit:10" d="M659.648 947.305 328.125 589.922" transform="matrix(.1 0 0 -.1 0 200)"/><path style="fill-rule:nonzero;fill:#ebb59a;fill-opacity:1;stroke-width:7.3;stroke-linecap:round;stroke-linejoin:round;stroke:#000;stroke-opacity:1;stroke-miterlimit:10" d="m330.625 1643.75 338.32-83.672-9.297-612.773" transform="matrix(.1 0 0 -.1 0 200)"/><path style="fill-rule:nonzero;fill:#450555;fill-opacity:1;stroke-width:7.3;stroke-linecap:round;stroke-linejoin:round;stroke:#000;stroke-opacity:1;stroke-miterlimit:10" d="m1902.148 1500.781 121.954-458.32-380.47 171.21" transform="matrix(.1 0 0 -.1 0 200)"/><path style="stroke:none;fill-rule:nonzero;fill:#450555;fill-opacity:1" d="m141.277 5.086 48.938 44.836-25.852 28.71"/><path style="fill:none;stroke-width:7.3;stroke-linecap:round;stroke-linejoin:round;stroke:#000;stroke-opacity:1;stroke-miterlimit:10" d="m1412.773 1949.14 489.375-448.359" transform="matrix(.1 0 0 -.1 0 200)"/><path style="fill-rule:nonzero;fill:#450555;fill-opacity:1;stroke-width:7.3;stroke-linecap:round;stroke-linejoin:round;stroke:#000;stroke-opacity:1;stroke-miterlimit:10" d="m1643.633 1213.672-355.235 519.61 124.375 215.859" transform="matrix(.1 0 0 -.1 0 200)"/><path style="fill-rule:nonzero;fill:#a42713;fill-opacity:1;stroke-width:7.3;stroke-linecap:round;stroke-linejoin:round;stroke:#000;stroke-opacity:1;stroke-miterlimit:10" d="m1412.773 1949.14-124.375-215.859-619.453-173.203" transform="matrix(.1 0 0 -.1 0 200)"/><path style="stroke:none;fill-rule:nonzero;fill:#a42713;fill-opacity:1" d="m79.02 9.996 62.257-4.91-74.382 38.906"/><path style="fill:none;stroke-width:7.3;stroke-linecap:round;stroke-linejoin:round;stroke:#000;stroke-opacity:1;stroke-miterlimit:10" d="m790.195 1900.04 622.578 49.1" transform="matrix(.1 0 0 -.1 0 200)"/><path style="fill-rule:nonzero;fill:#a42713;fill-opacity:1;stroke-width:7.3;stroke-linecap:round;stroke-linejoin:round;stroke:#000;stroke-opacity:1;stroke-miterlimit:10" d="m668.945 1560.078-338.32 83.672 459.57 256.29" transform="matrix(.1 0 0 -.1 0 200)"/><path style="fill-rule:nonzero;fill:#7d7bc6;fill-opacity:1;stroke-width:7.3;stroke-linecap:round;stroke-linejoin:round;stroke:#000;stroke-opacity:1;stroke-miterlimit:10" d="M2024.102 1042.46 1833.945 402.5l-494.257-161.602" transform="matrix(.1 0 0 -.1 0 200)"/><path style="fill-rule:nonzero;fill:#630000;fill-opacity:1;stroke-width:7.3;stroke-linecap:round;stroke-linejoin:round;stroke:#000;stroke-opacity:1;stroke-miterlimit:10" d="M1339.688 240.898 1833.945 402.5l-270.39-6.953" transform="matrix(.1 0 0 -.1 0 200)"/><path style="fill-rule:nonzero;fill:#c0bbd6;fill-opacity:1;stroke-width:7.3;stroke-linecap:round;stroke-linejoin:round;stroke:#000;stroke-opacity:1;stroke-miterlimit:10" d="M1339.688 240.898 755.467 123.79 328.126 589.922" transform="matrix(.1 0 0 -.1 0 200)"/><path style="stroke:none;fill-rule:nonzero;fill:#630000;fill-opacity:1" d="m75.547 187.621 58.422-11.71 22.386-15.466"/><path style="fill:none;stroke-width:7.3;stroke-linecap:round;stroke-linejoin:round;stroke:#000;stroke-opacity:1;stroke-miterlimit:10" d="m755.469 123.79 584.218 117.108" transform="matrix(.1 0 0 -.1 0 200)"/><path style="fill-rule:nonzero;fill:#ebb59a;fill-opacity:1;stroke-width:7.3;stroke-linecap:round;stroke-linejoin:round;stroke:#000;stroke-opacity:1;stroke-miterlimit:10" d="M328.125 589.922 98.437 1006.875l232.188 636.875" transform="matrix(.1 0 0 -.1 0 200)"/><path style="stroke:none;fill-rule:nonzero;fill:#000005;fill-opacity:1" d="m32.813 141.008 42.734 46.613-35.219-67.469"/><path style="fill:none;stroke-width:7.3;stroke-linecap:round;stroke-linejoin:round;stroke:#000;stroke-opacity:1;stroke-miterlimit:10" d="m328.125 589.922 427.344-466.133" transform="matrix(.1 0 0 -.1 0 200)"/><path style="fill-rule:nonzero;fill:#000005;fill-opacity:1;stroke-width:7.3;stroke-linecap:round;stroke-linejoin:round;stroke:#000;stroke-opacity:1;stroke-miterlimit:10" d="M403.281 798.477 98.437 1006.875l229.688-416.953" transform="matrix(.1 0 0 -.1 0 200)"/><path style="fill-rule:nonzero;fill:#f8bb85;fill-opacity:1;stroke-width:7.3;stroke-linecap:round;stroke-linejoin:round;stroke:#000;stroke-opacity:1;stroke-miterlimit:10" d="m1833.945 402.5 190.157 639.96-121.954 458.321" transform="matrix(.1 0 0 -.1 0 200)"/><path style="fill-rule:nonzero;fill:#000005;fill-opacity:1;stroke-width:7.3;stroke-linecap:round;stroke-linejoin:round;stroke:#000;stroke-opacity:1;stroke-miterlimit:10" d="m755.469 123.79 84.101 84.022-436.289 590.665" transform="matrix(.1 0 0 -.1 0 200)"/><path style="fill-rule:nonzero;fill:#630000;fill-opacity:1;stroke-width:7.3;stroke-linecap:round;stroke-linejoin:round;stroke:#000;stroke-opacity:1;stroke-miterlimit:10" d="M1563.555 395.547 839.57 207.812 755.47 123.79" transform="matrix(.1 0 0 -.1 0 200)"/><path style="fill-rule:nonzero;fill:#6670c8;fill-opacity:1;stroke-width:7.3;stroke-linecap:round;stroke-linejoin:round;stroke:#000;stroke-opacity:1;stroke-miterlimit:10" d="m790.195 1900.04-459.57-256.29-232.188-636.875" transform="matrix(.1 0 0 -.1 0 200)"/><path style="fill-rule:nonzero;fill:#f8bb85;fill-opacity:1;stroke-width:7.3;stroke-linecap:round;stroke-linejoin:round;stroke:#000;stroke-opacity:1;stroke-miterlimit:10" d="m1600.86 1121.328-37.305-725.781 270.39 6.953" transform="matrix(.1 0 0 -.1 0 200)"/><path style="stroke:none;fill-rule:nonzero;fill:#f8bb85;fill-opacity:1" d="m190.215 49.922-30.13 37.945 23.31 71.883"/><path style="fill:none;stroke-width:7.3;stroke-linecap:round;stroke-linejoin:round;stroke:#000;stroke-opacity:1;stroke-miterlimit:10" d="m1902.148 1500.781-301.289-379.453" transform="matrix(.1 0 0 -.1 0 200)"/><path style="fill-rule:nonzero;fill:#c1c6dd;fill-opacity:1;stroke-width:7.3;stroke-linecap:round;stroke-linejoin:round;stroke:#000;stroke-opacity:1;stroke-miterlimit:10" d="m1902.148 1500.781-489.375 448.36-622.578-49.102" transform="matrix(.1 0 0 -.1 0 200)"/><path style="stroke:none;fill-rule:nonzero;fill:#6670c8;fill-opacity:1" d="M86.637 61.84 79.02 9.996 9.844 99.313"/><path style="fill:none;stroke-width:7.3;stroke-linecap:round;stroke-linejoin:round;stroke:#000;stroke-opacity:1;stroke-miterlimit:10" d="m866.367 1381.602-76.172 518.437" transform="matrix(.1 0 0 -.1 0 200)"/><path style="fill-rule:nonzero;fill:#6670c8;fill-opacity:1;stroke-width:7.3;stroke-linecap:round;stroke-linejoin:round;stroke:#000;stroke-opacity:1;stroke-miterlimit:10" d="M98.438 1006.875 403.28 798.477l463.086 583.125" transform="matrix(.1 0 0 -.1 0 200)"/><path style="fill-rule:nonzero;fill:#c1c6dd;fill-opacity:1;stroke-width:7.3;stroke-linecap:round;stroke-linejoin:round;stroke:#000;stroke-opacity:1;stroke-miterlimit:10" d="m866.367 1381.602 734.492-260.274 301.29 379.453" transform="matrix(.1 0 0 -.1 0 200)"/><path style="stroke:none;fill-rule:nonzero;fill:#c1c6dd;fill-opacity:1" d="m79.02 9.996 7.617 51.844 103.578-11.918"/><path style="fill:none;stroke-width:7.3;stroke-linecap:round;stroke-linejoin:round;stroke:#000;stroke-opacity:1;stroke-miterlimit:10" d="m790.195 1900.04 76.172-518.438" transform="matrix(.1 0 0 -.1 0 200)"/><path style="stroke:none;fill-rule:nonzero;fill:#7f447d;fill-opacity:1" d="m83.957 179.219 20.012-42.82-63.64-16.247"/><path style="fill:none;stroke-width:7.3;stroke-linecap:round;stroke-linejoin:round;stroke:#000;stroke-opacity:1;stroke-miterlimit:10" d="m839.57 207.813 200.117 428.203-636.406 162.46Zm0 0" transform="matrix(.1 0 0 -.1 0 200)"/><path style="stroke:none;fill-rule:nonzero;fill:#b35a61;fill-opacity:1" d="m103.969 136.398-20.012 42.82 72.398-18.773"/><path style="fill:none;stroke-width:7.3;stroke-linecap:round;stroke-linejoin:round;stroke:#000;stroke-opacity:1;stroke-miterlimit:10" d="M1039.688 636.016 839.57 207.813l723.985 187.734Zm0 0" transform="matrix(.1 0 0 -.1 0 200)"/><path style="stroke:none;fill-rule:nonzero;fill:#d6a19e;fill-opacity:1" d="m103.969 136.398 52.386 24.047 3.73-72.578"/><path style="fill:none;stroke-width:7.3;stroke-linecap:round;stroke-linejoin:round;stroke:#000;stroke-opacity:1;stroke-miterlimit:10" d="m1039.688 636.016 523.867-240.47 37.304 725.782Zm0 0" transform="matrix(.1 0 0 -.1 0 200)"/><path style="stroke:none;fill-rule:nonzero;fill:#937fb9;fill-opacity:1" d="M103.969 136.398 86.637 61.84l-46.309 58.312"/><path style="fill:none;stroke-width:7.3;stroke-linecap:round;stroke-linejoin:round;stroke:#000;stroke-opacity:1;stroke-miterlimit:10" d="m1039.688 636.016-173.32 745.586L403.28 798.477Zm0 0" transform="matrix(.1 0 0 -.1 0 200)"/><path style="stroke:none;fill-rule:nonzero;fill:#bda8c4;fill-opacity:1" d="m103.969 136.398 56.117-48.53-73.45-26.028"/><path style="fill:none;stroke-width:7.3;stroke-linecap:round;stroke-linejoin:round;stroke:#000;stroke-opacity:1;stroke-miterlimit:10" d="m1039.688 636.016 561.171 485.312-734.492 260.274Zm0 0" transform="matrix(.1 0 0 -.1 0 200)"/></svg>