<?xml version="1.0" encoding="UTF-8"?>
<svg xmlns="http://www.w3.org/2000/svg" xmlns:xlink="http://www.w3.org/1999/xlink" width="160.93pt" height="190pt" viewBox="0 0 160.93 190" version="1.2">
<defs>
<clipPath id="clip1">
  <path d="M 0 87 L 76 87 L 76 189.957031 L 0 189.957031 Z M 0 87 "/>
</clipPath>
<clipPath id="clip2">
  <path d="M 0 153 L 61 153 L 61 189.957031 L 0 189.957031 Z M 0 153 "/>
</clipPath>
<clipPath id="clip3">
  <path d="M 60 87 L 130 87 L 130 189.957031 L 60 189.957031 Z M 60 87 "/>
</clipPath>
<clipPath id="clip4">
  <path d="M 60 169 L 130 169 L 130 189.957031 L 60 189.957031 Z M 60 169 "/>
</clipPath>
<clipPath id="clip5">
  <path d="M 99 0.0429688 L 160.859375 0.0429688 L 160.859375 51 L 99 51 Z M 99 0.0429688 "/>
</clipPath>
<clipPath id="clip6">
  <path d="M 99 0.0429688 L 160.859375 0.0429688 L 160.859375 52 L 99 52 Z M 99 0.0429688 "/>
</clipPath>
<clipPath id="clip7">
  <path d="M 39 0.0429688 L 134 0.0429688 L 134 51 L 39 51 Z M 39 0.0429688 "/>
</clipPath>
<clipPath id="clip8">
  <path d="M 38 0.0429688 L 134 0.0429688 L 134 52 L 38 52 Z M 38 0.0429688 "/>
</clipPath>
<clipPath id="clip9">
  <path d="M 132 50 L 160.859375 50 L 160.859375 119 L 132 119 Z M 132 50 "/>
</clipPath>
<clipPath id="clip10">
  <path d="M 133 29 L 160.859375 29 L 160.859375 103 L 133 103 Z M 133 29 "/>
</clipPath>
<clipPath id="clip11">
  <path d="M 129 102 L 160.859375 102 L 160.859375 170 L 129 170 Z M 129 102 "/>
</clipPath>
<clipPath id="clip12">
  <path d="M 128 101 L 160.859375 101 L 160.859375 170 L 128 170 Z M 128 101 "/>
</clipPath>
<clipPath id="clip13">
  <path d="M 39 0.0429688 L 100 0.0429688 L 100 40 L 39 40 Z M 39 0.0429688 "/>
</clipPath>
<clipPath id="clip14">
  <path d="M 38 0.0429688 L 100 0.0429688 L 100 40 L 38 40 Z M 38 0.0429688 "/>
</clipPath>
<clipPath id="clip15">
  <path d="M 99 0.0429688 L 160.859375 0.0429688 L 160.859375 49 L 99 49 Z M 99 0.0429688 "/>
</clipPath>
<clipPath id="clip16">
  <path d="M 99 0.0429688 L 160.859375 0.0429688 L 160.859375 50 L 99 50 Z M 99 0.0429688 "/>
</clipPath>
<clipPath id="clip17">
  <path d="M 59 0.0429688 L 124 0.0429688 L 124 49 L 59 49 Z M 59 0.0429688 "/>
</clipPath>
<clipPath id="clip18">
  <path d="M 59 0.0429688 L 125 0.0429688 L 125 50 L 59 50 Z M 59 0.0429688 "/>
</clipPath>
<clipPath id="clip19">
  <path d="M 123 29 L 160.859375 29 L 160.859375 103 L 123 103 Z M 123 29 "/>
</clipPath>
<clipPath id="clip20">
  <path d="M 0 139 L 61 139 L 61 189.957031 L 0 189.957031 Z M 0 139 "/>
</clipPath>
<clipPath id="clip21">
  <path d="M 50 66 L 160.859375 66 L 160.859375 170 L 50 170 Z M 50 66 "/>
</clipPath>
<clipPath id="clip22">
  <path d="M 128 101 L 160.859375 101 L 160.859375 170 L 128 170 Z M 128 101 "/>
</clipPath>
<clipPath id="clip23">
  <path d="M 50 66 L 130 66 L 130 189.957031 L 50 189.957031 Z M 50 66 "/>
</clipPath>
<clipPath id="clip24">
  <path d="M 60 169 L 130 169 L 130 189.957031 L 60 189.957031 Z M 60 169 "/>
</clipPath>
<clipPath id="clip25">
  <path d="M 50 48 L 160.859375 48 L 160.859375 103 L 50 103 Z M 50 48 "/>
</clipPath>
<clipPath id="clip26">
  <path d="M 49 48 L 160.859375 48 L 160.859375 103 L 49 103 Z M 49 48 "/>
</clipPath>
<clipPath id="clip27">
  <path d="M 18 66 L 61 66 L 61 189.957031 L 18 189.957031 Z M 18 66 "/>
</clipPath>
<clipPath id="clip28">
  <path d="M 17 65 L 61 65 L 61 189.957031 L 17 189.957031 Z M 17 65 "/>
</clipPath>
</defs>
<g id="surface1">
<path style="fill-rule:nonzero;fill:rgb(73.725891%,55.780029%,67.074585%);fill-opacity:1;stroke-width:6.04001;stroke-linecap:round;stroke-linejoin:round;stroke:rgb(13.729858%,12.159729%,12.548828%);stroke-opacity:1;stroke-miterlimit:10;" d="M 1336.205959 1393.08327 L 756.852504 1027.338313 L 392.553488 1510.009107 " transform="matrix(0.0999565,0,0,-0.0999565,0,189.958696)"/>
<path style=" stroke:none;fill-rule:nonzero;fill:rgb(77.157593%,60.046387%,69.276428%);fill-opacity:1;" d="M 11.726562 103.050781 L 39.238281 39.023438 L 75.652344 87.269531 L 11.726562 103.050781 "/>
<path style="fill:none;stroke-width:6.04001;stroke-linecap:round;stroke-linejoin:round;stroke:rgb(13.729858%,12.159729%,12.548828%);stroke-opacity:1;stroke-miterlimit:10;" d="M 117.316632 869.457169 L 392.553488 1510.009107 L 756.852504 1027.338313 Z M 117.316632 869.457169 " transform="matrix(0.0999565,0,0,-0.0999565,0,189.958696)"/>
<path style="fill-rule:nonzero;fill:rgb(71.092224%,71.768188%,86.999512%);fill-opacity:1;stroke-width:6.04001;stroke-linecap:round;stroke-linejoin:round;stroke:rgb(13.729858%,12.159729%,12.548828%);stroke-opacity:1;stroke-miterlimit:10;" d="M 3.009121 364.276588 L 117.316632 869.457169 L 756.852504 1027.338313 " transform="matrix(0.0999565,0,0,-0.0999565,0,189.958696)"/>
<g clip-path="url(#clip1)" clip-rule="nonzero">
<path style=" stroke:none;fill-rule:nonzero;fill:rgb(71.092224%,71.768188%,86.999512%);fill-opacity:1;" d="M 60.546875 189.65625 L 0.300781 153.546875 L 75.652344 87.269531 "/>
</g>
<g clip-path="url(#clip2)" clip-rule="nonzero">
<path style="fill:none;stroke-width:6.04001;stroke-linecap:round;stroke-linejoin:round;stroke:rgb(13.729858%,12.159729%,12.548828%);stroke-opacity:1;stroke-miterlimit:10;" d="M 605.732112 3.025772 L 3.009121 364.276588 " transform="matrix(0.0999565,0,0,-0.0999565,0,189.958696)"/>
</g>
<g clip-path="url(#clip3)" clip-rule="nonzero">
<path style=" stroke:none;fill-rule:nonzero;fill:rgb(71.092224%,71.768188%,86.999512%);fill-opacity:1;" d="M 129.226562 169.632812 L 60.546875 189.65625 L 75.652344 87.269531 "/>
</g>
<g clip-path="url(#clip4)" clip-rule="nonzero">
<path style="fill:none;stroke-width:6.04001;stroke-linecap:round;stroke-linejoin:round;stroke:rgb(13.729858%,12.159729%,12.548828%);stroke-opacity:1;stroke-miterlimit:10;" d="M 1292.827724 203.347243 L 605.732112 3.025772 " transform="matrix(0.0999565,0,0,-0.0999565,0,189.958696)"/>
</g>
<path style="fill-rule:nonzero;fill:rgb(71.092224%,71.768188%,86.999512%);fill-opacity:1;stroke-width:6.04001;stroke-linecap:round;stroke-linejoin:round;stroke:rgb(13.729858%,12.159729%,12.548828%);stroke-opacity:1;stroke-miterlimit:10;" d="M 756.852504 1027.338313 L 1329.015333 719.470082 L 1292.827724 203.347243 " transform="matrix(0.0999565,0,0,-0.0999565,0,189.958696)"/>
<path style=" stroke:none;fill-rule:nonzero;fill:rgb(67.190552%,59.870911%,79.696655%);fill-opacity:1;" d="M 133.5625 50.710938 L 132.84375 118.042969 L 75.652344 87.269531 L 133.5625 50.710938 "/>
<path style="fill:none;stroke-width:6.04001;stroke-linecap:round;stroke-linejoin:round;stroke:rgb(13.729858%,12.159729%,12.548828%);stroke-opacity:1;stroke-miterlimit:10;" d="M 1336.205959 1393.08327 L 1329.015333 719.470082 L 756.852504 1027.338313 Z M 1336.205959 1393.08327 " transform="matrix(0.0999565,0,0,-0.0999565,0,189.958696)"/>
<g clip-path="url(#clip5)" clip-rule="nonzero">
<path style=" stroke:none;fill-rule:nonzero;fill:rgb(52.702332%,30.531311%,53.128052%);fill-opacity:1;" d="M 99.339844 0.339844 L 160.558594 29.957031 L 133.5625 50.710938 L 99.339844 0.339844 "/>
</g>
<g clip-path="url(#clip6)" clip-rule="nonzero">
<path style="fill:none;stroke-width:6.04001;stroke-linecap:round;stroke-linejoin:round;stroke:rgb(13.729858%,12.159729%,12.548828%);stroke-opacity:1;stroke-miterlimit:10;" d="M 993.830538 1897.013307 L 1606.284322 1600.712606 L 1336.205959 1393.08327 Z M 993.830538 1897.013307 " transform="matrix(0.0999565,0,0,-0.0999565,0,189.958696)"/>
</g>
<g clip-path="url(#clip7)" clip-rule="nonzero">
<path style=" stroke:none;fill-rule:nonzero;fill:rgb(73.725891%,55.780029%,67.074585%);fill-opacity:1;" d="M 39.238281 39.023438 L 99.339844 0.339844 L 133.5625 50.710938 "/>
</g>
<g clip-path="url(#clip8)" clip-rule="nonzero">
<path style="fill:none;stroke-width:6.04001;stroke-linecap:round;stroke-linejoin:round;stroke:rgb(13.729858%,12.159729%,12.548828%);stroke-opacity:1;stroke-miterlimit:10;" d="M 392.553488 1510.009107 L 993.830538 1897.013307 L 1336.205959 1393.08327 " transform="matrix(0.0999565,0,0,-0.0999565,0,189.958696)"/>
</g>
<g clip-path="url(#clip9)" clip-rule="nonzero">
<path style="fill-rule:nonzero;fill:rgb(33.270264%,36.616516%,70.629883%);fill-opacity:1;stroke-width:6.04001;stroke-linecap:round;stroke-linejoin:round;stroke:rgb(13.729858%,12.159729%,12.548828%);stroke-opacity:1;stroke-miterlimit:10;" d="M 1604.799301 877.351226 L 1329.015333 719.470082 L 1336.205959 1393.08327 " transform="matrix(0.0999565,0,0,-0.0999565,0,189.958696)"/>
</g>
<g clip-path="url(#clip10)" clip-rule="nonzero">
<path style="fill-rule:nonzero;fill:rgb(33.270264%,36.616516%,70.629883%);fill-opacity:1;stroke-width:6.04001;stroke-linecap:round;stroke-linejoin:round;stroke:rgb(13.729858%,12.159729%,12.548828%);stroke-opacity:1;stroke-miterlimit:10;" d="M 1336.205959 1393.08327 L 1606.284322 1600.712606 L 1604.799301 877.351226 " transform="matrix(0.0999565,0,0,-0.0999565,0,189.958696)"/>
</g>
<path style="fill-rule:nonzero;fill:rgb(19.12384%,24.746704%,61.753845%);fill-opacity:1;stroke-width:6.04001;stroke-linecap:round;stroke-linejoin:round;stroke:rgb(13.729858%,12.159729%,12.548828%);stroke-opacity:1;stroke-miterlimit:10;" d="M 392.553488 1510.009107 L 117.316632 869.457169 L 3.009121 364.276588 " transform="matrix(0.0999565,0,0,-0.0999565,0,189.958696)"/>
<g clip-path="url(#clip11)" clip-rule="nonzero">
<path style=" stroke:none;fill-rule:nonzero;fill:rgb(23.887634%,39.561462%,72.471619%);fill-opacity:1;" d="M 160.410156 102.261719 L 129.226562 169.632812 L 132.84375 118.042969 L 160.410156 102.261719 "/>
</g>
<g clip-path="url(#clip12)" clip-rule="nonzero">
<path style="fill:none;stroke-width:6.04001;stroke-linecap:round;stroke-linejoin:round;stroke:rgb(13.729858%,12.159729%,12.548828%);stroke-opacity:1;stroke-miterlimit:10;" d="M 1604.799301 877.351226 L 1292.827724 203.347243 L 1329.015333 719.470082 Z M 1604.799301 877.351226 " transform="matrix(0.0999565,0,0,-0.0999565,0,189.958696)"/>
</g>
<g clip-path="url(#clip13)" clip-rule="nonzero">
<path style=" stroke:none;fill-rule:nonzero;fill:rgb(69.032288%,21.383667%,16.470337%);fill-opacity:1;" d="M 99.339844 0.339844 L 39.238281 39.023438 L 59.484375 16.554688 L 99.339844 0.339844 "/>
</g>
<g clip-path="url(#clip14)" clip-rule="nonzero">
<path style="fill:none;stroke-width:6.04001;stroke-linecap:round;stroke-linejoin:round;stroke:rgb(13.729858%,12.159729%,12.548828%);stroke-opacity:1;stroke-miterlimit:10;" d="M 993.830538 1897.013307 L 392.553488 1510.009107 L 595.10249 1734.79434 Z M 993.830538 1897.013307 " transform="matrix(0.0999565,0,0,-0.0999565,0,189.958696)"/>
</g>
<path style="fill-rule:nonzero;fill:rgb(19.12384%,24.746704%,61.753845%);fill-opacity:1;stroke-width:6.04001;stroke-linecap:round;stroke-linejoin:round;stroke:rgb(13.729858%,12.159729%,12.548828%);stroke-opacity:1;stroke-miterlimit:10;" d="M 502.874891 1238.523883 L 595.10249 1734.79434 L 392.553488 1510.009107 " transform="matrix(0.0999565,0,0,-0.0999565,0,189.958696)"/>
<path style=" stroke:none;fill-rule:nonzero;fill:rgb(19.12384%,24.746704%,61.753845%);fill-opacity:1;" d="M 18.269531 139.773438 L 50.265625 66.160156 L 39.238281 39.023438 "/>
<path style="fill:none;stroke-width:6.04001;stroke-linecap:round;stroke-linejoin:round;stroke:rgb(13.729858%,12.159729%,12.548828%);stroke-opacity:1;stroke-miterlimit:10;" d="M 182.77478 502.070873 L 502.874891 1238.523883 " transform="matrix(0.0999565,0,0,-0.0999565,0,189.958696)"/>
<path style=" stroke:none;fill-rule:nonzero;fill:rgb(19.12384%,24.746704%,61.753845%);fill-opacity:1;" d="M 0.300781 153.546875 L 18.269531 139.773438 L 39.238281 39.023438 "/>
<path style="fill:none;stroke-width:6.04001;stroke-linecap:round;stroke-linejoin:round;stroke:rgb(13.729858%,12.159729%,12.548828%);stroke-opacity:1;stroke-miterlimit:10;" d="M 3.009121 364.276588 L 182.77478 502.070873 " transform="matrix(0.0999565,0,0,-0.0999565,0,189.958696)"/>
<g clip-path="url(#clip15)" clip-rule="nonzero">
<path style=" stroke:none;fill-rule:nonzero;fill:rgb(72.140503%,83.599854%,92.904663%);fill-opacity:1;" d="M 123.773438 48.929688 L 160.558594 29.957031 L 99.339844 0.339844 "/>
</g>
<g clip-path="url(#clip16)" clip-rule="nonzero">
<path style="fill:none;stroke-width:6.04001;stroke-linecap:round;stroke-linejoin:round;stroke:rgb(13.729858%,12.159729%,12.548828%);stroke-opacity:1;stroke-miterlimit:10;" d="M 1238.272754 1410.903518 L 1606.284322 1600.712606 L 993.830538 1897.013307 " transform="matrix(0.0999565,0,0,-0.0999565,0,189.958696)"/>
</g>
<g clip-path="url(#clip17)" clip-rule="nonzero">
<path style=" stroke:none;fill-rule:nonzero;fill:rgb(72.140503%,83.599854%,92.904663%);fill-opacity:1;" d="M 99.339844 0.339844 L 59.484375 16.554688 L 123.773438 48.929688 "/>
</g>
<g clip-path="url(#clip18)" clip-rule="nonzero">
<path style="fill:none;stroke-width:6.04001;stroke-linecap:round;stroke-linejoin:round;stroke:rgb(13.729858%,12.159729%,12.548828%);stroke-opacity:1;stroke-miterlimit:10;" d="M 993.830538 1897.013307 L 595.10249 1734.79434 L 1238.272754 1410.903518 " transform="matrix(0.0999565,0,0,-0.0999565,0,189.958696)"/>
</g>
<g clip-path="url(#clip19)" clip-rule="nonzero">
<path style=" stroke:none;fill-rule:nonzero;fill:rgb(88.313293%,76.698303%,73.739624%);fill-opacity:1;" d="M 123.773438 48.929688 L 160.410156 102.261719 L 160.558594 29.957031 L 123.773438 48.929688 "/>
<path style="fill:none;stroke-width:6.04001;stroke-linecap:round;stroke-linejoin:round;stroke:rgb(13.729858%,12.159729%,12.548828%);stroke-opacity:1;stroke-miterlimit:10;" d="M 1238.272754 1410.903518 L 1604.799301 877.351226 L 1606.284322 1600.712606 Z M 1238.272754 1410.903518 " transform="matrix(0.0999565,0,0,-0.0999565,0,189.958696)"/>
</g>
<g clip-path="url(#clip20)" clip-rule="nonzero">
<path style=" stroke:none;fill-rule:nonzero;fill:rgb(38.366699%,11.959839%,34.065247%);fill-opacity:1;" d="M 60.546875 189.65625 L 18.269531 139.773438 L 0.300781 153.546875 L 60.546875 189.65625 "/>
<path style="fill:none;stroke-width:6.04001;stroke-linecap:round;stroke-linejoin:round;stroke:rgb(13.729858%,12.159729%,12.548828%);stroke-opacity:1;stroke-miterlimit:10;" d="M 605.732112 3.025772 L 182.77478 502.070873 L 3.009121 364.276588 Z M 605.732112 3.025772 " transform="matrix(0.0999565,0,0,-0.0999565,0,189.958696)"/>
</g>
<g clip-path="url(#clip21)" clip-rule="nonzero">
<path style=" stroke:none;fill-rule:nonzero;fill:rgb(77.841187%,59.825134%,68.016052%);fill-opacity:1;" d="M 129.226562 169.632812 L 160.410156 102.261719 L 50.265625 66.160156 "/>
</g>
<g clip-path="url(#clip22)" clip-rule="nonzero">
<path style="fill:none;stroke-width:6.04001;stroke-linecap:round;stroke-linejoin:round;stroke:rgb(13.729858%,12.159729%,12.548828%);stroke-opacity:1;stroke-miterlimit:10;" d="M 1292.827724 203.347243 L 1604.799301 877.351226 " transform="matrix(0.0999565,0,0,-0.0999565,0,189.958696)"/>
</g>
<g clip-path="url(#clip23)" clip-rule="nonzero">
<path style=" stroke:none;fill-rule:nonzero;fill:rgb(77.841187%,59.825134%,68.016052%);fill-opacity:1;" d="M 60.546875 189.65625 L 129.226562 169.632812 L 50.265625 66.160156 "/>
</g>
<g clip-path="url(#clip24)" clip-rule="nonzero">
<path style="fill:none;stroke-width:6.04001;stroke-linecap:round;stroke-linejoin:round;stroke:rgb(13.729858%,12.159729%,12.548828%);stroke-opacity:1;stroke-miterlimit:10;" d="M 605.732112 3.025772 L 1292.827724 203.347243 " transform="matrix(0.0999565,0,0,-0.0999565,0,189.958696)"/>
</g>
<g clip-path="url(#clip25)" clip-rule="nonzero">
<path style=" stroke:none;fill-rule:nonzero;fill:rgb(77.841187%,59.825134%,68.016052%);fill-opacity:1;" d="M 160.410156 102.261719 L 123.773438 48.929688 L 50.265625 66.160156 "/>
</g>
<g clip-path="url(#clip26)" clip-rule="nonzero">
<path style="fill:none;stroke-width:6.04001;stroke-linecap:round;stroke-linejoin:round;stroke:rgb(13.729858%,12.159729%,12.548828%);stroke-opacity:1;stroke-miterlimit:10;" d="M 1604.799301 877.351226 L 1238.272754 1410.903518 L 502.874891 1238.523883 " transform="matrix(0.0999565,0,0,-0.0999565,0,189.958696)"/>
</g>
<path style=" stroke:none;fill-rule:nonzero;fill:rgb(70.593262%,74.205017%,89.041138%);fill-opacity:1;" d="M 59.484375 16.554688 L 50.265625 66.160156 L 123.773438 48.929688 L 59.484375 16.554688 "/>
<path style="fill:none;stroke-width:6.04001;stroke-linecap:round;stroke-linejoin:round;stroke:rgb(13.729858%,12.159729%,12.548828%);stroke-opacity:1;stroke-miterlimit:10;" d="M 595.10249 1734.79434 L 502.874891 1238.523883 L 1238.272754 1410.903518 Z M 595.10249 1734.79434 " transform="matrix(0.0999565,0,0,-0.0999565,0,189.958696)"/>
<g clip-path="url(#clip27)" clip-rule="nonzero">
<path style=" stroke:none;fill-rule:nonzero;fill:rgb(77.841187%,59.825134%,68.016052%);fill-opacity:1;" d="M 50.265625 66.160156 L 18.269531 139.773438 L 60.546875 189.65625 "/>
</g>
<g clip-path="url(#clip28)" clip-rule="nonzero">
<path style="fill:none;stroke-width:6.04001;stroke-linecap:round;stroke-linejoin:round;stroke:rgb(13.729858%,12.159729%,12.548828%);stroke-opacity:1;stroke-miterlimit:10;" d="M 502.874891 1238.523883 L 182.77478 502.070873 L 605.732112 3.025772 " transform="matrix(0.0999565,0,0,-0.0999565,0,189.958696)"/>
</g>
</g>
</svg>
