<svg xmlns="http://www.w3.org/2000/svg" width="230pt" height="200pt" viewBox="0 0 230 200" version="1.2"><path style="stroke:none;fill-rule:nonzero;fill:#be8293;fill-opacity:1" d="m72.957 72.848 16.188-42.762 31.828 29.52"/><path style="fill:none;stroke-width:7.56;stroke-linecap:round;stroke-linejoin:round;stroke:#000;stroke-opacity:1;stroke-miterlimit:10" d="m729.57 1271.523 161.875 427.618 318.282-295.196Zm0 0" transform="matrix(.1 0 0 -.1 0 200)"/><path style="stroke:none;fill-rule:nonzero;fill:#b39fc3;fill-opacity:1" d="m120.973 59.605 44.234 22.41-8.34 90.098"/><path style="fill:none;stroke-width:7.56;stroke-linecap:round;stroke-linejoin:round;stroke:#000;stroke-opacity:1;stroke-miterlimit:10" d="m1209.727 1403.945 442.343-224.101" transform="matrix(.1 0 0 -.1 0 200)"/><path style="stroke:none;fill-rule:nonzero;fill:#b39fc3;fill-opacity:1" d="m72.957 72.848 48.016-13.243 35.894 112.508"/><path style="fill:none;stroke-width:7.56;stroke-linecap:round;stroke-linejoin:round;stroke:#000;stroke-opacity:1;stroke-miterlimit:10" d="m729.57 1271.523 480.157 132.422" transform="matrix(.1 0 0 -.1 0 200)"/><path style="stroke:none;fill-rule:nonzero;fill:#5d0035;fill-opacity:1" d="m120.973 59.605-31.828-29.52 111.261 56.06"/><path style="fill:none;stroke-width:7.56;stroke-linecap:round;stroke-linejoin:round;stroke:#000;stroke-opacity:1;stroke-miterlimit:10" d="m1209.727 1403.945-318.282 295.196" transform="matrix(.1 0 0 -.1 0 200)"/><path style="fill-rule:nonzero;fill:#5d0035;fill-opacity:1;stroke-width:7.56;stroke-linecap:round;stroke-linejoin:round;stroke:#000;stroke-opacity:1;stroke-miterlimit:10" d="m2004.063 1138.555-351.993 41.289-442.343 224.101" transform="matrix(.1 0 0 -.1 0 200)"/><path style="stroke:none;fill-rule:nonzero;fill:#b39fc3;fill-opacity:1" d="m47.906 114.809 25.051-41.961 83.91 99.265"/><path style="fill:none;stroke-width:7.56;stroke-linecap:round;stroke-linejoin:round;stroke:#000;stroke-opacity:1;stroke-miterlimit:10" d="m479.063 851.914 250.507 419.61" transform="matrix(.1 0 0 -.1 0 200)"/><path style="stroke:none;fill-rule:nonzero;fill:#cca6b2;fill-opacity:1" d="m27.219 68.738 45.738 4.11-25.05 41.96"/><path style="fill:none;stroke-width:7.56;stroke-linecap:round;stroke-linejoin:round;stroke:#000;stroke-opacity:1;stroke-miterlimit:10" d="m272.188 1312.617 457.382-41.094-250.508-419.609Zm0 0" transform="matrix(.1 0 0 -.1 0 200)"/><path style="fill-rule:nonzero;fill:#c6868f;fill-opacity:1;stroke-width:7.56;stroke-linecap:round;stroke-linejoin:round;stroke:#000;stroke-opacity:1;stroke-miterlimit:10" d="M891.445 1699.14 729.57 1271.524l-457.383 41.094" transform="matrix(.1 0 0 -.1 0 200)"/><path style="stroke:none;fill-rule:nonzero;fill:#7b62ab;fill-opacity:1" d="m180.64 128.246-15.433-46.23 35.2 4.129"/><path style="fill:none;stroke-width:7.56;stroke-linecap:round;stroke-linejoin:round;stroke:#000;stroke-opacity:1;stroke-miterlimit:10" d="m1806.406 717.54-154.336 462.304 351.993-41.29Zm0 0" transform="matrix(.1 0 0 -.1 0 200)"/><path style="fill-rule:nonzero;fill:#b39fc3;fill-opacity:1;stroke-width:7.56;stroke-linecap:round;stroke-linejoin:round;stroke:#000;stroke-opacity:1;stroke-miterlimit:10" d="m1652.07 1179.844 154.336-462.305-237.734-438.672" transform="matrix(.1 0 0 -.1 0 200)"/><path style="stroke:none;fill-rule:nonzero;fill:#e4d3c6;fill-opacity:1" d="m26.012 135.172 21.894-20.363 13.442 47.453"/><path style="fill:none;stroke-width:7.56;stroke-linecap:round;stroke-linejoin:round;stroke:#000;stroke-opacity:1;stroke-miterlimit:10" d="m260.117 648.281 218.945 203.633 134.415-474.531Zm0 0" transform="matrix(.1 0 0 -.1 0 200)"/><path style="stroke:none;fill-rule:nonzero;fill:#b39fc3;fill-opacity:1" d="m61.348 162.262-13.442-47.453 108.961 57.304"/><path style="fill:none;stroke-width:7.56;stroke-linecap:round;stroke-linejoin:round;stroke:#000;stroke-opacity:1;stroke-miterlimit:10" d="M613.477 377.383 479.063 851.914" transform="matrix(.1 0 0 -.1 0 200)"/><path style="fill-rule:nonzero;fill:#ebd0ba;fill-opacity:1;stroke-width:7.56;stroke-linecap:round;stroke-linejoin:round;stroke:#000;stroke-opacity:1;stroke-miterlimit:10" d="M479.063 851.914 260.116 648.281 38.36 1131.836" transform="matrix(.1 0 0 -.1 0 200)"/><path style="fill-rule:nonzero;fill:#ebd0ba;fill-opacity:1;stroke-width:7.56;stroke-linecap:round;stroke-linejoin:round;stroke:#000;stroke-opacity:1;stroke-miterlimit:10" d="m38.36 1131.836 233.827 180.781 206.875-460.703" transform="matrix(.1 0 0 -.1 0 200)"/><path style="fill-rule:nonzero;fill:#695aad;fill-opacity:1;stroke-width:7.56;stroke-linecap:round;stroke-linejoin:round;stroke:#000;stroke-opacity:1;stroke-miterlimit:10" d="m1806.406 717.54 197.657 421.015 251.445-312.344M2255.508 826.21l-214.336-430.858-234.766 322.187" transform="matrix(.1 0 0 -.1 0 200)"/><path style="stroke:none;fill-rule:nonzero;fill:#918fce;fill-opacity:1" d="m204.117 160.465-47.25 11.648 23.774-43.867"/><path style="fill:none;stroke-width:7.56;stroke-linecap:round;stroke-linejoin:round;stroke:#000;stroke-opacity:1;stroke-miterlimit:10" d="m2041.172 395.352-472.5-116.485 237.734 438.672Zm0 0" transform="matrix(.1 0 0 -.1 0 200)"/><path style="stroke:none;fill-rule:nonzero;fill:#5d0035;fill-opacity:1" d="M89.145 30.086 87.527 8.328l112.88 77.817"/><path style="fill:none;stroke-width:7.56;stroke-linecap:round;stroke-linejoin:round;stroke:#000;stroke-opacity:1;stroke-miterlimit:10" d="m891.445 1699.14-16.172 217.579" transform="matrix(.1 0 0 -.1 0 200)"/><path style="fill-rule:nonzero;fill:#c6868f;fill-opacity:1;stroke-width:7.56;stroke-linecap:round;stroke-linejoin:round;stroke:#000;stroke-opacity:1;stroke-miterlimit:10" d="m272.188 1312.617 153.32 442.461 465.937-55.937" transform="matrix(.1 0 0 -.1 0 200)"/><path style="stroke:none;fill-rule:nonzero;fill:#a63c3d;fill-opacity:1" d="M42.55 24.492 87.528 8.328l1.618 21.758"/><path style="fill:none;stroke-width:7.56;stroke-linecap:round;stroke-linejoin:round;stroke:#000;stroke-opacity:1;stroke-miterlimit:10" d="m425.508 1755.078 449.765 161.64 16.172-217.577Zm0 0" transform="matrix(.1 0 0 -.1 0 200)"/><path style="fill-rule:nonzero;fill:#f19648;fill-opacity:1;stroke-width:7.56;stroke-linecap:round;stroke-linejoin:round;stroke:#000;stroke-opacity:1;stroke-miterlimit:10" d="M272.188 1312.617 38.358 1131.836l154.766 462.46M193.125 1594.297l232.383 160.781-153.32-442.46" transform="matrix(.1 0 0 -.1 0 200)"/><path style="fill-rule:nonzero;fill:#b39fc3;fill-opacity:1;stroke-width:7.56;stroke-linecap:round;stroke-linejoin:round;stroke:#000;stroke-opacity:1;stroke-miterlimit:10" d="M1568.672 278.867 1068.555 134.22 613.477 377.383" transform="matrix(.1 0 0 -.1 0 200)"/><path style="stroke:none;fill-rule:nonzero;fill:#81b6f6;fill-opacity:1" d="m140.625 196.215-33.77-9.637 50.012-14.465"/><path style="fill:none;stroke-width:7.56;stroke-linecap:round;stroke-linejoin:round;stroke:#000;stroke-opacity:1;stroke-miterlimit:10" d="m1406.25 37.852-337.695 96.367 500.117 144.648Zm0 0" transform="matrix(.1 0 0 -.1 0 200)"/><path style="stroke:none;fill-rule:nonzero;fill:#260000;fill-opacity:1" d="m61.348 162.262 45.507 24.316 35.446-2.7"/><path style="fill:none;stroke-width:7.56;stroke-linecap:round;stroke-linejoin:round;stroke:#000;stroke-opacity:1;stroke-miterlimit:10" d="m613.477 377.383 455.078-243.164" transform="matrix(.1 0 0 -.1 0 200)"/><path style="stroke:none;fill-rule:nonzero;fill:#260000;fill-opacity:1" d="m26.012 135.172 35.336 27.09 80.953 21.617"/><path style="fill:none;stroke-width:7.56;stroke-linecap:round;stroke-linejoin:round;stroke:#000;stroke-opacity:1;stroke-miterlimit:10" d="m260.117 648.281 353.36-270.898" transform="matrix(.1 0 0 -.1 0 200)"/><path style="fill-rule:nonzero;fill:#63a4f4;fill-opacity:1;stroke-width:7.56;stroke-linecap:round;stroke-linejoin:round;stroke:#000;stroke-opacity:1;stroke-miterlimit:10" d="m1406.25 37.852 162.422 241.015 472.5 116.485" transform="matrix(.1 0 0 -.1 0 200)"/><path style="fill-rule:nonzero;fill:#260000;fill-opacity:1;stroke-width:7.56;stroke-linecap:round;stroke-linejoin:round;stroke:#000;stroke-opacity:1;stroke-miterlimit:10" d="m1068.555 134.219 337.695-96.367 16.758 123.359" transform="matrix(.1 0 0 -.1 0 200)"/><path style="fill-rule:nonzero;fill:#5d0035;fill-opacity:1;stroke-width:7.56;stroke-linecap:round;stroke-linejoin:round;stroke:#000;stroke-opacity:1;stroke-miterlimit:10" d="m1731.172 1656.602 326.68-330.586-53.79-187.461" transform="matrix(.1 0 0 -.1 0 200)"/><path style="stroke:none;fill-rule:nonzero;fill:#5d0035;fill-opacity:1" d="m121.863 8.91 51.254 25.43 27.29 51.805"/><path style="fill:none;stroke-width:7.56;stroke-linecap:round;stroke-linejoin:round;stroke:#000;stroke-opacity:1;stroke-miterlimit:10" d="m1218.633 1910.898 512.539-254.296" transform="matrix(.1 0 0 -.1 0 200)"/><path style="stroke:none;fill-rule:nonzero;fill:#5d0035;fill-opacity:1" d="m87.527 8.328 34.336.582 78.543 77.235"/><path style="fill:none;stroke-width:7.56;stroke-linecap:round;stroke-linejoin:round;stroke:#000;stroke-opacity:1;stroke-miterlimit:10" d="m875.273 1916.719 343.36-5.82" transform="matrix(.1 0 0 -.1 0 200)"/><path style="stroke:none;fill-rule:nonzero;fill:#030043;fill-opacity:1" d="m225.55 117.379-25.144-31.234 5.38-18.747"/><path style="fill:none;stroke-width:7.56;stroke-linecap:round;stroke-linejoin:round;stroke:#000;stroke-opacity:1;stroke-miterlimit:10" d="m2255.508 826.21-251.445 312.345 53.789 187.46Zm0 0" transform="matrix(.1 0 0 -.1 0 200)"/><path style="fill-rule:nonzero;fill:#0882e1;fill-opacity:1;stroke-width:7.56;stroke-linecap:round;stroke-linejoin:round;stroke:#000;stroke-opacity:1;stroke-miterlimit:10" d="m662.695 1760.625 212.578 156.094-449.765-161.64" transform="matrix(.1 0 0 -.1 0 200)"/><path style="fill-rule:nonzero;fill:#0882e1;fill-opacity:1;stroke-width:7.56;stroke-linecap:round;stroke-linejoin:round;stroke:#000;stroke-opacity:1;stroke-miterlimit:10" d="m425.508 1755.078-232.383-160.781 469.57 166.328" transform="matrix(.1 0 0 -.1 0 200)"/><path style="fill-rule:nonzero;fill:#63a4f4;fill-opacity:1;stroke-width:7.56;stroke-linecap:round;stroke-linejoin:round;stroke:#000;stroke-opacity:1;stroke-miterlimit:10" d="m2041.172 395.352-139.649-241.446L1406.25 37.852" transform="matrix(.1 0 0 -.1 0 200)"/><path style="fill-rule:nonzero;fill:#b24e00;fill-opacity:1;stroke-width:7.56;stroke-linecap:round;stroke-linejoin:round;stroke:#000;stroke-opacity:1;stroke-miterlimit:10" d="m2041.172 395.352 214.336 430.859-131.367-223.399M2124.14 602.813l-222.617-448.907 139.649 241.446" transform="matrix(.1 0 0 -.1 0 200)"/><path style="stroke:none;fill-rule:nonzero;fill:#260000;fill-opacity:1" d="m20.25 119.207 5.762 15.965L142.3 183.879"/><path style="fill:none;stroke-width:7.56;stroke-linecap:round;stroke-linejoin:round;stroke:#000;stroke-opacity:1;stroke-miterlimit:10" d="m202.5 807.93 57.617-159.649" transform="matrix(.1 0 0 -.1 0 200)"/><path style="stroke:none;fill-rule:nonzero;fill:#000;fill-opacity:1" d="m3.836 86.816 22.176 48.356-5.762-15.965"/><path style="fill:none;stroke-width:7.56;stroke-linecap:round;stroke-linejoin:round;stroke:#000;stroke-opacity:1;stroke-miterlimit:10" d="M38.36 1131.836 260.116 648.28 202.5 807.93Zm0 0" transform="matrix(.1 0 0 -.1 0 200)"/><path style="fill-rule:nonzero;fill:#3f39a2;fill-opacity:1;stroke-width:7.56;stroke-linecap:round;stroke-linejoin:round;stroke:#000;stroke-opacity:1;stroke-miterlimit:10" d="M193.125 1594.297 38.359 1131.836 202.5 807.93" transform="matrix(.1 0 0 -.1 0 200)"/><path style="stroke:none;fill-rule:nonzero;fill:#47adf8;fill-opacity:1" d="M87.527 8.328 66.27 23.938 121.863 8.91"/><path style="fill:none;stroke-width:7.56;stroke-linecap:round;stroke-linejoin:round;stroke:#000;stroke-opacity:1;stroke-miterlimit:10" d="m875.273 1916.719-212.578-156.094 555.938 150.273Zm0 0" transform="matrix(.1 0 0 -.1 0 200)"/><path style="stroke:none;fill-rule:nonzero;fill:#810000;fill-opacity:1" d="m190.152 184.61-47.851-.731-1.676 12.336"/><path style="fill:none;stroke-width:7.56;stroke-linecap:round;stroke-linejoin:round;stroke:#000;stroke-opacity:1;stroke-miterlimit:10" d="m1901.523 153.906-478.515 7.305-16.758-123.36Zm0 0" transform="matrix(.1 0 0 -.1 0 200)"/><path style="fill-rule:nonzero;fill:#f8e3b0;fill-opacity:1;stroke-width:7.56;stroke-linecap:round;stroke-linejoin:round;stroke:#000;stroke-opacity:1;stroke-miterlimit:10" d="m2124.14 602.813 131.368 223.398-197.656 499.805" transform="matrix(.1 0 0 -.1 0 200)"/><path style="stroke:none;fill-rule:nonzero;fill:#efe8c4;fill-opacity:1" d="M205.785 67.398 173.117 34.34l18.11 52.691"/><path style="fill:none;stroke-width:7.56;stroke-linecap:round;stroke-linejoin:round;stroke:#000;stroke-opacity:1;stroke-miterlimit:10" d="m2057.852 1326.016-326.68 330.586 181.094-526.915Zm0 0" transform="matrix(.1 0 0 -.1 0 200)"/><path style="fill-rule:nonzero;fill:#f8e3b0;fill-opacity:1;stroke-width:7.56;stroke-linecap:round;stroke-linejoin:round;stroke:#000;stroke-opacity:1;stroke-miterlimit:10" d="m2057.852 1326.016-145.586-196.329 211.875-526.874" transform="matrix(.1 0 0 -.1 0 200)"/><path style="stroke:none;fill-rule:nonzero;fill:#828cd4;fill-opacity:1" d="M19.313 40.57 37.058 71.7l29.21-47.763"/><path style="fill:none;stroke-width:7.56;stroke-linecap:round;stroke-linejoin:round;stroke:#000;stroke-opacity:1;stroke-miterlimit:10" d="m193.125 1594.297 177.46-311.29 292.11 477.618Zm0 0" transform="matrix(.1 0 0 -.1 0 200)"/><path style="fill-rule:nonzero;fill:#3f39a2;fill-opacity:1;stroke-width:7.56;stroke-linecap:round;stroke-linejoin:round;stroke:#000;stroke-opacity:1;stroke-miterlimit:10" d="m202.5 807.93 168.086 475.078-177.461 311.289" transform="matrix(.1 0 0 -.1 0 200)"/><path style="fill-rule:nonzero;fill:#c98080;fill-opacity:1;stroke-width:7.56;stroke-linecap:round;stroke-linejoin:round;stroke:#000;stroke-opacity:1;stroke-miterlimit:10" d="M1637.383 626.719 1423.008 161.21l478.515-7.305M1901.523 153.906l222.618 448.906-486.758 23.907" transform="matrix(.1 0 0 -.1 0 200)"/><path style="stroke:none;fill-rule:nonzero;fill:#614da3;fill-opacity:1" d="M37.059 71.7 20.25 119.206l32.219 6.809"/><path style="fill:none;stroke-width:7.56;stroke-linecap:round;stroke-linejoin:round;stroke:#000;stroke-opacity:1;stroke-miterlimit:10" d="M370.586 1283.008 202.5 807.93l322.188-68.086Zm0 0" transform="matrix(.1 0 0 -.1 0 200)"/><path style="stroke:none;fill-rule:nonzero;fill:#260000;fill-opacity:1" d="m52.469 126.016-32.219-6.809 122.05 64.672"/><path style="fill:none;stroke-width:7.56;stroke-linecap:round;stroke-linejoin:round;stroke:#000;stroke-opacity:1;stroke-miterlimit:10" d="M524.688 739.844 202.5 807.93" transform="matrix(.1 0 0 -.1 0 200)"/><path style="stroke:none;fill-rule:nonzero;fill:#b3a1c5;fill-opacity:1" d="M121.863 8.91 66.27 23.937l124.957 63.094"/><path style="fill:none;stroke-width:7.56;stroke-linecap:round;stroke-linejoin:round;stroke:#000;stroke-opacity:1;stroke-miterlimit:10" d="m1218.633 1910.898-555.938-150.273" transform="matrix(.1 0 0 -.1 0 200)"/><path style="fill-rule:nonzero;fill:#b3a1c5;fill-opacity:1;stroke-width:7.56;stroke-linecap:round;stroke-linejoin:round;stroke:#000;stroke-opacity:1;stroke-miterlimit:10" d="m1912.266 1129.688-181.094 526.914-512.54 254.296" transform="matrix(.1 0 0 -.1 0 200)"/><path style="stroke:none;fill-rule:nonzero;fill:#b3a1c5;fill-opacity:1" d="M66.27 23.938 37.059 71.698l154.168 15.332"/><path style="fill:none;stroke-width:7.56;stroke-linecap:round;stroke-linejoin:round;stroke:#000;stroke-opacity:1;stroke-miterlimit:10" d="m662.695 1760.625-292.11-477.617" transform="matrix(.1 0 0 -.1 0 200)"/><path style="stroke:none;fill-rule:nonzero;fill:#d2abb1;fill-opacity:1" d="M212.414 139.719 191.227 87.03l-27.489 50.297"/><path style="fill:none;stroke-width:7.56;stroke-linecap:round;stroke-linejoin:round;stroke:#000;stroke-opacity:1;stroke-miterlimit:10" d="m2124.14 602.813-211.874 526.875-274.883-502.97Zm0 0" transform="matrix(.1 0 0 -.1 0 200)"/><path style="stroke:none;fill-rule:nonzero;fill:#bf7c88;fill-opacity:1" d="m163.738 137.328-58.289 16.649 36.852 29.902"/><path style="fill:none;stroke-width:7.56;stroke-linecap:round;stroke-linejoin:round;stroke:#000;stroke-opacity:1;stroke-miterlimit:10" d="m1637.383 626.719-582.89-166.485 368.515-299.023Zm0 0" transform="matrix(.1 0 0 -.1 0 200)"/><path style="fill-rule:nonzero;fill:#260000;fill-opacity:1;stroke-width:7.56;stroke-linecap:round;stroke-linejoin:round;stroke:#000;stroke-opacity:1;stroke-miterlimit:10" d="m1423.008 161.21-368.516 299.024-529.804 279.61" transform="matrix(.1 0 0 -.1 0 200)"/><path style="stroke:none;fill-rule:nonzero;fill:#b3a1c5;fill-opacity:1" d="m37.059 71.7 15.41 54.316L191.227 87.03"/><path style="fill:none;stroke-width:7.56;stroke-linecap:round;stroke-linejoin:round;stroke:#000;stroke-opacity:1;stroke-miterlimit:10" d="m370.586 1283.008 154.101-543.164" transform="matrix(.1 0 0 -.1 0 200)"/><path style="fill-rule:nonzero;fill:#b3a1c5;fill-opacity:1;stroke-width:7.56;stroke-linecap:round;stroke-linejoin:round;stroke:#000;stroke-opacity:1;stroke-miterlimit:10" d="m1054.492 460.234 582.89 166.485 274.884 502.968" transform="matrix(.1 0 0 -.1 0 200)"/><path style="stroke:none;fill-rule:nonzero;fill:#b3a1c5;fill-opacity:1" d="m52.469 126.016 52.98 27.96 85.778-66.945"/><path style="fill:none;stroke-width:7.56;stroke-linecap:round;stroke-linejoin:round;stroke:#000;stroke-opacity:1;stroke-miterlimit:10" d="m524.688 739.844 529.804-279.61" transform="matrix(.1 0 0 -.1 0 200)"/></svg>