<svg xmlns="http://www.w3.org/2000/svg" width="231.933" height="244.08" viewBox="0 0 173.95 183.06" version="1.2"><defs><clipPath id="a"><path d="M.418 75H82v107H.418Zm0 0"/></clipPath><clipPath id="b"><path d="M.418 75H83v107.125H.418Zm0 0"/></clipPath><clipPath id="c"><path d="M81 55h92.48v119H81Zm0 0"/></clipPath><clipPath id="d"><path d="M81 54h92.48v121H81Zm0 0"/></clipPath><clipPath id="e"><path d="M63 119h110.48v63H63Zm0 0"/></clipPath><clipPath id="f"><path d="M62 118h111.48v64.125H62Zm0 0"/></clipPath><clipPath id="g"><path d="M.418 0H91v120H.418Zm0 0"/></clipPath><clipPath id="h"><path d="M.418 0H92v120H.418Zm0 0"/></clipPath><clipPath id="i"><path d="M162 55h11.48v119H162Zm0 0"/></clipPath><clipPath id="j"><path d="M162 54h11.48v121H162Zm0 0"/></clipPath><clipPath id="k"><path d="M63 111h110.48v71H63Zm0 0"/></clipPath><clipPath id="l"><path d="M62 111h111.48v71.125H62Zm0 0"/></clipPath><clipPath id="m"><path d="M.418 0H91v98H.418Zm0 0"/></clipPath><clipPath id="n"><path d="M.418 0H92v98H.418Zm0 0"/></clipPath><clipPath id="o"><path d="M.418 75H64v107H.418Zm0 0"/></clipPath><clipPath id="p"><path d="M.418 75H64v107.125H.418Zm0 0"/></clipPath><clipPath id="q"><path d="M27 97h136v85.125H27Zm0 0"/></clipPath></defs><g clip-path="url(#a)"><path style="stroke:none;fill-rule:nonzero;fill:#e2e5d7;fill-opacity:1" d="m.77 75.93 80.921 43.152-18.402 62.695L.77 75.93"/></g><g clip-path="url(#b)"><path style="fill:none;stroke-width:7.00001;stroke-linecap:round;stroke-linejoin:round;stroke:#231f20;stroke-opacity:1;stroke-miterlimit:10" d="m3.519 1067.404 813.374-433.74L631.924 3.493Zm0 0" transform="matrix(.09949 0 0 -.09949 .42 182.125)"/></g><g clip-path="url(#c)"><path style="stroke:none;fill-rule:nonzero;fill:#9986bf;fill-opacity:1" d="M173.129 173.684 81.69 119.082l85.614-63.922 5.824 118.524"/></g><g clip-path="url(#d)"><path style="fill:none;stroke-width:7.00001;stroke-linecap:round;stroke-linejoin:round;stroke:#231f20;stroke-opacity:1;stroke-miterlimit:10" d="m1735.963 84.846-919.07 548.819 860.529 642.501Zm0 0" transform="matrix(.09949 0 0 -.09949 .42 182.125)"/></g><g clip-path="url(#e)"><path style="stroke:none;fill-rule:nonzero;fill:#b5d4ee;fill-opacity:1" d="m63.29 181.777 18.401-62.695 91.438 54.602-109.84 8.093"/></g><g clip-path="url(#f)"><path style="fill:none;stroke-width:7.00001;stroke-linecap:round;stroke-linejoin:round;stroke:#231f20;stroke-opacity:1;stroke-miterlimit:10" d="m631.924 3.492 184.969 630.173 919.07-548.82Zm0 0" transform="matrix(.09949 0 0 -.09949 .42 182.125)"/></g><path style="fill-rule:nonzero;fill:#bd7381;fill-opacity:1;stroke-width:7.00001;stroke-linecap:round;stroke-linejoin:round;stroke:#231f20;stroke-opacity:1;stroke-miterlimit:10" d="m909.75 1827.106 767.672-550.94-860.53-642.501" transform="matrix(.09949 0 0 -.09949 .42 182.125)"/><g clip-path="url(#g)"><path style="stroke:none;fill-rule:nonzero;fill:#bd7381;fill-opacity:1" d="M81.691 119.082.77 75.93 90.93.348"/></g><g clip-path="url(#h)"><path style="fill:none;stroke-width:7.00001;stroke-linecap:round;stroke-linejoin:round;stroke:#231f20;stroke-opacity:1;stroke-miterlimit:10" d="M816.893 633.665 3.519 1067.405l906.23 759.7" transform="matrix(.09949 0 0 -.09949 .42 182.125)"/></g><path style="stroke:none;fill-rule:nonzero;fill:#e4f0d1;fill-opacity:1" d="M167.305 55.16 90.93.348l71.64 111.379 4.735-56.567"/><path style="fill:none;stroke-width:7.00001;stroke-linecap:round;stroke-linejoin:round;stroke:#231f20;stroke-opacity:1;stroke-miterlimit:10" d="m1677.422 1276.166-767.672 550.94 720.085-1119.509Zm0 0" transform="matrix(.09949 0 0 -.09949 .42 182.125)"/><g clip-path="url(#i)"><path style="stroke:none;fill-rule:nonzero;fill:#d5b939;fill-opacity:1" d="M173.129 173.684 167.305 55.16l-4.735 56.567 10.559 61.957"/></g><g clip-path="url(#j)"><path style="fill:none;stroke-width:7.00001;stroke-linecap:round;stroke-linejoin:round;stroke:#231f20;stroke-opacity:1;stroke-miterlimit:10" d="m1735.963 84.846-58.541 1191.32-47.587-568.569Zm0 0" transform="matrix(.09949 0 0 -.09949 .42 182.125)"/></g><g clip-path="url(#k)"><path style="stroke:none;fill-rule:nonzero;fill:#bc6361;fill-opacity:1" d="m173.129 173.684-10.559-61.957-99.28 70.05 109.839-8.093"/></g><g clip-path="url(#l)"><path style="fill:none;stroke-width:7.00001;stroke-linecap:round;stroke-linejoin:round;stroke:#231f20;stroke-opacity:1;stroke-miterlimit:10" d="m1735.963 84.846-106.128 622.751L631.925 3.492Zm0 0" transform="matrix(.09949 0 0 -.09949 .42 182.125)"/></g><g clip-path="url(#m)"><path style="stroke:none;fill-rule:nonzero;fill:#2072c2;fill-opacity:1" d="m.77 75.93 26.96 21.668L90.93.348.77 75.93"/></g><g clip-path="url(#n)"><path style="fill:none;stroke-width:7.00001;stroke-linecap:round;stroke-linejoin:round;stroke:#231f20;stroke-opacity:1;stroke-miterlimit:10" d="m3.519 1067.404 270.994-217.792 635.237 977.494Zm0 0" transform="matrix(.09949 0 0 -.09949 .42 182.125)"/></g><g clip-path="url(#o)"><path style="stroke:none;fill-rule:nonzero;fill:#231f20;fill-opacity:1" d="m.77 75.93 62.52 105.847-35.56-84.18L.77 75.93"/></g><g clip-path="url(#p)"><path style="fill:none;stroke-width:7.00001;stroke-linecap:round;stroke-linejoin:round;stroke:#231f20;stroke-opacity:1;stroke-miterlimit:10" d="M3.519 1067.404 631.924 3.492l-357.411 846.12Zm0 0" transform="matrix(.09949 0 0 -.09949 .42 182.125)"/></g><path style="stroke:none;fill-rule:nonzero;fill:#b86b7b;fill-opacity:1" d="m27.73 97.598 35.56 84.18 99.28-70.051-134.84-14.13"/><g clip-path="url(#q)"><path style="fill:none;stroke-width:7.00001;stroke-linecap:round;stroke-linejoin:round;stroke:#231f20;stroke-opacity:1;stroke-miterlimit:10" d="M274.513 849.612 631.924 3.492l997.91 704.105Zm0 0" transform="matrix(.09949 0 0 -.09949 .42 182.125)"/></g><path style="stroke:none;fill-rule:nonzero;fill:#c8bfd5;fill-opacity:1" d="m90.93.348-63.2 97.25 134.84 14.129L90.93.347"/><path style="fill:none;stroke-width:7.00001;stroke-linecap:round;stroke-linejoin:round;stroke:#231f20;stroke-opacity:1;stroke-miterlimit:10" d="M909.75 1827.106 274.513 849.612l1355.322-142.015Zm0 0" transform="matrix(.09949 0 0 -.09949 .42 182.125)"/></svg>