<svg xmlns="http://www.w3.org/2000/svg" width="260pt" height="200pt" viewBox="0 0 260 200" version="1.2"><path style="stroke:none;fill-rule:nonzero;fill:#c7a2b3;fill-opacity:1" d="m89.43 151.984-82.938 17.11L37.41 80.219"/><path style="fill:none;stroke-width:7.7;stroke-linecap:round;stroke-linejoin:round;stroke:#000;stroke-opacity:1;stroke-miterlimit:10" d="M894.297 480.156 64.922 309.062l309.18 888.75Zm0 0" transform="matrix(.1 0 0 -.1 0 200)"/><path style="stroke:none;fill-rule:nonzero;fill:#a9c4ed;fill-opacity:1" d="M88.68 192.426 6.492 169.094l82.938-17.11"/><path style="fill:none;stroke-width:7.7;stroke-linecap:round;stroke-linejoin:round;stroke:#000;stroke-opacity:1;stroke-miterlimit:10" d="M886.797 75.742 64.922 309.062l829.375 171.094Zm0 0" transform="matrix(.1 0 0 -.1 0 200)"/><path style="fill-rule:nonzero;fill:#90b0ec;fill-opacity:1;stroke-width:7.7;stroke-linecap:round;stroke-linejoin:round;stroke:#000;stroke-opacity:1;stroke-miterlimit:10" d="m894.297 480.156 891.797 224.063 55.703-390.899M1841.797 313.32l-955-237.578 7.5 404.414" transform="matrix(.1 0 0 -.1 0 200)"/><path style="fill-rule:nonzero;fill:#b488a6;fill-opacity:1;stroke-width:7.7;stroke-linecap:round;stroke-linejoin:round;stroke:#000;stroke-opacity:1;stroke-miterlimit:10" d="M1786.094 704.219 894.297 480.156l-520.195 717.657" transform="matrix(.1 0 0 -.1 0 200)"/><path style="stroke:none;fill-rule:nonzero;fill:#9a74a6;fill-opacity:1" d="m185.184 42.313 67.722 64.812-74.297 22.453"/><path style="fill:none;stroke-width:7.7;stroke-linecap:round;stroke-linejoin:round;stroke:#000;stroke-opacity:1;stroke-miterlimit:10" d="m1851.836 1576.875 677.226-648.125-742.968-224.531Zm0 0" transform="matrix(.1 0 0 -.1 0 200)"/><path style="stroke:none;fill-rule:nonzero;fill:#7595e4;fill-opacity:1" d="m184.18 168.668-5.57-39.09 74.296-22.453"/><path style="fill:none;stroke-width:7.7;stroke-linecap:round;stroke-linejoin:round;stroke:#000;stroke-opacity:1;stroke-miterlimit:10" d="m1841.797 313.32-55.703 390.899 742.968 224.531Zm0 0" transform="matrix(.1 0 0 -.1 0 200)"/><path style="fill-rule:nonzero;fill:#b488a6;fill-opacity:1;stroke-width:7.7;stroke-linecap:round;stroke-linejoin:round;stroke:#000;stroke-opacity:1;stroke-miterlimit:10" d="m961.875 1898.125 889.96-321.25-65.741-872.656" transform="matrix(.1 0 0 -.1 0 200)"/><path style="stroke:none;fill-rule:nonzero;fill:#b488a6;fill-opacity:1" d="m37.41 80.219 58.778-70.031 82.421 119.39"/><path style="fill:none;stroke-width:7.7;stroke-linecap:round;stroke-linejoin:round;stroke:#000;stroke-opacity:1;stroke-miterlimit:10" d="m374.102 1197.813 587.773 700.312" transform="matrix(.1 0 0 -.1 0 200)"/><path style="stroke:none;fill-rule:nonzero;fill:#000082;fill-opacity:1" d="M32.875 116.496 37.41 80.22 6.492 169.094"/><path style="fill:none;stroke-width:7.7;stroke-linecap:round;stroke-linejoin:round;stroke:#000;stroke-opacity:1;stroke-miterlimit:10" d="m328.75 835.04 45.352 362.773-309.18-888.75Zm0 0" transform="matrix(.1 0 0 -.1 0 200)"/><path style="fill-rule:nonzero;fill:#1953cc;fill-opacity:1;stroke-width:7.7;stroke-linecap:round;stroke-linejoin:round;stroke:#000;stroke-opacity:1;stroke-miterlimit:10" d="m961.875 1898.125-587.773-700.313L328.75 835.04" transform="matrix(.1 0 0 -.1 0 200)"/><path style="stroke:none;fill-rule:nonzero;fill:#d5f7e3;fill-opacity:1" d="m191.395 76.184 61.511 30.941-67.722-64.813"/><path style="fill:none;stroke-width:7.7;stroke-linecap:round;stroke-linejoin:round;stroke:#000;stroke-opacity:1;stroke-miterlimit:10" d="m1913.945 1238.164 615.118-309.414-677.227 648.125Zm0 0" transform="matrix(.1 0 0 -.1 0 200)"/><path style="fill-rule:nonzero;fill:#bde4f2;fill-opacity:1;stroke-width:7.7;stroke-linecap:round;stroke-linejoin:round;stroke:#000;stroke-opacity:1;stroke-miterlimit:10" d="m1851.836 1576.875-889.961 321.25-2.89-319.063" transform="matrix(.1 0 0 -.1 0 200)"/><path style="fill-rule:nonzero;fill:#bde4f2;fill-opacity:1;stroke-width:7.7;stroke-linecap:round;stroke-linejoin:round;stroke:#000;stroke-opacity:1;stroke-miterlimit:10" d="m958.984 1579.063 954.961-340.899-62.11 338.711" transform="matrix(.1 0 0 -.1 0 200)"/><path style="stroke:none;fill-rule:nonzero;fill:#925a8a;fill-opacity:1" d="M32.875 116.496 6.492 169.094l82.188 23.332"/><path style="fill:none;stroke-width:7.7;stroke-linecap:round;stroke-linejoin:round;stroke:#000;stroke-opacity:1;stroke-miterlimit:10" d="M328.75 835.04 64.922 309.062l821.875-233.32Zm0 0" transform="matrix(.1 0 0 -.1 0 200)"/><path style="fill-rule:nonzero;fill:#1953cc;fill-opacity:1;stroke-width:7.7;stroke-linecap:round;stroke-linejoin:round;stroke:#000;stroke-opacity:1;stroke-miterlimit:10" d="m328.75 835.04 630.234 744.023 2.891 319.062" transform="matrix(.1 0 0 -.1 0 200)"/><path style="stroke:none;fill-rule:nonzero;fill:#d09b9f;fill-opacity:1" d="m184.18 168.668 68.726-61.543-61.511-30.941"/><path style="fill:none;stroke-width:7.7;stroke-linecap:round;stroke-linejoin:round;stroke:#000;stroke-opacity:1;stroke-miterlimit:10" d="m1841.797 313.32 687.265 615.43-615.117 309.414Zm0 0" transform="matrix(.1 0 0 -.1 0 200)"/><path style="fill-rule:nonzero;fill:#b487a4;fill-opacity:1;stroke-width:7.7;stroke-linecap:round;stroke-linejoin:round;stroke:#000;stroke-opacity:1;stroke-miterlimit:10" d="m886.797 75.742 955 237.578 72.148 924.844" transform="matrix(.1 0 0 -.1 0 200)"/><path style="stroke:none;fill-rule:nonzero;fill:#b487a4;fill-opacity:1" d="m32.875 116.496 55.805 75.93L191.395 76.184"/><path style="fill:none;stroke-width:7.7;stroke-linecap:round;stroke-linejoin:round;stroke:#000;stroke-opacity:1;stroke-miterlimit:10" d="M328.75 835.04 886.797 75.741" transform="matrix(.1 0 0 -.1 0 200)"/><path style="fill-rule:nonzero;fill:#b487a4;fill-opacity:1;stroke-width:7.7;stroke-linecap:round;stroke-linejoin:round;stroke:#000;stroke-opacity:1;stroke-miterlimit:10" d="m1913.945 1238.164-954.96 340.899L328.75 835.038" transform="matrix(.1 0 0 -.1 0 200)"/></svg>