<svg xmlns="http://www.w3.org/2000/svg" width="256" height="200pt" viewBox="0 0 192 200" version="1.2"><path style="fill-rule:nonzero;fill:#c08d9f;fill-opacity:1;stroke-width:7.56;stroke-linecap:round;stroke-linejoin:round;stroke:#000;stroke-opacity:1;stroke-miterlimit:10" d="M1019.219 1454.844 927.5 1103.125l-371.64-65.234" transform="matrix(.1 0 0 -.1 0 200)"/><path style="fill-rule:nonzero;fill:#bd9eb9;fill-opacity:1;stroke-width:7.56;stroke-linecap:round;stroke-linejoin:round;stroke:#000;stroke-opacity:1;stroke-miterlimit:10" d="m927.5 1103.125 73.32-374.61-372.187-69.062" transform="matrix(.1 0 0 -.1 0 200)"/><path style="fill-rule:nonzero;fill:#bd9eb9;fill-opacity:1;stroke-width:7.56;stroke-linecap:round;stroke-linejoin:round;stroke:#000;stroke-opacity:1;stroke-miterlimit:10" d="m628.633 659.453-72.774 378.438 371.641 65.234" transform="matrix(.1 0 0 -.1 0 200)"/><path style="fill-rule:nonzero;fill:#a87fa6;fill-opacity:1;stroke-width:7.56;stroke-linecap:round;stroke-linejoin:round;stroke:#000;stroke-opacity:1;stroke-miterlimit:10" d="M1286.445 982.969 927.5 1103.125l91.719 351.719" transform="matrix(.1 0 0 -.1 0 200)"/><path style="stroke:none;fill-rule:nonzero;fill:#ae8fb6;fill-opacity:1" d="m100.082 127.148-7.332-37.46 35.895 12.015"/><path style="fill:none;stroke-width:7.56;stroke-linecap:round;stroke-linejoin:round;stroke:#000;stroke-opacity:1;stroke-miterlimit:10" d="m1000.82 728.516-73.32 374.609 358.945-120.156Zm0 0" transform="matrix(.1 0 0 -.1 0 200)"/><path style="fill-rule:nonzero;fill:#b5add1;fill-opacity:1;stroke-width:7.56;stroke-linecap:round;stroke-linejoin:round;stroke:#000;stroke-opacity:1;stroke-miterlimit:10" d="m1000.82 728.516 215.313-271.953-243.985-249.727" transform="matrix(.1 0 0 -.1 0 200)"/><path style="stroke:none;fill-rule:nonzero;fill:#b5add1;fill-opacity:1" d="m62.863 134.055 37.219-6.907-2.867 52.168"/><path style="fill:none;stroke-width:7.56;stroke-linecap:round;stroke-linejoin:round;stroke:#000;stroke-opacity:1;stroke-miterlimit:10" d="m628.633 659.453 372.187 69.063" transform="matrix(.1 0 0 -.1 0 200)"/><path style="fill-rule:nonzero;fill:#a18fc1;fill-opacity:1;stroke-width:7.56;stroke-linecap:round;stroke-linejoin:round;stroke:#000;stroke-opacity:1;stroke-miterlimit:10" d="M1216.133 456.563 1000.82 728.515l285.625 254.453" transform="matrix(.1 0 0 -.1 0 200)"/><path style="fill-rule:nonzero;fill:#876bab;fill-opacity:1;stroke-width:7.56;stroke-linecap:round;stroke-linejoin:round;stroke:#000;stroke-opacity:1;stroke-miterlimit:10" d="m1508.516 715.39-222.07 267.579 97.929 352.265" transform="matrix(.1 0 0 -.1 0 200)"/><path style="fill-rule:nonzero;fill:#a87fa6;fill-opacity:1;stroke-width:7.56;stroke-linecap:round;stroke-linejoin:round;stroke:#000;stroke-opacity:1;stroke-miterlimit:10" d="m1019.219 1454.844 365.156-119.61-97.93-352.265" transform="matrix(.1 0 0 -.1 0 200)"/><path style="fill-rule:nonzero;fill:#a18fc1;fill-opacity:1;stroke-width:7.56;stroke-linecap:round;stroke-linejoin:round;stroke:#000;stroke-opacity:1;stroke-miterlimit:10" d="m1286.445 982.969 222.07-267.578-292.382-258.828" transform="matrix(.1 0 0 -.1 0 200)"/><path style="stroke:none;fill-rule:nonzero;fill:#c08d9f;fill-opacity:1" d="m69.773 38.367 32.149 16.149L55.586 96.21"/><path style="fill:none;stroke-width:7.56;stroke-linecap:round;stroke-linejoin:round;stroke:#000;stroke-opacity:1;stroke-miterlimit:10" d="m697.734 1616.328 321.485-161.484" transform="matrix(.1 0 0 -.1 0 200)"/><path style="fill-rule:nonzero;fill:#c08d9f;fill-opacity:1;stroke-width:7.56;stroke-linecap:round;stroke-linejoin:round;stroke:#000;stroke-opacity:1;stroke-miterlimit:10" d="m555.86 1037.89-149.532 314.57 291.406 263.868" transform="matrix(.1 0 0 -.1 0 200)"/><path style="fill-rule:nonzero;fill:#d7aaa9;fill-opacity:1;stroke-width:7.56;stroke-linecap:round;stroke-linejoin:round;stroke:#000;stroke-opacity:1;stroke-miterlimit:10" d="m406.328 1352.46 149.531-314.57-255.43-232.773" transform="matrix(.1 0 0 -.1 0 200)"/><path style="stroke:none;fill-rule:nonzero;fill:#ccadba;fill-opacity:1" d="m62.863 134.055-32.82-14.567 25.543-23.277"/><path style="fill:none;stroke-width:7.56;stroke-linecap:round;stroke-linejoin:round;stroke:#000;stroke-opacity:1;stroke-miterlimit:10" d="M628.633 659.453 300.43 805.117l255.43 232.774Zm0 0" transform="matrix(.1 0 0 -.1 0 200)"/><path style="fill-rule:nonzero;fill:#d1c1cb;fill-opacity:1;stroke-width:7.56;stroke-linecap:round;stroke-linejoin:round;stroke:#000;stroke-opacity:1;stroke-miterlimit:10" d="m300.43 805.117 328.203-145.664-27.774-321.992" transform="matrix(.1 0 0 -.1 0 200)"/><path style="fill-rule:nonzero;fill:#b5add1;fill-opacity:1;stroke-width:7.56;stroke-linecap:round;stroke-linejoin:round;stroke:#000;stroke-opacity:1;stroke-miterlimit:10" d="M972.148 206.836 600.86 337.46l27.774 321.992" transform="matrix(.1 0 0 -.1 0 200)"/><path style="fill-rule:nonzero;fill:#ab647d;fill-opacity:1;stroke-width:7.56;stroke-linecap:round;stroke-linejoin:round;stroke:#000;stroke-opacity:1;stroke-miterlimit:10" d="m924.688 1830.82 326.367-170.351-231.836-205.625M1019.219 1454.844l-321.485 161.484 226.953 214.492" transform="matrix(.1 0 0 -.1 0 200)"/><path style="stroke:none;fill-rule:nonzero;fill:#9f6890;fill-opacity:1" d="m138.438 66.477-36.516-11.961 23.183-20.563"/><path style="fill:none;stroke-width:7.56;stroke-linecap:round;stroke-linejoin:round;stroke:#000;stroke-opacity:1;stroke-miterlimit:10" d="m1384.375 1335.234-365.156 119.61 231.836 205.625Zm0 0" transform="matrix(.1 0 0 -.1 0 200)"/><path style="fill-rule:nonzero;fill:#7e4580;fill-opacity:1;stroke-width:7.56;stroke-linecap:round;stroke-linejoin:round;stroke:#000;stroke-opacity:1;stroke-miterlimit:10" d="m1546.758 1631.25 130.976-334.844-293.359 38.828" transform="matrix(.1 0 0 -.1 0 200)"/><path style="fill-rule:nonzero;fill:#7e4580;fill-opacity:1;stroke-width:7.56;stroke-linecap:round;stroke-linejoin:round;stroke:#000;stroke-opacity:1;stroke-miterlimit:10" d="m1384.375 1335.234-133.32 325.235 295.703-29.219" transform="matrix(.1 0 0 -.1 0 200)"/><path style="stroke:none;fill-rule:nonzero;fill:#876bab;fill-opacity:1" d="m138.438 66.477 29.335 3.882-16.921 58.102"/><path style="fill:none;stroke-width:7.56;stroke-linecap:round;stroke-linejoin:round;stroke:#000;stroke-opacity:1;stroke-miterlimit:10" d="m1384.375 1335.234 293.36-38.828" transform="matrix(.1 0 0 -.1 0 200)"/><path style="stroke:none;fill-rule:nonzero;fill:#8e8ece;fill-opacity:1" d="m150.477 161.008-28.864-6.664 29.239-25.883"/><path style="fill:none;stroke-width:7.56;stroke-linecap:round;stroke-linejoin:round;stroke:#000;stroke-opacity:1;stroke-miterlimit:10" d="m1504.766 389.922-288.633 66.64 292.383 258.829Zm0 0" transform="matrix(.1 0 0 -.1 0 200)"/><path style="fill-rule:nonzero;fill:#8fa4e3;fill-opacity:1;stroke-width:7.56;stroke-linecap:round;stroke-linejoin:round;stroke:#000;stroke-opacity:1;stroke-miterlimit:10" d="m1216.133 456.563 288.633-66.641-244.961-259.375" transform="matrix(.1 0 0 -.1 0 200)"/><path style="fill-rule:nonzero;fill:#8fa4e3;fill-opacity:1;stroke-width:7.56;stroke-linecap:round;stroke-linejoin:round;stroke:#000;stroke-opacity:1;stroke-miterlimit:10" d="m1259.805 130.547-287.657 76.289 243.985 249.726" transform="matrix(.1 0 0 -.1 0 200)"/><path style="fill-rule:nonzero;fill:#876bab;fill-opacity:1;stroke-width:7.56;stroke-linecap:round;stroke-linejoin:round;stroke:#000;stroke-opacity:1;stroke-miterlimit:10" d="m1677.734 1296.406 80-394.531-249.218-186.484" transform="matrix(.1 0 0 -.1 0 200)"/><path style="fill-rule:nonzero;fill:#666cc4;fill-opacity:1;stroke-width:7.56;stroke-linecap:round;stroke-linejoin:round;stroke:#000;stroke-opacity:1;stroke-miterlimit:10" d="m1504.766 389.922 3.75 325.469 249.218 186.484" transform="matrix(.1 0 0 -.1 0 200)"/><path style="fill-rule:nonzero;fill:#d18277;fill-opacity:1;stroke-width:7.56;stroke-linecap:round;stroke-linejoin:round;stroke:#000;stroke-opacity:1;stroke-miterlimit:10" d="m528.36 1768.594 169.374-152.266-291.406-263.867" transform="matrix(.1 0 0 -.1 0 200)"/><path style="fill-rule:nonzero;fill:#d18277;fill-opacity:1;stroke-width:7.56;stroke-linecap:round;stroke-linejoin:round;stroke:#000;stroke-opacity:1;stroke-miterlimit:10" d="m406.328 1352.46-180.351 141.173 302.382 274.96" transform="matrix(.1 0 0 -.1 0 200)"/><path style="stroke:none;fill-rule:nonzero;fill:#e1a08c;fill-opacity:1" d="m14.184 87.813 8.414-37.176 18.035 14.117"/><path style="fill:none;stroke-width:7.56;stroke-linecap:round;stroke-linejoin:round;stroke:#000;stroke-opacity:1;stroke-miterlimit:10" d="m141.836 1121.875 84.14 371.758 180.352-141.172Zm0 0" transform="matrix(.1 0 0 -.1 0 200)"/><path style="fill-rule:nonzero;fill:#d7aaa9;fill-opacity:1;stroke-width:7.56;stroke-linecap:round;stroke-linejoin:round;stroke:#000;stroke-opacity:1;stroke-miterlimit:10" d="m300.43 805.117-158.594 316.758 264.492 230.586" transform="matrix(.1 0 0 -.1 0 200)"/><path style="fill-rule:nonzero;fill:#f3d6b1;fill-opacity:1;stroke-width:7.56;stroke-linecap:round;stroke-linejoin:round;stroke:#000;stroke-opacity:1;stroke-miterlimit:10" d="m300.43 805.117-37.54-324.336-191.757 109.61" transform="matrix(.1 0 0 -.1 0 200)"/><path style="stroke:none;fill-rule:nonzero;fill:#f3d6b1;fill-opacity:1" d="m14.184 87.813 15.859 31.675-22.93 21.473"/><path style="fill:none;stroke-width:7.56;stroke-linecap:round;stroke-linejoin:round;stroke:#000;stroke-opacity:1;stroke-miterlimit:10" d="M141.836 1121.875 300.43 805.117" transform="matrix(.1 0 0 -.1 0 200)"/><path style="fill-rule:nonzero;fill:#d1c1cb;fill-opacity:1;stroke-width:7.56;stroke-linecap:round;stroke-linejoin:round;stroke:#000;stroke-opacity:1;stroke-miterlimit:10" d="M600.86 337.46 262.89 480.782l37.54 324.336" transform="matrix(.1 0 0 -.1 0 200)"/><path style="stroke:none;fill-rule:nonzero;fill:#b95e5f;fill-opacity:1" d="M69.773 38.367 52.836 23.141l39.633-6.223"/><path style="fill:none;stroke-width:7.56;stroke-linecap:round;stroke-linejoin:round;stroke:#000;stroke-opacity:1;stroke-miterlimit:10" d="M697.734 1616.328 528.36 1768.594l396.328 62.226Zm0 0" transform="matrix(.1 0 0 -.1 0 200)"/><path style="fill-rule:nonzero;fill:#0051cd;fill-opacity:1;stroke-width:7.56;stroke-linecap:round;stroke-linejoin:round;stroke:#000;stroke-opacity:1;stroke-miterlimit:10" d="m1259.805 130.547 244.96 259.375 256.25 182.07M1680.39 424.96l-324.023-285.038-96.562-9.375" transform="matrix(.1 0 0 -.1 0 200)"/><path style="stroke:none;fill-rule:nonzero;fill:#0051cd;fill-opacity:1" d="m176.102 142.8-8.063 14.704-42.059 29.441"/><path style="fill:none;stroke-width:7.56;stroke-linecap:round;stroke-linejoin:round;stroke:#000;stroke-opacity:1;stroke-miterlimit:10" d="m1761.016 571.992-80.625-147.031" transform="matrix(.1 0 0 -.1 0 200)"/><path style="stroke:none;fill-rule:nonzero;fill:#0a0000;fill-opacity:1" d="m60.086 166.254 37.129 13.062 38.422 6.692"/><path style="fill:none;stroke-width:7.56;stroke-linecap:round;stroke-linejoin:round;stroke:#000;stroke-opacity:1;stroke-miterlimit:10" d="m600.86 337.46 371.288-130.624" transform="matrix(.1 0 0 -.1 0 200)"/><path style="stroke:none;fill-rule:nonzero;fill:#0a0000;fill-opacity:1" d="m26.29 151.922 33.796 14.332 75.55 19.754"/><path style="fill:none;stroke-width:7.56;stroke-linecap:round;stroke-linejoin:round;stroke:#000;stroke-opacity:1;stroke-miterlimit:10" d="m262.89 480.781 337.97-143.32" transform="matrix(.1 0 0 -.1 0 200)"/><path style="fill-rule:nonzero;fill:#5b0013;fill-opacity:1;stroke-width:7.56;stroke-linecap:round;stroke-linejoin:round;stroke:#000;stroke-opacity:1;stroke-miterlimit:10" d="m1405.43 1790.781 141.328-159.531-295.703 29.219" transform="matrix(.1 0 0 -.1 0 200)"/><path style="stroke:none;fill-rule:nonzero;fill:#5b0013;fill-opacity:1" d="m100.43 8.137 40.113 12.785-15.438 13.031"/><path style="fill:none;stroke-width:7.56;stroke-linecap:round;stroke-linejoin:round;stroke:#000;stroke-opacity:1;stroke-miterlimit:10" d="m1004.297 1918.633 401.133-127.852" transform="matrix(.1 0 0 -.1 0 200)"/><path style="fill-rule:nonzero;fill:#5b0013;fill-opacity:1;stroke-width:7.56;stroke-linecap:round;stroke-linejoin:round;stroke:#000;stroke-opacity:1;stroke-miterlimit:10" d="M1251.055 1660.469 924.687 1830.82l79.61 87.813" transform="matrix(.1 0 0 -.1 0 200)"/><path style="fill-rule:nonzero;fill:#0a0000;fill-opacity:1;stroke-width:7.56;stroke-linecap:round;stroke-linejoin:round;stroke:#000;stroke-opacity:1;stroke-miterlimit:10" d="m972.148 206.836 287.657-76.29 96.562 9.376" transform="matrix(.1 0 0 -.1 0 200)"/><path style="stroke:none;fill-rule:nonzero;fill:#320056;fill-opacity:1" d="m167.773 70.36-13.097-33.485 24.414 27.242"/><path style="fill:none;stroke-width:7.56;stroke-linecap:round;stroke-linejoin:round;stroke:#000;stroke-opacity:1;stroke-miterlimit:10" d="m1677.734 1296.406-130.976 334.844 244.14-272.422Zm0 0" transform="matrix(.1 0 0 -.1 0 200)"/><path style="fill-rule:nonzero;fill:#1d0778;fill-opacity:1;stroke-width:7.56;stroke-linecap:round;stroke-linejoin:round;stroke:#000;stroke-opacity:1;stroke-miterlimit:10" d="m1757.734 901.875-80 394.531 113.164 62.422" transform="matrix(.1 0 0 -.1 0 200)"/><path style="fill-rule:nonzero;fill:#f9ab5f;fill-opacity:1;stroke-width:7.56;stroke-linecap:round;stroke-linejoin:round;stroke:#000;stroke-opacity:1;stroke-miterlimit:10" d="m225.977 1493.633-84.141-371.758L-6.25 1003.359" transform="matrix(.1 0 0 -.1 0 200)"/><path style="fill-rule:nonzero;fill:#f3d6b1;fill-opacity:1;stroke-width:7.56;stroke-linecap:round;stroke-linejoin:round;stroke:#000;stroke-opacity:1;stroke-miterlimit:10" d="M71.133 590.39-6.25 1003.36l148.086 118.515" transform="matrix(.1 0 0 -.1 0 200)"/><path style="fill-rule:nonzero;fill:#666cc4;fill-opacity:1;stroke-width:7.56;stroke-linecap:round;stroke-linejoin:round;stroke:#000;stroke-opacity:1;stroke-miterlimit:10" d="m1757.734 901.875 3.282-329.883-256.25-182.07" transform="matrix(.1 0 0 -.1 0 200)"/><path style="fill-rule:nonzero;fill:#1d0778;fill-opacity:1;stroke-width:7.56;stroke-linecap:round;stroke-linejoin:round;stroke:#000;stroke-opacity:1;stroke-miterlimit:10" d="M1790.898 1358.828 1875 946.445l-117.266-44.57" transform="matrix(.1 0 0 -.1 0 200)"/><path style="stroke:none;fill-rule:nonzero;fill:#0b1c9b;fill-opacity:1" d="m176.102 142.8-.329-32.988 11.727-4.457"/><path style="fill:none;stroke-width:7.56;stroke-linecap:round;stroke-linejoin:round;stroke:#000;stroke-opacity:1;stroke-miterlimit:10" d="m1761.016 571.992-3.282 329.883L1875 946.445Zm0 0" transform="matrix(.1 0 0 -.1 0 200)"/><path style="stroke:none;fill-rule:nonzero;fill:#0a0000;fill-opacity:1" d="m7.113 140.96 19.176 10.962 109.348 34.086"/><path style="fill:none;stroke-width:7.56;stroke-linecap:round;stroke-linejoin:round;stroke:#000;stroke-opacity:1;stroke-miterlimit:10" d="M71.133 590.39 262.89 480.782" transform="matrix(.1 0 0 -.1 0 200)"/><path style="fill-rule:nonzero;fill:#840000;fill-opacity:1;stroke-width:7.56;stroke-linecap:round;stroke-linejoin:round;stroke:#000;stroke-opacity:1;stroke-miterlimit:10" d="m590.273 1854.453 414.024 64.18-79.61-87.813" transform="matrix(.1 0 0 -.1 0 200)"/><path style="fill-rule:nonzero;fill:#840000;fill-opacity:1;stroke-width:7.56;stroke-linecap:round;stroke-linejoin:round;stroke:#000;stroke-opacity:1;stroke-miterlimit:10" d="m924.688 1830.82-396.329-62.226 61.914 85.86" transform="matrix(.1 0 0 -.1 0 200)"/><path style="fill-rule:nonzero;fill:#9c1500;fill-opacity:1;stroke-width:7.56;stroke-linecap:round;stroke-linejoin:round;stroke:#000;stroke-opacity:1;stroke-miterlimit:10" d="m528.36 1768.594-302.383-274.961-146.875-104.18" transform="matrix(.1 0 0 -.1 0 200)"/><path style="fill-rule:nonzero;fill:#f9ab5f;fill-opacity:1;stroke-width:7.56;stroke-linecap:round;stroke-linejoin:round;stroke:#000;stroke-opacity:1;stroke-miterlimit:10" d="m-6.25 1003.36 85.352 386.093 146.875 104.18" transform="matrix(.1 0 0 -.1 0 200)"/><path style="stroke:none;fill-rule:nonzero;fill:#9c1500;fill-opacity:1" d="m59.027 14.555-6.191 8.586L7.91 61.055"/><path style="fill:none;stroke-width:7.56;stroke-linecap:round;stroke-linejoin:round;stroke:#000;stroke-opacity:1;stroke-miterlimit:10" d="m590.273 1854.453-61.914-85.86" transform="matrix(.1 0 0 -.1 0 200)"/><path style="fill-rule:nonzero;fill:#000;fill-opacity:1;stroke-width:7.56;stroke-linecap:round;stroke-linejoin:round;stroke:#000;stroke-opacity:1;stroke-miterlimit:10" d="m1790.898 1358.828-244.14 272.422-141.328 159.531" transform="matrix(.1 0 0 -.1 0 200)"/><path style="fill-rule:nonzero;fill:#d78300;fill-opacity:1;stroke-width:7.56;stroke-linecap:round;stroke-linejoin:round;stroke:#000;stroke-opacity:1;stroke-miterlimit:10" d="m1798.125 813.906-117.734-388.945 80.625 147.031" transform="matrix(.1 0 0 -.1 0 200)"/><path style="fill-rule:nonzero;fill:#d78300;fill-opacity:1;stroke-width:7.56;stroke-linecap:round;stroke-linejoin:round;stroke:#000;stroke-opacity:1;stroke-miterlimit:10" d="M1761.016 571.992 1875 946.445l-76.875-132.539" transform="matrix(.1 0 0 -.1 0 200)"/><path style="stroke:none;fill-rule:nonzero;fill:#00004e;fill-opacity:1" d="m3.16 94.535 4.75-33.48-8.535 38.61"/><path style="fill:none;stroke-width:7.56;stroke-linecap:round;stroke-linejoin:round;stroke:#000;stroke-opacity:1;stroke-miterlimit:10" d="m31.602 1054.648 47.5 334.805L-6.25 1003.36Zm0 0" transform="matrix(.1 0 0 -.1 0 200)"/><path style="fill-rule:nonzero;fill:#00002a;fill-opacity:1;stroke-width:7.56;stroke-linecap:round;stroke-linejoin:round;stroke:#000;stroke-opacity:1;stroke-miterlimit:10" d="m-6.25 1003.36 77.383-412.97 41.68 31.641" transform="matrix(.1 0 0 -.1 0 200)"/><path style="fill-rule:nonzero;fill:#00002a;fill-opacity:1;stroke-width:7.56;stroke-linecap:round;stroke-linejoin:round;stroke:#000;stroke-opacity:1;stroke-miterlimit:10" d="m112.813 622.031-81.211 432.617-37.852-51.289" transform="matrix(.1 0 0 -.1 0 200)"/><path style="fill-rule:nonzero;fill:#000;fill-opacity:1;stroke-width:7.56;stroke-linecap:round;stroke-linejoin:round;stroke:#000;stroke-opacity:1;stroke-miterlimit:10" d="m1405.43 1790.781 251.289-280.273 134.18-151.68" transform="matrix(.1 0 0 -.1 0 200)"/><path style="fill-rule:nonzero;fill:#fce59c;fill-opacity:1;stroke-width:7.56;stroke-linecap:round;stroke-linejoin:round;stroke:#000;stroke-opacity:1;stroke-miterlimit:10" d="m1875 946.445-84.102 412.383-134.18 151.68" transform="matrix(.1 0 0 -.1 0 200)"/><path style="stroke:none;fill-rule:nonzero;fill:#0a0000;fill-opacity:1" d="m11.281 137.797-4.168 3.164 128.524 45.047"/><path style="fill:none;stroke-width:7.56;stroke-linecap:round;stroke-linejoin:round;stroke:#000;stroke-opacity:1;stroke-miterlimit:10" d="m112.813 622.031-41.68-31.64" transform="matrix(.1 0 0 -.1 0 200)"/><path style="fill-rule:nonzero;fill:#fce59c;fill-opacity:1;stroke-width:7.56;stroke-linecap:round;stroke-linejoin:round;stroke:#000;stroke-opacity:1;stroke-miterlimit:10" d="m1657.11 1170.078 141.015-356.172L1875 946.446" transform="matrix(.1 0 0 -.1 0 200)"/><path style="stroke:none;fill-rule:nonzero;fill:#fce59c;fill-opacity:1" d="m165.672 48.95.039 34.042 21.789 22.363"/><path style="fill:none;stroke-width:7.56;stroke-linecap:round;stroke-linejoin:round;stroke:#000;stroke-opacity:1;stroke-miterlimit:10" d="m1656.719 1510.508.39-340.43" transform="matrix(.1 0 0 -.1 0 200)"/><path style="stroke:none;fill-rule:nonzero;fill:#59c0fb;fill-opacity:1" d="m100.43 8.137-41.403 6.418 29.676 2.488"/><path style="fill:none;stroke-width:7.56;stroke-linecap:round;stroke-linejoin:round;stroke:#000;stroke-opacity:1;stroke-miterlimit:10" d="m1004.297 1918.633-414.024-64.18 296.758-24.883Zm0 0" transform="matrix(.1 0 0 -.1 0 200)"/><path style="fill-rule:nonzero;fill:#a5e6fb;fill-opacity:1;stroke-width:7.56;stroke-linecap:round;stroke-linejoin:round;stroke:#000;stroke-opacity:1;stroke-miterlimit:10" d="m1405.43 1790.781-401.133 127.852-117.266-89.063" transform="matrix(.1 0 0 -.1 0 200)"/><path style="fill-rule:nonzero;fill:#9c1500;fill-opacity:1;stroke-width:7.56;stroke-linecap:round;stroke-linejoin:round;stroke:#000;stroke-opacity:1;stroke-miterlimit:10" d="m79.102 1389.453 226.21 225.313 284.961 239.687" transform="matrix(.1 0 0 -.1 0 200)"/><path style="fill-rule:nonzero;fill:#3852c1;fill-opacity:1;stroke-width:7.56;stroke-linecap:round;stroke-linejoin:round;stroke:#000;stroke-opacity:1;stroke-miterlimit:10" d="m79.102 1389.453-47.5-334.805 231.718 221.29M263.32 1275.938l41.993 338.828-226.211-225.313" transform="matrix(.1 0 0 -.1 0 200)"/><path style="fill-rule:nonzero;fill:#a5e6fb;fill-opacity:1;stroke-width:7.56;stroke-linecap:round;stroke-linejoin:round;stroke:#000;stroke-opacity:1;stroke-miterlimit:10" d="m887.031 1829.57 418.672-134.453 99.727 95.664" transform="matrix(.1 0 0 -.1 0 200)"/><path style="stroke:none;fill-rule:nonzero;fill:#d2f3e6;fill-opacity:1" d="m165.672 48.95-25.129-28.028-9.973 9.566"/><path style="fill:none;stroke-width:7.56;stroke-linecap:round;stroke-linejoin:round;stroke:#000;stroke-opacity:1;stroke-miterlimit:10" d="m1656.719 1510.508-251.29 280.273-99.726-95.664Zm0 0" transform="matrix(.1 0 0 -.1 0 200)"/><path style="fill-rule:nonzero;fill:#79a5ee;fill-opacity:1;stroke-width:7.56;stroke-linecap:round;stroke-linejoin:round;stroke:#000;stroke-opacity:1;stroke-miterlimit:10" d="m887.031 1829.57-296.758 24.883-284.96-239.687" transform="matrix(.1 0 0 -.1 0 200)"/><path style="stroke:none;fill-rule:nonzero;fill:#0a0000;fill-opacity:1" d="m40.094 144.77-28.813-6.973 124.356 48.21"/><path style="fill:none;stroke-width:7.56;stroke-linecap:round;stroke-linejoin:round;stroke:#000;stroke-opacity:1;stroke-miterlimit:10" d="M400.938 552.305 112.813 622.03" transform="matrix(.1 0 0 -.1 0 200)"/><path style="stroke:none;fill-rule:nonzero;fill:#0a0000;fill-opacity:1" d="m82.773 159.66-42.68-14.89 95.544 41.238"/><path style="fill:none;stroke-width:7.56;stroke-linecap:round;stroke-linejoin:round;stroke:#000;stroke-opacity:1;stroke-miterlimit:10" d="M827.734 403.398 400.937 552.305" transform="matrix(.1 0 0 -.1 0 200)"/><path style="fill-rule:nonzero;fill:#0a0000;fill-opacity:1;stroke-width:7.56;stroke-linecap:round;stroke-linejoin:round;stroke:#000;stroke-opacity:1;stroke-miterlimit:10" d="m1356.367 139.922-157.07 102.305-371.563 161.171" transform="matrix(.1 0 0 -.1 0 200)"/><path style="fill-rule:nonzero;fill:#d57557;fill-opacity:1;stroke-width:7.56;stroke-linecap:round;stroke-linejoin:round;stroke:#000;stroke-opacity:1;stroke-miterlimit:10" d="m1199.297 242.227 157.07-102.305 324.024 285.039" transform="matrix(.1 0 0 -.1 0 200)"/><path style="fill-rule:nonzero;fill:#d57557;fill-opacity:1;stroke-width:7.56;stroke-linecap:round;stroke-linejoin:round;stroke:#000;stroke-opacity:1;stroke-miterlimit:10" d="m1680.39 424.96-143.437 115.353-337.656-298.086" transform="matrix(.1 0 0 -.1 0 200)"/><path style="stroke:none;fill-rule:nonzero;fill:#eda074;fill-opacity:1" d="m168.04 157.504 11.773-38.895-26.118 27.36"/><path style="fill:none;stroke-width:7.56;stroke-linecap:round;stroke-linejoin:round;stroke:#000;stroke-opacity:1;stroke-miterlimit:10" d="m1680.39 424.96 117.735 388.946-261.172-273.593Zm0 0" transform="matrix(.1 0 0 -.1 0 200)"/><path style="fill-rule:nonzero;fill:#d8ced0;fill-opacity:1;stroke-width:7.56;stroke-linecap:round;stroke-linejoin:round;stroke:#000;stroke-opacity:1;stroke-miterlimit:10" d="m1294.922 1352.813 362.187-182.735-.39 340.43" transform="matrix(.1 0 0 -.1 0 200)"/><path style="fill-rule:nonzero;fill:#d8ced0;fill-opacity:1;stroke-width:7.56;stroke-linecap:round;stroke-linejoin:round;stroke:#000;stroke-opacity:1;stroke-miterlimit:10" d="m1656.719 1510.508-351.016 184.61-10.781-342.305" transform="matrix(.1 0 0 -.1 0 200)"/><path style="stroke:none;fill-rule:nonzero;fill:#785da6;fill-opacity:1" d="m3.16 94.535 8.121 43.262 38.88-34.324"/><path style="fill:none;stroke-width:7.56;stroke-linecap:round;stroke-linejoin:round;stroke:#000;stroke-opacity:1;stroke-miterlimit:10" d="m31.602 1054.648 81.21-432.617" transform="matrix(.1 0 0 -.1 0 200)"/><path style="fill-rule:nonzero;fill:#785da6;fill-opacity:1;stroke-width:7.56;stroke-linecap:round;stroke-linejoin:round;stroke:#000;stroke-opacity:1;stroke-miterlimit:10" d="M501.602 965.273 263.32 1275.937 31.602 1054.649" transform="matrix(.1 0 0 -.1 0 200)"/><path style="stroke:none;fill-rule:nonzero;fill:#7e89d4;fill-opacity:1" d="M59.965 41.93 30.53 38.523l-4.199 33.883"/><path style="fill:none;stroke-width:7.56;stroke-linecap:round;stroke-linejoin:round;stroke:#000;stroke-opacity:1;stroke-miterlimit:10" d="m599.648 1580.703-294.336 34.063-41.992-338.829Zm0 0" transform="matrix(.1 0 0 -.1 0 200)"/><path style="fill-rule:nonzero;fill:#79a5ee;fill-opacity:1;stroke-width:7.56;stroke-linecap:round;stroke-linejoin:round;stroke:#000;stroke-opacity:1;stroke-miterlimit:10" d="m305.313 1614.766 294.335-34.063 287.383 248.867" transform="matrix(.1 0 0 -.1 0 200)"/><path style="fill-rule:nonzero;fill:#dfafa4;fill-opacity:1;stroke-width:7.56;stroke-linecap:round;stroke-linejoin:round;stroke:#000;stroke-opacity:1;stroke-miterlimit:10" d="m1385.43 899.102 151.523-358.79 261.172 273.594" transform="matrix(.1 0 0 -.1 0 200)"/><path style="fill-rule:nonzero;fill:#dfafa4;fill-opacity:1;stroke-width:7.56;stroke-linecap:round;stroke-linejoin:round;stroke:#000;stroke-opacity:1;stroke-miterlimit:10" d="m1798.125 813.906-141.016 356.172-271.68-270.976" transform="matrix(.1 0 0 -.1 0 200)"/><path style="fill-rule:nonzero;fill:#785da6;fill-opacity:1;stroke-width:7.56;stroke-linecap:round;stroke-linejoin:round;stroke:#000;stroke-opacity:1;stroke-miterlimit:10" d="m112.813 622.031 288.125-69.726 100.664 412.968" transform="matrix(.1 0 0 -.1 0 200)"/><path style="fill-rule:nonzero;fill:#b4b3d7;fill-opacity:1;stroke-width:7.56;stroke-linecap:round;stroke-linejoin:round;stroke:#000;stroke-opacity:1;stroke-miterlimit:10" d="M1305.703 1695.117 887.031 1829.57l-287.383-248.867M847.46 1276.367l447.462 76.446 10.781 342.304" transform="matrix(.1 0 0 -.1 0 200)"/><path style="stroke:none;fill-rule:nonzero;fill:#b4b3d7;fill-opacity:1" d="m59.965 41.93 24.781 30.433 45.824-41.875"/><path style="fill:none;stroke-width:7.56;stroke-linecap:round;stroke-linejoin:round;stroke:#000;stroke-opacity:1;stroke-miterlimit:10" d="m599.648 1580.703 247.813-304.336" transform="matrix(.1 0 0 -.1 0 200)"/><path style="fill-rule:nonzero;fill:#c28b9a;fill-opacity:1;stroke-width:7.56;stroke-linecap:round;stroke-linejoin:round;stroke:#000;stroke-opacity:1;stroke-miterlimit:10" d="m827.734 403.398 371.563-161.171 337.656 298.086" transform="matrix(.1 0 0 -.1 0 200)"/><path style="stroke:none;fill-rule:nonzero;fill:#d1b3bb;fill-opacity:1" d="M165.71 82.992 129.493 64.72l9.051 45.37"/><path style="fill:none;stroke-width:7.56;stroke-linecap:round;stroke-linejoin:round;stroke:#000;stroke-opacity:1;stroke-miterlimit:10" d="m1657.11 1170.078-362.188 182.735 90.508-453.711Zm0 0" transform="matrix(.1 0 0 -.1 0 200)"/><path style="stroke:none;fill-rule:nonzero;fill:#c28b9a;fill-opacity:1" d="M93.719 118.293 82.773 159.66l70.922-13.691"/><path style="fill:none;stroke-width:7.56;stroke-linecap:round;stroke-linejoin:round;stroke:#000;stroke-opacity:1;stroke-miterlimit:10" d="M937.188 817.07 827.734 403.398" transform="matrix(.1 0 0 -.1 0 200)"/><path style="fill-rule:nonzero;fill:#c28b9a;fill-opacity:1;stroke-width:7.56;stroke-linecap:round;stroke-linejoin:round;stroke:#000;stroke-opacity:1;stroke-miterlimit:10" d="M1536.953 540.313 1385.43 899.101 937.187 817.07" transform="matrix(.1 0 0 -.1 0 200)"/><path style="fill-rule:nonzero;fill:#9c8ec4;fill-opacity:1;stroke-width:7.56;stroke-linecap:round;stroke-linejoin:round;stroke:#000;stroke-opacity:1;stroke-miterlimit:10" d="m263.32 1275.938 238.282-310.665 345.859 311.094" transform="matrix(.1 0 0 -.1 0 200)"/><path style="fill-rule:nonzero;fill:#9c8ec4;fill-opacity:1;stroke-width:7.56;stroke-linecap:round;stroke-linejoin:round;stroke:#000;stroke-opacity:1;stroke-miterlimit:10" d="m847.46 1276.367-247.812 304.336-336.328-304.765" transform="matrix(.1 0 0 -.1 0 200)"/><path style="fill-rule:nonzero;fill:#a579a3;fill-opacity:1;stroke-width:7.56;stroke-linecap:round;stroke-linejoin:round;stroke:#000;stroke-opacity:1;stroke-miterlimit:10" d="m400.938 552.305 426.796-148.907L937.187 817.07" transform="matrix(.1 0 0 -.1 0 200)"/><path style="fill-rule:nonzero;fill:#a579a3;fill-opacity:1;stroke-width:7.56;stroke-linecap:round;stroke-linejoin:round;stroke:#000;stroke-opacity:1;stroke-miterlimit:10" d="M937.188 817.07 501.601 965.273 400.938 552.305" transform="matrix(.1 0 0 -.1 0 200)"/><path style="fill-rule:nonzero;fill:#bea0ba;fill-opacity:1;stroke-width:7.56;stroke-linecap:round;stroke-linejoin:round;stroke:#000;stroke-opacity:1;stroke-miterlimit:10" d="m1385.43 899.102-90.508 453.71-447.461-76.445M847.46 1276.367l89.727-459.297 448.243 82.032" transform="matrix(.1 0 0 -.1 0 200)"/><path style="stroke:none;fill-rule:nonzero;fill:#ac8eb7;fill-opacity:1" d="m93.719 118.293-8.973-45.93-34.586 31.11"/><path style="fill:none;stroke-width:7.56;stroke-linecap:round;stroke-linejoin:round;stroke:#000;stroke-opacity:1;stroke-miterlimit:10" d="m937.188 817.07-89.727 459.297L501.6 965.273Zm0 0" transform="matrix(.1 0 0 -.1 0 200)"/></svg>