<svg xmlns="http://www.w3.org/2000/svg" width="246.12" height="250.96" viewBox="0 0 184.59 188.22" version="1.2"><defs><clipPath id="a"><path d="M128 75h56.004v84H128Zm0 0"/></clipPath><clipPath id="b"><path d="M128 0h56.004v78H128Zm0 0"/></clipPath><clipPath id="c"><path d="M6 97h170v90.441H6Zm0 0"/></clipPath><clipPath id="d"><path d="M6 97h171v90.441H6Zm0 0"/></clipPath><clipPath id="e"><path d="M.176 0H132v98H.176Zm0 0"/></clipPath><clipPath id="f"><path d="M.176 0H133v99H.176Zm0 0"/></clipPath><clipPath id="g"><path d="M.176 20H37v167.441H.176Zm0 0"/></clipPath><clipPath id="h"><path d="M.176 20H38v167.441H.176Zm0 0"/></clipPath><clipPath id="i"><path d="M.176 0H132v21H.176Zm0 0"/></clipPath><clipPath id="j"><path d="M.176 0H133v22H.176Zm0 0"/></clipPath><clipPath id="k"><path d="M86 0h98.004v78H86Zm0 0"/></clipPath><clipPath id="l"><path d="M.176 20H37v167.441H.176Zm0 0"/></clipPath><clipPath id="m"><path d="M.176 20H38v167.441H.176Zm0 0"/></clipPath><clipPath id="n"><path d="M.176 2H88v104H.176Zm0 0"/></clipPath><clipPath id="o"><path d="M31 105h145v82.441H31Zm0 0"/></clipPath><clipPath id="p"><path d="M31 104h146v83.441H31Zm0 0"/></clipPath><clipPath id="q"><path d="M31 76h153.004v83H31Zm0 0"/></clipPath><clipPath id="r"><path d="M31 2h153.004v104H31Zm0 0"/></clipPath></defs><path style="fill-rule:nonzero;fill:#abc0e7;fill-opacity:1;stroke-width:6.57074;stroke-linecap:round;stroke-linejoin:round;stroke:#231f20;stroke-opacity:1;stroke-miterlimit:10" d="m1762.577 298.594-471.948 822.81L68.045 900.453" transform="matrix(.09959 0 0 -.09959 .177 187.443)"/><path style="fill-rule:nonzero;fill:#c2899d;fill-opacity:1;stroke-width:6.57074;stroke-linecap:round;stroke-linejoin:round;stroke:#231f20;stroke-opacity:1;stroke-miterlimit:10" d="m68.045 900.453 1222.584 220.951 32.243 757.501" transform="matrix(.09959 0 0 -.09959 .177 187.443)"/><path style="stroke:none;fill-rule:nonzero;fill:#33328b;fill-opacity:1" d="m128.707 75.766 47 81.941 7.973-80.621"/><g clip-path="url(#a)"><path style="fill:none;stroke-width:6.57074;stroke-linecap:round;stroke-linejoin:round;stroke:#231f20;stroke-opacity:1;stroke-miterlimit:10" d="m1290.63 1121.404 471.947-822.81 80.057 809.552" transform="matrix(.09959 0 0 -.09959 .177 187.443)"/></g><path style="stroke:none;fill-rule:nonzero;fill:#33328b;fill-opacity:1" d="M183.68 77.086 131.918.328l-3.211 75.438"/><g clip-path="url(#b)"><path style="fill:none;stroke-width:6.57074;stroke-linecap:round;stroke-linejoin:round;stroke:#231f20;stroke-opacity:1;stroke-miterlimit:10" d="m1842.634 1108.146-519.762 770.76-32.243-757.502" transform="matrix(.09959 0 0 -.09959 .177 187.443)"/></g><g clip-path="url(#c)"><path style="stroke:none;fill-rule:nonzero;fill:#abc0e7;fill-opacity:1" d="m6.953 97.77 29.77 89.347 138.984-29.41"/></g><g clip-path="url(#d)"><path style="fill:none;stroke-width:6.57074;stroke-linecap:round;stroke-linejoin:round;stroke:#231f20;stroke-opacity:1;stroke-miterlimit:10" d="M68.045 900.453 366.974 3.273l1395.603 295.321" transform="matrix(.09959 0 0 -.09959 .177 187.443)"/></g><g clip-path="url(#e)"><path style="stroke:none;fill-rule:nonzero;fill:#c2899d;fill-opacity:1" d="M131.918.328.504 20.762l6.45 77.008"/></g><g clip-path="url(#f)"><path style="fill:none;stroke-width:6.57074;stroke-linecap:round;stroke-linejoin:round;stroke:#231f20;stroke-opacity:1;stroke-miterlimit:10" d="M1322.872 1878.905 3.285 1673.722l64.76-773.269" transform="matrix(.09959 0 0 -.09959 .177 187.443)"/></g><g clip-path="url(#g)"><path style="stroke:none;fill-rule:nonzero;fill:#1e2244;fill-opacity:1" d="M36.723 187.117 6.953 97.77.503 20.762"/></g><g clip-path="url(#h)"><path style="fill:none;stroke-width:6.57074;stroke-linecap:round;stroke-linejoin:round;stroke:#231f20;stroke-opacity:1;stroke-miterlimit:10" d="M366.974 3.274 68.044 900.453l-64.759 773.27" transform="matrix(.09959 0 0 -.09959 .177 187.443)"/></g><g clip-path="url(#i)"><path style="stroke:none;fill-rule:nonzero;fill:#4b1218;fill-opacity:1" d="M131.918.328.504 20.762 87.035 2.699 131.918.33"/></g><g clip-path="url(#j)"><path style="fill:none;stroke-width:6.57074;stroke-linecap:round;stroke-linejoin:round;stroke:#231f20;stroke-opacity:1;stroke-miterlimit:10" d="M1322.872 1878.905 3.285 1673.722l868.899 181.374Zm0 0" transform="matrix(.09959 0 0 -.09959 .177 187.443)"/></g><path style="stroke:none;fill-rule:nonzero;fill:#c8ece8;fill-opacity:1" d="M183.68 77.086 131.918.328 87.035 2.7l96.645 74.387"/><g clip-path="url(#k)"><path style="fill:none;stroke-width:6.57074;stroke-linecap:round;stroke-linejoin:round;stroke:#231f20;stroke-opacity:1;stroke-miterlimit:10" d="m1842.634 1108.146-519.762 770.76-450.688-23.81Zm0 0" transform="matrix(.09959 0 0 -.09959 .177 187.443)"/></g><g clip-path="url(#l)"><path style="stroke:none;fill-rule:nonzero;fill:#1e2244;fill-opacity:1" d="m.504 20.762 31.457 84.324 4.762 82.031"/></g><g clip-path="url(#m)"><path style="fill:none;stroke-width:6.57074;stroke-linecap:round;stroke-linejoin:round;stroke:#231f20;stroke-opacity:1;stroke-miterlimit:10" d="M3.285 1673.722 319.16 826.986 366.974 3.274" transform="matrix(.09959 0 0 -.09959 .177 187.443)"/></g><g clip-path="url(#n)"><path style="stroke:none;fill-rule:nonzero;fill:#7493d3;fill-opacity:1" d="m.504 20.762 31.457 84.324L87.035 2.699.504 20.762"/><path style="fill:none;stroke-width:6.57074;stroke-linecap:round;stroke-linejoin:round;stroke:#231f20;stroke-opacity:1;stroke-miterlimit:10" d="M3.285 1673.722 319.16 826.986l553.025 1028.11Zm0 0" transform="matrix(.09959 0 0 -.09959 .177 187.443)"/></g><g clip-path="url(#o)"><path style="stroke:none;fill-rule:nonzero;fill:#c38391;fill-opacity:1" d="m175.707 157.707-138.984 29.41-4.762-82.031"/></g><g clip-path="url(#p)"><path style="fill:none;stroke-width:6.57074;stroke-linecap:round;stroke-linejoin:round;stroke:#231f20;stroke-opacity:1;stroke-miterlimit:10" d="M1762.577 298.594 366.974 3.274l-47.815 823.712" transform="matrix(.09959 0 0 -.09959 .177 187.443)"/></g><path style="stroke:none;fill-rule:nonzero;fill:#c38391;fill-opacity:1" d="m31.96 105.086 151.72-28-7.973 80.621"/><g clip-path="url(#q)"><path style="fill:none;stroke-width:6.57074;stroke-linecap:round;stroke-linejoin:round;stroke:#231f20;stroke-opacity:1;stroke-miterlimit:10" d="m319.16 826.986 1523.474 281.16-80.057-809.552" transform="matrix(.09959 0 0 -.09959 .177 187.443)"/></g><path style="stroke:none;fill-rule:nonzero;fill:#bdb0d1;fill-opacity:1" d="m31.96 105.086 151.72-28L87.035 2.699 31.961 105.086"/><g clip-path="url(#r)"><path style="fill:none;stroke-width:6.57074;stroke-linecap:round;stroke-linejoin:round;stroke:#231f20;stroke-opacity:1;stroke-miterlimit:10" d="m319.16 826.986 1523.474 281.16-970.45 746.95Zm0 0" transform="matrix(.09959 0 0 -.09959 .177 187.443)"/></g></svg>