<svg xmlns="http://www.w3.org/2000/svg" width="203pt" height="200pt" viewBox="0 0 203 200" version="1.2"><path style="fill-rule:nonzero;fill:#835c9b;fill-opacity:1;stroke-width:6.96;stroke-linecap:round;stroke-linejoin:round;stroke:#000;stroke-opacity:1;stroke-miterlimit:10" d="m1939.18 1065.547-321.094-68.242-185.39 499.414" transform="matrix(.1 0 0 -.1 0 200)"/><path style="fill-rule:nonzero;fill:#7b71bd;fill-opacity:1;stroke-width:6.96;stroke-linecap:round;stroke-linejoin:round;stroke:#000;stroke-opacity:1;stroke-miterlimit:10" d="m1618.086 997.305 321.094 68.242L1855 526.992M1855 526.992l-321.563-45 84.649 515.313" transform="matrix(.1 0 0 -.1 0 200)"/><path style="fill-rule:nonzero;fill:#c8a8b8;fill-opacity:1;stroke-width:6.96;stroke-linecap:round;stroke-linejoin:round;stroke:#000;stroke-opacity:1;stroke-miterlimit:10" d="m1432.695 1496.719 185.39-499.414-84.648-515.313" transform="matrix(.1 0 0 -.1 0 200)"/><path style="fill-rule:nonzero;fill:#8a426e;fill-opacity:1;stroke-width:6.96;stroke-linecap:round;stroke-linejoin:round;stroke:#000;stroke-opacity:1;stroke-miterlimit:10" d="m1746.719 1588.398-314.024-91.68-395.507 313.477" transform="matrix(.1 0 0 -.1 0 200)"/><path style="fill-rule:nonzero;fill:#835c9b;fill-opacity:1;stroke-width:6.96;stroke-linecap:round;stroke-linejoin:round;stroke:#000;stroke-opacity:1;stroke-miterlimit:10" d="m1432.695 1496.719 314.024 91.68 192.46-522.852" transform="matrix(.1 0 0 -.1 0 200)"/><path style="fill-rule:nonzero;fill:#c8a8b8;fill-opacity:1;stroke-width:6.96;stroke-linecap:round;stroke-linejoin:round;stroke:#000;stroke-opacity:1;stroke-miterlimit:10" d="m562.148 1814.648 475.04-4.453 395.507-313.476" transform="matrix(.1 0 0 -.1 0 200)"/><path style="stroke:none;fill-rule:nonzero;fill:#c8a8b8;fill-opacity:1" d="m18.64 51.633 37.575-33.098 87.055 31.793"/><path style="fill:none;stroke-width:6.96;stroke-linecap:round;stroke-linejoin:round;stroke:#000;stroke-opacity:1;stroke-miterlimit:10" d="m186.406 1483.672 375.742 330.976" transform="matrix(.1 0 0 -.1 0 200)"/><path style="stroke:none;fill-rule:nonzero;fill:#c8a8b8;fill-opacity:1" d="m7.418 106.887 11.223-55.254 124.629-1.305"/><path style="fill:none;stroke-width:6.96;stroke-linecap:round;stroke-linejoin:round;stroke:#000;stroke-opacity:1;stroke-miterlimit:10" d="m74.18 931.133 112.226 552.539" transform="matrix(.1 0 0 -.1 0 200)"/><path style="stroke:none;fill-rule:nonzero;fill:#c8a8b8;fill-opacity:1" d="m28.363 161.277-20.945-54.39L143.27 50.328"/><path style="fill:none;stroke-width:6.96;stroke-linecap:round;stroke-linejoin:round;stroke:#000;stroke-opacity:1;stroke-miterlimit:10" d="M283.633 387.227 74.18 931.133" transform="matrix(.1 0 0 -.1 0 200)"/><path style="stroke:none;fill-rule:nonzero;fill:#c8a8b8;fill-opacity:1" d="m72.16 191.637-43.797-30.36L143.27 50.328"/><path style="fill:none;stroke-width:6.96;stroke-linecap:round;stroke-linejoin:round;stroke:#000;stroke-opacity:1;stroke-miterlimit:10" d="m721.602 83.633-437.97 303.594" transform="matrix(.1 0 0 -.1 0 200)"/><path style="stroke:none;fill-rule:nonzero;fill:#c8a8b8;fill-opacity:1" d="m119.879 187.043-47.719 4.594 71.11-141.309"/><path style="fill:none;stroke-width:6.96;stroke-linecap:round;stroke-linejoin:round;stroke:#000;stroke-opacity:1;stroke-miterlimit:10" d="M1198.79 129.57 721.601 83.633" transform="matrix(.1 0 0 -.1 0 200)"/><path style="stroke:none;fill-rule:nonzero;fill:#c8a8b8;fill-opacity:1" d="m153.344 151.8-33.465 35.243 23.39-136.715"/><path style="fill:none;stroke-width:6.96;stroke-linecap:round;stroke-linejoin:round;stroke:#000;stroke-opacity:1;stroke-miterlimit:10" d="M1533.438 481.992 1198.789 129.57" transform="matrix(.1 0 0 -.1 0 200)"/><path style="fill-rule:nonzero;fill:#678fe5;fill-opacity:1;stroke-width:6.96;stroke-linecap:round;stroke-linejoin:round;stroke:#000;stroke-opacity:1;stroke-miterlimit:10" d="m1533.438 481.992 321.562 45-341.914-368.125" transform="matrix(.1 0 0 -.1 0 200)"/><path style="fill-rule:nonzero;fill:#678fe5;fill-opacity:1;stroke-width:6.96;stroke-linecap:round;stroke-linejoin:round;stroke:#000;stroke-opacity:1;stroke-miterlimit:10" d="m1513.086 158.867-314.297-29.297 334.649 352.422" transform="matrix(.1 0 0 -.1 0 200)"/><path style="fill-rule:nonzero;fill:#830000;fill-opacity:1;stroke-width:6.96;stroke-linecap:round;stroke-linejoin:round;stroke:#000;stroke-opacity:1;stroke-miterlimit:10" d="m1339.14 1918.71-301.953-108.515-475.039 4.453" transform="matrix(.1 0 0 -.1 0 200)"/><path style="fill-rule:nonzero;fill:#8a426e;fill-opacity:1;stroke-width:6.96;stroke-linecap:round;stroke-linejoin:round;stroke:#000;stroke-opacity:1;stroke-miterlimit:10" d="m1037.188 1810.195 301.953 108.516 407.578-330.313" transform="matrix(.1 0 0 -.1 0 200)"/><path style="fill-rule:nonzero;fill:#0085b5;fill-opacity:1;stroke-width:6.96;stroke-linecap:round;stroke-linejoin:round;stroke:#000;stroke-opacity:1;stroke-miterlimit:10" d="m1198.79 129.57 314.296 29.297-490.938-47.383M1022.148 111.484 721.602 83.633l477.187 45.937" transform="matrix(.1 0 0 -.1 0 200)"/><path style="stroke:none;fill-rule:nonzero;fill:#f8c493;fill-opacity:1" d="m176.258 106.277 9.242 41.024 8.418-53.856"/><path style="fill:none;stroke-width:6.96;stroke-linecap:round;stroke-linejoin:round;stroke:#000;stroke-opacity:1;stroke-miterlimit:10" d="M1762.578 937.227 1855 526.992l84.18 538.555Zm0 0" transform="matrix(.1 0 0 -.1 0 200)"/><path style="fill-rule:nonzero;fill:#edd6bb;fill-opacity:1;stroke-width:6.96;stroke-linecap:round;stroke-linejoin:round;stroke:#000;stroke-opacity:1;stroke-miterlimit:10" d="m1939.18 1065.547-192.461 522.851-187.5-101.68" transform="matrix(.1 0 0 -.1 0 200)"/><path style="fill-rule:nonzero;fill:#edd6bb;fill-opacity:1;stroke-width:6.96;stroke-linecap:round;stroke-linejoin:round;stroke:#000;stroke-opacity:1;stroke-miterlimit:10" d="m1559.219 1486.719 203.36-549.492 176.6 128.32" transform="matrix(.1 0 0 -.1 0 200)"/><path style="stroke:none;fill-rule:nonzero;fill:#dde0d7;fill-opacity:1" d="m155.922 51.328 18.75-10.168L133.914 8.13"/><path style="fill:none;stroke-width:6.96;stroke-linecap:round;stroke-linejoin:round;stroke:#000;stroke-opacity:1;stroke-miterlimit:10" d="m1559.219 1486.719 187.5 101.68-407.578 330.312Zm0 0" transform="matrix(.1 0 0 -.1 0 200)"/><path style="fill-rule:nonzero;fill:#830000;fill-opacity:1;stroke-width:6.96;stroke-linecap:round;stroke-linejoin:round;stroke:#000;stroke-opacity:1;stroke-miterlimit:10" d="m562.148 1814.648 288.164 112.11 488.829-8.047" transform="matrix(.1 0 0 -.1 0 200)"/><path style="fill-rule:nonzero;fill:#2176e3;fill-opacity:1;stroke-width:6.96;stroke-linecap:round;stroke-linejoin:round;stroke:#000;stroke-opacity:1;stroke-miterlimit:10" d="m850.313 1926.758-288.165-112.11-375.742-330.976" transform="matrix(.1 0 0 -.1 0 200)"/><path style="fill-rule:nonzero;fill:#dea498;fill-opacity:1;stroke-width:6.96;stroke-linecap:round;stroke-linejoin:round;stroke:#000;stroke-opacity:1;stroke-miterlimit:10" d="M1513.086 158.867 1855 526.992l-92.422 410.235" transform="matrix(.1 0 0 -.1 0 200)"/><path style="fill-rule:nonzero;fill:#6e1545;fill-opacity:1;stroke-width:6.96;stroke-linecap:round;stroke-linejoin:round;stroke:#000;stroke-opacity:1;stroke-miterlimit:10" d="m721.602 83.633 300.546 27.851-453.28 319.727M568.867 431.21l-285.234-43.983L721.602 83.633" transform="matrix(.1 0 0 -.1 0 200)"/><path style="fill-rule:nonzero;fill:#c6bfd3;fill-opacity:1;stroke-width:6.96;stroke-linecap:round;stroke-linejoin:round;stroke:#000;stroke-opacity:1;stroke-miterlimit:10" d="m1339.14 1918.71-488.828 8.048 211.993-445.625M1062.305 1481.133l496.914 5.586-220.078 431.992" transform="matrix(.1 0 0 -.1 0 200)"/><path style="fill-rule:nonzero;fill:#6061bc;fill-opacity:1;stroke-width:6.96;stroke-linecap:round;stroke-linejoin:round;stroke:#000;stroke-opacity:1;stroke-miterlimit:10" d="m463.984 1582.383-277.578-98.711L74.18 931.132" transform="matrix(.1 0 0 -.1 0 200)"/><path style="fill-rule:nonzero;fill:#2176e3;fill-opacity:1;stroke-width:6.96;stroke-linecap:round;stroke-linejoin:round;stroke:#000;stroke-opacity:1;stroke-miterlimit:10" d="m186.406 1483.672 277.578 98.71 386.329 344.376" transform="matrix(.1 0 0 -.1 0 200)"/><path style="fill-rule:nonzero;fill:#dea498;fill-opacity:1;stroke-width:6.96;stroke-linecap:round;stroke-linejoin:round;stroke:#000;stroke-opacity:1;stroke-miterlimit:10" d="M1762.578 937.227 1404.805 566.64l108.28-407.774" transform="matrix(.1 0 0 -.1 0 200)"/><path style="stroke:none;fill-rule:nonzero;fill:#ca8f95;fill-opacity:1" d="m140.48 143.336-38.265 45.516 49.094-4.739"/><path style="fill:none;stroke-width:6.96;stroke-linecap:round;stroke-linejoin:round;stroke:#000;stroke-opacity:1;stroke-miterlimit:10" d="m1404.805 566.64-382.657-455.156 490.938 47.383Zm0 0" transform="matrix(.1 0 0 -.1 0 200)"/><path style="fill-rule:nonzero;fill:#6f468f;fill-opacity:1;stroke-width:6.96;stroke-linecap:round;stroke-linejoin:round;stroke:#000;stroke-opacity:1;stroke-miterlimit:10" d="m283.633 387.227 285.234 43.984-218.71 571.875" transform="matrix(.1 0 0 -.1 0 200)"/><path style="fill-rule:nonzero;fill:#6f468f;fill-opacity:1;stroke-width:6.96;stroke-linecap:round;stroke-linejoin:round;stroke:#000;stroke-opacity:1;stroke-miterlimit:10" d="M350.156 1003.086 74.18 931.133l209.453-543.906" transform="matrix(.1 0 0 -.1 0 200)"/><path style="fill-rule:nonzero;fill:#6061bc;fill-opacity:1;stroke-width:6.96;stroke-linecap:round;stroke-linejoin:round;stroke:#000;stroke-opacity:1;stroke-miterlimit:10" d="m74.18 931.133 275.976 71.953 113.828 579.297" transform="matrix(.1 0 0 -.1 0 200)"/><path style="fill-rule:nonzero;fill:#cbaab8;fill-opacity:1;stroke-width:6.96;stroke-linecap:round;stroke-linejoin:round;stroke:#000;stroke-opacity:1;stroke-miterlimit:10" d="m957.227 899.219 447.578-332.578 357.773 370.586" transform="matrix(.1 0 0 -.1 0 200)"/><path style="stroke:none;fill-rule:nonzero;fill:#cbaab8;fill-opacity:1" d="m106.23 51.887-10.507 58.191 80.535-3.8"/><path style="fill:none;stroke-width:6.96;stroke-linecap:round;stroke-linejoin:round;stroke:#000;stroke-opacity:1;stroke-miterlimit:10" d="M1062.305 1481.133 957.227 899.219" transform="matrix(.1 0 0 -.1 0 200)"/><path style="fill-rule:nonzero;fill:#cbaab8;fill-opacity:1;stroke-width:6.96;stroke-linecap:round;stroke-linejoin:round;stroke:#000;stroke-opacity:1;stroke-miterlimit:10" d="m1762.578 937.227-203.36 549.492-496.913-5.586" transform="matrix(.1 0 0 -.1 0 200)"/><path style="stroke:none;fill-rule:nonzero;fill:#b6aacd;fill-opacity:1" d="M106.23 51.887 85.031 7.324 46.398 41.762"/><path style="fill:none;stroke-width:6.96;stroke-linecap:round;stroke-linejoin:round;stroke:#000;stroke-opacity:1;stroke-miterlimit:10" d="m1062.305 1481.133-211.993 445.625-386.328-344.375Zm0 0" transform="matrix(.1 0 0 -.1 0 200)"/><path style="fill-rule:nonzero;fill:#bd8fa6;fill-opacity:1;stroke-width:6.96;stroke-linecap:round;stroke-linejoin:round;stroke:#000;stroke-opacity:1;stroke-miterlimit:10" d="m568.867 431.21 453.281-319.726 382.657 455.157" transform="matrix(.1 0 0 -.1 0 200)"/><path style="fill-rule:nonzero;fill:#bd8fa6;fill-opacity:1;stroke-width:6.96;stroke-linecap:round;stroke-linejoin:round;stroke:#000;stroke-opacity:1;stroke-miterlimit:10" d="M1404.805 566.64 957.227 899.22 568.867 431.21" transform="matrix(.1 0 0 -.1 0 200)"/><path style="fill-rule:nonzero;fill:#b49bbe;fill-opacity:1;stroke-width:6.96;stroke-linecap:round;stroke-linejoin:round;stroke:#000;stroke-opacity:1;stroke-miterlimit:10" d="m463.984 1582.383-113.828-579.297 607.07-103.867M957.227 899.219l105.078 581.914-598.32 101.25" transform="matrix(.1 0 0 -.1 0 200)"/><path style="stroke:none;fill-rule:nonzero;fill:#b28eb0;fill-opacity:1" d="M95.723 110.078 35.016 99.691l21.87 57.188"/><path style="fill:none;stroke-width:6.96;stroke-linecap:round;stroke-linejoin:round;stroke:#000;stroke-opacity:1;stroke-miterlimit:10" d="m957.227 899.219-607.07 103.867 218.71-571.875Zm0 0" transform="matrix(.1 0 0 -.1 0 200)"/></svg>