<svg version="1.1" id="Слой_1" xmlns="http://www.w3.org/2000/svg" xmlns:xlink="http://www.w3.org/1999/xlink" x="0" y="0" viewBox="0 0 92.9 142.1" style="enable-background:new 0 0 92.9 142.1" xml:space="preserve"><style>.st3,.st5,.st8{fill:none;stroke:#231f20;stroke-width:.3047;stroke-linecap:round;stroke-linejoin:round;stroke-miterlimit:10}.st5,.st8{fill:#bf8da6}.st8{fill:#f3bc6d}</style><g id="surface1"><defs><path id="SVGID_1_" d="M4 104.4h87v37.3H4z"/></defs><clipPath id="SVGID_2_"><use xlink:href="#SVGID_1_" style="overflow:visible"/></clipPath><g style="clip-path:url(#SVGID_2_)"><path d="m63.2 141.7-59.1-30 86.7-7-27.6 37" style="fill:#a6c6eb"/></g><defs><path id="SVGID_3_" d="M3 104.4h88v37.3H3z"/></defs><clipPath id="SVGID_4_"><use xlink:href="#SVGID_3_" style="overflow:visible"/></clipPath><path class="st3" d="m63.2 141.7-59.1-30 86.7-7-27.6 37z" style="clip-path:url(#SVGID_4_)"/><defs><path id="SVGID_5_" d="M0 51.9h91v59.9H0z"/></defs><clipPath id="SVGID_6_"><use xlink:href="#SVGID_5_" style="overflow:visible"/></clipPath><path class="st5" d="m90.8 104.6-86.7 7-4-59.3" style="clip-path:url(#SVGID_6_)"/><defs><path id="SVGID_7_" d="M0 46h92.8v59.2H0z"/></defs><clipPath id="SVGID_8_"><use xlink:href="#SVGID_7_" style="overflow:visible"/></clipPath><path class="st5" d="m.2 52.4 92.5-6-1.9 58.2" style="clip-path:url(#SVGID_8_)"/><defs><path id="SVGID_9_" d="M63 46h29.8v95.8H63z"/></defs><clipPath id="SVGID_10_"><use xlink:href="#SVGID_9_" style="overflow:visible"/></clipPath><path class="st8" d="m63.2 141.7 27.6-37.1 1.9-58.2" style="clip-path:url(#SVGID_10_)"/><defs><path id="SVGID_11_" d="M4 77.8h60v64H4z"/></defs><clipPath id="SVGID_12_"><use xlink:href="#SVGID_11_" style="overflow:visible"/></clipPath><g style="clip-path:url(#SVGID_12_)"><path d="m4.1 111.7 59.1 30V78.2" style="fill:#6d529f"/></g><defs><path id="SVGID_13_" d="M3 77.8h61v64H3z"/></defs><clipPath id="SVGID_14_"><use xlink:href="#SVGID_13_" style="overflow:visible"/></clipPath><path class="st3" d="m4.1 111.7 59.1 30V78.2" style="clip-path:url(#SVGID_14_)"/><defs><path id="SVGID_15_" d="M0 51.9h64v59.9H0z"/></defs><clipPath id="SVGID_16_"><use xlink:href="#SVGID_15_" style="overflow:visible"/></clipPath><g style="clip-path:url(#SVGID_16_)"><path d="M63.3 78.1.2 52.4l4 59.3" style="fill:#6d529f;stroke:#231f20;stroke-width:.3047;stroke-linecap:round;stroke-linejoin:round;stroke-miterlimit:10"/></g><defs><path id="SVGID_17_" d="M63 46h29.8v95.8H63z"/></defs><clipPath id="SVGID_18_"><use xlink:href="#SVGID_17_" style="overflow:visible"/></clipPath><path class="st8" d="M92.7 46.4 63.3 78.1v63.5" style="clip-path:url(#SVGID_18_)"/><defs><path id="SVGID_19_" d="M0 2.3h92.8v50.3H0z"/></defs><clipPath id="SVGID_20_"><use xlink:href="#SVGID_19_" style="overflow:visible"/></clipPath><g style="clip-path:url(#SVGID_20_)"><path d="m.2 52.4 92.5-6-41.3-44-51.2 50" style="fill:#bb778a"/><path class="st3" d="m.2 52.4 92.5-6-41.3-44-51.2 50z"/></g><defs><path id="SVGID_21_" d="M51 2.3h41.8v76.2H51z"/></defs><clipPath id="SVGID_22_"><use xlink:href="#SVGID_21_" style="overflow:visible"/></clipPath><g style="clip-path:url(#SVGID_22_)"><path d="M92.7 46.4 63.3 78.1 51.4 2.4l41.3 44" style="fill:#f2d8ab"/><path class="st3" d="M92.7 46.4 63.3 78.1 51.4 2.4l41.3 44z"/></g><defs><path id="SVGID_23_" d="M0 2.3h64v76.2H0z"/></defs><clipPath id="SVGID_24_"><use xlink:href="#SVGID_23_" style="overflow:visible"/></clipPath><g style="clip-path:url(#SVGID_24_)"><path d="M63.3 78.1.2 52.4l51.2-50 11.9 75.7" style="fill:#7d71bd"/><path class="st3" d="M63.3 78.1.2 52.4l51.2-50 11.9 75.7z"/></g></g></svg>