<?xml version="1.0" encoding="utf-8"?>
<!-- Generator: Adobe Illustrator 23.1.0, SVG Export Plug-In . SVG Version: 6.00 Build 0)  -->
<svg version="1.1" id="Слой_1" xmlns="http://www.w3.org/2000/svg" xmlns:xlink="http://www.w3.org/1999/xlink" x="0px" y="0px"
	 viewBox="0 0 92.9 142.1" style="enable-background:new 0 0 92.9 142.1;" xml:space="preserve">
<style type="text/css">
	.st0{clip-path:url(#SVGID_2_);}
	.st1{fill:#A6C6EB;}
	.st2{clip-path:url(#SVGID_4_);}
	.st3{fill:none;stroke:#231F20;stroke-width:0.3047;stroke-linecap:round;stroke-linejoin:round;stroke-miterlimit:10;}
	.st4{clip-path:url(#SVGID_6_);}
	.st5{fill:#BF8DA6;stroke:#231F20;stroke-width:0.3047;stroke-linecap:round;stroke-linejoin:round;stroke-miterlimit:10;}
	.st6{clip-path:url(#SVGID_8_);}
	.st7{clip-path:url(#SVGID_10_);}
	.st8{fill:#F3BC6D;stroke:#231F20;stroke-width:0.3047;stroke-linecap:round;stroke-linejoin:round;stroke-miterlimit:10;}
	.st9{clip-path:url(#SVGID_12_);}
	.st10{fill:#6D529F;}
	.st11{clip-path:url(#SVGID_14_);}
	.st12{clip-path:url(#SVGID_16_);}
	.st13{fill:#6D529F;stroke:#231F20;stroke-width:0.3047;stroke-linecap:round;stroke-linejoin:round;stroke-miterlimit:10;}
	.st14{clip-path:url(#SVGID_18_);}
	.st15{clip-path:url(#SVGID_20_);}
	.st16{fill:#BB778A;}
	.st17{clip-path:url(#SVGID_22_);}
	.st18{fill:#F2D8AB;}
	.st19{clip-path:url(#SVGID_24_);}
	.st20{fill:#7D71BD;}
</style>
<g id="surface1">
	<g>
		<defs>
			<rect id="SVGID_1_" x="4" y="104.4" width="87" height="37.3"/>
		</defs>
		<clipPath id="SVGID_2_">
			<use xlink:href="#SVGID_1_"  style="overflow:visible;"/>
		</clipPath>
		<g class="st0">
			<path class="st1" d="M63.2,141.7l-59.1-30l86.7-7L63.2,141.7"/>
		</g>
	</g>
	<g>
		<defs>
			<rect id="SVGID_3_" x="3" y="104.4" width="88" height="37.3"/>
		</defs>
		<clipPath id="SVGID_4_">
			<use xlink:href="#SVGID_3_"  style="overflow:visible;"/>
		</clipPath>
		<g class="st2">
			<path class="st3" d="M63.2,141.7l-59.1-30l86.7-7L63.2,141.7z"/>
		</g>
	</g>
	<g>
		<defs>
			<rect id="SVGID_5_" x="0" y="51.9" width="91" height="59.9"/>
		</defs>
		<clipPath id="SVGID_6_">
			<use xlink:href="#SVGID_5_"  style="overflow:visible;"/>
		</clipPath>
		<g class="st4">
			<path class="st5" d="M90.8,104.6l-86.7,7l-4-59.3"/>
		</g>
	</g>
	<g>
		<defs>
			<rect id="SVGID_7_" x="0" y="46" width="92.8" height="59.2"/>
		</defs>
		<clipPath id="SVGID_8_">
			<use xlink:href="#SVGID_7_"  style="overflow:visible;"/>
		</clipPath>
		<g class="st6">
			<path class="st5" d="M0.2,52.4l92.5-6l-1.9,58.2"/>
		</g>
	</g>
	<g>
		<defs>
			<rect id="SVGID_9_" x="63" y="46" width="29.8" height="95.8"/>
		</defs>
		<clipPath id="SVGID_10_">
			<use xlink:href="#SVGID_9_"  style="overflow:visible;"/>
		</clipPath>
		<g class="st7">
			<path class="st8" d="M63.2,141.7l27.6-37.1l1.9-58.2"/>
		</g>
	</g>
	<g>
		<defs>
			<rect id="SVGID_11_" x="4" y="77.8" width="60" height="64"/>
		</defs>
		<clipPath id="SVGID_12_">
			<use xlink:href="#SVGID_11_"  style="overflow:visible;"/>
		</clipPath>
		<g class="st9">
			<path class="st10" d="M4.1,111.7l59.1,30l0-63.5"/>
		</g>
	</g>
	<g>
		<defs>
			<rect id="SVGID_13_" x="3" y="77.8" width="61" height="64"/>
		</defs>
		<clipPath id="SVGID_14_">
			<use xlink:href="#SVGID_13_"  style="overflow:visible;"/>
		</clipPath>
		<g class="st11">
			<path class="st3" d="M4.1,111.7l59.1,30l0-63.5"/>
		</g>
	</g>
	<g>
		<defs>
			<rect id="SVGID_15_" x="0" y="51.9" width="64" height="59.9"/>
		</defs>
		<clipPath id="SVGID_16_">
			<use xlink:href="#SVGID_15_"  style="overflow:visible;"/>
		</clipPath>
		<g class="st12">
			<path class="st13" d="M63.3,78.1L0.2,52.4l4,59.3"/>
		</g>
	</g>
	<g>
		<defs>
			<rect id="SVGID_17_" x="63" y="46" width="29.8" height="95.8"/>
		</defs>
		<clipPath id="SVGID_18_">
			<use xlink:href="#SVGID_17_"  style="overflow:visible;"/>
		</clipPath>
		<g class="st14">
			<path class="st8" d="M92.7,46.4L63.3,78.1l0,63.5"/>
		</g>
	</g>
	<g>
		<defs>
			<rect id="SVGID_19_" x="0" y="2.3" width="92.8" height="50.3"/>
		</defs>
		<clipPath id="SVGID_20_">
			<use xlink:href="#SVGID_19_"  style="overflow:visible;"/>
		</clipPath>
		<g class="st15">
			<path class="st16" d="M0.2,52.4l92.5-6l-41.3-44L0.2,52.4"/>
			<path class="st3" d="M0.2,52.4l92.5-6l-41.3-44L0.2,52.4z"/>
		</g>
	</g>
	<g>
		<defs>
			<rect id="SVGID_21_" x="51" y="2.3" width="41.8" height="76.2"/>
		</defs>
		<clipPath id="SVGID_22_">
			<use xlink:href="#SVGID_21_"  style="overflow:visible;"/>
		</clipPath>
		<g class="st17">
			<path class="st18" d="M92.7,46.4L63.3,78.1L51.4,2.4L92.7,46.4"/>
			<path class="st3" d="M92.7,46.4L63.3,78.1L51.4,2.4L92.7,46.4z"/>
		</g>
	</g>
	<g>
		<defs>
			<rect id="SVGID_23_" x="0" y="2.3" width="64" height="76.2"/>
		</defs>
		<clipPath id="SVGID_24_">
			<use xlink:href="#SVGID_23_"  style="overflow:visible;"/>
		</clipPath>
		<g class="st19">
			<path class="st20" d="M63.3,78.1L0.2,52.4l51.2-50L63.3,78.1"/>
			<path class="st3" d="M63.3,78.1L0.2,52.4l51.2-50L63.3,78.1z"/>
		</g>
	</g>
</g>
</svg>
