<svg xmlns="http://www.w3.org/2000/svg" width="271pt" height="200pt" viewBox="0 0 271 200" version="1.2"><path style="fill-rule:nonzero;fill:#bb93ad;fill-opacity:1;stroke-width:9;stroke-linecap:round;stroke-linejoin:round;stroke:#000;stroke-opacity:1;stroke-miterlimit:10" d="m1533.398 1444.96 11.524-692.929-691.836-33.828" transform="matrix(.1 0 0 -.1 0 200)"/><path style="fill-rule:nonzero;fill:#9e7cac;fill-opacity:1;stroke-width:9;stroke-linecap:round;stroke-linejoin:round;stroke:#000;stroke-opacity:1;stroke-miterlimit:10" d="m2187.54 1420.39 5.155-712.148-647.773 43.79" transform="matrix(.1 0 0 -.1 0 200)"/><path style="fill-rule:nonzero;fill:#9e7cac;fill-opacity:1;stroke-width:9;stroke-linecap:round;stroke-linejoin:round;stroke:#000;stroke-opacity:1;stroke-miterlimit:10" d="m1544.922 752.031-11.524 692.93 654.141-24.57" transform="matrix(.1 0 0 -.1 0 200)"/><path style="fill-rule:nonzero;fill:#9da7dd;fill-opacity:1;stroke-width:9;stroke-linecap:round;stroke-linejoin:round;stroke:#000;stroke-opacity:1;stroke-miterlimit:10" d="m1544.922 752.031 647.773-43.789-237.383-494.648" transform="matrix(.1 0 0 -.1 0 200)"/><path style="fill-rule:nonzero;fill:#9da7dd;fill-opacity:1;stroke-width:9;stroke-linecap:round;stroke-linejoin:round;stroke:#000;stroke-opacity:1;stroke-miterlimit:10" d="m1955.313 213.594-668.633 59.765 258.242 478.672" transform="matrix(.1 0 0 -.1 0 200)"/><path style="stroke:none;fill-rule:nonzero;fill:#b5b3d6;fill-opacity:1" d="m128.668 172.664-43.36-44.484 69.184-3.383"/><path style="fill:none;stroke-width:9;stroke-linecap:round;stroke-linejoin:round;stroke:#000;stroke-opacity:1;stroke-miterlimit:10" d="M1286.68 273.36 853.086 718.202l691.836 33.828Zm0 0" transform="matrix(.1 0 0 -.1 0 200)"/><path style="fill-rule:nonzero;fill:#bb93ad;fill-opacity:1;stroke-width:9;stroke-linecap:round;stroke-linejoin:round;stroke:#000;stroke-opacity:1;stroke-miterlimit:10" d="m853.086 718.203-18.516 699.492 698.828 27.266" transform="matrix(.1 0 0 -.1 0 200)"/><path style="fill-rule:nonzero;fill:#d8acaa;fill-opacity:1;stroke-width:9;stroke-linecap:round;stroke-linejoin:round;stroke:#000;stroke-opacity:1;stroke-miterlimit:10" d="m834.57 1417.695 18.516-699.492L316.64 614.414" transform="matrix(.1 0 0 -.1 0 200)"/><path style="fill-rule:nonzero;fill:#c3cee3;fill-opacity:1;stroke-width:9;stroke-linecap:round;stroke-linejoin:round;stroke:#000;stroke-opacity:1;stroke-miterlimit:10" d="m316.64 614.414 536.446 103.79 433.594-444.845" transform="matrix(.1 0 0 -.1 0 200)"/><path style="fill-rule:nonzero;fill:#a9484f;fill-opacity:1;stroke-width:9;stroke-linecap:round;stroke-linejoin:round;stroke:#000;stroke-opacity:1;stroke-miterlimit:10" d="m1533.398 1444.96-698.828-27.265 69.22 321.602M903.79 1739.297l740.116 25.547-110.508-319.883" transform="matrix(.1 0 0 -.1 0 200)"/><path style="stroke:none;fill-rule:nonzero;fill:#8e395b;fill-opacity:1" d="m164.39 23.516 54.364 34.445-65.414-2.457"/><path style="fill:none;stroke-width:9;stroke-linecap:round;stroke-linejoin:round;stroke:#000;stroke-opacity:1;stroke-miterlimit:10" d="m1643.906 1764.844 543.633-344.453-654.14 24.57Zm0 0" transform="matrix(.1 0 0 -.1 0 200)"/><path style="fill-rule:nonzero;fill:#d8acaa;fill-opacity:1;stroke-width:9;stroke-linecap:round;stroke-linejoin:round;stroke:#000;stroke-opacity:1;stroke-miterlimit:10" d="m316.64 614.414-25.038 730.625 542.968 72.656" transform="matrix(.1 0 0 -.1 0 200)"/><path style="stroke:none;fill-rule:nonzero;fill:#c65c43;fill-opacity:1" d="m90.379 26.07-6.922 32.16-54.297 7.266"/><path style="fill:none;stroke-width:9;stroke-linecap:round;stroke-linejoin:round;stroke:#000;stroke-opacity:1;stroke-miterlimit:10" d="m903.79 1739.297-69.22-321.602-542.968-72.656Zm0 0" transform="matrix(.1 0 0 -.1 0 200)"/><path style="fill-rule:nonzero;fill:#654da0;fill-opacity:1;stroke-width:9;stroke-linecap:round;stroke-linejoin:round;stroke:#000;stroke-opacity:1;stroke-miterlimit:10" d="m2593.672 1347.422 1.133-753.203-402.11 114.023" transform="matrix(.1 0 0 -.1 0 200)"/><path style="fill-rule:nonzero;fill:#654da0;fill-opacity:1;stroke-width:9;stroke-linecap:round;stroke-linejoin:round;stroke:#000;stroke-opacity:1;stroke-miterlimit:10" d="m2192.695 708.242-5.156 712.149 406.133-72.97" transform="matrix(.1 0 0 -.1 0 200)"/><path style="stroke:none;fill-rule:nonzero;fill:#7591e0;fill-opacity:1" d="m195.531 178.64 23.739-49.464 40.21 11.402"/><path style="fill:none;stroke-width:9;stroke-linecap:round;stroke-linejoin:round;stroke:#000;stroke-opacity:1;stroke-miterlimit:10" d="m1955.313 213.594 237.382 494.648 402.11-114.023Zm0 0" transform="matrix(.1 0 0 -.1 0 200)"/><path style="fill-rule:nonzero;fill:#2a0000;fill-opacity:1;stroke-width:9;stroke-linecap:round;stroke-linejoin:round;stroke:#000;stroke-opacity:1;stroke-miterlimit:10" d="m2593.672 1347.422-406.133 72.969-543.633 344.453" transform="matrix(.1 0 0 -.1 0 200)"/><path style="fill-rule:nonzero;fill:#c3cee3;fill-opacity:1;stroke-width:9;stroke-linecap:round;stroke-linejoin:round;stroke:#000;stroke-opacity:1;stroke-miterlimit:10" d="M1286.68 273.36 752.305 145.155 316.64 614.414" transform="matrix(.1 0 0 -.1 0 200)"/><path style="fill-rule:nonzero;fill:#78ceff;fill-opacity:1;stroke-width:9;stroke-linecap:round;stroke-linejoin:round;stroke:#000;stroke-opacity:1;stroke-miterlimit:10" d="m1286.68 273.36 668.632-59.766-73.71-178.242" transform="matrix(.1 0 0 -.1 0 200)"/><path style="stroke:none;fill-rule:nonzero;fill:#78ceff;fill-opacity:1" d="m75.23 185.484 53.438-12.82 59.492 23.8"/><path style="fill:none;stroke-width:9;stroke-linecap:round;stroke-linejoin:round;stroke:#000;stroke-opacity:1;stroke-miterlimit:10" d="M752.305 145.156 1286.68 273.36" transform="matrix(.1 0 0 -.1 0 200)"/><path style="fill-rule:nonzero;fill:#ffd07f;fill-opacity:1;stroke-width:9;stroke-linecap:round;stroke-linejoin:round;stroke:#000;stroke-opacity:1;stroke-miterlimit:10" d="m291.602 1345.04 25.039-730.626-183.282-148.047" transform="matrix(.1 0 0 -.1 0 200)"/><path style="stroke:none;fill-rule:nonzero;fill:#d0f4e7;fill-opacity:1" d="m75.23 185.484-61.894-32.12 18.328-14.805"/><path style="fill:none;stroke-width:9;stroke-linecap:round;stroke-linejoin:round;stroke:#000;stroke-opacity:1;stroke-miterlimit:10" d="M752.305 145.156 133.359 466.367l183.282 148.047Zm0 0" transform="matrix(.1 0 0 -.1 0 200)"/><path style="fill-rule:nonzero;fill:#ffd07f;fill-opacity:1;stroke-width:9;stroke-linecap:round;stroke-linejoin:round;stroke:#000;stroke-opacity:1;stroke-miterlimit:10" d="m133.36 466.367-28.79 778.867 187.032 99.805" transform="matrix(.1 0 0 -.1 0 200)"/><path style="fill-rule:nonzero;fill:#700000;fill-opacity:1;stroke-width:9;stroke-linecap:round;stroke-linejoin:round;stroke:#000;stroke-opacity:1;stroke-miterlimit:10" d="m291.602 1345.04-187.032-99.806 651.836 420.118" transform="matrix(.1 0 0 -.1 0 200)"/><path style="fill-rule:nonzero;fill:#700000;fill-opacity:1;stroke-width:9;stroke-linecap:round;stroke-linejoin:round;stroke:#000;stroke-opacity:1;stroke-miterlimit:10" d="m756.406 1665.352 147.383 73.945-612.187-394.258" transform="matrix(.1 0 0 -.1 0 200)"/><path style="fill-rule:nonzero;fill:#2a0000;fill-opacity:1;stroke-width:9;stroke-linecap:round;stroke-linejoin:round;stroke:#000;stroke-opacity:1;stroke-miterlimit:10" d="m1643.906 1764.844 386.133-54.219 563.633-363.203" transform="matrix(.1 0 0 -.1 0 200)"/><path style="fill-rule:nonzero;fill:#3bbae7;fill-opacity:1;stroke-width:9;stroke-linecap:round;stroke-linejoin:round;stroke:#000;stroke-opacity:1;stroke-miterlimit:10" d="m1643.906 1764.844-740.117-25.547-147.383-73.945" transform="matrix(.1 0 0 -.1 0 200)"/><path style="stroke:none;fill-rule:nonzero;fill:#3bbae7;fill-opacity:1" d="m203.004 28.938-38.613-5.422-88.75 9.949"/><path style="fill:none;stroke-width:9;stroke-linecap:round;stroke-linejoin:round;stroke:#000;stroke-opacity:1;stroke-miterlimit:10" d="m2030.04 1710.625-386.134 54.219" transform="matrix(.1 0 0 -.1 0 200)"/><path style="fill-rule:nonzero;fill:#0771de;fill-opacity:1;stroke-width:9;stroke-linecap:round;stroke-linejoin:round;stroke:#000;stroke-opacity:1;stroke-miterlimit:10" d="m1881.602 35.352 73.71 178.242 639.493 380.625" transform="matrix(.1 0 0 -.1 0 200)"/><path style="fill-rule:nonzero;fill:#0771de;fill-opacity:1;stroke-width:9;stroke-linecap:round;stroke-linejoin:round;stroke:#000;stroke-opacity:1;stroke-miterlimit:10" d="m2594.805 594.219-30.157-154.414-683.046-404.453" transform="matrix(.1 0 0 -.1 0 200)"/><path style="fill-rule:nonzero;fill:#cda71a;fill-opacity:1;stroke-width:9;stroke-linecap:round;stroke-linejoin:round;stroke:#000;stroke-opacity:1;stroke-miterlimit:10" d="m2563.047 1244.453 1.601-804.648 30.157 154.414" transform="matrix(.1 0 0 -.1 0 200)"/><path style="fill-rule:nonzero;fill:#cda71a;fill-opacity:1;stroke-width:9;stroke-linecap:round;stroke-linejoin:round;stroke:#000;stroke-opacity:1;stroke-miterlimit:10" d="m2594.805 594.219-1.133 753.203-30.625-102.969" transform="matrix(.1 0 0 -.1 0 200)"/><path style="fill-rule:nonzero;fill:#000;fill-opacity:1;stroke-width:9;stroke-linecap:round;stroke-linejoin:round;stroke:#000;stroke-opacity:1;stroke-miterlimit:10" d="M443.438 324.96 133.358 466.368l618.946-321.21" transform="matrix(.1 0 0 -.1 0 200)"/><path style="fill-rule:nonzero;fill:#78ceff;fill-opacity:1;stroke-width:9;stroke-linecap:round;stroke-linejoin:round;stroke:#000;stroke-opacity:1;stroke-miterlimit:10" d="m1881.602 35.352-790.899-46.993-338.398 156.797" transform="matrix(.1 0 0 -.1 0 200)"/><path style="fill-rule:nonzero;fill:#000;fill-opacity:1;stroke-width:9;stroke-linecap:round;stroke-linejoin:round;stroke:#000;stroke-opacity:1;stroke-miterlimit:10" d="M752.305 145.156 1090.703-11.64 443.438 324.961" transform="matrix(.1 0 0 -.1 0 200)"/><path style="stroke:none;fill-rule:nonzero;fill:#b1fad2;fill-opacity:1" d="m203.004 28.938 53.3 46.617 3.063-10.297"/><path style="fill:none;stroke-width:9;stroke-linecap:round;stroke-linejoin:round;stroke:#000;stroke-opacity:1;stroke-miterlimit:10" d="m2030.04 1710.625 533.007-466.172 30.625 102.969Zm0 0" transform="matrix(.1 0 0 -.1 0 200)"/><path style="fill-rule:nonzero;fill:#37258e;fill-opacity:1;stroke-width:9;stroke-linecap:round;stroke-linejoin:round;stroke:#000;stroke-opacity:1;stroke-miterlimit:10" d="m104.57 1245.234 28.79-778.867 310.077-141.406" transform="matrix(.1 0 0 -.1 0 200)"/><path style="fill-rule:nonzero;fill:#c2ddec;fill-opacity:1;stroke-width:9;stroke-linecap:round;stroke-linejoin:round;stroke:#000;stroke-opacity:1;stroke-miterlimit:10" d="m2023.867 1150.664 539.18 93.79-533.008 466.171" transform="matrix(.1 0 0 -.1 0 200)"/><path style="fill-rule:nonzero;fill:#c2ddec;fill-opacity:1;stroke-width:9;stroke-linecap:round;stroke-linejoin:round;stroke:#000;stroke-opacity:1;stroke-miterlimit:10" d="m2030.04 1710.625-546.524-66.328 540.351-493.633" transform="matrix(.1 0 0 -.1 0 200)"/><path style="fill-rule:nonzero;fill:#3bbae7;fill-opacity:1;stroke-width:9;stroke-linecap:round;stroke-linejoin:round;stroke:#000;stroke-opacity:1;stroke-miterlimit:10" d="m756.406 1665.352 727.11-21.055 546.523 66.328" transform="matrix(.1 0 0 -.1 0 200)"/><path style="fill-rule:nonzero;fill:#37258e;fill-opacity:1;stroke-width:9;stroke-linecap:round;stroke-linejoin:round;stroke:#000;stroke-opacity:1;stroke-miterlimit:10" d="m443.438 324.96-27.032 828.243-311.836 92.031" transform="matrix(.1 0 0 -.1 0 200)"/><path style="stroke:none;fill-rule:nonzero;fill:#5187e6;fill-opacity:1" d="M75.64 33.465 10.458 75.477l31.184 9.203"/><path style="fill:none;stroke-width:9;stroke-linecap:round;stroke-linejoin:round;stroke:#000;stroke-opacity:1;stroke-miterlimit:10" d="M756.406 1665.352 104.57 1245.234l311.836-92.03Zm0 0" transform="matrix(.1 0 0 -.1 0 200)"/><path style="stroke:none;fill-rule:nonzero;fill:#b42e00;fill-opacity:1" d="m188.16 196.465 68.305-40.445-53.262 13.515"/><path style="fill:none;stroke-width:9;stroke-linecap:round;stroke-linejoin:round;stroke:#000;stroke-opacity:1;stroke-miterlimit:10" d="m1881.602 35.352 683.046 404.453-532.617-135.157Zm0 0" transform="matrix(.1 0 0 -.1 0 200)"/><path style="fill-rule:nonzero;fill:#99201b;fill-opacity:1;stroke-width:9;stroke-linecap:round;stroke-linejoin:round;stroke:#000;stroke-opacity:1;stroke-miterlimit:10" d="m1090.703-11.64 790.899 46.992 150.43 269.296" transform="matrix(.1 0 0 -.1 0 200)"/><path style="fill-rule:nonzero;fill:#93abe6;fill-opacity:1;stroke-width:9;stroke-linecap:round;stroke-linejoin:round;stroke:#000;stroke-opacity:1;stroke-miterlimit:10" d="m1483.516 1644.297-727.11 21.055-340-512.149" transform="matrix(.1 0 0 -.1 0 200)"/><path style="stroke:none;fill-rule:nonzero;fill:#740b2c;fill-opacity:1" d="m109.07 201.164 9.727-26.93-74.453-6.73"/><path style="fill:none;stroke-width:9;stroke-linecap:round;stroke-linejoin:round;stroke:#000;stroke-opacity:1;stroke-miterlimit:10" d="m1090.703-11.64 97.266 269.296-744.532 67.305Zm0 0" transform="matrix(.1 0 0 -.1 0 200)"/><path style="fill-rule:nonzero;fill:#99201b;fill-opacity:1;stroke-width:9;stroke-linecap:round;stroke-linejoin:round;stroke:#000;stroke-opacity:1;stroke-miterlimit:10" d="m2032.031 304.648-844.062-46.992-97.266-269.297" transform="matrix(.1 0 0 -.1 0 200)"/><path style="fill-rule:nonzero;fill:#e1b2a5;fill-opacity:1;stroke-width:9;stroke-linecap:round;stroke-linejoin:round;stroke:#000;stroke-opacity:1;stroke-miterlimit:10" d="m2023.867 1150.664 8.164-846.016 532.617 135.157M2564.648 439.805l-1.601 804.648-539.18-93.789" transform="matrix(.1 0 0 -.1 0 200)"/><path style="stroke:none;fill-rule:nonzero;fill:#b3bade;fill-opacity:1" d="m148.352 35.57-31.434 53.082 85.469-3.718"/><path style="fill:none;stroke-width:9;stroke-linecap:round;stroke-linejoin:round;stroke:#000;stroke-opacity:1;stroke-miterlimit:10" d="m1483.516 1644.297-314.336-530.82 854.687 37.187Zm0 0" transform="matrix(.1 0 0 -.1 0 200)"/><path style="fill-rule:nonzero;fill:#93abe6;fill-opacity:1;stroke-width:9;stroke-linecap:round;stroke-linejoin:round;stroke:#000;stroke-opacity:1;stroke-miterlimit:10" d="m416.406 1153.203 752.774-39.726 314.336 530.82" transform="matrix(.1 0 0 -.1 0 200)"/><path style="fill-rule:nonzero;fill:#9875a9;fill-opacity:1;stroke-width:9;stroke-linecap:round;stroke-linejoin:round;stroke:#000;stroke-opacity:1;stroke-miterlimit:10" d="m416.406 1153.203 27.031-828.242 744.532-67.305M1187.969 257.656l-18.79 855.82-752.773 39.727" transform="matrix(.1 0 0 -.1 0 200)"/><path style="fill-rule:nonzero;fill:#bc93ac;fill-opacity:1;stroke-width:9;stroke-linecap:round;stroke-linejoin:round;stroke:#000;stroke-opacity:1;stroke-miterlimit:10" d="m1169.18 1113.477 18.789-855.82 844.062 46.991" transform="matrix(.1 0 0 -.1 0 200)"/><path style="fill-rule:nonzero;fill:#bc93ac;fill-opacity:1;stroke-width:9;stroke-linecap:round;stroke-linejoin:round;stroke:#000;stroke-opacity:1;stroke-miterlimit:10" d="m2032.031 304.648-8.164 846.016-854.687-37.187" transform="matrix(.1 0 0 -.1 0 200)"/></svg>