<svg version="1.1" id="Слой_1" xmlns="http://www.w3.org/2000/svg" x="0" y="0" viewBox="0 0 171 237" style="enable-background:new 0 0 171 237" xml:space="preserve"><style>.st0,.st1,.st14,.st3,.st7,.st9{fill:#d1abb2;stroke:#000;stroke-width:.4345;stroke-linecap:round;stroke-linejoin:round;stroke-miterlimit:1}.st1,.st14,.st3,.st7,.st9{fill:#8c73b1}.st14,.st3,.st7,.st9{fill:none}.st14,.st7,.st9{fill:#00005b}.st14,.st9{fill:#ffd078}.st14{fill:#b292b5}</style><g id="surface1"><path class="st0" d="m9.1 169 80.3-3.2V75"/><path class="st0" d="M89.4 75 9.2 71l-.1 98"/><path class="st1" d="M165.9 70.6 89.4 75v90.8"/><path d="M89.4 75 9.2 71l77-65.5" style="fill:#c26b68"/><path class="st3" d="M89.4 75 9.2 71l77-65.5L89.4 75z"/><path d="M165.9 70.6 89.4 75 86.2 5.5" style="fill:#863964"/><path class="st3" d="M165.9 70.6 89.4 75 86.2 5.5l79.7 65.1z"/><path class="st1" d="m89.4 165.9 76.6 3.5-.1-98.8"/><path d="M89.4 165.9 9.1 169l77.1 65.1" style="fill:#c2d3e7"/><path class="st3" d="M89.4 165.9 9.1 169l77.1 65.1 3.2-68.2z"/><path d="m166 169.4-76.6-3.5-3.2 68.3" style="fill:#85a3e8"/><path class="st3" d="m166 169.4-76.6-3.5-3.2 68.3 79.8-64.8z"/><path class="st7" d="M27 175.9 9.1 169l.1-98"/><path class="st7" d="m9.2 71 17.9-8.7-.1 113.6"/><path d="m9.2 71 17.9-8.7L86.2 5.5" style="fill:#0036ab"/><path class="st3" d="m9.2 71 17.9-8.7L86.2 5.5 9.2 71z"/><path d="m9.1 169 17.9 6.8 59.2 58.3"/><path class="st3" d="m9.1 169 17.9 6.8 59.2 58.3L9.1 169z"/><path class="st9" d="m139.1 61.9 26.8 8.6.1 98.8"/><path d="m139.1 61.9 26.8 8.6-79.7-65" style="fill:#9bf1c3"/><path class="st3" d="m139.1 61.9 26.8 8.6-79.7-65 52.9 56.4z"/><path class="st9" d="m166 169.4-26.8 6.8V62"/><path d="m139.1 176.1 26.8-6.8-79.8 64.8" style="fill:#a11300"/><path class="st3" d="m139.1 176.1 26.8-6.8-79.8 64.8 53-58z"/><path d="m27.1 62.2 112-.3L86.2 5.5" style="fill:#a0c3f1"/><path class="st3" d="m27.1 62.2 112-.3L86.2 5.5 27.1 62.2z"/><path d="m27 175.9 112.2.3-53 58.1" style="fill:#a14557"/><path class="st3" d="m27 175.9 112.2.3-53 58.1L27 175.9z"/><path class="st14" d="M139.1 176.1 27 175.9l.1-113.6"/><path class="st14" d="m27.1 62.2 112-.3v114.2"/></g></svg>