<svg xmlns="http://www.w3.org/2000/svg" width="312" height="200pt" viewBox="0 0 234 200" version="1.2"><path style="fill-rule:nonzero;fill:#ad7fa2;fill-opacity:1;stroke-width:8.6;stroke-linecap:round;stroke-linejoin:round;stroke:#000;stroke-opacity:1;stroke-miterlimit:10" d="m1427.422 1869.492 291.328-530.078-546.29-232.773" transform="matrix(.1 0 0 -.1 0 200)"/><path style="fill-rule:nonzero;fill:#ad7fa2;fill-opacity:1;stroke-width:8.6;stroke-linecap:round;stroke-linejoin:round;stroke:#000;stroke-opacity:1;stroke-miterlimit:10" d="m1172.46 1106.64-295.546 517.422 550.508 245.43" transform="matrix(.1 0 0 -.1 0 200)"/><path style="fill-rule:nonzero;fill:#c39bae;fill-opacity:1;stroke-width:8.6;stroke-linecap:round;stroke-linejoin:round;stroke:#000;stroke-opacity:1;stroke-miterlimit:10" d="m876.914 1624.063 295.547-517.422-496.29-345.938" transform="matrix(.1 0 0 -.1 0 200)"/><path style="stroke:none;fill-rule:nonzero;fill:#ada1cc;fill-opacity:1" d="M124.781 140.184 67.617 123.93l49.63-34.594"/><path style="fill:none;stroke-width:8.6;stroke-linecap:round;stroke-linejoin:round;stroke:#000;stroke-opacity:1;stroke-miterlimit:10" d="m1247.813 598.164-571.641 162.54 496.289 345.937Zm0 0" transform="matrix(.1 0 0 -.1 0 200)"/><path style="fill-rule:nonzero;fill:#9a90c8;fill-opacity:1;stroke-width:8.6;stroke-linecap:round;stroke-linejoin:round;stroke:#000;stroke-opacity:1;stroke-miterlimit:10" d="m1172.46 1106.64 546.29 232.774 93.32-510" transform="matrix(.1 0 0 -.1 0 200)"/><path style="fill-rule:nonzero;fill:#9a90c8;fill-opacity:1;stroke-width:8.6;stroke-linecap:round;stroke-linejoin:round;stroke:#000;stroke-opacity:1;stroke-miterlimit:10" d="m1812.07 829.414-564.257-231.25-75.352 508.477" transform="matrix(.1 0 0 -.1 0 200)"/><path style="fill-rule:nonzero;fill:#c39bae;fill-opacity:1;stroke-width:8.6;stroke-linecap:round;stroke-linejoin:round;stroke:#000;stroke-opacity:1;stroke-miterlimit:10" d="m676.172 760.703-307.93 518.516 508.672 344.843" transform="matrix(.1 0 0 -.1 0 200)"/><path style="fill-rule:nonzero;fill:#dbbcba;fill-opacity:1;stroke-width:8.6;stroke-linecap:round;stroke-linejoin:round;stroke:#000;stroke-opacity:1;stroke-miterlimit:10" d="m368.242 1279.219 307.93-518.516-288.086-354.219" transform="matrix(.1 0 0 -.1 0 200)"/><path style="fill-rule:nonzero;fill:#afb6dd;fill-opacity:1;stroke-width:8.6;stroke-linecap:round;stroke-linejoin:round;stroke:#000;stroke-opacity:1;stroke-miterlimit:10" d="m388.086 406.484 288.086 354.22 571.64-162.54" transform="matrix(.1 0 0 -.1 0 200)"/><path style="fill-rule:nonzero;fill:#855089;fill-opacity:1;stroke-width:8.6;stroke-linecap:round;stroke-linejoin:round;stroke:#000;stroke-opacity:1;stroke-miterlimit:10" d="m1847.266 1933.008 296.132-553.164-424.648-40.43" transform="matrix(.1 0 0 -.1 0 200)"/><path style="fill-rule:nonzero;fill:#855089;fill-opacity:1;stroke-width:8.6;stroke-linecap:round;stroke-linejoin:round;stroke:#000;stroke-opacity:1;stroke-miterlimit:10" d="m1718.75 1339.414-291.328 530.078 419.844 63.516" transform="matrix(.1 0 0 -.1 0 200)"/><path style="stroke:none;fill-rule:nonzero;fill:#8178c0;fill-opacity:1" d="m181.207 117.059-9.332-51 42.465-4.043"/><path style="fill:none;stroke-width:8.6;stroke-linecap:round;stroke-linejoin:round;stroke:#000;stroke-opacity:1;stroke-miterlimit:10" d="m1812.07 829.414-93.32 510 424.648 40.43Zm0 0" transform="matrix(.1 0 0 -.1 0 200)"/><path style="stroke:none;fill-rule:nonzero;fill:#d6775a;fill-opacity:1" d="m61.418 30.602 26.273 6.992-50.867 34.484"/><path style="fill:none;stroke-width:8.6;stroke-linecap:round;stroke-linejoin:round;stroke:#000;stroke-opacity:1;stroke-miterlimit:10" d="m614.18 1693.984 262.734-69.921-508.672-344.844Zm0 0" transform="matrix(.1 0 0 -.1 0 200)"/><path style="fill-rule:nonzero;fill:#b13920;fill-opacity:1;stroke-width:8.6;stroke-linecap:round;stroke-linejoin:round;stroke:#000;stroke-opacity:1;stroke-miterlimit:10" d="m1427.422 1869.492-550.508-245.43-262.734 69.922" transform="matrix(.1 0 0 -.1 0 200)"/><path style="fill-rule:nonzero;fill:#afb6dd;fill-opacity:1;stroke-width:8.6;stroke-linecap:round;stroke-linejoin:round;stroke:#000;stroke-opacity:1;stroke-miterlimit:10" d="M1247.813 598.164 977.538 231.406 388.086 406.484" transform="matrix(.1 0 0 -.1 0 200)"/><path style="fill-rule:nonzero;fill:#739be9;fill-opacity:1;stroke-width:8.6;stroke-linecap:round;stroke-linejoin:round;stroke:#000;stroke-opacity:1;stroke-miterlimit:10" d="m1393.516 225.508-415.977 5.898 270.274 366.758" transform="matrix(.1 0 0 -.1 0 200)"/><path style="stroke:none;fill-rule:nonzero;fill:#739be9;fill-opacity:1" d="m193.02 138.559-53.668 38.89-14.57-37.265"/><path style="fill:none;stroke-width:8.6;stroke-linecap:round;stroke-linejoin:round;stroke:#000;stroke-opacity:1;stroke-miterlimit:10" d="m1930.195 614.414-536.68-388.906" transform="matrix(.1 0 0 -.1 0 200)"/><path style="fill-rule:nonzero;fill:#739be9;fill-opacity:1;stroke-width:8.6;stroke-linecap:round;stroke-linejoin:round;stroke:#000;stroke-opacity:1;stroke-miterlimit:10" d="m1247.813 598.164 564.257 231.25 118.125-215" transform="matrix(.1 0 0 -.1 0 200)"/><path style="fill-rule:nonzero;fill:#dbbcba;fill-opacity:1;stroke-width:8.6;stroke-linecap:round;stroke-linejoin:round;stroke:#000;stroke-opacity:1;stroke-miterlimit:10" d="M388.086 406.484 62.852 939.531l305.39 339.688" transform="matrix(.1 0 0 -.1 0 200)"/><path style="fill-rule:nonzero;fill:#d25e00;fill-opacity:1;stroke-width:8.6;stroke-linecap:round;stroke-linejoin:round;stroke:#000;stroke-opacity:1;stroke-miterlimit:10" d="M368.242 1279.219 62.852 939.53l244.726 419.297" transform="matrix(.1 0 0 -.1 0 200)"/><path style="fill-rule:nonzero;fill:#d25e00;fill-opacity:1;stroke-width:8.6;stroke-linecap:round;stroke-linejoin:round;stroke:#000;stroke-opacity:1;stroke-miterlimit:10" d="m307.578 1358.828 306.602 335.156-245.938-414.765" transform="matrix(.1 0 0 -.1 0 200)"/><path style="stroke:none;fill-rule:nonzero;fill:#5f0000;fill-opacity:1" d="m118.777 4.703 65.95 1.996-41.985 6.352"/><path style="fill:none;stroke-width:8.6;stroke-linecap:round;stroke-linejoin:round;stroke:#000;stroke-opacity:1;stroke-miterlimit:10" d="m1187.773 1952.969 659.493-19.961-419.844-63.516Zm0 0" transform="matrix(.1 0 0 -.1 0 200)"/><path style="fill-rule:nonzero;fill:#b13920;fill-opacity:1;stroke-width:8.6;stroke-linecap:round;stroke-linejoin:round;stroke:#000;stroke-opacity:1;stroke-miterlimit:10" d="m614.18 1693.984 573.593 258.985 239.649-83.477" transform="matrix(.1 0 0 -.1 0 200)"/><path style="fill-rule:nonzero;fill:#3e58c4;fill-opacity:1;stroke-width:8.6;stroke-linecap:round;stroke-linejoin:round;stroke:#000;stroke-opacity:1;stroke-miterlimit:10" d="m1930.195 614.414-118.125 215 331.328 550.43" transform="matrix(.1 0 0 -.1 0 200)"/><path style="fill-rule:nonzero;fill:#e2f7a5;fill-opacity:1;stroke-width:8.6;stroke-linecap:round;stroke-linejoin:round;stroke:#000;stroke-opacity:1;stroke-miterlimit:10" d="m62.852 939.531 325.234-533.047 44.219-238.242" transform="matrix(.1 0 0 -.1 0 200)"/><path style="stroke:none;fill-rule:nonzero;fill:#aad6f6;fill-opacity:1" d="m97.754 176.86-54.524 6.316-4.421-23.824"/><path style="fill:none;stroke-width:8.6;stroke-linecap:round;stroke-linejoin:round;stroke:#000;stroke-opacity:1;stroke-miterlimit:10" d="m977.54 231.406-545.235-63.164-44.22 238.242Zm0 0" transform="matrix(.1 0 0 -.1 0 200)"/><path style="fill-rule:nonzero;fill:#000;fill-opacity:1;stroke-width:8.6;stroke-linecap:round;stroke-linejoin:round;stroke:#000;stroke-opacity:1;stroke-miterlimit:10" d="m1970.82 1770.703 309.414-579.297-136.836 188.438" transform="matrix(.1 0 0 -.1 0 200)"/><path style="fill-rule:nonzero;fill:#000;fill-opacity:1;stroke-width:8.6;stroke-linecap:round;stroke-linejoin:round;stroke:#000;stroke-opacity:1;stroke-miterlimit:10" d="m2143.398 1379.844-296.132 553.164 123.554-162.305" transform="matrix(.1 0 0 -.1 0 200)"/><path style="fill-rule:nonzero;fill:#3e58c4;fill-opacity:1;stroke-width:8.6;stroke-linecap:round;stroke-linejoin:round;stroke:#000;stroke-opacity:1;stroke-miterlimit:10" d="m2143.398 1379.844 136.836-188.438-350.039-576.992" transform="matrix(.1 0 0 -.1 0 200)"/><path style="fill-rule:nonzero;fill:#5796ef;fill-opacity:1;stroke-width:8.6;stroke-linecap:round;stroke-linejoin:round;stroke:#000;stroke-opacity:1;stroke-miterlimit:10" d="M1187.773 1952.969 614.18 1693.984l-306.602-335.156" transform="matrix(.1 0 0 -.1 0 200)"/><path style="fill-rule:nonzero;fill:#27addf;fill-opacity:1;stroke-width:8.6;stroke-linecap:round;stroke-linejoin:round;stroke:#000;stroke-opacity:1;stroke-miterlimit:10" d="m838.516 159.297-406.211 8.945 545.234 63.164M977.54 231.406l415.976-5.898-555-66.211" transform="matrix(.1 0 0 -.1 0 200)"/><path style="fill-rule:nonzero;fill:#e2f7a5;fill-opacity:1;stroke-width:8.6;stroke-linecap:round;stroke-linejoin:round;stroke:#000;stroke-opacity:1;stroke-miterlimit:10" d="M432.305 168.242 90.547 725.273 62.852 939.531" transform="matrix(.1 0 0 -.1 0 200)"/><path style="stroke:none;fill-rule:nonzero;fill:#0016a1;fill-opacity:1" d="m30.758 64.117-24.473 41.93 2.77 21.426"/><path style="fill:none;stroke-width:8.6;stroke-linecap:round;stroke-linejoin:round;stroke:#000;stroke-opacity:1;stroke-miterlimit:10" d="M307.578 1358.828 62.852 939.531l27.695-214.258Zm0 0" transform="matrix(.1 0 0 -.1 0 200)"/><path style="fill-rule:nonzero;fill:#8cd6ff;fill-opacity:1;stroke-width:8.6;stroke-linecap:round;stroke-linejoin:round;stroke:#000;stroke-opacity:1;stroke-miterlimit:10" d="m1970.82 1770.703-123.554 162.305-659.493 19.96" transform="matrix(.1 0 0 -.1 0 200)"/><path style="fill-rule:nonzero;fill:#8cd6ff;fill-opacity:1;stroke-width:8.6;stroke-linecap:round;stroke-linejoin:round;stroke:#000;stroke-opacity:1;stroke-miterlimit:10" d="m1187.773 1952.969 88.946-162.578 694.101-19.688" transform="matrix(.1 0 0 -.1 0 200)"/><path style="fill-rule:nonzero;fill:#5796ef;fill-opacity:1;stroke-width:8.6;stroke-linecap:round;stroke-linejoin:round;stroke:#000;stroke-opacity:1;stroke-miterlimit:10" d="m709.297 1404.063 567.422 386.328-88.946 162.578" transform="matrix(.1 0 0 -.1 0 200)"/><path style="stroke:none;fill-rule:nonzero;fill:#5796ef;fill-opacity:1" d="m30.758 64.117 40.172-4.523 47.847-54.89"/><path style="fill:none;stroke-width:8.6;stroke-linecap:round;stroke-linejoin:round;stroke:#000;stroke-opacity:1;stroke-miterlimit:10" d="m307.578 1358.828 401.719 45.235" transform="matrix(.1 0 0 -.1 0 200)"/><path style="fill-rule:nonzero;fill:#c03c00;fill-opacity:1;stroke-width:8.6;stroke-linecap:round;stroke-linejoin:round;stroke:#000;stroke-opacity:1;stroke-miterlimit:10" d="m1393.516 225.508 536.68 388.906 101.327 204.531" transform="matrix(.1 0 0 -.1 0 200)"/><path style="stroke:none;fill-rule:nonzero;fill:#b14400;fill-opacity:1" d="m193.02 138.559 35.003-57.7-24.87 37.246"/><path style="fill:none;stroke-width:8.6;stroke-linecap:round;stroke-linejoin:round;stroke:#000;stroke-opacity:1;stroke-miterlimit:10" d="m1930.195 614.414 350.04 576.992-248.712-372.46Zm0 0" transform="matrix(.1 0 0 -.1 0 200)"/><path style="fill-rule:nonzero;fill:#723777;fill-opacity:1;stroke-width:8.6;stroke-linecap:round;stroke-linejoin:round;stroke:#000;stroke-opacity:1;stroke-miterlimit:10" d="m90.547 725.273 341.758-557.03 406.21-8.946" transform="matrix(.1 0 0 -.1 0 200)"/><path style="fill-rule:nonzero;fill:#7175c7;fill-opacity:1;stroke-width:8.6;stroke-linecap:round;stroke-linejoin:round;stroke:#000;stroke-opacity:1;stroke-miterlimit:10" d="m709.297 1404.063-401.719-45.235L90.547 725.273" transform="matrix(.1 0 0 -.1 0 200)"/><path style="fill-rule:nonzero;fill:#e4c7ba;fill-opacity:1;stroke-width:8.6;stroke-linecap:round;stroke-linejoin:round;stroke:#000;stroke-opacity:1;stroke-miterlimit:10" d="m1703.633 1416.563 327.89-597.618 248.711 372.461" transform="matrix(.1 0 0 -.1 0 200)"/><path style="fill-rule:nonzero;fill:#e4c7ba;fill-opacity:1;stroke-width:8.6;stroke-linecap:round;stroke-linejoin:round;stroke:#000;stroke-opacity:1;stroke-miterlimit:10" d="m2280.234 1191.406-309.414 579.297-267.187-354.14" transform="matrix(.1 0 0 -.1 0 200)"/><path style="stroke:none;fill-rule:nonzero;fill:#a62507;fill-opacity:1" d="m139.352 177.45 7.296-18.598-62.796 25.218"/><path style="fill:none;stroke-width:8.6;stroke-linecap:round;stroke-linejoin:round;stroke:#000;stroke-opacity:1;stroke-miterlimit:10" d="m1393.516 225.508 72.968 185.976-627.968-252.187Zm0 0" transform="matrix(.1 0 0 -.1 0 200)"/><path style="fill-rule:nonzero;fill:#c03c00;fill-opacity:1;stroke-width:8.6;stroke-linecap:round;stroke-linejoin:round;stroke:#000;stroke-opacity:1;stroke-miterlimit:10" d="m2031.523 818.945-565.039-407.46-72.968-185.977" transform="matrix(.1 0 0 -.1 0 200)"/><path style="fill-rule:nonzero;fill:#723777;fill-opacity:1;stroke-width:8.6;stroke-linecap:round;stroke-linejoin:round;stroke:#000;stroke-opacity:1;stroke-miterlimit:10" d="M838.516 159.297 488.789 741.914l-398.242-16.64" transform="matrix(.1 0 0 -.1 0 200)"/><path style="fill-rule:nonzero;fill:#7175c7;fill-opacity:1;stroke-width:8.6;stroke-linecap:round;stroke-linejoin:round;stroke:#000;stroke-opacity:1;stroke-miterlimit:10" d="m90.547 725.273 398.242 16.641 220.508 662.149" transform="matrix(.1 0 0 -.1 0 200)"/><path style="stroke:none;fill-rule:nonzero;fill:#b3bee2;fill-opacity:1" d="m127.672 20.96 42.691 37.384 26.719-35.414"/><path style="fill:none;stroke-width:8.6;stroke-linecap:round;stroke-linejoin:round;stroke:#000;stroke-opacity:1;stroke-miterlimit:10" d="m1276.719 1790.39 426.914-373.828 267.187 354.141Zm0 0" transform="matrix(.1 0 0 -.1 0 200)"/><path style="fill-rule:nonzero;fill:#a6a4d4;fill-opacity:1;stroke-width:8.6;stroke-linecap:round;stroke-linejoin:round;stroke:#000;stroke-opacity:1;stroke-miterlimit:10" d="m1122.305 1010.43 581.328 406.133-426.914 373.828" transform="matrix(.1 0 0 -.1 0 200)"/><path style="fill-rule:nonzero;fill:#a6a4d4;fill-opacity:1;stroke-width:8.6;stroke-linecap:round;stroke-linejoin:round;stroke:#000;stroke-opacity:1;stroke-miterlimit:10" d="m1276.719 1790.39-567.422-386.328 413.008-393.632" transform="matrix(.1 0 0 -.1 0 200)"/><path style="fill-rule:nonzero;fill:#ac7b9e;fill-opacity:1;stroke-width:8.6;stroke-linecap:round;stroke-linejoin:round;stroke:#000;stroke-opacity:1;stroke-miterlimit:10" d="m488.79 741.914 349.726-582.617 627.968 252.187" transform="matrix(.1 0 0 -.1 0 200)"/><path style="stroke:none;fill-rule:nonzero;fill:#998dc6;fill-opacity:1" d="m70.93 59.594-22.051 66.215 63.351-26.852"/><path style="fill:none;stroke-width:8.6;stroke-linecap:round;stroke-linejoin:round;stroke:#000;stroke-opacity:1;stroke-miterlimit:10" d="M709.297 1404.063 488.789 741.913l633.516 268.516Zm0 0" transform="matrix(.1 0 0 -.1 0 200)"/><path style="fill-rule:nonzero;fill:#c69cad;fill-opacity:1;stroke-width:8.6;stroke-linecap:round;stroke-linejoin:round;stroke:#000;stroke-opacity:1;stroke-miterlimit:10" d="m1122.305 1010.43 344.18-598.946 565.038 407.461" transform="matrix(.1 0 0 -.1 0 200)"/><path style="fill-rule:nonzero;fill:#c69cad;fill-opacity:1;stroke-width:8.6;stroke-linecap:round;stroke-linejoin:round;stroke:#000;stroke-opacity:1;stroke-miterlimit:10" d="m2031.523 818.945-327.89 597.617-581.328-406.132" transform="matrix(.1 0 0 -.1 0 200)"/><path style="fill-rule:nonzero;fill:#ac7b9e;fill-opacity:1;stroke-width:8.6;stroke-linecap:round;stroke-linejoin:round;stroke:#000;stroke-opacity:1;stroke-miterlimit:10" d="m1466.484 411.484-344.18 598.946L488.79 741.914" transform="matrix(.1 0 0 -.1 0 200)"/></svg>