<svg xmlns="http://www.w3.org/2000/svg" width="191.627" height="211.293" viewBox="0 0 143.72 158.47" version="1.2"><defs><clipPath id="a"><path d="M.102 27H52v32H.102Zm0 0"/></clipPath><clipPath id="b"><path d="M.102 27H51v44H.102Zm0 0"/></clipPath><clipPath id="c"><path d="M.102 27H2v44H.102Zm0 0"/></clipPath><clipPath id="d"><path d="M.102 58H51v72H.102Zm0 0"/></clipPath><clipPath id="e"><path d="M.102 69H29v62H.102Zm0 0"/></clipPath><clipPath id="f"><path d="M28 58h34v99.941H28Zm0 0"/></clipPath><clipPath id="g"><path d="M27 129h35v28.941H27Zm0 0"/></clipPath><clipPath id="h"><path d="M50 58h27v99.941H50Zm0 0"/></clipPath><clipPath id="i"><path d="M61 141h17v16.941H61Zm0 0"/></clipPath><clipPath id="j"><path d="M114 71h29.34v52H114Zm0 0"/></clipPath><clipPath id="k"><path d="M114 20h29.34v63H114Zm0 0"/></clipPath><clipPath id="l"><path d="M.102 3H69v26H.102Zm0 0"/></clipPath><clipPath id="m"><path d="M61 136h55v21.941H61Zm0 0"/></clipPath><clipPath id="n"><path d="M61 135h55v22.941H61Zm0 0"/></clipPath><clipPath id="o"><path d="M.102 0H69v29H.102Zm0 0"/></clipPath><clipPath id="p"><path d="M115 71h28.34v66H115Zm0 0"/></clipPath><clipPath id="q"><path d="M114 71h29.34v66H114Zm0 0"/></clipPath><clipPath id="r"><path d="M109 20h34.34v52H109Zm0 0"/></clipPath><clipPath id="s"><path d="M108 19h35.34v53H108Zm0 0"/></clipPath><clipPath id="t"><path d="M115 71h28.34v66H115Zm0 0"/></clipPath><clipPath id="u"><path d="M114 71h29.34v66H114Zm0 0"/></clipPath><clipPath id="v"><path d="M109 20h34.34v59H109Zm0 0"/></clipPath><clipPath id="w"><path d="M108 19h35.34v60H108Zm0 0"/></clipPath><clipPath id="x"><path d="M.102 0H52v71H.102Zm0 0"/></clipPath><clipPath id="y"><path d="M61 104h55v53.941H61Zm0 0"/></clipPath><clipPath id="z"><path d="M28 104h58v53.941H28Zm0 0"/></clipPath><clipPath id="A"><path d="M27 104h60v53.941H27Zm0 0"/></clipPath><clipPath id="B"><path d="M.102 0H57v71H.102Zm0 0"/></clipPath><clipPath id="C"><path d="M.102 41H57v89H.102Zm0 0"/></clipPath><clipPath id="D"><path d="M.102 41H57v90H.102Zm0 0"/></clipPath></defs><path style="fill-rule:nonzero;fill:#b36270;fill-opacity:1;stroke-width:5;stroke-linecap:round;stroke-linejoin:round;stroke:#000;stroke-opacity:1;stroke-miterlimit:10" d="m933.557 1211.62-423.403-210.153-273.608 306.06" transform="matrix(.09967 0 0 -.09967 .1 157.942)"/><path style="fill-rule:nonzero;fill:#a17dac;fill-opacity:1;stroke-width:5;stroke-linecap:round;stroke-linejoin:round;stroke:#000;stroke-opacity:1;stroke-miterlimit:10" d="m510.154 1001.467 423.403 210.153 212.27-451.779" transform="matrix(.09967 0 0 -.09967 .1 157.942)"/><path style="fill-rule:nonzero;fill:#a17dac;fill-opacity:1;stroke-width:5;stroke-linecap:round;stroke-linejoin:round;stroke:#000;stroke-opacity:1;stroke-miterlimit:10" d="M1145.827 759.841 713.958 565.874l-203.804 435.593" transform="matrix(.09967 0 0 -.09967 .1 157.942)"/><path style="stroke:none;fill-rule:nonzero;fill:#f3f3b6;fill-opacity:1" d="m1.008 27.824 22.668-.199 27.27 30.504"/><g clip-path="url(#a)"><path style="fill:none;stroke-width:5;stroke-linecap:round;stroke-linejoin:round;stroke:#000;stroke-opacity:1;stroke-miterlimit:10" d="m9.108 1305.527 227.438 2 273.608-306.06" transform="matrix(.09967 0 0 -.09967 .1 157.942)"/></g><g clip-path="url(#b)"><path style="stroke:none;fill-rule:nonzero;fill:#f3f3b6;fill-opacity:1" d="m.348 70.066.66-42.242L50.945 58.13"/></g><g clip-path="url(#c)"><path style="fill:none;stroke-width:5;stroke-linecap:round;stroke-linejoin:round;stroke:#000;stroke-opacity:1;stroke-miterlimit:10" d="m2.485 881.693 6.623 423.834" transform="matrix(.09967 0 0 -.09967 .1 157.942)"/></g><g clip-path="url(#d)"><path style="stroke:none;fill-rule:nonzero;fill:#f3f3b6;fill-opacity:1" d="M28.164 129.773.348 70.066 50.945 58.13"/></g><g clip-path="url(#e)"><path style="fill:none;stroke-width:5;stroke-linecap:round;stroke-linejoin:round;stroke:#000;stroke-opacity:1;stroke-miterlimit:10" d="M281.58 282.625 2.484 881.693" transform="matrix(.09967 0 0 -.09967 .1 157.942)"/></g><g clip-path="url(#f)"><path style="stroke:none;fill-rule:nonzero;fill:#f3f3b6;fill-opacity:1" d="m61.605 157.691-33.44-27.918 22.78-71.644"/></g><g clip-path="url(#g)"><path style="fill:none;stroke-width:5;stroke-linecap:round;stroke-linejoin:round;stroke:#000;stroke-opacity:1;stroke-miterlimit:10" d="M617.112 2.512 281.579 282.625" transform="matrix(.09967 0 0 -.09967 .1 157.942)"/></g><g clip-path="url(#h)"><path style="stroke:none;fill-rule:nonzero;fill:#f3f3b6;fill-opacity:1" d="m76.922 141.543-15.317 16.148-10.66-99.562"/></g><g clip-path="url(#i)"><path style="fill:none;stroke-width:5;stroke-linecap:round;stroke-linejoin:round;stroke:#000;stroke-opacity:1;stroke-miterlimit:10" d="M770.788 164.536 617.112 2.512" transform="matrix(.09967 0 0 -.09967 .1 157.942)"/></g><path style="fill-rule:nonzero;fill:#f3f3b6;fill-opacity:1;stroke-width:5;stroke-linecap:round;stroke-linejoin:round;stroke:#000;stroke-opacity:1;stroke-miterlimit:10" d="m510.154 1001.467 203.804-435.593 56.83-401.338" transform="matrix(.09967 0 0 -.09967 .1 157.942)"/><path style="fill-rule:nonzero;fill:#818ed7;fill-opacity:1;stroke-width:5;stroke-linecap:round;stroke-linejoin:round;stroke:#000;stroke-opacity:1;stroke-miterlimit:10" d="m713.958 565.874 431.87 193.967 98.766-400.201" transform="matrix(.09967 0 0 -.09967 .1 157.942)"/><path style="fill-rule:nonzero;fill:#818ed7;fill-opacity:1;stroke-width:5;stroke-linecap:round;stroke-linejoin:round;stroke:#000;stroke-opacity:1;stroke-miterlimit:10" d="M1244.594 359.64 770.788 164.536l-56.83 401.338" transform="matrix(.09967 0 0 -.09967 .1 157.942)"/><path style="stroke:none;fill-rule:nonzero;fill:#690d3d;fill-opacity:1" d="M119.281 20.938 93.145 37.183 68.496 3.554l50.785 17.384"/><path style="fill:none;stroke-width:5;stroke-linecap:round;stroke-linejoin:round;stroke:#000;stroke-opacity:1;stroke-miterlimit:10" d="m1195.798 1374.625-262.24-163.005-247.31 337.414Zm0 0" transform="matrix(.09967 0 0 -.09967 .1 157.942)"/><path style="fill-rule:nonzero;fill:#4b1f77;fill-opacity:1;stroke-width:5;stroke-linecap:round;stroke-linejoin:round;stroke:#000;stroke-opacity:1;stroke-miterlimit:10" d="m1145.827 759.841-212.27 451.78 262.241 163.004" transform="matrix(.09967 0 0 -.09967 .1 157.942)"/><path style="fill-rule:nonzero;fill:#b36270;fill-opacity:1;stroke-width:5;stroke-linecap:round;stroke-linejoin:round;stroke:#000;stroke-opacity:1;stroke-miterlimit:10" d="m236.546 1307.526 449.702 241.508 247.31-337.414" transform="matrix(.09967 0 0 -.09967 .1 157.942)"/><g clip-path="url(#j)"><path style="stroke:none;fill-rule:nonzero;fill:#313cad;fill-opacity:1" d="m143.09 71.488-18.945 50.61L114.3 82.21l28.789-10.723"/><path style="fill:none;stroke-width:5;stroke-linecap:round;stroke-linejoin:round;stroke:#000;stroke-opacity:1;stroke-miterlimit:10" d="M1434.68 867.426 1244.595 359.64l-98.767 400.201Zm0 0" transform="matrix(.09967 0 0 -.09967 .1 157.942)"/></g><g clip-path="url(#k)"><path style="fill-rule:nonzero;fill:#4b1f77;fill-opacity:1;stroke-width:5;stroke-linecap:round;stroke-linejoin:round;stroke:#000;stroke-opacity:1;stroke-miterlimit:10" d="m1195.798 1374.625 238.883-507.199-288.854-107.585" transform="matrix(.09967 0 0 -.09967 .1 157.942)"/></g><path style="stroke:none;fill-rule:nonzero;fill:#900000;fill-opacity:1" d="m68.496 3.555-44.82 24.07-22.668.2"/><g clip-path="url(#l)"><path style="fill:none;stroke-width:5;stroke-linecap:round;stroke-linejoin:round;stroke:#000;stroke-opacity:1;stroke-miterlimit:10" d="m686.248 1549.034-449.702-241.508-227.438-1.999" transform="matrix(.09967 0 0 -.09967 .1 157.942)"/></g><path style="fill-rule:nonzero;fill:#0078da;fill-opacity:1;stroke-width:5;stroke-linecap:round;stroke-linejoin:round;stroke:#000;stroke-opacity:1;stroke-miterlimit:10" d="m770.788 164.536 473.806 195.104-91.438-141.174" transform="matrix(.09967 0 0 -.09967 .1 157.942)"/><g clip-path="url(#m)"><path style="stroke:none;fill-rule:nonzero;fill:#0078da;fill-opacity:1" d="m115.031 136.168-53.426 21.523 15.317-16.148"/></g><g clip-path="url(#n)"><path style="fill:none;stroke-width:5;stroke-linecap:round;stroke-linejoin:round;stroke:#000;stroke-opacity:1;stroke-miterlimit:10" d="M1153.156 218.466 617.112 2.512l153.676 162.024" transform="matrix(.09967 0 0 -.09967 .1 157.942)"/></g><path style="stroke:none;fill-rule:nonzero;fill:#900000;fill-opacity:1" d="M1.008 27.824 51.297.25l17.2 3.305"/><g clip-path="url(#o)"><path style="fill:none;stroke-width:5;stroke-linecap:round;stroke-linejoin:round;stroke:#000;stroke-opacity:1;stroke-miterlimit:10" d="m9.108 1305.527 504.573 276.665 172.567-33.158" transform="matrix(.09967 0 0 -.09967 .1 157.942)"/></g><path style="fill-rule:nonzero;fill:#4bc8bc;fill-opacity:1;stroke-width:5;stroke-linecap:round;stroke-linejoin:round;stroke:#000;stroke-opacity:1;stroke-miterlimit:10" d="m686.248 1549.034-172.567 33.158 580.372-199.572M1094.053 1382.62l101.745-7.995-509.55 174.41" transform="matrix(.09967 0 0 -.09967 .1 157.942)"/><g clip-path="url(#p)"><path style="stroke:none;fill-rule:nonzero;fill:#c16900;fill-opacity:1" d="m115.031 136.168 9.114-14.07 18.945-50.61"/></g><g clip-path="url(#q)"><path style="fill:none;stroke-width:5;stroke-linecap:round;stroke-linejoin:round;stroke:#000;stroke-opacity:1;stroke-miterlimit:10" d="m1153.156 218.466 91.438 141.174 190.087 507.786" transform="matrix(.09967 0 0 -.09967 .1 157.942)"/></g><g clip-path="url(#r)"><path style="stroke:none;fill-rule:nonzero;fill:#d7eb86;fill-opacity:1" d="m143.09 71.488-23.809-50.55-10.14-.797"/></g><g clip-path="url(#s)"><path style="fill:none;stroke-width:5;stroke-linecap:round;stroke-linejoin:round;stroke:#000;stroke-opacity:1;stroke-miterlimit:10" d="m1434.68 867.426-238.882 507.199-101.745 7.995" transform="matrix(.09967 0 0 -.09967 .1 157.942)"/></g><g clip-path="url(#t)"><path style="stroke:none;fill-rule:nonzero;fill:#c16900;fill-opacity:1" d="m143.09 71.488-6.547 6.867-21.512 57.813"/></g><g clip-path="url(#u)"><path style="fill:none;stroke-width:5;stroke-linecap:round;stroke-linejoin:round;stroke:#000;stroke-opacity:1;stroke-miterlimit:10" d="m1434.68 867.426-65.687-68.901-215.837-580.059" transform="matrix(.09967 0 0 -.09967 .1 157.942)"/></g><g clip-path="url(#v)"><path style="stroke:none;fill-rule:nonzero;fill:#d7eb86;fill-opacity:1" d="m109.14 20.14 27.403 58.215 6.547-6.867"/></g><g clip-path="url(#w)"><path style="fill:none;stroke-width:5;stroke-linecap:round;stroke-linejoin:round;stroke:#000;stroke-opacity:1;stroke-miterlimit:10" d="m1094.053 1382.62 274.94-584.095 65.688 68.901" transform="matrix(.09967 0 0 -.09967 .1 157.942)"/></g><g clip-path="url(#x)"><path style="fill-rule:nonzero;fill:#5c84e0;fill-opacity:1;stroke-width:5;stroke-linecap:round;stroke-linejoin:round;stroke:#000;stroke-opacity:1;stroke-miterlimit:10" d="M513.681 1582.192 9.108 1305.527 2.485 881.693" transform="matrix(.09967 0 0 -.09967 .1 157.942)"/></g><g clip-path="url(#y)"><path style="fill-rule:nonzero;fill:#a94144;fill-opacity:1;stroke-width:5;stroke-linecap:round;stroke-linejoin:round;stroke:#000;stroke-opacity:1;stroke-miterlimit:10" d="m617.112 2.512 536.044 215.954-292.263 319.581" transform="matrix(.09967 0 0 -.09967 .1 157.942)"/></g><g clip-path="url(#z)"><path style="stroke:none;fill-rule:nonzero;fill:#a94144;fill-opacity:1" d="m85.902 104.316-57.738 25.457 33.441 27.918"/></g><g clip-path="url(#A)"><path style="fill:none;stroke-width:5;stroke-linecap:round;stroke-linejoin:round;stroke:#000;stroke-opacity:1;stroke-miterlimit:10" d="M860.893 538.047 281.58 282.625 617.112 2.512" transform="matrix(.09967 0 0 -.09967 .1 157.942)"/></g><path style="stroke:none;fill-rule:nonzero;fill:#abcef2;fill-opacity:1" d="M109.14 20.14 51.298.25l5.187 41.254 52.657-21.363"/><path style="fill:none;stroke-width:5;stroke-linecap:round;stroke-linejoin:round;stroke:#000;stroke-opacity:1;stroke-miterlimit:10" d="m1094.053 1382.62-580.372 199.572 52.049-413.92Zm0 0" transform="matrix(.09967 0 0 -.09967 .1 157.942)"/><g clip-path="url(#B)"><path style="fill-rule:nonzero;fill:#5c84e0;fill-opacity:1;stroke-width:5;stroke-linecap:round;stroke-linejoin:round;stroke:#000;stroke-opacity:1;stroke-miterlimit:10" d="m2.485 881.693 563.245 286.58-52.049 413.919" transform="matrix(.09967 0 0 -.09967 .1 157.942)"/></g><path style="stroke:none;fill-rule:nonzero;fill:#e59978;fill-opacity:1" d="m136.543 78.355-50.64 25.961 29.128 31.852 21.512-57.813"/><path style="fill:none;stroke-width:5;stroke-linecap:round;stroke-linejoin:round;stroke:#000;stroke-opacity:1;stroke-miterlimit:10" d="m1368.993 798.525-508.1-260.478 292.263-319.58Zm0 0" transform="matrix(.09967 0 0 -.09967 .1 157.942)"/><path style="fill-rule:nonzero;fill:#d6bfc3;fill-opacity:1;stroke-width:5;stroke-linecap:round;stroke-linejoin:round;stroke:#000;stroke-opacity:1;stroke-miterlimit:10" d="m1368.993 798.525-274.94 584.095-528.323-214.347" transform="matrix(.09967 0 0 -.09967 .1 157.942)"/><path style="fill-rule:nonzero;fill:#d6bfc3;fill-opacity:1;stroke-width:5;stroke-linecap:round;stroke-linejoin:round;stroke:#000;stroke-opacity:1;stroke-miterlimit:10" d="m565.73 1168.273 295.163-630.226 508.1 260.478" transform="matrix(.09967 0 0 -.09967 .1 157.942)"/><g clip-path="url(#C)"><path style="stroke:none;fill-rule:nonzero;fill:#9873a7;fill-opacity:1" d="M56.484 41.504.348 70.066l27.816 59.707"/></g><g clip-path="url(#D)"><path style="fill:none;stroke-width:5;stroke-linecap:round;stroke-linejoin:round;stroke:#000;stroke-opacity:1;stroke-miterlimit:10" d="M565.73 1168.273 2.485 881.693l279.094-599.068" transform="matrix(.09967 0 0 -.09967 .1 157.942)"/></g><path style="fill-rule:nonzero;fill:#9873a7;fill-opacity:1;stroke-width:5;stroke-linecap:round;stroke-linejoin:round;stroke:#000;stroke-opacity:1;stroke-miterlimit:10" d="m281.58 282.625 579.313 255.422-295.163 630.226" transform="matrix(.09967 0 0 -.09967 .1 157.942)"/></svg>