<svg xmlns="http://www.w3.org/2000/svg" width="134pt" height="199pt" viewBox="0 0 134 199" version="1.2"><path style="fill-rule:nonzero;fill:#a078a6;fill-opacity:1;stroke-width:5.84;stroke-linecap:round;stroke-linejoin:round;stroke:#000;stroke-opacity:1;stroke-miterlimit:10" d="m1170.195 1383.32-34.687-595.625-563.399 99.336" transform="matrix(.1 0 0 -.1 0 199)"/><path style="fill-rule:nonzero;fill:#a078a6;fill-opacity:1;stroke-width:5.84;stroke-linecap:round;stroke-linejoin:round;stroke:#000;stroke-opacity:1;stroke-miterlimit:10" d="m572.11 887.031 19.062 580.274 579.023-83.985" transform="matrix(.1 0 0 -.1 0 199)"/><path style="fill-rule:nonzero;fill:#d19ea2;fill-opacity:1;stroke-width:5.84;stroke-linecap:round;stroke-linejoin:round;stroke:#000;stroke-opacity:1;stroke-miterlimit:10" d="M591.172 1467.305 572.109 887.03 63.83 780.625" transform="matrix(.1 0 0 -.1 0 199)"/><path style="stroke:none;fill-rule:nonzero;fill:#ceabb5;fill-opacity:1" d="M41.27 167.586 6.383 120.937l50.828-10.64"/><path style="fill:none;stroke-width:5.84;stroke-linecap:round;stroke-linejoin:round;stroke:#000;stroke-opacity:1;stroke-miterlimit:10" d="M412.695 314.14 63.828 780.626 572.11 887.031Zm0 0" transform="matrix(.1 0 0 -.1 0 199)"/><path style="fill-rule:nonzero;fill:#a593c2;fill-opacity:1;stroke-width:5.84;stroke-linecap:round;stroke-linejoin:round;stroke:#000;stroke-opacity:1;stroke-miterlimit:10" d="m572.11 887.031 563.398-99.336L982.773 195.04" transform="matrix(.1 0 0 -.1 0 199)"/><path style="fill-rule:nonzero;fill:#a593c2;fill-opacity:1;stroke-width:5.84;stroke-linecap:round;stroke-linejoin:round;stroke:#000;stroke-opacity:1;stroke-miterlimit:10" d="m982.773 195.04-570.078 119.1L572.11 887.032" transform="matrix(.1 0 0 -.1 0 199)"/><path style="fill-rule:nonzero;fill:#e3fcb9;fill-opacity:1;stroke-width:5.84;stroke-linecap:round;stroke-linejoin:round;stroke:#000;stroke-opacity:1;stroke-miterlimit:10" d="m90.781 546.445-26.953 234.18 348.867-466.484" transform="matrix(.1 0 0 -.1 0 199)"/><path style="fill-rule:nonzero;fill:#e3fcb9;fill-opacity:1;stroke-width:5.84;stroke-linecap:round;stroke-linejoin:round;stroke:#000;stroke-opacity:1;stroke-miterlimit:10" d="m412.695 314.14 55.04-266.054L90.78 546.446" transform="matrix(.1 0 0 -.1 0 199)"/><path style="stroke:none;fill-rule:nonzero;fill:#a1cbf5;fill-opacity:1" d="m41.27 167.586 57.007 11.91-51.504 14.695"/><path style="fill:none;stroke-width:5.84;stroke-linecap:round;stroke-linejoin:round;stroke:#000;stroke-opacity:1;stroke-miterlimit:10" d="m412.695 314.14 570.078-119.1L467.734 48.085Zm0 0" transform="matrix(.1 0 0 -.1 0 199)"/><path style="fill-rule:nonzero;fill:#d19ea2;fill-opacity:1;stroke-width:5.84;stroke-linecap:round;stroke-linejoin:round;stroke:#000;stroke-opacity:1;stroke-miterlimit:10" d="m63.828 780.625 6.25 605.86 521.094 80.82" transform="matrix(.1 0 0 -.1 0 199)"/><path style="fill-rule:nonzero;fill:#cb7368;fill-opacity:1;stroke-width:5.84;stroke-linecap:round;stroke-linejoin:round;stroke:#000;stroke-opacity:1;stroke-miterlimit:10" d="m591.172 1467.305-521.094-80.82 217.734 447.85" transform="matrix(.1 0 0 -.1 0 199)"/><path style="fill-rule:nonzero;fill:#cb7368;fill-opacity:1;stroke-width:5.84;stroke-linecap:round;stroke-linejoin:round;stroke:#000;stroke-opacity:1;stroke-miterlimit:10" d="m287.813 1834.336 541.68 63.476-238.321-430.507" transform="matrix(.1 0 0 -.1 0 199)"/><path style="stroke:none;fill-rule:nonzero;fill:#9b6490;fill-opacity:1" d="m82.95 9.219 34.07 51.449-57.903-8.398"/><path style="fill:none;stroke-width:5.84;stroke-linecap:round;stroke-linejoin:round;stroke:#000;stroke-opacity:1;stroke-miterlimit:10" d="m829.492 1897.813 340.703-514.493-579.023 83.985Zm0 0" transform="matrix(.1 0 0 -.1 0 199)"/><path style="fill-rule:nonzero;fill:#00006e;fill-opacity:1;stroke-width:5.84;stroke-linecap:round;stroke-linejoin:round;stroke:#000;stroke-opacity:1;stroke-miterlimit:10" d="m1292.617 1198.594-41.054-640.235-116.055 229.336" transform="matrix(.1 0 0 -.1 0 199)"/><path style="fill-rule:nonzero;fill:#00006e;fill-opacity:1;stroke-width:5.84;stroke-linecap:round;stroke-linejoin:round;stroke:#000;stroke-opacity:1;stroke-miterlimit:10" d="m1135.508 787.695 34.687 595.625 122.422-184.726" transform="matrix(.1 0 0 -.1 0 199)"/><path style="stroke:none;fill-rule:nonzero;fill:#2138b0;fill-opacity:1" d="m98.277 179.496 15.274-59.266 11.605 22.934"/><path style="fill:none;stroke-width:5.84;stroke-linecap:round;stroke-linejoin:round;stroke:#000;stroke-opacity:1;stroke-miterlimit:10" d="m982.773 195.04 152.735 592.655 116.054-229.336Zm0 0" transform="matrix(.1 0 0 -.1 0 199)"/><path style="fill-rule:nonzero;fill:#00001e;fill-opacity:1;stroke-width:5.84;stroke-linecap:round;stroke-linejoin:round;stroke:#000;stroke-opacity:1;stroke-miterlimit:10" d="m70.078 1386.484-6.25-605.859 26.953-234.18" transform="matrix(.1 0 0 -.1 0 199)"/><path style="fill-rule:nonzero;fill:#ca6043;fill-opacity:1;stroke-width:5.84;stroke-linecap:round;stroke-linejoin:round;stroke:#000;stroke-opacity:1;stroke-miterlimit:10" d="m467.734 48.086 515.04 146.953 268.788 363.32" transform="matrix(.1 0 0 -.1 0 199)"/><path style="fill-rule:nonzero;fill:#000;fill-opacity:1;stroke-width:5.84;stroke-linecap:round;stroke-linejoin:round;stroke:#000;stroke-opacity:1;stroke-miterlimit:10" d="m1292.617 1198.594-122.422 184.726-340.703 514.493" transform="matrix(.1 0 0 -.1 0 199)"/><path style="fill-rule:nonzero;fill:#00001e;fill-opacity:1;stroke-width:5.84;stroke-linecap:round;stroke-linejoin:round;stroke:#000;stroke-opacity:1;stroke-miterlimit:10" d="m90.781 546.445 7.578 652.07-28.28 187.97" transform="matrix(.1 0 0 -.1 0 199)"/><path style="stroke:none;fill-rule:nonzero;fill:#008;fill-opacity:1" d="M28.781 15.566 7.008 60.352l2.828 18.796"/><path style="fill:none;stroke-width:5.84;stroke-linecap:round;stroke-linejoin:round;stroke:#000;stroke-opacity:1;stroke-miterlimit:10" d="M287.813 1834.336 70.077 1386.484l28.281-187.968Zm0 0" transform="matrix(.1 0 0 -.1 0 199)"/><path style="fill-rule:nonzero;fill:#000;fill-opacity:1;stroke-width:5.84;stroke-linecap:round;stroke-linejoin:round;stroke:#000;stroke-opacity:1;stroke-miterlimit:10" d="m829.492 1897.813 96.016-144.766 367.11-554.453" transform="matrix(.1 0 0 -.1 0 199)"/><path style="stroke:none;fill-rule:nonzero;fill:#7ad3fe;fill-opacity:1" d="M92.55 23.695 82.95 9.22 28.78 15.566"/><path style="fill:none;stroke-width:5.84;stroke-linecap:round;stroke-linejoin:round;stroke:#000;stroke-opacity:1;stroke-miterlimit:10" d="m925.508 1753.047-96.016 144.765-541.68-63.476Zm0 0" transform="matrix(.1 0 0 -.1 0 199)"/><path style="stroke:none;fill-rule:nonzero;fill:#935786;fill-opacity:1" d="m46.773 194.191 24.973-37.32-62.668-12.516"/><path style="fill:none;stroke-width:5.84;stroke-linecap:round;stroke-linejoin:round;stroke:#000;stroke-opacity:1;stroke-miterlimit:10" d="m467.734 48.086 249.727 373.203L90.78 546.445Zm0 0" transform="matrix(.1 0 0 -.1 0 199)"/><path style="fill-rule:nonzero;fill:#ca6043;fill-opacity:1;stroke-width:5.84;stroke-linecap:round;stroke-linejoin:round;stroke:#000;stroke-opacity:1;stroke-miterlimit:10" d="M1251.563 558.36 717.46 421.29 467.734 48.085" transform="matrix(.1 0 0 -.1 0 199)"/><path style="fill-rule:nonzero;fill:#d6a09d;fill-opacity:1;stroke-width:5.84;stroke-linecap:round;stroke-linejoin:round;stroke:#000;stroke-opacity:1;stroke-miterlimit:10" d="M744.453 1092.695 717.461 421.29l534.101 137.07M1251.563 558.36l41.054 640.234-548.164-105.899" transform="matrix(.1 0 0 -.1 0 199)"/><path style="fill-rule:nonzero;fill:#9c72a3;fill-opacity:1;stroke-width:5.84;stroke-linecap:round;stroke-linejoin:round;stroke:#000;stroke-opacity:1;stroke-miterlimit:10" d="m98.36 1198.516-7.579-652.07 626.68-125.157" transform="matrix(.1 0 0 -.1 0 199)"/><path style="fill-rule:nonzero;fill:#a292c4;fill-opacity:1;stroke-width:5.84;stroke-linecap:round;stroke-linejoin:round;stroke:#000;stroke-opacity:1;stroke-miterlimit:10" d="m925.508 1753.047-637.696 81.289-189.453-635.82" transform="matrix(.1 0 0 -.1 0 199)"/><path style="stroke:none;fill-rule:nonzero;fill:#d4b0b4;fill-opacity:1" d="M92.55 23.695 74.446 89.73l54.817-10.59"/><path style="fill:none;stroke-width:5.84;stroke-linecap:round;stroke-linejoin:round;stroke:#000;stroke-opacity:1;stroke-miterlimit:10" d="m925.508 1753.047-181.055-660.352 548.164 105.899Zm0 0" transform="matrix(.1 0 0 -.1 0 199)"/><path style="fill-rule:nonzero;fill:#9c72a3;fill-opacity:1;stroke-width:5.84;stroke-linecap:round;stroke-linejoin:round;stroke:#000;stroke-opacity:1;stroke-miterlimit:10" d="m717.46 421.29 26.993 671.405-646.094 105.82" transform="matrix(.1 0 0 -.1 0 199)"/><path style="fill-rule:nonzero;fill:#a292c4;fill-opacity:1;stroke-width:5.84;stroke-linecap:round;stroke-linejoin:round;stroke:#000;stroke-opacity:1;stroke-miterlimit:10" d="m98.36 1198.516 646.093-105.82 181.055 660.35" transform="matrix(.1 0 0 -.1 0 199)"/></svg>