<svg version="1.1" id="Слой_1" xmlns="http://www.w3.org/2000/svg" x="0" y="0" viewBox="0 0 123 219.3" style="enable-background:new 0 0 123 219.3" xml:space="preserve"><style>.st0,.st2,.st3,.st6{fill:#a789b4;stroke:#000;stroke-width:.3092;stroke-linecap:round;stroke-linejoin:round;stroke-miterlimit:1}.st2,.st3,.st6{fill:none}.st3,.st6{fill:#000068}.st6{fill:#e4baac}</style><g id="surface1"><path class="st0" d="M118.2 70.7 4.8 72.5l-.1 75.9"/><path class="st0" d="m4.8 148.4 113.4 1.4V70.6"/><path d="M118.2 149.8 4.8 148.4l46.6 69.1" style="fill:#a5a0d0"/><path class="st2" d="M118.2 149.8 4.8 148.4l46.6 69.1 66.8-67.7z"/><path class="st3" d="m30.5 154.9-25.8-6.5.1-75.9"/><path d="M118.2 70.7 4.8 72.5 51.4 2.8" style="fill:#a56e93"/><path class="st2" d="M118.2 70.7 4.8 72.5 51.4 2.8l66.8 67.9z"/><path class="st3" d="m4.8 72.5 25.7-8.7v91.1"/><path d="m4.8 72.5 25.7-8.7 20.9-61" style="fill:#0018a6"/><path class="st2" d="m4.8 72.5 25.7-8.7 20.9-61L4.8 72.5z"/><path d="m4.8 148.4 25.8 6.5 20.9 62.6"/><path class="st2" d="m4.8 148.4 25.8 6.5 20.9 62.6-46.7-69.1z"/><path class="st6" d="m30.6 63.9 87.6 6.8v79.2"/><path d="m30.6 63.9 87.6 6.8L51.4 2.8" style="fill:#dddcd5"/><path class="st2" d="m30.6 63.9 87.6 6.8L51.4 2.8 30.6 63.9z"/><path class="st6" d="m118.2 149.8-87.7 5.1V63.8"/><path d="m30.5 154.9 87.7-5.1-66.8 67.7" style="fill:#dd8e75"/><path class="st2" d="m30.5 154.9 87.7-5.1-66.8 67.7-20.9-62.6z"/></g></svg>