<svg xmlns="http://www.w3.org/2000/svg" width="277pt" height="200pt" viewBox="0 0 277 200" version="1.2"><path style="stroke:none;fill-rule:nonzero;fill:#ae87ab;fill-opacity:1" d="m123.145 111.336 11.02-65.512 51.886 43.602"/><path style="fill:none;stroke-width:9.16;stroke-linecap:round;stroke-linejoin:round;stroke:#000;stroke-opacity:1;stroke-miterlimit:10" d="m1231.445 886.64 110.196 655.118 518.867-436.016Zm0 0" transform="matrix(.1 0 0 -.1 0 200)"/><path style="stroke:none;fill-rule:nonzero;fill:#c093a8;fill-opacity:1" d="M123.145 111.336 71.69 71.906l62.473-26.082"/><path style="fill:none;stroke-width:9.16;stroke-linecap:round;stroke-linejoin:round;stroke:#000;stroke-opacity:1;stroke-miterlimit:10" d="m1231.445 886.64-514.53 394.298 624.726 260.82Zm0 0" transform="matrix(.1 0 0 -.1 0 200)"/><path style="stroke:none;fill-rule:nonzero;fill:#cba8b6;fill-opacity:1" d="m67.363 140.402 4.328-68.496 51.454 39.43"/><path style="fill:none;stroke-width:9.16;stroke-linecap:round;stroke-linejoin:round;stroke:#000;stroke-opacity:1;stroke-miterlimit:10" d="m673.633 595.977 43.281 684.96 514.531-394.296Zm0 0" transform="matrix(.1 0 0 -.1 0 200)"/><path style="fill-rule:nonzero;fill:#969ed9;fill-opacity:1;stroke-width:9.16;stroke-linecap:round;stroke-linejoin:round;stroke:#000;stroke-opacity:1;stroke-miterlimit:10" d="m1231.445 886.64 629.063 219.102 115.781-493.437" transform="matrix(.1 0 0 -.1 0 200)"/><path style="fill-rule:nonzero;fill:#969ed9;fill-opacity:1;stroke-width:9.16;stroke-linecap:round;stroke-linejoin:round;stroke:#000;stroke-opacity:1;stroke-miterlimit:10" d="m1976.29 612.305-667.423-225.196-77.422 499.532" transform="matrix(.1 0 0 -.1 0 200)"/><path style="stroke:none;fill-rule:nonzero;fill:#afb5dd;fill-opacity:1" d="m130.887 161.29-63.524-20.888 55.782-29.066"/><path style="fill:none;stroke-width:9.16;stroke-linecap:round;stroke-linejoin:round;stroke:#000;stroke-opacity:1;stroke-miterlimit:10" d="M1308.867 387.11 673.633 595.976l557.812 290.664Zm0 0" transform="matrix(.1 0 0 -.1 0 200)"/><path style="stroke:none;fill-rule:nonzero;fill:#855c9a;fill-opacity:1" d="m186.05 89.426 8.692-61.856 44.942 53.153"/><path style="fill:none;stroke-width:9.16;stroke-linecap:round;stroke-linejoin:round;stroke:#000;stroke-opacity:1;stroke-miterlimit:10" d="m1860.508 1105.742 86.914 618.555 449.414-531.524Zm0 0" transform="matrix(.1 0 0 -.1 0 200)"/><path style="stroke:none;fill-rule:nonzero;fill:#9f6e9a;fill-opacity:1" d="m186.05 89.426-51.886-43.602 60.578-18.254"/><path style="fill:none;stroke-width:9.16;stroke-linecap:round;stroke-linejoin:round;stroke:#000;stroke-opacity:1;stroke-miterlimit:10" d="m1860.508 1105.742-518.867 436.016 605.78 182.539Zm0 0" transform="matrix(.1 0 0 -.1 0 200)"/><path style="stroke:none;fill-rule:nonzero;fill:#7880ce;fill-opacity:1" d="M197.629 138.77 186.05 89.426l53.633-8.703"/><path style="fill:none;stroke-width:9.16;stroke-linecap:round;stroke-linejoin:round;stroke:#000;stroke-opacity:1;stroke-miterlimit:10" d="m1976.29 612.305-115.782 493.437 536.328 87.031Zm0 0" transform="matrix(.1 0 0 -.1 0 200)"/><path style="stroke:none;fill-rule:nonzero;fill:#c66454;fill-opacity:1" d="m97.992 28.43 36.172 17.394-62.473 26.082"/><path style="fill:none;stroke-width:9.16;stroke-linecap:round;stroke-linejoin:round;stroke:#000;stroke-opacity:1;stroke-miterlimit:10" d="m979.922 1715.703 361.719-173.945-624.727-260.82Zm0 0" transform="matrix(.1 0 0 -.1 0 200)"/><path style="fill-rule:nonzero;fill:#9a231e;fill-opacity:1;stroke-width:9.16;stroke-linecap:round;stroke-linejoin:round;stroke:#000;stroke-opacity:1;stroke-miterlimit:10" d="m1947.422 1724.297-605.781-182.54-361.72 173.946" transform="matrix(.1 0 0 -.1 0 200)"/><path style="stroke:none;fill-rule:nonzero;fill:#deb7af;fill-opacity:1" d="M67.363 140.402 23.598 99.25 71.69 71.906"/><path style="fill:none;stroke-width:9.16;stroke-linecap:round;stroke-linejoin:round;stroke:#000;stroke-opacity:1;stroke-miterlimit:10" d="M673.633 595.977 235.977 1007.5l480.937 273.438Zm0 0" transform="matrix(.1 0 0 -.1 0 200)"/><path style="fill-rule:nonzero;fill:#d6611d;fill-opacity:1;stroke-width:9.16;stroke-linecap:round;stroke-linejoin:round;stroke:#000;stroke-opacity:1;stroke-miterlimit:10" d="M716.914 1280.938 235.977 1007.5l248.554 444.14M484.531 1451.64l495.39 264.063-263.007-434.765" transform="matrix(.1 0 0 -.1 0 200)"/><path style="stroke:none;fill-rule:nonzero;fill:#ead4bf;fill-opacity:1" d="M35.219 169.082 23.598 99.25l43.765 41.152"/><path style="fill:none;stroke-width:9.16;stroke-linecap:round;stroke-linejoin:round;stroke:#000;stroke-opacity:1;stroke-miterlimit:10" d="M352.188 309.18 235.976 1007.5l437.656-411.523Zm0 0" transform="matrix(.1 0 0 -.1 0 200)"/><path style="fill-rule:nonzero;fill:#add2f3;fill-opacity:1;stroke-width:9.16;stroke-linecap:round;stroke-linejoin:round;stroke:#000;stroke-opacity:1;stroke-miterlimit:10" d="m352.188 309.18 321.445 286.797 635.234-208.868" transform="matrix(.1 0 0 -.1 0 200)"/><path style="stroke:none;fill-rule:nonzero;fill:#5c2674;fill-opacity:1" d="M239.684 80.723 194.742 27.57l41.274-4.414"/><path style="fill:none;stroke-width:9.16;stroke-linecap:round;stroke-linejoin:round;stroke:#000;stroke-opacity:1;stroke-miterlimit:10" d="m2396.836 1192.773-449.414 531.524 412.734 44.14Zm0 0" transform="matrix(.1 0 0 -.1 0 200)"/><path style="fill-rule:nonzero;fill:#9a231e;fill-opacity:1;stroke-width:9.16;stroke-linecap:round;stroke-linejoin:round;stroke:#000;stroke-opacity:1;stroke-miterlimit:10" d="m979.922 1715.703 636.797 203.242 330.703-194.648" transform="matrix(.1 0 0 -.1 0 200)"/><path style="stroke:none;fill-rule:nonzero;fill:#460000;fill-opacity:1" d="m161.672 8.105 74.344 15.051-41.274 4.414"/><path style="fill:none;stroke-width:9.16;stroke-linecap:round;stroke-linejoin:round;stroke:#000;stroke-opacity:1;stroke-miterlimit:10" d="m1616.719 1918.945 743.437-150.507-412.734-44.141Zm0 0" transform="matrix(.1 0 0 -.1 0 200)"/><path style="fill-rule:nonzero;fill:#add2f3;fill-opacity:1;stroke-width:9.16;stroke-linecap:round;stroke-linejoin:round;stroke:#000;stroke-opacity:1;stroke-miterlimit:10" d="M1308.867 387.11 1028.633 77.147 352.187 309.18" transform="matrix(.1 0 0 -.1 0 200)"/><path style="fill-rule:nonzero;fill:#50a3f6;fill-opacity:1;stroke-width:9.16;stroke-linecap:round;stroke-linejoin:round;stroke:#000;stroke-opacity:1;stroke-miterlimit:10" d="m1028.633 77.148 280.234 309.961 667.422 225.196" transform="matrix(.1 0 0 -.1 0 200)"/><path style="stroke:none;fill-rule:nonzero;fill:#050057;fill-opacity:1" d="m239.684 80.723-3.668-57.567 29.437 67.04"/><path style="fill:none;stroke-width:9.16;stroke-linecap:round;stroke-linejoin:round;stroke:#000;stroke-opacity:1;stroke-miterlimit:10" d="m2396.836 1192.773-36.68 575.665 294.375-670.391Zm0 0" transform="matrix(.1 0 0 -.1 0 200)"/><path style="fill-rule:nonzero;fill:#2e5dcf;fill-opacity:1;stroke-width:9.16;stroke-linecap:round;stroke-linejoin:round;stroke:#000;stroke-opacity:1;stroke-miterlimit:10" d="m2396.836 1192.773 257.695-94.726-457.5-631.836" transform="matrix(.1 0 0 -.1 0 200)"/><path style="fill-rule:nonzero;fill:#2e5dcf;fill-opacity:1;stroke-width:9.16;stroke-linecap:round;stroke-linejoin:round;stroke:#000;stroke-opacity:1;stroke-miterlimit:10" d="M2197.031 466.21 1976.29 612.306l420.547 580.468" transform="matrix(.1 0 0 -.1 0 200)"/><path style="stroke:none;fill-rule:nonzero;fill:#50a3f6;fill-opacity:1" d="m158.152 189.254-55.289 3.031 94.766-53.515"/><path style="fill:none;stroke-width:9.16;stroke-linecap:round;stroke-linejoin:round;stroke:#000;stroke-opacity:1;stroke-miterlimit:10" d="m1581.523 107.46-552.89-30.312" transform="matrix(.1 0 0 -.1 0 200)"/><path style="fill-rule:nonzero;fill:#50a3f6;fill-opacity:1;stroke-width:9.16;stroke-linecap:round;stroke-linejoin:round;stroke:#000;stroke-opacity:1;stroke-miterlimit:10" d="M1976.29 612.305 2197.03 466.21l-615.508-358.75" transform="matrix(.1 0 0 -.1 0 200)"/><path style="stroke:none;fill-rule:nonzero;fill:#fbe79a;fill-opacity:1" d="M35.219 169.082 7.363 119.461 23.598 99.25"/><path style="fill:none;stroke-width:9.16;stroke-linecap:round;stroke-linejoin:round;stroke:#000;stroke-opacity:1;stroke-miterlimit:10" d="M352.188 309.18 73.632 805.39l162.344 202.11Zm0 0" transform="matrix(.1 0 0 -.1 0 200)"/><path style="stroke:none;fill-rule:nonzero;fill:#b14400;fill-opacity:1" d="M48.453 54.836 23.598 99.25 7.363 119.46"/><path style="fill:none;stroke-width:9.16;stroke-linecap:round;stroke-linejoin:round;stroke:#000;stroke-opacity:1;stroke-miterlimit:10" d="M484.531 1451.64 235.977 1007.5 73.633 805.39Zm0 0" transform="matrix(.1 0 0 -.1 0 200)"/><path style="stroke:none;fill-rule:nonzero;fill:#0986e1;fill-opacity:1" d="M97.992 28.43 48.453 54.836l109.11-34.078"/><path style="fill:none;stroke-width:9.16;stroke-linecap:round;stroke-linejoin:round;stroke:#000;stroke-opacity:1;stroke-miterlimit:10" d="m979.922 1715.703-495.39-264.062" transform="matrix(.1 0 0 -.1 0 200)"/><path style="fill-rule:nonzero;fill:#0986e1;fill-opacity:1;stroke-width:9.16;stroke-linecap:round;stroke-linejoin:round;stroke:#000;stroke-opacity:1;stroke-miterlimit:10" d="m1575.625 1792.422 41.094 126.523-636.797-203.242" transform="matrix(.1 0 0 -.1 0 200)"/><path style="stroke:none;fill-rule:nonzero;fill:#a9d060;fill-opacity:1" d="M43.266 187.066 7.363 119.461l27.856 49.621"/><path style="fill:none;stroke-width:9.16;stroke-linecap:round;stroke-linejoin:round;stroke:#000;stroke-opacity:1;stroke-miterlimit:10" d="M432.656 129.336 73.633 805.39 352.188 309.18Zm0 0" transform="matrix(.1 0 0 -.1 0 200)"/><path style="stroke:none;fill-rule:nonzero;fill:#8ae8f3;fill-opacity:1" d="m102.863 192.285-59.597-5.219-8.047-17.984"/><path style="fill:none;stroke-width:9.16;stroke-linecap:round;stroke-linejoin:round;stroke:#000;stroke-opacity:1;stroke-miterlimit:10" d="m1028.633 77.148-595.977 52.188-80.469 179.844Zm0 0" transform="matrix(.1 0 0 -.1 0 200)"/><path style="fill-rule:nonzero;fill:#75def2;fill-opacity:1;stroke-width:9.16;stroke-linecap:round;stroke-linejoin:round;stroke:#000;stroke-opacity:1;stroke-miterlimit:10" d="m2388.477 1627.5-28.32 140.938-743.438 150.507M1616.719 1918.945l-41.094-126.523 812.852-164.922" transform="matrix(.1 0 0 -.1 0 200)"/><path style="stroke:none;fill-rule:nonzero;fill:#bad562;fill-opacity:1" d="m265.453 90.195-29.437-67.039 2.832 14.094"/><path style="fill:none;stroke-width:9.16;stroke-linecap:round;stroke-linejoin:round;stroke:#000;stroke-opacity:1;stroke-miterlimit:10" d="m2654.531 1098.047-294.375 670.39 28.32-140.937Zm0 0" transform="matrix(.1 0 0 -.1 0 200)"/><path style="fill-rule:nonzero;fill:#260000;fill-opacity:1;stroke-width:9.16;stroke-linecap:round;stroke-linejoin:round;stroke:#000;stroke-opacity:1;stroke-miterlimit:10" d="m982.188 165.508-549.532-36.172 595.977-52.188M1028.633 77.148l552.89 30.313-599.335 58.047" transform="matrix(.1 0 0 -.1 0 200)"/><path style="fill-rule:nonzero;fill:#2259cf;fill-opacity:1;stroke-width:9.16;stroke-linecap:round;stroke-linejoin:round;stroke:#000;stroke-opacity:1;stroke-miterlimit:10" d="m815.195 1477.031-330.664-25.39L73.633 805.39" transform="matrix(.1 0 0 -.1 0 200)"/><path style="fill-rule:nonzero;fill:#0986e1;fill-opacity:1;stroke-width:9.16;stroke-linecap:round;stroke-linejoin:round;stroke:#000;stroke-opacity:1;stroke-miterlimit:10" d="m484.531 1451.64 330.664 25.391 760.43 315.39" transform="matrix(.1 0 0 -.1 0 200)"/><path style="stroke:none;fill-rule:nonzero;fill:#00006f;fill-opacity:1" d="m219.703 153.379 45.75-63.184-19.61 28.348"/><path style="fill:none;stroke-width:9.16;stroke-linecap:round;stroke-linejoin:round;stroke:#000;stroke-opacity:1;stroke-miterlimit:10" d="m2197.031 466.21 457.5 631.837-196.093-283.477Zm0 0" transform="matrix(.1 0 0 -.1 0 200)"/><path style="stroke:none;fill-rule:nonzero;fill:#fde096;fill-opacity:1" d="M265.453 90.195 238.848 37.25l6.996 81.293"/><path style="fill:none;stroke-width:9.16;stroke-linecap:round;stroke-linejoin:round;stroke:#000;stroke-opacity:1;stroke-miterlimit:10" d="M2654.531 1098.047 2388.477 1627.5l69.96-812.93Zm0 0" transform="matrix(.1 0 0 -.1 0 200)"/><path style="fill-rule:nonzero;fill:#b42c00;fill-opacity:1;stroke-width:9.16;stroke-linecap:round;stroke-linejoin:round;stroke:#000;stroke-opacity:1;stroke-miterlimit:10" d="m1581.523 107.46 615.508 358.75 261.407 348.36" transform="matrix(.1 0 0 -.1 0 200)"/><path style="stroke:none;fill-rule:nonzero;fill:#17005a;fill-opacity:1" d="M43.266 187.066 37.66 122.56 7.363 119.46"/><path style="fill:none;stroke-width:9.16;stroke-linecap:round;stroke-linejoin:round;stroke:#000;stroke-opacity:1;stroke-miterlimit:10" d="m432.656 129.336-56.054 645.078-302.97 30.977Zm0 0" transform="matrix(.1 0 0 -.1 0 200)"/><path style="fill-rule:nonzero;fill:#2259cf;fill-opacity:1;stroke-width:9.16;stroke-linecap:round;stroke-linejoin:round;stroke:#000;stroke-opacity:1;stroke-miterlimit:10" d="m73.633 805.39 302.969-30.976 438.593 702.617" transform="matrix(.1 0 0 -.1 0 200)"/><path style="stroke:none;fill-rule:nonzero;fill:#6c3175;fill-opacity:1" d="M98.219 183.45 37.66 122.558l5.606 64.507"/><path style="fill:none;stroke-width:9.16;stroke-linecap:round;stroke-linejoin:round;stroke:#000;stroke-opacity:1;stroke-miterlimit:10" d="M982.188 165.508 376.601 774.414l56.054-645.078Zm0 0" transform="matrix(.1 0 0 -.1 0 200)"/><path style="stroke:none;fill-rule:nonzero;fill:#a3230b;fill-opacity:1" d="m158.152 189.254 21.852-33.215-81.785 27.41"/><path style="fill:none;stroke-width:9.16;stroke-linecap:round;stroke-linejoin:round;stroke:#000;stroke-opacity:1;stroke-miterlimit:10" d="m1581.523 107.46 218.516 332.15-817.851-274.102Zm0 0" transform="matrix(.1 0 0 -.1 0 200)"/><path style="fill-rule:nonzero;fill:#b42c00;fill-opacity:1;stroke-width:9.16;stroke-linecap:round;stroke-linejoin:round;stroke:#000;stroke-opacity:1;stroke-miterlimit:10" d="m2458.438 814.57-658.399-374.96-218.516-332.15" transform="matrix(.1 0 0 -.1 0 200)"/><path style="stroke:none;fill-rule:nonzero;fill:#afd2f2;fill-opacity:1" d="m157.563 20.758 34.296 47.484 46.989-30.992"/><path style="fill:none;stroke-width:9.16;stroke-linecap:round;stroke-linejoin:round;stroke:#000;stroke-opacity:1;stroke-miterlimit:10" d="m1575.625 1792.422 342.969-474.844 469.883 309.922Zm0 0" transform="matrix(.1 0 0 -.1 0 200)"/><path style="fill-rule:nonzero;fill:#97aee7;fill-opacity:1;stroke-width:9.16;stroke-linecap:round;stroke-linejoin:round;stroke:#000;stroke-opacity:1;stroke-miterlimit:10" d="m1106.328 971.484 812.266 346.094-342.969 474.844" transform="matrix(.1 0 0 -.1 0 200)"/><path style="fill-rule:nonzero;fill:#97aee7;fill-opacity:1;stroke-width:9.16;stroke-linecap:round;stroke-linejoin:round;stroke:#000;stroke-opacity:1;stroke-miterlimit:10" d="m1575.625 1792.422-760.43-315.39 291.133-505.548" transform="matrix(.1 0 0 -.1 0 200)"/><path style="stroke:none;fill-rule:nonzero;fill:#e6caba;fill-opacity:1" d="m245.844 118.543-6.996-81.293-46.989 30.992"/><path style="fill:none;stroke-width:9.16;stroke-linecap:round;stroke-linejoin:round;stroke:#000;stroke-opacity:1;stroke-miterlimit:10" d="m2458.438 814.57-69.961 812.93-469.883-309.922Zm0 0" transform="matrix(.1 0 0 -.1 0 200)"/><path style="stroke:none;fill-rule:nonzero;fill:#7b8ad7;fill-opacity:1" d="m81.52 52.297-43.86 70.262 72.973-19.707"/><path style="fill:none;stroke-width:9.16;stroke-linecap:round;stroke-linejoin:round;stroke:#000;stroke-opacity:1;stroke-miterlimit:10" d="M815.195 1477.031 376.602 774.414l729.726 197.07Zm0 0" transform="matrix(.1 0 0 -.1 0 200)"/><path style="stroke:none;fill-rule:nonzero;fill:#d7a9a8;fill-opacity:1" d="m245.844 118.543-53.985-50.3-11.855 87.796"/><path style="fill:none;stroke-width:9.16;stroke-linecap:round;stroke-linejoin:round;stroke:#000;stroke-opacity:1;stroke-miterlimit:10" d="m2458.438 814.57-539.844 503.008-118.555-877.969Zm0 0" transform="matrix(.1 0 0 -.1 0 200)"/><path style="stroke:none;fill-rule:nonzero;fill:#93699d;fill-opacity:1" d="m98.219 183.45 12.414-80.598-72.973 19.707"/><path style="fill:none;stroke-width:9.16;stroke-linecap:round;stroke-linejoin:round;stroke:#000;stroke-opacity:1;stroke-miterlimit:10" d="m982.188 165.508 124.14 805.976-729.726-197.07Zm0 0" transform="matrix(.1 0 0 -.1 0 200)"/><path style="stroke:none;fill-rule:nonzero;fill:#af7c9b;fill-opacity:1" d="m180.004 156.04-69.371-53.188-12.414 80.597"/><path style="fill:none;stroke-width:9.16;stroke-linecap:round;stroke-linejoin:round;stroke:#000;stroke-opacity:1;stroke-miterlimit:10" d="m1800.04 439.61-693.712 531.874-124.14-805.976Zm0 0" transform="matrix(.1 0 0 -.1 0 200)"/><path style="stroke:none;fill-rule:nonzero;fill:#c099b0;fill-opacity:1" d="m180.004 156.04 11.855-87.798-81.226 34.61"/><path style="fill:none;stroke-width:9.16;stroke-linecap:round;stroke-linejoin:round;stroke:#000;stroke-opacity:1;stroke-miterlimit:10" d="m1800.04 439.61 118.554 877.968-812.266-346.094Zm0 0" transform="matrix(.1 0 0 -.1 0 200)"/></svg>