<svg xmlns="http://www.w3.org/2000/svg" width="188pt" height="200pt" viewBox="0 0 188 200" version="1.2"><path style="stroke:none;fill-rule:nonzero;fill:#b49ec2;fill-opacity:1" d="m51.555 149.016 24.656-41.192 24.394 41.063"/><path style="fill:none;stroke-width:7.3;stroke-linecap:round;stroke-linejoin:round;stroke:#000;stroke-opacity:1;stroke-miterlimit:10" d="m515.547 509.844 246.562 411.914 243.946-410.625Zm0 0" transform="matrix(.1 0 0 -.1 0 200)"/><path style="stroke:none;fill-rule:nonzero;fill:#c5a4b7;fill-opacity:1" d="m28.883 105.484 47.328 2.34-24.656 41.192"/><path style="fill:none;stroke-width:7.3;stroke-linecap:round;stroke-linejoin:round;stroke:#000;stroke-opacity:1;stroke-miterlimit:10" d="m288.828 945.156 473.281-23.398-246.562-411.914Zm0 0" transform="matrix(.1 0 0 -.1 0 200)"/><path style="stroke:none;fill-rule:nonzero;fill:#c391a1;fill-opacity:1" d="m28.883 105.484 29.02-39.949 18.308 42.29"/><path style="fill:none;stroke-width:7.3;stroke-linecap:round;stroke-linejoin:round;stroke:#000;stroke-opacity:1;stroke-miterlimit:10" d="m288.828 945.156 290.195 399.492 183.086-422.89Zm0 0" transform="matrix(.1 0 0 -.1 0 200)"/><path style="stroke:none;fill-rule:nonzero;fill:#be8b9f;fill-opacity:1" d="M105.852 69.977 76.21 107.824 57.902 65.535"/><path style="fill:none;stroke-width:7.3;stroke-linecap:round;stroke-linejoin:round;stroke:#000;stroke-opacity:1;stroke-miterlimit:10" d="M1058.516 1300.234 762.109 921.758l-183.086 422.89Zm0 0" transform="matrix(.1 0 0 -.1 0 200)"/><path style="fill-rule:nonzero;fill:#a186b7;fill-opacity:1;stroke-width:7.3;stroke-linecap:round;stroke-linejoin:round;stroke:#000;stroke-opacity:1;stroke-miterlimit:10" d="m762.11 921.758 296.406 378.476 445.664-168.906" transform="matrix(.1 0 0 -.1 0 200)"/><path style="stroke:none;fill-rule:nonzero;fill:#a186b7;fill-opacity:1" d="m100.605 148.887-24.394-41.063 74.207-20.957"/><path style="fill:none;stroke-width:7.3;stroke-linecap:round;stroke-linejoin:round;stroke:#000;stroke-opacity:1;stroke-miterlimit:10" d="M1006.055 511.133 762.109 921.758" transform="matrix(.1 0 0 -.1 0 200)"/><path style="fill-rule:nonzero;fill:#ab515e;fill-opacity:1;stroke-width:7.3;stroke-linecap:round;stroke-linejoin:round;stroke:#000;stroke-opacity:1;stroke-miterlimit:10" d="m1339.219 1579.414-280.703-279.18-479.493 44.414" transform="matrix(.1 0 0 -.1 0 200)"/><path style="stroke:none;fill-rule:nonzero;fill:#8d5589;fill-opacity:1" d="m150.418 86.867-44.566-16.89 28.07-27.918"/><path style="fill:none;stroke-width:7.3;stroke-linecap:round;stroke-linejoin:round;stroke:#000;stroke-opacity:1;stroke-miterlimit:10" d="m1504.18 1131.328-445.664 168.906 280.703 279.18Zm0 0" transform="matrix(.1 0 0 -.1 0 200)"/><path style="stroke:none;fill-rule:nonzero;fill:#94a3de;fill-opacity:1" d="m75.629 187.035 24.976-38.148 24.524 29.199"/><path style="fill:none;stroke-width:7.3;stroke-linecap:round;stroke-linejoin:round;stroke:#000;stroke-opacity:1;stroke-miterlimit:10" d="m756.29 129.648 249.765 381.485 245.234-291.992Zm0 0" transform="matrix(.1 0 0 -.1 0 200)"/><path style="stroke:none;fill-rule:nonzero;fill:#b0aed6;fill-opacity:1" d="m51.555 149.016 49.05-.13-24.976 38.15"/><path style="fill:none;stroke-width:7.3;stroke-linecap:round;stroke-linejoin:round;stroke:#000;stroke-opacity:1;stroke-miterlimit:10" d="m515.547 509.844 490.508 1.289-249.766-381.485Zm0 0" transform="matrix(.1 0 0 -.1 0 200)"/><path style="fill-rule:nonzero;fill:#a186b7;fill-opacity:1;stroke-width:7.3;stroke-linecap:round;stroke-linejoin:round;stroke:#000;stroke-opacity:1;stroke-miterlimit:10" d="m1504.18 1131.328-31.72-500.625-466.405-119.57" transform="matrix(.1 0 0 -.1 0 200)"/><path style="stroke:none;fill-rule:nonzero;fill:#8f9bda;fill-opacity:1" d="m147.246 136.93-22.117 41.156-24.524-29.2"/><path style="fill:none;stroke-width:7.3;stroke-linecap:round;stroke-linejoin:round;stroke:#000;stroke-opacity:1;stroke-miterlimit:10" d="m1472.46 630.703-221.17-411.562-245.235 291.992Zm0 0" transform="matrix(.1 0 0 -.1 0 200)"/><path style="stroke:none;fill-rule:nonzero;fill:#daefe0;fill-opacity:1" d="m34.61 164.652 16.945-15.636 24.074 38.02"/><path style="fill:none;stroke-width:7.3;stroke-linecap:round;stroke-linejoin:round;stroke:#000;stroke-opacity:1;stroke-miterlimit:10" d="m346.094 353.477 169.453 156.367 240.742-380.196Zm0 0" transform="matrix(.1 0 0 -.1 0 200)"/><path style="fill-rule:nonzero;fill:#f1e9c0;fill-opacity:1;stroke-width:7.3;stroke-linecap:round;stroke-linejoin:round;stroke:#000;stroke-opacity:1;stroke-miterlimit:10" d="m288.828 945.156 226.719-435.312-169.453-156.367" transform="matrix(.1 0 0 -.1 0 200)"/><path style="stroke:none;fill-rule:nonzero;fill:#d3928d;fill-opacity:1" d="m13.277 67.164 44.625-1.629-29.02 39.95"/><path style="fill:none;stroke-width:7.3;stroke-linecap:round;stroke-linejoin:round;stroke:#000;stroke-opacity:1;stroke-miterlimit:10" d="m132.773 1328.36 446.25 16.288-290.195-399.492Zm0 0" transform="matrix(.1 0 0 -.1 0 200)"/><path style="fill-rule:nonzero;fill:#f1e9c0;fill-opacity:1;stroke-width:7.3;stroke-linecap:round;stroke-linejoin:round;stroke:#000;stroke-opacity:1;stroke-miterlimit:10" d="M346.094 353.477 97.852 826.094l190.976 119.062" transform="matrix(.1 0 0 -.1 0 200)"/><path style="stroke:none;fill-rule:nonzero;fill:#fdd494;fill-opacity:1" d="m9.785 117.39 3.492-50.226 15.606 38.32"/><path style="fill:none;stroke-width:7.3;stroke-linecap:round;stroke-linejoin:round;stroke:#000;stroke-opacity:1;stroke-miterlimit:10" d="m97.852 826.094 34.921 502.265 156.055-383.203Zm0 0" transform="matrix(.1 0 0 -.1 0 200)"/><path style="stroke:none;fill-rule:nonzero;fill:#c96f64;fill-opacity:1" d="M13.277 67.164 51.2 33.336l6.703 32.2"/><path style="fill:none;stroke-width:7.3;stroke-linecap:round;stroke-linejoin:round;stroke:#000;stroke-opacity:1;stroke-miterlimit:10" d="m132.773 1328.36 379.22 338.28 67.03-321.992Zm0 0" transform="matrix(.1 0 0 -.1 0 200)"/><path style="stroke:none;fill-rule:nonzero;fill:#ab515e;fill-opacity:1" d="m57.902 65.535-6.703-32.2 82.723 8.724"/><path style="fill:none;stroke-width:7.3;stroke-linecap:round;stroke-linejoin:round;stroke:#000;stroke-opacity:1;stroke-miterlimit:10" d="m579.023 1344.648-67.03 321.993" transform="matrix(.1 0 0 -.1 0 200)"/><path style="stroke:none;fill-rule:nonzero;fill:#6457ad;fill-opacity:1" d="m178.945 112.465-31.699 24.465 3.172-50.063"/><path style="fill:none;stroke-width:7.3;stroke-linecap:round;stroke-linejoin:round;stroke:#000;stroke-opacity:1;stroke-miterlimit:10" d="m1789.453 875.352-316.992-244.649 31.719 500.625Zm0 0" transform="matrix(.1 0 0 -.1 0 200)"/><path style="fill-rule:nonzero;fill:#150048;fill-opacity:1;stroke-width:7.3;stroke-linecap:round;stroke-linejoin:round;stroke:#000;stroke-opacity:1;stroke-miterlimit:10" d="m1504.18 1131.328-164.961 448.086 175.117 75.313" transform="matrix(.1 0 0 -.1 0 200)"/><path style="stroke:none;fill-rule:nonzero;fill:#150048;fill-opacity:1" d="m178.945 112.465-28.527-25.598 1.016-52.34"/><path style="fill:none;stroke-width:7.3;stroke-linecap:round;stroke-linejoin:round;stroke:#000;stroke-opacity:1;stroke-miterlimit:10" d="m1789.453 875.352-285.273 255.976" transform="matrix(.1 0 0 -.1 0 200)"/><path style="fill-rule:nonzero;fill:#0f4dc9;fill-opacity:1;stroke-width:7.3;stroke-linecap:round;stroke-linejoin:round;stroke:#000;stroke-opacity:1;stroke-miterlimit:10" d="m1251.29 219.14 221.17 411.563 316.993 244.649" transform="matrix(.1 0 0 -.1 0 200)"/><path style="stroke:none;fill-rule:nonzero;fill:#7cb0f4;fill-opacity:1" d="m75.629 187.035 49.5-8.95L94.53 208.18"/><path style="fill:none;stroke-width:7.3;stroke-linecap:round;stroke-linejoin:round;stroke:#000;stroke-opacity:1;stroke-miterlimit:10" d="m756.29 129.648 495 89.493L945.312-81.797Zm0 0" transform="matrix(.1 0 0 -.1 0 200)"/><path style="fill-rule:nonzero;fill:#a4f7d5;fill-opacity:1;stroke-width:7.3;stroke-linecap:round;stroke-linejoin:round;stroke:#000;stroke-opacity:1;stroke-miterlimit:10" d="M756.29 129.648 945.312-81.797 505.976 153.008" transform="matrix(.1 0 0 -.1 0 200)"/><path style="fill-rule:nonzero;fill:#a4f7d5;fill-opacity:1;stroke-width:7.3;stroke-linecap:round;stroke-linejoin:round;stroke:#000;stroke-opacity:1;stroke-miterlimit:10" d="M505.977 153.008 346.094 353.477l410.195-223.829" transform="matrix(.1 0 0 -.1 0 200)"/><path style="stroke:none;fill-rule:nonzero;fill:#340000;fill-opacity:1" d="m133.922 42.059-32.926-25.055 50.438 17.523"/><path style="fill:none;stroke-width:7.3;stroke-linecap:round;stroke-linejoin:round;stroke:#000;stroke-opacity:1;stroke-miterlimit:10" d="m1339.219 1579.414-329.258 250.547 504.375-175.234Zm0 0" transform="matrix(.1 0 0 -.1 0 200)"/><path style="fill-rule:nonzero;fill:#ab515e;fill-opacity:1;stroke-width:7.3;stroke-linecap:round;stroke-linejoin:round;stroke:#000;stroke-opacity:1;stroke-miterlimit:10" d="m511.992 1666.64 497.969 163.32 329.258-250.546" transform="matrix(.1 0 0 -.1 0 200)"/><path style="stroke:none;fill-rule:nonzero;fill:#cb531a;fill-opacity:1" d="m10.625 46.445 40.574-13.11-37.922 33.83"/><path style="fill:none;stroke-width:7.3;stroke-linecap:round;stroke-linejoin:round;stroke:#000;stroke-opacity:1;stroke-miterlimit:10" d="m106.25 1535.547 405.742 131.094-379.219-338.282Zm0 0" transform="matrix(.1 0 0 -.1 0 200)"/><path style="fill-rule:nonzero;fill:#d4a61b;fill-opacity:1;stroke-width:7.3;stroke-linecap:round;stroke-linejoin:round;stroke:#000;stroke-opacity:1;stroke-miterlimit:10" d="m106.25 1535.547 26.523-207.188-34.921-502.265" transform="matrix(.1 0 0 -.1 0 200)"/><path style="stroke:none;fill-rule:nonzero;fill:#1f7de6;fill-opacity:1" d="m94.531 208.18 30.598-30.094 16.832 5.707"/><path style="fill:none;stroke-width:7.3;stroke-linecap:round;stroke-linejoin:round;stroke:#000;stroke-opacity:1;stroke-miterlimit:10" d="m945.313-81.797 305.976 300.938 168.32-57.07Zm0 0" transform="matrix(.1 0 0 -.1 0 200)"/><path style="stroke:none;fill-rule:nonzero;fill:#0f4dc9;fill-opacity:1" d="m141.96 183.793-16.831-5.707 53.816-65.621"/><path style="fill:none;stroke-width:7.3;stroke-linecap:round;stroke-linejoin:round;stroke:#000;stroke-opacity:1;stroke-miterlimit:10" d="m1419.61 162.07-168.32 57.07" transform="matrix(.1 0 0 -.1 0 200)"/><path style="fill-rule:nonzero;fill:#000;fill-opacity:1;stroke-width:7.3;stroke-linecap:round;stroke-linejoin:round;stroke:#000;stroke-opacity:1;stroke-miterlimit:10" d="m346.094 353.477 159.883-200.47-170.664 400.938" transform="matrix(.1 0 0 -.1 0 200)"/><path style="stroke:none;fill-rule:nonzero;fill:#000;fill-opacity:1" d="m9.785 117.39 24.824 47.262-1.078-20.047"/><path style="fill:none;stroke-width:7.3;stroke-linecap:round;stroke-linejoin:round;stroke:#000;stroke-opacity:1;stroke-miterlimit:10" d="m97.852 826.094 248.242-472.617" transform="matrix(.1 0 0 -.1 0 200)"/><path style="fill-rule:nonzero;fill:#0f4dc9;fill-opacity:1;stroke-width:7.3;stroke-linecap:round;stroke-linejoin:round;stroke:#000;stroke-opacity:1;stroke-miterlimit:10" d="m1789.453 875.352-4.726-272.266-365.118-441.016" transform="matrix(.1 0 0 -.1 0 200)"/><path style="stroke:none;fill-rule:nonzero;fill:#000018;fill-opacity:1" d="m182.023 81.59-3.55 58.101.472-27.226"/><path style="fill:none;stroke-width:7.3;stroke-linecap:round;stroke-linejoin:round;stroke:#000;stroke-opacity:1;stroke-miterlimit:10" d="m1820.234 1184.102-35.507-581.016 4.726 272.266Zm0 0" transform="matrix(.1 0 0 -.1 0 200)"/><path style="fill-rule:nonzero;fill:#150048;fill-opacity:1;stroke-width:7.3;stroke-linecap:round;stroke-linejoin:round;stroke:#000;stroke-opacity:1;stroke-miterlimit:10" d="m1514.336 1654.727 305.898-470.625-30.78-308.75" transform="matrix(.1 0 0 -.1 0 200)"/><path style="stroke:none;fill-rule:nonzero;fill:#690000;fill-opacity:1" d="m10.625 46.445 50.441-21.812-9.867 8.703"/><path style="fill:none;stroke-width:7.3;stroke-linecap:round;stroke-linejoin:round;stroke:#000;stroke-opacity:1;stroke-miterlimit:10" d="m106.25 1535.547 504.414 218.125-98.672-87.031Zm0 0" transform="matrix(.1 0 0 -.1 0 200)"/><path style="stroke:none;fill-rule:nonzero;fill:#630000;fill-opacity:1" d="M100.996 17.004 51.2 33.336l9.867-8.703"/><path style="fill:none;stroke-width:7.3;stroke-linecap:round;stroke-linejoin:round;stroke:#000;stroke-opacity:1;stroke-miterlimit:10" d="m1009.96 1829.96-497.968-163.32 98.672 87.032Zm0 0" transform="matrix(.1 0 0 -.1 0 200)"/><path style="fill-rule:nonzero;fill:#d4a61b;fill-opacity:1;stroke-width:7.3;stroke-linecap:round;stroke-linejoin:round;stroke:#000;stroke-opacity:1;stroke-miterlimit:10" d="M97.852 826.094 67.07 990.156l39.18 545.39" transform="matrix(.1 0 0 -.1 0 200)"/><path style="fill-rule:nonzero;fill:#000;fill-opacity:1;stroke-width:7.3;stroke-linecap:round;stroke-linejoin:round;stroke:#000;stroke-opacity:1;stroke-miterlimit:10" d="M335.313 553.945 67.07 990.156l30.782-164.062" transform="matrix(.1 0 0 -.1 0 200)"/><path style="fill-rule:nonzero;fill:#9ee2fc;fill-opacity:1;stroke-width:7.3;stroke-linecap:round;stroke-linejoin:round;stroke:#000;stroke-opacity:1;stroke-miterlimit:10" d="M1514.336 1654.727 1009.96 1829.96l-399.297-76.29" transform="matrix(.1 0 0 -.1 0 200)"/><path style="stroke:none;fill-rule:nonzero;fill:#740000;fill-opacity:1" d="m94.531 208.18 47.43-24.387-41.945 16.633"/><path style="fill:none;stroke-width:7.3;stroke-linecap:round;stroke-linejoin:round;stroke:#000;stroke-opacity:1;stroke-miterlimit:10" d="m945.313-81.797 474.296 243.867L1000.156-4.258Zm0 0" transform="matrix(.1 0 0 -.1 0 200)"/><path style="stroke:none;fill-rule:nonzero;fill:#090000;fill-opacity:1" d="m50.598 184.7 43.933 23.48 5.485-7.754"/><path style="fill:none;stroke-width:7.3;stroke-linecap:round;stroke-linejoin:round;stroke:#000;stroke-opacity:1;stroke-miterlimit:10" d="M505.977 153.008 945.313-81.797l54.843 77.54Zm0 0" transform="matrix(.1 0 0 -.1 0 200)"/><path style="stroke:none;fill-rule:nonzero;fill:#e1fdc4;fill-opacity:1" d="m151.434 34.527-3.145 21.598 33.734 25.465"/><path style="fill:none;stroke-width:7.3;stroke-linecap:round;stroke-linejoin:round;stroke:#000;stroke-opacity:1;stroke-miterlimit:10" d="m1514.336 1654.727-31.445-215.977 337.343-254.648Zm0 0" transform="matrix(.1 0 0 -.1 0 200)"/><path style="fill-rule:nonzero;fill:#9ee2fc;fill-opacity:1;stroke-width:7.3;stroke-linecap:round;stroke-linejoin:round;stroke:#000;stroke-opacity:1;stroke-miterlimit:10" d="m877.578 1499.375 605.313-60.625 31.445 215.977" transform="matrix(.1 0 0 -.1 0 200)"/><path style="stroke:none;fill-rule:nonzero;fill:#9ee2fc;fill-opacity:1" d="m61.066 24.633 26.692 25.43 63.676-15.536"/><path style="fill:none;stroke-width:7.3;stroke-linecap:round;stroke-linejoin:round;stroke:#000;stroke-opacity:1;stroke-miterlimit:10" d="m610.664 1753.672 266.914-254.297" transform="matrix(.1 0 0 -.1 0 200)"/><path style="stroke:none;fill-rule:nonzero;fill:#2b89ec;fill-opacity:1" d="m25.543 56.414 35.523-31.781-50.441 21.812"/><path style="fill:none;stroke-width:7.3;stroke-linecap:round;stroke-linejoin:round;stroke:#000;stroke-opacity:1;stroke-miterlimit:10" d="m255.43 1435.86 355.234 317.812-504.414-218.125Zm0 0" transform="matrix(.1 0 0 -.1 0 200)"/><path style="stroke:none;fill-rule:nonzero;fill:#000087;fill-opacity:1" d="m6.707 100.984 18.836-44.57-14.918-9.969"/><path style="fill:none;stroke-width:7.3;stroke-linecap:round;stroke-linejoin:round;stroke:#000;stroke-opacity:1;stroke-miterlimit:10" d="m67.07 990.156 188.36 445.703-149.18 99.688Zm0 0" transform="matrix(.1 0 0 -.1 0 200)"/><path style="stroke:none;fill-rule:nonzero;fill:#d56226;fill-opacity:1" d="m100.016 200.426 41.945-16.633-.086-26.762"/><path style="fill:none;stroke-width:7.3;stroke-linecap:round;stroke-linejoin:round;stroke:#000;stroke-opacity:1;stroke-miterlimit:10" d="M1000.156-4.258 1419.61 162.07l-.859 267.618Zm0 0" transform="matrix(.1 0 0 -.1 0 200)"/><path style="stroke:none;fill-rule:nonzero;fill:#dc6c24;fill-opacity:1" d="m178.473 139.691-36.598 17.34.086 26.762"/><path style="fill:none;stroke-width:7.3;stroke-linecap:round;stroke-linejoin:round;stroke:#000;stroke-opacity:1;stroke-miterlimit:10" d="M1784.727 603.086 1418.75 429.687l.86-267.617Zm0 0" transform="matrix(.1 0 0 -.1 0 200)"/><path style="fill-rule:nonzero;fill:#eec0a3;fill-opacity:1;stroke-width:7.3;stroke-linecap:round;stroke-linejoin:round;stroke:#000;stroke-opacity:1;stroke-miterlimit:10" d="m1418.75 429.688 365.977 173.398 35.507 581.016" transform="matrix(.1 0 0 -.1 0 200)"/><path style="stroke:none;fill-rule:nonzero;fill:#eec0a3;fill-opacity:1" d="m120.648 103.5 21.227 53.531 40.148-75.441"/><path style="fill:none;stroke-width:7.3;stroke-linecap:round;stroke-linejoin:round;stroke:#000;stroke-opacity:1;stroke-miterlimit:10" d="m1206.484 965 212.266-535.313" transform="matrix(.1 0 0 -.1 0 200)"/><path style="fill-rule:nonzero;fill:#eec0a3;fill-opacity:1;stroke-width:7.3;stroke-linecap:round;stroke-linejoin:round;stroke:#000;stroke-opacity:1;stroke-miterlimit:10" d="m1820.234 1184.102-337.343 254.648L1206.484 965" transform="matrix(.1 0 0 -.1 0 200)"/><path style="fill-rule:nonzero;fill:#590745;fill-opacity:1;stroke-width:7.3;stroke-linecap:round;stroke-linejoin:round;stroke:#000;stroke-opacity:1;stroke-miterlimit:10" d="m335.313 553.945 170.664-400.937 494.18-157.266" transform="matrix(.1 0 0 -.1 0 200)"/><path style="stroke:none;fill-rule:nonzero;fill:#8abaf5;fill-opacity:1" d="m25.543 56.414 62.215-6.352-26.692-25.43"/><path style="fill:none;stroke-width:7.3;stroke-linecap:round;stroke-linejoin:round;stroke:#000;stroke-opacity:1;stroke-miterlimit:10" d="m255.43 1435.86 622.148 63.515-266.914 254.297Zm0 0" transform="matrix(.1 0 0 -.1 0 200)"/><path style="fill-rule:nonzero;fill:#452e90;fill-opacity:1;stroke-width:7.3;stroke-linecap:round;stroke-linejoin:round;stroke:#000;stroke-opacity:1;stroke-miterlimit:10" d="M553.516 995.234 255.43 1435.86 67.07 990.156M67.07 990.156l268.243-436.21 218.203 441.288" transform="matrix(.1 0 0 -.1 0 200)"/><path style="stroke:none;fill-rule:nonzero;fill:#cd7b72;fill-opacity:1" d="m100.016 200.426 41.859-43.395-56.266 2.098"/><path style="fill:none;stroke-width:7.3;stroke-linecap:round;stroke-linejoin:round;stroke:#000;stroke-opacity:1;stroke-miterlimit:10" d="m1000.156-4.258 418.594 433.945-562.656-20.976Zm0 0" transform="matrix(.1 0 0 -.1 0 200)"/><path style="fill-rule:nonzero;fill:#590745;fill-opacity:1;stroke-width:7.3;stroke-linecap:round;stroke-linejoin:round;stroke:#000;stroke-opacity:1;stroke-miterlimit:10" d="M1000.156-4.258 856.094 408.711 335.312 553.945" transform="matrix(.1 0 0 -.1 0 200)"/><path style="stroke:none;fill-rule:nonzero;fill:#c4bad0;fill-opacity:1" d="m148.29 56.125-60.532-6.063 32.89 53.438"/><path style="fill:none;stroke-width:7.3;stroke-linecap:round;stroke-linejoin:round;stroke:#000;stroke-opacity:1;stroke-miterlimit:10" d="m1482.89 1438.75-605.312 60.625L1206.484 965Zm0 0" transform="matrix(.1 0 0 -.1 0 200)"/><path style="stroke:none;fill-rule:nonzero;fill:#744387;fill-opacity:1" d="M33.531 144.605 85.61 159.13l-30.257-58.652"/><path style="fill:none;stroke-width:7.3;stroke-linecap:round;stroke-linejoin:round;stroke:#000;stroke-opacity:1;stroke-miterlimit:10" d="m335.313 553.945 520.78-145.234-302.577 586.523Zm0 0" transform="matrix(.1 0 0 -.1 0 200)"/><path style="stroke:none;fill-rule:nonzero;fill:#d59f9d;fill-opacity:1" d="m85.61 159.129 56.265-2.098-21.227-53.531"/><path style="fill:none;stroke-width:7.3;stroke-linecap:round;stroke-linejoin:round;stroke:#000;stroke-opacity:1;stroke-miterlimit:10" d="m856.094 408.71 562.656 20.978L1206.484 965Zm0 0" transform="matrix(.1 0 0 -.1 0 200)"/><path style="stroke:none;fill-rule:nonzero;fill:#a1a7da;fill-opacity:1" d="m55.352 100.477 32.406-50.415-62.215 6.352"/><path style="fill:none;stroke-width:7.3;stroke-linecap:round;stroke-linejoin:round;stroke:#000;stroke-opacity:1;stroke-miterlimit:10" d="m553.516 995.234 324.062 504.141-622.148-63.516Zm0 0" transform="matrix(.1 0 0 -.1 0 200)"/><path style="stroke:none;fill-rule:nonzero;fill:#beb2cd;fill-opacity:1" d="m55.352 100.477 65.296 3.023-32.89-53.438"/><path style="fill:none;stroke-width:7.3;stroke-linecap:round;stroke-linejoin:round;stroke:#000;stroke-opacity:1;stroke-miterlimit:10" d="M553.516 995.234 1206.484 965l-328.906 534.375Zm0 0" transform="matrix(.1 0 0 -.1 0 200)"/><path style="stroke:none;fill-rule:nonzero;fill:#c09bb2;fill-opacity:1" d="m85.61 159.129 35.038-55.629-65.296-3.023"/><path style="fill:none;stroke-width:7.3;stroke-linecap:round;stroke-linejoin:round;stroke:#000;stroke-opacity:1;stroke-miterlimit:10" d="M856.094 408.71 1206.484 965l-652.968 30.234Zm0 0" transform="matrix(.1 0 0 -.1 0 200)"/></svg>