<svg xmlns="http://www.w3.org/2000/svg" width="237.48" height="234.853" viewBox="0 0 178.11 176.14" version="1.2"><defs><clipPath id="a"><path d="M29 75h44v100.273H29Zm0 0"/></clipPath><clipPath id="b"><path d="M22 .012h56V34H22Zm0 0"/></clipPath><clipPath id="c"><path d="M67 .012h59V30H67Zm0 0"/></clipPath><clipPath id="d"><path d="M23 134h50v41.273H23Zm0 0"/></clipPath><clipPath id="e"><path d="M77 .012h62V20H77Zm0 0"/></clipPath><clipPath id="f"><path d="M77 .012h62V21H77Zm0 0"/></clipPath><clipPath id="g"><path d="M72 119h105.223v56.273H72Zm0 0"/></clipPath><clipPath id="h"><path d="M72 169h63v6.273H72Zm0 0"/></clipPath><clipPath id="i"><path d="M171 55h6.223v65H171Zm0 0"/></clipPath><clipPath id="j"><path d="M23 152h62v23.273H23Zm0 0"/></clipPath><clipPath id="k"><path d="M168 55h9.223v65H168Zm0 0"/></clipPath><clipPath id="l"><path d="M22 .012h56V34H22Zm0 0"/></clipPath><clipPath id="m"><path d="M134 119h43.223v52H134Zm0 0"/></clipPath><clipPath id="n"><path d="M43 .012h96V30H43Zm0 0"/></clipPath><clipPath id="o"><path d="M42 .012h97V30H42Zm0 0"/></clipPath><clipPath id="p"><path d="M146 72h31.223v70H146Zm0 0"/></clipPath></defs><path style="stroke:none;fill-rule:nonzero;fill:#d99386;fill-opacity:1" d="m22.336 33.262 45.402-4.028L29.563 75.57l-7.227-42.308"/><path style="fill:none;stroke-width:5.48001;stroke-linecap:round;stroke-linejoin:round;stroke:#231f20;stroke-opacity:1;stroke-miterlimit:10" d="m224.475 1427.222 456.293 40.474-383.666-465.675Zm0 0" transform="matrix(.0995 0 0 -.0995 0 175.274)"/><path style="stroke:none;fill-rule:nonzero;fill:#ecceb3;fill-opacity:1" d="m.273 94.313 29.29-18.743.96 59.133-30.25-40.39"/><path style="fill:none;stroke-width:5.48001;stroke-linecap:round;stroke-linejoin:round;stroke:#231f20;stroke-opacity:1;stroke-miterlimit:10" d="m2.748 813.663 294.354 188.358 9.658-594.282Zm0 0" transform="matrix(.0995 0 0 -.0995 0 175.274)"/><path style="stroke:none;fill-rule:nonzero;fill:#f3b07d;fill-opacity:1" d="m22.336 33.262 7.227 42.308L.273 94.313l22.063-61.051"/><path style="fill:none;stroke-width:5.48001;stroke-linecap:round;stroke-linejoin:round;stroke:#231f20;stroke-opacity:1;stroke-miterlimit:10" d="m224.475 1427.222 72.627-425.2L2.748 813.662Zm0 0" transform="matrix(.0995 0 0 -.0995 0 175.274)"/><path style="stroke:none;fill-rule:nonzero;fill:#a396ca;fill-opacity:1" d="m29.563 75.57 38.175-46.336L72.535 175"/><path style="fill:none;stroke-width:5.48001;stroke-linecap:round;stroke-linejoin:round;stroke:#231f20;stroke-opacity:1;stroke-miterlimit:10" d="m297.102 1002.021 383.666 465.675" transform="matrix(.0995 0 0 -.0995 0 175.274)"/><path style="stroke:none;fill-rule:nonzero;fill:#a396ca;fill-opacity:1" d="m72.535 175-42.012-40.297-.96-59.133"/><g clip-path="url(#a)"><path style="fill:none;stroke-width:5.48001;stroke-linecap:round;stroke-linejoin:round;stroke:#231f20;stroke-opacity:1;stroke-miterlimit:10" d="M728.976 2.756 306.76 407.74l-9.658 594.282" transform="matrix(.0995 0 0 -.0995 0 175.274)"/></g><g clip-path="url(#b)"><path style="stroke:none;fill-rule:nonzero;fill:#c05c42;fill-opacity:1" d="m77.629.277-9.89 28.957-45.403 4.028L77.629.277"/><path style="fill:none;stroke-width:5.48001;stroke-linecap:round;stroke-linejoin:round;stroke:#231f20;stroke-opacity:1;stroke-miterlimit:10" d="m780.168 1758.713-99.4-291.017-456.293-40.474Zm0 0" transform="matrix(.0995 0 0 -.0995 0 175.274)"/></g><g clip-path="url(#c)"><path style="stroke:none;fill-rule:nonzero;fill:#a24658;fill-opacity:1" d="m77.629.277 47.98 19.684-57.87 9.273L77.628.277"/><path style="fill:none;stroke-width:5.48001;stroke-linecap:round;stroke-linejoin:round;stroke:#231f20;stroke-opacity:1;stroke-miterlimit:10" d="m780.168 1758.713 482.202-197.819-581.602-93.198Zm0 0" transform="matrix(.0995 0 0 -.0995 0 175.274)"/></g><path style="stroke:none;fill-rule:nonzero;fill:#a396ca;fill-opacity:1" d="m67.738 29.234 57.871-9.273L72.535 175"/><path style="fill:none;stroke-width:5.48001;stroke-linecap:round;stroke-linejoin:round;stroke:#231f20;stroke-opacity:1;stroke-miterlimit:10" d="m680.768 1467.696 581.602 93.198" transform="matrix(.0995 0 0 -.0995 0 175.274)"/><path style="stroke:none;fill-rule:nonzero;fill:#cbede7;fill-opacity:1" d="m23.93 152.414 6.593-17.71L72.535 175 23.93 152.414"/><g clip-path="url(#d)"><path style="fill:none;stroke-width:5.48001;stroke-linecap:round;stroke-linejoin:round;stroke:#231f20;stroke-opacity:1;stroke-miterlimit:10" d="M240.493 229.744 306.76 407.74 728.976 2.756Zm0 0" transform="matrix(.0995 0 0 -.0995 0 175.274)"/></g><path style="stroke:none;fill-rule:nonzero;fill:#eaf1b0;fill-opacity:1" d="m.273 94.313 30.25 40.39-6.593 17.711L.273 94.313"/><path style="fill:none;stroke-width:5.48001;stroke-linecap:round;stroke-linejoin:round;stroke:#231f20;stroke-opacity:1;stroke-miterlimit:10" d="M2.748 813.663 306.76 407.74l-66.267-177.995Zm0 0" transform="matrix(.0995 0 0 -.0995 0 175.274)"/><g clip-path="url(#e)"><path style="stroke:none;fill-rule:nonzero;fill:#2d0e10;fill-opacity:1" d="m138.371 14.453-12.762 5.508L77.63.277l60.742 14.176"/></g><g clip-path="url(#f)"><path style="fill:none;stroke-width:5.48001;stroke-linecap:round;stroke-linejoin:round;stroke:#231f20;stroke-opacity:1;stroke-miterlimit:10" d="m1390.625 1616.247-128.255-55.353-482.202 197.82Zm0 0" transform="matrix(.0995 0 0 -.0995 0 175.274)"/></g><path style="stroke:none;fill-rule:nonzero;fill:#231f20;fill-opacity:1" d="m138.371 14.453 33.715 41.469-46.477-35.961 12.762-5.508"/><path style="fill:none;stroke-width:5.48001;stroke-linecap:round;stroke-linejoin:round;stroke:#231f20;stroke-opacity:1;stroke-miterlimit:10" d="m1390.625 1616.247 338.833-416.76-467.088 361.407Zm0 0" transform="matrix(.0995 0 0 -.0995 0 175.274)"/><path style="stroke:none;fill-rule:nonzero;fill:#a396ca;fill-opacity:1" d="m125.61 19.96 46.476 35.962L72.536 175"/><path style="fill:none;stroke-width:5.48001;stroke-linecap:round;stroke-linejoin:round;stroke:#231f20;stroke-opacity:1;stroke-miterlimit:10" d="m1262.37 1560.894 467.088-361.406" transform="matrix(.0995 0 0 -.0995 0 175.274)"/><path style="stroke:none;fill-rule:nonzero;fill:#a396ca;fill-opacity:1" d="m176.953 119.355-42.644 50.676L72.535 175"/><g clip-path="url(#g)"><path style="fill:none;stroke-width:5.48001;stroke-linecap:round;stroke-linejoin:round;stroke:#231f20;stroke-opacity:1;stroke-miterlimit:10" d="m1778.373 561.982-428.576-509.29-620.82-49.936" transform="matrix(.0995 0 0 -.0995 0 175.274)"/></g><path style="stroke:none;fill-rule:nonzero;fill:#271916;fill-opacity:1" d="M84.156 173.805 72.536 175l61.773-4.969-50.153 3.774"/><g clip-path="url(#h)"><path style="fill:none;stroke-width:5.48001;stroke-linecap:round;stroke-linejoin:round;stroke:#231f20;stroke-opacity:1;stroke-miterlimit:10" d="M845.768 14.769 728.976 2.756l620.821 49.936Zm0 0" transform="matrix(.0995 0 0 -.0995 0 175.274)"/></g><path style="stroke:none;fill-rule:nonzero;fill:#a396ca;fill-opacity:1" d="m172.086 55.922 4.867 63.433L72.535 175"/><g clip-path="url(#i)"><path style="fill:none;stroke-width:5.48001;stroke-linecap:round;stroke-linejoin:round;stroke:#231f20;stroke-opacity:1;stroke-miterlimit:10" d="m1729.458 1199.488 48.915-637.506" transform="matrix(.0995 0 0 -.0995 0 175.274)"/></g><path style="stroke:none;fill-rule:nonzero;fill:#231f20;fill-opacity:1" d="M23.93 152.414 72.535 175l11.621-1.195-60.226-21.39"/><g clip-path="url(#j)"><path style="fill:none;stroke-width:5.48001;stroke-linecap:round;stroke-linejoin:round;stroke:#231f20;stroke-opacity:1;stroke-miterlimit:10" d="M240.493 229.744 728.976 2.756 845.768 14.77Zm0 0" transform="matrix(.0995 0 0 -.0995 0 175.274)"/></g><path style="stroke:none;fill-rule:nonzero;fill:#def0af;fill-opacity:1" d="m168.973 72.469 3.113-16.547-33.715-41.469 30.602 58.016"/><path style="fill:none;stroke-width:5.48001;stroke-linecap:round;stroke-linejoin:round;stroke:#231f20;stroke-opacity:1;stroke-miterlimit:10" d="m1698.17 1033.192 31.288 166.296-338.833 416.76Zm0 0" transform="matrix(.0995 0 0 -.0995 0 175.274)"/><path style="stroke:none;fill-rule:nonzero;fill:#d6bf43;fill-opacity:1" d="m176.953 119.355-4.867-63.433-3.113 16.547 7.98 46.886"/><g clip-path="url(#k)"><path style="fill:none;stroke-width:5.48001;stroke-linecap:round;stroke-linejoin:round;stroke:#231f20;stroke-opacity:1;stroke-miterlimit:10" d="m1778.373 561.982-48.915 637.506-31.288-166.296Zm0 0" transform="matrix(.0995 0 0 -.0995 0 175.274)"/></g><path style="fill-rule:nonzero;fill:#2a4da8;fill-opacity:1;stroke-width:5.48001;stroke-linecap:round;stroke-linejoin:round;stroke:#231f20;stroke-opacity:1;stroke-miterlimit:10" d="M224.475 1427.222 2.748 813.663l188.594-25.989M191.342 787.674l243.398 680.611-210.265-41.063" transform="matrix(.0995 0 0 -.0995 0 175.274)"/><g clip-path="url(#l)"><path style="stroke:none;fill-rule:nonzero;fill:#2278c7;fill-opacity:1" d="M43.258 29.176 77.628.277 22.337 33.262l20.922-4.086"/><path style="fill:none;stroke-width:5.48001;stroke-linecap:round;stroke-linejoin:round;stroke:#231f20;stroke-opacity:1;stroke-miterlimit:10" d="m434.74 1468.285 345.428 290.428-555.693-331.491Zm0 0" transform="matrix(.0995 0 0 -.0995 0 175.274)"/></g><path style="stroke:none;fill-rule:nonzero;fill:#2b2e6a;fill-opacity:1" d="M19.04 96.898.272 94.313l23.657 58.101-4.89-55.516"/><path style="fill:none;stroke-width:5.48001;stroke-linecap:round;stroke-linejoin:round;stroke:#231f20;stroke-opacity:1;stroke-miterlimit:10" d="M191.342 787.674 2.748 813.664l237.745-583.92Zm0 0" transform="matrix(.0995 0 0 -.0995 0 175.274)"/><path style="stroke:none;fill-rule:nonzero;fill:#cb6421;fill-opacity:1" d="m146.402 140.746-12.093 29.285 42.644-50.676-30.55 21.391"/><g clip-path="url(#m)"><path style="fill:none;stroke-width:5.48001;stroke-linecap:round;stroke-linejoin:round;stroke:#231f20;stroke-opacity:1;stroke-miterlimit:10" d="M1471.339 347.007 1349.797 52.692l428.576 509.29Zm0 0" transform="matrix(.0995 0 0 -.0995 0 175.274)"/></g><path style="stroke:none;fill-rule:nonzero;fill:#b85237;fill-opacity:1" d="m84.156 173.805 50.153-3.774 12.093-29.285-62.246 33.059"/><path style="fill:none;stroke-width:5.48001;stroke-linecap:round;stroke-linejoin:round;stroke:#231f20;stroke-opacity:1;stroke-miterlimit:10" d="m845.768 14.769 504.03 37.923 121.541 294.315Zm0 0" transform="matrix(.0995 0 0 -.0995 0 175.274)"/><g clip-path="url(#n)"><path style="stroke:none;fill-rule:nonzero;fill:#9fccee;fill-opacity:1" d="M138.371 14.453 77.63.277 43.258 29.176"/></g><g clip-path="url(#o)"><path style="fill:none;stroke-width:5.48001;stroke-linecap:round;stroke-linejoin:round;stroke:#231f20;stroke-opacity:1;stroke-miterlimit:10" d="m1390.625 1616.247-610.457 142.466-345.428-290.428" transform="matrix(.0995 0 0 -.0995 0 175.274)"/></g><path style="stroke:none;fill-rule:nonzero;fill:#f2b37b;fill-opacity:1" d="m146.402 140.746 30.551-21.39-7.98-46.887-22.57 68.277"/><g clip-path="url(#p)"><path style="fill:none;stroke-width:5.48001;stroke-linecap:round;stroke-linejoin:round;stroke:#231f20;stroke-opacity:1;stroke-miterlimit:10" d="m1471.339 347.007 307.034 214.975-80.203 471.21Zm0 0" transform="matrix(.0995 0 0 -.0995 0 175.274)"/></g><path style="fill-rule:nonzero;fill:#8c5a94;fill-opacity:1;stroke-width:5.48001;stroke-linecap:round;stroke-linejoin:round;stroke:#231f20;stroke-opacity:1;stroke-miterlimit:10" d="M240.493 229.744 845.768 14.77l-8.009 569.158" transform="matrix(.0995 0 0 -.0995 0 175.274)"/><path style="fill-rule:nonzero;fill:#8c5a94;fill-opacity:1;stroke-width:5.48001;stroke-linecap:round;stroke-linejoin:round;stroke:#231f20;stroke-opacity:1;stroke-miterlimit:10" d="M837.76 583.927 191.341 787.674l49.15-557.93" transform="matrix(.0995 0 0 -.0995 0 175.274)"/><path style="fill-rule:nonzero;fill:#9fccee;fill-opacity:1;stroke-width:5.48001;stroke-linecap:round;stroke-linejoin:round;stroke:#231f20;stroke-opacity:1;stroke-miterlimit:10" d="m434.74 1468.285 649.165-168.965 306.72 316.927" transform="matrix(.0995 0 0 -.0995 0 175.274)"/><path style="stroke:none;fill-rule:nonzero;fill:#d6d7dd;fill-opacity:1" d="m107.852 45.988 61.12 26.48-30.6-58.015-30.52 31.535"/><path style="fill:none;stroke-width:5.48001;stroke-linecap:round;stroke-linejoin:round;stroke:#231f20;stroke-opacity:1;stroke-miterlimit:10" d="m1083.905 1299.32 614.265-266.128-307.545 583.055Zm0 0" transform="matrix(.0995 0 0 -.0995 0 175.274)"/><path style="stroke:none;fill-rule:nonzero;fill:#bb7c93;fill-opacity:1" d="m83.36 117.172.796 56.633 62.246-33.059-63.043-23.574"/><path style="fill:none;stroke-width:5.48001;stroke-linecap:round;stroke-linejoin:round;stroke:#231f20;stroke-opacity:1;stroke-miterlimit:10" d="m837.76 583.927 8.008-569.158 625.571 332.238Zm0 0" transform="matrix(.0995 0 0 -.0995 0 175.274)"/><path style="fill-rule:nonzero;fill:#cda9ba;fill-opacity:1;stroke-width:5.48001;stroke-linecap:round;stroke-linejoin:round;stroke:#231f20;stroke-opacity:1;stroke-miterlimit:10" d="m1471.339 347.007 226.831 686.185-614.265 266.128" transform="matrix(.0995 0 0 -.0995 0 175.274)"/><path style="fill-rule:nonzero;fill:#9f95ca;fill-opacity:1;stroke-width:5.48001;stroke-linecap:round;stroke-linejoin:round;stroke:#231f20;stroke-opacity:1;stroke-miterlimit:10" d="M1083.905 1299.32 434.74 1468.285l-243.398-680.61" transform="matrix(.0995 0 0 -.0995 0 175.274)"/><path style="fill-rule:nonzero;fill:#cda9ba;fill-opacity:1;stroke-width:5.48001;stroke-linecap:round;stroke-linejoin:round;stroke:#231f20;stroke-opacity:1;stroke-miterlimit:10" d="M1083.905 1299.32 837.759 583.927l633.58-236.92" transform="matrix(.0995 0 0 -.0995 0 175.274)"/><path style="fill-rule:nonzero;fill:#9f95ca;fill-opacity:1;stroke-width:5.48001;stroke-linecap:round;stroke-linejoin:round;stroke:#231f20;stroke-opacity:1;stroke-miterlimit:10" d="m191.342 787.674 646.417-203.747 246.146 715.393" transform="matrix(.0995 0 0 -.0995 0 175.274)"/></svg>