<svg xmlns="http://www.w3.org/2000/svg" width="252.16" height="244.6" viewBox="0 0 189.12 183.45" version="1.2"><defs><clipPath id="a"><path d="M32 .152h52V37H32Zm0 0"/></clipPath><clipPath id="b"><path d="M67 .152h52V37H67Zm0 0"/></clipPath><clipPath id="c"><path d="M83 .152h54V28H83Zm0 0"/></clipPath><clipPath id="d"><path d="M82 .152h55V28H82Zm0 0"/></clipPath><clipPath id="e"><path d="M163 34h25.242v52H163Zm0 0"/></clipPath><clipPath id="f"><path d="M163 44h25.242v42H163Zm0 0"/></clipPath><clipPath id="g"><path d="M32 .152h52V40H32Zm0 0"/></clipPath><clipPath id="h"><path d="M39 .152h56V40H39Zm0 0"/></clipPath><clipPath id="i"><path d="M83 .152h54V16H83Zm0 0"/></clipPath><clipPath id="j"><path d="M82 .152h55V16H82Zm0 0"/></clipPath><clipPath id="k"><path d="M174 34h14.242v52H174Zm0 0"/></clipPath><clipPath id="l"><path d="M133 85h55.242v90H133Zm0 0"/></clipPath><clipPath id="m"><path d="M177 84h11.242v52H177Zm0 0"/></clipPath><clipPath id="n"><path d="M28 158h106v24.75H28Zm0 0"/></clipPath><clipPath id="o"><path d="M27 157h107v25.75H27Zm0 0"/></clipPath><clipPath id="p"><path d="M28 151h47v31.75H28Zm0 0"/></clipPath><clipPath id="q"><path d="M27 151h49v31.75H27Zm0 0"/></clipPath><clipPath id="r"><path d="M74 160h60v22.75H74Zm0 0"/></clipPath><clipPath id="s"><path d="M34 151h60v31.75H34Zm0 0"/></clipPath><clipPath id="t"><path d="M34 151h61v31.75H34Zm0 0"/></clipPath></defs><path style="stroke:none;fill-rule:nonzero;fill:#d59492;fill-opacity:1" d="m32.79 22.86 34.776 13.28-40.168 31.97 5.391-45.25"/><path style="fill:none;stroke-width:5.99503;stroke-linecap:round;stroke-linejoin:round;stroke:#231f20;stroke-opacity:1;stroke-miterlimit:10" d="m329.416 1606.36 349.392-133.43-403.549-321.175Zm0 0" transform="matrix(.09954 0 0 -.09954 0 182.751)"/><g clip-path="url(#a)"><path style="stroke:none;fill-rule:nonzero;fill:#c57677;fill-opacity:1" d="M83.023.445 67.566 36.141 32.79 22.859 83.023.445"/><path style="fill:none;stroke-width:5.99503;stroke-linecap:round;stroke-linejoin:round;stroke:#231f20;stroke-opacity:1;stroke-miterlimit:10" d="m834.098 1831.544-155.29-358.614-349.392 133.43Zm0 0" transform="matrix(.09954 0 0 -.09954 0 182.751)"/></g><g clip-path="url(#b)"><path style="stroke:none;fill-rule:nonzero;fill:#b26c87;fill-opacity:1" d="m83.023.445 35.457 26.793-50.914 8.903L83.023.445"/><path style="fill:none;stroke-width:5.99503;stroke-linecap:round;stroke-linejoin:round;stroke:#231f20;stroke-opacity:1;stroke-miterlimit:10" d="m834.098 1831.544 356.22-269.176-511.51-89.438Zm0 0" transform="matrix(.09954 0 0 -.09954 0 182.751)"/></g><path style="stroke:none;fill-rule:nonzero;fill:#a6a7d8;fill-opacity:1" d="m67.566 36.14 50.914-8.902 15.094 146.785"/><path style="fill:none;stroke-width:5.99503;stroke-linecap:round;stroke-linejoin:round;stroke:#231f20;stroke-opacity:1;stroke-miterlimit:10" d="m678.808 1472.93 511.51 89.438" transform="matrix(.09954 0 0 -.09954 0 182.751)"/><path style="stroke:none;fill-rule:nonzero;fill:#a6a7d8;fill-opacity:1" d="m27.398 68.11 40.168-31.97 66.008 137.883"/><path style="fill:none;stroke-width:5.99503;stroke-linecap:round;stroke-linejoin:round;stroke:#231f20;stroke-opacity:1;stroke-miterlimit:10" d="m275.26 1151.755 403.548 321.175" transform="matrix(.09954 0 0 -.09954 0 182.751)"/><g clip-path="url(#c)"><path style="stroke:none;fill-rule:nonzero;fill:#943f64;fill-opacity:1" d="m136.2 4.348-17.72 22.89L83.023.445 136.2 4.348"/></g><g clip-path="url(#d)"><path style="fill:none;stroke-width:5.99503;stroke-linecap:round;stroke-linejoin:round;stroke:#231f20;stroke-opacity:1;stroke-miterlimit:10" d="m1368.33 1792.34-178.012-229.972-356.22 269.176Zm0 0" transform="matrix(.09954 0 0 -.09954 0 182.751)"/></g><path style="stroke:none;fill-rule:nonzero;fill:#7f407b;fill-opacity:1" d="m136.2 4.348 27.952 40.574-45.672-17.684 17.72-22.89"/><path style="fill:none;stroke-width:5.99503;stroke-linecap:round;stroke-linejoin:round;stroke:#231f20;stroke-opacity:1;stroke-miterlimit:10" d="m1368.33 1792.34 280.832-407.63-458.844 177.658Zm0 0" transform="matrix(.09954 0 0 -.09954 0 182.751)"/><path style="stroke:none;fill-rule:nonzero;fill:#a6a7d8;fill-opacity:1" d="m118.48 27.238 45.672 17.684-30.578 129.101"/><path style="fill:none;stroke-width:5.99503;stroke-linecap:round;stroke-linejoin:round;stroke:#231f20;stroke-opacity:1;stroke-miterlimit:10" d="m1190.318 1562.368 458.844-177.659" transform="matrix(.09954 0 0 -.09954 0 182.751)"/><path style="stroke:none;fill-rule:nonzero;fill:#eec2a0;fill-opacity:1" d="m1.117 64.848 26.281 3.261-15.894 45.668-10.387-48.93"/><path style="fill:none;stroke-width:5.99503;stroke-linecap:round;stroke-linejoin:round;stroke:#231f20;stroke-opacity:1;stroke-miterlimit:10" d="m11.224 1184.524 264.035-32.769L115.574 692.95Zm0 0" transform="matrix(.09954 0 0 -.09954 0 182.751)"/><path style="stroke:none;fill-rule:nonzero;fill:#e8a47f;fill-opacity:1" d="m32.79 22.86-5.392 45.25-26.28-3.262 31.671-41.989"/><path style="fill:none;stroke-width:5.99503;stroke-linecap:round;stroke-linejoin:round;stroke:#231f20;stroke-opacity:1;stroke-miterlimit:10" d="m329.416 1606.36-54.157-454.605-264.035 32.77Zm0 0" transform="matrix(.09954 0 0 -.09954 0 182.751)"/><path style="stroke:none;fill-rule:nonzero;fill:#a6a7d8;fill-opacity:1" d="M11.504 113.777 27.398 68.11l106.176 105.914"/><path style="fill:none;stroke-width:5.99503;stroke-linecap:round;stroke-linejoin:round;stroke:#231f20;stroke-opacity:1;stroke-miterlimit:10" d="m115.574 692.95 159.685 458.805" transform="matrix(.09954 0 0 -.09954 0 182.751)"/><path style="stroke:none;fill-rule:nonzero;fill:#24172e;fill-opacity:1" d="m174.926 35.086-10.774 9.836L136.2 4.348l38.727 30.738"/><path style="fill:none;stroke-width:5.99503;stroke-linecap:round;stroke-linejoin:round;stroke:#231f20;stroke-opacity:1;stroke-miterlimit:10" d="m1757.397 1483.526-108.235-98.817-280.832 407.63Zm0 0" transform="matrix(.09954 0 0 -.09954 0 182.751)"/><path style="stroke:none;fill-rule:nonzero;fill:#28285c;fill-opacity:1" d="m174.926 35.086 13.02 50.398-23.794-40.562 10.774-9.836"/><g clip-path="url(#e)"><path style="fill:none;stroke-width:5.99503;stroke-linecap:round;stroke-linejoin:round;stroke:#231f20;stroke-opacity:1;stroke-miterlimit:10" d="m1757.397 1483.526 130.801-506.33-239.036 407.513Zm0 0" transform="matrix(.09954 0 0 -.09954 0 182.751)"/></g><path style="stroke:none;fill-rule:nonzero;fill:#a6a7d8;fill-opacity:1" d="m164.152 44.922 23.793 40.562-54.37 88.54"/><g clip-path="url(#f)"><path style="fill:none;stroke-width:5.99503;stroke-linecap:round;stroke-linejoin:round;stroke:#231f20;stroke-opacity:1;stroke-miterlimit:10" d="m1649.162 1384.71 239.036-407.513" transform="matrix(.09954 0 0 -.09954 0 182.751)"/></g><path style="stroke:none;fill-rule:nonzero;fill:#e5f0a6;fill-opacity:1" d="m.297 113.8 11.207-.023 16.719 44.254-27.926-44.23"/><path style="fill:none;stroke-width:5.99503;stroke-linecap:round;stroke-linejoin:round;stroke:#231f20;stroke-opacity:1;stroke-miterlimit:10" d="m2.983 692.715 112.591.235L283.54 248.352Zm0 0" transform="matrix(.09954 0 0 -.09954 0 182.751)"/><path style="stroke:none;fill-rule:nonzero;fill:#f4d67a;fill-opacity:1" d="m1.117 64.848 10.387 48.93-11.207.023.82-48.953"/><path style="fill:none;stroke-width:5.99503;stroke-linecap:round;stroke-linejoin:round;stroke:#231f20;stroke-opacity:1;stroke-miterlimit:10" d="m11.224 1184.524 104.35-491.574-112.591-.235Zm0 0" transform="matrix(.09954 0 0 -.09954 0 182.751)"/><path style="stroke:none;fill-rule:nonzero;fill:#a6a7d8;fill-opacity:1" d="m28.223 158.031-16.72-44.254 122.071 60.246"/><path style="fill:none;stroke-width:5.99503;stroke-linecap:round;stroke-linejoin:round;stroke:#231f20;stroke-opacity:1;stroke-miterlimit:10" d="M283.54 248.352 115.574 692.95" transform="matrix(.09954 0 0 -.09954 0 182.751)"/><g clip-path="url(#g)"><path style="fill-rule:nonzero;fill:#5aace3;fill-opacity:1;stroke-width:5.99503;stroke-linecap:round;stroke-linejoin:round;stroke:#231f20;stroke-opacity:1;stroke-miterlimit:10" d="m834.098 1831.544-504.682-225.183 70.444-166.475" transform="matrix(.09954 0 0 -.09954 0 182.751)"/></g><g clip-path="url(#h)"><path style="fill-rule:nonzero;fill:#5aace3;fill-opacity:1;stroke-width:5.99503;stroke-linecap:round;stroke-linejoin:round;stroke:#231f20;stroke-opacity:1;stroke-miterlimit:10" d="m399.86 1439.886 545.299 243.943-111.061 147.715" transform="matrix(.09954 0 0 -.09954 0 182.751)"/></g><g clip-path="url(#i)"><path style="stroke:none;fill-rule:nonzero;fill:#7cd1f5;fill-opacity:1" d="m94.078 15.148 42.121-10.8L83.023.445l11.055 14.703"/></g><g clip-path="url(#j)"><path style="fill:none;stroke-width:5.99503;stroke-linecap:round;stroke-linejoin:round;stroke:#231f20;stroke-opacity:1;stroke-miterlimit:10" d="m945.159 1683.829 423.17 108.51-534.231 39.205Zm0 0" transform="matrix(.09954 0 0 -.09954 0 182.751)"/></g><path style="stroke:none;fill-rule:nonzero;fill:#327dc9;fill-opacity:1" d="m39.8 39.43-7.01-16.57L1.116 64.847 39.801 39.43"/><path style="fill:none;stroke-width:5.99503;stroke-linecap:round;stroke-linejoin:round;stroke:#231f20;stroke-opacity:1;stroke-miterlimit:10" d="m399.86 1439.886-70.444 166.475-318.192-421.837Zm0 0" transform="matrix(.09954 0 0 -.09954 0 182.751)"/><path style="fill-rule:nonzero;fill:#b9d6ed;fill-opacity:1;stroke-width:5.99503;stroke-linecap:round;stroke-linejoin:round;stroke:#231f20;stroke-opacity:1;stroke-miterlimit:10" d="M1757.397 1483.526 1368.33 1792.34l-423.171-108.51" transform="matrix(.09954 0 0 -.09954 0 182.751)"/><path style="stroke:none;fill-rule:nonzero;fill:#d9d05c;fill-opacity:1" d="m182.793 84.465 5.152 1.02-13.02-50.4 7.868 49.38"/><g clip-path="url(#k)"><path style="fill:none;stroke-width:5.99503;stroke-linecap:round;stroke-linejoin:round;stroke:#231f20;stroke-opacity:1;stroke-miterlimit:10" d="m1836.435 987.44 51.763-10.243-130.8 506.33Zm0 0" transform="matrix(.09954 0 0 -.09954 0 182.751)"/></g><path style="stroke:none;fill-rule:nonzero;fill:#a6a7d8;fill-opacity:1" d="m187.945 85.484-10.468 50.106-43.903 38.433"/><g clip-path="url(#l)"><path style="fill:none;stroke-width:5.99503;stroke-linecap:round;stroke-linejoin:round;stroke:#231f20;stroke-opacity:1;stroke-miterlimit:10" d="M1888.198 977.197 1783.024 473.81 1341.958 87.686" transform="matrix(.09954 0 0 -.09954 0 182.751)"/></g><path style="stroke:none;fill-rule:nonzero;fill:#dba429;fill-opacity:1" d="m182.793 84.465-5.316 51.125 10.468-50.106-5.152-1.02"/><g clip-path="url(#m)"><path style="fill:none;stroke-width:5.99503;stroke-linecap:round;stroke-linejoin:round;stroke:#231f20;stroke-opacity:1;stroke-miterlimit:10" d="m1836.435 987.44-53.411-513.63 105.174 503.387Zm0 0" transform="matrix(.09954 0 0 -.09954 0 182.751)"/></g><path style="fill-rule:nonzero;fill:#6c7fc8;fill-opacity:1;stroke-width:5.99503;stroke-linecap:round;stroke-linejoin:round;stroke:#231f20;stroke-opacity:1;stroke-miterlimit:10" d="M11.224 1184.524 2.983 692.715l407.944 242.883" transform="matrix(.09954 0 0 -.09954 0 182.751)"/><path style="fill-rule:nonzero;fill:#6c7fc8;fill-opacity:1;stroke-width:5.99503;stroke-linecap:round;stroke-linejoin:round;stroke:#231f20;stroke-opacity:1;stroke-miterlimit:10" d="m410.927 935.598-11.067 504.288-388.636-255.362" transform="matrix(.09954 0 0 -.09954 0 182.751)"/><g clip-path="url(#n)"><path style="stroke:none;fill-rule:nonzero;fill:#a6a7d8;fill-opacity:1" d="m133.574 174.023-58.656 8.43-46.695-24.422"/></g><g clip-path="url(#o)"><path style="fill:none;stroke-width:5.99503;stroke-linecap:round;stroke-linejoin:round;stroke:#231f20;stroke-opacity:1;stroke-miterlimit:10" d="M1341.958 87.686 752.666 2.997 283.54 248.352" transform="matrix(.09954 0 0 -.09954 0 182.751)"/></g><g clip-path="url(#p)"><path style="stroke:none;fill-rule:nonzero;fill:#231f20;fill-opacity:1" d="m34.734 151.688-6.511 6.343 46.695 24.422-40.184-30.766"/></g><g clip-path="url(#q)"><path style="fill:none;stroke-width:5.99503;stroke-linecap:round;stroke-linejoin:round;stroke:#231f20;stroke-opacity:1;stroke-miterlimit:10" d="m348.96 312.085-65.42-63.733L752.666 2.997Zm0 0" transform="matrix(.09954 0 0 -.09954 0 182.751)"/></g><path style="stroke:none;fill-rule:nonzero;fill:#231f20;fill-opacity:1" d="m.297 113.8 27.926 44.231 6.511-6.344L.297 113.802"/><path style="fill:none;stroke-width:5.99503;stroke-linecap:round;stroke-linejoin:round;stroke:#231f20;stroke-opacity:1;stroke-miterlimit:10" d="M2.983 692.715 283.54 248.352l65.42 63.733Zm0 0" transform="matrix(.09954 0 0 -.09954 0 182.751)"/><path style="fill-rule:nonzero;fill:#b9d6ed;fill-opacity:1;stroke-width:5.99503;stroke-linecap:round;stroke-linejoin:round;stroke:#231f20;stroke-opacity:1;stroke-miterlimit:10" d="m945.159 1683.829 390.676-331.653 421.562 131.35" transform="matrix(.09954 0 0 -.09954 0 182.751)"/><path style="stroke:none;fill-rule:nonzero;fill:#cfcdda;fill-opacity:1" d="m132.965 48.16 49.828 36.305-7.867-49.38-41.961 13.075"/><path style="fill:none;stroke-width:5.99503;stroke-linecap:round;stroke-linejoin:round;stroke:#231f20;stroke-opacity:1;stroke-miterlimit:10" d="m1335.835 1352.176 500.6-364.737-79.038 496.087Zm0 0" transform="matrix(.09954 0 0 -.09954 0 182.751)"/><path style="stroke:none;fill-rule:nonzero;fill:#efa977;fill-opacity:1" d="m152.25 133.883 25.227 1.707 5.316-51.125-30.543 49.418"/><path style="fill:none;stroke-width:5.99503;stroke-linecap:round;stroke-linejoin:round;stroke:#231f20;stroke-opacity:1;stroke-miterlimit:10" d="m1529.584 490.96 253.44-17.15 53.411 513.63Zm0 0" transform="matrix(.09954 0 0 -.09954 0 182.751)"/><path style="stroke:none;fill-rule:nonzero;fill:#da7947;fill-opacity:1" d="m152.25 133.883-18.676 40.14 43.903-38.433-25.227-1.707"/><path style="fill:none;stroke-width:5.99503;stroke-linecap:round;stroke-linejoin:round;stroke:#231f20;stroke-opacity:1;stroke-miterlimit:10" d="M1529.584 490.96 1341.958 87.686l441.066 386.124Zm0 0" transform="matrix(.09954 0 0 -.09954 0 182.751)"/><path style="fill-rule:nonzero;fill:#a3aada;fill-opacity:1;stroke-width:5.99503;stroke-linecap:round;stroke-linejoin:round;stroke:#231f20;stroke-opacity:1;stroke-miterlimit:10" d="m945.159 1683.829-545.3-243.943 11.068-504.288" transform="matrix(.09954 0 0 -.09954 0 182.751)"/><path style="stroke:none;fill-rule:nonzero;fill:#a3aada;fill-opacity:1" d="M132.965 48.16 94.078 15.148 40.902 89.625"/><path style="fill:none;stroke-width:5.99503;stroke-linecap:round;stroke-linejoin:round;stroke:#231f20;stroke-opacity:1;stroke-miterlimit:10" d="M1335.835 1352.176 945.16 1683.829" transform="matrix(.09954 0 0 -.09954 0 182.751)"/><g clip-path="url(#r)"><path style="stroke:none;fill-rule:nonzero;fill:#9d3437;fill-opacity:1" d="m93.965 160.465-19.047 21.988 58.656-8.43-39.61-13.558"/><path style="fill:none;stroke-width:5.99503;stroke-linecap:round;stroke-linejoin:round;stroke:#231f20;stroke-opacity:1;stroke-miterlimit:10" d="M944.02 223.903 752.667 2.997l589.292 84.69Zm0 0" transform="matrix(.09954 0 0 -.09954 0 182.751)"/></g><g clip-path="url(#s)"><path style="stroke:none;fill-rule:nonzero;fill:#862c55;fill-opacity:1" d="m34.734 151.688 40.184 30.765 19.047-21.988-59.23-8.778"/></g><g clip-path="url(#t)"><path style="fill:none;stroke-width:5.99503;stroke-linecap:round;stroke-linejoin:round;stroke:#231f20;stroke-opacity:1;stroke-miterlimit:10" d="M348.96 312.085 752.666 2.997 944.02 223.903Zm0 0" transform="matrix(.09954 0 0 -.09954 0 182.751)"/></g><path style="stroke:none;fill-rule:nonzero;fill:#8479c0;fill-opacity:1" d="M40.902 89.625.297 113.801l34.437 37.886 6.168-62.062"/><path style="fill:none;stroke-width:5.99503;stroke-linecap:round;stroke-linejoin:round;stroke:#231f20;stroke-opacity:1;stroke-miterlimit:10" d="M410.927 935.598 2.983 692.715l345.977-380.63Zm0 0" transform="matrix(.09954 0 0 -.09954 0 182.751)"/><path style="stroke:none;fill-rule:nonzero;fill:#c57270;fill-opacity:1" d="m93.965 160.465 39.61 13.558 18.675-40.14-58.285 26.582"/><path style="fill:none;stroke-width:5.99503;stroke-linecap:round;stroke-linejoin:round;stroke:#231f20;stroke-opacity:1;stroke-miterlimit:10" d="m944.02 223.903 397.938-136.217 187.626 403.274Zm0 0" transform="matrix(.09954 0 0 -.09954 0 182.751)"/><path style="fill-rule:nonzero;fill:#c3b1cc;fill-opacity:1;stroke-width:5.99503;stroke-linecap:round;stroke-linejoin:round;stroke:#231f20;stroke-opacity:1;stroke-miterlimit:10" d="m1529.584 490.96 306.851 496.48-500.6 364.736" transform="matrix(.09954 0 0 -.09954 0 182.751)"/><path style="fill-rule:nonzero;fill:#c3b1cc;fill-opacity:1;stroke-width:5.99503;stroke-linecap:round;stroke-linejoin:round;stroke:#231f20;stroke-opacity:1;stroke-miterlimit:10" d="m1335.835 1352.176-326.159-487.179 519.908-374.037" transform="matrix(.09954 0 0 -.09954 0 182.751)"/><path style="fill-rule:nonzero;fill:#a3aada;fill-opacity:1;stroke-width:5.99503;stroke-linecap:round;stroke-linejoin:round;stroke:#231f20;stroke-opacity:1;stroke-miterlimit:10" d="m410.927 935.598 598.75-70.6 326.158 487.178" transform="matrix(.09954 0 0 -.09954 0 182.751)"/><path style="fill-rule:nonzero;fill:#a48cc1;fill-opacity:1;stroke-width:5.99503;stroke-linecap:round;stroke-linejoin:round;stroke:#231f20;stroke-opacity:1;stroke-miterlimit:10" d="m348.96 312.085 595.06-88.182 65.656 641.094" transform="matrix(.09954 0 0 -.09954 0 182.751)"/><path style="fill-rule:nonzero;fill:#a48cc1;fill-opacity:1;stroke-width:5.99503;stroke-linecap:round;stroke-linejoin:round;stroke:#231f20;stroke-opacity:1;stroke-miterlimit:10" d="m1009.676 864.997-598.75 70.6-61.966-623.512" transform="matrix(.09954 0 0 -.09954 0 182.751)"/><path style="stroke:none;fill-rule:nonzero;fill:#b99bbf;fill-opacity:1" d="m100.5 96.652-6.535 63.813 58.285-26.582-51.75-37.23"/><path style="fill:none;stroke-width:5.99503;stroke-linecap:round;stroke-linejoin:round;stroke:#231f20;stroke-opacity:1;stroke-miterlimit:10" d="m1009.676 864.997-65.655-641.094 585.563 267.057Zm0 0" transform="matrix(.09954 0 0 -.09954 0 182.751)"/></svg>