<svg xmlns="http://www.w3.org/2000/svg" width="214pt" height="240" viewBox="0 0 214 180" version="1.2"><path style="stroke:none;fill-rule:evenodd;fill:#d69374;fill-opacity:1" d="m33.781 39.55 70.344-38.362-31.113 64.054-39.23-25.691"/><path style="fill:none;stroke-width:6.094;stroke-linecap:butt;stroke-linejoin:miter;stroke:#231f20;stroke-opacity:1;stroke-miterlimit:4" d="m337.813 1404.492 703.437 383.633-311.133-640.547Zm0 0" transform="matrix(.1 0 0 -.1 0 180)"/><path style="stroke:none;fill-rule:evenodd;fill:#d7c2c0;fill-opacity:1" d="m36.594 121.973 36.418-56.73 31.41 71.78-67.828-15.05"/><path style="fill:none;stroke-width:6.094;stroke-linecap:butt;stroke-linejoin:miter;stroke:#231f20;stroke-opacity:1;stroke-miterlimit:4" d="m365.938 580.273 364.18 567.305 314.1-717.812Zm0 0" transform="matrix(.1 0 0 -.1 0 180)"/><path style="stroke:none;fill-rule:evenodd;fill:#edbd93;fill-opacity:1" d="m33.781 39.55 39.23 25.692-36.417 56.73-2.813-82.421"/><path style="fill:none;stroke-width:6.094;stroke-linecap:butt;stroke-linejoin:miter;stroke:#231f20;stroke-opacity:1;stroke-miterlimit:4" d="m337.813 1404.492 392.304-256.914-364.18-567.305Zm0 0" transform="matrix(.1 0 0 -.1 0 180)"/><path style="stroke:none;fill-rule:evenodd;fill:#9e8299;fill-opacity:1" d="m73.012 65.242 31.113-64.055 67.574 153.458"/><path style="fill:none;stroke-width:6.094;stroke-linecap:butt;stroke-linejoin:miter;stroke:#231f20;stroke-opacity:1;stroke-miterlimit:4" d="m730.117 1147.578 311.133 640.547" transform="matrix(.1 0 0 -.1 0 180)"/><path style="fill-rule:evenodd;fill:#9e8299;fill-opacity:1;stroke-width:6.094;stroke-linecap:butt;stroke-linejoin:miter;stroke:#231f20;stroke-opacity:1;stroke-miterlimit:4" d="m1716.992 253.555-672.773 176.21-314.102 717.813" transform="matrix(.1 0 0 -.1 0 180)"/><path style="stroke:none;fill-rule:evenodd;fill:#9fb0d9;fill-opacity:1" d="m94.348 178.387 10.074-41.364 67.277 17.622-77.351 23.742"/><path style="fill:none;stroke-width:6.094;stroke-linecap:butt;stroke-linejoin:miter;stroke:#231f20;stroke-opacity:1;stroke-miterlimit:4" d="m943.477 16.133 100.742 413.633 672.773-176.211Zm0 0" transform="matrix(.1 0 0 -.1 0 180)"/><path style="stroke:none;fill-rule:evenodd;fill:#d2dbe5;fill-opacity:1" d="m36.594 121.973 67.828 15.05-10.074 41.364-57.754-56.414"/><path style="fill:none;stroke-width:6.094;stroke-linecap:butt;stroke-linejoin:miter;stroke:#231f20;stroke-opacity:1;stroke-miterlimit:4" d="m365.938 580.273 678.28-150.507L943.478 16.133Zm0 0" transform="matrix(.1 0 0 -.1 0 180)"/><path style="stroke:none;fill-rule:evenodd;fill:#80493b;fill-opacity:1" d="m93.11 3.18 11.015-1.993-70.344 38.364L93.11 3.18"/><path style="fill:none;stroke-width:6.094;stroke-linecap:butt;stroke-linejoin:miter;stroke:#231f20;stroke-opacity:1;stroke-miterlimit:4" d="m931.094 1768.203 110.156 19.922-703.438-383.633Zm0 0" transform="matrix(.1 0 0 -.1 0 180)"/><path style="stroke:none;fill-rule:evenodd;fill:#9e8299;fill-opacity:1" d="m104.125 1.188 71.926 8.367-4.352 145.09"/><path style="fill:none;stroke-width:6.094;stroke-linecap:butt;stroke-linejoin:miter;stroke:#231f20;stroke-opacity:1;stroke-miterlimit:4" d="m1041.25 1788.125 719.258-83.672" transform="matrix(.1 0 0 -.1 0 180)"/><path style="stroke:none;fill-rule:evenodd;fill:#4d97bf;fill-opacity:1" d="m93.11 3.18 82.94 6.375-71.925-8.367L93.109 3.18"/><path style="fill:none;stroke-width:6.094;stroke-linecap:butt;stroke-linejoin:miter;stroke:#231f20;stroke-opacity:1;stroke-miterlimit:4" d="m931.094 1768.203 829.414-63.75-719.258 83.672Zm0 0" transform="matrix(.1 0 0 -.1 0 180)"/><path style="stroke:none;fill-rule:evenodd;fill:#f7c483;fill-opacity:1" d="M2.684 102.938 33.78 39.55l2.813 82.422-33.91-19.035"/><path style="fill:none;stroke-width:6.094;stroke-linecap:butt;stroke-linejoin:miter;stroke:#231f20;stroke-opacity:1;stroke-miterlimit:4" d="m26.836 770.625 310.976 633.867 28.125-824.219Zm0 0" transform="matrix(.1 0 0 -.1 0 180)"/><path style="fill-rule:evenodd;fill:#b2debf;fill-opacity:1;stroke-width:6.094;stroke-linecap:butt;stroke-linejoin:miter;stroke:#231f20;stroke-opacity:1;stroke-miterlimit:4" d="m365.938 580.273 577.539-564.14-275.743 121.133" transform="matrix(.1 0 0 -.1 0 180)"/><path style="fill-rule:evenodd;fill:#b2debf;fill-opacity:1;stroke-width:6.094;stroke-linecap:butt;stroke-linejoin:miter;stroke:#231f20;stroke-opacity:1;stroke-miterlimit:4" d="M667.734 137.266 26.836 770.625l339.101-190.352" transform="matrix(.1 0 0 -.1 0 180)"/><path style="fill-rule:evenodd;fill:#9e8299;fill-opacity:1;stroke-width:6.094;stroke-linecap:butt;stroke-linejoin:miter;stroke:#231f20;stroke-opacity:1;stroke-miterlimit:4" d="m1760.508 1704.453 365.508-824.062-409.024-626.836" transform="matrix(.1 0 0 -.1 0 180)"/><path style="stroke:none;fill-rule:evenodd;fill:#c7702e;fill-opacity:1" d="m159.7 154.602 12 .043 40.902-62.684-52.903 62.64"/><path style="fill:none;stroke-width:6.094;stroke-linecap:butt;stroke-linejoin:miter;stroke:#231f20;stroke-opacity:1;stroke-miterlimit:4" d="m1596.992 253.984 120-.43 409.024 626.837Zm0 0" transform="matrix(.1 0 0 -.1 0 180)"/><path style="stroke:none;fill-rule:evenodd;fill:#66453b;fill-opacity:1" d="m94.348 178.387 77.351-23.742-12-.043-65.351 23.785"/><path style="fill:none;stroke-width:6.094;stroke-linecap:butt;stroke-linejoin:miter;stroke:#231f20;stroke-opacity:1;stroke-miterlimit:4" d="m943.477 16.133 773.515 237.422-120 .43Zm0 0" transform="matrix(.1 0 0 -.1 0 180)"/><path style="fill-rule:evenodd;fill:#536dac;fill-opacity:1;stroke-width:6.094;stroke-linecap:butt;stroke-linejoin:miter;stroke:#231f20;stroke-opacity:1;stroke-miterlimit:4" d="m931.094 1768.203-593.282-363.71L26.837 770.624" transform="matrix(.1 0 0 -.1 0 180)"/><path style="stroke:none;fill-rule:evenodd;fill:#89493a;fill-opacity:1" d="m66.773 166.273 27.575 12.114 65.351-23.785-92.926 11.671"/><path style="fill:none;stroke-width:6.094;stroke-linecap:butt;stroke-linejoin:miter;stroke:#231f20;stroke-opacity:1;stroke-miterlimit:4" d="M667.734 137.266 943.477 16.133l653.515 237.851Zm0 0" transform="matrix(.1 0 0 -.1 0 180)"/><path style="stroke:none;fill-rule:evenodd;fill:#c8cedf;fill-opacity:1" d="m161.96 61.379 14.09-51.824L93.11 3.18l68.85 58.199"/><path style="fill:none;stroke-width:6.094;stroke-linecap:butt;stroke-linejoin:miter;stroke:#231f20;stroke-opacity:1;stroke-miterlimit:4" d="m1619.61 1186.21 140.898 518.243-829.414 63.75Zm0 0" transform="matrix(.1 0 0 -.1 0 180)"/><path style="stroke:none;fill-rule:evenodd;fill:#f2e6c1;fill-opacity:1" d="m161.96 61.379 50.642 30.582L176.05 9.555l-14.09 51.824"/><path style="fill:none;stroke-width:6.094;stroke-linecap:butt;stroke-linejoin:miter;stroke:#231f20;stroke-opacity:1;stroke-miterlimit:4" d="m1619.61 1186.21 506.406-305.82-365.508 824.063Zm0 0" transform="matrix(.1 0 0 -.1 0 180)"/><path style="stroke:none;fill-rule:evenodd;fill:#e5b392;fill-opacity:1" d="m159.7 154.602 52.902-62.641-50.641-30.582-2.262 93.223"/><path style="fill:none;stroke-width:6.094;stroke-linecap:butt;stroke-linejoin:miter;stroke:#231f20;stroke-opacity:1;stroke-miterlimit:4" d="m1596.992 253.984 529.024 626.407-506.407 305.82Zm0 0" transform="matrix(.1 0 0 -.1 0 180)"/><path style="fill-rule:evenodd;fill:#536dac;fill-opacity:1;stroke-width:6.094;stroke-linecap:butt;stroke-linejoin:miter;stroke:#231f20;stroke-opacity:1;stroke-miterlimit:4" d="m26.836 770.625 621.21 336.016 283.048 661.562" transform="matrix(.1 0 0 -.1 0 180)"/><path style="stroke:none;fill-rule:evenodd;fill:#937690;fill-opacity:1" d="m2.684 102.938 64.09 63.335-1.97-96.937-62.12 33.602"/><path style="fill:none;stroke-width:6.094;stroke-linecap:butt;stroke-linejoin:miter;stroke:#231f20;stroke-opacity:1;stroke-miterlimit:4" d="m26.836 770.625 640.898-633.36-19.687 969.376Zm0 0" transform="matrix(.1 0 0 -.1 0 180)"/><path style="stroke:none;fill-rule:evenodd;fill:#c2bfd4;fill-opacity:1" d="m64.805 69.336 97.156-7.957-68.852-58.2-28.304 66.157"/><path style="fill:none;stroke-width:6.094;stroke-linecap:butt;stroke-linejoin:miter;stroke:#231f20;stroke-opacity:1;stroke-miterlimit:4" d="m648.047 1106.64 971.562 79.57-688.515 581.993Zm0 0" transform="matrix(.1 0 0 -.1 0 180)"/><path style="fill-rule:evenodd;fill:#cba39f;fill-opacity:1;stroke-width:6.094;stroke-linecap:butt;stroke-linejoin:miter;stroke:#231f20;stroke-opacity:1;stroke-miterlimit:4" d="m1596.992 253.984 22.617 932.227-971.562-79.57" transform="matrix(.1 0 0 -.1 0 180)"/><path style="fill-rule:evenodd;fill:#cba39f;fill-opacity:1;stroke-width:6.094;stroke-linecap:butt;stroke-linejoin:miter;stroke:#231f20;stroke-opacity:1;stroke-miterlimit:4" d="m648.047 1106.64 19.687-969.374 929.258 116.718" transform="matrix(.1 0 0 -.1 0 180)"/></svg>