<svg xmlns="http://www.w3.org/2000/svg" width="272" height="200pt" viewBox="0 0 204 200" version="1.2"><path style="fill-rule:nonzero;fill:#bb7f92;fill-opacity:1;stroke-width:7.5;stroke-linecap:round;stroke-linejoin:round;stroke:#000;stroke-opacity:1;stroke-miterlimit:10" d="m1423.71 1361.602-699.53-341.407-361.72 531.797" transform="matrix(.1 0 0 -.1 0 200)"/><path style="fill-rule:nonzero;fill:#e6bfae;fill-opacity:1;stroke-width:7.5;stroke-linecap:round;stroke-linejoin:round;stroke:#000;stroke-opacity:1;stroke-miterlimit:10" d="m724.18 1020.195-249.883-625.43-395.742 522.93" transform="matrix(.1 0 0 -.1 0 200)"/><path style="fill-rule:nonzero;fill:#e6bfae;fill-opacity:1;stroke-width:7.5;stroke-linecap:round;stroke-linejoin:round;stroke:#000;stroke-opacity:1;stroke-miterlimit:10" d="m78.555 917.695 283.906 634.297 361.719-531.797" transform="matrix(.1 0 0 -.1 0 200)"/><path style="fill-rule:nonzero;fill:#979ad5;fill-opacity:1;stroke-width:7.5;stroke-linecap:round;stroke-linejoin:round;stroke:#000;stroke-opacity:1;stroke-miterlimit:10" d="m724.18 1020.195 699.53 341.407 531.915-255.47" transform="matrix(.1 0 0 -.1 0 200)"/><path style="stroke:none;fill-rule:nonzero;fill:#979ad5;fill-opacity:1" d="M47.43 160.523 72.418 97.98l123.144-8.593"/><path style="fill:none;stroke-width:7.5;stroke-linecap:round;stroke-linejoin:round;stroke:#000;stroke-opacity:1;stroke-miterlimit:10" d="m474.297 394.766 249.883 625.43" transform="matrix(.1 0 0 -.1 0 200)"/><path style="stroke:none;fill-rule:nonzero;fill:#8875b7;fill-opacity:1" d="m142.371 63.84 48.93-54.59 4.262 80.137"/><path style="fill:none;stroke-width:7.5;stroke-linecap:round;stroke-linejoin:round;stroke:#000;stroke-opacity:1;stroke-miterlimit:10" d="m1423.71 1361.602 489.298 545.898 42.617-801.367Zm0 0" transform="matrix(.1 0 0 -.1 0 200)"/><path style="stroke:none;fill-rule:nonzero;fill:#b77a8f;fill-opacity:1" d="m109.781 8.102 81.52 1.148-48.93 54.59"/><path style="fill:none;stroke-width:7.5;stroke-linecap:round;stroke-linejoin:round;stroke:#000;stroke-opacity:1;stroke-miterlimit:10" d="m1097.813 1918.984 815.195-11.484-489.297-545.898Zm0 0" transform="matrix(.1 0 0 -.1 0 200)"/><path style="fill-rule:nonzero;fill:#bb7f92;fill-opacity:1;stroke-width:7.5;stroke-linecap:round;stroke-linejoin:round;stroke:#000;stroke-opacity:1;stroke-miterlimit:10" d="m362.46 1551.992 735.353 366.992 325.898-557.382" transform="matrix(.1 0 0 -.1 0 200)"/><path style="stroke:none;fill-rule:nonzero;fill:#979ad5;fill-opacity:1" d="M96.613 193.469 47.43 160.523l148.132-71.136"/><path style="fill:none;stroke-width:7.5;stroke-linecap:round;stroke-linejoin:round;stroke:#000;stroke-opacity:1;stroke-miterlimit:10" d="M966.133 65.313 474.297 394.765" transform="matrix(.1 0 0 -.1 0 200)"/><path style="fill-rule:nonzero;fill:#0b0008;fill-opacity:1;stroke-width:7.5;stroke-linecap:round;stroke-linejoin:round;stroke:#000;stroke-opacity:1;stroke-miterlimit:10" d="M474.297 394.766 966.133 65.312 574.063 603.79" transform="matrix(.1 0 0 -.1 0 200)"/><path style="fill-rule:nonzero;fill:#0b0008;fill-opacity:1;stroke-width:7.5;stroke-linecap:round;stroke-linejoin:round;stroke:#000;stroke-opacity:1;stroke-miterlimit:10" d="M574.063 603.79 78.555 917.694l395.742-522.93" transform="matrix(.1 0 0 -.1 0 200)"/><path style="stroke:none;fill-rule:nonzero;fill:#f6d3a9;fill-opacity:1" d="m164.035 31.488 31.528 57.899L191.3 9.25"/><path style="fill:none;stroke-width:7.5;stroke-linecap:round;stroke-linejoin:round;stroke:#000;stroke-opacity:1;stroke-miterlimit:10" d="m1640.352 1685.117 315.273-578.984-42.617 801.367Zm0 0" transform="matrix(.1 0 0 -.1 0 200)"/><path style="stroke:none;fill-rule:nonzero;fill:#99d3fc;fill-opacity:1" d="M164.035 31.488 191.301 9.25l-81.52-1.148"/><path style="fill:none;stroke-width:7.5;stroke-linecap:round;stroke-linejoin:round;stroke:#000;stroke-opacity:1;stroke-miterlimit:10" d="m1640.352 1685.117 272.656 222.383-815.196 11.484Zm0 0" transform="matrix(.1 0 0 -.1 0 200)"/><path style="fill-rule:nonzero;fill:#919ad8;fill-opacity:1;stroke-width:7.5;stroke-linecap:round;stroke-linejoin:round;stroke:#000;stroke-opacity:1;stroke-miterlimit:10" d="m1640.352 1685.117-542.54 233.867-735.351-366.992" transform="matrix(.1 0 0 -.1 0 200)"/><path style="stroke:none;fill-rule:nonzero;fill:#919ad8;fill-opacity:1" d="m140.637 99.445 23.398-67.957L36.246 44.801"/><path style="fill:none;stroke-width:7.5;stroke-linecap:round;stroke-linejoin:round;stroke:#000;stroke-opacity:1;stroke-miterlimit:10" d="m1406.367 1005.547 233.985 679.57" transform="matrix(.1 0 0 -.1 0 200)"/><path style="stroke:none;fill-rule:nonzero;fill:#919ad8;fill-opacity:1" d="m57.406 139.621 83.23-40.176-104.39-54.644"/><path style="fill:none;stroke-width:7.5;stroke-linecap:round;stroke-linejoin:round;stroke:#000;stroke-opacity:1;stroke-miterlimit:10" d="m574.063 603.79 832.304 401.757" transform="matrix(.1 0 0 -.1 0 200)"/><path style="fill-rule:nonzero;fill:#919ad8;fill-opacity:1;stroke-width:7.5;stroke-linecap:round;stroke-linejoin:round;stroke:#000;stroke-opacity:1;stroke-miterlimit:10" d="M362.46 1551.992 78.556 917.695 574.062 603.79" transform="matrix(.1 0 0 -.1 0 200)"/><path style="fill-rule:nonzero;fill:#979ad5;fill-opacity:1;stroke-width:7.5;stroke-linecap:round;stroke-linejoin:round;stroke:#000;stroke-opacity:1;stroke-miterlimit:10" d="m1955.625 1106.133-202.734-669.844L966.133 65.313" transform="matrix(.1 0 0 -.1 0 200)"/><path style="fill-rule:nonzero;fill:#f0c8a8;fill-opacity:1;stroke-width:7.5;stroke-linecap:round;stroke-linejoin:round;stroke:#000;stroke-opacity:1;stroke-miterlimit:10" d="m1752.89 436.29 202.735 669.843-315.273 578.984" transform="matrix(.1 0 0 -.1 0 200)"/><path style="stroke:none;fill-rule:nonzero;fill:#2a8ced;fill-opacity:1" d="m175.29 156.371-44.282 37.074-34.395.024"/><path style="fill:none;stroke-width:7.5;stroke-linecap:round;stroke-linejoin:round;stroke:#000;stroke-opacity:1;stroke-miterlimit:10" d="M1752.89 436.29 1310.079 65.546l-343.945-.234Zm0 0" transform="matrix(.1 0 0 -.1 0 200)"/><path style="stroke:none;fill-rule:nonzero;fill:#340026;fill-opacity:1" d="m57.406 139.621 39.207 53.848 34.395-.024"/><path style="fill:none;stroke-width:7.5;stroke-linecap:round;stroke-linejoin:round;stroke:#000;stroke-opacity:1;stroke-miterlimit:10" d="m574.063 603.79 392.07-538.477 343.945.234Zm0 0" transform="matrix(.1 0 0 -.1 0 200)"/><path style="stroke:none;fill-rule:nonzero;fill:#ecc0a5;fill-opacity:1" d="m140.637 99.445-9.63 94 44.282-37.074"/><path style="fill:none;stroke-width:7.5;stroke-linecap:round;stroke-linejoin:round;stroke:#000;stroke-opacity:1;stroke-miterlimit:10" d="m1406.367 1005.547-96.289-940 442.813 370.742Zm0 0" transform="matrix(.1 0 0 -.1 0 200)"/><path style="fill-rule:nonzero;fill:#f0c8a8;fill-opacity:1;stroke-width:7.5;stroke-linecap:round;stroke-linejoin:round;stroke:#000;stroke-opacity:1;stroke-miterlimit:10" d="m1640.352 1685.117-233.985-679.57 346.524-569.258" transform="matrix(.1 0 0 -.1 0 200)"/><path style="stroke:none;fill-rule:nonzero;fill:#a990bb;fill-opacity:1" d="m57.406 139.621 73.602 53.824 9.629-94"/><path style="fill:none;stroke-width:7.5;stroke-linecap:round;stroke-linejoin:round;stroke:#000;stroke-opacity:1;stroke-miterlimit:10" d="m574.063 603.79 736.015-538.243 96.29 940Zm0 0" transform="matrix(.1 0 0 -.1 0 200)"/></svg>