<svg xmlns="http://www.w3.org/2000/svg" width="276" height="200pt" viewBox="0 0 207 200" version="1.2"><path style="stroke:none;fill-rule:nonzero;fill:#bab0cf;fill-opacity:1" d="m100.988 104.309 23.653 14.582-47.504 61.375"/><path style="fill:none;stroke-width:7.2;stroke-linecap:round;stroke-linejoin:round;stroke:#000;stroke-opacity:1;stroke-miterlimit:10" d="m1009.883 956.914 236.523-145.82" transform="matrix(.1 0 0 -.1 0 200)"/><path style="stroke:none;fill-rule:nonzero;fill:#bab0cf;fill-opacity:1" d="m73.105 103.273 27.883 1.036-23.851 75.957"/><path style="fill:none;stroke-width:7.2;stroke-linecap:round;stroke-linejoin:round;stroke:#000;stroke-opacity:1;stroke-miterlimit:10" d="m731.055 967.266 278.828-10.352" transform="matrix(.1 0 0 -.1 0 200)"/><path style="stroke:none;fill-rule:nonzero;fill:#ac8eb7;fill-opacity:1" d="m124.64 118.89-23.652-14.581 24.403-13.664"/><path style="fill:none;stroke-width:7.2;stroke-linecap:round;stroke-linejoin:round;stroke:#000;stroke-opacity:1;stroke-miterlimit:10" d="m1246.406 811.094-236.523 145.82 244.023 136.64Zm0 0" transform="matrix(.1 0 0 -.1 0 200)"/><path style="stroke:none;fill-rule:nonzero;fill:#b9849b;fill-opacity:1" d="m100.988 104.309-27.883-1.036 59.461-61.73"/><path style="fill:none;stroke-width:7.2;stroke-linecap:round;stroke-linejoin:round;stroke:#000;stroke-opacity:1;stroke-miterlimit:10" d="m1009.883 956.914-278.828 10.352" transform="matrix(.1 0 0 -.1 0 200)"/><path style="stroke:none;fill-rule:nonzero;fill:#b9849b;fill-opacity:1" d="m125.39 90.645-24.402 13.664 31.578-62.766"/><path style="fill:none;stroke-width:7.2;stroke-linecap:round;stroke-linejoin:round;stroke:#000;stroke-opacity:1;stroke-miterlimit:10" d="m1253.906 1093.555-244.023-136.64" transform="matrix(.1 0 0 -.1 0 200)"/><path style="stroke:none;fill-rule:nonzero;fill:#816cb2;fill-opacity:1" d="m125.39 90.645 12.204-23.72 38.617 76.345"/><path style="fill:none;stroke-width:7.2;stroke-linecap:round;stroke-linejoin:round;stroke:#000;stroke-opacity:1;stroke-miterlimit:10" d="m1253.906 1093.555 122.032 237.187" transform="matrix(.1 0 0 -.1 0 200)"/><path style="stroke:none;fill-rule:nonzero;fill:#816cb2;fill-opacity:1" d="m124.64 118.89.75-28.245 50.82 52.625"/><path style="fill:none;stroke-width:7.2;stroke-linecap:round;stroke-linejoin:round;stroke:#000;stroke-opacity:1;stroke-miterlimit:10" d="m1246.406 811.094 7.5 282.46" transform="matrix(.1 0 0 -.1 0 200)"/><path style="fill-rule:nonzero;fill:#b9849b;fill-opacity:1;stroke-width:7.2;stroke-linecap:round;stroke-linejoin:round;stroke:#000;stroke-opacity:1;stroke-miterlimit:10" d="m1325.664 1584.57 50.274-253.828-122.032-237.187" transform="matrix(.1 0 0 -.1 0 200)"/><path style="stroke:none;fill-rule:nonzero;fill:#cca7b4;fill-opacity:1" d="m50.71 116.379.93-28.738 21.465 15.632"/><path style="fill:none;stroke-width:7.2;stroke-linecap:round;stroke-linejoin:round;stroke:#000;stroke-opacity:1;stroke-miterlimit:10" d="m507.11 836.21 9.296 287.384 214.649-156.328Zm0 0" transform="matrix(.1 0 0 -.1 0 200)"/><path style="stroke:none;fill-rule:nonzero;fill:#bab0cf;fill-opacity:1" d="m50.71 116.379 22.395-13.106 4.032 76.993"/><path style="fill:none;stroke-width:7.2;stroke-linecap:round;stroke-linejoin:round;stroke:#000;stroke-opacity:1;stroke-miterlimit:10" d="m507.11 836.21 223.945 131.056" transform="matrix(.1 0 0 -.1 0 200)"/><path style="stroke:none;fill-rule:nonzero;fill:#b9849b;fill-opacity:1" d="M73.105 103.273 51.641 87.641l80.925-46.098"/><path style="fill:none;stroke-width:7.2;stroke-linecap:round;stroke-linejoin:round;stroke:#000;stroke-opacity:1;stroke-miterlimit:10" d="m731.055 967.266-214.649 156.328" transform="matrix(.1 0 0 -.1 0 200)"/><path style="stroke:none;fill-rule:nonzero;fill:#bab0cf;fill-opacity:1" d="m124.64 118.89 11.016 23.266-58.52 38.11"/><path style="fill:none;stroke-width:7.2;stroke-linecap:round;stroke-linejoin:round;stroke:#000;stroke-opacity:1;stroke-miterlimit:10" d="m1246.406 811.094 110.157-232.657" transform="matrix(.1 0 0 -.1 0 200)"/><path style="stroke:none;fill-rule:nonzero;fill:#816cb2;fill-opacity:1" d="m135.656 142.156-11.015-23.265 51.57 24.379"/><path style="fill:none;stroke-width:7.2;stroke-linecap:round;stroke-linejoin:round;stroke:#000;stroke-opacity:1;stroke-miterlimit:10" d="m1356.563 578.438-110.157 232.656" transform="matrix(.1 0 0 -.1 0 200)"/><path style="stroke:none;fill-rule:nonzero;fill:#816cb2;fill-opacity:1" d="m137.594 66.926 19.851-10.688 18.766 87.032"/><path style="fill:none;stroke-width:7.2;stroke-linecap:round;stroke-linejoin:round;stroke:#000;stroke-opacity:1;stroke-miterlimit:10" d="m1375.938 1330.742 198.515 106.875" transform="matrix(.1 0 0 -.1 0 200)"/><path style="stroke:none;fill-rule:nonzero;fill:#936091;fill-opacity:1" d="m157.445 56.238-19.851 10.688-5.028-25.383"/><path style="fill:none;stroke-width:7.2;stroke-linecap:round;stroke-linejoin:round;stroke:#000;stroke-opacity:1;stroke-miterlimit:10" d="m1574.453 1437.617-198.515-106.875-50.274 253.828Zm0 0" transform="matrix(.1 0 0 -.1 0 200)"/><path style="stroke:none;fill-rule:nonzero;fill:#f3c6a0;fill-opacity:1" d="m51.64 87.64-.93 28.739-43.733-4.27"/><path style="fill:none;stroke-width:7.2;stroke-linecap:round;stroke-linejoin:round;stroke:#000;stroke-opacity:1;stroke-miterlimit:10" d="M516.406 1123.594 507.11 836.21" transform="matrix(.1 0 0 -.1 0 200)"/><path style="stroke:none;fill-rule:nonzero;fill:#f3c6a0;fill-opacity:1" d="m44.883 62.613 6.758 25.028-44.664 24.468"/><path style="fill:none;stroke-width:7.2;stroke-linecap:round;stroke-linejoin:round;stroke:#000;stroke-opacity:1;stroke-miterlimit:10" d="m448.828 1373.867 67.578-250.273" transform="matrix(.1 0 0 -.1 0 200)"/><path style="stroke:none;fill-rule:nonzero;fill:#b9849b;fill-opacity:1" d="m51.64 87.64-6.757-25.027 87.683-21.07"/><path style="fill:none;stroke-width:7.2;stroke-linecap:round;stroke-linejoin:round;stroke:#000;stroke-opacity:1;stroke-miterlimit:10" d="m516.406 1123.594-67.578 250.273" transform="matrix(.1 0 0 -.1 0 200)"/><path style="stroke:none;fill-rule:nonzero;fill:#f3c6a0;fill-opacity:1" d="m50.71 116.379-8.366 23.117L6.977 112.11"/><path style="fill:none;stroke-width:7.2;stroke-linecap:round;stroke-linejoin:round;stroke:#000;stroke-opacity:1;stroke-miterlimit:10" d="m507.11 836.21-83.673-231.17" transform="matrix(.1 0 0 -.1 0 200)"/><path style="stroke:none;fill-rule:nonzero;fill:#bab0cf;fill-opacity:1" d="m42.344 139.496 8.367-23.117 26.426 63.887"/><path style="fill:none;stroke-width:7.2;stroke-linecap:round;stroke-linejoin:round;stroke:#000;stroke-opacity:1;stroke-miterlimit:10" d="m423.438 605.04 83.671 231.17" transform="matrix(.1 0 0 -.1 0 200)"/><path style="stroke:none;fill-rule:nonzero;fill:#9297d5;fill-opacity:1" d="m155.121 151.89-25.816 14.028 6.351-23.762"/><path style="fill:none;stroke-width:7.2;stroke-linecap:round;stroke-linejoin:round;stroke:#000;stroke-opacity:1;stroke-miterlimit:10" d="M1551.21 481.094 1293.048 340.82l63.515 237.618Zm0 0" transform="matrix(.1 0 0 -.1 0 200)"/><path style="stroke:none;fill-rule:nonzero;fill:#bab0cf;fill-opacity:1" d="m135.656 142.156-6.351 23.762-52.168 14.348"/><path style="fill:none;stroke-width:7.2;stroke-linecap:round;stroke-linejoin:round;stroke:#000;stroke-opacity:1;stroke-miterlimit:10" d="m1356.563 578.438-63.516-237.618" transform="matrix(.1 0 0 -.1 0 200)"/><path style="fill-rule:nonzero;fill:#816cb2;fill-opacity:1;stroke-width:7.2;stroke-linecap:round;stroke-linejoin:round;stroke:#000;stroke-opacity:1;stroke-miterlimit:10" d="m1762.11 567.305-210.9-86.211-194.648 97.344" transform="matrix(.1 0 0 -.1 0 200)"/><path style="stroke:none;fill-rule:nonzero;fill:#31000a;fill-opacity:1" d="M132.566 41.543 111.36 24.332l67.196 22.43"/><path style="fill:none;stroke-width:7.2;stroke-linecap:round;stroke-linejoin:round;stroke:#000;stroke-opacity:1;stroke-miterlimit:10" d="m1325.664 1584.57-212.07 172.11" transform="matrix(.1 0 0 -.1 0 200)"/><path style="stroke:none;fill-rule:nonzero;fill:#31000a;fill-opacity:1" d="m157.445 56.238-24.879-14.695 45.989 5.219"/><path style="fill:none;stroke-width:7.2;stroke-linecap:round;stroke-linejoin:round;stroke:#000;stroke-opacity:1;stroke-miterlimit:10" d="m1574.453 1437.617-248.789 146.953" transform="matrix(.1 0 0 -.1 0 200)"/><path style="fill-rule:nonzero;fill:#b9849b;fill-opacity:1;stroke-width:7.2;stroke-linecap:round;stroke-linejoin:round;stroke:#000;stroke-opacity:1;stroke-miterlimit:10" d="m819.023 1773.281 294.57-16.601 212.071-172.11" transform="matrix(.1 0 0 -.1 0 200)"/><path style="stroke:none;fill-rule:nonzero;fill:#b9849b;fill-opacity:1" d="m56.27 37.535 25.632-14.863 50.664 18.871"/><path style="fill:none;stroke-width:7.2;stroke-linecap:round;stroke-linejoin:round;stroke:#000;stroke-opacity:1;stroke-miterlimit:10" d="m562.695 1624.648 256.328 148.633" transform="matrix(.1 0 0 -.1 0 200)"/><path style="stroke:none;fill-rule:nonzero;fill:#b9849b;fill-opacity:1" d="M44.883 62.613 56.27 37.535l76.296 4.008"/><path style="fill:none;stroke-width:7.2;stroke-linecap:round;stroke-linejoin:round;stroke:#000;stroke-opacity:1;stroke-miterlimit:10" d="m448.828 1373.867 113.867 250.781" transform="matrix(.1 0 0 -.1 0 200)"/><path style="stroke:none;fill-rule:nonzero;fill:#d88f80;fill-opacity:1" d="m32.332 50.066 23.938-12.53-11.387 25.077"/><path style="fill:none;stroke-width:7.2;stroke-linecap:round;stroke-linejoin:round;stroke:#000;stroke-opacity:1;stroke-miterlimit:10" d="m323.32 1499.336 239.375 125.312-113.867-250.78Zm0 0" transform="matrix(.1 0 0 -.1 0 200)"/><path style="stroke:none;fill-rule:nonzero;fill:#f3c6a0;fill-opacity:1" d="m32.332 50.066 12.55 12.547L6.978 112.11"/><path style="fill:none;stroke-width:7.2;stroke-linecap:round;stroke-linejoin:round;stroke:#000;stroke-opacity:1;stroke-miterlimit:10" d="m323.32 1499.336 125.508-125.469" transform="matrix(.1 0 0 -.1 0 200)"/><path style="stroke:none;fill-rule:nonzero;fill:#816cb2;fill-opacity:1" d="m157.445 56.238 20.567 7.367-1.801 79.665"/><path style="fill:none;stroke-width:7.2;stroke-linecap:round;stroke-linejoin:round;stroke:#000;stroke-opacity:1;stroke-miterlimit:10" d="m1574.453 1437.617 205.664-73.672" transform="matrix(.1 0 0 -.1 0 200)"/><path style="stroke:none;fill-rule:nonzero;fill:#31000a;fill-opacity:1" d="m178.012 63.605-20.567-7.367 21.11-9.476"/><path style="fill:none;stroke-width:7.2;stroke-linecap:round;stroke-linejoin:round;stroke:#000;stroke-opacity:1;stroke-miterlimit:10" d="m1780.117 1363.945-205.664 73.672" transform="matrix(.1 0 0 -.1 0 200)"/><path style="stroke:none;fill-rule:nonzero;fill:#dcd9d4;fill-opacity:1" d="m52.188 164.168-23.211-15.59 13.367-9.082"/><path style="fill:none;stroke-width:7.2;stroke-linecap:round;stroke-linejoin:round;stroke:#000;stroke-opacity:1;stroke-miterlimit:10" d="M521.875 358.32 289.765 514.22l133.673 90.82Zm0 0" transform="matrix(.1 0 0 -.1 0 200)"/><path style="stroke:none;fill-rule:nonzero;fill:#f3c6a0;fill-opacity:1" d="m42.344 139.496-13.367 9.082-22-36.469"/><path style="fill:none;stroke-width:7.2;stroke-linecap:round;stroke-linejoin:round;stroke:#000;stroke-opacity:1;stroke-miterlimit:10" d="m423.438 605.04-133.672-90.821" transform="matrix(.1 0 0 -.1 0 200)"/><path style="fill-rule:nonzero;fill:#bab0cf;fill-opacity:1;stroke-width:7.2;stroke-linecap:round;stroke-linejoin:round;stroke:#000;stroke-opacity:1;stroke-miterlimit:10" d="M771.367 197.344 521.875 358.32l-98.438 246.72" transform="matrix(.1 0 0 -.1 0 200)"/><path style="fill-rule:nonzero;fill:#0877e0;fill-opacity:1;stroke-width:7.2;stroke-linecap:round;stroke-linejoin:round;stroke:#000;stroke-opacity:1;stroke-miterlimit:10" d="m1069.844 191.64 223.203 149.18 258.164 140.274" transform="matrix(.1 0 0 -.1 0 200)"/><path style="fill-rule:nonzero;fill:#bab0cf;fill-opacity:1;stroke-width:7.2;stroke-linecap:round;stroke-linejoin:round;stroke:#000;stroke-opacity:1;stroke-miterlimit:10" d="m1293.047 340.82-223.203-149.18-298.477 5.704" transform="matrix(.1 0 0 -.1 0 200)"/><path style="stroke:none;fill-rule:nonzero;fill:#0877e0;fill-opacity:1" d="m95.813 191.7 11.171-10.864 48.137-28.945"/><path style="fill:none;stroke-width:7.2;stroke-linecap:round;stroke-linejoin:round;stroke:#000;stroke-opacity:1;stroke-miterlimit:10" d="m958.125 83.008 111.719 108.633" transform="matrix(.1 0 0 -.1 0 200)"/><path style="stroke:none;fill-rule:nonzero;fill:#0877e0;fill-opacity:1" d="m101.113 194.043-5.3-2.344 59.308-39.808"/><path style="fill:none;stroke-width:7.2;stroke-linecap:round;stroke-linejoin:round;stroke:#000;stroke-opacity:1;stroke-miterlimit:10" d="m1011.133 59.57-53.008 23.438" transform="matrix(.1 0 0 -.1 0 200)"/><path style="stroke:none;fill-rule:nonzero;fill:#0877e0;fill-opacity:1" d="m122.629 185.883-21.516 8.16 54.008-42.152"/><path style="fill:none;stroke-width:7.2;stroke-linecap:round;stroke-linejoin:round;stroke:#000;stroke-opacity:1;stroke-miterlimit:10" d="M1226.29 141.172 1011.132 59.57" transform="matrix(.1 0 0 -.1 0 200)"/><path style="stroke:none;fill-rule:nonzero;fill:#0877e0;fill-opacity:1" d="m152.047 170.004-29.418 15.879 32.492-33.992"/><path style="fill:none;stroke-width:7.2;stroke-linecap:round;stroke-linejoin:round;stroke:#000;stroke-opacity:1;stroke-miterlimit:10" d="m1520.469 299.96-294.18-158.788" transform="matrix(.1 0 0 -.1 0 200)"/><path style="stroke:none;fill-rule:nonzero;fill:#0877e0;fill-opacity:1" d="m176.145 153.488-24.098 16.516 3.074-18.113"/><path style="fill:none;stroke-width:7.2;stroke-linecap:round;stroke-linejoin:round;stroke:#000;stroke-opacity:1;stroke-miterlimit:10" d="M1761.445 465.117 1520.47 299.961" transform="matrix(.1 0 0 -.1 0 200)"/><path style="stroke:none;fill-rule:nonzero;fill:#0877e0;fill-opacity:1" d="m184.824 143.484-8.68 10.004-21.023-1.597"/><path style="fill:none;stroke-width:7.2;stroke-linecap:round;stroke-linejoin:round;stroke:#000;stroke-opacity:1;stroke-miterlimit:10" d="m1848.242 565.156-86.797-100.039" transform="matrix(.1 0 0 -.1 0 200)"/><path style="fill-rule:nonzero;fill:#0877e0;fill-opacity:1;stroke-width:7.2;stroke-linecap:round;stroke-linejoin:round;stroke:#000;stroke-opacity:1;stroke-miterlimit:10" d="m1551.21 481.094 210.9 86.21 86.132-2.148" transform="matrix(.1 0 0 -.1 0 200)"/><path style="stroke:none;fill-rule:nonzero;fill:#31000a;fill-opacity:1" d="m111.36 24.332-10.325-14.129 77.52 36.559"/><path style="fill:none;stroke-width:7.2;stroke-linecap:round;stroke-linejoin:round;stroke:#000;stroke-opacity:1;stroke-miterlimit:10" d="m1113.594 1756.68-103.242 141.289" transform="matrix(.1 0 0 -.1 0 200)"/><path style="stroke:none;fill-rule:nonzero;fill:#a64a58;fill-opacity:1" d="m101.035 10.203 10.324 14.129-29.457-1.66"/><path style="fill:none;stroke-width:7.2;stroke-linecap:round;stroke-linejoin:round;stroke:#000;stroke-opacity:1;stroke-miterlimit:10" d="m1010.352 1897.969 103.242-141.29-294.57 16.602Zm0 0" transform="matrix(.1 0 0 -.1 0 200)"/><path style="stroke:none;fill-rule:nonzero;fill:#830000;fill-opacity:1" d="M56.27 37.535 32.332 50.066l36.035-27.504"/><path style="fill:none;stroke-width:7.2;stroke-linecap:round;stroke-linejoin:round;stroke:#000;stroke-opacity:1;stroke-miterlimit:10" d="M562.695 1624.648 323.32 1499.336" transform="matrix(.1 0 0 -.1 0 200)"/><path style="stroke:none;fill-rule:nonzero;fill:#830000;fill-opacity:1" d="M81.902 22.672 56.27 37.535l12.097-14.972"/><path style="fill:none;stroke-width:7.2;stroke-linecap:round;stroke-linejoin:round;stroke:#000;stroke-opacity:1;stroke-miterlimit:10" d="m819.023 1773.281-256.328-148.633" transform="matrix(.1 0 0 -.1 0 200)"/><path style="stroke:none;fill-rule:nonzero;fill:#830000;fill-opacity:1" d="M101.035 10.203 81.902 22.672l-13.535-.11"/><path style="fill:none;stroke-width:7.2;stroke-linecap:round;stroke-linejoin:round;stroke:#000;stroke-opacity:1;stroke-miterlimit:10" d="M1010.352 1897.969 819.023 1773.28" transform="matrix(.1 0 0 -.1 0 200)"/><path style="stroke:none;fill-rule:nonzero;fill:#c4d0e3;fill-opacity:1" d="m52.578 183.313-.39-19.145 24.949 16.098"/><path style="fill:none;stroke-width:7.2;stroke-linecap:round;stroke-linejoin:round;stroke:#000;stroke-opacity:1;stroke-miterlimit:10" d="m525.781 166.875-3.906 191.445 249.492-160.976Zm0 0" transform="matrix(.1 0 0 -.1 0 200)"/><path style="fill-rule:nonzero;fill:#dde3d9;fill-opacity:1;stroke-width:7.2;stroke-linecap:round;stroke-linejoin:round;stroke:#000;stroke-opacity:1;stroke-miterlimit:10" d="M289.766 514.219 521.875 358.32l3.906-191.445" transform="matrix(.1 0 0 -.1 0 200)"/><path style="stroke:none;fill-rule:nonzero;fill:#a3d1f8;fill-opacity:1" d="m77.137 180.266 29.847.57-11.171 10.863"/><path style="fill:none;stroke-width:7.2;stroke-linecap:round;stroke-linejoin:round;stroke:#000;stroke-opacity:1;stroke-miterlimit:10" d="m771.367 197.344 298.477-5.703L958.125 83.008Zm0 0" transform="matrix(.1 0 0 -.1 0 200)"/><path style="fill-rule:nonzero;fill:#a4dbfa;fill-opacity:1;stroke-width:7.2;stroke-linecap:round;stroke-linejoin:round;stroke:#000;stroke-opacity:1;stroke-miterlimit:10" d="M771.367 197.344 958.125 83.008 710 48.32" transform="matrix(.1 0 0 -.1 0 200)"/><path style="fill-rule:nonzero;fill:#a4dbfa;fill-opacity:1;stroke-width:7.2;stroke-linecap:round;stroke-linejoin:round;stroke:#000;stroke-opacity:1;stroke-miterlimit:10" d="M710 48.32 525.781 166.875l245.586 30.469" transform="matrix(.1 0 0 -.1 0 200)"/><path style="stroke:none;fill-rule:nonzero;fill:#830000;fill-opacity:1" d="m32.332 50.066-14.164 5.899 50.2-33.403"/><path style="fill:none;stroke-width:7.2;stroke-linecap:round;stroke-linejoin:round;stroke:#000;stroke-opacity:1;stroke-miterlimit:10" d="m323.32 1499.336-141.64-58.984" transform="matrix(.1 0 0 -.1 0 200)"/><path style="stroke:none;fill-rule:nonzero;fill:#f3c6a0;fill-opacity:1" d="m18.168 55.965 14.164-5.899L6.977 112.11"/><path style="fill:none;stroke-width:7.2;stroke-linecap:round;stroke-linejoin:round;stroke:#000;stroke-opacity:1;stroke-miterlimit:10" d="m181.68 1440.352 141.64 58.984" transform="matrix(.1 0 0 -.1 0 200)"/><path style="stroke:none;fill-rule:nonzero;fill:#170061;fill-opacity:1" d="m186.648 60.43 4.293 27.03-12.93-23.855"/><path style="fill:none;stroke-width:7.2;stroke-linecap:round;stroke-linejoin:round;stroke:#000;stroke-opacity:1;stroke-miterlimit:10" d="m1866.484 1395.703 42.93-270.312-129.297 238.554Zm0 0" transform="matrix(.1 0 0 -.1 0 200)"/><path style="stroke:none;fill-rule:nonzero;fill:#816cb2;fill-opacity:1" d="m178.012 63.605 12.93 23.856-14.731 55.809"/><path style="fill:none;stroke-width:7.2;stroke-linecap:round;stroke-linejoin:round;stroke:#000;stroke-opacity:1;stroke-miterlimit:10" d="m1780.117 1363.945 129.297-238.554" transform="matrix(.1 0 0 -.1 0 200)"/><path style="fill-rule:nonzero;fill:#31000a;fill-opacity:1;stroke-width:7.2;stroke-linecap:round;stroke-linejoin:round;stroke:#000;stroke-opacity:1;stroke-miterlimit:10" d="m1785.547 1532.383 80.937-136.68-86.367-31.758" transform="matrix(.1 0 0 -.1 0 200)"/><path style="stroke:none;fill-rule:nonzero;fill:#0830b1;fill-opacity:1" d="m190.273 118.453-5.449 25.031-8.613-.214"/><path style="fill:none;stroke-width:7.2;stroke-linecap:round;stroke-linejoin:round;stroke:#000;stroke-opacity:1;stroke-miterlimit:10" d="m1902.734 815.469-54.492-250.313-86.133 2.149Zm0 0" transform="matrix(.1 0 0 -.1 0 200)"/><path style="fill-rule:nonzero;fill:#816cb2;fill-opacity:1;stroke-width:7.2;stroke-linecap:round;stroke-linejoin:round;stroke:#000;stroke-opacity:1;stroke-miterlimit:10" d="m1909.414 1125.39-6.68-309.921-140.625-248.164" transform="matrix(.1 0 0 -.1 0 200)"/><path style="fill-rule:nonzero;fill:#dde3d9;fill-opacity:1;stroke-width:7.2;stroke-linecap:round;stroke-linejoin:round;stroke:#000;stroke-opacity:1;stroke-miterlimit:10" d="M525.781 166.875 285.313 325l4.453 189.219" transform="matrix(.1 0 0 -.1 0 200)"/><path style="stroke:none;fill-rule:nonzero;fill:#f4eeb9;fill-opacity:1" d="m28.531 167.5-13.27-28.816 13.716 9.894"/><path style="fill:none;stroke-width:7.2;stroke-linecap:round;stroke-linejoin:round;stroke:#000;stroke-opacity:1;stroke-miterlimit:10" d="M285.313 325 152.617 613.164l137.149-98.945Zm0 0" transform="matrix(.1 0 0 -.1 0 200)"/><path style="fill-rule:nonzero;fill:#f3c6a0;fill-opacity:1;stroke-width:7.2;stroke-linecap:round;stroke-linejoin:round;stroke:#000;stroke-opacity:1;stroke-miterlimit:10" d="m289.766 514.219-137.149 98.945-82.851 265.742" transform="matrix(.1 0 0 -.1 0 200)"/><path style="stroke:none;fill-rule:nonzero;fill:#830000;fill-opacity:1" d="m106.48 4.676-5.445 5.527-32.668 12.36"/><path style="fill:none;stroke-width:7.2;stroke-linecap:round;stroke-linejoin:round;stroke:#000;stroke-opacity:1;stroke-miterlimit:10" d="m1064.805 1953.242-54.453-55.273" transform="matrix(.1 0 0 -.1 0 200)"/><path style="stroke:none;fill-rule:nonzero;fill:#31000a;fill-opacity:1" d="m101.035 10.203 5.445-5.527 72.075 42.086"/><path style="fill:none;stroke-width:7.2;stroke-linecap:round;stroke-linejoin:round;stroke:#000;stroke-opacity:1;stroke-miterlimit:10" d="m1010.352 1897.969 54.453 55.273" transform="matrix(.1 0 0 -.1 0 200)"/><path style="fill-rule:nonzero;fill:#00004b;fill-opacity:1;stroke-width:7.2;stroke-linecap:round;stroke-linejoin:round;stroke:#000;stroke-opacity:1;stroke-miterlimit:10" d="m1909.414 1125.39-42.93 270.313 104.141-135.43" transform="matrix(.1 0 0 -.1 0 200)"/><path style="fill-rule:nonzero;fill:#00004b;fill-opacity:1;stroke-width:7.2;stroke-linecap:round;stroke-linejoin:round;stroke:#000;stroke-opacity:1;stroke-miterlimit:10" d="m1970.625 1260.273 42.266-277.539-103.477 142.657" transform="matrix(.1 0 0 -.1 0 200)"/><path style="stroke:none;fill-rule:nonzero;fill:#322d9a;fill-opacity:1" d="m201.29 101.727-11.017 16.726.668-30.992"/><path style="fill:none;stroke-width:7.2;stroke-linecap:round;stroke-linejoin:round;stroke:#000;stroke-opacity:1;stroke-miterlimit:10" d="M2012.89 982.734 1902.735 815.47l6.68 309.922Zm0 0" transform="matrix(.1 0 0 -.1 0 200)"/><path style="fill-rule:nonzero;fill:#000a98;fill-opacity:1;stroke-width:7.2;stroke-linecap:round;stroke-linejoin:round;stroke:#000;stroke-opacity:1;stroke-miterlimit:10" d="m1848.242 565.156 54.492 250.313 110.157 167.265" transform="matrix(.1 0 0 -.1 0 200)"/><path style="fill-rule:nonzero;fill:#000;fill-opacity:1;stroke-width:7.2;stroke-linecap:round;stroke-linejoin:round;stroke:#000;stroke-opacity:1;stroke-miterlimit:10" d="M525.781 166.875 710 48.32l-127.852 85.82" transform="matrix(.1 0 0 -.1 0 200)"/><path style="stroke:none;fill-rule:nonzero;fill:#000;fill-opacity:1" d="m28.531 167.5 24.047 15.813 5.637 3.273"/><path style="fill:none;stroke-width:7.2;stroke-linecap:round;stroke-linejoin:round;stroke:#000;stroke-opacity:1;stroke-miterlimit:10" d="M285.313 325 525.78 166.875" transform="matrix(.1 0 0 -.1 0 200)"/><path style="stroke:none;fill-rule:nonzero;fill:#2bafe2;fill-opacity:1" d="M101.113 194.043 71 195.168l24.813-3.469"/><path style="fill:none;stroke-width:7.2;stroke-linecap:round;stroke-linejoin:round;stroke:#000;stroke-opacity:1;stroke-miterlimit:10" d="M1011.133 59.57 710 48.32l248.125 34.688Zm0 0" transform="matrix(.1 0 0 -.1 0 200)"/><path style="stroke:none;fill-rule:nonzero;fill:#830000;fill-opacity:1" d="m18.168 55.965 1.914-3.64 48.285-29.763"/><path style="fill:none;stroke-width:7.2;stroke-linecap:round;stroke-linejoin:round;stroke:#000;stroke-opacity:1;stroke-miterlimit:10" d="m181.68 1440.352 19.14 36.406" transform="matrix(.1 0 0 -.1 0 200)"/><path style="fill-rule:nonzero;fill:#f3c6a0;fill-opacity:1;stroke-width:7.2;stroke-linecap:round;stroke-linejoin:round;stroke:#000;stroke-opacity:1;stroke-miterlimit:10" d="m69.766 878.906 11.64 323.516 100.274 237.93" transform="matrix(.1 0 0 -.1 0 200)"/><path style="stroke:none;fill-rule:nonzero;fill:#00004e;fill-opacity:1" d="m8.14 79.758 11.942-27.434-1.914 3.64"/><path style="fill:none;stroke-width:7.2;stroke-linecap:round;stroke-linejoin:round;stroke:#000;stroke-opacity:1;stroke-miterlimit:10" d="m81.406 1202.422 119.414 274.336-19.14-36.406Zm0 0" transform="matrix(.1 0 0 -.1 0 200)"/><path style="stroke:none;fill-rule:nonzero;fill:#000;fill-opacity:1" d="M197.063 73.973 186.648 60.43l-8.093-13.668"/><path style="fill:none;stroke-width:7.2;stroke-linecap:round;stroke-linejoin:round;stroke:#000;stroke-opacity:1;stroke-miterlimit:10" d="m1970.625 1260.273-104.14 135.43-80.938 136.68Zm0 0" transform="matrix(.1 0 0 -.1 0 200)"/><path style="fill-rule:nonzero;fill:#000;fill-opacity:1;stroke-width:7.2;stroke-linecap:round;stroke-linejoin:round;stroke:#000;stroke-opacity:1;stroke-miterlimit:10" d="m170.547 612.969-17.93.195L285.313 325M285.313 325l23.828-13.047L170.547 612.97" transform="matrix(.1 0 0 -.1 0 200)"/><path style="fill-rule:nonzero;fill:#000;fill-opacity:1;stroke-width:7.2;stroke-linecap:round;stroke-linejoin:round;stroke:#000;stroke-opacity:1;stroke-miterlimit:10" d="M582.148 134.14 309.141 311.954 285.312 325" transform="matrix(.1 0 0 -.1 0 200)"/><path style="stroke:none;fill-rule:nonzero;fill:#000;fill-opacity:1" d="m15.262 138.684 1.793.02-10.078-26.595"/><path style="fill:none;stroke-width:7.2;stroke-linecap:round;stroke-linejoin:round;stroke:#000;stroke-opacity:1;stroke-miterlimit:10" d="m152.617 613.164 17.93-.195L69.766 878.906Zm0 0" transform="matrix(.1 0 0 -.1 0 200)"/><path style="fill-rule:nonzero;fill:#000a98;fill-opacity:1;stroke-width:7.2;stroke-linecap:round;stroke-linejoin:round;stroke:#000;stroke-opacity:1;stroke-miterlimit:10" d="m2012.89 982.734-53.515-254.922-111.133-162.656" transform="matrix(.1 0 0 -.1 0 200)"/><path style="stroke:none;fill-rule:nonzero;fill:#a42f00;fill-opacity:1" d="m195.938 127.219-19.793 26.27 8.68-10.005"/><path style="fill:none;stroke-width:7.2;stroke-linecap:round;stroke-linejoin:round;stroke:#000;stroke-opacity:1;stroke-miterlimit:10" d="m1959.375 727.813-197.93-262.696 86.797 100.04Zm0 0" transform="matrix(.1 0 0 -.1 0 200)"/><path style="fill-rule:nonzero;fill:#700;fill-opacity:1;stroke-width:7.2;stroke-linecap:round;stroke-linejoin:round;stroke:#000;stroke-opacity:1;stroke-miterlimit:10" d="M582.148 134.14 710 48.32l301.133 11.25" transform="matrix(.1 0 0 -.1 0 200)"/><path style="fill-rule:nonzero;fill:#830000;fill-opacity:1;stroke-width:7.2;stroke-linecap:round;stroke-linejoin:round;stroke:#000;stroke-opacity:1;stroke-miterlimit:10" d="m683.672 1774.375 261.289 134.96 119.844 43.907" transform="matrix(.1 0 0 -.1 0 200)"/><path style="stroke:none;fill-rule:nonzero;fill:#31000a;fill-opacity:1" d="m106.48 4.676 20.817 6.351 51.258 35.735"/><path style="fill:none;stroke-width:7.2;stroke-linecap:round;stroke-linejoin:round;stroke:#000;stroke-opacity:1;stroke-miterlimit:10" d="m1064.805 1953.242 208.164-63.515" transform="matrix(.1 0 0 -.1 0 200)"/><path style="stroke:none;fill-rule:nonzero;fill:#72d7fa;fill-opacity:1" d="m94.496 9.066 32.8 1.961-20.816-6.351"/><path style="fill:none;stroke-width:7.2;stroke-linecap:round;stroke-linejoin:round;stroke:#000;stroke-opacity:1;stroke-miterlimit:10" d="m944.96 1909.336 328.009-19.61-208.164 63.516Zm0 0" transform="matrix(.1 0 0 -.1 0 200)"/><path style="stroke:none;fill-rule:nonzero;fill:#ffd07d;fill-opacity:1" d="m201.29 101.727-4.227-27.754-9.2 41.672"/><path style="fill:none;stroke-width:7.2;stroke-linecap:round;stroke-linejoin:round;stroke:#000;stroke-opacity:1;stroke-miterlimit:10" d="m2012.89 982.734-42.265 277.54" transform="matrix(.1 0 0 -.1 0 200)"/><path style="fill-rule:nonzero;fill:#ffd07d;fill-opacity:1;stroke-width:7.2;stroke-linecap:round;stroke-linejoin:round;stroke:#000;stroke-opacity:1;stroke-miterlimit:10" d="m1878.633 843.555 80.742-115.742 53.516 254.921" transform="matrix(.1 0 0 -.1 0 200)"/><path style="fill-rule:nonzero;fill:#830000;fill-opacity:1;stroke-width:7.2;stroke-linecap:round;stroke-linejoin:round;stroke:#000;stroke-opacity:1;stroke-miterlimit:10" d="m200.82 1476.758 191.133 127.93 291.719 169.687" transform="matrix(.1 0 0 -.1 0 200)"/><path style="fill-rule:nonzero;fill:#6c5cae;fill-opacity:1;stroke-width:7.2;stroke-linecap:round;stroke-linejoin:round;stroke:#000;stroke-opacity:1;stroke-miterlimit:10" d="m391.953 1604.688-191.133-127.93-119.414-274.336" transform="matrix(.1 0 0 -.1 0 200)"/><path style="stroke:none;fill-rule:nonzero;fill:#6c5cae;fill-opacity:1" d="M58.887 47.477 39.195 39.53 8.141 79.758"/><path style="fill:none;stroke-width:7.2;stroke-linecap:round;stroke-linejoin:round;stroke:#000;stroke-opacity:1;stroke-miterlimit:10" d="m588.867 1525.234-196.914 79.454" transform="matrix(.1 0 0 -.1 0 200)"/><path style="stroke:none;fill-rule:nonzero;fill:#6c5cae;fill-opacity:1" d="M71.078 74.824 58.887 47.477 8.14 79.757"/><path style="fill:none;stroke-width:7.2;stroke-linecap:round;stroke-linejoin:round;stroke:#000;stroke-opacity:1;stroke-miterlimit:10" d="m710.781 1251.758-121.914 273.476" transform="matrix(.1 0 0 -.1 0 200)"/><path style="stroke:none;fill-rule:nonzero;fill:#6c5cae;fill-opacity:1" d="m69.965 110.836 1.113-36.012-62.937 4.934"/><path style="fill:none;stroke-width:7.2;stroke-linecap:round;stroke-linejoin:round;stroke:#000;stroke-opacity:1;stroke-miterlimit:10" d="m699.648 891.64 11.133 360.118" transform="matrix(.1 0 0 -.1 0 200)"/><path style="stroke:none;fill-rule:nonzero;fill:#6c5cae;fill-opacity:1" d="m55.938 139.758 14.027-28.922L8.14 79.758"/><path style="fill:none;stroke-width:7.2;stroke-linecap:round;stroke-linejoin:round;stroke:#000;stroke-opacity:1;stroke-miterlimit:10" d="M559.375 602.422 699.648 891.64" transform="matrix(.1 0 0 -.1 0 200)"/><path style="stroke:none;fill-rule:nonzero;fill:#6c5cae;fill-opacity:1" d="m35.496 149.828 20.441-10.07-47.796-60"/><path style="fill:none;stroke-width:7.2;stroke-linecap:round;stroke-linejoin:round;stroke:#000;stroke-opacity:1;stroke-miterlimit:10" d="m354.96 501.719 204.415 100.703" transform="matrix(.1 0 0 -.1 0 200)"/><path style="stroke:none;fill-rule:nonzero;fill:#6c5cae;fill-opacity:1" d="m17.055 138.703 18.441 11.125-27.355-70.07"/><path style="fill:none;stroke-width:7.2;stroke-linecap:round;stroke-linejoin:round;stroke:#000;stroke-opacity:1;stroke-miterlimit:10" d="m170.547 612.969 184.414-111.25" transform="matrix(.1 0 0 -.1 0 200)"/><path style="fill-rule:nonzero;fill:#6c5cae;fill-opacity:1;stroke-width:7.2;stroke-linecap:round;stroke-linejoin:round;stroke:#000;stroke-opacity:1;stroke-miterlimit:10" d="m81.406 1202.422-11.64-323.516 100.78-265.937" transform="matrix(.1 0 0 -.1 0 200)"/><path style="fill-rule:nonzero;fill:#700;fill-opacity:1;stroke-width:7.2;stroke-linecap:round;stroke-linejoin:round;stroke:#000;stroke-opacity:1;stroke-miterlimit:10" d="m1011.133 59.57-117.774 87.578-311.21-13.007" transform="matrix(.1 0 0 -.1 0 200)"/><path style="stroke:none;fill-rule:nonzero;fill:#8c1110;fill-opacity:1" d="m101.113 194.043 21.516-8.16-33.293-.598"/><path style="fill:none;stroke-width:7.2;stroke-linecap:round;stroke-linejoin:round;stroke:#000;stroke-opacity:1;stroke-miterlimit:10" d="m1011.133 59.57 215.156 81.602-332.93 5.976Zm0 0" transform="matrix(.1 0 0 -.1 0 200)"/><path style="fill-rule:nonzero;fill:#eaf2cd;fill-opacity:1;stroke-width:7.2;stroke-linecap:round;stroke-linejoin:round;stroke:#000;stroke-opacity:1;stroke-miterlimit:10" d="m1886.055 1186.172 84.57 74.101-185.078 272.11" transform="matrix(.1 0 0 -.1 0 200)"/><path style="fill-rule:nonzero;fill:#ffd07d;fill-opacity:1;stroke-width:7.2;stroke-linecap:round;stroke-linejoin:round;stroke:#000;stroke-opacity:1;stroke-miterlimit:10" d="m1970.625 1260.273-84.57-74.101-7.422-342.617" transform="matrix(.1 0 0 -.1 0 200)"/><path style="fill-rule:nonzero;fill:#eaf2cd;fill-opacity:1;stroke-width:7.2;stroke-linecap:round;stroke-linejoin:round;stroke:#000;stroke-opacity:1;stroke-miterlimit:10" d="m1785.547 1532.383-92.344-62.656 192.852-283.555" transform="matrix(.1 0 0 -.1 0 200)"/><path style="fill-rule:nonzero;fill:#31000a;fill-opacity:1;stroke-width:7.2;stroke-linecap:round;stroke-linejoin:round;stroke:#000;stroke-opacity:1;stroke-miterlimit:10" d="m1272.969 1889.727 282.343-164.375 230.235-192.97" transform="matrix(.1 0 0 -.1 0 200)"/><path style="stroke:none;fill-rule:nonzero;fill:#e3f4d6;fill-opacity:1" d="M178.555 46.762 155.53 27.465l13.79 25.562"/><path style="fill:none;stroke-width:7.2;stroke-linecap:round;stroke-linejoin:round;stroke:#000;stroke-opacity:1;stroke-miterlimit:10" d="m1785.547 1532.383-230.235 192.969 137.891-255.625Zm0 0" transform="matrix(.1 0 0 -.1 0 200)"/><path style="fill-rule:nonzero;fill:#e89062;fill-opacity:1;stroke-width:7.2;stroke-linecap:round;stroke-linejoin:round;stroke:#000;stroke-opacity:1;stroke-miterlimit:10" d="m1672.227 570.703 89.218-105.586 197.93 262.695M1959.375 727.813l-80.742 115.742-206.406-272.852" transform="matrix(.1 0 0 -.1 0 200)"/><path style="stroke:none;fill-rule:nonzero;fill:#481b73;fill-opacity:1" d="m30.914 168.805 4.582-18.977-18.441-11.125"/><path style="fill:none;stroke-width:7.2;stroke-linecap:round;stroke-linejoin:round;stroke:#000;stroke-opacity:1;stroke-miterlimit:10" d="m309.14 311.953 45.82 189.766-184.413 111.25Zm0 0" transform="matrix(.1 0 0 -.1 0 200)"/><path style="fill-rule:nonzero;fill:#793771;fill-opacity:1;stroke-width:7.2;stroke-linecap:round;stroke-linejoin:round;stroke:#000;stroke-opacity:1;stroke-miterlimit:10" d="m638.125 319.258-283.164 182.46-45.82-189.765" transform="matrix(.1 0 0 -.1 0 200)"/><path style="fill-rule:nonzero;fill:#793771;fill-opacity:1;stroke-width:7.2;stroke-linecap:round;stroke-linejoin:round;stroke:#000;stroke-opacity:1;stroke-miterlimit:10" d="m309.14 311.953 273.008-177.812 55.977 185.117" transform="matrix(.1 0 0 -.1 0 200)"/><path style="stroke:none;fill-rule:nonzero;fill:#e1855b;fill-opacity:1" d="m176.145 153.488-8.922-10.558-15.176 27.074"/><path style="fill:none;stroke-width:7.2;stroke-linecap:round;stroke-linejoin:round;stroke:#000;stroke-opacity:1;stroke-miterlimit:10" d="m1761.445 465.117-89.218 105.586-151.758-270.742Zm0 0" transform="matrix(.1 0 0 -.1 0 200)"/><path style="fill-rule:nonzero;fill:#bbb8d7;fill-opacity:1;stroke-width:7.2;stroke-linecap:round;stroke-linejoin:round;stroke:#000;stroke-opacity:1;stroke-miterlimit:10" d="m1555.313 1725.352-282.344 164.375-328.008 19.609" transform="matrix(.1 0 0 -.1 0 200)"/><path style="stroke:none;fill-rule:nonzero;fill:#994a6a;fill-opacity:1" d="m58.215 186.586 31.12-1.3-25.522-17.212"/><path style="fill:none;stroke-width:7.2;stroke-linecap:round;stroke-linejoin:round;stroke:#000;stroke-opacity:1;stroke-miterlimit:10" d="m582.148 134.14 311.211 13.008-255.234 172.11Zm0 0" transform="matrix(.1 0 0 -.1 0 200)"/><path style="stroke:none;fill-rule:nonzero;fill:#bbb8d7;fill-opacity:1" d="m169.32 53.027-13.789-25.562L94.496 9.066"/><path style="fill:none;stroke-width:7.2;stroke-linecap:round;stroke-linejoin:round;stroke:#000;stroke-opacity:1;stroke-miterlimit:10" d="m1693.203 1469.727-137.89 255.625" transform="matrix(.1 0 0 -.1 0 200)"/><path style="stroke:none;fill-rule:nonzero;fill:#bbb8d7;fill-opacity:1" d="m162.7 78.852 6.62-25.825-74.824-43.96"/><path style="fill:none;stroke-width:7.2;stroke-linecap:round;stroke-linejoin:round;stroke:#000;stroke-opacity:1;stroke-miterlimit:10" d="m1626.992 1211.484 66.211 258.243" transform="matrix(.1 0 0 -.1 0 200)"/><path style="stroke:none;fill-rule:nonzero;fill:#bbb8d7;fill-opacity:1" d="M136.738 94.695 162.7 78.852 94.496 9.066"/><path style="fill:none;stroke-width:7.2;stroke-linecap:round;stroke-linejoin:round;stroke:#000;stroke-opacity:1;stroke-miterlimit:10" d="m1367.383 1053.047 259.61 158.437" transform="matrix(.1 0 0 -.1 0 200)"/><path style="stroke:none;fill-rule:nonzero;fill:#bbb8d7;fill-opacity:1" d="m101.184 93.277 35.554 1.418L94.496 9.066"/><path style="fill:none;stroke-width:7.2;stroke-linecap:round;stroke-linejoin:round;stroke:#000;stroke-opacity:1;stroke-miterlimit:10" d="m1011.836 1067.227 355.547-14.18" transform="matrix(.1 0 0 -.1 0 200)"/><path style="stroke:none;fill-rule:nonzero;fill:#bbb8d7;fill-opacity:1" d="m71.078 74.824 30.106 18.453-6.688-84.21"/><path style="fill:none;stroke-width:7.2;stroke-linecap:round;stroke-linejoin:round;stroke:#000;stroke-opacity:1;stroke-miterlimit:10" d="m710.781 1251.758 301.055-184.531" transform="matrix(.1 0 0 -.1 0 200)"/><path style="stroke:none;fill-rule:nonzero;fill:#bbb8d7;fill-opacity:1" d="m58.887 47.477 12.191 27.347L94.496 9.066"/><path style="fill:none;stroke-width:7.2;stroke-linecap:round;stroke-linejoin:round;stroke:#000;stroke-opacity:1;stroke-miterlimit:10" d="m588.867 1525.234 121.914-273.476" transform="matrix(.1 0 0 -.1 0 200)"/><path style="fill-rule:nonzero;fill:#bbb8d7;fill-opacity:1;stroke-width:7.2;stroke-linecap:round;stroke-linejoin:round;stroke:#000;stroke-opacity:1;stroke-miterlimit:10" d="m944.96 1909.336-261.288-134.961-94.805-249.14" transform="matrix(.1 0 0 -.1 0 200)"/><path style="stroke:none;fill-rule:nonzero;fill:#ba7f93;fill-opacity:1" d="m122.629 185.883 29.418-15.88-50.863-76.726"/><path style="fill:none;stroke-width:7.2;stroke-linecap:round;stroke-linejoin:round;stroke:#000;stroke-opacity:1;stroke-miterlimit:10" d="m1226.29 141.172 294.179 158.789" transform="matrix(.1 0 0 -.1 0 200)"/><path style="stroke:none;fill-rule:nonzero;fill:#ba7f93;fill-opacity:1" d="m89.336 185.285 33.293.598-21.445-92.606"/><path style="fill:none;stroke-width:7.2;stroke-linecap:round;stroke-linejoin:round;stroke:#000;stroke-opacity:1;stroke-miterlimit:10" d="m893.36 147.148 332.93-5.976" transform="matrix(.1 0 0 -.1 0 200)"/><path style="stroke:none;fill-rule:nonzero;fill:#ba7f93;fill-opacity:1" d="m152.047 170.004 15.176-27.074-66.04-49.653"/><path style="fill:none;stroke-width:7.2;stroke-linecap:round;stroke-linejoin:round;stroke:#000;stroke-opacity:1;stroke-miterlimit:10" d="m1520.469 299.96 151.758 270.743" transform="matrix(.1 0 0 -.1 0 200)"/><path style="stroke:none;fill-rule:nonzero;fill:#ba7f93;fill-opacity:1" d="m63.813 168.074 25.523 17.211 11.848-92.008"/><path style="fill:none;stroke-width:7.2;stroke-linecap:round;stroke-linejoin:round;stroke:#000;stroke-opacity:1;stroke-miterlimit:10" d="m638.125 319.258 255.234-172.11" transform="matrix(.1 0 0 -.1 0 200)"/><path style="stroke:none;fill-rule:nonzero;fill:#7f95df;fill-opacity:1" d="M68.367 22.563 39.195 39.53l19.692 7.946"/><path style="fill:none;stroke-width:7.2;stroke-linecap:round;stroke-linejoin:round;stroke:#000;stroke-opacity:1;stroke-miterlimit:10" d="m683.672 1774.375-291.719-169.688 196.914-79.453Zm0 0" transform="matrix(.1 0 0 -.1 0 200)"/><path style="fill-rule:nonzero;fill:#d9b3b1;fill-opacity:1;stroke-width:7.2;stroke-linecap:round;stroke-linejoin:round;stroke:#000;stroke-opacity:1;stroke-miterlimit:10" d="m1878.633 843.555 7.422 342.617-259.063 25.312" transform="matrix(.1 0 0 -.1 0 200)"/><path style="stroke:none;fill-rule:nonzero;fill:#d8c8ca;fill-opacity:1" d="m162.7 78.852 25.905 2.53-19.285-28.355"/><path style="fill:none;stroke-width:7.2;stroke-linecap:round;stroke-linejoin:round;stroke:#000;stroke-opacity:1;stroke-miterlimit:10" d="m1626.992 1211.484 259.063-25.312-192.852 283.555Zm0 0" transform="matrix(.1 0 0 -.1 0 200)"/><path style="stroke:none;fill-rule:nonzero;fill:#844980;fill-opacity:1" d="m35.496 149.828 28.316 18.246-7.874-28.316"/><path style="fill:none;stroke-width:7.2;stroke-linecap:round;stroke-linejoin:round;stroke:#000;stroke-opacity:1;stroke-miterlimit:10" d="m354.96 501.719 283.165-182.461-78.75 283.164Zm0 0" transform="matrix(.1 0 0 -.1 0 200)"/><path style="stroke:none;fill-rule:nonzero;fill:#d69b96;fill-opacity:1" d="m187.863 115.645-26.004-1.555 5.364 28.84"/><path style="fill:none;stroke-width:7.2;stroke-linecap:round;stroke-linejoin:round;stroke:#000;stroke-opacity:1;stroke-miterlimit:10" d="m1878.633 843.555-260.04 15.547 53.634-288.399Zm0 0" transform="matrix(.1 0 0 -.1 0 200)"/><path style="fill-rule:nonzero;fill:#d9b3b1;fill-opacity:1;stroke-width:7.2;stroke-linecap:round;stroke-linejoin:round;stroke:#000;stroke-opacity:1;stroke-miterlimit:10" d="m1626.992 1211.484-8.398-352.382 260.039-15.547" transform="matrix(.1 0 0 -.1 0 200)"/><path style="stroke:none;fill-rule:nonzero;fill:#ba7f93;fill-opacity:1" d="m167.223 142.93-5.364-28.84-60.675-20.813"/><path style="fill:none;stroke-width:7.2;stroke-linecap:round;stroke-linejoin:round;stroke:#000;stroke-opacity:1;stroke-miterlimit:10" d="m1672.227 570.703-53.633 288.399" transform="matrix(.1 0 0 -.1 0 200)"/><path style="stroke:none;fill-rule:nonzero;fill:#ba7f93;fill-opacity:1" d="m55.938 139.758 7.874 28.316 37.372-74.797"/><path style="fill:none;stroke-width:7.2;stroke-linecap:round;stroke-linejoin:round;stroke:#000;stroke-opacity:1;stroke-miterlimit:10" d="m559.375 602.422 78.75-283.164" transform="matrix(.1 0 0 -.1 0 200)"/><path style="stroke:none;fill-rule:nonzero;fill:#d3aeb3;fill-opacity:1" d="m162.7 78.852-25.962 15.843 25.121 19.395"/><path style="fill:none;stroke-width:7.2;stroke-linecap:round;stroke-linejoin:round;stroke:#000;stroke-opacity:1;stroke-miterlimit:10" d="m1626.992 1211.484-259.61-158.437 251.212-193.945Zm0 0" transform="matrix(.1 0 0 -.1 0 200)"/><path style="fill-rule:nonzero;fill:#ba7f93;fill-opacity:1;stroke-width:7.2;stroke-linecap:round;stroke-linejoin:round;stroke:#000;stroke-opacity:1;stroke-miterlimit:10" d="m1618.594 859.102-251.211 193.945-355.547 14.18M1011.836 1067.227 699.648 891.64 559.375 602.42" transform="matrix(.1 0 0 -.1 0 200)"/><path style="stroke:none;fill-rule:nonzero;fill:#a98db7;fill-opacity:1" d="m71.078 74.824-1.113 36.012 31.219-17.559"/><path style="fill:none;stroke-width:7.2;stroke-linecap:round;stroke-linejoin:round;stroke:#000;stroke-opacity:1;stroke-miterlimit:10" d="M710.781 1251.758 699.648 891.64l312.188 175.586Zm0 0" transform="matrix(.1 0 0 -.1 0 200)"/></svg>