<svg xmlns="http://www.w3.org/2000/svg" width="206pt" height="200pt" viewBox="0 0 206 200" version="1.2"><path style="fill-rule:nonzero;fill:#b07f9e;fill-opacity:1;stroke-width:7.36;stroke-linecap:round;stroke-linejoin:round;stroke:#000;stroke-opacity:1;stroke-miterlimit:10" d="m1370.703 1467.188-59.492-352.032-381.797-49.922" transform="matrix(.1 0 0 -.1 0 200)"/><path style="stroke:none;fill-rule:nonzero;fill:#b07f9e;fill-opacity:1" d="m101.215 36.3 35.855 16.981-44.129 40.196"/><path style="fill:none;stroke-width:7.36;stroke-linecap:round;stroke-linejoin:round;stroke:#000;stroke-opacity:1;stroke-miterlimit:10" d="m1012.148 1636.992 358.555-169.804" transform="matrix(.1 0 0 -.1 0 200)"/><path style="fill-rule:nonzero;fill:#b07f9e;fill-opacity:1;stroke-width:7.36;stroke-linecap:round;stroke-linejoin:round;stroke:#000;stroke-opacity:1;stroke-miterlimit:10" d="m929.414 1065.234-188.36 315.743 271.094 256.015" transform="matrix(.1 0 0 -.1 0 200)"/><path style="fill-rule:nonzero;fill:#c59aab;fill-opacity:1;stroke-width:7.36;stroke-linecap:round;stroke-linejoin:round;stroke:#000;stroke-opacity:1;stroke-miterlimit:10" d="m741.055 1380.977 188.36-315.743-308.282-224.101" transform="matrix(.1 0 0 -.1 0 200)"/><path style="stroke:none;fill-rule:nonzero;fill:#bc9db9;fill-opacity:1" d="m97.34 131.906-35.227-16.02 30.828-22.41"/><path style="fill:none;stroke-width:7.36;stroke-linecap:round;stroke-linejoin:round;stroke:#000;stroke-opacity:1;stroke-miterlimit:10" d="M973.398 680.938 621.133 841.132l308.281 224.101Zm0 0" transform="matrix(.1 0 0 -.1 0 200)"/><path style="fill-rule:nonzero;fill:#ae90b7;fill-opacity:1;stroke-width:7.36;stroke-linecap:round;stroke-linejoin:round;stroke:#000;stroke-opacity:1;stroke-miterlimit:10" d="m973.398 680.938-43.984 384.296 381.797 49.922" transform="matrix(.1 0 0 -.1 0 200)"/><path style="fill-rule:nonzero;fill:#c2afc6;fill-opacity:1;stroke-width:7.36;stroke-linecap:round;stroke-linejoin:round;stroke:#000;stroke-opacity:1;stroke-miterlimit:10" d="m621.133 841.133 352.265-160.196-116.445-328.085" transform="matrix(.1 0 0 -.1 0 200)"/><path style="fill-rule:nonzero;fill:#ae90b7;fill-opacity:1;stroke-width:7.36;stroke-linecap:round;stroke-linejoin:round;stroke:#000;stroke-opacity:1;stroke-miterlimit:10" d="m1311.21 1115.156 45.977-386.797-383.789-47.422" transform="matrix(.1 0 0 -.1 0 200)"/><path style="stroke:none;fill-rule:nonzero;fill:#a8a1ce;fill-opacity:1" d="m97.34 131.906 38.379-4.742-17.668 54.121"/><path style="fill:none;stroke-width:7.36;stroke-linecap:round;stroke-linejoin:round;stroke:#000;stroke-opacity:1;stroke-miterlimit:10" d="m973.398 680.938 383.79 47.421" transform="matrix(.1 0 0 -.1 0 200)"/><path style="fill-rule:nonzero;fill:#a8a1ce;fill-opacity:1;stroke-width:7.36;stroke-linecap:round;stroke-linejoin:round;stroke:#000;stroke-opacity:1;stroke-miterlimit:10" d="M1180.508 187.148 856.953 352.852l116.445 328.086" transform="matrix(.1 0 0 -.1 0 200)"/><path style="fill-rule:nonzero;fill:#936ba1;fill-opacity:1;stroke-width:7.36;stroke-linecap:round;stroke-linejoin:round;stroke:#000;stroke-opacity:1;stroke-miterlimit:10" d="m1637.852 970.625-326.641 144.531 59.492 352.032" transform="matrix(.1 0 0 -.1 0 200)"/><path style="stroke:none;fill-rule:nonzero;fill:#9c80b4;fill-opacity:1" d="m135.719 127.164-4.598-38.68 32.664 14.454"/><path style="fill:none;stroke-width:7.36;stroke-linecap:round;stroke-linejoin:round;stroke:#000;stroke-opacity:1;stroke-miterlimit:10" d="m1357.188 728.36-45.977 386.796 326.64-144.531Zm0 0" transform="matrix(.1 0 0 -.1 0 200)"/><path style="fill-rule:nonzero;fill:#dab9b7;fill-opacity:1;stroke-width:7.36;stroke-linecap:round;stroke-linejoin:round;stroke:#000;stroke-opacity:1;stroke-miterlimit:10" d="m621.133 841.133-126.29-326.25L205 623.28" transform="matrix(.1 0 0 -.1 0 200)"/><path style="stroke:none;fill-rule:nonzero;fill:#dab9b7;fill-opacity:1" d="m42.496 84.367 19.617 31.52L20.5 137.672"/><path style="fill:none;stroke-width:7.36;stroke-linecap:round;stroke-linejoin:round;stroke:#000;stroke-opacity:1;stroke-miterlimit:10" d="m424.96 1156.328 196.173-315.195" transform="matrix(.1 0 0 -.1 0 200)"/><path style="fill-rule:nonzero;fill:#c2afc6;fill-opacity:1;stroke-width:7.36;stroke-linecap:round;stroke-linejoin:round;stroke:#000;stroke-opacity:1;stroke-miterlimit:10" d="m856.953 352.852-362.11 162.03 126.29 326.25" transform="matrix(.1 0 0 -.1 0 200)"/><path style="fill-rule:nonzero;fill:#c59aab;fill-opacity:1;stroke-width:7.36;stroke-linecap:round;stroke-linejoin:round;stroke:#000;stroke-opacity:1;stroke-miterlimit:10" d="M621.133 841.133 424.96 1156.328l316.094 224.649" transform="matrix(.1 0 0 -.1 0 200)"/><path style="fill-rule:nonzero;fill:#a8a1ce;fill-opacity:1;stroke-width:7.36;stroke-linecap:round;stroke-linejoin:round;stroke:#000;stroke-opacity:1;stroke-miterlimit:10" d="m1357.188 728.36 138.124-300.235-314.804-240.977" transform="matrix(.1 0 0 -.1 0 200)"/><path style="fill-rule:nonzero;fill:#8c80c0;fill-opacity:1;stroke-width:7.36;stroke-linecap:round;stroke-linejoin:round;stroke:#000;stroke-opacity:1;stroke-miterlimit:10" d="m1495.313 428.125-138.126 300.234 280.665 242.266" transform="matrix(.1 0 0 -.1 0 200)"/><path style="fill-rule:nonzero;fill:#c17a82;fill-opacity:1;stroke-width:7.36;stroke-linecap:round;stroke-linejoin:round;stroke:#000;stroke-opacity:1;stroke-miterlimit:10" d="m740.664 1785.195 271.484-148.203-271.093-256.015" transform="matrix(.1 0 0 -.1 0 200)"/><path style="fill-rule:nonzero;fill:#c17a82;fill-opacity:1;stroke-width:7.36;stroke-linecap:round;stroke-linejoin:round;stroke:#000;stroke-opacity:1;stroke-miterlimit:10" d="m741.055 1380.977-275.86 136.445 275.47 267.773" transform="matrix(.1 0 0 -.1 0 200)"/><path style="stroke:none;fill-rule:nonzero;fill:#cd9398;fill-opacity:1" d="m42.496 84.367 4.024-36.11 27.585 13.645"/><path style="fill:none;stroke-width:7.36;stroke-linecap:round;stroke-linejoin:round;stroke:#000;stroke-opacity:1;stroke-miterlimit:10" d="m424.96 1156.328 40.235 361.094 275.86-136.445Zm0 0" transform="matrix(.1 0 0 -.1 0 200)"/><path style="fill-rule:nonzero;fill:#e3a38d;fill-opacity:1;stroke-width:7.36;stroke-linecap:round;stroke-linejoin:round;stroke:#000;stroke-opacity:1;stroke-miterlimit:10" d="m465.195 1517.422-40.234-361.094-263.516-122.031" transform="matrix(.1 0 0 -.1 0 200)"/><path style="fill-rule:nonzero;fill:#dab9b7;fill-opacity:1;stroke-width:7.36;stroke-linecap:round;stroke-linejoin:round;stroke:#000;stroke-opacity:1;stroke-miterlimit:10" d="m205 623.281-43.555 411.016 263.516 122.031" transform="matrix(.1 0 0 -.1 0 200)"/><path style="stroke:none;fill-rule:nonzero;fill:#82e9d6;fill-opacity:1" d="m85.695 164.715 32.356 16.57 12.597 13.344"/><path style="fill:none;stroke-width:7.36;stroke-linecap:round;stroke-linejoin:round;stroke:#000;stroke-opacity:1;stroke-miterlimit:10" d="m856.953 352.852 323.555-165.704" transform="matrix(.1 0 0 -.1 0 200)"/><path style="stroke:none;fill-rule:nonzero;fill:#82e9d6;fill-opacity:1" d="m49.484 148.512 36.211 16.203 44.953 29.914"/><path style="fill:none;stroke-width:7.36;stroke-linecap:round;stroke-linejoin:round;stroke:#000;stroke-opacity:1;stroke-miterlimit:10" d="m494.844 514.883 362.11-162.031" transform="matrix(.1 0 0 -.1 0 200)"/><path style="fill-rule:nonzero;fill:#974f74;fill-opacity:1;stroke-width:7.36;stroke-linecap:round;stroke-linejoin:round;stroke:#000;stroke-opacity:1;stroke-miterlimit:10" d="m1149.453 1844.219 372.969-178.594-151.719-198.438" transform="matrix(.1 0 0 -.1 0 200)"/><path style="fill-rule:nonzero;fill:#974f74;fill-opacity:1;stroke-width:7.36;stroke-linecap:round;stroke-linejoin:round;stroke:#000;stroke-opacity:1;stroke-miterlimit:10" d="m1370.703 1467.188-358.555 169.804 137.305 207.227" transform="matrix(.1 0 0 -.1 0 200)"/><path style="stroke:none;fill-rule:nonzero;fill:#844b83;fill-opacity:1" d="M170.633 67.246 137.07 53.281l15.172-19.843"/><path style="fill:none;stroke-width:7.36;stroke-linecap:round;stroke-linejoin:round;stroke:#000;stroke-opacity:1;stroke-miterlimit:10" d="m1706.328 1327.54-335.625 139.648 151.719 198.437Zm0 0" transform="matrix(.1 0 0 -.1 0 200)"/><path style="fill-rule:nonzero;fill:#936ba1;fill-opacity:1;stroke-width:7.36;stroke-linecap:round;stroke-linejoin:round;stroke:#000;stroke-opacity:1;stroke-miterlimit:10" d="m1370.703 1467.188 335.625-139.649-68.476-356.914" transform="matrix(.1 0 0 -.1 0 200)"/><path style="fill-rule:nonzero;fill:#59449e;fill-opacity:1;stroke-width:7.36;stroke-linecap:round;stroke-linejoin:round;stroke:#000;stroke-opacity:1;stroke-miterlimit:10" d="m1787.227 672.07-149.375 298.555 68.476 356.914" transform="matrix(.1 0 0 -.1 0 200)"/><path style="fill-rule:nonzero;fill:#8c80c0;fill-opacity:1;stroke-width:7.36;stroke-linecap:round;stroke-linejoin:round;stroke:#000;stroke-opacity:1;stroke-miterlimit:10" d="m1637.852 970.625 149.375-298.555-291.915-243.945" transform="matrix(.1 0 0 -.1 0 200)"/><path style="stroke:none;fill-rule:nonzero;fill:#82e9d6;fill-opacity:1" d="m20.5 137.672 28.984 10.84 81.164 46.117"/><path style="fill:none;stroke-width:7.36;stroke-linecap:round;stroke-linejoin:round;stroke:#000;stroke-opacity:1;stroke-miterlimit:10" d="m205 623.281 289.844-108.398" transform="matrix(.1 0 0 -.1 0 200)"/><path style="stroke:none;fill-rule:nonzero;fill:#ab5362;fill-opacity:1" d="M101.215 36.3 74.066 21.48l40.88-5.902"/><path style="fill:none;stroke-width:7.36;stroke-linecap:round;stroke-linejoin:round;stroke:#000;stroke-opacity:1;stroke-miterlimit:10" d="m1012.148 1636.992-271.484 148.203 408.79 59.024Zm0 0" transform="matrix(.1 0 0 -.1 0 200)"/><path style="stroke:none;fill-rule:nonzero;fill:#707dd0;fill-opacity:1" d="m168.59 167.547-19.059-10.36 29.192-24.394"/><path style="fill:none;stroke-width:7.36;stroke-linecap:round;stroke-linejoin:round;stroke:#000;stroke-opacity:1;stroke-miterlimit:10" d="m1685.898 324.531-190.585 103.594 291.914 243.945Zm0 0" transform="matrix(.1 0 0 -.1 0 200)"/><path style="fill-rule:nonzero;fill:#7b9be5;fill-opacity:1;stroke-width:7.36;stroke-linecap:round;stroke-linejoin:round;stroke:#000;stroke-opacity:1;stroke-miterlimit:10" d="m1495.313 428.125 190.585-103.594-327.304-253.554M1358.594 70.977l-178.086 116.171 314.804 240.977" transform="matrix(.1 0 0 -.1 0 200)"/><path style="fill-rule:nonzero;fill:#d05b22;fill-opacity:1;stroke-width:7.36;stroke-linecap:round;stroke-linejoin:round;stroke:#000;stroke-opacity:1;stroke-miterlimit:10" d="m740.664 1785.195-275.469-267.773-268.32-110.86" transform="matrix(.1 0 0 -.1 0 200)"/><path style="fill-rule:nonzero;fill:#e3a38d;fill-opacity:1;stroke-width:7.36;stroke-linecap:round;stroke-linejoin:round;stroke:#000;stroke-opacity:1;stroke-miterlimit:10" d="m161.445 1034.297 35.43 372.265 268.32 110.86" transform="matrix(.1 0 0 -.1 0 200)"/><path style="fill-rule:nonzero;fill:#82e9d6;fill-opacity:1;stroke-width:7.36;stroke-linecap:round;stroke-linejoin:round;stroke:#000;stroke-opacity:1;stroke-miterlimit:10" d="m1180.508 187.148 178.086-116.171-52.11-17.266" transform="matrix(.1 0 0 -.1 0 200)"/><path style="fill-rule:nonzero;fill:#3e0055;fill-opacity:1;stroke-width:7.36;stroke-linecap:round;stroke-linejoin:round;stroke:#000;stroke-opacity:1;stroke-miterlimit:10" d="m1720.469 1618.086 188.633-353.047-202.774 62.5" transform="matrix(.1 0 0 -.1 0 200)"/><path style="fill-rule:nonzero;fill:#3e0055;fill-opacity:1;stroke-width:7.36;stroke-linecap:round;stroke-linejoin:round;stroke:#000;stroke-opacity:1;stroke-miterlimit:10" d="m1706.328 1327.54-183.906 338.085 198.047-47.54" transform="matrix(.1 0 0 -.1 0 200)"/><path style="stroke:none;fill-rule:nonzero;fill:#59449e;fill-opacity:1" d="m170.633 67.246 20.277 6.25-12.187 59.297"/><path style="fill:none;stroke-width:7.36;stroke-linecap:round;stroke-linejoin:round;stroke:#000;stroke-opacity:1;stroke-miterlimit:10" d="m1706.328 1327.54 202.774-62.5" transform="matrix(.1 0 0 -.1 0 200)"/><path style="fill-rule:nonzero;fill:#59449e;fill-opacity:1;stroke-width:7.36;stroke-linecap:round;stroke-linejoin:round;stroke:#000;stroke-opacity:1;stroke-miterlimit:10" d="m1909.102 1265.04 53.242-423.4-175.117-169.57" transform="matrix(.1 0 0 -.1 0 200)"/><path style="fill-rule:nonzero;fill:#0f37b6;fill-opacity:1;stroke-width:7.36;stroke-linecap:round;stroke-linejoin:round;stroke:#000;stroke-opacity:1;stroke-miterlimit:10" d="m1685.898 324.531 101.329 347.54 175.117 169.57" transform="matrix(.1 0 0 -.1 0 200)"/><path style="stroke:none;fill-rule:nonzero;fill:#fbb66c;fill-opacity:1" d="m4.813 93.168 14.875-33.824-3.543 37.226"/><path style="fill:none;stroke-width:7.36;stroke-linecap:round;stroke-linejoin:round;stroke:#000;stroke-opacity:1;stroke-miterlimit:10" d="m48.125 1068.32 148.75 338.243-35.43-372.266Zm0 0" transform="matrix(.1 0 0 -.1 0 200)"/><path style="fill-rule:nonzero;fill:#fedc92;fill-opacity:1;stroke-width:7.36;stroke-linecap:round;stroke-linejoin:round;stroke:#000;stroke-opacity:1;stroke-miterlimit:10" d="M161.445 1034.297 205 623.28 93.32 635.703" transform="matrix(.1 0 0 -.1 0 200)"/><path style="fill-rule:nonzero;fill:#fedc92;fill-opacity:1;stroke-width:7.36;stroke-linecap:round;stroke-linejoin:round;stroke:#000;stroke-opacity:1;stroke-miterlimit:10" d="M93.32 635.703 48.125 1068.32l113.32-34.023" transform="matrix(.1 0 0 -.1 0 200)"/><path style="stroke:none;fill-rule:nonzero;fill:#82e9d6;fill-opacity:1" d="m9.332 136.43 11.168 1.242 110.148 56.957"/><path style="fill:none;stroke-width:7.36;stroke-linecap:round;stroke-linejoin:round;stroke:#000;stroke-opacity:1;stroke-miterlimit:10" d="M93.32 635.703 205 623.281" transform="matrix(.1 0 0 -.1 0 200)"/><path style="stroke:none;fill-rule:nonzero;fill:#d05b22;fill-opacity:1" d="m65.734 14.094 8.332 7.386-54.379 37.864"/><path style="fill:none;stroke-width:7.36;stroke-linecap:round;stroke-linejoin:round;stroke:#000;stroke-opacity:1;stroke-miterlimit:10" d="m657.344 1859.063 83.32-73.868" transform="matrix(.1 0 0 -.1 0 200)"/><path style="fill-rule:nonzero;fill:#810000;fill-opacity:1;stroke-width:7.36;stroke-linecap:round;stroke-linejoin:round;stroke:#000;stroke-opacity:1;stroke-miterlimit:10" d="m1149.453 1844.219-408.789-59.024-83.32 73.868" transform="matrix(.1 0 0 -.1 0 200)"/><path style="fill-rule:nonzero;fill:#010000;fill-opacity:1;stroke-width:7.36;stroke-linecap:round;stroke-linejoin:round;stroke:#000;stroke-opacity:1;stroke-miterlimit:10" d="m1452.266 1778.672 268.203-160.586-198.047 47.539" transform="matrix(.1 0 0 -.1 0 200)"/><path style="stroke:none;fill-rule:nonzero;fill:#010000;fill-opacity:1" d="m108.73 7.816 36.497 14.317 7.015 11.305"/><path style="fill:none;stroke-width:7.36;stroke-linecap:round;stroke-linejoin:round;stroke:#000;stroke-opacity:1;stroke-miterlimit:10" d="m1087.305 1921.836 364.96-143.164" transform="matrix(.1 0 0 -.1 0 200)"/><path style="fill-rule:nonzero;fill:#010000;fill-opacity:1;stroke-width:7.36;stroke-linecap:round;stroke-linejoin:round;stroke:#000;stroke-opacity:1;stroke-miterlimit:10" d="m1522.422 1665.625-372.969 178.594-62.148 77.617" transform="matrix(.1 0 0 -.1 0 200)"/><path style="fill-rule:nonzero;fill:#810000;fill-opacity:1;stroke-width:7.36;stroke-linecap:round;stroke-linejoin:round;stroke:#000;stroke-opacity:1;stroke-miterlimit:10" d="m657.344 1859.063 429.96 62.773 62.15-77.617" transform="matrix(.1 0 0 -.1 0 200)"/><path style="fill-rule:nonzero;fill:#0f37b6;fill-opacity:1;stroke-width:7.36;stroke-linecap:round;stroke-linejoin:round;stroke:#000;stroke-opacity:1;stroke-miterlimit:10" d="m1962.344 841.64-101.055-358.632L1685.9 324.53" transform="matrix(.1 0 0 -.1 0 200)"/><path style="fill-rule:nonzero;fill:#8d0100;fill-opacity:1;stroke-width:7.36;stroke-linecap:round;stroke-linejoin:round;stroke:#000;stroke-opacity:1;stroke-miterlimit:10" d="m1358.594 70.977 327.304 253.554 175.391 158.477" transform="matrix(.1 0 0 -.1 0 200)"/><path style="fill-rule:nonzero;fill:#d05b22;fill-opacity:1;stroke-width:7.36;stroke-linecap:round;stroke-linejoin:round;stroke:#000;stroke-opacity:1;stroke-miterlimit:10" d="m196.875 1406.563 107.969 208.71 352.5 243.79" transform="matrix(.1 0 0 -.1 0 200)"/><path style="fill-rule:nonzero;fill:#000060;fill-opacity:1;stroke-width:7.36;stroke-linecap:round;stroke-linejoin:round;stroke:#000;stroke-opacity:1;stroke-miterlimit:10" d="M196.875 1406.563 48.125 1068.32l104.063 198.828M152.188 1267.148l152.656 348.125-107.969-208.71" transform="matrix(.1 0 0 -.1 0 200)"/><path style="fill-rule:nonzero;fill:#8d0100;fill-opacity:1;stroke-width:7.36;stroke-linecap:round;stroke-linejoin:round;stroke:#000;stroke-opacity:1;stroke-miterlimit:10" d="M1629.219 318.828 1306.484 53.711l52.11 17.266" transform="matrix(.1 0 0 -.1 0 200)"/><path style="stroke:none;fill-rule:nonzero;fill:#8d0100;fill-opacity:1" d="m186.129 151.7-23.207 16.417-27.063 24.785"/><path style="fill:none;stroke-width:7.36;stroke-linecap:round;stroke-linejoin:round;stroke:#000;stroke-opacity:1;stroke-miterlimit:10" d="m1861.29 483.008-232.071-164.18" transform="matrix(.1 0 0 -.1 0 200)"/><path style="stroke:none;fill-rule:nonzero;fill:#000;fill-opacity:1" d="m190.91 73.496-18.863-35.305 16.652 30.536"/><path style="fill:none;stroke-width:7.36;stroke-linecap:round;stroke-linejoin:round;stroke:#000;stroke-opacity:1;stroke-miterlimit:10" d="m1909.102 1265.04-188.633 353.046 166.523-305.352Zm0 0" transform="matrix(.1 0 0 -.1 0 200)"/><path style="fill-rule:nonzero;fill:#cbb831;fill-opacity:1;stroke-width:7.36;stroke-linecap:round;stroke-linejoin:round;stroke:#000;stroke-opacity:1;stroke-miterlimit:10" d="m1962.344 841.64-53.242 423.4-22.11 47.694" transform="matrix(.1 0 0 -.1 0 200)"/><path style="fill-rule:nonzero;fill:#cbb831;fill-opacity:1;stroke-width:7.36;stroke-linecap:round;stroke-linejoin:round;stroke:#000;stroke-opacity:1;stroke-miterlimit:10" d="m1886.992 1312.734 56.016-446.25 19.336-24.843" transform="matrix(.1 0 0 -.1 0 200)"/><path style="stroke:none;fill-rule:nonzero;fill:#d28900;fill-opacity:1" d="m186.129 151.7 10.105-35.864-1.933-2.484"/><path style="fill:none;stroke-width:7.36;stroke-linecap:round;stroke-linejoin:round;stroke:#000;stroke-opacity:1;stroke-miterlimit:10" d="m1861.29 483.008 101.054 358.633-19.336 24.843Zm0 0" transform="matrix(.1 0 0 -.1 0 200)"/><path style="stroke:none;fill-rule:nonzero;fill:#1b0f83;fill-opacity:1" d="m4.813 93.168 4.519 43.262 17.797-29.895"/><path style="fill:none;stroke-width:7.36;stroke-linecap:round;stroke-linejoin:round;stroke:#000;stroke-opacity:1;stroke-miterlimit:10" d="M48.125 1068.32 93.32 635.703" transform="matrix(.1 0 0 -.1 0 200)"/><path style="fill-rule:nonzero;fill:#1b0f83;fill-opacity:1;stroke-width:7.36;stroke-linecap:round;stroke-linejoin:round;stroke:#000;stroke-opacity:1;stroke-miterlimit:10" d="m271.29 934.648-119.103 332.5L48.126 1068.32" transform="matrix(.1 0 0 -.1 0 200)"/><path style="fill-rule:nonzero;fill:#e0f8d7;fill-opacity:1;stroke-width:7.36;stroke-linecap:round;stroke-linejoin:round;stroke:#000;stroke-opacity:1;stroke-miterlimit:10" d="m1886.992 1312.734-166.523 305.352-268.203 160.586" transform="matrix(.1 0 0 -.1 0 200)"/><path style="stroke:none;fill-rule:nonzero;fill:#82e9d6;fill-opacity:1" d="M22.996 146.664 9.332 136.43l121.316 58.199"/><path style="fill:none;stroke-width:7.36;stroke-linecap:round;stroke-linejoin:round;stroke:#000;stroke-opacity:1;stroke-miterlimit:10" d="M229.96 533.36 93.32 635.702" transform="matrix(.1 0 0 -.1 0 200)"/><path style="fill-rule:nonzero;fill:#1b0f83;fill-opacity:1;stroke-width:7.36;stroke-linecap:round;stroke-linejoin:round;stroke:#000;stroke-opacity:1;stroke-miterlimit:10" d="M93.32 635.703 229.96 533.36l41.33 401.29" transform="matrix(.1 0 0 -.1 0 200)"/><path style="stroke:none;fill-rule:nonzero;fill:#1b7be5;fill-opacity:1" d="m65.734 14.094-35.25 24.379L59.75 26.949"/><path style="fill:none;stroke-width:7.36;stroke-linecap:round;stroke-linejoin:round;stroke:#000;stroke-opacity:1;stroke-miterlimit:10" d="m657.344 1859.063-352.5-243.79L597.5 1730.508Zm0 0" transform="matrix(.1 0 0 -.1 0 200)"/><path style="fill-rule:nonzero;fill:#6dbcfd;fill-opacity:1;stroke-width:7.36;stroke-linecap:round;stroke-linejoin:round;stroke:#000;stroke-opacity:1;stroke-miterlimit:10" d="m1087.305 1921.836-429.961-62.774-59.844-128.554" transform="matrix(.1 0 0 -.1 0 200)"/><path style="fill-rule:nonzero;fill:#6dbcfd;fill-opacity:1;stroke-width:7.36;stroke-linecap:round;stroke-linejoin:round;stroke:#000;stroke-opacity:1;stroke-miterlimit:10" d="m597.5 1730.508 451.992 65 37.813 126.328" transform="matrix(.1 0 0 -.1 0 200)"/><path style="stroke:none;fill-rule:nonzero;fill:#a2e1fc;fill-opacity:1" d="M145.227 22.133 108.73 7.816l-3.78 12.633"/><path style="fill:none;stroke-width:7.36;stroke-linecap:round;stroke-linejoin:round;stroke:#000;stroke-opacity:1;stroke-miterlimit:10" d="m1452.266 1778.672-364.961 143.164-37.813-126.328Zm0 0" transform="matrix(.1 0 0 -.1 0 200)"/><path style="fill-rule:nonzero;fill:#f0a371;fill-opacity:1;stroke-width:7.36;stroke-linecap:round;stroke-linejoin:round;stroke:#000;stroke-opacity:1;stroke-miterlimit:10" d="m1708.281 714.531-79.062-395.703 232.07 164.18M1861.29 483.008l81.718 383.476-234.727-151.953" transform="matrix(.1 0 0 -.1 0 200)"/><path style="fill-rule:nonzero;fill:#5c79d7;fill-opacity:1;stroke-width:7.36;stroke-linecap:round;stroke-linejoin:round;stroke:#000;stroke-opacity:1;stroke-miterlimit:10" d="m597.5 1730.508-292.656-115.235-152.656-348.125" transform="matrix(.1 0 0 -.1 0 200)"/><path style="stroke:none;fill-rule:nonzero;fill:#82e9d6;fill-opacity:1" d="m58.758 165.363-35.762-18.699 107.652 47.965"/><path style="fill:none;stroke-width:7.36;stroke-linecap:round;stroke-linejoin:round;stroke:#000;stroke-opacity:1;stroke-miterlimit:10" d="M587.578 346.367 229.961 533.36" transform="matrix(.1 0 0 -.1 0 200)"/><path style="fill-rule:nonzero;fill:#82e9d6;fill-opacity:1;stroke-width:7.36;stroke-linecap:round;stroke-linejoin:round;stroke:#000;stroke-opacity:1;stroke-miterlimit:10" d="m1306.484 53.71-294.218 103.673-424.688 188.984" transform="matrix(.1 0 0 -.1 0 200)"/><path style="fill-rule:nonzero;fill:#c26d6a;fill-opacity:1;stroke-width:7.36;stroke-linecap:round;stroke-linejoin:round;stroke:#000;stroke-opacity:1;stroke-miterlimit:10" d="M1012.266 157.383 1306.484 53.71l322.735 265.117" transform="matrix(.1 0 0 -.1 0 200)"/><path style="fill-rule:nonzero;fill:#e6c5b5;fill-opacity:1;stroke-width:7.36;stroke-linecap:round;stroke-linejoin:round;stroke:#000;stroke-opacity:1;stroke-miterlimit:10" d="m1943.008 866.484-56.016 446.25-270.976 154.024" transform="matrix(.1 0 0 -.1 0 200)"/><path style="fill-rule:nonzero;fill:#e0f8d7;fill-opacity:1;stroke-width:7.36;stroke-linecap:round;stroke-linejoin:round;stroke:#000;stroke-opacity:1;stroke-miterlimit:10" d="m1452.266 1778.672 163.75-311.914 270.976-154.024" transform="matrix(.1 0 0 -.1 0 200)"/><path style="fill-rule:nonzero;fill:#c4cce0;fill-opacity:1;stroke-width:7.36;stroke-linecap:round;stroke-linejoin:round;stroke:#000;stroke-opacity:1;stroke-miterlimit:10" d="m1203.203 1475.781 412.813-9.023-163.75 311.914" transform="matrix(.1 0 0 -.1 0 200)"/><path style="fill-rule:nonzero;fill:#c4cce0;fill-opacity:1;stroke-width:7.36;stroke-linecap:round;stroke-linejoin:round;stroke:#000;stroke-opacity:1;stroke-miterlimit:10" d="m1452.266 1778.672-402.774 16.836 153.711-319.727" transform="matrix(.1 0 0 -.1 0 200)"/><path style="fill-rule:nonzero;fill:#e6c5b5;fill-opacity:1;stroke-width:7.36;stroke-linecap:round;stroke-linejoin:round;stroke:#000;stroke-opacity:1;stroke-miterlimit:10" d="M1494.766 1093.555 1708.28 714.53l234.727 151.953" transform="matrix(.1 0 0 -.1 0 200)"/><path style="stroke:none;fill-rule:nonzero;fill:#e6c5b5;fill-opacity:1" d="m161.602 53.324-12.125 37.32 44.824 22.708"/><path style="fill:none;stroke-width:7.36;stroke-linecap:round;stroke-linejoin:round;stroke:#000;stroke-opacity:1;stroke-miterlimit:10" d="m1616.016 1466.758-121.25-373.203" transform="matrix(.1 0 0 -.1 0 200)"/><path style="stroke:none;fill-rule:nonzero;fill:#726cbd;fill-opacity:1" d="M44.754 62.813 15.219 73.284l11.91 33.25"/><path style="fill:none;stroke-width:7.36;stroke-linecap:round;stroke-linejoin:round;stroke:#000;stroke-opacity:1;stroke-miterlimit:10" d="m447.54 1371.875-295.353-104.727 119.102-332.5Zm0 0" transform="matrix(.1 0 0 -.1 0 200)"/><path style="fill-rule:nonzero;fill:#5c79d7;fill-opacity:1;stroke-width:7.36;stroke-linecap:round;stroke-linejoin:round;stroke:#000;stroke-opacity:1;stroke-miterlimit:10" d="m152.188 1267.148 295.351 104.727L597.5 1730.508" transform="matrix(.1 0 0 -.1 0 200)"/><path style="fill-rule:nonzero;fill:#875d99;fill-opacity:1;stroke-width:7.36;stroke-linecap:round;stroke-linejoin:round;stroke:#000;stroke-opacity:1;stroke-miterlimit:10" d="m229.96 533.36 357.618-186.993 52.344 407.305" transform="matrix(.1 0 0 -.1 0 200)"/><path style="fill-rule:nonzero;fill:#875d99;fill-opacity:1;stroke-width:7.36;stroke-linecap:round;stroke-linejoin:round;stroke:#000;stroke-opacity:1;stroke-miterlimit:10" d="M639.922 753.672 271.289 934.648 229.961 533.36" transform="matrix(.1 0 0 -.1 0 200)"/><path style="fill-rule:nonzero;fill:#c26d6a;fill-opacity:1;stroke-width:7.36;stroke-linecap:round;stroke-linejoin:round;stroke:#000;stroke-opacity:1;stroke-miterlimit:10" d="m1629.219 318.828-287.5 116.758-329.453-278.203" transform="matrix(.1 0 0 -.1 0 200)"/><path style="stroke:none;fill-rule:nonzero;fill:#d4928b;fill-opacity:1" d="m162.922 168.117 7.906-39.57-36.656 27.894"/><path style="fill:none;stroke-width:7.36;stroke-linecap:round;stroke-linejoin:round;stroke:#000;stroke-opacity:1;stroke-miterlimit:10" d="m1629.219 318.828 79.062 395.703-366.562-278.945Zm0 0" transform="matrix(.1 0 0 -.1 0 200)"/><path style="fill-rule:nonzero;fill:#a3a4d6;fill-opacity:1;stroke-width:7.36;stroke-linecap:round;stroke-linejoin:round;stroke:#000;stroke-opacity:1;stroke-miterlimit:10" d="m1049.492 1795.508-451.992-65-149.96-358.633M822.852 1202.266l380.351 273.515-153.71 319.727" transform="matrix(.1 0 0 -.1 0 200)"/><path style="stroke:none;fill-rule:nonzero;fill:#a3a4d6;fill-opacity:1" d="m44.754 62.813 37.531 16.96L104.95 20.45"/><path style="fill:none;stroke-width:7.36;stroke-linecap:round;stroke-linejoin:round;stroke:#000;stroke-opacity:1;stroke-miterlimit:10" d="m447.54 1371.875 375.312-169.61" transform="matrix(.1 0 0 -.1 0 200)"/><path style="fill-rule:nonzero;fill:#ae7998;fill-opacity:1;stroke-width:7.36;stroke-linecap:round;stroke-linejoin:round;stroke:#000;stroke-opacity:1;stroke-miterlimit:10" d="m587.578 346.367 424.688-188.984 329.453 278.203" transform="matrix(.1 0 0 -.1 0 200)"/><path style="stroke:none;fill-rule:nonzero;fill:#cbb9c9;fill-opacity:1" d="m161.602 53.324-41.282-.902 29.157 38.223"/><path style="fill:none;stroke-width:7.36;stroke-linecap:round;stroke-linejoin:round;stroke:#000;stroke-opacity:1;stroke-miterlimit:10" d="m1616.016 1466.758-412.813 9.023 291.563-382.226Zm0 0" transform="matrix(.1 0 0 -.1 0 200)"/><path style="fill-rule:nonzero;fill:#9781b9;fill-opacity:1;stroke-width:7.36;stroke-linecap:round;stroke-linejoin:round;stroke:#000;stroke-opacity:1;stroke-miterlimit:10" d="m271.29 934.648 368.632-180.976 182.93 448.594M822.852 1202.266l-375.313 169.609-176.25-437.227" transform="matrix(.1 0 0 -.1 0 200)"/><path style="stroke:none;fill-rule:nonzero;fill:#ae7998;fill-opacity:1" d="m63.992 124.633-5.234 40.73 75.414-8.922"/><path style="fill:none;stroke-width:7.36;stroke-linecap:round;stroke-linejoin:round;stroke:#000;stroke-opacity:1;stroke-miterlimit:10" d="m639.922 753.672-52.344-407.305" transform="matrix(.1 0 0 -.1 0 200)"/><path style="fill-rule:nonzero;fill:#c99ca8;fill-opacity:1;stroke-width:7.36;stroke-linecap:round;stroke-linejoin:round;stroke:#000;stroke-opacity:1;stroke-miterlimit:10" d="m1116.953 813.633 224.766-378.047L1708.28 714.53" transform="matrix(.1 0 0 -.1 0 200)"/><path style="fill-rule:nonzero;fill:#c99ca8;fill-opacity:1;stroke-width:7.36;stroke-linecap:round;stroke-linejoin:round;stroke:#000;stroke-opacity:1;stroke-miterlimit:10" d="m1708.281 714.531-213.515 379.024-377.813-279.922" transform="matrix(.1 0 0 -.1 0 200)"/><path style="fill-rule:nonzero;fill:#ae7998;fill-opacity:1;stroke-width:7.36;stroke-linecap:round;stroke-linejoin:round;stroke:#000;stroke-opacity:1;stroke-miterlimit:10" d="m1341.719 435.586-224.766 378.047-477.031-59.961" transform="matrix(.1 0 0 -.1 0 200)"/><path style="fill-rule:nonzero;fill:#bba1be;fill-opacity:1;stroke-width:7.36;stroke-linecap:round;stroke-linejoin:round;stroke:#000;stroke-opacity:1;stroke-miterlimit:10" d="m1494.766 1093.555-291.563 382.226-380.351-273.515" transform="matrix(.1 0 0 -.1 0 200)"/><path style="fill-rule:nonzero;fill:#bba1be;fill-opacity:1;stroke-width:7.36;stroke-linecap:round;stroke-linejoin:round;stroke:#000;stroke-opacity:1;stroke-miterlimit:10" d="m822.852 1202.266 294.101-388.633 377.813 279.922" transform="matrix(.1 0 0 -.1 0 200)"/><path style="stroke:none;fill-rule:nonzero;fill:#ad8cb3;fill-opacity:1" d="m111.695 118.637-29.41-38.864-18.293 44.86"/><path style="fill:none;stroke-width:7.36;stroke-linecap:round;stroke-linejoin:round;stroke:#000;stroke-opacity:1;stroke-miterlimit:10" d="m1116.953 813.633-294.101 388.633-182.93-448.594Zm0 0" transform="matrix(.1 0 0 -.1 0 200)"/></svg>