<svg xmlns="http://www.w3.org/2000/svg" width="206pt" height="200pt" viewBox="0 0 206 200" version="1.2"><path style="fill-rule:nonzero;fill:#b98aa4;fill-opacity:1;stroke-width:7.98;stroke-linecap:round;stroke-linejoin:round;stroke:#000;stroke-opacity:1;stroke-miterlimit:10" d="m1514.375 1302.305-475.469-462.618-600.742 246.72" transform="matrix(.1 0 0 -.1 0 200)"/><path style="fill-rule:nonzero;fill:#c8bcce;fill-opacity:1;stroke-width:7.98;stroke-linecap:round;stroke-linejoin:round;stroke:#000;stroke-opacity:1;stroke-miterlimit:10" d="m438.164 1086.406 600.742-246.718 138.633-568.165" transform="matrix(.1 0 0 -.1 0 200)"/><path style="fill-rule:nonzero;fill:#9689c3;fill-opacity:1;stroke-width:7.98;stroke-linecap:round;stroke-linejoin:round;stroke:#000;stroke-opacity:1;stroke-miterlimit:10" d="m1775.313 377.5-597.774-105.977-138.633 568.165" transform="matrix(.1 0 0 -.1 0 200)"/><path style="stroke:none;fill-rule:nonzero;fill:#9689c3;fill-opacity:1" d="m198.414 95.855-20.883 66.395-73.64-46.219"/><path style="fill:none;stroke-width:7.98;stroke-linecap:round;stroke-linejoin:round;stroke:#000;stroke-opacity:1;stroke-miterlimit:10" d="M1984.14 1041.445 1775.313 377.5" transform="matrix(.1 0 0 -.1 0 200)"/><path style="fill-rule:nonzero;fill:#9689c3;fill-opacity:1;stroke-width:7.98;stroke-linecap:round;stroke-linejoin:round;stroke:#000;stroke-opacity:1;stroke-miterlimit:10" d="m1038.906 839.688 475.469 462.617 469.766-260.86" transform="matrix(.1 0 0 -.1 0 200)"/><path style="fill-rule:nonzero;fill:#b98aa4;fill-opacity:1;stroke-width:7.98;stroke-linecap:round;stroke-linejoin:round;stroke:#000;stroke-opacity:1;stroke-miterlimit:10" d="m533.047 1725.43 682.578 134.61 298.75-557.735" transform="matrix(.1 0 0 -.1 0 200)"/><path style="stroke:none;fill-rule:nonzero;fill:#b98aa4;fill-opacity:1" d="m43.816 91.36 9.489-63.903 98.132 42.313"/><path style="fill:none;stroke-width:7.98;stroke-linecap:round;stroke-linejoin:round;stroke:#000;stroke-opacity:1;stroke-miterlimit:10" d="m438.164 1086.406 94.883 639.024" transform="matrix(.1 0 0 -.1 0 200)"/><path style="fill-rule:nonzero;fill:#652a70;fill-opacity:1;stroke-width:7.98;stroke-linecap:round;stroke-linejoin:round;stroke:#000;stroke-opacity:1;stroke-miterlimit:10" d="m1984.14 1041.445-469.765 260.86-298.75 557.734" transform="matrix(.1 0 0 -.1 0 200)"/><path style="fill-rule:nonzero;fill:#f7b379;fill-opacity:1;stroke-width:7.98;stroke-linecap:round;stroke-linejoin:round;stroke:#000;stroke-opacity:1;stroke-miterlimit:10" d="m533.047 1725.43-94.883-639.024-275.781-413.984" transform="matrix(.1 0 0 -.1 0 200)"/><path style="stroke:none;fill-rule:nonzero;fill:#c8bcce;fill-opacity:1" d="m16.238 132.758 27.578-41.399 73.938 81.489"/><path style="fill:none;stroke-width:7.98;stroke-linecap:round;stroke-linejoin:round;stroke:#000;stroke-opacity:1;stroke-miterlimit:10" d="m162.383 672.422 275.781 413.984" transform="matrix(.1 0 0 -.1 0 200)"/><path style="fill-rule:nonzero;fill:#c8bcce;fill-opacity:1;stroke-width:7.98;stroke-linecap:round;stroke-linejoin:round;stroke:#000;stroke-opacity:1;stroke-miterlimit:10" d="M1177.54 271.523 635.78 142.813 162.383 672.422" transform="matrix(.1 0 0 -.1 0 200)"/><path style="fill-rule:nonzero;fill:#008ccf;fill-opacity:1;stroke-width:7.98;stroke-linecap:round;stroke-linejoin:round;stroke:#000;stroke-opacity:1;stroke-miterlimit:10" d="m635.781 142.813 541.758 128.71L1775.313 377.5" transform="matrix(.1 0 0 -.1 0 200)"/><path style="fill-rule:nonzero;fill:#710000;fill-opacity:1;stroke-width:7.98;stroke-linecap:round;stroke-linejoin:round;stroke:#000;stroke-opacity:1;stroke-miterlimit:10" d="m1491.328 1989.922-275.703-129.883-682.578-134.61" transform="matrix(.1 0 0 -.1 0 200)"/><path style="stroke:none;fill-rule:nonzero;fill:#652a70;fill-opacity:1" d="m199.695 54.39-1.28 41.465-76.852-81.859"/><path style="fill:none;stroke-width:7.98;stroke-linecap:round;stroke-linejoin:round;stroke:#000;stroke-opacity:1;stroke-miterlimit:10" d="m1996.953 1456.094-12.812-414.649" transform="matrix(.1 0 0 -.1 0 200)"/><path style="fill-rule:nonzero;fill:#652a70;fill-opacity:1;stroke-width:7.98;stroke-linecap:round;stroke-linejoin:round;stroke:#000;stroke-opacity:1;stroke-miterlimit:10" d="m1215.625 1860.04 275.703 129.882 505.625-533.828" transform="matrix(.1 0 0 -.1 0 200)"/><path style="fill-rule:nonzero;fill:#f7b379;fill-opacity:1;stroke-width:7.98;stroke-linecap:round;stroke-linejoin:round;stroke:#000;stroke-opacity:1;stroke-miterlimit:10" d="m68.594 1069.844 245.898 688.437 218.555-32.851" transform="matrix(.1 0 0 -.1 0 200)"/><path style="stroke:none;fill-rule:nonzero;fill:#f7b379;fill-opacity:1" d="M16.238 132.758 6.86 93.016l46.446-65.559"/><path style="fill:none;stroke-width:7.98;stroke-linecap:round;stroke-linejoin:round;stroke:#000;stroke-opacity:1;stroke-miterlimit:10" d="m162.383 672.422-93.79 397.422" transform="matrix(.1 0 0 -.1 0 200)"/><path style="stroke:none;fill-rule:nonzero;fill:#710000;fill-opacity:1" d="m53.305 27.457-21.856-3.285L149.133 1.008"/><path style="fill:none;stroke-width:7.98;stroke-linecap:round;stroke-linejoin:round;stroke:#000;stroke-opacity:1;stroke-miterlimit:10" d="m533.047 1725.43-218.555 32.851" transform="matrix(.1 0 0 -.1 0 200)"/><path style="stroke:none;fill-rule:nonzero;fill:#008ccf;fill-opacity:1" d="m177.531 162.25-13.922 5.941L63.58 185.72"/><path style="fill:none;stroke-width:7.98;stroke-linecap:round;stroke-linejoin:round;stroke:#000;stroke-opacity:1;stroke-miterlimit:10" d="m1775.313 377.5-139.22-59.414" transform="matrix(.1 0 0 -.1 0 200)"/><path style="stroke:none;fill-rule:nonzero;fill:#f7aa45;fill-opacity:1" d="m198.414 95.855 1.281-41.464-36.086 113.8"/><path style="fill:none;stroke-width:7.98;stroke-linecap:round;stroke-linejoin:round;stroke:#000;stroke-opacity:1;stroke-miterlimit:10" d="m1984.14 1041.445 12.813 414.649" transform="matrix(.1 0 0 -.1 0 200)"/><path style="fill-rule:nonzero;fill:#f7aa45;fill-opacity:1;stroke-width:7.98;stroke-linecap:round;stroke-linejoin:round;stroke:#000;stroke-opacity:1;stroke-miterlimit:10" d="m1636.094 318.086 139.218 59.414 208.829 663.945" transform="matrix(.1 0 0 -.1 0 200)"/><path style="stroke:none;fill-rule:nonzero;fill:#dbe6dc;fill-opacity:1" d="m15.285 168.36.953-35.602 47.34 52.96"/><path style="fill:none;stroke-width:7.98;stroke-linecap:round;stroke-linejoin:round;stroke:#000;stroke-opacity:1;stroke-miterlimit:10" d="m152.852 316.406 9.53 356.016 473.4-529.61Zm0 0" transform="matrix(.1 0 0 -.1 0 200)"/><path style="stroke:none;fill-rule:nonzero;fill:#e5cb4f;fill-opacity:1" d="M15.285 168.36 6.86 93.015l9.38 39.742"/><path style="fill:none;stroke-width:7.98;stroke-linecap:round;stroke-linejoin:round;stroke:#000;stroke-opacity:1;stroke-miterlimit:10" d="m152.852 316.406-84.258 753.438 93.789-397.422Zm0 0" transform="matrix(.1 0 0 -.1 0 200)"/><path style="fill-rule:nonzero;fill:#008ccf;fill-opacity:1;stroke-width:7.98;stroke-linecap:round;stroke-linejoin:round;stroke:#000;stroke-opacity:1;stroke-miterlimit:10" d="m1636.094 318.086-751.992-155.04-248.32-20.233" transform="matrix(.1 0 0 -.1 0 200)"/><path style="stroke:none;fill-rule:nonzero;fill:#2a0000;fill-opacity:1" d="M88.41 183.695 15.285 168.36l48.293 17.36"/><path style="fill:none;stroke-width:7.98;stroke-linecap:round;stroke-linejoin:round;stroke:#000;stroke-opacity:1;stroke-miterlimit:10" d="m884.102 163.047-731.25 153.36 482.93-173.594Zm0 0" transform="matrix(.1 0 0 -.1 0 200)"/><path style="fill-rule:nonzero;fill:#710000;fill-opacity:1;stroke-width:7.98;stroke-linecap:round;stroke-linejoin:round;stroke:#000;stroke-opacity:1;stroke-miterlimit:10" d="m314.492 1758.281 610.781 172.188 566.055 59.453" transform="matrix(.1 0 0 -.1 0 200)"/><path style="stroke:none;fill-rule:nonzero;fill:#8edaff;fill-opacity:1" d="m92.527 6.953 74.004 12.871-17.398-18.816"/><path style="fill:none;stroke-width:7.98;stroke-linecap:round;stroke-linejoin:round;stroke:#000;stroke-opacity:1;stroke-miterlimit:10" d="m925.273 1930.469 740.04-128.711-173.985 188.164Zm0 0" transform="matrix(.1 0 0 -.1 0 200)"/><path style="stroke:none;fill-rule:nonzero;fill:#86d380;fill-opacity:1" d="m166.531 19.824 33.164 34.567-50.562-53.383"/><path style="fill:none;stroke-width:7.98;stroke-linecap:round;stroke-linejoin:round;stroke:#000;stroke-opacity:1;stroke-miterlimit:10" d="m1665.313 1801.758 331.64-345.664-505.625 533.828Zm0 0" transform="matrix(.1 0 0 -.1 0 200)"/><path style="stroke:none;fill-rule:nonzero;fill:#8f86c5;fill-opacity:1" d="M31.45 24.172 6.86 93.016l101.324-24.5"/><path style="fill:none;stroke-width:7.98;stroke-linecap:round;stroke-linejoin:round;stroke:#000;stroke-opacity:1;stroke-miterlimit:10" d="M314.492 1758.281 68.594 1069.844" transform="matrix(.1 0 0 -.1 0 200)"/><path style="fill-rule:nonzero;fill:#8f86c5;fill-opacity:1;stroke-width:7.98;stroke-linecap:round;stroke-linejoin:round;stroke:#000;stroke-opacity:1;stroke-miterlimit:10" d="m1081.836 1314.844-156.563 615.625-610.78-172.188" transform="matrix(.1 0 0 -.1 0 200)"/><path style="stroke:none;fill-rule:nonzero;fill:#f0ccac;fill-opacity:1" d="m166.531 19.824 11.125 78.278 22.04-43.711"/><path style="fill:none;stroke-width:7.98;stroke-linecap:round;stroke-linejoin:round;stroke:#000;stroke-opacity:1;stroke-miterlimit:10" d="m1665.313 1801.758 111.25-782.774 220.39 437.11Zm0 0" transform="matrix(.1 0 0 -.1 0 200)"/><path style="fill-rule:nonzero;fill:#f7aa45;fill-opacity:1;stroke-width:7.98;stroke-linecap:round;stroke-linejoin:round;stroke:#000;stroke-opacity:1;stroke-miterlimit:10" d="m1996.953 1456.094-220.39-437.11-140.47-700.898" transform="matrix(.1 0 0 -.1 0 200)"/><path style="stroke:none;fill-rule:nonzero;fill:#7d64ab;fill-opacity:1" d="m15.285 168.36 37.074-44.891-45.5-30.453"/><path style="fill:none;stroke-width:7.98;stroke-linecap:round;stroke-linejoin:round;stroke:#000;stroke-opacity:1;stroke-miterlimit:10" d="m152.852 316.406 370.742 448.906-455 304.532Zm0 0" transform="matrix(.1 0 0 -.1 0 200)"/><path style="fill-rule:nonzero;fill:#8f86c5;fill-opacity:1;stroke-width:7.98;stroke-linecap:round;stroke-linejoin:round;stroke:#000;stroke-opacity:1;stroke-miterlimit:10" d="m68.594 1069.844 455-304.532 558.242 549.532" transform="matrix(.1 0 0 -.1 0 200)"/><path style="stroke:none;fill-rule:nonzero;fill:#a26b91;fill-opacity:1" d="m15.285 168.36 73.125 15.335-36.05-60.226"/><path style="fill:none;stroke-width:7.98;stroke-linecap:round;stroke-linejoin:round;stroke:#000;stroke-opacity:1;stroke-miterlimit:10" d="m152.852 316.406 731.25-153.36-360.508 602.266Zm0 0" transform="matrix(.1 0 0 -.1 0 200)"/><path style="stroke:none;fill-rule:nonzero;fill:#ba88a0;fill-opacity:1" d="m163.61 168.191 14.046-70.09L52.36 123.47"/><path style="fill:none;stroke-width:7.98;stroke-linecap:round;stroke-linejoin:round;stroke:#000;stroke-opacity:1;stroke-miterlimit:10" d="m1636.094 318.086 140.468 700.898" transform="matrix(.1 0 0 -.1 0 200)"/><path style="fill-rule:nonzero;fill:#ba88a0;fill-opacity:1;stroke-width:7.98;stroke-linecap:round;stroke-linejoin:round;stroke:#000;stroke-opacity:1;stroke-miterlimit:10" d="m523.594 765.313 360.508-602.266 751.992 155.039" transform="matrix(.1 0 0 -.1 0 200)"/><path style="stroke:none;fill-rule:nonzero;fill:#a9a1ce;fill-opacity:1" d="M166.531 19.824 92.527 6.954l15.657 61.562"/><path style="fill:none;stroke-width:7.98;stroke-linecap:round;stroke-linejoin:round;stroke:#000;stroke-opacity:1;stroke-miterlimit:10" d="m1665.313 1801.758-740.04 128.71 156.563-615.624Zm0 0" transform="matrix(.1 0 0 -.1 0 200)"/><path style="stroke:none;fill-rule:nonzero;fill:#c29fb4;fill-opacity:1" d="m166.531 19.824-58.347 48.692 69.472 29.586"/><path style="fill:none;stroke-width:7.98;stroke-linecap:round;stroke-linejoin:round;stroke:#000;stroke-opacity:1;stroke-miterlimit:10" d="m1665.313 1801.758-583.477-486.914 694.726-295.86Zm0 0" transform="matrix(.1 0 0 -.1 0 200)"/><path style="fill-rule:nonzero;fill:#ba88a0;fill-opacity:1;stroke-width:7.98;stroke-linecap:round;stroke-linejoin:round;stroke:#000;stroke-opacity:1;stroke-miterlimit:10" d="m1776.563 1018.984-694.727 295.86-558.242-549.532" transform="matrix(.1 0 0 -.1 0 200)"/></svg>