<svg xmlns="http://www.w3.org/2000/svg" width="266pt" height="200pt" viewBox="0 0 266 200" version="1.2"><path style="fill-rule:nonzero;fill:#e7b099;fill-opacity:1;stroke-width:8.52;stroke-linecap:round;stroke-linejoin:round;stroke:#000;stroke-opacity:1;stroke-miterlimit:10" d="m1147.344 1050-492.07-549.102-299.415 656.368" transform="matrix(.1 0 0 -.1 0 200)"/><path style="fill-rule:nonzero;fill:#e7b099;fill-opacity:1;stroke-width:8.52;stroke-linecap:round;stroke-linejoin:round;stroke:#000;stroke-opacity:1;stroke-miterlimit:10" d="m355.86 1157.266 535.273 547.89L1147.343 1050" transform="matrix(.1 0 0 -.1 0 200)"/><path style="fill-rule:nonzero;fill:#a86583;fill-opacity:1;stroke-width:8.52;stroke-linecap:round;stroke-linejoin:round;stroke:#000;stroke-opacity:1;stroke-miterlimit:10" d="M1950 1184.766 1147.344 1050l-256.211 655.156" transform="matrix(.1 0 0 -.1 0 200)"/><path style="stroke:none;fill-rule:nonzero;fill:#8fa8e6;fill-opacity:1" d="M114.734 95 195 81.523l-6.914 104.875"/><path style="fill:none;stroke-width:8.52;stroke-linecap:round;stroke-linejoin:round;stroke:#000;stroke-opacity:1;stroke-miterlimit:10" d="M1147.344 1050 1950 1184.766" transform="matrix(.1 0 0 -.1 0 200)"/><path style="stroke:none;fill-rule:nonzero;fill:#8fa8e6;fill-opacity:1" d="M65.527 149.91 114.734 95l73.352 91.398"/><path style="fill:none;stroke-width:8.52;stroke-linecap:round;stroke-linejoin:round;stroke:#000;stroke-opacity:1;stroke-miterlimit:10" d="M655.273 500.898 1147.343 1050" transform="matrix(.1 0 0 -.1 0 200)"/><path style="stroke:none;fill-rule:nonzero;fill:#6c6fc4;fill-opacity:1" d="m195 81.523 63.984-42.101-22.882 84.355"/><path style="fill:none;stroke-width:8.52;stroke-linecap:round;stroke-linejoin:round;stroke:#000;stroke-opacity:1;stroke-miterlimit:10" d="m1950 1184.766 639.844 421.015-228.828-843.554Zm0 0" transform="matrix(.1 0 0 -.1 0 200)"/><path style="stroke:none;fill-rule:nonzero;fill:#a15e80;fill-opacity:1" d="m173.441 13.496 85.543 25.926L195 81.523"/><path style="fill:none;stroke-width:8.52;stroke-linecap:round;stroke-linejoin:round;stroke:#000;stroke-opacity:1;stroke-miterlimit:10" d="m1734.414 1865.04 855.43-259.259L1950 1184.766Zm0 0" transform="matrix(.1 0 0 -.1 0 200)"/><path style="fill-rule:nonzero;fill:#a86583;fill-opacity:1;stroke-width:8.52;stroke-linecap:round;stroke-linejoin:round;stroke:#000;stroke-opacity:1;stroke-miterlimit:10" d="m891.133 1705.156 843.281 159.883L1950 1184.766" transform="matrix(.1 0 0 -.1 0 200)"/><path style="fill-rule:nonzero;fill:#8fa8e6;fill-opacity:1;stroke-width:8.52;stroke-linecap:round;stroke-linejoin:round;stroke:#000;stroke-opacity:1;stroke-miterlimit:10" d="m1950 1184.766 411.016-422.54-480.157-626.21" transform="matrix(.1 0 0 -.1 0 200)"/><path style="stroke:none;fill-rule:nonzero;fill:#b6ddf4;fill-opacity:1" d="M97.207 198.805 7.531 171.828l57.996-21.918"/><path style="fill:none;stroke-width:8.52;stroke-linecap:round;stroke-linejoin:round;stroke:#000;stroke-opacity:1;stroke-miterlimit:10" d="M972.07 11.953 75.312 281.72l579.961 219.18Zm0 0" transform="matrix(.1 0 0 -.1 0 200)"/><path style="stroke:none;fill-rule:nonzero;fill:#ecb89b;fill-opacity:1" d="m35.586 84.273 29.941 65.637-57.996 21.918"/><path style="fill:none;stroke-width:8.52;stroke-linecap:round;stroke-linejoin:round;stroke:#000;stroke-opacity:1;stroke-miterlimit:10" d="m355.86 1157.266 299.413-656.368-579.96-219.18Zm0 0" transform="matrix(.1 0 0 -.1 0 200)"/><path style="fill-rule:nonzero;fill:#8fa8e6;fill-opacity:1;stroke-width:8.52;stroke-linecap:round;stroke-linejoin:round;stroke:#000;stroke-opacity:1;stroke-miterlimit:10" d="M1880.86 136.016 972.07 11.953 655.273 500.898" transform="matrix(.1 0 0 -.1 0 200)"/><path style="fill-rule:nonzero;fill:#87a9eb;fill-opacity:1;stroke-width:8.52;stroke-linecap:round;stroke-linejoin:round;stroke:#000;stroke-opacity:1;stroke-miterlimit:10" d="m1734.414 1865.04-843.281-159.884-535.274-547.89" transform="matrix(.1 0 0 -.1 0 200)"/><path style="stroke:none;fill-rule:nonzero;fill:#f7bd8c;fill-opacity:1" d="m215.355 52.734 20.747 71.043 22.882-84.355"/><path style="fill:none;stroke-width:8.52;stroke-linecap:round;stroke-linejoin:round;stroke:#000;stroke-opacity:1;stroke-miterlimit:10" d="m2153.555 1472.656 207.46-710.43 228.829 843.555Zm0 0" transform="matrix(.1 0 0 -.1 0 200)"/><path style="stroke:none;fill-rule:nonzero;fill:#a6eafa;fill-opacity:1" d="m215.355 52.734 43.63-13.312-85.544-25.926"/><path style="fill:none;stroke-width:8.52;stroke-linecap:round;stroke-linejoin:round;stroke:#000;stroke-opacity:1;stroke-miterlimit:10" d="m2153.555 1472.656 436.289 133.125-855.43 259.258Zm0 0" transform="matrix(.1 0 0 -.1 0 200)"/><path style="fill-rule:nonzero;fill:#87a9eb;fill-opacity:1;stroke-width:8.52;stroke-linecap:round;stroke-linejoin:round;stroke:#000;stroke-opacity:1;stroke-miterlimit:10" d="m1628.71 845.86 524.845 626.796-419.14 392.383" transform="matrix(.1 0 0 -.1 0 200)"/><path style="stroke:none;fill-rule:nonzero;fill:#87a9eb;fill-opacity:1" d="m66.766 130.71 96.105-15.296 10.57-101.918"/><path style="fill:none;stroke-width:8.52;stroke-linecap:round;stroke-linejoin:round;stroke:#000;stroke-opacity:1;stroke-miterlimit:10" d="m667.656 692.89 961.055 152.97" transform="matrix(.1 0 0 -.1 0 200)"/><path style="stroke:none;fill-rule:nonzero;fill:#87a9eb;fill-opacity:1" d="m35.586 84.273 31.18 46.438L173.44 13.496"/><path style="fill:none;stroke-width:8.52;stroke-linecap:round;stroke-linejoin:round;stroke:#000;stroke-opacity:1;stroke-miterlimit:10" d="M355.86 1157.266 667.655 692.89" transform="matrix(.1 0 0 -.1 0 200)"/><path style="fill-rule:nonzero;fill:#f0b48d;fill-opacity:1;stroke-width:8.52;stroke-linecap:round;stroke-linejoin:round;stroke:#000;stroke-opacity:1;stroke-miterlimit:10" d="m1880.86 136.016 480.156 626.21-207.461 710.43" transform="matrix(.1 0 0 -.1 0 200)"/><path style="stroke:none;fill-rule:nonzero;fill:#5160c3;fill-opacity:1" d="M35.586 84.273 7.53 171.828l59.235-41.117"/><path style="fill:none;stroke-width:8.52;stroke-linecap:round;stroke-linejoin:round;stroke:#000;stroke-opacity:1;stroke-miterlimit:10" d="M355.86 1157.266 75.311 281.719 667.657 692.89Zm0 0" transform="matrix(.1 0 0 -.1 0 200)"/><path style="stroke:none;fill-rule:nonzero;fill:#994f71;fill-opacity:1" d="M66.766 130.71 7.53 171.829l89.676 26.977"/><path style="fill:none;stroke-width:8.52;stroke-linecap:round;stroke-linejoin:round;stroke:#000;stroke-opacity:1;stroke-miterlimit:10" d="M667.656 692.89 75.313 281.72 972.07 11.953Zm0 0" transform="matrix(.1 0 0 -.1 0 200)"/><path style="fill-rule:nonzero;fill:#a35976;fill-opacity:1;stroke-width:8.52;stroke-linecap:round;stroke-linejoin:round;stroke:#000;stroke-opacity:1;stroke-miterlimit:10" d="m972.07 11.953 908.79 124.063-252.15 709.843M1628.71 845.86 667.657 692.89 972.07 11.954" transform="matrix(.1 0 0 -.1 0 200)"/><path style="fill-rule:nonzero;fill:#f0b48d;fill-opacity:1;stroke-width:8.52;stroke-linecap:round;stroke-linejoin:round;stroke:#000;stroke-opacity:1;stroke-miterlimit:10" d="M2153.555 1472.656 1628.71 845.86l252.148-709.843" transform="matrix(.1 0 0 -.1 0 200)"/></svg>