<svg xmlns="http://www.w3.org/2000/svg" width="193pt" height="200pt" viewBox="0 0 193 200" version="1.2"><path style="fill-rule:nonzero;fill:#bbb3d1;fill-opacity:1;stroke-width:7.12;stroke-linecap:round;stroke-linejoin:round;stroke:#000;stroke-opacity:1;stroke-miterlimit:10" d="m597.46 903.008 271.524 38.594 265.235-102.227" transform="matrix(.1 0 0 -.1 0 200)"/><path style="stroke:none;fill-rule:nonzero;fill:#b293b6;fill-opacity:1" d="M113.422 116.063 86.898 105.84l22.11-17.871"/><path style="fill:none;stroke-width:7.12;stroke-linecap:round;stroke-linejoin:round;stroke:#000;stroke-opacity:1;stroke-miterlimit:10" d="M1134.219 839.375 868.984 941.602l221.094 178.71Zm0 0" transform="matrix(.1 0 0 -.1 0 200)"/><path style="fill-rule:nonzero;fill:#c48d9b;fill-opacity:1;stroke-width:7.12;stroke-linecap:round;stroke-linejoin:round;stroke:#000;stroke-opacity:1;stroke-miterlimit:10" d="m868.984 941.602-271.523-38.594-225.742 120.195" transform="matrix(.1 0 0 -.1 0 200)"/><path style="stroke:none;fill-rule:nonzero;fill:#c48d9b;fill-opacity:1" d="m109.008 87.969-22.11 17.87-49.726-8.16"/><path style="fill:none;stroke-width:7.12;stroke-linecap:round;stroke-linejoin:round;stroke:#000;stroke-opacity:1;stroke-miterlimit:10" d="M1090.078 1120.313 868.984 941.601" transform="matrix(.1 0 0 -.1 0 200)"/><path style="stroke:none;fill-rule:nonzero;fill:#c48d9b;fill-opacity:1" d="m118.379 62.297-9.371 25.672-71.836 9.71"/><path style="fill:none;stroke-width:7.12;stroke-linecap:round;stroke-linejoin:round;stroke:#000;stroke-opacity:1;stroke-miterlimit:10" d="m1183.79 1377.031-93.712-256.718" transform="matrix(.1 0 0 -.1 0 200)"/><path style="stroke:none;fill-rule:nonzero;fill:#8e71ad;fill-opacity:1" d="m109.008 87.969 9.37-25.672 11.774 74.625"/><path style="fill:none;stroke-width:7.12;stroke-linecap:round;stroke-linejoin:round;stroke:#000;stroke-opacity:1;stroke-miterlimit:10" d="m1090.078 1120.313 93.711 256.718" transform="matrix(.1 0 0 -.1 0 200)"/><path style="fill-rule:nonzero;fill:#8e71ad;fill-opacity:1;stroke-width:7.12;stroke-linecap:round;stroke-linejoin:round;stroke:#000;stroke-opacity:1;stroke-miterlimit:10" d="M1301.523 630.781 1134.22 839.375l-44.14 280.938" transform="matrix(.1 0 0 -.1 0 200)"/><path style="stroke:none;fill-rule:nonzero;fill:#bbb3d1;fill-opacity:1" d="M41.598 126.742 59.746 109.7l53.676 6.364"/><path style="fill:none;stroke-width:7.12;stroke-linecap:round;stroke-linejoin:round;stroke:#000;stroke-opacity:1;stroke-miterlimit:10" d="m415.977 732.578 181.484 170.43" transform="matrix(.1 0 0 -.1 0 200)"/><path style="stroke:none;fill-rule:nonzero;fill:#bbb3d1;fill-opacity:1" d="m39.871 151.344 1.727-24.602 71.824-10.68"/><path style="fill:none;stroke-width:7.12;stroke-linecap:round;stroke-linejoin:round;stroke:#000;stroke-opacity:1;stroke-miterlimit:10" d="m398.71 486.563 17.267 246.015" transform="matrix(.1 0 0 -.1 0 200)"/><path style="stroke:none;fill-rule:nonzero;fill:#bbb3d1;fill-opacity:1" d="M56.36 174.07 39.87 151.344l73.55-35.281"/><path style="fill:none;stroke-width:7.12;stroke-linecap:round;stroke-linejoin:round;stroke:#000;stroke-opacity:1;stroke-miterlimit:10" d="M563.594 259.297 398.71 486.562" transform="matrix(.1 0 0 -.1 0 200)"/><path style="stroke:none;fill-rule:nonzero;fill:#bbb3d1;fill-opacity:1" d="M84.941 185.273 56.36 174.07l57.063-58.007"/><path style="fill:none;stroke-width:7.12;stroke-linecap:round;stroke-linejoin:round;stroke:#000;stroke-opacity:1;stroke-miterlimit:10" d="m849.414 147.266-285.82 112.03" transform="matrix(.1 0 0 -.1 0 200)"/><path style="stroke:none;fill-rule:nonzero;fill:#bbb3d1;fill-opacity:1" d="m113.602 180.145-28.66 5.128 28.48-69.21"/><path style="fill:none;stroke-width:7.12;stroke-linecap:round;stroke-linejoin:round;stroke:#000;stroke-opacity:1;stroke-miterlimit:10" d="m1136.016 198.555-286.602-51.29" transform="matrix(.1 0 0 -.1 0 200)"/><path style="stroke:none;fill-rule:nonzero;fill:#bbb3d1;fill-opacity:1" d="m130.633 161.344-17.031 18.8-.18-64.082"/><path style="fill:none;stroke-width:7.12;stroke-linecap:round;stroke-linejoin:round;stroke:#000;stroke-opacity:1;stroke-miterlimit:10" d="m1306.328 386.563-170.312-188.008" transform="matrix(.1 0 0 -.1 0 200)"/><path style="fill-rule:nonzero;fill:#bbb3d1;fill-opacity:1;stroke-width:7.12;stroke-linecap:round;stroke-linejoin:round;stroke:#000;stroke-opacity:1;stroke-miterlimit:10" d="m1134.219 839.375 167.304-208.594 4.805-244.218" transform="matrix(.1 0 0 -.1 0 200)"/><path style="stroke:none;fill-rule:nonzero;fill:#d3b2b8;fill-opacity:1" d="m37.172 97.68 22.574 12.02-18.148 17.042"/><path style="fill:none;stroke-width:7.12;stroke-linecap:round;stroke-linejoin:round;stroke:#000;stroke-opacity:1;stroke-miterlimit:10" d="M371.719 1023.203 597.46 903.008l-181.484-170.43Zm0 0" transform="matrix(.1 0 0 -.1 0 200)"/><path style="stroke:none;fill-rule:nonzero;fill:#c48d9b;fill-opacity:1" d="m111.172 37.824 7.207 24.473L37.172 97.68"/><path style="fill:none;stroke-width:7.12;stroke-linecap:round;stroke-linejoin:round;stroke:#000;stroke-opacity:1;stroke-miterlimit:10" d="m1111.719 1621.758 72.07-244.727" transform="matrix(.1 0 0 -.1 0 200)"/><path style="stroke:none;fill-rule:nonzero;fill:#a26a91;fill-opacity:1" d="m118.379 62.297-7.207-24.473 27.512 10.434"/><path style="fill:none;stroke-width:7.12;stroke-linecap:round;stroke-linejoin:round;stroke:#000;stroke-opacity:1;stroke-miterlimit:10" d="m1183.79 1377.031-72.071 244.727 275.117-104.336Zm0 0" transform="matrix(.1 0 0 -.1 0 200)"/><path style="stroke:none;fill-rule:nonzero;fill:#8e71ad;fill-opacity:1" d="m118.379 62.297 20.305-14.04-8.532 88.665"/><path style="fill:none;stroke-width:7.12;stroke-linecap:round;stroke-linejoin:round;stroke:#000;stroke-opacity:1;stroke-miterlimit:10" d="m1183.79 1377.031 203.046 140.39" transform="matrix(.1 0 0 -.1 0 200)"/><path style="stroke:none;fill-rule:nonzero;fill:#9694cf;fill-opacity:1" d="m153.719 142.715-23.086 18.629-.48-24.422"/><path style="fill:none;stroke-width:7.12;stroke-linecap:round;stroke-linejoin:round;stroke:#000;stroke-opacity:1;stroke-miterlimit:10" d="m1537.188 572.852-230.86-186.29-4.805 244.22Zm0 0" transform="matrix(.1 0 0 -.1 0 200)"/><path style="fill-rule:nonzero;fill:#8e71ad;fill-opacity:1;stroke-width:7.12;stroke-linecap:round;stroke-linejoin:round;stroke:#000;stroke-opacity:1;stroke-miterlimit:10" d="m1755.078 697.852-217.89-125-235.665 57.93" transform="matrix(.1 0 0 -.1 0 200)"/><path style="stroke:none;fill-rule:nonzero;fill:#8e71ad;fill-opacity:1" d="m186.465 103.352-10.957 26.863-45.356 6.707"/><path style="fill:none;stroke-width:7.12;stroke-linecap:round;stroke-linejoin:round;stroke:#000;stroke-opacity:1;stroke-miterlimit:10" d="m1864.648 966.484-109.57-268.632" transform="matrix(.1 0 0 -.1 0 200)"/><path style="stroke:none;fill-rule:nonzero;fill:#8e71ad;fill-opacity:1" d="m181.559 72.98 4.906 30.372-56.313 33.57"/><path style="fill:none;stroke-width:7.12;stroke-linecap:round;stroke-linejoin:round;stroke:#000;stroke-opacity:1;stroke-miterlimit:10" d="m1815.586 1270.195 49.062-303.71" transform="matrix(.1 0 0 -.1 0 200)"/><path style="stroke:none;fill-rule:nonzero;fill:#8e71ad;fill-opacity:1" d="m162.926 51.914 18.633 21.066-51.407 63.942"/><path style="fill:none;stroke-width:7.12;stroke-linecap:round;stroke-linejoin:round;stroke:#000;stroke-opacity:1;stroke-miterlimit:10" d="m1629.258 1480.86 186.328-210.665" transform="matrix(.1 0 0 -.1 0 200)"/><path style="stroke:none;fill-rule:nonzero;fill:#8e71ad;fill-opacity:1" d="m138.684 48.258 24.242 3.656-32.774 85.008"/><path style="fill:none;stroke-width:7.12;stroke-linecap:round;stroke-linejoin:round;stroke:#000;stroke-opacity:1;stroke-miterlimit:10" d="m1386.836 1517.422 242.422-36.563" transform="matrix(.1 0 0 -.1 0 200)"/><path style="fill-rule:nonzero;fill:#fcdda0;fill-opacity:1;stroke-width:7.12;stroke-linecap:round;stroke-linejoin:round;stroke:#000;stroke-opacity:1;stroke-miterlimit:10" d="m280.39 1265.234 91.329-242.03 44.258-290.626" transform="matrix(.1 0 0 -.1 0 200)"/><path style="stroke:none;fill-rule:nonzero;fill:#c48d9b;fill-opacity:1" d="m89.2 23.977 21.972 13.847-74 59.856"/><path style="fill:none;stroke-width:7.12;stroke-linecap:round;stroke-linejoin:round;stroke:#000;stroke-opacity:1;stroke-miterlimit:10" d="m891.992 1760.234 219.727-138.476" transform="matrix(.1 0 0 -.1 0 200)"/><path style="stroke:none;fill-rule:nonzero;fill:#c48d9b;fill-opacity:1" d="M60.492 26.969 89.2 23.977 37.172 97.68"/><path style="fill:none;stroke-width:7.12;stroke-linecap:round;stroke-linejoin:round;stroke:#000;stroke-opacity:1;stroke-miterlimit:10" d="m604.922 1730.313 287.07 29.921" transform="matrix(.1 0 0 -.1 0 200)"/><path style="stroke:none;fill-rule:nonzero;fill:#c48d9b;fill-opacity:1" d="m36.82 46.137 23.672-19.168-23.32 70.71"/><path style="fill:none;stroke-width:7.12;stroke-linecap:round;stroke-linejoin:round;stroke:#000;stroke-opacity:1;stroke-miterlimit:10" d="m368.203 1538.633 236.719 191.68" transform="matrix(.1 0 0 -.1 0 200)"/><path style="fill-rule:nonzero;fill:#c48d9b;fill-opacity:1;stroke-width:7.12;stroke-linecap:round;stroke-linejoin:round;stroke:#000;stroke-opacity:1;stroke-miterlimit:10" d="m371.719 1023.203-91.328 242.031 87.812 273.399" transform="matrix(.1 0 0 -.1 0 200)"/><path style="stroke:none;fill-rule:nonzero;fill:#60001f;fill-opacity:1" d="M111.172 37.824 89.199 23.977l86.098 23.078"/><path style="fill:none;stroke-width:7.12;stroke-linecap:round;stroke-linejoin:round;stroke:#000;stroke-opacity:1;stroke-miterlimit:10" d="m1111.719 1621.758-219.727 138.476" transform="matrix(.1 0 0 -.1 0 200)"/><path style="stroke:none;fill-rule:nonzero;fill:#60001f;fill-opacity:1" d="m138.684 48.258-27.512-10.434 64.125 9.23"/><path style="fill:none;stroke-width:7.12;stroke-linecap:round;stroke-linejoin:round;stroke:#000;stroke-opacity:1;stroke-miterlimit:10" d="m1386.836 1517.422-275.117 104.336" transform="matrix(.1 0 0 -.1 0 200)"/><path style="stroke:none;fill-rule:nonzero;fill:#fcdda0;fill-opacity:1" d="m41.598 126.742-1.727 24.602L28.04 73.477"/><path style="fill:none;stroke-width:7.12;stroke-linecap:round;stroke-linejoin:round;stroke:#000;stroke-opacity:1;stroke-miterlimit:10" d="M415.977 732.578 398.71 486.563" transform="matrix(.1 0 0 -.1 0 200)"/><path style="fill-rule:nonzero;fill:#60001f;fill-opacity:1;stroke-width:7.12;stroke-linecap:round;stroke-linejoin:round;stroke:#000;stroke-opacity:1;stroke-miterlimit:10" d="m1752.969 1529.453-123.711-48.594-242.422 36.563" transform="matrix(.1 0 0 -.1 0 200)"/><path style="fill-rule:nonzero;fill:#8f93d3;fill-opacity:1;stroke-width:7.12;stroke-linecap:round;stroke-linejoin:round;stroke:#000;stroke-opacity:1;stroke-miterlimit:10" d="m1306.328 386.563 230.86 186.289 137.539-165.704" transform="matrix(.1 0 0 -.1 0 200)"/><path style="fill-rule:nonzero;fill:#8f93d3;fill-opacity:1;stroke-width:7.12;stroke-linecap:round;stroke-linejoin:round;stroke:#000;stroke-opacity:1;stroke-miterlimit:10" d="m1674.727 407.148-238.399-192.187-130 171.601" transform="matrix(.1 0 0 -.1 0 200)"/><path style="stroke:none;fill-rule:nonzero;fill:#a1ade0;fill-opacity:1" d="m143.633 178.504-30.031 1.64 17.03-18.8"/><path style="fill:none;stroke-width:7.12;stroke-linecap:round;stroke-linejoin:round;stroke:#000;stroke-opacity:1;stroke-miterlimit:10" d="m1436.328 214.96-300.312-16.405 170.312 188.007Zm0 0" transform="matrix(.1 0 0 -.1 0 200)"/><path style="stroke:none;fill-rule:nonzero;fill:#7c77c2;fill-opacity:1" d="m167.473 159.285-13.754-16.57 21.789-12.5"/><path style="fill:none;stroke-width:7.12;stroke-linecap:round;stroke-linejoin:round;stroke:#000;stroke-opacity:1;stroke-miterlimit:10" d="m1674.727 407.148-137.54 165.704 217.891 125Zm0 0" transform="matrix(.1 0 0 -.1 0 200)"/><path style="stroke:none;fill-rule:nonzero;fill:#e89e7c;fill-opacity:1" d="m17.031 62.645 19.79-16.508-8.782 27.34"/><path style="fill:none;stroke-width:7.12;stroke-linecap:round;stroke-linejoin:round;stroke:#000;stroke-opacity:1;stroke-miterlimit:10" d="m170.313 1373.555 197.89 165.078-87.812-273.399Zm0 0" transform="matrix(.1 0 0 -.1 0 200)"/><path style="fill-rule:nonzero;fill:#fcdda0;fill-opacity:1;stroke-width:7.12;stroke-linecap:round;stroke-linejoin:round;stroke:#000;stroke-opacity:1;stroke-miterlimit:10" d="m81.133 1292.93 89.18 80.625 110.078-108.32" transform="matrix(.1 0 0 -.1 0 200)"/><path style="stroke:none;fill-rule:nonzero;fill:#fcdda0;fill-opacity:1" d="m5.277 96.371 2.836-25.664 19.926 2.77"/><path style="fill:none;stroke-width:7.12;stroke-linecap:round;stroke-linejoin:round;stroke:#000;stroke-opacity:1;stroke-miterlimit:10" d="m52.773 1036.29 28.36 256.64" transform="matrix(.1 0 0 -.1 0 200)"/><path style="stroke:none;fill-rule:nonzero;fill:#fcdda0;fill-opacity:1" d="m10.238 129.39-4.96-33.019 22.761-22.894"/><path style="fill:none;stroke-width:7.12;stroke-linecap:round;stroke-linejoin:round;stroke:#000;stroke-opacity:1;stroke-miterlimit:10" d="m102.383 706.094-49.61 330.195" transform="matrix(.1 0 0 -.1 0 200)"/><path style="stroke:none;fill-rule:nonzero;fill:#fcdda0;fill-opacity:1" d="m20.809 154.965-10.57-25.574 17.8-55.914"/><path style="fill:none;stroke-width:7.12;stroke-linecap:round;stroke-linejoin:round;stroke:#000;stroke-opacity:1;stroke-miterlimit:10" d="M208.086 450.352 102.383 706.094" transform="matrix(.1 0 0 -.1 0 200)"/><path style="stroke:none;fill-rule:nonzero;fill:#fcdda0;fill-opacity:1" d="m32.168 162.691-11.36-7.726 7.231-81.488"/><path style="fill:none;stroke-width:7.12;stroke-linecap:round;stroke-linejoin:round;stroke:#000;stroke-opacity:1;stroke-miterlimit:10" d="m321.68 373.086-113.594 77.266" transform="matrix(.1 0 0 -.1 0 200)"/><path style="stroke:none;fill-rule:nonzero;fill:#fcdda0;fill-opacity:1" d="m39.871 151.344-7.703 11.347-4.129-89.214"/><path style="fill:none;stroke-width:7.12;stroke-linecap:round;stroke-linejoin:round;stroke:#000;stroke-opacity:1;stroke-miterlimit:10" d="m398.71 486.563-77.03-113.477" transform="matrix(.1 0 0 -.1 0 200)"/><path style="stroke:none;fill-rule:nonzero;fill:#b85755;fill-opacity:1" d="m60.492 26.969 20.051-15.746 8.656 12.754"/><path style="fill:none;stroke-width:7.12;stroke-linecap:round;stroke-linejoin:round;stroke:#000;stroke-opacity:1;stroke-miterlimit:10" d="m604.922 1730.313 200.508 157.46 86.562-127.539Zm0 0" transform="matrix(.1 0 0 -.1 0 200)"/><path style="stroke:none;fill-rule:nonzero;fill:#60001f;fill-opacity:1" d="m89.2 23.977-8.657-12.754 94.754 35.832"/><path style="fill:none;stroke-width:7.12;stroke-linecap:round;stroke-linejoin:round;stroke:#000;stroke-opacity:1;stroke-miterlimit:10" d="m891.992 1760.234-86.562 127.54" transform="matrix(.1 0 0 -.1 0 200)"/><path style="stroke:none;fill-rule:nonzero;fill:#d8e6df;fill-opacity:1" d="M39.871 151.344 56.36 174.07l-24.191-11.379"/><path style="fill:none;stroke-width:7.12;stroke-linecap:round;stroke-linejoin:round;stroke:#000;stroke-opacity:1;stroke-miterlimit:10" d="m398.71 486.563 164.884-227.266L321.68 373.086Zm0 0" transform="matrix(.1 0 0 -.1 0 200)"/><path style="stroke:none;fill-rule:nonzero;fill:#4e1b6f;fill-opacity:1" d="m181.559 72.98-18.633-21.066 12.37-4.86"/><path style="fill:none;stroke-width:7.12;stroke-linecap:round;stroke-linejoin:round;stroke:#000;stroke-opacity:1;stroke-miterlimit:10" d="m1815.586 1270.195-186.328 210.664 123.71 48.594Zm0 0" transform="matrix(.1 0 0 -.1 0 200)"/><path style="fill-rule:nonzero;fill:#8ac0f9;fill-opacity:1;stroke-width:7.12;stroke-linecap:round;stroke-linejoin:round;stroke:#000;stroke-opacity:1;stroke-miterlimit:10" d="m1088.32 72.734 47.696 125.82 300.312 16.407" transform="matrix(.1 0 0 -.1 0 200)"/><path style="stroke:none;fill-rule:nonzero;fill:#96c8f8;fill-opacity:1" d="m113.602 180.145-4.77 12.582-23.89-7.454"/><path style="fill:none;stroke-width:7.12;stroke-linecap:round;stroke-linejoin:round;stroke:#000;stroke-opacity:1;stroke-miterlimit:10" d="m1136.016 198.555-47.696-125.82-238.906 74.53Zm0 0" transform="matrix(.1 0 0 -.1 0 200)"/><path style="fill-rule:nonzero;fill:#394ab8;fill-opacity:1;stroke-width:7.12;stroke-linecap:round;stroke-linejoin:round;stroke:#000;stroke-opacity:1;stroke-miterlimit:10" d="m1755.078 697.852 129.453 17.03-82.617-302.5" transform="matrix(.1 0 0 -.1 0 200)"/><path style="fill-rule:nonzero;fill:#394ab8;fill-opacity:1;stroke-width:7.12;stroke-linecap:round;stroke-linejoin:round;stroke:#000;stroke-opacity:1;stroke-miterlimit:10" d="m1801.914 412.383-127.187-5.235 80.351 290.704" transform="matrix(.1 0 0 -.1 0 200)"/><path style="stroke:none;fill-rule:nonzero;fill:#3b43af;fill-opacity:1" d="m188.453 128.512-12.945 1.703 10.957-26.863"/><path style="fill:none;stroke-width:7.12;stroke-linecap:round;stroke-linejoin:round;stroke:#000;stroke-opacity:1;stroke-miterlimit:10" d="m1884.531 714.883-129.453-17.031 109.57 268.632Zm0 0" transform="matrix(.1 0 0 -.1 0 200)"/><path style="fill-rule:nonzero;fill:#e9966b;fill-opacity:1;stroke-width:7.12;stroke-linecap:round;stroke-linejoin:round;stroke:#000;stroke-opacity:1;stroke-miterlimit:10" d="m368.203 1538.633-197.89-165.078 8.945 220.507M179.258 1594.063l204.023 164.96-15.078-220.39" transform="matrix(.1 0 0 -.1 0 200)"/><path style="stroke:none;fill-rule:nonzero;fill:#d08277;fill-opacity:1" d="m38.328 24.098 22.164 2.87L36.82 46.138"/><path style="fill:none;stroke-width:7.12;stroke-linecap:round;stroke-linejoin:round;stroke:#000;stroke-opacity:1;stroke-miterlimit:10" d="m383.281 1759.023 221.64-28.71-236.718-191.68Zm0 0" transform="matrix(.1 0 0 -.1 0 200)"/><path style="fill-rule:nonzero;fill:#ba5245;fill-opacity:1;stroke-width:7.12;stroke-linecap:round;stroke-linejoin:round;stroke:#000;stroke-opacity:1;stroke-miterlimit:10" d="m805.43 1887.773-200.508-157.46-221.64 28.71" transform="matrix(.1 0 0 -.1 0 200)"/><path style="fill-rule:nonzero;fill:#8ac0f9;fill-opacity:1;stroke-width:7.12;stroke-linecap:round;stroke-linejoin:round;stroke:#000;stroke-opacity:1;stroke-miterlimit:10" d="m1436.328 214.96-35.937-126.25-312.07-15.976" transform="matrix(.1 0 0 -.1 0 200)"/><path style="fill-rule:nonzero;fill:#2d76e2;fill-opacity:1;stroke-width:7.12;stroke-linecap:round;stroke-linejoin:round;stroke:#000;stroke-opacity:1;stroke-miterlimit:10" d="m1400.39 88.71 35.938 126.25 238.399 192.188" transform="matrix(.1 0 0 -.1 0 200)"/><path style="stroke:none;fill-rule:nonzero;fill:#2d76e2;fill-opacity:1" d="m167.473 159.285 12.718-.523-40.152 32.367"/><path style="fill:none;stroke-width:7.12;stroke-linecap:round;stroke-linejoin:round;stroke:#000;stroke-opacity:1;stroke-miterlimit:10" d="m1674.727 407.148 127.187 5.235" transform="matrix(.1 0 0 -.1 0 200)"/><path style="stroke:none;fill-rule:nonzero;fill:#010000;fill-opacity:1" d="m56.36 174.07 28.581 11.203.598-10.91"/><path style="fill:none;stroke-width:7.12;stroke-linecap:round;stroke-linejoin:round;stroke:#000;stroke-opacity:1;stroke-miterlimit:10" d="m563.594 259.297 285.82-112.031" transform="matrix(.1 0 0 -.1 0 200)"/><path style="stroke:none;fill-rule:nonzero;fill:#010000;fill-opacity:1" d="m32.168 162.691 24.191 11.38 29.18.292"/><path style="fill:none;stroke-width:7.12;stroke-linecap:round;stroke-linejoin:round;stroke:#000;stroke-opacity:1;stroke-miterlimit:10" d="m321.68 373.086 241.914-113.79" transform="matrix(.1 0 0 -.1 0 200)"/><path style="stroke:none;fill-rule:nonzero;fill:#00004a;fill-opacity:1" d="m180.191 158.762 8.262-30.25-1.824 10.949"/><path style="fill:none;stroke-width:7.12;stroke-linecap:round;stroke-linejoin:round;stroke:#000;stroke-opacity:1;stroke-miterlimit:10" d="m1801.914 412.383 82.617 302.5-18.242-109.492Zm0 0" transform="matrix(.1 0 0 -.1 0 200)"/><path style="stroke:none;fill-rule:nonzero;fill:#ebd663;fill-opacity:1" d="m181.559 72.98-6.262-25.925 11.332 92.406"/><path style="fill:none;stroke-width:7.12;stroke-linecap:round;stroke-linejoin:round;stroke:#000;stroke-opacity:1;stroke-miterlimit:10" d="m1815.586 1270.195-62.617 259.258" transform="matrix(.1 0 0 -.1 0 200)"/><path style="stroke:none;fill-rule:nonzero;fill:#ebd663;fill-opacity:1" d="m186.465 103.352-4.906-30.372 5.07 66.48"/><path style="fill:none;stroke-width:7.12;stroke-linecap:round;stroke-linejoin:round;stroke:#000;stroke-opacity:1;stroke-miterlimit:10" d="m1864.648 966.484-49.062 303.711" transform="matrix(.1 0 0 -.1 0 200)"/><path style="stroke:none;fill-rule:nonzero;fill:#010000;fill-opacity:1" d="m84.941 185.273 23.891 7.454-23.293-18.364"/><path style="fill:none;stroke-width:7.12;stroke-linecap:round;stroke-linejoin:round;stroke:#000;stroke-opacity:1;stroke-miterlimit:10" d="m849.414 147.266 238.906-74.532" transform="matrix(.1 0 0 -.1 0 200)"/><path style="fill-rule:nonzero;fill:#ebd663;fill-opacity:1;stroke-width:7.12;stroke-linecap:round;stroke-linejoin:round;stroke:#000;stroke-opacity:1;stroke-miterlimit:10" d="m1866.29 605.39 18.241 109.493-19.883 251.601" transform="matrix(.1 0 0 -.1 0 200)"/><path style="stroke:none;fill-rule:nonzero;fill:#f8ab4a;fill-opacity:1" d="m17.926 40.594-.895 22.05-8.918 8.063"/><path style="fill:none;stroke-width:7.12;stroke-linecap:round;stroke-linejoin:round;stroke:#000;stroke-opacity:1;stroke-miterlimit:10" d="m179.258 1594.063-8.946-220.508-89.18-80.625Zm0 0" transform="matrix(.1 0 0 -.1 0 200)"/><path style="stroke:none;fill-rule:nonzero;fill:#760000;fill-opacity:1" d="m58.465 7.762 31.422-3.266-9.344 6.727"/><path style="fill:none;stroke-width:7.12;stroke-linecap:round;stroke-linejoin:round;stroke:#000;stroke-opacity:1;stroke-miterlimit:10" d="m584.648 1922.383 314.22 32.656-93.438-67.266Zm0 0" transform="matrix(.1 0 0 -.1 0 200)"/><path style="fill-rule:nonzero;fill:#ba5245;fill-opacity:1;stroke-width:7.12;stroke-linecap:round;stroke-linejoin:round;stroke:#000;stroke-opacity:1;stroke-miterlimit:10" d="m383.281 1759.023 201.367 163.36 220.782-34.61" transform="matrix(.1 0 0 -.1 0 200)"/><path style="stroke:none;fill-rule:nonzero;fill:#60001f;fill-opacity:1" d="m80.543 11.223 9.344-6.727 85.41 42.559"/><path style="fill:none;stroke-width:7.12;stroke-linecap:round;stroke-linejoin:round;stroke:#000;stroke-opacity:1;stroke-miterlimit:10" d="m805.43 1887.773 93.437 67.266" transform="matrix(.1 0 0 -.1 0 200)"/><path style="stroke:none;fill-rule:nonzero;fill:#010000;fill-opacity:1" d="m20.809 154.965 11.359 7.726 53.371 11.672"/><path style="fill:none;stroke-width:7.12;stroke-linecap:round;stroke-linejoin:round;stroke:#000;stroke-opacity:1;stroke-miterlimit:10" d="m208.086 450.352 113.594-77.266" transform="matrix(.1 0 0 -.1 0 200)"/><path style="fill-rule:nonzero;fill:#720000;fill-opacity:1;stroke-width:7.12;stroke-linecap:round;stroke-linejoin:round;stroke:#000;stroke-opacity:1;stroke-miterlimit:10" d="m584.648 1922.383-201.367-163.36-204.023-164.96" transform="matrix(.1 0 0 -.1 0 200)"/><path style="fill-rule:nonzero;fill:#60001f;fill-opacity:1;stroke-width:7.12;stroke-linecap:round;stroke-linejoin:round;stroke:#000;stroke-opacity:1;stroke-miterlimit:10" d="m1466.21 1809.023 230.977-155.234 55.782-124.336" transform="matrix(.1 0 0 -.1 0 200)"/><path style="stroke:none;fill-rule:nonzero;fill:#60001f;fill-opacity:1" d="m115.328 7.309 31.293 11.789 28.676 27.957"/><path style="fill:none;stroke-width:7.12;stroke-linecap:round;stroke-linejoin:round;stroke:#000;stroke-opacity:1;stroke-miterlimit:10" d="m1153.281 1926.914 312.93-117.89" transform="matrix(.1 0 0 -.1 0 200)"/><path style="stroke:none;fill-rule:nonzero;fill:#60001f;fill-opacity:1" d="m89.887 4.496 25.441 2.813 59.969 39.746"/><path style="fill:none;stroke-width:7.12;stroke-linecap:round;stroke-linejoin:round;stroke:#000;stroke-opacity:1;stroke-miterlimit:10" d="m898.867 1955.04 254.414-28.126" transform="matrix(.1 0 0 -.1 0 200)"/><path style="stroke:none;fill-rule:nonzero;fill:#ebd663;fill-opacity:1" d="m175.297 47.055-5.578-12.434 16.91 104.84"/><path style="fill:none;stroke-width:7.12;stroke-linecap:round;stroke-linejoin:round;stroke:#000;stroke-opacity:1;stroke-miterlimit:10" d="m1752.969 1529.453-55.782 124.336" transform="matrix(.1 0 0 -.1 0 200)"/><path style="stroke:none;fill-rule:nonzero;fill:#16a2d2;fill-opacity:1" d="m140.04 191.129-20.556 2.473-10.652-.875"/><path style="fill:none;stroke-width:7.12;stroke-linecap:round;stroke-linejoin:round;stroke:#000;stroke-opacity:1;stroke-miterlimit:10" d="m1400.39 88.71-205.546-24.726-106.524 8.75Zm0 0" transform="matrix(.1 0 0 -.1 0 200)"/><path style="stroke:none;fill-rule:nonzero;fill:#010000;fill-opacity:1" d="m108.832 192.727 10.652.875-33.945-19.239"/><path style="fill:none;stroke-width:7.12;stroke-linecap:round;stroke-linejoin:round;stroke:#000;stroke-opacity:1;stroke-miterlimit:10" d="m1088.32 72.734 106.524-8.75" transform="matrix(.1 0 0 -.1 0 200)"/><path style="fill-rule:nonzero;fill:#990c00;fill-opacity:1;stroke-width:7.12;stroke-linecap:round;stroke-linejoin:round;stroke:#000;stroke-opacity:1;stroke-miterlimit:10" d="M1428.008 189.297 1194.844 63.984l205.547 24.727" transform="matrix(.1 0 0 -.1 0 200)"/><path style="fill-rule:nonzero;fill:#2d76e2;fill-opacity:1;stroke-width:7.12;stroke-linecap:round;stroke-linejoin:round;stroke:#000;stroke-opacity:1;stroke-miterlimit:10" d="m1801.914 412.383-170.703-201.797L1400.39 88.71" transform="matrix(.1 0 0 -.1 0 200)"/><path style="fill-rule:nonzero;fill:#990c00;fill-opacity:1;stroke-width:7.12;stroke-linecap:round;stroke-linejoin:round;stroke:#000;stroke-opacity:1;stroke-miterlimit:10" d="m1400.39 88.71 230.82 121.876-203.202-21.29" transform="matrix(.1 0 0 -.1 0 200)"/><path style="fill-rule:nonzero;fill:#e57c1c;fill-opacity:1;stroke-width:7.12;stroke-linecap:round;stroke-linejoin:round;stroke:#000;stroke-opacity:1;stroke-miterlimit:10" d="m1631.21 210.586 170.704 201.797 64.375 193.008" transform="matrix(.1 0 0 -.1 0 200)"/><path style="stroke:none;fill-rule:nonzero;fill:#720000;fill-opacity:1" d="m17.926 40.594 6.953-5.684L58.465 7.762"/><path style="fill:none;stroke-width:7.12;stroke-linecap:round;stroke-linejoin:round;stroke:#000;stroke-opacity:1;stroke-miterlimit:10" d="m179.258 1594.063 69.531 56.835" transform="matrix(.1 0 0 -.1 0 200)"/><path style="fill-rule:nonzero;fill:#00008b;fill-opacity:1;stroke-width:7.12;stroke-linecap:round;stroke-linejoin:round;stroke:#000;stroke-opacity:1;stroke-miterlimit:10" d="m248.79 1650.898-69.532-56.835-98.125-301.133" transform="matrix(.1 0 0 -.1 0 200)"/><path style="fill-rule:nonzero;fill:#44b7f5;fill-opacity:1;stroke-width:7.12;stroke-linecap:round;stroke-linejoin:round;stroke:#000;stroke-opacity:1;stroke-miterlimit:10" d="m837.344 1896.055 61.523 58.984-314.219-32.656" transform="matrix(.1 0 0 -.1 0 200)"/><path style="fill-rule:nonzero;fill:#720000;fill-opacity:1;stroke-width:7.12;stroke-linecap:round;stroke-linejoin:round;stroke:#000;stroke-opacity:1;stroke-miterlimit:10" d="m248.79 1650.898 261.327 211.641 74.531 59.844" transform="matrix(.1 0 0 -.1 0 200)"/><path style="fill-rule:nonzero;fill:#44b7f5;fill-opacity:1;stroke-width:7.12;stroke-linecap:round;stroke-linejoin:round;stroke:#000;stroke-opacity:1;stroke-miterlimit:10" d="m584.648 1922.383-74.53-59.844 327.226 33.516" transform="matrix(.1 0 0 -.1 0 200)"/><path style="fill-rule:nonzero;fill:#00008b;fill-opacity:1;stroke-width:7.12;stroke-linecap:round;stroke-linejoin:round;stroke:#000;stroke-opacity:1;stroke-miterlimit:10" d="m81.133 1292.93 65.86 44.18 101.796 313.788" transform="matrix(.1 0 0 -.1 0 200)"/><path style="stroke:none;fill-rule:nonzero;fill:#000082;fill-opacity:1" d="M8.113 70.707 5.277 96.371 14.7 66.29"/><path style="fill:none;stroke-width:7.12;stroke-linecap:round;stroke-linejoin:round;stroke:#000;stroke-opacity:1;stroke-miterlimit:10" d="m81.133 1292.93-28.36-256.64 94.22 300.82Zm0 0" transform="matrix(.1 0 0 -.1 0 200)"/><path style="stroke:none;fill-rule:nonzero;fill:#5dc7fa;fill-opacity:1" d="m83.734 10.395 31.594-3.086-25.441-2.813"/><path style="fill:none;stroke-width:7.12;stroke-linecap:round;stroke-linejoin:round;stroke:#000;stroke-opacity:1;stroke-miterlimit:10" d="m837.344 1896.055 315.937 30.86-254.414 28.124Zm0 0" transform="matrix(.1 0 0 -.1 0 200)"/><path style="stroke:none;fill-rule:nonzero;fill:#000023;fill-opacity:1" d="m10.238 129.39 10.57 25.575 7.18-.75"/><path style="fill:none;stroke-width:7.12;stroke-linecap:round;stroke-linejoin:round;stroke:#000;stroke-opacity:1;stroke-miterlimit:10" d="m102.383 706.094 105.703-255.742 71.797 7.5Zm0 0" transform="matrix(.1 0 0 -.1 0 200)"/><path style="stroke:none;fill-rule:nonzero;fill:#010000;fill-opacity:1" d="m27.988 154.215-7.18.75 64.731 19.398"/><path style="fill:none;stroke-width:7.12;stroke-linecap:round;stroke-linejoin:round;stroke:#000;stroke-opacity:1;stroke-miterlimit:10" d="m279.883 457.852-71.797-7.5" transform="matrix(.1 0 0 -.1 0 200)"/><path style="stroke:none;fill-rule:nonzero;fill:#d5704d;fill-opacity:1" d="m142.8 181.07 20.321-2.129 6.012-19.105"/><path style="fill:none;stroke-width:7.12;stroke-linecap:round;stroke-linejoin:round;stroke:#000;stroke-opacity:1;stroke-miterlimit:10" d="m1428.008 189.297 203.203 21.289 60.117 191.055Zm0 0" transform="matrix(.1 0 0 -.1 0 200)"/><path style="fill-rule:nonzero;fill:#e57c1c;fill-opacity:1;stroke-width:7.12;stroke-linecap:round;stroke-linejoin:round;stroke:#000;stroke-opacity:1;stroke-miterlimit:10" d="m1866.29 605.39-174.962-203.75-60.117-191.054" transform="matrix(.1 0 0 -.1 0 200)"/><path style="stroke:none;fill-rule:nonzero;fill:#ebd663;fill-opacity:1" d="m169.719 34.621-2.711 7.25 19.62 97.59"/><path style="fill:none;stroke-width:7.12;stroke-linecap:round;stroke-linejoin:round;stroke:#000;stroke-opacity:1;stroke-miterlimit:10" d="m1697.188 1653.79-27.11-72.5" transform="matrix(.1 0 0 -.1 0 200)"/><path style="stroke:none;fill-rule:nonzero;fill:#d0feda;fill-opacity:1" d="m167.008 41.871 2.71-7.25-23.097-15.523"/><path style="fill:none;stroke-width:7.12;stroke-linecap:round;stroke-linejoin:round;stroke:#000;stroke-opacity:1;stroke-miterlimit:10" d="m1670.078 1581.29 27.11 72.5-230.977 155.233Zm0 0" transform="matrix(.1 0 0 -.1 0 200)"/><path style="stroke:none;fill-rule:nonzero;fill:#a32206;fill-opacity:1" d="m142.8 181.07-31.538 5.73 8.222 6.802"/><path style="fill:none;stroke-width:7.12;stroke-linecap:round;stroke-linejoin:round;stroke:#000;stroke-opacity:1;stroke-miterlimit:10" d="m1428.008 189.297-315.39-57.305 82.226-68.008Zm0 0" transform="matrix(.1 0 0 -.1 0 200)"/><path style="fill-rule:nonzero;fill:#010000;fill-opacity:1;stroke-width:7.12;stroke-linecap:round;stroke-linejoin:round;stroke:#000;stroke-opacity:1;stroke-miterlimit:10" d="m1194.844 63.984-82.227 68.008-257.226 124.375" transform="matrix(.1 0 0 -.1 0 200)"/><path style="stroke:none;fill-rule:nonzero;fill:#f09346;fill-opacity:1" d="m186.629 139.46-5.375-9.112-12.121 29.488"/><path style="fill:none;stroke-width:7.12;stroke-linecap:round;stroke-linejoin:round;stroke:#000;stroke-opacity:1;stroke-miterlimit:10" d="m1866.29 605.39-53.75 91.133-121.212-294.882Zm0 0" transform="matrix(.1 0 0 -.1 0 200)"/><path style="fill-rule:nonzero;fill:#ebd663;fill-opacity:1;stroke-width:7.12;stroke-linecap:round;stroke-linejoin:round;stroke:#000;stroke-opacity:1;stroke-miterlimit:10" d="m1742.344 972.188 70.195-275.665 53.75-91.132" transform="matrix(.1 0 0 -.1 0 200)"/><path style="stroke:none;fill-rule:nonzero;fill:#ebd663;fill-opacity:1" d="m168.648 68.063 5.586 34.718 12.395 36.68"/><path style="fill:none;stroke-width:7.12;stroke-linecap:round;stroke-linejoin:round;stroke:#000;stroke-opacity:1;stroke-miterlimit:10" d="m1686.484 1319.375 55.86-347.188" transform="matrix(.1 0 0 -.1 0 200)"/><path style="stroke:none;fill-rule:nonzero;fill:#ebd663;fill-opacity:1" d="m167.008 41.871 1.64 26.191 17.98 71.399"/><path style="fill:none;stroke-width:7.12;stroke-linecap:round;stroke-linejoin:round;stroke:#000;stroke-opacity:1;stroke-miterlimit:10" d="m1670.078 1581.29 16.406-261.915" transform="matrix(.1 0 0 -.1 0 200)"/><path style="stroke:none;fill-rule:nonzero;fill:#8166aa;fill-opacity:1" d="m5.277 96.371 4.961 33.02 25.559-79.578"/><path style="fill:none;stroke-width:7.12;stroke-linecap:round;stroke-linejoin:round;stroke:#000;stroke-opacity:1;stroke-miterlimit:10" d="m52.773 1036.29 49.61-330.196" transform="matrix(.1 0 0 -.1 0 200)"/><path style="fill-rule:nonzero;fill:#8166aa;fill-opacity:1;stroke-width:7.12;stroke-linecap:round;stroke-linejoin:round;stroke:#000;stroke-opacity:1;stroke-miterlimit:10" d="m357.969 1501.875-210.977-164.766-94.219-300.82" transform="matrix(.1 0 0 -.1 0 200)"/><path style="stroke:none;fill-rule:nonzero;fill:#bcbcd9;fill-opacity:1" d="m115.328 7.309-31.594 3.086 32.055 82.062"/><path style="fill:none;stroke-width:7.12;stroke-linecap:round;stroke-linejoin:round;stroke:#000;stroke-opacity:1;stroke-miterlimit:10" d="m1153.281 1926.914-315.937-30.86" transform="matrix(.1 0 0 -.1 0 200)"/><path style="stroke:none;fill-rule:nonzero;fill:#bcbcd9;fill-opacity:1" d="m146.621 19.098-31.293-11.79.461 85.149"/><path style="fill:none;stroke-width:7.12;stroke-linecap:round;stroke-linejoin:round;stroke:#000;stroke-opacity:1;stroke-miterlimit:10" d="m1466.21 1809.023-312.929 117.891" transform="matrix(.1 0 0 -.1 0 200)"/><path style="stroke:none;fill-rule:nonzero;fill:#8166aa;fill-opacity:1" d="m10.238 129.39 17.75 24.825 7.809-104.403"/><path style="fill:none;stroke-width:7.12;stroke-linecap:round;stroke-linejoin:round;stroke:#000;stroke-opacity:1;stroke-miterlimit:10" d="m102.383 706.094 177.5-248.242" transform="matrix(.1 0 0 -.1 0 200)"/><path style="stroke:none;fill-rule:nonzero;fill:#bcbcd9;fill-opacity:1" d="M167.008 41.871 146.62 19.098 115.79 92.457"/><path style="fill:none;stroke-width:7.12;stroke-linecap:round;stroke-linejoin:round;stroke:#000;stroke-opacity:1;stroke-miterlimit:10" d="m1670.078 1581.29-203.867 227.733" transform="matrix(.1 0 0 -.1 0 200)"/><path style="fill-rule:nonzero;fill:#7b90dc;fill-opacity:1;stroke-width:7.12;stroke-linecap:round;stroke-linejoin:round;stroke:#000;stroke-opacity:1;stroke-miterlimit:10" d="M510.117 1862.54 248.79 1650.897l109.18-149.023" transform="matrix(.1 0 0 -.1 0 200)"/><path style="stroke:none;fill-rule:nonzero;fill:#5c65c3;fill-opacity:1" d="m24.879 34.91-10.18 31.38 21.098-16.478"/><path style="fill:none;stroke-width:7.12;stroke-linecap:round;stroke-linejoin:round;stroke:#000;stroke-opacity:1;stroke-miterlimit:10" d="M248.79 1650.898 146.991 1337.11l210.977 164.766Zm0 0" transform="matrix(.1 0 0 -.1 0 200)"/><path style="stroke:none;fill-rule:nonzero;fill:#92b4ee;fill-opacity:1" d="m83.734 10.395-32.722 3.351 11.883 14.129"/><path style="fill:none;stroke-width:7.12;stroke-linecap:round;stroke-linejoin:round;stroke:#000;stroke-opacity:1;stroke-miterlimit:10" d="m837.344 1896.055-327.227-33.516 118.828-141.289Zm0 0" transform="matrix(.1 0 0 -.1 0 200)"/><path style="fill-rule:nonzero;fill:#7b90dc;fill-opacity:1;stroke-width:7.12;stroke-linecap:round;stroke-linejoin:round;stroke:#000;stroke-opacity:1;stroke-miterlimit:10" d="m357.969 1501.875 270.976 219.375-118.828 141.29" transform="matrix(.1 0 0 -.1 0 200)"/><path style="stroke:none;fill-rule:nonzero;fill:#c78b93;fill-opacity:1" d="m142.8 181.07 26.333-21.234-19.692-72.02"/><path style="fill:none;stroke-width:7.12;stroke-linecap:round;stroke-linejoin:round;stroke:#000;stroke-opacity:1;stroke-miterlimit:10" d="m1428.008 189.297 263.32 212.344" transform="matrix(.1 0 0 -.1 0 200)"/><path style="stroke:none;fill-rule:nonzero;fill:#c78b93;fill-opacity:1" d="m111.262 186.8 31.539-5.73 6.64-93.254"/><path style="fill:none;stroke-width:7.12;stroke-linecap:round;stroke-linejoin:round;stroke:#000;stroke-opacity:1;stroke-miterlimit:10" d="m1112.617 131.992 315.39 57.305" transform="matrix(.1 0 0 -.1 0 200)"/><path style="stroke:none;fill-rule:nonzero;fill:#c78b93;fill-opacity:1" d="m169.133 159.836 12.12-29.488-31.812-42.532"/><path style="fill:none;stroke-width:7.12;stroke-linecap:round;stroke-linejoin:round;stroke:#000;stroke-opacity:1;stroke-miterlimit:10" d="m1691.328 401.64 121.211 294.883" transform="matrix(.1 0 0 -.1 0 200)"/><path style="stroke:none;fill-rule:nonzero;fill:#bcbcd9;fill-opacity:1" d="m83.734 10.395-20.84 17.48 52.895 64.582"/><path style="fill:none;stroke-width:7.12;stroke-linecap:round;stroke-linejoin:round;stroke:#000;stroke-opacity:1;stroke-miterlimit:10" d="M837.344 1896.055 628.945 1721.25" transform="matrix(.1 0 0 -.1 0 200)"/><path style="stroke:none;fill-rule:nonzero;fill:#8166aa;fill-opacity:1" d="m27.988 154.215 24.871 7.37L35.797 49.813"/><path style="fill:none;stroke-width:7.12;stroke-linecap:round;stroke-linejoin:round;stroke:#000;stroke-opacity:1;stroke-miterlimit:10" d="m279.883 457.852 248.71-73.711" transform="matrix(.1 0 0 -.1 0 200)"/><path style="fill-rule:nonzero;fill:#010000;fill-opacity:1;stroke-width:7.12;stroke-linecap:round;stroke-linejoin:round;stroke:#000;stroke-opacity:1;stroke-miterlimit:10" d="M855.39 256.367 528.595 384.141l-248.711 73.71" transform="matrix(.1 0 0 -.1 0 200)"/><path style="stroke:none;fill-rule:nonzero;fill:#bcbcd9;fill-opacity:1" d="m168.648 68.063-1.64-26.192-51.219 50.586"/><path style="fill:none;stroke-width:7.12;stroke-linecap:round;stroke-linejoin:round;stroke:#000;stroke-opacity:1;stroke-miterlimit:10" d="m1686.484 1319.375-16.406 261.914" transform="matrix(.1 0 0 -.1 0 200)"/><path style="stroke:none;fill-rule:nonzero;fill:#c78b93;fill-opacity:1" d="m85.54 174.363 25.722 12.438 38.18-98.985"/><path style="fill:none;stroke-width:7.12;stroke-linecap:round;stroke-linejoin:round;stroke:#000;stroke-opacity:1;stroke-miterlimit:10" d="m855.39 256.367 257.227-124.375" transform="matrix(.1 0 0 -.1 0 200)"/><path style="fill-rule:nonzero;fill:#c78b93;fill-opacity:1;stroke-width:7.12;stroke-linecap:round;stroke-linejoin:round;stroke:#000;stroke-opacity:1;stroke-miterlimit:10" d="m1812.54 696.523-70.196 275.664-247.93 149.649" transform="matrix(.1 0 0 -.1 0 200)"/><path style="fill-rule:nonzero;fill:#8166aa;fill-opacity:1;stroke-width:7.12;stroke-linecap:round;stroke-linejoin:round;stroke:#000;stroke-opacity:1;stroke-miterlimit:10" d="m815.977 1206.602-201.211 251.445-256.797 43.828" transform="matrix(.1 0 0 -.1 0 200)"/><path style="stroke:none;fill-rule:nonzero;fill:#8166aa;fill-opacity:1" d="M87.219 115.543 81.598 79.34 35.797 49.812"/><path style="fill:none;stroke-width:7.12;stroke-linecap:round;stroke-linejoin:round;stroke:#000;stroke-opacity:1;stroke-miterlimit:10" d="m872.188 844.57-56.211 362.032" transform="matrix(.1 0 0 -.1 0 200)"/><path style="stroke:none;fill-rule:nonzero;fill:#8166aa;fill-opacity:1" d="m75.828 147.27 11.39-31.727-51.421-65.73"/><path style="fill:none;stroke-width:7.12;stroke-linecap:round;stroke-linejoin:round;stroke:#000;stroke-opacity:1;stroke-miterlimit:10" d="M758.281 527.305 872.188 844.57" transform="matrix(.1 0 0 -.1 0 200)"/><path style="stroke:none;fill-rule:nonzero;fill:#8166aa;fill-opacity:1" d="m52.86 161.586 22.968-14.316-40.031-97.458"/><path style="fill:none;stroke-width:7.12;stroke-linecap:round;stroke-linejoin:round;stroke:#000;stroke-opacity:1;stroke-miterlimit:10" d="M528.594 384.14 758.28 527.306" transform="matrix(.1 0 0 -.1 0 200)"/><path style="stroke:none;fill-rule:nonzero;fill:#8792d7;fill-opacity:1" d="m35.797 49.813 25.68 4.382 1.418-26.32"/><path style="fill:none;stroke-width:7.12;stroke-linecap:round;stroke-linejoin:round;stroke:#000;stroke-opacity:1;stroke-miterlimit:10" d="m357.969 1501.875 256.797-43.828 14.18 263.203Zm0 0" transform="matrix(.1 0 0 -.1 0 200)"/><path style="stroke:none;fill-rule:nonzero;fill:#bcbcd9;fill-opacity:1" d="m62.895 27.875-1.418 26.32 54.312 38.262"/><path style="fill:none;stroke-width:7.12;stroke-linecap:round;stroke-linejoin:round;stroke:#000;stroke-opacity:1;stroke-miterlimit:10" d="m628.945 1721.25-14.18-263.203" transform="matrix(.1 0 0 -.1 0 200)"/><path style="stroke:none;fill-rule:nonzero;fill:#995981;fill-opacity:1" d="M75.828 147.27 52.86 161.586l32.68 12.777"/><path style="fill:none;stroke-width:7.12;stroke-linecap:round;stroke-linejoin:round;stroke:#000;stroke-opacity:1;stroke-miterlimit:10" d="M758.281 527.305 528.594 384.14 855.39 256.367Zm0 0" transform="matrix(.1 0 0 -.1 0 200)"/><path style="fill-rule:nonzero;fill:#bcbcd9;fill-opacity:1;stroke-width:7.12;stroke-linecap:round;stroke-linejoin:round;stroke:#000;stroke-opacity:1;stroke-miterlimit:10" d="m1157.89 1075.43 336.524 46.406 192.07 197.539" transform="matrix(.1 0 0 -.1 0 200)"/><path style="stroke:none;fill-rule:nonzero;fill:#dcbcb8;fill-opacity:1" d="m149.441 87.816 24.793 14.965-5.586-34.719"/><path style="fill:none;stroke-width:7.12;stroke-linecap:round;stroke-linejoin:round;stroke:#000;stroke-opacity:1;stroke-miterlimit:10" d="m1494.414 1121.836 247.93-149.649-55.86 347.188Zm0 0" transform="matrix(.1 0 0 -.1 0 200)"/><path style="stroke:none;fill-rule:nonzero;fill:#c78b93;fill-opacity:1" d="m75.828 147.27 9.711 27.093 63.902-86.547"/><path style="fill:none;stroke-width:7.12;stroke-linecap:round;stroke-linejoin:round;stroke:#000;stroke-opacity:1;stroke-miterlimit:10" d="m758.281 527.305 97.11-270.938" transform="matrix(.1 0 0 -.1 0 200)"/><path style="fill-rule:nonzero;fill:#bcbcd9;fill-opacity:1;stroke-width:7.12;stroke-linecap:round;stroke-linejoin:round;stroke:#000;stroke-opacity:1;stroke-miterlimit:10" d="m614.766 1458.047 201.21-251.445 341.915-131.172" transform="matrix(.1 0 0 -.1 0 200)"/><path style="stroke:none;fill-rule:nonzero;fill:#c78b93;fill-opacity:1" d="m87.219 115.543-11.39 31.727 73.612-59.454"/><path style="fill:none;stroke-width:7.12;stroke-linecap:round;stroke-linejoin:round;stroke:#000;stroke-opacity:1;stroke-miterlimit:10" d="M872.188 844.57 758.28 527.305" transform="matrix(.1 0 0 -.1 0 200)"/><path style="fill-rule:nonzero;fill:#c78b93;fill-opacity:1;stroke-width:7.12;stroke-linecap:round;stroke-linejoin:round;stroke:#000;stroke-opacity:1;stroke-miterlimit:10" d="m1494.414 1121.836-336.523-46.406-285.704-230.86" transform="matrix(.1 0 0 -.1 0 200)"/><path style="stroke:none;fill-rule:nonzero;fill:#b293b7;fill-opacity:1" d="M115.79 92.457 81.597 79.34l5.62 36.203"/><path style="fill:none;stroke-width:7.12;stroke-linecap:round;stroke-linejoin:round;stroke:#000;stroke-opacity:1;stroke-miterlimit:10" d="m1157.89 1075.43-341.913 131.172 56.21-362.032Zm0 0" transform="matrix(.1 0 0 -.1 0 200)"/></svg>