<svg xmlns="http://www.w3.org/2000/svg" width="206pt" height="200pt" viewBox="0 0 206 200" version="1.2"><path style="fill-rule:nonzero;fill:#be8ea4;fill-opacity:1;stroke-width:7.36;stroke-linecap:round;stroke-linejoin:round;stroke:#000;stroke-opacity:1;stroke-miterlimit:10" d="m1139.375 1367.031-139.063-351.172-377.617-10.937" transform="matrix(.1 0 0 -.1 0 200)"/><path style="fill-rule:nonzero;fill:#bea2bc;fill-opacity:1;stroke-width:7.36;stroke-linecap:round;stroke-linejoin:round;stroke:#000;stroke-opacity:1;stroke-miterlimit:10" d="m1000.313 1015.86 29.492-380.743-380.664-15.742M649.14 619.375l-26.445 385.547 377.617 10.937" transform="matrix(.1 0 0 -.1 0 200)"/><path style="fill-rule:nonzero;fill:#a884ad;fill-opacity:1;stroke-width:7.36;stroke-linecap:round;stroke-linejoin:round;stroke:#000;stroke-opacity:1;stroke-miterlimit:10" d="m1348.047 858.164-347.735 157.695 139.063 351.172" transform="matrix(.1 0 0 -.1 0 200)"/><path style="stroke:none;fill-rule:nonzero;fill:#af94bb;fill-opacity:1" d="m102.98 136.488-2.949-38.074 34.774 15.77"/><path style="fill:none;stroke-width:7.36;stroke-linecap:round;stroke-linejoin:round;stroke:#000;stroke-opacity:1;stroke-miterlimit:10" d="m1029.805 635.117-29.493 380.742 347.735-157.695Zm0 0" transform="matrix(.1 0 0 -.1 0 200)"/><path style="fill-rule:nonzero;fill:#b9b5d5;fill-opacity:1;stroke-width:7.36;stroke-linecap:round;stroke-linejoin:round;stroke:#000;stroke-opacity:1;stroke-miterlimit:10" d="m1029.805 635.117 192.265-283.75-269.765-205.82" transform="matrix(.1 0 0 -.1 0 200)"/><path style="stroke:none;fill-rule:nonzero;fill:#b9b5d5;fill-opacity:1" d="m64.914 138.063 38.066-1.575-7.75 48.957"/><path style="fill:none;stroke-width:7.36;stroke-linecap:round;stroke-linejoin:round;stroke:#000;stroke-opacity:1;stroke-miterlimit:10" d="m649.14 619.375 380.665 15.742" transform="matrix(.1 0 0 -.1 0 200)"/><path style="fill-rule:nonzero;fill:#a497c7;fill-opacity:1;stroke-width:7.36;stroke-linecap:round;stroke-linejoin:round;stroke:#000;stroke-opacity:1;stroke-miterlimit:10" d="m1222.07 351.367-192.265 283.75 318.242 223.047" transform="matrix(.1 0 0 -.1 0 200)"/><path style="fill-rule:nonzero;fill:#8b75b4;fill-opacity:1;stroke-width:7.36;stroke-linecap:round;stroke-linejoin:round;stroke:#000;stroke-opacity:1;stroke-miterlimit:10" d="m1549.023 580.508-200.976 277.656 144.687 352.344" transform="matrix(.1 0 0 -.1 0 200)"/><path style="fill-rule:nonzero;fill:#a884ad;fill-opacity:1;stroke-width:7.36;stroke-linecap:round;stroke-linejoin:round;stroke:#000;stroke-opacity:1;stroke-miterlimit:10" d="m1139.375 1367.031 353.36-156.523-144.688-352.344" transform="matrix(.1 0 0 -.1 0 200)"/><path style="fill-rule:nonzero;fill:#a497c7;fill-opacity:1;stroke-width:7.36;stroke-linecap:round;stroke-linejoin:round;stroke:#000;stroke-opacity:1;stroke-miterlimit:10" d="m1348.047 858.164 200.976-277.656-326.953-229.14" transform="matrix(.1 0 0 -.1 0 200)"/><path style="stroke:none;fill-rule:nonzero;fill:#be8ea4;fill-opacity:1" d="m84.46 41.55 29.478 21.747-51.668 36.21"/><path style="fill:none;stroke-width:7.36;stroke-linecap:round;stroke-linejoin:round;stroke:#000;stroke-opacity:1;stroke-miterlimit:10" d="m844.61 1584.492 294.765-217.46" transform="matrix(.1 0 0 -.1 0 200)"/><path style="fill-rule:nonzero;fill:#be8ea4;fill-opacity:1;stroke-width:7.36;stroke-linecap:round;stroke-linejoin:round;stroke:#000;stroke-opacity:1;stroke-miterlimit:10" d="m622.695 1004.922-103.906 351.21 325.82 228.36" transform="matrix(.1 0 0 -.1 0 200)"/><path style="fill-rule:nonzero;fill:#d6a9a9;fill-opacity:1;stroke-width:7.36;stroke-linecap:round;stroke-linejoin:round;stroke:#000;stroke-opacity:1;stroke-miterlimit:10" d="m518.79 1356.133 103.905-351.211-281.054-181.485" transform="matrix(.1 0 0 -.1 0 200)"/><path style="stroke:none;fill-rule:nonzero;fill:#ceb0bb;fill-opacity:1" d="m64.914 138.063-30.75-20.407L62.27 99.508"/><path style="fill:none;stroke-width:7.36;stroke-linecap:round;stroke-linejoin:round;stroke:#000;stroke-opacity:1;stroke-miterlimit:10" d="m649.14 619.375-307.5 204.063 281.055 181.484Zm0 0" transform="matrix(.1 0 0 -.1 0 200)"/><path style="stroke:none;fill-rule:nonzero;fill:#ae7390;fill-opacity:1" d="M113.938 63.297 84.46 41.55l37.953-9.051"/><path style="fill:none;stroke-width:7.36;stroke-linecap:round;stroke-linejoin:round;stroke:#000;stroke-opacity:1;stroke-miterlimit:10" d="m1139.375 1367.031-294.766 217.461L1224.141 1675Zm0 0" transform="matrix(.1 0 0 -.1 0 200)"/><path style="fill-rule:nonzero;fill:#9c6894;fill-opacity:1;stroke-width:7.36;stroke-linecap:round;stroke-linejoin:round;stroke:#000;stroke-opacity:1;stroke-miterlimit:10" d="m1590.04 1516.133-97.306-305.625-353.359 156.523M1139.375 1367.031 1224.141 1675l365.898-158.867" transform="matrix(.1 0 0 -.1 0 200)"/><path style="fill-rule:nonzero;fill:#d6c6cb;fill-opacity:1;stroke-width:7.36;stroke-linecap:round;stroke-linejoin:round;stroke:#000;stroke-opacity:1;stroke-miterlimit:10" d="m341.64 823.438 307.5-204.063-61.093-300.352" transform="matrix(.1 0 0 -.1 0 200)"/><path style="fill-rule:nonzero;fill:#b9b5d5;fill-opacity:1;stroke-width:7.36;stroke-linecap:round;stroke-linejoin:round;stroke:#000;stroke-opacity:1;stroke-miterlimit:10" d="M952.305 145.547 588.047 319.023l61.094 300.352" transform="matrix(.1 0 0 -.1 0 200)"/><path style="stroke:none;fill-rule:nonzero;fill:#855c99;fill-opacity:1" d="m149.273 78.95 9.73-30.563 20.571 35.078"/><path style="fill:none;stroke-width:7.36;stroke-linecap:round;stroke-linejoin:round;stroke:#000;stroke-opacity:1;stroke-miterlimit:10" d="m1492.734 1210.508 97.305 305.625 205.703-350.781Zm0 0" transform="matrix(.1 0 0 -.1 0 200)"/><path style="stroke:none;fill-rule:nonzero;fill:#8b75b4;fill-opacity:1" d="m149.273 78.95 30.301 4.515-24.672 58.484"/><path style="fill:none;stroke-width:7.36;stroke-linecap:round;stroke-linejoin:round;stroke:#000;stroke-opacity:1;stroke-miterlimit:10" d="m1492.734 1210.508 303.008-45.156" transform="matrix(.1 0 0 -.1 0 200)"/><path style="fill-rule:nonzero;fill:#cb817f;fill-opacity:1;stroke-width:7.36;stroke-linecap:round;stroke-linejoin:round;stroke:#000;stroke-opacity:1;stroke-miterlimit:10" d="m706.797 1796.172 137.812-211.68-325.82-228.36" transform="matrix(.1 0 0 -.1 0 200)"/><path style="fill-rule:nonzero;fill:#cb817f;fill-opacity:1;stroke-width:7.36;stroke-linecap:round;stroke-linejoin:round;stroke:#000;stroke-opacity:1;stroke-miterlimit:10" d="m518.79 1356.133-152.15 201.68 340.157 238.359" transform="matrix(.1 0 0 -.1 0 200)"/><path style="stroke:none;fill-rule:nonzero;fill:#dd9c8c;fill-opacity:1" d="m22.863 81.844 13.801-37.625L51.88 64.387"/><path style="fill:none;stroke-width:7.36;stroke-linecap:round;stroke-linejoin:round;stroke:#000;stroke-opacity:1;stroke-miterlimit:10" d="m228.633 1181.563 138.008 376.25 152.148-201.68Zm0 0" transform="matrix(.1 0 0 -.1 0 200)"/><path style="fill-rule:nonzero;fill:#d6a9a9;fill-opacity:1;stroke-width:7.36;stroke-linecap:round;stroke-linejoin:round;stroke:#000;stroke-opacity:1;stroke-miterlimit:10" d="m341.64 823.438-113.007 358.125 290.156 174.57" transform="matrix(.1 0 0 -.1 0 200)"/><path style="fill-rule:nonzero;fill:#ae5c6c;fill-opacity:1;stroke-width:7.36;stroke-linecap:round;stroke-linejoin:round;stroke:#000;stroke-opacity:1;stroke-miterlimit:10" d="M1101.406 1893.438 1224.141 1675l-379.532-90.508" transform="matrix(.1 0 0 -.1 0 200)"/><path style="fill-rule:nonzero;fill:#ae5c6c;fill-opacity:1;stroke-width:7.36;stroke-linecap:round;stroke-linejoin:round;stroke:#000;stroke-opacity:1;stroke-miterlimit:10" d="m844.61 1584.492-137.813 211.68 394.61 97.265" transform="matrix(.1 0 0 -.1 0 200)"/><path style="stroke:none;fill-rule:nonzero;fill:#9197d6;fill-opacity:1" d="m151.98 172.582-29.773-7.719 32.695-22.914"/><path style="fill:none;stroke-width:7.36;stroke-linecap:round;stroke-linejoin:round;stroke:#000;stroke-opacity:1;stroke-miterlimit:10" d="m1519.805 274.18-297.735 77.187 326.953 229.14Zm0 0" transform="matrix(.1 0 0 -.1 0 200)"/><path style="fill-rule:nonzero;fill:#92b0eb;fill-opacity:1;stroke-width:7.36;stroke-linecap:round;stroke-linejoin:round;stroke:#000;stroke-opacity:1;stroke-miterlimit:10" d="m1222.07 351.367 297.735-77.187-270.47-216.055" transform="matrix(.1 0 0 -.1 0 200)"/><path style="fill-rule:nonzero;fill:#92b0eb;fill-opacity:1;stroke-width:7.36;stroke-linecap:round;stroke-linejoin:round;stroke:#000;stroke-opacity:1;stroke-miterlimit:10" d="m1249.336 58.125-297.031 87.422 269.765 205.82" transform="matrix(.1 0 0 -.1 0 200)"/><path style="fill-rule:nonzero;fill:#8b75b4;fill-opacity:1;stroke-width:7.36;stroke-linecap:round;stroke-linejoin:round;stroke:#000;stroke-opacity:1;stroke-miterlimit:10" d="m1795.742 1165.352 38.711-401.68-285.43-183.164" transform="matrix(.1 0 0 -.1 0 200)"/><path style="fill-rule:nonzero;fill:#6a79cf;fill-opacity:1;stroke-width:7.36;stroke-linecap:round;stroke-linejoin:round;stroke:#000;stroke-opacity:1;stroke-miterlimit:10" d="m1519.805 274.18 29.218 306.328 285.43 183.164" transform="matrix(.1 0 0 -.1 0 200)"/><path style="fill-rule:nonzero;fill:#f7d3a7;fill-opacity:1;stroke-width:7.36;stroke-linecap:round;stroke-linejoin:round;stroke:#000;stroke-opacity:1;stroke-miterlimit:10" d="m341.64 823.438-73.71-299.22L96.875 697.345" transform="matrix(.1 0 0 -.1 0 200)"/><path style="stroke:none;fill-rule:nonzero;fill:#f7d3a7;fill-opacity:1" d="m22.863 81.844 11.301 35.812-24.477 12.61"/><path style="fill:none;stroke-width:7.36;stroke-linecap:round;stroke-linejoin:round;stroke:#000;stroke-opacity:1;stroke-miterlimit:10" d="M228.633 1181.563 341.64 823.437" transform="matrix(.1 0 0 -.1 0 200)"/><path style="fill-rule:nonzero;fill:#d6c6cb;fill-opacity:1;stroke-width:7.36;stroke-linecap:round;stroke-linejoin:round;stroke:#000;stroke-opacity:1;stroke-miterlimit:10" d="M588.047 319.023 267.93 524.22l73.71 299.218" transform="matrix(.1 0 0 -.1 0 200)"/><path style="fill-rule:nonzero;fill:#6f1748;fill-opacity:1;stroke-width:7.36;stroke-linecap:round;stroke-linejoin:round;stroke:#000;stroke-opacity:1;stroke-miterlimit:10" d="m1721.836 1626.719-131.797-110.586L1224.141 1675" transform="matrix(.1 0 0 -.1 0 200)"/><path style="stroke:none;fill-rule:nonzero;fill:#6f1748;fill-opacity:1" d="m141.113 12.863 31.07 24.465-49.769-4.828"/><path style="fill:none;stroke-width:7.36;stroke-linecap:round;stroke-linejoin:round;stroke:#000;stroke-opacity:1;stroke-miterlimit:10" d="m1411.133 1871.367 310.703-244.648" transform="matrix(.1 0 0 -.1 0 200)"/><path style="fill-rule:nonzero;fill:#6f1748;fill-opacity:1;stroke-width:7.36;stroke-linecap:round;stroke-linejoin:round;stroke:#000;stroke-opacity:1;stroke-miterlimit:10" d="m1224.14 1675-122.734 218.438 309.727-22.07" transform="matrix(.1 0 0 -.1 0 200)"/><path style="fill-rule:nonzero;fill:#4f1d71;fill-opacity:1;stroke-width:7.36;stroke-linecap:round;stroke-linejoin:round;stroke:#000;stroke-opacity:1;stroke-miterlimit:10" d="m1795.742 1165.352-205.703 350.78 131.797 110.587" transform="matrix(.1 0 0 -.1 0 200)"/><path style="fill-rule:nonzero;fill:#0054c8;fill-opacity:1;stroke-width:7.36;stroke-linecap:round;stroke-linejoin:round;stroke:#000;stroke-opacity:1;stroke-miterlimit:10" d="m1249.336 58.125 270.469 216.055 295.234 180.351M1738.164 354.102 1369.727 95.859l-120.391-37.734" transform="matrix(.1 0 0 -.1 0 200)"/><path style="stroke:none;fill-rule:nonzero;fill:#0054c8;fill-opacity:1" d="m181.504 154.547-7.688 10.043-48.882 29.597"/><path style="fill:none;stroke-width:7.36;stroke-linecap:round;stroke-linejoin:round;stroke:#000;stroke-opacity:1;stroke-miterlimit:10" d="m1815.04 454.531-76.876-100.43" transform="matrix(.1 0 0 -.1 0 200)"/><path style="stroke:none;fill-rule:nonzero;fill:#340000;fill-opacity:1" d="m58.805 168.098 36.425 17.347 41.743 4.97"/><path style="fill:none;stroke-width:7.36;stroke-linecap:round;stroke-linejoin:round;stroke:#000;stroke-opacity:1;stroke-miterlimit:10" d="m588.047 319.023 364.258-173.476" transform="matrix(.1 0 0 -.1 0 200)"/><path style="stroke:none;fill-rule:nonzero;fill:#340000;fill-opacity:1" d="m26.793 147.578 32.012 20.52 78.168 22.316"/><path style="fill:none;stroke-width:7.36;stroke-linecap:round;stroke-linejoin:round;stroke:#000;stroke-opacity:1;stroke-miterlimit:10" d="m267.93 524.219 320.117-205.196" transform="matrix(.1 0 0 -.1 0 200)"/><path style="fill-rule:nonzero;fill:#4f1d71;fill-opacity:1;stroke-width:7.36;stroke-linecap:round;stroke-linejoin:round;stroke:#000;stroke-opacity:1;stroke-miterlimit:10" d="m1721.836 1626.719 216.601-368.516-142.695-92.851" transform="matrix(.1 0 0 -.1 0 200)"/><path style="fill-rule:nonzero;fill:#322793;fill-opacity:1;stroke-width:7.36;stroke-linecap:round;stroke-linejoin:round;stroke:#000;stroke-opacity:1;stroke-miterlimit:10" d="m1834.453 763.672-38.71 401.68 142.695 92.851" transform="matrix(.1 0 0 -.1 0 200)"/><path style="fill-rule:nonzero;fill:#f4a05b;fill-opacity:1;stroke-width:7.36;stroke-linecap:round;stroke-linejoin:round;stroke:#000;stroke-opacity:1;stroke-miterlimit:10" d="m366.64 1557.813-138.007-376.25-155.625-58.711" transform="matrix(.1 0 0 -.1 0 200)"/><path style="fill-rule:nonzero;fill:#f7d3a7;fill-opacity:1;stroke-width:7.36;stroke-linecap:round;stroke-linejoin:round;stroke:#000;stroke-opacity:1;stroke-miterlimit:10" d="m96.875 697.344-23.867 425.508 155.625 58.71" transform="matrix(.1 0 0 -.1 0 200)"/><path style="fill-rule:nonzero;fill:#340000;fill-opacity:1;stroke-width:7.36;stroke-linecap:round;stroke-linejoin:round;stroke:#000;stroke-opacity:1;stroke-miterlimit:10" d="m952.305 145.547 297.03-87.422 120.392 37.734" transform="matrix(.1 0 0 -.1 0 200)"/><path style="fill-rule:nonzero;fill:#322793;fill-opacity:1;stroke-width:7.36;stroke-linecap:round;stroke-linejoin:round;stroke:#000;stroke-opacity:1;stroke-miterlimit:10" d="m1938.438 1258.203 42.148-421.601-146.133-72.93" transform="matrix(.1 0 0 -.1 0 200)"/><path style="stroke:none;fill-rule:nonzero;fill:#1a34af;fill-opacity:1" d="m181.504 154.547 1.941-30.914 14.614-7.293"/><path style="fill:none;stroke-width:7.36;stroke-linecap:round;stroke-linejoin:round;stroke:#000;stroke-opacity:1;stroke-miterlimit:10" d="m1815.04 454.531 19.413 309.14 146.133 72.93Zm0 0" transform="matrix(.1 0 0 -.1 0 200)"/><path style="fill-rule:nonzero;fill:#6a79cf;fill-opacity:1;stroke-width:7.36;stroke-linecap:round;stroke-linejoin:round;stroke:#000;stroke-opacity:1;stroke-miterlimit:10" d="m1834.453 763.672-19.414-309.14-295.234-180.352" transform="matrix(.1 0 0 -.1 0 200)"/><path style="fill-rule:nonzero;fill:#b02600;fill-opacity:1;stroke-width:7.36;stroke-linecap:round;stroke-linejoin:round;stroke:#000;stroke-opacity:1;stroke-miterlimit:10" d="m706.797 1796.172-340.156-238.36-150.547-39.804" transform="matrix(.1 0 0 -.1 0 200)"/><path style="fill-rule:nonzero;fill:#f4a05b;fill-opacity:1;stroke-width:7.36;stroke-linecap:round;stroke-linejoin:round;stroke:#000;stroke-opacity:1;stroke-miterlimit:10" d="m73.008 1122.852 143.086 395.156 150.547 39.804" transform="matrix(.1 0 0 -.1 0 200)"/><path style="stroke:none;fill-rule:nonzero;fill:#b02600;fill-opacity:1" d="M79.531 7.605 70.68 20.383 21.61 48.199"/><path style="fill:none;stroke-width:7.36;stroke-linecap:round;stroke-linejoin:round;stroke:#000;stroke-opacity:1;stroke-miterlimit:10" d="m795.313 1923.945-88.516-127.773" transform="matrix(.1 0 0 -.1 0 200)"/><path style="stroke:none;fill-rule:nonzero;fill:#9a1d0e;fill-opacity:1" d="M70.68 20.383 79.53 7.605l30.61 3.051"/><path style="fill:none;stroke-width:7.36;stroke-linecap:round;stroke-linejoin:round;stroke:#000;stroke-opacity:1;stroke-miterlimit:10" d="m706.797 1796.172 88.515 127.773 306.094-30.507Zm0 0" transform="matrix(.1 0 0 -.1 0 200)"/><path style="stroke:none;fill-rule:nonzero;fill:#340000;fill-opacity:1" d="m9.688 130.266 17.105 17.312 110.18 42.836"/><path style="fill:none;stroke-width:7.36;stroke-linecap:round;stroke-linejoin:round;stroke:#000;stroke-opacity:1;stroke-miterlimit:10" d="M96.875 697.344 267.93 524.219" transform="matrix(.1 0 0 -.1 0 200)"/><path style="fill-rule:nonzero;fill:#000;fill-opacity:1;stroke-width:7.36;stroke-linecap:round;stroke-linejoin:round;stroke:#000;stroke-opacity:1;stroke-miterlimit:10" d="m1105.352 1902.188 305.78-30.82-309.726 22.07M1101.406 1893.438l-306.093 30.507 310.039-21.757" transform="matrix(.1 0 0 -.1 0 200)"/><path style="fill-rule:nonzero;fill:#cd6d00;fill-opacity:1;stroke-width:7.36;stroke-linecap:round;stroke-linejoin:round;stroke:#000;stroke-opacity:1;stroke-miterlimit:10" d="m1911.64 755.586-173.476-401.484 76.875 100.43M1815.04 454.531l165.546 382.07-68.945-81.015" transform="matrix(.1 0 0 -.1 0 200)"/><path style="stroke:none;fill-rule:nonzero;fill:#000;fill-opacity:1" d="m193.844 74.18-21.66-36.852 11.96 15.524"/><path style="fill:none;stroke-width:7.36;stroke-linecap:round;stroke-linejoin:round;stroke:#000;stroke-opacity:1;stroke-miterlimit:10" d="m1938.438 1258.203-216.602 368.516 119.61-155.235Zm0 0" transform="matrix(.1 0 0 -.1 0 200)"/><path style="fill-rule:nonzero;fill:#b0f8c2;fill-opacity:1;stroke-width:7.36;stroke-linecap:round;stroke-linejoin:round;stroke:#000;stroke-opacity:1;stroke-miterlimit:10" d="m1517.578 1725.04 323.867-253.556-119.61 155.235" transform="matrix(.1 0 0 -.1 0 200)"/><path style="fill-rule:nonzero;fill:#b0f8c2;fill-opacity:1;stroke-width:7.36;stroke-linecap:round;stroke-linejoin:round;stroke:#000;stroke-opacity:1;stroke-miterlimit:10" d="m1721.836 1626.719-310.703 244.648 106.445-146.328" transform="matrix(.1 0 0 -.1 0 200)"/><path style="fill-rule:nonzero;fill:#fbdc7d;fill-opacity:1;stroke-width:7.36;stroke-linecap:round;stroke-linejoin:round;stroke:#000;stroke-opacity:1;stroke-miterlimit:10" d="m1980.586 836.602-42.149 421.601-96.992 213.281" transform="matrix(.1 0 0 -.1 0 200)"/><path style="stroke:none;fill-rule:nonzero;fill:#00005f;fill-opacity:1" d="m13.059 78.098 8.55-29.899L7.301 87.715"/><path style="fill:none;stroke-width:7.36;stroke-linecap:round;stroke-linejoin:round;stroke:#000;stroke-opacity:1;stroke-miterlimit:10" d="m130.586 1219.023 85.508 298.985-143.086-395.156Zm0 0" transform="matrix(.1 0 0 -.1 0 200)"/><path style="fill-rule:nonzero;fill:#000053;fill-opacity:1;stroke-width:7.36;stroke-linecap:round;stroke-linejoin:round;stroke:#000;stroke-opacity:1;stroke-miterlimit:10" d="m73.008 1122.852 23.867-425.508 59.414 73.75" transform="matrix(.1 0 0 -.1 0 200)"/><path style="fill-rule:nonzero;fill:#000053;fill-opacity:1;stroke-width:7.36;stroke-linecap:round;stroke-linejoin:round;stroke:#000;stroke-opacity:1;stroke-miterlimit:10" d="m156.29 771.094-25.704 447.93-57.578-96.172" transform="matrix(.1 0 0 -.1 0 200)"/><path style="fill-rule:nonzero;fill:#fbdc7d;fill-opacity:1;stroke-width:7.36;stroke-linecap:round;stroke-linejoin:round;stroke:#000;stroke-opacity:1;stroke-miterlimit:10" d="m1820.469 1162.188 91.172-406.602 68.945 81.016" transform="matrix(.1 0 0 -.1 0 200)"/><path style="stroke:none;fill-rule:nonzero;fill:#fbdc7d;fill-opacity:1" d="m184.145 52.852-2.098 30.93 16.012 32.558"/><path style="fill:none;stroke-width:7.36;stroke-linecap:round;stroke-linejoin:round;stroke:#000;stroke-opacity:1;stroke-miterlimit:10" d="m1841.445 1471.484-20.976-309.296" transform="matrix(.1 0 0 -.1 0 200)"/><path style="stroke:none;fill-rule:nonzero;fill:#340000;fill-opacity:1" d="m15.629 122.89-5.941 7.376 127.285 60.148"/><path style="fill:none;stroke-width:7.36;stroke-linecap:round;stroke-linejoin:round;stroke:#000;stroke-opacity:1;stroke-miterlimit:10" d="m156.29 771.094-59.415-73.75" transform="matrix(.1 0 0 -.1 0 200)"/><path style="stroke:none;fill-rule:nonzero;fill:#abeff7;fill-opacity:1" d="m141.113 12.863-30.578-3.082 41.223 17.715"/><path style="fill:none;stroke-width:7.36;stroke-linecap:round;stroke-linejoin:round;stroke:#000;stroke-opacity:1;stroke-miterlimit:10" d="m1411.133 1871.367-305.781 30.82 412.226-177.148Zm0 0" transform="matrix(.1 0 0 -.1 0 200)"/><path style="fill-rule:nonzero;fill:#b02600;fill-opacity:1;stroke-width:7.36;stroke-linecap:round;stroke-linejoin:round;stroke:#000;stroke-opacity:1;stroke-miterlimit:10" d="m216.094 1518.008 268.75 232.5 310.469 173.437" transform="matrix(.1 0 0 -.1 0 200)"/><path style="fill-rule:nonzero;fill:#325ece;fill-opacity:1;stroke-width:7.36;stroke-linecap:round;stroke-linejoin:round;stroke:#000;stroke-opacity:1;stroke-miterlimit:10" d="m216.094 1518.008-85.508-298.985L407.5 1450.781" transform="matrix(.1 0 0 -.1 0 200)"/><path style="fill-rule:nonzero;fill:#325ece;fill-opacity:1;stroke-width:7.36;stroke-linecap:round;stroke-linejoin:round;stroke:#000;stroke-opacity:1;stroke-miterlimit:10" d="m407.5 1450.781 77.344 299.727-268.75-232.5" transform="matrix(.1 0 0 -.1 0 200)"/><path style="fill-rule:nonzero;fill:#70b3fa;fill-opacity:1;stroke-width:7.36;stroke-linecap:round;stroke-linejoin:round;stroke:#000;stroke-opacity:1;stroke-miterlimit:10" d="m1105.352 1902.188-310.04 21.757-310.468-173.437" transform="matrix(.1 0 0 -.1 0 200)"/><path style="fill-rule:nonzero;fill:#e0d9d0;fill-opacity:1;stroke-width:7.36;stroke-linecap:round;stroke-linejoin:round;stroke:#000;stroke-opacity:1;stroke-miterlimit:10" d="m1482.422 1418.906 338.047-256.718 20.976 309.296M1841.445 1471.484l-323.867 253.555-35.156-306.133" transform="matrix(.1 0 0 -.1 0 200)"/><path style="stroke:none;fill-rule:nonzero;fill:#340000;fill-opacity:1" d="m45.582 130.05-29.953-7.16 121.344 67.524"/><path style="fill:none;stroke-width:7.36;stroke-linecap:round;stroke-linejoin:round;stroke:#000;stroke-opacity:1;stroke-miterlimit:10" d="m455.82 699.492-299.53 71.602" transform="matrix(.1 0 0 -.1 0 200)"/><path style="stroke:none;fill-rule:nonzero;fill:#340000;fill-opacity:1" d="m88.297 150.05-42.715-20 91.39 60.364"/><path style="fill:none;stroke-width:7.36;stroke-linecap:round;stroke-linejoin:round;stroke:#000;stroke-opacity:1;stroke-miterlimit:10" d="m882.969 499.492-427.149 200" transform="matrix(.1 0 0 -.1 0 200)"/><path style="fill-rule:nonzero;fill:#340000;fill-opacity:1;stroke-width:7.36;stroke-linecap:round;stroke-linejoin:round;stroke:#000;stroke-opacity:1;stroke-miterlimit:10" d="M1369.727 95.86 1239.18 262.304 882.969 499.492" transform="matrix(.1 0 0 -.1 0 200)"/><path style="fill-rule:nonzero;fill:#cf7461;fill-opacity:1;stroke-width:7.36;stroke-linecap:round;stroke-linejoin:round;stroke:#000;stroke-opacity:1;stroke-miterlimit:10" d="m1239.18 262.305 130.547-166.446 368.437 258.243" transform="matrix(.1 0 0 -.1 0 200)"/><path style="fill-rule:nonzero;fill:#cf7461;fill-opacity:1;stroke-width:7.36;stroke-linecap:round;stroke-linejoin:round;stroke:#000;stroke-opacity:1;stroke-miterlimit:10" d="m1738.164 354.102-112.11 179.296-386.874-271.093" transform="matrix(.1 0 0 -.1 0 200)"/><path style="stroke:none;fill-rule:nonzero;fill:#e99a71;fill-opacity:1" d="m173.816 164.59 17.348-40.149-28.559 22.22"/><path style="fill:none;stroke-width:7.36;stroke-linecap:round;stroke-linejoin:round;stroke:#000;stroke-opacity:1;stroke-miterlimit:10" d="m1738.164 354.102 173.477 401.484-285.586-222.188Zm0 0" transform="matrix(.1 0 0 -.1 0 200)"/><path style="stroke:none;fill-rule:nonzero;fill:#7d95e0;fill-opacity:1" d="m79.281 27.918-30.797-2.969-7.734 29.973"/><path style="fill:none;stroke-width:7.36;stroke-linecap:round;stroke-linejoin:round;stroke:#000;stroke-opacity:1;stroke-miterlimit:10" d="m792.813 1720.82-307.97 29.688L407.5 1450.78Zm0 0" transform="matrix(.1 0 0 -.1 0 200)"/><path style="fill-rule:nonzero;fill:#70b3fa;fill-opacity:1;stroke-width:7.36;stroke-linecap:round;stroke-linejoin:round;stroke:#000;stroke-opacity:1;stroke-miterlimit:10" d="m484.844 1750.508 307.969-29.688 312.539 181.368" transform="matrix(.1 0 0 -.1 0 200)"/><path style="stroke:none;fill-rule:nonzero;fill:#7b69b3;fill-opacity:1" d="m13.059 78.098 2.57 44.793 46.453-36.137"/><path style="fill:none;stroke-width:7.36;stroke-linecap:round;stroke-linejoin:round;stroke:#000;stroke-opacity:1;stroke-miterlimit:10" d="m130.586 1219.023 25.703-447.93" transform="matrix(.1 0 0 -.1 0 200)"/><path style="fill-rule:nonzero;fill:#7b69b3;fill-opacity:1;stroke-width:7.36;stroke-linecap:round;stroke-linejoin:round;stroke:#000;stroke-opacity:1;stroke-miterlimit:10" d="M620.82 1132.46 407.5 1450.782l-276.914-231.758" transform="matrix(.1 0 0 -.1 0 200)"/><path style="fill-rule:nonzero;fill:#b9bfde;fill-opacity:1;stroke-width:7.36;stroke-linecap:round;stroke-linejoin:round;stroke:#000;stroke-opacity:1;stroke-miterlimit:10" d="m1517.578 1725.04-412.226 177.148-312.54-181.368" transform="matrix(.1 0 0 -.1 0 200)"/><path style="fill-rule:nonzero;fill:#e1afa3;fill-opacity:1;stroke-width:7.36;stroke-linecap:round;stroke-linejoin:round;stroke:#000;stroke-opacity:1;stroke-miterlimit:10" d="m1524.531 949.063 101.524-415.665 285.586 222.188" transform="matrix(.1 0 0 -.1 0 200)"/><path style="fill-rule:nonzero;fill:#e1afa3;fill-opacity:1;stroke-width:7.36;stroke-linecap:round;stroke-linejoin:round;stroke:#000;stroke-opacity:1;stroke-miterlimit:10" d="m1911.64 755.586-91.171 406.601-295.938-213.124" transform="matrix(.1 0 0 -.1 0 200)"/><path style="fill-rule:nonzero;fill:#7b69b3;fill-opacity:1;stroke-width:7.36;stroke-linecap:round;stroke-linejoin:round;stroke:#000;stroke-opacity:1;stroke-miterlimit:10" d="m156.29 771.094 299.53-71.602 165 432.969" transform="matrix(.1 0 0 -.1 0 200)"/><path style="fill-rule:nonzero;fill:#b9bfde;fill-opacity:1;stroke-width:7.36;stroke-linecap:round;stroke-linejoin:round;stroke:#000;stroke-opacity:1;stroke-miterlimit:10" d="m1018.984 1411.484 463.438 7.422 35.156 306.133" transform="matrix(.1 0 0 -.1 0 200)"/><path style="stroke:none;fill-rule:nonzero;fill:#b9bfde;fill-opacity:1" d="m79.281 27.918 22.617 30.934 49.86-31.356"/><path style="fill:none;stroke-width:7.36;stroke-linecap:round;stroke-linejoin:round;stroke:#000;stroke-opacity:1;stroke-miterlimit:10" d="m792.813 1720.82 226.171-309.336" transform="matrix(.1 0 0 -.1 0 200)"/><path style="stroke:none;fill-rule:nonzero;fill:#d5b8bc;fill-opacity:1" d="M182.047 83.781 148.242 58.11l4.211 46.985"/><path style="fill:none;stroke-width:7.36;stroke-linecap:round;stroke-linejoin:round;stroke:#000;stroke-opacity:1;stroke-miterlimit:10" d="m1820.469 1162.188-338.047 256.718 42.11-469.843Zm0 0" transform="matrix(.1 0 0 -.1 0 200)"/><path style="fill-rule:nonzero;fill:#9e97cd;fill-opacity:1;stroke-width:7.36;stroke-linecap:round;stroke-linejoin:round;stroke:#000;stroke-opacity:1;stroke-miterlimit:10" d="m407.5 1450.781 213.32-318.32 398.164 279.023M1018.984 1411.484 792.812 1720.82 407.5 1450.781" transform="matrix(.1 0 0 -.1 0 200)"/><path style="fill-rule:nonzero;fill:#c18d9f;fill-opacity:1;stroke-width:7.36;stroke-linecap:round;stroke-linejoin:round;stroke:#000;stroke-opacity:1;stroke-miterlimit:10" d="m882.969 499.492 356.21-237.187 386.876 271.093" transform="matrix(.1 0 0 -.1 0 200)"/><path style="stroke:none;fill-rule:nonzero;fill:#c18d9f;fill-opacity:1" d="m105.652 106.574-17.355 43.477 74.308-3.39"/><path style="fill:none;stroke-width:7.36;stroke-linecap:round;stroke-linejoin:round;stroke:#000;stroke-opacity:1;stroke-miterlimit:10" d="M1056.523 934.258 882.97 499.492" transform="matrix(.1 0 0 -.1 0 200)"/><path style="fill-rule:nonzero;fill:#c18d9f;fill-opacity:1;stroke-width:7.36;stroke-linecap:round;stroke-linejoin:round;stroke:#000;stroke-opacity:1;stroke-miterlimit:10" d="M1626.055 533.398 1524.53 949.062l-468.008-14.804" transform="matrix(.1 0 0 -.1 0 200)"/><path style="fill-rule:nonzero;fill:#a580ab;fill-opacity:1;stroke-width:7.36;stroke-linecap:round;stroke-linejoin:round;stroke:#000;stroke-opacity:1;stroke-miterlimit:10" d="m455.82 699.492 427.149-200 173.554 434.766" transform="matrix(.1 0 0 -.1 0 200)"/><path style="fill-rule:nonzero;fill:#a580ab;fill-opacity:1;stroke-width:7.36;stroke-linecap:round;stroke-linejoin:round;stroke:#000;stroke-opacity:1;stroke-miterlimit:10" d="M1056.523 934.258 620.82 1132.46l-165-432.969" transform="matrix(.1 0 0 -.1 0 200)"/><path style="fill-rule:nonzero;fill:#c1a6be;fill-opacity:1;stroke-width:7.36;stroke-linecap:round;stroke-linejoin:round;stroke:#000;stroke-opacity:1;stroke-miterlimit:10" d="m1524.531 949.063-42.11 469.843-463.437-7.422M1018.984 1411.484l37.54-477.226 468.007 14.804" transform="matrix(.1 0 0 -.1 0 200)"/><path style="stroke:none;fill-rule:nonzero;fill:#ae95bd;fill-opacity:1" d="m105.652 106.574-3.754-47.722-39.816 27.902"/><path style="fill:none;stroke-width:7.36;stroke-linecap:round;stroke-linejoin:round;stroke:#000;stroke-opacity:1;stroke-miterlimit:10" d="m1056.523 934.258-37.539 477.226-398.164-279.023Zm0 0" transform="matrix(.1 0 0 -.1 0 200)"/></svg>