<svg xmlns="http://www.w3.org/2000/svg" width="208" height="228" viewBox="0 0 156 171" version="1.2"><path style="fill-rule:nonzero;fill:#8b6ba8;fill-opacity:1;stroke-width:5.64;stroke-linecap:round;stroke-linejoin:round;stroke:#000;stroke-opacity:1;stroke-miterlimit:10" d="M1195.703 534.57 945.586 942.89l144.336 419.102" transform="matrix(.1 0 0 -.1 0 171)"/><path style="fill-rule:nonzero;fill:#b5a1c4;fill-opacity:1;stroke-width:5.64;stroke-linecap:round;stroke-linejoin:round;stroke:#000;stroke-opacity:1;stroke-miterlimit:10" d="m448.242 870.82 497.344 72.07 250.117-408.32" transform="matrix(.1 0 0 -.1 0 171)"/><path style="fill-rule:nonzero;fill:#ba849b;fill-opacity:1;stroke-width:5.64;stroke-linecap:round;stroke-linejoin:round;stroke:#000;stroke-opacity:1;stroke-miterlimit:10" d="m661.133 1564.727 428.789-202.735-144.336-419.101" transform="matrix(.1 0 0 -.1 0 171)"/><path style="stroke:none;fill-rule:nonzero;fill:#ba849b;fill-opacity:1" d="m25.61 46.379 40.503-31.852L94.56 76.711"/><path style="fill:none;stroke-width:5.64;stroke-linecap:round;stroke-linejoin:round;stroke:#000;stroke-opacity:1;stroke-miterlimit:10" d="m256.094 1246.21 405.039 318.517" transform="matrix(.1 0 0 -.1 0 171)"/><path style="fill-rule:nonzero;fill:#ba849b;fill-opacity:1;stroke-width:5.64;stroke-linecap:round;stroke-linejoin:round;stroke:#000;stroke-opacity:1;stroke-miterlimit:10" d="m945.586 942.89-497.344-72.07-192.148 375.39" transform="matrix(.1 0 0 -.1 0 171)"/><path style="fill-rule:nonzero;fill:#b5a1c4;fill-opacity:1;stroke-width:5.64;stroke-linecap:round;stroke-linejoin:round;stroke:#000;stroke-opacity:1;stroke-miterlimit:10" d="M843.398 192.813 371.953 409.53l76.29 461.29" transform="matrix(.1 0 0 -.1 0 171)"/><path style="stroke:none;fill-rule:nonzero;fill:#b5a1c4;fill-opacity:1" d="m119.57 117.543-35.23 34.176-39.516-67.801"/><path style="fill:none;stroke-width:5.64;stroke-linecap:round;stroke-linejoin:round;stroke:#000;stroke-opacity:1;stroke-miterlimit:10" d="M1195.703 534.57 843.398 192.812" transform="matrix(.1 0 0 -.1 0 171)"/><path style="fill-rule:nonzero;fill:#e7c1af;fill-opacity:1;stroke-width:5.64;stroke-linecap:round;stroke-linejoin:round;stroke:#000;stroke-opacity:1;stroke-miterlimit:10" d="m256.094 1246.21 192.148-375.39-76.289-461.289" transform="matrix(.1 0 0 -.1 0 171)"/><path style="fill-rule:nonzero;fill:#417ee4;fill-opacity:1;stroke-width:5.64;stroke-linecap:round;stroke-linejoin:round;stroke:#000;stroke-opacity:1;stroke-miterlimit:10" d="m843.398 192.813 352.305 341.757 324.414 150.313" transform="matrix(.1 0 0 -.1 0 171)"/><path style="stroke:none;fill-rule:nonzero;fill:#8b6ba8;fill-opacity:1" d="m152.012 102.512-32.442 15.031-10.578-82.742"/><path style="fill:none;stroke-width:5.64;stroke-linecap:round;stroke-linejoin:round;stroke:#000;stroke-opacity:1;stroke-miterlimit:10" d="M1520.117 684.883 1195.703 534.57" transform="matrix(.1 0 0 -.1 0 171)"/><path style="stroke:none;fill-rule:nonzero;fill:#7b4685;fill-opacity:1" d="m115.492 3.64 29.903 45.31-36.403-14.15"/><path style="fill:none;stroke-width:5.64;stroke-linecap:round;stroke-linejoin:round;stroke:#000;stroke-opacity:1;stroke-miterlimit:10" d="m1154.922 1673.594 299.023-453.086-364.023 141.484Zm0 0" transform="matrix(.1 0 0 -.1 0 171)"/><path style="stroke:none;fill-rule:nonzero;fill:#aa647f;fill-opacity:1" d="m115.492 3.64-6.5 31.16-42.879-20.273"/><path style="fill:none;stroke-width:5.64;stroke-linecap:round;stroke-linejoin:round;stroke:#000;stroke-opacity:1;stroke-miterlimit:10" d="m1154.922 1673.594-65-311.602-428.79 202.735Zm0 0" transform="matrix(.1 0 0 -.1 0 171)"/><path style="fill-rule:nonzero;fill:#8b6ba8;fill-opacity:1;stroke-width:5.64;stroke-linecap:round;stroke-linejoin:round;stroke:#000;stroke-opacity:1;stroke-miterlimit:10" d="m1089.922 1361.992 364.023-141.484 66.172-535.625" transform="matrix(.1 0 0 -.1 0 171)"/><path style="stroke:none;fill-rule:nonzero;fill:#e6ddcc;fill-opacity:1" d="m42.68 167.965-31.055-44.367 25.57 6.449"/><path style="fill:none;stroke-width:5.64;stroke-linecap:round;stroke-linejoin:round;stroke:#000;stroke-opacity:1;stroke-miterlimit:10" d="M426.797 30.352 116.25 474.023l255.703-64.492Zm0 0" transform="matrix(.1 0 0 -.1 0 171)"/><path style="stroke:none;fill-rule:nonzero;fill:#bbb7d4;fill-opacity:1" d="m42.68 167.965-5.485-37.918 47.145 21.672"/><path style="fill:none;stroke-width:5.64;stroke-linecap:round;stroke-linejoin:round;stroke:#000;stroke-opacity:1;stroke-miterlimit:10" d="m426.797 30.352-54.844 379.18 471.445-216.72Zm0 0" transform="matrix(.1 0 0 -.1 0 171)"/><path style="stroke:none;fill-rule:nonzero;fill:#e7c1af;fill-opacity:1" d="M3.898 69.02 25.61 46.379l11.586 83.668"/><path style="fill:none;stroke-width:5.64;stroke-linecap:round;stroke-linejoin:round;stroke:#000;stroke-opacity:1;stroke-miterlimit:10" d="m38.984 1019.805 217.11 226.406" transform="matrix(.1 0 0 -.1 0 171)"/><path style="fill-rule:nonzero;fill:#e7c1af;fill-opacity:1;stroke-width:5.64;stroke-linecap:round;stroke-linejoin:round;stroke:#000;stroke-opacity:1;stroke-miterlimit:10" d="M371.953 409.531 116.25 474.023l-77.266 545.782" transform="matrix(.1 0 0 -.1 0 171)"/><path style="stroke:none;fill-rule:nonzero;fill:#67b6fc;fill-opacity:1" d="m42.68 167.965 41.66-16.246 8.16 9.144"/><path style="fill:none;stroke-width:5.64;stroke-linecap:round;stroke-linejoin:round;stroke:#000;stroke-opacity:1;stroke-miterlimit:10" d="m426.797 30.352 416.601 162.46L925 101.368Zm0 0" transform="matrix(.1 0 0 -.1 0 171)"/><path style="stroke:none;fill-rule:nonzero;fill:#417ee4;fill-opacity:1" d="m92.5 160.863-8.16-9.144 67.672-49.207"/><path style="fill:none;stroke-width:5.64;stroke-linecap:round;stroke-linejoin:round;stroke:#000;stroke-opacity:1;stroke-miterlimit:10" d="m925 101.367-81.602 91.445" transform="matrix(.1 0 0 -.1 0 171)"/><path style="fill-rule:nonzero;fill:#004ec8;fill-opacity:1;stroke-width:5.64;stroke-linecap:round;stroke-linejoin:round;stroke:#000;stroke-opacity:1;stroke-miterlimit:10" d="m661.133 1564.727-405.04-318.516-217.109-226.406" transform="matrix(.1 0 0 -.1 0 171)"/><path style="stroke:none;fill-rule:nonzero;fill:#0084cb;fill-opacity:1" d="M115.492 3.64 66.113 14.528l7.094.145"/><path style="fill:none;stroke-width:5.64;stroke-linecap:round;stroke-linejoin:round;stroke:#000;stroke-opacity:1;stroke-miterlimit:10" d="m1154.922 1673.594-493.79-108.867 70.938-1.446Zm0 0" transform="matrix(.1 0 0 -.1 0 171)"/><path style="stroke:none;fill-rule:nonzero;fill:#004ec8;fill-opacity:1" d="m73.207 14.672-7.094-.145L3.898 69.02"/><path style="fill:none;stroke-width:5.64;stroke-linecap:round;stroke-linejoin:round;stroke:#000;stroke-opacity:1;stroke-miterlimit:10" d="m732.07 1563.281-70.937 1.446" transform="matrix(.1 0 0 -.1 0 171)"/><path style="fill-rule:nonzero;fill:#417ee4;fill-opacity:1;stroke-width:5.64;stroke-linecap:round;stroke-linejoin:round;stroke:#000;stroke-opacity:1;stroke-miterlimit:10" d="m1520.117 684.883-152.031-263.906L925 101.367" transform="matrix(.1 0 0 -.1 0 171)"/><path style="fill-rule:nonzero;fill:#f3cca7;fill-opacity:1;stroke-width:5.64;stroke-linecap:round;stroke-linejoin:round;stroke:#000;stroke-opacity:1;stroke-miterlimit:10" d="m1520.117 684.883-66.172 535.625-201.21 117.031" transform="matrix(.1 0 0 -.1 0 171)"/><path style="stroke:none;fill-rule:nonzero;fill:#f3cca7;fill-opacity:1" d="m136.809 128.902 15.203-26.39-26.739-65.266"/><path style="fill:none;stroke-width:5.64;stroke-linecap:round;stroke-linejoin:round;stroke:#000;stroke-opacity:1;stroke-miterlimit:10" d="m1368.086 420.977 152.031 263.906" transform="matrix(.1 0 0 -.1 0 171)"/><path style="stroke:none;fill-rule:nonzero;fill:#edf5c5;fill-opacity:1" d="M145.395 48.95 115.492 3.64l9.781 33.606"/><path style="fill:none;stroke-width:5.64;stroke-linecap:round;stroke-linejoin:round;stroke:#000;stroke-opacity:1;stroke-miterlimit:10" d="m1453.945 1220.508-299.023 453.086 97.812-336.055Zm0 0" transform="matrix(.1 0 0 -.1 0 171)"/><path style="stroke:none;fill-rule:nonzero;fill:#5d216b;fill-opacity:1" d="m11.625 123.598 31.055 44.367 2.972-25.035"/><path style="fill:none;stroke-width:5.64;stroke-linecap:round;stroke-linejoin:round;stroke:#000;stroke-opacity:1;stroke-miterlimit:10" d="M116.25 474.023 426.797 30.352l29.726 250.351Zm0 0" transform="matrix(.1 0 0 -.1 0 171)"/><path style="stroke:none;fill-rule:nonzero;fill:#a3526a;fill-opacity:1" d="m42.68 167.965 49.82-7.102-46.848-17.933"/><path style="fill:none;stroke-width:5.64;stroke-linecap:round;stroke-linejoin:round;stroke:#000;stroke-opacity:1;stroke-miterlimit:10" d="M426.797 30.352 925 101.367 456.523 280.703Zm0 0" transform="matrix(.1 0 0 -.1 0 171)"/><path style="stroke:none;fill-rule:nonzero;fill:#bcc0dc;fill-opacity:1" d="M115.492 3.64 73.207 14.673l52.066 22.574"/><path style="fill:none;stroke-width:5.64;stroke-linecap:round;stroke-linejoin:round;stroke:#000;stroke-opacity:1;stroke-miterlimit:10" d="M1154.922 1673.594 732.07 1563.28l520.664-225.742Zm0 0" transform="matrix(.1 0 0 -.1 0 171)"/><path style="fill-rule:nonzero;fill:#8060a4;fill-opacity:1;stroke-width:5.64;stroke-linecap:round;stroke-linejoin:round;stroke:#000;stroke-opacity:1;stroke-miterlimit:10" d="m38.984 1019.805 77.266-545.782 340.273-193.32" transform="matrix(.1 0 0 -.1 0 171)"/><path style="stroke:none;fill-rule:nonzero;fill:#8060a4;fill-opacity:1" d="M32.883 50.145 3.898 69.02l41.754 73.91"/><path style="fill:none;stroke-width:5.64;stroke-linecap:round;stroke-linejoin:round;stroke:#000;stroke-opacity:1;stroke-miterlimit:10" d="m328.828 1208.555-289.844-188.75" transform="matrix(.1 0 0 -.1 0 171)"/><path style="fill-rule:nonzero;fill:#004ec8;fill-opacity:1;stroke-width:5.64;stroke-linecap:round;stroke-linejoin:round;stroke:#000;stroke-opacity:1;stroke-miterlimit:10" d="m38.984 1019.805 289.844 188.75L732.07 1563.28" transform="matrix(.1 0 0 -.1 0 171)"/><path style="stroke:none;fill-rule:nonzero;fill:#bb8195;fill-opacity:1" d="m92.5 160.863 44.309-31.96L60.44 97.077"/><path style="fill:none;stroke-width:5.64;stroke-linecap:round;stroke-linejoin:round;stroke:#000;stroke-opacity:1;stroke-miterlimit:10" d="m925 101.367 443.086 319.61" transform="matrix(.1 0 0 -.1 0 171)"/><path style="fill-rule:nonzero;fill:#bb8195;fill-opacity:1;stroke-width:5.64;stroke-linecap:round;stroke-linejoin:round;stroke:#000;stroke-opacity:1;stroke-miterlimit:10" d="m604.414 739.219-147.89-458.516L925 101.367" transform="matrix(.1 0 0 -.1 0 171)"/><path style="fill-rule:nonzero;fill:#f3cca7;fill-opacity:1;stroke-width:5.64;stroke-linecap:round;stroke-linejoin:round;stroke:#000;stroke-opacity:1;stroke-miterlimit:10" d="m1252.734 1337.54-61.718-511.954 177.07-404.61" transform="matrix(.1 0 0 -.1 0 171)"/><path style="fill-rule:nonzero;fill:#bb8195;fill-opacity:1;stroke-width:5.64;stroke-linecap:round;stroke-linejoin:round;stroke:#000;stroke-opacity:1;stroke-miterlimit:10" d="m1368.086 420.977-177.07 404.609-586.602-86.367" transform="matrix(.1 0 0 -.1 0 171)"/><path style="stroke:none;fill-rule:nonzero;fill:#b5a3c6;fill-opacity:1" d="M73.207 14.672 32.883 50.145l86.219 38.296"/><path style="fill:none;stroke-width:5.64;stroke-linecap:round;stroke-linejoin:round;stroke:#000;stroke-opacity:1;stroke-miterlimit:10" d="m732.07 1563.281-403.242-354.726" transform="matrix(.1 0 0 -.1 0 171)"/><path style="fill-rule:nonzero;fill:#b5a3c6;fill-opacity:1;stroke-width:5.64;stroke-linecap:round;stroke-linejoin:round;stroke:#000;stroke-opacity:1;stroke-miterlimit:10" d="m1191.016 825.586 61.718 511.953-520.664 225.742" transform="matrix(.1 0 0 -.1 0 171)"/><path style="fill-rule:nonzero;fill:#8060a4;fill-opacity:1;stroke-width:5.64;stroke-linecap:round;stroke-linejoin:round;stroke:#000;stroke-opacity:1;stroke-miterlimit:10" d="M456.523 280.703 604.414 739.22l-275.586 469.336" transform="matrix(.1 0 0 -.1 0 171)"/><path style="fill-rule:nonzero;fill:#b5a3c6;fill-opacity:1;stroke-width:5.64;stroke-linecap:round;stroke-linejoin:round;stroke:#000;stroke-opacity:1;stroke-miterlimit:10" d="m328.828 1208.555 275.586-469.336 586.602 86.367" transform="matrix(.1 0 0 -.1 0 171)"/></svg>