<svg xmlns="http://www.w3.org/2000/svg" width="310.4pt" height="136pt" viewBox="0 0 310.4 136" version="1.2"><defs><clipPath id="a"><path d="M99 .133h103V56H99Zm0 0"/></clipPath><clipPath id="b"><path d="M107 .133h107V56H107Zm0 0"/></clipPath><clipPath id="c"><path d="M27 .133h96V45H27Zm0 0"/></clipPath><clipPath id="d"><path d="M198 5h111.8v88H198Zm0 0"/></clipPath><clipPath id="e"><path d="M216 57h93.8v70H216Zm0 0"/></clipPath><clipPath id="f"><path d="M27 .133h96V44H27Zm0 0"/></clipPath><clipPath id="g"><path d="M198 5h111.8v88H198Zm0 0"/></clipPath><clipPath id="h"><path d="M107 .133h107V21H107Zm0 0"/></clipPath><clipPath id="i"><path d="M78 .133h98V37H78Zm0 0"/></clipPath><clipPath id="j"><path d="M194 77h115.8v58.867H194Zm0 0"/></clipPath><clipPath id="k"><path d="M95 110h137v25.867H95Zm0 0"/></clipPath><clipPath id="l"><path d="M194 77h115.8v58.867H194Zm0 0"/></clipPath><clipPath id="m"><path d="M235 22h74.8v85H235Zm0 0"/></clipPath><clipPath id="n"><path d="M95 92h130v43.867H95Zm0 0"/></clipPath><clipPath id="o"><path d="M194 91h106v44.867H194Zm0 0"/></clipPath></defs><path style="stroke:none;fill-rule:evenodd;fill:#a0655f;fill-opacity:1" d="M194.04 47.824 107.706 36.75l7.23-35.398"/><g clip-path="url(#a)"><path style="fill:none;stroke-width:13.711;stroke-linecap:butt;stroke-linejoin:miter;stroke:#000;stroke-opacity:1;stroke-miterlimit:4" d="m1944.141 882.148-864.989 110.956 72.445 354.669" transform="matrix(.0998 0 0 -.0998 0 135.869)"/></g><path style="stroke:none;fill-rule:evenodd;fill:#a0655f;fill-opacity:1" d="m114.938 1.352 91.218 11.882-12.117 34.59"/><g clip-path="url(#b)"><path style="fill:none;stroke-width:13.711;stroke-linecap:butt;stroke-linejoin:miter;stroke:#000;stroke-opacity:1;stroke-miterlimit:4" d="m1151.597 1347.773 913.95-119.058-121.406-346.567" transform="matrix(.0998 0 0 -.0998 0 135.869)"/></g><path style="stroke:none;fill-rule:evenodd;fill:#875c63;fill-opacity:1" d="m206.156 13.234 63.164 52.348-75.28-17.758 12.116-34.59"/><path style="fill:none;stroke-width:13.711;stroke-linecap:butt;stroke-linejoin:miter;stroke:#000;stroke-opacity:1;stroke-miterlimit:4" d="m2065.547 1228.715 632.862-524.489-754.268 177.922Zm0 0" transform="matrix(.0998 0 0 -.0998 0 135.869)"/><path style="fill-rule:evenodd;fill:#ababce;fill-opacity:1;stroke-width:13.711;stroke-linecap:butt;stroke-linejoin:miter;stroke:#000;stroke-opacity:1;stroke-miterlimit:4" d="m1944.141 882.148 754.268-177.922-455.958-532.59" transform="matrix(.0998 0 0 -.0998 0 135.869)"/><path style="fill-rule:evenodd;fill:#ababce;fill-opacity:1;stroke-width:13.711;stroke-linecap:butt;stroke-linejoin:miter;stroke:#000;stroke-opacity:1;stroke-miterlimit:4" d="m2242.451 171.636-768.748 201.209 470.438 509.303" transform="matrix(.0998 0 0 -.0998 0 135.869)"/><path style="stroke:none;fill-rule:evenodd;fill:#c1b8cc;fill-opacity:1" d="M147.086 98.656 107.707 36.75l86.332 11.074-46.953 50.832"/><path style="fill:none;stroke-width:13.711;stroke-linecap:butt;stroke-linejoin:miter;stroke:#000;stroke-opacity:1;stroke-miterlimit:4" d="m1473.703 372.845-394.55 620.26 864.988-110.957Zm0 0" transform="matrix(.0998 0 0 -.0998 0 135.869)"/><path style="stroke:none;fill-rule:evenodd;fill:#b97058;fill-opacity:1" d="m114.938 1.352-7.231 35.398-72.277-1.07 79.507-34.328"/><g clip-path="url(#c)"><path style="fill:none;stroke-width:13.711;stroke-linecap:butt;stroke-linejoin:miter;stroke:#000;stroke-opacity:1;stroke-miterlimit:4" d="m1151.597 1347.773-72.445-354.669-724.17 10.724Zm0 0" transform="matrix(.0998 0 0 -.0998 0 135.869)"/></g><path style="fill-rule:evenodd;fill:#d0cfda;fill-opacity:1;stroke-width:13.711;stroke-linecap:butt;stroke-linejoin:miter;stroke:#000;stroke-opacity:1;stroke-miterlimit:4" d="m354.982 1003.828 724.17-10.724 394.55-620.26" transform="matrix(.0998 0 0 -.0998 0 135.869)"/><path style="stroke:none;fill-rule:evenodd;fill:#000;fill-opacity:1" d="M308.836 84.988 269.32 65.582l-63.164-52.348"/><g clip-path="url(#d)"><path style="fill:none;stroke-width:13.711;stroke-linecap:butt;stroke-linejoin:miter;stroke:#000;stroke-opacity:1;stroke-miterlimit:4" d="m3094.33 509.789-395.92 194.437-632.863 524.489" transform="matrix(.0998 0 0 -.0998 0 135.869)"/></g><path style="stroke:none;fill-rule:evenodd;fill:#8292c8;fill-opacity:1" d="m223.813 118.738 45.507-53.156 39.516 19.406-85.024 33.75"/><g clip-path="url(#e)"><path style="fill:none;stroke-width:13.711;stroke-linecap:butt;stroke-linejoin:miter;stroke:#000;stroke-opacity:1;stroke-miterlimit:4" d="m2242.451 171.636 455.958 532.59 395.92-194.437Zm0 0" transform="matrix(.0998 0 0 -.0998 0 135.869)"/></g><path style="fill-rule:evenodd;fill:#d0cfda;fill-opacity:1;stroke-width:13.711;stroke-linecap:butt;stroke-linejoin:miter;stroke:#000;stroke-opacity:1;stroke-miterlimit:4" d="m1473.703 372.845-733.251-13.972-385.47 644.955" transform="matrix(.0998 0 0 -.0998 0 135.869)"/><path style="fill-rule:evenodd;fill:#89c0e9;fill-opacity:1;stroke-width:13.711;stroke-linecap:butt;stroke-linejoin:miter;stroke:#000;stroke-opacity:1;stroke-miterlimit:4" d="m740.452 358.873 733.25 13.972 768.75-201.209" transform="matrix(.0998 0 0 -.0998 0 135.869)"/><path style="fill-rule:evenodd;fill:#72473b;fill-opacity:1;stroke-width:13.711;stroke-linecap:butt;stroke-linejoin:miter;stroke:#000;stroke-opacity:1;stroke-miterlimit:4" d="M354.982 1003.828 24.54 899.878l840.801 363.709" transform="matrix(.0998 0 0 -.0998 0 135.869)"/><path style="stroke:none;fill-rule:evenodd;fill:#72473b;fill-opacity:1" d="m86.367 9.754 28.57-8.402L35.43 35.68"/><g clip-path="url(#f)"><path style="fill:none;stroke-width:13.711;stroke-linecap:butt;stroke-linejoin:miter;stroke:#000;stroke-opacity:1;stroke-miterlimit:4" d="m865.341 1263.587 286.256 84.186-796.615-343.945" transform="matrix(.0998 0 0 -.0998 0 135.869)"/></g><path style="stroke:none;fill-rule:evenodd;fill:#e1ebde;fill-opacity:1" d="M73.902 100.05 2.45 46.056 35.43 35.68l38.473 64.37"/><path style="fill:none;stroke-width:13.711;stroke-linecap:butt;stroke-linejoin:miter;stroke:#000;stroke-opacity:1;stroke-miterlimit:4" d="M740.452 358.873 24.54 899.877l330.442 103.95Zm0 0" transform="matrix(.0998 0 0 -.0998 0 135.869)"/><path style="stroke:none;fill-rule:evenodd;fill:#000;fill-opacity:1" d="m206.156 13.234 36.813 16.809 65.867 54.945"/><g clip-path="url(#g)"><path style="fill:none;stroke-width:13.711;stroke-linecap:butt;stroke-linejoin:miter;stroke:#000;stroke-opacity:1;stroke-miterlimit:4" d="m2065.547 1228.715 368.837-168.411 659.945-550.515" transform="matrix(.0998 0 0 -.0998 0 135.869)"/></g><path style="stroke:none;fill-rule:evenodd;fill:#75b8e2;fill-opacity:1" d="M206.156 13.234 114.937 1.352l53.02 27.203"/><g clip-path="url(#h)"><path style="fill:none;stroke-width:13.711;stroke-linecap:butt;stroke-linejoin:miter;stroke:#000;stroke-opacity:1;stroke-miterlimit:4" d="m2065.547 1228.715-913.95 119.058" transform="matrix(.0998 0 0 -.0998 0 135.869)"/></g><path style="fill-rule:evenodd;fill:#75b8e2;fill-opacity:1;stroke-width:13.711;stroke-linecap:butt;stroke-linejoin:miter;stroke:#000;stroke-opacity:1;stroke-miterlimit:4" d="m1682.817 1075.216 751.567-14.912-368.837 168.41" transform="matrix(.0998 0 0 -.0998 0 135.869)"/><path style="stroke:none;fill-rule:evenodd;fill:#75b8e2;fill-opacity:1" d="m114.938 1.352-28.57 8.402 81.589 18.8"/><g clip-path="url(#i)"><path style="fill:none;stroke-width:13.711;stroke-linecap:butt;stroke-linejoin:miter;stroke:#000;stroke-opacity:1;stroke-miterlimit:4" d="m1151.597 1347.773-286.256-84.186 817.476-188.371" transform="matrix(.0998 0 0 -.0998 0 135.869)"/></g><path style="stroke:none;fill-rule:evenodd;fill:#326fad;fill-opacity:1" d="m201.926 134.703 21.887-15.965 85.023-33.75"/><g clip-path="url(#j)"><path style="fill:none;stroke-width:13.711;stroke-linecap:butt;stroke-linejoin:miter;stroke:#000;stroke-opacity:1;stroke-miterlimit:4" d="m2023.161 11.68 219.29 159.956L3094.33 509.79" transform="matrix(.0998 0 0 -.0998 0 135.869)"/></g><path style="stroke:none;fill-rule:evenodd;fill:#89c0e9;fill-opacity:1" d="m103.52 122.531-29.618-22.48 149.91 18.687"/><path style="fill:none;stroke-width:13.711;stroke-linecap:butt;stroke-linejoin:miter;stroke:#000;stroke-opacity:1;stroke-miterlimit:4" d="m1037.196 133.633-296.744 225.24" transform="matrix(.0998 0 0 -.0998 0 135.869)"/><path style="stroke:none;fill-rule:evenodd;fill:#89c0e9;fill-opacity:1" d="m223.813 118.738-21.887 15.965-98.406-12.172"/><g clip-path="url(#k)"><path style="fill:none;stroke-width:13.711;stroke-linecap:butt;stroke-linejoin:miter;stroke:#000;stroke-opacity:1;stroke-miterlimit:4" d="M2242.451 171.636 2023.161 11.68l-985.965 121.954" transform="matrix(.0998 0 0 -.0998 0 135.869)"/></g><path style="fill-rule:evenodd;fill:#84b8a3;fill-opacity:1;stroke-width:13.711;stroke-linecap:butt;stroke-linejoin:miter;stroke:#000;stroke-opacity:1;stroke-miterlimit:4" d="M284.964 702.074 24.54 899.877l715.912-541.004" transform="matrix(.0998 0 0 -.0998 0 135.869)"/><path style="fill-rule:evenodd;fill:#84b8a3;fill-opacity:1;stroke-width:13.711;stroke-linecap:butt;stroke-linejoin:miter;stroke:#000;stroke-opacity:1;stroke-miterlimit:4" d="m740.452 358.873 296.744-225.24-752.232 568.44" transform="matrix(.0998 0 0 -.0998 0 135.869)"/><path style="stroke:none;fill-rule:evenodd;fill:#326fad;fill-opacity:1" d="m308.836 84.988-16.785 14.07-90.125 35.645"/><g clip-path="url(#l)"><path style="fill:none;stroke-width:13.711;stroke-linecap:butt;stroke-linejoin:miter;stroke:#000;stroke-opacity:1;stroke-miterlimit:4" d="m3094.33 509.789-168.177-140.975-902.992-357.135" transform="matrix(.0998 0 0 -.0998 0 135.869)"/></g><path style="stroke:none;fill-rule:evenodd;fill:#daf0d7;fill-opacity:1" d="m242.969 30.043 49.082 69.016 16.785-14.07-65.867-54.946"/><g clip-path="url(#m)"><path style="fill:none;stroke-width:13.711;stroke-linecap:butt;stroke-linejoin:miter;stroke:#000;stroke-opacity:1;stroke-miterlimit:4" d="m2434.384 1060.304 491.77-691.49 168.175 140.975Zm0 0" transform="matrix(.0998 0 0 -.0998 0 135.869)"/></g><path style="stroke:none;fill-rule:evenodd;fill:#6989c7;fill-opacity:1" d="M86.367 9.754 2.45 46.054l25.992 19.743L86.367 9.754"/><path style="fill:none;stroke-width:13.711;stroke-linecap:butt;stroke-linejoin:miter;stroke:#000;stroke-opacity:1;stroke-miterlimit:4" d="M865.341 1263.587 24.54 899.877l260.424-197.803Zm0 0" transform="matrix(.0998 0 0 -.0998 0 135.869)"/><path style="fill-rule:evenodd;fill:#d1d6e0;fill-opacity:1;stroke-width:13.711;stroke-linecap:butt;stroke-linejoin:miter;stroke:#000;stroke-opacity:1;stroke-miterlimit:4" d="m2167.776 352.885 758.377 15.929-491.769 691.49" transform="matrix(.0998 0 0 -.0998 0 135.869)"/><path style="fill-rule:evenodd;fill:#d1d6e0;fill-opacity:1;stroke-width:13.711;stroke-linecap:butt;stroke-linejoin:miter;stroke:#000;stroke-opacity:1;stroke-miterlimit:4" d="m2434.384 1060.304-751.567 14.912 484.959-722.331" transform="matrix(.0998 0 0 -.0998 0 135.869)"/><path style="fill-rule:evenodd;fill:#a5aad1;fill-opacity:1;stroke-width:13.711;stroke-linecap:butt;stroke-linejoin:miter;stroke:#000;stroke-opacity:1;stroke-miterlimit:4" d="m1682.817 1075.216-817.476 188.37-580.377-561.512" transform="matrix(.0998 0 0 -.0998 0 135.869)"/><path style="stroke:none;fill-rule:evenodd;fill:#94574e;fill-opacity:1" d="m103.52 122.531 98.406 12.172 14.433-34.055"/><g clip-path="url(#n)"><path style="fill:none;stroke-width:13.711;stroke-linecap:butt;stroke-linejoin:miter;stroke:#000;stroke-opacity:1;stroke-miterlimit:4" d="M1037.196 133.633 2023.161 11.68l144.615 341.206" transform="matrix(.0998 0 0 -.0998 0 135.869)"/></g><path style="stroke:none;fill-rule:evenodd;fill:#af5f41;fill-opacity:1" d="M201.926 134.703 292.05 99.06l-75.692 1.59-14.433 34.054"/><g clip-path="url(#o)"><path style="fill:none;stroke-width:13.711;stroke-linecap:butt;stroke-linejoin:miter;stroke:#000;stroke-opacity:1;stroke-miterlimit:4" d="m2023.161 11.68 902.992 357.134-758.377-15.93Zm0 0" transform="matrix(.0998 0 0 -.0998 0 135.869)"/></g><path style="stroke:none;fill-rule:evenodd;fill:#73494e;fill-opacity:1" d="m103.52 122.531 8.035-35.047L28.44 65.797l75.079 56.734"/><path style="fill:none;stroke-width:13.711;stroke-linecap:butt;stroke-linejoin:miter;stroke:#000;stroke-opacity:1;stroke-miterlimit:4" d="m1037.196 133.633 80.507 351.147-832.74 217.294Zm0 0" transform="matrix(.0998 0 0 -.0998 0 135.869)"/><path style="fill-rule:evenodd;fill:#94574e;fill-opacity:1;stroke-width:13.711;stroke-linecap:butt;stroke-linejoin:miter;stroke:#000;stroke-opacity:1;stroke-miterlimit:4" d="M2167.776 352.885 1117.703 484.78l-80.507-351.147" transform="matrix(.0998 0 0 -.0998 0 135.869)"/><path style="stroke:none;fill-rule:evenodd;fill:#c0bbd0;fill-opacity:1" d="m167.957 28.555-56.402 58.93 104.804 13.163-48.402-72.093"/><path style="fill:none;stroke-width:13.711;stroke-linecap:butt;stroke-linejoin:miter;stroke:#000;stroke-opacity:1;stroke-miterlimit:4" d="M1682.817 1075.216 1117.703 484.78l1050.073-131.895Zm0 0" transform="matrix(.0998 0 0 -.0998 0 135.869)"/><path style="fill-rule:evenodd;fill:#a5aad1;fill-opacity:1;stroke-width:13.711;stroke-linecap:butt;stroke-linejoin:miter;stroke:#000;stroke-opacity:1;stroke-miterlimit:4" d="m284.964 702.074 832.74-217.294 565.113 590.436" transform="matrix(.0998 0 0 -.0998 0 135.869)"/></svg>