<svg xmlns="http://www.w3.org/2000/svg" width="465.907" height="232.627" viewBox="0 0 349.43 174.47" version="1.2"><defs><clipPath id="a"><path d="M97 89h95v84.941H97Zm0 0"/></clipPath><clipPath id="b"><path d="M149 31h64v142.941h-64Zm0 0"/></clipPath><clipPath id="c"><path d="M148 31h66v142.941h-66Zm0 0"/></clipPath><clipPath id="d"><path d="M191 31h91v142.941h-91Zm0 0"/></clipPath><clipPath id="e"><path d="M190 172h92v1.941h-92Zm0 0"/></clipPath><clipPath id="f"><path d="M.246 73H33v94H.246Zm0 0"/></clipPath><clipPath id="g"><path d="M.246 72H34v95H.246Zm0 0"/></clipPath><clipPath id="h"><path d="M.246 160H282v13.941H.246Zm0 0"/></clipPath><clipPath id="i"><path d="M190 172h92v1.941h-92Zm0 0"/></clipPath><clipPath id="j"><path d="M.246 160H192v13.941H.246Zm0 0"/></clipPath><clipPath id="k"><path d="M97 170h95v3.941H97Zm0 0"/></clipPath><clipPath id="l"><path d="M.246 160H98v12H.246Zm0 0"/></clipPath><clipPath id="m"><path d="M.246 159H99v13H.246Zm0 0"/></clipPath><clipPath id="n"><path d="M212 31h87v142.941h-87Zm0 0"/></clipPath><clipPath id="o"><path d="M280 83h64v90.941h-64Zm0 0"/></clipPath><clipPath id="p"><path d="M.246 160H343v13H.246Zm0 0"/></clipPath><clipPath id="q"><path d="M280 168h64v5.941h-64Zm0 0"/></clipPath><clipPath id="r"><path d="M270 17h78.617v152H270Zm0 0"/></clipPath><clipPath id="s"><path d="M342 162h6.617v8H342Zm0 0"/></clipPath><clipPath id="t"><path d="M.246 160h348.371v9H.247Zm0 0"/></clipPath><clipPath id="u"><path d="M342 162h6.617v8H342Zm0 0"/></clipPath><clipPath id="v"><path d="M.246 7H98v154H.246Zm0 0"/></clipPath><clipPath id="w"><path d="M.246 7H99v154H.246Zm0 0"/></clipPath><clipPath id="x"><path d="M270 17h78.617v146H270Zm0 0"/></clipPath><clipPath id="y"><path d="M270 16h78.617v148H270Zm0 0"/></clipPath><clipPath id="z"><path d="M.246 7H98v154H.246Zm0 0"/></clipPath><clipPath id="A"><path d="M.246 154H49v7H.246Zm0 0"/></clipPath><clipPath id="B"><path d="M.246 153H159v8H.246Zm0 0"/></clipPath><clipPath id="C"><path d="M.246 152H160v9H.246Zm0 0"/></clipPath><clipPath id="D"><path d="M.246 153H280v8H.246Zm0 0"/></clipPath><clipPath id="E"><path d="M.246 156h348.371v7H.247Zm0 0"/></clipPath><clipPath id="F"><path d="M279 155h69.617v9H279Zm0 0"/></clipPath><clipPath id="G"><path d="M279 60h69.617v103H279Zm0 0"/></clipPath><clipPath id="H"><path d="M279 60h69.617v104H279Zm0 0"/></clipPath></defs><g clip-path="url(#a)"><path style="stroke:none;fill-rule:nonzero;fill:#bda6b0;fill-opacity:1" d="m149.219 89.969 42.11 83.441-93.579-2.219 51.469-81.222"/><path style="fill:none;stroke-width:10.66;stroke-linecap:round;stroke-linejoin:round;stroke:#231f20;stroke-opacity:1;stroke-miterlimit:10" d="M1494.263 842.28 1916.636 5.33 978.012 27.587Zm0 0" transform="matrix(.0997 0 0 -.0997 .245 173.942)"/></g><g clip-path="url(#b)"><path style="stroke:none;fill-rule:nonzero;fill:#a08da0;fill-opacity:1" d="m191.328 173.41-42.11-83.441 63.54-58.145"/></g><g clip-path="url(#c)"><path style="fill:none;stroke-width:10.66;stroke-linecap:round;stroke-linejoin:round;stroke:#231f20;stroke-opacity:1;stroke-miterlimit:10" d="m1916.636 5.33-422.373 836.95 637.32 583.211" transform="matrix(.0997 0 0 -.0997 .245 173.942)"/></g><g clip-path="url(#d)"><path style="stroke:none;fill-rule:nonzero;fill:#a08da0;fill-opacity:1" d="m281.379 172.672-90.05.738 21.429-141.586"/></g><g clip-path="url(#e)"><path style="fill:none;stroke-width:10.66;stroke-linecap:round;stroke-linejoin:round;stroke:#231f20;stroke-opacity:1;stroke-miterlimit:10" d="M2819.88 12.736 1916.635 5.33" transform="matrix(.0997 0 0 -.0997 .245 173.942)"/></g><path style="fill-rule:nonzero;fill:#d7a991;fill-opacity:1;stroke-width:10.66;stroke-linecap:round;stroke-linejoin:round;stroke:#231f20;stroke-opacity:1;stroke-miterlimit:10" d="m1139.713 1476.23 354.55-633.95L978.012 27.585" transform="matrix(.0997 0 0 -.0997 .245 173.942)"/><path style="stroke:none;fill-rule:nonzero;fill:#d7a991;fill-opacity:1" d="m97.75 171.191-72.621-4.734L113.87 26.766"/><path style="fill:none;stroke-width:10.66;stroke-linecap:round;stroke-linejoin:round;stroke:#231f20;stroke-opacity:1;stroke-miterlimit:10" d="M978.012 27.586 249.595 75.073" transform="matrix(.0997 0 0 -.0997 .245 173.942)"/><path style="fill-rule:nonzero;fill:#d7a991;fill-opacity:1;stroke-width:10.66;stroke-linecap:round;stroke-linejoin:round;stroke:#231f20;stroke-opacity:1;stroke-miterlimit:10" d="m249.595 75.073 75.463 935.294 814.655 465.864" transform="matrix(.0997 0 0 -.0997 .245 173.942)"/><g clip-path="url(#f)"><path style="stroke:none;fill-rule:nonzero;fill:#f2b856;fill-opacity:1" d="m32.652 73.21-7.523 93.247-24.352-6.191L32.652 73.21"/></g><g clip-path="url(#g)"><path style="fill:none;stroke-width:10.66;stroke-linecap:round;stroke-linejoin:round;stroke:#231f20;stroke-opacity:1;stroke-miterlimit:10" d="M325.058 1010.367 249.595 75.073 5.34 137.175Zm0 0" transform="matrix(.0997 0 0 -.0997 .245 173.942)"/></g><g clip-path="url(#h)"><path style="stroke:none;fill-rule:nonzero;fill:#2b2a28;fill-opacity:1" d="m191.328 173.41 90.05-.738-280.6-12.406"/></g><g clip-path="url(#i)"><path style="fill:none;stroke-width:10.66;stroke-linecap:round;stroke-linejoin:round;stroke:#231f20;stroke-opacity:1;stroke-miterlimit:10" d="m1916.636 5.33 903.243 7.406" transform="matrix(.0997 0 0 -.0997 .245 173.942)"/></g><g clip-path="url(#j)"><path style="stroke:none;fill-rule:nonzero;fill:#2b2a28;fill-opacity:1" d="m97.75 171.191 93.578 2.22L.778 160.265"/></g><g clip-path="url(#k)"><path style="fill:none;stroke-width:10.66;stroke-linecap:round;stroke-linejoin:round;stroke:#231f20;stroke-opacity:1;stroke-miterlimit:10" d="M978.012 27.586 1916.636 5.33" transform="matrix(.0997 0 0 -.0997 .245 173.942)"/></g><path style="stroke:none;fill-rule:nonzero;fill:#b68987;fill-opacity:1" d="m212.758 31.824-63.54 58.145-35.347-63.203 98.887 5.058"/><path style="fill:none;stroke-width:10.66;stroke-linecap:round;stroke-linejoin:round;stroke:#231f20;stroke-opacity:1;stroke-miterlimit:10" d="M2131.584 1425.491 1494.263 842.28l-354.55 633.952Zm0 0" transform="matrix(.0997 0 0 -.0997 .245 173.942)"/><g clip-path="url(#l)"><path style="stroke:none;fill-rule:nonzero;fill:#2b2a28;fill-opacity:1" d="m.777 160.266 24.352 6.191 72.621 4.734"/></g><g clip-path="url(#m)"><path style="fill:none;stroke-width:10.66;stroke-linecap:round;stroke-linejoin:round;stroke:#231f20;stroke-opacity:1;stroke-miterlimit:10" d="m5.34 137.175 244.255-62.102 728.417-47.487" transform="matrix(.0997 0 0 -.0997 .245 173.942)"/></g><path style="stroke:none;fill-rule:nonzero;fill:#a08da0;fill-opacity:1" d="m212.758 31.824 85.367 52.453-16.746 88.395"/><g clip-path="url(#n)"><path style="fill:none;stroke-width:10.66;stroke-linecap:round;stroke-linejoin:round;stroke:#231f20;stroke-opacity:1;stroke-miterlimit:10" d="m2131.584 1425.491 856.265-526.125-167.97-886.63" transform="matrix(.0997 0 0 -.0997 .245 173.942)"/></g><path style="stroke:none;fill-rule:nonzero;fill:#817394;fill-opacity:1" d="m298.125 84.277 44.664 84.645-61.41 3.75 16.746-88.395"/><g clip-path="url(#o)"><path style="fill:none;stroke-width:10.66;stroke-linecap:round;stroke-linejoin:round;stroke:#231f20;stroke-opacity:1;stroke-miterlimit:10" d="M2987.849 899.366 3435.846 50.35 2819.88 12.736Zm0 0" transform="matrix(.0997 0 0 -.0997 .245 173.942)"/></g><g clip-path="url(#p)"><path style="stroke:none;fill-rule:nonzero;fill:#2b2a28;fill-opacity:1" d="m281.379 172.672 61.41-3.75L.777 160.266"/></g><g clip-path="url(#q)"><path style="fill:none;stroke-width:10.66;stroke-linecap:round;stroke-linejoin:round;stroke:#231f20;stroke-opacity:1;stroke-miterlimit:10" d="m2819.88 12.736 615.966 37.614" transform="matrix(.0997 0 0 -.0997 .245 173.942)"/></g><path style="stroke:none;fill-rule:nonzero;fill:#735a66;fill-opacity:1" d="m270.688 17.098 27.437 67.18-85.367-52.454 57.93-14.726"/><path style="fill:none;stroke-width:10.66;stroke-linecap:round;stroke-linejoin:round;stroke:#231f20;stroke-opacity:1;stroke-miterlimit:10" d="m2712.64 1573.204 275.209-673.838-856.265 526.125Zm0 0" transform="matrix(.0997 0 0 -.0997 .245 173.942)"/><path style="stroke:none;fill-rule:nonzero;fill:#674a41;fill-opacity:1" d="m212.758 31.824-98.887-5.058L201.18.53"/><path style="fill:none;stroke-width:10.66;stroke-linecap:round;stroke-linejoin:round;stroke:#231f20;stroke-opacity:1;stroke-miterlimit:10" d="m2131.584 1425.491-991.871 50.74" transform="matrix(.0997 0 0 -.0997 .245 173.942)"/><path style="fill-rule:nonzero;fill:#674a41;fill-opacity:1;stroke-width:10.66;stroke-linecap:round;stroke-linejoin:round;stroke:#231f20;stroke-opacity:1;stroke-miterlimit:10" d="m2015.45 1739.371 697.19-166.167-581.056-147.713" transform="matrix(.0997 0 0 -.0997 .245 173.942)"/><path style="fill-rule:nonzero;fill:#231f20;fill-opacity:1;stroke-width:10.66;stroke-linecap:round;stroke-linejoin:round;stroke:#231f20;stroke-opacity:1;stroke-miterlimit:10" d="M3435.846 50.35 2987.85 899.366l-275.209 673.838" transform="matrix(.0997 0 0 -.0997 .245 173.942)"/><path style="stroke:none;fill-rule:nonzero;fill:#c47037;fill-opacity:1" d="M113.871 26.766 32.652 73.21 97.816 7.66l16.055 19.105"/><path style="fill:none;stroke-width:10.66;stroke-linecap:round;stroke-linejoin:round;stroke:#231f20;stroke-opacity:1;stroke-miterlimit:10" d="m1139.713 1476.23-814.655-465.863 653.62 657.499Zm0 0" transform="matrix(.0997 0 0 -.0997 .245 173.942)"/><path style="fill-rule:nonzero;fill:#674a41;fill-opacity:1;stroke-width:10.66;stroke-linecap:round;stroke-linejoin:round;stroke:#231f20;stroke-opacity:1;stroke-miterlimit:10" d="m1139.713 1476.23-161.035 191.636 1036.773 71.505" transform="matrix(.0997 0 0 -.0997 .245 173.942)"/><g clip-path="url(#r)"><path style="stroke:none;fill-rule:nonzero;fill:#231f20;fill-opacity:1" d="m348.086 162.805-5.297 6.117-72.101-151.824"/></g><g clip-path="url(#s)"><path style="fill:none;stroke-width:10.66;stroke-linecap:round;stroke-linejoin:round;stroke:#231f20;stroke-opacity:1;stroke-miterlimit:10" d="m3488.976 111.707-53.13-61.357" transform="matrix(.0997 0 0 -.0997 .245 173.942)"/></g><g clip-path="url(#t)"><path style="stroke:none;fill-rule:nonzero;fill:#2b2a28;fill-opacity:1" d="m342.79 168.922 5.296-6.117-347.309-2.54"/></g><g clip-path="url(#u)"><path style="fill:none;stroke-width:10.66;stroke-linecap:round;stroke-linejoin:round;stroke:#231f20;stroke-opacity:1;stroke-miterlimit:10" d="m3435.846 50.35 53.13 61.357" transform="matrix(.0997 0 0 -.0997 .245 173.942)"/></g><g clip-path="url(#v)"><path style="stroke:none;fill-rule:nonzero;fill:#556aa2;fill-opacity:1" d="M97.816 7.66 32.652 73.21.777 160.267"/></g><g clip-path="url(#w)"><path style="fill:none;stroke-width:10.66;stroke-linecap:round;stroke-linejoin:round;stroke:#231f20;stroke-opacity:1;stroke-miterlimit:10" d="m978.678 1667.866-653.62-657.5L5.34 137.177" transform="matrix(.0997 0 0 -.0997 .245 173.942)"/></g><g clip-path="url(#x)"><path style="stroke:none;fill-rule:nonzero;fill:#231f20;fill-opacity:1" d="m270.688 17.098 29.152 43.78 48.246 101.927"/></g><g clip-path="url(#y)"><path style="fill:none;stroke-width:10.66;stroke-linecap:round;stroke-linejoin:round;stroke:#231f20;stroke-opacity:1;stroke-miterlimit:10" d="m2712.64 1573.204 292.41-439.142 483.926-1022.355" transform="matrix(.0997 0 0 -.0997 .245 173.942)"/></g><path style="stroke:none;fill-rule:nonzero;fill:#b8e1e5;fill-opacity:1" d="m201.18.531 98.66 60.348-29.152-43.781L201.18.53"/><path style="fill:none;stroke-width:10.66;stroke-linecap:round;stroke-linejoin:round;stroke:#231f20;stroke-opacity:1;stroke-miterlimit:10" d="m2015.45 1739.371 989.6-605.31-292.41 439.143Zm0 0" transform="matrix(.0997 0 0 -.0997 .245 173.942)"/><path style="stroke:none;fill-rule:nonzero;fill:#82a1d0;fill-opacity:1" d="m97.816 7.66 14.989 44.559L201.18.53 97.816 7.661"/><path style="fill:none;stroke-width:10.66;stroke-linecap:round;stroke-linejoin:round;stroke:#231f20;stroke-opacity:1;stroke-miterlimit:10" d="m978.678 1667.866 150.338-446.94 886.435 518.445Zm0 0" transform="matrix(.0997 0 0 -.0997 .245 173.942)"/><path style="fill-rule:nonzero;fill:#556aa2;fill-opacity:1;stroke-width:10.66;stroke-linecap:round;stroke-linejoin:round;stroke:#231f20;stroke-opacity:1;stroke-miterlimit:10" d="m475.514 191.676 653.502 1029.25-150.338 446.94" transform="matrix(.0997 0 0 -.0997 .245 173.942)"/><g clip-path="url(#z)"><path style="stroke:none;fill-rule:nonzero;fill:#556aa2;fill-opacity:1" d="m.777 160.266 46.875-5.434L97.816 7.66"/></g><g clip-path="url(#A)"><path style="fill:none;stroke-width:10.66;stroke-linecap:round;stroke-linejoin:round;stroke:#231f20;stroke-opacity:1;stroke-miterlimit:10" d="m5.34 137.175 470.174 54.501" transform="matrix(.0997 0 0 -.0997 .245 173.942)"/></g><g clip-path="url(#B)"><path style="stroke:none;fill-rule:nonzero;fill:#2b2a28;fill-opacity:1" d="m158.691 153.11-111.039 1.722-46.875 5.434"/></g><g clip-path="url(#C)"><path style="fill:none;stroke-width:10.66;stroke-linecap:round;stroke-linejoin:round;stroke:#231f20;stroke-opacity:1;stroke-miterlimit:10" d="M1589.277 208.955 475.514 191.676 5.34 137.176" transform="matrix(.0997 0 0 -.0997 .245 173.942)"/></g><g clip-path="url(#D)"><path style="stroke:none;fill-rule:nonzero;fill:#2b2a28;fill-opacity:1" d="m279.805 156.43-121.114-3.32L.777 160.265"/></g><path style="fill:none;stroke-width:10.66;stroke-linecap:round;stroke-linejoin:round;stroke:#231f20;stroke-opacity:1;stroke-miterlimit:10" d="m2804.09 175.651-1214.813 33.304" transform="matrix(.0997 0 0 -.0997 .245 173.942)"/><g clip-path="url(#E)"><path style="stroke:none;fill-rule:nonzero;fill:#2b2a28;fill-opacity:1" d="m348.086 162.805-68.281-6.375L.777 160.266"/></g><g clip-path="url(#F)"><path style="fill:none;stroke-width:10.66;stroke-linecap:round;stroke-linejoin:round;stroke:#231f20;stroke-opacity:1;stroke-miterlimit:10" d="m3488.976 111.707-684.887 63.944" transform="matrix(.0997 0 0 -.0997 .245 173.942)"/></g><g clip-path="url(#G)"><path style="stroke:none;fill-rule:nonzero;fill:#e9d5ba;fill-opacity:1" d="m299.84 60.879-20.035 95.55 68.28 6.376L299.84 60.879"/></g><g clip-path="url(#H)"><path style="fill:none;stroke-width:10.66;stroke-linecap:round;stroke-linejoin:round;stroke:#231f20;stroke-opacity:1;stroke-miterlimit:10" d="m3005.05 1134.062-200.96-958.41 684.886-63.945Zm0 0" transform="matrix(.0997 0 0 -.0997 .245 173.942)"/></g><path style="fill-rule:nonzero;fill:#c2bdcf;fill-opacity:1;stroke-width:10.66;stroke-linecap:round;stroke-linejoin:round;stroke:#231f20;stroke-opacity:1;stroke-miterlimit:10" d="m2804.09 175.651 200.96 958.41-989.6 605.31" transform="matrix(.0997 0 0 -.0997 .245 173.942)"/><path style="stroke:none;fill-rule:nonzero;fill:#c2bdcf;fill-opacity:1" d="m158.691 153.11 121.114 3.32L201.18.53"/><path style="fill:none;stroke-width:10.66;stroke-linecap:round;stroke-linejoin:round;stroke:#231f20;stroke-opacity:1;stroke-miterlimit:10" d="m1589.277 208.955 1214.812-33.304" transform="matrix(.0997 0 0 -.0997 .245 173.942)"/><path style="fill-rule:nonzero;fill:#c2bdcf;fill-opacity:1;stroke-width:10.66;stroke-linecap:round;stroke-linejoin:round;stroke:#231f20;stroke-opacity:1;stroke-miterlimit:10" d="m2015.45 1739.371-886.434-518.445 460.261-1011.97" transform="matrix(.0997 0 0 -.0997 .245 173.942)"/><path style="stroke:none;fill-rule:nonzero;fill:#a498b8;fill-opacity:1" d="M112.805 52.219 47.652 154.832l111.04-1.723-45.887-100.89"/><path style="fill:none;stroke-width:10.66;stroke-linecap:round;stroke-linejoin:round;stroke:#231f20;stroke-opacity:1;stroke-miterlimit:10" d="M1129.016 1220.926 475.514 191.676l1113.763 17.28Zm0 0" transform="matrix(.0997 0 0 -.0997 .245 173.942)"/></svg>