<svg xmlns="http://www.w3.org/2000/svg" width="357.747" height="247.373" viewBox="0 0 268.31 185.53" version="1.2"><defs><clipPath id="a"><path d="M132 152h71v33.059h-71Zm0 0"/></clipPath><clipPath id="b"><path d="M88 152h78v33.059H88Zm0 0"/></clipPath><clipPath id="c"><path d="M26 150h108v35.059H26Zm0 0"/></clipPath><clipPath id="d"><path d="M61 .004h112V40H61Zm0 0"/></clipPath><clipPath id="e"><path d="M122 .004h68V40h-68Zm0 0"/></clipPath><clipPath id="f"><path d="M122 .004h69V41h-69Zm0 0"/></clipPath><clipPath id="g"><path d="M189 23h78.621v118H189Zm0 0"/></clipPath><clipPath id="h"><path d="M231 121h36.621v20H231Zm0 0"/></clipPath><clipPath id="i"><path d="M202 121h65.621v51H202Zm0 0"/></clipPath><clipPath id="j"><path d="M201 121h66.621v52H201Zm0 0"/></clipPath><clipPath id="k"><path d="M26 150h108v35.059H26Zm0 0"/></clipPath><clipPath id="l"><path d="M132 171h71v14.059h-71Zm0 0"/></clipPath><clipPath id="m"><path d="M69 161h65v24.059H69Zm0 0"/></clipPath><clipPath id="n"><path d="M189 23h78.621v99H189Zm0 0"/></clipPath><clipPath id="o"><path d="M189 22h78.621v101H189Zm0 0"/></clipPath><clipPath id="p"><path d="M172 .004h69V46h-69Zm0 0"/></clipPath><clipPath id="q"><path d="M171 .004h71V47h-71Zm0 0"/></clipPath><clipPath id="r"><path d="M61 .004h112V30H61Zm0 0"/></clipPath><clipPath id="s"><path d="M60 .004h113V30H60Zm0 0"/></clipPath><clipPath id="t"><path d="M184 121h83.621v51H184Zm0 0"/></clipPath><clipPath id="u"><path d="M184 121h83.621v52H184Zm0 0"/></clipPath><clipPath id="v"><path d="M240 45h27.621v77H240Zm0 0"/></clipPath><clipPath id="w"><path d="M240 45h27.621v78H240Zm0 0"/></clipPath><clipPath id="x"><path d="M184 103h83.621v55H184Zm0 0"/></clipPath><clipPath id="y"><path d="M172 .004h82V104h-82Zm0 0"/></clipPath><clipPath id="z"><path d="M171 .004h84V105h-84Zm0 0"/></clipPath><clipPath id="A"><path d="M88 .004h85V28H88Zm0 0"/></clipPath><clipPath id="B"><path d="M87 .004h86V29H87Zm0 0"/></clipPath><clipPath id="C"><path d="M172 .004h82V104h-82Zm0 0"/></clipPath><clipPath id="D"><path d="M137 .004h53V95h-53Zm0 0"/></clipPath><clipPath id="E"><path d="M137 .004h53V96h-53Zm0 0"/></clipPath></defs><path style="stroke:none;fill-rule:nonzero;fill:#b997bb;fill-opacity:1" d="m164.824 153.035-75.676 4.14 33.829-117.284"/><path style="fill:none;stroke-width:9.02001;stroke-linecap:round;stroke-linejoin:round;stroke:#231f20;stroke-opacity:1;stroke-miterlimit:10" d="m1652.48 321.048-758.703-41.512" transform="matrix(.09974 0 0 -.09974 0 185.058)"/><path style="fill-rule:nonzero;fill:#b997bb;fill-opacity:1;stroke-width:9.02001;stroke-linecap:round;stroke-linejoin:round;stroke:#231f20;stroke-opacity:1;stroke-miterlimit:10" d="m1232.928 1455.403 634.87-414.696-215.317-719.659" transform="matrix(.09974 0 0 -.09974 0 185.058)"/><path style="stroke:none;fill-rule:nonzero;fill:#a38dc1;fill-opacity:1" d="m186.3 81.254 45.259 58.777-66.735 13.004 21.477-71.781"/><path style="fill:none;stroke-width:9.02001;stroke-linecap:round;stroke-linejoin:round;stroke:#231f20;stroke-opacity:1;stroke-miterlimit:10" d="m1867.799 1040.707 453.742-589.285-669.06-130.374Zm0 0" transform="matrix(.09974 0 0 -.09974 0 185.058)"/><path style="fill-rule:nonzero;fill:#79b3e5;fill-opacity:1;stroke-width:9.02001;stroke-linecap:round;stroke-linejoin:round;stroke:#231f20;stroke-opacity:1;stroke-miterlimit:10" d="m1652.48 321.048 669.06 130.374-293.8-319.766" transform="matrix(.09974 0 0 -.09974 0 185.058)"/><path style="stroke:none;fill-rule:nonzero;fill:#79b3e5;fill-opacity:1" d="m202.254 171.926-69.047 12.683 31.617-31.574"/><g clip-path="url(#a)"><path style="fill:none;stroke-width:9.02001;stroke-linecap:round;stroke-linejoin:round;stroke:#231f20;stroke-opacity:1;stroke-miterlimit:10" d="M2027.74 131.656 1335.496 4.494l316.985 316.554" transform="matrix(.09974 0 0 -.09974 0 185.058)"/></g><path style="stroke:none;fill-rule:nonzero;fill:#a9c2e8;fill-opacity:1" d="m133.207 184.61-44.059-27.434 75.676-4.14-31.617 31.573"/><g clip-path="url(#b)"><path style="fill:none;stroke-width:9.02001;stroke-linecap:round;stroke-linejoin:round;stroke:#231f20;stroke-opacity:1;stroke-miterlimit:10" d="M1335.496 4.494 893.777 279.536l758.704 41.512Zm0 0" transform="matrix(.09974 0 0 -.09974 0 185.058)"/></g><path style="stroke:none;fill-rule:nonzero;fill:#cdabbe;fill-opacity:1" d="m62.414 87.582 26.734 69.594-62.109-6.055 35.375-63.539"/><path style="fill:none;stroke-width:9.02001;stroke-linecap:round;stroke-linejoin:round;stroke:#231f20;stroke-opacity:1;stroke-miterlimit:10" d="m625.746 977.263 268.031-697.727-622.691 60.702Zm0 0" transform="matrix(.09974 0 0 -.09974 0 185.058)"/><path style="fill-rule:nonzero;fill:#b997bb;fill-opacity:1;stroke-width:9.02001;stroke-linecap:round;stroke-linejoin:round;stroke:#231f20;stroke-opacity:1;stroke-miterlimit:10" d="M893.777 279.536 625.746 977.263l607.182 478.14" transform="matrix(.09974 0 0 -.09974 0 185.058)"/><path style="stroke:none;fill-rule:nonzero;fill:#afe0f4;fill-opacity:1" d="m27.04 151.121 62.108 6.055 44.059 27.433"/><g clip-path="url(#c)"><path style="fill:none;stroke-width:9.02001;stroke-linecap:round;stroke-linejoin:round;stroke:#231f20;stroke-opacity:1;stroke-miterlimit:10" d="m271.086 340.238 622.691-60.702L1335.496 4.494" transform="matrix(.09974 0 0 -.09974 0 185.058)"/></g><path style="stroke:none;fill-rule:nonzero;fill:#a979a4;fill-opacity:1" d="m189.898 23.258-3.597 57.996-63.324-41.363 66.921-16.633"/><path style="fill:none;stroke-width:9.02001;stroke-linecap:round;stroke-linejoin:round;stroke:#231f20;stroke-opacity:1;stroke-miterlimit:10" d="m1903.868 1622.16-36.07-581.453-634.87 414.696Zm0 0" transform="matrix(.09974 0 0 -.09974 0 185.058)"/><path style="fill-rule:nonzero;fill:#7f5fa5;fill-opacity:1;stroke-width:9.02001;stroke-linecap:round;stroke-linejoin:round;stroke:#231f20;stroke-opacity:1;stroke-miterlimit:10" d="M2321.54 451.422 1867.8 1040.707l36.069 581.452" transform="matrix(.09974 0 0 -.09974 0 185.058)"/><path style="fill-rule:nonzero;fill:#e9ac90;fill-opacity:1;stroke-width:9.02001;stroke-linecap:round;stroke-linejoin:round;stroke:#231f20;stroke-opacity:1;stroke-miterlimit:10" d="m611.647 1560.008 14.099-582.745-354.66-637.025" transform="matrix(.09974 0 0 -.09974 0 185.058)"/><path style="stroke:none;fill-rule:nonzero;fill:#c68fa0;fill-opacity:1" d="M122.977 39.89 62.414 87.583l-1.406-58.125 61.969 10.434"/><path style="fill:none;stroke-width:9.02001;stroke-linecap:round;stroke-linejoin:round;stroke:#231f20;stroke-opacity:1;stroke-miterlimit:10" d="m1232.928 1455.403-607.182-478.14-14.099 582.745Zm0 0" transform="matrix(.09974 0 0 -.09974 0 185.058)"/><g clip-path="url(#d)"><path style="stroke:none;fill-rule:nonzero;fill:#a44651;fill-opacity:1" d="m122.977 39.89-61.97-10.433L172.396.453"/></g><path style="fill:none;stroke-width:9.02001;stroke-linecap:round;stroke-linejoin:round;stroke:#231f20;stroke-opacity:1;stroke-miterlimit:10" d="m1232.928 1455.403-621.281 104.605" transform="matrix(.09974 0 0 -.09974 0 185.058)"/><g clip-path="url(#e)"><path style="stroke:none;fill-rule:nonzero;fill:#a44651;fill-opacity:1" d="m172.395.453 17.503 22.805-66.921 16.633"/></g><g clip-path="url(#f)"><path style="fill:none;stroke-width:9.02001;stroke-linecap:round;stroke-linejoin:round;stroke:#231f20;stroke-opacity:1;stroke-miterlimit:10" d="m1728.379 1850.793 175.489-228.634-670.94-166.756" transform="matrix(.09974 0 0 -.09974 0 185.058)"/></g><g clip-path="url(#g)"><path style="stroke:none;fill-rule:nonzero;fill:#7f5fa5;fill-opacity:1" d="m267.172 121.64-35.613 18.391-41.66-116.773"/></g><g clip-path="url(#h)"><path style="fill:none;stroke-width:9.02001;stroke-linecap:round;stroke-linejoin:round;stroke:#231f20;stroke-opacity:1;stroke-miterlimit:10" d="m2678.59 635.801-357.05-184.379" transform="matrix(.09974 0 0 -.09974 0 185.058)"/></g><g clip-path="url(#i)"><path style="stroke:none;fill-rule:nonzero;fill:#2076c5;fill-opacity:1" d="m202.254 171.926 29.305-31.895 35.613-18.39-64.918 50.285"/></g><g clip-path="url(#j)"><path style="fill:none;stroke-width:9.02001;stroke-linecap:round;stroke-linejoin:round;stroke:#231f20;stroke-opacity:1;stroke-miterlimit:10" d="m2027.74 131.656 293.8 319.766 357.05 184.38Zm0 0" transform="matrix(.09974 0 0 -.09974 0 185.058)"/></g><path style="stroke:none;fill-rule:nonzero;fill:#e9ac90;fill-opacity:1" d="M27.04 151.121.45 135.871 61.007 29.457"/><path style="fill:none;stroke-width:9.02001;stroke-linecap:round;stroke-linejoin:round;stroke:#231f20;stroke-opacity:1;stroke-miterlimit:10" d="M271.086 340.238 4.504 493.131" transform="matrix(.09974 0 0 -.09974 0 185.058)"/><path style="stroke:none;fill-rule:nonzero;fill:#afe0f4;fill-opacity:1" d="m133.207 184.61-63.273-5.301-42.895-28.188"/><g clip-path="url(#k)"><path style="fill:none;stroke-width:9.02001;stroke-linecap:round;stroke-linejoin:round;stroke:#231f20;stroke-opacity:1;stroke-miterlimit:10" d="M1335.496 4.494 701.134 57.638l-430.048 282.6" transform="matrix(.09974 0 0 -.09974 0 185.058)"/></g><path style="stroke:none;fill-rule:nonzero;fill:#6dcdb6;fill-opacity:1" d="M69.934 179.309.449 135.87l26.59 15.25 42.895 28.188"/><path style="fill:none;stroke-width:9.02001;stroke-linecap:round;stroke-linejoin:round;stroke:#231f20;stroke-opacity:1;stroke-miterlimit:10" d="M701.134 57.638 4.504 493.131l266.582-152.893Zm0 0" transform="matrix(.09974 0 0 -.09974 0 185.058)"/><path style="stroke:none;fill-rule:nonzero;fill:#912824;fill-opacity:1" d="m133.207 184.61 69.047-12.684-103.777-9.88"/><g clip-path="url(#l)"><path style="fill:none;stroke-width:9.02001;stroke-linecap:round;stroke-linejoin:round;stroke:#231f20;stroke-opacity:1;stroke-miterlimit:10" d="m1335.496 4.494 692.244 127.162" transform="matrix(.09974 0 0 -.09974 0 185.058)"/></g><path style="stroke:none;fill-rule:nonzero;fill:#912824;fill-opacity:1" d="m98.477 162.047-28.543 17.262 63.273 5.3"/><g clip-path="url(#m)"><path style="fill:none;stroke-width:9.02001;stroke-linecap:round;stroke-linejoin:round;stroke:#231f20;stroke-opacity:1;stroke-miterlimit:10" d="M987.298 230.7 701.134 57.638l634.362-53.144" transform="matrix(.09974 0 0 -.09974 0 185.058)"/></g><g clip-path="url(#n)"><path style="stroke:none;fill-rule:nonzero;fill:#7f5fa5;fill-opacity:1" d="m189.898 23.258 50.84 22.644 26.434 75.739"/></g><g clip-path="url(#o)"><path style="fill:none;stroke-width:9.02001;stroke-linecap:round;stroke-linejoin:round;stroke:#231f20;stroke-opacity:1;stroke-miterlimit:10" d="m1903.868 1622.16 509.706-227.028 265.015-759.33" transform="matrix(.09974 0 0 -.09974 0 185.058)"/></g><g clip-path="url(#p)"><path style="stroke:none;fill-rule:nonzero;fill:#281513;fill-opacity:1" d="m172.395.453 68.343 45.45-50.84-22.645L172.395.453"/></g><g clip-path="url(#q)"><path style="fill:none;stroke-width:9.02001;stroke-linecap:round;stroke-linejoin:round;stroke:#231f20;stroke-opacity:1;stroke-miterlimit:10" d="m1728.379 1850.793 685.195-455.661-509.706 227.027Zm0 0" transform="matrix(.09974 0 0 -.09974 0 185.058)"/></g><path style="stroke:none;fill-rule:nonzero;fill:#982924;fill-opacity:1" d="M61.008 29.457 22.203 56.699 88.258 4.4l-27.25 25.058"/><path style="fill:none;stroke-width:9.02001;stroke-linecap:round;stroke-linejoin:round;stroke:#231f20;stroke-opacity:1;stroke-miterlimit:10" d="m611.647 1560.008-389.045-273.123 662.246 524.353Zm0 0" transform="matrix(.09974 0 0 -.09974 0 185.058)"/><path style="fill-rule:nonzero;fill:#e9ac90;fill-opacity:1;stroke-width:9.02001;stroke-linecap:round;stroke-linejoin:round;stroke:#231f20;stroke-opacity:1;stroke-miterlimit:10" d="m4.504 493.13 218.098 793.755 389.045 273.123" transform="matrix(.09974 0 0 -.09974 0 185.058)"/><g clip-path="url(#r)"><path style="stroke:none;fill-rule:nonzero;fill:#a44651;fill-opacity:1" d="m61.008 29.457 27.25-25.059L172.395.453"/></g><g clip-path="url(#s)"><path style="fill:none;stroke-width:9.02001;stroke-linecap:round;stroke-linejoin:round;stroke:#231f20;stroke-opacity:1;stroke-miterlimit:10" d="m611.647 1560.008 273.2 251.23 843.532 39.555" transform="matrix(.09974 0 0 -.09974 0 185.058)"/></g><g clip-path="url(#t)"><path style="stroke:none;fill-rule:nonzero;fill:#cf7252;fill-opacity:1" d="m184.984 157.293 17.27 14.633 64.918-50.285"/></g><g clip-path="url(#u)"><path style="fill:none;stroke-width:9.02001;stroke-linecap:round;stroke-linejoin:round;stroke:#231f20;stroke-opacity:1;stroke-miterlimit:10" d="m1854.6 278.36 173.14-146.704 650.85 504.145" transform="matrix(.09974 0 0 -.09974 0 185.058)"/></g><path style="fill-rule:nonzero;fill:#912824;fill-opacity:1;stroke-width:9.02001;stroke-linecap:round;stroke-linejoin:round;stroke:#231f20;stroke-opacity:1;stroke-miterlimit:10" d="M2027.74 131.656 1854.6 278.361 987.299 230.7" transform="matrix(.09974 0 0 -.09974 0 185.058)"/><g clip-path="url(#v)"><path style="stroke:none;fill-rule:nonzero;fill:#e6e584;fill-opacity:1" d="m240.738 45.902 12.946 58.04 13.488 17.699-26.434-75.739"/></g><g clip-path="url(#w)"><path style="fill:none;stroke-width:9.02001;stroke-linecap:round;stroke-linejoin:round;stroke:#231f20;stroke-opacity:1;stroke-miterlimit:10" d="m2413.574 1395.132 129.786-581.883L2678.59 635.8Zm0 0" transform="matrix(.09974 0 0 -.09974 0 185.058)"/></g><g clip-path="url(#x)"><path style="fill-rule:nonzero;fill:#cf7252;fill-opacity:1;stroke-width:9.02001;stroke-linecap:round;stroke-linejoin:round;stroke:#231f20;stroke-opacity:1;stroke-miterlimit:10" d="M2678.59 635.801 2543.36 813.25 1854.6 278.36" transform="matrix(.09974 0 0 -.09974 0 185.058)"/></g><path style="fill-rule:nonzero;fill:#82376a;fill-opacity:1;stroke-width:9.02001;stroke-linecap:round;stroke-linejoin:round;stroke:#231f20;stroke-opacity:1;stroke-miterlimit:10" d="M254.01 693.292 4.505 493.131l696.63-435.493" transform="matrix(.09974 0 0 -.09974 0 185.058)"/><path style="fill-rule:nonzero;fill:#82376a;fill-opacity:1;stroke-width:9.02001;stroke-linecap:round;stroke-linejoin:round;stroke:#231f20;stroke-opacity:1;stroke-miterlimit:10" d="M701.134 57.638 987.298 230.7 254.011 693.292" transform="matrix(.09974 0 0 -.09974 0 185.058)"/><path style="stroke:none;fill-rule:nonzero;fill:#2f52ab;fill-opacity:1" d="M22.203 56.7.45 135.87l24.887-19.965L22.203 56.7"/><path style="fill:none;stroke-width:9.02001;stroke-linecap:round;stroke-linejoin:round;stroke:#231f20;stroke-opacity:1;stroke-miterlimit:10" d="M222.602 1286.885 4.504 493.131 254.01 693.292Zm0 0" transform="matrix(.09974 0 0 -.09974 0 185.058)"/><g clip-path="url(#y)"><path style="stroke:none;fill-rule:nonzero;fill:#d0d0dc;fill-opacity:1" d="m253.684 103.941-12.946-58.039L172.395.453"/></g><g clip-path="url(#z)"><path style="fill:none;stroke-width:9.02001;stroke-linecap:round;stroke-linejoin:round;stroke:#231f20;stroke-opacity:1;stroke-miterlimit:10" d="m2543.36 813.249-129.786 581.883-685.195 455.66" transform="matrix(.09974 0 0 -.09974 0 185.058)"/></g><path style="fill-rule:nonzero;fill:#929bd3;fill-opacity:1;stroke-width:9.02001;stroke-linecap:round;stroke-linejoin:round;stroke:#231f20;stroke-opacity:1;stroke-miterlimit:10" d="m884.848 1811.238-662.246-524.353 31.409-593.593" transform="matrix(.09974 0 0 -.09974 0 185.058)"/><g clip-path="url(#A)"><path style="stroke:none;fill-rule:nonzero;fill:#9ccbee;fill-opacity:1" d="m88.258 4.398 49.195 23.211L172.395.453 88.258 4.398"/></g><g clip-path="url(#B)"><path style="fill:none;stroke-width:9.02001;stroke-linecap:round;stroke-linejoin:round;stroke:#231f20;stroke-opacity:1;stroke-miterlimit:10" d="m884.848 1811.238 493.218-232.706 350.313 272.26Zm0 0" transform="matrix(.09974 0 0 -.09974 0 185.058)"/></g><g clip-path="url(#C)"><path style="stroke:none;fill-rule:nonzero;fill:#d0d0dc;fill-opacity:1" d="m189.02 94.777 64.664 9.164L172.394.453"/></g><path style="fill:none;stroke-width:9.02001;stroke-linecap:round;stroke-linejoin:round;stroke:#231f20;stroke-opacity:1;stroke-miterlimit:10" d="m1895.056 905.125 648.304-91.876" transform="matrix(.09974 0 0 -.09974 0 185.058)"/><g clip-path="url(#D)"><path style="stroke:none;fill-rule:nonzero;fill:#d0d0dc;fill-opacity:1" d="M172.395.453 137.453 27.61l51.567 67.168"/></g><g clip-path="url(#E)"><path style="fill:none;stroke-width:9.02001;stroke-linecap:round;stroke-linejoin:round;stroke:#231f20;stroke-opacity:1;stroke-miterlimit:10" d="m1728.379 1850.793-350.313-272.261 516.99-673.407" transform="matrix(.09974 0 0 -.09974 0 185.058)"/></g><path style="fill-rule:nonzero;fill:#929bd3;fill-opacity:1;stroke-width:9.02001;stroke-linecap:round;stroke-linejoin:round;stroke:#231f20;stroke-opacity:1;stroke-miterlimit:10" d="m987.925 858.13 390.141 720.402-493.218 232.706" transform="matrix(.09974 0 0 -.09974 0 185.058)"/><path style="stroke:none;fill-rule:nonzero;fill:#929bd3;fill-opacity:1" d="m25.336 115.906 73.203-16.441L88.258 4.398"/><path style="fill:none;stroke-width:9.02001;stroke-linecap:round;stroke-linejoin:round;stroke:#231f20;stroke-opacity:1;stroke-miterlimit:10" d="M254.01 693.292 987.926 858.13" transform="matrix(.09974 0 0 -.09974 0 185.058)"/><path style="fill-rule:nonzero;fill:#b77d9a;fill-opacity:1;stroke-width:9.02001;stroke-linecap:round;stroke-linejoin:round;stroke:#231f20;stroke-opacity:1;stroke-miterlimit:10" d="m987.298 230.7 867.303 47.66 40.455 626.765" transform="matrix(.09974 0 0 -.09974 0 185.058)"/><path style="stroke:none;fill-rule:nonzero;fill:#c88b96;fill-opacity:1" d="m184.984 157.293 68.7-53.352-64.664-9.164-4.036 62.516"/><path style="fill:none;stroke-width:9.02001;stroke-linecap:round;stroke-linejoin:round;stroke:#231f20;stroke-opacity:1;stroke-miterlimit:10" d="m1854.6 278.36 688.76 534.889-648.304 91.876Zm0 0" transform="matrix(.09974 0 0 -.09974 0 185.058)"/><path style="stroke:none;fill-rule:nonzero;fill:#a5719d;fill-opacity:1" d="m98.477 162.047.062-62.582-73.203 16.441 73.14 46.14"/><path style="fill:none;stroke-width:9.02001;stroke-linecap:round;stroke-linejoin:round;stroke:#231f20;stroke-opacity:1;stroke-miterlimit:10" d="m987.298 230.7.627 627.43L254.01 693.291Zm0 0" transform="matrix(.09974 0 0 -.09974 0 185.058)"/><path style="fill-rule:nonzero;fill:#b77d9a;fill-opacity:1;stroke-width:9.02001;stroke-linecap:round;stroke-linejoin:round;stroke:#231f20;stroke-opacity:1;stroke-miterlimit:10" d="m1895.056 905.125-907.131-46.996-.627-627.43" transform="matrix(.09974 0 0 -.09974 0 185.058)"/><path style="stroke:none;fill-rule:nonzero;fill:#b6a8d2;fill-opacity:1" d="M137.453 27.61 98.54 99.464l90.48-4.688-51.566-67.168"/><path style="fill:none;stroke-width:9.02001;stroke-linecap:round;stroke-linejoin:round;stroke:#231f20;stroke-opacity:1;stroke-miterlimit:10" d="M1378.066 1578.532 987.925 858.129l907.131 46.996Zm0 0" transform="matrix(.09974 0 0 -.09974 0 185.058)"/></svg>