<svg xmlns="http://www.w3.org/2000/svg" width="392.4" height="245.72" viewBox="0 0 294.3 184.29" version="1.2"><defs><clipPath id="a"><path d="M207 10h86.387v90H207Zm0 0"/></clipPath><clipPath id="b"><path d="M.215 22H293v78H.215Zm0 0"/></clipPath><clipPath id="c"><path d="M.215 22H50v46H.215Zm0 0"/></clipPath><clipPath id="d"><path d="M.215 21H76v46H.215Zm0 0"/></clipPath><clipPath id="e"><path d="M.215 21H76v47H.215Zm0 0"/></clipPath><clipPath id="f"><path d="M222 36h71.387v64H222Zm0 0"/></clipPath><clipPath id="g"><path d="M.215 66H293v58H.215Zm0 0"/></clipPath><clipPath id="h"><path d="M.215 66H4v59H.215Zm0 0"/></clipPath><clipPath id="i"><path d="M.215 66H84v58H.215Zm0 0"/></clipPath><clipPath id="j"><path d="M.215 66H84v59H.215Zm0 0"/></clipPath><clipPath id="k"><path d="M.215 21H84v56H.215Zm0 0"/></clipPath><clipPath id="l"><path d="M.215 21H84v57H.215Zm0 0"/></clipPath><clipPath id="m"><path d="M180 36h113.387v64H180Zm0 0"/></clipPath><clipPath id="n"><path d="M165 99h128v84.582H165Zm0 0"/></clipPath><clipPath id="o"><path d="M165 99h128.387v84.582H165Zm0 0"/></clipPath><clipPath id="p"><path d="M65 99h228v84.582H65Zm0 0"/></clipPath><clipPath id="q"><path d="M64 170h103v13.582H64Zm0 0"/></clipPath><clipPath id="r"><path d="M180 86h113.387v69H180Zm0 0"/></clipPath><clipPath id="s"><path d="M65 87h116v96.582H65Zm0 0"/></clipPath><clipPath id="t"><path d="M64 86h117v97.582H64Zm0 0"/></clipPath><clipPath id="u"><path d="M165 87h91v96.582h-91Zm0 0"/></clipPath><clipPath id="v"><path d="M165 86h91v97.582h-91Zm0 0"/></clipPath></defs><path style="stroke:none;fill-rule:nonzero;fill:#a9c4ea;fill-opacity:1" d="m126.254 2.52-77.09 19.976 243.777 76.957"/><path style="fill:none;stroke-width:8.91912;stroke-linecap:round;stroke-linejoin:round;stroke:#231f20;stroke-opacity:1;stroke-miterlimit:10" d="m1265.234 1817.608-773.868-200.536" transform="matrix(.09962 0 0 -.09962 .216 183.583)"/><path style="fill-rule:nonzero;fill:#1c9cdf;fill-opacity:1;stroke-width:8.91912;stroke-linecap:round;stroke-linejoin:round;stroke:#231f20;stroke-opacity:1;stroke-miterlimit:10" d="m753.348 1622.562-261.982-5.49 773.868 200.536" transform="matrix(.09962 0 0 -.09962 .216 183.583)"/><path style="stroke:none;fill-rule:nonzero;fill:#2a1010;fill-opacity:1" d="M208.238 10.781 157.558.45l-31.304 2.07 81.984 8.262"/><path style="fill:none;stroke-width:8.91912;stroke-linecap:round;stroke-linejoin:round;stroke:#231f20;stroke-opacity:1;stroke-miterlimit:10" d="m2088.236 1734.672-508.75 103.719-314.252-20.783Zm0 0" transform="matrix(.09962 0 0 -.09962 .216 183.583)"/><path style="stroke:none;fill-rule:nonzero;fill:#a9c4ea;fill-opacity:1" d="M208.238 10.781 126.254 2.52 292.94 99.453"/><path style="fill:none;stroke-width:8.91912;stroke-linecap:round;stroke-linejoin:round;stroke:#231f20;stroke-opacity:1;stroke-miterlimit:10" d="m2088.236 1734.672-823.002 82.936" transform="matrix(.09962 0 0 -.09962 .216 183.583)"/><path style="fill-rule:nonzero;fill:#1c9cdf;fill-opacity:1;stroke-width:8.91912;stroke-linecap:round;stroke-linejoin:round;stroke:#231f20;stroke-opacity:1;stroke-miterlimit:10" d="m1265.234 1817.608 314.253 20.783-826.14-215.829" transform="matrix(.09962 0 0 -.09962 .216 183.583)"/><path style="stroke:none;fill-rule:nonzero;fill:#a9c4ea;fill-opacity:1" d="m292.941 99.453-21.277-53.676-63.426-34.996"/><g clip-path="url(#a)"><path style="fill:none;stroke-width:8.91912;stroke-linecap:round;stroke-linejoin:round;stroke:#231f20;stroke-opacity:1;stroke-miterlimit:10" d="m2938.53 844.537-213.592 538.826-636.702 351.31" transform="matrix(.09962 0 0 -.09962 .216 183.583)"/></g><path style="fill-rule:nonzero;fill:#94dce9;fill-opacity:1;stroke-width:8.91912;stroke-linecap:round;stroke-linejoin:round;stroke:#231f20;stroke-opacity:1;stroke-miterlimit:10" d="m1579.487 1838.39 508.75-103.718 636.7-351.31" transform="matrix(.09962 0 0 -.09962 .216 183.583)"/><g clip-path="url(#b)"><path style="stroke:none;fill-rule:nonzero;fill:#a9c4ea;fill-opacity:1" d="M49.164 22.496.66 66.824l292.281 32.63"/></g><g clip-path="url(#c)"><path style="fill:none;stroke-width:8.91912;stroke-linecap:round;stroke-linejoin:round;stroke:#231f20;stroke-opacity:1;stroke-miterlimit:10" d="M491.366 1617.072 4.458 1172.083" transform="matrix(.09962 0 0 -.09962 .216 183.583)"/></g><g clip-path="url(#d)"><path style="stroke:none;fill-rule:nonzero;fill:#2483ce;fill-opacity:1" d="m49.164 22.496 26.098-.547L.66 66.824l48.504-44.328"/></g><g clip-path="url(#e)"><path style="fill:none;stroke-width:8.91912;stroke-linecap:round;stroke-linejoin:round;stroke:#231f20;stroke-opacity:1;stroke-miterlimit:10" d="m491.366 1617.072 261.982 5.49-748.89-450.479Zm0 0" transform="matrix(.09962 0 0 -.09962 .216 183.583)"/></g><path style="fill-rule:nonzero;fill:#94dce9;fill-opacity:1;stroke-width:8.91912;stroke-linecap:round;stroke-linejoin:round;stroke:#231f20;stroke-opacity:1;stroke-miterlimit:10" d="m2724.938 1383.363-491.104 85.014-654.347 370.014" transform="matrix(.09962 0 0 -.09962 .216 183.583)"/><path style="stroke:none;fill-rule:nonzero;fill:#d6ece5;fill-opacity:1" d="M292.941 99.453 222.742 37.31l48.922 8.468 21.277 53.676"/><g clip-path="url(#f)"><path style="fill:none;stroke-width:8.91912;stroke-linecap:round;stroke-linejoin:round;stroke:#231f20;stroke-opacity:1;stroke-miterlimit:10" d="m2938.53 844.537-704.696 623.84 491.104-85.014Zm0 0" transform="matrix(.09962 0 0 -.09962 .216 183.583)"/></g><path style="fill-rule:nonzero;fill:#a6c6eb;fill-opacity:1;stroke-width:8.91912;stroke-linecap:round;stroke-linejoin:round;stroke:#231f20;stroke-opacity:1;stroke-miterlimit:10" d="m2233.834 1468.377-654.347 370.014-826.14-215.829" transform="matrix(.09962 0 0 -.09962 .216 183.583)"/><g clip-path="url(#g)"><path style="stroke:none;fill-rule:nonzero;fill:#a9c4ea;fill-opacity:1" d="m.66 66.824 2.363 56.77 289.918-24.14"/></g><g clip-path="url(#h)"><path style="fill:none;stroke-width:8.91912;stroke-linecap:round;stroke-linejoin:round;stroke:#231f20;stroke-opacity:1;stroke-miterlimit:10" d="m4.458 1172.083 23.724-569.882" transform="matrix(.09962 0 0 -.09962 .216 183.583)"/></g><g clip-path="url(#i)"><path style="stroke:none;fill-rule:nonzero;fill:#739ad7;fill-opacity:1" d="M83.16 76.566 3.023 123.594.66 66.824"/></g><g clip-path="url(#j)"><path style="fill:none;stroke-width:8.91912;stroke-linecap:round;stroke-linejoin:round;stroke:#231f20;stroke-opacity:1;stroke-miterlimit:10" d="M832.636 1074.286 28.182 602.201 4.458 1172.083" transform="matrix(.09962 0 0 -.09962 .216 183.583)"/></g><g clip-path="url(#k)"><path style="stroke:none;fill-rule:nonzero;fill:#739ad7;fill-opacity:1" d="M.66 66.824 75.262 21.95l7.898 54.617"/></g><g clip-path="url(#l)"><path style="fill:none;stroke-width:8.91912;stroke-linecap:round;stroke-linejoin:round;stroke:#231f20;stroke-opacity:1;stroke-miterlimit:10" d="m4.458 1172.083 748.89 450.48 79.288-548.277" transform="matrix(.09962 0 0 -.09962 .216 183.583)"/></g><path style="stroke:none;fill-rule:nonzero;fill:#a6c6eb;fill-opacity:1" d="m75.262 21.95 7.898 54.616L222.742 37.31"/><path style="fill:none;stroke-width:8.91912;stroke-linecap:round;stroke-linejoin:round;stroke:#231f20;stroke-opacity:1;stroke-miterlimit:10" d="m753.348 1622.562 79.288-548.276" transform="matrix(.09962 0 0 -.09962 .216 183.583)"/><path style="stroke:none;fill-rule:nonzero;fill:#d0cedb;fill-opacity:1" d="M292.941 99.453 222.742 37.31l-42.297 50.125"/><g clip-path="url(#m)"><path style="fill:none;stroke-width:8.91912;stroke-linecap:round;stroke-linejoin:round;stroke:#231f20;stroke-opacity:1;stroke-miterlimit:10" d="m2938.53 844.537-704.696 623.84-424.598-503.181" transform="matrix(.09962 0 0 -.09962 .216 183.583)"/></g><path style="fill-rule:nonzero;fill:#a6c6eb;fill-opacity:1;stroke-width:8.91912;stroke-linecap:round;stroke-linejoin:round;stroke:#231f20;stroke-opacity:1;stroke-miterlimit:10" d="m832.636 1074.286 976.6-109.09 424.598 503.18" transform="matrix(.09962 0 0 -.09962 .216 183.583)"/><g clip-path="url(#n)"><path style="stroke:none;fill-rule:nonzero;fill:#a9c4ea;fill-opacity:1" d="m165.809 183.137 89.421-29.367 37.711-54.317"/></g><g clip-path="url(#o)"><path style="fill:none;stroke-width:8.91912;stroke-linecap:round;stroke-linejoin:round;stroke:#231f20;stroke-opacity:1;stroke-miterlimit:10" d="m1662.305 4.477 897.664 294.804 378.562 545.256" transform="matrix(.09962 0 0 -.09962 .216 183.583)"/></g><g clip-path="url(#p)"><path style="stroke:none;fill-rule:nonzero;fill:#a9c4ea;fill-opacity:1" d="m65.355 170.563 100.454 12.574L292.94 99.453"/></g><g clip-path="url(#q)"><path style="fill:none;stroke-width:8.91912;stroke-linecap:round;stroke-linejoin:round;stroke:#231f20;stroke-opacity:1;stroke-miterlimit:10" d="M653.903 130.704 1662.305 4.477" transform="matrix(.09962 0 0 -.09962 .216 183.583)"/></g><path style="stroke:none;fill-rule:nonzero;fill:#a9c4ea;fill-opacity:1" d="m3.023 123.594 62.332 46.969 227.586-71.11"/><path style="fill:none;stroke-width:8.91912;stroke-linecap:round;stroke-linejoin:round;stroke:#231f20;stroke-opacity:1;stroke-miterlimit:10" d="m28.182 602.2 625.721-471.496" transform="matrix(.09962 0 0 -.09962 .216 183.583)"/><path style="stroke:none;fill-rule:nonzero;fill:#d0cedb;fill-opacity:1" d="m180.445 87.434 74.785 66.336 37.711-54.317"/><g clip-path="url(#r)"><path style="fill:none;stroke-width:8.91912;stroke-linecap:round;stroke-linejoin:round;stroke:#231f20;stroke-opacity:1;stroke-miterlimit:10" d="m1809.236 965.196 750.733-665.915 378.562 545.256" transform="matrix(.09962 0 0 -.09962 .216 183.583)"/></g><path style="stroke:none;fill-rule:nonzero;fill:#9396cf;fill-opacity:1" d="M3.023 123.594 83.16 76.566l-17.805 93.996-62.332-46.968"/><path style="fill:none;stroke-width:8.91912;stroke-linecap:round;stroke-linejoin:round;stroke:#231f20;stroke-opacity:1;stroke-miterlimit:10" d="m28.182 602.2 804.454 472.086-178.733-943.582Zm0 0" transform="matrix(.09962 0 0 -.09962 .216 183.583)"/><path style="fill-rule:nonzero;fill:#aea7d8;fill-opacity:1;stroke-width:8.91912;stroke-linecap:round;stroke-linejoin:round;stroke:#231f20;stroke-opacity:1;stroke-miterlimit:10" d="m653.903 130.704 178.733 943.582 976.6-109.09" transform="matrix(.09962 0 0 -.09962 .216 183.583)"/><g clip-path="url(#s)"><path style="stroke:none;fill-rule:nonzero;fill:#aea7d8;fill-opacity:1" d="m180.445 87.434-14.636 95.703-100.454-12.575"/></g><g clip-path="url(#t)"><path style="fill:none;stroke-width:8.91912;stroke-linecap:round;stroke-linejoin:round;stroke:#231f20;stroke-opacity:1;stroke-miterlimit:10" d="M1809.236 965.196 1662.305 4.477 653.903 130.704" transform="matrix(.09962 0 0 -.09962 .216 183.583)"/></g><g clip-path="url(#u)"><path style="stroke:none;fill-rule:nonzero;fill:#c4b4cf;fill-opacity:1" d="m165.809 183.137 14.636-95.703 74.785 66.336-89.421 29.367"/></g><g clip-path="url(#v)"><path style="fill:none;stroke-width:8.91912;stroke-linecap:round;stroke-linejoin:round;stroke:#231f20;stroke-opacity:1;stroke-miterlimit:10" d="m1662.305 4.477 146.93 960.719L2559.97 299.28Zm0 0" transform="matrix(.09962 0 0 -.09962 .216 183.583)"/></g></svg>