<svg xmlns="http://www.w3.org/2000/svg" width="271.933" height="253.4" viewBox="0 0 203.95 190.05" version="1.2"><defs><clipPath id="a"><path d="M23 74h106v115.105H23Zm0 0"/></clipPath><clipPath id="b"><path d="M118 75h85.418v114H118Zm0 0"/></clipPath><clipPath id="c"><path d="M117 74h86.418v115.105H117Zm0 0"/></clipPath><clipPath id="d"><path d="M127 25h76.418v99H127Zm0 0"/></clipPath><clipPath id="e"><path d="M127 24h76.418v101H127Zm0 0"/></clipPath><clipPath id="f"><path d="M23 117h96v72.105H23Zm0 0"/></clipPath><clipPath id="g"><path d="M89 123h114.418v66H89Zm0 0"/></clipPath><clipPath id="h"><path d="M88 123h115.418v66.105H88Zm0 0"/></clipPath><clipPath id="i"><path d="M.48 0H42v118H.48Zm0 0"/></clipPath><clipPath id="j"><path d="M.48 0H43v119H.48Zm0 0"/></clipPath><clipPath id="k"><path d="M.48 0H129v48H.48Zm0 0"/></clipPath><clipPath id="l"><path d="M.48 0H130v49H.48Zm0 0"/></clipPath><clipPath id="m"><path d="M.48 47H90v102H.48Zm0 0"/></clipPath><clipPath id="n"><path d="M89 25h114.418v124H89Zm0 0"/></clipPath><clipPath id="o"><path d="M88 24h115.418v125H88Zm0 0"/></clipPath><clipPath id="p"><path d="M.48 25H129v124H.48Zm0 0"/></clipPath><clipPath id="q"><path d="M.48 24H130v125H.48Zm0 0"/></clipPath></defs><path style="stroke:none;fill-rule:nonzero;fill:#78525b;fill-opacity:1" d="m41.922.344 86.773 24.746-.863 50.082L41.922.344"/><path style="fill:none;stroke-width:6.94;stroke-linecap:round;stroke-linejoin:round;stroke:#231f20;stroke-opacity:1;stroke-miterlimit:10" d="m416.467 1897.045 872.072-248.698-8.676-503.323Zm0 0" transform="matrix(.0995 0 0 -.0995 .482 189.105)"/><path style="stroke:none;fill-rule:nonzero;fill:#c8acb1;fill-opacity:1" d="M24.219 117.918 41.922.344l85.91 74.828-103.613 42.746"/><path style="fill:none;stroke-width:6.94;stroke-linecap:round;stroke-linejoin:round;stroke:#231f20;stroke-opacity:1;stroke-miterlimit:10" d="m238.55 715.426 177.917 1181.62 863.396-752.022Zm0 0" transform="matrix(.0995 0 0 -.0995 .482 189.105)"/><path style="stroke:none;fill-rule:nonzero;fill:#c5afb9;fill-opacity:1" d="m127.832 75.172-9.496 113.586-94.117-70.84 103.613-42.746"/><g clip-path="url(#a)"><path style="fill:none;stroke-width:6.94;stroke-linecap:round;stroke-linejoin:round;stroke:#231f20;stroke-opacity:1;stroke-miterlimit:10" d="M1279.863 1145.024 1184.427 3.486l-945.876 711.94Zm0 0" transform="matrix(.0995 0 0 -.0995 .482 189.105)"/></g><g clip-path="url(#b)"><path style="stroke:none;fill-rule:nonzero;fill:#a08cab;fill-opacity:1" d="m127.832 75.172 75.242 48.758-84.738 64.828 9.496-113.586"/></g><g clip-path="url(#c)"><path style="fill:none;stroke-width:6.94;stroke-linecap:round;stroke-linejoin:round;stroke:#231f20;stroke-opacity:1;stroke-miterlimit:10" d="m1279.863 1145.024 756.183-490.016L1184.427 3.486Zm0 0" transform="matrix(.0995 0 0 -.0995 .482 189.105)"/></g><g clip-path="url(#d)"><path style="stroke:none;fill-rule:nonzero;fill:#5e4351;fill-opacity:1" d="m128.695 25.09 74.38 98.84-75.243-48.758.863-50.082"/></g><g clip-path="url(#e)"><path style="fill:none;stroke-width:6.94;stroke-linecap:round;stroke-linejoin:round;stroke:#231f20;stroke-opacity:1;stroke-miterlimit:10" d="m1288.539 1648.347 747.507-993.339-756.183 490.016Zm0 0" transform="matrix(.0995 0 0 -.0995 .482 189.105)"/></g><path style="stroke:none;fill-rule:nonzero;fill:#282323;fill-opacity:1" d="m118.336 188.758-29.023-40.703-65.094-30.137 94.117 70.84"/><g clip-path="url(#f)"><path style="fill:none;stroke-width:6.94;stroke-linecap:round;stroke-linejoin:round;stroke:#231f20;stroke-opacity:1;stroke-miterlimit:10" d="M1184.427 3.486 892.742 412.552 238.551 715.426Zm0 0" transform="matrix(.0995 0 0 -.0995 .482 189.105)"/></g><g clip-path="url(#g)"><path style="stroke:none;fill-rule:nonzero;fill:#c47d63;fill-opacity:1" d="M203.074 123.93 89.312 148.055l29.024 40.703 84.738-64.828"/></g><g clip-path="url(#h)"><path style="fill:none;stroke-width:6.94;stroke-linecap:round;stroke-linejoin:round;stroke:#231f20;stroke-opacity:1;stroke-miterlimit:10" d="M2036.046 655.008 892.742 412.552 1184.427 3.486Zm0 0" transform="matrix(.0995 0 0 -.0995 .482 189.105)"/></g><g clip-path="url(#i)"><path style="stroke:none;fill-rule:nonzero;fill:#f7c07b;fill-opacity:1" d="M24.219 117.918.829 47.723 41.921.343 24.219 117.919"/></g><g clip-path="url(#j)"><path style="fill:none;stroke-width:6.94;stroke-linecap:round;stroke-linejoin:round;stroke:#231f20;stroke-opacity:1;stroke-miterlimit:10" d="M238.55 715.426 3.476 1420.888l412.992 476.157Zm0 0" transform="matrix(.0995 0 0 -.0995 .482 189.105)"/></g><g clip-path="url(#k)"><path style="stroke:none;fill-rule:nonzero;fill:#9cb1dc;fill-opacity:1" d="M.828 47.723 128.695 25.09 41.922.344.828 47.723"/></g><g clip-path="url(#l)"><path style="fill:none;stroke-width:6.94;stroke-linecap:round;stroke-linejoin:round;stroke:#231f20;stroke-opacity:1;stroke-miterlimit:10" d="m3.475 1420.888 1285.064 227.46-872.072 248.697Zm0 0" transform="matrix(.0995 0 0 -.0995 .482 189.105)"/></g><g clip-path="url(#m)"><path style="stroke:none;fill-rule:nonzero;fill:#57414b;fill-opacity:1" d="M89.313 148.055.828 47.723l23.39 70.195 65.094 30.137"/><path style="fill:none;stroke-width:6.94;stroke-linecap:round;stroke-linejoin:round;stroke:#231f20;stroke-opacity:1;stroke-miterlimit:10" d="M892.742 412.552 3.475 1420.888l235.076-705.462Zm0 0" transform="matrix(.0995 0 0 -.0995 .482 189.105)"/></g><g clip-path="url(#n)"><path style="stroke:none;fill-rule:nonzero;fill:#ccb0b3;fill-opacity:1" d="m89.313 148.055 113.761-24.125-74.379-98.84-39.382 122.965"/></g><g clip-path="url(#o)"><path style="fill:none;stroke-width:6.94;stroke-linecap:round;stroke-linejoin:round;stroke:#231f20;stroke-opacity:1;stroke-miterlimit:10" d="m892.742 412.552 1143.304 242.456-747.507 993.34Zm0 0" transform="matrix(.0995 0 0 -.0995 .482 189.105)"/></g><g clip-path="url(#p)"><path style="stroke:none;fill-rule:nonzero;fill:#c4adb7;fill-opacity:1" d="M128.695 25.09.828 47.723l88.484 100.332L128.696 25.09"/></g><g clip-path="url(#q)"><path style="fill:none;stroke-width:6.94;stroke-linecap:round;stroke-linejoin:round;stroke:#231f20;stroke-opacity:1;stroke-miterlimit:10" d="M1288.539 1648.347 3.475 1420.887 892.742 412.553Zm0 0" transform="matrix(.0995 0 0 -.0995 .482 189.105)"/></g></svg>