<svg xmlns="http://www.w3.org/2000/svg" width="340.52" height="245.96" viewBox="0 0 255.39 184.47" version="1.2"><defs><clipPath id="a"><path d="M.063 132H105v51.941H.062Zm0 0"/></clipPath><clipPath id="b"><path d="M.063 131H106v52.941H.062Zm0 0"/></clipPath><clipPath id="c"><path d="M94 73h95v110.941H94Zm0 0"/></clipPath><clipPath id="d"><path d="M.063 63H95v110H.062Zm0 0"/></clipPath><clipPath id="e"><path d="M.063 63H96v111H.062Zm0 0"/></clipPath><clipPath id="f"><path d="M188 12h66.719v108H188Zm0 0"/></clipPath><clipPath id="g"><path d="M188 12h66.719v109H188Zm0 0"/></clipPath><clipPath id="h"><path d="M104 73h104v110.941H104Zm0 0"/></clipPath><clipPath id="i"><path d="M135 0h119.719v74H135Zm0 0"/></clipPath><clipPath id="j"><path d="M134 0h120.719v74H134Zm0 0"/></clipPath><clipPath id="k"><path d="M.063 63H37v110H.062Zm0 0"/></clipPath><clipPath id="l"><path d="M.063 63H38v111H.062Zm0 0"/></clipPath><clipPath id="m"><path d="M.063 136H105v47.941H.062Zm0 0"/></clipPath><clipPath id="n"><path d="M.063 136H106v47.941H.062Zm0 0"/></clipPath><clipPath id="o"><path d="M135 0h119.719v20H135Zm0 0"/></clipPath><clipPath id="p"><path d="M134 0h120.719v21H134Zm0 0"/></clipPath><clipPath id="q"><path d="M191 12h63.719v108H191Zm0 0"/></clipPath><clipPath id="r"><path d="M191 12h63.719v109H191Zm0 0"/></clipPath><clipPath id="s"><path d="M7 131h119v52.941H7Zm0 0"/></clipPath><clipPath id="t"><path d="M6 131h121v52.941H6Zm0 0"/></clipPath><clipPath id="u"><path d="M104 119h104v64.941H104Zm0 0"/></clipPath></defs><g clip-path="url(#a)"><path style="stroke:none;fill-rule:nonzero;fill:#9cbfe7;fill-opacity:1" d="m.496 172.824 94.383-40.46 10.098 51.14-104.48-10.68"/></g><g clip-path="url(#b)"><path style="fill:none;stroke-width:8.74;stroke-linecap:round;stroke-linejoin:round;stroke:#231f20;stroke-opacity:1;stroke-miterlimit:10" d="m4.356 111.492 946.54 405.772L1052.163 4.39Zm0 0" transform="matrix(.09971 0 0 -.09971 .062 183.942)"/></g><g clip-path="url(#c)"><path style="fill-rule:nonzero;fill:#799ed9;fill-opacity:1;stroke-width:8.74;stroke-linecap:round;stroke-linejoin:round;stroke:#231f20;stroke-opacity:1;stroke-miterlimit:10" d="M1052.163 4.389 950.896 517.264l938.51 589.933" transform="matrix(.09971 0 0 -.09971 .062 183.942)"/></g><g clip-path="url(#d)"><path style="stroke:none;fill-rule:nonzero;fill:#cea0ae;fill-opacity:1" d="m36.691 63.758 58.188 68.605L.496 172.824 36.691 63.758"/></g><g clip-path="url(#e)"><path style="fill:none;stroke-width:8.74;stroke-linecap:round;stroke-linejoin:round;stroke:#231f20;stroke-opacity:1;stroke-miterlimit:10" d="m367.35 1205.29 583.546-688.026L4.356 111.492Zm0 0" transform="matrix(.09971 0 0 -.09971 .062 183.942)"/></g><path style="fill-rule:nonzero;fill:#c08ba3;fill-opacity:1;stroke-width:8.74;stroke-linecap:round;stroke-linejoin:round;stroke:#231f20;stroke-opacity:1;stroke-miterlimit:10" d="M950.896 517.264 367.35 1205.29l989.045 635.1" transform="matrix(.09971 0 0 -.09971 .062 183.942)"/><path style="fill-rule:nonzero;fill:#c08ba3;fill-opacity:1;stroke-width:8.74;stroke-linecap:round;stroke-linejoin:round;stroke:#231f20;stroke-opacity:1;stroke-miterlimit:10" d="m1356.394 1840.39 533.011-733.193-938.509-589.933" transform="matrix(.09971 0 0 -.09971 .062 183.942)"/><g clip-path="url(#f)"><path style="stroke:none;fill-rule:nonzero;fill:#5175c3;fill-opacity:1" d="M207.5 119.816 188.46 73.54l65.821-60.852-46.781 107.13"/></g><g clip-path="url(#g)"><path style="fill:none;stroke-width:8.74;stroke-linecap:round;stroke-linejoin:round;stroke:#231f20;stroke-opacity:1;stroke-miterlimit:10" d="m2080.343 643.093-190.938 464.104L2549.5 1717.46Zm0 0" transform="matrix(.09971 0 0 -.09971 .062 183.942)"/></g><g clip-path="url(#h)"><path style="fill-rule:nonzero;fill:#799ed9;fill-opacity:1;stroke-width:8.74;stroke-linecap:round;stroke-linejoin:round;stroke:#231f20;stroke-opacity:1;stroke-miterlimit:10" d="m1889.405 1107.197 190.938-464.104L1052.163 4.39" transform="matrix(.09971 0 0 -.09971 .062 183.942)"/></g><g clip-path="url(#i)"><path style="stroke:none;fill-rule:nonzero;fill:#ac7296;fill-opacity:1" d="m254.281 12.688-65.82 60.851L135.312.43l118.97 12.258"/></g><g clip-path="url(#j)"><path style="fill:none;stroke-width:8.74;stroke-linecap:round;stroke-linejoin:round;stroke:#231f20;stroke-opacity:1;stroke-miterlimit:10" d="m2549.5 1717.46-660.095-610.263-533.011 733.194Zm0 0" transform="matrix(.09971 0 0 -.09971 .062 183.942)"/></g><g clip-path="url(#k)"><path style="stroke:none;fill-rule:nonzero;fill:#ca8420;fill-opacity:1" d="M36.691 63.758.496 172.824 7.34 136.59 36.69 63.758"/></g><g clip-path="url(#l)"><path style="fill:none;stroke-width:8.74;stroke-linecap:round;stroke-linejoin:round;stroke:#231f20;stroke-opacity:1;stroke-miterlimit:10" d="M367.35 1205.29 4.355 111.492l68.635 363.385Zm0 0" transform="matrix(.09971 0 0 -.09971 .062 183.942)"/></g><g clip-path="url(#m)"><path style="stroke:none;fill-rule:nonzero;fill:#86264a;fill-opacity:1" d="m.496 172.824 104.48 10.68L7.34 136.59.496 172.824"/></g><g clip-path="url(#n)"><path style="fill:none;stroke-width:8.74;stroke-linecap:round;stroke-linejoin:round;stroke:#231f20;stroke-opacity:1;stroke-miterlimit:10" d="M4.356 111.492 1052.163 4.39 72.99 474.877Zm0 0" transform="matrix(.09971 0 0 -.09971 .062 183.942)"/></g><path style="stroke:none;fill-rule:nonzero;fill:#bd5128;fill-opacity:1" d="M62.32 22.313 135.313.43 36.69 63.758l25.63-41.446"/><path style="fill:none;stroke-width:8.74;stroke-linecap:round;stroke-linejoin:round;stroke:#231f20;stroke-opacity:1;stroke-miterlimit:10" d="m624.375 1620.934 732.019 219.457-989.045-635.1Zm0 0" transform="matrix(.09971 0 0 -.09971 .062 183.942)"/><path style="stroke:none;fill-rule:nonzero;fill:#30338a;fill-opacity:1" d="M62.32 22.313 36.691 63.758 7.34 136.59 62.32 22.312"/><path style="fill:none;stroke-width:8.74;stroke-linecap:round;stroke-linejoin:round;stroke:#231f20;stroke-opacity:1;stroke-miterlimit:10" d="M624.375 1620.934 367.349 1205.29 72.991 474.877Zm0 0" transform="matrix(.09971 0 0 -.09971 .062 183.942)"/><path style="stroke:none;fill-rule:nonzero;fill:#6ecef5;fill-opacity:1" d="M191.508 19.617 135.312.43 62.32 22.313l129.188-2.696"/><path style="fill:none;stroke-width:8.74;stroke-linecap:round;stroke-linejoin:round;stroke:#231f20;stroke-opacity:1;stroke-miterlimit:10" d="m1919.962 1647.965-563.568 192.426-732.02-219.457Zm0 0" transform="matrix(.09971 0 0 -.09971 .062 183.942)"/><g clip-path="url(#o)"><path style="stroke:none;fill-rule:nonzero;fill:#63cbf4;fill-opacity:1" d="M254.281 12.688 135.312.43l56.196 19.187 62.773-6.93"/></g><g clip-path="url(#p)"><path style="fill:none;stroke-width:8.74;stroke-linecap:round;stroke-linejoin:round;stroke:#231f20;stroke-opacity:1;stroke-miterlimit:10" d="m2549.5 1717.46-1193.106 122.93 563.568-192.425Zm0 0" transform="matrix(.09971 0 0 -.09971 .062 183.942)"/></g><g clip-path="url(#q)"><path style="stroke:none;fill-rule:nonzero;fill:#e6b09e;fill-opacity:1" d="m207.5 119.816 46.781-107.129-62.773 6.93 15.992 100.2"/></g><g clip-path="url(#r)"><path style="fill:none;stroke-width:8.74;stroke-linecap:round;stroke-linejoin:round;stroke:#231f20;stroke-opacity:1;stroke-miterlimit:10" d="m2080.343 643.093 469.156 1074.367-629.537-69.495Zm0 0" transform="matrix(.09971 0 0 -.09971 .062 183.942)"/></g><g clip-path="url(#s)"><path style="stroke:none;fill-rule:nonzero;fill:#9d4c6c;fill-opacity:1" d="m7.34 136.59 97.637 46.914 21-51.984L7.34 136.59"/></g><g clip-path="url(#t)"><path style="fill:none;stroke-width:8.74;stroke-linecap:round;stroke-linejoin:round;stroke:#231f20;stroke-opacity:1;stroke-miterlimit:10" d="M72.99 474.877 1052.164 4.39l210.603 521.337Zm0 0" transform="matrix(.09971 0 0 -.09971 .062 183.942)"/></g><g clip-path="url(#u)"><path style="stroke:none;fill-rule:nonzero;fill:#c5644a;fill-opacity:1" d="m125.977 131.52-21 51.984L207.5 119.816l-81.523 11.704"/><path style="fill:none;stroke-width:8.74;stroke-linecap:round;stroke-linejoin:round;stroke:#231f20;stroke-opacity:1;stroke-miterlimit:10" d="M1262.766 525.726 1052.163 4.389l1028.18 638.704Zm0 0" transform="matrix(.09971 0 0 -.09971 .062 183.942)"/></g><path style="stroke:none;fill-rule:nonzero;fill:#dca5a1;fill-opacity:1" d="m125.977 131.52 81.523-11.704-15.992-100.199-65.531 111.903"/><path style="fill:none;stroke-width:8.74;stroke-linecap:round;stroke-linejoin:round;stroke:#231f20;stroke-opacity:1;stroke-miterlimit:10" d="m1262.766 525.726 817.577 117.367-160.381 1004.872Zm0 0" transform="matrix(.09971 0 0 -.09971 .062 183.942)"/><path style="stroke:none;fill-rule:nonzero;fill:#a490c5;fill-opacity:1" d="m7.34 136.59 118.637-5.07L62.32 22.312 7.34 136.59"/><path style="fill:none;stroke-width:8.74;stroke-linecap:round;stroke-linejoin:round;stroke:#231f20;stroke-opacity:1;stroke-miterlimit:10" d="m72.99 474.877 1189.776 50.849-638.391 1095.208Zm0 0" transform="matrix(.09971 0 0 -.09971 .062 183.942)"/><path style="stroke:none;fill-rule:nonzero;fill:#b09ecc;fill-opacity:1" d="m125.977 131.52 65.53-111.903L62.32 22.312l63.657 109.208"/><path style="fill:none;stroke-width:8.74;stroke-linecap:round;stroke-linejoin:round;stroke:#231f20;stroke-opacity:1;stroke-miterlimit:10" d="m1262.766 525.726 657.196 1122.239-1295.587-27.031Zm0 0" transform="matrix(.09971 0 0 -.09971 .062 183.942)"/></svg>