<svg xmlns="http://www.w3.org/2000/svg" width="356" height="199pt" viewBox="0 0 267 199" version="1.2"><path style="fill-rule:nonzero;fill:#c05a4a;fill-opacity:1;stroke-width:8.74;stroke-linecap:round;stroke-linejoin:round;stroke:#000;stroke-opacity:1;stroke-miterlimit:10" d="m1168.086 1438.125-793.984-158.75 306.601 466.992" transform="matrix(.1 0 0 -.1 0 199)"/><path style="fill-rule:nonzero;fill:#c05a4a;fill-opacity:1;stroke-width:8.74;stroke-linecap:round;stroke-linejoin:round;stroke:#000;stroke-opacity:1;stroke-miterlimit:10" d="m680.703 1746.367 831.953 150.43-344.57-458.672" transform="matrix(.1 0 0 -.1 0 199)"/><path style="stroke:none;fill-rule:nonzero;fill:#a15878;fill-opacity:1" d="m151.266 9.32 53.851 52.07-88.308-6.203"/><path style="fill:none;stroke-width:8.74;stroke-linecap:round;stroke-linejoin:round;stroke:#000;stroke-opacity:1;stroke-miterlimit:10" d="m1512.656 1896.797 538.516-520.703-883.086 62.031Zm0 0" transform="matrix(.1 0 0 -.1 0 199)"/><path style="stroke:none;fill-rule:nonzero;fill:#ad96be;fill-opacity:1" d="M151.023 133.965 116.81 55.187l88.308 6.204"/><path style="fill:none;stroke-width:8.74;stroke-linecap:round;stroke-linejoin:round;stroke:#000;stroke-opacity:1;stroke-miterlimit:10" d="m1510.234 650.352-342.148 787.773 883.086-62.031Zm0 0" transform="matrix(.1 0 0 -.1 0 199)"/><path style="fill-rule:nonzero;fill:#c4b1c7;fill-opacity:1;stroke-width:8.74;stroke-linecap:round;stroke-linejoin:round;stroke:#000;stroke-opacity:1;stroke-miterlimit:10" d="m374.102 1279.375 793.984 158.75 342.148-787.773" transform="matrix(.1 0 0 -.1 0 199)"/><path style="fill-rule:nonzero;fill:#170000;fill-opacity:1;stroke-width:8.74;stroke-linecap:round;stroke-linejoin:round;stroke:#000;stroke-opacity:1;stroke-miterlimit:10" d="m2608.633 1114.18-557.461 261.914-538.516 520.703" transform="matrix(.1 0 0 -.1 0 199)"/><path style="fill-rule:nonzero;fill:#898ace;fill-opacity:1;stroke-width:8.74;stroke-linecap:round;stroke-linejoin:round;stroke:#000;stroke-opacity:1;stroke-miterlimit:10" d="m2051.172 1376.094 557.46-261.914-570.273-773.868" transform="matrix(.1 0 0 -.1 0 199)"/><path style="fill-rule:nonzero;fill:#898ace;fill-opacity:1;stroke-width:8.74;stroke-linecap:round;stroke-linejoin:round;stroke:#000;stroke-opacity:1;stroke-miterlimit:10" d="m2038.36 340.313-528.126 310.039 540.938 725.742" transform="matrix(.1 0 0 -.1 0 199)"/><path style="fill-rule:nonzero;fill:#c4b1c7;fill-opacity:1;stroke-width:8.74;stroke-linecap:round;stroke-linejoin:round;stroke:#000;stroke-opacity:1;stroke-miterlimit:10" d="M1510.234 650.352 710.47 456.797l-336.367 822.578" transform="matrix(.1 0 0 -.1 0 199)"/><path style="fill-rule:nonzero;fill:#9fc7f4;fill-opacity:1;stroke-width:8.74;stroke-linecap:round;stroke-linejoin:round;stroke:#000;stroke-opacity:1;stroke-miterlimit:10" d="m710.469 456.797 799.765 193.555 528.125-310.04" transform="matrix(.1 0 0 -.1 0 199)"/><path style="stroke:none;fill-rule:nonzero;fill:#b23a00;fill-opacity:1" d="m68.07 24.363-30.66 46.7-29.555 32.144"/><path style="fill:none;stroke-width:8.74;stroke-linecap:round;stroke-linejoin:round;stroke:#000;stroke-opacity:1;stroke-miterlimit:10" d="m680.703 1746.367-306.601-466.992L78.555 957.93Zm0 0" transform="matrix(.1 0 0 -.1 0 199)"/><path style="stroke:none;fill-rule:nonzero;fill:#e5dccb;fill-opacity:1" d="M71.047 153.32 7.855 103.207 37.41 71.063"/><path style="fill:none;stroke-width:8.74;stroke-linecap:round;stroke-linejoin:round;stroke:#000;stroke-opacity:1;stroke-miterlimit:10" d="M710.469 456.797 78.555 957.93l295.547 321.445Zm0 0" transform="matrix(.1 0 0 -.1 0 199)"/><path style="fill-rule:nonzero;fill:#170000;fill-opacity:1;stroke-width:8.74;stroke-linecap:round;stroke-linejoin:round;stroke:#000;stroke-opacity:1;stroke-miterlimit:10" d="m1512.656 1896.797 550.117-240.899 545.86-541.718" transform="matrix(.1 0 0 -.1 0 199)"/><path style="fill-rule:nonzero;fill:#90cefd;fill-opacity:1;stroke-width:8.74;stroke-linecap:round;stroke-linejoin:round;stroke:#000;stroke-opacity:1;stroke-miterlimit:10" d="m1512.656 1896.797-831.953-150.43 517.11-261.758" transform="matrix(.1 0 0 -.1 0 199)"/><path style="fill-rule:nonzero;fill:#90cefd;fill-opacity:1;stroke-width:8.74;stroke-linecap:round;stroke-linejoin:round;stroke:#000;stroke-opacity:1;stroke-miterlimit:10" d="m1197.813 1484.61 864.96 171.288-550.117 240.899" transform="matrix(.1 0 0 -.1 0 199)"/><path style="fill-rule:nonzero;fill:#000;fill-opacity:1;stroke-width:8.74;stroke-linecap:round;stroke-linejoin:round;stroke:#000;stroke-opacity:1;stroke-miterlimit:10" d="M558.867 639.14 78.555 957.93l631.914-501.133" transform="matrix(.1 0 0 -.1 0 199)"/><path style="fill-rule:nonzero;fill:#9fc7f4;fill-opacity:1;stroke-width:8.74;stroke-linecap:round;stroke-linejoin:round;stroke:#000;stroke-opacity:1;stroke-miterlimit:10" d="m2038.36 340.313-830.196-219.258L710.47 456.797" transform="matrix(.1 0 0 -.1 0 199)"/><path style="fill-rule:nonzero;fill:#000;fill-opacity:1;stroke-width:8.74;stroke-linecap:round;stroke-linejoin:round;stroke:#000;stroke-opacity:1;stroke-miterlimit:10" d="m710.469 456.797 497.695-335.742L558.867 639.14" transform="matrix(.1 0 0 -.1 0 199)"/><path style="stroke:none;fill-rule:nonzero;fill:#0025b0;fill-opacity:1" d="m203.836 164.969 57.027-77.387-13.336 34.777"/><path style="fill:none;stroke-width:8.74;stroke-linecap:round;stroke-linejoin:round;stroke:#000;stroke-opacity:1;stroke-miterlimit:10" d="m2038.36 340.313 570.273 773.867-133.36-347.774Zm0 0" transform="matrix(.1 0 0 -.1 0 199)"/><path style="stroke:none;fill-rule:nonzero;fill:#edefc8;fill-opacity:1" d="m206.277 33.41 41.25 88.95 13.336-34.778"/><path style="fill:none;stroke-width:8.74;stroke-linecap:round;stroke-linejoin:round;stroke:#000;stroke-opacity:1;stroke-miterlimit:10" d="m2062.773 1655.898 412.5-889.492 133.36 347.774Zm0 0" transform="matrix(.1 0 0 -.1 0 199)"/><path style="fill-rule:nonzero;fill:#b73b18;fill-opacity:1;stroke-width:8.74;stroke-linecap:round;stroke-linejoin:round;stroke:#000;stroke-opacity:1;stroke-miterlimit:10" d="m1208.164 121.055 830.195 219.257 436.914 426.094" transform="matrix(.1 0 0 -.1 0 199)"/><path style="fill-rule:nonzero;fill:#7e87d2;fill-opacity:1;stroke-width:8.74;stroke-linecap:round;stroke-linejoin:round;stroke:#000;stroke-opacity:1;stroke-miterlimit:10" d="m1197.813 1484.61-517.11 261.757L78.555 957.93" transform="matrix(.1 0 0 -.1 0 199)"/><path style="fill-rule:nonzero;fill:#7e87d2;fill-opacity:1;stroke-width:8.74;stroke-linecap:round;stroke-linejoin:round;stroke:#000;stroke-opacity:1;stroke-miterlimit:10" d="m78.555 957.93 480.312-318.79 638.946 845.47" transform="matrix(.1 0 0 -.1 0 199)"/><path style="fill-rule:nonzero;fill:#c6b7cb;fill-opacity:1;stroke-width:8.74;stroke-linecap:round;stroke-linejoin:round;stroke:#000;stroke-opacity:1;stroke-miterlimit:10" d="m1604.922 550.469 870.351 215.937-412.5 889.492" transform="matrix(.1 0 0 -.1 0 199)"/><path style="fill-rule:nonzero;fill:#c6b7cb;fill-opacity:1;stroke-width:8.74;stroke-linecap:round;stroke-linejoin:round;stroke:#000;stroke-opacity:1;stroke-miterlimit:10" d="m2062.773 1655.898-864.96-171.289 407.109-934.14" transform="matrix(.1 0 0 -.1 0 199)"/><path style="stroke:none;fill-rule:nonzero;fill:#984462;fill-opacity:1" d="m120.816 186.895 39.676-42.942-104.605-8.867"/><path style="fill:none;stroke-width:8.74;stroke-linecap:round;stroke-linejoin:round;stroke:#000;stroke-opacity:1;stroke-miterlimit:10" d="m1208.164 121.055 396.758 429.414L558.867 639.14Zm0 0" transform="matrix(.1 0 0 -.1 0 199)"/><path style="fill-rule:nonzero;fill:#b73b18;fill-opacity:1;stroke-width:8.74;stroke-linecap:round;stroke-linejoin:round;stroke:#000;stroke-opacity:1;stroke-miterlimit:10" d="M2475.273 766.406 1604.922 550.47l-396.758-429.414" transform="matrix(.1 0 0 -.1 0 199)"/><path style="stroke:none;fill-rule:nonzero;fill:#ab96c0;fill-opacity:1" d="m119.781 50.54-63.894 84.546 104.605 8.867"/><path style="fill:none;stroke-width:8.74;stroke-linecap:round;stroke-linejoin:round;stroke:#000;stroke-opacity:1;stroke-miterlimit:10" d="M1197.813 1484.61 558.866 639.14l1046.055-88.671Zm0 0" transform="matrix(.1 0 0 -.1 0 199)"/></svg>