<svg xmlns="http://www.w3.org/2000/svg" width="339.933" height="249.227" viewBox="0 0 254.95 186.92" version="1.2"><defs><clipPath id="a"><path d="M17 66h170v120.84H17Zm0 0"/></clipPath><clipPath id="b"><path d="M85 66h102v120.84H85Zm0 0"/></clipPath><clipPath id="c"><path d="M168 66h70v120.84h-70Zm0 0"/></clipPath><clipPath id="d"><path d="M.031 93H187v93.84H.031Zm0 0"/></clipPath><clipPath id="e"><path d="M.031 93H19v50H.031Zm0 0"/></clipPath><clipPath id="f"><path d="M186 93h68.871v93.84H186Zm0 0"/></clipPath><clipPath id="g"><path d="M.031 48H52v95H.031Zm0 0"/></clipPath><clipPath id="h"><path d="M189 0h65.871v143H189Zm0 0"/></clipPath><clipPath id="i"><path d="M189 0h65.871v143H189Zm0 0"/></clipPath><clipPath id="j"><path d="M.031 142H187v44.84H.031Zm0 0"/></clipPath><clipPath id="k"><path d="M.031 141H188v45.84H.031Zm0 0"/></clipPath><clipPath id="l"><path d="M.031 48H69v138.84H.031Zm0 0"/></clipPath><clipPath id="m"><path d="M186 48h68.871v138.84H186Zm0 0"/></clipPath><clipPath id="n"><path d="M68 48h136v138.84H68Zm0 0"/></clipPath><clipPath id="o"><path d="M67 48h138v138.84H67Zm0 0"/></clipPath><clipPath id="p"><path d="M51 48h153v138.84H51Zm0 0"/></clipPath><clipPath id="q"><path d="M50 48h155v138.84H50Zm0 0"/></clipPath></defs><g clip-path="url(#a)"><path style="stroke:none;fill-rule:nonzero;fill:#91d1f2;fill-opacity:1" d="m85.977 66.91-68.29 26.875 169 92.707"/></g><path style="fill:none;stroke-width:6.99526;stroke-linecap:round;stroke-linejoin:round;stroke:#231f20;stroke-opacity:1;stroke-miterlimit:10" d="M859.838 1199.812 176.655 930.947" transform="matrix(.09996 0 0 -.09996 .03 186.84)"/><g clip-path="url(#b)"><path style="stroke:none;fill-rule:nonzero;fill:#91d1f2;fill-opacity:1" d="M168.922 66.91H85.977l100.71 119.582"/></g><path style="fill:none;stroke-width:6.99526;stroke-linecap:round;stroke-linejoin:round;stroke:#231f20;stroke-opacity:1;stroke-miterlimit:10" d="M1689.646 1199.812H859.838" transform="matrix(.09996 0 0 -.09996 .03 186.84)"/><g clip-path="url(#c)"><path style="stroke:none;fill-rule:nonzero;fill:#91d1f2;fill-opacity:1" d="M237.21 93.785 168.923 66.91l17.766 119.582"/></g><path style="fill:none;stroke-width:6.99526;stroke-linecap:round;stroke-linejoin:round;stroke:#231f20;stroke-opacity:1;stroke-miterlimit:10" d="m2372.829 930.947-683.183 268.865" transform="matrix(.09996 0 0 -.09996 .03 186.84)"/><path style="stroke:none;fill-rule:nonzero;fill:#e09277;fill-opacity:1" d="M85.977 66.91 65.28.352 17.687 93.785l68.29-26.875"/><path style="fill:none;stroke-width:6.99526;stroke-linecap:round;stroke-linejoin:round;stroke:#231f20;stroke-opacity:1;stroke-miterlimit:10" d="m859.838 1199.812-207.042 665.87-476.14-934.735Zm0 0" transform="matrix(.09996 0 0 -.09996 .03 186.84)"/><path style="fill-rule:nonzero;fill:#a75469;fill-opacity:1;stroke-width:6.99526;stroke-linecap:round;stroke-linejoin:round;stroke:#231f20;stroke-opacity:1;stroke-miterlimit:10" d="m859.838 1199.812-207.042 665.87h1243.892" transform="matrix(.09996 0 0 -.09996 .03 186.84)"/><path style="fill-rule:nonzero;fill:#a75469;fill-opacity:1;stroke-width:6.99526;stroke-linecap:round;stroke-linejoin:round;stroke:#231f20;stroke-opacity:1;stroke-miterlimit:10" d="m1896.688 1865.683-207.042-665.87H859.838" transform="matrix(.09996 0 0 -.09996 .03 186.84)"/><path style="stroke:none;fill-rule:nonzero;fill:#693981;fill-opacity:1" d="m189.617.352 47.594 93.433-68.29-26.875L189.618.352"/><path style="fill:none;stroke-width:6.99526;stroke-linecap:round;stroke-linejoin:round;stroke:#231f20;stroke-opacity:1;stroke-miterlimit:10" d="m1896.688 1865.683 476.141-934.736-683.183 268.865Zm0 0" transform="matrix(.09996 0 0 -.09996 .03 186.84)"/><g clip-path="url(#d)"><path style="stroke:none;fill-rule:nonzero;fill:#91d1f2;fill-opacity:1" d="M17.688 93.785.378 142.04l186.31 44.453"/></g><g clip-path="url(#e)"><path style="fill:none;stroke-width:6.99526;stroke-linecap:round;stroke-linejoin:round;stroke:#231f20;stroke-opacity:1;stroke-miterlimit:10" d="M176.655 930.947 3.495 448.201" transform="matrix(.09996 0 0 -.09996 .03 186.84)"/></g><g clip-path="url(#f)"><path style="fill-rule:nonzero;fill:#91d1f2;fill-opacity:1;stroke-width:6.99526;stroke-linecap:round;stroke-linejoin:round;stroke:#231f20;stroke-opacity:1;stroke-miterlimit:10" d="m1867.378 3.48 678.611 444.721-173.16 482.746" transform="matrix(.09996 0 0 -.09996 .03 186.84)"/></g><g clip-path="url(#g)"><path style="fill-rule:nonzero;fill:#313384;fill-opacity:1;stroke-width:6.99526;stroke-linecap:round;stroke-linejoin:round;stroke:#231f20;stroke-opacity:1;stroke-miterlimit:10" d="M510.43 1379.068 3.496 448.201l173.16 482.746" transform="matrix(.09996 0 0 -.09996 .03 186.84)"/></g><path style="fill-rule:nonzero;fill:#313384;fill-opacity:1;stroke-width:6.99526;stroke-linecap:round;stroke-linejoin:round;stroke:#231f20;stroke-opacity:1;stroke-miterlimit:10" d="m176.655 930.947 476.141 934.736-142.365-486.615" transform="matrix(.09996 0 0 -.09996 .03 186.84)"/><g clip-path="url(#h)"><path style="fill-rule:nonzero;fill:#bbd973;fill-opacity:1;stroke-width:6.99526;stroke-linecap:round;stroke-linejoin:round;stroke:#231f20;stroke-opacity:1;stroke-miterlimit:10" d="m1896.688 1865.683 476.141-934.736 173.16-482.746" transform="matrix(.09996 0 0 -.09996 .03 186.84)"/></g><path style="fill-rule:nonzero;fill:#77d2f6;fill-opacity:1;stroke-width:6.99526;stroke-linecap:round;stroke-linejoin:round;stroke:#231f20;stroke-opacity:1;stroke-miterlimit:10" d="M652.796 1865.683h1243.892l142.365-486.615" transform="matrix(.09996 0 0 -.09996 .03 186.84)"/><path style="fill-rule:nonzero;fill:#77d2f6;fill-opacity:1;stroke-width:6.99526;stroke-linecap:round;stroke-linejoin:round;stroke:#231f20;stroke-opacity:1;stroke-miterlimit:10" d="M2039.053 1379.068H510.431l142.365 486.615" transform="matrix(.09996 0 0 -.09996 .03 186.84)"/><g clip-path="url(#i)"><path style="fill-rule:nonzero;fill:#bbd973;fill-opacity:1;stroke-width:6.99526;stroke-linecap:round;stroke-linejoin:round;stroke:#231f20;stroke-opacity:1;stroke-miterlimit:10" d="m2545.99 448.201-506.937 930.867-142.365 486.615" transform="matrix(.09996 0 0 -.09996 .03 186.84)"/></g><g clip-path="url(#j)"><path style="stroke:none;fill-rule:nonzero;fill:#91d1f2;fill-opacity:1" d="m.379 142.04 67.832 44.452h118.477"/></g><g clip-path="url(#k)"><path style="fill:none;stroke-width:6.99526;stroke-linecap:round;stroke-linejoin:round;stroke:#231f20;stroke-opacity:1;stroke-miterlimit:10" d="M3.495 448.201 682.105 3.48h1185.273" transform="matrix(.09996 0 0 -.09996 .03 186.84)"/></g><g clip-path="url(#l)"><path style="stroke:none;fill-rule:nonzero;fill:#5954ac;fill-opacity:1" d="m.379 142.04 67.832 44.452-17.16-137.5L.379 142.04"/><path style="fill:none;stroke-width:6.99526;stroke-linecap:round;stroke-linejoin:round;stroke:#231f20;stroke-opacity:1;stroke-miterlimit:10" d="M3.495 448.201 682.105 3.48 510.432 1379.068Zm0 0" transform="matrix(.09996 0 0 -.09996 .03 186.84)"/></g><g clip-path="url(#m)"><path style="stroke:none;fill-rule:nonzero;fill:#edc2a1;fill-opacity:1" d="m186.688 186.492 17.16-137.5 50.672 93.047-67.833 44.453"/><path style="fill:none;stroke-width:6.99526;stroke-linecap:round;stroke-linejoin:round;stroke:#231f20;stroke-opacity:1;stroke-miterlimit:10" d="m1867.378 3.48 171.675 1375.588 506.936-930.867Zm0 0" transform="matrix(.09996 0 0 -.09996 .03 186.84)"/></g><g clip-path="url(#n)"><path style="stroke:none;fill-rule:nonzero;fill:#b59dc6;fill-opacity:1" d="m203.848 48.992-17.16 137.5H68.21"/></g><g clip-path="url(#o)"><path style="fill:none;stroke-width:6.99526;stroke-linecap:round;stroke-linejoin:round;stroke:#231f20;stroke-opacity:1;stroke-miterlimit:10" d="M2039.053 1379.068 1867.378 3.48H682.106" transform="matrix(.09996 0 0 -.09996 .03 186.84)"/></g><g clip-path="url(#p)"><path style="stroke:none;fill-rule:nonzero;fill:#b59dc6;fill-opacity:1" d="m68.21 186.492-17.16-137.5h152.798"/></g><g clip-path="url(#q)"><path style="fill:none;stroke-width:6.99526;stroke-linecap:round;stroke-linejoin:round;stroke:#231f20;stroke-opacity:1;stroke-miterlimit:10" d="M682.106 3.48 510.43 1379.068h1528.622" transform="matrix(.09996 0 0 -.09996 .03 186.84)"/></g></svg>