<svg xmlns="http://www.w3.org/2000/svg" width="388.587" height="246.773" viewBox="0 0 291.44 185.08" version="1.2"><defs><clipPath id="a"><path d="M.441 83H233v101H.441Zm0 0"/></clipPath><clipPath id="b"><path d="M.441 83H85v43H.441Zm0 0"/></clipPath><clipPath id="c"><path d="M207 83h83.441v101H207Zm0 0"/></clipPath><clipPath id="d"><path d="M206 83h84.441v101.164H206Zm0 0"/></clipPath><clipPath id="e"><path d="M.441 0H84v126H.441Zm0 0"/></clipPath><clipPath id="f"><path d="M.441 0H85v126H.441Zm0 0"/></clipPath><clipPath id="g"><path d="M207 0h83.441v126H207Zm0 0"/></clipPath><clipPath id="h"><path d="M206 0h84.441v126H206Zm0 0"/></clipPath><clipPath id="i"><path d="M.441 125H233v59H.441Zm0 0"/></clipPath><clipPath id="j"><path d="M.441 124H233v60.164H.441Zm0 0"/></clipPath><clipPath id="k"><path d="M57 0h89v184.164H57Zm0 0"/></clipPath><clipPath id="l"><path d="M.441 0H74v184H.441Zm0 0"/></clipPath><clipPath id="m"><path d="M.441 0H74v184.164H.441Zm0 0"/></clipPath><clipPath id="n"><path d="M217 0h73.441v184H217Zm0 0"/></clipPath><clipPath id="o"><path d="M217 0h73.441v184.164H217Zm0 0"/></clipPath><clipPath id="p"><path d="M145 0h88v184.164h-88Zm0 0"/></clipPath><clipPath id="q"><path d="M57 32h176v152.164H57Zm0 0"/></clipPath></defs><g clip-path="url(#a)"><path style="stroke:none;fill-rule:nonzero;fill:#7dd2f5;fill-opacity:1" d="M83.64 83.836.856 125.313l231.66 58.437"/></g><g clip-path="url(#b)"><path style="fill:none;stroke-width:8.34387;stroke-linecap:round;stroke-linejoin:round;stroke:#231f20;stroke-opacity:1;stroke-miterlimit:10" d="M836.12 1008.273 4.154 591.446" transform="matrix(.0995 0 0 -.0995 .442 184.165)"/></g><path style="stroke:none;fill-rule:nonzero;fill:#7dd2f5;fill-opacity:1" d="M207.242 83.836H83.641l148.875 99.914"/><path style="fill:none;stroke-width:8.34387;stroke-linecap:round;stroke-linejoin:round;stroke:#231f20;stroke-opacity:1;stroke-miterlimit:10" d="M2078.28 1008.273H836.12" transform="matrix(.0995 0 0 -.0995 .442 184.165)"/><g clip-path="url(#c)"><path style="stroke:none;fill-rule:nonzero;fill:#7dd2f5;fill-opacity:1" d="m232.516 183.75 57.511-58.438-82.785-41.476"/></g><g clip-path="url(#d)"><path style="fill:none;stroke-width:8.34387;stroke-linecap:round;stroke-linejoin:round;stroke:#231f20;stroke-opacity:1;stroke-miterlimit:10" d="m2332.27 4.166 577.977 587.28-831.967 416.827" transform="matrix(.0995 0 0 -.0995 .442 184.165)"/></g><g clip-path="url(#e)"><path style="stroke:none;fill-rule:nonzero;fill:#ea975b;fill-opacity:1" d="M83.64 83.836 73.446.414.855 125.312l82.786-41.476"/></g><g clip-path="url(#f)"><path style="fill:none;stroke-width:8.34387;stroke-linecap:round;stroke-linejoin:round;stroke:#231f20;stroke-opacity:1;stroke-miterlimit:10" d="M836.12 1008.273 733.66 1846.64 4.154 591.446Zm0 0" transform="matrix(.0995 0 0 -.0995 .442 184.165)"/></g><path style="fill-rule:nonzero;fill:#a54e62;fill-opacity:1;stroke-width:8.34387;stroke-linecap:round;stroke-linejoin:round;stroke:#231f20;stroke-opacity:1;stroke-miterlimit:10" d="M836.12 1008.273 733.66 1846.64h1447.08M2180.74 1846.639l-102.46-838.366H836.12" transform="matrix(.0995 0 0 -.0995 .442 184.165)"/><g clip-path="url(#g)"><path style="stroke:none;fill-rule:nonzero;fill:#392c69;fill-opacity:1" d="M290.027 125.313 217.437.413l-10.195 83.422 82.785 41.477"/></g><g clip-path="url(#h)"><path style="fill:none;stroke-width:8.34387;stroke-linecap:round;stroke-linejoin:round;stroke:#231f20;stroke-opacity:1;stroke-miterlimit:10" d="M2910.247 591.446 2180.74 1846.639l-102.46-838.366Zm0 0" transform="matrix(.0995 0 0 -.0995 .442 184.165)"/></g><path style="stroke:none;fill-rule:nonzero;fill:#4fc3f0;fill-opacity:1" d="M145.445 33.152 217.438.414H73.445l72 32.738"/><path style="fill:none;stroke-width:8.34387;stroke-linecap:round;stroke-linejoin:round;stroke:#231f20;stroke-opacity:1;stroke-miterlimit:10" d="m1457.24 1517.629 723.5 329.01H733.66Zm0 0" transform="matrix(.0995 0 0 -.0995 .442 184.165)"/><g clip-path="url(#i)"><path style="stroke:none;fill-rule:nonzero;fill:#7dd2f5;fill-opacity:1" d="m.855 125.313 57.512 58.437h174.149"/></g><g clip-path="url(#j)"><path style="fill:none;stroke-width:8.34387;stroke-linecap:round;stroke-linejoin:round;stroke:#231f20;stroke-opacity:1;stroke-miterlimit:10" d="M4.154 591.446 582.13 4.166h1750.14" transform="matrix(.0995 0 0 -.0995 .442 184.165)"/></g><path style="stroke:none;fill-rule:nonzero;fill:#346dbe;fill-opacity:1" d="m58.367 183.75 87.078-150.598-72-32.738"/><g clip-path="url(#k)"><path style="fill:none;stroke-width:8.34387;stroke-linecap:round;stroke-linejoin:round;stroke:#231f20;stroke-opacity:1;stroke-miterlimit:10" d="m582.13 4.166 875.11 1513.463-723.58 329.01" transform="matrix(.0995 0 0 -.0995 .442 184.165)"/></g><g clip-path="url(#l)"><path style="stroke:none;fill-rule:nonzero;fill:#346dbe;fill-opacity:1" d="M73.445.414.855 125.312l57.512 58.438"/></g><g clip-path="url(#m)"><path style="fill:none;stroke-width:8.34387;stroke-linecap:round;stroke-linejoin:round;stroke:#231f20;stroke-opacity:1;stroke-miterlimit:10" d="M733.66 1846.639 4.154 591.446 582.13 4.166" transform="matrix(.0995 0 0 -.0995 .442 184.165)"/></g><g clip-path="url(#n)"><path style="stroke:none;fill-rule:nonzero;fill:#ebecca;fill-opacity:1" d="m217.438.414 72.59 124.898-57.512 58.438"/></g><g clip-path="url(#o)"><path style="fill:none;stroke-width:8.34387;stroke-linecap:round;stroke-linejoin:round;stroke:#231f20;stroke-opacity:1;stroke-miterlimit:10" d="m2180.74 1846.639 729.507-1255.193L2332.27 4.166" transform="matrix(.0995 0 0 -.0995 .442 184.165)"/></g><path style="stroke:none;fill-rule:nonzero;fill:#ebecca;fill-opacity:1" d="m232.516 183.75-87.07-150.598L217.437.414"/><g clip-path="url(#p)"><path style="fill:none;stroke-width:8.34387;stroke-linecap:round;stroke-linejoin:round;stroke:#231f20;stroke-opacity:1;stroke-miterlimit:10" d="M2332.27 4.166 1457.24 1517.63l723.5 329.01" transform="matrix(.0995 0 0 -.0995 .442 184.165)"/></g><path style="stroke:none;fill-rule:nonzero;fill:#b59bc4;fill-opacity:1" d="M58.367 183.75h174.149l-87.07-150.598L58.366 183.75"/><g clip-path="url(#q)"><path style="fill:none;stroke-width:8.34387;stroke-linecap:round;stroke-linejoin:round;stroke:#231f20;stroke-opacity:1;stroke-miterlimit:10" d="M582.13 4.166h1750.14L1457.24 1517.63Zm0 0" transform="matrix(.0995 0 0 -.0995 .442 184.165)"/></g></svg>