<svg xmlns="http://www.w3.org/2000/svg" width="205pt" height="200pt" viewBox="0 0 205 200" version="1.2"><path style="fill-rule:nonzero;fill:#be98b0;fill-opacity:1;stroke-width:5.78702;stroke-linecap:round;stroke-linejoin:round;stroke:#000;stroke-opacity:1;stroke-miterlimit:10" d="m967.578 1160.898-258.515-8.945-6.211 264.102M702.852 1416.055l259.414 6.718 5.312-261.875" transform="matrix(.1 0 0 -.1 0 200)"/><path style="stroke:none;fill-rule:nonzero;fill:#ad89b0;fill-opacity:1" d="m96.227 57.723 22.789 12.855L96.758 83.91"/><path style="fill:none;stroke-width:5.78702;stroke-linecap:round;stroke-linejoin:round;stroke:#000;stroke-opacity:1;stroke-miterlimit:10" d="m962.266 1422.773 227.89-128.554-222.578-133.32Zm0 0" transform="matrix(.1 0 0 -.1 0 200)"/><path style="stroke:none;fill-rule:nonzero;fill:#be9cb5;fill-opacity:1" d="M96.758 83.91 84.78 107.105l-13.875-22.3"/><path style="fill:none;stroke-width:5.78702;stroke-linecap:round;stroke-linejoin:round;stroke:#000;stroke-opacity:1;stroke-miterlimit:10" d="M967.578 1160.898 847.813 928.945l-138.75 223.008Zm0 0" transform="matrix(.1 0 0 -.1 0 200)"/><path style="fill-rule:nonzero;fill:#9f8fc3;fill-opacity:1;stroke-width:5.78702;stroke-linecap:round;stroke-linejoin:round;stroke:#000;stroke-opacity:1;stroke-miterlimit:10" d="m874.727 679.492-26.914 249.453 119.765 231.953" transform="matrix(.1 0 0 -.1 0 200)"/><path style="stroke:none;fill-rule:nonzero;fill:#9f8fc3;fill-opacity:1" d="m104.43 149.605-16.957-17.554 9.285-48.14"/><path style="fill:none;stroke-width:5.78702;stroke-linecap:round;stroke-linejoin:round;stroke:#000;stroke-opacity:1;stroke-miterlimit:10" d="m1044.297 503.945-169.57 175.547" transform="matrix(.1 0 0 -.1 0 200)"/><path style="stroke:none;fill-rule:nonzero;fill:#9f8fc3;fill-opacity:1" d="m129.813 152.527-25.383-2.922-7.672-65.695"/><path style="fill:none;stroke-width:5.78702;stroke-linecap:round;stroke-linejoin:round;stroke:#000;stroke-opacity:1;stroke-miterlimit:10" d="m1298.125 474.727-253.828 29.218" transform="matrix(.1 0 0 -.1 0 200)"/><path style="stroke:none;fill-rule:nonzero;fill:#9f8fc3;fill-opacity:1" d="m153.66 138.934-23.847 13.593L96.757 83.91"/><path style="fill:none;stroke-width:5.78702;stroke-linecap:round;stroke-linejoin:round;stroke:#000;stroke-opacity:1;stroke-miterlimit:10" d="m1536.602 610.664-238.477-135.937" transform="matrix(.1 0 0 -.1 0 200)"/><path style="stroke:none;fill-rule:nonzero;fill:#9f8fc3;fill-opacity:1" d="m166.031 114.145-12.37 24.789L96.757 83.91"/><path style="fill:none;stroke-width:5.78702;stroke-linecap:round;stroke-linejoin:round;stroke:#000;stroke-opacity:1;stroke-miterlimit:10" d="m1660.313 858.555-123.711-247.89" transform="matrix(.1 0 0 -.1 0 200)"/><path style="stroke:none;fill-rule:nonzero;fill:#9f8fc3;fill-opacity:1" d="m162.004 88.465 4.027 25.68L96.758 83.91"/><path style="fill:none;stroke-width:5.78702;stroke-linecap:round;stroke-linejoin:round;stroke:#000;stroke-opacity:1;stroke-miterlimit:10" d="m1620.04 1115.352 40.273-256.797" transform="matrix(.1 0 0 -.1 0 200)"/><path style="stroke:none;fill-rule:nonzero;fill:#9f8fc3;fill-opacity:1" d="m143.82 72.05 18.184 16.415-65.246-4.555"/><path style="fill:none;stroke-width:5.78702;stroke-linecap:round;stroke-linejoin:round;stroke:#000;stroke-opacity:1;stroke-miterlimit:10" d="m1438.203 1279.492 181.836-164.14" transform="matrix(.1 0 0 -.1 0 200)"/><path style="fill-rule:nonzero;fill:#9f8fc3;fill-opacity:1;stroke-width:5.78702;stroke-linecap:round;stroke-linejoin:round;stroke:#000;stroke-opacity:1;stroke-miterlimit:10" d="m967.578 1160.898 222.578 133.32 248.047-14.726" transform="matrix(.1 0 0 -.1 0 200)"/><path style="fill-rule:nonzero;fill:#a2739e;fill-opacity:1;stroke-width:5.78702;stroke-linecap:round;stroke-linejoin:round;stroke:#000;stroke-opacity:1;stroke-miterlimit:10" d="m1298.867 1508.203-108.71-213.984-227.891 128.554" transform="matrix(.1 0 0 -.1 0 200)"/><path style="fill-rule:nonzero;fill:#a2739e;fill-opacity:1;stroke-width:5.78702;stroke-linecap:round;stroke-linejoin:round;stroke:#000;stroke-opacity:1;stroke-miterlimit:10" d="m962.266 1422.773 103.554 215.782 233.047-130.352" transform="matrix(.1 0 0 -.1 0 200)"/><path style="fill-rule:nonzero;fill:#bb7e90;fill-opacity:1;stroke-width:5.78702;stroke-linecap:round;stroke-linejoin:round;stroke:#000;stroke-opacity:1;stroke-miterlimit:10" d="m962.266 1422.773-259.414-6.718-66.485 214.375" transform="matrix(.1 0 0 -.1 0 200)"/><path style="stroke:none;fill-rule:nonzero;fill:#bb7e90;fill-opacity:1" d="M106.582 36.145 96.227 57.723l-32.59-20.766"/><path style="fill:none;stroke-width:5.78702;stroke-linecap:round;stroke-linejoin:round;stroke:#000;stroke-opacity:1;stroke-miterlimit:10" d="m1065.82 1638.555-103.554-215.782" transform="matrix(.1 0 0 -.1 0 200)"/><path style="fill-rule:nonzero;fill:#d9c3c4;fill-opacity:1;stroke-width:5.78702;stroke-linecap:round;stroke-linejoin:round;stroke:#000;stroke-opacity:1;stroke-miterlimit:10" d="m847.813 928.945 26.914-249.453-98.907-190.586" transform="matrix(.1 0 0 -.1 0 200)"/><path style="stroke:none;fill-rule:nonzero;fill:#d9c3c4;fill-opacity:1" d="m70.906 84.805 13.875 22.3-7.199 44.004"/><path style="fill:none;stroke-width:5.78702;stroke-linecap:round;stroke-linejoin:round;stroke:#000;stroke-opacity:1;stroke-miterlimit:10" d="m709.063 1151.953 138.75-223.008" transform="matrix(.1 0 0 -.1 0 200)"/><path style="stroke:none;fill-rule:nonzero;fill:#9d71a0;fill-opacity:1" d="m119.016 70.578 10.87-21.398 13.934 22.87"/><path style="fill:none;stroke-width:5.78702;stroke-linecap:round;stroke-linejoin:round;stroke:#000;stroke-opacity:1;stroke-miterlimit:10" d="m1190.156 1294.219 108.711 213.984 139.336-228.71Zm0 0" transform="matrix(.1 0 0 -.1 0 200)"/><path style="stroke:none;fill-rule:nonzero;fill:#cfa6af;fill-opacity:1" d="m50.383 72.656 19.902-14.261.621 26.41"/><path style="fill:none;stroke-width:5.78702;stroke-linecap:round;stroke-linejoin:round;stroke:#000;stroke-opacity:1;stroke-miterlimit:10" d="m503.828 1273.438 199.024 142.617 6.21-264.102Zm0 0" transform="matrix(.1 0 0 -.1 0 200)"/><path style="stroke:none;fill-rule:nonzero;fill:#d9c3c4;fill-opacity:1" d="m50.383 72.656 20.523 12.149 6.676 66.304"/><path style="fill:none;stroke-width:5.78702;stroke-linecap:round;stroke-linejoin:round;stroke:#000;stroke-opacity:1;stroke-miterlimit:10" d="m503.828 1273.438 205.235-121.485" transform="matrix(.1 0 0 -.1 0 200)"/><path style="fill-rule:nonzero;fill:#d89e97;fill-opacity:1;stroke-width:5.78702;stroke-linecap:round;stroke-linejoin:round;stroke:#000;stroke-opacity:1;stroke-miterlimit:10" d="m636.367 1630.43 66.485-214.375-199.024-142.618" transform="matrix(.1 0 0 -.1 0 200)"/><path style="stroke:none;fill-rule:nonzero;fill:#b7b7d9;fill-opacity:1" d="m77.582 151.11 9.89-19.06 16.958 17.555"/><path style="fill:none;stroke-width:5.78702;stroke-linecap:round;stroke-linejoin:round;stroke:#000;stroke-opacity:1;stroke-miterlimit:10" d="m775.82 488.906 98.907 190.586 169.57-175.547Zm0 0" transform="matrix(.1 0 0 -.1 0 200)"/><path style="stroke:none;fill-rule:nonzero;fill:#905382;fill-opacity:1" d="m106.582 36.145 18.152-9.016 5.153 22.05"/><path style="fill:none;stroke-width:5.78702;stroke-linecap:round;stroke-linejoin:round;stroke:#000;stroke-opacity:1;stroke-miterlimit:10" d="m1065.82 1638.555 181.524 90.156 51.523-220.508Zm0 0" transform="matrix(.1 0 0 -.1 0 200)"/><path style="fill-rule:nonzero;fill:#984563;fill-opacity:1;stroke-width:5.78702;stroke-linecap:round;stroke-linejoin:round;stroke:#000;stroke-opacity:1;stroke-miterlimit:10" d="m1044.375 1869.102 202.969-140.391-181.524-90.156M1065.82 1638.555l-200.703 134.062 179.258 96.485" transform="matrix(.1 0 0 -.1 0 200)"/><path style="fill-rule:nonzero;fill:#bb7e90;fill-opacity:1;stroke-width:5.78702;stroke-linecap:round;stroke-linejoin:round;stroke:#000;stroke-opacity:1;stroke-miterlimit:10" d="m636.367 1630.43 228.75 142.187 200.703-134.062" transform="matrix(.1 0 0 -.1 0 200)"/><path style="stroke:none;fill-rule:nonzero;fill:#521a6b;fill-opacity:1" d="m143.82 72.05-13.933-22.87.906-35.559"/><path style="fill:none;stroke-width:5.78702;stroke-linecap:round;stroke-linejoin:round;stroke:#000;stroke-opacity:1;stroke-miterlimit:10" d="m1438.203 1279.492-139.336 228.711" transform="matrix(.1 0 0 -.1 0 200)"/><path style="stroke:none;fill-rule:nonzero;fill:#521a6b;fill-opacity:1" d="M162.004 88.465 143.82 72.05l-13.027-58.43"/><path style="fill:none;stroke-width:5.78702;stroke-linecap:round;stroke-linejoin:round;stroke:#000;stroke-opacity:1;stroke-miterlimit:10" d="m1620.04 1115.352-181.837 164.14" transform="matrix(.1 0 0 -.1 0 200)"/><path style="fill-rule:nonzero;fill:#521a6b;fill-opacity:1;stroke-width:5.78702;stroke-linecap:round;stroke-linejoin:round;stroke:#000;stroke-opacity:1;stroke-miterlimit:10" d="m1298.867 1508.203-51.523 220.508 60.586 135.078" transform="matrix(.1 0 0 -.1 0 200)"/><path style="fill-rule:nonzero;fill:#d89e97;fill-opacity:1;stroke-width:5.78702;stroke-linecap:round;stroke-linejoin:round;stroke:#000;stroke-opacity:1;stroke-miterlimit:10" d="m503.828 1273.438-73.047 214.53 205.586 142.462" transform="matrix(.1 0 0 -.1 0 200)"/><path style="stroke:none;fill-rule:nonzero;fill:#d9c3c4;fill-opacity:1" d="m30.14 75.582 20.243-2.926 27.199 78.453"/><path style="fill:none;stroke-width:5.78702;stroke-linecap:round;stroke-linejoin:round;stroke:#000;stroke-opacity:1;stroke-miterlimit:10" d="m301.406 1244.18 202.422 29.257" transform="matrix(.1 0 0 -.1 0 200)"/><path style="stroke:none;fill-rule:nonzero;fill:#dea498;fill-opacity:1" d="M50.383 72.656 30.14 75.582l12.937-24.379"/><path style="fill:none;stroke-width:5.78702;stroke-linecap:round;stroke-linejoin:round;stroke:#000;stroke-opacity:1;stroke-miterlimit:10" d="m503.828 1273.438-202.422-29.258 129.375 243.789Zm0 0" transform="matrix(.1 0 0 -.1 0 200)"/><path style="stroke:none;fill-rule:nonzero;fill:#df8a6c;fill-opacity:1" d="M63.637 36.957 43.078 51.203l9.762-22.918"/><path style="fill:none;stroke-width:5.78702;stroke-linecap:round;stroke-linejoin:round;stroke:#000;stroke-opacity:1;stroke-miterlimit:10" d="m636.367 1630.43-205.586-142.461 97.617 229.18Zm0 0" transform="matrix(.1 0 0 -.1 0 200)"/><path style="fill-rule:nonzero;fill:#c56150;fill-opacity:1;stroke-width:5.78702;stroke-linecap:round;stroke-linejoin:round;stroke:#000;stroke-opacity:1;stroke-miterlimit:10" d="m865.117 1772.617-228.75-142.187-107.969 86.718" transform="matrix(.1 0 0 -.1 0 200)"/><path style="stroke:none;fill-rule:nonzero;fill:#9ea5da;fill-opacity:1" d="m109.523 170.035-5.093-20.43 25.382 2.922"/><path style="fill:none;stroke-width:5.78702;stroke-linecap:round;stroke-linejoin:round;stroke:#000;stroke-opacity:1;stroke-miterlimit:10" d="m1095.234 299.648-50.937 204.297 253.828-29.218Zm0 0" transform="matrix(.1 0 0 -.1 0 200)"/><path style="fill-rule:nonzero;fill:#b4bbde;fill-opacity:1;stroke-width:5.78702;stroke-linecap:round;stroke-linejoin:round;stroke:#000;stroke-opacity:1;stroke-miterlimit:10" d="m1044.297 503.945 50.937-204.297-276.757-17.382" transform="matrix(.1 0 0 -.1 0 200)"/><path style="fill-rule:nonzero;fill:#b4bbde;fill-opacity:1;stroke-width:5.78702;stroke-linecap:round;stroke-linejoin:round;stroke:#000;stroke-opacity:1;stroke-miterlimit:10" d="m818.477 282.266-42.657 206.64 268.477 15.04" transform="matrix(.1 0 0 -.1 0 200)"/><path style="stroke:none;fill-rule:nonzero;fill:#521a6b;fill-opacity:1" d="m178.547 92.516-16.543-4.051-31.211-74.844"/><path style="fill:none;stroke-width:5.78702;stroke-linecap:round;stroke-linejoin:round;stroke:#000;stroke-opacity:1;stroke-miterlimit:10" d="m1785.469 1074.844-165.43 40.508" transform="matrix(.1 0 0 -.1 0 200)"/><path style="stroke:none;fill-rule:nonzero;fill:#675ab0;fill-opacity:1" d="m162.004 88.465 16.543 4.05-12.516 21.63"/><path style="fill:none;stroke-width:5.78702;stroke-linecap:round;stroke-linejoin:round;stroke:#000;stroke-opacity:1;stroke-miterlimit:10" d="m1620.04 1115.352 165.429-40.508-125.157-216.29Zm0 0" transform="matrix(.1 0 0 -.1 0 200)"/><path style="stroke:none;fill-rule:nonzero;fill:#9e2d2e;fill-opacity:1" d="M86.512 22.738 76.57 13.41l27.868-.32"/><path style="fill:none;stroke-width:5.78702;stroke-linecap:round;stroke-linejoin:round;stroke:#000;stroke-opacity:1;stroke-miterlimit:10" d="m865.117 1772.617-99.414 93.281 278.672 3.204Zm0 0" transform="matrix(.1 0 0 -.1 0 200)"/><path style="fill-rule:nonzero;fill:#c56150;fill-opacity:1;stroke-width:5.78702;stroke-linecap:round;stroke-linejoin:round;stroke:#000;stroke-opacity:1;stroke-miterlimit:10" d="m528.398 1717.148 237.305 148.75 99.414-93.28" transform="matrix(.1 0 0 -.1 0 200)"/><path style="stroke:none;fill-rule:nonzero;fill:#cbd1de;fill-opacity:1" d="m81.848 171.773-24.02-15.109 19.754-5.555"/><path style="fill:none;stroke-width:5.78702;stroke-linecap:round;stroke-linejoin:round;stroke:#000;stroke-opacity:1;stroke-miterlimit:10" d="M818.477 282.266 578.28 433.359l197.54 55.547Zm0 0" transform="matrix(.1 0 0 -.1 0 200)"/><path style="stroke:none;fill-rule:nonzero;fill:#d9c3c4;fill-opacity:1" d="m18.066 93.746 12.075-18.164 47.441 75.527"/><path style="fill:none;stroke-width:5.78702;stroke-linecap:round;stroke-linejoin:round;stroke:#000;stroke-opacity:1;stroke-miterlimit:10" d="m180.664 1062.54 120.742 181.64" transform="matrix(.1 0 0 -.1 0 200)"/><path style="stroke:none;fill-rule:nonzero;fill:#d9c3c4;fill-opacity:1" d="m19.887 120.77-1.82-27.024 59.515 57.363"/><path style="fill:none;stroke-width:5.78702;stroke-linecap:round;stroke-linejoin:round;stroke:#000;stroke-opacity:1;stroke-miterlimit:10" d="m198.867 792.305-18.203 270.234" transform="matrix(.1 0 0 -.1 0 200)"/><path style="stroke:none;fill-rule:nonzero;fill:#d9c3c4;fill-opacity:1" d="m35.418 145.25-15.531-24.48 57.695 30.34"/><path style="fill:none;stroke-width:5.78702;stroke-linecap:round;stroke-linejoin:round;stroke:#000;stroke-opacity:1;stroke-miterlimit:10" d="M354.18 547.5 198.867 792.305" transform="matrix(.1 0 0 -.1 0 200)"/><path style="fill-rule:nonzero;fill:#d9c3c4;fill-opacity:1;stroke-width:5.78702;stroke-linecap:round;stroke-linejoin:round;stroke:#000;stroke-opacity:1;stroke-miterlimit:10" d="M775.82 488.906 578.281 433.36 354.18 547.5" transform="matrix(.1 0 0 -.1 0 200)"/><path style="stroke:none;fill-rule:nonzero;fill:#8c3455;fill-opacity:1" d="m124.734 27.129-20.296-14.04 26.355.532"/><path style="fill:none;stroke-width:5.78702;stroke-linecap:round;stroke-linejoin:round;stroke:#000;stroke-opacity:1;stroke-miterlimit:10" d="m1247.344 1728.71-202.969 140.392 263.555-5.313Zm0 0" transform="matrix(.1 0 0 -.1 0 200)"/><path style="fill-rule:nonzero;fill:#dd7801;fill-opacity:1;stroke-width:5.78702;stroke-linecap:round;stroke-linejoin:round;stroke:#000;stroke-opacity:1;stroke-miterlimit:10" d="m430.781 1487.969-129.375-243.79-120.742-181.64" transform="matrix(.1 0 0 -.1 0 200)"/><path style="stroke:none;fill-rule:nonzero;fill:#dd7801;fill-opacity:1" d="m52.84 28.285-9.762 22.918-25.012 42.543"/><path style="fill:none;stroke-width:5.78702;stroke-linecap:round;stroke-linejoin:round;stroke:#000;stroke-opacity:1;stroke-miterlimit:10" d="m528.398 1717.148-97.617-229.18" transform="matrix(.1 0 0 -.1 0 200)"/><path style="fill-rule:nonzero;fill:#799ce7;fill-opacity:1;stroke-width:5.78702;stroke-linecap:round;stroke-linejoin:round;stroke:#000;stroke-opacity:1;stroke-miterlimit:10" d="m1095.234 299.648 202.891 175.079 155.156-65.938" transform="matrix(.1 0 0 -.1 0 200)"/><path style="stroke:none;fill-rule:nonzero;fill:#7693e2;fill-opacity:1" d="m129.813 152.527 23.847-13.593-8.332 20.187"/><path style="fill:none;stroke-width:5.78702;stroke-linecap:round;stroke-linejoin:round;stroke:#000;stroke-opacity:1;stroke-miterlimit:10" d="m1298.125 474.727 238.477 135.937-83.32-201.875Zm0 0" transform="matrix(.1 0 0 -.1 0 200)"/><path style="stroke:none;fill-rule:nonzero;fill:#000086;fill-opacity:1" d="m166.031 114.145 12.516-21.63-26.793 66.415"/><path style="fill:none;stroke-width:5.78702;stroke-linecap:round;stroke-linejoin:round;stroke:#000;stroke-opacity:1;stroke-miterlimit:10" d="m1660.313 858.555 125.156 216.289" transform="matrix(.1 0 0 -.1 0 200)"/><path style="stroke:none;fill-rule:nonzero;fill:#000086;fill-opacity:1" d="m153.66 138.934 12.371-24.79-14.277 44.786"/><path style="fill:none;stroke-width:5.78702;stroke-linecap:round;stroke-linejoin:round;stroke:#000;stroke-opacity:1;stroke-miterlimit:10" d="m1536.602 610.664 123.71 247.89" transform="matrix(.1 0 0 -.1 0 200)"/><path style="stroke:none;fill-rule:nonzero;fill:#000086;fill-opacity:1" d="m145.328 159.121 8.332-20.187-1.906 19.996"/><path style="fill:none;stroke-width:5.78702;stroke-linecap:round;stroke-linejoin:round;stroke:#000;stroke-opacity:1;stroke-miterlimit:10" d="m1453.281 408.79 83.32 201.874" transform="matrix(.1 0 0 -.1 0 200)"/><path style="fill-rule:nonzero;fill:#799ce7;fill-opacity:1;stroke-width:5.78702;stroke-linecap:round;stroke-linejoin:round;stroke:#000;stroke-opacity:1;stroke-miterlimit:10" d="m1453.281 408.79-208.476-182.97-149.57 73.828" transform="matrix(.1 0 0 -.1 0 200)"/><path style="fill-rule:nonzero;fill:#83d0ff;fill-opacity:1;stroke-width:5.78702;stroke-linecap:round;stroke-linejoin:round;stroke:#000;stroke-opacity:1;stroke-miterlimit:10" d="m1095.234 299.648 149.57-73.828-194.257-68.398" transform="matrix(.1 0 0 -.1 0 200)"/><path style="stroke:none;fill-rule:nonzero;fill:#83d0ff;fill-opacity:1" d="m81.848 171.773 27.675-1.738-4.468 14.223"/><path style="fill:none;stroke-width:5.78702;stroke-linecap:round;stroke-linejoin:round;stroke:#000;stroke-opacity:1;stroke-miterlimit:10" d="m818.477 282.266 276.757 17.382" transform="matrix(.1 0 0 -.1 0 200)"/><path style="stroke:none;fill-rule:nonzero;fill:#521a6b;fill-opacity:1" d="m187.066 81.398-8.52 11.118-47.753-78.895"/><path style="fill:none;stroke-width:5.78702;stroke-linecap:round;stroke-linejoin:round;stroke:#000;stroke-opacity:1;stroke-miterlimit:10" d="m1870.664 1186.016-85.195-111.172" transform="matrix(.1 0 0 -.1 0 200)"/><path style="stroke:none;fill-rule:nonzero;fill:#521a6b;fill-opacity:1" d="m183.078 58.027 3.988 23.371-56.273-67.777"/><path style="fill:none;stroke-width:5.78702;stroke-linecap:round;stroke-linejoin:round;stroke:#000;stroke-opacity:1;stroke-miterlimit:10" d="m1830.781 1419.727 39.883-233.711" transform="matrix(.1 0 0 -.1 0 200)"/><path style="stroke:none;fill-rule:nonzero;fill:#521a6b;fill-opacity:1" d="m167.395 31.938 15.683 26.09-52.285-44.407"/><path style="fill:none;stroke-width:5.78702;stroke-linecap:round;stroke-linejoin:round;stroke:#000;stroke-opacity:1;stroke-miterlimit:10" d="m1673.945 1680.625 156.836-260.898" transform="matrix(.1 0 0 -.1 0 200)"/><path style="fill-rule:nonzero;fill:#521a6b;fill-opacity:1;stroke-width:5.78702;stroke-linecap:round;stroke-linejoin:round;stroke:#000;stroke-opacity:1;stroke-miterlimit:10" d="m1307.93 1863.79 161.757-12.5 204.258-170.665" transform="matrix(.1 0 0 -.1 0 200)"/><path style="stroke:none;fill-rule:nonzero;fill:#1faad1;fill-opacity:1" d="m104.438 13.09-27.868.32 70.399 1.461"/><path style="fill:none;stroke-width:5.78702;stroke-linecap:round;stroke-linejoin:round;stroke:#000;stroke-opacity:1;stroke-miterlimit:10" d="m1044.375 1869.102-278.672-3.204" transform="matrix(.1 0 0 -.1 0 200)"/><path style="fill-rule:nonzero;fill:#1faad1;fill-opacity:1;stroke-width:5.78702;stroke-linecap:round;stroke-linejoin:round;stroke:#000;stroke-opacity:1;stroke-miterlimit:10" d="m1469.688 1851.29-161.758 12.5-263.555 5.312" transform="matrix(.1 0 0 -.1 0 200)"/><path style="stroke:none;fill-rule:nonzero;fill:#c45538;fill-opacity:1" d="M76.57 13.41 52.84 28.285 56 14.496"/><path style="fill:none;stroke-width:5.78702;stroke-linecap:round;stroke-linejoin:round;stroke:#000;stroke-opacity:1;stroke-miterlimit:10" d="m765.703 1865.898-237.305-148.75L560 1855.04Zm0 0" transform="matrix(.1 0 0 -.1 0 200)"/><path style="stroke:none;fill-rule:nonzero;fill:#dd7801;fill-opacity:1" d="m56 14.496-3.16 13.79-34.774 65.46"/><path style="fill:none;stroke-width:5.78702;stroke-linecap:round;stroke-linejoin:round;stroke:#000;stroke-opacity:1;stroke-miterlimit:10" d="m560 1855.04-31.602-137.892" transform="matrix(.1 0 0 -.1 0 200)"/><path style="fill-rule:nonzero;fill:#c7f4ec;fill-opacity:1;stroke-width:5.78702;stroke-linecap:round;stroke-linejoin:round;stroke:#000;stroke-opacity:1;stroke-miterlimit:10" d="m578.281 433.36 240.196-151.094-39.844-87.032" transform="matrix(.1 0 0 -.1 0 200)"/><path style="fill-rule:nonzero;fill:#c7f4ec;fill-opacity:1;stroke-width:5.78702;stroke-linecap:round;stroke-linejoin:round;stroke:#000;stroke-opacity:1;stroke-miterlimit:10" d="M778.633 195.234 527.422 353.281l50.86 80.078" transform="matrix(.1 0 0 -.1 0 200)"/><path style="stroke:none;fill-rule:nonzero;fill:#d1f7e6;fill-opacity:1" d="m57.828 156.664-5.086 8.008-17.324-19.422"/><path style="fill:none;stroke-width:5.78702;stroke-linecap:round;stroke-linejoin:round;stroke:#000;stroke-opacity:1;stroke-miterlimit:10" d="m578.281 433.36-50.86-80.079L354.18 547.5Zm0 0" transform="matrix(.1 0 0 -.1 0 200)"/><path style="fill-rule:nonzero;fill:#83d0ff;fill-opacity:1;stroke-width:5.78702;stroke-linecap:round;stroke-linejoin:round;stroke:#000;stroke-opacity:1;stroke-miterlimit:10" d="m1050.547 157.422-271.914 37.812 39.844 87.032" transform="matrix(.1 0 0 -.1 0 200)"/><path style="stroke:none;fill-rule:nonzero;fill:#000086;fill-opacity:1" d="m178.547 92.516 8.52-11.118-35.313 77.532"/><path style="fill:none;stroke-width:5.78702;stroke-linecap:round;stroke-linejoin:round;stroke:#000;stroke-opacity:1;stroke-miterlimit:10" d="m1785.469 1074.844 85.195 111.172" transform="matrix(.1 0 0 -.1 0 200)"/><path style="stroke:none;fill-rule:nonzero;fill:#1faad1;fill-opacity:1" d="M76.57 13.41 56 14.496l90.969.375"/><path style="fill:none;stroke-width:5.78702;stroke-linecap:round;stroke-linejoin:round;stroke:#000;stroke-opacity:1;stroke-miterlimit:10" d="M765.703 1865.898 560 1855.04" transform="matrix(.1 0 0 -.1 0 200)"/><path style="stroke:none;fill-rule:nonzero;fill:#fde191;fill-opacity:1" d="m19.887 120.77-8.809-21.844 6.988-5.18"/><path style="fill:none;stroke-width:5.78702;stroke-linecap:round;stroke-linejoin:round;stroke:#000;stroke-opacity:1;stroke-miterlimit:10" d="m198.867 792.305-88.086 218.437 69.883 51.797Zm0 0" transform="matrix(.1 0 0 -.1 0 200)"/><path style="stroke:none;fill-rule:nonzero;fill:#dd7801;fill-opacity:1" d="M50.621 16.04 56 14.495l-37.934 79.25"/><path style="fill:none;stroke-width:5.78702;stroke-linecap:round;stroke-linejoin:round;stroke:#000;stroke-opacity:1;stroke-miterlimit:10" d="m506.21 1839.61 53.79 15.43" transform="matrix(.1 0 0 -.1 0 200)"/><path style="stroke:none;fill-rule:nonzero;fill:#dd7801;fill-opacity:1" d="m37.863 34.254 12.758-18.215-32.555 77.707"/><path style="fill:none;stroke-width:5.78702;stroke-linecap:round;stroke-linejoin:round;stroke:#000;stroke-opacity:1;stroke-miterlimit:10" d="m378.633 1657.46 127.578 182.15" transform="matrix(.1 0 0 -.1 0 200)"/><path style="stroke:none;fill-rule:nonzero;fill:#dd7801;fill-opacity:1" d="m22.887 62.313 14.976-28.06-19.797 59.493"/><path style="fill:none;stroke-width:5.78702;stroke-linecap:round;stroke-linejoin:round;stroke:#000;stroke-opacity:1;stroke-miterlimit:10" d="m228.867 1376.875 149.766 280.586" transform="matrix(.1 0 0 -.1 0 200)"/><path style="stroke:none;fill-rule:nonzero;fill:#dd7801;fill-opacity:1" d="m12.563 87.445 10.324-25.132-4.82 31.433"/><path style="fill:none;stroke-width:5.78702;stroke-linecap:round;stroke-linejoin:round;stroke:#000;stroke-opacity:1;stroke-miterlimit:10" d="m125.625 1125.547 103.242 251.328" transform="matrix(.1 0 0 -.1 0 200)"/><path style="fill-rule:nonzero;fill:#dd7801;fill-opacity:1;stroke-width:5.78702;stroke-linecap:round;stroke-linejoin:round;stroke:#000;stroke-opacity:1;stroke-miterlimit:10" d="m180.664 1062.54-69.883-51.798 14.844 114.805" transform="matrix(.1 0 0 -.1 0 200)"/><path style="stroke:none;fill-rule:nonzero;fill:#0e6bdd;fill-opacity:1" d="m124.48 177.418 20.848-18.297-1.086 8.246"/><path style="fill:none;stroke-width:5.78702;stroke-linecap:round;stroke-linejoin:round;stroke:#000;stroke-opacity:1;stroke-miterlimit:10" d="m1244.805 225.82 208.476 182.97-10.86-82.462Zm0 0" transform="matrix(.1 0 0 -.1 0 200)"/><path style="fill-rule:nonzero;fill:#000086;fill-opacity:1;stroke-width:5.78702;stroke-linecap:round;stroke-linejoin:round;stroke:#000;stroke-opacity:1;stroke-miterlimit:10" d="m1517.54 410.703-75.118-84.375 10.86 82.461" transform="matrix(.1 0 0 -.1 0 200)"/><path style="stroke:none;fill-rule:nonzero;fill:#09002e;fill-opacity:1" d="m35.418 145.25 17.324 19.422 17.535-.852"/><path style="fill:none;stroke-width:5.78702;stroke-linecap:round;stroke-linejoin:round;stroke:#000;stroke-opacity:1;stroke-miterlimit:10" d="m354.18 547.5 173.242-194.219" transform="matrix(.1 0 0 -.1 0 200)"/><path style="stroke:none;fill-rule:nonzero;fill:#09002e;fill-opacity:1" d="m19.887 120.77 15.531 24.48 34.86 18.57"/><path style="fill:none;stroke-width:5.78702;stroke-linecap:round;stroke-linejoin:round;stroke:#000;stroke-opacity:1;stroke-miterlimit:10" d="M198.867 792.305 354.18 547.5" transform="matrix(.1 0 0 -.1 0 200)"/><path style="stroke:none;fill-rule:nonzero;fill:#09002e;fill-opacity:1" d="m11.078 98.926 8.809 21.844 50.39 43.05"/><path style="fill:none;stroke-width:5.78702;stroke-linecap:round;stroke-linejoin:round;stroke:#000;stroke-opacity:1;stroke-miterlimit:10" d="m110.781 1010.742 88.086-218.437" transform="matrix(.1 0 0 -.1 0 200)"/><path style="fill-rule:nonzero;fill:#6f0000;fill-opacity:1;stroke-width:5.78702;stroke-linecap:round;stroke-linejoin:round;stroke:#000;stroke-opacity:1;stroke-miterlimit:10" d="m1249.063 259.414-198.516-101.992 194.258 68.398" transform="matrix(.1 0 0 -.1 0 200)"/><path style="fill-rule:nonzero;fill:#6f0000;fill-opacity:1;stroke-width:5.78702;stroke-linecap:round;stroke-linejoin:round;stroke:#000;stroke-opacity:1;stroke-miterlimit:10" d="m1244.805 225.82 197.617 100.508-193.36-66.914" transform="matrix(.1 0 0 -.1 0 200)"/><path style="stroke:none;fill-rule:nonzero;fill:#1faad1;fill-opacity:1" d="m56 14.496-5.379 1.543 96.348-1.168"/><path style="fill:none;stroke-width:5.78702;stroke-linecap:round;stroke-linejoin:round;stroke:#000;stroke-opacity:1;stroke-miterlimit:10" d="m560 1855.04-53.79-15.43" transform="matrix(.1 0 0 -.1 0 200)"/><path style="stroke:none;fill-rule:nonzero;fill:#000;fill-opacity:1" d="m183.078 58.027 4.875 28.133-.887-4.762"/><path style="fill:none;stroke-width:5.78702;stroke-linecap:round;stroke-linejoin:round;stroke:#000;stroke-opacity:1;stroke-miterlimit:10" d="m1830.781 1419.727 48.75-281.329-8.867 47.618Zm0 0" transform="matrix(.1 0 0 -.1 0 200)"/><path style="stroke:none;fill-rule:nonzero;fill:#000086;fill-opacity:1" d="m187.066 81.398.887 4.762-36.2 72.77"/><path style="fill:none;stroke-width:5.78702;stroke-linecap:round;stroke-linejoin:round;stroke:#000;stroke-opacity:1;stroke-miterlimit:10" d="m1870.664 1186.016 8.867-47.618" transform="matrix(.1 0 0 -.1 0 200)"/><path style="stroke:none;fill-rule:nonzero;fill:#000;fill-opacity:1" d="m77.863 180.477-11.672-8.215-13.449-7.59"/><path style="fill:none;stroke-width:5.78702;stroke-linecap:round;stroke-linejoin:round;stroke:#000;stroke-opacity:1;stroke-miterlimit:10" d="m778.633 195.234-116.719 82.149-134.492 75.898Zm0 0" transform="matrix(.1 0 0 -.1 0 200)"/><path style="fill-rule:nonzero;fill:#09002e;fill-opacity:1;stroke-width:5.78702;stroke-linecap:round;stroke-linejoin:round;stroke:#000;stroke-opacity:1;stroke-miterlimit:10" d="m527.422 353.281 134.492-75.898 40.86 84.414" transform="matrix(.1 0 0 -.1 0 200)"/><path style="fill-rule:nonzero;fill:#450000;fill-opacity:1;stroke-width:5.78702;stroke-linecap:round;stroke-linejoin:round;stroke:#000;stroke-opacity:1;stroke-miterlimit:10" d="m943.008 239.688-281.094 37.695 116.719-82.149" transform="matrix(.1 0 0 -.1 0 200)"/><path style="fill-rule:nonzero;fill:#450000;fill-opacity:1;stroke-width:5.78702;stroke-linecap:round;stroke-linejoin:round;stroke:#000;stroke-opacity:1;stroke-miterlimit:10" d="m778.633 195.234 271.914-37.812-107.54 82.266" transform="matrix(.1 0 0 -.1 0 200)"/><path style="fill-rule:nonzero;fill:#1faad1;fill-opacity:1;stroke-width:5.78702;stroke-linecap:round;stroke-linejoin:round;stroke:#000;stroke-opacity:1;stroke-miterlimit:10" d="m1258.047 1822.227 201.133 13.164 10.507 15.898" transform="matrix(.1 0 0 -.1 0 200)"/><path style="stroke:none;fill-rule:nonzero;fill:#1faad1;fill-opacity:1" d="m93.867 18.188 31.938-.41 21.164-2.907"/><path style="fill:none;stroke-width:5.78702;stroke-linecap:round;stroke-linejoin:round;stroke:#000;stroke-opacity:1;stroke-miterlimit:10" d="m938.672 1818.125 319.375 4.102" transform="matrix(.1 0 0 -.1 0 200)"/><path style="stroke:none;fill-rule:nonzero;fill:#1faad1;fill-opacity:1" d="m64.55 17.488 29.317.7 53.102-3.317"/><path style="fill:none;stroke-width:5.78702;stroke-linecap:round;stroke-linejoin:round;stroke:#000;stroke-opacity:1;stroke-miterlimit:10" d="m645.508 1825.117 293.164-6.992" transform="matrix(.1 0 0 -.1 0 200)"/><path style="stroke:none;fill-rule:nonzero;fill:#1faad1;fill-opacity:1" d="m50.621 16.04 13.93 1.448 82.418-2.617"/><path style="fill:none;stroke-width:5.78702;stroke-linecap:round;stroke-linejoin:round;stroke:#000;stroke-opacity:1;stroke-miterlimit:10" d="m506.21 1839.61 139.298-14.493" transform="matrix(.1 0 0 -.1 0 200)"/><path style="stroke:none;fill-rule:nonzero;fill:#91e8b0;fill-opacity:1" d="m145.918 16.46 21.477 15.477-20.426-17.066"/><path style="fill:none;stroke-width:5.78702;stroke-linecap:round;stroke-linejoin:round;stroke:#000;stroke-opacity:1;stroke-miterlimit:10" d="m1459.18 1835.39 214.765-154.765-204.257 170.664Zm0 0" transform="matrix(.1 0 0 -.1 0 200)"/><path style="stroke:none;fill-rule:nonzero;fill:#09002e;fill-opacity:1" d="m12.563 87.445-1.485 11.48 59.2 64.895"/><path style="fill:none;stroke-width:5.78702;stroke-linecap:round;stroke-linejoin:round;stroke:#000;stroke-opacity:1;stroke-miterlimit:10" d="m125.625 1125.547-14.844-114.805" transform="matrix(.1 0 0 -.1 0 200)"/><path style="stroke:none;fill-rule:nonzero;fill:#980600;fill-opacity:1" d="m124.906 174.059 19.336-6.692 7.512-8.437"/><path style="fill:none;stroke-width:5.78702;stroke-linecap:round;stroke-linejoin:round;stroke:#000;stroke-opacity:1;stroke-miterlimit:10" d="m1249.063 259.414 193.359 66.914 75.117 84.375Zm0 0" transform="matrix(.1 0 0 -.1 0 200)"/><path style="stroke:none;fill-rule:nonzero;fill:#9a2117;fill-opacity:1" d="m105.055 184.258 19.851-10.2-30.605 1.973"/><path style="fill:none;stroke-width:5.78702;stroke-linecap:round;stroke-linejoin:round;stroke:#000;stroke-opacity:1;stroke-miterlimit:10" d="m1050.547 157.422 198.515 101.992-306.054-19.726Zm0 0" transform="matrix(.1 0 0 -.1 0 200)"/><path style="stroke:none;fill-rule:nonzero;fill:#e3d2c6;fill-opacity:1" d="m183.078 58.027-15.683-26.09-48.293 35.918"/><path style="fill:none;stroke-width:5.78702;stroke-linecap:round;stroke-linejoin:round;stroke:#000;stroke-opacity:1;stroke-miterlimit:10" d="m1830.781 1419.727-156.836 260.898" transform="matrix(.1 0 0 -.1 0 200)"/><path style="stroke:none;fill-rule:nonzero;fill:#e3d2c6;fill-opacity:1" d="m187.953 86.16-4.875-28.133-63.976 9.828"/><path style="fill:none;stroke-width:5.78702;stroke-linecap:round;stroke-linejoin:round;stroke:#000;stroke-opacity:1;stroke-miterlimit:10" d="m1879.531 1138.398-48.75 281.329" transform="matrix(.1 0 0 -.1 0 200)"/><path style="stroke:none;fill-rule:nonzero;fill:#e3d2c6;fill-opacity:1" d="M167.395 31.938 145.918 16.46l-26.816 51.394"/><path style="fill:none;stroke-width:5.78702;stroke-linecap:round;stroke-linejoin:round;stroke:#000;stroke-opacity:1;stroke-miterlimit:10" d="m1673.945 1680.625-214.765 154.766" transform="matrix(.1 0 0 -.1 0 200)"/><path style="stroke:none;fill-rule:nonzero;fill:#3f83e8;fill-opacity:1" d="M64.55 17.488 50.622 16.04 37.863 34.254"/><path style="fill:none;stroke-width:5.78702;stroke-linecap:round;stroke-linejoin:round;stroke:#000;stroke-opacity:1;stroke-miterlimit:10" d="M645.508 1825.117 506.21 1839.61l-127.578-182.148Zm0 0" transform="matrix(.1 0 0 -.1 0 200)"/><path style="stroke:none;fill-rule:nonzero;fill:#5f0008;fill-opacity:1" d="m70.277 163.82-4.086 8.442 28.11 3.77"/><path style="fill:none;stroke-width:5.78702;stroke-linecap:round;stroke-linejoin:round;stroke:#000;stroke-opacity:1;stroke-miterlimit:10" d="m702.773 361.797-40.859-84.414 281.094-37.695Zm0 0" transform="matrix(.1 0 0 -.1 0 200)"/><path style="stroke:none;fill-rule:nonzero;fill:#000086;fill-opacity:1" d="m187.953 86.16-8.113 20.7-28.086 52.07"/><path style="fill:none;stroke-width:5.78702;stroke-linecap:round;stroke-linejoin:round;stroke:#000;stroke-opacity:1;stroke-miterlimit:10" d="m1879.531 1138.398-81.133-206.992" transform="matrix(.1 0 0 -.1 0 200)"/><path style="stroke:none;fill-rule:nonzero;fill:#e3d2c6;fill-opacity:1" d="m179.84 106.86 8.113-20.7-68.851-18.305"/><path style="fill:none;stroke-width:5.78702;stroke-linecap:round;stroke-linejoin:round;stroke:#000;stroke-opacity:1;stroke-miterlimit:10" d="m1798.398 931.406 81.133 206.992" transform="matrix(.1 0 0 -.1 0 200)"/><path style="stroke:none;fill-rule:nonzero;fill:#bc7581;fill-opacity:1" d="m124.906 174.059 26.848-15.13-89.64-18.027"/><path style="fill:none;stroke-width:5.78702;stroke-linecap:round;stroke-linejoin:round;stroke:#000;stroke-opacity:1;stroke-miterlimit:10" d="m1249.063 259.414 268.476 151.29" transform="matrix(.1 0 0 -.1 0 200)"/><path style="stroke:none;fill-rule:nonzero;fill:#bc7581;fill-opacity:1" d="m94.3 176.031 30.606-1.972-62.793-33.157"/><path style="fill:none;stroke-width:5.78702;stroke-linecap:round;stroke-linejoin:round;stroke:#000;stroke-opacity:1;stroke-miterlimit:10" d="m943.008 239.688 306.054 19.726" transform="matrix(.1 0 0 -.1 0 200)"/><path style="stroke:none;fill-rule:nonzero;fill:#3132a1;fill-opacity:1" d="m25.027 92.07-2.14-29.757-10.325 25.132"/><path style="fill:none;stroke-width:5.78702;stroke-linecap:round;stroke-linejoin:round;stroke:#000;stroke-opacity:1;stroke-miterlimit:10" d="m250.273 1079.297-21.406 297.578-103.242-251.328Zm0 0" transform="matrix(.1 0 0 -.1 0 200)"/><path style="stroke:none;fill-rule:nonzero;fill:#09002e;fill-opacity:1" d="m25.027 92.07-12.465-4.625 57.715 76.375"/><path style="fill:none;stroke-width:5.78702;stroke-linecap:round;stroke-linejoin:round;stroke:#000;stroke-opacity:1;stroke-miterlimit:10" d="m250.273 1079.297-124.648 46.25" transform="matrix(.1 0 0 -.1 0 200)"/><path style="stroke:none;fill-rule:nonzero;fill:#e3d2c6;fill-opacity:1" d="m145.918 16.46-20.113 1.317-6.703 50.078"/><path style="fill:none;stroke-width:5.78702;stroke-linecap:round;stroke-linejoin:round;stroke:#000;stroke-opacity:1;stroke-miterlimit:10" d="m1459.18 1835.39-201.133-13.163" transform="matrix(.1 0 0 -.1 0 200)"/><path style="fill-rule:nonzero;fill:#000086;fill-opacity:1;stroke-width:5.78702;stroke-linecap:round;stroke-linejoin:round;stroke:#000;stroke-opacity:1;stroke-miterlimit:10" d="m1798.398 931.406-142.226-286.133-138.633-234.57" transform="matrix(.1 0 0 -.1 0 200)"/><path style="stroke:none;fill-rule:nonzero;fill:#bc7581;fill-opacity:1" d="m151.754 158.93 13.863-23.457-103.504 5.43"/><path style="fill:none;stroke-width:5.78702;stroke-linecap:round;stroke-linejoin:round;stroke:#000;stroke-opacity:1;stroke-miterlimit:10" d="m1517.54 410.703 138.632 234.57" transform="matrix(.1 0 0 -.1 0 200)"/><path style="fill-rule:nonzero;fill:#bc7581;fill-opacity:1;stroke-width:5.78702;stroke-linecap:round;stroke-linejoin:round;stroke:#000;stroke-opacity:1;stroke-miterlimit:10" d="m621.133 590.977 81.64-229.18 240.235-122.11" transform="matrix(.1 0 0 -.1 0 200)"/><path style="stroke:none;fill-rule:nonzero;fill:#1746c1;fill-opacity:1" d="m39.773 49.414-1.91-15.16-14.976 28.059"/><path style="fill:none;stroke-width:5.78702;stroke-linecap:round;stroke-linejoin:round;stroke:#000;stroke-opacity:1;stroke-miterlimit:10" d="m397.734 1505.86-19.101 151.6-149.766-280.585Zm0 0" transform="matrix(.1 0 0 -.1 0 200)"/><path style="fill-rule:nonzero;fill:#5a8ae6;fill-opacity:1;stroke-width:5.78702;stroke-linecap:round;stroke-linejoin:round;stroke:#000;stroke-opacity:1;stroke-miterlimit:10" d="m645.508 1825.117-266.875-167.656 19.101-151.602" transform="matrix(.1 0 0 -.1 0 200)"/><path style="stroke:none;fill-rule:nonzero;fill:#e3d2c6;fill-opacity:1" d="m160.563 111.68 19.277-4.82-60.738-39.005"/><path style="fill:none;stroke-width:5.78702;stroke-linecap:round;stroke-linejoin:round;stroke:#000;stroke-opacity:1;stroke-miterlimit:10" d="m1605.625 883.203 192.773 48.203" transform="matrix(.1 0 0 -.1 0 200)"/><path style="stroke:none;fill-rule:nonzero;fill:#eba885;fill-opacity:1" d="m160.563 111.68 5.054 23.793 14.223-28.614"/><path style="fill:none;stroke-width:5.78702;stroke-linecap:round;stroke-linejoin:round;stroke:#000;stroke-opacity:1;stroke-miterlimit:10" d="m1605.625 883.203 50.547-237.93 142.226 286.133Zm0 0" transform="matrix(.1 0 0 -.1 0 200)"/><path style="fill-rule:nonzero;fill:#4c49ad;fill-opacity:1;stroke-width:5.78702;stroke-linecap:round;stroke-linejoin:round;stroke:#000;stroke-opacity:1;stroke-miterlimit:10" d="m228.867 1376.875 21.406-297.578 172.97 119.922" transform="matrix(.1 0 0 -.1 0 200)"/><path style="fill-rule:nonzero;fill:#4c49ad;fill-opacity:1;stroke-width:5.78702;stroke-linecap:round;stroke-linejoin:round;stroke:#000;stroke-opacity:1;stroke-miterlimit:10" d="m423.242 1199.219-25.508 306.64-168.867-128.984" transform="matrix(.1 0 0 -.1 0 200)"/><path style="fill-rule:nonzero;fill:#5a8ae6;fill-opacity:1;stroke-width:5.78702;stroke-linecap:round;stroke-linejoin:round;stroke:#000;stroke-opacity:1;stroke-miterlimit:10" d="m397.734 1505.86 278.946 173.632-31.172 145.625" transform="matrix(.1 0 0 -.1 0 200)"/><path style="stroke:none;fill-rule:nonzero;fill:#86b8f6;fill-opacity:1" d="m64.55 17.488 3.118 14.563 26.2-13.864"/><path style="fill:none;stroke-width:5.78702;stroke-linecap:round;stroke-linejoin:round;stroke:#000;stroke-opacity:1;stroke-miterlimit:10" d="m645.508 1825.117 31.172-145.625 261.992 138.633Zm0 0" transform="matrix(.1 0 0 -.1 0 200)"/><path style="stroke:none;fill-rule:nonzero;fill:#bc7581;fill-opacity:1" d="m165.617 135.473-5.054-23.793-98.45 29.222"/><path style="fill:none;stroke-width:5.78702;stroke-linecap:round;stroke-linejoin:round;stroke:#000;stroke-opacity:1;stroke-miterlimit:10" d="m1656.172 645.273-50.547 237.93" transform="matrix(.1 0 0 -.1 0 200)"/><path style="stroke:none;fill-rule:nonzero;fill:#09002e;fill-opacity:1" d="M44.355 112.7 25.027 92.07l45.25 71.75"/><path style="fill:none;stroke-width:5.78702;stroke-linecap:round;stroke-linejoin:round;stroke:#000;stroke-opacity:1;stroke-miterlimit:10" d="m443.555 873.008-193.282 206.289" transform="matrix(.1 0 0 -.1 0 200)"/><path style="fill-rule:nonzero;fill:#09002e;fill-opacity:1;stroke-width:5.78702;stroke-linecap:round;stroke-linejoin:round;stroke:#000;stroke-opacity:1;stroke-miterlimit:10" d="m702.773 361.797-81.64 229.18-177.578 282.03" transform="matrix(.1 0 0 -.1 0 200)"/><path style="stroke:none;fill-rule:nonzero;fill:#b5c4e5;fill-opacity:1" d="m115.035 37.074 10.77-19.297-31.938.41"/><path style="fill:none;stroke-width:5.78702;stroke-linecap:round;stroke-linejoin:round;stroke:#000;stroke-opacity:1;stroke-miterlimit:10" d="m1150.352 1629.258 107.695 192.969-319.375-4.102Zm0 0" transform="matrix(.1 0 0 -.1 0 200)"/><path style="fill-rule:nonzero;fill:#e3d2c6;fill-opacity:1;stroke-width:5.78702;stroke-linecap:round;stroke-linejoin:round;stroke:#000;stroke-opacity:1;stroke-miterlimit:10" d="m1258.047 1822.227-107.695-192.97 40.664-307.812" transform="matrix(.1 0 0 -.1 0 200)"/><path style="stroke:none;fill-rule:nonzero;fill:#674595;fill-opacity:1" d="M42.324 80.078 25.027 92.07l19.328 20.63"/><path style="fill:none;stroke-width:5.78702;stroke-linecap:round;stroke-linejoin:round;stroke:#000;stroke-opacity:1;stroke-miterlimit:10" d="m423.242 1199.219-172.969-119.922 193.282-206.29Zm0 0" transform="matrix(.1 0 0 -.1 0 200)"/><path style="fill-rule:nonzero;fill:#b0bbe1;fill-opacity:1;stroke-width:5.78702;stroke-linecap:round;stroke-linejoin:round;stroke:#000;stroke-opacity:1;stroke-miterlimit:10" d="m1150.352 1629.258-211.68 188.867-261.992-138.633" transform="matrix(.1 0 0 -.1 0 200)"/><path style="fill-rule:nonzero;fill:#e3d2c6;fill-opacity:1;stroke-width:5.78702;stroke-linecap:round;stroke-linejoin:round;stroke:#000;stroke-opacity:1;stroke-miterlimit:10" d="m1191.016 1321.445 178.437-291.289 236.172-146.953" transform="matrix(.1 0 0 -.1 0 200)"/><path style="stroke:none;fill-rule:nonzero;fill:#bc7581;fill-opacity:1" d="m160.563 111.68-23.618-14.696-74.832 43.918"/><path style="fill:none;stroke-width:5.78702;stroke-linecap:round;stroke-linejoin:round;stroke:#000;stroke-opacity:1;stroke-miterlimit:10" d="m1605.625 883.203-236.172 146.953" transform="matrix(.1 0 0 -.1 0 200)"/><path style="fill-rule:nonzero;fill:#978dc7;fill-opacity:1;stroke-width:5.78702;stroke-linecap:round;stroke-linejoin:round;stroke:#000;stroke-opacity:1;stroke-miterlimit:10" d="m886.64 1482.617-209.96 196.875-278.946-173.633" transform="matrix(.1 0 0 -.1 0 200)"/><path style="stroke:none;fill-rule:nonzero;fill:#978dc7;fill-opacity:1" d="m72.785 82.203 15.88-30.465-48.892-2.324"/><path style="fill:none;stroke-width:5.78702;stroke-linecap:round;stroke-linejoin:round;stroke:#000;stroke-opacity:1;stroke-miterlimit:10" d="m727.852 1177.969 158.789 304.648" transform="matrix(.1 0 0 -.1 0 200)"/><path style="fill-rule:nonzero;fill:#978dc7;fill-opacity:1;stroke-width:5.78702;stroke-linecap:round;stroke-linejoin:round;stroke:#000;stroke-opacity:1;stroke-miterlimit:10" d="m397.734 1505.86 25.508-306.641 304.61-21.25" transform="matrix(.1 0 0 -.1 0 200)"/><path style="stroke:none;fill-rule:nonzero;fill:#936498;fill-opacity:1" d="m74.45 115.508-30.095-2.809 17.758 28.203"/><path style="fill:none;stroke-width:5.78702;stroke-linecap:round;stroke-linejoin:round;stroke:#000;stroke-opacity:1;stroke-miterlimit:10" d="m744.492 844.922-300.937 28.086 177.578-282.031Zm0 0" transform="matrix(.1 0 0 -.1 0 200)"/><path style="fill-rule:nonzero;fill:#bc7581;fill-opacity:1;stroke-width:5.78702;stroke-linecap:round;stroke-linejoin:round;stroke:#000;stroke-opacity:1;stroke-miterlimit:10" d="m1034.688 1016.992-290.196-172.07-123.36-253.945" transform="matrix(.1 0 0 -.1 0 200)"/><path style="stroke:none;fill-rule:nonzero;fill:#bc7581;fill-opacity:1" d="m136.945 96.984-33.476 1.317-41.356 42.601"/><path style="fill:none;stroke-width:5.78702;stroke-linecap:round;stroke-linejoin:round;stroke:#000;stroke-opacity:1;stroke-miterlimit:10" d="m1369.453 1030.156-334.765-13.164" transform="matrix(.1 0 0 -.1 0 200)"/><path style="fill-rule:nonzero;fill:#946ba0;fill-opacity:1;stroke-width:5.78702;stroke-linecap:round;stroke-linejoin:round;stroke:#000;stroke-opacity:1;stroke-miterlimit:10" d="m443.555 873.008 300.937-28.086-16.64 333.047M727.852 1177.969l-304.61 21.25 20.313-326.211" transform="matrix(.1 0 0 -.1 0 200)"/><path style="fill-rule:nonzero;fill:#b0bbe1;fill-opacity:1;stroke-width:5.78702;stroke-linecap:round;stroke-linejoin:round;stroke:#000;stroke-opacity:1;stroke-miterlimit:10" d="m676.68 1679.492 209.96-196.875 263.712 146.64" transform="matrix(.1 0 0 -.1 0 200)"/><path style="stroke:none;fill-rule:nonzero;fill:#c4b6cc;fill-opacity:1" d="m88.664 51.738 30.438 16.117-4.067-30.78"/><path style="fill:none;stroke-width:5.78702;stroke-linecap:round;stroke-linejoin:round;stroke:#000;stroke-opacity:1;stroke-miterlimit:10" d="m886.64 1482.617 304.376-161.172-40.664 307.813Zm0 0" transform="matrix(.1 0 0 -.1 0 200)"/><path style="stroke:none;fill-rule:nonzero;fill:#c19eb5;fill-opacity:1" d="m119.102 67.855-15.633 30.446 33.476-1.317"/><path style="fill:none;stroke-width:5.78702;stroke-linecap:round;stroke-linejoin:round;stroke:#000;stroke-opacity:1;stroke-miterlimit:10" d="m1191.016 1321.445-156.329-304.453 334.766 13.164Zm0 0" transform="matrix(.1 0 0 -.1 0 200)"/><path style="stroke:none;fill-rule:nonzero;fill:#b082a3;fill-opacity:1" d="m72.785 82.203 1.664 33.305L103.47 98.3"/><path style="fill:none;stroke-width:5.78702;stroke-linecap:round;stroke-linejoin:round;stroke:#000;stroke-opacity:1;stroke-miterlimit:10" d="m727.852 1177.969 16.64-333.047 290.196 172.07Zm0 0" transform="matrix(.1 0 0 -.1 0 200)"/><path style="fill-rule:nonzero;fill:#bb9cb8;fill-opacity:1;stroke-width:5.78702;stroke-linecap:round;stroke-linejoin:round;stroke:#000;stroke-opacity:1;stroke-miterlimit:10" d="m1034.688 1016.992 156.328 304.453-304.375 161.172" transform="matrix(.1 0 0 -.1 0 200)"/><path style="fill-rule:nonzero;fill:#bb9cb8;fill-opacity:1;stroke-width:5.78702;stroke-linecap:round;stroke-linejoin:round;stroke:#000;stroke-opacity:1;stroke-miterlimit:10" d="M886.64 1482.617 727.853 1177.97l306.836-160.977" transform="matrix(.1 0 0 -.1 0 200)"/></svg>