<svg xmlns="http://www.w3.org/2000/svg" width="286.813" height="250.867" viewBox="0 0 215.11 188.15" version="1.2"><defs><clipPath id="a"><path d="M132 0h82.184v105H132Zm0 0"/></clipPath><clipPath id="b"><path d="M.04 0H191v129H.04Zm0 0"/></clipPath><clipPath id="c"><path d="M132 0h82.184v28H132Zm0 0"/></clipPath><clipPath id="d"><path d="M.04 0H133v129H.04Zm0 0"/></clipPath><clipPath id="e"><path d="M.04 0H133v130H.04Zm0 0"/></clipPath><clipPath id="f"><path d="M.04 11H18v118H.04Zm0 0"/></clipPath><clipPath id="g"><path d="M.04 11H19v119H.04Zm0 0"/></clipPath><clipPath id="h"><path d="M.04 103H191v84H.04Zm0 0"/></clipPath><clipPath id="i"><path d="M.04 103H191v84.305H.04Zm0 0"/></clipPath><clipPath id="j"><path d="M190 7h24.184v98H190Zm0 0"/></clipPath><clipPath id="k"><path d="M73 103h118v84.305H73Zm0 0"/></clipPath><clipPath id="l"><path d="M.04 128H113v59H.04Zm0 0"/></clipPath><clipPath id="m"><path d="M.04 128H114v59.305H.04Zm0 0"/></clipPath><clipPath id="n"><path d="M.04 29H75v123H.04Zm0 0"/></clipPath><clipPath id="o"><path d="M.04 28H75v124H.04Zm0 0"/></clipPath><clipPath id="p"><path d="M73 7h141.184v145H73Zm0 0"/></clipPath></defs><path style="stroke:none;fill-rule:nonzero;fill:#947790;fill-opacity:1" d="M190.418 103.613 132.574.398l81.211 7.844-23.367 95.371"/><g clip-path="url(#a)"><path style="fill:none;stroke-width:8.04;stroke-linecap:round;stroke-linejoin:round;stroke:#231f20;stroke-opacity:1;stroke-miterlimit:10" d="m1912.373 840.686-581.05 1036.812 815.778-78.792Zm0 0" transform="matrix(.09955 0 0 -.09955 .04 187.304)"/></g><g clip-path="url(#b)"><path style="stroke:none;fill-rule:nonzero;fill:#c6b2be;fill-opacity:1" d="m132.574.398 57.844 103.215L.441 128.743"/></g><path style="fill:none;stroke-width:8.04;stroke-linecap:round;stroke-linejoin:round;stroke:#231f20;stroke-opacity:1;stroke-miterlimit:10" d="m1331.322 1877.498 581.051-1036.812" transform="matrix(.09955 0 0 -.09955 .04 187.304)"/><path style="stroke:none;fill-rule:nonzero;fill:#5da2da;fill-opacity:1" d="m143.063 27.598 70.722-19.356-81.21-7.844"/><g clip-path="url(#c)"><path style="fill:none;stroke-width:8.04;stroke-linecap:round;stroke-linejoin:round;stroke:#231f20;stroke-opacity:1;stroke-miterlimit:10" d="m1436.68 1604.277 710.42 194.429-815.778 78.792" transform="matrix(.09955 0 0 -.09955 .04 187.304)"/></g><g clip-path="url(#d)"><path style="stroke:none;fill-rule:nonzero;fill:#c6b2be;fill-opacity:1" d="M.441 128.742 17.621 11.45 132.574.4"/></g><g clip-path="url(#e)"><path style="fill:none;stroke-width:8.04;stroke-linecap:round;stroke-linejoin:round;stroke:#231f20;stroke-opacity:1;stroke-miterlimit:10" d="m4.025 588.262 172.573 1178.229 1154.724 111.007" transform="matrix(.09955 0 0 -.09955 .04 187.304)"/></g><g clip-path="url(#f)"><path style="stroke:none;fill-rule:nonzero;fill:#d9a833;fill-opacity:1" d="m8.418 29.066 9.203-17.617L.441 128.742l7.977-99.676"/></g><g clip-path="url(#g)"><path style="fill:none;stroke-width:8.04;stroke-linecap:round;stroke-linejoin:round;stroke:#231f20;stroke-opacity:1;stroke-miterlimit:10" d="m84.151 1589.523 92.447 176.968L4.025 588.262Zm0 0" transform="matrix(.09955 0 0 -.09955 .04 187.304)"/></g><path style="stroke:none;fill-rule:nonzero;fill:#5da2da;fill-opacity:1" d="m8.418 29.066 134.644-1.468-10.488-27.2"/><path style="fill:none;stroke-width:8.04;stroke-linecap:round;stroke-linejoin:round;stroke:#231f20;stroke-opacity:1;stroke-miterlimit:10" d="m84.151 1589.523 1352.528 14.754" transform="matrix(.09955 0 0 -.09955 .04 187.304)"/><path style="fill-rule:nonzero;fill:#5da2da;fill-opacity:1;stroke-width:8.04;stroke-linecap:round;stroke-linejoin:round;stroke:#231f20;stroke-opacity:1;stroke-miterlimit:10" d="M1331.322 1877.498 176.598 1766.49l-92.447-176.968" transform="matrix(.09955 0 0 -.09955 .04 187.304)"/><g clip-path="url(#h)"><path style="stroke:none;fill-rule:nonzero;fill:#c6b2be;fill-opacity:1" d="m190.418 103.613-77.742 83.29L.44 128.742"/></g><g clip-path="url(#i)"><path style="fill:none;stroke-width:8.04;stroke-linecap:round;stroke-linejoin:round;stroke:#231f20;stroke-opacity:1;stroke-miterlimit:10" d="M1912.373 840.686 1131.44 4.033 4.025 588.262" transform="matrix(.09955 0 0 -.09955 .04 187.304)"/></g><path style="stroke:none;fill-rule:nonzero;fill:#e49f70;fill-opacity:1" d="m190.418 103.613 23.367-95.37L74.34 151.397"/><g clip-path="url(#j)"><path style="fill:none;stroke-width:8.04;stroke-linecap:round;stroke-linejoin:round;stroke:#231f20;stroke-opacity:1;stroke-miterlimit:10" d="m1912.373 840.686 234.728 958.02" transform="matrix(.09955 0 0 -.09955 .04 187.304)"/></g><path style="stroke:none;fill-rule:nonzero;fill:#e49f70;fill-opacity:1" d="m74.34 151.398 38.336 35.504 77.742-83.289"/><g clip-path="url(#k)"><path style="fill:none;stroke-width:8.04;stroke-linecap:round;stroke-linejoin:round;stroke:#231f20;stroke-opacity:1;stroke-miterlimit:10" d="M746.348 360.676 1131.439 4.033l780.934 836.653" transform="matrix(.09955 0 0 -.09955 .04 187.304)"/></g><g clip-path="url(#l)"><path style="stroke:none;fill-rule:nonzero;fill:#2d2827;fill-opacity:1" d="m.441 128.742 112.235 58.16-38.336-35.504L.44 128.742"/></g><g clip-path="url(#m)"><path style="fill:none;stroke-width:8.04;stroke-linecap:round;stroke-linejoin:round;stroke:#231f20;stroke-opacity:1;stroke-miterlimit:10" d="M4.025 588.262 1131.439 4.032 746.348 360.677Zm0 0" transform="matrix(.09955 0 0 -.09955 .04 187.304)"/></g><g clip-path="url(#n)"><path style="stroke:none;fill-rule:nonzero;fill:#836681;fill-opacity:1" d="M74.34 151.398 8.418 29.066.441 128.742l73.899 22.656"/></g><g clip-path="url(#o)"><path style="fill:none;stroke-width:8.04;stroke-linecap:round;stroke-linejoin:round;stroke:#231f20;stroke-opacity:1;stroke-miterlimit:10" d="M746.348 360.676 84.15 1589.523 4.025 588.262Zm0 0" transform="matrix(.09955 0 0 -.09955 .04 187.304)"/></g><path style="stroke:none;fill-rule:nonzero;fill:#e49f70;fill-opacity:1" d="m213.785 8.242-70.722 19.356-68.723 123.8"/><g clip-path="url(#p)"><path style="fill:none;stroke-width:8.04;stroke-linecap:round;stroke-linejoin:round;stroke:#231f20;stroke-opacity:1;stroke-miterlimit:10" d="m2147.1 1798.706-710.42-194.43-690.332-1243.6" transform="matrix(.09955 0 0 -.09955 .04 187.304)"/></g><path style="stroke:none;fill-rule:nonzero;fill:#b299ad;fill-opacity:1" d="m74.34 151.398 68.722-123.8L8.418 29.066 74.34 151.398"/><path style="fill:none;stroke-width:8.04;stroke-linecap:round;stroke-linejoin:round;stroke:#231f20;stroke-opacity:1;stroke-miterlimit:10" d="m746.348 360.676 690.331 1243.6-1352.528-14.753Zm0 0" transform="matrix(.09955 0 0 -.09955 .04 187.304)"/></svg>