<svg xmlns="http://www.w3.org/2000/svg" width="500" height="500"><path d="M250.2 4.2C111.8 4.2 0 116.8 0 256.2 0 367.7 71.7 462 171.1 495.4c12.4 2.5 17-5.4 17-12.1 0-5.8-.4-25.9-.4-46.7-69.6 15-84.1-30-84.1-30-11.2-29.2-27.8-36.7-27.8-36.7-22.8-15.4 1.7-15.4 1.7-15.4 25.3 1.7 38.5 25.9 38.5 25.9 22.4 38.4 58.4 27.5 72.9 20.9 2.1-16.3 8.7-27.5 15.7-33.8-55.5-5.8-113.9-27.5-113.9-124.4 0-27.5 9.9-50.1 25.7-67.6-2.5-6.3-11.2-32.1 2.5-66.8 0 0 21.1-6.7 68.8 25.9 20.4-5.5 41.4-8.3 62.6-8.3 21.1 0 42.7 2.9 62.5 8.3 47.6-32.6 68.8-25.9 68.8-25.9 13.7 34.6 5 60.5 2.5 66.8 16.2 17.5 25.7 40.1 25.7 67.6 0 96.8-58.4 118.1-114.3 124.4 9.1 7.9 17 22.9 17 46.7 0 33.8-.4 60.9-.4 69.3 0 6.7 4.6 14.6 17 12.1C428.3 462 500 367.7 500 256.2c.4-139.4-111.9-252-249.8-252z" style="fill:#fff"/></svg>