<svg xmlns="http://www.w3.org/2000/svg" width="500" height="80"><style>.st0{fill:#fff}</style><path class="st0" d="m30.7 18.5-7-15.1L6.9 15.7c-.3.2-.5.6-.6.9L0 40.1h16.9l13.8-21.6zM33.4 20.5 19.8 41.6l16.6 21.2 24.2-10.6-1.5-25.6zM60.1 23.4l10.2-10.2L50 .7c-.3-.2-.6-.3-1-.2L26.8 2.1l7 15.1 26.3 6.2zM17 43.4H.1l7.8 22c.1.3.4.7.7.8L29 78.7 34 65 17 43.4zM37.2 66.1l-4.9 13.4 23.6-3.2c.3-.1.6-.2.8-.3L74 63.5l-11.9-8.3-24.9 10.9zM78.8 34.6l-6.3-18.8-10.2 10.1 1.5 26.5 11.7 8.2 3.2-25.3c.2-.2.1-.5.1-.7zM93 55.4V19.6h13.9v3.7H98v11.8h7.2v3.5H98v13.1h9v3.6H93zM110.6 55.4V29.8h4.7v2.5c.9-.8 1.8-1.5 2.8-2 1-.6 2.2-.8 3.4-.8 1 0 1.8.3 2.4.8.5.5.9 1.2 1.1 2s.3 1.6.3 2.4v20.7h-4.7V36.1c0-.9-.1-1.6-.4-2.1-.3-.5-.8-.8-1.6-.8-.5 0-1.1.2-1.7.5-.6.3-1.1.7-1.7 1.1v20.6h-4.6zM137 55.7c-2.1 0-3.7-.4-4.8-1.3-1.1-.8-1.8-2-2.2-3.6-.4-1.5-.6-3.3-.6-5.3v-5.9c0-2.2.2-4 .6-5.5.4-1.5 1.1-2.7 2.2-3.5 1.1-.8 2.6-1.2 4.7-1.2 1.9 0 3.3.3 4.3.9 1 .6 1.7 1.5 2.1 2.7.4 1.2.6 2.7.6 4.4V39h-4.3v-1.5c0-1.1-.1-2-.2-2.7-.1-.6-.4-1.1-.8-1.4-.4-.3-.9-.4-1.6-.4-.8 0-1.4.2-1.8.5-.4.4-.7 1-.8 1.8s-.2 2-.2 3.4v8c0 2.2.2 3.6.6 4.4.4.7 1.1 1.1 2.2 1.1.8 0 1.4-.2 1.7-.6.4-.4.6-.9.7-1.6.1-.7.2-1.4.2-2.3v-2.1h4.3v1.8c0 1.7-.2 3.2-.6 4.4-.4 1.2-1.1 2.2-2.1 2.8-.9.8-2.3 1.1-4.2 1.1zM147.8 61.8v-3.6c1.1 0 2.1-.1 2.7-.2.7-.1 1.2-.3 1.5-.6.3-.3.4-.7.4-1.2 0-.3-.1-.9-.3-1.8-.2-.9-.4-1.9-.7-2.9l-5.1-21.8h4.8l3.4 19.1 3.3-19.1h4.8l-6.1 27c-.3 1.2-.8 2.2-1.5 2.9-.7.7-1.6 1.2-2.7 1.6-1.1.3-2.4.5-4 .5h-.5zM172.5 55.7c-2.1 0-3.7-.4-4.8-1.3-1.1-.8-1.8-2-2.2-3.6-.4-1.5-.6-3.3-.6-5.3v-5.9c0-2.2.2-4 .6-5.5.4-1.5 1.1-2.7 2.2-3.5 1.1-.8 2.6-1.2 4.7-1.2 1.9 0 3.3.3 4.3.9 1 .6 1.7 1.5 2.1 2.7.4 1.2.6 2.7.6 4.4V39h-4.3v-1.5c0-1.1-.1-2-.2-2.7-.1-.6-.4-1.1-.8-1.4-.4-.3-.9-.4-1.6-.4-.8 0-1.4.2-1.8.5-.4.4-.7 1-.8 1.8-.1.8-.2 2-.2 3.4v8c0 2.2.2 3.6.6 4.4.4.7 1.1 1.1 2.2 1.1.8 0 1.4-.2 1.7-.6.4-.4.6-.9.7-1.6.1-.7.2-1.4.2-2.3v-2.1h4.3v1.8c0 1.7-.2 3.2-.6 4.4-.4 1.2-1.1 2.2-2.1 2.8-.9.8-2.3 1.1-4.2 1.1zM184.2 55.4V19.6h4.7v35.8h-4.7zM200.9 55.7c-1.9 0-3.4-.4-4.5-1.1-1.1-.8-1.9-1.9-2.3-3.3-.5-1.4-.7-3.1-.7-5v-7.4c0-1.9.2-3.6.7-5 .5-1.4 1.2-2.5 2.3-3.3 1.1-.8 2.6-1.1 4.5-1.1s3.4.4 4.4 1.1c1.1.8 1.8 1.9 2.3 3.3.5 1.4.7 3.1.7 5v7.4c0 1.9-.2 3.6-.7 5-.5 1.4-1.2 2.5-2.3 3.3-1.1.7-2.5 1.1-4.4 1.1zm0-3.5c.9 0 1.6-.3 1.9-.8.4-.5.6-1.2.7-2.1.1-.9.1-1.8.1-2.7v-8c0-1 0-1.9-.1-2.7-.1-.9-.3-1.6-.7-2.1-.4-.5-1-.8-1.9-.8-.9 0-1.6.3-1.9.8-.4.5-.6 1.2-.7 2.1-.1.9-.1 1.8-.1 2.7v8c0 .9 0 1.9.1 2.7.1.9.3 1.6.7 2.1s1 .8 1.9.8zM212.6 63.8v-34h4.7v2c.6-.6 1.2-1.2 2-1.7s1.7-.7 2.8-.7c1.3 0 2.4.3 3.2 1 .8.7 1.4 1.6 1.7 2.6.4 1 .6 2.1.8 3.2.1 1.1.2 2 .2 2.8v6.2c0 1.8-.2 3.5-.5 5.1-.4 1.6-1 2.9-1.9 3.9-.9 1-2.2 1.5-3.9 1.5-.9 0-1.7-.2-2.4-.7-.7-.5-1.3-1-1.9-1.6v10.3h-4.8zm8.2-11.8c.8 0 1.4-.3 1.8-.9.4-.6.6-1.4.7-2.5.1-1 .1-2.2.1-3.4V39c0-1.1-.1-2-.2-2.9-.1-.9-.4-1.6-.8-2.1s-1-.8-1.8-.8c-.6 0-1.2.1-1.8.4-.6.3-1 .6-1.5.9v16.4c.4.3.9.6 1.5.8.6.2 1.3.3 2 .3zM239.4 55.7c-2 0-3.6-.4-4.6-1.2-1.1-.8-1.9-1.9-2.3-3.4-.4-1.5-.6-3.4-.6-5.6v-5.8c0-2.3.2-4.2.7-5.7.4-1.5 1.2-2.6 2.3-3.4 1.1-.8 2.6-1.1 4.6-1.1 2.2 0 3.7.4 4.8 1.3 1 .9 1.7 2.2 2 3.8.3 1.7.5 3.7.5 6v2.1h-10.1v5.1c0 1 .1 1.9.3 2.5.2.6.5 1.1.9 1.4.4.3 1 .5 1.7.5s1.2-.2 1.6-.5c.4-.3.6-.8.8-1.5.1-.6.2-1.4.2-2.2v-1.5h4.6v1c0 2.6-.5 4.6-1.6 6.1-1.3 1.4-3.2 2.1-5.8 2.1zm-2.8-15.6h5.4v-2.3c0-1.1-.1-2-.2-2.7-.1-.7-.4-1.3-.7-1.6-.4-.4-1-.6-1.7-.6-.8 0-1.3.2-1.7.5-.4.4-.7 1-.8 1.8-.1.8-.2 2-.2 3.5v1.4zM256.9 55.7c-2.2 0-3.8-.8-4.8-2.4-1.1-1.6-1.6-4.3-1.6-8v-5c0-1.9.2-3.8.5-5.4.3-1.7.9-3 1.8-4s2.2-1.5 4-1.5c.9 0 1.6.2 2.3.6.7.4 1.3.9 1.9 1.4V19.6h4.7v35.8H261v-1.6c-.6.6-1.2 1.1-1.8 1.4-.7.3-1.5.5-2.3.5zm1.2-3.7c.4 0 .9-.1 1.4-.2.5-.2 1-.4 1.5-.7V34.3c-.4-.3-.9-.6-1.4-.8-.5-.2-1-.3-1.6-.3-1.1 0-1.8.5-2.2 1.6-.4 1-.6 2.3-.6 3.8v7.2c0 1.2.1 2.2.2 3.2s.4 1.7.8 2.3c.4.4 1.1.7 1.9.7zM270.8 26v-5h4.7v5h-4.7zm0 29.4V29.8h4.7v25.6h-4.7zM285.2 55.7c-1 0-1.9-.3-2.7-.9-.8-.6-1.4-1.3-1.8-2.2-.4-.9-.7-1.8-.7-2.9 0-1.6.3-2.9.8-4s1.3-2 2.2-2.8c.9-.8 2-1.4 3.2-2 1.2-.6 2.5-1.1 3.9-1.6v-1.8c0-1-.1-1.9-.2-2.6-.1-.7-.4-1.2-.7-1.5-.4-.3-.9-.5-1.7-.5-.6 0-1.2.1-1.6.4-.4.3-.7.7-.9 1.3-.2.5-.3 1.2-.3 1.9v1.3l-4.7-.2c.1-2.8.7-4.9 1.9-6.3 1.2-1.3 3.2-2 5.7-2s4.3.7 5.4 2.1c1.1 1.4 1.6 3.4 1.6 6v11.7c0 .8 0 1.6.1 2.3 0 .7.1 1.4.2 2.1.1.6.1 1.2.2 1.8H291c-.1-.5-.2-1.1-.3-1.8-.1-.7-.2-1.4-.3-2-.3 1-.9 1.9-1.7 2.8-.8 1-2 1.4-3.5 1.4zm1.9-4c.5 0 .9-.1 1.3-.4.4-.3.8-.6 1.1-.9.3-.3.5-.6.7-.8v-7.3l-2.1 1.2c-.6.4-1.2.8-1.7 1.3s-.9 1-1.1 1.5c-.3.6-.4 1.2-.4 2 0 1 .2 1.8.6 2.4.3.7.8 1 1.6 1zM310 55.4V19.6h8.9c2.2 0 3.9.4 5.2 1.2 1.3.8 2.2 1.9 2.8 3.4.6 1.5.9 3.3.9 5.3 0 1.9-.3 3.5-1 4.9-.7 1.4-1.6 2.5-2.9 3.2-1.3.8-2.9 1.1-4.9 1.1h-4v16.7h-5zm5-20.3h2.3c1.4 0 2.6-.2 3.4-.5.8-.3 1.4-.9 1.8-1.7.4-.8.5-2 .5-3.4 0-1.7-.1-3-.4-3.9-.3-.9-.8-1.5-1.6-1.9-.8-.4-2-.5-3.7-.5H315v11.9zM337.6 55.7c-1.9 0-3.4-.4-4.5-1.1-1.1-.8-1.9-1.9-2.3-3.3-.5-1.4-.7-3.1-.7-5v-7.4c0-1.9.2-3.6.7-5 .5-1.4 1.2-2.5 2.3-3.3 1.1-.8 2.6-1.1 4.5-1.1s3.4.4 4.4 1.1c1.1.8 1.8 1.9 2.3 3.3.5 1.4.7 3.1.7 5v7.4c0 1.9-.2 3.6-.7 5-.5 1.4-1.2 2.5-2.3 3.3-1.1.7-2.5 1.1-4.4 1.1zm0-3.5c.9 0 1.6-.3 1.9-.8.4-.5.6-1.2.7-2.1.1-.9.1-1.8.1-2.7v-8c0-1 0-1.9-.1-2.7-.1-.9-.3-1.6-.7-2.1-.4-.5-1-.8-1.9-.8-.9 0-1.6.3-1.9.8-.4.5-.6 1.2-.7 2.1-.1.9-.1 1.8-.1 2.7v8c0 .9 0 1.9.1 2.7.1.9.3 1.6.7 2.1s1 .8 1.9.8zM349.8 55.4V19.6h4.7v35.8h-4.7zM359.1 61.8v-3.6c1.1 0 2.1-.1 2.7-.2.7-.1 1.2-.3 1.5-.6.3-.3.4-.7.4-1.2 0-.3-.1-.9-.3-1.8-.2-.9-.4-1.9-.7-2.9l-5.1-21.8h4.8l3.4 19.1 3.3-19.1h4.8l-6.1 27c-.3 1.2-.8 2.2-1.5 2.9-.7.7-1.6 1.2-2.7 1.6-1.1.3-2.4.5-4 .5h-.5zM376.9 55.4V19.6h4.7v12.9c.9-.8 1.8-1.5 2.9-2.1 1.1-.6 2.2-.9 3.5-.9 1 0 1.8.3 2.3.8.5.5.9 1.2 1.1 2 .2.8.3 1.6.3 2.4v20.7H387V36.1c0-.9-.1-1.6-.4-2.1-.3-.5-.8-.8-1.6-.8-.6 0-1.1.2-1.7.5-.6.3-1.2.7-1.7 1.2v20.5h-4.7zM403.5 55.7c-2 0-3.6-.4-4.6-1.2-1.1-.8-1.9-1.9-2.3-3.4-.4-1.5-.6-3.4-.6-5.6v-5.8c0-2.3.2-4.2.7-5.7.4-1.5 1.2-2.6 2.3-3.4 1.1-.8 2.6-1.1 4.6-1.1 2.2 0 3.7.4 4.8 1.3 1 .9 1.7 2.2 2 3.8.3 1.7.5 3.7.5 6v2.1h-10.1v5.1c0 1 .1 1.9.3 2.5.2.6.5 1.1.9 1.4.4.3 1 .5 1.7.5s1.2-.2 1.6-.5c.4-.3.6-.8.8-1.5.1-.6.2-1.4.2-2.2v-1.5h4.6v1c0 2.6-.5 4.6-1.6 6.1-1.3 1.4-3.1 2.1-5.8 2.1zm-2.8-15.6h5.4v-2.3c0-1.1-.1-2-.2-2.7-.1-.7-.4-1.3-.7-1.6-.4-.4-1-.6-1.7-.6-.8 0-1.3.2-1.7.5-.4.4-.7 1-.8 1.8-.1.8-.2 2-.2 3.5v1.4zM421 55.7c-2.2 0-3.8-.8-4.8-2.4-1.1-1.6-1.6-4.3-1.6-8v-5c0-1.9.2-3.8.5-5.4.3-1.7.9-3 1.8-4s2.2-1.5 4-1.5c.9 0 1.6.2 2.3.6.7.4 1.3.9 1.9 1.4V19.6h4.7v35.8h-4.7v-1.6c-.6.6-1.2 1.1-1.8 1.4-.7.3-1.4.5-2.3.5zm1.2-3.7c.4 0 .9-.1 1.4-.2.5-.2 1-.4 1.5-.7V34.3c-.4-.3-.9-.6-1.4-.8-.5-.2-1-.3-1.6-.3-1.1 0-1.8.5-2.2 1.6-.4 1-.6 2.3-.6 3.8v7.2c0 1.2.1 2.2.2 3.2s.4 1.7.8 2.3c.4.4 1.1.7 1.9.7zM434.7 55.4V29.8h4.7v3.6c.9-1.6 1.9-2.6 2.8-3.1.9-.5 1.9-.8 2.8-.8h.7v5.2c-.4-.1-.8-.3-1.2-.4-.5-.1-.9-.2-1.4-.2-.7 0-1.4.2-2 .5-.6.3-1.2 1-1.8 2v18.7h-4.6zM455.8 55.7c-1.9 0-3.4-.4-4.5-1.1-1.1-.8-1.9-1.9-2.3-3.3-.5-1.4-.7-3.1-.7-5v-7.4c0-1.9.2-3.6.7-5 .5-1.4 1.2-2.5 2.3-3.3 1.1-.8 2.6-1.1 4.5-1.1s3.4.4 4.4 1.1c1.1.8 1.8 1.9 2.3 3.3.5 1.4.7 3.1.7 5v7.4c0 1.9-.2 3.6-.7 5-.5 1.4-1.2 2.5-2.3 3.3-1 .7-2.5 1.1-4.4 1.1zm0-3.5c.9 0 1.6-.3 1.9-.8.4-.5.6-1.2.7-2.1.1-.9.1-1.8.1-2.7v-8c0-1 0-1.9-.1-2.7-.1-.9-.3-1.6-.7-2.1-.4-.5-1-.8-1.9-.8-.9 0-1.6.3-1.9.8-.4.5-.6 1.2-.7 2.1-.1.9-.1 1.8-.1 2.7v8c0 .9 0 1.9.1 2.7.1.9.3 1.6.7 2.1s1 .8 1.9.8zM467.6 55.4V29.8h4.7v2.5c.9-.8 1.8-1.5 2.8-2 1-.6 2.2-.8 3.4-.8 1 0 1.8.3 2.4.8.5.5.9 1.2 1.1 2 .2.8.3 1.6.3 2.4v20.7h-4.7V36.1c0-.9-.1-1.6-.4-2.1-.3-.5-.8-.8-1.6-.8-.5 0-1.1.2-1.7.5s-1.1.7-1.7 1.1v20.6h-4.6zM492.9 55.7c-2.1 0-3.8-.7-5-2-1.3-1.3-2-3-2.2-5.2l3.9-1.2c.2 1.6.6 2.8 1.2 3.6.6.8 1.4 1.2 2.5 1.2.9 0 1.5-.2 1.9-.7.4-.5.7-1.1.7-2 0-.7-.2-1.4-.5-2-.3-.6-.9-1.2-1.6-1.8l-4.4-3.8c-.9-.8-1.6-1.6-2.2-2.6-.6-.9-.9-2.2-.9-3.7 0-1.4.3-2.5.8-3.4.5-.9 1.3-1.6 2.3-2.1 1-.5 2.1-.7 3.5-.7 2 0 3.6.7 4.7 2s1.7 2.9 1.8 4.8l-3.2 1.2c-.1-.9-.3-1.7-.5-2.3-.2-.7-.6-1.2-1-1.5-.4-.4-1-.6-1.6-.6-.8 0-1.4.3-1.8.8-.5.5-.7 1.1-.7 1.8 0 .4.1.9.3 1.3.2.4.5.8 1 1.3l4.5 4.2c.6.6 1.2 1.2 1.7 1.8.5.6 1 1.4 1.3 2.2.4.8.5 1.8.5 2.9 0 1.4-.3 2.7-.9 3.6-.6 1-1.4 1.7-2.5 2.2-.9.5-2.2.7-3.6.7z"/></svg>