<svg xmlns="http://www.w3.org/2000/svg" width="500" height="160"><style>.st0{fill:#fff}</style><path class="st0" d="M55.6 36.2 43 8.9 12.5 31.1c-.5.4-.9 1-1.1 1.6L0 75.3h30.5l25.1-39.1zM60.4 39.9 35.8 78.1l30.1 38.3 43.8-19.1-2.8-46.5zM108.8 45.1l18.4-18.4L90.4 4.1c-.5-.3-1.1-.5-1.8-.4L48.5 6.5l12.6 27.4 47.7 11.2zM30.7 81.3H.2l14.2 39.8c.2.6.7 1.2 1.2 1.5l37 22.7 9-24.7-30.9-39.3zM67.4 122.3l-8.9 24.3 42.7-5.7c.5-.1 1-.3 1.4-.5l31.3-22.8-21.5-15-45 19.7zM142.5 65.4l-11.4-34.1-18.3 18.3 2.8 48 21.2 14.8 5.7-45.7c.2-.4.1-.9 0-1.3zM175.7 61V3.6H198v6h-14.2v19h11.6v5.7h-11.6v21h14.4V61h-22.5zM203.9 61V20h7.6v4c1.4-1.3 2.9-2.4 4.5-3.3 1.7-.9 3.5-1.3 5.5-1.3 1.7 0 2.9.4 3.8 1.3.9.9 1.5 1.9 1.8 3.2.4 1.3.5 2.6.5 3.9V61H220V30c0-1.5-.2-2.6-.6-3.4-.4-.8-1.3-1.2-2.6-1.2-.9 0-1.7.2-2.7.7-.9.5-1.8 1.1-2.7 1.8v33h-7.5zM246.2 61.6c-3.4 0-5.9-.7-7.6-2-1.7-1.3-2.9-3.2-3.5-5.7-.6-2.5-.9-5.3-.9-8.6v-9.4c0-3.4.3-6.4.9-8.8.6-2.4 1.8-4.3 3.5-5.6 1.7-1.3 4.2-1.9 7.5-1.9 3 0 5.3.5 6.9 1.5 1.6 1 2.8 2.4 3.4 4.3.6 1.9.9 4.3.9 7.1v2.4h-6.9v-2.5c0-1.8-.1-3.2-.4-4.3-.2-1-.7-1.8-1.3-2.3-.6-.5-1.5-.7-2.6-.7-1.2 0-2.2.3-2.8.9-.7.6-1.1 1.5-1.3 2.9-.2 1.3-.3 3.2-.3 5.5v12.9c0 3.5.3 5.8 1 7 .7 1.2 1.8 1.8 3.5 1.8 1.3 0 2.2-.3 2.8-.9.6-.6 1-1.4 1.1-2.5.2-1.1.2-2.3.2-3.7v-3.3h6.9v2.8c0 2.7-.3 5.1-1 7.1-.6 2-1.8 3.5-3.4 4.5-1.4 1-3.7 1.5-6.6 1.5zM263.5 71.3v-5.8c1.8 0 3.3-.1 4.4-.2 1.1-.2 1.9-.5 2.3-.9.5-.4.7-1.1.7-1.9 0-.4-.2-1.4-.5-2.8-.3-1.5-.7-3-1.1-4.7l-8.2-34.9h7.7l5.5 30.6 5.3-30.6h7.7l-9.8 43.2c-.4 2-1.2 3.6-2.3 4.7-1.1 1.2-2.6 2-4.4 2.5-1.8.5-3.9.8-6.4.8h-.9zM303.1 61.6c-3.4 0-5.9-.7-7.6-2-1.7-1.3-2.9-3.2-3.5-5.7-.6-2.5-.9-5.3-.9-8.6v-9.4c0-3.4.3-6.4.9-8.8.6-2.4 1.8-4.3 3.5-5.6 1.7-1.3 4.2-1.9 7.5-1.9 3 0 5.3.5 6.9 1.5 1.6 1 2.8 2.4 3.4 4.3.6 1.9.9 4.3.9 7.1v2.4h-6.9v-2.5c0-1.8-.1-3.2-.4-4.3-.2-1-.7-1.8-1.3-2.3-.6-.5-1.5-.7-2.6-.7-1.2 0-2.2.3-2.8.9-.7.6-1.1 1.5-1.3 2.9-.2 1.3-.3 3.2-.3 5.5v12.9c0 3.5.3 5.8 1 7 .7 1.2 1.8 1.8 3.5 1.8 1.3 0 2.2-.3 2.8-.9.6-.6 1-1.4 1.1-2.5.2-1.1.2-2.3.2-3.7v-3.3h6.9v2.8c0 2.7-.3 5.1-1 7.1S311.6 59 310 60c-1.7 1.1-4 1.6-6.9 1.6zM321.8 61V3.6h7.6V61h-7.6zM348.5 61.6c-3 0-5.4-.6-7.2-1.8-1.7-1.2-3-3-3.7-5.2-.7-2.3-1.1-4.9-1.1-8v-12c0-3.1.4-5.7 1.1-8 .7-2.3 2-4 3.7-5.2 1.7-1.2 4.1-1.8 7.2-1.8 3 0 5.4.6 7.1 1.8 1.7 1.2 3 3 3.7 5.2.7 2.3 1.1 4.9 1.1 8v11.9c0 3.1-.4 5.7-1.1 8-.7 2.3-2 4-3.7 5.2-1.7 1.3-4 1.9-7.1 1.9zm0-5.6c1.5 0 2.5-.4 3.1-1.3.6-.9.9-2 1.1-3.4.1-1.4.2-2.8.2-4.4V34.2c0-1.6-.1-3-.2-4.4-.1-1.4-.5-2.5-1.1-3.4-.6-.9-1.6-1.3-3.1-1.3s-2.5.4-3.1 1.3c-.6.9-1 2-1.1 3.4-.1 1.4-.2 2.8-.2 4.4V47c0 1.5.1 3 .2 4.4.1 1.4.5 2.5 1.1 3.4.6.8 1.7 1.2 3.1 1.2zM367.4 74.5V20.1h7.6v3.3c.9-1 2-1.9 3.3-2.7 1.3-.8 2.8-1.1 4.5-1.1 2.1 0 3.8.6 5.1 1.7 1.3 1.1 2.2 2.5 2.8 4.2.6 1.7 1 3.4 1.2 5.1.2 1.7.3 3.2.3 4.4v9.9c0 2.9-.3 5.6-.9 8.2-.6 2.6-1.6 4.7-3.1 6.2-1.5 1.6-3.6 2.4-6.3 2.4-1.5 0-2.8-.4-3.9-1.1-1.1-.7-2.2-1.6-3-2.5v16.5h-7.6zm13-18.8c1.3 0 2.3-.5 2.8-1.5.6-1 .9-2.3 1.1-3.9.1-1.7.2-3.5.2-5.5v-9.9c0-1.7-.1-3.3-.3-4.7-.2-1.4-.6-2.6-1.2-3.4-.6-.9-1.6-1.3-2.9-1.3-1 0-1.9.2-2.8.6-.9.4-1.7.9-2.3 1.5v26.2c.7.5 1.5 1 2.4 1.3.9.4 1.9.6 3 .6zM410.3 61.6c-3.2 0-5.7-.6-7.4-1.9-1.7-1.3-3-3.1-3.6-5.5-.7-2.4-1-5.4-1-9v-9.4c0-3.6.4-6.7 1.1-9.1.7-2.4 1.9-4.2 3.7-5.5 1.8-1.2 4.2-1.8 7.3-1.8 3.4 0 6 .7 7.6 2.1 1.6 1.4 2.7 3.5 3.2 6.1.5 2.7.8 5.9.8 9.6v3.3h-16.2v8.2c0 1.7.2 3 .5 4s.8 1.8 1.5 2.3c.7.5 1.6.7 2.7.7s2-.3 2.6-.8c.6-.5 1-1.3 1.2-2.3.2-1 .3-2.2.3-3.6v-2.5h7.4v1.6c0 4.1-.9 7.3-2.6 9.7-1.9 2.6-4.8 3.8-9.1 3.8zm-4.5-25h8.7v-3.7c0-1.7-.1-3.1-.3-4.3-.2-1.2-.6-2-1.2-2.6-.6-.6-1.5-.9-2.8-.9-1.2 0-2.2.3-2.8.9s-1.1 1.5-1.3 2.9c-.2 1.3-.4 3.2-.4 5.6v2.1zM438.3 61.6c-3.4 0-6-1.3-7.7-3.8-1.7-2.5-2.6-6.8-2.6-12.9V37c0-3.1.3-6 .8-8.7.5-2.7 1.5-4.8 2.9-6.4 1.4-1.6 3.6-2.4 6.3-2.4 1.4 0 2.6.3 3.8.9 1.1.6 2.1 1.4 3 2.3V3.6h7.6V61h-7.6v-2.6c-.9.9-1.9 1.7-2.9 2.3-1 .6-2.2.9-3.6.9zm2-5.9c.7 0 1.5-.1 2.3-.4.8-.3 1.6-.6 2.4-1.2V27.2c-.7-.5-1.4-.9-2.2-1.2-.8-.4-1.7-.5-2.6-.5-1.7 0-2.9.8-3.5 2.5-.6 1.7-.9 3.7-.9 6.1v11.6c0 1.9.1 3.6.3 5.1.2 1.5.6 2.7 1.3 3.6.5.8 1.5 1.3 2.9 1.3zM460.7 14V6h7.6v8h-7.6zm0 47V20h7.6v41h-7.6zM483.8 61.6c-1.6 0-3-.5-4.3-1.4-1.2-.9-2.2-2.1-2.9-3.5-.7-1.4-1.1-3-1.1-4.6 0-2.6.4-4.7 1.3-6.4.9-1.7 2-3.2 3.5-4.4 1.5-1.2 3.2-2.3 5.2-3.2 2-.9 4-1.8 6.2-2.6v-2.9c0-1.7-.1-3-.3-4.1-.2-1.1-.6-1.9-1.2-2.4s-1.5-.8-2.7-.8c-1 0-1.9.2-2.5.7-.6.5-1.1 1.1-1.4 2-.3.9-.4 1.9-.4 3.1V33l-7.5-.3c.1-4.5 1.1-7.9 3.1-10 2-2.1 5.1-3.2 9.2-3.2s6.9 1.1 8.6 3.3c1.7 2.2 2.6 5.4 2.6 9.6v18.7c0 1.3 0 2.5.1 3.7.1 1.2.2 2.3.3 3.3.1 1 .2 2 .3 2.9H493c-.1-.8-.3-1.7-.5-2.9s-.4-2.2-.5-3.2c-.5 1.6-1.4 3.1-2.7 4.5-1.3 1.5-3.2 2.2-5.5 2.2zm2.9-6.5c.8 0 1.5-.2 2.1-.6.7-.4 1.3-.9 1.8-1.5.5-.5.9-1 1.1-1.3V40.1c-1.2.7-2.3 1.3-3.3 2s-1.9 1.4-2.7 2.1c-.8.7-1.4 1.6-1.8 2.5-.4.9-.7 2-.7 3.2 0 1.7.3 3 .9 3.9.6.8 1.5 1.3 2.6 1.3zM175.7 146.1V88.7h14.2c3.4 0 6.2.6 8.3 1.9 2.1 1.3 3.6 3.1 4.5 5.4.9 2.4 1.4 5.2 1.4 8.6 0 3-.5 5.6-1.6 7.9-1.1 2.2-2.6 3.9-4.7 5.1-2.1 1.2-4.7 1.8-7.8 1.8h-6.3v26.7h-8zm8-32.5h3.7c2.3 0 4.1-.3 5.5-.8 1.3-.5 2.3-1.4 2.8-2.7.6-1.3.9-3.1.9-5.5 0-2.7-.2-4.8-.6-6.3-.4-1.5-1.2-2.5-2.5-3-1.3-.6-3.3-.9-6-.9h-3.8v19.2zM219.9 146.7c-3 0-5.4-.6-7.2-1.8-1.7-1.2-3-3-3.7-5.2-.7-2.3-1.1-4.9-1.1-8v-11.9c0-3.1.4-5.7 1.1-8 .7-2.3 2-4 3.7-5.2 1.7-1.2 4.1-1.8 7.2-1.8 3 0 5.4.6 7.1 1.8 1.7 1.2 3 3 3.7 5.2.7 2.3 1.1 4.9 1.1 8v11.9c0 3.1-.4 5.7-1.1 8-.7 2.3-2 4-3.7 5.2-1.7 1.1-4.1 1.8-7.1 1.8zm0-5.6c1.5 0 2.5-.4 3.1-1.3.6-.9.9-2 1.1-3.4.1-1.4.2-2.8.2-4.4v-12.8c0-1.6-.1-3-.2-4.4-.1-1.4-.5-2.5-1.1-3.4-.6-.9-1.6-1.3-3.1-1.3s-2.5.4-3.1 1.3c-.6.9-1 2-1.1 3.4-.1 1.4-.2 2.8-.2 4.4V132c0 1.5.1 3 .2 4.4.1 1.4.5 2.5 1.1 3.4.6.8 1.6 1.3 3.1 1.3zM239.5 146.1V88.7h7.6v57.4h-7.6zM254.4 156.4v-5.8c1.8 0 3.3-.1 4.4-.2 1.1-.2 1.9-.5 2.3-.9.5-.4.7-1.1.7-1.9 0-.4-.2-1.4-.5-2.8-.3-1.5-.7-3-1.1-4.7l-8.2-34.9h7.7l5.5 30.6 5.3-30.6h7.7l-9.8 43.2c-.4 2-1.2 3.6-2.3 4.7-1.1 1.2-2.6 2-4.4 2.5-1.8.5-3.9.8-6.4.8h-.9zM283 146.1V88.7h7.6v20.7c1.4-1.3 2.9-2.5 4.6-3.4 1.7-.9 3.6-1.4 5.7-1.4 1.6 0 2.8.4 3.7 1.3.9.9 1.5 1.9 1.8 3.2.4 1.3.5 2.6.5 3.9v33.2h-7.6v-31c0-1.5-.2-2.6-.6-3.4-.4-.8-1.3-1.2-2.6-1.2-.9 0-1.8.3-2.8.8-1 .5-1.9 1.2-2.7 1.9v32.9H283zM325.7 146.7c-3.2 0-5.7-.6-7.4-1.9-1.7-1.3-3-3.1-3.6-5.5-.7-2.4-1-5.4-1-9v-9.4c0-3.6.4-6.7 1.1-9.1.7-2.4 1.9-4.2 3.7-5.5 1.8-1.2 4.2-1.8 7.3-1.8 3.4 0 6 .7 7.6 2.1 1.6 1.4 2.7 3.5 3.2 6.1.5 2.7.8 5.9.8 9.6v3.3h-16.2v8.2c0 1.7.2 3 .5 4s.8 1.8 1.5 2.3c.7.5 1.6.7 2.7.7s2-.3 2.6-.8c.6-.5 1-1.3 1.2-2.3.2-1 .3-2.2.3-3.6v-2.5h7.4v1.6c0 4.1-.9 7.3-2.6 9.7-2 2.6-4.9 3.8-9.1 3.8zm-4.6-25.1h8.7V118c0-1.7-.1-3.1-.3-4.3-.2-1.2-.6-2-1.2-2.6-.6-.6-1.5-.9-2.8-.9-1.2 0-2.2.3-2.8.9-.6.6-1.1 1.5-1.3 2.9-.2 1.3-.4 3.2-.4 5.6v2zM353.6 146.7c-3.4 0-6-1.3-7.7-3.8-1.7-2.5-2.6-6.8-2.6-12.9v-7.9c0-3.1.3-6 .8-8.7.5-2.7 1.5-4.8 2.9-6.4 1.4-1.6 3.6-2.4 6.3-2.4 1.4 0 2.6.3 3.8.9 1.1.6 2.1 1.4 3 2.3V88.7h7.6v57.4h-7.6v-2.6c-.9.9-1.9 1.7-2.9 2.3-1 .6-2.2.9-3.6.9zm2-6c.7 0 1.5-.1 2.3-.4.8-.3 1.6-.6 2.4-1.2v-26.9c-.7-.5-1.4-.9-2.2-1.2-.8-.4-1.7-.5-2.6-.5-1.7 0-2.9.8-3.5 2.5-.6 1.7-.9 3.7-.9 6.1v11.6c0 1.9.1 3.6.3 5.1.2 1.5.6 2.7 1.3 3.6.5.9 1.5 1.3 2.9 1.3zM375.7 146.1v-41h7.6v5.8c1.5-2.5 3-4.2 4.5-5 1.5-.9 3-1.3 4.5-1.3h.5c.2 0 .4 0 .7.1v8.4c-.6-.2-1.2-.4-1.9-.6-.7-.2-1.5-.2-2.2-.2-1.2 0-2.3.3-3.2.8-1 .5-1.9 1.6-2.9 3.2v29.9h-7.6zM409.5 146.7c-3 0-5.4-.6-7.2-1.8-1.7-1.2-3-3-3.7-5.2-.7-2.3-1.1-4.9-1.1-8v-11.9c0-3.1.4-5.7 1.1-8 .7-2.3 2-4 3.7-5.2 1.7-1.2 4.1-1.8 7.2-1.8 3 0 5.4.6 7.1 1.8 1.7 1.2 3 3 3.7 5.2.7 2.3 1.1 4.9 1.1 8v11.9c0 3.1-.4 5.7-1.1 8-.7 2.3-2 4-3.7 5.2-1.7 1.1-4.1 1.8-7.1 1.8zm0-5.6c1.5 0 2.5-.4 3.1-1.3.6-.9.9-2 1.1-3.4.1-1.4.2-2.8.2-4.4v-12.8c0-1.6-.1-3-.2-4.4-.1-1.4-.5-2.5-1.1-3.4-.6-.9-1.6-1.3-3.1-1.3s-2.5.4-3.1 1.3c-.6.9-1 2-1.1 3.4-.1 1.4-.2 2.8-.2 4.4V132c0 1.5.1 3 .2 4.4.1 1.4.5 2.5 1.1 3.4.6.8 1.6 1.3 3.1 1.3zM428.3 146.1v-41h7.6v4c1.4-1.3 2.9-2.4 4.5-3.3 1.7-.9 3.5-1.3 5.5-1.3 1.7 0 2.9.4 3.8 1.3.9.9 1.5 1.9 1.8 3.2.4 1.3.5 2.6.5 3.9v33.2h-7.6v-31c0-1.5-.2-2.6-.6-3.4-.4-.8-1.3-1.2-2.6-1.2-.9 0-1.7.2-2.7.7-.9.5-1.8 1.1-2.7 1.8v33h-7.5zM469 146.7c-3.4 0-6-1.1-8.1-3.2-2-2.1-3.2-4.9-3.5-8.3l6.3-1.9c.4 2.6 1 4.5 1.9 5.8.9 1.3 2.2 1.9 4 1.9 1.4 0 2.4-.4 3.1-1.2s1.1-1.8 1.1-3.2c0-1.2-.3-2.2-.8-3.2-.5-.9-1.4-1.9-2.6-2.9l-7-6c-1.4-1.2-2.6-2.6-3.6-4.1-1-1.5-1.5-3.5-1.5-5.9 0-2.2.4-4 1.3-5.5s2.1-2.6 3.7-3.4c1.6-.8 3.4-1.2 5.6-1.2 3.3 0 5.8 1.1 7.5 3.2 1.7 2.1 2.7 4.6 2.9 7.6l-5.1 1.9c-.2-1.4-.5-2.7-.9-3.7-.4-1.1-.9-1.9-1.6-2.5-.7-.6-1.5-.9-2.6-.9-1.2 0-2.2.4-2.9 1.2-.7.8-1.1 1.8-1.1 2.9 0 .7.2 1.4.5 2.1.3.7.8 1.4 1.6 2l7.2 6.7c1 .9 1.9 1.9 2.8 2.9.9 1 1.6 2.2 2.2 3.5.6 1.3.9 2.9.9 4.6 0 2.3-.5 4.3-1.4 5.8-.9 1.6-2.3 2.7-4 3.5-1.7 1.1-3.7 1.5-5.9 1.5z"/></svg>