<svg xmlns="http://www.w3.org/2000/svg" viewBox="0 0 500 500" width="500" height="500">
  <style type="text/css">
    .st0{fill:#ffffff;}
  </style>
  <path class="st0" d="M198.9,324.3V175.7L329.5,250L198.9,324.3z M489.6,128.9c-5.8-21.7-22.7-38.7-44.2-44.5
	C406.4,73.9,250,73.9,250,73.9s-156.4,0-195.3,10.5c-21.5,5.8-38.5,22.8-44.2,44.5C0,168.1,0,250,0,250s0,81.9,10.4,121.1
	c5.8,21.7,22.7,38.7,44.2,44.5c39,10.5,195.3,10.5,195.3,10.5s156.4,0,195.3-10.5c21.5-5.8,38.5-22.8,44.2-44.5
	C500,331.9,500,250,500,250S500,168.1,489.6,128.9"/>
</svg>
