<?xml version="1.0" encoding="UTF-8"?>
<svg xmlns="http://www.w3.org/2000/svg" xmlns:xlink="http://www.w3.org/1999/xlink" width="253.25pt" height="199.94pt" viewBox="0 0 253.25 199.94" version="1.2">
<g id="surface1">
<path style="fill-rule:nonzero;fill:rgb(77.539062%,52.929688%,56.443787%);fill-opacity:1;stroke-width:5;stroke-linecap:round;stroke-linejoin:round;stroke:rgb(0%,0%,0%);stroke-opacity:1;stroke-miterlimit:10;" d="M 755.316202 1735.453073 L 1286.572372 1839.784576 L 1288.76635 1379.127493 " transform="matrix(0.0997047,0,0,-0.0997047,0,199.614902)"/>
<path style="fill-rule:nonzero;fill:rgb(77.539062%,52.929688%,56.443787%);fill-opacity:1;stroke-width:5;stroke-linecap:round;stroke-linejoin:round;stroke:rgb(0%,0%,0%);stroke-opacity:1;stroke-miterlimit:10;" d="M 1288.76635 1379.127493 L 785.052443 1268.214055 L 755.316202 1735.453073 " transform="matrix(0.0997047,0,0,-0.0997047,0,199.614902)"/>
<path style="fill-rule:nonzero;fill:rgb(61.914062%,40.209961%,56.443787%);fill-opacity:1;stroke-width:5;stroke-linecap:round;stroke-linejoin:round;stroke:rgb(0%,0%,0%);stroke-opacity:1;stroke-miterlimit:10;" d="M 1798.631231 1283.963685 L 1288.76635 1379.127493 L 1286.572372 1839.784576 " transform="matrix(0.0997047,0,0,-0.0997047,0,199.614902)"/>
<path style=" stroke:none;fill-rule:nonzero;fill:rgb(66.209412%,74.21875%,90.818787%);fill-opacity:1;" d="M 128.496094 62.109375 L 78.273438 73.167969 L 209.507812 136.441406 "/>
<path style="fill:none;stroke-width:5;stroke-linecap:round;stroke-linejoin:round;stroke:rgb(0%,0%,0%);stroke-opacity:1;stroke-miterlimit:10;" d="M 1288.76635 1379.127493 L 785.052443 1268.214055 " transform="matrix(0.0997047,0,0,-0.0997047,0,199.614902)"/>
<path style=" stroke:none;fill-rule:nonzero;fill:rgb(66.209412%,74.21875%,90.818787%);fill-opacity:1;" d="M 179.332031 71.597656 L 128.496094 62.109375 L 209.507812 136.441406 "/>
<path style="fill:none;stroke-width:5;stroke-linecap:round;stroke-linejoin:round;stroke:rgb(0%,0%,0%);stroke-opacity:1;stroke-miterlimit:10;" d="M 1798.631231 1283.963685 L 1288.76635 1379.127493 " transform="matrix(0.0997047,0,0,-0.0997047,0,199.614902)"/>
<path style="fill-rule:nonzero;fill:rgb(61.914062%,40.209961%,56.443787%);fill-opacity:1;stroke-width:5;stroke-linecap:round;stroke-linejoin:round;stroke:rgb(0%,0%,0%);stroke-opacity:1;stroke-miterlimit:10;" d="M 1286.572372 1839.784576 L 1824.136229 1750.301604 L 1798.631231 1283.963685 " transform="matrix(0.0997047,0,0,-0.0997047,0,199.614902)"/>
<path style="fill-rule:nonzero;fill:rgb(34.692383%,19.798279%,53.125%);fill-opacity:1;stroke-width:5;stroke-linecap:round;stroke-linejoin:round;stroke:rgb(0%,0%,0%);stroke-opacity:1;stroke-miterlimit:10;" d="M 2128.315647 1005.289265 L 1798.631231 1283.963685 L 1824.136229 1750.301604 " transform="matrix(0.0997047,0,0,-0.0997047,0,199.614902)"/>
<path style="fill-rule:nonzero;fill:rgb(66.209412%,74.21875%,90.818787%);fill-opacity:1;stroke-width:5;stroke-linecap:round;stroke-linejoin:round;stroke:rgb(0%,0%,0%);stroke-opacity:1;stroke-miterlimit:10;" d="M 2101.2827 633.605837 L 2128.315647 1005.289265 L 1798.631231 1283.963685 " transform="matrix(0.0997047,0,0,-0.0997047,0,199.614902)"/>
<path style="fill-rule:nonzero;fill:rgb(93.75%,68.554688%,52.734375%);fill-opacity:1;stroke-width:5;stroke-linecap:round;stroke-linejoin:round;stroke:rgb(0%,0%,0%);stroke-opacity:1;stroke-miterlimit:10;" d="M 424.613154 1460.93154 L 755.316202 1735.453073 L 785.052443 1268.214055 " transform="matrix(0.0997047,0,0,-0.0997047,0,199.614902)"/>
<path style="fill-rule:nonzero;fill:rgb(93.75%,68.554688%,52.734375%);fill-opacity:1;stroke-width:5;stroke-linecap:round;stroke-linejoin:round;stroke:rgb(0%,0%,0%);stroke-opacity:1;stroke-miterlimit:10;" d="M 785.052443 1268.214055 L 474.565338 977.864536 L 424.613154 1460.93154 " transform="matrix(0.0997047,0,0,-0.0997047,0,199.614902)"/>
<path style=" stroke:none;fill-rule:nonzero;fill:rgb(66.209412%,74.21875%,90.818787%);fill-opacity:1;" d="M 78.273438 73.167969 L 47.316406 102.117188 L 209.507812 136.441406 "/>
<path style="fill:none;stroke-width:5;stroke-linecap:round;stroke-linejoin:round;stroke:rgb(0%,0%,0%);stroke-opacity:1;stroke-miterlimit:10;" d="M 785.052443 1268.214055 L 474.565338 977.864536 " transform="matrix(0.0997047,0,0,-0.0997047,0,199.614902)"/>
<path style="fill-rule:nonzero;fill:rgb(34.692383%,19.798279%,53.125%);fill-opacity:1;stroke-width:5;stroke-linecap:round;stroke-linejoin:round;stroke:rgb(0%,0%,0%);stroke-opacity:1;stroke-miterlimit:10;" d="M 1824.136229 1750.301604 L 2174.62426 1486.867498 L 2128.315647 1005.289265 " transform="matrix(0.0997047,0,0,-0.0997047,0,199.614902)"/>
<path style="fill-rule:nonzero;fill:rgb(25.097656%,25.097656%,34.104919%);fill-opacity:1;stroke-width:5;stroke-linecap:round;stroke-linejoin:round;stroke:rgb(0%,0%,0%);stroke-opacity:1;stroke-miterlimit:10;" d="M 2101.2827 633.605837 L 2128.315647 1005.289265 L 2174.62426 1486.867498 " transform="matrix(0.0997047,0,0,-0.0997047,0,199.614902)"/>
<path style="fill-rule:nonzero;fill:rgb(25.097656%,25.097656%,34.104919%);fill-opacity:1;stroke-width:5;stroke-linecap:round;stroke-linejoin:round;stroke:rgb(0%,0%,0%);stroke-opacity:1;stroke-miterlimit:10;" d="M 2174.62426 1486.867498 L 2149.863648 1132.775074 L 2101.2827 633.605837 " transform="matrix(0.0997047,0,0,-0.0997047,0,199.614902)"/>
<path style=" stroke:none;fill-rule:nonzero;fill:rgb(64.646912%,76.171875%,93.164062%);fill-opacity:1;" d="M 128.277344 16.179688 L 75.308594 26.582031 L 214.351562 86.671875 "/>
<path style="fill:none;stroke-width:5;stroke-linecap:round;stroke-linejoin:round;stroke:rgb(0%,0%,0%);stroke-opacity:1;stroke-miterlimit:10;" d="M 1286.572372 1839.784576 L 755.316202 1735.453073 " transform="matrix(0.0997047,0,0,-0.0997047,0,199.614902)"/>
<path style=" stroke:none;fill-rule:nonzero;fill:rgb(64.646912%,76.171875%,93.164062%);fill-opacity:1;" d="M 181.875 25.101562 L 128.277344 16.179688 L 214.351562 86.671875 "/>
<path style="fill:none;stroke-width:5;stroke-linecap:round;stroke-linejoin:round;stroke:rgb(0%,0%,0%);stroke-opacity:1;stroke-miterlimit:10;" d="M 1824.136229 1750.301604 L 1286.572372 1839.784576 " transform="matrix(0.0997047,0,0,-0.0997047,0,199.614902)"/>
<path style="fill-rule:nonzero;fill:rgb(64.646912%,76.171875%,93.164062%);fill-opacity:1;stroke-width:5;stroke-linecap:round;stroke-linejoin:round;stroke:rgb(0%,0%,0%);stroke-opacity:1;stroke-miterlimit:10;" d="M 2149.863648 1132.775074 L 2174.62426 1486.867498 L 1824.136229 1750.301604 " transform="matrix(0.0997047,0,0,-0.0997047,0,199.614902)"/>
<path style=" stroke:none;fill-rule:nonzero;fill:rgb(64.646912%,76.171875%,93.164062%);fill-opacity:1;" d="M 75.308594 26.582031 L 42.335938 53.953125 L 214.351562 86.671875 "/>
<path style="fill:none;stroke-width:5;stroke-linecap:round;stroke-linejoin:round;stroke:rgb(0%,0%,0%);stroke-opacity:1;stroke-miterlimit:10;" d="M 755.316202 1735.453073 L 424.613154 1460.93154 " transform="matrix(0.0997047,0,0,-0.0997047,0,199.614902)"/>
<path style="fill-rule:nonzero;fill:rgb(29.588318%,29.588318%,29.588318%);fill-opacity:1;stroke-width:5;stroke-linecap:round;stroke-linejoin:round;stroke:rgb(0%,0%,0%);stroke-opacity:1;stroke-miterlimit:10;" d="M 480.481244 1105.89884 L 424.613154 1460.93154 L 474.565338 977.864536 " transform="matrix(0.0997047,0,0,-0.0997047,0,199.614902)"/>
<path style=" stroke:none;fill-rule:nonzero;fill:rgb(66.209412%,74.21875%,90.818787%);fill-opacity:1;" d="M 47.316406 102.117188 L 52.949219 139.238281 L 209.507812 136.441406 "/>
<path style="fill:none;stroke-width:5;stroke-linecap:round;stroke-linejoin:round;stroke:rgb(0%,0%,0%);stroke-opacity:1;stroke-miterlimit:10;" d="M 474.565338 977.864536 L 531.060279 605.554257 " transform="matrix(0.0997047,0,0,-0.0997047,0,199.614902)"/>
<path style="fill-rule:nonzero;fill:rgb(29.588318%,29.588318%,29.588318%);fill-opacity:1;stroke-width:5;stroke-linecap:round;stroke-linejoin:round;stroke:rgb(0%,0%,0%);stroke-opacity:1;stroke-miterlimit:10;" d="M 474.565338 977.864536 L 531.060279 605.554257 L 480.481244 1105.89884 " transform="matrix(0.0997047,0,0,-0.0997047,0,199.614902)"/>
<path style=" stroke:none;fill-rule:nonzero;fill:rgb(64.646912%,76.171875%,93.164062%);fill-opacity:1;" d="M 42.335938 53.953125 L 47.90625 89.351562 L 214.351562 86.671875 "/>
<path style="fill:none;stroke-width:5;stroke-linecap:round;stroke-linejoin:round;stroke:rgb(0%,0%,0%);stroke-opacity:1;stroke-miterlimit:10;" d="M 424.613154 1460.93154 L 480.481244 1105.89884 " transform="matrix(0.0997047,0,0,-0.0997047,0,199.614902)"/>
<path style="fill-rule:nonzero;fill:rgb(66.209412%,74.21875%,90.818787%);fill-opacity:1;stroke-width:5;stroke-linecap:round;stroke-linejoin:round;stroke:rgb(0%,0%,0%);stroke-opacity:1;stroke-miterlimit:10;" d="M 1001.66862 336.870274 L 1655.86593 349.211402 L 2101.2827 633.605837 " transform="matrix(0.0997047,0,0,-0.0997047,0,199.614902)"/>
<path style=" stroke:none;fill-rule:nonzero;fill:rgb(66.209412%,74.21875%,90.818787%);fill-opacity:1;" d="M 52.949219 139.238281 L 99.871094 166.027344 L 209.507812 136.441406 "/>
<path style="fill:none;stroke-width:5;stroke-linecap:round;stroke-linejoin:round;stroke:rgb(0%,0%,0%);stroke-opacity:1;stroke-miterlimit:10;" d="M 531.060279 605.554257 L 1001.66862 336.870274 " transform="matrix(0.0997047,0,0,-0.0997047,0,199.614902)"/>
<path style="fill-rule:nonzero;fill:rgb(89.451599%,58.789062%,45.800781%);fill-opacity:1;stroke-width:5;stroke-linecap:round;stroke-linejoin:round;stroke:rgb(0%,0%,0%);stroke-opacity:1;stroke-miterlimit:10;" d="M 1655.86593 349.211402 L 2101.2827 633.605837 L 2149.863648 1132.775074 " transform="matrix(0.0997047,0,0,-0.0997047,0,199.614902)"/>
<path style="fill-rule:nonzero;fill:rgb(40.501404%,18.60199%,46.508789%);fill-opacity:1;stroke-width:5;stroke-linecap:round;stroke-linejoin:round;stroke:rgb(0%,0%,0%);stroke-opacity:1;stroke-miterlimit:10;" d="M 979.728838 847.636254 L 480.481244 1105.89884 L 531.060279 605.554257 " transform="matrix(0.0997047,0,0,-0.0997047,0,199.614902)"/>
<path style="fill-rule:nonzero;fill:rgb(40.501404%,18.60199%,46.508789%);fill-opacity:1;stroke-width:5;stroke-linecap:round;stroke-linejoin:round;stroke:rgb(0%,0%,0%);stroke-opacity:1;stroke-miterlimit:10;" d="M 531.060279 605.554257 L 1001.66862 336.870274 L 979.728838 847.636254 " transform="matrix(0.0997047,0,0,-0.0997047,0,199.614902)"/>
<path style="fill-rule:nonzero;fill:rgb(89.451599%,58.789062%,45.800781%);fill-opacity:1;stroke-width:5;stroke-linecap:round;stroke-linejoin:round;stroke:rgb(0%,0%,0%);stroke-opacity:1;stroke-miterlimit:10;" d="M 2149.863648 1132.775074 L 1677.609822 859.546422 L 1655.86593 349.211402 " transform="matrix(0.0997047,0,0,-0.0997047,0,199.614902)"/>
<path style="fill-rule:nonzero;fill:rgb(69.334412%,42.088318%,50.78125%);fill-opacity:1;stroke-width:5;stroke-linecap:round;stroke-linejoin:round;stroke:rgb(0%,0%,0%);stroke-opacity:1;stroke-miterlimit:10;" d="M 1001.66862 336.870274 L 1655.86593 349.211402 L 1677.609822 859.546422 " transform="matrix(0.0997047,0,0,-0.0997047,0,199.614902)"/>
<path style="fill-rule:nonzero;fill:rgb(69.334412%,42.088318%,50.78125%);fill-opacity:1;stroke-width:5;stroke-linecap:round;stroke-linejoin:round;stroke:rgb(0%,0%,0%);stroke-opacity:1;stroke-miterlimit:10;" d="M 1677.609822 859.546422 L 979.728838 847.636254 L 1001.66862 336.870274 " transform="matrix(0.0997047,0,0,-0.0997047,0,199.614902)"/>
<path style="fill-rule:nonzero;fill:rgb(64.646912%,76.171875%,93.164062%);fill-opacity:1;stroke-width:5;stroke-linecap:round;stroke-linejoin:round;stroke:rgb(0%,0%,0%);stroke-opacity:1;stroke-miterlimit:10;" d="M 979.728838 847.636254 L 1677.609822 859.546422 L 2149.863648 1132.775074 " transform="matrix(0.0997047,0,0,-0.0997047,0,199.614902)"/>
<path style=" stroke:none;fill-rule:nonzero;fill:rgb(64.646912%,76.171875%,93.164062%);fill-opacity:1;" d="M 47.90625 89.351562 L 97.683594 115.101562 L 214.351562 86.671875 "/>
<path style="fill:none;stroke-width:5;stroke-linecap:round;stroke-linejoin:round;stroke:rgb(0%,0%,0%);stroke-opacity:1;stroke-miterlimit:10;" d="M 480.481244 1105.89884 L 979.728838 847.636254 " transform="matrix(0.0997047,0,0,-0.0997047,0,199.614902)"/>
</g>
</svg>
