<?xml version="1.0" encoding="UTF-8"?>
<svg xmlns="http://www.w3.org/2000/svg" xmlns:xlink="http://www.w3.org/1999/xlink" width="237.69pt" height="199.94pt" viewBox="0 0 237.69 199.94" version="1.2">
<g id="surface1">
<path style="fill-rule:nonzero;fill:rgb(73.242188%,49.388123%,56.639099%);fill-opacity:1;stroke-width:5;stroke-linecap:round;stroke-linejoin:round;stroke:rgb(0%,0%,0%);stroke-opacity:1;stroke-miterlimit:10;" d="M 754.420148 1784.53672 L 1423.885891 1843.402456 L 1412.660332 1289.947194 " transform="matrix(0.0998697,0,0,-0.0998697,0,199.779826)"/>
<path style="fill-rule:nonzero;fill:rgb(73.242188%,49.388123%,56.639099%);fill-opacity:1;stroke-width:5;stroke-linecap:round;stroke-linejoin:round;stroke:rgb(0%,0%,0%);stroke-opacity:1;stroke-miterlimit:10;" d="M 1412.660332 1289.947194 L 786.727855 1226.192277 L 754.420148 1784.53672 " transform="matrix(0.0998697,0,0,-0.0998697,0,199.779826)"/>
<path style="fill-rule:nonzero;fill:rgb(49.510193%,30.589294%,55.271912%);fill-opacity:1;stroke-width:5;stroke-linecap:round;stroke-linejoin:round;stroke:rgb(0%,0%,0%);stroke-opacity:1;stroke-miterlimit:10;" d="M 1923.951299 1040.051387 L 1412.660332 1289.947194 L 1423.885891 1843.402456 " transform="matrix(0.0998697,0,0,-0.0998697,0,199.779826)"/>
<path style=" stroke:none;fill-rule:nonzero;fill:rgb(66.40625%,74.021912%,90.625%);fill-opacity:1;" d="M 141.082031 70.953125 L 78.570312 77.320312 L 195.550781 140.113281 "/>
<path style="fill:none;stroke-width:5;stroke-linecap:round;stroke-linejoin:round;stroke:rgb(0%,0%,0%);stroke-opacity:1;stroke-miterlimit:10;" d="M 1412.660332 1289.947194 L 786.727855 1226.192277 " transform="matrix(0.0998697,0,0,-0.0998697,0,199.779826)"/>
<path style="fill-rule:nonzero;fill:rgb(66.40625%,74.021912%,90.625%);fill-opacity:1;stroke-width:5;stroke-linecap:round;stroke-linejoin:round;stroke:rgb(0%,0%,0%);stroke-opacity:1;stroke-miterlimit:10;" d="M 1958.058224 597.443631 L 1923.951299 1040.051387 L 1412.660332 1289.947194 " transform="matrix(0.0998697,0,0,-0.0998697,0,199.779826)"/>
<path style="fill-rule:nonzero;fill:rgb(93.943787%,68.554688%,52.734375%);fill-opacity:1;stroke-width:5;stroke-linecap:round;stroke-linejoin:round;stroke:rgb(0%,0%,0%);stroke-opacity:1;stroke-miterlimit:10;" d="M 354.054914 1457.743878 L 754.420148 1784.53672 L 786.727855 1226.192277 " transform="matrix(0.0998697,0,0,-0.0998697,0,199.779826)"/>
<path style="fill-rule:nonzero;fill:rgb(93.943787%,68.554688%,52.734375%);fill-opacity:1;stroke-width:5;stroke-linecap:round;stroke-linejoin:round;stroke:rgb(0%,0%,0%);stroke-opacity:1;stroke-miterlimit:10;" d="M 786.727855 1226.192277 L 417.496924 875.149098 L 354.054914 1457.743878 " transform="matrix(0.0998697,0,0,-0.0998697,0,199.779826)"/>
<path style=" stroke:none;fill-rule:nonzero;fill:rgb(66.40625%,74.021912%,90.625%);fill-opacity:1;" d="M 78.570312 77.320312 L 41.695312 112.378906 L 195.550781 140.113281 "/>
<path style="fill:none;stroke-width:5;stroke-linecap:round;stroke-linejoin:round;stroke:rgb(0%,0%,0%);stroke-opacity:1;stroke-miterlimit:10;" d="M 786.727855 1226.192277 L 417.496924 875.149098 " transform="matrix(0.0998697,0,0,-0.0998697,0,199.779826)"/>
<path style="fill-rule:nonzero;fill:rgb(49.510193%,30.589294%,55.271912%);fill-opacity:1;stroke-width:5;stroke-linecap:round;stroke-linejoin:round;stroke:rgb(0%,0%,0%);stroke-opacity:1;stroke-miterlimit:10;" d="M 1423.885891 1843.402456 L 1973.312468 1611.694401 L 1923.951299 1040.051387 " transform="matrix(0.0998697,0,0,-0.0998697,0,199.779826)"/>
<path style="fill-rule:nonzero;fill:rgb(18.896484%,18.896484%,40.501404%);fill-opacity:1;stroke-width:5;stroke-linecap:round;stroke-linejoin:round;stroke:rgb(0%,0%,0%);stroke-opacity:1;stroke-miterlimit:10;" d="M 1958.058224 597.443631 L 1923.951299 1040.051387 L 1973.312468 1611.694401 " transform="matrix(0.0998697,0,0,-0.0998697,0,199.779826)"/>
<path style="fill-rule:nonzero;fill:rgb(18.896484%,18.896484%,40.501404%);fill-opacity:1;stroke-width:5;stroke-linecap:round;stroke-linejoin:round;stroke:rgb(0%,0%,0%);stroke-opacity:1;stroke-miterlimit:10;" d="M 1973.312468 1611.694401 L 2015.711444 1196.466058 L 1958.058224 597.443631 " transform="matrix(0.0998697,0,0,-0.0998697,0,199.779826)"/>
<path style=" stroke:none;fill-rule:nonzero;fill:rgb(64.451599%,76.367188%,93.554688%);fill-opacity:1;" d="M 142.203125 15.679688 L 75.34375 21.558594 L 201.308594 80.289062 "/>
<path style="fill:none;stroke-width:5;stroke-linecap:round;stroke-linejoin:round;stroke:rgb(0%,0%,0%);stroke-opacity:1;stroke-miterlimit:10;" d="M 1423.885891 1843.402456 L 754.420148 1784.53672 " transform="matrix(0.0998697,0,0,-0.0998697,0,199.779826)"/>
<path style="fill-rule:nonzero;fill:rgb(64.451599%,76.367188%,93.554688%);fill-opacity:1;stroke-width:5;stroke-linecap:round;stroke-linejoin:round;stroke:rgb(0%,0%,0%);stroke-opacity:1;stroke-miterlimit:10;" d="M 2015.711444 1196.466058 L 1973.312468 1611.694401 L 1423.885891 1843.402456 " transform="matrix(0.0998697,0,0,-0.0998697,0,199.779826)"/>
<path style=" stroke:none;fill-rule:nonzero;fill:rgb(64.451599%,76.367188%,93.554688%);fill-opacity:1;" d="M 75.34375 21.558594 L 35.359375 54.195312 L 201.308594 80.289062 "/>
<path style="fill:none;stroke-width:5;stroke-linecap:round;stroke-linejoin:round;stroke:rgb(0%,0%,0%);stroke-opacity:1;stroke-miterlimit:10;" d="M 754.420148 1784.53672 L 354.054914 1457.743878 " transform="matrix(0.0998697,0,0,-0.0998697,0,199.779826)"/>
<path style="fill-rule:nonzero;fill:rgb(13.792419%,13.792419%,37.597656%);fill-opacity:1;stroke-width:5;stroke-linecap:round;stroke-linejoin:round;stroke:rgb(0%,0%,0%);stroke-opacity:1;stroke-miterlimit:10;" d="M 581.147582 1044.823227 L 354.054914 1457.743878 L 417.496924 875.149098 " transform="matrix(0.0998697,0,0,-0.0998697,0,199.779826)"/>
<path style=" stroke:none;fill-rule:nonzero;fill:rgb(66.40625%,74.021912%,90.625%);fill-opacity:1;" d="M 41.695312 112.378906 L 63.230469 156.097656 L 195.550781 140.113281 "/>
<path style="fill:none;stroke-width:5;stroke-linecap:round;stroke-linejoin:round;stroke:rgb(0%,0%,0%);stroke-opacity:1;stroke-miterlimit:10;" d="M 417.496924 875.149098 L 633.129352 437.39141 " transform="matrix(0.0998697,0,0,-0.0998697,0,199.779826)"/>
<path style="fill-rule:nonzero;fill:rgb(13.792419%,13.792419%,37.597656%);fill-opacity:1;stroke-width:5;stroke-linecap:round;stroke-linejoin:round;stroke:rgb(0%,0%,0%);stroke-opacity:1;stroke-miterlimit:10;" d="M 417.496924 875.149098 L 633.129352 437.39141 L 581.147582 1044.823227 " transform="matrix(0.0998697,0,0,-0.0998697,0,199.779826)"/>
<path style="fill-rule:nonzero;fill:rgb(66.40625%,74.021912%,90.625%);fill-opacity:1;stroke-width:5;stroke-linecap:round;stroke-linejoin:round;stroke:rgb(0%,0%,0%);stroke-opacity:1;stroke-miterlimit:10;" d="M 633.129352 437.39141 L 1368.9315 293.062793 L 1958.058224 597.443631 " transform="matrix(0.0998697,0,0,-0.0998697,0,199.779826)"/>
<path style="fill-rule:nonzero;fill:rgb(86.326599%,56.443787%,47.801208%);fill-opacity:1;stroke-width:5;stroke-linecap:round;stroke-linejoin:round;stroke:rgb(0%,0%,0%);stroke-opacity:1;stroke-miterlimit:10;" d="M 1368.9315 293.062793 L 1958.058224 597.443631 L 2015.711444 1196.466058 " transform="matrix(0.0998697,0,0,-0.0998697,0,199.779826)"/>
<path style=" stroke:none;fill-rule:nonzero;fill:rgb(64.451599%,76.367188%,93.554688%);fill-opacity:1;" d="M 35.359375 54.195312 L 58.039062 95.433594 L 201.308594 80.289062 "/>
<path style="fill:none;stroke-width:5;stroke-linecap:round;stroke-linejoin:round;stroke:rgb(0%,0%,0%);stroke-opacity:1;stroke-miterlimit:10;" d="M 354.054914 1457.743878 L 581.147582 1044.823227 " transform="matrix(0.0998697,0,0,-0.0998697,0,199.779826)"/>
<path style="fill-rule:nonzero;fill:rgb(59.568787%,34.301758%,50.389099%);fill-opacity:1;stroke-width:5;stroke-linecap:round;stroke-linejoin:round;stroke:rgb(0%,0%,0%);stroke-opacity:1;stroke-miterlimit:10;" d="M 1379.296563 907.300351 L 581.147582 1044.823227 L 633.129352 437.39141 " transform="matrix(0.0998697,0,0,-0.0998697,0,199.779826)"/>
<path style="fill-rule:nonzero;fill:rgb(59.568787%,34.301758%,50.389099%);fill-opacity:1;stroke-width:5;stroke-linecap:round;stroke-linejoin:round;stroke:rgb(0%,0%,0%);stroke-opacity:1;stroke-miterlimit:10;" d="M 633.129352 437.39141 L 1368.9315 293.062793 L 1379.296563 907.300351 " transform="matrix(0.0998697,0,0,-0.0998697,0,199.779826)"/>
<path style="fill-rule:nonzero;fill:rgb(86.326599%,56.443787%,47.801208%);fill-opacity:1;stroke-width:5;stroke-linecap:round;stroke-linejoin:round;stroke:rgb(0%,0%,0%);stroke-opacity:1;stroke-miterlimit:10;" d="M 2015.711444 1196.466058 L 1379.296563 907.300351 L 1368.9315 293.062793 " transform="matrix(0.0998697,0,0,-0.0998697,0,199.779826)"/>
<path style="fill-rule:nonzero;fill:rgb(64.451599%,76.367188%,93.554688%);fill-opacity:1;stroke-width:5;stroke-linecap:round;stroke-linejoin:round;stroke:rgb(0%,0%,0%);stroke-opacity:1;stroke-miterlimit:10;" d="M 581.147582 1044.823227 L 1379.296563 907.300351 L 2015.711444 1196.466058 " transform="matrix(0.0998697,0,0,-0.0998697,0,199.779826)"/>
</g>
</svg>
