<svg xmlns="http://www.w3.org/2000/svg" viewBox="0 0 500 500" width="500" height="500">
  <style type="text/css">
    .st0{fill:#B5350C;}
    .st1{fill:#001CA2;}
    .st2{fill:#F0CCAD;}
    .st3{fill:#A1C6F2;}
    .st4{fill:#AA82AA;}
  </style>
  <path class="st0" d="M379.1,446.1l95.6-85.1l-104.6-5.6l-169.9,94.1l21.8,49.5C222.1,499,379.1,446.1,379.1,446.1z"/>
  <path d="M222.1,499l-21.8-49.5L52.9,318.3L6,306.7l101.3,105.8L222.1,499L222.1,499z"/>
  <path class="st1" d="M111.5,39.2L41.3,146.5L6.1,306.6L53,318.2l72.4-179.9L111.5,39.2z"/>
  <path class="st2" d="M409.6,66.7l-84.3,91.5l45,197.2l104.6,5.6L494,192.6L409.6,66.7z"/>
  <path class="st3" d="M125.3,138.2l199.9,19.9l84.3-91.5L277.1,1L111.5,39.2L125.3,138.2"/>
  <path class="st4" d="M370.2,355.4l-45-197.2l-199.8-20l-72.5,180l147.4,131.2L370.2,355.4z"/>
  <g>
    <path d="M475.7,360.9l19.1-168.1c0-0.1,0-0.4-0.2-0.6l-84.3-126l-0.1-0.1c-0.1-0.1-0.1-0.1-0.2-0.2l-0.1-0.1L277.6,0.1L277.5,0H277
		L111.2,38.2c-0.1,0-0.2,0.1-0.2,0.1c-0.2,0.1-0.3,0.2-0.4,0.4L40.4,146c-0.1,0.1-0.2,0.3-0.2,0.5L5,306.5l0,0.1
		c0,0.6,0.3,0.9,0.6,1l101.1,105.6l114.7,86.6c0,0,0.1,0.1,0.2,0.1c0.1,0.1,0.3,0.1,0.5,0.1c0.2,0,0.3,0,0.6-0.2l0.1-0.1
		c0,0,0,0,0.1-0.1L379.4,447c0.2,0,0.4-0.2,0.4-0.2l95.1-84.7c0.2,0,0.4-0.1,0.5-0.3c0,0,0.1-0.1,0.1-0.1c0-0.1,0.1-0.1,0.1-0.2
		l0.5-0.4h-0.4C475.7,360.9,475.7,360.9,475.7,360.9z M201.6,449.9l168.7-93.5l101.9,5.5l-93.6,83.4l-156,52.5L201.6,449.9z
		 M474.8,361.4l0-0.2L474.8,361.4z M422.5,357.2l-51.5-2.8l-22.4-98l-22.3-98l83.1-90.2l83.5,124.6l-19,167.1L422.5,357.2z
		 M324.3,159L369,354.7l-168.6,93.4L54.1,317.9L126,139.3L324.3,159z M324.8,157l-198.7-19.7L112.5,40L277.1,2l130.7,65L324.8,157z
		 M100.3,197.9L52.4,317.1L7.3,305.9l35-159L110.8,42l13.5,96.2L100.3,197.9z M9.3,308.5l43.1,10.7l73.5,65.4l73.5,65.5l20.1,45.7
		L108,411.6L9.3,308.5z"/>
  </g>
</svg>
