<svg xmlns="http://www.w3.org/2000/svg" width="500" height="500"><path d="m379.1 446.1 95.6-85.1-104.6-5.6-169.9 94.1L222 499c.1 0 157.1-52.9 157.1-52.9z" style="fill:#b5350c"/><path d="m222.1 499-21.8-49.5L52.9 318.3 6 306.7l101.3 105.8L222.1 499z"/><path d="M111.5 39.2 41.3 146.5 6.1 306.6 53 318.2l72.4-179.9-13.9-99.1z" style="fill:#001ca2"/><path d="m409.6 66.7-84.3 91.5 45 197.2 104.6 5.6L494 192.6 409.6 66.7z" style="fill:#f0ccad"/><path d="m125.3 138.2 199.9 19.9 84.3-91.5L277.1 1 111.5 39.2l13.8 99" style="fill:#a1c6f2"/><path d="m370.2 355.4-45-197.2-199.8-20-72.5 180 147.4 131.2 169.9-94z" style="fill:#aa82aa"/><path d="m475.7 360.9 19.1-168.1c0-.1 0-.4-.2-.6l-84.3-126-.1-.1-.2-.2-.1-.1L277.6.1l-.1-.1h-.5L111.2 38.2c-.1 0-.2.1-.2.1-.2.1-.3.2-.4.4L40.4 146c-.1.1-.2.3-.2.5L5 306.5v.1c0 .6.3.9.6 1l101.1 105.6 114.7 86.6s.1.1.2.1c.1.1.3.1.5.1s.3 0 .6-.2l.1-.1.1-.1L379.4 447c.2 0 .4-.2.4-.2l95.1-84.7c.2 0 .4-.1.5-.3l.1-.1c0-.1.1-.1.1-.2l.5-.4h-.4v-.2zm-274.1 89 168.7-93.5 101.9 5.5-93.6 83.4-156 52.5-21-47.9zm273.2-88.5v-.2.2zm-52.3-4.2-51.5-2.8-22.4-98-22.3-98 83.1-90.2 83.5 124.6-19 167.1-51.4-2.7zM324.3 159 369 354.7l-168.6 93.4L54.1 317.9 126 139.3 324.3 159zm.5-2-198.7-19.7L112.5 40 277.1 2l130.7 65-83 90zm-224.5 40.9L52.4 317.1 7.3 305.9l35-159L110.8 42l13.5 96.2-24 59.7zm-91 110.6 43.1 10.7 73.5 65.4 73.5 65.5 20.1 45.7L108 411.6 9.3 308.5z"/></svg>