<svg xmlns="http://www.w3.org/2000/svg" width="140pt" height="140pt" viewBox="0 0 140 140" version="1.2"><path style="stroke:none;fill-rule:nonzero;fill:#c1abc4;fill-opacity:1" d="M83.715 62.172 22.19 79.222l51.407 45.72"/><path style="fill:none;stroke-width:4.13379;stroke-linecap:round;stroke-linejoin:round;stroke:#000;stroke-opacity:1;stroke-miterlimit:10" d="M837.148 778.281 221.914 607.773l514.063-457.187Zm0 0" transform="matrix(.1 0 0 -.1 0 140)"/><path style="stroke:none;fill-rule:nonzero;fill:#988ec8;fill-opacity:1" d="m133.484 91.773-49.77-29.601-10.116 62.77"/><path style="fill:none;stroke-width:4.13379;stroke-linecap:round;stroke-linejoin:round;stroke:#000;stroke-opacity:1;stroke-miterlimit:10" d="M1334.844 482.266 837.148 778.28 735.977 150.586Zm0 0" transform="matrix(.1 0 0 -.1 0 140)"/><path style="stroke:none;fill-rule:nonzero;fill:#c9939c;fill-opacity:1" d="M83.715 62.172 47.633 15.734 22.19 79.223"/><path style="fill:none;stroke-width:4.13379;stroke-linecap:round;stroke-linejoin:round;stroke:#000;stroke-opacity:1;stroke-miterlimit:10" d="m837.148 778.281-360.82 464.375-254.414-634.883Zm0 0" transform="matrix(.1 0 0 -.1 0 140)"/><path style="stroke:none;fill-rule:nonzero;fill:#7e599c;fill-opacity:1" d="m133.484 91.773-15.355-69.48-34.414 39.879"/><path style="fill:none;stroke-width:4.13379;stroke-linecap:round;stroke-linejoin:round;stroke:#000;stroke-opacity:1;stroke-miterlimit:10" d="m1334.844 482.266-153.555 694.804-344.14-398.789Zm0 0" transform="matrix(.1 0 0 -.1 0 140)"/><path style="stroke:none;fill-rule:nonzero;fill:#a25d7e;fill-opacity:1" d="m118.129 22.293-70.496-6.559 36.082 46.438"/><path style="fill:none;stroke-width:4.13379;stroke-linecap:round;stroke-linejoin:round;stroke:#000;stroke-opacity:1;stroke-miterlimit:10" d="m1181.29 1177.07-704.962 65.586 360.82-464.375Zm0 0" transform="matrix(.1 0 0 -.1 0 140)"/><path style="stroke:none;fill-rule:nonzero;fill:#d7e3df;fill-opacity:1" d="m22.191 79.223 3.856 46.066 47.55-.348"/><path style="fill:none;stroke-width:4.13379;stroke-linecap:round;stroke-linejoin:round;stroke:#000;stroke-opacity:1;stroke-miterlimit:10" d="M221.914 607.773 260.47 147.11l475.508 3.477Zm0 0" transform="matrix(.1 0 0 -.1 0 140)"/><path style="stroke:none;fill-rule:nonzero;fill:#e6db69;fill-opacity:1" d="M22.191 79.223 7.336 50.343l18.71 74.946"/><path style="fill:none;stroke-width:4.13379;stroke-linecap:round;stroke-linejoin:round;stroke:#000;stroke-opacity:1;stroke-miterlimit:10" d="M221.914 607.773 73.36 896.563l187.11-749.454Zm0 0" transform="matrix(.1 0 0 -.1 0 140)"/><path style="stroke:none;fill-rule:nonzero;fill:#f19d60;fill-opacity:1" d="M47.633 15.734 7.336 50.344 22.19 79.223"/><path style="fill:none;stroke-width:4.13379;stroke-linecap:round;stroke-linejoin:round;stroke:#000;stroke-opacity:1;stroke-miterlimit:10" d="M476.328 1242.656 73.36 896.563l148.555-288.79Zm0 0" transform="matrix(.1 0 0 -.1 0 140)"/><path style="stroke:none;fill-rule:nonzero;fill:#4c8ceb;fill-opacity:1" d="m102.55 134.957 30.934-43.184-59.886 33.168"/><path style="fill:none;stroke-width:4.13379;stroke-linecap:round;stroke-linejoin:round;stroke:#000;stroke-opacity:1;stroke-miterlimit:10" d="m1025.508 50.43 309.336 431.836-598.867-331.68Zm0 0" transform="matrix(.1 0 0 -.1 0 140)"/><path style="stroke:none;fill-rule:nonzero;fill:#4dc9e4;fill-opacity:1" d="m26.047 125.29 76.504 9.667-28.953-10.016"/><path style="fill:none;stroke-width:4.13379;stroke-linecap:round;stroke-linejoin:round;stroke:#000;stroke-opacity:1;stroke-miterlimit:10" d="m260.469 147.11 765.039-96.68-289.531 100.156Zm0 0" transform="matrix(.1 0 0 -.1 0 140)"/><path style="stroke:none;fill-rule:nonzero;fill:#300;fill-opacity:1" d="m73.598 9.68-25.965 6.054 70.496 6.559"/><path style="fill:none;stroke-width:4.13379;stroke-linecap:round;stroke-linejoin:round;stroke:#000;stroke-opacity:1;stroke-miterlimit:10" d="m735.977 1303.203-259.649-60.547 704.961-65.586Zm0 0" transform="matrix(.1 0 0 -.1 0 140)"/><path style="stroke:none;fill-rule:nonzero;fill:#0061d2;fill-opacity:1" d="M73.598 9.68 7.336 50.344l40.297-34.61"/><path style="fill:none;stroke-width:4.13379;stroke-linecap:round;stroke-linejoin:round;stroke:#000;stroke-opacity:1;stroke-miterlimit:10" d="M735.977 1303.203 73.359 896.563l402.97 346.093Zm0 0" transform="matrix(.1 0 0 -.1 0 140)"/><path style="stroke:none;fill-rule:nonzero;fill:#000016;fill-opacity:1" d="M134.621 63.652 118.13 22.293l15.355 69.48"/><path style="fill:none;stroke-width:4.13379;stroke-linecap:round;stroke-linejoin:round;stroke:#000;stroke-opacity:1;stroke-miterlimit:10" d="m1346.21 763.477-164.92 413.593 153.554-694.804Zm0 0" transform="matrix(.1 0 0 -.1 0 140)"/><path style="stroke:none;fill-rule:nonzero;fill:#e48110;fill-opacity:1" d="m102.55 134.957 32.071-71.305-1.137 28.121"/><path style="fill:none;stroke-width:4.13379;stroke-linecap:round;stroke-linejoin:round;stroke:#000;stroke-opacity:1;stroke-miterlimit:10" d="m1025.508 50.43 320.703 713.047-11.367-281.211Zm0 0" transform="matrix(.1 0 0 -.1 0 140)"/><path style="stroke:none;fill-rule:nonzero;fill:#d5f9e1;fill-opacity:1" d="m73.598 9.68 44.53 12.613 16.493 41.36"/><path style="fill:none;stroke-width:4.13379;stroke-linecap:round;stroke-linejoin:round;stroke:#000;stroke-opacity:1;stroke-miterlimit:10" d="m735.977 1303.203 445.312-126.133 164.922-413.593Zm0 0" transform="matrix(.1 0 0 -.1 0 140)"/><path style="stroke:none;fill-rule:nonzero;fill:#984767;fill-opacity:1" d="M26.047 125.29 60.266 85.19l42.285 49.766"/><path style="fill:none;stroke-width:4.13379;stroke-linecap:round;stroke-linejoin:round;stroke:#000;stroke-opacity:1;stroke-miterlimit:10" d="m260.469 147.11 342.187 400.976L1025.508 50.43Zm0 0" transform="matrix(.1 0 0 -.1 0 140)"/><path style="stroke:none;fill-rule:nonzero;fill:#674190;fill-opacity:1" d="m7.336 50.344 52.93 34.847-34.22 40.098"/><path style="fill:none;stroke-width:4.13379;stroke-linecap:round;stroke-linejoin:round;stroke:#000;stroke-opacity:1;stroke-miterlimit:10" d="m73.36 896.563 529.296-348.477L260.47 147.109Zm0 0" transform="matrix(.1 0 0 -.1 0 140)"/><path style="stroke:none;fill-rule:nonzero;fill:#8e8ccc;fill-opacity:1" d="M73.598 9.68 60.266 85.19 7.336 50.344"/><path style="fill:none;stroke-width:4.13379;stroke-linecap:round;stroke-linejoin:round;stroke:#000;stroke-opacity:1;stroke-miterlimit:10" d="m735.977 1303.203-133.32-755.117L73.358 896.562Zm0 0" transform="matrix(.1 0 0 -.1 0 140)"/><path style="stroke:none;fill-rule:nonzero;fill:#ce9294;fill-opacity:1" d="m60.266 85.191 74.355-21.539-32.07 71.305"/><path style="fill:none;stroke-width:4.13379;stroke-linecap:round;stroke-linejoin:round;stroke:#000;stroke-opacity:1;stroke-miterlimit:10" d="m602.656 548.086 743.555 215.39L1025.508 50.43Zm0 0" transform="matrix(.1 0 0 -.1 0 140)"/><path style="stroke:none;fill-rule:nonzero;fill:#c4b1c7;fill-opacity:1" d="m73.598 9.68 61.023 53.972-74.355 21.54"/><path style="fill:none;stroke-width:4.13379;stroke-linecap:round;stroke-linejoin:round;stroke:#000;stroke-opacity:1;stroke-miterlimit:10" d="m735.977 1303.203 610.234-539.726-743.555-215.391Zm0 0" transform="matrix(.1 0 0 -.1 0 140)"/></svg>