<svg xmlns="http://www.w3.org/2000/svg" width="160pt" height="200" viewBox="0 0 160 150" version="1.2"><path style="stroke:none;fill-rule:nonzero;fill:#c09cb4;fill-opacity:1" d="m111.715 39.809-36.313 102.07L5.453 57.035"/><path style="fill:none;stroke-width:5.5515;stroke-linecap:round;stroke-linejoin:round;stroke:#000;stroke-opacity:1;stroke-miterlimit:10" d="M1117.148 1101.914 754.023 81.211 54.531 929.648Zm0 0" transform="matrix(.1 0 0 -.1 0 150)"/><path style="stroke:none;fill-rule:nonzero;fill:#686ac1;fill-opacity:1" d="m153.348 104.387-77.946 37.492 36.313-102.07"/><path style="fill:none;stroke-width:5.5515;stroke-linecap:round;stroke-linejoin:round;stroke:#000;stroke-opacity:1;stroke-miterlimit:10" d="M1533.477 456.133 754.023 81.21l363.125 1020.703Zm0 0" transform="matrix(.1 0 0 -.1 0 150)"/><path style="stroke:none;fill-rule:nonzero;fill:#aa3425;fill-opacity:1" d="m75.402 5.656 36.313 34.153L5.453 57.035"/><path style="fill:none;stroke-width:5.5515;stroke-linecap:round;stroke-linejoin:round;stroke:#000;stroke-opacity:1;stroke-miterlimit:10" d="m754.023 1443.438 363.125-341.524L54.531 929.648Zm0 0" transform="matrix(.1 0 0 -.1 0 150)"/><path style="stroke:none;fill-rule:nonzero;fill:#b6ec96;fill-opacity:1" d="m75.402 5.656 77.946 98.73-41.633-64.577"/><path style="fill:none;stroke-width:5.5515;stroke-linecap:round;stroke-linejoin:round;stroke:#000;stroke-opacity:1;stroke-miterlimit:10" d="m754.023 1443.438 779.454-987.305-416.329 645.781Zm0 0" transform="matrix(.1 0 0 -.1 0 150)"/><path style="stroke:none;fill-rule:nonzero;fill:#e1fdc7;fill-opacity:1" d="m75.402 141.879-44.367-14.031L5.453 57.035"/><path style="fill:none;stroke-width:5.5515;stroke-linecap:round;stroke-linejoin:round;stroke:#000;stroke-opacity:1;stroke-miterlimit:10" d="M754.023 81.21 310.352 221.524 54.532 929.648Zm0 0" transform="matrix(.1 0 0 -.1 0 150)"/><path style="stroke:none;fill-rule:nonzero;fill:#8e0100;fill-opacity:1" d="m153.348 104.387-122.313 23.46 44.367 14.032"/><path style="fill:none;stroke-width:5.5515;stroke-linecap:round;stroke-linejoin:round;stroke:#000;stroke-opacity:1;stroke-miterlimit:10" d="M1533.477 456.133 310.352 221.523 754.023 81.211Zm0 0" transform="matrix(.1 0 0 -.1 0 150)"/><path style="stroke:none;fill-rule:nonzero;fill:#4c5ac0;fill-opacity:1" d="M75.402 5.656 5.453 57.036l25.582 70.812"/><path style="fill:none;stroke-width:5.5515;stroke-linecap:round;stroke-linejoin:round;stroke:#000;stroke-opacity:1;stroke-miterlimit:10" d="M754.023 1443.438 54.531 929.648l255.82-708.125Zm0 0" transform="matrix(.1 0 0 -.1 0 150)"/><path style="stroke:none;fill-rule:nonzero;fill:#c29eb4;fill-opacity:1" d="M75.402 5.656 31.035 127.848l122.313-23.461"/><path style="fill:none;stroke-width:5.5515;stroke-linecap:round;stroke-linejoin:round;stroke:#000;stroke-opacity:1;stroke-miterlimit:10" d="M754.023 1443.438 310.352 221.523l1223.125 234.61Zm0 0" transform="matrix(.1 0 0 -.1 0 150)"/></svg>