<?xml version="1.0" encoding="UTF-8"?>
<svg xmlns="http://www.w3.org/2000/svg" xmlns:xlink="http://www.w3.org/1999/xlink" width="186.88pt" height="148.58pt" viewBox="0 0 186.88 148.58" version="1.2">
<defs>
<clipPath id="clip1">
  <path d="M 171 40 L 186.558594 40 L 186.558594 97 L 171 97 Z M 171 40 "/>
</clipPath>
<clipPath id="clip2">
  <path d="M 171 39 L 186.558594 39 L 186.558594 97 L 171 97 Z M 171 39 "/>
</clipPath>
<clipPath id="clip3">
  <path d="M 157 13 L 186.558594 13 L 186.558594 64 L 157 64 Z M 157 13 "/>
</clipPath>
<clipPath id="clip4">
  <path d="M 157 12 L 186.558594 12 L 186.558594 65 L 157 65 Z M 157 12 "/>
</clipPath>
<clipPath id="clip5">
  <path d="M 139 13 L 186.558594 13 L 186.558594 101 L 139 101 Z M 139 13 "/>
</clipPath>
<clipPath id="clip6">
  <path d="M 157 12 L 186.558594 12 L 186.558594 41 L 157 41 Z M 157 12 "/>
</clipPath>
<clipPath id="clip7">
  <path d="M 0.203125 54 L 10 54 L 10 112 L 0.203125 112 Z M 0.203125 54 "/>
</clipPath>
<clipPath id="clip8">
  <path d="M 0.203125 53 L 11 53 L 11 112 L 0.203125 112 Z M 0.203125 53 "/>
</clipPath>
<clipPath id="clip9">
  <path d="M 0.203125 23 L 17 23 L 17 77 L 0.203125 77 Z M 0.203125 23 "/>
</clipPath>
<clipPath id="clip10">
  <path d="M 0.203125 22 L 17 22 L 17 77 L 0.203125 77 Z M 0.203125 22 "/>
</clipPath>
<clipPath id="clip11">
  <path d="M 0.203125 23 L 140 23 L 140 101 L 0.203125 101 Z M 0.203125 23 "/>
</clipPath>
<clipPath id="clip12">
  <path d="M 0.203125 22 L 17 22 L 17 55 L 0.203125 55 Z M 0.203125 22 "/>
</clipPath>
<clipPath id="clip13">
  <path d="M 107 96 L 186 96 L 186 148.160156 L 107 148.160156 Z M 107 96 "/>
</clipPath>
<clipPath id="clip14">
  <path d="M 47 139 L 109 139 L 109 148.160156 L 47 148.160156 Z M 47 139 "/>
</clipPath>
<clipPath id="clip15">
  <path d="M 182 40 L 186.558594 40 L 186.558594 97 L 182 97 Z M 182 40 "/>
</clipPath>
<clipPath id="clip16">
  <path d="M 181 39 L 186.558594 39 L 186.558594 97 L 181 97 Z M 181 39 "/>
</clipPath>
<clipPath id="clip17">
  <path d="M 139 40 L 186.558594 40 L 186.558594 101 L 139 101 Z M 139 40 "/>
</clipPath>
<clipPath id="clip18">
  <path d="M 139 39 L 186.558594 39 L 186.558594 101 L 139 101 Z M 139 39 "/>
</clipPath>
<clipPath id="clip19">
  <path d="M 0.203125 54 L 21 54 L 21 112 L 0.203125 112 Z M 0.203125 54 "/>
</clipPath>
<clipPath id="clip20">
  <path d="M 0.203125 53 L 22 53 L 22 112 L 0.203125 112 Z M 0.203125 53 "/>
</clipPath>
<clipPath id="clip21">
  <path d="M 0.203125 54 L 140 54 L 140 101 L 0.203125 101 Z M 0.203125 54 "/>
</clipPath>
<clipPath id="clip22">
  <path d="M 0.203125 53 L 22 53 L 22 88 L 0.203125 88 Z M 0.203125 53 "/>
</clipPath>
<clipPath id="clip23">
  <path d="M 107 100 L 163 100 L 163 148.160156 L 107 148.160156 Z M 107 100 "/>
</clipPath>
<clipPath id="clip24">
  <path d="M 47 105 L 109 105 L 109 148.160156 L 47 148.160156 Z M 47 105 "/>
</clipPath>
<clipPath id="clip25">
  <path d="M 75 100 L 141 100 L 141 148.160156 L 75 148.160156 Z M 75 100 "/>
</clipPath>
</defs>
<g id="surface1">
<path style="fill-rule:nonzero;fill:rgb(77.96936%,50.135803%,57.435608%);fill-opacity:1;stroke-width:5;stroke-linecap:round;stroke-linejoin:round;stroke:rgb(13.729858%,12.159729%,12.548828%);stroke-opacity:1;stroke-miterlimit:10;" d="M 581.596015 1448.115651 L 375.233071 989.165716 L 842.095935 1112.051167 Z M 581.596015 1448.115651 " transform="matrix(0.0997181,0,0,-0.0997181,0.203557,148.161184)"/>
<path style="fill-rule:nonzero;fill:rgb(64.625549%,38.46283%,59.942627%);fill-opacity:1;stroke-width:5;stroke-linecap:round;stroke-linejoin:round;stroke:rgb(13.729858%,12.159729%,12.548828%);stroke-opacity:1;stroke-miterlimit:10;" d="M 1101.499014 1483.25376 L 842.095935 1112.051167 L 1338.730219 1061.24389 Z M 1101.499014 1483.25376 " transform="matrix(0.0997181,0,0,-0.0997181,0.203557,148.161184)"/>
<path style="fill-rule:nonzero;fill:rgb(71.440125%,39.01825%,52.806091%);fill-opacity:1;stroke-width:5;stroke-linecap:round;stroke-linejoin:round;stroke:rgb(13.729858%,12.159729%,12.548828%);stroke-opacity:1;stroke-miterlimit:10;" d="M 1101.499014 1483.25376 L 581.596015 1448.115651 L 842.095935 1112.051167 Z M 1101.499014 1483.25376 " transform="matrix(0.0997181,0,0,-0.0997181,0.203557,148.161184)"/>
<path style=" stroke:none;fill-rule:nonzero;fill:rgb(68.357849%,74.034119%,90.034485%);fill-opacity:1;" d="M 84.175781 37.269531 L 37.621094 49.523438 L 184.777344 96.695312 "/>
<path style="fill:none;stroke-width:5;stroke-linecap:round;stroke-linejoin:round;stroke:rgb(13.729858%,12.159729%,12.548828%);stroke-opacity:1;stroke-miterlimit:10;" d="M 842.095935 1112.051167 L 375.233071 989.165716 " transform="matrix(0.0997181,0,0,-0.0997181,0.203557,148.161184)"/>
<path style=" stroke:none;fill-rule:nonzero;fill:rgb(68.357849%,74.034119%,90.034485%);fill-opacity:1;" d="M 133.699219 42.335938 L 84.175781 37.269531 L 184.777344 96.695312 "/>
<path style="fill:none;stroke-width:5;stroke-linecap:round;stroke-linejoin:round;stroke:rgb(13.729858%,12.159729%,12.548828%);stroke-opacity:1;stroke-miterlimit:10;" d="M 1338.730219 1061.24389 L 842.095935 1112.051167 " transform="matrix(0.0997181,0,0,-0.0997181,0.203557,148.161184)"/>
<path style="fill-rule:nonzero;fill:rgb(45.622253%,26.159668%,60.069275%);fill-opacity:1;stroke-width:5;stroke-linecap:round;stroke-linejoin:round;stroke:rgb(13.729858%,12.159729%,12.548828%);stroke-opacity:1;stroke-miterlimit:10;" d="M 1579.25195 1353.121319 L 1338.730219 1061.24389 L 1722.624838 845.94952 Z M 1579.25195 1353.121319 " transform="matrix(0.0997181,0,0,-0.0997181,0.203557,148.161184)"/>
<path style="fill-rule:nonzero;fill:rgb(54.147339%,26.541138%,53.741455%);fill-opacity:1;stroke-width:5;stroke-linecap:round;stroke-linejoin:round;stroke:rgb(13.729858%,12.159729%,12.548828%);stroke-opacity:1;stroke-miterlimit:10;" d="M 1579.25195 1353.121319 L 1101.499014 1483.25376 L 1338.730219 1061.24389 Z M 1579.25195 1353.121319 " transform="matrix(0.0997181,0,0,-0.0997181,0.203557,148.161184)"/>
<path style="fill-rule:nonzero;fill:rgb(68.357849%,74.034119%,90.034485%);fill-opacity:1;stroke-width:5;stroke-linecap:round;stroke-linejoin:round;stroke:rgb(13.729858%,12.159729%,12.548828%);stroke-opacity:1;stroke-miterlimit:10;" d="M 1850.955325 516.113531 L 1722.624838 845.94952 L 1338.730219 1061.24389 " transform="matrix(0.0997181,0,0,-0.0997181,0.203557,148.161184)"/>
<path style="fill-rule:nonzero;fill:rgb(92.614746%,66.633606%,51.881409%);fill-opacity:1;stroke-width:5;stroke-linecap:round;stroke-linejoin:round;stroke:rgb(13.729858%,12.159729%,12.548828%);stroke-opacity:1;stroke-miterlimit:10;" d="M 165.540429 1253.778793 L 81.906244 716.561364 L 375.233071 989.165716 Z M 165.540429 1253.778793 " transform="matrix(0.0997181,0,0,-0.0997181,0.203557,148.161184)"/>
<path style="fill-rule:nonzero;fill:rgb(85.931396%,52.561951%,47.419739%);fill-opacity:1;stroke-width:5;stroke-linecap:round;stroke-linejoin:round;stroke:rgb(13.729858%,12.159729%,12.548828%);stroke-opacity:1;stroke-miterlimit:10;" d="M 581.596015 1448.115651 L 165.540429 1253.778793 L 375.233071 989.165716 Z M 581.596015 1448.115651 " transform="matrix(0.0997181,0,0,-0.0997181,0.203557,148.161184)"/>
<path style=" stroke:none;fill-rule:nonzero;fill:rgb(68.357849%,74.034119%,90.034485%);fill-opacity:1;" d="M 37.621094 49.523438 L 8.371094 76.707031 L 184.777344 96.695312 "/>
<path style="fill:none;stroke-width:5;stroke-linecap:round;stroke-linejoin:round;stroke:rgb(13.729858%,12.159729%,12.548828%);stroke-opacity:1;stroke-miterlimit:10;" d="M 375.233071 989.165716 L 81.906244 716.561364 " transform="matrix(0.0997181,0,0,-0.0997181,0.203557,148.161184)"/>
<path style=" stroke:none;fill-rule:nonzero;fill:rgb(68.357849%,74.034119%,90.034485%);fill-opacity:1;" d="M 8.371094 76.707031 L 9.847656 111.480469 L 184.777344 96.695312 "/>
<path style="fill:none;stroke-width:5;stroke-linecap:round;stroke-linejoin:round;stroke:rgb(13.729858%,12.159729%,12.548828%);stroke-opacity:1;stroke-miterlimit:10;" d="M 81.906244 716.561364 L 96.713608 367.844027 " transform="matrix(0.0997181,0,0,-0.0997181,0.203557,148.161184)"/>
<path style=" stroke:none;fill-rule:nonzero;fill:rgb(68.357849%,74.034119%,90.034485%);fill-opacity:1;" d="M 9.847656 111.480469 L 47.476562 140.21875 L 184.777344 96.695312 "/>
<path style="fill:none;stroke-width:5;stroke-linecap:round;stroke-linejoin:round;stroke:rgb(13.729858%,12.159729%,12.548828%);stroke-opacity:1;stroke-miterlimit:10;" d="M 96.713608 367.844027 L 474.066349 79.648852 " transform="matrix(0.0997181,0,0,-0.0997181,0.203557,148.161184)"/>
<path style=" stroke:none;fill-rule:nonzero;fill:rgb(67.216492%,76.040649%,91.134644%);fill-opacity:1;" d="M 110.042969 0.253906 L 157.683594 13.230469 L 139.957031 100.542969 "/>
<path style="fill:none;stroke-width:5;stroke-linecap:round;stroke-linejoin:round;stroke:rgb(13.729858%,12.159729%,12.548828%);stroke-opacity:1;stroke-miterlimit:10;" d="M 1101.499014 1483.25376 L 1579.25195 1353.121319 " transform="matrix(0.0997181,0,0,-0.0997181,0.203557,148.161184)"/>
<path style=" stroke:none;fill-rule:nonzero;fill:rgb(67.216492%,76.040649%,91.134644%);fill-opacity:1;" d="M 58.199219 3.757812 L 110.042969 0.253906 L 139.957031 100.542969 "/>
<path style="fill:none;stroke-width:5;stroke-linecap:round;stroke-linejoin:round;stroke:rgb(13.729858%,12.159729%,12.548828%);stroke-opacity:1;stroke-miterlimit:10;" d="M 581.596015 1448.115651 L 1101.499014 1483.25376 " transform="matrix(0.0997181,0,0,-0.0997181,0.203557,148.161184)"/>
<path style=" stroke:none;fill-rule:nonzero;fill:rgb(67.216492%,76.040649%,91.134644%);fill-opacity:1;" d="M 16.710938 23.136719 L 58.199219 3.757812 L 139.957031 100.542969 "/>
<path style="fill:none;stroke-width:5;stroke-linecap:round;stroke-linejoin:round;stroke:rgb(13.729858%,12.159729%,12.548828%);stroke-opacity:1;stroke-miterlimit:10;" d="M 165.540429 1253.778793 L 581.596015 1448.115651 " transform="matrix(0.0997181,0,0,-0.0997181,0.203557,148.161184)"/>
<g clip-path="url(#clip1)" clip-rule="nonzero">
<path style=" stroke:none;fill-rule:nonzero;fill:rgb(15.185547%,16.918945%,44.38324%);fill-opacity:1;" d="M 186.304688 40.210938 L 171.980469 63.804688 L 184.777344 96.695312 Z M 186.304688 40.210938 "/>
</g>
<g clip-path="url(#clip2)" clip-rule="nonzero">
<path style="fill:none;stroke-width:5;stroke-linecap:round;stroke-linejoin:round;stroke:rgb(13.729858%,12.159729%,12.548828%);stroke-opacity:1;stroke-miterlimit:10;" d="M 1866.271937 1082.553958 L 1722.624838 845.94952 L 1850.955325 516.113531 Z M 1866.271937 1082.553958 " transform="matrix(0.0997181,0,0,-0.0997181,0.203557,148.161184)"/>
</g>
<g clip-path="url(#clip3)" clip-rule="nonzero">
<path style=" stroke:none;fill-rule:nonzero;fill:rgb(21.125793%,15.913391%,44.094849%);fill-opacity:1;" d="M 186.304688 40.210938 L 157.683594 13.230469 L 171.980469 63.804688 Z M 186.304688 40.210938 "/>
</g>
<g clip-path="url(#clip4)" clip-rule="nonzero">
<path style="fill:none;stroke-width:5;stroke-linecap:round;stroke-linejoin:round;stroke:rgb(13.729858%,12.159729%,12.548828%);stroke-opacity:1;stroke-miterlimit:10;" d="M 1866.271937 1082.553958 L 1579.25195 1353.121319 L 1722.624838 845.94952 Z M 1866.271937 1082.553958 " transform="matrix(0.0997181,0,0,-0.0997181,0.203557,148.161184)"/>
</g>
<g clip-path="url(#clip5)" clip-rule="nonzero">
<path style=" stroke:none;fill-rule:nonzero;fill:rgb(67.216492%,76.040649%,91.134644%);fill-opacity:1;" d="M 157.683594 13.230469 L 186.304688 40.210938 L 139.957031 100.542969 "/>
</g>
<g clip-path="url(#clip6)" clip-rule="nonzero">
<path style="fill:none;stroke-width:5;stroke-linecap:round;stroke-linejoin:round;stroke:rgb(13.729858%,12.159729%,12.548828%);stroke-opacity:1;stroke-miterlimit:10;" d="M 1579.25195 1353.121319 L 1866.271937 1082.553958 " transform="matrix(0.0997181,0,0,-0.0997181,0.203557,148.161184)"/>
</g>
<g clip-path="url(#clip7)" clip-rule="nonzero">
<path style=" stroke:none;fill-rule:nonzero;fill:rgb(83.903503%,79.367065%,19.581604%);fill-opacity:1;" d="M 0.453125 54.167969 L 9.847656 111.480469 L 8.371094 76.707031 Z M 0.453125 54.167969 "/>
</g>
<g clip-path="url(#clip8)" clip-rule="nonzero">
<path style="fill:none;stroke-width:5;stroke-linecap:round;stroke-linejoin:round;stroke:rgb(13.729858%,12.159729%,12.548828%);stroke-opacity:1;stroke-miterlimit:10;" d="M 2.502734 942.589114 L 96.713608 367.844027 L 81.906244 716.561364 Z M 2.502734 942.589114 " transform="matrix(0.0997181,0,0,-0.0997181,0.203557,148.161184)"/>
</g>
<g clip-path="url(#clip9)" clip-rule="nonzero">
<path style=" stroke:none;fill-rule:nonzero;fill:rgb(97.065735%,68.79425%,23.649597%);fill-opacity:1;" d="M 16.710938 23.136719 L 0.453125 54.167969 L 8.371094 76.707031 Z M 16.710938 23.136719 "/>
</g>
<g clip-path="url(#clip10)" clip-rule="nonzero">
<path style="fill:none;stroke-width:5;stroke-linecap:round;stroke-linejoin:round;stroke:rgb(13.729858%,12.159729%,12.548828%);stroke-opacity:1;stroke-miterlimit:10;" d="M 165.540429 1253.778793 L 2.502734 942.589114 L 81.906244 716.561364 Z M 165.540429 1253.778793 " transform="matrix(0.0997181,0,0,-0.0997181,0.203557,148.161184)"/>
</g>
<g clip-path="url(#clip11)" clip-rule="nonzero">
<path style=" stroke:none;fill-rule:nonzero;fill:rgb(67.216492%,76.040649%,91.134644%);fill-opacity:1;" d="M 0.453125 54.167969 L 16.710938 23.136719 L 139.957031 100.542969 "/>
</g>
<g clip-path="url(#clip12)" clip-rule="nonzero">
<path style="fill:none;stroke-width:5;stroke-linecap:round;stroke-linejoin:round;stroke:rgb(13.729858%,12.159729%,12.548828%);stroke-opacity:1;stroke-miterlimit:10;" d="M 2.502734 942.589114 L 165.540429 1253.778793 " transform="matrix(0.0997181,0,0,-0.0997181,0.203557,148.161184)"/>
</g>
<path style=" stroke:none;fill-rule:nonzero;fill:rgb(68.357849%,74.034119%,90.034485%);fill-opacity:1;" d="M 108.046875 147.910156 L 161.980469 129.949219 L 184.777344 96.695312 "/>
<g clip-path="url(#clip13)" clip-rule="nonzero">
<path style="fill:none;stroke-width:5;stroke-linecap:round;stroke-linejoin:round;stroke:rgb(13.729858%,12.159729%,12.548828%);stroke-opacity:1;stroke-miterlimit:10;" d="M 1081.481651 2.517372 L 1622.342162 182.63446 L 1850.955325 516.113531 " transform="matrix(0.0997181,0,0,-0.0997181,0.203557,148.161184)"/>
</g>
<path style=" stroke:none;fill-rule:nonzero;fill:rgb(68.357849%,74.034119%,90.034485%);fill-opacity:1;" d="M 47.476562 140.21875 L 108.046875 147.910156 L 184.777344 96.695312 "/>
<g clip-path="url(#clip14)" clip-rule="nonzero">
<path style="fill:none;stroke-width:5;stroke-linecap:round;stroke-linejoin:round;stroke:rgb(13.729858%,12.159729%,12.548828%);stroke-opacity:1;stroke-miterlimit:10;" d="M 474.066349 79.648852 L 1081.481651 2.517372 " transform="matrix(0.0997181,0,0,-0.0997181,0.203557,148.161184)"/>
</g>
<path style="fill-rule:nonzero;fill:rgb(93.894958%,54.26178%,11.550903%);fill-opacity:1;stroke-width:5;stroke-linecap:round;stroke-linejoin:round;stroke:rgb(13.729858%,12.159729%,12.548828%);stroke-opacity:1;stroke-miterlimit:10;" d="M 1823.377589 745.431806 L 1850.955325 516.113531 L 1622.342162 182.63446 Z M 1823.377589 745.431806 " transform="matrix(0.0997181,0,0,-0.0997181,0.203557,148.161184)"/>
<g clip-path="url(#clip15)" clip-rule="nonzero">
<path style=" stroke:none;fill-rule:nonzero;fill:rgb(81.422424%,65.597534%,8.612061%);fill-opacity:1;" d="M 182.027344 73.828125 L 186.304688 40.210938 L 184.777344 96.695312 Z M 182.027344 73.828125 "/>
</g>
<g clip-path="url(#clip16)" clip-rule="nonzero">
<path style="fill:none;stroke-width:5;stroke-linecap:round;stroke-linejoin:round;stroke:rgb(13.729858%,12.159729%,12.548828%);stroke-opacity:1;stroke-miterlimit:10;" d="M 1823.377589 745.431806 L 1866.271937 1082.553958 L 1850.955325 516.113531 Z M 1823.377589 745.431806 " transform="matrix(0.0997181,0,0,-0.0997181,0.203557,148.161184)"/>
</g>
<g clip-path="url(#clip17)" clip-rule="nonzero">
<path style=" stroke:none;fill-rule:nonzero;fill:rgb(67.216492%,76.040649%,91.134644%);fill-opacity:1;" d="M 186.304688 40.210938 L 182.027344 73.828125 L 139.957031 100.542969 "/>
</g>
<g clip-path="url(#clip18)" clip-rule="nonzero">
<path style="fill:none;stroke-width:5;stroke-linecap:round;stroke-linejoin:round;stroke:rgb(13.729858%,12.159729%,12.548828%);stroke-opacity:1;stroke-miterlimit:10;" d="M 1866.271937 1082.553958 L 1823.377589 745.431806 L 1401.485237 477.528204 " transform="matrix(0.0997181,0,0,-0.0997181,0.203557,148.161184)"/>
</g>
<path style="fill-rule:nonzero;fill:rgb(20.680237%,11.738586%,32.398987%);fill-opacity:1;stroke-width:5;stroke-linecap:round;stroke-linejoin:round;stroke:rgb(13.729858%,12.159729%,12.548828%);stroke-opacity:1;stroke-miterlimit:10;" d="M 208.317258 615.181846 L 474.066349 79.648852 L 96.713608 367.844027 Z M 208.317258 615.181846 " transform="matrix(0.0997181,0,0,-0.0997181,0.203557,148.161184)"/>
<g clip-path="url(#clip19)" clip-rule="nonzero">
<path style=" stroke:none;fill-rule:nonzero;fill:rgb(12.492371%,13.858032%,34.405518%);fill-opacity:1;" d="M 0.453125 54.167969 L 20.976562 86.816406 L 9.847656 111.480469 Z M 0.453125 54.167969 "/>
</g>
<g clip-path="url(#clip20)" clip-rule="nonzero">
<path style="fill:none;stroke-width:5;stroke-linecap:round;stroke-linejoin:round;stroke:rgb(13.729858%,12.159729%,12.548828%);stroke-opacity:1;stroke-miterlimit:10;" d="M 2.502734 942.589114 L 208.317258 615.181846 L 96.713608 367.844027 Z M 2.502734 942.589114 " transform="matrix(0.0997181,0,0,-0.0997181,0.203557,148.161184)"/>
</g>
<g clip-path="url(#clip21)" clip-rule="nonzero">
<path style=" stroke:none;fill-rule:nonzero;fill:rgb(67.216492%,76.040649%,91.134644%);fill-opacity:1;" d="M 20.976562 86.816406 L 0.453125 54.167969 L 139.957031 100.542969 "/>
</g>
<g clip-path="url(#clip22)" clip-rule="nonzero">
<path style="fill:none;stroke-width:5;stroke-linecap:round;stroke-linejoin:round;stroke:rgb(13.729858%,12.159729%,12.548828%);stroke-opacity:1;stroke-miterlimit:10;" d="M 208.317258 615.181846 L 2.502734 942.589114 " transform="matrix(0.0997181,0,0,-0.0997181,0.203557,148.161184)"/>
</g>
<path style=" stroke:none;fill-rule:nonzero;fill:rgb(80.979919%,40.722656%,39.935303%);fill-opacity:1;" d="M 139.957031 100.542969 L 161.980469 129.949219 L 108.046875 147.910156 Z M 139.957031 100.542969 "/>
<g clip-path="url(#clip23)" clip-rule="nonzero">
<path style="fill:none;stroke-width:5;stroke-linecap:round;stroke-linejoin:round;stroke:rgb(13.729858%,12.159729%,12.548828%);stroke-opacity:1;stroke-miterlimit:10;" d="M 1401.485237 477.528204 L 1622.342162 182.63446 L 1081.481651 2.517372 Z M 1401.485237 477.528204 " transform="matrix(0.0997181,0,0,-0.0997181,0.203557,148.161184)"/>
</g>
<path style="fill-rule:nonzero;fill:rgb(90.66925%,57.643127%,45.678711%);fill-opacity:1;stroke-width:5;stroke-linecap:round;stroke-linejoin:round;stroke:rgb(13.729858%,12.159729%,12.548828%);stroke-opacity:1;stroke-miterlimit:10;" d="M 1401.485237 477.528204 L 1823.377589 745.431806 L 1622.342162 182.63446 Z M 1401.485237 477.528204 " transform="matrix(0.0997181,0,0,-0.0997181,0.203557,148.161184)"/>
<path style=" stroke:none;fill-rule:nonzero;fill:rgb(60.098267%,24.995422%,45.21637%);fill-opacity:1;" d="M 75.621094 105.980469 L 108.046875 147.910156 L 47.476562 140.21875 Z M 75.621094 105.980469 "/>
<g clip-path="url(#clip24)" clip-rule="nonzero">
<path style="fill:none;stroke-width:5;stroke-linecap:round;stroke-linejoin:round;stroke:rgb(13.729858%,12.159729%,12.548828%);stroke-opacity:1;stroke-miterlimit:10;" d="M 756.30724 422.999499 L 1081.481651 2.517372 L 474.066349 79.648852 Z M 756.30724 422.999499 " transform="matrix(0.0997181,0,0,-0.0997181,0.203557,148.161184)"/>
</g>
<path style="fill-rule:nonzero;fill:rgb(50.195312%,24.983215%,54.499817%);fill-opacity:1;stroke-width:5;stroke-linecap:round;stroke-linejoin:round;stroke:rgb(13.729858%,12.159729%,12.548828%);stroke-opacity:1;stroke-miterlimit:10;" d="M 208.317258 615.181846 L 756.30724 422.999499 L 474.066349 79.648852 Z M 208.317258 615.181846 " transform="matrix(0.0997181,0,0,-0.0997181,0.203557,148.161184)"/>
<path style=" stroke:none;fill-rule:nonzero;fill:rgb(72.009277%,40.103149%,53.523254%);fill-opacity:1;" d="M 75.621094 105.980469 L 139.957031 100.542969 L 108.046875 147.910156 Z M 75.621094 105.980469 "/>
<g clip-path="url(#clip25)" clip-rule="nonzero">
<path style="fill:none;stroke-width:5;stroke-linecap:round;stroke-linejoin:round;stroke:rgb(13.729858%,12.159729%,12.548828%);stroke-opacity:1;stroke-miterlimit:10;" d="M 756.30724 422.999499 L 1401.485237 477.528204 L 1081.481651 2.517372 Z M 756.30724 422.999499 " transform="matrix(0.0997181,0,0,-0.0997181,0.203557,148.161184)"/>
</g>
<path style="fill-rule:nonzero;fill:rgb(67.216492%,76.040649%,91.134644%);fill-opacity:1;stroke-width:5;stroke-linecap:round;stroke-linejoin:round;stroke:rgb(13.729858%,12.159729%,12.548828%);stroke-opacity:1;stroke-miterlimit:10;" d="M 1401.485237 477.528204 L 756.30724 422.999499 L 208.317258 615.181846 " transform="matrix(0.0997181,0,0,-0.0997181,0.203557,148.161184)"/>
</g>
</svg>
