<?xml version="1.0" encoding="UTF-8"?>
<svg xmlns="http://www.w3.org/2000/svg" xmlns:xlink="http://www.w3.org/1999/xlink" width="195.31pt" height="199.81pt" viewBox="0 0 195.31 199.81" version="1.2">
<g id="surface1">
<path style=" stroke:none;fill-rule:nonzero;fill:rgb(66.40625%,47.093201%,61.326599%);fill-opacity:1;" d="M 108.484375 91.152344 L 87.027344 51.914062 L 63.589844 86.324219 "/>
<path style="fill:none;stroke-width:5;stroke-linecap:round;stroke-linejoin:round;stroke:rgb(0%,0%,0%);stroke-opacity:1;stroke-miterlimit:10;" d="M 1088.676335 1085.93578 L 873.347979 1479.704821 L 638.144968 1134.3876 Z M 1088.676335 1085.93578 " transform="matrix(0.099648,0,0,-0.099648,0,199.363628)"/>
<path style=" stroke:none;fill-rule:nonzero;fill:rgb(68.359375%,60.351562%,76.171875%);fill-opacity:1;" d="M 79.953125 126.90625 L 108.484375 91.152344 L 63.589844 86.324219 "/>
<path style="fill:none;stroke-width:5;stroke-linecap:round;stroke-linejoin:round;stroke:rgb(0%,0%,0%);stroke-opacity:1;stroke-miterlimit:10;" d="M 802.35587 727.133588 L 1088.676335 1085.93578 L 638.144968 1134.3876 Z M 802.35587 727.133588 " transform="matrix(0.099648,0,0,-0.099648,0,199.363628)"/>
<path style=" stroke:none;fill-rule:nonzero;fill:rgb(81.639099%,76.367188%,80.076599%);fill-opacity:1;" d="M 39.210938 110.652344 L 79.953125 126.90625 L 63.589844 86.324219 "/>
<path style="fill:none;stroke-width:5;stroke-linecap:round;stroke-linejoin:round;stroke:rgb(0%,0%,0%);stroke-opacity:1;stroke-miterlimit:10;" d="M 393.494637 890.246875 L 802.35587 727.133588 L 638.144968 1134.3876 Z M 393.494637 890.246875 " transform="matrix(0.099648,0,0,-0.099648,0,199.363628)"/>
<path style=" stroke:none;fill-rule:nonzero;fill:rgb(92.576599%,72.264099%,60.9375%);fill-opacity:1;" d="M 43.449219 63.09375 L 39.210938 110.652344 L 63.589844 86.324219 "/>
<path style="fill:none;stroke-width:5;stroke-linecap:round;stroke-linejoin:round;stroke:rgb(0%,0%,0%);stroke-opacity:1;stroke-miterlimit:10;" d="M 436.027181 1367.512984 L 393.494637 890.246875 L 638.144968 1134.3876 Z M 436.027181 1367.512984 " transform="matrix(0.099648,0,0,-0.099648,0,199.363628)"/>
<path style=" stroke:none;fill-rule:nonzero;fill:rgb(78.90625%,49.19281%,48.388672%);fill-opacity:1;" d="M 87.027344 51.914062 L 43.449219 63.09375 L 63.589844 86.324219 "/>
<path style="fill:none;stroke-width:5;stroke-linecap:round;stroke-linejoin:round;stroke:rgb(0%,0%,0%);stroke-opacity:1;stroke-miterlimit:10;" d="M 873.347979 1479.704821 L 436.027181 1367.512984 L 638.144968 1134.3876 Z M 873.347979 1479.704821 " transform="matrix(0.099648,0,0,-0.099648,0,199.363628)"/>
<path style=" stroke:none;fill-rule:nonzero;fill:rgb(78.125%,61.71875%,67.96875%);fill-opacity:1;" d="M 105.742188 119.253906 L 108.484375 91.152344 L 79.953125 126.90625 "/>
<path style="fill:none;stroke-width:5;stroke-linecap:round;stroke-linejoin:round;stroke:rgb(0%,0%,0%);stroke-opacity:1;stroke-miterlimit:10;" d="M 1061.157583 803.927371 L 1088.676335 1085.93578 L 802.35587 727.133588 Z M 1061.157583 803.927371 " transform="matrix(0.099648,0,0,-0.099648,0,199.363628)"/>
<path style=" stroke:none;fill-rule:nonzero;fill:rgb(53.709412%,43.797302%,68.943787%);fill-opacity:1;" d="M 105.742188 119.253906 L 125.941406 132.238281 L 108.484375 91.152344 "/>
<path style="fill:none;stroke-width:5;stroke-linecap:round;stroke-linejoin:round;stroke:rgb(0%,0%,0%);stroke-opacity:1;stroke-miterlimit:10;" d="M 1061.157583 803.927371 L 1263.863377 673.624903 L 1088.676335 1085.93578 Z M 1061.157583 803.927371 " transform="matrix(0.099648,0,0,-0.099648,0,199.363628)"/>
<path style=" stroke:none;fill-rule:nonzero;fill:rgb(66.992188%,73.4375%,89.84375%);fill-opacity:1;" d="M 105.742188 119.253906 L 79.953125 126.90625 L 125.941406 132.238281 "/>
<path style="fill:none;stroke-width:5;stroke-linecap:round;stroke-linejoin:round;stroke:rgb(0%,0%,0%);stroke-opacity:1;stroke-miterlimit:10;" d="M 1061.157583 803.927371 L 802.35587 727.133588 L 1263.863377 673.624903 Z M 1061.157583 803.927371 " transform="matrix(0.099648,0,0,-0.099648,0,199.363628)"/>
<path style=" stroke:none;fill-rule:nonzero;fill:rgb(78.125%,61.71875%,67.96875%);fill-opacity:1;" d="M 111.238281 62.855469 L 87.027344 51.914062 L 108.484375 91.152344 "/>
<path style="fill:none;stroke-width:5;stroke-linecap:round;stroke-linejoin:round;stroke:rgb(0%,0%,0%);stroke-opacity:1;stroke-miterlimit:10;" d="M 1116.312689 1369.904215 L 873.347979 1479.704821 L 1088.676335 1085.93578 Z M 1116.312689 1369.904215 " transform="matrix(0.099648,0,0,-0.099648,0,199.363628)"/>
<path style=" stroke:none;fill-rule:nonzero;fill:rgb(68.359375%,60.351562%,76.171875%);fill-opacity:1;" d="M 108.484375 91.152344 L 125.941406 132.238281 L 154.25 96.074219 "/>
<path style="fill:none;stroke-width:5;stroke-linecap:round;stroke-linejoin:round;stroke:rgb(0%,0%,0%);stroke-opacity:1;stroke-miterlimit:10;" d="M 1088.676335 1085.93578 L 1263.863377 673.624903 L 1547.949414 1036.543148 Z M 1088.676335 1085.93578 " transform="matrix(0.099648,0,0,-0.099648,0,199.363628)"/>
<path style=" stroke:none;fill-rule:nonzero;fill:rgb(66.40625%,47.093201%,61.326599%);fill-opacity:1;" d="M 133.523438 56.546875 L 108.484375 91.152344 L 154.25 96.074219 "/>
<path style="fill:none;stroke-width:5;stroke-linecap:round;stroke-linejoin:round;stroke:rgb(0%,0%,0%);stroke-opacity:1;stroke-miterlimit:10;" d="M 1339.951551 1433.213025 L 1088.676335 1085.93578 L 1547.949414 1036.543148 Z M 1339.951551 1433.213025 " transform="matrix(0.099648,0,0,-0.099648,0,199.363628)"/>
<path style=" stroke:none;fill-rule:nonzero;fill:rgb(53.709412%,43.797302%,68.943787%);fill-opacity:1;" d="M 111.238281 62.855469 L 108.484375 91.152344 L 133.523438 56.546875 "/>
<path style="fill:none;stroke-width:5;stroke-linecap:round;stroke-linejoin:round;stroke:rgb(0%,0%,0%);stroke-opacity:1;stroke-miterlimit:10;" d="M 1116.312689 1369.904215 L 1088.676335 1085.93578 L 1339.951551 1433.213025 Z M 1116.312689 1369.904215 " transform="matrix(0.099648,0,0,-0.099648,0,199.363628)"/>
<path style=" stroke:none;fill-rule:nonzero;fill:rgb(58.006287%,22.705078%,33.396912%);fill-opacity:1;" d="M 111.238281 62.855469 L 133.523438 56.546875 L 87.027344 51.914062 "/>
<path style="fill:none;stroke-width:5;stroke-linecap:round;stroke-linejoin:round;stroke:rgb(0%,0%,0%);stroke-opacity:1;stroke-miterlimit:10;" d="M 1116.312689 1369.904215 L 1339.951551 1433.213025 L 873.347979 1479.704821 Z M 1116.312689 1369.904215 " transform="matrix(0.099648,0,0,-0.099648,0,199.363628)"/>
<path style=" stroke:none;fill-rule:nonzero;fill:rgb(6.298828%,8.105469%,56.639099%);fill-opacity:1;" d="M 163.933594 124.796875 L 169.042969 76.03125 L 154.25 96.074219 "/>
<path style="fill:none;stroke-width:5;stroke-linecap:round;stroke-linejoin:round;stroke:rgb(0%,0%,0%);stroke-opacity:1;stroke-miterlimit:10;" d="M 1645.127458 748.301859 L 1696.401714 1237.680923 L 1547.949414 1036.543148 Z M 1645.127458 748.301859 " transform="matrix(0.099648,0,0,-0.099648,0,199.363628)"/>
<path style=" stroke:none;fill-rule:nonzero;fill:rgb(47.801208%,53.709412%,83.984375%);fill-opacity:1;" d="M 125.941406 132.238281 L 163.933594 124.796875 L 154.25 96.074219 "/>
<path style="fill:none;stroke-width:5;stroke-linecap:round;stroke-linejoin:round;stroke:rgb(0%,0%,0%);stroke-opacity:1;stroke-miterlimit:10;" d="M 1263.863377 673.624903 L 1645.127458 748.301859 L 1547.949414 1036.543148 Z M 1263.863377 673.624903 " transform="matrix(0.099648,0,0,-0.099648,0,199.363628)"/>
<path style=" stroke:none;fill-rule:nonzero;fill:rgb(39.109802%,16.50238%,44.604492%);fill-opacity:1;" d="M 169.042969 76.03125 L 133.523438 56.546875 L 154.25 96.074219 "/>
<path style="fill:none;stroke-width:5;stroke-linecap:round;stroke-linejoin:round;stroke:rgb(0%,0%,0%);stroke-opacity:1;stroke-miterlimit:10;" d="M 1696.401714 1237.680923 L 1339.951551 1433.213025 L 1547.949414 1036.543148 Z M 1696.401714 1237.680923 " transform="matrix(0.099648,0,0,-0.099648,0,199.363628)"/>
<path style=" stroke:none;fill-rule:nonzero;fill:rgb(78.125%,61.71875%,67.96875%);fill-opacity:1;" d="M 53.414062 134.78125 L 79.953125 126.90625 L 39.210938 110.652344 "/>
<path style="fill:none;stroke-width:5;stroke-linecap:round;stroke-linejoin:round;stroke:rgb(0%,0%,0%);stroke-opacity:1;stroke-miterlimit:10;" d="M 536.027661 648.105376 L 802.35587 727.133588 L 393.494637 890.246875 Z M 536.027661 648.105376 " transform="matrix(0.099648,0,0,-0.099648,0,199.363628)"/>
<path style=" stroke:none;fill-rule:nonzero;fill:rgb(81.639099%,76.367188%,80.076599%);fill-opacity:1;" d="M 79.953125 126.90625 L 55.867188 153.78125 L 97.007812 169.199219 "/>
<path style="fill:none;stroke-width:5;stroke-linecap:round;stroke-linejoin:round;stroke:rgb(0%,0%,0%);stroke-opacity:1;stroke-miterlimit:10;" d="M 802.35587 727.133588 L 560.645576 457.434135 L 973.505261 302.709755 Z M 802.35587 727.133588 " transform="matrix(0.099648,0,0,-0.099648,0,199.363628)"/>
<path style=" stroke:none;fill-rule:nonzero;fill:rgb(68.359375%,60.351562%,76.171875%);fill-opacity:1;" d="M 125.941406 132.238281 L 79.953125 126.90625 L 97.007812 169.199219 "/>
<path style="fill:none;stroke-width:5;stroke-linecap:round;stroke-linejoin:round;stroke:rgb(0%,0%,0%);stroke-opacity:1;stroke-miterlimit:10;" d="M 1263.863377 673.624903 L 802.35587 727.133588 L 973.505261 302.709755 Z M 1263.863377 673.624903 " transform="matrix(0.099648,0,0,-0.099648,0,199.363628)"/>
<path style=" stroke:none;fill-rule:nonzero;fill:rgb(66.992188%,73.4375%,89.84375%);fill-opacity:1;" d="M 53.414062 134.78125 L 55.867188 153.78125 L 79.953125 126.90625 "/>
<path style="fill:none;stroke-width:5;stroke-linecap:round;stroke-linejoin:round;stroke:rgb(0%,0%,0%);stroke-opacity:1;stroke-miterlimit:10;" d="M 536.027661 648.105376 L 560.645576 457.434135 L 802.35587 727.133588 Z M 536.027661 648.105376 " transform="matrix(0.099648,0,0,-0.099648,0,199.363628)"/>
<path style=" stroke:none;fill-rule:nonzero;fill:rgb(66.40625%,47.093201%,61.326599%);fill-opacity:1;" d="M 87.027344 51.914062 L 133.523438 56.546875 L 111.925781 15.363281 "/>
<path style="fill:none;stroke-width:5;stroke-linecap:round;stroke-linejoin:round;stroke:rgb(0%,0%,0%);stroke-opacity:1;stroke-miterlimit:10;" d="M 873.347979 1479.704821 L 1339.951551 1433.213025 L 1123.211977 1846.503916 Z M 873.347979 1479.704821 " transform="matrix(0.099648,0,0,-0.099648,0,199.363628)"/>
<path style=" stroke:none;fill-rule:nonzero;fill:rgb(78.90625%,49.19281%,48.388672%);fill-opacity:1;" d="M 67.578125 25.988281 L 87.027344 51.914062 L 111.925781 15.363281 "/>
<path style="fill:none;stroke-width:5;stroke-linecap:round;stroke-linejoin:round;stroke:rgb(0%,0%,0%);stroke-opacity:1;stroke-miterlimit:10;" d="M 678.168681 1739.878551 L 873.347979 1479.704821 L 1123.211977 1846.503916 Z M 678.168681 1739.878551 " transform="matrix(0.099648,0,0,-0.099648,0,199.363628)"/>
<path style=" stroke:none;fill-rule:nonzero;fill:rgb(58.006287%,22.705078%,33.396912%);fill-opacity:1;" d="M 61.992188 40.601562 L 87.027344 51.914062 L 67.578125 25.988281 "/>
<path style="fill:none;stroke-width:5;stroke-linecap:round;stroke-linejoin:round;stroke:rgb(0%,0%,0%);stroke-opacity:1;stroke-miterlimit:10;" d="M 622.111963 1593.229474 L 873.347979 1479.704821 L 678.168681 1739.878551 Z M 622.111963 1593.229474 " transform="matrix(0.099648,0,0,-0.099648,0,199.363628)"/>
<path style=" stroke:none;fill-rule:nonzero;fill:rgb(78.125%,61.71875%,67.96875%);fill-opacity:1;" d="M 61.992188 40.601562 L 43.449219 63.09375 L 87.027344 51.914062 "/>
<path style="fill:none;stroke-width:5;stroke-linecap:round;stroke-linejoin:round;stroke:rgb(0%,0%,0%);stroke-opacity:1;stroke-miterlimit:10;" d="M 622.111963 1593.229474 L 436.027181 1367.512984 L 873.347979 1479.704821 Z M 622.111963 1593.229474 " transform="matrix(0.099648,0,0,-0.099648,0,199.363628)"/>
<path style=" stroke:none;fill-rule:nonzero;fill:rgb(53.709412%,43.797302%,68.943787%);fill-opacity:1;" d="M 147.15625 145.867188 L 163.933594 124.796875 L 125.941406 132.238281 "/>
<path style="fill:none;stroke-width:5;stroke-linecap:round;stroke-linejoin:round;stroke:rgb(0%,0%,0%);stroke-opacity:1;stroke-miterlimit:10;" d="M 1476.761303 536.854352 L 1645.127458 748.301859 L 1263.863377 673.624903 Z M 1476.761303 536.854352 " transform="matrix(0.099648,0,0,-0.099648,0,199.363628)"/>
<path style=" stroke:none;fill-rule:nonzero;fill:rgb(47.801208%,53.709412%,83.984375%);fill-opacity:1;" d="M 134.121094 163.355469 L 125.941406 132.238281 L 97.007812 169.199219 "/>
<path style="fill:none;stroke-width:5;stroke-linecap:round;stroke-linejoin:round;stroke:rgb(0%,0%,0%);stroke-opacity:1;stroke-miterlimit:10;" d="M 1345.949228 361.353706 L 1263.863377 673.624903 L 973.505261 302.709755 Z M 1345.949228 361.353706 " transform="matrix(0.099648,0,0,-0.099648,0,199.363628)"/>
<path style=" stroke:none;fill-rule:nonzero;fill:rgb(66.992188%,73.4375%,89.84375%);fill-opacity:1;" d="M 147.15625 145.867188 L 125.941406 132.238281 L 134.121094 163.355469 "/>
<path style="fill:none;stroke-width:5;stroke-linecap:round;stroke-linejoin:round;stroke:rgb(0%,0%,0%);stroke-opacity:1;stroke-miterlimit:10;" d="M 1476.761303 536.854352 L 1263.863377 673.624903 L 1345.949228 361.353706 Z M 1476.761303 536.854352 " transform="matrix(0.099648,0,0,-0.099648,0,199.363628)"/>
<path style=" stroke:none;fill-rule:nonzero;fill:rgb(94.726562%,95.701599%,70.701599%);fill-opacity:1;" d="M 53.414062 134.78125 L 39.210938 110.652344 L 55.867188 153.78125 "/>
<path style="fill:none;stroke-width:5;stroke-linecap:round;stroke-linejoin:round;stroke:rgb(0%,0%,0%);stroke-opacity:1;stroke-miterlimit:10;" d="M 536.027661 648.105376 L 393.494637 890.246875 L 560.645576 457.434135 Z M 536.027661 648.105376 " transform="matrix(0.099648,0,0,-0.099648,0,199.363628)"/>
<path style=" stroke:none;fill-rule:nonzero;fill:rgb(39.109802%,16.50238%,44.604492%);fill-opacity:1;" d="M 133.523438 56.546875 L 147.304688 33.523438 L 111.925781 15.363281 "/>
<path style="fill:none;stroke-width:5;stroke-linecap:round;stroke-linejoin:round;stroke:rgb(0%,0%,0%);stroke-opacity:1;stroke-miterlimit:10;" d="M 1339.951551 1433.213025 L 1478.250922 1664.260783 L 1123.211977 1846.503916 Z M 1339.951551 1433.213025 " transform="matrix(0.099648,0,0,-0.099648,0,199.363628)"/>
<path style=" stroke:none;fill-rule:nonzero;fill:rgb(58.006287%,22.705078%,33.396912%);fill-opacity:1;" d="M 157.039062 49.890625 L 147.304688 33.523438 L 133.523438 56.546875 "/>
<path style="fill:none;stroke-width:5;stroke-linecap:round;stroke-linejoin:round;stroke:rgb(0%,0%,0%);stroke-opacity:1;stroke-miterlimit:10;" d="M 1575.938572 1500.01068 L 1478.250922 1664.260783 L 1339.951551 1433.213025 Z M 1575.938572 1500.01068 " transform="matrix(0.099648,0,0,-0.099648,0,199.363628)"/>
<path style=" stroke:none;fill-rule:nonzero;fill:rgb(53.709412%,43.797302%,68.943787%);fill-opacity:1;" d="M 157.039062 49.890625 L 133.523438 56.546875 L 169.042969 76.03125 "/>
<path style="fill:none;stroke-width:5;stroke-linecap:round;stroke-linejoin:round;stroke:rgb(0%,0%,0%);stroke-opacity:1;stroke-miterlimit:10;" d="M 1575.938572 1500.01068 L 1339.951551 1433.213025 L 1696.401714 1237.680923 Z M 1575.938572 1500.01068 " transform="matrix(0.099648,0,0,-0.099648,0,199.363628)"/>
<path style=" stroke:none;fill-rule:nonzero;fill:rgb(69.334412%,96.484375%,93.943787%);fill-opacity:1;" d="M 55.867188 153.78125 L 89.164062 178.03125 L 97.007812 169.199219 "/>
<path style="fill:none;stroke-width:5;stroke-linecap:round;stroke-linejoin:round;stroke:rgb(0%,0%,0%);stroke-opacity:1;stroke-miterlimit:10;" d="M 560.645576 457.434135 L 894.790653 214.077421 L 973.505261 302.709755 Z M 560.645576 457.434135 " transform="matrix(0.099648,0,0,-0.099648,0,199.363628)"/>
<path style=" stroke:none;fill-rule:nonzero;fill:rgb(13.500977%,61.326599%,91.992188%);fill-opacity:1;" d="M 89.164062 178.03125 L 134.121094 163.355469 L 97.007812 169.199219 "/>
<path style="fill:none;stroke-width:5;stroke-linecap:round;stroke-linejoin:round;stroke:rgb(0%,0%,0%);stroke-opacity:1;stroke-miterlimit:10;" d="M 894.790653 214.077421 L 1345.949228 361.353706 L 973.505261 302.709755 Z M 894.790653 214.077421 " transform="matrix(0.099648,0,0,-0.099648,0,199.363628)"/>
<path style=" stroke:none;fill-rule:nonzero;fill:rgb(84.568787%,38.792419%,0%);fill-opacity:1;" d="M 61.992188 40.601562 L 67.578125 25.988281 L 43.449219 63.09375 "/>
<path style="fill:none;stroke-width:5;stroke-linecap:round;stroke-linejoin:round;stroke:rgb(0%,0%,0%);stroke-opacity:1;stroke-miterlimit:10;" d="M 622.111963 1593.229474 L 678.168681 1739.878551 L 436.027181 1367.512984 Z M 622.111963 1593.229474 " transform="matrix(0.099648,0,0,-0.099648,0,199.363628)"/>
<path style=" stroke:none;fill-rule:nonzero;fill:rgb(92.576599%,72.264099%,60.9375%);fill-opacity:1;" d="M 39.210938 110.652344 L 16.625 87.628906 L 12.339844 137.476562 "/>
<path style="fill:none;stroke-width:5;stroke-linecap:round;stroke-linejoin:round;stroke:rgb(0%,0%,0%);stroke-opacity:1;stroke-miterlimit:10;" d="M 393.494637 890.246875 L 166.837336 1121.294633 L 123.834385 621.05703 Z M 393.494637 890.246875 " transform="matrix(0.099648,0,0,-0.099648,0,199.363628)"/>
<path style=" stroke:none;fill-rule:nonzero;fill:rgb(81.639099%,76.367188%,80.076599%);fill-opacity:1;" d="M 55.867188 153.78125 L 39.210938 110.652344 L 12.339844 137.476562 "/>
<path style="fill:none;stroke-width:5;stroke-linecap:round;stroke-linejoin:round;stroke:rgb(0%,0%,0%);stroke-opacity:1;stroke-miterlimit:10;" d="M 560.645576 457.434135 L 393.494637 890.246875 L 123.834385 621.05703 Z M 560.645576 457.434135 " transform="matrix(0.099648,0,0,-0.099648,0,199.363628)"/>
<path style=" stroke:none;fill-rule:nonzero;fill:rgb(94.726562%,95.701599%,70.701599%);fill-opacity:1;" d="M 24.644531 85.898438 L 16.625 87.628906 L 39.210938 110.652344 "/>
<path style="fill:none;stroke-width:5;stroke-linecap:round;stroke-linejoin:round;stroke:rgb(0%,0%,0%);stroke-opacity:1;stroke-miterlimit:10;" d="M 247.315966 1138.660455 L 166.837336 1121.294633 L 393.494637 890.246875 Z M 247.315966 1138.660455 " transform="matrix(0.099648,0,0,-0.099648,0,199.363628)"/>
<path style=" stroke:none;fill-rule:nonzero;fill:rgb(78.125%,61.71875%,67.96875%);fill-opacity:1;" d="M 24.644531 85.898438 L 39.210938 110.652344 L 43.449219 63.09375 "/>
<path style="fill:none;stroke-width:5;stroke-linecap:round;stroke-linejoin:round;stroke:rgb(0%,0%,0%);stroke-opacity:1;stroke-miterlimit:10;" d="M 247.315966 1138.660455 L 393.494637 890.246875 L 436.027181 1367.512984 Z M 247.315966 1138.660455 " transform="matrix(0.099648,0,0,-0.099648,0,199.363628)"/>
<path style=" stroke:none;fill-rule:nonzero;fill:rgb(78.90625%,49.19281%,48.388672%);fill-opacity:1;" d="M 43.449219 63.09375 L 67.578125 25.988281 L 20.964844 37.160156 "/>
<path style="fill:none;stroke-width:5;stroke-linecap:round;stroke-linejoin:round;stroke:rgb(0%,0%,0%);stroke-opacity:1;stroke-miterlimit:10;" d="M 436.027181 1367.512984 L 678.168681 1739.878551 L 210.389093 1627.765116 Z M 436.027181 1367.512984 " transform="matrix(0.099648,0,0,-0.099648,0,199.363628)"/>
<path style=" stroke:none;fill-rule:nonzero;fill:rgb(92.576599%,72.264099%,60.9375%);fill-opacity:1;" d="M 16.625 87.628906 L 43.449219 63.09375 L 20.964844 37.160156 "/>
<path style="fill:none;stroke-width:5;stroke-linecap:round;stroke-linejoin:round;stroke:rgb(0%,0%,0%);stroke-opacity:1;stroke-miterlimit:10;" d="M 166.837336 1121.294633 L 436.027181 1367.512984 L 210.389093 1627.765116 Z M 166.837336 1121.294633 " transform="matrix(0.099648,0,0,-0.099648,0,199.363628)"/>
<path style=" stroke:none;fill-rule:nonzero;fill:rgb(84.568787%,38.792419%,0%);fill-opacity:1;" d="M 24.644531 85.898438 L 43.449219 63.09375 L 16.625 87.628906 "/>
<path style="fill:none;stroke-width:5;stroke-linecap:round;stroke-linejoin:round;stroke:rgb(0%,0%,0%);stroke-opacity:1;stroke-miterlimit:10;" d="M 247.315966 1138.660455 L 436.027181 1367.512984 L 166.837336 1121.294633 Z M 247.315966 1138.660455 " transform="matrix(0.099648,0,0,-0.099648,0,199.363628)"/>
<path style=" stroke:none;fill-rule:nonzero;fill:rgb(0%,0%,48.706055%);fill-opacity:1;" d="M 147.15625 145.867188 L 134.121094 163.355469 L 163.933594 124.796875 "/>
<path style="fill:none;stroke-width:5;stroke-linecap:round;stroke-linejoin:round;stroke:rgb(0%,0%,0%);stroke-opacity:1;stroke-miterlimit:10;" d="M 1476.761303 536.854352 L 1345.949228 361.353706 L 1645.127458 748.301859 Z M 1476.761303 536.854352 " transform="matrix(0.099648,0,0,-0.099648,0,199.363628)"/>
<path style=" stroke:none;fill-rule:nonzero;fill:rgb(37.109375%,0%,0%);fill-opacity:1;" d="M 105.019531 13.050781 L 67.578125 25.988281 L 111.925781 15.363281 "/>
<path style="fill:none;stroke-width:5;stroke-linecap:round;stroke-linejoin:round;stroke:rgb(0%,0%,0%);stroke-opacity:1;stroke-miterlimit:10;" d="M 1053.90549 1869.710613 L 678.168681 1739.878551 L 1123.211977 1846.503916 Z M 1053.90549 1869.710613 " transform="matrix(0.099648,0,0,-0.099648,0,199.363628)"/>
<path style=" stroke:none;fill-rule:nonzero;fill:rgb(36.206055%,81.25%,68.164062%);fill-opacity:1;" d="M 147.304688 33.523438 L 105.019531 13.050781 L 111.925781 15.363281 "/>
<path style="fill:none;stroke-width:5;stroke-linecap:round;stroke-linejoin:round;stroke:rgb(0%,0%,0%);stroke-opacity:1;stroke-miterlimit:10;" d="M 1478.250922 1664.260783 L 1053.90549 1869.710613 L 1123.211977 1846.503916 Z M 1478.250922 1664.260783 " transform="matrix(0.099648,0,0,-0.099648,0,199.363628)"/>
<path style=" stroke:none;fill-rule:nonzero;fill:rgb(77.929688%,88.28125%,46.09375%);fill-opacity:1;" d="M 157.039062 49.890625 L 169.042969 76.03125 L 147.304688 33.523438 "/>
<path style="fill:none;stroke-width:5;stroke-linecap:round;stroke-linejoin:round;stroke:rgb(0%,0%,0%);stroke-opacity:1;stroke-miterlimit:10;" d="M 1575.938572 1500.01068 L 1696.401714 1237.680923 L 1478.250922 1664.260783 Z M 1575.938572 1500.01068 " transform="matrix(0.099648,0,0,-0.099648,0,199.363628)"/>
<path style=" stroke:none;fill-rule:nonzero;fill:rgb(69.334412%,96.484375%,93.943787%);fill-opacity:1;" d="M 44.726562 161.738281 L 55.867188 153.78125 L 12.339844 137.476562 "/>
<path style="fill:none;stroke-width:5;stroke-linecap:round;stroke-linejoin:round;stroke:rgb(0%,0%,0%);stroke-opacity:1;stroke-miterlimit:10;" d="M 448.845745 377.582713 L 560.645576 457.434135 L 123.834385 621.05703 Z M 448.845745 377.582713 " transform="matrix(0.099648,0,0,-0.099648,0,199.363628)"/>
<path style=" stroke:none;fill-rule:nonzero;fill:rgb(94.726562%,95.701599%,70.701599%);fill-opacity:1;" d="M 58.496094 174.148438 L 55.867188 153.78125 L 44.726562 161.738281 "/>
<path style="fill:none;stroke-width:5;stroke-linecap:round;stroke-linejoin:round;stroke:rgb(0%,0%,0%);stroke-opacity:1;stroke-miterlimit:10;" d="M 587.027514 253.042719 L 560.645576 457.434135 L 448.845745 377.582713 Z M 587.027514 253.042719 " transform="matrix(0.099648,0,0,-0.099648,0,199.363628)"/>
<path style=" stroke:none;fill-rule:nonzero;fill:rgb(66.992188%,73.4375%,89.84375%);fill-opacity:1;" d="M 58.496094 174.148438 L 89.164062 178.03125 L 55.867188 153.78125 "/>
<path style="fill:none;stroke-width:5;stroke-linecap:round;stroke-linejoin:round;stroke:rgb(0%,0%,0%);stroke-opacity:1;stroke-miterlimit:10;" d="M 587.027514 253.042719 L 894.790653 214.077421 L 560.645576 457.434135 Z M 587.027514 253.042719 " transform="matrix(0.099648,0,0,-0.099648,0,199.363628)"/>
<path style=" stroke:none;fill-rule:nonzero;fill:rgb(53.709412%,43.797302%,68.943787%);fill-opacity:1;" d="M 181.375 102.882812 L 169.042969 76.03125 L 163.933594 124.796875 "/>
<path style="fill:none;stroke-width:5;stroke-linecap:round;stroke-linejoin:round;stroke:rgb(0%,0%,0%);stroke-opacity:1;stroke-miterlimit:10;" d="M 1820.157698 968.216673 L 1696.401714 1237.680923 L 1645.127458 748.301859 Z M 1820.157698 968.216673 " transform="matrix(0.099648,0,0,-0.099648,0,199.363628)"/>
<path style=" stroke:none;fill-rule:nonzero;fill:rgb(47.801208%,53.709412%,83.984375%);fill-opacity:1;" d="M 163.933594 124.796875 L 134.121094 163.355469 L 174.773438 156.953125 "/>
<path style="fill:none;stroke-width:5;stroke-linecap:round;stroke-linejoin:round;stroke:rgb(0%,0%,0%);stroke-opacity:1;stroke-miterlimit:10;" d="M 1645.127458 748.301859 L 1345.949228 361.353706 L 1753.90885 425.603328 Z M 1645.127458 748.301859 " transform="matrix(0.099648,0,0,-0.099648,0,199.363628)"/>
<path style=" stroke:none;fill-rule:nonzero;fill:rgb(6.298828%,8.105469%,56.639099%);fill-opacity:1;" d="M 180.261719 105.457031 L 163.933594 124.796875 L 174.773438 156.953125 "/>
<path style="fill:none;stroke-width:5;stroke-linecap:round;stroke-linejoin:round;stroke:rgb(0%,0%,0%);stroke-opacity:1;stroke-miterlimit:10;" d="M 1808.985555 942.383543 L 1645.127458 748.301859 L 1753.90885 425.603328 Z M 1808.985555 942.383543 " transform="matrix(0.099648,0,0,-0.099648,0,199.363628)"/>
<path style=" stroke:none;fill-rule:nonzero;fill:rgb(0%,0%,48.706055%);fill-opacity:1;" d="M 181.375 102.882812 L 163.933594 124.796875 L 180.261719 105.457031 "/>
<path style="fill:none;stroke-width:5;stroke-linecap:round;stroke-linejoin:round;stroke:rgb(0%,0%,0%);stroke-opacity:1;stroke-miterlimit:10;" d="M 1820.157698 968.216673 L 1645.127458 748.301859 L 1808.985555 942.383543 Z M 1820.157698 968.216673 " transform="matrix(0.099648,0,0,-0.099648,0,199.363628)"/>
<path style=" stroke:none;fill-rule:nonzero;fill:rgb(77.929688%,88.28125%,46.09375%);fill-opacity:1;" d="M 181.375 102.882812 L 180.261719 105.457031 L 169.042969 76.03125 "/>
<path style="fill:none;stroke-width:5;stroke-linecap:round;stroke-linejoin:round;stroke:rgb(0%,0%,0%);stroke-opacity:1;stroke-miterlimit:10;" d="M 1820.157698 968.216673 L 1808.985555 942.383543 L 1696.401714 1237.680923 Z M 1820.157698 968.216673 " transform="matrix(0.099648,0,0,-0.099648,0,199.363628)"/>
<path style=" stroke:none;fill-rule:nonzero;fill:rgb(6.298828%,8.105469%,56.639099%);fill-opacity:1;" d="M 169.042969 76.03125 L 180.261719 105.457031 L 185.820312 53.292969 "/>
<path style="fill:none;stroke-width:5;stroke-linecap:round;stroke-linejoin:round;stroke:rgb(0%,0%,0%);stroke-opacity:1;stroke-miterlimit:10;" d="M 1696.401714 1237.680923 L 1808.985555 942.383543 L 1864.767869 1465.867043 Z M 1696.401714 1237.680923 " transform="matrix(0.099648,0,0,-0.099648,0,199.363628)"/>
<path style=" stroke:none;fill-rule:nonzero;fill:rgb(39.109802%,16.50238%,44.604492%);fill-opacity:1;" d="M 147.304688 33.523438 L 169.042969 76.03125 L 185.820312 53.292969 "/>
<path style="fill:none;stroke-width:5;stroke-linecap:round;stroke-linejoin:round;stroke:rgb(0%,0%,0%);stroke-opacity:1;stroke-miterlimit:10;" d="M 1478.250922 1664.260783 L 1696.401714 1237.680923 L 1864.767869 1465.867043 Z M 1478.250922 1664.260783 " transform="matrix(0.099648,0,0,-0.099648,0,199.363628)"/>
<path style=" stroke:none;fill-rule:nonzero;fill:rgb(37.109375%,0%,0%);fill-opacity:1;" d="M 67.578125 25.988281 L 57.128906 24.417969 L 20.964844 37.160156 "/>
<path style="fill:none;stroke-width:5;stroke-linecap:round;stroke-linejoin:round;stroke:rgb(0%,0%,0%);stroke-opacity:1;stroke-miterlimit:10;" d="M 678.168681 1739.878551 L 573.307338 1755.637152 L 210.389093 1627.765116 Z M 678.168681 1739.878551 " transform="matrix(0.099648,0,0,-0.099648,0,199.363628)"/>
<path style=" stroke:none;fill-rule:nonzero;fill:rgb(84.568787%,38.792419%,0%);fill-opacity:1;" d="M 73.609375 10.191406 L 57.128906 24.417969 L 67.578125 25.988281 "/>
<path style="fill:none;stroke-width:5;stroke-linecap:round;stroke-linejoin:round;stroke:rgb(0%,0%,0%);stroke-opacity:1;stroke-miterlimit:10;" d="M 738.694255 1898.40538 L 573.307338 1755.637152 L 678.168681 1739.878551 Z M 738.694255 1898.40538 " transform="matrix(0.099648,0,0,-0.099648,0,199.363628)"/>
<path style=" stroke:none;fill-rule:nonzero;fill:rgb(58.006287%,22.705078%,33.396912%);fill-opacity:1;" d="M 73.609375 10.191406 L 67.578125 25.988281 L 105.019531 13.050781 "/>
<path style="fill:none;stroke-width:5;stroke-linecap:round;stroke-linejoin:round;stroke:rgb(0%,0%,0%);stroke-opacity:1;stroke-miterlimit:10;" d="M 738.694255 1898.40538 L 678.168681 1739.878551 L 1053.90549 1869.710613 Z M 738.694255 1898.40538 " transform="matrix(0.099648,0,0,-0.099648,0,199.363628)"/>
<path style=" stroke:none;fill-rule:nonzero;fill:rgb(13.500977%,61.326599%,91.992188%);fill-opacity:1;" d="M 134.121094 163.355469 L 128.703125 172.179688 L 174.773438 156.953125 "/>
<path style="fill:none;stroke-width:5;stroke-linecap:round;stroke-linejoin:round;stroke:rgb(0%,0%,0%);stroke-opacity:1;stroke-miterlimit:10;" d="M 1345.949228 361.353706 L 1291.578132 272.799772 L 1753.90885 425.603328 Z M 1345.949228 361.353706 " transform="matrix(0.099648,0,0,-0.099648,0,199.363628)"/>
<path style=" stroke:none;fill-rule:nonzero;fill:rgb(0%,0%,48.706055%);fill-opacity:1;" d="M 120.246094 181.96875 L 128.703125 172.179688 L 134.121094 163.355469 "/>
<path style="fill:none;stroke-width:5;stroke-linecap:round;stroke-linejoin:round;stroke:rgb(0%,0%,0%);stroke-opacity:1;stroke-miterlimit:10;" d="M 1206.709046 174.563315 L 1291.578132 272.799772 L 1345.949228 361.353706 Z M 1206.709046 174.563315 " transform="matrix(0.099648,0,0,-0.099648,0,199.363628)"/>
<path style=" stroke:none;fill-rule:nonzero;fill:rgb(66.992188%,73.4375%,89.84375%);fill-opacity:1;" d="M 120.246094 181.96875 L 134.121094 163.355469 L 89.164062 178.03125 "/>
<path style="fill:none;stroke-width:5;stroke-linecap:round;stroke-linejoin:round;stroke:rgb(0%,0%,0%);stroke-opacity:1;stroke-miterlimit:10;" d="M 1206.709046 174.563315 L 1345.949228 361.353706 L 894.790653 214.077421 Z M 1206.709046 174.563315 " transform="matrix(0.099648,0,0,-0.099648,0,199.363628)"/>
<path style=" stroke:none;fill-rule:nonzero;fill:rgb(19.091797%,0%,27.098083%);fill-opacity:1;" d="M 18.714844 118.515625 L 44.726562 161.738281 L 12.339844 137.476562 "/>
<path style="fill:none;stroke-width:5;stroke-linecap:round;stroke-linejoin:round;stroke:rgb(0%,0%,0%);stroke-opacity:1;stroke-miterlimit:10;" d="M 187.809604 811.336265 L 448.845745 377.582713 L 123.834385 621.05703 Z M 187.809604 811.336265 " transform="matrix(0.099648,0,0,-0.099648,0,199.363628)"/>
<path style=" stroke:none;fill-rule:nonzero;fill:rgb(0%,0%,28.90625%);fill-opacity:1;" d="M 16.625 87.628906 L 18.714844 118.515625 L 12.339844 137.476562 "/>
<path style="fill:none;stroke-width:5;stroke-linecap:round;stroke-linejoin:round;stroke:rgb(0%,0%,0%);stroke-opacity:1;stroke-miterlimit:10;" d="M 166.837336 1121.294633 L 187.809604 811.336265 L 123.834385 621.05703 Z M 166.837336 1121.294633 " transform="matrix(0.099648,0,0,-0.099648,0,199.363628)"/>
<path style=" stroke:none;fill-rule:nonzero;fill:rgb(36.206055%,81.25%,68.164062%);fill-opacity:1;" d="M 142.804688 32.503906 L 147.304688 33.523438 L 185.820312 53.292969 "/>
<path style="fill:none;stroke-width:5;stroke-linecap:round;stroke-linejoin:round;stroke:rgb(0%,0%,0%);stroke-opacity:1;stroke-miterlimit:10;" d="M 1433.091944 1674.492114 L 1478.250922 1664.260783 L 1864.767869 1465.867043 Z M 1433.091944 1674.492114 " transform="matrix(0.099648,0,0,-0.099648,0,199.363628)"/>
<path style=" stroke:none;fill-rule:nonzero;fill:rgb(58.006287%,22.705078%,33.396912%);fill-opacity:1;" d="M 136.855469 15.945312 L 105.019531 13.050781 L 147.304688 33.523438 "/>
<path style="fill:none;stroke-width:5;stroke-linecap:round;stroke-linejoin:round;stroke:rgb(0%,0%,0%);stroke-opacity:1;stroke-miterlimit:10;" d="M 1373.389579 1840.663041 L 1053.90549 1869.710613 L 1478.250922 1664.260783 Z M 1373.389579 1840.663041 " transform="matrix(0.099648,0,0,-0.099648,0,199.363628)"/>
<path style=" stroke:none;fill-rule:nonzero;fill:rgb(77.929688%,88.28125%,46.09375%);fill-opacity:1;" d="M 136.855469 15.945312 L 147.304688 33.523438 L 142.804688 32.503906 "/>
<path style="fill:none;stroke-width:5;stroke-linecap:round;stroke-linejoin:round;stroke:rgb(0%,0%,0%);stroke-opacity:1;stroke-miterlimit:10;" d="M 1373.389579 1840.663041 L 1478.250922 1664.260783 L 1433.091944 1674.492114 Z M 1373.389579 1840.663041 " transform="matrix(0.099648,0,0,-0.099648,0,199.363628)"/>
<path style=" stroke:none;fill-rule:nonzero;fill:rgb(0%,0%,28.90625%);fill-opacity:1;" d="M 23.339844 65.113281 L 16.625 87.628906 L 20.964844 37.160156 "/>
<path style="fill:none;stroke-width:5;stroke-linecap:round;stroke-linejoin:round;stroke:rgb(0%,0%,0%);stroke-opacity:1;stroke-miterlimit:10;" d="M 234.222998 1347.246325 L 166.837336 1121.294633 L 210.389093 1627.765116 Z M 234.222998 1347.246325 " transform="matrix(0.099648,0,0,-0.099648,0,199.363628)"/>
<path style=" stroke:none;fill-rule:nonzero;fill:rgb(84.568787%,38.792419%,0%);fill-opacity:1;" d="M 7.863281 89.523438 L 16.625 87.628906 L 23.339844 65.113281 "/>
<path style="fill:none;stroke-width:5;stroke-linecap:round;stroke-linejoin:round;stroke:rgb(0%,0%,0%);stroke-opacity:1;stroke-miterlimit:10;" d="M 78.91061 1102.28239 L 166.837336 1121.294633 L 234.222998 1347.246325 Z M 78.91061 1102.28239 " transform="matrix(0.099648,0,0,-0.099648,0,199.363628)"/>
<path style=" stroke:none;fill-rule:nonzero;fill:rgb(94.726562%,95.701599%,70.701599%);fill-opacity:1;" d="M 7.863281 89.523438 L 18.714844 118.515625 L 16.625 87.628906 "/>
<path style="fill:none;stroke-width:5;stroke-linecap:round;stroke-linejoin:round;stroke:rgb(0%,0%,0%);stroke-opacity:1;stroke-miterlimit:10;" d="M 78.91061 1102.28239 L 187.809604 811.336265 L 166.837336 1121.294633 Z M 78.91061 1102.28239 " transform="matrix(0.099648,0,0,-0.099648,0,199.363628)"/>
<path style=" stroke:none;fill-rule:nonzero;fill:rgb(48.193359%,4.699707%,13.597107%);fill-opacity:1;" d="M 58.496094 174.148438 L 44.726562 161.738281 L 89.164062 178.03125 "/>
<path style="fill:none;stroke-width:5;stroke-linecap:round;stroke-linejoin:round;stroke:rgb(0%,0%,0%);stroke-opacity:1;stroke-miterlimit:10;" d="M 587.027514 253.042719 L 448.845745 377.582713 L 894.790653 214.077421 Z M 587.027514 253.042719 " transform="matrix(0.099648,0,0,-0.099648,0,199.363628)"/>
<path style=" stroke:none;fill-rule:nonzero;fill:rgb(35.205078%,49.388123%,86.131287%);fill-opacity:1;" d="M 57.128906 24.417969 L 23.339844 65.113281 L 20.964844 37.160156 "/>
<path style="fill:none;stroke-width:5;stroke-linecap:round;stroke-linejoin:round;stroke:rgb(0%,0%,0%);stroke-opacity:1;stroke-miterlimit:10;" d="M 573.307338 1755.637152 L 234.222998 1347.246325 L 210.389093 1627.765116 Z M 573.307338 1755.637152 " transform="matrix(0.099648,0,0,-0.099648,0,199.363628)"/>
<path style=" stroke:none;fill-rule:nonzero;fill:rgb(69.334412%,96.484375%,93.943787%);fill-opacity:1;" d="M 89.164062 178.03125 L 44.726562 161.738281 L 80.101562 188.242188 "/>
<path style="fill:none;stroke-width:5;stroke-linecap:round;stroke-linejoin:round;stroke:rgb(0%,0%,0%);stroke-opacity:1;stroke-miterlimit:10;" d="M 894.790653 214.077421 L 448.845745 377.582713 L 803.845489 111.607309 Z M 894.790653 214.077421 " transform="matrix(0.099648,0,0,-0.099648,0,199.363628)"/>
<path style=" stroke:none;fill-rule:nonzero;fill:rgb(48.193359%,4.699707%,13.597107%);fill-opacity:1;" d="M 120.246094 181.96875 L 89.164062 178.03125 L 128.703125 172.179688 "/>
<path style="fill:none;stroke-width:5;stroke-linecap:round;stroke-linejoin:round;stroke:rgb(0%,0%,0%);stroke-opacity:1;stroke-miterlimit:10;" d="M 1206.709046 174.563315 L 894.790653 214.077421 L 1291.578132 272.799772 Z M 1206.709046 174.563315 " transform="matrix(0.099648,0,0,-0.099648,0,199.363628)"/>
<path style=" stroke:none;fill-rule:nonzero;fill:rgb(13.500977%,61.326599%,91.992188%);fill-opacity:1;" d="M 128.703125 172.179688 L 89.164062 178.03125 L 80.101562 188.242188 "/>
<path style="fill:none;stroke-width:5;stroke-linecap:round;stroke-linejoin:round;stroke:rgb(0%,0%,0%);stroke-opacity:1;stroke-miterlimit:10;" d="M 1291.578132 272.799772 L 894.790653 214.077421 L 803.845489 111.607309 Z M 1291.578132 272.799772 " transform="matrix(0.099648,0,0,-0.099648,0,199.363628)"/>
<path style=" stroke:none;fill-rule:nonzero;fill:rgb(63.671875%,77.146912%,94.53125%);fill-opacity:1;" d="M 73.609375 10.191406 L 105.019531 13.050781 L 57.128906 24.417969 "/>
<path style="fill:none;stroke-width:5;stroke-linecap:round;stroke-linejoin:round;stroke:rgb(0%,0%,0%);stroke-opacity:1;stroke-miterlimit:10;" d="M 738.694255 1898.40538 L 1053.90549 1869.710613 L 573.307338 1755.637152 Z M 738.694255 1898.40538 " transform="matrix(0.099648,0,0,-0.099648,0,199.363628)"/>
<path style=" stroke:none;fill-rule:nonzero;fill:rgb(37.109375%,0%,0%);fill-opacity:1;" d="M 57.128906 24.417969 L 105.019531 13.050781 L 97.007812 10.367188 "/>
<path style="fill:none;stroke-width:5;stroke-linecap:round;stroke-linejoin:round;stroke:rgb(0%,0%,0%);stroke-opacity:1;stroke-miterlimit:10;" d="M 573.307338 1755.637152 L 1053.90549 1869.710613 L 973.505261 1896.641357 Z M 573.307338 1755.637152 " transform="matrix(0.099648,0,0,-0.099648,0,199.363628)"/>
<path style=" stroke:none;fill-rule:nonzero;fill:rgb(36.206055%,81.25%,68.164062%);fill-opacity:1;" d="M 105.019531 13.050781 L 142.804688 32.503906 L 97.007812 10.367188 "/>
<path style="fill:none;stroke-width:5;stroke-linecap:round;stroke-linejoin:round;stroke:rgb(0%,0%,0%);stroke-opacity:1;stroke-miterlimit:10;" d="M 1053.90549 1869.710613 L 1433.091944 1674.492114 L 973.505261 1896.641357 Z M 1053.90549 1869.710613 " transform="matrix(0.099648,0,0,-0.099648,0,199.363628)"/>
<path style=" stroke:none;fill-rule:nonzero;fill:rgb(63.671875%,77.146912%,94.53125%);fill-opacity:1;" d="M 136.855469 15.945312 L 142.804688 32.503906 L 105.019531 13.050781 "/>
<path style="fill:none;stroke-width:5;stroke-linecap:round;stroke-linejoin:round;stroke:rgb(0%,0%,0%);stroke-opacity:1;stroke-miterlimit:10;" d="M 1373.389579 1840.663041 L 1433.091944 1674.492114 L 1053.90549 1869.710613 Z M 1373.389579 1840.663041 " transform="matrix(0.099648,0,0,-0.099648,0,199.363628)"/>
<path style=" stroke:none;fill-rule:nonzero;fill:rgb(80.076599%,44.189453%,37.889099%);fill-opacity:1;" d="M 128.703125 172.179688 L 158.632812 134.691406 L 174.773438 156.953125 "/>
<path style="fill:none;stroke-width:5;stroke-linecap:round;stroke-linejoin:round;stroke:rgb(0%,0%,0%);stroke-opacity:1;stroke-miterlimit:10;" d="M 1291.578132 272.799772 L 1591.932377 649.006988 L 1753.90885 425.603328 Z M 1291.578132 272.799772 " transform="matrix(0.099648,0,0,-0.099648,0,199.363628)"/>
<path style=" stroke:none;fill-rule:nonzero;fill:rgb(97.851562%,75.193787%,52.539062%);fill-opacity:1;" d="M 158.632812 134.691406 L 180.261719 105.457031 L 174.773438 156.953125 "/>
<path style="fill:none;stroke-width:5;stroke-linecap:round;stroke-linejoin:round;stroke:rgb(0%,0%,0%);stroke-opacity:1;stroke-miterlimit:10;" d="M 1591.932377 649.006988 L 1808.985555 942.383543 L 1753.90885 425.603328 Z M 1591.932377 649.006988 " transform="matrix(0.099648,0,0,-0.099648,0,199.363628)"/>
<path style=" stroke:none;fill-rule:nonzero;fill:rgb(97.851562%,75.193787%,52.539062%);fill-opacity:1;" d="M 180.261719 105.457031 L 164.359375 79.765625 L 185.820312 53.292969 "/>
<path style="fill:none;stroke-width:5;stroke-linecap:round;stroke-linejoin:round;stroke:rgb(0%,0%,0%);stroke-opacity:1;stroke-miterlimit:10;" d="M 1808.985555 942.383543 L 1649.400312 1200.205243 L 1864.767869 1465.867043 Z M 1808.985555 942.383543 " transform="matrix(0.099648,0,0,-0.099648,0,199.363628)"/>
<path style=" stroke:none;fill-rule:nonzero;fill:rgb(0%,0%,48.706055%);fill-opacity:1;" d="M 179.035156 108.277344 L 180.261719 105.457031 L 158.632812 134.691406 "/>
<path style="fill:none;stroke-width:5;stroke-linecap:round;stroke-linejoin:round;stroke:rgb(0%,0%,0%);stroke-opacity:1;stroke-miterlimit:10;" d="M 1796.676597 914.080781 L 1808.985555 942.383543 L 1591.932377 649.006988 Z M 1796.676597 914.080781 " transform="matrix(0.099648,0,0,-0.099648,0,199.363628)"/>
<path style=" stroke:none;fill-rule:nonzero;fill:rgb(77.929688%,88.28125%,46.09375%);fill-opacity:1;" d="M 179.035156 108.277344 L 164.359375 79.765625 L 180.261719 105.457031 "/>
<path style="fill:none;stroke-width:5;stroke-linecap:round;stroke-linejoin:round;stroke:rgb(0%,0%,0%);stroke-opacity:1;stroke-miterlimit:10;" d="M 1796.676597 914.080781 L 1649.400312 1200.205243 L 1808.985555 942.383543 Z M 1796.676597 914.080781 " transform="matrix(0.099648,0,0,-0.099648,0,199.363628)"/>
<path style=" stroke:none;fill-rule:nonzero;fill:rgb(94.726562%,95.701599%,70.701599%);fill-opacity:1;" d="M 29.894531 148.375 L 44.726562 161.738281 L 18.714844 118.515625 "/>
<path style="fill:none;stroke-width:5;stroke-linecap:round;stroke-linejoin:round;stroke:rgb(0%,0%,0%);stroke-opacity:1;stroke-miterlimit:10;" d="M 300.00144 511.68763 L 448.845745 377.582713 L 187.809604 811.336265 Z M 300.00144 511.68763 " transform="matrix(0.099648,0,0,-0.099648,0,199.363628)"/>
<path style=" stroke:none;fill-rule:nonzero;fill:rgb(19.091797%,0%,27.098083%);fill-opacity:1;" d="M 44.726562 161.738281 L 53.722656 143.625 L 80.101562 188.242188 "/>
<path style="fill:none;stroke-width:5;stroke-linecap:round;stroke-linejoin:round;stroke:rgb(0%,0%,0%);stroke-opacity:1;stroke-miterlimit:10;" d="M 448.845745 377.582713 L 539.124501 559.35544 L 803.845489 111.607309 Z M 448.845745 377.582713 " transform="matrix(0.099648,0,0,-0.099648,0,199.363628)"/>
<path style=" stroke:none;fill-rule:nonzero;fill:rgb(48.193359%,4.699707%,13.597107%);fill-opacity:1;" d="M 29.894531 148.375 L 53.722656 143.625 L 44.726562 161.738281 "/>
<path style="fill:none;stroke-width:5;stroke-linecap:round;stroke-linejoin:round;stroke:rgb(0%,0%,0%);stroke-opacity:1;stroke-miterlimit:10;" d="M 300.00144 511.68763 L 539.124501 559.35544 L 448.845745 377.582713 Z M 300.00144 511.68763 " transform="matrix(0.099648,0,0,-0.099648,0,199.363628)"/>
<path style=" stroke:none;fill-rule:nonzero;fill:rgb(84.375%,81.639099%,82.226562%);fill-opacity:1;" d="M 164.359375 79.765625 L 142.804688 32.503906 L 185.820312 53.292969 "/>
<path style="fill:none;stroke-width:5;stroke-linecap:round;stroke-linejoin:round;stroke:rgb(0%,0%,0%);stroke-opacity:1;stroke-miterlimit:10;" d="M 1649.400312 1200.205243 L 1433.091944 1674.492114 L 1864.767869 1465.867043 Z M 1649.400312 1200.205243 " transform="matrix(0.099648,0,0,-0.099648,0,199.363628)"/>
<path style=" stroke:none;fill-rule:nonzero;fill:rgb(48.193359%,39.305115%,67.771912%);fill-opacity:1;" d="M 7.863281 89.523438 L 23.339844 65.113281 L 18.714844 118.515625 "/>
<path style="fill:none;stroke-width:5;stroke-linecap:round;stroke-linejoin:round;stroke:rgb(0%,0%,0%);stroke-opacity:1;stroke-miterlimit:10;" d="M 78.91061 1102.28239 L 234.222998 1347.246325 L 187.809604 811.336265 Z M 78.91061 1102.28239 " transform="matrix(0.099648,0,0,-0.099648,0,199.363628)"/>
<path style=" stroke:none;fill-rule:nonzero;fill:rgb(84.568787%,38.792419%,0%);fill-opacity:1;" d="M 39.496094 39.636719 L 23.339844 65.113281 L 57.128906 24.417969 "/>
<path style="fill:none;stroke-width:5;stroke-linecap:round;stroke-linejoin:round;stroke:rgb(0%,0%,0%);stroke-opacity:1;stroke-miterlimit:10;" d="M 396.356273 1602.911998 L 234.222998 1347.246325 L 573.307338 1755.637152 Z M 396.356273 1602.911998 " transform="matrix(0.099648,0,0,-0.099648,0,199.363628)"/>
<path style=" stroke:none;fill-rule:nonzero;fill:rgb(35.205078%,49.388123%,86.131287%);fill-opacity:1;" d="M 61.992188 53 L 57.128906 24.417969 L 97.007812 10.367188 "/>
<path style="fill:none;stroke-width:5;stroke-linecap:round;stroke-linejoin:round;stroke:rgb(0%,0%,0%);stroke-opacity:1;stroke-miterlimit:10;" d="M 622.111963 1468.807081 L 573.307338 1755.637152 L 973.505261 1896.641357 Z M 622.111963 1468.807081 " transform="matrix(0.099648,0,0,-0.099648,0,199.363628)"/>
<path style=" stroke:none;fill-rule:nonzero;fill:rgb(63.671875%,77.146912%,94.53125%);fill-opacity:1;" d="M 39.496094 39.636719 L 57.128906 24.417969 L 61.992188 53 "/>
<path style="fill:none;stroke-width:5;stroke-linecap:round;stroke-linejoin:round;stroke:rgb(0%,0%,0%);stroke-opacity:1;stroke-miterlimit:10;" d="M 396.356273 1602.911998 L 573.307338 1755.637152 L 622.111963 1468.807081 Z M 396.356273 1602.911998 " transform="matrix(0.099648,0,0,-0.099648,0,199.363628)"/>
<path style=" stroke:none;fill-rule:nonzero;fill:rgb(0%,0%,48.706055%);fill-opacity:1;" d="M 137.902344 161.53125 L 158.632812 134.691406 L 128.703125 172.179688 "/>
<path style="fill:none;stroke-width:5;stroke-linecap:round;stroke-linejoin:round;stroke:rgb(0%,0%,0%);stroke-opacity:1;stroke-miterlimit:10;" d="M 1383.895314 379.66034 L 1591.932377 649.006988 L 1291.578132 272.799772 Z M 1383.895314 379.66034 " transform="matrix(0.099648,0,0,-0.099648,0,199.363628)"/>
<path style=" stroke:none;fill-rule:nonzero;fill:rgb(80.076599%,44.189453%,37.889099%);fill-opacity:1;" d="M 109.109375 150.277344 L 128.703125 172.179688 L 80.101562 188.242188 "/>
<path style="fill:none;stroke-width:5;stroke-linecap:round;stroke-linejoin:round;stroke:rgb(0%,0%,0%);stroke-opacity:1;stroke-miterlimit:10;" d="M 1094.948415 492.596986 L 1291.578132 272.799772 L 803.845489 111.607309 Z M 1094.948415 492.596986 " transform="matrix(0.099648,0,0,-0.099648,0,199.363628)"/>
<path style=" stroke:none;fill-rule:nonzero;fill:rgb(48.193359%,4.699707%,13.597107%);fill-opacity:1;" d="M 137.902344 161.53125 L 128.703125 172.179688 L 109.109375 150.277344 "/>
<path style="fill:none;stroke-width:5;stroke-linecap:round;stroke-linejoin:round;stroke:rgb(0%,0%,0%);stroke-opacity:1;stroke-miterlimit:10;" d="M 1383.895314 379.66034 L 1291.578132 272.799772 L 1094.948415 492.596986 Z M 1383.895314 379.66034 " transform="matrix(0.099648,0,0,-0.099648,0,199.363628)"/>
<path style=" stroke:none;fill-rule:nonzero;fill:rgb(0%,0%,28.90625%);fill-opacity:1;" d="M 18.714844 118.515625 L 23.339844 65.113281 L 26.03125 96.777344 "/>
<path style="fill:none;stroke-width:5;stroke-linecap:round;stroke-linejoin:round;stroke:rgb(0%,0%,0%);stroke-opacity:1;stroke-miterlimit:10;" d="M 187.809604 811.336265 L 234.222998 1347.246325 L 261.232144 1029.487058 Z M 187.809604 811.336265 " transform="matrix(0.099648,0,0,-0.099648,0,199.363628)"/>
<path style=" stroke:none;fill-rule:nonzero;fill:rgb(19.091797%,0%,27.098083%);fill-opacity:1;" d="M 53.722656 143.625 L 18.714844 118.515625 L 26.03125 96.777344 "/>
<path style="fill:none;stroke-width:5;stroke-linecap:round;stroke-linejoin:round;stroke:rgb(0%,0%,0%);stroke-opacity:1;stroke-miterlimit:10;" d="M 539.124501 559.35544 L 187.809604 811.336265 L 261.232144 1029.487058 Z M 539.124501 559.35544 " transform="matrix(0.099648,0,0,-0.099648,0,199.363628)"/>
<path style=" stroke:none;fill-rule:nonzero;fill:rgb(48.193359%,39.305115%,67.771912%);fill-opacity:1;" d="M 29.894531 148.375 L 18.714844 118.515625 L 53.722656 143.625 "/>
<path style="fill:none;stroke-width:5;stroke-linecap:round;stroke-linejoin:round;stroke:rgb(0%,0%,0%);stroke-opacity:1;stroke-miterlimit:10;" d="M 300.00144 511.68763 L 187.809604 811.336265 L 539.124501 559.35544 Z M 300.00144 511.68763 " transform="matrix(0.099648,0,0,-0.099648,0,199.363628)"/>
<path style=" stroke:none;fill-rule:nonzero;fill:rgb(35.205078%,49.388123%,86.131287%);fill-opacity:1;" d="M 23.339844 65.113281 L 61.992188 53 L 26.03125 96.777344 "/>
<path style="fill:none;stroke-width:5;stroke-linecap:round;stroke-linejoin:round;stroke:rgb(0%,0%,0%);stroke-opacity:1;stroke-miterlimit:10;" d="M 234.222998 1347.246325 L 622.111963 1468.807081 L 261.232144 1029.487058 Z M 234.222998 1347.246325 " transform="matrix(0.099648,0,0,-0.099648,0,199.363628)"/>
<path style=" stroke:none;fill-rule:nonzero;fill:rgb(48.193359%,39.305115%,67.771912%);fill-opacity:1;" d="M 39.496094 39.636719 L 61.992188 53 L 23.339844 65.113281 "/>
<path style="fill:none;stroke-width:5;stroke-linecap:round;stroke-linejoin:round;stroke:rgb(0%,0%,0%);stroke-opacity:1;stroke-miterlimit:10;" d="M 396.356273 1602.911998 L 622.111963 1468.807081 L 234.222998 1347.246325 Z M 396.356273 1602.911998 " transform="matrix(0.099648,0,0,-0.099648,0,199.363628)"/>
<path style=" stroke:none;fill-rule:nonzero;fill:rgb(77.929688%,88.28125%,46.09375%);fill-opacity:1;" d="M 149.238281 50.390625 L 142.804688 32.503906 L 164.359375 79.765625 "/>
<path style="fill:none;stroke-width:5;stroke-linecap:round;stroke-linejoin:round;stroke:rgb(0%,0%,0%);stroke-opacity:1;stroke-miterlimit:10;" d="M 1497.65517 1494.993016 L 1433.091944 1674.492114 L 1649.400312 1200.205243 Z M 1497.65517 1494.993016 " transform="matrix(0.099648,0,0,-0.099648,0,199.363628)"/>
<path style=" stroke:none;fill-rule:nonzero;fill:rgb(84.375%,81.639099%,82.226562%);fill-opacity:1;" d="M 142.804688 32.503906 L 118.109375 58.632812 L 97.007812 10.367188 "/>
<path style="fill:none;stroke-width:5;stroke-linecap:round;stroke-linejoin:round;stroke:rgb(0%,0%,0%);stroke-opacity:1;stroke-miterlimit:10;" d="M 1433.091944 1674.492114 L 1185.266371 1412.279958 L 973.505261 1896.641357 Z M 1433.091944 1674.492114 " transform="matrix(0.099648,0,0,-0.099648,0,199.363628)"/>
<path style=" stroke:none;fill-rule:nonzero;fill:rgb(63.671875%,77.146912%,94.53125%);fill-opacity:1;" d="M 149.238281 50.390625 L 118.109375 58.632812 L 142.804688 32.503906 "/>
<path style="fill:none;stroke-width:5;stroke-linecap:round;stroke-linejoin:round;stroke:rgb(0%,0%,0%);stroke-opacity:1;stroke-miterlimit:10;" d="M 1497.65517 1494.993016 L 1185.266371 1412.279958 L 1433.091944 1674.492114 Z M 1497.65517 1494.993016 " transform="matrix(0.099648,0,0,-0.099648,0,199.363628)"/>
<path style=" stroke:none;fill-rule:nonzero;fill:rgb(79.881287%,62.693787%,66.992188%);fill-opacity:1;" d="M 179.035156 108.277344 L 158.632812 134.691406 L 164.359375 79.765625 "/>
<path style="fill:none;stroke-width:5;stroke-linecap:round;stroke-linejoin:round;stroke:rgb(0%,0%,0%);stroke-opacity:1;stroke-miterlimit:10;" d="M 1796.676597 914.080781 L 1591.932377 649.006988 L 1649.400312 1200.205243 Z M 1796.676597 914.080781 " transform="matrix(0.099648,0,0,-0.099648,0,199.363628)"/>
<path style=" stroke:none;fill-rule:nonzero;fill:rgb(65.039062%,43.992615%,58.59375%);fill-opacity:1;" d="M 53.722656 143.625 L 109.109375 150.277344 L 80.101562 188.242188 "/>
<path style="fill:none;stroke-width:5;stroke-linecap:round;stroke-linejoin:round;stroke:rgb(0%,0%,0%);stroke-opacity:1;stroke-miterlimit:10;" d="M 539.124501 559.35544 L 1094.948415 492.596986 L 803.845489 111.607309 Z M 539.124501 559.35544 " transform="matrix(0.099648,0,0,-0.099648,0,199.363628)"/>
<path style=" stroke:none;fill-rule:nonzero;fill:rgb(80.076599%,44.189453%,37.889099%);fill-opacity:1;" d="M 158.632812 134.691406 L 109.109375 150.277344 L 140.316406 109.429688 "/>
<path style="fill:none;stroke-width:5;stroke-linecap:round;stroke-linejoin:round;stroke:rgb(0%,0%,0%);stroke-opacity:1;stroke-miterlimit:10;" d="M 1591.932377 649.006988 L 1094.948415 492.596986 L 1408.121224 902.516633 Z M 1591.932377 649.006988 " transform="matrix(0.099648,0,0,-0.099648,0,199.363628)"/>
<path style=" stroke:none;fill-rule:nonzero;fill:rgb(97.851562%,75.193787%,52.539062%);fill-opacity:1;" d="M 164.359375 79.765625 L 158.632812 134.691406 L 140.316406 109.429688 "/>
<path style="fill:none;stroke-width:5;stroke-linecap:round;stroke-linejoin:round;stroke:rgb(0%,0%,0%);stroke-opacity:1;stroke-miterlimit:10;" d="M 1649.400312 1200.205243 L 1591.932377 649.006988 L 1408.121224 902.516633 Z M 1649.400312 1200.205243 " transform="matrix(0.099648,0,0,-0.099648,0,199.363628)"/>
<path style=" stroke:none;fill-rule:nonzero;fill:rgb(79.881287%,62.693787%,66.992188%);fill-opacity:1;" d="M 137.902344 161.53125 L 109.109375 150.277344 L 158.632812 134.691406 "/>
<path style="fill:none;stroke-width:5;stroke-linecap:round;stroke-linejoin:round;stroke:rgb(0%,0%,0%);stroke-opacity:1;stroke-miterlimit:10;" d="M 1383.895314 379.66034 L 1094.948415 492.596986 L 1591.932377 649.006988 Z M 1383.895314 379.66034 " transform="matrix(0.099648,0,0,-0.099648,0,199.363628)"/>
<path style=" stroke:none;fill-rule:nonzero;fill:rgb(84.375%,81.639099%,82.226562%);fill-opacity:1;" d="M 118.109375 58.632812 L 164.359375 79.765625 L 140.316406 109.429688 "/>
<path style="fill:none;stroke-width:5;stroke-linecap:round;stroke-linejoin:round;stroke:rgb(0%,0%,0%);stroke-opacity:1;stroke-miterlimit:10;" d="M 1185.266371 1412.279958 L 1649.400312 1200.205243 L 1408.121224 902.516633 Z M 1185.266371 1412.279958 " transform="matrix(0.099648,0,0,-0.099648,0,199.363628)"/>
<path style=" stroke:none;fill-rule:nonzero;fill:rgb(79.881287%,62.693787%,66.992188%);fill-opacity:1;" d="M 149.238281 50.390625 L 164.359375 79.765625 L 118.109375 58.632812 "/>
<path style="fill:none;stroke-width:5;stroke-linecap:round;stroke-linejoin:round;stroke:rgb(0%,0%,0%);stroke-opacity:1;stroke-miterlimit:10;" d="M 1497.65517 1494.993016 L 1649.400312 1200.205243 L 1185.266371 1412.279958 Z M 1497.65517 1494.993016 " transform="matrix(0.099648,0,0,-0.099648,0,199.363628)"/>
<path style=" stroke:none;fill-rule:nonzero;fill:rgb(67.576599%,60.9375%,77.34375%);fill-opacity:1;" d="M 118.109375 58.632812 L 61.992188 53 L 97.007812 10.367188 "/>
<path style="fill:none;stroke-width:5;stroke-linecap:round;stroke-linejoin:round;stroke:rgb(0%,0%,0%);stroke-opacity:1;stroke-miterlimit:10;" d="M 1185.266371 1412.279958 L 622.111963 1468.807081 L 973.505261 1896.641357 Z M 1185.266371 1412.279958 " transform="matrix(0.099648,0,0,-0.099648,0,199.363628)"/>
<path style=" stroke:none;fill-rule:nonzero;fill:rgb(65.039062%,43.992615%,58.59375%);fill-opacity:1;" d="M 82.472656 103.023438 L 53.722656 143.625 L 26.03125 96.777344 "/>
<path style="fill:none;stroke-width:5;stroke-linecap:round;stroke-linejoin:round;stroke:rgb(0%,0%,0%);stroke-opacity:1;stroke-miterlimit:10;" d="M 827.640194 966.805455 L 539.124501 559.35544 L 261.232144 1029.487058 Z M 827.640194 966.805455 " transform="matrix(0.099648,0,0,-0.099648,0,199.363628)"/>
<path style=" stroke:none;fill-rule:nonzero;fill:rgb(48.193359%,39.305115%,67.771912%);fill-opacity:1;" d="M 79.117188 138.554688 L 53.722656 143.625 L 82.472656 103.023438 "/>
<path style="fill:none;stroke-width:5;stroke-linecap:round;stroke-linejoin:round;stroke:rgb(0%,0%,0%);stroke-opacity:1;stroke-miterlimit:10;" d="M 793.966963 610.237691 L 539.124501 559.35544 L 827.640194 966.805455 Z M 793.966963 610.237691 " transform="matrix(0.099648,0,0,-0.099648,0,199.363628)"/>
<path style=" stroke:none;fill-rule:nonzero;fill:rgb(48.193359%,4.699707%,13.597107%);fill-opacity:1;" d="M 79.117188 138.554688 L 109.109375 150.277344 L 53.722656 143.625 "/>
<path style="fill:none;stroke-width:5;stroke-linecap:round;stroke-linejoin:round;stroke:rgb(0%,0%,0%);stroke-opacity:1;stroke-miterlimit:10;" d="M 793.966963 610.237691 L 1094.948415 492.596986 L 539.124501 559.35544 Z M 793.966963 610.237691 " transform="matrix(0.099648,0,0,-0.099648,0,199.363628)"/>
<path style=" stroke:none;fill-rule:nonzero;fill:rgb(67.576599%,60.9375%,77.34375%);fill-opacity:1;" d="M 61.992188 53 L 82.472656 103.023438 L 26.03125 96.777344 "/>
<path style="fill:none;stroke-width:5;stroke-linecap:round;stroke-linejoin:round;stroke:rgb(0%,0%,0%);stroke-opacity:1;stroke-miterlimit:10;" d="M 622.111963 1468.807081 L 827.640194 966.805455 L 261.232144 1029.487058 Z M 622.111963 1468.807081 " transform="matrix(0.099648,0,0,-0.099648,0,199.363628)"/>
<path style=" stroke:none;fill-rule:nonzero;fill:rgb(48.193359%,39.305115%,67.771912%);fill-opacity:1;" d="M 85.855469 67.175781 L 82.472656 103.023438 L 61.992188 53 "/>
<path style="fill:none;stroke-width:5;stroke-linecap:round;stroke-linejoin:round;stroke:rgb(0%,0%,0%);stroke-opacity:1;stroke-miterlimit:10;" d="M 861.587828 1326.54846 L 827.640194 966.805455 L 622.111963 1468.807081 Z M 861.587828 1326.54846 " transform="matrix(0.099648,0,0,-0.099648,0,199.363628)"/>
<path style=" stroke:none;fill-rule:nonzero;fill:rgb(63.671875%,77.146912%,94.53125%);fill-opacity:1;" d="M 85.855469 67.175781 L 61.992188 53 L 118.109375 58.632812 "/>
<path style="fill:none;stroke-width:5;stroke-linecap:round;stroke-linejoin:round;stroke:rgb(0%,0%,0%);stroke-opacity:1;stroke-miterlimit:10;" d="M 861.587828 1326.54846 L 622.111963 1468.807081 L 1185.266371 1412.279958 Z M 861.587828 1326.54846 " transform="matrix(0.099648,0,0,-0.099648,0,199.363628)"/>
<path style=" stroke:none;fill-rule:nonzero;fill:rgb(65.039062%,43.992615%,58.59375%);fill-opacity:1;" d="M 109.109375 150.277344 L 82.472656 103.023438 L 140.316406 109.429688 "/>
<path style="fill:none;stroke-width:5;stroke-linecap:round;stroke-linejoin:round;stroke:rgb(0%,0%,0%);stroke-opacity:1;stroke-miterlimit:10;" d="M 1094.948415 492.596986 L 827.640194 966.805455 L 1408.121224 902.516633 Z M 1094.948415 492.596986 " transform="matrix(0.099648,0,0,-0.099648,0,199.363628)"/>
<path style=" stroke:none;fill-rule:nonzero;fill:rgb(79.881287%,62.693787%,66.992188%);fill-opacity:1;" d="M 79.117188 138.554688 L 82.472656 103.023438 L 109.109375 150.277344 "/>
<path style="fill:none;stroke-width:5;stroke-linecap:round;stroke-linejoin:round;stroke:rgb(0%,0%,0%);stroke-opacity:1;stroke-miterlimit:10;" d="M 793.966963 610.237691 L 827.640194 966.805455 L 1094.948415 492.596986 Z M 793.966963 610.237691 " transform="matrix(0.099648,0,0,-0.099648,0,199.363628)"/>
<path style=" stroke:none;fill-rule:nonzero;fill:rgb(67.576599%,60.9375%,77.34375%);fill-opacity:1;" d="M 82.472656 103.023438 L 118.109375 58.632812 L 140.316406 109.429688 "/>
<path style="fill:none;stroke-width:5;stroke-linecap:round;stroke-linejoin:round;stroke:rgb(0%,0%,0%);stroke-opacity:1;stroke-miterlimit:10;" d="M 827.640194 966.805455 L 1185.266371 1412.279958 L 1408.121224 902.516633 Z M 827.640194 966.805455 " transform="matrix(0.099648,0,0,-0.099648,0,199.363628)"/>
<path style=" stroke:none;fill-rule:nonzero;fill:rgb(79.881287%,62.693787%,66.992188%);fill-opacity:1;" d="M 85.855469 67.175781 L 118.109375 58.632812 L 82.472656 103.023438 "/>
<path style="fill:none;stroke-width:5;stroke-linecap:round;stroke-linejoin:round;stroke:rgb(0%,0%,0%);stroke-opacity:1;stroke-miterlimit:10;" d="M 861.587828 1326.54846 L 1185.266371 1412.279958 L 827.640194 966.805455 Z M 861.587828 1326.54846 " transform="matrix(0.099648,0,0,-0.099648,0,199.363628)"/>
</g>
</svg>
