<?xml version="1.0" encoding="UTF-8"?>
<svg xmlns="http://www.w3.org/2000/svg" xmlns:xlink="http://www.w3.org/1999/xlink" width="140pt" height="140pt" viewBox="0 0 140 140" version="1.2">
<g id="surface1">
<path style="fill-rule:nonzero;fill:rgb(66.992188%,73.242188%,89.646912%);fill-opacity:1;stroke-width:4.17357;stroke-linecap:round;stroke-linejoin:round;stroke:rgb(0%,0%,0%);stroke-opacity:1;stroke-miterlimit:10;" d="M 330.820312 265.625 L 555.976562 512.617188 L 974.0625 464.296875 " transform="matrix(0.1,0,0,-0.1,0,140)"/>
<path style=" stroke:none;fill-rule:nonzero;fill:rgb(88.867188%,75%,70.117188%);fill-opacity:1;" d="M 55.597656 88.738281 L 33.082031 113.4375 L 15.503906 42.472656 "/>
<path style="fill:none;stroke-width:4.17357;stroke-linecap:round;stroke-linejoin:round;stroke:rgb(0%,0%,0%);stroke-opacity:1;stroke-miterlimit:10;" d="M 555.976562 512.617188 L 330.820312 265.625 " transform="matrix(0.1,0,0,-0.1,0,140)"/>
<path style="fill-rule:nonzero;fill:rgb(88.867188%,75%,70.117188%);fill-opacity:1;stroke-width:4.17357;stroke-linecap:round;stroke-linejoin:round;stroke:rgb(0%,0%,0%);stroke-opacity:1;stroke-miterlimit:10;" d="M 155.039062 975.273438 L 457.617188 922.460938 L 555.976562 512.617188 " transform="matrix(0.1,0,0,-0.1,0,140)"/>
<path style="fill-rule:nonzero;fill:rgb(67.576599%,52.539062%,67.576599%);fill-opacity:1;stroke-width:4.17357;stroke-linecap:round;stroke-linejoin:round;stroke:rgb(0%,0%,0%);stroke-opacity:1;stroke-miterlimit:10;" d="M 555.976562 512.617188 L 457.617188 922.460938 L 819.21875 1140.273438 " transform="matrix(0.1,0,0,-0.1,0,140)"/>
<path style=" stroke:none;fill-rule:nonzero;fill:rgb(67.576599%,52.539062%,67.576599%);fill-opacity:1;" d="M 97.40625 93.570312 L 55.597656 88.738281 L 81.921875 25.972656 "/>
<path style="fill:none;stroke-width:4.17357;stroke-linecap:round;stroke-linejoin:round;stroke:rgb(0%,0%,0%);stroke-opacity:1;stroke-miterlimit:10;" d="M 974.0625 464.296875 L 555.976562 512.617188 " transform="matrix(0.1,0,0,-0.1,0,140)"/>
<path style=" stroke:none;fill-rule:nonzero;fill:rgb(76.171875%,37.205505%,31.396484%);fill-opacity:1;" d="M 45.761719 47.753906 L 15.503906 42.472656 L 78.40625 3.730469 "/>
<path style="fill:none;stroke-width:4.17357;stroke-linecap:round;stroke-linejoin:round;stroke:rgb(0%,0%,0%);stroke-opacity:1;stroke-miterlimit:10;" d="M 457.617188 922.460938 L 155.039062 975.273438 " transform="matrix(0.1,0,0,-0.1,0,140)"/>
<path style="fill-rule:nonzero;fill:rgb(76.171875%,37.205505%,31.396484%);fill-opacity:1;stroke-width:4.17357;stroke-linecap:round;stroke-linejoin:round;stroke:rgb(0%,0%,0%);stroke-opacity:1;stroke-miterlimit:10;" d="M 784.0625 1362.695312 L 819.21875 1140.273438 L 457.617188 922.460938 " transform="matrix(0.1,0,0,-0.1,0,140)"/>
<path style=" stroke:none;fill-rule:nonzero;fill:rgb(66.992188%,73.242188%,89.646912%);fill-opacity:1;" d="M 63.707031 136.488281 L 33.082031 113.4375 L 97.40625 93.570312 "/>
<path style="fill:none;stroke-width:4.17357;stroke-linecap:round;stroke-linejoin:round;stroke:rgb(0%,0%,0%);stroke-opacity:1;stroke-miterlimit:10;" d="M 637.070312 35.117188 L 330.820312 265.625 " transform="matrix(0.1,0,0,-0.1,0,140)"/>
<path style="fill-rule:nonzero;fill:rgb(66.992188%,73.242188%,89.646912%);fill-opacity:1;stroke-width:4.17357;stroke-linecap:round;stroke-linejoin:round;stroke:rgb(0%,0%,0%);stroke-opacity:1;stroke-miterlimit:10;" d="M 974.0625 464.296875 L 1055.507812 175.546875 L 637.070312 35.117188 " transform="matrix(0.1,0,0,-0.1,0,140)"/>
<path style="fill-rule:nonzero;fill:rgb(67.576599%,52.539062%,67.576599%);fill-opacity:1;stroke-width:4.17357;stroke-linecap:round;stroke-linejoin:round;stroke:rgb(0%,0%,0%);stroke-opacity:1;stroke-miterlimit:10;" d="M 819.21875 1140.273438 L 1145.195312 851.875 L 974.0625 464.296875 " transform="matrix(0.1,0,0,-0.1,0,140)"/>
<path style="fill-rule:nonzero;fill:rgb(27.293396%,31.297302%,72.264099%);fill-opacity:1;stroke-width:4.17357;stroke-linecap:round;stroke-linejoin:round;stroke:rgb(0%,0%,0%);stroke-opacity:1;stroke-miterlimit:10;" d="M 974.0625 464.296875 L 1145.195312 851.875 L 1361.640625 852.226562 " transform="matrix(0.1,0,0,-0.1,0,140)"/>
<path style=" stroke:none;fill-rule:nonzero;fill:rgb(27.293396%,31.297302%,72.264099%);fill-opacity:1;" d="M 105.550781 122.445312 L 97.40625 93.570312 L 136.164062 54.777344 "/>
<path style="fill:none;stroke-width:4.17357;stroke-linecap:round;stroke-linejoin:round;stroke:rgb(0%,0%,0%);stroke-opacity:1;stroke-miterlimit:10;" d="M 1055.507812 175.546875 L 974.0625 464.296875 " transform="matrix(0.1,0,0,-0.1,0,140)"/>
<path style="fill-rule:nonzero;fill:rgb(24.388123%,0%,20.800781%);fill-opacity:1;stroke-width:4.17357;stroke-linecap:round;stroke-linejoin:round;stroke:rgb(0%,0%,0%);stroke-opacity:1;stroke-miterlimit:10;" d="M 819.21875 1140.273438 L 784.0625 1362.695312 L 1137.382812 1188.007812 " transform="matrix(0.1,0,0,-0.1,0,140)"/>
<path style=" stroke:none;fill-rule:nonzero;fill:rgb(24.388123%,0%,20.800781%);fill-opacity:1;" d="M 114.519531 54.8125 L 81.921875 25.972656 L 113.738281 21.199219 "/>
<path style="fill:none;stroke-width:4.17357;stroke-linecap:round;stroke-linejoin:round;stroke:rgb(0%,0%,0%);stroke-opacity:1;stroke-miterlimit:10;" d="M 1145.195312 851.875 L 819.21875 1140.273438 " transform="matrix(0.1,0,0,-0.1,0,140)"/>
<path style="fill-rule:nonzero;fill:rgb(24.388123%,0%,20.800781%);fill-opacity:1;stroke-width:4.17357;stroke-linecap:round;stroke-linejoin:round;stroke:rgb(0%,0%,0%);stroke-opacity:1;stroke-miterlimit:10;" d="M 1137.382812 1188.007812 L 1361.640625 852.226562 L 1145.195312 851.875 " transform="matrix(0.1,0,0,-0.1,0,140)"/>
<path style="fill-rule:nonzero;fill:rgb(88.867188%,75%,70.117188%);fill-opacity:1;stroke-width:4.17357;stroke-linecap:round;stroke-linejoin:round;stroke:rgb(0%,0%,0%);stroke-opacity:1;stroke-miterlimit:10;" d="M 330.820312 265.625 L 60.976562 548.125 L 155.039062 975.273438 " transform="matrix(0.1,0,0,-0.1,0,140)"/>
<path style=" stroke:none;fill-rule:nonzero;fill:rgb(0%,0%,0%);fill-opacity:1;" d="M 33.082031 113.4375 L 63.707031 136.488281 L 18.585938 88.335938 "/>
<path style="fill:none;stroke-width:4.17357;stroke-linecap:round;stroke-linejoin:round;stroke:rgb(0%,0%,0%);stroke-opacity:1;stroke-miterlimit:10;" d="M 330.820312 265.625 L 637.070312 35.117188 " transform="matrix(0.1,0,0,-0.1,0,140)"/>
<path style="fill-rule:nonzero;fill:rgb(0%,0%,0%);fill-opacity:1;stroke-width:4.17357;stroke-linecap:round;stroke-linejoin:round;stroke:rgb(0%,0%,0%);stroke-opacity:1;stroke-miterlimit:10;" d="M 185.859375 516.640625 L 60.976562 548.125 L 330.820312 265.625 " transform="matrix(0.1,0,0,-0.1,0,140)"/>
<path style="fill-rule:nonzero;fill:rgb(76.171875%,37.205505%,31.396484%);fill-opacity:1;stroke-width:4.17357;stroke-linecap:round;stroke-linejoin:round;stroke:rgb(0%,0%,0%);stroke-opacity:1;stroke-miterlimit:10;" d="M 155.039062 975.273438 L 341.679688 1261.289062 L 784.0625 1362.695312 " transform="matrix(0.1,0,0,-0.1,0,140)"/>
<path style="fill-rule:nonzero;fill:rgb(0%,10.888672%,63.476562%);fill-opacity:1;stroke-width:4.17357;stroke-linecap:round;stroke-linejoin:round;stroke:rgb(0%,0%,0%);stroke-opacity:1;stroke-miterlimit:10;" d="M 341.679688 1261.289062 L 155.039062 975.273438 L 60.976562 548.125 " transform="matrix(0.1,0,0,-0.1,0,140)"/>
<path style="fill-rule:nonzero;fill:rgb(27.293396%,31.297302%,72.264099%);fill-opacity:1;stroke-width:4.17357;stroke-linecap:round;stroke-linejoin:round;stroke:rgb(0%,0%,0%);stroke-opacity:1;stroke-miterlimit:10;" d="M 1361.640625 852.226562 L 1310.429688 402.929688 L 1055.507812 175.546875 " transform="matrix(0.1,0,0,-0.1,0,140)"/>
<path style="fill-rule:nonzero;fill:rgb(70.896912%,20.800781%,4.598999%);fill-opacity:1;stroke-width:4.17357;stroke-linecap:round;stroke-linejoin:round;stroke:rgb(0%,0%,0%);stroke-opacity:1;stroke-miterlimit:10;" d="M 1055.507812 175.546875 L 1310.429688 402.929688 L 1031.679688 417.890625 " transform="matrix(0.1,0,0,-0.1,0,140)"/>
<path style=" stroke:none;fill-rule:nonzero;fill:rgb(70.896912%,20.800781%,4.598999%);fill-opacity:1;" d="M 63.707031 136.488281 L 105.550781 122.445312 L 103.167969 98.210938 "/>
<path style="fill:none;stroke-width:4.17357;stroke-linecap:round;stroke-linejoin:round;stroke:rgb(0%,0%,0%);stroke-opacity:1;stroke-miterlimit:10;" d="M 637.070312 35.117188 L 1055.507812 175.546875 " transform="matrix(0.1,0,0,-0.1,0,140)"/>
<path style="fill-rule:nonzero;fill:rgb(63.28125%,77.539062%,94.921875%);fill-opacity:1;stroke-width:4.17357;stroke-linecap:round;stroke-linejoin:round;stroke:rgb(0%,0%,0%);stroke-opacity:1;stroke-miterlimit:10;" d="M 1137.382812 1188.007812 L 784.0625 1362.695312 L 341.679688 1261.289062 " transform="matrix(0.1,0,0,-0.1,0,140)"/>
<path style=" stroke:none;fill-rule:nonzero;fill:rgb(0%,10.888672%,63.476562%);fill-opacity:1;" d="M 6.097656 85.1875 L 18.585938 88.335938 L 34.167969 13.871094 "/>
<path style="fill:none;stroke-width:4.17357;stroke-linecap:round;stroke-linejoin:round;stroke:rgb(0%,0%,0%);stroke-opacity:1;stroke-miterlimit:10;" d="M 60.976562 548.125 L 185.859375 516.640625 " transform="matrix(0.1,0,0,-0.1,0,140)"/>
<path style="fill-rule:nonzero;fill:rgb(93.943787%,80.076599%,67.96875%);fill-opacity:1;stroke-width:4.17357;stroke-linecap:round;stroke-linejoin:round;stroke:rgb(0%,0%,0%);stroke-opacity:1;stroke-miterlimit:10;" d="M 1310.429688 402.929688 L 1361.640625 852.226562 L 1137.382812 1188.007812 " transform="matrix(0.1,0,0,-0.1,0,140)"/>
<path style="fill-rule:nonzero;fill:rgb(70.896912%,20.800781%,4.598999%);fill-opacity:1;stroke-width:4.17357;stroke-linecap:round;stroke-linejoin:round;stroke:rgb(0%,0%,0%);stroke-opacity:1;stroke-miterlimit:10;" d="M 1031.679688 417.890625 L 579.179688 166.5625 L 637.070312 35.117188 " transform="matrix(0.1,0,0,-0.1,0,140)"/>
<path style="fill-rule:nonzero;fill:rgb(0%,0%,0%);fill-opacity:1;stroke-width:4.17357;stroke-linecap:round;stroke-linejoin:round;stroke:rgb(0%,0%,0%);stroke-opacity:1;stroke-miterlimit:10;" d="M 637.070312 35.117188 L 579.179688 166.5625 L 185.859375 516.640625 " transform="matrix(0.1,0,0,-0.1,0,140)"/>
<path style="fill-rule:nonzero;fill:rgb(0%,10.888672%,63.476562%);fill-opacity:1;stroke-width:4.17357;stroke-linecap:round;stroke-linejoin:round;stroke:rgb(0%,0%,0%);stroke-opacity:1;stroke-miterlimit:10;" d="M 185.859375 516.640625 L 378.4375 997.382812 L 341.679688 1261.289062 " transform="matrix(0.1,0,0,-0.1,0,140)"/>
<path style=" stroke:none;fill-rule:nonzero;fill:rgb(63.28125%,77.539062%,94.921875%);fill-opacity:1;" d="M 34.167969 13.871094 L 37.84375 40.261719 L 113.738281 21.199219 "/>
<path style="fill:none;stroke-width:4.17357;stroke-linecap:round;stroke-linejoin:round;stroke:rgb(0%,0%,0%);stroke-opacity:1;stroke-miterlimit:10;" d="M 341.679688 1261.289062 L 378.4375 997.382812 " transform="matrix(0.1,0,0,-0.1,0,140)"/>
<path style=" stroke:none;fill-rule:nonzero;fill:rgb(93.943787%,80.076599%,67.96875%);fill-opacity:1;" d="M 103.167969 98.210938 L 131.042969 99.707031 L 113.738281 21.199219 "/>
<path style="fill:none;stroke-width:4.17357;stroke-linecap:round;stroke-linejoin:round;stroke:rgb(0%,0%,0%);stroke-opacity:1;stroke-miterlimit:10;" d="M 1031.679688 417.890625 L 1310.429688 402.929688 " transform="matrix(0.1,0,0,-0.1,0,140)"/>
<path style="fill-rule:nonzero;fill:rgb(93.943787%,80.076599%,67.96875%);fill-opacity:1;stroke-width:4.17357;stroke-linecap:round;stroke-linejoin:round;stroke:rgb(0%,0%,0%);stroke-opacity:1;stroke-miterlimit:10;" d="M 1137.382812 1188.007812 L 911.875 943.789062 L 1031.679688 417.890625 " transform="matrix(0.1,0,0,-0.1,0,140)"/>
<path style="fill-rule:nonzero;fill:rgb(63.28125%,77.539062%,94.921875%);fill-opacity:1;stroke-width:4.17357;stroke-linecap:round;stroke-linejoin:round;stroke:rgb(0%,0%,0%);stroke-opacity:1;stroke-miterlimit:10;" d="M 378.4375 997.382812 L 911.875 943.789062 L 1137.382812 1188.007812 " transform="matrix(0.1,0,0,-0.1,0,140)"/>
<path style="fill-rule:nonzero;fill:rgb(66.601562%,51.171875%,66.601562%);fill-opacity:1;stroke-width:4.17357;stroke-linecap:round;stroke-linejoin:round;stroke:rgb(0%,0%,0%);stroke-opacity:1;stroke-miterlimit:10;" d="M 579.179688 166.5625 L 185.859375 516.640625 L 378.4375 997.382812 " transform="matrix(0.1,0,0,-0.1,0,140)"/>
<path style=" stroke:none;fill-rule:nonzero;fill:rgb(66.601562%,51.171875%,66.601562%);fill-opacity:1;" d="M 103.167969 98.210938 L 57.917969 123.34375 L 37.84375 40.261719 "/>
<path style="fill:none;stroke-width:4.17357;stroke-linecap:round;stroke-linejoin:round;stroke:rgb(0%,0%,0%);stroke-opacity:1;stroke-miterlimit:10;" d="M 1031.679688 417.890625 L 579.179688 166.5625 " transform="matrix(0.1,0,0,-0.1,0,140)"/>
<path style="fill-rule:nonzero;fill:rgb(66.601562%,51.171875%,66.601562%);fill-opacity:1;stroke-width:4.17357;stroke-linecap:round;stroke-linejoin:round;stroke:rgb(0%,0%,0%);stroke-opacity:1;stroke-miterlimit:10;" d="M 378.4375 997.382812 L 911.875 943.789062 L 1031.679688 417.890625 " transform="matrix(0.1,0,0,-0.1,0,140)"/>
</g>
</svg>
