<?xml version="1.0" encoding="utf-8"?>
<!-- Generator: Adobe Illustrator 23.1.0, SVG Export Plug-In . SVG Version: 6.00 Build 0)  -->
<svg version="1.1" id="Слой_1" xmlns="http://www.w3.org/2000/svg" xmlns:xlink="http://www.w3.org/1999/xlink" x="0px" y="0px"
	 viewBox="0 0 171 237" style="enable-background:new 0 0 171 237;" xml:space="preserve">
<style type="text/css">
	.st0{fill:#D1ABB2;stroke:#000000;stroke-width:0.4345;stroke-linecap:round;stroke-linejoin:round;stroke-miterlimit:1;}
	.st1{fill:#8C73B1;stroke:#000000;stroke-width:0.4345;stroke-linecap:round;stroke-linejoin:round;stroke-miterlimit:1;}
	.st2{fill:#C26B68;}
	.st3{fill:none;stroke:#000000;stroke-width:0.4345;stroke-linecap:round;stroke-linejoin:round;stroke-miterlimit:1;}
	.st4{fill:#863964;}
	.st5{fill:#C2D3E7;}
	.st6{fill:#85A3E8;}
	.st7{fill:#00005B;stroke:#000000;stroke-width:0.4345;stroke-linecap:round;stroke-linejoin:round;stroke-miterlimit:1;}
	.st8{fill:#0036AB;}
	.st9{fill:#FFD078;stroke:#000000;stroke-width:0.4345;stroke-linecap:round;stroke-linejoin:round;stroke-miterlimit:1;}
	.st10{fill:#9BF1C3;}
	.st11{fill:#A11300;}
	.st12{fill:#A0C3F1;}
	.st13{fill:#A14557;}
	.st14{fill:#B292B5;stroke:#000000;stroke-width:0.4345;stroke-linecap:round;stroke-linejoin:round;stroke-miterlimit:1;}
</style>
<g id="surface1">
	<path class="st0" d="M9.1,169l80.3-3.2l0-90.8"/>
	<path class="st0" d="M89.4,75L9.2,71L9.1,169"/>
	<path class="st1" d="M165.9,70.6L89.4,75l0,90.8"/>
	<path class="st2" d="M89.4,75L9.2,71l77-65.5"/>
	<path class="st3" d="M89.4,75L9.2,71l77-65.5L89.4,75z"/>
	<path class="st4" d="M165.9,70.6L89.4,75L86.2,5.5"/>
	<path class="st3" d="M165.9,70.6L89.4,75L86.2,5.5L165.9,70.6z"/>
	<path class="st1" d="M89.4,165.9l76.6,3.5l-0.1-98.8"/>
	<path class="st5" d="M89.4,165.9L9.1,169l77.1,65.1"/>
	<path class="st3" d="M89.4,165.9L9.1,169l77.1,65.1L89.4,165.9z"/>
	<path class="st6" d="M166,169.4l-76.6-3.5l-3.2,68.3"/>
	<path class="st3" d="M166,169.4l-76.6-3.5l-3.2,68.3L166,169.4z"/>
	<path class="st7" d="M27,175.9L9.1,169L9.2,71"/>
	<path class="st7" d="M9.2,71l17.9-8.7L27,175.9"/>
	<path class="st8" d="M9.2,71l17.9-8.7L86.2,5.5"/>
	<path class="st3" d="M9.2,71l17.9-8.7L86.2,5.5L9.2,71z"/>
	<path d="M9.1,169l17.9,6.8l59.2,58.3"/>
	<path class="st3" d="M9.1,169l17.9,6.8l59.2,58.3L9.1,169z"/>
	<path class="st9" d="M139.1,61.9l26.8,8.6l0.1,98.8"/>
	<path class="st10" d="M139.1,61.9l26.8,8.6L86.2,5.5"/>
	<path class="st3" d="M139.1,61.9l26.8,8.6L86.2,5.5L139.1,61.9z"/>
	<path class="st9" d="M166,169.4l-26.8,6.8l0-114.2"/>
	<path class="st11" d="M139.1,176.1l26.8-6.8l-79.8,64.8"/>
	<path class="st3" d="M139.1,176.1l26.8-6.8l-79.8,64.8L139.1,176.1z"/>
	<path class="st12" d="M27.1,62.2l112-0.3L86.2,5.5"/>
	<path class="st3" d="M27.1,62.2l112-0.3L86.2,5.5L27.1,62.2z"/>
	<path class="st13" d="M27,175.9l112.2,0.3l-53,58.1"/>
	<path class="st3" d="M27,175.9l112.2,0.3l-53,58.1L27,175.9z"/>
	<path class="st14" d="M139.1,176.1L27,175.9l0.1-113.6"/>
	<path class="st14" d="M27.1,62.2l112-0.3l0,114.2"/>
</g>
</svg>
