<?xml version="1.0" encoding="UTF-8"?>
<svg xmlns="http://www.w3.org/2000/svg" xmlns:xlink="http://www.w3.org/1999/xlink" width="89.75pt" height="199.94pt" viewBox="0 0 89.75 199.94" version="1.2">
<g id="surface1">
<path style=" stroke:none;fill-rule:nonzero;fill:rgb(50.584412%,28.808594%,51.756287%);fill-opacity:1;" d="M 47.359375 4.917969 L 71.941406 91.382812 L 53.898438 89.347656 "/>
<path style="fill:none;stroke-width:5;stroke-linecap:round;stroke-linejoin:round;stroke:rgb(0%,0%,0%);stroke-opacity:1;stroke-miterlimit:10;" d="M 474.912953 1952.568001 L 721.418001 1085.511072 L 540.485724 1105.919325 Z M 474.912953 1952.568001 " transform="matrix(0.0997222,0,0,-0.0997222,0,199.632389)"/>
<path style=" stroke:none;fill-rule:nonzero;fill:rgb(54.296875%,48.193359%,73.826599%);fill-opacity:1;" d="M 47.296875 179.042969 L 71.941406 91.382812 L 53.898438 89.347656 "/>
<path style="fill:none;stroke-width:5;stroke-linecap:round;stroke-linejoin:round;stroke:rgb(0%,0%,0%);stroke-opacity:1;stroke-miterlimit:10;" d="M 474.286212 206.467723 L 721.418001 1085.511072 L 540.485724 1105.919325 Z M 474.286212 206.467723 " transform="matrix(0.0997222,0,0,-0.0997222,0,199.632389)"/>
<path style=" stroke:none;fill-rule:nonzero;fill:rgb(72.65625%,47.801208%,55.076599%);fill-opacity:1;" d="M 47.359375 4.917969 L 53.898438 89.347656 L 33.253906 89.824219 "/>
<path style="fill:none;stroke-width:5;stroke-linecap:round;stroke-linejoin:round;stroke:rgb(0%,0%,0%);stroke-opacity:1;stroke-miterlimit:10;" d="M 474.912953 1952.568001 L 540.485724 1105.919325 L 333.465355 1101.140425 Z M 474.912953 1952.568001 " transform="matrix(0.0997222,0,0,-0.0997222,0,199.632389)"/>
<path style=" stroke:none;fill-rule:nonzero;fill:rgb(73.631287%,63.084412%,74.21875%);fill-opacity:1;" d="M 47.296875 179.042969 L 53.898438 89.347656 L 33.253906 89.824219 "/>
<path style="fill:none;stroke-width:5;stroke-linecap:round;stroke-linejoin:round;stroke:rgb(0%,0%,0%);stroke-opacity:1;stroke-miterlimit:10;" d="M 474.286212 206.467723 L 540.485724 1105.919325 L 333.465355 1101.140425 Z M 474.286212 206.467723 " transform="matrix(0.0997222,0,0,-0.0997222,0,199.632389)"/>
<path style=" stroke:none;fill-rule:nonzero;fill:rgb(90.039062%,59.764099%,46.508789%);fill-opacity:1;" d="M 47.359375 4.917969 L 33.253906 89.824219 L 18.269531 92.652344 "/>
<path style="fill:none;stroke-width:5;stroke-linecap:round;stroke-linejoin:round;stroke:rgb(0%,0%,0%);stroke-opacity:1;stroke-miterlimit:10;" d="M 474.912953 1952.568001 L 333.465355 1101.140425 L 183.204213 1072.780397 Z M 474.912953 1952.568001 " transform="matrix(0.0997222,0,0,-0.0997222,0,199.632389)"/>
<path style=" stroke:none;fill-rule:nonzero;fill:rgb(89.84375%,78.709412%,73.046875%);fill-opacity:1;" d="M 47.296875 179.042969 L 33.253906 89.824219 L 18.269531 92.652344 "/>
<path style="fill:none;stroke-width:5;stroke-linecap:round;stroke-linejoin:round;stroke:rgb(0%,0%,0%);stroke-opacity:1;stroke-miterlimit:10;" d="M 474.286212 206.467723 L 333.465355 1101.140425 L 183.204213 1072.780397 Z M 474.286212 206.467723 " transform="matrix(0.0997222,0,0,-0.0997222,0,199.632389)"/>
<path style=" stroke:none;fill-rule:nonzero;fill:rgb(12.889099%,12.889099%,33.68988%);fill-opacity:1;" d="M 47.359375 4.917969 L 79.621094 95.21875 L 71.941406 91.382812 "/>
<path style="fill:none;stroke-width:5;stroke-linecap:round;stroke-linejoin:round;stroke:rgb(0%,0%,0%);stroke-opacity:1;stroke-miterlimit:10;" d="M 474.912953 1952.568001 L 798.428795 1047.044847 L 721.418001 1085.511072 Z M 474.912953 1952.568001 " transform="matrix(0.0997222,0,0,-0.0997222,0,199.632389)"/>
<path style=" stroke:none;fill-rule:nonzero;fill:rgb(7.591248%,16.992188%,66.014099%);fill-opacity:1;" d="M 47.296875 179.042969 L 79.621094 95.21875 L 71.941406 91.382812 "/>
<path style="fill:none;stroke-width:5;stroke-linecap:round;stroke-linejoin:round;stroke:rgb(0%,0%,0%);stroke-opacity:1;stroke-miterlimit:10;" d="M 474.286212 206.467723 L 798.428795 1047.044847 L 721.418001 1085.511072 Z M 474.286212 206.467723 " transform="matrix(0.0997222,0,0,-0.0997222,0,199.632389)"/>
<path style=" stroke:none;fill-rule:nonzero;fill:rgb(92.771912%,56.25%,14.793396%);fill-opacity:1;" d="M 47.296875 179.042969 L 79.621094 95.21875 L 72.164062 99.253906 "/>
<path style="fill:none;stroke-width:5;stroke-linecap:round;stroke-linejoin:round;stroke:rgb(0%,0%,0%);stroke-opacity:1;stroke-miterlimit:10;" d="M 474.286212 206.467723 L 798.428795 1047.044847 L 723.650766 1006.580884 Z M 474.286212 206.467723 " transform="matrix(0.0997222,0,0,-0.0997222,0,199.632389)"/>
<path style=" stroke:none;fill-rule:nonzero;fill:rgb(82.421875%,53.318787%,49.705505%);fill-opacity:1;" d="M 47.296875 179.042969 L 51.808594 101.390625 L 72.164062 99.253906 "/>
<path style="fill:none;stroke-width:5;stroke-linecap:round;stroke-linejoin:round;stroke:rgb(0%,0%,0%);stroke-opacity:1;stroke-miterlimit:10;" d="M 474.286212 206.467723 L 519.529074 985.154178 L 723.650766 1006.580884 Z M 474.286212 206.467723 " transform="matrix(0.0997222,0,0,-0.0997222,0,199.632389)"/>
<path style=" stroke:none;fill-rule:nonzero;fill:rgb(61.71875%,37.205505%,52.34375%);fill-opacity:1;" d="M 47.296875 179.042969 L 29.007812 100.363281 L 51.808594 101.390625 "/>
<path style="fill:none;stroke-width:5;stroke-linecap:round;stroke-linejoin:round;stroke:rgb(0%,0%,0%);stroke-opacity:1;stroke-miterlimit:10;" d="M 474.286212 206.467723 L 290.886142 995.456233 L 519.529074 985.154178 Z M 474.286212 206.467723 " transform="matrix(0.0997222,0,0,-0.0997222,0,199.632389)"/>
<path style=" stroke:none;fill-rule:nonzero;fill:rgb(89.451599%,89.646912%,47.996521%);fill-opacity:1;" d="M 47.296875 179.042969 L 18.269531 92.652344 L 15.980469 96.796875 "/>
<path style="fill:none;stroke-width:5;stroke-linecap:round;stroke-linejoin:round;stroke:rgb(0%,0%,0%);stroke-opacity:1;stroke-miterlimit:10;" d="M 474.286212 206.467723 L 183.204213 1072.780397 L 160.249826 1031.219638 Z M 474.286212 206.467723 " transform="matrix(0.0997222,0,0,-0.0997222,0,199.632389)"/>
<path style=" stroke:none;fill-rule:nonzero;fill:rgb(20.701599%,0.0991821%,36.401367%);fill-opacity:1;" d="M 47.296875 179.042969 L 15.980469 96.796875 L 29.007812 100.363281 "/>
<path style="fill:none;stroke-width:5;stroke-linecap:round;stroke-linejoin:round;stroke:rgb(0%,0%,0%);stroke-opacity:1;stroke-miterlimit:10;" d="M 474.286212 206.467723 L 160.249826 1031.219638 L 290.886142 995.456233 Z M 474.286212 206.467723 " transform="matrix(0.0997222,0,0,-0.0997222,0,199.632389)"/>
<path style=" stroke:none;fill-rule:nonzero;fill:rgb(73.631287%,41.308594%,0%);fill-opacity:1;" d="M 47.359375 4.917969 L 18.269531 92.652344 L 15.980469 96.796875 "/>
<path style="fill:none;stroke-width:5;stroke-linecap:round;stroke-linejoin:round;stroke:rgb(0%,0%,0%);stroke-opacity:1;stroke-miterlimit:10;" d="M 474.912953 1952.568001 L 183.204213 1072.780397 L 160.249826 1031.219638 Z M 474.912953 1952.568001 " transform="matrix(0.0997222,0,0,-0.0997222,0,199.632389)"/>
<path style=" stroke:none;fill-rule:nonzero;fill:rgb(98.046875%,91.014099%,64.451599%);fill-opacity:1;" d="M 47.359375 4.917969 L 79.621094 95.21875 L 72.164062 99.253906 "/>
<path style="fill:none;stroke-width:5;stroke-linecap:round;stroke-linejoin:round;stroke:rgb(0%,0%,0%);stroke-opacity:1;stroke-miterlimit:10;" d="M 474.912953 1952.568001 L 798.428795 1047.044847 L 723.650766 1006.580884 Z M 474.912953 1952.568001 " transform="matrix(0.0997222,0,0,-0.0997222,0,199.632389)"/>
<path style=" stroke:none;fill-rule:nonzero;fill:rgb(31.396484%,32.788086%,71.484375%);fill-opacity:1;" d="M 47.359375 4.917969 L 15.980469 96.796875 L 29.007812 100.363281 "/>
<path style="fill:none;stroke-width:5;stroke-linecap:round;stroke-linejoin:round;stroke:rgb(0%,0%,0%);stroke-opacity:1;stroke-miterlimit:10;" d="M 474.912953 1952.568001 L 160.249826 1031.219638 L 290.886142 995.456233 Z M 474.912953 1952.568001 " transform="matrix(0.0997222,0,0,-0.0997222,0,199.632389)"/>
<path style=" stroke:none;fill-rule:nonzero;fill:rgb(82.8125%,71.875%,74.21875%);fill-opacity:1;" d="M 47.359375 4.917969 L 51.808594 101.390625 L 72.164062 99.253906 "/>
<path style="fill:none;stroke-width:5;stroke-linecap:round;stroke-linejoin:round;stroke:rgb(0%,0%,0%);stroke-opacity:1;stroke-miterlimit:10;" d="M 474.912953 1952.568001 L 519.529074 985.154178 L 723.650766 1006.580884 Z M 474.912953 1952.568001 " transform="matrix(0.0997222,0,0,-0.0997222,0,199.632389)"/>
<path style=" stroke:none;fill-rule:nonzero;fill:rgb(64.256287%,55.859375%,74.414062%);fill-opacity:1;" d="M 47.359375 4.917969 L 29.007812 100.363281 L 51.808594 101.390625 "/>
<path style="fill:none;stroke-width:5;stroke-linecap:round;stroke-linejoin:round;stroke:rgb(0%,0%,0%);stroke-opacity:1;stroke-miterlimit:10;" d="M 474.912953 1952.568001 L 290.886142 995.456233 L 519.529074 985.154178 Z M 474.912953 1952.568001 " transform="matrix(0.0997222,0,0,-0.0997222,0,199.632389)"/>
</g>
</svg>
