<?xml version="1.0" encoding="UTF-8"?>
<svg xmlns="http://www.w3.org/2000/svg" xmlns:xlink="http://www.w3.org/1999/xlink" width="198.31pt" height="199pt" viewBox="0 0 198.31 199" version="1.2">
<g id="surface1">
<path style=" stroke:none;fill-rule:nonzero;fill:rgb(44.091797%,52.539062%,84.764099%);fill-opacity:1;" d="M 106.503906 74.359375 L 97.234375 93.941406 L 61.527344 86.511719 "/>
<path style="fill:none;stroke-width:5;stroke-linecap:round;stroke-linejoin:round;stroke:rgb(0%,0%,0%);stroke-opacity:1;stroke-miterlimit:10;" d="M 1068.74476 1247.280993 L 975.726924 1050.779343 L 617.41422 1125.334727 Z M 1068.74476 1247.280993 " transform="matrix(0.0996533,0,0,-0.0996533,0,198.655)"/>
<path style=" stroke:none;fill-rule:nonzero;fill:rgb(33.300781%,9.594727%,39.598083%);fill-opacity:1;" d="M 102.785156 112.722656 L 97.234375 93.941406 L 61.527344 86.511719 "/>
<path style="fill:none;stroke-width:5;stroke-linecap:round;stroke-linejoin:round;stroke:rgb(0%,0%,0%);stroke-opacity:1;stroke-miterlimit:10;" d="M 1031.42787 862.313368 L 975.726924 1050.779343 L 617.41422 1125.334727 Z M 1031.42787 862.313368 " transform="matrix(0.0996533,0,0,-0.0996533,0,198.655)"/>
<path style=" stroke:none;fill-rule:nonzero;fill:rgb(61.326599%,95.506287%,89.451599%);fill-opacity:1;" d="M 102.785156 112.722656 L 86.34375 107.542969 L 61.527344 86.511719 "/>
<path style="fill:none;stroke-width:5;stroke-linecap:round;stroke-linejoin:round;stroke:rgb(0%,0%,0%);stroke-opacity:1;stroke-miterlimit:10;" d="M 1031.42787 862.313368 L 866.441745 914.290465 L 617.41422 1125.334727 Z M 1031.42787 862.313368 " transform="matrix(0.0996533,0,0,-0.0996533,0,198.655)"/>
<path style=" stroke:none;fill-rule:nonzero;fill:rgb(44.091797%,52.539062%,84.764099%);fill-opacity:1;" d="M 67.445312 123.03125 L 86.34375 107.542969 L 61.527344 86.511719 "/>
<path style="fill:none;stroke-width:5;stroke-linecap:round;stroke-linejoin:round;stroke:rgb(0%,0%,0%);stroke-opacity:1;stroke-miterlimit:10;" d="M 676.799818 758.868753 L 866.441745 914.290465 L 617.41422 1125.334727 Z M 676.799818 758.868753 " transform="matrix(0.0996533,0,0,-0.0996533,0,198.655)"/>
<path style=" stroke:none;fill-rule:nonzero;fill:rgb(0%,0%,43.188477%);fill-opacity:1;" d="M 67.445312 123.03125 L 71.195312 101.257812 L 61.527344 86.511719 "/>
<path style="fill:none;stroke-width:5;stroke-linecap:round;stroke-linejoin:round;stroke:rgb(0%,0%,0%);stroke-opacity:1;stroke-miterlimit:10;" d="M 676.799818 758.868753 L 714.430295 977.360714 L 617.41422 1125.334727 Z M 676.799818 758.868753 " transform="matrix(0.0996533,0,0,-0.0996533,0,198.655)"/>
<path style=" stroke:none;fill-rule:nonzero;fill:rgb(61.326599%,95.506287%,89.451599%);fill-opacity:1;" d="M 48.5 90.140625 L 71.195312 101.257812 L 61.527344 86.511719 "/>
<path style="fill:none;stroke-width:5;stroke-linecap:round;stroke-linejoin:round;stroke:rgb(0%,0%,0%);stroke-opacity:1;stroke-miterlimit:10;" d="M 486.687509 1088.9194 L 714.430295 977.360714 L 617.41422 1125.334727 Z M 486.687509 1088.9194 " transform="matrix(0.0996533,0,0,-0.0996533,0,198.655)"/>
<path style=" stroke:none;fill-rule:nonzero;fill:rgb(0%,40.893555%,68.554688%);fill-opacity:1;" d="M 48.5 90.140625 L 72.84375 83.53125 L 61.527344 86.511719 "/>
<path style="fill:none;stroke-width:5;stroke-linecap:round;stroke-linejoin:round;stroke:rgb(0%,0%,0%);stroke-opacity:1;stroke-miterlimit:10;" d="M 486.687509 1088.9194 L 730.972026 1155.243117 L 617.41422 1125.334727 Z M 486.687509 1088.9194 " transform="matrix(0.0996533,0,0,-0.0996533,0,198.655)"/>
<path style=" stroke:none;fill-rule:nonzero;fill:rgb(0%,40.893555%,68.554688%);fill-opacity:1;" d="M 106.503906 74.359375 L 89.042969 79.125 L 61.527344 86.511719 "/>
<path style="fill:none;stroke-width:5;stroke-linecap:round;stroke-linejoin:round;stroke:rgb(0%,0%,0%);stroke-opacity:1;stroke-miterlimit:10;" d="M 1068.74476 1247.280993 L 893.527849 1199.458928 L 617.41422 1125.334727 Z M 1068.74476 1247.280993 " transform="matrix(0.0996533,0,0,-0.0996533,0,198.655)"/>
<path style=" stroke:none;fill-rule:nonzero;fill:rgb(33.300781%,9.594727%,39.598083%);fill-opacity:1;" d="M 73.328125 59.699219 L 89.042969 79.125 L 61.527344 86.511719 "/>
<path style="fill:none;stroke-width:5;stroke-linecap:round;stroke-linejoin:round;stroke:rgb(0%,0%,0%);stroke-opacity:1;stroke-miterlimit:10;" d="M 735.832629 1394.392641 L 893.527849 1199.458928 L 617.41422 1125.334727 Z M 735.832629 1394.392641 " transform="matrix(0.0996533,0,0,-0.0996533,0,198.655)"/>
<path style=" stroke:none;fill-rule:nonzero;fill:rgb(0%,0%,43.188477%);fill-opacity:1;" d="M 73.328125 59.699219 L 72.84375 83.53125 L 61.527344 86.511719 "/>
<path style="fill:none;stroke-width:5;stroke-linecap:round;stroke-linejoin:round;stroke:rgb(0%,0%,0%);stroke-opacity:1;stroke-miterlimit:10;" d="M 735.832629 1394.392641 L 730.972026 1155.243117 L 617.41422 1125.334727 Z M 735.832629 1394.392641 " transform="matrix(0.0996533,0,0,-0.0996533,0,198.655)"/>
<path style=" stroke:none;fill-rule:nonzero;fill:rgb(82.617188%,77.929688%,80.859375%);fill-opacity:1;" d="M 130.394531 130.261719 L 114.5625 110.683594 L 157.304688 96.8125 "/>
<path style="fill:none;stroke-width:5;stroke-linecap:round;stroke-linejoin:round;stroke:rgb(0%,0%,0%);stroke-opacity:1;stroke-miterlimit:10;" d="M 1308.482261 686.312489 L 1149.611089 882.77494 L 1578.520136 1021.968509 Z M 1308.482261 686.312489 " transform="matrix(0.0996533,0,0,-0.0996533,0,198.655)"/>
<path style=" stroke:none;fill-rule:nonzero;fill:rgb(95.896912%,74.21875%,56.834412%);fill-opacity:1;" d="M 130.394531 130.261719 L 128.34375 107.5625 L 157.304688 96.8125 "/>
<path style="fill:none;stroke-width:5;stroke-linecap:round;stroke-linejoin:round;stroke:rgb(0%,0%,0%);stroke-opacity:1;stroke-miterlimit:10;" d="M 1308.482261 686.312489 L 1287.903094 914.094473 L 1578.520136 1021.968509 Z M 1308.482261 686.312489 " transform="matrix(0.0996533,0,0,-0.0996533,0,198.655)"/>
<path style=" stroke:none;fill-rule:nonzero;fill:rgb(0%,50.389099%,79.881287%);fill-opacity:1;" d="M 152.488281 101.429688 L 128.34375 107.5625 L 157.304688 96.8125 "/>
<path style="fill:none;stroke-width:5;stroke-linecap:round;stroke-linejoin:round;stroke:rgb(0%,0%,0%);stroke-opacity:1;stroke-miterlimit:10;" d="M 1530.188491 975.635983 L 1287.903094 914.094473 L 1578.520136 1021.968509 Z M 1530.188491 975.635983 " transform="matrix(0.0996533,0,0,-0.0996533,0,198.655)"/>
<path style=" stroke:none;fill-rule:nonzero;fill:rgb(0%,50.389099%,79.881287%);fill-opacity:1;" d="M 102.785156 112.722656 L 114.5625 110.683594 L 157.304688 96.8125 "/>
<path style="fill:none;stroke-width:5;stroke-linecap:round;stroke-linejoin:round;stroke:rgb(0%,0%,0%);stroke-opacity:1;stroke-miterlimit:10;" d="M 1031.42787 862.313368 L 1149.611089 882.77494 L 1578.520136 1021.968509 Z M 1031.42787 862.313368 " transform="matrix(0.0996533,0,0,-0.0996533,0,198.655)"/>
<path style=" stroke:none;fill-rule:nonzero;fill:rgb(79.492188%,47.705078%,45.288086%);fill-opacity:1;" d="M 102.785156 112.722656 L 107.957031 95.101562 L 157.304688 96.8125 "/>
<path style="fill:none;stroke-width:5;stroke-linecap:round;stroke-linejoin:round;stroke:rgb(0%,0%,0%);stroke-opacity:1;stroke-miterlimit:10;" d="M 1031.42787 862.313368 L 1083.32657 1039.137414 L 1578.520136 1021.968509 Z M 1031.42787 862.313368 " transform="matrix(0.0996533,0,0,-0.0996533,0,198.655)"/>
<path style=" stroke:none;fill-rule:nonzero;fill:rgb(82.617188%,77.929688%,80.859375%);fill-opacity:1;" d="M 106.503906 74.359375 L 107.957031 95.101562 L 157.304688 96.8125 "/>
<path style="fill:none;stroke-width:5;stroke-linecap:round;stroke-linejoin:round;stroke:rgb(0%,0%,0%);stroke-opacity:1;stroke-miterlimit:10;" d="M 1068.74476 1247.280993 L 1083.32657 1039.137414 L 1578.520136 1021.968509 Z M 1068.74476 1247.280993 " transform="matrix(0.0996533,0,0,-0.0996533,0,198.655)"/>
<path style=" stroke:none;fill-rule:nonzero;fill:rgb(53.514099%,92.381287%,83.59375%);fill-opacity:1;" d="M 106.503906 74.359375 L 117.371094 82.113281 L 157.304688 96.8125 "/>
<path style="fill:none;stroke-width:5;stroke-linecap:round;stroke-linejoin:round;stroke:rgb(0%,0%,0%);stroke-opacity:1;stroke-miterlimit:10;" d="M 1068.74476 1247.280993 L 1177.794748 1169.472141 L 1578.520136 1021.968509 Z M 1068.74476 1247.280993 " transform="matrix(0.0996533,0,0,-0.0996533,0,198.655)"/>
<path style=" stroke:none;fill-rule:nonzero;fill:rgb(79.492188%,47.705078%,45.288086%);fill-opacity:1;" d="M 136.832031 66.164062 L 117.371094 82.113281 L 157.304688 96.8125 "/>
<path style="fill:none;stroke-width:5;stroke-linecap:round;stroke-linejoin:round;stroke:rgb(0%,0%,0%);stroke-opacity:1;stroke-miterlimit:10;" d="M 1373.081247 1329.519266 L 1177.794748 1169.472141 L 1578.520136 1021.968509 Z M 1373.081247 1329.519266 " transform="matrix(0.0996533,0,0,-0.0996533,0,198.655)"/>
<path style=" stroke:none;fill-rule:nonzero;fill:rgb(95.896912%,74.21875%,56.834412%);fill-opacity:1;" d="M 136.832031 66.164062 L 130.132812 89.644531 L 157.304688 96.8125 "/>
<path style="fill:none;stroke-width:5;stroke-linecap:round;stroke-linejoin:round;stroke:rgb(0%,0%,0%);stroke-opacity:1;stroke-miterlimit:10;" d="M 1373.081247 1329.519266 L 1305.855967 1093.897599 L 1578.520136 1021.968509 Z M 1373.081247 1329.519266 " transform="matrix(0.0996533,0,0,-0.0996533,0,198.655)"/>
<path style=" stroke:none;fill-rule:nonzero;fill:rgb(53.514099%,92.381287%,83.59375%);fill-opacity:1;" d="M 152.488281 101.429688 L 130.132812 89.644531 L 157.304688 96.8125 "/>
<path style="fill:none;stroke-width:5;stroke-linecap:round;stroke-linejoin:round;stroke:rgb(0%,0%,0%);stroke-opacity:1;stroke-miterlimit:10;" d="M 1530.188491 975.635983 L 1305.855967 1093.897599 L 1578.520136 1021.968509 Z M 1530.188491 975.635983 " transform="matrix(0.0996533,0,0,-0.0996533,0,198.655)"/>
<path style=" stroke:none;fill-rule:nonzero;fill:rgb(65.818787%,46.09375%,60.546875%);fill-opacity:1;" d="M 67.445312 123.03125 L 90.320312 117.222656 L 96.835938 174.0625 "/>
<path style="fill:none;stroke-width:5;stroke-linecap:round;stroke-linejoin:round;stroke:rgb(0%,0%,0%);stroke-opacity:1;stroke-miterlimit:10;" d="M 676.799818 758.868753 L 906.345731 817.156795 L 971.728686 246.780672 Z M 676.799818 758.868753 " transform="matrix(0.0996533,0,0,-0.0996533,0,198.655)"/>
<path style=" stroke:none;fill-rule:nonzero;fill:rgb(28.808594%,4.199219%,35.594177%);fill-opacity:1;" d="M 67.445312 123.03125 L 81.601562 126.957031 L 96.835938 174.0625 "/>
<path style="fill:none;stroke-width:5;stroke-linecap:round;stroke-linejoin:round;stroke:rgb(0%,0%,0%);stroke-opacity:1;stroke-miterlimit:10;" d="M 676.799818 758.868753 L 818.854871 719.474347 L 971.728686 246.780672 Z M 676.799818 758.868753 " transform="matrix(0.0996533,0,0,-0.0996533,0,198.655)"/>
<path style=" stroke:none;fill-rule:nonzero;fill:rgb(94.53125%,73.4375%,58.789062%);fill-opacity:1;" d="M 71.527344 148.242188 L 81.601562 126.957031 L 96.835938 174.0625 "/>
<path style="fill:none;stroke-width:5;stroke-linecap:round;stroke-linejoin:round;stroke:rgb(0%,0%,0%);stroke-opacity:1;stroke-miterlimit:10;" d="M 717.762161 505.882189 L 818.854871 719.474347 L 971.728686 246.780672 Z M 717.762161 505.882189 " transform="matrix(0.0996533,0,0,-0.0996533,0,198.655)"/>
<path style=" stroke:none;fill-rule:nonzero;fill:rgb(94.53125%,73.4375%,58.789062%);fill-opacity:1;" d="M 102.785156 112.722656 L 90.320312 117.222656 L 96.835938 174.0625 "/>
<path style="fill:none;stroke-width:5;stroke-linecap:round;stroke-linejoin:round;stroke:rgb(0%,0%,0%);stroke-opacity:1;stroke-miterlimit:10;" d="M 1031.42787 862.313368 L 906.345731 817.156795 L 971.728686 246.780672 Z M 1031.42787 862.313368 " transform="matrix(0.0996533,0,0,-0.0996533,0,198.655)"/>
<path style=" stroke:none;fill-rule:nonzero;fill:rgb(0%,0%,49.510193%);fill-opacity:1;" d="M 102.785156 112.722656 L 107.820312 119.199219 L 96.835938 174.0625 "/>
<path style="fill:none;stroke-width:5;stroke-linecap:round;stroke-linejoin:round;stroke:rgb(0%,0%,0%);stroke-opacity:1;stroke-miterlimit:10;" d="M 1031.42787 862.313368 L 1081.954626 797.322398 L 971.728686 246.780672 Z M 1031.42787 862.313368 " transform="matrix(0.0996533,0,0,-0.0996533,0,198.655)"/>
<path style=" stroke:none;fill-rule:nonzero;fill:rgb(65.818787%,46.09375%,60.546875%);fill-opacity:1;" d="M 130.394531 130.261719 L 107.820312 119.199219 L 96.835938 174.0625 "/>
<path style="fill:none;stroke-width:5;stroke-linecap:round;stroke-linejoin:round;stroke:rgb(0%,0%,0%);stroke-opacity:1;stroke-miterlimit:10;" d="M 1308.482261 686.312489 L 1081.954626 797.322398 L 971.728686 246.780672 Z M 1308.482261 686.312489 " transform="matrix(0.0996533,0,0,-0.0996533,0,198.655)"/>
<path style=" stroke:none;fill-rule:nonzero;fill:rgb(79.6875%,46.604919%,42.893982%);fill-opacity:1;" d="M 130.394531 130.261719 L 110.425781 130.28125 L 96.835938 174.0625 "/>
<path style="fill:none;stroke-width:5;stroke-linecap:round;stroke-linejoin:round;stroke:rgb(0%,0%,0%);stroke-opacity:1;stroke-miterlimit:10;" d="M 1308.482261 686.312489 L 1108.099968 686.116497 L 971.728686 246.780672 Z M 1308.482261 686.312489 " transform="matrix(0.0996533,0,0,-0.0996533,0,198.655)"/>
<path style=" stroke:none;fill-rule:nonzero;fill:rgb(0%,0%,49.510193%);fill-opacity:1;" d="M 112.027344 153.097656 L 110.425781 130.28125 L 96.835938 174.0625 "/>
<path style="fill:none;stroke-width:5;stroke-linecap:round;stroke-linejoin:round;stroke:rgb(0%,0%,0%);stroke-opacity:1;stroke-miterlimit:10;" d="M 1124.171318 457.15856 L 1108.099968 686.116497 L 971.728686 246.780672 Z M 1124.171318 457.15856 " transform="matrix(0.0996533,0,0,-0.0996533,0,198.655)"/>
<path style=" stroke:none;fill-rule:nonzero;fill:rgb(28.808594%,4.199219%,35.594177%);fill-opacity:1;" d="M 112.027344 153.097656 L 94.007812 135.242188 L 96.835938 174.0625 "/>
<path style="fill:none;stroke-width:5;stroke-linecap:round;stroke-linejoin:round;stroke:rgb(0%,0%,0%);stroke-opacity:1;stroke-miterlimit:10;" d="M 1124.171318 457.15856 L 943.349034 636.334511 L 971.728686 246.780672 Z M 1124.171318 457.15856 " transform="matrix(0.0996533,0,0,-0.0996533,0,198.655)"/>
<path style=" stroke:none;fill-rule:nonzero;fill:rgb(79.6875%,46.604919%,42.893982%);fill-opacity:1;" d="M 71.527344 148.242188 L 94.007812 135.242188 L 96.835938 174.0625 "/>
<path style="fill:none;stroke-width:5;stroke-linecap:round;stroke-linejoin:round;stroke:rgb(0%,0%,0%);stroke-opacity:1;stroke-miterlimit:10;" d="M 717.762161 505.882189 L 943.349034 636.334511 L 971.728686 246.780672 Z M 717.762161 505.882189 " transform="matrix(0.0996533,0,0,-0.0996533,0,198.655)"/>
<path style=" stroke:none;fill-rule:nonzero;fill:rgb(94.53125%,73.4375%,58.789062%);fill-opacity:1;" d="M 102.785156 112.722656 L 106.503906 74.359375 L 97.234375 93.941406 "/>
<path style="fill:none;stroke-width:5;stroke-linecap:round;stroke-linejoin:round;stroke:rgb(0%,0%,0%);stroke-opacity:1;stroke-miterlimit:10;" d="M 1031.42787 862.313368 L 1068.74476 1247.280993 L 975.726924 1050.779343 Z M 1031.42787 862.313368 " transform="matrix(0.0996533,0,0,-0.0996533,0,198.655)"/>
<path style=" stroke:none;fill-rule:nonzero;fill:rgb(79.492188%,47.705078%,45.288086%);fill-opacity:1;" d="M 67.445312 123.03125 L 102.785156 112.722656 L 86.34375 107.542969 "/>
<path style="fill:none;stroke-width:5;stroke-linecap:round;stroke-linejoin:round;stroke:rgb(0%,0%,0%);stroke-opacity:1;stroke-miterlimit:10;" d="M 676.799818 758.868753 L 1031.42787 862.313368 L 866.441745 914.290465 Z M 676.799818 758.868753 " transform="matrix(0.0996533,0,0,-0.0996533,0,198.655)"/>
<path style=" stroke:none;fill-rule:nonzero;fill:rgb(33.300781%,9.594727%,39.598083%);fill-opacity:1;" d="M 102.785156 112.722656 L 130.394531 130.261719 L 114.5625 110.683594 "/>
<path style="fill:none;stroke-width:5;stroke-linecap:round;stroke-linejoin:round;stroke:rgb(0%,0%,0%);stroke-opacity:1;stroke-miterlimit:10;" d="M 1031.42787 862.313368 L 1308.482261 686.312489 L 1149.611089 882.77494 Z M 1031.42787 862.313368 " transform="matrix(0.0996533,0,0,-0.0996533,0,198.655)"/>
<path style=" stroke:none;fill-rule:nonzero;fill:rgb(0%,0%,49.510193%);fill-opacity:1;" d="M 106.503906 74.359375 L 102.785156 112.722656 L 107.957031 95.101562 "/>
<path style="fill:none;stroke-width:5;stroke-linecap:round;stroke-linejoin:round;stroke:rgb(0%,0%,0%);stroke-opacity:1;stroke-miterlimit:10;" d="M 1068.74476 1247.280993 L 1031.42787 862.313368 L 1083.32657 1039.137414 Z M 1068.74476 1247.280993 " transform="matrix(0.0996533,0,0,-0.0996533,0,198.655)"/>
<path style=" stroke:none;fill-rule:nonzero;fill:rgb(0%,50.389099%,79.881287%);fill-opacity:1;" d="M 102.785156 112.722656 L 67.445312 123.03125 L 90.320312 117.222656 "/>
<path style="fill:none;stroke-width:5;stroke-linecap:round;stroke-linejoin:round;stroke:rgb(0%,0%,0%);stroke-opacity:1;stroke-miterlimit:10;" d="M 1031.42787 862.313368 L 676.799818 758.868753 L 906.345731 817.156795 Z M 1031.42787 862.313368 " transform="matrix(0.0996533,0,0,-0.0996533,0,198.655)"/>
<path style=" stroke:none;fill-rule:nonzero;fill:rgb(61.326599%,95.506287%,89.451599%);fill-opacity:1;" d="M 130.394531 130.261719 L 102.785156 112.722656 L 107.820312 119.199219 "/>
<path style="fill:none;stroke-width:5;stroke-linecap:round;stroke-linejoin:round;stroke:rgb(0%,0%,0%);stroke-opacity:1;stroke-miterlimit:10;" d="M 1308.482261 686.312489 L 1031.42787 862.313368 L 1081.954626 797.322398 Z M 1308.482261 686.312489 " transform="matrix(0.0996533,0,0,-0.0996533,0,198.655)"/>
<path style=" stroke:none;fill-rule:nonzero;fill:rgb(44.091797%,52.539062%,84.764099%);fill-opacity:1;" d="M 136.832031 66.164062 L 106.503906 74.359375 L 117.371094 82.113281 "/>
<path style="fill:none;stroke-width:5;stroke-linecap:round;stroke-linejoin:round;stroke:rgb(0%,0%,0%);stroke-opacity:1;stroke-miterlimit:10;" d="M 1373.081247 1329.519266 L 1068.74476 1247.280993 L 1177.794748 1169.472141 Z M 1373.081247 1329.519266 " transform="matrix(0.0996533,0,0,-0.0996533,0,198.655)"/>
<path style=" stroke:none;fill-rule:nonzero;fill:rgb(0%,40.893555%,68.554688%);fill-opacity:1;" d="M 106.503906 74.359375 L 136.832031 66.164062 L 112.347656 72.8125 "/>
<path style="fill:none;stroke-width:5;stroke-linecap:round;stroke-linejoin:round;stroke:rgb(0%,0%,0%);stroke-opacity:1;stroke-miterlimit:10;" d="M 1068.74476 1247.280993 L 1373.081247 1329.519266 L 1127.385588 1262.803565 Z M 1068.74476 1247.280993 " transform="matrix(0.0996533,0,0,-0.0996533,0,198.655)"/>
<path style=" stroke:none;fill-rule:nonzero;fill:rgb(0%,0%,49.510193%);fill-opacity:1;" d="M 106.503906 74.359375 L 112.347656 72.8125 L 112.59375 11.550781 "/>
<path style="fill:none;stroke-width:5;stroke-linecap:round;stroke-linejoin:round;stroke:rgb(0%,0%,0%);stroke-opacity:1;stroke-miterlimit:10;" d="M 1068.74476 1247.280993 L 1127.385588 1262.803565 L 1129.855088 1877.552293 Z M 1068.74476 1247.280993 " transform="matrix(0.0996533,0,0,-0.0996533,0,198.655)"/>
<path style=" stroke:none;fill-rule:nonzero;fill:rgb(82.617188%,77.929688%,80.859375%);fill-opacity:1;" d="M 106.503906 74.359375 L 73.328125 59.699219 L 89.042969 79.125 "/>
<path style="fill:none;stroke-width:5;stroke-linecap:round;stroke-linejoin:round;stroke:rgb(0%,0%,0%);stroke-opacity:1;stroke-miterlimit:10;" d="M 1068.74476 1247.280993 L 735.832629 1394.392641 L 893.527849 1199.458928 Z M 1068.74476 1247.280993 " transform="matrix(0.0996533,0,0,-0.0996533,0,198.655)"/>
<path style=" stroke:none;fill-rule:nonzero;fill:rgb(53.514099%,92.381287%,83.59375%);fill-opacity:1;" d="M 73.328125 59.699219 L 106.503906 74.359375 L 94.738281 70.984375 "/>
<path style="fill:none;stroke-width:5;stroke-linecap:round;stroke-linejoin:round;stroke:rgb(0%,0%,0%);stroke-opacity:1;stroke-miterlimit:10;" d="M 735.832629 1394.392641 L 1068.74476 1247.280993 L 950.679137 1281.148423 Z M 735.832629 1394.392641 " transform="matrix(0.0996533,0,0,-0.0996533,0,198.655)"/>
<path style=" stroke:none;fill-rule:nonzero;fill:rgb(94.53125%,73.4375%,58.789062%);fill-opacity:1;" d="M 106.503906 74.359375 L 94.738281 70.984375 L 112.59375 11.550781 "/>
<path style="fill:none;stroke-width:5;stroke-linecap:round;stroke-linejoin:round;stroke:rgb(0%,0%,0%);stroke-opacity:1;stroke-miterlimit:10;" d="M 1068.74476 1247.280993 L 950.679137 1281.148423 L 1129.855088 1877.552293 Z M 1068.74476 1247.280993 " transform="matrix(0.0996533,0,0,-0.0996533,0,198.655)"/>
<path style=" stroke:none;fill-rule:nonzero;fill:rgb(68.164062%,60.546875%,76.5625%);fill-opacity:1;" d="M 136.832031 66.164062 L 112.347656 72.8125 L 112.59375 11.550781 "/>
<path style="fill:none;stroke-width:5;stroke-linecap:round;stroke-linejoin:round;stroke:rgb(0%,0%,0%);stroke-opacity:1;stroke-miterlimit:10;" d="M 1373.081247 1329.519266 L 1127.385588 1262.803565 L 1129.855088 1877.552293 Z M 1373.081247 1329.519266 " transform="matrix(0.0996533,0,0,-0.0996533,0,198.655)"/>
<path style=" stroke:none;fill-rule:nonzero;fill:rgb(83.201599%,79.296875%,81.443787%);fill-opacity:1;" d="M 136.832031 66.164062 L 116.84375 64.839844 L 112.59375 11.550781 "/>
<path style="fill:none;stroke-width:5;stroke-linecap:round;stroke-linejoin:round;stroke:rgb(0%,0%,0%);stroke-opacity:1;stroke-miterlimit:10;" d="M 1373.081247 1329.519266 L 1172.502963 1342.807528 L 1129.855088 1877.552293 Z M 1373.081247 1329.519266 " transform="matrix(0.0996533,0,0,-0.0996533,0,198.655)"/>
<path style=" stroke:none;fill-rule:nonzero;fill:rgb(0%,0%,49.510193%);fill-opacity:1;" d="M 122.679688 44.96875 L 116.84375 64.839844 L 112.59375 11.550781 "/>
<path style="fill:none;stroke-width:5;stroke-linecap:round;stroke-linejoin:round;stroke:rgb(0%,0%,0%);stroke-opacity:1;stroke-miterlimit:10;" d="M 1231.065393 1542.209861 L 1172.502963 1342.807528 L 1129.855088 1877.552293 Z M 1231.065393 1542.209861 " transform="matrix(0.0996533,0,0,-0.0996533,0,198.655)"/>
<path style=" stroke:none;fill-rule:nonzero;fill:rgb(68.164062%,60.546875%,76.5625%);fill-opacity:1;" d="M 73.328125 59.699219 L 94.738281 70.984375 L 112.59375 11.550781 "/>
<path style="fill:none;stroke-width:5;stroke-linecap:round;stroke-linejoin:round;stroke:rgb(0%,0%,0%);stroke-opacity:1;stroke-miterlimit:10;" d="M 735.832629 1394.392641 L 950.679137 1281.148423 L 1129.855088 1877.552293 Z M 735.832629 1394.392641 " transform="matrix(0.0996533,0,0,-0.0996533,0,198.655)"/>
<path style=" stroke:none;fill-rule:nonzero;fill:rgb(41.209412%,51.5625%,85.351562%);fill-opacity:1;" d="M 73.328125 59.699219 L 87.761719 61.875 L 112.59375 11.550781 "/>
<path style="fill:none;stroke-width:5;stroke-linecap:round;stroke-linejoin:round;stroke:rgb(0%,0%,0%);stroke-opacity:1;stroke-miterlimit:10;" d="M 735.832629 1394.392641 L 880.67077 1372.559125 L 1129.855088 1877.552293 Z M 735.832629 1394.392641 " transform="matrix(0.0996533,0,0,-0.0996533,0,198.655)"/>
<path style=" stroke:none;fill-rule:nonzero;fill:rgb(94.53125%,73.4375%,58.789062%);fill-opacity:1;" d="M 81.582031 40.945312 L 87.761719 61.875 L 112.59375 11.550781 "/>
<path style="fill:none;stroke-width:5;stroke-linecap:round;stroke-linejoin:round;stroke:rgb(0%,0%,0%);stroke-opacity:1;stroke-miterlimit:10;" d="M 818.658878 1582.584227 L 880.67077 1372.559125 L 1129.855088 1877.552293 Z M 818.658878 1582.584227 " transform="matrix(0.0996533,0,0,-0.0996533,0,198.655)"/>
<path style=" stroke:none;fill-rule:nonzero;fill:rgb(83.201599%,79.296875%,81.443787%);fill-opacity:1;" d="M 81.582031 40.945312 L 101.449219 57.898438 L 112.59375 11.550781 "/>
<path style="fill:none;stroke-width:5;stroke-linecap:round;stroke-linejoin:round;stroke:rgb(0%,0%,0%);stroke-opacity:1;stroke-miterlimit:10;" d="M 818.658878 1582.584227 L 1018.022013 1412.46311 L 1129.855088 1877.552293 Z M 818.658878 1582.584227 " transform="matrix(0.0996533,0,0,-0.0996533,0,198.655)"/>
<path style=" stroke:none;fill-rule:nonzero;fill:rgb(41.209412%,51.5625%,85.351562%);fill-opacity:1;" d="M 122.679688 44.96875 L 101.449219 57.898438 L 112.59375 11.550781 "/>
<path style="fill:none;stroke-width:5;stroke-linecap:round;stroke-linejoin:round;stroke:rgb(0%,0%,0%);stroke-opacity:1;stroke-miterlimit:10;" d="M 1231.065393 1542.209861 L 1018.022013 1412.46311 L 1129.855088 1877.552293 Z M 1231.065393 1542.209861 " transform="matrix(0.0996533,0,0,-0.0996533,0,198.655)"/>
<path style=" stroke:none;fill-rule:nonzero;fill:rgb(65.818787%,46.09375%,60.546875%);fill-opacity:1;" d="M 48.5 90.140625 L 67.445312 123.03125 L 71.195312 101.257812 "/>
<path style="fill:none;stroke-width:5;stroke-linecap:round;stroke-linejoin:round;stroke:rgb(0%,0%,0%);stroke-opacity:1;stroke-miterlimit:10;" d="M 486.687509 1088.9194 L 676.799818 758.868753 L 714.430295 977.360714 Z M 486.687509 1088.9194 " transform="matrix(0.0996533,0,0,-0.0996533,0,198.655)"/>
<path style=" stroke:none;fill-rule:nonzero;fill:rgb(28.808594%,4.199219%,35.594177%);fill-opacity:1;" d="M 67.445312 123.03125 L 48.5 90.140625 L 65.609375 107.097656 "/>
<path style="fill:none;stroke-width:5;stroke-linecap:round;stroke-linejoin:round;stroke:rgb(0%,0%,0%);stroke-opacity:1;stroke-miterlimit:10;" d="M 676.799818 758.868753 L 486.687509 1088.9194 L 658.376563 918.759085 Z M 676.799818 758.868753 " transform="matrix(0.0996533,0,0,-0.0996533,0,198.655)"/>
<path style=" stroke:none;fill-rule:nonzero;fill:rgb(79.492188%,47.705078%,45.288086%);fill-opacity:1;" d="M 67.445312 123.03125 L 65.609375 107.097656 L 7.386719 140.550781 "/>
<path style="fill:none;stroke-width:5;stroke-linecap:round;stroke-linejoin:round;stroke:rgb(0%,0%,0%);stroke-opacity:1;stroke-miterlimit:10;" d="M 676.799818 758.868753 L 658.376563 918.759085 L 74.124201 583.063866 Z M 676.799818 758.868753 " transform="matrix(0.0996533,0,0,-0.0996533,0,198.655)"/>
<path style=" stroke:none;fill-rule:nonzero;fill:rgb(44.091797%,52.539062%,84.764099%);fill-opacity:1;" d="M 67.445312 123.03125 L 71.527344 148.242188 L 81.601562 126.957031 "/>
<path style="fill:none;stroke-width:5;stroke-linecap:round;stroke-linejoin:round;stroke:rgb(0%,0%,0%);stroke-opacity:1;stroke-miterlimit:10;" d="M 676.799818 758.868753 L 717.762161 505.882189 L 818.854871 719.474347 Z M 676.799818 758.868753 " transform="matrix(0.0996533,0,0,-0.0996533,0,198.655)"/>
<path style=" stroke:none;fill-rule:nonzero;fill:rgb(0%,0%,43.188477%);fill-opacity:1;" d="M 71.527344 148.242188 L 67.445312 123.03125 L 72.039062 123.121094 "/>
<path style="fill:none;stroke-width:5;stroke-linecap:round;stroke-linejoin:round;stroke:rgb(0%,0%,0%);stroke-opacity:1;stroke-miterlimit:10;" d="M 717.762161 505.882189 L 676.799818 758.868753 L 722.897153 757.96719 Z M 717.762161 505.882189 " transform="matrix(0.0996533,0,0,-0.0996533,0,198.655)"/>
<path style=" stroke:none;fill-rule:nonzero;fill:rgb(0%,50.389099%,79.881287%);fill-opacity:1;" d="M 67.445312 123.03125 L 72.039062 123.121094 L 7.386719 140.550781 "/>
<path style="fill:none;stroke-width:5;stroke-linecap:round;stroke-linejoin:round;stroke:rgb(0%,0%,0%);stroke-opacity:1;stroke-miterlimit:10;" d="M 676.799818 758.868753 L 722.897153 757.96719 L 74.124201 583.063866 Z M 676.799818 758.868753 " transform="matrix(0.0996533,0,0,-0.0996533,0,198.655)"/>
<path style=" stroke:none;fill-rule:nonzero;fill:rgb(33.300781%,9.594727%,39.598083%);fill-opacity:1;" d="M 81.582031 40.945312 L 73.328125 59.699219 L 87.761719 61.875 "/>
<path style="fill:none;stroke-width:5;stroke-linecap:round;stroke-linejoin:round;stroke:rgb(0%,0%,0%);stroke-opacity:1;stroke-miterlimit:10;" d="M 818.658878 1582.584227 L 735.832629 1394.392641 L 880.67077 1372.559125 Z M 818.658878 1582.584227 " transform="matrix(0.0996533,0,0,-0.0996533,0,198.655)"/>
<path style=" stroke:none;fill-rule:nonzero;fill:rgb(0%,0%,43.188477%);fill-opacity:1;" d="M 73.328125 59.699219 L 81.582031 40.945312 L 77.511719 64.574219 "/>
<path style="fill:none;stroke-width:5;stroke-linecap:round;stroke-linejoin:round;stroke:rgb(0%,0%,0%);stroke-opacity:1;stroke-miterlimit:10;" d="M 735.832629 1394.392641 L 818.658878 1582.584227 L 777.814131 1345.47302 Z M 735.832629 1394.392641 " transform="matrix(0.0996533,0,0,-0.0996533,0,198.655)"/>
<path style=" stroke:none;fill-rule:nonzero;fill:rgb(68.164062%,60.546875%,76.5625%);fill-opacity:1;" d="M 73.328125 59.699219 L 48.5 90.140625 L 72.84375 83.53125 "/>
<path style="fill:none;stroke-width:5;stroke-linecap:round;stroke-linejoin:round;stroke:rgb(0%,0%,0%);stroke-opacity:1;stroke-miterlimit:10;" d="M 735.832629 1394.392641 L 486.687509 1088.9194 L 730.972026 1155.243117 Z M 735.832629 1394.392641 " transform="matrix(0.0996533,0,0,-0.0996533,0,198.655)"/>
<path style=" stroke:none;fill-rule:nonzero;fill:rgb(41.209412%,51.5625%,85.351562%);fill-opacity:1;" d="M 48.5 90.140625 L 73.328125 59.699219 L 68.292969 78.085938 "/>
<path style="fill:none;stroke-width:5;stroke-linecap:round;stroke-linejoin:round;stroke:rgb(0%,0%,0%);stroke-opacity:1;stroke-miterlimit:10;" d="M 486.687509 1088.9194 L 735.832629 1394.392641 L 685.305874 1209.885706 Z M 486.687509 1088.9194 " transform="matrix(0.0996533,0,0,-0.0996533,0,198.655)"/>
<path style=" stroke:none;fill-rule:nonzero;fill:rgb(82.617188%,77.929688%,80.859375%);fill-opacity:1;" d="M 73.328125 59.699219 L 68.292969 78.085938 L 16.5 34.578125 "/>
<path style="fill:none;stroke-width:5;stroke-linecap:round;stroke-linejoin:round;stroke:rgb(0%,0%,0%);stroke-opacity:1;stroke-miterlimit:10;" d="M 735.832629 1394.392641 L 685.305874 1209.885706 L 165.574101 1646.477642 Z M 735.832629 1394.392641 " transform="matrix(0.0996533,0,0,-0.0996533,0,198.655)"/>
<path style=" stroke:none;fill-rule:nonzero;fill:rgb(53.514099%,92.381287%,83.59375%);fill-opacity:1;" d="M 73.328125 59.699219 L 77.511719 64.574219 L 16.5 34.578125 "/>
<path style="fill:none;stroke-width:5;stroke-linecap:round;stroke-linejoin:round;stroke:rgb(0%,0%,0%);stroke-opacity:1;stroke-miterlimit:10;" d="M 735.832629 1394.392641 L 777.814131 1345.47302 L 165.574101 1646.477642 Z M 735.832629 1394.392641 " transform="matrix(0.0996533,0,0,-0.0996533,0,198.655)"/>
<path style=" stroke:none;fill-rule:nonzero;fill:rgb(65.818787%,46.09375%,60.546875%);fill-opacity:1;" d="M 130.394531 130.261719 L 152.488281 101.429688 L 128.34375 107.5625 "/>
<path style="fill:none;stroke-width:5;stroke-linecap:round;stroke-linejoin:round;stroke:rgb(0%,0%,0%);stroke-opacity:1;stroke-miterlimit:10;" d="M 1308.482261 686.312489 L 1530.188491 975.635983 L 1287.903094 914.094473 Z M 1308.482261 686.312489 " transform="matrix(0.0996533,0,0,-0.0996533,0,198.655)"/>
<path style=" stroke:none;fill-rule:nonzero;fill:rgb(82.617188%,77.929688%,80.859375%);fill-opacity:1;" d="M 112.027344 153.097656 L 130.394531 130.261719 L 110.425781 130.28125 "/>
<path style="fill:none;stroke-width:5;stroke-linecap:round;stroke-linejoin:round;stroke:rgb(0%,0%,0%);stroke-opacity:1;stroke-miterlimit:10;" d="M 1124.171318 457.15856 L 1308.482261 686.312489 L 1108.099968 686.116497 Z M 1124.171318 457.15856 " transform="matrix(0.0996533,0,0,-0.0996533,0,198.655)"/>
<path style=" stroke:none;fill-rule:nonzero;fill:rgb(95.896912%,74.21875%,56.834412%);fill-opacity:1;" d="M 130.394531 130.261719 L 112.027344 153.097656 L 119.039062 128.515625 "/>
<path style="fill:none;stroke-width:5;stroke-linecap:round;stroke-linejoin:round;stroke:rgb(0%,0%,0%);stroke-opacity:1;stroke-miterlimit:10;" d="M 1308.482261 686.312489 L 1124.171318 457.15856 L 1194.532471 703.83418 Z M 1308.482261 686.312489 " transform="matrix(0.0996533,0,0,-0.0996533,0,198.655)"/>
<path style=" stroke:none;fill-rule:nonzero;fill:rgb(61.326599%,95.506287%,89.451599%);fill-opacity:1;" d="M 130.394531 130.261719 L 119.039062 128.515625 L 178.980469 161.125 "/>
<path style="fill:none;stroke-width:5;stroke-linecap:round;stroke-linejoin:round;stroke:rgb(0%,0%,0%);stroke-opacity:1;stroke-miterlimit:10;" d="M 1308.482261 686.312489 L 1194.532471 703.83418 L 1796.032136 376.605819 Z M 1308.482261 686.312489 " transform="matrix(0.0996533,0,0,-0.0996533,0,198.655)"/>
<path style=" stroke:none;fill-rule:nonzero;fill:rgb(79.6875%,46.604919%,42.893982%);fill-opacity:1;" d="M 152.488281 101.429688 L 130.394531 130.261719 L 130.214844 114.308594 "/>
<path style="fill:none;stroke-width:5;stroke-linecap:round;stroke-linejoin:round;stroke:rgb(0%,0%,0%);stroke-opacity:1;stroke-miterlimit:10;" d="M 1530.188491 975.635983 L 1308.482261 686.312489 L 1306.679134 846.398812 Z M 1530.188491 975.635983 " transform="matrix(0.0996533,0,0,-0.0996533,0,198.655)"/>
<path style=" stroke:none;fill-rule:nonzero;fill:rgb(33.300781%,9.594727%,39.598083%);fill-opacity:1;" d="M 130.394531 130.261719 L 130.214844 114.308594 L 178.980469 161.125 "/>
<path style="fill:none;stroke-width:5;stroke-linecap:round;stroke-linejoin:round;stroke:rgb(0%,0%,0%);stroke-opacity:1;stroke-miterlimit:10;" d="M 1308.482261 686.312489 L 1306.679134 846.398812 L 1796.032136 376.605819 Z M 1308.482261 686.312489 " transform="matrix(0.0996533,0,0,-0.0996533,0,198.655)"/>
<path style=" stroke:none;fill-rule:nonzero;fill:rgb(65.818787%,46.09375%,60.546875%);fill-opacity:1;" d="M 48.5 90.140625 L 68.292969 78.085938 L 16.5 34.578125 "/>
<path style="fill:none;stroke-width:5;stroke-linecap:round;stroke-linejoin:round;stroke:rgb(0%,0%,0%);stroke-opacity:1;stroke-miterlimit:10;" d="M 486.687509 1088.9194 L 685.305874 1209.885706 L 165.574101 1646.477642 Z M 486.687509 1088.9194 " transform="matrix(0.0996533,0,0,-0.0996533,0,198.655)"/>
<path style=" stroke:none;fill-rule:nonzero;fill:rgb(68.164062%,60.546875%,76.5625%);fill-opacity:1;" d="M 48.5 90.140625 L 65.609375 107.097656 L 7.386719 140.550781 "/>
<path style="fill:none;stroke-width:5;stroke-linecap:round;stroke-linejoin:round;stroke:rgb(0%,0%,0%);stroke-opacity:1;stroke-miterlimit:10;" d="M 486.687509 1088.9194 L 658.376563 918.759085 L 74.124201 583.063866 Z M 486.687509 1088.9194 " transform="matrix(0.0996533,0,0,-0.0996533,0,198.655)"/>
<path style=" stroke:none;fill-rule:nonzero;fill:rgb(41.209412%,51.5625%,85.351562%);fill-opacity:1;" d="M 48.5 90.140625 L 57.980469 98.609375 L 7.386719 140.550781 "/>
<path style="fill:none;stroke-width:5;stroke-linecap:round;stroke-linejoin:round;stroke:rgb(0%,0%,0%);stroke-opacity:1;stroke-miterlimit:10;" d="M 486.687509 1088.9194 L 581.82206 1003.937238 L 74.124201 583.063866 Z M 486.687509 1088.9194 " transform="matrix(0.0996533,0,0,-0.0996533,0,198.655)"/>
<path style=" stroke:none;fill-rule:nonzero;fill:rgb(61.326599%,95.506287%,89.451599%);fill-opacity:1;" d="M 48.5 90.140625 L 39.253906 92.710938 L 57.980469 98.609375 "/>
<path style="fill:none;stroke-width:5;stroke-linecap:round;stroke-linejoin:round;stroke:rgb(0%,0%,0%);stroke-opacity:1;stroke-miterlimit:10;" d="M 486.687509 1088.9194 L 393.904863 1063.126844 L 581.82206 1003.937238 Z M 486.687509 1088.9194 " transform="matrix(0.0996533,0,0,-0.0996533,0,198.655)"/>
<path style=" stroke:none;fill-rule:nonzero;fill:rgb(0%,40.893555%,68.554688%);fill-opacity:1;" d="M 39.253906 92.710938 L 48.5 90.140625 L 59.011719 87.324219 "/>
<path style="fill:none;stroke-width:5;stroke-linecap:round;stroke-linejoin:round;stroke:rgb(0%,0%,0%);stroke-opacity:1;stroke-miterlimit:10;" d="M 393.904863 1063.126844 L 486.687509 1088.9194 L 592.170442 1117.181457 Z M 393.904863 1063.126844 " transform="matrix(0.0996533,0,0,-0.0996533,0,198.655)"/>
<path style=" stroke:none;fill-rule:nonzero;fill:rgb(28.808594%,4.199219%,35.594177%);fill-opacity:1;" d="M 48.5 90.140625 L 59.011719 87.324219 L 16.5 34.578125 "/>
<path style="fill:none;stroke-width:5;stroke-linecap:round;stroke-linejoin:round;stroke:rgb(0%,0%,0%);stroke-opacity:1;stroke-miterlimit:10;" d="M 486.687509 1088.9194 L 592.170442 1117.181457 L 165.574101 1646.477642 Z M 486.687509 1088.9194 " transform="matrix(0.0996533,0,0,-0.0996533,0,198.655)"/>
<path style=" stroke:none;fill-rule:nonzero;fill:rgb(68.164062%,60.546875%,76.5625%);fill-opacity:1;" d="M 152.488281 101.429688 L 136.832031 66.164062 L 130.132812 89.644531 "/>
<path style="fill:none;stroke-width:5;stroke-linecap:round;stroke-linejoin:round;stroke:rgb(0%,0%,0%);stroke-opacity:1;stroke-miterlimit:10;" d="M 1530.188491 975.635983 L 1373.081247 1329.519266 L 1305.855967 1093.897599 Z M 1530.188491 975.635983 " transform="matrix(0.0996533,0,0,-0.0996533,0,198.655)"/>
<path style=" stroke:none;fill-rule:nonzero;fill:rgb(83.201599%,79.296875%,81.443787%);fill-opacity:1;" d="M 136.832031 66.164062 L 152.488281 101.429688 L 133.160156 84.945312 "/>
<path style="fill:none;stroke-width:5;stroke-linecap:round;stroke-linejoin:round;stroke:rgb(0%,0%,0%);stroke-opacity:1;stroke-miterlimit:10;" d="M 1373.081247 1329.519266 L 1530.188491 975.635983 L 1336.234738 1141.053291 Z M 1373.081247 1329.519266 " transform="matrix(0.0996533,0,0,-0.0996533,0,198.655)"/>
<path style=" stroke:none;fill-rule:nonzero;fill:rgb(44.091797%,52.539062%,84.764099%);fill-opacity:1;" d="M 136.832031 66.164062 L 133.160156 84.945312 L 190.652344 51.621094 "/>
<path style="fill:none;stroke-width:5;stroke-linecap:round;stroke-linejoin:round;stroke:rgb(0%,0%,0%);stroke-opacity:1;stroke-miterlimit:10;" d="M 1373.081247 1329.519266 L 1336.234738 1141.053291 L 1913.156997 1475.454962 Z M 1373.081247 1329.519266 " transform="matrix(0.0996533,0,0,-0.0996533,0,198.655)"/>
<path style=" stroke:none;fill-rule:nonzero;fill:rgb(79.492188%,47.705078%,45.288086%);fill-opacity:1;" d="M 136.832031 66.164062 L 122.679688 44.96875 L 116.84375 64.839844 "/>
<path style="fill:none;stroke-width:5;stroke-linecap:round;stroke-linejoin:round;stroke:rgb(0%,0%,0%);stroke-opacity:1;stroke-miterlimit:10;" d="M 1373.081247 1329.519266 L 1231.065393 1542.209861 L 1172.502963 1342.807528 Z M 1373.081247 1329.519266 " transform="matrix(0.0996533,0,0,-0.0996533,0,198.655)"/>
<path style=" stroke:none;fill-rule:nonzero;fill:rgb(95.896912%,74.21875%,56.834412%);fill-opacity:1;" d="M 122.679688 44.96875 L 136.832031 66.164062 L 124.890625 69.441406 "/>
<path style="fill:none;stroke-width:5;stroke-linecap:round;stroke-linejoin:round;stroke:rgb(0%,0%,0%);stroke-opacity:1;stroke-miterlimit:10;" d="M 1231.065393 1542.209861 L 1373.081247 1329.519266 L 1253.251696 1296.631796 Z M 1231.065393 1542.209861 " transform="matrix(0.0996533,0,0,-0.0996533,0,198.655)"/>
<path style=" stroke:none;fill-rule:nonzero;fill:rgb(0%,40.893555%,68.554688%);fill-opacity:1;" d="M 136.832031 66.164062 L 124.890625 69.441406 L 190.652344 51.621094 "/>
<path style="fill:none;stroke-width:5;stroke-linecap:round;stroke-linejoin:round;stroke:rgb(0%,0%,0%);stroke-opacity:1;stroke-miterlimit:10;" d="M 1373.081247 1329.519266 L 1253.251696 1296.631796 L 1913.156997 1475.454962 Z M 1373.081247 1329.519266 " transform="matrix(0.0996533,0,0,-0.0996533,0,198.655)"/>
<path style=" stroke:none;fill-rule:nonzero;fill:rgb(68.164062%,60.546875%,76.5625%);fill-opacity:1;" d="M 71.527344 148.242188 L 72.039062 123.121094 L 7.386719 140.550781 "/>
<path style="fill:none;stroke-width:5;stroke-linecap:round;stroke-linejoin:round;stroke:rgb(0%,0%,0%);stroke-opacity:1;stroke-miterlimit:10;" d="M 717.762161 505.882189 L 722.897153 757.96719 L 74.124201 583.063866 Z M 717.762161 505.882189 " transform="matrix(0.0996533,0,0,-0.0996533,0,198.655)"/>
<path style=" stroke:none;fill-rule:nonzero;fill:rgb(65.625%,45.410156%,59.764099%);fill-opacity:1;" d="M 71.527344 148.242188 L 68.546875 125.082031 L 7.386719 140.550781 "/>
<path style="fill:none;stroke-width:5;stroke-linecap:round;stroke-linejoin:round;stroke:rgb(0%,0%,0%);stroke-opacity:1;stroke-miterlimit:10;" d="M 717.762161 505.882189 L 687.853771 738.289586 L 74.124201 583.063866 Z M 717.762161 505.882189 " transform="matrix(0.0996533,0,0,-0.0996533,0,198.655)"/>
<path style=" stroke:none;fill-rule:nonzero;fill:rgb(0%,50.389099%,79.881287%);fill-opacity:1;" d="M 53.980469 130.339844 L 68.546875 125.082031 L 7.386719 140.550781 "/>
<path style="fill:none;stroke-width:5;stroke-linecap:round;stroke-linejoin:round;stroke:rgb(0%,0%,0%);stroke-opacity:1;stroke-miterlimit:10;" d="M 541.682884 685.528521 L 687.853771 738.289586 L 74.124201 583.063866 Z M 541.682884 685.528521 " transform="matrix(0.0996533,0,0,-0.0996533,0,198.655)"/>
<path style=" stroke:none;fill-rule:nonzero;fill:rgb(41.209412%,51.5625%,85.351562%);fill-opacity:1;" d="M 53.980469 130.339844 L 59.652344 109.636719 L 7.386719 140.550781 "/>
<path style="fill:none;stroke-width:5;stroke-linecap:round;stroke-linejoin:round;stroke:rgb(0%,0%,0%);stroke-opacity:1;stroke-miterlimit:10;" d="M 541.682884 685.528521 L 598.598982 893.280115 L 74.124201 583.063866 Z M 541.682884 685.528521 " transform="matrix(0.0996533,0,0,-0.0996533,0,198.655)"/>
<path style=" stroke:none;fill-rule:nonzero;fill:rgb(79.492188%,47.705078%,45.288086%);fill-opacity:1;" d="M 39.253906 92.710938 L 57.980469 98.609375 L 7.386719 140.550781 "/>
<path style="fill:none;stroke-width:5;stroke-linecap:round;stroke-linejoin:round;stroke:rgb(0%,0%,0%);stroke-opacity:1;stroke-miterlimit:10;" d="M 393.904863 1063.126844 L 581.82206 1003.937238 L 74.124201 583.063866 Z M 393.904863 1063.126844 " transform="matrix(0.0996533,0,0,-0.0996533,0,198.655)"/>
<path style=" stroke:none;fill-rule:nonzero;fill:rgb(65.625%,45.410156%,59.764099%);fill-opacity:1;" d="M 39.253906 92.710938 L 59.652344 109.636719 L 7.386719 140.550781 "/>
<path style="fill:none;stroke-width:5;stroke-linecap:round;stroke-linejoin:round;stroke:rgb(0%,0%,0%);stroke-opacity:1;stroke-miterlimit:10;" d="M 393.904863 1063.126844 L 598.598982 893.280115 L 74.124201 583.063866 Z M 393.904863 1063.126844 " transform="matrix(0.0996533,0,0,-0.0996533,0,198.655)"/>
<path style=" stroke:none;fill-rule:nonzero;fill:rgb(68.164062%,60.546875%,76.5625%);fill-opacity:1;" d="M 152.488281 101.429688 L 130.214844 114.308594 L 178.980469 161.125 "/>
<path style="fill:none;stroke-width:5;stroke-linecap:round;stroke-linejoin:round;stroke:rgb(0%,0%,0%);stroke-opacity:1;stroke-miterlimit:10;" d="M 1530.188491 975.635983 L 1306.679134 846.398812 L 1796.032136 376.605819 Z M 1530.188491 975.635983 " transform="matrix(0.0996533,0,0,-0.0996533,0,198.655)"/>
<path style=" stroke:none;fill-rule:nonzero;fill:rgb(83.201599%,79.296875%,81.443787%);fill-opacity:1;" d="M 152.488281 101.429688 L 135.203125 107.113281 L 178.980469 161.125 "/>
<path style="fill:none;stroke-width:5;stroke-linecap:round;stroke-linejoin:round;stroke:rgb(0%,0%,0%);stroke-opacity:1;stroke-miterlimit:10;" d="M 1530.188491 975.635983 L 1356.735509 918.602291 L 1796.032136 376.605819 Z M 1530.188491 975.635983 " transform="matrix(0.0996533,0,0,-0.0996533,0,198.655)"/>
<path style=" stroke:none;fill-rule:nonzero;fill:rgb(0%,50.389099%,79.881287%);fill-opacity:1;" d="M 149.058594 104.714844 L 152.488281 101.429688 L 135.203125 107.113281 "/>
<path style="fill:none;stroke-width:5;stroke-linecap:round;stroke-linejoin:round;stroke:rgb(0%,0%,0%);stroke-opacity:1;stroke-miterlimit:10;" d="M 1495.772284 942.670117 L 1530.188491 975.635983 L 1356.735509 918.602291 Z M 1495.772284 942.670117 " transform="matrix(0.0996533,0,0,-0.0996533,0,198.655)"/>
<path style=" stroke:none;fill-rule:nonzero;fill:rgb(53.514099%,92.381287%,83.59375%);fill-opacity:1;" d="M 152.488281 101.429688 L 149.058594 104.714844 L 136.359375 95.65625 "/>
<path style="fill:none;stroke-width:5;stroke-linecap:round;stroke-linejoin:round;stroke:rgb(0%,0%,0%);stroke-opacity:1;stroke-miterlimit:10;" d="M 1530.188491 975.635983 L 1495.772284 942.670117 L 1368.338239 1033.571239 Z M 1530.188491 975.635983 " transform="matrix(0.0996533,0,0,-0.0996533,0,198.655)"/>
<path style=" stroke:none;fill-rule:nonzero;fill:rgb(65.818787%,46.09375%,60.546875%);fill-opacity:1;" d="M 152.488281 101.429688 L 133.160156 84.945312 L 190.652344 51.621094 "/>
<path style="fill:none;stroke-width:5;stroke-linecap:round;stroke-linejoin:round;stroke:rgb(0%,0%,0%);stroke-opacity:1;stroke-miterlimit:10;" d="M 1530.188491 975.635983 L 1336.234738 1141.053291 L 1913.156997 1475.454962 Z M 1530.188491 975.635983 " transform="matrix(0.0996533,0,0,-0.0996533,0,198.655)"/>
<path style=" stroke:none;fill-rule:nonzero;fill:rgb(79.6875%,46.604919%,42.893982%);fill-opacity:1;" d="M 152.488281 101.429688 L 136.359375 95.65625 L 190.652344 51.621094 "/>
<path style="fill:none;stroke-width:5;stroke-linecap:round;stroke-linejoin:round;stroke:rgb(0%,0%,0%);stroke-opacity:1;stroke-miterlimit:10;" d="M 1530.188491 975.635983 L 1368.338239 1033.571239 L 1913.156997 1475.454962 Z M 1530.188491 975.635983 " transform="matrix(0.0996533,0,0,-0.0996533,0,198.655)"/>
<path style=" stroke:none;fill-rule:nonzero;fill:rgb(65.818787%,46.09375%,60.546875%);fill-opacity:1;" d="M 81.582031 40.945312 L 77.511719 64.574219 L 16.5 34.578125 "/>
<path style="fill:none;stroke-width:5;stroke-linecap:round;stroke-linejoin:round;stroke:rgb(0%,0%,0%);stroke-opacity:1;stroke-miterlimit:10;" d="M 818.658878 1582.584227 L 777.814131 1345.47302 L 165.574101 1646.477642 Z M 818.658878 1582.584227 " transform="matrix(0.0996533,0,0,-0.0996533,0,198.655)"/>
<path style=" stroke:none;fill-rule:nonzero;fill:rgb(68.164062%,60.546875%,76.5625%);fill-opacity:1;" d="M 71.527344 148.242188 L 112.027344 153.097656 L 94.007812 135.242188 "/>
<path style="fill:none;stroke-width:5;stroke-linecap:round;stroke-linejoin:round;stroke:rgb(0%,0%,0%);stroke-opacity:1;stroke-miterlimit:10;" d="M 717.762161 505.882189 L 1124.171318 457.15856 L 943.349034 636.334511 Z M 717.762161 505.882189 " transform="matrix(0.0996533,0,0,-0.0996533,0,198.655)"/>
<path style=" stroke:none;fill-rule:nonzero;fill:rgb(82.617188%,77.929688%,80.859375%);fill-opacity:1;" d="M 39.253906 92.710938 L 59.011719 87.324219 L 16.5 34.578125 "/>
<path style="fill:none;stroke-width:5;stroke-linecap:round;stroke-linejoin:round;stroke:rgb(0%,0%,0%);stroke-opacity:1;stroke-miterlimit:10;" d="M 393.904863 1063.126844 L 592.170442 1117.181457 L 165.574101 1646.477642 Z M 393.904863 1063.126844 " transform="matrix(0.0996533,0,0,-0.0996533,0,198.655)"/>
<path style=" stroke:none;fill-rule:nonzero;fill:rgb(67.96875%,60.742188%,76.756287%);fill-opacity:1;" d="M 39.253906 92.710938 L 62.425781 79.453125 L 16.5 34.578125 "/>
<path style="fill:none;stroke-width:5;stroke-linecap:round;stroke-linejoin:round;stroke:rgb(0%,0%,0%);stroke-opacity:1;stroke-miterlimit:10;" d="M 393.904863 1063.126844 L 626.429856 1196.166261 L 165.574101 1646.477642 Z M 393.904863 1063.126844 " transform="matrix(0.0996533,0,0,-0.0996533,0,198.655)"/>
<path style=" stroke:none;fill-rule:nonzero;fill:rgb(28.808594%,4.199219%,35.594177%);fill-opacity:1;" d="M 60.3125 61.105469 L 62.425781 79.453125 L 16.5 34.578125 "/>
<path style="fill:none;stroke-width:5;stroke-linecap:round;stroke-linejoin:round;stroke:rgb(0%,0%,0%);stroke-opacity:1;stroke-miterlimit:10;" d="M 605.223514 1380.281212 L 626.429856 1196.166261 L 165.574101 1646.477642 Z M 605.223514 1380.281212 " transform="matrix(0.0996533,0,0,-0.0996533,0,198.655)"/>
<path style=" stroke:none;fill-rule:nonzero;fill:rgb(53.514099%,92.381287%,83.59375%);fill-opacity:1;" d="M 60.3125 61.105469 L 74.128906 65.070312 L 16.5 34.578125 "/>
<path style="fill:none;stroke-width:5;stroke-linecap:round;stroke-linejoin:round;stroke:rgb(0%,0%,0%);stroke-opacity:1;stroke-miterlimit:10;" d="M 605.223514 1380.281212 L 743.868304 1340.494822 L 165.574101 1646.477642 Z M 605.223514 1380.281212 " transform="matrix(0.0996533,0,0,-0.0996533,0,198.655)"/>
<path style=" stroke:none;fill-rule:nonzero;fill:rgb(67.96875%,60.742188%,76.756287%);fill-opacity:1;" d="M 81.582031 40.945312 L 74.128906 65.070312 L 16.5 34.578125 "/>
<path style="fill:none;stroke-width:5;stroke-linecap:round;stroke-linejoin:round;stroke:rgb(0%,0%,0%);stroke-opacity:1;stroke-miterlimit:10;" d="M 818.658878 1582.584227 L 743.868304 1340.494822 L 165.574101 1646.477642 Z M 818.658878 1582.584227 " transform="matrix(0.0996533,0,0,-0.0996533,0,198.655)"/>
<path style=" stroke:none;fill-rule:nonzero;fill:rgb(68.164062%,60.546875%,76.5625%);fill-opacity:1;" d="M 112.027344 153.097656 L 119.039062 128.515625 L 178.980469 161.125 "/>
<path style="fill:none;stroke-width:5;stroke-linecap:round;stroke-linejoin:round;stroke:rgb(0%,0%,0%);stroke-opacity:1;stroke-miterlimit:10;" d="M 1124.171318 457.15856 L 1194.532471 703.83418 L 1796.032136 376.605819 Z M 1124.171318 457.15856 " transform="matrix(0.0996533,0,0,-0.0996533,0,198.655)"/>
<path style=" stroke:none;fill-rule:nonzero;fill:rgb(94.53125%,73.4375%,58.789062%);fill-opacity:1;" d="M 53.980469 130.339844 L 71.527344 148.242188 L 68.546875 125.082031 "/>
<path style="fill:none;stroke-width:5;stroke-linecap:round;stroke-linejoin:round;stroke:rgb(0%,0%,0%);stroke-opacity:1;stroke-miterlimit:10;" d="M 541.682884 685.528521 L 717.762161 505.882189 L 687.853771 738.289586 Z M 541.682884 685.528521 " transform="matrix(0.0996533,0,0,-0.0996533,0,198.655)"/>
<path style=" stroke:none;fill-rule:nonzero;fill:rgb(79.6875%,46.604919%,42.893982%);fill-opacity:1;" d="M 71.527344 148.242188 L 53.980469 130.339844 L 76.292969 130.316406 "/>
<path style="fill:none;stroke-width:5;stroke-linecap:round;stroke-linejoin:round;stroke:rgb(0%,0%,0%);stroke-opacity:1;stroke-miterlimit:10;" d="M 717.762161 505.882189 L 541.682884 685.528521 L 765.584226 685.763711 Z M 717.762161 505.882189 " transform="matrix(0.0996533,0,0,-0.0996533,0,198.655)"/>
<path style=" stroke:none;fill-rule:nonzero;fill:rgb(65.625%,45.410156%,59.764099%);fill-opacity:1;" d="M 112.027344 153.097656 L 71.527344 148.242188 L 92.191406 136.640625 "/>
<path style="fill:none;stroke-width:5;stroke-linecap:round;stroke-linejoin:round;stroke:rgb(0%,0%,0%);stroke-opacity:1;stroke-miterlimit:10;" d="M 1124.171318 457.15856 L 717.762161 505.882189 L 925.121771 622.301479 Z M 1124.171318 457.15856 " transform="matrix(0.0996533,0,0,-0.0996533,0,198.655)"/>
<path style=" stroke:none;fill-rule:nonzero;fill:rgb(44.091797%,52.539062%,84.764099%);fill-opacity:1;" d="M 71.527344 148.242188 L 92.191406 136.640625 L 78.972656 194.183594 "/>
<path style="fill:none;stroke-width:5;stroke-linecap:round;stroke-linejoin:round;stroke:rgb(0%,0%,0%);stroke-opacity:1;stroke-miterlimit:10;" d="M 717.762161 505.882189 L 925.121771 622.301479 L 792.474338 44.869641 Z M 717.762161 505.882189 " transform="matrix(0.0996533,0,0,-0.0996533,0,198.655)"/>
<path style=" stroke:none;fill-rule:nonzero;fill:rgb(0%,0%,43.188477%);fill-opacity:1;" d="M 71.527344 148.242188 L 76.292969 130.316406 L 78.972656 194.183594 "/>
<path style="fill:none;stroke-width:5;stroke-linecap:round;stroke-linejoin:round;stroke:rgb(0%,0%,0%);stroke-opacity:1;stroke-miterlimit:10;" d="M 717.762161 505.882189 L 765.584226 685.763711 L 792.474338 44.869641 Z M 717.762161 505.882189 " transform="matrix(0.0996533,0,0,-0.0996533,0,198.655)"/>
<path style=" stroke:none;fill-rule:nonzero;fill:rgb(65.818787%,46.09375%,60.546875%);fill-opacity:1;" d="M 122.679688 44.96875 L 124.890625 69.441406 L 190.652344 51.621094 "/>
<path style="fill:none;stroke-width:5;stroke-linecap:round;stroke-linejoin:round;stroke:rgb(0%,0%,0%);stroke-opacity:1;stroke-miterlimit:10;" d="M 1231.065393 1542.209861 L 1253.251696 1296.631796 L 1913.156997 1475.454962 Z M 1231.065393 1542.209861 " transform="matrix(0.0996533,0,0,-0.0996533,0,198.655)"/>
<path style=" stroke:none;fill-rule:nonzero;fill:rgb(65.818787%,46.09375%,60.546875%);fill-opacity:1;" d="M 122.679688 44.96875 L 81.582031 40.945312 L 101.449219 57.898438 "/>
<path style="fill:none;stroke-width:5;stroke-linecap:round;stroke-linejoin:round;stroke:rgb(0%,0%,0%);stroke-opacity:1;stroke-miterlimit:10;" d="M 1231.065393 1542.209861 L 818.658878 1582.584227 L 1018.022013 1412.46311 Z M 1231.065393 1542.209861 " transform="matrix(0.0996533,0,0,-0.0996533,0,198.655)"/>
<path style=" stroke:none;fill-rule:nonzero;fill:rgb(65.625%,45.410156%,59.764099%);fill-opacity:1;" d="M 112.027344 153.097656 L 116.703125 130.632812 L 178.980469 161.125 "/>
<path style="fill:none;stroke-width:5;stroke-linecap:round;stroke-linejoin:round;stroke:rgb(0%,0%,0%);stroke-opacity:1;stroke-miterlimit:10;" d="M 1124.171318 457.15856 L 1171.09182 682.58864 L 1796.032136 376.605819 Z M 1124.171318 457.15856 " transform="matrix(0.0996533,0,0,-0.0996533,0,198.655)"/>
<path style=" stroke:none;fill-rule:nonzero;fill:rgb(0%,0%,49.510193%);fill-opacity:1;" d="M 112.027344 153.097656 L 122.703125 138.355469 L 116.703125 130.632812 "/>
<path style="fill:none;stroke-width:5;stroke-linecap:round;stroke-linejoin:round;stroke:rgb(0%,0%,0%);stroke-opacity:1;stroke-miterlimit:10;" d="M 1124.171318 457.15856 L 1231.300584 605.093375 L 1171.09182 682.58864 Z M 1124.171318 457.15856 " transform="matrix(0.0996533,0,0,-0.0996533,0,198.655)"/>
<path style=" stroke:none;fill-rule:nonzero;fill:rgb(82.617188%,77.929688%,80.859375%);fill-opacity:1;" d="M 112.027344 153.097656 L 92.191406 136.640625 L 78.972656 194.183594 "/>
<path style="fill:none;stroke-width:5;stroke-linecap:round;stroke-linejoin:round;stroke:rgb(0%,0%,0%);stroke-opacity:1;stroke-miterlimit:10;" d="M 1124.171318 457.15856 L 925.121771 622.301479 L 792.474338 44.869641 Z M 1124.171318 457.15856 " transform="matrix(0.0996533,0,0,-0.0996533,0,198.655)"/>
<path style=" stroke:none;fill-rule:nonzero;fill:rgb(28.808594%,4.199219%,35.594177%);fill-opacity:1;" d="M 122.703125 138.355469 L 112.027344 153.097656 L 106.265625 133.796875 "/>
<path style="fill:none;stroke-width:5;stroke-linecap:round;stroke-linejoin:round;stroke:rgb(0%,0%,0%);stroke-opacity:1;stroke-miterlimit:10;" d="M 1231.300584 605.093375 L 1124.171318 457.15856 L 1066.353657 650.837924 Z M 1231.300584 605.093375 " transform="matrix(0.0996533,0,0,-0.0996533,0,198.655)"/>
<path style=" stroke:none;fill-rule:nonzero;fill:rgb(95.896912%,74.21875%,56.834412%);fill-opacity:1;" d="M 112.027344 153.097656 L 106.265625 133.796875 L 78.972656 194.183594 "/>
<path style="fill:none;stroke-width:5;stroke-linecap:round;stroke-linejoin:round;stroke:rgb(0%,0%,0%);stroke-opacity:1;stroke-miterlimit:10;" d="M 1124.171318 457.15856 L 1066.353657 650.837924 L 792.474338 44.869641 Z M 1124.171318 457.15856 " transform="matrix(0.0996533,0,0,-0.0996533,0,198.655)"/>
<path style=" stroke:none;fill-rule:nonzero;fill:rgb(94.53125%,73.4375%,58.789062%);fill-opacity:1;" d="M 81.582031 40.945312 L 60.3125 61.105469 L 74.128906 65.070312 "/>
<path style="fill:none;stroke-width:5;stroke-linecap:round;stroke-linejoin:round;stroke:rgb(0%,0%,0%);stroke-opacity:1;stroke-miterlimit:10;" d="M 818.658878 1582.584227 L 605.223514 1380.281212 L 743.868304 1340.494822 Z M 818.658878 1582.584227 " transform="matrix(0.0996533,0,0,-0.0996533,0,198.655)"/>
<path style=" stroke:none;fill-rule:nonzero;fill:rgb(67.96875%,60.742188%,76.756287%);fill-opacity:1;" d="M 81.582031 40.945312 L 122.679688 44.96875 L 99.730469 58.101562 "/>
<path style="fill:none;stroke-width:5;stroke-linecap:round;stroke-linejoin:round;stroke:rgb(0%,0%,0%);stroke-opacity:1;stroke-miterlimit:10;" d="M 818.658878 1582.584227 L 1231.065393 1542.209861 L 1000.77471 1410.424793 Z M 818.658878 1582.584227 " transform="matrix(0.0996533,0,0,-0.0996533,0,198.655)"/>
<path style=" stroke:none;fill-rule:nonzero;fill:rgb(33.300781%,9.594727%,39.598083%);fill-opacity:1;" d="M 81.582031 40.945312 L 99.730469 58.101562 L 96.835938 6.273438 "/>
<path style="fill:none;stroke-width:5;stroke-linecap:round;stroke-linejoin:round;stroke:rgb(0%,0%,0%);stroke-opacity:1;stroke-miterlimit:10;" d="M 818.658878 1582.584227 L 1000.77471 1410.424793 L 971.728686 1930.509351 Z M 818.658878 1582.584227 " transform="matrix(0.0996533,0,0,-0.0996533,0,198.655)"/>
<path style=" stroke:none;fill-rule:nonzero;fill:rgb(83.201599%,79.296875%,81.443787%);fill-opacity:1;" d="M 60.3125 61.105469 L 81.582031 40.945312 L 82.660156 62.582031 "/>
<path style="fill:none;stroke-width:5;stroke-linecap:round;stroke-linejoin:round;stroke:rgb(0%,0%,0%);stroke-opacity:1;stroke-miterlimit:10;" d="M 605.223514 1380.281212 L 818.658878 1582.584227 L 829.477641 1365.464212 Z M 605.223514 1380.281212 " transform="matrix(0.0996533,0,0,-0.0996533,0,198.655)"/>
<path style=" stroke:none;fill-rule:nonzero;fill:rgb(0%,0%,43.188477%);fill-opacity:1;" d="M 81.582031 40.945312 L 82.660156 62.582031 L 96.835938 6.273438 "/>
<path style="fill:none;stroke-width:5;stroke-linecap:round;stroke-linejoin:round;stroke:rgb(0%,0%,0%);stroke-opacity:1;stroke-miterlimit:10;" d="M 818.658878 1582.584227 L 829.477641 1365.464212 L 971.728686 1930.509351 Z M 818.658878 1582.584227 " transform="matrix(0.0996533,0,0,-0.0996533,0,198.655)"/>
<path style=" stroke:none;fill-rule:nonzero;fill:rgb(33.300781%,9.594727%,39.598083%);fill-opacity:1;" d="M 149.058594 104.714844 L 135.203125 107.113281 L 178.980469 161.125 "/>
<path style="fill:none;stroke-width:5;stroke-linecap:round;stroke-linejoin:round;stroke:rgb(0%,0%,0%);stroke-opacity:1;stroke-miterlimit:10;" d="M 1495.772284 942.670117 L 1356.735509 918.602291 L 1796.032136 376.605819 Z M 1495.772284 942.670117 " transform="matrix(0.0996533,0,0,-0.0996533,0,198.655)"/>
<path style=" stroke:none;fill-rule:nonzero;fill:rgb(44.091797%,52.539062%,84.764099%);fill-opacity:1;" d="M 149.058594 104.714844 L 136.359375 95.65625 L 190.652344 51.621094 "/>
<path style="fill:none;stroke-width:5;stroke-linecap:round;stroke-linejoin:round;stroke:rgb(0%,0%,0%);stroke-opacity:1;stroke-miterlimit:10;" d="M 1495.772284 942.670117 L 1368.338239 1033.571239 L 1913.156997 1475.454962 Z M 1495.772284 942.670117 " transform="matrix(0.0996533,0,0,-0.0996533,0,198.655)"/>
<path style=" stroke:none;fill-rule:nonzero;fill:rgb(67.96875%,60.742188%,76.756287%);fill-opacity:1;" d="M 122.679688 44.96875 L 122.683594 70.066406 L 190.652344 51.621094 "/>
<path style="fill:none;stroke-width:5;stroke-linecap:round;stroke-linejoin:round;stroke:rgb(0%,0%,0%);stroke-opacity:1;stroke-miterlimit:10;" d="M 1231.065393 1542.209861 L 1231.104592 1290.36005 L 1913.156997 1475.454962 Z M 1231.065393 1542.209861 " transform="matrix(0.0996533,0,0,-0.0996533,0,198.655)"/>
<path style=" stroke:none;fill-rule:nonzero;fill:rgb(0%,40.893555%,68.554688%);fill-opacity:1;" d="M 129.691406 68.210938 L 122.683594 70.066406 L 190.652344 51.621094 "/>
<path style="fill:none;stroke-width:5;stroke-linecap:round;stroke-linejoin:round;stroke:rgb(0%,0%,0%);stroke-opacity:1;stroke-miterlimit:10;" d="M 1301.426547 1308.979297 L 1231.104592 1290.36005 L 1913.156997 1475.454962 Z M 1301.426547 1308.979297 " transform="matrix(0.0996533,0,0,-0.0996533,0,198.655)"/>
<path style=" stroke:none;fill-rule:nonzero;fill:rgb(0%,0%,49.510193%);fill-opacity:1;" d="M 129.691406 68.210938 L 122.679688 44.96875 L 122.683594 70.066406 "/>
<path style="fill:none;stroke-width:5;stroke-linecap:round;stroke-linejoin:round;stroke:rgb(0%,0%,0%);stroke-opacity:1;stroke-miterlimit:10;" d="M 1301.426547 1308.979297 L 1231.065393 1542.209861 L 1231.104592 1290.36005 Z M 1301.426547 1308.979297 " transform="matrix(0.0996533,0,0,-0.0996533,0,198.655)"/>
<path style=" stroke:none;fill-rule:nonzero;fill:rgb(41.209412%,51.5625%,85.351562%);fill-opacity:1;" d="M 122.679688 44.96875 L 129.691406 68.210938 L 112.914062 65.675781 "/>
<path style="fill:none;stroke-width:5;stroke-linecap:round;stroke-linejoin:round;stroke:rgb(0%,0%,0%);stroke-opacity:1;stroke-miterlimit:10;" d="M 1231.065393 1542.209861 L 1301.426547 1308.979297 L 1133.069358 1334.419068 Z M 1231.065393 1542.209861 " transform="matrix(0.0996533,0,0,-0.0996533,0,198.655)"/>
<path style=" stroke:none;fill-rule:nonzero;fill:rgb(79.492188%,47.705078%,45.288086%);fill-opacity:1;" d="M 122.679688 44.96875 L 99.730469 58.101562 L 96.835938 6.273438 "/>
<path style="fill:none;stroke-width:5;stroke-linecap:round;stroke-linejoin:round;stroke:rgb(0%,0%,0%);stroke-opacity:1;stroke-miterlimit:10;" d="M 1231.065393 1542.209861 L 1000.77471 1410.424793 L 971.728686 1930.509351 Z M 1231.065393 1542.209861 " transform="matrix(0.0996533,0,0,-0.0996533,0,198.655)"/>
<path style=" stroke:none;fill-rule:nonzero;fill:rgb(95.896912%,74.21875%,56.834412%);fill-opacity:1;" d="M 122.679688 44.96875 L 112.914062 65.675781 L 96.835938 6.273438 "/>
<path style="fill:none;stroke-width:5;stroke-linecap:round;stroke-linejoin:round;stroke:rgb(0%,0%,0%);stroke-opacity:1;stroke-miterlimit:10;" d="M 1231.065393 1542.209861 L 1133.069358 1334.419068 L 971.728686 1930.509351 Z M 1231.065393 1542.209861 " transform="matrix(0.0996533,0,0,-0.0996533,0,198.655)"/>
<path style=" stroke:none;fill-rule:nonzero;fill:rgb(61.326599%,95.506287%,89.451599%);fill-opacity:1;" d="M 122.703125 138.355469 L 116.703125 130.632812 L 178.980469 161.125 "/>
<path style="fill:none;stroke-width:5;stroke-linecap:round;stroke-linejoin:round;stroke:rgb(0%,0%,0%);stroke-opacity:1;stroke-miterlimit:10;" d="M 1231.300584 605.093375 L 1171.09182 682.58864 L 1796.032136 376.605819 Z M 1231.300584 605.093375 " transform="matrix(0.0996533,0,0,-0.0996533,0,198.655)"/>
<path style=" stroke:none;fill-rule:nonzero;fill:rgb(65.625%,45.410156%,59.764099%);fill-opacity:1;" d="M 149.058594 104.714844 L 126.847656 117.183594 L 178.980469 161.125 "/>
<path style="fill:none;stroke-width:5;stroke-linecap:round;stroke-linejoin:round;stroke:rgb(0%,0%,0%);stroke-opacity:1;stroke-miterlimit:10;" d="M 1495.772284 942.670117 L 1272.890101 817.548779 L 1796.032136 376.605819 Z M 1495.772284 942.670117 " transform="matrix(0.0996533,0,0,-0.0996533,0,198.655)"/>
<path style=" stroke:none;fill-rule:nonzero;fill:rgb(83.201599%,79.296875%,81.443787%);fill-opacity:1;" d="M 122.703125 138.355469 L 126.847656 117.183594 L 178.980469 161.125 "/>
<path style="fill:none;stroke-width:5;stroke-linecap:round;stroke-linejoin:round;stroke:rgb(0%,0%,0%);stroke-opacity:1;stroke-miterlimit:10;" d="M 1231.300584 605.093375 L 1272.890101 817.548779 L 1796.032136 376.605819 Z M 1231.300584 605.093375 " transform="matrix(0.0996533,0,0,-0.0996533,0,198.655)"/>
<path style=" stroke:none;fill-rule:nonzero;fill:rgb(82.617188%,77.929688%,80.859375%);fill-opacity:1;" d="M 39.253906 92.710938 L 53.980469 130.339844 L 59.652344 109.636719 "/>
<path style="fill:none;stroke-width:5;stroke-linecap:round;stroke-linejoin:round;stroke:rgb(0%,0%,0%);stroke-opacity:1;stroke-miterlimit:10;" d="M 393.904863 1063.126844 L 541.682884 685.528521 L 598.598982 893.280115 Z M 393.904863 1063.126844 " transform="matrix(0.0996533,0,0,-0.0996533,0,198.655)"/>
<path style=" stroke:none;fill-rule:nonzero;fill:rgb(82.617188%,77.929688%,80.859375%);fill-opacity:1;" d="M 53.980469 130.339844 L 76.292969 130.316406 L 78.972656 194.183594 "/>
<path style="fill:none;stroke-width:5;stroke-linecap:round;stroke-linejoin:round;stroke:rgb(0%,0%,0%);stroke-opacity:1;stroke-miterlimit:10;" d="M 541.682884 685.528521 L 765.584226 685.763711 L 792.474338 44.869641 Z M 541.682884 685.528521 " transform="matrix(0.0996533,0,0,-0.0996533,0,198.655)"/>
<path style=" stroke:none;fill-rule:nonzero;fill:rgb(79.492188%,47.705078%,45.288086%);fill-opacity:1;" d="M 60.3125 61.105469 L 39.253906 92.710938 L 62.425781 79.453125 "/>
<path style="fill:none;stroke-width:5;stroke-linecap:round;stroke-linejoin:round;stroke:rgb(0%,0%,0%);stroke-opacity:1;stroke-miterlimit:10;" d="M 605.223514 1380.281212 L 393.904863 1063.126844 L 626.429856 1196.166261 Z M 605.223514 1380.281212 " transform="matrix(0.0996533,0,0,-0.0996533,0,198.655)"/>
<path style=" stroke:none;fill-rule:nonzero;fill:rgb(65.625%,45.410156%,59.764099%);fill-opacity:1;" d="M 39.253906 92.710938 L 60.3125 61.105469 L 63.535156 86.136719 "/>
<path style="fill:none;stroke-width:5;stroke-linecap:round;stroke-linejoin:round;stroke:rgb(0%,0%,0%);stroke-opacity:1;stroke-miterlimit:10;" d="M 393.904863 1063.126844 L 605.223514 1380.281212 L 637.562205 1129.097775 Z M 393.904863 1063.126844 " transform="matrix(0.0996533,0,0,-0.0996533,0,198.655)"/>
<path style=" stroke:none;fill-rule:nonzero;fill:rgb(67.96875%,60.742188%,76.756287%);fill-opacity:1;" d="M 53.980469 130.339844 L 39.253906 92.710938 L 61.792969 105.042969 "/>
<path style="fill:none;stroke-width:5;stroke-linecap:round;stroke-linejoin:round;stroke:rgb(0%,0%,0%);stroke-opacity:1;stroke-miterlimit:10;" d="M 541.682884 685.528521 L 393.904863 1063.126844 L 620.079713 939.37745 Z M 541.682884 685.528521 " transform="matrix(0.0996533,0,0,-0.0996533,0,198.655)"/>
<path style=" stroke:none;fill-rule:nonzero;fill:rgb(61.326599%,95.506287%,89.451599%);fill-opacity:1;" d="M 39.253906 92.710938 L 61.792969 105.042969 L 21.855469 97.558594 "/>
<path style="fill:none;stroke-width:5;stroke-linecap:round;stroke-linejoin:round;stroke:rgb(0%,0%,0%);stroke-opacity:1;stroke-miterlimit:10;" d="M 393.904863 1063.126844 L 620.079713 939.37745 L 219.315127 1014.481612 Z M 393.904863 1063.126844 " transform="matrix(0.0996533,0,0,-0.0996533,0,198.655)"/>
<path style=" stroke:none;fill-rule:nonzero;fill:rgb(0%,40.893555%,68.554688%);fill-opacity:1;" d="M 39.253906 92.710938 L 63.535156 86.136719 L 21.855469 97.558594 "/>
<path style="fill:none;stroke-width:5;stroke-linecap:round;stroke-linejoin:round;stroke:rgb(0%,0%,0%);stroke-opacity:1;stroke-miterlimit:10;" d="M 393.904863 1063.126844 L 637.562205 1129.097775 L 219.315127 1014.481612 Z M 393.904863 1063.126844 " transform="matrix(0.0996533,0,0,-0.0996533,0,198.655)"/>
<path style=" stroke:none;fill-rule:nonzero;fill:rgb(44.091797%,52.539062%,84.764099%);fill-opacity:1;" d="M 122.703125 138.355469 L 106.265625 133.796875 L 78.972656 194.183594 "/>
<path style="fill:none;stroke-width:5;stroke-linecap:round;stroke-linejoin:round;stroke:rgb(0%,0%,0%);stroke-opacity:1;stroke-miterlimit:10;" d="M 1231.300584 605.093375 L 1066.353657 650.837924 L 792.474338 44.869641 Z M 1231.300584 605.093375 " transform="matrix(0.0996533,0,0,-0.0996533,0,198.655)"/>
<path style=" stroke:none;fill-rule:nonzero;fill:rgb(79.492188%,47.705078%,45.288086%);fill-opacity:1;" d="M 60.3125 61.105469 L 82.660156 62.582031 L 96.835938 6.273438 "/>
<path style="fill:none;stroke-width:5;stroke-linecap:round;stroke-linejoin:round;stroke:rgb(0%,0%,0%);stroke-opacity:1;stroke-miterlimit:10;" d="M 605.223514 1380.281212 L 829.477641 1365.464212 L 971.728686 1930.509351 Z M 605.223514 1380.281212 " transform="matrix(0.0996533,0,0,-0.0996533,0,198.655)"/>
<path style=" stroke:none;fill-rule:nonzero;fill:rgb(79.6875%,46.604919%,42.893982%);fill-opacity:1;" d="M 129.691406 68.210938 L 129.902344 86.613281 L 190.652344 51.621094 "/>
<path style="fill:none;stroke-width:5;stroke-linecap:round;stroke-linejoin:round;stroke:rgb(0%,0%,0%);stroke-opacity:1;stroke-miterlimit:10;" d="M 1301.426547 1308.979297 L 1303.543261 1124.315568 L 1913.156997 1475.454962 Z M 1301.426547 1308.979297 " transform="matrix(0.0996533,0,0,-0.0996533,0,198.655)"/>
<path style=" stroke:none;fill-rule:nonzero;fill:rgb(67.96875%,60.742188%,76.756287%);fill-opacity:1;" d="M 149.058594 104.714844 L 129.902344 86.613281 L 190.652344 51.621094 "/>
<path style="fill:none;stroke-width:5;stroke-linecap:round;stroke-linejoin:round;stroke:rgb(0%,0%,0%);stroke-opacity:1;stroke-miterlimit:10;" d="M 1495.772284 942.670117 L 1303.543261 1124.315568 L 1913.156997 1475.454962 Z M 1495.772284 942.670117 " transform="matrix(0.0996533,0,0,-0.0996533,0,198.655)"/>
<path style=" stroke:none;fill-rule:nonzero;fill:rgb(44.091797%,52.539062%,84.764099%);fill-opacity:1;" d="M 122.703125 138.355469 L 149.058594 104.714844 L 126.847656 117.183594 "/>
<path style="fill:none;stroke-width:5;stroke-linecap:round;stroke-linejoin:round;stroke:rgb(0%,0%,0%);stroke-opacity:1;stroke-miterlimit:10;" d="M 1231.300584 605.093375 L 1495.772284 942.670117 L 1272.890101 817.548779 Z M 1231.300584 605.093375 " transform="matrix(0.0996533,0,0,-0.0996533,0,198.655)"/>
<path style=" stroke:none;fill-rule:nonzero;fill:rgb(94.53125%,73.4375%,58.789062%);fill-opacity:1;" d="M 53.980469 130.339844 L 61.792969 105.042969 L 21.855469 97.558594 "/>
<path style="fill:none;stroke-width:5;stroke-linecap:round;stroke-linejoin:round;stroke:rgb(0%,0%,0%);stroke-opacity:1;stroke-miterlimit:10;" d="M 541.682884 685.528521 L 620.079713 939.37745 L 219.315127 1014.481612 Z M 541.682884 685.528521 " transform="matrix(0.0996533,0,0,-0.0996533,0,198.655)"/>
<path style=" stroke:none;fill-rule:nonzero;fill:rgb(33.300781%,9.594727%,39.598083%);fill-opacity:1;" d="M 129.691406 68.210938 L 112.914062 65.675781 L 96.835938 6.273438 "/>
<path style="fill:none;stroke-width:5;stroke-linecap:round;stroke-linejoin:round;stroke:rgb(0%,0%,0%);stroke-opacity:1;stroke-miterlimit:10;" d="M 1301.426547 1308.979297 L 1133.069358 1334.419068 L 971.728686 1930.509351 Z M 1301.426547 1308.979297 " transform="matrix(0.0996533,0,0,-0.0996533,0,198.655)"/>
<path style=" stroke:none;fill-rule:nonzero;fill:rgb(94.53125%,73.4375%,58.789062%);fill-opacity:1;" d="M 60.3125 61.105469 L 63.535156 86.136719 L 21.855469 97.558594 "/>
<path style="fill:none;stroke-width:5;stroke-linecap:round;stroke-linejoin:round;stroke:rgb(0%,0%,0%);stroke-opacity:1;stroke-miterlimit:10;" d="M 605.223514 1380.281212 L 637.562205 1129.097775 L 219.315127 1014.481612 Z M 605.223514 1380.281212 " transform="matrix(0.0996533,0,0,-0.0996533,0,198.655)"/>
<path style=" stroke:none;fill-rule:nonzero;fill:rgb(33.300781%,9.594727%,39.598083%);fill-opacity:1;" d="M 149.058594 104.714844 L 129.691406 68.210938 L 129.902344 86.613281 "/>
<path style="fill:none;stroke-width:5;stroke-linecap:round;stroke-linejoin:round;stroke:rgb(0%,0%,0%);stroke-opacity:1;stroke-miterlimit:10;" d="M 1495.772284 942.670117 L 1301.426547 1308.979297 L 1303.543261 1124.315568 Z M 1495.772284 942.670117 " transform="matrix(0.0996533,0,0,-0.0996533,0,198.655)"/>
<path style=" stroke:none;fill-rule:nonzero;fill:rgb(67.96875%,60.742188%,76.756287%);fill-opacity:1;" d="M 53.980469 130.339844 L 80.179688 123.28125 L 78.972656 194.183594 "/>
<path style="fill:none;stroke-width:5;stroke-linecap:round;stroke-linejoin:round;stroke:rgb(0%,0%,0%);stroke-opacity:1;stroke-miterlimit:10;" d="M 541.682884 685.528521 L 804.586648 756.360055 L 792.474338 44.869641 Z M 541.682884 685.528521 " transform="matrix(0.0996533,0,0,-0.0996533,0,198.655)"/>
<path style=" stroke:none;fill-rule:nonzero;fill:rgb(0%,0%,43.188477%);fill-opacity:1;" d="M 85.703125 123.386719 L 80.179688 123.28125 L 78.972656 194.183594 "/>
<path style="fill:none;stroke-width:5;stroke-linecap:round;stroke-linejoin:round;stroke:rgb(0%,0%,0%);stroke-opacity:1;stroke-miterlimit:10;" d="M 860.013205 755.301698 L 804.586648 756.360055 L 792.474338 44.869641 Z M 860.013205 755.301698 " transform="matrix(0.0996533,0,0,-0.0996533,0,198.655)"/>
<path style=" stroke:none;fill-rule:nonzero;fill:rgb(0%,50.389099%,79.881287%);fill-opacity:1;" d="M 53.980469 130.339844 L 85.703125 123.386719 L 80.179688 123.28125 "/>
<path style="fill:none;stroke-width:5;stroke-linecap:round;stroke-linejoin:round;stroke:rgb(0%,0%,0%);stroke-opacity:1;stroke-miterlimit:10;" d="M 541.682884 685.528521 L 860.013205 755.301698 L 804.586648 756.360055 Z M 541.682884 685.528521 " transform="matrix(0.0996533,0,0,-0.0996533,0,198.655)"/>
<path style=" stroke:none;fill-rule:nonzero;fill:rgb(41.209412%,51.5625%,85.351562%);fill-opacity:1;" d="M 85.703125 123.386719 L 53.980469 130.339844 L 74.574219 113.441406 "/>
<path style="fill:none;stroke-width:5;stroke-linecap:round;stroke-linejoin:round;stroke:rgb(0%,0%,0%);stroke-opacity:1;stroke-miterlimit:10;" d="M 860.013205 755.301698 L 541.682884 685.528521 L 748.336924 855.10086 Z M 860.013205 755.301698 " transform="matrix(0.0996533,0,0,-0.0996533,0,198.655)"/>
<path style=" stroke:none;fill-rule:nonzero;fill:rgb(79.6875%,46.604919%,42.893982%);fill-opacity:1;" d="M 53.980469 130.339844 L 74.574219 113.441406 L 21.855469 97.558594 "/>
<path style="fill:none;stroke-width:5;stroke-linecap:round;stroke-linejoin:round;stroke:rgb(0%,0%,0%);stroke-opacity:1;stroke-miterlimit:10;" d="M 541.682884 685.528521 L 748.336924 855.10086 L 219.315127 1014.481612 Z M 541.682884 685.528521 " transform="matrix(0.0996533,0,0,-0.0996533,0,198.655)"/>
<path style=" stroke:none;fill-rule:nonzero;fill:rgb(67.96875%,60.742188%,76.756287%);fill-opacity:1;" d="M 149.058594 104.714844 L 122.703125 138.355469 L 122.695312 111.820312 "/>
<path style="fill:none;stroke-width:5;stroke-linecap:round;stroke-linejoin:round;stroke:rgb(0%,0%,0%);stroke-opacity:1;stroke-miterlimit:10;" d="M 1495.772284 942.670117 L 1231.300584 605.093375 L 1231.222187 871.368202 Z M 1495.772284 942.670117 " transform="matrix(0.0996533,0,0,-0.0996533,0,198.655)"/>
<path style=" stroke:none;fill-rule:nonzero;fill:rgb(0%,0%,49.510193%);fill-opacity:1;" d="M 122.703125 138.355469 L 122.695312 111.820312 L 142.582031 110.921875 "/>
<path style="fill:none;stroke-width:5;stroke-linecap:round;stroke-linejoin:round;stroke:rgb(0%,0%,0%);stroke-opacity:1;stroke-miterlimit:10;" d="M 1231.300584 605.093375 L 1231.222187 871.368202 L 1430.781313 880.383837 Z M 1231.300584 605.093375 " transform="matrix(0.0996533,0,0,-0.0996533,0,198.655)"/>
<path style=" stroke:none;fill-rule:nonzero;fill:rgb(0%,50.389099%,79.881287%);fill-opacity:1;" d="M 149.058594 104.714844 L 122.695312 111.820312 L 142.582031 110.921875 "/>
<path style="fill:none;stroke-width:5;stroke-linecap:round;stroke-linejoin:round;stroke:rgb(0%,0%,0%);stroke-opacity:1;stroke-miterlimit:10;" d="M 1495.772284 942.670117 L 1231.222187 871.368202 L 1430.781313 880.383837 Z M 1495.772284 942.670117 " transform="matrix(0.0996533,0,0,-0.0996533,0,198.655)"/>
<path style=" stroke:none;fill-rule:nonzero;fill:rgb(65.625%,45.410156%,59.764099%);fill-opacity:1;" d="M 129.691406 68.210938 L 149.058594 104.714844 L 124.597656 92.695312 "/>
<path style="fill:none;stroke-width:5;stroke-linecap:round;stroke-linejoin:round;stroke:rgb(0%,0%,0%);stroke-opacity:1;stroke-miterlimit:10;" d="M 1301.426547 1308.979297 L 1495.772284 942.670117 L 1250.311815 1063.283637 Z M 1301.426547 1308.979297 " transform="matrix(0.0996533,0,0,-0.0996533,0,198.655)"/>
<path style=" stroke:none;fill-rule:nonzero;fill:rgb(53.514099%,92.381287%,83.59375%);fill-opacity:1;" d="M 149.058594 104.714844 L 124.597656 92.695312 L 142.582031 110.921875 "/>
<path style="fill:none;stroke-width:5;stroke-linecap:round;stroke-linejoin:round;stroke:rgb(0%,0%,0%);stroke-opacity:1;stroke-miterlimit:10;" d="M 1495.772284 942.670117 L 1250.311815 1063.283637 L 1430.781313 880.383837 Z M 1495.772284 942.670117 " transform="matrix(0.0996533,0,0,-0.0996533,0,198.655)"/>
<path style=" stroke:none;fill-rule:nonzero;fill:rgb(67.96875%,60.742188%,76.756287%);fill-opacity:1;" d="M 122.703125 138.355469 L 99.105469 125.449219 L 78.972656 194.183594 "/>
<path style="fill:none;stroke-width:5;stroke-linecap:round;stroke-linejoin:round;stroke:rgb(0%,0%,0%);stroke-opacity:1;stroke-miterlimit:10;" d="M 1231.300584 605.093375 L 994.502964 734.604935 L 792.474338 44.869641 Z M 1231.300584 605.093375 " transform="matrix(0.0996533,0,0,-0.0996533,0,198.655)"/>
<path style=" stroke:none;fill-rule:nonzero;fill:rgb(95.896912%,74.21875%,56.834412%);fill-opacity:1;" d="M 85.703125 123.386719 L 99.105469 125.449219 L 78.972656 194.183594 "/>
<path style="fill:none;stroke-width:5;stroke-linecap:round;stroke-linejoin:round;stroke:rgb(0%,0%,0%);stroke-opacity:1;stroke-miterlimit:10;" d="M 860.013205 755.301698 L 994.502964 734.604935 L 792.474338 44.869641 Z M 860.013205 755.301698 " transform="matrix(0.0996533,0,0,-0.0996533,0,198.655)"/>
<path style=" stroke:none;fill-rule:nonzero;fill:rgb(61.326599%,95.506287%,89.451599%);fill-opacity:1;" d="M 85.703125 123.386719 L 122.703125 138.355469 L 99.105469 125.449219 "/>
<path style="fill:none;stroke-width:5;stroke-linecap:round;stroke-linejoin:round;stroke:rgb(0%,0%,0%);stroke-opacity:1;stroke-miterlimit:10;" d="M 860.013205 755.301698 L 1231.300584 605.093375 L 994.502964 734.604935 Z M 860.013205 755.301698 " transform="matrix(0.0996533,0,0,-0.0996533,0,198.655)"/>
<path style=" stroke:none;fill-rule:nonzero;fill:rgb(0%,0%,49.510193%);fill-opacity:1;" d="M 129.691406 68.210938 L 124.597656 92.695312 L 142.582031 110.921875 "/>
<path style="fill:none;stroke-width:5;stroke-linecap:round;stroke-linejoin:round;stroke:rgb(0%,0%,0%);stroke-opacity:1;stroke-miterlimit:10;" d="M 1301.426547 1308.979297 L 1250.311815 1063.283637 L 1430.781313 880.383837 Z M 1301.426547 1308.979297 " transform="matrix(0.0996533,0,0,-0.0996533,0,198.655)"/>
<path style=" stroke:none;fill-rule:nonzero;fill:rgb(61.326599%,95.506287%,89.451599%);fill-opacity:1;" d="M 85.703125 123.386719 L 74.574219 113.441406 L 21.855469 97.558594 "/>
<path style="fill:none;stroke-width:5;stroke-linecap:round;stroke-linejoin:round;stroke:rgb(0%,0%,0%);stroke-opacity:1;stroke-miterlimit:10;" d="M 860.013205 755.301698 L 748.336924 855.10086 L 219.315127 1014.481612 Z M 860.013205 755.301698 " transform="matrix(0.0996533,0,0,-0.0996533,0,198.655)"/>
<path style=" stroke:none;fill-rule:nonzero;fill:rgb(53.514099%,92.381287%,83.59375%);fill-opacity:1;" d="M 89.917969 79.03125 L 60.3125 61.105469 L 84.90625 73.191406 "/>
<path style="fill:none;stroke-width:5;stroke-linecap:round;stroke-linejoin:round;stroke:rgb(0%,0%,0%);stroke-opacity:1;stroke-miterlimit:10;" d="M 902.308294 1200.39969 L 605.223514 1380.281212 L 852.016729 1259.001319 Z M 902.308294 1200.39969 " transform="matrix(0.0996533,0,0,-0.0996533,0,198.655)"/>
<path style=" stroke:none;fill-rule:nonzero;fill:rgb(65.625%,45.410156%,59.764099%);fill-opacity:1;" d="M 60.3125 61.105469 L 84.90625 73.191406 L 96.835938 6.273438 "/>
<path style="fill:none;stroke-width:5;stroke-linecap:round;stroke-linejoin:round;stroke:rgb(0%,0%,0%);stroke-opacity:1;stroke-miterlimit:10;" d="M 605.223514 1380.281212 L 852.016729 1259.001319 L 971.728686 1930.509351 Z M 605.223514 1380.281212 " transform="matrix(0.0996533,0,0,-0.0996533,0,198.655)"/>
<path style=" stroke:none;fill-rule:nonzero;fill:rgb(0%,0%,43.188477%);fill-opacity:1;" d="M 89.917969 79.03125 L 84.90625 73.191406 L 96.835938 6.273438 "/>
<path style="fill:none;stroke-width:5;stroke-linecap:round;stroke-linejoin:round;stroke:rgb(0%,0%,0%);stroke-opacity:1;stroke-miterlimit:10;" d="M 902.308294 1200.39969 L 852.016729 1259.001319 L 971.728686 1930.509351 Z M 902.308294 1200.39969 " transform="matrix(0.0996533,0,0,-0.0996533,0,198.655)"/>
<path style=" stroke:none;fill-rule:nonzero;fill:rgb(28.808594%,4.199219%,35.594177%);fill-opacity:1;" d="M 60.3125 61.105469 L 89.917969 79.03125 L 77.484375 82.367188 "/>
<path style="fill:none;stroke-width:5;stroke-linecap:round;stroke-linejoin:round;stroke:rgb(0%,0%,0%);stroke-opacity:1;stroke-miterlimit:10;" d="M 605.223514 1380.281212 L 902.308294 1200.39969 L 777.539742 1166.924244 Z M 605.223514 1380.281212 " transform="matrix(0.0996533,0,0,-0.0996533,0,198.655)"/>
<path style=" stroke:none;fill-rule:nonzero;fill:rgb(83.201599%,79.296875%,81.443787%);fill-opacity:1;" d="M 60.3125 61.105469 L 77.484375 82.367188 L 21.855469 97.558594 "/>
<path style="fill:none;stroke-width:5;stroke-linecap:round;stroke-linejoin:round;stroke:rgb(0%,0%,0%);stroke-opacity:1;stroke-miterlimit:10;" d="M 605.223514 1380.281212 L 777.539742 1166.924244 L 219.315127 1014.481612 Z M 605.223514 1380.281212 " transform="matrix(0.0996533,0,0,-0.0996533,0,198.655)"/>
<path style=" stroke:none;fill-rule:nonzero;fill:rgb(0%,40.893555%,68.554688%);fill-opacity:1;" d="M 89.917969 79.03125 L 77.484375 82.367188 L 21.855469 97.558594 "/>
<path style="fill:none;stroke-width:5;stroke-linecap:round;stroke-linejoin:round;stroke:rgb(0%,0%,0%);stroke-opacity:1;stroke-miterlimit:10;" d="M 902.308294 1200.39969 L 777.539742 1166.924244 L 219.315127 1014.481612 Z M 902.308294 1200.39969 " transform="matrix(0.0996533,0,0,-0.0996533,0,198.655)"/>
<path style=" stroke:none;fill-rule:nonzero;fill:rgb(0%,40.893555%,68.554688%);fill-opacity:1;" d="M 129.691406 68.210938 L 89.917969 79.03125 L 103.964844 75.179688 "/>
<path style="fill:none;stroke-width:5;stroke-linecap:round;stroke-linejoin:round;stroke:rgb(0%,0%,0%);stroke-opacity:1;stroke-miterlimit:10;" d="M 1301.426547 1308.979297 L 902.308294 1200.39969 L 1043.265791 1239.049326 Z M 1301.426547 1308.979297 " transform="matrix(0.0996533,0,0,-0.0996533,0,198.655)"/>
<path style=" stroke:none;fill-rule:nonzero;fill:rgb(95.896912%,74.21875%,56.834412%);fill-opacity:1;" d="M 89.917969 79.03125 L 103.964844 75.179688 L 96.835938 6.273438 "/>
<path style="fill:none;stroke-width:5;stroke-linecap:round;stroke-linejoin:round;stroke:rgb(0%,0%,0%);stroke-opacity:1;stroke-miterlimit:10;" d="M 902.308294 1200.39969 L 1043.265791 1239.049326 L 971.728686 1930.509351 Z M 902.308294 1200.39969 " transform="matrix(0.0996533,0,0,-0.0996533,0,198.655)"/>
<path style=" stroke:none;fill-rule:nonzero;fill:rgb(65.625%,45.410156%,59.764099%);fill-opacity:1;" d="M 129.691406 68.210938 L 103.964844 75.179688 L 96.835938 6.273438 "/>
<path style="fill:none;stroke-width:5;stroke-linecap:round;stroke-linejoin:round;stroke:rgb(0%,0%,0%);stroke-opacity:1;stroke-miterlimit:10;" d="M 1301.426547 1308.979297 L 1043.265791 1239.049326 L 971.728686 1930.509351 Z M 1301.426547 1308.979297 " transform="matrix(0.0996533,0,0,-0.0996533,0,198.655)"/>
<path style=" stroke:none;fill-rule:nonzero;fill:rgb(83.201599%,79.296875%,81.443787%);fill-opacity:1;" d="M 122.703125 138.355469 L 85.703125 123.386719 L 105.386719 116.917969 "/>
<path style="fill:none;stroke-width:5;stroke-linecap:round;stroke-linejoin:round;stroke:rgb(0%,0%,0%);stroke-opacity:1;stroke-miterlimit:10;" d="M 1231.300584 605.093375 L 860.013205 755.301698 L 1057.534014 820.214272 Z M 1231.300584 605.093375 " transform="matrix(0.0996533,0,0,-0.0996533,0,198.655)"/>
<path style=" stroke:none;fill-rule:nonzero;fill:rgb(28.808594%,4.199219%,35.594177%);fill-opacity:1;" d="M 122.703125 138.355469 L 105.386719 116.917969 L 142.582031 110.921875 "/>
<path style="fill:none;stroke-width:5;stroke-linecap:round;stroke-linejoin:round;stroke:rgb(0%,0%,0%);stroke-opacity:1;stroke-miterlimit:10;" d="M 1231.300584 605.093375 L 1057.534014 820.214272 L 1430.781313 880.383837 Z M 1231.300584 605.093375 " transform="matrix(0.0996533,0,0,-0.0996533,0,198.655)"/>
<path style=" stroke:none;fill-rule:nonzero;fill:rgb(0%,50.389099%,79.881287%);fill-opacity:1;" d="M 85.703125 123.386719 L 105.386719 116.917969 L 142.582031 110.921875 "/>
<path style="fill:none;stroke-width:5;stroke-linecap:round;stroke-linejoin:round;stroke:rgb(0%,0%,0%);stroke-opacity:1;stroke-miterlimit:10;" d="M 860.013205 755.301698 L 1057.534014 820.214272 L 1430.781313 880.383837 Z M 860.013205 755.301698 " transform="matrix(0.0996533,0,0,-0.0996533,0,198.655)"/>
<path style=" stroke:none;fill-rule:nonzero;fill:rgb(79.6875%,46.604919%,42.893982%);fill-opacity:1;" d="M 89.917969 79.03125 L 129.691406 68.210938 L 108.429688 85.660156 "/>
<path style="fill:none;stroke-width:5;stroke-linecap:round;stroke-linejoin:round;stroke:rgb(0%,0%,0%);stroke-opacity:1;stroke-miterlimit:10;" d="M 902.308294 1200.39969 L 1301.426547 1308.979297 L 1088.069579 1133.879981 Z M 902.308294 1200.39969 " transform="matrix(0.0996533,0,0,-0.0996533,0,198.655)"/>
<path style=" stroke:none;fill-rule:nonzero;fill:rgb(41.209412%,51.5625%,85.351562%);fill-opacity:1;" d="M 129.691406 68.210938 L 108.429688 85.660156 L 142.582031 110.921875 "/>
<path style="fill:none;stroke-width:5;stroke-linecap:round;stroke-linejoin:round;stroke:rgb(0%,0%,0%);stroke-opacity:1;stroke-miterlimit:10;" d="M 1301.426547 1308.979297 L 1088.069579 1133.879981 L 1430.781313 880.383837 Z M 1301.426547 1308.979297 " transform="matrix(0.0996533,0,0,-0.0996533,0,198.655)"/>
<path style=" stroke:none;fill-rule:nonzero;fill:rgb(53.514099%,92.381287%,83.59375%);fill-opacity:1;" d="M 89.917969 79.03125 L 108.429688 85.660156 L 142.582031 110.921875 "/>
<path style="fill:none;stroke-width:5;stroke-linecap:round;stroke-linejoin:round;stroke:rgb(0%,0%,0%);stroke-opacity:1;stroke-miterlimit:10;" d="M 902.308294 1200.39969 L 1088.069579 1133.879981 L 1430.781313 880.383837 Z M 902.308294 1200.39969 " transform="matrix(0.0996533,0,0,-0.0996533,0,198.655)"/>
<path style=" stroke:none;fill-rule:nonzero;fill:rgb(0%,0%,43.188477%);fill-opacity:1;" d="M 89.917969 79.03125 L 85.703125 123.386719 L 84.503906 99.414062 "/>
<path style="fill:none;stroke-width:5;stroke-linecap:round;stroke-linejoin:round;stroke:rgb(0%,0%,0%);stroke-opacity:1;stroke-miterlimit:10;" d="M 902.308294 1200.39969 L 860.013205 755.301698 L 847.979292 995.862365 Z M 902.308294 1200.39969 " transform="matrix(0.0996533,0,0,-0.0996533,0,198.655)"/>
<path style=" stroke:none;fill-rule:nonzero;fill:rgb(83.201599%,79.296875%,81.443787%);fill-opacity:1;" d="M 85.703125 123.386719 L 84.503906 99.414062 L 21.855469 97.558594 "/>
<path style="fill:none;stroke-width:5;stroke-linecap:round;stroke-linejoin:round;stroke:rgb(0%,0%,0%);stroke-opacity:1;stroke-miterlimit:10;" d="M 860.013205 755.301698 L 847.979292 995.862365 L 219.315127 1014.481612 Z M 860.013205 755.301698 " transform="matrix(0.0996533,0,0,-0.0996533,0,198.655)"/>
<path style=" stroke:none;fill-rule:nonzero;fill:rgb(79.6875%,46.604919%,42.893982%);fill-opacity:1;" d="M 89.917969 79.03125 L 84.503906 99.414062 L 21.855469 97.558594 "/>
<path style="fill:none;stroke-width:5;stroke-linecap:round;stroke-linejoin:round;stroke:rgb(0%,0%,0%);stroke-opacity:1;stroke-miterlimit:10;" d="M 902.308294 1200.39969 L 847.979292 995.862365 L 219.315127 1014.481612 Z M 902.308294 1200.39969 " transform="matrix(0.0996533,0,0,-0.0996533,0,198.655)"/>
<path style=" stroke:none;fill-rule:nonzero;fill:rgb(95.896912%,74.21875%,56.834412%);fill-opacity:1;" d="M 85.703125 123.386719 L 89.917969 79.03125 L 96.390625 100.71875 "/>
<path style="fill:none;stroke-width:5;stroke-linecap:round;stroke-linejoin:round;stroke:rgb(0%,0%,0%);stroke-opacity:1;stroke-miterlimit:10;" d="M 860.013205 755.301698 L 902.308294 1200.39969 L 967.260066 982.770095 Z M 860.013205 755.301698 " transform="matrix(0.0996533,0,0,-0.0996533,0,198.655)"/>
<path style=" stroke:none;fill-rule:nonzero;fill:rgb(28.808594%,4.199219%,35.594177%);fill-opacity:1;" d="M 89.917969 79.03125 L 96.390625 100.71875 L 142.582031 110.921875 "/>
<path style="fill:none;stroke-width:5;stroke-linecap:round;stroke-linejoin:round;stroke:rgb(0%,0%,0%);stroke-opacity:1;stroke-miterlimit:10;" d="M 902.308294 1200.39969 L 967.260066 982.770095 L 1430.781313 880.383837 Z M 902.308294 1200.39969 " transform="matrix(0.0996533,0,0,-0.0996533,0,198.655)"/>
<path style=" stroke:none;fill-rule:nonzero;fill:rgb(41.209412%,51.5625%,85.351562%);fill-opacity:1;" d="M 85.703125 123.386719 L 96.390625 100.71875 L 142.582031 110.921875 "/>
<path style="fill:none;stroke-width:5;stroke-linecap:round;stroke-linejoin:round;stroke:rgb(0%,0%,0%);stroke-opacity:1;stroke-miterlimit:10;" d="M 860.013205 755.301698 L 967.260066 982.770095 L 1430.781313 880.383837 Z M 860.013205 755.301698 " transform="matrix(0.0996533,0,0,-0.0996533,0,198.655)"/>
</g>
</svg>
