<?xml version="1.0" encoding="UTF-8"?>
<svg xmlns="http://www.w3.org/2000/svg" xmlns:xlink="http://www.w3.org/1999/xlink" width="249.13pt" height="199.94pt" viewBox="0 0 249.13 199.94" version="1.2">
<g id="surface1">
<path style="fill-rule:nonzero;fill:rgb(84.375%,58.984375%,55.46875%);fill-opacity:1;stroke-width:5;stroke-linecap:round;stroke-linejoin:round;stroke:rgb(0%,0%,0%);stroke-opacity:1;stroke-miterlimit:10;" d="M 581.790255 1614.953062 L 1084.281111 1813.456354 L 1096.746365 1318.530888 " transform="matrix(0.099652,0,0,-0.099652,0,199.562209)"/>
<path style="fill-rule:nonzero;fill:rgb(84.375%,58.984375%,55.46875%);fill-opacity:1;stroke-width:5;stroke-linecap:round;stroke-linejoin:round;stroke:rgb(0%,0%,0%);stroke-opacity:1;stroke-miterlimit:10;" d="M 1096.746365 1318.530888 L 624.321075 1106.699966 L 581.790255 1614.953062 " transform="matrix(0.099652,0,0,-0.099652,0,199.562209)"/>
<path style="fill-rule:nonzero;fill:rgb(67.1875%,44.309998%,56.443787%);fill-opacity:1;stroke-width:5;stroke-linecap:round;stroke-linejoin:round;stroke:rgb(0%,0%,0%);stroke-opacity:1;stroke-miterlimit:10;" d="M 1662.621862 1285.133415 L 1096.746365 1318.530888 L 1084.281111 1813.456354 " transform="matrix(0.099652,0,0,-0.099652,0,199.562209)"/>
<path style=" stroke:none;fill-rule:nonzero;fill:rgb(66.209412%,74.21875%,90.818787%);fill-opacity:1;" d="M 109.292969 68.167969 L 62.214844 89.277344 L 205.90625 137.925781 "/>
<path style="fill:none;stroke-width:5;stroke-linecap:round;stroke-linejoin:round;stroke:rgb(0%,0%,0%);stroke-opacity:1;stroke-miterlimit:10;" d="M 1096.746365 1318.530888 L 624.321075 1106.699966 " transform="matrix(0.099652,0,0,-0.099652,0,199.562209)"/>
<path style=" stroke:none;fill-rule:nonzero;fill:rgb(66.209412%,74.21875%,90.818787%);fill-opacity:1;" d="M 165.683594 71.496094 L 109.292969 68.167969 L 205.90625 137.925781 "/>
<path style="fill:none;stroke-width:5;stroke-linecap:round;stroke-linejoin:round;stroke:rgb(0%,0%,0%);stroke-opacity:1;stroke-miterlimit:10;" d="M 1662.621862 1285.133415 L 1096.746365 1318.530888 " transform="matrix(0.099652,0,0,-0.099652,0,199.562209)"/>
<path style="fill-rule:nonzero;fill:rgb(67.1875%,44.309998%,56.443787%);fill-opacity:1;stroke-width:5;stroke-linecap:round;stroke-linejoin:round;stroke:rgb(0%,0%,0%);stroke-opacity:1;stroke-miterlimit:10;" d="M 1084.281111 1813.456354 L 1683.789274 1782.254019 L 1662.621862 1285.133415 " transform="matrix(0.099652,0,0,-0.099652,0,199.562209)"/>
<path style="fill-rule:nonzero;fill:rgb(42.088318%,25.097656%,54.492188%);fill-opacity:1;stroke-width:5;stroke-linecap:round;stroke-linejoin:round;stroke:rgb(0%,0%,0%);stroke-opacity:1;stroke-miterlimit:10;" d="M 2067.507426 1016.581667 L 1662.621862 1285.133415 L 1683.789274 1782.254019 " transform="matrix(0.099652,0,0,-0.099652,0,199.562209)"/>
<path style="fill-rule:nonzero;fill:rgb(66.209412%,74.21875%,90.818787%);fill-opacity:1;stroke-width:5;stroke-linecap:round;stroke-linejoin:round;stroke:rgb(0%,0%,0%);stroke-opacity:1;stroke-miterlimit:10;" d="M 2066.253061 618.516714 L 2067.507426 1016.581667 L 1662.621862 1285.133415 " transform="matrix(0.099652,0,0,-0.099652,0,199.562209)"/>
<path style="fill-rule:nonzero;fill:rgb(98.631287%,77.734375%,37.988281%);fill-opacity:1;stroke-width:5;stroke-linecap:round;stroke-linejoin:round;stroke:rgb(0%,0%,0%);stroke-opacity:1;stroke-miterlimit:10;" d="M 443.300498 1254.244672 L 581.790255 1614.953062 L 624.321075 1106.699966 " transform="matrix(0.099652,0,0,-0.099652,0,199.562209)"/>
<path style="fill-rule:nonzero;fill:rgb(98.631287%,77.734375%,37.988281%);fill-opacity:1;stroke-width:5;stroke-linecap:round;stroke-linejoin:round;stroke:rgb(0%,0%,0%);stroke-opacity:1;stroke-miterlimit:10;" d="M 624.321075 1106.699966 L 498.37497 725.059357 L 443.300498 1254.244672 " transform="matrix(0.099652,0,0,-0.099652,0,199.562209)"/>
<path style=" stroke:none;fill-rule:nonzero;fill:rgb(66.209412%,74.21875%,90.818787%);fill-opacity:1;" d="M 62.214844 89.277344 L 49.664062 127.308594 L 205.90625 137.925781 "/>
<path style="fill:none;stroke-width:5;stroke-linecap:round;stroke-linejoin:round;stroke:rgb(0%,0%,0%);stroke-opacity:1;stroke-miterlimit:10;" d="M 624.321075 1106.699966 L 498.37497 725.059357 " transform="matrix(0.099652,0,0,-0.099652,0,199.562209)"/>
<path style="fill-rule:nonzero;fill:rgb(42.088318%,25.097656%,54.492188%);fill-opacity:1;stroke-width:5;stroke-linecap:round;stroke-linejoin:round;stroke:rgb(0%,0%,0%);stroke-opacity:1;stroke-miterlimit:10;" d="M 1683.789274 1782.254019 L 2115.839685 1530.126616 L 2067.507426 1016.581667 " transform="matrix(0.099652,0,0,-0.099652,0,199.562209)"/>
<path style="fill-rule:nonzero;fill:rgb(22.192383%,22.192383%,37.5%);fill-opacity:1;stroke-width:5;stroke-linecap:round;stroke-linejoin:round;stroke:rgb(0%,0%,0%);stroke-opacity:1;stroke-miterlimit:10;" d="M 2066.253061 618.516714 L 2067.507426 1016.581667 L 2115.839685 1530.126616 " transform="matrix(0.099652,0,0,-0.099652,0,199.562209)"/>
<path style="fill-rule:nonzero;fill:rgb(22.192383%,22.192383%,37.5%);fill-opacity:1;stroke-width:5;stroke-linecap:round;stroke-linejoin:round;stroke:rgb(0%,0%,0%);stroke-opacity:1;stroke-miterlimit:10;" d="M 2115.839685 1530.126616 L 2119.093194 1152.876285 L 2066.253061 618.516714 " transform="matrix(0.099652,0,0,-0.099652,0,199.562209)"/>
<path style=" stroke:none;fill-rule:nonzero;fill:rgb(64.646912%,76.171875%,93.359375%);fill-opacity:1;" d="M 108.050781 18.847656 L 57.976562 38.628906 L 211.171875 84.675781 "/>
<path style="fill:none;stroke-width:5;stroke-linecap:round;stroke-linejoin:round;stroke:rgb(0%,0%,0%);stroke-opacity:1;stroke-miterlimit:10;" d="M 1084.281111 1813.456354 L 581.790255 1614.953062 " transform="matrix(0.099652,0,0,-0.099652,0,199.562209)"/>
<path style=" stroke:none;fill-rule:nonzero;fill:rgb(64.646912%,76.171875%,93.359375%);fill-opacity:1;" d="M 167.792969 21.957031 L 108.050781 18.847656 L 211.171875 84.675781 "/>
<path style="fill:none;stroke-width:5;stroke-linecap:round;stroke-linejoin:round;stroke:rgb(0%,0%,0%);stroke-opacity:1;stroke-miterlimit:10;" d="M 1683.789274 1782.254019 L 1084.281111 1813.456354 " transform="matrix(0.099652,0,0,-0.099652,0,199.562209)"/>
<path style="fill-rule:nonzero;fill:rgb(64.646912%,76.171875%,93.359375%);fill-opacity:1;stroke-width:5;stroke-linecap:round;stroke-linejoin:round;stroke:rgb(0%,0%,0%);stroke-opacity:1;stroke-miterlimit:10;" d="M 2119.093194 1152.876285 L 2115.839685 1530.126616 L 1683.789274 1782.254019 " transform="matrix(0.099652,0,0,-0.099652,0,199.562209)"/>
<path style=" stroke:none;fill-rule:nonzero;fill:rgb(64.646912%,76.171875%,93.359375%);fill-opacity:1;" d="M 57.976562 38.628906 L 44.175781 74.574219 L 211.171875 84.675781 "/>
<path style="fill:none;stroke-width:5;stroke-linecap:round;stroke-linejoin:round;stroke:rgb(0%,0%,0%);stroke-opacity:1;stroke-miterlimit:10;" d="M 581.790255 1614.953062 L 443.300498 1254.244672 " transform="matrix(0.099652,0,0,-0.099652,0,199.562209)"/>
<path style="fill-rule:nonzero;fill:rgb(23.094177%,4.899597%,41.601562%);fill-opacity:1;stroke-width:5;stroke-linecap:round;stroke-linejoin:round;stroke:rgb(0%,0%,0%);stroke-opacity:1;stroke-miterlimit:10;" d="M 844.736558 922.739471 L 443.300498 1254.244672 L 498.37497 725.059357 " transform="matrix(0.099652,0,0,-0.099652,0,199.562209)"/>
<path style=" stroke:none;fill-rule:nonzero;fill:rgb(66.209412%,74.21875%,90.818787%);fill-opacity:1;" d="M 49.664062 127.308594 L 87.332031 161.902344 L 205.90625 137.925781 "/>
<path style="fill:none;stroke-width:5;stroke-linecap:round;stroke-linejoin:round;stroke:rgb(0%,0%,0%);stroke-opacity:1;stroke-miterlimit:10;" d="M 498.37497 725.059357 L 876.37008 377.91379 " transform="matrix(0.099652,0,0,-0.099652,0,199.562209)"/>
<path style="fill-rule:nonzero;fill:rgb(23.094177%,4.899597%,41.601562%);fill-opacity:1;stroke-width:5;stroke-linecap:round;stroke-linejoin:round;stroke:rgb(0%,0%,0%);stroke-opacity:1;stroke-miterlimit:10;" d="M 498.37497 725.059357 L 876.37008 377.91379 L 844.736558 922.739471 " transform="matrix(0.099652,0,0,-0.099652,0,199.562209)"/>
<path style="fill-rule:nonzero;fill:rgb(66.209412%,74.21875%,90.818787%);fill-opacity:1;stroke-width:5;stroke-linecap:round;stroke-linejoin:round;stroke:rgb(0%,0%,0%);stroke-opacity:1;stroke-miterlimit:10;" d="M 876.37008 377.91379 L 1568.034886 327.778382 L 2066.253061 618.516714 " transform="matrix(0.099652,0,0,-0.099652,0,199.562209)"/>
<path style="fill-rule:nonzero;fill:rgb(88.28125%,57.617188%,46.604919%);fill-opacity:1;stroke-width:5;stroke-linecap:round;stroke-linejoin:round;stroke:rgb(0%,0%,0%);stroke-opacity:1;stroke-miterlimit:10;" d="M 1568.034886 327.778382 L 2066.253061 618.516714 L 2119.093194 1152.876285 " transform="matrix(0.099652,0,0,-0.099652,0,199.562209)"/>
<path style=" stroke:none;fill-rule:nonzero;fill:rgb(64.646912%,76.171875%,93.359375%);fill-opacity:1;" d="M 44.175781 74.574219 L 84.179688 107.609375 L 211.171875 84.675781 "/>
<path style="fill:none;stroke-width:5;stroke-linecap:round;stroke-linejoin:round;stroke:rgb(0%,0%,0%);stroke-opacity:1;stroke-miterlimit:10;" d="M 443.300498 1254.244672 L 844.736558 922.739471 " transform="matrix(0.099652,0,0,-0.099652,0,199.562209)"/>
<path style="fill-rule:nonzero;fill:rgb(65.234375%,38.890076%,50.78125%);fill-opacity:1;stroke-width:5;stroke-linecap:round;stroke-linejoin:round;stroke:rgb(0%,0%,0%);stroke-opacity:1;stroke-miterlimit:10;" d="M 1587.281552 874.642406 L 844.736558 922.739471 L 876.37008 377.91379 " transform="matrix(0.099652,0,0,-0.099652,0,199.562209)"/>
<path style="fill-rule:nonzero;fill:rgb(65.234375%,38.890076%,50.78125%);fill-opacity:1;stroke-width:5;stroke-linecap:round;stroke-linejoin:round;stroke:rgb(0%,0%,0%);stroke-opacity:1;stroke-miterlimit:10;" d="M 876.37008 377.91379 L 1568.034886 327.778382 L 1587.281552 874.642406 " transform="matrix(0.099652,0,0,-0.099652,0,199.562209)"/>
<path style="fill-rule:nonzero;fill:rgb(88.28125%,57.617188%,46.604919%);fill-opacity:1;stroke-width:5;stroke-linecap:round;stroke-linejoin:round;stroke:rgb(0%,0%,0%);stroke-opacity:1;stroke-miterlimit:10;" d="M 2119.093194 1152.876285 L 1587.281552 874.642406 L 1568.034886 327.778382 " transform="matrix(0.099652,0,0,-0.099652,0,199.562209)"/>
<path style="fill-rule:nonzero;fill:rgb(64.646912%,76.171875%,93.359375%);fill-opacity:1;stroke-width:5;stroke-linecap:round;stroke-linejoin:round;stroke:rgb(0%,0%,0%);stroke-opacity:1;stroke-miterlimit:10;" d="M 844.736558 922.739471 L 1587.281552 874.642406 L 2119.093194 1152.876285 " transform="matrix(0.099652,0,0,-0.099652,0,199.562209)"/>
</g>
</svg>
