<?xml version="1.0" encoding="UTF-8"?>
<svg xmlns="http://www.w3.org/2000/svg" xmlns:xlink="http://www.w3.org/1999/xlink" width="196.44pt" height="199.13pt" viewBox="0 0 196.44 199.13" version="1.2">
<g id="surface1">
<path style=" stroke:none;fill-rule:nonzero;fill:rgb(75.78125%,65.818787%,75.193787%);fill-opacity:1;" d="M 65.667969 68.351562 L 117.230469 76.109375 L 126.929688 127.703125 "/>
<path style="fill:none;stroke-width:5;stroke-linecap:round;stroke-linejoin:round;stroke:rgb(0%,0%,0%);stroke-opacity:1;stroke-miterlimit:10;" d="M 658.057488 1304.798092 L 1175.935256 1226.881027 L 1273.351203 708.689394 Z M 658.057488 1304.798092 " transform="matrix(0.099565,0,0,-0.099565,0.148475,198.263784)"/>
<path style=" stroke:none;fill-rule:nonzero;fill:rgb(44.189453%,35.594177%,66.209412%);fill-opacity:1;" d="M 126.929688 127.703125 L 117.230469 76.109375 L 146.828125 46.941406 "/>
<path style="fill:none;stroke-width:5;stroke-linecap:round;stroke-linejoin:round;stroke:rgb(0%,0%,0%);stroke-opacity:1;stroke-miterlimit:10;" d="M 1273.351203 708.689394 L 1175.935256 1226.881027 L 1473.204941 1519.835065 Z M 1273.351203 708.689394 " transform="matrix(0.099565,0,0,-0.099565,0.148475,198.263784)"/>
<path style=" stroke:none;fill-rule:nonzero;fill:rgb(67.1875%,35.009766%,42.088318%);fill-opacity:1;" d="M 146.828125 46.941406 L 117.230469 76.109375 L 65.667969 68.351562 "/>
<path style="fill:none;stroke-width:5;stroke-linecap:round;stroke-linejoin:round;stroke:rgb(0%,0%,0%);stroke-opacity:1;stroke-miterlimit:10;" d="M 1473.204941 1519.835065 L 1175.935256 1226.881027 L 658.057488 1304.798092 Z M 1473.204941 1519.835065 " transform="matrix(0.099565,0,0,-0.099565,0.148475,198.263784)"/>
<path style=" stroke:none;fill-rule:nonzero;fill:rgb(66.992188%,73.242188%,89.84375%);fill-opacity:1;" d="M 46.925781 150.078125 L 75.003906 119.707031 L 126.929688 127.703125 "/>
<path style="fill:none;stroke-width:5;stroke-linecap:round;stroke-linejoin:round;stroke:rgb(0%,0%,0%);stroke-opacity:1;stroke-miterlimit:10;" d="M 469.816765 483.961829 L 751.82475 788.999681 L 1273.351203 708.689394 Z M 469.816765 483.961829 " transform="matrix(0.099565,0,0,-0.099565,0.148475,198.263784)"/>
<path style=" stroke:none;fill-rule:nonzero;fill:rgb(90.818787%,74.21875%,66.40625%);fill-opacity:1;" d="M 65.667969 68.351562 L 75.003906 119.707031 L 46.925781 150.078125 "/>
<path style="fill:none;stroke-width:5;stroke-linecap:round;stroke-linejoin:round;stroke:rgb(0%,0%,0%);stroke-opacity:1;stroke-miterlimit:10;" d="M 658.057488 1304.798092 L 751.82475 788.999681 L 469.816765 483.961829 Z M 658.057488 1304.798092 " transform="matrix(0.099565,0,0,-0.099565,0.148475,198.263784)"/>
<path style=" stroke:none;fill-rule:nonzero;fill:rgb(65.818787%,49.291992%,64.84375%);fill-opacity:1;" d="M 126.929688 127.703125 L 75.003906 119.707031 L 65.667969 68.351562 "/>
<path style="fill:none;stroke-width:5;stroke-linecap:round;stroke-linejoin:round;stroke:rgb(0%,0%,0%);stroke-opacity:1;stroke-miterlimit:10;" d="M 1273.351203 708.689394 L 751.82475 788.999681 L 658.057488 1304.798092 Z M 1273.351203 708.689394 " transform="matrix(0.099565,0,0,-0.099565,0.148475,198.263784)"/>
<path style=" stroke:none;fill-rule:nonzero;fill:rgb(36.888123%,49.804688%,85.742188%);fill-opacity:1;" d="M 126.929688 127.703125 L 169.214844 97.210938 L 185.722656 118.488281 "/>
<path style="fill:none;stroke-width:5;stroke-linecap:round;stroke-linejoin:round;stroke:rgb(0%,0%,0%);stroke-opacity:1;stroke-miterlimit:10;" d="M 1273.351203 708.689394 L 1698.050206 1014.943474 L 1863.849558 801.240428 Z M 1273.351203 708.689394 " transform="matrix(0.099565,0,0,-0.099565,0.148475,198.263784)"/>
<path style=" stroke:none;fill-rule:nonzero;fill:rgb(66.992188%,73.242188%,89.84375%);fill-opacity:1;" d="M 126.929688 127.703125 L 158.398438 158.019531 L 119.921875 186.464844 "/>
<path style="fill:none;stroke-width:5;stroke-linecap:round;stroke-linejoin:round;stroke:rgb(0%,0%,0%);stroke-opacity:1;stroke-miterlimit:10;" d="M 1273.351203 708.689394 L 1589.413574 404.200806 L 1202.966906 118.504904 Z M 1273.351203 708.689394 " transform="matrix(0.099565,0,0,-0.099565,0.148475,198.263784)"/>
<path style=" stroke:none;fill-rule:nonzero;fill:rgb(65.818787%,49.291992%,64.84375%);fill-opacity:1;" d="M 146.828125 46.941406 L 169.214844 97.210938 L 126.929688 127.703125 "/>
<path style="fill:none;stroke-width:5;stroke-linecap:round;stroke-linejoin:round;stroke:rgb(0%,0%,0%);stroke-opacity:1;stroke-miterlimit:10;" d="M 1473.204941 1519.835065 L 1698.050206 1014.943474 L 1273.351203 708.689394 Z M 1473.204941 1519.835065 " transform="matrix(0.099565,0,0,-0.099565,0.148475,198.263784)"/>
<path style=" stroke:none;fill-rule:nonzero;fill:rgb(36.888123%,49.804688%,85.742188%);fill-opacity:1;" d="M 119.921875 186.464844 L 97.878906 170.886719 L 126.929688 127.703125 "/>
<path style="fill:none;stroke-width:5;stroke-linecap:round;stroke-linejoin:round;stroke:rgb(0%,0%,0%);stroke-opacity:1;stroke-miterlimit:10;" d="M 1202.966906 118.504904 L 981.57416 274.966763 L 1273.351203 708.689394 Z M 1202.966906 118.504904 " transform="matrix(0.099565,0,0,-0.099565,0.148475,198.263784)"/>
<path style=" stroke:none;fill-rule:nonzero;fill:rgb(44.189453%,35.594177%,66.209412%);fill-opacity:1;" d="M 185.722656 118.488281 L 158.398438 158.019531 L 126.929688 127.703125 "/>
<path style="fill:none;stroke-width:5;stroke-linecap:round;stroke-linejoin:round;stroke:rgb(0%,0%,0%);stroke-opacity:1;stroke-miterlimit:10;" d="M 1863.849558 801.240428 L 1589.413574 404.200806 L 1273.351203 708.689394 Z M 1863.849558 801.240428 " transform="matrix(0.099565,0,0,-0.099565,0.148475,198.263784)"/>
<path style=" stroke:none;fill-rule:nonzero;fill:rgb(75.78125%,65.818787%,75.193787%);fill-opacity:1;" d="M 126.929688 127.703125 L 97.878906 170.886719 L 46.925781 150.078125 "/>
<path style="fill:none;stroke-width:5;stroke-linecap:round;stroke-linejoin:round;stroke:rgb(0%,0%,0%);stroke-opacity:1;stroke-miterlimit:10;" d="M 1273.351203 708.689394 L 981.57416 274.966763 L 469.816765 483.961829 Z M 1273.351203 708.689394 " transform="matrix(0.099565,0,0,-0.099565,0.148475,198.263784)"/>
<path style=" stroke:none;fill-rule:nonzero;fill:rgb(75.78125%,65.818787%,75.193787%);fill-opacity:1;" d="M 46.925781 150.078125 L 23.933594 99.542969 L 65.667969 68.351562 "/>
<path style="fill:none;stroke-width:5;stroke-linecap:round;stroke-linejoin:round;stroke:rgb(0%,0%,0%);stroke-opacity:1;stroke-miterlimit:10;" d="M 469.816765 483.961829 L 238.890361 991.521275 L 658.057488 1304.798092 Z M 469.816765 483.961829 " transform="matrix(0.099565,0,0,-0.099565,0.148475,198.263784)"/>
<path style=" stroke:none;fill-rule:nonzero;fill:rgb(90.818787%,74.21875%,66.40625%);fill-opacity:1;" d="M 9.453125 79.847656 L 35.488281 38.941406 L 65.667969 68.351562 "/>
<path style="fill:none;stroke-width:5;stroke-linecap:round;stroke-linejoin:round;stroke:rgb(0%,0%,0%);stroke-opacity:1;stroke-miterlimit:10;" d="M 93.453021 1189.334889 L 354.94206 1600.184585 L 658.057488 1304.798092 Z M 93.453021 1189.334889 " transform="matrix(0.099565,0,0,-0.099565,0.148475,198.263784)"/>
<path style=" stroke:none;fill-rule:nonzero;fill:rgb(65.818787%,49.291992%,64.84375%);fill-opacity:1;" d="M 65.667969 68.351562 L 95.597656 25.59375 L 146.828125 46.941406 "/>
<path style="fill:none;stroke-width:5;stroke-linecap:round;stroke-linejoin:round;stroke:rgb(0%,0%,0%);stroke-opacity:1;stroke-miterlimit:10;" d="M 658.057488 1304.798092 L 958.661992 1734.244308 L 1473.204941 1519.835065 Z M 658.057488 1304.798092 " transform="matrix(0.099565,0,0,-0.099565,0.148475,198.263784)"/>
<path style=" stroke:none;fill-rule:nonzero;fill:rgb(86.914062%,49.388123%,33.105469%);fill-opacity:1;" d="M 75.710938 11.5 L 95.597656 25.59375 L 65.667969 68.351562 "/>
<path style="fill:none;stroke-width:5;stroke-linecap:round;stroke-linejoin:round;stroke:rgb(0%,0%,0%);stroke-opacity:1;stroke-miterlimit:10;" d="M 758.925953 1875.797564 L 958.661992 1734.244308 L 658.057488 1304.798092 Z M 758.925953 1875.797564 " transform="matrix(0.099565,0,0,-0.099565,0.148475,198.263784)"/>
<path style=" stroke:none;fill-rule:nonzero;fill:rgb(86.914062%,49.388123%,33.105469%);fill-opacity:1;" d="M 65.667969 68.351562 L 23.933594 99.542969 L 9.453125 79.847656 "/>
<path style="fill:none;stroke-width:5;stroke-linecap:round;stroke-linejoin:round;stroke:rgb(0%,0%,0%);stroke-opacity:1;stroke-miterlimit:10;" d="M 658.057488 1304.798092 L 238.890361 991.521275 L 93.453021 1189.334889 Z M 658.057488 1304.798092 " transform="matrix(0.099565,0,0,-0.099565,0.148475,198.263784)"/>
<path style=" stroke:none;fill-rule:nonzero;fill:rgb(67.1875%,35.009766%,42.088318%);fill-opacity:1;" d="M 65.667969 68.351562 L 35.488281 38.941406 L 75.710938 11.5 "/>
<path style="fill:none;stroke-width:5;stroke-linecap:round;stroke-linejoin:round;stroke:rgb(0%,0%,0%);stroke-opacity:1;stroke-miterlimit:10;" d="M 658.057488 1304.798092 L 354.94206 1600.184585 L 758.925953 1875.797564 Z M 658.057488 1304.798092 " transform="matrix(0.099565,0,0,-0.099565,0.148475,198.263784)"/>
<path style=" stroke:none;fill-rule:nonzero;fill:rgb(24.900818%,24.900818%,24.900818%);fill-opacity:1;" d="M 185.722656 118.488281 L 169.214844 97.210938 L 146.828125 46.941406 "/>
<path style="fill:none;stroke-width:5;stroke-linecap:round;stroke-linejoin:round;stroke:rgb(0%,0%,0%);stroke-opacity:1;stroke-miterlimit:10;" d="M 1863.849558 801.240428 L 1698.050206 1014.943474 L 1473.204941 1519.835065 Z M 1863.849558 801.240428 " transform="matrix(0.099565,0,0,-0.099565,0.148475,198.263784)"/>
<path style=" stroke:none;fill-rule:nonzero;fill:rgb(50.976562%,91.209412%,85.742188%);fill-opacity:1;" d="M 46.925781 150.078125 L 97.878906 170.886719 L 119.921875 186.464844 "/>
<path style="fill:none;stroke-width:5;stroke-linecap:round;stroke-linejoin:round;stroke:rgb(0%,0%,0%);stroke-opacity:1;stroke-miterlimit:10;" d="M 469.816765 483.961829 L 981.57416 274.966763 L 1202.966906 118.504904 Z M 469.816765 483.961829 " transform="matrix(0.099565,0,0,-0.099565,0.148475,198.263784)"/>
<path style=" stroke:none;fill-rule:nonzero;fill:rgb(26.904297%,26.904297%,26.904297%);fill-opacity:1;" d="M 146.828125 46.941406 L 95.597656 25.59375 L 75.710938 11.5 "/>
<path style="fill:none;stroke-width:5;stroke-linecap:round;stroke-linejoin:round;stroke:rgb(0%,0%,0%);stroke-opacity:1;stroke-miterlimit:10;" d="M 1473.204941 1519.835065 L 958.661992 1734.244308 L 758.925953 1875.797564 Z M 1473.204941 1519.835065 " transform="matrix(0.099565,0,0,-0.099565,0.148475,198.263784)"/>
<path style=" stroke:none;fill-rule:nonzero;fill:rgb(82.226562%,90.429688%,49.510193%);fill-opacity:1;" d="M 9.453125 79.847656 L 23.933594 99.542969 L 46.925781 150.078125 "/>
<path style="fill:none;stroke-width:5;stroke-linecap:round;stroke-linejoin:round;stroke:rgb(0%,0%,0%);stroke-opacity:1;stroke-miterlimit:10;" d="M 93.453021 1189.334889 L 238.890361 991.521275 L 469.816765 483.961829 Z M 93.453021 1189.334889 " transform="matrix(0.099565,0,0,-0.099565,0.148475,198.263784)"/>
<path style=" stroke:none;fill-rule:nonzero;fill:rgb(44.189453%,35.594177%,66.209412%);fill-opacity:1;" d="M 146.828125 46.941406 L 184.910156 58.625 L 185.722656 118.488281 "/>
<path style="fill:none;stroke-width:5;stroke-linecap:round;stroke-linejoin:round;stroke:rgb(0%,0%,0%);stroke-opacity:1;stroke-miterlimit:10;" d="M 1473.204941 1519.835065 L 1855.68906 1402.488671 L 1863.849558 801.240428 Z M 1473.204941 1519.835065 " transform="matrix(0.099565,0,0,-0.099565,0.148475,198.263784)"/>
<path style=" stroke:none;fill-rule:nonzero;fill:rgb(26.904297%,26.904297%,26.904297%);fill-opacity:1;" d="M 156.386719 40.851562 L 184.910156 58.625 L 146.828125 46.941406 "/>
<path style="fill:none;stroke-width:5;stroke-linecap:round;stroke-linejoin:round;stroke:rgb(0%,0%,0%);stroke-opacity:1;stroke-miterlimit:10;" d="M 1569.208494 1580.999568 L 1855.68906 1402.488671 L 1473.204941 1519.835065 Z M 1569.208494 1580.999568 " transform="matrix(0.099565,0,0,-0.099565,0.148475,198.263784)"/>
<path style=" stroke:none;fill-rule:nonzero;fill:rgb(67.1875%,35.009766%,42.088318%);fill-opacity:1;" d="M 75.710938 11.5 L 135.804688 10.703125 L 146.828125 46.941406 "/>
<path style="fill:none;stroke-width:5;stroke-linecap:round;stroke-linejoin:round;stroke:rgb(0%,0%,0%);stroke-opacity:1;stroke-miterlimit:10;" d="M 758.925953 1875.797564 L 1362.488952 1883.80113 L 1473.204941 1519.835065 Z M 758.925953 1875.797564 " transform="matrix(0.099565,0,0,-0.099565,0.148475,198.263784)"/>
<path style=" stroke:none;fill-rule:nonzero;fill:rgb(24.900818%,24.900818%,24.900818%);fill-opacity:1;" d="M 146.828125 46.941406 L 135.804688 10.703125 L 156.386719 40.851562 "/>
<path style="fill:none;stroke-width:5;stroke-linecap:round;stroke-linejoin:round;stroke:rgb(0%,0%,0%);stroke-opacity:1;stroke-miterlimit:10;" d="M 1473.204941 1519.835065 L 1362.488952 1883.80113 L 1569.208494 1580.999568 Z M 1473.204941 1519.835065 " transform="matrix(0.099565,0,0,-0.099565,0.148475,198.263784)"/>
<path style=" stroke:none;fill-rule:nonzero;fill:rgb(90.818787%,74.21875%,66.40625%);fill-opacity:1;" d="M 46.925781 150.078125 L 10.53125 139.992188 L 9.453125 79.847656 "/>
<path style="fill:none;stroke-width:5;stroke-linecap:round;stroke-linejoin:round;stroke:rgb(0%,0%,0%);stroke-opacity:1;stroke-miterlimit:10;" d="M 469.816765 483.961829 L 104.281374 585.261859 L 93.453021 1189.334889 Z M 469.816765 483.961829 " transform="matrix(0.099565,0,0,-0.099565,0.148475,198.263784)"/>
<path style=" stroke:none;fill-rule:nonzero;fill:rgb(66.992188%,73.242188%,89.84375%);fill-opacity:1;" d="M 119.921875 186.464844 L 60.027344 187.597656 L 46.925781 150.078125 "/>
<path style="fill:none;stroke-width:5;stroke-linecap:round;stroke-linejoin:round;stroke:rgb(0%,0%,0%);stroke-opacity:1;stroke-miterlimit:10;" d="M 1202.966906 118.504904 L 601.404798 107.127286 L 469.816765 483.961829 Z M 1202.966906 118.504904 " transform="matrix(0.099565,0,0,-0.099565,0.148475,198.263784)"/>
<path style=" stroke:none;fill-rule:nonzero;fill:rgb(50.976562%,91.209412%,85.742188%);fill-opacity:1;" d="M 41.589844 159.363281 L 10.53125 139.992188 L 46.925781 150.078125 "/>
<path style="fill:none;stroke-width:5;stroke-linecap:round;stroke-linejoin:round;stroke:rgb(0%,0%,0%);stroke-opacity:1;stroke-miterlimit:10;" d="M 416.224263 390.704597 L 104.281374 585.261859 L 469.816765 483.961829 Z M 416.224263 390.704597 " transform="matrix(0.099565,0,0,-0.099565,0.148475,198.263784)"/>
<path style=" stroke:none;fill-rule:nonzero;fill:rgb(82.226562%,90.429688%,49.510193%);fill-opacity:1;" d="M 46.925781 150.078125 L 60.027344 187.597656 L 41.589844 159.363281 "/>
<path style="fill:none;stroke-width:5;stroke-linecap:round;stroke-linejoin:round;stroke:rgb(0%,0%,0%);stroke-opacity:1;stroke-miterlimit:10;" d="M 469.816765 483.961829 L 601.404798 107.127286 L 416.224263 390.704597 Z M 469.816765 483.961829 " transform="matrix(0.099565,0,0,-0.099565,0.148475,198.263784)"/>
<path style=" stroke:none;fill-rule:nonzero;fill:rgb(83.984375%,37.400818%,6.394958%);fill-opacity:1;" d="M 119.921875 186.464844 L 158.398438 158.019531 L 185.722656 118.488281 "/>
<path style="fill:none;stroke-width:5;stroke-linecap:round;stroke-linejoin:round;stroke:rgb(0%,0%,0%);stroke-opacity:1;stroke-miterlimit:10;" d="M 1202.966906 118.504904 L 1589.413574 404.200806 L 1863.849558 801.240428 Z M 1202.966906 118.504904 " transform="matrix(0.099565,0,0,-0.099565,0.148475,198.263784)"/>
<path style=" stroke:none;fill-rule:nonzero;fill:rgb(14.793396%,40.306091%,84.959412%);fill-opacity:1;" d="M 75.710938 11.5 L 35.488281 38.941406 L 9.453125 79.847656 "/>
<path style="fill:none;stroke-width:5;stroke-linecap:round;stroke-linejoin:round;stroke:rgb(0%,0%,0%);stroke-opacity:1;stroke-miterlimit:10;" d="M 758.925953 1875.797564 L 354.94206 1600.184585 L 93.453021 1189.334889 Z M 758.925953 1875.797564 " transform="matrix(0.099565,0,0,-0.099565,0.148475,198.263784)"/>
<path style=" stroke:none;fill-rule:nonzero;fill:rgb(95.701599%,78.318787%,62.304688%);fill-opacity:1;" d="M 185.722656 118.488281 L 184.910156 58.625 L 156.386719 40.851562 "/>
<path style="fill:none;stroke-width:5;stroke-linecap:round;stroke-linejoin:round;stroke:rgb(0%,0%,0%);stroke-opacity:1;stroke-miterlimit:10;" d="M 1863.849558 801.240428 L 1855.68906 1402.488671 L 1569.208494 1580.999568 Z M 1863.849558 801.240428 " transform="matrix(0.099565,0,0,-0.099565,0.148475,198.263784)"/>
<path style=" stroke:none;fill-rule:nonzero;fill:rgb(24.900818%,24.900818%,24.900818%);fill-opacity:1;" d="M 156.386719 40.851562 L 184.464844 98.871094 L 185.722656 118.488281 "/>
<path style="fill:none;stroke-width:5;stroke-linecap:round;stroke-linejoin:round;stroke:rgb(0%,0%,0%);stroke-opacity:1;stroke-miterlimit:10;" d="M 1569.208494 1580.999568 L 1851.216479 998.269379 L 1863.849558 801.240428 Z M 1569.208494 1580.999568 " transform="matrix(0.099565,0,0,-0.099565,0.148475,198.263784)"/>
<path style=" stroke:none;fill-rule:nonzero;fill:rgb(83.984375%,37.400818%,6.394958%);fill-opacity:1;" d="M 185.722656 118.488281 L 184.464844 98.871094 L 138.085938 137.769531 "/>
<path style="fill:none;stroke-width:5;stroke-linecap:round;stroke-linejoin:round;stroke:rgb(0%,0%,0%);stroke-opacity:1;stroke-miterlimit:10;" d="M 1863.849558 801.240428 L 1851.216479 998.269379 L 1385.40112 607.58553 Z M 1863.849558 801.240428 " transform="matrix(0.099565,0,0,-0.099565,0.148475,198.263784)"/>
<path style=" stroke:none;fill-rule:nonzero;fill:rgb(36.888123%,49.804688%,85.742188%);fill-opacity:1;" d="M 185.722656 118.488281 L 166.367188 165.414062 L 119.921875 186.464844 "/>
<path style="fill:none;stroke-width:5;stroke-linecap:round;stroke-linejoin:round;stroke:rgb(0%,0%,0%);stroke-opacity:1;stroke-miterlimit:10;" d="M 1863.849558 801.240428 L 1669.449229 329.932426 L 1202.966906 118.504904 Z M 1863.849558 801.240428 " transform="matrix(0.099565,0,0,-0.099565,0.148475,198.263784)"/>
<path style=" stroke:none;fill-rule:nonzero;fill:rgb(95.701599%,78.318787%,62.304688%);fill-opacity:1;" d="M 138.085938 137.769531 L 166.367188 165.414062 L 185.722656 118.488281 "/>
<path style="fill:none;stroke-width:5;stroke-linecap:round;stroke-linejoin:round;stroke:rgb(0%,0%,0%);stroke-opacity:1;stroke-miterlimit:10;" d="M 1385.40112 607.58553 L 1669.449229 329.932426 L 1863.849558 801.240428 Z M 1385.40112 607.58553 " transform="matrix(0.099565,0,0,-0.099565,0.148475,198.263784)"/>
<path style=" stroke:none;fill-rule:nonzero;fill:rgb(63.476562%,24.705505%,29.197693%);fill-opacity:1;" d="M 41.589844 159.363281 L 60.027344 187.597656 L 119.921875 186.464844 "/>
<path style="fill:none;stroke-width:5;stroke-linecap:round;stroke-linejoin:round;stroke:rgb(0%,0%,0%);stroke-opacity:1;stroke-miterlimit:10;" d="M 416.224263 390.704597 L 601.404798 107.127286 L 1202.966906 118.504904 Z M 416.224263 390.704597 " transform="matrix(0.099565,0,0,-0.099565,0.148475,198.263784)"/>
<path style=" stroke:none;fill-rule:nonzero;fill:rgb(50.976562%,91.209412%,85.742188%);fill-opacity:1;" d="M 119.921875 186.464844 L 100.558594 185.546875 L 41.589844 159.363281 "/>
<path style="fill:none;stroke-width:5;stroke-linecap:round;stroke-linejoin:round;stroke:rgb(0%,0%,0%);stroke-opacity:1;stroke-miterlimit:10;" d="M 1202.966906 118.504904 L 1008.488111 127.724697 L 416.224263 390.704597 Z M 1202.966906 118.504904 " transform="matrix(0.099565,0,0,-0.099565,0.148475,198.263784)"/>
<path style=" stroke:none;fill-rule:nonzero;fill:rgb(83.984375%,37.400818%,6.394958%);fill-opacity:1;" d="M 138.085938 137.769531 L 100.558594 185.546875 L 119.921875 186.464844 "/>
<path style="fill:none;stroke-width:5;stroke-linecap:round;stroke-linejoin:round;stroke:rgb(0%,0%,0%);stroke-opacity:1;stroke-miterlimit:10;" d="M 1385.40112 607.58553 L 1008.488111 127.724697 L 1202.966906 118.504904 Z M 1385.40112 607.58553 " transform="matrix(0.099565,0,0,-0.099565,0.148475,198.263784)"/>
<path style=" stroke:none;fill-rule:nonzero;fill:rgb(63.476562%,24.705505%,29.197693%);fill-opacity:1;" d="M 119.921875 186.464844 L 166.367188 165.414062 L 138.085938 137.769531 "/>
<path style="fill:none;stroke-width:5;stroke-linecap:round;stroke-linejoin:round;stroke:rgb(0%,0%,0%);stroke-opacity:1;stroke-miterlimit:10;" d="M 1202.966906 118.504904 L 1669.449229 329.932426 L 1385.40112 607.58553 Z M 1202.966906 118.504904 " transform="matrix(0.099565,0,0,-0.099565,0.148475,198.263784)"/>
<path style=" stroke:none;fill-rule:nonzero;fill:rgb(63.476562%,77.34375%,94.53125%);fill-opacity:1;" d="M 156.386719 40.851562 L 135.804688 10.703125 L 75.710938 11.5 "/>
<path style="fill:none;stroke-width:5;stroke-linecap:round;stroke-linejoin:round;stroke:rgb(0%,0%,0%);stroke-opacity:1;stroke-miterlimit:10;" d="M 1569.208494 1580.999568 L 1362.488952 1883.80113 L 758.925953 1875.797564 Z M 1569.208494 1580.999568 " transform="matrix(0.099565,0,0,-0.099565,0.148475,198.263784)"/>
<path style=" stroke:none;fill-rule:nonzero;fill:rgb(32.788086%,26.097107%,62.889099%);fill-opacity:1;" d="M 9.453125 79.847656 L 10.53125 139.992188 L 41.589844 159.363281 "/>
<path style="fill:none;stroke-width:5;stroke-linecap:round;stroke-linejoin:round;stroke:rgb(0%,0%,0%);stroke-opacity:1;stroke-miterlimit:10;" d="M 93.453021 1189.334889 L 104.281374 585.261859 L 416.224263 390.704597 Z M 93.453021 1189.334889 " transform="matrix(0.099565,0,0,-0.099565,0.148475,198.263784)"/>
<path style=" stroke:none;fill-rule:nonzero;fill:rgb(26.904297%,26.904297%,26.904297%);fill-opacity:1;" d="M 75.710938 11.5 L 97.878906 14.574219 L 156.386719 40.851562 "/>
<path style="fill:none;stroke-width:5;stroke-linecap:round;stroke-linejoin:round;stroke:rgb(0%,0%,0%);stroke-opacity:1;stroke-miterlimit:10;" d="M 758.925953 1875.797564 L 981.57416 1844.921064 L 1569.208494 1580.999568 Z M 758.925953 1875.797564 " transform="matrix(0.099565,0,0,-0.099565,0.148475,198.263784)"/>
<path style=" stroke:none;fill-rule:nonzero;fill:rgb(14.793396%,40.306091%,84.959412%);fill-opacity:1;" d="M 61.347656 63.425781 L 97.878906 14.574219 L 75.710938 11.5 "/>
<path style="fill:none;stroke-width:5;stroke-linecap:round;stroke-linejoin:round;stroke:rgb(0%,0%,0%);stroke-opacity:1;stroke-miterlimit:10;" d="M 614.665608 1354.271112 L 981.57416 1844.921064 L 758.925953 1875.797564 Z M 614.665608 1354.271112 " transform="matrix(0.099565,0,0,-0.099565,0.148475,198.263784)"/>
<path style=" stroke:none;fill-rule:nonzero;fill:rgb(86.914062%,49.388123%,33.105469%);fill-opacity:1;" d="M 9.453125 79.847656 L 30.480469 33.761719 L 75.710938 11.5 "/>
<path style="fill:none;stroke-width:5;stroke-linecap:round;stroke-linejoin:round;stroke:rgb(0%,0%,0%);stroke-opacity:1;stroke-miterlimit:10;" d="M 93.453021 1189.334889 L 304.645144 1652.207761 L 758.925953 1875.797564 Z M 93.453021 1189.334889 " transform="matrix(0.099565,0,0,-0.099565,0.148475,198.263784)"/>
<path style=" stroke:none;fill-rule:nonzero;fill:rgb(63.476562%,77.34375%,94.53125%);fill-opacity:1;" d="M 75.710938 11.5 L 30.480469 33.761719 L 61.347656 63.425781 "/>
<path style="fill:none;stroke-width:5;stroke-linecap:round;stroke-linejoin:round;stroke:rgb(0%,0%,0%);stroke-opacity:1;stroke-miterlimit:10;" d="M 758.925953 1875.797564 L 304.645144 1652.207761 L 614.665608 1354.271112 Z M 758.925953 1875.797564 " transform="matrix(0.099565,0,0,-0.099565,0.148475,198.263784)"/>
<path style=" stroke:none;fill-rule:nonzero;fill:rgb(82.226562%,90.429688%,49.510193%);fill-opacity:1;" d="M 41.589844 159.363281 L 13.511719 101.621094 L 9.453125 79.847656 "/>
<path style="fill:none;stroke-width:5;stroke-linecap:round;stroke-linejoin:round;stroke:rgb(0%,0%,0%);stroke-opacity:1;stroke-miterlimit:10;" d="M 416.224263 390.704597 L 134.216278 970.649232 L 93.453021 1189.334889 Z M 416.224263 390.704597 " transform="matrix(0.099565,0,0,-0.099565,0.148475,198.263784)"/>
<path style=" stroke:none;fill-rule:nonzero;fill:rgb(32.788086%,26.097107%,62.889099%);fill-opacity:1;" d="M 61.347656 63.425781 L 30.480469 33.761719 L 9.453125 79.847656 "/>
<path style="fill:none;stroke-width:5;stroke-linecap:round;stroke-linejoin:round;stroke:rgb(0%,0%,0%);stroke-opacity:1;stroke-miterlimit:10;" d="M 614.665608 1354.271112 L 304.645144 1652.207761 L 93.453021 1189.334889 Z M 614.665608 1354.271112 " transform="matrix(0.099565,0,0,-0.099565,0.148475,198.263784)"/>
<path style=" stroke:none;fill-rule:nonzero;fill:rgb(14.793396%,40.306091%,84.959412%);fill-opacity:1;" d="M 9.453125 79.847656 L 13.511719 101.621094 L 61.347656 63.425781 "/>
<path style="fill:none;stroke-width:5;stroke-linecap:round;stroke-linejoin:round;stroke:rgb(0%,0%,0%);stroke-opacity:1;stroke-miterlimit:10;" d="M 93.453021 1189.334889 L 134.216278 970.649232 L 614.665608 1354.271112 Z M 93.453021 1189.334889 " transform="matrix(0.099565,0,0,-0.099565,0.148475,198.263784)"/>
<path style=" stroke:none;fill-rule:nonzero;fill:rgb(76.951599%,67.771912%,76.171875%);fill-opacity:1;" d="M 138.085938 137.769531 L 184.464844 98.871094 L 156.386719 40.851562 "/>
<path style="fill:none;stroke-width:5;stroke-linecap:round;stroke-linejoin:round;stroke:rgb(0%,0%,0%);stroke-opacity:1;stroke-miterlimit:10;" d="M 1385.40112 607.58553 L 1851.216479 998.269379 L 1569.208494 1580.999568 Z M 1385.40112 607.58553 " transform="matrix(0.099565,0,0,-0.099565,0.148475,198.263784)"/>
<path style=" stroke:none;fill-rule:nonzero;fill:rgb(63.476562%,77.34375%,94.53125%);fill-opacity:1;" d="M 61.347656 63.425781 L 127.675781 72.574219 L 156.386719 40.851562 "/>
<path style="fill:none;stroke-width:5;stroke-linecap:round;stroke-linejoin:round;stroke:rgb(0%,0%,0%);stroke-opacity:1;stroke-miterlimit:10;" d="M 614.665608 1354.271112 L 1280.844737 1262.387041 L 1569.208494 1580.999568 Z M 614.665608 1354.271112 " transform="matrix(0.099565,0,0,-0.099565,0.148475,198.263784)"/>
<path style=" stroke:none;fill-rule:nonzero;fill:rgb(76.951599%,67.771912%,76.171875%);fill-opacity:1;" d="M 156.386719 40.851562 L 97.878906 14.574219 L 61.347656 63.425781 "/>
<path style="fill:none;stroke-width:5;stroke-linecap:round;stroke-linejoin:round;stroke:rgb(0%,0%,0%);stroke-opacity:1;stroke-miterlimit:10;" d="M 1569.208494 1580.999568 L 981.57416 1844.921064 L 614.665608 1354.271112 Z M 1569.208494 1580.999568 " transform="matrix(0.099565,0,0,-0.099565,0.148475,198.263784)"/>
<path style=" stroke:none;fill-rule:nonzero;fill:rgb(95.701599%,78.318787%,62.304688%);fill-opacity:1;" d="M 156.386719 40.851562 L 127.675781 72.574219 L 138.085938 137.769531 "/>
<path style="fill:none;stroke-width:5;stroke-linecap:round;stroke-linejoin:round;stroke:rgb(0%,0%,0%);stroke-opacity:1;stroke-miterlimit:10;" d="M 1569.208494 1580.999568 L 1280.844737 1262.387041 L 1385.40112 607.58553 Z M 1569.208494 1580.999568 " transform="matrix(0.099565,0,0,-0.099565,0.148475,198.263784)"/>
<path style=" stroke:none;fill-rule:nonzero;fill:rgb(64.451599%,47.093201%,63.476562%);fill-opacity:1;" d="M 41.589844 159.363281 L 100.558594 185.546875 L 138.085938 137.769531 "/>
<path style="fill:none;stroke-width:5;stroke-linecap:round;stroke-linejoin:round;stroke:rgb(0%,0%,0%);stroke-opacity:1;stroke-miterlimit:10;" d="M 416.224263 390.704597 L 1008.488111 127.724697 L 1385.40112 607.58553 Z M 416.224263 390.704597 " transform="matrix(0.099565,0,0,-0.099565,0.148475,198.263784)"/>
<path style=" stroke:none;fill-rule:nonzero;fill:rgb(63.476562%,24.705505%,29.197693%);fill-opacity:1;" d="M 138.085938 137.769531 L 72.667969 129.359375 L 41.589844 159.363281 "/>
<path style="fill:none;stroke-width:5;stroke-linecap:round;stroke-linejoin:round;stroke:rgb(0%,0%,0%);stroke-opacity:1;stroke-miterlimit:10;" d="M 1385.40112 607.58553 L 728.363318 692.054532 L 416.224263 390.704597 Z M 1385.40112 607.58553 " transform="matrix(0.099565,0,0,-0.099565,0.148475,198.263784)"/>
<path style=" stroke:none;fill-rule:nonzero;fill:rgb(64.451599%,47.093201%,63.476562%);fill-opacity:1;" d="M 61.347656 63.425781 L 13.511719 101.621094 L 41.589844 159.363281 "/>
<path style="fill:none;stroke-width:5;stroke-linecap:round;stroke-linejoin:round;stroke:rgb(0%,0%,0%);stroke-opacity:1;stroke-miterlimit:10;" d="M 614.665608 1354.271112 L 134.216278 970.649232 L 416.224263 390.704597 Z M 614.665608 1354.271112 " transform="matrix(0.099565,0,0,-0.099565,0.148475,198.263784)"/>
<path style=" stroke:none;fill-rule:nonzero;fill:rgb(32.788086%,26.097107%,62.889099%);fill-opacity:1;" d="M 41.589844 159.363281 L 72.667969 129.359375 L 61.347656 63.425781 "/>
<path style="fill:none;stroke-width:5;stroke-linecap:round;stroke-linejoin:round;stroke:rgb(0%,0%,0%);stroke-opacity:1;stroke-miterlimit:10;" d="M 416.224263 390.704597 L 728.363318 692.054532 L 614.665608 1354.271112 Z M 416.224263 390.704597 " transform="matrix(0.099565,0,0,-0.099565,0.148475,198.263784)"/>
<path style=" stroke:none;fill-rule:nonzero;fill:rgb(76.951599%,67.771912%,76.171875%);fill-opacity:1;" d="M 61.347656 63.425781 L 72.667969 129.359375 L 138.085938 137.769531 "/>
<path style="fill:none;stroke-width:5;stroke-linecap:round;stroke-linejoin:round;stroke:rgb(0%,0%,0%);stroke-opacity:1;stroke-miterlimit:10;" d="M 614.665608 1354.271112 L 728.363318 692.054532 L 1385.40112 607.58553 Z M 614.665608 1354.271112 " transform="matrix(0.099565,0,0,-0.099565,0.148475,198.263784)"/>
<path style=" stroke:none;fill-rule:nonzero;fill:rgb(64.451599%,47.093201%,63.476562%);fill-opacity:1;" d="M 138.085938 137.769531 L 127.675781 72.574219 L 61.347656 63.425781 "/>
<path style="fill:none;stroke-width:5;stroke-linecap:round;stroke-linejoin:round;stroke:rgb(0%,0%,0%);stroke-opacity:1;stroke-miterlimit:10;" d="M 1385.40112 607.58553 L 1280.844737 1262.387041 L 614.665608 1354.271112 Z M 1385.40112 607.58553 " transform="matrix(0.099565,0,0,-0.099565,0.148475,198.263784)"/>
</g>
</svg>
