<?xml version="1.0" encoding="UTF-8"?>
<svg xmlns="http://www.w3.org/2000/svg" xmlns:xlink="http://www.w3.org/1999/xlink" width="207.5pt" height="184.22pt" viewBox="0 0 207.5 184.22" version="1.2">
<defs>
<clipPath id="clip1">
  <path d="M 0.1875 99 L 76 99 L 76 154 L 0.1875 154 Z M 0.1875 99 "/>
</clipPath>
<clipPath id="clip2">
  <path d="M 0.1875 99 L 77 99 L 77 154 L 0.1875 154 Z M 0.1875 99 "/>
</clipPath>
<clipPath id="clip3">
  <path d="M 0.1875 66 L 76 66 L 76 127 L 0.1875 127 Z M 0.1875 66 "/>
</clipPath>
<clipPath id="clip4">
  <path d="M 0.1875 66 L 77 66 L 77 127 L 0.1875 127 Z M 0.1875 66 "/>
</clipPath>
<clipPath id="clip5">
  <path d="M 75 124 L 159 124 L 159 183.441406 L 75 183.441406 Z M 75 124 "/>
</clipPath>
<clipPath id="clip6">
  <path d="M 75 123 L 159 123 L 159 183.441406 L 75 183.441406 Z M 75 123 "/>
</clipPath>
<clipPath id="clip7">
  <path d="M 130 92 L 159 92 L 159 183.441406 L 130 183.441406 Z M 130 92 "/>
</clipPath>
<clipPath id="clip8">
  <path d="M 129 92 L 159 92 L 159 183.441406 L 129 183.441406 Z M 129 92 "/>
</clipPath>
<clipPath id="clip9">
  <path d="M 125 41 L 206.8125 41 L 206.8125 125 L 125 125 Z M 125 41 "/>
</clipPath>
<clipPath id="clip10">
  <path d="M 124 41 L 206.8125 41 L 206.8125 125 L 124 125 Z M 124 41 "/>
</clipPath>
<clipPath id="clip11">
  <path d="M 130 64 L 206.8125 64 L 206.8125 125 L 130 125 Z M 130 64 "/>
</clipPath>
<clipPath id="clip12">
  <path d="M 129 64 L 206.8125 64 L 206.8125 125 L 129 125 Z M 129 64 "/>
</clipPath>
<clipPath id="clip13">
  <path d="M 0.1875 66 L 76 66 L 76 154 L 0.1875 154 Z M 0.1875 66 "/>
</clipPath>
<clipPath id="clip14">
  <path d="M 0.1875 66 L 77 66 L 77 154 L 0.1875 154 Z M 0.1875 66 "/>
</clipPath>
<clipPath id="clip15">
  <path d="M 125 41 L 206.8125 41 L 206.8125 93 L 125 93 Z M 125 41 "/>
</clipPath>
<clipPath id="clip16">
  <path d="M 124 41 L 206.8125 41 L 206.8125 93 L 124 93 Z M 124 41 "/>
</clipPath>
<clipPath id="clip17">
  <path d="M 75 92 L 159 92 L 159 183.441406 L 75 183.441406 Z M 75 92 "/>
</clipPath>
</defs>
<g id="surface1">
<path style=" stroke:none;fill-rule:nonzero;fill:rgb(66.209412%,74.021912%,91.014099%);fill-opacity:1;" d="M 75.824219 99.609375 L 144.691406 74.867188 L 150.984375 124.15625 L 75.824219 99.609375 "/>
<path style="fill:none;stroke-width:5;stroke-linecap:round;stroke-linejoin:round;stroke:rgb(0%,0%,0%);stroke-opacity:1;stroke-miterlimit:10;" d="M 759.559791 841.888721 L 1451.147549 1090.358197 L 1514.343686 595.38064 Z M 759.559791 841.888721 " transform="matrix(0.0995784,0,0,-0.0995784,0.188486,183.443289)"/>
<path style=" stroke:none;fill-rule:nonzero;fill:rgb(80.859375%,43.530273%,34.910583%);fill-opacity:1;" d="M 125.019531 41.3125 L 144.691406 74.867188 L 75.824219 99.609375 L 125.019531 41.3125 "/>
<path style="fill:none;stroke-width:5;stroke-linecap:round;stroke-linejoin:round;stroke:rgb(0%,0%,0%);stroke-opacity:1;stroke-miterlimit:10;" d="M 1253.595879 1427.325801 L 1451.147549 1090.358197 L 759.559791 841.888721 Z M 1253.595879 1427.325801 " transform="matrix(0.0995784,0,0,-0.0995784,0.188486,183.443289)"/>
<path style=" stroke:none;fill-rule:nonzero;fill:rgb(90.625%,89.0625%,47.459412%);fill-opacity:1;" d="M 150.984375 124.15625 L 144.691406 74.867188 L 125.019531 41.3125 L 150.984375 124.15625 "/>
<path style="fill:none;stroke-width:5;stroke-linecap:round;stroke-linejoin:round;stroke:rgb(0%,0%,0%);stroke-opacity:1;stroke-miterlimit:10;" d="M 1514.343686 595.38064 L 1451.147549 1090.358197 L 1253.595879 1427.325801 Z M 1514.343686 595.38064 " transform="matrix(0.0995784,0,0,-0.0995784,0.188486,183.443289)"/>
<path style=" stroke:none;fill-rule:nonzero;fill:rgb(59.568787%,44.700623%,64.646912%);fill-opacity:1;" d="M 150.984375 124.15625 L 100.945312 177.792969 L 75.824219 99.609375 L 150.984375 124.15625 "/>
<path style="fill:none;stroke-width:5;stroke-linecap:round;stroke-linejoin:round;stroke:rgb(0%,0%,0%);stroke-opacity:1;stroke-miterlimit:10;" d="M 1514.343686 595.38064 L 1011.834373 56.742437 L 759.559791 841.888721 Z M 1514.343686 595.38064 " transform="matrix(0.0995784,0,0,-0.0995784,0.188486,183.443289)"/>
<path style=" stroke:none;fill-rule:nonzero;fill:rgb(96.875%,92.1875%,59.179688%);fill-opacity:1;" d="M 75.824219 99.609375 L 100.945312 177.792969 L 75.925781 153.671875 L 75.824219 99.609375 "/>
<path style="fill:none;stroke-width:5;stroke-linecap:round;stroke-linejoin:round;stroke:rgb(0%,0%,0%);stroke-opacity:1;stroke-miterlimit:10;" d="M 759.559791 841.888721 L 1011.834373 56.742437 L 760.579716 298.974678 Z M 759.559791 841.888721 " transform="matrix(0.0995784,0,0,-0.0995784,0.188486,183.443289)"/>
<path style=" stroke:none;fill-rule:nonzero;fill:rgb(80.859375%,39.598083%,27.050781%);fill-opacity:1;" d="M 75.925781 153.671875 L 100.945312 177.792969 L 150.984375 124.15625 L 75.925781 153.671875 "/>
<path style="fill:none;stroke-width:5;stroke-linecap:round;stroke-linejoin:round;stroke:rgb(0%,0%,0%);stroke-opacity:1;stroke-miterlimit:10;" d="M 760.579716 298.974678 L 1011.834373 56.742437 L 1514.343686 595.38064 Z M 760.579716 298.974678 " transform="matrix(0.0995784,0,0,-0.0995784,0.188486,183.443289)"/>
<path style=" stroke:none;fill-rule:nonzero;fill:rgb(59.568787%,44.700623%,64.646912%);fill-opacity:1;" d="M 75.824219 99.609375 L 125.019531 41.3125 L 150.984375 124.15625 L 75.824219 99.609375 "/>
<path style="fill:none;stroke-width:5;stroke-linecap:round;stroke-linejoin:round;stroke:rgb(0%,0%,0%);stroke-opacity:1;stroke-miterlimit:10;" d="M 759.559791 841.888721 L 1253.595879 1427.325801 L 1514.343686 595.38064 Z M 759.559791 841.888721 " transform="matrix(0.0995784,0,0,-0.0995784,0.188486,183.443289)"/>
<path style=" stroke:none;fill-rule:nonzero;fill:rgb(66.209412%,74.021912%,91.014099%);fill-opacity:1;" d="M 75.925781 153.671875 L 75.824219 99.609375 L 150.984375 124.15625 L 75.925781 153.671875 "/>
<path style="fill:none;stroke-width:5;stroke-linecap:round;stroke-linejoin:round;stroke:rgb(0%,0%,0%);stroke-opacity:1;stroke-miterlimit:10;" d="M 760.579716 298.974678 L 759.559791 841.888721 L 1514.343686 595.38064 Z M 760.579716 298.974678 " transform="matrix(0.0995784,0,0,-0.0995784,0.188486,183.443289)"/>
<g clip-path="url(#clip1)" clip-rule="nonzero">
<path style=" stroke:none;fill-rule:nonzero;fill:rgb(66.209412%,74.021912%,91.014099%);fill-opacity:1;" d="M 75.925781 153.671875 L 0.4375 126.695312 L 75.824219 99.609375 L 75.925781 153.671875 "/>
</g>
<g clip-path="url(#clip2)" clip-rule="nonzero">
<path style="fill:none;stroke-width:5;stroke-linecap:round;stroke-linejoin:round;stroke:rgb(0%,0%,0%);stroke-opacity:1;stroke-miterlimit:10;" d="M 760.579716 298.974678 L 2.500679 569.882509 L 759.559791 841.888721 Z M 760.579716 298.974678 " transform="matrix(0.0995784,0,0,-0.0995784,0.188486,183.443289)"/>
</g>
<path style=" stroke:none;fill-rule:nonzero;fill:rgb(59.568787%,44.700623%,64.646912%);fill-opacity:1;" d="M 75.824219 99.609375 L 50.238281 19.976562 L 125.019531 41.3125 L 75.824219 99.609375 "/>
<path style="fill:none;stroke-width:5;stroke-linecap:round;stroke-linejoin:round;stroke:rgb(0%,0%,0%);stroke-opacity:1;stroke-miterlimit:10;" d="M 759.559791 841.888721 L 502.61709 1641.588554 L 1253.595879 1427.325801 Z M 759.559791 841.888721 " transform="matrix(0.0995784,0,0,-0.0995784,0.188486,183.443289)"/>
<g clip-path="url(#clip3)" clip-rule="nonzero">
<path style=" stroke:none;fill-rule:nonzero;fill:rgb(80.859375%,43.530273%,34.910583%);fill-opacity:1;" d="M 75.824219 99.609375 L 0.4375 126.695312 L 47.898438 66.992188 L 75.824219 99.609375 "/>
</g>
<g clip-path="url(#clip4)" clip-rule="nonzero">
<path style="fill:none;stroke-width:5;stroke-linecap:round;stroke-linejoin:round;stroke:rgb(0%,0%,0%);stroke-opacity:1;stroke-miterlimit:10;" d="M 759.559791 841.888721 L 2.500679 569.882509 L 479.119582 1169.44163 Z M 759.559791 841.888721 " transform="matrix(0.0995784,0,0,-0.0995784,0.188486,183.443289)"/>
</g>
<path style=" stroke:none;fill-rule:nonzero;fill:rgb(96.875%,92.1875%,59.179688%);fill-opacity:1;" d="M 75.925781 153.671875 L 47.898438 66.992188 L 75.824219 99.609375 L 75.925781 153.671875 "/>
<path style="fill:none;stroke-width:5;stroke-linecap:round;stroke-linejoin:round;stroke:rgb(0%,0%,0%);stroke-opacity:1;stroke-miterlimit:10;" d="M 760.579716 298.974678 L 479.119582 1169.44163 L 759.559791 841.888721 Z M 760.579716 298.974678 " transform="matrix(0.0995784,0,0,-0.0995784,0.188486,183.443289)"/>
<path style=" stroke:none;fill-rule:nonzero;fill:rgb(96.875%,92.1875%,59.179688%);fill-opacity:1;" d="M 47.898438 66.992188 L 50.238281 19.976562 L 75.824219 99.609375 L 47.898438 66.992188 "/>
<path style="fill:none;stroke-width:5;stroke-linecap:round;stroke-linejoin:round;stroke:rgb(0%,0%,0%);stroke-opacity:1;stroke-miterlimit:10;" d="M 479.119582 1169.44163 L 502.61709 1641.588554 L 759.559791 841.888721 Z M 479.119582 1169.44163 " transform="matrix(0.0995784,0,0,-0.0995784,0.188486,183.443289)"/>
<path style=" stroke:none;fill-rule:nonzero;fill:rgb(80.859375%,43.530273%,34.910583%);fill-opacity:1;" d="M 125.019531 41.3125 L 75.824219 99.609375 L 47.898438 66.992188 L 125.019531 41.3125 "/>
<path style="fill:none;stroke-width:5;stroke-linecap:round;stroke-linejoin:round;stroke:rgb(0%,0%,0%);stroke-opacity:1;stroke-miterlimit:10;" d="M 1253.595879 1427.325801 L 759.559791 841.888721 L 479.119582 1169.44163 Z M 1253.595879 1427.325801 " transform="matrix(0.0995784,0,0,-0.0995784,0.188486,183.443289)"/>
<path style=" stroke:none;fill-rule:nonzero;fill:rgb(64.646912%,76.171875%,92.96875%);fill-opacity:1;" d="M 125.019531 41.3125 L 50.238281 19.976562 L 47.898438 66.992188 L 125.019531 41.3125 "/>
<path style="fill:none;stroke-width:5;stroke-linecap:round;stroke-linejoin:round;stroke:rgb(0%,0%,0%);stroke-opacity:1;stroke-miterlimit:10;" d="M 1253.595879 1427.325801 L 502.61709 1641.588554 L 479.119582 1169.44163 Z M 1253.595879 1427.325801 " transform="matrix(0.0995784,0,0,-0.0995784,0.188486,183.443289)"/>
<g clip-path="url(#clip5)" clip-rule="nonzero">
<path style=" stroke:none;fill-rule:nonzero;fill:rgb(66.209412%,74.021912%,91.014099%);fill-opacity:1;" d="M 150.984375 124.15625 L 158.523438 183.195312 L 75.925781 153.671875 L 150.984375 124.15625 "/>
</g>
<g clip-path="url(#clip6)" clip-rule="nonzero">
<path style="fill:none;stroke-width:5;stroke-linecap:round;stroke-linejoin:round;stroke:rgb(0%,0%,0%);stroke-opacity:1;stroke-miterlimit:10;" d="M 1514.343686 595.38064 L 1590.05352 2.490261 L 760.579716 298.974678 Z M 1514.343686 595.38064 " transform="matrix(0.0995784,0,0,-0.0995784,0.188486,183.443289)"/>
</g>
<path style=" stroke:none;fill-rule:nonzero;fill:rgb(80.859375%,39.598083%,27.050781%);fill-opacity:1;" d="M 150.984375 124.15625 L 130.042969 92.699219 L 75.925781 153.671875 L 150.984375 124.15625 "/>
<path style="fill:none;stroke-width:5;stroke-linecap:round;stroke-linejoin:round;stroke:rgb(0%,0%,0%);stroke-opacity:1;stroke-miterlimit:10;" d="M 1514.343686 595.38064 L 1304.04295 911.282865 L 760.579716 298.974678 Z M 1514.343686 595.38064 " transform="matrix(0.0995784,0,0,-0.0995784,0.188486,183.443289)"/>
<path style=" stroke:none;fill-rule:nonzero;fill:rgb(90.625%,89.0625%,47.459412%);fill-opacity:1;" d="M 130.042969 92.699219 L 150.984375 124.15625 L 125.019531 41.3125 L 130.042969 92.699219 "/>
<path style="fill:none;stroke-width:5;stroke-linecap:round;stroke-linejoin:round;stroke:rgb(0%,0%,0%);stroke-opacity:1;stroke-miterlimit:10;" d="M 1304.04295 911.282865 L 1514.343686 595.38064 L 1253.595879 1427.325801 Z M 1304.04295 911.282865 " transform="matrix(0.0995784,0,0,-0.0995784,0.188486,183.443289)"/>
<g clip-path="url(#clip7)" clip-rule="nonzero">
<path style=" stroke:none;fill-rule:nonzero;fill:rgb(90.625%,89.0625%,47.459412%);fill-opacity:1;" d="M 130.042969 92.699219 L 158.523438 183.195312 L 150.984375 124.15625 L 130.042969 92.699219 "/>
</g>
<g clip-path="url(#clip8)" clip-rule="nonzero">
<path style="fill:none;stroke-width:5;stroke-linecap:round;stroke-linejoin:round;stroke:rgb(0%,0%,0%);stroke-opacity:1;stroke-miterlimit:10;" d="M 1304.04295 911.282865 L 1590.05352 2.490261 L 1514.343686 595.38064 Z M 1304.04295 911.282865 " transform="matrix(0.0995784,0,0,-0.0995784,0.188486,183.443289)"/>
</g>
<g clip-path="url(#clip9)" clip-rule="nonzero">
<path style=" stroke:none;fill-rule:nonzero;fill:rgb(59.568787%,44.700623%,64.646912%);fill-opacity:1;" d="M 125.019531 41.3125 L 206.566406 64.578125 L 150.984375 124.15625 L 125.019531 41.3125 "/>
</g>
<g clip-path="url(#clip10)" clip-rule="nonzero">
<path style="fill:none;stroke-width:5;stroke-linecap:round;stroke-linejoin:round;stroke:rgb(0%,0%,0%);stroke-opacity:1;stroke-miterlimit:10;" d="M 1253.595879 1427.325801 L 2072.517379 1193.684468 L 1514.343686 595.38064 Z M 1253.595879 1427.325801 " transform="matrix(0.0995784,0,0,-0.0995784,0.188486,183.443289)"/>
</g>
<g clip-path="url(#clip11)" clip-rule="nonzero">
<path style=" stroke:none;fill-rule:nonzero;fill:rgb(80.859375%,39.598083%,27.050781%);fill-opacity:1;" d="M 150.984375 124.15625 L 206.566406 64.578125 L 130.042969 92.699219 L 150.984375 124.15625 "/>
</g>
<g clip-path="url(#clip12)" clip-rule="nonzero">
<path style="fill:none;stroke-width:5;stroke-linecap:round;stroke-linejoin:round;stroke:rgb(0%,0%,0%);stroke-opacity:1;stroke-miterlimit:10;" d="M 1514.343686 595.38064 L 2072.517379 1193.684468 L 1304.04295 911.282865 Z M 1514.343686 595.38064 " transform="matrix(0.0995784,0,0,-0.0995784,0.188486,183.443289)"/>
</g>
<g clip-path="url(#clip13)" clip-rule="nonzero">
<path style=" stroke:none;fill-rule:nonzero;fill:rgb(58.396912%,43.138123%,63.867188%);fill-opacity:1;" d="M 47.898438 66.992188 L 0.4375 126.695312 L 75.925781 153.671875 L 47.898438 66.992188 "/>
</g>
<g clip-path="url(#clip14)" clip-rule="nonzero">
<path style="fill:none;stroke-width:5;stroke-linecap:round;stroke-linejoin:round;stroke:rgb(0%,0%,0%);stroke-opacity:1;stroke-miterlimit:10;" d="M 479.119582 1169.44163 L 2.500679 569.882509 L 760.579716 298.974678 Z M 479.119582 1169.44163 " transform="matrix(0.0995784,0,0,-0.0995784,0.188486,183.443289)"/>
</g>
<path style=" stroke:none;fill-rule:nonzero;fill:rgb(80.859375%,43.530273%,34.910583%);fill-opacity:1;" d="M 47.898438 66.992188 L 100.945312 0.25 L 125.019531 41.3125 L 47.898438 66.992188 "/>
<path style="fill:none;stroke-width:5;stroke-linecap:round;stroke-linejoin:round;stroke:rgb(0%,0%,0%);stroke-opacity:1;stroke-miterlimit:10;" d="M 479.119582 1169.44163 L 1011.834373 1839.689415 L 1253.595879 1427.325801 Z M 479.119582 1169.44163 " transform="matrix(0.0995784,0,0,-0.0995784,0.188486,183.443289)"/>
<g clip-path="url(#clip15)" clip-rule="nonzero">
<path style=" stroke:none;fill-rule:nonzero;fill:rgb(64.646912%,76.171875%,92.96875%);fill-opacity:1;" d="M 130.042969 92.699219 L 206.566406 64.578125 L 125.019531 41.3125 L 130.042969 92.699219 "/>
</g>
<g clip-path="url(#clip16)" clip-rule="nonzero">
<path style="fill:none;stroke-width:5;stroke-linecap:round;stroke-linejoin:round;stroke:rgb(0%,0%,0%);stroke-opacity:1;stroke-miterlimit:10;" d="M 1304.04295 911.282865 L 2072.517379 1193.684468 L 1253.595879 1427.325801 Z M 1304.04295 911.282865 " transform="matrix(0.0995784,0,0,-0.0995784,0.188486,183.443289)"/>
</g>
<path style=" stroke:none;fill-rule:nonzero;fill:rgb(64.646912%,76.171875%,92.96875%);fill-opacity:1;" d="M 125.019531 41.3125 L 47.898438 66.992188 L 130.042969 92.699219 L 125.019531 41.3125 "/>
<path style="fill:none;stroke-width:5;stroke-linecap:round;stroke-linejoin:round;stroke:rgb(0%,0%,0%);stroke-opacity:1;stroke-miterlimit:10;" d="M 1253.595879 1427.325801 L 479.119582 1169.44163 L 1304.04295 911.282865 Z M 1253.595879 1427.325801 " transform="matrix(0.0995784,0,0,-0.0995784,0.188486,183.443289)"/>
<path style=" stroke:none;fill-rule:nonzero;fill:rgb(90.625%,89.0625%,47.459412%);fill-opacity:1;" d="M 125.019531 41.3125 L 100.945312 0.25 L 130.042969 92.699219 L 125.019531 41.3125 "/>
<path style="fill:none;stroke-width:5;stroke-linecap:round;stroke-linejoin:round;stroke:rgb(0%,0%,0%);stroke-opacity:1;stroke-miterlimit:10;" d="M 1253.595879 1427.325801 L 1011.834373 1839.689415 L 1304.04295 911.282865 Z M 1253.595879 1427.325801 " transform="matrix(0.0995784,0,0,-0.0995784,0.188486,183.443289)"/>
<path style=" stroke:none;fill-rule:nonzero;fill:rgb(96.875%,92.1875%,59.179688%);fill-opacity:1;" d="M 75.925781 153.671875 L 45.0625 123.921875 L 47.898438 66.992188 L 75.925781 153.671875 "/>
<path style="fill:none;stroke-width:5;stroke-linecap:round;stroke-linejoin:round;stroke:rgb(0%,0%,0%);stroke-opacity:1;stroke-miterlimit:10;" d="M 760.579716 298.974678 L 450.640131 597.734314 L 479.119582 1169.44163 Z M 760.579716 298.974678 " transform="matrix(0.0995784,0,0,-0.0995784,0.188486,183.443289)"/>
<path style=" stroke:none;fill-rule:nonzero;fill:rgb(58.396912%,43.138123%,63.867188%);fill-opacity:1;" d="M 47.898438 66.992188 L 75.925781 153.671875 L 130.042969 92.699219 L 47.898438 66.992188 "/>
<path style="fill:none;stroke-width:5;stroke-linecap:round;stroke-linejoin:round;stroke:rgb(0%,0%,0%);stroke-opacity:1;stroke-miterlimit:10;" d="M 479.119582 1169.44163 L 760.579716 298.974678 L 1304.04295 911.282865 Z M 479.119582 1169.44163 " transform="matrix(0.0995784,0,0,-0.0995784,0.188486,183.443289)"/>
<path style=" stroke:none;fill-rule:nonzero;fill:rgb(80.859375%,39.598083%,27.050781%);fill-opacity:1;" d="M 130.042969 92.699219 L 45.0625 123.921875 L 75.925781 153.671875 L 130.042969 92.699219 "/>
<path style="fill:none;stroke-width:5;stroke-linecap:round;stroke-linejoin:round;stroke:rgb(0%,0%,0%);stroke-opacity:1;stroke-miterlimit:10;" d="M 1304.04295 911.282865 L 450.640131 597.734314 L 760.579716 298.974678 Z M 1304.04295 911.282865 " transform="matrix(0.0995784,0,0,-0.0995784,0.188486,183.443289)"/>
<g clip-path="url(#clip17)" clip-rule="nonzero">
<path style=" stroke:none;fill-rule:nonzero;fill:rgb(58.396912%,43.138123%,63.867188%);fill-opacity:1;" d="M 75.925781 153.671875 L 158.523438 183.195312 L 130.042969 92.699219 L 75.925781 153.671875 "/>
<path style="fill:none;stroke-width:5;stroke-linecap:round;stroke-linejoin:round;stroke:rgb(0%,0%,0%);stroke-opacity:1;stroke-miterlimit:10;" d="M 760.579716 298.974678 L 1590.05352 2.490261 L 1304.04295 911.282865 Z M 760.579716 298.974678 " transform="matrix(0.0995784,0,0,-0.0995784,0.188486,183.443289)"/>
</g>
<path style=" stroke:none;fill-rule:nonzero;fill:rgb(64.646912%,76.171875%,92.96875%);fill-opacity:1;" d="M 47.898438 66.992188 L 45.0625 123.921875 L 130.042969 92.699219 L 47.898438 66.992188 "/>
<path style="fill:none;stroke-width:5;stroke-linecap:round;stroke-linejoin:round;stroke:rgb(0%,0%,0%);stroke-opacity:1;stroke-miterlimit:10;" d="M 479.119582 1169.44163 L 450.640131 597.734314 L 1304.04295 911.282865 Z M 479.119582 1169.44163 " transform="matrix(0.0995784,0,0,-0.0995784,0.188486,183.443289)"/>
<path style=" stroke:none;fill-rule:nonzero;fill:rgb(58.396912%,43.138123%,63.867188%);fill-opacity:1;" d="M 130.042969 92.699219 L 100.945312 0.25 L 47.898438 66.992188 L 130.042969 92.699219 "/>
<path style="fill:none;stroke-width:5;stroke-linecap:round;stroke-linejoin:round;stroke:rgb(0%,0%,0%);stroke-opacity:1;stroke-miterlimit:10;" d="M 1304.04295 911.282865 L 1011.834373 1839.689415 L 479.119582 1169.44163 Z M 1304.04295 911.282865 " transform="matrix(0.0995784,0,0,-0.0995784,0.188486,183.443289)"/>
</g>
</svg>
