<?xml version="1.0" encoding="UTF-8"?>
<svg xmlns="http://www.w3.org/2000/svg" xmlns:xlink="http://www.w3.org/1999/xlink" width="112.38pt" height="132.02pt" viewBox="0 0 112.38 132.02" version="1.2">
<defs>
<clipPath id="clip1">
  <path d="M 0.105469 47 L 111.660156 47 L 111.660156 131 L 0.105469 131 Z M 0.105469 47 "/>
</clipPath>
<clipPath id="clip2">
  <path d="M 0.105469 45 L 111.660156 45 L 111.660156 131.046875 L 0.105469 131.046875 Z M 0.105469 45 "/>
</clipPath>
<clipPath id="clip3">
  <path d="M 0.105469 0 L 103 0 L 103 87 L 0.105469 87 Z M 0.105469 0 "/>
</clipPath>
<clipPath id="clip4">
  <path d="M 0.105469 0 L 105 0 L 105 89 L 0.105469 89 Z M 0.105469 0 "/>
</clipPath>
<clipPath id="clip5">
  <path d="M 69 0 L 111.660156 0 L 111.660156 131 L 69 131 Z M 69 0 "/>
</clipPath>
<clipPath id="clip6">
  <path d="M 67 0 L 111.660156 0 L 111.660156 131.046875 L 67 131.046875 Z M 67 0 "/>
</clipPath>
<clipPath id="clip7">
  <path d="M 0.105469 0 L 111.660156 0 L 111.660156 131 L 0.105469 131 Z M 0.105469 0 "/>
</clipPath>
<clipPath id="clip8">
  <path d="M 0.105469 0 L 111.660156 0 L 111.660156 131.046875 L 0.105469 131.046875 Z M 0.105469 0 "/>
</clipPath>
</defs>
<g id="surface1">
<g clip-path="url(#clip1)" clip-rule="nonzero">
<path style=" stroke:none;fill-rule:evenodd;fill:rgb(70.205688%,71.026611%,83.110046%);fill-opacity:1;" d="M 102.117188 47.402344 L 111.34375 130.714844 L 0.707031 86.464844 L 102.117188 47.402344 "/>
</g>
<g clip-path="url(#clip2)" clip-rule="nonzero">
<path style="fill:none;stroke-width:3.906;stroke-linecap:butt;stroke-linejoin:miter;stroke:rgb(13.729858%,12.159729%,12.548828%);stroke-opacity:1;stroke-miterlimit:4;" d="M 1027.681104 842.657831 L 1120.631628 3.348446 L 6.051746 449.133175 Z M 1027.681104 842.657831 " transform="matrix(0.0992632,0,0,-0.0992632,0.106316,131.047221)"/>
</g>
<g clip-path="url(#clip3)" clip-rule="nonzero">
<path style=" stroke:none;fill-rule:evenodd;fill:rgb(81.034851%,51.519775%,37.620544%);fill-opacity:1;" d="M 69.917969 0.40625 L 102.117188 47.402344 L 0.707031 86.464844 L 69.917969 0.40625 "/>
</g>
<g clip-path="url(#clip4)" clip-rule="nonzero">
<path style="fill:none;stroke-width:3.906;stroke-linecap:butt;stroke-linejoin:miter;stroke:rgb(13.729858%,12.159729%,12.548828%);stroke-opacity:1;stroke-miterlimit:4;" d="M 703.298731 1316.107344 L 1027.681104 842.657831 L 6.051746 449.133175 Z M 703.298731 1316.107344 " transform="matrix(0.0992632,0,0,-0.0992632,0.106316,131.047221)"/>
</g>
<g clip-path="url(#clip5)" clip-rule="nonzero">
<path style=" stroke:none;fill-rule:evenodd;fill:rgb(93.878174%,89.79187%,54.431152%);fill-opacity:1;" d="M 69.917969 0.40625 L 111.34375 130.714844 L 102.117188 47.402344 L 69.917969 0.40625 "/>
</g>
<g clip-path="url(#clip6)" clip-rule="nonzero">
<path style="fill:none;stroke-width:3.906;stroke-linecap:butt;stroke-linejoin:miter;stroke:rgb(13.729858%,12.159729%,12.548828%);stroke-opacity:1;stroke-miterlimit:4;" d="M 703.298731 1316.107344 L 1120.631628 3.348446 L 1027.681104 842.657831 Z M 703.298731 1316.107344 " transform="matrix(0.0992632,0,0,-0.0992632,0.106316,131.047221)"/>
</g>
<g clip-path="url(#clip7)" clip-rule="nonzero">
<path style=" stroke:none;fill-rule:evenodd;fill:rgb(63.85498%,52.772522%,61.062622%);fill-opacity:1;" d="M 69.917969 0.40625 L 0.707031 86.464844 L 111.34375 130.714844 L 69.917969 0.40625 "/>
</g>
<g clip-path="url(#clip8)" clip-rule="nonzero">
<path style="fill:none;stroke-width:3.906;stroke-linecap:butt;stroke-linejoin:miter;stroke:rgb(13.729858%,12.159729%,12.548828%);stroke-opacity:1;stroke-miterlimit:4;" d="M 703.298731 1316.107344 L 6.051746 449.133175 L 1120.631628 3.348446 Z M 703.298731 1316.107344 " transform="matrix(0.0992632,0,0,-0.0992632,0.106316,131.047221)"/>
</g>
</g>
</svg>
