<?xml version="1.0" encoding="UTF-8"?>
<svg xmlns="http://www.w3.org/2000/svg" xmlns:xlink="http://www.w3.org/1999/xlink" width="170.78pt" height="182.43pt" viewBox="0 0 170.78 182.43" version="1.2">
<defs>
<clipPath id="clip1">
  <path d="M 118 0 L 170.40625 0 L 170.40625 101 L 118 101 Z M 118 0 "/>
</clipPath>
<clipPath id="clip2">
  <path d="M 116 0 L 170.40625 0 L 170.40625 103 L 116 103 Z M 116 0 "/>
</clipPath>
<clipPath id="clip3">
  <path d="M 118 74 L 170.40625 74 L 170.40625 161 L 118 161 Z M 118 74 "/>
</clipPath>
<clipPath id="clip4">
  <path d="M 116 71 L 170.40625 71 L 170.40625 163 L 116 163 Z M 116 71 "/>
</clipPath>
<clipPath id="clip5">
  <path d="M 0.15625 104 L 53 104 L 53 181 L 0.15625 181 Z M 0.15625 104 "/>
</clipPath>
<clipPath id="clip6">
  <path d="M 0.15625 101 L 55 101 L 55 181.863281 L 0.15625 181.863281 Z M 0.15625 101 "/>
</clipPath>
<clipPath id="clip7">
  <path d="M 0.15625 15 L 30 15 L 30 117 L 0.15625 117 Z M 0.15625 15 "/>
</clipPath>
<clipPath id="clip8">
  <path d="M 0.15625 12 L 33 12 L 33 120 L 0.15625 120 Z M 0.15625 12 "/>
</clipPath>
<clipPath id="clip9">
  <path d="M 26 113 L 92 113 L 92 181.863281 L 26 181.863281 Z M 26 113 "/>
</clipPath>
<clipPath id="clip10">
  <path d="M 49 149 L 156 149 L 156 181.863281 L 49 181.863281 Z M 49 149 "/>
</clipPath>
<clipPath id="clip11">
  <path d="M 122 0 L 170.40625 0 L 170.40625 75 L 122 75 Z M 122 0 "/>
</clipPath>
<clipPath id="clip12">
  <path d="M 119 0 L 170.40625 0 L 170.40625 78 L 119 78 Z M 119 0 "/>
</clipPath>
<clipPath id="clip13">
  <path d="M 152 54 L 170.40625 54 L 170.40625 161 L 152 161 Z M 152 54 "/>
</clipPath>
<clipPath id="clip14">
  <path d="M 149 51 L 170.40625 51 L 170.40625 163 L 149 163 Z M 149 51 "/>
</clipPath>
<clipPath id="clip15">
  <path d="M 49 142 L 156 142 L 156 181.863281 L 49 181.863281 Z M 49 142 "/>
</clipPath>
<clipPath id="clip16">
  <path d="M 0.15625 15 L 47 15 L 47 105 L 0.15625 105 Z M 0.15625 15 "/>
</clipPath>
<clipPath id="clip17">
  <path d="M 0.15625 12 L 50 12 L 50 107 L 0.15625 107 Z M 0.15625 12 "/>
</clipPath>
<clipPath id="clip18">
  <path d="M 0.15625 73 L 53 73 L 53 181 L 0.15625 181 Z M 0.15625 73 "/>
</clipPath>
<clipPath id="clip19">
  <path d="M 0.15625 70 L 55 70 L 55 181.863281 L 0.15625 181.863281 Z M 0.15625 70 "/>
</clipPath>
<clipPath id="clip20">
  <path d="M 44 70 L 120 70 L 120 181.863281 L 44 181.863281 Z M 44 70 "/>
</clipPath>
</defs>
<g id="surface1">
<path style=" stroke:none;fill-rule:evenodd;fill:rgb(63.81073%,40.776062%,47.380066%);fill-opacity:1;" d="M 65.671875 43.8125 L 118.90625 100.230469 L 122.640625 0.785156 L 65.671875 43.8125 "/>
<path style="fill:none;stroke-width:4.88301;stroke-linecap:butt;stroke-linejoin:miter;stroke:rgb(13.729858%,12.159729%,12.548828%);stroke-opacity:1;stroke-miterlimit:4;" d="M 657.20266 1384.806085 L 1191.209711 818.863625 L 1228.670141 1816.423905 Z M 657.20266 1384.806085 " transform="matrix(0.0996885,0,0,-0.0996885,0.156311,181.861775)"/>
<path style=" stroke:none;fill-rule:evenodd;fill:rgb(74.966431%,57.287598%,59.207153%);fill-opacity:1;" d="M 65.671875 43.8125 L 118.90625 100.230469 L 29.664062 116.515625 L 65.671875 43.8125 "/>
<path style="fill:none;stroke-width:4.88301;stroke-linecap:butt;stroke-linejoin:miter;stroke:rgb(13.729858%,12.159729%,12.548828%);stroke-opacity:1;stroke-miterlimit:4;" d="M 657.20266 1384.806085 L 1191.209711 818.863625 L 295.999476 655.503235 Z M 657.20266 1384.806085 " transform="matrix(0.0996885,0,0,-0.0996885,0.156311,181.861775)"/>
<g clip-path="url(#clip1)" clip-rule="nonzero">
<path style=" stroke:none;fill-rule:evenodd;fill:rgb(54.829407%,34.403992%,45.840454%);fill-opacity:1;" d="M 170.050781 74.351562 L 118.90625 100.230469 L 122.640625 0.785156 L 170.050781 74.351562 "/>
</g>
<g clip-path="url(#clip2)" clip-rule="nonzero">
<path style="fill:none;stroke-width:4.88301;stroke-linecap:butt;stroke-linejoin:miter;stroke:rgb(13.729858%,12.159729%,12.548828%);stroke-opacity:1;stroke-miterlimit:4;" d="M 1704.253027 1078.461271 L 1191.209711 818.863625 L 1228.670141 1816.423905 Z M 1704.253027 1078.461271 " transform="matrix(0.0996885,0,0,-0.0996885,0.156311,181.861775)"/>
</g>
<g clip-path="url(#clip3)" clip-rule="nonzero">
<path style=" stroke:none;fill-rule:evenodd;fill:rgb(44.395447%,38.543701%,57.420349%);fill-opacity:1;" d="M 170.050781 74.351562 L 118.90625 100.230469 L 152.261719 160.058594 L 170.050781 74.351562 "/>
</g>
<g clip-path="url(#clip4)" clip-rule="nonzero">
<path style="fill:none;stroke-width:4.88301;stroke-linecap:butt;stroke-linejoin:miter;stroke:rgb(13.729858%,12.159729%,12.548828%);stroke-opacity:1;stroke-miterlimit:4;" d="M 1704.253027 1078.461271 L 1191.209711 818.863625 L 1525.806585 218.713054 Z M 1704.253027 1078.461271 " transform="matrix(0.0996885,0,0,-0.0996885,0.156311,181.861775)"/>
</g>
<path style=" stroke:none;fill-rule:evenodd;fill:rgb(59.587097%,56.916809%,72.058105%);fill-opacity:1;" d="M 88.261719 152.285156 L 118.90625 100.230469 L 152.261719 160.058594 L 88.261719 152.285156 "/>
<path style="fill:none;stroke-width:4.88301;stroke-linecap:butt;stroke-linejoin:miter;stroke:rgb(13.729858%,12.159729%,12.548828%);stroke-opacity:1;stroke-miterlimit:4;" d="M 883.806914 296.690309 L 1191.209711 818.863625 L 1525.806585 218.713054 Z M 883.806914 296.690309 " transform="matrix(0.0996885,0,0,-0.0996885,0.156311,181.861775)"/>
<path style=" stroke:none;fill-rule:evenodd;fill:rgb(72.05658%,63.62915%,70.750427%);fill-opacity:1;" d="M 88.261719 152.285156 L 118.90625 100.230469 L 29.664062 116.515625 L 88.261719 152.285156 "/>
<path style="fill:none;stroke-width:4.88301;stroke-linecap:butt;stroke-linejoin:miter;stroke:rgb(13.729858%,12.159729%,12.548828%);stroke-opacity:1;stroke-miterlimit:4;" d="M 883.806914 296.690309 L 1191.209711 818.863625 L 295.999476 655.503235 Z M 883.806914 296.690309 " transform="matrix(0.0996885,0,0,-0.0996885,0.156311,181.861775)"/>
<path style=" stroke:none;fill-rule:evenodd;fill:rgb(87.882996%,62.533569%,48.449707%);fill-opacity:1;" d="M 65.671875 43.8125 L 22.238281 15.132812 L 29.664062 116.515625 L 65.671875 43.8125 "/>
<path style="fill:none;stroke-width:4.88301;stroke-linecap:butt;stroke-linejoin:miter;stroke:rgb(13.729858%,12.159729%,12.548828%);stroke-opacity:1;stroke-miterlimit:4;" d="M 657.20266 1384.806085 L 221.509646 1672.499052 L 295.999476 655.503235 Z M 657.20266 1384.806085 " transform="matrix(0.0996885,0,0,-0.0996885,0.156311,181.861775)"/>
<path style=" stroke:none;fill-rule:evenodd;fill:rgb(71.855164%,35.806274%,30.874634%);fill-opacity:1;" d="M 65.671875 43.8125 L 122.640625 0.785156 L 22.238281 15.132812 L 65.671875 43.8125 "/>
<path style="fill:none;stroke-width:4.88301;stroke-linecap:butt;stroke-linejoin:miter;stroke:rgb(13.729858%,12.159729%,12.548828%);stroke-opacity:1;stroke-miterlimit:4;" d="M 657.20266 1384.806085 L 1228.670141 1816.423905 L 221.509646 1672.499052 Z M 657.20266 1384.806085 " transform="matrix(0.0996885,0,0,-0.0996885,0.156311,181.861775)"/>
<g clip-path="url(#clip5)" clip-rule="nonzero">
<path style=" stroke:none;fill-rule:evenodd;fill:rgb(89.628601%,94.006348%,72.775269%);fill-opacity:1;" d="M 0.816406 104.089844 L 52.1875 180.996094 L 29.664062 116.515625 L 0.816406 104.089844 "/>
</g>
<g clip-path="url(#clip6)" clip-rule="nonzero">
<path style="fill:none;stroke-width:4.88301;stroke-linecap:butt;stroke-linejoin:miter;stroke:rgb(13.729858%,12.159729%,12.548828%);stroke-opacity:1;stroke-miterlimit:4;" d="M 6.621572 780.14929 L 521.937593 8.683865 L 295.999476 655.503235 Z M 6.621572 780.14929 " transform="matrix(0.0996885,0,0,-0.0996885,0.156311,181.861775)"/>
</g>
<g clip-path="url(#clip7)" clip-rule="nonzero">
<path style=" stroke:none;fill-rule:evenodd;fill:rgb(96.70105%,72.966003%,44.117737%);fill-opacity:1;" d="M 0.816406 104.089844 L 22.238281 15.132812 L 29.664062 116.515625 L 0.816406 104.089844 "/>
</g>
<g clip-path="url(#clip8)" clip-rule="nonzero">
<path style="fill:none;stroke-width:4.88301;stroke-linecap:butt;stroke-linejoin:miter;stroke:rgb(13.729858%,12.159729%,12.548828%);stroke-opacity:1;stroke-miterlimit:4;" d="M 6.621572 780.14929 L 221.509646 1672.499052 L 295.999476 655.503235 Z M 6.621572 780.14929 " transform="matrix(0.0996885,0,0,-0.0996885,0.156311,181.861775)"/>
</g>
<path style=" stroke:none;fill-rule:evenodd;fill:rgb(76.078796%,77.836609%,83.885193%);fill-opacity:1;" d="M 88.261719 152.285156 L 52.1875 180.996094 L 29.664062 116.515625 L 88.261719 152.285156 "/>
<g clip-path="url(#clip9)" clip-rule="nonzero">
<path style="fill:none;stroke-width:4.88301;stroke-linecap:butt;stroke-linejoin:miter;stroke:rgb(13.729858%,12.159729%,12.548828%);stroke-opacity:1;stroke-miterlimit:4;" d="M 883.806914 296.690309 L 521.937593 8.683865 L 295.999476 655.503235 Z M 883.806914 296.690309 " transform="matrix(0.0996885,0,0,-0.0996885,0.156311,181.861775)"/>
</g>
<path style=" stroke:none;fill-rule:evenodd;fill:rgb(53.211975%,67.018127%,86.521912%);fill-opacity:1;" d="M 88.261719 152.285156 L 52.1875 180.996094 L 152.261719 160.058594 L 88.261719 152.285156 "/>
<g clip-path="url(#clip10)" clip-rule="nonzero">
<path style="fill:none;stroke-width:4.88301;stroke-linecap:butt;stroke-linejoin:miter;stroke:rgb(13.729858%,12.159729%,12.548828%);stroke-opacity:1;stroke-miterlimit:4;" d="M 883.806914 296.690309 L 521.937593 8.683865 L 1525.806585 218.713054 Z M 883.806914 296.690309 " transform="matrix(0.0996885,0,0,-0.0996885,0.156311,181.861775)"/>
</g>
<g clip-path="url(#clip11)" clip-rule="nonzero">
<path style=" stroke:none;fill-rule:evenodd;fill:rgb(13.729858%,12.159729%,12.548828%);fill-opacity:1;" d="M 170.050781 74.351562 L 122.640625 0.785156 L 161.226562 54.117188 L 170.050781 74.351562 "/>
</g>
<g clip-path="url(#clip12)" clip-rule="nonzero">
<path style="fill:none;stroke-width:4.88301;stroke-linecap:butt;stroke-linejoin:miter;stroke:rgb(13.729858%,12.159729%,12.548828%);stroke-opacity:1;stroke-miterlimit:4;" d="M 1704.253027 1078.461271 L 1228.670141 1816.423905 L 1615.735128 1281.437241 Z M 1704.253027 1078.461271 " transform="matrix(0.0996885,0,0,-0.0996885,0.156311,181.861775)"/>
</g>
<g clip-path="url(#clip13)" clip-rule="nonzero">
<path style=" stroke:none;fill-rule:evenodd;fill:rgb(90.588379%,64.663696%,19.691467%);fill-opacity:1;" d="M 170.050781 74.351562 L 161.226562 54.117188 L 152.261719 160.058594 L 170.050781 74.351562 "/>
</g>
<g clip-path="url(#clip14)" clip-rule="nonzero">
<path style="fill:none;stroke-width:4.88301;stroke-linecap:butt;stroke-linejoin:miter;stroke:rgb(13.729858%,12.159729%,12.548828%);stroke-opacity:1;stroke-miterlimit:4;" d="M 1704.253027 1078.461271 L 1615.735128 1281.437241 L 1525.806585 218.713054 Z M 1704.253027 1078.461271 " transform="matrix(0.0996885,0,0,-0.0996885,0.156311,181.861775)"/>
</g>
<path style=" stroke:none;fill-rule:evenodd;fill:rgb(73.246765%,84.954834%,91.320801%);fill-opacity:1;" d="M 88.261719 13.628906 L 122.640625 0.785156 L 161.226562 54.117188 L 88.261719 13.628906 "/>
<path style="fill:none;stroke-width:4.88301;stroke-linecap:butt;stroke-linejoin:miter;stroke:rgb(13.729858%,12.159729%,12.548828%);stroke-opacity:1;stroke-miterlimit:4;" d="M 883.806914 1687.585104 L 1228.670141 1816.423905 L 1615.735128 1281.437241 Z M 883.806914 1687.585104 " transform="matrix(0.0996885,0,0,-0.0996885,0.156311,181.861775)"/>
<path style=" stroke:none;fill-rule:evenodd;fill:rgb(24.97406%,56.587219%,79.107666%);fill-opacity:1;" d="M 88.261719 13.628906 L 122.640625 0.785156 L 22.238281 15.132812 L 88.261719 13.628906 "/>
<path style="fill:none;stroke-width:4.88301;stroke-linecap:butt;stroke-linejoin:miter;stroke:rgb(13.729858%,12.159729%,12.548828%);stroke-opacity:1;stroke-miterlimit:4;" d="M 883.806914 1687.585104 L 1228.670141 1816.423905 L 221.509646 1672.499052 Z M 883.806914 1687.585104 " transform="matrix(0.0996885,0,0,-0.0996885,0.156311,181.861775)"/>
<path style=" stroke:none;fill-rule:evenodd;fill:rgb(65.657043%,22.077942%,16.63208%);fill-opacity:1;" d="M 116.574219 145.007812 L 52.1875 180.996094 L 152.261719 160.058594 L 116.574219 145.007812 "/>
<g clip-path="url(#clip15)" clip-rule="nonzero">
<path style="fill:none;stroke-width:4.88301;stroke-linecap:butt;stroke-linejoin:miter;stroke:rgb(13.729858%,12.159729%,12.548828%);stroke-opacity:1;stroke-miterlimit:4;" d="M 1167.816534 369.691126 L 521.937593 8.683865 L 1525.806585 218.713054 Z M 1167.816534 369.691126 " transform="matrix(0.0996885,0,0,-0.0996885,0.156311,181.861775)"/>
</g>
<path style=" stroke:none;fill-rule:evenodd;fill:rgb(92.028809%,62.834167%,39.042664%);fill-opacity:1;" d="M 116.574219 145.007812 L 161.226562 54.117188 L 152.261719 160.058594 L 116.574219 145.007812 "/>
<path style="fill:none;stroke-width:4.88301;stroke-linecap:butt;stroke-linejoin:miter;stroke:rgb(13.729858%,12.159729%,12.548828%);stroke-opacity:1;stroke-miterlimit:4;" d="M 1167.816534 369.691126 L 1615.735128 1281.437241 L 1525.806585 218.713054 Z M 1167.816534 369.691126 " transform="matrix(0.0996885,0,0,-0.0996885,0.156311,181.861775)"/>
<g clip-path="url(#clip16)" clip-rule="nonzero">
<path style=" stroke:none;fill-rule:evenodd;fill:rgb(29.069519%,30.467224%,52.575684%);fill-opacity:1;" d="M 0.816406 104.089844 L 46.898438 73.191406 L 22.238281 15.132812 L 0.816406 104.089844 "/>
</g>
<g clip-path="url(#clip17)" clip-rule="nonzero">
<path style="fill:none;stroke-width:4.88301;stroke-linecap:butt;stroke-linejoin:miter;stroke:rgb(13.729858%,12.159729%,12.548828%);stroke-opacity:1;stroke-miterlimit:4;" d="M 6.621572 780.14929 L 468.881711 1090.099082 L 221.509646 1672.499052 Z M 6.621572 780.14929 " transform="matrix(0.0996885,0,0,-0.0996885,0.156311,181.861775)"/>
</g>
<path style=" stroke:none;fill-rule:evenodd;fill:rgb(52.688599%,56.143188%,75.215149%);fill-opacity:1;" d="M 88.261719 13.628906 L 46.898438 73.191406 L 22.238281 15.132812 L 88.261719 13.628906 "/>
<path style="fill:none;stroke-width:4.88301;stroke-linecap:butt;stroke-linejoin:miter;stroke:rgb(13.729858%,12.159729%,12.548828%);stroke-opacity:1;stroke-miterlimit:4;" d="M 883.806914 1687.585104 L 468.881711 1090.099082 L 221.509646 1672.499052 Z M 883.806914 1687.585104 " transform="matrix(0.0996885,0,0,-0.0996885,0.156311,181.861775)"/>
<g clip-path="url(#clip18)" clip-rule="nonzero">
<path style=" stroke:none;fill-rule:evenodd;fill:rgb(47.836304%,26.855469%,40.231323%);fill-opacity:1;" d="M 0.816406 104.089844 L 52.1875 180.996094 L 46.898438 73.191406 L 0.816406 104.089844 "/>
</g>
<g clip-path="url(#clip19)" clip-rule="nonzero">
<path style="fill:none;stroke-width:4.88301;stroke-linecap:butt;stroke-linejoin:miter;stroke:rgb(13.729858%,12.159729%,12.548828%);stroke-opacity:1;stroke-miterlimit:4;" d="M 6.621572 780.14929 L 521.937593 8.683865 L 468.881711 1090.099082 Z M 6.621572 780.14929 " transform="matrix(0.0996885,0,0,-0.0996885,0.156311,181.861775)"/>
</g>
<path style=" stroke:none;fill-rule:evenodd;fill:rgb(60.925293%,35.957336%,43.162537%);fill-opacity:1;" d="M 116.574219 145.007812 L 52.1875 180.996094 L 46.898438 73.191406 L 116.574219 145.007812 "/>
<g clip-path="url(#clip20)" clip-rule="nonzero">
<path style="fill:none;stroke-width:4.88301;stroke-linecap:butt;stroke-linejoin:miter;stroke:rgb(13.729858%,12.159729%,12.548828%);stroke-opacity:1;stroke-miterlimit:4;" d="M 1167.816534 369.691126 L 521.937593 8.683865 L 468.881711 1090.099082 Z M 1167.816534 369.691126 " transform="matrix(0.0996885,0,0,-0.0996885,0.156311,181.861775)"/>
</g>
<path style=" stroke:none;fill-rule:evenodd;fill:rgb(72.04895%,66.316223%,74.214172%);fill-opacity:1;" d="M 88.261719 13.628906 L 46.898438 73.191406 L 161.226562 54.117188 L 88.261719 13.628906 "/>
<path style="fill:none;stroke-width:4.88301;stroke-linecap:butt;stroke-linejoin:miter;stroke:rgb(13.729858%,12.159729%,12.548828%);stroke-opacity:1;stroke-miterlimit:4;" d="M 883.806914 1687.585104 L 468.881711 1090.099082 L 1615.735128 1281.437241 Z M 883.806914 1687.585104 " transform="matrix(0.0996885,0,0,-0.0996885,0.156311,181.861775)"/>
<path style=" stroke:none;fill-rule:evenodd;fill:rgb(76.153564%,57.965088%,58.804321%);fill-opacity:1;" d="M 116.574219 145.007812 L 46.898438 73.191406 L 161.226562 54.117188 L 116.574219 145.007812 "/>
<path style="fill:none;stroke-width:4.88301;stroke-linecap:butt;stroke-linejoin:miter;stroke:rgb(13.729858%,12.159729%,12.548828%);stroke-opacity:1;stroke-miterlimit:4;" d="M 1167.816534 369.691126 L 468.881711 1090.099082 L 1615.735128 1281.437241 Z M 1167.816534 369.691126 " transform="matrix(0.0996885,0,0,-0.0996885,0.156311,181.861775)"/>
</g>
</svg>
