<?xml version="1.0" encoding="UTF-8"?>
<svg xmlns="http://www.w3.org/2000/svg" xmlns:xlink="http://www.w3.org/1999/xlink" width="215.11pt" height="188.15pt" viewBox="0 0 215.11 188.15" version="1.2">
<defs>
<clipPath id="clip1">
  <path d="M 132 0 L 214.183594 0 L 214.183594 105 L 132 105 Z M 132 0 "/>
</clipPath>
<clipPath id="clip2">
  <path d="M 0.0390625 0 L 191 0 L 191 129 L 0.0390625 129 Z M 0.0390625 0 "/>
</clipPath>
<clipPath id="clip3">
  <path d="M 132 0 L 214.183594 0 L 214.183594 28 L 132 28 Z M 132 0 "/>
</clipPath>
<clipPath id="clip4">
  <path d="M 0.0390625 0 L 133 0 L 133 129 L 0.0390625 129 Z M 0.0390625 0 "/>
</clipPath>
<clipPath id="clip5">
  <path d="M 0.0390625 0 L 133 0 L 133 130 L 0.0390625 130 Z M 0.0390625 0 "/>
</clipPath>
<clipPath id="clip6">
  <path d="M 0.0390625 11 L 18 11 L 18 129 L 0.0390625 129 Z M 0.0390625 11 "/>
</clipPath>
<clipPath id="clip7">
  <path d="M 0.0390625 11 L 19 11 L 19 130 L 0.0390625 130 Z M 0.0390625 11 "/>
</clipPath>
<clipPath id="clip8">
  <path d="M 0.0390625 103 L 191 103 L 191 187 L 0.0390625 187 Z M 0.0390625 103 "/>
</clipPath>
<clipPath id="clip9">
  <path d="M 0.0390625 103 L 191 103 L 191 187.304688 L 0.0390625 187.304688 Z M 0.0390625 103 "/>
</clipPath>
<clipPath id="clip10">
  <path d="M 190 7 L 214.183594 7 L 214.183594 105 L 190 105 Z M 190 7 "/>
</clipPath>
<clipPath id="clip11">
  <path d="M 73 103 L 191 103 L 191 187.304688 L 73 187.304688 Z M 73 103 "/>
</clipPath>
<clipPath id="clip12">
  <path d="M 0.0390625 128 L 113 128 L 113 187 L 0.0390625 187 Z M 0.0390625 128 "/>
</clipPath>
<clipPath id="clip13">
  <path d="M 0.0390625 128 L 114 128 L 114 187.304688 L 0.0390625 187.304688 Z M 0.0390625 128 "/>
</clipPath>
<clipPath id="clip14">
  <path d="M 0.0390625 29 L 75 29 L 75 152 L 0.0390625 152 Z M 0.0390625 29 "/>
</clipPath>
<clipPath id="clip15">
  <path d="M 0.0390625 28 L 75 28 L 75 152 L 0.0390625 152 Z M 0.0390625 28 "/>
</clipPath>
<clipPath id="clip16">
  <path d="M 73 7 L 214.183594 7 L 214.183594 152 L 73 152 Z M 73 7 "/>
</clipPath>
</defs>
<g id="surface1">
<path style=" stroke:none;fill-rule:nonzero;fill:rgb(57.929993%,46.585083%,56.35376%);fill-opacity:1;" d="M 190.417969 103.613281 L 132.574219 0.398438 L 213.785156 8.242188 L 190.417969 103.613281 "/>
<g clip-path="url(#clip1)" clip-rule="nonzero">
<path style="fill:none;stroke-width:8.04;stroke-linecap:round;stroke-linejoin:round;stroke:rgb(13.729858%,12.159729%,12.548828%);stroke-opacity:1;stroke-miterlimit:10;" d="M 1912.373165 840.686279 L 1331.322474 1877.497625 L 2147.100693 1798.70577 Z M 1912.373165 840.686279 " transform="matrix(0.0995503,0,0,-0.0995503,0.0407143,187.303823)"/>
</g>
<g clip-path="url(#clip2)" clip-rule="nonzero">
<path style=" stroke:none;fill-rule:nonzero;fill:rgb(77.644348%,69.992065%,74.397278%);fill-opacity:1;" d="M 132.574219 0.398438 L 190.417969 103.613281 L 0.441406 128.742188 "/>
</g>
<path style="fill:none;stroke-width:8.04;stroke-linecap:round;stroke-linejoin:round;stroke:rgb(13.729858%,12.159729%,12.548828%);stroke-opacity:1;stroke-miterlimit:10;" d="M 1331.322474 1877.497625 L 1912.373165 840.686279 " transform="matrix(0.0995503,0,0,-0.0995503,0.0407143,187.303823)"/>
<path style=" stroke:none;fill-rule:nonzero;fill:rgb(36.538696%,63.641357%,85.35614%);fill-opacity:1;" d="M 143.0625 27.597656 L 213.785156 8.242188 L 132.574219 0.398438 "/>
<g clip-path="url(#clip3)" clip-rule="nonzero">
<path style="fill:none;stroke-width:8.04;stroke-linecap:round;stroke-linejoin:round;stroke:rgb(13.729858%,12.159729%,12.548828%);stroke-opacity:1;stroke-miterlimit:10;" d="M 1436.679112 1604.276666 L 2147.100693 1798.70577 L 1331.322474 1877.497625 " transform="matrix(0.0995503,0,0,-0.0995503,0.0407143,187.303823)"/>
</g>
<g clip-path="url(#clip4)" clip-rule="nonzero">
<path style=" stroke:none;fill-rule:nonzero;fill:rgb(77.644348%,69.992065%,74.397278%);fill-opacity:1;" d="M 0.441406 128.742188 L 17.621094 11.449219 L 132.574219 0.398438 "/>
</g>
<g clip-path="url(#clip5)" clip-rule="nonzero">
<path style="fill:none;stroke-width:8.04;stroke-linecap:round;stroke-linejoin:round;stroke:rgb(13.729858%,12.159729%,12.548828%);stroke-opacity:1;stroke-miterlimit:10;" d="M 4.025022 588.261975 L 176.598019 1766.490574 L 1331.322474 1877.497625 " transform="matrix(0.0995503,0,0,-0.0995503,0.0407143,187.303823)"/>
</g>
<g clip-path="url(#clip6)" clip-rule="nonzero">
<path style=" stroke:none;fill-rule:nonzero;fill:rgb(85.081482%,65.786743%,19.932556%);fill-opacity:1;" d="M 8.417969 29.066406 L 17.621094 11.449219 L 0.441406 128.742188 L 8.417969 29.066406 "/>
</g>
<g clip-path="url(#clip7)" clip-rule="nonzero">
<path style="fill:none;stroke-width:8.04;stroke-linecap:round;stroke-linejoin:round;stroke:rgb(13.729858%,12.159729%,12.548828%);stroke-opacity:1;stroke-miterlimit:10;" d="M 84.151002 1589.522813 L 176.598019 1766.490574 L 4.025022 588.261975 Z M 84.151002 1589.522813 " transform="matrix(0.0995503,0,0,-0.0995503,0.0407143,187.303823)"/>
</g>
<path style=" stroke:none;fill-rule:nonzero;fill:rgb(36.538696%,63.641357%,85.35614%);fill-opacity:1;" d="M 8.417969 29.066406 L 143.0625 27.597656 L 132.574219 0.398438 "/>
<path style="fill:none;stroke-width:8.04;stroke-linecap:round;stroke-linejoin:round;stroke:rgb(13.729858%,12.159729%,12.548828%);stroke-opacity:1;stroke-miterlimit:10;" d="M 84.151002 1589.522813 L 1436.679112 1604.276666 " transform="matrix(0.0995503,0,0,-0.0995503,0.0407143,187.303823)"/>
<path style="fill-rule:nonzero;fill:rgb(36.538696%,63.641357%,85.35614%);fill-opacity:1;stroke-width:8.04;stroke-linecap:round;stroke-linejoin:round;stroke:rgb(13.729858%,12.159729%,12.548828%);stroke-opacity:1;stroke-miterlimit:10;" d="M 1331.322474 1877.497625 L 176.598019 1766.490574 L 84.151002 1589.522813 " transform="matrix(0.0995503,0,0,-0.0995503,0.0407143,187.303823)"/>
<g clip-path="url(#clip8)" clip-rule="nonzero">
<path style=" stroke:none;fill-rule:nonzero;fill:rgb(77.644348%,69.992065%,74.397278%);fill-opacity:1;" d="M 190.417969 103.613281 L 112.675781 186.902344 L 0.441406 128.742188 "/>
</g>
<g clip-path="url(#clip9)" clip-rule="nonzero">
<path style="fill:none;stroke-width:8.04;stroke-linecap:round;stroke-linejoin:round;stroke:rgb(13.729858%,12.159729%,12.548828%);stroke-opacity:1;stroke-miterlimit:10;" d="M 1912.373165 840.686279 L 1131.439153 4.032928 L 4.025022 588.261975 " transform="matrix(0.0995503,0,0,-0.0995503,0.0407143,187.303823)"/>
</g>
<path style=" stroke:none;fill-rule:nonzero;fill:rgb(89.404297%,62.539673%,43.952942%);fill-opacity:1;" d="M 190.417969 103.613281 L 213.785156 8.242188 L 74.339844 151.398438 "/>
<g clip-path="url(#clip10)" clip-rule="nonzero">
<path style="fill:none;stroke-width:8.04;stroke-linecap:round;stroke-linejoin:round;stroke:rgb(13.729858%,12.159729%,12.548828%);stroke-opacity:1;stroke-miterlimit:10;" d="M 1912.373165 840.686279 L 2147.100693 1798.70577 " transform="matrix(0.0995503,0,0,-0.0995503,0.0407143,187.303823)"/>
</g>
<path style=" stroke:none;fill-rule:nonzero;fill:rgb(89.404297%,62.539673%,43.952942%);fill-opacity:1;" d="M 74.339844 151.398438 L 112.675781 186.902344 L 190.417969 103.613281 "/>
<g clip-path="url(#clip11)" clip-rule="nonzero">
<path style="fill:none;stroke-width:8.04;stroke-linecap:round;stroke-linejoin:round;stroke:rgb(13.729858%,12.159729%,12.548828%);stroke-opacity:1;stroke-miterlimit:10;" d="M 746.347886 360.67594 L 1131.439153 4.032928 L 1912.373165 840.686279 " transform="matrix(0.0995503,0,0,-0.0995503,0.0407143,187.303823)"/>
</g>
<g clip-path="url(#clip12)" clip-rule="nonzero">
<path style=" stroke:none;fill-rule:nonzero;fill:rgb(17.82074%,15.563965%,15.367126%);fill-opacity:1;" d="M 0.441406 128.742188 L 112.675781 186.902344 L 74.339844 151.398438 L 0.441406 128.742188 "/>
</g>
<g clip-path="url(#clip13)" clip-rule="nonzero">
<path style="fill:none;stroke-width:8.04;stroke-linecap:round;stroke-linejoin:round;stroke:rgb(13.729858%,12.159729%,12.548828%);stroke-opacity:1;stroke-miterlimit:10;" d="M 4.025022 588.261975 L 1131.439153 4.032928 L 746.347886 360.67594 Z M 4.025022 588.261975 " transform="matrix(0.0995503,0,0,-0.0995503,0.0407143,187.303823)"/>
</g>
<g clip-path="url(#clip14)" clip-rule="nonzero">
<path style=" stroke:none;fill-rule:nonzero;fill:rgb(51.292419%,39.941406%,50.473022%);fill-opacity:1;" d="M 74.339844 151.398438 L 8.417969 29.066406 L 0.441406 128.742188 L 74.339844 151.398438 "/>
</g>
<g clip-path="url(#clip15)" clip-rule="nonzero">
<path style="fill:none;stroke-width:8.04;stroke-linecap:round;stroke-linejoin:round;stroke:rgb(13.729858%,12.159729%,12.548828%);stroke-opacity:1;stroke-miterlimit:10;" d="M 746.347886 360.67594 L 84.151002 1589.522813 L 4.025022 588.261975 Z M 746.347886 360.67594 " transform="matrix(0.0995503,0,0,-0.0995503,0.0407143,187.303823)"/>
</g>
<path style=" stroke:none;fill-rule:nonzero;fill:rgb(89.404297%,62.539673%,43.952942%);fill-opacity:1;" d="M 213.785156 8.242188 L 143.0625 27.597656 L 74.339844 151.398438 "/>
<g clip-path="url(#clip16)" clip-rule="nonzero">
<path style="fill:none;stroke-width:8.04;stroke-linecap:round;stroke-linejoin:round;stroke:rgb(13.729858%,12.159729%,12.548828%);stroke-opacity:1;stroke-miterlimit:10;" d="M 2147.100693 1798.70577 L 1436.679112 1604.276666 L 746.347886 360.67594 " transform="matrix(0.0995503,0,0,-0.0995503,0.0407143,187.303823)"/>
</g>
<path style=" stroke:none;fill-rule:nonzero;fill:rgb(69.773865%,60.179138%,67.732239%);fill-opacity:1;" d="M 74.339844 151.398438 L 143.0625 27.597656 L 8.417969 29.066406 L 74.339844 151.398438 "/>
<path style="fill:none;stroke-width:8.04;stroke-linecap:round;stroke-linejoin:round;stroke:rgb(13.729858%,12.159729%,12.548828%);stroke-opacity:1;stroke-miterlimit:10;" d="M 746.347886 360.67594 L 1436.679112 1604.276666 L 84.151002 1589.522813 Z M 746.347886 360.67594 " transform="matrix(0.0995503,0,0,-0.0995503,0.0407143,187.303823)"/>
</g>
</svg>
