<svg xmlns="http://www.w3.org/2000/svg" width="184pt" height="200pt" viewBox="0 0 184 200" version="1.2"><path style="fill-rule:nonzero;fill:#dec8c2;fill-opacity:1;stroke-width:6.5;stroke-linecap:round;stroke-linejoin:round;stroke:#000;stroke-opacity:1;stroke-miterlimit:10" d="m380.43 1284.61 464.023-695.274-258.086-476.602" transform="matrix(.1 0 0 -.1 0 200)"/><path style="fill-rule:nonzero;fill:#99ade4;fill-opacity:1;stroke-width:6.5;stroke-linecap:round;stroke-linejoin:round;stroke:#000;stroke-opacity:1;stroke-miterlimit:10" d="m844.453 589.336 821.485 67.578-207.383-486.484" transform="matrix(.1 0 0 -.1 0 200)"/><path style="fill-rule:nonzero;fill:#99ade4;fill-opacity:1;stroke-width:6.5;stroke-linecap:round;stroke-linejoin:round;stroke:#000;stroke-opacity:1;stroke-miterlimit:10" d="m1458.555 170.43-872.188-57.696 258.086 476.602" transform="matrix(.1 0 0 -.1 0 200)"/><path style="fill-rule:nonzero;fill:#a879a0;fill-opacity:1;stroke-width:6.5;stroke-linecap:round;stroke-linejoin:round;stroke:#000;stroke-opacity:1;stroke-miterlimit:10" d="m1665.938 656.914-821.485-67.578-464.023 695.273" transform="matrix(.1 0 0 -.1 0 200)"/><path style="fill-rule:nonzero;fill:#dec8c2;fill-opacity:1;stroke-width:6.5;stroke-linecap:round;stroke-linejoin:round;stroke:#000;stroke-opacity:1;stroke-miterlimit:10" d="M586.367 112.734 83.007 845.312 380.43 1284.61" transform="matrix(.1 0 0 -.1 0 200)"/><path style="stroke:none;fill-rule:nonzero;fill:#a879a0;fill-opacity:1" d="m174.45 56.762-7.856 77.547-128.551-62.77"/><path style="fill:none;stroke-width:6.5;stroke-linecap:round;stroke-linejoin:round;stroke:#000;stroke-opacity:1;stroke-miterlimit:10" d="m1744.492 1432.383-78.554-775.469" transform="matrix(.1 0 0 -.1 0 200)"/><path style="fill-rule:nonzero;fill:#a879a0;fill-opacity:1;stroke-width:6.5;stroke-linecap:round;stroke-linejoin:round;stroke:#000;stroke-opacity:1;stroke-miterlimit:10" d="m380.43 1284.61 533.476 550.663 830.586-402.89" transform="matrix(.1 0 0 -.1 0 200)"/><path style="fill-rule:nonzero;fill:#002fb5;fill-opacity:1;stroke-width:6.5;stroke-linecap:round;stroke-linejoin:round;stroke:#000;stroke-opacity:1;stroke-miterlimit:10" d="M913.906 1835.273 380.43 1284.61 83.008 845.313" transform="matrix(.1 0 0 -.1 0 200)"/><path style="fill-rule:nonzero;fill:#fbb753;fill-opacity:1;stroke-width:6.5;stroke-linecap:round;stroke-linejoin:round;stroke:#000;stroke-opacity:1;stroke-miterlimit:10" d="m1665.938 656.914 78.554 775.469L1533.36 981.25M1533.36 981.25l-74.805-810.82 207.382 486.484" transform="matrix(.1 0 0 -.1 0 200)"/><path style="fill-rule:nonzero;fill:#a6779d;fill-opacity:1;stroke-width:6.5;stroke-linecap:round;stroke-linejoin:round;stroke:#000;stroke-opacity:1;stroke-miterlimit:10" d="M641.758 1415.625 83.008 845.312l503.36-732.578" transform="matrix(.1 0 0 -.1 0 200)"/><path style="stroke:none;fill-rule:nonzero;fill:#a6779d;fill-opacity:1" d="m153.336 101.875-89.16-43.438-5.54 130.29"/><path style="fill:none;stroke-width:6.5;stroke-linecap:round;stroke-linejoin:round;stroke:#000;stroke-opacity:1;stroke-miterlimit:10" d="m1533.36 981.25-891.602 434.375" transform="matrix(.1 0 0 -.1 0 200)"/><path style="fill-rule:nonzero;fill:#a6779d;fill-opacity:1;stroke-width:6.5;stroke-linecap:round;stroke-linejoin:round;stroke:#000;stroke-opacity:1;stroke-miterlimit:10" d="m586.367 112.734 872.188 57.696 74.804 810.82" transform="matrix(.1 0 0 -.1 0 200)"/><path style="stroke:none;fill-rule:nonzero;fill:#853966;fill-opacity:1" d="m91.39 16.473 54.954-13.325 28.105 53.614"/><path style="fill:none;stroke-width:6.5;stroke-linecap:round;stroke-linejoin:round;stroke:#000;stroke-opacity:1;stroke-miterlimit:10" d="m913.906 1835.273 549.532 133.243 281.054-536.133Zm0 0" transform="matrix(.1 0 0 -.1 0 200)"/><path style="stroke:none;fill-rule:nonzero;fill:#4d8ceb;fill-opacity:1" d="m64.176 58.438 82.168-55.29L91.39 16.473"/><path style="fill:none;stroke-width:6.5;stroke-linecap:round;stroke-linejoin:round;stroke:#000;stroke-opacity:1;stroke-miterlimit:10" d="m641.758 1415.625 821.68 552.89-549.532-133.242Zm0 0" transform="matrix(.1 0 0 -.1 0 200)"/><path style="fill-rule:nonzero;fill:#002fb5;fill-opacity:1;stroke-width:6.5;stroke-linecap:round;stroke-linejoin:round;stroke:#000;stroke-opacity:1;stroke-miterlimit:10" d="m83.008 845.313 558.75 570.312 272.148 419.648" transform="matrix(.1 0 0 -.1 0 200)"/><path style="stroke:none;fill-rule:nonzero;fill:#f9d2a0;fill-opacity:1" d="m153.336 101.875 21.113-45.113-28.105-53.614"/><path style="fill:none;stroke-width:6.5;stroke-linecap:round;stroke-linejoin:round;stroke:#000;stroke-opacity:1;stroke-miterlimit:10" d="m1533.36 981.25 211.132 451.133-281.054 536.133Zm0 0" transform="matrix(.1 0 0 -.1 0 200)"/><path style="stroke:none;fill-rule:nonzero;fill:#b393b6;fill-opacity:1" d="m153.336 101.875-6.992-98.727-82.168 55.29"/><path style="fill:none;stroke-width:6.5;stroke-linecap:round;stroke-linejoin:round;stroke:#000;stroke-opacity:1;stroke-miterlimit:10" d="m1533.36 981.25-69.922 987.266-821.68-552.891Zm0 0" transform="matrix(.1 0 0 -.1 0 200)"/></svg>