<svg xmlns="http://www.w3.org/2000/svg" width="214.573" height="190pt" viewBox="0 0 160.93 190" version="1.2"><defs><clipPath id="a"><path d="M0 87h76v102.957H0Zm0 0"/></clipPath><clipPath id="b"><path d="M0 153h61v36.957H0Zm0 0"/></clipPath><clipPath id="c"><path d="M60 87h70v102.957H60Zm0 0"/></clipPath><clipPath id="d"><path d="M60 169h70v20.957H60Zm0 0"/></clipPath><clipPath id="e"><path d="M99 .043h61.86V51H99Zm0 0"/></clipPath><clipPath id="f"><path d="M99 .043h61.86V52H99Zm0 0"/></clipPath><clipPath id="g"><path d="M39 .043h95V51H39Zm0 0"/></clipPath><clipPath id="h"><path d="M38 .043h96V52H38Zm0 0"/></clipPath><clipPath id="i"><path d="M132 50h28.86v69H132Zm0 0"/></clipPath><clipPath id="j"><path d="M133 29h27.86v74H133Zm0 0"/></clipPath><clipPath id="k"><path d="M129 102h31.86v68H129Zm0 0"/></clipPath><clipPath id="l"><path d="M128 101h32.86v69H128Zm0 0"/></clipPath><clipPath id="m"><path d="M39 .043h61V40H39Zm0 0"/></clipPath><clipPath id="n"><path d="M38 .043h62V40H38Zm0 0"/></clipPath><clipPath id="o"><path d="M99 .043h61.86V49H99Zm0 0"/></clipPath><clipPath id="p"><path d="M99 .043h61.86V50H99Zm0 0"/></clipPath><clipPath id="q"><path d="M59 .043h65V49H59Zm0 0"/></clipPath><clipPath id="r"><path d="M59 .043h66V50H59Zm0 0"/></clipPath><clipPath id="s"><path d="M123 29h37.86v74H123Zm0 0"/></clipPath><clipPath id="t"><path d="M0 139h61v50.957H0Zm0 0"/></clipPath><clipPath id="u"><path d="M50 66h110.86v104H50Zm0 0"/></clipPath><clipPath id="v"><path d="M128 101h32.86v69H128Zm0 0"/></clipPath><clipPath id="w"><path d="M50 66h80v123.957H50Zm0 0"/></clipPath><clipPath id="x"><path d="M60 169h70v20.957H60Zm0 0"/></clipPath><clipPath id="y"><path d="M50 48h110.86v55H50Zm0 0"/></clipPath><clipPath id="z"><path d="M49 48h111.86v55H49Zm0 0"/></clipPath><clipPath id="A"><path d="M18 66h43v123.957H18Zm0 0"/></clipPath><clipPath id="B"><path d="M17 65h44v124.957H17Zm0 0"/></clipPath></defs><path style="fill-rule:nonzero;fill:#bc8eab;fill-opacity:1;stroke-width:6.04001;stroke-linecap:round;stroke-linejoin:round;stroke:#231f20;stroke-opacity:1;stroke-miterlimit:10" d="m1336.206 1393.083-579.353-365.745-364.3 482.671" transform="matrix(.09996 0 0 -.09996 0 189.959)"/><path style="stroke:none;fill-rule:nonzero;fill:#c599b1;fill-opacity:1" d="m11.727 103.05 27.511-64.027L75.652 87.27l-63.925 15.78"/><path style="fill:none;stroke-width:6.04001;stroke-linecap:round;stroke-linejoin:round;stroke:#231f20;stroke-opacity:1;stroke-miterlimit:10" d="m117.317 869.457 275.236 640.552 364.3-482.67Zm0 0" transform="matrix(.09996 0 0 -.09996 0 189.959)"/><path style="fill-rule:nonzero;fill:#b5b7de;fill-opacity:1;stroke-width:6.04001;stroke-linecap:round;stroke-linejoin:round;stroke:#231f20;stroke-opacity:1;stroke-miterlimit:10" d="m3.01 364.277 114.307 505.18 639.536 157.881" transform="matrix(.09996 0 0 -.09996 0 189.959)"/><g clip-path="url(#a)"><path style="stroke:none;fill-rule:nonzero;fill:#b5b7de;fill-opacity:1" d="M60.547 189.656.3 153.546 75.652 87.27"/></g><g clip-path="url(#b)"><path style="fill:none;stroke-width:6.04001;stroke-linecap:round;stroke-linejoin:round;stroke:#231f20;stroke-opacity:1;stroke-miterlimit:10" d="M605.732 3.026 3.01 364.276" transform="matrix(.09996 0 0 -.09996 0 189.959)"/></g><g clip-path="url(#c)"><path style="stroke:none;fill-rule:nonzero;fill:#b5b7de;fill-opacity:1" d="m129.227 169.633-68.68 20.023L75.652 87.27"/></g><g clip-path="url(#d)"><path style="fill:none;stroke-width:6.04001;stroke-linecap:round;stroke-linejoin:round;stroke:#231f20;stroke-opacity:1;stroke-miterlimit:10" d="M1292.828 203.347 605.732 3.026" transform="matrix(.09996 0 0 -.09996 0 189.959)"/></g><path style="fill-rule:nonzero;fill:#b5b7de;fill-opacity:1;stroke-width:6.04001;stroke-linecap:round;stroke-linejoin:round;stroke:#231f20;stroke-opacity:1;stroke-miterlimit:10" d="m756.853 1027.338 572.162-307.868-36.187-516.123" transform="matrix(.09996 0 0 -.09996 0 189.959)"/><path style="stroke:none;fill-rule:nonzero;fill:#ab99cb;fill-opacity:1" d="m133.563 50.71-.72 67.333-57.19-30.773 57.91-36.56"/><path style="fill:none;stroke-width:6.04001;stroke-linecap:round;stroke-linejoin:round;stroke:#231f20;stroke-opacity:1;stroke-miterlimit:10" d="m1336.206 1393.083-7.19-673.613-572.163 307.868Zm0 0" transform="matrix(.09996 0 0 -.09996 0 189.959)"/><g clip-path="url(#e)"><path style="stroke:none;fill-rule:nonzero;fill:#864e87;fill-opacity:1" d="m99.34.34 61.219 29.617-26.996 20.754L99.34.34"/></g><g clip-path="url(#f)"><path style="fill:none;stroke-width:6.04001;stroke-linecap:round;stroke-linejoin:round;stroke:#231f20;stroke-opacity:1;stroke-miterlimit:10" d="m993.83 1897.013 612.454-296.3-270.078-207.63Zm0 0" transform="matrix(.09996 0 0 -.09996 0 189.959)"/></g><g clip-path="url(#g)"><path style="stroke:none;fill-rule:nonzero;fill:#bc8eab;fill-opacity:1" d="M39.238 39.023 99.34.34l34.222 50.37"/></g><g clip-path="url(#h)"><path style="fill:none;stroke-width:6.04001;stroke-linecap:round;stroke-linejoin:round;stroke:#231f20;stroke-opacity:1;stroke-miterlimit:10" d="m392.553 1510.01 601.278 387.003 342.375-503.93" transform="matrix(.09996 0 0 -.09996 0 189.959)"/></g><g clip-path="url(#i)"><path style="fill-rule:nonzero;fill:#555db4;fill-opacity:1;stroke-width:6.04001;stroke-linecap:round;stroke-linejoin:round;stroke:#231f20;stroke-opacity:1;stroke-miterlimit:10" d="m1604.8 877.351-275.785-157.88 7.191 673.612" transform="matrix(.09996 0 0 -.09996 0 189.959)"/></g><g clip-path="url(#j)"><path style="fill-rule:nonzero;fill:#555db4;fill-opacity:1;stroke-width:6.04001;stroke-linecap:round;stroke-linejoin:round;stroke:#231f20;stroke-opacity:1;stroke-miterlimit:10" d="m1336.206 1393.083 270.078 207.63-1.485-723.362" transform="matrix(.09996 0 0 -.09996 0 189.959)"/></g><path style="fill-rule:nonzero;fill:#313f9d;fill-opacity:1;stroke-width:6.04001;stroke-linecap:round;stroke-linejoin:round;stroke:#231f20;stroke-opacity:1;stroke-miterlimit:10" d="M392.553 1510.01 117.317 869.456 3.009 364.277" transform="matrix(.09996 0 0 -.09996 0 189.959)"/><g clip-path="url(#k)"><path style="stroke:none;fill-rule:nonzero;fill:#3d65b9;fill-opacity:1" d="m160.41 102.262-31.183 67.37 3.617-51.589 27.566-15.781"/></g><g clip-path="url(#l)"><path style="fill:none;stroke-width:6.04001;stroke-linecap:round;stroke-linejoin:round;stroke:#231f20;stroke-opacity:1;stroke-miterlimit:10" d="m1604.8 877.351-311.972-674.004 36.187 516.123Zm0 0" transform="matrix(.09996 0 0 -.09996 0 189.959)"/></g><g clip-path="url(#m)"><path style="stroke:none;fill-rule:nonzero;fill:#b0372a;fill-opacity:1" d="M99.34.34 39.238 39.023l20.246-22.468L99.34.34"/></g><g clip-path="url(#n)"><path style="fill:none;stroke-width:6.04001;stroke-linecap:round;stroke-linejoin:round;stroke:#231f20;stroke-opacity:1;stroke-miterlimit:10" d="M993.83 1897.013 392.554 1510.01l202.55 224.785Zm0 0" transform="matrix(.09996 0 0 -.09996 0 189.959)"/></g><path style="fill-rule:nonzero;fill:#313f9d;fill-opacity:1;stroke-width:6.04001;stroke-linecap:round;stroke-linejoin:round;stroke:#231f20;stroke-opacity:1;stroke-miterlimit:10" d="m502.875 1238.524 92.227 496.27-202.549-224.785" transform="matrix(.09996 0 0 -.09996 0 189.959)"/><path style="stroke:none;fill-rule:nonzero;fill:#313f9d;fill-opacity:1" d="M18.27 139.773 50.266 66.16 39.238 39.023"/><path style="fill:none;stroke-width:6.04001;stroke-linecap:round;stroke-linejoin:round;stroke:#231f20;stroke-opacity:1;stroke-miterlimit:10" d="m182.775 502.07 320.1 736.454" transform="matrix(.09996 0 0 -.09996 0 189.959)"/><path style="stroke:none;fill-rule:nonzero;fill:#313f9d;fill-opacity:1" d="m.3 153.547 17.97-13.774 20.968-100.75"/><path style="fill:none;stroke-width:6.04001;stroke-linecap:round;stroke-linejoin:round;stroke:#231f20;stroke-opacity:1;stroke-miterlimit:10" d="M3.01 364.277 182.774 502.07" transform="matrix(.09996 0 0 -.09996 0 189.959)"/><g clip-path="url(#o)"><path style="stroke:none;fill-rule:nonzero;fill:#b8d5ed;fill-opacity:1" d="m123.773 48.93 36.786-18.973L99.339.34"/></g><g clip-path="url(#p)"><path style="fill:none;stroke-width:6.04001;stroke-linecap:round;stroke-linejoin:round;stroke:#231f20;stroke-opacity:1;stroke-miterlimit:10" d="m1238.273 1410.904 368.011 189.809-612.453 296.3" transform="matrix(.09996 0 0 -.09996 0 189.959)"/></g><g clip-path="url(#q)"><path style="stroke:none;fill-rule:nonzero;fill:#b8d5ed;fill-opacity:1" d="M99.34.34 59.484 16.555l64.29 32.375"/></g><g clip-path="url(#r)"><path style="fill:none;stroke-width:6.04001;stroke-linecap:round;stroke-linejoin:round;stroke:#231f20;stroke-opacity:1;stroke-miterlimit:10" d="m993.83 1897.013-398.728-162.219 643.17-323.89" transform="matrix(.09996 0 0 -.09996 0 189.959)"/></g><g clip-path="url(#s)"><path style="stroke:none;fill-rule:nonzero;fill:#e1c4bc;fill-opacity:1" d="m123.773 48.93 36.637 53.332.149-72.305-36.786 18.973"/><path style="fill:none;stroke-width:6.04001;stroke-linecap:round;stroke-linejoin:round;stroke:#231f20;stroke-opacity:1;stroke-miterlimit:10" d="m1238.273 1410.904 366.526-533.553 1.485 723.362Zm0 0" transform="matrix(.09996 0 0 -.09996 0 189.959)"/></g><g clip-path="url(#t)"><path style="stroke:none;fill-rule:nonzero;fill:#621e57;fill-opacity:1" d="M60.547 189.656 18.27 139.773.3 153.547l60.247 36.11"/><path style="fill:none;stroke-width:6.04001;stroke-linecap:round;stroke-linejoin:round;stroke:#231f20;stroke-opacity:1;stroke-miterlimit:10" d="M605.732 3.026 182.775 502.07 3.009 364.277Zm0 0" transform="matrix(.09996 0 0 -.09996 0 189.959)"/></g><g clip-path="url(#u)"><path style="stroke:none;fill-rule:nonzero;fill:#c699ad;fill-opacity:1" d="m129.227 169.633 31.183-67.371L50.266 66.16"/></g><g clip-path="url(#v)"><path style="fill:none;stroke-width:6.04001;stroke-linecap:round;stroke-linejoin:round;stroke:#231f20;stroke-opacity:1;stroke-miterlimit:10" d="m1292.828 203.347 311.971 674.004" transform="matrix(.09996 0 0 -.09996 0 189.959)"/></g><g clip-path="url(#w)"><path style="stroke:none;fill-rule:nonzero;fill:#c699ad;fill-opacity:1" d="m60.547 189.656 68.68-20.023L50.266 66.16"/></g><g clip-path="url(#x)"><path style="fill:none;stroke-width:6.04001;stroke-linecap:round;stroke-linejoin:round;stroke:#231f20;stroke-opacity:1;stroke-miterlimit:10" d="m605.732 3.026 687.096 200.321" transform="matrix(.09996 0 0 -.09996 0 189.959)"/></g><g clip-path="url(#y)"><path style="stroke:none;fill-rule:nonzero;fill:#c699ad;fill-opacity:1" d="M160.41 102.262 123.773 48.93 50.266 66.16"/></g><g clip-path="url(#z)"><path style="fill:none;stroke-width:6.04001;stroke-linecap:round;stroke-linejoin:round;stroke:#231f20;stroke-opacity:1;stroke-miterlimit:10" d="m1604.8 877.351-366.527 533.553-735.398-172.38" transform="matrix(.09996 0 0 -.09996 0 189.959)"/></g><path style="stroke:none;fill-rule:nonzero;fill:#b4bde3;fill-opacity:1" d="M59.484 16.555 50.266 66.16l73.507-17.23-64.289-32.375"/><path style="fill:none;stroke-width:6.04001;stroke-linecap:round;stroke-linejoin:round;stroke:#231f20;stroke-opacity:1;stroke-miterlimit:10" d="m595.102 1734.794-92.227-496.27 735.398 172.38Zm0 0" transform="matrix(.09996 0 0 -.09996 0 189.959)"/><g clip-path="url(#A)"><path style="stroke:none;fill-rule:nonzero;fill:#c699ad;fill-opacity:1" d="M50.266 66.16 18.27 139.773l42.277 49.883"/></g><g clip-path="url(#B)"><path style="fill:none;stroke-width:6.04001;stroke-linecap:round;stroke-linejoin:round;stroke:#231f20;stroke-opacity:1;stroke-miterlimit:10" d="m502.875 1238.524-320.1-736.453L605.732 3.026" transform="matrix(.09996 0 0 -.09996 0 189.959)"/></g></svg>