<svg xmlns="http://www.w3.org/2000/svg" width="264" height="200pt" viewBox="0 0 198 200" version="1.2"><path style="stroke:none;fill-rule:nonzero;fill:#af86aa;fill-opacity:1" d="M87.504 122.766 67.355 102.87 129.11 42.47"/><path style="fill:none;stroke-width:7.32;stroke-linecap:round;stroke-linejoin:round;stroke:#000;stroke-opacity:1;stroke-miterlimit:10" d="M875.04 772.344 673.554 971.289" transform="matrix(.1 0 0 -.1 0 200)"/><path style="stroke:none;fill-rule:nonzero;fill:#af86aa;fill-opacity:1" d="m115.371 127.75-27.867-4.984 41.605-80.297"/><path style="fill:none;stroke-width:7.32;stroke-linecap:round;stroke-linejoin:round;stroke:#000;stroke-opacity:1;stroke-miterlimit:10" d="m1153.71 722.5-278.67 49.844" transform="matrix(.1 0 0 -.1 0 200)"/><path style="stroke:none;fill-rule:nonzero;fill:#c2a6bd;fill-opacity:1" d="m67.355 102.871 20.149 19.895-25.934 7.07"/><path style="fill:none;stroke-width:7.32;stroke-linecap:round;stroke-linejoin:round;stroke:#000;stroke-opacity:1;stroke-miterlimit:10" d="m673.555 971.29 201.484-198.946-259.336-70.703Zm0 0" transform="matrix(.1 0 0 -.1 0 200)"/><path style="stroke:none;fill-rule:nonzero;fill:#b3b6da;fill-opacity:1" d="m87.504 122.766 27.867 4.984-15.25 63.383"/><path style="fill:none;stroke-width:7.32;stroke-linecap:round;stroke-linejoin:round;stroke:#000;stroke-opacity:1;stroke-miterlimit:10" d="m875.04 772.344 278.67-49.844" transform="matrix(.1 0 0 -.1 0 200)"/><path style="stroke:none;fill-rule:nonzero;fill:#b3b6da;fill-opacity:1" d="m61.57 129.836 25.934-7.07 12.617 68.367"/><path style="fill:none;stroke-width:7.32;stroke-linecap:round;stroke-linejoin:round;stroke:#000;stroke-opacity:1;stroke-miterlimit:10" d="m615.703 701.64 259.336 70.704" transform="matrix(.1 0 0 -.1 0 200)"/><path style="stroke:none;fill-rule:nonzero;fill:#a291c3;fill-opacity:1" d="m140.73 115.867-5.05 27.309-20.309-15.426"/><path style="fill:none;stroke-width:7.32;stroke-linecap:round;stroke-linejoin:round;stroke:#000;stroke-opacity:1;stroke-miterlimit:10" d="m1407.305 841.328-50.508-273.086L1153.71 722.5Zm0 0" transform="matrix(.1 0 0 -.1 0 200)"/><path style="stroke:none;fill-rule:nonzero;fill:#af86aa;fill-opacity:1" d="m140.73 115.867-25.359 11.883 13.738-85.281"/><path style="fill:none;stroke-width:7.32;stroke-linecap:round;stroke-linejoin:round;stroke:#000;stroke-opacity:1;stroke-miterlimit:10" d="M1407.305 841.328 1153.71 722.5" transform="matrix(.1 0 0 -.1 0 200)"/><path style="stroke:none;fill-rule:nonzero;fill:#b3b6da;fill-opacity:1" d="m115.371 127.75 20.309 15.426-35.559 47.957"/><path style="fill:none;stroke-width:7.32;stroke-linecap:round;stroke-linejoin:round;stroke:#000;stroke-opacity:1;stroke-miterlimit:10" d="m1153.71 722.5 203.087-154.258" transform="matrix(.1 0 0 -.1 0 200)"/><path style="stroke:none;fill-rule:nonzero;fill:#af86aa;fill-opacity:1" d="m67.355 102.871-4.918-27.57 66.672-32.832"/><path style="fill:none;stroke-width:7.32;stroke-linecap:round;stroke-linejoin:round;stroke:#000;stroke-opacity:1;stroke-miterlimit:10" d="m673.555 971.29-49.18 275.702" transform="matrix(.1 0 0 -.1 0 200)"/><path style="stroke:none;fill-rule:nonzero;fill:#e2b9ad;fill-opacity:1" d="m67.355 102.871-5.785 26.965-32.16-75.95"/><path style="fill:none;stroke-width:7.32;stroke-linecap:round;stroke-linejoin:round;stroke:#000;stroke-opacity:1;stroke-miterlimit:10" d="m673.555 971.29-57.852-269.65" transform="matrix(.1 0 0 -.1 0 200)"/><path style="stroke:none;fill-rule:nonzero;fill:#e2b9ad;fill-opacity:1" d="m62.438 75.3 4.917 27.571L29.41 53.887"/><path style="fill:none;stroke-width:7.32;stroke-linecap:round;stroke-linejoin:round;stroke:#000;stroke-opacity:1;stroke-miterlimit:10" d="m624.375 1246.992 49.18-275.703" transform="matrix(.1 0 0 -.1 0 200)"/><path style="stroke:none;fill-rule:nonzero;fill:#6365be;fill-opacity:1" d="m140.73 115.867 13.23-24.61 39.2 10.063"/><path style="fill:none;stroke-width:7.32;stroke-linecap:round;stroke-linejoin:round;stroke:#000;stroke-opacity:1;stroke-miterlimit:10" d="m1407.305 841.328 132.304 246.094" transform="matrix(.1 0 0 -.1 0 200)"/><path style="stroke:none;fill-rule:nonzero;fill:#6365be;fill-opacity:1" d="m135.68 143.176 5.05-27.309 52.43-14.547"/><path style="fill:none;stroke-width:7.32;stroke-linecap:round;stroke-linejoin:round;stroke:#000;stroke-opacity:1;stroke-miterlimit:10" d="m1356.797 568.242 50.508 273.086" transform="matrix(.1 0 0 -.1 0 200)"/><path style="stroke:none;fill-rule:nonzero;fill:#af86aa;fill-opacity:1" d="m153.96 91.258-13.23 24.61-11.62-73.4"/><path style="fill:none;stroke-width:7.32;stroke-linecap:round;stroke-linejoin:round;stroke:#000;stroke-opacity:1;stroke-miterlimit:10" d="m1539.61 1087.422-132.305-246.094" transform="matrix(.1 0 0 -.1 0 200)"/><path style="stroke:none;fill-rule:nonzero;fill:#c8909a;fill-opacity:1" d="m48.266 56.508 26.644-6.211L62.438 75.3"/><path style="fill:none;stroke-width:7.32;stroke-linecap:round;stroke-linejoin:round;stroke:#000;stroke-opacity:1;stroke-miterlimit:10" d="m482.656 1434.922 266.446 62.11-124.727-250.04Zm0 0" transform="matrix(.1 0 0 -.1 0 200)"/><path style="stroke:none;fill-rule:nonzero;fill:#af86aa;fill-opacity:1" d="M62.438 75.3 74.91 50.298l54.2-7.828"/><path style="fill:none;stroke-width:7.32;stroke-linecap:round;stroke-linejoin:round;stroke:#000;stroke-opacity:1;stroke-miterlimit:10" d="m624.375 1246.992 124.727 250.04" transform="matrix(.1 0 0 -.1 0 200)"/><path style="fill-rule:nonzero;fill:#e2b9ad;fill-opacity:1;stroke-width:7.32;stroke-linecap:round;stroke-linejoin:round;stroke:#000;stroke-opacity:1;stroke-miterlimit:10" d="m294.102 1461.133 188.554-26.211 141.719-187.93" transform="matrix(.1 0 0 -.1 0 200)"/><path style="stroke:none;fill-rule:nonzero;fill:#e2b9ad;fill-opacity:1" d="M61.57 129.836 46.766 146.91 29.41 53.887"/><path style="fill:none;stroke-width:7.32;stroke-linecap:round;stroke-linejoin:round;stroke:#000;stroke-opacity:1;stroke-miterlimit:10" d="M615.703 701.64 467.656 530.899" transform="matrix(.1 0 0 -.1 0 200)"/><path style="stroke:none;fill-rule:nonzero;fill:#b3b6da;fill-opacity:1" d="m46.766 146.91 14.804-17.074 38.551 61.297"/><path style="fill:none;stroke-width:7.32;stroke-linecap:round;stroke-linejoin:round;stroke:#000;stroke-opacity:1;stroke-miterlimit:10" d="m467.656 530.898 148.047 170.743" transform="matrix(.1 0 0 -.1 0 200)"/><path style="stroke:none;fill-rule:nonzero;fill:#8964a1;fill-opacity:1" d="m149.64 63.11 21.489 14.605-17.168 13.543"/><path style="fill:none;stroke-width:7.32;stroke-linecap:round;stroke-linejoin:round;stroke:#000;stroke-opacity:1;stroke-miterlimit:10" d="m1496.406 1368.906 214.883-146.054-171.68-135.43Zm0 0" transform="matrix(.1 0 0 -.1 0 200)"/><path style="stroke:none;fill-rule:nonzero;fill:#6365be;fill-opacity:1" d="m153.96 91.258 17.169-13.543 22.031 23.605"/><path style="fill:none;stroke-width:7.32;stroke-linecap:round;stroke-linejoin:round;stroke:#000;stroke-opacity:1;stroke-miterlimit:10" d="m1539.61 1087.422 171.68 135.43" transform="matrix(.1 0 0 -.1 0 200)"/><path style="fill-rule:nonzero;fill:#af86aa;fill-opacity:1;stroke-width:7.32;stroke-linecap:round;stroke-linejoin:round;stroke:#000;stroke-opacity:1;stroke-miterlimit:10" d="m1291.094 1575.313 205.312-206.407 43.203-281.484" transform="matrix(.1 0 0 -.1 0 200)"/><path style="fill-rule:nonzero;fill:#bd5342;fill-opacity:1;stroke-width:7.32;stroke-linecap:round;stroke-linejoin:round;stroke:#000;stroke-opacity:1;stroke-miterlimit:10" d="m1003.984 1624.023-254.882-126.992-266.446-62.11" transform="matrix(.1 0 0 -.1 0 200)"/><path style="fill-rule:nonzero;fill:#af86aa;fill-opacity:1;stroke-width:7.32;stroke-linecap:round;stroke-linejoin:round;stroke:#000;stroke-opacity:1;stroke-miterlimit:10" d="m749.102 1497.031 254.882 126.992 287.11-48.71" transform="matrix(.1 0 0 -.1 0 200)"/><path style="stroke:none;fill-rule:nonzero;fill:#6365be;fill-opacity:1" d="m140.758 164.023-5.078-20.847 57.48-41.856"/><path style="fill:none;stroke-width:7.32;stroke-linecap:round;stroke-linejoin:round;stroke:#000;stroke-opacity:1;stroke-miterlimit:10" d="m1407.578 359.766-50.781 208.476" transform="matrix(.1 0 0 -.1 0 200)"/><path style="stroke:none;fill-rule:nonzero;fill:#b3b6da;fill-opacity:1" d="m135.68 143.176 5.078 20.847-40.637 27.11"/><path style="fill:none;stroke-width:7.32;stroke-linecap:round;stroke-linejoin:round;stroke:#000;stroke-opacity:1;stroke-miterlimit:10" d="m1356.797 568.242 50.781-208.476" transform="matrix(.1 0 0 -.1 0 200)"/><path style="fill-rule:nonzero;fill:#3e003b;fill-opacity:1;stroke-width:7.32;stroke-linecap:round;stroke-linejoin:round;stroke:#000;stroke-opacity:1;stroke-miterlimit:10" d="m1862.734 1190.273-151.445 32.579-214.883 146.054" transform="matrix(.1 0 0 -.1 0 200)"/><path style="stroke:none;fill-rule:nonzero;fill:#3e003b;fill-opacity:1" d="m188.773 70.586-2.5 10.387-36.632-17.864"/><path style="fill:none;stroke-width:7.32;stroke-linecap:round;stroke-linejoin:round;stroke:#000;stroke-opacity:1;stroke-miterlimit:10" d="m1887.734 1294.14-25-103.867" transform="matrix(.1 0 0 -.1 0 200)"/><path style="stroke:none;fill-rule:nonzero;fill:#3e003b;fill-opacity:1" d="m176.281 49.46 12.492 21.126-39.132-7.477"/><path style="fill:none;stroke-width:7.32;stroke-linecap:round;stroke-linejoin:round;stroke:#000;stroke-opacity:1;stroke-miterlimit:10" d="m1762.813 1505.39 124.921-211.25" transform="matrix(.1 0 0 -.1 0 200)"/><path style="stroke:none;fill-rule:nonzero;fill:#3e003b;fill-opacity:1" d="m153.285 26.203 22.996 23.258-26.64 13.648"/><path style="fill:none;stroke-width:7.32;stroke-linecap:round;stroke-linejoin:round;stroke:#000;stroke-opacity:1;stroke-miterlimit:10" d="m1532.852 1737.969 229.96-232.578" transform="matrix(.1 0 0 -.1 0 200)"/><path style="stroke:none;fill-rule:nonzero;fill:#3e003b;fill-opacity:1" d="m129.914 11.129 23.371 15.074-3.644 36.906"/><path style="fill:none;stroke-width:7.32;stroke-linecap:round;stroke-linejoin:round;stroke:#000;stroke-opacity:1;stroke-miterlimit:10" d="m1299.14 1888.71 233.712-150.741" transform="matrix(.1 0 0 -.1 0 200)"/><path style="stroke:none;fill-rule:nonzero;fill:#3e003b;fill-opacity:1" d="m116.063 10.188 13.851.94 19.727 51.981"/><path style="fill:none;stroke-width:7.32;stroke-linecap:round;stroke-linejoin:round;stroke:#000;stroke-opacity:1;stroke-miterlimit:10" d="m1160.625 1898.125 138.516-9.414" transform="matrix(.1 0 0 -.1 0 200)"/><path style="stroke:none;fill-rule:nonzero;fill:#3e003b;fill-opacity:1" d="m116.246 22.48-.183-12.293L149.64 63.11"/><path style="fill:none;stroke-width:7.32;stroke-linecap:round;stroke-linejoin:round;stroke:#000;stroke-opacity:1;stroke-miterlimit:10" d="m1162.46 1775.195-1.835 122.93" transform="matrix(.1 0 0 -.1 0 200)"/><path style="fill-rule:nonzero;fill:#3e003b;fill-opacity:1;stroke-width:7.32;stroke-linecap:round;stroke-linejoin:round;stroke:#000;stroke-opacity:1;stroke-miterlimit:10" d="m1496.406 1368.906-205.312 206.407-128.633 199.882" transform="matrix(.1 0 0 -.1 0 200)"/><path style="stroke:none;fill-rule:nonzero;fill:#a36080;fill-opacity:1" d="m129.11 42.469-28.712-4.871 15.848-15.118"/><path style="fill:none;stroke-width:7.32;stroke-linecap:round;stroke-linejoin:round;stroke:#000;stroke-opacity:1;stroke-miterlimit:10" d="m1291.094 1575.313-287.11 48.71 158.477 151.172Zm0 0" transform="matrix(.1 0 0 -.1 0 200)"/><path style="stroke:none;fill-rule:nonzero;fill:#bd5342;fill-opacity:1" d="m116.246 22.48-15.848 15.118-52.132 18.91"/><path style="fill:none;stroke-width:7.32;stroke-linecap:round;stroke-linejoin:round;stroke:#000;stroke-opacity:1;stroke-miterlimit:10" d="m1162.46 1775.195-158.476-151.172" transform="matrix(.1 0 0 -.1 0 200)"/><path style="stroke:none;fill-rule:nonzero;fill:#bd5342;fill-opacity:1" d="m116.063 10.188.183 12.292-67.98 34.028"/><path style="fill:none;stroke-width:7.32;stroke-linecap:round;stroke-linejoin:round;stroke:#000;stroke-opacity:1;stroke-miterlimit:10" d="m1160.625 1898.125 1.836-122.93" transform="matrix(.1 0 0 -.1 0 200)"/><path style="stroke:none;fill-rule:nonzero;fill:#bd5342;fill-opacity:1" d="m98.305 5.867 17.757 4.32-67.796 46.32"/><path style="fill:none;stroke-width:7.32;stroke-linecap:round;stroke-linejoin:round;stroke:#000;stroke-opacity:1;stroke-miterlimit:10" d="m983.047 1941.328 177.578-43.203" transform="matrix(.1 0 0 -.1 0 200)"/><path style="stroke:none;fill-rule:nonzero;fill:#bd5342;fill-opacity:1" d="m69.05 12.082 29.255-6.215-50.04 50.64"/><path style="fill:none;stroke-width:7.32;stroke-linecap:round;stroke-linejoin:round;stroke:#000;stroke-opacity:1;stroke-miterlimit:10" d="m690.508 1879.18 292.539 62.148" transform="matrix(.1 0 0 -.1 0 200)"/><path style="stroke:none;fill-rule:nonzero;fill:#bd5342;fill-opacity:1" d="m40.86 26.492 28.19-14.41-20.784 44.426"/><path style="fill:none;stroke-width:7.32;stroke-linecap:round;stroke-linejoin:round;stroke:#000;stroke-opacity:1;stroke-miterlimit:10" d="m408.594 1735.078 281.914 144.102" transform="matrix(.1 0 0 -.1 0 200)"/><path style="stroke:none;fill-rule:nonzero;fill:#bd5342;fill-opacity:1" d="m25.95 42.648 14.91-16.156 7.406 30.016"/><path style="fill:none;stroke-width:7.32;stroke-linecap:round;stroke-linejoin:round;stroke:#000;stroke-opacity:1;stroke-miterlimit:10" d="m259.492 1573.516 149.102 161.562" transform="matrix(.1 0 0 -.1 0 200)"/><path style="fill-rule:nonzero;fill:#bd5342;fill-opacity:1;stroke-width:7.32;stroke-linecap:round;stroke-linejoin:round;stroke:#000;stroke-opacity:1;stroke-miterlimit:10" d="m482.656 1434.922-188.554 26.21-34.61 112.384" transform="matrix(.1 0 0 -.1 0 200)"/><path style="stroke:none;fill-rule:nonzero;fill:#e2b9ad;fill-opacity:1" d="m46.766 146.91-18.996.211 1.64-93.234"/><path style="fill:none;stroke-width:7.32;stroke-linecap:round;stroke-linejoin:round;stroke:#000;stroke-opacity:1;stroke-miterlimit:10" d="m467.656 530.898-189.96-2.109" transform="matrix(.1 0 0 -.1 0 200)"/><path style="stroke:none;fill-rule:nonzero;fill:#d9d8d6;fill-opacity:1" d="m27.77 147.121 18.996-.21 2.66 21.327"/><path style="fill:none;stroke-width:7.32;stroke-linecap:round;stroke-linejoin:round;stroke:#000;stroke-opacity:1;stroke-miterlimit:10" d="m277.695 528.79 189.961 2.108 26.602-213.28Zm0 0" transform="matrix(.1 0 0 -.1 0 200)"/><path style="stroke:none;fill-rule:nonzero;fill:#b3b6da;fill-opacity:1" d="m49.426 168.238-2.66-21.328 53.355 44.223"/><path style="fill:none;stroke-width:7.32;stroke-linecap:round;stroke-linejoin:round;stroke:#000;stroke-opacity:1;stroke-miterlimit:10" d="m494.258 317.617-26.602 213.281" transform="matrix(.1 0 0 -.1 0 200)"/><path style="fill-rule:nonzero;fill:#6365be;fill-opacity:1;stroke-width:7.32;stroke-linecap:round;stroke-linejoin:round;stroke:#000;stroke-opacity:1;stroke-miterlimit:10" d="m1711.29 1222.852 151.444-32.579 68.868-203.476" transform="matrix(.1 0 0 -.1 0 200)"/><path style="stroke:none;fill-rule:nonzero;fill:#6365be;fill-opacity:1" d="m154.867 170.316-14.11-6.293 52.403-62.703"/><path style="fill:none;stroke-width:7.32;stroke-linecap:round;stroke-linejoin:round;stroke:#000;stroke-opacity:1;stroke-miterlimit:10" d="m1548.672 296.836-141.094 62.93" transform="matrix(.1 0 0 -.1 0 200)"/><path style="stroke:none;fill-rule:nonzero;fill:#769be8;fill-opacity:1" d="m154.867 170.316-27.36 12.313 13.25-18.606"/><path style="fill:none;stroke-width:7.32;stroke-linecap:round;stroke-linejoin:round;stroke:#000;stroke-opacity:1;stroke-miterlimit:10" d="M1548.672 296.836 1275.078 173.71l132.5 186.055Zm0 0" transform="matrix(.1 0 0 -.1 0 200)"/><path style="fill-rule:nonzero;fill:#b3b6da;fill-opacity:1;stroke-width:7.32;stroke-linecap:round;stroke-linejoin:round;stroke:#000;stroke-opacity:1;stroke-miterlimit:10" d="m1407.578 359.766-132.5-186.055-273.867-85.04" transform="matrix(.1 0 0 -.1 0 200)"/><path style="stroke:none;fill-rule:nonzero;fill:#ee9351;fill-opacity:1" d="M29.41 53.887 12.934 69.84l13.015-27.192"/><path style="fill:none;stroke-width:7.32;stroke-linecap:round;stroke-linejoin:round;stroke:#000;stroke-opacity:1;stroke-miterlimit:10" d="m294.102 1461.133-164.766-159.531 130.156 271.914Zm0 0" transform="matrix(.1 0 0 -.1 0 200)"/><path style="fill-rule:nonzero;fill:#e2b9ad;fill-opacity:1;stroke-width:7.32;stroke-linecap:round;stroke-linejoin:round;stroke:#000;stroke-opacity:1;stroke-miterlimit:10" d="m59.766 1010.547 69.57 291.055 164.766 159.53" transform="matrix(.1 0 0 -.1 0 200)"/><path style="stroke:none;fill-rule:nonzero;fill:#e2b9ad;fill-opacity:1" d="M11.844 128.96 5.977 98.946 29.41 53.887"/><path style="fill:none;stroke-width:7.32;stroke-linecap:round;stroke-linejoin:round;stroke:#000;stroke-opacity:1;stroke-miterlimit:10" d="m118.438 710.39-58.672 300.157" transform="matrix(.1 0 0 -.1 0 200)"/><path style="stroke:none;fill-rule:nonzero;fill:#e2b9ad;fill-opacity:1" d="m27.77 147.121-15.926-18.16L29.41 53.887"/><path style="fill:none;stroke-width:7.32;stroke-linecap:round;stroke-linejoin:round;stroke:#000;stroke-opacity:1;stroke-miterlimit:10" d="m277.695 528.79-159.257 181.6" transform="matrix(.1 0 0 -.1 0 200)"/><path style="fill-rule:nonzero;fill:#b3b6da;fill-opacity:1;stroke-width:7.32;stroke-linecap:round;stroke-linejoin:round;stroke:#000;stroke-opacity:1;stroke-miterlimit:10" d="M1001.21 88.672 697.97 145 494.258 317.617" transform="matrix(.1 0 0 -.1 0 200)"/><path style="stroke:none;fill-rule:nonzero;fill:#000;fill-opacity:1" d="m49.426 168.238 20.37 17.262-51.898-60.012"/><path style="fill:none;stroke-width:7.32;stroke-linecap:round;stroke-linejoin:round;stroke:#000;stroke-opacity:1;stroke-miterlimit:10" d="M494.258 317.617 697.968 145" transform="matrix(.1 0 0 -.1 0 200)"/><path style="stroke:none;fill-rule:nonzero;fill:#000;fill-opacity:1" d="m27.77 147.121 21.656 21.117-31.528-42.75"/><path style="fill:none;stroke-width:7.32;stroke-linecap:round;stroke-linejoin:round;stroke:#000;stroke-opacity:1;stroke-miterlimit:10" d="m277.695 528.79 216.563-211.173" transform="matrix(.1 0 0 -.1 0 200)"/><path style="stroke:none;fill-rule:nonzero;fill:#000;fill-opacity:1" d="m11.844 128.96 15.926 18.161-9.872-21.633"/><path style="fill:none;stroke-width:7.32;stroke-linecap:round;stroke-linejoin:round;stroke:#000;stroke-opacity:1;stroke-miterlimit:10" d="m118.438 710.39 159.257-181.6" transform="matrix(.1 0 0 -.1 0 200)"/><path style="stroke:none;fill-rule:nonzero;fill:#a51c00;fill-opacity:1" d="m127.508 182.629 27.36-12.313-26.505-10.48"/><path style="fill:none;stroke-width:7.32;stroke-linecap:round;stroke-linejoin:round;stroke:#000;stroke-opacity:1;stroke-miterlimit:10" d="m1275.078 173.71 273.594 123.126" transform="matrix(.1 0 0 -.1 0 200)"/><path style="stroke:none;fill-rule:nonzero;fill:#a51c00;fill-opacity:1" d="m100.121 191.133 27.387-8.504.855-22.793"/><path style="fill:none;stroke-width:7.32;stroke-linecap:round;stroke-linejoin:round;stroke:#000;stroke-opacity:1;stroke-miterlimit:10" d="m1001.21 88.672 273.868 85.039" transform="matrix(.1 0 0 -.1 0 200)"/><path style="stroke:none;fill-rule:nonzero;fill:#00003f;fill-opacity:1" d="m193.16 101.32-6.887-20.347 2.5-10.387"/><path style="fill:none;stroke-width:7.32;stroke-linecap:round;stroke-linejoin:round;stroke:#000;stroke-opacity:1;stroke-miterlimit:10" d="m1931.602 986.797-68.868 203.476 25 103.868Zm0 0" transform="matrix(.1 0 0 -.1 0 200)"/><path style="stroke:none;fill-rule:nonzero;fill:#6365be;fill-opacity:1" d="m173.2 158.148-18.333 12.168 38.293-68.996"/><path style="fill:none;stroke-width:7.32;stroke-linecap:round;stroke-linejoin:round;stroke:#000;stroke-opacity:1;stroke-miterlimit:10" d="m1731.992 418.516-183.32-121.68" transform="matrix(.1 0 0 -.1 0 200)"/><path style="stroke:none;fill-rule:nonzero;fill:#a51c00;fill-opacity:1" d="m154.867 170.316 18.332-12.168-44.836 1.688"/><path style="fill:none;stroke-width:7.32;stroke-linecap:round;stroke-linejoin:round;stroke:#000;stroke-opacity:1;stroke-miterlimit:10" d="m1548.672 296.836 183.32 121.68" transform="matrix(.1 0 0 -.1 0 200)"/><path style="stroke:none;fill-rule:nonzero;fill:#83e0fa;fill-opacity:1" d="m81.879 192.82-12.082-7.32 30.324 5.633"/><path style="fill:none;stroke-width:7.32;stroke-linecap:round;stroke-linejoin:round;stroke:#000;stroke-opacity:1;stroke-miterlimit:10" d="M818.79 71.797 697.968 145l303.242-56.328Zm0 0" transform="matrix(.1 0 0 -.1 0 200)"/><path style="stroke:none;fill-rule:nonzero;fill:#000;fill-opacity:1" d="m69.797 185.5 12.082 7.32-63.98-67.332"/><path style="fill:none;stroke-width:7.32;stroke-linecap:round;stroke-linejoin:round;stroke:#000;stroke-opacity:1;stroke-miterlimit:10" d="m697.969 145 120.82-73.203" transform="matrix(.1 0 0 -.1 0 200)"/><path style="stroke:none;fill-rule:nonzero;fill:#a51c00;fill-opacity:1" d="m81.879 192.82 18.242-1.687 28.242-31.297"/><path style="fill:none;stroke-width:7.32;stroke-linecap:round;stroke-linejoin:round;stroke:#000;stroke-opacity:1;stroke-miterlimit:10" d="m818.79 71.797 182.42 16.875" transform="matrix(.1 0 0 -.1 0 200)"/><path style="stroke:none;fill-rule:nonzero;fill:#e4d259;fill-opacity:1" d="M7.594 120.293 5.977 98.945l5.867 30.016"/><path style="fill:none;stroke-width:7.32;stroke-linecap:round;stroke-linejoin:round;stroke:#000;stroke-opacity:1;stroke-miterlimit:10" d="m75.938 797.07-16.172 213.477 58.672-300.156Zm0 0" transform="matrix(.1 0 0 -.1 0 200)"/><path style="fill-rule:nonzero;fill:#3648b8;fill-opacity:1;stroke-width:7.32;stroke-linecap:round;stroke-linejoin:round;stroke:#000;stroke-opacity:1;stroke-miterlimit:10" d="m129.336 1301.602-69.57-291.055L75.938 797.07" transform="matrix(.1 0 0 -.1 0 200)"/><path style="stroke:none;fill-rule:nonzero;fill:#3648b8;fill-opacity:1" d="M25.95 42.648 12.933 69.84l-5.34 50.453"/><path style="fill:none;stroke-width:7.32;stroke-linecap:round;stroke-linejoin:round;stroke:#000;stroke-opacity:1;stroke-miterlimit:10" d="m259.492 1573.516-130.156-271.914" transform="matrix(.1 0 0 -.1 0 200)"/><path style="stroke:none;fill-rule:nonzero;fill:#050000;fill-opacity:1" d="m116.063 10.188-17.758-4.32 31.61 5.26"/><path style="fill:none;stroke-width:7.32;stroke-linecap:round;stroke-linejoin:round;stroke:#000;stroke-opacity:1;stroke-miterlimit:10" d="m1160.625 1898.125-177.578 43.203 316.094-52.617Zm0 0" transform="matrix(.1 0 0 -.1 0 200)"/><path style="fill-rule:nonzero;fill:#000;fill-opacity:1;stroke-width:7.32;stroke-linecap:round;stroke-linejoin:round;stroke:#000;stroke-opacity:1;stroke-miterlimit:10" d="M178.984 745.117 75.937 797.07l42.5-86.68" transform="matrix(.1 0 0 -.1 0 200)"/><path style="stroke:none;fill-rule:nonzero;fill:#3648b8;fill-opacity:1" d="M40.86 26.492 25.95 42.648 7.593 120.293"/><path style="fill:none;stroke-width:7.32;stroke-linecap:round;stroke-linejoin:round;stroke:#000;stroke-opacity:1;stroke-miterlimit:10" d="m408.594 1735.078-149.102-161.562" transform="matrix(.1 0 0 -.1 0 200)"/><path style="fill-rule:nonzero;fill:#6365be;fill-opacity:1;stroke-width:7.32;stroke-linecap:round;stroke-linejoin:round;stroke:#000;stroke-opacity:1;stroke-miterlimit:10" d="m1931.602 986.797-49.61-300.352-150-267.93" transform="matrix(.1 0 0 -.1 0 200)"/><path style="fill-rule:nonzero;fill:#eec3a6;fill-opacity:1;stroke-width:7.32;stroke-linecap:round;stroke-linejoin:round;stroke:#000;stroke-opacity:1;stroke-miterlimit:10" d="m1881.992 686.445 49.61 300.352-43.868 307.344" transform="matrix(.1 0 0 -.1 0 200)"/><path style="stroke:none;fill-rule:nonzero;fill:#c55900;fill-opacity:1" d="m188.2 131.355-12.938 19.13-2.063 7.663"/><path style="fill:none;stroke-width:7.32;stroke-linecap:round;stroke-linejoin:round;stroke:#000;stroke-opacity:1;stroke-miterlimit:10" d="m1881.992 686.445-129.375-191.289-20.625-76.64Zm0 0" transform="matrix(.1 0 0 -.1 0 200)"/><path style="stroke:none;fill-rule:nonzero;fill:#a51c00;fill-opacity:1" d="m173.2 158.148 2.062-7.664-46.899 9.352"/><path style="fill:none;stroke-width:7.32;stroke-linecap:round;stroke-linejoin:round;stroke:#000;stroke-opacity:1;stroke-miterlimit:10" d="m1731.992 418.516 20.625 76.64" transform="matrix(.1 0 0 -.1 0 200)"/><path style="stroke:none;fill-rule:nonzero;fill:#eec3a6;fill-opacity:1" d="M188.773 70.586 176.281 49.46l11.918 81.894"/><path style="fill:none;stroke-width:7.32;stroke-linecap:round;stroke-linejoin:round;stroke:#000;stroke-opacity:1;stroke-miterlimit:10" d="m1887.734 1294.14-124.921 211.25" transform="matrix(.1 0 0 -.1 0 200)"/><path style="stroke:none;fill-rule:nonzero;fill:#000;fill-opacity:1" d="m81.879 192.82-1.57-6.363-62.41-60.969"/><path style="fill:none;stroke-width:7.32;stroke-linecap:round;stroke-linejoin:round;stroke:#000;stroke-opacity:1;stroke-miterlimit:10" d="m818.79 71.797-15.704 63.633" transform="matrix(.1 0 0 -.1 0 200)"/><path style="stroke:none;fill-rule:nonzero;fill:#a51c00;fill-opacity:1" d="m80.309 186.457 1.57 6.363 46.484-32.984"/><path style="fill:none;stroke-width:7.32;stroke-linecap:round;stroke-linejoin:round;stroke:#000;stroke-opacity:1;stroke-miterlimit:10" d="m803.086 135.43 15.703-63.633" transform="matrix(.1 0 0 -.1 0 200)"/><path style="fill-rule:nonzero;fill:#eec3a6;fill-opacity:1;stroke-width:7.32;stroke-linecap:round;stroke-linejoin:round;stroke:#000;stroke-opacity:1;stroke-miterlimit:10" d="m1584.883 491.523 167.734 3.633 129.375 191.29" transform="matrix(.1 0 0 -.1 0 200)"/><path style="stroke:none;fill-rule:nonzero;fill:#eec3a6;fill-opacity:1" d="m144.262 130.516 14.226 20.332 29.711-19.493"/><path style="fill:none;stroke-width:7.32;stroke-linecap:round;stroke-linejoin:round;stroke:#000;stroke-opacity:1;stroke-miterlimit:10" d="m1442.617 694.844 142.266-203.32" transform="matrix(.1 0 0 -.1 0 200)"/><path style="stroke:none;fill-rule:nonzero;fill:#eec3a6;fill-opacity:1" d="m138.922 96.71 5.34 33.806 43.937.84"/><path style="fill:none;stroke-width:7.32;stroke-linecap:round;stroke-linejoin:round;stroke:#000;stroke-opacity:1;stroke-miterlimit:10" d="m1389.219 1032.89 53.398-338.046" transform="matrix(.1 0 0 -.1 0 200)"/><path style="stroke:none;fill-rule:nonzero;fill:#eec3a6;fill-opacity:1" d="m145.035 63.996-6.113 32.715 49.277 34.644"/><path style="fill:none;stroke-width:7.32;stroke-linecap:round;stroke-linejoin:round;stroke:#000;stroke-opacity:1;stroke-miterlimit:10" d="m1450.352 1360.04-61.133-327.15" transform="matrix(.1 0 0 -.1 0 200)"/><path style="stroke:none;fill-rule:nonzero;fill:#eec3a6;fill-opacity:1" d="m159.629 46.277-14.594 17.72 43.164 67.358"/><path style="fill:none;stroke-width:7.32;stroke-linecap:round;stroke-linejoin:round;stroke:#000;stroke-opacity:1;stroke-miterlimit:10" d="m1596.29 1537.227-145.938-177.188" transform="matrix(.1 0 0 -.1 0 200)"/><path style="stroke:none;fill-rule:nonzero;fill:#eec3a6;fill-opacity:1" d="m176.281 49.46-16.652-3.183 28.57 85.078"/><path style="fill:none;stroke-width:7.32;stroke-linecap:round;stroke-linejoin:round;stroke:#000;stroke-opacity:1;stroke-miterlimit:10" d="m1762.813 1505.39-166.524 31.837" transform="matrix(.1 0 0 -.1 0 200)"/><path style="stroke:none;fill-rule:nonzero;fill:#b1bfe4;fill-opacity:1" d="M98.305 5.867 69.05 12.082l90.578 34.195"/><path style="fill:none;stroke-width:7.32;stroke-linecap:round;stroke-linejoin:round;stroke:#000;stroke-opacity:1;stroke-miterlimit:10" d="m983.047 1941.328-292.54-62.148" transform="matrix(.1 0 0 -.1 0 200)"/><path style="stroke:none;fill-rule:nonzero;fill:#b1bfe4;fill-opacity:1" d="m129.914 11.129-31.61-5.262 61.325 40.41"/><path style="fill:none;stroke-width:7.32;stroke-linecap:round;stroke-linejoin:round;stroke:#000;stroke-opacity:1;stroke-miterlimit:10" d="m1299.14 1888.71-316.093 52.618" transform="matrix(.1 0 0 -.1 0 200)"/><path style="fill-rule:nonzero;fill:#b1bfe4;fill-opacity:1;stroke-width:7.32;stroke-linecap:round;stroke-linejoin:round;stroke:#000;stroke-opacity:1;stroke-miterlimit:10" d="m1596.29 1537.227-63.438 200.742-233.711 150.742" transform="matrix(.1 0 0 -.1 0 200)"/><path style="stroke:none;fill-rule:nonzero;fill:#3648b8;fill-opacity:1" d="M52.414 28.098 40.86 26.492 7.594 120.293"/><path style="fill:none;stroke-width:7.32;stroke-linecap:round;stroke-linejoin:round;stroke:#000;stroke-opacity:1;stroke-miterlimit:10" d="m524.14 1719.023-115.546 16.055" transform="matrix(.1 0 0 -.1 0 200)"/><path style="stroke:none;fill-rule:nonzero;fill:#388bed;fill-opacity:1" d="m40.86 26.492 11.554 1.606 16.637-16.016"/><path style="fill:none;stroke-width:7.32;stroke-linecap:round;stroke-linejoin:round;stroke:#000;stroke-opacity:1;stroke-miterlimit:10" d="m408.594 1735.078 115.547-16.055 166.367 160.157Zm0 0" transform="matrix(.1 0 0 -.1 0 200)"/><path style="stroke:none;fill-rule:nonzero;fill:#3648b8;fill-opacity:1" d="m55.637 48.648-3.223-20.55-44.82 92.195"/><path style="fill:none;stroke-width:7.32;stroke-linecap:round;stroke-linejoin:round;stroke:#000;stroke-opacity:1;stroke-miterlimit:10" d="m556.367 1513.516-32.226 205.507" transform="matrix(.1 0 0 -.1 0 200)"/><path style="stroke:none;fill-rule:nonzero;fill:#3648b8;fill-opacity:1" d="m48.426 80.86 7.21-32.212-48.042 71.645"/><path style="fill:none;stroke-width:7.32;stroke-linecap:round;stroke-linejoin:round;stroke:#000;stroke-opacity:1;stroke-miterlimit:10" d="m484.258 1191.406 72.11 322.11" transform="matrix(.1 0 0 -.1 0 200)"/><path style="stroke:none;fill-rule:nonzero;fill:#3648b8;fill-opacity:1" d="m33.637 110.762 14.789-29.903-40.832 39.434"/><path style="fill:none;stroke-width:7.32;stroke-linecap:round;stroke-linejoin:round;stroke:#000;stroke-opacity:1;stroke-miterlimit:10" d="m336.367 892.383 147.89 299.023" transform="matrix(.1 0 0 -.1 0 200)"/><path style="fill-rule:nonzero;fill:#3648b8;fill-opacity:1;stroke-width:7.32;stroke-linecap:round;stroke-linejoin:round;stroke:#000;stroke-opacity:1;stroke-miterlimit:10" d="m75.938 797.07 103.046-51.953 157.383 147.266" transform="matrix(.1 0 0 -.1 0 200)"/><path style="stroke:none;fill-rule:nonzero;fill:#b1bfe4;fill-opacity:1" d="M69.05 12.082 52.415 28.098l107.215 18.18"/><path style="fill:none;stroke-width:7.32;stroke-linecap:round;stroke-linejoin:round;stroke:#000;stroke-opacity:1;stroke-miterlimit:10" d="M690.508 1879.18 524.14 1719.023" transform="matrix(.1 0 0 -.1 0 200)"/><path style="stroke:none;fill-rule:nonzero;fill:#e0f1da;fill-opacity:1" d="m176.281 49.46-22.996-23.257 6.344 20.074"/><path style="fill:none;stroke-width:7.32;stroke-linecap:round;stroke-linejoin:round;stroke:#000;stroke-opacity:1;stroke-miterlimit:10" d="m1762.813 1505.39-229.961 232.579 63.437-200.742Zm0 0" transform="matrix(.1 0 0 -.1 0 200)"/><path style="fill-rule:nonzero;fill:#a51c00;fill-opacity:1;stroke-width:7.32;stroke-linecap:round;stroke-linejoin:round;stroke:#000;stroke-opacity:1;stroke-miterlimit:10" d="m1752.617 495.156-167.734-3.633-301.25-89.882" transform="matrix(.1 0 0 -.1 0 200)"/><path style="stroke:none;fill-rule:nonzero;fill:#984767;fill-opacity:1" d="m97.852 173.781-33.582-6.18 16.039 18.856"/><path style="fill:none;stroke-width:7.32;stroke-linecap:round;stroke-linejoin:round;stroke:#000;stroke-opacity:1;stroke-miterlimit:10" d="m978.516 262.188-335.82 61.796 160.39-188.554Zm0 0" transform="matrix(.1 0 0 -.1 0 200)"/><path style="stroke:none;fill-rule:nonzero;fill:#000;fill-opacity:1" d="m80.309 186.457-16.04-18.855-46.37-42.114"/><path style="fill:none;stroke-width:7.32;stroke-linecap:round;stroke-linejoin:round;stroke:#000;stroke-opacity:1;stroke-miterlimit:10" d="m803.086 135.43-160.39 188.554" transform="matrix(.1 0 0 -.1 0 200)"/><path style="fill-rule:nonzero;fill:#a51c00;fill-opacity:1;stroke-width:7.32;stroke-linecap:round;stroke-linejoin:round;stroke:#000;stroke-opacity:1;stroke-miterlimit:10" d="M1283.633 401.64 978.516 262.189 803.086 135.43" transform="matrix(.1 0 0 -.1 0 200)"/><path style="stroke:none;fill-rule:nonzero;fill:#b1bfe4;fill-opacity:1" d="m52.414 28.098 3.223 20.55 103.992-2.37"/><path style="fill:none;stroke-width:7.32;stroke-linecap:round;stroke-linejoin:round;stroke:#000;stroke-opacity:1;stroke-miterlimit:10" d="m524.14 1719.023 32.227-205.507" transform="matrix(.1 0 0 -.1 0 200)"/><path style="stroke:none;fill-rule:nonzero;fill:#764f96;fill-opacity:1" d="m39.852 143.734-6.215-32.972-15.739 14.726"/><path style="fill:none;stroke-width:7.32;stroke-linecap:round;stroke-linejoin:round;stroke:#000;stroke-opacity:1;stroke-miterlimit:10" d="m398.516 562.656-62.149 329.727-157.383-147.266Zm0 0" transform="matrix(.1 0 0 -.1 0 200)"/><path style="fill-rule:nonzero;fill:#000;fill-opacity:1;stroke-width:7.32;stroke-linecap:round;stroke-linejoin:round;stroke:#000;stroke-opacity:1;stroke-miterlimit:10" d="m642.695 323.984-244.18 238.672-219.53 182.461" transform="matrix(.1 0 0 -.1 0 200)"/><path style="fill-rule:nonzero;fill:#b1bfe4;fill-opacity:1;stroke-width:7.32;stroke-linecap:round;stroke-linejoin:round;stroke:#000;stroke-opacity:1;stroke-miterlimit:10" d="m1139.297 1282.5 311.055 77.54 145.937 177.187" transform="matrix(.1 0 0 -.1 0 200)"/><path style="stroke:none;fill-rule:nonzero;fill:#b1bfe4;fill-opacity:1" d="m79.125 65.73 34.805 6.02 45.699-25.473"/><path style="fill:none;stroke-width:7.32;stroke-linecap:round;stroke-linejoin:round;stroke:#000;stroke-opacity:1;stroke-miterlimit:10" d="m791.25 1342.695 348.047-60.195" transform="matrix(.1 0 0 -.1 0 200)"/><path style="stroke:none;fill-rule:nonzero;fill:#b1bfe4;fill-opacity:1" d="M55.637 48.648 79.125 65.73l80.504-19.453"/><path style="fill:none;stroke-width:7.32;stroke-linecap:round;stroke-linejoin:round;stroke:#000;stroke-opacity:1;stroke-miterlimit:10" d="m556.367 1513.516 234.883-170.82" transform="matrix(.1 0 0 -.1 0 200)"/><path style="stroke:none;fill-rule:nonzero;fill:#cd8d8f;fill-opacity:1" d="m128.363 159.836 30.125-8.988-14.226-20.332"/><path style="fill:none;stroke-width:7.32;stroke-linecap:round;stroke-linejoin:round;stroke:#000;stroke-opacity:1;stroke-miterlimit:10" d="m1283.633 401.64 301.25 89.883-142.266 203.32Zm0 0" transform="matrix(.1 0 0 -.1 0 200)"/><path style="fill-rule:nonzero;fill:#9e5677;fill-opacity:1;stroke-width:7.32;stroke-linecap:round;stroke-linejoin:round;stroke:#000;stroke-opacity:1;stroke-miterlimit:10" d="m642.695 323.984 335.82-61.796 21.25 220.703" transform="matrix(.1 0 0 -.1 0 200)"/><path style="fill-rule:nonzero;fill:#9e5677;fill-opacity:1;stroke-width:7.32;stroke-linecap:round;stroke-linejoin:round;stroke:#000;stroke-opacity:1;stroke-miterlimit:10" d="m999.766 482.89-346.68 63.008-10.39-221.914" transform="matrix(.1 0 0 -.1 0 200)"/><path style="stroke:none;fill-rule:nonzero;fill:#7c3c75;fill-opacity:1" d="m65.309 145.41-25.457-1.676 24.418 23.868"/><path style="fill:none;stroke-width:7.32;stroke-linecap:round;stroke-linejoin:round;stroke:#000;stroke-opacity:1;stroke-miterlimit:10" d="m653.086 545.898-254.57 16.758 244.18-238.672Zm0 0" transform="matrix(.1 0 0 -.1 0 200)"/><path style="stroke:none;fill-rule:nonzero;fill:#b96a73;fill-opacity:1" d="m99.977 151.71-2.125 22.071 30.511-13.945"/><path style="fill:none;stroke-width:7.32;stroke-linecap:round;stroke-linejoin:round;stroke:#000;stroke-opacity:1;stroke-miterlimit:10" d="m999.766 482.89-21.25-220.702 305.117 139.453Zm0 0" transform="matrix(.1 0 0 -.1 0 200)"/><path style="fill-rule:nonzero;fill:#835b9b;fill-opacity:1;stroke-width:7.32;stroke-linecap:round;stroke-linejoin:round;stroke:#000;stroke-opacity:1;stroke-miterlimit:10" d="m336.367 892.383 62.149-329.727 254.57-16.758" transform="matrix(.1 0 0 -.1 0 200)"/><path style="stroke:none;fill-rule:nonzero;fill:#9b8fc6;fill-opacity:1" d="m48.426 80.86 30.699-15.13-23.488-17.082"/><path style="fill:none;stroke-width:7.32;stroke-linecap:round;stroke-linejoin:round;stroke:#000;stroke-opacity:1;stroke-miterlimit:10" d="m484.258 1191.406 306.992 151.29-234.883 170.82Zm0 0" transform="matrix(.1 0 0 -.1 0 200)"/><path style="fill-rule:nonzero;fill:#c88c95;fill-opacity:1;stroke-width:7.32;stroke-linecap:round;stroke-linejoin:round;stroke:#000;stroke-opacity:1;stroke-miterlimit:10" d="m1283.633 401.64 158.984 293.204-283.633 88.984" transform="matrix(.1 0 0 -.1 0 200)"/><path style="fill-rule:nonzero;fill:#c88c95;fill-opacity:1;stroke-width:7.32;stroke-linecap:round;stroke-linejoin:round;stroke:#000;stroke-opacity:1;stroke-miterlimit:10" d="M1158.984 783.828 999.766 482.891l283.867-81.25" transform="matrix(.1 0 0 -.1 0 200)"/><path style="fill-rule:nonzero;fill:#835b9b;fill-opacity:1;stroke-width:7.32;stroke-linecap:round;stroke-linejoin:round;stroke:#000;stroke-opacity:1;stroke-miterlimit:10" d="M653.086 545.898 591.64 884.922l-255.274 7.46" transform="matrix(.1 0 0 -.1 0 200)"/><path style="stroke:none;fill-rule:nonzero;fill:#8471b5;fill-opacity:1" d="M59.164 111.508 48.426 80.859l-14.79 29.903"/><path style="fill:none;stroke-width:7.32;stroke-linecap:round;stroke-linejoin:round;stroke:#000;stroke-opacity:1;stroke-miterlimit:10" d="m591.64 884.922-107.382 306.484-147.89-299.023Zm0 0" transform="matrix(.1 0 0 -.1 0 200)"/><path style="stroke:none;fill-rule:nonzero;fill:#c5abbf;fill-opacity:1" d="m138.922 96.71 6.113-32.714-31.105 7.754"/><path style="fill:none;stroke-width:7.32;stroke-linecap:round;stroke-linejoin:round;stroke:#000;stroke-opacity:1;stroke-miterlimit:10" d="m1389.219 1032.89 61.133 327.15-311.055-77.54Zm0 0" transform="matrix(.1 0 0 -.1 0 200)"/><path style="stroke:none;fill-rule:nonzero;fill:#d0a4ab;fill-opacity:1" d="m138.922 96.71-23.024 24.907 28.364 8.899"/><path style="fill:none;stroke-width:7.32;stroke-linecap:round;stroke-linejoin:round;stroke:#000;stroke-opacity:1;stroke-miterlimit:10" d="m1389.219 1032.89-230.235-249.062 283.633-88.984Zm0 0" transform="matrix(.1 0 0 -.1 0 200)"/><path style="fill-rule:nonzero;fill:#9f8ec1;fill-opacity:1;stroke-width:7.32;stroke-linecap:round;stroke-linejoin:round;stroke:#000;stroke-opacity:1;stroke-miterlimit:10" d="m791.25 1342.695-306.992-151.289L591.64 884.922" transform="matrix(.1 0 0 -.1 0 200)"/><path style="stroke:none;fill-rule:nonzero;fill:#ad83a7;fill-opacity:1" d="m65.309 145.41 34.668 6.3-9.489-55.292"/><path style="fill:none;stroke-width:7.32;stroke-linecap:round;stroke-linejoin:round;stroke:#000;stroke-opacity:1;stroke-miterlimit:10" d="m653.086 545.898 346.68-63.007" transform="matrix(.1 0 0 -.1 0 200)"/><path style="fill-rule:nonzero;fill:#ad83a7;fill-opacity:1;stroke-width:7.32;stroke-linecap:round;stroke-linejoin:round;stroke:#000;stroke-opacity:1;stroke-miterlimit:10" d="M904.883 1035.82 591.64 884.922l61.445-339.024" transform="matrix(.1 0 0 -.1 0 200)"/><path style="fill-rule:nonzero;fill:#c2a5bc;fill-opacity:1;stroke-width:7.32;stroke-linecap:round;stroke-linejoin:round;stroke:#000;stroke-opacity:1;stroke-miterlimit:10" d="m1389.219 1032.89-249.922 249.61-234.414-246.68" transform="matrix(.1 0 0 -.1 0 200)"/><path style="fill-rule:nonzero;fill:#c2a5bc;fill-opacity:1;stroke-width:7.32;stroke-linecap:round;stroke-linejoin:round;stroke:#000;stroke-opacity:1;stroke-miterlimit:10" d="m904.883 1035.82 254.101-251.992 230.235 249.063" transform="matrix(.1 0 0 -.1 0 200)"/><path style="stroke:none;fill-rule:nonzero;fill:#b2a4c9;fill-opacity:1" d="M90.488 96.418 113.93 71.75l-34.805-6.02"/><path style="fill:none;stroke-width:7.32;stroke-linecap:round;stroke-linejoin:round;stroke:#000;stroke-opacity:1;stroke-miterlimit:10" d="m904.883 1035.82 234.414 246.68-348.047 60.195Zm0 0" transform="matrix(.1 0 0 -.1 0 200)"/><path style="fill-rule:nonzero;fill:#9f8ec1;fill-opacity:1;stroke-width:7.32;stroke-linecap:round;stroke-linejoin:round;stroke:#000;stroke-opacity:1;stroke-miterlimit:10" d="m591.64 884.922 313.243 150.898-113.633 306.875" transform="matrix(.1 0 0 -.1 0 200)"/><path style="fill-rule:nonzero;fill:#ad83a7;fill-opacity:1;stroke-width:7.32;stroke-linecap:round;stroke-linejoin:round;stroke:#000;stroke-opacity:1;stroke-miterlimit:10" d="m999.766 482.89 159.218 300.938-254.101 251.992" transform="matrix(.1 0 0 -.1 0 200)"/></svg>