<svg xmlns="http://www.w3.org/2000/svg" width="265.587" height="187.493" viewBox="0 0 199.19 140.62" version="1.2"><path style="fill-rule:nonzero;fill:#c66f68;fill-opacity:1;stroke-width:5;stroke-linecap:round;stroke-linejoin:round;stroke:#000;stroke-opacity:1;stroke-miterlimit:10" d="m1161.932 541.034-559.649 23.73 120.488 499.248" transform="matrix(.0996 0 0 -.0996 0 140.146)"/><path style="stroke:none;fill-rule:nonzero;fill:#c66f68;fill-opacity:1" d="m164.648 44.613-48.925 41.649-43.739-52.086"/><path style="fill:none;stroke-width:5;stroke-linecap:round;stroke-linejoin:round;stroke:#000;stroke-opacity:1;stroke-miterlimit:10" d="m1653.18 959.212-491.248-418.178" transform="matrix(.0996 0 0 -.0996 0 140.146)"/><path style="stroke:none;fill-rule:nonzero;fill:#9680b8;fill-opacity:1" d="m170.477 113.305-54.754-27.043 48.925-41.649"/><path style="fill:none;stroke-width:5;stroke-linecap:round;stroke-linejoin:round;stroke:#000;stroke-opacity:1;stroke-miterlimit:10" d="m1711.698 269.505-549.766 271.53 491.248 418.177Zm0 0" transform="matrix(.0996 0 0 -.0996 0 140.146)"/><path style="fill-rule:nonzero;fill:#a9e7fa;fill-opacity:1;stroke-width:5;stroke-linecap:round;stroke-linejoin:round;stroke:#000;stroke-opacity:1;stroke-miterlimit:10" d="m602.283 564.763 559.65-23.729 549.765-271.53" transform="matrix(.0996 0 0 -.0996 0 140.146)"/><path style="fill-rule:nonzero;fill:#c66f68;fill-opacity:1;stroke-width:5;stroke-linecap:round;stroke-linejoin:round;stroke:#000;stroke-opacity:1;stroke-miterlimit:10" d="m722.771 1064.012 725.007 260.978 205.402-365.778" transform="matrix(.0996 0 0 -.0996 0 140.146)"/><path style="stroke:none;fill-rule:nonzero;fill:#000;fill-opacity:1" d="m164.648 44.613-20.457-36.43 49.875 59.32"/><path style="fill:none;stroke-width:5;stroke-linecap:round;stroke-linejoin:round;stroke:#000;stroke-opacity:1;stroke-miterlimit:10" d="m1653.18 959.212-205.402 365.778 500.778-595.615Zm0 0" transform="matrix(.0996 0 0 -.0996 0 140.146)"/><path style="stroke:none;fill-rule:nonzero;fill:#352a96;fill-opacity:1" d="m170.477 113.305-5.829-68.692 29.418 22.89"/><path style="fill:none;stroke-width:5;stroke-linecap:round;stroke-linejoin:round;stroke:#000;stroke-opacity:1;stroke-miterlimit:10" d="m1711.698 269.505-58.518 689.707 295.376-229.837Zm0 0" transform="matrix(.0996 0 0 -.0996 0 140.146)"/><path style="stroke:none;fill-rule:nonzero;fill:#a9e7fa;fill-opacity:1" d="M76.363 113.094 59.984 83.898l110.493 29.407"/><path style="fill:none;stroke-width:5;stroke-linecap:round;stroke-linejoin:round;stroke:#000;stroke-opacity:1;stroke-miterlimit:10" d="m766.738 271.623-164.455 293.14" transform="matrix(.0996 0 0 -.0996 0 140.146)"/><path style="fill-rule:nonzero;fill:#a9e7fa;fill-opacity:1;stroke-width:5;stroke-linecap:round;stroke-linejoin:round;stroke:#000;stroke-opacity:1;stroke-miterlimit:10" d="m1711.698 269.505-164.18-203.206-780.78 205.324" transform="matrix(.0996 0 0 -.0996 0 140.146)"/><path style="stroke:none;fill-rule:nonzero;fill:#b94e00;fill-opacity:1" d="m194.066 67.504-39.941 66.039 16.352-20.238"/><path style="fill:none;stroke-width:5;stroke-linecap:round;stroke-linejoin:round;stroke:#000;stroke-opacity:1;stroke-miterlimit:10" d="M1948.556 729.375 1547.517 66.299l164.181 203.206Zm0 0" transform="matrix(.0996 0 0 -.0996 0 140.146)"/><path style="stroke:none;fill-rule:nonzero;fill:#b3f2f4;fill-opacity:1" d="m5.297 78.11 54.687 5.788 16.38 29.196"/><path style="fill:none;stroke-width:5;stroke-linecap:round;stroke-linejoin:round;stroke:#000;stroke-opacity:1;stroke-miterlimit:10" d="m53.184 622.89 549.099-58.127 164.455-293.14Zm0 0" transform="matrix(.0996 0 0 -.0996 0 140.146)"/><path style="stroke:none;fill-rule:nonzero;fill:#d07662;fill-opacity:1" d="m5.297 78.11 66.687-43.934-12 49.722"/><path style="fill:none;stroke-width:5;stroke-linecap:round;stroke-linejoin:round;stroke:#000;stroke-opacity:1;stroke-miterlimit:10" d="m53.184 622.89 669.587 441.122-120.488-499.249Zm0 0" transform="matrix(.0996 0 0 -.0996 0 140.146)"/><path style="fill-rule:nonzero;fill:#baa0be;fill-opacity:1;stroke-width:5;stroke-linecap:round;stroke-linejoin:round;stroke:#000;stroke-opacity:1;stroke-miterlimit:10" d="m1948.556 729.375-500.778 595.615-725.007-260.978M766.738 271.623l780.78-205.324 401.038 663.076" transform="matrix(.0996 0 0 -.0996 0 140.146)"/><path style="stroke:none;fill-rule:nonzero;fill:#baa0be;fill-opacity:1" d="m71.984 34.176 4.38 78.918 117.702-45.59"/><path style="fill:none;stroke-width:5;stroke-linecap:round;stroke-linejoin:round;stroke:#000;stroke-opacity:1;stroke-miterlimit:10" d="m722.771 1064.012 43.967-792.39" transform="matrix(.0996 0 0 -.0996 0 140.146)"/><path style="stroke:none;fill-rule:nonzero;fill:#b299bd;fill-opacity:1" d="m5.297 78.11 71.066 34.984-4.379-78.918"/><path style="fill:none;stroke-width:5;stroke-linecap:round;stroke-linejoin:round;stroke:#000;stroke-opacity:1;stroke-miterlimit:10" d="m53.184 622.89 713.554-351.267-43.967 792.389Zm0 0" transform="matrix(.0996 0 0 -.0996 0 140.146)"/></svg>