<svg xmlns="http://www.w3.org/2000/svg" width="227pt" height="200pt" viewBox="0 0 227 200" version="1.2"><path style="stroke:none;fill-rule:nonzero;fill:#b08aad;fill-opacity:1" d="m148.805 76.52-22.91 44.136-27.258-41.68"/><path style="fill:none;stroke-width:6.82;stroke-linecap:round;stroke-linejoin:round;stroke:#000;stroke-opacity:1;stroke-miterlimit:10" d="m1488.047 1234.805-229.102-441.368-272.578 416.797Zm0 0" transform="matrix(.1 0 0 -.1 0 200)"/><path style="stroke:none;fill-rule:nonzero;fill:#6b6bc0;fill-opacity:1" d="m125.895 120.656 22.91-44.136 4.867 116.105"/><path style="fill:none;stroke-width:6.82;stroke-linecap:round;stroke-linejoin:round;stroke:#000;stroke-opacity:1;stroke-miterlimit:10" d="m1258.945 793.438 229.102 441.367" transform="matrix(.1 0 0 -.1 0 200)"/><path style="fill-rule:nonzero;fill:#6b6bc0;fill-opacity:1;stroke-width:6.82;stroke-linecap:round;stroke-linejoin:round;stroke:#000;stroke-opacity:1;stroke-miterlimit:10" d="m1536.719 73.75-267.657 253.828-10.117 465.86" transform="matrix(.1 0 0 -.1 0 200)"/><path style="stroke:none;fill-rule:nonzero;fill:#dbc8c6;fill-opacity:1" d="m125.895 120.656 1.011 46.586-102.16-83.765"/><path style="fill:none;stroke-width:6.82;stroke-linecap:round;stroke-linejoin:round;stroke:#000;stroke-opacity:1;stroke-miterlimit:10" d="m1258.945 793.438 10.118-465.86" transform="matrix(.1 0 0 -.1 0 200)"/><path style="stroke:none;fill-rule:nonzero;fill:#dbc8c6;fill-opacity:1" d="m98.637 78.977 27.258 41.68-101.149-37.18"/><path style="fill:none;stroke-width:6.82;stroke-linecap:round;stroke-linejoin:round;stroke:#000;stroke-opacity:1;stroke-miterlimit:10" d="m986.367 1210.234 272.578-416.796" transform="matrix(.1 0 0 -.1 0 200)"/><path style="stroke:none;fill-rule:nonzero;fill:#a1404f;fill-opacity:1" d="m98.637 78.977-40.64-16.438L84.038 7.414"/><path style="fill:none;stroke-width:6.82;stroke-linecap:round;stroke-linejoin:round;stroke:#000;stroke-opacity:1;stroke-miterlimit:10" d="M986.367 1210.234 579.961 1374.61" transform="matrix(.1 0 0 -.1 0 200)"/><path style="stroke:none;fill-rule:nonzero;fill:#a1404f;fill-opacity:1" d="m148.805 76.52-50.168 2.457L84.039 7.414"/><path style="fill:none;stroke-width:6.82;stroke-linecap:round;stroke-linejoin:round;stroke:#000;stroke-opacity:1;stroke-miterlimit:10" d="m1488.047 1234.805-501.68-24.57" transform="matrix(.1 0 0 -.1 0 200)"/><path style="fill-rule:nonzero;fill:#dbc8c6;fill-opacity:1;stroke-width:6.82;stroke-linecap:round;stroke-linejoin:round;stroke:#000;stroke-opacity:1;stroke-miterlimit:10" d="m247.46 1165.234 332.5 209.375 406.407-164.375" transform="matrix(.1 0 0 -.1 0 200)"/><path style="stroke:none;fill-rule:nonzero;fill:#6b6bc0;fill-opacity:1" d="m148.805 76.52 36.605-20.504-31.738 136.609"/><path style="fill:none;stroke-width:6.82;stroke-linecap:round;stroke-linejoin:round;stroke:#000;stroke-opacity:1;stroke-miterlimit:10" d="m1488.047 1234.805 366.055 205.039" transform="matrix(.1 0 0 -.1 0 200)"/><path style="stroke:none;fill-rule:nonzero;fill:#a1404f;fill-opacity:1" d="M185.41 56.016 148.805 76.52 84.039 7.414"/><path style="fill:none;stroke-width:6.82;stroke-linecap:round;stroke-linejoin:round;stroke:#000;stroke-opacity:1;stroke-miterlimit:10" d="m1854.102 1439.844-366.055-205.04" transform="matrix(.1 0 0 -.1 0 200)"/><path style="stroke:none;fill-rule:nonzero;fill:#9cbff0;fill-opacity:1" d="m126.906 167.242 26.766 25.383-55.113 1.906"/><path style="fill:none;stroke-width:6.82;stroke-linecap:round;stroke-linejoin:round;stroke:#000;stroke-opacity:1;stroke-miterlimit:10" d="M1269.063 327.578 1536.718 73.75 985.586 54.687Zm0 0" transform="matrix(.1 0 0 -.1 0 200)"/><path style="stroke:none;fill-rule:nonzero;fill:#dbc8c6;fill-opacity:1" d="m126.906 167.242-28.347 27.29L24.746 83.476"/><path style="fill:none;stroke-width:6.82;stroke-linecap:round;stroke-linejoin:round;stroke:#000;stroke-opacity:1;stroke-miterlimit:10" d="M1269.063 327.578 985.586 54.688" transform="matrix(.1 0 0 -.1 0 200)"/><path style="stroke:none;fill-rule:nonzero;fill:#ed9864;fill-opacity:1" d="m49.102 33.402 8.894 29.137-33.25 20.938"/><path style="fill:none;stroke-width:6.82;stroke-linecap:round;stroke-linejoin:round;stroke:#000;stroke-opacity:1;stroke-miterlimit:10" d="m491.016 1665.977 88.945-291.368-332.5-209.375Zm0 0" transform="matrix(.1 0 0 -.1 0 200)"/><path style="fill-rule:nonzero;fill:#a1404f;fill-opacity:1;stroke-width:6.82;stroke-linecap:round;stroke-linejoin:round;stroke:#000;stroke-opacity:1;stroke-miterlimit:10" d="m579.96 1374.61-88.944 291.367 349.375 259.882" transform="matrix(.1 0 0 -.1 0 200)"/><path style="stroke:none;fill-rule:nonzero;fill:#270047;fill-opacity:1" d="M217.352 74.078 185.41 56.016l1.207-30.164"/><path style="fill:none;stroke-width:6.82;stroke-linecap:round;stroke-linejoin:round;stroke:#000;stroke-opacity:1;stroke-miterlimit:10" d="m2173.516 1259.219-319.414 180.625 12.07 301.64Zm0 0" transform="matrix(.1 0 0 -.1 0 200)"/><path style="stroke:none;fill-rule:nonzero;fill:#6b6bc0;fill-opacity:1" d="m185.41 56.016 31.942 18.062-63.68 118.547"/><path style="fill:none;stroke-width:6.82;stroke-linecap:round;stroke-linejoin:round;stroke:#000;stroke-opacity:1;stroke-miterlimit:10" d="m1854.102 1439.844 319.414-180.625" transform="matrix(.1 0 0 -.1 0 200)"/><path style="stroke:none;fill-rule:nonzero;fill:#a1404f;fill-opacity:1" d="m186.617 25.852-1.207 30.164L84.04 7.414"/><path style="fill:none;stroke-width:6.82;stroke-linecap:round;stroke-linejoin:round;stroke:#000;stroke-opacity:1;stroke-miterlimit:10" d="m1866.172 1741.484-12.07-301.64" transform="matrix(.1 0 0 -.1 0 200)"/><path style="stroke:none;fill-rule:nonzero;fill:#dbc8c6;fill-opacity:1" d="m98.559 194.531-44.832-12.105-28.98-98.95"/><path style="fill:none;stroke-width:6.82;stroke-linecap:round;stroke-linejoin:round;stroke:#000;stroke-opacity:1;stroke-miterlimit:10" d="m985.586 54.688-448.32 121.054" transform="matrix(.1 0 0 -.1 0 200)"/><path style="fill-rule:nonzero;fill:#dbc8c6;fill-opacity:1;stroke-width:6.82;stroke-linecap:round;stroke-linejoin:round;stroke:#000;stroke-opacity:1;stroke-miterlimit:10" d="M537.266 175.742 215.39 656.328l32.07 508.906" transform="matrix(.1 0 0 -.1 0 200)"/><path style="stroke:none;fill-rule:nonzero;fill:#8b1317;fill-opacity:1" d="m98.559 194.531 55.113-1.906-110.211-32.05"/><path style="fill:none;stroke-width:6.82;stroke-linecap:round;stroke-linejoin:round;stroke:#000;stroke-opacity:1;stroke-miterlimit:10" d="m985.586 54.688 551.133 19.062" transform="matrix(.1 0 0 -.1 0 200)"/><path style="fill-rule:nonzero;fill:#8b1317;fill-opacity:1;stroke-width:6.82;stroke-linecap:round;stroke-linejoin:round;stroke:#000;stroke-opacity:1;stroke-miterlimit:10" d="m434.61 394.258 102.656-218.516 448.32-121.054" transform="matrix(.1 0 0 -.1 0 200)"/><path style="fill-rule:nonzero;fill:#6b6bc0;fill-opacity:1;stroke-width:6.82;stroke-linecap:round;stroke-linejoin:round;stroke:#000;stroke-opacity:1;stroke-miterlimit:10" d="M2225.39 741.563 1944.22 226.718l-407.5-152.969" transform="matrix(.1 0 0 -.1 0 200)"/><path style="stroke:none;fill-rule:nonzero;fill:#6b6bc0;fill-opacity:1" d="m217.352 74.078 5.187 51.766-68.867 66.781"/><path style="fill:none;stroke-width:6.82;stroke-linecap:round;stroke-linejoin:round;stroke:#000;stroke-opacity:1;stroke-miterlimit:10" d="m2173.516 1259.219 51.875-517.657" transform="matrix(.1 0 0 -.1 0 200)"/><path style="stroke:none;fill-rule:nonzero;fill:#8b1317;fill-opacity:1" d="m153.672 192.625 40.75-15.297L43.46 160.574"/><path style="fill:none;stroke-width:6.82;stroke-linecap:round;stroke-linejoin:round;stroke:#000;stroke-opacity:1;stroke-miterlimit:10" d="m1536.719 73.75 407.5 152.969" transform="matrix(.1 0 0 -.1 0 200)"/><path style="stroke:none;fill-rule:nonzero;fill:#fedc96;fill-opacity:1" d="m3.617 85.285 21.13-1.808-3.208 50.89"/><path style="fill:none;stroke-width:6.82;stroke-linecap:round;stroke-linejoin:round;stroke:#000;stroke-opacity:1;stroke-miterlimit:10" d="m36.172 1147.148 211.289 18.086-32.07-508.906Zm0 0" transform="matrix(.1 0 0 -.1 0 200)"/><path style="fill-rule:nonzero;fill:#ef8f3c;fill-opacity:1;stroke-width:6.82;stroke-linecap:round;stroke-linejoin:round;stroke:#000;stroke-opacity:1;stroke-miterlimit:10" d="M491.016 1665.977 247.46 1165.234l-211.29-18.086" transform="matrix(.1 0 0 -.1 0 200)"/><path style="fill-rule:nonzero;fill:#ef8f3c;fill-opacity:1;stroke-width:6.82;stroke-linecap:round;stroke-linejoin:round;stroke:#000;stroke-opacity:1;stroke-miterlimit:10" d="m36.172 1147.148 263.71 548.438 191.134-29.61" transform="matrix(.1 0 0 -.1 0 200)"/><path style="stroke:none;fill-rule:nonzero;fill:#a01100;fill-opacity:1" d="M29.988 30.441 84.04 7.414 49.102 33.402"/><path style="fill:none;stroke-width:6.82;stroke-linecap:round;stroke-linejoin:round;stroke:#000;stroke-opacity:1;stroke-miterlimit:10" d="m299.883 1695.586 540.508 230.273-349.375-259.882Zm0 0" transform="matrix(.1 0 0 -.1 0 200)"/><path style="stroke:none;fill-rule:nonzero;fill:#e4d7c9;fill-opacity:1" d="m217.352 74.078-30.735-48.226-73.953 55.074"/><path style="fill:none;stroke-width:6.82;stroke-linecap:round;stroke-linejoin:round;stroke:#000;stroke-opacity:1;stroke-miterlimit:10" d="m2173.516 1259.219-307.344 482.265" transform="matrix(.1 0 0 -.1 0 200)"/><path style="stroke:none;fill-rule:nonzero;fill:#e4d7c9;fill-opacity:1" d="m222.54 125.844-5.188-51.766-104.688 6.848"/><path style="fill:none;stroke-width:6.82;stroke-linecap:round;stroke-linejoin:round;stroke:#000;stroke-opacity:1;stroke-miterlimit:10" d="m2225.39 741.563-51.874 517.656" transform="matrix(.1 0 0 -.1 0 200)"/><path style="fill-rule:nonzero;fill:#a1404f;fill-opacity:1;stroke-width:6.82;stroke-linecap:round;stroke-linejoin:round;stroke:#000;stroke-opacity:1;stroke-miterlimit:10" d="m840.39 1925.86 603.438 34.96 422.344-219.336" transform="matrix(.1 0 0 -.1 0 200)"/><path style="stroke:none;fill-rule:nonzero;fill:#e4d7c9;fill-opacity:1" d="M186.617 25.852 144.383 3.918l-31.719 77.008"/><path style="fill:none;stroke-width:6.82;stroke-linecap:round;stroke-linejoin:round;stroke:#000;stroke-opacity:1;stroke-miterlimit:10" d="m1866.172 1741.484-422.344 219.336" transform="matrix(.1 0 0 -.1 0 200)"/><path style="stroke:none;fill-rule:nonzero;fill:#000;fill-opacity:1" d="m21.54 134.367 32.187 48.059-10.266-21.852"/><path style="fill:none;stroke-width:6.82;stroke-linecap:round;stroke-linejoin:round;stroke:#000;stroke-opacity:1;stroke-miterlimit:10" d="m215.39 656.328 321.876-480.586-102.657 218.516Zm0 0" transform="matrix(.1 0 0 -.1 0 200)"/><path style="fill-rule:nonzero;fill:#00000a;fill-opacity:1;stroke-width:6.82;stroke-linecap:round;stroke-linejoin:round;stroke:#000;stroke-opacity:1;stroke-miterlimit:10" d="m215.39 656.328 219.22-262.07-182.735 518.594" transform="matrix(.1 0 0 -.1 0 200)"/><path style="fill-rule:nonzero;fill:#00000a;fill-opacity:1;stroke-width:6.82;stroke-linecap:round;stroke-linejoin:round;stroke:#000;stroke-opacity:1;stroke-miterlimit:10" d="M251.875 912.852 36.172 1147.148l179.219-490.82" transform="matrix(.1 0 0 -.1 0 200)"/><path style="stroke:none;fill-rule:nonzero;fill:#dc7200;fill-opacity:1" d="m194.422 177.328 28.117-51.484-25.96 28.758"/><path style="fill:none;stroke-width:6.82;stroke-linecap:round;stroke-linejoin:round;stroke:#000;stroke-opacity:1;stroke-miterlimit:10" d="m1944.219 226.719 281.172 514.843-259.61-287.578Zm0 0" transform="matrix(.1 0 0 -.1 0 200)"/><path style="stroke:none;fill-rule:nonzero;fill:#8b1317;fill-opacity:1" d="m194.422 177.328 2.156-22.726-153.117 5.972"/><path style="fill:none;stroke-width:6.82;stroke-linecap:round;stroke-linejoin:round;stroke:#000;stroke-opacity:1;stroke-miterlimit:10" d="m1944.219 226.719 21.562 227.265" transform="matrix(.1 0 0 -.1 0 200)"/><path style="stroke:none;fill-rule:nonzero;fill:#e4d7c9;fill-opacity:1" d="m196.578 154.602 25.961-28.758-109.875-44.918"/><path style="fill:none;stroke-width:6.82;stroke-linecap:round;stroke-linejoin:round;stroke:#000;stroke-opacity:1;stroke-miterlimit:10" d="m1965.781 453.984 259.61 287.579" transform="matrix(.1 0 0 -.1 0 200)"/><path style="stroke:none;fill-rule:nonzero;fill:#77c7ff;fill-opacity:1" d="m112.027 23.973 32.356-20.055-60.344 3.496"/><path style="fill:none;stroke-width:6.82;stroke-linecap:round;stroke-linejoin:round;stroke:#000;stroke-opacity:1;stroke-miterlimit:10" d="m1120.273 1760.273 323.555 200.547-603.437-34.96Zm0 0" transform="matrix(.1 0 0 -.1 0 200)"/><path style="fill-rule:nonzero;fill:#71b4f9;fill-opacity:1;stroke-width:6.82;stroke-linecap:round;stroke-linejoin:round;stroke:#000;stroke-opacity:1;stroke-miterlimit:10" d="M1120.273 1760.273 840.391 1925.86l-540.508-230.273" transform="matrix(.1 0 0 -.1 0 200)"/><path style="fill-rule:nonzero;fill:#e4d7c9;fill-opacity:1;stroke-width:6.82;stroke-linecap:round;stroke-linejoin:round;stroke:#000;stroke-opacity:1;stroke-miterlimit:10" d="m1443.828 1960.82-323.555-200.547 6.368-569.53" transform="matrix(.1 0 0 -.1 0 200)"/><path style="fill-rule:nonzero;fill:#3b4dba;fill-opacity:1;stroke-width:6.82;stroke-linecap:round;stroke-linejoin:round;stroke:#000;stroke-opacity:1;stroke-miterlimit:10" d="M299.883 1695.586 36.172 1147.148l215.703-234.296" transform="matrix(.1 0 0 -.1 0 200)"/><path style="fill-rule:nonzero;fill:#71b4f9;fill-opacity:1;stroke-width:6.82;stroke-linecap:round;stroke-linejoin:round;stroke:#000;stroke-opacity:1;stroke-miterlimit:10" d="m299.883 1695.586 241.992-190.703 578.398 255.39" transform="matrix(.1 0 0 -.1 0 200)"/><path style="fill-rule:nonzero;fill:#3b4dba;fill-opacity:1;stroke-width:6.82;stroke-linecap:round;stroke-linejoin:round;stroke:#000;stroke-opacity:1;stroke-miterlimit:10" d="m251.875 912.852 290 592.03-241.992 190.704" transform="matrix(.1 0 0 -.1 0 200)"/><path style="fill-rule:nonzero;fill:#8b1317;fill-opacity:1;stroke-width:6.82;stroke-linecap:round;stroke-linejoin:round;stroke:#000;stroke-opacity:1;stroke-miterlimit:10" d="m1498.281 620.938-676.406-27.93-387.266-198.75" transform="matrix(.1 0 0 -.1 0 200)"/><path style="stroke:none;fill-rule:nonzero;fill:#8b1317;fill-opacity:1" d="m196.578 154.602-46.75-16.696-106.367 22.668"/><path style="fill:none;stroke-width:6.82;stroke-linecap:round;stroke-linejoin:round;stroke:#000;stroke-opacity:1;stroke-miterlimit:10" d="m1965.781 453.984-467.5 166.954" transform="matrix(.1 0 0 -.1 0 200)"/><path style="stroke:none;fill-rule:nonzero;fill:#7c3971;fill-opacity:1" d="m25.188 108.715 18.273 51.86 38.727-19.876"/><path style="fill:none;stroke-width:6.82;stroke-linecap:round;stroke-linejoin:round;stroke:#000;stroke-opacity:1;stroke-miterlimit:10" d="m251.875 912.852 182.734-518.594 387.266 198.75Zm0 0" transform="matrix(.1 0 0 -.1 0 200)"/><path style="fill-rule:nonzero;fill:#e4d7c9;fill-opacity:1;stroke-width:6.82;stroke-linecap:round;stroke-linejoin:round;stroke:#000;stroke-opacity:1;stroke-miterlimit:10" d="m1126.64 1190.742 371.641-569.804 467.5-166.954" transform="matrix(.1 0 0 -.1 0 200)"/><path style="stroke:none;fill-rule:nonzero;fill:#b7b3d5;fill-opacity:1" d="m54.188 49.512 58.476 31.414-.637-56.953"/><path style="fill:none;stroke-width:6.82;stroke-linecap:round;stroke-linejoin:round;stroke:#000;stroke-opacity:1;stroke-miterlimit:10" d="m541.875 1504.883 584.766-314.14-6.368 569.53Zm0 0" transform="matrix(.1 0 0 -.1 0 200)"/><path style="fill-rule:nonzero;fill:#a482b0;fill-opacity:1;stroke-width:6.82;stroke-linecap:round;stroke-linejoin:round;stroke:#000;stroke-opacity:1;stroke-miterlimit:10" d="m541.875 1504.883-290-592.031 570-319.844" transform="matrix(.1 0 0 -.1 0 200)"/><path style="fill-rule:nonzero;fill:#a482b0;fill-opacity:1;stroke-width:6.82;stroke-linecap:round;stroke-linejoin:round;stroke:#000;stroke-opacity:1;stroke-miterlimit:10" d="m821.875 593.008 304.766 597.734-584.766 314.14" transform="matrix(.1 0 0 -.1 0 200)"/><path style="stroke:none;fill-rule:nonzero;fill:#af87ab;fill-opacity:1" d="m82.188 140.7 67.64-2.794-37.164-56.98"/><path style="fill:none;stroke-width:6.82;stroke-linecap:round;stroke-linejoin:round;stroke:#000;stroke-opacity:1;stroke-miterlimit:10" d="m821.875 593.008 676.406 27.93-371.64 569.804Zm0 0" transform="matrix(.1 0 0 -.1 0 200)"/></svg>