<svg xmlns="http://www.w3.org/2000/svg" width="273.133" height="251.853" viewBox="0 0 204.85 188.89" version="1.2"><defs><clipPath id="a"><path d="M136 59h68.7v93H136Zm0 0"/></clipPath><clipPath id="b"><path d="M136 58h68.7v94H136Zm0 0"/></clipPath><clipPath id="c"><path d="M64 .016h87V94H64Zm0 0"/></clipPath><clipPath id="d"><path d="M85 .016h91V60H85Zm0 0"/></clipPath><clipPath id="e"><path d="M150 17h54.7v97H150Zm0 0"/></clipPath><clipPath id="f"><path d="M149 17h55.7v97H149Zm0 0"/></clipPath><clipPath id="g"><path d="M136 113h68.7v75.766H136Zm0 0"/></clipPath><clipPath id="h"><path d="M58 122h83v66.766H58Zm0 0"/></clipPath><clipPath id="i"><path d="M58 122h84v66.766H58Zm0 0"/></clipPath><clipPath id="j"><path d="M0 .016h86V94H0Zm0 0"/></clipPath><clipPath id="k"><path d="M0 .016h87V94H0Zm0 0"/></clipPath><clipPath id="l"><path d="M0 .016h86V42H0Zm0 0"/></clipPath><clipPath id="m"><path d="M0 .016h87V43H0Zm0 0"/></clipPath><clipPath id="n"><path d="M82 .016h94V18H82Zm0 0"/></clipPath><clipPath id="o"><path d="M82 .016h94V19H82Zm0 0"/></clipPath><clipPath id="p"><path d="M160 17h44.7v97H160Zm0 0"/></clipPath><clipPath id="q"><path d="M140 100h64.7v88.766H140Zm0 0"/></clipPath><clipPath id="r"><path d="M58 100h103v88.766H58Zm0 0"/></clipPath><clipPath id="s"><path d="M58 100h104v88.766H58Zm0 0"/></clipPath></defs><g clip-path="url(#a)"><path style="stroke:none;fill-rule:nonzero;fill:#8266ba;fill-opacity:1" d="M204.371 113.344 136.516 151.3l13.644-92.246Zm0 0"/></g><g clip-path="url(#b)"><path style="fill:none;stroke-width:6.54;stroke-linecap:round;stroke-linejoin:round;stroke:#231f20;stroke-opacity:1;stroke-miterlimit:10" d="m2045.207 754.774-679.051-379.848 136.545 923.136Zm0 0" transform="matrix(.09993 0 0 -.09993 0 188.766)"/></g><path style="fill-rule:nonzero;fill:#bc8fb6;fill-opacity:1;stroke-width:6.54;stroke-linecap:round;stroke-linejoin:round;stroke:#231f20;stroke-opacity:1;stroke-miterlimit:10" d="m643.87 957.579 858.831 340.483-136.545-923.136Zm0 0" transform="matrix(.09993 0 0 -.09993 0 188.766)"/><g clip-path="url(#c)"><path style="fill-rule:nonzero;fill:#c185a2;fill-opacity:1;stroke-width:6.54;stroke-linecap:round;stroke-linejoin:round;stroke:#231f20;stroke-opacity:1;stroke-miterlimit:10" d="M1502.701 1298.062 643.87 957.58l214.375 928.023Zm0 0" transform="matrix(.09993 0 0 -.09993 0 188.766)"/></g><g clip-path="url(#d)"><path style="fill-rule:nonzero;fill:#7d275e;fill-opacity:1;stroke-width:6.54;stroke-linecap:round;stroke-linejoin:round;stroke:#231f20;stroke-opacity:1;stroke-miterlimit:10" d="m1753.822 1711.412-251.12-413.35-644.457 587.54Zm0 0" transform="matrix(.09993 0 0 -.09993 0 188.766)"/></g><g clip-path="url(#e)"><path style="stroke:none;fill-rule:nonzero;fill:#46297a;fill-opacity:1" d="m204.371 113.344-54.21-54.29 25.093-41.304Zm0 0"/></g><g clip-path="url(#f)"><path style="fill:none;stroke-width:6.54;stroke-linecap:round;stroke-linejoin:round;stroke:#231f20;stroke-opacity:1;stroke-miterlimit:10" d="m2045.207 754.774-542.506 543.288 251.121 413.35Zm0 0" transform="matrix(.09993 0 0 -.09993 0 188.766)"/></g><g clip-path="url(#g)"><path style="fill-rule:nonzero;fill:#526dbe;fill-opacity:1;stroke-width:6.54;stroke-linecap:round;stroke-linejoin:round;stroke:#231f20;stroke-opacity:1;stroke-miterlimit:10" d="m1409.195 3.287-43.04 371.639 679.052 379.848Zm0 0" transform="matrix(.09993 0 0 -.09993 0 188.766)"/></g><g clip-path="url(#h)"><path style="stroke:none;fill-rule:nonzero;fill:#d9f1d6;fill-opacity:1" d="m136.516 151.3 4.3 37.137-82.476-65.593"/></g><g clip-path="url(#i)"><path style="fill:none;stroke-width:6.54;stroke-linecap:round;stroke-linejoin:round;stroke:#231f20;stroke-opacity:1;stroke-miterlimit:10" d="m1366.156 374.926 43.04-371.64-825.37 656.419" transform="matrix(.09993 0 0 -.09993 0 188.766)"/></g><path style="fill-rule:nonzero;fill:#d9f1d6;fill-opacity:1;stroke-width:6.54;stroke-linecap:round;stroke-linejoin:round;stroke:#231f20;stroke-opacity:1;stroke-miterlimit:10" d="m583.826 659.705 60.044 297.874 722.286-582.653" transform="matrix(.09993 0 0 -.09993 0 188.766)"/><g clip-path="url(#j)"><path style="stroke:none;fill-rule:nonzero;fill:#ce8d99;fill-opacity:1" d="M.328 41.766 85.762.344 64.34 93.078Zm0 0"/></g><g clip-path="url(#k)"><path style="fill:none;stroke-width:6.54;stroke-linecap:round;stroke-linejoin:round;stroke:#231f20;stroke-opacity:1;stroke-miterlimit:10" d="m3.284 1471.08 854.961 414.522L643.87 957.579Zm0 0" transform="matrix(.09993 0 0 -.09993 0 188.766)"/></g><path style="fill-rule:nonzero;fill:#e1f3c5;fill-opacity:1;stroke-width:6.54;stroke-linecap:round;stroke-linejoin:round;stroke:#231f20;stroke-opacity:1;stroke-miterlimit:10" d="M583.826 659.705 3.284 1471.079l640.586-513.5Zm0 0" transform="matrix(.09993 0 0 -.09993 0 188.766)"/><g clip-path="url(#l)"><path style="stroke:none;fill-rule:nonzero;fill:#4d85cd;fill-opacity:1" d="M82.738 17.371 85.762.344.328 41.766Zm0 0"/></g><g clip-path="url(#m)"><path style="fill:none;stroke-width:6.54;stroke-linecap:round;stroke-linejoin:round;stroke:#231f20;stroke-opacity:1;stroke-miterlimit:10" d="m827.989 1715.203 30.256 170.399L3.284 1471.079Zm0 0" transform="matrix(.09993 0 0 -.09993 0 188.766)"/></g><g clip-path="url(#n)"><path style="stroke:none;fill-rule:nonzero;fill:#87d8f3;fill-opacity:1" d="M175.254 17.75 85.762.344 82.738 17.37Zm0 0"/></g><g clip-path="url(#o)"><path style="fill:none;stroke-width:6.54;stroke-linecap:round;stroke-linejoin:round;stroke:#231f20;stroke-opacity:1;stroke-miterlimit:10" d="m1753.822 1711.412-895.577 174.19-30.256-170.399Zm0 0" transform="matrix(.09993 0 0 -.09993 0 188.766)"/></g><g clip-path="url(#p)"><path style="fill-rule:nonzero;fill:#f6d39d;fill-opacity:1;stroke-width:6.54;stroke-linecap:round;stroke-linejoin:round;stroke:#231f20;stroke-opacity:1;stroke-miterlimit:10" d="m1609.224 884.127 435.983-129.353-291.385 956.638Zm0 0" transform="matrix(.09993 0 0 -.09993 0 188.766)"/></g><g clip-path="url(#q)"><path style="fill-rule:nonzero;fill:#e98b5f;fill-opacity:1;stroke-width:6.54;stroke-linecap:round;stroke-linejoin:round;stroke:#231f20;stroke-opacity:1;stroke-miterlimit:10" d="m1409.195 3.287 636.012 751.487-435.983 129.353Zm0 0" transform="matrix(.09993 0 0 -.09993 0 188.766)"/></g><path style="fill-rule:nonzero;fill:#8d62b2;fill-opacity:1;stroke-width:6.54;stroke-linecap:round;stroke-linejoin:round;stroke:#231f20;stroke-opacity:1;stroke-miterlimit:10" d="M827.989 1715.203 3.284 1471.08l580.542-811.374Zm0 0" transform="matrix(.09993 0 0 -.09993 0 188.766)"/><path style="fill-rule:nonzero;fill:#cdbed2;fill-opacity:1;stroke-width:6.54;stroke-linecap:round;stroke-linejoin:round;stroke:#231f20;stroke-opacity:1;stroke-miterlimit:10" d="m1753.822 1711.412-925.833 3.791 781.235-831.076Zm0 0" transform="matrix(.09993 0 0 -.09993 0 188.766)"/><g clip-path="url(#r)"><path style="stroke:none;fill-rule:nonzero;fill:#a25e96;fill-opacity:1" d="M160.805 100.418 58.34 122.844l82.476 65.594Zm0 0"/></g><g clip-path="url(#s)"><path style="fill:none;stroke-width:6.54;stroke-linecap:round;stroke-linejoin:round;stroke:#231f20;stroke-opacity:1;stroke-miterlimit:10" d="M1609.224 884.127 583.826 659.705l825.37-656.418Zm0 0" transform="matrix(.09993 0 0 -.09993 0 188.766)"/></g><path style="fill-rule:nonzero;fill:#a16eaf;fill-opacity:1;stroke-width:6.54;stroke-linecap:round;stroke-linejoin:round;stroke:#231f20;stroke-opacity:1;stroke-miterlimit:10" d="M827.989 1715.203 583.826 659.705l1025.398 224.422Zm0 0" transform="matrix(.09993 0 0 -.09993 0 188.766)"/></svg>