<svg xmlns="http://www.w3.org/2000/svg" width="176pt" height="256" viewBox="0 0 176 192" version="1.2"><path style="stroke:none;fill-rule:evenodd;fill:#ad96ac;fill-opacity:1" d="m66.77 108.918 78.585 26.168-18.917-86.965-59.668 60.797"/><path style="fill:none;stroke-width:6.25;stroke-linecap:butt;stroke-linejoin:miter;stroke:#231f20;stroke-opacity:1;stroke-miterlimit:4" d="m667.695 830.82 785.86-261.68-189.18 869.65Zm0 0" transform="matrix(.1 0 0 -.1 0 192)"/><path style="stroke:none;fill-rule:evenodd;fill:#e0c8bc;fill-opacity:1" d="m20.16 159.36 46.61-50.442L2.574 68.203 20.16 159.36"/><path style="fill:none;stroke-width:6.25;stroke-linecap:butt;stroke-linejoin:miter;stroke:#231f20;stroke-opacity:1;stroke-miterlimit:4" d="M201.602 326.406 667.695 830.82 25.742 1237.97Zm0 0" transform="matrix(.1 0 0 -.1 0 192)"/><path style="fill-rule:evenodd;fill:#c69790;fill-opacity:1;stroke-width:6.25;stroke-linecap:butt;stroke-linejoin:miter;stroke:#231f20;stroke-opacity:1;stroke-miterlimit:4" d="M25.742 1237.969 667.695 830.82l596.68 607.97" transform="matrix(.1 0 0 -.1 0 192)"/><path style="fill-rule:evenodd;fill:#b2b5d4;fill-opacity:1;stroke-width:6.25;stroke-linecap:butt;stroke-linejoin:miter;stroke:#231f20;stroke-opacity:1;stroke-miterlimit:4" d="M1041.719 10.313 201.602 326.406 667.695 830.82M667.695 830.82l785.86-261.68-411.836-558.827" transform="matrix(.1 0 0 -.1 0 192)"/><path style="stroke:none;fill-rule:evenodd;fill:#714747;fill-opacity:1" d="m64.766 1.094 88.062 23.312-26.39 23.715L64.766 1.094"/><path style="fill:none;stroke-width:6.25;stroke-linecap:butt;stroke-linejoin:miter;stroke:#231f20;stroke-opacity:1;stroke-miterlimit:4" d="m647.656 1909.063 880.625-233.126-263.906-237.148Zm0 0" transform="matrix(.1 0 0 -.1 0 192)"/><path style="fill-rule:evenodd;fill:#554365;fill-opacity:1;stroke-width:6.25;stroke-linecap:butt;stroke-linejoin:miter;stroke:#231f20;stroke-opacity:1;stroke-miterlimit:4" d="m1749.688 686.055-221.407 989.883-263.906-237.149" transform="matrix(.1 0 0 -.1 0 192)"/><path style="fill-rule:evenodd;fill:#554365;fill-opacity:1;stroke-width:6.25;stroke-linecap:butt;stroke-linejoin:miter;stroke:#231f20;stroke-opacity:1;stroke-miterlimit:4" d="m1264.375 1438.79 189.18-869.65 296.132 116.915" transform="matrix(.1 0 0 -.1 0 192)"/><path style="fill-rule:evenodd;fill:#c69790;fill-opacity:1;stroke-width:6.25;stroke-linecap:butt;stroke-linejoin:miter;stroke:#231f20;stroke-opacity:1;stroke-miterlimit:4" d="m1264.375 1438.79-616.719 470.273-621.914-671.094" transform="matrix(.1 0 0 -.1 0 192)"/><path style="stroke:none;fill-rule:evenodd;fill:#3d5795;fill-opacity:1" d="m104.172 190.969 41.183-55.883 29.614-11.691-70.797 67.574"/><path style="fill:none;stroke-width:6.25;stroke-linecap:butt;stroke-linejoin:miter;stroke:#231f20;stroke-opacity:1;stroke-miterlimit:4" d="m1041.719 10.313 411.836 558.828 296.132 116.914Zm0 0" transform="matrix(.1 0 0 -.1 0 192)"/><path style="stroke:none;fill-rule:evenodd;fill:#b35e34;fill-opacity:1" d="M11.973 46.277 64.766 1.094 2.574 68.204l9.399-21.927"/><path style="fill:none;stroke-width:6.25;stroke-linecap:butt;stroke-linejoin:miter;stroke:#231f20;stroke-opacity:1;stroke-miterlimit:4" d="m119.727 1457.227 527.93 451.835L25.741 1237.97Zm0 0" transform="matrix(.1 0 0 -.1 0 192)"/><path style="fill-rule:evenodd;fill:#3d3740;fill-opacity:1;stroke-width:6.25;stroke-linecap:butt;stroke-linejoin:miter;stroke:#231f20;stroke-opacity:1;stroke-miterlimit:4" d="m25.742 1237.969 93.985 219.258 204.218-1044.61M323.945 412.617l-122.343-86.21-175.86 911.562" transform="matrix(.1 0 0 -.1 0 192)"/><path style="stroke:none;fill-rule:evenodd;fill:#272223;fill-opacity:1" d="m20.16 159.36 84.012 31.609-71.777-40.23-12.235 8.62"/><path style="fill:none;stroke-width:6.25;stroke-linecap:butt;stroke-linejoin:miter;stroke:#231f20;stroke-opacity:1;stroke-miterlimit:4" d="m201.602 326.406 840.117-316.094-717.774 402.305Zm0 0" transform="matrix(.1 0 0 -.1 0 192)"/><path style="fill-rule:evenodd;fill:#a8b7dc;fill-opacity:1;stroke-width:6.25;stroke-linecap:butt;stroke-linejoin:miter;stroke:#231f20;stroke-opacity:1;stroke-miterlimit:4" d="m1068.984 1168.945-949.257 288.282 527.93 451.835" transform="matrix(.1 0 0 -.1 0 192)"/><path style="fill-rule:evenodd;fill:#a8b7dc;fill-opacity:1;stroke-width:6.25;stroke-linecap:butt;stroke-linejoin:miter;stroke:#231f20;stroke-opacity:1;stroke-miterlimit:4" d="m647.656 1909.063 880.625-233.126-459.297-506.992" transform="matrix(.1 0 0 -.1 0 192)"/><path style="fill-rule:evenodd;fill:#c79285;fill-opacity:1;stroke-width:6.25;stroke-linecap:butt;stroke-linejoin:miter;stroke:#231f20;stroke-opacity:1;stroke-miterlimit:4" d="m1749.688 686.055-707.97-675.742-717.773 402.304" transform="matrix(.1 0 0 -.1 0 192)"/><path style="stroke:none;fill-rule:evenodd;fill:#e9d2ba;fill-opacity:1" d="m106.898 75.105 45.93-50.699 22.14 98.989-68.07-48.29"/><path style="fill:none;stroke-width:6.25;stroke-linecap:butt;stroke-linejoin:miter;stroke:#231f20;stroke-opacity:1;stroke-miterlimit:4" d="m1068.984 1168.945 459.297 506.993 221.407-989.883Zm0 0" transform="matrix(.1 0 0 -.1 0 192)"/><path style="fill-rule:evenodd;fill:#c79285;fill-opacity:1;stroke-width:6.25;stroke-linecap:butt;stroke-linejoin:miter;stroke:#231f20;stroke-opacity:1;stroke-miterlimit:4" d="m323.945 412.617 745.04 756.328 680.703-482.89" transform="matrix(.1 0 0 -.1 0 192)"/><path style="stroke:none;fill-rule:evenodd;fill:#a891aa;fill-opacity:1" d="m11.973 46.277 94.925 28.828-74.503 75.633-20.422-104.46"/><path style="fill:none;stroke-width:6.25;stroke-linecap:butt;stroke-linejoin:miter;stroke:#231f20;stroke-opacity:1;stroke-miterlimit:4" d="m119.727 1457.227 949.257-288.282-745.039-756.328Zm0 0" transform="matrix(.1 0 0 -.1 0 192)"/></svg>