<svg xmlns="http://www.w3.org/2000/svg" width="241.147" height="242.76" viewBox="0 0 180.86 182.07" version="1.2"><defs><clipPath id="a"><path d="M171 3h9.332v165H171Zm0 0"/></clipPath><clipPath id="b"><path d="M176 3h4.332v92H176Zm0 0"/></clipPath><clipPath id="c"><path d="M8 163h165v18.145H8Zm0 0"/></clipPath><clipPath id="d"><path d="M88 166h85v15.145H88Zm0 0"/></clipPath><clipPath id="e"><path d="M91 2h89.332v166H91Zm0 0"/></clipPath><clipPath id="f"><path d="M8 93h172.332v88.145H8Zm0 0"/></clipPath><clipPath id="g"><path d="M.39 0H12v164H.39Zm0 0"/></clipPath><clipPath id="h"><path d="M.39 87H49v77H.39Zm0 0"/></clipPath><clipPath id="i"><path d="M.39 90H10v74H.39Zm0 0"/></clipPath><clipPath id="j"><path d="M.39 87H89v94H.39Zm0 0"/></clipPath><clipPath id="k"><path d="M.39 90H89v91.145H.39Zm0 0"/></clipPath><clipPath id="l"><path d="M.39 0H49v91H.39Zm0 0"/></clipPath><clipPath id="m"><path d="M.39 0H12v91H.39Zm0 0"/></clipPath><clipPath id="n"><path d="M.39 2H92v89H.39Zm0 0"/></clipPath><clipPath id="o"><path d="M.39 2H93v89H.39Zm0 0"/></clipPath><clipPath id="p"><path d="M88 2h92.332v179.145H88Zm0 0"/></clipPath><clipPath id="q"><path d="M.39 2H92v179H.39Zm0 0"/></clipPath><clipPath id="r"><path d="M.39 2H93v179.145H.39Zm0 0"/></clipPath></defs><path style="fill-rule:nonzero;fill:#b48fb0;fill-opacity:1;stroke-width:6.79817;stroke-linecap:round;stroke-linejoin:round;stroke:#000;stroke-opacity:1;stroke-miterlimit:10" d="m920.623 291.837-742.366 766.787 772.637 745.233M950.894 1803.857l744.33-777.703-774.6-734.317" transform="matrix(.0995 0 0 -.0995 .39 181.145)"/><path style="fill-rule:nonzero;fill:#6acffb;fill-opacity:1;stroke-width:6.79817;stroke-linecap:round;stroke-linejoin:round;stroke:#000;stroke-opacity:1;stroke-miterlimit:10" d="m88.504 178.723 832.12 113.114 802.2-150.806" transform="matrix(.0995 0 0 -.0995 .39 181.145)"/><path style="stroke:none;fill-rule:nonzero;fill:#8289d1;fill-opacity:1" d="M18.125 75.82 94.996 1.676 93.04 55.332"/><path style="fill:none;stroke-width:6.79817;stroke-linecap:round;stroke-linejoin:round;stroke:#000;stroke-opacity:1;stroke-miterlimit:10" d="m178.257 1058.624 772.637 745.233" transform="matrix(.0995 0 0 -.0995 .39 181.145)"/><path style="stroke:none;fill-rule:nonzero;fill:#d4cad0;fill-opacity:1" d="M94.996 1.676 11.16.344 93.55 41.41"/><path style="fill:none;stroke-width:6.79817;stroke-linecap:round;stroke-linejoin:round;stroke:#000;stroke-opacity:1;stroke-miterlimit:10" d="m950.894 1803.857-842.641 13.388" transform="matrix(.0995 0 0 -.0995 .39 181.145)"/><path style="stroke:none;fill-rule:nonzero;fill:#d4cad0;fill-opacity:1" d="M169.05 79.05 94.997 1.677 93.551 41.41"/><path style="fill:none;stroke-width:6.79817;stroke-linecap:round;stroke-linejoin:round;stroke:#000;stroke-opacity:1;stroke-miterlimit:10" d="m1695.224 1026.154-744.33 777.703" transform="matrix(.0995 0 0 -.0995 .39 181.145)"/><path style="stroke:none;fill-rule:nonzero;fill:#d38374;fill-opacity:1" d="m169.05 79.05-77.066 73.06V84.253"/><path style="fill:none;stroke-width:6.79817;stroke-linecap:round;stroke-linejoin:round;stroke:#000;stroke-opacity:1;stroke-miterlimit:10" d="m1695.224 1026.154-774.6-734.317" transform="matrix(.0995 0 0 -.0995 .39 181.145)"/><path style="stroke:none;fill-rule:nonzero;fill:#d4cad0;fill-opacity:1" d="m93.55 41.41 25.528 41.012 49.973-3.371"/><path style="stroke:none;fill-rule:nonzero;fill:#8289d1;fill-opacity:1" d="M91.984 84.254 18.125 75.82l74.914-20.488"/><path style="stroke:none;fill-rule:nonzero;fill:#d4cad0;fill-opacity:1" d="m11.16.344 80.824 83.91 1.567-42.844"/><path style="stroke:none;fill-rule:nonzero;fill:#d4cad0;fill-opacity:1" d="m91.984 84.254 79.813 82.86L93.55 41.41"/><path style="stroke:none;fill-rule:nonzero;fill:#8289d1;fill-opacity:1" d="m91.984 84.254 1.055-28.922 40.922-11.195"/><path style="stroke:none;fill-rule:nonzero;fill:#8289d1;fill-opacity:1" d="M133.96 44.137 93.04 55.332l1.956-53.656"/><path style="stroke:none;fill-rule:nonzero;fill:#d38374;fill-opacity:1" d="m133.96 44.137 35.09 34.914-77.066 5.203"/><path style="stroke:none;fill-rule:nonzero;fill:#d4cad0;fill-opacity:1" d="m171.797 167.113-2.746-88.062-49.973 3.37"/><path style="fill:none;stroke-width:6.79817;stroke-linecap:round;stroke-linejoin:round;stroke:#000;stroke-opacity:1;stroke-miterlimit:10" d="m1722.825 141.031-27.601 885.123" transform="matrix(.0995 0 0 -.0995 .39 181.145)"/><path style="fill-rule:nonzero;fill:#000032;fill-opacity:1;stroke-width:6.79817;stroke-linecap:round;stroke-linejoin:round;stroke:#000;stroke-opacity:1;stroke-miterlimit:10" d="m1722.825 141.031-27.601 885.123 73.263 757.915" transform="matrix(.0995 0 0 -.0995 .39 181.145)"/><path style="stroke:none;fill-rule:nonzero;fill:#8289d1;fill-opacity:1" d="m94.996 1.676 81.344 1.969-42.38 40.492"/><path style="fill:none;stroke-width:6.79817;stroke-linecap:round;stroke-linejoin:round;stroke:#000;stroke-opacity:1;stroke-miterlimit:10" d="m950.894 1803.857 817.593-19.788" transform="matrix(.0995 0 0 -.0995 .39 181.145)"/><path style="fill-rule:nonzero;fill:#d38374;fill-opacity:1;stroke-width:6.79817;stroke-linecap:round;stroke-linejoin:round;stroke:#000;stroke-opacity:1;stroke-miterlimit:10" d="m920.623 1796.907 847.864-12.838-73.263-757.915" transform="matrix(.0995 0 0 -.0995 .39 181.145)"/><path style="stroke:none;fill-rule:nonzero;fill:#000032;fill-opacity:1" d="m176.34 3.645 3.652 90.652-8.195 72.816"/><g clip-path="url(#a)"><path style="fill:none;stroke-width:6.79817;stroke-linecap:round;stroke-linejoin:round;stroke:#000;stroke-opacity:1;stroke-miterlimit:10" d="m1768.487 1784.069 36.71-911.154-82.372-731.884" transform="matrix(.0995 0 0 -.0995 .39 181.145)"/></g><path style="stroke:none;fill-rule:nonzero;fill:#8289d1;fill-opacity:1" d="m176.34 3.645 3.652 90.652-46.031-50.16"/><g clip-path="url(#b)"><path style="fill:none;stroke-width:6.79817;stroke-linecap:round;stroke-linejoin:round;stroke:#000;stroke-opacity:1;stroke-miterlimit:10" d="m1768.487 1784.069 36.71-911.154" transform="matrix(.0995 0 0 -.0995 .39 181.145)"/></g><path style="stroke:none;fill-rule:nonzero;fill:#d38374;fill-opacity:1" d="m91.984 2.367 41.977 41.77-41.977 40.117"/><path style="stroke:none;fill-rule:nonzero;fill:#8289d1;fill-opacity:1" d="M179.992 94.297 91.984 84.254l41.977-40.117"/><path style="stroke:none;fill-rule:nonzero;fill:#743573;fill-opacity:1" d="M91.984 84.254v67.855L57.86 116.86M41.695 100.164 18.125 75.82l73.86-73.453"/><path style="fill:none;stroke-width:6.79817;stroke-linecap:round;stroke-linejoin:round;stroke:#000;stroke-opacity:1;stroke-miterlimit:10" d="m415.164 813.943-236.907 244.681" transform="matrix(.0995 0 0 -.0995 .39 181.145)"/><path style="stroke:none;fill-rule:nonzero;fill:#d38374;fill-opacity:1" d="M91.984 152.11 9.195 163.362l82.79-79.11"/><path style="fill:none;stroke-width:6.79817;stroke-linecap:round;stroke-linejoin:round;stroke:#000;stroke-opacity:1;stroke-miterlimit:10" d="M920.623 291.837 88.503 178.723" transform="matrix(.0995 0 0 -.0995 .39 181.145)"/><path style="stroke:none;fill-rule:nonzero;fill:#743573;fill-opacity:1" d="M171.797 167.113 91.984 152.11V2.367"/><path style="fill:none;stroke-width:6.79817;stroke-linecap:round;stroke-linejoin:round;stroke:#000;stroke-opacity:1;stroke-miterlimit:10" d="M1722.825 141.031 920.623 291.837" transform="matrix(.0995 0 0 -.0995 .39 181.145)"/><path style="stroke:none;fill-rule:nonzero;fill:#8289d1;fill-opacity:1" d="m9.195 163.363 8.93-87.543 73.86 8.434"/><path style="fill:none;stroke-width:6.79817;stroke-linecap:round;stroke-linejoin:round;stroke:#000;stroke-opacity:1;stroke-miterlimit:10" d="m88.504 178.723 89.753 879.901" transform="matrix(.0995 0 0 -.0995 .39 181.145)"/><path style="stroke:none;fill-rule:nonzero;fill:#6acffb;fill-opacity:1" d="M171.797 167.113 88.46 180.81 9.195 163.363"/><g clip-path="url(#c)"><path style="fill:none;stroke-width:6.79817;stroke-linecap:round;stroke-linejoin:round;stroke:#000;stroke-opacity:1;stroke-miterlimit:10" d="M1722.825 141.031 885.209 3.378 88.504 178.723" transform="matrix(.0995 0 0 -.0995 .39 181.145)"/></g><path style="stroke:none;fill-rule:nonzero;fill:#d4cad0;fill-opacity:1" d="m88.46 180.809 83.337-13.696-79.813-82.86"/><g clip-path="url(#d)"><path style="fill:none;stroke-width:6.79817;stroke-linecap:round;stroke-linejoin:round;stroke:#000;stroke-opacity:1;stroke-miterlimit:10" d="m885.209 3.378 837.616 137.653" transform="matrix(.0995 0 0 -.0995 .39 181.145)"/></g><path style="stroke:none;fill-rule:nonzero;fill:#743573;fill-opacity:1" d="m91.984 2.367 88.008 91.93-8.195 72.816"/><g clip-path="url(#e)"><path style="fill:none;stroke-width:6.79817;stroke-linecap:round;stroke-linejoin:round;stroke:#000;stroke-opacity:1;stroke-miterlimit:10" d="m920.623 1796.907 884.574-923.992-82.372-731.884" transform="matrix(.0995 0 0 -.0995 .39 181.145)"/></g><path style="stroke:none;fill-rule:nonzero;fill:#8289d1;fill-opacity:1" d="M179.992 94.297 90.297 130.57l1.687-46.316"/><path style="stroke:none;fill-rule:nonzero;fill:#8289d1;fill-opacity:1" d="M90.297 130.57 9.195 163.363l82.79-79.11"/><path style="stroke:none;fill-rule:nonzero;fill:#d38374;fill-opacity:1" d="m48.363 87.195 43.621-2.941-82.789 79.11"/><path style="fill-rule:nonzero;fill:#743573;fill-opacity:1;stroke-width:6.79817;stroke-linecap:round;stroke-linejoin:round;stroke:#000;stroke-opacity:1;stroke-miterlimit:10" d="m178.257 1058.624-70.004 758.62 812.37-20.337" transform="matrix(.0995 0 0 -.0995 .39 181.145)"/><path style="stroke:none;fill-rule:nonzero;fill:#d4cad0;fill-opacity:1" d="m11.16.344 37.203 86.851 43.621-2.941"/><path style="stroke:none;fill-rule:nonzero;fill:#d38374;fill-opacity:1" d="M91.984 2.367v81.887l-43.62 2.941"/><path style="stroke:none;fill-rule:nonzero;fill:#8289d1;fill-opacity:1" d="m179.992 94.297-91.531 86.512-79.266-17.446"/><g clip-path="url(#f)"><path style="fill:none;stroke-width:6.79817;stroke-linecap:round;stroke-linejoin:round;stroke:#000;stroke-opacity:1;stroke-miterlimit:10" d="M1805.197 872.915 885.209 3.378 88.504 178.723" transform="matrix(.0995 0 0 -.0995 .39 181.145)"/></g><path style="stroke:none;fill-rule:nonzero;fill:#d4cad0;fill-opacity:1" d="m48.363 87.195 40.098 93.614 3.523-96.555"/><path style="fill-rule:nonzero;fill:#ebbd40;fill-opacity:1;stroke-width:6.79817;stroke-linecap:round;stroke-linejoin:round;stroke:#000;stroke-opacity:1;stroke-miterlimit:10" d="m108.253 1817.245 70.004-758.621-89.753-879.901" transform="matrix(.0995 0 0 -.0995 .39 181.145)"/><path style="fill-rule:nonzero;fill:#0799b7;fill-opacity:1;stroke-width:6.79817;stroke-linecap:round;stroke-linejoin:round;stroke:#000;stroke-opacity:1;stroke-miterlimit:10" d="m1768.487 1784.069-817.593 19.788-842.641 13.388" transform="matrix(.0995 0 0 -.0995 .39 181.145)"/><g clip-path="url(#g)"><path style="fill-rule:nonzero;fill:#ebbd40;fill-opacity:1;stroke-width:6.79817;stroke-linecap:round;stroke-linejoin:round;stroke:#000;stroke-opacity:1;stroke-miterlimit:10" d="M88.504 178.723 3.384 911.98l104.869 905.265" transform="matrix(.0995 0 0 -.0995 .39 181.145)"/></g><g clip-path="url(#h)"><path style="stroke:none;fill-rule:nonzero;fill:#d38374;fill-opacity:1" d="M9.195 163.363.727 90.41l47.636-3.215"/></g><g clip-path="url(#i)"><path style="fill:none;stroke-width:6.79817;stroke-linecap:round;stroke-linejoin:round;stroke:#000;stroke-opacity:1;stroke-miterlimit:10" d="M88.504 178.723 3.384 911.98" transform="matrix(.0995 0 0 -.0995 .39 181.145)"/></g><g clip-path="url(#j)"><path style="stroke:none;fill-rule:nonzero;fill:#d4cad0;fill-opacity:1" d="M.727 90.41 88.46 180.81 48.363 87.195"/></g><g clip-path="url(#k)"><path style="fill:none;stroke-width:6.79817;stroke-linecap:round;stroke-linejoin:round;stroke:#000;stroke-opacity:1;stroke-miterlimit:10" d="M3.384 911.98 885.209 3.378" transform="matrix(.0995 0 0 -.0995 .39 181.145)"/></g><g clip-path="url(#l)"><path style="stroke:none;fill-rule:nonzero;fill:#d4cad0;fill-opacity:1" d="M11.16.344.727 90.41l47.636-3.215"/></g><g clip-path="url(#m)"><path style="fill:none;stroke-width:6.79817;stroke-linecap:round;stroke-linejoin:round;stroke:#000;stroke-opacity:1;stroke-miterlimit:10" d="M108.253 1817.245 3.383 911.98" transform="matrix(.0995 0 0 -.0995 .39 181.145)"/></g><g clip-path="url(#n)"><path style="stroke:none;fill-rule:nonzero;fill:#d38374;fill-opacity:1" d="M.727 90.41 91.984 2.367l-43.62 84.828"/></g><g clip-path="url(#o)"><path style="fill:none;stroke-width:6.79817;stroke-linecap:round;stroke-linejoin:round;stroke:#000;stroke-opacity:1;stroke-miterlimit:10" d="m3.384 911.98 917.24 884.927" transform="matrix(.0995 0 0 -.0995 .39 181.145)"/></g><path style="fill-rule:nonzero;fill:#0799b7;fill-opacity:1;stroke-width:6.79817;stroke-linecap:round;stroke-linejoin:round;stroke:#000;stroke-opacity:1;stroke-miterlimit:10" d="m108.253 1817.245 812.37-20.338 847.864-12.838" transform="matrix(.0995 0 0 -.0995 .39 181.145)"/><path style="stroke:none;fill-rule:nonzero;fill:#b38fb0;fill-opacity:1" d="m88.46 180.809 91.532-86.512-88.008-91.93"/><g clip-path="url(#p)"><path style="fill:none;stroke-width:6.79817;stroke-linecap:round;stroke-linejoin:round;stroke:#000;stroke-opacity:1;stroke-miterlimit:10" d="m885.209 3.378 919.988 869.537-884.574 923.992" transform="matrix(.0995 0 0 -.0995 .39 181.145)"/></g><g clip-path="url(#q)"><path style="stroke:none;fill-rule:nonzero;fill:#b38fb0;fill-opacity:1" d="M91.984 2.367.727 90.41 88.46 180.81"/></g><g clip-path="url(#r)"><path style="fill:none;stroke-width:6.79817;stroke-linecap:round;stroke-linejoin:round;stroke:#000;stroke-opacity:1;stroke-miterlimit:10" d="M920.623 1796.907 3.383 911.98 885.21 3.378" transform="matrix(.0995 0 0 -.0995 .39 181.145)"/></g></svg>