<svg xmlns="http://www.w3.org/2000/svg" width="106.84" height="266.587" viewBox="0 0 80.13 199.94" version="1.2"><path style="stroke:none;fill-rule:nonzero;fill:#ac708f;fill-opacity:1" d="M41.012 5.715 51.527 91.02l-16.824-.243"/><path style="fill:none;stroke-width:5;stroke-linecap:round;stroke-linejoin:round;stroke:#000;stroke-opacity:1;stroke-miterlimit:10" d="m414.57 1952.185 106.298-862.309-170.069 2.449Zm0 0" transform="matrix(.09893 0 0 -.09893 0 198.837)"/><path style="stroke:none;fill-rule:nonzero;fill:#af95bb;fill-opacity:1" d="M41.012 179.941 51.527 91.02l-16.824-.243"/><path style="fill:none;stroke-width:5;stroke-linecap:round;stroke-linejoin:round;stroke:#000;stroke-opacity:1;stroke-miterlimit:10" d="m414.57 191.003 106.298 898.873-170.069 2.449Zm0 0" transform="matrix(.09893 0 0 -.09893 0 198.837)"/><path style="stroke:none;fill-rule:nonzero;fill:#d49088;fill-opacity:1" d="m41.012 5.715-6.309 85.062-14.758 1.598"/><path style="fill:none;stroke-width:5;stroke-linecap:round;stroke-linejoin:round;stroke:#000;stroke-opacity:1;stroke-miterlimit:10" d="m414.57 1952.185-63.77-859.86-149.181-16.15Zm0 0" transform="matrix(.09893 0 0 -.09893 0 198.837)"/><path style="stroke:none;fill-rule:nonzero;fill:#d5b6ba;fill-opacity:1" d="m41.012 179.941-6.309-89.164-14.758 1.598"/><path style="fill:none;stroke-width:5;stroke-linecap:round;stroke-linejoin:round;stroke:#000;stroke-opacity:1;stroke-miterlimit:10" d="m414.57 191.003-63.77 901.322-149.181-16.15Zm0 0" transform="matrix(.09893 0 0 -.09893 0 198.837)"/><path style="stroke:none;fill-rule:nonzero;fill:#703c81;fill-opacity:1" d="m41.012 5.715 23.867 87.324-13.352-2.02"/><path style="fill:none;stroke-width:5;stroke-linecap:round;stroke-linejoin:round;stroke:#000;stroke-opacity:1;stroke-miterlimit:10" d="m414.57 1952.185 241.263-882.723-134.965 20.414Zm0 0" transform="matrix(.09893 0 0 -.09893 0 198.837)"/><path style="stroke:none;fill-rule:nonzero;fill:#7b6fb9;fill-opacity:1" d="M41.012 179.941 64.879 93.04l-13.352-2.02"/><path style="fill:none;stroke-width:5;stroke-linecap:round;stroke-linejoin:round;stroke:#000;stroke-opacity:1;stroke-miterlimit:10" d="m414.57 191.003 241.263 878.459-134.965 20.414Zm0 0" transform="matrix(.09893 0 0 -.09893 0 198.837)"/><path style="stroke:none;fill-rule:nonzero;fill:#f6a14f;fill-opacity:1" d="m41.012 5.715-21.067 86.66-7.5 2.977"/><path style="fill:none;stroke-width:5;stroke-linecap:round;stroke-linejoin:round;stroke:#000;stroke-opacity:1;stroke-miterlimit:10" d="m414.57 1952.185-212.951-876.01-75.815-30.09Zm0 0" transform="matrix(.09893 0 0 -.09893 0 198.837)"/><path style="stroke:none;fill-rule:nonzero;fill:#f9e0ab;fill-opacity:1" d="M41.012 179.941 19.945 92.375l-7.5 2.977"/><path style="fill:none;stroke-width:5;stroke-linecap:round;stroke-linejoin:round;stroke:#000;stroke-opacity:1;stroke-miterlimit:10" d="m414.57 191.003-212.951 885.172-75.815-30.09Zm0 0" transform="matrix(.09893 0 0 -.09893 0 198.837)"/><path style="stroke:none;fill-rule:nonzero;fill:#00159b;fill-opacity:1" d="m41.012 179.941 28.832-83.714-4.965-3.188"/><path style="fill:none;stroke-width:5;stroke-linecap:round;stroke-linejoin:round;stroke:#000;stroke-opacity:1;stroke-miterlimit:10" d="m414.57 191.003 291.45 846.238-50.187 32.22Zm0 0" transform="matrix(.09893 0 0 -.09893 0 198.837)"/><path style="stroke:none;fill-rule:nonzero;fill:#f09730;fill-opacity:1" d="m41.012 179.941 28.832-83.714-6.13 3.238"/><path style="fill:none;stroke-width:5;stroke-linecap:round;stroke-linejoin:round;stroke:#000;stroke-opacity:1;stroke-miterlimit:10" d="m414.57 191.003 291.45 846.238-61.954-32.735Zm0 0" transform="matrix(.09893 0 0 -.09893 0 198.837)"/><path style="stroke:none;fill-rule:nonzero;fill:#d88e80;fill-opacity:1" d="m41.012 179.941 7.054-78.55 15.649-1.926"/><path style="fill:none;stroke-width:5;stroke-linecap:round;stroke-linejoin:round;stroke:#000;stroke-opacity:1;stroke-miterlimit:10" d="m414.57 191.003 71.313 794.037 158.183 19.466Zm0 0" transform="matrix(.09893 0 0 -.09893 0 198.837)"/><path style="stroke:none;fill-rule:nonzero;fill:#aa6c8a;fill-opacity:1" d="M41.012 179.941 29.32 101.086l18.746.305"/><path style="fill:none;stroke-width:5;stroke-linecap:round;stroke-linejoin:round;stroke:#000;stroke-opacity:1;stroke-miterlimit:10" d="M414.57 191.003 296.387 988.12l189.496-3.08Zm0 0" transform="matrix(.09893 0 0 -.09893 0 198.837)"/><path style="stroke:none;fill-rule:nonzero;fill:#632e78;fill-opacity:1" d="M41.012 179.941 15.676 98.707l13.644 2.379"/><path style="fill:none;stroke-width:5;stroke-linecap:round;stroke-linejoin:round;stroke:#000;stroke-opacity:1;stroke-miterlimit:10" d="m414.57 191.003-256.11 821.164 137.927-24.048Zm0 0" transform="matrix(.09893 0 0 -.09893 0 198.837)"/><path style="stroke:none;fill-rule:nonzero;fill:#464646;fill-opacity:1" d="m41.012 179.941-28.567-84.59 3.23 3.356"/><path style="fill:none;stroke-width:5;stroke-linecap:round;stroke-linejoin:round;stroke:#000;stroke-opacity:1;stroke-miterlimit:10" d="m414.57 191.003-288.766 855.083 32.656-33.92Zm0 0" transform="matrix(.09893 0 0 -.09893 0 198.837)"/><path style="stroke:none;fill-rule:nonzero;fill:#2d2d52;fill-opacity:1" d="m41.012 5.715 28.832 90.512-4.965-3.188"/><path style="fill:none;stroke-width:5;stroke-linecap:round;stroke-linejoin:round;stroke:#000;stroke-opacity:1;stroke-miterlimit:10" d="m414.57 1952.185 291.45-914.944-50.187 32.22Zm0 0" transform="matrix(.09893 0 0 -.09893 0 198.837)"/><path style="stroke:none;fill-rule:nonzero;fill:#07078c;fill-opacity:1" d="M41.012 5.715 12.445 95.352l3.23 3.355"/><path style="fill:none;stroke-width:5;stroke-linecap:round;stroke-linejoin:round;stroke:#000;stroke-opacity:1;stroke-miterlimit:10" d="m414.57 1952.185-288.766-906.1 32.656-33.918Zm0 0" transform="matrix(.09893 0 0 -.09893 0 198.837)"/><path style="stroke:none;fill-rule:nonzero;fill:#fbe6a1;fill-opacity:1" d="m41.012 5.715 28.832 90.512-6.13 3.238"/><path style="fill:none;stroke-width:5;stroke-linecap:round;stroke-linejoin:round;stroke:#000;stroke-opacity:1;stroke-miterlimit:10" d="m414.57 1952.185 291.45-914.944-61.954-32.735Zm0 0" transform="matrix(.09893 0 0 -.09893 0 198.837)"/><path style="stroke:none;fill-rule:nonzero;fill:#7369b9;fill-opacity:1" d="M41.012 5.715 15.676 98.707l13.644 2.379"/><path style="fill:none;stroke-width:5;stroke-linecap:round;stroke-linejoin:round;stroke:#000;stroke-opacity:1;stroke-miterlimit:10" d="m414.57 1952.185-256.11-940.018 137.927-24.048Zm0 0" transform="matrix(.09893 0 0 -.09893 0 198.837)"/><path style="stroke:none;fill-rule:nonzero;fill:#d8baba;fill-opacity:1" d="m41.012 5.715 7.054 95.676 15.649-1.926"/><path style="fill:none;stroke-width:5;stroke-linecap:round;stroke-linejoin:round;stroke:#000;stroke-opacity:1;stroke-miterlimit:10" d="m414.57 1952.185 71.313-967.145 158.183 19.466Zm0 0" transform="matrix(.09893 0 0 -.09893 0 198.837)"/><path style="stroke:none;fill-rule:nonzero;fill:#ae95bc;fill-opacity:1" d="m41.012 5.715-11.692 95.37 18.746.306"/><path style="fill:none;stroke-width:5;stroke-linecap:round;stroke-linejoin:round;stroke:#000;stroke-opacity:1;stroke-miterlimit:10" d="M414.57 1952.185 296.387 988.12l189.496-3.08Zm0 0" transform="matrix(.09893 0 0 -.09893 0 198.837)"/></svg>