<svg xmlns="http://www.w3.org/2000/svg" width="250.307" height="244.96" viewBox="0 0 187.73 183.72" version="1.2"><defs><clipPath id="a"><path d="M135 41h52.453v82H135Zm0 0"/></clipPath><clipPath id="b"><path d="M135 30h52.453v49H135Zm0 0"/></clipPath><clipPath id="c"><path d="M26 145h71v38.441H26Zm0 0"/></clipPath><clipPath id="d"><path d="M22 141h79v42.441H22Zm0 0"/></clipPath><clipPath id="e"><path d="M92 159h68v24.441H92Zm0 0"/></clipPath><clipPath id="f"><path d="M63 163h56v20.441H63Zm0 0"/></clipPath><clipPath id="g"><path d="M59 159h64v24.441H59Zm0 0"/></clipPath><clipPath id="h"><path d="M152 115h35.453v53H152Zm0 0"/></clipPath><clipPath id="i"><path d="M160 71h27.453v53H160Zm0 0"/></clipPath><clipPath id="j"><path d="M.008 64H27v82H.008Zm0 0"/></clipPath><clipPath id="k"><path d="M.008 61H30v88H.008Zm0 0"/></clipPath><clipPath id="l"><path d="M.008 58H20v50H.008Zm0 0"/></clipPath><clipPath id="m"><path d="M.008 54H23v58H.008Zm0 0"/></clipPath><clipPath id="n"><path d="M166 30h21.453v94H166Zm0 0"/></clipPath><clipPath id="o"><path d="M115 116h72.453v67.441H115Zm0 0"/></clipPath><clipPath id="p"><path d="M26 145h38v38.441H26Zm0 0"/></clipPath><clipPath id="q"><path d="M22 141h46v42.441H22Zm0 0"/></clipPath><clipPath id="r"><path d="M.008 107H46v40H.008Zm0 0"/></clipPath><clipPath id="s"><path d="M.008 104H49v47H.008Zm0 0"/></clipPath><clipPath id="t"><path d="M45 146h74v37.441H45Zm0 0"/></clipPath><clipPath id="u"><path d="M41 143h82v40.441H41Zm0 0"/></clipPath><clipPath id="v"><path d="M159 30h28.453v94H159Zm0 0"/></clipPath><clipPath id="w"><path d="M.008 58H46v89H.008Zm0 0"/></clipPath><clipPath id="x"><path d="M.008 54H49v97H.008Zm0 0"/></clipPath><clipPath id="y"><path d="M41 143h91v40.441H41Zm0 0"/></clipPath><clipPath id="z"><path d="M115 116h72.453v67.441H115Zm0 0"/></clipPath><clipPath id="A"><path d="M117 47h70.453v77H117Zm0 0"/></clipPath><clipPath id="B"><path d="M117 86h70.453v71H117Zm0 0"/></clipPath></defs><path style="stroke:none;fill-rule:evenodd;fill:#b0808d;fill-opacity:1" d="m77.648 91.113 47.915 17.196L138.66 44.96 77.648 91.113"/><path style="fill:none;stroke-width:6.406;stroke-linecap:butt;stroke-linejoin:miter;stroke:#231f20;stroke-opacity:1;stroke-miterlimit:4" d="m777.587 924.679 479.871-172.216 131.176 634.442" transform="matrix(.09985 0 0 -.09985 .008 183.44)"/><path style="stroke:none;fill-rule:evenodd;fill:#b0808d;fill-opacity:1" d="m138.66 44.96-67.023-3.73 6.011 49.883 61.012-46.152"/><path style="fill:none;stroke-width:6.406;stroke-linecap:butt;stroke-linejoin:miter;stroke:#231f20;stroke-opacity:1;stroke-miterlimit:4" d="m1388.634 1386.905-671.256 37.362 60.21-499.588" transform="matrix(.09985 0 0 -.09985 .008 183.44)"/><path style="stroke:none;fill-rule:evenodd;fill:#d09f95;fill-opacity:1" d="m77.648 91.113-36.097 32.621-25.973-58.816 62.07 26.195"/><path style="fill:none;stroke-width:6.406;stroke-linecap:butt;stroke-linejoin:miter;stroke:#231f20;stroke-opacity:1;stroke-miterlimit:4" d="M777.587 924.679 416.061 597.97l-260.123 589.06" transform="matrix(.09985 0 0 -.09985 .008 183.44)"/><path style="stroke:none;fill-rule:evenodd;fill:#d09f95;fill-opacity:1" d="M15.578 64.918 71.637 41.23l6.011 49.883-62.07-26.195"/><path style="fill:none;stroke-width:6.406;stroke-linecap:butt;stroke-linejoin:miter;stroke:#231f20;stroke-opacity:1;stroke-miterlimit:4" d="m155.938 1187.03 561.44 237.237 60.21-499.588" transform="matrix(.09985 0 0 -.09985 .008 183.44)"/><path style="stroke:none;fill-rule:evenodd;fill:#ba9fae;fill-opacity:1" d="m77.648 91.113-36.097 32.621 55.047 39.457-18.95-72.078"/><path style="fill:none;stroke-width:6.406;stroke-linecap:butt;stroke-linejoin:miter;stroke:#231f20;stroke-opacity:1;stroke-miterlimit:4" d="M777.587 924.679 416.061 597.97 967.368 202.8" transform="matrix(.09985 0 0 -.09985 .008 183.44)"/><path style="stroke:none;fill-rule:evenodd;fill:#ba9fae;fill-opacity:1" d="m96.598 163.191 28.965-54.882-47.915-17.196 18.95 72.078"/><path style="fill:none;stroke-width:6.406;stroke-linecap:butt;stroke-linejoin:miter;stroke:#231f20;stroke-opacity:1;stroke-miterlimit:4" d="m967.368 202.799 290.09 549.664-479.87 172.216" transform="matrix(.09985 0 0 -.09985 .008 183.44)"/><path style="stroke:none;fill-rule:evenodd;fill:#89668a;fill-opacity:1" d="m163.867 119.066-38.304-10.757L138.66 44.96l25.207 74.105"/><path style="fill:none;stroke-width:6.406;stroke-linecap:butt;stroke-linejoin:miter;stroke:#231f20;stroke-opacity:1;stroke-miterlimit:4" d="m1641.089 644.721-383.63 107.742 131.175 634.442" transform="matrix(.09985 0 0 -.09985 .008 183.44)"/><path style="stroke:none;fill-rule:evenodd;fill:#9088b1;fill-opacity:1" d="m96.598 163.191 28.965-54.882 38.304 10.757-67.27 44.125"/><path style="fill:none;stroke-width:6.406;stroke-linecap:butt;stroke-linejoin:miter;stroke:#231f20;stroke-opacity:1;stroke-miterlimit:4" d="m967.368 202.799 290.09 549.664 383.63-107.742" transform="matrix(.09985 0 0 -.09985 .008 183.44)"/><path style="stroke:none;fill-rule:evenodd;fill:#a6595f;fill-opacity:1" d="m138.66 44.96-67.023-3.73L75.988 8.63 138.66 44.96"/><path style="fill:none;stroke-width:6.406;stroke-linecap:butt;stroke-linejoin:miter;stroke:#231f20;stroke-opacity:1;stroke-miterlimit:4" d="m1388.634 1386.905-671.256 37.362 43.582 326.512" transform="matrix(.09985 0 0 -.09985 .008 183.44)"/><path style="stroke:none;fill-rule:evenodd;fill:#d17a56;fill-opacity:1" d="M15.578 64.918 71.637 41.23 75.988 8.63l-60.41 56.289"/><path style="fill:none;stroke-width:6.406;stroke-linecap:butt;stroke-linejoin:miter;stroke:#231f20;stroke-opacity:1;stroke-miterlimit:4" d="m155.938 1187.03 561.44 237.237 43.582 326.512" transform="matrix(.09985 0 0 -.09985 .008 183.44)"/><path style="stroke:none;fill-rule:evenodd;fill:#89668a;fill-opacity:1" d="m138.66 44.96 48.121 30.052-22.914 44.054-25.207-74.105"/><g clip-path="url(#a)"><path style="fill:none;stroke-width:6.406;stroke-linecap:butt;stroke-linejoin:miter;stroke:#231f20;stroke-opacity:1;stroke-miterlimit:4" d="m1388.634 1386.905 481.945-300.965-229.49-441.219" transform="matrix(.09985 0 0 -.09985 .008 183.44)"/></g><path style="stroke:none;fill-rule:evenodd;fill:#622c4f;fill-opacity:1" d="M170.113 34.2 128.93.823l9.73 44.137 31.453-10.762"/><path style="fill:none;stroke-width:6.406;stroke-linecap:butt;stroke-linejoin:miter;stroke:#231f20;stroke-opacity:1;stroke-miterlimit:4" d="m1703.645 1494.687-412.464 334.258 97.453-442.04" transform="matrix(.09985 0 0 -.09985 .008 183.44)"/><path style="stroke:none;fill-rule:evenodd;fill:#622c4f;fill-opacity:1" d="m138.66 44.96 48.121 30.052-16.668-40.813-31.453 10.762"/><g clip-path="url(#b)"><path style="fill:none;stroke-width:6.406;stroke-linecap:butt;stroke-linejoin:miter;stroke:#231f20;stroke-opacity:1;stroke-miterlimit:4" d="m1388.634 1386.905 481.945-300.965-166.934 408.747" transform="matrix(.09985 0 0 -.09985 .008 183.44)"/></g><path style="stroke:none;fill-rule:evenodd;fill:#a6595f;fill-opacity:1" d="M75.988 8.629 128.93.824l9.73 44.137L75.988 8.629"/><path style="fill:none;stroke-width:6.406;stroke-linecap:butt;stroke-linejoin:miter;stroke:#231f20;stroke-opacity:1;stroke-miterlimit:4" d="m760.96 1750.78 530.221 78.165 97.453-442.04" transform="matrix(.09985 0 0 -.09985 .008 183.44)"/><path style="stroke:none;fill-rule:evenodd;fill:#f6daa5;fill-opacity:1" d="m26.031 145.246 15.52-21.512-25.973-58.816 10.453 80.328"/><path style="fill:none;stroke-width:6.406;stroke-linecap:butt;stroke-linejoin:miter;stroke:#231f20;stroke-opacity:1;stroke-miterlimit:4" d="M260.629 382.525 416.06 597.97l-260.123 589.06" transform="matrix(.09985 0 0 -.09985 .008 183.44)"/><path style="stroke:none;fill-rule:evenodd;fill:#cbd3da;fill-opacity:1" d="m26.031 145.246 15.52-21.512 55.047 39.457-70.567-17.945"/><path style="fill:none;stroke-width:6.406;stroke-linecap:butt;stroke-linejoin:miter;stroke:#231f20;stroke-opacity:1;stroke-miterlimit:4" d="M260.629 382.525 416.06 597.97 967.368 202.8" transform="matrix(.09985 0 0 -.09985 .008 183.44)"/><g clip-path="url(#c)"><path style="stroke:none;fill-rule:evenodd;fill:#cbd3da;fill-opacity:1" d="M96.598 163.191 63.496 183.04l-37.465-37.793 70.567 17.945"/></g><g clip-path="url(#d)"><path style="fill:none;stroke-width:6.406;stroke-linecap:butt;stroke-linejoin:miter;stroke:#231f20;stroke-opacity:1;stroke-miterlimit:4" d="M967.368 202.799 635.848 4.019l-375.22 378.506" transform="matrix(.09985 0 0 -.09985 .008 183.44)"/></g><path style="stroke:none;fill-rule:evenodd;fill:#649fd9;fill-opacity:1" d="m118.867 179.707 36.903-15.621-59.172-.895 22.27 16.516"/><g clip-path="url(#e)"><path style="fill:none;stroke-width:6.406;stroke-linecap:butt;stroke-linejoin:miter;stroke:#231f20;stroke-opacity:1;stroke-miterlimit:4" d="m1190.403 37.39 369.586 156.45-592.62 8.959" transform="matrix(.09985 0 0 -.09985 .008 183.44)"/></g><g clip-path="url(#f)"><path style="stroke:none;fill-rule:evenodd;fill:#649fd9;fill-opacity:1" d="M96.598 163.191 63.496 183.04l55.371-3.332-22.27-16.516"/></g><g clip-path="url(#g)"><path style="fill:none;stroke-width:6.406;stroke-linecap:butt;stroke-linejoin:miter;stroke:#231f20;stroke-opacity:1;stroke-miterlimit:4" d="M967.368 202.799 635.848 4.019l554.555 33.372" transform="matrix(.09985 0 0 -.09985 .008 183.44)"/></g><path style="stroke:none;fill-rule:evenodd;fill:#9088b1;fill-opacity:1" d="m163.867 119.066-8.097 45.02-59.172-.895 67.27-44.125"/><path style="fill:none;stroke-width:6.406;stroke-linecap:butt;stroke-linejoin:miter;stroke:#231f20;stroke-opacity:1;stroke-miterlimit:4" d="m1641.089 644.721-81.1-450.881-592.62 8.959" transform="matrix(.09985 0 0 -.09985 .008 183.44)"/><path style="stroke:none;fill-rule:evenodd;fill:#2b417b;fill-opacity:1" d="m163.867 119.066-8.097 45.02 31.113-44.32-23.016-.7"/><g clip-path="url(#h)"><path style="fill:none;stroke-width:6.406;stroke-linecap:butt;stroke-linejoin:miter;stroke:#231f20;stroke-opacity:1;stroke-miterlimit:4" d="m1641.089 644.721-81.1-450.881 311.607 443.878" transform="matrix(.09985 0 0 -.09985 .008 183.44)"/></g><path style="stroke:none;fill-rule:evenodd;fill:#2b417b;fill-opacity:1" d="m186.883 119.766-.102-44.754-22.914 44.054 23.016.7"/><g clip-path="url(#i)"><path style="fill:none;stroke-width:6.406;stroke-linecap:butt;stroke-linejoin:miter;stroke:#231f20;stroke-opacity:1;stroke-miterlimit:4" d="m1871.596 637.718-1.017 448.222-229.49-441.219" transform="matrix(.09985 0 0 -.09985 .008 183.44)"/></g><path style="stroke:none;fill-rule:evenodd;fill:#d17a56;fill-opacity:1" d="m75.988 8.629-41.047 5.926-19.363 50.363 60.41-56.29"/><path style="fill:none;stroke-width:6.406;stroke-linecap:butt;stroke-linejoin:miter;stroke:#231f20;stroke-opacity:1;stroke-miterlimit:4" d="m760.96 1750.78-411.094-59.349-193.928-504.4" transform="matrix(.09985 0 0 -.09985 .008 183.44)"/><path style="stroke:none;fill-rule:evenodd;fill:#343552;fill-opacity:1" d="m19.125 58.371 15.816-43.816-19.363 50.363 3.547-6.547"/><path style="fill:none;stroke-width:6.406;stroke-linecap:butt;stroke-linejoin:miter;stroke:#231f20;stroke-opacity:1;stroke-miterlimit:4" d="m191.46 1252.6 158.406 438.831-193.928-504.4" transform="matrix(.09985 0 0 -.09985 .008 183.44)"/><g clip-path="url(#j)"><path style="stroke:none;fill-rule:evenodd;fill:#f6daa5;fill-opacity:1" d="M15.578 64.918.387 107.766l25.644 37.48-10.453-80.328"/></g><g clip-path="url(#k)"><path style="fill:none;stroke-width:6.406;stroke-linecap:butt;stroke-linejoin:miter;stroke:#231f20;stroke-opacity:1;stroke-miterlimit:4" d="M155.938 1187.03 3.793 757.902l256.836-375.376" transform="matrix(.09985 0 0 -.09985 .008 183.44)"/></g><g clip-path="url(#l)"><path style="stroke:none;fill-rule:evenodd;fill:#343552;fill-opacity:1" d="M15.578 64.918.387 107.766 19.125 58.37l-3.547 6.547"/></g><g clip-path="url(#m)"><path style="fill:none;stroke-width:6.406;stroke-linecap:butt;stroke-linejoin:miter;stroke:#231f20;stroke-opacity:1;stroke-miterlimit:4" d="M155.938 1187.03 3.793 757.902 191.46 1252.6" transform="matrix(.09985 0 0 -.09985 .008 183.44)"/></g><path style="stroke:none;fill-rule:evenodd;fill:#4a3337;fill-opacity:1" d="m75.988 8.629-41.047 5.926 61.657-9.153-20.61 3.227"/><path style="fill:none;stroke-width:6.406;stroke-linecap:butt;stroke-linejoin:miter;stroke:#231f20;stroke-opacity:1;stroke-miterlimit:4" d="m760.96 1750.78-411.094-59.349 617.502 91.663" transform="matrix(.09985 0 0 -.09985 .008 183.44)"/><path style="stroke:none;fill-rule:evenodd;fill:#4a3337;fill-opacity:1" d="m96.598 17.387 32.332-4.578-52.942 7.8 20.61-3.222"/><path style="fill:none;stroke-width:6.406;stroke-linecap:butt;stroke-linejoin:miter;stroke:#231f20;stroke-opacity:1;stroke-miterlimit:4" d="m967.368 1783.094 323.813 45.851-530.22-78.166" transform="matrix(.09985 0 0 -.09985 .008 183.44)"/><path style="stroke:none;fill-rule:evenodd;fill:#f1dd7f;fill-opacity:1" d="m186.883 119.766-.102-44.754-16.668-40.813 16.77 85.567"/><g clip-path="url(#n)"><path style="fill:none;stroke-width:6.406;stroke-linecap:butt;stroke-linejoin:miter;stroke:#231f20;stroke-opacity:1;stroke-miterlimit:4" d="m1871.596 637.718-1.017 448.222-166.934 408.747" transform="matrix(.09985 0 0 -.09985 .008 183.44)"/></g><path style="stroke:none;fill-rule:evenodd;fill:#cb612b;fill-opacity:1" d="m118.867 179.707 36.903-15.621 31.113-44.32-68.016 59.941"/><g clip-path="url(#o)"><path style="fill:none;stroke-width:6.406;stroke-linecap:butt;stroke-linejoin:miter;stroke:#231f20;stroke-opacity:1;stroke-miterlimit:4" d="m1190.403 37.39 369.586 156.45 311.607 443.878" transform="matrix(.09985 0 0 -.09985 .008 183.44)"/></g><g clip-path="url(#p)"><path style="stroke:none;fill-rule:evenodd;fill:#231f20;fill-opacity:1" d="m26.031 145.246 37.465 37.793-18.285-36.105-19.18-1.688"/></g><g clip-path="url(#q)"><path style="fill:none;stroke-width:6.406;stroke-linecap:butt;stroke-linejoin:miter;stroke:#231f20;stroke-opacity:1;stroke-miterlimit:4" d="M260.629 382.525 635.849 4.02 452.717 365.625" transform="matrix(.09985 0 0 -.09985 .008 183.44)"/></g><g clip-path="url(#r)"><path style="stroke:none;fill-rule:evenodd;fill:#231f20;fill-opacity:1" d="M45.21 146.934.388 107.766l25.644 37.48 19.18 1.688"/></g><g clip-path="url(#s)"><path style="fill:none;stroke-width:6.406;stroke-linecap:butt;stroke-linejoin:miter;stroke:#231f20;stroke-opacity:1;stroke-miterlimit:4" d="M452.718 365.625 3.793 757.9l256.836-375.376" transform="matrix(.09985 0 0 -.09985 .008 183.44)"/></g><path style="stroke:none;fill-rule:evenodd;fill:#c3e4e7;fill-opacity:1" d="M96.598 5.402 128.93.824 170.113 34.2 96.598 5.402"/><path style="fill:none;stroke-width:6.406;stroke-linecap:butt;stroke-linejoin:miter;stroke:#231f20;stroke-opacity:1;stroke-miterlimit:4" d="m967.368 1783.094 323.813 45.851 412.464-334.258" transform="matrix(.09985 0 0 -.09985 .008 183.44)"/><g clip-path="url(#t)"><path style="stroke:none;fill-rule:evenodd;fill:#9a4148;fill-opacity:1" d="m118.867 179.707-55.37 3.332-18.286-36.105 73.656 32.773"/></g><g clip-path="url(#u)"><path style="fill:none;stroke-width:6.406;stroke-linecap:butt;stroke-linejoin:miter;stroke:#231f20;stroke-opacity:1;stroke-miterlimit:4" d="M1190.403 37.39 635.848 4.02l-183.13 361.605" transform="matrix(.09985 0 0 -.09985 .008 183.44)"/></g><path style="stroke:none;fill-rule:evenodd;fill:#f1dd7f;fill-opacity:1" d="m170.113 34.2-6.633 16.718 23.403 68.848-16.77-85.567"/><g clip-path="url(#v)"><path style="fill:none;stroke-width:6.406;stroke-linecap:butt;stroke-linejoin:miter;stroke:#231f20;stroke-opacity:1;stroke-miterlimit:4" d="m1703.645 1494.687-66.43-167.443 234.38-689.526" transform="matrix(.09985 0 0 -.09985 .008 183.44)"/></g><path style="stroke:none;fill-rule:evenodd;fill:#c3e4e7;fill-opacity:1" d="m170.113 34.2-6.633 16.718L96.598 5.402 170.113 34.2"/><path style="fill:none;stroke-width:6.406;stroke-linecap:butt;stroke-linejoin:miter;stroke:#231f20;stroke-opacity:1;stroke-miterlimit:4" d="m1703.645 1494.687-66.43-167.443-669.847 455.85" transform="matrix(.09985 0 0 -.09985 .008 183.44)"/><path style="stroke:none;fill-rule:evenodd;fill:#7d83b6;fill-opacity:1" d="m19.125 58.371 15.816-43.816 61.657-9.153-77.473 52.97"/><path style="fill:none;stroke-width:6.406;stroke-linecap:butt;stroke-linejoin:miter;stroke:#231f20;stroke-opacity:1;stroke-miterlimit:4" d="m191.46 1252.6 158.406 438.831 617.502 91.663" transform="matrix(.09985 0 0 -.09985 .008 183.44)"/><g clip-path="url(#w)"><path style="stroke:none;fill-rule:evenodd;fill:#775882;fill-opacity:1" d="M45.21 146.934.388 107.766 19.125 58.37l26.086 88.563"/></g><g clip-path="url(#x)"><path style="fill:none;stroke-width:6.406;stroke-linecap:butt;stroke-linejoin:miter;stroke:#231f20;stroke-opacity:1;stroke-miterlimit:4" d="M452.718 365.625 3.793 757.9 191.46 1252.6" transform="matrix(.09985 0 0 -.09985 .008 183.44)"/></g><path style="stroke:none;fill-rule:evenodd;fill:#9a4148;fill-opacity:1" d="m45.21 146.934 82.446 5.671-8.789 27.102-73.656-32.773"/><g clip-path="url(#y)"><path style="fill:none;stroke-width:6.406;stroke-linecap:butt;stroke-linejoin:miter;stroke:#231f20;stroke-opacity:1;stroke-miterlimit:4" d="m452.718 365.625 825.71-56.805-88.025-271.43" transform="matrix(.09985 0 0 -.09985 .008 183.44)"/></g><path style="stroke:none;fill-rule:evenodd;fill:#cb612b;fill-opacity:1" d="m186.883 119.766-59.227 32.84-8.789 27.101 68.016-59.941"/><g clip-path="url(#z)"><path style="fill:none;stroke-width:6.406;stroke-linecap:butt;stroke-linejoin:miter;stroke:#231f20;stroke-opacity:1;stroke-miterlimit:4" d="M1871.596 637.718 1278.427 308.82l-88.024-271.43" transform="matrix(.09985 0 0 -.09985 .008 183.44)"/></g><path style="stroke:none;fill-rule:evenodd;fill:#d8a592;fill-opacity:1" d="m121.195 90.531 42.285-39.613 23.403 68.848-65.688-29.235"/><g clip-path="url(#A)"><path style="fill:none;stroke-width:6.406;stroke-linecap:butt;stroke-linejoin:miter;stroke:#231f20;stroke-opacity:1;stroke-miterlimit:4" d="m1213.72 930.508 423.496 396.736 234.38-689.526" transform="matrix(.09985 0 0 -.09985 .008 183.44)"/></g><path style="stroke:none;fill-rule:evenodd;fill:#d8a592;fill-opacity:1" d="m186.883 119.766-59.227 32.84-6.46-62.075 65.687 29.235"/><g clip-path="url(#B)"><path style="fill:none;stroke-width:6.406;stroke-linecap:butt;stroke-linejoin:miter;stroke:#231f20;stroke-opacity:1;stroke-miterlimit:4" d="M1871.596 637.718 1278.427 308.82l-64.707 621.688" transform="matrix(.09985 0 0 -.09985 .008 183.44)"/></g><path style="stroke:none;fill-rule:evenodd;fill:#775882;fill-opacity:1" d="m19.125 58.371 39.898 9.852-13.812 78.71-26.086-88.562"/><path style="fill:none;stroke-width:6.406;stroke-linecap:butt;stroke-linejoin:miter;stroke:#231f20;stroke-opacity:1;stroke-miterlimit:4" d="m191.46 1252.6 399.593-98.666-138.335-788.31" transform="matrix(.09985 0 0 -.09985 .008 183.44)"/><path style="stroke:none;fill-rule:evenodd;fill:#7d83b6;fill-opacity:1" d="m96.598 5.402-37.575 62.82-39.898-9.85 77.473-52.97"/><path style="fill:none;stroke-width:6.406;stroke-linecap:butt;stroke-linejoin:miter;stroke:#231f20;stroke-opacity:1;stroke-miterlimit:4" d="m967.368 1783.094-376.315-629.16-399.592 98.665" transform="matrix(.09985 0 0 -.09985 .008 183.44)"/><path style="stroke:none;fill-rule:evenodd;fill:#bba5b4;fill-opacity:1" d="m121.195 90.531 42.285-39.613L96.598 5.402l24.597 85.13"/><path style="fill:none;stroke-width:6.406;stroke-linecap:butt;stroke-linejoin:miter;stroke:#231f20;stroke-opacity:1;stroke-miterlimit:4" d="m1213.72 930.508 423.496 396.736-669.848 455.85" transform="matrix(.09985 0 0 -.09985 .008 183.44)"/><path style="stroke:none;fill-rule:evenodd;fill:#bba5b4;fill-opacity:1" d="m96.598 5.402-37.575 62.82 62.172 22.31-24.597-85.13"/><path style="fill:none;stroke-width:6.406;stroke-linecap:butt;stroke-linejoin:miter;stroke:#231f20;stroke-opacity:1;stroke-miterlimit:4" d="m967.368 1783.094-376.315-629.16 622.667-223.426" transform="matrix(.09985 0 0 -.09985 .008 183.44)"/><path style="stroke:none;fill-rule:evenodd;fill:#af7c8a;fill-opacity:1" d="M121.195 90.531 59.023 68.223l-13.812 78.71 75.984-56.402"/><path style="fill:none;stroke-width:6.406;stroke-linecap:butt;stroke-linejoin:miter;stroke:#231f20;stroke-opacity:1;stroke-miterlimit:4" d="m1213.72 930.508-622.667 223.426-138.335-788.31" transform="matrix(.09985 0 0 -.09985 .008 183.44)"/><path style="stroke:none;fill-rule:evenodd;fill:#af7c8a;fill-opacity:1" d="m45.21 146.934 82.446 5.671-6.46-62.074-75.985 56.403"/><path style="fill:none;stroke-width:6.406;stroke-linecap:butt;stroke-linejoin:miter;stroke:#231f20;stroke-opacity:1;stroke-miterlimit:4" d="m452.718 365.625 825.71-56.805-64.708 621.688" transform="matrix(.09985 0 0 -.09985 .008 183.44)"/></svg>