<svg xmlns="http://www.w3.org/2000/svg" width="247.187" height="248.12" viewBox="0 0 185.39 186.09" version="1.2"><defs><clipPath id="a"><path d="M159 44h25.637v45H159Zm0 0"/></clipPath><clipPath id="b"><path d="M156 41h28.637v51H156Zm0 0"/></clipPath><clipPath id="c"><path d="M163 87h21.637v33H163Zm0 0"/></clipPath><clipPath id="d"><path d="M160 84h24.637v40H160Zm0 0"/></clipPath><clipPath id="e"><path d="M.148 96H15v35H.148Zm0 0"/></clipPath><clipPath id="f"><path d="M.148 93H19v41H.148Zm0 0"/></clipPath><clipPath id="g"><path d="M.148 52H18v46H.148Zm0 0"/></clipPath><clipPath id="h"><path d="M.148 48H21v54H.148Zm0 0"/></clipPath><clipPath id="i"><path d="M159 44h25.637v44H159Zm0 0"/></clipPath><clipPath id="j"><path d="M156 41h28.637v50H156Zm0 0"/></clipPath><clipPath id="k"><path d="M44 169h58v16.184H44Zm0 0"/></clipPath><clipPath id="l"><path d="M92 166h59v19.184H92Zm0 0"/></clipPath><clipPath id="m"><path d="M.148 52H18v46H.148Zm0 0"/></clipPath><clipPath id="n"><path d="M.148 48H21v54H.148Zm0 0"/></clipPath><clipPath id="o"><path d="M178 87h6.637v33H178Zm0 0"/></clipPath><clipPath id="p"><path d="M175 84h9.637v40H175Zm0 0"/></clipPath><clipPath id="q"><path d="M175 55h9.637v33H175Zm0 0"/></clipPath><clipPath id="r"><path d="M171 52h13.637v40H171Zm0 0"/></clipPath><clipPath id="s"><path d="M171 84h13.637v56H171Zm0 0"/></clipPath><clipPath id="t"><path d="M166 37h18.637v55H166Zm0 0"/></clipPath><clipPath id="u"><path d="M95 166h56v19.184H95Zm0 0"/></clipPath><clipPath id="v"><path d="M44 171h58v14.184H44Zm0 0"/></clipPath><clipPath id="w"><path d="M67 171h38v14.184H67Zm0 0"/></clipPath><clipPath id="x"><path d="M.148 97H11v34H.148Zm0 0"/></clipPath><clipPath id="y"><path d="M.148 94H14v40H.148Zm0 0"/></clipPath><clipPath id="z"><path d="M.148 64H10v34H.148Zm0 0"/></clipPath><clipPath id="A"><path d="M.148 61H14v41H.148Zm0 0"/></clipPath><clipPath id="B"><path d="M153 84h31.637v66H153Zm0 0"/></clipPath><clipPath id="C"><path d="M146 37h38.637v55H146Zm0 0"/></clipPath><clipPath id="D"><path d="M149 84h35.637v66H149Zm0 0"/></clipPath><clipPath id="E"><path d="M134 54h50.637v41H134Zm0 0"/></clipPath><clipPath id="F"><path d="M134 84h50.637v42H134Zm0 0"/></clipPath></defs><path style="stroke:none;fill-rule:evenodd;fill:#af7f8e;fill-opacity:1" d="M115.996 90.738 87.2 92.313 85.438 48.19l30.558 42.547"/><path style="fill:none;stroke-width:5.938;stroke-linecap:butt;stroke-linejoin:miter;stroke:#231f20;stroke-opacity:1;stroke-miterlimit:4" d="m1164.15 949.08-289.377-15.82-17.703 443.37" transform="matrix(.09951 0 0 -.09951 .148 185.184)"/><path style="stroke:none;fill-rule:evenodd;fill:#c19ea7;fill-opacity:1" d="m87.2 92.313 3.163 44.144-42.015-16.152 38.851-27.993"/><path style="fill:none;stroke-width:5.938;stroke-linecap:butt;stroke-linejoin:miter;stroke:#231f20;stroke-opacity:1;stroke-miterlimit:4" d="m874.773 933.26 31.796-443.603L484.358 651.97" transform="matrix(.09951 0 0 -.09951 .148 185.184)"/><path style="stroke:none;fill-rule:evenodd;fill:#c19ea7;fill-opacity:1" d="m48.348 120.305 10.765-26.36L87.2 92.313l-38.851 27.992"/><path style="fill:none;stroke-width:5.938;stroke-linecap:butt;stroke-linejoin:miter;stroke:#231f20;stroke-opacity:1;stroke-miterlimit:4" d="M484.358 651.97 592.54 916.853l282.232 16.408" transform="matrix(.09951 0 0 -.09951 .148 185.184)"/><path style="stroke:none;fill-rule:evenodd;fill:#ad8ca1;fill-opacity:1" d="m87.2 92.313 3.163 44.144 40.246-21.035-43.41-23.11"/><path style="fill:none;stroke-width:5.938;stroke-linecap:butt;stroke-linejoin:miter;stroke:#231f20;stroke-opacity:1;stroke-miterlimit:4" d="m874.773 933.26 31.796-443.603 404.429 211.38" transform="matrix(.09951 0 0 -.09951 .148 185.184)"/><path style="stroke:none;fill-rule:evenodd;fill:#ad8ca1;fill-opacity:1" d="m130.61 115.422-14.614-24.684L87.2 92.313l43.41 23.109"/><path style="fill:none;stroke-width:5.938;stroke-linecap:butt;stroke-linejoin:miter;stroke:#231f20;stroke-opacity:1;stroke-miterlimit:4" d="M1310.998 701.037 1164.15 949.08l-289.377-15.82" transform="matrix(.09951 0 0 -.09951 .148 185.184)"/><path style="stroke:none;fill-rule:evenodd;fill:#c29092;fill-opacity:1" d="M59.113 93.945 87.2 92.313 85.438 48.19 59.112 93.945"/><path style="fill:none;stroke-width:5.938;stroke-linecap:butt;stroke-linejoin:miter;stroke:#231f20;stroke-opacity:1;stroke-miterlimit:4" d="m592.54 916.853 282.233 16.408-17.703 443.368" transform="matrix(.09951 0 0 -.09951 .148 185.184)"/><path style="stroke:none;fill-rule:evenodd;fill:#9b7591;fill-opacity:1" d="m163.586 88.293-35.781-23.61-11.809 26.055 47.59-2.445"/><path style="fill:none;stroke-width:5.938;stroke-linecap:butt;stroke-linejoin:miter;stroke:#231f20;stroke-opacity:1;stroke-miterlimit:4" d="M1642.376 973.653 1282.814 1210.9 1164.15 949.08" transform="matrix(.09951 0 0 -.09951 .148 185.184)"/><path style="stroke:none;fill-rule:evenodd;fill:#9b7591;fill-opacity:1" d="m115.996 90.738 14.613 24.684 32.977-27.129-47.59 2.445"/><path style="fill:none;stroke-width:5.938;stroke-linecap:butt;stroke-linejoin:miter;stroke:#231f20;stroke-opacity:1;stroke-miterlimit:4" d="m1164.15 949.08 146.848-248.043 331.378 272.616" transform="matrix(.09951 0 0 -.09951 .148 185.184)"/><path style="stroke:none;fill-rule:evenodd;fill:#af7f8e;fill-opacity:1" d="m85.438 48.191 42.367 16.493-11.809 26.054-30.558-42.547"/><path style="fill:none;stroke-width:5.938;stroke-linecap:butt;stroke-linejoin:miter;stroke:#231f20;stroke-opacity:1;stroke-miterlimit:4" d="m857.07 1376.63 425.744-165.729L1164.15 949.08" transform="matrix(.09951 0 0 -.09951 .148 185.184)"/><path style="stroke:none;fill-rule:evenodd;fill:#d3a99e;fill-opacity:1" d="m14.781 96.672 30.676-27.606 13.656 24.88-44.332 2.726"/><path style="fill:none;stroke-width:5.938;stroke-linecap:butt;stroke-linejoin:miter;stroke:#231f20;stroke-opacity:1;stroke-miterlimit:4" d="m147.052 889.454 308.258 277.405 137.23-250.006" transform="matrix(.09951 0 0 -.09951 .148 185.184)"/><path style="stroke:none;fill-rule:evenodd;fill:#d3a99e;fill-opacity:1" d="m59.113 93.945-10.765 26.36L14.78 96.672l44.332-2.727"/><path style="fill:none;stroke-width:5.938;stroke-linecap:butt;stroke-linejoin:miter;stroke:#231f20;stroke-opacity:1;stroke-miterlimit:4" d="M592.54 916.853 484.359 651.97 147.052 889.454" transform="matrix(.09951 0 0 -.09951 .148 185.184)"/><path style="stroke:none;fill-rule:evenodd;fill:#c29092;fill-opacity:1" d="M85.438 48.191 45.456 69.066l13.656 24.88L85.438 48.19"/><path style="fill:none;stroke-width:5.938;stroke-linecap:butt;stroke-linejoin:miter;stroke:#231f20;stroke-opacity:1;stroke-miterlimit:4" d="m857.07 1376.63-401.76-209.771 137.23-250.006" transform="matrix(.09951 0 0 -.09951 .148 185.184)"/><path style="stroke:none;fill-rule:evenodd;fill:#acaac8;fill-opacity:1" d="m90.363 136.457-22.925 27.164 28.078 9.23-5.153-36.394"/><path style="fill:none;stroke-width:5.938;stroke-linecap:butt;stroke-linejoin:miter;stroke:#231f20;stroke-opacity:1;stroke-miterlimit:4" d="m906.569 489.657-230.38-272.97 282.155-92.755" transform="matrix(.09951 0 0 -.09951 .148 185.184)"/><path style="stroke:none;fill-rule:evenodd;fill:#acaac8;fill-opacity:1" d="m95.516 172.852 24.812-12.653-29.965-23.742 5.153 36.395"/><path style="fill:none;stroke-width:5.938;stroke-linecap:butt;stroke-linejoin:miter;stroke:#231f20;stroke-opacity:1;stroke-miterlimit:4" d="m958.344 123.932 249.339 127.142-301.114 238.583" transform="matrix(.09951 0 0 -.09951 .148 185.184)"/><path style="stroke:none;fill-rule:evenodd;fill:#c6b5bf;fill-opacity:1" d="m90.363 136.457-42.015-16.152-4.364 23.386 46.38-7.234"/><path style="fill:none;stroke-width:5.938;stroke-linecap:butt;stroke-linejoin:miter;stroke:#231f20;stroke-opacity:1;stroke-miterlimit:4" d="M906.569 489.657 484.358 651.97l-43.846-235.01" transform="matrix(.09951 0 0 -.09951 .148 185.184)"/><path style="stroke:none;fill-rule:evenodd;fill:#c6b5bf;fill-opacity:1" d="m43.984 143.691 23.453 19.93 22.926-27.164-46.379 7.234"/><path style="fill:none;stroke-width:5.938;stroke-linecap:butt;stroke-linejoin:miter;stroke:#231f20;stroke-opacity:1;stroke-miterlimit:4" d="M440.512 416.96 676.19 216.687l230.379 272.969" transform="matrix(.09951 0 0 -.09951 .148 185.184)"/><path style="stroke:none;fill-rule:evenodd;fill:#9f8fb0;fill-opacity:1" d="m130.61 115.422-40.247 21.035 29.965 23.742 10.281-44.777"/><path style="fill:none;stroke-width:5.938;stroke-linecap:butt;stroke-linejoin:miter;stroke:#231f20;stroke-opacity:1;stroke-miterlimit:4" d="m1310.998 701.037-404.43-211.38 301.115-238.583" transform="matrix(.09951 0 0 -.09951 .148 185.184)"/><path style="stroke:none;fill-rule:evenodd;fill:#b36665;fill-opacity:1" d="m112.645 21.621-27.207 26.57-25.833-24.03 53.04-2.54"/><path style="fill:none;stroke-width:5.938;stroke-linecap:butt;stroke-linejoin:miter;stroke:#231f20;stroke-opacity:1;stroke-miterlimit:4" d="m1130.47 1643.632-273.4-267.003-259.583 241.488" transform="matrix(.09951 0 0 -.09951 .148 185.184)"/><path style="stroke:none;fill-rule:evenodd;fill:#a46777;fill-opacity:1" d="m112.645 21.621-27.207 26.57 42.367 16.493-15.16-43.063"/><path style="fill:none;stroke-width:5.938;stroke-linecap:butt;stroke-linejoin:miter;stroke:#231f20;stroke-opacity:1;stroke-miterlimit:4" d="m1130.47 1643.632-273.4-267.003 425.744-165.728" transform="matrix(.09951 0 0 -.09951 .148 185.184)"/><path style="stroke:none;fill-rule:evenodd;fill:#c8867a;fill-opacity:1" d="M85.438 48.191 45.456 69.066l-6.95-22.484 46.93 1.61"/><path style="fill:none;stroke-width:5.938;stroke-linecap:butt;stroke-linejoin:miter;stroke:#231f20;stroke-opacity:1;stroke-miterlimit:4" d="m857.07 1376.63-401.76-209.771-69.832 225.943" transform="matrix(.09951 0 0 -.09951 .148 185.184)"/><path style="stroke:none;fill-rule:evenodd;fill:#c8867a;fill-opacity:1" d="M38.508 46.582 59.605 24.16l25.833 24.031-46.93-1.609"/><path style="fill:none;stroke-width:5.938;stroke-linecap:butt;stroke-linejoin:miter;stroke:#231f20;stroke-opacity:1;stroke-miterlimit:4" d="m385.478 1392.802 212.009 225.315 259.583-241.488" transform="matrix(.09951 0 0 -.09951 .148 185.184)"/><path style="stroke:none;fill-rule:evenodd;fill:#9f8fb0;fill-opacity:1" d="m120.328 160.2 19.879-22.49-9.598-22.288-10.28 44.777"/><path style="fill:none;stroke-width:5.938;stroke-linecap:butt;stroke-linejoin:miter;stroke:#231f20;stroke-opacity:1;stroke-miterlimit:4" d="m1207.683 251.074 199.76 225.982-96.445 223.981" transform="matrix(.09951 0 0 -.09951 .148 185.184)"/><path style="stroke:none;fill-rule:evenodd;fill:#87739d;fill-opacity:1" d="m140.207 137.71-9.598-22.288 32.977-27.129-23.379 49.418"/><path style="fill:none;stroke-width:5.938;stroke-linecap:butt;stroke-linejoin:miter;stroke:#231f20;stroke-opacity:1;stroke-miterlimit:4" d="m1407.444 477.056-96.446 223.981 331.378 272.616" transform="matrix(.09951 0 0 -.09951 .148 185.184)"/><path style="stroke:none;fill-rule:evenodd;fill:#a46777;fill-opacity:1" d="m127.805 64.684 7.101-22.97-22.261-20.093 15.16 43.063"/><path style="fill:none;stroke-width:5.938;stroke-linecap:butt;stroke-linejoin:miter;stroke:#231f20;stroke-opacity:1;stroke-miterlimit:4" d="m1282.814 1210.901 71.363 230.81-223.706 201.92" transform="matrix(.09951 0 0 -.09951 .148 185.184)"/><path style="stroke:none;fill-rule:evenodd;fill:#8c5a79;fill-opacity:1" d="m159.445 44.8 4.14 43.493-35.78-23.61 31.64-19.882"/><path style="fill:none;stroke-width:5.938;stroke-linecap:butt;stroke-linejoin:miter;stroke:#231f20;stroke-opacity:1;stroke-miterlimit:4" d="m1600.767 1410.701 41.609-437.048-359.562 237.248" transform="matrix(.09951 0 0 -.09951 .148 185.184)"/><path style="stroke:none;fill-rule:evenodd;fill:#8c5a79;fill-opacity:1" d="m127.805 64.684 7.101-22.97 24.54 3.087-31.641 19.883"/><path style="fill:none;stroke-width:5.938;stroke-linecap:butt;stroke-linejoin:miter;stroke:#231f20;stroke-opacity:1;stroke-miterlimit:4" d="m1282.814 1210.901 71.363 230.81 246.59-31.01" transform="matrix(.09951 0 0 -.09951 .148 185.184)"/><path style="stroke:none;fill-rule:evenodd;fill:#dfc8b8;fill-opacity:1" d="m43.984 143.691 4.364-23.386L14.78 96.672l29.203 47.02"/><path style="fill:none;stroke-width:5.938;stroke-linecap:butt;stroke-linejoin:miter;stroke:#231f20;stroke-opacity:1;stroke-miterlimit:4" d="m440.512 416.96 43.846 235.01-337.306 237.484" transform="matrix(.09951 0 0 -.09951 .148 185.184)"/><path style="stroke:none;fill-rule:evenodd;fill:#e0a281;fill-opacity:1" d="M17.016 52.066 14.78 96.672l30.676-27.606-28.441-17"/><path style="fill:none;stroke-width:5.938;stroke-linecap:butt;stroke-linejoin:miter;stroke:#231f20;stroke-opacity:1;stroke-miterlimit:4" d="m169.505 1337.69-22.453-448.236 308.258 277.405" transform="matrix(.09951 0 0 -.09951 .148 185.184)"/><path style="stroke:none;fill-rule:evenodd;fill:#e0a281;fill-opacity:1" d="m45.457 69.066-6.95-22.484-21.491 5.484 28.441 17"/><path style="fill:none;stroke-width:5.938;stroke-linecap:butt;stroke-linejoin:miter;stroke:#231f20;stroke-opacity:1;stroke-miterlimit:4" d="m455.31 1166.859-69.832 225.943-215.973-55.112" transform="matrix(.09951 0 0 -.09951 .148 185.184)"/><path style="stroke:none;fill-rule:evenodd;fill:#87739d;fill-opacity:1" d="m163.586 88.293.652 43.941-24.031 5.477 23.379-49.418"/><path style="fill:none;stroke-width:5.938;stroke-linecap:butt;stroke-linejoin:miter;stroke:#231f20;stroke-opacity:1;stroke-miterlimit:4" d="m1642.376 973.653 6.555-441.563-241.487-55.034" transform="matrix(.09951 0 0 -.09951 .148 185.184)"/><path style="stroke:none;fill-rule:evenodd;fill:#777eb3;fill-opacity:1" d="m147.035 169.668 17.203-37.434-24.031 5.477 6.828 31.957"/><path style="fill:none;stroke-width:5.938;stroke-linecap:butt;stroke-linejoin:miter;stroke:#231f20;stroke-opacity:1;stroke-miterlimit:4" d="M1476.059 155.923 1648.93 532.09l-241.487-55.034" transform="matrix(.09951 0 0 -.09951 .148 185.184)"/><path style="stroke:none;fill-rule:evenodd;fill:#777eb3;fill-opacity:1" d="m140.207 137.71-19.879 22.49 26.707 9.468-6.828-31.957"/><path style="fill:none;stroke-width:5.938;stroke-linecap:butt;stroke-linejoin:miter;stroke:#231f20;stroke-opacity:1;stroke-miterlimit:4" d="m1407.444 477.056-199.761-225.982 268.376-95.15" transform="matrix(.09951 0 0 -.09951 .148 185.184)"/><g clip-path="url(#a)"><path style="stroke:none;fill-rule:evenodd;fill:#583865;fill-opacity:1" d="m159.445 44.8 4.14 43.493 20.642-.793-24.782-42.7"/></g><g clip-path="url(#b)"><path style="fill:none;stroke-width:5.938;stroke-linecap:butt;stroke-linejoin:miter;stroke:#231f20;stroke-opacity:1;stroke-miterlimit:4" d="m1600.767 1410.701 41.609-437.048 207.416 7.968" transform="matrix(.09951 0 0 -.09951 .148 185.184)"/></g><g clip-path="url(#c)"><path style="stroke:none;fill-rule:evenodd;fill:#514b81;fill-opacity:1" d="m163.586 88.293 20.64-.793-5.687 32.355-14.953-31.562"/></g><g clip-path="url(#d)"><path style="fill:none;stroke-width:5.938;stroke-linecap:butt;stroke-linejoin:miter;stroke:#231f20;stroke-opacity:1;stroke-miterlimit:4" d="m1642.376 973.653 207.416 7.968-57.154-325.137" transform="matrix(.09951 0 0 -.09951 .148 185.184)"/></g><path style="stroke:none;fill-rule:evenodd;fill:#514b81;fill-opacity:1" d="m178.54 119.855-14.302 12.38-.652-43.942 14.953 31.562"/><path style="fill:none;stroke-width:5.938;stroke-linecap:butt;stroke-linejoin:miter;stroke:#231f20;stroke-opacity:1;stroke-miterlimit:4" d="M1792.638 656.484 1648.931 532.09l-6.555 441.563" transform="matrix(.09951 0 0 -.09951 .148 185.184)"/><path style="stroke:none;fill-rule:evenodd;fill:#843e58;fill-opacity:1" d="m138.227 9.863-25.582 11.758 22.261 20.094 3.32-31.852"/><path style="fill:none;stroke-width:5.938;stroke-linecap:butt;stroke-linejoin:miter;stroke:#231f20;stroke-opacity:1;stroke-miterlimit:4" d="m1387.542 1761.785-257.071-118.153 223.706-201.92" transform="matrix(.09951 0 0 -.09951 .148 185.184)"/><path style="stroke:none;fill-rule:evenodd;fill:#843e58;fill-opacity:1" d="m134.906 41.715 24.54 3.086-21.22-34.938-3.32 31.852"/><path style="fill:none;stroke-width:5.938;stroke-linecap:butt;stroke-linejoin:miter;stroke:#231f20;stroke-opacity:1;stroke-miterlimit:4" d="m1354.177 1441.712 246.59-31.01-213.225 351.083" transform="matrix(.09951 0 0 -.09951 .148 185.184)"/><path style="stroke:none;fill-rule:evenodd;fill:#799cd3;fill-opacity:1" d="m95.516 172.852 24.812-12.653 26.707 9.469-51.52 3.184"/><path style="fill:none;stroke-width:5.938;stroke-linecap:butt;stroke-linejoin:miter;stroke:#231f20;stroke-opacity:1;stroke-miterlimit:4" d="m958.344 123.932 249.339 127.142 268.376-95.15" transform="matrix(.09951 0 0 -.09951 .148 185.184)"/><path style="stroke:none;fill-rule:evenodd;fill:#dfc8b8;fill-opacity:1" d="m14.781 96.672 7.281 44.332 21.922 2.687-29.203-47.02"/><path style="fill:none;stroke-width:5.938;stroke-linecap:butt;stroke-linejoin:miter;stroke:#231f20;stroke-opacity:1;stroke-miterlimit:4" d="m147.052 889.454 73.169-445.488 220.29-27.007" transform="matrix(.09951 0 0 -.09951 .148 185.184)"/><path style="stroke:none;fill-rule:evenodd;fill:#d2dcdb;fill-opacity:1" d="m48.133 176.203 19.304-12.582-23.453-19.93 4.149 32.512"/><path style="fill:none;stroke-width:5.938;stroke-linecap:butt;stroke-linejoin:miter;stroke:#231f20;stroke-opacity:1;stroke-miterlimit:4" d="m482.199 90.252 193.99 126.436-235.677 200.271" transform="matrix(.09951 0 0 -.09951 .148 185.184)"/><path style="stroke:none;fill-rule:evenodd;fill:#d2dcdb;fill-opacity:1" d="m43.984 143.691-21.922-2.687 26.07 35.2-4.148-32.513"/><path style="fill:none;stroke-width:5.938;stroke-linecap:butt;stroke-linejoin:miter;stroke:#231f20;stroke-opacity:1;stroke-miterlimit:4" d="M440.512 416.96 220.22 443.965 482.199 90.252" transform="matrix(.09951 0 0 -.09951 .148 185.184)"/><path style="stroke:none;fill-rule:evenodd;fill:#d67c50;fill-opacity:1" d="m39.012 14.488 20.593 9.672-21.097 22.422.504-32.094"/><path style="fill:none;stroke-width:5.938;stroke-linecap:butt;stroke-linejoin:miter;stroke:#231f20;stroke-opacity:1;stroke-miterlimit:4" d="m390.542 1715.309 206.945-97.192-212.009-225.315" transform="matrix(.09951 0 0 -.09951 .148 185.184)"/><path style="stroke:none;fill-rule:evenodd;fill:#d67c50;fill-opacity:1" d="m38.508 46.582-21.492 5.484 21.996-37.578-.504 32.094"/><path style="fill:none;stroke-width:5.938;stroke-linecap:butt;stroke-linejoin:miter;stroke:#231f20;stroke-opacity:1;stroke-miterlimit:4" d="m385.478 1392.802-215.973-55.112 221.037 377.619" transform="matrix(.09951 0 0 -.09951 .148 185.184)"/><path style="stroke:none;fill-rule:evenodd;fill:#b36665;fill-opacity:1" d="m59.605 24.16 26.938-12.164 26.102 9.625-53.04 2.54"/><path style="fill:none;stroke-width:5.938;stroke-linecap:butt;stroke-linejoin:miter;stroke:#231f20;stroke-opacity:1;stroke-miterlimit:4" d="m597.487 1618.117 270.692 122.235 262.292-96.72" transform="matrix(.09951 0 0 -.09951 .148 185.184)"/><path style="stroke:none;fill-rule:evenodd;fill:#8e303c;fill-opacity:1" d="m86.543 11.996 26.102 9.625 25.582-11.758-51.684 2.133"/><path style="fill:none;stroke-width:5.938;stroke-linecap:butt;stroke-linejoin:miter;stroke:#231f20;stroke-opacity:1;stroke-miterlimit:4" d="m868.179 1740.352 262.292-96.72 257.071 118.153" transform="matrix(.09951 0 0 -.09951 .148 185.184)"/><path style="stroke:none;fill-rule:evenodd;fill:#a2c7e9;fill-opacity:1" d="m95.516 172.852-28.079-9.23-19.304 12.581 47.383-3.351"/><path style="fill:none;stroke-width:5.938;stroke-linecap:butt;stroke-linejoin:miter;stroke:#231f20;stroke-opacity:1;stroke-miterlimit:4" d="M958.344 123.932 676.19 216.688 482.199 90.252" transform="matrix(.09951 0 0 -.09951 .148 185.184)"/><g clip-path="url(#e)"><path style="stroke:none;fill-rule:evenodd;fill:#f8e49e;fill-opacity:1" d="M14.781 96.672.543 97.855l9.613 32.149 4.625-33.332"/></g><g clip-path="url(#f)"><path style="fill:none;stroke-width:5.938;stroke-linecap:butt;stroke-linejoin:miter;stroke:#231f20;stroke-opacity:1;stroke-miterlimit:4" d="M147.052 889.454 3.973 877.56l96.603-323.056" transform="matrix(.09951 0 0 -.09951 .148 185.184)"/></g><path style="stroke:none;fill-rule:evenodd;fill:#f8e49e;fill-opacity:1" d="m10.156 130.004 11.906 11-7.28-44.332-4.626 33.332"/><path style="fill:none;stroke-width:5.938;stroke-linecap:butt;stroke-linejoin:miter;stroke:#231f20;stroke-opacity:1;stroke-miterlimit:4" d="m100.576 554.504 119.645-110.538-73.169 445.488" transform="matrix(.09951 0 0 -.09951 .148 185.184)"/><g clip-path="url(#g)"><path style="stroke:none;fill-rule:evenodd;fill:#f8bb61;fill-opacity:1" d="M17.016 52.066 14.78 96.672.543 97.855l16.473-45.789"/></g><g clip-path="url(#h)"><path style="fill:none;stroke-width:5.938;stroke-linecap:butt;stroke-linejoin:miter;stroke:#231f20;stroke-opacity:1;stroke-miterlimit:4" d="m169.505 1337.69-22.453-448.236L3.973 877.56" transform="matrix(.09951 0 0 -.09951 .148 185.184)"/></g><path style="stroke:none;fill-rule:evenodd;fill:#b04533;fill-opacity:1" d="M86.543 11.996 59.605 24.16l-20.593-9.672 47.531-2.492"/><path style="fill:none;stroke-width:5.938;stroke-linecap:butt;stroke-linejoin:miter;stroke:#231f20;stroke-opacity:1;stroke-miterlimit:4" d="m868.179 1740.352-270.692-122.235-206.945 97.192" transform="matrix(.09951 0 0 -.09951 .148 185.184)"/><path style="stroke:none;fill-rule:evenodd;fill:#274986;fill-opacity:1" d="m175.316 136.113-28.28 33.555 17.202-37.434 11.078 3.88"/><path style="fill:none;stroke-width:5.938;stroke-linecap:butt;stroke-linejoin:miter;stroke:#231f20;stroke-opacity:1;stroke-miterlimit:4" d="M1760.254 493.111 1476.06 155.923 1648.93 532.09" transform="matrix(.09951 0 0 -.09951 .148 185.184)"/><path style="stroke:none;fill-rule:evenodd;fill:#274986;fill-opacity:1" d="m164.238 132.234 14.301-12.379-3.223 16.258-11.078-3.879"/><path style="fill:none;stroke-width:5.938;stroke-linecap:butt;stroke-linejoin:miter;stroke:#231f20;stroke-opacity:1;stroke-miterlimit:4" d="m1648.931 532.09 143.707 124.394-32.384-163.373" transform="matrix(.09951 0 0 -.09951 .148 185.184)"/><path style="stroke:none;fill-rule:evenodd;fill:#36363a;fill-opacity:1" d="M175.043 55.96 159.445 44.8 138.227 9.864l36.816 46.098"/><path style="fill:none;stroke-width:5.938;stroke-linecap:butt;stroke-linejoin:miter;stroke:#231f20;stroke-opacity:1;stroke-miterlimit:4" d="m1757.507 1298.554-156.74 112.147-213.225 351.084" transform="matrix(.09951 0 0 -.09951 .148 185.184)"/><g clip-path="url(#i)"><path style="stroke:none;fill-rule:evenodd;fill:#583865;fill-opacity:1" d="m184.227 87.5-9.184-31.54-15.598-11.16 24.782 42.7"/></g><g clip-path="url(#j)"><path style="fill:none;stroke-width:5.938;stroke-linecap:butt;stroke-linejoin:miter;stroke:#231f20;stroke-opacity:1;stroke-miterlimit:4" d="m1849.792 981.621-92.285 316.933-156.74 112.147" transform="matrix(.09951 0 0 -.09951 .148 185.184)"/></g><path style="stroke:none;fill-rule:evenodd;fill:#a2c7e9;fill-opacity:1" d="m48.133 176.203 50.394 8.41-3.011-11.761-47.383 3.351"/><g clip-path="url(#k)"><path style="fill:none;stroke-width:5.938;stroke-linecap:butt;stroke-linejoin:miter;stroke:#231f20;stroke-opacity:1;stroke-miterlimit:4" d="M482.199 90.252 988.609 5.74l-30.265 118.193" transform="matrix(.09951 0 0 -.09951 .148 185.184)"/></g><path style="stroke:none;fill-rule:evenodd;fill:#799cd3;fill-opacity:1" d="m147.035 169.668-48.508 14.945-3.011-11.761 51.52-3.184"/><g clip-path="url(#l)"><path style="fill:none;stroke-width:5.938;stroke-linecap:butt;stroke-linejoin:miter;stroke:#231f20;stroke-opacity:1;stroke-miterlimit:4" d="M1476.059 155.923 988.609 5.74l-30.265 118.193" transform="matrix(.09951 0 0 -.09951 .148 185.184)"/></g><path style="stroke:none;fill-rule:evenodd;fill:#b04533;fill-opacity:1" d="M39.012 14.488 88.258.41l-1.715 11.586-47.531 2.492"/><path style="fill:none;stroke-width:5.938;stroke-linecap:butt;stroke-linejoin:miter;stroke:#231f20;stroke-opacity:1;stroke-miterlimit:4" d="m390.542 1715.309 494.87 141.47-17.233-116.427" transform="matrix(.09951 0 0 -.09951 .148 185.184)"/><path style="stroke:none;fill-rule:evenodd;fill:#8e303c;fill-opacity:1" d="m138.227 22.797-49.97-9.45-1.714 11.583 51.684-2.133"/><path style="fill:none;stroke-width:5.938;stroke-linecap:butt;stroke-linejoin:miter;stroke:#231f20;stroke-opacity:1;stroke-miterlimit:4" d="m1387.542 1761.785-502.13 94.993-17.233-116.426" transform="matrix(.09951 0 0 -.09951 .148 185.184)"/><path style="stroke:none;fill-rule:evenodd;fill:#b6d69f;fill-opacity:1" d="m19.988 145.777 28.145 30.426-26.07-35.2-2.075 4.774"/><path style="fill:none;stroke-width:5.938;stroke-linecap:butt;stroke-linejoin:miter;stroke:#231f20;stroke-opacity:1;stroke-miterlimit:4" d="M199.377 395.998 482.2 90.252 220.221 443.966" transform="matrix(.09951 0 0 -.09951 .148 185.184)"/><path style="stroke:none;fill-rule:evenodd;fill:#b6d69f;fill-opacity:1" d="m22.063 141.004-11.907-11 9.832 15.773 2.075-4.773"/><path style="fill:none;stroke-width:5.938;stroke-linecap:butt;stroke-linejoin:miter;stroke:#231f20;stroke-opacity:1;stroke-miterlimit:4" d="M220.221 443.966 100.576 554.504l98.801-158.506" transform="matrix(.09951 0 0 -.09951 .148 185.184)"/><g clip-path="url(#m)"><path style="stroke:none;fill-rule:evenodd;fill:#f8bb61;fill-opacity:1" d="m.543 97.855 5.906-33.05 10.567-12.739L.543 97.856"/></g><g clip-path="url(#n)"><path style="fill:none;stroke-width:5.938;stroke-linecap:butt;stroke-linejoin:miter;stroke:#231f20;stroke-opacity:1;stroke-miterlimit:4" d="m3.973 877.56 59.352 332.124 106.18 128.006" transform="matrix(.09951 0 0 -.09951 .148 185.184)"/></g><path style="stroke:none;fill-rule:evenodd;fill:#be5c23;fill-opacity:1" d="m6.45 64.805 10.566-12.739 21.996-37.578L6.449 64.805"/><path style="fill:none;stroke-width:5.938;stroke-linecap:butt;stroke-linejoin:miter;stroke:#231f20;stroke-opacity:1;stroke-miterlimit:4" d="m63.325 1209.684 106.18 128.006 221.037 377.619" transform="matrix(.09951 0 0 -.09951 .148 185.184)"/><g clip-path="url(#o)"><path style="stroke:none;fill-rule:evenodd;fill:#ba7f20;fill-opacity:1" d="m183.492 87.977.735-.477-5.688 32.355 4.953-31.878"/></g><g clip-path="url(#p)"><path style="fill:none;stroke-width:5.938;stroke-linecap:butt;stroke-linejoin:miter;stroke:#231f20;stroke-opacity:1;stroke-miterlimit:4" d="m1842.412 976.832 7.38 4.79-57.154-325.138" transform="matrix(.09951 0 0 -.09951 .148 185.184)"/></g><g clip-path="url(#q)"><path style="stroke:none;fill-rule:evenodd;fill:#b7ae49;fill-opacity:1" d="m175.043 55.96 9.184 31.54-.735.477-8.449-32.016"/></g><g clip-path="url(#r)"><path style="fill:none;stroke-width:5.938;stroke-linecap:butt;stroke-linejoin:miter;stroke:#231f20;stroke-opacity:1;stroke-miterlimit:4" d="m1757.507 1298.554 92.285-316.933-7.38-4.789" transform="matrix(.09951 0 0 -.09951 .148 185.184)"/></g><path style="stroke:none;fill-rule:evenodd;fill:#ba7f20;fill-opacity:1" d="m178.54 119.855-3.224 16.258 8.176-48.136-4.953 31.878"/><g clip-path="url(#s)"><path style="fill:none;stroke-width:5.938;stroke-linecap:butt;stroke-linejoin:miter;stroke:#231f20;stroke-opacity:1;stroke-miterlimit:4" d="m1792.638 656.484-32.384-163.373 82.158 483.721" transform="matrix(.09951 0 0 -.09951 .148 185.184)"/></g><path style="stroke:none;fill-rule:evenodd;fill:#36363a;fill-opacity:1" d="m138.227 9.863 31.863 30.75 4.953 15.348-36.816-46.098"/><path style="fill:none;stroke-width:5.938;stroke-linecap:butt;stroke-linejoin:miter;stroke:#231f20;stroke-opacity:1;stroke-miterlimit:4" d="m1387.542 1761.785 320.191-309.004 49.774-154.227" transform="matrix(.09951 0 0 -.09951 .148 185.184)"/><path style="stroke:none;fill-rule:evenodd;fill:#b7ae49;fill-opacity:1" d="M183.492 87.977 170.09 40.613l4.953 15.348 8.45 32.016"/><g clip-path="url(#t)"><path style="fill:none;stroke-width:5.938;stroke-linecap:butt;stroke-linejoin:miter;stroke:#231f20;stroke-opacity:1;stroke-miterlimit:4" d="m1842.412 976.832-134.679 475.95 49.774-154.228" transform="matrix(.09951 0 0 -.09951 .148 185.184)"/></g><path style="stroke:none;fill-rule:evenodd;fill:#c65822;fill-opacity:1" d="m175.316 136.113-28.28 33.555-14.938 1.34 43.218-34.895"/><path style="fill:none;stroke-width:5.938;stroke-linecap:butt;stroke-linejoin:miter;stroke:#231f20;stroke-opacity:1;stroke-miterlimit:4" d="M1760.254 493.111 1476.06 155.923l-150.106-13.464" transform="matrix(.09951 0 0 -.09951 .148 185.184)"/><path style="stroke:none;fill-rule:evenodd;fill:#772d32;fill-opacity:1" d="m147.035 169.668-48.508 14.945 2.446-2.992 46.062-11.953"/><g clip-path="url(#u)"><path style="fill:none;stroke-width:5.938;stroke-linecap:butt;stroke-linejoin:miter;stroke:#231f20;stroke-opacity:1;stroke-miterlimit:4" d="M1476.059 155.923 988.609 5.74l24.572 30.069" transform="matrix(.09951 0 0 -.09951 .148 185.184)"/></g><path style="stroke:none;fill-rule:evenodd;fill:#772d32;fill-opacity:1" d="m100.973 181.621 31.125-10.613 14.937-1.34-46.062 11.953"/><path style="fill:none;stroke-width:5.938;stroke-linecap:butt;stroke-linejoin:miter;stroke:#231f20;stroke-opacity:1;stroke-miterlimit:4" d="m1013.181 35.808 312.772 106.651 150.106 13.464" transform="matrix(.09951 0 0 -.09951 .148 185.184)"/><path style="stroke:none;fill-rule:evenodd;fill:#bee7da;fill-opacity:1" d="m123.246 11.012 14.98-1.149 31.864 30.75-46.844-29.601"/><path style="fill:none;stroke-width:5.938;stroke-linecap:butt;stroke-linejoin:miter;stroke:#231f20;stroke-opacity:1;stroke-miterlimit:4" d="m1237.005 1750.244 150.537 11.54 320.191-309.003" transform="matrix(.09951 0 0 -.09951 .148 185.184)"/><path style="stroke:none;fill-rule:evenodd;fill:#55a5c7;fill-opacity:1" d="m123.246 23.95 14.98-1.153-49.968-9.45 34.988 10.602"/><path style="fill:none;stroke-width:5.938;stroke-linecap:butt;stroke-linejoin:miter;stroke:#231f20;stroke-opacity:1;stroke-miterlimit:4" d="m1237.005 1750.244 150.537 11.54-502.13 94.994" transform="matrix(.09951 0 0 -.09951 .148 185.184)"/><path style="stroke:none;fill-rule:evenodd;fill:#4b3337;fill-opacity:1" d="m71.063 175.043-22.93 1.16 50.394 8.41-27.465-9.57"/><g clip-path="url(#v)"><path style="fill:none;stroke-width:5.938;stroke-linecap:butt;stroke-linejoin:miter;stroke:#231f20;stroke-opacity:1;stroke-miterlimit:4" d="M712.617 101.91 482.2 90.253 988.609 5.74" transform="matrix(.09951 0 0 -.09951 .148 185.184)"/></g><path style="stroke:none;fill-rule:evenodd;fill:#4b3337;fill-opacity:1" d="m98.527 184.613 2.446-2.992-29.91-6.578 27.464 9.57"/><g clip-path="url(#w)"><path style="fill:none;stroke-width:5.938;stroke-linecap:butt;stroke-linejoin:miter;stroke:#231f20;stroke-opacity:1;stroke-miterlimit:4" d="m988.609 5.74 24.572 30.068-300.564 66.103" transform="matrix(.09951 0 0 -.09951 .148 185.184)"/></g><path style="stroke:none;fill-rule:evenodd;fill:#55a5c7;fill-opacity:1" d="m88.258 13.348 2.797 3.27 32.191 7.331-34.988-10.601"/><path style="fill:none;stroke-width:5.938;stroke-linecap:butt;stroke-linejoin:miter;stroke:#231f20;stroke-opacity:1;stroke-miterlimit:4" d="m885.411 1856.778 28.106-32.855 323.488-73.679" transform="matrix(.09951 0 0 -.09951 .148 185.184)"/><path style="stroke:none;fill-rule:evenodd;fill:#267bba;fill-opacity:1" d="m62.02 13.871-23.008.617L88.258.41 62.02 13.871"/><path style="fill:none;stroke-width:5.938;stroke-linecap:butt;stroke-linejoin:miter;stroke:#231f20;stroke-opacity:1;stroke-miterlimit:4" d="m621.745 1721.51-231.203-6.201 494.87 141.47" transform="matrix(.09951 0 0 -.09951 .148 185.184)"/><path style="stroke:none;fill-rule:evenodd;fill:#267bba;fill-opacity:1" d="m88.258.41 2.797 3.27L62.02 13.87 88.258.411"/><path style="fill:none;stroke-width:5.938;stroke-linecap:butt;stroke-linejoin:miter;stroke:#231f20;stroke-opacity:1;stroke-miterlimit:4" d="m885.411 1856.778 28.106-32.855-291.772-102.412" transform="matrix(.09951 0 0 -.09951 .148 185.184)"/><path style="stroke:none;fill-rule:evenodd;fill:#5b303b;fill-opacity:1" d="m19.988 145.777 28.145 30.426 22.93-1.16-51.075-29.266"/><path style="fill:none;stroke-width:5.938;stroke-linecap:butt;stroke-linejoin:miter;stroke:#231f20;stroke-opacity:1;stroke-miterlimit:4" d="M199.377 395.998 482.2 90.252l230.418 11.659" transform="matrix(.09951 0 0 -.09951 .148 185.184)"/><path style="stroke:none;fill-rule:evenodd;fill:#be5c23;fill-opacity:1" d="M39.012 14.488 14.469 48.484l-8.02 16.32 32.563-50.316"/><path style="fill:none;stroke-width:5.938;stroke-linecap:butt;stroke-linejoin:miter;stroke:#231f20;stroke-opacity:1;stroke-miterlimit:4" d="m390.542 1715.309-246.63-341.624-80.587-164" transform="matrix(.09951 0 0 -.09951 .148 185.184)"/><path style="stroke:none;fill-rule:evenodd;fill:#416bad;fill-opacity:1" d="m39.012 14.488 23.008-.617-24.516 24.902 1.508-24.285"/><path style="fill:none;stroke-width:5.938;stroke-linecap:butt;stroke-linejoin:miter;stroke:#231f20;stroke-opacity:1;stroke-miterlimit:4" d="m390.542 1715.309 231.203 6.202L375.39 1471.27" transform="matrix(.09951 0 0 -.09951 .148 185.184)"/><path style="stroke:none;fill-rule:evenodd;fill:#416bad;fill-opacity:1" d="m37.504 38.773-23.035 9.711 24.543-33.996-1.508 24.285"/><path style="fill:none;stroke-width:5.938;stroke-linecap:butt;stroke-linejoin:miter;stroke:#231f20;stroke-opacity:1;stroke-miterlimit:4" d="m375.39 1471.27-231.478-97.585 246.63 341.624" transform="matrix(.09951 0 0 -.09951 .148 185.184)"/><g clip-path="url(#x)"><path style="stroke:none;fill-rule:evenodd;fill:#353548;fill-opacity:1" d="m9.79 97.777-9.247.078 9.613 32.149-.367-32.227"/></g><g clip-path="url(#y)"><path style="fill:none;stroke-width:5.938;stroke-linecap:butt;stroke-linejoin:miter;stroke:#231f20;stroke-opacity:1;stroke-miterlimit:4" d="m96.886 878.345-92.913-.785 96.603-323.056" transform="matrix(.09951 0 0 -.09951 .148 185.184)"/></g><path style="stroke:none;fill-rule:evenodd;fill:#353548;fill-opacity:1" d="m10.156 130.004 9.832 15.773-10.199-48 .367 32.227"/><path style="fill:none;stroke-width:5.938;stroke-linecap:butt;stroke-linejoin:miter;stroke:#231f20;stroke-opacity:1;stroke-miterlimit:4" d="m100.576 554.504 98.801-158.506-102.49 482.347" transform="matrix(.09951 0 0 -.09951 .148 185.184)"/><path style="stroke:none;fill-rule:evenodd;fill:#323462;fill-opacity:1" d="m9.79 97.777 4.679-49.293-8.02 16.32 3.34 32.973"/><path style="fill:none;stroke-width:5.938;stroke-linecap:butt;stroke-linejoin:miter;stroke:#231f20;stroke-opacity:1;stroke-miterlimit:4" d="m96.886 878.345 47.026 495.34-80.587-164" transform="matrix(.09951 0 0 -.09951 .148 185.184)"/><g clip-path="url(#z)"><path style="stroke:none;fill-rule:evenodd;fill:#323462;fill-opacity:1" d="M6.45 64.805.542 97.855l9.246-.078-3.34-32.972"/></g><g clip-path="url(#A)"><path style="fill:none;stroke-width:5.938;stroke-linecap:butt;stroke-linejoin:miter;stroke:#231f20;stroke-opacity:1;stroke-miterlimit:4" d="M63.325 1209.684 3.973 877.56l92.913.785" transform="matrix(.09951 0 0 -.09951 .148 185.184)"/></g><path style="stroke:none;fill-rule:evenodd;fill:#c65822;fill-opacity:1" d="m132.098 171.008 25.058-24.914 18.16-9.98-43.218 34.894"/><path style="fill:none;stroke-width:5.938;stroke-linecap:butt;stroke-linejoin:miter;stroke:#231f20;stroke-opacity:1;stroke-miterlimit:4" d="m1325.953 142.46 251.812 250.358 182.49 100.293" transform="matrix(.09951 0 0 -.09951 .148 185.184)"/><path style="stroke:none;fill-rule:evenodd;fill:#eda669;fill-opacity:1" d="m157.156 146.094 18.16-9.98 8.176-48.137-26.336 58.117"/><g clip-path="url(#B)"><path style="fill:none;stroke-width:5.938;stroke-linecap:butt;stroke-linejoin:miter;stroke:#231f20;stroke-opacity:1;stroke-miterlimit:4" d="m1577.765 392.818 182.49 100.293 82.157 483.721" transform="matrix(.09951 0 0 -.09951 .148 185.184)"/></g><path style="stroke:none;fill-rule:evenodd;fill:#ece0bf;fill-opacity:1" d="m149.742 58.004 33.75 29.973-13.402-47.364-20.348 17.39"/><g clip-path="url(#C)"><path style="fill:none;stroke-width:5.938;stroke-linecap:butt;stroke-linejoin:miter;stroke:#231f20;stroke-opacity:1;stroke-miterlimit:4" d="m1503.262 1278.024 339.15-301.192-134.679 475.95" transform="matrix(.09951 0 0 -.09951 .148 185.184)"/></g><path style="stroke:none;fill-rule:evenodd;fill:#ece0bf;fill-opacity:1" d="m170.09 40.613-19.145-7.465-1.203 24.856 20.348-17.39"/><path style="fill:none;stroke-width:5.938;stroke-linecap:butt;stroke-linejoin:miter;stroke:#231f20;stroke-opacity:1;stroke-miterlimit:4" d="m1707.733 1452.781-192.381 75.014-12.09-249.77" transform="matrix(.09951 0 0 -.09951 .148 185.184)"/><path style="stroke:none;fill-rule:evenodd;fill:#bee7da;fill-opacity:1" d="m170.09 40.613-19.145-7.465-27.699-22.136 46.844 29.601"/><path style="fill:none;stroke-width:5.938;stroke-linecap:butt;stroke-linejoin:miter;stroke:#231f20;stroke-opacity:1;stroke-miterlimit:4" d="m1707.733 1452.781-192.381 75.014-278.347 222.45" transform="matrix(.09951 0 0 -.09951 .148 185.184)"/><path style="stroke:none;fill-rule:evenodd;fill:#ac504c;fill-opacity:1" d="m103.645 149.742 28.453 21.266-31.125 10.613 2.672-31.879"/><path style="fill:none;stroke-width:5.938;stroke-linecap:butt;stroke-linejoin:miter;stroke:#231f20;stroke-opacity:1;stroke-miterlimit:4" d="m1040.03 356.156 285.923-213.697-312.772-106.651" transform="matrix(.09951 0 0 -.09951 .148 185.184)"/><path style="stroke:none;fill-rule:evenodd;fill:#ac504c;fill-opacity:1" d="m100.973 181.621-29.91-6.578 32.582-25.3-2.672 31.878"/><path style="fill:none;stroke-width:5.938;stroke-linecap:butt;stroke-linejoin:miter;stroke:#231f20;stroke-opacity:1;stroke-miterlimit:4" d="M1013.181 35.808 712.617 101.91l327.414 254.245" transform="matrix(.09951 0 0 -.09951 .148 185.184)"/><path style="stroke:none;fill-rule:evenodd;fill:#a1b3d9;fill-opacity:1" d="M62.02 13.871 91.055 3.68l32.191 7.332-61.226 2.86"/><path style="fill:none;stroke-width:5.938;stroke-linecap:butt;stroke-linejoin:miter;stroke:#231f20;stroke-opacity:1;stroke-miterlimit:4" d="m621.745 1721.51 291.772 102.413 323.488-73.679" transform="matrix(.09951 0 0 -.09951 .148 185.184)"/><path style="stroke:none;fill-rule:evenodd;fill:#5b303b;fill-opacity:1" d="M71.063 175.043 43.96 153.258l-23.973-7.48 51.075 29.265"/><path style="fill:none;stroke-width:5.938;stroke-linecap:butt;stroke-linejoin:miter;stroke:#231f20;stroke-opacity:1;stroke-miterlimit:4" d="m712.617 101.91-272.34 218.917-240.9 75.17" transform="matrix(.09951 0 0 -.09951 .148 185.184)"/><path style="stroke:none;fill-rule:evenodd;fill:#774569;fill-opacity:1" d="m43.96 153.258-23.972-7.48-10.199-48 34.172 55.48"/><path style="fill:none;stroke-width:5.938;stroke-linecap:butt;stroke-linejoin:miter;stroke:#231f20;stroke-opacity:1;stroke-miterlimit:4" d="m440.276 320.827-240.899 75.17-102.49 482.348" transform="matrix(.09951 0 0 -.09951 .148 185.184)"/><path style="stroke:none;fill-rule:evenodd;fill:#6f6799;fill-opacity:1" d="M45.816 63.465 9.79 97.777l4.68-49.293 31.347 14.98"/><path style="fill:none;stroke-width:5.938;stroke-linecap:butt;stroke-linejoin:miter;stroke:#231f20;stroke-opacity:1;stroke-miterlimit:4" d="M458.922 1223.148 96.886 878.345l47.026 495.34" transform="matrix(.09951 0 0 -.09951 .148 185.184)"/><path style="stroke:none;fill-rule:evenodd;fill:#6f6799;fill-opacity:1" d="m14.469 48.484 23.035-9.71 8.312 24.69-31.347-14.98"/><path style="fill:none;stroke-width:5.938;stroke-linecap:butt;stroke-linejoin:miter;stroke:#231f20;stroke-opacity:1;stroke-miterlimit:4" d="m143.912 1373.685 231.478 97.585 83.532-248.122" transform="matrix(.09951 0 0 -.09951 .148 185.184)"/><path style="stroke:none;fill-rule:evenodd;fill:#ce8169;fill-opacity:1" d="m157.156 146.094-25.058 24.914-28.453-21.266 53.511-3.648"/><path style="fill:none;stroke-width:5.938;stroke-linecap:butt;stroke-linejoin:miter;stroke:#231f20;stroke-opacity:1;stroke-miterlimit:4" d="M1577.765 392.818 1325.953 142.46l-285.922 213.697" transform="matrix(.09951 0 0 -.09951 .148 185.184)"/><path style="stroke:none;fill-rule:evenodd;fill:#eda669;fill-opacity:1" d="m183.492 87.977-30.23 34.054 3.894 24.063 26.336-58.117"/><g clip-path="url(#D)"><path style="fill:none;stroke-width:5.938;stroke-linecap:butt;stroke-linejoin:miter;stroke:#231f20;stroke-opacity:1;stroke-miterlimit:4" d="M1842.412 976.832 1538.629 634.62l39.136-241.802" transform="matrix(.09951 0 0 -.09951 .148 185.184)"/></g><path style="stroke:none;fill-rule:evenodd;fill:#deb49e;fill-opacity:1" d="m183.492 87.977-33.75-29.973-11.969 32.906 45.72-2.933"/><g clip-path="url(#E)"><path style="fill:none;stroke-width:5.938;stroke-linecap:butt;stroke-linejoin:miter;stroke:#231f20;stroke-opacity:1;stroke-miterlimit:4" d="m1842.412 976.832-339.15 301.192-120.273-330.671" transform="matrix(.09951 0 0 -.09951 .148 185.184)"/></g><path style="stroke:none;fill-rule:evenodd;fill:#deb49e;fill-opacity:1" d="m137.773 90.91 15.489 31.121 30.23-34.054-45.719 2.933"/><g clip-path="url(#F)"><path style="fill:none;stroke-width:5.938;stroke-linecap:butt;stroke-linejoin:miter;stroke:#231f20;stroke-opacity:1;stroke-miterlimit:4" d="m1382.989 947.353 155.64-312.733 303.783 342.212" transform="matrix(.09951 0 0 -.09951 .148 185.184)"/></g><path style="stroke:none;fill-rule:evenodd;fill:#cac5cd;fill-opacity:1" d="m97.32 36.117 25.926-25.105 27.7 22.136-53.626 2.97"/><path style="fill:none;stroke-width:5.938;stroke-linecap:butt;stroke-linejoin:miter;stroke:#231f20;stroke-opacity:1;stroke-miterlimit:4" d="m976.48 1497.962 260.525 252.282 278.347-222.45" transform="matrix(.09951 0 0 -.09951 .148 185.184)"/><path style="stroke:none;fill-rule:evenodd;fill:#a1b3d9;fill-opacity:1" d="M123.246 11.012 97.32 36.117l-35.3-22.246 61.226-2.86"/><path style="fill:none;stroke-width:5.938;stroke-linecap:butt;stroke-linejoin:miter;stroke:#231f20;stroke-opacity:1;stroke-miterlimit:4" d="m1237.005 1750.244-260.526-252.282-354.734 223.549" transform="matrix(.09951 0 0 -.09951 .148 185.184)"/><path style="stroke:none;fill-rule:evenodd;fill:#9c5869;fill-opacity:1" d="m43.96 153.258 27.102 21.785 32.583-25.3-59.684 3.515"/><path style="fill:none;stroke-width:5.938;stroke-linecap:butt;stroke-linejoin:miter;stroke:#231f20;stroke-opacity:1;stroke-miterlimit:4" d="m440.276 320.827 272.341-218.916 327.414 254.245" transform="matrix(.09951 0 0 -.09951 .148 185.184)"/><path style="stroke:none;fill-rule:evenodd;fill:#ce8169;fill-opacity:1" d="m103.645 149.742 49.617-27.71 3.894 24.062-53.511 3.648"/><path style="fill:none;stroke-width:5.938;stroke-linecap:butt;stroke-linejoin:miter;stroke:#231f20;stroke-opacity:1;stroke-miterlimit:4" d="M1040.03 356.156 1538.63 634.62l39.136-241.802" transform="matrix(.09951 0 0 -.09951 .148 185.184)"/><path style="stroke:none;fill-rule:evenodd;fill:#cac5cd;fill-opacity:1" d="m150.945 33.148-1.203 24.856L97.32 36.117l53.625-2.969"/><path style="fill:none;stroke-width:5.938;stroke-linecap:butt;stroke-linejoin:miter;stroke:#231f20;stroke-opacity:1;stroke-miterlimit:4" d="m1515.352 1527.795-12.09-249.77-526.783 219.937" transform="matrix(.09951 0 0 -.09951 .148 185.184)"/><path style="stroke:none;fill-rule:evenodd;fill:#948eb7;fill-opacity:1" d="m97.32 36.117-35.3-22.246-24.516 24.902 59.816-2.656"/><path style="fill:none;stroke-width:5.938;stroke-linecap:butt;stroke-linejoin:miter;stroke:#231f20;stroke-opacity:1;stroke-miterlimit:4" d="m976.48 1497.962-354.735 223.549L375.39 1471.27" transform="matrix(.09951 0 0 -.09951 .148 185.184)"/><path style="stroke:none;fill-rule:evenodd;fill:#9c5869;fill-opacity:1" d="m103.645 149.742-54.176-21.449-5.508 24.965 59.684-3.516"/><path style="fill:none;stroke-width:5.938;stroke-linecap:butt;stroke-linejoin:miter;stroke:#231f20;stroke-opacity:1;stroke-miterlimit:4" d="m1040.03 356.156-544.406 215.54-55.348-250.869" transform="matrix(.09951 0 0 -.09951 .148 185.184)"/><path style="stroke:none;fill-rule:evenodd;fill:#774569;fill-opacity:1" d="m9.79 97.777 39.679 30.516-5.508 24.965-34.172-55.48"/><path style="fill:none;stroke-width:5.938;stroke-linecap:butt;stroke-linejoin:miter;stroke:#231f20;stroke-opacity:1;stroke-miterlimit:4" d="m96.886 878.345 398.738-306.648-55.348-250.87" transform="matrix(.09951 0 0 -.09951 .148 185.184)"/><path style="stroke:none;fill-rule:evenodd;fill:#916d8e;fill-opacity:1" d="M45.816 63.465 9.79 97.777l39.68 30.516-3.653-64.828"/><path style="fill:none;stroke-width:5.938;stroke-linecap:butt;stroke-linejoin:miter;stroke:#231f20;stroke-opacity:1;stroke-miterlimit:4" d="M458.922 1223.148 96.886 878.345l398.738-306.648" transform="matrix(.09951 0 0 -.09951 .148 185.184)"/><path style="stroke:none;fill-rule:evenodd;fill:#948eb7;fill-opacity:1" d="m37.504 38.773 8.312 24.692L97.32 36.117l-59.816 2.656"/><path style="fill:none;stroke-width:5.938;stroke-linecap:butt;stroke-linejoin:miter;stroke:#231f20;stroke-opacity:1;stroke-miterlimit:4" d="m375.39 1471.27 83.532-248.122 517.557 274.814" transform="matrix(.09951 0 0 -.09951 .148 185.184)"/><path style="stroke:none;fill-rule:evenodd;fill:#c6928f;fill-opacity:1" d="m101.691 93.031 1.954 56.711 49.617-27.71-51.57-29"/><path style="fill:none;stroke-width:5.938;stroke-linecap:butt;stroke-linejoin:miter;stroke:#231f20;stroke-opacity:1;stroke-miterlimit:4" d="m1020.404 926.038 19.627-569.882 498.598 278.464" transform="matrix(.09951 0 0 -.09951 .148 185.184)"/><path style="stroke:none;fill-rule:evenodd;fill:#c6928f;fill-opacity:1" d="m153.262 122.031-15.489-31.12-36.082 2.12 51.57 29"/><path style="fill:none;stroke-width:5.938;stroke-linecap:butt;stroke-linejoin:miter;stroke:#231f20;stroke-opacity:1;stroke-miterlimit:4" d="m1538.629 634.62-155.64 312.733-362.585-21.315" transform="matrix(.09951 0 0 -.09951 .148 185.184)"/><path style="stroke:none;fill-rule:evenodd;fill:#c4a5ab;fill-opacity:1" d="m97.32 36.117 52.422 21.887-11.969 32.906L97.32 36.117"/><path style="fill:none;stroke-width:5.938;stroke-linecap:butt;stroke-linejoin:miter;stroke:#231f20;stroke-opacity:1;stroke-miterlimit:4" d="m976.48 1497.962 526.782-219.938-120.273-330.671" transform="matrix(.09951 0 0 -.09951 .148 185.184)"/><path style="stroke:none;fill-rule:evenodd;fill:#ac7b8a;fill-opacity:1" d="m101.691 93.031 1.954 56.711-54.176-21.449 52.222-35.262"/><path style="fill:none;stroke-width:5.938;stroke-linecap:butt;stroke-linejoin:miter;stroke:#231f20;stroke-opacity:1;stroke-miterlimit:4" d="m1020.404 926.038 19.627-569.882-544.407 215.54" transform="matrix(.09951 0 0 -.09951 .148 185.184)"/><path style="stroke:none;fill-rule:evenodd;fill:#ac7b8a;fill-opacity:1" d="m49.469 128.293 14.226-33.2 37.996-2.062-52.222 35.262"/><path style="fill:none;stroke-width:5.938;stroke-linecap:butt;stroke-linejoin:miter;stroke:#231f20;stroke-opacity:1;stroke-miterlimit:4" d="m495.624 571.697 142.961 333.615 381.819 20.726" transform="matrix(.09951 0 0 -.09951 .148 185.184)"/><path style="stroke:none;fill-rule:evenodd;fill:#916d8e;fill-opacity:1" d="m49.469 128.293 14.226-33.2-17.879-31.628 3.653 64.828"/><path style="fill:none;stroke-width:5.938;stroke-linecap:butt;stroke-linejoin:miter;stroke:#231f20;stroke-opacity:1;stroke-miterlimit:4" d="m495.624 571.697 142.961 333.615-179.663 317.836" transform="matrix(.09951 0 0 -.09951 .148 185.184)"/><path style="stroke:none;fill-rule:evenodd;fill:#ab8ca3;fill-opacity:1" d="M97.32 36.117 45.816 63.465l17.88 31.629L97.32 36.117"/><path style="fill:none;stroke-width:5.938;stroke-linecap:butt;stroke-linejoin:miter;stroke:#231f20;stroke-opacity:1;stroke-miterlimit:4" d="m976.48 1497.962-517.558-274.814 179.663-317.836" transform="matrix(.09951 0 0 -.09951 .148 185.184)"/><path style="stroke:none;fill-rule:evenodd;fill:#c4a5ab;fill-opacity:1" d="m137.773 90.91-36.082 2.121-4.37-56.914 40.452 54.793"/><path style="fill:none;stroke-width:5.938;stroke-linecap:butt;stroke-linejoin:miter;stroke:#231f20;stroke-opacity:1;stroke-miterlimit:4" d="m1382.989 947.353-362.585-21.315-43.925 571.924" transform="matrix(.09951 0 0 -.09951 .148 185.184)"/><path style="stroke:none;fill-rule:evenodd;fill:#ab8ca3;fill-opacity:1" d="m63.695 95.094 37.996-2.063-4.37-56.914-33.626 58.977"/><path style="fill:none;stroke-width:5.938;stroke-linecap:butt;stroke-linejoin:miter;stroke:#231f20;stroke-opacity:1;stroke-miterlimit:4" d="m638.585 905.312 381.819 20.726-43.925 571.924" transform="matrix(.09951 0 0 -.09951 .148 185.184)"/></svg>