<svg xmlns="http://www.w3.org/2000/svg" width="258.427" height="256.067" viewBox="0 0 193.82 192.05" version="1.2"><defs><clipPath id="a"><path d="M.387 43H77v57H.387Zm0 0"/></clipPath><clipPath id="b"><path d="M.387 62H77v70H.387Zm0 0"/></clipPath><clipPath id="c"><path d="M.387 3H75v68H.387Zm0 0"/></clipPath><clipPath id="d"><path d="M.387 62H44v96H.387Zm0 0"/></clipPath><clipPath id="e"><path d="M56 171h65v20.105H56Zm0 0"/></clipPath><clipPath id="f"><path d="M88 161h66v30.105H88Zm0 0"/></clipPath><clipPath id="g"><path d="M160 76h33.254v56H160Zm0 0"/></clipPath><clipPath id="h"><path d="M145 121h48.254v49H145Zm0 0"/></clipPath><clipPath id="i"><path d="M.387 66H18v88H.387Zm0 0"/></clipPath><clipPath id="j"><path d="M.387 62H22v96H.387Zm0 0"/></clipPath><clipPath id="k"><path d="M.387 60H11v52H.387Zm0 0"/></clipPath><clipPath id="l"><path d="M.387 56H15v60H.387Zm0 0"/></clipPath><clipPath id="m"><path d="M.387 3H75v68H.387Zm0 0"/></clipPath><clipPath id="n"><path d="M.387 18H38v53H.387Zm0 0"/></clipPath><clipPath id="o"><path d="M167 31h26.254v101H167Zm0 0"/></clipPath><clipPath id="p"><path d="M.387 111H36v47H.387Zm0 0"/></clipPath><clipPath id="q"><path d="M.387 107H40v55H.387Zm0 0"/></clipPath><clipPath id="r"><path d="M112 123h81.254v68.105H112Zm0 0"/></clipPath><clipPath id="s"><path d="M31 153h90v38.105H31Zm0 0"/></clipPath><clipPath id="t"><path d="M151 31h42.254v101H151Zm0 0"/></clipPath><clipPath id="u"><path d="M.387 60H36v98H.387Zm0 0"/></clipPath><clipPath id="v"><path d="M.387 56H40v106H.387Zm0 0"/></clipPath><clipPath id="w"><path d="M112 123h81.254v68.105H112Zm0 0"/></clipPath><clipPath id="x"><path d="M31 149h95v42.105H31Zm0 0"/></clipPath><clipPath id="y"><path d="M114 91h79.254v67H114Zm0 0"/></clipPath><clipPath id="z"><path d="M114 53h79.254v79H114Zm0 0"/></clipPath></defs><path style="stroke:none;fill-rule:evenodd;fill:#ca938b;fill-opacity:1" d="m68.32 47.305 3.922 48.457L3.035 66.828 68.32 47.305"/><g clip-path="url(#a)"><path style="fill:none;stroke-width:7.109;stroke-linecap:butt;stroke-linejoin:miter;stroke:#231f20;stroke-opacity:1;stroke-miterlimit:4" d="m682.689 1445.113 39.413-486.967-695.494 290.767Zm0 0" transform="matrix(.0995 0 0 -.0995 .387 191.105)"/></g><path style="stroke:none;fill-rule:evenodd;fill:#b78087;fill-opacity:1" d="m68.32 47.305 3.922 48.457 66.79-50.985-70.712 2.528"/><path style="fill:none;stroke-width:7.109;stroke-linecap:butt;stroke-linejoin:miter;stroke:#231f20;stroke-opacity:1;stroke-miterlimit:4" d="m682.689 1445.113 39.413-486.967 671.194 512.366Zm0 0" transform="matrix(.0995 0 0 -.0995 .387 191.105)"/><path style="stroke:none;fill-rule:evenodd;fill:#ac8295;fill-opacity:1" d="M120.738 112.469 72.242 95.762l66.79-50.985-18.294 67.692"/><path style="fill:none;stroke-width:7.109;stroke-linecap:butt;stroke-linejoin:miter;stroke:#231f20;stroke-opacity:1;stroke-miterlimit:4" d="m1209.462 790.25-487.36 167.896 671.194 512.366Zm0 0" transform="matrix(.0995 0 0 -.0995 .387 191.105)"/><path style="stroke:none;fill-rule:evenodd;fill:#b194a8;fill-opacity:1" d="M120.738 112.469 72.242 95.762 92.56 175.41l28.18-62.941"/><path style="fill:none;stroke-width:7.109;stroke-linecap:butt;stroke-linejoin:miter;stroke:#231f20;stroke-opacity:1;stroke-miterlimit:4" d="m1209.462 790.25-487.36 167.896L926.27 157.722Zm0 0" transform="matrix(.0995 0 0 -.0995 .387 191.105)"/><path style="stroke:none;fill-rule:evenodd;fill:#d3aaa1;fill-opacity:1" d="m39.18 127.367 33.062-31.605L3.035 66.828l36.145 60.54"/><g clip-path="url(#b)"><path style="fill:none;stroke-width:7.109;stroke-linecap:butt;stroke-linejoin:miter;stroke:#231f20;stroke-opacity:1;stroke-miterlimit:4" d="m389.841 640.528 332.26 317.618-695.493 290.767Zm0 0" transform="matrix(.0995 0 0 -.0995 .387 191.105)"/></g><path style="stroke:none;fill-rule:evenodd;fill:#c4a9b1;fill-opacity:1" d="m39.18 127.367 33.062-31.605L92.56 175.41l-53.38-48.043"/><path style="fill:none;stroke-width:7.109;stroke-linecap:butt;stroke-linejoin:miter;stroke:#231f20;stroke-opacity:1;stroke-miterlimit:4" d="m389.841 640.528 332.26 317.618 204.17-800.424Zm0 0" transform="matrix(.0995 0 0 -.0995 .387 191.105)"/><path style="stroke:none;fill-rule:evenodd;fill:#967494;fill-opacity:1" d="m120.738 112.469 43.813 13.21-25.52-80.902-18.293 67.692"/><path style="fill:none;stroke-width:7.109;stroke-linecap:butt;stroke-linejoin:miter;stroke:#231f20;stroke-opacity:1;stroke-miterlimit:4" d="m1209.462 790.25 440.292-132.764-256.458 813.026Zm0 0" transform="matrix(.0995 0 0 -.0995 .387 191.105)"/><path style="stroke:none;fill-rule:evenodd;fill:#9b87a9;fill-opacity:1" d="m120.738 112.469 43.813 13.21-71.992 49.731 28.18-62.941"/><path style="fill:none;stroke-width:7.109;stroke-linecap:butt;stroke-linejoin:miter;stroke:#231f20;stroke-opacity:1;stroke-miterlimit:4" d="m1209.462 790.25 440.292-132.764L926.27 157.722Zm0 0" transform="matrix(.0995 0 0 -.0995 .387 191.105)"/><path style="stroke:none;fill-rule:evenodd;fill:#b36b6c;fill-opacity:1" d="m68.32 47.305 2.2-39.739 68.511 37.211-70.71 2.528"/><path style="fill:none;stroke-width:7.109;stroke-linecap:butt;stroke-linejoin:miter;stroke:#231f20;stroke-opacity:1;stroke-miterlimit:4" d="m682.689 1445.113 22.1 399.349 688.507-373.95Zm0 0" transform="matrix(.0995 0 0 -.0995 .387 191.105)"/><path style="stroke:none;fill-rule:evenodd;fill:#74547e;fill-opacity:1" d="m179.34 80.242-14.79 45.438-25.519-80.903 40.309 35.465"/><path style="fill:none;stroke-width:7.109;stroke-linecap:butt;stroke-linejoin:miter;stroke:#231f20;stroke-opacity:1;stroke-miterlimit:4" d="m1798.376 1114.109-148.622-456.623-256.458 813.026Zm0 0" transform="matrix(.0995 0 0 -.0995 .387 191.105)"/><path style="stroke:none;fill-rule:evenodd;fill:#552e56;fill-opacity:1" d="m179.34 80.242-8.332-45.219-31.977 9.754 40.309 35.465"/><path style="fill:none;stroke-width:7.109;stroke-linecap:butt;stroke-linejoin:miter;stroke:#231f20;stroke-opacity:1;stroke-miterlimit:4" d="m1798.376 1114.109-83.733 454.424-321.347-98.021Zm0 0" transform="matrix(.0995 0 0 -.0995 .387 191.105)"/><path style="stroke:none;fill-rule:evenodd;fill:#953e4b;fill-opacity:1" d="M123.59 9.082 70.52 7.566l68.511 37.211L123.59 9.082"/><path style="fill:none;stroke-width:7.109;stroke-linecap:butt;stroke-linejoin:miter;stroke:#231f20;stroke-opacity:1;stroke-miterlimit:4" d="m1238.118 1829.23-533.328 15.232 688.506-373.95Zm0 0" transform="matrix(.0995 0 0 -.0995 .387 191.105)"/><path style="stroke:none;fill-rule:evenodd;fill:#5f2f40;fill-opacity:1" d="m123.59 9.082 47.418 25.941-31.977 9.754L123.59 9.082"/><path style="fill:none;stroke-width:7.109;stroke-linecap:butt;stroke-linejoin:miter;stroke:#231f20;stroke-opacity:1;stroke-miterlimit:4" d="m1238.118 1829.23 476.525-260.697-321.347-98.021Zm0 0" transform="matrix(.0995 0 0 -.0995 .387 191.105)"/><path style="stroke:none;fill-rule:evenodd;fill:#ca7e6b;fill-opacity:1" d="m68.32 47.305 2.2-39.739L3.035 66.828 68.32 47.305"/><g clip-path="url(#c)"><path style="fill:none;stroke-width:7.109;stroke-linecap:butt;stroke-linejoin:miter;stroke:#231f20;stroke-opacity:1;stroke-miterlimit:4" d="m682.689 1445.113 22.1 399.349-678.181-595.549Zm0 0" transform="matrix(.0995 0 0 -.0995 .387 191.105)"/></g><path style="stroke:none;fill-rule:evenodd;fill:#e7ccb1;fill-opacity:1" d="m39.18 127.367-22.032 26.246L3.035 66.828l36.145 60.54"/><g clip-path="url(#d)"><path style="fill:none;stroke-width:7.109;stroke-linecap:butt;stroke-linejoin:miter;stroke:#231f20;stroke-opacity:1;stroke-miterlimit:4" d="M389.841 640.528 168.44 376.768 26.608 1248.914Zm0 0" transform="matrix(.0995 0 0 -.0995 .387 191.105)"/></g><path style="stroke:none;fill-rule:evenodd;fill:#d2c9c9;fill-opacity:1" d="m39.18 127.367-22.032 26.246 75.41 21.797-53.378-48.043"/><path style="fill:none;stroke-width:7.109;stroke-linecap:butt;stroke-linejoin:miter;stroke:#231f20;stroke-opacity:1;stroke-miterlimit:4" d="M389.841 640.528 168.44 376.768 926.27 157.723Zm0 0" transform="matrix(.0995 0 0 -.0995 .387 191.105)"/><path style="stroke:none;fill-rule:evenodd;fill:#bcddea;fill-opacity:1" d="m60.887 183.684-43.739-30.07 75.41 21.796-31.671 8.274"/><path style="fill:none;stroke-width:7.109;stroke-linecap:butt;stroke-linejoin:miter;stroke:#231f20;stroke-opacity:1;stroke-miterlimit:4" d="M607.985 74.578 168.44 376.768 926.27 157.723Zm0 0" transform="matrix(.0995 0 0 -.0995 .387 191.105)"/><path style="stroke:none;fill-rule:evenodd;fill:#60a9d9;fill-opacity:1" d="m60.887 183.684 55.422 6.558-23.75-14.832-31.672 8.274"/><g clip-path="url(#e)"><path style="fill:none;stroke-width:7.109;stroke-linecap:butt;stroke-linejoin:miter;stroke:#231f20;stroke-opacity:1;stroke-miterlimit:4" d="m607.985 74.578 556.96-65.91-238.674 149.054Zm0 0" transform="matrix(.0995 0 0 -.0995 .387 191.105)"/></g><path style="stroke:none;fill-rule:evenodd;fill:#4f88c9;fill-opacity:1" d="m149.41 165.852-33.101 24.39-23.75-14.832 56.851-9.558"/><g clip-path="url(#f)"><path style="fill:none;stroke-width:7.109;stroke-linecap:butt;stroke-linejoin:miter;stroke:#231f20;stroke-opacity:1;stroke-miterlimit:4" d="M1497.599 253.78 1164.946 8.668 926.27 157.722Zm0 0" transform="matrix(.0995 0 0 -.0995 .387 191.105)"/></g><path style="stroke:none;fill-rule:evenodd;fill:#7a82b6;fill-opacity:1" d="m149.41 165.852 15.14-40.172-71.991 49.73 56.851-9.558"/><path style="fill:none;stroke-width:7.109;stroke-linecap:butt;stroke-linejoin:miter;stroke:#231f20;stroke-opacity:1;stroke-miterlimit:4" d="m1497.599 253.78 152.155 403.706L926.27 157.722Zm0 0" transform="matrix(.0995 0 0 -.0995 .387 191.105)"/><path style="stroke:none;fill-rule:evenodd;fill:#313b70;fill-opacity:1" d="m179.34 80.242-14.79 45.438 27.762 1.75-12.972-47.188"/><g clip-path="url(#g)"><path style="fill:none;stroke-width:7.109;stroke-linecap:butt;stroke-linejoin:miter;stroke:#231f20;stroke-opacity:1;stroke-miterlimit:4" d="m1798.376 1114.109-148.622-456.623 278.99-17.586Zm0 0" transform="matrix(.0995 0 0 -.0995 .387 191.105)"/></g><path style="stroke:none;fill-rule:evenodd;fill:#295190;fill-opacity:1" d="m149.41 165.852 15.14-40.172 27.762 1.75-42.902 38.422"/><g clip-path="url(#h)"><path style="fill:none;stroke-width:7.109;stroke-linecap:butt;stroke-linejoin:miter;stroke:#231f20;stroke-opacity:1;stroke-miterlimit:4" d="m1497.599 253.78 152.155 403.706 278.99-17.586Zm0 0" transform="matrix(.0995 0 0 -.0995 .387 191.105)"/></g><g clip-path="url(#i)"><path style="stroke:none;fill-rule:evenodd;fill:#f4dd7f;fill-opacity:1" d="m.766 111.621 16.382 41.992L3.035 66.828l-2.27 44.793"/></g><g clip-path="url(#j)"><path style="fill:none;stroke-width:7.109;stroke-linecap:butt;stroke-linejoin:miter;stroke:#231f20;stroke-opacity:1;stroke-miterlimit:4" d="m3.8 798.768 164.639-422-141.831 872.145Zm0 0" transform="matrix(.0995 0 0 -.0995 .387 191.105)"/></g><g clip-path="url(#k)"><path style="stroke:none;fill-rule:evenodd;fill:#34354f;fill-opacity:1" d="m.766 111.621 9.265-50.734-6.996 5.941-2.27 44.793"/></g><g clip-path="url(#l)"><path style="fill:none;stroke-width:7.109;stroke-linecap:butt;stroke-linejoin:miter;stroke:#231f20;stroke-opacity:1;stroke-miterlimit:4" d="m3.8 798.768 93.115 509.853-70.307-59.708Zm0 0" transform="matrix(.0995 0 0 -.0995 .387 191.105)"/></g><path style="stroke:none;fill-rule:evenodd;fill:#cc622d;fill-opacity:1" d="M33.633 22.574 70.52 7.566 3.035 66.828l30.598-44.254"/><g clip-path="url(#m)"><path style="fill:none;stroke-width:7.109;stroke-linecap:butt;stroke-linejoin:miter;stroke:#231f20;stroke-opacity:1;stroke-miterlimit:4" d="m334.098 1693.641 370.692 150.82-678.182-595.548Zm0 0" transform="matrix(.0995 0 0 -.0995 .387 191.105)"/></g><path style="stroke:none;fill-rule:evenodd;fill:#323461;fill-opacity:1" d="M33.633 22.574 10.03 60.887l-6.996 5.941 30.598-44.254"/><g clip-path="url(#n)"><path style="fill:none;stroke-width:7.109;stroke-linecap:butt;stroke-linejoin:miter;stroke:#231f20;stroke-opacity:1;stroke-miterlimit:4" d="m334.098 1693.641-237.183-385.02-70.307-59.708Zm0 0" transform="matrix(.0995 0 0 -.0995 .387 191.105)"/></g><path style="stroke:none;fill-rule:evenodd;fill:#513236;fill-opacity:1" d="m123.59 33.957-53.07-1.512 22.039-6.5 31.03 8.012"/><path style="fill:none;stroke-width:7.109;stroke-linecap:butt;stroke-linejoin:miter;stroke:#231f20;stroke-opacity:1;stroke-miterlimit:4" d="m1238.118 1829.23-533.328 15.232 221.48 65.282Zm0 0" transform="matrix(.0995 0 0 -.0995 .387 191.105)"/><path style="stroke:none;fill-rule:evenodd;fill:#1f5f92;fill-opacity:1" d="M33.633 47.45 70.52 32.444l22.039-6.5L33.633 47.45"/><path style="fill:none;stroke-width:7.109;stroke-linecap:butt;stroke-linejoin:miter;stroke:#231f20;stroke-opacity:1;stroke-miterlimit:4" d="m334.098 1693.641 370.692 150.82 221.48 65.283Zm0 0" transform="matrix(.0995 0 0 -.0995 .387 191.105)"/><path style="stroke:none;fill-rule:evenodd;fill:#231f20;fill-opacity:1" d="m179.34 80.242-8.332-45.219 21.304 92.407-12.972-47.188"/><g clip-path="url(#o)"><path style="fill:none;stroke-width:7.109;stroke-linecap:butt;stroke-linejoin:miter;stroke:#231f20;stroke-opacity:1;stroke-miterlimit:4" d="m1798.376 1114.109-83.733 454.424L1928.744 639.9Zm0 0" transform="matrix(.0995 0 0 -.0995 .387 191.105)"/></g><g clip-path="url(#p)"><path style="stroke:none;fill-rule:evenodd;fill:#36363a;fill-opacity:1" d="m.766 111.621 16.382 41.992 18.63 3.836L.765 111.621"/></g><g clip-path="url(#q)"><path style="fill:none;stroke-width:7.109;stroke-linecap:butt;stroke-linejoin:miter;stroke:#231f20;stroke-opacity:1;stroke-miterlimit:4" d="m3.8 798.768 164.639-422 187.21-38.549Zm0 0" transform="matrix(.0995 0 0 -.0995 .387 191.105)"/></g><path style="stroke:none;fill-rule:evenodd;fill:#231f20;fill-opacity:1" d="m60.887 183.684-43.739-30.07 18.63 3.835 25.109 26.235"/><path style="fill:none;stroke-width:7.109;stroke-linecap:butt;stroke-linejoin:miter;stroke:#231f20;stroke-opacity:1;stroke-miterlimit:4" d="M607.985 74.578 168.44 376.768l187.21-38.549Zm0 0" transform="matrix(.0995 0 0 -.0995 .387 191.105)"/><path style="stroke:none;fill-rule:evenodd;fill:#9b292d;fill-opacity:1" d="m149.41 165.852-33.101 24.39 76.004-62.812-42.903 38.422"/><g clip-path="url(#r)"><path style="fill:none;stroke-width:7.109;stroke-linecap:butt;stroke-linejoin:miter;stroke:#231f20;stroke-opacity:1;stroke-miterlimit:4" d="M1497.599 253.78 1164.946 8.668 1928.744 639.9Zm0 0" transform="matrix(.0995 0 0 -.0995 .387 191.105)"/></g><path style="stroke:none;fill-rule:evenodd;fill:#82c3c7;fill-opacity:1" d="m123.59 9.082 47.418 25.941L92.558 1.07l31.032 8.012"/><path style="fill:none;stroke-width:7.109;stroke-linecap:butt;stroke-linejoin:miter;stroke:#231f20;stroke-opacity:1;stroke-miterlimit:4" d="m1238.118 1829.23 476.525-260.697-788.372 341.21Zm0 0" transform="matrix(.0995 0 0 -.0995 .387 191.105)"/><path style="stroke:none;fill-rule:evenodd;fill:#772d32;fill-opacity:1" d="m60.887 183.684 55.422 6.558-80.532-32.793 25.11 26.235"/><g clip-path="url(#s)"><path style="fill:none;stroke-width:7.109;stroke-linecap:butt;stroke-linejoin:miter;stroke:#231f20;stroke-opacity:1;stroke-miterlimit:4" d="m607.985 74.578 556.96-65.91L355.65 338.219Zm0 0" transform="matrix(.0995 0 0 -.0995 .387 191.105)"/></g><path style="stroke:none;fill-rule:evenodd;fill:#5374b4;fill-opacity:1" d="M33.633 22.574 10.03 60.887 92.56 1.07 33.633 22.574"/><path style="fill:none;stroke-width:7.109;stroke-linecap:butt;stroke-linejoin:miter;stroke:#231f20;stroke-opacity:1;stroke-miterlimit:4" d="m334.098 1693.641-237.183-385.02 829.356 601.123Zm0 0" transform="matrix(.0995 0 0 -.0995 .387 191.105)"/><path style="stroke:none;fill-rule:evenodd;fill:#f4e1af;fill-opacity:1" d="m155.746 57.754 15.262-22.73 21.304 92.406-36.566-69.676"/><g clip-path="url(#t)"><path style="fill:none;stroke-width:7.109;stroke-linecap:butt;stroke-linejoin:miter;stroke:#231f20;stroke-opacity:1;stroke-miterlimit:4" d="m1561.271 1340.104 153.372 228.43L1928.744 639.9Zm0 0" transform="matrix(.0995 0 0 -.0995 .387 191.105)"/></g><path style="stroke:none;fill-rule:evenodd;fill:#d7ddd7;fill-opacity:1" d="m155.746 57.754 15.262-22.73L92.558 1.07l63.188 56.684"/><path style="fill:none;stroke-width:7.109;stroke-linecap:butt;stroke-linejoin:miter;stroke:#231f20;stroke-opacity:1;stroke-miterlimit:4" d="m1561.271 1340.104 153.372 228.43-788.372 341.21Zm0 0" transform="matrix(.0995 0 0 -.0995 .387 191.105)"/><g clip-path="url(#u)"><path style="stroke:none;fill-rule:evenodd;fill:#563f6f;fill-opacity:1" d="m.766 111.621 9.265-50.734 25.746 96.562L.766 111.621"/></g><g clip-path="url(#v)"><path style="fill:none;stroke-width:7.109;stroke-linecap:butt;stroke-linejoin:miter;stroke:#231f20;stroke-opacity:1;stroke-miterlimit:4" d="m3.8 798.768 93.115 509.853 258.734-970.402Zm0 0" transform="matrix(.0995 0 0 -.0995 .387 191.105)"/></g><path style="stroke:none;fill-rule:evenodd;fill:#cd7354;fill-opacity:1" d="m121.844 153.719-5.535 36.523 76.004-62.812-70.47 26.289"/><g clip-path="url(#w)"><path style="fill:none;stroke-width:7.109;stroke-linecap:butt;stroke-linejoin:miter;stroke:#231f20;stroke-opacity:1;stroke-miterlimit:4" d="M1220.57 375.709 1164.947 8.668 1928.744 639.9Zm0 0" transform="matrix(.0995 0 0 -.0995 .387 191.105)"/></g><path style="stroke:none;fill-rule:evenodd;fill:#af5d5c;fill-opacity:1" d="m121.844 153.719-5.535 36.523-80.532-32.793 86.067-3.73"/><g clip-path="url(#x)"><path style="fill:none;stroke-width:7.109;stroke-linecap:butt;stroke-linejoin:miter;stroke:#231f20;stroke-opacity:1;stroke-miterlimit:4" d="M1220.57 375.709 1164.947 8.668 355.649 338.219Zm0 0" transform="matrix(.0995 0 0 -.0995 .387 191.105)"/></g><path style="stroke:none;fill-rule:evenodd;fill:#d09484;fill-opacity:1" d="M121.844 153.719 118.69 95.14l73.621 32.289-70.468 26.289"/><g clip-path="url(#y)"><path style="fill:none;stroke-width:7.109;stroke-linecap:butt;stroke-linejoin:miter;stroke:#231f20;stroke-opacity:1;stroke-miterlimit:4" d="m1220.57 375.709-31.678 588.678L1928.744 639.9Zm0 0" transform="matrix(.0995 0 0 -.0995 .387 191.105)"/></g><path style="stroke:none;fill-rule:evenodd;fill:#dbb3a2;fill-opacity:1" d="M155.746 57.754 118.691 95.14l73.621 32.289-36.566-69.676"/><g clip-path="url(#z)"><path style="fill:none;stroke-width:7.109;stroke-linecap:butt;stroke-linejoin:miter;stroke:#231f20;stroke-opacity:1;stroke-miterlimit:4" d="m1561.271 1340.104-372.38-375.717L1928.745 639.9Zm0 0" transform="matrix(.0995 0 0 -.0995 .387 191.105)"/></g><path style="stroke:none;fill-rule:evenodd;fill:#8b6c91;fill-opacity:1" d="M57.246 74.223 10.031 60.887l25.746 96.562 21.47-83.226"/><path style="fill:none;stroke-width:7.109;stroke-linecap:butt;stroke-linejoin:miter;stroke:#231f20;stroke-opacity:1;stroke-miterlimit:4" d="M571.399 1174.602 96.915 1308.62l258.734-970.402Zm0 0" transform="matrix(.0995 0 0 -.0995 .387 191.105)"/><path style="stroke:none;fill-rule:evenodd;fill:#9084ad;fill-opacity:1" d="M57.246 74.223 10.031 60.887 92.56 1.07 57.246 74.223"/><path style="fill:none;stroke-width:7.109;stroke-linecap:butt;stroke-linejoin:miter;stroke:#231f20;stroke-opacity:1;stroke-miterlimit:4" d="M571.399 1174.602 96.915 1308.62l829.356 601.123Zm0 0" transform="matrix(.0995 0 0 -.0995 .387 191.105)"/><path style="stroke:none;fill-rule:evenodd;fill:#b096ac;fill-opacity:1" d="m57.246 74.223 61.445 20.918L92.56 1.07 57.246 74.222"/><path style="fill:none;stroke-width:7.109;stroke-linecap:butt;stroke-linejoin:miter;stroke:#231f20;stroke-opacity:1;stroke-miterlimit:4" d="m571.399 1174.602 617.493-210.215-262.621 945.357Zm0 0" transform="matrix(.0995 0 0 -.0995 .387 191.105)"/><path style="stroke:none;fill-rule:evenodd;fill:#c8b2b8;fill-opacity:1" d="M155.746 57.754 118.691 95.14 92.56 1.07l63.187 56.683"/><path style="fill:none;stroke-width:7.109;stroke-linecap:butt;stroke-linejoin:miter;stroke:#231f20;stroke-opacity:1;stroke-miterlimit:4" d="m1561.271 1340.104-372.38-375.717-262.62 945.357Zm0 0" transform="matrix(.0995 0 0 -.0995 .387 191.105)"/><path style="stroke:none;fill-rule:evenodd;fill:#b77d82;fill-opacity:1" d="M121.844 153.719 118.69 95.14l-82.914 62.308 86.067-3.73"/><path style="fill:none;stroke-width:7.109;stroke-linecap:butt;stroke-linejoin:miter;stroke:#231f20;stroke-opacity:1;stroke-miterlimit:4" d="m1220.57 375.709-31.678 588.678L355.649 338.22Zm0 0" transform="matrix(.0995 0 0 -.0995 .387 191.105)"/><path style="stroke:none;fill-rule:evenodd;fill:#a98093;fill-opacity:1" d="m57.246 74.223 61.445 20.918-82.914 62.308 21.47-83.226"/><path style="fill:none;stroke-width:7.109;stroke-linecap:butt;stroke-linejoin:miter;stroke:#231f20;stroke-opacity:1;stroke-miterlimit:4" d="m571.399 1174.602 617.493-210.215L355.649 338.22Zm0 0" transform="matrix(.0995 0 0 -.0995 .387 191.105)"/></svg>