<svg xmlns="http://www.w3.org/2000/svg" width="264.253" height="268.253" viewBox="0 0 198.19 201.19" version="1.2"><path style="stroke:none;fill-rule:nonzero;fill:#b99bb9;fill-opacity:1" d="m72.602 102.96 28.171-4.417 6.692 44.445"/><path style="fill:none;stroke-width:5;stroke-linecap:round;stroke-linejoin:round;stroke:#000;stroke-opacity:1;stroke-miterlimit:10" d="m728.983 978.144 282.87 44.36 67.188-446.27Zm0 0" transform="matrix(.0996 0 0 -.0996 0 200.377)"/><path style="stroke:none;fill-rule:nonzero;fill:#ac8fb7;fill-opacity:1" d="m128.91 94.395-28.137 4.148 6.692 44.445"/><path style="fill:none;stroke-width:5;stroke-linecap:round;stroke-linejoin:round;stroke:#000;stroke-opacity:1;stroke-miterlimit:10" d="m1294.37 1064.158-282.517-41.654 67.188-446.27Zm0 0" transform="matrix(.0996 0 0 -.0996 0 200.377)"/><path style="stroke:none;fill-rule:nonzero;fill:#bb92ad;fill-opacity:1" d="m93.922 54.281 6.851 44.262-28.171 4.418"/><path style="fill:none;stroke-width:5;stroke-linecap:round;stroke-linejoin:round;stroke:#000;stroke-opacity:1;stroke-miterlimit:10" d="m943.057 1466.93 68.796-444.426-282.87-44.36Zm0 0" transform="matrix(.0996 0 0 -.0996 0 200.377)"/><path style="stroke:none;fill-rule:nonzero;fill:#ae87ab;fill-opacity:1" d="m93.922 54.281 6.851 44.262 28.137-4.148"/><path style="fill:none;stroke-width:5;stroke-linecap:round;stroke-linejoin:round;stroke:#000;stroke-opacity:1;stroke-miterlimit:10" d="m943.057 1466.93 68.796-444.426 282.517 41.654Zm0 0" transform="matrix(.0996 0 0 -.0996 0 200.377)"/><path style="stroke:none;fill-rule:nonzero;fill:#c2a9c1;fill-opacity:1" d="m72.602 102.96-7.606 26.415 42.469 13.613"/><path style="fill:none;stroke-width:5;stroke-linecap:round;stroke-linejoin:round;stroke:#000;stroke-opacity:1;stroke-miterlimit:10" d="m728.983 978.144-76.366-265.22 426.424-136.69Zm0 0" transform="matrix(.0996 0 0 -.0996 0 200.377)"/><path style="stroke:none;fill-rule:nonzero;fill:#ceb0bb;fill-opacity:1" d="m25.453 111.23 39.543 18.145 7.606-26.414"/><path style="fill:none;stroke-width:5;stroke-linecap:round;stroke-linejoin:round;stroke:#000;stroke-opacity:1;stroke-miterlimit:10" d="m255.572 895.11 397.045-182.186 76.366 265.22Zm0 0" transform="matrix(.0996 0 0 -.0996 0 200.377)"/><path style="stroke:none;fill-rule:nonzero;fill:#d0a6ad;fill-opacity:1" d="m25.453 111.23 31.992-30.507 15.157 22.238"/><path style="fill:none;stroke-width:5;stroke-linecap:round;stroke-linejoin:round;stroke:#000;stroke-opacity:1;stroke-miterlimit:10" d="M255.572 895.11 576.8 1201.437l152.182-223.292Zm0 0" transform="matrix(.0996 0 0 -.0996 0 200.377)"/><path style="stroke:none;fill-rule:nonzero;fill:#c697a6;fill-opacity:1" d="M93.922 54.281 57.445 80.723l15.157 22.238"/><path style="fill:none;stroke-width:5;stroke-linecap:round;stroke-linejoin:round;stroke:#000;stroke-opacity:1;stroke-miterlimit:10" d="m943.057 1466.93-366.256-265.494 152.182-223.292Zm0 0" transform="matrix(.0996 0 0 -.0996 0 200.377)"/><path style="stroke:none;fill-rule:nonzero;fill:#c4b7cd;fill-opacity:1" d="m107.465 142.988-42.469-13.613-4.82 25.11"/><path style="fill:none;stroke-width:5;stroke-linecap:round;stroke-linejoin:round;stroke:#000;stroke-opacity:1;stroke-miterlimit:10" d="M1079.04 576.235 652.618 712.924l-48.4-252.12Zm0 0" transform="matrix(.0996 0 0 -.0996 0 200.377)"/><path style="stroke:none;fill-rule:nonzero;fill:#bdbedb;fill-opacity:1" d="M107.465 142.988 85.203 169.95l-25.027-15.465"/><path style="fill:none;stroke-width:5;stroke-linecap:round;stroke-linejoin:round;stroke:#000;stroke-opacity:1;stroke-miterlimit:10" d="M1079.04 576.235 855.514 305.523l-251.296 155.28Zm0 0" transform="matrix(.0996 0 0 -.0996 0 200.377)"/><path style="stroke:none;fill-rule:nonzero;fill:#abbae4;fill-opacity:1" d="M107.465 142.988 85.203 169.95l27.117 9.653"/><path style="fill:none;stroke-width:5;stroke-linecap:round;stroke-linejoin:round;stroke:#000;stroke-opacity:1;stroke-miterlimit:10" d="M1079.04 576.235 855.514 305.523l272.28-96.918Zm0 0" transform="matrix(.0996 0 0 -.0996 0 200.377)"/><path style="stroke:none;fill-rule:nonzero;fill:#99a9e1;fill-opacity:1" d="m107.465 142.988 28.281 19.371-23.426 17.243"/><path style="fill:none;stroke-width:5;stroke-linecap:round;stroke-linejoin:round;stroke:#000;stroke-opacity:1;stroke-miterlimit:10" d="m1079.04 576.235 283.969-194.503-235.215-173.127Zm0 0" transform="matrix(.0996 0 0 -.0996 0 200.377)"/><path style="stroke:none;fill-rule:nonzero;fill:#948ac6;fill-opacity:1" d="m155.352 140.137-11.59-22.684-36.297 25.535"/><path style="fill:none;stroke-width:5;stroke-linecap:round;stroke-linejoin:round;stroke:#000;stroke-opacity:1;stroke-miterlimit:10" d="M1559.865 604.867 1443.493 832.63 1079.04 576.235Zm0 0" transform="matrix(.0996 0 0 -.0996 0 200.377)"/><path style="stroke:none;fill-rule:nonzero;fill:#9096d4;fill-opacity:1" d="m155.352 140.137-19.606 22.222-28.281-19.37"/><path style="fill:none;stroke-width:5;stroke-linecap:round;stroke-linejoin:round;stroke:#000;stroke-opacity:1;stroke-miterlimit:10" d="m1559.865 604.867-196.856-223.135-283.968 194.503Zm0 0" transform="matrix(.0996 0 0 -.0996 0 200.377)"/><path style="stroke:none;fill-rule:nonzero;fill:#9f89bc;fill-opacity:1" d="m128.91 94.395 14.852 23.058-36.297 25.535"/><path style="fill:none;stroke-width:5;stroke-linecap:round;stroke-linejoin:round;stroke:#000;stroke-opacity:1;stroke-miterlimit:10" d="m1294.37 1064.158 149.123-231.528-364.452-256.395Zm0 0" transform="matrix(.0996 0 0 -.0996 0 200.377)"/><path style="stroke:none;fill-rule:nonzero;fill:#936da3;fill-opacity:1" d="m175.715 88.375-39.278-19.719-7.527 25.739"/><path style="fill:none;stroke-width:5;stroke-linecap:round;stroke-linejoin:round;stroke:#000;stroke-opacity:1;stroke-miterlimit:10" d="m1764.33 1124.6-394.379 197.993-75.58-258.435Zm0 0" transform="matrix(.0996 0 0 -.0996 0 200.377)"/><path style="stroke:none;fill-rule:nonzero;fill:#9177b2;fill-opacity:1" d="m175.715 88.375-31.953 29.078-14.852-23.058"/><path style="fill:none;stroke-width:5;stroke-linecap:round;stroke-linejoin:round;stroke:#000;stroke-opacity:1;stroke-miterlimit:10" d="m1764.33 1124.6-320.837-291.97-149.123 231.528Zm0 0" transform="matrix(.0996 0 0 -.0996 0 200.377)"/><path style="stroke:none;fill-rule:nonzero;fill:#a376a1;fill-opacity:1" d="m93.922 54.281 42.516 14.375-7.528 25.739"/><path style="fill:none;stroke-width:5;stroke-linecap:round;stroke-linejoin:round;stroke:#000;stroke-opacity:1;stroke-miterlimit:10" d="m943.057 1466.93 426.894-144.337-75.58-258.435Zm0 0" transform="matrix(.0996 0 0 -.0996 0 200.377)"/><path style="stroke:none;fill-rule:nonzero;fill:#cc9297;fill-opacity:1" d="M93.922 54.281 57.445 80.723 45.34 59.27"/><path style="fill:none;stroke-width:5;stroke-linecap:round;stroke-linejoin:round;stroke:#000;stroke-opacity:1;stroke-miterlimit:10" d="m943.057 1466.93-366.256-265.494-121.55 215.408Zm0 0" transform="matrix(.0996 0 0 -.0996 0 200.377)"/><path style="stroke:none;fill-rule:nonzero;fill:#9b638e;fill-opacity:1" d="m141.059 44.582-4.621 24.074-42.516-14.375"/><path style="fill:none;stroke-width:5;stroke-linecap:round;stroke-linejoin:round;stroke:#000;stroke-opacity:1;stroke-miterlimit:10" d="m1416.351 1564.319-46.4-241.726-426.894 144.337Zm0 0" transform="matrix(.0996 0 0 -.0996 0 200.377)"/><path style="stroke:none;fill-rule:nonzero;fill:#ca8180;fill-opacity:1" d="M64.73 37.305 45.34 59.27l48.582-4.989"/><path style="fill:none;stroke-width:5;stroke-linecap:round;stroke-linejoin:round;stroke:#000;stroke-opacity:1;stroke-miterlimit:10" d="m649.95 1637.39-194.699-220.546 487.806 50.086Zm0 0" transform="matrix(.0996 0 0 -.0996 0 200.377)"/><path style="stroke:none;fill-rule:nonzero;fill:#9b5478;fill-opacity:1" d="m115.676 29.457 25.383 15.125-47.137 9.7"/><path style="fill:none;stroke-width:5;stroke-linecap:round;stroke-linejoin:round;stroke:#000;stroke-opacity:1;stroke-miterlimit:10" d="m1161.485 1716.187 254.866-151.868-473.294-97.389Zm0 0" transform="matrix(.0996 0 0 -.0996 0 200.377)"/><path style="stroke:none;fill-rule:nonzero;fill:#bb676c;fill-opacity:1" d="m88.04 20.594-23.31 16.71 29.192 16.977"/><path style="fill:none;stroke-width:5;stroke-linecap:round;stroke-linejoin:round;stroke:#000;stroke-opacity:1;stroke-miterlimit:10" d="M883.989 1805.182 649.95 1637.39l293.107-170.46Zm0 0" transform="matrix(.0996 0 0 -.0996 0 200.377)"/><path style="stroke:none;fill-rule:nonzero;fill:#a75468;fill-opacity:1" d="m88.04 20.594 27.636 8.863-21.754 24.824"/><path style="fill:none;stroke-width:5;stroke-linecap:round;stroke-linejoin:round;stroke:#000;stroke-opacity:1;stroke-miterlimit:10" d="m883.989 1805.182 277.496-88.995-218.428-249.257Zm0 0" transform="matrix(.0996 0 0 -.0996 0 200.377)"/><path style="stroke:none;fill-rule:nonzero;fill:#d2c0c8;fill-opacity:1" d="m25.453 111.23 39.543 18.145-4.82 25.11"/><path style="fill:none;stroke-width:5;stroke-linecap:round;stroke-linejoin:round;stroke:#000;stroke-opacity:1;stroke-miterlimit:10" d="m255.572 895.11 397.045-182.186-48.4-252.12Zm0 0" transform="matrix(.0996 0 0 -.0996 0 200.377)"/><path style="stroke:none;fill-rule:nonzero;fill:#8376bc;fill-opacity:1" d="m175.715 88.375-31.953 29.078 11.59 22.684"/><path style="fill:none;stroke-width:5;stroke-linecap:round;stroke-linejoin:round;stroke:#000;stroke-opacity:1;stroke-miterlimit:10" d="m1764.33 1124.6-320.837-291.97 116.372-227.763Zm0 0" transform="matrix(.0996 0 0 -.0996 0 200.377)"/><path style="stroke:none;fill-rule:nonzero;fill:#d9a39d;fill-opacity:1" d="m45.34 59.27 12.105 21.453-31.992 30.507"/><path style="fill:none;stroke-width:5;stroke-linecap:round;stroke-linejoin:round;stroke:#000;stroke-opacity:1;stroke-miterlimit:10" d="m455.251 1416.844 121.55-215.408L255.57 895.11Zm0 0" transform="matrix(.0996 0 0 -.0996 0 200.377)"/><path style="stroke:none;fill-rule:nonzero;fill:#885790;fill-opacity:1" d="m141.059 44.582-4.621 24.074 39.277 19.719"/><path style="fill:none;stroke-width:5;stroke-linecap:round;stroke-linejoin:round;stroke:#000;stroke-opacity:1;stroke-miterlimit:10" d="m1416.351 1564.319-46.4-241.726 394.379-197.994Zm0 0" transform="matrix(.0996 0 0 -.0996 0 200.377)"/><path style="stroke:none;fill-rule:nonzero;fill:#c2d4e7;fill-opacity:1" d="m62.344 189.98 22.86-20.03-25.028-15.466"/><path style="fill:none;stroke-width:5;stroke-linecap:round;stroke-linejoin:round;stroke:#000;stroke-opacity:1;stroke-miterlimit:10" d="m625.985 104.392 229.528 201.131-251.296 155.28Zm0 0" transform="matrix(.0996 0 0 -.0996 0 200.377)"/><path style="stroke:none;fill-rule:nonzero;fill:#d4e3e1;fill-opacity:1" d="M62.344 189.98 38.75 152.898l21.426 1.586"/><path style="fill:none;stroke-width:5;stroke-linecap:round;stroke-linejoin:round;stroke:#000;stroke-opacity:1;stroke-miterlimit:10" d="M625.985 104.392 389.084 476.728l215.133-15.924Zm0 0" transform="matrix(.0996 0 0 -.0996 0 200.377)"/><path style="stroke:none;fill-rule:nonzero;fill:#ddd5cf;fill-opacity:1" d="m25.453 111.23 13.297 41.668 21.426 1.586"/><path style="fill:none;stroke-width:5;stroke-linecap:round;stroke-linejoin:round;stroke:#000;stroke-opacity:1;stroke-miterlimit:10" d="m255.572 895.11 133.512-418.382 215.133-15.924Zm0 0" transform="matrix(.0996 0 0 -.0996 0 200.377)"/><path style="stroke:none;fill-rule:nonzero;fill:#546cce;fill-opacity:1" d="m162.246 175.023 12.465-42.636-19.36 7.75"/><path style="fill:none;stroke-width:5;stroke-linecap:round;stroke-linejoin:round;stroke:#000;stroke-opacity:1;stroke-miterlimit:10" d="m1629.092 254.574 125.158 428.11-194.385-77.817Zm0 0" transform="matrix(.0996 0 0 -.0996 0 200.377)"/><path style="stroke:none;fill-rule:nonzero;fill:#738cdc;fill-opacity:1" d="m162.246 175.023-26.5-12.664 19.606-22.222"/><path style="fill:none;stroke-width:5;stroke-linecap:round;stroke-linejoin:round;stroke:#000;stroke-opacity:1;stroke-miterlimit:10" d="m1629.092 254.574-266.083 127.158 196.856 223.135Zm0 0" transform="matrix(.0996 0 0 -.0996 0 200.377)"/><path style="stroke:none;fill-rule:nonzero;fill:#6464bd;fill-opacity:1" d="m175.715 88.375-1.004 44.012-19.36 7.75"/><path style="fill:none;stroke-width:5;stroke-linecap:round;stroke-linejoin:round;stroke:#000;stroke-opacity:1;stroke-miterlimit:10" d="m1764.33 1124.6-10.08-441.917-194.385-77.816Zm0 0" transform="matrix(.0996 0 0 -.0996 0 200.377)"/><path style="stroke:none;fill-rule:nonzero;fill:#ede9c7;fill-opacity:1" d="m25.453 111.23 13.297 41.668-17.29-6.671"/><path style="fill:none;stroke-width:5;stroke-linecap:round;stroke-linejoin:round;stroke:#000;stroke-opacity:1;stroke-miterlimit:10" d="m255.572 895.11 133.512-418.382-173.598 66.991Zm0 0" transform="matrix(.0996 0 0 -.0996 0 200.377)"/><path style="stroke:none;fill-rule:nonzero;fill:#fae9a3;fill-opacity:1" d="m12.184 115.113 9.277 31.114 3.992-34.997"/><path style="fill:none;stroke-width:5;stroke-linecap:round;stroke-linejoin:round;stroke:#000;stroke-opacity:1;stroke-miterlimit:10" d="m122.334 856.124 93.152-312.405 40.086 351.392Zm0 0" transform="matrix(.0996 0 0 -.0996 0 200.377)"/><path style="stroke:none;fill-rule:nonzero;fill:#e8a88c;fill-opacity:1" d="m45.34 59.27-19.781 9.66-.106 42.3"/><path style="fill:none;stroke-width:5;stroke-linecap:round;stroke-linejoin:round;stroke:#000;stroke-opacity:1;stroke-miterlimit:10" d="m455.251 1416.844-198.62-96.997-1.06-424.736Zm0 0" transform="matrix(.0996 0 0 -.0996 0 200.377)"/><path style="stroke:none;fill-rule:nonzero;fill:#ffd27f;fill-opacity:1" d="m11.395 82.57.789 32.543 13.27-3.883"/><path style="fill:none;stroke-width:5;stroke-linecap:round;stroke-linejoin:round;stroke:#000;stroke-opacity:1;stroke-miterlimit:10" d="m114.411 1182.884 7.923-326.76 133.238 38.987Zm0 0" transform="matrix(.0996 0 0 -.0996 0 200.377)"/><path style="stroke:none;fill-rule:nonzero;fill:#f9b87c;fill-opacity:1" d="m11.395 82.57 14.164-13.64-.106 42.3"/><path style="fill:none;stroke-width:5;stroke-linecap:round;stroke-linejoin:round;stroke:#000;stroke-opacity:1;stroke-miterlimit:10" d="m114.411 1182.884 142.22 136.963-1.06-424.736Zm0 0" transform="matrix(.0996 0 0 -.0996 0 200.377)"/><path style="stroke:none;fill-rule:nonzero;fill:#e79166;fill-opacity:1" d="M37.074 27.977 25.56 68.93l19.78-9.66"/><path style="fill:none;stroke-width:5;stroke-linecap:round;stroke-linejoin:round;stroke:#000;stroke-opacity:1;stroke-miterlimit:10" d="m372.257 1731.052-115.626-411.205 198.62 96.997Zm0 0" transform="matrix(.0996 0 0 -.0996 0 200.377)"/><path style="stroke:none;fill-rule:nonzero;fill:#d47b63;fill-opacity:1" d="m37.074 27.977 27.656 9.328L45.34 59.27"/><path style="fill:none;stroke-width:5;stroke-linecap:round;stroke-linejoin:round;stroke:#000;stroke-opacity:1;stroke-miterlimit:10" d="m372.257 1731.052 277.693-93.662-194.699-220.546Zm0 0" transform="matrix(.0996 0 0 -.0996 0 200.377)"/><path style="stroke:none;fill-rule:nonzero;fill:#2c35a8;fill-opacity:1" d="m175.715 88.375-1.004 44.012 13.742-11.395"/><path style="fill:none;stroke-width:5;stroke-linecap:round;stroke-linejoin:round;stroke:#000;stroke-opacity:1;stroke-miterlimit:10" d="m1764.33 1124.6-10.08-441.917 137.983 114.411Zm0 0" transform="matrix(.0996 0 0 -.0996 0 200.377)"/><path style="stroke:none;fill-rule:nonzero;fill:#000074;fill-opacity:1" d="m188.043 88.375.41 32.617-12.738-32.617"/><path style="fill:none;stroke-width:5;stroke-linecap:round;stroke-linejoin:round;stroke:#000;stroke-opacity:1;stroke-miterlimit:10" d="m1888.115 1124.6 4.118-327.506L1764.33 1124.6Zm0 0" transform="matrix(.0996 0 0 -.0996 0 200.377)"/><path style="stroke:none;fill-rule:nonzero;fill:#6a3176;fill-opacity:1" d="m162.2 47.988-21.141-3.406 34.656 43.793"/><path style="fill:none;stroke-width:5;stroke-linecap:round;stroke-linejoin:round;stroke:#000;stroke-opacity:1;stroke-miterlimit:10" d="m1628.621 1530.117-212.27 34.202 347.979-439.72Zm0 0" transform="matrix(.0996 0 0 -.0996 0 200.377)"/><path style="stroke:none;fill-rule:nonzero;fill:#300058;fill-opacity:1" d="m179.02 56.934-16.82-8.946 13.515 40.387"/><path style="fill:none;stroke-width:5;stroke-linecap:round;stroke-linejoin:round;stroke:#000;stroke-opacity:1;stroke-miterlimit:10" d="m1797.512 1440.298-168.89 89.82 135.708-405.519Zm0 0" transform="matrix(.0996 0 0 -.0996 0 200.377)"/><path style="stroke:none;fill-rule:nonzero;fill:#00004d;fill-opacity:1" d="m179.02 56.934 9.023 31.441h-12.328"/><path style="fill:none;stroke-width:5;stroke-linecap:round;stroke-linejoin:round;stroke:#000;stroke-opacity:1;stroke-miterlimit:10" d="m1797.512 1440.298 90.603-315.699H1764.33Zm0 0" transform="matrix(.0996 0 0 -.0996 0 200.377)"/><path style="stroke:none;fill-rule:nonzero;fill:#802a54;fill-opacity:1" d="m137.941 12.406-22.265 17.051 25.383 15.125"/><path style="fill:none;stroke-width:5;stroke-linecap:round;stroke-linejoin:round;stroke:#000;stroke-opacity:1;stroke-miterlimit:10" d="m1385.052 1887.392-223.567-171.205 254.866-151.868Zm0 0" transform="matrix(.0996 0 0 -.0996 0 200.377)"/><path style="stroke:none;fill-rule:nonzero;fill:#5d0e4d;fill-opacity:1" d="M137.941 12.406 162.2 47.988l-21.14-3.406"/><path style="fill:none;stroke-width:5;stroke-linecap:round;stroke-linejoin:round;stroke:#000;stroke-opacity:1;stroke-miterlimit:10" d="m1385.052 1887.392 243.57-357.275-212.271 34.202Zm0 0" transform="matrix(.0996 0 0 -.0996 0 200.377)"/><path style="stroke:none;fill-rule:nonzero;fill:#abcff3;fill-opacity:1" d="m62.344 189.98 22.86-20.03 27.116 9.652"/><path style="fill:none;stroke-width:5;stroke-linecap:round;stroke-linejoin:round;stroke:#000;stroke-opacity:1;stroke-miterlimit:10" d="m625.985 104.392 229.528 201.131 272.28-96.918Zm0 0" transform="matrix(.0996 0 0 -.0996 0 200.377)"/><path style="stroke:none;fill-rule:nonzero;fill:#7ba2ec;fill-opacity:1" d="m162.246 175.023-26.5-12.664-23.426 17.243"/><path style="fill:none;stroke-width:5;stroke-linecap:round;stroke-linejoin:round;stroke:#000;stroke-opacity:1;stroke-miterlimit:10" d="m1629.092 254.574-266.083 127.158-235.215-173.127Zm0 0" transform="matrix(.0996 0 0 -.0996 0 200.377)"/><path style="stroke:none;fill-rule:nonzero;fill:#c15643;fill-opacity:1" d="m37.074 27.977 27.656 9.328 23.31-16.711"/><path style="fill:none;stroke-width:5;stroke-linecap:round;stroke-linejoin:round;stroke:#000;stroke-opacity:1;stroke-miterlimit:10" d="m372.257 1731.052 277.693-93.662 234.039 167.792Zm0 0" transform="matrix(.0996 0 0 -.0996 0 200.377)"/><path style="stroke:none;fill-rule:nonzero;fill:#8b2338;fill-opacity:1" d="m137.941 12.406-22.265 17.051-27.637-8.863"/><path style="fill:none;stroke-width:5;stroke-linecap:round;stroke-linejoin:round;stroke:#000;stroke-opacity:1;stroke-miterlimit:10" d="m1385.052 1887.392-223.567-171.205-277.496 88.995Zm0 0" transform="matrix(.0996 0 0 -.0996 0 200.377)"/><path style="stroke:none;fill-rule:nonzero;fill:#81ceff;fill-opacity:1" d="m62.344 189.98 50.894-.828-.918-9.55"/><path style="fill:none;stroke-width:5;stroke-linecap:round;stroke-linejoin:round;stroke:#000;stroke-opacity:1;stroke-miterlimit:10" d="m625.985 104.392 511.026 8.315-9.217 95.898Zm0 0" transform="matrix(.0996 0 0 -.0996 0 200.377)"/><path style="stroke:none;fill-rule:nonzero;fill:#60affa;fill-opacity:1" d="m162.246 175.023-49.008 14.13-.918-9.551"/><path style="fill:none;stroke-width:5;stroke-linecap:round;stroke-linejoin:round;stroke:#000;stroke-opacity:1;stroke-miterlimit:10" d="M1629.092 254.574 1137.01 112.707l-9.217 95.898Zm0 0" transform="matrix(.0996 0 0 -.0996 0 200.377)"/><path style="stroke:none;fill-rule:nonzero;fill:#defad7;fill-opacity:1" d="m21.46 146.227 17.29 6.671 23.594 37.082"/><path style="fill:none;stroke-width:5;stroke-linecap:round;stroke-linejoin:round;stroke:#000;stroke-opacity:1;stroke-miterlimit:10" d="m215.486 543.72 173.598-66.992 236.901-372.336Zm0 0" transform="matrix(.0996 0 0 -.0996 0 200.377)"/><path style="stroke:none;fill-rule:nonzero;fill:#970d00;fill-opacity:1" d="m86.398 13.418 1.641 7.176-50.965 7.383"/><path style="fill:none;stroke-width:5;stroke-linecap:round;stroke-linejoin:round;stroke:#000;stroke-opacity:1;stroke-miterlimit:10" d="m867.515 1877.233 16.474-72.05-511.732-74.13Zm0 0" transform="matrix(.0996 0 0 -.0996 0 200.377)"/><path style="stroke:none;fill-rule:nonzero;fill:#710000;fill-opacity:1" d="m137.941 12.406-51.543 1.012 1.641 7.176"/><path style="fill:none;stroke-width:5;stroke-linecap:round;stroke-linejoin:round;stroke:#000;stroke-opacity:1;stroke-miterlimit:10" d="m1385.052 1887.392-517.537-10.159 16.474-72.05Zm0 0" transform="matrix(.0996 0 0 -.0996 0 200.377)"/><path style="stroke:none;fill-rule:nonzero;fill:#0632b4;fill-opacity:1" d="m188.453 120.992-13.742 11.395-12.465 42.636"/><path style="fill:none;stroke-width:5;stroke-linecap:round;stroke-linejoin:round;stroke:#000;stroke-opacity:1;stroke-miterlimit:10" d="m1892.233 797.094-137.983-114.41-125.158-428.11Zm0 0" transform="matrix(.0996 0 0 -.0996 0 200.377)"/><path style="stroke:none;fill-rule:nonzero;fill:#f1953e;fill-opacity:1" d="M37.074 27.977 25.56 68.93 11.395 82.57"/><path style="fill:none;stroke-width:5;stroke-linecap:round;stroke-linejoin:round;stroke:#000;stroke-opacity:1;stroke-miterlimit:10" d="m372.257 1731.052-115.626-411.205-142.22-136.963Zm0 0" transform="matrix(.0996 0 0 -.0996 0 200.377)"/><path style="stroke:none;fill-rule:nonzero;fill:#090010;fill-opacity:1" d="M137.941 12.406 162.2 47.988l16.82 8.946"/><path style="fill:none;stroke-width:5;stroke-linecap:round;stroke-linejoin:round;stroke:#000;stroke-opacity:1;stroke-miterlimit:10" d="m1385.052 1887.392 243.57-357.275 168.89-89.819Zm0 0" transform="matrix(.0996 0 0 -.0996 0 200.377)"/><path style="stroke:none;fill-rule:nonzero;fill:#1ba7d0;fill-opacity:1" d="m112.902 190.828.336-1.676-50.894.828"/><path style="fill:none;stroke-width:5;stroke-linecap:round;stroke-linejoin:round;stroke:#000;stroke-opacity:1;stroke-miterlimit:10" d="m1133.638 95.88 3.373 16.827-511.026-8.315Zm0 0" transform="matrix(.0996 0 0 -.0996 0 200.377)"/><path style="stroke:none;fill-rule:nonzero;fill:#460000;fill-opacity:1" d="m112.902 190.828-31.004-6.578-19.554 5.73"/><path style="fill:none;stroke-width:5;stroke-linecap:round;stroke-linejoin:round;stroke:#000;stroke-opacity:1;stroke-miterlimit:10" d="m1133.638 95.88-311.306 66.051-196.347-57.539Zm0 0" transform="matrix(.0996 0 0 -.0996 0 200.377)"/><path style="stroke:none;fill-rule:nonzero;fill:#9de494;fill-opacity:1" d="m21.46 146.227 11.071 13.707 29.813 30.046"/><path style="fill:none;stroke-width:5;stroke-linecap:round;stroke-linejoin:round;stroke:#000;stroke-opacity:1;stroke-miterlimit:10" d="m215.486 543.72 111.156-137.631 299.343-301.697Zm0 0" transform="matrix(.0996 0 0 -.0996 0 200.377)"/><path style="stroke:none;fill-rule:nonzero;fill:#450000;fill-opacity:1" d="m51.707 168.734 30.191 15.516-19.554 5.73"/><path style="fill:none;stroke-width:5;stroke-linecap:round;stroke-linejoin:round;stroke:#000;stroke-opacity:1;stroke-miterlimit:10" d="m519.184 317.721 303.148-155.79-196.347-57.539Zm0 0" transform="matrix(.0996 0 0 -.0996 0 200.377)"/><path style="stroke:none;fill-rule:nonzero;fill:#000;fill-opacity:1" d="m51.707 168.734-19.176-8.8 29.813 30.046"/><path style="fill:none;stroke-width:5;stroke-linecap:round;stroke-linejoin:round;stroke:#000;stroke-opacity:1;stroke-miterlimit:10" d="M519.184 317.721 326.642 406.09l299.343-301.697Zm0 0" transform="matrix(.0996 0 0 -.0996 0 200.377)"/><path style="stroke:none;fill-rule:nonzero;fill:#0079c6;fill-opacity:1" d="m162.246 175.023-49.008 14.13-.336 1.675"/><path style="fill:none;stroke-width:5;stroke-linecap:round;stroke-linejoin:round;stroke:#000;stroke-opacity:1;stroke-miterlimit:10" d="M1629.092 254.574 1137.01 112.707l-3.373-16.826Zm0 0" transform="matrix(.0996 0 0 -.0996 0 200.377)"/><path style="stroke:none;fill-rule:nonzero;fill:#bec546;fill-opacity:1" d="m11.129 117.465 1.055-2.352 9.277 31.114"/><path style="fill:none;stroke-width:5;stroke-linecap:round;stroke-linejoin:round;stroke:#000;stroke-opacity:1;stroke-miterlimit:10" d="m111.744 832.512 10.59 23.612 93.152-312.405Zm0 0" transform="matrix(.0996 0 0 -.0996 0 200.377)"/><path style="stroke:none;fill-rule:nonzero;fill:#000;fill-opacity:1" d="m11.129 117.465 21.402 42.469-11.07-13.707"/><path style="fill:none;stroke-width:5;stroke-linecap:round;stroke-linejoin:round;stroke:#000;stroke-opacity:1;stroke-miterlimit:10" d="M111.744 832.512 326.642 406.09l-111.156 137.63Zm0 0" transform="matrix(.0996 0 0 -.0996 0 200.377)"/><path style="stroke:none;fill-rule:nonzero;fill:#9e0f00;fill-opacity:1" d="m140.125 175.527-27.223 15.301 49.344-15.805"/><path style="fill:none;stroke-width:5;stroke-linecap:round;stroke-linejoin:round;stroke:#000;stroke-opacity:1;stroke-miterlimit:10" d="m1406.977 249.514-273.34-153.633 495.455 158.693Zm0 0" transform="matrix(.0996 0 0 -.0996 0 200.377)"/><path style="stroke:none;fill-rule:nonzero;fill:#000058;fill-opacity:1" d="m188.453 120.992-7.531 16.582-18.676 37.45"/><path style="fill:none;stroke-width:5;stroke-linecap:round;stroke-linejoin:round;stroke:#000;stroke-opacity:1;stroke-miterlimit:10" d="m1892.233 797.094-75.62-166.498-187.521-376.022Zm0 0" transform="matrix(.0996 0 0 -.0996 0 200.377)"/><path style="stroke:none;fill-rule:nonzero;fill:#e07111;fill-opacity:1" d="m164.137 151.832 16.785-14.258-18.676 37.45"/><path style="fill:none;stroke-width:5;stroke-linecap:round;stroke-linejoin:round;stroke:#000;stroke-opacity:1;stroke-miterlimit:10" d="m1648.075 487.436 168.538 143.16-187.521-376.022Zm0 0" transform="matrix(.0996 0 0 -.0996 0 200.377)"/><path style="stroke:none;fill-rule:nonzero;fill:#d0581a;fill-opacity:1" d="m164.137 151.832-24.012 23.695 22.121-.504"/><path style="fill:none;stroke-width:5;stroke-linecap:round;stroke-linejoin:round;stroke:#000;stroke-opacity:1;stroke-miterlimit:10" d="m1648.075 487.436-241.098-237.922 222.115 5.06Zm0 0" transform="matrix(.0996 0 0 -.0996 0 200.377)"/><path style="stroke:none;fill-rule:nonzero;fill:#c0a011;fill-opacity:1" d="m11.129 117.465 1.055-2.352-.79-32.543"/><path style="fill:none;stroke-width:5;stroke-linecap:round;stroke-linejoin:round;stroke:#000;stroke-opacity:1;stroke-miterlimit:10" d="m111.744 832.512 10.59 23.612-7.923 326.76Zm0 0" transform="matrix(.0996 0 0 -.0996 0 200.377)"/><path style="stroke:none;fill-rule:nonzero;fill:#a34700;fill-opacity:1" d="M37.074 27.977 18.09 68.305 11.395 82.57"/><path style="fill:none;stroke-width:5;stroke-linecap:round;stroke-linejoin:round;stroke:#000;stroke-opacity:1;stroke-miterlimit:10" d="m372.257 1731.052-190.62-404.93-67.226-143.238Zm0 0" transform="matrix(.0996 0 0 -.0996 0 200.377)"/><path style="stroke:none;fill-rule:nonzero;fill:#000068;fill-opacity:1" d="M18.09 68.305 11.395 82.57l-.266 34.895"/><path style="fill:none;stroke-width:5;stroke-linecap:round;stroke-linejoin:round;stroke:#000;stroke-opacity:1;stroke-miterlimit:10" d="m181.638 1326.123-67.227-143.24-2.667-350.37Zm0 0" transform="matrix(.0996 0 0 -.0996 0 200.377)"/><path style="stroke:none;fill-rule:nonzero;fill:#b79705;fill-opacity:1" d="m187.86 90.605.183-2.23.41 32.617"/><path style="fill:none;stroke-width:5;stroke-linecap:round;stroke-linejoin:round;stroke:#000;stroke-opacity:1;stroke-miterlimit:10" d="m1886.272 1102.204 1.843 22.395 4.118-327.505Zm0 0" transform="matrix(.0996 0 0 -.0996 0 200.377)"/><path style="stroke:none;fill-rule:nonzero;fill:#eaa124;fill-opacity:1" d="m187.86 90.605-6.938 46.97 7.531-16.583"/><path style="fill:none;stroke-width:5;stroke-linecap:round;stroke-linejoin:round;stroke:#000;stroke-opacity:1;stroke-miterlimit:10" d="m1886.272 1102.204-69.659-471.608 75.62 166.498Zm0 0" transform="matrix(.0996 0 0 -.0996 0 200.377)"/><path style="stroke:none;fill-rule:nonzero;fill:#b6bd3a;fill-opacity:1" d="m187.86 90.605.183-2.23-9.023-31.441"/><path style="fill:none;stroke-width:5;stroke-linecap:round;stroke-linejoin:round;stroke:#000;stroke-opacity:1;stroke-miterlimit:10" d="m1886.272 1102.204 1.843 22.395-90.603 315.7Zm0 0" transform="matrix(.0996 0 0 -.0996 0 200.377)"/><path style="stroke:none;fill-rule:nonzero;fill:#003abd;fill-opacity:1" d="M34.11 56.266 18.09 68.305l18.984-40.328"/><path style="fill:none;stroke-width:5;stroke-linecap:round;stroke-linejoin:round;stroke:#000;stroke-opacity:1;stroke-miterlimit:10" d="m342.488 1447.005-160.85-120.882 190.62 404.93Zm0 0" transform="matrix(.0996 0 0 -.0996 0 200.377)"/><path style="stroke:none;fill-rule:nonzero;fill:#3b78e1;fill-opacity:1" d="M58.258 31.414 34.109 56.266l2.965-28.29"/><path style="fill:none;stroke-width:5;stroke-linecap:round;stroke-linejoin:round;stroke:#000;stroke-opacity:1;stroke-miterlimit:10" d="m584.96 1696.537-242.472-249.532 29.77 284.047Zm0 0" transform="matrix(.0996 0 0 -.0996 0 200.377)"/><path style="stroke:none;fill-rule:nonzero;fill:#3a94f1;fill-opacity:1" d="M85.973 14.566 58.258 31.414l-21.184-3.437"/><path style="fill:none;stroke-width:5;stroke-linecap:round;stroke-linejoin:round;stroke:#000;stroke-opacity:1;stroke-miterlimit:10" d="m863.24 1865.702-278.28-169.165-212.703 34.515Zm0 0" transform="matrix(.0996 0 0 -.0996 0 200.377)"/><path style="stroke:none;fill-rule:nonzero;fill:#0071bd;fill-opacity:1" d="m85.973 14.566.425-1.148-49.324 14.559"/><path style="fill:none;stroke-width:5;stroke-linecap:round;stroke-linejoin:round;stroke:#000;stroke-opacity:1;stroke-miterlimit:10" d="m863.24 1865.702 4.275 11.531-495.258-146.18Zm0 0" transform="matrix(.0996 0 0 -.0996 0 200.377)"/><path style="stroke:none;fill-rule:nonzero;fill:#e1f6a3;fill-opacity:1" d="m167.29 45.43 11.73 11.504 8.84 33.671"/><path style="fill:none;stroke-width:5;stroke-linecap:round;stroke-linejoin:round;stroke:#000;stroke-opacity:1;stroke-miterlimit:10" d="m1679.728 1555.808 117.784-115.51 88.76-338.094Zm0 0" transform="matrix(.0996 0 0 -.0996 0 200.377)"/><path style="stroke:none;fill-rule:nonzero;fill:#95dd8b;fill-opacity:1" d="M137.941 12.406 167.29 45.43l11.73 11.504"/><path style="fill:none;stroke-width:5;stroke-linecap:round;stroke-linejoin:round;stroke:#000;stroke-opacity:1;stroke-miterlimit:10" d="m1385.052 1887.392 294.676-331.584 117.784-115.51Zm0 0" transform="matrix(.0996 0 0 -.0996 0 200.377)"/><path style="stroke:none;fill-rule:nonzero;fill:#11a0c7;fill-opacity:1" d="m85.973 14.566.425-1.148 51.543-1.012"/><path style="fill:none;stroke-width:5;stroke-linecap:round;stroke-linejoin:round;stroke:#000;stroke-opacity:1;stroke-miterlimit:10" d="m863.24 1865.702 4.275 11.531 517.537 10.159Zm0 0" transform="matrix(.0996 0 0 -.0996 0 200.377)"/><path style="stroke:none;fill-rule:nonzero;fill:#ccfde1;fill-opacity:1" d="m147.293 38.879 19.996 6.55-29.348-33.023"/><path style="fill:none;stroke-width:5;stroke-linecap:round;stroke-linejoin:round;stroke:#000;stroke-opacity:1;stroke-miterlimit:10" d="m1478.95 1621.583 200.778-65.775-294.676 331.584Zm0 0" transform="matrix(.0996 0 0 -.0996 0 200.377)"/><path style="stroke:none;fill-rule:nonzero;fill:#89ddfe;fill-opacity:1" d="m117.016 22.355-31.043-7.789 51.968-2.16"/><path style="fill:none;stroke-width:5;stroke-linecap:round;stroke-linejoin:round;stroke:#000;stroke-opacity:1;stroke-miterlimit:10" d="m1174.939 1787.493-311.699 78.209 521.812 21.69Zm0 0" transform="matrix(.0996 0 0 -.0996 0 200.377)"/><path style="stroke:none;fill-rule:nonzero;fill:#b9ecf4;fill-opacity:1" d="m117.016 22.355 30.277 16.524-9.352-26.473"/><path style="fill:none;stroke-width:5;stroke-linecap:round;stroke-linejoin:round;stroke:#000;stroke-opacity:1;stroke-miterlimit:10" d="m1174.939 1787.493 304.01-165.91-93.897 265.809Zm0 0" transform="matrix(.0996 0 0 -.0996 0 200.377)"/><path style="stroke:none;fill-rule:nonzero;fill:#2c003f;fill-opacity:1" d="m11.129 117.465 21.402 42.469 19.176 8.8"/><path style="fill:none;stroke-width:5;stroke-linecap:round;stroke-linejoin:round;stroke:#000;stroke-opacity:1;stroke-miterlimit:10" d="M111.744 832.512 326.642 406.09l192.542-88.368Zm0 0" transform="matrix(.0996 0 0 -.0996 0 200.377)"/><path style="stroke:none;fill-rule:nonzero;fill:#f6a765;fill-opacity:1" d="m187.86 90.605-6.938 46.97-16.785 14.257"/><path style="fill:none;stroke-width:5;stroke-linecap:round;stroke-linejoin:round;stroke:#000;stroke-opacity:1;stroke-miterlimit:10" d="m1886.272 1102.204-69.659-471.608-168.538-143.16Zm0 0" transform="matrix(.0996 0 0 -.0996 0 200.377)"/><path style="stroke:none;fill-rule:nonzero;fill:#283db3;fill-opacity:1" d="M34.11 56.266 18.09 68.305l-6.961 49.16"/><path style="fill:none;stroke-width:5;stroke-linecap:round;stroke-linejoin:round;stroke:#000;stroke-opacity:1;stroke-miterlimit:10" d="m342.488 1447.005-160.85-120.882-69.894-493.61Zm0 0" transform="matrix(.0996 0 0 -.0996 0 200.377)"/><path style="stroke:none;fill-rule:nonzero;fill:#b44639;fill-opacity:1" d="m107.617 163.191 32.508 12.336-27.223 15.301"/><path style="fill:none;stroke-width:5;stroke-linecap:round;stroke-linejoin:round;stroke:#000;stroke-opacity:1;stroke-miterlimit:10" d="m1080.57 373.378 326.407-123.864-273.34-153.633Zm0 0" transform="matrix(.0996 0 0 -.0996 0 200.377)"/><path style="stroke:none;fill-rule:nonzero;fill:#952933;fill-opacity:1" d="M107.617 163.191 81.898 184.25l31.004 6.578"/><path style="fill:none;stroke-width:5;stroke-linecap:round;stroke-linejoin:round;stroke:#000;stroke-opacity:1;stroke-miterlimit:10" d="M1080.57 373.378 822.332 161.93l311.306-66.05Zm0 0" transform="matrix(.0996 0 0 -.0996 0 200.377)"/><path style="stroke:none;fill-rule:nonzero;fill:#e7efd2;fill-opacity:1" d="m147.293 38.879 19.996 6.55 20.57 45.176"/><path style="fill:none;stroke-width:5;stroke-linecap:round;stroke-linejoin:round;stroke:#000;stroke-opacity:1;stroke-miterlimit:10" d="m1478.95 1621.583 200.778-65.775 206.544-453.604Zm0 0" transform="matrix(.0996 0 0 -.0996 0 200.377)"/><path style="stroke:none;fill-rule:nonzero;fill:#83adf0;fill-opacity:1" d="M85.973 14.566 58.258 31.414 89.98 47.785"/><path style="fill:none;stroke-width:5;stroke-linecap:round;stroke-linejoin:round;stroke:#000;stroke-opacity:1;stroke-miterlimit:10" d="m863.24 1865.702-278.28-169.165 318.522-164.38Zm0 0" transform="matrix(.0996 0 0 -.0996 0 200.377)"/><path style="stroke:none;fill-rule:nonzero;fill:#9fc7f4;fill-opacity:1" d="m117.016 22.355-31.043-7.789 4.007 33.22"/><path style="fill:none;stroke-width:5;stroke-linecap:round;stroke-linejoin:round;stroke:#000;stroke-opacity:1;stroke-miterlimit:10" d="m1174.939 1787.493-311.699 78.209 40.242-333.545Zm0 0" transform="matrix(.0996 0 0 -.0996 0 200.377)"/><path style="stroke:none;fill-rule:nonzero;fill:#883053;fill-opacity:1" d="M107.617 163.191 81.898 184.25l-30.191-15.516"/><path style="fill:none;stroke-width:5;stroke-linecap:round;stroke-linejoin:round;stroke:#000;stroke-opacity:1;stroke-miterlimit:10" d="M1080.57 373.378 822.332 161.93l-303.148 155.79Zm0 0" transform="matrix(.0996 0 0 -.0996 0 200.377)"/><path style="stroke:none;fill-rule:nonzero;fill:#ce7260;fill-opacity:1" d="m107.617 163.191 32.508 12.336 24.012-23.695"/><path style="fill:none;stroke-width:5;stroke-linecap:round;stroke-linejoin:round;stroke:#000;stroke-opacity:1;stroke-miterlimit:10" d="m1080.57 373.378 326.407-123.864 241.098 237.922Zm0 0" transform="matrix(.0996 0 0 -.0996 0 200.377)"/><path style="stroke:none;fill-rule:nonzero;fill:#7b93df;fill-opacity:1" d="m89.98 47.785-31.722-16.37-24.149 24.85"/><path style="fill:none;stroke-width:5;stroke-linecap:round;stroke-linejoin:round;stroke:#000;stroke-opacity:1;stroke-miterlimit:10" d="m903.482 1532.157-318.523 164.38-242.471-249.532Zm0 0" transform="matrix(.0996 0 0 -.0996 0 200.377)"/><path style="stroke:none;fill-rule:nonzero;fill:#bccfe8;fill-opacity:1" d="m117.016 22.355 30.277 16.524-57.313 8.906"/><path style="fill:none;stroke-width:5;stroke-linecap:round;stroke-linejoin:round;stroke:#000;stroke-opacity:1;stroke-miterlimit:10" d="m1174.939 1787.493 304.01-165.91-575.467-89.426Zm0 0" transform="matrix(.0996 0 0 -.0996 0 200.377)"/><path style="stroke:none;fill-rule:nonzero;fill:#8d4d7c;fill-opacity:1" d="m107.617 163.191-53.465-19.957-2.445 25.5"/><path style="fill:none;stroke-width:5;stroke-linecap:round;stroke-linejoin:round;stroke:#000;stroke-opacity:1;stroke-miterlimit:10" d="M1080.57 373.378 543.737 573.764 519.184 317.72Zm0 0" transform="matrix(.0996 0 0 -.0996 0 200.377)"/><path style="stroke:none;fill-rule:nonzero;fill:#6f377b;fill-opacity:1" d="m11.129 117.465 43.023 25.77-2.445 25.5"/><path style="fill:none;stroke-width:5;stroke-linecap:round;stroke-linejoin:round;stroke:#000;stroke-opacity:1;stroke-miterlimit:10" d="m111.744 832.512 431.993-258.748-24.553-256.043Zm0 0" transform="matrix(.0996 0 0 -.0996 0 200.377)"/><path style="stroke:none;fill-rule:nonzero;fill:#845d9b;fill-opacity:1" d="m61.898 111.441-7.746 31.793-43.023-25.77"/><path style="fill:none;stroke-width:5;stroke-linecap:round;stroke-linejoin:round;stroke:#000;stroke-opacity:1;stroke-miterlimit:10" d="m621.514 892.993-77.777-319.23-431.993 258.75Zm0 0" transform="matrix(.0996 0 0 -.0996 0 200.377)"/><path style="stroke:none;fill-rule:nonzero;fill:#826bb0;fill-opacity:1" d="m44.602 82.016 17.296 29.425-50.77 6.024"/><path style="fill:none;stroke-width:5;stroke-linecap:round;stroke-linejoin:round;stroke:#000;stroke-opacity:1;stroke-miterlimit:10" d="m447.838 1188.453 173.676-295.46-509.77-60.48Zm0 0" transform="matrix(.0996 0 0 -.0996 0 200.377)"/><path style="stroke:none;fill-rule:nonzero;fill:#6a66bb;fill-opacity:1" d="m34.11 56.266 10.492 25.75-33.473 35.449"/><path style="fill:none;stroke-width:5;stroke-linecap:round;stroke-linejoin:round;stroke:#000;stroke-opacity:1;stroke-miterlimit:10" d="m342.488 1447.005 105.35-258.552-336.094-355.94Zm0 0" transform="matrix(.0996 0 0 -.0996 0 200.377)"/><path style="stroke:none;fill-rule:nonzero;fill:#d48f88;fill-opacity:1" d="m153.297 128.258 10.84 23.574-56.52 11.36"/><path style="fill:none;stroke-width:5;stroke-linecap:round;stroke-linejoin:round;stroke:#000;stroke-opacity:1;stroke-miterlimit:10" d="m1539.234 724.141 108.841-236.705-567.505-114.058Zm0 0" transform="matrix(.0996 0 0 -.0996 0 200.377)"/><path style="stroke:none;fill-rule:nonzero;fill:#e5a78f;fill-opacity:1" d="m187.86 90.605-34.563 37.653 10.84 23.574"/><path style="fill:none;stroke-width:5;stroke-linecap:round;stroke-linejoin:round;stroke:#000;stroke-opacity:1;stroke-miterlimit:10" d="M1886.272 1102.204 1539.234 724.14l108.841-236.705Zm0 0" transform="matrix(.0996 0 0 -.0996 0 200.377)"/><path style="stroke:none;fill-rule:nonzero;fill:#daada9;fill-opacity:1" d="m135.766 100.219 17.53 28.039 34.563-37.653"/><path style="fill:none;stroke-width:5;stroke-linecap:round;stroke-linejoin:round;stroke:#000;stroke-opacity:1;stroke-miterlimit:10" d="m1363.205 1005.678 176.029-281.537 347.038 378.063Zm0 0" transform="matrix(.0996 0 0 -.0996 0 200.377)"/><path style="stroke:none;fill-rule:nonzero;fill:#d7babd;fill-opacity:1" d="m144.11 66.813-8.344 33.406 52.093-9.614"/><path style="fill:none;stroke-width:5;stroke-linecap:round;stroke-linejoin:round;stroke:#000;stroke-opacity:1;stroke-miterlimit:10" d="m1446.983 1341.106-83.778-335.428 523.067 96.526Zm0 0" transform="matrix(.0996 0 0 -.0996 0 200.377)"/><path style="stroke:none;fill-rule:nonzero;fill:#dcd0cd;fill-opacity:1" d="m147.293 38.879-3.184 27.934 43.75 23.792"/><path style="fill:none;stroke-width:5;stroke-linecap:round;stroke-linejoin:round;stroke:#000;stroke-opacity:1;stroke-miterlimit:10" d="m1478.95 1621.583-31.967-280.477 439.289-238.902Zm0 0" transform="matrix(.0996 0 0 -.0996 0 200.377)"/><path style="stroke:none;fill-rule:nonzero;fill:#8585cb;fill-opacity:1" d="m89.98 47.785-45.378 34.23-10.493-25.75"/><path style="fill:none;stroke-width:5;stroke-linecap:round;stroke-linejoin:round;stroke:#000;stroke-opacity:1;stroke-miterlimit:10" d="m903.482 1532.157-455.644-343.704-105.35 258.552Zm0 0" transform="matrix(.0996 0 0 -.0996 0 200.377)"/><path style="stroke:none;fill-rule:nonzero;fill:#c9c4d5;fill-opacity:1" d="m89.98 47.785 54.13 19.028 3.183-27.934"/><path style="fill:none;stroke-width:5;stroke-linecap:round;stroke-linejoin:round;stroke:#000;stroke-opacity:1;stroke-miterlimit:10" d="m903.482 1532.157 543.501-191.051 31.967 280.477Zm0 0" transform="matrix(.0996 0 0 -.0996 0 200.377)"/><path style="stroke:none;fill-rule:nonzero;fill:#9b6b99;fill-opacity:1" d="m61.898 111.441-7.746 31.793 53.465 19.957"/><path style="fill:none;stroke-width:5;stroke-linecap:round;stroke-linejoin:round;stroke:#000;stroke-opacity:1;stroke-miterlimit:10" d="m621.514 892.993-77.777-319.23 536.833-200.385Zm0 0" transform="matrix(.0996 0 0 -.0996 0 200.377)"/><path style="stroke:none;fill-rule:nonzero;fill:#cb98a1;fill-opacity:1" d="m135.766 100.219 17.53 28.039-45.679 34.933"/><path style="fill:none;stroke-width:5;stroke-linecap:round;stroke-linejoin:round;stroke:#000;stroke-opacity:1;stroke-miterlimit:10" d="m1363.205 1005.678 176.029-281.537-458.664-350.763Zm0 0" transform="matrix(.0996 0 0 -.0996 0 200.377)"/><path style="stroke:none;fill-rule:nonzero;fill:#9785be;fill-opacity:1" d="m89.98 47.785-45.378 34.23 17.296 29.426"/><path style="fill:none;stroke-width:5;stroke-linecap:round;stroke-linejoin:round;stroke:#000;stroke-opacity:1;stroke-miterlimit:10" d="m903.482 1532.157-455.644-343.704 173.676-295.46Zm0 0" transform="matrix(.0996 0 0 -.0996 0 200.377)"/><path style="stroke:none;fill-rule:nonzero;fill:#c6b1c5;fill-opacity:1" d="m89.98 47.785 54.13 19.028-8.344 33.406"/><path style="fill:none;stroke-width:5;stroke-linecap:round;stroke-linejoin:round;stroke:#000;stroke-opacity:1;stroke-miterlimit:10" d="m903.482 1532.157 543.501-191.051-83.778-335.428Zm0 0" transform="matrix(.0996 0 0 -.0996 0 200.377)"/><path style="stroke:none;fill-rule:nonzero;fill:#ac82a7;fill-opacity:1" d="m98.727 106.078-36.829 5.363 45.72 51.75"/><path style="fill:none;stroke-width:5;stroke-linecap:round;stroke-linejoin:round;stroke:#000;stroke-opacity:1;stroke-miterlimit:10" d="m991.3 946.845-369.786-53.852 459.056-519.615Zm0 0" transform="matrix(.0996 0 0 -.0996 0 200.377)"/><path style="stroke:none;fill-rule:nonzero;fill:#bd92aa;fill-opacity:1" d="m135.766 100.219-37.04 5.86 8.891 57.112"/><path style="fill:none;stroke-width:5;stroke-linecap:round;stroke-linejoin:round;stroke:#000;stroke-opacity:1;stroke-miterlimit:10" d="m1363.205 1005.678-371.904-58.833 89.27-573.467Zm0 0" transform="matrix(.0996 0 0 -.0996 0 200.377)"/><path style="stroke:none;fill-rule:nonzero;fill:#aa8eb8;fill-opacity:1" d="m89.98 47.785 8.747 58.293-36.829 5.363"/><path style="fill:none;stroke-width:5;stroke-linecap:round;stroke-linejoin:round;stroke:#000;stroke-opacity:1;stroke-miterlimit:10" d="m903.482 1532.157 87.819-585.312-369.787-53.852Zm0 0" transform="matrix(.0996 0 0 -.0996 0 200.377)"/><path style="stroke:none;fill-rule:nonzero;fill:#ba9dbb;fill-opacity:1" d="m89.98 47.785 8.747 58.293 37.039-5.86"/><path style="fill:none;stroke-width:5;stroke-linecap:round;stroke-linejoin:round;stroke:#000;stroke-opacity:1;stroke-miterlimit:10" d="m903.482 1532.157 87.819-585.312 371.904 58.833Zm0 0" transform="matrix(.0996 0 0 -.0996 0 200.377)"/></svg>