<svg xmlns="http://www.w3.org/2000/svg" width="191pt" height="268" viewBox="0 0 191 201" version="1.2"><path style="stroke:none;fill-rule:nonzero;fill:#b0809f;fill-opacity:1" d="m99.113 122.008-52.66-55.125 77.805-14.207"/><path style="fill:none;stroke-width:7.16;stroke-linecap:round;stroke-linejoin:round;stroke:#000;stroke-opacity:1;stroke-miterlimit:10" d="m991.133 789.922-526.602 551.25 778.047 142.07Zm0 0" transform="matrix(.1 0 0 -.1 0 201)"/><path style="fill-rule:nonzero;fill:#8066ab;fill-opacity:1;stroke-width:7.16;stroke-linecap:round;stroke-linejoin:round;stroke:#000;stroke-opacity:1;stroke-miterlimit:10" d="M1529.219 375.703 991.133 789.922l251.445 693.32" transform="matrix(.1 0 0 -.1 0 201)"/><path style="stroke:none;fill-rule:nonzero;fill:#d4bbc2;fill-opacity:1" d="m37.91 141.379 8.543-74.496 52.66 55.125"/><path style="fill:none;stroke-width:7.16;stroke-linecap:round;stroke-linejoin:round;stroke:#000;stroke-opacity:1;stroke-miterlimit:10" d="m379.102 596.21 85.43 744.962 526.6-551.25Zm0 0" transform="matrix(.1 0 0 -.1 0 201)"/><path style="fill-rule:nonzero;fill:#b4ceed;fill-opacity:1;stroke-width:7.16;stroke-linecap:round;stroke-linejoin:round;stroke:#000;stroke-opacity:1;stroke-miterlimit:10" d="m991.133 789.922 538.086-414.219L914.766 130.04M914.766 130.04 379.102 596.21l612.03 193.712" transform="matrix(.1 0 0 -.1 0 201)"/><path style="stroke:none;fill-rule:nonzero;fill:#af5f70;fill-opacity:1" d="M124.258 52.676 46.453 66.883l22.27-54.453"/><path style="fill:none;stroke-width:7.16;stroke-linecap:round;stroke-linejoin:round;stroke:#000;stroke-opacity:1;stroke-miterlimit:10" d="m1242.578 1483.242-778.047-142.07 222.696 544.531Zm0 0" transform="matrix(.1 0 0 -.1 0 201)"/><path style="stroke:none;fill-rule:nonzero;fill:#e07433;fill-opacity:1" d="m68.723 12.43-22.27 54.453-39.336 6.523"/><path style="fill:none;stroke-width:7.16;stroke-linecap:round;stroke-linejoin:round;stroke:#000;stroke-opacity:1;stroke-miterlimit:10" d="M687.227 1885.703 464.53 1341.172l-393.36-65.235Zm0 0" transform="matrix(.1 0 0 -.1 0 201)"/><path style="stroke:none;fill-rule:nonzero;fill:#f6d0a5;fill-opacity:1" d="M37.91 141.379 7.117 73.406l39.336-6.523"/><path style="fill:none;stroke-width:7.16;stroke-linecap:round;stroke-linejoin:round;stroke:#000;stroke-opacity:1;stroke-miterlimit:10" d="m379.102 596.21-307.93 679.727 393.36 65.235Zm0 0" transform="matrix(.1 0 0 -.1 0 201)"/><path style="stroke:none;fill-rule:nonzero;fill:#9a4058;fill-opacity:1" d="m155.145 9.344-30.887 43.332L68.723 12.43"/><path style="fill:none;stroke-width:7.16;stroke-linecap:round;stroke-linejoin:round;stroke:#000;stroke-opacity:1;stroke-miterlimit:10" d="m1551.445 1916.563-308.867-433.32-555.351 402.46Zm0 0" transform="matrix(.1 0 0 -.1 0 201)"/><path style="stroke:none;fill-rule:nonzero;fill:#643480;fill-opacity:1" d="m182.672 90.71-58.414-38.034 30.887-43.332"/><path style="fill:none;stroke-width:7.16;stroke-linecap:round;stroke-linejoin:round;stroke:#000;stroke-opacity:1;stroke-miterlimit:10" d="m1826.719 1102.89-584.14 380.352 308.866 433.32Zm0 0" transform="matrix(.1 0 0 -.1 0 201)"/><path style="fill-rule:nonzero;fill:#8066ab;fill-opacity:1;stroke-width:7.16;stroke-linecap:round;stroke-linejoin:round;stroke:#000;stroke-opacity:1;stroke-miterlimit:10" d="m1242.578 1483.242 584.14-380.351-297.5-727.188" transform="matrix(.1 0 0 -.1 0 201)"/><path style="stroke:none;fill-rule:nonzero;fill:#000c97;fill-opacity:1" d="m174.758 162.844-21.836.586 29.75-72.72"/><path style="fill:none;stroke-width:7.16;stroke-linecap:round;stroke-linejoin:round;stroke:#000;stroke-opacity:1;stroke-miterlimit:10" d="m1747.578 381.563-218.36-5.86 297.5 727.188Zm0 0" transform="matrix(.1 0 0 -.1 0 201)"/><path style="stroke:none;fill-rule:nonzero;fill:#007cd0;fill-opacity:1" d="m174.758 162.844-83.281 25.152 61.445-24.566"/><path style="fill:none;stroke-width:7.16;stroke-linecap:round;stroke-linejoin:round;stroke:#000;stroke-opacity:1;stroke-miterlimit:10" d="M1747.578 381.563 914.766 130.038l614.453 245.664Zm0 0" transform="matrix(.1 0 0 -.1 0 201)"/><path style="stroke:none;fill-rule:nonzero;fill:#bbf8ee;fill-opacity:1" d="m91.477 187.996-79.325-32.422L37.91 141.38"/><path style="fill:none;stroke-width:7.16;stroke-linecap:round;stroke-linejoin:round;stroke:#000;stroke-opacity:1;stroke-miterlimit:10" d="M914.766 130.04 121.523 454.257 379.102 596.21Zm0 0" transform="matrix(.1 0 0 -.1 0 201)"/><path style="stroke:none;fill-rule:nonzero;fill:#fce59f;fill-opacity:1" d="M12.152 155.574 7.117 73.406 37.91 141.38"/><path style="fill:none;stroke-width:7.16;stroke-linecap:round;stroke-linejoin:round;stroke:#000;stroke-opacity:1;stroke-miterlimit:10" d="m121.523 454.258-50.351 821.68 307.93-679.727Zm0 0" transform="matrix(.1 0 0 -.1 0 201)"/><path style="stroke:none;fill-rule:nonzero;fill:#ebe57c;fill-opacity:1" d="M182.672 90.71 155.145 9.345l8.214 64.148"/><path style="fill:none;stroke-width:7.16;stroke-linecap:round;stroke-linejoin:round;stroke:#000;stroke-opacity:1;stroke-miterlimit:10" d="m1826.719 1102.89-275.274 813.672 82.149-641.484Zm0 0" transform="matrix(.1 0 0 -.1 0 201)"/><path style="stroke:none;fill-rule:nonzero;fill:#fad26a;fill-opacity:1" d="m174.758 162.844 7.914-72.133-19.313-17.219"/><path style="fill:none;stroke-width:7.16;stroke-linecap:round;stroke-linejoin:round;stroke:#000;stroke-opacity:1;stroke-miterlimit:10" d="m1747.578 381.563 79.14 721.328-193.124 172.187Zm0 0" transform="matrix(.1 0 0 -.1 0 201)"/><path style="stroke:none;fill-rule:nonzero;fill:#360000;fill-opacity:1" d="m68.723 12.43 24.265-8.992 62.157 5.906"/><path style="fill:none;stroke-width:7.16;stroke-linecap:round;stroke-linejoin:round;stroke:#000;stroke-opacity:1;stroke-miterlimit:10" d="m687.227 1885.703 242.656 89.922 621.562-59.063Zm0 0" transform="matrix(.1 0 0 -.1 0 201)"/><path style="fill-rule:nonzero;fill:#0035b7;fill-opacity:1;stroke-width:7.16;stroke-linecap:round;stroke-linejoin:round;stroke:#000;stroke-opacity:1;stroke-miterlimit:10" d="m228.281 1277.148 701.602 698.477-242.656-89.922" transform="matrix(.1 0 0 -.1 0 201)"/><path style="fill-rule:nonzero;fill:#0035b7;fill-opacity:1;stroke-width:7.16;stroke-linecap:round;stroke-linejoin:round;stroke:#000;stroke-opacity:1;stroke-miterlimit:10" d="M687.227 1885.703 71.172 1275.938l157.11 1.21" transform="matrix(.1 0 0 -.1 0 201)"/><path style="stroke:none;fill-rule:nonzero;fill:#005;fill-opacity:1" d="m22.828 73.285-15.71.121 5.034 82.168"/><path style="fill:none;stroke-width:7.16;stroke-linecap:round;stroke-linejoin:round;stroke:#000;stroke-opacity:1;stroke-miterlimit:10" d="m228.281 1277.148-157.11-1.21 50.352-821.68Zm0 0" transform="matrix(.1 0 0 -.1 0 201)"/><path style="stroke:none;fill-rule:nonzero;fill:#dde6da;fill-opacity:1" d="m92.988 3.438 70.371 70.054-8.214-64.148"/><path style="fill:none;stroke-width:7.16;stroke-linecap:round;stroke-linejoin:round;stroke:#000;stroke-opacity:1;stroke-miterlimit:10" d="m929.883 1975.625 703.71-700.547-82.148 641.485Zm0 0" transform="matrix(.1 0 0 -.1 0 201)"/><path style="stroke:none;fill-rule:nonzero;fill:#a23638;fill-opacity:1" d="m95.668 144.68-4.191 43.316 83.28-25.152"/><path style="fill:none;stroke-width:7.16;stroke-linecap:round;stroke-linejoin:round;stroke:#000;stroke-opacity:1;stroke-miterlimit:10" d="M956.68 563.203 914.766 130.04l832.812 251.524Zm0 0" transform="matrix(.1 0 0 -.1 0 201)"/><path style="stroke:none;fill-rule:nonzero;fill:#89233b;fill-opacity:1" d="m95.668 144.68-83.516 10.894 79.325 32.422"/><path style="fill:none;stroke-width:7.16;stroke-linecap:round;stroke-linejoin:round;stroke:#000;stroke-opacity:1;stroke-miterlimit:10" d="M956.68 563.203 121.523 454.258l793.243-324.219Zm0 0" transform="matrix(.1 0 0 -.1 0 201)"/><path style="stroke:none;fill-rule:nonzero;fill:#d29ea0;fill-opacity:1" d="m95.668 144.68 79.09 18.164-11.399-89.352"/><path style="fill:none;stroke-width:7.16;stroke-linecap:round;stroke-linejoin:round;stroke:#000;stroke-opacity:1;stroke-miterlimit:10" d="m956.68 563.203 790.898-181.64-113.984 893.515Zm0 0" transform="matrix(.1 0 0 -.1 0 201)"/><path style="stroke:none;fill-rule:nonzero;fill:#935d8e;fill-opacity:1" d="m95.668 144.68-72.84-71.395-10.676 82.29"/><path style="fill:none;stroke-width:7.16;stroke-linecap:round;stroke-linejoin:round;stroke:#000;stroke-opacity:1;stroke-miterlimit:10" d="M956.68 563.203 228.28 1277.148l-106.758-822.89Zm0 0" transform="matrix(.1 0 0 -.1 0 201)"/><path style="fill-rule:nonzero;fill:#bea0ba;fill-opacity:1;stroke-width:7.16;stroke-linecap:round;stroke-linejoin:round;stroke:#000;stroke-opacity:1;stroke-miterlimit:10" d="m956.68 563.203 676.914 711.875-703.711 700.547" transform="matrix(.1 0 0 -.1 0 201)"/><path style="fill-rule:nonzero;fill:#bea0ba;fill-opacity:1;stroke-width:7.16;stroke-linecap:round;stroke-linejoin:round;stroke:#000;stroke-opacity:1;stroke-miterlimit:10" d="M929.883 1975.625 228.28 1277.148 956.68 563.203" transform="matrix(.1 0 0 -.1 0 201)"/></svg>