<svg xmlns="http://www.w3.org/2000/svg" width="140pt" height="140pt" viewBox="0 0 140 140" version="1.2"><path style="fill-rule:nonzero;fill:#abbbe5;fill-opacity:1;stroke-width:4.17357;stroke-linecap:round;stroke-linejoin:round;stroke:#000;stroke-opacity:1;stroke-miterlimit:10" d="m330.82 265.625 225.157 246.992 418.086-48.32" transform="matrix(.1 0 0 -.1 0 140)"/><path style="stroke:none;fill-rule:nonzero;fill:#e3bfb3;fill-opacity:1" d="m55.598 88.738-22.516 24.7-17.578-70.965"/><path style="fill:none;stroke-width:4.17357;stroke-linecap:round;stroke-linejoin:round;stroke:#000;stroke-opacity:1;stroke-miterlimit:10" d="M555.977 512.617 330.82 265.625" transform="matrix(.1 0 0 -.1 0 140)"/><path style="fill-rule:nonzero;fill:#e3bfb3;fill-opacity:1;stroke-width:4.17357;stroke-linecap:round;stroke-linejoin:round;stroke:#000;stroke-opacity:1;stroke-miterlimit:10" d="m155.04 975.273 302.577-52.812 98.36-409.844" transform="matrix(.1 0 0 -.1 0 140)"/><path style="fill-rule:nonzero;fill:#ac86ac;fill-opacity:1;stroke-width:4.17357;stroke-linecap:round;stroke-linejoin:round;stroke:#000;stroke-opacity:1;stroke-miterlimit:10" d="m555.977 512.617-98.36 409.844 361.602 217.812" transform="matrix(.1 0 0 -.1 0 140)"/><path style="stroke:none;fill-rule:nonzero;fill:#ac86ac;fill-opacity:1" d="m97.406 93.57-41.808-4.832 26.324-62.765"/><path style="fill:none;stroke-width:4.17357;stroke-linecap:round;stroke-linejoin:round;stroke:#000;stroke-opacity:1;stroke-miterlimit:10" d="m974.063 464.297-418.086 48.32" transform="matrix(.1 0 0 -.1 0 140)"/><path style="stroke:none;fill-rule:nonzero;fill:#c25f50;fill-opacity:1" d="m45.762 47.754-30.258-5.281L78.406 3.73"/><path style="fill:none;stroke-width:4.17357;stroke-linecap:round;stroke-linejoin:round;stroke:#000;stroke-opacity:1;stroke-miterlimit:10" d="M457.617 922.46 155.04 975.274" transform="matrix(.1 0 0 -.1 0 140)"/><path style="fill-rule:nonzero;fill:#c25f50;fill-opacity:1;stroke-width:4.17357;stroke-linecap:round;stroke-linejoin:round;stroke:#000;stroke-opacity:1;stroke-miterlimit:10" d="m784.063 1362.695 35.156-222.422-361.602-217.812" transform="matrix(.1 0 0 -.1 0 140)"/><path style="stroke:none;fill-rule:nonzero;fill:#abbbe5;fill-opacity:1" d="m63.707 136.488-30.625-23.05L97.406 93.57"/><path style="fill:none;stroke-width:4.17357;stroke-linecap:round;stroke-linejoin:round;stroke:#000;stroke-opacity:1;stroke-miterlimit:10" d="M637.07 35.117 330.82 265.625" transform="matrix(.1 0 0 -.1 0 140)"/><path style="fill-rule:nonzero;fill:#abbbe5;fill-opacity:1;stroke-width:4.17357;stroke-linecap:round;stroke-linejoin:round;stroke:#000;stroke-opacity:1;stroke-miterlimit:10" d="m974.063 464.297 81.445-288.75L637.07 35.117" transform="matrix(.1 0 0 -.1 0 140)"/><path style="fill-rule:nonzero;fill:#ac86ac;fill-opacity:1;stroke-width:4.17357;stroke-linecap:round;stroke-linejoin:round;stroke:#000;stroke-opacity:1;stroke-miterlimit:10" d="m819.219 1140.273 325.976-288.398-171.132-387.578" transform="matrix(.1 0 0 -.1 0 140)"/><path style="fill-rule:nonzero;fill:#4650b8;fill-opacity:1;stroke-width:4.17357;stroke-linecap:round;stroke-linejoin:round;stroke:#000;stroke-opacity:1;stroke-miterlimit:10" d="m974.063 464.297 171.132 387.578 216.446.352" transform="matrix(.1 0 0 -.1 0 140)"/><path style="stroke:none;fill-rule:nonzero;fill:#4650b8;fill-opacity:1" d="M105.55 122.445 97.407 93.57l38.758-38.793"/><path style="fill:none;stroke-width:4.17357;stroke-linecap:round;stroke-linejoin:round;stroke:#000;stroke-opacity:1;stroke-miterlimit:10" d="m1055.508 175.547-81.446 288.75" transform="matrix(.1 0 0 -.1 0 140)"/><path style="fill-rule:nonzero;fill:#3e0035;fill-opacity:1;stroke-width:4.17357;stroke-linecap:round;stroke-linejoin:round;stroke:#000;stroke-opacity:1;stroke-miterlimit:10" d="m819.219 1140.273-35.157 222.422 353.32-174.687" transform="matrix(.1 0 0 -.1 0 140)"/><path style="stroke:none;fill-rule:nonzero;fill:#3e0035;fill-opacity:1" d="m114.52 54.813-32.598-28.84 31.816-4.774"/><path style="fill:none;stroke-width:4.17357;stroke-linecap:round;stroke-linejoin:round;stroke:#000;stroke-opacity:1;stroke-miterlimit:10" d="M1145.195 851.875 819.22 1140.273" transform="matrix(.1 0 0 -.1 0 140)"/><path style="fill-rule:nonzero;fill:#3e0035;fill-opacity:1;stroke-width:4.17357;stroke-linecap:round;stroke-linejoin:round;stroke:#000;stroke-opacity:1;stroke-miterlimit:10" d="m1137.383 1188.008 224.258-335.781-216.446-.352" transform="matrix(.1 0 0 -.1 0 140)"/><path style="fill-rule:nonzero;fill:#e3bfb3;fill-opacity:1;stroke-width:4.17357;stroke-linecap:round;stroke-linejoin:round;stroke:#000;stroke-opacity:1;stroke-miterlimit:10" d="m330.82 265.625-269.843 282.5 94.062 427.148" transform="matrix(.1 0 0 -.1 0 140)"/><path style="stroke:none;fill-rule:nonzero;fill:#000;fill-opacity:1" d="m33.082 113.438 30.625 23.05-45.121-48.152"/><path style="fill:none;stroke-width:4.17357;stroke-linecap:round;stroke-linejoin:round;stroke:#000;stroke-opacity:1;stroke-miterlimit:10" d="M330.82 265.625 637.07 35.117" transform="matrix(.1 0 0 -.1 0 140)"/><path style="fill-rule:nonzero;fill:#000;fill-opacity:1;stroke-width:4.17357;stroke-linecap:round;stroke-linejoin:round;stroke:#000;stroke-opacity:1;stroke-miterlimit:10" d="M185.86 516.64 60.976 548.126l269.843-282.5" transform="matrix(.1 0 0 -.1 0 140)"/><path style="fill-rule:nonzero;fill:#c25f50;fill-opacity:1;stroke-width:4.17357;stroke-linecap:round;stroke-linejoin:round;stroke:#000;stroke-opacity:1;stroke-miterlimit:10" d="m155.04 975.273 186.64 286.016 442.382 101.406" transform="matrix(.1 0 0 -.1 0 140)"/><path style="fill-rule:nonzero;fill:#001ca2;fill-opacity:1;stroke-width:4.17357;stroke-linecap:round;stroke-linejoin:round;stroke:#000;stroke-opacity:1;stroke-miterlimit:10" d="M341.68 1261.29 155.04 975.272 60.976 548.125" transform="matrix(.1 0 0 -.1 0 140)"/><path style="fill-rule:nonzero;fill:#4650b8;fill-opacity:1;stroke-width:4.17357;stroke-linecap:round;stroke-linejoin:round;stroke:#000;stroke-opacity:1;stroke-miterlimit:10" d="m1361.64 852.227-51.21-449.297-254.922-227.383" transform="matrix(.1 0 0 -.1 0 140)"/><path style="fill-rule:nonzero;fill:#b5350c;fill-opacity:1;stroke-width:4.17357;stroke-linecap:round;stroke-linejoin:round;stroke:#000;stroke-opacity:1;stroke-miterlimit:10" d="M1055.508 175.547 1310.43 402.93l-278.75 14.96" transform="matrix(.1 0 0 -.1 0 140)"/><path style="stroke:none;fill-rule:nonzero;fill:#b5350c;fill-opacity:1" d="m63.707 136.488 41.844-14.043-2.383-24.234"/><path style="fill:none;stroke-width:4.17357;stroke-linecap:round;stroke-linejoin:round;stroke:#000;stroke-opacity:1;stroke-miterlimit:10" d="m637.07 35.117 418.438 140.43" transform="matrix(.1 0 0 -.1 0 140)"/><path style="fill-rule:nonzero;fill:#a1c6f2;fill-opacity:1;stroke-width:4.17357;stroke-linecap:round;stroke-linejoin:round;stroke:#000;stroke-opacity:1;stroke-miterlimit:10" d="m1137.383 1188.008-353.32 174.687L341.68 1261.29" transform="matrix(.1 0 0 -.1 0 140)"/><path style="stroke:none;fill-rule:nonzero;fill:#001ca2;fill-opacity:1" d="m6.098 85.188 12.488 3.148L34.168 13.87"/><path style="fill:none;stroke-width:4.17357;stroke-linecap:round;stroke-linejoin:round;stroke:#000;stroke-opacity:1;stroke-miterlimit:10" d="m60.977 548.125 124.882-31.484" transform="matrix(.1 0 0 -.1 0 140)"/><path style="fill-rule:nonzero;fill:#f0ccad;fill-opacity:1;stroke-width:4.17357;stroke-linecap:round;stroke-linejoin:round;stroke:#000;stroke-opacity:1;stroke-miterlimit:10" d="m1310.43 402.93 51.21 449.297-224.257 335.78" transform="matrix(.1 0 0 -.1 0 140)"/><path style="fill-rule:nonzero;fill:#b5350c;fill-opacity:1;stroke-width:4.17357;stroke-linecap:round;stroke-linejoin:round;stroke:#000;stroke-opacity:1;stroke-miterlimit:10" d="m1031.68 417.89-452.5-251.327 57.89-131.446" transform="matrix(.1 0 0 -.1 0 140)"/><path style="fill-rule:nonzero;fill:#000;fill-opacity:1;stroke-width:4.17357;stroke-linecap:round;stroke-linejoin:round;stroke:#000;stroke-opacity:1;stroke-miterlimit:10" d="m637.07 35.117-57.89 131.446L185.86 516.64" transform="matrix(.1 0 0 -.1 0 140)"/><path style="fill-rule:nonzero;fill:#001ca2;fill-opacity:1;stroke-width:4.17357;stroke-linecap:round;stroke-linejoin:round;stroke:#000;stroke-opacity:1;stroke-miterlimit:10" d="m185.86 516.64 192.577 480.743-36.757 263.906" transform="matrix(.1 0 0 -.1 0 140)"/><path style="stroke:none;fill-rule:nonzero;fill:#a1c6f2;fill-opacity:1" d="m34.168 13.871 3.676 26.39L113.738 21.2"/><path style="fill:none;stroke-width:4.17357;stroke-linecap:round;stroke-linejoin:round;stroke:#000;stroke-opacity:1;stroke-miterlimit:10" d="m341.68 1261.29 36.757-263.907" transform="matrix(.1 0 0 -.1 0 140)"/><path style="stroke:none;fill-rule:nonzero;fill:#f0ccad;fill-opacity:1" d="m103.168 98.21 27.875 1.497-17.305-78.508"/><path style="fill:none;stroke-width:4.17357;stroke-linecap:round;stroke-linejoin:round;stroke:#000;stroke-opacity:1;stroke-miterlimit:10" d="m1031.68 417.89 278.75-14.96" transform="matrix(.1 0 0 -.1 0 140)"/><path style="fill-rule:nonzero;fill:#f0ccad;fill-opacity:1;stroke-width:4.17357;stroke-linecap:round;stroke-linejoin:round;stroke:#000;stroke-opacity:1;stroke-miterlimit:10" d="M1137.383 1188.008 911.875 943.789l119.805-525.898" transform="matrix(.1 0 0 -.1 0 140)"/><path style="fill-rule:nonzero;fill:#a1c6f2;fill-opacity:1;stroke-width:4.17357;stroke-linecap:round;stroke-linejoin:round;stroke:#000;stroke-opacity:1;stroke-miterlimit:10" d="m378.438 997.383 533.437-53.594 225.508 244.219" transform="matrix(.1 0 0 -.1 0 140)"/><path style="fill-rule:nonzero;fill:#aa82aa;fill-opacity:1;stroke-width:4.17357;stroke-linecap:round;stroke-linejoin:round;stroke:#000;stroke-opacity:1;stroke-miterlimit:10" d="M579.18 166.563 185.86 516.64l192.577 480.742" transform="matrix(.1 0 0 -.1 0 140)"/><path style="stroke:none;fill-rule:nonzero;fill:#aa82aa;fill-opacity:1" d="m103.168 98.21-45.25 25.134-20.074-83.082"/><path style="fill:none;stroke-width:4.17357;stroke-linecap:round;stroke-linejoin:round;stroke:#000;stroke-opacity:1;stroke-miterlimit:10" d="m1031.68 417.89-452.5-251.327" transform="matrix(.1 0 0 -.1 0 140)"/><path style="fill-rule:nonzero;fill:#aa82aa;fill-opacity:1;stroke-width:4.17357;stroke-linecap:round;stroke-linejoin:round;stroke:#000;stroke-opacity:1;stroke-miterlimit:10" d="m378.438 997.383 533.437-53.594 119.805-525.898" transform="matrix(.1 0 0 -.1 0 140)"/></svg>