<svg xmlns="http://www.w3.org/2000/svg" width="260.413" height="266.413" viewBox="0 0 195.31 199.81" version="1.2"><path style="stroke:none;fill-rule:nonzero;fill:#a9789c;fill-opacity:1" d="M108.484 91.152 87.027 51.914 63.59 86.324"/><path style="fill:none;stroke-width:5;stroke-linecap:round;stroke-linejoin:round;stroke:#000;stroke-opacity:1;stroke-miterlimit:10" d="m1088.676 1085.936-215.328 393.769-235.203-345.317Zm0 0" transform="matrix(.09965 0 0 -.09965 0 199.364)"/><path style="stroke:none;fill-rule:nonzero;fill:#ae9ac2;fill-opacity:1" d="m79.953 126.906 28.531-35.754-44.894-4.828"/><path style="fill:none;stroke-width:5;stroke-linecap:round;stroke-linejoin:round;stroke:#000;stroke-opacity:1;stroke-miterlimit:10" d="m802.356 727.134 286.32 358.802-450.531 48.452Zm0 0" transform="matrix(.09965 0 0 -.09965 0 199.364)"/><path style="stroke:none;fill-rule:nonzero;fill:#d0c3cc;fill-opacity:1" d="m39.21 110.652 40.743 16.254L63.59 86.324"/><path style="fill:none;stroke-width:5;stroke-linecap:round;stroke-linejoin:round;stroke:#000;stroke-opacity:1;stroke-miterlimit:10" d="m393.495 890.247 408.86-163.113-164.21 407.254Zm0 0" transform="matrix(.09965 0 0 -.09965 0 199.364)"/><path style="stroke:none;fill-rule:nonzero;fill:#ecb89b;fill-opacity:1" d="m43.45 63.094-4.24 47.558 24.38-24.328"/><path style="fill:none;stroke-width:5;stroke-linecap:round;stroke-linejoin:round;stroke:#000;stroke-opacity:1;stroke-miterlimit:10" d="m436.027 1367.513-42.532-477.266 244.65 244.14Zm0 0" transform="matrix(.09965 0 0 -.09965 0 199.364)"/><path style="stroke:none;fill-rule:nonzero;fill:#c97d7b;fill-opacity:1" d="M87.027 51.914 43.45 63.094l20.14 23.23"/><path style="fill:none;stroke-width:5;stroke-linecap:round;stroke-linejoin:round;stroke:#000;stroke-opacity:1;stroke-miterlimit:10" d="m873.348 1479.705-437.32-112.192 202.117-233.125Zm0 0" transform="matrix(.09965 0 0 -.09965 0 199.364)"/><path style="stroke:none;fill-rule:nonzero;fill:#c79dad;fill-opacity:1" d="m105.742 119.254 2.742-28.102-28.53 35.754"/><path style="fill:none;stroke-width:5;stroke-linecap:round;stroke-linejoin:round;stroke:#000;stroke-opacity:1;stroke-miterlimit:10" d="m1061.158 803.927 27.518 282.009-286.32-358.802Zm0 0" transform="matrix(.09965 0 0 -.09965 0 199.364)"/><path style="stroke:none;fill-rule:nonzero;fill:#8970b0;fill-opacity:1" d="m105.742 119.254 20.2 12.984-17.458-41.086"/><path style="fill:none;stroke-width:5;stroke-linecap:round;stroke-linejoin:round;stroke:#000;stroke-opacity:1;stroke-miterlimit:10" d="m1061.158 803.927 202.705-130.302-175.187 412.31Zm0 0" transform="matrix(.09965 0 0 -.09965 0 199.364)"/><path style="stroke:none;fill-rule:nonzero;fill:#abbbe5;fill-opacity:1" d="m105.742 119.254-25.789 7.652 45.988 5.332"/><path style="fill:none;stroke-width:5;stroke-linecap:round;stroke-linejoin:round;stroke:#000;stroke-opacity:1;stroke-miterlimit:10" d="m1061.158 803.927-258.802-76.793 461.507-53.51Zm0 0" transform="matrix(.09965 0 0 -.09965 0 199.364)"/><path style="stroke:none;fill-rule:nonzero;fill:#c79dad;fill-opacity:1" d="m111.238 62.855-24.21-10.94 21.456 39.237"/><path style="fill:none;stroke-width:5;stroke-linecap:round;stroke-linejoin:round;stroke:#000;stroke-opacity:1;stroke-miterlimit:10" d="m1116.313 1369.904-242.965 109.8 215.328-393.768Zm0 0" transform="matrix(.09965 0 0 -.09965 0 199.364)"/><path style="stroke:none;fill-rule:nonzero;fill:#ae9ac2;fill-opacity:1" d="m108.484 91.152 17.457 41.086 28.309-36.164"/><path style="fill:none;stroke-width:5;stroke-linecap:round;stroke-linejoin:round;stroke:#000;stroke-opacity:1;stroke-miterlimit:10" d="m1088.676 1085.936 175.187-412.311 284.086 362.918Zm0 0" transform="matrix(.09965 0 0 -.09965 0 199.364)"/><path style="stroke:none;fill-rule:nonzero;fill:#a9789c;fill-opacity:1" d="m133.523 56.547-25.039 34.605 45.766 4.922"/><path style="fill:none;stroke-width:5;stroke-linecap:round;stroke-linejoin:round;stroke:#000;stroke-opacity:1;stroke-miterlimit:10" d="m1339.952 1433.213-251.276-347.277 459.273-49.393Zm0 0" transform="matrix(.09965 0 0 -.09965 0 199.364)"/><path style="stroke:none;fill-rule:nonzero;fill:#8970b0;fill-opacity:1" d="m111.238 62.855-2.754 28.297 25.04-34.605"/><path style="fill:none;stroke-width:5;stroke-linecap:round;stroke-linejoin:round;stroke:#000;stroke-opacity:1;stroke-miterlimit:10" d="m1116.313 1369.904-27.637-283.968 251.276 347.277Zm0 0" transform="matrix(.09965 0 0 -.09965 0 199.364)"/><path style="stroke:none;fill-rule:nonzero;fill:#943a55;fill-opacity:1" d="m111.238 62.855 22.285-6.308-46.496-4.633"/><path style="fill:none;stroke-width:5;stroke-linecap:round;stroke-linejoin:round;stroke:#000;stroke-opacity:1;stroke-miterlimit:10" d="m1116.313 1369.904 223.639 63.309-466.604 46.492Zm0 0" transform="matrix(.09965 0 0 -.09965 0 199.364)"/><path style="stroke:none;fill-rule:nonzero;fill:#101590;fill-opacity:1" d="m163.934 124.797 5.109-48.766-14.793 20.043"/><path style="fill:none;stroke-width:5;stroke-linecap:round;stroke-linejoin:round;stroke:#000;stroke-opacity:1;stroke-miterlimit:10" d="m1645.127 748.302 51.275 489.379-148.453-201.138Zm0 0" transform="matrix(.09965 0 0 -.09965 0 199.364)"/><path style="stroke:none;fill-rule:nonzero;fill:#7a89d6;fill-opacity:1" d="m125.941 132.238 37.993-7.441-9.684-28.723"/><path style="fill:none;stroke-width:5;stroke-linecap:round;stroke-linejoin:round;stroke:#000;stroke-opacity:1;stroke-miterlimit:10" d="m1263.863 673.625 381.264 74.677-97.178 288.241Zm0 0" transform="matrix(.09965 0 0 -.09965 0 199.364)"/><path style="stroke:none;fill-rule:nonzero;fill:#642a72;fill-opacity:1" d="m169.043 76.031-35.52-19.484 20.727 39.527"/><path style="fill:none;stroke-width:5;stroke-linecap:round;stroke-linejoin:round;stroke:#000;stroke-opacity:1;stroke-miterlimit:10" d="m1696.402 1237.68-356.45 195.533 207.997-396.67Zm0 0" transform="matrix(.09965 0 0 -.09965 0 199.364)"/><path style="stroke:none;fill-rule:nonzero;fill:#c79dad;fill-opacity:1" d="m53.414 134.781 26.54-7.875-40.743-16.254"/><path style="fill:none;stroke-width:5;stroke-linecap:round;stroke-linejoin:round;stroke:#000;stroke-opacity:1;stroke-miterlimit:10" d="m536.028 648.105 266.328 79.029-408.861 163.113Zm0 0" transform="matrix(.09965 0 0 -.09965 0 199.364)"/><path style="stroke:none;fill-rule:nonzero;fill:#d0c3cc;fill-opacity:1" d="m79.953 126.906-24.086 26.875 41.14 15.418"/><path style="fill:none;stroke-width:5;stroke-linecap:round;stroke-linejoin:round;stroke:#000;stroke-opacity:1;stroke-miterlimit:10" d="m802.356 727.134-241.71-269.7 412.86-154.724Zm0 0" transform="matrix(.09965 0 0 -.09965 0 199.364)"/><path style="stroke:none;fill-rule:nonzero;fill:#ae9ac2;fill-opacity:1" d="m125.941 132.238-45.988-5.332L97.008 169.2"/><path style="fill:none;stroke-width:5;stroke-linecap:round;stroke-linejoin:round;stroke:#000;stroke-opacity:1;stroke-miterlimit:10" d="m1263.863 673.625-461.507 53.509 171.15-424.424Zm0 0" transform="matrix(.09965 0 0 -.09965 0 199.364)"/><path style="stroke:none;fill-rule:nonzero;fill:#abbbe5;fill-opacity:1" d="m53.414 134.781 2.453 19 24.086-26.875"/><path style="fill:none;stroke-width:5;stroke-linecap:round;stroke-linejoin:round;stroke:#000;stroke-opacity:1;stroke-miterlimit:10" d="m536.028 648.105 24.618-190.67 241.71 269.699Zm0 0" transform="matrix(.09965 0 0 -.09965 0 199.364)"/><path style="stroke:none;fill-rule:nonzero;fill:#a9789c;fill-opacity:1" d="m87.027 51.914 46.496 4.633-21.597-41.184"/><path style="fill:none;stroke-width:5;stroke-linecap:round;stroke-linejoin:round;stroke:#000;stroke-opacity:1;stroke-miterlimit:10" d="m873.348 1479.705 466.604-46.492-216.74 413.29Zm0 0" transform="matrix(.09965 0 0 -.09965 0 199.364)"/><path style="stroke:none;fill-rule:nonzero;fill:#c97d7b;fill-opacity:1" d="m67.578 25.988 19.45 25.926 24.898-36.55"/><path style="fill:none;stroke-width:5;stroke-linecap:round;stroke-linejoin:round;stroke:#000;stroke-opacity:1;stroke-miterlimit:10" d="m678.169 1739.879 195.179-260.174 249.864 366.799Zm0 0" transform="matrix(.09965 0 0 -.09965 0 199.364)"/><path style="stroke:none;fill-rule:nonzero;fill:#943a55;fill-opacity:1" d="m61.992 40.602 25.035 11.312-19.449-25.926"/><path style="fill:none;stroke-width:5;stroke-linecap:round;stroke-linejoin:round;stroke:#000;stroke-opacity:1;stroke-miterlimit:10" d="m622.112 1593.23 251.236-113.525-195.18 260.174Zm0 0" transform="matrix(.09965 0 0 -.09965 0 199.364)"/><path style="stroke:none;fill-rule:nonzero;fill:#c79dad;fill-opacity:1" d="M61.992 40.602 43.45 63.094l43.578-11.18"/><path style="fill:none;stroke-width:5;stroke-linecap:round;stroke-linejoin:round;stroke:#000;stroke-opacity:1;stroke-miterlimit:10" d="m622.112 1593.23-186.085-225.717 437.321 112.192Zm0 0" transform="matrix(.09965 0 0 -.09965 0 199.364)"/><path style="stroke:none;fill-rule:nonzero;fill:#8970b0;fill-opacity:1" d="m147.156 145.867 16.778-21.07-37.993 7.441"/><path style="fill:none;stroke-width:5;stroke-linecap:round;stroke-linejoin:round;stroke:#000;stroke-opacity:1;stroke-miterlimit:10" d="m1476.761 536.854 168.366 211.448-381.264-74.677Zm0 0" transform="matrix(.09965 0 0 -.09965 0 199.364)"/><path style="stroke:none;fill-rule:nonzero;fill:#7a89d6;fill-opacity:1" d="m134.121 163.355-8.18-31.117L97.008 169.2"/><path style="fill:none;stroke-width:5;stroke-linecap:round;stroke-linejoin:round;stroke:#000;stroke-opacity:1;stroke-miterlimit:10" d="m1345.95 361.354-82.087 312.27L973.505 302.71Zm0 0" transform="matrix(.09965 0 0 -.09965 0 199.364)"/><path style="stroke:none;fill-rule:nonzero;fill:#abbbe5;fill-opacity:1" d="m147.156 145.867-21.215-13.629 8.18 31.117"/><path style="fill:none;stroke-width:5;stroke-linecap:round;stroke-linejoin:round;stroke:#000;stroke-opacity:1;stroke-miterlimit:10" d="m1476.761 536.854-212.898 136.77 82.086-312.27Zm0 0" transform="matrix(.09965 0 0 -.09965 0 199.364)"/><path style="stroke:none;fill-rule:nonzero;fill:#f2f4b4;fill-opacity:1" d="m53.414 134.781-14.203-24.129 16.656 43.13"/><path style="fill:none;stroke-width:5;stroke-linecap:round;stroke-linejoin:round;stroke:#000;stroke-opacity:1;stroke-miterlimit:10" d="M536.028 648.105 393.495 890.247l167.15-432.813Zm0 0" transform="matrix(.09965 0 0 -.09965 0 199.364)"/><path style="stroke:none;fill-rule:nonzero;fill:#642a72;fill-opacity:1" d="m133.523 56.547 13.782-23.024-35.38-18.16"/><path style="fill:none;stroke-width:5;stroke-linecap:round;stroke-linejoin:round;stroke:#000;stroke-opacity:1;stroke-miterlimit:10" d="m1339.952 1433.213 138.299 231.048-355.039 182.243Zm0 0" transform="matrix(.09965 0 0 -.09965 0 199.364)"/><path style="stroke:none;fill-rule:nonzero;fill:#943a55;fill-opacity:1" d="m157.04 49.89-9.735-16.367-13.782 23.024"/><path style="fill:none;stroke-width:5;stroke-linecap:round;stroke-linejoin:round;stroke:#000;stroke-opacity:1;stroke-miterlimit:10" d="m1575.939 1500.01-97.688 164.25-138.3-231.047Zm0 0" transform="matrix(.09965 0 0 -.09965 0 199.364)"/><path style="stroke:none;fill-rule:nonzero;fill:#8970b0;fill-opacity:1" d="m157.04 49.89-23.517 6.657 35.52 19.484"/><path style="fill:none;stroke-width:5;stroke-linecap:round;stroke-linejoin:round;stroke:#000;stroke-opacity:1;stroke-miterlimit:10" d="m1575.939 1500.01-235.987-66.797 356.45-195.532Zm0 0" transform="matrix(.09965 0 0 -.09965 0 199.364)"/><path style="stroke:none;fill-rule:nonzero;fill:#b1f6f0;fill-opacity:1" d="m55.867 153.781 33.297 24.25 7.844-8.832"/><path style="fill:none;stroke-width:5;stroke-linecap:round;stroke-linejoin:round;stroke:#000;stroke-opacity:1;stroke-miterlimit:10" d="M560.646 457.434 894.79 214.077l78.714 88.633Zm0 0" transform="matrix(.09965 0 0 -.09965 0 199.364)"/><path style="stroke:none;fill-rule:nonzero;fill:#229ceb;fill-opacity:1" d="m89.164 178.031 44.957-14.676-37.113 5.844"/><path style="fill:none;stroke-width:5;stroke-linecap:round;stroke-linejoin:round;stroke:#000;stroke-opacity:1;stroke-miterlimit:10" d="m894.79 214.077 451.16 147.277-372.445-58.644Zm0 0" transform="matrix(.09965 0 0 -.09965 0 199.364)"/><path style="stroke:none;fill-rule:nonzero;fill:#d86300;fill-opacity:1" d="m61.992 40.602 5.586-14.614L43.45 63.094"/><path style="fill:none;stroke-width:5;stroke-linecap:round;stroke-linejoin:round;stroke:#000;stroke-opacity:1;stroke-miterlimit:10" d="m622.112 1593.23 56.057 146.649-242.142-372.366Zm0 0" transform="matrix(.09965 0 0 -.09965 0 199.364)"/><path style="stroke:none;fill-rule:nonzero;fill:#ecb89b;fill-opacity:1" d="M39.21 110.652 16.626 87.63l-4.285 49.848"/><path style="fill:none;stroke-width:5;stroke-linecap:round;stroke-linejoin:round;stroke:#000;stroke-opacity:1;stroke-miterlimit:10" d="m393.495 890.247-226.658 231.048-43.003-500.238Zm0 0" transform="matrix(.09965 0 0 -.09965 0 199.364)"/><path style="stroke:none;fill-rule:nonzero;fill:#d0c3cc;fill-opacity:1" d="m55.867 153.781-16.656-43.129-26.871 26.825"/><path style="fill:none;stroke-width:5;stroke-linecap:round;stroke-linejoin:round;stroke:#000;stroke-opacity:1;stroke-miterlimit:10" d="M560.646 457.434 393.495 890.247l-269.66-269.19Zm0 0" transform="matrix(.09965 0 0 -.09965 0 199.364)"/><path style="stroke:none;fill-rule:nonzero;fill:#f2f4b4;fill-opacity:1" d="m24.645 85.898-8.02 1.73 22.586 23.024"/><path style="fill:none;stroke-width:5;stroke-linecap:round;stroke-linejoin:round;stroke:#000;stroke-opacity:1;stroke-miterlimit:10" d="m247.316 1138.66-80.479-17.365 226.658-231.048Zm0 0" transform="matrix(.09965 0 0 -.09965 0 199.364)"/><path style="stroke:none;fill-rule:nonzero;fill:#c79dad;fill-opacity:1" d="m24.645 85.898 14.566 24.754 4.238-47.558"/><path style="fill:none;stroke-width:5;stroke-linecap:round;stroke-linejoin:round;stroke:#000;stroke-opacity:1;stroke-miterlimit:10" d="m247.316 1138.66 146.179-248.413 42.532 477.266Zm0 0" transform="matrix(.09965 0 0 -.09965 0 199.364)"/><path style="stroke:none;fill-rule:nonzero;fill:#c97d7b;fill-opacity:1" d="m43.45 63.094 24.128-37.106L20.965 37.16"/><path style="fill:none;stroke-width:5;stroke-linecap:round;stroke-linejoin:round;stroke:#000;stroke-opacity:1;stroke-miterlimit:10" d="m436.027 1367.513 242.142 372.366-467.78-112.114Zm0 0" transform="matrix(.09965 0 0 -.09965 0 199.364)"/><path style="stroke:none;fill-rule:nonzero;fill:#ecb89b;fill-opacity:1" d="m16.625 87.629 26.824-24.535L20.965 37.16"/><path style="fill:none;stroke-width:5;stroke-linecap:round;stroke-linejoin:round;stroke:#000;stroke-opacity:1;stroke-miterlimit:10" d="m166.837 1121.295 269.19 246.218-225.638 260.252Zm0 0" transform="matrix(.09965 0 0 -.09965 0 199.364)"/><path style="stroke:none;fill-rule:nonzero;fill:#d86300;fill-opacity:1" d="m24.645 85.898 18.804-22.804-26.824 24.535"/><path style="fill:none;stroke-width:5;stroke-linecap:round;stroke-linejoin:round;stroke:#000;stroke-opacity:1;stroke-miterlimit:10" d="m247.316 1138.66 188.711 228.853-269.19-246.218Zm0 0" transform="matrix(.09965 0 0 -.09965 0 199.364)"/><path style="stroke:none;fill-rule:nonzero;fill:#00007c;fill-opacity:1" d="m147.156 145.867-13.035 17.488 29.813-38.558"/><path style="fill:none;stroke-width:5;stroke-linecap:round;stroke-linejoin:round;stroke:#000;stroke-opacity:1;stroke-miterlimit:10" d="m1476.761 536.854-130.812-175.5 299.178 386.948Zm0 0" transform="matrix(.09965 0 0 -.09965 0 199.364)"/><path style="stroke:none;fill-rule:nonzero;fill:#5f0000;fill-opacity:1" d="M105.02 13.05 67.578 25.989l44.348-10.625"/><path style="fill:none;stroke-width:5;stroke-linecap:round;stroke-linejoin:round;stroke:#000;stroke-opacity:1;stroke-miterlimit:10" d="M1053.905 1869.71 678.17 1739.88l445.043 106.625Zm0 0" transform="matrix(.09965 0 0 -.09965 0 199.364)"/><path style="stroke:none;fill-rule:nonzero;fill:#5ccfae;fill-opacity:1" d="M147.305 33.523 105.02 13.051l6.906 2.312"/><path style="fill:none;stroke-width:5;stroke-linecap:round;stroke-linejoin:round;stroke:#000;stroke-opacity:1;stroke-miterlimit:10" d="m1478.25 1664.26-424.345 205.45 69.307-23.206Zm0 0" transform="matrix(.09965 0 0 -.09965 0 199.364)"/><path style="stroke:none;fill-rule:nonzero;fill:#c7e176;fill-opacity:1" d="m157.04 49.89 12.003 26.141-21.738-42.508"/><path style="fill:none;stroke-width:5;stroke-linecap:round;stroke-linejoin:round;stroke:#000;stroke-opacity:1;stroke-miterlimit:10" d="m1575.939 1500.01 120.463-262.33-218.151 426.58Zm0 0" transform="matrix(.09965 0 0 -.09965 0 199.364)"/><path style="stroke:none;fill-rule:nonzero;fill:#b1f6f0;fill-opacity:1" d="m44.727 161.738 11.14-7.957-43.527-16.304"/><path style="fill:none;stroke-width:5;stroke-linecap:round;stroke-linejoin:round;stroke:#000;stroke-opacity:1;stroke-miterlimit:10" d="m448.846 377.583 111.8 79.851-436.812 163.623Zm0 0" transform="matrix(.09965 0 0 -.09965 0 199.364)"/><path style="stroke:none;fill-rule:nonzero;fill:#f2f4b4;fill-opacity:1" d="m58.496 174.148-2.629-20.367-11.14 7.957"/><path style="fill:none;stroke-width:5;stroke-linecap:round;stroke-linejoin:round;stroke:#000;stroke-opacity:1;stroke-miterlimit:10" d="m587.028 253.043-26.382 204.391-111.8-79.851Zm0 0" transform="matrix(.09965 0 0 -.09965 0 199.364)"/><path style="stroke:none;fill-rule:nonzero;fill:#abbbe5;fill-opacity:1" d="m58.496 174.148 30.668 3.883-33.297-24.25"/><path style="fill:none;stroke-width:5;stroke-linecap:round;stroke-linejoin:round;stroke:#000;stroke-opacity:1;stroke-miterlimit:10" d="m587.028 253.043 307.763-38.966-334.145 243.357Zm0 0" transform="matrix(.09965 0 0 -.09965 0 199.364)"/><path style="stroke:none;fill-rule:nonzero;fill:#8970b0;fill-opacity:1" d="M181.375 102.883 169.043 76.03l-5.11 48.766"/><path style="fill:none;stroke-width:5;stroke-linecap:round;stroke-linejoin:round;stroke:#000;stroke-opacity:1;stroke-miterlimit:10" d="m1820.158 968.217-123.756 269.464-51.275-489.38Zm0 0" transform="matrix(.09965 0 0 -.09965 0 199.364)"/><path style="stroke:none;fill-rule:nonzero;fill:#7a89d6;fill-opacity:1" d="m163.934 124.797-29.813 38.558 40.652-6.402"/><path style="fill:none;stroke-width:5;stroke-linecap:round;stroke-linejoin:round;stroke:#000;stroke-opacity:1;stroke-miterlimit:10" d="M1645.127 748.302 1345.95 361.354l407.96 64.25Zm0 0" transform="matrix(.09965 0 0 -.09965 0 199.364)"/><path style="stroke:none;fill-rule:nonzero;fill:#101590;fill-opacity:1" d="m180.262 105.457-16.328 19.34 10.84 32.156"/><path style="fill:none;stroke-width:5;stroke-linecap:round;stroke-linejoin:round;stroke:#000;stroke-opacity:1;stroke-miterlimit:10" d="m1808.986 942.384-163.859-194.082 108.782-322.699Zm0 0" transform="matrix(.09965 0 0 -.09965 0 199.364)"/><path style="stroke:none;fill-rule:nonzero;fill:#00007c;fill-opacity:1" d="m181.375 102.883-17.441 21.914 16.328-19.34"/><path style="fill:none;stroke-width:5;stroke-linecap:round;stroke-linejoin:round;stroke:#000;stroke-opacity:1;stroke-miterlimit:10" d="m1820.158 968.217-175.03-219.915 163.858 194.082Zm0 0" transform="matrix(.09965 0 0 -.09965 0 199.364)"/><path style="stroke:none;fill-rule:nonzero;fill:#c7e176;fill-opacity:1" d="m181.375 102.883-1.113 2.574-11.219-29.426"/><path style="fill:none;stroke-width:5;stroke-linecap:round;stroke-linejoin:round;stroke:#000;stroke-opacity:1;stroke-miterlimit:10" d="m1820.158 968.217-11.172-25.833-112.584 295.297Zm0 0" transform="matrix(.09965 0 0 -.09965 0 199.364)"/><path style="stroke:none;fill-rule:nonzero;fill:#101590;fill-opacity:1" d="m169.043 76.031 11.219 29.426 5.558-52.164"/><path style="fill:none;stroke-width:5;stroke-linecap:round;stroke-linejoin:round;stroke:#000;stroke-opacity:1;stroke-miterlimit:10" d="m1696.402 1237.68 112.584-295.296 55.782 523.483Zm0 0" transform="matrix(.09965 0 0 -.09965 0 199.364)"/><path style="stroke:none;fill-rule:nonzero;fill:#642a72;fill-opacity:1" d="m147.305 33.523 21.738 42.508 16.777-22.738"/><path style="fill:none;stroke-width:5;stroke-linecap:round;stroke-linejoin:round;stroke:#000;stroke-opacity:1;stroke-miterlimit:10" d="m1478.25 1664.26 218.152-426.58 168.366 228.187Zm0 0" transform="matrix(.09965 0 0 -.09965 0 199.364)"/><path style="stroke:none;fill-rule:nonzero;fill:#5f0000;fill-opacity:1" d="m67.578 25.988-10.45-1.57L20.966 37.16"/><path style="fill:none;stroke-width:5;stroke-linecap:round;stroke-linejoin:round;stroke:#000;stroke-opacity:1;stroke-miterlimit:10" d="m678.169 1739.879-104.862 15.758-362.918-127.872Zm0 0" transform="matrix(.09965 0 0 -.09965 0 199.364)"/><path style="stroke:none;fill-rule:nonzero;fill:#d86300;fill-opacity:1" d="M73.61 10.191 57.128 24.418l10.45 1.57"/><path style="fill:none;stroke-width:5;stroke-linecap:round;stroke-linejoin:round;stroke:#000;stroke-opacity:1;stroke-miterlimit:10" d="m738.694 1898.405-165.387-142.768 104.862-15.758Zm0 0" transform="matrix(.09965 0 0 -.09965 0 199.364)"/><path style="stroke:none;fill-rule:nonzero;fill:#943a55;fill-opacity:1" d="m73.61 10.191-6.032 15.797 37.442-12.937"/><path style="fill:none;stroke-width:5;stroke-linecap:round;stroke-linejoin:round;stroke:#000;stroke-opacity:1;stroke-miterlimit:10" d="M738.694 1898.405 678.17 1739.88l375.736 129.832Zm0 0" transform="matrix(.09965 0 0 -.09965 0 199.364)"/><path style="stroke:none;fill-rule:nonzero;fill:#229ceb;fill-opacity:1" d="m134.121 163.355-5.418 8.825 46.07-15.227"/><path style="fill:none;stroke-width:5;stroke-linecap:round;stroke-linejoin:round;stroke:#000;stroke-opacity:1;stroke-miterlimit:10" d="m1345.95 361.354-54.372-88.554 462.33 152.803Zm0 0" transform="matrix(.09965 0 0 -.09965 0 199.364)"/><path style="stroke:none;fill-rule:nonzero;fill:#00007c;fill-opacity:1" d="m120.246 181.969 8.457-9.79 5.418-8.824"/><path style="fill:none;stroke-width:5;stroke-linecap:round;stroke-linejoin:round;stroke:#000;stroke-opacity:1;stroke-miterlimit:10" d="m1206.709 174.563 84.87 98.237 54.37 88.554Zm0 0" transform="matrix(.09965 0 0 -.09965 0 199.364)"/><path style="stroke:none;fill-rule:nonzero;fill:#abbbe5;fill-opacity:1" d="m120.246 181.969 13.875-18.614-44.957 14.676"/><path style="fill:none;stroke-width:5;stroke-linecap:round;stroke-linejoin:round;stroke:#000;stroke-opacity:1;stroke-miterlimit:10" d="m1206.709 174.563 139.24 186.79-451.158-147.276Zm0 0" transform="matrix(.09965 0 0 -.09965 0 199.364)"/><path style="stroke:none;fill-rule:nonzero;fill:#310045;fill-opacity:1" d="m18.715 118.516 26.012 43.222-32.387-24.261"/><path style="fill:none;stroke-width:5;stroke-linecap:round;stroke-linejoin:round;stroke:#000;stroke-opacity:1;stroke-miterlimit:10" d="m187.81 811.336 261.036-433.753-325.012 243.474Zm0 0" transform="matrix(.09965 0 0 -.09965 0 199.364)"/><path style="stroke:none;fill-rule:nonzero;fill:#00004a;fill-opacity:1" d="m16.625 87.629 2.09 30.887-6.375 18.96"/><path style="fill:none;stroke-width:5;stroke-linecap:round;stroke-linejoin:round;stroke:#000;stroke-opacity:1;stroke-miterlimit:10" d="m166.837 1121.295 20.973-309.959-63.976-190.279Zm0 0" transform="matrix(.09965 0 0 -.09965 0 199.364)"/><path style="stroke:none;fill-rule:nonzero;fill:#5ccfae;fill-opacity:1" d="m142.805 32.504 4.5 1.02 38.515 19.769"/><path style="fill:none;stroke-width:5;stroke-linecap:round;stroke-linejoin:round;stroke:#000;stroke-opacity:1;stroke-miterlimit:10" d="m1433.092 1674.492 45.159-10.231 386.517-198.394Zm0 0" transform="matrix(.09965 0 0 -.09965 0 199.364)"/><path style="stroke:none;fill-rule:nonzero;fill:#943a55;fill-opacity:1" d="m136.855 15.945-31.835-2.894 42.285 20.472"/><path style="fill:none;stroke-width:5;stroke-linecap:round;stroke-linejoin:round;stroke:#000;stroke-opacity:1;stroke-miterlimit:10" d="m1373.39 1840.663-319.485 29.048 424.346-205.45Zm0 0" transform="matrix(.09965 0 0 -.09965 0 199.364)"/><path style="stroke:none;fill-rule:nonzero;fill:#c7e176;fill-opacity:1" d="m136.855 15.945 10.45 17.578-4.5-1.02"/><path style="fill:none;stroke-width:5;stroke-linecap:round;stroke-linejoin:round;stroke:#000;stroke-opacity:1;stroke-miterlimit:10" d="m1373.39 1840.663 104.86-176.402-45.158 10.231Zm0 0" transform="matrix(.09965 0 0 -.09965 0 199.364)"/><path style="stroke:none;fill-rule:nonzero;fill:#00004a;fill-opacity:1" d="M23.34 65.113 16.625 87.63l4.34-50.469"/><path style="fill:none;stroke-width:5;stroke-linecap:round;stroke-linejoin:round;stroke:#000;stroke-opacity:1;stroke-miterlimit:10" d="m234.223 1347.246-67.386-225.951 43.552 506.47Zm0 0" transform="matrix(.09965 0 0 -.09965 0 199.364)"/><path style="stroke:none;fill-rule:nonzero;fill:#d86300;fill-opacity:1" d="m7.863 89.523 8.762-1.894 6.715-22.516"/><path style="fill:none;stroke-width:5;stroke-linecap:round;stroke-linejoin:round;stroke:#000;stroke-opacity:1;stroke-miterlimit:10" d="m78.91 1102.282 87.927 19.013 67.386 225.951Zm0 0" transform="matrix(.09965 0 0 -.09965 0 199.364)"/><path style="stroke:none;fill-rule:nonzero;fill:#f2f4b4;fill-opacity:1" d="m7.863 89.523 10.852 28.993-2.09-30.887"/><path style="fill:none;stroke-width:5;stroke-linecap:round;stroke-linejoin:round;stroke:#000;stroke-opacity:1;stroke-miterlimit:10" d="m78.91 1102.282 108.9-290.946-20.973 309.959Zm0 0" transform="matrix(.09965 0 0 -.09965 0 199.364)"/><path style="stroke:none;fill-rule:nonzero;fill:#7b0c23;fill-opacity:1" d="m58.496 174.148-13.77-12.41 44.438 16.293"/><path style="fill:none;stroke-width:5;stroke-linecap:round;stroke-linejoin:round;stroke:#000;stroke-opacity:1;stroke-miterlimit:10" d="m587.028 253.043-138.182 124.54L894.79 214.077Zm0 0" transform="matrix(.09965 0 0 -.09965 0 199.364)"/><path style="stroke:none;fill-rule:nonzero;fill:#5a7edc;fill-opacity:1" d="m57.129 24.418-33.79 40.695-2.374-27.953"/><path style="fill:none;stroke-width:5;stroke-linecap:round;stroke-linejoin:round;stroke:#000;stroke-opacity:1;stroke-miterlimit:10" d="m573.307 1755.637-339.084-408.39-23.834 280.518Zm0 0" transform="matrix(.09965 0 0 -.09965 0 199.364)"/><path style="stroke:none;fill-rule:nonzero;fill:#b1f6f0;fill-opacity:1" d="m89.164 178.031-44.437-16.293 35.375 26.504"/><path style="fill:none;stroke-width:5;stroke-linecap:round;stroke-linejoin:round;stroke:#000;stroke-opacity:1;stroke-miterlimit:10" d="M894.79 214.077 448.847 377.583l355-265.976Zm0 0" transform="matrix(.09965 0 0 -.09965 0 199.364)"/><path style="stroke:none;fill-rule:nonzero;fill:#7b0c23;fill-opacity:1" d="m120.246 181.969-31.082-3.938 39.54-5.851"/><path style="fill:none;stroke-width:5;stroke-linecap:round;stroke-linejoin:round;stroke:#000;stroke-opacity:1;stroke-miterlimit:10" d="m1206.709 174.563-311.918 39.514 396.787 58.723Zm0 0" transform="matrix(.09965 0 0 -.09965 0 199.364)"/><path style="stroke:none;fill-rule:nonzero;fill:#229ceb;fill-opacity:1" d="m128.703 172.18-39.539 5.851-9.062 10.211"/><path style="fill:none;stroke-width:5;stroke-linecap:round;stroke-linejoin:round;stroke:#000;stroke-opacity:1;stroke-miterlimit:10" d="m1291.578 272.8-396.787-58.723-90.946-102.47Zm0 0" transform="matrix(.09965 0 0 -.09965 0 199.364)"/><path style="stroke:none;fill-rule:nonzero;fill:#a2c5f1;fill-opacity:1" d="m73.61 10.191 31.41 2.86-47.891 11.367"/><path style="fill:none;stroke-width:5;stroke-linecap:round;stroke-linejoin:round;stroke:#000;stroke-opacity:1;stroke-miterlimit:10" d="m738.694 1898.405 315.211-28.694-480.598-114.074Zm0 0" transform="matrix(.09965 0 0 -.09965 0 199.364)"/><path style="stroke:none;fill-rule:nonzero;fill:#5f0000;fill-opacity:1" d="m57.129 24.418 47.89-11.367-8.011-2.684"/><path style="fill:none;stroke-width:5;stroke-linecap:round;stroke-linejoin:round;stroke:#000;stroke-opacity:1;stroke-miterlimit:10" d="m573.307 1755.637 480.598 114.074-80.4 26.93Zm0 0" transform="matrix(.09965 0 0 -.09965 0 199.364)"/><path style="stroke:none;fill-rule:nonzero;fill:#5ccfae;fill-opacity:1" d="m105.02 13.05 37.785 19.454-45.797-22.137"/><path style="fill:none;stroke-width:5;stroke-linecap:round;stroke-linejoin:round;stroke:#000;stroke-opacity:1;stroke-miterlimit:10" d="m1053.905 1869.71 379.187-195.218-459.587 222.15Zm0 0" transform="matrix(.09965 0 0 -.09965 0 199.364)"/><path style="stroke:none;fill-rule:nonzero;fill:#a2c5f1;fill-opacity:1" d="m136.855 15.945 5.95 16.559L105.02 13.05"/><path style="fill:none;stroke-width:5;stroke-linecap:round;stroke-linejoin:round;stroke:#000;stroke-opacity:1;stroke-miterlimit:10" d="m1373.39 1840.663 59.702-166.17-379.187 195.218Zm0 0" transform="matrix(.09965 0 0 -.09965 0 199.364)"/><path style="stroke:none;fill-rule:nonzero;fill:#cc7161;fill-opacity:1" d="m128.703 172.18 29.93-37.489 16.14 22.262"/><path style="fill:none;stroke-width:5;stroke-linecap:round;stroke-linejoin:round;stroke:#000;stroke-opacity:1;stroke-miterlimit:10" d="m1291.578 272.8 300.354 376.207 161.977-223.404Zm0 0" transform="matrix(.09965 0 0 -.09965 0 199.364)"/><path style="stroke:none;fill-rule:nonzero;fill:#fac086;fill-opacity:1" d="m158.633 134.691 21.629-29.234-5.489 51.496"/><path style="fill:none;stroke-width:5;stroke-linecap:round;stroke-linejoin:round;stroke:#000;stroke-opacity:1;stroke-miterlimit:10" d="m1591.932 649.007 217.054 293.377-55.077-516.78Zm0 0" transform="matrix(.09965 0 0 -.09965 0 199.364)"/><path style="stroke:none;fill-rule:nonzero;fill:#fac086;fill-opacity:1" d="m180.262 105.457-15.903-25.691 21.461-26.473"/><path style="fill:none;stroke-width:5;stroke-linecap:round;stroke-linejoin:round;stroke:#000;stroke-opacity:1;stroke-miterlimit:10" d="M1808.986 942.384 1649.4 1200.205l215.368 265.662Zm0 0" transform="matrix(.09965 0 0 -.09965 0 199.364)"/><path style="stroke:none;fill-rule:nonzero;fill:#00007c;fill-opacity:1" d="m179.035 108.277 1.227-2.82-21.63 29.234"/><path style="fill:none;stroke-width:5;stroke-linecap:round;stroke-linejoin:round;stroke:#000;stroke-opacity:1;stroke-miterlimit:10" d="m1796.677 914.08 12.309 28.304-217.054-293.377Zm0 0" transform="matrix(.09965 0 0 -.09965 0 199.364)"/><path style="stroke:none;fill-rule:nonzero;fill:#c7e176;fill-opacity:1" d="M179.035 108.277 164.36 79.766l15.903 25.691"/><path style="fill:none;stroke-width:5;stroke-linecap:round;stroke-linejoin:round;stroke:#000;stroke-opacity:1;stroke-miterlimit:10" d="M1796.677 914.08 1649.4 1200.206l159.586-257.821Zm0 0" transform="matrix(.09965 0 0 -.09965 0 199.364)"/><path style="stroke:none;fill-rule:nonzero;fill:#f2f4b4;fill-opacity:1" d="m29.895 148.375 14.832 13.363-26.012-43.222"/><path style="fill:none;stroke-width:5;stroke-linecap:round;stroke-linejoin:round;stroke:#000;stroke-opacity:1;stroke-miterlimit:10" d="m300.001 511.688 148.845-134.105L187.81 811.336Zm0 0" transform="matrix(.09965 0 0 -.09965 0 199.364)"/><path style="stroke:none;fill-rule:nonzero;fill:#310045;fill-opacity:1" d="m44.727 161.738 8.996-18.113 26.379 44.617"/><path style="fill:none;stroke-width:5;stroke-linecap:round;stroke-linejoin:round;stroke:#000;stroke-opacity:1;stroke-miterlimit:10" d="m448.846 377.583 90.279 181.772 264.72-447.748Zm0 0" transform="matrix(.09965 0 0 -.09965 0 199.364)"/><path style="stroke:none;fill-rule:nonzero;fill:#7b0c23;fill-opacity:1" d="m29.895 148.375 23.828-4.75-8.996 18.113"/><path style="fill:none;stroke-width:5;stroke-linecap:round;stroke-linejoin:round;stroke:#000;stroke-opacity:1;stroke-miterlimit:10" d="m300.001 511.688 239.124 47.667-90.28-181.772Zm0 0" transform="matrix(.09965 0 0 -.09965 0 199.364)"/><path style="stroke:none;fill-rule:nonzero;fill:#d7d0d2;fill-opacity:1" d="m164.36 79.766-21.555-47.262 43.015 20.789"/><path style="fill:none;stroke-width:5;stroke-linecap:round;stroke-linejoin:round;stroke:#000;stroke-opacity:1;stroke-miterlimit:10" d="m1649.4 1200.205-216.308 474.287 431.676-208.625Zm0 0" transform="matrix(.09965 0 0 -.09965 0 199.364)"/><path style="stroke:none;fill-rule:nonzero;fill:#7b64ad;fill-opacity:1" d="m7.863 89.523 15.477-24.41-4.625 53.403"/><path style="fill:none;stroke-width:5;stroke-linecap:round;stroke-linejoin:round;stroke:#000;stroke-opacity:1;stroke-miterlimit:10" d="m78.91 1102.282 155.313 244.964-46.413-535.91Zm0 0" transform="matrix(.09965 0 0 -.09965 0 199.364)"/><path style="stroke:none;fill-rule:nonzero;fill:#d86300;fill-opacity:1" d="M39.496 39.637 23.34 65.113l33.789-40.695"/><path style="fill:none;stroke-width:5;stroke-linecap:round;stroke-linejoin:round;stroke:#000;stroke-opacity:1;stroke-miterlimit:10" d="m396.356 1602.912-162.133-255.666 339.084 408.391Zm0 0" transform="matrix(.09965 0 0 -.09965 0 199.364)"/><path style="stroke:none;fill-rule:nonzero;fill:#5a7edc;fill-opacity:1" d="M61.992 53 57.13 24.418l39.879-14.05"/><path style="fill:none;stroke-width:5;stroke-linecap:round;stroke-linejoin:round;stroke:#000;stroke-opacity:1;stroke-miterlimit:10" d="m622.112 1468.807-48.805 286.83 400.198 141.004Zm0 0" transform="matrix(.09965 0 0 -.09965 0 199.364)"/><path style="stroke:none;fill-rule:nonzero;fill:#a2c5f1;fill-opacity:1" d="M39.496 39.637 57.13 24.418 61.992 53"/><path style="fill:none;stroke-width:5;stroke-linecap:round;stroke-linejoin:round;stroke:#000;stroke-opacity:1;stroke-miterlimit:10" d="m396.356 1602.912 176.951 152.725 48.805-286.83Zm0 0" transform="matrix(.09965 0 0 -.09965 0 199.364)"/><path style="stroke:none;fill-rule:nonzero;fill:#00007c;fill-opacity:1" d="m137.902 161.531 20.73-26.84-29.929 37.489"/><path style="fill:none;stroke-width:5;stroke-linecap:round;stroke-linejoin:round;stroke:#000;stroke-opacity:1;stroke-miterlimit:10" d="m1383.895 379.66 208.037 269.347L1291.578 272.8Zm0 0" transform="matrix(.09965 0 0 -.09965 0 199.364)"/><path style="stroke:none;fill-rule:nonzero;fill:#cc7161;fill-opacity:1" d="m109.11 150.277 19.593 21.903-48.601 16.062"/><path style="fill:none;stroke-width:5;stroke-linecap:round;stroke-linejoin:round;stroke:#000;stroke-opacity:1;stroke-miterlimit:10" d="m1094.948 492.597 196.63-219.797-487.733-161.193Zm0 0" transform="matrix(.09965 0 0 -.09965 0 199.364)"/><path style="stroke:none;fill-rule:nonzero;fill:#7b0c23;fill-opacity:1" d="m137.902 161.531-9.199 10.649-19.594-21.903"/><path style="fill:none;stroke-width:5;stroke-linecap:round;stroke-linejoin:round;stroke:#000;stroke-opacity:1;stroke-miterlimit:10" d="m1383.895 379.66-92.317-106.86-196.63 219.797Zm0 0" transform="matrix(.09965 0 0 -.09965 0 199.364)"/><path style="stroke:none;fill-rule:nonzero;fill:#00004a;fill-opacity:1" d="m18.715 118.516 4.625-53.403 2.691 31.664"/><path style="fill:none;stroke-width:5;stroke-linecap:round;stroke-linejoin:round;stroke:#000;stroke-opacity:1;stroke-miterlimit:10" d="m187.81 811.336 46.413 535.91 27.01-317.759Zm0 0" transform="matrix(.09965 0 0 -.09965 0 199.364)"/><path style="stroke:none;fill-rule:nonzero;fill:#310045;fill-opacity:1" d="m53.723 143.625-35.008-25.11 7.316-21.738"/><path style="fill:none;stroke-width:5;stroke-linecap:round;stroke-linejoin:round;stroke:#000;stroke-opacity:1;stroke-miterlimit:10" d="M539.125 559.355 187.81 811.336l73.422 218.151Zm0 0" transform="matrix(.09965 0 0 -.09965 0 199.364)"/><path style="stroke:none;fill-rule:nonzero;fill:#7b64ad;fill-opacity:1" d="m29.895 148.375-11.18-29.86 35.008 25.11"/><path style="fill:none;stroke-width:5;stroke-linecap:round;stroke-linejoin:round;stroke:#000;stroke-opacity:1;stroke-miterlimit:10" d="M300.001 511.688 187.81 811.336l351.315-251.98Zm0 0" transform="matrix(.09965 0 0 -.09965 0 199.364)"/><path style="stroke:none;fill-rule:nonzero;fill:#5a7edc;fill-opacity:1" d="M23.34 65.113 61.992 53l-35.96 43.777"/><path style="fill:none;stroke-width:5;stroke-linecap:round;stroke-linejoin:round;stroke:#000;stroke-opacity:1;stroke-miterlimit:10" d="m234.223 1347.246 387.889 121.561-360.88-439.32Zm0 0" transform="matrix(.09965 0 0 -.09965 0 199.364)"/><path style="stroke:none;fill-rule:nonzero;fill:#7b64ad;fill-opacity:1" d="M39.496 39.637 61.992 53 23.34 65.113"/><path style="fill:none;stroke-width:5;stroke-linecap:round;stroke-linejoin:round;stroke:#000;stroke-opacity:1;stroke-miterlimit:10" d="m396.356 1602.912 225.756-134.105-387.889-121.56Zm0 0" transform="matrix(.09965 0 0 -.09965 0 199.364)"/><path style="stroke:none;fill-rule:nonzero;fill:#c7e176;fill-opacity:1" d="m149.238 50.39-6.433-17.886 21.554 47.262"/><path style="fill:none;stroke-width:5;stroke-linecap:round;stroke-linejoin:round;stroke:#000;stroke-opacity:1;stroke-miterlimit:10" d="m1497.655 1494.993-64.563 179.5 216.308-474.288Zm0 0" transform="matrix(.09965 0 0 -.09965 0 199.364)"/><path style="stroke:none;fill-rule:nonzero;fill:#d7d0d2;fill-opacity:1" d="m142.805 32.504-24.696 26.129-21.101-48.266"/><path style="fill:none;stroke-width:5;stroke-linecap:round;stroke-linejoin:round;stroke:#000;stroke-opacity:1;stroke-miterlimit:10" d="m1433.092 1674.492-247.826-262.212-211.76 484.361Zm0 0" transform="matrix(.09965 0 0 -.09965 0 199.364)"/><path style="stroke:none;fill-rule:nonzero;fill:#a2c5f1;fill-opacity:1" d="m149.238 50.39-31.129 8.243 24.696-26.13"/><path style="fill:none;stroke-width:5;stroke-linecap:round;stroke-linejoin:round;stroke:#000;stroke-opacity:1;stroke-miterlimit:10" d="m1497.655 1494.993-312.389-82.713 247.826 262.212Zm0 0" transform="matrix(.09965 0 0 -.09965 0 199.364)"/><path style="stroke:none;fill-rule:nonzero;fill:#cca0ab;fill-opacity:1" d="m179.035 108.277-20.402 26.414 5.726-54.925"/><path style="fill:none;stroke-width:5;stroke-linecap:round;stroke-linejoin:round;stroke:#000;stroke-opacity:1;stroke-miterlimit:10" d="m1796.677 914.08-204.745-265.073 57.468 551.198Zm0 0" transform="matrix(.09965 0 0 -.09965 0 199.364)"/><path style="stroke:none;fill-rule:nonzero;fill:#a67095;fill-opacity:1" d="m53.723 143.625 55.386 6.652-29.007 37.965"/><path style="fill:none;stroke-width:5;stroke-linecap:round;stroke-linejoin:round;stroke:#000;stroke-opacity:1;stroke-miterlimit:10" d="m539.125 559.355 555.823-66.758-291.103-380.99Zm0 0" transform="matrix(.09965 0 0 -.09965 0 199.364)"/><path style="stroke:none;fill-rule:nonzero;fill:#cc7161;fill-opacity:1" d="m158.633 134.691-49.524 15.586 31.207-40.847"/><path style="fill:none;stroke-width:5;stroke-linecap:round;stroke-linejoin:round;stroke:#000;stroke-opacity:1;stroke-miterlimit:10" d="m1591.932 649.007-496.984-156.41 313.173 409.92Zm0 0" transform="matrix(.09965 0 0 -.09965 0 199.364)"/><path style="stroke:none;fill-rule:nonzero;fill:#fac086;fill-opacity:1" d="m164.36 79.766-5.727 54.925-18.317-25.261"/><path style="fill:none;stroke-width:5;stroke-linecap:round;stroke-linejoin:round;stroke:#000;stroke-opacity:1;stroke-miterlimit:10" d="m1649.4 1200.205-57.468-551.198-183.81 253.51Zm0 0" transform="matrix(.09965 0 0 -.09965 0 199.364)"/><path style="stroke:none;fill-rule:nonzero;fill:#cca0ab;fill-opacity:1" d="m137.902 161.531-28.793-11.254 49.524-15.586"/><path style="fill:none;stroke-width:5;stroke-linecap:round;stroke-linejoin:round;stroke:#000;stroke-opacity:1;stroke-miterlimit:10" d="m1383.895 379.66-288.947 112.937 496.984 156.41Zm0 0" transform="matrix(.09965 0 0 -.09965 0 199.364)"/><path style="stroke:none;fill-rule:nonzero;fill:#d7d0d2;fill-opacity:1" d="m118.11 58.633 46.25 21.133-24.044 29.664"/><path style="fill:none;stroke-width:5;stroke-linecap:round;stroke-linejoin:round;stroke:#000;stroke-opacity:1;stroke-miterlimit:10" d="m1185.266 1412.28 464.134-212.075-241.279-297.688Zm0 0" transform="matrix(.09965 0 0 -.09965 0 199.364)"/><path style="stroke:none;fill-rule:nonzero;fill:#cca0ab;fill-opacity:1" d="m149.238 50.39 15.121 29.376-46.25-21.133"/><path style="fill:none;stroke-width:5;stroke-linecap:round;stroke-linejoin:round;stroke:#000;stroke-opacity:1;stroke-miterlimit:10" d="m1497.655 1494.993 151.745-294.788-464.134 212.075Zm0 0" transform="matrix(.09965 0 0 -.09965 0 199.364)"/><path style="stroke:none;fill-rule:nonzero;fill:#ac9bc5;fill-opacity:1" d="M118.11 58.633 61.991 53l35.016-42.633"/><path style="fill:none;stroke-width:5;stroke-linecap:round;stroke-linejoin:round;stroke:#000;stroke-opacity:1;stroke-miterlimit:10" d="m1185.266 1412.28-563.154 56.527 351.393 427.834Zm0 0" transform="matrix(.09965 0 0 -.09965 0 199.364)"/><path style="stroke:none;fill-rule:nonzero;fill:#a67095;fill-opacity:1" d="m82.473 103.023-28.75 40.602L26.03 96.777"/><path style="fill:none;stroke-width:5;stroke-linecap:round;stroke-linejoin:round;stroke:#000;stroke-opacity:1;stroke-miterlimit:10" d="m827.64 966.805-288.515-407.45-277.893 470.132Zm0 0" transform="matrix(.09965 0 0 -.09965 0 199.364)"/><path style="stroke:none;fill-rule:nonzero;fill:#7b64ad;fill-opacity:1" d="m79.117 138.555-25.394 5.07 28.75-40.602"/><path style="fill:none;stroke-width:5;stroke-linecap:round;stroke-linejoin:round;stroke:#000;stroke-opacity:1;stroke-miterlimit:10" d="m793.967 610.238-254.842-50.883 288.515 407.45Zm0 0" transform="matrix(.09965 0 0 -.09965 0 199.364)"/><path style="stroke:none;fill-rule:nonzero;fill:#7b0c23;fill-opacity:1" d="m79.117 138.555 29.992 11.722-55.386-6.652"/><path style="fill:none;stroke-width:5;stroke-linecap:round;stroke-linejoin:round;stroke:#000;stroke-opacity:1;stroke-miterlimit:10" d="m793.967 610.238 300.981-117.641-555.823 66.758Zm0 0" transform="matrix(.09965 0 0 -.09965 0 199.364)"/><path style="stroke:none;fill-rule:nonzero;fill:#ac9bc5;fill-opacity:1" d="m61.992 53 20.48 50.023-56.44-6.246"/><path style="fill:none;stroke-width:5;stroke-linecap:round;stroke-linejoin:round;stroke:#000;stroke-opacity:1;stroke-miterlimit:10" d="M622.112 1468.807 827.64 966.805l-566.408 62.682Zm0 0" transform="matrix(.09965 0 0 -.09965 0 199.364)"/><path style="stroke:none;fill-rule:nonzero;fill:#7b64ad;fill-opacity:1" d="m85.855 67.176-3.382 35.847L61.993 53"/><path style="fill:none;stroke-width:5;stroke-linecap:round;stroke-linejoin:round;stroke:#000;stroke-opacity:1;stroke-miterlimit:10" d="M861.588 1326.548 827.64 966.805l-205.528 502.002Zm0 0" transform="matrix(.09965 0 0 -.09965 0 199.364)"/><path style="stroke:none;fill-rule:nonzero;fill:#a2c5f1;fill-opacity:1" d="M85.855 67.176 61.992 53l56.117 5.633"/><path style="fill:none;stroke-width:5;stroke-linecap:round;stroke-linejoin:round;stroke:#000;stroke-opacity:1;stroke-miterlimit:10" d="m861.588 1326.548-239.476 142.26 563.154-56.528Zm0 0" transform="matrix(.09965 0 0 -.09965 0 199.364)"/><path style="stroke:none;fill-rule:nonzero;fill:#a67095;fill-opacity:1" d="m109.11 150.277-26.637-47.254 57.843 6.407"/><path style="fill:none;stroke-width:5;stroke-linecap:round;stroke-linejoin:round;stroke:#000;stroke-opacity:1;stroke-miterlimit:10" d="M1094.948 492.597 827.64 966.805l580.481-64.288Zm0 0" transform="matrix(.09965 0 0 -.09965 0 199.364)"/><path style="stroke:none;fill-rule:nonzero;fill:#cca0ab;fill-opacity:1" d="m79.117 138.555 3.356-35.532 26.636 47.254"/><path style="fill:none;stroke-width:5;stroke-linecap:round;stroke-linejoin:round;stroke:#000;stroke-opacity:1;stroke-miterlimit:10" d="m793.967 610.238 33.673 356.567 267.308-474.208Zm0 0" transform="matrix(.09965 0 0 -.09965 0 199.364)"/><path style="stroke:none;fill-rule:nonzero;fill:#ac9bc5;fill-opacity:1" d="m82.473 103.023 35.636-44.39 22.207 50.797"/><path style="fill:none;stroke-width:5;stroke-linecap:round;stroke-linejoin:round;stroke:#000;stroke-opacity:1;stroke-miterlimit:10" d="m827.64 966.805 357.626 445.475 222.855-509.763Zm0 0" transform="matrix(.09965 0 0 -.09965 0 199.364)"/><path style="stroke:none;fill-rule:nonzero;fill:#cca0ab;fill-opacity:1" d="m85.855 67.176 32.254-8.543-35.636 44.39"/><path style="fill:none;stroke-width:5;stroke-linecap:round;stroke-linejoin:round;stroke:#000;stroke-opacity:1;stroke-miterlimit:10" d="m861.588 1326.548 323.678 85.732L827.64 966.805Zm0 0" transform="matrix(.09965 0 0 -.09965 0 199.364)"/></svg>