<svg version="1.1" id="Слой_1" xmlns="http://www.w3.org/2000/svg" xmlns:xlink="http://www.w3.org/1999/xlink" x="0" y="0" viewBox="0 0 151.4 250.7" style="enable-background:new 0 0 151.4 250.7" xml:space="preserve"><style>.st0,.st2,.st6{fill:#ebc2a7;stroke:#231f20;stroke-width:.4421;stroke-linecap:round;stroke-linejoin:round;stroke-miterlimit:10}.st2,.st6{fill:#9c87be}.st6{fill:none}.st16{fill:#f2c998}.st30{fill:#9782bd;stroke:#231f20;stroke-width:.4421;stroke-linecap:round;stroke-linejoin:round;stroke-miterlimit:10}</style><g id="surface1"><path class="st0" d="m.5 180.9 56.4-10.8-.1-91.9"/><defs><path id="SVGID_1_" d="M56 75.6h94.7v100.2H56z"/></defs><clipPath id="SVGID_2_"><use xlink:href="#SVGID_1_" style="overflow:visible"/></clipPath><path class="st2" d="m56.9 170.2 93.3 5.3.3-98.7" style="clip-path:url(#SVGID_2_)"/><defs><path id="SVGID_3_" d="M56 75.6h94.7v95H56z"/></defs><clipPath id="SVGID_4_"><use xlink:href="#SVGID_3_" style="overflow:visible"/></clipPath><path class="st2" d="m150.5 76.7-93.7 1.5.1 91.9" style="clip-path:url(#SVGID_4_)"/><path d="M56.9 170.2.5 180.9 78 249.8l-21.1-79.6" style="fill:#d9e8e5"/><defs><path id="SVGID_5_" d="M0 169.3h79v80.8H0z"/></defs><clipPath id="SVGID_6_"><use xlink:href="#SVGID_5_" style="overflow:visible"/></clipPath><path class="st6" d="M56.9 170.2.5 180.9 78 249.8l-21.1-79.6z" style="clip-path:url(#SVGID_6_)"/><defs><path id="SVGID_7_" d="M56 169.3h94.7V250H56z"/></defs><clipPath id="SVGID_8_"><use xlink:href="#SVGID_7_" style="overflow:visible"/></clipPath><g style="clip-path:url(#SVGID_8_)"><path d="M150.3 175.4 57 170.1l21 79.7 72.3-74.4" style="fill:#97a9db"/></g><defs><path id="SVGID_9_" d="M56 169.3h94.7v80.8H56z"/></defs><clipPath id="SVGID_10_"><use xlink:href="#SVGID_9_" style="overflow:visible"/></clipPath><path class="st6" d="M150.3 175.4 57 170.1l21 79.7 72.3-74.4z" style="clip-path:url(#SVGID_10_)"/><path class="st0" d="M56.8 78.3.2 75.1l.3 105.8"/><defs><path id="SVGID_11_" d="M0 3h78v76.5H0z"/></defs><clipPath id="SVGID_12_"><use xlink:href="#SVGID_11_" style="overflow:visible"/></clipPath><g style="clip-path:url(#SVGID_12_)"><path d="M56.8 78.3.2 75.1 78 3.3l-21.2 75" style="fill:#d67a57"/></g><defs><path id="SVGID_13_" d="M0 3h79v76.5H0z"/></defs><clipPath id="SVGID_14_"><use xlink:href="#SVGID_13_" style="overflow:visible"/></clipPath><path class="st6" d="M56.8 78.3.2 75.1 78 3.3l-21.2 75z" style="clip-path:url(#SVGID_14_)"/><defs><path id="SVGID_15_" d="M56 3h94.7v76.5H56z"/></defs><clipPath id="SVGID_16_"><use xlink:href="#SVGID_15_" style="overflow:visible"/></clipPath><g style="clip-path:url(#SVGID_16_)"><path d="m150.5 76.7-93.7 1.5L78 3.3l72.5 73.4" style="fill:#995c89"/><path class="st6" d="m150.5 76.7-93.7 1.5L78 3.3l72.5 73.4z"/></g><defs><path id="SVGID_17_" d="M104 73h46.7v115.8H104z"/></defs><clipPath id="SVGID_18_"><use xlink:href="#SVGID_17_" style="overflow:visible"/></clipPath><path class="st16" d="M150.3 175.4 104.4 188l.1-114.9" style="clip-path:url(#SVGID_18_)"/><defs><path id="SVGID_19_" d="M104 71.7h46.7v117.1H104z"/></defs><clipPath id="SVGID_20_"><use xlink:href="#SVGID_19_" style="overflow:visible"/></clipPath><path class="st6" d="M150.3 175.4 104.4 188l.1-114.9" style="clip-path:url(#SVGID_20_)"/><defs><path id="SVGID_21_" d="M104 73h46.7v102.8H104z"/></defs><clipPath id="SVGID_22_"><use xlink:href="#SVGID_21_" style="overflow:visible"/></clipPath><path class="st16" d="m104.5 73.1 46.1 3.7-.3 98.7" style="clip-path:url(#SVGID_22_)"/><defs><path id="SVGID_23_" d="M104 71.7h46.7v104.1H104z"/></defs><clipPath id="SVGID_24_"><use xlink:href="#SVGID_23_" style="overflow:visible"/></clipPath><path class="st6" d="m104.5 73.1 46.1 3.7-.3 98.7" style="clip-path:url(#SVGID_24_)"/><defs><path id="SVGID_25_" d="M77 174.5h73.7V250H77z"/></defs><clipPath id="SVGID_26_"><use xlink:href="#SVGID_25_" style="overflow:visible"/></clipPath><g style="clip-path:url(#SVGID_26_)"><path d="m104.4 188 45.9-12.6L78 249.8l26.4-61.8" style="fill:#c75e22"/></g><defs><path id="SVGID_27_" d="M77 174.5h73.7v75.6H77z"/></defs><clipPath id="SVGID_28_"><use xlink:href="#SVGID_27_" style="overflow:visible"/></clipPath><path class="st6" d="m104.4 188 45.9-12.6L78 249.8l26.4-61.8z" style="clip-path:url(#SVGID_28_)"/><defs><path id="SVGID_29_" d="M77 3h73.7v73.9H77z"/></defs><clipPath id="SVGID_30_"><use xlink:href="#SVGID_29_" style="overflow:visible"/></clipPath><g style="clip-path:url(#SVGID_30_)"><path d="m104.5 73.1 46.1 3.7L78 3.3l26.5 69.8" style="fill:#d1efde"/></g><defs><path id="SVGID_31_" d="M77 3h73.7v75.2H77z"/></defs><clipPath id="SVGID_32_"><use xlink:href="#SVGID_31_" style="overflow:visible"/></clipPath><path class="st6" d="m104.5 73.1 46.1 3.7L78 3.3l26.5 69.8z" style="clip-path:url(#SVGID_32_)"/><path d="m.5 180.9 103.8 7L78 249.8.5 180.9" style="fill:#8d4271"/><defs><path id="SVGID_33_" d="M0 179.7h105v70.4H0z"/></defs><clipPath id="SVGID_34_"><use xlink:href="#SVGID_33_" style="overflow:visible"/></clipPath><path class="st6" d="m.5 180.9 103.8 7L78 249.8.5 180.9z" style="clip-path:url(#SVGID_34_)"/><defs><path id="SVGID_35_" d="M0 3h105v72.6H0z"/></defs><clipPath id="SVGID_36_"><use xlink:href="#SVGID_35_" style="overflow:visible"/></clipPath><g style="clip-path:url(#SVGID_36_)"><path d="m.2 75.1 104.2-2L78 3.3.2 75.1" style="fill:#8babdd"/><path class="st6" d="m.2 75.1 104.2-2L78 3.3.2 75.1z"/></g><path class="st30" d="M104.4 188 .6 181 .2 75.1"/><path class="st30" d="m.2 75.1 104.2-2V188"/></g></svg>