<svg xmlns="http://www.w3.org/2000/svg" width="241.053" height="251.213" viewBox="0 0 180.79 188.41" version="1.2"><defs><clipPath id="a"><path d="M155 70h25.402v51H155Zm0 0"/></clipPath><clipPath id="b"><path d="M155 69h25.402v53H155Zm0 0"/></clipPath><clipPath id="c"><path d="M124 100h56.402v60H124Zm0 0"/></clipPath><clipPath id="d"><path d="M163 70h17.402v31H163Zm0 0"/></clipPath><clipPath id="e"><path d="M163 69h17.402v32H163Zm0 0"/></clipPath><clipPath id="f"><path d="M.176 31H16v72H.176Zm0 0"/></clipPath><clipPath id="g"><path d="M.176 30H16v74H.176Zm0 0"/></clipPath><clipPath id="h"><path d="M.176 76H32v80H.176Zm0 0"/></clipPath><clipPath id="i"><path d="M.176 75H16v29H.176Zm0 0"/></clipPath><clipPath id="j"><path d="M76 166h52v21.82H76Zm0 0"/></clipPath><clipPath id="k"><path d="M76 165h52v22.82H76Zm0 0"/></clipPath><clipPath id="l"><path d="M31 155h46v32.82H31Zm0 0"/></clipPath><clipPath id="m"><path d="M124 100h56.402v67H124Zm0 0"/></clipPath><clipPath id="n"><path d="M.176 30H14v47H.176Zm0 0"/></clipPath><clipPath id="o"><path d="M.176 30H15v47H.176Zm0 0"/></clipPath><clipPath id="p"><path d="M127 100h53.402v67H127Zm0 0"/></clipPath><clipPath id="q"><path d="M163 72h17.402v57H163Zm0 0"/></clipPath><clipPath id="r"><path d="M.176 30H21v47H.176Zm0 0"/></clipPath><clipPath id="s"><path d="M.176 30H22v47H.176Zm0 0"/></clipPath><clipPath id="t"><path d="M.176 76H32v80H.176Zm0 0"/></clipPath><clipPath id="u"><path d="M.176 75H33v81H.176Zm0 0"/></clipPath><clipPath id="v"><path d="M.176 61H21v48H.176Zm0 0"/></clipPath><clipPath id="w"><path d="M.176 61H22v48H.176Zm0 0"/></clipPath><clipPath id="x"><path d="M63 141h55v46.82H63Zm0 0"/></clipPath><clipPath id="y"><path d="M63 140h55v47.82H63Zm0 0"/></clipPath><clipPath id="z"><path d="M76 141h52v46.82H76Zm0 0"/></clipPath><clipPath id="A"><path d="M76 140h52v47.82H76Zm0 0"/></clipPath><clipPath id="B"><path d="M31 155h46v32.82H31Zm0 0"/></clipPath></defs><path style="fill-rule:nonzero;fill:#bb93b5;fill-opacity:1;stroke-width:7.04001;stroke-linecap:round;stroke-linejoin:round;stroke:#231f20;stroke-opacity:1;stroke-miterlimit:10" d="M925.136 1050.639 468.36 859.926l-190.086 432.091" transform="matrix(.09969 0 0 -.09969 .178 187.822)"/><path style="fill-rule:nonzero;fill:#b29ec9;fill-opacity:1;stroke-width:7.04001;stroke-linecap:round;stroke-linejoin:round;stroke:#231f20;stroke-opacity:1;stroke-miterlimit:10" d="M1111.852 604.245 649.04 411.182 468.359 859.926M468.359 859.926l456.777 190.713 186.716-446.394" transform="matrix(.09969 0 0 -.09969 .178 187.822)"/><path style="fill-rule:nonzero;fill:#d8c7cf;fill-opacity:1;stroke-width:7.04001;stroke-linecap:round;stroke-linejoin:round;stroke:#231f20;stroke-opacity:1;stroke-miterlimit:10" d="M468.359 859.926 649.04 411.182l-310.814-25.94" transform="matrix(.09969 0 0 -.09969 .178 187.822)"/><path style="fill-rule:nonzero;fill:#d8c7cf;fill-opacity:1;stroke-width:7.04001;stroke-linecap:round;stroke-linejoin:round;stroke:#231f20;stroke-opacity:1;stroke-miterlimit:10" d="M338.226 385.241 153.744 854.323l314.615 5.603" transform="matrix(.09969 0 0 -.09969 .178 187.822)"/><path style="stroke:none;fill-rule:nonzero;fill:#dab9bd;fill-opacity:1" d="m15.504 102.656 12.414-43.633 18.95 43.075-31.364.558"/><path style="fill:none;stroke-width:7.04001;stroke-linecap:round;stroke-linejoin:round;stroke:#231f20;stroke-opacity:1;stroke-miterlimit:10" d="m153.744 854.323 124.53 437.694 190.085-432.09Zm0 0" transform="matrix(.09969 0 0 -.09969 .178 187.822)"/><path style="fill-rule:nonzero;fill:#bb93b5;fill-opacity:1;stroke-width:7.04001;stroke-linecap:round;stroke-linejoin:round;stroke:#231f20;stroke-opacity:1;stroke-miterlimit:10" d="m278.273 1292.017 465.516 194.475 181.347-435.853" transform="matrix(.09969 0 0 -.09969 .178 187.822)"/><path style="stroke:none;fill-rule:nonzero;fill:#b48db3;fill-opacity:1" d="M123.941 47.582 92.402 83.086l-18.078-43.45 49.617 7.946"/><path style="fill:none;stroke-width:7.04001;stroke-linecap:round;stroke-linejoin:round;stroke:#231f20;stroke-opacity:1;stroke-miterlimit:10" d="m1241.515 1406.79-316.379-356.151-181.347 435.853Zm0 0" transform="matrix(.09969 0 0 -.09969 .178 187.822)"/><path style="fill-rule:nonzero;fill:#a38ec3;fill-opacity:1;stroke-width:7.04001;stroke-linecap:round;stroke-linejoin:round;stroke:#231f20;stroke-opacity:1;stroke-miterlimit:10" d="m925.136 1050.639 316.379 356.15 400.586-225.116" transform="matrix(.09969 0 0 -.09969 .178 187.822)"/><path style="stroke:none;fill-rule:nonzero;fill:#a38ec3;fill-opacity:1" d="m111.016 127.586-18.614-44.5 71.473-13.063"/><path style="fill:none;stroke-width:7.04001;stroke-linecap:round;stroke-linejoin:round;stroke:#231f20;stroke-opacity:1;stroke-miterlimit:10" d="M1111.852 604.245 925.136 1050.64" transform="matrix(.09969 0 0 -.09969 .178 187.822)"/><path style="fill-rule:nonzero;fill:#a2a8d9;fill-opacity:1;stroke-width:7.04001;stroke-linecap:round;stroke-linejoin:round;stroke:#231f20;stroke-opacity:1;stroke-miterlimit:10" d="M1246.844 284.144 764.4 82.97 649.04 411.182M649.04 411.182l462.812 193.063 134.992-320.1" transform="matrix(.09969 0 0 -.09969 .178 187.822)"/><path style="stroke:none;fill-rule:nonzero;fill:#cfd7e0;fill-opacity:1" d="m33.895 149.418 30.984-2.586 11.5 32.719-42.484-30.133"/><path style="fill:none;stroke-width:7.04001;stroke-linecap:round;stroke-linejoin:round;stroke:#231f20;stroke-opacity:1;stroke-miterlimit:10" d="m338.226 385.241 310.814 25.94L764.4 82.97Zm0 0" transform="matrix(.09969 0 0 -.09969 .178 187.822)"/><path style="fill-rule:nonzero;fill:#a38ec3;fill-opacity:1;stroke-width:7.04001;stroke-linecap:round;stroke-linejoin:round;stroke:#231f20;stroke-opacity:1;stroke-miterlimit:10" d="m1642.101 1181.673-83.424-508.58-446.825-68.848" transform="matrix(.09969 0 0 -.09969 .178 187.822)"/><path style="stroke:none;fill-rule:nonzero;fill:#999fd3;fill-opacity:1" d="m155.559 120.723-31.086 38.773-13.457-31.91 44.543-6.863"/><path style="fill:none;stroke-width:7.04001;stroke-linecap:round;stroke-linejoin:round;stroke:#231f20;stroke-opacity:1;stroke-miterlimit:10" d="m1558.677 673.093-311.833-388.949-134.992 320.101Zm0 0" transform="matrix(.09969 0 0 -.09969 .178 187.822)"/><path style="fill-rule:nonzero;fill:#a86588;fill-opacity:1;stroke-width:7.04001;stroke-linecap:round;stroke-linejoin:round;stroke:#231f20;stroke-opacity:1;stroke-miterlimit:10" d="m1467.298 1639.43-225.783-232.64-497.726 79.702" transform="matrix(.09969 0 0 -.09969 .178 187.822)"/><path style="stroke:none;fill-rule:nonzero;fill:#916aa5;fill-opacity:1" d="m163.875 70.023-39.934-22.441 22.508-23.191 17.426 45.632"/><path style="fill:none;stroke-width:7.04001;stroke-linecap:round;stroke-linejoin:round;stroke:#231f20;stroke-opacity:1;stroke-miterlimit:10" d="m1642.101 1181.673-400.586 225.117 225.783 232.64Zm0 0" transform="matrix(.09969 0 0 -.09969 .178 187.822)"/><path style="fill-rule:nonzero;fill:#c18191;fill-opacity:1;stroke-width:7.04001;stroke-linecap:round;stroke-linejoin:round;stroke:#231f20;stroke-opacity:1;stroke-miterlimit:10" d="m743.789 1486.492-465.516-194.475L137.6 1571.405" transform="matrix(.09969 0 0 -.09969 .178 187.822)"/><path style="fill-rule:nonzero;fill:#edc0a0;fill-opacity:1;stroke-width:7.04001;stroke-linecap:round;stroke-linejoin:round;stroke:#231f20;stroke-opacity:1;stroke-miterlimit:10" d="m137.6 1571.405 140.673-279.388-124.53-437.694" transform="matrix(.09969 0 0 -.09969 .178 187.822)"/><path style="fill-rule:nonzero;fill:#c18191;fill-opacity:1;stroke-width:7.04001;stroke-linecap:round;stroke-linejoin:round;stroke:#231f20;stroke-opacity:1;stroke-miterlimit:10" d="m137.6 1571.405 487.224 203.683 118.965-288.596" transform="matrix(.09969 0 0 -.09969 .178 187.822)"/><path style="stroke:none;fill-rule:nonzero;fill:#a86588;fill-opacity:1" d="m74.324 39.637-11.86-28.77 83.985 13.524"/><path style="fill:none;stroke-width:7.04001;stroke-linecap:round;stroke-linejoin:round;stroke:#231f20;stroke-opacity:1;stroke-miterlimit:10" d="m743.789 1486.492-118.965 288.596" transform="matrix(.09969 0 0 -.09969 .178 187.822)"/><g clip-path="url(#a)"><path style="stroke:none;fill-rule:nonzero;fill:#6d6ebb;fill-opacity:1" d="m180.059 100.414-24.5 20.309 8.316-50.7 16.184 30.391"/></g><g clip-path="url(#b)"><path style="fill:none;stroke-width:7.04001;stroke-linecap:round;stroke-linejoin:round;stroke:#231f20;stroke-opacity:1;stroke-miterlimit:10" d="m1804.444 876.815-245.767-203.722 83.424 508.58Zm0 0" transform="matrix(.09969 0 0 -.09969 .178 187.822)"/></g><g clip-path="url(#c)"><path style="fill-rule:nonzero;fill:#2a60b5;fill-opacity:1;stroke-width:7.04001;stroke-linecap:round;stroke-linejoin:round;stroke:#231f20;stroke-opacity:1;stroke-miterlimit:10" d="m1246.844 284.144 311.833 388.949 245.767 203.722" transform="matrix(.09969 0 0 -.09969 .178 187.822)"/></g><path style="stroke:none;fill-rule:nonzero;fill:#252021;fill-opacity:1" d="m163.875 70.023-17.426-45.632 26.196 48.242"/><path style="fill:none;stroke-width:7.04001;stroke-linecap:round;stroke-linejoin:round;stroke:#231f20;stroke-opacity:1;stroke-miterlimit:10" d="m1642.101 1181.673-174.803 457.757" transform="matrix(.09969 0 0 -.09969 .178 187.822)"/><g clip-path="url(#d)"><path style="stroke:none;fill-rule:nonzero;fill:#252021;fill-opacity:1" d="m172.645 72.633 7.414 27.781-16.184-30.39"/></g><g clip-path="url(#e)"><path style="fill:none;stroke-width:7.04001;stroke-linecap:round;stroke-linejoin:round;stroke:#231f20;stroke-opacity:1;stroke-miterlimit:10" d="m1730.07 1155.497 74.374-278.682-162.343 304.858" transform="matrix(.09969 0 0 -.09969 .178 187.822)"/></g><g clip-path="url(#f)"><path style="stroke:none;fill-rule:nonzero;fill:#edc0a0;fill-opacity:1" d="M15.504 102.656.527 76.18l13.368-45.008"/></g><g clip-path="url(#g)"><path style="fill:none;stroke-width:7.04001;stroke-linecap:round;stroke-linejoin:round;stroke:#231f20;stroke-opacity:1;stroke-miterlimit:10" d="M153.744 854.323 3.509 1119.918l134.09 451.487" transform="matrix(.09969 0 0 -.09969 .178 187.822)"/></g><path style="fill-rule:nonzero;fill:#dfe88a;fill-opacity:1;stroke-width:7.04001;stroke-linecap:round;stroke-linejoin:round;stroke:#231f20;stroke-opacity:1;stroke-miterlimit:10" d="M153.744 854.323 338.226 385.24l-22.453-62.108" transform="matrix(.09969 0 0 -.09969 .178 187.822)"/><g clip-path="url(#h)"><path style="stroke:none;fill-rule:nonzero;fill:#dfe88a;fill-opacity:1" d="m.527 76.18 14.977 26.476 16.152 52.953"/></g><g clip-path="url(#i)"><path style="fill:none;stroke-width:7.04001;stroke-linecap:round;stroke-linejoin:round;stroke:#231f20;stroke-opacity:1;stroke-miterlimit:10" d="m3.51 1119.918 150.234-265.595" transform="matrix(.09969 0 0 -.09969 .178 187.822)"/></g><g clip-path="url(#j)"><path style="stroke:none;fill-rule:nonzero;fill:#2da1e1;fill-opacity:1" d="M127.488 166.254 76.61 187.473l-.23-7.922"/></g><g clip-path="url(#k)"><path style="fill:none;stroke-width:7.04001;stroke-linecap:round;stroke-linejoin:round;stroke:#231f20;stroke-opacity:1;stroke-miterlimit:10" d="M1277.094 216.355 766.712 3.503 764.4 82.97" transform="matrix(.09969 0 0 -.09969 .178 187.822)"/></g><path style="fill-rule:nonzero;fill:#2da1e1;fill-opacity:1;stroke-width:7.04001;stroke-linecap:round;stroke-linejoin:round;stroke:#231f20;stroke-opacity:1;stroke-miterlimit:10" d="m764.4 82.97 482.444 201.174 30.25-67.79" transform="matrix(.09969 0 0 -.09969 .178 187.822)"/><g clip-path="url(#l)"><path style="fill-rule:nonzero;fill:#b4e5db;fill-opacity:1;stroke-width:7.04001;stroke-linecap:round;stroke-linejoin:round;stroke:#231f20;stroke-opacity:1;stroke-miterlimit:10" d="m764.4 82.97 2.312-79.467-450.939 319.63" transform="matrix(.09969 0 0 -.09969 .178 187.822)"/></g><path style="fill-rule:nonzero;fill:#b4e5db;fill-opacity:1;stroke-width:7.04001;stroke-linecap:round;stroke-linejoin:round;stroke:#231f20;stroke-opacity:1;stroke-miterlimit:10" d="m315.773 323.133 22.453 62.108L764.4 82.97" transform="matrix(.09969 0 0 -.09969 .178 187.822)"/><g clip-path="url(#m)"><path style="stroke:none;fill-rule:nonzero;fill:#2a60b5;fill-opacity:1" d="m127.488 166.254-3.015-6.758 55.586-59.082"/></g><path style="fill:none;stroke-width:7.04001;stroke-linecap:round;stroke-linejoin:round;stroke:#231f20;stroke-opacity:1;stroke-miterlimit:10" d="m1277.094 216.355-30.25 67.79" transform="matrix(.09969 0 0 -.09969 .178 187.822)"/><path style="stroke:none;fill-rule:nonzero;fill:#231f20;fill-opacity:1" d="M146.45 24.39 108.077.349l42.692 22.965-4.32 1.078"/><path style="fill:none;stroke-width:7.04001;stroke-linecap:round;stroke-linejoin:round;stroke:#231f20;stroke-opacity:1;stroke-miterlimit:10" d="m1467.298 1639.43-384.913 241.183 428.25-230.368Zm0 0" transform="matrix(.09969 0 0 -.09969 .178 187.822)"/><path style="fill-rule:nonzero;fill:#a86588;fill-opacity:1;stroke-width:7.04001;stroke-linecap:round;stroke-linejoin:round;stroke:#231f20;stroke-opacity:1;stroke-miterlimit:10" d="m624.824 1775.088 457.561 105.525 384.913-241.183" transform="matrix(.09969 0 0 -.09969 .178 187.822)"/><path style="fill-rule:nonzero;fill:#252021;fill-opacity:1;stroke-width:7.04001;stroke-linecap:round;stroke-linejoin:round;stroke:#231f20;stroke-opacity:1;stroke-miterlimit:10" d="m1467.298 1639.43 43.338 10.815 219.435-494.748" transform="matrix(.09969 0 0 -.09969 .178 187.822)"/><path style="fill-rule:nonzero;fill:#711d21;fill-opacity:1;stroke-width:7.04001;stroke-linecap:round;stroke-linejoin:round;stroke:#231f20;stroke-opacity:1;stroke-miterlimit:10" d="M624.824 1775.088 137.6 1571.405l-34.365 6.818" transform="matrix(.09969 0 0 -.09969 .178 187.822)"/><g clip-path="url(#n)"><path style="stroke:none;fill-rule:nonzero;fill:#da9824;fill-opacity:1" d="m.527 76.18 9.942-45.688 3.426.68L.527 76.18"/></g><g clip-path="url(#o)"><path style="fill:none;stroke-width:7.04001;stroke-linecap:round;stroke-linejoin:round;stroke:#231f20;stroke-opacity:1;stroke-miterlimit:10" d="m3.51 1119.918 99.725 458.305 34.365-6.818Zm0 0" transform="matrix(.09969 0 0 -.09969 .178 187.822)"/></g><path style="fill-rule:nonzero;fill:#711d21;fill-opacity:1;stroke-width:7.04001;stroke-linecap:round;stroke-linejoin:round;stroke:#231f20;stroke-opacity:1;stroke-miterlimit:10" d="m103.235 1578.223 515.75 215.595 5.839-18.73" transform="matrix(.09969 0 0 -.09969 .178 187.822)"/><path style="stroke:none;fill-rule:nonzero;fill:#531819;fill-opacity:1" d="m108.078.348-45.613 10.52L61.883 9 108.078.348"/><path style="fill:none;stroke-width:7.04001;stroke-linecap:round;stroke-linejoin:round;stroke:#231f20;stroke-opacity:1;stroke-miterlimit:10" d="m1082.385 1880.613-457.561-105.525-5.839 18.73Zm0 0" transform="matrix(.09969 0 0 -.09969 .178 187.822)"/><g clip-path="url(#p)"><path style="fill-rule:nonzero;fill:#2a60b5;fill-opacity:1;stroke-width:7.04001;stroke-linecap:round;stroke-linejoin:round;stroke:#231f20;stroke-opacity:1;stroke-miterlimit:10" d="m1804.444 876.815-166.066-278.408-361.284-382.052" transform="matrix(.09969 0 0 -.09969 .178 187.822)"/></g><g clip-path="url(#q)"><path style="stroke:none;fill-rule:nonzero;fill:#f2bc81;fill-opacity:1" d="m172.645 72.633-9.141 55.535 16.555-27.754-7.414-27.781"/><path style="fill:none;stroke-width:7.04001;stroke-linecap:round;stroke-linejoin:round;stroke:#231f20;stroke-opacity:1;stroke-miterlimit:10" d="m1730.07 1155.497-91.692-557.09 166.066 278.408Zm0 0" transform="matrix(.09969 0 0 -.09969 .178 187.822)"/></g><g clip-path="url(#r)"><path style="stroke:none;fill-rule:nonzero;fill:#3344a1;fill-opacity:1" d="M20.77 61.629 10.469 30.492.527 76.18"/></g><g clip-path="url(#s)"><path style="fill:none;stroke-width:7.04001;stroke-linecap:round;stroke-linejoin:round;stroke:#231f20;stroke-opacity:1;stroke-miterlimit:10" d="m206.565 1265.881-103.33 312.342-99.726-458.305" transform="matrix(.09969 0 0 -.09969 .178 187.822)"/></g><g clip-path="url(#t)"><path style="stroke:none;fill-rule:nonzero;fill:#dfe88a;fill-opacity:1" d="m31.656 155.61-21.613-47.208L.527 76.18"/></g><g clip-path="url(#u)"><path style="fill:none;stroke-width:7.04001;stroke-linecap:round;stroke-linejoin:round;stroke:#231f20;stroke-opacity:1;stroke-miterlimit:10" d="M315.773 323.133 98.963 796.682 3.51 1119.918" transform="matrix(.09969 0 0 -.09969 .178 187.822)"/></g><g clip-path="url(#v)"><path style="stroke:none;fill-rule:nonzero;fill:#3344a1;fill-opacity:1" d="m.527 76.18 9.516 32.222L20.77 61.63"/></g><g clip-path="url(#w)"><path style="fill:none;stroke-width:7.04001;stroke-linecap:round;stroke-linejoin:round;stroke:#231f20;stroke-opacity:1;stroke-miterlimit:10" d="m3.51 1119.918 95.453-323.236 107.602 469.199" transform="matrix(.09969 0 0 -.09969 .178 187.822)"/></g><path style="fill-rule:nonzero;fill:#b6c8e8;fill-opacity:1;stroke-width:7.04001;stroke-linecap:round;stroke-linejoin:round;stroke:#231f20;stroke-opacity:1;stroke-miterlimit:10" d="m1510.636 1650.245-428.251 230.368-463.4-86.795" transform="matrix(.09969 0 0 -.09969 .178 187.822)"/><g clip-path="url(#x)"><path style="stroke:none;fill-rule:nonzero;fill:#c2767e;fill-opacity:1" d="m117.168 141.102-53.492 22.312 12.933 24.059"/></g><g clip-path="url(#y)"><path style="fill:none;stroke-width:7.04001;stroke-linecap:round;stroke-linejoin:round;stroke:#231f20;stroke-opacity:1;stroke-miterlimit:10" d="M1173.568 468.666 636.971 244.842 766.712 3.502" transform="matrix(.09969 0 0 -.09969 .178 187.822)"/></g><g clip-path="url(#z)"><path style="stroke:none;fill-rule:nonzero;fill:#c2767e;fill-opacity:1" d="m76.61 187.473 50.878-21.22-10.32-25.151"/></g><g clip-path="url(#A)"><path style="fill:none;stroke-width:7.04001;stroke-linecap:round;stroke-linejoin:round;stroke:#231f20;stroke-opacity:1;stroke-miterlimit:10" d="m766.712 3.503 510.382 212.852-103.526 252.31" transform="matrix(.09969 0 0 -.09969 .178 187.822)"/></g><g clip-path="url(#B)"><path style="stroke:none;fill-rule:nonzero;fill:#5c1a41;fill-opacity:1" d="m31.656 155.61 44.953 31.863-12.933-24.059-32.02-7.805"/><path style="fill:none;stroke-width:7.04001;stroke-linecap:round;stroke-linejoin:round;stroke:#231f20;stroke-opacity:1;stroke-miterlimit:10" d="m315.773 323.133 450.94-319.63-129.742 241.34Zm0 0" transform="matrix(.09969 0 0 -.09969 .178 187.822)"/></g><path style="stroke:none;fill-rule:nonzero;fill:#cd8382;fill-opacity:1" d="m163.504 128.168-46.336 12.934 10.32 25.152 36.016-38.086"/><path style="fill:none;stroke-width:7.04001;stroke-linecap:round;stroke-linejoin:round;stroke:#231f20;stroke-opacity:1;stroke-miterlimit:10" d="m1638.378 598.407-464.81-129.741 103.526-252.311Zm0 0" transform="matrix(.09969 0 0 -.09969 .178 187.822)"/><path style="fill-rule:nonzero;fill:#764a91;fill-opacity:1;stroke-width:7.04001;stroke-linecap:round;stroke-linejoin:round;stroke:#231f20;stroke-opacity:1;stroke-miterlimit:10" d="m98.963 796.682 216.81-473.549 321.198-78.29" transform="matrix(.09969 0 0 -.09969 .178 187.822)"/><path style="stroke:none;fill-rule:nonzero;fill:#daced2;fill-opacity:1" d="m150.77 23.313-18.567 25.03 40.442 24.29-21.875-49.32"/><path style="fill:none;stroke-width:7.04001;stroke-linecap:round;stroke-linejoin:round;stroke:#231f20;stroke-opacity:1;stroke-miterlimit:10" d="m1510.636 1650.245-186.246-251.096 405.68-243.652Zm0 0" transform="matrix(.09969 0 0 -.09969 .178 187.822)"/><path style="fill-rule:nonzero;fill:#b6c8e8;fill-opacity:1;stroke-width:7.04001;stroke-linecap:round;stroke-linejoin:round;stroke:#231f20;stroke-opacity:1;stroke-miterlimit:10" d="m746.845 1491.625 577.545-92.476 186.246 251.096" transform="matrix(.09969 0 0 -.09969 .178 187.822)"/><path style="stroke:none;fill-rule:nonzero;fill:#b6c8e8;fill-opacity:1" d="m61.883 9 12.746 30.125 76.14-15.813"/><path style="fill:none;stroke-width:7.04001;stroke-linecap:round;stroke-linejoin:round;stroke:#231f20;stroke-opacity:1;stroke-miterlimit:10" d="m618.985 1793.818 127.86-302.193" transform="matrix(.09969 0 0 -.09969 .178 187.822)"/><path style="fill-rule:nonzero;fill:#9babdb;fill-opacity:1;stroke-width:7.04001;stroke-linecap:round;stroke-linejoin:round;stroke:#231f20;stroke-opacity:1;stroke-miterlimit:10" d="m618.985 1793.818-515.75-215.595 103.33-312.342" transform="matrix(.09969 0 0 -.09969 .178 187.822)"/><path style="fill-rule:nonzero;fill:#9babdb;fill-opacity:1;stroke-width:7.04001;stroke-linecap:round;stroke-linejoin:round;stroke:#231f20;stroke-opacity:1;stroke-miterlimit:10" d="m206.565 1265.881 540.28 225.744-127.86 302.193" transform="matrix(.09969 0 0 -.09969 .178 187.822)"/><path style="fill-rule:nonzero;fill:#cda5b6;fill-opacity:1;stroke-width:7.04001;stroke-linecap:round;stroke-linejoin:round;stroke:#231f20;stroke-opacity:1;stroke-miterlimit:10" d="m1173.568 468.666 464.81 129.74 91.693 557.091" transform="matrix(.09969 0 0 -.09969 .178 187.822)"/><path style="stroke:none;fill-rule:nonzero;fill:#cda5b6;fill-opacity:1" d="m96.426 91.203 20.742 49.899 55.477-68.47"/><path style="fill:none;stroke-width:7.04001;stroke-linecap:round;stroke-linejoin:round;stroke:#231f20;stroke-opacity:1;stroke-miterlimit:10" d="m965.497 969.213 208.071-500.547" transform="matrix(.09969 0 0 -.09969 .178 187.822)"/><path style="fill-rule:nonzero;fill:#cda5b6;fill-opacity:1;stroke-width:7.04001;stroke-linecap:round;stroke-linejoin:round;stroke:#231f20;stroke-opacity:1;stroke-miterlimit:10" d="m1730.07 1155.497-405.68 243.652-358.893-429.936" transform="matrix(.09969 0 0 -.09969 .178 187.822)"/><path style="stroke:none;fill-rule:nonzero;fill:#7c67b3;fill-opacity:1" d="m10.043 108.402 31.68 5.645L20.77 61.629l-10.727 46.773"/><path style="fill:none;stroke-width:7.04001;stroke-linecap:round;stroke-linejoin:round;stroke:#231f20;stroke-opacity:1;stroke-miterlimit:10" d="m98.963 796.682 317.79-56.622-210.188 525.821Zm0 0" transform="matrix(.09969 0 0 -.09969 .178 187.822)"/><path style="fill-rule:nonzero;fill:#764a91;fill-opacity:1;stroke-width:7.04001;stroke-linecap:round;stroke-linejoin:round;stroke:#231f20;stroke-opacity:1;stroke-miterlimit:10" d="M636.971 244.842 416.752 740.06 98.963 796.682" transform="matrix(.09969 0 0 -.09969 .178 187.822)"/><path style="fill-rule:nonzero;fill:#bb91b2;fill-opacity:1;stroke-width:7.04001;stroke-linecap:round;stroke-linejoin:round;stroke:#231f20;stroke-opacity:1;stroke-miterlimit:10" d="M965.497 969.213 416.752 740.06l220.22-495.218" transform="matrix(.09969 0 0 -.09969 .178 187.822)"/><path style="fill-rule:nonzero;fill:#bb91b2;fill-opacity:1;stroke-width:7.04001;stroke-linecap:round;stroke-linejoin:round;stroke:#231f20;stroke-opacity:1;stroke-miterlimit:10" d="m636.971 244.842 536.597 223.824-208.071 500.547" transform="matrix(.09969 0 0 -.09969 .178 187.822)"/><path style="stroke:none;fill-rule:nonzero;fill:#b8a6cc;fill-opacity:1" d="M132.203 48.344 74.63 39.125l21.797 52.078 35.777-42.86"/><path style="fill:none;stroke-width:7.04001;stroke-linecap:round;stroke-linejoin:round;stroke:#231f20;stroke-opacity:1;stroke-miterlimit:10" d="m1324.39 1399.149-577.545 92.476 218.652-522.412Zm0 0" transform="matrix(.09969 0 0 -.09969 .178 187.822)"/><path style="fill-rule:nonzero;fill:#b29eca;fill-opacity:1;stroke-width:7.04001;stroke-linecap:round;stroke-linejoin:round;stroke:#231f20;stroke-opacity:1;stroke-miterlimit:10" d="m746.845 1491.625-540.28-225.744L416.752 740.06" transform="matrix(.09969 0 0 -.09969 .178 187.822)"/><path style="fill-rule:nonzero;fill:#b29eca;fill-opacity:1;stroke-width:7.04001;stroke-linecap:round;stroke-linejoin:round;stroke:#231f20;stroke-opacity:1;stroke-miterlimit:10" d="m416.752 740.06 548.745 229.153-218.652 522.412" transform="matrix(.09969 0 0 -.09969 .178 187.822)"/></svg>