<svg xmlns="http://www.w3.org/2000/svg" width="216" height="200pt" viewBox="0 0 162 200" version="1.2"><path style="fill-rule:nonzero;fill:#ab90ba;fill-opacity:1;stroke-width:6.64;stroke-linecap:round;stroke-linejoin:round;stroke:#000;stroke-opacity:1;stroke-miterlimit:10" d="m749.805 695.117 10.43 434.258 427.07 10.234" transform="matrix(.1 0 0 -.1 0 200)"/><path style="fill-rule:nonzero;fill:#c1a1b9;fill-opacity:1;stroke-width:6.64;stroke-linecap:round;stroke-linejoin:round;stroke:#000;stroke-opacity:1;stroke-miterlimit:10" d="m760.234 1129.375-10.43-434.258-419.062 30.196M330.742 725.313l13.594 440.859 415.898-36.797" transform="matrix(.1 0 0 -.1 0 200)"/><path style="stroke:none;fill-rule:nonzero;fill:#bf92a8;fill-opacity:1" d="m76.023 87.063-41.59-3.68 32.95-63.84"/><path style="fill:none;stroke-width:6.64;stroke-linecap:round;stroke-linejoin:round;stroke:#000;stroke-opacity:1;stroke-miterlimit:10" d="m760.234 1129.375-415.898 36.797" transform="matrix(.1 0 0 -.1 0 200)"/><path style="fill-rule:nonzero;fill:#bf92a8;fill-opacity:1;stroke-width:6.64;stroke-linecap:round;stroke-linejoin:round;stroke:#000;stroke-opacity:1;stroke-miterlimit:10" d="m673.828 1804.57 288.828-288.593-202.422-386.602" transform="matrix(.1 0 0 -.1 0 200)"/><path style="stroke:none;fill-rule:nonzero;fill:#ab8bb3;fill-opacity:1" d="M96.266 48.402 118.73 86.04l-42.707 1.023"/><path style="fill:none;stroke-width:6.64;stroke-linecap:round;stroke-linejoin:round;stroke:#000;stroke-opacity:1;stroke-miterlimit:10" d="m962.656 1515.977 224.649-376.368-427.07-10.234Zm0 0" transform="matrix(.1 0 0 -.1 0 200)"/><path style="stroke:none;fill-rule:nonzero;fill:#a97193;fill-opacity:1" d="M111.137 17.688 96.266 48.401 67.383 19.543"/><path style="fill:none;stroke-width:6.64;stroke-linecap:round;stroke-linejoin:round;stroke:#000;stroke-opacity:1;stroke-miterlimit:10" d="m1111.367 1823.125-148.71-307.148-288.829 288.593Zm0 0" transform="matrix(.1 0 0 -.1 0 200)"/><path style="fill-rule:nonzero;fill:#8c659f;fill-opacity:1;stroke-width:6.64;stroke-linecap:round;stroke-linejoin:round;stroke:#000;stroke-opacity:1;stroke-miterlimit:10" d="m1187.305 1139.61-224.649 376.367 148.711 307.148" transform="matrix(.1 0 0 -.1 0 200)"/><path style="fill-rule:nonzero;fill:#ab90ba;fill-opacity:1;stroke-width:6.64;stroke-linecap:round;stroke-linejoin:round;stroke:#000;stroke-opacity:1;stroke-miterlimit:10" d="m1187.305 1139.61-7.461-439.297-430.04-5.196" transform="matrix(.1 0 0 -.1 0 200)"/><path style="stroke:none;fill-rule:nonzero;fill:#aa95c0;fill-opacity:1" d="m93.79 167.188-18.81-36.7 43.004-.52"/><path style="fill:none;stroke-width:6.64;stroke-linecap:round;stroke-linejoin:round;stroke:#000;stroke-opacity:1;stroke-miterlimit:10" d="M937.89 328.125 749.806 695.117l430.039 5.196Zm0 0" transform="matrix(.1 0 0 -.1 0 200)"/><path style="fill-rule:nonzero;fill:#c0b1cb;fill-opacity:1;stroke-width:6.64;stroke-linecap:round;stroke-linejoin:round;stroke:#000;stroke-opacity:1;stroke-miterlimit:10" d="M749.805 695.117 937.89 328.125l-307.5-212.46" transform="matrix(.1 0 0 -.1 0 200)"/><path style="stroke:none;fill-rule:nonzero;fill:#c0b1cb;fill-opacity:1" d="m33.074 127.469 41.906 3.02-11.94 57.945"/><path style="fill:none;stroke-width:6.64;stroke-linecap:round;stroke-linejoin:round;stroke:#000;stroke-opacity:1;stroke-miterlimit:10" d="m330.742 725.313 419.063-30.196" transform="matrix(.1 0 0 -.1 0 200)"/><path style="fill-rule:nonzero;fill:#8874b6;fill-opacity:1;stroke-width:6.64;stroke-linecap:round;stroke-linejoin:round;stroke:#000;stroke-opacity:1;stroke-miterlimit:10" d="m1179.844 700.313 7.46 439.296 301.798 55.352" transform="matrix(.1 0 0 -.1 0 200)"/><path style="stroke:none;fill-rule:nonzero;fill:#8c659f;fill-opacity:1" d="m148.91 80.504-30.18 5.535-7.593-68.352"/><path style="fill:none;stroke-width:6.64;stroke-linecap:round;stroke-linejoin:round;stroke:#000;stroke-opacity:1;stroke-miterlimit:10" d="m1489.102 1194.96-301.797-55.35" transform="matrix(.1 0 0 -.1 0 200)"/><path style="fill-rule:nonzero;fill:#ddb8b2;fill-opacity:1;stroke-width:6.64;stroke-linecap:round;stroke-linejoin:round;stroke:#000;stroke-opacity:1;stroke-miterlimit:10" d="m344.336 1166.172-13.594-440.86-272.07 57.344" transform="matrix(.1 0 0 -.1 0 200)"/><path style="fill-rule:nonzero;fill:#ddb8b2;fill-opacity:1;stroke-width:6.64;stroke-linecap:round;stroke-linejoin:round;stroke:#000;stroke-opacity:1;stroke-miterlimit:10" d="m58.672 782.656 16.172 457.305 269.492-73.79" transform="matrix(.1 0 0 -.1 0 200)"/><path style="stroke:none;fill-rule:nonzero;fill:#dbaea8;fill-opacity:1" d="m28.375 41.363 6.059 42.02-26.95-7.38"/><path style="fill:none;stroke-width:6.64;stroke-linecap:round;stroke-linejoin:round;stroke:#000;stroke-opacity:1;stroke-miterlimit:10" d="m283.75 1586.367 60.586-420.195-269.492 73.789Zm0 0" transform="matrix(.1 0 0 -.1 0 200)"/><path style="fill-rule:nonzero;fill:#bf92a8;fill-opacity:1;stroke-width:6.64;stroke-linecap:round;stroke-linejoin:round;stroke:#000;stroke-opacity:1;stroke-miterlimit:10" d="m344.336 1166.172-60.586 420.195 390.078 218.203" transform="matrix(.1 0 0 -.1 0 200)"/><path style="fill-rule:nonzero;fill:#8874b6;fill-opacity:1;stroke-width:6.64;stroke-linecap:round;stroke-linejoin:round;stroke:#000;stroke-opacity:1;stroke-miterlimit:10" d="m1489.102 1194.96-5.508-454.608-303.75-40.04" transform="matrix(.1 0 0 -.1 0 200)"/><path style="stroke:none;fill-rule:nonzero;fill:#8185ce;fill-opacity:1" d="m117.984 129.969 30.375-4.004-40.375 62.644"/><path style="fill:none;stroke-width:6.64;stroke-linecap:round;stroke-linejoin:round;stroke:#000;stroke-opacity:1;stroke-miterlimit:10" d="m1179.844 700.313 303.75 40.039" transform="matrix(.1 0 0 -.1 0 200)"/><path style="fill-rule:nonzero;fill:#8185ce;fill-opacity:1;stroke-width:6.64;stroke-linecap:round;stroke-linejoin:round;stroke:#000;stroke-opacity:1;stroke-miterlimit:10" d="M1079.844 113.906 937.89 328.125l241.953 372.188" transform="matrix(.1 0 0 -.1 0 200)"/><path style="fill-rule:nonzero;fill:#c0b1cb;fill-opacity:1;stroke-width:6.64;stroke-linecap:round;stroke-linejoin:round;stroke:#000;stroke-opacity:1;stroke-miterlimit:10" d="M630.39 115.664 244.689 368.867l86.054 356.445" transform="matrix(.1 0 0 -.1 0 200)"/><path style="stroke:none;fill-rule:nonzero;fill:#dec2bc;fill-opacity:1" d="M24.469 163.113 5.867 121.734l27.207 5.735"/><path style="fill:none;stroke-width:6.64;stroke-linecap:round;stroke-linejoin:round;stroke:#000;stroke-opacity:1;stroke-miterlimit:10" d="M244.688 368.867 58.672 782.657l272.07-57.345Zm0 0" transform="matrix(.1 0 0 -.1 0 200)"/><path style="stroke:none;fill-rule:nonzero;fill:#a2b2e3;fill-opacity:1" d="m63.04 188.434 30.75-21.246 14.194 21.421"/><path style="fill:none;stroke-width:6.64;stroke-linecap:round;stroke-linejoin:round;stroke:#000;stroke-opacity:1;stroke-miterlimit:10" d="m630.39 115.664 307.5 212.461 141.954-214.219Zm0 0" transform="matrix(.1 0 0 -.1 0 200)"/><path style="stroke:none;fill-rule:nonzero;fill:#ca7f7d;fill-opacity:1" d="m67.383 19.543-39.008 21.82L41.406 9.605"/><path style="fill:none;stroke-width:6.64;stroke-linecap:round;stroke-linejoin:round;stroke:#000;stroke-opacity:1;stroke-miterlimit:10" d="M673.828 1804.57 283.75 1586.367l130.313 317.578Zm0 0" transform="matrix(.1 0 0 -.1 0 200)"/><path style="fill-rule:nonzero;fill:#8b161e;fill-opacity:1;stroke-width:6.64;stroke-linecap:round;stroke-linejoin:round;stroke:#000;stroke-opacity:1;stroke-miterlimit:10" d="m673.828 1804.57-259.765 99.375 289.609 87.266" transform="matrix(.1 0 0 -.1 0 200)"/><path style="stroke:none;fill-rule:nonzero;fill:#8b161e;fill-opacity:1" d="m111.137 17.688-43.754 1.855L70.367.879"/><path style="fill:none;stroke-width:6.64;stroke-linecap:round;stroke-linejoin:round;stroke:#000;stroke-opacity:1;stroke-miterlimit:10" d="m1111.367 1823.125-437.539-18.555" transform="matrix(.1 0 0 -.1 0 200)"/><path style="fill-rule:nonzero;fill:#e27b0b;fill-opacity:1;stroke-width:6.64;stroke-linecap:round;stroke-linejoin:round;stroke:#000;stroke-opacity:1;stroke-miterlimit:10" d="M414.063 1903.945 283.75 1586.367 74.844 1239.961" transform="matrix(.1 0 0 -.1 0 200)"/><path style="fill-rule:nonzero;fill:#8c659f;fill-opacity:1;stroke-width:6.64;stroke-linecap:round;stroke-linejoin:round;stroke:#000;stroke-opacity:1;stroke-miterlimit:10" d="m1111.367 1823.125 334.727-193.906 43.008-434.258" transform="matrix(.1 0 0 -.1 0 200)"/><path style="stroke:none;fill-rule:nonzero;fill:#450035;fill-opacity:1" d="m115.023 6.258 29.586 30.82-33.472-19.39"/><path style="fill:none;stroke-width:6.64;stroke-linecap:round;stroke-linejoin:round;stroke:#000;stroke-opacity:1;stroke-miterlimit:10" d="m1150.234 1937.422 295.86-308.203-334.727 193.906Zm0 0" transform="matrix(.1 0 0 -.1 0 200)"/><path style="fill-rule:nonzero;fill:#8b161e;fill-opacity:1;stroke-width:6.64;stroke-linecap:round;stroke-linejoin:round;stroke:#000;stroke-opacity:1;stroke-miterlimit:10" d="m703.672 1991.21 446.562-53.788-38.867-114.297" transform="matrix(.1 0 0 -.1 0 200)"/><path style="fill-rule:nonzero;fill:#000060;fill-opacity:1;stroke-width:6.64;stroke-linecap:round;stroke-linejoin:round;stroke:#000;stroke-opacity:1;stroke-miterlimit:10" d="m1483.594 740.352 5.508 454.609 57.187 85.39" transform="matrix(.1 0 0 -.1 0 200)"/><path style="stroke:none;fill-rule:nonzero;fill:#000056;fill-opacity:1" d="m144.61 37.078 10.019 34.887-5.719 8.539"/><path style="fill:none;stroke-width:6.64;stroke-linecap:round;stroke-linejoin:round;stroke:#000;stroke-opacity:1;stroke-miterlimit:10" d="m1446.094 1629.219 100.195-348.867-57.187-85.391Zm0 0" transform="matrix(.1 0 0 -.1 0 200)"/><path style="stroke:none;fill-rule:nonzero;fill:#cceceb;fill-opacity:1" d="m36.125 184.945-11.656-21.832 38.57 25.32"/><path style="fill:none;stroke-width:6.64;stroke-linecap:round;stroke-linejoin:round;stroke:#000;stroke-opacity:1;stroke-miterlimit:10" d="m361.25 150.547-116.563 218.32 385.704-253.203Zm0 0" transform="matrix(.1 0 0 -.1 0 200)"/><path style="fill-rule:nonzero;fill:#000;fill-opacity:1;stroke-width:6.64;stroke-linecap:round;stroke-linejoin:round;stroke:#000;stroke-opacity:1;stroke-miterlimit:10" d="m58.672 782.656 186.016-413.789 116.562-218.32" transform="matrix(.1 0 0 -.1 0 200)"/><path style="fill-rule:nonzero;fill:#cca213;fill-opacity:1;stroke-width:6.64;stroke-linecap:round;stroke-linejoin:round;stroke:#000;stroke-opacity:1;stroke-miterlimit:10" d="M74.844 1239.96 58.672 782.657l-11.25 66.64M47.422 849.297l17.07 478.75 10.352-88.086" transform="matrix(.1 0 0 -.1 0 200)"/><path style="stroke:none;fill-rule:nonzero;fill:#e27b0b;fill-opacity:1" d="M7.484 76.004 6.45 67.195l34.957-57.59"/><path style="fill:none;stroke-width:6.64;stroke-linecap:round;stroke-linejoin:round;stroke:#000;stroke-opacity:1;stroke-miterlimit:10" d="m74.844 1239.96-10.352 88.087" transform="matrix(.1 0 0 -.1 0 200)"/><path style="stroke:none;fill-rule:nonzero;fill:#3a0000;fill-opacity:1" d="m63.04 188.434 44.944.175-42.218-5.859"/><path style="fill:none;stroke-width:6.64;stroke-linecap:round;stroke-linejoin:round;stroke:#000;stroke-opacity:1;stroke-miterlimit:10" d="m630.39 115.664 449.454-1.758" transform="matrix(.1 0 0 -.1 0 200)"/><path style="fill-rule:nonzero;fill:#3a0000;fill-opacity:1;stroke-width:6.64;stroke-linecap:round;stroke-linejoin:round;stroke:#000;stroke-opacity:1;stroke-miterlimit:10" d="M657.656 172.5 361.25 150.547l269.14-34.883" transform="matrix(.1 0 0 -.1 0 200)"/><path style="fill-rule:nonzero;fill:#000060;fill-opacity:1;stroke-width:6.64;stroke-linecap:round;stroke-linejoin:round;stroke:#000;stroke-opacity:1;stroke-miterlimit:10" d="m1546.29 1280.352-5.274-475.86-57.422-64.14" transform="matrix(.1 0 0 -.1 0 200)"/><path style="stroke:none;fill-rule:nonzero;fill:#00006d;fill-opacity:1" d="m143 162.738 5.36-36.773 5.742-6.414"/><path style="fill:none;stroke-width:6.64;stroke-linecap:round;stroke-linejoin:round;stroke:#000;stroke-opacity:1;stroke-miterlimit:10" d="m1430 372.617 53.594 367.735 57.422 64.14Zm0 0" transform="matrix(.1 0 0 -.1 0 200)"/><path style="fill-rule:nonzero;fill:#8185ce;fill-opacity:1;stroke-width:6.64;stroke-linecap:round;stroke-linejoin:round;stroke:#000;stroke-opacity:1;stroke-miterlimit:10" d="M1483.594 740.352 1430 372.617l-350.156-258.71" transform="matrix(.1 0 0 -.1 0 200)"/><path style="stroke:none;fill-rule:nonzero;fill:#000;fill-opacity:1" d="m4.742 115.07 1.125 6.664 30.258 63.211"/><path style="fill:none;stroke-width:6.64;stroke-linecap:round;stroke-linejoin:round;stroke:#000;stroke-opacity:1;stroke-miterlimit:10" d="m47.422 849.297 11.25-66.64" transform="matrix(.1 0 0 -.1 0 200)"/><path style="fill-rule:nonzero;fill:#e6e3ce;fill-opacity:1;stroke-width:6.64;stroke-linecap:round;stroke-linejoin:round;stroke:#000;stroke-opacity:1;stroke-miterlimit:10" d="m1546.29 1280.352-100.196 348.867-295.86 308.203" transform="matrix(.1 0 0 -.1 0 200)"/><path style="fill-rule:nonzero;fill:#e27b0b;fill-opacity:1;stroke-width:6.64;stroke-linecap:round;stroke-linejoin:round;stroke:#000;stroke-opacity:1;stroke-miterlimit:10" d="m64.492 1328.047 218.75 428.984 130.82 146.914" transform="matrix(.1 0 0 -.1 0 200)"/><path style="stroke:none;fill-rule:nonzero;fill:#2e8bed;fill-opacity:1" d="M41.406 9.605 28.324 24.297 70.367.879"/><path style="fill:none;stroke-width:6.64;stroke-linecap:round;stroke-linejoin:round;stroke:#000;stroke-opacity:1;stroke-miterlimit:10" d="m414.063 1903.945-130.82-146.914 420.429 234.18Zm0 0" transform="matrix(.1 0 0 -.1 0 200)"/><path style="stroke:none;fill-rule:nonzero;fill:#740000;fill-opacity:1" d="M107.984 188.61 143 162.737l-31.168 22.426"/><path style="fill:none;stroke-width:6.64;stroke-linecap:round;stroke-linejoin:round;stroke:#000;stroke-opacity:1;stroke-miterlimit:10" d="M1079.844 113.906 1430 372.617 1118.32 148.36Zm0 0" transform="matrix(.1 0 0 -.1 0 200)"/><path style="fill-rule:nonzero;fill:#3a0000;fill-opacity:1;stroke-width:6.64;stroke-linecap:round;stroke-linejoin:round;stroke:#000;stroke-opacity:1;stroke-miterlimit:10" d="m1079.844 113.906 38.476 34.453L657.656 172.5" transform="matrix(.1 0 0 -.1 0 200)"/><path style="fill-rule:nonzero;fill:#dfa08f;fill-opacity:1;stroke-width:6.64;stroke-linecap:round;stroke-linejoin:round;stroke:#000;stroke-opacity:1;stroke-miterlimit:10" d="M1118.32 148.36 1430 372.616l111.016 431.875" transform="matrix(.1 0 0 -.1 0 200)"/><path style="stroke:none;fill-rule:nonzero;fill:#e6e3ce;fill-opacity:1" d="m130.402 63.492 24.227 8.473-39.606-65.707"/><path style="fill:none;stroke-width:6.64;stroke-linecap:round;stroke-linejoin:round;stroke:#000;stroke-opacity:1;stroke-miterlimit:10" d="m1304.023 1365.078 242.266-84.726" transform="matrix(.1 0 0 -.1 0 200)"/><path style="fill-rule:nonzero;fill:#e6e3ce;fill-opacity:1;stroke-width:6.64;stroke-linecap:round;stroke-linejoin:round;stroke:#000;stroke-opacity:1;stroke-miterlimit:10" d="m1150.234 1937.422-100.586-148.477 254.375-423.867" transform="matrix(.1 0 0 -.1 0 200)"/><path style="stroke:none;fill-rule:nonzero;fill:#b5d7f1;fill-opacity:1" d="m70.367.879 34.598 20.226 10.058-14.847"/><path style="fill:none;stroke-width:6.64;stroke-linecap:round;stroke-linejoin:round;stroke:#000;stroke-opacity:1;stroke-miterlimit:10" d="m703.672 1991.21 345.976-202.265 100.586 148.477Zm0 0" transform="matrix(.1 0 0 -.1 0 200)"/><path style="fill-rule:nonzero;fill:#000;fill-opacity:1;stroke-width:6.64;stroke-linecap:round;stroke-linejoin:round;stroke:#000;stroke-opacity:1;stroke-miterlimit:10" d="M361.25 150.547 241.016 445.82 47.422 849.297" transform="matrix(.1 0 0 -.1 0 200)"/><path style="stroke:none;fill-rule:nonzero;fill:#7e386c;fill-opacity:1" d="m65.766 182.75-41.664-27.332 12.023 29.527"/><path style="fill:none;stroke-width:6.64;stroke-linecap:round;stroke-linejoin:round;stroke:#000;stroke-opacity:1;stroke-miterlimit:10" d="m657.656 172.5-416.64 273.32L361.25 150.547Zm0 0" transform="matrix(.1 0 0 -.1 0 200)"/><path style="fill-rule:nonzero;fill:#e7c0af;fill-opacity:1;stroke-width:6.64;stroke-linecap:round;stroke-linejoin:round;stroke:#000;stroke-opacity:1;stroke-miterlimit:10" d="m1541.016 804.492 5.273 475.86-242.266 84.726" transform="matrix(.1 0 0 -.1 0 200)"/><path style="fill-rule:nonzero;fill:#7b6bb5;fill-opacity:1;stroke-width:6.64;stroke-linecap:round;stroke-linejoin:round;stroke:#000;stroke-opacity:1;stroke-miterlimit:10" d="m64.492 1328.047-17.07-478.75 288.594 49.805M336.016 899.102l15.39 496.992-286.914-68.047" transform="matrix(.1 0 0 -.1 0 200)"/><path style="stroke:none;fill-rule:nonzero;fill:#7772c0;fill-opacity:1" d="M28.324 24.297 6.45 67.195l28.692-6.804"/><path style="fill:none;stroke-width:6.64;stroke-linecap:round;stroke-linejoin:round;stroke:#000;stroke-opacity:1;stroke-miterlimit:10" d="m283.242 1757.031-218.75-428.984 286.914 68.047Zm0 0" transform="matrix(.1 0 0 -.1 0 200)"/><path style="fill-rule:nonzero;fill:#e7c0af;fill-opacity:1;stroke-width:6.64;stroke-linecap:round;stroke-linejoin:round;stroke:#000;stroke-opacity:1;stroke-miterlimit:10" d="m1304.023 1365.078-7.5-495.117 244.493-65.469" transform="matrix(.1 0 0 -.1 0 200)"/><path style="stroke:none;fill-rule:nonzero;fill:#dfa08f;fill-opacity:1" d="m154.102 119.55-24.45-6.546-17.82 72.16"/><path style="fill:none;stroke-width:6.64;stroke-linecap:round;stroke-linejoin:round;stroke:#000;stroke-opacity:1;stroke-miterlimit:10" d="m1541.016 804.492-244.493 65.469" transform="matrix(.1 0 0 -.1 0 200)"/><path style="fill-rule:nonzero;fill:#a6a0cf;fill-opacity:1;stroke-width:6.64;stroke-linecap:round;stroke-linejoin:round;stroke:#000;stroke-opacity:1;stroke-miterlimit:10" d="m837.148 1411.406 212.5 377.54-345.976 202.265" transform="matrix(.1 0 0 -.1 0 200)"/><path style="stroke:none;fill-rule:nonzero;fill:#a6a0cf;fill-opacity:1" d="m35.14 60.39 48.575-1.53L70.367.878"/><path style="fill:none;stroke-width:6.64;stroke-linecap:round;stroke-linejoin:round;stroke:#000;stroke-opacity:1;stroke-miterlimit:10" d="m351.406 1396.094 485.742 15.312" transform="matrix(.1 0 0 -.1 0 200)"/><path style="fill-rule:nonzero;fill:#a6a0cf;fill-opacity:1;stroke-width:6.64;stroke-linecap:round;stroke-linejoin:round;stroke:#000;stroke-opacity:1;stroke-miterlimit:10" d="m703.672 1991.21-420.43-234.179 68.164-360.937" transform="matrix(.1 0 0 -.1 0 200)"/><path style="stroke:none;fill-rule:nonzero;fill:#7e63a9;fill-opacity:1" d="m24.102 155.418 9.5-45.328-28.86 4.98"/><path style="fill:none;stroke-width:6.64;stroke-linecap:round;stroke-linejoin:round;stroke:#000;stroke-opacity:1;stroke-miterlimit:10" d="m241.016 445.82 95 453.282-288.594-49.805Zm0 0" transform="matrix(.1 0 0 -.1 0 200)"/><path style="stroke:none;fill-rule:nonzero;fill:#bb7786;fill-opacity:1" d="m111.832 185.164-9.477-30.16-36.59 27.746"/><path style="fill:none;stroke-width:6.64;stroke-linecap:round;stroke-linejoin:round;stroke:#000;stroke-opacity:1;stroke-miterlimit:10" d="m1118.32 148.36-94.765 301.6L657.656 172.5Zm0 0" transform="matrix(.1 0 0 -.1 0 200)"/><path style="fill-rule:nonzero;fill:#dfa08f;fill-opacity:1;stroke-width:6.64;stroke-linecap:round;stroke-linejoin:round;stroke:#000;stroke-opacity:1;stroke-miterlimit:10" d="m1296.523 869.96-272.968-420 94.765-301.6" transform="matrix(.1 0 0 -.1 0 200)"/><path style="stroke:none;fill-rule:nonzero;fill:#c3abc2;fill-opacity:1" d="M104.965 21.105 83.715 58.86l46.687 4.633"/><path style="fill:none;stroke-width:6.64;stroke-linecap:round;stroke-linejoin:round;stroke:#000;stroke-opacity:1;stroke-miterlimit:10" d="m1049.648 1788.945-212.5-377.539 466.875-46.328Zm0 0" transform="matrix(.1 0 0 -.1 0 200)"/><path style="fill-rule:nonzero;fill:#a980a7;fill-opacity:1;stroke-width:6.64;stroke-linecap:round;stroke-linejoin:round;stroke:#000;stroke-opacity:1;stroke-miterlimit:10" d="m336.016 899.102-95-453.282 416.64-273.32" transform="matrix(.1 0 0 -.1 0 200)"/><path style="stroke:none;fill-rule:nonzero;fill:#a980a7;fill-opacity:1" d="m82.566 109.219-48.964.87 32.164 72.661"/><path style="fill:none;stroke-width:6.64;stroke-linecap:round;stroke-linejoin:round;stroke:#000;stroke-opacity:1;stroke-miterlimit:10" d="m825.664 907.813-489.648-8.711" transform="matrix(.1 0 0 -.1 0 200)"/><path style="fill-rule:nonzero;fill:#a980a7;fill-opacity:1;stroke-width:6.64;stroke-linecap:round;stroke-linejoin:round;stroke:#000;stroke-opacity:1;stroke-miterlimit:10" d="m657.656 172.5 365.899 277.46-197.89 457.853" transform="matrix(.1 0 0 -.1 0 200)"/><path style="fill-rule:nonzero;fill:#c3a4ba;fill-opacity:1;stroke-width:6.64;stroke-linecap:round;stroke-linejoin:round;stroke:#000;stroke-opacity:1;stroke-miterlimit:10" d="m1296.523 869.96 7.5 495.118-466.875 46.328" transform="matrix(.1 0 0 -.1 0 200)"/><path style="fill-rule:nonzero;fill:#a98fba;fill-opacity:1;stroke-width:6.64;stroke-linecap:round;stroke-linejoin:round;stroke:#000;stroke-opacity:1;stroke-miterlimit:10" d="m351.406 1396.094-15.39-496.992 489.648 8.71M825.664 907.813l11.484 503.593-485.742-15.312" transform="matrix(.1 0 0 -.1 0 200)"/><path style="fill-rule:nonzero;fill:#c3a4ba;fill-opacity:1;stroke-width:6.64;stroke-linecap:round;stroke-linejoin:round;stroke:#000;stroke-opacity:1;stroke-miterlimit:10" d="m837.148 1411.406-11.484-503.593 470.86-37.852" transform="matrix(.1 0 0 -.1 0 200)"/><path style="stroke:none;fill-rule:nonzero;fill:#c29db2;fill-opacity:1" d="m102.355 155.004 27.297-42-47.086-3.785"/><path style="fill:none;stroke-width:6.64;stroke-linecap:round;stroke-linejoin:round;stroke:#000;stroke-opacity:1;stroke-miterlimit:10" d="m1023.555 449.96 272.968 420-470.859 37.852Zm0 0" transform="matrix(.1 0 0 -.1 0 200)"/></svg>