<svg xmlns="http://www.w3.org/2000/svg" width="192" height="200pt" viewBox="0 0 144 200" version="1.2"><path style="fill-rule:nonzero;fill:#966b9e;fill-opacity:1;stroke-width:6.12;stroke-linecap:round;stroke-linejoin:round;stroke:#000;stroke-opacity:1;stroke-miterlimit:10" d="m1249.531 1556.055 161.602-612.305-516.211-5.742" transform="matrix(.1 0 0 -.1 0 200)"/><path style="fill-rule:nonzero;fill:#966b9e;fill-opacity:1;stroke-width:6.12;stroke-linecap:round;stroke-linejoin:round;stroke:#000;stroke-opacity:1;stroke-miterlimit:10" d="m894.922 938.008-165.43 585.976 520.04 32.07" transform="matrix(.1 0 0 -.1 0 200)"/><path style="fill-rule:nonzero;fill:#c399ac;fill-opacity:1;stroke-width:6.12;stroke-linecap:round;stroke-linejoin:round;stroke:#000;stroke-opacity:1;stroke-miterlimit:10" d="m729.492 1523.984 165.43-585.976-564.024-229.102" transform="matrix(.1 0 0 -.1 0 200)"/><path style="stroke:none;fill-rule:nonzero;fill:#be9fb9;fill-opacity:1" d="m82.29 168.523-49.2-39.414 56.402-22.91"/><path style="fill:none;stroke-width:6.12;stroke-linecap:round;stroke-linejoin:round;stroke:#000;stroke-opacity:1;stroke-miterlimit:10" d="m822.89 314.766-491.992 394.14 564.024 229.102Zm0 0" transform="matrix(.1 0 0 -.1 0 200)"/><path style="fill-rule:nonzero;fill:#9682bb;fill-opacity:1;stroke-width:6.12;stroke-linecap:round;stroke-linejoin:round;stroke:#000;stroke-opacity:1;stroke-miterlimit:10" d="m894.922 938.008 516.21 5.742-69.335-650.742M1341.797 293.008 822.89 314.766l72.03 623.242" transform="matrix(.1 0 0 -.1 0 200)"/><path style="fill-rule:nonzero;fill:#d7e0dd;fill-opacity:1;stroke-width:6.12;stroke-linecap:round;stroke-linejoin:round;stroke:#000;stroke-opacity:1;stroke-miterlimit:10" d="m229.453 454.727 101.445 254.18 491.993-394.141M822.89 314.766 755.47 36.796l-526.016 417.93" transform="matrix(.1 0 0 -.1 0 200)"/><path style="stroke:none;fill-rule:nonzero;fill:#8bb1ef;fill-opacity:1" d="m82.29 168.523 51.89 2.176-58.633 25.621"/><path style="fill:none;stroke-width:6.12;stroke-linecap:round;stroke-linejoin:round;stroke:#000;stroke-opacity:1;stroke-miterlimit:10" d="m822.89 314.766 518.907-21.758L755.469 36.797Zm0 0" transform="matrix(.1 0 0 -.1 0 200)"/><path style="fill-rule:nonzero;fill:#c399ac;fill-opacity:1;stroke-width:6.12;stroke-linecap:round;stroke-linejoin:round;stroke:#000;stroke-opacity:1;stroke-miterlimit:10" d="M330.898 708.906 150 1302.344l579.492 221.64" transform="matrix(.1 0 0 -.1 0 200)"/><path style="fill-rule:nonzero;fill:#fbe1a4;fill-opacity:1;stroke-width:6.12;stroke-linecap:round;stroke-linejoin:round;stroke:#000;stroke-opacity:1;stroke-miterlimit:10" d="m150 1302.344 180.898-593.438-101.445-254.18" transform="matrix(.1 0 0 -.1 0 200)"/><path style="stroke:none;fill-rule:nonzero;fill:#c6909c;fill-opacity:1" d="m36.266 10.54 36.683 37.062L15 69.766"/><path style="fill:none;stroke-width:6.12;stroke-linecap:round;stroke-linejoin:round;stroke:#000;stroke-opacity:1;stroke-miterlimit:10" d="m362.656 1894.61 366.836-370.626L150 1302.344Zm0 0" transform="matrix(.1 0 0 -.1 0 200)"/><path style="fill-rule:nonzero;fill:#904369;fill-opacity:1;stroke-width:6.12;stroke-linecap:round;stroke-linejoin:round;stroke:#000;stroke-opacity:1;stroke-miterlimit:10" d="m1249.531 1556.055-520.039-32.07-366.836 370.624" transform="matrix(.1 0 0 -.1 0 200)"/><path style="fill-rule:nonzero;fill:#fbe1a4;fill-opacity:1;stroke-width:6.12;stroke-linecap:round;stroke-linejoin:round;stroke:#000;stroke-opacity:1;stroke-miterlimit:10" d="M229.453 454.727 33.75 1083.477 150 1302.344" transform="matrix(.1 0 0 -.1 0 200)"/><path style="fill-rule:nonzero;fill:#cd7500;fill-opacity:1;stroke-width:6.12;stroke-linecap:round;stroke-linejoin:round;stroke:#000;stroke-opacity:1;stroke-miterlimit:10" d="M150 1302.344 33.75 1083.477l224.61 628.398" transform="matrix(.1 0 0 -.1 0 200)"/><path style="fill-rule:nonzero;fill:#cd7500;fill-opacity:1;stroke-width:6.12;stroke-linecap:round;stroke-linejoin:round;stroke:#000;stroke-opacity:1;stroke-miterlimit:10" d="m258.36 1711.875 104.296 182.734L150 1302.344" transform="matrix(.1 0 0 -.1 0 200)"/><path style="fill-rule:nonzero;fill:#f4e37f;fill-opacity:1;stroke-width:6.12;stroke-linecap:round;stroke-linejoin:round;stroke:#000;stroke-opacity:1;stroke-miterlimit:10" d="m1208.398 1349.727 173.711-650 29.024 244.023" transform="matrix(.1 0 0 -.1 0 200)"/><path style="fill-rule:nonzero;fill:#f4e37f;fill-opacity:1;stroke-width:6.12;stroke-linecap:round;stroke-linejoin:round;stroke:#000;stroke-opacity:1;stroke-miterlimit:10" d="m1411.133 943.75-161.602 612.305-41.133-206.328" transform="matrix(.1 0 0 -.1 0 200)"/><path style="stroke:none;fill-rule:nonzero;fill:#b88600;fill-opacity:1" d="m134.18 170.7 6.933-65.075-2.902 24.402"/><path style="fill:none;stroke-width:6.12;stroke-linecap:round;stroke-linejoin:round;stroke:#000;stroke-opacity:1;stroke-miterlimit:10" d="m1341.797 293.008 69.336 650.742-29.024-244.023Zm0 0" transform="matrix(.1 0 0 -.1 0 200)"/><path style="fill-rule:nonzero;fill:#cc7e78;fill-opacity:1;stroke-width:6.12;stroke-linecap:round;stroke-linejoin:round;stroke:#000;stroke-opacity:1;stroke-miterlimit:10" d="m755.469 36.797 586.328 256.21 40.312 406.72" transform="matrix(.1 0 0 -.1 0 200)"/><path style="fill-rule:nonzero;fill:#904369;fill-opacity:1;stroke-width:6.12;stroke-linecap:round;stroke-linejoin:round;stroke:#000;stroke-opacity:1;stroke-miterlimit:10" d="m362.656 1894.61 528.516 50.976 358.36-389.531" transform="matrix(.1 0 0 -.1 0 200)"/><path style="stroke:none;fill-rule:nonzero;fill:#ecf7c4;fill-opacity:1" d="m89.117 5.441 31.723 59.586 4.113-20.632"/><path style="fill:none;stroke-width:6.12;stroke-linecap:round;stroke-linejoin:round;stroke:#000;stroke-opacity:1;stroke-miterlimit:10" d="m891.172 1945.586 317.226-595.86 41.133 206.329Zm0 0" transform="matrix(.1 0 0 -.1 0 200)"/><path style="stroke:none;fill-rule:nonzero;fill:#60b0fa;fill-opacity:1" d="M89.117 5.441 36.266 10.54l-10.43 18.273"/><path style="fill:none;stroke-width:6.12;stroke-linecap:round;stroke-linejoin:round;stroke:#000;stroke-opacity:1;stroke-miterlimit:10" d="m891.172 1945.586-528.516-50.977-104.297-182.734Zm0 0" transform="matrix(.1 0 0 -.1 0 200)"/><path style="stroke:none;fill-rule:nonzero;fill:#8a497a;fill-opacity:1" d="m75.547 196.32.687-40.11-53.289-1.683"/><path style="fill:none;stroke-width:6.12;stroke-linecap:round;stroke-linejoin:round;stroke:#000;stroke-opacity:1;stroke-miterlimit:10" d="m755.469 36.797 6.875 401.094-532.89 16.836Zm0 0" transform="matrix(.1 0 0 -.1 0 200)"/><path style="fill-rule:nonzero;fill:#cc7e78;fill-opacity:1;stroke-width:6.12;stroke-linecap:round;stroke-linejoin:round;stroke:#000;stroke-opacity:1;stroke-miterlimit:10" d="M1382.11 699.727 762.343 437.89l-6.875-401.094" transform="matrix(.1 0 0 -.1 0 200)"/><path style="fill-rule:nonzero;fill:#8f6399;fill-opacity:1;stroke-width:6.12;stroke-linecap:round;stroke-linejoin:round;stroke:#000;stroke-opacity:1;stroke-miterlimit:10" d="m33.75 1083.477 195.703-628.75 532.89-16.836" transform="matrix(.1 0 0 -.1 0 200)"/><path style="fill-rule:nonzero;fill:#8f6399;fill-opacity:1;stroke-width:6.12;stroke-linecap:round;stroke-linejoin:round;stroke:#000;stroke-opacity:1;stroke-miterlimit:10" d="m762.344 437.89-192.578 659.141-536.016-13.554" transform="matrix(.1 0 0 -.1 0 200)"/><path style="stroke:none;fill-rule:nonzero;fill:#9072ad;fill-opacity:1" d="M25.836 28.813 3.375 91.653l53.602-1.356"/><path style="fill:none;stroke-width:6.12;stroke-linecap:round;stroke-linejoin:round;stroke:#000;stroke-opacity:1;stroke-miterlimit:10" d="M258.36 1711.875 33.75 1083.477l536.016 13.554Zm0 0" transform="matrix(.1 0 0 -.1 0 200)"/><path style="fill-rule:nonzero;fill:#c599ab;fill-opacity:1;stroke-width:6.12;stroke-linecap:round;stroke-linejoin:round;stroke:#000;stroke-opacity:1;stroke-miterlimit:10" d="m569.766 1097.031 192.578-659.14 619.765 261.836M1382.11 699.727l-173.712 650-638.632-252.696" transform="matrix(.1 0 0 -.1 0 200)"/><path style="fill-rule:nonzero;fill:#bba6c4;fill-opacity:1;stroke-width:6.12;stroke-linecap:round;stroke-linejoin:round;stroke:#000;stroke-opacity:1;stroke-miterlimit:10" d="m569.766 1097.031 638.632 252.696-317.226 595.859" transform="matrix(.1 0 0 -.1 0 200)"/><path style="fill-rule:nonzero;fill:#bba6c4;fill-opacity:1;stroke-width:6.12;stroke-linecap:round;stroke-linejoin:round;stroke:#000;stroke-opacity:1;stroke-miterlimit:10" d="m891.172 1945.586-632.813-233.711 311.407-614.844" transform="matrix(.1 0 0 -.1 0 200)"/></svg>