<svg xmlns="http://www.w3.org/2000/svg" width="256.92" height="251.307" viewBox="0 0 192.69 188.48" version="1.2"><defs><clipPath id="a"><path d="M.11 0H90v69H.11Zm0 0"/></clipPath><clipPath id="b"><path d="M.11 9H85v70H.11Zm0 0"/></clipPath><clipPath id="c"><path d="M.11 68H100v82H.11Zm0 0"/></clipPath><clipPath id="d"><path d="M.11 68H101v83H.11Zm0 0"/></clipPath><clipPath id="e"><path d="M.11 78H100v84H.11Zm0 0"/></clipPath><clipPath id="f"><path d="M.11 78H101v84H.11Zm0 0"/></clipPath><clipPath id="g"><path d="M.11 9H17v70H.11Zm0 0"/></clipPath><clipPath id="h"><path d="M.11 21H33v97H.11Zm0 0"/></clipPath><clipPath id="i"><path d="M14 161h110v26.96H14Zm0 0"/></clipPath><clipPath id="j"><path d="M13 161h112v26.96H13Zm0 0"/></clipPath><clipPath id="k"><path d="M.11 78H33v109.96H.11Zm0 0"/></clipPath><clipPath id="l"><path d="M30 116h4v71.96h-4Zm0 0"/></clipPath><clipPath id="m"><path d="M.11 78H31v109.96H.11Zm0 0"/></clipPath><clipPath id="n"><path d="M88 0h104.27v59H88Zm0 0"/></clipPath><clipPath id="o"><path d="M161 43h31.27v85H161Zm0 0"/></clipPath><clipPath id="p"><path d="M131 57h61.27v71H131Zm0 0"/></clipPath><clipPath id="q"><path d="M88 0h104.27v59H88Zm0 0"/></clipPath><clipPath id="r"><path d="M.11 0H90v22H.11Zm0 0"/></clipPath><clipPath id="s"><path d="M30 104h103v83.96H30Zm0 0"/></clipPath><clipPath id="t"><path d="M30 103h103v84.96H30Zm0 0"/></clipPath><clipPath id="u"><path d="M112 10h80.27v95H112Zm0 0"/></clipPath><clipPath id="v"><path d="M30 104h103v83.96H30Zm0 0"/></clipPath><clipPath id="w"><path d="M30 103h103v84.96H30Zm0 0"/></clipPath></defs><path style="stroke:none;fill-rule:nonzero;fill:#b58e93;fill-opacity:1" d="M161.895 43.426 84.16 68.582 89.313.372l72.582 43.054"/><path style="fill:none;stroke-width:7.5;stroke-linecap:round;stroke-linejoin:round;stroke:#231f20;stroke-opacity:1;stroke-miterlimit:10" d="m1622.304 1449.344-779.489-252.256 51.666 683.99Zm0 0" transform="matrix(.09972 0 0 -.09972 .11 187.961)"/><path style="fill-rule:nonzero;fill:#b09ab1;fill-opacity:1;stroke-width:7.5;stroke-linecap:round;stroke-linejoin:round;stroke:#231f20;stroke-opacity:1;stroke-miterlimit:10" d="m999.575 382.346-156.76 814.742 779.489 252.256" transform="matrix(.09972 0 0 -.09972 .11 187.961)"/><g clip-path="url(#a)"><path style="fill-rule:nonzero;fill:#c29692;fill-opacity:1;stroke-width:7.5;stroke-linecap:round;stroke-linejoin:round;stroke:#231f20;stroke-opacity:1;stroke-miterlimit:10" d="m4.102 1790.204 890.379 90.875-51.666-683.991" transform="matrix(.09972 0 0 -.09972 .11 187.961)"/></g><g clip-path="url(#b)"><path style="fill-rule:nonzero;fill:#c29692;fill-opacity:1;stroke-width:7.5;stroke-linecap:round;stroke-linejoin:round;stroke:#231f20;stroke-opacity:1;stroke-miterlimit:10" d="M842.815 1197.088 3.75 1098.026l.353 692.178" transform="matrix(.09972 0 0 -.09972 .11 187.961)"/></g><g clip-path="url(#c)"><path style="stroke:none;fill-rule:nonzero;fill:#c3afbd;fill-opacity:1" d="m.484 78.46 83.676-9.878 15.633 81.25"/></g><g clip-path="url(#d)"><path style="fill:none;stroke-width:7.5;stroke-linecap:round;stroke-linejoin:round;stroke:#231f20;stroke-opacity:1;stroke-miterlimit:10" d="m3.749 1098.026 839.066 99.062 156.76-814.742" transform="matrix(.09972 0 0 -.09972 .11 187.961)"/></g><g clip-path="url(#e)"><path style="stroke:none;fill-rule:nonzero;fill:#c3afbd;fill-opacity:1" d="m99.793 149.832-85.61 11.79L.485 78.46"/></g><g clip-path="url(#f)"><path style="fill:none;stroke-width:7.5;stroke-linecap:round;stroke-linejoin:round;stroke:#231f20;stroke-opacity:1;stroke-miterlimit:10" d="M999.575 382.346 141.119 264.13 3.75 1098.026" transform="matrix(.09972 0 0 -.09972 .11 187.961)"/></g><g clip-path="url(#g)"><path style="fill-rule:nonzero;fill:#484055;fill-opacity:1;stroke-width:7.5;stroke-linecap:round;stroke-linejoin:round;stroke:#231f20;stroke-opacity:1;stroke-miterlimit:10" d="M160.743 1671.361 4.102 1790.204l-.353-692.178" transform="matrix(.09972 0 0 -.09972 .11 187.961)"/></g><g clip-path="url(#h)"><path style="stroke:none;fill-rule:nonzero;fill:#484055;fill-opacity:1" d="M32.707 117.043 16.141 21.285.484 78.461"/></g><path style="fill:none;stroke-width:7.5;stroke-linecap:round;stroke-linejoin:round;stroke:#231f20;stroke-opacity:1;stroke-miterlimit:10" d="m326.865 711.141-166.122 960.22" transform="matrix(.09972 0 0 -.09972 .11 187.961)"/><path style="fill-rule:nonzero;fill:#8fb0e0;fill-opacity:1;stroke-width:7.5;stroke-linecap:round;stroke-linejoin:round;stroke:#231f20;stroke-opacity:1;stroke-miterlimit:10" d="m141.12 264.13 858.455 118.216 240.74-243.678" transform="matrix(.09972 0 0 -.09972 .11 187.961)"/><g clip-path="url(#i)"><path style="stroke:none;fill-rule:nonzero;fill:#8fb0e0;fill-opacity:1" d="m123.8 174.133-93.265 13.453-16.351-25.965"/></g><g clip-path="url(#j)"><path style="fill:none;stroke-width:7.5;stroke-linecap:round;stroke-linejoin:round;stroke:#231f20;stroke-opacity:1;stroke-miterlimit:10" d="M1240.315 138.668 305.085 3.765 141.12 264.13" transform="matrix(.09972 0 0 -.09972 .11 187.961)"/></g><g clip-path="url(#k)"><path style="stroke:none;fill-rule:nonzero;fill:#484055;fill-opacity:1" d="m30.535 187.586 2.172-70.543L.484 78.461"/></g><g clip-path="url(#l)"><path style="fill:none;stroke-width:7.5;stroke-linecap:round;stroke-linejoin:round;stroke:#231f20;stroke-opacity:1;stroke-miterlimit:10" d="m305.086 3.765 21.779 707.376" transform="matrix(.09972 0 0 -.09972 .11 187.961)"/></g><g clip-path="url(#m)"><path style="fill-rule:nonzero;fill:#484055;fill-opacity:1;stroke-width:7.5;stroke-linecap:round;stroke-linejoin:round;stroke:#231f20;stroke-opacity:1;stroke-miterlimit:10" d="m3.749 1098.026 137.37-833.896L305.086 3.765" transform="matrix(.09972 0 0 -.09972 .11 187.961)"/></g><path style="stroke:none;fill-rule:nonzero;fill:#8397cd;fill-opacity:1" d="m180.164 126.676-56.363 47.457-24.008-24.301 80.371-23.156"/><path style="fill:none;stroke-width:7.5;stroke-linecap:round;stroke-linejoin:round;stroke:#231f20;stroke-opacity:1;stroke-miterlimit:10" d="m1805.503 614.547-565.188-475.88-240.74 243.679Zm0 0" transform="matrix(.09972 0 0 -.09972 .11 187.961)"/><path style="fill-rule:nonzero;fill:#b09ab1;fill-opacity:1;stroke-width:7.5;stroke-linecap:round;stroke-linejoin:round;stroke:#231f20;stroke-opacity:1;stroke-miterlimit:10" d="m1622.304 1449.344 183.2-834.797-805.93-232.201" transform="matrix(.09972 0 0 -.09972 .11 187.961)"/><path style="stroke:none;fill-rule:nonzero;fill:#231f20;fill-opacity:1" d="m191.895 57.863-30-14.437L89.312.37"/><g clip-path="url(#n)"><path style="fill:none;stroke-width:7.5;stroke-linecap:round;stroke-linejoin:round;stroke:#231f20;stroke-opacity:1;stroke-miterlimit:10" d="m1923.131 1304.57-300.827 144.774L894.48 1881.08" transform="matrix(.09972 0 0 -.09972 .11 187.961)"/></g><path style="stroke:none;fill-rule:nonzero;fill:#665277;fill-opacity:1" d="m180.164 126.676-18.27-83.25 30 14.437-11.73 68.813"/><g clip-path="url(#o)"><path style="fill:none;stroke-width:7.5;stroke-linecap:round;stroke-linejoin:round;stroke:#231f20;stroke-opacity:1;stroke-miterlimit:10" d="m1805.503 614.547-183.2 834.797 300.828-144.773Zm0 0" transform="matrix(.09972 0 0 -.09972 .11 187.961)"/></g><path style="fill-rule:nonzero;fill:#e5a274;fill-opacity:1;stroke-width:7.5;stroke-linecap:round;stroke-linejoin:round;stroke:#231f20;stroke-opacity:1;stroke-miterlimit:10" d="m1326.216 838.954-85.9-700.286 565.187 475.88" transform="matrix(.09972 0 0 -.09972 .11 187.961)"/><path style="stroke:none;fill-rule:nonzero;fill:#e5a274;fill-opacity:1" d="m180.164 126.676 11.73-68.813-59.527 46.434"/><g clip-path="url(#p)"><path style="fill:none;stroke-width:7.5;stroke-linecap:round;stroke-linejoin:round;stroke:#231f20;stroke-opacity:1;stroke-miterlimit:10" d="m1805.503 614.547 117.628 690.024-596.915-465.617" transform="matrix(.09972 0 0 -.09972 .11 187.961)"/></g><path style="stroke:none;fill-rule:nonzero;fill:#231f20;fill-opacity:1" d="m89.313.371 23.882 10.703 78.7 46.79"/><g clip-path="url(#q)"><path style="fill:none;stroke-width:7.5;stroke-linecap:round;stroke-linejoin:round;stroke:#231f20;stroke-opacity:1;stroke-miterlimit:10" d="m894.481 1881.079 239.487-107.327 789.163-469.181" transform="matrix(.09972 0 0 -.09972 .11 187.961)"/></g><path style="fill-rule:nonzero;fill:#5ea2da;fill-opacity:1;stroke-width:7.5;stroke-linecap:round;stroke-linejoin:round;stroke:#231f20;stroke-opacity:1;stroke-miterlimit:10" d="m160.743 1671.361 973.225 102.391-239.487 107.327" transform="matrix(.09972 0 0 -.09972 .11 187.961)"/><g clip-path="url(#r)"><path style="fill-rule:nonzero;fill:#5ea2da;fill-opacity:1;stroke-width:7.5;stroke-linecap:round;stroke-linejoin:round;stroke:#231f20;stroke-opacity:1;stroke-miterlimit:10" d="m894.481 1881.079-890.38-90.875 156.642-118.843" transform="matrix(.09972 0 0 -.09972 .11 187.961)"/></g><g clip-path="url(#s)"><path style="stroke:none;fill-rule:nonzero;fill:#c3918a;fill-opacity:1" d="m30.535 187.586 93.266-13.453 8.566-69.836"/></g><g clip-path="url(#t)"><path style="fill:none;stroke-width:7.5;stroke-linecap:round;stroke-linejoin:round;stroke:#231f20;stroke-opacity:1;stroke-miterlimit:10" d="m305.086 3.765 935.23 134.903 85.9 700.286" transform="matrix(.09972 0 0 -.09972 .11 187.961)"/></g><path style="stroke:none;fill-rule:nonzero;fill:#d1bfc4;fill-opacity:1" d="m191.895 57.863-78.7-46.789 19.172 93.223 59.528-46.434"/><g clip-path="url(#u)"><path style="fill:none;stroke-width:7.5;stroke-linecap:round;stroke-linejoin:round;stroke:#231f20;stroke-opacity:1;stroke-miterlimit:10" d="m1923.131 1304.57-789.163 469.182 192.248-934.798Zm0 0" transform="matrix(.09972 0 0 -.09972 .11 187.961)"/></g><g clip-path="url(#v)"><path style="stroke:none;fill-rule:nonzero;fill:#c3918a;fill-opacity:1" d="m132.367 104.297-99.66 12.746-2.172 70.543"/></g><g clip-path="url(#w)"><path style="fill:none;stroke-width:7.5;stroke-linecap:round;stroke-linejoin:round;stroke:#231f20;stroke-opacity:1;stroke-miterlimit:10" d="M1326.216 838.954 326.865 711.14 305.085 3.765" transform="matrix(.09972 0 0 -.09972 .11 187.961)"/></g><path style="fill-rule:nonzero;fill:#c4b1bf;fill-opacity:1;stroke-width:7.5;stroke-linecap:round;stroke-linejoin:round;stroke:#231f20;stroke-opacity:1;stroke-miterlimit:10" d="m326.865 711.141 999.35 127.813-192.247 934.798M1133.968 1773.752l-973.225-102.39 166.122-960.22" transform="matrix(.09972 0 0 -.09972 .11 187.961)"/></svg>