<svg xmlns="http://www.w3.org/2000/svg" width="160pt" height="200pt" viewBox="0 0 160 200" version="1.2"><path style="fill-rule:nonzero;fill:#a88fbb;fill-opacity:1;stroke-width:6.68;stroke-linecap:round;stroke-linejoin:round;stroke:#000;stroke-opacity:1;stroke-miterlimit:10" d="m812.656 639.18 13.516 434.258 422.656 16.914" transform="matrix(.1 0 0 -.1 0 200)"/><path style="fill-rule:nonzero;fill:#bea0ba;fill-opacity:1;stroke-width:6.68;stroke-linecap:round;stroke-linejoin:round;stroke:#000;stroke-opacity:1;stroke-miterlimit:10" d="M826.172 1073.438 812.656 639.18l-429.023 35" transform="matrix(.1 0 0 -.1 0 200)"/><path style="fill-rule:nonzero;fill:#bea0ba;fill-opacity:1;stroke-width:6.68;stroke-linecap:round;stroke-linejoin:round;stroke:#000;stroke-opacity:1;stroke-miterlimit:10" d="m383.633 674.18 17.305 439.297 425.234-40.04" transform="matrix(.1 0 0 -.1 0 200)"/><path style="stroke:none;fill-rule:nonzero;fill:#be9bb4;fill-opacity:1" d="m64.785 52.492 17.832 40.164-42.523-4.004"/><path style="fill:none;stroke-width:6.68;stroke-linecap:round;stroke-linejoin:round;stroke:#000;stroke-opacity:1;stroke-miterlimit:10" d="m647.852 1475.078 178.32-401.64-425.235 40.039Zm0 0" transform="matrix(.1 0 0 -.1 0 200)"/><path style="fill-rule:nonzero;fill:#a982ab;fill-opacity:1;stroke-width:6.68;stroke-linecap:round;stroke-linejoin:round;stroke:#000;stroke-opacity:1;stroke-miterlimit:10" d="m826.172 1073.438-178.32 401.64 311.171 276.524" transform="matrix(.1 0 0 -.1 0 200)"/><path style="stroke:none;fill-rule:nonzero;fill:#a982ab;fill-opacity:1" d="m124.883 90.965-42.266 1.691L95.902 24.84"/><path style="fill:none;stroke-width:6.68;stroke-linecap:round;stroke-linejoin:round;stroke:#000;stroke-opacity:1;stroke-miterlimit:10" d="m1248.828 1090.352-422.656-16.915" transform="matrix(.1 0 0 -.1 0 200)"/><path style="fill-rule:nonzero;fill:#d39e9e;fill-opacity:1;stroke-width:6.68;stroke-linecap:round;stroke-linejoin:round;stroke:#000;stroke-opacity:1;stroke-miterlimit:10" d="m525.703 1801.016 122.149-325.938-246.914-361.601" transform="matrix(.1 0 0 -.1 0 200)"/><path style="stroke:none;fill-rule:nonzero;fill:#b98095;fill-opacity:1" d="M95.902 24.84 64.785 52.492 52.57 19.898"/><path style="fill:none;stroke-width:6.68;stroke-linecap:round;stroke-linejoin:round;stroke:#000;stroke-opacity:1;stroke-miterlimit:10" d="m959.023 1751.602-311.171-276.524-122.149 325.938Zm0 0" transform="matrix(.1 0 0 -.1 0 200)"/><path style="fill-rule:nonzero;fill:#a88fbb;fill-opacity:1;stroke-width:6.68;stroke-linecap:round;stroke-linejoin:round;stroke:#000;stroke-opacity:1;stroke-miterlimit:10" d="m1248.828 1090.352-10.039-440.196-426.133-10.976" transform="matrix(.1 0 0 -.1 0 200)"/><path style="stroke:none;fill-rule:nonzero;fill:#a894c2;fill-opacity:1" d="m99.176 172.34-17.91-36.258 42.613-1.098"/><path style="fill:none;stroke-width:6.68;stroke-linecap:round;stroke-linejoin:round;stroke:#000;stroke-opacity:1;stroke-miterlimit:10" d="M991.758 276.602 812.656 639.18l426.133 10.976Zm0 0" transform="matrix(.1 0 0 -.1 0 200)"/><path style="fill-rule:nonzero;fill:#beb0cc;fill-opacity:1;stroke-width:6.68;stroke-linecap:round;stroke-linejoin:round;stroke:#000;stroke-opacity:1;stroke-miterlimit:10" d="m812.656 639.18 179.102-362.578L666.016 73.398" transform="matrix(.1 0 0 -.1 0 200)"/><path style="stroke:none;fill-rule:nonzero;fill:#beb0cc;fill-opacity:1" d="m38.363 132.582 42.903 3.5-14.664 56.578"/><path style="fill:none;stroke-width:6.68;stroke-linecap:round;stroke-linejoin:round;stroke:#000;stroke-opacity:1;stroke-miterlimit:10" d="m383.633 674.18 429.023-35" transform="matrix(.1 0 0 -.1 0 200)"/><path style="fill-rule:nonzero;fill:#d9b5b4;fill-opacity:1;stroke-width:6.68;stroke-linecap:round;stroke-linejoin:round;stroke:#000;stroke-opacity:1;stroke-miterlimit:10" d="M400.938 1113.477 383.632 674.18 90.43 745.352M90.43 745.352l20.507 453.906 290-85.781" transform="matrix(.1 0 0 -.1 0 200)"/><path style="stroke:none;fill-rule:nonzero;fill:#d39e9e;fill-opacity:1" d="m40.094 88.652-29-8.578L52.57 19.898"/><path style="fill:none;stroke-width:6.68;stroke-linecap:round;stroke-linejoin:round;stroke:#000;stroke-opacity:1;stroke-miterlimit:10" d="m400.938 1113.477-290 85.78" transform="matrix(.1 0 0 -.1 0 200)"/><path style="fill-rule:nonzero;fill:#8271b6;fill-opacity:1;stroke-width:6.68;stroke-linecap:round;stroke-linejoin:round;stroke:#000;stroke-opacity:1;stroke-miterlimit:10" d="m1238.79 650.156 10.038 440.196 282.344 70.43" transform="matrix(.1 0 0 -.1 0 200)"/><path style="fill-rule:nonzero;fill:#a982ab;fill-opacity:1;stroke-width:6.68;stroke-linecap:round;stroke-linejoin:round;stroke:#000;stroke-opacity:1;stroke-miterlimit:10" d="m959.023 1751.602 378.282-239.688-88.477-421.562" transform="matrix(.1 0 0 -.1 0 200)"/><path style="stroke:none;fill-rule:nonzero;fill:#856bad;fill-opacity:1" d="m133.73 48.809 19.387 35.113-28.234 7.043"/><path style="fill:none;stroke-width:6.68;stroke-linecap:round;stroke-linejoin:round;stroke:#000;stroke-opacity:1;stroke-miterlimit:10" d="m1337.305 1511.914 193.867-351.133-282.344-70.43Zm0 0" transform="matrix(.1 0 0 -.1 0 200)"/><path style="fill-rule:nonzero;fill:#beb0cc;fill-opacity:1;stroke-width:6.68;stroke-linecap:round;stroke-linejoin:round;stroke:#000;stroke-opacity:1;stroke-miterlimit:10" d="M666.016 73.398 280.898 327.383 383.633 674.18" transform="matrix(.1 0 0 -.1 0 200)"/><path style="stroke:none;fill-rule:nonzero;fill:#dabebd;fill-opacity:1" d="M28.09 167.262 9.043 125.465l29.32 7.117"/><path style="fill:none;stroke-width:6.68;stroke-linecap:round;stroke-linejoin:round;stroke:#000;stroke-opacity:1;stroke-miterlimit:10" d="M280.898 327.383 90.43 745.352l293.203-71.172Zm0 0" transform="matrix(.1 0 0 -.1 0 200)"/><path style="fill-rule:nonzero;fill:#8271b6;fill-opacity:1;stroke-width:6.68;stroke-linecap:round;stroke-linejoin:round;stroke:#000;stroke-opacity:1;stroke-miterlimit:10" d="m1531.172 1160.781-7.852-455.468-284.53-55.157" transform="matrix(.1 0 0 -.1 0 200)"/><path style="stroke:none;fill-rule:nonzero;fill:#7882d0;fill-opacity:1" d="m123.879 134.984 28.453-5.515-41.277 62.867"/><path style="fill:none;stroke-width:6.68;stroke-linecap:round;stroke-linejoin:round;stroke:#000;stroke-opacity:1;stroke-miterlimit:10" d="m1238.79 650.156 284.53 55.157" transform="matrix(.1 0 0 -.1 0 200)"/><path style="fill-rule:nonzero;fill:#7882d0;fill-opacity:1;stroke-width:6.68;stroke-linecap:round;stroke-linejoin:round;stroke:#000;stroke-opacity:1;stroke-miterlimit:10" d="m1110.547 76.64-118.79 199.962 247.032 373.554" transform="matrix(.1 0 0 -.1 0 200)"/><path style="stroke:none;fill-rule:nonzero;fill:#8f5485;fill-opacity:1" d="m123.348 15.344 10.382 33.465-37.828-23.97"/><path style="fill:none;stroke-width:6.68;stroke-linecap:round;stroke-linejoin:round;stroke:#000;stroke-opacity:1;stroke-miterlimit:10" d="m1233.477 1846.563 103.828-334.649-378.282 239.688Zm0 0" transform="matrix(.1 0 0 -.1 0 200)"/><path style="fill-rule:nonzero;fill:#922531;fill-opacity:1;stroke-width:6.68;stroke-linecap:round;stroke-linejoin:round;stroke:#000;stroke-opacity:1;stroke-miterlimit:10" d="m959.023 1751.602-433.32 49.414-19.101 131.093" transform="matrix(.1 0 0 -.1 0 200)"/><path style="stroke:none;fill-rule:nonzero;fill:#922531;fill-opacity:1" d="M123.348 15.344 95.902 24.84 50.66 6.79"/><path style="fill:none;stroke-width:6.68;stroke-linecap:round;stroke-linejoin:round;stroke:#000;stroke-opacity:1;stroke-miterlimit:10" d="m1233.477 1846.563-274.454-94.961" transform="matrix(.1 0 0 -.1 0 200)"/><path style="fill-rule:nonzero;fill:#000030;fill-opacity:1;stroke-width:6.68;stroke-linecap:round;stroke-linejoin:round;stroke:#000;stroke-opacity:1;stroke-miterlimit:10" d="m1531.172 1160.781-193.867 351.133-103.828 334.649" transform="matrix(.1 0 0 -.1 0 200)"/><path style="stroke:none;fill-rule:nonzero;fill:#9eb2e6;fill-opacity:1" d="m66.602 192.66 32.574-20.32 11.879 19.996"/><path style="fill:none;stroke-width:6.68;stroke-linecap:round;stroke-linejoin:round;stroke:#000;stroke-opacity:1;stroke-miterlimit:10" d="m666.016 73.398 325.742 203.204L1110.547 76.64Zm0 0" transform="matrix(.1 0 0 -.1 0 200)"/><path style="stroke:none;fill-rule:nonzero;fill:#d06339;fill-opacity:1" d="M52.57 19.898 18.582 36.34 50.66 6.79"/><path style="fill:none;stroke-width:6.68;stroke-linecap:round;stroke-linejoin:round;stroke:#000;stroke-opacity:1;stroke-miterlimit:10" d="M525.703 1801.016 185.82 1636.602l320.782 295.507Zm0 0" transform="matrix(.1 0 0 -.1 0 200)"/><path style="fill-rule:nonzero;fill:#d39e9e;fill-opacity:1;stroke-width:6.68;stroke-linecap:round;stroke-linejoin:round;stroke:#000;stroke-opacity:1;stroke-miterlimit:10" d="m110.938 1199.258 74.882 437.344 339.883 164.414" transform="matrix(.1 0 0 -.1 0 200)"/><path style="fill-rule:nonzero;fill:#efc047;fill-opacity:1;stroke-width:6.68;stroke-linecap:round;stroke-linejoin:round;stroke:#000;stroke-opacity:1;stroke-miterlimit:10" d="M110.938 1199.258 90.43 745.352l-39.493 85.43" transform="matrix(.1 0 0 -.1 0 200)"/><path style="fill-rule:nonzero;fill:#efc047;fill-opacity:1;stroke-width:6.68;stroke-linecap:round;stroke-linejoin:round;stroke:#000;stroke-opacity:1;stroke-miterlimit:10" d="m50.938 830.781 21.835 473.75 38.165-105.273" transform="matrix(.1 0 0 -.1 0 200)"/><path style="stroke:none;fill-rule:nonzero;fill:#f7af44;fill-opacity:1" d="m18.582 36.34-7.488 43.734-3.817-10.527"/><path style="fill:none;stroke-width:6.68;stroke-linecap:round;stroke-linejoin:round;stroke:#000;stroke-opacity:1;stroke-miterlimit:10" d="m185.82 1636.602-74.882-437.344-38.165 105.273Zm0 0" transform="matrix(.1 0 0 -.1 0 200)"/><path style="fill-rule:nonzero;fill:#000032;fill-opacity:1;stroke-width:6.68;stroke-linecap:round;stroke-linejoin:round;stroke:#000;stroke-opacity:1;stroke-miterlimit:10" d="m1523.32 705.313 7.852 455.468 26.523 103.828" transform="matrix(.1 0 0 -.1 0 200)"/><path style="stroke:none;fill-rule:nonzero;fill:#000030;fill-opacity:1" d="m155.77 73.54-2.653 10.382-29.77-68.578"/><path style="fill:none;stroke-width:6.68;stroke-linecap:round;stroke-linejoin:round;stroke:#000;stroke-opacity:1;stroke-miterlimit:10" d="m1557.695 1264.61-26.523-103.829" transform="matrix(.1 0 0 -.1 0 200)"/><path style="stroke:none;fill-rule:nonzero;fill:#caebec;fill-opacity:1" d="m37.246 187.469-9.156-20.207 38.512 25.398"/><path style="fill:none;stroke-width:6.68;stroke-linecap:round;stroke-linejoin:round;stroke:#000;stroke-opacity:1;stroke-miterlimit:10" d="m372.46 125.313-91.562 202.07L666.016 73.398Zm0 0" transform="matrix(.1 0 0 -.1 0 200)"/><path style="fill-rule:nonzero;fill:#a5c44c;fill-opacity:1;stroke-width:6.68;stroke-linecap:round;stroke-linejoin:round;stroke:#000;stroke-opacity:1;stroke-miterlimit:10" d="m90.43 745.352 190.468-417.97 91.563-202.07" transform="matrix(.1 0 0 -.1 0 200)"/><path style="stroke:none;fill-rule:nonzero;fill:#570000;fill-opacity:1" d="m66.602 192.66 44.453-.324-46.63-8.754"/><path style="fill:none;stroke-width:6.68;stroke-linecap:round;stroke-linejoin:round;stroke:#000;stroke-opacity:1;stroke-miterlimit:10" d="m666.016 73.398 444.53 3.243" transform="matrix(.1 0 0 -.1 0 200)"/><path style="fill-rule:nonzero;fill:#570000;fill-opacity:1;stroke-width:6.68;stroke-linecap:round;stroke-linejoin:round;stroke:#000;stroke-opacity:1;stroke-miterlimit:10" d="M644.258 164.18 372.46 125.312l293.555-51.914" transform="matrix(.1 0 0 -.1 0 200)"/><path style="stroke:none;fill-rule:nonzero;fill:#a5c44c;fill-opacity:1" d="m5.094 116.922 3.949 8.543 28.203 62.004"/><path style="fill:none;stroke-width:6.68;stroke-linecap:round;stroke-linejoin:round;stroke:#000;stroke-opacity:1;stroke-miterlimit:10" d="m50.938 830.781 39.492-85.43" transform="matrix(.1 0 0 -.1 0 200)"/><path style="fill-rule:nonzero;fill:#000032;fill-opacity:1;stroke-width:6.68;stroke-linecap:round;stroke-linejoin:round;stroke:#000;stroke-opacity:1;stroke-miterlimit:10" d="m1557.695 1264.61-7.968-475.508-26.407-83.79" transform="matrix(.1 0 0 -.1 0 200)"/><path style="stroke:none;fill-rule:nonzero;fill:#000036;fill-opacity:1" d="m145.125 165.402 7.207-35.933 2.64-8.38"/><path style="fill:none;stroke-width:6.68;stroke-linecap:round;stroke-linejoin:round;stroke:#000;stroke-opacity:1;stroke-miterlimit:10" d="m1451.25 345.977 72.07 359.336 26.407 83.789Zm0 0" transform="matrix(.1 0 0 -.1 0 200)"/><path style="fill-rule:nonzero;fill:#7882d0;fill-opacity:1;stroke-width:6.68;stroke-linecap:round;stroke-linejoin:round;stroke:#000;stroke-opacity:1;stroke-miterlimit:10" d="m1523.32 705.313-72.07-359.336L1110.547 76.64" transform="matrix(.1 0 0 -.1 0 200)"/><path style="fill-rule:nonzero;fill:#000030;fill-opacity:1;stroke-width:6.68;stroke-linecap:round;stroke-linejoin:round;stroke:#000;stroke-opacity:1;stroke-miterlimit:10" d="m1233.477 1846.563 132.617-139.61 191.601-442.344" transform="matrix(.1 0 0 -.1 0 200)"/><path style="fill-rule:nonzero;fill:#922531;fill-opacity:1;stroke-width:6.68;stroke-linecap:round;stroke-linejoin:round;stroke:#000;stroke-opacity:1;stroke-miterlimit:10" d="m506.602 1932.11 453.086 31.132 273.789-116.68" transform="matrix(.1 0 0 -.1 0 200)"/><path style="stroke:none;fill-rule:nonzero;fill:#adf9e1;fill-opacity:1" d="m95.969 3.676 40.64 25.629-13.261-13.961"/><path style="fill:none;stroke-width:6.68;stroke-linecap:round;stroke-linejoin:round;stroke:#000;stroke-opacity:1;stroke-miterlimit:10" d="m959.688 1963.242 406.406-256.289-132.617 139.61Zm0 0" transform="matrix(.1 0 0 -.1 0 200)"/><path style="fill-rule:nonzero;fill:#5e77d3;fill-opacity:1;stroke-width:6.68;stroke-linecap:round;stroke-linejoin:round;stroke:#000;stroke-opacity:1;stroke-miterlimit:10" d="M506.602 1932.11 185.82 1636.601l-113.047-332.07" transform="matrix(.1 0 0 -.1 0 200)"/><path style="stroke:none;fill-rule:nonzero;fill:#a91d00;fill-opacity:1" d="m111.055 192.336 34.07-26.934-33.32 21.38"/><path style="fill:none;stroke-width:6.68;stroke-linecap:round;stroke-linejoin:round;stroke:#000;stroke-opacity:1;stroke-miterlimit:10" d="m1110.547 76.64 340.703 269.337-333.203-213.79Zm0 0" transform="matrix(.1 0 0 -.1 0 200)"/><path style="fill-rule:nonzero;fill:#570000;fill-opacity:1;stroke-width:6.68;stroke-linecap:round;stroke-linejoin:round;stroke:#000;stroke-opacity:1;stroke-miterlimit:10" d="m1110.547 76.64 7.5 55.547-473.79 31.993" transform="matrix(.1 0 0 -.1 0 200)"/><path style="stroke:none;fill-rule:nonzero;fill:#8cbaf4;fill-opacity:1" d="m50.66 6.79 10.414 13.897L95.97 3.677"/><path style="fill:none;stroke-width:6.68;stroke-linecap:round;stroke-linejoin:round;stroke:#000;stroke-opacity:1;stroke-miterlimit:10" d="m506.602 1932.11 104.14-138.985 348.946 170.117Zm0 0" transform="matrix(.1 0 0 -.1 0 200)"/><path style="fill-rule:nonzero;fill:#5e77d3;fill-opacity:1;stroke-width:6.68;stroke-linecap:round;stroke-linejoin:round;stroke:#000;stroke-opacity:1;stroke-miterlimit:10" d="m332.969 1389.14 277.773 403.985-104.14 138.984" transform="matrix(.1 0 0 -.1 0 200)"/><path style="stroke:none;fill-rule:nonzero;fill:#5e77d3;fill-opacity:1" d="m7.277 69.547 26.02-8.461L50.66 6.789"/><path style="fill:none;stroke-width:6.68;stroke-linecap:round;stroke-linejoin:round;stroke:#000;stroke-opacity:1;stroke-miterlimit:10" d="m72.773 1304.531 260.196 84.61" transform="matrix(.1 0 0 -.1 0 200)"/><path style="fill-rule:nonzero;fill:#d99f97;fill-opacity:1;stroke-width:6.68;stroke-linecap:round;stroke-linejoin:round;stroke:#000;stroke-opacity:1;stroke-miterlimit:10" d="m1118.047 132.188 333.203 213.789 98.477 443.125" transform="matrix(.1 0 0 -.1 0 200)"/><path style="fill-rule:nonzero;fill:#a5c44c;fill-opacity:1;stroke-width:6.68;stroke-linecap:round;stroke-linejoin:round;stroke:#000;stroke-opacity:1;stroke-miterlimit:10" d="m372.46 125.313-142.42 311.68L50.937 830.78" transform="matrix(.1 0 0 -.1 0 200)"/><path style="stroke:none;fill-rule:nonzero;fill:#7d3a70;fill-opacity:1" d="m64.426 183.582-41.422-27.281 14.242 31.168"/><path style="fill:none;stroke-width:6.68;stroke-linecap:round;stroke-linejoin:round;stroke:#000;stroke-opacity:1;stroke-miterlimit:10" d="M644.258 164.18 230.039 436.992l142.422-311.68Zm0 0" transform="matrix(.1 0 0 -.1 0 200)"/><path style="fill-rule:nonzero;fill:#7366b5;fill-opacity:1;stroke-width:6.68;stroke-linecap:round;stroke-linejoin:round;stroke:#000;stroke-opacity:1;stroke-miterlimit:10" d="m72.773 1304.531-21.835-473.75 261.914 66.836M312.852 897.617l20.117 491.524-260.196-84.61" transform="matrix(.1 0 0 -.1 0 200)"/><path style="fill-rule:nonzero;fill:#e1bcb3;fill-opacity:1;stroke-width:6.68;stroke-linecap:round;stroke-linejoin:round;stroke:#000;stroke-opacity:1;stroke-miterlimit:10" d="m1549.727 789.102 7.968 475.507-271.797 99.063" transform="matrix(.1 0 0 -.1 0 200)"/><path style="stroke:none;fill-rule:nonzero;fill:#e2c9be;fill-opacity:1" d="m136.61 29.305-8.02 34.328 27.18 9.906"/><path style="fill:none;stroke-width:6.68;stroke-linecap:round;stroke-linejoin:round;stroke:#000;stroke-opacity:1;stroke-miterlimit:10" d="m1366.094 1706.953-80.196-343.281 271.797-99.063Zm0 0" transform="matrix(.1 0 0 -.1 0 200)"/><path style="fill-rule:nonzero;fill:#bfb5d0;fill-opacity:1;stroke-width:6.68;stroke-linecap:round;stroke-linejoin:round;stroke:#000;stroke-opacity:1;stroke-miterlimit:10" d="m1285.898 1363.672 80.196 343.281-406.407 256.29" transform="matrix(.1 0 0 -.1 0 200)"/><path style="stroke:none;fill-rule:nonzero;fill:#bfb5d0;fill-opacity:1" d="m80.691 58.66 47.899 4.973L95.969 3.676"/><path style="fill:none;stroke-width:6.68;stroke-linecap:round;stroke-linejoin:round;stroke:#000;stroke-opacity:1;stroke-miterlimit:10" d="m806.914 1413.398 478.984-49.726" transform="matrix(.1 0 0 -.1 0 200)"/><path style="fill-rule:nonzero;fill:#bfb5d0;fill-opacity:1;stroke-width:6.68;stroke-linecap:round;stroke-linejoin:round;stroke:#000;stroke-opacity:1;stroke-miterlimit:10" d="m959.688 1963.242-348.946-170.117 196.172-379.727" transform="matrix(.1 0 0 -.1 0 200)"/><path style="stroke:none;fill-rule:nonzero;fill:#785fa9;fill-opacity:1" d="m23.004 156.3 8.281-46.062-26.191 6.684"/><path style="fill:none;stroke-width:6.68;stroke-linecap:round;stroke-linejoin:round;stroke:#000;stroke-opacity:1;stroke-miterlimit:10" d="m230.04 436.992 82.812 460.625-261.914-66.836Zm0 0" transform="matrix(.1 0 0 -.1 0 200)"/><path style="fill-rule:nonzero;fill:#e1bcb3;fill-opacity:1;stroke-width:6.68;stroke-linecap:round;stroke-linejoin:round;stroke:#000;stroke-opacity:1;stroke-miterlimit:10" d="m1285.898 1363.672-10.937-492.617 274.766-81.953" transform="matrix(.1 0 0 -.1 0 200)"/><path style="stroke:none;fill-rule:nonzero;fill:#d99f97;fill-opacity:1" d="m154.973 121.09-27.477-8.195-15.691 73.886"/><path style="fill:none;stroke-width:6.68;stroke-linecap:round;stroke-linejoin:round;stroke:#000;stroke-opacity:1;stroke-miterlimit:10" d="m1549.727 789.102-274.766 81.953" transform="matrix(.1 0 0 -.1 0 200)"/><path style="stroke:none;fill-rule:nonzero;fill:#b97a8c;fill-opacity:1" d="m111.805 186.781-12.102-31.98-35.277 28.781"/><path style="fill:none;stroke-width:6.68;stroke-linecap:round;stroke-linejoin:round;stroke:#000;stroke-opacity:1;stroke-miterlimit:10" d="M1118.047 132.188 997.03 451.991 644.258 164.18Zm0 0" transform="matrix(.1 0 0 -.1 0 200)"/><path style="fill-rule:nonzero;fill:#d99f97;fill-opacity:1;stroke-width:6.68;stroke-linecap:round;stroke-linejoin:round;stroke:#000;stroke-opacity:1;stroke-miterlimit:10" d="M1274.96 871.055 997.032 451.992l121.016-319.805" transform="matrix(.1 0 0 -.1 0 200)"/><path style="stroke:none;fill-rule:nonzero;fill:#a594c4;fill-opacity:1" d="M61.074 20.688 33.297 61.086 80.69 58.66"/><path style="fill:none;stroke-width:6.68;stroke-linecap:round;stroke-linejoin:round;stroke:#000;stroke-opacity:1;stroke-miterlimit:10" d="M610.742 1793.125 332.97 1389.141l473.945 24.257Zm0 0" transform="matrix(.1 0 0 -.1 0 200)"/><path style="fill-rule:nonzero;fill:#a780a9;fill-opacity:1;stroke-width:6.68;stroke-linecap:round;stroke-linejoin:round;stroke:#000;stroke-opacity:1;stroke-miterlimit:10" d="m312.852 897.617-82.813-460.625L644.258 164.18" transform="matrix(.1 0 0 -.1 0 200)"/><path style="stroke:none;fill-rule:nonzero;fill:#a780a9;fill-opacity:1" d="m79.113 108.57-47.828 1.668 33.14 73.344"/><path style="fill:none;stroke-width:6.68;stroke-linecap:round;stroke-linejoin:round;stroke:#000;stroke-opacity:1;stroke-miterlimit:10" d="m791.133 914.297-478.281-16.68" transform="matrix(.1 0 0 -.1 0 200)"/><path style="fill-rule:nonzero;fill:#a780a9;fill-opacity:1;stroke-width:6.68;stroke-linecap:round;stroke-linejoin:round;stroke:#000;stroke-opacity:1;stroke-miterlimit:10" d="M644.258 164.18 997.03 451.992 791.133 914.297" transform="matrix(.1 0 0 -.1 0 200)"/><path style="fill-rule:nonzero;fill:#a68ebc;fill-opacity:1;stroke-width:6.68;stroke-linecap:round;stroke-linejoin:round;stroke:#000;stroke-opacity:1;stroke-miterlimit:10" d="m332.969 1389.14-20.117-491.523 478.28 16.68M791.133 914.297l15.781 499.101-473.945-24.257" transform="matrix(.1 0 0 -.1 0 200)"/><path style="fill-rule:nonzero;fill:#c0a2bb;fill-opacity:1;stroke-width:6.68;stroke-linecap:round;stroke-linejoin:round;stroke:#000;stroke-opacity:1;stroke-miterlimit:10" d="m1274.96 871.055 10.938 492.617-478.984 49.726" transform="matrix(.1 0 0 -.1 0 200)"/><path style="fill-rule:nonzero;fill:#c0a2bb;fill-opacity:1;stroke-width:6.68;stroke-linecap:round;stroke-linejoin:round;stroke:#000;stroke-opacity:1;stroke-miterlimit:10" d="m806.914 1413.398-15.781-499.101 483.828-43.242" transform="matrix(.1 0 0 -.1 0 200)"/><path style="stroke:none;fill-rule:nonzero;fill:#bf9cb4;fill-opacity:1" d="m99.703 154.8 27.793-41.905-48.383-4.325"/><path style="fill:none;stroke-width:6.68;stroke-linecap:round;stroke-linejoin:round;stroke:#000;stroke-opacity:1;stroke-miterlimit:10" d="m997.031 451.992 277.93 419.063-483.828 43.242Zm0 0" transform="matrix(.1 0 0 -.1 0 200)"/></svg>