<svg xmlns="http://www.w3.org/2000/svg" width="243.28" height="246.08" viewBox="0 0 182.46 184.56" version="1.2"><defs><clipPath id="a"><path d="M77 126h55v58.066H77Zm0 0"/></clipPath><clipPath id="b"><path d="M46 126h58v58.066H46Zm0 0"/></clipPath><clipPath id="c"><path d="M151 35h30.922v53H151Zm0 0"/></clipPath><clipPath id="d"><path d="M150 35h31.922v54H150Zm0 0"/></clipPath><clipPath id="e"><path d="M151 70h30.922v55H151Zm0 0"/></clipPath><clipPath id="f"><path d="M150 69h31.922v57H150Zm0 0"/></clipPath><clipPath id="g"><path d="M102 144h48v40.066h-48Zm0 0"/></clipPath><clipPath id="h"><path d="M37 .055h77V30H37Zm0 0"/></clipPath><clipPath id="i"><path d="M98 .055h58V36H98Zm0 0"/></clipPath><clipPath id="j"><path d="M97 .055h59V36H97Zm0 0"/></clipPath><clipPath id="k"><path d="M46 161h58v23.066H46Zm0 0"/></clipPath><clipPath id="l"><path d="M37 .055h77V30H37Zm0 0"/></clipPath><clipPath id="m"><path d="M113 .055h68.922V71H113Zm0 0"/></clipPath><clipPath id="n"><path d="M112 .055h69.922V71H112Zm0 0"/></clipPath><clipPath id="o"><path d="M153 70h28.922v55H153Zm0 0"/></clipPath><clipPath id="p"><path d="M153 69h28.922v57H153Zm0 0"/></clipPath><clipPath id="q"><path d="M79 164h71v20.066H79Zm0 0"/></clipPath><clipPath id="r"><path d="M45 .055h93V35H45Zm0 0"/></clipPath><clipPath id="s"><path d="M113 .055h68.922V71H113Zm0 0"/></clipPath><clipPath id="t"><path d="M112 .055h69.922V71H112Zm0 0"/></clipPath><clipPath id="u"><path d="M137 34h44.922v75H137Zm0 0"/></clipPath><clipPath id="v"><path d="M136 33h45.922v76H136Zm0 0"/></clipPath></defs><path style="fill-rule:nonzero;fill:#976ba2;fill-opacity:1;stroke-width:5.4;stroke-linecap:round;stroke-linejoin:round;stroke:#231f20;stroke-opacity:1;stroke-miterlimit:10" d="m1557.643 1490.198-573.293 151.15-4.976-514.605M979.374 1126.743l537.563-162.511 40.706 525.966" transform="matrix(.0997 0 0 -.0997 0 184.068)"/><path style="fill-rule:nonzero;fill:#c2899d;fill-opacity:1;stroke-width:5.4;stroke-linecap:round;stroke-linejoin:round;stroke:#231f20;stroke-opacity:1;stroke-miterlimit:10" d="m407.962 1031.07 571.412 95.673 4.976 514.604" transform="matrix(.0997 0 0 -.0997 0 184.068)"/><path style="fill-rule:nonzero;fill:#a495c9;fill-opacity:1;stroke-width:5.4;stroke-linecap:round;stroke-linejoin:round;stroke:#231f20;stroke-opacity:1;stroke-miterlimit:10" d="m1315.914 389.685 201.023 574.547-537.563 162.51" transform="matrix(.0997 0 0 -.0997 0 184.068)"/><path style="fill-rule:nonzero;fill:#a495c9;fill-opacity:1;stroke-width:5.4;stroke-linecap:round;stroke-linejoin:round;stroke:#231f20;stroke-opacity:1;stroke-miterlimit:10" d="m979.374 1126.743-197.77-550.766 534.31-186.292" transform="matrix(.0997 0 0 -.0997 0 184.068)"/><path style="stroke:none;fill-rule:nonzero;fill:#c0a1bf;fill-opacity:1" d="M40.676 81.266 77.93 126.64l19.718-54.914-56.972 9.539"/><path style="fill:none;stroke-width:5.4;stroke-linecap:round;stroke-linejoin:round;stroke:#231f20;stroke-opacity:1;stroke-miterlimit:10" d="m407.962 1031.07 373.641-455.093 197.771 550.766Zm0 0" transform="matrix(.0997 0 0 -.0997 0 184.068)"/><path style="stroke:none;fill-rule:nonzero;fill:#abbfe6;fill-opacity:1" d="m103.082 183.8 28.121-38.585L77.93 126.64"/><g clip-path="url(#a)"><path style="fill:none;stroke-width:5.4;stroke-linecap:round;stroke-linejoin:round;stroke:#231f20;stroke-opacity:1;stroke-miterlimit:10" d="m1033.871 2.684 282.043 387-534.31 186.293" transform="matrix(.0997 0 0 -.0997 0 184.068)"/></g><path style="stroke:none;fill-rule:nonzero;fill:#abbfe6;fill-opacity:1" d="m77.93 126.64-31.07 35.516 56.222 21.645"/><g clip-path="url(#b)"><path style="fill:none;stroke-width:5.4;stroke-linecap:round;stroke-linejoin:round;stroke:#231f20;stroke-opacity:1;stroke-miterlimit:10" d="M781.603 575.977 469.981 219.769 1033.87 2.684" transform="matrix(.0997 0 0 -.0997 0 184.068)"/></g><path style="fill-rule:nonzero;fill:#d5c4cf;fill-opacity:1;stroke-width:5.4;stroke-linecap:round;stroke-linejoin:round;stroke:#231f20;stroke-opacity:1;stroke-miterlimit:10" d="m469.98 219.77 311.623 356.207-373.641 455.093" transform="matrix(.0997 0 0 -.0997 0 184.068)"/><path style="fill-rule:nonzero;fill:#edb08f;fill-opacity:1;stroke-width:5.4;stroke-linecap:round;stroke-linejoin:round;stroke:#231f20;stroke-opacity:1;stroke-miterlimit:10" d="m2.703 1247.45 59.042-542.499 346.217 326.119" transform="matrix(.0997 0 0 -.0997 0 184.068)"/><path style="fill-rule:nonzero;fill:#edb08f;fill-opacity:1;stroke-width:5.4;stroke-linecap:round;stroke-linejoin:round;stroke:#231f20;stroke-opacity:1;stroke-miterlimit:10" d="m407.962 1031.07-31.97 521.382L2.703 1247.45" transform="matrix(.0997 0 0 -.0997 0 184.068)"/><path style="fill-rule:nonzero;fill:#c2899d;fill-opacity:1;stroke-width:5.4;stroke-linecap:round;stroke-linejoin:round;stroke:#231f20;stroke-opacity:1;stroke-miterlimit:10" d="m984.35 1641.347-608.358-88.895 31.97-521.382" transform="matrix(.0997 0 0 -.0997 0 184.068)"/><path style="fill-rule:nonzero;fill:#d5c4cf;fill-opacity:1;stroke-width:5.4;stroke-linecap:round;stroke-linejoin:round;stroke:#231f20;stroke-opacity:1;stroke-miterlimit:10" d="M407.962 1031.07 61.745 704.95 469.98 219.77" transform="matrix(.0997 0 0 -.0997 0 184.068)"/><g clip-path="url(#c)"><path style="stroke:none;fill-rule:nonzero;fill:#3a3490;fill-opacity:1" d="m181.656 70.11-26.351-34.622-4.059 52.442"/></g><g clip-path="url(#d)"><path style="fill:none;stroke-width:5.4;stroke-linecap:round;stroke-linejoin:round;stroke:#231f20;stroke-opacity:1;stroke-miterlimit:10" d="m1821.939 1142.962-264.296 347.236-40.706-525.966" transform="matrix(.0997 0 0 -.0997 0 184.068)"/></g><g clip-path="url(#e)"><path style="stroke:none;fill-rule:nonzero;fill:#3a3490;fill-opacity:1" d="m151.246 87.93 24.211 36.91 6.2-54.73"/></g><g clip-path="url(#f)"><path style="fill:none;stroke-width:5.4;stroke-linecap:round;stroke-linejoin:round;stroke:#231f20;stroke-opacity:1;stroke-miterlimit:10" d="m1516.937 964.232 242.826-370.194 62.176 548.924" transform="matrix(.0997 0 0 -.0997 0 184.068)"/></g><path style="stroke:none;fill-rule:nonzero;fill:#747ec7;fill-opacity:1" d="m151.246 87.93-20.043 57.285 44.254-20.375-24.21-36.91"/><path style="fill:none;stroke-width:5.4;stroke-linecap:round;stroke-linejoin:round;stroke:#231f20;stroke-opacity:1;stroke-miterlimit:10" d="m1516.937 964.232-201.023-574.547 443.85 204.353Zm0 0" transform="matrix(.0997 0 0 -.0997 0 184.068)"/><path style="fill-rule:nonzero;fill:#3388d0;fill-opacity:1;stroke-width:5.4;stroke-linecap:round;stroke-linejoin:round;stroke:#231f20;stroke-opacity:1;stroke-miterlimit:10" d="m1492.764 191.875 267 402.163-443.85-204.353" transform="matrix(.0997 0 0 -.0997 0 184.068)"/><path style="stroke:none;fill-rule:nonzero;fill:#3388d0;fill-opacity:1" d="M131.203 145.215 103.082 183.8l45.754-18.863"/><g clip-path="url(#g)"><path style="fill:none;stroke-width:5.4;stroke-linecap:round;stroke-linejoin:round;stroke:#231f20;stroke-opacity:1;stroke-miterlimit:10" d="M1315.914 389.685 1033.871 2.684l458.893 189.19" transform="matrix(.0997 0 0 -.0997 0 184.068)"/></g><g clip-path="url(#h)"><path style="fill-rule:nonzero;fill:#9b2d25;fill-opacity:1;stroke-width:5.4;stroke-linecap:round;stroke-linejoin:round;stroke:#231f20;stroke-opacity:1;stroke-miterlimit:10" d="m375.992 1552.452 608.358 88.895 149.347 201.532" transform="matrix(.0997 0 0 -.0997 0 184.068)"/></g><g clip-path="url(#i)"><path style="stroke:none;fill-rule:nonzero;fill:#731841;fill-opacity:1" d="M155.305 35.488 113.035.324l-14.89 20.094 57.16 15.07"/></g><g clip-path="url(#j)"><path style="fill:none;stroke-width:5.4;stroke-linecap:round;stroke-linejoin:round;stroke:#231f20;stroke-opacity:1;stroke-miterlimit:10" d="m1557.643 1490.198-423.946 352.681-149.347-201.532Zm0 0" transform="matrix(.0997 0 0 -.0997 0 184.068)"/></g><path style="stroke:none;fill-rule:nonzero;fill:#5ac9d9;fill-opacity:1" d="m79.777 179.488 23.305 4.313-56.223-21.645"/><g clip-path="url(#k)"><path style="fill:none;stroke-width:5.4;stroke-linecap:round;stroke-linejoin:round;stroke:#231f20;stroke-opacity:1;stroke-miterlimit:10" d="m800.134 45.936 233.737-43.252-563.89 217.085" transform="matrix(.0997 0 0 -.0997 0 184.068)"/></g><path style="fill-rule:nonzero;fill:#5ac9d9;fill-opacity:1;stroke-width:5.4;stroke-linecap:round;stroke-linejoin:round;stroke:#231f20;stroke-opacity:1;stroke-miterlimit:10" d="m469.98 219.77-286 65.544L800.134 45.936" transform="matrix(.0997 0 0 -.0997 0 184.068)"/><path style="stroke:none;fill-rule:nonzero;fill:#e3f0d0;fill-opacity:1" d="m6.156 113.781 12.188 41.84 28.515 6.535-40.703-48.375"/><path style="fill:none;stroke-width:5.4;stroke-linecap:round;stroke-linejoin:round;stroke:#231f20;stroke-opacity:1;stroke-miterlimit:10" d="M61.745 704.951 183.98 285.314l286-65.545Zm0 0" transform="matrix(.0997 0 0 -.0997 0 184.068)"/><path style="stroke:none;fill-rule:nonzero;fill:#bb5027;fill-opacity:1" d="M45.602 9.672.27 59.692l37.218-30.41 8.114-19.61"/><path style="fill:none;stroke-width:5.4;stroke-linecap:round;stroke-linejoin:round;stroke:#231f20;stroke-opacity:1;stroke-miterlimit:10" d="M457.365 1749.126 2.703 1247.45l373.29 305.002Zm0 0" transform="matrix(.0997 0 0 -.0997 0 184.068)"/><g clip-path="url(#l)"><path style="fill-rule:nonzero;fill:#9b2d25;fill-opacity:1;stroke-width:5.4;stroke-linecap:round;stroke-linejoin:round;stroke:#231f20;stroke-opacity:1;stroke-miterlimit:10" d="m1133.697 1842.88-676.332-93.754-81.373-196.674" transform="matrix(.0997 0 0 -.0997 0 184.068)"/></g><path style="fill-rule:nonzero;fill:#151425;fill-opacity:1;stroke-width:5.4;stroke-linecap:round;stroke-linejoin:round;stroke:#231f20;stroke-opacity:1;stroke-miterlimit:10" d="m128.426 850.302 55.554-564.988L61.745 704.951" transform="matrix(.0997 0 0 -.0997 0 184.068)"/><path style="fill-rule:nonzero;fill:#151425;fill-opacity:1;stroke-width:5.4;stroke-linecap:round;stroke-linejoin:round;stroke:#231f20;stroke-opacity:1;stroke-miterlimit:10" d="m61.745 704.951-59.042 542.5L128.426 850.3" transform="matrix(.0997 0 0 -.0997 0 184.068)"/><g clip-path="url(#m)"><path style="stroke:none;fill-rule:nonzero;fill:#b7e5bc;fill-opacity:1" d="m113.035.324 42.27 35.164 26.351 34.621"/></g><g clip-path="url(#n)"><path style="fill:none;stroke-width:5.4;stroke-linecap:round;stroke-linejoin:round;stroke:#231f20;stroke-opacity:1;stroke-miterlimit:10" d="m1133.697 1842.88 423.946-352.682 264.296-347.236" transform="matrix(.0997 0 0 -.0997 0 184.068)"/></g><g clip-path="url(#o)"><path style="stroke:none;fill-rule:nonzero;fill:#f3a958;fill-opacity:1" d="m153.512 108.176 28.144-38.067-6.199 54.73"/></g><g clip-path="url(#p)"><path style="fill:none;stroke-width:5.4;stroke-linecap:round;stroke-linejoin:round;stroke:#231f20;stroke-opacity:1;stroke-miterlimit:10" d="m1539.66 761.172 282.279 381.79-62.176-548.924" transform="matrix(.0997 0 0 -.0997 0 184.068)"/></g><path style="fill-rule:nonzero;fill:#f3a958;fill-opacity:1;stroke-width:5.4;stroke-linecap:round;stroke-linejoin:round;stroke:#231f20;stroke-opacity:1;stroke-miterlimit:10" d="m1759.763 594.038-266.999-402.163 46.896 569.297" transform="matrix(.0997 0 0 -.0997 0 184.068)"/><path style="stroke:none;fill-rule:nonzero;fill:#832123;fill-opacity:1" d="m103.082 183.8-23.305-4.312 69.059-14.55-45.754 18.863"/><g clip-path="url(#q)"><path style="fill:none;stroke-width:5.4;stroke-linecap:round;stroke-linejoin:round;stroke:#231f20;stroke-opacity:1;stroke-miterlimit:10" d="M1033.871 2.684 800.134 45.936l692.63 145.939Zm0 0" transform="matrix(.0997 0 0 -.0997 0 184.068)"/></g><path style="fill-rule:nonzero;fill:#5b7ec8;fill-opacity:1;stroke-width:5.4;stroke-linecap:round;stroke-linejoin:round;stroke:#231f20;stroke-opacity:1;stroke-miterlimit:10" d="m2.703 1247.45 454.662 501.676 177.83-358.284M635.195 1390.842l-506.77-540.54L2.704 1247.45" transform="matrix(.0997 0 0 -.0997 0 184.068)"/><g clip-path="url(#r)"><path style="fill-rule:nonzero;fill:#a0ccef;fill-opacity:1;stroke-width:5.4;stroke-linecap:round;stroke-linejoin:round;stroke:#231f20;stroke-opacity:1;stroke-miterlimit:10" d="m457.365 1749.126 676.332 93.753 241.298-337.872" transform="matrix(.0997 0 0 -.0997 0 184.068)"/></g><g clip-path="url(#s)"><path style="stroke:none;fill-rule:nonzero;fill:#b7e5bc;fill-opacity:1" d="m181.656 70.11-44.562-36.098L113.035.324"/></g><g clip-path="url(#t)"><path style="fill:none;stroke-width:5.4;stroke-linecap:round;stroke-linejoin:round;stroke:#231f20;stroke-opacity:1;stroke-miterlimit:10" d="m1821.939 1142.962-446.944 362.045-241.298 337.872" transform="matrix(.0997 0 0 -.0997 0 184.068)"/></g><path style="fill-rule:nonzero;fill:#885490;fill-opacity:1;stroke-width:5.4;stroke-linecap:round;stroke-linejoin:round;stroke:#231f20;stroke-opacity:1;stroke-miterlimit:10" d="m791.946 621.345 8.188-575.409L183.98 285.314M183.98 285.314l-55.554 564.988 663.52-228.957" transform="matrix(.0997 0 0 -.0997 0 184.068)"/><g clip-path="url(#u)"><path style="stroke:none;fill-rule:nonzero;fill:#e7d2c1;fill-opacity:1" d="m181.656 70.11-28.144 38.066-16.418-74.164 44.562 36.097"/></g><g clip-path="url(#v)"><path style="fill:none;stroke-width:5.4;stroke-linecap:round;stroke-linejoin:round;stroke:#231f20;stroke-opacity:1;stroke-miterlimit:10" d="m1821.939 1142.962-282.279-381.79-164.665 743.835Zm0 0" transform="matrix(.0997 0 0 -.0997 0 184.068)"/></g><path style="fill-rule:nonzero;fill:#a0ccef;fill-opacity:1;stroke-width:5.4;stroke-linecap:round;stroke-linejoin:round;stroke:#231f20;stroke-opacity:1;stroke-miterlimit:10" d="m1374.995 1505.007-739.8-114.165-177.83 358.284" transform="matrix(.0997 0 0 -.0997 0 184.068)"/><path style="fill-rule:nonzero;fill:#c4828d;fill-opacity:1;stroke-width:5.4;stroke-linecap:round;stroke-linejoin:round;stroke:#231f20;stroke-opacity:1;stroke-miterlimit:10" d="m1539.66 761.172-46.896-569.297-692.63-145.939" transform="matrix(.0997 0 0 -.0997 0 184.068)"/><path style="fill-rule:nonzero;fill:#c4828d;fill-opacity:1;stroke-width:5.4;stroke-linecap:round;stroke-linejoin:round;stroke:#231f20;stroke-opacity:1;stroke-miterlimit:10" d="m800.134 45.936-8.188 575.41 747.714 139.826" transform="matrix(.0997 0 0 -.0997 0 184.068)"/><path style="stroke:none;fill-rule:nonzero;fill:#9b88c1;fill-opacity:1" d="M78.96 122.117 12.806 99.29l50.527-53.894 15.629 76.722"/><path style="fill:none;stroke-width:5.4;stroke-linecap:round;stroke-linejoin:round;stroke:#231f20;stroke-opacity:1;stroke-miterlimit:10" d="m791.946 621.345-663.52 228.957 506.769 540.54Zm0 0" transform="matrix(.0997 0 0 -.0997 0 184.068)"/><path style="fill-rule:nonzero;fill:#c1abc8;fill-opacity:1;stroke-width:5.4;stroke-linecap:round;stroke-linejoin:round;stroke:#231f20;stroke-opacity:1;stroke-miterlimit:10" d="m635.195 1390.842 739.8 114.165 164.665-743.835" transform="matrix(.0997 0 0 -.0997 0 184.068)"/><path style="fill-rule:nonzero;fill:#c1abc8;fill-opacity:1;stroke-width:5.4;stroke-linecap:round;stroke-linejoin:round;stroke:#231f20;stroke-opacity:1;stroke-miterlimit:10" d="M1539.66 761.172 791.946 621.345l-156.751 769.497" transform="matrix(.0997 0 0 -.0997 0 184.068)"/></svg>