<svg xmlns="http://www.w3.org/2000/svg" width="250.627" height="254.093" viewBox="0 0 187.97 190.57" version="1.2"><defs><clipPath id="a"><path d="M158 79h29.742v76H158Zm0 0"/></clipPath><clipPath id="b"><path d="M158 17h29.742v71H158Zm0 0"/></clipPath><clipPath id="c"><path d="M158 16h29.742v72H158Zm0 0"/></clipPath><clipPath id="d"><path d="M.195 7H62v127H.195Zm0 0"/></clipPath><clipPath id="e"><path d="M.195 0H98v60H.195Zm0 0"/></clipPath><clipPath id="f"><path d="M97 0h90.742v80H97Zm0 0"/></clipPath><clipPath id="g"><path d="M97 0h90.742v81H97Zm0 0"/></clipPath><clipPath id="h"><path d="M8 132h173v58.14H8Zm0 0"/></clipPath><clipPath id="i"><path d="M.195 59H80v131H.195Zm0 0"/></clipPath><clipPath id="j"><path d="M.195 59H80v131.14H.195Zm0 0"/></clipPath><clipPath id="k"><path d="M76 113h105v77.14H76Zm0 0"/></clipPath><clipPath id="l"><path d="M76 79h111.742v76H76Zm0 0"/></clipPath><clipPath id="m"><path d="M.195 59H80v131H.195Zm0 0"/></clipPath><clipPath id="n"><path d="M.195 59H80v131.14H.195Zm0 0"/></clipPath><clipPath id="o"><path d="M.195 0H98v114H.195Zm0 0"/></clipPath><clipPath id="p"><path d="M76 0h111.742v114H76Zm0 0"/></clipPath></defs><path style="stroke:none;fill-rule:nonzero;fill:#abbfe6;fill-opacity:1" d="M64.422 77.137 9.184 133.004l171.28 21.64"/><path style="fill:none;stroke-width:5.74288;stroke-linecap:round;stroke-linejoin:round;stroke:#231f20;stroke-opacity:1;stroke-miterlimit:10" d="M643.702 1132.592 90.072 572.66" transform="matrix(.09977 0 0 -.09977 .197 190.141)"/><path style="fill-rule:nonzero;fill:#abbfe6;fill-opacity:1;stroke-width:5.74288;stroke-linecap:round;stroke-linejoin:round;stroke:#231f20;stroke-opacity:1;stroke-miterlimit:10" d="m1806.75 355.765-217.365 671.16-945.683 105.667" transform="matrix(.09977 0 0 -.09977 .197 190.141)"/><path style="fill-rule:nonzero;fill:#edb08e;fill-opacity:1;stroke-width:5.74288;stroke-linecap:round;stroke-linejoin:round;stroke:#231f20;stroke-opacity:1;stroke-miterlimit:10" d="m90.072 572.66 553.63 559.932-33.24 697.939" transform="matrix(.09977 0 0 -.09977 .197 190.141)"/><path style="fill-rule:nonzero;fill:#ab77a0;fill-opacity:1;stroke-width:5.74288;stroke-linecap:round;stroke-linejoin:round;stroke:#231f20;stroke-opacity:1;stroke-miterlimit:10" d="m643.702 1132.592 945.683-105.667 43.223 705.886" transform="matrix(.09977 0 0 -.09977 .197 190.141)"/><path style="fill-rule:nonzero;fill:#ab77a0;fill-opacity:1;stroke-width:5.74288;stroke-linecap:round;stroke-linejoin:round;stroke:#231f20;stroke-opacity:1;stroke-miterlimit:10" d="m1632.608 1732.81-1022.145 97.72 33.239-697.938" transform="matrix(.09977 0 0 -.09977 .197 190.141)"/><g clip-path="url(#a)"><path style="fill-rule:nonzero;fill:#30327a;fill-opacity:1;stroke-width:5.74288;stroke-linecap:round;stroke-linejoin:round;stroke:#231f20;stroke-opacity:1;stroke-miterlimit:10" d="m1589.385 1026.925 217.365-671.16 70.08 748.286" transform="matrix(.09977 0 0 -.09977 .197 190.141)"/></g><g clip-path="url(#b)"><path style="stroke:none;fill-rule:nonzero;fill:#30327a;fill-opacity:1" d="M187.457 79.984 163.09 17.25l-4.313 70.43"/></g><g clip-path="url(#c)"><path style="fill:none;stroke-width:5.74288;stroke-linecap:round;stroke-linejoin:round;stroke:#231f20;stroke-opacity:1;stroke-miterlimit:10" d="m1876.83 1104.051-244.222 628.76-43.223-705.886" transform="matrix(.09977 0 0 -.09977 .197 190.141)"/></g><g clip-path="url(#d)"><path style="fill-rule:nonzero;fill:#edb08e;fill-opacity:1;stroke-width:5.74288;stroke-linecap:round;stroke-linejoin:round;stroke:#231f20;stroke-opacity:1;stroke-miterlimit:10" d="M610.463 1830.53 2.884 1308.81l87.188-736.15" transform="matrix(.09977 0 0 -.09977 .197 190.141)"/></g><path style="stroke:none;fill-rule:nonzero;fill:#3d1113;fill-opacity:1" d="M163.09 17.25 61.105 7.5 97.402.285 163.09 17.25"/><path style="fill:none;stroke-width:5.74288;stroke-linecap:round;stroke-linejoin:round;stroke:#231f20;stroke-opacity:1;stroke-miterlimit:10" d="m1632.608 1732.81-1022.145 97.72 363.788 72.312Zm0 0" transform="matrix(.09977 0 0 -.09977 .197 190.141)"/><g clip-path="url(#e)"><path style="stroke:none;fill-rule:nonzero;fill:#227ac8;fill-opacity:1" d="M61.105 7.5.485 59.555 97.401.285 61.105 7.5"/><path style="fill:none;stroke-width:5.74288;stroke-linecap:round;stroke-linejoin:round;stroke:#231f20;stroke-opacity:1;stroke-miterlimit:10" d="M610.463 1830.53 2.884 1308.81l971.367 594.032Zm0 0" transform="matrix(.09977 0 0 -.09977 .197 190.141)"/></g><g clip-path="url(#f)"><path style="stroke:none;fill-rule:nonzero;fill:#d5eee4;fill-opacity:1" d="M187.457 79.984 163.09 17.25 97.402.285l90.055 79.7"/></g><g clip-path="url(#g)"><path style="fill:none;stroke-width:5.74288;stroke-linecap:round;stroke-linejoin:round;stroke:#231f20;stroke-opacity:1;stroke-miterlimit:10" d="m1876.83 1104.051-244.222 628.76-658.357 170.031Zm0 0" transform="matrix(.09977 0 0 -.09977 .197 190.141)"/></g><path style="stroke:none;fill-rule:nonzero;fill:#abbfe6;fill-opacity:1" d="m9.184 133.004 70.386 56.851 100.895-35.21"/><g clip-path="url(#h)"><path style="fill:none;stroke-width:5.74288;stroke-linecap:round;stroke-linejoin:round;stroke:#231f20;stroke-opacity:1;stroke-miterlimit:10" d="M90.072 572.66 795.528 2.86 1806.75 355.765" transform="matrix(.09977 0 0 -.09977 .197 190.141)"/></g><g clip-path="url(#i)"><path style="stroke:none;fill-rule:nonzero;fill:#5f3a89;fill-opacity:1" d="M79.57 189.855 9.184 133.004l-8.7-73.45"/></g><g clip-path="url(#j)"><path style="fill:none;stroke-width:5.74288;stroke-linecap:round;stroke-linejoin:round;stroke:#231f20;stroke-opacity:1;stroke-miterlimit:10" d="M795.528 2.861 90.072 572.66 2.884 1308.81" transform="matrix(.09977 0 0 -.09977 .197 190.141)"/></g><path style="stroke:none;fill-rule:nonzero;fill:#cf8b8d;fill-opacity:1" d="M180.465 154.645 79.57 189.855l-2.648-76.316"/><g clip-path="url(#k)"><path style="fill:none;stroke-width:5.74288;stroke-linecap:round;stroke-linejoin:round;stroke:#231f20;stroke-opacity:1;stroke-miterlimit:10" d="M1806.75 355.765 795.528 2.861l-26.544 764.886" transform="matrix(.09977 0 0 -.09977 .197 190.141)"/></g><g clip-path="url(#l)"><path style="fill-rule:nonzero;fill:#cf8b8d;fill-opacity:1;stroke-width:5.74288;stroke-linecap:round;stroke-linejoin:round;stroke:#231f20;stroke-opacity:1;stroke-miterlimit:10" d="m768.984 767.747 1107.845 336.304-70.08-748.286" transform="matrix(.09977 0 0 -.09977 .197 190.141)"/></g><g clip-path="url(#m)"><path style="stroke:none;fill-rule:nonzero;fill:#5f3a89;fill-opacity:1" d="m.484 59.555 76.438 53.984 2.648 76.316"/></g><g clip-path="url(#n)"><path style="fill:none;stroke-width:5.74288;stroke-linecap:round;stroke-linejoin:round;stroke:#231f20;stroke-opacity:1;stroke-miterlimit:10" d="m2.884 1308.81 766.1-541.063L795.528 2.861" transform="matrix(.09977 0 0 -.09977 .197 190.141)"/></g><g clip-path="url(#o)"><path style="stroke:none;fill-rule:nonzero;fill:#9195ce;fill-opacity:1" d="m.484 59.555 76.438 53.984L97.402.285.484 59.555"/><path style="fill:none;stroke-width:5.74288;stroke-linecap:round;stroke-linejoin:round;stroke:#231f20;stroke-opacity:1;stroke-miterlimit:10" d="m2.884 1308.81 766.1-541.063L974.25 1902.842Zm0 0" transform="matrix(.09977 0 0 -.09977 .197 190.141)"/></g><g clip-path="url(#p)"><path style="stroke:none;fill-rule:nonzero;fill:#c3b4cf;fill-opacity:1" d="m76.922 113.54 110.535-33.556L97.402.285 76.922 113.54"/><path style="fill:none;stroke-width:5.74288;stroke-linecap:round;stroke-linejoin:round;stroke:#231f20;stroke-opacity:1;stroke-miterlimit:10" d="m768.984 767.747 1107.845 336.304-902.578 798.791Zm0 0" transform="matrix(.09977 0 0 -.09977 .197 190.141)"/></g></svg>