<svg xmlns="http://www.w3.org/2000/svg" width="248" height="200pt" viewBox="0 0 186 200" version="1.2"><path style="fill-rule:nonzero;fill:#ac5563;fill-opacity:1;stroke-width:7.36;stroke-linecap:round;stroke-linejoin:round;stroke:#000;stroke-opacity:1;stroke-miterlimit:10" d="m1133.438 1730.195-38.555-248.75-491.29-15.586" transform="matrix(.1 0 0 -.1 0 200)"/><path style="fill-rule:nonzero;fill:#7b3369;fill-opacity:1;stroke-width:7.36;stroke-linecap:round;stroke-linejoin:round;stroke:#000;stroke-opacity:1;stroke-miterlimit:10" d="m1094.883 1481.445 38.554 248.75 443.204-253.086" transform="matrix(.1 0 0 -.1 0 200)"/><path style="fill-rule:nonzero;fill:#7b3369;fill-opacity:1;stroke-width:7.36;stroke-linecap:round;stroke-linejoin:round;stroke:#000;stroke-opacity:1;stroke-miterlimit:10" d="m1576.64 1477.11-60.234-238.946-421.523 243.281" transform="matrix(.1 0 0 -.1 0 200)"/><path style="fill-rule:nonzero;fill:#b6a4c6;fill-opacity:1;stroke-width:7.36;stroke-linecap:round;stroke-linejoin:round;stroke:#000;stroke-opacity:1;stroke-miterlimit:10" d="m213.008 1193.398 390.586 272.461 491.289 15.586" transform="matrix(.1 0 0 -.1 0 200)"/><path style="stroke:none;fill-rule:nonzero;fill:#b6a4c6;fill-opacity:1" d="M7.09 124.832 21.3 80.66l88.188-28.805"/><path style="fill:none;stroke-width:7.36;stroke-linecap:round;stroke-linejoin:round;stroke:#000;stroke-opacity:1;stroke-miterlimit:10" d="m70.898 751.68 142.11 441.718" transform="matrix(.1 0 0 -.1 0 200)"/><path style="stroke:none;fill-rule:nonzero;fill:#b6a4c6;fill-opacity:1" d="M24.875 169.777 7.09 124.832l102.398-72.977"/><path style="fill:none;stroke-width:7.36;stroke-linecap:round;stroke-linejoin:round;stroke:#000;stroke-opacity:1;stroke-miterlimit:10" d="M248.75 302.227 70.898 751.68" transform="matrix(.1 0 0 -.1 0 200)"/><path style="stroke:none;fill-rule:nonzero;fill:#b6a4c6;fill-opacity:1" d="m69.145 197.012-44.27-27.235 84.613-117.922"/><path style="fill:none;stroke-width:7.36;stroke-linecap:round;stroke-linejoin:round;stroke:#000;stroke-opacity:1;stroke-miterlimit:10" d="M691.445 29.883 248.75 302.227" transform="matrix(.1 0 0 -.1 0 200)"/><path style="stroke:none;fill-rule:nonzero;fill:#b6a4c6;fill-opacity:1" d="m121.91 194.578-52.765 2.434 40.343-145.157"/><path style="fill:none;stroke-width:7.36;stroke-linecap:round;stroke-linejoin:round;stroke:#000;stroke-opacity:1;stroke-miterlimit:10" d="M1219.102 54.219 691.445 29.883" transform="matrix(.1 0 0 -.1 0 200)"/><path style="stroke:none;fill-rule:nonzero;fill:#b6a4c6;fill-opacity:1" d="m161.094 163.89-39.184 30.688-12.422-142.723"/><path style="fill:none;stroke-width:7.36;stroke-linecap:round;stroke-linejoin:round;stroke:#000;stroke-opacity:1;stroke-miterlimit:10" d="M1610.938 361.094 1219.101 54.219" transform="matrix(.1 0 0 -.1 0 200)"/><path style="stroke:none;fill-rule:nonzero;fill:#b6a4c6;fill-opacity:1" d="m171.75 118.46-10.656 45.43-51.606-112.035"/><path style="fill:none;stroke-width:7.36;stroke-linecap:round;stroke-linejoin:round;stroke:#000;stroke-opacity:1;stroke-miterlimit:10" d="m1717.5 815.39-106.563-454.296" transform="matrix(.1 0 0 -.1 0 200)"/><path style="fill-rule:nonzero;fill:#b6a4c6;fill-opacity:1;stroke-width:7.36;stroke-linecap:round;stroke-linejoin:round;stroke:#000;stroke-opacity:1;stroke-miterlimit:10" d="m1094.883 1481.445 421.523-243.28L1717.5 815.39" transform="matrix(.1 0 0 -.1 0 200)"/><path style="fill-rule:nonzero;fill:#d97a59;fill-opacity:1;stroke-width:7.36;stroke-linecap:round;stroke-linejoin:round;stroke:#000;stroke-opacity:1;stroke-miterlimit:10" d="m617.656 1715.078-14.062-249.219-390.586-272.46" transform="matrix(.1 0 0 -.1 0 200)"/><path style="fill-rule:nonzero;fill:#ac5563;fill-opacity:1;stroke-width:7.36;stroke-linecap:round;stroke-linejoin:round;stroke:#000;stroke-opacity:1;stroke-miterlimit:10" d="m603.594 1465.86 14.062 249.218 515.782 15.117" transform="matrix(.1 0 0 -.1 0 200)"/><path style="fill-rule:nonzero;fill:#28046c;fill-opacity:1;stroke-width:7.36;stroke-linecap:round;stroke-linejoin:round;stroke:#000;stroke-opacity:1;stroke-miterlimit:10" d="m1516.406 1238.164 60.235 238.945 212.812-439.414" transform="matrix(.1 0 0 -.1 0 200)"/><path style="fill-rule:nonzero;fill:#28046c;fill-opacity:1;stroke-width:7.36;stroke-linecap:round;stroke-linejoin:round;stroke:#000;stroke-opacity:1;stroke-miterlimit:10" d="M1789.453 1037.695 1717.5 815.391l-201.094 422.773" transform="matrix(.1 0 0 -.1 0 200)"/><path style="fill-rule:nonzero;fill:#f3a838;fill-opacity:1;stroke-width:7.36;stroke-linecap:round;stroke-linejoin:round;stroke:#000;stroke-opacity:1;stroke-miterlimit:10" d="m207.344 1433.32 5.664-239.922L70.898 751.68" transform="matrix(.1 0 0 -.1 0 200)"/><path style="fill-rule:nonzero;fill:#d97a59;fill-opacity:1;stroke-width:7.36;stroke-linecap:round;stroke-linejoin:round;stroke:#000;stroke-opacity:1;stroke-miterlimit:10" d="m213.008 1193.398-5.664 239.922 410.312 281.758" transform="matrix(.1 0 0 -.1 0 200)"/><path style="fill-rule:nonzero;fill:#000046;fill-opacity:1;stroke-width:7.36;stroke-linecap:round;stroke-linejoin:round;stroke:#000;stroke-opacity:1;stroke-miterlimit:10" d="m1717.5 815.39 71.953 222.305-110.39-472.656M1679.063 565.04l-68.126-203.946L1717.5 815.39" transform="matrix(.1 0 0 -.1 0 200)"/><path style="fill-rule:nonzero;fill:#f3a838;fill-opacity:1;stroke-width:7.36;stroke-linecap:round;stroke-linejoin:round;stroke:#000;stroke-opacity:1;stroke-miterlimit:10" d="M70.898 751.68 57.656 974.492l149.688 458.828" transform="matrix(.1 0 0 -.1 0 200)"/><path style="fill-rule:nonzero;fill:#002;fill-opacity:1;stroke-width:7.36;stroke-linecap:round;stroke-linejoin:round;stroke:#000;stroke-opacity:1;stroke-miterlimit:10" d="M57.656 974.492 70.898 751.68 248.75 302.227" transform="matrix(.1 0 0 -.1 0 200)"/><path style="stroke:none;fill-rule:nonzero;fill:#9c2e32;fill-opacity:1" d="m90.68 12.047 22.664 14.933-51.578 1.512"/><path style="fill:none;stroke-width:7.36;stroke-linecap:round;stroke-linejoin:round;stroke:#000;stroke-opacity:1;stroke-miterlimit:10" d="m906.797 1879.531 226.64-149.336-515.78-15.117Zm0 0" transform="matrix(.1 0 0 -.1 0 200)"/><path style="fill-rule:nonzero;fill:#000;fill-opacity:1;stroke-width:7.36;stroke-linecap:round;stroke-linejoin:round;stroke:#000;stroke-opacity:1;stroke-miterlimit:10" d="m1133.438 1730.195-226.641 149.336 325.547-172.187" transform="matrix(.1 0 0 -.1 0 200)"/><path style="stroke:none;fill-rule:nonzero;fill:#000;fill-opacity:1" d="m157.664 52.29-44.32-25.31 9.89 2.286"/><path style="fill:none;stroke-width:7.36;stroke-linecap:round;stroke-linejoin:round;stroke:#000;stroke-opacity:1;stroke-miterlimit:10" d="m1576.64 1477.11-443.203 253.085" transform="matrix(.1 0 0 -.1 0 200)"/><path style="fill-rule:nonzero;fill:#d45e1a;fill-opacity:1;stroke-width:7.36;stroke-linecap:round;stroke-linejoin:round;stroke:#000;stroke-opacity:1;stroke-miterlimit:10" d="m1610.938 361.094 68.124 203.945-411.64-319.453" transform="matrix(.1 0 0 -.1 0 200)"/><path style="fill-rule:nonzero;fill:#d45e1a;fill-opacity:1;stroke-width:7.36;stroke-linecap:round;stroke-linejoin:round;stroke:#000;stroke-opacity:1;stroke-miterlimit:10" d="m1267.422 245.586-48.32-191.367 391.835 306.875" transform="matrix(.1 0 0 -.1 0 200)"/><path style="stroke:none;fill-rule:nonzero;fill:#0049bb;fill-opacity:1" d="M61.766 28.492 20.734 56.668l45.907-25.73"/><path style="fill:none;stroke-width:7.36;stroke-linecap:round;stroke-linejoin:round;stroke:#000;stroke-opacity:1;stroke-miterlimit:10" d="M617.656 1715.078 207.344 1433.32" transform="matrix(.1 0 0 -.1 0 200)"/><path style="fill-rule:nonzero;fill:#0049bb;fill-opacity:1;stroke-width:7.36;stroke-linecap:round;stroke-linejoin:round;stroke:#000;stroke-opacity:1;stroke-miterlimit:10" d="m666.406 1690.625 240.39 188.906-289.14-164.453" transform="matrix(.1 0 0 -.1 0 200)"/><path style="stroke:none;fill-rule:nonzero;fill:#000018;fill-opacity:1" d="m166.227 55.152 12.718 41.078-21.28-43.94"/><path style="fill:none;stroke-width:7.36;stroke-linecap:round;stroke-linejoin:round;stroke:#000;stroke-opacity:1;stroke-miterlimit:10" d="m1662.266 1448.477 127.187-410.782-212.812 439.414Zm0 0" transform="matrix(.1 0 0 -.1 0 200)"/><path style="fill-rule:nonzero;fill:#000;fill-opacity:1;stroke-width:7.36;stroke-linecap:round;stroke-linejoin:round;stroke:#000;stroke-opacity:1;stroke-miterlimit:10" d="m1232.344 1707.344 429.922-258.867-85.625 28.632" transform="matrix(.1 0 0 -.1 0 200)"/><path style="fill-rule:nonzero;fill:#58033f;fill-opacity:1;stroke-width:7.36;stroke-linecap:round;stroke-linejoin:round;stroke:#000;stroke-opacity:1;stroke-miterlimit:10" d="m244.727 505.977 4.023-203.75L691.445 29.883" transform="matrix(.1 0 0 -.1 0 200)"/><path style="fill-rule:nonzero;fill:#002;fill-opacity:1;stroke-width:7.36;stroke-linecap:round;stroke-linejoin:round;stroke:#000;stroke-opacity:1;stroke-miterlimit:10" d="m248.75 302.227-4.023 203.75-187.07 468.515" transform="matrix(.1 0 0 -.1 0 200)"/><path style="fill-rule:nonzero;fill:#a1363a;fill-opacity:1;stroke-width:7.36;stroke-linecap:round;stroke-linejoin:round;stroke:#000;stroke-opacity:1;stroke-miterlimit:10" d="m1219.102 54.219 48.32 191.367-556.016-24.57M711.406 221.016l-19.96-191.133 527.656 24.336" transform="matrix(.1 0 0 -.1 0 200)"/><path style="stroke:none;fill-rule:nonzero;fill:#00004f;fill-opacity:1" d="m21.246 59.836-.512-3.168-14.968 45.883"/><path style="fill:none;stroke-width:7.36;stroke-linecap:round;stroke-linejoin:round;stroke:#000;stroke-opacity:1;stroke-miterlimit:10" d="m212.46 1401.64-5.116 31.68L57.656 974.492Zm0 0" transform="matrix(.1 0 0 -.1 0 200)"/><path style="fill-rule:nonzero;fill:#0049bb;fill-opacity:1;stroke-width:7.36;stroke-linecap:round;stroke-linejoin:round;stroke:#000;stroke-opacity:1;stroke-miterlimit:10" d="m207.344 1433.32 5.117-31.68 453.945 288.985" transform="matrix(.1 0 0 -.1 0 200)"/><path style="fill-rule:nonzero;fill:#58033f;fill-opacity:1;stroke-width:7.36;stroke-linecap:round;stroke-linejoin:round;stroke:#000;stroke-opacity:1;stroke-miterlimit:10" d="m691.445 29.883 19.961 191.133-466.68 284.96" transform="matrix(.1 0 0 -.1 0 200)"/><path style="fill-rule:nonzero;fill:#f6c79a;fill-opacity:1;stroke-width:7.36;stroke-linecap:round;stroke-linejoin:round;stroke:#000;stroke-opacity:1;stroke-miterlimit:10" d="m1789.453 1037.695-127.187 410.782-206.329-214.22" transform="matrix(.1 0 0 -.1 0 200)"/><path style="stroke:none;fill-rule:nonzero;fill:#f6c79a;fill-opacity:1" d="m167.906 143.496 11.04-47.266-33.352-19.656"/><path style="fill:none;stroke-width:7.36;stroke-linecap:round;stroke-linejoin:round;stroke:#000;stroke-opacity:1;stroke-miterlimit:10" d="m1679.063 565.04 110.39 472.655" transform="matrix(.1 0 0 -.1 0 200)"/><path style="stroke:none;fill-rule:nonzero;fill:#6b52a2;fill-opacity:1" d="m5.766 102.55 18.707 46.852 27.25-69.601"/><path style="fill:none;stroke-width:7.36;stroke-linecap:round;stroke-linejoin:round;stroke:#000;stroke-opacity:1;stroke-miterlimit:10" d="m57.656 974.492 187.07-468.515" transform="matrix(.1 0 0 -.1 0 200)"/><path style="fill-rule:nonzero;fill:#6b52a2;fill-opacity:1;stroke-width:7.36;stroke-linecap:round;stroke-linejoin:round;stroke:#000;stroke-opacity:1;stroke-miterlimit:10" d="M517.227 1201.992 212.46 1401.641 57.656 974.492" transform="matrix(.1 0 0 -.1 0 200)"/><path style="stroke:none;fill-rule:nonzero;fill:#9dcaf7;fill-opacity:1" d="M123.234 29.266 90.68 12.046 66.64 30.939"/><path style="fill:none;stroke-width:7.36;stroke-linecap:round;stroke-linejoin:round;stroke:#000;stroke-opacity:1;stroke-miterlimit:10" d="M1232.344 1707.344 906.797 1879.53l-240.39-188.906Zm0 0" transform="matrix(.1 0 0 -.1 0 200)"/><path style="fill-rule:nonzero;fill:#f6c79a;fill-opacity:1;stroke-width:7.36;stroke-linecap:round;stroke-linejoin:round;stroke:#000;stroke-opacity:1;stroke-miterlimit:10" d="m1455.938 1234.258 12.343-574.336 210.782-94.883" transform="matrix(.1 0 0 -.1 0 200)"/><path style="stroke:none;fill-rule:nonzero;fill:#dd8361;fill-opacity:1" d="m146.828 134.008-20.086 41.433 41.164-31.945"/><path style="fill:none;stroke-width:7.36;stroke-linecap:round;stroke-linejoin:round;stroke:#000;stroke-opacity:1;stroke-miterlimit:10" d="m1468.281 659.922-200.86-414.336 411.641 319.453Zm0 0" transform="matrix(.1 0 0 -.1 0 200)"/><path style="stroke:none;fill-rule:nonzero;fill:#d9d4d3;fill-opacity:1" d="m145.594 76.574 20.633-21.422-42.993-25.886"/><path style="fill:none;stroke-width:7.36;stroke-linecap:round;stroke-linejoin:round;stroke:#000;stroke-opacity:1;stroke-miterlimit:10" d="m1455.938 1234.258 206.328 214.219-429.922 258.867Zm0 0" transform="matrix(.1 0 0 -.1 0 200)"/><path style="stroke:none;fill-rule:nonzero;fill:#7d3970;fill-opacity:1" d="m53.61 137.754-29.137 11.648 46.668 28.496"/><path style="fill:none;stroke-width:7.36;stroke-linecap:round;stroke-linejoin:round;stroke:#000;stroke-opacity:1;stroke-miterlimit:10" d="M536.094 622.46 244.727 505.978l466.68-284.961Zm0 0" transform="matrix(.1 0 0 -.1 0 200)"/><path style="fill-rule:nonzero;fill:#6b52a2;fill-opacity:1;stroke-width:7.36;stroke-linecap:round;stroke-linejoin:round;stroke:#000;stroke-opacity:1;stroke-miterlimit:10" d="M244.727 505.977 536.094 622.46l-18.867 579.531" transform="matrix(.1 0 0 -.1 0 200)"/><path style="fill-rule:nonzero;fill:#b6778c;fill-opacity:1;stroke-width:7.36;stroke-linecap:round;stroke-linejoin:round;stroke:#000;stroke-opacity:1;stroke-miterlimit:10" d="m1267.422 245.586 200.86 414.336-454.61 248.672" transform="matrix(.1 0 0 -.1 0 200)"/><path style="stroke:none;fill-rule:nonzero;fill:#b6778c;fill-opacity:1" d="m71.14 177.898 55.602-2.457-25.375-66.3"/><path style="fill:none;stroke-width:7.36;stroke-linecap:round;stroke-linejoin:round;stroke:#000;stroke-opacity:1;stroke-miterlimit:10" d="m711.406 221.016 556.016 24.57" transform="matrix(.1 0 0 -.1 0 200)"/><path style="stroke:none;fill-rule:nonzero;fill:#888bcf;fill-opacity:1" d="M66.64 30.938 21.247 59.835 51.723 79.8"/><path style="fill:none;stroke-width:7.36;stroke-linecap:round;stroke-linejoin:round;stroke:#000;stroke-opacity:1;stroke-miterlimit:10" d="m666.406 1690.625-453.945-288.984 304.766-199.649Zm0 0" transform="matrix(.1 0 0 -.1 0 200)"/><path style="fill-rule:nonzero;fill:#b6778c;fill-opacity:1;stroke-width:7.36;stroke-linecap:round;stroke-linejoin:round;stroke:#000;stroke-opacity:1;stroke-miterlimit:10" d="M1013.672 908.594 536.094 622.46l175.312-401.445" transform="matrix(.1 0 0 -.1 0 200)"/><path style="fill-rule:nonzero;fill:#b6a7c9;fill-opacity:1;stroke-width:7.36;stroke-linecap:round;stroke-linejoin:round;stroke:#000;stroke-opacity:1;stroke-miterlimit:10" d="m1013.672 908.594 442.265 325.664-223.593 473.086" transform="matrix(.1 0 0 -.1 0 200)"/><path style="stroke:none;fill-rule:nonzero;fill:#b6a7c9;fill-opacity:1" d="m51.723 79.8 49.644 29.34 21.867-79.874"/><path style="fill:none;stroke-width:7.36;stroke-linecap:round;stroke-linejoin:round;stroke:#000;stroke-opacity:1;stroke-miterlimit:10" d="m517.227 1201.992 496.445-293.398" transform="matrix(.1 0 0 -.1 0 200)"/><path style="fill-rule:nonzero;fill:#b6a7c9;fill-opacity:1;stroke-width:7.36;stroke-linecap:round;stroke-linejoin:round;stroke:#000;stroke-opacity:1;stroke-miterlimit:10" d="m1232.344 1707.344-565.938-16.719-149.18-488.633" transform="matrix(.1 0 0 -.1 0 200)"/><path style="stroke:none;fill-rule:nonzero;fill:#caa1ae;fill-opacity:1" d="m101.367 109.14 45.461 24.868-1.234-57.434"/><path style="fill:none;stroke-width:7.36;stroke-linecap:round;stroke-linejoin:round;stroke:#000;stroke-opacity:1;stroke-miterlimit:10" d="m1013.672 908.594 454.61-248.672-12.344 574.336Zm0 0" transform="matrix(.1 0 0 -.1 0 200)"/><path style="stroke:none;fill-rule:nonzero;fill:#a783ae;fill-opacity:1" d="m51.723 79.8 1.886 57.954 47.758-28.613"/><path style="fill:none;stroke-width:7.36;stroke-linecap:round;stroke-linejoin:round;stroke:#000;stroke-opacity:1;stroke-miterlimit:10" d="m517.227 1201.992 18.867-579.531 477.578 286.133Zm0 0" transform="matrix(.1 0 0 -.1 0 200)"/></svg>