<svg xmlns="http://www.w3.org/2000/svg" width="89.75pt" height="266.587" viewBox="0 0 89.75 199.94" version="1.2"><path style="stroke:none;fill-rule:nonzero;fill:#814984;fill-opacity:1" d="M47.36 4.918 71.94 91.383l-18.043-2.035"/><path style="fill:none;stroke-width:5;stroke-linecap:round;stroke-linejoin:round;stroke:#000;stroke-opacity:1;stroke-miterlimit:10" d="m474.913 1952.568 246.505-867.057-180.932 20.408Zm0 0" transform="matrix(.09972 0 0 -.09972 0 199.632)"/><path style="stroke:none;fill-rule:nonzero;fill:#8a7bbc;fill-opacity:1" d="m47.297 179.043 24.644-87.66-18.043-2.035"/><path style="fill:none;stroke-width:5;stroke-linecap:round;stroke-linejoin:round;stroke:#000;stroke-opacity:1;stroke-miterlimit:10" d="m474.286 206.468 247.132 879.043-180.932 20.408Zm0 0" transform="matrix(.09972 0 0 -.09972 0 199.632)"/><path style="stroke:none;fill-rule:nonzero;fill:#b97a8c;fill-opacity:1" d="m47.36 4.918 6.538 84.43-20.644.476"/><path style="fill:none;stroke-width:5;stroke-linecap:round;stroke-linejoin:round;stroke:#000;stroke-opacity:1;stroke-miterlimit:10" d="m474.913 1952.568 65.573-846.649-207.02-4.779Zm0 0" transform="matrix(.09972 0 0 -.09972 0 199.632)"/><path style="stroke:none;fill-rule:nonzero;fill:#bca1bd;fill-opacity:1" d="m47.297 179.043 6.601-89.695-20.644.476"/><path style="fill:none;stroke-width:5;stroke-linecap:round;stroke-linejoin:round;stroke:#000;stroke-opacity:1;stroke-miterlimit:10" d="m474.286 206.468 66.2 899.451-207.02-4.779Zm0 0" transform="matrix(.09972 0 0 -.09972 0 199.632)"/><path style="stroke:none;fill-rule:nonzero;fill:#e69877;fill-opacity:1" d="M47.36 4.918 33.253 89.824 18.27 92.652"/><path style="fill:none;stroke-width:5;stroke-linecap:round;stroke-linejoin:round;stroke:#000;stroke-opacity:1;stroke-miterlimit:10" d="M474.913 1952.568 333.465 1101.14l-150.26-28.36Zm0 0" transform="matrix(.09972 0 0 -.09972 0 199.632)"/><path style="stroke:none;fill-rule:nonzero;fill:#e5c9ba;fill-opacity:1" d="M47.297 179.043 33.254 89.824 18.27 92.652"/><path style="fill:none;stroke-width:5;stroke-linecap:round;stroke-linejoin:round;stroke:#000;stroke-opacity:1;stroke-miterlimit:10" d="m474.286 206.468-140.82 894.672-150.262-28.36Zm0 0" transform="matrix(.09972 0 0 -.09972 0 199.632)"/><path style="stroke:none;fill-rule:nonzero;fill:#212156;fill-opacity:1" d="m47.36 4.918 32.261 90.3-7.68-3.835"/><path style="fill:none;stroke-width:5;stroke-linecap:round;stroke-linejoin:round;stroke:#000;stroke-opacity:1;stroke-miterlimit:10" d="m474.913 1952.568 323.516-905.523-77.011 38.466Zm0 0" transform="matrix(.09972 0 0 -.09972 0 199.632)"/><path style="stroke:none;fill-rule:nonzero;fill:#132ba8;fill-opacity:1" d="M47.297 179.043 79.62 95.219l-7.68-3.836"/><path style="fill:none;stroke-width:5;stroke-linecap:round;stroke-linejoin:round;stroke:#000;stroke-opacity:1;stroke-miterlimit:10" d="m474.286 206.468 324.143 840.577-77.011 38.466Zm0 0" transform="matrix(.09972 0 0 -.09972 0 199.632)"/><path style="stroke:none;fill-rule:nonzero;fill:#ed8f26;fill-opacity:1" d="M47.297 179.043 79.62 95.219l-7.457 4.035"/><path style="fill:none;stroke-width:5;stroke-linecap:round;stroke-linejoin:round;stroke:#000;stroke-opacity:1;stroke-miterlimit:10" d="m474.286 206.468 324.143 840.577-74.778-40.464Zm0 0" transform="matrix(.09972 0 0 -.09972 0 199.632)"/><path style="stroke:none;fill-rule:nonzero;fill:#d2887f;fill-opacity:1" d="m47.297 179.043 4.512-77.652 20.355-2.137"/><path style="fill:none;stroke-width:5;stroke-linecap:round;stroke-linejoin:round;stroke:#000;stroke-opacity:1;stroke-miterlimit:10" d="m474.286 206.468 45.243 778.686 204.122 21.427Zm0 0" transform="matrix(.09972 0 0 -.09972 0 199.632)"/><path style="stroke:none;fill-rule:nonzero;fill:#9d5f85;fill-opacity:1" d="m47.297 179.043-18.29-78.68 22.802 1.028"/><path style="fill:none;stroke-width:5;stroke-linecap:round;stroke-linejoin:round;stroke:#000;stroke-opacity:1;stroke-miterlimit:10" d="m474.286 206.468-183.4 788.988 228.643-10.302Zm0 0" transform="matrix(.09972 0 0 -.09972 0 199.632)"/><path style="stroke:none;fill-rule:nonzero;fill:#e4e57a;fill-opacity:1" d="M47.297 179.043 18.27 92.653l-2.29 4.144"/><path style="fill:none;stroke-width:5;stroke-linecap:round;stroke-linejoin:round;stroke:#000;stroke-opacity:1;stroke-miterlimit:10" d="M474.286 206.468 183.204 1072.78l-22.954-41.56Zm0 0" transform="matrix(.09972 0 0 -.09972 0 199.632)"/><path style="stroke:none;fill-rule:nonzero;fill:#35005d;fill-opacity:1" d="M47.297 179.043 15.98 96.797l13.028 3.566"/><path style="fill:none;stroke-width:5;stroke-linecap:round;stroke-linejoin:round;stroke:#000;stroke-opacity:1;stroke-miterlimit:10" d="M474.286 206.468 160.25 1031.22l130.636-35.764Zm0 0" transform="matrix(.09972 0 0 -.09972 0 199.632)"/><path style="stroke:none;fill-rule:nonzero;fill:#bc6900;fill-opacity:1" d="M47.36 4.918 18.27 92.652l-2.29 4.145"/><path style="fill:none;stroke-width:5;stroke-linecap:round;stroke-linejoin:round;stroke:#000;stroke-opacity:1;stroke-miterlimit:10" d="M474.913 1952.568 183.204 1072.78l-22.954-41.56Zm0 0" transform="matrix(.09972 0 0 -.09972 0 199.632)"/><path style="stroke:none;fill-rule:nonzero;fill:#fae8a4;fill-opacity:1" d="m47.36 4.918 32.261 90.3-7.457 4.036"/><path style="fill:none;stroke-width:5;stroke-linecap:round;stroke-linejoin:round;stroke:#000;stroke-opacity:1;stroke-miterlimit:10" d="m474.913 1952.568 323.516-905.523-74.778-40.464Zm0 0" transform="matrix(.09972 0 0 -.09972 0 199.632)"/><path style="stroke:none;fill-rule:nonzero;fill:#5054b6;fill-opacity:1" d="M47.36 4.918 15.98 96.797l13.028 3.566"/><path style="fill:none;stroke-width:5;stroke-linecap:round;stroke-linejoin:round;stroke:#000;stroke-opacity:1;stroke-miterlimit:10" d="M474.913 1952.568 160.25 1031.22l130.636-35.764Zm0 0" transform="matrix(.09972 0 0 -.09972 0 199.632)"/><path style="stroke:none;fill-rule:nonzero;fill:#d3b7bd;fill-opacity:1" d="m47.36 4.918 4.449 96.473 20.355-2.137"/><path style="fill:none;stroke-width:5;stroke-linecap:round;stroke-linejoin:round;stroke:#000;stroke-opacity:1;stroke-miterlimit:10" d="m474.913 1952.568 44.616-967.414 204.122 21.427Zm0 0" transform="matrix(.09972 0 0 -.09972 0 199.632)"/><path style="stroke:none;fill-rule:nonzero;fill:#a48ebe;fill-opacity:1" d="m47.36 4.918-18.352 95.445 22.8 1.028"/><path style="fill:none;stroke-width:5;stroke-linecap:round;stroke-linejoin:round;stroke:#000;stroke-opacity:1;stroke-miterlimit:10" d="M474.913 1952.568 290.886 995.456l228.643-10.302Zm0 0" transform="matrix(.09972 0 0 -.09972 0 199.632)"/></svg>