<svg xmlns="http://www.w3.org/2000/svg" width="130pt" height="180" viewBox="0 0 130 135" version="1.2"><path style="stroke:none;fill-rule:nonzero;fill:#2f41b3;fill-opacity:1" d="m50.566 83.797 14.805 2.95 4.106-24.915"/><path style="fill:none;stroke-width:3.99385;stroke-linecap:round;stroke-linejoin:round;stroke:#000;stroke-opacity:1;stroke-miterlimit:10" d="m505.664 512.031 148.047-29.492 41.055 249.14Zm0 0" transform="matrix(.1 0 0 -.1 0 135)"/><path style="stroke:none;fill-rule:nonzero;fill:#c0533c;fill-opacity:1" d="m50.566 83.797 18.91-21.965-24.445 6.848"/><path style="fill:none;stroke-width:3.99385;stroke-linecap:round;stroke-linejoin:round;stroke:#000;stroke-opacity:1;stroke-miterlimit:10" d="M505.664 512.031 694.766 731.68l-244.453-68.477Zm0 0" transform="matrix(.1 0 0 -.1 0 135)"/><path style="stroke:none;fill-rule:nonzero;fill:#070000;fill-opacity:1" d="M50.566 83.797 45.031 68.68l20.34 18.066"/><path style="fill:none;stroke-width:3.99385;stroke-linecap:round;stroke-linejoin:round;stroke:#000;stroke-opacity:1;stroke-miterlimit:10" d="m505.664 512.031-55.351 151.172L653.71 482.54Zm0 0" transform="matrix(.1 0 0 -.1 0 135)"/><path style="stroke:none;fill-rule:nonzero;fill:#a8bee9;fill-opacity:1" d="m41.156 44.578 3.875 24.102 24.446-6.848"/><path style="fill:none;stroke-width:3.99385;stroke-linecap:round;stroke-linejoin:round;stroke:#000;stroke-opacity:1;stroke-miterlimit:10" d="m411.563 904.219 38.75-241.016 244.453 68.477Zm0 0" transform="matrix(.1 0 0 -.1 0 135)"/><path style="stroke:none;fill-rule:nonzero;fill:#200015;fill-opacity:1" d="m41.156 44.578 28.32 17.254-14.214-17.914"/><path style="fill:none;stroke-width:3.99385;stroke-linecap:round;stroke-linejoin:round;stroke:#000;stroke-opacity:1;stroke-miterlimit:10" d="m411.563 904.219 283.203-172.54L552.617 910.82Zm0 0" transform="matrix(.1 0 0 -.1 0 135)"/><path style="stroke:none;fill-rule:nonzero;fill:#1d35af;fill-opacity:1" d="m41.156 44.578 14.106-.66-10.23 24.762"/><path style="fill:none;stroke-width:3.99385;stroke-linecap:round;stroke-linejoin:round;stroke:#000;stroke-opacity:1;stroke-miterlimit:10" d="m411.563 904.219 141.054 6.601-102.304-247.617Zm0 0" transform="matrix(.1 0 0 -.1 0 135)"/><path style="stroke:none;fill-rule:nonzero;fill:#e7c4b2;fill-opacity:1" d="M90.574 88.418 69.477 61.832 65.37 86.746"/><path style="fill:none;stroke-width:3.99385;stroke-linecap:round;stroke-linejoin:round;stroke:#000;stroke-opacity:1;stroke-miterlimit:10" d="M905.742 465.82 694.766 731.68 653.71 482.54Zm0 0" transform="matrix(.1 0 0 -.1 0 135)"/><path style="stroke:none;fill-rule:nonzero;fill:#200015;fill-opacity:1" d="m90.574 88.418-1.933-14.914-19.164-11.672"/><path style="fill:none;stroke-width:3.99385;stroke-linecap:round;stroke-linejoin:round;stroke:#000;stroke-opacity:1;stroke-miterlimit:10" d="m905.742 465.82-19.336 149.14-191.64 116.72Zm0 0" transform="matrix(.1 0 0 -.1 0 135)"/><path style="stroke:none;fill-rule:nonzero;fill:#bd4a2d;fill-opacity:1" d="m90.574 88.418-25.203-1.672 23.27-13.242"/><path style="fill:none;stroke-width:3.99385;stroke-linecap:round;stroke-linejoin:round;stroke:#000;stroke-opacity:1;stroke-miterlimit:10" d="m905.742 465.82-252.031 16.72 232.695 132.42Zm0 0" transform="matrix(.1 0 0 -.1 0 135)"/><path style="stroke:none;fill-rule:nonzero;fill:#2f41b3;fill-opacity:1" d="m75.758 23.734-6.281 38.098 13.03-15.137"/><path style="fill:none;stroke-width:3.99385;stroke-linecap:round;stroke-linejoin:round;stroke:#000;stroke-opacity:1;stroke-miterlimit:10" d="M757.578 1112.656 694.766 731.68l130.312 151.367Zm0 0" transform="matrix(.1 0 0 -.1 0 135)"/><path style="stroke:none;fill-rule:nonzero;fill:#e7c4b2;fill-opacity:1" d="M75.758 23.734 55.262 43.918l14.215 17.914"/><path style="fill:none;stroke-width:3.99385;stroke-linecap:round;stroke-linejoin:round;stroke:#000;stroke-opacity:1;stroke-miterlimit:10" d="M757.578 1112.656 552.618 910.82l142.148-179.14Zm0 0" transform="matrix(.1 0 0 -.1 0 135)"/><path style="stroke:none;fill-rule:nonzero;fill:#a6c1ed;fill-opacity:1" d="m75.758 23.734 6.75 22.961-27.246-2.777"/><path style="fill:none;stroke-width:3.99385;stroke-linecap:round;stroke-linejoin:round;stroke:#000;stroke-opacity:1;stroke-miterlimit:10" d="m757.578 1112.656 67.5-229.61-272.46 27.774Zm0 0" transform="matrix(.1 0 0 -.1 0 135)"/><path style="stroke:none;fill-rule:nonzero;fill:#a8bee9;fill-opacity:1" d="m106.953 51.332-37.476 10.5L88.64 73.504"/><path style="fill:none;stroke-width:3.99385;stroke-linecap:round;stroke-linejoin:round;stroke:#000;stroke-opacity:1;stroke-miterlimit:10" d="m1069.531 836.68-374.765-105 191.64-116.72Zm0 0" transform="matrix(.1 0 0 -.1 0 135)"/><path style="stroke:none;fill-rule:nonzero;fill:#c0533c;fill-opacity:1" d="m106.953 51.332-24.445-4.637-13.031 15.137"/><path style="fill:none;stroke-width:3.99385;stroke-linecap:round;stroke-linejoin:round;stroke:#000;stroke-opacity:1;stroke-miterlimit:10" d="m1069.531 836.68-244.453 46.367L694.766 731.68Zm0 0" transform="matrix(.1 0 0 -.1 0 135)"/><path style="stroke:none;fill-rule:nonzero;fill:#eac7b0;fill-opacity:1" d="M106.953 51.332 88.641 73.504l-6.133-26.809"/><path style="fill:none;stroke-width:3.99385;stroke-linecap:round;stroke-linejoin:round;stroke:#000;stroke-opacity:1;stroke-miterlimit:10" d="M1069.531 836.68 886.406 614.96l-61.328 268.087Zm0 0" transform="matrix(.1 0 0 -.1 0 135)"/><path style="stroke:none;fill-rule:nonzero;fill:#ab85ab;fill-opacity:1" d="M29.02 107.434 65.37 86.746 45.031 68.68"/><path style="fill:none;stroke-width:3.99385;stroke-linecap:round;stroke-linejoin:round;stroke:#000;stroke-opacity:1;stroke-miterlimit:10" d="M290.195 275.664 653.711 482.54 450.312 663.203Zm0 0" transform="matrix(.1 0 0 -.1 0 135)"/><path style="stroke:none;fill-rule:nonzero;fill:#bd4a2d;fill-opacity:1" d="m29.02 107.434 18.73-21.856 17.621 1.168"/><path style="fill:none;stroke-width:3.99385;stroke-linecap:round;stroke-linejoin:round;stroke:#000;stroke-opacity:1;stroke-miterlimit:10" d="M290.195 275.664 477.5 494.22l176.21-11.68Zm0 0" transform="matrix(.1 0 0 -.1 0 135)"/><path style="stroke:none;fill-rule:nonzero;fill:#1d35af;fill-opacity:1" d="M29.02 107.434 45.03 68.68l2.719 16.898"/><path style="fill:none;stroke-width:3.99385;stroke-linecap:round;stroke-linejoin:round;stroke:#000;stroke-opacity:1;stroke-miterlimit:10" d="m290.195 275.664 160.118 387.54L477.5 494.218Zm0 0" transform="matrix(.1 0 0 -.1 0 135)"/><path style="stroke:none;fill-rule:nonzero;fill:#ab85ab;fill-opacity:1" d="M12.203 39.523 45.031 68.68l10.23-24.762"/><path style="fill:none;stroke-width:3.99385;stroke-linecap:round;stroke-linejoin:round;stroke:#000;stroke-opacity:1;stroke-miterlimit:10" d="m122.031 954.766 328.281-291.563L552.618 910.82Zm0 0" transform="matrix(.1 0 0 -.1 0 135)"/><path style="stroke:none;fill-rule:nonzero;fill:#070000;fill-opacity:1" d="m12.203 39.523 28.875 18.36 3.953 10.797"/><path style="fill:none;stroke-width:3.99385;stroke-linecap:round;stroke-linejoin:round;stroke:#000;stroke-opacity:1;stroke-miterlimit:10" d="m122.031 954.766 288.75-183.594 39.531-107.969Zm0 0" transform="matrix(.1 0 0 -.1 0 135)"/><path style="stroke:none;fill-rule:nonzero;fill:#a6c1ed;fill-opacity:1" d="m12.203 39.523 43.059 4.395-14.184 13.965"/><path style="fill:none;stroke-width:3.99385;stroke-linecap:round;stroke-linejoin:round;stroke:#000;stroke-opacity:1;stroke-miterlimit:10" d="m122.031 954.766 430.586-43.946-141.836-139.648Zm0 0" transform="matrix(.1 0 0 -.1 0 135)"/><path style="stroke:none;fill-rule:nonzero;fill:#a8bee9;fill-opacity:1" d="m3.2 80.398 44.55 5.18-2.719-16.898"/><path style="fill:none;stroke-width:3.99385;stroke-linecap:round;stroke-linejoin:round;stroke:#000;stroke-opacity:1;stroke-miterlimit:10" d="M31.992 546.016 477.5 494.219l-27.188 168.984Zm0 0" transform="matrix(.1 0 0 -.1 0 135)"/><path style="stroke:none;fill-rule:nonzero;fill:#c0533c;fill-opacity:1" d="M3.2 80.398 45.03 68.68l-3.953-10.797"/><path style="fill:none;stroke-width:3.99385;stroke-linecap:round;stroke-linejoin:round;stroke:#000;stroke-opacity:1;stroke-miterlimit:10" d="m31.992 546.016 418.32 117.187-39.53 107.969Zm0 0" transform="matrix(.1 0 0 -.1 0 135)"/><path style="stroke:none;fill-rule:nonzero;fill:#ab85ab;fill-opacity:1" d="m98.371 116.055-9.73-42.551-23.27 13.242"/><path style="fill:none;stroke-width:3.99385;stroke-linecap:round;stroke-linejoin:round;stroke:#000;stroke-opacity:1;stroke-miterlimit:10" d="m983.71 189.453-97.304 425.508-232.695-132.422Zm0 0" transform="matrix(.1 0 0 -.1 0 135)"/><path style="stroke:none;fill-rule:nonzero;fill:#070000;fill-opacity:1" d="m98.371 116.055-33-29.309 10.594 2.11"/><path style="fill:none;stroke-width:3.99385;stroke-linecap:round;stroke-linejoin:round;stroke:#000;stroke-opacity:1;stroke-miterlimit:10" d="m983.71 189.453-330 293.086 105.938-21.094Zm0 0" transform="matrix(.1 0 0 -.1 0 135)"/><path style="stroke:none;fill-rule:nonzero;fill:#e7c4b2;fill-opacity:1" d="m58.328 129.492 7.043-42.746-17.621-1.168"/><path style="fill:none;stroke-width:3.99385;stroke-linecap:round;stroke-linejoin:round;stroke:#000;stroke-opacity:1;stroke-miterlimit:10" d="m583.281 55.078 70.43 427.461L477.5 494.22Zm0 0" transform="matrix(.1 0 0 -.1 0 135)"/><path style="stroke:none;fill-rule:nonzero;fill:#2f41b3;fill-opacity:1" d="m58.328 129.492 17.637-40.637-10.594-2.109"/><path style="fill:none;stroke-width:3.99385;stroke-linecap:round;stroke-linejoin:round;stroke:#000;stroke-opacity:1;stroke-miterlimit:10" d="m583.281 55.078 176.367 406.367-105.937 21.094Zm0 0" transform="matrix(.1 0 0 -.1 0 135)"/><path style="stroke:none;fill-rule:nonzero;fill:#eac7b0;fill-opacity:1" d="m98.371 116.055-22.406-27.2L88.64 73.504"/><path style="fill:none;stroke-width:3.99385;stroke-linecap:round;stroke-linejoin:round;stroke:#000;stroke-opacity:1;stroke-miterlimit:10" d="M983.71 189.453 759.649 461.445l126.758 153.516Zm0 0" transform="matrix(.1 0 0 -.1 0 135)"/><path style="stroke:none;fill-rule:nonzero;fill:#ab85ab;fill-opacity:1" d="M72.395 2.453 55.262 43.918l27.246 2.777"/><path style="fill:none;stroke-width:3.99385;stroke-linecap:round;stroke-linejoin:round;stroke:#000;stroke-opacity:1;stroke-miterlimit:10" d="M723.945 1325.469 552.617 910.82l272.461-27.773Zm0 0" transform="matrix(.1 0 0 -.1 0 135)"/><path style="stroke:none;fill-rule:nonzero;fill:#1d35af;fill-opacity:1" d="M72.395 2.453 65.37 43.441l-10.11.477"/><path style="fill:none;stroke-width:3.99385;stroke-linecap:round;stroke-linejoin:round;stroke:#000;stroke-opacity:1;stroke-miterlimit:10" d="m723.945 1325.469-70.234-409.883-101.094-4.766Zm0 0" transform="matrix(.1 0 0 -.1 0 135)"/><path style="stroke:none;fill-rule:nonzero;fill:#200015;fill-opacity:1" d="m30.059 12.152 25.203 31.766 10.11-.477"/><path style="fill:none;stroke-width:3.99385;stroke-linecap:round;stroke-linejoin:round;stroke:#000;stroke-opacity:1;stroke-miterlimit:10" d="M300.586 1228.477 552.617 910.82l101.094 4.766Zm0 0" transform="matrix(.1 0 0 -.1 0 135)"/><path style="stroke:none;fill-rule:nonzero;fill:#e7c4b2;fill-opacity:1" d="m30.059 12.152 11.02 45.73 14.183-13.964"/><path style="fill:none;stroke-width:3.99385;stroke-linecap:round;stroke-linejoin:round;stroke:#000;stroke-opacity:1;stroke-miterlimit:10" d="M300.586 1228.477 410.78 771.172 552.617 910.82Zm0 0" transform="matrix(.1 0 0 -.1 0 135)"/><path style="stroke:none;fill-rule:nonzero;fill:#a8bee9;fill-opacity:1" d="M122.762 94.293 88.64 73.503 75.965 88.856"/><path style="fill:none;stroke-width:3.99385;stroke-linecap:round;stroke-linejoin:round;stroke:#000;stroke-opacity:1;stroke-miterlimit:10" d="m1227.617 407.07-341.21 207.89-126.759-153.515Zm0 0" transform="matrix(.1 0 0 -.1 0 135)"/><path style="stroke:none;fill-rule:nonzero;fill:#ab85ab;fill-opacity:1" d="m127.664 51.297-45.156-4.602 6.133 26.809"/><path style="fill:none;stroke-width:3.99385;stroke-linecap:round;stroke-linejoin:round;stroke:#000;stroke-opacity:1;stroke-miterlimit:10" d="m1276.64 837.031-451.562 46.016 61.328-268.086Zm0 0" transform="matrix(.1 0 0 -.1 0 135)"/><path style="stroke:none;fill-rule:nonzero;fill:#bd4a2d;fill-opacity:1" d="M127.664 51.297 88.641 73.504l-1.387-10.672"/><path style="fill:none;stroke-width:3.99385;stroke-linecap:round;stroke-linejoin:round;stroke:#000;stroke-opacity:1;stroke-miterlimit:10" d="m1276.64 837.031-390.234-222.07L872.54 721.68Zm0 0" transform="matrix(.1 0 0 -.1 0 135)"/><path style="stroke:none;fill-rule:nonzero;fill:#200015;fill-opacity:1" d="M122.762 94.293 87.254 62.832l1.387 10.672"/><path style="fill:none;stroke-width:3.99385;stroke-linecap:round;stroke-linejoin:round;stroke:#000;stroke-opacity:1;stroke-miterlimit:10" d="M1227.617 407.07 872.54 721.68l13.867-106.72Zm0 0" transform="matrix(.1 0 0 -.1 0 135)"/><path style="stroke:none;fill-rule:nonzero;fill:#a6c1ed;fill-opacity:1" d="m127.664 51.297-40.41 11.535-4.746-16.137"/><path style="fill:none;stroke-width:3.99385;stroke-linecap:round;stroke-linejoin:round;stroke:#000;stroke-opacity:1;stroke-miterlimit:10" d="M1276.64 837.031 872.54 721.68l-47.462 161.367Zm0 0" transform="matrix(.1 0 0 -.1 0 135)"/><path style="stroke:none;fill-rule:nonzero;fill:#eac7b0;fill-opacity:1" d="m72.395 2.453 10.113 44.242-17.137-3.254"/><path style="fill:none;stroke-width:3.99385;stroke-linecap:round;stroke-linejoin:round;stroke:#000;stroke-opacity:1;stroke-miterlimit:10" d="m723.945 1325.469 101.133-442.422-171.367 32.539Zm0 0" transform="matrix(.1 0 0 -.1 0 135)"/><path style="stroke:none;fill-rule:nonzero;fill:#2f41b3;fill-opacity:1" d="M106.203 19.168 82.508 46.695l4.746 16.137"/><path style="fill:none;stroke-width:3.99385;stroke-linecap:round;stroke-linejoin:round;stroke:#000;stroke-opacity:1;stroke-miterlimit:10" d="M1062.031 1158.32 825.078 883.047 872.54 721.68Zm0 0" transform="matrix(.1 0 0 -.1 0 135)"/><path style="stroke:none;fill-rule:nonzero;fill:#c0533c;fill-opacity:1" d="M106.203 19.168 65.371 43.441l17.137 3.254"/><path style="fill:none;stroke-width:3.99385;stroke-linecap:round;stroke-linejoin:round;stroke:#000;stroke-opacity:1;stroke-miterlimit:10" d="m1062.031 1158.32-408.32-242.734 171.367-32.54Zm0 0" transform="matrix(.1 0 0 -.1 0 135)"/><path style="stroke:none;fill-rule:nonzero;fill:#ab84ab;fill-opacity:1" d="m3.2 80.398 37.878-22.515 6.672 27.695"/><path style="fill:none;stroke-width:3.99385;stroke-linecap:round;stroke-linejoin:round;stroke:#000;stroke-opacity:1;stroke-miterlimit:10" d="m31.992 546.016 378.79 225.156L477.5 494.219Zm0 0" transform="matrix(.1 0 0 -.1 0 135)"/><path style="stroke:none;fill-rule:nonzero;fill:#ab84ab;fill-opacity:1" d="M58.328 129.492 47.75 85.578l28.215 3.277"/><path style="fill:none;stroke-width:3.99385;stroke-linecap:round;stroke-linejoin:round;stroke:#000;stroke-opacity:1;stroke-miterlimit:10" d="M583.281 55.078 477.5 494.218l282.148-32.773Zm0 0" transform="matrix(.1 0 0 -.1 0 135)"/><path style="stroke:none;fill-rule:nonzero;fill:#a8bee9;fill-opacity:1" d="m52.79 116.91 23.175-28.055-28.215-3.277"/><path style="fill:none;stroke-width:3.99385;stroke-linecap:round;stroke-linejoin:round;stroke:#000;stroke-opacity:1;stroke-miterlimit:10" d="m527.89 180.898 231.758 280.547L477.5 494.22Zm0 0" transform="matrix(.1 0 0 -.1 0 135)"/><path style="stroke:none;fill-rule:nonzero;fill:#1d35af;fill-opacity:1" d="m52.79 116.91-5.04-31.332 13.008-15.183"/><path style="fill:none;stroke-width:3.99385;stroke-linecap:round;stroke-linejoin:round;stroke:#000;stroke-opacity:1;stroke-miterlimit:10" d="m527.89 180.898-50.39 313.32 130.078 151.837Zm0 0" transform="matrix(.1 0 0 -.1 0 135)"/><path style="stroke:none;fill-rule:nonzero;fill:#e7c4b2;fill-opacity:1" d="m15.152 83.41 32.598 2.168-6.672-27.695"/><path style="fill:none;stroke-width:3.99385;stroke-linecap:round;stroke-linejoin:round;stroke:#000;stroke-opacity:1;stroke-miterlimit:10" d="m151.523 515.898 325.977-21.68-66.719 276.954Zm0 0" transform="matrix(.1 0 0 -.1 0 135)"/><path style="stroke:none;fill-rule:nonzero;fill:#bd4a2d;fill-opacity:1" d="m15.152 83.41 45.606-13.015L47.75 85.578"/><path style="fill:none;stroke-width:3.99385;stroke-linecap:round;stroke-linejoin:round;stroke:#000;stroke-opacity:1;stroke-miterlimit:10" d="m151.523 515.898 456.055 130.157L477.5 494.219Zm0 0" transform="matrix(.1 0 0 -.1 0 135)"/><path style="stroke:none;fill-rule:nonzero;fill:#a6c1ed;fill-opacity:1" d="m15.152 83.41 25.926-25.527 19.68 12.512"/><path style="fill:none;stroke-width:3.99385;stroke-linecap:round;stroke-linejoin:round;stroke:#000;stroke-opacity:1;stroke-miterlimit:10" d="m151.523 515.898 259.258 255.274 196.797-125.117Zm0 0" transform="matrix(.1 0 0 -.1 0 135)"/><path style="stroke:none;fill-rule:nonzero;fill:#ab84ab;fill-opacity:1" d="m30.059 12.152 35.312 31.29-24.293 14.44"/><path style="fill:none;stroke-width:3.99385;stroke-linecap:round;stroke-linejoin:round;stroke:#000;stroke-opacity:1;stroke-miterlimit:10" d="M300.586 1228.477 653.71 915.586 410.78 771.172Zm0 0" transform="matrix(.1 0 0 -.1 0 135)"/><path style="stroke:none;fill-rule:nonzero;fill:#c0533c;fill-opacity:1" d="m33.578 37.406 7.5 20.477L65.371 43.44"/><path style="fill:none;stroke-width:3.99385;stroke-linecap:round;stroke-linejoin:round;stroke:#000;stroke-opacity:1;stroke-miterlimit:10" d="m335.781 975.938 75-204.766 242.93 144.414Zm0 0" transform="matrix(.1 0 0 -.1 0 135)"/><path style="stroke:none;fill-rule:nonzero;fill:#070000;fill-opacity:1" d="m33.578 37.406 27.18 32.989-19.68-12.512"/><path style="fill:none;stroke-width:3.99385;stroke-linecap:round;stroke-linejoin:round;stroke:#000;stroke-opacity:1;stroke-miterlimit:10" d="m335.781 975.938 271.797-329.883-196.797 125.117Zm0 0" transform="matrix(.1 0 0 -.1 0 135)"/><path style="stroke:none;fill-rule:nonzero;fill:#ab84ab;fill-opacity:1" d="m122.762 94.293-46.797-5.438 11.289-26.023"/><path style="fill:none;stroke-width:3.99385;stroke-linecap:round;stroke-linejoin:round;stroke:#000;stroke-opacity:1;stroke-miterlimit:10" d="m1227.617 407.07-467.969 54.375L872.54 721.68Zm0 0" transform="matrix(.1 0 0 -.1 0 135)"/><path style="stroke:none;fill-rule:nonzero;fill:#eac7b0;fill-opacity:1" d="m52.79 116.91 7.968-46.515 15.207 18.46"/><path style="fill:none;stroke-width:3.99385;stroke-linecap:round;stroke-linejoin:round;stroke:#000;stroke-opacity:1;stroke-miterlimit:10" d="m527.89 180.898 79.688 465.157 152.07-184.61Zm0 0" transform="matrix(.1 0 0 -.1 0 135)"/><path style="stroke:none;fill-rule:nonzero;fill:#2f41b3;fill-opacity:1" d="m96.09 92.86-8.836-30.028-11.29 26.023"/><path style="fill:none;stroke-width:3.99385;stroke-linecap:round;stroke-linejoin:round;stroke:#000;stroke-opacity:1;stroke-miterlimit:10" d="M960.898 421.406 872.54 721.68 759.65 461.445Zm0 0" transform="matrix(.1 0 0 -.1 0 135)"/><path style="stroke:none;fill-rule:nonzero;fill:#070000;fill-opacity:1" d="m96.09 92.86-20.125-4.005-15.207-18.46"/><path style="fill:none;stroke-width:3.99385;stroke-linecap:round;stroke-linejoin:round;stroke:#000;stroke-opacity:1;stroke-miterlimit:10" d="m960.898 421.406-201.25 40.04-152.07 184.609Zm0 0" transform="matrix(.1 0 0 -.1 0 135)"/><path style="stroke:none;fill-rule:nonzero;fill:#ab84ab;fill-opacity:1" d="m106.203 19.168-18.95 43.664-21.882-19.39"/><path style="fill:none;stroke-width:3.99385;stroke-linecap:round;stroke-linejoin:round;stroke:#000;stroke-opacity:1;stroke-miterlimit:10" d="M1062.031 1158.32 872.54 721.68 653.711 915.586Zm0 0" transform="matrix(.1 0 0 -.1 0 135)"/><path style="stroke:none;fill-rule:nonzero;fill:#200015;fill-opacity:1" d="m84.625 42.54-19.254.901 21.883 19.391"/><path style="fill:none;stroke-width:3.99385;stroke-linecap:round;stroke-linejoin:round;stroke:#000;stroke-opacity:1;stroke-miterlimit:10" d="m846.25 924.61-192.54-9.024L872.54 721.68Zm0 0" transform="matrix(.1 0 0 -.1 0 135)"/><path style="stroke:none;fill-rule:nonzero;fill:#1d35af;fill-opacity:1" d="M84.625 42.54 60.758 70.394 65.37 43.44"/><path style="fill:none;stroke-width:3.99385;stroke-linecap:round;stroke-linejoin:round;stroke:#000;stroke-opacity:1;stroke-miterlimit:10" d="M846.25 924.61 607.578 646.054l46.133 269.53Zm0 0" transform="matrix(.1 0 0 -.1 0 135)"/><path style="stroke:none;fill-rule:nonzero;fill:#eac7b0;fill-opacity:1" d="m33.578 37.406 31.793 6.035-4.613 26.954"/><path style="fill:none;stroke-width:3.99385;stroke-linecap:round;stroke-linejoin:round;stroke:#000;stroke-opacity:1;stroke-miterlimit:10" d="m335.781 975.938 317.93-60.352-46.133-269.531Zm0 0" transform="matrix(.1 0 0 -.1 0 135)"/><path style="stroke:none;fill-rule:nonzero;fill:#a6c1ed;fill-opacity:1" d="M96.09 92.86 60.758 70.394l26.496-7.563"/><path style="fill:none;stroke-width:3.99385;stroke-linecap:round;stroke-linejoin:round;stroke:#000;stroke-opacity:1;stroke-miterlimit:10" d="m960.898 421.406-353.32 224.649L872.54 721.68Zm0 0" transform="matrix(.1 0 0 -.1 0 135)"/><path style="stroke:none;fill-rule:nonzero;fill:#bd4a2d;fill-opacity:1" d="m84.625 42.54 2.629 20.292-26.496 7.563"/><path style="fill:none;stroke-width:3.99385;stroke-linecap:round;stroke-linejoin:round;stroke:#000;stroke-opacity:1;stroke-miterlimit:10" d="m846.25 924.61 26.29-202.93-264.962-75.625Zm0 0" transform="matrix(.1 0 0 -.1 0 135)"/></svg>