<svg xmlns="http://www.w3.org/2000/svg" width="199pt" height="266.413" viewBox="0 0 199 199.81" version="1.2"><path style="stroke:none;fill-rule:nonzero;fill:#97defe;fill-opacity:1" d="M96.02 108.578 75.418 127.45l29.008.184"/><path style="fill:none;stroke-width:5;stroke-linecap:round;stroke-linejoin:round;stroke:#000;stroke-opacity:1;stroke-miterlimit:10" d="m960.162 911.286-206.211-188.89 290.354-1.838Zm0 0" transform="matrix(.0999 0 0 -.0999 .095 199.62)"/><path style="stroke:none;fill-rule:nonzero;fill:#f4eab9;fill-opacity:1" d="m75.418 127.45 20.602-18.872-25.372-8.36"/><path style="fill:none;stroke-width:5;stroke-linecap:round;stroke-linejoin:round;stroke:#000;stroke-opacity:1;stroke-miterlimit:10" d="m753.95 722.396 206.212 188.89L706.21 994.96Zm0 0" transform="matrix(.0999 0 0 -.0999 .095 199.62)"/><path style="stroke:none;fill-rule:nonzero;fill:#2e64d4;fill-opacity:1" d="m104.426 127.633 21.941-19.63-30.347.575"/><path style="fill:none;stroke-width:5;stroke-linecap:round;stroke-linejoin:round;stroke:#000;stroke-opacity:1;stroke-miterlimit:10" d="m1044.305 720.558 219.622 196.476-303.765-5.748Zm0 0" transform="matrix(.0999 0 0 -.0999 .095 199.62)"/><path style="stroke:none;fill-rule:nonzero;fill:#e48b60;fill-opacity:1" d="M84.133 73.902 70.648 100.22l25.372 8.36"/><path style="fill:none;stroke-width:5;stroke-linecap:round;stroke-linejoin:round;stroke:#000;stroke-opacity:1;stroke-miterlimit:10" d="M841.182 1258.374 706.21 994.96l253.952-83.674Zm0 0" transform="matrix(.0999 0 0 -.0999 .095 199.62)"/><path style="stroke:none;fill-rule:nonzero;fill:#351073;fill-opacity:1" d="M111.266 84.754 96.02 108.578l30.347-.574"/><path style="fill:none;stroke-width:5;stroke-linecap:round;stroke-linejoin:round;stroke:#000;stroke-opacity:1;stroke-miterlimit:10" d="M1112.768 1149.755 960.162 911.286l303.765 5.748Zm0 0" transform="matrix(.0999 0 0 -.0999 .095 199.62)"/><path style="stroke:none;fill-rule:nonzero;fill:#8c2942;fill-opacity:1" d="m96.02 108.578 15.246-23.824-27.133-10.852"/><path style="fill:none;stroke-width:5;stroke-linecap:round;stroke-linejoin:round;stroke:#000;stroke-opacity:1;stroke-miterlimit:10" d="m960.162 911.286 152.606 238.469-271.586 108.619Zm0 0" transform="matrix(.0999 0 0 -.0999 .095 199.62)"/><path style="stroke:none;fill-rule:nonzero;fill:#9a8ec5;fill-opacity:1" d="m111.266 84.754 15.101 23.25 26.125-74.152"/><path style="fill:none;stroke-width:5;stroke-linecap:round;stroke-linejoin:round;stroke:#000;stroke-opacity:1;stroke-miterlimit:10" d="m1112.768 1149.755 151.16-232.721 261.498 742.228Zm0 0" transform="matrix(.0999 0 0 -.0999 .095 199.62)"/><path style="stroke:none;fill-rule:nonzero;fill:#c595a4;fill-opacity:1" d="m84.133 73.902 27.133 10.852 41.226-50.902"/><path style="fill:none;stroke-width:5;stroke-linecap:round;stroke-linejoin:round;stroke:#000;stroke-opacity:1;stroke-miterlimit:10" d="m841.182 1258.374 271.586-108.619 412.658 509.507Zm0 0" transform="matrix(.0999 0 0 -.0999 .095 199.62)"/><path style="fill-rule:nonzero;fill:#000;fill-opacity:1;stroke-width:5;stroke-linecap:round;stroke-linejoin:round;stroke:#000;stroke-opacity:1;stroke-miterlimit:10" d="m1378.49 1148.152 562.135-291.605-531.599 276.903" transform="matrix(.0999 0 0 -.0999 .095 199.62)"/><path style="fill-rule:nonzero;fill:navy;fill-opacity:1;stroke-width:5;stroke-linecap:round;stroke-linejoin:round;stroke:#000;stroke-opacity:1;stroke-miterlimit:10" d="m1378.49 1148.152 146.936 511.11-175.323-497.503" transform="matrix(.0999 0 0 -.0999 .095 199.62)"/><path style="stroke:none;fill-rule:nonzero;fill:#e6cabb;fill-opacity:1" d="m137.813 84.914-21.918-11.539 36.597-39.523"/><path style="fill:none;stroke-width:5;stroke-linecap:round;stroke-linejoin:round;stroke:#000;stroke-opacity:1;stroke-miterlimit:10" d="m1378.49 1148.152-219.389 115.5 366.325 395.61Zm0 0" transform="matrix(.0999 0 0 -.0999 .095 199.62)"/><path style="fill-rule:nonzero;fill:#000;fill-opacity:1;stroke-width:5;stroke-linecap:round;stroke-linejoin:round;stroke:#000;stroke-opacity:1;stroke-miterlimit:10" d="m1409.026 1133.45-249.925 130.202 219.388-115.5" transform="matrix(.0999 0 0 -.0999 .095 199.62)"/><path style="fill-rule:nonzero;fill:navy;fill-opacity:1;stroke-width:5;stroke-linecap:round;stroke-linejoin:round;stroke:#000;stroke-opacity:1;stroke-miterlimit:10" d="m1350.103 1161.759-86.176-244.725 114.562 231.118" transform="matrix(.0999 0 0 -.0999 .095 199.62)"/><path style="fill-rule:nonzero;fill:#bd3a00;fill-opacity:1;stroke-width:5;stroke-linecap:round;stroke-linejoin:round;stroke:#000;stroke-opacity:1;stroke-miterlimit:10" d="m1022.8 1434.049-181.618-175.675 224.862 131.766" transform="matrix(.0999 0 0 -.0999 .095 199.62)"/><path style="stroke:none;fill-rule:nonzero;fill:#9e5c81;fill-opacity:1" d="m59.352 6.063 24.78 67.84 18.145-17.551"/><path style="fill:none;stroke-width:5;stroke-linecap:round;stroke-linejoin:round;stroke:#000;stroke-opacity:1;stroke-miterlimit:10" d="m593.134 1937.417 248.048-679.043 181.618 175.675Zm0 0" transform="matrix(.0999 0 0 -.0999 .095 199.62)"/><path style="fill-rule:nonzero;fill:#96d980;fill-opacity:1;stroke-width:5;stroke-linecap:round;stroke-linejoin:round;stroke:#000;stroke-opacity:1;stroke-miterlimit:10" d="m1022.8 1434.049 136.301-170.397-182.83 217.629" transform="matrix(.0999 0 0 -.0999 .095 199.62)"/><path style="fill-rule:nonzero;fill:#96d980;fill-opacity:1;stroke-width:5;stroke-linecap:round;stroke-linejoin:round;stroke:#000;stroke-opacity:1;stroke-miterlimit:10" d="m976.271 1481.28-383.137 456.137L1022.8 1434.05" transform="matrix(.0999 0 0 -.0999 .095 199.62)"/><path style="fill-rule:nonzero;fill:#bd3a00;fill-opacity:1;stroke-width:5;stroke-linecap:round;stroke-linejoin:round;stroke:#000;stroke-opacity:1;stroke-miterlimit:10" d="m1066.044 1390.14 459.382 269.122L1022.8 1434.05" transform="matrix(.0999 0 0 -.0999 .095 199.62)"/><path style="stroke:none;fill-rule:nonzero;fill:#a5c2ee;fill-opacity:1" d="m115.895 73.375-13.618-17.023 50.215-22.5"/><path style="fill:none;stroke-width:5;stroke-linecap:round;stroke-linejoin:round;stroke:#000;stroke-opacity:1;stroke-miterlimit:10" d="M1159.101 1263.652 1022.8 1434.05l502.626 225.213Zm0 0" transform="matrix(.0999 0 0 -.0999 .095 199.62)"/><path style="stroke:none;fill-rule:nonzero;fill:#b8b0d1;fill-opacity:1" d="m5.676 89.613 69.742 37.836-4.77-27.23"/><path style="fill:none;stroke-width:5;stroke-linecap:round;stroke-linejoin:round;stroke:#000;stroke-opacity:1;stroke-miterlimit:10" d="m55.866 1101.115 698.085-378.72L706.21 994.96Zm0 0" transform="matrix(.0999 0 0 -.0999 .095 199.62)"/><path style="stroke:none;fill-rule:nonzero;fill:#b17f9d;fill-opacity:1" d="m70.648 100.219 13.485-26.317L5.676 89.613"/><path style="fill:none;stroke-width:5;stroke-linecap:round;stroke-linejoin:round;stroke:#000;stroke-opacity:1;stroke-miterlimit:10" d="m706.21 994.96 134.972 263.414-785.316-157.259Zm0 0" transform="matrix(.0999 0 0 -.0999 .095 199.62)"/><path style="fill-rule:nonzero;fill:#85eace;fill-opacity:1;stroke-width:5;stroke-linecap:round;stroke-linejoin:round;stroke:#000;stroke-opacity:1;stroke-miterlimit:10" d="m521.503 821.474 232.448-99.078-229.672 124.61" transform="matrix(.0999 0 0 -.0999 .095 199.62)"/><path style="stroke:none;fill-rule:nonzero;fill:#e1c4bb;fill-opacity:1" d="m30.914 176.445 44.504-48.996-23.223-9.898"/><path style="fill:none;stroke-width:5;stroke-linecap:round;stroke-linejoin:round;stroke:#000;stroke-opacity:1;stroke-miterlimit:10" d="m308.488 231.97 445.463 490.426-232.448 99.078Zm0 0" transform="matrix(.0999 0 0 -.0999 .095 199.62)"/><path style="fill-rule:nonzero;fill:#00004f;fill-opacity:1;stroke-width:5;stroke-linecap:round;stroke-linejoin:round;stroke:#000;stroke-opacity:1;stroke-miterlimit:10" d="m521.503 821.474 95.482 235.85-98.453-263.337" transform="matrix(.0999 0 0 -.0999 .095 199.62)"/><path style="fill-rule:nonzero;fill:#00004f;fill-opacity:1;stroke-width:5;stroke-linecap:round;stroke-linejoin:round;stroke:#000;stroke-opacity:1;stroke-miterlimit:10" d="M518.532 793.987 308.488 231.97l213.015 589.505" transform="matrix(.0999 0 0 -.0999 .095 199.62)"/><path style="fill-rule:nonzero;fill:#85eace;fill-opacity:1;stroke-width:5;stroke-linecap:round;stroke-linejoin:round;stroke:#000;stroke-opacity:1;stroke-miterlimit:10" d="m524.28 847.006-468.414 254.11 465.637-279.642" transform="matrix(.0999 0 0 -.0999 .095 199.62)"/><path style="stroke:none;fill-rule:nonzero;fill:#754b91;fill-opacity:1" d="m61.734 93.988-9.539 23.563-46.52-27.938"/><path style="fill:none;stroke-width:5;stroke-linecap:round;stroke-linejoin:round;stroke:#000;stroke-opacity:1;stroke-miterlimit:10" d="m616.985 1057.323-95.482-235.849-465.637 279.641Zm0 0" transform="matrix(.0999 0 0 -.0999 .095 199.62)"/><path style="fill-rule:nonzero;fill:#8b0300;fill-opacity:1;stroke-width:5;stroke-linecap:round;stroke-linejoin:round;stroke:#000;stroke-opacity:1;stroke-miterlimit:10" d="m596.105 1271.941-540.24-170.826 528.002 105.725" transform="matrix(.0999 0 0 -.0999 .095 199.62)"/><path style="fill-rule:nonzero;fill:#8b0300;fill-opacity:1;stroke-width:5;stroke-linecap:round;stroke-linejoin:round;stroke:#000;stroke-opacity:1;stroke-miterlimit:10" d="m583.867 1206.84 257.315 51.534-245.077 13.567" transform="matrix(.0999 0 0 -.0999 .095 199.62)"/><path style="stroke:none;fill-rule:nonzero;fill:#da9f97;fill-opacity:1" d="m59.648 72.547 24.485 1.355-24.781-67.84"/><path style="fill:none;stroke-width:5;stroke-linecap:round;stroke-linejoin:round;stroke:#000;stroke-opacity:1;stroke-miterlimit:10" d="m596.105 1271.941 245.077-13.567-248.048 679.043Zm0 0" transform="matrix(.0999 0 0 -.0999 .095 199.62)"/><path style="fill-rule:nonzero;fill:#00001d;fill-opacity:1;stroke-width:5;stroke-linecap:round;stroke-linejoin:round;stroke:#000;stroke-opacity:1;stroke-miterlimit:10" d="m596.105 1271.941-2.971 665.476 16.148-595.487" transform="matrix(.0999 0 0 -.0999 .095 199.62)"/><path style="fill-rule:nonzero;fill:#00001d;fill-opacity:1;stroke-width:5;stroke-linecap:round;stroke-linejoin:round;stroke:#000;stroke-opacity:1;stroke-miterlimit:10" d="m609.282 1341.93 7.703-284.607-20.88 214.618" transform="matrix(.0999 0 0 -.0999 .095 199.62)"/><path style="stroke:none;fill-rule:nonzero;fill:#788edc;fill-opacity:1" d="M61.734 93.988 5.676 89.613l53.972-17.066"/><path style="fill:none;stroke-width:5;stroke-linecap:round;stroke-linejoin:round;stroke:#000;stroke-opacity:1;stroke-miterlimit:10" d="m616.985 1057.323-561.12 43.792 540.24 170.826Zm0 0" transform="matrix(.0999 0 0 -.0999 .095 199.62)"/><path style="stroke:none;fill-rule:nonzero;fill:#cab2c2;fill-opacity:1" d="m75.418 127.45 52.832 62.214-23.824-62.031"/><path style="fill:none;stroke-width:5;stroke-linecap:round;stroke-linejoin:round;stroke:#000;stroke-opacity:1;stroke-miterlimit:10" d="m753.95 722.396 528.823-622.74-238.468 620.902Zm0 0" transform="matrix(.0999 0 0 -.0999 .095 199.62)"/><path style="stroke:none;fill-rule:nonzero;fill:#987aaf;fill-opacity:1" d="m126.367 108.004-21.941 19.629 23.824 62.031"/><path style="fill:none;stroke-width:5;stroke-linecap:round;stroke-linejoin:round;stroke:#000;stroke-opacity:1;stroke-miterlimit:10" d="m1263.927 917.034-219.622-196.476 238.468-620.902Zm0 0" transform="matrix(.0999 0 0 -.0999 .095 199.62)"/><path style="stroke:none;fill-rule:nonzero;fill:#a9bde8;fill-opacity:1" d="m75.418 127.45-44.504 48.995 56.844-29.906"/><path style="fill:none;stroke-width:5;stroke-linecap:round;stroke-linejoin:round;stroke:#000;stroke-opacity:1;stroke-miterlimit:10" d="M753.95 722.396 308.489 231.969l568.978 299.347Zm0 0" transform="matrix(.0999 0 0 -.0999 .095 199.62)"/><path style="fill-rule:nonzero;fill:#a51700;fill-opacity:1;stroke-width:5;stroke-linecap:round;stroke-linejoin:round;stroke:#000;stroke-opacity:1;stroke-miterlimit:10" d="M877.466 531.316 308.488 231.969l516.35 312.21" transform="matrix(.0999 0 0 -.0999 .095 199.62)"/><path style="fill-rule:nonzero;fill:#c3f7ae;fill-opacity:1;stroke-width:5;stroke-linecap:round;stroke-linejoin:round;stroke:#000;stroke-opacity:1;stroke-miterlimit:10" d="M926.38 519.351 753.95 722.396l123.516-191.08" transform="matrix(.0999 0 0 -.0999 .095 199.62)"/><path style="fill-rule:nonzero;fill:#a51700;fill-opacity:1;stroke-width:5;stroke-linecap:round;stroke-linejoin:round;stroke:#000;stroke-opacity:1;stroke-miterlimit:10" d="m824.838 544.18 243.2 147.053-190.572-159.917" transform="matrix(.0999 0 0 -.0999 .095 199.62)"/><path style="fill-rule:nonzero;fill:#c3f7ae;fill-opacity:1;stroke-width:5;stroke-linecap:round;stroke-linejoin:round;stroke:#000;stroke-opacity:1;stroke-miterlimit:10" d="m877.466 531.316 405.307-431.66L926.38 519.35" transform="matrix(.0999 0 0 -.0999 .095 199.62)"/><path style="stroke:none;fill-rule:nonzero;fill:#9a5479;fill-opacity:1" d="m87.758 146.54 19.039-15.977 21.453 59.101"/><path style="fill:none;stroke-width:5;stroke-linecap:round;stroke-linejoin:round;stroke:#000;stroke-opacity:1;stroke-miterlimit:10" d="m877.466 531.316 190.572 159.917 214.735-591.577Zm0 0" transform="matrix(.0999 0 0 -.0999 .095 199.62)"/><path style="fill-rule:nonzero;fill:#00004f;fill-opacity:1;stroke-width:5;stroke-linecap:round;stroke-linejoin:round;stroke:#000;stroke-opacity:1;stroke-miterlimit:10" d="m1307.758 695.847-43.83 221.187 6.138-266.23" transform="matrix(.0999 0 0 -.0999 .095 199.62)"/><path style="fill-rule:nonzero;fill:#00004f;fill-opacity:1;stroke-width:5;stroke-linecap:round;stroke-linejoin:round;stroke:#000;stroke-opacity:1;stroke-miterlimit:10" d="m1270.066 650.804 12.707-551.148 24.985 596.191" transform="matrix(.0999 0 0 -.0999 .095 199.62)"/><path style="stroke:none;fill-rule:nonzero;fill:#8290d9;fill-opacity:1" d="m126.367 108.004 4.38 22.098 63.226-16.055"/><path style="fill:none;stroke-width:5;stroke-linecap:round;stroke-linejoin:round;stroke:#000;stroke-opacity:1;stroke-miterlimit:10" d="m1263.927 917.034 43.831-221.187 632.867 160.7Zm0 0" transform="matrix(.0999 0 0 -.0999 .095 199.62)"/><path style="fill-rule:nonzero;fill:#6c0000;fill-opacity:1;stroke-width:5;stroke-linecap:round;stroke-linejoin:round;stroke:#000;stroke-opacity:1;stroke-miterlimit:10" d="m1307.758 695.847-239.72-4.614 280.305 53.098M1348.343 744.33l592.282 112.217-632.867-160.7" transform="matrix(.0999 0 0 -.0999 .095 199.62)"/><path style="stroke:none;fill-rule:nonzero;fill:#dea091;fill-opacity:1" d="m128.25 189.664-21.453-59.101 23.95-.461"/><path style="fill:none;stroke-width:5;stroke-linecap:round;stroke-linejoin:round;stroke:#000;stroke-opacity:1;stroke-miterlimit:10" d="m1282.773 99.656-214.735 591.577 239.72 4.614Zm0 0" transform="matrix(.0999 0 0 -.0999 .095 199.62)"/><path style="stroke:none;fill-rule:nonzero;fill:#7e5596;fill-opacity:1" d="m126.367 108.004 67.606 6.043-56.16-29.133"/><path style="fill:none;stroke-width:5;stroke-linecap:round;stroke-linejoin:round;stroke:#000;stroke-opacity:1;stroke-miterlimit:10" d="m1263.927 917.034 676.698-60.487-562.136 291.605Zm0 0" transform="matrix(.0999 0 0 -.0999 .095 199.62)"/><path style="stroke:none;fill-rule:nonzero;fill:#f5f1af;fill-opacity:1" d="M122.223 102.316 93.777 91.402l22.118-18.027"/><path style="fill:none;stroke-width:5;stroke-linecap:round;stroke-linejoin:round;stroke:#000;stroke-opacity:1;stroke-miterlimit:10" d="m1222.443 973.963-284.724 109.244 221.382 180.445Zm0 0" transform="matrix(.0999 0 0 -.0999 .095 199.62)"/><path style="stroke:none;fill-rule:nonzero;fill:#81defb;fill-opacity:1" d="m93.777 91.402-9.07-19.363 31.188 1.336"/><path style="fill:none;stroke-width:5;stroke-linecap:round;stroke-linejoin:round;stroke:#000;stroke-opacity:1;stroke-miterlimit:10" d="m937.719 1083.207-90.79 193.817 312.172-13.372Zm0 0" transform="matrix(.0999 0 0 -.0999 .095 199.62)"/><path style="stroke:none;fill-rule:nonzero;fill:#b8b3d4;fill-opacity:1" d="m122.223 102.316-6.328-28.941 78.078 40.672"/><path style="fill:none;stroke-width:5;stroke-linecap:round;stroke-linejoin:round;stroke:#000;stroke-opacity:1;stroke-miterlimit:10" d="m1222.443 973.963-63.342 289.69 781.524-407.106Zm0 0" transform="matrix(.0999 0 0 -.0999 .095 199.62)"/><path style="stroke:none;fill-rule:nonzero;fill:#ccb5c4;fill-opacity:1" d="m115.895 73.375-31.188-1.336L59.352 6.062"/><path style="fill:none;stroke-width:5;stroke-linecap:round;stroke-linejoin:round;stroke:#000;stroke-opacity:1;stroke-miterlimit:10" d="m1159.101 1263.652-312.171 13.372-253.796 660.393Zm0 0" transform="matrix(.0999 0 0 -.0999 .095 199.62)"/><path style="stroke:none;fill-rule:nonzero;fill:#978dc7;fill-opacity:1" d="m76.973 119.578-46.059 56.867 30.82-82.457"/><path style="fill:none;stroke-width:5;stroke-linecap:round;stroke-linejoin:round;stroke:#000;stroke-opacity:1;stroke-miterlimit:10" d="M769.512 801.182 308.488 231.969l308.497 825.354Zm0 0" transform="matrix(.0999 0 0 -.0999 .095 199.62)"/><path style="stroke:none;fill-rule:nonzero;fill:#14005e;fill-opacity:1" d="m76.973 119.578-15.239-25.59 32.043-2.586"/><path style="fill:none;stroke-width:5;stroke-linecap:round;stroke-linejoin:round;stroke:#000;stroke-opacity:1;stroke-miterlimit:10" d="m769.512 801.182-152.527 256.141 320.734 25.884Zm0 0" transform="matrix(.0999 0 0 -.0999 .095 199.62)"/><path style="stroke:none;fill-rule:nonzero;fill:#074fcc;fill-opacity:1" d="m93.777 91.402-32.043 2.586L84.707 72.04"/><path style="fill:none;stroke-width:5;stroke-linecap:round;stroke-linejoin:round;stroke:#000;stroke-opacity:1;stroke-miterlimit:10" d="m937.719 1083.207-320.734-25.884 229.945 219.701Zm0 0" transform="matrix(.0999 0 0 -.0999 .095 199.62)"/><path style="stroke:none;fill-rule:nonzero;fill:#9477af;fill-opacity:1" d="M61.734 93.988 59.352 6.063l25.355 65.976"/><path style="fill:none;stroke-width:5;stroke-linecap:round;stroke-linejoin:round;stroke:#000;stroke-opacity:1;stroke-miterlimit:10" d="m616.985 1057.323-23.851 880.094 253.796-660.393Zm0 0" transform="matrix(.0999 0 0 -.0999 .095 199.62)"/><path style="stroke:none;fill-rule:nonzero;fill:#c695a3;fill-opacity:1" d="m30.914 176.445 46.059-56.867 29.824 10.984"/><path style="fill:none;stroke-width:5;stroke-linecap:round;stroke-linejoin:round;stroke:#000;stroke-opacity:1;stroke-miterlimit:10" d="m308.488 231.97 461.024 569.212 298.526-109.949Zm0 0" transform="matrix(.0999 0 0 -.0999 .095 199.62)"/><path style="stroke:none;fill-rule:nonzero;fill:#7f1127;fill-opacity:1" d="m106.797 130.563-29.824-10.985 16.804-28.176"/><path style="fill:none;stroke-width:5;stroke-linecap:round;stroke-linejoin:round;stroke:#000;stroke-opacity:1;stroke-miterlimit:10" d="M1068.038 691.233 769.512 801.182l168.207 282.025Zm0 0" transform="matrix(.0999 0 0 -.0999 .095 199.62)"/><path style="stroke:none;fill-rule:nonzero;fill:#e68449;fill-opacity:1" d="m106.797 130.563-13.02-39.16 28.446 10.913"/><path style="fill:none;stroke-width:5;stroke-linecap:round;stroke-linejoin:round;stroke:#000;stroke-opacity:1;stroke-miterlimit:10" d="M1068.038 691.233 937.72 1083.207l284.724-109.244Zm0 0" transform="matrix(.0999 0 0 -.0999 .095 199.62)"/><path style="stroke:none;fill-rule:nonzero;fill:#b07c9a;fill-opacity:1" d="m193.973 114.047-87.176 16.516 15.426-28.247"/><path style="fill:none;stroke-width:5;stroke-linecap:round;stroke-linejoin:round;stroke:#000;stroke-opacity:1;stroke-miterlimit:10" d="m1940.625 856.547-872.587-165.314 154.405 282.73Zm0 0" transform="matrix(.0999 0 0 -.0999 .095 199.62)"/></svg>