<svg xmlns="http://www.w3.org/2000/svg" width="264" height="200pt" viewBox="0 0 198 200" version="1.2"><path style="fill-rule:nonzero;fill:#d0aeb7;fill-opacity:1;stroke-width:7.28;stroke-linecap:round;stroke-linejoin:round;stroke:#000;stroke-opacity:1;stroke-miterlimit:10" d="m714.688 1182.11 159.218-309.883-210.39-260.079" transform="matrix(.1 0 0 -.1 0 200)"/><path style="fill-rule:nonzero;fill:#b48baa;fill-opacity:1;stroke-width:7.28;stroke-linecap:round;stroke-linejoin:round;stroke:#000;stroke-opacity:1;stroke-miterlimit:10" d="m1031.094 1340.313 156.523-313.008-313.71-155.078" transform="matrix(.1 0 0 -.1 0 200)"/><path style="fill-rule:nonzero;fill:#b48baa;fill-opacity:1;stroke-width:7.28;stroke-linecap:round;stroke-linejoin:round;stroke:#000;stroke-opacity:1;stroke-miterlimit:10" d="m873.906 872.227-159.218 309.882 316.406 158.204" transform="matrix(.1 0 0 -.1 0 200)"/><path style="stroke:none;fill-rule:nonzero;fill:#ab93bd;fill-opacity:1" d="M116.094 132.215 87.39 112.777l31.37-15.507"/><path style="fill:none;stroke-width:7.28;stroke-linecap:round;stroke-linejoin:round;stroke:#000;stroke-opacity:1;stroke-miterlimit:10" d="M1160.938 677.852 873.906 872.227l313.711 155.078Zm0 0" transform="matrix(.1 0 0 -.1 0 200)"/><path style="fill-rule:nonzero;fill:#b6abcd;fill-opacity:1;stroke-width:7.28;stroke-linecap:round;stroke-linejoin:round;stroke:#000;stroke-opacity:1;stroke-miterlimit:10" d="m873.906 872.227 287.032-194.375-205.665-269.22" transform="matrix(.1 0 0 -.1 0 200)"/><path style="fill-rule:nonzero;fill:#b6abcd;fill-opacity:1;stroke-width:7.28;stroke-linecap:round;stroke-linejoin:round;stroke:#000;stroke-opacity:1;stroke-miterlimit:10" d="M955.273 408.633 663.516 612.148l210.39 260.079" transform="matrix(.1 0 0 -.1 0 200)"/><path style="fill-rule:nonzero;fill:#906196;fill-opacity:1;stroke-width:7.28;stroke-linecap:round;stroke-linejoin:round;stroke:#000;stroke-opacity:1;stroke-miterlimit:10" d="m1562.617 1361.406-51.836-332.422-323.164-1.68" transform="matrix(.1 0 0 -.1 0 200)"/><path style="stroke:none;fill-rule:nonzero;fill:#906196;fill-opacity:1" d="m125.273 44.297 30.989 19.562-37.5 33.41"/><path style="fill:none;stroke-width:7.28;stroke-linecap:round;stroke-linejoin:round;stroke:#000;stroke-opacity:1;stroke-miterlimit:10" d="m1252.734 1557.031 309.883-195.625" transform="matrix(.1 0 0 -.1 0 200)"/><path style="fill-rule:nonzero;fill:#906196;fill-opacity:1;stroke-width:7.28;stroke-linecap:round;stroke-linejoin:round;stroke:#000;stroke-opacity:1;stroke-miterlimit:10" d="m1187.617 1027.305-156.523 313.007 221.64 216.72" transform="matrix(.1 0 0 -.1 0 200)"/><path style="fill-rule:nonzero;fill:#9180bc;fill-opacity:1;stroke-width:7.28;stroke-linecap:round;stroke-linejoin:round;stroke:#000;stroke-opacity:1;stroke-miterlimit:10" d="m1160.938 677.852 26.68 349.453 323.163 1.68" transform="matrix(.1 0 0 -.1 0 200)"/><path style="fill-rule:nonzero;fill:#d2918e;fill-opacity:1;stroke-width:7.28;stroke-linecap:round;stroke-linejoin:round;stroke:#000;stroke-opacity:1;stroke-miterlimit:10" d="m738.79 1510.04-24.102-327.93-321.485-56.172" transform="matrix(.1 0 0 -.1 0 200)"/><path style="stroke:none;fill-rule:nonzero;fill:#bc8193;fill-opacity:1" d="m71.469 81.79 2.41-32.794 29.23 16.973"/><path style="fill:none;stroke-width:7.28;stroke-linecap:round;stroke-linejoin:round;stroke:#000;stroke-opacity:1;stroke-miterlimit:10" d="m714.688 1182.11 24.101 327.93 292.305-169.727Zm0 0" transform="matrix(.1 0 0 -.1 0 200)"/><path style="stroke:none;fill-rule:nonzero;fill:#d0aeb7;fill-opacity:1" d="M39.32 87.406 71.47 81.79l-5.117 56.996"/><path style="fill:none;stroke-width:7.28;stroke-linecap:round;stroke-linejoin:round;stroke:#000;stroke-opacity:1;stroke-miterlimit:10" d="m393.203 1125.938 321.485 56.171" transform="matrix(.1 0 0 -.1 0 200)"/><path style="fill-rule:nonzero;fill:#8d9ddd;fill-opacity:1;stroke-width:7.28;stroke-linecap:round;stroke-linejoin:round;stroke:#000;stroke-opacity:1;stroke-miterlimit:10" d="M1150.547 207.305 955.273 408.633l205.664 269.219" transform="matrix(.1 0 0 -.1 0 200)"/><path style="stroke:none;fill-rule:nonzero;fill:#8d9ddd;fill-opacity:1" d="m149.684 162.563-34.63 16.707 1.04-47.055"/><path style="fill:none;stroke-width:7.28;stroke-linecap:round;stroke-linejoin:round;stroke:#000;stroke-opacity:1;stroke-miterlimit:10" d="m1496.836 374.375-346.29-167.07" transform="matrix(.1 0 0 -.1 0 200)"/><path style="fill-rule:nonzero;fill:#8d9ddd;fill-opacity:1;stroke-width:7.28;stroke-linecap:round;stroke-linejoin:round;stroke:#000;stroke-opacity:1;stroke-miterlimit:10" d="m1160.938 677.852 325.468-10.664 10.43-292.813" transform="matrix(.1 0 0 -.1 0 200)"/><path style="fill-rule:nonzero;fill:#9180bc;fill-opacity:1;stroke-width:7.28;stroke-linecap:round;stroke-linejoin:round;stroke:#000;stroke-opacity:1;stroke-miterlimit:10" d="m1510.781 1028.984-24.375-361.796-325.468 10.664" transform="matrix(.1 0 0 -.1 0 200)"/><path style="fill-rule:nonzero;fill:#a95f77;fill-opacity:1;stroke-width:7.28;stroke-linecap:round;stroke-linejoin:round;stroke:#000;stroke-opacity:1;stroke-miterlimit:10" d="m954.14 1740.586 298.594-183.555-221.64-216.718" transform="matrix(.1 0 0 -.1 0 200)"/><path style="fill-rule:nonzero;fill:#a95f77;fill-opacity:1;stroke-width:7.28;stroke-linecap:round;stroke-linejoin:round;stroke:#000;stroke-opacity:1;stroke-miterlimit:10" d="m1031.094 1340.313-292.305 169.726 215.352 230.547" transform="matrix(.1 0 0 -.1 0 200)"/><path style="fill-rule:nonzero;fill:#d0aeb7;fill-opacity:1;stroke-width:7.28;stroke-linecap:round;stroke-linejoin:round;stroke:#000;stroke-opacity:1;stroke-miterlimit:10" d="M663.516 612.148 357.46 763.125l35.742 362.813" transform="matrix(.1 0 0 -.1 0 200)"/><path style="fill-rule:nonzero;fill:#d8d5d4;fill-opacity:1;stroke-width:7.28;stroke-linecap:round;stroke-linejoin:round;stroke:#000;stroke-opacity:1;stroke-miterlimit:10" d="m357.46 763.125 306.056-150.977-31.446-288.867" transform="matrix(.1 0 0 -.1 0 200)"/><path style="stroke:none;fill-rule:nonzero;fill:#c0c4dd;fill-opacity:1" d="m95.527 159.137-32.32 8.535 3.145-28.887"/><path style="fill:none;stroke-width:7.28;stroke-linecap:round;stroke-linejoin:round;stroke:#000;stroke-opacity:1;stroke-miterlimit:10" d="M955.273 408.633 632.07 323.28l31.446 288.867Zm0 0" transform="matrix(.1 0 0 -.1 0 200)"/><path style="fill-rule:nonzero;fill:#533792;fill-opacity:1;stroke-width:7.28;stroke-linecap:round;stroke-linejoin:round;stroke:#000;stroke-opacity:1;stroke-miterlimit:10" d="m1798.79 1207.11-62.813-345.196-225.196 167.07" transform="matrix(.1 0 0 -.1 0 200)"/><path style="fill-rule:nonzero;fill:#533792;fill-opacity:1;stroke-width:7.28;stroke-linecap:round;stroke-linejoin:round;stroke:#000;stroke-opacity:1;stroke-miterlimit:10" d="m1510.781 1028.984 51.836 332.422 236.172-154.297" transform="matrix(.1 0 0 -.1 0 200)"/><path style="stroke:none;fill-rule:nonzero;fill:#6c62b5;fill-opacity:1" d="m148.64 133.281 2.438-36.18 22.52 16.708"/><path style="fill:none;stroke-width:7.28;stroke-linecap:round;stroke-linejoin:round;stroke:#000;stroke-opacity:1;stroke-miterlimit:10" d="m1486.406 667.188 24.375 361.796 225.196-167.07Zm0 0" transform="matrix(.1 0 0 -.1 0 200)"/><path style="fill-rule:nonzero;fill:#a8cdf3;fill-opacity:1;stroke-width:7.28;stroke-linecap:round;stroke-linejoin:round;stroke:#000;stroke-opacity:1;stroke-miterlimit:10" d="m632.07 323.281 323.203 85.352 195.274-201.328" transform="matrix(.1 0 0 -.1 0 200)"/><path style="fill-rule:nonzero;fill:#c15642;fill-opacity:1;stroke-width:7.28;stroke-linecap:round;stroke-linejoin:round;stroke:#000;stroke-opacity:1;stroke-miterlimit:10" d="m954.14 1740.586-215.35-230.547-331.563-46.406" transform="matrix(.1 0 0 -.1 0 200)"/><path style="fill-rule:nonzero;fill:#d2918e;fill-opacity:1;stroke-width:7.28;stroke-linecap:round;stroke-linejoin:round;stroke:#000;stroke-opacity:1;stroke-miterlimit:10" d="m393.203 1125.938 14.024 337.695 331.562 46.406" transform="matrix(.1 0 0 -.1 0 200)"/><path style="stroke:none;fill-rule:nonzero;fill:#e9a484;fill-opacity:1" d="m39.32 87.406-22.754-7.304 24.157-26.465"/><path style="fill:none;stroke-width:7.28;stroke-linecap:round;stroke-linejoin:round;stroke:#000;stroke-opacity:1;stroke-miterlimit:10" d="m393.203 1125.938-227.539 73.046 241.563 264.649Zm0 0" transform="matrix(.1 0 0 -.1 0 200)"/><path style="fill-rule:nonzero;fill:#f1c5a2;fill-opacity:1;stroke-width:7.28;stroke-linecap:round;stroke-linejoin:round;stroke:#000;stroke-opacity:1;stroke-miterlimit:10" d="m165.664 1198.984 227.54-73.046-35.743-362.813" transform="matrix(.1 0 0 -.1 0 200)"/><path style="fill-rule:nonzero;fill:#4960c7;fill-opacity:1;stroke-width:7.28;stroke-linecap:round;stroke-linejoin:round;stroke:#000;stroke-opacity:1;stroke-miterlimit:10" d="m1760.39 566.016-263.554-191.641-10.43 292.813" transform="matrix(.1 0 0 -.1 0 200)"/><path style="fill-rule:nonzero;fill:#4960c7;fill-opacity:1;stroke-width:7.28;stroke-linecap:round;stroke-linejoin:round;stroke:#000;stroke-opacity:1;stroke-miterlimit:10" d="m1486.406 667.188 249.57 194.726 24.415-295.898" transform="matrix(.1 0 0 -.1 0 200)"/><path style="fill-rule:nonzero;fill:#f1c5a2;fill-opacity:1;stroke-width:7.28;stroke-linecap:round;stroke-linejoin:round;stroke:#000;stroke-opacity:1;stroke-miterlimit:10" d="m357.46 763.125-232.343 50.234 40.547 385.625" transform="matrix(.1 0 0 -.1 0 200)"/><path style="stroke:none;fill-rule:nonzero;fill:#efe0bf;fill-opacity:1" d="m30.914 152.652-18.402-33.988 23.234 5.023"/><path style="fill:none;stroke-width:7.28;stroke-linecap:round;stroke-linejoin:round;stroke:#000;stroke-opacity:1;stroke-miterlimit:10" d="M309.14 473.477 125.118 813.359l232.344-50.234Zm0 0" transform="matrix(.1 0 0 -.1 0 200)"/><path style="fill-rule:nonzero;fill:#d8d5d4;fill-opacity:1;stroke-width:7.28;stroke-linecap:round;stroke-linejoin:round;stroke:#000;stroke-opacity:1;stroke-miterlimit:10" d="M632.07 323.281 309.14 473.477l48.32 289.648" transform="matrix(.1 0 0 -.1 0 200)"/><path style="fill-rule:nonzero;fill:#761338;fill-opacity:1;stroke-width:7.28;stroke-linecap:round;stroke-linejoin:round;stroke:#000;stroke-opacity:1;stroke-miterlimit:10" d="m1471.875 1659.492-219.14-102.46-298.594 183.554" transform="matrix(.1 0 0 -.1 0 200)"/><path style="stroke:none;fill-rule:nonzero;fill:#6c2663;fill-opacity:1" d="m125.273 44.297 21.915-10.246 9.074 29.808"/><path style="fill:none;stroke-width:7.28;stroke-linecap:round;stroke-linejoin:round;stroke:#000;stroke-opacity:1;stroke-miterlimit:10" d="m1252.734 1557.031 219.141 102.461 90.742-298.086Zm0 0" transform="matrix(.1 0 0 -.1 0 200)"/><path style="fill-rule:nonzero;fill:#200040;fill-opacity:1;stroke-width:7.28;stroke-linecap:round;stroke-linejoin:round;stroke:#000;stroke-opacity:1;stroke-miterlimit:10" d="m1714.766 1515.078 84.023-307.969-236.172 154.297M1562.617 1361.406l-90.742 298.086 242.89-144.414" transform="matrix(.1 0 0 -.1 0 200)"/><path style="fill-rule:nonzero;fill:#bdfae9;fill-opacity:1;stroke-width:7.28;stroke-linecap:round;stroke-linejoin:round;stroke:#000;stroke-opacity:1;stroke-miterlimit:10" d="M309.14 473.477 632.07 323.28 816.367 109.61" transform="matrix(.1 0 0 -.1 0 200)"/><path style="fill-rule:nonzero;fill:#a8cdf3;fill-opacity:1;stroke-width:7.28;stroke-linecap:round;stroke-linejoin:round;stroke:#000;stroke-opacity:1;stroke-miterlimit:10" d="m1150.547 207.305-334.18-97.696L632.07 323.281" transform="matrix(.1 0 0 -.1 0 200)"/><path style="stroke:none;fill-rule:nonzero;fill:#c15642;fill-opacity:1" d="M75.387 14.188 95.414 25.94 40.723 53.637"/><path style="fill:none;stroke-width:7.28;stroke-linecap:round;stroke-linejoin:round;stroke:#000;stroke-opacity:1;stroke-miterlimit:10" d="m753.867 1858.125 200.274-117.54" transform="matrix(.1 0 0 -.1 0 200)"/><path style="fill-rule:nonzero;fill:#c15642;fill-opacity:1;stroke-width:7.28;stroke-linecap:round;stroke-linejoin:round;stroke:#000;stroke-opacity:1;stroke-miterlimit:10" d="m407.227 1463.633-13.985 210.703 360.625 183.789" transform="matrix(.1 0 0 -.1 0 200)"/><path style="fill-rule:nonzero;fill:#ea863c;fill-opacity:1;stroke-width:7.28;stroke-linecap:round;stroke-linejoin:round;stroke:#000;stroke-opacity:1;stroke-miterlimit:10" d="m393.242 1674.336 13.985-210.703-241.563-264.649" transform="matrix(.1 0 0 -.1 0 200)"/><path style="stroke:none;fill-rule:nonzero;fill:maroon;fill-opacity:1" d="M95.414 25.941 75.387 14.188l40.656-.032"/><path style="fill:none;stroke-width:7.28;stroke-linecap:round;stroke-linejoin:round;stroke:#000;stroke-opacity:1;stroke-miterlimit:10" d="m954.14 1740.586-200.273 117.539 406.563.313Zm0 0" transform="matrix(.1 0 0 -.1 0 200)"/><path style="fill-rule:nonzero;fill:#761338;fill-opacity:1;stroke-width:7.28;stroke-linecap:round;stroke-linejoin:round;stroke:#000;stroke-opacity:1;stroke-miterlimit:10" d="m954.14 1740.586 206.29 117.851 311.445-198.945" transform="matrix(.1 0 0 -.1 0 200)"/><path style="fill-rule:nonzero;fill:#000060;fill-opacity:1;stroke-width:7.28;stroke-linecap:round;stroke-linejoin:round;stroke:#000;stroke-opacity:1;stroke-miterlimit:10" d="m1847.227 724.844-86.836-158.828-24.414 295.898" transform="matrix(.1 0 0 -.1 0 200)"/><path style="stroke:none;fill-rule:nonzero;fill:#000060;fill-opacity:1" d="m187.184 84.848-2.461 42.668-11.125-13.707"/><path style="fill:none;stroke-width:7.28;stroke-linecap:round;stroke-linejoin:round;stroke:#000;stroke-opacity:1;stroke-miterlimit:10" d="m1871.836 1151.523-24.61-426.68" transform="matrix(.1 0 0 -.1 0 200)"/><path style="fill-rule:nonzero;fill:#000060;fill-opacity:1;stroke-width:7.28;stroke-linecap:round;stroke-linejoin:round;stroke:#000;stroke-opacity:1;stroke-miterlimit:10" d="m1735.977 861.914 62.812 345.195 73.047-55.586" transform="matrix(.1 0 0 -.1 0 200)"/><path style="stroke:none;fill-rule:nonzero;fill:#6ec5fe;fill-opacity:1" d="m115.055 179.27 1.953 13.234-35.371-3.465"/><path style="fill:none;stroke-width:7.28;stroke-linecap:round;stroke-linejoin:round;stroke:#000;stroke-opacity:1;stroke-miterlimit:10" d="m1150.547 207.305 19.531-132.344-353.71 34.648Zm0 0" transform="matrix(.1 0 0 -.1 0 200)"/><path style="fill-rule:nonzero;fill:#3b92f0;fill-opacity:1;stroke-width:7.28;stroke-linecap:round;stroke-linejoin:round;stroke:#000;stroke-opacity:1;stroke-miterlimit:10" d="m1170.078 74.96-19.531 132.345 346.289 167.07" transform="matrix(.1 0 0 -.1 0 200)"/><path style="fill-rule:nonzero;fill:#3b92f0;fill-opacity:1;stroke-width:7.28;stroke-linecap:round;stroke-linejoin:round;stroke:#000;stroke-opacity:1;stroke-miterlimit:10" d="m1496.836 374.375 46.992-119.844-373.75-179.57" transform="matrix(.1 0 0 -.1 0 200)"/><path style="stroke:none;fill-rule:nonzero;fill:#0954cf;fill-opacity:1" d="m149.684 162.563 26.355-19.165-21.656 31.149"/><path style="fill:none;stroke-width:7.28;stroke-linecap:round;stroke-linejoin:round;stroke:#000;stroke-opacity:1;stroke-miterlimit:10" d="m1496.836 374.375 263.555 191.64-216.563-311.484Zm0 0" transform="matrix(.1 0 0 -.1 0 200)"/><path style="fill-rule:nonzero;fill:#e9f6a4;fill-opacity:1;stroke-width:7.28;stroke-linecap:round;stroke-linejoin:round;stroke:#000;stroke-opacity:1;stroke-miterlimit:10" d="m125.117 813.36 184.024-339.883-47.305-112.696" transform="matrix(.1 0 0 -.1 0 200)"/><path style="stroke:none;fill-rule:nonzero;fill:#bdfae9;fill-opacity:1" d="m26.184 163.922 4.73-11.27 50.723 36.387"/><path style="fill:none;stroke-width:7.28;stroke-linecap:round;stroke-linejoin:round;stroke:#000;stroke-opacity:1;stroke-miterlimit:10" d="m261.836 360.781 47.305 112.696" transform="matrix(.1 0 0 -.1 0 200)"/><path style="fill-rule:nonzero;fill:#ea863c;fill-opacity:1;stroke-width:7.28;stroke-linecap:round;stroke-linejoin:round;stroke:#000;stroke-opacity:1;stroke-miterlimit:10" d="m165.664 1198.984-31.836 198.204 259.414 277.148" transform="matrix(.1 0 0 -.1 0 200)"/><path style="fill-rule:nonzero;fill:#e7b130;fill-opacity:1;stroke-width:7.28;stroke-linecap:round;stroke-linejoin:round;stroke:#000;stroke-opacity:1;stroke-miterlimit:10" d="M165.664 1198.984 125.117 813.36l-62.695-86.757" transform="matrix(.1 0 0 -.1 0 200)"/><path style="stroke:none;fill-rule:nonzero;fill:#e7b130;fill-opacity:1" d="m13.383 60.281 3.183 19.82L6.242 127.34"/><path style="fill:none;stroke-width:7.28;stroke-linecap:round;stroke-linejoin:round;stroke:#000;stroke-opacity:1;stroke-miterlimit:10" d="m133.828 1397.188 31.836-198.204" transform="matrix(.1 0 0 -.1 0 200)"/><path style="fill-rule:nonzero;fill:#e9f6a4;fill-opacity:1;stroke-width:7.28;stroke-linecap:round;stroke-linejoin:round;stroke:#000;stroke-opacity:1;stroke-miterlimit:10" d="M261.836 360.781 62.422 726.601l62.695 86.758" transform="matrix(.1 0 0 -.1 0 200)"/><path style="fill-rule:nonzero;fill:#000;fill-opacity:1;stroke-width:7.28;stroke-linecap:round;stroke-linejoin:round;stroke:#000;stroke-opacity:1;stroke-miterlimit:10" d="m1714.766 1515.078-242.891 144.414-311.445 198.946" transform="matrix(.1 0 0 -.1 0 200)"/><path style="stroke:none;fill-rule:nonzero;fill:#000;fill-opacity:1" d="m179.879 79.29-8.402-30.798 15.707 36.356"/><path style="fill:none;stroke-width:7.28;stroke-linecap:round;stroke-linejoin:round;stroke:#000;stroke-opacity:1;stroke-miterlimit:10" d="m1798.79 1207.11-84.024 307.968 157.07-363.555Zm0 0" transform="matrix(.1 0 0 -.1 0 200)"/><path style="fill-rule:nonzero;fill:#bdfae9;fill-opacity:1;stroke-width:7.28;stroke-linecap:round;stroke-linejoin:round;stroke:#000;stroke-opacity:1;stroke-miterlimit:10" d="m816.367 109.61-219.804 8.515-334.727 242.656" transform="matrix(.1 0 0 -.1 0 200)"/><path style="fill-rule:nonzero;fill:#1ca9c0;fill-opacity:1;stroke-width:7.28;stroke-linecap:round;stroke-linejoin:round;stroke:#000;stroke-opacity:1;stroke-miterlimit:10" d="m596.563 118.125 219.804-8.516 353.711-34.648" transform="matrix(.1 0 0 -.1 0 200)"/><path style="fill-rule:nonzero;fill:#a93900;fill-opacity:1;stroke-width:7.28;stroke-linecap:round;stroke-linejoin:round;stroke:#000;stroke-opacity:1;stroke-miterlimit:10" d="m1616.68 394.531-72.852-140 216.563 311.485" transform="matrix(.1 0 0 -.1 0 200)"/><path style="fill-rule:nonzero;fill:#a93900;fill-opacity:1;stroke-width:7.28;stroke-linecap:round;stroke-linejoin:round;stroke:#000;stroke-opacity:1;stroke-miterlimit:10" d="m1760.39 566.016 86.837 158.828L1616.68 394.53" transform="matrix(.1 0 0 -.1 0 200)"/><path style="fill-rule:nonzero;fill:#560000;fill-opacity:1;stroke-width:7.28;stroke-linecap:round;stroke-linejoin:round;stroke:#000;stroke-opacity:1;stroke-miterlimit:10" d="m741.406 1855.586 12.461 2.539-360.625-183.79" transform="matrix(.1 0 0 -.1 0 200)"/><path style="fill-rule:nonzero;fill:#560000;fill-opacity:1;stroke-width:7.28;stroke-linecap:round;stroke-linejoin:round;stroke:#000;stroke-opacity:1;stroke-miterlimit:10" d="m393.242 1674.336-42.344-17.813 390.508 199.063" transform="matrix(.1 0 0 -.1 0 200)"/><path style="stroke:none;fill-rule:nonzero;fill:#9b1d00;fill-opacity:1" d="M13.383 60.281 35.09 34.348l4.234-1.782"/><path style="fill:none;stroke-width:7.28;stroke-linecap:round;stroke-linejoin:round;stroke:#000;stroke-opacity:1;stroke-miterlimit:10" d="m133.828 1397.188 217.07 259.335 42.344 17.813Zm0 0" transform="matrix(.1 0 0 -.1 0 200)"/><path style="stroke:none;fill-rule:nonzero;fill:#000;fill-opacity:1" d="m155.027 37.207 16.45 11.285-55.434-34.336"/><path style="fill:none;stroke-width:7.28;stroke-linecap:round;stroke-linejoin:round;stroke:#000;stroke-opacity:1;stroke-miterlimit:10" d="m1550.273 1627.93 164.493-112.852" transform="matrix(.1 0 0 -.1 0 200)"/><path style="fill-rule:nonzero;fill:#000;fill-opacity:1;stroke-width:7.28;stroke-linecap:round;stroke-linejoin:round;stroke:#000;stroke-opacity:1;stroke-miterlimit:10" d="m1160.43 1858.438 21.484-2.5 368.36-228.008" transform="matrix(.1 0 0 -.1 0 200)"/><path style="fill-rule:nonzero;fill:#0395b7;fill-opacity:1;stroke-width:7.28;stroke-linecap:round;stroke-linejoin:round;stroke:#000;stroke-opacity:1;stroke-miterlimit:10" d="m1181.914 1855.938-21.484 2.5-406.563-.313M753.867 1858.125l-12.46-2.54 440.507.352" transform="matrix(.1 0 0 -.1 0 200)"/><path style="fill-rule:nonzero;fill:#1ca9c0;fill-opacity:1;stroke-width:7.28;stroke-linecap:round;stroke-linejoin:round;stroke:#000;stroke-opacity:1;stroke-miterlimit:10" d="m1170.078 74.96-203.242 6.368-370.274 36.797" transform="matrix(.1 0 0 -.1 0 200)"/><path style="fill-rule:nonzero;fill:#a01200;fill-opacity:1;stroke-width:7.28;stroke-linecap:round;stroke-linejoin:round;stroke:#000;stroke-opacity:1;stroke-miterlimit:10" d="m966.836 81.328 203.242-6.367 373.75 179.57" transform="matrix(.1 0 0 -.1 0 200)"/><path style="stroke:none;fill-rule:nonzero;fill:#a01200;fill-opacity:1" d="m124.406 171.215-27.722 20.652 57.699-17.32"/><path style="fill:none;stroke-width:7.28;stroke-linecap:round;stroke-linejoin:round;stroke:#000;stroke-opacity:1;stroke-miterlimit:10" d="M1244.063 287.852 966.836 81.328" transform="matrix(.1 0 0 -.1 0 200)"/><path style="fill-rule:nonzero;fill:#a01200;fill-opacity:1;stroke-width:7.28;stroke-linecap:round;stroke-linejoin:round;stroke:#000;stroke-opacity:1;stroke-miterlimit:10" d="m1543.828 254.531 72.852 140-372.618-106.68" transform="matrix(.1 0 0 -.1 0 200)"/><path style="fill-rule:nonzero;fill:#e7b130;fill-opacity:1;stroke-width:7.28;stroke-linecap:round;stroke-linejoin:round;stroke:#000;stroke-opacity:1;stroke-miterlimit:10" d="m62.422 726.602 3.164 378.75 68.242 291.835" transform="matrix(.1 0 0 -.1 0 200)"/><path style="fill-rule:nonzero;fill:#0022ad;fill-opacity:1;stroke-width:7.28;stroke-linecap:round;stroke-linejoin:round;stroke:#000;stroke-opacity:1;stroke-miterlimit:10" d="m350.898 1656.523-217.07-259.335-68.242-291.836" transform="matrix(.1 0 0 -.1 0 200)"/><path style="fill-rule:nonzero;fill:#e6f8a9;fill-opacity:1;stroke-width:7.28;stroke-linecap:round;stroke-linejoin:round;stroke:#000;stroke-opacity:1;stroke-miterlimit:10" d="m1714.219 1240.234 157.617-88.71-157.07 363.554" transform="matrix(.1 0 0 -.1 0 200)"/><path style="fill-rule:nonzero;fill:#e6f8a9;fill-opacity:1;stroke-width:7.28;stroke-linecap:round;stroke-linejoin:round;stroke:#000;stroke-opacity:1;stroke-miterlimit:10" d="m1714.766 1515.078-164.493 112.852 163.946-387.696" transform="matrix(.1 0 0 -.1 0 200)"/><path style="stroke:none;fill-rule:nonzero;fill:#000;fill-opacity:1" d="m26.184 163.922-2.696-14.93L6.242 127.34"/><path style="fill:none;stroke-width:7.28;stroke-linecap:round;stroke-linejoin:round;stroke:#000;stroke-opacity:1;stroke-miterlimit:10" d="m261.836 360.781-26.953 149.297L62.422 726.602Zm0 0" transform="matrix(.1 0 0 -.1 0 200)"/><path style="fill-rule:nonzero;fill:#020000;fill-opacity:1;stroke-width:7.28;stroke-linecap:round;stroke-linejoin:round;stroke:#000;stroke-opacity:1;stroke-miterlimit:10" d="m234.883 510.078 26.953-149.297 334.726-242.656" transform="matrix(.1 0 0 -.1 0 200)"/><path style="fill-rule:nonzero;fill:#010065;fill-opacity:1;stroke-width:7.28;stroke-linecap:round;stroke-linejoin:round;stroke:#000;stroke-opacity:1;stroke-miterlimit:10" d="m65.586 1105.352-3.164-378.75 172.46-216.524" transform="matrix(.1 0 0 -.1 0 200)"/><path style="fill-rule:nonzero;fill:#020000;fill-opacity:1;stroke-width:7.28;stroke-linecap:round;stroke-linejoin:round;stroke:#000;stroke-opacity:1;stroke-miterlimit:10" d="m596.563 118.125-.782 132.695-360.898 259.258" transform="matrix(.1 0 0 -.1 0 200)"/><path style="stroke:none;fill-rule:nonzero;fill:#490000;fill-opacity:1" d="m96.684 191.867-37.106-16.949.078 13.27"/><path style="fill:none;stroke-width:7.28;stroke-linecap:round;stroke-linejoin:round;stroke:#000;stroke-opacity:1;stroke-miterlimit:10" d="M966.836 81.328 595.78 250.82l.782-132.695Zm0 0" transform="matrix(.1 0 0 -.1 0 200)"/><path style="fill-rule:nonzero;fill:#ffd081;fill-opacity:1;stroke-width:7.28;stroke-linecap:round;stroke-linejoin:round;stroke:#000;stroke-opacity:1;stroke-miterlimit:10" d="m1685.664 781.719 161.563-56.875 24.609 426.68" transform="matrix(.1 0 0 -.1 0 200)"/><path style="fill-rule:nonzero;fill:#ffd081;fill-opacity:1;stroke-width:7.28;stroke-linecap:round;stroke-linejoin:round;stroke:#000;stroke-opacity:1;stroke-miterlimit:10" d="m1871.836 1151.523-157.617 88.711-28.555-458.515" transform="matrix(.1 0 0 -.1 0 200)"/><path style="stroke:none;fill-rule:nonzero;fill:#f49e52;fill-opacity:1" d="m184.723 127.516-16.157-5.688-6.898 38.719"/><path style="fill:none;stroke-width:7.28;stroke-linecap:round;stroke-linejoin:round;stroke:#000;stroke-opacity:1;stroke-miterlimit:10" d="m1847.227 724.844-161.563 56.875-68.984-387.188Zm0 0" transform="matrix(.1 0 0 -.1 0 200)"/><path style="fill-rule:nonzero;fill:#709beb;fill-opacity:1;stroke-width:7.28;stroke-linecap:round;stroke-linejoin:round;stroke:#000;stroke-opacity:1;stroke-miterlimit:10" d="m966.133 1705.977-224.727 149.609-390.508-199.063" transform="matrix(.1 0 0 -.1 0 200)"/><path style="stroke:none;fill-rule:nonzero;fill:#709beb;fill-opacity:1" d="m68.39 61.672 28.223-32.27-61.523 4.946"/><path style="fill:none;stroke-width:7.28;stroke-linecap:round;stroke-linejoin:round;stroke:#000;stroke-opacity:1;stroke-miterlimit:10" d="m683.906 1383.281 282.227 322.696" transform="matrix(.1 0 0 -.1 0 200)"/><path style="fill-rule:nonzero;fill:#709beb;fill-opacity:1;stroke-width:7.28;stroke-linecap:round;stroke-linejoin:round;stroke:#000;stroke-opacity:1;stroke-miterlimit:10" d="m350.898 1656.523-58.359-291.289 391.367 18.047" transform="matrix(.1 0 0 -.1 0 200)"/><path style="fill-rule:nonzero;fill:#0022ad;fill-opacity:1;stroke-width:7.28;stroke-linecap:round;stroke-linejoin:round;stroke:#000;stroke-opacity:1;stroke-miterlimit:10" d="m65.586 1105.352 226.953 259.882 58.36 291.29" transform="matrix(.1 0 0 -.1 0 200)"/><path style="fill-rule:nonzero;fill:#c0e4f0;fill-opacity:1;stroke-width:7.28;stroke-linecap:round;stroke-linejoin:round;stroke:#000;stroke-opacity:1;stroke-miterlimit:10" d="m1355.781 1459.375 194.492 168.555-368.359 228.007" transform="matrix(.1 0 0 -.1 0 200)"/><path style="fill-rule:nonzero;fill:#c0e4f0;fill-opacity:1;stroke-width:7.28;stroke-linecap:round;stroke-linejoin:round;stroke:#000;stroke-opacity:1;stroke-miterlimit:10" d="m1181.914 1855.938-215.781-149.961 389.648-246.602" transform="matrix(.1 0 0 -.1 0 200)"/><path style="stroke:none;fill-rule:nonzero;fill:#84d0ff;fill-opacity:1" d="m74.14 14.441 22.473 14.961 21.578-14.996"/><path style="fill:none;stroke-width:7.28;stroke-linecap:round;stroke-linejoin:round;stroke:#000;stroke-opacity:1;stroke-miterlimit:10" d="m741.406 1855.586 224.727-149.61 215.781 149.961Zm0 0" transform="matrix(.1 0 0 -.1 0 200)"/><path style="stroke:none;fill-rule:nonzero;fill:#383dab;fill-opacity:1" d="m24.559 109.5 4.695-46.023L6.559 89.465"/><path style="fill:none;stroke-width:7.28;stroke-linecap:round;stroke-linejoin:round;stroke:#000;stroke-opacity:1;stroke-miterlimit:10" d="m245.586 905 46.953 460.234-226.953-259.882Zm0 0" transform="matrix(.1 0 0 -.1 0 200)"/><path style="fill-rule:nonzero;fill:#010065;fill-opacity:1;stroke-width:7.28;stroke-linecap:round;stroke-linejoin:round;stroke:#000;stroke-opacity:1;stroke-miterlimit:10" d="M234.883 510.078 245.586 905l-180 200.352" transform="matrix(.1 0 0 -.1 0 200)"/><path style="fill-rule:nonzero;fill:#9c3d50;fill-opacity:1;stroke-width:7.28;stroke-linecap:round;stroke-linejoin:round;stroke:#000;stroke-opacity:1;stroke-miterlimit:10" d="M595.781 250.82 966.836 81.328l277.226 206.524" transform="matrix(.1 0 0 -.1 0 200)"/><path style="stroke:none;fill-rule:nonzero;fill:#e2e6d5;fill-opacity:1" d="m155.027 37.207-19.449 16.855 35.844 21.915"/><path style="fill:none;stroke-width:7.28;stroke-linecap:round;stroke-linejoin:round;stroke:#000;stroke-opacity:1;stroke-miterlimit:10" d="m1550.273 1627.93-194.492-168.555 358.438-219.14Zm0 0" transform="matrix(.1 0 0 -.1 0 200)"/><path style="fill-rule:nonzero;fill:#dc8c76;fill-opacity:1;stroke-width:7.28;stroke-linecap:round;stroke-linejoin:round;stroke:#000;stroke-opacity:1;stroke-miterlimit:10" d="m1299.766 688.125-55.704-400.273 372.618 106.68" transform="matrix(.1 0 0 -.1 0 200)"/><path style="fill-rule:nonzero;fill:#dc8c76;fill-opacity:1;stroke-width:7.28;stroke-linecap:round;stroke-linejoin:round;stroke:#000;stroke-opacity:1;stroke-miterlimit:10" d="m1616.68 394.531 68.984 387.188-385.898-93.594" transform="matrix(.1 0 0 -.1 0 200)"/><path style="fill-rule:nonzero;fill:#7d4785;fill-opacity:1;stroke-width:7.28;stroke-linecap:round;stroke-linejoin:round;stroke:#000;stroke-opacity:1;stroke-miterlimit:10" d="M234.883 510.078 595.78 250.82l266.836 223.75" transform="matrix(.1 0 0 -.1 0 200)"/><path style="stroke:none;fill-rule:nonzero;fill:#7d4785;fill-opacity:1" d="m24.559 109.5-1.07 39.492 62.773 3.551"/><path style="fill:none;stroke-width:7.28;stroke-linecap:round;stroke-linejoin:round;stroke:#000;stroke-opacity:1;stroke-miterlimit:10" d="m245.586 905-10.703-394.922" transform="matrix(.1 0 0 -.1 0 200)"/><path style="fill-rule:nonzero;fill:#9c3d50;fill-opacity:1;stroke-width:7.28;stroke-linecap:round;stroke-linejoin:round;stroke:#000;stroke-opacity:1;stroke-miterlimit:10" d="M1244.063 287.852 862.616 474.57 595.781 250.82" transform="matrix(.1 0 0 -.1 0 200)"/><path style="fill-rule:nonzero;fill:#dbb9b7;fill-opacity:1;stroke-width:7.28;stroke-linecap:round;stroke-linejoin:round;stroke:#000;stroke-opacity:1;stroke-miterlimit:10" d="m1299.766 688.125 385.898 93.594 28.555 458.515" transform="matrix(.1 0 0 -.1 0 200)"/><path style="stroke:none;fill-rule:nonzero;fill:#dbb9b7;fill-opacity:1" d="m108.238 87.895 21.739 43.293 41.445-55.211"/><path style="fill:none;stroke-width:7.28;stroke-linecap:round;stroke-linejoin:round;stroke:#000;stroke-opacity:1;stroke-miterlimit:10" d="m1082.383 1121.055 217.383-432.93" transform="matrix(.1 0 0 -.1 0 200)"/><path style="fill-rule:nonzero;fill:#dbb9b7;fill-opacity:1;stroke-width:7.28;stroke-linecap:round;stroke-linejoin:round;stroke:#000;stroke-opacity:1;stroke-miterlimit:10" d="m1714.219 1240.234-358.438 219.141-273.398-338.32" transform="matrix(.1 0 0 -.1 0 200)"/><path style="fill-rule:nonzero;fill:#8075bd;fill-opacity:1;stroke-width:7.28;stroke-linecap:round;stroke-linejoin:round;stroke:#000;stroke-opacity:1;stroke-miterlimit:10" d="M292.54 1365.234 245.585 905l394.375-3.516" transform="matrix(.1 0 0 -.1 0 200)"/><path style="fill-rule:nonzero;fill:#8075bd;fill-opacity:1;stroke-width:7.28;stroke-linecap:round;stroke-linejoin:round;stroke:#000;stroke-opacity:1;stroke-miterlimit:10" d="m639.96 901.484 43.946 481.797-391.367-18.047" transform="matrix(.1 0 0 -.1 0 200)"/><path style="stroke:none;fill-rule:nonzero;fill:#be7782;fill-opacity:1" d="m124.406 171.215 5.57-40.028-43.714 21.356"/><path style="fill:none;stroke-width:7.28;stroke-linecap:round;stroke-linejoin:round;stroke:#000;stroke-opacity:1;stroke-miterlimit:10" d="m1244.063 287.852 55.703 400.273L862.617 474.57Zm0 0" transform="matrix(.1 0 0 -.1 0 200)"/><path style="fill-rule:nonzero;fill:#b5b4d7;fill-opacity:1;stroke-width:7.28;stroke-linecap:round;stroke-linejoin:round;stroke:#000;stroke-opacity:1;stroke-miterlimit:10" d="m1355.781 1459.375-389.648 246.602-282.227-322.696" transform="matrix(.1 0 0 -.1 0 200)"/><path style="fill-rule:nonzero;fill:#7d4785;fill-opacity:1;stroke-width:7.28;stroke-linecap:round;stroke-linejoin:round;stroke:#000;stroke-opacity:1;stroke-miterlimit:10" d="M862.617 474.57 639.961 901.484 245.586 905" transform="matrix(.1 0 0 -.1 0 200)"/><path style="fill-rule:nonzero;fill:#b5b4d7;fill-opacity:1;stroke-width:7.28;stroke-linecap:round;stroke-linejoin:round;stroke:#000;stroke-opacity:1;stroke-miterlimit:10" d="m683.906 1383.281 398.477-262.226 273.398 338.32" transform="matrix(.1 0 0 -.1 0 200)"/><path style="fill-rule:nonzero;fill:#b488a5;fill-opacity:1;stroke-width:7.28;stroke-linecap:round;stroke-linejoin:round;stroke:#000;stroke-opacity:1;stroke-miterlimit:10" d="M639.96 901.484 862.618 474.57l437.149 213.555" transform="matrix(.1 0 0 -.1 0 200)"/><path style="stroke:none;fill-rule:nonzero;fill:#a792c0;fill-opacity:1" d="M108.238 87.895 68.391 61.672l-4.395 48.18"/><path style="fill:none;stroke-width:7.28;stroke-linecap:round;stroke-linejoin:round;stroke:#000;stroke-opacity:1;stroke-miterlimit:10" d="M1082.383 1121.055 683.906 1383.28l-43.945-481.797Zm0 0" transform="matrix(.1 0 0 -.1 0 200)"/><path style="fill-rule:nonzero;fill:#b488a5;fill-opacity:1;stroke-width:7.28;stroke-linecap:round;stroke-linejoin:round;stroke:#000;stroke-opacity:1;stroke-miterlimit:10" d="m1299.766 688.125-217.383 432.93-442.422-219.57" transform="matrix(.1 0 0 -.1 0 200)"/></svg>