<svg xmlns="http://www.w3.org/2000/svg" width="244" height="200pt" viewBox="0 0 183 200" version="1.2"><path style="stroke:none;fill-rule:nonzero;fill:#c86f65;fill-opacity:1" d="M86.496 83.324 46.36 39.082l103.395-27.629"/><path style="fill:none;stroke-width:6.86;stroke-linecap:round;stroke-linejoin:round;stroke:#000;stroke-opacity:1;stroke-miterlimit:10" d="M864.96 1166.758 463.595 1609.18l1033.945 276.289Zm0 0" transform="matrix(.1 0 0 -.1 0 200)"/><path style="stroke:none;fill-rule:nonzero;fill:#9671a6;fill-opacity:1" d="m178.027 119.152-91.53-35.828 63.257-71.87"/><path style="fill:none;stroke-width:6.86;stroke-linecap:round;stroke-linejoin:round;stroke:#000;stroke-opacity:1;stroke-miterlimit:10" d="m1780.273 808.477-915.312 358.28 632.578 718.712Zm0 0" transform="matrix(.1 0 0 -.1 0 200)"/><path style="stroke:none;fill-rule:nonzero;fill:#df9279;fill-opacity:1" d="M86.496 83.324 5.895 136.93l40.464-97.848"/><path style="fill:none;stroke-width:6.86;stroke-linecap:round;stroke-linejoin:round;stroke:#000;stroke-opacity:1;stroke-miterlimit:10" d="M864.96 1166.758 58.946 630.703l404.649 978.477Zm0 0" transform="matrix(.1 0 0 -.1 0 200)"/><path style="stroke:none;fill-rule:nonzero;fill:#caaebd;fill-opacity:1" d="m86.496 83.324 11.098 103.754-91.7-50.148"/><path style="fill:none;stroke-width:6.86;stroke-linecap:round;stroke-linejoin:round;stroke:#000;stroke-opacity:1;stroke-miterlimit:10" d="m864.96 1166.758 110.977-1037.54L58.946 630.704Zm0 0" transform="matrix(.1 0 0 -.1 0 200)"/><path style="stroke:none;fill-rule:nonzero;fill:#9e86b9;fill-opacity:1" d="m178.027 119.152-80.433 67.926L86.496 83.324"/><path style="fill:none;stroke-width:6.86;stroke-linecap:round;stroke-linejoin:round;stroke:#000;stroke-opacity:1;stroke-miterlimit:10" d="M1780.273 808.477 975.938 129.219 864.96 1166.758Zm0 0" transform="matrix(.1 0 0 -.1 0 200)"/><path style="fill-rule:nonzero;fill:#000;fill-opacity:1;stroke-width:6.86;stroke-linecap:round;stroke-linejoin:round;stroke:#000;stroke-opacity:1;stroke-miterlimit:10" d="M376.992 588.086 58.945 630.703 975.937 129.22" transform="matrix(.1 0 0 -.1 0 200)"/><path style="stroke:none;fill-rule:nonzero;fill:#4677dd;fill-opacity:1" d="m178.027 119.152-36.066 79.75-44.367-11.824"/><path style="fill:none;stroke-width:6.86;stroke-linecap:round;stroke-linejoin:round;stroke:#000;stroke-opacity:1;stroke-miterlimit:10" d="m1780.273 808.477-360.664-797.5-443.671 118.242Zm0 0" transform="matrix(.1 0 0 -.1 0 200)"/><path style="fill-rule:nonzero;fill:#000;fill-opacity:1;stroke-width:6.86;stroke-linecap:round;stroke-linejoin:round;stroke:#000;stroke-opacity:1;stroke-miterlimit:10" d="m975.938 129.219 443.671-118.242L376.992 588.086" transform="matrix(.1 0 0 -.1 0 200)"/><path style="stroke:none;fill-rule:nonzero;fill:#f4e584;fill-opacity:1" d="m148.824 77.055 29.203 42.097-28.273-107.699"/><path style="fill:none;stroke-width:6.86;stroke-linecap:round;stroke-linejoin:round;stroke:#000;stroke-opacity:1;stroke-miterlimit:10" d="m1488.242 1229.453 292.031-420.976-282.734 1076.992Zm0 0" transform="matrix(.1 0 0 -.1 0 200)"/><path style="stroke:none;fill-rule:nonzero;fill:#fec37a;fill-opacity:1" d="m148.824 77.055-6.863 121.847 36.066-79.75"/><path style="fill:none;stroke-width:6.86;stroke-linecap:round;stroke-linejoin:round;stroke:#000;stroke-opacity:1;stroke-miterlimit:10" d="M1488.242 1229.453 1419.61 10.977l360.664 797.5Zm0 0" transform="matrix(.1 0 0 -.1 0 200)"/><path style="stroke:none;fill-rule:nonzero;fill:#0420a2;fill-opacity:1" d="M46.36 39.082 5.894 136.93l31.804 4.261"/><path style="fill:none;stroke-width:6.86;stroke-linecap:round;stroke-linejoin:round;stroke:#000;stroke-opacity:1;stroke-miterlimit:10" d="M463.594 1609.18 58.945 630.703l318.047-42.617Zm0 0" transform="matrix(.1 0 0 -.1 0 200)"/><path style="stroke:none;fill-rule:nonzero;fill:#a7c0eb;fill-opacity:1" d="m46.36 39.082 102.464 37.973.93-65.602"/><path style="fill:none;stroke-width:6.86;stroke-linecap:round;stroke-linejoin:round;stroke:#000;stroke-opacity:1;stroke-miterlimit:10" d="m463.594 1609.18 1024.648-379.727 9.297 656.016Zm0 0" transform="matrix(.1 0 0 -.1 0 200)"/><path style="stroke:none;fill-rule:nonzero;fill:#a3a3d4;fill-opacity:1" d="m46.36 39.082-8.66 102.11 111.124-64.137"/><path style="fill:none;stroke-width:6.86;stroke-linecap:round;stroke-linejoin:round;stroke:#000;stroke-opacity:1;stroke-miterlimit:10" d="M463.594 1609.18 376.992 588.086l1111.25 641.367Zm0 0" transform="matrix(.1 0 0 -.1 0 200)"/><path style="stroke:none;fill-rule:nonzero;fill:#c295a8;fill-opacity:1" d="M148.824 77.055 37.7 141.19l104.262 57.711"/><path style="fill:none;stroke-width:6.86;stroke-linecap:round;stroke-linejoin:round;stroke:#000;stroke-opacity:1;stroke-miterlimit:10" d="M1488.242 1229.453 376.992 588.086 1419.61 10.976Zm0 0" transform="matrix(.1 0 0 -.1 0 200)"/></svg>