<svg xmlns="http://www.w3.org/2000/svg" width="128pt" height="199pt" viewBox="0 0 128 199" version="1.2"><path style="stroke:none;fill-rule:nonzero;fill:#c5b2c7;fill-opacity:1" d="m93.445 131.266-74.535 1.453 35.043-63.446"/><path style="fill:none;stroke-width:3.72062;stroke-linecap:round;stroke-linejoin:round;stroke:#000;stroke-opacity:1;stroke-miterlimit:10" d="m934.453 677.344-745.351-14.532 350.43 634.454Zm0 0" transform="matrix(.1 0 0 -.1 0 199)"/><path style="stroke:none;fill-rule:nonzero;fill:#f7b277;fill-opacity:1" d="m53.953 69.273-48.64-6.046 13.597 69.492"/><path style="fill:none;stroke-width:3.72062;stroke-linecap:round;stroke-linejoin:round;stroke:#000;stroke-opacity:1;stroke-miterlimit:10" d="m539.531 1297.266-486.406 60.468 135.977-694.921Zm0 0" transform="matrix(.1 0 0 -.1 0 199)"/><path style="stroke:none;fill-rule:nonzero;fill:#7b5295;fill-opacity:1" d="m121.691 65.754-67.738 3.52 39.492 61.992"/><path style="fill:none;stroke-width:3.72062;stroke-linecap:round;stroke-linejoin:round;stroke:#000;stroke-opacity:1;stroke-miterlimit:10" d="m1216.914 1332.46-677.383-35.194 394.922-619.922Zm0 0" transform="matrix(.1 0 0 -.1 0 199)"/><path style="stroke:none;fill-rule:nonzero;fill:#e37d42;fill-opacity:1" d="m53.953 69.273-48.64-6.046L65.573 4.89"/><path style="fill:none;stroke-width:3.72062;stroke-linecap:round;stroke-linejoin:round;stroke:#000;stroke-opacity:1;stroke-miterlimit:10" d="m539.531 1297.266-486.406 60.468 602.617 583.36Zm0 0" transform="matrix(.1 0 0 -.1 0 199)"/><path style="stroke:none;fill-rule:nonzero;fill:#773068;fill-opacity:1" d="m121.691 65.754-67.738 3.52L65.574 4.89"/><path style="fill:none;stroke-width:3.72062;stroke-linecap:round;stroke-linejoin:round;stroke:#000;stroke-opacity:1;stroke-miterlimit:10" d="m1216.914 1332.46-677.383-35.194 116.211 643.828Zm0 0" transform="matrix(.1 0 0 -.1 0 199)"/><path style="stroke:none;fill-rule:nonzero;fill:#000089;fill-opacity:1" d="m120.781 138.71-27.336-7.444 28.246-65.512"/><path style="fill:none;stroke-width:3.72062;stroke-linecap:round;stroke-linejoin:round;stroke:#000;stroke-opacity:1;stroke-miterlimit:10" d="m1207.813 602.89-273.36 74.454 282.461 655.117Zm0 0" transform="matrix(.1 0 0 -.1 0 199)"/><path style="stroke:none;fill-rule:nonzero;fill:#bcc7e2;fill-opacity:1" d="m93.445 131.266-74.535 1.453 46.664 62.386"/><path style="fill:none;stroke-width:3.72062;stroke-linecap:round;stroke-linejoin:round;stroke:#000;stroke-opacity:1;stroke-miterlimit:10" d="m934.453 677.344-745.351-14.532 466.64-623.867Zm0 0" transform="matrix(.1 0 0 -.1 0 199)"/><path style="stroke:none;fill-rule:nonzero;fill:#0033ba;fill-opacity:1" d="m120.781 138.71-27.336-7.444-27.87 63.84"/><path style="fill:none;stroke-width:3.72062;stroke-linecap:round;stroke-linejoin:round;stroke:#000;stroke-opacity:1;stroke-miterlimit:10" d="m1207.813 602.89-273.36 74.454-278.71-638.399Zm0 0" transform="matrix(.1 0 0 -.1 0 199)"/><path style="stroke:none;fill-rule:nonzero;fill:#000;fill-opacity:1" d="m18.91 132.719 10.152 8.242-23.75-77.734"/><path style="fill:none;stroke-width:3.72062;stroke-linecap:round;stroke-linejoin:round;stroke:#000;stroke-opacity:1;stroke-miterlimit:10" d="m189.102 662.813 101.523-82.422-237.5 777.343Zm0 0" transform="matrix(.1 0 0 -.1 0 199)"/><path style="stroke:none;fill-rule:nonzero;fill:#000;fill-opacity:1" d="m18.91 132.719 10.152 8.242 36.512 54.144"/><path style="fill:none;stroke-width:3.72062;stroke-linecap:round;stroke-linejoin:round;stroke:#000;stroke-opacity:1;stroke-miterlimit:10" d="m189.102 662.813 101.523-82.422L655.742 38.945Zm0 0" transform="matrix(.1 0 0 -.1 0 199)"/><path style="stroke:none;fill-rule:nonzero;fill:#f9eb9b;fill-opacity:1" d="m81.43 58.07 40.261 7.684-.91 72.957"/><path style="fill:none;stroke-width:3.72062;stroke-linecap:round;stroke-linejoin:round;stroke:#000;stroke-opacity:1;stroke-miterlimit:10" d="m814.297 1409.297 402.617-76.836-9.101-729.57Zm0 0" transform="matrix(.1 0 0 -.1 0 199)"/><path style="stroke:none;fill-rule:nonzero;fill:#d4fec0;fill-opacity:1" d="m81.43 58.07 40.261 7.684L65.574 4.89"/><path style="fill:none;stroke-width:3.72062;stroke-linecap:round;stroke-linejoin:round;stroke:#000;stroke-opacity:1;stroke-miterlimit:10" d="m814.297 1409.297 402.617-76.836-561.172 608.633Zm0 0" transform="matrix(.1 0 0 -.1 0 199)"/><path style="stroke:none;fill-rule:nonzero;fill:#ba5a55;fill-opacity:1" d="m29.063 140.96 91.718-2.25-55.207 56.395"/><path style="fill:none;stroke-width:3.72062;stroke-linecap:round;stroke-linejoin:round;stroke:#000;stroke-opacity:1;stroke-miterlimit:10" d="m290.625 580.39 917.188 22.5-552.07-563.945Zm0 0" transform="matrix(.1 0 0 -.1 0 199)"/><path style="stroke:none;fill-rule:nonzero;fill:#5689e7;fill-opacity:1" d="M5.313 63.227 81.43 58.07 65.574 4.89"/><path style="fill:none;stroke-width:3.72062;stroke-linecap:round;stroke-linejoin:round;stroke:#000;stroke-opacity:1;stroke-miterlimit:10" d="m53.125 1357.734 761.172 51.563-158.555 531.797Zm0 0" transform="matrix(.1 0 0 -.1 0 199)"/><path style="stroke:none;fill-rule:nonzero;fill:#646bc4;fill-opacity:1" d="M5.313 63.227 81.43 58.07l-52.368 82.89"/><path style="fill:none;stroke-width:3.72062;stroke-linecap:round;stroke-linejoin:round;stroke:#000;stroke-opacity:1;stroke-miterlimit:10" d="m53.125 1357.734 761.172 51.563L290.625 580.39Zm0 0" transform="matrix(.1 0 0 -.1 0 199)"/><path style="stroke:none;fill-rule:nonzero;fill:#c98e95;fill-opacity:1" d="m29.063 140.96 91.718-2.25L81.43 58.07"/><path style="fill:none;stroke-width:3.72062;stroke-linecap:round;stroke-linejoin:round;stroke:#000;stroke-opacity:1;stroke-miterlimit:10" d="m290.625 580.39 917.188 22.5-393.516 806.407Zm0 0" transform="matrix(.1 0 0 -.1 0 199)"/></svg>