<svg xmlns="http://www.w3.org/2000/svg" width="232pt" height="232" viewBox="0 0 232 174" version="1.2"><path style="stroke:none;fill-rule:evenodd;fill:#c6aab1;fill-opacity:1" d="m125.121 118.895-32.039 52.937L64.059 117l61.062 1.895"/><path style="fill:none;stroke-width:7.656;stroke-linecap:butt;stroke-linejoin:miter;stroke:#231f20;stroke-opacity:1;stroke-miterlimit:4" d="M1251.21 551.055 930.82 21.68 640.586 570Zm0 0" transform="matrix(.1 0 0 -.1 0 174)"/><path style="stroke:none;fill-rule:evenodd;fill:#baa5b6;fill-opacity:1" d="m125.121 118.895 30.211 53.625-62.25-.688 32.04-52.937"/><path style="fill:none;stroke-width:7.656;stroke-linecap:butt;stroke-linejoin:miter;stroke:#231f20;stroke-opacity:1;stroke-miterlimit:4" d="m1251.21 551.055 302.11-536.25-622.5 6.875Zm0 0" transform="matrix(.1 0 0 -.1 0 174)"/><path style="stroke:none;fill-rule:evenodd;fill:#ad95aa;fill-opacity:1" d="m183.898 117.629-28.566 54.89-30.21-53.624 58.776-1.266"/><path style="fill:none;stroke-width:7.656;stroke-linecap:butt;stroke-linejoin:miter;stroke:#231f20;stroke-opacity:1;stroke-miterlimit:4" d="M1838.984 563.71 1553.32 14.806l-302.11 536.25Zm0 0" transform="matrix(.1 0 0 -.1 0 174)"/><path style="stroke:none;fill-rule:evenodd;fill:#c5a7ad;fill-opacity:1" d="m97.648 64.02 27.473 54.875L64.06 117l33.59-52.98"/><path style="fill:none;stroke-width:7.656;stroke-linecap:butt;stroke-linejoin:miter;stroke:#231f20;stroke-opacity:1;stroke-miterlimit:4" d="m976.484 1099.805 274.727-548.75L640.586 570Zm0 0" transform="matrix(.1 0 0 -.1 0 174)"/><path style="fill-rule:evenodd;fill:#aa8c9c;fill-opacity:1;stroke-width:7.656;stroke-linecap:butt;stroke-linejoin:miter;stroke:#231f20;stroke-opacity:1;stroke-miterlimit:4" d="m1251.21 551.055-274.726 548.75 415.118 388.007" transform="matrix(.1 0 0 -.1 0 174)"/><path style="stroke:none;fill-rule:evenodd;fill:#aa8c9c;fill-opacity:1" d="m183.898 117.629-58.777 1.266 14.04-93.676"/><path style="fill:none;stroke-width:7.656;stroke-linecap:butt;stroke-linejoin:miter;stroke:#231f20;stroke-opacity:1;stroke-miterlimit:4" d="m1838.984 563.71-587.773-12.655" transform="matrix(.1 0 0 -.1 0 174)"/><path style="stroke:none;fill-rule:evenodd;fill:#d2b9b9;fill-opacity:1" d="m64.059 117 29.023 54.832-56.45-1.254L64.06 117"/><path style="fill:none;stroke-width:7.656;stroke-linecap:butt;stroke-linejoin:miter;stroke:#231f20;stroke-opacity:1;stroke-miterlimit:4" d="M640.586 570 930.82 21.68 366.328 34.219Zm0 0" transform="matrix(.1 0 0 -.1 0 174)"/><path style="stroke:none;fill-rule:evenodd;fill:#9d89a9;fill-opacity:1" d="m183.898 117.629 23.141 54.812-51.707.079 28.566-54.891"/><path style="fill:none;stroke-width:7.656;stroke-linecap:butt;stroke-linejoin:miter;stroke:#231f20;stroke-opacity:1;stroke-miterlimit:4" d="m1838.984 563.71 231.407-548.124-517.07-.781Zm0 0" transform="matrix(.1 0 0 -.1 0 174)"/><path style="stroke:none;fill-rule:evenodd;fill:#866f93;fill-opacity:1" d="m223.61 113.29-16.57 59.151-23.142-54.812 39.711-4.34"/><path style="fill:none;stroke-width:7.656;stroke-linecap:butt;stroke-linejoin:miter;stroke:#231f20;stroke-opacity:1;stroke-miterlimit:4" d="M2236.094 607.11 2070.39 15.585 1838.984 563.71Zm0 0" transform="matrix(.1 0 0 -.1 0 174)"/><path style="stroke:none;fill-rule:evenodd;fill:#57507e;fill-opacity:1" d="m223.61 113.29 6.976 58.23-23.547.921 16.57-59.152"/><path style="fill:none;stroke-width:7.656;stroke-linecap:butt;stroke-linejoin:miter;stroke:#231f20;stroke-opacity:1;stroke-miterlimit:4" d="m2236.094 607.11 69.765-582.305-235.468-9.22Zm0 0" transform="matrix(.1 0 0 -.1 0 174)"/><path style="stroke:none;fill-rule:evenodd;fill:#2b2525;fill-opacity:1" d="m93.082 171.832 62.25.688 54.66-2.606"/><path style="fill:none;stroke-width:7.656;stroke-linecap:butt;stroke-linejoin:miter;stroke:#231f20;stroke-opacity:1;stroke-miterlimit:4" d="m930.82 21.68 622.5-6.875" transform="matrix(.1 0 0 -.1 0 174)"/><path style="stroke:none;fill-rule:evenodd;fill:#2b2525;fill-opacity:1" d="m36.633 170.578 56.449 1.254 116.91-1.918"/><path style="fill:none;stroke-width:7.656;stroke-linecap:butt;stroke-linejoin:miter;stroke:#231f20;stroke-opacity:1;stroke-miterlimit:4" d="m366.328 34.219 564.492-12.54" transform="matrix(.1 0 0 -.1 0 174)"/><path style="stroke:none;fill-rule:evenodd;fill:#2b2525;fill-opacity:1" d="m155.332 172.52 51.707-.079 2.953-2.527"/><path style="fill:none;stroke-width:7.656;stroke-linecap:butt;stroke-linejoin:miter;stroke:#231f20;stroke-opacity:1;stroke-miterlimit:4" d="m1553.32 14.805 517.07.78" transform="matrix(.1 0 0 -.1 0 174)"/><path style="fill-rule:evenodd;fill:#dba78f;fill-opacity:1;stroke-width:7.656;stroke-linecap:butt;stroke-linejoin:miter;stroke:#231f20;stroke-opacity:1;stroke-miterlimit:4" d="m748.555 1524.61 227.93-424.805L640.584 570" transform="matrix(.1 0 0 -.1 0 174)"/><path style="stroke:none;fill-rule:evenodd;fill:#bc8882;fill-opacity:1" d="m139.16 25.219-41.512 38.8-22.793-42.48 64.305 3.68"/><path style="fill:none;stroke-width:7.656;stroke-linecap:butt;stroke-linejoin:miter;stroke:#231f20;stroke-opacity:1;stroke-miterlimit:4" d="m1391.602 1487.813-415.118-388.008-227.93 424.804Zm0 0" transform="matrix(.1 0 0 -.1 0 174)"/><path style="stroke:none;fill-rule:evenodd;fill:#e0bba8;fill-opacity:1" d="m64.059 117-27.426 53.578-19.465-58.27L64.058 117"/><path style="fill:none;stroke-width:7.656;stroke-linecap:butt;stroke-linejoin:miter;stroke:#231f20;stroke-opacity:1;stroke-miterlimit:4" d="M640.586 570 366.328 34.219 171.68 616.914Zm0 0" transform="matrix(.1 0 0 -.1 0 174)"/><path style="stroke:none;fill-rule:evenodd;fill:#dba78f;fill-opacity:1" d="m64.059 117-46.891-4.691 57.687-90.77"/><path style="fill:none;stroke-width:7.656;stroke-linecap:butt;stroke-linejoin:miter;stroke:#231f20;stroke-opacity:1;stroke-miterlimit:4" d="M640.586 570 171.68 616.914" transform="matrix(.1 0 0 -.1 0 174)"/><path style="fill-rule:evenodd;fill:#aa8c9c;fill-opacity:1;stroke-width:7.656;stroke-linecap:butt;stroke-linejoin:miter;stroke:#231f20;stroke-opacity:1;stroke-miterlimit:4" d="m1391.602 1487.813 555.546-339.297-108.164-584.805" transform="matrix(.1 0 0 -.1 0 174)"/><path style="stroke:none;fill-rule:evenodd;fill:#866d8e;fill-opacity:1" d="m194.715 59.148 28.894 54.141-39.71 4.34 10.816-58.48"/><path style="fill:none;stroke-width:7.656;stroke-linecap:butt;stroke-linejoin:miter;stroke:#231f20;stroke-opacity:1;stroke-miterlimit:4" d="m1947.148 1148.516 288.946-541.407-397.11-43.398Zm0 0" transform="matrix(.1 0 0 -.1 0 174)"/><path style="stroke:none;fill-rule:evenodd;fill:#f2cfa5;fill-opacity:1" d="m17.168 112.309 19.465 58.27-33.438-1.517 13.973-56.753"/><path style="fill:none;stroke-width:7.656;stroke-linecap:butt;stroke-linejoin:miter;stroke:#231f20;stroke-opacity:1;stroke-miterlimit:4" d="M171.68 616.914 366.328 34.22 31.953 49.375Zm0 0" transform="matrix(.1 0 0 -.1 0 174)"/><path style="stroke:none;fill-rule:evenodd;fill:#2b2525;fill-opacity:1" d="m3.195 169.063 33.438 1.515 173.36-.664"/><path style="fill:none;stroke-width:7.656;stroke-linecap:butt;stroke-linejoin:miter;stroke:#231f20;stroke-opacity:1;stroke-miterlimit:4" d="m31.953 49.375 334.375-15.156" transform="matrix(.1 0 0 -.1 0 174)"/><path style="stroke:none;fill-rule:evenodd;fill:#805964;fill-opacity:1" d="m176.742 14.117 17.973 45.031-55.555-33.93 37.582-11.1"/><path style="fill:none;stroke-width:7.656;stroke-linecap:butt;stroke-linejoin:miter;stroke:#231f20;stroke-opacity:1;stroke-miterlimit:4" d="m1767.422 1598.828 179.726-450.312-555.546 339.296Zm0 0" transform="matrix(.1 0 0 -.1 0 174)"/><path style="stroke:none;fill-rule:evenodd;fill:#78483b;fill-opacity:1" d="m139.16 25.219-64.305-3.68L131.79 1.906"/><path style="fill:none;stroke-width:7.656;stroke-linecap:butt;stroke-linejoin:miter;stroke:#231f20;stroke-opacity:1;stroke-miterlimit:4" d="m1391.602 1487.813-643.047 36.796" transform="matrix(.1 0 0 -.1 0 174)"/><path style="fill-rule:evenodd;fill:#78483b;fill-opacity:1;stroke-width:7.656;stroke-linecap:butt;stroke-linejoin:miter;stroke:#231f20;stroke-opacity:1;stroke-miterlimit:4" d="m1317.89 1720.938 449.532-122.11-375.82-111.015" transform="matrix(.1 0 0 -.1 0 174)"/><path style="fill-rule:evenodd;fill:#231f20;fill-opacity:1;stroke-width:7.656;stroke-linecap:butt;stroke-linejoin:miter;stroke:#231f20;stroke-opacity:1;stroke-miterlimit:4" d="m2236.094 607.11-288.946 541.406-179.726 450.312" transform="matrix(.1 0 0 -.1 0 174)"/><path style="fill-rule:evenodd;fill:#2b2525;fill-opacity:1;stroke-width:7.656;stroke-linecap:butt;stroke-linejoin:miter;stroke:#231f20;stroke-opacity:1;stroke-miterlimit:4" d="m2070.39 15.586 235.47 9.219-205.938 16.054" transform="matrix(.1 0 0 -.1 0 174)"/><path style="stroke:none;fill-rule:evenodd;fill:#c86d33;fill-opacity:1" d="M74.855 21.54 22.383 50.792 64.914 7.305l9.941 14.234"/><path style="fill:none;stroke-width:7.656;stroke-linecap:butt;stroke-linejoin:miter;stroke:#231f20;stroke-opacity:1;stroke-miterlimit:4" d="m748.555 1524.61-524.727-292.54 425.313 434.883Zm0 0" transform="matrix(.1 0 0 -.1 0 174)"/><path style="fill-rule:evenodd;fill:#dba78f;fill-opacity:1;stroke-width:7.656;stroke-linecap:butt;stroke-linejoin:miter;stroke:#231f20;stroke-opacity:1;stroke-miterlimit:4" d="m171.68 616.914 52.148 615.156 524.727 292.54" transform="matrix(.1 0 0 -.1 0 174)"/><path style="fill-rule:evenodd;fill:#78483b;fill-opacity:1;stroke-width:7.656;stroke-linecap:butt;stroke-linejoin:miter;stroke:#231f20;stroke-opacity:1;stroke-miterlimit:4" d="m748.555 1524.61-99.414 142.343 668.75 53.985" transform="matrix(.1 0 0 -.1 0 174)"/><path style="stroke:none;fill-rule:evenodd;fill:#f9c15d;fill-opacity:1" d="M17.168 112.309 3.195 169.063l-.984-63.192 14.957 6.438"/><path style="fill:none;stroke-width:7.656;stroke-linecap:butt;stroke-linejoin:miter;stroke:#231f20;stroke-opacity:1;stroke-miterlimit:4" d="M171.68 616.914 31.953 49.375 22.11 681.289Zm0 0" transform="matrix(.1 0 0 -.1 0 174)"/><path style="stroke:none;fill-rule:evenodd;fill:#f6b754;fill-opacity:1" d="m22.383 50.793-5.215 61.516-14.957-6.438 20.172-55.078"/><path style="fill:none;stroke-width:7.656;stroke-linecap:butt;stroke-linejoin:miter;stroke:#231f20;stroke-opacity:1;stroke-miterlimit:4" d="M223.828 1232.07 171.68 616.914 22.11 681.29Zm0 0" transform="matrix(.1 0 0 -.1 0 174)"/><path style="stroke:none;fill-rule:evenodd;fill:#231f20;fill-opacity:1" d="m226.559 106.781-2.95 6.508-46.867-99.172"/><path style="fill:none;stroke-width:7.656;stroke-linecap:butt;stroke-linejoin:miter;stroke:#231f20;stroke-opacity:1;stroke-miterlimit:4" d="m2265.586 672.188-29.492-65.079" transform="matrix(.1 0 0 -.1 0 174)"/><path style="stroke:none;fill-rule:evenodd;fill:#2d282b;fill-opacity:1" d="m226.559 106.781 4.027 64.739-6.977-58.23 2.95-6.509"/><path style="fill:none;stroke-width:7.656;stroke-linecap:butt;stroke-linejoin:miter;stroke:#231f20;stroke-opacity:1;stroke-miterlimit:4" d="m2265.586 672.188 40.273-647.383-69.765 582.304Zm0 0" transform="matrix(.1 0 0 -.1 0 174)"/><path style="fill-rule:evenodd;fill:#51639f;fill-opacity:1;stroke-width:7.656;stroke-linecap:butt;stroke-linejoin:miter;stroke:#231f20;stroke-opacity:1;stroke-miterlimit:4" d="M649.14 1666.953 223.829 1232.07 22.11 681.29" transform="matrix(.1 0 0 -.1 0 174)"/><path style="stroke:none;fill-rule:evenodd;fill:#3d363f;fill-opacity:1" d="m2.21 105.871.985 63.192 6.953-1.282-7.937-61.91"/><path style="fill:none;stroke-width:7.656;stroke-linecap:butt;stroke-linejoin:miter;stroke:#231f20;stroke-opacity:1;stroke-miterlimit:4" d="m22.11 681.29 9.843-631.915 69.531 12.813Zm0 0" transform="matrix(.1 0 0 -.1 0 174)"/><path style="stroke:none;fill-rule:evenodd;fill:#2b2525;fill-opacity:1" d="m10.148 167.781-6.953 1.281 206.797.852"/><path style="fill:none;stroke-width:7.656;stroke-linecap:butt;stroke-linejoin:miter;stroke:#231f20;stroke-opacity:1;stroke-miterlimit:4" d="m101.484 62.188-69.53-12.813" transform="matrix(.1 0 0 -.1 0 174)"/><path style="fill-rule:evenodd;fill:#231f20;fill-opacity:1;stroke-width:7.656;stroke-linecap:butt;stroke-linejoin:miter;stroke:#231f20;stroke-opacity:1;stroke-miterlimit:4" d="m1767.422 1598.828 186.25-264.297 311.914-662.343" transform="matrix(.1 0 0 -.1 0 174)"/><path style="stroke:none;fill-rule:evenodd;fill:#b4e3e7;fill-opacity:1" d="m131.79 1.906 63.577 38.64-18.625-26.429-44.953-12.21"/><path style="fill:none;stroke-width:7.656;stroke-linecap:butt;stroke-linejoin:miter;stroke:#231f20;stroke-opacity:1;stroke-miterlimit:4" d="m1317.89 1720.938 635.782-386.407-186.25 264.297Zm0 0" transform="matrix(.1 0 0 -.1 0 174)"/><path style="stroke:none;fill-rule:evenodd;fill:#fbc66d;fill-opacity:1" d="m226.559 106.781-16.567 63.133 20.594 1.606-4.027-64.739"/><path style="fill:none;stroke-width:7.656;stroke-linecap:butt;stroke-linejoin:miter;stroke:#231f20;stroke-opacity:1;stroke-miterlimit:4" d="M2265.586 672.188 2099.922 40.859l205.937-16.054Zm0 0" transform="matrix(.1 0 0 -.1 0 174)"/><path style="stroke:none;fill-rule:evenodd;fill:#7f9fd6;fill-opacity:1" d="m64.914 7.305 10.148 26.77L131.79 1.905 64.914 7.305"/><path style="fill:none;stroke-width:7.656;stroke-linecap:butt;stroke-linejoin:miter;stroke:#231f20;stroke-opacity:1;stroke-miterlimit:4" d="m649.14 1666.953 101.485-267.695 567.266 321.68Zm0 0" transform="matrix(.1 0 0 -.1 0 174)"/><path style="fill-rule:evenodd;fill:#51639f;fill-opacity:1;stroke-width:7.656;stroke-linecap:butt;stroke-linejoin:miter;stroke:#231f20;stroke-opacity:1;stroke-miterlimit:4" d="m332.148 740.547 418.477 658.71-101.484 267.696" transform="matrix(.1 0 0 -.1 0 174)"/><path style="stroke:none;fill-rule:evenodd;fill:#51639f;fill-opacity:1" d="m2.21 105.871 31.005-5.926 31.7-92.64"/><path style="fill:none;stroke-width:7.656;stroke-linecap:butt;stroke-linejoin:miter;stroke:#231f20;stroke-opacity:1;stroke-miterlimit:4" d="m22.11 681.29 310.038 59.257" transform="matrix(.1 0 0 -.1 0 174)"/><path style="stroke:none;fill-rule:evenodd;fill:#635a8a;fill-opacity:1" d="m2.21 105.871 7.938 61.91 23.067-67.836-31.004 5.926"/><path style="fill:none;stroke-width:7.656;stroke-linecap:butt;stroke-linejoin:miter;stroke:#231f20;stroke-opacity:1;stroke-miterlimit:4" d="m22.11 681.29 79.374-619.102 230.664 678.359Zm0 0" transform="matrix(.1 0 0 -.1 0 174)"/><path style="stroke:none;fill-rule:evenodd;fill:#ecd5b8;fill-opacity:1" d="m195.367 40.547-13.047 59.906 44.239 6.328-31.192-66.234"/><path style="fill:none;stroke-width:7.656;stroke-linecap:butt;stroke-linejoin:miter;stroke:#231f20;stroke-opacity:1;stroke-miterlimit:4" d="M1953.672 1334.531 1823.203 735.47l442.383-63.282Zm0 0" transform="matrix(.1 0 0 -.1 0 174)"/><path style="stroke:none;fill-rule:evenodd;fill:#ecceae;fill-opacity:1" d="m182.32 100.453 27.672 69.461 16.567-63.133-44.239-6.328"/><path style="fill:none;stroke-width:7.656;stroke-linecap:butt;stroke-linejoin:miter;stroke:#231f20;stroke-opacity:1;stroke-miterlimit:4" d="m1823.203 735.469 276.719-694.61 165.664 631.328Zm0 0" transform="matrix(.1 0 0 -.1 0 174)"/><path style="fill-rule:evenodd;fill:#c7becf;fill-opacity:1;stroke-width:7.656;stroke-linecap:butt;stroke-linejoin:miter;stroke:#231f20;stroke-opacity:1;stroke-miterlimit:4" d="m1823.203 735.469 130.469 599.062-635.781 386.407" transform="matrix(.1 0 0 -.1 0 174)"/><path style="stroke:none;fill-rule:evenodd;fill:#c7becf;fill-opacity:1" d="m104.695 97.605 77.625 2.848-50.53-98.547"/><path style="fill:none;stroke-width:7.656;stroke-linecap:butt;stroke-linejoin:miter;stroke:#231f20;stroke-opacity:1;stroke-miterlimit:4" d="m1046.953 763.945 776.25-28.476" transform="matrix(.1 0 0 -.1 0 174)"/><path style="fill-rule:evenodd;fill:#c7becf;fill-opacity:1;stroke-width:7.656;stroke-linecap:butt;stroke-linejoin:miter;stroke:#231f20;stroke-opacity:1;stroke-miterlimit:4" d="m1317.89 1720.938-567.265-321.68 296.328-635.313" transform="matrix(.1 0 0 -.1 0 174)"/><path style="stroke:none;fill-rule:evenodd;fill:#90799a;fill-opacity:1" d="m33.215 99.945-23.067 67.836 54.102-.39-31.035-67.446"/><path style="fill:none;stroke-width:7.656;stroke-linecap:butt;stroke-linejoin:miter;stroke:#231f20;stroke-opacity:1;stroke-miterlimit:4" d="M332.148 740.547 101.484 62.187 642.5 66.094Zm0 0" transform="matrix(.1 0 0 -.1 0 174)"/><path style="stroke:none;fill-rule:evenodd;fill:#2b2525;fill-opacity:1" d="m64.25 167.39-54.102.391 199.844 2.133"/><path style="fill:none;stroke-width:7.656;stroke-linecap:butt;stroke-linejoin:miter;stroke:#231f20;stroke-opacity:1;stroke-miterlimit:4" d="m642.5 66.094-541.016-3.906" transform="matrix(.1 0 0 -.1 0 174)"/><path style="stroke:none;fill-rule:evenodd;fill:#d8b6ac;fill-opacity:1" d="m182.32 100.453-37.437 67.785 65.11 1.676-27.673-69.46"/><path style="fill:none;stroke-width:7.656;stroke-linecap:butt;stroke-linejoin:miter;stroke:#231f20;stroke-opacity:1;stroke-miterlimit:4" d="M1823.203 735.469 1448.828 57.617l651.094-16.758Zm0 0" transform="matrix(.1 0 0 -.1 0 174)"/><path style="fill-rule:evenodd;fill:#2b2525;fill-opacity:1;stroke-width:7.656;stroke-linecap:butt;stroke-linejoin:miter;stroke:#231f20;stroke-opacity:1;stroke-miterlimit:4" d="m2099.922 40.86-651.094 16.757L642.5 66.094" transform="matrix(.1 0 0 -.1 0 174)"/><path style="stroke:none;fill-rule:evenodd;fill:#a796b4;fill-opacity:1" d="M75.063 34.074 33.215 99.945l71.48-2.34-29.632-63.53"/><path style="fill:none;stroke-width:7.656;stroke-linecap:butt;stroke-linejoin:miter;stroke:#231f20;stroke-opacity:1;stroke-miterlimit:4" d="M750.625 1399.258 332.148 740.547l714.805 23.398Zm0 0" transform="matrix(.1 0 0 -.1 0 174)"/><path style="stroke:none;fill-rule:evenodd;fill:#a894b0;fill-opacity:1" d="m33.215 99.945 31.035 67.446 40.445-69.786-71.48 2.34"/><path style="fill:none;stroke-width:7.656;stroke-linecap:butt;stroke-linejoin:miter;stroke:#231f20;stroke-opacity:1;stroke-miterlimit:4" d="M332.148 740.547 642.5 66.094l404.453 697.851Zm0 0" transform="matrix(.1 0 0 -.1 0 174)"/><path style="stroke:none;fill-rule:evenodd;fill:#c9b4bd;fill-opacity:1" d="m104.695 97.605 40.188 70.633 37.437-67.785-77.625-2.848"/><path style="fill:none;stroke-width:7.656;stroke-linecap:butt;stroke-linejoin:miter;stroke:#231f20;stroke-opacity:1;stroke-miterlimit:4" d="m1046.953 763.945 401.875-706.328 374.375 677.852Zm0 0" transform="matrix(.1 0 0 -.1 0 174)"/><path style="stroke:none;fill-rule:evenodd;fill:#b9a0b0;fill-opacity:1" d="M104.695 97.605 64.25 167.391l80.633.847-40.188-70.633"/><path style="fill:none;stroke-width:7.656;stroke-linecap:butt;stroke-linejoin:miter;stroke:#231f20;stroke-opacity:1;stroke-miterlimit:4" d="M1046.953 763.945 642.5 66.094l806.328-8.477Zm0 0" transform="matrix(.1 0 0 -.1 0 174)"/></svg>