<svg xmlns="http://www.w3.org/2000/svg" width="235pt" height="200pt" viewBox="0 0 235 200" version="1.2"><path style="fill-rule:nonzero;fill:#b7bee0;fill-opacity:1;stroke-width:7.48;stroke-linecap:round;stroke-linejoin:round;stroke:#000;stroke-opacity:1;stroke-miterlimit:10" d="m448.438 594.14 410.351 172.774L1272.891 532.5" transform="matrix(.1 0 0 -.1 0 200)"/><path style="stroke:none;fill-rule:nonzero;fill:#a997c3;fill-opacity:1" d="m85.879 123.309 43.074-24.957-1.664 48.398"/><path style="fill:none;stroke-width:7.48;stroke-linecap:round;stroke-linejoin:round;stroke:#000;stroke-opacity:1;stroke-miterlimit:10" d="m858.79 766.914 430.741 249.57-16.64-483.984Zm0 0" transform="matrix(.1 0 0 -.1 0 200)"/><path style="stroke:none;fill-rule:nonzero;fill:#ccb2bf;fill-opacity:1" d="m48.258 91.61 37.62 31.699-41.034 17.277"/><path style="fill:none;stroke-width:7.48;stroke-linecap:round;stroke-linejoin:round;stroke:#000;stroke-opacity:1;stroke-miterlimit:10" d="M482.578 1083.906 858.79 766.914 448.438 594.141Zm0 0" transform="matrix(.1 0 0 -.1 0 200)"/><path style="fill-rule:nonzero;fill:#b98da8;fill-opacity:1;stroke-width:7.48;stroke-linecap:round;stroke-linejoin:round;stroke:#000;stroke-opacity:1;stroke-miterlimit:10" d="M1289.531 1016.484 858.79 766.914l-376.21 316.992" transform="matrix(.1 0 0 -.1 0 200)"/><path style="stroke:none;fill-rule:nonzero;fill:#a67ba4;fill-opacity:1" d="m166.172 69.02-37.219 29.332-9.879-47.93"/><path style="fill:none;stroke-width:7.48;stroke-linecap:round;stroke-linejoin:round;stroke:#000;stroke-opacity:1;stroke-miterlimit:10" d="m1661.719 1309.805-372.188-293.32-98.789 479.296Zm0 0" transform="matrix(.1 0 0 -.1 0 200)"/><path style="stroke:none;fill-rule:nonzero;fill:#9a7db2;fill-opacity:1" d="m170.605 120.055-41.652-21.703 37.219-29.332"/><path style="fill:none;stroke-width:7.48;stroke-linecap:round;stroke-linejoin:round;stroke:#000;stroke-opacity:1;stroke-miterlimit:10" d="m1706.055 799.453-416.524 217.031 372.188 293.32Zm0 0" transform="matrix(.1 0 0 -.1 0 200)"/><path style="stroke:none;fill-rule:nonzero;fill:#a392c3;fill-opacity:1" d="M170.605 120.055 127.29 146.75l1.664-48.398"/><path style="fill:none;stroke-width:7.48;stroke-linecap:round;stroke-linejoin:round;stroke:#000;stroke-opacity:1;stroke-miterlimit:10" d="M1706.055 799.453 1272.89 532.5l16.64 483.984Zm0 0" transform="matrix(.1 0 0 -.1 0 200)"/><path style="stroke:none;fill-rule:nonzero;fill:#b98da8;fill-opacity:1" d="m119.074 50.422 9.88 47.93-80.696-6.743"/><path style="fill:none;stroke-width:7.48;stroke-linecap:round;stroke-linejoin:round;stroke:#000;stroke-opacity:1;stroke-miterlimit:10" d="m1190.742 1495.781 98.79-479.297" transform="matrix(.1 0 0 -.1 0 200)"/><path style="fill-rule:nonzero;fill:#b98da8;fill-opacity:1;stroke-width:7.48;stroke-linecap:round;stroke-linejoin:round;stroke:#000;stroke-opacity:1;stroke-miterlimit:10" d="M482.578 1083.906 685 1542.383l505.742-46.602" transform="matrix(.1 0 0 -.1 0 200)"/><path style="stroke:none;fill-rule:nonzero;fill:#d79992;fill-opacity:1" d="M25.55 60.5 68.5 45.762 48.258 91.609"/><path style="fill:none;stroke-width:7.48;stroke-linecap:round;stroke-linejoin:round;stroke:#000;stroke-opacity:1;stroke-miterlimit:10" d="M255.508 1395 685 1542.383l-202.422-458.477Zm0 0" transform="matrix(.1 0 0 -.1 0 200)"/><path style="stroke:none;fill-rule:nonzero;fill:#f3cda8;fill-opacity:1" d="m48.258 91.61-3.414 48.976-39.145-48.86"/><path style="fill:none;stroke-width:7.48;stroke-linecap:round;stroke-linejoin:round;stroke:#000;stroke-opacity:1;stroke-miterlimit:10" d="m482.578 1083.906-34.14-489.765" transform="matrix(.1 0 0 -.1 0 200)"/><path style="fill-rule:nonzero;fill:#f3cda8;fill-opacity:1;stroke-width:7.48;stroke-linecap:round;stroke-linejoin:round;stroke:#000;stroke-opacity:1;stroke-miterlimit:10" d="M56.992 1082.734 255.508 1395l227.07-311.094" transform="matrix(.1 0 0 -.1 0 200)"/><path style="stroke:none;fill-rule:nonzero;fill:#a65a73;fill-opacity:1" d="m152.414 25.45-33.34 24.972-19.078-33.356"/><path style="fill:none;stroke-width:7.48;stroke-linecap:round;stroke-linejoin:round;stroke:#000;stroke-opacity:1;stroke-miterlimit:10" d="m1524.14 1745.508-333.398-249.727-190.781 333.555Zm0 0" transform="matrix(.1 0 0 -.1 0 200)"/><path style="stroke:none;fill-rule:nonzero;fill:#9a618b;fill-opacity:1" d="m166.172 69.02-47.098-18.598 33.34-24.973"/><path style="fill:none;stroke-width:7.48;stroke-linecap:round;stroke-linejoin:round;stroke:#000;stroke-opacity:1;stroke-miterlimit:10" d="m1661.719 1309.805-470.977 185.976 333.399 249.727Zm0 0" transform="matrix(.1 0 0 -.1 0 200)"/><path style="stroke:none;fill-rule:nonzero;fill:#ae6378;fill-opacity:1" d="m68.5 45.762 31.496-28.696 19.078 33.356"/><path style="fill:none;stroke-width:7.48;stroke-linecap:round;stroke-linejoin:round;stroke:#000;stroke-opacity:1;stroke-miterlimit:10" d="m685 1542.383 314.96 286.953 190.782-333.555Zm0 0" transform="matrix(.1 0 0 -.1 0 200)"/><path style="stroke:none;fill-rule:nonzero;fill:#9aaee5;fill-opacity:1" d="m164.422 164.219-50.512 17.039 13.38-34.508"/><path style="fill:none;stroke-width:7.48;stroke-linecap:round;stroke-linejoin:round;stroke:#000;stroke-opacity:1;stroke-miterlimit:10" d="m1644.219 357.813-505.117-170.391L1272.89 532.5Zm0 0" transform="matrix(.1 0 0 -.1 0 200)"/><path style="stroke:none;fill-rule:nonzero;fill:#9395d2;fill-opacity:1" d="m164.422 164.219-37.133-17.469 43.316-26.695"/><path style="fill:none;stroke-width:7.48;stroke-linecap:round;stroke-linejoin:round;stroke:#000;stroke-opacity:1;stroke-miterlimit:10" d="M1644.219 357.813 1272.89 532.5l433.164 266.953Zm0 0" transform="matrix(.1 0 0 -.1 0 200)"/><path style="stroke:none;fill-rule:nonzero;fill:#b7bee0;fill-opacity:1" d="m127.29 146.75-13.38 34.508-69.066-40.672"/><path style="fill:none;stroke-width:7.48;stroke-linecap:round;stroke-linejoin:round;stroke:#000;stroke-opacity:1;stroke-miterlimit:10" d="m1272.89 532.5-133.788-345.078" transform="matrix(.1 0 0 -.1 0 200)"/><path style="stroke:none;fill-rule:nonzero;fill:#935988;fill-opacity:1" d="m200.621 47.172-34.45 21.848-13.757-43.57"/><path style="fill:none;stroke-width:7.48;stroke-linecap:round;stroke-linejoin:round;stroke:#000;stroke-opacity:1;stroke-miterlimit:10" d="m2006.21 1528.281-344.491-218.476-137.578 435.703Zm0 0" transform="matrix(.1 0 0 -.1 0 200)"/><path style="fill-rule:nonzero;fill:#7c63aa;fill-opacity:1;stroke-width:7.48;stroke-linecap:round;stroke-linejoin:round;stroke:#000;stroke-opacity:1;stroke-miterlimit:10" d="m1661.719 1309.805 344.492 218.476 280.156-406.562" transform="matrix(.1 0 0 -.1 0 200)"/><path style="stroke:none;fill-rule:nonzero;fill:#7c63aa;fill-opacity:1" d="m170.605 120.055-4.433-51.035 62.465 18.808"/><path style="fill:none;stroke-width:7.48;stroke-linecap:round;stroke-linejoin:round;stroke:#000;stroke-opacity:1;stroke-miterlimit:10" d="m1706.055 799.453-44.336 510.352" transform="matrix(.1 0 0 -.1 0 200)"/><path style="fill-rule:nonzero;fill:#c1471b;fill-opacity:1;stroke-width:7.48;stroke-linecap:round;stroke-linejoin:round;stroke:#000;stroke-opacity:1;stroke-miterlimit:10" d="M999.96 1829.336 685 1542.383 255.508 1395" transform="matrix(.1 0 0 -.1 0 200)"/><path style="fill-rule:nonzero;fill:#7c63aa;fill-opacity:1;stroke-width:7.48;stroke-linecap:round;stroke-linejoin:round;stroke:#000;stroke-opacity:1;stroke-miterlimit:10" d="m2286.367 1121.719-203.672-461.602-376.64 139.336" transform="matrix(.1 0 0 -.1 0 200)"/><path style="stroke:none;fill-rule:nonzero;fill:#8b8fd2;fill-opacity:1" d="m208.27 133.988-43.848 30.23 6.183-44.163"/><path style="fill:none;stroke-width:7.48;stroke-linecap:round;stroke-linejoin:round;stroke:#000;stroke-opacity:1;stroke-miterlimit:10" d="M2082.695 660.117 1644.22 357.813l61.836 441.64Zm0 0" transform="matrix(.1 0 0 -.1 0 200)"/><path style="stroke:none;fill-rule:nonzero;fill:#ddeedc;fill-opacity:1" d="m44.844 140.586 15.468 37.008-41.496-33.606"/><path style="fill:none;stroke-width:7.48;stroke-linecap:round;stroke-linejoin:round;stroke:#000;stroke-opacity:1;stroke-miterlimit:10" d="m448.438 594.14 154.687-370.077-414.96 336.054Zm0 0" transform="matrix(.1 0 0 -.1 0 200)"/><path style="fill-rule:nonzero;fill:#b7bee0;fill-opacity:1;stroke-width:7.48;stroke-linecap:round;stroke-linejoin:round;stroke:#000;stroke-opacity:1;stroke-miterlimit:10" d="m1139.102 187.422-535.977 36.64-154.688 370.079" transform="matrix(.1 0 0 -.1 0 200)"/><path style="fill-rule:nonzero;fill:#f3cda8;fill-opacity:1;stroke-width:7.48;stroke-linecap:round;stroke-linejoin:round;stroke:#000;stroke-opacity:1;stroke-miterlimit:10" d="m448.438 594.14-260.274-34.023-131.172 522.617" transform="matrix(.1 0 0 -.1 0 200)"/><path style="stroke:none;fill-rule:nonzero;fill:#85182b;fill-opacity:1" d="m152.414 25.45-52.418-8.384 32.68-13.308"/><path style="fill:none;stroke-width:7.48;stroke-linecap:round;stroke-linejoin:round;stroke:#000;stroke-opacity:1;stroke-miterlimit:10" d="m1524.14 1745.508-524.18 83.828 326.798 133.086Zm0 0" transform="matrix(.1 0 0 -.1 0 200)"/><path style="stroke:none;fill-rule:nonzero;fill:#2f0000;fill-opacity:1" d="M152.414 25.45 132.676 3.757l83.476 37.312"/><path style="fill:none;stroke-width:7.48;stroke-linecap:round;stroke-linejoin:round;stroke:#000;stroke-opacity:1;stroke-miterlimit:10" d="m1524.14 1745.508-197.382 216.914" transform="matrix(.1 0 0 -.1 0 200)"/><path style="fill-rule:nonzero;fill:#2f0000;fill-opacity:1;stroke-width:7.48;stroke-linecap:round;stroke-linejoin:round;stroke:#000;stroke-opacity:1;stroke-miterlimit:10" d="m2161.523 1589.297-155.312-61.016-482.07 217.227" transform="matrix(.1 0 0 -.1 0 200)"/><path style="stroke:none;fill-rule:nonzero;fill:#c1471b;fill-opacity:1" d="m76.926 11.887 23.07 5.18L25.551 60.5"/><path style="fill:none;stroke-width:7.48;stroke-linecap:round;stroke-linejoin:round;stroke:#000;stroke-opacity:1;stroke-miterlimit:10" d="m769.258 1881.133 230.703-51.797" transform="matrix(.1 0 0 -.1 0 200)"/><path style="fill-rule:nonzero;fill:#c1471b;fill-opacity:1;stroke-width:7.48;stroke-linecap:round;stroke-linejoin:round;stroke:#000;stroke-opacity:1;stroke-miterlimit:10" d="m255.508 1395 21.21 198.36 492.54 287.773" transform="matrix(.1 0 0 -.1 0 200)"/><path style="stroke:none;fill-rule:nonzero;fill:#dd7c02;fill-opacity:1" d="m5.7 91.727 21.972-51.063L25.55 60.5"/><path style="fill:none;stroke-width:7.48;stroke-linecap:round;stroke-linejoin:round;stroke:#000;stroke-opacity:1;stroke-miterlimit:10" d="M56.992 1082.734 276.72 1593.36 255.508 1395Zm0 0" transform="matrix(.1 0 0 -.1 0 200)"/><path style="stroke:none;fill-rule:nonzero;fill:#69b0f9;fill-opacity:1" d="m148.39 186.7-34.48-5.442 50.512-17.04"/><path style="fill:none;stroke-width:7.48;stroke-linecap:round;stroke-linejoin:round;stroke:#000;stroke-opacity:1;stroke-miterlimit:10" d="m1483.906 133.008-344.804 54.414 505.117 170.39Zm0 0" transform="matrix(.1 0 0 -.1 0 200)"/><path style="fill-rule:nonzero;fill:#0469db;fill-opacity:1;stroke-width:7.48;stroke-linecap:round;stroke-linejoin:round;stroke:#000;stroke-opacity:1;stroke-miterlimit:10" d="m1644.219 357.813 438.476 302.304 161.68-5.195" transform="matrix(.1 0 0 -.1 0 200)"/><path style="stroke:none;fill-rule:nonzero;fill:#0469db;fill-opacity:1" d="m148.39 186.7 16.032-22.481 60.016-29.711"/><path style="fill:none;stroke-width:7.48;stroke-linecap:round;stroke-linejoin:round;stroke:#000;stroke-opacity:1;stroke-miterlimit:10" d="m1483.906 133.008 160.313 224.804" transform="matrix(.1 0 0 -.1 0 200)"/><path style="stroke:none;fill-rule:nonzero;fill:#780000;fill-opacity:1" d="m132.676 3.758-32.68 13.308-23.07-5.18"/><path style="fill:none;stroke-width:7.48;stroke-linecap:round;stroke-linejoin:round;stroke:#000;stroke-opacity:1;stroke-miterlimit:10" d="M1326.758 1962.422 999.96 1829.336l-230.703 51.797Zm0 0" transform="matrix(.1 0 0 -.1 0 200)"/><path style="stroke:none;fill-rule:nonzero;fill:#47c2ed;fill-opacity:1" d="m148.39 186.7-56.706.988 22.226-6.43"/><path style="fill:none;stroke-width:7.48;stroke-linecap:round;stroke-linejoin:round;stroke:#000;stroke-opacity:1;stroke-miterlimit:10" d="m1483.906 133.008-567.07-9.883 222.266 64.297Zm0 0" transform="matrix(.1 0 0 -.1 0 200)"/><path style="stroke:none;fill-rule:nonzero;fill:#67d4f5;fill-opacity:1" d="m60.313 177.594 53.597 3.664-22.226 6.43"/><path style="fill:none;stroke-width:7.48;stroke-linecap:round;stroke-linejoin:round;stroke:#000;stroke-opacity:1;stroke-miterlimit:10" d="m603.125 224.063 535.977-36.641-222.266-64.297Zm0 0" transform="matrix(.1 0 0 -.1 0 200)"/><path style="stroke:none;fill-rule:nonzero;fill:#11004b;fill-opacity:1" d="M228.637 87.828 200.62 47.172l15.531-6.102"/><path style="fill:none;stroke-width:7.48;stroke-linecap:round;stroke-linejoin:round;stroke:#000;stroke-opacity:1;stroke-miterlimit:10" d="m2286.367 1121.719-280.156 406.562 155.312 61.016Zm0 0" transform="matrix(.1 0 0 -.1 0 200)"/><path style="stroke:none;fill-rule:nonzero;fill:#021fa2;fill-opacity:1" d="m224.438 134.508-16.168-.52 20.367-46.16"/><path style="fill:none;stroke-width:7.48;stroke-linecap:round;stroke-linejoin:round;stroke:#000;stroke-opacity:1;stroke-miterlimit:10" d="m2244.375 654.922-161.68 5.195 203.672 461.602Zm0 0" transform="matrix(.1 0 0 -.1 0 200)"/><path style="fill-rule:nonzero;fill:#1d0000;fill-opacity:1;stroke-width:7.48;stroke-linecap:round;stroke-linejoin:round;stroke:#000;stroke-opacity:1;stroke-miterlimit:10" d="m188.164 560.117 414.961-336.054 313.71-100.938" transform="matrix(.1 0 0 -.1 0 200)"/><path style="stroke:none;fill-rule:nonzero;fill:#00000d;fill-opacity:1" d="m18.816 143.988 1.7-14.41L5.699 91.727"/><path style="fill:none;stroke-width:7.48;stroke-linecap:round;stroke-linejoin:round;stroke:#000;stroke-opacity:1;stroke-miterlimit:10" d="m188.164 560.117 16.992 144.102-148.164 378.515Zm0 0" transform="matrix(.1 0 0 -.1 0 200)"/><path style="fill-rule:nonzero;fill:#1d0000;fill-opacity:1;stroke-width:7.48;stroke-linecap:round;stroke-linejoin:round;stroke:#000;stroke-opacity:1;stroke-miterlimit:10" d="M682.852 422.031 205.156 704.22l-16.992-144.102" transform="matrix(.1 0 0 -.1 0 200)"/><path style="stroke:none;fill-rule:nonzero;fill:#1d0000;fill-opacity:1" d="m91.684 187.688-23.399-29.891-49.469-13.809"/><path style="fill:none;stroke-width:7.48;stroke-linecap:round;stroke-linejoin:round;stroke:#000;stroke-opacity:1;stroke-miterlimit:10" d="M916.836 123.125 682.852 422.031" transform="matrix(.1 0 0 -.1 0 200)"/><path style="fill-rule:nonzero;fill:#feda86;fill-opacity:1;stroke-width:7.48;stroke-linecap:round;stroke-linejoin:round;stroke:#000;stroke-opacity:1;stroke-miterlimit:10" d="m2286.367 1121.719-124.844 467.578-136.953-154.922" transform="matrix(.1 0 0 -.1 0 200)"/><path style="stroke:none;fill-rule:nonzero;fill:#feda86;fill-opacity:1" d="m224.438 134.508 4.199-46.68-26.18-31.266"/><path style="fill:none;stroke-width:7.48;stroke-linecap:round;stroke-linejoin:round;stroke:#000;stroke-opacity:1;stroke-miterlimit:10" d="m2244.375 654.922 41.992 466.797" transform="matrix(.1 0 0 -.1 0 200)"/><path style="fill-rule:nonzero;fill:#5a5bb9;fill-opacity:1;stroke-width:7.48;stroke-linecap:round;stroke-linejoin:round;stroke:#000;stroke-opacity:1;stroke-miterlimit:10" d="M586.914 1574.453 276.72 1593.36 56.992 1082.734" transform="matrix(.1 0 0 -.1 0 200)"/><path style="stroke:none;fill-rule:nonzero;fill:#5a5bb9;fill-opacity:1" d="m54.852 100.285 3.84-57.73L5.698 91.727"/><path style="fill:none;stroke-width:7.48;stroke-linecap:round;stroke-linejoin:round;stroke:#000;stroke-opacity:1;stroke-miterlimit:10" d="m548.516 997.148 38.398 577.305" transform="matrix(.1 0 0 -.1 0 200)"/><path style="fill-rule:nonzero;fill:#5a5bb9;fill-opacity:1;stroke-width:7.48;stroke-linecap:round;stroke-linejoin:round;stroke:#000;stroke-opacity:1;stroke-miterlimit:10" d="M56.992 1082.734 205.156 704.22l343.36 292.93" transform="matrix(.1 0 0 -.1 0 200)"/><path style="stroke:none;fill-rule:nonzero;fill:#4fbbf8;fill-opacity:1" d="m132.676 3.758-55.75 8.129 36.402 4.3"/><path style="fill:none;stroke-width:7.48;stroke-linecap:round;stroke-linejoin:round;stroke:#000;stroke-opacity:1;stroke-miterlimit:10" d="m1326.758 1962.422-557.5-81.29 364.023-43.007Zm0 0" transform="matrix(.1 0 0 -.1 0 200)"/><path style="fill-rule:nonzero;fill:#2f0000;fill-opacity:1;stroke-width:7.48;stroke-linecap:round;stroke-linejoin:round;stroke:#000;stroke-opacity:1;stroke-miterlimit:10" d="m1326.758 1962.422 395.82-87.227 438.945-285.898" transform="matrix(.1 0 0 -.1 0 200)"/><path style="stroke:none;fill-rule:nonzero;fill:#69ccfd;fill-opacity:1" d="m172.258 12.48-39.582-8.722-19.348 12.43"/><path style="fill:none;stroke-width:7.48;stroke-linecap:round;stroke-linejoin:round;stroke:#000;stroke-opacity:1;stroke-miterlimit:10" d="m1722.578 1875.195-395.82 87.227-193.477-124.297Zm0 0" transform="matrix(.1 0 0 -.1 0 200)"/><path style="stroke:none;fill-rule:nonzero;fill:#7a0000;fill-opacity:1" d="m126.836 174.746-35.152 12.941 56.707-.988"/><path style="fill:none;stroke-width:7.48;stroke-linecap:round;stroke-linejoin:round;stroke:#000;stroke-opacity:1;stroke-miterlimit:10" d="M1268.36 252.54 916.835 123.124l567.07 9.883Zm0 0" transform="matrix(.1 0 0 -.1 0 200)"/><path style="fill-rule:nonzero;fill:#0469db;fill-opacity:1;stroke-width:7.48;stroke-linecap:round;stroke-linejoin:round;stroke:#000;stroke-opacity:1;stroke-miterlimit:10" d="m2244.375 654.922-385.313-344.453-375.156-177.461" transform="matrix(.1 0 0 -.1 0 200)"/><path style="stroke:none;fill-rule:nonzero;fill:#8f0c00;fill-opacity:1" d="m185.906 168.953-59.07 5.793L148.39 186.7"/><path style="fill:none;stroke-width:7.48;stroke-linecap:round;stroke-linejoin:round;stroke:#000;stroke-opacity:1;stroke-miterlimit:10" d="m1859.063 310.469-590.704-57.93 215.547-119.531Zm0 0" transform="matrix(.1 0 0 -.1 0 200)"/><path style="stroke:none;fill-rule:nonzero;fill:#5292ee;fill-opacity:1" d="m27.672 40.664 31.02 1.89 18.234-30.667"/><path style="fill:none;stroke-width:7.48;stroke-linecap:round;stroke-linejoin:round;stroke:#000;stroke-opacity:1;stroke-miterlimit:10" d="m276.719 1593.36 310.195-18.907 182.344 306.68Zm0 0" transform="matrix(.1 0 0 -.1 0 200)"/><path style="stroke:none;fill-rule:nonzero;fill:#68a1f1;fill-opacity:1" d="m113.328 16.188-36.402-4.301L58.69 42.555"/><path style="fill:none;stroke-width:7.48;stroke-linecap:round;stroke-linejoin:round;stroke:#000;stroke-opacity:1;stroke-miterlimit:10" d="m1133.281 1838.125-364.023 43.008-182.344-306.68Zm0 0" transform="matrix(.1 0 0 -.1 0 200)"/><path style="stroke:none;fill-rule:nonzero;fill:#801f41;fill-opacity:1" d="m126.836 174.746-58.55-16.95 23.398 29.892"/><path style="fill:none;stroke-width:7.48;stroke-linecap:round;stroke-linejoin:round;stroke:#000;stroke-opacity:1;stroke-miterlimit:10" d="M1268.36 252.54 682.851 422.03l233.984-298.906Zm0 0" transform="matrix(.1 0 0 -.1 0 200)"/><path style="stroke:none;fill-rule:nonzero;fill:#daf5de;fill-opacity:1" d="m216.152 41.07-43.894-28.59 30.199 44.082"/><path style="fill:none;stroke-width:7.48;stroke-linecap:round;stroke-linejoin:round;stroke:#000;stroke-opacity:1;stroke-miterlimit:10" d="m2161.523 1589.297-438.945 285.898 301.992-440.82Zm0 0" transform="matrix(.1 0 0 -.1 0 200)"/><path style="stroke:none;fill-rule:nonzero;fill:#e88b55;fill-opacity:1" d="m207.922 118.516-22.016 50.437 38.531-34.445"/><path style="fill:none;stroke-width:7.48;stroke-linecap:round;stroke-linejoin:round;stroke:#000;stroke-opacity:1;stroke-miterlimit:10" d="m2079.219 814.844-220.157-504.375 385.313 344.453Zm0 0" transform="matrix(.1 0 0 -.1 0 200)"/><path style="fill-rule:nonzero;fill:#feda86;fill-opacity:1;stroke-width:7.48;stroke-linecap:round;stroke-linejoin:round;stroke:#000;stroke-opacity:1;stroke-miterlimit:10" d="m2024.57 1434.375 54.649-619.531 165.156-159.922" transform="matrix(.1 0 0 -.1 0 200)"/><path style="stroke:none;fill-rule:nonzero;fill:#895c96;fill-opacity:1" d="m20.516 129.578 47.77 28.219-13.434-57.512"/><path style="fill:none;stroke-width:7.48;stroke-linecap:round;stroke-linejoin:round;stroke:#000;stroke-opacity:1;stroke-miterlimit:10" d="M205.156 704.219 682.852 422.03 548.516 997.148Zm0 0" transform="matrix(.1 0 0 -.1 0 200)"/><path style="fill-rule:nonzero;fill:#b6b6d8;fill-opacity:1;stroke-width:7.48;stroke-linecap:round;stroke-linejoin:round;stroke:#000;stroke-opacity:1;stroke-miterlimit:10" d="m2024.57 1434.375-301.992 440.82-589.297-37.07" transform="matrix(.1 0 0 -.1 0 200)"/><path style="fill-rule:nonzero;fill:#bd7f8e;fill-opacity:1;stroke-width:7.48;stroke-linecap:round;stroke-linejoin:round;stroke:#000;stroke-opacity:1;stroke-miterlimit:10" d="m1268.36 252.54 590.703 57.929 220.156 504.375" transform="matrix(.1 0 0 -.1 0 200)"/><path style="stroke:none;fill-rule:nonzero;fill:#98a1db;fill-opacity:1" d="M113.328 16.188 58.691 42.555l44.532 21.27"/><path style="fill:none;stroke-width:7.48;stroke-linecap:round;stroke-linejoin:round;stroke:#000;stroke-opacity:1;stroke-miterlimit:10" d="m1133.281 1838.125-546.367-263.672 445.313-212.695Zm0 0" transform="matrix(.1 0 0 -.1 0 200)"/><path style="stroke:none;fill-rule:nonzero;fill:#b6b6d8;fill-opacity:1" d="m113.328 16.188-10.105 47.636 99.234-7.261"/><path style="fill:none;stroke-width:7.48;stroke-linecap:round;stroke-linejoin:round;stroke:#000;stroke-opacity:1;stroke-miterlimit:10" d="m1133.281 1838.125-101.054-476.367" transform="matrix(.1 0 0 -.1 0 200)"/><path style="stroke:none;fill-rule:nonzero;fill:#8e85c5;fill-opacity:1" d="M103.223 63.824 58.69 42.554l-3.84 57.731"/><path style="fill:none;stroke-width:7.48;stroke-linecap:round;stroke-linejoin:round;stroke:#000;stroke-opacity:1;stroke-miterlimit:10" d="m1032.227 1361.758-445.313 212.695-38.398-577.305Zm0 0" transform="matrix(.1 0 0 -.1 0 200)"/><path style="stroke:none;fill-rule:nonzero;fill:#a16083;fill-opacity:1" d="m108.586 127.176-40.3 30.62 58.55 16.95"/><path style="fill:none;stroke-width:7.48;stroke-linecap:round;stroke-linejoin:round;stroke:#000;stroke-opacity:1;stroke-miterlimit:10" d="m1085.86 728.242-403.008-306.21 585.507-169.493Zm0 0" transform="matrix(.1 0 0 -.1 0 200)"/><path style="stroke:none;fill-rule:nonzero;fill:#93659a;fill-opacity:1" d="m108.586 127.176-53.734-26.89 13.433 57.51"/><path style="fill:none;stroke-width:7.48;stroke-linecap:round;stroke-linejoin:round;stroke:#000;stroke-opacity:1;stroke-miterlimit:10" d="M1085.86 728.242 548.515 997.148l134.336-575.117Zm0 0" transform="matrix(.1 0 0 -.1 0 200)"/><path style="stroke:none;fill-rule:nonzero;fill:#bd7f8e;fill-opacity:1" d="m108.586 127.176 18.25 47.57 81.086-56.23"/><path style="fill:none;stroke-width:7.48;stroke-linecap:round;stroke-linejoin:round;stroke:#000;stroke-opacity:1;stroke-miterlimit:10" d="m1085.86 728.242 182.5-475.703" transform="matrix(.1 0 0 -.1 0 200)"/><path style="stroke:none;fill-rule:nonzero;fill:#d4b1b5;fill-opacity:1" d="m202.457 56.563-42.184 33.94 47.649 28.013"/><path style="fill:none;stroke-width:7.48;stroke-linecap:round;stroke-linejoin:round;stroke:#000;stroke-opacity:1;stroke-miterlimit:10" d="m2024.57 1434.375-421.836-339.414 476.485-280.117Zm0 0" transform="matrix(.1 0 0 -.1 0 200)"/><path style="fill-rule:nonzero;fill:#b6b6d8;fill-opacity:1;stroke-width:7.48;stroke-linecap:round;stroke-linejoin:round;stroke:#000;stroke-opacity:1;stroke-miterlimit:10" d="m1032.227 1361.758 570.507-266.797 421.836 339.414" transform="matrix(.1 0 0 -.1 0 200)"/><path style="stroke:none;fill-rule:nonzero;fill:#a183b3;fill-opacity:1" d="m103.223 63.824-48.371 36.461 53.734 26.89"/><path style="fill:none;stroke-width:7.48;stroke-linecap:round;stroke-linejoin:round;stroke:#000;stroke-opacity:1;stroke-miterlimit:10" d="m1032.227 1361.758-483.711-364.61 537.343-268.906Zm0 0" transform="matrix(.1 0 0 -.1 0 200)"/><path style="fill-rule:nonzero;fill:#bd7f8e;fill-opacity:1;stroke-width:7.48;stroke-linecap:round;stroke-linejoin:round;stroke:#000;stroke-opacity:1;stroke-miterlimit:10" d="m2079.219 814.844-476.485 280.117-516.875-366.719" transform="matrix(.1 0 0 -.1 0 200)"/><path style="stroke:none;fill-rule:nonzero;fill:#a789b4;fill-opacity:1" d="m160.273 90.504-57.05-26.68 5.363 63.352"/><path style="fill:none;stroke-width:7.48;stroke-linecap:round;stroke-linejoin:round;stroke:#000;stroke-opacity:1;stroke-miterlimit:10" d="m1602.734 1094.96-570.507 266.798 53.632-633.516Zm0 0" transform="matrix(.1 0 0 -.1 0 200)"/></svg>