<svg xmlns="http://www.w3.org/2000/svg" width="238pt" height="200pt" viewBox="0 0 238 200" version="1.2"><path style="stroke:none;fill-rule:nonzero;fill:#e38a62;fill-opacity:1" d="M60.086 105.309 5.684 82.227l90.668-70.309"/><path style="fill:none;stroke-width:8.16;stroke-linecap:round;stroke-linejoin:round;stroke:#000;stroke-opacity:1;stroke-miterlimit:10" d="m600.86 946.914-544.024 230.82 906.68 703.086Zm0 0" transform="matrix(.1 0 0 -.1 0 200)"/><path style="stroke:none;fill-rule:nonzero;fill:#b8788b;fill-opacity:1" d="M168.227 81.89 60.086 105.31l36.266-93.391"/><path style="fill:none;stroke-width:8.16;stroke-linecap:round;stroke-linejoin:round;stroke:#000;stroke-opacity:1;stroke-miterlimit:10" d="M1682.266 1181.094 600.859 946.914l362.657 933.906Zm0 0" transform="matrix(.1 0 0 -.1 0 200)"/><path style="stroke:none;fill-rule:nonzero;fill:#f9d4a2;fill-opacity:1" d="m60.086 105.309-24.559 92.398L5.684 82.227"/><path style="fill:none;stroke-width:8.16;stroke-linecap:round;stroke-linejoin:round;stroke:#000;stroke-opacity:1;stroke-miterlimit:10" d="M600.86 946.914 355.272 22.93 56.836 1177.734Zm0 0" transform="matrix(.1 0 0 -.1 0 200)"/><path style="stroke:none;fill-rule:nonzero;fill:#cec3d0;fill-opacity:1" d="m60.086 105.309 74.445 82.523-99.004 9.875"/><path style="fill:none;stroke-width:8.16;stroke-linecap:round;stroke-linejoin:round;stroke:#000;stroke-opacity:1;stroke-miterlimit:10" d="m600.86 946.914 744.452-825.234-990.039-98.75Zm0 0" transform="matrix(.1 0 0 -.1 0 200)"/><path style="stroke:none;fill-rule:nonzero;fill:#b396b8;fill-opacity:1" d="M168.227 81.89 134.53 187.833l-74.445-82.523"/><path style="fill:none;stroke-width:8.16;stroke-linecap:round;stroke-linejoin:round;stroke:#000;stroke-opacity:1;stroke-miterlimit:10" d="M1682.266 1181.094 1345.312 121.68 600.86 946.914Zm0 0" transform="matrix(.1 0 0 -.1 0 200)"/><path style="stroke:none;fill-rule:nonzero;fill:#721a49;fill-opacity:1" d="m207.879 38.406-39.652 43.485-71.875-69.973"/><path style="fill:none;stroke-width:8.16;stroke-linecap:round;stroke-linejoin:round;stroke:#000;stroke-opacity:1;stroke-miterlimit:10" d="m2078.79 1615.938-396.524-434.844-718.75 699.726Zm0 0" transform="matrix(.1 0 0 -.1 0 200)"/><path style="stroke:none;fill-rule:nonzero;fill:#8379c0;fill-opacity:1" d="m168.227 81.89 60.394 74.075-94.09 31.867"/><path style="fill:none;stroke-width:8.16;stroke-linecap:round;stroke-linejoin:round;stroke:#000;stroke-opacity:1;stroke-miterlimit:10" d="m1682.266 1181.094 603.945-740.742-940.898-318.672Zm0 0" transform="matrix(.1 0 0 -.1 0 200)"/><path style="stroke:none;fill-rule:nonzero;fill:#3a1678;fill-opacity:1" d="m207.879 38.406 20.742 117.559-60.394-74.074"/><path style="fill:none;stroke-width:8.16;stroke-linecap:round;stroke-linejoin:round;stroke:#000;stroke-opacity:1;stroke-miterlimit:10" d="m2078.79 1615.938 207.42-1175.586-603.944 740.742Zm0 0" transform="matrix(.1 0 0 -.1 0 200)"/><path style="stroke:none;fill-rule:nonzero;fill:#7a0000;fill-opacity:1" d="m134.531 187.832 94.09-31.867-171.84 13.242"/><path style="fill:none;stroke-width:8.16;stroke-linecap:round;stroke-linejoin:round;stroke:#000;stroke-opacity:1;stroke-miterlimit:10" d="m1345.313 121.68 940.898 318.672" transform="matrix(.1 0 0 -.1 0 200)"/><path style="fill-rule:nonzero;fill:#7a0000;fill-opacity:1;stroke-width:8.16;stroke-linecap:round;stroke-linejoin:round;stroke:#000;stroke-opacity:1;stroke-miterlimit:10" d="m567.813 307.93-212.54-285 990.04 98.75" transform="matrix(.1 0 0 -.1 0 200)"/><path style="stroke:none;fill-rule:nonzero;fill:#6bdaf0;fill-opacity:1" d="m100.883 34.027 106.996 4.38L96.352 11.917"/><path style="fill:none;stroke-width:8.16;stroke-linecap:round;stroke-linejoin:round;stroke:#000;stroke-opacity:1;stroke-miterlimit:10" d="m1008.828 1659.727 1069.961-43.79L963.516 1880.82Zm0 0" transform="matrix(.1 0 0 -.1 0 200)"/><path style="stroke:none;fill-rule:nonzero;fill:#0065d6;fill-opacity:1" d="m5.684 82.227 95.199-48.2-4.531-22.109"/><path style="fill:none;stroke-width:8.16;stroke-linecap:round;stroke-linejoin:round;stroke:#000;stroke-opacity:1;stroke-miterlimit:10" d="m56.836 1177.734 951.992 481.993-45.312 221.093Zm0 0" transform="matrix(.1 0 0 -.1 0 200)"/><path style="stroke:none;fill-rule:nonzero;fill:#00003a;fill-opacity:1" d="m5.684 82.227 29.843 115.48 21.254-28.5"/><path style="fill:none;stroke-width:8.16;stroke-linecap:round;stroke-linejoin:round;stroke:#000;stroke-opacity:1;stroke-miterlimit:10" d="M56.836 1177.734 355.273 22.93l212.54 285Zm0 0" transform="matrix(.1 0 0 -.1 0 200)"/><path style="fill-rule:nonzero;fill:#7a0000;fill-opacity:1;stroke-width:8.16;stroke-linecap:round;stroke-linejoin:round;stroke:#000;stroke-opacity:1;stroke-miterlimit:10" d="m2286.21 440.352-316.718 170.742L567.812 307.93" transform="matrix(.1 0 0 -.1 0 200)"/><path style="stroke:none;fill-rule:nonzero;fill:#fbda79;fill-opacity:1" d="m207.879 38.406-10.93 100.485 31.672 17.074"/><path style="fill:none;stroke-width:8.16;stroke-linecap:round;stroke-linejoin:round;stroke:#000;stroke-opacity:1;stroke-miterlimit:10" d="M2078.79 1615.938 1969.491 611.093l316.719-170.742Zm0 0" transform="matrix(.1 0 0 -.1 0 200)"/><path style="stroke:none;fill-rule:nonzero;fill:#6e6dc1;fill-opacity:1" d="m5.684 82.227 51.097 86.98 44.102-135.18"/><path style="fill:none;stroke-width:8.16;stroke-linecap:round;stroke-linejoin:round;stroke:#000;stroke-opacity:1;stroke-miterlimit:10" d="M56.836 1177.734 567.812 307.93l441.016 1351.797Zm0 0" transform="matrix(.1 0 0 -.1 0 200)"/><path style="stroke:none;fill-rule:nonzero;fill:#d4d3d7;fill-opacity:1" d="m100.883 34.027 96.066 104.864 10.93-100.485"/><path style="fill:none;stroke-width:8.16;stroke-linecap:round;stroke-linejoin:round;stroke:#000;stroke-opacity:1;stroke-miterlimit:10" d="m1008.828 1659.727 960.664-1048.633 109.297 1004.843Zm0 0" transform="matrix(.1 0 0 -.1 0 200)"/><path style="stroke:none;fill-rule:nonzero;fill:#b396ba;fill-opacity:1" d="M100.883 34.027 56.78 169.207l140.168-30.316"/><path style="fill:none;stroke-width:8.16;stroke-linecap:round;stroke-linejoin:round;stroke:#000;stroke-opacity:1;stroke-miterlimit:10" d="M1008.828 1659.727 567.813 307.93l1401.68 303.164Zm0 0" transform="matrix(.1 0 0 -.1 0 200)"/></svg>