<svg xmlns="http://www.w3.org/2000/svg" width="270.587" height="251.88" viewBox="0 0 202.94 188.91" version="1.2"><defs><clipPath id="a"><path d="M48 132h78v56.82H48Zm0 0"/></clipPath><clipPath id="b"><path d="M47 132h79v56.82H47Zm0 0"/></clipPath><clipPath id="c"><path d="M33 132h74v56.82H33Zm0 0"/></clipPath><clipPath id="d"><path d="M32 132h75v56.82H32Zm0 0"/></clipPath><clipPath id="e"><path d="M.02 50H34v92H.02Zm0 0"/></clipPath><clipPath id="f"><path d="M.02 50H34v93H.02Zm0 0"/></clipPath><clipPath id="g"><path d="M.02 124H49v64.82H.02Zm0 0"/></clipPath><clipPath id="h"><path d="M174 52h28.863v88H174Zm0 0"/></clipPath><clipPath id="i"><path d="M174 51h28.863v90H174Zm0 0"/></clipPath><clipPath id="j"><path d="M160 0h42.863v63H160Zm0 0"/></clipPath><clipPath id="k"><path d="M48 162h78v26.82H48Zm0 0"/></clipPath><clipPath id="l"><path d="M47 162h79v26.82H47Zm0 0"/></clipPath><clipPath id="m"><path d="M.02 50H48v75H.02Zm0 0"/></clipPath><clipPath id="n"><path d="M.02 124H98v64.82H.02Zm0 0"/></clipPath><clipPath id="o"><path d="M.02 124H99v64.82H.02Zm0 0"/></clipPath><clipPath id="p"><path d="M.02 94H98v69H.02Zm0 0"/></clipPath><clipPath id="q"><path d="M.02 94H99v69H.02Zm0 0"/></clipPath><clipPath id="r"><path d="M90 0h112.863v63H90Zm0 0"/></clipPath><clipPath id="s"><path d="M131 62h71.863v78H131Zm0 0"/></clipPath><clipPath id="t"><path d="M130 62h72.863v79H130Zm0 0"/></clipPath><clipPath id="u"><path d="M90 23h112.863v67H90Zm0 0"/></clipPath></defs><path style="stroke:none;fill-rule:nonzero;fill:#98a4d8;fill-opacity:1" d="M106.297 132.664 174 123.777l-48.664 54.285-19.04-45.398"/><path style="fill:none;stroke-width:7.06;stroke-linecap:round;stroke-linejoin:round;stroke:#231f20;stroke-opacity:1;stroke-miterlimit:10" d="m1063.292 561.827 677.354 88.91-486.873-543.11Zm0 0" transform="matrix(.09995 0 0 -.09995 .018 188.82)"/><path style="stroke:none;fill-rule:nonzero;fill:#a291c6;fill-opacity:1" d="m106.297 132.664 30.164-67.668L174 123.777l-67.703 8.887"/><path style="fill:none;stroke-width:7.06;stroke-linecap:round;stroke-linejoin:round;stroke:#231f20;stroke-opacity:1;stroke-miterlimit:10" d="m1063.292 561.827 301.784 677.002 375.57-588.092Zm0 0" transform="matrix(.09995 0 0 -.09995 .018 188.82)"/><path style="stroke:none;fill-rule:nonzero;fill:#b89abf;fill-opacity:1" d="m62.598 72.984 73.863-7.988-30.164 67.668-43.7-59.68"/><path style="fill:none;stroke-width:7.06;stroke-linecap:round;stroke-linejoin:round;stroke:#231f20;stroke-opacity:1;stroke-miterlimit:10" d="m626.091 1158.909 738.985 79.92-301.784-677.002Zm0 0" transform="matrix(.09995 0 0 -.09995 .018 188.82)"/><g clip-path="url(#a)"><path style="stroke:none;fill-rule:nonzero;fill:#afbde5;fill-opacity:1" d="m106.297 132.664 19.039 45.399-77.281 10.406"/></g><g clip-path="url(#b)"><path style="fill:none;stroke-width:7.06;stroke-linecap:round;stroke-linejoin:round;stroke:#231f20;stroke-opacity:1;stroke-miterlimit:10" d="m1063.292 561.827 190.481-454.2L480.593 3.515" transform="matrix(.09995 0 0 -.09995 .018 188.82)"/></g><g clip-path="url(#c)"><path style="stroke:none;fill-rule:nonzero;fill:#afbde5;fill-opacity:1" d="m48.055 188.469-14.723-46.75 72.965-9.055"/></g><g clip-path="url(#d)"><path style="fill:none;stroke-width:7.06;stroke-linecap:round;stroke-linejoin:round;stroke:#231f20;stroke-opacity:1;stroke-miterlimit:10" d="M480.592 3.515 333.296 471.237l729.996 90.59" transform="matrix(.09995 0 0 -.09995 .018 188.82)"/></g><path style="stroke:none;fill-rule:nonzero;fill:#bda0c2;fill-opacity:1" d="m33.332 141.719 29.266-68.735 43.699 59.68-72.965 9.055"/><path style="fill:none;stroke-width:7.06;stroke-linecap:round;stroke-linejoin:round;stroke:#231f20;stroke-opacity:1;stroke-miterlimit:10" d="M333.296 471.237 626.09 1158.91l437.2-597.082Zm0 0" transform="matrix(.09995 0 0 -.09995 .018 188.82)"/><path style="stroke:none;fill-rule:nonzero;fill:#b985a3;fill-opacity:1" d="m62.598 72.984 33.566-56.777 40.297 48.79-73.863 7.987"/><path style="fill:none;stroke-width:7.06;stroke-linecap:round;stroke-linejoin:round;stroke:#231f20;stroke-opacity:1;stroke-miterlimit:10" d="m626.091 1158.909 335.824 568.043 403.161-488.123Zm0 0" transform="matrix(.09995 0 0 -.09995 .018 188.82)"/><path style="stroke:none;fill-rule:nonzero;fill:#9b88c1;fill-opacity:1" d="M199.824 52.012 174 123.777l-37.54-58.78 63.364-12.985"/><path style="fill:none;stroke-width:7.06;stroke-linecap:round;stroke-linejoin:round;stroke:#231f20;stroke-opacity:1;stroke-miterlimit:10" d="m1999.01 1368.735-258.364-717.998-375.57 588.092Zm0 0" transform="matrix(.09995 0 0 -.09995 .018 188.82)"/><path style="fill-rule:nonzero;fill:#a36691;fill-opacity:1;stroke-width:7.06;stroke-linecap:round;stroke-linejoin:round;stroke:#231f20;stroke-opacity:1;stroke-miterlimit:10" d="m1365.076 1238.83-403.16 488.122 644.29 158.63M1606.207 1885.583l392.804-516.848-633.935-129.906" transform="matrix(.09995 0 0 -.09995 .018 188.82)"/><path style="stroke:none;fill-rule:nonzero;fill:#d48983;fill-opacity:1" d="m32.023 50.914 64.141-34.707-33.566 56.777-30.575-22.07"/><path style="fill:none;stroke-width:7.06;stroke-linecap:round;stroke-linejoin:round;stroke:#231f20;stroke-opacity:1;stroke-miterlimit:10" d="m320.204 1379.717 641.711 347.235-335.824-568.043Zm0 0" transform="matrix(.09995 0 0 -.09995 .018 188.82)"/><path style="fill-rule:nonzero;fill:#e5ab98;fill-opacity:1;stroke-width:7.06;stroke-linecap:round;stroke-linejoin:round;stroke:#231f20;stroke-opacity:1;stroke-miterlimit:10" d="m320.204 1379.717 305.887-220.808-292.795-687.672" transform="matrix(.09995 0 0 -.09995 .018 188.82)"/><g clip-path="url(#e)"><path style="stroke:none;fill-rule:nonzero;fill:#e5ab98;fill-opacity:1" d="M33.332 141.719.372 124.367l31.651-73.453"/></g><g clip-path="url(#f)"><path style="fill:none;stroke-width:7.06;stroke-linecap:round;stroke-linejoin:round;stroke:#231f20;stroke-opacity:1;stroke-miterlimit:10" d="M333.296 471.237 3.529 644.836l316.675 734.88" transform="matrix(.09995 0 0 -.09995 .018 188.82)"/></g><g clip-path="url(#g)"><path style="stroke:none;fill-rule:nonzero;fill:#e7efce;fill-opacity:1" d="m.371 124.367 32.961 17.352 14.723 46.75L.37 124.367"/><path style="fill:none;stroke-width:7.06;stroke-linecap:round;stroke-linejoin:round;stroke:#231f20;stroke-opacity:1;stroke-miterlimit:10" d="m3.53 644.836 329.766-173.599L480.592 3.515Zm0 0" transform="matrix(.09995 0 0 -.09995 .018 188.82)"/></g><path style="stroke:none;fill-rule:nonzero;fill:#1e6fc0;fill-opacity:1" d="M125.336 178.063 174 123.776l.57 16.176-49.234 38.11"/><path style="fill:none;stroke-width:7.06;stroke-linecap:round;stroke-linejoin:round;stroke:#231f20;stroke-opacity:1;stroke-miterlimit:10" d="m1253.773 107.627 486.873 543.11 5.705-161.835Zm0 0" transform="matrix(.09995 0 0 -.09995 .018 188.82)"/><path style="fill-rule:nonzero;fill:#30338a;fill-opacity:1;stroke-width:7.06;stroke-linecap:round;stroke-linejoin:round;stroke:#231f20;stroke-opacity:1;stroke-miterlimit:10" d="m1746.351 488.902-5.705 161.835 258.365 717.998" transform="matrix(.09995 0 0 -.09995 .018 188.82)"/><path style="stroke:none;fill-rule:nonzero;fill:#2378c6;fill-opacity:1" d="m32.023 50.914 58.375-27.078 5.766-7.629-64.14 34.707"/><path style="fill:none;stroke-width:7.06;stroke-linecap:round;stroke-linejoin:round;stroke:#231f20;stroke-opacity:1;stroke-miterlimit:10" d="m320.204 1379.717 584.028 270.91 57.683 76.325Zm0 0" transform="matrix(.09995 0 0 -.09995 .018 188.82)"/><path style="stroke:none;fill-rule:nonzero;fill:#1f9ade;fill-opacity:1" d="M160.563.352 96.163 16.207l-5.766 7.629L160.563.352"/><path style="fill:none;stroke-width:7.06;stroke-linecap:round;stroke-linejoin:round;stroke:#231f20;stroke-opacity:1;stroke-miterlimit:10" d="m1606.207 1885.583-644.292-158.63-57.683-76.326Zm0 0" transform="matrix(.09995 0 0 -.09995 .018 188.82)"/><g clip-path="url(#h)"><path style="stroke:none;fill-rule:nonzero;fill:#30338a;fill-opacity:1" d="m199.824 52.012 2.688 10.55-27.942 77.391"/></g><g clip-path="url(#i)"><path style="fill:none;stroke-width:7.06;stroke-linecap:round;stroke-linejoin:round;stroke:#231f20;stroke-opacity:1;stroke-miterlimit:10" d="m1999.01 1368.735 26.889-105.558-279.548-774.275" transform="matrix(.09995 0 0 -.09995 .018 188.82)"/></g><g clip-path="url(#j)"><path style="stroke:none;fill-rule:nonzero;fill:#b6df94;fill-opacity:1" d="M199.824 52.012 160.562.352l41.95 62.21-2.688-10.55"/><path style="fill:none;stroke-width:7.06;stroke-linecap:round;stroke-linejoin:round;stroke:#231f20;stroke-opacity:1;stroke-miterlimit:10" d="m1999.01 1368.735-392.803 516.848 419.692-622.406Zm0 0" transform="matrix(.09995 0 0 -.09995 .018 188.82)"/></g><path style="stroke:none;fill-rule:nonzero;fill:#bc5c4e;fill-opacity:1" d="m125.336 178.063 49.234-38.11-76.91 22.629 27.676 15.48"/><path style="fill:none;stroke-width:7.06;stroke-linecap:round;stroke-linejoin:round;stroke:#231f20;stroke-opacity:1;stroke-miterlimit:10" d="m1253.773 107.627 492.578 381.275-769.468-226.397Zm0 0" transform="matrix(.09995 0 0 -.09995 .018 188.82)"/><g clip-path="url(#k)"><path style="stroke:none;fill-rule:nonzero;fill:#a63e37;fill-opacity:1" d="m48.055 188.469 77.28-10.406-27.675-15.481-49.605 25.887"/></g><g clip-path="url(#l)"><path style="fill:none;stroke-width:7.06;stroke-linecap:round;stroke-linejoin:round;stroke:#231f20;stroke-opacity:1;stroke-miterlimit:10" d="m480.592 3.515 773.181 104.112-276.89 154.878Zm0 0" transform="matrix(.09995 0 0 -.09995 .018 188.82)"/></g><path style="stroke:none;fill-rule:nonzero;fill:#778ed0;fill-opacity:1" d="m47.621 94.574 42.777-70.738-58.375 27.078 15.598 43.66"/><path style="fill:none;stroke-width:7.06;stroke-linecap:round;stroke-linejoin:round;stroke:#231f20;stroke-opacity:1;stroke-miterlimit:10" d="m476.254 942.907 427.978 707.72-584.028-270.91Zm0 0" transform="matrix(.09995 0 0 -.09995 .018 188.82)"/><g clip-path="url(#m)"><path style="stroke:none;fill-rule:nonzero;fill:#677bc6;fill-opacity:1" d="m.371 124.367 47.25-29.793-15.598-43.66L.371 124.367"/><path style="fill:none;stroke-width:7.06;stroke-linecap:round;stroke-linejoin:round;stroke:#231f20;stroke-opacity:1;stroke-miterlimit:10" d="m3.53 644.836 472.724 298.071-156.05 436.81Zm0 0" transform="matrix(.09995 0 0 -.09995 .018 188.82)"/></g><g clip-path="url(#n)"><path style="stroke:none;fill-rule:nonzero;fill:#956da6;fill-opacity:1" d="m.371 124.367 47.684 64.102 49.605-25.887"/></g><g clip-path="url(#o)"><path style="fill:none;stroke-width:7.06;stroke-linecap:round;stroke-linejoin:round;stroke:#231f20;stroke-opacity:1;stroke-miterlimit:10" d="M3.53 644.836 480.591 3.515l496.291 258.99" transform="matrix(.09995 0 0 -.09995 .018 188.82)"/></g><g clip-path="url(#p)"><path style="stroke:none;fill-rule:nonzero;fill:#956da6;fill-opacity:1" d="M97.66 162.582 47.621 94.574.371 124.367"/></g><g clip-path="url(#q)"><path style="fill:none;stroke-width:7.06;stroke-linecap:round;stroke-linejoin:round;stroke:#231f20;stroke-opacity:1;stroke-miterlimit:10" d="M976.883 262.505 476.254 942.907 3.53 644.836" transform="matrix(.09995 0 0 -.09995 .018 188.82)"/></g><g clip-path="url(#r)"><path style="fill-rule:nonzero;fill:#bbb5d7;fill-opacity:1;stroke-width:7.06;stroke-linecap:round;stroke-linejoin:round;stroke:#231f20;stroke-opacity:1;stroke-miterlimit:10" d="m2025.899 1263.177-419.692 622.406-701.975-234.956" transform="matrix(.09995 0 0 -.09995 .018 188.82)"/></g><path style="stroke:none;fill-rule:nonzero;fill:#c693a6;fill-opacity:1" d="m97.66 162.582 76.91-22.629-43.242-50.933-33.668 73.562"/><path style="fill:none;stroke-width:7.06;stroke-linecap:round;stroke-linejoin:round;stroke:#231f20;stroke-opacity:1;stroke-miterlimit:10" d="m976.883 262.505 769.468 226.397-432.628 509.579Zm0 0" transform="matrix(.09995 0 0 -.09995 .018 188.82)"/><g clip-path="url(#s)"><path style="stroke:none;fill-rule:nonzero;fill:#cc9dab;fill-opacity:1" d="M202.512 62.563 131.328 89.02l43.242 50.933 27.942-77.39"/></g><g clip-path="url(#t)"><path style="fill:none;stroke-width:7.06;stroke-linecap:round;stroke-linejoin:round;stroke:#231f20;stroke-opacity:1;stroke-miterlimit:10" d="M2025.899 1263.177 1313.723 998.48l432.628-509.579Zm0 0" transform="matrix(.09995 0 0 -.09995 .018 188.82)"/></g><path style="stroke:none;fill-rule:nonzero;fill:#ab9fd1;fill-opacity:1" d="m47.621 94.574 83.707-5.554-40.93-65.184-42.777 70.738"/><path style="fill:none;stroke-width:7.06;stroke-linecap:round;stroke-linejoin:round;stroke:#231f20;stroke-opacity:1;stroke-miterlimit:10" d="m476.254 942.907 837.47 55.574-409.492 652.146Zm0 0" transform="matrix(.09995 0 0 -.09995 .018 188.82)"/><g clip-path="url(#u)"><path style="fill-rule:nonzero;fill:#bbb5d7;fill-opacity:1;stroke-width:7.06;stroke-linecap:round;stroke-linejoin:round;stroke:#231f20;stroke-opacity:1;stroke-miterlimit:10" d="m904.232 1650.627 409.491-652.146 712.176 264.696" transform="matrix(.09995 0 0 -.09995 .018 188.82)"/></g><path style="stroke:none;fill-rule:nonzero;fill:#ae8cb8;fill-opacity:1" d="m97.66 162.582 33.668-73.562-83.707 5.554 50.04 68.008"/><path style="fill:none;stroke-width:7.06;stroke-linecap:round;stroke-linejoin:round;stroke:#231f20;stroke-opacity:1;stroke-miterlimit:10" d="m976.883 262.505 336.84 735.976-837.469-55.574Zm0 0" transform="matrix(.09995 0 0 -.09995 .018 188.82)"/></svg>