<svg xmlns="http://www.w3.org/2000/svg" width="239.933" height="242.027" viewBox="0 0 179.95 181.52" version="1.2"><defs><clipPath id="a"><path d="M.21 27H71v49H.21Zm0 0"/></clipPath><clipPath id="b"><path d="M.21 65H71v48H.21Zm0 0"/></clipPath><clipPath id="c"><path d="M33 111h49v70.043H33Zm0 0"/></clipPath><clipPath id="d"><path d="M61 149h65v32.043H61Zm0 0"/></clipPath><clipPath id="e"><path d="M.21 75H34v66H.21Zm0 0"/></clipPath><clipPath id="f"><path d="M8 111h54v70.043H8Zm0 0"/></clipPath><clipPath id="g"><path d="M151 60h28.688v62H151Zm0 0"/></clipPath><clipPath id="h"><path d="M144 19h35.688v59H144Zm0 0"/></clipPath><clipPath id="i"><path d="M144 19h35.688v60H144Zm0 0"/></clipPath><clipPath id="j"><path d="M161 77h18.688v67H161Zm0 0"/></clipPath><clipPath id="k"><path d="M.21 27H42v49H.21Zm0 0"/></clipPath><clipPath id="l"><path d="M61 171h65v10.043H61Zm0 0"/></clipPath><clipPath id="m"><path d="M.21 75H9v66H.21Zm0 0"/></clipPath><clipPath id="n"><path d="M.21 75H10v66H.21Zm0 0"/></clipPath><clipPath id="o"><path d="M.21 30H20v68H.21Zm0 0"/></clipPath><clipPath id="p"><path d="M.21 30H21v68H.21Zm0 0"/></clipPath><clipPath id="q"><path d="M36 159h71v22.043H36Zm0 0"/></clipPath><clipPath id="r"><path d="M8 139h54v42.043H8Zm0 0"/></clipPath><clipPath id="s"><path d="M.21 97H37v63H.21Zm0 0"/></clipPath><clipPath id="t"><path d="M.21 96H37v65H.21Zm0 0"/></clipPath><clipPath id="u"><path d="M114 19h65.688v59H114Zm0 0"/></clipPath><clipPath id="v"><path d="M114 19h65.688v60H114Zm0 0"/></clipPath><clipPath id="w"><path d="M152 77h27.688v67H152Zm0 0"/></clipPath><clipPath id="x"><path d="M114 26h65.688v65H114Zm0 0"/></clipPath><clipPath id="y"><path d="M114 26h65.688v66H114Zm0 0"/></clipPath><clipPath id="z"><path d="M.21 30H51v68H.21Zm0 0"/></clipPath><clipPath id="A"><path d="M.21 97H89v63H.21Zm0 0"/></clipPath><clipPath id="B"><path d="M.21 96H90v65H.21Zm0 0"/></clipPath><clipPath id="C"><path d="M.21 60H89v68H.21Zm0 0"/></clipPath><clipPath id="D"><path d="M.21 60H90v68H.21Zm0 0"/></clipPath></defs><path style="fill-rule:nonzero;fill:#949ed4;fill-opacity:1;stroke-width:5.90001;stroke-linecap:round;stroke-linejoin:round;stroke:#231f20;stroke-opacity:1;stroke-miterlimit:10" d="m816.867 318.244 352.688 468.776 451.268-191.247" transform="matrix(.09974 0 0 -.09974 .212 181.041)"/><path style="stroke:none;fill-rule:nonzero;fill:#887abe;fill-opacity:1" d="m116.86 102.547 34.89-42.117 10.117 61.191-45.008-19.074"/><path style="fill:none;stroke-width:5.90001;stroke-linecap:round;stroke-linejoin:round;stroke:#231f20;stroke-opacity:1;stroke-miterlimit:10" d="m1169.555 787.02 349.829 422.285 101.439-613.532Zm0 0" transform="matrix(.09974 0 0 -.09974 .212 181.041)"/><path style="fill-rule:nonzero;fill:#a67dad;fill-opacity:1;stroke-width:5.90001;stroke-linecap:round;stroke-linejoin:round;stroke:#231f20;stroke-opacity:1;stroke-miterlimit:10" d="m1025.777 1593.326 493.607-384.02-349.83-422.286" transform="matrix(.09974 0 0 -.09974 .212 181.041)"/><path style="fill-rule:nonzero;fill:#a67dad;fill-opacity:1;stroke-width:5.90001;stroke-linecap:round;stroke-linejoin:round;stroke:#231f20;stroke-opacity:1;stroke-miterlimit:10" d="m1169.555 787.02-470.93 365.73 327.152 440.576" transform="matrix(.09974 0 0 -.09974 .212 181.041)"/><path style="fill-rule:nonzero;fill:#bda6c9;fill-opacity:1;stroke-width:5.90001;stroke-linecap:round;stroke-linejoin:round;stroke:#231f20;stroke-opacity:1;stroke-miterlimit:10" d="m698.625 1152.75 470.93-365.73-352.688-468.776" transform="matrix(.09974 0 0 -.09974 .212 181.041)"/><path style="stroke:none;fill-rule:nonzero;fill:#be7f93;fill-opacity:1" d="M69.89 66.07 40.778 27.547l61.743-5.418L69.89 66.07"/><path style="fill:none;stroke-width:5.90001;stroke-linecap:round;stroke-linejoin:round;stroke:#231f20;stroke-opacity:1;stroke-miterlimit:10" d="m698.625 1152.75-291.903 386.253 619.055 54.323Zm0 0" transform="matrix(.09974 0 0 -.09974 .212 181.041)"/><path style="stroke:none;fill-rule:nonzero;fill:#d9a4a5;fill-opacity:1" d="m1.05 75.664 39.727-48.117L69.891 66.07"/><g clip-path="url(#a)"><path style="fill:none;stroke-width:5.90001;stroke-linecap:round;stroke-linejoin:round;stroke:#231f20;stroke-opacity:1;stroke-miterlimit:10" d="m8.406 1056.559 398.316 482.444 291.903-386.253" transform="matrix(.09974 0 0 -.09974 .212 181.041)"/></g><path style="stroke:none;fill-rule:nonzero;fill:#d9a4a5;fill-opacity:1" d="M69.89 66.07 33.517 111.97 1.05 75.664"/><g clip-path="url(#b)"><path style="fill:none;stroke-width:5.90001;stroke-linecap:round;stroke-linejoin:round;stroke:#231f20;stroke-opacity:1;stroke-miterlimit:10" d="M698.625 1152.75 333.913 692.552 8.406 1056.559" transform="matrix(.09974 0 0 -.09974 .212 181.041)"/></g><path style="fill-rule:nonzero;fill:#bda6c9;fill-opacity:1;stroke-width:5.90001;stroke-linecap:round;stroke-linejoin:round;stroke:#231f20;stroke-opacity:1;stroke-miterlimit:10" d="M816.867 318.244 333.913 692.552l364.712 460.198" transform="matrix(.09974 0 0 -.09974 .212 181.041)"/><path style="stroke:none;fill-rule:nonzero;fill:#d2dae2;fill-opacity:1" d="M33.516 111.969 81.684 149.3l-20.246 31.445"/><g clip-path="url(#c)"><path style="fill:none;stroke-width:5.90001;stroke-linecap:round;stroke-linejoin:round;stroke:#231f20;stroke-opacity:1;stroke-miterlimit:10" d="m333.913 692.552 482.954-374.308L613.87 2.96" transform="matrix(.09974 0 0 -.09974 .212 181.041)"/></g><path style="stroke:none;fill-rule:nonzero;fill:#a0c9ed;fill-opacity:1" d="m81.684 149.3 43.773 22.81-64.02 8.636 20.247-31.445"/><g clip-path="url(#d)"><path style="fill:none;stroke-width:5.90001;stroke-linecap:round;stroke-linejoin:round;stroke:#231f20;stroke-opacity:1;stroke-miterlimit:10" d="m816.867 318.244 438.892-228.689L613.87 2.96Zm0 0" transform="matrix(.09974 0 0 -.09974 .212 181.041)"/></g><path style="fill-rule:nonzero;fill:#949ed4;fill-opacity:1;stroke-width:5.90001;stroke-linecap:round;stroke-linejoin:round;stroke:#231f20;stroke-opacity:1;stroke-miterlimit:10" d="M1620.823 595.773 1255.759 89.555l-438.892 228.69" transform="matrix(.09974 0 0 -.09974 .212 181.041)"/><path style="stroke:none;fill-rule:nonzero;fill:#ecd2b7;fill-opacity:1" d="M33.516 111.969 8.89 140.074l-7.84-64.41 32.465 36.305"/><g clip-path="url(#e)"><path style="fill:none;stroke-width:5.90001;stroke-linecap:round;stroke-linejoin:round;stroke:#231f20;stroke-opacity:1;stroke-miterlimit:10" d="m333.913 692.552-246.9-281.798-78.607 645.805Zm0 0" transform="matrix(.09974 0 0 -.09974 .212 181.041)"/></g><path style="stroke:none;fill-rule:nonzero;fill:#d2dae2;fill-opacity:1" d="M61.438 180.746 8.89 140.074l24.625-28.105"/><g clip-path="url(#f)"><path style="fill:none;stroke-width:5.90001;stroke-linecap:round;stroke-linejoin:round;stroke:#231f20;stroke-opacity:1;stroke-miterlimit:10" d="M613.87 2.96 87.012 410.754l246.901 281.798" transform="matrix(.09974 0 0 -.09974 .212 181.041)"/></g><g clip-path="url(#g)"><path style="stroke:none;fill-rule:nonzero;fill:#4447a0;fill-opacity:1" d="m151.75 60.43 27.648 17.515-17.53 43.676L151.75 60.43"/><path style="fill:none;stroke-width:5.90001;stroke-linecap:round;stroke-linejoin:round;stroke:#231f20;stroke-opacity:1;stroke-miterlimit:10" d="m1519.384 1209.305 277.215-175.62-175.776-437.912Zm0 0" transform="matrix(.09974 0 0 -.09974 .212 181.041)"/></g><g clip-path="url(#h)"><path style="stroke:none;fill-rule:nonzero;fill:#26244f;fill-opacity:1" d="m151.75 60.43-7.371-40.489 35.02 58.004L151.75 60.43"/></g><g clip-path="url(#i)"><path style="fill:none;stroke-width:5.90001;stroke-linecap:round;stroke-linejoin:round;stroke:#231f20;stroke-opacity:1;stroke-miterlimit:10" d="m1519.384 1209.305-73.906 405.954 351.121-581.573Zm0 0" transform="matrix(.09974 0 0 -.09974 .212 181.041)"/></g><path style="stroke:none;fill-rule:nonzero;fill:#773370;fill-opacity:1" d="m102.52 22.129 41.859-2.188 7.371 40.489-49.23-38.301"/><path style="fill:none;stroke-width:5.90001;stroke-linecap:round;stroke-linejoin:round;stroke:#231f20;stroke-opacity:1;stroke-miterlimit:10" d="m1025.777 1593.326 419.7 21.933 73.907-405.954Zm0 0" transform="matrix(.09974 0 0 -.09974 .212 181.041)"/><path style="stroke:none;fill-rule:nonzero;fill:#621d1b;fill-opacity:1" d="M102.52 22.129 79.598.297l64.78 19.644-41.858 2.188"/><path style="fill:none;stroke-width:5.90001;stroke-linecap:round;stroke-linejoin:round;stroke:#231f20;stroke-opacity:1;stroke-miterlimit:10" d="m1025.777 1593.326-229.825 218.897 649.526-196.964Zm0 0" transform="matrix(.09974 0 0 -.09974 .212 181.041)"/><path style="stroke:none;fill-rule:nonzero;fill:#aa4849;fill-opacity:1" d="M40.777 27.547 79.597.297l22.923 21.832-61.743 5.418"/><path style="fill:none;stroke-width:5.90001;stroke-linecap:round;stroke-linejoin:round;stroke:#231f20;stroke-opacity:1;stroke-miterlimit:10" d="m406.722 1539.003 389.23 273.22 229.825-218.897Zm0 0" transform="matrix(.09974 0 0 -.09974 .212 181.041)"/><path style="stroke:none;fill-rule:nonzero;fill:#216dbf;fill-opacity:1" d="m161.867 121.621 2.922 21.875-39.332 28.613 36.41-50.488"/><path style="fill:none;stroke-width:5.90001;stroke-linecap:round;stroke-linejoin:round;stroke:#231f20;stroke-opacity:1;stroke-miterlimit:10" d="m1620.823 595.773 29.296-219.328-394.36-286.89Zm0 0" transform="matrix(.09974 0 0 -.09974 .212 181.041)"/><g clip-path="url(#j)"><path style="stroke:none;fill-rule:nonzero;fill:#2f348b;fill-opacity:1" d="m161.867 121.621 17.531-43.676-14.609 65.551-2.922-21.875"/><path style="fill:none;stroke-width:5.90001;stroke-linecap:round;stroke-linejoin:round;stroke:#231f20;stroke-opacity:1;stroke-miterlimit:10" d="m1620.823 595.773 175.776 437.913-146.48-657.241Zm0 0" transform="matrix(.09974 0 0 -.09974 .212 181.041)"/></g><path style="stroke:none;fill-rule:nonzero;fill:#982824;fill-opacity:1" d="M40.777 27.547 19.81 30.926 79.598.296l-38.82 27.25"/><path style="fill:none;stroke-width:5.90001;stroke-linecap:round;stroke-linejoin:round;stroke:#231f20;stroke-opacity:1;stroke-miterlimit:10" d="m406.722 1539.003-210.241-33.879 599.471 307.1Zm0 0" transform="matrix(.09974 0 0 -.09974 .212 181.041)"/><path style="stroke:none;fill-rule:nonzero;fill:#dd7f2e;fill-opacity:1" d="M1.05 75.664 19.81 30.926l20.968-3.38L1.051 75.665"/><g clip-path="url(#k)"><path style="fill:none;stroke-width:5.90001;stroke-linecap:round;stroke-linejoin:round;stroke:#231f20;stroke-opacity:1;stroke-miterlimit:10" d="m8.406 1056.559 188.075 448.565 210.241 33.879Zm0 0" transform="matrix(.09974 0 0 -.09974 .212 181.041)"/></g><path style="stroke:none;fill-rule:nonzero;fill:#21a9e7;fill-opacity:1" d="m125.457 172.11-19.566 6.714-44.454 1.922 64.02-8.637"/><g clip-path="url(#l)"><path style="fill:none;stroke-width:5.90001;stroke-linecap:round;stroke-linejoin:round;stroke:#231f20;stroke-opacity:1;stroke-miterlimit:10" d="M1255.759 89.555 1059.577 22.23 613.87 2.96Zm0 0" transform="matrix(.09974 0 0 -.09974 .212 181.041)"/></g><path style="stroke:none;fill-rule:nonzero;fill:#902623;fill-opacity:1" d="m125.457 172.11 39.332-28.614-58.898 35.328 19.566-6.715"/><path style="fill:none;stroke-width:5.90001;stroke-linecap:round;stroke-linejoin:round;stroke:#231f20;stroke-opacity:1;stroke-miterlimit:10" d="m1255.759 89.555 394.36 286.89-590.542-354.216Zm0 0" transform="matrix(.09974 0 0 -.09974 .212 181.041)"/><g clip-path="url(#m)"><path style="stroke:none;fill-rule:nonzero;fill:#cebe3f;fill-opacity:1" d="M8.89 140.074.509 97.172l.543-21.508 7.84 64.41"/></g><g clip-path="url(#n)"><path style="fill:none;stroke-width:5.90001;stroke-linecap:round;stroke-linejoin:round;stroke:#231f20;stroke-opacity:1;stroke-miterlimit:10" d="M87.012 410.754 2.962 840.912l5.444 215.647Zm0 0" transform="matrix(.09974 0 0 -.09974 .212 181.041)"/></g><g clip-path="url(#o)"><path style="stroke:none;fill-rule:nonzero;fill:#313383;fill-opacity:1" d="M1.05 75.664.509 97.172l19.3-66.246L1.052 75.664"/></g><g clip-path="url(#p)"><path style="fill:none;stroke-width:5.90001;stroke-linecap:round;stroke-linejoin:round;stroke:#231f20;stroke-opacity:1;stroke-miterlimit:10" d="M8.406 1056.559 2.962 840.912l193.519 664.212Zm0 0" transform="matrix(.09974 0 0 -.09974 .212 181.041)"/></g><path style="stroke:none;fill-rule:nonzero;fill:#5d1c1a;fill-opacity:1" d="m61.438 180.746 44.453-1.922-69.485-18.941 25.032 20.863"/><g clip-path="url(#q)"><path style="fill:none;stroke-width:5.90001;stroke-linecap:round;stroke-linejoin:round;stroke:#231f20;stroke-opacity:1;stroke-miterlimit:10" d="m613.87 2.96 445.707 19.27-696.681 189.914Zm0 0" transform="matrix(.09974 0 0 -.09974 .212 181.041)"/></g><path style="stroke:none;fill-rule:nonzero;fill:#231f20;fill-opacity:1" d="m61.438 180.746-25.032-20.863-27.515-19.809 52.547 40.672"/><g clip-path="url(#r)"><path style="fill:none;stroke-width:5.90001;stroke-linecap:round;stroke-linejoin:round;stroke:#231f20;stroke-opacity:1;stroke-miterlimit:10" d="M613.87 2.96 362.896 212.144 87.012 410.754Zm0 0" transform="matrix(.09974 0 0 -.09974 .212 181.041)"/></g><g clip-path="url(#s)"><path style="stroke:none;fill-rule:nonzero;fill:#1f2245;fill-opacity:1" d="m8.89 140.074 27.516 19.809L.508 97.172l8.383 42.902"/></g><g clip-path="url(#t)"><path style="fill:none;stroke-width:5.90001;stroke-linecap:round;stroke-linejoin:round;stroke:#231f20;stroke-opacity:1;stroke-miterlimit:10" d="m87.012 410.754 275.884-198.61L2.962 840.912Zm0 0" transform="matrix(.09974 0 0 -.09974 .212 181.041)"/></g><path style="stroke:none;fill-rule:nonzero;fill:#a1e0f2;fill-opacity:1" d="m114.39 26.785 29.989-6.844L79.598.297l34.793 26.488"/><path style="fill:none;stroke-width:5.90001;stroke-linecap:round;stroke-linejoin:round;stroke:#231f20;stroke-opacity:1;stroke-miterlimit:10" d="m1144.802 1546.64 300.676 68.619-649.526 196.964Zm0 0" transform="matrix(.09974 0 0 -.09974 .212 181.041)"/><g clip-path="url(#u)"><path style="stroke:none;fill-rule:nonzero;fill:#e8e9d1;fill-opacity:1" d="m179.398 77.945-35.02-58.004-29.987 6.844"/></g><g clip-path="url(#v)"><path style="fill:none;stroke-width:5.90001;stroke-linecap:round;stroke-linejoin:round;stroke:#231f20;stroke-opacity:1;stroke-miterlimit:10" d="m1796.599 1033.686-351.121 581.573-300.676-68.619" transform="matrix(.09974 0 0 -.09974 .212 181.041)"/></g><g clip-path="url(#w)"><path style="stroke:none;fill-rule:nonzero;fill:#f2c287;fill-opacity:1" d="m152.629 90.723 12.16 52.773 14.61-65.55-26.77 12.777"/><path style="fill:none;stroke-width:5.90001;stroke-linecap:round;stroke-linejoin:round;stroke:#231f20;stroke-opacity:1;stroke-miterlimit:10" d="m1528.196 905.574 121.923-529.13 146.48 657.242Zm0 0" transform="matrix(.09974 0 0 -.09974 .212 181.041)"/></g><g clip-path="url(#x)"><path style="stroke:none;fill-rule:nonzero;fill:#e8e9d1;fill-opacity:1" d="m114.39 26.785 38.239 63.938 26.77-12.778"/></g><g clip-path="url(#y)"><path style="fill:none;stroke-width:5.90001;stroke-linecap:round;stroke-linejoin:round;stroke:#231f20;stroke-opacity:1;stroke-miterlimit:10" d="m1144.802 1546.64 383.394-641.066 268.403 128.112" transform="matrix(.09974 0 0 -.09974 .212 181.041)"/></g><path style="fill-rule:nonzero;fill:#8db6e4;fill-opacity:1;stroke-width:5.90001;stroke-linecap:round;stroke-linejoin:round;stroke:#231f20;stroke-opacity:1;stroke-miterlimit:10" d="m795.952 1812.223-599.471-307.099 305.297-300.95M501.778 1204.174l643.024 342.466-348.85 265.583" transform="matrix(.09974 0 0 -.09974 .212 181.041)"/><path style="fill-rule:nonzero;fill:#d29291;fill-opacity:1;stroke-width:5.90001;stroke-linecap:round;stroke-linejoin:round;stroke:#231f20;stroke-opacity:1;stroke-miterlimit:10" d="m1059.577 22.23 590.542 354.215-121.923 529.13" transform="matrix(.09974 0 0 -.09974 .212 181.041)"/><g clip-path="url(#z)"><path style="stroke:none;fill-rule:nonzero;fill:#6a7cc7;fill-opacity:1" d="m50.258 60.941-30.45-30.015-19.3 66.246 49.75-36.23"/><path style="fill:none;stroke-width:5.90001;stroke-linecap:round;stroke-linejoin:round;stroke:#231f20;stroke-opacity:1;stroke-miterlimit:10" d="m501.778 1204.174-305.297 300.95L2.962 840.912Zm0 0" transform="matrix(.09974 0 0 -.09974 .212 181.041)"/></g><path style="fill-rule:nonzero;fill:#d29291;fill-opacity:1;stroke-width:5.90001;stroke-linecap:round;stroke-linejoin:round;stroke:#231f20;stroke-opacity:1;stroke-miterlimit:10" d="m1528.196 905.574-638.677-365.22 170.058-518.125" transform="matrix(.09974 0 0 -.09974 .212 181.041)"/><path style="stroke:none;fill-rule:nonzero;fill:#a86587;fill-opacity:1" d="m88.93 127.148-52.524 32.735 69.485 18.941-16.961-51.676"/><path style="fill:none;stroke-width:5.90001;stroke-linecap:round;stroke-linejoin:round;stroke:#231f20;stroke-opacity:1;stroke-miterlimit:10" d="M889.52 540.353 362.895 212.144l696.681-189.915Zm0 0" transform="matrix(.09974 0 0 -.09974 .212 181.041)"/><g clip-path="url(#A)"><path style="stroke:none;fill-rule:nonzero;fill:#9276b3;fill-opacity:1" d="m.508 97.172 35.898 62.71 52.524-32.734"/></g><g clip-path="url(#B)"><path style="fill:none;stroke-width:5.90001;stroke-linecap:round;stroke-linejoin:round;stroke:#231f20;stroke-opacity:1;stroke-miterlimit:10" d="m2.962 840.912 359.934-628.768 526.623 328.21" transform="matrix(.09974 0 0 -.09974 .212 181.041)"/></g><g clip-path="url(#C)"><path style="stroke:none;fill-rule:nonzero;fill:#9276b3;fill-opacity:1" d="M88.93 127.148 50.258 60.941.508 97.171"/></g><g clip-path="url(#D)"><path style="fill:none;stroke-width:5.90001;stroke-linecap:round;stroke-linejoin:round;stroke:#231f20;stroke-opacity:1;stroke-miterlimit:10" d="m889.52 540.353-387.742 663.821L2.962 840.912" transform="matrix(.09974 0 0 -.09974 .212 181.041)"/></g><path style="fill-rule:nonzero;fill:#beaaca;fill-opacity:1;stroke-width:5.90001;stroke-linecap:round;stroke-linejoin:round;stroke:#231f20;stroke-opacity:1;stroke-miterlimit:10" d="m1528.196 905.574-383.394 641.066-643.024-342.466" transform="matrix(.09974 0 0 -.09974 .212 181.041)"/><path style="fill-rule:nonzero;fill:#beaaca;fill-opacity:1;stroke-width:5.90001;stroke-linecap:round;stroke-linejoin:round;stroke:#231f20;stroke-opacity:1;stroke-miterlimit:10" d="m501.778 1204.174 387.741-663.82 638.677 365.22" transform="matrix(.09974 0 0 -.09974 .212 181.041)"/></svg>