<svg xmlns="http://www.w3.org/2000/svg" width="242.973" height="255.973" viewBox="0 0 182.23 191.98" version="1.2"><defs><clipPath id="a"><path d="M105 65h76.465v85H105Zm0 0"/></clipPath><clipPath id="b"><path d="M104 64h77.465v86H104Zm0 0"/></clipPath><clipPath id="c"><path d="M115 100h66.465v75H115Zm0 0"/></clipPath><clipPath id="d"><path d="M114 100h67.465v75H114Zm0 0"/></clipPath><clipPath id="e"><path d="M72 .395h89V66H72Zm0 0"/></clipPath><clipPath id="f"><path d="M71 .395h90V66H71Zm0 0"/></clipPath><clipPath id="g"><path d="M105 20h76.465v81H105Zm0 0"/></clipPath><clipPath id="h"><path d="M104 19h77.465v83H104Zm0 0"/></clipPath><clipPath id="i"><path d="M26 .395h80V77H26Zm0 0"/></clipPath><clipPath id="j"><path d="M25 .395h81V77H25Zm0 0"/></clipPath><clipPath id="k"><path d="M158 91h23.465v84H158Zm0 0"/></clipPath><clipPath id="l"><path d="M157 91h24.465v84H157Zm0 0"/></clipPath><clipPath id="m"><path d="M160 20h21.465v81H160Zm0 0"/></clipPath><clipPath id="n"><path d="M160 19h21.465v83H160Zm0 0"/></clipPath><clipPath id="o"><path d="M37 163h122v28.566H37Zm0 0"/></clipPath><clipPath id="p"><path d="M36 163h123v28.566H36Zm0 0"/></clipPath><clipPath id="q"><path d="M0 130h75v61.566H0Zm0 0"/></clipPath><clipPath id="r"><path d="M0 130h76v61.566H0Zm0 0"/></clipPath><clipPath id="s"><path d="M19 .395h54V77H19Zm0 0"/></clipPath><clipPath id="t"><path d="M19 .395h96V37H19Zm0 0"/></clipPath><clipPath id="u"><path d="M19 .395h96V38H19Zm0 0"/></clipPath><clipPath id="v"><path d="M72 .395h89V21H72Zm0 0"/></clipPath><clipPath id="w"><path d="M71 .395h90V21H71Zm0 0"/></clipPath><clipPath id="x"><path d="M74 105h85v86.566H74Zm0 0"/></clipPath><clipPath id="y"><path d="M0 105h82v86.566H0Zm0 0"/></clipPath></defs><g clip-path="url(#a)"><path style="stroke:none;fill-rule:nonzero;fill:#a98ebf;fill-opacity:1" d="m181.137 100.848-65.852 48.293-10.144-83.985 75.996 35.692"/></g><g clip-path="url(#b)"><path style="fill:none;stroke-width:6.62001;stroke-linecap:round;stroke-linejoin:round;stroke:#231f20;stroke-opacity:1;stroke-miterlimit:10" d="m1819.021 911.018-661.298-484.97-101.874 843.392Zm0 0" transform="matrix(.09958 0 0 -.09958 0 191.566)"/></g><path style="fill-rule:nonzero;fill:#c5a6be;fill-opacity:1;stroke-width:6.62001;stroke-linecap:round;stroke-linejoin:round;stroke:#231f20;stroke-opacity:1;stroke-miterlimit:10" d="m1055.849 1269.44 101.874-843.392-783.218-143.926" transform="matrix(.09958 0 0 -.09958 0 191.566)"/><g clip-path="url(#c)"><path style="stroke:none;fill-rule:nonzero;fill:#8592d2;fill-opacity:1" d="m158.18 174.43-42.895-25.29 65.852-48.292-22.957 73.582"/></g><g clip-path="url(#d)"><path style="fill:none;stroke-width:6.62001;stroke-linecap:round;stroke-linejoin:round;stroke:#231f20;stroke-opacity:1;stroke-miterlimit:10" d="m1588.48 172.089-430.757 253.959 661.298 484.97Zm0 0" transform="matrix(.09958 0 0 -.09958 0 191.566)"/></g><path style="fill-rule:nonzero;fill:#98cdf0;fill-opacity:1;stroke-width:6.62001;stroke-linecap:round;stroke-linejoin:round;stroke:#231f20;stroke-opacity:1;stroke-miterlimit:10" d="m374.505 282.122 783.218 143.926 430.758-253.96" transform="matrix(.09958 0 0 -.09958 0 191.566)"/><g clip-path="url(#e)"><path style="stroke:none;fill-rule:nonzero;fill:#ab759d;fill-opacity:1" d="M160.594 20.07 105.14 65.156 72.223.726l88.37 19.344"/></g><g clip-path="url(#f)"><path style="fill:none;stroke-width:6.62001;stroke-linecap:round;stroke-linejoin:round;stroke:#231f20;stroke-opacity:1;stroke-miterlimit:10" d="M1612.723 1722.205 1055.85 1269.44l-330.57 647.02Zm0 0" transform="matrix(.09958 0 0 -.09958 0 191.566)"/></g><g clip-path="url(#g)"><path style="stroke:none;fill-rule:nonzero;fill:#a17aaf;fill-opacity:1" d="M181.137 100.848 105.14 65.156l55.453-45.086 20.543 80.778"/></g><g clip-path="url(#h)"><path style="fill:none;stroke-width:6.62001;stroke-linecap:round;stroke-linejoin:round;stroke:#231f20;stroke-opacity:1;stroke-miterlimit:10" d="m1819.021 911.018-763.172 358.422 556.874 452.765Zm0 0" transform="matrix(.09958 0 0 -.09958 0 191.566)"/></g><g clip-path="url(#i)"><path style="stroke:none;fill-rule:nonzero;fill:#c796a9;fill-opacity:1" d="m72.223.727 32.918 64.43-78.899 10.925L72.222.727"/></g><g clip-path="url(#j)"><path style="fill:none;stroke-width:6.62001;stroke-linecap:round;stroke-linejoin:round;stroke:#231f20;stroke-opacity:1;stroke-miterlimit:10" d="m725.278 1916.46 330.57-647.02-792.317-109.72Zm0 0" transform="matrix(.09958 0 0 -.09958 0 191.566)"/></g><path style="fill-rule:nonzero;fill:#c5a6be;fill-opacity:1;stroke-width:6.62001;stroke-linecap:round;stroke-linejoin:round;stroke:#231f20;stroke-opacity:1;stroke-miterlimit:10" d="m374.505 282.122-110.974 877.599 792.318 109.72" transform="matrix(.09958 0 0 -.09958 0 191.566)"/><g clip-path="url(#k)"><path style="stroke:none;fill-rule:nonzero;fill:#f2b356;fill-opacity:1" d="m168.18 91.918-10 82.512 22.957-73.582-12.957-8.93"/></g><g clip-path="url(#l)"><path style="fill:none;stroke-width:6.62001;stroke-linecap:round;stroke-linejoin:round;stroke:#231f20;stroke-opacity:1;stroke-miterlimit:10" d="M1688.903 1000.692 1588.481 172.09l230.54 738.93Zm0 0" transform="matrix(.09958 0 0 -.09958 0 191.566)"/></g><g clip-path="url(#m)"><path style="stroke:none;fill-rule:nonzero;fill:#eedd7c;fill-opacity:1" d="m168.18 91.918 12.957 8.93-20.543-80.778 7.586 71.848"/></g><g clip-path="url(#n)"><path style="fill:none;stroke-width:6.62001;stroke-linecap:round;stroke-linejoin:round;stroke:#231f20;stroke-opacity:1;stroke-miterlimit:10" d="m1688.903 1000.692 130.118-89.674-206.298 811.187Zm0 0" transform="matrix(.09958 0 0 -.09958 0 191.566)"/></g><path style="stroke:none;fill-rule:nonzero;fill:#edccae;fill-opacity:1" d="m26.242 76.082 11.051 87.39L.328 130.478l25.914-54.395"/><path style="fill:none;stroke-width:6.62001;stroke-linecap:round;stroke-linejoin:round;stroke:#231f20;stroke-opacity:1;stroke-miterlimit:10" d="m263.53 1159.72 110.975-877.598L3.295 613.477Zm0 0" transform="matrix(.09958 0 0 -.09958 0 191.566)"/><g clip-path="url(#o)"><path style="stroke:none;fill-rule:nonzero;fill:#98cdf0;fill-opacity:1" d="m158.18 174.43-83.297 16.804-37.59-27.761"/></g><g clip-path="url(#p)"><path style="fill:none;stroke-width:6.62001;stroke-linecap:round;stroke-linejoin:round;stroke:#231f20;stroke-opacity:1;stroke-miterlimit:10" d="M1588.48 172.089 751.993 3.332l-377.487 278.79" transform="matrix(.09958 0 0 -.09958 0 191.566)"/></g><g clip-path="url(#q)"><path style="stroke:none;fill-rule:nonzero;fill:#231f20;fill-opacity:1" d="m37.293 163.473 37.59 27.761L.328 130.477l36.965 32.996"/></g><g clip-path="url(#r)"><path style="fill:none;stroke-width:6.62001;stroke-linecap:round;stroke-linejoin:round;stroke:#231f20;stroke-opacity:1;stroke-miterlimit:10" d="M374.505 282.122 751.992 3.332 3.295 613.477Zm0 0" transform="matrix(.09958 0 0 -.09958 0 191.566)"/></g><g clip-path="url(#s)"><path style="stroke:none;fill-rule:nonzero;fill:#e49268;fill-opacity:1" d="m72.223.727-45.98 75.355-6.438-39.383L72.223.727"/><path style="fill:none;stroke-width:6.62001;stroke-linecap:round;stroke-linejoin:round;stroke:#231f20;stroke-opacity:1;stroke-miterlimit:10" d="m725.278 1916.46-461.747-756.74-64.647 395.493Zm0 0" transform="matrix(.09958 0 0 -.09958 0 191.566)"/></g><path style="stroke:none;fill-rule:nonzero;fill:#f4b25a;fill-opacity:1" d="M26.242 76.082.328 130.477l19.477-93.778 6.437 39.383"/><path style="fill:none;stroke-width:6.62001;stroke-linecap:round;stroke-linejoin:round;stroke:#231f20;stroke-opacity:1;stroke-miterlimit:10" d="M263.53 1159.72 3.296 613.478l195.589 941.736Zm0 0" transform="matrix(.09958 0 0 -.09958 0 191.566)"/><g clip-path="url(#t)"><path style="stroke:none;fill-rule:nonzero;fill:#71bae9;fill-opacity:1" d="M72.223.727 19.805 36.699l94.402-22.969L72.223.727"/></g><g clip-path="url(#u)"><path style="fill:none;stroke-width:6.62001;stroke-linecap:round;stroke-linejoin:round;stroke:#231f20;stroke-opacity:1;stroke-miterlimit:10" d="m725.278 1916.46-526.394-361.247 948.012 230.658Zm0 0" transform="matrix(.09958 0 0 -.09958 0 191.566)"/></g><g clip-path="url(#v)"><path style="stroke:none;fill-rule:nonzero;fill:#47c3e6;fill-opacity:1" d="M160.594 20.07 72.223.727l41.984 13.003 46.387 6.34"/></g><g clip-path="url(#w)"><path style="fill:none;stroke-width:6.62001;stroke-linecap:round;stroke-linejoin:round;stroke:#231f20;stroke-opacity:1;stroke-miterlimit:10" d="M1612.723 1722.205 725.278 1916.46l421.618-130.589Zm0 0" transform="matrix(.09958 0 0 -.09958 0 191.566)"/></g><path style="stroke:none;fill-rule:nonzero;fill:#e5dacc;fill-opacity:1" d="m114.207 13.73 53.973 78.188-7.586-71.848-46.387-6.34"/><path style="fill:none;stroke-width:6.62001;stroke-linecap:round;stroke-linejoin:round;stroke:#231f20;stroke-opacity:1;stroke-miterlimit:10" d="m1146.896 1785.871 542.007-785.179-76.18 721.513Zm0 0" transform="matrix(.09958 0 0 -.09958 0 191.566)"/><path style="fill-rule:nonzero;fill:#c996a6;fill-opacity:1;stroke-width:6.62001;stroke-linecap:round;stroke-linejoin:round;stroke:#231f20;stroke-opacity:1;stroke-miterlimit:10" d="m1588.48 172.089 100.423 828.603-873.01-137.806" transform="matrix(.09958 0 0 -.09958 0 191.566)"/><g clip-path="url(#x)"><path style="fill-rule:nonzero;fill:#c996a6;fill-opacity:1;stroke-width:6.62001;stroke-linecap:round;stroke-linejoin:round;stroke:#231f20;stroke-opacity:1;stroke-miterlimit:10" d="M815.894 862.886 751.992 3.332l836.489 168.757" transform="matrix(.09958 0 0 -.09958 0 191.566)"/></g><g clip-path="url(#y)"><path style="stroke:none;fill-rule:nonzero;fill:#a57eaf;fill-opacity:1" d="m.328 130.477 74.555 60.757 6.363-85.593L.328 130.477"/><path style="fill:none;stroke-width:6.62001;stroke-linecap:round;stroke-linejoin:round;stroke:#231f20;stroke-opacity:1;stroke-miterlimit:10" d="M3.295 613.477 751.992 3.332l63.902 859.554Zm0 0" transform="matrix(.09958 0 0 -.09958 0 191.566)"/></g><path style="stroke:none;fill-rule:nonzero;fill:#9f88bf;fill-opacity:1" d="m.328 130.477 80.918-24.836-61.441-68.942L.328 130.477"/><path style="fill:none;stroke-width:6.62001;stroke-linecap:round;stroke-linejoin:round;stroke:#231f20;stroke-opacity:1;stroke-miterlimit:10" d="m3.295 613.477 812.599 249.409-617.01 692.327Zm0 0" transform="matrix(.09958 0 0 -.09958 0 191.566)"/><path style="stroke:none;fill-rule:nonzero;fill:#c7a8bf;fill-opacity:1" d="m114.207 13.73-32.96 91.91 86.933-13.722-53.973-78.188"/><path style="fill:none;stroke-width:6.62001;stroke-linecap:round;stroke-linejoin:round;stroke:#231f20;stroke-opacity:1;stroke-miterlimit:10" d="M1146.896 1785.871 815.894 862.886l873.01 137.806Zm0 0" transform="matrix(.09958 0 0 -.09958 0 191.566)"/><path style="stroke:none;fill-rule:nonzero;fill:#ad9cce;fill-opacity:1" d="m19.805 36.7 61.441 68.94 32.961-91.91L19.805 36.7"/><path style="fill:none;stroke-width:6.62001;stroke-linecap:round;stroke-linejoin:round;stroke:#231f20;stroke-opacity:1;stroke-miterlimit:10" d="m198.884 1555.213 617.01-692.327 331.002 922.985Zm0 0" transform="matrix(.09958 0 0 -.09958 0 191.566)"/></svg>