<svg xmlns="http://www.w3.org/2000/svg" width="230.053" height="201.507" viewBox="0 0 172.54 151.13" version="1.2"><defs><clipPath id="a"><path d="M18 48h153.816v49H18Zm0 0"/></clipPath><clipPath id="b"><path d="M75 48h96.816v49H75Zm0 0"/></clipPath><clipPath id="c"><path d="M74 47h97.816v50H74Zm0 0"/></clipPath><clipPath id="d"><path d="M138 24h33.816v73H138Zm0 0"/></clipPath><clipPath id="e"><path d="M.266 40H19v76H.266Zm0 0"/></clipPath><clipPath id="f"><path d="M.266 40H20v76H.266Zm0 0"/></clipPath><clipPath id="g"><path d="M.266 6H42v65H.266Zm0 0"/></clipPath><clipPath id="h"><path d="M.266 6H42v66H.266Zm0 0"/></clipPath><clipPath id="i"><path d="M8 70h163.816v46H8Zm0 0"/></clipPath><clipPath id="j"><path d="M.266 6H106v92H.266Zm0 0"/></clipPath><clipPath id="k"><path d="M.266 6H42v35H.266Zm0 0"/></clipPath><clipPath id="l"><path d="M165 24h6.816v73H165Zm0 0"/></clipPath><clipPath id="m"><path d="M63 96h108.816v54.266H63Zm0 0"/></clipPath><clipPath id="n"><path d="M8 96h163.816v54.266H8Zm0 0"/></clipPath><clipPath id="o"><path d="M8 115h56v35.266H8Zm0 0"/></clipPath><clipPath id="p"><path d="M141 67h30.816v74H141Zm0 0"/></clipPath><clipPath id="q"><path d="M8 83h56v67.266H8Zm0 0"/></clipPath><clipPath id="r"><path d="M8 82h56v68.266H8Zm0 0"/></clipPath><clipPath id="s"><path d="M.266 40H25v76H.266Zm0 0"/></clipPath><clipPath id="t"><path d="M.266 40H106v58H.266Zm0 0"/></clipPath><clipPath id="u"><path d="M.266 40H107v58H.266Zm0 0"/></clipPath><clipPath id="v"><path d="M63 97h79v53.266H63Zm0 0"/></clipPath><clipPath id="w"><path d="M24 83h82v67.266H24Zm0 0"/></clipPath><clipPath id="x"><path d="M24 82h83v68.266H24Zm0 0"/></clipPath></defs><path style="fill-rule:nonzero;fill:#d38d94;fill-opacity:1;stroke-width:5;stroke-linecap:round;stroke-linejoin:round;stroke:#231f20;stroke-opacity:1;stroke-miterlimit:10" d="M409.733 1446.987 187.288 799.649l564.953 226.923Zm0 0" transform="matrix(.09943 0 0 -.09943 .265 150.265)"/><path style="fill-rule:nonzero;fill:#a1619c;fill-opacity:1;stroke-width:5;stroke-linecap:round;stroke-linejoin:round;stroke:#231f20;stroke-opacity:1;stroke-miterlimit:10" d="M1099.109 1508.786 752.24 1026.572l641.287-101.204Zm0 0" transform="matrix(.09943 0 0 -.09943 .265 150.265)"/><path style="fill-rule:nonzero;fill:#b96283;fill-opacity:1;stroke-width:5;stroke-linecap:round;stroke-linejoin:round;stroke:#231f20;stroke-opacity:1;stroke-miterlimit:10" d="m1099.109 1508.786-689.376-61.8 342.508-420.414Zm0 0" transform="matrix(.09943 0 0 -.09943 .265 150.265)"/><g clip-path="url(#a)"><path style="stroke:none;fill-rule:nonzero;fill:#aebce5;fill-opacity:1" d="M75.059 48.195 18.887 70.758 171.562 96.68"/></g><path style="fill:none;stroke-width:5;stroke-linecap:round;stroke-linejoin:round;stroke:#231f20;stroke-opacity:1;stroke-miterlimit:10" d="M752.24 1026.572 187.289 799.65" transform="matrix(.09943 0 0 -.09943 .265 150.265)"/><g clip-path="url(#b)"><path style="stroke:none;fill-rule:nonzero;fill:#aebce5;fill-opacity:1" d="M171.563 96.68 138.82 58.258 75.06 48.195"/></g><g clip-path="url(#c)"><path style="fill:none;stroke-width:5;stroke-linecap:round;stroke-linejoin:round;stroke:#231f20;stroke-opacity:1;stroke-miterlimit:10" d="m1722.835 538.938-329.307 386.43-641.287 101.204" transform="matrix(.09943 0 0 -.09943 .265 150.265)"/></g><g clip-path="url(#d)"><path style="fill-rule:nonzero;fill:#483196;fill-opacity:1;stroke-width:5;stroke-linecap:round;stroke-linejoin:round;stroke:#231f20;stroke-opacity:1;stroke-miterlimit:10" d="m1666.536 1265.833-273.008-340.465 329.307-386.43Zm0 0" transform="matrix(.09943 0 0 -.09943 .265 150.265)"/></g><path style="fill-rule:nonzero;fill:#703381;fill-opacity:1;stroke-width:5;stroke-linecap:round;stroke-linejoin:round;stroke:#231f20;stroke-opacity:1;stroke-miterlimit:10" d="m1666.536 1265.833-567.427 242.953 294.42-583.418Zm0 0" transform="matrix(.09943 0 0 -.09943 .265 150.265)"/><g clip-path="url(#e)"><path style="stroke:none;fill-rule:nonzero;fill:#fad566;fill-opacity:1" d="m.512 40.41 7.879 74.926 10.496-44.578Zm0 0"/></g><g clip-path="url(#f)"><path style="fill:none;stroke-width:5;stroke-linecap:round;stroke-linejoin:round;stroke:#231f20;stroke-opacity:1;stroke-miterlimit:10" d="m2.48 1104.872 79.243-753.57 105.565 448.347Zm0 0" transform="matrix(.09943 0 0 -.09943 .265 150.265)"/></g><g clip-path="url(#g)"><path style="stroke:none;fill-rule:nonzero;fill:#f1975d;fill-opacity:1" d="M41.004 6.395.512 40.41l18.375 30.348Zm0 0"/></g><g clip-path="url(#h)"><path style="fill:none;stroke-width:5;stroke-linecap:round;stroke-linejoin:round;stroke:#231f20;stroke-opacity:1;stroke-miterlimit:10" d="M409.733 1446.987 2.48 1104.872 187.288 799.65Zm0 0" transform="matrix(.09943 0 0 -.09943 .265 150.265)"/></g><g clip-path="url(#i)"><path style="stroke:none;fill-rule:nonzero;fill:#aebce5;fill-opacity:1" d="M18.887 70.758 8.39 115.336 171.563 96.68"/></g><path style="fill:none;stroke-width:5;stroke-linecap:round;stroke-linejoin:round;stroke:#231f20;stroke-opacity:1;stroke-miterlimit:10" d="M187.288 799.649 81.723 351.3" transform="matrix(.09943 0 0 -.09943 .265 150.265)"/><path style="stroke:none;fill-rule:nonzero;fill:#abc2e8;fill-opacity:1" d="m109.547.25 56.418 24.156-60.184 72.946"/><path style="fill:none;stroke-width:5;stroke-linecap:round;stroke-linejoin:round;stroke:#231f20;stroke-opacity:1;stroke-miterlimit:10" d="m1099.109 1508.786 567.427-242.953" transform="matrix(.09943 0 0 -.09943 .265 150.265)"/><path style="stroke:none;fill-rule:nonzero;fill:#abc2e8;fill-opacity:1" d="M41.004 6.395 109.547.25l-3.766 97.102"/><path style="fill:none;stroke-width:5;stroke-linecap:round;stroke-linejoin:round;stroke:#231f20;stroke-opacity:1;stroke-miterlimit:10" d="m409.733 1446.987 689.376 61.799" transform="matrix(.09943 0 0 -.09943 .265 150.265)"/><g clip-path="url(#j)"><path style="stroke:none;fill-rule:nonzero;fill:#abc2e8;fill-opacity:1" d="M.512 40.41 41.004 6.395l64.777 90.957"/></g><g clip-path="url(#k)"><path style="fill:none;stroke-width:5;stroke-linecap:round;stroke-linejoin:round;stroke:#231f20;stroke-opacity:1;stroke-miterlimit:10" d="m2.48 1104.872 407.253 342.115" transform="matrix(.09943 0 0 -.09943 .265 150.265)"/></g><g clip-path="url(#l)"><path style="fill-rule:nonzero;fill:#100f0d;fill-opacity:1;stroke-width:5;stroke-linecap:round;stroke-linejoin:round;stroke:#231f20;stroke-opacity:1;stroke-miterlimit:10" d="m1711.717 832.454-45.18 433.379 56.298-726.895Zm0 0" transform="matrix(.09943 0 0 -.09943 .265 150.265)"/></g><g clip-path="url(#m)"><path style="fill-rule:nonzero;fill:#aebce5;fill-opacity:1;stroke-width:5;stroke-linecap:round;stroke-linejoin:round;stroke:#231f20;stroke-opacity:1;stroke-miterlimit:10" d="m633.79 2.508 787.593 97.629 301.452 438.8" transform="matrix(.09943 0 0 -.09943 .265 150.265)"/></g><g clip-path="url(#n)"><path style="stroke:none;fill-rule:nonzero;fill:#aebce5;fill-opacity:1" d="m8.39 115.336 54.891 34.68L171.562 96.68"/></g><g clip-path="url(#o)"><path style="fill:none;stroke-width:5;stroke-linecap:round;stroke-linejoin:round;stroke:#231f20;stroke-opacity:1;stroke-miterlimit:10" d="M81.723 351.301 633.789 2.508" transform="matrix(.09943 0 0 -.09943 .265 150.265)"/></g><g clip-path="url(#p)"><path style="fill-rule:nonzero;fill:#e98116;fill-opacity:1;stroke-width:5;stroke-linecap:round;stroke-linejoin:round;stroke:#231f20;stroke-opacity:1;stroke-miterlimit:10" d="m1711.717 832.454 11.118-293.516-301.452-438.801Zm0 0" transform="matrix(.09943 0 0 -.09943 .265 150.265)"/></g><path style="fill-rule:nonzero;fill:#abc2e8;fill-opacity:1;stroke-width:5;stroke-linecap:round;stroke-linejoin:round;stroke:#231f20;stroke-opacity:1;stroke-miterlimit:10" d="m1666.536 1265.833 45.18-433.38-650.48-300.273" transform="matrix(.09943 0 0 -.09943 .265 150.265)"/><g clip-path="url(#q)"><path style="stroke:none;fill-rule:nonzero;fill:#431d54;fill-opacity:1" d="m24.324 83.168 38.957 66.848-54.89-34.68Zm0 0"/></g><g clip-path="url(#r)"><path style="fill:none;stroke-width:5;stroke-linecap:round;stroke-linejoin:round;stroke:#231f20;stroke-opacity:1;stroke-miterlimit:10" d="M241.976 674.833 633.79 2.508 81.723 351.3Zm0 0" transform="matrix(.09943 0 0 -.09943 .265 150.265)"/></g><g clip-path="url(#s)"><path style="fill-rule:nonzero;fill:#22255e;fill-opacity:1;stroke-width:5;stroke-linecap:round;stroke-linejoin:round;stroke:#231f20;stroke-opacity:1;stroke-miterlimit:10" d="m2.48 1104.872 239.496-430.04-160.253-323.53Zm0 0" transform="matrix(.09943 0 0 -.09943 .265 150.265)"/></g><g clip-path="url(#t)"><path style="stroke:none;fill-rule:nonzero;fill:#abc2e8;fill-opacity:1" d="M105.781 97.352 24.324 83.168.512 40.41"/></g><g clip-path="url(#u)"><path style="fill:none;stroke-width:5;stroke-linecap:round;stroke-linejoin:round;stroke:#231f20;stroke-opacity:1;stroke-miterlimit:10" d="m1061.236 532.18-819.26 142.653L2.48 1104.873" transform="matrix(.09943 0 0 -.09943 .265 150.265)"/></g><g clip-path="url(#v)"><path style="fill-rule:nonzero;fill:#b85269;fill-opacity:1;stroke-width:5;stroke-linecap:round;stroke-linejoin:round;stroke:#231f20;stroke-opacity:1;stroke-miterlimit:10" d="m1061.236 532.18 360.147-432.043-787.594-97.63Zm0 0" transform="matrix(.09943 0 0 -.09943 .265 150.265)"/></g><path style="fill-rule:nonzero;fill:#db8c82;fill-opacity:1;stroke-width:5;stroke-linecap:round;stroke-linejoin:round;stroke:#231f20;stroke-opacity:1;stroke-miterlimit:10" d="m1061.236 532.18 650.48 300.274-290.333-732.317Zm0 0" transform="matrix(.09943 0 0 -.09943 .265 150.265)"/><g clip-path="url(#w)"><path style="stroke:none;fill-rule:nonzero;fill:#9a5391;fill-opacity:1" d="m24.324 83.168 81.457 14.184-42.5 52.664Zm0 0"/></g><g clip-path="url(#x)"><path style="fill:none;stroke-width:5;stroke-linecap:round;stroke-linejoin:round;stroke:#231f20;stroke-opacity:1;stroke-miterlimit:10" d="m241.976 674.833 819.26-142.653L633.789 2.508Zm0 0" transform="matrix(.09943 0 0 -.09943 .265 150.265)"/></g></svg>