<svg xmlns="http://www.w3.org/2000/svg" width="151.413" height="266.507" viewBox="0 0 113.56 199.88" version="1.2"><path style="stroke:none;fill-rule:nonzero;fill:#a36385;fill-opacity:1" d="m61.32 4.867 22.301 81.496-33.035-.996"/><path style="fill:none;stroke-width:5;stroke-linecap:round;stroke-linejoin:round;stroke:#000;stroke-opacity:1;stroke-miterlimit:10" d="m615.579 1953.212 223.872-818.119-331.632 10Zm0 0" transform="matrix(.09961 0 0 -.09961 0 199.434)"/><path style="stroke:none;fill-rule:nonzero;fill:#a996c2;fill-opacity:1" d="m61.191 174.04 22.43-87.677-33.035-.996"/><path style="fill:none;stroke-width:5;stroke-linecap:round;stroke-linejoin:round;stroke:#000;stroke-opacity:1;stroke-miterlimit:10" d="m614.285 254.938 225.166 880.155-331.632 10Zm0 0" transform="matrix(.09961 0 0 -.09961 0 199.434)"/><path style="stroke:none;fill-rule:nonzero;fill:#dd8d74;fill-opacity:1" d="m61.32 4.867-10.734 80.5L24.16 89.41"/><path style="fill:none;stroke-width:5;stroke-linecap:round;stroke-linejoin:round;stroke:#000;stroke-opacity:1;stroke-miterlimit:10" d="m615.579 1953.212-107.76-808.12-265.281-40.586Zm0 0" transform="matrix(.09961 0 0 -.09961 0 199.434)"/><path style="stroke:none;fill-rule:nonzero;fill:#ddc5c1;fill-opacity:1" d="M61.191 174.04 50.586 85.366 24.16 89.41"/><path style="fill:none;stroke-width:5;stroke-linecap:round;stroke-linejoin:round;stroke:#000;stroke-opacity:1;stroke-miterlimit:10" d="m614.285 254.938-106.466 890.155-265.281-40.587Zm0 0" transform="matrix(.09961 0 0 -.09961 0 199.434)"/><path style="stroke:none;fill-rule:nonzero;fill:#300758;fill-opacity:1" d="m61.32 4.867 41.114 87.043-18.813-5.547"/><path style="fill:none;stroke-width:5;stroke-linecap:round;stroke-linejoin:round;stroke:#000;stroke-opacity:1;stroke-miterlimit:10" d="m615.579 1953.212 412.726-873.802-188.854 55.683Zm0 0" transform="matrix(.09961 0 0 -.09961 0 199.434)"/><path style="stroke:none;fill-rule:nonzero;fill:#4b57bd;fill-opacity:1" d="m61.191 174.04 41.243-82.13-18.813-5.547"/><path style="fill:none;stroke-width:5;stroke-linecap:round;stroke-linejoin:round;stroke:#000;stroke-opacity:1;stroke-miterlimit:10" d="m614.285 254.938 414.02 824.472-188.854 55.683Zm0 0" transform="matrix(.09961 0 0 -.09961 0 199.434)"/><path style="stroke:none;fill-rule:nonzero;fill:#e17a0a;fill-opacity:1" d="m61.191 174.04 41.243-82.13L90.8 98.586"/><path style="fill:none;stroke-width:5;stroke-linecap:round;stroke-linejoin:round;stroke:#000;stroke-opacity:1;stroke-miterlimit:10" d="m614.285 254.938 414.02 824.472-116.779-67.017Zm0 0" transform="matrix(.09961 0 0 -.09961 0 199.434)"/><path style="stroke:none;fill-rule:nonzero;fill:#c27679;fill-opacity:1" d="m61.191 174.04-7.433-73.278L90.8 98.586"/><path style="fill:none;stroke-width:5;stroke-linecap:round;stroke-linejoin:round;stroke:#000;stroke-opacity:1;stroke-miterlimit:10" d="m614.285 254.938-74.624 735.613 371.865 21.842Zm0 0" transform="matrix(.09961 0 0 -.09961 0 199.434)"/><path style="stroke:none;fill-rule:nonzero;fill:#cce072;fill-opacity:1" d="m61.191 174.04-37.03-84.63-.688 6.86"/><path style="fill:none;stroke-width:5;stroke-linecap:round;stroke-linejoin:round;stroke:#000;stroke-opacity:1;stroke-miterlimit:10" d="m614.285 254.938-371.747 849.568-6.902-68.86Zm0 0" transform="matrix(.09961 0 0 -.09961 0 199.434)"/><path style="stroke:none;fill-rule:nonzero;fill:#6b2a6b;fill-opacity:1" d="M61.191 174.04 23.473 96.27l30.285 4.492"/><path style="fill:none;stroke-width:5;stroke-linecap:round;stroke-linejoin:round;stroke:#000;stroke-opacity:1;stroke-miterlimit:10" d="m614.285 254.938-378.649 780.709 304.025-45.096Zm0 0" transform="matrix(.09961 0 0 -.09961 0 199.434)"/><path style="stroke:none;fill-rule:nonzero;fill:#1c1c7b;fill-opacity:1" d="M61.32 4.867 24.16 89.41l-.687 6.86"/><path style="fill:none;stroke-width:5;stroke-linecap:round;stroke-linejoin:round;stroke:#000;stroke-opacity:1;stroke-miterlimit:10" d="m615.579 1953.212-373.041-848.706-6.902-68.86Zm0 0" transform="matrix(.09961 0 0 -.09961 0 199.434)"/><path style="stroke:none;fill-rule:nonzero;fill:#f7efad;fill-opacity:1" d="m61.32 4.867 41.114 87.043L90.8 98.586"/><path style="fill:none;stroke-width:5;stroke-linecap:round;stroke-linejoin:round;stroke:#000;stroke-opacity:1;stroke-miterlimit:10" d="m615.579 1953.212 412.726-873.802-116.779-67.017Zm0 0" transform="matrix(.09961 0 0 -.09961 0 199.434)"/><path style="stroke:none;fill-rule:nonzero;fill:#c6b0c4;fill-opacity:1" d="m61.32 4.867-7.562 95.895L90.8 98.586"/><path style="fill:none;stroke-width:5;stroke-linecap:round;stroke-linejoin:round;stroke:#000;stroke-opacity:1;stroke-miterlimit:10" d="M615.579 1953.212 539.661 990.55l371.865 21.842Zm0 0" transform="matrix(.09961 0 0 -.09961 0 199.434)"/><path style="stroke:none;fill-rule:nonzero;fill:#7e79c3;fill-opacity:1" d="M61.32 4.867 23.473 96.27l30.285 4.492"/><path style="fill:none;stroke-width:5;stroke-linecap:round;stroke-linejoin:round;stroke:#000;stroke-opacity:1;stroke-miterlimit:10" d="m615.579 1953.212-379.943-917.565 304.025-45.096Zm0 0" transform="matrix(.09961 0 0 -.09961 0 199.434)"/></svg>