<svg xmlns="http://www.w3.org/2000/svg" width="316.92" height="266.587" viewBox="0 0 237.69 199.94" version="1.2"><path style="fill-rule:nonzero;fill:#bb7e90;fill-opacity:1;stroke-width:5;stroke-linecap:round;stroke-linejoin:round;stroke:#000;stroke-opacity:1;stroke-miterlimit:10" d="m754.42 1784.537 669.466 58.865-11.226-553.455" transform="matrix(.09987 0 0 -.09987 0 199.78)"/><path style="fill-rule:nonzero;fill:#bb7e90;fill-opacity:1;stroke-width:5;stroke-linecap:round;stroke-linejoin:round;stroke:#000;stroke-opacity:1;stroke-miterlimit:10" d="m1412.66 1289.947-625.932-63.755-32.308 558.345" transform="matrix(.09987 0 0 -.09987 0 199.78)"/><path style="fill-rule:nonzero;fill:#7e4e8d;fill-opacity:1;stroke-width:5;stroke-linecap:round;stroke-linejoin:round;stroke:#000;stroke-opacity:1;stroke-miterlimit:10" d="m1923.951 1040.051-511.29 249.896 11.225 553.455" transform="matrix(.09987 0 0 -.09987 0 199.78)"/><path style="stroke:none;fill-rule:nonzero;fill:#a9bde7;fill-opacity:1" d="M141.082 70.953 78.57 77.32l116.98 62.793"/><path style="fill:none;stroke-width:5;stroke-linecap:round;stroke-linejoin:round;stroke:#000;stroke-opacity:1;stroke-miterlimit:10" d="m1412.66 1289.947-625.932-63.755" transform="matrix(.09987 0 0 -.09987 0 199.78)"/><path style="fill-rule:nonzero;fill:#a9bde7;fill-opacity:1;stroke-width:5;stroke-linecap:round;stroke-linejoin:round;stroke:#000;stroke-opacity:1;stroke-miterlimit:10" d="m1958.058 597.444-34.107 442.607-511.29 249.896" transform="matrix(.09987 0 0 -.09987 0 199.78)"/><path style="fill-rule:nonzero;fill:#f0af86;fill-opacity:1;stroke-width:5;stroke-linecap:round;stroke-linejoin:round;stroke:#000;stroke-opacity:1;stroke-miterlimit:10" d="m354.055 1457.744 400.365 326.793 32.308-558.345" transform="matrix(.09987 0 0 -.09987 0 199.78)"/><path style="fill-rule:nonzero;fill:#f0af86;fill-opacity:1;stroke-width:5;stroke-linecap:round;stroke-linejoin:round;stroke:#000;stroke-opacity:1;stroke-miterlimit:10" d="M786.728 1226.192 417.497 875.15l-63.442 582.595" transform="matrix(.09987 0 0 -.09987 0 199.78)"/><path style="stroke:none;fill-rule:nonzero;fill:#a9bde7;fill-opacity:1" d="M78.57 77.32 41.695 112.38l153.856 27.734"/><path style="fill:none;stroke-width:5;stroke-linecap:round;stroke-linejoin:round;stroke:#000;stroke-opacity:1;stroke-miterlimit:10" d="M786.728 1226.192 417.497 875.15" transform="matrix(.09987 0 0 -.09987 0 199.78)"/><path style="fill-rule:nonzero;fill:#7e4e8d;fill-opacity:1;stroke-width:5;stroke-linecap:round;stroke-linejoin:round;stroke:#000;stroke-opacity:1;stroke-miterlimit:10" d="m1423.886 1843.402 549.426-231.708-49.36-571.643" transform="matrix(.09987 0 0 -.09987 0 199.78)"/><path style="fill-rule:nonzero;fill:#303067;fill-opacity:1;stroke-width:5;stroke-linecap:round;stroke-linejoin:round;stroke:#000;stroke-opacity:1;stroke-miterlimit:10" d="m1958.058 597.444-34.107 442.607 49.361 571.643" transform="matrix(.09987 0 0 -.09987 0 199.78)"/><path style="fill-rule:nonzero;fill:#303067;fill-opacity:1;stroke-width:5;stroke-linecap:round;stroke-linejoin:round;stroke:#000;stroke-opacity:1;stroke-miterlimit:10" d="m1973.312 1611.694 42.4-415.228-57.654-599.022" transform="matrix(.09987 0 0 -.09987 0 199.78)"/><path style="stroke:none;fill-rule:nonzero;fill:#a4c3ef;fill-opacity:1" d="m142.203 15.68-66.86 5.879 125.966 58.73"/><path style="fill:none;stroke-width:5;stroke-linecap:round;stroke-linejoin:round;stroke:#000;stroke-opacity:1;stroke-miterlimit:10" d="m1423.886 1843.402-669.466-58.865" transform="matrix(.09987 0 0 -.09987 0 199.78)"/><path style="fill-rule:nonzero;fill:#a4c3ef;fill-opacity:1;stroke-width:5;stroke-linecap:round;stroke-linejoin:round;stroke:#000;stroke-opacity:1;stroke-miterlimit:10" d="m2015.711 1196.466-42.399 415.228-549.426 231.708" transform="matrix(.09987 0 0 -.09987 0 199.78)"/><path style="stroke:none;fill-rule:nonzero;fill:#a4c3ef;fill-opacity:1" d="M75.344 21.559 35.359 54.195 201.31 80.29"/><path style="fill:none;stroke-width:5;stroke-linecap:round;stroke-linejoin:round;stroke:#000;stroke-opacity:1;stroke-miterlimit:10" d="m754.42 1784.537-400.365-326.793" transform="matrix(.09987 0 0 -.09987 0 199.78)"/><path style="fill-rule:nonzero;fill:#232360;fill-opacity:1;stroke-width:5;stroke-linecap:round;stroke-linejoin:round;stroke:#000;stroke-opacity:1;stroke-miterlimit:10" d="m581.148 1044.823-227.093 412.92 63.442-582.594" transform="matrix(.09987 0 0 -.09987 0 199.78)"/><path style="stroke:none;fill-rule:nonzero;fill:#a9bde7;fill-opacity:1" d="m41.695 112.379 21.535 43.719 132.32-15.985"/><path style="fill:none;stroke-width:5;stroke-linecap:round;stroke-linejoin:round;stroke:#000;stroke-opacity:1;stroke-miterlimit:10" d="M417.497 875.15 633.129 437.39" transform="matrix(.09987 0 0 -.09987 0 199.78)"/><path style="fill-rule:nonzero;fill:#232360;fill-opacity:1;stroke-width:5;stroke-linecap:round;stroke-linejoin:round;stroke:#000;stroke-opacity:1;stroke-miterlimit:10" d="M417.497 875.15 633.129 437.39l-51.981 607.432" transform="matrix(.09987 0 0 -.09987 0 199.78)"/><path style="fill-rule:nonzero;fill:#a9bde7;fill-opacity:1;stroke-width:5;stroke-linecap:round;stroke-linejoin:round;stroke:#000;stroke-opacity:1;stroke-miterlimit:10" d="m633.13 437.391 735.801-144.328 589.127 304.38" transform="matrix(.09987 0 0 -.09987 0 199.78)"/><path style="fill-rule:nonzero;fill:#dc907a;fill-opacity:1;stroke-width:5;stroke-linecap:round;stroke-linejoin:round;stroke:#000;stroke-opacity:1;stroke-miterlimit:10" d="m1368.931 293.063 589.127 304.38 57.653 599.023" transform="matrix(.09987 0 0 -.09987 0 199.78)"/><path style="stroke:none;fill-rule:nonzero;fill:#a4c3ef;fill-opacity:1" d="m35.36 54.195 22.68 41.239 143.269-15.145"/><path style="fill:none;stroke-width:5;stroke-linecap:round;stroke-linejoin:round;stroke:#000;stroke-opacity:1;stroke-miterlimit:10" d="m354.055 1457.744 227.093-412.92" transform="matrix(.09987 0 0 -.09987 0 199.78)"/><path style="fill-rule:nonzero;fill:#985780;fill-opacity:1;stroke-width:5;stroke-linecap:round;stroke-linejoin:round;stroke:#000;stroke-opacity:1;stroke-miterlimit:10" d="m1379.297 907.3-798.15 137.523 51.982-607.432M633.13 437.391l735.801-144.328 10.366 614.237" transform="matrix(.09987 0 0 -.09987 0 199.78)"/><path style="fill-rule:nonzero;fill:#dc907a;fill-opacity:1;stroke-width:5;stroke-linecap:round;stroke-linejoin:round;stroke:#000;stroke-opacity:1;stroke-miterlimit:10" d="M2015.711 1196.466 1379.297 907.3l-10.366-614.237" transform="matrix(.09987 0 0 -.09987 0 199.78)"/><path style="fill-rule:nonzero;fill:#a4c3ef;fill-opacity:1;stroke-width:5;stroke-linecap:round;stroke-linejoin:round;stroke:#000;stroke-opacity:1;stroke-miterlimit:10" d="M581.148 1044.823 1379.297 907.3l636.414 289.166" transform="matrix(.09987 0 0 -.09987 0 199.78)"/></svg>