<svg xmlns="http://www.w3.org/2000/svg" width="211.547" height="196.107" viewBox="0 0 158.66 147.08" version="1.2"><defs><clipPath id="a"><path d="M113 18h44.996v79H113Zm0 0"/></clipPath><clipPath id="b"><path d="M41 58h116.996v39H41Zm0 0"/></clipPath><clipPath id="c"><path d="M.324 20H42v80H.324Zm0 0"/></clipPath><clipPath id="d"><path d="M.324 59h157.672v41H.324Zm0 0"/></clipPath><clipPath id="e"><path d="M.324 59H42v41H.324Zm0 0"/></clipPath><clipPath id="f"><path d="M146 18h11.996v79H146Zm0 0"/></clipPath><clipPath id="g"><path d="M37 96h120.996v50H37Zm0 0"/></clipPath><clipPath id="h"><path d="M37 96h120.996v50.164H37Zm0 0"/></clipPath><clipPath id="i"><path d="M.324 96h157.672v50H.324Zm0 0"/></clipPath><clipPath id="j"><path d="M.324 98H39v48.164H.324Zm0 0"/></clipPath><clipPath id="k"><path d="M124 65h33.996v80H124Zm0 0"/></clipPath><clipPath id="l"><path d="M124 64h33.996v81H124Zm0 0"/></clipPath><clipPath id="m"><path d="M.324 20H10v80H.324Zm0 0"/></clipPath><clipPath id="n"><path d="M.324 67H38v79H.324Zm0 0"/></clipPath><clipPath id="o"><path d="M.324 67H39v79.164H.324Zm0 0"/></clipPath><clipPath id="p"><path d="M81 18h76.996v77H81Zm0 0"/></clipPath><clipPath id="q"><path d="M37 94h88v52.164H37Zm0 0"/></clipPath><clipPath id="r"><path d="M81 65h76.996v80H81Zm0 0"/></clipPath><clipPath id="s"><path d="M81 64h76.996v81H81Zm0 0"/></clipPath><clipPath id="t"><path d="M2 67h81v79.164H2Zm0 0"/></clipPath></defs><path style="fill-rule:nonzero;fill:#b2709b;fill-opacity:1;stroke-width:5;stroke-linecap:round;stroke-linejoin:round;stroke:#231f20;stroke-opacity:1;stroke-miterlimit:10" d="M773.638 1468.245 416.26 872.746l721.005 11.242Zm0 0" transform="matrix(.09938 0 0 -.09938 .324 146.166)"/><g clip-path="url(#a)"><path style="fill-rule:nonzero;fill:#5e3d9e;fill-opacity:1;stroke-width:5;stroke-linecap:round;stroke-linejoin:round;stroke:#231f20;stroke-opacity:1;stroke-miterlimit:10" d="m1474.832 1280.909-337.567-396.92 443.97-384.815Zm0 0" transform="matrix(.09938 0 0 -.09938 .324 146.166)"/></g><path style="fill-rule:nonzero;fill:#863e82;fill-opacity:1;stroke-width:5;stroke-linecap:round;stroke-linejoin:round;stroke:#231f20;stroke-opacity:1;stroke-miterlimit:10" d="m1474.832 1280.909-701.194 187.336 363.627-584.257Zm0 0" transform="matrix(.09938 0 0 -.09938 .324 146.166)"/><g clip-path="url(#b)"><path style="fill-rule:nonzero;fill:#aebce5;fill-opacity:1;stroke-width:5;stroke-linecap:round;stroke-linejoin:round;stroke:#231f20;stroke-opacity:1;stroke-miterlimit:10" d="m1581.236 499.174-443.97 384.814-721.006-11.242" transform="matrix(.09938 0 0 -.09938 .324 146.166)"/></g><g clip-path="url(#c)"><path style="fill-rule:nonzero;fill:#ebad8c;fill-opacity:1;stroke-width:5;stroke-linecap:round;stroke-linejoin:round;stroke:#231f20;stroke-opacity:1;stroke-miterlimit:10" d="M88.205 1261.334 2.515 472.17 416.26 872.746Zm0 0" transform="matrix(.09938 0 0 -.09938 .324 146.166)"/></g><path style="fill-rule:nonzero;fill:#cf7578;fill-opacity:1;stroke-width:5;stroke-linecap:round;stroke-linejoin:round;stroke:#231f20;stroke-opacity:1;stroke-miterlimit:10" d="M773.638 1468.245 88.205 1261.334 416.26 872.746Zm0 0" transform="matrix(.09938 0 0 -.09938 .324 146.166)"/><g clip-path="url(#d)"><path style="stroke:none;fill-rule:nonzero;fill:#aebce5;fill-opacity:1" d="M41.691 59.434.574 99.242l156.89-2.683"/></g><g clip-path="url(#e)"><path style="fill:none;stroke-width:5;stroke-linecap:round;stroke-linejoin:round;stroke:#231f20;stroke-opacity:1;stroke-miterlimit:10" d="M416.26 872.746 2.516 472.17" transform="matrix(.09938 0 0 -.09938 .324 146.166)"/></g><path style="stroke:none;fill-rule:nonzero;fill:#aac3e9;fill-opacity:1" d="m77.207.254 69.684 18.617-65.043 75.414"/><path style="fill:none;stroke-width:5;stroke-linecap:round;stroke-linejoin:round;stroke:#231f20;stroke-opacity:1;stroke-miterlimit:10" d="m773.638 1468.245 701.194-187.336" transform="matrix(.09938 0 0 -.09938 .324 146.166)"/><path style="stroke:none;fill-rule:nonzero;fill:#aac3e9;fill-opacity:1" d="M9.09 20.816 77.207.254l4.64 94.031"/><path style="fill:none;stroke-width:5;stroke-linecap:round;stroke-linejoin:round;stroke:#231f20;stroke-opacity:1;stroke-miterlimit:10" d="m88.205 1261.334 685.433 206.911" transform="matrix(.09938 0 0 -.09938 .324 146.166)"/><g clip-path="url(#f)"><path style="fill-rule:nonzero;fill:#121112;fill-opacity:1;stroke-width:5;stroke-linecap:round;stroke-linejoin:round;stroke:#231f20;stroke-opacity:1;stroke-miterlimit:10" d="m1584.105 815.32-109.273 465.589 106.404-781.735Zm0 0" transform="matrix(.09938 0 0 -.09938 .324 146.166)"/></g><g clip-path="url(#g)"><path style="stroke:none;fill-rule:nonzero;fill:#aebce5;fill-opacity:1" d="m37.89 145.918 86.665-1.637 32.91-47.722"/></g><g clip-path="url(#h)"><path style="fill:none;stroke-width:5;stroke-linecap:round;stroke-linejoin:round;stroke:#231f20;stroke-opacity:1;stroke-miterlimit:10" d="m378.014 2.493 872.062 16.47 331.16 480.211" transform="matrix(.09938 0 0 -.09938 .324 146.166)"/></g><g clip-path="url(#i)"><path style="stroke:none;fill-rule:nonzero;fill:#aebce5;fill-opacity:1" d="m.574 99.242 37.317 46.676 119.574-49.36"/></g><g clip-path="url(#j)"><path style="fill:none;stroke-width:5;stroke-linecap:round;stroke-linejoin:round;stroke:#231f20;stroke-opacity:1;stroke-miterlimit:10" d="M2.516 472.17 378.014 2.493" transform="matrix(.09938 0 0 -.09938 .324 146.166)"/></g><g clip-path="url(#k)"><path style="stroke:none;fill-rule:nonzero;fill:#e57917;fill-opacity:1" d="m157.75 65.14-.285 31.419-32.91 47.722Zm0 0"/></g><g clip-path="url(#l)"><path style="fill:none;stroke-width:5;stroke-linecap:round;stroke-linejoin:round;stroke:#231f20;stroke-opacity:1;stroke-miterlimit:10" d="m1584.105 815.32-2.87-316.146-331.16-480.211Zm0 0" transform="matrix(.09938 0 0 -.09938 .324 146.166)"/></g><g clip-path="url(#m)"><path style="fill-rule:nonzero;fill:#b6861c;fill-opacity:1;stroke-width:5;stroke-linecap:round;stroke-linejoin:round;stroke:#231f20;stroke-opacity:1;stroke-miterlimit:10" d="M88.205 1261.334 24.292 790.517 2.516 472.17Zm0 0" transform="matrix(.09938 0 0 -.09938 .324 146.166)"/></g><g clip-path="url(#n)"><path style="stroke:none;fill-rule:nonzero;fill:#14151e;fill-opacity:1" d="m2.738 67.605 35.153 78.313L.574 99.242Zm0 0"/></g><g clip-path="url(#o)"><path style="fill:none;stroke-width:5;stroke-linecap:round;stroke-linejoin:round;stroke:#231f20;stroke-opacity:1;stroke-miterlimit:10" d="M24.292 790.517 378.014 2.493 2.516 472.17Zm0 0" transform="matrix(.09938 0 0 -.09938 .324 146.166)"/></g><g clip-path="url(#p)"><path style="fill-rule:nonzero;fill:#aac3e9;fill-opacity:1;stroke-width:5;stroke-linecap:round;stroke-linejoin:round;stroke:#231f20;stroke-opacity:1;stroke-miterlimit:10" d="m1474.832 1280.909 109.273-465.59-763.771-293.268" transform="matrix(.09938 0 0 -.09938 .324 146.166)"/></g><path style="fill-rule:nonzero;fill:#aac3e9;fill-opacity:1;stroke-width:5;stroke-linecap:round;stroke-linejoin:round;stroke:#231f20;stroke-opacity:1;stroke-miterlimit:10" d="M820.334 522.05 24.292 790.518l63.913 470.817" transform="matrix(.09938 0 0 -.09938 .324 146.166)"/><path style="stroke:none;fill-rule:nonzero;fill:#aa4769;fill-opacity:1" d="m81.848 94.285 42.707 49.996-86.664 1.637Zm0 0"/><g clip-path="url(#q)"><path style="fill:none;stroke-width:5;stroke-linecap:round;stroke-linejoin:round;stroke:#231f20;stroke-opacity:1;stroke-miterlimit:10" d="m820.334 522.05 429.742-503.087-872.062-16.47Zm0 0" transform="matrix(.09938 0 0 -.09938 .324 146.166)"/></g><g clip-path="url(#r)"><path style="stroke:none;fill-rule:nonzero;fill:#d58988;fill-opacity:1" d="m81.848 94.285 75.902-29.144-33.195 79.14Zm0 0"/></g><g clip-path="url(#s)"><path style="fill:none;stroke-width:5;stroke-linecap:round;stroke-linejoin:round;stroke:#231f20;stroke-opacity:1;stroke-miterlimit:10" d="m820.334 522.05 763.771 293.27-334.03-796.357Zm0 0" transform="matrix(.09938 0 0 -.09938 .324 146.166)"/></g><path style="stroke:none;fill-rule:nonzero;fill:#844894;fill-opacity:1" d="m2.738 67.605 79.11 26.68-43.957 51.633Zm0 0"/><g clip-path="url(#t)"><path style="fill:none;stroke-width:5;stroke-linecap:round;stroke-linejoin:round;stroke:#231f20;stroke-opacity:1;stroke-miterlimit:10" d="M24.292 790.517 820.334 522.05 378.014 2.493Zm0 0" transform="matrix(.09938 0 0 -.09938 .324 146.166)"/></g></svg>