<svg xmlns="http://www.w3.org/2000/svg" width="314.333" height="266.587" viewBox="0 0 235.75 199.94" version="1.2"><path style="fill-rule:nonzero;fill:#d08f8e;fill-opacity:1;stroke-width:5;stroke-linecap:round;stroke-linejoin:round;stroke:#000;stroke-opacity:1;stroke-miterlimit:10" d="m499.944 1664.844 699.647 208.385 1.525-634.97" transform="matrix(.0999 0 0 -.0999 0 199.804)"/><path style="fill-rule:nonzero;fill:#d08f8e;fill-opacity:1;stroke-width:5;stroke-linecap:round;stroke-linejoin:round;stroke:#000;stroke-opacity:1;stroke-miterlimit:10" d="M1201.116 1238.26 554.65 1011.26l-54.706 653.583" transform="matrix(.0999 0 0 -.0999 0 199.804)"/><path style="fill-rule:nonzero;fill:#915c8e;fill-opacity:1;stroke-width:5;stroke-linecap:round;stroke-linejoin:round;stroke:#000;stroke-opacity:1;stroke-miterlimit:10" d="m1862.91 1032.69-661.794 205.57-1.525 634.969" transform="matrix(.0999 0 0 -.0999 0 199.804)"/><path style="stroke:none;fill-rule:nonzero;fill:#a9bce7;fill-opacity:1" d="M119.984 76.11 55.406 98.784 195.75 147.06"/><path style="fill:none;stroke-width:5;stroke-linecap:round;stroke-linejoin:round;stroke:#000;stroke-opacity:1;stroke-miterlimit:10" d="M1201.116 1238.26 554.65 1011.26" transform="matrix(.0999 0 0 -.0999 0 199.804)"/><path style="fill-rule:nonzero;fill:#a9bce7;fill-opacity:1;stroke-width:5;stroke-linecap:round;stroke-linejoin:round;stroke:#000;stroke-opacity:1;stroke-miterlimit:10" d="m1959.576 528.015-96.665 504.675-661.795 205.57" transform="matrix(.0999 0 0 -.0999 0 199.804)"/><path style="fill-rule:nonzero;fill:#915c8e;fill-opacity:1;stroke-width:5;stroke-linecap:round;stroke-linejoin:round;stroke:#000;stroke-opacity:1;stroke-miterlimit:10" d="m1199.591 1873.229 715.836-188.677-52.516-651.862" transform="matrix(.0999 0 0 -.0999 0 199.804)"/><path style="fill-rule:nonzero;fill:#23236f;fill-opacity:1;stroke-width:5;stroke-linecap:round;stroke-linejoin:round;stroke:#000;stroke-opacity:1;stroke-miterlimit:10" d="m1959.576 528.015-96.665 504.675 52.516 651.862" transform="matrix(.0999 0 0 -.0999 0 199.804)"/><path style="fill-rule:nonzero;fill:#e5bd3c;fill-opacity:1;stroke-width:5;stroke-linecap:round;stroke-linejoin:round;stroke:#000;stroke-opacity:1;stroke-miterlimit:10" d="m434.054 1190.279 65.89 474.565 54.706-653.583M554.65 1011.261l-53.963-509.876-66.633 688.894" transform="matrix(.0999 0 0 -.0999 0 199.804)"/><path style="stroke:none;fill-rule:nonzero;fill:#a9bce7;fill-opacity:1" d="m55.406 98.785-5.39 50.934 145.734-2.66"/><path style="fill:none;stroke-width:5;stroke-linecap:round;stroke-linejoin:round;stroke:#000;stroke-opacity:1;stroke-miterlimit:10" d="m554.65 1011.261-53.963-509.876" transform="matrix(.0999 0 0 -.0999 0 199.804)"/><path style="fill-rule:nonzero;fill:#23236f;fill-opacity:1;stroke-width:5;stroke-linecap:round;stroke-linejoin:round;stroke:#000;stroke-opacity:1;stroke-miterlimit:10" d="m1915.427 1684.552 112.072-469.247-67.923-687.29" transform="matrix(.0999 0 0 -.0999 0 199.804)"/><path style="stroke:none;fill-rule:nonzero;fill:#a4c3ef;fill-opacity:1" d="m119.832 12.68-69.89 20.816 152.593 44.906"/><path style="fill:none;stroke-width:5;stroke-linecap:round;stroke-linejoin:round;stroke:#000;stroke-opacity:1;stroke-miterlimit:10" d="m1199.591 1873.229-699.647-208.385" transform="matrix(.0999 0 0 -.0999 0 199.804)"/><path style="fill-rule:nonzero;fill:#a4c3ef;fill-opacity:1;stroke-width:5;stroke-linecap:round;stroke-linejoin:round;stroke:#000;stroke-opacity:1;stroke-miterlimit:10" d="m2027.5 1215.305-112.073 469.247-715.836 188.677" transform="matrix(.0999 0 0 -.0999 0 199.804)"/><path style="stroke:none;fill-rule:nonzero;fill:#a4c3ef;fill-opacity:1" d="M49.941 33.496 43.36 80.902l159.176-2.5"/><path style="fill:none;stroke-width:5;stroke-linecap:round;stroke-linejoin:round;stroke:#000;stroke-opacity:1;stroke-miterlimit:10" d="m499.944 1664.844-65.89-474.565" transform="matrix(.0999 0 0 -.0999 0 199.804)"/><path style="fill-rule:nonzero;fill:#a9bce7;fill-opacity:1;stroke-width:5;stroke-linecap:round;stroke-linejoin:round;stroke:#000;stroke-opacity:1;stroke-miterlimit:10" d="m500.687 501.385 744.226-286.75 714.663 313.38" transform="matrix(.0999 0 0 -.0999 0 199.804)"/><path style="fill-rule:nonzero;fill:#d78b7c;fill-opacity:1;stroke-width:5;stroke-linecap:round;stroke-linejoin:round;stroke:#000;stroke-opacity:1;stroke-miterlimit:10" d="m1244.913 214.636 714.663 313.379 67.923 687.29" transform="matrix(.0999 0 0 -.0999 0 199.804)"/><path style="fill-rule:nonzero;fill:#81457d;fill-opacity:1;stroke-width:5;stroke-linecap:round;stroke-linejoin:round;stroke:#000;stroke-opacity:1;stroke-miterlimit:10" d="m1247.337 919.367-813.283 270.912 66.633-688.894" transform="matrix(.0999 0 0 -.0999 0 199.804)"/><path style="fill-rule:nonzero;fill:#81457d;fill-opacity:1;stroke-width:5;stroke-linecap:round;stroke-linejoin:round;stroke:#000;stroke-opacity:1;stroke-miterlimit:10" d="m500.687 501.385 744.226-286.75 2.424 704.732" transform="matrix(.0999 0 0 -.0999 0 199.804)"/><path style="fill-rule:nonzero;fill:#d78b7c;fill-opacity:1;stroke-width:5;stroke-linecap:round;stroke-linejoin:round;stroke:#000;stroke-opacity:1;stroke-miterlimit:10" d="m2027.5 1215.305-780.163-295.938-2.424-704.731" transform="matrix(.0999 0 0 -.0999 0 199.804)"/><path style="fill-rule:nonzero;fill:#a4c3ef;fill-opacity:1;stroke-width:5;stroke-linecap:round;stroke-linejoin:round;stroke:#000;stroke-opacity:1;stroke-miterlimit:10" d="m434.054 1190.279 813.283-270.912 780.162 295.938" transform="matrix(.0999 0 0 -.0999 0 199.804)"/></svg>