<svg xmlns="http://www.w3.org/2000/svg" width="267.08" height="273.253" viewBox="0 0 200.31 204.94" version="1.2"><path style="fill-rule:nonzero;fill:#641c5c;fill-opacity:1;stroke-width:5;stroke-linecap:round;stroke-linejoin:round;stroke:#000;stroke-opacity:1;stroke-miterlimit:10" d="m1255.678 1319.135 110.3-162.668-264.972-47.232" transform="matrix(.09966 0 0 -.09966 0 204.558)"/><path style="fill-rule:nonzero;fill:#641c5c;fill-opacity:1;stroke-width:5;stroke-linecap:round;stroke-linejoin:round;stroke:#000;stroke-opacity:1;stroke-miterlimit:10" d="m1101.006 1109.235-18.226 287.04 172.898-77.14" transform="matrix(.09966 0 0 -.09966 0 204.558)"/><path style="fill-rule:nonzero;fill:#aabce7;fill-opacity:1;stroke-width:5;stroke-linecap:round;stroke-linejoin:round;stroke:#000;stroke-opacity:1;stroke-miterlimit:10" d="m1028.53 759.754-167.606 85.332 240.082 264.149M1101.006 1109.235l125.392-293.939-197.867-55.542" transform="matrix(.09966 0 0 -.09966 0 204.558)"/><path style="fill-rule:nonzero;fill:#c66e67;fill-opacity:1;stroke-width:5;stroke-linecap:round;stroke-linejoin:round;stroke:#000;stroke-opacity:1;stroke-miterlimit:10" d="m882.6 1346.652 200.18 49.623 18.226-287.04" transform="matrix(.09966 0 0 -.09966 0 204.558)"/><path style="fill-rule:nonzero;fill:#c66e67;fill-opacity:1;stroke-width:5;stroke-linecap:round;stroke-linejoin:round;stroke:#000;stroke-opacity:1;stroke-miterlimit:10" d="m1101.006 1109.235-329.098 92.387 110.692 145.03" transform="matrix(.09966 0 0 -.09966 0 204.558)"/><path style="fill-rule:nonzero;fill:#e2c2b7;fill-opacity:1;stroke-width:5;stroke-linecap:round;stroke-linejoin:round;stroke:#000;stroke-opacity:1;stroke-miterlimit:10" d="m744.744 1001.443 27.164 200.18 329.098-92.388" transform="matrix(.09966 0 0 -.09966 0 204.558)"/><path style="fill-rule:nonzero;fill:#e2c2b7;fill-opacity:1;stroke-width:5;stroke-linecap:round;stroke-linejoin:round;stroke:#000;stroke-opacity:1;stroke-miterlimit:10" d="M1101.006 1109.235 860.924 845.086l-116.18 156.357" transform="matrix(.09966 0 0 -.09966 0 204.558)"/><path style="fill-rule:nonzero;fill:#565bbb;fill-opacity:1;stroke-width:5;stroke-linecap:round;stroke-linejoin:round;stroke:#000;stroke-opacity:1;stroke-miterlimit:10" d="m1101.006 1109.235 264.972 47.232-20.382-202.57" transform="matrix(.09966 0 0 -.09966 0 204.558)"/><path style="fill-rule:nonzero;fill:#565bbb;fill-opacity:1;stroke-width:5;stroke-linecap:round;stroke-linejoin:round;stroke:#000;stroke-opacity:1;stroke-miterlimit:10" d="m1345.596 953.897-119.198-138.6-125.392 293.938" transform="matrix(.09966 0 0 -.09966 0 204.558)"/><path style="fill-rule:nonzero;fill:#c897a4;fill-opacity:1;stroke-width:5;stroke-linecap:round;stroke-linejoin:round;stroke:#000;stroke-opacity:1;stroke-miterlimit:10" d="m744.744 1001.443 116.18-156.357-335.762-393.5" transform="matrix(.09966 0 0 -.09966 0 204.558)"/><path style="fill-rule:nonzero;fill:#9c91c8;fill-opacity:1;stroke-width:5;stroke-linecap:round;stroke-linejoin:round;stroke:#000;stroke-opacity:1;stroke-miterlimit:10" d="m525.162 451.587 335.762 393.499 167.607-85.332" transform="matrix(.09966 0 0 -.09966 0 204.558)"/><path style="fill-rule:nonzero;fill:#c0abc5;fill-opacity:1;stroke-width:5;stroke-linecap:round;stroke-linejoin:round;stroke:#000;stroke-opacity:1;stroke-miterlimit:10" d="m771.908 1201.622-27.164-200.179-204.648-54.053" transform="matrix(.09966 0 0 -.09966 0 204.558)"/><path style="fill-rule:nonzero;fill:#c0abc5;fill-opacity:1;stroke-width:5;stroke-linecap:round;stroke-linejoin:round;stroke:#000;stroke-opacity:1;stroke-miterlimit:10" d="m540.096 947.39-252.115 443.084 483.927-188.852" transform="matrix(.09966 0 0 -.09966 0 204.558)"/><path style="fill-rule:nonzero;fill:#a96d8e;fill-opacity:1;stroke-width:5;stroke-linecap:round;stroke-linejoin:round;stroke:#000;stroke-opacity:1;stroke-miterlimit:10" d="m882.6 1346.652-110.692-145.03-483.927 188.852" transform="matrix(.09966 0 0 -.09966 0 204.558)"/><path style="fill-rule:nonzero;fill:#f8c153;fill-opacity:1;stroke-width:5;stroke-linecap:round;stroke-linejoin:round;stroke:#000;stroke-opacity:1;stroke-miterlimit:10" d="m534.334 755.638-9.172-304.051-57.776 260.739" transform="matrix(.09966 0 0 -.09966 0 204.558)"/><path style="fill-rule:nonzero;fill:#c897a4;fill-opacity:1;stroke-width:5;stroke-linecap:round;stroke-linejoin:round;stroke:#000;stroke-opacity:1;stroke-miterlimit:10" d="m525.162 451.587 14.934 495.803 204.648 54.053" transform="matrix(.09966 0 0 -.09966 0 204.558)"/><path style="fill-rule:nonzero;fill:#4a083f;fill-opacity:1;stroke-width:5;stroke-linecap:round;stroke-linejoin:round;stroke:#000;stroke-opacity:1;stroke-miterlimit:10" d="m640.362 618.527-172.976 93.799 57.776-260.74" transform="matrix(.09966 0 0 -.09966 0 204.558)"/><path style="stroke:none;fill-rule:nonzero;fill:#99f1ee;fill-opacity:1" d="m46.578 133.57 17.238 9.348-21.73-6.441"/><path style="fill:none;stroke-width:5;stroke-linecap:round;stroke-linejoin:round;stroke:#000;stroke-opacity:1;stroke-miterlimit:10" d="m467.386 712.326 172.976-93.799" transform="matrix(.09966 0 0 -.09966 0 204.558)"/><path style="stroke:none;fill-rule:nonzero;fill:#99f1ee;fill-opacity:1" d="m5.355 125.586 41.223 7.984-4.492 2.907"/><path style="fill:none;stroke-width:5;stroke-linecap:round;stroke-linejoin:round;stroke:#000;stroke-opacity:1;stroke-miterlimit:10" d="m53.74 792.444 413.646-80.118" transform="matrix(.09966 0 0 -.09966 0 204.558)"/><path style="stroke:none;fill-rule:nonzero;fill:#f8c153;fill-opacity:1" d="m53.824 110.145-.574 19.109-6.672 4.316"/><path style="fill:none;stroke-width:5;stroke-linecap:round;stroke-linejoin:round;stroke:#000;stroke-opacity:1;stroke-miterlimit:10" d="m540.096 947.39-5.762-191.752" transform="matrix(.09966 0 0 -.09966 0 204.558)"/><path style="fill-rule:nonzero;fill:#1c9be6;fill-opacity:1;stroke-width:5;stroke-linecap:round;stroke-linejoin:round;stroke:#000;stroke-opacity:1;stroke-miterlimit:10" d="m525.162 451.587 478.91 99.991-25.596-33.278" transform="matrix(.09966 0 0 -.09966 0 204.558)"/><path style="stroke:none;fill-rule:nonzero;fill:#e6fbb6;fill-opacity:1" d="m76.402 159.078 12.004 37.711-15.484-33.922"/><path style="fill:none;stroke-width:5;stroke-linecap:round;stroke-linejoin:round;stroke:#000;stroke-opacity:1;stroke-miterlimit:10" d="M766.655 456.369 887.108 77.96" transform="matrix(.09966 0 0 -.09966 0 204.558)"/><path style="stroke:none;fill-rule:nonzero;fill:#1c9be6;fill-opacity:1" d="m76.402 159.078-24.066.477 27.32-4.024"/><path style="fill:none;stroke-width:5;stroke-linecap:round;stroke-linejoin:round;stroke:#000;stroke-opacity:1;stroke-miterlimit:10" d="m766.655 456.369-241.493-4.782" transform="matrix(.09966 0 0 -.09966 0 204.558)"/><path style="fill-rule:nonzero;fill:#9c91c8;fill-opacity:1;stroke-width:5;stroke-linecap:round;stroke-linejoin:round;stroke:#000;stroke-opacity:1;stroke-miterlimit:10" d="m1028.53 759.754-24.458-208.176-478.91-99.991" transform="matrix(.09966 0 0 -.09966 0 204.558)"/><path style="fill-rule:nonzero;fill:#4a083f;fill-opacity:1;stroke-width:5;stroke-linecap:round;stroke-linejoin:round;stroke:#000;stroke-opacity:1;stroke-miterlimit:10" d="m525.162 451.587 241.493 4.782-126.293 162.158" transform="matrix(.09966 0 0 -.09966 0 204.558)"/><path style="stroke:none;fill-rule:nonzero;fill:#e6fbb6;fill-opacity:1" d="m63.816 142.918 12.586 16.16-3.48 3.79"/><path style="fill:none;stroke-width:5;stroke-linecap:round;stroke-linejoin:round;stroke:#000;stroke-opacity:1;stroke-miterlimit:10" d="m640.362 618.527 126.293-162.158" transform="matrix(.09966 0 0 -.09966 0 204.558)"/><path style="stroke:none;fill-rule:nonzero;fill:#1c9be6;fill-opacity:1" d="m97.512 152.906-21.11 6.172 3.254-3.547"/><path style="fill:none;stroke-width:5;stroke-linecap:round;stroke-linejoin:round;stroke:#000;stroke-opacity:1;stroke-miterlimit:10" d="m978.476 518.3-211.82-61.931" transform="matrix(.09966 0 0 -.09966 0 204.558)"/><path style="fill-rule:nonzero;fill:#c0abc5;fill-opacity:1;stroke-width:5;stroke-linecap:round;stroke-linejoin:round;stroke:#000;stroke-opacity:1;stroke-miterlimit:10" d="m1028.53 759.754 197.868 55.542 263.717-448.65" transform="matrix(.09966 0 0 -.09966 0 204.558)"/><path style="fill-rule:nonzero;fill:#8b69a5;fill-opacity:1;stroke-width:5;stroke-linecap:round;stroke-linejoin:round;stroke:#000;stroke-opacity:1;stroke-miterlimit:10" d="m1490.115 366.647-263.717 448.65 119.198 138.6" transform="matrix(.09966 0 0 -.09966 0 204.558)"/><path style="fill-rule:nonzero;fill:#c897a4;fill-opacity:1;stroke-width:5;stroke-linecap:round;stroke-linejoin:round;stroke:#000;stroke-opacity:1;stroke-miterlimit:10" d="m1109.238 1914.029-26.458-517.754-200.18-49.623" transform="matrix(.09966 0 0 -.09966 0 204.558)"/><path style="fill-rule:nonzero;fill:#8b69a5;fill-opacity:1;stroke-width:5;stroke-linecap:round;stroke-linejoin:round;stroke:#000;stroke-opacity:1;stroke-miterlimit:10" d="m1255.678 1319.135-172.898 77.14 26.458 517.754" transform="matrix(.09966 0 0 -.09966 0 204.558)"/><path style="fill-rule:nonzero;fill:#a96d8e;fill-opacity:1;stroke-width:5;stroke-linecap:round;stroke-linejoin:round;stroke:#000;stroke-opacity:1;stroke-miterlimit:10" d="m287.98 1390.474 476.402 123L882.6 1346.652" transform="matrix(.09966 0 0 -.09966 0 204.558)"/><path style="fill-rule:nonzero;fill:#6b2e2e;fill-opacity:1;stroke-width:5;stroke-linecap:round;stroke-linejoin:round;stroke:#000;stroke-opacity:1;stroke-miterlimit:10" d="m730.672 1511.789 33.71 1.685-476.401-123" transform="matrix(.09966 0 0 -.09966 0 204.558)"/><path style="stroke:none;fill-rule:nonzero;fill:#6b2e2e;fill-opacity:1" d="m28.7 65.988 22.59-6.976 4.089-.336"/><path style="fill:none;stroke-width:5;stroke-linecap:round;stroke-linejoin:round;stroke:#000;stroke-opacity:1;stroke-miterlimit:10" d="m287.98 1390.474 226.677 70.006" transform="matrix(.09966 0 0 -.09966 0 204.558)"/><path style="fill-rule:nonzero;fill:#e6fbb6;fill-opacity:1;stroke-width:5;stroke-linecap:round;stroke-linejoin:round;stroke:#000;stroke-opacity:1;stroke-miterlimit:10" d="M287.98 1390.474 540.097 947.39l-40.686-20.147" transform="matrix(.09966 0 0 -.09966 0 204.558)"/><path style="stroke:none;fill-rule:nonzero;fill:#e6fbb6;fill-opacity:1" d="m36.969 95.523-8.27-29.535 12.797 28.028"/><path style="fill:none;stroke-width:5;stroke-linecap:round;stroke-linejoin:round;stroke:#000;stroke-opacity:1;stroke-miterlimit:10" d="m370.96 1094.105-82.98 296.369" transform="matrix(.09966 0 0 -.09966 0 204.558)"/><path style="stroke:none;fill-rule:nonzero;fill:#e6fbb6;fill-opacity:1" d="M49.77 112.152 36.969 95.523l4.527-1.507"/><path style="fill:none;stroke-width:5;stroke-linecap:round;stroke-linejoin:round;stroke:#000;stroke-opacity:1;stroke-miterlimit:10" d="m499.41 927.243-128.45 166.862" transform="matrix(.09966 0 0 -.09966 0 204.558)"/><path style="stroke:none;fill-rule:nonzero;fill:#c14400;fill-opacity:1" d="M36.969 95.523 5.355 125.586l26.782-28.453"/><path style="fill:none;stroke-width:5;stroke-linecap:round;stroke-linejoin:round;stroke:#000;stroke-opacity:1;stroke-miterlimit:10" d="M370.96 1094.105 53.74 792.445" transform="matrix(.09966 0 0 -.09966 0 204.558)"/><path style="fill-rule:nonzero;fill:#3345b5;fill-opacity:1;stroke-width:5;stroke-linecap:round;stroke-linejoin:round;stroke:#000;stroke-opacity:1;stroke-miterlimit:10" d="m514.657 1460.48-226.676-70.006 82.98-296.37" transform="matrix(.09966 0 0 -.09966 0 204.558)"/><path style="fill-rule:nonzero;fill:#3345b5;fill-opacity:1;stroke-width:5;stroke-linecap:round;stroke-linejoin:round;stroke:#000;stroke-opacity:1;stroke-miterlimit:10" d="m370.96 1094.105 111.125 153.535 32.572 212.84" transform="matrix(.09966 0 0 -.09966 0 204.558)"/><path style="stroke:none;fill-rule:nonzero;fill:#c14400;fill-opacity:1" d="m48.043 80.223-11.074 15.3-4.832 1.61"/><path style="fill:none;stroke-width:5;stroke-linecap:round;stroke-linejoin:round;stroke:#000;stroke-opacity:1;stroke-miterlimit:10" d="M482.085 1247.64 370.96 1094.105" transform="matrix(.09966 0 0 -.09966 0 204.558)"/><path style="stroke:none;fill-rule:nonzero;fill:#f8c153;fill-opacity:1" d="m51.29 59.012-3.247 21.21-1.125-20.85"/><path style="fill:none;stroke-width:5;stroke-linecap:round;stroke-linejoin:round;stroke:#000;stroke-opacity:1;stroke-miterlimit:10" d="m514.657 1460.48-32.572-212.84" transform="matrix(.09966 0 0 -.09966 0 204.558)"/><path style="stroke:none;fill-rule:nonzero;fill:#f8c153;fill-opacity:1" d="m44.988 23.645 6.301 35.367-4.371.36"/><path style="fill:none;stroke-width:5;stroke-linecap:round;stroke-linejoin:round;stroke:#000;stroke-opacity:1;stroke-miterlimit:10" d="m451.433 1815.37 63.224-354.89" transform="matrix(.09966 0 0 -.09966 0 204.558)"/><path style="stroke:none;fill-rule:nonzero;fill:#6b2e2e;fill-opacity:1" d="m51.29 59.012 21.526-5.114-17.437 4.778"/><path style="fill:none;stroke-width:5;stroke-linecap:round;stroke-linejoin:round;stroke:#000;stroke-opacity:1;stroke-miterlimit:10" d="m514.657 1460.48 216.015 51.309" transform="matrix(.09966 0 0 -.09966 0 204.558)"/><path style="fill-rule:nonzero;fill:#a96d8e;fill-opacity:1;stroke-width:5;stroke-linecap:round;stroke-linejoin:round;stroke:#000;stroke-opacity:1;stroke-miterlimit:10" d="m1868.445 1273.98-502.467-117.513-110.3 162.668" transform="matrix(.09966 0 0 -.09966 0 204.558)"/><path style="fill-rule:nonzero;fill:#9c91c8;fill-opacity:1;stroke-width:5;stroke-linecap:round;stroke-linejoin:round;stroke:#000;stroke-opacity:1;stroke-miterlimit:10" d="m1345.596 953.897 20.382 202.57 502.467 117.513" transform="matrix(.09966 0 0 -.09966 0 204.558)"/><path style="fill-rule:nonzero;fill:#c0abc5;fill-opacity:1;stroke-width:5;stroke-linecap:round;stroke-linejoin:round;stroke:#000;stroke-opacity:1;stroke-miterlimit:10" d="m1490.115 366.647-486.043 184.931 24.459 208.176" transform="matrix(.09966 0 0 -.09966 0 204.558)"/><path style="fill-rule:nonzero;fill:#8b69a5;fill-opacity:1;stroke-width:5;stroke-linecap:round;stroke-linejoin:round;stroke:#000;stroke-opacity:1;stroke-miterlimit:10" d="m1345.596 953.897 179.64-85.567-35.12-501.683" transform="matrix(.09966 0 0 -.09966 0 204.558)"/><path style="fill-rule:nonzero;fill:#c59605;fill-opacity:1;stroke-width:5;stroke-linecap:round;stroke-linejoin:round;stroke:#000;stroke-opacity:1;stroke-miterlimit:10" d="m1496.818 625.857-6.703-259.21 21.559 307.618" transform="matrix(.09966 0 0 -.09966 0 204.558)"/><path style="fill-rule:nonzero;fill:#c5604d;fill-opacity:1;stroke-width:5;stroke-linecap:round;stroke-linejoin:round;stroke:#000;stroke-opacity:1;stroke-miterlimit:10" d="m1490.115 366.647 6.703 259.21-211.311-62.323" transform="matrix(.09966 0 0 -.09966 0 204.558)"/><path style="stroke:none;fill-rule:nonzero;fill:#1c9be6;fill-opacity:1" d="m149.168 142.188 33.516-1.825-34.512 5.078"/><path style="fill:none;stroke-width:5;stroke-linecap:round;stroke-linejoin:round;stroke:#000;stroke-opacity:1;stroke-miterlimit:10" d="m1496.818 625.857 336.31 18.305" transform="matrix(.09966 0 0 -.09966 0 204.558)"/><path style="stroke:none;fill-rule:nonzero;fill:#1c9be6;fill-opacity:1" d="m128.11 148.398 21.058-6.21-.996 3.253"/><path style="fill:none;stroke-width:5;stroke-linecap:round;stroke-linejoin:round;stroke:#000;stroke-opacity:1;stroke-miterlimit:10" d="m1285.507 563.534 211.311 62.323" transform="matrix(.09966 0 0 -.09966 0 204.558)"/><path style="stroke:none;fill-rule:nonzero;fill:#c59605;fill-opacity:1" d="m150.648 137.363 1.352-19.34-2.832 24.165"/><path style="fill:none;stroke-width:5;stroke-linecap:round;stroke-linejoin:round;stroke:#000;stroke-opacity:1;stroke-miterlimit:10" d="m1511.674 674.265 13.562 194.065" transform="matrix(.09966 0 0 -.09966 0 204.558)"/><path style="fill-rule:nonzero;fill:#99f1ee;fill-opacity:1;stroke-width:5;stroke-linecap:round;stroke-linejoin:round;stroke:#000;stroke-opacity:1;stroke-miterlimit:10" d="m1190.689 480.553 299.426-113.906-331.49 55.385" transform="matrix(.09966 0 0 -.09966 0 204.558)"/><path style="fill-rule:nonzero;fill:#c5604d;fill-opacity:1;stroke-width:5;stroke-linecap:round;stroke-linejoin:round;stroke:#000;stroke-opacity:1;stroke-miterlimit:10" d="m1285.507 563.534-126.881-141.502 331.49-55.385" transform="matrix(.09966 0 0 -.09966 0 204.558)"/><path style="stroke:none;fill-rule:nonzero;fill:#00028b;fill-opacity:1" d="m115.465 162.5 12.644-14.102-14.793 18.032"/><path style="fill:none;stroke-width:5;stroke-linecap:round;stroke-linejoin:round;stroke:#000;stroke-opacity:1;stroke-miterlimit:10" d="m1158.626 422.032 126.88 141.502" transform="matrix(.09966 0 0 -.09966 0 204.558)"/><path style="stroke:none;fill-rule:nonzero;fill:#00028b;fill-opacity:1" d="m88.406 196.79 27.059-34.29-2.149 3.93"/><path style="fill:none;stroke-width:5;stroke-linecap:round;stroke-linejoin:round;stroke:#000;stroke-opacity:1;stroke-miterlimit:10" d="m887.108 77.96 271.518 344.072" transform="matrix(.09966 0 0 -.09966 0 204.558)"/><path style="stroke:none;fill-rule:nonzero;fill:#99f1ee;fill-opacity:1" d="m100.063 149.59 18.597 7.078-3.195 5.832"/><path style="fill:none;stroke-width:5;stroke-linecap:round;stroke-linejoin:round;stroke:#000;stroke-opacity:1;stroke-miterlimit:10" d="m1004.072 551.578 186.617-71.025" transform="matrix(.09966 0 0 -.09966 0 204.558)"/><path style="fill-rule:nonzero;fill:#c897a4;fill-opacity:1;stroke-width:5;stroke-linecap:round;stroke-linejoin:round;stroke:#000;stroke-opacity:1;stroke-miterlimit:10" d="m882.6 1346.652-118.218 166.822 344.856 400.555" transform="matrix(.09966 0 0 -.09966 0 204.558)"/><path style="fill-rule:nonzero;fill:#9c91c8;fill-opacity:1;stroke-width:5;stroke-linecap:round;stroke-linejoin:round;stroke:#000;stroke-opacity:1;stroke-miterlimit:10" d="m1868.445 1273.98-343.21-405.65-179.64 85.567" transform="matrix(.09966 0 0 -.09966 0 204.558)"/><path style="fill-rule:nonzero;fill:#f8c153;fill-opacity:1;stroke-width:5;stroke-linecap:round;stroke-linejoin:round;stroke:#000;stroke-opacity:1;stroke-miterlimit:10" d="m467.386 712.326 32.024 214.917 40.686 20.147" transform="matrix(.09966 0 0 -.09966 0 204.558)"/><path style="fill-rule:nonzero;fill:#a96d8e;fill-opacity:1;stroke-width:5;stroke-linecap:round;stroke-linejoin:round;stroke:#000;stroke-opacity:1;stroke-miterlimit:10" d="m1255.678 1319.135 122.138 150.635 490.63-195.79" transform="matrix(.09966 0 0 -.09966 0 204.558)"/><path style="fill-rule:nonzero;fill:#8b69a5;fill-opacity:1;stroke-width:5;stroke-linecap:round;stroke-linejoin:round;stroke:#000;stroke-opacity:1;stroke-miterlimit:10" d="m1109.238 1914.029 268.578-444.26-122.138-150.634" transform="matrix(.09966 0 0 -.09966 0 204.558)"/><path style="fill-rule:nonzero;fill:#99f1ee;fill-opacity:1;stroke-width:5;stroke-linecap:round;stroke-linejoin:round;stroke:#000;stroke-opacity:1;stroke-miterlimit:10" d="M1158.626 422.032 978.476 518.3l25.596 33.278" transform="matrix(.09966 0 0 -.09966 0 204.558)"/><path style="fill-rule:nonzero;fill:#c66e67;fill-opacity:1;stroke-width:5;stroke-linecap:round;stroke-linejoin:round;stroke:#000;stroke-opacity:1;stroke-miterlimit:10" d="m514.657 1460.48-63.224 354.89 396.674-142.873" transform="matrix(.09966 0 0 -.09966 0 204.558)"/><path style="stroke:none;fill-rule:nonzero;fill:#59d0bc;fill-opacity:1" d="M84.52 37.883 44.988 23.645l36.285 13.863"/><path style="fill:none;stroke-width:5;stroke-linecap:round;stroke-linejoin:round;stroke:#000;stroke-opacity:1;stroke-miterlimit:10" d="M848.107 1672.497 451.433 1815.37" transform="matrix(.09966 0 0 -.09966 0 204.558)"/><path style="stroke:none;fill-rule:nonzero;fill:#c14400;fill-opacity:1" d="M72.816 53.898 84.52 37.883l3.039.351"/><path style="fill:none;stroke-width:5;stroke-linecap:round;stroke-linejoin:round;stroke:#000;stroke-opacity:1;stroke-miterlimit:10" d="m730.672 1511.789 117.435 160.708" transform="matrix(.09966 0 0 -.09966 0 204.558)"/><path style="fill-rule:nonzero;fill:#c14400;fill-opacity:1;stroke-width:5;stroke-linecap:round;stroke-linejoin:round;stroke:#000;stroke-opacity:1;stroke-miterlimit:10" d="m1109.238 1914.029-344.856-400.555-33.71-1.685" transform="matrix(.09966 0 0 -.09966 0 204.558)"/><path style="fill-rule:nonzero;fill:#c66e67;fill-opacity:1;stroke-width:5;stroke-linecap:round;stroke-linejoin:round;stroke:#000;stroke-opacity:1;stroke-miterlimit:10" d="m848.107 1672.497-117.435-160.708-216.015-51.31" transform="matrix(.09966 0 0 -.09966 0 204.558)"/><path style="stroke:none;fill-rule:nonzero;fill:#59d0bc;fill-opacity:1" d="m102.723 45.703-18.203-7.82-3.247-.375"/><path style="fill:none;stroke-width:5;stroke-linecap:round;stroke-linejoin:round;stroke:#000;stroke-opacity:1;stroke-miterlimit:10" d="m1030.765 1594.024-182.658 78.473" transform="matrix(.09966 0 0 -.09966 0 204.558)"/><path style="stroke:none;fill-rule:nonzero;fill:#c14400;fill-opacity:1" d="m84.52 37.883 26.023-24.07-22.984 24.421"/><path style="fill:none;stroke-width:5;stroke-linecap:round;stroke-linejoin:round;stroke:#000;stroke-opacity:1;stroke-miterlimit:10" d="m848.107 1672.497 261.13 241.532" transform="matrix(.09966 0 0 -.09966 0 204.558)"/><path style="fill-rule:nonzero;fill:#bae480;fill-opacity:1;stroke-width:5;stroke-linecap:round;stroke-linejoin:round;stroke:#000;stroke-opacity:1;stroke-miterlimit:10" d="m1364.293 1466.634 13.523 3.136-268.578 444.259" transform="matrix(.09966 0 0 -.09966 0 204.558)"/><path style="fill-rule:nonzero;fill:#a4c3f0;fill-opacity:1;stroke-width:5;stroke-linecap:round;stroke-linejoin:round;stroke:#000;stroke-opacity:1;stroke-miterlimit:10" d="m1246.427 1645.137-137.19 268.892-261.13-241.532" transform="matrix(.09966 0 0 -.09966 0 204.558)"/><path style="fill-rule:nonzero;fill:#a4c3f0;fill-opacity:1;stroke-width:5;stroke-linecap:round;stroke-linejoin:round;stroke:#000;stroke-opacity:1;stroke-miterlimit:10" d="m848.107 1672.497 182.658-78.473 215.662 51.113" transform="matrix(.09966 0 0 -.09966 0 204.558)"/><path style="stroke:none;fill-rule:nonzero;fill:#6b2e2e;fill-opacity:1" d="m124.215 40.61-21.492 5.093 19.613-5.375"/><path style="fill:none;stroke-width:5;stroke-linecap:round;stroke-linejoin:round;stroke:#000;stroke-opacity:1;stroke-miterlimit:10" d="m1246.427 1645.137-215.662-51.113" transform="matrix(.09966 0 0 -.09966 0 204.558)"/><path style="stroke:none;fill-rule:nonzero;fill:#bae480;fill-opacity:1" d="m110.543 13.813 13.672 26.796 1.754.266"/><path style="fill:none;stroke-width:5;stroke-linecap:round;stroke-linejoin:round;stroke:#000;stroke-opacity:1;stroke-miterlimit:10" d="m1109.238 1914.029 137.19-268.892" transform="matrix(.09966 0 0 -.09966 0 204.558)"/><path style="stroke:none;fill-rule:nonzero;fill:#6b2e2e;fill-opacity:1" d="m156.086 31.078-31.871 9.531-1.88-.28"/><path style="fill:none;stroke-width:5;stroke-linecap:round;stroke-linejoin:round;stroke:#000;stroke-opacity:1;stroke-miterlimit:10" d="m1566.236 1740.778-319.809-95.64" transform="matrix(.09966 0 0 -.09966 0 204.558)"/><path style="stroke:none;fill-rule:nonzero;fill:#bae480;fill-opacity:1" d="m124.215 40.61 11.746 17.788-9.992-17.523"/><path style="fill:none;stroke-width:5;stroke-linecap:round;stroke-linejoin:round;stroke:#000;stroke-opacity:1;stroke-miterlimit:10" d="m1246.427 1645.137 117.866-178.503" transform="matrix(.09966 0 0 -.09966 0 204.558)"/><path style="stroke:none;fill-rule:nonzero;fill:#00028b;fill-opacity:1" d="m152 118.023 13.102-15.484-.696 2.95"/><path style="fill:none;stroke-width:5;stroke-linecap:round;stroke-linejoin:round;stroke:#000;stroke-opacity:1;stroke-miterlimit:10" d="m1525.236 868.33 131.467 155.377" transform="matrix(.09966 0 0 -.09966 0 204.558)"/><path style="fill-rule:nonzero;fill:#c59605;fill-opacity:1;stroke-width:5;stroke-linecap:round;stroke-linejoin:round;stroke:#000;stroke-opacity:1;stroke-miterlimit:10" d="m1525.236 868.33-8.623-23.126-19.795-219.347" transform="matrix(.09966 0 0 -.09966 0 204.558)"/><path style="fill-rule:nonzero;fill:#00028b;fill-opacity:1;stroke-width:5;stroke-linecap:round;stroke-linejoin:round;stroke:#000;stroke-opacity:1;stroke-miterlimit:10" d="m1649.726 994.113-133.113-148.91 8.623 23.127" transform="matrix(.09966 0 0 -.09966 0 204.558)"/><path style="fill-rule:nonzero;fill:#565bbb;fill-opacity:1;stroke-width:5;stroke-linecap:round;stroke-linejoin:round;stroke:#000;stroke-opacity:1;stroke-miterlimit:10" d="m1516.613 845.204 133.113 148.91 183.403-349.952" transform="matrix(.09966 0 0 -.09966 0 204.558)"/><path style="stroke:none;fill-rule:nonzero;fill:#bae480;fill-opacity:1" d="m152.04 89.566 11.593 19.215.773-3.293"/><path style="fill:none;stroke-width:5;stroke-linecap:round;stroke-linejoin:round;stroke:#000;stroke-opacity:1;stroke-miterlimit:10" d="m1525.628 1153.88 116.337-192.81" transform="matrix(.09966 0 0 -.09966 0 204.558)"/><path style="fill-rule:nonzero;fill:#bae480;fill-opacity:1;stroke-width:5;stroke-linecap:round;stroke-linejoin:round;stroke:#000;stroke-opacity:1;stroke-miterlimit:10" d="m1641.965 961.07 191.164-316.908-183.403 349.951" transform="matrix(.09966 0 0 -.09966 0 204.558)"/><path style="fill-rule:nonzero;fill:#00028b;fill-opacity:1;stroke-width:5;stroke-linecap:round;stroke-linejoin:round;stroke:#000;stroke-opacity:1;stroke-miterlimit:10" d="m1656.703 1023.707 211.742 250.273-218.72-279.867" transform="matrix(.09966 0 0 -.09966 0 204.558)"/><path style="stroke:none;fill-rule:nonzero;fill:#59d0bc;fill-opacity:1" d="m156.086 65.578-18.777-7.492 17.586 8.422"/><path style="fill:none;stroke-width:5;stroke-linecap:round;stroke-linejoin:round;stroke:#000;stroke-opacity:1;stroke-miterlimit:10" d="m1566.236 1394.59-188.42 75.18" transform="matrix(.09966 0 0 -.09966 0 204.558)"/><path style="fill-rule:nonzero;fill:#59d0bc;fill-opacity:1;stroke-width:5;stroke-linecap:round;stroke-linejoin:round;stroke:#000;stroke-opacity:1;stroke-miterlimit:10" d="m1377.816 1469.77-13.523-3.136 189.988-81.373" transform="matrix(.09966 0 0 -.09966 0 204.558)"/><path style="fill-rule:nonzero;fill:#641c5c;fill-opacity:1;stroke-width:5;stroke-linecap:round;stroke-linejoin:round;stroke:#000;stroke-opacity:1;stroke-miterlimit:10" d="m1566.236 1740.778-11.955-355.517-189.988 81.373" transform="matrix(.09966 0 0 -.09966 0 204.558)"/><path style="stroke:none;fill-rule:nonzero;fill:#c59605;fill-opacity:1" d="m154.895 66.508 1.19-35.43-1.995 36.059"/><path style="fill:none;stroke-width:5;stroke-linecap:round;stroke-linejoin:round;stroke:#000;stroke-opacity:1;stroke-miterlimit:10" d="m1554.28 1385.26 11.956 355.518" transform="matrix(.09966 0 0 -.09966 0 204.558)"/><path style="stroke:none;fill-rule:nonzero;fill:#c59605;fill-opacity:1" d="m152.922 88.16 1.973-21.652-.805.629"/><path style="fill:none;stroke-width:5;stroke-linecap:round;stroke-linejoin:round;stroke:#000;stroke-opacity:1;stroke-miterlimit:10" d="m1534.486 1167.991 19.795 217.27" transform="matrix(.09966 0 0 -.09966 0 204.558)"/><path style="fill-rule:nonzero;fill:#59d0bc;fill-opacity:1;stroke-width:5;stroke-linecap:round;stroke-linejoin:round;stroke:#000;stroke-opacity:1;stroke-miterlimit:10" d="m1554.28 1385.26 314.165-111.28-302.209 120.61" transform="matrix(.09966 0 0 -.09966 0 204.558)"/><path style="fill-rule:nonzero;fill:#ebcbb5;fill-opacity:1;stroke-width:5;stroke-linecap:round;stroke-linejoin:round;stroke:#000;stroke-opacity:1;stroke-miterlimit:10" d="m1534.486 1167.991 115.24-173.878 218.72 279.867M1868.445 1273.98l-314.164 111.28-19.795-217.269" transform="matrix(.09966 0 0 -.09966 0 204.558)"/><path style="fill-rule:nonzero;fill:#e2c2b7;fill-opacity:1;stroke-width:5;stroke-linecap:round;stroke-linejoin:round;stroke:#000;stroke-opacity:1;stroke-miterlimit:10" d="m370.96 1094.105 128.45-166.862-32.024-214.917" transform="matrix(.09966 0 0 -.09966 0 204.558)"/><path style="fill-rule:nonzero;fill:#aabce7;fill-opacity:1;stroke-width:5;stroke-linecap:round;stroke-linejoin:round;stroke:#000;stroke-opacity:1;stroke-miterlimit:10" d="m978.476 518.3 180.15-96.268L887.108 77.96" transform="matrix(.09966 0 0 -.09966 0 204.558)"/><path style="fill-rule:nonzero;fill:#aabce7;fill-opacity:1;stroke-width:5;stroke-linecap:round;stroke-linejoin:round;stroke:#000;stroke-opacity:1;stroke-miterlimit:10" d="M887.108 77.96 766.655 456.37 978.476 518.3" transform="matrix(.09966 0 0 -.09966 0 204.558)"/><path style="fill-rule:nonzero;fill:#e2c2b7;fill-opacity:1;stroke-width:5;stroke-linecap:round;stroke-linejoin:round;stroke:#000;stroke-opacity:1;stroke-miterlimit:10" d="M467.386 712.326 53.739 792.444l317.222 301.66" transform="matrix(.09966 0 0 -.09966 0 204.558)"/><path style="fill-rule:nonzero;fill:#565bbb;fill-opacity:1;stroke-width:5;stroke-linecap:round;stroke-linejoin:round;stroke:#000;stroke-opacity:1;stroke-miterlimit:10" d="m1833.129 644.162-336.311-18.305 19.795 219.347" transform="matrix(.09966 0 0 -.09966 0 204.558)"/><path style="fill-rule:nonzero;fill:#641c5c;fill-opacity:1;stroke-width:5;stroke-linecap:round;stroke-linejoin:round;stroke:#000;stroke-opacity:1;stroke-miterlimit:10" d="m1364.293 1466.634-117.866 178.503 319.809 95.641" transform="matrix(.09966 0 0 -.09966 0 204.558)"/><path style="fill-rule:nonzero;fill:#e6fbb6;fill-opacity:1;stroke-width:5;stroke-linecap:round;stroke-linejoin:round;stroke:#000;stroke-opacity:1;stroke-miterlimit:10" d="m887.108 77.96-286.61 507.602 39.864 32.965" transform="matrix(.09966 0 0 -.09966 0 204.558)"/><path style="stroke:none;fill-rule:nonzero;fill:#825fa1;fill-opacity:1" d="m59.844 146.203 28.562 50.586-10.156-40.504"/><path style="fill:none;stroke-width:5;stroke-linecap:round;stroke-linejoin:round;stroke:#000;stroke-opacity:1;stroke-miterlimit:10" d="M600.499 585.562 887.108 77.96" transform="matrix(.09966 0 0 -.09966 0 204.558)"/><path style="stroke:none;fill-rule:nonzero;fill:#99f1ee;fill-opacity:1" d="m63.816 142.918-3.972 3.285-17.758-9.726"/><path style="fill:none;stroke-width:5;stroke-linecap:round;stroke-linejoin:round;stroke:#000;stroke-opacity:1;stroke-miterlimit:10" d="M640.362 618.527 600.5 585.562" transform="matrix(.09966 0 0 -.09966 0 204.558)"/><path style="stroke:none;fill-rule:nonzero;fill:#825fa1;fill-opacity:1" d="m71.941 131.137-12.097 15.066 18.406 10.082"/><path style="fill:none;stroke-width:5;stroke-linecap:round;stroke-linejoin:round;stroke:#000;stroke-opacity:1;stroke-miterlimit:10" d="M721.892 736.745 600.5 585.562" transform="matrix(.09966 0 0 -.09966 0 204.558)"/><path style="stroke:none;fill-rule:nonzero;fill:#99f1ee;fill-opacity:1" d="M59.844 146.203 5.355 125.586l36.73 10.89"/><path style="fill:none;stroke-width:5;stroke-linecap:round;stroke-linejoin:round;stroke:#000;stroke-opacity:1;stroke-miterlimit:10" d="M600.499 585.562 53.739 792.444" transform="matrix(.09966 0 0 -.09966 0 204.558)"/><path style="fill-rule:nonzero;fill:#f8c153;fill-opacity:1;stroke-width:5;stroke-linecap:round;stroke-linejoin:round;stroke:#000;stroke-opacity:1;stroke-miterlimit:10" d="m482.085 1247.64-45.547-11.093 14.895 578.823" transform="matrix(.09966 0 0 -.09966 0 204.558)"/><path style="stroke:none;fill-rule:nonzero;fill:#c14400;fill-opacity:1" d="m43.504 81.328 4.539-1.105-15.906 16.91"/><path style="fill:none;stroke-width:5;stroke-linecap:round;stroke-linejoin:round;stroke:#000;stroke-opacity:1;stroke-miterlimit:10" d="m436.538 1236.547 45.547 11.093" transform="matrix(.09966 0 0 -.09966 0 204.558)"/><path style="stroke:none;fill-rule:nonzero;fill:#825fa1;fill-opacity:1" d="m43.504 81.328 18.191 8.938-6.367-25.375"/><path style="fill:none;stroke-width:5;stroke-linecap:round;stroke-linejoin:round;stroke:#000;stroke-opacity:1;stroke-miterlimit:10" d="m436.538 1236.547 182.54-89.683" transform="matrix(.09966 0 0 -.09966 0 204.558)"/><path style="stroke:none;fill-rule:nonzero;fill:#825fa1;fill-opacity:1" d="m44.988 23.645-1.484 57.683 11.824-16.437"/><path style="fill:none;stroke-width:5;stroke-linecap:round;stroke-linejoin:round;stroke:#000;stroke-opacity:1;stroke-miterlimit:10" d="m451.433 1815.37-14.895-578.823" transform="matrix(.09966 0 0 -.09966 0 204.558)"/><path style="stroke:none;fill-rule:nonzero;fill:#c14400;fill-opacity:1" d="m5.355 125.586 38.149-44.258-11.367 15.805"/><path style="fill:none;stroke-width:5;stroke-linecap:round;stroke-linejoin:round;stroke:#000;stroke-opacity:1;stroke-miterlimit:10" d="m53.74 792.444 382.798 444.103" transform="matrix(.09966 0 0 -.09966 0 204.558)"/><path style="fill-rule:nonzero;fill:#bae480;fill-opacity:1;stroke-width:5;stroke-linecap:round;stroke-linejoin:round;stroke:#000;stroke-opacity:1;stroke-miterlimit:10" d="m1649.726 994.113-115.24 173.878-8.858-14.11" transform="matrix(.09966 0 0 -.09966 0 204.558)"/><path style="fill-rule:nonzero;fill:#1c9be6;fill-opacity:1;stroke-width:5;stroke-linecap:round;stroke-linejoin:round;stroke:#000;stroke-opacity:1;stroke-miterlimit:10" d="m1833.129 644.162-565.183-115.867 17.56 35.239" transform="matrix(.09966 0 0 -.09966 0 204.558)"/><path style="stroke:none;fill-rule:nonzero;fill:#a66585;fill-opacity:1" d="m126.36 151.91 56.324-11.547-42.746-3.562"/><path style="fill:none;stroke-width:5;stroke-linecap:round;stroke-linejoin:round;stroke:#000;stroke-opacity:1;stroke-miterlimit:10" d="m1267.946 528.295 565.183 115.867" transform="matrix(.09966 0 0 -.09966 0 204.558)"/><path style="stroke:none;fill-rule:nonzero;fill:#00028b;fill-opacity:1" d="m128.11 148.398-1.75 3.512-13.044 14.52"/><path style="fill:none;stroke-width:5;stroke-linecap:round;stroke-linejoin:round;stroke:#000;stroke-opacity:1;stroke-miterlimit:10" d="m1285.507 563.534-17.56-35.239" transform="matrix(.09966 0 0 -.09966 0 204.558)"/><path style="stroke:none;fill-rule:nonzero;fill:#a66585;fill-opacity:1" d="m113.797 134.625 12.562 17.285 13.579-15.11"/><path style="fill:none;stroke-width:5;stroke-linecap:round;stroke-linejoin:round;stroke:#000;stroke-opacity:1;stroke-miterlimit:10" d="m1141.889 701.742 126.057-173.447" transform="matrix(.09966 0 0 -.09966 0 204.558)"/><path style="stroke:none;fill-rule:nonzero;fill:#00028b;fill-opacity:1" d="m126.36 151.91-37.954 44.88 24.91-30.36"/><path style="fill:none;stroke-width:5;stroke-linecap:round;stroke-linejoin:round;stroke:#000;stroke-opacity:1;stroke-miterlimit:10" d="M1267.946 528.295 887.108 77.96" transform="matrix(.09966 0 0 -.09966 0 204.558)"/><path style="stroke:none;fill-rule:nonzero;fill:#9791cb;fill-opacity:1" d="m100.063 45.598-2.797 22.359 22.28-13.969"/><path style="fill:none;stroke-width:5;stroke-linecap:round;stroke-linejoin:round;stroke:#000;stroke-opacity:1;stroke-miterlimit:10" d="m1004.072 1595.082-28.065-224.363" transform="matrix(.09966 0 0 -.09966 0 204.558)"/><path style="stroke:none;fill-rule:nonzero;fill:#59d0bc;fill-opacity:1" d="m100.063 45.598 2.66.105-21.45-8.195"/><path style="fill:none;stroke-width:5;stroke-linecap:round;stroke-linejoin:round;stroke:#000;stroke-opacity:1;stroke-miterlimit:10" d="m1004.072 1595.082 26.693-1.058" transform="matrix(.09966 0 0 -.09966 0 204.558)"/><path style="fill-rule:nonzero;fill:#6b2e2e;fill-opacity:1;stroke-width:5;stroke-linecap:round;stroke-linejoin:round;stroke:#000;stroke-opacity:1;stroke-miterlimit:10" d="m1030.765 1594.024-26.693 1.058 562.164 145.696" transform="matrix(.09966 0 0 -.09966 0 204.558)"/><path style="stroke:none;fill-rule:nonzero;fill:#9791cb;fill-opacity:1" d="m156.086 31.078-56.024 14.52 19.485 8.39"/><path style="fill:none;stroke-width:5;stroke-linecap:round;stroke-linejoin:round;stroke:#000;stroke-opacity:1;stroke-miterlimit:10" d="m1566.236 1740.778-562.164-145.696" transform="matrix(.09966 0 0 -.09966 0 204.558)"/><path style="stroke:none;fill-rule:nonzero;fill:#59d0bc;fill-opacity:1" d="m44.988 23.645 55.075 21.953-18.79-8.09"/><path style="fill:none;stroke-width:5;stroke-linecap:round;stroke-linejoin:round;stroke:#000;stroke-opacity:1;stroke-miterlimit:10" d="m451.433 1815.37 552.639-220.288" transform="matrix(.09966 0 0 -.09966 0 204.558)"/><path style="fill-rule:nonzero;fill:#c59605;fill-opacity:1;stroke-width:5;stroke-linecap:round;stroke-linejoin:round;stroke:#000;stroke-opacity:1;stroke-miterlimit:10" d="m1566.236 1740.778-40.608-586.898 8.858 14.111" transform="matrix(.09966 0 0 -.09966 0 204.558)"/><path style="fill-rule:nonzero;fill:#a66585;fill-opacity:1;stroke-width:5;stroke-linecap:round;stroke-linejoin:round;stroke:#000;stroke-opacity:1;stroke-miterlimit:10" d="m392.872 664.152 207.627-78.59 121.393 151.183" transform="matrix(.09966 0 0 -.09966 0 204.558)"/><path style="stroke:none;fill-rule:nonzero;fill:#a66585;fill-opacity:1" d="m5.355 125.586 33.797 12.785 32.79-7.234"/><path style="fill:none;stroke-width:5;stroke-linecap:round;stroke-linejoin:round;stroke:#000;stroke-opacity:1;stroke-miterlimit:10" d="m53.74 792.444 339.132-128.292" transform="matrix(.09966 0 0 -.09966 0 204.558)"/><path style="fill-rule:nonzero;fill:#9791cb;fill-opacity:1;stroke-width:5;stroke-linecap:round;stroke-linejoin:round;stroke:#000;stroke-opacity:1;stroke-miterlimit:10" d="m585.722 915.288 33.356 231.576-182.54 89.683" transform="matrix(.09966 0 0 -.09966 0 204.558)"/><path style="fill-rule:nonzero;fill:#9791cb;fill-opacity:1;stroke-width:5;stroke-linecap:round;stroke-linejoin:round;stroke:#000;stroke-opacity:1;stroke-miterlimit:10" d="M436.538 1236.547 53.739 792.444l531.983 122.844" transform="matrix(.09966 0 0 -.09966 0 204.558)"/><path style="fill-rule:nonzero;fill:#a66585;fill-opacity:1;stroke-width:5;stroke-linecap:round;stroke-linejoin:round;stroke:#000;stroke-opacity:1;stroke-miterlimit:10" d="m721.892 736.745-136.17 178.543L53.739 792.444" transform="matrix(.09966 0 0 -.09966 0 204.558)"/><path style="fill-rule:nonzero;fill:#cb98a1;fill-opacity:1;stroke-width:5;stroke-linecap:round;stroke-linejoin:round;stroke:#000;stroke-opacity:1;stroke-miterlimit:10" d="m887.108 77.96 380.838 450.335-126.057 173.447" transform="matrix(.09966 0 0 -.09966 0 204.558)"/><path style="fill-rule:nonzero;fill:#825fa1;fill-opacity:1;stroke-width:5;stroke-linecap:round;stroke-linejoin:round;stroke:#000;stroke-opacity:1;stroke-miterlimit:10" d="m887.108 77.96 25.556 558.362-190.772 100.423" transform="matrix(.09966 0 0 -.09966 0 204.558)"/><path style="fill-rule:nonzero;fill:#cb98a1;fill-opacity:1;stroke-width:5;stroke-linecap:round;stroke-linejoin:round;stroke:#000;stroke-opacity:1;stroke-miterlimit:10" d="m1141.889 701.742-229.225-65.42L887.108 77.96" transform="matrix(.09966 0 0 -.09966 0 204.558)"/><path style="fill-rule:nonzero;fill:#c2afc8;fill-opacity:1;stroke-width:5;stroke-linecap:round;stroke-linejoin:round;stroke:#000;stroke-opacity:1;stroke-miterlimit:10" d="m976.007 1370.719 28.065 224.363-552.64 220.288" transform="matrix(.09966 0 0 -.09966 0 204.558)"/><path style="fill-rule:nonzero;fill:#4a083f;fill-opacity:1;stroke-width:5;stroke-linecap:round;stroke-linejoin:round;stroke:#000;stroke-opacity:1;stroke-miterlimit:10" d="m721.892 736.745 190.772-100.423-37.668 322.279" transform="matrix(.09966 0 0 -.09966 0 204.558)"/><path style="fill-rule:nonzero;fill:#4a083f;fill-opacity:1;stroke-width:5;stroke-linecap:round;stroke-linejoin:round;stroke:#000;stroke-opacity:1;stroke-miterlimit:10" d="m874.996 958.6-289.274-43.312 136.17-178.543" transform="matrix(.09966 0 0 -.09966 0 204.558)"/><path style="fill-rule:nonzero;fill:#c2afc8;fill-opacity:1;stroke-width:5;stroke-linecap:round;stroke-linejoin:round;stroke:#000;stroke-opacity:1;stroke-miterlimit:10" d="m1833.129 644.162-307.501 509.718-223.463-59.697" transform="matrix(.09966 0 0 -.09966 0 204.558)"/><path style="fill-rule:nonzero;fill:#cb98a1;fill-opacity:1;stroke-width:5;stroke-linecap:round;stroke-linejoin:round;stroke:#000;stroke-opacity:1;stroke-miterlimit:10" d="m1173.717 1281.114 128.448-186.93 223.463 59.696" transform="matrix(.09966 0 0 -.09966 0 204.558)"/><path style="fill-rule:nonzero;fill:#cb98a1;fill-opacity:1;stroke-width:5;stroke-linecap:round;stroke-linejoin:round;stroke:#000;stroke-opacity:1;stroke-miterlimit:10" d="m1525.628 1153.88 40.608 586.898-392.52-459.664" transform="matrix(.09966 0 0 -.09966 0 204.558)"/><path style="fill-rule:nonzero;fill:#825fa1;fill-opacity:1;stroke-width:5;stroke-linecap:round;stroke-linejoin:round;stroke:#000;stroke-opacity:1;stroke-miterlimit:10" d="M619.078 1146.864 743.725 1313.1 451.433 1815.37" transform="matrix(.09966 0 0 -.09966 0 204.558)"/><path style="fill-rule:nonzero;fill:#3345b5;fill-opacity:1;stroke-width:5;stroke-linecap:round;stroke-linejoin:round;stroke:#000;stroke-opacity:1;stroke-miterlimit:10" d="m619.078 1146.864-33.356-231.576L874.996 958.6M874.996 958.6 743.725 1313.1l-124.647-166.235" transform="matrix(.09966 0 0 -.09966 0 204.558)"/><path style="fill-rule:nonzero;fill:#c5604d;fill-opacity:1;stroke-width:5;stroke-linecap:round;stroke-linejoin:round;stroke:#000;stroke-opacity:1;stroke-miterlimit:10" d="m912.664 636.322 229.225 65.42 135.857 157.69" transform="matrix(.09966 0 0 -.09966 0 204.558)"/><path style="fill-rule:nonzero;fill:#a66585;fill-opacity:1;stroke-width:5;stroke-linecap:round;stroke-linejoin:round;stroke:#000;stroke-opacity:1;stroke-miterlimit:10" d="m1833.129 644.162-555.383 215.27-135.857-157.69" transform="matrix(.09966 0 0 -.09966 0 204.558)"/><path style="fill-rule:nonzero;fill:#c2afc8;fill-opacity:1;stroke-width:5;stroke-linecap:round;stroke-linejoin:round;stroke:#000;stroke-opacity:1;stroke-miterlimit:10" d="m451.433 1815.37 292.292-502.271 232.282 57.62" transform="matrix(.09966 0 0 -.09966 0 204.558)"/><path style="fill-rule:nonzero;fill:#9791cb;fill-opacity:1;stroke-width:5;stroke-linecap:round;stroke-linejoin:round;stroke:#000;stroke-opacity:1;stroke-miterlimit:10" d="m976.007 1370.719 197.71-89.605 392.519 459.664" transform="matrix(.09966 0 0 -.09966 0 204.558)"/><path style="fill-rule:nonzero;fill:#a4c3f0;fill-opacity:1;stroke-width:5;stroke-linecap:round;stroke-linejoin:round;stroke:#000;stroke-opacity:1;stroke-miterlimit:10" d="m874.996 958.6 298.72 322.514-197.71 89.605" transform="matrix(.09966 0 0 -.09966 0 204.558)"/><path style="fill-rule:nonzero;fill:#a4c3f0;fill-opacity:1;stroke-width:5;stroke-linecap:round;stroke-linejoin:round;stroke:#000;stroke-opacity:1;stroke-miterlimit:10" d="m976.007 1370.719-232.282-57.62L874.995 958.6" transform="matrix(.09966 0 0 -.09966 0 204.558)"/><path style="fill-rule:nonzero;fill:#ebcbb5;fill-opacity:1;stroke-width:5;stroke-linecap:round;stroke-linejoin:round;stroke:#000;stroke-opacity:1;stroke-miterlimit:10" d="m1302.165 1094.183-128.448 186.931-298.721-322.513M874.996 958.6l402.75-99.168 24.42 234.751" transform="matrix(.09966 0 0 -.09966 0 204.558)"/><path style="fill-rule:nonzero;fill:#c2afc8;fill-opacity:1;stroke-width:5;stroke-linecap:round;stroke-linejoin:round;stroke:#000;stroke-opacity:1;stroke-miterlimit:10" d="m1302.165 1094.183-24.42-234.75 555.384-215.271" transform="matrix(.09966 0 0 -.09966 0 204.558)"/><path style="fill-rule:nonzero;fill:#c5604d;fill-opacity:1;stroke-width:5;stroke-linecap:round;stroke-linejoin:round;stroke:#000;stroke-opacity:1;stroke-miterlimit:10" d="m1277.746 859.432-402.75 99.169 37.668-322.279" transform="matrix(.09966 0 0 -.09966 0 204.558)"/></svg>