<svg xmlns="http://www.w3.org/2000/svg" width="197pt" height="200pt" viewBox="0 0 197 200" version="1.2"><path style="fill-rule:nonzero;fill:#bf9ab1;fill-opacity:1;stroke-width:7.62;stroke-linecap:round;stroke-linejoin:round;stroke:#000;stroke-opacity:1;stroke-miterlimit:10" d="m552.031 1291.133 384.453-22.578-25.703-391.64M910.781 876.914l-383.867 17.93 25.117 396.289" transform="matrix(.1 0 0 -.1 0 200)"/><path style="stroke:none;fill-rule:nonzero;fill:#b08eb2;fill-opacity:1" d="M126.227 95.16 91.078 112.31l2.57-39.164"/><path style="fill:none;stroke-width:7.62;stroke-linecap:round;stroke-linejoin:round;stroke:#000;stroke-opacity:1;stroke-miterlimit:10" d="M1262.266 1048.398 910.78 876.914l25.703 391.64Zm0 0" transform="matrix(.1 0 0 -.1 0 200)"/><path style="fill-rule:nonzero;fill:#bfaec9;fill-opacity:1;stroke-width:7.62;stroke-linecap:round;stroke-linejoin:round;stroke:#000;stroke-opacity:1;stroke-miterlimit:10" d="m910.781 876.914 147.461-343.594L760.86 327.07" transform="matrix(.1 0 0 -.1 0 200)"/><path style="stroke:none;fill-rule:nonzero;fill:#bfaec9;fill-opacity:1" d="m52.691 110.516 38.387 1.793-14.992 54.984"/><path style="fill:none;stroke-width:7.62;stroke-linecap:round;stroke-linejoin:round;stroke:#000;stroke-opacity:1;stroke-miterlimit:10" d="m526.914 894.844 383.867-17.93" transform="matrix(.1 0 0 -.1 0 200)"/><path style="fill-rule:nonzero;fill:#a893c0;fill-opacity:1;stroke-width:7.62;stroke-linecap:round;stroke-linejoin:round;stroke:#000;stroke-opacity:1;stroke-miterlimit:10" d="m910.781 876.914 351.485 171.484 153.75-342.578" transform="matrix(.1 0 0 -.1 0 200)"/><path style="fill-rule:nonzero;fill:#a893c0;fill-opacity:1;stroke-width:7.62;stroke-linecap:round;stroke-linejoin:round;stroke:#000;stroke-opacity:1;stroke-miterlimit:10" d="m1416.016 705.82-357.774-172.5-147.46 343.594" transform="matrix(.1 0 0 -.1 0 200)"/><path style="fill-rule:nonzero;fill:#bb8194;fill-opacity:1;stroke-width:7.62;stroke-linecap:round;stroke-linejoin:round;stroke:#000;stroke-opacity:1;stroke-miterlimit:10" d="m856.719 1802.695 271.133-226.054-191.368-308.086" transform="matrix(.1 0 0 -.1 0 200)"/><path style="stroke:none;fill-rule:nonzero;fill:#bb8194;fill-opacity:1" d="M49.23 37.973 85.672 19.73l7.976 53.415"/><path style="fill:none;stroke-width:7.62;stroke-linecap:round;stroke-linejoin:round;stroke:#000;stroke-opacity:1;stroke-miterlimit:10" d="m492.305 1620.273 364.414 182.422" transform="matrix(.1 0 0 -.1 0 200)"/><path style="fill-rule:nonzero;fill:#bb8194;fill-opacity:1;stroke-width:7.62;stroke-linecap:round;stroke-linejoin:round;stroke:#000;stroke-opacity:1;stroke-miterlimit:10" d="m936.484 1268.555-384.453 22.578-59.726 329.14" transform="matrix(.1 0 0 -.1 0 200)"/><path style="fill-rule:nonzero;fill:#a67ba4;fill-opacity:1;stroke-width:7.62;stroke-linecap:round;stroke-linejoin:round;stroke:#000;stroke-opacity:1;stroke-miterlimit:10" d="m1262.266 1048.398-325.782 220.157 191.368 308.086" transform="matrix(.1 0 0 -.1 0 200)"/><path style="fill-rule:nonzero;fill:#a67ba4;fill-opacity:1;stroke-width:7.62;stroke-linecap:round;stroke-linejoin:round;stroke:#000;stroke-opacity:1;stroke-miterlimit:10" d="m1127.852 1576.64 332.695-223.828-198.281-304.414" transform="matrix(.1 0 0 -.1 0 200)"/><path style="stroke:none;fill-rule:nonzero;fill:#8c72b1;fill-opacity:1" d="m126.227 95.16 19.828-30.441 26.148 56.308"/><path style="fill:none;stroke-width:7.62;stroke-linecap:round;stroke-linejoin:round;stroke:#000;stroke-opacity:1;stroke-miterlimit:10" d="m1262.266 1048.398 198.28 304.415" transform="matrix(.1 0 0 -.1 0 200)"/><path style="fill-rule:nonzero;fill:#8c72b1;fill-opacity:1;stroke-width:7.62;stroke-linecap:round;stroke-linejoin:round;stroke:#000;stroke-opacity:1;stroke-miterlimit:10" d="m1722.031 789.727-306.015-83.907-153.75 342.578" transform="matrix(.1 0 0 -.1 0 200)"/><path style="stroke:none;fill-rule:nonzero;fill:#cfa5ae;fill-opacity:1" d="M52.691 110.516 24.387 89.812l30.816-18.925"/><path style="fill:none;stroke-width:7.62;stroke-linecap:round;stroke-linejoin:round;stroke:#000;stroke-opacity:1;stroke-miterlimit:10" d="m526.914 894.844-283.047 207.031 308.164 189.258Zm0 0" transform="matrix(.1 0 0 -.1 0 200)"/><path style="fill-rule:nonzero;fill:#d8bbbc;fill-opacity:1;stroke-width:7.62;stroke-linecap:round;stroke-linejoin:round;stroke:#000;stroke-opacity:1;stroke-miterlimit:10" d="m243.867 1101.875 283.047-207.031L425.47 556.25" transform="matrix(.1 0 0 -.1 0 200)"/><path style="fill-rule:nonzero;fill:#bfaec9;fill-opacity:1;stroke-width:7.62;stroke-linecap:round;stroke-linejoin:round;stroke:#000;stroke-opacity:1;stroke-miterlimit:10" d="M760.86 327.07 425.468 556.25l101.445 338.594" transform="matrix(.1 0 0 -.1 0 200)"/><path style="fill-rule:nonzero;fill:#d79c97;fill-opacity:1;stroke-width:7.62;stroke-linecap:round;stroke-linejoin:round;stroke:#000;stroke-opacity:1;stroke-miterlimit:10" d="m174.102 1433.047 318.203 187.226 59.726-329.14M552.031 1291.133l-308.164-189.258-69.765 331.172" transform="matrix(.1 0 0 -.1 0 200)"/><path style="fill-rule:nonzero;fill:#a6b0de;fill-opacity:1;stroke-width:7.62;stroke-linecap:round;stroke-linejoin:round;stroke:#000;stroke-opacity:1;stroke-miterlimit:10" d="m1058.242 533.32 276.446-173.554-299.805-216.211" transform="matrix(.1 0 0 -.1 0 200)"/><path style="fill-rule:nonzero;fill:#a6b0de;fill-opacity:1;stroke-width:7.62;stroke-linecap:round;stroke-linejoin:round;stroke:#000;stroke-opacity:1;stroke-miterlimit:10" d="M1034.883 143.555 760.859 327.07l297.383 206.25" transform="matrix(.1 0 0 -.1 0 200)"/><path style="stroke:none;fill-rule:nonzero;fill:#9d99cf;fill-opacity:1" d="m133.469 164.023-27.645-17.355 35.778-17.25"/><path style="fill:none;stroke-width:7.62;stroke-linecap:round;stroke-linejoin:round;stroke:#000;stroke-opacity:1;stroke-miterlimit:10" d="M1334.688 359.766 1058.242 533.32l357.774 172.5Zm0 0" transform="matrix(.1 0 0 -.1 0 200)"/><path style="fill-rule:nonzero;fill:#7e83ce;fill-opacity:1;stroke-width:7.62;stroke-linecap:round;stroke-linejoin:round;stroke:#000;stroke-opacity:1;stroke-miterlimit:10" d="m1416.016 705.82 306.015 83.907-76.367-354.805M1645.664 434.922l-310.976-75.156 81.328 346.054" transform="matrix(.1 0 0 -.1 0 200)"/><path style="fill-rule:nonzero;fill:#9b5071;fill-opacity:1;stroke-width:7.62;stroke-linecap:round;stroke-linejoin:round;stroke:#000;stroke-opacity:1;stroke-miterlimit:10" d="m1425.625 1687.11-297.773-110.47-271.133 226.055" transform="matrix(.1 0 0 -.1 0 200)"/><path style="stroke:none;fill-rule:nonzero;fill:#965f8e;fill-opacity:1" d="m146.055 64.719-33.27-22.383 29.778-11.047"/><path style="fill:none;stroke-width:7.62;stroke-linecap:round;stroke-linejoin:round;stroke:#000;stroke-opacity:1;stroke-miterlimit:10" d="m1460.547 1352.813-332.695 223.828 297.773 110.468Zm0 0" transform="matrix(.1 0 0 -.1 0 200)"/><path style="fill-rule:nonzero;fill:#8c72b1;fill-opacity:1;stroke-width:7.62;stroke-linecap:round;stroke-linejoin:round;stroke:#000;stroke-opacity:1;stroke-miterlimit:10" d="m1460.547 1352.813 290.586-151.485-29.102-411.601" transform="matrix(.1 0 0 -.1 0 200)"/><path style="fill-rule:nonzero;fill:#734185;fill-opacity:1;stroke-width:7.62;stroke-linecap:round;stroke-linejoin:round;stroke:#000;stroke-opacity:1;stroke-miterlimit:10" d="m1751.133 1201.328-290.586 151.485-34.922 334.296" transform="matrix(.1 0 0 -.1 0 200)"/><path style="fill-rule:nonzero;fill:#d8bbbc;fill-opacity:1;stroke-width:7.62;stroke-linecap:round;stroke-linejoin:round;stroke:#000;stroke-opacity:1;stroke-miterlimit:10" d="M425.469 556.25 133.086 759.727l110.781 342.148" transform="matrix(.1 0 0 -.1 0 200)"/><path style="stroke:none;fill-rule:nonzero;fill:#e0d7cd;fill-opacity:1" d="m27.684 160.734-14.375-36.707 29.238 20.348"/><path style="fill:none;stroke-width:7.62;stroke-linecap:round;stroke-linejoin:round;stroke:#000;stroke-opacity:1;stroke-miterlimit:10" d="m276.836 392.656-143.75 367.07L425.469 556.25Zm0 0" transform="matrix(.1 0 0 -.1 0 200)"/><path style="fill-rule:nonzero;fill:#ccd6e1;fill-opacity:1;stroke-width:7.62;stroke-linecap:round;stroke-linejoin:round;stroke:#000;stroke-opacity:1;stroke-miterlimit:10" d="m425.469 556.25 335.39-229.18-134.843-173.672" transform="matrix(.1 0 0 -.1 0 200)"/><path style="fill-rule:nonzero;fill:#ccd6e1;fill-opacity:1;stroke-width:7.62;stroke-linecap:round;stroke-linejoin:round;stroke:#000;stroke-opacity:1;stroke-miterlimit:10" d="m626.016 153.398-349.18 239.258L425.469 556.25" transform="matrix(.1 0 0 -.1 0 200)"/><path style="fill-rule:nonzero;fill:#f8c491;fill-opacity:1;stroke-width:7.62;stroke-linecap:round;stroke-linejoin:round;stroke:#000;stroke-opacity:1;stroke-miterlimit:10" d="M243.867 1101.875 133.086 759.727l-149.102 108.32" transform="matrix(.1 0 0 -.1 0 200)"/><path style="stroke:none;fill-rule:nonzero;fill:#f8c491;fill-opacity:1" d="m17.41 56.695 6.977 33.117-25.989 23.383"/><path style="fill:none;stroke-width:7.62;stroke-linecap:round;stroke-linejoin:round;stroke:#000;stroke-opacity:1;stroke-miterlimit:10" d="m174.102 1433.047 69.765-331.172" transform="matrix(.1 0 0 -.1 0 200)"/><path style="stroke:none;fill-rule:nonzero;fill:#b0cdef;fill-opacity:1" d="m103.488 185.645-40.886-.985 13.484-17.367"/><path style="fill:none;stroke-width:7.62;stroke-linecap:round;stroke-linejoin:round;stroke:#000;stroke-opacity:1;stroke-miterlimit:10" d="m1034.883 143.555-408.867 9.843L760.859 327.07Zm0 0" transform="matrix(.1 0 0 -.1 0 200)"/><path style="stroke:none;fill-rule:nonzero;fill:#0075db;fill-opacity:1" d="M49.23 37.973 17.41 56.695l21.04 3.242"/><path style="fill:none;stroke-width:7.62;stroke-linecap:round;stroke-linejoin:round;stroke:#000;stroke-opacity:1;stroke-miterlimit:10" d="m492.305 1620.273-318.203-187.226" transform="matrix(.1 0 0 -.1 0 200)"/><path style="stroke:none;fill-rule:nonzero;fill:#0075db;fill-opacity:1" d="M85.672 19.73 49.23 37.973 38.45 59.938"/><path style="fill:none;stroke-width:7.62;stroke-linecap:round;stroke-linejoin:round;stroke:#000;stroke-opacity:1;stroke-miterlimit:10" d="m856.719 1802.695-364.414-182.422" transform="matrix(.1 0 0 -.1 0 200)"/><path style="fill-rule:nonzero;fill:#5098f1;fill-opacity:1;stroke-width:7.62;stroke-linecap:round;stroke-linejoin:round;stroke:#000;stroke-opacity:1;stroke-miterlimit:10" d="m1334.688 359.766 310.976 75.156-101.289-175.742" transform="matrix(.1 0 0 -.1 0 200)"/><path style="stroke:none;fill-rule:nonzero;fill:#5098f1;fill-opacity:1" d="m103.488 185.645 29.98-21.622 20.97 10.059"/><path style="fill:none;stroke-width:7.62;stroke-linecap:round;stroke-linejoin:round;stroke:#000;stroke-opacity:1;stroke-miterlimit:10" d="m1034.883 143.555 299.804 216.21" transform="matrix(.1 0 0 -.1 0 200)"/><path style="fill-rule:nonzero;fill:#9b5071;fill-opacity:1;stroke-width:7.62;stroke-linecap:round;stroke-linejoin:round;stroke:#000;stroke-opacity:1;stroke-miterlimit:10" d="m856.719 1802.695 296.914 120.313 271.992-235.899" transform="matrix(.1 0 0 -.1 0 200)"/><path style="stroke:none;fill-rule:nonzero;fill:#0075db;fill-opacity:1" d="M115.363 7.7 85.672 19.73 38.449 59.937"/><path style="fill:none;stroke-width:7.62;stroke-linecap:round;stroke-linejoin:round;stroke:#000;stroke-opacity:1;stroke-miterlimit:10" d="m1153.633 1923.008-296.914-120.313" transform="matrix(.1 0 0 -.1 0 200)"/><path style="fill-rule:nonzero;fill:#302b9a;fill-opacity:1;stroke-width:7.62;stroke-linecap:round;stroke-linejoin:round;stroke:#000;stroke-opacity:1;stroke-miterlimit:10" d="m1866.64 748.71-144.609 41.017 29.102 411.601" transform="matrix(.1 0 0 -.1 0 200)"/><path style="stroke:none;fill-rule:nonzero;fill:#3a52c0;fill-opacity:1" d="m186.664 125.129-22.098 31.379 7.637-35.48"/><path style="fill:none;stroke-width:7.62;stroke-linecap:round;stroke-linejoin:round;stroke:#000;stroke-opacity:1;stroke-miterlimit:10" d="m1866.64 748.71-220.976-313.788 76.367 354.805Zm0 0" transform="matrix(.1 0 0 -.1 0 200)"/><path style="fill-rule:nonzero;fill:#1a0000;fill-opacity:1;stroke-width:7.62;stroke-linecap:round;stroke-linejoin:round;stroke:#000;stroke-opacity:1;stroke-miterlimit:10" d="m1723.555 1541.133-297.93 145.976-271.992 235.899" transform="matrix(.1 0 0 -.1 0 200)"/><path style="fill-rule:nonzero;fill:#734185;fill-opacity:1;stroke-width:7.62;stroke-linecap:round;stroke-linejoin:round;stroke:#000;stroke-opacity:1;stroke-miterlimit:10" d="m1425.625 1687.11 297.93-145.977 27.578-339.805" transform="matrix(.1 0 0 -.1 0 200)"/><path style="stroke:none;fill-rule:nonzero;fill:#28046d;fill-opacity:1" d="m189.754 82.07-14.64-2.203-2.759-33.98"/><path style="fill:none;stroke-width:7.62;stroke-linecap:round;stroke-linejoin:round;stroke:#000;stroke-opacity:1;stroke-miterlimit:10" d="m1897.54 1179.297-146.407 22.031-27.578 339.805Zm0 0" transform="matrix(.1 0 0 -.1 0 200)"/><path style="fill-rule:nonzero;fill:#302b9a;fill-opacity:1;stroke-width:7.62;stroke-linecap:round;stroke-linejoin:round;stroke:#000;stroke-opacity:1;stroke-miterlimit:10" d="m1751.133 1201.328 146.406-22.031-30.898-430.586" transform="matrix(.1 0 0 -.1 0 200)"/><path style="fill-rule:nonzero;fill:#f1f5b2;fill-opacity:1;stroke-width:7.62;stroke-linecap:round;stroke-linejoin:round;stroke:#000;stroke-opacity:1;stroke-miterlimit:10" d="m133.086 759.727 143.75-367.07-145.117 93.398M131.719 486.055-16.016 868.047l149.102-108.32" transform="matrix(.1 0 0 -.1 0 200)"/><path style="fill-rule:nonzero;fill:#f8c491;fill-opacity:1;stroke-width:7.62;stroke-linecap:round;stroke-linejoin:round;stroke:#000;stroke-opacity:1;stroke-miterlimit:10" d="m-16.016 868.047 26.055 434.492 164.063 130.508" transform="matrix(.1 0 0 -.1 0 200)"/><path style="stroke:none;fill-rule:nonzero;fill:#0075db;fill-opacity:1" d="M17.41 56.695 1.004 69.746l37.445-9.808"/><path style="fill:none;stroke-width:7.62;stroke-linecap:round;stroke-linejoin:round;stroke:#000;stroke-opacity:1;stroke-miterlimit:10" d="M174.102 1433.047 10.039 1302.539" transform="matrix(.1 0 0 -.1 0 200)"/><path style="fill-rule:nonzero;fill:#6ad3f8;fill-opacity:1;stroke-width:7.62;stroke-linecap:round;stroke-linejoin:round;stroke:#000;stroke-opacity:1;stroke-miterlimit:10" d="m626.016 153.398 408.867-9.843 114.844-72.032" transform="matrix(.1 0 0 -.1 0 200)"/><path style="fill-rule:nonzero;fill:#5098f1;fill-opacity:1;stroke-width:7.62;stroke-linecap:round;stroke-linejoin:round;stroke:#000;stroke-opacity:1;stroke-miterlimit:10" d="M1544.375 259.18 1149.727 71.523l-114.844 72.032" transform="matrix(.1 0 0 -.1 0 200)"/><path style="fill-rule:nonzero;fill:#00007f;fill-opacity:1;stroke-width:7.62;stroke-linecap:round;stroke-linejoin:round;stroke:#000;stroke-opacity:1;stroke-miterlimit:10" d="m1645.664 434.922 220.977 313.789-93.594-165.586M1773.047 583.125 1544.375 259.18l101.29 175.742" transform="matrix(.1 0 0 -.1 0 200)"/><path style="stroke:none;fill-rule:nonzero;fill:#6ed39d;fill-opacity:1" d="m27.684 160.734 34.918 23.926-21.567-13.765"/><path style="fill:none;stroke-width:7.62;stroke-linecap:round;stroke-linejoin:round;stroke:#000;stroke-opacity:1;stroke-miterlimit:10" d="m276.836 392.656 349.18-239.258" transform="matrix(.1 0 0 -.1 0 200)"/><path style="fill-rule:nonzero;fill:#6ed39d;fill-opacity:1;stroke-width:7.62;stroke-linecap:round;stroke-linejoin:round;stroke:#000;stroke-opacity:1;stroke-miterlimit:10" d="m410.352 291.055-278.633 195 145.117-93.399" transform="matrix(.1 0 0 -.1 0 200)"/><path style="stroke:none;fill-rule:nonzero;fill:#1a0000;fill-opacity:1" d="m115.363 7.7 12.184-1.165 44.808 39.352"/><path style="fill:none;stroke-width:7.62;stroke-linecap:round;stroke-linejoin:round;stroke:#000;stroke-opacity:1;stroke-miterlimit:10" d="m1153.633 1923.008 121.836 11.64" transform="matrix(.1 0 0 -.1 0 200)"/><path style="stroke:none;fill-rule:nonzero;fill:#0075db;fill-opacity:1" d="M127.547 6.535 115.363 7.7 38.45 59.938"/><path style="fill:none;stroke-width:7.62;stroke-linecap:round;stroke-linejoin:round;stroke:#000;stroke-opacity:1;stroke-miterlimit:10" d="m1275.469 1934.648-121.836-11.64" transform="matrix(.1 0 0 -.1 0 200)"/><path style="fill-rule:nonzero;fill:#6ed39d;fill-opacity:1;stroke-width:7.62;stroke-linecap:round;stroke-linejoin:round;stroke:#000;stroke-opacity:1;stroke-miterlimit:10" d="m626.016 153.398 96.914-72.5-312.578 210.157" transform="matrix(.1 0 0 -.1 0 200)"/><path style="fill-rule:nonzero;fill:#6ad3f8;fill-opacity:1;stroke-width:7.62;stroke-linecap:round;stroke-linejoin:round;stroke:#000;stroke-opacity:1;stroke-miterlimit:10" d="M1149.727 71.523 722.93 80.898l-96.914 72.5" transform="matrix(.1 0 0 -.1 0 200)"/><path style="fill-rule:nonzero;fill:#1a0000;fill-opacity:1;stroke-width:7.62;stroke-linecap:round;stroke-linejoin:round;stroke:#000;stroke-opacity:1;stroke-miterlimit:10" d="m1275.469 1934.648 368.672-246.796 79.414-146.72" transform="matrix(.1 0 0 -.1 0 200)"/><path style="fill-rule:nonzero;fill:#aece5b;fill-opacity:1;stroke-width:7.62;stroke-linecap:round;stroke-linejoin:round;stroke:#000;stroke-opacity:1;stroke-miterlimit:10" d="m1897.54 1179.297-173.985 361.836-79.414 146.719" transform="matrix(.1 0 0 -.1 0 200)"/><path style="fill-rule:nonzero;fill:#fdc564;fill-opacity:1;stroke-width:7.62;stroke-linecap:round;stroke-linejoin:round;stroke:#000;stroke-opacity:1;stroke-miterlimit:10" d="m1773.047 583.125 93.594 165.586 30.898 430.586" transform="matrix(.1 0 0 -.1 0 200)"/><path style="stroke:none;fill-rule:nonzero;fill:#fdc564;fill-opacity:1" d="m189.754 82.07-7.27-13.234-5.18 72.852"/><path style="fill:none;stroke-width:7.62;stroke-linecap:round;stroke-linejoin:round;stroke:#000;stroke-opacity:1;stroke-miterlimit:10" d="m1897.54 1179.297-72.696 132.344" transform="matrix(.1 0 0 -.1 0 200)"/><path style="fill-rule:nonzero;fill:#aece5b;fill-opacity:1;stroke-width:7.62;stroke-linecap:round;stroke-linejoin:round;stroke:#000;stroke-opacity:1;stroke-miterlimit:10" d="m1644.14 1687.852 180.704-376.211 72.695-132.344" transform="matrix(.1 0 0 -.1 0 200)"/><path style="stroke:none;fill-rule:nonzero;fill:#000018;fill-opacity:1" d="m5.21 117.145-6.812-3.95 14.774 38.2"/><path style="fill:none;stroke-width:7.62;stroke-linecap:round;stroke-linejoin:round;stroke:#000;stroke-opacity:1;stroke-miterlimit:10" d="m52.11 828.555-68.126 39.492L131.72 486.055Zm0 0" transform="matrix(.1 0 0 -.1 0 200)"/><path style="fill-rule:nonzero;fill:#000068;fill-opacity:1;stroke-width:7.62;stroke-linecap:round;stroke-linejoin:round;stroke:#000;stroke-opacity:1;stroke-miterlimit:10" d="m-16.016 868.047 68.125-39.492 27.54 455.625M79.648 1284.18l-69.609 18.36-26.055-434.493" transform="matrix(.1 0 0 -.1 0 200)"/><path style="fill-rule:nonzero;fill:#0075db;fill-opacity:1;stroke-width:7.62;stroke-linecap:round;stroke-linejoin:round;stroke:#000;stroke-opacity:1;stroke-miterlimit:10" d="m10.04 1302.54 69.608-18.36 304.844 116.445" transform="matrix(.1 0 0 -.1 0 200)"/><path style="stroke:none;fill-rule:nonzero;fill:#bc7c8c;fill-opacity:1" d="m114.973 192.848 39.465-18.766 19.921-67.602"/><path style="fill:none;stroke-width:7.62;stroke-linecap:round;stroke-linejoin:round;stroke:#000;stroke-opacity:1;stroke-miterlimit:10" d="m1149.727 71.523 394.648 187.657" transform="matrix(.1 0 0 -.1 0 200)"/><path style="stroke:none;fill-rule:nonzero;fill:#bc7c8c;fill-opacity:1" d="m72.293 191.91 42.68.938 59.386-86.368"/><path style="fill:none;stroke-width:7.62;stroke-linecap:round;stroke-linejoin:round;stroke:#000;stroke-opacity:1;stroke-miterlimit:10" d="m722.93 80.898 426.797-9.375" transform="matrix(.1 0 0 -.1 0 200)"/><path style="fill-rule:nonzero;fill:#bc7c8c;fill-opacity:1;stroke-width:7.62;stroke-linecap:round;stroke-linejoin:round;stroke:#000;stroke-opacity:1;stroke-miterlimit:10" d="m1544.375 259.18 228.672 323.945-29.453 352.07" transform="matrix(.1 0 0 -.1 0 200)"/><path style="fill-rule:nonzero;fill:#4f1769;fill-opacity:1;stroke-width:7.62;stroke-linecap:round;stroke-linejoin:round;stroke:#000;stroke-opacity:1;stroke-miterlimit:10" d="m131.719 486.055 278.633-195-73.282 347.5" transform="matrix(.1 0 0 -.1 0 200)"/><path style="fill-rule:nonzero;fill:#4f1769;fill-opacity:1;stroke-width:7.62;stroke-linecap:round;stroke-linejoin:round;stroke:#000;stroke-opacity:1;stroke-miterlimit:10" d="m337.07 638.555-284.96 190 79.609-342.5" transform="matrix(.1 0 0 -.1 0 200)"/><path style="stroke:none;fill-rule:nonzero;fill:#0075db;fill-opacity:1" d="m115.172 18.105 12.375-11.57-89.098 53.403"/><path style="fill:none;stroke-width:7.62;stroke-linecap:round;stroke-linejoin:round;stroke:#000;stroke-opacity:1;stroke-miterlimit:10" d="m1151.719 1818.945 123.75 115.703" transform="matrix(.1 0 0 -.1 0 200)"/><path style="fill-rule:nonzero;fill:#ccebea;fill-opacity:1;stroke-width:7.62;stroke-linecap:round;stroke-linejoin:round;stroke:#000;stroke-opacity:1;stroke-miterlimit:10" d="m1644.14 1687.852-368.671 246.796-123.75-115.703" transform="matrix(.1 0 0 -.1 0 200)"/><path style="stroke:none;fill-rule:nonzero;fill:#bc7c8c;fill-opacity:1" d="m41.035 170.895 31.258 21.015 102.066-85.43"/><path style="fill:none;stroke-width:7.62;stroke-linecap:round;stroke-linejoin:round;stroke:#000;stroke-opacity:1;stroke-miterlimit:10" d="M410.352 291.055 722.93 80.898" transform="matrix(.1 0 0 -.1 0 200)"/><path style="fill-rule:nonzero;fill:#ccebea;fill-opacity:1;stroke-width:7.62;stroke-linecap:round;stroke-linejoin:round;stroke:#000;stroke-opacity:1;stroke-miterlimit:10" d="m1151.719 1818.945 385.43-258.593 106.992 127.5" transform="matrix(.1 0 0 -.1 0 200)"/><path style="stroke:none;fill-rule:nonzero;fill:#e9edce;fill-opacity:1" d="m182.484 68.836-18.07-37.621-10.7 12.75"/><path style="fill:none;stroke-width:7.62;stroke-linecap:round;stroke-linejoin:round;stroke:#000;stroke-opacity:1;stroke-miterlimit:10" d="m1824.844 1311.64-180.703 376.212-106.993-127.5Zm0 0" transform="matrix(.1 0 0 -.1 0 200)"/><path style="fill-rule:nonzero;fill:#fdc564;fill-opacity:1;stroke-width:7.62;stroke-linecap:round;stroke-linejoin:round;stroke:#000;stroke-opacity:1;stroke-miterlimit:10" d="m1824.844 1311.64-81.25-376.445 29.453-352.07" transform="matrix(.1 0 0 -.1 0 200)"/><path style="fill-rule:nonzero;fill:#e2c6bc;fill-opacity:1;stroke-width:7.62;stroke-linecap:round;stroke-linejoin:round;stroke:#000;stroke-opacity:1;stroke-miterlimit:10" d="m1445.625 1179.883 297.969-244.688 81.25 376.446" transform="matrix(.1 0 0 -.1 0 200)"/><path style="fill-rule:nonzero;fill:#e2c6bc;fill-opacity:1;stroke-width:7.62;stroke-linecap:round;stroke-linejoin:round;stroke:#000;stroke-opacity:1;stroke-miterlimit:10" d="m1824.844 1311.64-287.696 248.712-91.523-380.47" transform="matrix(.1 0 0 -.1 0 200)"/><path style="stroke:none;fill-rule:nonzero;fill:#7e67ae;fill-opacity:1" d="m5.21 117.145 28.497 19 4.742-76.208"/><path style="fill:none;stroke-width:7.62;stroke-linecap:round;stroke-linejoin:round;stroke:#000;stroke-opacity:1;stroke-miterlimit:10" d="m52.11 828.555 284.96-190" transform="matrix(.1 0 0 -.1 0 200)"/><path style="fill-rule:nonzero;fill:#7e67ae;fill-opacity:1;stroke-width:7.62;stroke-linecap:round;stroke-linejoin:round;stroke:#000;stroke-opacity:1;stroke-miterlimit:10" d="M384.492 1400.625 79.648 1284.18 52.11 828.555" transform="matrix(.1 0 0 -.1 0 200)"/><path style="stroke:none;fill-rule:nonzero;fill:#bc7c8c;fill-opacity:1" d="m33.707 136.145 7.328 34.75L174.36 106.48"/><path style="fill:none;stroke-width:7.62;stroke-linecap:round;stroke-linejoin:round;stroke:#000;stroke-opacity:1;stroke-miterlimit:10" d="m337.07 638.555 73.282-347.5" transform="matrix(.1 0 0 -.1 0 200)"/><path style="fill-rule:nonzero;fill:#c1b4cd;fill-opacity:1;stroke-width:7.62;stroke-linecap:round;stroke-linejoin:round;stroke:#000;stroke-opacity:1;stroke-miterlimit:10" d="m1537.148 1560.352-385.43 258.593L806.25 1610.82" transform="matrix(.1 0 0 -.1 0 200)"/><path style="fill-rule:nonzero;fill:#0075db;fill-opacity:1;stroke-width:7.62;stroke-linecap:round;stroke-linejoin:round;stroke:#000;stroke-opacity:1;stroke-miterlimit:10" d="M384.492 1400.625 806.25 1610.82l345.469 208.125" transform="matrix(.1 0 0 -.1 0 200)"/><path style="stroke:none;fill-rule:nonzero;fill:#bc7c8c;fill-opacity:1" d="m55.313 100.566-21.606 35.579 140.652-29.665"/><path style="fill:none;stroke-width:7.62;stroke-linecap:round;stroke-linejoin:round;stroke:#000;stroke-opacity:1;stroke-miterlimit:10" d="M553.125 994.336 337.07 638.555" transform="matrix(.1 0 0 -.1 0 200)"/><path style="stroke:none;fill-rule:nonzero;fill:#bc7c8c;fill-opacity:1" d="m98.39 79.383-43.078 21.183 119.047 5.914"/><path style="fill:none;stroke-width:7.62;stroke-linecap:round;stroke-linejoin:round;stroke:#000;stroke-opacity:1;stroke-miterlimit:10" d="M983.906 1206.172 553.125 994.336" transform="matrix(.1 0 0 -.1 0 200)"/><path style="fill-rule:nonzero;fill:#bc7c8c;fill-opacity:1;stroke-width:7.62;stroke-linecap:round;stroke-linejoin:round;stroke:#000;stroke-opacity:1;stroke-miterlimit:10" d="m1743.594 935.195-297.969 244.688-461.719 26.289" transform="matrix(.1 0 0 -.1 0 200)"/><path style="fill-rule:nonzero;fill:#c1b4cd;fill-opacity:1;stroke-width:7.62;stroke-linecap:round;stroke-linejoin:round;stroke:#000;stroke-opacity:1;stroke-miterlimit:10" d="m983.906 1206.172 461.719-26.29 91.523 380.47" transform="matrix(.1 0 0 -.1 0 200)"/><path style="stroke:none;fill-rule:nonzero;fill:#c1b4cd;fill-opacity:1" d="m80.625 38.918 17.766 40.465 55.324-35.418"/><path style="fill:none;stroke-width:7.62;stroke-linecap:round;stroke-linejoin:round;stroke:#000;stroke-opacity:1;stroke-miterlimit:10" d="m806.25 1610.82 177.656-404.648" transform="matrix(.1 0 0 -.1 0 200)"/><path style="fill-rule:nonzero;fill:#7e67ae;fill-opacity:1;stroke-width:7.62;stroke-linecap:round;stroke-linejoin:round;stroke:#000;stroke-opacity:1;stroke-miterlimit:10" d="m337.07 638.555 216.055 355.78-168.633 406.29" transform="matrix(.1 0 0 -.1 0 200)"/><path style="fill-rule:nonzero;fill:#a593c2;fill-opacity:1;stroke-width:7.62;stroke-linecap:round;stroke-linejoin:round;stroke:#000;stroke-opacity:1;stroke-miterlimit:10" d="m806.25 1610.82-421.758-210.195 168.633-406.29" transform="matrix(.1 0 0 -.1 0 200)"/><path style="fill-rule:nonzero;fill:#a593c2;fill-opacity:1;stroke-width:7.62;stroke-linecap:round;stroke-linejoin:round;stroke:#000;stroke-opacity:1;stroke-miterlimit:10" d="m553.125 994.336 430.781 211.836L806.25 1610.82" transform="matrix(.1 0 0 -.1 0 200)"/></svg>