<svg xmlns="http://www.w3.org/2000/svg" width="241.213" height="239.2" viewBox="0 0 180.91 179.4" version="1.2"><defs><clipPath id="a"><path d="M44 139h37v39.8H44Zm0 0"/></clipPath><clipPath id="b"><path d="M.258 80H40v27H.258Zm0 0"/></clipPath><clipPath id="c"><path d="M.258 60H40v37H.258Zm0 0"/></clipPath><clipPath id="d"><path d="M.258 70H28v37H.258Zm0 0"/></clipPath><clipPath id="e"><path d="M.258 60H30v21H.258Zm0 0"/></clipPath><clipPath id="f"><path d="M73 147h43v31.8H73Zm0 0"/></clipPath><clipPath id="g"><path d="M73 145h43v33.8H73Zm0 0"/></clipPath><clipPath id="h"><path d="M44 139h31v39.8H44Zm0 0"/></clipPath><clipPath id="i"><path d="M145 100h35.563v22H145Zm0 0"/></clipPath><clipPath id="j"><path d="M145 73h35.563v36H145Zm0 0"/></clipPath><clipPath id="k"><path d="M144 82h36.563v40H144Zm0 0"/></clipPath><clipPath id="l"><path d="M.258 0h180.304v178H.258Zm0 0"/></clipPath><clipPath id="m"><path d="M144 73h36.563v28H144Zm0 0"/></clipPath><clipPath id="n"><path d="M1 0h179.563v178.8H1Zm0 0"/></clipPath><clipPath id="o"><path d="M.258 25H55v90H.258Zm0 0"/></clipPath><clipPath id="p"><path d="M1 25h157v153.8H1Zm0 0"/></clipPath></defs><path style="stroke:none;fill-rule:nonzero;fill:#a15b7c;fill-opacity:1" d="m58.906 87.7 39.446-7.223-37.309-14.579"/><path style="stroke:none;fill-rule:nonzero;fill:#7b579c;fill-opacity:1" d="m77.762 41.96 20.57 38.477-.008-.011"/><path style="stroke:none;fill-rule:nonzero;fill:#c1abc4;fill-opacity:1" d="M98.352 80.477 61.043 65.898l37.309 14.579M96.688 77.36l1.664 3.117"/><path style="stroke:none;fill-rule:nonzero;fill:#7b579c;fill-opacity:1" d="m77.762 41.96 20.582 38.5-20.582-38.5"/><path style="stroke:none;fill-rule:nonzero;fill:#c1abc4;fill-opacity:1" d="M96.688 77.36 61.042 65.897l37.309 14.579"/><path style="stroke:none;fill-rule:nonzero;fill:#c1abc4;fill-opacity:1" d="M77.762 41.96 61.043 65.899 96.688 77.36"/><path style="stroke:none;fill-rule:nonzero;fill:#7b579c;fill-opacity:1" d="m98.344 80.46.008.017-20.59-38.516"/><path style="stroke:none;fill-rule:nonzero;fill:#c1abc4;fill-opacity:1" d="m77.762 41.96 18.925 35.4"/><path style="stroke:none;fill-rule:nonzero;fill:#7b579c;fill-opacity:1" d="m77.762 41.96 20.59 38.517"/><path style="stroke:none;fill-rule:nonzero;fill:#ca939c;fill-opacity:1" d="m128.137 46.902-27.828-4.472M128.137 46.902l-27.828-4.472-1.957 38.047M128.137 46.902l-27.828-4.472 27.828 4.472"/><path style="stroke:none;fill-rule:nonzero;fill:#5b3737;fill-opacity:1" d="m77.762 41.96 22.547.47-36.391-5.844"/><path style="stroke:none;fill-rule:nonzero;fill:#7b579c;fill-opacity:1" d="m77.762 41.96 20.59 38.517 1.957-38.047"/><path style="stroke:none;fill-rule:nonzero;fill:#ca939c;fill-opacity:1" d="m100.309 42.43-1.957 38.047"/><path style="stroke:none;fill-rule:nonzero;fill:#7b579c;fill-opacity:1" d="m101.965 10.242-1.656 32.188 30.289.636"/><path style="stroke:none;fill-rule:nonzero;fill:#5b3737;fill-opacity:1" d="m128.137 46.902 2.46-3.836-30.288-.636"/><path style="stroke:none;fill-rule:nonzero;fill:#7b579c;fill-opacity:1" d="m100.309 42.43 30.27.636"/><path style="stroke:none;fill-rule:nonzero;fill:#5b3737;fill-opacity:1" d="m100.309 42.43-36.383-5.844M100.309 42.43l-36.383-5.844h-.008"/><path style="stroke:none;fill-rule:nonzero;fill:#7b579c;fill-opacity:1" d="m100.309 42.43-1.957 38.047 1.957-38.047"/><path style="stroke:none;fill-rule:nonzero;fill:#c1abc4;fill-opacity:1" d="M77.762 41.96 61.043 65.899"/><path style="stroke:none;fill-rule:nonzero;fill:#f29c59;fill-opacity:1" d="m77.762 41.96-13.844-5.374-2.875 29.312"/><path style="stroke:none;fill-rule:nonzero;fill:#c1abc4;fill-opacity:1" d="M77.762 41.96 61.043 65.899l16.719-23.937"/><path style="stroke:none;fill-rule:nonzero;fill:#f29c59;fill-opacity:1" d="m58.906 87.7 2.137-21.802-21.64 30.997M61.043 65.898l-21.64 30.997"/><path style="stroke:none;fill-rule:nonzero;fill:#d7e6e0;fill-opacity:1" d="m96.273 120.875-7.71 19.71"/><path style="stroke:none;fill-rule:nonzero;fill:#7b579c;fill-opacity:1" d="m98.352 80.48-2.079 40.395 2.079-40.398M96.273 120.875l2.079-40.395"/><path style="stroke:none;fill-rule:nonzero;fill:#ca939c;fill-opacity:1" d="m96.273 120.875 2.079-40.398-26.649 30.039"/><path style="stroke:none;fill-rule:nonzero;fill:#c1abc4;fill-opacity:1" d="m132.719 144.758-15.535-29.055-28.621 24.883"/><path style="stroke:none;fill-rule:nonzero;fill:#4389eb;fill-opacity:1" d="m101 119.707-4.727 1.168 20.91-5.172"/><path style="stroke:none;fill-rule:nonzero;fill:#ca939c;fill-opacity:1" d="m96.273 120.875-24.57-10.36"/><path style="stroke:none;fill-rule:nonzero;fill:#4389eb;fill-opacity:1" d="m96.273 120.875-7.71 19.71 7.71-19.71"/><path style="stroke:none;fill-rule:nonzero;fill:#ea881f;fill-opacity:1" d="m132.719 144.758 12.629-36.024"/><path style="stroke:none;fill-rule:nonzero;fill:#7b579c;fill-opacity:1" d="m132.719 144.758 12.469-35.567-28.004 6.512"/><path style="stroke:none;fill-rule:nonzero;fill:#7b579c;fill-opacity:1" d="m145.188 109.191.16-.457-28.164 6.97M132.719 144.758l12.629-36.024"/><path style="stroke:none;fill-rule:nonzero;fill:#3cc0d8;fill-opacity:1" d="m132.719 144.758-44.156-4.172 36.832 5.523"/><path style="stroke:none;fill-rule:nonzero;fill:#978ec8;fill-opacity:1" d="m108.945 176.934 16.45-30.825-36.832-5.523"/><path style="stroke:none;fill-rule:nonzero;fill:#d7e6e0;fill-opacity:1" d="m108.945 176.934-20.382-36.348"/><path style="stroke:none;fill-rule:nonzero;fill:#4389eb;fill-opacity:1" d="m88.563 140.586-7.797 19.937 7.796-19.937"/><path style="stroke:none;fill-rule:nonzero;fill:#dcd35b;fill-opacity:1" d="m54.75 169.988-6.98-33.25-3.293 2.66"/><path style="stroke:none;fill-rule:nonzero;fill:#4389eb;fill-opacity:1" d="m54.75 169.988 33.813-29.402"/><path style="stroke:none;fill-rule:nonzero;fill:#c1abc4;fill-opacity:1" d="m54.75 169.988 33.813-29.402-33.813 29.402"/><path style="stroke:none;fill-rule:nonzero;fill:#4389eb;fill-opacity:1" d="m54.75 169.988 26.016-9.465M54.75 169.988l26.016-9.465 7.796-19.937"/><path style="stroke:none;fill-rule:nonzero;fill:#4389eb;fill-opacity:1" d="m54.75 169.988 26.016-9.465-26.016 9.465"/><path style="stroke:none;fill-rule:nonzero;fill:#c1abc4;fill-opacity:1" d="m54.75 169.988 33.813-29.402-40.793-3.848"/><path style="stroke:none;fill-rule:nonzero;fill:#d7e6e0;fill-opacity:1" d="m80.766 160.523 7.796-19.937-7.796 19.937M108.945 176.934l-20.382-36.348-7.797 19.937"/><path style="stroke:none;fill-rule:nonzero;fill:#4389eb;fill-opacity:1" d="m80.766 160.523 7.796-19.937"/><path style="stroke:none;fill-rule:nonzero;fill:#9a4b6b;fill-opacity:1" d="m115.234 147.992-34.468 12.531 34.468-12.53"/><path style="stroke:none;fill-rule:nonzero;fill:#9a4b6b;fill-opacity:1" d="m108.945 176.934-28.18-16.41 34.47-12.532M80.766 160.523l34.468-12.53M54.75 169.988l-10.273-30.59 36.289 21.125"/><g clip-path="url(#a)"><path style="stroke:none;fill-rule:nonzero;fill:#d7e6e0;fill-opacity:1" d="m73.71 178.555 7.056-18.032-36.29-21.125"/></g><path style="stroke:none;fill-rule:nonzero;fill:#d7e6e0;fill-opacity:1" d="m80.766 160.523-36.29-21.125"/><path style="stroke:none;fill-rule:nonzero;fill:#9a4b6b;fill-opacity:1" d="m80.766 160.523-36.29-21.125 36.29 21.125M54.75 169.988l-10.273-30.59 10.273 30.59"/><path style="stroke:none;fill-rule:nonzero;fill:#dcd35b;fill-opacity:1" d="m44.477 139.398 3.293-2.66-3.293 2.66M54.75 169.988l-10.273-30.59"/><path style="stroke:none;fill-rule:nonzero;fill:#ea881f;fill-opacity:1" d="m108.945 176.934 6.29-28.942 10.16-1.883"/><path style="stroke:none;fill-rule:nonzero;fill:#3cc0d8;fill-opacity:1" d="m157.066 150.86-31.671-4.75-10.16 1.882M125.395 146.11l-10.16 1.882"/><path style="stroke:none;fill-rule:nonzero;fill:#ea881f;fill-opacity:1" d="m132.719 144.758-7.324 1.351M132.719 144.758l-7.324 1.351 19.953-37.375M132.719 144.758l-7.324 1.351 7.324-1.351"/><path style="stroke:none;fill-rule:nonzero;fill:#7b579c;fill-opacity:1" d="m145.188 109.191.16-.457"/><path style="stroke:none;fill-rule:nonzero;fill:#4389eb;fill-opacity:1" d="m96.273 120.875-7.71 19.71 28.62-24.882"/><path style="stroke:none;fill-rule:nonzero;fill:#7b579c;fill-opacity:1" d="m117.184 115.703 28.164-6.969-28.164 6.97"/><path style="stroke:none;fill-rule:nonzero;fill:#4389eb;fill-opacity:1" d="m96.273 120.875 20.91-5.172"/><path style="stroke:none;fill-rule:nonzero;fill:#7b579c;fill-opacity:1" d="m96.273 120.875 20.91-5.172-18.831-35.226"/><path style="stroke:none;fill-rule:nonzero;fill:#c1abc4;fill-opacity:1" d="M139.3 96.473 98.353 80.477l18.832 35.226"/><path style="stroke:none;fill-rule:nonzero;fill:#7b579c;fill-opacity:1" d="M117.184 115.703 98.352 80.477"/><path style="stroke:none;fill-rule:nonzero;fill:#c1abc4;fill-opacity:1" d="M139.3 96.473 98.353 80.477M117.184 115.703 98.352 80.477l18.832 35.226M116.613 116.2l.57-.497-28.558 24.832"/><path style="stroke:none;fill-rule:nonzero;fill:#c1abc4;fill-opacity:1" d="m117.184 115.703-28.559 24.832-.063.05"/><path style="stroke:none;fill-rule:nonzero;fill:#4389eb;fill-opacity:1" d="m96.273 120.875 4.727-1.168"/><path style="stroke:none;fill-rule:nonzero;fill:#ca939c;fill-opacity:1" d="m96.273 120.875-24.57-10.36"/><path style="stroke:none;fill-rule:nonzero;fill:#d7e6e0;fill-opacity:1" d="m96.273 120.875-24.57-10.36 16.86 30.07"/><path style="stroke:none;fill-rule:nonzero;fill:#7b579c;fill-opacity:1" d="m96.273 120.875 2.079-40.398"/><path style="stroke:none;fill-rule:nonzero;fill:#d7e6e0;fill-opacity:1" d="m58.906 87.7 12.797 22.816"/><path style="stroke:none;fill-rule:nonzero;fill:#978ec8;fill-opacity:1" d="m66.777 101.734 4.926 8.782"/><path style="stroke:none;fill-rule:nonzero;fill:#d7e6e0;fill-opacity:1" d="m58.906 87.7-19.504 9.195 32.301 13.62M58.906 87.7l12.797 22.816"/><path style="stroke:none;fill-rule:nonzero;fill:#978ec8;fill-opacity:1" d="m58.906 87.7 7.871 14.034 31.575-21.257"/><path style="stroke:none;fill-rule:nonzero;fill:#978ec8;fill-opacity:1" d="m66.777 101.734 4.926 8.782 26.649-30.04"/><path style="fill:none;stroke-width:5.00001;stroke-linecap:round;stroke-linejoin:round;stroke:#000;stroke-opacity:1;stroke-miterlimit:10" d="M588.457 914.075h0m0 0 395.773 72.468m-395.773-72.468h0m395.773 72.468h0m0 0h0m-395.773-72.468h0m21.439 218.737h0m-21.439-218.737 21.439 218.737m-21.439-218.737 64.669-115.307m310.253-217.56h0m209.8 51.891h0m-209.8-51.892 209.8 51.892m0 0h0m-209.8-51.892h0M886.012 383.44h0m77.367 197.768h0m-8.818 3.685 8.818-3.685m0 0h0m-185.736 791.78h0m0 0h0m226.222-4.703h0m-226.222 4.703 226.222-4.703m-226.222 4.703h0m98.806-2.038 127.416-2.665m-214.582 4.468 87.166-1.803m-87.323 1.803h.157m-11.64.235 11.483-.235m-11.483.235h0m0 0h0m-167.747-240.175h0m563.284-499.713h0" transform="matrix(.09967 0 0 -.09967 .257 178.802)"/><path style="stroke:none;fill-rule:nonzero;fill:#978ec8;fill-opacity:1" d="M128.137 46.902 98.352 80.477l37.23-6.82"/><path style="stroke:none;fill-rule:nonzero;fill:#444448;fill-opacity:1" d="m128.137 46.902 7.445 26.754M128.137 46.902l7.445 26.754-4.984-30.59"/><path style="stroke:none;fill-rule:nonzero;fill:#a15b7c;fill-opacity:1" d="m167.156 67.871-36.558-24.805 4.984 30.59"/><path style="stroke:none;fill-rule:nonzero;fill:#978ec8;fill-opacity:1" d="m167.156 67.871-31.574 5.785M167.156 67.871l-31.574 5.785 9.766 35.078"/><path style="stroke:none;fill-rule:nonzero;fill:#a15b7c;fill-opacity:1" d="m139.3 96.473-3.718-22.817-37.23 6.82"/><path style="stroke:none;fill-rule:nonzero;fill:#444448;fill-opacity:1" d="m139.3 96.473 6.048 12.261-9.766-35.078"/><path style="stroke:none;fill-rule:nonzero;fill:#978ec8;fill-opacity:1" d="m135.582 73.656 9.766 35.078"/><path style="stroke:none;fill-rule:nonzero;fill:#a15b7c;fill-opacity:1" d="m130.598 43.066 4.984 30.59"/><path style="stroke:none;fill-rule:nonzero;fill:#444448;fill-opacity:1" d="m128.137 46.902 7.445 26.754-7.445-26.754"/><path style="stroke:none;fill-rule:nonzero;fill:#978ec8;fill-opacity:1" d="m167.156 67.871-31.574 5.785 31.574-5.785"/><path style="stroke:none;fill-rule:nonzero;fill:#444448;fill-opacity:1" d="m135.582 73.656-4.984-30.59"/><path style="stroke:none;fill-rule:nonzero;fill:#ea881f;fill-opacity:1" d="m167.156 67.871-21.808 40.863 12.187-34.777M167.156 67.871l-21.808 40.863"/><path style="stroke:none;fill-rule:nonzero;fill:#d6f6e1;fill-opacity:1" d="m167.156 67.871-9.62 6.086M167.156 67.871l-9.62 6.086-26.938-30.89M167.156 67.871l-9.62 6.086 9.62-6.086"/><path style="stroke:none;fill-rule:nonzero;fill:#7b579c;fill-opacity:1" d="m168.09 43.855-37.492-.789 26.937 30.891"/><path style="stroke:none;fill-rule:nonzero;fill:#c3b0c7;fill-opacity:1" d="m168.09 43.855-34.961-4.734"/><path style="stroke:none;fill-rule:nonzero;fill:#5b3737;fill-opacity:1" d="m168.09 43.855-21.63-2.925-15.862 2.136M146.46 40.93 133.13 39.12l-2.531 3.945"/><path style="stroke:none;fill-rule:nonzero;fill:#c3b0c7;fill-opacity:1" d="m168.09 43.855-23.852 38.516-11.11-43.25M168.09 43.855l-34.961-4.734"/><path style="stroke:none;fill-rule:nonzero;fill:#5b3737;fill-opacity:1" d="M146.46 40.93 133.13 39.12"/><path style="stroke:none;fill-rule:nonzero;fill:#ea881f;fill-opacity:1" d="m168.09 43.855-10.555 30.102-13.297 8.414M157.535 73.957l-13.297 8.414"/><path style="stroke:none;fill-rule:nonzero;fill:#7b579c;fill-opacity:1" d="m168.09 43.855-10.555 30.102M168.09 43.855l-10.555 30.102"/><path style="stroke:none;fill-rule:nonzero;fill:#ea881f;fill-opacity:1" d="m157.535 73.957-12.187 34.777 12.187-34.777"/><path style="stroke:none;fill-rule:nonzero;fill:#a15b7c;fill-opacity:1" d="m135.582 73.656-4.984-30.59 4.984 30.59M135.582 73.656l-37.23 6.82"/><path style="fill:none;stroke-width:5.00001;stroke-linecap:round;stroke-linejoin:round;stroke:#000;stroke-opacity:1;stroke-miterlimit:10" d="M1357.78 1054.974h0m-373.55-68.431 1.019-.392m409.842-160.104h0" transform="matrix(.09967 0 0 -.09967 .257 178.802)"/><path style="stroke:none;fill-rule:nonzero;fill:#4389eb;fill-opacity:1" d="m139.3 96.473-22.116 19.23 28.164-6.969"/><path style="fill:none;stroke-width:5.00001;stroke-linecap:round;stroke-linejoin:round;stroke:#000;stroke-opacity:1;stroke-miterlimit:10" d="m1173.18 633.1 221.911 192.947m0 0 60.671-123.027M1173.18 633.1l221.911 192.947M985.25 986.15l409.842-160.104m-37.311 228.927 37.311-228.927m-37.311 228.927 2.821-17.245m0 0 34.49-211.682m0 0h0m0 0 60.671-123.027M984.23 986.543l298.847 336.865M984.23 986.543h0m19.635 381.741h0m279.212-44.876 74.703-268.434m-373.55-68.431 298.847 336.865m-279.212 44.876 279.212-44.876m0 0h0M984.661 994.773l19.204 373.511M984.23 986.543l.43 8.23m-.43-8.23h0m0 0h0m-374.334 146.269 374.334-146.27m0 0h0m6.349-11.875 182.6-341.568M984.23 986.543l6.35-11.876m-273.725-289.52L984.23 986.544m0 0h0m1.41-2.665 187.54-350.779M984.23 986.543l1.41-2.665m.08 31.629 18.145 352.777M984.23 986.543l1.49 28.964m-1.49-28.964 373.55 68.431m-747.884 77.838 374.334-146.27m-374.334 146.27h0" transform="matrix(.09967 0 0 -.09967 .257 178.802)"/><path style="stroke:none;fill-rule:nonzero;fill:#ca939c;fill-opacity:1" d="m50.133 134.828 21.57-24.312-21.57 24.312"/><path style="stroke:none;fill-rule:nonzero;fill:#dcd35b;fill-opacity:1" d="m50.133 134.828-2.363 1.91"/><path style="stroke:none;fill-rule:nonzero;fill:#3cc0d8;fill-opacity:1" d="m50.133 134.828-.02.012 38.45 5.746M50.113 134.84l-2.343 1.898"/><path style="stroke:none;fill-rule:nonzero;fill:#dcd35b;fill-opacity:1" d="m50.133 134.828-2.363 1.91"/><path style="stroke:none;fill-rule:nonzero;fill:#3cc0d8;fill-opacity:1" d="m50.113 134.84-2.343 1.898 40.792 3.848"/><path style="stroke:none;fill-rule:nonzero;fill:#978ec8;fill-opacity:1" d="m50.133 134.828 21.57-24.312"/><path style="stroke:none;fill-rule:nonzero;fill:#dcd35b;fill-opacity:1" d="M50.133 134.828 39.465 97.102l10.668 37.726M50.133 134.828l-10.73-37.933 8.367 39.843"/><path style="stroke:none;fill-rule:nonzero;fill:#ca939c;fill-opacity:1" d="m50.133 134.828 21.57-24.312"/><path style="stroke:none;fill-rule:nonzero;fill:#978ec8;fill-opacity:1" d="m50.133 134.828 21.57-24.312"/><path style="stroke:none;fill-rule:nonzero;fill:#ca939c;fill-opacity:1" d="m50.133 134.828 21.57-24.312-32.3-13.621"/><path style="stroke:none;fill-rule:nonzero;fill:#978ec8;fill-opacity:1" d="m50.133 134.828 38.43 5.758-16.86-30.07"/><path style="fill:none;stroke-width:5.00001;stroke-linecap:round;stroke-linejoin:round;stroke:#000;stroke-opacity:1;stroke-miterlimit:10" d="M716.854 685.148h0m0 0 169.158-301.71m0 0h0m-169.158 301.71h0m0 0h0m0 0h0m0 0h0m0 0L984.23 986.543M716.854 685.148l246.525-103.94m-246.525 103.94h0m0 0h0M392.805 821.775l324.05-136.627m0 0h0m0 0h0m0 0 169.157-301.71M543.15 758.36l173.704-73.212m169.158-301.71h0" transform="matrix(.09967 0 0 -.09967 .257 178.802)"/><path style="stroke:none;fill-rule:nonzero;fill:#a15b7c;fill-opacity:1" d="m30.379 53.918 30.664 11.98 2.875-29.312"/><path style="fill:none;stroke-width:5.00001;stroke-linecap:round;stroke-linejoin:round;stroke:#000;stroke-opacity:1;stroke-miterlimit:10" d="M609.896 1132.812h0m0 0 167.747 240.175m-167.747-240.175h0" transform="matrix(.09967 0 0 -.09967 .257 178.802)"/><path style="stroke:none;fill-rule:nonzero;fill:#c1abc4;fill-opacity:1" d="m30.379 53.918 9.023 42.977 21.641-30.997"/><path style="fill:none;stroke-width:5.00001;stroke-linecap:round;stroke-linejoin:round;stroke:#000;stroke-opacity:1;stroke-miterlimit:10" d="m419.535 1207.161 190.361-74.35m0 0h0M302.23 1253.018h0m90.536-431.203 195.691 92.26M886.64 383.949l286.54 249.151M886.013 383.44l.627.51m-.627-.51h0m287.168 249.66h0m0 0 122.714-229.515M1173.18 633.099h0m0 0 122.714-229.515M1173.18 633.099l281.76 69.725M886.011 383.439l287.168 249.66m0 0h0" transform="matrix(.09967 0 0 -.09967 .257 178.802)"/><path style="stroke:none;fill-rule:nonzero;fill:#dcd35b;fill-opacity:1" d="m30.379 53.918-1.223 6.738 10.246 36.239"/><path style="stroke:none;fill-rule:nonzero;fill:#006bda;fill-opacity:1" d="m30.379 53.918 33.539-17.332-34.762 24.07"/><path style="fill:none;stroke-width:5.00001;stroke-linecap:round;stroke-linejoin:round;stroke:#000;stroke-opacity:1;stroke-miterlimit:10" d="m356.787 1231.696 62.748-24.535M886.012 383.44l379.977-35.901m-379.977 35.9h0m369.552-55.418h0m-369.552 55.419 379.977-35.901m63.062-5.958 125.105 356.893" transform="matrix(.09967 0 0 -.09967 .257 178.802)"/><path style="stroke:none;fill-rule:nonzero;fill:#ca939c;fill-opacity:1" d="M101.965 10.242 63.918 36.586l36.39 5.844"/><path style="fill:none;stroke-width:5.00001;stroke-linecap:round;stroke-linejoin:round;stroke:#000;stroke-opacity:1;stroke-miterlimit:10" d="m638.742 1426.917 28.807-4.625m336.316-54.008 16.618 322.952m-16.618-322.952h0m0 0h0m-338.746 48.404 112.524-43.7m226.222-4.704h0m451.897-665.264h0m-97.982 351.954 97.982-351.954m-97.982 351.954h0m0 0h0m316.798 58.045h0m0 0h0m-316.798-58.045 61.494 11.288m97.551 17.872h0m157.753 28.885h0m-366.77 248.563 49.972-306.608m0 0h0" transform="matrix(.09967 0 0 -.09967 .257 178.802)"/><g clip-path="url(#b)"><path style="stroke:none;fill-rule:nonzero;fill:#d7e6e0;fill-opacity:1" d="m.504 80.492 19.187 25.7 19.711-9.297"/></g><path style="stroke:none;fill-rule:nonzero;fill:#c1abc4;fill-opacity:1" d="m13.824 133.531 33.946 3.207M13.824 133.531l33.946 3.207-33.946-3.207"/><path style="stroke:none;fill-rule:nonzero;fill:#3cc0d8;fill-opacity:1" d="m13.824 133.531 30.653 5.867 3.293-2.66M13.824 133.531l33.946 3.207"/><path style="stroke:none;fill-rule:nonzero;fill:#f29c59;fill-opacity:1" d="m13.824 133.531 25.578-36.636-19.71 9.296"/><path style="stroke:none;fill-rule:nonzero;fill:#3cc0d8;fill-opacity:1" d="m13.824 133.531 33.946 3.207"/><path style="stroke:none;fill-rule:nonzero;fill:#c1abc4;fill-opacity:1" d="m13.824 133.531 33.946 3.207-8.368-39.843"/><path style="stroke:none;fill-rule:nonzero;fill:#6b4693;fill-opacity:1" d="m13.824 133.531 5.867-27.34"/><path style="stroke:none;fill-rule:nonzero;fill:#d7e6e0;fill-opacity:1" d="m1.879 114.586 17.812-8.395"/><path style="stroke:none;fill-rule:nonzero;fill:#6b4693;fill-opacity:1" d="m13.824 133.531 5.867-27.34 24.786 33.2"/><path style="stroke:none;fill-rule:nonzero;fill:#6b4693;fill-opacity:1" d="m13.824 133.531 5.867-27.34-5.867 27.34"/><path style="stroke:none;fill-rule:nonzero;fill:#d7e6e0;fill-opacity:1" d="m1.879 114.586 42.598 24.812-24.786-33.207"/><path style="stroke:none;fill-rule:nonzero;fill:#9a4b6b;fill-opacity:1" d="m1.879 114.586 42.582 24.8"/><path style="stroke:none;fill-rule:nonzero;fill:#d7e6e0;fill-opacity:1" d="m1.879 114.586 17.812-8.395"/><g clip-path="url(#c)"><path style="stroke:none;fill-rule:nonzero;fill:#ca939c;fill-opacity:1" d="m.504 80.492 38.898 16.403-10.246-36.239"/></g><g clip-path="url(#d)"><path style="stroke:none;fill-rule:nonzero;fill:#6b4693;fill-opacity:1" d="m.504 80.492 26.945-10.476-7.758 36.175"/></g><path style="stroke:none;fill-rule:nonzero;fill:#f29c59;fill-opacity:1" d="m1.879 114.586 17.812-8.395 7.758-36.175M19.691 106.191l7.758-36.175"/><path style="stroke:none;fill-rule:nonzero;fill:#908dcb;fill-opacity:1" d="m1.879 114.586 25.57-44.57v.004"/><path style="stroke:none;fill-rule:nonzero;fill:#f29c59;fill-opacity:1" d="m19.691 106.191 19.711-9.296-19.71 9.296"/><path style="stroke:none;fill-rule:nonzero;fill:#908dcb;fill-opacity:1" d="m34.293 109.05-6.844-39.03 6.844 39.03M1.879 114.586l25.57-44.566 6.844 39.03M27.45 70.02l6.843 39.03"/><path style="stroke:none;fill-rule:nonzero;fill:#9a4b6b;fill-opacity:1" d="m1.879 114.586 32.414-5.535 10.168 30.336M1.879 114.586l42.582 24.8"/><path style="stroke:none;fill-rule:nonzero;fill:#d7e6e0;fill-opacity:1" d="m1.879 114.586 42.598 24.812-42.598-24.812"/><path style="stroke:none;fill-rule:nonzero;fill:#dcd35b;fill-opacity:1" d="m40.215 142.844-5.922-33.793"/><path style="stroke:none;fill-rule:nonzero;fill:#9a4b6b;fill-opacity:1" d="m34.293 109.05.047.145 10.12 30.192"/><path style="stroke:none;fill-rule:nonzero;fill:#dcd35b;fill-opacity:1" d="m40.215 142.844 4.262-3.446-10.184-30.347M40.215 142.844l-5.922-33.793M25.25 82.113l9.043 26.938-6.844-39.035"/><path style="stroke:none;fill-rule:nonzero;fill:#9a4b6b;fill-opacity:1" d="m25.25 82.113 51.36 19.707-.02.004M34.293 109.05l42.297-7.226-42.297 7.227"/><path style="stroke:none;fill-rule:nonzero;fill:#9a4b6b;fill-opacity:1" d="m25.25 82.113 51.34 19.711-42.297 7.227"/><path style="stroke:none;fill-rule:nonzero;fill:#dcd35b;fill-opacity:1" d="m34.293 109.05 10.184 30.348-10.184-30.347"/><path style="stroke:none;fill-rule:nonzero;fill:#9a4b6b;fill-opacity:1" d="m34.293 109.05.047.145M44.477 139.398l-10.184-30.347 10.184 30.347"/><path style="fill:none;stroke-width:5.00001;stroke-linecap:round;stroke-linejoin:round;stroke:#000;stroke-opacity:1;stroke-miterlimit:10" d="m313.047 1201.4 58.32-277.527m73.056-28.062 165.473 237M502.506 873.51l85.951 40.565M444.423 895.81l165.473 237M303.053 693.3h0M136.129 454.222h0m340.589-32.178h0m0 0h0m-60.985 290.5 60.985-290.5m0 0h0m0 0h0M303.053 693.3h0M136.129 454.222h0m748.51-70.666 1.373-.117m-409.294 38.605 407.922-38.488m1.372-.117 369.552-55.42m-369.552 55.42h0m-78.23-200.042 76.662 196.044m0 0 1.568 3.998m204.51-364.692h0m-204.51 364.692h0M546.756 88.432h0m0 0h0m261.026 94.965 77.25 197.573m0 0 .98 2.469m-409.294 38.605 409.294-38.605M546.756 88.432h0m0 0h0m342.861 288.58 76.31-136.119m124.595-222.146h0m0 0h0m-204.51 364.692 3.605-6.428" transform="matrix(.09967 0 0 -.09967 .257 178.802)"/><path style="stroke:none;fill-rule:nonzero;fill:#006bda;fill-opacity:1" d="m101.965 10.242-5.621 9.586-32.426 16.758"/><path style="fill:none;stroke-width:5.00001;stroke-linecap:round;stroke-linejoin:round;stroke:#000;stroke-opacity:1;stroke-miterlimit:10" d="m1003.865 1368.284 16.618 322.952" transform="matrix(.09967 0 0 -.09967 .257 178.802)"/><path style="stroke:none;fill-rule:nonzero;fill:#d6f6e1;fill-opacity:1" d="m101.965 10.242 28.633 32.824-34.254-23.238"/><path style="stroke:none;fill-rule:nonzero;fill:#a15b7c;fill-opacity:1" d="m124.441 5.305 6.157 37.761"/><path style="stroke:none;fill-rule:nonzero;fill:#444448;fill-opacity:1" d="m124.441 5.305 6.157 37.761 2.53-3.945"/><path style="stroke:none;fill-rule:nonzero;fill:#444448;fill-opacity:1" d="m124.441 5.305 6.157 37.761-6.157-37.761"/><path style="stroke:none;fill-rule:nonzero;fill:#a15b7c;fill-opacity:1" d="M124.441 5.305 96.344 19.828l34.254 23.238M96.344 19.828l34.254 23.238"/><path style="stroke:none;fill-rule:nonzero;fill:#d6f6e1;fill-opacity:1" d="m96.344 19.828 34.254 23.238-34.254-23.238"/><path style="stroke:none;fill-rule:nonzero;fill:#c3b0c7;fill-opacity:1" d="m88.563 33.086 44.566 6.035-44.566-6.035"/><path style="stroke:none;fill-rule:nonzero;fill:#006bda;fill-opacity:1" d="m96.344 19.828-7.781 13.258 7.78-13.258"/><path style="stroke:none;fill-rule:nonzero;fill:#d6f6e1;fill-opacity:1" d="m88.566 33.082 7.778-13.254-7.781 13.258M96.344 19.828l-7.781 13.258"/><path style="stroke:none;fill-rule:nonzero;fill:#006bda;fill-opacity:1" d="m124.441 5.305-35.879 27.78 7.782-13.257M124.441 5.305 96.344 19.828"/><path style="stroke:none;fill-rule:nonzero;fill:#a15b7c;fill-opacity:1" d="M96.344 19.828 63.918 36.586l32.426-16.758M67.48.246l-3.562 36.34 32.426-16.758"/><path style="stroke:none;fill-rule:nonzero;fill:#f29c59;fill-opacity:1" d="M67.48.246 49.781 31.098l14.137 5.488"/><path style="stroke:none;fill-rule:nonzero;fill:#908dcb;fill-opacity:1" d="m67.48.246 21.082 32.84-38.78-1.988"/><path style="stroke:none;fill-rule:nonzero;fill:#ca939c;fill-opacity:1" d="m20.367 29.59 8.79 31.066 34.761-24.07"/><path style="stroke:none;fill-rule:nonzero;fill:#f29c59;fill-opacity:1" d="m36.875 26.086 12.906 5.012"/><path style="stroke:none;fill-rule:nonzero;fill:#5b3737;fill-opacity:1" d="m20.367 29.59 43.551 6.996M20.367 29.59l43.551 6.996-14.137-5.488M49.781 31.098l14.137 5.488-14.137-5.488"/><g clip-path="url(#e)"><path style="stroke:none;fill-rule:nonzero;fill:#006bda;fill-opacity:1" d="m.504 80.492 28.652-19.836-1.707 9.36"/></g><path style="stroke:none;fill-rule:nonzero;fill:#dcd35b;fill-opacity:1" d="m20.367 29.59 7.082 40.426 1.707-9.36"/><path style="stroke:none;fill-rule:nonzero;fill:#908dcb;fill-opacity:1" d="m20.367 29.59 29.414 1.508L27.45 70.016"/><path style="stroke:none;fill-rule:nonzero;fill:#f29c59;fill-opacity:1" d="m36.875 26.086-9.426 43.93 22.332-38.918M36.875 26.086l12.906 5.012"/><path style="stroke:none;fill-rule:nonzero;fill:#5b3737;fill-opacity:1" d="m36.875 26.086 12.906 5.012 38.782 1.988"/><path style="stroke:none;fill-rule:nonzero;fill:#c3b0c7;fill-opacity:1" d="m54.418 59.527 4.234-3.28-4.234 3.28M58.652 56.246l29.875-23.133-34.109 26.414"/><path style="stroke:none;fill-rule:nonzero;fill:#c3b0c7;fill-opacity:1" d="m58.652 56.246 29.91-23.16-.035.027"/><path style="stroke:none;fill-rule:nonzero;fill:#006bda;fill-opacity:1" d="m54.422 59.523-.004.004 34.145-26.441"/><path style="stroke:none;fill-rule:nonzero;fill:#5b3737;fill-opacity:1" d="m49.781 31.098 38.782 1.988"/><path style="stroke:none;fill-rule:nonzero;fill:#908dcb;fill-opacity:1" d="m49.781 31.098 38.782 1.988-38.782-1.988"/><path style="stroke:none;fill-rule:nonzero;fill:#c3b0c7;fill-opacity:1" d="m36.875 26.086 51.688 7L55.37 58.789"/><path style="stroke:none;fill-rule:nonzero;fill:#006bda;fill-opacity:1" d="M88.395 33.371 54.422 59.523l34.14-26.437"/><path style="stroke:none;fill-rule:nonzero;fill:#d6f6e1;fill-opacity:1" d="m78.559 50.137 10.004-17.051 20.582 32.062M127.145 93.188l-18-28.04 35.093 17.223M109.145 65.148l35.093 17.223"/><g clip-path="url(#f)"><path style="stroke:none;fill-rule:nonzero;fill:#4389eb;fill-opacity:1" d="m73.71 178.555 41.524-30.563-34.468 12.531"/></g><g clip-path="url(#g)"><path style="stroke:none;fill-rule:nonzero;fill:#ce9396;fill-opacity:1" d="m73.71 178.555 1.263-33.328 40.261 2.765"/></g><g clip-path="url(#h)"><path style="stroke:none;fill-rule:nonzero;fill:#6b4693;fill-opacity:1" d="m73.71 178.555-29.233-39.157 30.496 5.829"/></g><path style="stroke:none;fill-rule:nonzero;fill:#ce9396;fill-opacity:1" d="m40.215 142.844 34.758 2.383"/><path style="stroke:none;fill-rule:nonzero;fill:#3cc0d8;fill-opacity:1" d="m102.105 150.418 13.13-2.426-40.262-2.765"/><path style="stroke:none;fill-rule:nonzero;fill:#6b4693;fill-opacity:1" d="m74.973 145.227-30.496-5.829 30.496 5.829"/><path style="stroke:none;fill-rule:nonzero;fill:#3cc0d8;fill-opacity:1" d="m40.215 142.844 34.758 2.383-30.496-5.829"/><path style="stroke:none;fill-rule:nonzero;fill:#ce9396;fill-opacity:1" d="m74.973 145.227 1.636-43.407-1.636 43.407"/><path style="stroke:none;fill-rule:nonzero;fill:#ea881f;fill-opacity:1" d="m102.105 150.418 19.418-31.363-6.289 28.937"/><path style="stroke:none;fill-rule:nonzero;fill:#6b4693;fill-opacity:1" d="m102.105 150.418-27.132-5.191 1.636-43.407M102.105 150.418 76.61 101.82"/><path style="stroke:none;fill-rule:nonzero;fill:#c3b0c7;fill-opacity:1" d="M102.105 150.418 76.61 101.82l44.914 17.235"/><path style="stroke:none;fill-rule:nonzero;fill:#6b4693;fill-opacity:1" d="M102.105 150.418 76.61 101.82"/><path style="stroke:none;fill-rule:nonzero;fill:#c3b0c7;fill-opacity:1" d="m102.105 150.418 19.418-31.363"/><path style="stroke:none;fill-rule:nonzero;fill:#6b4693;fill-opacity:1" d="m74.973 145.227 1.636-43.407"/><path style="stroke:none;fill-rule:nonzero;fill:#ce9396;fill-opacity:1" d="m40.215 142.844 36.394-41.024-1.636 43.407M40.215 142.844l34.758 2.383"/><path style="stroke:none;fill-rule:nonzero;fill:#3cc0d8;fill-opacity:1" d="m102.105 150.418-27.132-5.191M102.105 150.418l-27.132-5.191"/><path style="stroke:none;fill-rule:nonzero;fill:#ea881f;fill-opacity:1" d="m121.523 119.055 22.715-36.684-22.715 36.684M127.145 93.188l17.093-10.817-22.715 36.684"/><path style="stroke:none;fill-rule:nonzero;fill:#908dcb;fill-opacity:1" d="m127.145 93.188-50.536 8.632 32.536-36.672"/><path style="stroke:none;fill-rule:nonzero;fill:#c3b0c7;fill-opacity:1" d="m124.441 5.305 8.688 33.816-44.566-6.035"/><path style="stroke:none;fill-rule:nonzero;fill:#444448;fill-opacity:1" d="m135.457 35.492-2.328 3.63M135.457 35.492l-2.328 3.63 2.328-3.63"/><path style="stroke:none;fill-rule:nonzero;fill:#5b3737;fill-opacity:1" d="m135.457 35.492-46.894-2.406 44.566 6.035"/><path style="stroke:none;fill-rule:nonzero;fill:#908dcb;fill-opacity:1" d="m135.457 35.492-46.894-2.406"/><path style="stroke:none;fill-rule:nonzero;fill:#5b3737;fill-opacity:1" d="m135.457 35.492-46.894-2.406 46.894 2.406"/><path style="stroke:none;fill-rule:nonzero;fill:#908dcb;fill-opacity:1" d="m135.457 35.492-.195.227-46.7-2.633"/><path style="stroke:none;fill-rule:nonzero;fill:#5b3737;fill-opacity:1" d="m135.457 35.492-2.328 3.63"/><path style="stroke:none;fill-rule:nonzero;fill:#ce9396;fill-opacity:1" d="m135.457 35.492 8.781 46.88-8.781-46.88"/><path style="stroke:none;fill-rule:nonzero;fill:#5b3737;fill-opacity:1" d="m135.457 35.492-2.328 3.63"/><path style="stroke:none;fill-rule:nonzero;fill:#444448;fill-opacity:1" d="m135.457 35.492-2.328 3.63 11.11 43.25"/><path style="stroke:none;fill-rule:nonzero;fill:#ce9396;fill-opacity:1" d="m135.457 35.492 8.781 46.88-35.093-17.224"/><path style="stroke:none;fill-rule:nonzero;fill:#908dcb;fill-opacity:1" d="m135.262 35.719-26.117 29.43M135.262 35.719l-26.117 29.43-20.582-32.063"/><path style="stroke:none;fill-rule:nonzero;fill:#ce9396;fill-opacity:1" d="m135.457 35.492-26.312 29.656M135.457 35.492l-26.312 29.656"/><path style="stroke:none;fill-rule:nonzero;fill:#444448;fill-opacity:1" d="m135.457 35.492 8.781 46.88"/><path style="stroke:none;fill-rule:nonzero;fill:#908dcb;fill-opacity:1" d="m127.145 93.188-18-28.04"/><g clip-path="url(#i)"><path style="stroke:none;fill-rule:nonzero;fill:#4389eb;fill-opacity:1" d="m180.32 100.078-34.972 8.656 6.18 12.54"/></g><path style="stroke:none;fill-rule:nonzero;fill:#978ec8;fill-opacity:1" d="m157.066 150.86-11.718-42.126-19.953 37.375"/><g clip-path="url(#j)"><path style="stroke:none;fill-rule:nonzero;fill:#7b579c;fill-opacity:1" d="m180.32 100.078-22.785-26.121-12.187 34.777"/></g><path style="stroke:none;fill-rule:nonzero;fill:#444448;fill-opacity:1" d="m157.066 150.86-5.539-29.587-6.18-12.539"/><path style="stroke:none;fill-rule:nonzero;fill:#ce9396;fill-opacity:1" d="m157.066 150.86-41.832-2.868 36.293-26.719"/><g clip-path="url(#k)"><path style="stroke:none;fill-rule:nonzero;fill:#ce9396;fill-opacity:1" d="m180.32 100.078-28.793 21.195-7.289-38.902"/></g><path style="stroke:none;fill-rule:nonzero;fill:#444448;fill-opacity:1" d="m151.527 121.273-7.289-38.902 7.29 38.902"/><path style="stroke:none;fill-rule:nonzero;fill:#ce9396;fill-opacity:1" d="m151.527 121.273-7.289-38.902"/><path style="stroke:none;fill-rule:nonzero;fill:#4389eb;fill-opacity:1" d="m157.176 132.734-5.649-11.46-36.293 26.718"/><path style="stroke:none;fill-rule:nonzero;fill:#444448;fill-opacity:1" d="m157.176 132.734-12.938-50.363 7.29 38.902"/><path style="stroke:none;fill-rule:nonzero;fill:#c3b0c7;fill-opacity:1" d="m157.176 132.734-35.653-13.68 22.715-36.683"/><path style="stroke:none;fill-rule:nonzero;fill:#9a4b6b;fill-opacity:1" d="m127.145 93.188-5.622 25.867-44.91-17.23"/><path style="stroke:none;fill-rule:nonzero;fill:#c3b0c7;fill-opacity:1" d="m102.105 150.418 19.418-31.363"/><path style="stroke:none;fill-rule:nonzero;fill:#908dcb;fill-opacity:1" d="m127.145 93.188-18-28.04"/><path style="stroke:none;fill-rule:nonzero;fill:#d6f6e1;fill-opacity:1" d="m127.145 93.188-18-28.04M127.145 93.188l-18-28.04 18 28.04"/><path style="stroke:none;fill-rule:nonzero;fill:#6b4693;fill-opacity:1" d="m54.418 59.527 22.191 42.293-22.191-42.293"/><path style="stroke:none;fill-rule:nonzero;fill:#c3b0c7;fill-opacity:1" d="m25.25 82.113 29.168-22.586 22.191 42.293M54.418 59.527l22.191 42.293"/><path style="stroke:none;fill-rule:nonzero;fill:#6b4693;fill-opacity:1" d="m78.559 50.137-1.95 51.683-22.191-42.293"/><path style="stroke:none;fill-rule:nonzero;fill:#ce9396;fill-opacity:1" d="m78.559 50.137 16.578 8.136-18.528 43.547"/><path style="stroke:none;fill-rule:nonzero;fill:#6b4693;fill-opacity:1" d="m78.559 50.137-1.95 51.683 1.95-51.683"/><path style="stroke:none;fill-rule:nonzero;fill:#ce9396;fill-opacity:1" d="m78.559 50.137-1.95 51.683M95.137 58.273l14.008 6.875M95.137 58.273l14.008 6.875-32.536 36.672"/><path style="stroke:none;fill-rule:nonzero;fill:#006bda;fill-opacity:1" d="m78.559 50.137 9.836-16.766M78.559 50.137l-24.141 9.39 33.977-26.156"/><path style="stroke:none;fill-rule:nonzero;fill:#d6f6e1;fill-opacity:1" d="m78.559 50.137 9.996-17.035-9.996 17.035M88.555 33.102l.007-.016-10.003 17.05"/><path style="stroke:none;fill-rule:nonzero;fill:#006bda;fill-opacity:1" d="m78.559 50.137 9.836-16.766"/><path style="stroke:none;fill-rule:nonzero;fill:#d6f6e1;fill-opacity:1" d="m78.559 50.137 10.004-17.051-.008.016"/><path style="stroke:none;fill-rule:nonzero;fill:#006bda;fill-opacity:1" d="m78.559 50.137-24.141 9.39 24.14-9.39"/><path style="stroke:none;fill-rule:nonzero;fill:#c3b0c7;fill-opacity:1" d="M88.563 33.086 54.417 59.527"/><path style="stroke:none;fill-rule:nonzero;fill:#006bda;fill-opacity:1" d="m78.559 50.137-24.141 9.39"/><path style="stroke:none;fill-rule:nonzero;fill:#6b4693;fill-opacity:1" d="m36.875 26.086 17.543 33.441-26.969 10.489M54.418 59.527 27.449 70.016"/><path style="stroke:none;fill-rule:nonzero;fill:#d6f6e1;fill-opacity:1" d="m67.48.246 28.864 19.582-7.781 13.258"/><path style="stroke:none;fill-rule:nonzero;fill:#006bda;fill-opacity:1" d="M124.441 5.305 96.344 19.828"/><path style="stroke:none;fill-rule:nonzero;fill:#c3b0c7;fill-opacity:1" d="m124.441 5.305-35.879 27.78"/><path style="stroke:none;fill-rule:nonzero;fill:#006bda;fill-opacity:1" d="m124.441 5.305-35.879 27.78 35.88-27.78"/><g clip-path="url(#l)"><path style="fill:none;stroke-width:5.00001;stroke-linecap:round;stroke-linejoin:round;stroke:#000;stroke-opacity:1;stroke-miterlimit:10" d="m1020.483 1691.236 40.29-46.17m-40.29 46.17h0m-56.399-96.18 56.4 96.18m0 0h0m-98.062-67.922 98.061 67.922m-98.06-67.922 98.06 67.922m-56.399-96.18 56.4 96.18m-80.895-312.644h0m678.12-372.1 56.869 106.527m0 0h0m-60.671 41.153 60.67-41.153m0 0h0m0 0h0m-56.868-106.527 56.869 106.527m0 0h0m0 0h0m-60.671 41.153 60.67-41.153M546.757 88.432h0m0 0h0m-410.627 365.79h0m410.627-365.79h0m0 0h0m-66.51 1228.744 6.348 4.39m187.892 469.965h0m0 0h0m166.846-259.89h0m-166.846 259.89h0m0 0h0m-55.419-565.361h0m0 0h0m-306.882-119.343 20.655-73.135M1533.247 924.07l44.798 127.887m228.614-262.084h0m0 0h0m-501.673-369.278 64.238 120.362m204.118-260.595h0m0 0h0m233.317 509.51h0m0 0h0m-557.444-137.96h0m-88.381-309.664 31.315-4.703m381.193-57.183h0M136.129 454.22l257.029-49.148m-257.029 49.149h0m0 0h0m0 0 22.928 106.918M136.13 454.222h0m.235-.04 256.794-49.109m-257.029 49.149h0m0 0h0m410.627-365.79 99.159 36.097m-99.16-36.097h0m-90.143 268.512 90.144-268.512m0 0h0m0 0h0m-90.144 268.512 90.144-268.512m0 0h0M2.48 986.386l257.538 178.329m52.166-57.888 20.655-73.135M1090.522 18.747h0m0 0h0m482.82 261.614h0m0 0h0m0 0h0m0 0h0m0 0h0m-482.82-261.614h0m0 0h0m0 0 151.755 284.307m288.305 803.302h0m47.463-54.4h0m105.9 302.023h0m0 0h0m0 0h0M1246 1740.776h0m0 0h0m0 0h0m0 0h0m0 0h0m437.944-386.797h0m0 0h0m0 0h0m-153.363-247.623h0m47.463-54.4h0M2.481 986.386l118.794-159.085M2.481 986.386h0m0 0h0M905.45 126.49l185.07-107.742m0 0 63.101 290.382m-63.1-290.382h0m-185.07 107.742 185.07-107.742m0 0h0M201.778 1497.112l156.38-7.995m-156.38 7.995h0m0 0h0m0 0 156.38-7.995m-156.38 7.995h0m0 0h0M1246 1740.776h0m-281.917-145.72 281.917 145.72m0 0h0m0 0h0m-281.917-145.72h0m-78.072-133.022h.039M1246 1740.776h0m0 0h0m-571.515 50.755h0m0 0h0m0 0 289.598-196.475m0 0h0M16.277 644.308h0m0 0h0m214.269 36.607h0m-214.27-36.607h0m0 0h0m1561.769 407.648 105.9 302.023m0 0h0m0 0h0m-105.9-302.023h0" transform="matrix(.09967 0 0 -.09967 .257 178.802)"/></g><g clip-path="url(#m)"><path style="stroke:none;fill-rule:nonzero;fill:#d6f6e1;fill-opacity:1" d="m180.32 100.078-36.082-17.707 13.297-8.414"/></g><g clip-path="url(#n)"><path style="fill:none;stroke-width:5.00001;stroke-linecap:round;stroke-linejoin:round;stroke:#000;stroke-opacity:1;stroke-miterlimit:10" d="m1444.632 967.534 133.413 84.422m0 0 228.614-262.084m0 0h0m-362.027 177.662 133.413 84.422m0 0h0m0 0h0m-44.798-127.887h0m44.798 127.887h0m228.614-262.084h0m-228.614 262.084 228.614-262.084m-122.714 564.107h0m-105.9-302.023 105.9 302.023M736.999 2.48h0m0 0h0m0 0h0m8.23 217.326h0M737 2.481h0m804.557 447.782 31.786-169.902m-31.786 169.902 31.786-169.902m0 0h0M514.343 1512.358l160.143 279.173m0 0h0m-160.143-279.173 160.143 279.173m0 0h0m211.526-329.497h0m-211.526 329.497 211.526-329.497m-211.526 329.497h0m0 0 211.526-329.497m558.62-494.5 362.027-177.662m-266.083-195.848 266.083 195.848m-362.027 177.662 362.027-177.662m-266.083-195.848 266.083 195.848M473.229 355.847 737 2.48M341.501 699.845h0m.431-1.372 98.454-293.204m32.844-49.422L737 2.48M16.276 644.308l373-217.247m-373 217.247 373-217.247m35.745 23.986 15.364-45.778M341.5 699.845l83.52-248.798m-57.613 1081.221h0m0 0h0m0 0h0m75.604-144.113 3.017 5.173m-78.621 138.94h0m0 0h0m0 0h0m75.604-144.113 3.017 5.173m439.983 68.706L1246 1740.776m-359.99-278.742h0m359.99 278.742h0m0 0h0m0 0 77.406-301.2m-77.406 301.2h0m0 0h0m0 0 77.406-301.2m-437.395 22.458L1246 1740.776m0 0h0m118.128-343.489 319.816-43.308m-239.313-386.445 239.313 386.445m0 0h0m-239.157-386.21 239.157 386.21m0 0h0m-239.313-386.445.156.235m239.157 386.21h0m-319.816 43.308 319.816-43.308M16.277 644.309h0M341.5 699.844h0m25.907 832.423h0M16.277 644.308h0m0 0h0" transform="matrix(.09967 0 0 -.09967 .257 178.802)"/></g><path style="stroke:none;fill-rule:nonzero;fill:#006bda;fill-opacity:1" d="m25.25 82.113 2.2-12.097 26.968-10.489"/><g clip-path="url(#o)"><path style="fill:none;stroke-width:5.00001;stroke-linecap:round;stroke-linejoin:round;stroke:#000;stroke-opacity:1;stroke-miterlimit:10" d="m250.77 970.12 22.065 121.382m0 0 270.59 105.234m-270.59-105.234 94.573 440.766m176.016-335.532h0m-270.589-105.234v.04m0 0 94.573 440.726m-78.465-532.556h0M250.77 970.12l22.066 121.381M16.277 644.308l256.558 447.194m16.108-91.79h0m-16.108 91.79h0m-71.057 405.61 71.057-405.61M2.481 986.386l270.354 105.116" transform="matrix(.09967 0 0 -.09967 .257 178.802)"/></g><path style="stroke:none;fill-rule:nonzero;fill:#9a4b6b;fill-opacity:1" d="m157.176 132.734-41.942 15.258 6.29-28.937"/><g clip-path="url(#p)"><path style="fill:none;stroke-width:5.00001;stroke-linecap:round;stroke-linejoin:round;stroke:#000;stroke-opacity:1;stroke-miterlimit:10" d="m1153.622 309.129 420.817 153.088m0 0h0m0 0h0m0 0h0m-420.817-153.088 63.101 290.342m0 0h0m0 0h0m357.716-137.254h0m0 0h0m-139.958 53.695h0m0 0h0m139.958-53.695h0m-420.817-153.088 419.72-28.768m-419.72 28.768 419.72-28.768m-482.82-261.614 63.1 290.382m0 0h0M737 2.48h0m0 0 416.623 306.648M749.66 336.877h0M736.999 2.481h0m284.895 282.309h0m0 0 131.728 24.339m-131.728-24.34h0m0 0 131.023 24.261m0 0 .705.079m0 0 63.101 290.342m139.802 838.42h0m0 0h0m0 0h0M341.501 699.845h0M16.277 644.308 341.5 699.845M16.277 644.308h0m0 0L341.5 699.845M16.277 644.308h0M736.999 2.481l12.66 334.396M736.999 2.481l12.66 334.396m-206.235 859.859h0m-176.016 335.532 518.604-70.234m0 0 470.513-24.143m-470.513 24.143h0m470.513-24.143h0m0 0h0m0 0h0m0 0h0m-264.005-297.554h0m-205.724 320.482 205.724-320.482m-206.508 321.697.784-1.215m-101.158-169.863h0m0 0 99.982 170.412m0 0 .392.666m-342.588-265.298h0m0 0 9.564 7.407m0 0h0m-185.58 328.125h0m0 0h0m510.57-69.137 8.034-1.097m-518.604 70.234 510.57-69.137m478.547-25.24h0m-470.513 24.143 470.513-24.143m0 0h0m0 0h0m-470.513 24.143 206.508-321.697m124.203-540.866 227.909 368.063m-171.51-108.526h0m0 0 171.51 108.526m-352.112 172.803h0m0 0 351.955-172.764m0 0 .157-.039m-.863 4.664.863-4.664m-88.107 470.357 87.244-465.693m-87.244 465.693h0m0 0 88.107-470.357m-88.107 470.357h0m217.914-975.674h0m-129.807 505.317 129.807-505.317m-357.716 137.254 227.909 368.063m-171.51-108.526h0m0 0 171.51 108.526m-352.112 172.803 94.025-46.13m0 0 258.087-126.673m-1193.863 2.587h0m0 0 90.732-270.276m0 0h0M250.77 970.121l90.732-270.276" transform="matrix(.09967 0 0 -.09967 .257 178.802)"/></g><path style="stroke:none;fill-rule:nonzero;fill:#908dcb;fill-opacity:1" d="m40.215 142.844-5.922-33.793 42.316-7.23"/><path style="fill:none;stroke-width:5.00001;stroke-linecap:round;stroke-linejoin:round;stroke:#000;stroke-opacity:1;stroke-miterlimit:10" d="m341.501 699.845 59.417-339.06m-59.417 339.06 424.58 72.547M341.5 699.845h0m424.58 72.547h0M341.5 699.845l59.417-339.06m-59.417 339.06h0m59.417-339.06h0m0 0h0m0 0h0m0 0h0m0 0v.04m0-.04h0m620.976-75.995h0M749.66 336.877l272.235-52.087m0 0h0M749.66 336.877l272.235-52.087m-620.976 75.995 348.74-23.908m0 0h0m0 0h0m16.423 435.515h0m-16.422-435.515h0M367.408 1532.268l176.016-335.532m-176.016 335.532 176.016-335.532m0 0h0m937.579-698.657 93.436-35.862m-357.716 137.254 264.28-101.392m-264.28 101.392 357.716-137.254m-788.8 828.739h0m-242.215-94.22 242.214 94.22m-242.214-94.22h0M250.77 970.12l292.655 226.615m242.214 94.22h0m-242.214-94.22 242.214 94.22m-242.214-94.22h0m0 0h0m222.657-424.344h0M250.769 970.12h0m0 0 292.655 226.615m478.47-911.946h0m251.228 574.218h0m0 0h0M1021.894 284.79h0m0 0 194.83 314.681m0 0h0M766.08 772.391l.039-.039m450.603-172.88h0m-450.642 172.92 450.642-172.92m56.4 259.536h0m-56.4-259.537 56.4 259.537m-180.603 281.329 264.005 297.554m-264.005-297.554 264.005 297.554m-264.005-297.554 180.602-281.329m-487.484 431.948h0m0 0h0m0 0 231.553-113.62m75.33-37h0M766.08 772.393l326.44 367.945m-306.883 150.619h0m0 0h0m0 0 306.882-150.62m180.602-281.328h0m-180.602 281.329 180.602-281.329m-180.602 281.329h0M766.08 772.392l326.44 367.945M250.77 970.12l515.31-197.73m0 0h0m255.814-487.601h0m-210.31 400.828 210.31-400.828M766.081 772.352l45.503-86.734m461.538 173.39h0m-507.041-86.616 507.041 86.616M250.77 970.121h0m534.87 320.835h0M766.08 772.392l19.557 518.564m-384.72-930.17 365.163 411.606m0 0h0M400.918 360.785h0m620.976-75.995h0M766.081 772.392l255.813-487.602M785.638 1290.956h0m-19.557-518.564 19.557 518.564m-384.72-930.17 365.163 411.606m0 0 506.963 86.577" transform="matrix(.09967 0 0 -.09967 .257 178.802)"/></svg>