<svg xmlns="http://www.w3.org/2000/svg" width="234.32" height="199.707" viewBox="0 0 175.74 149.78" version="1.2"><defs><clipPath id="a"><path d="M40 42h135.48v54H40Zm0 0"/></clipPath><clipPath id="b"><path d="M97 42h78.48v54H97Zm0 0"/></clipPath><clipPath id="c"><path d="M97 42h78.48v55H97Zm0 0"/></clipPath><clipPath id="d"><path d="M5 52h170.48v44H5Zm0 0"/></clipPath><clipPath id="e"><path d="M151 29h24.48v67H151Zm0 0"/></clipPath><clipPath id="f"><path d="M151 29h24.48v68H151Zm0 0"/></clipPath><clipPath id="g"><path d="M5 84h170.48v43H5Zm0 0"/></clipPath><clipPath id="h"><path d="M79 95h96.48v54.559H79Zm0 0"/></clipPath><clipPath id="i"><path d="M18 95h157.48v54.559H18Zm0 0"/></clipPath><clipPath id="j"><path d="M18 125h62v24.559H18Zm0 0"/></clipPath><clipPath id="k"><path d="M148 69h27.48v67H148Zm0 0"/></clipPath><clipPath id="l"><path d="M147 68h28.48v68H147Zm0 0"/></clipPath><clipPath id="m"><path d="M172 29h3.48v67H172Zm0 0"/></clipPath><clipPath id="n"><path d="M172 29h3.48v68H172Zm0 0"/></clipPath><clipPath id="o"><path d="M18 93h62v56.559H18Zm0 0"/></clipPath><clipPath id="p"><path d="M18 92h62v57.559H18Zm0 0"/></clipPath><clipPath id="q"><path d="M79 98h70v51.559H79Zm0 0"/></clipPath><clipPath id="r"><path d="M79 97h70v52.559H79Zm0 0"/></clipPath><clipPath id="s"><path d="M41 93h78v56.559H41Zm0 0"/></clipPath><clipPath id="t"><path d="M41 92h78v57.559H41Zm0 0"/></clipPath></defs><path style="fill-rule:nonzero;fill:#bf7a96;fill-opacity:1;stroke-width:5;stroke-linecap:round;stroke-linejoin:round;stroke:#231f20;stroke-opacity:1;stroke-miterlimit:10" d="M665.24 1495.343 401.062 972.735l574.795 95.806Zm0 0" transform="matrix(.09985 0 0 -.09985 0 149.56)"/><path style="fill-rule:nonzero;fill:#91559b;fill-opacity:1;stroke-width:5;stroke-linecap:round;stroke-linejoin:round;stroke:#231f20;stroke-opacity:1;stroke-miterlimit:10" d="M1285.65 1462.678 975.855 1068.54l539.938-162.545Zm0 0" transform="matrix(.09985 0 0 -.09985 0 149.56)"/><path style="fill-rule:nonzero;fill:#a75787;fill-opacity:1;stroke-width:5;stroke-linecap:round;stroke-linejoin:round;stroke:#231f20;stroke-opacity:1;stroke-miterlimit:10" d="m1285.65 1462.678-620.41 32.665 310.616-426.802Zm0 0" transform="matrix(.09985 0 0 -.09985 0 149.56)"/><g clip-path="url(#a)"><path style="stroke:none;fill-rule:nonzero;fill:#aebce5;fill-opacity:1" d="M97.441 42.863 40.047 52.43 175.23 95.773"/></g><path style="fill:none;stroke-width:5;stroke-linecap:round;stroke-linejoin:round;stroke:#231f20;stroke-opacity:1;stroke-miterlimit:10" d="M975.856 1068.541 401.06 972.735" transform="matrix(.09985 0 0 -.09985 0 149.56)"/><g clip-path="url(#b)"><path style="stroke:none;fill-rule:nonzero;fill:#aebce5;fill-opacity:1" d="m175.23 95.773-23.875-36.68-53.914-16.23"/></g><g clip-path="url(#c)"><path style="fill:none;stroke-width:5;stroke-linecap:round;stroke-linejoin:round;stroke:#231f20;stroke-opacity:1;stroke-miterlimit:10" d="m1754.897 538.657-239.103 367.34-539.938 162.544" transform="matrix(.09985 0 0 -.09985 0 149.56)"/></g><path style="fill-rule:nonzero;fill:#ecab89;fill-opacity:1;stroke-width:5;stroke-linecap:round;stroke-linejoin:round;stroke:#231f20;stroke-opacity:1;stroke-miterlimit:10" d="M145.41 1287.888 57.077 648.272 401.06 972.735Zm0 0" transform="matrix(.09985 0 0 -.09985 0 149.56)"/><path style="fill-rule:nonzero;fill:#d67f78;fill-opacity:1;stroke-width:5;stroke-linecap:round;stroke-linejoin:round;stroke:#231f20;stroke-opacity:1;stroke-miterlimit:10" d="m665.24 1495.343-519.83-207.455 255.651-315.153Zm0 0" transform="matrix(.09985 0 0 -.09985 0 149.56)"/><g clip-path="url(#d)"><path style="stroke:none;fill-rule:nonzero;fill:#aebce5;fill-opacity:1" d="M40.047 52.43 5.699 84.828 175.23 95.773"/></g><path style="fill:none;stroke-width:5;stroke-linecap:round;stroke-linejoin:round;stroke:#231f20;stroke-opacity:1;stroke-miterlimit:10" d="M401.061 972.735 57.077 648.272" transform="matrix(.09985 0 0 -.09985 0 149.56)"/><g clip-path="url(#e)"><path style="stroke:none;fill-rule:nonzero;fill:#332f8d;fill-opacity:1" d="m172.992 29.8-21.637 29.294 23.875 36.68Zm0 0"/></g><g clip-path="url(#f)"><path style="fill:none;stroke-width:5;stroke-linecap:round;stroke-linejoin:round;stroke:#231f20;stroke-opacity:1;stroke-miterlimit:10" d="m1732.481 1199.36-216.687-293.364 239.103-367.34Zm0 0" transform="matrix(.09985 0 0 -.09985 0 149.56)"/></g><path style="fill-rule:nonzero;fill:#5a297e;fill-opacity:1;stroke-width:5;stroke-linecap:round;stroke-linejoin:round;stroke:#231f20;stroke-opacity:1;stroke-miterlimit:10" d="m1732.481 1199.36-446.832 263.318 230.145-556.682Zm0 0" transform="matrix(.09985 0 0 -.09985 0 149.56)"/><g clip-path="url(#g)"><path style="stroke:none;fill-rule:nonzero;fill:#aebce5;fill-opacity:1" d="m5.7 84.828 12.675 41.211L175.23 95.773"/></g><path style="fill:none;stroke-width:5;stroke-linecap:round;stroke-linejoin:round;stroke:#231f20;stroke-opacity:1;stroke-miterlimit:10" d="m57.077 648.272 126.945-412.72" transform="matrix(.09985 0 0 -.09985 0 149.56)"/><path style="stroke:none;fill-rule:nonzero;fill:#abc2e8;fill-opacity:1" d="m66.426.246 61.949 3.262-10 94.605"/><path style="fill:none;stroke-width:5;stroke-linecap:round;stroke-linejoin:round;stroke:#231f20;stroke-opacity:1;stroke-miterlimit:10" d="m665.24 1495.343 620.41-32.665" transform="matrix(.09985 0 0 -.09985 0 149.56)"/><path style="stroke:none;fill-rule:nonzero;fill:#abc2e8;fill-opacity:1" d="M14.52 20.96 66.426.247l51.949 97.867"/><path style="fill:none;stroke-width:5;stroke-linecap:round;stroke-linejoin:round;stroke:#231f20;stroke-opacity:1;stroke-miterlimit:10" d="m145.41 1287.888 519.83 207.455" transform="matrix(.09985 0 0 -.09985 0 149.56)"/><path style="stroke:none;fill-rule:nonzero;fill:#abc2e8;fill-opacity:1" d="M128.375 3.508 172.992 29.8l-54.617 68.312"/><path style="fill:none;stroke-width:5;stroke-linecap:round;stroke-linejoin:round;stroke:#231f20;stroke-opacity:1;stroke-miterlimit:10" d="m1285.65 1462.678 446.831-263.319" transform="matrix(.09985 0 0 -.09985 0 149.56)"/><path style="fill-rule:nonzero;fill:#eea925;fill-opacity:1;stroke-width:5;stroke-linecap:round;stroke-linejoin:round;stroke:#231f20;stroke-opacity:1;stroke-miterlimit:10" d="M145.41 1287.888 2.504 911.278l54.573-263.006Zm0 0" transform="matrix(.09985 0 0 -.09985 0 149.56)"/><path style="fill-rule:nonzero;fill:#100f0d;fill-opacity:1;stroke-width:5;stroke-linecap:round;stroke-linejoin:round;stroke:#231f20;stroke-opacity:1;stroke-miterlimit:10" d="m2.504 911.277 181.518-675.724L57.077 648.272Zm0 0" transform="matrix(.09985 0 0 -.09985 0 149.56)"/><path style="stroke:none;fill-rule:nonzero;fill:#abc2e8;fill-opacity:1" d="m.25 58.566 14.27-37.605 103.855 77.152"/><path style="fill:none;stroke-width:5;stroke-linecap:round;stroke-linejoin:round;stroke:#231f20;stroke-opacity:1;stroke-miterlimit:10" d="m2.504 911.277 142.906 376.611" transform="matrix(.09985 0 0 -.09985 0 149.56)"/><g clip-path="url(#h)"><path style="fill-rule:nonzero;fill:#aebce5;fill-opacity:1;stroke-width:5;stroke-linecap:round;stroke-linejoin:round;stroke:#231f20;stroke-opacity:1;stroke-miterlimit:10" d="m796.998 2.513 687.421 141.89 270.478 394.254" transform="matrix(.09985 0 0 -.09985 0 149.56)"/></g><g clip-path="url(#i)"><path style="stroke:none;fill-rule:nonzero;fill:#aebce5;fill-opacity:1" d="m18.375 126.04 61.207 23.269 95.648-53.536"/></g><g clip-path="url(#j)"><path style="fill:none;stroke-width:5;stroke-linecap:round;stroke-linejoin:round;stroke:#231f20;stroke-opacity:1;stroke-miterlimit:10" d="M184.022 235.553 796.998 2.513" transform="matrix(.09985 0 0 -.09985 0 149.56)"/></g><g clip-path="url(#k)"><path style="stroke:none;fill-rule:nonzero;fill:#ed8516;fill-opacity:1" d="m173.297 69.129 1.933 26.644-27.007 39.368Zm0 0"/></g><g clip-path="url(#l)"><path style="fill:none;stroke-width:5;stroke-linecap:round;stroke-linejoin:round;stroke:#231f20;stroke-opacity:1;stroke-miterlimit:10" d="m1735.533 805.496 19.364-266.84-270.478-394.254Zm0 0" transform="matrix(.09985 0 0 -.09985 0 149.56)"/></g><g clip-path="url(#m)"><path style="stroke:none;fill-rule:nonzero;fill:#b59f1c;fill-opacity:1" d="m173.297 69.129-.305-39.328 2.238 65.972Zm0 0"/></g><g clip-path="url(#n)"><path style="fill:none;stroke-width:5;stroke-linecap:round;stroke-linejoin:round;stroke:#231f20;stroke-opacity:1;stroke-miterlimit:10" d="m1735.533 805.496-3.052 393.863 22.416-660.702Zm0 0" transform="matrix(.09985 0 0 -.09985 0 149.56)"/></g><path style="fill-rule:nonzero;fill:#abc2e8;fill-opacity:1;stroke-width:5;stroke-linecap:round;stroke-linejoin:round;stroke:#231f20;stroke-opacity:1;stroke-miterlimit:10" d="m1732.481 1199.36 3.052-393.864L1185.5 515.224" transform="matrix(.09985 0 0 -.09985 0 149.56)"/><g clip-path="url(#o)"><path style="stroke:none;fill-rule:nonzero;fill:#712767;fill-opacity:1" d="m41.723 93.102 37.859 56.207-61.207-23.27Zm0 0"/></g><g clip-path="url(#p)"><path style="fill:none;stroke-width:5;stroke-linecap:round;stroke-linejoin:round;stroke:#231f20;stroke-opacity:1;stroke-miterlimit:10" d="M417.844 565.415 796.998 2.513l-612.976 233.04Zm0 0" transform="matrix(.09985 0 0 -.09985 0 149.56)"/></g><path style="fill-rule:nonzero;fill:#452a81;fill-opacity:1;stroke-width:5;stroke-linecap:round;stroke-linejoin:round;stroke:#231f20;stroke-opacity:1;stroke-miterlimit:10" d="m2.504 911.277 415.34-345.862-233.822-329.862Zm0 0" transform="matrix(.09985 0 0 -.09985 0 149.56)"/><path style="fill-rule:nonzero;fill:#abc2e8;fill-opacity:1;stroke-width:5;stroke-linecap:round;stroke-linejoin:round;stroke:#231f20;stroke-opacity:1;stroke-miterlimit:10" d="m1185.501 515.224-767.657 50.19L2.504 911.278" transform="matrix(.09985 0 0 -.09985 0 149.56)"/><g clip-path="url(#q)"><path style="stroke:none;fill-rule:nonzero;fill:#c25c69;fill-opacity:1" d="m118.375 98.113 29.848 37.028-68.641 14.168Zm0 0"/></g><g clip-path="url(#r)"><path style="fill:none;stroke-width:5;stroke-linecap:round;stroke-linejoin:round;stroke:#231f20;stroke-opacity:1;stroke-miterlimit:10" d="m1185.501 515.224 298.918-370.822L796.998 2.513Zm0 0" transform="matrix(.09985 0 0 -.09985 0 149.56)"/></g><path style="fill-rule:nonzero;fill:#e08f7d;fill-opacity:1;stroke-width:5;stroke-linecap:round;stroke-linejoin:round;stroke:#231f20;stroke-opacity:1;stroke-miterlimit:10" d="m1185.501 515.224 550.032 290.272-251.114-661.094Zm0 0" transform="matrix(.09985 0 0 -.09985 0 149.56)"/><g clip-path="url(#s)"><path style="stroke:none;fill-rule:nonzero;fill:#a65c8e;fill-opacity:1" d="m41.723 93.102 76.652 5.011-38.793 51.196Zm0 0"/></g><g clip-path="url(#t)"><path style="fill:none;stroke-width:5;stroke-linecap:round;stroke-linejoin:round;stroke:#231f20;stroke-opacity:1;stroke-miterlimit:10" d="m417.844 565.415 767.657-50.191L796.998 2.514Zm0 0" transform="matrix(.09985 0 0 -.09985 0 149.56)"/></g></svg>