<svg xmlns="http://www.w3.org/2000/svg" width="332.173" height="266.587" viewBox="0 0 249.13 199.94" version="1.2"><path style="fill-rule:nonzero;fill:#d7968d;fill-opacity:1;stroke-width:5;stroke-linecap:round;stroke-linejoin:round;stroke:#000;stroke-opacity:1;stroke-miterlimit:10" d="m581.79 1614.953 502.491 198.503 12.465-494.925" transform="matrix(.09965 0 0 -.09965 0 199.562)"/><path style="fill-rule:nonzero;fill:#d7968d;fill-opacity:1;stroke-width:5;stroke-linecap:round;stroke-linejoin:round;stroke:#000;stroke-opacity:1;stroke-miterlimit:10" d="M1096.746 1318.53 624.321 1106.7l-42.53 508.253" transform="matrix(.09965 0 0 -.09965 0 199.562)"/><path style="fill-rule:nonzero;fill:#ab7190;fill-opacity:1;stroke-width:5;stroke-linecap:round;stroke-linejoin:round;stroke:#000;stroke-opacity:1;stroke-miterlimit:10" d="m1662.622 1285.133-565.876 33.398-12.465 494.925" transform="matrix(.09965 0 0 -.09965 0 199.562)"/><path style="stroke:none;fill-rule:nonzero;fill:#a9bde8;fill-opacity:1" d="m109.293 68.168-47.078 21.11 143.691 48.648"/><path style="fill:none;stroke-width:5;stroke-linecap:round;stroke-linejoin:round;stroke:#000;stroke-opacity:1;stroke-miterlimit:10" d="M1096.746 1318.53 624.321 1106.7" transform="matrix(.09965 0 0 -.09965 0 199.562)"/><path style="stroke:none;fill-rule:nonzero;fill:#a9bde8;fill-opacity:1" d="m165.684 71.496-56.391-3.328 96.613 69.758"/><path style="fill:none;stroke-width:5;stroke-linecap:round;stroke-linejoin:round;stroke:#000;stroke-opacity:1;stroke-miterlimit:10" d="m1662.622 1285.133-565.876 33.398" transform="matrix(.09965 0 0 -.09965 0 199.562)"/><path style="fill-rule:nonzero;fill:#ab7190;fill-opacity:1;stroke-width:5;stroke-linecap:round;stroke-linejoin:round;stroke:#000;stroke-opacity:1;stroke-miterlimit:10" d="m1084.281 1813.456 599.508-31.202-21.167-497.12" transform="matrix(.09965 0 0 -.09965 0 199.562)"/><path style="fill-rule:nonzero;fill:#6b408b;fill-opacity:1;stroke-width:5;stroke-linecap:round;stroke-linejoin:round;stroke:#000;stroke-opacity:1;stroke-miterlimit:10" d="m2067.507 1016.582-404.885 268.551 21.167 497.121" transform="matrix(.09965 0 0 -.09965 0 199.562)"/><path style="fill-rule:nonzero;fill:#a9bde8;fill-opacity:1;stroke-width:5;stroke-linecap:round;stroke-linejoin:round;stroke:#000;stroke-opacity:1;stroke-miterlimit:10" d="m2066.253 618.517 1.254 398.065-404.885 268.551" transform="matrix(.09965 0 0 -.09965 0 199.562)"/><path style="fill-rule:nonzero;fill:#fcc661;fill-opacity:1;stroke-width:5;stroke-linecap:round;stroke-linejoin:round;stroke:#000;stroke-opacity:1;stroke-miterlimit:10" d="m443.3 1254.245 138.49 360.708 42.531-508.253" transform="matrix(.09965 0 0 -.09965 0 199.562)"/><path style="fill-rule:nonzero;fill:#fcc661;fill-opacity:1;stroke-width:5;stroke-linecap:round;stroke-linejoin:round;stroke:#000;stroke-opacity:1;stroke-miterlimit:10" d="M624.321 1106.7 498.375 725.06 443.3 1254.244" transform="matrix(.09965 0 0 -.09965 0 199.562)"/><path style="stroke:none;fill-rule:nonzero;fill:#a9bde8;fill-opacity:1" d="m62.215 89.277-12.55 38.032 156.241 10.617"/><path style="fill:none;stroke-width:5;stroke-linecap:round;stroke-linejoin:round;stroke:#000;stroke-opacity:1;stroke-miterlimit:10" d="M624.321 1106.7 498.375 725.06" transform="matrix(.09965 0 0 -.09965 0 199.562)"/><path style="fill-rule:nonzero;fill:#6b408b;fill-opacity:1;stroke-width:5;stroke-linecap:round;stroke-linejoin:round;stroke:#000;stroke-opacity:1;stroke-miterlimit:10" d="m1683.79 1782.254 432.05-252.127-48.333-513.545" transform="matrix(.09965 0 0 -.09965 0 199.562)"/><path style="fill-rule:nonzero;fill:#393960;fill-opacity:1;stroke-width:5;stroke-linecap:round;stroke-linejoin:round;stroke:#000;stroke-opacity:1;stroke-miterlimit:10" d="m2066.253 618.517 1.254 398.065 48.333 513.545" transform="matrix(.09965 0 0 -.09965 0 199.562)"/><path style="fill-rule:nonzero;fill:#393960;fill-opacity:1;stroke-width:5;stroke-linecap:round;stroke-linejoin:round;stroke:#000;stroke-opacity:1;stroke-miterlimit:10" d="m2115.84 1530.127 3.253-377.25-52.84-534.36" transform="matrix(.09965 0 0 -.09965 0 199.562)"/><path style="stroke:none;fill-rule:nonzero;fill:#a5c2ee;fill-opacity:1" d="m108.05 18.848-50.073 19.78 153.195 46.048"/><path style="fill:none;stroke-width:5;stroke-linecap:round;stroke-linejoin:round;stroke:#000;stroke-opacity:1;stroke-miterlimit:10" d="m1084.281 1813.456-502.49-198.503" transform="matrix(.09965 0 0 -.09965 0 199.562)"/><path style="stroke:none;fill-rule:nonzero;fill:#a5c2ee;fill-opacity:1" d="m167.793 21.957-59.742-3.11 103.12 65.829"/><path style="fill:none;stroke-width:5;stroke-linecap:round;stroke-linejoin:round;stroke:#000;stroke-opacity:1;stroke-miterlimit:10" d="m1683.79 1782.254-599.509 31.202" transform="matrix(.09965 0 0 -.09965 0 199.562)"/><path style="fill-rule:nonzero;fill:#a5c2ee;fill-opacity:1;stroke-width:5;stroke-linecap:round;stroke-linejoin:round;stroke:#000;stroke-opacity:1;stroke-miterlimit:10" d="m2119.093 1152.876-3.253 377.25-432.05 252.128" transform="matrix(.09965 0 0 -.09965 0 199.562)"/><path style="stroke:none;fill-rule:nonzero;fill:#a5c2ee;fill-opacity:1" d="M57.977 38.629 44.176 74.574l166.996 10.102"/><path style="fill:none;stroke-width:5;stroke-linecap:round;stroke-linejoin:round;stroke:#000;stroke-opacity:1;stroke-miterlimit:10" d="M581.79 1614.953 443.3 1254.245" transform="matrix(.09965 0 0 -.09965 0 199.562)"/><path style="fill-rule:nonzero;fill:#3b0c6a;fill-opacity:1;stroke-width:5;stroke-linecap:round;stroke-linejoin:round;stroke:#000;stroke-opacity:1;stroke-miterlimit:10" d="M844.737 922.74 443.3 1254.244l55.075-529.186" transform="matrix(.09965 0 0 -.09965 0 199.562)"/><path style="stroke:none;fill-rule:nonzero;fill:#a9bde8;fill-opacity:1" d="m49.664 127.309 37.668 34.593 118.574-23.976"/><path style="fill:none;stroke-width:5;stroke-linecap:round;stroke-linejoin:round;stroke:#000;stroke-opacity:1;stroke-miterlimit:10" d="M498.375 725.06 876.37 377.913" transform="matrix(.09965 0 0 -.09965 0 199.562)"/><path style="fill-rule:nonzero;fill:#3b0c6a;fill-opacity:1;stroke-width:5;stroke-linecap:round;stroke-linejoin:round;stroke:#000;stroke-opacity:1;stroke-miterlimit:10" d="M498.375 725.06 876.37 377.913l-31.633 544.825" transform="matrix(.09965 0 0 -.09965 0 199.562)"/><path style="fill-rule:nonzero;fill:#a9bde8;fill-opacity:1;stroke-width:5;stroke-linecap:round;stroke-linejoin:round;stroke:#000;stroke-opacity:1;stroke-miterlimit:10" d="m876.37 377.914 691.665-50.136 498.218 290.739" transform="matrix(.09965 0 0 -.09965 0 199.562)"/><path style="fill-rule:nonzero;fill:#e19377;fill-opacity:1;stroke-width:5;stroke-linecap:round;stroke-linejoin:round;stroke:#000;stroke-opacity:1;stroke-miterlimit:10" d="m1568.035 327.778 498.218 290.739 52.84 534.36" transform="matrix(.09965 0 0 -.09965 0 199.562)"/><path style="stroke:none;fill-rule:nonzero;fill:#a5c2ee;fill-opacity:1" d="M44.176 74.574 84.18 107.61l126.992-22.933"/><path style="fill:none;stroke-width:5;stroke-linecap:round;stroke-linejoin:round;stroke:#000;stroke-opacity:1;stroke-miterlimit:10" d="m443.3 1254.245 401.437-331.506" transform="matrix(.09965 0 0 -.09965 0 199.562)"/><path style="fill-rule:nonzero;fill:#a66381;fill-opacity:1;stroke-width:5;stroke-linecap:round;stroke-linejoin:round;stroke:#000;stroke-opacity:1;stroke-miterlimit:10" d="M1587.282 874.642 844.737 922.74l31.633-544.825M876.37 377.914l691.665-50.136 19.247 546.864" transform="matrix(.09965 0 0 -.09965 0 199.562)"/><path style="fill-rule:nonzero;fill:#e19377;fill-opacity:1;stroke-width:5;stroke-linecap:round;stroke-linejoin:round;stroke:#000;stroke-opacity:1;stroke-miterlimit:10" d="m2119.093 1152.876-531.811-278.234-19.247-546.864" transform="matrix(.09965 0 0 -.09965 0 199.562)"/><path style="fill-rule:nonzero;fill:#a5c2ee;fill-opacity:1;stroke-width:5;stroke-linecap:round;stroke-linejoin:round;stroke:#000;stroke-opacity:1;stroke-miterlimit:10" d="m844.737 922.74 742.545-48.098 531.811 278.234" transform="matrix(.09965 0 0 -.09965 0 199.562)"/></svg>