<svg xmlns="http://www.w3.org/2000/svg" width="272" height="200pt" viewBox="0 0 204 200" version="1.2"><path style="stroke:none;fill-rule:nonzero;fill:#bc9db8;fill-opacity:1" d="m123.441 71.254-21.87 81.527-59.801-61.77"/><path style="fill:none;stroke-width:5.4763;stroke-linecap:round;stroke-linejoin:round;stroke:#000;stroke-opacity:1;stroke-miterlimit:10" d="m1234.414 1287.46-218.71-815.273-598.009 617.696Zm0 0" transform="matrix(.1 0 0 -.1 0 200)"/><path style="stroke:none;fill-rule:nonzero;fill:#7f447e;fill-opacity:1" d="m125.453 9.766 63.363 66.468-65.375-4.98"/><path style="fill:none;stroke-width:5.4763;stroke-linecap:round;stroke-linejoin:round;stroke:#000;stroke-opacity:1;stroke-miterlimit:10" d="m1254.531 1902.344 633.633-664.688-653.75 49.805Zm0 0" transform="matrix(.1 0 0 -.1 0 200)"/><path style="stroke:none;fill-rule:nonzero;fill:#70bcfd;fill-opacity:1" d="m123.441 71.254 65.375 4.98-43.109 10.676"/><path style="fill:none;stroke-width:5.4763;stroke-linecap:round;stroke-linejoin:round;stroke:#000;stroke-opacity:1;stroke-miterlimit:10" d="m1234.414 1287.46 653.75-49.804" transform="matrix(.1 0 0 -.1 0 200)"/><path style="stroke:none;fill-rule:nonzero;fill:#f9b04c;fill-opacity:1" d="m123.441 71.254-21.87 81.527V97.84"/><path style="fill:none;stroke-width:5.4763;stroke-linecap:round;stroke-linejoin:round;stroke:#000;stroke-opacity:1;stroke-miterlimit:10" d="m1234.414 1287.46-218.71-815.273" transform="matrix(.1 0 0 -.1 0 200)"/><path style="stroke:none;fill-rule:nonzero;fill:#bc9db9;fill-opacity:1" d="m166.191 164.93 22.625-88.696L101.57 97.84"/><path style="fill:none;stroke-width:5.4763;stroke-linecap:round;stroke-linejoin:round;stroke:#000;stroke-opacity:1;stroke-miterlimit:10" d="m1661.914 350.703 226.25 886.953" transform="matrix(.1 0 0 -.1 0 200)"/><path style="stroke:none;fill-rule:nonzero;fill:#70bcfd;fill-opacity:1" d="M145.707 86.91 101.57 97.84l21.871-26.586"/><path style="stroke:none;fill-rule:nonzero;fill:#70bcfd;fill-opacity:1" d="M172.828 105.973 101.57 97.84l44.137-10.93"/><path style="stroke:none;fill-rule:nonzero;fill:#70bcfd;fill-opacity:1" d="m41.77 91.012 81.671-19.758-21.87 26.586"/><path style="fill:none;stroke-width:5.4763;stroke-linecap:round;stroke-linejoin:round;stroke:#000;stroke-opacity:1;stroke-miterlimit:10" d="m417.695 1089.883 816.72 197.578" transform="matrix(.1 0 0 -.1 0 200)"/><path style="stroke:none;fill-rule:nonzero;fill:#f9b04c;fill-opacity:1" d="m113.617 53.414 9.824 17.84-21.87 26.586"/><path style="stroke:none;fill-rule:nonzero;fill:#f9b04c;fill-opacity:1" d="m125.453 9.766-2.012 61.488-9.824-17.84"/><path style="fill:none;stroke-width:5.4763;stroke-linecap:round;stroke-linejoin:round;stroke:#000;stroke-opacity:1;stroke-miterlimit:10" d="m1254.531 1902.344-20.117-614.883" transform="matrix(.1 0 0 -.1 0 200)"/><path style="stroke:none;fill-rule:nonzero;fill:#bc9db9;fill-opacity:1" d="M125.453 9.766 36.13 29.898l77.488 23.516"/><path style="fill:none;stroke-width:5.4763;stroke-linecap:round;stroke-linejoin:round;stroke:#000;stroke-opacity:1;stroke-miterlimit:10" d="M1254.531 1902.344 361.29 1701.016" transform="matrix(.1 0 0 -.1 0 200)"/><path style="stroke:none;fill-rule:nonzero;fill:#f9b04c;fill-opacity:1" d="m101.57 31.54 23.883-21.774-11.836 43.648"/><path style="fill:none;stroke-width:5.4763;stroke-linecap:round;stroke-linejoin:round;stroke:#000;stroke-opacity:1;stroke-miterlimit:10" d="m1015.703 1684.61 238.828 217.734" transform="matrix(.1 0 0 -.1 0 200)"/><path style="stroke:none;fill-rule:nonzero;fill:#bc9db9;fill-opacity:1" d="M188.816 76.234 125.453 9.766l-11.836 43.648"/><path style="fill:none;stroke-width:5.4763;stroke-linecap:round;stroke-linejoin:round;stroke:#000;stroke-opacity:1;stroke-miterlimit:10" d="m1888.164 1237.656-633.633 664.688" transform="matrix(.1 0 0 -.1 0 200)"/><path style="stroke:none;fill-rule:nonzero;fill:#bc9db9;fill-opacity:1" d="M113.617 53.414 101.57 97.84l87.246-21.606M36.129 29.898 101.57 97.84l12.047-44.426"/><path style="stroke:none;fill-rule:nonzero;fill:#f9b04c;fill-opacity:1" d="m101.57 31.54 12.047 21.874L101.57 97.84"/><path style="stroke:none;fill-rule:nonzero;fill:#70bcfd;fill-opacity:1" d="m188.816 76.234-15.988 29.739-27.121-19.063"/><path style="fill:none;stroke-width:5.4763;stroke-linecap:round;stroke-linejoin:round;stroke:#000;stroke-opacity:1;stroke-miterlimit:10" d="m1888.164 1237.656-159.883-297.383" transform="matrix(.1 0 0 -.1 0 200)"/><path style="stroke:none;fill-rule:nonzero;fill:#84bcf8;fill-opacity:1" d="m166.191 164.93-89.363 24.152 24.742-36.3"/><path style="fill:none;stroke-width:5.4763;stroke-linecap:round;stroke-linejoin:round;stroke:#000;stroke-opacity:1;stroke-miterlimit:10" d="M1661.914 350.703 768.281 109.18l247.422 363.007Zm0 0" transform="matrix(.1 0 0 -.1 0 200)"/><path style="stroke:none;fill-rule:nonzero;fill:#743573;fill-opacity:1" d="m101.57 152.781-59.8-61.77 59.8-59.472"/><path style="fill:none;stroke-width:5.4763;stroke-linecap:round;stroke-linejoin:round;stroke:#000;stroke-opacity:1;stroke-miterlimit:10" d="m1015.703 472.188-598.008 617.695" transform="matrix(.1 0 0 -.1 0 200)"/><path style="stroke:none;fill-rule:nonzero;fill:#70bcfd;fill-opacity:1" d="M10.043 120.504 41.77 91.012l59.8 6.828"/><path style="fill:none;stroke-width:5.4763;stroke-linecap:round;stroke-linejoin:round;stroke:#000;stroke-opacity:1;stroke-miterlimit:10" d="m100.43 794.96 317.265 294.923" transform="matrix(.1 0 0 -.1 0 200)"/><path style="stroke:none;fill-rule:nonzero;fill:#f9b04c;fill-opacity:1" d="M101.57 97.84v54.941l-8.148-24.886"/><path style="fill-rule:nonzero;fill:#743573;fill-opacity:1;stroke-width:5.4763;stroke-linecap:round;stroke-linejoin:round;stroke:#000;stroke-opacity:1;stroke-miterlimit:10" d="m417.695 1089.883-56.406 611.133 654.414-16.407" transform="matrix(.1 0 0 -.1 0 200)"/><path style="stroke:none;fill-rule:nonzero;fill:#bc9db9;fill-opacity:1" d="m36.129 29.898 40.7 159.184L101.57 97.84"/><path style="stroke:none;fill-rule:nonzero;fill:#f9b04c;fill-opacity:1" d="m101.57 97.84-8.148 30.055-4.723-14.415"/><path style="stroke:none;fill-rule:nonzero;fill:#f9b04c;fill-opacity:1" d="m101.57 152.781-24.742 36.301L88.7 113.48"/><path style="fill:none;stroke-width:5.4763;stroke-linecap:round;stroke-linejoin:round;stroke:#000;stroke-opacity:1;stroke-miterlimit:10" d="M1015.703 472.188 768.281 109.18" transform="matrix(.1 0 0 -.1 0 200)"/><path style="stroke:none;fill-rule:nonzero;fill:#743573;fill-opacity:1" d="m166.191 164.93-64.62-12.149V31.54"/><path style="fill:none;stroke-width:5.4763;stroke-linecap:round;stroke-linejoin:round;stroke:#000;stroke-opacity:1;stroke-miterlimit:10" d="m1661.914 350.703-646.21 121.485" transform="matrix(.1 0 0 -.1 0 200)"/><path style="stroke:none;fill-rule:nonzero;fill:#bc9db9;fill-opacity:1" d="m76.828 189.082 89.363-24.152-64.62-67.09"/><path style="fill:none;stroke-width:5.4763;stroke-linecap:round;stroke-linejoin:round;stroke:#000;stroke-opacity:1;stroke-miterlimit:10" d="m768.281 109.18 893.633 241.523" transform="matrix(.1 0 0 -.1 0 200)"/><path style="fill-rule:nonzero;fill:#743573;fill-opacity:1;stroke-width:5.4763;stroke-linecap:round;stroke-linejoin:round;stroke:#000;stroke-opacity:1;stroke-miterlimit:10" d="m1015.703 1684.61 712.578-744.337-66.367-589.57" transform="matrix(.1 0 0 -.1 0 200)"/><path style="stroke:none;fill-rule:nonzero;fill:#70bcfd;fill-opacity:1" d="M172.828 105.973 88.7 113.48l12.871-15.64"/><path style="stroke:none;fill-rule:nonzero;fill:#fbb76d;fill-opacity:1" d="m36.129 29.898 5.64 61.114-31.726 29.492"/><path style="fill:none;stroke-width:5.4763;stroke-linecap:round;stroke-linejoin:round;stroke:#000;stroke-opacity:1;stroke-miterlimit:10" d="m361.29 1701.016 56.405-611.133L100.43 794.96Zm0 0" transform="matrix(.1 0 0 -.1 0 200)"/><path style="fill-rule:nonzero;fill:#bc9db9;fill-opacity:1;stroke-width:5.4763;stroke-linecap:round;stroke-linejoin:round;stroke:#000;stroke-opacity:1;stroke-miterlimit:10" d="M361.29 1701.016 100.43 794.96 768.28 109.18" transform="matrix(.1 0 0 -.1 0 200)"/><path style="stroke:none;fill-rule:nonzero;fill:#70bcfd;fill-opacity:1" d="m88.7 113.48-78.657 7.024L101.57 97.84"/><path style="stroke:none;fill-rule:nonzero;fill:#f9b04c;fill-opacity:1" d="M101.57 31.54v66.3L88.7 113.48"/><path style="stroke:none;fill-rule:nonzero;fill:#e39816;fill-opacity:1" d="m166.191 164.93 22.625-88.696-15.988 29.739"/><path style="fill:none;stroke-width:5.4763;stroke-linecap:round;stroke-linejoin:round;stroke:#000;stroke-opacity:1;stroke-miterlimit:10" d="m1661.914 350.703 226.25 886.953-159.883-297.383Zm0 0" transform="matrix(.1 0 0 -.1 0 200)"/><path style="stroke:none;fill-rule:nonzero;fill:#4eb5f9;fill-opacity:1" d="M125.453 9.766 36.13 29.898l65.441 1.641"/><path style="fill:none;stroke-width:5.4763;stroke-linecap:round;stroke-linejoin:round;stroke:#000;stroke-opacity:1;stroke-miterlimit:10" d="M1254.531 1902.344 361.29 1701.016l654.414-16.407Zm0 0" transform="matrix(.1 0 0 -.1 0 200)"/><path style="stroke:none;fill-rule:nonzero;fill:#642062;fill-opacity:1" d="m10.043 120.504 66.785 68.578-2.61-57.996"/><path style="fill:none;stroke-width:5.4763;stroke-linecap:round;stroke-linejoin:round;stroke:#000;stroke-opacity:1;stroke-miterlimit:10" d="M100.43 794.96 768.28 109.18l-26.093 579.96Zm0 0" transform="matrix(.1 0 0 -.1 0 200)"/><path style="stroke:none;fill-rule:nonzero;fill:#70bcfd;fill-opacity:1" d="m74.219 131.086-64.176-10.582 78.656-7.024"/><path style="fill:none;stroke-width:5.4763;stroke-linecap:round;stroke-linejoin:round;stroke:#000;stroke-opacity:1;stroke-miterlimit:10" d="M742.188 689.14 100.43 794.96" transform="matrix(.1 0 0 -.1 0 200)"/><path style="stroke:none;fill-rule:nonzero;fill:#f9b04c;fill-opacity:1" d="m76.828 189.082-2.61-57.996L88.7 113.48"/><path style="fill:none;stroke-width:5.4763;stroke-linecap:round;stroke-linejoin:round;stroke:#000;stroke-opacity:1;stroke-miterlimit:10" d="m768.281 109.18-26.093 579.96" transform="matrix(.1 0 0 -.1 0 200)"/><path style="stroke:none;fill-rule:nonzero;fill:#70bcfd;fill-opacity:1" d="m172.828 105.973-98.61 25.113L88.7 113.48"/><path style="fill:none;stroke-width:5.4763;stroke-linecap:round;stroke-linejoin:round;stroke:#000;stroke-opacity:1;stroke-miterlimit:10" d="M1728.281 940.273 742.188 689.141" transform="matrix(.1 0 0 -.1 0 200)"/><path style="stroke:none;fill-rule:nonzero;fill:#f9b04c;fill-opacity:1" d="m74.219 131.086 27.351-99.547L88.7 113.48"/><path style="fill:none;stroke-width:5.4763;stroke-linecap:round;stroke-linejoin:round;stroke:#000;stroke-opacity:1;stroke-miterlimit:10" d="m742.188 689.14 273.515 995.47" transform="matrix(.1 0 0 -.1 0 200)"/><path style="stroke:none;fill-rule:nonzero;fill:#bd9fb9;fill-opacity:1" d="M101.57 31.54 74.22 131.085l98.61-25.113"/><path style="fill:none;stroke-width:5.4763;stroke-linecap:round;stroke-linejoin:round;stroke:#000;stroke-opacity:1;stroke-miterlimit:10" d="M1015.703 1684.61 742.188 689.14l986.093 251.133Zm0 0" transform="matrix(.1 0 0 -.1 0 200)"/></svg>