<svg xmlns="http://www.w3.org/2000/svg" width="206pt" height="200pt" viewBox="0 0 206 200" version="1.2"><path style="fill-rule:nonzero;fill:#a092c6;fill-opacity:1;stroke-width:7.36;stroke-linecap:round;stroke-linejoin:round;stroke:#000;stroke-opacity:1;stroke-miterlimit:10" d="m1025.898 494.61 107.032 346.054 354.062 55.938" transform="matrix(.1 0 0 -.1 0 200)"/><path style="fill-rule:nonzero;fill:#bba2c0;fill-opacity:1;stroke-width:7.36;stroke-linecap:round;stroke-linejoin:round;stroke:#000;stroke-opacity:1;stroke-miterlimit:10" d="m780.156 959.688 352.774-119.024-107.032-346.055" transform="matrix(.1 0 0 -.1 0 200)"/><path style="stroke:none;fill-rule:nonzero;fill:#b692b1;fill-opacity:1" d="m106.148 79.438 7.145 36.496-35.277-11.903"/><path style="fill:none;stroke-width:7.36;stroke-linecap:round;stroke-linejoin:round;stroke:#000;stroke-opacity:1;stroke-miterlimit:10" d="m1061.484 1205.625 71.446-364.96-352.774 119.023Zm0 0" transform="matrix(.1 0 0 -.1 0 200)"/><path style="fill-rule:nonzero;fill:#a581ad;fill-opacity:1;stroke-width:7.36;stroke-linecap:round;stroke-linejoin:round;stroke:#000;stroke-opacity:1;stroke-miterlimit:10" d="m1132.93 840.664-71.446 364.961 354.375 62.227" transform="matrix(.1 0 0 -.1 0 200)"/><path style="fill-rule:nonzero;fill:#a581ad;fill-opacity:1;stroke-width:7.36;stroke-linecap:round;stroke-linejoin:round;stroke:#000;stroke-opacity:1;stroke-miterlimit:10" d="m1415.86 1267.852 71.132-371.25-354.062-55.938" transform="matrix(.1 0 0 -.1 0 200)"/><path style="fill-rule:nonzero;fill:#bba2c0;fill-opacity:1;stroke-width:7.36;stroke-linecap:round;stroke-linejoin:round;stroke:#000;stroke-opacity:1;stroke-miterlimit:10" d="M1025.898 494.61 667.54 614.257l112.617 345.43" transform="matrix(.1 0 0 -.1 0 200)"/><path style="fill-rule:nonzero;fill:#d3afb4;fill-opacity:1;stroke-width:7.36;stroke-linecap:round;stroke-linejoin:round;stroke:#000;stroke-opacity:1;stroke-miterlimit:10" d="m546.21 1215.469 233.946-255.782-112.617-345.43" transform="matrix(.1 0 0 -.1 0 200)"/><path style="fill-rule:nonzero;fill:#c08fa3;fill-opacity:1;stroke-width:7.36;stroke-linecap:round;stroke-linejoin:round;stroke:#000;stroke-opacity:1;stroke-miterlimit:10" d="m780.156 959.688-233.945 255.78 287.226 251.641M833.438 1467.11l228.046-261.485-281.328-245.938" transform="matrix(.1 0 0 -.1 0 200)"/><path style="stroke:none;fill-rule:nonzero;fill:#a76c8d;fill-opacity:1" d="M106.148 79.438 83.344 53.288l58.62-11.14"/><path style="fill:none;stroke-width:7.36;stroke-linecap:round;stroke-linejoin:round;stroke:#000;stroke-opacity:1;stroke-miterlimit:10" d="m1061.484 1205.625-228.046 261.484" transform="matrix(.1 0 0 -.1 0 200)"/><path style="fill-rule:nonzero;fill:#a76c8d;fill-opacity:1;stroke-width:7.36;stroke-linecap:round;stroke-linejoin:round;stroke:#000;stroke-opacity:1;stroke-miterlimit:10" d="m1419.648 1578.516-3.789-310.664-354.375-62.227" transform="matrix(.1 0 0 -.1 0 200)"/><path style="fill-rule:nonzero;fill:#a092c6;fill-opacity:1;stroke-width:7.36;stroke-linecap:round;stroke-linejoin:round;stroke:#000;stroke-opacity:1;stroke-miterlimit:10" d="M1610.586 577.89 1317.93 323.243 1025.898 494.61" transform="matrix(.1 0 0 -.1 0 200)"/><path style="stroke:none;fill-rule:nonzero;fill:#a092c6;fill-opacity:1" d="m148.7 110.34 12.359 31.87-58.47 8.33"/><path style="fill:none;stroke-width:7.36;stroke-linecap:round;stroke-linejoin:round;stroke:#000;stroke-opacity:1;stroke-miterlimit:10" d="m1486.992 896.602 123.594-318.711" transform="matrix(.1 0 0 -.1 0 200)"/><path style="fill-rule:nonzero;fill:#adb3dd;fill-opacity:1;stroke-width:7.36;stroke-linecap:round;stroke-linejoin:round;stroke:#000;stroke-opacity:1;stroke-miterlimit:10" d="m770.156 287.734 255.742 206.875 292.032-171.367" transform="matrix(.1 0 0 -.1 0 200)"/><path style="stroke:none;fill-rule:nonzero;fill:#beb4d0;fill-opacity:1" d="m66.754 138.574 35.836 11.965-25.574 20.688"/><path style="fill:none;stroke-width:7.36;stroke-linecap:round;stroke-linejoin:round;stroke:#000;stroke-opacity:1;stroke-miterlimit:10" d="m667.54 614.258 358.358-119.649-255.742-206.875Zm0 0" transform="matrix(.1 0 0 -.1 0 200)"/><path style="fill-rule:nonzero;fill:#11006d;fill-opacity:1;stroke-width:7.36;stroke-linecap:round;stroke-linejoin:round;stroke:#000;stroke-opacity:1;stroke-miterlimit:10" d="m1486.992 896.602-71.133 371.25 3.79 310.664" transform="matrix(.1 0 0 -.1 0 200)"/><path style="stroke:none;fill-rule:nonzero;fill:#11006d;fill-opacity:1" d="m161.059 142.21-12.36-31.87-6.734-68.192"/><path style="fill:none;stroke-width:7.36;stroke-linecap:round;stroke-linejoin:round;stroke:#000;stroke-opacity:1;stroke-miterlimit:10" d="m1610.586 577.89-123.594 318.712" transform="matrix(.1 0 0 -.1 0 200)"/><path style="fill-rule:nonzero;fill:#d1c9d2;fill-opacity:1;stroke-width:7.36;stroke-linecap:round;stroke-linejoin:round;stroke:#000;stroke-opacity:1;stroke-miterlimit:10" d="m352.227 644.96 315.312-30.702 102.617-326.524" transform="matrix(.1 0 0 -.1 0 200)"/><path style="stroke:none;fill-rule:nonzero;fill:#d3afb4;fill-opacity:1" d="m66.754 138.574-31.531-3.07 19.398-57.05"/><path style="fill:none;stroke-width:7.36;stroke-linecap:round;stroke-linejoin:round;stroke:#000;stroke-opacity:1;stroke-miterlimit:10" d="M667.54 614.258 352.226 644.96" transform="matrix(.1 0 0 -.1 0 200)"/><path style="fill-rule:nonzero;fill:#d3afb4;fill-opacity:1;stroke-width:7.36;stroke-linecap:round;stroke-linejoin:round;stroke:#000;stroke-opacity:1;stroke-miterlimit:10" d="m352.227 644.96-78.594 382.696L546.21 1215.47" transform="matrix(.1 0 0 -.1 0 200)"/><path style="stroke:none;fill-rule:nonzero;fill:#cb8a8e;fill-opacity:1" d="m52.086 47.426 31.258 5.863L54.62 78.453"/><path style="fill:none;stroke-width:7.36;stroke-linecap:round;stroke-linejoin:round;stroke:#000;stroke-opacity:1;stroke-miterlimit:10" d="m520.86 1525.742 312.577-58.633-287.226-251.64Zm0 0" transform="matrix(.1 0 0 -.1 0 200)"/><path style="fill-rule:nonzero;fill:#e09e8b;fill-opacity:1;stroke-width:7.36;stroke-linecap:round;stroke-linejoin:round;stroke:#000;stroke-opacity:1;stroke-miterlimit:10" d="m520.86 1525.742 25.35-310.273-272.577-187.813" transform="matrix(.1 0 0 -.1 0 200)"/><path style="fill-rule:nonzero;fill:#a76c8d;fill-opacity:1;stroke-width:7.36;stroke-linecap:round;stroke-linejoin:round;stroke:#000;stroke-opacity:1;stroke-miterlimit:10" d="m833.438 1467.11 214.921 239.453 371.29-128.047" transform="matrix(.1 0 0 -.1 0 200)"/><path style="fill-rule:nonzero;fill:#be6a6c;fill-opacity:1;stroke-width:7.36;stroke-linecap:round;stroke-linejoin:round;stroke:#000;stroke-opacity:1;stroke-miterlimit:10" d="m833.438 1467.11-312.579 58.632 211.993 249.375" transform="matrix(.1 0 0 -.1 0 200)"/><path style="fill-rule:nonzero;fill:#be6a6c;fill-opacity:1;stroke-width:7.36;stroke-linecap:round;stroke-linejoin:round;stroke:#000;stroke-opacity:1;stroke-miterlimit:10" d="m732.852 1775.117 315.507-68.554-214.921-239.454" transform="matrix(.1 0 0 -.1 0 200)"/><path style="fill-rule:nonzero;fill:#adb3dd;fill-opacity:1;stroke-width:7.36;stroke-linecap:round;stroke-linejoin:round;stroke:#000;stroke-opacity:1;stroke-miterlimit:10" d="m1317.93 323.242-253.907-217.695-293.867 182.187" transform="matrix(.1 0 0 -.1 0 200)"/><path style="fill-rule:nonzero;fill:#758cdb;fill-opacity:1;stroke-width:7.36;stroke-linecap:round;stroke-linejoin:round;stroke:#000;stroke-opacity:1;stroke-miterlimit:10" d="M1443.125 152.5 1317.93 323.242l292.656 254.649" transform="matrix(.1 0 0 -.1 0 200)"/><path style="stroke:none;fill-rule:nonzero;fill:#8caceb;fill-opacity:1" d="m106.402 189.445 25.391-21.77 12.52 17.075"/><path style="fill:none;stroke-width:7.36;stroke-linecap:round;stroke-linejoin:round;stroke:#000;stroke-opacity:1;stroke-miterlimit:10" d="m1064.023 105.547 253.907 217.695L1443.125 152.5Zm0 0" transform="matrix(.1 0 0 -.1 0 200)"/><path style="stroke:none;fill-rule:nonzero;fill:#11006d;fill-opacity:1" d="m175.012 158.07-13.953-15.86-19.094-100.062"/><path style="fill:none;stroke-width:7.36;stroke-linecap:round;stroke-linejoin:round;stroke:#000;stroke-opacity:1;stroke-miterlimit:10" d="M1750.117 419.297 1610.586 577.89" transform="matrix(.1 0 0 -.1 0 200)"/><path style="fill-rule:nonzero;fill:#758cdb;fill-opacity:1;stroke-width:7.36;stroke-linecap:round;stroke-linejoin:round;stroke:#000;stroke-opacity:1;stroke-miterlimit:10" d="m1610.586 577.89 139.531-158.593L1443.125 152.5" transform="matrix(.1 0 0 -.1 0 200)"/><path style="fill-rule:nonzero;fill:#b6e5f6;fill-opacity:1;stroke-width:7.36;stroke-linecap:round;stroke-linejoin:round;stroke:#000;stroke-opacity:1;stroke-miterlimit:10" d="m449.805 308.516 320.351-20.782 293.867-182.187" transform="matrix(.1 0 0 -.1 0 200)"/><path style="fill-rule:nonzero;fill:#d1c9d2;fill-opacity:1;stroke-width:7.36;stroke-linecap:round;stroke-linejoin:round;stroke:#000;stroke-opacity:1;stroke-miterlimit:10" d="m770.156 287.734-320.351 20.782-97.578 336.445" transform="matrix(.1 0 0 -.1 0 200)"/><path style="fill-rule:nonzero;fill:#e09e8b;fill-opacity:1;stroke-width:7.36;stroke-linecap:round;stroke-linejoin:round;stroke:#000;stroke-opacity:1;stroke-miterlimit:10" d="m273.633 1027.656-35.547 313.242 282.773 184.844" transform="matrix(.1 0 0 -.1 0 200)"/><path style="stroke:none;fill-rule:nonzero;fill:#00002b;fill-opacity:1" d="m35.223 135.504 9.757 33.644L34.398 65.496"/><path style="fill:none;stroke-width:7.36;stroke-linecap:round;stroke-linejoin:round;stroke:#000;stroke-opacity:1;stroke-miterlimit:10" d="m352.227 644.96 97.578-336.444" transform="matrix(.1 0 0 -.1 0 200)"/><path style="stroke:none;fill-rule:nonzero;fill:#00002b;fill-opacity:1" d="m27.363 97.234 7.86 38.27-.825-70.008"/><path style="fill:none;stroke-width:7.36;stroke-linecap:round;stroke-linejoin:round;stroke:#000;stroke-opacity:1;stroke-miterlimit:10" d="m273.633 1027.656 78.594-382.695" transform="matrix(.1 0 0 -.1 0 200)"/><path style="fill-rule:nonzero;fill:#7b1a3c;fill-opacity:1;stroke-width:7.36;stroke-linecap:round;stroke-linejoin:round;stroke:#000;stroke-opacity:1;stroke-miterlimit:10" d="m1503.867 1718.125-84.219-139.61-371.289 128.047" transform="matrix(.1 0 0 -.1 0 200)"/><path style="stroke:none;fill-rule:nonzero;fill:#11006d;fill-opacity:1" d="m185.547 149.836-10.535 8.234-33.047-115.922"/><path style="fill:none;stroke-width:7.36;stroke-linecap:round;stroke-linejoin:round;stroke:#000;stroke-opacity:1;stroke-miterlimit:10" d="m1855.469 501.64-105.352-82.343" transform="matrix(.1 0 0 -.1 0 200)"/><path style="stroke:none;fill-rule:nonzero;fill:#11006d;fill-opacity:1" d="m187.633 117.52-2.086 32.316-43.582-107.688"/><path style="fill:none;stroke-width:7.36;stroke-linecap:round;stroke-linejoin:round;stroke:#000;stroke-opacity:1;stroke-miterlimit:10" d="m1876.328 824.805-20.86-323.164" transform="matrix(.1 0 0 -.1 0 200)"/><path style="stroke:none;fill-rule:nonzero;fill:#11006d;fill-opacity:1" d="m179.46 73.848 8.173 43.672-45.668-75.372"/><path style="fill:none;stroke-width:7.36;stroke-linecap:round;stroke-linejoin:round;stroke:#000;stroke-opacity:1;stroke-miterlimit:10" d="m1794.61 1261.523 81.718-436.718" transform="matrix(.1 0 0 -.1 0 200)"/><path style="stroke:none;fill-rule:nonzero;fill:#11006d;fill-opacity:1" d="m164.73 39.223 14.73 34.625-37.495-31.7"/><path style="fill:none;stroke-width:7.36;stroke-linecap:round;stroke-linejoin:round;stroke:#000;stroke-opacity:1;stroke-miterlimit:10" d="m1647.305 1607.773 147.304-346.25" transform="matrix(.1 0 0 -.1 0 200)"/><path style="fill-rule:nonzero;fill:#11006d;fill-opacity:1;stroke-width:7.36;stroke-linecap:round;stroke-linejoin:round;stroke:#000;stroke-opacity:1;stroke-miterlimit:10" d="m1419.648 1578.516 84.22 139.609 143.437-110.352" transform="matrix(.1 0 0 -.1 0 200)"/><path style="stroke:none;fill-rule:nonzero;fill:#00002b;fill-opacity:1" d="m23.809 65.91 3.554 31.324 7.035-31.738"/><path style="fill:none;stroke-width:7.36;stroke-linecap:round;stroke-linejoin:round;stroke:#000;stroke-opacity:1;stroke-miterlimit:10" d="m238.086 1340.898 35.547-313.242" transform="matrix(.1 0 0 -.1 0 200)"/><path style="fill-rule:nonzero;fill:#7b1a3c;fill-opacity:1;stroke-width:7.36;stroke-linecap:round;stroke-linejoin:round;stroke:#000;stroke-opacity:1;stroke-miterlimit:10" d="m1048.36 1706.563 65.195 146.835 390.312-135.273" transform="matrix(.1 0 0 -.1 0 200)"/><path style="stroke:none;fill-rule:nonzero;fill:#9a292b;fill-opacity:1" d="m111.355 14.66-6.52 14.684-31.55-6.856"/><path style="fill:none;stroke-width:7.36;stroke-linecap:round;stroke-linejoin:round;stroke:#000;stroke-opacity:1;stroke-miterlimit:10" d="m1113.555 1853.398-65.196-146.835-315.507 68.554Zm0 0" transform="matrix(.1 0 0 -.1 0 200)"/><path style="stroke:none;fill-rule:nonzero;fill:#cc4f04;fill-opacity:1" d="M52.086 47.426 23.809 65.91l34.57-41.472"/><path style="fill:none;stroke-width:7.36;stroke-linecap:round;stroke-linejoin:round;stroke:#000;stroke-opacity:1;stroke-miterlimit:10" d="m520.86 1525.742-282.774-184.844" transform="matrix(.1 0 0 -.1 0 200)"/><path style="fill-rule:nonzero;fill:#cc4f04;fill-opacity:1;stroke-width:7.36;stroke-linecap:round;stroke-linejoin:round;stroke:#000;stroke-opacity:1;stroke-miterlimit:10" d="m583.79 1755.625 149.062 19.492-211.993-249.375" transform="matrix(.1 0 0 -.1 0 200)"/><path style="stroke:none;fill-rule:nonzero;fill:#b6e5f6;fill-opacity:1" d="M106.402 189.445 93.523 200.07 44.98 169.148"/><path style="fill:none;stroke-width:7.36;stroke-linecap:round;stroke-linejoin:round;stroke:#000;stroke-opacity:1;stroke-miterlimit:10" d="M1064.023 105.547 935.234-.703" transform="matrix(.1 0 0 -.1 0 200)"/><path style="fill-rule:nonzero;fill:#53b6fb;fill-opacity:1;stroke-width:7.36;stroke-linecap:round;stroke-linejoin:round;stroke:#000;stroke-opacity:1;stroke-miterlimit:10" d="m935.234-.703 128.79 106.25 379.101 46.953" transform="matrix(.1 0 0 -.1 0 200)"/><path style="fill-rule:nonzero;fill:#b6e5f6;fill-opacity:1;stroke-width:7.36;stroke-linecap:round;stroke-linejoin:round;stroke:#000;stroke-opacity:1;stroke-miterlimit:10" d="M935.234-.703 536.133 130.664l-86.328 177.852" transform="matrix(.1 0 0 -.1 0 200)"/><path style="stroke:none;fill-rule:nonzero;fill:#00002b;fill-opacity:1" d="m44.98 169.148 8.633 17.786L34.398 65.496"/><path style="fill:none;stroke-width:7.36;stroke-linecap:round;stroke-linejoin:round;stroke:#000;stroke-opacity:1;stroke-miterlimit:10" d="m449.805 308.516 86.328-177.852" transform="matrix(.1 0 0 -.1 0 200)"/><path style="fill-rule:nonzero;fill:#cc4f04;fill-opacity:1;stroke-width:7.36;stroke-linecap:round;stroke-linejoin:round;stroke:#000;stroke-opacity:1;stroke-miterlimit:10" d="m238.086 1340.898 23.594 131.915 322.11 282.812" transform="matrix(.1 0 0 -.1 0 200)"/><path style="fill-rule:nonzero;fill:#00002b;fill-opacity:1;stroke-width:7.36;stroke-linecap:round;stroke-linejoin:round;stroke:#000;stroke-opacity:1;stroke-miterlimit:10" d="m343.984 1345.04-82.304 127.773-23.594-131.915" transform="matrix(.1 0 0 -.1 0 200)"/><path style="fill-rule:nonzero;fill:#001893;fill-opacity:1;stroke-width:7.36;stroke-linecap:round;stroke-linejoin:round;stroke:#000;stroke-opacity:1;stroke-miterlimit:10" d="M1332.148 46.797 1443.125 152.5l306.992 266.797" transform="matrix(.1 0 0 -.1 0 200)"/><path style="fill-rule:nonzero;fill:#53b6fb;fill-opacity:1;stroke-width:7.36;stroke-linecap:round;stroke-linejoin:round;stroke:#000;stroke-opacity:1;stroke-miterlimit:10" d="M1443.125 152.5 1332.148 46.797 935.234-.703" transform="matrix(.1 0 0 -.1 0 200)"/><path style="stroke:none;fill-rule:nonzero;fill:#001893;fill-opacity:1" d="m175.012 158.07 10.535-8.234-52.332 45.484"/><path style="fill:none;stroke-width:7.36;stroke-linecap:round;stroke-linejoin:round;stroke:#000;stroke-opacity:1;stroke-miterlimit:10" d="m1750.117 419.297 105.352 82.344" transform="matrix(.1 0 0 -.1 0 200)"/><path style="fill-rule:nonzero;fill:#300;fill-opacity:1;stroke-width:7.36;stroke-linecap:round;stroke-linejoin:round;stroke:#000;stroke-opacity:1;stroke-miterlimit:10" d="m732.852 1775.117-149.063-19.492 398.516 82.188" transform="matrix(.1 0 0 -.1 0 200)"/><path style="fill-rule:nonzero;fill:#300;fill-opacity:1;stroke-width:7.36;stroke-linecap:round;stroke-linejoin:round;stroke:#000;stroke-opacity:1;stroke-miterlimit:10" d="m982.305 1837.813 131.25 15.585-380.703-78.28" transform="matrix(.1 0 0 -.1 0 200)"/><path style="stroke:none;fill-rule:nonzero;fill:#8aeceb;fill-opacity:1" d="M150.387 28.188 111.355 14.66l20.68 17.348"/><path style="fill:none;stroke-width:7.36;stroke-linecap:round;stroke-linejoin:round;stroke:#000;stroke-opacity:1;stroke-miterlimit:10" d="m1503.867 1718.125-390.312 135.273" transform="matrix(.1 0 0 -.1 0 200)"/><path style="fill-rule:nonzero;fill:#8aeceb;fill-opacity:1;stroke-width:7.36;stroke-linecap:round;stroke-linejoin:round;stroke:#000;stroke-opacity:1;stroke-miterlimit:10" d="m1320.352 1679.922 326.953-72.149-143.438 110.352M1113.555 1853.398l-131.25-15.585 338.047-157.891" transform="matrix(.1 0 0 -.1 0 200)"/><path style="fill-rule:nonzero;fill:#380000;fill-opacity:1;stroke-width:7.36;stroke-linecap:round;stroke-linejoin:round;stroke:#000;stroke-opacity:1;stroke-miterlimit:10" d="m935.234-.703 63.438 61.68-421.25 138.984" transform="matrix(.1 0 0 -.1 0 200)"/><path style="fill-rule:nonzero;fill:#380000;fill-opacity:1;stroke-width:7.36;stroke-linecap:round;stroke-linejoin:round;stroke:#000;stroke-opacity:1;stroke-miterlimit:10" d="m577.422 199.96-41.29-69.296L935.235-.703" transform="matrix(.1 0 0 -.1 0 200)"/><path style="stroke:none;fill-rule:nonzero;fill:#5c0000;fill-opacity:1" d="m99.867 193.902-6.344 6.168 39.692-4.75"/><path style="fill:none;stroke-width:7.36;stroke-linecap:round;stroke-linejoin:round;stroke:#000;stroke-opacity:1;stroke-miterlimit:10" d="M998.672 60.977 935.234-.703l396.914 47.5Zm0 0" transform="matrix(.1 0 0 -.1 0 200)"/><path style="stroke:none;fill-rule:nonzero;fill:#00002b;fill-opacity:1" d="m53.613 186.934 4.13-6.93L34.397 65.496"/><path style="fill:none;stroke-width:7.36;stroke-linecap:round;stroke-linejoin:round;stroke:#000;stroke-opacity:1;stroke-miterlimit:10" d="m536.133 130.664 41.289 69.297" transform="matrix(.1 0 0 -.1 0 200)"/><path style="fill-rule:nonzero;fill:#001893;fill-opacity:1;stroke-width:7.36;stroke-linecap:round;stroke-linejoin:round;stroke:#000;stroke-opacity:1;stroke-miterlimit:10" d="m1855.469 501.64-263.946-235.624-259.375-219.22" transform="matrix(.1 0 0 -.1 0 200)"/><path style="fill-rule:nonzero;fill:#b94e40;fill-opacity:1;stroke-width:7.36;stroke-linecap:round;stroke-linejoin:round;stroke:#000;stroke-opacity:1;stroke-miterlimit:10" d="m998.672 60.977 333.476-14.18 259.375 219.219" transform="matrix(.1 0 0 -.1 0 200)"/><path style="fill-rule:nonzero;fill:#487de1;fill-opacity:1;stroke-width:7.36;stroke-linecap:round;stroke-linejoin:round;stroke:#000;stroke-opacity:1;stroke-miterlimit:10" d="m261.68 1472.813 82.304-127.774 339.532 297.852" transform="matrix(.1 0 0 -.1 0 200)"/><path style="fill-rule:nonzero;fill:#487de1;fill-opacity:1;stroke-width:7.36;stroke-linecap:round;stroke-linejoin:round;stroke:#000;stroke-opacity:1;stroke-miterlimit:10" d="m683.516 1642.89-99.727 112.735-322.11-282.813" transform="matrix(.1 0 0 -.1 0 200)"/><path style="stroke:none;fill-rule:nonzero;fill:#67adf8;fill-opacity:1" d="M68.352 35.71 98.23 16.22 58.38 24.437"/><path style="fill:none;stroke-width:7.36;stroke-linecap:round;stroke-linejoin:round;stroke:#000;stroke-opacity:1;stroke-miterlimit:10" d="m683.516 1642.89 298.789 194.922-398.516-82.187Zm0 0" transform="matrix(.1 0 0 -.1 0 200)"/><path style="fill-rule:nonzero;fill:#ec9d70;fill-opacity:1;stroke-width:7.36;stroke-linecap:round;stroke-linejoin:round;stroke:#000;stroke-opacity:1;stroke-miterlimit:10" d="m1855.469 501.64 20.86 323.165-273.516-233.672" transform="matrix(.1 0 0 -.1 0 200)"/><path style="fill-rule:nonzero;fill:#ec9d70;fill-opacity:1;stroke-width:7.36;stroke-linecap:round;stroke-linejoin:round;stroke:#000;stroke-opacity:1;stroke-miterlimit:10" d="m1602.813 591.133-11.29-325.117L1855.47 501.64" transform="matrix(.1 0 0 -.1 0 200)"/><path style="fill-rule:nonzero;fill:#d8dbd9;fill-opacity:1;stroke-width:7.36;stroke-linecap:round;stroke-linejoin:round;stroke:#000;stroke-opacity:1;stroke-miterlimit:10" d="m1647.305 1607.773-326.953 72.149 142.773-357.188" transform="matrix(.1 0 0 -.1 0 200)"/><path style="fill-rule:nonzero;fill:#d8dbd9;fill-opacity:1;stroke-width:7.36;stroke-linecap:round;stroke-linejoin:round;stroke:#000;stroke-opacity:1;stroke-miterlimit:10" d="m1463.125 1322.734 331.484-61.21-147.304 346.25" transform="matrix(.1 0 0 -.1 0 200)"/><path style="fill-rule:nonzero;fill:#a6bdea;fill-opacity:1;stroke-width:7.36;stroke-linecap:round;stroke-linejoin:round;stroke:#000;stroke-opacity:1;stroke-miterlimit:10" d="m982.305 1837.813-298.79-194.922 340.43-169.649" transform="matrix(.1 0 0 -.1 0 200)"/><path style="fill-rule:nonzero;fill:#a6bdea;fill-opacity:1;stroke-width:7.36;stroke-linecap:round;stroke-linejoin:round;stroke:#000;stroke-opacity:1;stroke-miterlimit:10" d="m1023.945 1473.242 296.407 206.68-338.047 157.89" transform="matrix(.1 0 0 -.1 0 200)"/><path style="fill-rule:nonzero;fill:#b94e40;fill-opacity:1;stroke-width:7.36;stroke-linecap:round;stroke-linejoin:round;stroke:#000;stroke-opacity:1;stroke-miterlimit:10" d="m1591.523 266.016-335.859 23.007L998.672 60.977" transform="matrix(.1 0 0 -.1 0 200)"/><path style="stroke:none;fill-rule:nonzero;fill:#d1857c;fill-opacity:1" d="m125.566 171.098 33.586 2.3 1.13-32.511"/><path style="fill:none;stroke-width:7.36;stroke-linecap:round;stroke-linejoin:round;stroke:#000;stroke-opacity:1;stroke-miterlimit:10" d="m1255.664 289.023 335.86-23.007 11.289 325.117Zm0 0" transform="matrix(.1 0 0 -.1 0 200)"/><path style="stroke:none;fill-rule:nonzero;fill:#a25e7f;fill-opacity:1" d="m99.867 193.902 25.7-22.804-70.68-23.508"/><path style="fill:none;stroke-width:7.36;stroke-linecap:round;stroke-linejoin:round;stroke:#000;stroke-opacity:1;stroke-miterlimit:10" d="m998.672 60.977 256.992 228.046" transform="matrix(.1 0 0 -.1 0 200)"/><path style="fill-rule:nonzero;fill:#a25e7f;fill-opacity:1;stroke-width:7.36;stroke-linecap:round;stroke-linejoin:round;stroke:#000;stroke-opacity:1;stroke-miterlimit:10" d="m548.867 524.102 28.555-324.141 421.25-138.984" transform="matrix(.1 0 0 -.1 0 200)"/><path style="stroke:none;fill-rule:nonzero;fill:#dbb6b2;fill-opacity:1" d="m187.633 117.52-8.172-43.672-45.938 36.332"/><path style="fill:none;stroke-width:7.36;stroke-linecap:round;stroke-linejoin:round;stroke:#000;stroke-opacity:1;stroke-miterlimit:10" d="m1876.328 824.805-81.719 436.718" transform="matrix(.1 0 0 -.1 0 200)"/><path style="fill-rule:nonzero;fill:#dbb6b2;fill-opacity:1;stroke-width:7.36;stroke-linecap:round;stroke-linejoin:round;stroke:#000;stroke-opacity:1;stroke-miterlimit:10" d="m1335.234 898.203 267.579-307.07 273.515 233.672" transform="matrix(.1 0 0 -.1 0 200)"/><path style="stroke:none;fill-rule:nonzero;fill:#00002b;fill-opacity:1" d="m57.742 180.004-2.855-32.414-20.489-82.094"/><path style="fill:none;stroke-width:7.36;stroke-linecap:round;stroke-linejoin:round;stroke:#000;stroke-opacity:1;stroke-miterlimit:10" d="m577.422 199.96-28.555 324.142" transform="matrix(.1 0 0 -.1 0 200)"/><path style="fill-rule:nonzero;fill:#dbb6b2;fill-opacity:1;stroke-width:7.36;stroke-linecap:round;stroke-linejoin:round;stroke:#000;stroke-opacity:1;stroke-miterlimit:10" d="m1794.61 1261.523-331.485 61.211-127.89-424.53" transform="matrix(.1 0 0 -.1 0 200)"/><path style="stroke:none;fill-rule:nonzero;fill:#c0bed7;fill-opacity:1" d="m102.395 52.676 43.918 15.05-14.278-35.718"/><path style="fill:none;stroke-width:7.36;stroke-linecap:round;stroke-linejoin:round;stroke:#000;stroke-opacity:1;stroke-miterlimit:10" d="m1023.945 1473.242 439.18-150.508-142.773 357.188Zm0 0" transform="matrix(.1 0 0 -.1 0 200)"/><path style="fill-rule:nonzero;fill:#9992cb;fill-opacity:1;stroke-width:7.36;stroke-linecap:round;stroke-linejoin:round;stroke:#000;stroke-opacity:1;stroke-miterlimit:10" d="m683.516 1642.89-339.532-297.85 112.813-368.282" transform="matrix(.1 0 0 -.1 0 200)"/><path style="fill-rule:nonzero;fill:#00002b;fill-opacity:1;stroke-width:7.36;stroke-linecap:round;stroke-linejoin:round;stroke:#000;stroke-opacity:1;stroke-miterlimit:10" d="m548.867 524.102-92.07 452.656-112.813 368.281" transform="matrix(.1 0 0 -.1 0 200)"/><path style="stroke:none;fill-rule:nonzero;fill:#9992cb;fill-opacity:1" d="M102.395 52.676 68.352 35.71 45.68 102.324"/><path style="fill:none;stroke-width:7.36;stroke-linecap:round;stroke-linejoin:round;stroke:#000;stroke-opacity:1;stroke-miterlimit:10" d="m1023.945 1473.242-340.43 169.649" transform="matrix(.1 0 0 -.1 0 200)"/><path style="fill-rule:nonzero;fill:#a25e7f;fill-opacity:1;stroke-width:7.36;stroke-linecap:round;stroke-linejoin:round;stroke:#000;stroke-opacity:1;stroke-miterlimit:10" d="m1255.664 289.023-276.719 298.36-430.078-63.281" transform="matrix(.1 0 0 -.1 0 200)"/><path style="fill-rule:nonzero;fill:#c38e9d;fill-opacity:1;stroke-width:7.36;stroke-linecap:round;stroke-linejoin:round;stroke:#000;stroke-opacity:1;stroke-miterlimit:10" d="m978.945 587.383 276.72-298.36 347.148 302.11" transform="matrix(.1 0 0 -.1 0 200)"/><path style="fill-rule:nonzero;fill:#c38e9d;fill-opacity:1;stroke-width:7.36;stroke-linecap:round;stroke-linejoin:round;stroke:#000;stroke-opacity:1;stroke-miterlimit:10" d="m1602.813 591.133-267.579 307.07-356.289-310.82" transform="matrix(.1 0 0 -.1 0 200)"/><path style="fill-rule:nonzero;fill:#a17cab;fill-opacity:1;stroke-width:7.36;stroke-linecap:round;stroke-linejoin:round;stroke:#000;stroke-opacity:1;stroke-miterlimit:10" d="m456.797 976.758 92.07-452.656 430.078 63.28" transform="matrix(.1 0 0 -.1 0 200)"/><path style="fill-rule:nonzero;fill:#bca6c3;fill-opacity:1;stroke-width:7.36;stroke-linecap:round;stroke-linejoin:round;stroke:#000;stroke-opacity:1;stroke-miterlimit:10" d="m1463.125 1322.734-439.18 150.508-136.68-423.437" transform="matrix(.1 0 0 -.1 0 200)"/><path style="fill-rule:nonzero;fill:#bca6c3;fill-opacity:1;stroke-width:7.36;stroke-linecap:round;stroke-linejoin:round;stroke:#000;stroke-opacity:1;stroke-miterlimit:10" d="m887.266 1049.805 447.968-151.602 127.891 424.531" transform="matrix(.1 0 0 -.1 0 200)"/><path style="fill-rule:nonzero;fill:#9992cb;fill-opacity:1;stroke-width:7.36;stroke-linecap:round;stroke-linejoin:round;stroke:#000;stroke-opacity:1;stroke-miterlimit:10" d="m456.797 976.758 430.469 73.047 136.68 423.437" transform="matrix(.1 0 0 -.1 0 200)"/><path style="fill-rule:nonzero;fill:#a17cab;fill-opacity:1;stroke-width:7.36;stroke-linecap:round;stroke-linejoin:round;stroke:#000;stroke-opacity:1;stroke-miterlimit:10" d="m978.945 587.383-91.68 462.422-430.468-73.047" transform="matrix(.1 0 0 -.1 0 200)"/><path style="stroke:none;fill-rule:nonzero;fill:#b791b0;fill-opacity:1" d="m88.727 95.02 9.168 46.242 35.628-31.082"/><path style="fill:none;stroke-width:7.36;stroke-linecap:round;stroke-linejoin:round;stroke:#000;stroke-opacity:1;stroke-miterlimit:10" d="m887.266 1049.805 91.68-462.422 356.288 310.82Zm0 0" transform="matrix(.1 0 0 -.1 0 200)"/></svg>