<svg xmlns="http://www.w3.org/2000/svg" width="277pt" height="178pt" viewBox="0 0 277 178" version="1.2"><path style="stroke:none;fill-rule:evenodd;fill:#cad2e1;fill-opacity:1" d="M150.465 58.43 17.055 75.91l117.23 101.07 16.18-118.55"/><path style="fill:none;stroke-width:9.531;stroke-linecap:butt;stroke-linejoin:miter;stroke:#231f20;stroke-opacity:1;stroke-miterlimit:4" d="M1504.648 1195.703 170.547 1020.898 1342.852 10.195Zm0 0" transform="matrix(.1 0 0 -.1 0 178)"/><path style="stroke:none;fill-rule:evenodd;fill:#7a8ac2;fill-opacity:1" d="M275.055 88.035 150.465 58.43l-16.18 118.55 140.77-88.945"/><path style="fill:none;stroke-width:9.531;stroke-linecap:butt;stroke-linejoin:miter;stroke:#231f20;stroke-opacity:1;stroke-miterlimit:4" d="m2750.547 899.648-1245.899 296.055L1342.852 10.195Zm0 0" transform="matrix(.1 0 0 -.1 0 178)"/><path style="stroke:none;fill-rule:evenodd;fill:#964838;fill-opacity:1" d="M150.465 58.43 17.055 75.91 135.648 1.844l14.817 56.586"/><path style="fill:none;stroke-width:9.531;stroke-linecap:butt;stroke-linejoin:miter;stroke:#231f20;stroke-opacity:1;stroke-miterlimit:4" d="M1504.648 1195.703 170.547 1020.898l1185.937 740.664Zm0 0" transform="matrix(.1 0 0 -.1 0 178)"/><path style="stroke:none;fill-rule:evenodd;fill:#2b2525;fill-opacity:1" d="M275.055 88.035 150.465 58.43 135.648 1.844l139.407 86.191"/><path style="fill:none;stroke-width:9.531;stroke-linecap:butt;stroke-linejoin:miter;stroke:#231f20;stroke-opacity:1;stroke-miterlimit:4" d="m2750.547 899.648-1245.899 296.055-148.164 565.86Zm0 0" transform="matrix(.1 0 0 -.1 0 178)"/><path style="stroke:none;fill-rule:evenodd;fill:#b4e2d1;fill-opacity:1" d="m17.055 75.91-14.23 63.43 131.46 37.64L17.055 75.91"/><path style="fill:none;stroke-width:9.531;stroke-linecap:butt;stroke-linejoin:miter;stroke:#231f20;stroke-opacity:1;stroke-miterlimit:4" d="M170.547 1020.898 28.242 386.602l1314.61-376.407Zm0 0" transform="matrix(.1 0 0 -.1 0 178)"/><path style="stroke:none;fill-rule:evenodd;fill:#3e5995;fill-opacity:1" d="m17.055 75.91-14.23 63.43L135.647 1.844 17.055 75.91"/><path style="fill:none;stroke-width:9.531;stroke-linecap:butt;stroke-linejoin:miter;stroke:#231f20;stroke-opacity:1;stroke-miterlimit:4" d="M170.547 1020.898 28.242 386.602l1328.242 1374.96Zm0 0" transform="matrix(.1 0 0 -.1 0 178)"/><path style="stroke:none;fill-rule:evenodd;fill:#3b609c;fill-opacity:1" d="m232.117 155.129 42.938-67.094-140.77 88.945 97.832-21.851"/><path style="fill:none;stroke-width:9.531;stroke-linecap:butt;stroke-linejoin:miter;stroke:#231f20;stroke-opacity:1;stroke-miterlimit:4" d="m2321.172 228.71 429.375 670.938L1342.852 10.195Zm0 0" transform="matrix(.1 0 0 -.1 0 178)"/><path style="stroke:none;fill-rule:evenodd;fill:#372f2d;fill-opacity:1" d="m2.824 139.34 229.293 15.789-97.832 21.851-131.46-37.64"/><path style="fill:none;stroke-width:9.531;stroke-linecap:butt;stroke-linejoin:miter;stroke:#231f20;stroke-opacity:1;stroke-miterlimit:4" d="m28.242 386.602 2292.93-157.891-978.32-218.516Zm0 0" transform="matrix(.1 0 0 -.1 0 178)"/><path style="stroke:none;fill-rule:evenodd;fill:#c1e9d6;fill-opacity:1" d="m232.117 155.129 42.938-67.094L135.648 1.844l96.47 153.285"/><path style="fill:none;stroke-width:9.531;stroke-linecap:butt;stroke-linejoin:miter;stroke:#231f20;stroke-opacity:1;stroke-miterlimit:4" d="m2321.172 228.71 429.375 670.938-1394.063 861.914Zm0 0" transform="matrix(.1 0 0 -.1 0 178)"/><path style="stroke:none;fill-rule:evenodd;fill:#96aad8;fill-opacity:1" d="m2.824 139.34 229.293 15.789L135.648 1.844 2.824 139.34"/><path style="fill:none;stroke-width:9.531;stroke-linecap:butt;stroke-linejoin:miter;stroke:#231f20;stroke-opacity:1;stroke-miterlimit:4" d="m28.242 386.602 2292.93-157.891-964.688 1532.851Zm0 0" transform="matrix(.1 0 0 -.1 0 178)"/></svg>