<svg xmlns="http://www.w3.org/2000/svg" width="396" height="240" viewBox="0 0 297 180" version="1.2"><path style="stroke:none;fill-rule:nonzero;fill:#a9bde8;fill-opacity:1" d="m99.852 8.918-88.38 82.867 273.333 32.3"/><path style="fill:none;stroke-width:8.31247;stroke-linecap:round;stroke-linejoin:round;stroke:#000;stroke-opacity:1;stroke-miterlimit:10" d="m998.516 1710.82-883.79-828.672" transform="matrix(.1 0 0 -.1 0 180)"/><path style="fill-rule:nonzero;fill:#a9bde8;fill-opacity:1;stroke-width:8.31247;stroke-linecap:round;stroke-linejoin:round;stroke:#000;stroke-opacity:1;stroke-miterlimit:10" d="M2848.047 559.14 2497.148 1555 998.516 1710.82" transform="matrix(.1 0 0 -.1 0 180)"/><path style="stroke:none;fill-rule:nonzero;fill:#0b0000;fill-opacity:1" d="M249.715 24.5 99.852 8.918 153.3 7.512"/><path style="fill:none;stroke-width:8.31247;stroke-linecap:round;stroke-linejoin:round;stroke:#000;stroke-opacity:1;stroke-miterlimit:10" d="M2497.148 1555 998.516 1710.82l534.492 14.063Zm0 0" transform="matrix(.1 0 0 -.1 0 180)"/><path style="stroke:none;fill-rule:nonzero;fill:#1275e2;fill-opacity:1" d="m99.852 8.918-88.38 82.867L153.302 7.512"/><path style="fill:none;stroke-width:8.31247;stroke-linecap:round;stroke-linejoin:round;stroke:#000;stroke-opacity:1;stroke-miterlimit:10" d="m998.516 1710.82-883.79-828.672 1418.282 842.735Zm0 0" transform="matrix(.1 0 0 -.1 0 180)"/><path style="stroke:none;fill-rule:nonzero;fill:#d8f1e2;fill-opacity:1" d="M284.805 124.086 249.715 24.5 153.3 7.512"/><path style="fill:none;stroke-width:8.31247;stroke-linecap:round;stroke-linejoin:round;stroke:#000;stroke-opacity:1;stroke-miterlimit:10" d="M2848.047 559.14 2497.148 1555l-964.14 169.883Zm0 0" transform="matrix(.1 0 0 -.1 0 180)"/><path style="fill-rule:nonzero;fill:#a9bde8;fill-opacity:1;stroke-width:8.31247;stroke-linecap:round;stroke-linejoin:round;stroke:#000;stroke-opacity:1;stroke-miterlimit:10" d="M114.727 882.148 1235.234 31.172 2848.047 559.14" transform="matrix(.1 0 0 -.1 0 180)"/><path style="stroke:none;fill-rule:nonzero;fill:#928dcb;fill-opacity:1" d="m11.473 91.785 112.05 85.098L153.301 7.512"/><path style="fill:none;stroke-width:8.31247;stroke-linecap:round;stroke-linejoin:round;stroke:#000;stroke-opacity:1;stroke-miterlimit:10" d="M114.727 882.148 1235.234 31.172l297.774 1693.71Zm0 0" transform="matrix(.1 0 0 -.1 0 180)"/><path style="stroke:none;fill-rule:nonzero;fill:#c2aec6;fill-opacity:1" d="m123.523 176.883 161.282-52.797L153.3 7.512"/><path style="fill:none;stroke-width:8.31247;stroke-linecap:round;stroke-linejoin:round;stroke:#000;stroke-opacity:1;stroke-miterlimit:10" d="M1235.234 31.172 2848.047 559.14l-1315.04 1165.742Zm0 0" transform="matrix(.1 0 0 -.1 0 180)"/></svg>