<svg xmlns="http://www.w3.org/2000/svg" width="249.853" height="253.413" viewBox="0 0 187.39 190.06" version="1.2"><defs><clipPath id="a"><path d="M32 122h42v67.125H32Zm0 0"/></clipPath><clipPath id="b"><path d="M70 161h53v28.125H70Zm0 0"/></clipPath><clipPath id="c"><path d="M120 7h66.625v75H120Zm0 0"/></clipPath><clipPath id="d"><path d="M173 67h13.625v15H173Zm0 0"/></clipPath><clipPath id="e"><path d="M163 67h23.625v96H163Zm0 0"/></clipPath><clipPath id="f"><path d="M173 67h13.625v15H173Zm0 0"/></clipPath><clipPath id="g"><path d="M.156 18H35v48H.156Zm0 0"/></clipPath><clipPath id="h"><path d="M.156 18H36v48H.156Zm0 0"/></clipPath><clipPath id="i"><path d="M.156 35H32v88H.156Zm0 0"/></clipPath><clipPath id="j"><path d="M.156 34H32v89H.156Zm0 0"/></clipPath><clipPath id="k"><path d="M70 177h53v12.125H70Zm0 0"/></clipPath><clipPath id="l"><path d="M120 7h66.625v61H120Zm0 0"/></clipPath><clipPath id="m"><path d="M119 7h67.625v62H119Zm0 0"/></clipPath><clipPath id="n"><path d="M.156 65H5v58H.156Zm0 0"/></clipPath><clipPath id="o"><path d="M1 121h71v68.125H1Zm0 0"/></clipPath><clipPath id="p"><path d="M25 163h53v26.125H25Zm0 0"/></clipPath><clipPath id="q"><path d="M.156 18H35v93H.156Zm0 0"/></clipPath><clipPath id="r"><path d="M.156 18H36v93H.156Zm0 0"/></clipPath><clipPath id="s"><path d="M163 67h23.625v96H163Zm0 0"/></clipPath><clipPath id="t"><path d="M162 67h24.625v96H162Zm0 0"/></clipPath><clipPath id="u"><path d="M151 19h35.625v49H151Zm0 0"/></clipPath><clipPath id="v"><path d="M150 19h36.625v50H150Zm0 0"/></clipPath><clipPath id="w"><path d="M161 63h25.625v57H161Zm0 0"/></clipPath></defs><path style="stroke:none;fill-rule:nonzero;fill:#c5a7c2;fill-opacity:1" d="m49.79 71.5 32.757 42.922-49.488 8.84L49.789 71.5"/><path style="fill:none;stroke-width:7.24001;stroke-linecap:round;stroke-linejoin:round;stroke:#231f20;stroke-opacity:1;stroke-miterlimit:10" d="m498.77 1182.064 329.197-431.342-497.33-88.835Zm0 0" transform="matrix(.0995 0 0 -.0995 .158 189.125)"/><path style="fill-rule:nonzero;fill:#b490b8;fill-opacity:1;stroke-width:7.24001;stroke-linecap:round;stroke-linejoin:round;stroke:#231f20;stroke-opacity:1;stroke-miterlimit:10" d="M827.967 750.722 498.77 1182.064l324.488 435.07" transform="matrix(.0995 0 0 -.0995 .158 189.125)"/><path style="stroke:none;fill-rule:nonzero;fill:#b490b8;fill-opacity:1" d="m134.875 99.04-52.328 15.382-.469-86.215"/><path style="fill:none;stroke-width:7.24001;stroke-linecap:round;stroke-linejoin:round;stroke:#231f20;stroke-opacity:1;stroke-miterlimit:10" d="m1353.837 905.311-525.87-154.589" transform="matrix(.0995 0 0 -.0995 .158 189.125)"/><path style="stroke:none;fill-rule:nonzero;fill:#aaa3d4;fill-opacity:1" d="m82.547 114.422 52.328-15.383-12.477 78.68"/><path style="fill:none;stroke-width:7.24001;stroke-linecap:round;stroke-linejoin:round;stroke:#231f20;stroke-opacity:1;stroke-miterlimit:10" d="m827.967 750.722 525.87 154.59" transform="matrix(.0995 0 0 -.0995 .158 189.125)"/><path style="fill-rule:nonzero;fill:#aaa3d4;fill-opacity:1;stroke-width:7.24001;stroke-linecap:round;stroke-linejoin:round;stroke:#231f20;stroke-opacity:1;stroke-miterlimit:10" d="M1228.454 114.623 737.208 270.272l90.76 480.45" transform="matrix(.0995 0 0 -.0995 .158 189.125)"/><path style="stroke:none;fill-rule:nonzero;fill:#c2b0cd;fill-opacity:1" d="m73.516 162.23-40.457-38.968 49.488-8.84-9.031 47.808"/><path style="fill:none;stroke-width:7.24001;stroke-linecap:round;stroke-linejoin:round;stroke:#231f20;stroke-opacity:1;stroke-miterlimit:10" d="M737.208 270.272 330.637 661.887l497.33 88.835Zm0 0" transform="matrix(.0995 0 0 -.0995 .158 189.125)"/><path style="fill-rule:nonzero;fill:#b490b8;fill-opacity:1;stroke-width:7.24001;stroke-linecap:round;stroke-linejoin:round;stroke:#231f20;stroke-opacity:1;stroke-miterlimit:10" d="m823.257 1617.135 536.625-175.08-6.045-536.744" transform="matrix(.0995 0 0 -.0995 .158 189.125)"/><path style="stroke:none;fill-rule:nonzero;fill:#9a7eb7;fill-opacity:1" d="m135.477 45.629 38.878 35.976-39.48 17.434.602-53.41"/><path style="fill:none;stroke-width:7.24001;stroke-linecap:round;stroke-linejoin:round;stroke:#231f20;stroke-opacity:1;stroke-miterlimit:10" d="m1359.882 1442.054 390.712-361.545-396.757-175.198Zm0 0" transform="matrix(.0995 0 0 -.0995 .158 189.125)"/><path style="stroke:none;fill-rule:nonzero;fill:#9284c1;fill-opacity:1" d="M160.984 137.113 134.875 99.04l39.48-17.434-13.37 55.508"/><path style="fill:none;stroke-width:7.24001;stroke-linecap:round;stroke-linejoin:round;stroke:#231f20;stroke-opacity:1;stroke-miterlimit:10" d="M1616.222 522.686 1353.837 905.31l396.757 175.198Zm0 0" transform="matrix(.0995 0 0 -.0995 .158 189.125)"/><path style="fill-rule:nonzero;fill:#aaa3d4;fill-opacity:1;stroke-width:7.24001;stroke-linecap:round;stroke-linejoin:round;stroke:#231f20;stroke-opacity:1;stroke-miterlimit:10" d="m1353.837 905.311 262.385-382.625-387.768-408.063" transform="matrix(.0995 0 0 -.0995 .158 189.125)"/><path style="fill-rule:nonzero;fill:#e0b2ab;fill-opacity:1;stroke-width:7.24001;stroke-linecap:round;stroke-linejoin:round;stroke:#231f20;stroke-opacity:1;stroke-miterlimit:10" d="m311.676 1548.398 187.093-366.334-168.132-520.177" transform="matrix(.0995 0 0 -.0995 .158 189.125)"/><path style="stroke:none;fill-rule:nonzero;fill:#c691a2;fill-opacity:1" d="M82.078 28.207 49.79 71.5 31.172 35.047l50.906-6.84"/><path style="fill:none;stroke-width:7.24001;stroke-linecap:round;stroke-linejoin:round;stroke:#231f20;stroke-opacity:1;stroke-miterlimit:10" d="m823.257 1617.135-324.488-435.071-187.093 366.334Zm0 0" transform="matrix(.0995 0 0 -.0995 .158 189.125)"/><path style="stroke:none;fill-rule:nonzero;fill:#a76f96;fill-opacity:1" d="m120.258 7.59 15.219 38.039-53.399-17.422 38.18-20.617"/><path style="fill:none;stroke-width:7.24001;stroke-linecap:round;stroke-linejoin:round;stroke:#231f20;stroke-opacity:1;stroke-miterlimit:10" d="m1206.942 1824.326 152.94-382.272-536.625 175.08Zm0 0" transform="matrix(.0995 0 0 -.0995 .158 189.125)"/><path style="fill-rule:nonzero;fill:#632b75;fill-opacity:1;stroke-width:7.24001;stroke-linecap:round;stroke-linejoin:round;stroke:#231f20;stroke-opacity:1;stroke-miterlimit:10" d="m1750.594 1080.51-390.712 361.544-152.94 382.272" transform="matrix(.0995 0 0 -.0995 .158 189.125)"/><path style="stroke:none;fill-rule:nonzero;fill:#e0b2ab;fill-opacity:1" d="m33.059 123.262-30.766-.965 28.879-87.25"/><path style="fill:none;stroke-width:7.24001;stroke-linecap:round;stroke-linejoin:round;stroke:#231f20;stroke-opacity:1;stroke-miterlimit:10" d="m330.637 661.887-309.178 9.696" transform="matrix(.0995 0 0 -.0995 .158 189.125)"/><path style="stroke:none;fill-rule:nonzero;fill:#d8e0e2;fill-opacity:1" d="m33.059 123.262 40.457 38.968-2.41 26.536"/><g clip-path="url(#a)"><path style="fill:none;stroke-width:7.24001;stroke-linecap:round;stroke-linejoin:round;stroke:#231f20;stroke-opacity:1;stroke-miterlimit:10" d="m330.637 661.887 406.571-391.615-24.22-266.664" transform="matrix(.0995 0 0 -.0995 .158 189.125)"/></g><path style="stroke:none;fill-rule:nonzero;fill:#d8e0e2;fill-opacity:1" d="m2.293 122.297 30.766.965 38.046 65.504"/><path style="fill:none;stroke-width:7.24001;stroke-linecap:round;stroke-linejoin:round;stroke:#231f20;stroke-opacity:1;stroke-miterlimit:10" d="m21.46 671.583 309.177-9.696" transform="matrix(.0995 0 0 -.0995 .158 189.125)"/><path style="fill-rule:nonzero;fill:#af4b42;fill-opacity:1;stroke-width:7.24001;stroke-linecap:round;stroke-linejoin:round;stroke:#231f20;stroke-opacity:1;stroke-miterlimit:10" d="m823.257 1617.135-511.58-68.737 36.075 167.425" transform="matrix(.0995 0 0 -.0995 .158 189.125)"/><path style="stroke:none;fill-rule:nonzero;fill:#af4b42;fill-opacity:1" d="m120.258 7.59-38.18 20.617-47.316-9.82"/><path style="fill:none;stroke-width:7.24001;stroke-linecap:round;stroke-linejoin:round;stroke:#231f20;stroke-opacity:1;stroke-miterlimit:10" d="m1206.942 1824.326-383.685-207.191" transform="matrix(.0995 0 0 -.0995 .158 189.125)"/><path style="stroke:none;fill-rule:nonzero;fill:#acc6ea;fill-opacity:1" d="m71.105 188.766 2.41-26.536 48.883 15.489-51.293 11.047"/><g clip-path="url(#b)"><path style="fill:none;stroke-width:7.24001;stroke-linecap:round;stroke-linejoin:round;stroke:#231f20;stroke-opacity:1;stroke-miterlimit:10" d="m712.987 3.608 24.221 266.664 491.246-155.65Zm0 0" transform="matrix(.0995 0 0 -.0995 .158 189.125)"/></g><path style="fill-rule:nonzero;fill:#323495;fill-opacity:1;stroke-width:7.24001;stroke-linecap:round;stroke-linejoin:round;stroke:#231f20;stroke-opacity:1;stroke-miterlimit:10" d="m1639.971 266.228-23.75 256.458 134.373 557.823" transform="matrix(.0995 0 0 -.0995 .158 189.125)"/><path style="stroke:none;fill-rule:nonzero;fill:#6d96d5;fill-opacity:1" d="m122.398 177.719 38.586-40.606 2.364 25.52-40.95 15.086"/><path style="fill:none;stroke-width:7.24001;stroke-linecap:round;stroke-linejoin:round;stroke:#231f20;stroke-opacity:1;stroke-miterlimit:10" d="m1228.454 114.623 387.768 408.063 23.75-256.458Zm0 0" transform="matrix(.0995 0 0 -.0995 .158 189.125)"/><g clip-path="url(#c)"><path style="stroke:none;fill-rule:nonzero;fill:#632b75;fill-opacity:1" d="m186.262 67.781-11.907 13.824L120.258 7.59"/></g><g clip-path="url(#d)"><path style="fill:none;stroke-width:7.24001;stroke-linecap:round;stroke-linejoin:round;stroke:#231f20;stroke-opacity:1;stroke-miterlimit:10" d="m1870.245 1219.435-119.651-138.926" transform="matrix(.0995 0 0 -.0995 .158 189.125)"/></g><g clip-path="url(#e)"><path style="stroke:none;fill-rule:nonzero;fill:#323495;fill-opacity:1" d="m174.355 81.605 11.907-13.824-22.914 94.852"/></g><g clip-path="url(#f)"><path style="fill:none;stroke-width:7.24001;stroke-linecap:round;stroke-linejoin:round;stroke:#231f20;stroke-opacity:1;stroke-miterlimit:10" d="m1750.594 1080.51 119.651 138.925" transform="matrix(.0995 0 0 -.0995 .158 189.125)"/></g><g clip-path="url(#g)"><path style="stroke:none;fill-rule:nonzero;fill:#d57522;fill-opacity:1" d="M31.172 35.047.516 65.52l34.246-47.133-3.59 16.66"/></g><g clip-path="url(#h)"><path style="fill:none;stroke-width:7.24001;stroke-linecap:round;stroke-linejoin:round;stroke:#231f20;stroke-opacity:1;stroke-miterlimit:10" d="M311.676 1548.398 3.598 1242.164l344.154 473.66Zm0 0" transform="matrix(.0995 0 0 -.0995 .158 189.125)"/></g><g clip-path="url(#i)"><path style="stroke:none;fill-rule:nonzero;fill:#e0b2ab;fill-opacity:1" d="M2.293 122.297.516 65.52l30.656-30.473"/></g><g clip-path="url(#j)"><path style="fill:none;stroke-width:7.24001;stroke-linecap:round;stroke-linejoin:round;stroke:#231f20;stroke-opacity:1;stroke-miterlimit:10" d="M21.46 671.583 3.597 1242.164l308.078 306.234" transform="matrix(.0995 0 0 -.0995 .158 189.125)"/></g><path style="stroke:none;fill-rule:nonzero;fill:#852223;fill-opacity:1" d="m122.398 177.719 40.95-15.086-86.133 18.262"/><path style="fill:none;stroke-width:7.24001;stroke-linecap:round;stroke-linejoin:round;stroke:#231f20;stroke-opacity:1;stroke-miterlimit:10" d="m1228.454 114.623 411.517 151.605" transform="matrix(.0995 0 0 -.0995 .158 189.125)"/><path style="stroke:none;fill-rule:nonzero;fill:#852223;fill-opacity:1" d="m77.215 180.895-6.11 7.87 51.293-11.046"/><g clip-path="url(#k)"><path style="fill:none;stroke-width:7.24001;stroke-linecap:round;stroke-linejoin:round;stroke:#231f20;stroke-opacity:1;stroke-miterlimit:10" d="m774.383 82.708-61.396-79.1 515.467 111.015" transform="matrix(.0995 0 0 -.0995 .158 189.125)"/></g><g clip-path="url(#l)"><path style="stroke:none;fill-rule:nonzero;fill:#632b75;fill-opacity:1" d="m120.258 7.59 31.027 11.933 34.977 48.258"/></g><g clip-path="url(#m)"><path style="fill:none;stroke-width:7.24001;stroke-linecap:round;stroke-linejoin:round;stroke:#231f20;stroke-opacity:1;stroke-miterlimit:10" d="M1206.942 1824.326 1518.75 1704.4l351.495-484.965" transform="matrix(.0995 0 0 -.0995 .158 189.125)"/></g><path style="fill-rule:nonzero;fill:#af4b42;fill-opacity:1;stroke-width:7.24001;stroke-linecap:round;stroke-linejoin:round;stroke:#231f20;stroke-opacity:1;stroke-miterlimit:10" d="m347.752 1715.823 583.34 181.165 275.85-72.662" transform="matrix(.0995 0 0 -.0995 .158 189.125)"/><path style="stroke:none;fill-rule:nonzero;fill:#50c5d8;fill-opacity:1" d="m92.809.36 58.476 19.163L120.258 7.59 92.808.36"/><path style="fill:none;stroke-width:7.24001;stroke-linecap:round;stroke-linejoin:round;stroke:#231f20;stroke-opacity:1;stroke-miterlimit:10" d="M931.092 1896.988 1518.75 1704.4l-311.808 119.926Zm0 0" transform="matrix(.0995 0 0 -.0995 .158 189.125)"/><g clip-path="url(#n)"><path style="stroke:none;fill-rule:nonzero;fill:#18182d;fill-opacity:1" d="m.516 65.52 1.777 56.777 1.934-11.813L.516 65.52"/><path style="fill:none;stroke-width:7.24001;stroke-linecap:round;stroke-linejoin:round;stroke:#231f20;stroke-opacity:1;stroke-miterlimit:10" d="m3.598 1242.164 17.861-570.581 19.432 118.709Zm0 0" transform="matrix(.0995 0 0 -.0995 .158 189.125)"/></g><path style="stroke:none;fill-rule:nonzero;fill:#d8e0e2;fill-opacity:1" d="M71.105 188.766 25.387 163.98 2.293 122.297"/><g clip-path="url(#o)"><path style="fill:none;stroke-width:7.24001;stroke-linecap:round;stroke-linejoin:round;stroke:#231f20;stroke-opacity:1;stroke-miterlimit:10" d="M712.987 3.608 253.54 252.685 21.459 671.583" transform="matrix(.0995 0 0 -.0995 .158 189.125)"/></g><path style="stroke:none;fill-rule:nonzero;fill:#141526;fill-opacity:1" d="m25.387 163.98-21.16-53.496-1.934 11.813 23.094 41.683"/><path style="fill:none;stroke-width:7.24001;stroke-linecap:round;stroke-linejoin:round;stroke:#231f20;stroke-opacity:1;stroke-miterlimit:10" d="M253.539 252.685 40.89 790.292l-19.432-118.71Zm0 0" transform="matrix(.0995 0 0 -.0995 .158 189.125)"/><path style="stroke:none;fill-rule:nonzero;fill:#4b1218;fill-opacity:1" d="M77.215 180.895 25.387 163.98l45.718 24.786 6.11-7.871"/><g clip-path="url(#p)"><path style="fill:none;stroke-width:7.24001;stroke-linecap:round;stroke-linejoin:round;stroke:#231f20;stroke-opacity:1;stroke-miterlimit:10" d="M774.383 82.708 253.54 252.685 712.987 3.608Zm0 0" transform="matrix(.0995 0 0 -.0995 .158 189.125)"/></g><g clip-path="url(#q)"><path style="stroke:none;fill-rule:nonzero;fill:#7983ca;fill-opacity:1" d="M34.762 18.387.516 65.52l3.71 44.964"/></g><g clip-path="url(#r)"><path style="fill:none;stroke-width:7.24001;stroke-linecap:round;stroke-linejoin:round;stroke:#231f20;stroke-opacity:1;stroke-miterlimit:10" d="M347.752 1715.823 3.598 1242.164 40.89 790.292" transform="matrix(.0995 0 0 -.0995 .158 189.125)"/></g><g clip-path="url(#s)"><path style="stroke:none;fill-rule:nonzero;fill:#323495;fill-opacity:1" d="m186.262 67.781-6.692 51.645-16.222 43.207"/></g><g clip-path="url(#t)"><path style="fill:none;stroke-width:7.24001;stroke-linecap:round;stroke-linejoin:round;stroke:#231f20;stroke-opacity:1;stroke-miterlimit:10" d="m1870.245 1219.435-67.245-519-163.029-434.207" transform="matrix(.0995 0 0 -.0995 .158 189.125)"/></g><path style="stroke:none;fill-rule:nonzero;fill:#e09073;fill-opacity:1" d="m163.348 162.633 16.222-43.207-42.125 44.355 25.903-1.148"/><path style="fill:none;stroke-width:7.24001;stroke-linecap:round;stroke-linejoin:round;stroke:#231f20;stroke-opacity:1;stroke-miterlimit:10" d="m1639.971 266.228 163.03 434.208-423.334-445.749Zm0 0" transform="matrix(.0995 0 0 -.0995 .158 189.125)"/><path style="fill-rule:nonzero;fill:#852223;fill-opacity:1;stroke-width:7.24001;stroke-linecap:round;stroke-linejoin:round;stroke:#231f20;stroke-opacity:1;stroke-miterlimit:10" d="m1639.971 266.228-260.304-11.54-605.284-171.98" transform="matrix(.0995 0 0 -.0995 .158 189.125)"/><g clip-path="url(#u)"><path style="stroke:none;fill-rule:nonzero;fill:#e8e5cf;fill-opacity:1" d="m151.285 19.523 10.14 44.11 24.837 4.148-34.977-48.258"/></g><g clip-path="url(#v)"><path style="fill:none;stroke-width:7.24001;stroke-linecap:round;stroke-linejoin:round;stroke:#231f20;stroke-opacity:1;stroke-miterlimit:10" d="m1518.75 1704.4 101.908-443.275 249.587-41.69Zm0 0" transform="matrix(.0995 0 0 -.0995 .158 189.125)"/></g><g clip-path="url(#w)"><path style="stroke:none;fill-rule:nonzero;fill:#ecccb3;fill-opacity:1" d="m179.57 119.426 6.692-51.645-24.836-4.148 18.144 55.793"/><path style="fill:none;stroke-width:7.24001;stroke-linecap:round;stroke-linejoin:round;stroke:#231f20;stroke-opacity:1;stroke-miterlimit:10" d="m1803 700.436 67.245 519-249.587 41.689Zm0 0" transform="matrix(.0995 0 0 -.0995 .158 189.125)"/></g><path style="stroke:none;fill-rule:nonzero;fill:#87b2e2;fill-opacity:1" d="m34.762 18.387 27.93 13.074L92.808.359 34.762 18.387"/><path style="fill:none;stroke-width:7.24001;stroke-linecap:round;stroke-linejoin:round;stroke:#231f20;stroke-opacity:1;stroke-miterlimit:10" d="m347.752 1715.823 280.679-131.388 302.661 312.553Zm0 0" transform="matrix(.0995 0 0 -.0995 .158 189.125)"/><path style="fill-rule:nonzero;fill:#7983ca;fill-opacity:1;stroke-width:7.24001;stroke-linecap:round;stroke-linejoin:round;stroke:#231f20;stroke-opacity:1;stroke-miterlimit:10" d="m434.704 984.882 193.727 599.553-280.679 131.388" transform="matrix(.0995 0 0 -.0995 .158 189.125)"/><path style="stroke:none;fill-rule:nonzero;fill:#7983ca;fill-opacity:1" d="m4.227 110.484 39.187-19.363-8.652-72.734"/><path style="fill:none;stroke-width:7.24001;stroke-linecap:round;stroke-linejoin:round;stroke:#231f20;stroke-opacity:1;stroke-miterlimit:10" d="m40.89 790.292 393.814 194.59" transform="matrix(.0995 0 0 -.0995 .158 189.125)"/><path style="fill-rule:nonzero;fill:#9970a7;fill-opacity:1;stroke-width:7.24001;stroke-linecap:round;stroke-linejoin:round;stroke:#231f20;stroke-opacity:1;stroke-miterlimit:10" d="M40.89 790.292 253.54 252.685 774.383 82.708" transform="matrix(.0995 0 0 -.0995 .158 189.125)"/><path style="fill-rule:nonzero;fill:#bebedb;fill-opacity:1;stroke-width:7.24001;stroke-linecap:round;stroke-linejoin:round;stroke:#231f20;stroke-opacity:1;stroke-miterlimit:10" d="M1620.658 1261.125 1518.75 1704.4l-587.658 192.588" transform="matrix(.0995 0 0 -.0995 .158 189.125)"/><path style="stroke:none;fill-rule:nonzero;fill:#bebedb;fill-opacity:1" d="m105.61 72.508 55.816-8.875L92.809.359"/><path style="fill:none;stroke-width:7.24001;stroke-linecap:round;stroke-linejoin:round;stroke:#231f20;stroke-opacity:1;stroke-miterlimit:10" d="m1059.733 1171.936 560.925 89.189" transform="matrix(.0995 0 0 -.0995 .158 189.125)"/><path style="fill-rule:nonzero;fill:#bebedb;fill-opacity:1;stroke-width:7.24001;stroke-linecap:round;stroke-linejoin:round;stroke:#231f20;stroke-opacity:1;stroke-miterlimit:10" d="m931.092 1896.988-302.661-312.553 431.302-412.5" transform="matrix(.0995 0 0 -.0995 .158 189.125)"/><path style="stroke:none;fill-rule:nonzero;fill:#9970a7;fill-opacity:1" d="M43.414 91.121 4.227 110.484l72.988 70.41"/><path style="fill:none;stroke-width:7.24001;stroke-linecap:round;stroke-linejoin:round;stroke:#231f20;stroke-opacity:1;stroke-miterlimit:10" d="M434.704 984.882 40.89 790.292" transform="matrix(.0995 0 0 -.0995 .158 189.125)"/><path style="fill-rule:nonzero;fill:#c9a2b6;fill-opacity:1;stroke-width:7.24001;stroke-linecap:round;stroke-linejoin:round;stroke:#231f20;stroke-opacity:1;stroke-miterlimit:10" d="M1379.667 254.687 1803 700.436l-182.342 560.689" transform="matrix(.0995 0 0 -.0995 .158 189.125)"/><path style="stroke:none;fill-rule:nonzero;fill:#b77e9b;fill-opacity:1" d="m137.445 163.781-46.86-27.394-13.37 44.508 60.23-17.114"/><path style="fill:none;stroke-width:7.24001;stroke-linecap:round;stroke-linejoin:round;stroke:#231f20;stroke-opacity:1;stroke-miterlimit:10" d="m1379.667 254.687-470.911 275.3L774.383 82.708Zm0 0" transform="matrix(.0995 0 0 -.0995 .158 189.125)"/><path style="fill-rule:nonzero;fill:#9970a7;fill-opacity:1;stroke-width:7.24001;stroke-linecap:round;stroke-linejoin:round;stroke:#231f20;stroke-opacity:1;stroke-miterlimit:10" d="m774.383 82.708 134.373 447.28-474.052 454.894" transform="matrix(.0995 0 0 -.0995 .158 189.125)"/><path style="fill-rule:nonzero;fill:#c9a2b6;fill-opacity:1;stroke-width:7.24001;stroke-linecap:round;stroke-linejoin:round;stroke:#231f20;stroke-opacity:1;stroke-miterlimit:10" d="M1059.733 1171.936 908.756 529.987l470.91-275.3" transform="matrix(.0995 0 0 -.0995 .158 189.125)"/><path style="stroke:none;fill-rule:nonzero;fill:#c9a2b6;fill-opacity:1" d="m161.426 63.633-55.817 8.875 31.836 91.273"/><path style="fill:none;stroke-width:7.24001;stroke-linecap:round;stroke-linejoin:round;stroke:#231f20;stroke-opacity:1;stroke-miterlimit:10" d="m1620.658 1261.125-560.925-89.19" transform="matrix(.0995 0 0 -.0995 .158 189.125)"/><path style="stroke:none;fill-rule:nonzero;fill:#ab9cce;fill-opacity:1" d="M62.691 31.46 43.414 91.122l62.195-18.613L62.691 31.46"/><path style="fill:none;stroke-width:7.24001;stroke-linecap:round;stroke-linejoin:round;stroke:#231f20;stroke-opacity:1;stroke-miterlimit:10" d="M628.43 1584.435 434.705 984.882l625.029 187.054Zm0 0" transform="matrix(.0995 0 0 -.0995 .158 189.125)"/><path style="stroke:none;fill-rule:nonzero;fill:#b194c0;fill-opacity:1" d="m90.586 136.387 15.023-63.88-62.195 18.614 47.172 45.266"/><path style="fill:none;stroke-width:7.24001;stroke-linecap:round;stroke-linejoin:round;stroke:#231f20;stroke-opacity:1;stroke-miterlimit:10" d="m908.756 529.987 150.977 641.949-625.03-187.054Zm0 0" transform="matrix(.0995 0 0 -.0995 .158 189.125)"/></svg>