<svg xmlns="http://www.w3.org/2000/svg" width="244.24" height="249.187" viewBox="0 0 183.18 186.89" version="1.2"><defs><clipPath id="a"><path d="M57 .363h50V32H57Zm0 0"/></clipPath><clipPath id="b"><path d="M54 .363h56V36H54Zm0 0"/></clipPath><clipPath id="c"><path d="M101 .363h47V32h-47Zm0 0"/></clipPath><clipPath id="d"><path d="M97 .363h55V36H97Zm0 0"/></clipPath><clipPath id="e"><path d="M148 68h34.363v54H148Zm0 0"/></clipPath><clipPath id="f"><path d="M144 26h38.363v50H144Zm0 0"/></clipPath><clipPath id="g"><path d="M77 157h66v29.418H77Zm0 0"/></clipPath><clipPath id="h"><path d="M34 150h61v36.418H34Zm0 0"/></clipPath><clipPath id="i"><path d="M27 150h58v36.418H27Zm0 0"/></clipPath><clipPath id="j"><path d="M39 .363h63V22H39Zm0 0"/></clipPath><clipPath id="k"><path d="M36 .363h69V25H36Zm0 0"/></clipPath><clipPath id="l"><path d="M164 68h18.363v70H164Zm0 0"/></clipPath><clipPath id="m"><path d="M77 162h66v24.418H77Zm0 0"/></clipPath><clipPath id="n"><path d="M144 21h38.363v55H144Zm0 0"/></clipPath><clipPath id="o"><path d="M101 .363h50V30h-50Zm0 0"/></clipPath><clipPath id="p"><path d="M97 .363h57V33H97Zm0 0"/></clipPath><clipPath id="q"><path d="M39 .363h63V16H39Zm0 0"/></clipPath><clipPath id="r"><path d="M36 .363h69V19H36Zm0 0"/></clipPath><clipPath id="s"><path d="M91 .363h60V26H91Zm0 0"/></clipPath><clipPath id="t"><path d="M87 .363h67V29H87Zm0 0"/></clipPath><clipPath id="u"><path d="M165 68h17.363v70H165Zm0 0"/></clipPath><clipPath id="v"><path d="M147 21h35.363v65H147Zm0 0"/></clipPath><clipPath id="w"><path d="M69 164h63v22.418H69Zm0 0"/></clipPath><clipPath id="x"><path d="M27 157h58v29.418H27Zm0 0"/></clipPath></defs><path style="stroke:none;fill-rule:evenodd;fill:#9e7994;fill-opacity:1" d="m104.043 80.52 23.742 45.52 23.836-53.97-47.578 8.45"/><path style="fill:none;stroke-width:5.938;stroke-linecap:butt;stroke-linejoin:miter;stroke:#231f20;stroke-opacity:1;stroke-miterlimit:4" d="M1045.087 1063.733 1283.572 606.5l239.426 542.104Zm0 0" transform="matrix(.09955 0 0 -.09955 0 186.419)"/><path style="stroke:none;fill-rule:evenodd;fill:#af8da0;fill-opacity:1" d="m104.043 80.52-34.469 38.796 58.211 6.723-23.742-45.52"/><path style="fill:none;stroke-width:5.938;stroke-linecap:butt;stroke-linejoin:miter;stroke:#231f20;stroke-opacity:1;stroke-miterlimit:4" d="m1045.087 1063.733-346.23-389.705 584.715-67.528Zm0 0" transform="matrix(.09955 0 0 -.09955 0 186.419)"/><path style="stroke:none;fill-rule:evenodd;fill:#bc9097;fill-opacity:1" d="m104.043 80.52-34.469 38.796-13.699-57.074 48.168 18.278"/><path style="fill:none;stroke-width:5.938;stroke-linecap:butt;stroke-linejoin:miter;stroke:#231f20;stroke-opacity:1;stroke-miterlimit:4" d="m1045.087 1063.733-346.23-389.705-137.606 573.297Zm0 0" transform="matrix(.09955 0 0 -.09955 0 186.419)"/><path style="stroke:none;fill-rule:evenodd;fill:#b57d85;fill-opacity:1" d="m104.043 80.52 2.18-48.606-50.348 30.328 48.168 18.278"/><path style="fill:none;stroke-width:5.938;stroke-linecap:butt;stroke-linejoin:miter;stroke:#231f20;stroke-opacity:1;stroke-miterlimit:4" d="m1045.087 1063.733 21.895 488.23-505.73-304.638Zm0 0" transform="matrix(.09955 0 0 -.09955 0 186.419)"/><path style="stroke:none;fill-rule:evenodd;fill:#a26e82;fill-opacity:1" d="m104.043 80.52 47.578-8.45-45.398-40.156-2.18 48.606"/><path style="fill:none;stroke-width:5.938;stroke-linecap:butt;stroke-linejoin:miter;stroke:#231f20;stroke-opacity:1;stroke-miterlimit:4" d="m1045.087 1063.733 477.911 84.87-456.016 403.36Zm0 0" transform="matrix(.09955 0 0 -.09955 0 186.419)"/><path style="stroke:none;fill-rule:evenodd;fill:#c1b4c2;fill-opacity:1" d="m91.113 160.723-52.89-7.02 31.351-34.387 21.54 41.407"/><path style="fill:none;stroke-width:5.938;stroke-linecap:butt;stroke-linejoin:miter;stroke:#231f20;stroke-opacity:1;stroke-miterlimit:4" d="m915.211 258.112-531.273 70.51 314.919 345.406Zm0 0" transform="matrix(.09955 0 0 -.09955 0 186.419)"/><path style="stroke:none;fill-rule:evenodd;fill:#af9cb4;fill-opacity:1" d="m91.113 160.723-21.539-41.407 58.211 6.723-36.672 34.684"/><path style="fill:none;stroke-width:5.938;stroke-linecap:butt;stroke-linejoin:miter;stroke:#231f20;stroke-opacity:1;stroke-miterlimit:4" d="M915.211 258.112 698.857 674.028l584.715-67.528Zm0 0" transform="matrix(.09955 0 0 -.09955 0 186.419)"/><path style="stroke:none;fill-rule:evenodd;fill:#cda39e;fill-opacity:1" d="m25.438 102.313 44.136 17.003-13.699-57.074-30.438 40.07"/><path style="fill:none;stroke-width:5.938;stroke-linecap:butt;stroke-linejoin:miter;stroke:#231f20;stroke-opacity:1;stroke-miterlimit:4" d="m255.514 844.828 443.343-170.8-137.606 573.297Zm0 0" transform="matrix(.09955 0 0 -.09955 0 186.419)"/><path style="stroke:none;fill-rule:evenodd;fill:#d3b8b4;fill-opacity:1" d="m25.438 102.313 12.785 51.39 31.351-34.387-44.136-17.004"/><path style="fill:none;stroke-width:5.938;stroke-linecap:butt;stroke-linejoin:miter;stroke:#231f20;stroke-opacity:1;stroke-miterlimit:4" d="m255.514 844.828 128.424-516.207 314.919 345.407Zm0 0" transform="matrix(.09955 0 0 -.09955 0 186.419)"/><path style="stroke:none;fill-rule:evenodd;fill:#dca58b;fill-opacity:1" d="m25.438 102.313 30.437-40.07L13.75 54.89l11.688 47.422"/><path style="fill:none;stroke-width:5.938;stroke-linecap:butt;stroke-linejoin:miter;stroke:#231f20;stroke-opacity:1;stroke-miterlimit:4" d="m255.514 844.828 305.737 402.497-423.135 73.845Zm0 0" transform="matrix(.09955 0 0 -.09955 0 186.419)"/><path style="stroke:none;fill-rule:evenodd;fill:#d2886e;fill-opacity:1" d="m57.945 21.21-2.07 41.032-42.125-7.351 44.195-33.68"/><path style="fill:none;stroke-width:5.938;stroke-linecap:butt;stroke-linejoin:miter;stroke:#231f20;stroke-opacity:1;stroke-miterlimit:4" d="m582.047 1659.474-20.796-412.15-423.135 73.846Zm0 0" transform="matrix(.09955 0 0 -.09955 0 186.419)"/><path style="stroke:none;fill-rule:evenodd;fill:#bd7671;fill-opacity:1" d="m57.945 21.21 48.278 10.704-50.348 30.328 2.07-41.031"/><path style="fill:none;stroke-width:5.938;stroke-linecap:butt;stroke-linejoin:miter;stroke:#231f20;stroke-opacity:1;stroke-miterlimit:4" d="m582.047 1659.474 484.935-107.51-505.73-304.64Zm0 0" transform="matrix(.09955 0 0 -.09955 0 186.419)"/><path style="stroke:none;fill-rule:evenodd;fill:#9794bc;fill-opacity:1" d="m91.113 160.723 36.672-34.684 11.348 40.207-48.02-5.523"/><path style="fill:none;stroke-width:5.938;stroke-linecap:butt;stroke-linejoin:miter;stroke:#231f20;stroke-opacity:1;stroke-miterlimit:4" d="m915.211 258.112 368.36 348.388 113.985-403.87Zm0 0" transform="matrix(.09955 0 0 -.09955 0 186.419)"/><path style="stroke:none;fill-rule:evenodd;fill:#7b77a8;fill-opacity:1" d="m167.605 118.336-39.82 7.703 11.348 40.207 28.472-47.91"/><path style="fill:none;stroke-width:5.938;stroke-linecap:butt;stroke-linejoin:miter;stroke:#231f20;stroke-opacity:1;stroke-miterlimit:4" d="M1683.557 683.876 1283.572 606.5l113.984-403.87Zm0 0" transform="matrix(.09955 0 0 -.09955 0 186.419)"/><path style="stroke:none;fill-rule:evenodd;fill:#856c94;fill-opacity:1" d="m167.605 118.336-39.82 7.703 23.836-53.969 15.984 46.266"/><path style="fill:none;stroke-width:5.938;stroke-linecap:butt;stroke-linejoin:miter;stroke:#231f20;stroke-opacity:1;stroke-miterlimit:4" d="M1683.557 683.876 1283.572 606.5l239.426 542.104Zm0 0" transform="matrix(.09955 0 0 -.09955 0 186.419)"/><g clip-path="url(#a)"><path style="stroke:none;fill-rule:evenodd;fill:#a94f4e;fill-opacity:1" d="M57.945 21.21 101.328.946l4.895 30.97L57.945 21.21"/></g><g clip-path="url(#b)"><path style="fill:none;stroke-width:5.938;stroke-linecap:butt;stroke-linejoin:miter;stroke:#231f20;stroke-opacity:1;stroke-miterlimit:4" d="m582.047 1659.474 435.77 203.564 49.165-311.074Zm0 0" transform="matrix(.09955 0 0 -.09955 0 186.419)"/></g><g clip-path="url(#c)"><path style="stroke:none;fill-rule:evenodd;fill:#89374b;fill-opacity:1" d="M147.988 29.602 101.328.945l4.895 30.97 41.765-2.313"/></g><g clip-path="url(#d)"><path style="fill:none;stroke-width:5.938;stroke-linecap:butt;stroke-linejoin:miter;stroke:#231f20;stroke-opacity:1;stroke-miterlimit:4" d="m1486.507 1575.192-468.69 287.846 49.165-311.074Zm0 0" transform="matrix(.09955 0 0 -.09955 0 186.419)"/></g><path style="stroke:none;fill-rule:evenodd;fill:#8c506a;fill-opacity:1" d="m147.988 29.602 3.633 42.468-45.398-40.156 41.765-2.312"/><path style="fill:none;stroke-width:5.938;stroke-linecap:butt;stroke-linejoin:miter;stroke:#231f20;stroke-opacity:1;stroke-miterlimit:4" d="m1486.507 1575.192 36.491-426.588-456.016 403.36Zm0 0" transform="matrix(.09955 0 0 -.09955 0 186.419)"/><path style="stroke:none;fill-rule:evenodd;fill:#5e4878;fill-opacity:1" d="m167.605 118.336 14.153-46.316-30.137.05 15.984 46.266"/><g clip-path="url(#e)"><path style="fill:none;stroke-width:5.938;stroke-linecap:butt;stroke-linejoin:miter;stroke:#231f20;stroke-opacity:1;stroke-miterlimit:4" d="m1683.557 683.876 142.157 465.238-302.716-.51Zm0 0" transform="matrix(.09955 0 0 -.09955 0 186.419)"/></g><path style="stroke:none;fill-rule:evenodd;fill:#62355e;fill-opacity:1" d="m147.988 29.602 33.77 42.418-30.137.05-3.633-42.468"/><g clip-path="url(#f)"><path style="fill:none;stroke-width:5.938;stroke-linecap:butt;stroke-linejoin:miter;stroke:#231f20;stroke-opacity:1;stroke-miterlimit:4" d="m1486.507 1575.192 339.207-426.078-302.716-.51Zm0 0" transform="matrix(.09955 0 0 -.09955 0 186.419)"/></g><path style="stroke:none;fill-rule:evenodd;fill:#ebd7b6;fill-opacity:1" d="m25.438 102.313 12.785 51.39L.648 114.367l24.79-12.055"/><path style="fill:none;stroke-width:5.938;stroke-linecap:butt;stroke-linejoin:miter;stroke:#231f20;stroke-opacity:1;stroke-miterlimit:4" d="m255.514 844.828 128.424-516.207L6.513 723.741Zm0 0" transform="matrix(.09955 0 0 -.09955 0 186.419)"/><path style="stroke:none;fill-rule:evenodd;fill:#f4c58c;fill-opacity:1" d="M25.438 102.313 13.75 54.89.648 114.367l24.79-12.055"/><path style="fill:none;stroke-width:5.938;stroke-linecap:butt;stroke-linejoin:miter;stroke:#231f20;stroke-opacity:1;stroke-miterlimit:4" d="M255.514 844.828 138.116 1321.17 6.513 723.742Zm0 0" transform="matrix(.09955 0 0 -.09955 0 186.419)"/><path style="stroke:none;fill-rule:evenodd;fill:#8ba7d8;fill-opacity:1" d="m91.113 160.723-10.25 25.074 58.27-19.55-48.02-5.524"/><g clip-path="url(#g)"><path style="fill:none;stroke-width:5.938;stroke-linecap:butt;stroke-linejoin:miter;stroke:#231f20;stroke-opacity:1;stroke-miterlimit:4" d="M915.211 258.112 812.253 6.247l585.303 196.383Zm0 0" transform="matrix(.09955 0 0 -.09955 0 186.419)"/></g><path style="stroke:none;fill-rule:evenodd;fill:#b5c6df;fill-opacity:1" d="m91.113 160.723-10.25 25.074-42.64-32.094 52.89 7.02"/><g clip-path="url(#h)"><path style="fill:none;stroke-width:5.938;stroke-linecap:butt;stroke-linejoin:miter;stroke:#231f20;stroke-opacity:1;stroke-miterlimit:4" d="M915.211 258.112 812.253 6.247 383.938 328.621Zm0 0" transform="matrix(.09955 0 0 -.09955 0 186.419)"/></g><path style="stroke:none;fill-rule:evenodd;fill:#daeebc;fill-opacity:1" d="m30.422 161.105 7.8-7.402L.649 114.367l29.774 46.738"/><path style="fill:none;stroke-width:5.938;stroke-linecap:butt;stroke-linejoin:miter;stroke:#231f20;stroke-opacity:1;stroke-miterlimit:4" d="m305.58 254.267 78.358 74.354L6.513 723.741Zm0 0" transform="matrix(.09955 0 0 -.09955 0 186.419)"/><path style="stroke:none;fill-rule:evenodd;fill:#aadddf;fill-opacity:1" d="m30.422 161.105 50.441 24.692-42.64-32.094-7.801 7.402"/><g clip-path="url(#i)"><path style="fill:none;stroke-width:5.938;stroke-linecap:butt;stroke-linejoin:miter;stroke:#231f20;stroke-opacity:1;stroke-miterlimit:4" d="M305.58 254.267 812.254 6.247 383.938 328.621Zm0 0" transform="matrix(.09955 0 0 -.09955 0 186.419)"/></g><path style="stroke:none;fill-rule:evenodd;fill:#ce6530;fill-opacity:1" d="m57.945 21.21-18.21-6.148L13.75 54.892l44.195-33.68"/><path style="fill:none;stroke-width:5.938;stroke-linecap:butt;stroke-linejoin:miter;stroke:#231f20;stroke-opacity:1;stroke-miterlimit:4" d="m582.047 1659.474-182.925 61.76-261.006-400.064Zm0 0" transform="matrix(.09955 0 0 -.09955 0 186.419)"/><g clip-path="url(#j)"><path style="stroke:none;fill-rule:evenodd;fill:#9f292d;fill-opacity:1" d="M57.945 21.21 101.328.946 39.734 15.062l18.211 6.149"/></g><g clip-path="url(#k)"><path style="fill:none;stroke-width:5.938;stroke-linecap:butt;stroke-linejoin:miter;stroke:#231f20;stroke-opacity:1;stroke-miterlimit:4" d="m582.047 1659.474 435.77 203.564-618.695-141.804Zm0 0" transform="matrix(.09955 0 0 -.09955 0 186.419)"/></g><path style="stroke:none;fill-rule:evenodd;fill:#295190;fill-opacity:1" d="m167.605 118.336-28.472 47.91 35.492-31.664-7.02-16.246"/><path style="fill:none;stroke-width:5.938;stroke-linecap:butt;stroke-linejoin:miter;stroke:#231f20;stroke-opacity:1;stroke-miterlimit:4" d="m1683.557 683.876-286-481.246 356.51 318.058Zm0 0" transform="matrix(.09955 0 0 -.09955 0 186.419)"/><path style="stroke:none;fill-rule:evenodd;fill:#323463;fill-opacity:1" d="m167.605 118.336 14.153-46.316-7.133 62.562-7.02-16.246"/><g clip-path="url(#l)"><path style="fill:none;stroke-width:5.938;stroke-linecap:butt;stroke-linejoin:miter;stroke:#231f20;stroke-opacity:1;stroke-miterlimit:4" d="m1683.557 683.876 142.157 465.238-71.647-628.426Zm0 0" transform="matrix(.09955 0 0 -.09955 0 186.419)"/></g><path style="stroke:none;fill-rule:evenodd;fill:#da9925;fill-opacity:1" d="m6.55 65.441 7.2-10.55L.648 114.367l5.903-48.926"/><path style="fill:none;stroke-width:5.938;stroke-linecap:butt;stroke-linejoin:miter;stroke:#231f20;stroke-opacity:1;stroke-miterlimit:4" d="m65.801 1215.19 72.315 105.98L6.513 723.742Zm0 0" transform="matrix(.09955 0 0 -.09955 0 186.419)"/><path style="stroke:none;fill-rule:evenodd;fill:#a2442a;fill-opacity:1" d="m6.55 65.441 33.184-50.379L13.75 54.892l-7.2 10.55"/><path style="fill:none;stroke-width:5.938;stroke-linecap:butt;stroke-linejoin:miter;stroke:#231f20;stroke-opacity:1;stroke-miterlimit:4" d="m65.801 1215.19 333.321 506.044-261.006-400.064Zm0 0" transform="matrix(.09955 0 0 -.09955 0 186.419)"/><path style="stroke:none;fill-rule:evenodd;fill:#186da7;fill-opacity:1" d="m128.066 173.434-47.203 12.363 58.27-19.55-11.067 7.187"/><g clip-path="url(#m)"><path style="fill:none;stroke-width:5.938;stroke-linecap:butt;stroke-linejoin:miter;stroke:#231f20;stroke-opacity:1;stroke-miterlimit:4" d="M1286.397 130.433 812.253 6.247l585.303 196.383Zm0 0" transform="matrix(.09955 0 0 -.09955 0 186.419)"/></g><path style="stroke:none;fill-rule:evenodd;fill:#95282e;fill-opacity:1" d="m128.066 173.434 11.067-7.188 35.492-31.664-46.559 38.852"/><path style="fill:none;stroke-width:5.938;stroke-linecap:butt;stroke-linejoin:miter;stroke:#231f20;stroke-opacity:1;stroke-miterlimit:4" d="m1286.397 130.433 111.16 72.197 356.51 318.058Zm0 0" transform="matrix(.09955 0 0 -.09955 0 186.419)"/><path style="stroke:none;fill-rule:evenodd;fill:#231f20;fill-opacity:1" d="m147.988 29.602 2.54-4.332 31.23 46.75-33.77-42.418"/><g clip-path="url(#n)"><path style="fill:none;stroke-width:5.938;stroke-linecap:butt;stroke-linejoin:miter;stroke:#231f20;stroke-opacity:1;stroke-miterlimit:4" d="m1486.507 1575.192 25.505 43.515 313.702-469.593Zm0 0" transform="matrix(.09955 0 0 -.09955 0 186.419)"/></g><g clip-path="url(#o)"><path style="stroke:none;fill-rule:evenodd;fill:#231f20;fill-opacity:1" d="m147.988 29.602 2.54-4.332-49.2-24.325 46.66 28.657"/></g><g clip-path="url(#p)"><path style="fill:none;stroke-width:5.938;stroke-linecap:butt;stroke-linejoin:miter;stroke:#231f20;stroke-opacity:1;stroke-miterlimit:4" d="m1486.507 1575.192 25.505 43.515-494.195 244.33Zm0 0" transform="matrix(.09955 0 0 -.09955 0 186.419)"/></g><g clip-path="url(#q)"><path style="stroke:none;fill-rule:evenodd;fill:#4f96d1;fill-opacity:1" d="M91.113 13.566 101.328.946 39.734 15.062l51.38-1.497"/></g><g clip-path="url(#r)"><path style="fill:none;stroke-width:5.938;stroke-linecap:butt;stroke-linejoin:miter;stroke:#231f20;stroke-opacity:1;stroke-miterlimit:4" d="m915.211 1736.262 102.606 126.776-618.695-141.804Zm0 0" transform="matrix(.09955 0 0 -.09955 0 186.419)"/></g><g clip-path="url(#s)"><path style="stroke:none;fill-rule:evenodd;fill:#9acdeb;fill-opacity:1" d="m91.113 13.566 59.414 11.704L101.328.945 91.113 13.566"/></g><g clip-path="url(#t)"><path style="fill:none;stroke-width:5.938;stroke-linecap:butt;stroke-linejoin:miter;stroke:#231f20;stroke-opacity:1;stroke-miterlimit:4" d="m915.211 1736.262 596.8-117.555-494.194 244.33Zm0 0" transform="matrix(.09955 0 0 -.09955 0 186.419)"/></g><path style="stroke:none;fill-rule:evenodd;fill:#353543;fill-opacity:1" d="M30.422 161.105.648 114.367l17.391 4.383 12.383 42.355"/><path style="fill:none;stroke-width:5.938;stroke-linecap:butt;stroke-linejoin:miter;stroke:#231f20;stroke-opacity:1;stroke-miterlimit:4" d="M305.58 254.267 6.514 723.742l174.685-44.025Zm0 0" transform="matrix(.09955 0 0 -.09955 0 186.419)"/><path style="stroke:none;fill-rule:evenodd;fill:#33345f;fill-opacity:1" d="M6.55 65.441.649 114.367l17.391 4.383L6.551 65.441"/><path style="fill:none;stroke-width:5.938;stroke-linecap:butt;stroke-linejoin:miter;stroke:#231f20;stroke-opacity:1;stroke-miterlimit:4" d="M65.801 1215.19 6.513 723.742l174.685-44.025Zm0 0" transform="matrix(.09955 0 0 -.09955 0 186.419)"/><path style="stroke:none;fill-rule:evenodd;fill:#f8c660;fill-opacity:1" d="m168.969 82.43 12.789-10.41-7.133 62.562-5.656-52.152"/><g clip-path="url(#u)"><path style="fill:none;stroke-width:5.938;stroke-linecap:butt;stroke-linejoin:miter;stroke:#231f20;stroke-opacity:1;stroke-miterlimit:4" d="m1697.251 1044.546 128.463 104.568-71.647-628.426Zm0 0" transform="matrix(.09955 0 0 -.09955 0 186.419)"/></g><path style="stroke:none;fill-rule:evenodd;fill:#f3ebaa;fill-opacity:1" d="m168.969 82.43-18.442-57.16 31.23 46.75-12.788 10.41"/><g clip-path="url(#v)"><path style="fill:none;stroke-width:5.938;stroke-linecap:butt;stroke-linejoin:miter;stroke:#231f20;stroke-opacity:1;stroke-miterlimit:4" d="m1697.251 1044.546-185.24 574.16 313.703-469.592Zm0 0" transform="matrix(.09955 0 0 -.09955 0 186.419)"/></g><path style="stroke:none;fill-rule:evenodd;fill:#93292e;fill-opacity:1" d="m128.066 173.434-47.203 12.363-8.058-18.3 55.261 5.937"/><g clip-path="url(#w)"><path style="fill:none;stroke-width:5.938;stroke-linecap:butt;stroke-linejoin:miter;stroke:#231f20;stroke-opacity:1;stroke-miterlimit:4" d="M1286.397 130.433 812.253 6.247l-80.947 183.827Zm0 0" transform="matrix(.09955 0 0 -.09955 0 186.419)"/></g><path style="stroke:none;fill-rule:evenodd;fill:#593135;fill-opacity:1" d="m30.422 161.105 50.441 24.692-8.058-18.3-42.383-6.392"/><g clip-path="url(#x)"><path style="fill:none;stroke-width:5.938;stroke-linecap:butt;stroke-linejoin:miter;stroke:#231f20;stroke-opacity:1;stroke-miterlimit:4" d="M305.58 254.267 812.254 6.247l-80.947 183.827Zm0 0" transform="matrix(.09955 0 0 -.09955 0 186.419)"/></g><path style="stroke:none;fill-rule:evenodd;fill:#763655;fill-opacity:1" d="M30.422 161.105 18.039 118.75l54.766 48.746-42.383-6.39"/><path style="fill:none;stroke-width:5.938;stroke-linecap:butt;stroke-linejoin:miter;stroke:#231f20;stroke-opacity:1;stroke-miterlimit:4" d="m305.58 254.267-124.382 425.45 550.108-489.643Zm0 0" transform="matrix(.09955 0 0 -.09955 0 186.419)"/><path style="stroke:none;fill-rule:evenodd;fill:#5567a4;fill-opacity:1" d="m6.55 65.441 33.184-50.379 5.118 36.747L6.55 65.44"/><path style="fill:none;stroke-width:5.938;stroke-linecap:butt;stroke-linejoin:miter;stroke:#231f20;stroke-opacity:1;stroke-miterlimit:4" d="m65.801 1215.19 333.321 506.044 51.401-369.106Zm0 0" transform="matrix(.09955 0 0 -.09955 0 186.419)"/><path style="stroke:none;fill-rule:evenodd;fill:#8292c5;fill-opacity:1" d="m91.113 13.566-51.379 1.496 5.118 36.747 46.261-38.243"/><path style="fill:none;stroke-width:5.938;stroke-linecap:butt;stroke-linejoin:miter;stroke:#231f20;stroke-opacity:1;stroke-miterlimit:4" d="m915.211 1736.262-516.089-15.028 51.401-369.106Zm0 0" transform="matrix(.09955 0 0 -.09955 0 186.419)"/><path style="stroke:none;fill-rule:evenodd;fill:#d87f52;fill-opacity:1" d="m128.066 173.434 7.746-40.938 38.813 2.086-46.559 38.852"/><path style="fill:none;stroke-width:5.938;stroke-linecap:butt;stroke-linejoin:miter;stroke:#231f20;stroke-opacity:1;stroke-miterlimit:4" d="m1286.397 130.433 77.808 411.208 389.862-20.953Zm0 0" transform="matrix(.09955 0 0 -.09955 0 186.419)"/><path style="stroke:none;fill-rule:evenodd;fill:#e9ab7e;fill-opacity:1" d="m168.969 82.43-33.156 50.066 38.812 2.086-5.656-52.152"/><path style="fill:none;stroke-width:5.938;stroke-linecap:butt;stroke-linejoin:miter;stroke:#231f20;stroke-opacity:1;stroke-miterlimit:4" d="m1697.251 1044.546-333.046-502.905 389.862-20.953Zm0 0" transform="matrix(.09955 0 0 -.09955 0 186.419)"/><path style="stroke:none;fill-rule:evenodd;fill:#6e5d8e;fill-opacity:1" d="M6.55 65.441 44.853 51.81 18.039 118.75 6.551 65.441"/><path style="fill:none;stroke-width:5.938;stroke-linecap:butt;stroke-linejoin:miter;stroke:#231f20;stroke-opacity:1;stroke-miterlimit:4" d="m65.801 1215.19 384.722 136.938-269.325-672.41Zm0 0" transform="matrix(.09955 0 0 -.09955 0 186.419)"/><path style="stroke:none;fill-rule:evenodd;fill:#bc6a5e;fill-opacity:1" d="m128.066 173.434-55.261-5.938 63.007-35-7.746 40.938"/><path style="fill:none;stroke-width:5.938;stroke-linecap:butt;stroke-linejoin:miter;stroke:#231f20;stroke-opacity:1;stroke-miterlimit:4" d="m1286.397 130.433-555.091 59.641 632.899 351.567Zm0 0" transform="matrix(.09955 0 0 -.09955 0 186.419)"/><path style="stroke:none;fill-rule:evenodd;fill:#dcc9bd;fill-opacity:1" d="m168.969 82.43-49.84-23.157 31.398-34.003 18.442 57.16"/><path style="fill:none;stroke-width:5.938;stroke-linecap:butt;stroke-linejoin:miter;stroke:#231f20;stroke-opacity:1;stroke-miterlimit:4" d="m1697.251 1044.546-500.63 232.6 315.39 341.56Zm0 0" transform="matrix(.09955 0 0 -.09955 0 186.419)"/><path style="stroke:none;fill-rule:evenodd;fill:#c2c1d0;fill-opacity:1" d="m91.113 13.566 28.016 45.707 31.398-34.003-59.414-11.704"/><path style="fill:none;stroke-width:5.938;stroke-linecap:butt;stroke-linejoin:miter;stroke:#231f20;stroke-opacity:1;stroke-miterlimit:4" d="m915.211 1736.262 281.41-459.117 315.39 341.562Zm0 0" transform="matrix(.09955 0 0 -.09955 0 186.419)"/><path style="stroke:none;fill-rule:evenodd;fill:#aca0bc;fill-opacity:1" d="m91.113 13.566 28.016 45.707-74.277-7.464 46.261-38.243"/><path style="fill:none;stroke-width:5.938;stroke-linecap:butt;stroke-linejoin:miter;stroke:#231f20;stroke-opacity:1;stroke-miterlimit:4" d="m915.211 1736.262 281.41-459.117-746.098 74.983Zm0 0" transform="matrix(.09955 0 0 -.09955 0 186.419)"/><path style="stroke:none;fill-rule:evenodd;fill:#d5ab9e;fill-opacity:1" d="m168.969 82.43-49.84-23.157 16.683 73.223L168.97 82.43"/><path style="fill:none;stroke-width:5.938;stroke-linecap:butt;stroke-linejoin:miter;stroke:#231f20;stroke-opacity:1;stroke-miterlimit:4" d="m1697.251 1044.546-500.63 232.6 167.584-735.505Zm0 0" transform="matrix(.09955 0 0 -.09955 0 186.419)"/><path style="stroke:none;fill-rule:evenodd;fill:#977391;fill-opacity:1" d="M74.117 109.902 44.852 51.81 18.039 118.75l56.078-8.848"/><path style="fill:none;stroke-width:5.938;stroke-linecap:butt;stroke-linejoin:miter;stroke:#231f20;stroke-opacity:1;stroke-miterlimit:4" d="m744.49 768.59-293.967 583.538-269.325-672.41Zm0 0" transform="matrix(.09955 0 0 -.09955 0 186.419)"/><path style="stroke:none;fill-rule:evenodd;fill:#9b647a;fill-opacity:1" d="M74.117 109.902 18.04 118.75l54.766 48.746 1.312-57.594"/><path style="fill:none;stroke-width:5.938;stroke-linecap:butt;stroke-linejoin:miter;stroke:#231f20;stroke-opacity:1;stroke-miterlimit:4" d="m744.49 768.59-563.292-88.873 550.108-489.643Zm0 0" transform="matrix(.09955 0 0 -.09955 0 186.419)"/><path style="stroke:none;fill-rule:evenodd;fill:#b4787e;fill-opacity:1" d="m74.117 109.902-1.312 57.594 63.007-35-61.695-22.594"/><path style="fill:none;stroke-width:5.938;stroke-linecap:butt;stroke-linejoin:miter;stroke:#231f20;stroke-opacity:1;stroke-miterlimit:4" d="m744.49 768.59-13.184-578.516 632.899 351.567Zm0 0" transform="matrix(.09955 0 0 -.09955 0 186.419)"/><path style="stroke:none;fill-rule:evenodd;fill:#ad8da2;fill-opacity:1" d="m74.117 109.902 45.012-50.629-74.277-7.464 29.265 58.093"/><path style="fill:none;stroke-width:5.938;stroke-linecap:butt;stroke-linejoin:miter;stroke:#231f20;stroke-opacity:1;stroke-miterlimit:4" d="m744.49 768.59 452.132 508.555-746.099 74.983Zm0 0" transform="matrix(.09955 0 0 -.09955 0 186.419)"/><path style="stroke:none;fill-rule:evenodd;fill:#be9197;fill-opacity:1" d="m74.117 109.902 45.012-50.629 16.683 73.223-61.695-22.594"/><path style="fill:none;stroke-width:5.938;stroke-linecap:butt;stroke-linejoin:miter;stroke:#231f20;stroke-opacity:1;stroke-miterlimit:4" d="m744.49 768.59 452.132 508.555 167.583-735.504Zm0 0" transform="matrix(.09955 0 0 -.09955 0 186.419)"/></svg>