<svg xmlns="http://www.w3.org/2000/svg" width="338.44" height="244.2" viewBox="0 0 253.83 183.15" version="1.2"><defs><clipPath id="a"><path d="M96 146h73v36.305H96Zm0 0"/></clipPath><clipPath id="b"><path d="M84 146h78v36.305H84Zm0 0"/></clipPath><clipPath id="c"><path d="M160 155h68v27.305h-68Zm0 0"/></clipPath><clipPath id="d"><path d="M.5 21H83v109H.5Zm0 0"/></clipPath><clipPath id="e"><path d="M.5 107H35v23H.5Zm0 0"/></clipPath><clipPath id="f"><path d="M.5 108H86v64H.5Zm0 0"/></clipPath><clipPath id="g"><path d="M.5 107H86v65H.5Zm0 0"/></clipPath><clipPath id="h"><path d="M226 142h27.16v15H226Zm0 0"/></clipPath><clipPath id="i"><path d="M182 142h71.16v29H182Zm0 0"/></clipPath><clipPath id="j"><path d="M160 155h68v27.305h-68Zm0 0"/></clipPath><clipPath id="k"><path d="M.5 21H83v88H.5Zm0 0"/></clipPath><clipPath id="l"><path d="M.5 108H86v64H.5Zm0 0"/></clipPath><clipPath id="m"><path d="M.5 107H86v65H.5Zm0 0"/></clipPath><clipPath id="n"><path d="M53 151h109v31.305H53Zm0 0"/></clipPath><clipPath id="o"><path d="M203 36h50.16v107H203Zm0 0"/></clipPath><clipPath id="p"><path d="M160 169h24v13.305h-24Zm0 0"/></clipPath><clipPath id="q"><path d="M.5 38H32v71H.5Zm0 0"/></clipPath><clipPath id="r"><path d="M.5 38H33v71H.5Zm0 0"/></clipPath><clipPath id="s"><path d="M.5 91H54v62H.5Zm0 0"/></clipPath><clipPath id="t"><path d="M.5 91H55v62H.5Zm0 0"/></clipPath><clipPath id="u"><path d="M228 64h25.16v79H228Zm0 0"/></clipPath><clipPath id="v"><path d="M182 120h71.16v51H182Zm0 0"/></clipPath></defs><path style="stroke:none;fill-rule:nonzero;fill:#c6a5bc;fill-opacity:1" d="m82.16 77.414 14.942 69.902-62.786-17.953L82.16 77.414"/><path style="fill:none;stroke-width:8.6;stroke-linecap:round;stroke-linejoin:round;stroke:#231f20;stroke-opacity:1;stroke-miterlimit:10" d="m820.374 1053.767 150.108-702.268-630.765 180.364Zm0 0" transform="matrix(.09954 0 0 -.09954 .502 182.304)"/><path style="fill-rule:nonzero;fill:#b292bc;fill-opacity:1;stroke-width:8.6;stroke-linecap:round;stroke-linejoin:round;stroke:#231f20;stroke-opacity:1;stroke-miterlimit:10" d="m970.482 351.499-150.108 702.268 633.434 346.405" transform="matrix(.09954 0 0 -.09954 .502 182.304)"/><path style="stroke:none;fill-rule:nonzero;fill:#b292bc;fill-opacity:1" d="m168.52 157.125-71.418-9.809L145.21 42.934"/><path style="fill:none;stroke-width:8.6;stroke-linecap:round;stroke-linejoin:round;stroke:#231f20;stroke-opacity:1;stroke-miterlimit:10" d="m1687.976 252.958-717.494 98.541" transform="matrix(.09954 0 0 -.09954 .502 182.304)"/><path style="stroke:none;fill-rule:nonzero;fill:#a9d0f0;fill-opacity:1" d="m97.102 147.316 71.418 9.809-7.856 24.754"/><g clip-path="url(#a)"><path style="fill:none;stroke-width:8.6;stroke-linecap:round;stroke-linejoin:round;stroke:#231f20;stroke-opacity:1;stroke-miterlimit:10" d="m970.482 351.499 717.494-98.541-78.92-248.688" transform="matrix(.09954 0 0 -.09954 .502 182.304)"/></g><path style="stroke:none;fill-rule:nonzero;fill:#a9d0f0;fill-opacity:1" d="M160.664 181.879 85.31 171.395l11.793-24.079"/><g clip-path="url(#b)"><path style="fill:none;stroke-width:8.6;stroke-linecap:round;stroke-linejoin:round;stroke:#231f20;stroke-opacity:1;stroke-miterlimit:10" d="M1609.057 4.27 852.005 109.6 970.482 351.5" transform="matrix(.09954 0 0 -.09954 .502 182.304)"/></g><path style="stroke:none;fill-rule:nonzero;fill:#c7dce8;fill-opacity:1" d="m85.309 171.395-50.993-42.032 62.786 17.953-11.793 24.079"/><path style="fill:none;stroke-width:8.6;stroke-linecap:round;stroke-linejoin:round;stroke:#231f20;stroke-opacity:1;stroke-miterlimit:10" d="M852.005 109.6 339.717 531.863 970.482 351.5Zm0 0" transform="matrix(.09954 0 0 -.09954 .502 182.304)"/><path style="fill-rule:nonzero;fill:#b292bc;fill-opacity:1;stroke-width:8.6;stroke-linecap:round;stroke-linejoin:round;stroke:#231f20;stroke-opacity:1;stroke-miterlimit:10" d="M1453.808 1400.172 1994.98 897.89l-307.004-644.932" transform="matrix(.09954 0 0 -.09954 .502 182.304)"/><path style="stroke:none;fill-rule:nonzero;fill:#9b8ac2;fill-opacity:1" d="m199.078 92.93 28.277 62.82-58.835 1.375 30.558-64.195"/><path style="fill:none;stroke-width:8.6;stroke-linecap:round;stroke-linejoin:round;stroke:#231f20;stroke-opacity:1;stroke-miterlimit:10" d="m1994.98 897.89 284.086-631.118-591.09-13.814Zm0 0" transform="matrix(.09954 0 0 -.09954 .502 182.304)"/><path style="stroke:none;fill-rule:nonzero;fill:#82bae8;fill-opacity:1" d="m160.664 181.879 7.856-24.754 58.835-1.375-66.69 26.129"/><g clip-path="url(#c)"><path style="fill:none;stroke-width:8.6;stroke-linecap:round;stroke-linejoin:round;stroke:#231f20;stroke-opacity:1;stroke-miterlimit:10" d="m1609.057 4.27 78.92 248.688 591.09 13.814Zm0 0" transform="matrix(.09954 0 0 -.09954 .502 182.304)"/></g><path style="fill-rule:nonzero;fill:#da9e9a;fill-opacity:1;stroke-width:8.6;stroke-linecap:round;stroke-linejoin:round;stroke:#231f20;stroke-opacity:1;stroke-miterlimit:10" d="m823.553 1614.639-3.179-560.872-480.657-521.904" transform="matrix(.09954 0 0 -.09954 .502 182.304)"/><path style="stroke:none;fill-rule:nonzero;fill:#bc87a1;fill-opacity:1" d="m145.21 42.934-63.05 34.48.317-55.828 62.734 21.348"/><path style="fill:none;stroke-width:8.6;stroke-linecap:round;stroke-linejoin:round;stroke:#231f20;stroke-opacity:1;stroke-miterlimit:10" d="m1453.808 1400.172-633.434-346.405 3.18 560.872Zm0 0" transform="matrix(.09954 0 0 -.09954 .502 182.304)"/><path style="stroke:none;fill-rule:nonzero;fill:#9e72a6;fill-opacity:1" d="m204.133 37.262-5.055 55.668-53.867-49.996 58.922-5.672"/><path style="fill:none;stroke-width:8.6;stroke-linecap:round;stroke-linejoin:round;stroke:#231f20;stroke-opacity:1;stroke-miterlimit:10" d="M2045.762 1457.153 1994.98 897.89l-541.172 502.282Zm0 0" transform="matrix(.09954 0 0 -.09954 .502 182.304)"/><path style="fill-rule:nonzero;fill:#604ea2;fill-opacity:1;stroke-width:8.6;stroke-linecap:round;stroke-linejoin:round;stroke:#231f20;stroke-opacity:1;stroke-miterlimit:10" d="M2279.066 266.772 1994.98 897.89l50.782 559.263" transform="matrix(.09954 0 0 -.09954 .502 182.304)"/><path style="stroke:none;fill-rule:nonzero;fill:#953754;fill-opacity:1" d="M145.21 42.934 82.478 21.586l96.59-11.05"/><path style="fill:none;stroke-width:8.6;stroke-linecap:round;stroke-linejoin:round;stroke:#231f20;stroke-opacity:1;stroke-miterlimit:10" d="m1453.808 1400.172-630.255 214.467" transform="matrix(.09954 0 0 -.09954 .502 182.304)"/><path style="fill-rule:nonzero;fill:#953754;fill-opacity:1;stroke-width:8.6;stroke-linecap:round;stroke-linejoin:round;stroke:#231f20;stroke-opacity:1;stroke-miterlimit:10" d="m1793.934 1725.66 251.828-268.507-591.954-56.981" transform="matrix(.09954 0 0 -.09954 .502 182.304)"/><g clip-path="url(#d)"><path style="stroke:none;fill-rule:nonzero;fill:#da9e9a;fill-opacity:1" d="M34.316 129.363.93 108.38l81.547-86.793"/></g><g clip-path="url(#e)"><path style="fill:none;stroke-width:8.6;stroke-linecap:round;stroke-linejoin:round;stroke:#231f20;stroke-opacity:1;stroke-miterlimit:10" d="M339.717 531.863 4.3 742.681" transform="matrix(.09954 0 0 -.09954 .502 182.304)"/></g><g clip-path="url(#f)"><path style="stroke:none;fill-rule:nonzero;fill:#9eddc1;fill-opacity:1" d="m.93 108.379 33.386 20.984 50.993 42.032"/></g><g clip-path="url(#g)"><path style="fill:none;stroke-width:8.6;stroke-linecap:round;stroke-linejoin:round;stroke:#231f20;stroke-opacity:1;stroke-miterlimit:10" d="m4.3 742.681 335.417-210.818L852.005 109.6" transform="matrix(.09954 0 0 -.09954 .502 182.304)"/></g><path style="stroke:none;fill-rule:nonzero;fill:#604ea2;fill-opacity:1" d="m252.734 142.512-25.379 13.238-23.222-118.488"/><g clip-path="url(#h)"><path style="fill:none;stroke-width:8.6;stroke-linecap:round;stroke-linejoin:round;stroke:#231f20;stroke-opacity:1;stroke-miterlimit:10" d="m2534.033 399.769-254.967-132.997" transform="matrix(.09954 0 0 -.09954 .502 182.304)"/></g><path style="stroke:none;fill-rule:nonzero;fill:#721e21;fill-opacity:1" d="m227.355 155.75 25.38-13.238-70.122 27.406"/><g clip-path="url(#i)"><path style="fill:none;stroke-width:8.6;stroke-linecap:round;stroke-linejoin:round;stroke:#231f20;stroke-opacity:1;stroke-miterlimit:10" d="m2279.066 266.772 254.967 132.997-704.465-275.335" transform="matrix(.09954 0 0 -.09954 .502 182.304)"/></g><path style="stroke:none;fill-rule:nonzero;fill:#721e21;fill-opacity:1" d="m182.613 169.918-21.949 11.96 66.691-26.128"/><g clip-path="url(#j)"><path style="fill:none;stroke-width:8.6;stroke-linecap:round;stroke-linejoin:round;stroke:#231f20;stroke-opacity:1;stroke-miterlimit:10" d="M1829.568 124.434 1609.057 4.27l670.01 262.502" transform="matrix(.09954 0 0 -.09954 .502 182.304)"/></g><path style="stroke:none;fill-rule:nonzero;fill:#b13d29;fill-opacity:1" d="M82.477 21.586 31.594 38.43 99.629.426l-17.152 21.16"/><path style="fill:none;stroke-width:8.6;stroke-linecap:round;stroke-linejoin:round;stroke:#231f20;stroke-opacity:1;stroke-miterlimit:10" d="m823.553 1614.639-511.19-169.22 683.51 381.803Zm0 0" transform="matrix(.09954 0 0 -.09954 .502 182.304)"/><g clip-path="url(#k)"><path style="fill-rule:nonzero;fill:#da9e9a;fill-opacity:1;stroke-width:8.6;stroke-linecap:round;stroke-linejoin:round;stroke:#231f20;stroke-opacity:1;stroke-miterlimit:10" d="m4.3 742.681 308.064 702.739 511.19 169.219" transform="matrix(.09954 0 0 -.09954 .502 182.304)"/></g><path style="fill-rule:nonzero;fill:#953754;fill-opacity:1;stroke-width:8.6;stroke-linecap:round;stroke-linejoin:round;stroke:#231f20;stroke-opacity:1;stroke-miterlimit:10" d="m823.553 1614.639 172.32 212.583 798.061-101.563" transform="matrix(.09954 0 0 -.09954 .502 182.304)"/><g clip-path="url(#l)"><path style="stroke:none;fill-rule:nonzero;fill:#9eddc1;fill-opacity:1" d="m85.309 171.395-31.524-19.266L.93 108.379"/></g><g clip-path="url(#m)"><path style="fill:none;stroke-width:8.6;stroke-linecap:round;stroke-linejoin:round;stroke:#231f20;stroke-opacity:1;stroke-miterlimit:10" d="M852.005 109.6 535.308 303.15 4.3 742.682" transform="matrix(.09954 0 0 -.09954 .502 182.304)"/></g><path style="stroke:none;fill-rule:nonzero;fill:#7c1e25;fill-opacity:1" d="m53.785 152.129 31.524 19.266 75.355 10.484"/><g clip-path="url(#n)"><path style="fill:none;stroke-width:8.6;stroke-linecap:round;stroke-linejoin:round;stroke:#231f20;stroke-opacity:1;stroke-miterlimit:10" d="M535.308 303.15 852.005 109.6 1609.057 4.27" transform="matrix(.09954 0 0 -.09954 .502 182.304)"/></g><path style="stroke:none;fill-rule:nonzero;fill:#604ea2;fill-opacity:1" d="m204.133 37.262 33.777 28.09 14.824 77.16"/><g clip-path="url(#o)"><path style="fill:none;stroke-width:8.6;stroke-linecap:round;stroke-linejoin:round;stroke:#231f20;stroke-opacity:1;stroke-miterlimit:10" d="m2045.762 1457.153 339.34-282.202 148.931-775.182" transform="matrix(.09954 0 0 -.09954 .502 182.304)"/></g><path style="stroke:none;fill-rule:nonzero;fill:#231f20;fill-opacity:1" d="m179.066 10.535 58.844 54.817-33.777-28.09-25.067-26.727"/><path style="fill:none;stroke-width:8.6;stroke-linecap:round;stroke-linejoin:round;stroke:#231f20;stroke-opacity:1;stroke-miterlimit:10" d="m1793.934 1725.66 591.169-550.709-339.341 282.202Zm0 0" transform="matrix(.09954 0 0 -.09954 .502 182.304)"/><path style="stroke:none;fill-rule:nonzero;fill:#7c1e25;fill-opacity:1" d="m160.664 181.879 21.95-11.961-128.829-17.79"/><g clip-path="url(#p)"><path style="fill:none;stroke-width:8.6;stroke-linecap:round;stroke-linejoin:round;stroke:#231f20;stroke-opacity:1;stroke-miterlimit:10" d="m1609.057 4.27 220.51 120.164" transform="matrix(.09954 0 0 -.09954 .502 182.304)"/></g><g clip-path="url(#q)"><path style="stroke:none;fill-rule:nonzero;fill:#303391;fill-opacity:1" d="M31.594 38.43.93 108.379 13.754 91.73l17.84-53.3"/></g><g clip-path="url(#r)"><path style="fill:none;stroke-width:8.6;stroke-linecap:round;stroke-linejoin:round;stroke:#231f20;stroke-opacity:1;stroke-miterlimit:10" d="M312.364 1445.42 4.3 742.68l128.837 167.257Zm0 0" transform="matrix(.09954 0 0 -.09954 .502 182.304)"/></g><g clip-path="url(#s)"><path style="stroke:none;fill-rule:nonzero;fill:#572563;fill-opacity:1" d="M53.785 152.129 13.754 91.73.93 108.38l52.855 43.75"/></g><g clip-path="url(#t)"><path style="fill:none;stroke-width:8.6;stroke-linecap:round;stroke-linejoin:round;stroke:#231f20;stroke-opacity:1;stroke-miterlimit:10" d="m535.308 303.15-402.17 606.788L4.3 742.681Zm0 0" transform="matrix(.09954 0 0 -.09954 .502 182.304)"/></g><path style="fill-rule:nonzero;fill:#899fd7;fill-opacity:1;stroke-width:8.6;stroke-linecap:round;stroke-linejoin:round;stroke:#231f20;stroke-opacity:1;stroke-miterlimit:10" d="m995.873 1827.222-683.51-381.802-179.226-535.482" transform="matrix(.09954 0 0 -.09954 .502 182.304)"/><path style="stroke:none;fill-rule:nonzero;fill:#f3d7a5;fill-opacity:1" d="m237.91 65.352-8.527 55.34 23.351 21.82-14.824-77.16"/><g clip-path="url(#u)"><path style="fill:none;stroke-width:8.6;stroke-linecap:round;stroke-linejoin:round;stroke:#231f20;stroke-opacity:1;stroke-miterlimit:10" d="m2385.103 1174.951-85.67-555.966 234.6-219.216Zm0 0" transform="matrix(.09954 0 0 -.09954 .502 182.304)"/></g><path style="stroke:none;fill-rule:nonzero;fill:#c8756e;fill-opacity:1" d="m182.613 169.918 70.121-27.406-23.351-21.82-46.77 49.226"/><g clip-path="url(#v)"><path style="fill:none;stroke-width:8.6;stroke-linecap:round;stroke-linejoin:round;stroke:#231f20;stroke-opacity:1;stroke-miterlimit:10" d="m1829.568 124.434 704.465 275.335-234.6 219.216Zm0 0" transform="matrix(.09954 0 0 -.09954 .502 182.304)"/></g><path style="stroke:none;fill-rule:nonzero;fill:#a6d3f1;fill-opacity:1" d="m99.629.426 29.848 27.547 49.59-17.438L99.628.425"/><path style="fill:none;stroke-width:8.6;stroke-linecap:round;stroke-linejoin:round;stroke:#231f20;stroke-opacity:1;stroke-miterlimit:10" d="m995.873 1827.222 299.862-276.747 498.2 175.185Zm0 0" transform="matrix(.09954 0 0 -.09954 .502 182.304)"/><path style="fill-rule:nonzero;fill:#899fd7;fill-opacity:1;stroke-width:8.6;stroke-linecap:round;stroke-linejoin:round;stroke:#231f20;stroke-opacity:1;stroke-miterlimit:10" d="m746.4 953.616 549.335 596.86-299.862 276.746" transform="matrix(.09954 0 0 -.09954 .502 182.304)"/><path style="stroke:none;fill-rule:nonzero;fill:#899fd7;fill-opacity:1" d="m13.754 91.73 61.043-4.347L99.629.426"/><path style="fill:none;stroke-width:8.6;stroke-linecap:round;stroke-linejoin:round;stroke:#231f20;stroke-opacity:1;stroke-miterlimit:10" d="M133.137 909.938 746.4 953.616" transform="matrix(.09954 0 0 -.09954 .502 182.304)"/><path style="fill-rule:nonzero;fill:#966296;fill-opacity:1;stroke-width:8.6;stroke-linecap:round;stroke-linejoin:round;stroke:#231f20;stroke-opacity:1;stroke-miterlimit:10" d="m746.4 953.616-613.263-43.678 402.17-606.787M535.308 303.15l610.476 17.346L746.4 953.616" transform="matrix(.09954 0 0 -.09954 .502 182.304)"/><path style="fill-rule:nonzero;fill:#7c1e25;fill-opacity:1;stroke-width:8.6;stroke-linecap:round;stroke-linejoin:round;stroke:#231f20;stroke-opacity:1;stroke-miterlimit:10" d="m1829.568 124.434-683.784 196.062-610.476-17.345" transform="matrix(.09954 0 0 -.09954 .502 182.304)"/><path style="fill-rule:nonzero;fill:#cfc7d5;fill-opacity:1;stroke-width:8.6;stroke-linecap:round;stroke-linejoin:round;stroke:#231f20;stroke-opacity:1;stroke-miterlimit:10" d="m2299.434 618.985 85.669 555.966-591.169 550.708" transform="matrix(.09954 0 0 -.09954 .502 182.304)"/><path style="stroke:none;fill-rule:nonzero;fill:#cfc7d5;fill-opacity:1" d="m160.246 98.785 69.137 21.906-50.317-110.156"/><path style="fill:none;stroke-width:8.6;stroke-linecap:round;stroke-linejoin:round;stroke:#231f20;stroke-opacity:1;stroke-miterlimit:10" d="m1604.858 839.064 694.576-220.08" transform="matrix(.09954 0 0 -.09954 .502 182.304)"/><path style="fill-rule:nonzero;fill:#cfc7d5;fill-opacity:1;stroke-width:8.6;stroke-linecap:round;stroke-linejoin:round;stroke:#231f20;stroke-opacity:1;stroke-miterlimit:10" d="m1793.934 1725.66-498.2-175.185 309.124-711.411" transform="matrix(.09954 0 0 -.09954 .502 182.304)"/><path style="fill-rule:nonzero;fill:#ba7a93;fill-opacity:1;stroke-width:8.6;stroke-linecap:round;stroke-linejoin:round;stroke:#231f20;stroke-opacity:1;stroke-miterlimit:10" d="m1145.784 320.496 683.784-196.062 469.866 494.55" transform="matrix(.09954 0 0 -.09954 .502 182.304)"/><path style="stroke:none;fill-rule:nonzero;fill:#ae7da4;fill-opacity:1" d="m114.55 150.402 45.696-51.617-85.45-11.402 39.755 63.02"/><path style="fill:none;stroke-width:8.6;stroke-linecap:round;stroke-linejoin:round;stroke:#231f20;stroke-opacity:1;stroke-miterlimit:10" d="m1145.784 320.496 459.074 518.568L746.4 953.616Zm0 0" transform="matrix(.09954 0 0 -.09954 .502 182.304)"/><path style="fill-rule:nonzero;fill:#ba7a93;fill-opacity:1;stroke-width:8.6;stroke-linecap:round;stroke-linejoin:round;stroke:#231f20;stroke-opacity:1;stroke-miterlimit:10" d="m2299.434 618.985-694.576 220.079-459.074-518.568" transform="matrix(.09954 0 0 -.09954 .502 182.304)"/><path style="stroke:none;fill-rule:nonzero;fill:#b4a7d2;fill-opacity:1" d="m129.477 27.973-54.68 59.41 85.45 11.402-30.77-70.812"/><path style="fill:none;stroke-width:8.6;stroke-linecap:round;stroke-linejoin:round;stroke:#231f20;stroke-opacity:1;stroke-miterlimit:10" d="M1295.735 1550.475 746.4 953.616l858.458-114.552Zm0 0" transform="matrix(.09954 0 0 -.09954 .502 182.304)"/></svg>