<svg xmlns="http://www.w3.org/2000/svg" width="287.2pt" height="143.2pt" viewBox="0 0 287.2 143.2" version="1.2"><defs><clipPath id="a"><path d="M.398 49H93v54H.398Zm0 0"/></clipPath><clipPath id="b"><path d="M.398 81H93v57H.398Zm0 0"/></clipPath><clipPath id="c"><path d="M.398 35H85v60H.398Zm0 0"/></clipPath><clipPath id="d"><path d="M212 44h74.004v74H212Zm0 0"/></clipPath><clipPath id="e"><path d="M212 17h74.004v74H212Zm0 0"/></clipPath><clipPath id="f"><path d="M161 76h125.004v66.406H161Zm0 0"/></clipPath><clipPath id="g"><path d="M75 104h151v38.406H75Zm0 0"/></clipPath><clipPath id="h"><path d="M161 76h125.004v66.406H161Zm0 0"/></clipPath><clipPath id="i"><path d="M212 17h74.004v104H212Zm0 0"/></clipPath><clipPath id="j"><path d="M.398 81H89v57H.398Zm0 0"/></clipPath><clipPath id="k"><path d="M75 121h100v21.406H75Zm0 0"/></clipPath><clipPath id="l"><path d="M.398 35H85v89H.398Zm0 0"/></clipPath><clipPath id="m"><path d="M136 107h106v35.406H136Zm0 0"/></clipPath></defs><path style="fill-rule:evenodd;fill:#9a4e39;fill-opacity:1;stroke-width:11.563;stroke-linecap:butt;stroke-linejoin:miter;stroke:#000;stroke-opacity:1;stroke-miterlimit:4" d="m1447.479 1217.606-784.357-98.28 166.785 197.189M829.907 1316.515l830.866 100.873-213.294-199.782" transform="matrix(.09944 0 0 -.09944 .4 142.404)"/><path style="stroke:none;fill-rule:evenodd;fill:#8b514c;fill-opacity:1" d="m165.555 1.453 56.644 26.914-77.855-7.047 21.21-19.867"/><path style="fill:none;stroke-width:11.563;stroke-linecap:butt;stroke-linejoin:miter;stroke:#000;stroke-opacity:1;stroke-miterlimit:4" d="m1660.773 1417.388 569.61-270.645-782.904 70.863Zm0 0" transform="matrix(.09944 0 0 -.09944 .4 142.404)"/><path style="stroke:none;fill-rule:evenodd;fill:#b4a6bf;fill-opacity:1" d="M166.816 84.746 144.344 21.32l77.855 7.047-55.383 56.38"/><path style="fill:none;stroke-width:11.563;stroke-linecap:butt;stroke-linejoin:miter;stroke:#000;stroke-opacity:1;stroke-miterlimit:4" d="m1673.461 579.805-225.982 637.8 782.904-70.862Zm0 0" transform="matrix(.09944 0 0 -.09944 .4 142.404)"/><path style="fill-rule:evenodd;fill:#c1b5c8;fill-opacity:1;stroke-width:11.563;stroke-linecap:butt;stroke-linejoin:miter;stroke:#000;stroke-opacity:1;stroke-miterlimit:4" d="m663.122 1119.325 784.357 98.28 225.982-637.8" transform="matrix(.09944 0 0 -.09944 .4 142.404)"/><path style="stroke:none;fill-rule:evenodd;fill:#a64e36;fill-opacity:1" d="m82.93 11.484-16.586 19.61L11.57 55.57l71.36-44.086"/><path style="fill:none;stroke-width:11.563;stroke-linecap:butt;stroke-linejoin:miter;stroke:#000;stroke-opacity:1;stroke-miterlimit:4" d="m829.907 1316.515-166.785-197.19-550.795-246.133Zm0 0" transform="matrix(.09944 0 0 -.09944 .4 142.404)"/><path style="fill-rule:evenodd;fill:#c1b5c8;fill-opacity:1;stroke-width:11.563;stroke-linecap:butt;stroke-linejoin:miter;stroke:#000;stroke-opacity:1;stroke-miterlimit:4" d="M1673.461 579.805 864.003 466.283l-200.881 653.042" transform="matrix(.09944 0 0 -.09944 .4 142.404)"/><path style="stroke:none;fill-rule:evenodd;fill:#d1c9d2;fill-opacity:1" d="M86.32 96.035 11.57 55.57l54.774-24.476L86.32 96.035"/><path style="fill:none;stroke-width:11.563;stroke-linecap:butt;stroke-linejoin:miter;stroke:#000;stroke-opacity:1;stroke-miterlimit:4" d="m864.003 466.283-751.676 406.91 550.795 246.132Zm0 0" transform="matrix(.09944 0 0 -.09944 .4 142.404)"/><path style="fill-rule:evenodd;fill:#000;fill-opacity:1;stroke-width:11.563;stroke-linecap:butt;stroke-linejoin:miter;stroke:#000;stroke-opacity:1;stroke-miterlimit:4" d="m2776.189 919.23-545.806 227.513-569.61 270.645" transform="matrix(.09944 0 0 -.09944 .4 142.404)"/><path style="fill-rule:evenodd;fill:#a09ac1;fill-opacity:1;stroke-width:11.563;stroke-linecap:butt;stroke-linejoin:miter;stroke:#000;stroke-opacity:1;stroke-miterlimit:4" d="M2230.383 1146.743 2776.19 919.23l-576.052-600.445M2200.137 318.784l-526.676 261.02 556.922 566.94" transform="matrix(.09944 0 0 -.09944 .4 142.404)"/><path style="fill-rule:evenodd;fill:#a2b6dd;fill-opacity:1;stroke-width:11.563;stroke-linecap:butt;stroke-linejoin:miter;stroke:#000;stroke-opacity:1;stroke-miterlimit:4" d="m864.003 466.283 809.458 113.522 526.676-261.02" transform="matrix(.09944 0 0 -.09944 .4 142.404)"/><path style="stroke:none;fill-rule:evenodd;fill:#d2e1e9;fill-opacity:1" d="m2.27 88.29 9.3-32.72 74.75 40.465"/><g clip-path="url(#a)"><path style="fill:none;stroke-width:11.563;stroke-linecap:butt;stroke-linejoin:miter;stroke:#000;stroke-opacity:1;stroke-miterlimit:4" d="m18.8 544.177 93.527 329.015 751.676-406.909" transform="matrix(.09944 0 0 -.09944 .4 142.404)"/></g><path style="stroke:none;fill-rule:evenodd;fill:#d2e1e9;fill-opacity:1" d="m86.32 96.035-4.273 34.953L2.27 88.29"/><g clip-path="url(#b)"><path style="fill:none;stroke-width:11.563;stroke-linecap:butt;stroke-linejoin:miter;stroke:#000;stroke-opacity:1;stroke-miterlimit:4" d="M864.003 466.283 821.03 114.8 18.8 544.177" transform="matrix(.09944 0 0 -.09944 .4 142.404)"/></g><path style="stroke:none;fill-rule:evenodd;fill:#a2b6dd;fill-opacity:1" d="m82.047 130.988 4.273-34.953 132.871 14.668"/><path style="fill:none;stroke-width:11.563;stroke-linecap:butt;stroke-linejoin:miter;stroke:#000;stroke-opacity:1;stroke-miterlimit:4" d="m821.03 114.8 42.973 351.483" transform="matrix(.09944 0 0 -.09944 .4 142.404)"/><path style="fill-rule:evenodd;fill:#000;fill-opacity:1;stroke-width:11.563;stroke-linecap:butt;stroke-linejoin:miter;stroke:#000;stroke-opacity:1;stroke-miterlimit:4" d="m1660.773 1417.388 540.228-223.43L2776.19 919.23" transform="matrix(.09944 0 0 -.09944 .4 142.404)"/><path style="stroke:none;fill-rule:evenodd;fill:#98b5e1;fill-opacity:1" d="M165.555 1.453 82.93 11.484l84.199 38.852"/><path style="fill:none;stroke-width:11.563;stroke-linecap:butt;stroke-linejoin:miter;stroke:#000;stroke-opacity:1;stroke-miterlimit:4" d="m1660.773 1417.388-830.866-100.873" transform="matrix(.09944 0 0 -.09944 .4 142.404)"/><path style="fill-rule:evenodd;fill:#98b5e1;fill-opacity:1;stroke-width:11.563;stroke-linecap:butt;stroke-linejoin:miter;stroke:#000;stroke-opacity:1;stroke-miterlimit:4" d="M1676.604 925.829 2201 1193.959l-540.228 223.429" transform="matrix(.09944 0 0 -.09944 .4 142.404)"/><path style="stroke:none;fill-rule:evenodd;fill:#5a7dbe;fill-opacity:1" d="m11.57 55.57-9.3 32.72 76.039-46.58"/><g clip-path="url(#c)"><path style="fill:none;stroke-width:11.563;stroke-linecap:butt;stroke-linejoin:miter;stroke:#000;stroke-opacity:1;stroke-miterlimit:4" d="M112.327 873.192 18.8 544.177l764.638 468.383" transform="matrix(.09944 0 0 -.09944 .4 142.404)"/></g><path style="fill-rule:evenodd;fill:#5a7dbe;fill-opacity:1;stroke-width:11.563;stroke-linecap:butt;stroke-linejoin:miter;stroke:#000;stroke-opacity:1;stroke-miterlimit:4" d="m783.438 1012.56 46.47 303.955-717.58-443.323" transform="matrix(.09944 0 0 -.09944 .4 142.404)"/><path style="stroke:none;fill-rule:evenodd;fill:#6f81bb;fill-opacity:1" d="m219.191 110.703 57.286-59.71 8.328 32.507-65.614 27.203"/><g clip-path="url(#d)"><path style="fill:none;stroke-width:11.563;stroke-linecap:butt;stroke-linejoin:miter;stroke:#000;stroke-opacity:1;stroke-miterlimit:4" d="m2200.137 318.784 576.052 600.445 83.746-326.894Zm0 0" transform="matrix(.09944 0 0 -.09944 .4 142.404)"/></g><path style="stroke:none;fill-rule:evenodd;fill:#d1ece4;fill-opacity:1" d="M219.277 23.672 284.805 83.5l-8.328-32.508-57.2-27.32"/><g clip-path="url(#e)"><path style="fill:none;stroke-width:11.563;stroke-linecap:butt;stroke-linejoin:miter;stroke:#000;stroke-opacity:1;stroke-miterlimit:4" d="m2201.001 1193.959 658.934-601.624-83.746 326.894Zm0 0" transform="matrix(.09944 0 0 -.09944 .4 142.404)"/></g><path style="fill-rule:evenodd;fill:#98b5e1;fill-opacity:1;stroke-width:11.563;stroke-linecap:butt;stroke-linejoin:miter;stroke:#000;stroke-opacity:1;stroke-miterlimit:4" d="m829.907 1316.515-46.469-303.955 893.166-86.731" transform="matrix(.09944 0 0 -.09944 .4 142.404)"/><path style="stroke:none;fill-rule:evenodd;fill:#326cab;fill-opacity:1" d="m168.48 141.3 50.711-30.597L284.805 83.5"/><g clip-path="url(#f)"><path style="fill:none;stroke-width:11.563;stroke-linecap:butt;stroke-linejoin:miter;stroke:#000;stroke-opacity:1;stroke-miterlimit:4" d="m1690.195 11.098 509.942 307.686 659.798 273.551" transform="matrix(.09944 0 0 -.09944 .4 142.404)"/></g><path style="stroke:none;fill-rule:evenodd;fill:#a2b6dd;fill-opacity:1" d="m219.191 110.703-50.71 30.598-86.434-10.313"/><g clip-path="url(#g)"><path style="fill:none;stroke-width:11.563;stroke-linecap:butt;stroke-linejoin:miter;stroke:#000;stroke-opacity:1;stroke-miterlimit:4" d="M2200.137 318.784 1690.195 11.098 821.03 114.8" transform="matrix(.09944 0 0 -.09944 .4 142.404)"/></g><path style="stroke:none;fill-rule:evenodd;fill:#326cab;fill-opacity:1" d="m284.805 83.5-49.567 30.602L168.48 141.3"/><g clip-path="url(#h)"><path style="fill:none;stroke-width:11.563;stroke-linecap:butt;stroke-linejoin:miter;stroke:#000;stroke-opacity:1;stroke-miterlimit:4" d="M2859.935 592.335 2361.502 284.61 1690.195 11.098" transform="matrix(.09944 0 0 -.09944 .4 142.404)"/></g><path style="stroke:none;fill-rule:evenodd;fill:#cfcdd9;fill-opacity:1" d="M235.238 114.102 284.805 83.5l-65.528-59.828"/><g clip-path="url(#i)"><path style="fill:none;stroke-width:11.563;stroke-linecap:butt;stroke-linejoin:miter;stroke:#000;stroke-opacity:1;stroke-miterlimit:4" d="m2361.502 284.61 498.433 307.725-658.934 601.624" transform="matrix(.09944 0 0 -.09944 .4 142.404)"/></g><path style="fill-rule:evenodd;fill:#cfcdd9;fill-opacity:1;stroke-width:11.563;stroke-linecap:butt;stroke-linejoin:miter;stroke:#000;stroke-opacity:1;stroke-miterlimit:4" d="m2201.001 1193.959-524.397-268.13 684.898-641.219" transform="matrix(.09944 0 0 -.09944 .4 142.404)"/><path style="stroke:none;fill-rule:evenodd;fill:#80bdbd;fill-opacity:1" d="m82.047 130.988-31.36-13.816L2.27 88.289l79.777 42.7"/><g clip-path="url(#j)"><path style="fill:none;stroke-width:11.563;stroke-linecap:butt;stroke-linejoin:miter;stroke:#000;stroke-opacity:1;stroke-miterlimit:4" d="M821.03 114.8 505.684 253.734 18.8 544.177Zm0 0" transform="matrix(.09944 0 0 -.09944 .4 142.404)"/></g><path style="fill-rule:evenodd;fill:#483934;fill-opacity:1;stroke-width:11.563;stroke-linecap:butt;stroke-linejoin:miter;stroke:#000;stroke-opacity:1;stroke-miterlimit:4" d="m1430.824 145.713-925.14 108.022L821.03 114.8" transform="matrix(.09944 0 0 -.09944 .4 142.404)"/><path style="stroke:none;fill-rule:evenodd;fill:#483934;fill-opacity:1" d="m82.047 130.988 86.433 10.313-25.792-13.387"/><g clip-path="url(#k)"><path style="fill:none;stroke-width:11.563;stroke-linecap:butt;stroke-linejoin:miter;stroke:#000;stroke-opacity:1;stroke-miterlimit:4" d="m821.03 114.8 869.165-103.702-259.371 134.615" transform="matrix(.09944 0 0 -.09944 .4 142.404)"/></g><path style="stroke:none;fill-rule:evenodd;fill:#9793bd;fill-opacity:1" d="M78.309 41.71 2.269 88.29l48.419 28.882 27.62-75.461"/><g clip-path="url(#l)"><path style="fill:none;stroke-width:11.563;stroke-linecap:butt;stroke-linejoin:miter;stroke:#000;stroke-opacity:1;stroke-miterlimit:4" d="M783.438 1012.56 18.8 544.177l486.884-290.442Zm0 0" transform="matrix(.09944 0 0 -.09944 .4 142.404)"/></g><path style="stroke:none;fill-rule:evenodd;fill:#984a38;fill-opacity:1" d="m168.48 141.3 66.758-27.198-92.55 13.812 25.792 13.387"/><g clip-path="url(#m)"><path style="fill:none;stroke-width:11.563;stroke-linecap:butt;stroke-linejoin:miter;stroke:#000;stroke-opacity:1;stroke-miterlimit:4" d="m1690.195 11.098 671.307 273.512-930.678-138.897Zm0 0" transform="matrix(.09944 0 0 -.09944 .4 142.404)"/></g><path style="fill-rule:evenodd;fill:#b2a8c4;fill-opacity:1;stroke-width:11.563;stroke-linecap:butt;stroke-linejoin:miter;stroke:#000;stroke-opacity:1;stroke-miterlimit:4" d="m1676.604 925.829-893.166 86.731-277.754-758.825" transform="matrix(.09944 0 0 -.09944 .4 142.404)"/><path style="stroke:none;fill-rule:evenodd;fill:#c3b7c8;fill-opacity:1" d="m167.129 50.336-24.441 77.578 92.55-13.812-68.11-63.766"/><path style="fill:none;stroke-width:11.563;stroke-linecap:butt;stroke-linejoin:miter;stroke:#000;stroke-opacity:1;stroke-miterlimit:4" d="m1676.604 925.829-245.78-780.116 930.678 138.897Zm0 0" transform="matrix(.09944 0 0 -.09944 .4 142.404)"/><path style="fill-rule:evenodd;fill:#b2a8c4;fill-opacity:1;stroke-width:11.563;stroke-linecap:butt;stroke-linejoin:miter;stroke:#000;stroke-opacity:1;stroke-miterlimit:4" d="m505.684 253.735 925.14-108.022 245.78 780.116" transform="matrix(.09944 0 0 -.09944 .4 142.404)"/></svg>