<svg xmlns="http://www.w3.org/2000/svg" width="286.507" height="305.667" viewBox="0 0 214.88 229.25" version="1.2"><path style="fill-rule:nonzero;fill:#cdccd8;fill-opacity:1;stroke-width:5;stroke-linecap:round;stroke-linejoin:round;stroke:#000;stroke-opacity:1;stroke-miterlimit:10" d="m623.542 359.164 339.937 23.083-1.372 420.003" transform="matrix(.09967 0 0 -.09967 .29 228.502)"/><path style="stroke:none;fill-rule:nonzero;fill:#cdccd8;fill-opacity:1" d="m34.734 162.43 27.707 30.273 33.746-44.164"/><path style="fill:none;stroke-width:5;stroke-linecap:round;stroke-linejoin:round;stroke:#000;stroke-opacity:1;stroke-miterlimit:10" d="m345.565 662.89 277.977-303.726" transform="matrix(.09967 0 0 -.09967 .29 228.502)"/><path style="fill-rule:nonzero;fill:#cdccd8;fill-opacity:1;stroke-width:5;stroke-linecap:round;stroke-linejoin:round;stroke:#000;stroke-opacity:1;stroke-miterlimit:10" d="M962.107 802.25 468.466 913.825l-122.9-250.936" transform="matrix(.09967 0 0 -.09967 .29 228.502)"/><path style="fill-rule:nonzero;fill:#9ca5db;fill-opacity:1;stroke-width:5;stroke-linecap:round;stroke-linejoin:round;stroke:#000;stroke-opacity:1;stroke-miterlimit:10" d="m962.107 802.25 1.372-420.003 366.546-66.819" transform="matrix(.09967 0 0 -.09967 .29 228.502)"/><path style="stroke:none;fill-rule:nonzero;fill:#9ca5db;fill-opacity:1" d="m148.926 144.469-52.738 4.07 36.671 48.524"/><path style="fill:none;stroke-width:5;stroke-linecap:round;stroke-linejoin:round;stroke:#000;stroke-opacity:1;stroke-miterlimit:10" d="M1491.215 843.086 962.107 802.25" transform="matrix(.09967 0 0 -.09967 .29 228.502)"/><path style="fill-rule:nonzero;fill:#caa3b0;fill-opacity:1;stroke-width:5;stroke-linecap:round;stroke-linejoin:round;stroke:#000;stroke-opacity:1;stroke-miterlimit:10" d="m468.466 913.825 493.64-111.575 39.897 542.903" transform="matrix(.09967 0 0 -.09967 .29 228.502)"/><path style="fill-rule:nonzero;fill:#a587b4;fill-opacity:1;stroke-width:5;stroke-linecap:round;stroke-linejoin:round;stroke:#000;stroke-opacity:1;stroke-miterlimit:10" d="m962.107 802.25 529.108 40.836 131.288 369.839" transform="matrix(.09967 0 0 -.09967 .29 228.502)"/><path style="stroke:none;fill-rule:nonzero;fill:#a587b4;fill-opacity:1" d="m100.164 94.426-3.977 54.113 65.825-40.934"/><path style="fill:none;stroke-width:5;stroke-linecap:round;stroke-linejoin:round;stroke:#000;stroke-opacity:1;stroke-miterlimit:10" d="M1002.003 1345.153 962.107 802.25" transform="matrix(.09967 0 0 -.09967 .29 228.502)"/><path style="stroke:none;fill-rule:nonzero;fill:#caa3b0;fill-opacity:1" d="m39.781 98.527 7.203 38.891 53.18-42.992"/><path style="fill:none;stroke-width:5;stroke-linecap:round;stroke-linejoin:round;stroke:#000;stroke-opacity:1;stroke-miterlimit:10" d="m396.199 1304.003 72.267-390.178" transform="matrix(.09967 0 0 -.09967 .29 228.502)"/><path style="fill-rule:nonzero;fill:#caa3b0;fill-opacity:1;stroke-width:5;stroke-linecap:round;stroke-linejoin:round;stroke:#000;stroke-opacity:1;stroke-miterlimit:10" d="m1002.003 1345.153-307.096 191.366L396.2 1304.003" transform="matrix(.09967 0 0 -.09967 .29 228.502)"/><path style="fill-rule:nonzero;fill:#a587b4;fill-opacity:1;stroke-width:5;stroke-linecap:round;stroke-linejoin:round;stroke:#000;stroke-opacity:1;stroke-miterlimit:10" d="m1622.503 1212.925-271.824 272.647-348.676-140.419" transform="matrix(.09967 0 0 -.09967 .29 228.502)"/><path style="fill-rule:nonzero;fill:#b2728b;fill-opacity:1;stroke-width:5;stroke-linecap:round;stroke-linejoin:round;stroke:#000;stroke-opacity:1;stroke-miterlimit:10" d="m1002.003 1345.153 348.676 140.419 2.116 469.5" transform="matrix(.09967 0 0 -.09967 .29 228.502)"/><path style="stroke:none;fill-rule:nonzero;fill:#b2728b;fill-opacity:1" d="m69.555 75.352 30.61 19.074 34.964-60.793"/><path style="fill:none;stroke-width:5;stroke-linecap:round;stroke-linejoin:round;stroke:#000;stroke-opacity:1;stroke-miterlimit:10" d="m694.907 1536.52 307.096-191.367" transform="matrix(.09967 0 0 -.09967 .29 228.502)"/><path style="fill-rule:nonzero;fill:#784586;fill-opacity:1;stroke-width:5;stroke-linecap:round;stroke-linejoin:round;stroke:#000;stroke-opacity:1;stroke-miterlimit:10" d="m1350.679 1485.572 2.116 469.5 455.509-294.006" transform="matrix(.09967 0 0 -.09967 .29 228.502)"/><path style="stroke:none;fill-rule:nonzero;fill:#784586;fill-opacity:1" d="M162.012 107.605 134.918 80.43l45.613-17.493"/><path style="fill:none;stroke-width:5;stroke-linecap:round;stroke-linejoin:round;stroke:#000;stroke-opacity:1;stroke-miterlimit:10" d="m1622.503 1212.925-271.824 272.647" transform="matrix(.09967 0 0 -.09967 .29 228.502)"/><path style="fill-rule:nonzero;fill:#9ca5db;fill-opacity:1;stroke-width:5;stroke-linecap:round;stroke-linejoin:round;stroke:#000;stroke-opacity:1;stroke-miterlimit:10" d="m1330.025 315.428 292.517 263.516-131.327 264.142" transform="matrix(.09967 0 0 -.09967 .29 228.502)"/><path style="fill-rule:nonzero;fill:#6562ba;fill-opacity:1;stroke-width:5;stroke-linecap:round;stroke-linejoin:round;stroke:#000;stroke-opacity:1;stroke-miterlimit:10" d="m1491.215 843.086 131.327-264.142 382.928 229.459" transform="matrix(.09967 0 0 -.09967 .29 228.502)"/><path style="stroke:none;fill-rule:nonzero;fill:#6562ba;fill-opacity:1" d="m162.012 107.605-13.086 36.864 51.258 3.457"/><path style="fill:none;stroke-width:5;stroke-linecap:round;stroke-linejoin:round;stroke:#000;stroke-opacity:1;stroke-miterlimit:10" d="m1622.503 1212.925-131.288-369.839" transform="matrix(.09967 0 0 -.09967 .29 228.502)"/><path style="fill-rule:nonzero;fill:#de8c71;fill-opacity:1;stroke-width:5;stroke-linecap:round;stroke-linejoin:round;stroke:#000;stroke-opacity:1;stroke-miterlimit:10" d="m396.199 1304.003 298.708 232.516 85.827 321.165" transform="matrix(.09967 0 0 -.09967 .29 228.502)"/><path style="fill-rule:nonzero;fill:#b2728b;fill-opacity:1;stroke-width:5;stroke-linecap:round;stroke-linejoin:round;stroke:#000;stroke-opacity:1;stroke-miterlimit:10" d="m1352.795 1955.072-572.06-97.388-85.828-321.165" transform="matrix(.09967 0 0 -.09967 .29 228.502)"/><path style="fill-rule:nonzero;fill:#6562ba;fill-opacity:1;stroke-width:5;stroke-linecap:round;stroke-linejoin:round;stroke:#000;stroke-opacity:1;stroke-miterlimit:10" d="m2005.47 808.403-127.604 483.02-255.363-78.498" transform="matrix(.09967 0 0 -.09967 .29 228.502)"/><path style="fill-rule:nonzero;fill:#784586;fill-opacity:1;stroke-width:5;stroke-linecap:round;stroke-linejoin:round;stroke:#000;stroke-opacity:1;stroke-miterlimit:10" d="m1808.304 1661.066 69.562-369.643-255.363-78.498" transform="matrix(.09967 0 0 -.09967 .29 228.502)"/><path style="stroke:none;fill-rule:nonzero;fill:#f6d2a6;fill-opacity:1" d="m46.984 137.418-12.25 25.012-22.98-80.446"/><path style="fill:none;stroke-width:5;stroke-linecap:round;stroke-linejoin:round;stroke:#000;stroke-opacity:1;stroke-miterlimit:10" d="m468.466 913.825-122.9-250.936" transform="matrix(.09967 0 0 -.09967 .29 228.502)"/><path style="fill-rule:nonzero;fill:#f6d2a6;fill-opacity:1;stroke-width:5;stroke-linecap:round;stroke-linejoin:round;stroke:#000;stroke-opacity:1;stroke-miterlimit:10" d="m115.009 1469.974 281.19-165.97 72.267-390.18" transform="matrix(.09967 0 0 -.09967 .29 228.502)"/><path style="stroke:none;fill-rule:nonzero;fill:#de8c71;fill-opacity:1" d="M11.754 81.984 39.78 98.527 78.11 43.34"/><path style="fill:none;stroke-width:5;stroke-linecap:round;stroke-linejoin:round;stroke:#000;stroke-opacity:1;stroke-miterlimit:10" d="m115.009 1469.974 281.19-165.97" transform="matrix(.09967 0 0 -.09967 .29 228.502)"/><path style="fill-rule:nonzero;fill:#73d6fb;fill-opacity:1;stroke-width:5;stroke-linecap:round;stroke-linejoin:round;stroke:#000;stroke-opacity:1;stroke-miterlimit:10" d="m963.479 382.247-339.937-23.083 98.916-137.48" transform="matrix(.09967 0 0 -.09967 .29 228.502)"/><path style="stroke:none;fill-rule:nonzero;fill:#73d6fb;fill-opacity:1" d="m132.86 197.063-36.536-6.66-24.023 16.003"/><path style="fill:none;stroke-width:5;stroke-linecap:round;stroke-linejoin:round;stroke:#000;stroke-opacity:1;stroke-miterlimit:10" d="m1330.025 315.428-366.546 66.82" transform="matrix(.09967 0 0 -.09967 .29 228.502)"/><path style="fill-rule:nonzero;fill:#de8c71;fill-opacity:1;stroke-width:5;stroke-linecap:round;stroke-linejoin:round;stroke:#000;stroke-opacity:1;stroke-miterlimit:10" d="m780.734 1857.684-240.04 52.75-425.685-440.46" transform="matrix(.09967 0 0 -.09967 .29 228.502)"/><path style="fill-rule:nonzero;fill:#800;fill-opacity:1;stroke-width:5;stroke-linecap:round;stroke-linejoin:round;stroke:#000;stroke-opacity:1;stroke-miterlimit:10" d="m780.734 1857.684 572.06 97.388-149.079 125.526" transform="matrix(.09967 0 0 -.09967 .29 228.502)"/><path style="stroke:none;fill-rule:nonzero;fill:#800;fill-opacity:1" d="m54.184 38.082 23.925 5.258 42.16-22.219"/><path style="fill:none;stroke-width:5;stroke-linecap:round;stroke-linejoin:round;stroke:#000;stroke-opacity:1;stroke-miterlimit:10" d="m540.694 1910.434 240.04-52.75" transform="matrix(.09967 0 0 -.09967 .29 228.502)"/><path style="fill-rule:nonzero;fill:#0056cf;fill-opacity:1;stroke-width:5;stroke-linecap:round;stroke-linejoin:round;stroke:#000;stroke-opacity:1;stroke-miterlimit:10" d="m1622.542 578.944 382.928 229.459-357.298-364.627" transform="matrix(.09967 0 0 -.09967 .29 228.502)"/><path style="stroke:none;fill-rule:nonzero;fill:#0056cf;fill-opacity:1" d="m132.86 197.063 29.156-26.266 2.554 13.473"/><path style="fill:none;stroke-width:5;stroke-linecap:round;stroke-linejoin:round;stroke:#000;stroke-opacity:1;stroke-miterlimit:10" d="m1330.025 315.428 292.517 263.516" transform="matrix(.09967 0 0 -.09967 .29 228.502)"/><path style="stroke:none;fill-rule:nonzero;fill:#000;fill-opacity:1" d="m135.129 33.633 45.402 29.304-31.547-24.003"/><path style="fill:none;stroke-width:5;stroke-linecap:round;stroke-linejoin:round;stroke:#000;stroke-opacity:1;stroke-miterlimit:10" d="m1352.795 1955.072 455.509-294.006" transform="matrix(.09967 0 0 -.09967 .29 228.502)"/><path style="fill-rule:nonzero;fill:#000;fill-opacity:1;stroke-width:5;stroke-linecap:round;stroke-linejoin:round;stroke:#000;stroke-opacity:1;stroke-miterlimit:10" d="m1491.803 1901.89-288.088 178.708 149.08-125.526M1877.866 1291.423l127.604-483.02-68.465 439.01" transform="matrix(.09967 0 0 -.09967 .29 228.502)"/><path style="stroke:none;fill-rule:nonzero;fill:#000;fill-opacity:1" d="m180.531 62.938 6.934 36.843 5.894 4.387"/><path style="fill:none;stroke-width:5;stroke-linecap:round;stroke-linejoin:round;stroke:#000;stroke-opacity:1;stroke-miterlimit:10" d="m1808.304 1661.066 69.562-369.643" transform="matrix(.09967 0 0 -.09967 .29 228.502)"/><path style="fill-rule:nonzero;fill:#98e08e;fill-opacity:1;stroke-width:5;stroke-linecap:round;stroke-linejoin:round;stroke:#000;stroke-opacity:1;stroke-miterlimit:10" d="M623.542 359.164 345.565 662.89 151.181 855.627" transform="matrix(.09967 0 0 -.09967 .29 228.502)"/><path style="fill-rule:nonzero;fill:#f6d2a6;fill-opacity:1;stroke-width:5;stroke-linecap:round;stroke-linejoin:round;stroke:#000;stroke-opacity:1;stroke-miterlimit:10" d="M345.565 662.89 151.181 855.626l-36.172 614.347" transform="matrix(.09967 0 0 -.09967 .29 228.502)"/><path style="fill-rule:nonzero;fill:#73d6fb;fill-opacity:1;stroke-width:5;stroke-linecap:round;stroke-linejoin:round;stroke:#000;stroke-opacity:1;stroke-miterlimit:10" d="m722.458 221.685 601.258 4.938 6.31 88.805" transform="matrix(.09967 0 0 -.09967 .29 228.502)"/><path style="fill-rule:nonzero;fill:#0056cf;fill-opacity:1;stroke-width:5;stroke-linecap:round;stroke-linejoin:round;stroke:#000;stroke-opacity:1;stroke-miterlimit:10" d="m1648.172 443.776-324.456-217.153 6.31 88.805" transform="matrix(.09967 0 0 -.09967 .29 228.502)"/><path style="stroke:none;fill-rule:nonzero;fill:#98e08e;fill-opacity:1" d="m72.3 206.406-9.859-13.703L15.36 143.22"/><path style="fill:none;stroke-width:5;stroke-linecap:round;stroke-linejoin:round;stroke:#000;stroke-opacity:1;stroke-miterlimit:10" d="m722.458 221.685-98.916 137.48" transform="matrix(.09967 0 0 -.09967 .29 228.502)"/><path style="fill-rule:nonzero;fill:#000;fill-opacity:1;stroke-width:5;stroke-linecap:round;stroke-linejoin:round;stroke:#000;stroke-opacity:1;stroke-miterlimit:10" d="m1937.005 1247.412-102.13 415.849-26.571-2.195M1808.304 1661.066l26.57 2.195-343.071 238.63" transform="matrix(.09967 0 0 -.09967 .29 228.502)"/><path style="fill-rule:nonzero;fill:#800;fill-opacity:1;stroke-width:5;stroke-linecap:round;stroke-linejoin:round;stroke:#000;stroke-opacity:1;stroke-miterlimit:10" d="M1203.715 2080.598 759.767 2036l-219.073-125.566" transform="matrix(.09967 0 0 -.09967 .29 228.502)"/><path style="fill-rule:nonzero;fill:#004ccb;fill-opacity:1;stroke-width:5;stroke-linecap:round;stroke-linejoin:round;stroke:#000;stroke-opacity:1;stroke-miterlimit:10" d="m115.009 1469.974 425.685 440.46L759.767 2036" transform="matrix(.09967 0 0 -.09967 .29 228.502)"/><path style="fill-rule:nonzero;fill:#98e08e;fill-opacity:1;stroke-width:5;stroke-linecap:round;stroke-linejoin:round;stroke:#000;stroke-opacity:1;stroke-miterlimit:10" d="m151.181 855.627 121.333-151.274 449.944-482.668" transform="matrix(.09967 0 0 -.09967 .29 228.502)"/><path style="fill-rule:nonzero;fill:#00007a;fill-opacity:1;stroke-width:5;stroke-linecap:round;stroke-linejoin:round;stroke:#000;stroke-opacity:1;stroke-miterlimit:10" d="M272.514 704.353 151.181 855.627l-36.172 614.347" transform="matrix(.09967 0 0 -.09967 .29 228.502)"/><path style="stroke:none;fill-rule:nonzero;fill:#00007a;fill-opacity:1" d="m35.77 123.773-8.317 34.524-15.7-76.313"/><path style="fill:none;stroke-width:5;stroke-linecap:round;stroke-linejoin:round;stroke:#000;stroke-opacity:1;stroke-miterlimit:10" d="m355.95 1050.716-83.436-346.363" transform="matrix(.09967 0 0 -.09967 .29 228.502)"/><path style="fill-rule:nonzero;fill:#00007a;fill-opacity:1;stroke-width:5;stroke-linecap:round;stroke-linejoin:round;stroke:#000;stroke-opacity:1;stroke-miterlimit:10" d="m115.009 1469.974 175.69 18.655 65.252-437.913" transform="matrix(.09967 0 0 -.09967 .29 228.502)"/><path style="stroke:none;fill-rule:nonzero;fill:#004ccb;fill-opacity:1" d="m29.266 80.125-17.512 1.86L76.02 25.565"/><path style="fill:none;stroke-width:5;stroke-linecap:round;stroke-linejoin:round;stroke:#000;stroke-opacity:1;stroke-miterlimit:10" d="m290.699 1488.629-175.69-18.655" transform="matrix(.09967 0 0 -.09967 .29 228.502)"/><path style="stroke:none;fill-rule:nonzero;fill:#f0a778;fill-opacity:1" d="M200.184 147.926 164.57 184.27l2.45-66.18"/><path style="fill:none;stroke-width:5;stroke-linecap:round;stroke-linejoin:round;stroke:#000;stroke-opacity:1;stroke-miterlimit:10" d="m2005.47 808.403-357.298-364.627" transform="matrix(.09967 0 0 -.09967 .29 228.502)"/><path style="fill-rule:nonzero;fill:#f0a778;fill-opacity:1;stroke-width:5;stroke-linecap:round;stroke-linejoin:round;stroke:#000;stroke-opacity:1;stroke-miterlimit:10" d="m1672.744 1107.738 264.26 139.674 68.466-439.01" transform="matrix(.09967 0 0 -.09967 .29 228.502)"/><path style="fill-rule:nonzero;fill:#b34f4d;fill-opacity:1;stroke-width:5;stroke-linecap:round;stroke-linejoin:round;stroke:#000;stroke-opacity:1;stroke-miterlimit:10" d="m1323.716 226.623-601.258-4.938 304.862 357.533" transform="matrix(.09967 0 0 -.09967 .29 228.502)"/><path style="stroke:none;fill-rule:nonzero;fill:#b34f4d;fill-opacity:1" d="m164.57 184.27-32.34 21.644-29.542-35.144"/><path style="fill:none;stroke-width:5;stroke-linecap:round;stroke-linejoin:round;stroke:#000;stroke-opacity:1;stroke-miterlimit:10" d="m1648.172 443.776-324.456-217.153" transform="matrix(.09967 0 0 -.09967 .29 228.502)"/><path style="fill-rule:nonzero;fill:#a0c7f3;fill-opacity:1;stroke-width:5;stroke-linecap:round;stroke-linejoin:round;stroke:#000;stroke-opacity:1;stroke-miterlimit:10" d="m1491.803 1901.89-288.088 178.708L759.767 2036" transform="matrix(.09967 0 0 -.09967 .29 228.502)"/><path style="fill-rule:nonzero;fill:#004ccb;fill-opacity:1;stroke-width:5;stroke-linecap:round;stroke-linejoin:round;stroke:#000;stroke-opacity:1;stroke-miterlimit:10" d="M759.767 2036 634.83 1811.204l-344.13-322.575" transform="matrix(.09967 0 0 -.09967 .29 228.502)"/><path style="stroke:none;fill-rule:nonzero;fill:#a0c7f3;fill-opacity:1" d="M76.02 25.566 63.566 47.973l85.418-9.04"/><path style="fill:none;stroke-width:5;stroke-linecap:round;stroke-linejoin:round;stroke:#000;stroke-opacity:1;stroke-miterlimit:10" d="M759.767 2036 634.83 1811.204" transform="matrix(.09967 0 0 -.09967 .29 228.502)"/><path style="fill-rule:nonzero;fill:#dfd2cb;fill-opacity:1;stroke-width:5;stroke-linecap:round;stroke-linejoin:round;stroke:#000;stroke-opacity:1;stroke-miterlimit:10" d="m1491.803 1901.89 343.072-238.63 102.13-415.848" transform="matrix(.09967 0 0 -.09967 .29 228.502)"/><path style="fill-rule:nonzero;fill:#b34f4d;fill-opacity:1;stroke-width:5;stroke-linecap:round;stroke-linejoin:round;stroke:#000;stroke-opacity:1;stroke-miterlimit:10" d="m1027.32 579.218 480.864 66.702 139.988-202.144" transform="matrix(.09967 0 0 -.09967 .29 228.502)"/><path style="fill-rule:nonzero;fill:#f0a778;fill-opacity:1;stroke-width:5;stroke-linecap:round;stroke-linejoin:round;stroke:#000;stroke-opacity:1;stroke-miterlimit:10" d="M1648.172 443.776 1508.184 645.92l164.56 461.818" transform="matrix(.09967 0 0 -.09967 .29 228.502)"/><path style="fill-rule:nonzero;fill:#874f85;fill-opacity:1;stroke-width:5;stroke-linecap:round;stroke-linejoin:round;stroke:#000;stroke-opacity:1;stroke-miterlimit:10" d="M722.458 221.685 272.514 704.353l83.437 346.363" transform="matrix(.09967 0 0 -.09967 .29 228.502)"/><path style="stroke:none;fill-rule:nonzero;fill:#874f85;fill-opacity:1" d="M102.688 170.77 72.3 206.406 35.77 123.773"/><path style="fill:none;stroke-width:5;stroke-linecap:round;stroke-linejoin:round;stroke:#000;stroke-opacity:1;stroke-miterlimit:10" d="M1027.32 579.218 722.458 221.685" transform="matrix(.09967 0 0 -.09967 .29 228.502)"/><path style="stroke:none;fill-rule:nonzero;fill:#dfd2cb;fill-opacity:1" d="m193.36 104.168-26.34 13.922-18.036-79.156"/><path style="fill:none;stroke-width:5;stroke-linecap:round;stroke-linejoin:round;stroke:#000;stroke-opacity:1;stroke-miterlimit:10" d="m1937.005 1247.412-264.26-139.674" transform="matrix(.09967 0 0 -.09967 .29 228.502)"/><path style="fill-rule:nonzero;fill:#dfd2cb;fill-opacity:1;stroke-width:5;stroke-linecap:round;stroke-linejoin:round;stroke:#000;stroke-opacity:1;stroke-miterlimit:10" d="m1672.744 1107.738-491.132 480.434 310.19 313.718" transform="matrix(.09967 0 0 -.09967 .29 228.502)"/><path style="fill-rule:nonzero;fill:#a0c7f3;fill-opacity:1;stroke-width:5;stroke-linecap:round;stroke-linejoin:round;stroke:#000;stroke-opacity:1;stroke-miterlimit:10" d="m634.829 1811.204 546.783-223.032 310.19 313.718" transform="matrix(.09967 0 0 -.09967 .29 228.502)"/><path style="fill-rule:nonzero;fill:#9287c3;fill-opacity:1;stroke-width:5;stroke-linecap:round;stroke-linejoin:round;stroke:#000;stroke-opacity:1;stroke-miterlimit:10" d="m634.829 1811.204-344.13-322.575 65.252-437.913M776.54 993.773l405.072 594.399-546.783 223.032" transform="matrix(.09967 0 0 -.09967 .29 228.502)"/><path style="stroke:none;fill-rule:nonzero;fill:#9287c3;fill-opacity:1" d="m35.77 123.773 41.921 5.676-14.125-81.476"/><path style="fill:none;stroke-width:5;stroke-linecap:round;stroke-linejoin:round;stroke:#000;stroke-opacity:1;stroke-miterlimit:10" d="m355.95 1050.716 420.59-56.943" transform="matrix(.09967 0 0 -.09967 .29 228.502)"/><path style="fill-rule:nonzero;fill:#874f85;fill-opacity:1;stroke-width:5;stroke-linecap:round;stroke-linejoin:round;stroke:#000;stroke-opacity:1;stroke-miterlimit:10" d="m355.95 1050.716 420.59-56.943 250.78-414.555" transform="matrix(.09967 0 0 -.09967 .29 228.502)"/><path style="stroke:none;fill-rule:nonzero;fill:#c094a9;fill-opacity:1" d="m150.617 164.121-47.93 6.649 15.38-100.567"/><path style="fill:none;stroke-width:5;stroke-linecap:round;stroke-linejoin:round;stroke:#000;stroke-opacity:1;stroke-miterlimit:10" d="m1508.184 645.92-480.864-66.702" transform="matrix(.09967 0 0 -.09967 .29 228.502)"/><path style="fill-rule:nonzero;fill:#c094a9;fill-opacity:1;stroke-width:5;stroke-linecap:round;stroke-linejoin:round;stroke:#000;stroke-opacity:1;stroke-miterlimit:10" d="m1181.612 1588.172 491.132-480.434-164.56-461.818M1027.32 579.218 776.54 993.773l405.072 594.399" transform="matrix(.09967 0 0 -.09967 .29 228.502)"/></svg>