<svg xmlns="http://www.w3.org/2000/svg" width="215.693" height="200.507" viewBox="0 0 161.77 150.38" version="1.2"><defs><clipPath id="a"><path d="M.219 42H25v96H.219Zm0 0"/></clipPath><clipPath id="b"><path d="M.219 0H52v80H.219Zm0 0"/></clipPath><clipPath id="c"><path d="M.219 0H67v88H.219Zm0 0"/></clipPath><clipPath id="d"><path d="M.219 0H68v88H.219Zm0 0"/></clipPath><clipPath id="e"><path d="M139 8h22.324v87H139Zm0 0"/></clipPath><clipPath id="f"><path d="M139 8h22.324v88H139Zm0 0"/></clipPath><clipPath id="g"><path d="M24 94h135v55.762H24Zm0 0"/></clipPath><clipPath id="h"><path d="M23 94h136v55.762H23Zm0 0"/></clipPath><clipPath id="i"><path d="M120 59h41.324v90.762H120Zm0 0"/></clipPath><clipPath id="j"><path d="M66 8h95.324v80H66Zm0 0"/></clipPath><clipPath id="k"><path d="M24 87h97v62.762H24Zm0 0"/></clipPath><clipPath id="l"><path d="M23 86h98v63.762H23Zm0 0"/></clipPath><clipPath id="m"><path d="M.219 42H67v96H.219Zm0 0"/></clipPath><clipPath id="n"><path d="M.219 42H68v96H.219Zm0 0"/></clipPath><clipPath id="o"><path d="M66 59h95.324v90.762H66Zm0 0"/></clipPath></defs><path style="fill-rule:nonzero;fill:#c88499;fill-opacity:1;stroke-width:5;stroke-linecap:round;stroke-linejoin:round;stroke:#231f20;stroke-opacity:1;stroke-miterlimit:10" d="M515.92 1501.25 200.325 708.856l765.095 211.611Zm0 0" transform="matrix(.09959 0 0 -.09959 .218 149.763)"/><path style="fill-rule:nonzero;fill:#794ba2;fill-opacity:1;stroke-width:5;stroke-linecap:round;stroke-linejoin:round;stroke:#231f20;stroke-opacity:1;stroke-miterlimit:10" d="M1397.43 1420.842 965.42 920.467l622.713-368.662Zm0 0" transform="matrix(.09959 0 0 -.09959 .218 149.763)"/><path style="fill-rule:nonzero;fill:#9f4b7f;fill-opacity:1;stroke-width:5;stroke-linecap:round;stroke-linejoin:round;stroke:#231f20;stroke-opacity:1;stroke-miterlimit:10" d="m1397.43 1420.842-881.51 80.408L965.42 920.467Zm0 0" transform="matrix(.09959 0 0 -.09959 .218 149.763)"/><path style="fill-rule:nonzero;fill:#afbbe4;fill-opacity:1;stroke-width:5;stroke-linecap:round;stroke-linejoin:round;stroke:#231f20;stroke-opacity:1;stroke-miterlimit:10" d="M1588.134 551.805 965.421 920.467l-765.095-211.61" transform="matrix(.09959 0 0 -.09959 .218 149.763)"/><g clip-path="url(#a)"><path style="fill-rule:nonzero;fill:#e5e251;fill-opacity:1;stroke-width:5;stroke-linecap:round;stroke-linejoin:round;stroke:#231f20;stroke-opacity:1;stroke-miterlimit:10" d="M2.483 1072.576 240.453 126.7l-40.127 582.156Zm0 0" transform="matrix(.09959 0 0 -.09959 .218 149.763)"/></g><g clip-path="url(#b)"><path style="fill-rule:nonzero;fill:#f19150;fill-opacity:1;stroke-width:5;stroke-linecap:round;stroke-linejoin:round;stroke:#231f20;stroke-opacity:1;stroke-miterlimit:10" d="M515.92 1501.25 2.482 1072.576l197.843-363.72Zm0 0" transform="matrix(.09959 0 0 -.09959 .218 149.763)"/></g><path style="stroke:none;fill-rule:nonzero;fill:#afbbe4;fill-opacity:1" d="m20.168 79.168 3.996 57.977L158.38 94.809"/><path style="fill:none;stroke-width:5;stroke-linecap:round;stroke-linejoin:round;stroke:#231f20;stroke-opacity:1;stroke-miterlimit:10" d="M200.326 708.856 240.452 126.7" transform="matrix(.09959 0 0 -.09959 .218 149.763)"/><path style="stroke:none;fill-rule:nonzero;fill:#abc3e9;fill-opacity:1" d="m51.598.254 87.789 8.008L66.89 87.027"/><path style="fill:none;stroke-width:5;stroke-linecap:round;stroke-linejoin:round;stroke:#231f20;stroke-opacity:1;stroke-miterlimit:10" d="m515.92 1501.25 881.51-80.408" transform="matrix(.09959 0 0 -.09959 .218 149.763)"/><g clip-path="url(#c)"><path style="stroke:none;fill-rule:nonzero;fill:#abc3e9;fill-opacity:1" d="M66.89 87.027.466 42.945 51.598.254"/></g><g clip-path="url(#d)"><path style="fill:none;stroke-width:5;stroke-linecap:round;stroke-linejoin:round;stroke:#231f20;stroke-opacity:1;stroke-miterlimit:10" d="M669.48 629.939 2.482 1072.576l513.436 428.674" transform="matrix(.09959 0 0 -.09959 .218 149.763)"/></g><g clip-path="url(#e)"><path style="stroke:none;fill-rule:nonzero;fill:#14141a;fill-opacity:1" d="M161.078 59.648 139.387 8.262l18.992 86.547Zm0 0"/></g><g clip-path="url(#f)"><path style="fill:none;stroke-width:5;stroke-linecap:round;stroke-linejoin:round;stroke:#231f20;stroke-opacity:1;stroke-miterlimit:10" d="m1615.238 904.856-217.809 515.986 190.705-869.037Zm0 0" transform="matrix(.09959 0 0 -.09959 .218 149.763)"/></g><g clip-path="url(#g)"><path style="stroke:none;fill-rule:nonzero;fill:#afbbe4;fill-opacity:1" d="m24.164 137.145 96.191 12.367 38.024-54.703"/></g><g clip-path="url(#h)"><path style="fill:none;stroke-width:5;stroke-linecap:round;stroke-linejoin:round;stroke:#231f20;stroke-opacity:1;stroke-miterlimit:10" d="M240.452 126.7 1206.332 2.52l381.802 549.286" transform="matrix(.09959 0 0 -.09959 .218 149.763)"/></g><g clip-path="url(#i)"><path style="fill-rule:nonzero;fill:#e0711a;fill-opacity:1;stroke-width:5;stroke-linecap:round;stroke-linejoin:round;stroke:#231f20;stroke-opacity:1;stroke-miterlimit:10" d="m1615.238 904.856-27.104-353.05L1206.332 2.518Zm0 0" transform="matrix(.09959 0 0 -.09959 .218 149.763)"/></g><g clip-path="url(#j)"><path style="fill-rule:nonzero;fill:#abc3e9;fill-opacity:1;stroke-width:5;stroke-linecap:round;stroke-linejoin:round;stroke:#231f20;stroke-opacity:1;stroke-miterlimit:10" d="m1397.43 1420.842 217.808-515.986L669.479 629.94" transform="matrix(.09959 0 0 -.09959 .218 149.763)"/></g><g clip-path="url(#k)"><path style="stroke:none;fill-rule:nonzero;fill:#943562;fill-opacity:1" d="m66.89 87.027 53.465 62.485-96.19-12.367Zm0 0"/></g><g clip-path="url(#l)"><path style="fill:none;stroke-width:5;stroke-linecap:round;stroke-linejoin:round;stroke:#231f20;stroke-opacity:1;stroke-miterlimit:10" d="m669.48 629.939 536.852-627.42L240.452 126.7Zm0 0" transform="matrix(.09959 0 0 -.09959 .218 149.763)"/></g><g clip-path="url(#m)"><path style="stroke:none;fill-rule:nonzero;fill:#5c3593;fill-opacity:1" d="M.465 42.945 66.89 87.027l-42.727 50.118Zm0 0"/></g><g clip-path="url(#n)"><path style="fill:none;stroke-width:5;stroke-linecap:round;stroke-linejoin:round;stroke:#231f20;stroke-opacity:1;stroke-miterlimit:10" d="M2.483 1072.576 669.479 629.94 240.452 126.7Zm0 0" transform="matrix(.09959 0 0 -.09959 .218 149.763)"/></g><g clip-path="url(#o)"><path style="fill-rule:nonzero;fill:#cd838e;fill-opacity:1;stroke-width:5;stroke-linecap:round;stroke-linejoin:round;stroke:#231f20;stroke-opacity:1;stroke-miterlimit:10" d="m669.48 629.939 945.758 274.917L1206.332 2.52Zm0 0" transform="matrix(.09959 0 0 -.09959 .218 149.763)"/></g></svg>