<svg xmlns="http://www.w3.org/2000/svg" width="272" height="200pt" viewBox="0 0 204 200" version="1.2"><path style="fill-rule:nonzero;fill:#b4aace;fill-opacity:1;stroke-width:6.04374;stroke-linecap:round;stroke-linejoin:round;stroke:#000;stroke-opacity:1;stroke-miterlimit:10" d="m652.266 484.766 91.914 319.336 366.172 21.406" transform="matrix(.1 0 0 -.1 0 200)"/><path style="stroke:none;fill-rule:nonzero;fill:#b4aace;fill-opacity:1" d="m97.73 169.742-32.503-18.219 45.808-34.074"/><path style="fill:none;stroke-width:6.04374;stroke-linecap:round;stroke-linejoin:round;stroke:#000;stroke-opacity:1;stroke-miterlimit:10" d="m977.305 302.578-325.04 182.188" transform="matrix(.1 0 0 -.1 0 200)"/><path style="fill-rule:nonzero;fill:#b4aace;fill-opacity:1;stroke-width:6.04374;stroke-linecap:round;stroke-linejoin:round;stroke:#000;stroke-opacity:1;stroke-miterlimit:10" d="m1110.352 825.508 150.859-302.93-283.906-220" transform="matrix(.1 0 0 -.1 0 200)"/><path style="fill-rule:nonzero;fill:#9a89c1;fill-opacity:1;stroke-width:6.04374;stroke-linecap:round;stroke-linejoin:round;stroke:#000;stroke-opacity:1;stroke-miterlimit:10" d="m1261.21 522.578-150.858 302.93 299.96 199.765" transform="matrix(.1 0 0 -.1 0 200)"/><path style="fill-rule:nonzero;fill:#b896b4;fill-opacity:1;stroke-width:6.04374;stroke-linecap:round;stroke-linejoin:round;stroke:#000;stroke-opacity:1;stroke-miterlimit:10" d="m1089.96 1191.875 20.392-366.367-366.172-21.406" transform="matrix(.1 0 0 -.1 0 200)"/><path style="stroke:none;fill-rule:nonzero;fill:#a686b3;fill-opacity:1" d="m108.996 80.813 32.035 16.66-29.996 19.976"/><path style="fill:none;stroke-width:6.04374;stroke-linecap:round;stroke-linejoin:round;stroke:#000;stroke-opacity:1;stroke-miterlimit:10" d="m1089.96 1191.875 320.352-166.602-299.96-199.765Zm0 0" transform="matrix(.1 0 0 -.1 0 200)"/><path style="fill-rule:nonzero;fill:#b896b4;fill-opacity:1;stroke-width:6.04374;stroke-linecap:round;stroke-linejoin:round;stroke:#000;stroke-opacity:1;stroke-miterlimit:10" d="m744.18 804.102-20.664 367.93 366.445 19.843" transform="matrix(.1 0 0 -.1 0 200)"/><path style="fill-rule:nonzero;fill:#9b70a0;fill-opacity:1;stroke-width:6.04374;stroke-linecap:round;stroke-linejoin:round;stroke:#000;stroke-opacity:1;stroke-miterlimit:10" d="m1410.313 1025.273-320.352 166.602 116.601 315.82" transform="matrix(.1 0 0 -.1 0 200)"/><path style="stroke:none;fill-rule:nonzero;fill:#b77e95;fill-opacity:1" d="m108.996 80.813-36.644 1.984 17.62-52.125"/><path style="fill:none;stroke-width:6.04374;stroke-linecap:round;stroke-linejoin:round;stroke:#000;stroke-opacity:1;stroke-miterlimit:10" d="m1089.96 1191.875-366.444-19.844" transform="matrix(.1 0 0 -.1 0 200)"/><path style="fill-rule:nonzero;fill:#b77e95;fill-opacity:1;stroke-width:6.04374;stroke-linecap:round;stroke-linejoin:round;stroke:#000;stroke-opacity:1;stroke-miterlimit:10" d="m899.727 1693.281 306.836-185.586-116.602-315.82" transform="matrix(.1 0 0 -.1 0 200)"/><path style="fill-rule:nonzero;fill:#d0b9c4;fill-opacity:1;stroke-width:6.04374;stroke-linecap:round;stroke-linejoin:round;stroke:#000;stroke-opacity:1;stroke-miterlimit:10" d="m434.648 970.352 309.532-166.25-91.914-319.336" transform="matrix(.1 0 0 -.1 0 200)"/><path style="stroke:none;fill-rule:nonzero;fill:#c9a4b4;fill-opacity:1" d="m72.352 82.797 2.066 36.793-30.953-16.625"/><path style="fill:none;stroke-width:6.04374;stroke-linecap:round;stroke-linejoin:round;stroke:#000;stroke-opacity:1;stroke-miterlimit:10" d="m723.516 1172.031 20.664-367.93-309.532 166.25Zm0 0" transform="matrix(.1 0 0 -.1 0 200)"/><path style="fill-rule:nonzero;fill:#d29ea0;fill-opacity:1;stroke-width:6.04374;stroke-linecap:round;stroke-linejoin:round;stroke:#000;stroke-opacity:1;stroke-miterlimit:10" d="m596.523 1476.836 126.993-304.805-288.868-201.68" transform="matrix(.1 0 0 -.1 0 200)"/><path style="fill-rule:nonzero;fill:#b77e95;fill-opacity:1;stroke-width:6.04374;stroke-linecap:round;stroke-linejoin:round;stroke:#000;stroke-opacity:1;stroke-miterlimit:10" d="m723.516 1172.031-126.993 304.805 303.204 216.445" transform="matrix(.1 0 0 -.1 0 200)"/><path style="fill-rule:nonzero;fill:#9a89c1;fill-opacity:1;stroke-width:6.04374;stroke-linecap:round;stroke-linejoin:round;stroke:#000;stroke-opacity:1;stroke-miterlimit:10" d="m1410.313 1025.273 161.171-301.914-310.273-200.78" transform="matrix(.1 0 0 -.1 0 200)"/><path style="fill-rule:nonzero;fill:#9b70a0;fill-opacity:1;stroke-width:6.04374;stroke-linecap:round;stroke-linejoin:round;stroke:#000;stroke-opacity:1;stroke-miterlimit:10" d="m1206.563 1507.695 330.898-166.797-127.149-315.625" transform="matrix(.1 0 0 -.1 0 200)"/><path style="fill-rule:nonzero;fill:#725ba7;fill-opacity:1;stroke-width:6.04374;stroke-linecap:round;stroke-linejoin:round;stroke:#000;stroke-opacity:1;stroke-miterlimit:10" d="m1410.313 1025.273 127.148 315.625 256.914-97.421" transform="matrix(.1 0 0 -.1 0 200)"/><path style="stroke:none;fill-rule:nonzero;fill:#725ba7;fill-opacity:1" d="m157.148 127.664-16.117-30.191 38.406-21.82"/><path style="fill:none;stroke-width:6.04374;stroke-linecap:round;stroke-linejoin:round;stroke:#000;stroke-opacity:1;stroke-miterlimit:10" d="m1571.484 723.36-161.171 301.913" transform="matrix(.1 0 0 -.1 0 200)"/><path style="fill-rule:nonzero;fill:#d0b9c4;fill-opacity:1;stroke-width:6.04374;stroke-linecap:round;stroke-linejoin:round;stroke:#000;stroke-opacity:1;stroke-miterlimit:10" d="M652.266 484.766 331.367 649.023l103.281 321.329" transform="matrix(.1 0 0 -.1 0 200)"/><path style="stroke:none;fill-rule:nonzero;fill:#eec5a8;fill-opacity:1" d="m43.465 102.965-10.328 32.133L8.98 84.859"/><path style="fill:none;stroke-width:6.04374;stroke-linecap:round;stroke-linejoin:round;stroke:#000;stroke-opacity:1;stroke-miterlimit:10" d="m434.648 970.352-103.28-321.329" transform="matrix(.1 0 0 -.1 0 200)"/><path style="fill-rule:nonzero;fill:#eec5a8;fill-opacity:1;stroke-width:6.04374;stroke-linecap:round;stroke-linejoin:round;stroke:#000;stroke-opacity:1;stroke-miterlimit:10" d="m89.805 1151.406 206.093 124.063 138.75-305.117" transform="matrix(.1 0 0 -.1 0 200)"/><path style="fill-rule:nonzero;fill:#d29ea0;fill-opacity:1;stroke-width:6.04374;stroke-linecap:round;stroke-linejoin:round;stroke:#000;stroke-opacity:1;stroke-miterlimit:10" d="m434.648 970.352-138.75 305.117 300.625 201.367" transform="matrix(.1 0 0 -.1 0 200)"/><path style="fill-rule:nonzero;fill:#91a7e4;fill-opacity:1;stroke-width:6.04374;stroke-linecap:round;stroke-linejoin:round;stroke:#000;stroke-opacity:1;stroke-miterlimit:10" d="m977.305 302.578 283.906 220 240.234-133.242" transform="matrix(.1 0 0 -.1 0 200)"/><path style="stroke:none;fill-rule:nonzero;fill:#878cd1;fill-opacity:1" d="m157.148 127.664-7.003 33.402-24.024-13.324"/><path style="fill:none;stroke-width:6.04374;stroke-linecap:round;stroke-linejoin:round;stroke:#000;stroke-opacity:1;stroke-miterlimit:10" d="m1571.484 723.36-70.039-334.024-240.234 133.242Zm0 0" transform="matrix(.1 0 0 -.1 0 200)"/><path style="stroke:none;fill-rule:nonzero;fill:#8a4f83;fill-opacity:1" d="m143.121 33.723 10.625 32.187-33.09-16.68"/><path style="fill:none;stroke-width:6.04374;stroke-linecap:round;stroke-linejoin:round;stroke:#000;stroke-opacity:1;stroke-miterlimit:10" d="m1431.21 1662.773 106.25-321.875-330.898 166.797Zm0 0" transform="matrix(.1 0 0 -.1 0 200)"/><path style="fill-rule:nonzero;fill:#974769;fill-opacity:1;stroke-width:6.04374;stroke-linecap:round;stroke-linejoin:round;stroke:#000;stroke-opacity:1;stroke-miterlimit:10" d="m1206.563 1507.695-306.836 185.586 215.312 167.383" transform="matrix(.1 0 0 -.1 0 200)"/><path style="fill-rule:nonzero;fill:#974769;fill-opacity:1;stroke-width:6.04374;stroke-linecap:round;stroke-linejoin:round;stroke:#000;stroke-opacity:1;stroke-miterlimit:10" d="m1115.04 1860.664 316.17-197.89-224.648-155.079" transform="matrix(.1 0 0 -.1 0 200)"/><path style="fill-rule:nonzero;fill:#bed1e8;fill-opacity:1;stroke-width:6.04374;stroke-linecap:round;stroke-linejoin:round;stroke:#000;stroke-opacity:1;stroke-miterlimit:10" d="m469.023 323.477 183.243 161.289 325.039-182.188" transform="matrix(.1 0 0 -.1 0 200)"/><path style="stroke:none;fill-rule:nonzero;fill:#d5d2d6;fill-opacity:1" d="m33.137 135.098 32.09 16.425-18.325 16.13"/><path style="fill:none;stroke-width:6.04374;stroke-linecap:round;stroke-linejoin:round;stroke:#000;stroke-opacity:1;stroke-miterlimit:10" d="m331.367 649.023 320.899-164.257-183.243-161.29Zm0 0" transform="matrix(.1 0 0 -.1 0 200)"/><path style="stroke:none;fill-rule:nonzero;fill:#da9080;fill-opacity:1" d="m39.629 38.777 20.023 13.54L29.59 72.452"/><path style="fill:none;stroke-width:6.04374;stroke-linecap:round;stroke-linejoin:round;stroke:#000;stroke-opacity:1;stroke-miterlimit:10" d="m396.29 1612.227 200.233-135.391-300.625-201.367Zm0 0" transform="matrix(.1 0 0 -.1 0 200)"/><path style="fill-rule:nonzero;fill:#c56c65;fill-opacity:1;stroke-width:6.04374;stroke-linecap:round;stroke-linejoin:round;stroke:#000;stroke-opacity:1;stroke-miterlimit:10" d="m596.523 1476.836-200.234 135.39 315.899 229.727" transform="matrix(.1 0 0 -.1 0 200)"/><path style="fill-rule:nonzero;fill:#c56c65;fill-opacity:1;stroke-width:6.04374;stroke-linecap:round;stroke-linejoin:round;stroke:#000;stroke-opacity:1;stroke-miterlimit:10" d="m712.188 1841.953 187.539-148.672-303.204-216.445" transform="matrix(.1 0 0 -.1 0 200)"/><path style="fill-rule:nonzero;fill:#5467c8;fill-opacity:1;stroke-width:6.04374;stroke-linecap:round;stroke-linejoin:round;stroke:#000;stroke-opacity:1;stroke-miterlimit:10" d="m1501.445 389.336 70.04 334.023 244.765 120.703" transform="matrix(.1 0 0 -.1 0 200)"/><path style="fill-rule:nonzero;fill:#725ba7;fill-opacity:1;stroke-width:6.04374;stroke-linecap:round;stroke-linejoin:round;stroke:#000;stroke-opacity:1;stroke-miterlimit:10" d="m1794.375 1243.477 21.875-399.415-244.766-120.703" transform="matrix(.1 0 0 -.1 0 200)"/><path style="fill-rule:nonzero;fill:#571e6b;fill-opacity:1;stroke-width:6.04374;stroke-linecap:round;stroke-linejoin:round;stroke:#000;stroke-opacity:1;stroke-miterlimit:10" d="m1537.46 1340.898-106.25 321.875 260.313-85.195" transform="matrix(.1 0 0 -.1 0 200)"/><path style="fill-rule:nonzero;fill:#571e6b;fill-opacity:1;stroke-width:6.04374;stroke-linecap:round;stroke-linejoin:round;stroke:#000;stroke-opacity:1;stroke-miterlimit:10" d="m1691.523 1577.578 102.852-334.101-256.914 97.421" transform="matrix(.1 0 0 -.1 0 200)"/><path style="stroke:none;fill-rule:nonzero;fill:#9bc6f5;fill-opacity:1" d="m120.969 184.39-40.156 2.66 16.917-17.308"/><path style="fill:none;stroke-width:6.04374;stroke-linecap:round;stroke-linejoin:round;stroke:#000;stroke-opacity:1;stroke-miterlimit:10" d="m1209.688 156.094-401.563-26.602 169.18 173.086Zm0 0" transform="matrix(.1 0 0 -.1 0 200)"/><path style="fill-rule:nonzero;fill:#bed1e8;fill-opacity:1;stroke-width:6.04374;stroke-linecap:round;stroke-linejoin:round;stroke:#000;stroke-opacity:1;stroke-miterlimit:10" d="m977.305 302.578-169.18-173.086-339.102 193.985" transform="matrix(.1 0 0 -.1 0 200)"/><path style="fill-rule:nonzero;fill:#91a7e4;fill-opacity:1;stroke-width:6.04374;stroke-linecap:round;stroke-linejoin:round;stroke:#000;stroke-opacity:1;stroke-miterlimit:10" d="m1501.445 389.336-291.757-233.242-232.383 146.484" transform="matrix(.1 0 0 -.1 0 200)"/><path style="stroke:none;fill-rule:nonzero;fill:#a43d43;fill-opacity:1" d="M111.504 13.934 89.973 30.672 71.219 15.805"/><path style="fill:none;stroke-width:6.04374;stroke-linecap:round;stroke-linejoin:round;stroke:#000;stroke-opacity:1;stroke-miterlimit:10" d="m1115.04 1860.664-215.313-167.383-187.54 148.672Zm0 0" transform="matrix(.1 0 0 -.1 0 200)"/><path style="fill-rule:nonzero;fill:#eaf0cd;fill-opacity:1;stroke-width:6.04374;stroke-linecap:round;stroke-linejoin:round;stroke:#000;stroke-opacity:1;stroke-miterlimit:10" d="m112.93 744.063 218.437-95.04 137.656-325.546" transform="matrix(.1 0 0 -.1 0 200)"/><path style="fill-rule:nonzero;fill:#eec5a8;fill-opacity:1;stroke-width:6.04374;stroke-linecap:round;stroke-linejoin:round;stroke:#000;stroke-opacity:1;stroke-miterlimit:10" d="m331.367 649.023-218.437 95.04-23.125 407.343" transform="matrix(.1 0 0 -.1 0 200)"/><path style="fill-rule:nonzero;fill:#f09a5c;fill-opacity:1;stroke-width:6.04374;stroke-linecap:round;stroke-linejoin:round;stroke:#000;stroke-opacity:1;stroke-miterlimit:10" d="M295.898 1275.469 89.805 1151.406l99.414 351.016M189.219 1502.422l207.07 109.805-100.39-336.758" transform="matrix(.1 0 0 -.1 0 200)"/><path style="fill-rule:nonzero;fill:#056bdc;fill-opacity:1;stroke-width:6.04374;stroke-linecap:round;stroke-linejoin:round;stroke:#000;stroke-opacity:1;stroke-miterlimit:10" d="m1501.445 389.336 249.297 108.516-139.336-175.625" transform="matrix(.1 0 0 -.1 0 200)"/><path style="stroke:none;fill-rule:nonzero;fill:#056bdc;fill-opacity:1" d="m120.969 184.39 29.176-23.324 10.996 6.711"/><path style="fill:none;stroke-width:6.04374;stroke-linecap:round;stroke-linejoin:round;stroke:#000;stroke-opacity:1;stroke-miterlimit:10" d="m1209.688 156.094 291.757 233.242" transform="matrix(.1 0 0 -.1 0 200)"/><path style="fill-rule:nonzero;fill:#5467c8;fill-opacity:1;stroke-width:6.04374;stroke-linecap:round;stroke-linejoin:round;stroke:#000;stroke-opacity:1;stroke-miterlimit:10" d="m1816.25 844.063-65.508-346.211-249.297-108.516" transform="matrix(.1 0 0 -.1 0 200)"/><path style="fill-rule:nonzero;fill:#0c0000;fill-opacity:1;stroke-width:6.04374;stroke-linecap:round;stroke-linejoin:round;stroke:#000;stroke-opacity:1;stroke-miterlimit:10" d="m1431.21 1662.773-316.17 197.891 41.952 54.375" transform="matrix(.1 0 0 -.1 0 200)"/><path style="stroke:none;fill-rule:nonzero;fill:#0c0000;fill-opacity:1" d="m169.152 42.242-26.03-8.52-27.423-25.226"/><path style="fill:none;stroke-width:6.04374;stroke-linecap:round;stroke-linejoin:round;stroke:#000;stroke-opacity:1;stroke-miterlimit:10" d="m1691.523 1577.578-260.312 85.195" transform="matrix(.1 0 0 -.1 0 200)"/><path style="stroke:none;fill-rule:nonzero;fill:#89eccf;fill-opacity:1" d="m46.902 167.652 33.91 19.399-33.89-11.883"/><path style="fill:none;stroke-width:6.04374;stroke-linecap:round;stroke-linejoin:round;stroke:#000;stroke-opacity:1;stroke-miterlimit:10" d="m469.023 323.477 339.102-193.985" transform="matrix(.1 0 0 -.1 0 200)"/><path style="fill-rule:nonzero;fill:#89eccf;fill-opacity:1;stroke-width:6.04374;stroke-linecap:round;stroke-linejoin:round;stroke:#000;stroke-opacity:1;stroke-miterlimit:10" d="M469.219 248.32 251.484 403.79l217.54-80.313" transform="matrix(.1 0 0 -.1 0 200)"/><path style="fill-rule:nonzero;fill:#eaf0cd;fill-opacity:1;stroke-width:6.04374;stroke-linecap:round;stroke-linejoin:round;stroke:#000;stroke-opacity:1;stroke-miterlimit:10" d="m469.023 323.477-217.539 80.312L112.93 744.063" transform="matrix(.1 0 0 -.1 0 200)"/><path style="stroke:none;fill-rule:nonzero;fill:#940500;fill-opacity:1" d="m39.629 38.777-20.707 10.98 53.89-39.3"/><path style="fill:none;stroke-width:6.04374;stroke-linecap:round;stroke-linejoin:round;stroke:#000;stroke-opacity:1;stroke-miterlimit:10" d="m396.29 1612.227-207.071-109.805" transform="matrix(.1 0 0 -.1 0 200)"/><path style="fill-rule:nonzero;fill:#940500;fill-opacity:1;stroke-width:6.04374;stroke-linecap:round;stroke-linejoin:round;stroke:#000;stroke-opacity:1;stroke-miterlimit:10" d="m728.125 1895.43-15.938-53.477-315.898-229.726" transform="matrix(.1 0 0 -.1 0 200)"/><path style="stroke:none;fill-rule:nonzero;fill:#000895;fill-opacity:1" d="m190.281 116.727-15.207 33.488 6.551-34.621"/><path style="fill:none;stroke-width:6.04374;stroke-linecap:round;stroke-linejoin:round;stroke:#000;stroke-opacity:1;stroke-miterlimit:10" d="m1902.813 832.734-152.07-334.882 65.507 346.21Zm0 0" transform="matrix(.1 0 0 -.1 0 200)"/><path style="fill-rule:nonzero;fill:#000060;fill-opacity:1;stroke-width:6.04374;stroke-linecap:round;stroke-linejoin:round;stroke:#000;stroke-opacity:1;stroke-miterlimit:10" d="m1816.25 844.063-21.875 399.414 85.195 14.296M1879.57 1257.773l23.243-425.039-86.563 11.328" transform="matrix(.1 0 0 -.1 0 200)"/><path style="stroke:none;fill-rule:nonzero;fill:#00002a;fill-opacity:1" d="m169.152 42.242 18.805 31.98-8.52 1.43"/><path style="fill:none;stroke-width:6.04374;stroke-linecap:round;stroke-linejoin:round;stroke:#000;stroke-opacity:1;stroke-miterlimit:10" d="m1691.523 1577.578 188.047-319.805-85.195-14.296Zm0 0" transform="matrix(.1 0 0 -.1 0 200)"/><path style="fill-rule:nonzero;fill:#45bdf0;fill-opacity:1;stroke-width:6.04374;stroke-linecap:round;stroke-linejoin:round;stroke:#000;stroke-opacity:1;stroke-miterlimit:10" d="m808.125 129.492 401.563 26.602 48.007-55.86" transform="matrix(.1 0 0 -.1 0 200)"/><path style="fill-rule:nonzero;fill:#056bdc;fill-opacity:1;stroke-width:6.04374;stroke-linecap:round;stroke-linejoin:round;stroke:#000;stroke-opacity:1;stroke-miterlimit:10" d="m1611.406 322.227-353.71-221.993-48.008 55.86" transform="matrix(.1 0 0 -.1 0 200)"/><path style="fill-rule:nonzero;fill:#500000;fill-opacity:1;stroke-width:6.04374;stroke-linecap:round;stroke-linejoin:round;stroke:#000;stroke-opacity:1;stroke-miterlimit:10" d="m1156.992 1915.04-41.953-54.376-402.851-18.71" transform="matrix(.1 0 0 -.1 0 200)"/><path style="fill-rule:nonzero;fill:#45bdf0;fill-opacity:1;stroke-width:6.04374;stroke-linecap:round;stroke-linejoin:round;stroke:#000;stroke-opacity:1;stroke-miterlimit:10" d="M1257.695 100.234 830.273 71.602l-22.148 57.89" transform="matrix(.1 0 0 -.1 0 200)"/><path style="fill-rule:nonzero;fill:#89eccf;fill-opacity:1;stroke-width:6.04374;stroke-linecap:round;stroke-linejoin:round;stroke:#000;stroke-opacity:1;stroke-miterlimit:10" d="m808.125 129.492 22.148-57.89L469.22 248.32" transform="matrix(.1 0 0 -.1 0 200)"/><path style="fill-rule:nonzero;fill:#500000;fill-opacity:1;stroke-width:6.04374;stroke-linecap:round;stroke-linejoin:round;stroke:#000;stroke-opacity:1;stroke-miterlimit:10" d="m712.188 1841.953 15.937 53.477 428.867 19.61" transform="matrix(.1 0 0 -.1 0 200)"/><path style="stroke:none;fill-rule:nonzero;fill:#c8df70;fill-opacity:1" d="m8.969 127.406 2.324-1.812 13.855 34.027"/><path style="fill:none;stroke-width:6.04374;stroke-linecap:round;stroke-linejoin:round;stroke:#000;stroke-opacity:1;stroke-miterlimit:10" d="m89.688 725.938 23.242 18.125 138.554-340.274Zm0 0" transform="matrix(.1 0 0 -.1 0 200)"/><path style="fill-rule:nonzero;fill:#d3b42c;fill-opacity:1;stroke-width:6.04374;stroke-linecap:round;stroke-linejoin:round;stroke:#000;stroke-opacity:1;stroke-miterlimit:10" d="m112.93 744.063-23.243-18.125L65 1159.96" transform="matrix(.1 0 0 -.1 0 200)"/><path style="fill-rule:nonzero;fill:#d3b42c;fill-opacity:1;stroke-width:6.04374;stroke-linecap:round;stroke-linejoin:round;stroke:#000;stroke-opacity:1;stroke-miterlimit:10" d="m65 1159.96 24.805-8.554 23.125-407.343" transform="matrix(.1 0 0 -.1 0 200)"/><path style="stroke:none;fill-rule:nonzero;fill:#cd7b00;fill-opacity:1" d="M18.922 49.758 8.98 84.859l-2.48-.855"/><path style="fill:none;stroke-width:6.04374;stroke-linecap:round;stroke-linejoin:round;stroke:#000;stroke-opacity:1;stroke-miterlimit:10" d="m189.219 1502.422-99.414-351.016L65 1159.961Zm0 0" transform="matrix(.1 0 0 -.1 0 200)"/><path style="fill-rule:nonzero;fill:#d56d00;fill-opacity:1;stroke-width:6.04374;stroke-linecap:round;stroke-linejoin:round;stroke:#000;stroke-opacity:1;stroke-miterlimit:10" d="m1750.742 497.852 152.07 334.882-135.156-162.148M1767.656 670.586l-156.25-348.36 139.336 175.626" transform="matrix(.1 0 0 -.1 0 200)"/><path style="fill-rule:nonzero;fill:#0c0000;fill-opacity:1;stroke-width:6.04374;stroke-linecap:round;stroke-linejoin:round;stroke:#000;stroke-opacity:1;stroke-miterlimit:10" d="m1156.992 1915.04 376.875-183.83 157.656-153.632" transform="matrix(.1 0 0 -.1 0 200)"/><path style="fill-rule:nonzero;fill:#cef5a2;fill-opacity:1;stroke-width:6.04374;stroke-linecap:round;stroke-linejoin:round;stroke:#000;stroke-opacity:1;stroke-miterlimit:10" d="m1879.57 1257.773-188.047 319.805-157.656 153.633" transform="matrix(.1 0 0 -.1 0 200)"/><path style="fill-rule:nonzero;fill:#050024;fill-opacity:1;stroke-width:6.04374;stroke-linecap:round;stroke-linejoin:round;stroke:#000;stroke-opacity:1;stroke-miterlimit:10" d="M251.484 403.79 469.22 248.32 306.836 581.875" transform="matrix(.1 0 0 -.1 0 200)"/><path style="fill-rule:nonzero;fill:#050024;fill-opacity:1;stroke-width:6.04374;stroke-linecap:round;stroke-linejoin:round;stroke:#000;stroke-opacity:1;stroke-miterlimit:10" d="M306.836 581.875 89.687 725.938l161.797-322.149" transform="matrix(.1 0 0 -.1 0 200)"/><path style="fill-rule:nonzero;fill:#940500;fill-opacity:1;stroke-width:6.04374;stroke-linecap:round;stroke-linejoin:round;stroke:#000;stroke-opacity:1;stroke-miterlimit:10" d="m189.219 1502.422 199.414 173.672 339.492 219.336" transform="matrix(.1 0 0 -.1 0 200)"/><path style="fill-rule:nonzero;fill:#0137b9;fill-opacity:1;stroke-width:6.04374;stroke-linecap:round;stroke-linejoin:round;stroke:#000;stroke-opacity:1;stroke-miterlimit:10" d="m388.633 1676.094-199.414-173.672L65 1159.96" transform="matrix(.1 0 0 -.1 0 200)"/><path style="fill-rule:nonzero;fill:#fdd392;fill-opacity:1;stroke-width:6.04374;stroke-linecap:round;stroke-linejoin:round;stroke:#000;stroke-opacity:1;stroke-miterlimit:10" d="m1902.813 832.734-23.243 425.04-151.797 140.039" transform="matrix(.1 0 0 -.1 0 200)"/><path style="stroke:none;fill-rule:nonzero;fill:#fdd392;fill-opacity:1" d="m176.766 132.941 13.515-16.214-17.504-56.508"/><path style="fill:none;stroke-width:6.04374;stroke-linecap:round;stroke-linejoin:round;stroke:#000;stroke-opacity:1;stroke-miterlimit:10" d="m1767.656 670.586 135.157 162.148" transform="matrix(.1 0 0 -.1 0 200)"/><path style="fill-rule:nonzero;fill:#cef5a2;fill-opacity:1;stroke-width:6.04374;stroke-linecap:round;stroke-linejoin:round;stroke:#000;stroke-opacity:1;stroke-miterlimit:10" d="m1533.867 1731.21 193.906-333.398 151.797-140.039" transform="matrix(.1 0 0 -.1 0 200)"/><path style="stroke:none;fill-rule:nonzero;fill:#7a0000;fill-opacity:1" d="m106.867 182.602-23.84 10.238 42.743-2.863"/><path style="fill:none;stroke-width:6.04374;stroke-linecap:round;stroke-linejoin:round;stroke:#000;stroke-opacity:1;stroke-miterlimit:10" d="M1068.672 173.984 830.273 71.602l427.422 28.632Zm0 0" transform="matrix(.1 0 0 -.1 0 200)"/><path style="fill-rule:nonzero;fill:#bf4b2b;fill-opacity:1;stroke-width:6.04374;stroke-linecap:round;stroke-linejoin:round;stroke:#000;stroke-opacity:1;stroke-miterlimit:10" d="m1257.695 100.234 353.711 221.993-171.367 88.164" transform="matrix(.1 0 0 -.1 0 200)"/><path style="fill-rule:nonzero;fill:#bf4b2b;fill-opacity:1;stroke-width:6.04374;stroke-linecap:round;stroke-linejoin:round;stroke:#000;stroke-opacity:1;stroke-miterlimit:10" d="m1440.04 410.39-371.368-236.406 189.023-73.75" transform="matrix(.1 0 0 -.1 0 200)"/><path style="stroke:none;fill-rule:nonzero;fill:#6fccfe;fill-opacity:1" d="M97.73 18.602 115.7 8.496l-42.888 1.961"/><path style="fill:none;stroke-width:6.04374;stroke-linecap:round;stroke-linejoin:round;stroke:#000;stroke-opacity:1;stroke-miterlimit:10" d="m977.305 1813.984 179.687 101.055-428.867-19.61Zm0 0" transform="matrix(.1 0 0 -.1 0 200)"/><path style="fill-rule:nonzero;fill:#b6e7f6;fill-opacity:1;stroke-width:6.04374;stroke-linecap:round;stroke-linejoin:round;stroke:#000;stroke-opacity:1;stroke-miterlimit:10" d="m1533.867 1731.21-376.875 183.83-179.687-101.056" transform="matrix(.1 0 0 -.1 0 200)"/><path style="fill-rule:nonzero;fill:#7c1736;fill-opacity:1;stroke-width:6.04374;stroke-linecap:round;stroke-linejoin:round;stroke:#000;stroke-opacity:1;stroke-miterlimit:10" d="m830.273 71.602 238.399 102.382-374.375 189.063" transform="matrix(.1 0 0 -.1 0 200)"/><path style="fill-rule:nonzero;fill:#7c1736;fill-opacity:1;stroke-width:6.04374;stroke-linecap:round;stroke-linejoin:round;stroke:#000;stroke-opacity:1;stroke-miterlimit:10" d="M694.297 363.047 469.219 248.32 830.273 71.602" transform="matrix(.1 0 0 -.1 0 200)"/><path style="fill-rule:nonzero;fill:#75a8f2;fill-opacity:1;stroke-width:6.04374;stroke-linecap:round;stroke-linejoin:round;stroke:#000;stroke-opacity:1;stroke-miterlimit:10" d="m977.305 1813.984-249.18 81.446-339.492-219.336" transform="matrix(.1 0 0 -.1 0 200)"/><path style="stroke:none;fill-rule:nonzero;fill:#4d3b9b;fill-opacity:1" d="m8.969 127.406 21.715 14.406-4.192-73.968"/><path style="fill:none;stroke-width:6.04374;stroke-linecap:round;stroke-linejoin:round;stroke:#000;stroke-opacity:1;stroke-miterlimit:10" d="m89.688 725.938 217.148-144.063" transform="matrix(.1 0 0 -.1 0 200)"/><path style="fill-rule:nonzero;fill:#4d3b9b;fill-opacity:1;stroke-width:6.04374;stroke-linecap:round;stroke-linejoin:round;stroke:#000;stroke-opacity:1;stroke-miterlimit:10" d="M264.922 1321.563 65 1159.96l24.688-434.024" transform="matrix(.1 0 0 -.1 0 200)"/><path style="fill-rule:nonzero;fill:#0137b9;fill-opacity:1;stroke-width:6.04374;stroke-linecap:round;stroke-linejoin:round;stroke:#000;stroke-opacity:1;stroke-miterlimit:10" d="m65 1159.96 199.922 161.602 123.71 354.532" transform="matrix(.1 0 0 -.1 0 200)"/><path style="stroke:none;fill-rule:nonzero;fill:#e38559;fill-opacity:1" d="m176.766 132.941-32.762 26.02 17.137 8.816"/><path style="fill:none;stroke-width:6.04374;stroke-linecap:round;stroke-linejoin:round;stroke:#000;stroke-opacity:1;stroke-miterlimit:10" d="M1767.656 670.586 1440.04 410.39l171.367-88.164Zm0 0" transform="matrix(.1 0 0 -.1 0 200)"/><path style="stroke:none;fill-rule:nonzero;fill:#dbebde;fill-opacity:1" d="m137.336 38.246 35.441 21.973-19.39-33.34"/><path style="fill:none;stroke-width:6.04374;stroke-linecap:round;stroke-linejoin:round;stroke:#000;stroke-opacity:1;stroke-miterlimit:10" d="m1373.36 1617.54 354.413-219.727-193.906 333.398Zm0 0" transform="matrix(.1 0 0 -.1 0 200)"/><path style="fill-rule:nonzero;fill:#b6e7f6;fill-opacity:1;stroke-width:6.04374;stroke-linecap:round;stroke-linejoin:round;stroke:#000;stroke-opacity:1;stroke-miterlimit:10" d="m977.305 1813.984 396.054-196.445 160.508 113.672" transform="matrix(.1 0 0 -.1 0 200)"/><path style="stroke:none;fill-rule:nonzero;fill:#702a65;fill-opacity:1" d="m30.684 141.813 16.238 33.355 22.508-11.473"/><path style="fill:none;stroke-width:6.04374;stroke-linecap:round;stroke-linejoin:round;stroke:#000;stroke-opacity:1;stroke-miterlimit:10" d="M306.836 581.875 469.219 248.32l225.078 114.727Zm0 0" transform="matrix(.1 0 0 -.1 0 200)"/><path style="stroke:none;fill-rule:nonzero;fill:#6c83d9;fill-opacity:1" d="m62.594 41.934-23.73-9.543-12.372 35.453"/><path style="fill:none;stroke-width:6.04374;stroke-linecap:round;stroke-linejoin:round;stroke:#000;stroke-opacity:1;stroke-miterlimit:10" d="m625.938 1580.664-237.305 95.43-123.711-354.532Zm0 0" transform="matrix(.1 0 0 -.1 0 200)"/><path style="fill-rule:nonzero;fill:#75a8f2;fill-opacity:1;stroke-width:6.04374;stroke-linecap:round;stroke-linejoin:round;stroke:#000;stroke-opacity:1;stroke-miterlimit:10" d="m388.633 1676.094 237.305-95.43 351.367 233.32" transform="matrix(.1 0 0 -.1 0 200)"/><path style="fill-rule:nonzero;fill:#dba096;fill-opacity:1;stroke-width:6.04374;stroke-linecap:round;stroke-linejoin:round;stroke:#000;stroke-opacity:1;stroke-miterlimit:10" d="m1440.04 410.39 327.616 260.196-117.148 355.898" transform="matrix(.1 0 0 -.1 0 200)"/><path style="fill-rule:nonzero;fill:#fdd392;fill-opacity:1;stroke-width:6.04374;stroke-linecap:round;stroke-linejoin:round;stroke:#000;stroke-opacity:1;stroke-miterlimit:10" d="m1727.773 1397.813-77.265-371.329 117.148-355.898" transform="matrix(.1 0 0 -.1 0 200)"/><path style="fill-rule:nonzero;fill:#d9c7c8;fill-opacity:1;stroke-width:6.04374;stroke-linecap:round;stroke-linejoin:round;stroke:#000;stroke-opacity:1;stroke-miterlimit:10" d="m1650.508 1026.484 77.265 371.329-354.414 219.726" transform="matrix(.1 0 0 -.1 0 200)"/><path style="fill-rule:nonzero;fill:#b77689;fill-opacity:1;stroke-width:6.04374;stroke-linecap:round;stroke-linejoin:round;stroke:#000;stroke-opacity:1;stroke-miterlimit:10" d="m1068.672 173.984 371.367 236.407-132.812 355.43" transform="matrix(.1 0 0 -.1 0 200)"/><path style="stroke:none;fill-rule:nonzero;fill:#b77689;fill-opacity:1" d="m69.43 163.695 37.437 18.907 23.856-59.184"/><path style="fill:none;stroke-width:6.04374;stroke-linecap:round;stroke-linejoin:round;stroke:#000;stroke-opacity:1;stroke-miterlimit:10" d="m694.297 363.047 374.375-189.063" transform="matrix(.1 0 0 -.1 0 200)"/><path style="fill-rule:nonzero;fill:#b3b1d6;fill-opacity:1;stroke-width:6.04374;stroke-linecap:round;stroke-linejoin:round;stroke:#000;stroke-opacity:1;stroke-miterlimit:10" d="m1280.703 1244.336 92.656 373.203-396.054 196.445" transform="matrix(.1 0 0 -.1 0 200)"/><path style="stroke:none;fill-rule:nonzero;fill:#b3b1d6;fill-opacity:1" d="m80.25 78.133 47.82-2.567-30.34-56.964"/><path style="fill:none;stroke-width:6.04374;stroke-linecap:round;stroke-linejoin:round;stroke:#000;stroke-opacity:1;stroke-miterlimit:10" d="m802.5 1218.672 478.203 25.664" transform="matrix(.1 0 0 -.1 0 200)"/><path style="fill-rule:nonzero;fill:#b3b1d6;fill-opacity:1;stroke-width:6.04374;stroke-linecap:round;stroke-linejoin:round;stroke:#000;stroke-opacity:1;stroke-miterlimit:10" d="m977.305 1813.984-351.367-233.32L802.5 1218.672" transform="matrix(.1 0 0 -.1 0 200)"/><path style="fill-rule:nonzero;fill:#916297;fill-opacity:1;stroke-width:6.04374;stroke-linecap:round;stroke-linejoin:round;stroke:#000;stroke-opacity:1;stroke-miterlimit:10" d="M426.21 957.344 306.837 581.875l387.46-218.828" transform="matrix(.1 0 0 -.1 0 200)"/><path style="fill-rule:nonzero;fill:#4d3b9b;fill-opacity:1;stroke-width:6.04374;stroke-linecap:round;stroke-linejoin:round;stroke:#000;stroke-opacity:1;stroke-miterlimit:10" d="M306.836 581.875 426.21 957.344l-161.29 364.218" transform="matrix(.1 0 0 -.1 0 200)"/><path style="fill-rule:nonzero;fill:#8f85c4;fill-opacity:1;stroke-width:6.04374;stroke-linecap:round;stroke-linejoin:round;stroke:#000;stroke-opacity:1;stroke-miterlimit:10" d="m625.938 1580.664-361.016-259.101 161.289-364.22" transform="matrix(.1 0 0 -.1 0 200)"/><path style="fill-rule:nonzero;fill:#dba096;fill-opacity:1;stroke-width:6.04374;stroke-linecap:round;stroke-linejoin:round;stroke:#000;stroke-opacity:1;stroke-miterlimit:10" d="M1650.508 1026.484 1307.227 765.82l132.812-355.43" transform="matrix(.1 0 0 -.1 0 200)"/><path style="fill-rule:nonzero;fill:#d9c7c8;fill-opacity:1;stroke-width:6.04374;stroke-linecap:round;stroke-linejoin:round;stroke:#000;stroke-opacity:1;stroke-miterlimit:10" d="m1373.36 1617.54-92.657-373.204 369.805-217.852" transform="matrix(.1 0 0 -.1 0 200)"/><path style="fill-rule:nonzero;fill:#916297;fill-opacity:1;stroke-width:6.04374;stroke-linecap:round;stroke-linejoin:round;stroke:#000;stroke-opacity:1;stroke-miterlimit:10" d="M694.297 363.047 829.414 737.5 426.211 957.344" transform="matrix(.1 0 0 -.1 0 200)"/><path style="fill-rule:nonzero;fill:#b77689;fill-opacity:1;stroke-width:6.04374;stroke-linecap:round;stroke-linejoin:round;stroke:#000;stroke-opacity:1;stroke-miterlimit:10" d="M1307.227 765.82 829.414 737.5 694.297 363.047" transform="matrix(.1 0 0 -.1 0 200)"/><path style="fill-rule:nonzero;fill:#8f85c4;fill-opacity:1;stroke-width:6.04374;stroke-linecap:round;stroke-linejoin:round;stroke:#000;stroke-opacity:1;stroke-miterlimit:10" d="m426.21 957.344 376.29 261.328-176.563 361.992" transform="matrix(.1 0 0 -.1 0 200)"/><path style="stroke:none;fill-rule:nonzero;fill:#cfaab3;fill-opacity:1" d="m128.07 75.566 2.653 47.852 34.328-26.066"/><path style="fill:none;stroke-width:6.04374;stroke-linecap:round;stroke-linejoin:round;stroke:#000;stroke-opacity:1;stroke-miterlimit:10" d="m1280.703 1244.336 26.524-478.516 343.28 260.664Zm0 0" transform="matrix(.1 0 0 -.1 0 200)"/><path style="stroke:none;fill-rule:nonzero;fill:#a182b2;fill-opacity:1" d="m80.25 78.133-37.629 26.133 40.32 21.984"/><path style="fill:none;stroke-width:6.04374;stroke-linecap:round;stroke-linejoin:round;stroke:#000;stroke-opacity:1;stroke-miterlimit:10" d="M802.5 1218.672 426.21 957.344 829.415 737.5Zm0 0" transform="matrix(.1 0 0 -.1 0 200)"/><path style="fill-rule:nonzero;fill:#b997b4;fill-opacity:1;stroke-width:6.04374;stroke-linecap:round;stroke-linejoin:round;stroke:#000;stroke-opacity:1;stroke-miterlimit:10" d="m829.414 737.5 477.813 28.32-26.524 478.516" transform="matrix(.1 0 0 -.1 0 200)"/><path style="fill-rule:nonzero;fill:#b997b4;fill-opacity:1;stroke-width:6.04374;stroke-linecap:round;stroke-linejoin:round;stroke:#000;stroke-opacity:1;stroke-miterlimit:10" d="M1280.703 1244.336 802.5 1218.672 829.414 737.5" transform="matrix(.1 0 0 -.1 0 200)"/></svg>