<svg xmlns="http://www.w3.org/2000/svg" width="279.413" height="267" viewBox="0 0 209.56 200.25" version="1.2"><path style="stroke:none;fill-rule:nonzero;fill:#c7b2c5;fill-opacity:1" d="m80.238 81.05 21.45-20.784.503 50.925"/><path style="fill:none;stroke-width:5;stroke-linecap:round;stroke-linejoin:round;stroke:#000;stroke-opacity:1;stroke-miterlimit:10" d="m803.664 1188.957 215.295 208.63 5.058-511.166Zm0 0" transform="matrix(.09963 0 0 -.09963 .172 199.503)"/><path style="stroke:none;fill-rule:nonzero;fill:#c0533d;fill-opacity:1" d="m101.863 45.348-.175 14.918-35.032-4.422"/><path style="fill:none;stroke-width:5;stroke-linecap:round;stroke-linejoin:round;stroke:#000;stroke-opacity:1;stroke-miterlimit:10" d="m1020.724 1547.325-1.765-149.738-351.624 44.384Zm0 0" transform="matrix(.09963 0 0 -.09963 .172 199.503)"/><path style="stroke:none;fill-rule:nonzero;fill:#9e90c5;fill-opacity:1" d="m123.695 80.77-22.007-20.504.503 50.925"/><path style="fill:none;stroke-width:5;stroke-linecap:round;stroke-linejoin:round;stroke:#000;stroke-opacity:1;stroke-miterlimit:10" d="m1239.862 1191.78-220.903 205.807 5.058-511.166Zm0 0" transform="matrix(.09963 0 0 -.09963 .172 199.503)"/><path style="stroke:none;fill-rule:nonzero;fill:#72143f;fill-opacity:1" d="m101.863 45.348-.175 14.918 35.675-4.856"/><path style="fill:none;stroke-width:5;stroke-linecap:round;stroke-linejoin:round;stroke:#000;stroke-opacity:1;stroke-miterlimit:10" d="m1020.724 1547.325-1.765-149.738 358.094 48.736Zm0 0" transform="matrix(.09963 0 0 -.09963 .172 199.503)"/><path style="stroke:none;fill-rule:nonzero;fill:#e3a997;fill-opacity:1" d="M101.688 60.266 80.237 81.05 66.656 55.844"/><path style="fill:none;stroke-width:5;stroke-linecap:round;stroke-linejoin:round;stroke:#000;stroke-opacity:1;stroke-miterlimit:10" d="m1018.96 1397.587-215.296-208.63-136.33 253.014Zm0 0" transform="matrix(.09963 0 0 -.09963 .172 199.503)"/><path style="stroke:none;fill-rule:nonzero;fill:#755098;fill-opacity:1" d="m101.688 60.266 22.007 20.504 13.668-25.36"/><path style="fill:none;stroke-width:5;stroke-linecap:round;stroke-linejoin:round;stroke:#000;stroke-opacity:1;stroke-miterlimit:10" d="m1018.96 1397.587 220.902-205.807 137.191 254.543Zm0 0" transform="matrix(.09963 0 0 -.09963 .172 199.503)"/><path style="stroke:none;fill-rule:nonzero;fill:#b1add4;fill-opacity:1" d="m137.969 121.168 15.754-25.172-51.532 15.195"/><path style="fill:none;stroke-width:5;stroke-linecap:round;stroke-linejoin:round;stroke:#000;stroke-opacity:1;stroke-miterlimit:10" d="m1383.13 786.282 158.13 252.662-517.243-152.523Zm0 0" transform="matrix(.09963 0 0 -.09963 .172 199.503)"/><path style="stroke:none;fill-rule:nonzero;fill:#000075;fill-opacity:1" d="m161.156 85.852-7.433 10.144 7.375 25.125"/><path style="fill:none;stroke-width:5;stroke-linecap:round;stroke-linejoin:round;stroke:#000;stroke-opacity:1;stroke-miterlimit:10" d="m1615.874 1140.769-74.614-101.825 74.026-252.191Zm0 0" transform="matrix(.09963 0 0 -.09963 .172 199.503)"/><path style="stroke:none;fill-rule:nonzero;fill:#5e85e0;fill-opacity:1" d="m137.969 121.168 15.754-25.172 7.375 25.125"/><path style="fill:none;stroke-width:5;stroke-linecap:round;stroke-linejoin:round;stroke:#000;stroke-opacity:1;stroke-miterlimit:10" d="m1383.13 786.282 158.13 252.662 74.026-252.191Zm0 0" transform="matrix(.09963 0 0 -.09963 .172 199.503)"/><path style="stroke:none;fill-rule:nonzero;fill:#c099af;fill-opacity:1" d="M153.723 95.996 123.695 80.77l-21.504 30.421"/><path style="fill:none;stroke-width:5;stroke-linecap:round;stroke-linejoin:round;stroke:#000;stroke-opacity:1;stroke-miterlimit:10" d="m1541.26 1038.944-301.398 152.836-215.845-305.359Zm0 0" transform="matrix(.09963 0 0 -.09963 .172 199.503)"/><path style="stroke:none;fill-rule:nonzero;fill:#3a004b;fill-opacity:1" d="m153.723 95.996 7.433-10.144-23.793-30.442"/><path style="fill:none;stroke-width:5;stroke-linecap:round;stroke-linejoin:round;stroke:#000;stroke-opacity:1;stroke-miterlimit:10" d="m1541.26 1038.944 74.614 101.825-238.82 305.554Zm0 0" transform="matrix(.09963 0 0 -.09963 .172 199.503)"/><path style="stroke:none;fill-rule:nonzero;fill:#a66381;fill-opacity:1" d="m123.695 80.77 30.028 15.226-16.36-40.586"/><path style="fill:none;stroke-width:5;stroke-linecap:round;stroke-linejoin:round;stroke:#000;stroke-opacity:1;stroke-miterlimit:10" d="m1239.862 1191.78 301.398-152.836-164.207 407.38Zm0 0" transform="matrix(.09963 0 0 -.09963 .172 199.503)"/><path style="stroke:none;fill-rule:nonzero;fill:#f8d871;fill-opacity:1" d="m43.2 86.629 7.01 10.062-6.179 25.254"/><path style="fill:none;stroke-width:5;stroke-linecap:round;stroke-linejoin:round;stroke:#000;stroke-opacity:1;stroke-miterlimit:10" d="m431.886 1132.966 70.38-101.001-62.029-253.485Zm0 0" transform="matrix(.09963 0 0 -.09963 .172 199.503)"/><path style="stroke:none;fill-rule:nonzero;fill:#b1add4;fill-opacity:1" d="M66.652 121.668 50.211 96.691l51.98 14.5"/><path style="fill:none;stroke-width:5;stroke-linecap:round;stroke-linejoin:round;stroke:#000;stroke-opacity:1;stroke-miterlimit:10" d="m667.295 781.263-165.03 250.702 521.752-145.544Zm0 0" transform="matrix(.09963 0 0 -.09963 .172 199.503)"/><path style="stroke:none;fill-rule:nonzero;fill:#d7eae1;fill-opacity:1" d="M66.652 121.668 50.211 96.691l-6.18 25.254"/><path style="fill:none;stroke-width:5;stroke-linecap:round;stroke-linejoin:round;stroke:#000;stroke-opacity:1;stroke-miterlimit:10" d="m667.295 781.263-165.03 250.702-62.028-253.485Zm0 0" transform="matrix(.09963 0 0 -.09963 .172 199.503)"/><path style="stroke:none;fill-rule:nonzero;fill:#a986af;fill-opacity:1" d="m50.21 96.691 30.028-15.64 21.953 30.14"/><path style="fill:none;stroke-width:5;stroke-linecap:round;stroke-linejoin:round;stroke:#000;stroke-opacity:1;stroke-miterlimit:10" d="m502.266 1031.965 301.398 156.992 220.353-302.536Zm0 0" transform="matrix(.09963 0 0 -.09963 .172 199.503)"/><path style="stroke:none;fill-rule:nonzero;fill:#e68348;fill-opacity:1" d="M50.21 96.691 43.2 86.63l23.456-30.785"/><path style="fill:none;stroke-width:5;stroke-linecap:round;stroke-linejoin:round;stroke:#000;stroke-opacity:1;stroke-miterlimit:10" d="m502.266 1031.965-70.38 101.001 235.449 309.005Zm0 0" transform="matrix(.09963 0 0 -.09963 .172 199.503)"/><path style="stroke:none;fill-rule:nonzero;fill:#b87281;fill-opacity:1" d="M80.238 81.05 50.211 96.692l16.445-40.847"/><path style="fill:none;stroke-width:5;stroke-linecap:round;stroke-linejoin:round;stroke:#000;stroke-opacity:1;stroke-miterlimit:10" d="m803.664 1188.957-301.398-156.992 165.069 410.006Zm0 0" transform="matrix(.09963 0 0 -.09963 .172 199.503)"/><path style="stroke:none;fill-rule:nonzero;fill:#c7b2c5;fill-opacity:1" d="m102.55 147.031 32.622 9.418-32.98-45.258"/><path style="fill:none;stroke-width:5;stroke-linecap:round;stroke-linejoin:round;stroke:#000;stroke-opacity:1;stroke-miterlimit:10" d="m1027.624 526.68 327.433-94.532-331.04 454.273Zm0 0" transform="matrix(.09963 0 0 -.09963 .172 199.503)"/><path style="stroke:none;fill-rule:nonzero;fill:#9e90c5;fill-opacity:1" d="m102.55 147.031-32.695 9.91 32.336-45.75"/><path style="fill:none;stroke-width:5;stroke-linecap:round;stroke-linejoin:round;stroke:#000;stroke-opacity:1;stroke-miterlimit:10" d="m1027.624 526.68-328.177-99.472 324.57 459.213Zm0 0" transform="matrix(.09963 0 0 -.09963 .172 199.503)"/><path style="stroke:none;fill-rule:nonzero;fill:#a986af;fill-opacity:1" d="m135.172 156.45 2.797-35.282-35.778-9.977"/><path style="fill:none;stroke-width:5;stroke-linecap:round;stroke-linejoin:round;stroke:#000;stroke-opacity:1;stroke-miterlimit:10" d="m1355.057 432.148 28.074 354.134-359.114 100.14Zm0 0" transform="matrix(.09963 0 0 -.09963 .172 199.503)"/><path style="stroke:none;fill-rule:nonzero;fill:#c099af;fill-opacity:1" d="m69.855 156.941-3.203-35.273 35.54-10.477"/><path style="fill:none;stroke-width:5;stroke-linecap:round;stroke-linejoin:round;stroke:#000;stroke-opacity:1;stroke-miterlimit:10" d="m699.447 427.208-32.152 354.055 356.722 105.158Zm0 0" transform="matrix(.09963 0 0 -.09963 .172 199.503)"/><path style="stroke:none;fill-rule:nonzero;fill:#bde7f2;fill-opacity:1" d="m102.55 147.031 32.622 9.418-32.192 7.371"/><path style="fill:none;stroke-width:5;stroke-linecap:round;stroke-linejoin:round;stroke:#000;stroke-opacity:1;stroke-miterlimit:10" d="m1027.624 526.68 327.433-94.532-323.12-73.987Zm0 0" transform="matrix(.09963 0 0 -.09963 .172 199.503)"/><path style="fill-rule:nonzero;fill:#000192;fill-opacity:1;stroke-width:5;stroke-linecap:round;stroke-linejoin:round;stroke:#000;stroke-opacity:1;stroke-miterlimit:10" d="m1404.891 449.714-49.834-17.566 123.469 168.245M1478.526 600.393l136.76 186.36-210.395-337.04" transform="matrix(.09963 0 0 -.09963 .172 199.503)"/><path style="fill-rule:nonzero;fill:#aabbe6;fill-opacity:1;stroke-width:5;stroke-linecap:round;stroke-linejoin:round;stroke:#000;stroke-opacity:1;stroke-miterlimit:10" d="m1404.891 449.714 209.454-224.627-287.205 65.635" transform="matrix(.09963 0 0 -.09963 .172 199.503)"/><path style="stroke:none;fill-rule:nonzero;fill:#6653a8;fill-opacity:1" d="m135.172 156.45 2.797-35.282 23.129-.047"/><path style="fill:none;stroke-width:5;stroke-linecap:round;stroke-linejoin:round;stroke:#000;stroke-opacity:1;stroke-miterlimit:10" d="m1355.057 432.148 28.074 354.134 232.155.47Zm0 0" transform="matrix(.09963 0 0 -.09963 .172 199.503)"/><path style="stroke:none;fill-rule:nonzero;fill:#350000;fill-opacity:1" d="m135.172 156.45 4.965-1.75-37.157 9.12"/><path style="fill:none;stroke-width:5;stroke-linecap:round;stroke-linejoin:round;stroke:#000;stroke-opacity:1;stroke-miterlimit:10" d="m1355.057 432.148 49.834 17.566-372.954-91.553Zm0 0" transform="matrix(.09963 0 0 -.09963 .172 199.503)"/><path style="fill-rule:nonzero;fill:#aabbe6;fill-opacity:1;stroke-width:5;stroke-linecap:round;stroke-linejoin:round;stroke:#000;stroke-opacity:1;stroke-miterlimit:10" d="m1327.14 290.722-295.203 67.44 372.954 91.552" transform="matrix(.09963 0 0 -.09963 .172 199.503)"/><path style="fill-rule:nonzero;fill:#c2eb8e;fill-opacity:1;stroke-width:5;stroke-linecap:round;stroke-linejoin:round;stroke:#000;stroke-opacity:1;stroke-miterlimit:10" d="m655.572 444.107 43.875-16.899-122.96 166.637" transform="matrix(.09963 0 0 -.09963 .172 199.503)"/><path style="fill-rule:nonzero;fill:#c2eb8e;fill-opacity:1;stroke-width:5;stroke-linecap:round;stroke-linejoin:round;stroke:#000;stroke-opacity:1;stroke-miterlimit:10" d="M576.488 593.845 440.238 778.48l215.334-334.373" transform="matrix(.09963 0 0 -.09963 .172 199.503)"/><path style="fill-rule:nonzero;fill:#aabbe6;fill-opacity:1;stroke-width:5;stroke-linecap:round;stroke-linejoin:round;stroke:#000;stroke-opacity:1;stroke-miterlimit:10" d="m655.572 444.107-202.082-228 285.48 70.106" transform="matrix(.09963 0 0 -.09963 .172 199.503)"/><path style="stroke:none;fill-rule:nonzero;fill:#6ea4f2;fill-opacity:1" d="m102.55 147.031-32.695 9.91 33.125 6.88"/><path style="fill:none;stroke-width:5;stroke-linecap:round;stroke-linejoin:round;stroke:#000;stroke-opacity:1;stroke-miterlimit:10" d="m1027.624 526.68-328.177-99.472 332.49-69.047Zm0 0" transform="matrix(.09963 0 0 -.09963 .172 199.503)"/><path style="stroke:none;fill-rule:nonzero;fill:#ebc0a8;fill-opacity:1" d="m69.855 156.941-3.203-35.273-22.62.277"/><path style="fill:none;stroke-width:5;stroke-linecap:round;stroke-linejoin:round;stroke:#000;stroke-opacity:1;stroke-miterlimit:10" d="m699.447 427.208-32.152 354.055-227.058-2.783Zm0 0" transform="matrix(.09963 0 0 -.09963 .172 199.503)"/><path style="stroke:none;fill-rule:nonzero;fill:#000;fill-opacity:1" d="m69.855 156.941-4.37-1.683 37.495 8.562"/><path style="fill:none;stroke-width:5;stroke-linecap:round;stroke-linejoin:round;stroke:#000;stroke-opacity:1;stroke-miterlimit:10" d="m699.447 427.208-43.875 16.899 376.365-85.946Zm0 0" transform="matrix(.09963 0 0 -.09963 .172 199.503)"/><path style="fill-rule:nonzero;fill:#aabbe6;fill-opacity:1;stroke-width:5;stroke-linecap:round;stroke-linejoin:round;stroke:#000;stroke-opacity:1;stroke-miterlimit:10" d="m738.97 286.213 292.967 71.948-376.365 85.946" transform="matrix(.09963 0 0 -.09963 .172 199.503)"/><path style="stroke:none;fill-rule:nonzero;fill:#c794a1;fill-opacity:1" d="m101.863 45.348-.129-35.532-35.078 46.028"/><path style="fill:none;stroke-width:5;stroke-linecap:round;stroke-linejoin:round;stroke:#000;stroke-opacity:1;stroke-miterlimit:10" d="m1020.724 1547.325-1.294 356.643-352.095-461.997Zm0 0" transform="matrix(.09963 0 0 -.09963 .172 199.503)"/><path style="stroke:none;fill-rule:nonzero;fill:#9e73a0;fill-opacity:1" d="m101.863 45.348-.129-35.532 35.63 45.594"/><path style="fill:none;stroke-width:5;stroke-linecap:round;stroke-linejoin:round;stroke:#000;stroke-opacity:1;stroke-miterlimit:10" d="m1020.724 1547.325-1.294 356.643 357.623-457.645Zm0 0" transform="matrix(.09963 0 0 -.09963 .172 199.503)"/><path style="stroke:none;fill-rule:nonzero;fill:#8782c6;fill-opacity:1" d="m192.387 71-31.23 14.852-.06 35.27"/><path style="fill:none;stroke-width:5;stroke-linecap:round;stroke-linejoin:round;stroke:#000;stroke-opacity:1;stroke-miterlimit:10" d="m1929.348 1289.84-313.474-149.071-.588-354.016Zm0 0" transform="matrix(.09963 0 0 -.09963 .172 199.503)"/><path style="stroke:none;fill-rule:nonzero;fill:#9e73a0;fill-opacity:1" d="M161.156 85.852 192.386 71l-55.023-15.59"/><path style="fill:none;stroke-width:5;stroke-linecap:round;stroke-linejoin:round;stroke:#000;stroke-opacity:1;stroke-miterlimit:10" d="m1615.874 1140.769 313.474 149.072-552.295 156.482Zm0 0" transform="matrix(.09963 0 0 -.09963 .172 199.503)"/><path style="stroke:none;fill-rule:nonzero;fill:#d6c3c7;fill-opacity:1" d="M11.965 72.156 43.199 86.63l.832 35.316"/><path style="fill:none;stroke-width:5;stroke-linecap:round;stroke-linejoin:round;stroke:#000;stroke-opacity:1;stroke-miterlimit:10" d="m118.372 1278.235 313.514-145.269 8.351-354.486Zm0 0" transform="matrix(.09963 0 0 -.09963 .172 199.503)"/><path style="stroke:none;fill-rule:nonzero;fill:#c794a1;fill-opacity:1" d="M43.2 86.629 11.964 72.156l54.691-16.312"/><path style="fill:none;stroke-width:5;stroke-linecap:round;stroke-linejoin:round;stroke:#000;stroke-opacity:1;stroke-miterlimit:10" d="m431.886 1132.966-313.514 145.269 548.963 163.736Zm0 0" transform="matrix(.09963 0 0 -.09963 .172 199.503)"/><path style="fill-rule:nonzero;fill:#000;fill-opacity:1;stroke-width:5;stroke-linecap:round;stroke-linejoin:round;stroke:#000;stroke-opacity:1;stroke-miterlimit:10" d="m1644.261 1482.748-42.07 381.306 28.622-257.798" transform="matrix(.09963 0 0 -.09963 .172 199.503)"/><path style="fill-rule:nonzero;fill:#72143f;fill-opacity:1;stroke-width:5;stroke-linecap:round;stroke-linejoin:round;stroke:#000;stroke-opacity:1;stroke-miterlimit:10" d="m1644.261 1482.748 285.087-192.907-272.5 77.202" transform="matrix(.09963 0 0 -.09963 .172 199.503)"/><path style="stroke:none;fill-rule:nonzero;fill:#d2fce0;fill-opacity:1" d="m192.387 71-28.403-19.219 1.786 15.766"/><path style="fill:none;stroke-width:5;stroke-linecap:round;stroke-linejoin:round;stroke:#000;stroke-opacity:1;stroke-miterlimit:10" d="m1929.348 1289.84-285.087 192.908 17.919-158.247Zm0 0" transform="matrix(.09963 0 0 -.09963 .172 199.503)"/><path style="fill-rule:nonzero;fill:#000;fill-opacity:1;stroke-width:5;stroke-linecap:round;stroke-linejoin:round;stroke:#000;stroke-opacity:1;stroke-miterlimit:10" d="m1630.813 1606.256 31.367-281.755-17.919 158.247" transform="matrix(.09963 0 0 -.09963 .172 199.503)"/><path style="fill-rule:nonzero;fill:#72143f;fill-opacity:1;stroke-width:5;stroke-linecap:round;stroke-linejoin:round;stroke:#000;stroke-opacity:1;stroke-miterlimit:10" d="m1656.847 1367.043-279.794 79.28 267.208 36.425" transform="matrix(.09963 0 0 -.09963 .172 199.503)"/><path style="fill-rule:nonzero;fill:#3a004b;fill-opacity:1;stroke-width:5;stroke-linecap:round;stroke-linejoin:round;stroke:#000;stroke-opacity:1;stroke-miterlimit:10" d="m1194.026 1680.557-174.596 223.411 237.605-159.854" transform="matrix(.09963 0 0 -.09963 .172 199.503)"/><path style="stroke:none;fill-rule:nonzero;fill:#a9f3f2;fill-opacity:1" d="M125.406 25.742 101.734 9.816l.606 14.707"/><path style="fill:none;stroke-width:5;stroke-linecap:round;stroke-linejoin:round;stroke:#000;stroke-opacity:1;stroke-miterlimit:10" d="m1257.035 1744.114-237.605 159.854 6.077-147.62Zm0 0" transform="matrix(.09963 0 0 -.09963 .172 199.503)"/><path style="fill-rule:nonzero;fill:#8a0000;fill-opacity:1;stroke-width:5;stroke-linecap:round;stroke-linejoin:round;stroke:#000;stroke-opacity:1;stroke-miterlimit:10" d="m1257.035 1744.114-231.528 12.233 299.046 55.833" transform="matrix(.09963 0 0 -.09963 .172 199.503)"/><path style="fill-rule:nonzero;fill:#8a0000;fill-opacity:1;stroke-width:5;stroke-linecap:round;stroke-linejoin:round;stroke:#000;stroke-opacity:1;stroke-miterlimit:10" d="m1324.553 1812.18 277.637 51.874-345.155-119.94" transform="matrix(.09963 0 0 -.09963 .172 199.503)"/><path style="fill-rule:nonzero;fill:#3a004b;fill-opacity:1;stroke-width:5;stroke-linecap:round;stroke-linejoin:round;stroke:#000;stroke-opacity:1;stroke-miterlimit:10" d="m1257.035 1744.114 120.018-297.79-183.027 234.233" transform="matrix(.09963 0 0 -.09963 .172 199.503)"/><path style="stroke:none;fill-rule:nonzero;fill:#755098;fill-opacity:1" d="m159.793 13.793 4.191 37.988-26.62 3.63"/><path style="fill:none;stroke-width:5;stroke-linecap:round;stroke-linejoin:round;stroke:#000;stroke-opacity:1;stroke-miterlimit:10" d="m1602.19 1864.054 42.071-381.306-267.208-36.425Zm0 0" transform="matrix(.09963 0 0 -.09963 .172 199.503)"/><path style="stroke:none;fill-rule:nonzero;fill:#a66381;fill-opacity:1" d="m125.406 25.742 34.387-11.949-22.43 41.617"/><path style="fill:none;stroke-width:5;stroke-linecap:round;stroke-linejoin:round;stroke:#000;stroke-opacity:1;stroke-miterlimit:10" d="m1257.035 1744.114 345.155 119.94-225.137-417.73Zm0 0" transform="matrix(.09963 0 0 -.09963 .172 199.503)"/><path style="stroke:none;fill-rule:nonzero;fill:#e3a997;fill-opacity:1" d="m44.352 14.441-3.88 38.098 26.184 3.305"/><path style="fill:none;stroke-width:5;stroke-linecap:round;stroke-linejoin:round;stroke:#000;stroke-opacity:1;stroke-miterlimit:10" d="m443.452 1857.545-38.934-382.403 262.817-33.171Zm0 0" transform="matrix(.09963 0 0 -.09963 .172 199.503)"/><path style="fill-rule:nonzero;fill:#00001c;fill-opacity:1;stroke-width:5;stroke-linecap:round;stroke-linejoin:round;stroke:#000;stroke-opacity:1;stroke-miterlimit:10" d="m404.518 1475.142 38.934 382.403-22.858-258.504" transform="matrix(.09963 0 0 -.09963 .172 199.503)"/><path style="fill-rule:nonzero;fill:#c0533d;fill-opacity:1;stroke-width:5;stroke-linecap:round;stroke-linejoin:round;stroke:#000;stroke-opacity:1;stroke-miterlimit:10" d="m389.423 1359.084 277.912 82.887-262.817 33.17" transform="matrix(.09963 0 0 -.09963 .172 199.503)"/><path style="fill-rule:nonzero;fill:#00001c;fill-opacity:1;stroke-width:5;stroke-linecap:round;stroke-linejoin:round;stroke:#000;stroke-opacity:1;stroke-miterlimit:10" d="m420.594 1599.041-24.937-282.577 8.861 158.678" transform="matrix(.09963 0 0 -.09963 .172 199.503)"/><path style="fill-rule:nonzero;fill:#c0533d;fill-opacity:1;stroke-width:5;stroke-linecap:round;stroke-linejoin:round;stroke:#000;stroke-opacity:1;stroke-miterlimit:10" d="m404.518 1475.142-286.146-196.907 271.05 80.849" transform="matrix(.09963 0 0 -.09963 .172 199.503)"/><path style="fill-rule:nonzero;fill:#e68348;fill-opacity:1;stroke-width:5;stroke-linecap:round;stroke-linejoin:round;stroke:#000;stroke-opacity:1;stroke-miterlimit:10" d="m847.617 1678.518 171.813 225.45-231.567-162.599" transform="matrix(.09963 0 0 -.09963 .172 199.503)"/><path style="stroke:none;fill-rule:nonzero;fill:#3c98f2;fill-opacity:1" d="m78.664 26.016 23.07-16.2.606 14.707"/><path style="fill:none;stroke-width:5;stroke-linecap:round;stroke-linejoin:round;stroke:#000;stroke-opacity:1;stroke-miterlimit:10" d="m787.862 1741.37 231.568 162.598 6.077-147.62Zm0 0" transform="matrix(.09963 0 0 -.09963 .172 199.503)"/><path style="fill-rule:nonzero;fill:#460000;fill-opacity:1;stroke-width:5;stroke-linecap:round;stroke-linejoin:round;stroke:#000;stroke-opacity:1;stroke-miterlimit:10" d="m787.862 1741.37 237.645 14.977-301.633 52.462M723.874 1808.809l-280.422 48.736 344.41-116.176" transform="matrix(.09963 0 0 -.09963 .172 199.503)"/><path style="fill-rule:nonzero;fill:#e68348;fill-opacity:1;stroke-width:5;stroke-linecap:round;stroke-linejoin:round;stroke:#000;stroke-opacity:1;stroke-miterlimit:10" d="M787.862 1741.37 667.335 1441.97l180.282 236.547" transform="matrix(.09963 0 0 -.09963 .172 199.503)"/><path style="stroke:none;fill-rule:nonzero;fill:#b87281;fill-opacity:1" d="M78.664 26.016 44.352 14.44l22.304 41.403"/><path style="fill:none;stroke-width:5;stroke-linecap:round;stroke-linejoin:round;stroke:#000;stroke-opacity:1;stroke-miterlimit:10" d="m787.862 1741.37-344.41 116.175 223.883-415.574Zm0 0" transform="matrix(.09963 0 0 -.09963 .172 199.503)"/><path style="stroke:none;fill-rule:nonzero;fill:#8782c6;fill-opacity:1" d="M161.004 177.078 140.137 154.7l20.96-33.578"/><path style="fill:none;stroke-width:5;stroke-linecap:round;stroke-linejoin:round;stroke:#000;stroke-opacity:1;stroke-miterlimit:10" d="M1614.345 225.087 1404.89 449.714l210.395 337.039Zm0 0" transform="matrix(.09963 0 0 -.09963 .172 199.503)"/><path style="fill-rule:nonzero;fill:#000075;fill-opacity:1;stroke-width:5;stroke-linecap:round;stroke-linejoin:round;stroke:#000;stroke-opacity:1;stroke-miterlimit:10" d="m1614.815 504.253.47 282.5 56.265-191.77" transform="matrix(.09963 0 0 -.09963 .172 199.503)"/><path style="stroke:none;fill-rule:nonzero;fill:#5e85e0;fill-opacity:1" d="m166.703 140.227 33.25-19.184-38.855.078"/><path style="fill:none;stroke-width:5;stroke-linecap:round;stroke-linejoin:round;stroke:#000;stroke-opacity:1;stroke-miterlimit:10" d="m1671.55 594.982 333.746 192.555-390.01-.784Zm0 0" transform="matrix(.09963 0 0 -.09963 .172 199.503)"/><path style="fill-rule:nonzero;fill:#ae2800;fill-opacity:1;stroke-width:5;stroke-linecap:round;stroke-linejoin:round;stroke:#000;stroke-opacity:1;stroke-miterlimit:10" d="m1671.55 594.982-234.233-6.155 294.968 103.197M1732.285 692.024l273.01 95.513-333.745-192.555" transform="matrix(.09963 0 0 -.09963 .172 199.503)"/><path style="fill-rule:nonzero;fill:#000075;fill-opacity:1;stroke-width:5;stroke-linecap:round;stroke-linejoin:round;stroke:#000;stroke-opacity:1;stroke-miterlimit:10" d="m1671.55 594.982-57.205-369.895.47 279.166" transform="matrix(.09963 0 0 -.09963 .172 199.503)"/><path style="fill-rule:nonzero;fill:#000;fill-opacity:1;stroke-width:5;stroke-linecap:round;stroke-linejoin:round;stroke:#000;stroke-opacity:1;stroke-miterlimit:10" d="m1805.997 1046.707 199.299-259.17-167.147 261.562" transform="matrix(.09963 0 0 -.09963 .172 199.503)"/><path style="fill-rule:nonzero;fill:#000192;fill-opacity:1;stroke-width:5;stroke-linecap:round;stroke-linejoin:round;stroke:#000;stroke-opacity:1;stroke-miterlimit:10" d="m1805.997 1046.707 123.351 243.134-153.188-245.369" transform="matrix(.09963 0 0 -.09963 .172 199.503)"/><path style="stroke:none;fill-rule:nonzero;fill:#f7ca9d;fill-opacity:1" d="m192.387 71-12.29 24.223-14.327-27.676"/><path style="fill:none;stroke-width:5;stroke-linecap:round;stroke-linejoin:round;stroke:#000;stroke-opacity:1;stroke-miterlimit:10" d="m1929.348 1289.84-123.35-243.133-143.818 277.794Zm0 0" transform="matrix(.09963 0 0 -.09963 .172 199.503)"/><path style="fill-rule:nonzero;fill:#000;fill-opacity:1;stroke-width:5;stroke-linecap:round;stroke-linejoin:round;stroke:#000;stroke-opacity:1;stroke-miterlimit:10" d="m1838.149 1049.099-175.97 275.402 143.818-277.794" transform="matrix(.09963 0 0 -.09963 .172 199.503)"/><path style="fill-rule:nonzero;fill:#000192;fill-opacity:1;stroke-width:5;stroke-linecap:round;stroke-linejoin:round;stroke:#000;stroke-opacity:1;stroke-miterlimit:10" d="m1776.16 1044.472-160.874-257.72 190.711 259.955" transform="matrix(.09963 0 0 -.09963 .172 199.503)"/><path style="stroke:none;fill-rule:nonzero;fill:#6653a8;fill-opacity:1" d="m199.953 121.043-19.855-25.82-19 25.898"/><path style="fill:none;stroke-width:5;stroke-linecap:round;stroke-linejoin:round;stroke:#000;stroke-opacity:1;stroke-miterlimit:10" d="m2005.296 787.537-199.299 259.17-190.711-259.954Zm0 0" transform="matrix(.09963 0 0 -.09963 .172 199.503)"/><path style="stroke:none;fill-rule:nonzero;fill:#d6c3c7;fill-opacity:1" d="m45.352 177.973 20.132-22.715-21.453-33.313"/><path style="fill:none;stroke-width:5;stroke-linecap:round;stroke-linejoin:round;stroke:#000;stroke-opacity:1;stroke-miterlimit:10" d="m453.49 216.108 202.082 227.999L440.237 778.48Zm0 0" transform="matrix(.09963 0 0 -.09963 .172 199.503)"/><path style="fill-rule:nonzero;fill:#f8d871;fill-opacity:1;stroke-width:5;stroke-linecap:round;stroke-linejoin:round;stroke:#000;stroke-opacity:1;stroke-miterlimit:10" d="m446.903 495.588-6.666 282.892-47.207-192.83" transform="matrix(.09963 0 0 -.09963 .172 199.503)"/><path style="stroke:none;fill-rule:nonzero;fill:#d7eae1;fill-opacity:1" d="M39.328 141.156 5.968 122.41l38.063-.465"/><path style="fill:none;stroke-width:5;stroke-linecap:round;stroke-linejoin:round;stroke:#000;stroke-opacity:1;stroke-miterlimit:10" d="M393.03 585.65 58.187 773.815l382.05 4.666Zm0 0" transform="matrix(.09963 0 0 -.09963 .172 199.503)"/><path style="fill-rule:nonzero;fill:#430000;fill-opacity:1;stroke-width:5;stroke-linecap:round;stroke-linejoin:round;stroke:#000;stroke-opacity:1;stroke-miterlimit:10" d="m393.03 585.65 241.37-2.626-299.007 99.002" transform="matrix(.09963 0 0 -.09963 .172 199.503)"/><path style="fill-rule:nonzero;fill:#430000;fill-opacity:1;stroke-width:5;stroke-linecap:round;stroke-linejoin:round;stroke:#000;stroke-opacity:1;stroke-miterlimit:10" d="M335.393 682.026 58.187 773.814 393.03 585.65" transform="matrix(.09963 0 0 -.09963 .172 199.503)"/><path style="fill-rule:nonzero;fill:#f8d871;fill-opacity:1;stroke-width:5;stroke-linecap:round;stroke-linejoin:round;stroke:#000;stroke-opacity:1;stroke-miterlimit:10" d="m393.03 585.65 60.46-369.542-6.587 279.48" transform="matrix(.09963 0 0 -.09963 .172 199.503)"/><path style="fill-rule:nonzero;fill:#c75800;fill-opacity:1;stroke-width:5;stroke-linecap:round;stroke-linejoin:round;stroke:#000;stroke-opacity:1;stroke-miterlimit:10" d="M249.996 1036.238 58.186 773.814l164.442 264.463" transform="matrix(.09963 0 0 -.09963 .172 199.503)"/><path style="fill-rule:nonzero;fill:#c2eb8e;fill-opacity:1;stroke-width:5;stroke-linecap:round;stroke-linejoin:round;stroke:#000;stroke-opacity:1;stroke-miterlimit:10" d="m249.996 1036.238-131.624 241.997 157.031-243.84" transform="matrix(.09963 0 0 -.09963 .172 199.503)"/><path style="stroke:none;fill-rule:nonzero;fill:#47399d;fill-opacity:1" d="m11.965 72.156 13.113 24.11L39.59 68.348"/><path style="fill:none;stroke-width:5;stroke-linecap:round;stroke-linejoin:round;stroke:#000;stroke-opacity:1;stroke-miterlimit:10" d="m118.372 1278.235 131.624-241.997 145.66 280.226Zm0 0" transform="matrix(.09963 0 0 -.09963 .172 199.503)"/><path style="fill-rule:nonzero;fill:#c75800;fill-opacity:1;stroke-width:5;stroke-linecap:round;stroke-linejoin:round;stroke:#000;stroke-opacity:1;stroke-miterlimit:10" d="m222.628 1038.277 173.029 278.187-145.66-280.226" transform="matrix(.09963 0 0 -.09963 .172 199.503)"/><path style="fill-rule:nonzero;fill:#c2eb8e;fill-opacity:1;stroke-width:5;stroke-linecap:round;stroke-linejoin:round;stroke:#000;stroke-opacity:1;stroke-miterlimit:10" d="M275.403 1034.395 440.237 778.48l-190.24 257.758" transform="matrix(.09963 0 0 -.09963 .172 199.503)"/><path style="stroke:none;fill-rule:nonzero;fill:#ebc0a8;fill-opacity:1" d="m5.969 122.41 19.11-26.144 18.952 25.68"/><path style="fill:none;stroke-width:5;stroke-linecap:round;stroke-linejoin:round;stroke:#000;stroke-opacity:1;stroke-miterlimit:10" d="m58.187 773.814 191.81 262.424 190.24-257.758Zm0 0" transform="matrix(.09963 0 0 -.09963 .172 199.503)"/><path style="stroke:none;fill-rule:nonzero;fill:#2c72e0;fill-opacity:1" d="M11.965 72.156 40.473 52.54l-.883 15.809"/><path style="fill:none;stroke-width:5;stroke-linecap:round;stroke-linejoin:round;stroke:#000;stroke-opacity:1;stroke-miterlimit:10" d="m118.372 1278.235 286.146 196.907-8.861-158.678Zm0 0" transform="matrix(.09963 0 0 -.09963 .172 199.503)"/><path style="fill-rule:nonzero;fill:#000004;fill-opacity:1;stroke-width:5;stroke-linecap:round;stroke-linejoin:round;stroke:#000;stroke-opacity:1;stroke-miterlimit:10" d="M788.725 302.446 634.4 583.024l207.846-263.091" transform="matrix(.09963 0 0 -.09963 .172 199.503)"/><path style="fill-rule:nonzero;fill:#350000;fill-opacity:1;stroke-width:5;stroke-linecap:round;stroke-linejoin:round;stroke:#000;stroke-opacity:1;stroke-miterlimit:10" d="m788.725 302.446 243.212 55.715-292.968-71.948" transform="matrix(.09963 0 0 -.09963 .172 199.503)"/><path style="stroke:none;fill-rule:nonzero;fill:#bde7f2;fill-opacity:1" d="m78.75 169.371 24.973 23.113-.743-28.664"/><path style="fill:none;stroke-width:5;stroke-linecap:round;stroke-linejoin:round;stroke:#000;stroke-opacity:1;stroke-miterlimit:10" d="m788.725 302.446 250.662-231.999-7.45 287.714Zm0 0" transform="matrix(.09963 0 0 -.09963 .172 199.503)"/><path style="fill-rule:nonzero;fill:#000004;fill-opacity:1;stroke-width:5;stroke-linecap:round;stroke-linejoin:round;stroke:#000;stroke-opacity:1;stroke-miterlimit:10" d="m842.245 319.933 197.142-249.486-250.662 231.999" transform="matrix(.09963 0 0 -.09963 .172 199.503)"/><path style="fill-rule:nonzero;fill:#350000;fill-opacity:1;stroke-width:5;stroke-linecap:round;stroke-linejoin:round;stroke:#000;stroke-opacity:1;stroke-miterlimit:10" d="m738.97 286.213-285.48-70.105 335.235 86.338" transform="matrix(.09963 0 0 -.09963 .172 199.503)"/><path style="fill-rule:nonzero;fill:#d76200;fill-opacity:1;stroke-width:5;stroke-linecap:round;stroke-linejoin:round;stroke:#000;stroke-opacity:1;stroke-miterlimit:10" d="m1281.854 306.249 155.463 282.578-204.12-265.914" transform="matrix(.09963 0 0 -.09963 .172 199.503)"/><path style="fill-rule:nonzero;fill:#000;fill-opacity:1;stroke-width:5;stroke-linecap:round;stroke-linejoin:round;stroke:#000;stroke-opacity:1;stroke-miterlimit:10" d="m1281.854 306.249-249.917 51.912 295.203-67.439" transform="matrix(.09963 0 0 -.09963 .172 199.503)"/><path style="stroke:none;fill-rule:nonzero;fill:#6ea4f2;fill-opacity:1" d="m127.879 168.992-24.156 23.492-.743-28.664"/><path style="fill:none;stroke-width:5;stroke-linecap:round;stroke-linejoin:round;stroke:#000;stroke-opacity:1;stroke-miterlimit:10" d="M1281.854 306.249 1039.387 70.447l-7.45 287.714Zm0 0" transform="matrix(.09963 0 0 -.09963 .172 199.503)"/><path style="fill-rule:nonzero;fill:#d76200;fill-opacity:1;stroke-width:5;stroke-linecap:round;stroke-linejoin:round;stroke:#000;stroke-opacity:1;stroke-miterlimit:10" d="M1233.196 322.913 1039.387 70.447l242.467 235.802" transform="matrix(.09963 0 0 -.09963 .172 199.503)"/><path style="fill-rule:nonzero;fill:#000;fill-opacity:1;stroke-width:5;stroke-linecap:round;stroke-linejoin:round;stroke:#000;stroke-opacity:1;stroke-miterlimit:10" d="m1327.14 290.722 287.205-65.635-332.49 81.162" transform="matrix(.09963 0 0 -.09963 .172 199.503)"/><path style="stroke:none;fill-rule:nonzero;fill:#ddcfca;fill-opacity:1" d="m159.793 13.793-17.02 17.762 22.997 35.992"/><path style="fill:none;stroke-width:5;stroke-linecap:round;stroke-linejoin:round;stroke:#000;stroke-opacity:1;stroke-miterlimit:10" d="m1602.19 1864.054-170.833-178.283 230.823-361.27Zm0 0" transform="matrix(.09963 0 0 -.09963 .172 199.503)"/><path style="fill-rule:nonzero;fill:#a3c4f1;fill-opacity:1;stroke-width:5;stroke-linecap:round;stroke-linejoin:round;stroke:#000;stroke-opacity:1;stroke-miterlimit:10" d="m1431.357 1685.771 170.833 178.283-277.637-51.874" transform="matrix(.09963 0 0 -.09963 .172 199.503)"/><path style="fill-rule:nonzero;fill:#000;fill-opacity:1;stroke-width:5;stroke-linecap:round;stroke-linejoin:round;stroke:#000;stroke-opacity:1;stroke-miterlimit:10" d="m1431.357 1685.771-5.763 95.709 118.88-229.646" transform="matrix(.09963 0 0 -.09963 .172 199.503)"/><path style="fill-rule:nonzero;fill:#000;fill-opacity:1;stroke-width:5;stroke-linecap:round;stroke-linejoin:round;stroke:#000;stroke-opacity:1;stroke-miterlimit:10" d="m1544.475 1551.834 117.705-227.333-230.823 361.27" transform="matrix(.09963 0 0 -.09963 .172 199.503)"/><path style="fill-rule:nonzero;fill:#a3c4f1;fill-opacity:1;stroke-width:5;stroke-linecap:round;stroke-linejoin:round;stroke:#000;stroke-opacity:1;stroke-miterlimit:10" d="m1324.553 1812.18-299.046-55.833 405.85-70.576" transform="matrix(.09963 0 0 -.09963 .172 199.503)"/><path style="stroke:none;fill-rule:nonzero;fill:#787bc9;fill-opacity:1" d="m44.352 14.441 17.824 17.586-22.586 36.32"/><path style="fill:none;stroke-width:5;stroke-linecap:round;stroke-linejoin:round;stroke:#000;stroke-opacity:1;stroke-miterlimit:10" d="m443.452 1857.545 178.91-176.518-226.705-364.563Zm0 0" transform="matrix(.09963 0 0 -.09963 .172 199.503)"/><path style="fill-rule:nonzero;fill:#a3c4f1;fill-opacity:1;stroke-width:5;stroke-linecap:round;stroke-linejoin:round;stroke:#000;stroke-opacity:1;stroke-miterlimit:10" d="m622.362 1681.027-178.91 176.518 280.422-48.736" transform="matrix(.09963 0 0 -.09963 .172 199.503)"/><path style="fill-rule:nonzero;fill:#c75800;fill-opacity:1;stroke-width:5;stroke-linecap:round;stroke-linejoin:round;stroke:#000;stroke-opacity:1;stroke-miterlimit:10" d="m622.362 1681.027 12.665 95.944-120.293-231.332M514.734 1545.639l-119.077-229.175 226.705 364.563" transform="matrix(.09963 0 0 -.09963 .172 199.503)"/><path style="fill-rule:nonzero;fill:#a3c4f1;fill-opacity:1;stroke-width:5;stroke-linecap:round;stroke-linejoin:round;stroke:#000;stroke-opacity:1;stroke-miterlimit:10" d="m723.874 1808.809 301.633-52.462-403.145-75.32" transform="matrix(.09963 0 0 -.09963 .172 199.503)"/><path style="stroke:none;fill-rule:nonzero;fill:#edad8a;fill-opacity:1" d="m166.703 140.227-5.7 36.851-17.636-36.238"/><path style="fill:none;stroke-width:5;stroke-linecap:round;stroke-linejoin:round;stroke:#000;stroke-opacity:1;stroke-miterlimit:10" d="m1671.55 594.982-57.205-369.895-177.028 363.74Zm0 0" transform="matrix(.09963 0 0 -.09963 .172 199.503)"/><path style="stroke:none;fill-rule:nonzero;fill:#b76771;fill-opacity:1" d="m127.879 168.992 33.125 8.086-17.637-36.238"/><path style="fill:none;stroke-width:5;stroke-linecap:round;stroke-linejoin:round;stroke:#000;stroke-opacity:1;stroke-miterlimit:10" d="m1281.854 306.249 332.49-81.162-177.027 363.74Zm0 0" transform="matrix(.09963 0 0 -.09963 .172 199.503)"/><path style="stroke:none;fill-rule:nonzero;fill:#5d388b;fill-opacity:1" d="m39.328 141.156 6.024 36.817 18.023-36.555"/><path style="fill:none;stroke-width:5;stroke-linecap:round;stroke-linejoin:round;stroke:#000;stroke-opacity:1;stroke-miterlimit:10" d="m393.03 585.65 60.46-369.542L634.4 583.024Zm0 0" transform="matrix(.09963 0 0 -.09963 .172 199.503)"/><path style="stroke:none;fill-rule:nonzero;fill:#a05471;fill-opacity:1" d="m78.75 169.371-33.398 8.602 18.023-36.555"/><path style="fill:none;stroke-width:5;stroke-linecap:round;stroke-linejoin:round;stroke:#000;stroke-opacity:1;stroke-miterlimit:10" d="M788.725 302.446 453.49 216.108 634.4 583.024Zm0 0" transform="matrix(.09963 0 0 -.09963 .172 199.503)"/><path style="stroke:none;fill-rule:nonzero;fill:#460000;fill-opacity:1" d="m142.2 22.02.573 9.535-40.433-7.032"/><path style="fill:none;stroke-width:5;stroke-linecap:round;stroke-linejoin:round;stroke:#000;stroke-opacity:1;stroke-miterlimit:10" d="m1425.594 1781.48 5.763-95.709-405.85 70.576Zm0 0" transform="matrix(.09963 0 0 -.09963 .172 199.503)"/><path style="stroke:none;fill-rule:nonzero;fill:#3c98f2;fill-opacity:1" d="m102.805 35.852 39.394-13.832-39.86 2.503"/><path style="fill:none;stroke-width:5;stroke-linecap:round;stroke-linejoin:round;stroke:#000;stroke-opacity:1;stroke-miterlimit:10" d="m1030.173 1642.642 395.42 138.838-400.086-25.133Zm0 0" transform="matrix(.09963 0 0 -.09963 .172 199.503)"/><path style="stroke:none;fill-rule:nonzero;fill:#8a0000;fill-opacity:1" d="m63.438 22.469-1.262 9.558 40.164-7.504"/><path style="fill:none;stroke-width:5;stroke-linecap:round;stroke-linejoin:round;stroke:#000;stroke-opacity:1;stroke-miterlimit:10" d="m635.027 1776.971-12.665-95.944 403.145 75.32Zm0 0" transform="matrix(.09963 0 0 -.09963 .172 199.503)"/><path style="stroke:none;fill-rule:nonzero;fill:#a9f3f2;fill-opacity:1" d="M102.805 35.852 63.437 22.469l38.903 2.054"/><path style="fill:none;stroke-width:5;stroke-linecap:round;stroke-linejoin:round;stroke:#000;stroke-opacity:1;stroke-miterlimit:10" d="M1030.173 1642.642 635.027 1776.97l390.48-20.624Zm0 0" transform="matrix(.09963 0 0 -.09963 .172 199.503)"/><path style="stroke:none;fill-rule:nonzero;fill:#cc949b;fill-opacity:1" d="m170.055 106.07 29.898 14.973-56.586 19.797"/><path style="fill:none;stroke-width:5;stroke-linecap:round;stroke-linejoin:round;stroke:#000;stroke-opacity:1;stroke-miterlimit:10" d="m1705.192 937.824 300.104-150.287-567.979-198.71Zm0 0" transform="matrix(.09963 0 0 -.09963 .172 199.503)"/><path style="fill-rule:nonzero;fill:#d76200;fill-opacity:1;stroke-width:5;stroke-linecap:round;stroke-linejoin:round;stroke:#000;stroke-opacity:1;stroke-miterlimit:10" d="m1705.192 937.824-267.875-348.997 127.154 231.175" transform="matrix(.09963 0 0 -.09963 .172 199.503)"/><path style="fill-rule:nonzero;fill:#ddcfca;fill-opacity:1;stroke-width:5;stroke-linecap:round;stroke-linejoin:round;stroke:#000;stroke-opacity:1;stroke-miterlimit:10" d="m1705.192 937.824-43.012 386.677 175.969-275.402" transform="matrix(.09963 0 0 -.09963 .172 199.503)"/><path style="stroke:none;fill-rule:nonzero;fill:#000;fill-opacity:1" d="m170.055 106.07-1.227-11.52-3.058-27.003"/><path style="fill:none;stroke-width:5;stroke-linecap:round;stroke-linejoin:round;stroke:#000;stroke-opacity:1;stroke-miterlimit:10" d="m1705.192 937.824-12.312 115.627-30.7 271.05Zm0 0" transform="matrix(.09963 0 0 -.09963 .172 199.503)"/><path style="fill-rule:nonzero;fill:#d76200;fill-opacity:1;stroke-width:5;stroke-linecap:round;stroke-linejoin:round;stroke:#000;stroke-opacity:1;stroke-miterlimit:10" d="m1564.471 820.002 128.41 233.449 12.31-115.627" transform="matrix(.09963 0 0 -.09963 .172 199.503)"/><path style="fill-rule:nonzero;fill:#ddcfca;fill-opacity:1;stroke-width:5;stroke-linecap:round;stroke-linejoin:round;stroke:#000;stroke-opacity:1;stroke-miterlimit:10" d="m1838.149 1049.099 167.147-261.562-300.104 150.287" transform="matrix(.09963 0 0 -.09963 .172 199.503)"/><path style="stroke:none;fill-rule:nonzero;fill:#f7ca9d;fill-opacity:1" d="m142.2 22.02 3.292 42.894 20.278 2.633"/><path style="fill:none;stroke-width:5;stroke-linecap:round;stroke-linejoin:round;stroke:#000;stroke-opacity:1;stroke-miterlimit:10" d="m1425.594 1781.48 33.053-430.552 203.533-26.427Zm0 0" transform="matrix(.09963 0 0 -.09963 .172 199.503)"/><path style="stroke:none;fill-rule:nonzero;fill:#d2fce0;fill-opacity:1" d="m168.828 94.55-23.336-29.636 20.278 2.633"/><path style="fill:none;stroke-width:5;stroke-linecap:round;stroke-linejoin:round;stroke:#000;stroke-opacity:1;stroke-miterlimit:10" d="m1692.88 1053.451-234.233 297.477 203.533-26.427Zm0 0" transform="matrix(.09963 0 0 -.09963 .172 199.503)"/><path style="stroke:none;fill-rule:nonzero;fill:#986b9b;fill-opacity:1" d="M36.176 106.988 5.969 122.41l57.406 19.008"/><path style="fill:none;stroke-width:5;stroke-linecap:round;stroke-linejoin:round;stroke:#000;stroke-opacity:1;stroke-miterlimit:10" d="M361.388 928.61 58.187 773.814l576.212-190.79Zm0 0" transform="matrix(.09963 0 0 -.09963 .172 199.503)"/><path style="stroke:none;fill-rule:nonzero;fill:#787bc9;fill-opacity:1" d="m5.969 122.41 30.207-15.422 3.414-38.64"/><path style="fill:none;stroke-width:5;stroke-linecap:round;stroke-linejoin:round;stroke:#000;stroke-opacity:1;stroke-miterlimit:10" d="M58.187 773.814 361.388 928.61l34.269 387.854Zm0 0" transform="matrix(.09963 0 0 -.09963 .172 199.503)"/><path style="stroke:none;fill-rule:nonzero;fill:#2c72e0;fill-opacity:1" d="M38.078 95.422 60.61 65.449l-21.02 2.899"/><path style="fill:none;stroke-width:5;stroke-linecap:round;stroke-linejoin:round;stroke:#000;stroke-opacity:1;stroke-miterlimit:10" d="m380.483 1044.707 226.156 300.85-210.982-29.093Zm0 0" transform="matrix(.09963 0 0 -.09963 .172 199.503)"/><path style="stroke:none;fill-rule:nonzero;fill:#47399d;fill-opacity:1" d="m63.438 22.469-2.829 42.98-21.02 2.899"/><path style="fill:none;stroke-width:5;stroke-linecap:round;stroke-linejoin:round;stroke:#000;stroke-opacity:1;stroke-miterlimit:10" d="m635.027 1776.971-28.388-431.414-210.982-29.093Zm0 0" transform="matrix(.09963 0 0 -.09963 .172 199.503)"/><path style="stroke:none;fill-rule:nonzero;fill:#00001c;fill-opacity:1" d="m36.176 106.988 1.902-11.566 1.512-27.074"/><path style="fill:none;stroke-width:5;stroke-linecap:round;stroke-linejoin:round;stroke:#000;stroke-opacity:1;stroke-miterlimit:10" d="m361.388 928.61 19.095 116.097 15.174 271.757Zm0 0" transform="matrix(.09963 0 0 -.09963 .172 199.503)"/><path style="stroke:none;fill-rule:nonzero;fill:#986b9b;fill-opacity:1" d="m103.61 154.742.113 37.742-40.348-51.066"/><path style="fill:none;stroke-width:5;stroke-linecap:round;stroke-linejoin:round;stroke:#000;stroke-opacity:1;stroke-miterlimit:10" d="m1038.25 449.283 1.137-378.836-404.988 512.577Zm0 0" transform="matrix(.09963 0 0 -.09963 .172 199.503)"/><path style="stroke:none;fill-rule:nonzero;fill:#cc949b;fill-opacity:1" d="m103.61 154.742.113 37.742 39.644-51.644"/><path style="fill:none;stroke-width:5;stroke-linecap:round;stroke-linejoin:round;stroke:#000;stroke-opacity:1;stroke-miterlimit:10" d="m1038.25 449.283 1.137-378.836 397.93 518.38Zm0 0" transform="matrix(.09963 0 0 -.09963 .172 199.503)"/><path style="stroke:none;fill-rule:nonzero;fill:#edad8a;fill-opacity:1" d="m130.191 113.77-26.25 28.097 39.426-1.027"/><path style="fill:none;stroke-width:5;stroke-linecap:round;stroke-linejoin:round;stroke:#000;stroke-opacity:1;stroke-miterlimit:10" d="m1305.066 860.544-263.483-282.03 395.734 10.313Zm0 0" transform="matrix(.09963 0 0 -.09963 .172 199.503)"/><path style="stroke:none;fill-rule:nonzero;fill:#b76771;fill-opacity:1" d="m130.191 113.77 38.637-19.22-25.46 46.29"/><path style="fill:none;stroke-width:5;stroke-linecap:round;stroke-linejoin:round;stroke:#000;stroke-opacity:1;stroke-miterlimit:10" d="m1305.066 860.544 387.814 192.907-255.563-464.624Zm0 0" transform="matrix(.09963 0 0 -.09963 .172 199.503)"/><path style="stroke:none;fill-rule:nonzero;fill:#ae2800;fill-opacity:1" d="m103.941 141.867-.332 12.875 39.758-13.902"/><path style="fill:none;stroke-width:5;stroke-linecap:round;stroke-linejoin:round;stroke:#000;stroke-opacity:1;stroke-miterlimit:10" d="m1041.583 578.515-3.333-129.232 399.067 139.544Zm0 0" transform="matrix(.09963 0 0 -.09963 .172 199.503)"/><path style="stroke:none;fill-rule:nonzero;fill:#5d388b;fill-opacity:1" d="m76.832 114.14 27.11 27.727-40.567-.449"/><path style="fill:none;stroke-width:5;stroke-linecap:round;stroke-linejoin:round;stroke:#000;stroke-opacity:1;stroke-miterlimit:10" d="m769.474 856.819 272.109-278.304-407.184 4.509Zm0 0" transform="matrix(.09963 0 0 -.09963 .172 199.503)"/><path style="stroke:none;fill-rule:nonzero;fill:#a05471;fill-opacity:1" d="M76.832 114.14 38.078 95.423l25.297 45.996"/><path style="fill:none;stroke-width:5;stroke-linecap:round;stroke-linejoin:round;stroke:#000;stroke-opacity:1;stroke-miterlimit:10" d="m769.474 856.819-388.99 187.888 253.915-461.683Zm0 0" transform="matrix(.09963 0 0 -.09963 .172 199.503)"/><path style="stroke:none;fill-rule:nonzero;fill:#430000;fill-opacity:1" d="m103.941 141.867-.332 12.875-40.234-13.324"/><path style="fill:none;stroke-width:5;stroke-linecap:round;stroke-linejoin:round;stroke:#000;stroke-opacity:1;stroke-miterlimit:10" d="m1041.583 578.515-3.333-129.232-403.85 133.74Zm0 0" transform="matrix(.09963 0 0 -.09963 .172 199.503)"/><path style="stroke:none;fill-rule:nonzero;fill:#000004;fill-opacity:1" d="m38.078 95.422-1.902 11.566 27.199 34.43"/><path style="fill:none;stroke-width:5;stroke-linecap:round;stroke-linejoin:round;stroke:#000;stroke-opacity:1;stroke-miterlimit:10" d="M380.483 1044.707 361.388 928.61 634.4 583.024Zm0 0" transform="matrix(.09963 0 0 -.09963 .172 199.503)"/><path style="stroke:none;fill-rule:nonzero;fill:#988ec8;fill-opacity:1" d="m142.2 22.02-39.395 13.832.441 41.062"/><path style="fill:none;stroke-width:5;stroke-linecap:round;stroke-linejoin:round;stroke:#000;stroke-opacity:1;stroke-miterlimit:10" d="m1425.594 1781.48-395.421-138.838 4.43-412.163Zm0 0" transform="matrix(.09963 0 0 -.09963 .172 199.503)"/><path style="stroke:none;fill-rule:nonzero;fill:#cbb9c8;fill-opacity:1" d="m63.438 22.469 39.367 13.383.441 41.062"/><path style="fill:none;stroke-width:5;stroke-linecap:round;stroke-linejoin:round;stroke:#000;stroke-opacity:1;stroke-miterlimit:10" d="m635.027 1776.971 395.146-134.33 4.43-412.162Zm0 0" transform="matrix(.09963 0 0 -.09963 .172 199.503)"/><path style="stroke:none;fill-rule:nonzero;fill:#c29aae;fill-opacity:1" d="M145.492 64.914 142.2 22.02l-38.953 54.894"/><path style="fill:none;stroke-width:5;stroke-linecap:round;stroke-linejoin:round;stroke:#000;stroke-opacity:1;stroke-miterlimit:10" d="m1458.647 1350.928-33.053 430.552-390.99-551.001Zm0 0" transform="matrix(.09963 0 0 -.09963 .172 199.503)"/><path style="stroke:none;fill-rule:nonzero;fill:#afb3db;fill-opacity:1" d="m145.492 64.914 23.336 29.637-65.582-17.637"/><path style="fill:none;stroke-width:5;stroke-linecap:round;stroke-linejoin:round;stroke:#000;stroke-opacity:1;stroke-miterlimit:10" d="m1458.647 1350.928 234.233-297.477-658.277 177.028Zm0 0" transform="matrix(.09963 0 0 -.09963 .172 199.503)"/><path style="stroke:none;fill-rule:nonzero;fill:#a683ae;fill-opacity:1" d="m60.61 65.45 2.828-42.981 39.808 54.445"/><path style="fill:none;stroke-width:5;stroke-linecap:round;stroke-linejoin:round;stroke:#000;stroke-opacity:1;stroke-miterlimit:10" d="m606.64 1345.557 28.387 431.414 399.576-546.492Zm0 0" transform="matrix(.09963 0 0 -.09963 .172 199.503)"/><path style="stroke:none;fill-rule:nonzero;fill:#afb3db;fill-opacity:1" d="M60.61 65.45 38.077 95.421l65.168-18.508"/><path style="fill:none;stroke-width:5;stroke-linecap:round;stroke-linejoin:round;stroke:#000;stroke-opacity:1;stroke-miterlimit:10" d="m606.64 1345.557-226.157-300.85 654.12 185.772Zm0 0" transform="matrix(.09963 0 0 -.09963 .172 199.503)"/><path style="stroke:none;fill-rule:nonzero;fill:#a683ae;fill-opacity:1" d="m130.191 113.77 38.637-19.22-65.582-17.636"/><path style="fill:none;stroke-width:5;stroke-linecap:round;stroke-linejoin:round;stroke:#000;stroke-opacity:1;stroke-miterlimit:10" d="m1305.066 860.544 387.814 192.907-658.277 177.028Zm0 0" transform="matrix(.09963 0 0 -.09963 .172 199.503)"/><path style="stroke:none;fill-rule:nonzero;fill:#c29aae;fill-opacity:1" d="M76.832 114.14 38.078 95.423l65.168-18.508"/><path style="fill:none;stroke-width:5;stroke-linecap:round;stroke-linejoin:round;stroke:#000;stroke-opacity:1;stroke-miterlimit:10" d="m769.474 856.819-388.99 187.888 654.12 185.772Zm0 0" transform="matrix(.09963 0 0 -.09963 .172 199.503)"/><path style="stroke:none;fill-rule:nonzero;fill:#988ec8;fill-opacity:1" d="m103.941 141.867-27.109-27.726 26.414-37.227"/><path style="fill:none;stroke-width:5;stroke-linecap:round;stroke-linejoin:round;stroke:#000;stroke-opacity:1;stroke-miterlimit:10" d="m1041.583 578.515-272.11 278.304 265.13 373.66Zm0 0" transform="matrix(.09963 0 0 -.09963 .172 199.503)"/><path style="stroke:none;fill-rule:nonzero;fill:#cbb9c8;fill-opacity:1" d="m103.941 141.867 26.25-28.097-26.945-36.856"/><path style="fill:none;stroke-width:5;stroke-linecap:round;stroke-linejoin:round;stroke:#000;stroke-opacity:1;stroke-miterlimit:10" d="m1041.583 578.515 263.483 282.029-270.463 369.935Zm0 0" transform="matrix(.09963 0 0 -.09963 .172 199.503)"/></svg>