<svg xmlns="http://www.w3.org/2000/svg" width="248.653" height="253.853" viewBox="0 0 186.49 190.39" version="1.2"><defs><clipPath id="a"><path d="M47 131h59v58.781H47Zm0 0"/></clipPath><clipPath id="b"><path d="M44 128h65v61.781H44Zm0 0"/></clipPath><clipPath id="c"><path d="M79 131h56v58.781H79Zm0 0"/></clipPath><clipPath id="d"><path d="M76 128h62v61.781H76Zm0 0"/></clipPath><clipPath id="e"><path d="M.043 31H42v54H.043Zm0 0"/></clipPath><clipPath id="f"><path d="M.043 28H45v60H.043Zm0 0"/></clipPath><clipPath id="g"><path d="M.043 62H42v57H.043Zm0 0"/></clipPath><clipPath id="h"><path d="M.043 59H45v63H.043Zm0 0"/></clipPath><clipPath id="i"><path d="M105 129h75v60.781h-75Zm0 0"/></clipPath><clipPath id="j"><path d="M102 126h81v63.781h-81Zm0 0"/></clipPath><clipPath id="k"><path d="M47 167h59v22.781H47Zm0 0"/></clipPath><clipPath id="l"><path d="M44 164h65v25.781H44Zm0 0"/></clipPath><clipPath id="m"><path d="M.043 31H40v32H.043Zm0 0"/></clipPath><clipPath id="n"><path d="M.043 28H43v38H.043Zm0 0"/></clipPath><clipPath id="o"><path d="M.043 62H14v57H.043Zm0 0"/></clipPath><clipPath id="p"><path d="M.043 59H17v63H.043Zm0 0"/></clipPath><clipPath id="q"><path d="M158 38h27.938v92H158Zm0 0"/></clipPath><clipPath id="r"><path d="M155 34h30.938v99H155Zm0 0"/></clipPath><clipPath id="s"><path d="M141 16h44.938v58H141Zm0 0"/></clipPath><clipPath id="t"><path d="M138 13h47.938v64H138Zm0 0"/></clipPath><clipPath id="u"><path d="M105 129h75v60.781h-75Zm0 0"/></clipPath><clipPath id="v"><path d="M102 126h81v63.781h-81Zm0 0"/></clipPath><clipPath id="w"><path d="M156 73h29.938v57H156Zm0 0"/></clipPath><clipPath id="x"><path d="M153 70h32.938v63H153Zm0 0"/></clipPath><clipPath id="y"><path d="M81 170h72v19.781H81Zm0 0"/></clipPath><clipPath id="z"><path d="M78 167h78v22.781H78Zm0 0"/></clipPath><clipPath id="A"><path d="M.043 31H40v73H.043Zm0 0"/></clipPath><clipPath id="B"><path d="M.043 28H43v79H.043Zm0 0"/></clipPath><clipPath id="C"><path d="M107 50h78.938v63H107Zm0 0"/></clipPath><clipPath id="D"><path d="M104 47h81.938v69H104Zm0 0"/></clipPath><clipPath id="E"><path d="M107 16h78.938v58H107Zm0 0"/></clipPath><clipPath id="F"><path d="M104 13h81.938v64H104Zm0 0"/></clipPath></defs><path style="stroke:none;fill-rule:evenodd;fill:#c6abb2;fill-opacity:1" d="m99.781 75.078-20.129 56.063-38.035-46.328 58.164-9.735"/><path style="fill:none;stroke-width:5.508;stroke-linecap:butt;stroke-linejoin:miter;stroke:#231f20;stroke-opacity:1;stroke-miterlimit:4" d="m1000.572 1150.713-201.934-562.42-381.57 464.765Zm0 0" transform="matrix(.09968 0 0 -.09968 .044 189.782)"/><path style="fill-rule:evenodd;fill:#b09bb3;fill-opacity:1;stroke-width:5.508;stroke-linecap:butt;stroke-linejoin:miter;stroke:#231f20;stroke-opacity:1;stroke-miterlimit:4" d="m1549.513 984.793-548.941 165.92-201.934-562.42" transform="matrix(.09968 0 0 -.09968 .044 189.782)"/><path style="fill-rule:evenodd;fill:#c69791;fill-opacity:1;stroke-width:5.508;stroke-linecap:butt;stroke-linejoin:miter;stroke:#231f20;stroke-opacity:1;stroke-miterlimit:4" d="m417.068 1053.058 583.504 97.655 5.094 525.546" transform="matrix(.09968 0 0 -.09968 .044 189.782)"/><path style="fill-rule:evenodd;fill:#9f7e8e;fill-opacity:1;stroke-width:5.508;stroke-linecap:butt;stroke-linejoin:miter;stroke:#231f20;stroke-opacity:1;stroke-miterlimit:4" d="m1549.513 984.793-548.941 165.92 5.094 525.546" transform="matrix(.09968 0 0 -.09968 .044 189.782)"/><path style="fill-rule:evenodd;fill:#dac8c6;fill-opacity:1;stroke-width:5.508;stroke-linecap:butt;stroke-linejoin:miter;stroke:#231f20;stroke-opacity:1;stroke-miterlimit:4" d="m480.356 224.552 318.282 363.74-381.57 464.766" transform="matrix(.09968 0 0 -.09968 .044 189.782)"/><path style="fill-rule:evenodd;fill:#b09bb3;fill-opacity:1;stroke-width:5.508;stroke-linecap:butt;stroke-linejoin:miter;stroke:#231f20;stroke-opacity:1;stroke-miterlimit:4" d="m798.638 588.292 545.61-190.217 205.265 586.718" transform="matrix(.09968 0 0 -.09968 .044 189.782)"/><g clip-path="url(#a)"><path style="stroke:none;fill-rule:evenodd;fill:#b4b5d3;fill-opacity:1" d="m105.332 189.496-57.406-22.098 31.726-36.257"/></g><g clip-path="url(#b)"><path style="fill:none;stroke-width:5.508;stroke-linecap:butt;stroke-linejoin:miter;stroke:#231f20;stroke-opacity:1;stroke-miterlimit:4" d="M1056.258 2.868 480.356 224.552l318.282 363.74" transform="matrix(.09968 0 0 -.09968 .044 189.782)"/></g><g clip-path="url(#c)"><path style="stroke:none;fill-rule:evenodd;fill:#b4b5d3;fill-opacity:1" d="m79.652 131.14 54.387 18.962-28.707 39.394"/></g><g clip-path="url(#d)"><path style="fill:none;stroke-width:5.508;stroke-linecap:butt;stroke-linejoin:miter;stroke:#231f20;stroke-opacity:1;stroke-miterlimit:4" d="m798.638 588.292 545.61-190.217-287.99-395.207" transform="matrix(.09968 0 0 -.09968 .044 189.782)"/></g><path style="fill-rule:evenodd;fill:#dac8c6;fill-opacity:1;stroke-width:5.508;stroke-linecap:butt;stroke-linejoin:miter;stroke:#231f20;stroke-opacity:1;stroke-miterlimit:4" d="M417.068 1053.058 63.517 720.04l416.839-495.489" transform="matrix(.09968 0 0 -.09968 .044 189.782)"/><path style="fill-rule:evenodd;fill:#c69791;fill-opacity:1;stroke-width:5.508;stroke-linecap:butt;stroke-linejoin:miter;stroke:#231f20;stroke-opacity:1;stroke-miterlimit:4" d="m1005.666 1676.259-621.242-90.798 32.644-532.403" transform="matrix(.09968 0 0 -.09968 .044 189.782)"/><g clip-path="url(#e)"><path style="stroke:none;fill-rule:evenodd;fill:#edb381;fill-opacity:1" d="m.363 62.79 38-31.048 3.254 53.07"/></g><g clip-path="url(#f)"><path style="fill:none;stroke-width:5.508;stroke-linecap:butt;stroke-linejoin:miter;stroke:#231f20;stroke-opacity:1;stroke-miterlimit:4" d="m3.207 1273.998 381.217 311.463 32.644-532.403" transform="matrix(.09968 0 0 -.09968 .044 189.782)"/></g><g clip-path="url(#g)"><path style="stroke:none;fill-rule:evenodd;fill:#edb381;fill-opacity:1" d="M41.617 84.813 6.375 118.007.363 62.789"/></g><g clip-path="url(#h)"><path style="fill:none;stroke-width:5.508;stroke-linecap:butt;stroke-linejoin:miter;stroke:#231f20;stroke-opacity:1;stroke-miterlimit:4" d="M417.068 1053.058 63.517 720.04l-60.31 553.957" transform="matrix(.09968 0 0 -.09968 .044 189.782)"/></g><path style="stroke:none;fill-rule:evenodd;fill:#8a7da8;fill-opacity:1" d="m154.5 91.617-20.46 58.485 45.183-20.801L154.5 91.617"/><path style="fill:none;stroke-width:5.508;stroke-linecap:butt;stroke-linejoin:miter;stroke:#231f20;stroke-opacity:1;stroke-miterlimit:4" d="m1549.513 984.793-205.265-586.718L1797.53 606.75Zm0 0" transform="matrix(.09968 0 0 -.09968 .044 189.782)"/><path style="fill-rule:evenodd;fill:#5d496c;fill-opacity:1;stroke-width:5.508;stroke-linecap:butt;stroke-linejoin:miter;stroke:#231f20;stroke-opacity:1;stroke-miterlimit:4" d="m1797.531 606.75-248.018 378.043 41.617 537.106" transform="matrix(.09968 0 0 -.09968 .044 189.782)"/><path style="fill-rule:evenodd;fill:#9f7e8e;fill-opacity:1;stroke-width:5.508;stroke-linecap:butt;stroke-linejoin:miter;stroke:#231f20;stroke-opacity:1;stroke-miterlimit:4" d="m1005.666 1676.259 585.464-154.36-41.617-537.106" transform="matrix(.09968 0 0 -.09968 .044 189.782)"/><g clip-path="url(#i)"><path style="stroke:none;fill-rule:evenodd;fill:#4d73b5;fill-opacity:1" d="m105.332 189.496 28.707-39.394 45.184-20.801"/></g><g clip-path="url(#j)"><path style="fill:none;stroke-width:5.508;stroke-linecap:butt;stroke-linejoin:miter;stroke:#231f20;stroke-opacity:1;stroke-miterlimit:4" d="m1056.258 2.868 287.99 395.207L1797.53 606.75" transform="matrix(.09968 0 0 -.09968 .044 189.782)"/></g><path style="stroke:none;fill-rule:evenodd;fill:#b46b54;fill-opacity:1" d="M100.29 22.691 77.601.363l-39.239 31.38 61.926-9.052"/><path style="fill:none;stroke-width:5.508;stroke-linecap:butt;stroke-linejoin:miter;stroke:#231f20;stroke-opacity:1;stroke-miterlimit:4" d="m1005.666 1676.259-227.602 223.997-393.64-314.795Zm0 0" transform="matrix(.09968 0 0 -.09968 .044 189.782)"/><path style="fill-rule:evenodd;fill:#553f38;fill-opacity:1;stroke-width:5.508;stroke-linecap:butt;stroke-linejoin:miter;stroke:#231f20;stroke-opacity:1;stroke-miterlimit:4" d="m1591.13 1521.899-585.464 154.36-227.602 223.997" transform="matrix(.09968 0 0 -.09968 .044 189.782)"/><path style="stroke:none;fill-rule:evenodd;fill:#e6f2d0;fill-opacity:1" d="m18.816 160.727 29.11 6.671-41.551-49.39 12.441 42.719"/><path style="fill:none;stroke-width:5.508;stroke-linecap:butt;stroke-linejoin:miter;stroke:#231f20;stroke-opacity:1;stroke-miterlimit:4" d="m188.33 291.485 292.026-66.933-416.84 495.489Zm0 0" transform="matrix(.09968 0 0 -.09968 .044 189.782)"/><path style="fill-rule:evenodd;fill:#75b8cc;fill-opacity:1;stroke-width:5.508;stroke-linecap:butt;stroke-linejoin:miter;stroke:#231f20;stroke-opacity:1;stroke-miterlimit:4" d="M817.526 46.993 188.33 291.485l292.027-66.933" transform="matrix(.09968 0 0 -.09968 .044 189.782)"/><g clip-path="url(#k)"><path style="stroke:none;fill-rule:evenodd;fill:#75b8cc;fill-opacity:1" d="m47.926 167.398 57.406 22.098-23.797-4.398"/></g><g clip-path="url(#l)"><path style="fill:none;stroke-width:5.508;stroke-linecap:butt;stroke-linejoin:miter;stroke:#231f20;stroke-opacity:1;stroke-miterlimit:4" d="M480.356 224.552 1056.258 2.868 817.526 46.993" transform="matrix(.09968 0 0 -.09968 .044 189.782)"/></g><g clip-path="url(#m)"><path style="stroke:none;fill-rule:evenodd;fill:#4a4b78;fill-opacity:1" d="m38.363 31.742-38 31.047 39.45-31.492"/></g><g clip-path="url(#n)"><path style="fill:none;stroke-width:5.508;stroke-linecap:butt;stroke-linejoin:miter;stroke:#231f20;stroke-opacity:1;stroke-miterlimit:4" d="M384.424 1585.461 3.207 1273.998l395.756 315.93" transform="matrix(.09968 0 0 -.09968 .044 189.782)"/></g><path style="fill-rule:evenodd;fill:#4a4b78;fill-opacity:1;stroke-width:5.508;stroke-linecap:butt;stroke-linejoin:miter;stroke:#231f20;stroke-opacity:1;stroke-miterlimit:4" d="m398.963 1589.929 379.101 310.327-393.64-314.795" transform="matrix(.09968 0 0 -.09968 .044 189.782)"/><path style="fill-rule:evenodd;fill:#322d31;fill-opacity:1;stroke-width:5.508;stroke-linecap:butt;stroke-linejoin:miter;stroke:#231f20;stroke-opacity:1;stroke-miterlimit:4" d="m63.517 720.041 124.812-428.556-56.743 576.96" transform="matrix(.09968 0 0 -.09968 .044 189.782)"/><g clip-path="url(#o)"><path style="stroke:none;fill-rule:evenodd;fill:#322d31;fill-opacity:1" d="M13.16 103.215.363 62.789l6.012 55.219"/></g><g clip-path="url(#p)"><path style="fill:none;stroke-width:5.508;stroke-linecap:butt;stroke-linejoin:miter;stroke:#231f20;stroke-opacity:1;stroke-miterlimit:4" d="M131.586 868.445 3.206 1273.998l60.31-553.957" transform="matrix(.09968 0 0 -.09968 .044 189.782)"/></g><path style="fill-rule:evenodd;fill:#553f38;fill-opacity:1;stroke-width:5.508;stroke-linecap:butt;stroke-linejoin:miter;stroke:#231f20;stroke-opacity:1;stroke-miterlimit:4" d="m778.064 1900.256 641.62-161.297 171.446-217.06" transform="matrix(.09968 0 0 -.09968 .044 189.782)"/><g clip-path="url(#q)"><path style="stroke:none;fill-rule:evenodd;fill:#5d496c;fill-opacity:1" d="m158.648 38.078 26.903 35.348-6.328 55.875"/></g><g clip-path="url(#r)"><path style="fill:none;stroke-width:5.508;stroke-linecap:butt;stroke-linejoin:miter;stroke:#231f20;stroke-opacity:1;stroke-miterlimit:4" d="m1591.13 1521.899 269.885-354.61-63.484-560.54" transform="matrix(.09968 0 0 -.09968 .044 189.782)"/></g><g clip-path="url(#s)"><path style="stroke:none;fill-rule:evenodd;fill:#a2c28a;fill-opacity:1" d="m158.648 38.078-17.09-21.637 43.993 56.985-26.903-35.348"/></g><g clip-path="url(#t)"><path style="fill:none;stroke-width:5.508;stroke-linecap:butt;stroke-linejoin:miter;stroke:#231f20;stroke-opacity:1;stroke-miterlimit:4" d="m1591.13 1521.899-171.446 217.06 441.331-571.67Zm0 0" transform="matrix(.09968 0 0 -.09968 .044 189.782)"/></g><g clip-path="url(#u)"><path style="stroke:none;fill-rule:evenodd;fill:#4d73b5;fill-opacity:1" d="m179.223 129.3-27.184 40.938-46.707 19.258"/></g><g clip-path="url(#v)"><path style="fill:none;stroke-width:5.508;stroke-linecap:butt;stroke-linejoin:miter;stroke:#231f20;stroke-opacity:1;stroke-miterlimit:4" d="m1797.531 606.75-272.707-410.687L1056.258 2.868" transform="matrix(.09968 0 0 -.09968 .044 189.782)"/></g><g clip-path="url(#w)"><path style="stroke:none;fill-rule:evenodd;fill:#f3ac50;fill-opacity:1" d="m156.813 112.293 28.738-38.867-6.328 55.875"/></g><g clip-path="url(#x)"><path style="fill:none;stroke-width:5.508;stroke-linecap:butt;stroke-linejoin:miter;stroke:#231f20;stroke-opacity:1;stroke-miterlimit:4" d="m1572.712 777.373 288.303 389.917-63.484-560.54" transform="matrix(.09968 0 0 -.09968 .044 189.782)"/></g><path style="fill-rule:evenodd;fill:#f3ac50;fill-opacity:1;stroke-width:5.508;stroke-linecap:butt;stroke-linejoin:miter;stroke:#231f20;stroke-opacity:1;stroke-miterlimit:4" d="m1797.531 606.75-272.707-410.687 47.888 581.31" transform="matrix(.09968 0 0 -.09968 .044 189.782)"/><g clip-path="url(#y)"><path style="stroke:none;fill-rule:evenodd;fill:#86493b;fill-opacity:1" d="m81.535 185.098 23.797 4.398 46.707-19.258-70.504 14.86"/></g><g clip-path="url(#z)"><path style="fill:none;stroke-width:5.508;stroke-linecap:butt;stroke-linejoin:miter;stroke:#231f20;stroke-opacity:1;stroke-miterlimit:4" d="m817.526 46.993 238.732-44.125 468.566 193.195Zm0 0" transform="matrix(.09968 0 0 -.09968 .044 189.782)"/></g><path style="fill-rule:evenodd;fill:#a5b7de;fill-opacity:1;stroke-width:5.508;stroke-linecap:butt;stroke-linejoin:miter;stroke:#231f20;stroke-opacity:1;stroke-miterlimit:4" d="M1082.866 1396.694 398.963 1589.93l379.101 310.327" transform="matrix(.09968 0 0 -.09968 .044 189.782)"/><path style="fill-rule:evenodd;fill:#a5b7de;fill-opacity:1;stroke-width:5.508;stroke-linecap:butt;stroke-linejoin:miter;stroke:#231f20;stroke-opacity:1;stroke-miterlimit:4" d="m778.064 1900.256 641.62-161.297-336.818-342.265" transform="matrix(.09968 0 0 -.09968 .044 189.782)"/><g clip-path="url(#A)"><path style="stroke:none;fill-rule:evenodd;fill:#66669b;fill-opacity:1" d="m13.16 103.215 26.652-71.918L.364 62.789l12.797 40.426"/></g><g clip-path="url(#B)"><path style="fill:none;stroke-width:5.508;stroke-linecap:butt;stroke-linejoin:miter;stroke:#231f20;stroke-opacity:1;stroke-miterlimit:4" d="m131.586 868.445 267.377 721.484L3.207 1273.998Zm0 0" transform="matrix(.09968 0 0 -.09968 .044 189.782)"/></g><path style="fill-rule:evenodd;fill:#8f6d7c;fill-opacity:1;stroke-width:5.508;stroke-linecap:butt;stroke-linejoin:miter;stroke:#231f20;stroke-opacity:1;stroke-miterlimit:4" d="M817.526 46.993 188.33 291.485l-56.743 576.96" transform="matrix(.09968 0 0 -.09968 .044 189.782)"/><g clip-path="url(#C)"><path style="stroke:none;fill-rule:evenodd;fill:#e3d7cb;fill-opacity:1" d="m185.55 73.426-28.738 38.867-48.828-61.734"/></g><g clip-path="url(#D)"><path style="fill:none;stroke-width:5.508;stroke-linecap:butt;stroke-linejoin:miter;stroke:#231f20;stroke-opacity:1;stroke-miterlimit:4" d="m1861.015 1167.29-288.303-389.917-489.846 619.321" transform="matrix(.09968 0 0 -.09968 .044 189.782)"/></g><g clip-path="url(#E)"><path style="stroke:none;fill-rule:evenodd;fill:#e3d7cb;fill-opacity:1" d="M107.984 50.559 141.56 16.44l43.992 56.985"/></g><g clip-path="url(#F)"><path style="fill:none;stroke-width:5.508;stroke-linecap:butt;stroke-linejoin:miter;stroke:#231f20;stroke-opacity:1;stroke-miterlimit:4" d="m1082.866 1396.694 336.818 342.265 441.331-571.67" transform="matrix(.09968 0 0 -.09968 .044 189.782)"/></g><path style="fill-rule:evenodd;fill:#c89082;fill-opacity:1;stroke-width:5.508;stroke-linecap:butt;stroke-linejoin:miter;stroke:#231f20;stroke-opacity:1;stroke-miterlimit:4" d="M1524.824 196.063 817.526 46.993l-8.347 587.658M809.18 634.651l763.532 142.722-47.888-581.31" transform="matrix(.09968 0 0 -.09968 .044 189.782)"/><path style="fill-rule:evenodd;fill:#8f6d7c;fill-opacity:1;stroke-width:5.508;stroke-linecap:butt;stroke-linejoin:miter;stroke:#231f20;stroke-opacity:1;stroke-miterlimit:4" d="M131.586 868.445 809.179 634.65l8.347-587.658" transform="matrix(.09968 0 0 -.09968 .044 189.782)"/><path style="fill-rule:evenodd;fill:#aa97b3;fill-opacity:1;stroke-width:5.508;stroke-linecap:butt;stroke-linejoin:miter;stroke:#231f20;stroke-opacity:1;stroke-miterlimit:4" d="M809.18 634.651 131.585 868.445l267.377 721.484" transform="matrix(.09968 0 0 -.09968 .044 189.782)"/><path style="fill-rule:evenodd;fill:#aa97b3;fill-opacity:1;stroke-width:5.508;stroke-linecap:butt;stroke-linejoin:miter;stroke:#231f20;stroke-opacity:1;stroke-miterlimit:4" d="m398.963 1589.929 683.903-193.235-273.687-762.043" transform="matrix(.09968 0 0 -.09968 .044 189.782)"/><path style="stroke:none;fill-rule:evenodd;fill:#c9adb2;fill-opacity:1" d="m80.703 126.52 27.281-75.961 48.829 61.734-76.11 14.227"/><path style="fill:none;stroke-width:5.508;stroke-linecap:butt;stroke-linejoin:miter;stroke:#231f20;stroke-opacity:1;stroke-miterlimit:4" d="m809.18 634.651 273.686 762.043 489.846-619.321Zm0 0" transform="matrix(.09968 0 0 -.09968 .044 189.782)"/></svg>