<svg xmlns="http://www.w3.org/2000/svg" width="267.08" height="289.92" viewBox="0 0 200.31 217.44" version="1.2"><path style="fill-rule:nonzero;fill:#c1828e;fill-opacity:1;stroke-width:5;stroke-linecap:round;stroke-linejoin:round;stroke:#000;stroke-opacity:1;stroke-miterlimit:10" d="m96.582 1356.127 680.382-280.338 637.893 494.08" transform="matrix(.09966 0 0 -.09966 0 216.788)"/><path style="fill-rule:nonzero;fill:#d7c3c6;fill-opacity:1;stroke-width:5;stroke-linecap:round;stroke-linejoin:round;stroke:#000;stroke-opacity:1;stroke-miterlimit:10" d="M776.964 1075.79 96.582 1356.126l175.68-811.34M272.263 544.787l692.141-241.18-187.44 772.182" transform="matrix(.09966 0 0 -.09966 0 216.788)"/><path style="fill-rule:nonzero;fill:#a28cbe;fill-opacity:1;stroke-width:5;stroke-linecap:round;stroke-linejoin:round;stroke:#000;stroke-opacity:1;stroke-miterlimit:10" d="m1626.756 800.508-211.899 769.36-637.893-494.079" transform="matrix(.09966 0 0 -.09966 0 216.788)"/><path style="fill-rule:nonzero;fill:#a28cbe;fill-opacity:1;stroke-width:5;stroke-linecap:round;stroke-linejoin:round;stroke:#000;stroke-opacity:1;stroke-miterlimit:10" d="m776.964 1075.79 187.44-772.183 662.352 496.901" transform="matrix(.09966 0 0 -.09966 0 216.788)"/><path style="fill-rule:nonzero;fill:#c1828e;fill-opacity:1;stroke-width:5;stroke-linecap:round;stroke-linejoin:round;stroke:#000;stroke-opacity:1;stroke-miterlimit:10" d="m1414.857 1569.868-652.945 316.164-665.33-529.905" transform="matrix(.09966 0 0 -.09966 0 216.788)"/><path style="fill-rule:nonzero;fill:#130073;fill-opacity:1;stroke-width:5;stroke-linecap:round;stroke-linejoin:round;stroke:#000;stroke-opacity:1;stroke-miterlimit:10" d="m1414.857 1569.868 211.9-769.36 304.6-31.828M1931.357 768.68l-248.431 863.433-268.069-62.245" transform="matrix(.09966 0 0 -.09966 0 216.788)"/><path style="fill-rule:nonzero;fill:#2b0000;fill-opacity:1;stroke-width:5;stroke-linecap:round;stroke-linejoin:round;stroke:#000;stroke-opacity:1;stroke-miterlimit:10" d="m964.404 1993.55-202.492-107.518 652.945-316.164" transform="matrix(.09966 0 0 -.09966 0 216.788)"/><path style="fill-rule:nonzero;fill:#2b0000;fill-opacity:1;stroke-width:5;stroke-linecap:round;stroke-linejoin:round;stroke:#000;stroke-opacity:1;stroke-miterlimit:10" d="m1414.857 1569.868 268.069 62.245-718.522 361.436" transform="matrix(.09966 0 0 -.09966 0 216.788)"/><path style="fill-rule:nonzero;fill:#47c4b3;fill-opacity:1;stroke-width:5;stroke-linecap:round;stroke-linejoin:round;stroke:#000;stroke-opacity:1;stroke-miterlimit:10" d="m1181.674 211.337-217.27 92.27-692.141 241.18" transform="matrix(.09966 0 0 -.09966 0 216.788)"/><path style="fill-rule:nonzero;fill:#1d70e0;fill-opacity:1;stroke-width:5;stroke-linecap:round;stroke-linejoin:round;stroke:#000;stroke-opacity:1;stroke-miterlimit:10" d="m1626.756 800.508-662.352-496.9 217.27-92.27M1181.674 211.337l749.683 557.343-304.6 31.828" transform="matrix(.09966 0 0 -.09966 0 216.788)"/><path style="fill-rule:nonzero;fill:#47c4b3;fill-opacity:1;stroke-width:5;stroke-linecap:round;stroke-linejoin:round;stroke:#000;stroke-opacity:1;stroke-miterlimit:10" d="m272.263 544.787 141.736-67.067 767.675-266.383" transform="matrix(.09966 0 0 -.09966 0 216.788)"/><path style="fill-rule:nonzero;fill:#00002e;fill-opacity:1;stroke-width:5;stroke-linecap:round;stroke-linejoin:round;stroke:#000;stroke-opacity:1;stroke-miterlimit:10" d="m414 477.72-141.737 67.067-175.681 811.34" transform="matrix(.09966 0 0 -.09966 0 216.788)"/><path style="fill-rule:nonzero;fill:#00002e;fill-opacity:1;stroke-width:5;stroke-linecap:round;stroke-linejoin:round;stroke:#000;stroke-opacity:1;stroke-miterlimit:10" d="m96.582 1356.127 114.141 38.177L414 477.72" transform="matrix(.09966 0 0 -.09966 0 216.788)"/><path style="fill-rule:nonzero;fill:#002da7;fill-opacity:1;stroke-width:5;stroke-linecap:round;stroke-linejoin:round;stroke:#000;stroke-opacity:1;stroke-miterlimit:10" d="m964.404 1993.55-753.68-599.246-114.142-38.177" transform="matrix(.09966 0 0 -.09966 0 216.788)"/><path style="fill-rule:nonzero;fill:#002da7;fill-opacity:1;stroke-width:5;stroke-linecap:round;stroke-linejoin:round;stroke:#000;stroke-opacity:1;stroke-miterlimit:10" d="m96.582 1356.127 665.33 529.905 202.492 107.517" transform="matrix(.09966 0 0 -.09966 0 216.788)"/><path style="fill-rule:nonzero;fill:#decfc9;fill-opacity:1;stroke-width:5;stroke-linecap:round;stroke-linejoin:round;stroke:#000;stroke-opacity:1;stroke-miterlimit:10" d="m964.404 1993.55 718.522-361.437 248.43-863.433" transform="matrix(.09966 0 0 -.09966 0 216.788)"/><path style="fill-rule:nonzero;fill:#c37c82;fill-opacity:1;stroke-width:5;stroke-linecap:round;stroke-linejoin:round;stroke:#000;stroke-opacity:1;stroke-miterlimit:10" d="m1931.357 768.68-749.683-557.343L413.999 477.72" transform="matrix(.09966 0 0 -.09966 0 216.788)"/><path style="fill-rule:nonzero;fill:#c37c82;fill-opacity:1;stroke-width:5;stroke-linecap:round;stroke-linejoin:round;stroke:#000;stroke-opacity:1;stroke-miterlimit:10" d="m414 477.72 788.174 603.753 729.183-312.793" transform="matrix(.09966 0 0 -.09966 0 216.788)"/><path style="fill-rule:nonzero;fill:#decfc9;fill-opacity:1;stroke-width:5;stroke-linecap:round;stroke-linejoin:round;stroke:#000;stroke-opacity:1;stroke-miterlimit:10" d="m1931.357 768.68-729.183 312.793-237.77 912.076" transform="matrix(.09966 0 0 -.09966 0 216.788)"/><path style="fill-rule:nonzero;fill:#9d8bc0;fill-opacity:1;stroke-width:5;stroke-linecap:round;stroke-linejoin:round;stroke:#000;stroke-opacity:1;stroke-miterlimit:10" d="m414 477.72-203.277 916.584 753.681 599.245" transform="matrix(.09966 0 0 -.09966 0 216.788)"/><path style="fill-rule:nonzero;fill:#9d8bc0;fill-opacity:1;stroke-width:5;stroke-linecap:round;stroke-linejoin:round;stroke:#000;stroke-opacity:1;stroke-miterlimit:10" d="m964.404 1993.55 237.77-912.077L413.999 477.72" transform="matrix(.09966 0 0 -.09966 0 216.788)"/></svg>