<svg xmlns="http://www.w3.org/2000/svg" width="196pt" height="200pt" viewBox="0 0 196 200" version="1.2"><path style="stroke:none;fill-rule:nonzero;fill:#b9a4c3;fill-opacity:1" d="m109.922 104.129-9 49.879-40.91-34.696"/><path style="fill:none;stroke-width:6.00872;stroke-linecap:round;stroke-linejoin:round;stroke:#000;stroke-opacity:1;stroke-miterlimit:10" d="m1099.219 958.71-90-498.788-409.102 346.953Zm0 0" transform="matrix(.1 0 0 -.1 0 200)"/><path style="stroke:none;fill-rule:nonzero;fill:#a57faa;fill-opacity:1" d="m115.738 52.441 41.453 34.149-47.27 17.539"/><path style="fill:none;stroke-width:6.00872;stroke-linecap:round;stroke-linejoin:round;stroke:#000;stroke-opacity:1;stroke-miterlimit:10" d="m1157.383 1475.586 414.531-341.484L1099.22 958.71Zm0 0" transform="matrix(.1 0 0 -.1 0 200)"/><path style="stroke:none;fill-rule:nonzero;fill:#948cc8;fill-opacity:1" d="M68.25 33.824 32.887 76.316l68.035 21.508"/><path style="fill:none;stroke-width:6.00872;stroke-linecap:round;stroke-linejoin:round;stroke:#000;stroke-opacity:1;stroke-miterlimit:10" d="m682.5 1661.758-353.633-424.922" transform="matrix(.1 0 0 -.1 0 200)"/><path style="stroke:none;fill-rule:nonzero;fill:#ced6df;fill-opacity:1" d="m90.328 77.074 25.41-24.633-8.812 26.996"/><path style="stroke:none;fill-rule:nonzero;fill:#ced6df;fill-opacity:1" d="m85.738 68.086 30-15.645-25.41 24.633"/><path style="stroke:none;fill-rule:nonzero;fill:#ced6df;fill-opacity:1" d="m56.215 60.441 59.523-8-42.547 22.196"/><path style="stroke:none;fill-rule:nonzero;fill:#edaf33;fill-opacity:1" d="m115.738 52.441-5.816 51.688-2.996-24.692"/><path style="fill:none;stroke-width:6.00872;stroke-linecap:round;stroke-linejoin:round;stroke:#000;stroke-opacity:1;stroke-miterlimit:10" d="m1157.383 1475.586-58.164-516.875" transform="matrix(.1 0 0 -.1 0 200)"/><path style="stroke:none;fill-rule:nonzero;fill:#edaf33;fill-opacity:1" d="m106.926 79.438 2.996 24.69-9-6.304"/><path style="stroke:none;fill-rule:nonzero;fill:#ced6df;fill-opacity:1" d="m106.926 79.438 50.265 7.152-56.27 11.234M115.738 52.441l41.453 34.149-50.265-7.153"/><path style="fill:none;stroke-width:6.00872;stroke-linecap:round;stroke-linejoin:round;stroke:#000;stroke-opacity:1;stroke-miterlimit:10" d="m1157.383 1475.586 414.531-341.484" transform="matrix(.1 0 0 -.1 0 200)"/><path style="stroke:none;fill-rule:nonzero;fill:#780000;fill-opacity:1" d="m155.191 81.473-18.336 9.175 20.336-4.058"/><path style="stroke:none;fill-rule:nonzero;fill:#780000;fill-opacity:1" d="m109.922 104.129 47.27-17.54-20.337 4.06"/><path style="fill:none;stroke-width:6.00872;stroke-linecap:round;stroke-linejoin:round;stroke:#000;stroke-opacity:1;stroke-miterlimit:10" d="m1099.219 958.71 472.695 175.392" transform="matrix(.1 0 0 -.1 0 200)"/><path style="stroke:none;fill-rule:nonzero;fill:#780000;fill-opacity:1" d="m140.379 85.938-30.457 18.19 45.27-22.655"/><path style="stroke:none;fill-rule:nonzero;fill:#c394a5;fill-opacity:1" d="m119.922 75.031-19 22.793 33.762-10.172"/><path style="stroke:none;fill-rule:nonzero;fill:#743573;fill-opacity:1" d="M60.012 119.313 32.887 76.316l23.328-15.875"/><path style="fill:none;stroke-width:6.00872;stroke-linecap:round;stroke-linejoin:round;stroke:#000;stroke-opacity:1;stroke-miterlimit:10" d="m600.117 806.875-271.25 429.96" transform="matrix(.1 0 0 -.1 0 200)"/><path style="stroke:none;fill-rule:nonzero;fill:#743573;fill-opacity:1" d="m78.46 79.043-18.448 40.27-3.797-58.872"/><path style="stroke:none;fill-rule:nonzero;fill:#780000;fill-opacity:1" d="m60.012 119.313 49.91-15.184-5.77-4.04"/><path style="fill:none;stroke-width:6.00872;stroke-linecap:round;stroke-linejoin:round;stroke:#000;stroke-opacity:1;stroke-miterlimit:10" d="m600.117 806.875 499.102 151.836" transform="matrix(.1 0 0 -.1 0 200)"/><path style="stroke:none;fill-rule:nonzero;fill:#780000;fill-opacity:1" d="m100.922 97.824-40.91 21.489 44.14-19.223"/><path style="stroke:none;fill-rule:nonzero;fill:#780000;fill-opacity:1" d="m100.922 97.824 3.23 2.266 24.141-10.512"/><path style="stroke:none;fill-rule:nonzero;fill:#743573;fill-opacity:1" d="m100.922 154.008-8.48-7.192.613-19.05"/><path style="fill:none;stroke-width:6.00872;stroke-linecap:round;stroke-linejoin:round;stroke:#000;stroke-opacity:1;stroke-miterlimit:10" d="m1009.219 459.922-84.805 71.914" transform="matrix(.1 0 0 -.1 0 200)"/><path style="stroke:none;fill-rule:nonzero;fill:#743573;fill-opacity:1" d="m92.441 146.816-32.43-27.504 33.044 8.454"/><path style="fill:none;stroke-width:6.00872;stroke-linecap:round;stroke-linejoin:round;stroke:#000;stroke-opacity:1;stroke-miterlimit:10" d="M924.414 531.836 600.117 806.875" transform="matrix(.1 0 0 -.1 0 200)"/><path style="stroke:none;fill-rule:nonzero;fill:#743573;fill-opacity:1" d="m78.46 79.043 14.595 48.723-33.043-8.454M100.922 97.824v56.184L78.46 79.043"/><path style="stroke:none;fill-rule:nonzero;fill:#da907f;fill-opacity:1" d="M68.25 33.824 32.887 76.316l-3.88-38.62"/><path style="fill:none;stroke-width:6.00872;stroke-linecap:round;stroke-linejoin:round;stroke:#000;stroke-opacity:1;stroke-miterlimit:10" d="m682.5 1661.758-353.633-424.922-38.789 386.21Zm0 0" transform="matrix(.1 0 0 -.1 0 200)"/><path style="stroke:none;fill-rule:nonzero;fill:#edaf33;fill-opacity:1" d="m105.898 70.996 9.84-18.555-8.812 26.996"/><path style="stroke:none;fill-rule:nonzero;fill:#ced6df;fill-opacity:1" d="m73.191 74.637 33.735 4.8-6.004 18.387M68.25 33.824l47.488 18.617-59.523 8"/><path style="fill:none;stroke-width:6.00872;stroke-linecap:round;stroke-linejoin:round;stroke:#000;stroke-opacity:1;stroke-miterlimit:10" d="m682.5 1661.758 474.883-186.172" transform="matrix(.1 0 0 -.1 0 200)"/><path style="stroke:none;fill-rule:nonzero;fill:#ced6df;fill-opacity:1" d="M42.574 49.031 68.25 33.824 56.215 60.441"/><path style="stroke:none;fill-rule:nonzero;fill:#948cc8;fill-opacity:1" d="M80.719 43.77 68.25 33.824 75.234 47.5M80.719 43.77l-5.485 3.73 25.688 50.324M107.055 64.77l-26.336-21 20.203 54.054"/><path style="stroke:none;fill-rule:nonzero;fill:#af6a81;fill-opacity:1" d="M115.738 52.441 68.25 33.824l48.309-20.273"/><path style="fill:none;stroke-width:6.00872;stroke-linecap:round;stroke-linejoin:round;stroke:#000;stroke-opacity:1;stroke-miterlimit:10" d="M1157.383 1475.586 682.5 1661.758l483.086 202.734Zm0 0" transform="matrix(.1 0 0 -.1 0 200)"/><path style="stroke:none;fill-rule:nonzero;fill:#edaf33;fill-opacity:1" d="m110.746 44.887 4.992 7.554-9.84 18.555"/><path style="stroke:none;fill-rule:nonzero;fill:#948cc8;fill-opacity:1" d="M116.559 13.55 68.25 33.825l38.805 30.946"/><path style="fill:none;stroke-width:6.00872;stroke-linecap:round;stroke-linejoin:round;stroke:#000;stroke-opacity:1;stroke-miterlimit:10" d="M1165.586 1864.492 682.5 1661.758" transform="matrix(.1 0 0 -.1 0 200)"/><path style="stroke:none;fill-rule:nonzero;fill:#c394a5;fill-opacity:1" d="m53.492 18.266 51.328 43.863 2.457-22.488"/><path style="stroke:none;fill-rule:nonzero;fill:#edaf33;fill-opacity:1" d="m104.82 62.129 1.078 8.867-4.976 26.828"/><path style="stroke:none;fill-rule:nonzero;fill:#edaf33;fill-opacity:1" d="m105.898 70.996 1.028 8.442-6.004 18.386M116.559 13.55l-.82 38.891-8.462-12.8"/><path style="fill:none;stroke-width:6.00872;stroke-linecap:round;stroke-linejoin:round;stroke:#000;stroke-opacity:1;stroke-miterlimit:10" d="m1165.586 1864.492-8.203-388.906" transform="matrix(.1 0 0 -.1 0 200)"/><path style="stroke:none;fill-rule:nonzero;fill:#c394a5;fill-opacity:1" d="m53.492 18.266 53.785 21.375 2.012-18.438"/><path style="stroke:none;fill-rule:nonzero;fill:#edaf33;fill-opacity:1" d="m100.922 30.02 8.367-8.817-2.012 18.438M109.29 21.203l7.269-7.652-9.282 26.09"/><path style="stroke:none;fill-rule:nonzero;fill:#948cc8;fill-opacity:1" d="m119.922 75.031-3.363-61.48-9.504 51.219"/><path style="stroke:none;fill-rule:nonzero;fill:#948cc8;fill-opacity:1" d="m138.938 52.227-22.38-38.676 3.364 61.48"/><path style="stroke:none;fill-rule:nonzero;fill:#c394a5;fill-opacity:1" d="m187.805 71.648-25.336-47.64-17.028 20.418"/><path style="fill:none;stroke-width:6.00872;stroke-linecap:round;stroke-linejoin:round;stroke:#000;stroke-opacity:1;stroke-miterlimit:10" d="m1878.047 1283.516-253.36 476.406" transform="matrix(.1 0 0 -.1 0 200)"/><path style="stroke:none;fill-rule:nonzero;fill:#948cc8;fill-opacity:1" d="m162.469 24.008-45.91-10.457 22.379 38.676"/><path style="fill:none;stroke-width:6.00872;stroke-linecap:round;stroke-linejoin:round;stroke:#000;stroke-opacity:1;stroke-miterlimit:10" d="m1624.688 1759.922-459.102 104.57" transform="matrix(.1 0 0 -.1 0 200)"/><path style="stroke:none;fill-rule:nonzero;fill:#c394a5;fill-opacity:1" d="m138.938 52.227 48.867 19.421-42.364-27.222M138.938 52.227l-4.254 35.425 53.12-16.004"/><path style="stroke:none;fill-rule:nonzero;fill:#edaf33;fill-opacity:1" d="m110.566 45.402.18-.515-.117.625M104.82 62.129l2.352 2.008-1.274 6.86"/><path style="stroke:none;fill-rule:nonzero;fill:#edaf33;fill-opacity:1" d="m107.277 39.64 3.47 5.247-5.927 17.242"/><path style="stroke:none;fill-rule:nonzero;fill:#c394a5;fill-opacity:1" d="m104.82 62.129 29.864 25.523-27.407-48.011"/><path style="stroke:none;fill-rule:nonzero;fill:#780000;fill-opacity:1" d="m133.242 85.656-32.32 12.168 27.371-8.246"/><path style="stroke:none;fill-rule:nonzero;fill:#948cc8;fill-opacity:1" d="m153.805 77.914 8.664-53.906-23.531 28.219"/><path style="stroke:none;fill-rule:nonzero;fill:#c394a5;fill-opacity:1" d="m124.41 69.652 10.274 18 4.254-35.425"/><path style="stroke:none;fill-rule:nonzero;fill:#780000;fill-opacity:1" d="m133.242 85.656-4.949 3.922 25.512-11.664M128.293 89.578l-18.371 14.55 30.457-18.19"/><path style="stroke:none;fill-rule:nonzero;fill:#780000;fill-opacity:1" d="m128.293 89.578 12.086-3.64 13.426-8.024M128.293 89.578l-24.14 10.512 5.769 4.039"/><path style="stroke:none;fill-rule:nonzero;fill:#ced6df;fill-opacity:1" d="m157.191 86.59 23.086 40.023-79.355-28.789"/><path style="fill:none;stroke-width:6.00872;stroke-linecap:round;stroke-linejoin:round;stroke:#000;stroke-opacity:1;stroke-miterlimit:10" d="m1571.914 1134.102 230.86-400.235" transform="matrix(.1 0 0 -.1 0 200)"/><path style="stroke:none;fill-rule:nonzero;fill:#6b55a7;fill-opacity:1" d="M180.277 126.613 157.191 86.59l30.614-14.942"/><path style="fill:none;stroke-width:6.00872;stroke-linecap:round;stroke-linejoin:round;stroke:#000;stroke-opacity:1;stroke-miterlimit:10" d="m1802.773 733.867-230.859 400.235 306.133 149.414Zm0 0" transform="matrix(.1 0 0 -.1 0 200)"/><path style="stroke:none;fill-rule:nonzero;fill:#948cc8;fill-opacity:1" d="m133.242 85.656 5.696-33.43-19.016 22.805"/><path style="stroke:none;fill-rule:nonzero;fill:#780000;fill-opacity:1" d="m157.191 86.59 30.614-14.942-17.024-.125"/><path style="fill:none;stroke-width:6.00872;stroke-linecap:round;stroke-linejoin:round;stroke:#000;stroke-opacity:1;stroke-miterlimit:10" d="m1571.914 1134.102 306.133 149.414" transform="matrix(.1 0 0 -.1 0 200)"/><path style="stroke:none;fill-rule:nonzero;fill:#780000;fill-opacity:1" d="m153.805 77.914 3.386 8.676 13.59-15.067"/><path style="stroke:none;fill-rule:nonzero;fill:#c394a5;fill-opacity:1" d="m180.277 126.613 7.528-54.965-53.121 16.004"/><path style="fill:none;stroke-width:6.00872;stroke-linecap:round;stroke-linejoin:round;stroke:#000;stroke-opacity:1;stroke-miterlimit:10" d="m1802.773 733.867 75.274 549.649" transform="matrix(.1 0 0 -.1 0 200)"/><path style="stroke:none;fill-rule:nonzero;fill:#780000;fill-opacity:1" d="m153.805 77.914-13.426 8.023 14.812-4.464"/><path style="stroke:none;fill-rule:nonzero;fill:#948cc8;fill-opacity:1" d="m179.742 122.742-25.937-44.828-20.563 7.742"/><path style="stroke:none;fill-rule:nonzero;fill:#948cc8;fill-opacity:1" d="m153.805 77.914-14.868-25.687-5.695 33.43M170.781 71.523l-8.312-47.515-8.664 53.906"/><path style="stroke:none;fill-rule:nonzero;fill:#780000;fill-opacity:1" d="m151.258 71.383 2.547 6.531 16.976-6.39"/><path style="stroke:none;fill-rule:nonzero;fill:#948cc8;fill-opacity:1" d="m129.605 82.758-9.683-7.727-19 22.793"/><path style="stroke:none;fill-rule:nonzero;fill:#780000;fill-opacity:1" d="m151.258 71.383-50.336 26.441 32.32-12.168"/><path style="stroke:none;fill-rule:nonzero;fill:#948cc8;fill-opacity:1" d="m179.742 122.742-8.96-51.219-16.977 6.391"/><path style="stroke:none;fill-rule:nonzero;fill:#c394a5;fill-opacity:1" d="m107.277 39.64 31.66 12.587-29.648-31.024"/><path style="stroke:none;fill-rule:nonzero;fill:#c394a5;fill-opacity:1" d="m138.938 52.227 6.503-7.801-36.152-23.223M109.29 21.203l36.151 23.223 17.028-20.418"/><path style="stroke:none;fill-rule:nonzero;fill:#948cc8;fill-opacity:1" d="M119.922 75.031 107.055 64.77l-6.133 33.054"/><path style="stroke:none;fill-rule:nonzero;fill:#ced6df;fill-opacity:1" d="m73.191 74.637 12.547-6.551 4.59 8.988"/><path style="stroke:none;fill-rule:nonzero;fill:#743573;fill-opacity:1" d="m32.887 76.316-3.88-38.62L56.216 60.44"/><path style="fill:none;stroke-width:6.00872;stroke-linecap:round;stroke-linejoin:round;stroke:#000;stroke-opacity:1;stroke-miterlimit:10" d="m328.867 1236.836-38.789 386.21" transform="matrix(.1 0 0 -.1 0 200)"/><path style="fill-rule:nonzero;fill:#ced6df;fill-opacity:1;stroke-width:6.00872;stroke-linecap:round;stroke-linejoin:round;stroke:#000;stroke-opacity:1;stroke-miterlimit:10" d="m136.563 1338.398 153.515 284.649 392.422 38.71" transform="matrix(.1 0 0 -.1 0 200)"/><path style="stroke:none;fill-rule:nonzero;fill:#c394a5;fill-opacity:1" d="m53.492 18.266 47.43 79.558 19-22.793"/><path style="stroke:none;fill-rule:nonzero;fill:#edaf33;fill-opacity:1" d="m100.922 30.02 3.898 32.109-3.898 35.695"/><path style="stroke:none;fill-rule:nonzero;fill:#c394a5;fill-opacity:1" d="m107.277 39.64 17.133 30.012 14.528-17.425"/><path style="stroke:none;fill-rule:nonzero;fill:#743573;fill-opacity:1" d="M100.922 30.02 56.215 60.44 29.008 37.695"/><path style="stroke:none;fill-rule:nonzero;fill:#ced6df;fill-opacity:1" d="m13.656 66.16 28.918-17.129 13.64 11.41"/><path style="stroke:none;fill-rule:nonzero;fill:#edaf33;fill-opacity:1" d="m100.922 30.02 6.355 9.62-2.457 22.489"/><path style="stroke:none;fill-rule:nonzero;fill:#ced6df;fill-opacity:1" d="m13.656 66.16 59.535 8.477 27.73 23.187"/><path style="stroke:none;fill-rule:nonzero;fill:#743573;fill-opacity:1" d="M100.922 30.02v67.804L78.46 79.043"/><path style="stroke:none;fill-rule:nonzero;fill:#dbb8b6;fill-opacity:1" d="m32.887 76.316 27.125 42.996-38.543 8.418"/><path style="fill:none;stroke-width:6.00872;stroke-linecap:round;stroke-linejoin:round;stroke:#000;stroke-opacity:1;stroke-miterlimit:10" d="m328.867 1236.836 271.25-429.961-385.43-84.18Zm0 0" transform="matrix(.1 0 0 -.1 0 200)"/><path style="stroke:none;fill-rule:nonzero;fill:#780000;fill-opacity:1" d="m21.469 127.73 38.543-8.418 40.91-21.488"/><path style="fill:none;stroke-width:6.00872;stroke-linecap:round;stroke-linejoin:round;stroke:#000;stroke-opacity:1;stroke-miterlimit:10" d="m214.688 722.695 385.43 84.18" transform="matrix(.1 0 0 -.1 0 200)"/><path style="stroke:none;fill-rule:nonzero;fill:#ced6df;fill-opacity:1" d="m13.656 66.16 42.559-5.719L73.19 74.637"/><path style="stroke:none;fill-rule:nonzero;fill:#743573;fill-opacity:1" d="M100.922 30.02 78.46 79.043 56.215 60.441"/><path style="stroke:none;fill-rule:nonzero;fill:#948cc8;fill-opacity:1" d="m84.977 116.945-52.09-40.629 44.566 49.649"/><path style="stroke:none;fill-rule:nonzero;fill:#c394a5;fill-opacity:1" d="m77.453 125.965 13.676 61.469 9.793-89.61"/><path style="stroke:none;fill-rule:nonzero;fill:#948cc8;fill-opacity:1" d="M100.922 97.824 32.887 76.316l52.09 40.63"/><path style="stroke:none;fill-rule:nonzero;fill:#948cc8;fill-opacity:1" d="m100.922 97.824-15.945 19.121 10.828 8.446"/><path style="stroke:none;fill-rule:nonzero;fill:#c394a5;fill-opacity:1" d="m39.535 171.441 51.594 15.993-13.676-61.47"/><path style="fill:none;stroke-width:6.00872;stroke-linecap:round;stroke-linejoin:round;stroke:#000;stroke-opacity:1;stroke-miterlimit:10" d="m395.352 285.586 515.937-159.922" transform="matrix(.1 0 0 -.1 0 200)"/><path style="stroke:none;fill-rule:nonzero;fill:#948cc8;fill-opacity:1" d="M32.887 76.316 21.469 127.73l55.984-1.765"/><path style="fill:none;stroke-width:6.00872;stroke-linecap:round;stroke-linejoin:round;stroke:#000;stroke-opacity:1;stroke-miterlimit:10" d="m328.867 1236.836-114.18-514.14" transform="matrix(.1 0 0 -.1 0 200)"/><path style="stroke:none;fill-rule:nonzero;fill:#780000;fill-opacity:1" d="M66.41 108.219 21.47 127.73l79.453-29.906"/><path style="stroke:none;fill-rule:nonzero;fill:#edaf33;fill-opacity:1" d="m94.574 132.008 3.98-12.54-7.425 67.966"/><path style="stroke:none;fill-rule:nonzero;fill:#edaf33;fill-opacity:1" d="m98.11 112.965.445 6.504-3.98 12.539M100.922 154.008l-9.793 33.426 7.426-67.965"/><path style="fill:none;stroke-width:6.00872;stroke-linecap:round;stroke-linejoin:round;stroke:#000;stroke-opacity:1;stroke-miterlimit:10" d="m1009.219 459.922-97.93-334.258" transform="matrix(.1 0 0 -.1 0 200)"/><path style="stroke:none;fill-rule:nonzero;fill:#948cc8;fill-opacity:1" d="m21.469 127.73 18.066 43.711 51.008-17.714"/><path style="fill:none;stroke-width:6.00872;stroke-linecap:round;stroke-linejoin:round;stroke:#000;stroke-opacity:1;stroke-miterlimit:10" d="m214.688 722.695 180.664-437.11" transform="matrix(.1 0 0 -.1 0 200)"/><path style="stroke:none;fill-rule:nonzero;fill:#edaf33;fill-opacity:1" d="M100.922 97.824v56.184l-2.813-41.043M109.922 104.129l-9 49.879V97.824"/><path style="fill:none;stroke-width:6.00872;stroke-linecap:round;stroke-linejoin:round;stroke:#000;stroke-opacity:1;stroke-miterlimit:10" d="m1099.219 958.71-90-498.788" transform="matrix(.1 0 0 -.1 0 200)"/><path style="stroke:none;fill-rule:nonzero;fill:#743573;fill-opacity:1" d="m143.977 170.059-43.055-16.051V97.824"/><path style="fill:none;stroke-width:6.00872;stroke-linecap:round;stroke-linejoin:round;stroke:#000;stroke-opacity:1;stroke-miterlimit:10" d="m1439.766 299.414-430.547 160.508" transform="matrix(.1 0 0 -.1 0 200)"/><path style="stroke:none;fill-rule:nonzero;fill:#c394a5;fill-opacity:1" d="m134.684 87.652 2.636 23.38 42.957 15.581"/><path style="stroke:none;fill-rule:nonzero;fill:#c394a5;fill-opacity:1" d="m143.977 170.059 36.3-43.446-42.957-15.582"/><path style="fill:none;stroke-width:6.00872;stroke-linecap:round;stroke-linejoin:round;stroke:#000;stroke-opacity:1;stroke-miterlimit:10" d="m1439.766 299.414 363.007 434.453" transform="matrix(.1 0 0 -.1 0 200)"/><path style="stroke:none;fill-rule:nonzero;fill:#c394a5;fill-opacity:1" d="m100.922 97.824 43.055 72.235-9.293-82.407"/><path style="stroke:none;fill-rule:nonzero;fill:#426dd6;fill-opacity:1" d="m143.977 170.059 36.3-43.446-5.168 33.246"/><path style="fill:none;stroke-width:6.00872;stroke-linecap:round;stroke-linejoin:round;stroke:#000;stroke-opacity:1;stroke-miterlimit:10" d="m1439.766 299.414 363.007 434.453-51.68-332.46Zm0 0" transform="matrix(.1 0 0 -.1 0 200)"/><path style="stroke:none;fill-rule:nonzero;fill:#ced6df;fill-opacity:1" d="m180.277 126.613-5.168 33.246-49.718-41.574"/><path style="fill:none;stroke-width:6.00872;stroke-linecap:round;stroke-linejoin:round;stroke:#000;stroke-opacity:1;stroke-miterlimit:10" d="m1802.773 733.867-51.68-332.46" transform="matrix(.1 0 0 -.1 0 200)"/><path style="stroke:none;fill-rule:nonzero;fill:#743573;fill-opacity:1" d="m128.98 121.29 14.997 48.769-43.055-72.235"/><path style="stroke:none;fill-rule:nonzero;fill:#c394a5;fill-opacity:1" d="m100.922 97.824-3.008 27.5 19.04-.601"/><path style="stroke:none;fill-rule:nonzero;fill:#c394a5;fill-opacity:1" d="m73.059 106.215 4.394 19.75 23.469-28.14"/><path style="fill-rule:nonzero;fill:#743573;fill-opacity:1;stroke-width:6.00872;stroke-linecap:round;stroke-linejoin:round;stroke:#000;stroke-opacity:1;stroke-miterlimit:10" d="m290.078 1623.047 244.844 194.297 474.297-117.54" transform="matrix(.1 0 0 -.1 0 200)"/><path style="stroke:none;fill-rule:nonzero;fill:#c394a5;fill-opacity:1" d="m53.492 18.266 19.567 87.949 27.863-8.39"/><path style="stroke:none;fill-rule:nonzero;fill:#ced6df;fill-opacity:1" d="m106.98 109.7 11.243 2.593-8.035 3.684M118.223 112.293l62.054 14.32-54.886-8.328"/><path style="stroke:none;fill-rule:nonzero;fill:#ced6df;fill-opacity:1" d="m118.223 112.293 7.168 5.992-15.204-2.308"/><path style="stroke:none;fill-rule:nonzero;fill:#743573;fill-opacity:1" d="m175.11 159.86-31.133 10.199-14.997-48.77"/><path style="fill:none;stroke-width:6.00872;stroke-linecap:round;stroke-linejoin:round;stroke:#000;stroke-opacity:1;stroke-miterlimit:10" d="m1751.094 401.406-311.328-101.992" transform="matrix(.1 0 0 -.1 0 200)"/><path style="stroke:none;fill-rule:nonzero;fill:#948cc8;fill-opacity:1" d="m95.805 125.39-74.336 2.34 69.074 25.997"/><path style="stroke:none;fill-rule:nonzero;fill:#c394a5;fill-opacity:1" d="M73.059 106.215 39.535 171.44l37.918-45.476"/><path style="stroke:none;fill-rule:nonzero;fill:#c394a5;fill-opacity:1" d="M53.492 18.266 44.7 114.762l28.36-8.547"/><path style="stroke:none;fill-rule:nonzero;fill:#780000;fill-opacity:1" d="m8.938 125.531 12.53 2.2 44.942-19.512"/><path style="fill:none;stroke-width:6.00872;stroke-linecap:round;stroke-linejoin:round;stroke:#000;stroke-opacity:1;stroke-miterlimit:10" d="m89.375 744.688 125.313-21.993" transform="matrix(.1 0 0 -.1 0 200)"/><path style="stroke:none;fill-rule:nonzero;fill:#c394a5;fill-opacity:1" d="m44.7 114.762-5.165 56.68 33.524-65.227"/><path style="stroke:none;fill-rule:nonzero;fill:#ced6df;fill-opacity:1" d="m100.922 97.824 79.355 28.79-62.054-14.321"/><path style="stroke:none;fill-rule:nonzero;fill:#743573;fill-opacity:1" d="m100.922 30.02 29.797 52.152-11.852 6.223"/><path style="stroke:none;fill-rule:nonzero;fill:#743573;fill-opacity:1" d="m100.922 30.02 17.945 58.375-17.945 9.43"/><path style="stroke:none;fill-rule:nonzero;fill:#948cc8;fill-opacity:1" d="m179.742 122.742-46.5-37.086-32.32 12.168"/><path style="stroke:none;fill-rule:nonzero;fill:#743573;fill-opacity:1" d="m118.867 88.395 10.113 32.894-28.058-23.465"/><path style="stroke:none;fill-rule:nonzero;fill:#edaf33;fill-opacity:1" d="M100.922 30.02v67.804l-4.043-2.832"/><path style="stroke:none;fill-rule:nonzero;fill:#e7f9ad;fill-opacity:1" d="m8.938 125.531 12.53 2.2 18.067 43.71"/><path style="fill:none;stroke-width:6.00872;stroke-linecap:round;stroke-linejoin:round;stroke:#000;stroke-opacity:1;stroke-miterlimit:10" d="m89.375 744.688 125.313-21.993 180.664-437.11Zm0 0" transform="matrix(.1 0 0 -.1 0 200)"/><path style="stroke:none;fill-rule:nonzero;fill:#c394a5;fill-opacity:1" d="m8.938 125.531 30.597 45.91L53.492 18.266"/><path style="fill:none;stroke-width:6.00872;stroke-linecap:round;stroke-linejoin:round;stroke:#000;stroke-opacity:1;stroke-miterlimit:10" d="m89.375 744.688 305.977-459.102" transform="matrix(.1 0 0 -.1 0 200)"/><path style="fill-rule:nonzero;fill:#c394a5;fill-opacity:1;stroke-width:6.00872;stroke-linecap:round;stroke-linejoin:round;stroke:#000;stroke-opacity:1;stroke-miterlimit:10" d="m534.922 1817.344-398.36-478.946-47.187-593.71" transform="matrix(.1 0 0 -.1 0 200)"/><path style="stroke:none;fill-rule:nonzero;fill:#ced6df;fill-opacity:1" d="m13.656 66.16 87.266 31.664-24.34 4.856"/><path style="stroke:none;fill-rule:nonzero;fill:#780000;fill-opacity:1" d="M81.367 101.727 8.937 125.53 66.41 108.22"/><path style="stroke:none;fill-rule:nonzero;fill:#780000;fill-opacity:1" d="M72.246 103.547 8.938 125.53l72.43-23.804"/><path style="stroke:none;fill-rule:nonzero;fill:#ced6df;fill-opacity:1" d="m13.656 66.16 62.926 36.52-15.95 3.183"/><path style="stroke:none;fill-rule:nonzero;fill:#780000;fill-opacity:1" d="m94.18 93.102-33.547 12.761 36.246-10.87"/><path style="stroke:none;fill-rule:nonzero;fill:#780000;fill-opacity:1" d="M60.633 105.863 8.937 125.531l63.31-21.984M60.633 105.863l11.613-2.316 24.633-8.555"/><path style="stroke:none;fill-rule:nonzero;fill:#ced6df;fill-opacity:1" d="M33.2 111.34 13.655 66.16l33.52 42.39"/><path style="fill:none;stroke-width:6.00872;stroke-linecap:round;stroke-linejoin:round;stroke:#000;stroke-opacity:1;stroke-miterlimit:10" d="m331.992 886.602-195.43 451.796" transform="matrix(.1 0 0 -.1 0 200)"/><path style="stroke:none;fill-rule:nonzero;fill:#edaf33;fill-opacity:1" d="m100.922 30.02-4.043 64.972-2.7-1.89"/><path style="stroke:none;fill-rule:nonzero;fill:#780000;fill-opacity:1" d="m151.258 71.383-18.016 14.273 20.563-7.742"/><path style="stroke:none;fill-rule:nonzero;fill:#743573;fill-opacity:1" d="m179.742 122.742-4.633 37.117-74.187-129.84"/><path style="fill:none;stroke-width:6.00872;stroke-linecap:round;stroke-linejoin:round;stroke:#000;stroke-opacity:1;stroke-miterlimit:10" d="m1797.422 772.578-46.328-371.172" transform="matrix(.1 0 0 -.1 0 200)"/><path style="stroke:none;fill-rule:nonzero;fill:#780000;fill-opacity:1" d="M33.2 111.34 8.936 125.53l51.696-19.668"/><path style="fill:none;stroke-width:6.00872;stroke-linecap:round;stroke-linejoin:round;stroke:#000;stroke-opacity:1;stroke-miterlimit:10" d="M331.992 886.602 89.375 744.688" transform="matrix(.1 0 0 -.1 0 200)"/><path style="stroke:none;fill-rule:nonzero;fill:#ced6df;fill-opacity:1" d="m47.176 108.55 40.984 28.345-5.426 16.617"/><path style="stroke:none;fill-rule:nonzero;fill:#948cc8;fill-opacity:1" d="m95.805 125.39-10.828-8.445-7.524 9.02"/><path style="stroke:none;fill-rule:nonzero;fill:#ced6df;fill-opacity:1" d="m60.633 105.863 29.515 24.946-42.972-22.258"/><path style="stroke:none;fill-rule:nonzero;fill:#6dded8;fill-opacity:1" d="m39.535 171.441 51.594 15.993-7.293 2.433"/><path style="fill:none;stroke-width:6.00872;stroke-linecap:round;stroke-linejoin:round;stroke:#000;stroke-opacity:1;stroke-miterlimit:10" d="m395.352 285.586 515.937-159.922-72.93-24.336Zm0 0" transform="matrix(.1 0 0 -.1 0 200)"/><path style="stroke:none;fill-rule:nonzero;fill:#a1b4e6;fill-opacity:1" d="m143.977 170.059-52.848 17.375 9.793-33.426"/><path style="fill:none;stroke-width:6.00872;stroke-linecap:round;stroke-linejoin:round;stroke:#000;stroke-opacity:1;stroke-miterlimit:10" d="m1439.766 299.414-528.477-173.75 97.93 334.258Zm0 0" transform="matrix(.1 0 0 -.1 0 200)"/><path style="stroke:none;fill-rule:nonzero;fill:#c394a5;fill-opacity:1" d="m97.914 125.324-6.785 62.11 25.824-62.711M91.129 187.434l52.848-17.375-27.024-45.336"/><path style="fill:none;stroke-width:6.00872;stroke-linecap:round;stroke-linejoin:round;stroke:#000;stroke-opacity:1;stroke-miterlimit:10" d="m911.29 125.664 528.476 173.75" transform="matrix(.1 0 0 -.1 0 200)"/><path style="stroke:none;fill-rule:nonzero;fill:#948cc8;fill-opacity:1" d="m39.535 171.441 44.3 18.426 4.88-26.277"/><path style="fill:none;stroke-width:6.00872;stroke-linecap:round;stroke-linejoin:round;stroke:#000;stroke-opacity:1;stroke-miterlimit:10" d="m395.352 285.586 443.007-184.258" transform="matrix(.1 0 0 -.1 0 200)"/><path style="stroke:none;fill-rule:nonzero;fill:#edaf33;fill-opacity:1" d="m91.129 187.434-7.293 2.433 6.707-36.14"/><path style="fill:none;stroke-width:6.00872;stroke-linecap:round;stroke-linejoin:round;stroke:#000;stroke-opacity:1;stroke-miterlimit:10" d="m911.29 125.664-72.93-24.336" transform="matrix(.1 0 0 -.1 0 200)"/><path style="stroke:none;fill-rule:nonzero;fill:#edaf33;fill-opacity:1" d="m92.57 142.809-1.441 44.625-.586-33.707"/><path style="stroke:none;fill-rule:nonzero;fill:#780000;fill-opacity:1" d="m96.879 94.992-24.633 8.555 9.121-1.82M78.27 103.07l-11.86 5.149 14.824-4.465"/><path style="stroke:none;fill-rule:nonzero;fill:#edaf33;fill-opacity:1" d="m100.922 97.824-2.813 15.14-.37-5.401"/><path style="stroke:none;fill-rule:nonzero;fill:#ced6df;fill-opacity:1" d="m100.922 97.824-3.184 9.739-21.156-4.883"/><path style="stroke:none;fill-rule:nonzero;fill:#edaf33;fill-opacity:1" d="m100.922 97.824-3.184 9.739-.586-8.602"/><path style="stroke:none;fill-rule:nonzero;fill:#948cc8;fill-opacity:1" d="m114.688 124.793-13.766-26.969-5.117 27.567"/><path style="stroke:none;fill-rule:nonzero;fill:#ced6df;fill-opacity:1" d="m100.922 97.824 17.3 14.469-11.242-2.594"/><path style="stroke:none;fill-rule:nonzero;fill:#743573;fill-opacity:1" d="m118.867 88.395 56.242 71.464-46.129-38.57"/><path style="stroke:none;fill-rule:nonzero;fill:#743573;fill-opacity:1" d="m130.719 82.172 44.39 77.687-56.242-71.464"/><path style="stroke:none;fill-rule:nonzero;fill:#edaf33;fill-opacity:1" d="m95.707 113.781 2.402-.816-3.535 19.043"/><path style="fill-rule:nonzero;fill:#743573;fill-opacity:1;stroke-width:6.00872;stroke-linecap:round;stroke-linejoin:round;stroke:#000;stroke-opacity:1;stroke-miterlimit:10" d="m1009.219 1699.805 503.36-413.633 284.843-513.594" transform="matrix(.1 0 0 -.1 0 200)"/><path style="stroke:none;fill-rule:nonzero;fill:#780000;fill-opacity:1" d="m151.258 71.383-54.38 23.61 4.044 2.831"/><path style="stroke:none;fill-rule:nonzero;fill:#780000;fill-opacity:1" d="m96.879 94.992-15.512 6.735 19.555-3.903"/><path style="stroke:none;fill-rule:nonzero;fill:#edaf33;fill-opacity:1" d="m89.438 89.781 11.484-59.761-9.055 61.46"/><path style="fill:none;stroke-width:6.00872;stroke-linecap:round;stroke-linejoin:round;stroke:#000;stroke-opacity:1;stroke-miterlimit:10" d="m894.375 1102.188 114.844 597.617" transform="matrix(.1 0 0 -.1 0 200)"/><path style="stroke:none;fill-rule:nonzero;fill:#ced6df;fill-opacity:1" d="m76.582 102.68 19.125 11.101-35.074-7.918M95.707 113.781l-2.437 7.477-32.637-15.395"/><path style="stroke:none;fill-rule:nonzero;fill:#ced6df;fill-opacity:1" d="m60.633 105.863 32.637 15.395-3.122 9.55M90.148 130.809l-1.988 6.086-40.984-28.344M13.656 66.16l46.977 39.703-13.457 2.688"/><path style="stroke:none;fill-rule:nonzero;fill:#780000;fill-opacity:1" d="M94.18 93.102 33.2 111.34l27.433-5.477"/><path style="stroke:none;fill-rule:nonzero;fill:#780000;fill-opacity:1" d="M91.867 91.48 33.2 111.34l60.98-18.238"/><path style="stroke:none;fill-rule:nonzero;fill:#ced6df;fill-opacity:1" d="m76.582 102.68 11.227 2.593-.391 3.696M87.809 105.273l9.93 2.29-10.321 1.406"/><path style="stroke:none;fill-rule:nonzero;fill:#ced6df;fill-opacity:1" d="m87.418 108.969 10.32-1.406-2.031 6.218"/><path style="stroke:none;fill-rule:nonzero;fill:#edaf33;fill-opacity:1" d="M100.922 30.02 94.18 93.102l-2.313-1.622"/><path style="fill-rule:nonzero;fill:#780000;fill-opacity:1;stroke-width:6.00872;stroke-linecap:round;stroke-linejoin:round;stroke:#000;stroke-opacity:1;stroke-miterlimit:10" d="m1512.578 1286.172-618.203-183.985-562.383-215.585" transform="matrix(.1 0 0 -.1 0 200)"/><path style="stroke:none;fill-rule:nonzero;fill:#edaf33;fill-opacity:1" d="m82.734 153.512 6.704-63.73 2.43 1.698"/><path style="fill:none;stroke-width:6.00872;stroke-linecap:round;stroke-linejoin:round;stroke:#000;stroke-opacity:1;stroke-miterlimit:10" d="m827.344 464.883 67.031 637.304" transform="matrix(.1 0 0 -.1 0 200)"/><path style="stroke:none;fill-rule:nonzero;fill:#edaf33;fill-opacity:1" d="m96.879 94.992.86 12.57-2.032 6.22"/><path style="stroke:none;fill-rule:nonzero;fill:#edaf33;fill-opacity:1" d="m97.738 107.563.371 5.402-2.402.816M95.707 113.781l-4.578 73.653 2.14-66.176"/><path style="stroke:none;fill-rule:nonzero;fill:#948cc8;fill-opacity:1" d="m114.688 124.793-18.883.598 27.789 16.855"/><path style="stroke:none;fill-rule:nonzero;fill:#ced6df;fill-opacity:1" d="m114.688 124.793 60.421 35.066-56.007-26.418"/><path style="stroke:none;fill-rule:nonzero;fill:#ced6df;fill-opacity:1" d="m114.688 124.793 10.703-6.508 49.718 41.574M95.707 113.781l14.48 2.196 4.5 8.816M110.188 115.977l15.203 2.308-10.704 6.508M175.11 159.86l-36.4 11.992-19.608-38.41"/><path style="fill:none;stroke-width:6.00872;stroke-linecap:round;stroke-linejoin:round;stroke:#000;stroke-opacity:1;stroke-miterlimit:10" d="m1751.094 401.406-363.985-119.922" transform="matrix(.1 0 0 -.1 0 200)"/><path style="stroke:none;fill-rule:nonzero;fill:#948cc8;fill-opacity:1" d="m138.71 171.852 41.032-49.11-48.703 34.086"/><path style="fill:none;stroke-width:6.00872;stroke-linecap:round;stroke-linejoin:round;stroke:#000;stroke-opacity:1;stroke-miterlimit:10" d="m1387.11 281.484 410.312 491.094" transform="matrix(.1 0 0 -.1 0 200)"/><path style="stroke:none;fill-rule:nonzero;fill:#948cc8;fill-opacity:1" d="m83.836 189.867 54.875-18.015-7.672-15.024"/><path style="fill:none;stroke-width:6.00872;stroke-linecap:round;stroke-linejoin:round;stroke:#000;stroke-opacity:1;stroke-miterlimit:10" d="m838.36 101.328 548.75 180.156" transform="matrix(.1 0 0 -.1 0 200)"/><path style="stroke:none;fill-rule:nonzero;fill:#ced6df;fill-opacity:1" d="m95.707 113.781 18.98 11.012-21.417-3.535"/><path style="stroke:none;fill-rule:nonzero;fill:#ced6df;fill-opacity:1" d="m114.688 124.793 4.414 8.648-25.832-12.183"/><path style="stroke:none;fill-rule:nonzero;fill:#948cc8;fill-opacity:1" d="m179.742 122.742-78.82-24.918 13.766 26.969"/><path style="stroke:none;fill-rule:nonzero;fill:#ced6df;fill-opacity:1" d="m100.922 97.824 6.058 11.875-9.242-2.136"/><path style="stroke:none;fill-rule:nonzero;fill:#edaf33;fill-opacity:1" d="m96.879 94.992-1.172 18.79-1.527-20.68"/><path style="stroke:none;fill-rule:nonzero;fill:#edaf33;fill-opacity:1" d="m95.707 113.781-2.437 7.477.91-28.156"/><path style="stroke:none;fill-rule:nonzero;fill:#948cc8;fill-opacity:1" d="m123.594 142.246-33.051 11.48 40.496 3.102M90.543 153.727l-1.828 9.863 42.324-6.762"/><path style="stroke:none;fill-rule:nonzero;fill:#edaf33;fill-opacity:1" d="m93.27 121.258-.7 21.55-2.422-12"/><path style="stroke:none;fill-rule:nonzero;fill:#948cc8;fill-opacity:1" d="m131.04 156.828-42.325 6.762-4.88 26.277M123.594 142.246l-27.79-16.855-5.261 28.336"/><path style="stroke:none;fill-rule:nonzero;fill:#ced6df;fill-opacity:1" d="m90.148 130.809 28.954 2.632 19.609 38.41"/><path style="stroke:none;fill-rule:nonzero;fill:#ced6df;fill-opacity:1" d="m93.27 121.258 25.832 12.183-28.954-2.632"/><path style="stroke:none;fill-rule:nonzero;fill:#948cc8;fill-opacity:1" d="M90.543 153.727 39.535 171.44l49.18-7.851"/><path style="stroke:none;fill-rule:nonzero;fill:#edaf33;fill-opacity:1" d="m92.57 142.809-2.027 10.918-.395-22.918"/><path style="stroke:none;fill-rule:nonzero;fill:#edaf33;fill-opacity:1" d="m90.148 130.809.395 22.918-6.707 36.14"/><path style="stroke:none;fill-rule:nonzero;fill:#948cc8;fill-opacity:1" d="m179.742 122.742-56.148 19.504 7.445 14.582"/><path style="stroke:none;fill-rule:nonzero;fill:#edaf33;fill-opacity:1" d="m90.148 130.809-6.312 59.058 4.324-52.972"/><path style="stroke:none;fill-rule:nonzero;fill:#ced6df;fill-opacity:1" d="m90.148 130.809 48.563 41.043-50.55-34.957"/><path style="stroke:none;fill-rule:nonzero;fill:#edaf33;fill-opacity:1" d="m94.18 93.102-4.032 37.707 1.72-39.329M90.148 130.809l-1.988 6.086 3.707-45.415"/><path style="stroke:none;fill-rule:nonzero;fill:#edaf33;fill-opacity:1" d="m91.867 91.48-3.707 45.415-5.426 16.617"/><path style="stroke:none;fill-rule:nonzero;fill:#edaf33;fill-opacity:1" d="m83.836 189.867-1.102-36.355 5.426-16.617"/><path style="fill:none;stroke-width:6.00872;stroke-linecap:round;stroke-linejoin:round;stroke:#000;stroke-opacity:1;stroke-miterlimit:10" d="m838.36 101.328-11.016 363.555" transform="matrix(.1 0 0 -.1 0 200)"/><path style="stroke:none;fill-rule:nonzero;fill:#ced6df;fill-opacity:1" d="m138.71 171.852-55.976-18.34 5.426-16.617"/><path style="fill:none;stroke-width:6.00872;stroke-linecap:round;stroke-linejoin:round;stroke:#000;stroke-opacity:1;stroke-miterlimit:10" d="M1387.11 281.484 827.343 464.883" transform="matrix(.1 0 0 -.1 0 200)"/><path style="stroke:none;fill-rule:nonzero;fill:#780000;fill-opacity:1" d="M151.258 71.383 91.868 91.48l2.312 1.622"/><path style="stroke:none;fill-rule:nonzero;fill:#ced6df;fill-opacity:1" d="M82.734 153.512 33.2 111.34l13.977-2.79"/><path style="fill:none;stroke-width:6.00872;stroke-linecap:round;stroke-linejoin:round;stroke:#000;stroke-opacity:1;stroke-miterlimit:10" d="M827.344 464.883 331.992 886.602" transform="matrix(.1 0 0 -.1 0 200)"/><path style="stroke:none;fill-rule:nonzero;fill:#780000;fill-opacity:1" d="M151.258 71.383 94.18 93.102l2.699 1.89"/><path style="stroke:none;fill-rule:nonzero;fill:#edaf33;fill-opacity:1" d="m100.922 97.824-3.77 1.137-.273-3.969"/><path style="stroke:none;fill-rule:nonzero;fill:#ced6df;fill-opacity:1" d="m97.738 107.563 9.242 2.136-11.273 4.082M106.98 109.7l3.207 6.277-14.48-2.196"/><path style="stroke:none;fill-rule:nonzero;fill:#948cc8;fill-opacity:1" d="m179.742 122.742-65.054 2.051 8.906 17.453"/><path style="stroke:none;fill-rule:nonzero;fill:#edaf33;fill-opacity:1" d="m94.18 93.102-.91 28.156-3.122 9.55"/><path style="stroke:none;fill-rule:nonzero;fill:#280000;fill-opacity:1" d="m111.332 2.547 51.137 21.46-45.91-10.456"/><path style="fill:none;stroke-width:6.00872;stroke-linecap:round;stroke-linejoin:round;stroke:#000;stroke-opacity:1;stroke-miterlimit:10" d="m1113.32 1974.531 511.368-214.61-459.102 104.571Zm0 0" transform="matrix(.1 0 0 -.1 0 200)"/><path style="stroke:none;fill-rule:nonzero;fill:#c394a5;fill-opacity:1" d="m111.332 2.547-57.84 15.719 55.797 2.937"/><path style="fill:none;stroke-width:6.00872;stroke-linecap:round;stroke-linejoin:round;stroke:#000;stroke-opacity:1;stroke-miterlimit:10" d="m1113.32 1974.531-578.398-157.187" transform="matrix(.1 0 0 -.1 0 200)"/><path style="stroke:none;fill-rule:nonzero;fill:#edaf33;fill-opacity:1" d="m111.332 2.547 5.227 11.004-7.27 7.652"/><path style="fill:none;stroke-width:6.00872;stroke-linecap:round;stroke-linejoin:round;stroke:#000;stroke-opacity:1;stroke-miterlimit:10" d="m1113.32 1974.531 52.266-110.039" transform="matrix(.1 0 0 -.1 0 200)"/><path style="stroke:none;fill-rule:nonzero;fill:#c394a5;fill-opacity:1" d="M162.469 24.008 111.332 2.547l-2.043 18.656"/><path style="fill:none;stroke-width:6.00872;stroke-linecap:round;stroke-linejoin:round;stroke:#000;stroke-opacity:1;stroke-miterlimit:10" d="m1624.688 1759.922-511.368 214.61" transform="matrix(.1 0 0 -.1 0 200)"/><path style="stroke:none;fill-rule:nonzero;fill:#edaf33;fill-opacity:1" d="m100.922 30.02 10.41-27.473-2.043 18.656"/><path style="fill:none;stroke-width:6.00872;stroke-linecap:round;stroke-linejoin:round;stroke:#000;stroke-opacity:1;stroke-miterlimit:10" d="m1009.219 1699.805 104.101 274.726" transform="matrix(.1 0 0 -.1 0 200)"/><path style="stroke:none;fill-rule:nonzero;fill:#000;fill-opacity:1" d="m188.074 65.016-.27 6.632-25.335-47.64"/><path style="fill:none;stroke-width:6.00872;stroke-linecap:round;stroke-linejoin:round;stroke:#000;stroke-opacity:1;stroke-miterlimit:10" d="m1880.742 1349.844-2.695-66.328-253.36 476.406Zm0 0" transform="matrix(.1 0 0 -.1 0 200)"/><path style="stroke:none;fill-rule:nonzero;fill:#948cc8;fill-opacity:1" d="M188.074 65.016 162.47 24.008l8.312 47.515"/><path style="fill:none;stroke-width:6.00872;stroke-linecap:round;stroke-linejoin:round;stroke:#000;stroke-opacity:1;stroke-miterlimit:10" d="m1880.742 1349.844-256.054 410.078" transform="matrix(.1 0 0 -.1 0 200)"/><path style="stroke:none;fill-rule:nonzero;fill:#780000;fill-opacity:1" d="m187.805 71.648.27-6.632-17.294 6.507"/><path style="fill:none;stroke-width:6.00872;stroke-linecap:round;stroke-linejoin:round;stroke:#000;stroke-opacity:1;stroke-miterlimit:10" d="m1878.047 1283.516 2.695 66.328" transform="matrix(.1 0 0 -.1 0 200)"/><path style="stroke:none;fill-rule:nonzero;fill:#948cc8;fill-opacity:1" d="m179.742 122.742 8.332-57.726-17.293 6.507"/><path style="fill:none;stroke-width:6.00872;stroke-linecap:round;stroke-linejoin:round;stroke:#000;stroke-opacity:1;stroke-miterlimit:10" d="m1797.422 772.578 83.32 577.266" transform="matrix(.1 0 0 -.1 0 200)"/><path style="stroke:none;fill-rule:nonzero;fill:#780000;fill-opacity:1" d="m188.074 65.016-36.816 6.367 19.523.14"/><path style="fill:none;stroke-width:6.00872;stroke-linecap:round;stroke-linejoin:round;stroke:#000;stroke-opacity:1;stroke-miterlimit:10" d="m1880.742 1349.844-368.164-63.672" transform="matrix(.1 0 0 -.1 0 200)"/><path style="stroke:none;fill-rule:nonzero;fill:#002fb6;fill-opacity:1" d="m53.492 18.266-24.484 19.43L13.656 66.16"/><path style="fill:none;stroke-width:6.00872;stroke-linecap:round;stroke-linejoin:round;stroke:#000;stroke-opacity:1;stroke-miterlimit:10" d="m534.922 1817.344-244.844-194.297-153.515-284.649Zm0 0" transform="matrix(.1 0 0 -.1 0 200)"/><path style="stroke:none;fill-rule:nonzero;fill:#e2865b;fill-opacity:1" d="m179.742 122.742-41.031 49.11 36.398-11.993"/><path style="fill:none;stroke-width:6.00872;stroke-linecap:round;stroke-linejoin:round;stroke:#000;stroke-opacity:1;stroke-miterlimit:10" d="m1797.422 772.578-410.313-491.094 363.985 119.922Zm0 0" transform="matrix(.1 0 0 -.1 0 200)"/><path style="stroke:none;fill-rule:nonzero;fill:#403198;fill-opacity:1" d="m8.938 125.531 24.261-14.191-19.543-45.18"/><path style="fill:none;stroke-width:6.00872;stroke-linecap:round;stroke-linejoin:round;stroke:#000;stroke-opacity:1;stroke-miterlimit:10" d="m89.375 744.688 242.617 141.914-195.43 451.796Zm0 0" transform="matrix(.1 0 0 -.1 0 200)"/><path style="stroke:none;fill-rule:nonzero;fill:#8fbdf5;fill-opacity:1" d="m111.332 2.547-57.84 15.719 47.43 11.754"/><path style="fill:none;stroke-width:6.00872;stroke-linecap:round;stroke-linejoin:round;stroke:#000;stroke-opacity:1;stroke-miterlimit:10" d="m1113.32 1974.531-578.398-157.187 474.297-117.54Zm0 0" transform="matrix(.1 0 0 -.1 0 200)"/><path style="stroke:none;fill-rule:nonzero;fill:#a9576a;fill-opacity:1" d="m82.734 153.512 1.102 36.355 54.875-18.015"/><path style="fill:none;stroke-width:6.00872;stroke-linecap:round;stroke-linejoin:round;stroke:#000;stroke-opacity:1;stroke-miterlimit:10" d="m827.344 464.883 11.015-363.555 548.75 180.156Zm0 0" transform="matrix(.1 0 0 -.1 0 200)"/><path style="stroke:none;fill-rule:nonzero;fill:#e6c4b3;fill-opacity:1" d="m179.742 122.742 8.332-57.726-36.816 6.367"/><path style="fill:none;stroke-width:6.00872;stroke-linecap:round;stroke-linejoin:round;stroke:#000;stroke-opacity:1;stroke-miterlimit:10" d="m1797.422 772.578 83.32 577.266-368.164-63.672Zm0 0" transform="matrix(.1 0 0 -.1 0 200)"/><path style="stroke:none;fill-rule:nonzero;fill:#a07aa7;fill-opacity:1" d="m33.2 111.34 49.534 42.172 6.704-63.73"/><path style="fill:none;stroke-width:6.00872;stroke-linecap:round;stroke-linejoin:round;stroke:#000;stroke-opacity:1;stroke-miterlimit:10" d="m331.992 886.602 495.352-421.72 67.031 637.305Zm0 0" transform="matrix(.1 0 0 -.1 0 200)"/><path style="stroke:none;fill-rule:nonzero;fill:#baa8c6;fill-opacity:1" d="M100.922 30.02 89.438 89.78l61.82-18.398"/><path style="fill:none;stroke-width:6.00872;stroke-linecap:round;stroke-linejoin:round;stroke:#000;stroke-opacity:1;stroke-miterlimit:10" d="m1009.219 1699.805-114.844-597.618 618.203 183.985Zm0 0" transform="matrix(.1 0 0 -.1 0 200)"/></svg>