<svg xmlns="http://www.w3.org/2000/svg" width="263.667" height="268" viewBox="0 0 197.75 201" version="1.2"><path style="stroke:none;fill-rule:nonzero;fill:#b3a0c5;fill-opacity:1" d="m61.262 94.047 49.011 11.156-36.293 14.465"/><path style="fill:none;stroke-width:5;stroke-linecap:round;stroke-linejoin:round;stroke:#000;stroke-opacity:1;stroke-miterlimit:10" d="m613.392 1069.613 490.736-111.704L740.74 813.078Zm0 0" transform="matrix(.09987 0 0 -.09987 0 200.873)"/><path style="stroke:none;fill-rule:nonzero;fill:#cec2cf;fill-opacity:1" d="m43.035 128.695 18.227-34.648 12.718 25.621"/><path style="fill:none;stroke-width:5;stroke-linecap:round;stroke-linejoin:round;stroke:#000;stroke-opacity:1;stroke-miterlimit:10" d="m430.896 722.69 182.496 346.923L740.74 813.078Zm0 0" transform="matrix(.09987 0 0 -.09987 0 200.873)"/><path style="stroke:none;fill-rule:nonzero;fill:#ad84a9;fill-opacity:1" d="m61.262 94.047 22.86-17.98 26.151 29.136"/><path style="fill:none;stroke-width:5;stroke-linecap:round;stroke-linejoin:round;stroke:#000;stroke-opacity:1;stroke-miterlimit:10" d="m613.392 1069.613 228.882 180.032 261.854-291.736Zm0 0" transform="matrix(.09987 0 0 -.09987 0 200.873)"/><path style="fill-rule:nonzero;fill:#ecc8b0;fill-opacity:1;stroke-width:5;stroke-linecap:round;stroke-linejoin:round;stroke:#000;stroke-opacity:1;stroke-miterlimit:10" d="m439.891 1119.872 173.5-50.26-57.924-110.1" transform="matrix(.09987 0 0 -.09987 0 200.873)"/><path style="stroke:none;fill-rule:nonzero;fill:#bd7d8b;fill-opacity:1" d="m84.121 76.066-22.86 17.98-.39-41.425"/><path style="fill:none;stroke-width:5;stroke-linecap:round;stroke-linejoin:round;stroke:#000;stroke-opacity:1;stroke-miterlimit:10" d="m842.274 1249.645-228.882-180.032-3.912 414.781Zm0 0" transform="matrix(.09987 0 0 -.09987 0 200.873)"/><path style="stroke:none;fill-rule:nonzero;fill:#e19b85;fill-opacity:1" d="m61.262 94.047-17.328-5.02L60.87 52.621"/><path style="fill:none;stroke-width:5;stroke-linecap:round;stroke-linejoin:round;stroke:#000;stroke-opacity:1;stroke-miterlimit:10" d="m613.392 1069.613-173.5 50.259 169.588 364.522Zm0 0" transform="matrix(.09987 0 0 -.09987 0 200.873)"/><path style="stroke:none;fill-rule:nonzero;fill:#9b7db0;fill-opacity:1" d="m105.25 54.695 23.082 16.672-18.059 33.836"/><path style="fill:none;stroke-width:5;stroke-linecap:round;stroke-linejoin:round;stroke:#000;stroke-opacity:1;stroke-miterlimit:10" d="m1053.83 1463.626 231.113-166.93-180.815-338.787Zm0 0" transform="matrix(.09987 0 0 -.09987 0 200.873)"/><path style="stroke:none;fill-rule:nonzero;fill:#ba98b5;fill-opacity:1" d="m84.121 76.066 21.129-21.37 5.023 50.507"/><path style="fill:none;stroke-width:5;stroke-linecap:round;stroke-linejoin:round;stroke:#000;stroke-opacity:1;stroke-miterlimit:10" d="m842.274 1249.645 211.557 213.98 50.297-505.716Zm0 0" transform="matrix(.09987 0 0 -.09987 0 200.873)"/><path style="stroke:none;fill-rule:nonzero;fill:#7c4887;fill-opacity:1" d="M128.332 71.367 105.25 54.695l32.922-10.832"/><path style="fill:none;stroke-width:5;stroke-linecap:round;stroke-linejoin:round;stroke:#000;stroke-opacity:1;stroke-miterlimit:10" d="m1284.943 1296.696-231.112 166.93 329.635 108.457Zm0 0" transform="matrix(.09987 0 0 -.09987 0 200.873)"/><path style="stroke:none;fill-rule:nonzero;fill:#ce969a;fill-opacity:1" d="m60.871 52.621 44.379 2.074-21.129 21.371"/><path style="fill:none;stroke-width:5;stroke-linecap:round;stroke-linejoin:round;stroke:#000;stroke-opacity:1;stroke-miterlimit:10" d="m609.48 1484.394 444.35-20.768-211.556-213.981Zm0 0" transform="matrix(.09987 0 0 -.09987 0 200.873)"/><path style="stroke:none;fill-rule:nonzero;fill:#832649;fill-opacity:1" d="M105.25 54.695 99.402 39.22l38.77 4.644"/><path style="fill:none;stroke-width:5;stroke-linecap:round;stroke-linejoin:round;stroke:#000;stroke-opacity:1;stroke-miterlimit:10" d="m1053.83 1463.626-58.55 154.961 388.186-46.504Zm0 0" transform="matrix(.09987 0 0 -.09987 0 200.873)"/><path style="stroke:none;fill-rule:nonzero;fill:#bd6360;fill-opacity:1" d="m99.402 39.219 5.848 15.476-44.379-2.074"/><path style="fill:none;stroke-width:5;stroke-linecap:round;stroke-linejoin:round;stroke:#000;stroke-opacity:1;stroke-miterlimit:10" d="m995.28 1618.587 58.55-154.961-444.35 20.768Zm0 0" transform="matrix(.09987 0 0 -.09987 0 200.873)"/><path style="stroke:none;fill-rule:nonzero;fill:#ba98b5;fill-opacity:1" d="m83.527 148.516-9.547-28.848 36.293-14.465"/><path style="fill:none;stroke-width:5;stroke-linecap:round;stroke-linejoin:round;stroke:#000;stroke-opacity:1;stroke-miterlimit:10" d="m836.33 524.237-95.59 288.841 363.388 144.831Zm0 0" transform="matrix(.09987 0 0 -.09987 0 200.873)"/><path style="stroke:none;fill-rule:nonzero;fill:#9f8fc3;fill-opacity:1" d="m111.914 142.84-28.387 5.676 26.746-43.313"/><path style="fill:none;stroke-width:5;stroke-linecap:round;stroke-linejoin:round;stroke:#000;stroke-opacity:1;stroke-miterlimit:10" d="m1120.555 581.066-284.226-56.83 267.8 433.673Zm0 0" transform="matrix(.09987 0 0 -.09987 0 200.873)"/><path style="stroke:none;fill-rule:nonzero;fill:#9f8fc3;fill-opacity:1" d="m110.273 105.203 45.97-20.863-10.184 28.472"/><path style="fill:none;stroke-width:5;stroke-linecap:round;stroke-linejoin:round;stroke:#000;stroke-opacity:1;stroke-miterlimit:10" d="m1104.128 957.91 460.27 208.896-101.966-285.087Zm0 0" transform="matrix(.09987 0 0 -.09987 0 200.873)"/><path style="stroke:none;fill-rule:nonzero;fill:#ad84a9;fill-opacity:1" d="m128.332 71.367 27.91 12.973-45.969 20.863"/><path style="fill:none;stroke-width:5;stroke-linecap:round;stroke-linejoin:round;stroke:#000;stroke-opacity:1;stroke-miterlimit:10" d="m1284.943 1296.696 279.454-129.89-460.269-208.897Zm0 0" transform="matrix(.09987 0 0 -.09987 0 200.873)"/><path style="stroke:none;fill-rule:nonzero;fill:#9b7db0;fill-opacity:1" d="m142.805 143.344-32.532-38.14 35.786 7.609"/><path style="fill:none;stroke-width:5;stroke-linecap:round;stroke-linejoin:round;stroke:#000;stroke-opacity:1;stroke-miterlimit:10" d="m1429.852 576.02-325.724 381.89 358.304-76.19Zm0 0" transform="matrix(.09987 0 0 -.09987 0 200.873)"/><path style="stroke:none;fill-rule:nonzero;fill:#b3a0c5;fill-opacity:1" d="m142.805 143.344-30.89-.504-1.642-37.637"/><path style="fill:none;stroke-width:5;stroke-linecap:round;stroke-linejoin:round;stroke:#000;stroke-opacity:1;stroke-miterlimit:10" d="m1429.852 576.02-309.297 5.046-16.427 376.843Zm0 0" transform="matrix(.09987 0 0 -.09987 0 200.873)"/><path style="stroke:none;fill-rule:nonzero;fill:#a5d9fa;fill-opacity:1" d="m71.844 157.934 11.683-9.418 25.739 21.304"/><path style="fill:none;stroke-width:5;stroke-linecap:round;stroke-linejoin:round;stroke:#000;stroke-opacity:1;stroke-miterlimit:10" d="m719.346 429.938 116.983 94.299 257.709-213.316Zm0 0" transform="matrix(.09987 0 0 -.09987 0 200.873)"/><path style="stroke:none;fill-rule:nonzero;fill:#dae2db;fill-opacity:1" d="m43.035 128.695 40.492 19.82-11.683 9.419"/><path style="fill:none;stroke-width:5;stroke-linecap:round;stroke-linejoin:round;stroke:#000;stroke-opacity:1;stroke-miterlimit:10" d="m430.896 722.69 405.433-198.453-116.983-94.299Zm0 0" transform="matrix(.09987 0 0 -.09987 0 200.873)"/><path style="stroke:none;fill-rule:nonzero;fill:#8da4e4;fill-opacity:1" d="m83.527 148.516 28.387-5.676-2.648 26.98"/><path style="fill:none;stroke-width:5;stroke-linecap:round;stroke-linejoin:round;stroke:#000;stroke-opacity:1;stroke-miterlimit:10" d="m836.33 524.237 284.225 56.83-26.517-270.146Zm0 0" transform="matrix(.09987 0 0 -.09987 0 200.873)"/><path style="stroke:none;fill-rule:nonzero;fill:#d6b7bb;fill-opacity:1" d="m73.98 119.668 9.547 28.848-40.492-19.82"/><path style="fill:none;stroke-width:5;stroke-linecap:round;stroke-linejoin:round;stroke:#000;stroke-opacity:1;stroke-miterlimit:10" d="m740.74 813.078 95.59-288.841L430.895 722.69Zm0 0" transform="matrix(.09987 0 0 -.09987 0 200.873)"/><path style="fill-rule:nonzero;fill:#ecc8b0;fill-opacity:1;stroke-width:5;stroke-linecap:round;stroke-linejoin:round;stroke:#000;stroke-opacity:1;stroke-miterlimit:10" d="M555.467 959.513 430.896 722.69l8.995 397.182" transform="matrix(.09987 0 0 -.09987 0 200.873)"/><path style="stroke:none;fill-rule:nonzero;fill:#965680;fill-opacity:1" d="m138.172 43.863 18.07 40.477-27.91-12.973"/><path style="fill:none;stroke-width:5;stroke-linecap:round;stroke-linejoin:round;stroke:#000;stroke-opacity:1;stroke-miterlimit:10" d="m1383.466 1572.083 180.931-405.277-279.454 129.89Zm0 0" transform="matrix(.09987 0 0 -.09987 0 200.873)"/><path style="stroke:none;fill-rule:nonzero;fill:#656dc5;fill-opacity:1" d="m146.059 112.813 10.183-28.473 13.528 32.504"/><path style="fill:none;stroke-width:5;stroke-linecap:round;stroke-linejoin:round;stroke:#000;stroke-opacity:1;stroke-miterlimit:10" d="m1462.432 881.72 101.965 285.086 135.445-325.45Zm0 0" transform="matrix(.09987 0 0 -.09987 0 200.873)"/><path style="stroke:none;fill-rule:nonzero;fill:#3d0450;fill-opacity:1" d="m156.242 84.34-18.07-40.477 25.89 32.668"/><path style="fill:none;stroke-width:5;stroke-linecap:round;stroke-linejoin:round;stroke:#000;stroke-opacity:1;stroke-miterlimit:10" d="m1564.397 1166.806-180.931 405.277 259.233-327.092Zm0 0" transform="matrix(.09987 0 0 -.09987 0 200.873)"/><path style="stroke:none;fill-rule:nonzero;fill:#03037a;fill-opacity:1" d="M169.77 116.844 156.242 84.34l7.82-7.809"/><path style="fill:none;stroke-width:5;stroke-linecap:round;stroke-linejoin:round;stroke:#000;stroke-opacity:1;stroke-miterlimit:10" d="m1699.842 841.356-135.445 325.45 78.302 78.185Zm0 0" transform="matrix(.09987 0 0 -.09987 0 200.873)"/><path style="stroke:none;fill-rule:nonzero;fill:#abbbe5;fill-opacity:1" d="m111.914 142.84 30.89.504-33.538 26.476"/><path style="fill:none;stroke-width:5;stroke-linecap:round;stroke-linejoin:round;stroke:#000;stroke-opacity:1;stroke-miterlimit:10" d="m1120.555 581.066 309.297-5.045-335.814-265.1Zm0 0" transform="matrix(.09987 0 0 -.09987 0 200.873)"/><path style="stroke:none;fill-rule:nonzero;fill:#509bf3;fill-opacity:1" d="m142.805 143.344 4.207 8.199-37.746 18.277"/><path style="fill:none;stroke-width:5;stroke-linecap:round;stroke-linejoin:round;stroke:#000;stroke-opacity:1;stroke-miterlimit:10" d="m1429.852 576.02 42.124-82.095-377.938-183.004Zm0 0" transform="matrix(.09987 0 0 -.09987 0 200.873)"/><path style="stroke:none;fill-rule:nonzero;fill:#6152a9;fill-opacity:1" d="m169.77 116.844-26.965 26.5 3.254-30.531"/><path style="fill:none;stroke-width:5;stroke-linecap:round;stroke-linejoin:round;stroke:#000;stroke-opacity:1;stroke-miterlimit:10" d="m1699.842 841.356-269.99-265.335 32.58 305.698Zm0 0" transform="matrix(.09987 0 0 -.09987 0 200.873)"/><path style="stroke:none;fill-rule:nonzero;fill:#063cbd;fill-opacity:1" d="m142.805 143.344 26.965-26.5-22.758 34.699"/><path style="fill:none;stroke-width:5;stroke-linecap:round;stroke-linejoin:round;stroke:#000;stroke-opacity:1;stroke-miterlimit:10" d="m1429.852 576.02 269.99 265.336-227.866-347.431Zm0 0" transform="matrix(.09987 0 0 -.09987 0 200.873)"/><path style="stroke:none;fill-rule:nonzero;fill:#d6b7bb;fill-opacity:1" d="m17.367 82.125 26.567 6.902-.899 39.668"/><path style="fill:none;stroke-width:5;stroke-linecap:round;stroke-linejoin:round;stroke:#000;stroke-opacity:1;stroke-miterlimit:10" d="m173.891 1188.982 266-69.11-8.995-397.182Zm0 0" transform="matrix(.09987 0 0 -.09987 0 200.873)"/><path style="stroke:none;fill-rule:nonzero;fill:#ce969a;fill-opacity:1" d="m17.367 82.125 43.504-29.504-16.937 36.406"/><path style="fill:none;stroke-width:5;stroke-linecap:round;stroke-linejoin:round;stroke:#000;stroke-opacity:1;stroke-miterlimit:10" d="m173.891 1188.982 435.59 295.412-169.59-364.522Zm0 0" transform="matrix(.09987 0 0 -.09987 0 200.873)"/><path style="stroke:none;fill-rule:nonzero;fill:#bd7d8b;fill-opacity:1" d="m60.871 52.621 32.52-39.144 6.011 25.742"/><path style="fill:none;stroke-width:5;stroke-linecap:round;stroke-linejoin:round;stroke:#000;stroke-opacity:1;stroke-miterlimit:10" d="m609.48 1484.394 325.607 391.94 60.193-257.747Zm0 0" transform="matrix(.09987 0 0 -.09987 0 200.873)"/><path style="stroke:none;fill-rule:nonzero;fill:#965680;fill-opacity:1" d="m93.39 13.477 44.782 30.386-38.77-4.644"/><path style="fill:none;stroke-width:5;stroke-linecap:round;stroke-linejoin:round;stroke:#000;stroke-opacity:1;stroke-miterlimit:10" d="m935.087 1876.335 448.379-304.252-388.186 46.504Zm0 0" transform="matrix(.09987 0 0 -.09987 0 200.873)"/><path style="stroke:none;fill-rule:nonzero;fill:#bd6360;fill-opacity:1" d="m35.676 29.656 31.761-2.672-6.566 25.637"/><path style="fill:none;stroke-width:5;stroke-linecap:round;stroke-linejoin:round;stroke:#000;stroke-opacity:1;stroke-miterlimit:10" d="m357.209 1714.333 318.019 26.753-65.748-256.692Zm0 0" transform="matrix(.09987 0 0 -.09987 0 200.873)"/><path style="stroke:none;fill-rule:nonzero;fill:#e19b85;fill-opacity:1" d="m31.36 59.617 4.316-29.96L60.87 52.62"/><path style="fill:none;stroke-width:5;stroke-linecap:round;stroke-linejoin:round;stroke:#000;stroke-opacity:1;stroke-miterlimit:10" d="m313.99 1414.345 43.219 299.988 252.271-229.939Zm0 0" transform="matrix(.09987 0 0 -.09987 0 200.873)"/><path style="fill-rule:nonzero;fill:#d7734f;fill-opacity:1;stroke-width:5;stroke-linecap:round;stroke-linejoin:round;stroke:#000;stroke-opacity:1;stroke-miterlimit:10" d="m825.691 1744.606-216.21-260.212 65.747 256.692M319.075 1287.466l-145.184-98.484 140.1 225.363" transform="matrix(.09987 0 0 -.09987 0 200.873)"/><path style="stroke:none;fill-rule:nonzero;fill:#111181;fill-opacity:1" d="m17.367 82.125 3.242-1.613 10.75-20.895"/><path style="fill:none;stroke-width:5;stroke-linecap:round;stroke-linejoin:round;stroke:#000;stroke-opacity:1;stroke-miterlimit:10" d="m173.891 1188.982 32.463 16.154 107.636 209.209Zm0 0" transform="matrix(.09987 0 0 -.09987 0 200.873)"/><path style="fill-rule:nonzero;fill:#f0a630;fill-opacity:1;stroke-width:5;stroke-linecap:round;stroke-linejoin:round;stroke:#000;stroke-opacity:1;stroke-miterlimit:10" d="m313.99 1414.345-107.636-209.21 102.239 345.124M308.593 1550.259l48.616 164.074-43.219-299.988" transform="matrix(.09987 0 0 -.09987 0 200.873)"/><path style="fill-rule:nonzero;fill:#d7734f;fill-opacity:1;stroke-width:5;stroke-linecap:round;stroke-linejoin:round;stroke:#000;stroke-opacity:1;stroke-miterlimit:10" d="m313.99 1414.345 295.49 70.05-290.405-196.929" transform="matrix(.09987 0 0 -.09987 0 200.873)"/><path style="stroke:none;fill-rule:nonzero;fill:#cec2cf;fill-opacity:1" d="m71.844 157.934-16.563 19.16-12.246-48.399"/><path style="fill:none;stroke-width:5;stroke-linecap:round;stroke-linejoin:round;stroke:#000;stroke-opacity:1;stroke-miterlimit:10" d="M719.346 429.938 553.51 238.094 430.896 722.69Zm0 0" transform="matrix(.09987 0 0 -.09987 0 200.873)"/><path style="stroke:none;fill-rule:nonzero;fill:#dae2db;fill-opacity:1" d="M38.102 152.117 10.859 134.61l32.176-5.914"/><path style="fill:none;stroke-width:5;stroke-linecap:round;stroke-linejoin:round;stroke:#000;stroke-opacity:1;stroke-miterlimit:10" d="M381.497 488.176 108.731 663.475l322.165 59.215Zm0 0" transform="matrix(.09987 0 0 -.09987 0 200.873)"/><path style="fill-rule:nonzero;fill:#f0a630;fill-opacity:1;stroke-width:5;stroke-linecap:round;stroke-linejoin:round;stroke:#000;stroke-opacity:1;stroke-miterlimit:10" d="M201.935 939.957 108.73 663.475l31.563 175.339" transform="matrix(.09987 0 0 -.09987 0 200.873)"/><path style="fill-rule:nonzero;fill:#f2eabf;fill-opacity:1;stroke-width:5;stroke-linecap:round;stroke-linejoin:round;stroke:#000;stroke-opacity:1;stroke-miterlimit:10" d="m201.935 939.957-28.044 249.025 85.382-154.883" transform="matrix(.09987 0 0 -.09987 0 200.873)"/><path style="stroke:none;fill-rule:nonzero;fill:#3e3e57;fill-opacity:1" d="m17.367 82.125 2.801 24.871.441-26.484"/><path style="fill:none;stroke-width:5;stroke-linecap:round;stroke-linejoin:round;stroke:#000;stroke-opacity:1;stroke-miterlimit:10" d="m173.891 1188.982 28.044-249.025 4.42 265.179Zm0 0" transform="matrix(.09987 0 0 -.09987 0 200.873)"/><path style="fill-rule:nonzero;fill:#f0a630;fill-opacity:1;stroke-width:5;stroke-linecap:round;stroke-linejoin:round;stroke:#000;stroke-opacity:1;stroke-miterlimit:10" d="m140.294 838.814 66.06 366.322-4.42-265.18" transform="matrix(.09987 0 0 -.09987 0 200.873)"/><path style="fill-rule:nonzero;fill:#f2eabf;fill-opacity:1;stroke-width:5;stroke-linecap:round;stroke-linejoin:round;stroke:#000;stroke-opacity:1;stroke-miterlimit:10" d="m259.273 1034.1 171.623-311.41-228.961 217.267" transform="matrix(.09987 0 0 -.09987 0 200.873)"/><path style="fill-rule:nonzero;fill:#f2eabf;fill-opacity:1;stroke-width:5;stroke-linecap:round;stroke-linejoin:round;stroke:#000;stroke-opacity:1;stroke-miterlimit:10" d="m381.497 488.176 49.399 234.514 81.274-321.108" transform="matrix(.09987 0 0 -.09987 0 200.873)"/><path style="fill-rule:nonzero;fill:#626262;fill-opacity:1;stroke-width:5;stroke-linecap:round;stroke-linejoin:round;stroke:#000;stroke-opacity:1;stroke-miterlimit:10" d="m381.497 488.176 145.731-84.912-284.813 177.098M242.415 580.362l-133.684 83.113 272.766-175.3" transform="matrix(.09987 0 0 -.09987 0 200.873)"/><path style="fill-rule:nonzero;fill:#f2eabf;fill-opacity:1;stroke-width:5;stroke-linecap:round;stroke-linejoin:round;stroke:#000;stroke-opacity:1;stroke-miterlimit:10" d="m512.17 401.582 41.341-163.488-172.014 250.082" transform="matrix(.09987 0 0 -.09987 0 200.873)"/><path style="stroke:none;fill-rule:nonzero;fill:#ecc8b0;fill-opacity:1" d="m10.86 134.61 9.308-27.614 22.867 21.7"/><path style="fill:none;stroke-width:5;stroke-linecap:round;stroke-linejoin:round;stroke:#000;stroke-opacity:1;stroke-miterlimit:10" d="m108.731 663.475 93.204 276.482 228.96-217.267Zm0 0" transform="matrix(.09987 0 0 -.09987 0 200.873)"/><path style="stroke:none;fill-rule:nonzero;fill:#abbbe5;fill-opacity:1" d="m55.281 177.094 16.563-19.16 37.422 11.886"/><path style="fill:none;stroke-width:5;stroke-linecap:round;stroke-linejoin:round;stroke:#000;stroke-opacity:1;stroke-miterlimit:10" d="m553.511 238.094 165.835 191.844 374.692-119.017Zm0 0" transform="matrix(.09987 0 0 -.09987 0 200.873)"/><path style="stroke:none;fill-rule:nonzero;fill:#3d0450;fill-opacity:1" d="m138.172 43.863 4.226-27.031 15.84 28.54"/><path style="fill:none;stroke-width:5;stroke-linecap:round;stroke-linejoin:round;stroke:#000;stroke-opacity:1;stroke-miterlimit:10" d="m1383.466 1572.083 42.319 270.654 158.598-285.751Zm0 0" transform="matrix(.09987 0 0 -.09987 0 200.873)"/><path style="stroke:none;fill-rule:nonzero;fill:#7c4887;fill-opacity:1" d="m138.172 43.863 44.805 20.598-18.915 12.07"/><path style="fill:none;stroke-width:5;stroke-linecap:round;stroke-linejoin:round;stroke:#000;stroke-opacity:1;stroke-miterlimit:10" d="m1383.466 1572.083 448.613-206.237-189.38-120.855Zm0 0" transform="matrix(.09987 0 0 -.09987 0 200.873)"/><path style="fill-rule:nonzero;fill:#481f1f;fill-opacity:1;stroke-width:5;stroke-linecap:round;stroke-linejoin:round;stroke:#000;stroke-opacity:1;stroke-miterlimit:10" d="m1680.247 1435.622-296.781 136.461 200.917-15.097" transform="matrix(.09987 0 0 -.09987 0 200.873)"/><path style="stroke:none;fill-rule:nonzero;fill:#832649;fill-opacity:1" d="m115.645 21.207 26.753-4.375-4.226 27.031"/><path style="fill:none;stroke-width:5;stroke-linecap:round;stroke-linejoin:round;stroke:#000;stroke-opacity:1;stroke-miterlimit:10" d="m1157.907 1798.932 267.878 43.805-42.32-270.654Zm0 0" transform="matrix(.09987 0 0 -.09987 0 200.873)"/><path style="fill-rule:nonzero;fill:#481f1f;fill-opacity:1;stroke-width:5;stroke-linecap:round;stroke-linejoin:round;stroke:#000;stroke-opacity:1;stroke-miterlimit:10" d="m1083.712 1775.426-148.625 100.909 222.82-77.403" transform="matrix(.09987 0 0 -.09987 0 200.873)"/><path style="fill-rule:nonzero;fill:#d7734f;fill-opacity:1;stroke-width:5;stroke-linecap:round;stroke-linejoin:round;stroke:#000;stroke-opacity:1;stroke-miterlimit:10" d="m675.228 1741.086 259.859 135.249-109.396-131.73" transform="matrix(.09987 0 0 -.09987 0 200.873)"/><path style="stroke:none;fill-rule:nonzero;fill:#79ddf7;fill-opacity:1" d="m93.39 13.477-8.507 9.007 30.762-1.277"/><path style="fill:none;stroke-width:5;stroke-linecap:round;stroke-linejoin:round;stroke:#000;stroke-opacity:1;stroke-miterlimit:10" d="m935.087 1876.335-85.186-90.192 308.006 12.79Zm0 0" transform="matrix(.09987 0 0 -.09987 0 200.873)"/><path style="fill-rule:nonzero;fill:#693030;fill-opacity:1;stroke-width:5;stroke-linecap:round;stroke-linejoin:round;stroke:#000;stroke-opacity:1;stroke-miterlimit:10" d="m1157.907 1798.932-308.006-12.79 388.107 38.135M1238.008 1824.277l187.777 18.46-267.878-43.805" transform="matrix(.09987 0 0 -.09987 0 200.873)"/><path style="fill-rule:nonzero;fill:#481f1f;fill-opacity:1;stroke-width:5;stroke-linecap:round;stroke-linejoin:round;stroke:#000;stroke-opacity:1;stroke-miterlimit:10" d="m1157.907 1798.932 225.559-226.849-299.754 203.343" transform="matrix(.09987 0 0 -.09987 0 200.873)"/><path style="stroke:none;fill-rule:nonzero;fill:#6152a9;fill-opacity:1" d="m164.063 76.531 18.914-12.07-13.207 52.383"/><path style="fill:none;stroke-width:5;stroke-linecap:round;stroke-linejoin:round;stroke:#000;stroke-opacity:1;stroke-miterlimit:10" d="m1642.7 1244.99 189.379 120.856-132.237-524.49Zm0 0" transform="matrix(.09987 0 0 -.09987 0 200.873)"/><path style="stroke:none;fill-rule:nonzero;fill:#656dc5;fill-opacity:1" d="m159.387 168.734-12.375-17.191 22.758-34.7"/><path style="fill:none;stroke-width:5;stroke-linecap:round;stroke-linejoin:round;stroke:#000;stroke-opacity:1;stroke-miterlimit:10" d="m1595.882 321.794-123.906 172.131 227.866 347.43Zm0 0" transform="matrix(.09987 0 0 -.09987 0 200.873)"/><path style="stroke:none;fill-rule:nonzero;fill:#8da4e4;fill-opacity:1" d="m159.387 168.734-50.121 1.086 37.746-18.277"/><path style="fill:none;stroke-width:5;stroke-linecap:round;stroke-linejoin:round;stroke:#000;stroke-opacity:1;stroke-miterlimit:10" d="m1595.882 321.794-501.844-10.873 377.938 183.004Zm0 0" transform="matrix(.09987 0 0 -.09987 0 200.873)"/><path style="fill-rule:nonzero;fill:#48baf5;fill-opacity:1;stroke-width:5;stroke-linecap:round;stroke-linejoin:round;stroke:#000;stroke-opacity:1;stroke-miterlimit:10" d="m1290.105 267.154-196.067 43.767 332.099 7.196" transform="matrix(.09987 0 0 -.09987 0 200.873)"/><path style="stroke:none;fill-rule:nonzero;fill:#509bf3;fill-opacity:1" d="m128.848 174.191-26.711 17.97 7.129-22.34"/><path style="fill:none;stroke-width:5;stroke-linecap:round;stroke-linejoin:round;stroke:#000;stroke-opacity:1;stroke-miterlimit:10" d="M1290.105 267.154 1022.658 87.24l71.38 223.68Zm0 0" transform="matrix(.09987 0 0 -.09987 0 200.873)"/><path style="fill-rule:nonzero;fill:#c94b00;fill-opacity:1;stroke-width:5;stroke-linecap:round;stroke-linejoin:round;stroke:#000;stroke-opacity:1;stroke-miterlimit:10" d="M1290.105 267.154 1402.2 477.381l-257.473-264.67M1144.727 212.71 1022.658 87.24l267.447 179.914" transform="matrix(.09987 0 0 -.09987 0 200.873)"/><path style="fill-rule:nonzero;fill:#48baf5;fill-opacity:1;stroke-width:5;stroke-linecap:round;stroke-linejoin:round;stroke:#000;stroke-opacity:1;stroke-miterlimit:10" d="m1426.137 318.117 169.745 3.677-305.777-54.64" transform="matrix(.09987 0 0 -.09987 0 200.873)"/><path style="stroke:none;fill-rule:nonzero;fill:#a5d9fa;fill-opacity:1" d="m102.137 192.16-22.793-14.035 29.922-8.305"/><path style="fill:none;stroke-width:5;stroke-linecap:round;stroke-linejoin:round;stroke:#000;stroke-opacity:1;stroke-miterlimit:10" d="M1022.658 87.24 794.441 227.769l299.597 83.152Zm0 0" transform="matrix(.09987 0 0 -.09987 0 200.873)"/><path style="fill-rule:nonzero;fill:#626262;fill-opacity:1;stroke-width:5;stroke-linecap:round;stroke-linejoin:round;stroke:#000;stroke-opacity:1;stroke-miterlimit:10" d="m794.44 227.769 228.218-140.53-161.805 103.256" transform="matrix(.09987 0 0 -.09987 0 200.873)"/><path style="fill-rule:nonzero;fill:#48baf5;fill-opacity:1;stroke-width:5;stroke-linecap:round;stroke-linejoin:round;stroke:#000;stroke-opacity:1;stroke-miterlimit:10" d="m732.996 262.304 361.042 48.617-299.597-83.152" transform="matrix(.09987 0 0 -.09987 0 200.873)"/><path style="fill-rule:nonzero;fill:#626262;fill-opacity:1;stroke-width:5;stroke-linecap:round;stroke-linejoin:round;stroke:#000;stroke-opacity:1;stroke-miterlimit:10" d="M860.853 190.495 527.228 403.264l267.213-175.495" transform="matrix(.09987 0 0 -.09987 0 200.873)"/><path style="fill-rule:nonzero;fill:#48baf5;fill-opacity:1;stroke-width:5;stroke-linecap:round;stroke-linejoin:round;stroke:#000;stroke-opacity:1;stroke-miterlimit:10" d="m794.44 227.769-240.929 10.325 179.485 24.21" transform="matrix(.09987 0 0 -.09987 0 200.873)"/><path style="stroke:none;fill-rule:nonzero;fill:#006bce;fill-opacity:1" d="m84.883 22.484 8.508-9.007-25.954 13.507"/><path style="fill:none;stroke-width:5;stroke-linecap:round;stroke-linejoin:round;stroke:#000;stroke-opacity:1;stroke-miterlimit:10" d="m849.901 1786.143 85.186 90.192-259.86-135.25Zm0 0" transform="matrix(.09987 0 0 -.09987 0 200.873)"/><path style="fill-rule:nonzero;fill:#232377;fill-opacity:1;stroke-width:5;stroke-linecap:round;stroke-linejoin:round;stroke:#000;stroke-opacity:1;stroke-miterlimit:10" d="m1785.262 1098.086-85.42-256.73 88.001 349.034" transform="matrix(.09987 0 0 -.09987 0 200.873)"/><path style="stroke:none;fill-rule:nonzero;fill:#03037a;fill-opacity:1" d="m178.3 91.203 8.438 27.106-16.968-1.465"/><path style="fill:none;stroke-width:5;stroke-linecap:round;stroke-linejoin:round;stroke:#000;stroke-opacity:1;stroke-miterlimit:10" d="m1785.262 1098.086 84.482-271.397-169.902 14.667Zm0 0" transform="matrix(.09987 0 0 -.09987 0 200.873)"/><path style="fill-rule:nonzero;fill:#e8f39c;fill-opacity:1;stroke-width:5;stroke-linecap:round;stroke-linejoin:round;stroke:#000;stroke-opacity:1;stroke-miterlimit:10" d="m1785.262 1098.086-183.317 256.379 180.54-355.801M1782.485 998.664l87.259-171.975-84.482 271.397" transform="matrix(.09987 0 0 -.09987 0 200.873)"/><path style="fill-rule:nonzero;fill:#232377;fill-opacity:1;stroke-width:5;stroke-linecap:round;stroke-linejoin:round;stroke:#000;stroke-opacity:1;stroke-miterlimit:10" d="m1787.843 1190.39 44.236 175.456-46.817-267.76" transform="matrix(.09987 0 0 -.09987 0 200.873)"/><path style="stroke:none;fill-rule:nonzero;fill:#063cbd;fill-opacity:1" d="m169.77 116.844 16.968 1.465-19.664 22.546"/><path style="fill:none;stroke-width:5;stroke-linecap:round;stroke-linejoin:round;stroke:#000;stroke-opacity:1;stroke-miterlimit:10" d="m1699.842 841.356 169.902-14.667-196.89-225.754Zm0 0" transform="matrix(.09987 0 0 -.09987 0 200.873)"/><path style="fill-rule:nonzero;fill:#c94b00;fill-opacity:1;stroke-width:5;stroke-linecap:round;stroke-linejoin:round;stroke:#000;stroke-opacity:1;stroke-miterlimit:10" d="m1672.854 600.935 196.89 225.754-151.755-113.346" transform="matrix(.09987 0 0 -.09987 0 200.873)"/><path style="fill-rule:nonzero;fill:#232377;fill-opacity:1;stroke-width:5;stroke-linecap:round;stroke-linejoin:round;stroke:#000;stroke-opacity:1;stroke-miterlimit:10" d="m1630.81 496.35 69.032 345.006-26.988-240.42" transform="matrix(.09987 0 0 -.09987 0 200.873)"/><path style="fill-rule:nonzero;fill:#c94b00;fill-opacity:1;stroke-width:5;stroke-linecap:round;stroke-linejoin:round;stroke:#000;stroke-opacity:1;stroke-miterlimit:10" d="M1717.99 713.343 1402.2 477.38l270.654 123.554" transform="matrix(.09987 0 0 -.09987 0 200.873)"/><path style="fill-rule:nonzero;fill:#232377;fill-opacity:1;stroke-width:5;stroke-linecap:round;stroke-linejoin:round;stroke:#000;stroke-opacity:1;stroke-miterlimit:10" d="m1672.854 600.935-76.972-279.141 34.927 174.556" transform="matrix(.09987 0 0 -.09987 0 200.873)"/><path style="stroke:none;fill-rule:nonzero;fill:#661010;fill-opacity:1" d="m55.281 177.094 24.063 1.031-26.688-17.527"/><path style="fill:none;stroke-width:5;stroke-linecap:round;stroke-linejoin:round;stroke:#000;stroke-opacity:1;stroke-miterlimit:10" d="m553.511 238.094 240.93-10.325-267.213 175.495Zm0 0" transform="matrix(.09987 0 0 -.09987 0 200.873)"/><path style="stroke:none;fill-rule:nonzero;fill:#3b3b3b;fill-opacity:1" d="m38.102 152.117 17.18 24.977-2.626-16.496"/><path style="fill:none;stroke-width:5;stroke-linecap:round;stroke-linejoin:round;stroke:#000;stroke-opacity:1;stroke-miterlimit:10" d="m381.497 488.176 172.014-250.082-26.283 165.17Zm0 0" transform="matrix(.09987 0 0 -.09987 0 200.873)"/><path style="fill-rule:nonzero;fill:#481f1f;fill-opacity:1;stroke-width:5;stroke-linecap:round;stroke-linejoin:round;stroke:#000;stroke-opacity:1;stroke-miterlimit:10" d="m1584.383 1556.986 247.696-191.14-151.832 69.776" transform="matrix(.09987 0 0 -.09987 0 200.873)"/><path style="stroke:none;fill-rule:nonzero;fill:#693030;fill-opacity:1" d="m35.676 29.656 49.207-7.172-17.445 4.5"/><path style="fill:none;stroke-width:5;stroke-linecap:round;stroke-linejoin:round;stroke:#000;stroke-opacity:1;stroke-miterlimit:10" d="m357.209 1714.333 492.692 71.81-174.673-45.057Zm0 0" transform="matrix(.09987 0 0 -.09987 0 200.873)"/><path style="stroke:none;fill-rule:nonzero;fill:#daf9dc;fill-opacity:1" d="m182.977 64.46-24.739-19.089 1.754 20.227"/><path style="fill:none;stroke-width:5;stroke-linecap:round;stroke-linejoin:round;stroke:#000;stroke-opacity:1;stroke-miterlimit:10" d="m1832.079 1365.846-247.696 191.14 17.562-202.521Zm0 0" transform="matrix(.09987 0 0 -.09987 0 200.873)"/><path style="stroke:none;fill-rule:nonzero;fill:#fad7a3;fill-opacity:1" d="m178.3 91.203 4.677-26.742-22.985 1.137"/><path style="fill:none;stroke-width:5;stroke-linecap:round;stroke-linejoin:round;stroke:#000;stroke-opacity:1;stroke-miterlimit:10" d="m1785.262 1098.086 46.817 267.76-230.134-11.381Zm0 0" transform="matrix(.09987 0 0 -.09987 0 200.873)"/><path style="stroke:none;fill-rule:nonzero;fill:#b6432e;fill-opacity:1" d="m159.387 168.734-19.344-15.539-11.195 20.996"/><path style="fill:none;stroke-width:5;stroke-linecap:round;stroke-linejoin:round;stroke:#000;stroke-opacity:1;stroke-miterlimit:10" d="M1595.882 321.794 1402.2 477.38l-112.095-210.227Zm0 0" transform="matrix(.09987 0 0 -.09987 0 200.873)"/><path style="stroke:none;fill-rule:nonzero;fill:#eb9767;fill-opacity:1" d="m159.387 168.734 7.687-27.879-27.031 12.34"/><path style="fill:none;stroke-width:5;stroke-linecap:round;stroke-linejoin:round;stroke:#000;stroke-opacity:1;stroke-miterlimit:10" d="m1595.882 321.794 76.972 279.141L1402.2 477.381Zm0 0" transform="matrix(.09987 0 0 -.09987 0 200.873)"/><path style="stroke:none;fill-rule:nonzero;fill:#3752c1;fill-opacity:1" d="M35.676 29.656 20.609 80.512l22.973-38.38"/><path style="fill:none;stroke-width:5;stroke-linecap:round;stroke-linejoin:round;stroke:#000;stroke-opacity:1;stroke-miterlimit:10" d="m357.209 1714.333-150.855-509.197 230.017 384.274Zm0 0" transform="matrix(.09987 0 0 -.09987 0 200.873)"/><path style="stroke:none;fill-rule:nonzero;fill:#74a4ef;fill-opacity:1" d="m84.883 22.484-49.207 7.172 7.906 12.477"/><path style="fill:none;stroke-width:5;stroke-linecap:round;stroke-linejoin:round;stroke:#000;stroke-opacity:1;stroke-miterlimit:10" d="m849.901 1786.143-492.692-71.81 79.162-124.923Zm0 0" transform="matrix(.09987 0 0 -.09987 0 200.873)"/><path style="fill-rule:nonzero;fill:#5f256f;fill-opacity:1;stroke-width:5;stroke-linecap:round;stroke-linejoin:round;stroke:#000;stroke-opacity:1;stroke-miterlimit:10" d="M242.259 766.066 108.731 663.475l133.684-83.113" transform="matrix(.09987 0 0 -.09987 0 200.873)"/><path style="stroke:none;fill-rule:nonzero;fill:#322c9a;fill-opacity:1" d="m20.61 80.512-9.75 54.097 13.335-10.246"/><path style="fill:none;stroke-width:5;stroke-linecap:round;stroke-linejoin:round;stroke:#000;stroke-opacity:1;stroke-miterlimit:10" d="m206.354 1205.136-97.623-541.661 133.528 102.59Zm0 0" transform="matrix(.09987 0 0 -.09987 0 200.873)"/><path style="stroke:none;fill-rule:nonzero;fill:#e8f39c;fill-opacity:1" d="m158.238 45.371-15.84-28.539 17.594 48.766"/><path style="fill:none;stroke-width:5;stroke-linecap:round;stroke-linejoin:round;stroke:#000;stroke-opacity:1;stroke-miterlimit:10" d="m1584.383 1556.986-158.598 285.751 176.16-488.272Zm0 0" transform="matrix(.09987 0 0 -.09987 0 200.873)"/><path style="fill-rule:nonzero;fill:#5f256f;fill-opacity:1;stroke-width:5;stroke-linecap:round;stroke-linejoin:round;stroke:#000;stroke-opacity:1;stroke-miterlimit:10" d="m242.415 580.362 284.813-177.098L242.26 766.066" transform="matrix(.09987 0 0 -.09987 0 200.873)"/><path style="stroke:none;fill-rule:nonzero;fill:#d3d0d6;fill-opacity:1" d="m159.992 65.598-17.594-48.766-15.48 15.586"/><path style="fill:none;stroke-width:5;stroke-linecap:round;stroke-linejoin:round;stroke:#000;stroke-opacity:1;stroke-miterlimit:10" d="m1601.945 1354.465-176.16 488.272-155-156.056Zm0 0" transform="matrix(.09987 0 0 -.09987 0 200.873)"/><path style="stroke:none;fill-rule:nonzero;fill:#a1c6f2;fill-opacity:1" d="m126.918 32.418 15.48-15.586-57.515 5.652"/><path style="fill:none;stroke-width:5;stroke-linecap:round;stroke-linejoin:round;stroke:#000;stroke-opacity:1;stroke-miterlimit:10" d="m1270.784 1686.681 155 156.056-575.883-56.594Zm0 0" transform="matrix(.09987 0 0 -.09987 0 200.873)"/><path style="stroke:none;fill-rule:nonzero;fill:#3752c1;fill-opacity:1" d="m20.61 80.512 5.456 36.953L39.57 83.047"/><path style="fill:none;stroke-width:5;stroke-linecap:round;stroke-linejoin:round;stroke:#000;stroke-opacity:1;stroke-miterlimit:10" d="m206.354 1205.136 54.64-369.999 135.21 344.615Zm0 0" transform="matrix(.09987 0 0 -.09987 0 200.873)"/><path style="stroke:none;fill-rule:nonzero;fill:#322c9a;fill-opacity:1" d="M42.922 45.969 20.609 80.512l18.961 2.535"/><path style="fill:none;stroke-width:5;stroke-linecap:round;stroke-linejoin:round;stroke:#000;stroke-opacity:1;stroke-miterlimit:10" d="m429.761 1551.002-223.407-345.866 189.85-25.384Zm0 0" transform="matrix(.09987 0 0 -.09987 0 200.873)"/><path style="stroke:none;fill-rule:nonzero;fill:#3e3e57;fill-opacity:1" d="M26.066 117.465 20.61 80.512l3.586 43.851"/><path style="fill:none;stroke-width:5;stroke-linecap:round;stroke-linejoin:round;stroke:#000;stroke-opacity:1;stroke-miterlimit:10" d="m260.994 835.137-54.64 369.999 35.905-439.07Zm0 0" transform="matrix(.09987 0 0 -.09987 0 200.873)"/><path style="stroke:none;fill-rule:nonzero;fill:#111181;fill-opacity:1" d="m20.61 80.512 22.312-34.543.66-3.836"/><path style="fill:none;stroke-width:5;stroke-linecap:round;stroke-linejoin:round;stroke:#000;stroke-opacity:1;stroke-miterlimit:10" d="m206.354 1205.136 223.407 345.866 6.61 38.408Zm0 0" transform="matrix(.09987 0 0 -.09987 0 200.873)"/><path style="stroke:none;fill-rule:nonzero;fill:#bf737b;fill-opacity:1" d="m102.137 192.16 37.906-38.965-44.555 15.63"/><path style="fill:none;stroke-width:5;stroke-linecap:round;stroke-linejoin:round;stroke:#000;stroke-opacity:1;stroke-miterlimit:10" d="M1022.658 87.24 1402.2 477.38 956.09 320.895Zm0 0" transform="matrix(.09987 0 0 -.09987 0 200.873)"/><path style="stroke:none;fill-rule:nonzero;fill:#873c69;fill-opacity:1" d="m52.656 160.598 49.48 31.562-6.648-23.336"/><path style="fill:none;stroke-width:5;stroke-linecap:round;stroke-linejoin:round;stroke:#000;stroke-opacity:1;stroke-miterlimit:10" d="m527.228 403.264 495.43-316.024-66.568 233.654Zm0 0" transform="matrix(.09987 0 0 -.09987 0 200.873)"/><path style="stroke:none;fill-rule:nonzero;fill:#74a4ef;fill-opacity:1" d="m80.234 46.465 34.954-8.852-30.305-15.129"/><path style="fill:none;stroke-width:5;stroke-linecap:round;stroke-linejoin:round;stroke:#000;stroke-opacity:1;stroke-miterlimit:10" d="m803.358 1546.035 349.973 88.627-303.43 151.48Zm0 0" transform="matrix(.09987 0 0 -.09987 0 200.873)"/><path style="stroke:none;fill-rule:nonzero;fill:#006bce;fill-opacity:1" d="m42.922 45.969 41.96-23.485-41.3 19.649"/><path style="fill:none;stroke-width:5;stroke-linecap:round;stroke-linejoin:round;stroke:#000;stroke-opacity:1;stroke-miterlimit:10" d="m429.761 1551.002 420.14 235.14-413.53-196.732Zm0 0" transform="matrix(.09987 0 0 -.09987 0 200.873)"/><path style="stroke:none;fill-rule:nonzero;fill:#79ddf7;fill-opacity:1" d="m84.883 22.484 30.305 15.13 11.73-5.196"/><path style="fill:none;stroke-width:5;stroke-linecap:round;stroke-linejoin:round;stroke:#000;stroke-opacity:1;stroke-miterlimit:10" d="m849.901 1786.143 303.43-151.48 117.453 52.018Zm0 0" transform="matrix(.09987 0 0 -.09987 0 200.873)"/><path style="stroke:none;fill-rule:nonzero;fill:#a1c6f2;fill-opacity:1" d="m42.922 45.969 37.312.496 4.649-23.98"/><path style="fill:none;stroke-width:5;stroke-linecap:round;stroke-linejoin:round;stroke:#000;stroke-opacity:1;stroke-miterlimit:10" d="m429.761 1551.002 373.597-4.967 46.543 240.108Zm0 0" transform="matrix(.09987 0 0 -.09987 0 200.873)"/><path style="stroke:none;fill-rule:nonzero;fill:#3b3b3b;fill-opacity:1" d="m26.066 117.465-1.87 6.898 28.46 36.235"/><path style="fill:none;stroke-width:5;stroke-linecap:round;stroke-linejoin:round;stroke:#000;stroke-opacity:1;stroke-miterlimit:10" d="m260.994 835.137-18.735-69.071 284.97-362.802Zm0 0" transform="matrix(.09987 0 0 -.09987 0 200.873)"/><path style="stroke:none;fill-rule:nonzero;fill:#661010;fill-opacity:1" d="m87.867 155.828-35.21 4.77 42.831 8.226"/><path style="fill:none;stroke-width:5;stroke-linecap:round;stroke-linejoin:round;stroke:#000;stroke-opacity:1;stroke-miterlimit:10" d="m879.783 451.02-352.555-47.756 428.862-82.37Zm0 0" transform="matrix(.09987 0 0 -.09987 0 200.873)"/><path style="stroke:none;fill-rule:nonzero;fill:#5f256f;fill-opacity:1" d="m52.656 160.598 35.211-4.77-27.918-22.41"/><path style="fill:none;stroke-width:5;stroke-linecap:round;stroke-linejoin:round;stroke:#000;stroke-opacity:1;stroke-miterlimit:10" d="m527.228 403.264 352.555 47.755L600.25 675.404Zm0 0" transform="matrix(.09987 0 0 -.09987 0 200.873)"/><path style="stroke:none;fill-rule:nonzero;fill:#873c69;fill-opacity:1" d="m26.066 117.465 26.59 43.133 7.293-27.18"/><path style="fill:none;stroke-width:5;stroke-linecap:round;stroke-linejoin:round;stroke:#000;stroke-opacity:1;stroke-miterlimit:10" d="m260.994 835.137 266.234-431.873 73.022 272.14Zm0 0" transform="matrix(.09987 0 0 -.09987 0 200.873)"/><path style="stroke:none;fill-rule:nonzero;fill:#d49590;fill-opacity:1" d="m186.738 118.309-25.765-6.954-20.93 41.84"/><path style="fill:none;stroke-width:5;stroke-linecap:round;stroke-linejoin:round;stroke:#000;stroke-opacity:1;stroke-miterlimit:10" d="m1869.744 826.689-257.982 69.62L1402.2 477.38Zm0 0" transform="matrix(.09987 0 0 -.09987 0 200.873)"/><path style="stroke:none;fill-rule:nonzero;fill:#dec2bb;fill-opacity:1" d="m160.973 111.355 25.765 6.954-26.746-52.711"/><path style="fill:none;stroke-width:5;stroke-linecap:round;stroke-linejoin:round;stroke:#000;stroke-opacity:1;stroke-miterlimit:10" d="m1611.762 896.308 257.982-69.62-267.8 527.777Zm0 0" transform="matrix(.09987 0 0 -.09987 0 200.873)"/><path style="stroke:none;fill-rule:nonzero;fill:#daf9dc;fill-opacity:1" d="m126.918 32.418-11.73 5.195 44.804 27.985"/><path style="fill:none;stroke-width:5;stroke-linecap:round;stroke-linejoin:round;stroke:#000;stroke-opacity:1;stroke-miterlimit:10" d="m1270.784 1686.681-117.453-52.019 448.614-280.197Zm0 0" transform="matrix(.09987 0 0 -.09987 0 200.873)"/><path style="stroke:none;fill-rule:nonzero;fill:#d3d0d6;fill-opacity:1" d="m144.45 105.992 15.542-40.394-32.93 8.191"/><path style="fill:none;stroke-width:5;stroke-linecap:round;stroke-linejoin:round;stroke:#000;stroke-opacity:1;stroke-miterlimit:10" d="m1446.318 950.009 155.627 404.456-329.714-82.018Zm0 0" transform="matrix(.09987 0 0 -.09987 0 200.873)"/><path style="stroke:none;fill-rule:nonzero;fill:#dec2bb;fill-opacity:1" d="m115.188 37.613 11.874 36.176 32.93-8.191"/><path style="fill:none;stroke-width:5;stroke-linecap:round;stroke-linejoin:round;stroke:#000;stroke-opacity:1;stroke-miterlimit:10" d="m1153.331 1634.662 118.9-362.215 329.714 82.018Zm0 0" transform="matrix(.09987 0 0 -.09987 0 200.873)"/><path style="stroke:none;fill-rule:nonzero;fill:#fad7a3;fill-opacity:1" d="m159.992 65.598-15.543 40.394 16.524 5.363"/><path style="fill:none;stroke-width:5;stroke-linecap:round;stroke-linejoin:round;stroke:#000;stroke-opacity:1;stroke-miterlimit:10" d="m1601.945 1354.465-155.627-404.456 165.444-53.7Zm0 0" transform="matrix(.09987 0 0 -.09987 0 200.873)"/><path style="stroke:none;fill-rule:nonzero;fill:#b6432e;fill-opacity:1" d="m140.043 153.195-52.176 2.633 7.621 12.996"/><path style="fill:none;stroke-width:5;stroke-linecap:round;stroke-linejoin:round;stroke:#000;stroke-opacity:1;stroke-miterlimit:10" d="m1402.2 477.38-522.417-26.36 76.307-130.126Zm0 0" transform="matrix(.09987 0 0 -.09987 0 200.873)"/><path style="stroke:none;fill-rule:nonzero;fill:#d49590;fill-opacity:1" d="m114.516 128.406-26.649 27.422 52.176-2.633"/><path style="fill:none;stroke-width:5;stroke-linecap:round;stroke-linejoin:round;stroke:#000;stroke-opacity:1;stroke-miterlimit:10" d="M1146.604 725.585 879.783 451.019l522.417 26.362Zm0 0" transform="matrix(.09987 0 0 -.09987 0 200.873)"/><path style="stroke:none;fill-rule:nonzero;fill:#bf737b;fill-opacity:1" d="m144.45 105.992-29.934 22.414 25.527 24.79"/><path style="fill:none;stroke-width:5;stroke-linecap:round;stroke-linejoin:round;stroke:#000;stroke-opacity:1;stroke-miterlimit:10" d="m1446.318 950.009-299.714-224.424L1402.2 477.38Zm0 0" transform="matrix(.09987 0 0 -.09987 0 200.873)"/><path style="stroke:none;fill-rule:nonzero;fill:#eb9767;fill-opacity:1" d="m160.973 111.355-16.524-5.363-4.406 47.203"/><path style="fill:none;stroke-width:5;stroke-linecap:round;stroke-linejoin:round;stroke:#000;stroke-opacity:1;stroke-miterlimit:10" d="m1611.762 896.308-165.444 53.7-44.118-472.627Zm0 0" transform="matrix(.09987 0 0 -.09987 0 200.873)"/><path style="stroke:none;fill-rule:nonzero;fill:#988dc6;fill-opacity:1" d="m39.57 83.047-13.504 34.418L81.492 91.73"/><path style="fill:none;stroke-width:5;stroke-linecap:round;stroke-linejoin:round;stroke:#000;stroke-opacity:1;stroke-miterlimit:10" d="m396.203 1179.752-135.21-344.615 554.96 257.67Zm0 0" transform="matrix(.09987 0 0 -.09987 0 200.873)"/><path style="stroke:none;fill-rule:nonzero;fill:#9376af;fill-opacity:1" d="M42.922 45.969 39.57 83.047l41.922 8.683"/><path style="fill:none;stroke-width:5;stroke-linecap:round;stroke-linejoin:round;stroke:#000;stroke-opacity:1;stroke-miterlimit:10" d="m429.761 1551.002-33.558-371.25 419.75-86.946Zm0 0" transform="matrix(.09987 0 0 -.09987 0 200.873)"/><path style="stroke:none;fill-rule:nonzero;fill:#b2a3c9;fill-opacity:1" d="m80.234 46.465-37.312-.496 38.57 45.761"/><path style="fill:none;stroke-width:5;stroke-linecap:round;stroke-linejoin:round;stroke:#000;stroke-opacity:1;stroke-miterlimit:10" d="m803.358 1546.035-373.597 4.967 386.191-458.196Zm0 0" transform="matrix(.09987 0 0 -.09987 0 200.873)"/><path style="stroke:none;fill-rule:nonzero;fill:#988dc6;fill-opacity:1" d="m81.492 91.73 33.695-54.117-34.953 8.852"/><path style="fill:none;stroke-width:5;stroke-linecap:round;stroke-linejoin:round;stroke:#000;stroke-opacity:1;stroke-miterlimit:10" d="m815.952 1092.806 337.38 541.856-349.974-88.627Zm0 0" transform="matrix(.09987 0 0 -.09987 0 200.873)"/><path style="stroke:none;fill-rule:nonzero;fill:#ab80a5;fill-opacity:1" d="m81.492 91.73-55.426 25.735 33.883 15.953"/><path style="fill:none;stroke-width:5;stroke-linecap:round;stroke-linejoin:round;stroke:#000;stroke-opacity:1;stroke-miterlimit:10" d="M815.952 1092.806 260.994 835.137 600.25 675.404Zm0 0" transform="matrix(.09987 0 0 -.09987 0 200.873)"/><path style="stroke:none;fill-rule:nonzero;fill:#9376af;fill-opacity:1" d="M87.867 155.828 81.492 91.73 59.95 133.418"/><path style="fill:none;stroke-width:5;stroke-linecap:round;stroke-linejoin:round;stroke:#000;stroke-opacity:1;stroke-miterlimit:10" d="m879.783 451.02-63.83 641.786L600.25 675.404Zm0 0" transform="matrix(.09987 0 0 -.09987 0 200.873)"/><path style="stroke:none;fill-rule:nonzero;fill:#bc9ab5;fill-opacity:1" d="M115.188 37.613 81.492 91.73l45.57-17.94"/><path style="fill:none;stroke-width:5;stroke-linecap:round;stroke-linejoin:round;stroke:#000;stroke-opacity:1;stroke-miterlimit:10" d="m1153.331 1634.662-337.379-541.856 456.28 179.641Zm0 0" transform="matrix(.09987 0 0 -.09987 0 200.873)"/><path style="stroke:none;fill-rule:nonzero;fill:#b2a3c9;fill-opacity:1" d="m81.492 91.73 62.957 14.262-17.387-32.203"/><path style="fill:none;stroke-width:5;stroke-linecap:round;stroke-linejoin:round;stroke:#000;stroke-opacity:1;stroke-miterlimit:10" d="m815.952 1092.806 630.366-142.797-174.087 322.438Zm0 0" transform="matrix(.09987 0 0 -.09987 0 200.873)"/><path style="stroke:none;fill-rule:nonzero;fill:#bc9ab5;fill-opacity:1" d="m87.867 155.828 26.649-27.422L81.492 91.73"/><path style="fill:none;stroke-width:5;stroke-linecap:round;stroke-linejoin:round;stroke:#000;stroke-opacity:1;stroke-miterlimit:10" d="m879.783 451.02 266.821 274.565-330.652 367.221Zm0 0" transform="matrix(.09987 0 0 -.09987 0 200.873)"/><path style="stroke:none;fill-rule:nonzero;fill:#ab80a5;fill-opacity:1" d="m114.516 128.406 29.933-22.414L81.492 91.73"/><path style="fill:none;stroke-width:5;stroke-linecap:round;stroke-linejoin:round;stroke:#000;stroke-opacity:1;stroke-miterlimit:10" d="m1146.604 725.585 299.714 224.424-630.366 142.797Zm0 0" transform="matrix(.09987 0 0 -.09987 0 200.873)"/></svg>