<svg xmlns="http://www.w3.org/2000/svg" width="256.507" height="200pt" viewBox="0 0 192.38 200" version="1.2"><path style="stroke:none;fill-rule:nonzero;fill:#497ade;fill-opacity:1" d="m123.031 102.723-3.347-23.028-11.801 39.118"/><path style="stroke:none;fill-rule:nonzero;fill:#000;fill-opacity:1" d="m115.445 72.395 4.239 7.3 6.988 8.262"/><path style="stroke:none;fill-rule:nonzero;fill:#a9bde8;fill-opacity:1" d="m107.883 118.813 11.8-39.118-25.484 28.45"/><path style="stroke:none;fill-rule:nonzero;fill:#d6c5ca;fill-opacity:1" d="m94.2 108.145 25.484-28.45-43.008 18.09"/><path style="stroke:none;fill-rule:nonzero;fill:#e5a994;fill-opacity:1" d="m76.676 97.785 43.008-18.09-44.809-1.754"/><path style="stroke:none;fill-rule:nonzero;fill:#000058;fill-opacity:1" d="m126.672 87.957-6.988-8.262 3.347 23.028"/><path style="stroke:none;fill-rule:nonzero;fill:#c15032;fill-opacity:1" d="m86.531 78.398 33.153 1.297-25.082-12.957"/><path style="stroke:none;fill-rule:nonzero;fill:#1e0000;fill-opacity:1" d="m94.602 66.738 25.082 12.957-5.766-9.93"/><path style="stroke:none;fill-rule:nonzero;fill:#d6c5ca;fill-opacity:1" d="m94.2 108.145-17.524-10.36 8.656 20.258"/><path style="stroke:none;fill-rule:nonzero;fill:#a9bde8;fill-opacity:1" d="m107.883 118.813-13.684-10.668-8.867 9.898"/><path style="stroke:none;fill-rule:nonzero;fill:#c15032;fill-opacity:1" d="m86.531 78.398 8.07-11.66-19.726 11.203"/><path style="stroke:none;fill-rule:nonzero;fill:#b29abf;fill-opacity:1" d="m85.332 118.043-76.45-2.613 67.794-17.645"/><path style="stroke:none;fill-rule:nonzero;fill:#ba8197;fill-opacity:1" d="M76.676 97.785 8.883 115.43 74.875 77.94"/><path style="fill:none;stroke-width:5;stroke-linecap:round;stroke-linejoin:round;stroke:#000;stroke-opacity:1;stroke-miterlimit:10" d="m769.229 1022.22 431.464 181.481" transform="matrix(.09968 0 0 -.09968 0 199.679)"/><path style="stroke:none;fill-rule:nonzero;fill:#c15032;fill-opacity:1" d="m8.883 115.43 51.172-38.067 14.82.578"/><path style="stroke:none;fill-rule:nonzero;fill:#a9bde8;fill-opacity:1" d="m74.121 130.559-65.238-15.13 57.82 1.977"/><path style="stroke:none;fill-rule:nonzero;fill:#000;fill-opacity:1" d="M54.898 125.887 8.883 115.43l65.238 15.129"/><path style="stroke:none;fill-rule:nonzero;fill:#783770;fill-opacity:1" d="M56.79 111.027 8.882 115.43l46.015 10.457"/><path style="stroke:none;fill-rule:nonzero;fill:#266bdb;fill-opacity:1" d="M60.055 77.363 8.883 115.43l37.504-21.192"/><path style="stroke:none;fill-rule:nonzero;fill:#7767b2;fill-opacity:1" d="m8.883 115.43 47.906-4.403 2.594-24.136"/><path style="fill:none;stroke-width:5;stroke-linecap:round;stroke-linejoin:round;stroke:#000;stroke-opacity:1;stroke-miterlimit:10" d="m578.695 972.607 190.534 49.613" transform="matrix(.09968 0 0 -.09968 0 199.679)"/><path style="stroke:none;fill-rule:nonzero;fill:#497ade;fill-opacity:1" d="m107.883 118.813 16.34-7.883-1.192-8.207"/><path style="stroke:none;fill-rule:nonzero;fill:#000058;fill-opacity:1" d="m126.672 87.957-3.64 14.766 1.19 8.207"/><path style="stroke:none;fill-rule:nonzero;fill:#a9bde8;fill-opacity:1" d="m74.121 130.559-7.418-13.153 18.629.637"/><path style="stroke:none;fill-rule:nonzero;fill:#b29abf;fill-opacity:1" d="m115.855 189.48-7.972-70.667-22.551-.77"/><path style="stroke:none;fill-rule:nonzero;fill:#d6c5ca;fill-opacity:1" d="m92.598 135.047-18.477-4.488 11.211-12.516"/><path style="fill:none;stroke-width:5;stroke-linecap:round;stroke-linejoin:round;stroke:#000;stroke-opacity:1;stroke-miterlimit:10" d="m856.07 818.989 344.623 384.712M562.08 829.06l293.99-10.071M769.229 1022.22l86.841-203.231" transform="matrix(.09968 0 0 -.09968 0 199.679)"/><path style="stroke:none;fill-rule:nonzero;fill:#806db3;fill-opacity:1" d="m122.195 129.977 2.028-19.047-16.34 7.882M107.883 118.813l7.972 70.667 6.34-59.503"/><path style="fill:none;stroke-width:5;stroke-linecap:round;stroke-linejoin:round;stroke:#000;stroke-opacity:1;stroke-miterlimit:10" d="m1082.305 811.269 118.388 392.432M856.07 818.989l226.235-7.72" transform="matrix(.09968 0 0 -.09968 0 199.679)"/><path style="stroke:none;fill-rule:nonzero;fill:#000;fill-opacity:1" d="m126.672 87.957-12.754-18.191 1.527 2.629"/><path style="stroke:none;fill-rule:nonzero;fill:#d6c5ca;fill-opacity:1" d="m92.598 135.047 23.257 54.433-41.734-58.921"/><path style="fill:none;stroke-width:5;stroke-linecap:round;stroke-linejoin:round;stroke:#000;stroke-opacity:1;stroke-miterlimit:10" d="m856.07 818.989 72.89-170.587" transform="matrix(.09968 0 0 -.09968 0 199.679)"/><path style="stroke:none;fill-rule:nonzero;fill:#ba8197;fill-opacity:1" d="m94.602 66.738-21.266-5.773 1.539 16.976"/><path style="stroke:none;fill-rule:nonzero;fill:#e5a994;fill-opacity:1" d="m60.055 77.363 13.28-16.398 1.54 16.976"/><path style="fill:none;stroke-width:5;stroke-linecap:round;stroke-linejoin:round;stroke:#000;stroke-opacity:1;stroke-miterlimit:10" d="m751.163 1221.297 18.066-199.077M467.008 1059.84l284.155 161.457M751.163 1221.297l449.53-17.596" transform="matrix(.09968 0 0 -.09968 0 199.679)"/><path style="stroke:none;fill-rule:nonzero;fill:#ba8197;fill-opacity:1" d="M94.602 66.738 68.222 4.594l5.114 56.37"/><path style="stroke:none;fill-rule:nonzero;fill:#83467c;fill-opacity:1" d="m68.223 4.594 26.379 62.144 19.316 3.028"/><path style="fill:none;stroke-width:5;stroke-linecap:round;stroke-linejoin:round;stroke:#000;stroke-opacity:1;stroke-miterlimit:10" d="m949.064 1333.69 251.63-129.989M751.163 1221.297l197.901 112.392" transform="matrix(.09968 0 0 -.09968 0 199.679)"/><path style="stroke:none;fill-rule:nonzero;fill:#83467c;fill-opacity:1" d="m126.672 87.957-12.754-18.191 16.594 2.601"/><path style="fill:none;stroke-width:5;stroke-linecap:round;stroke-linejoin:round;stroke:#000;stroke-opacity:1;stroke-miterlimit:10" d="m1200.693 1203.701 33.585-231.015" transform="matrix(.09968 0 0 -.09968 0 199.679)"/><path style="stroke:none;fill-rule:nonzero;fill:#83467c;fill-opacity:1" d="m130.512 72.367 55.593 8.719-59.433 6.871"/><path style="stroke:none;fill-rule:nonzero;fill:#806db3;fill-opacity:1" d="m126.672 87.957 59.433-6.871-47.77 23.039"/><path style="stroke:none;fill-rule:nonzero;fill:#806db3;fill-opacity:1" d="m126.672 87.957 11.664 16.168-14.113 6.805"/><path style="fill:none;stroke-width:5;stroke-linecap:round;stroke-linejoin:round;stroke:#000;stroke-opacity:1;stroke-miterlimit:10" d="m1200.693 1203.701 70.108-82.883" transform="matrix(.09968 0 0 -.09968 0 199.679)"/><path style="stroke:none;fill-rule:nonzero;fill:#497ade;fill-opacity:1" d="m138.336 104.125-12.582 17.336-1.531-10.531"/><path style="stroke:none;fill-rule:nonzero;fill:#000058;fill-opacity:1" d="m124.223 110.93 1.53 10.53-3.558 8.517"/><path style="fill:none;stroke-width:5;stroke-linecap:round;stroke-linejoin:round;stroke:#000;stroke-opacity:1;stroke-miterlimit:10" d="m1246.23 890.35 24.571 230.468M1234.278 972.686l11.952-82.335M1082.305 811.269l163.925 79.082" transform="matrix(.09968 0 0 -.09968 0 199.679)"/><path style="stroke:none;fill-rule:nonzero;fill:#000058;fill-opacity:1" d="m125.754 121.46-9.899 68.02 6.34-59.503"/><path style="stroke:none;fill-rule:nonzero;fill:#e5a994;fill-opacity:1" d="m60.055 77.363 8.168-72.77 5.113 56.372"/><path style="stroke:none;fill-rule:nonzero;fill:#ba7f92;fill-opacity:1" d="m112.797 139.313 3.058 50.167-25.402-55.511"/><path style="fill:none;stroke-width:5;stroke-linecap:round;stroke-linejoin:round;stroke:#000;stroke-opacity:1;stroke-miterlimit:10" d="m1082.305 811.269 22.455-199.234" transform="matrix(.09968 0 0 -.09968 0 199.679)"/><path style="stroke:none;fill-rule:nonzero;fill:#c3f09a;fill-opacity:1" d="m74.121 130.559 41.734 58.921-33.906-45.03"/><path style="stroke:none;fill-rule:nonzero;fill:#783770;fill-opacity:1" d="m90.453 133.969 25.402 55.511-33.906-45.03"/><path style="stroke:none;fill-rule:nonzero;fill:#eaab8c;fill-opacity:1" d="m112.797 139.313 3.058 50.167 9.899-68.02"/><path style="fill:none;stroke-width:5;stroke-linecap:round;stroke-linejoin:round;stroke:#000;stroke-opacity:1;stroke-miterlimit:10" d="m1230.398 741.749 15.832 148.602" transform="matrix(.09968 0 0 -.09968 0 199.679)"/><path style="stroke:none;fill-rule:nonzero;fill:#000;fill-opacity:1" d="m74.121 130.559-3.441-1.086-15.782-3.586"/><path style="stroke:none;fill-rule:nonzero;fill:#c3f09a;fill-opacity:1" d="m81.95 144.45-11.27-14.977 3.441 1.086"/><path style="fill:none;stroke-width:5;stroke-linecap:round;stroke-linejoin:round;stroke:#000;stroke-opacity:1;stroke-miterlimit:10" d="m743.6 693.43 112.47 125.559M89.114 845.206l622.547-144.41M743.6 693.43l89.31-126.109" transform="matrix(.09968 0 0 -.09968 0 199.679)"/><path style="stroke:none;fill-rule:nonzero;fill:#000;fill-opacity:1" d="m103.14 54.398 8.805 11.977 1.973 3.39"/><path style="stroke:none;fill-rule:nonzero;fill:#1e0000;fill-opacity:1" d="m113.918 69.766-1.973-3.391 18.567 5.992"/><path style="fill:none;stroke-width:5;stroke-linecap:round;stroke-linejoin:round;stroke:#000;stroke-opacity:1;stroke-miterlimit:10" d="m949.064 1333.69 193.787-30.372M1142.851 1303.318l57.842-99.617M1142.851 1303.318l127.95-182.5" transform="matrix(.09968 0 0 -.09968 0 199.679)"/><path style="stroke:none;fill-rule:nonzero;fill:#266bdb;fill-opacity:1" d="m46.387 94.238 12.996-7.347.672-9.528"/><path style="fill:none;stroke-width:5;stroke-linecap:round;stroke-linejoin:round;stroke:#000;stroke-opacity:1;stroke-miterlimit:10" d="m89.114 845.206 376.248 212.597" transform="matrix(.09968 0 0 -.09968 0 199.679)"/><path style="stroke:none;fill-rule:nonzero;fill:#00001d;fill-opacity:1" d="m61.531 66.906 6.692-62.312-8.168 72.77"/><path style="stroke:none;fill-rule:nonzero;fill:#00001d;fill-opacity:1" d="m60.055 77.363-.672 9.528 2.148-19.985"/><path style="fill:none;stroke-width:5;stroke-linecap:round;stroke-linejoin:round;stroke:#000;stroke-opacity:1;stroke-miterlimit:10" d="m606.01 1226.94 145.153-5.643M89.114 845.206l513.368 381.89" transform="matrix(.09968 0 0 -.09968 0 199.679)"/><path style="stroke:none;fill-rule:nonzero;fill:#497ade;fill-opacity:1" d="m138.336 104.125 47.77-23.04-60.352 40.376"/><path style="fill:none;stroke-width:5;stroke-linecap:round;stroke-linejoin:round;stroke:#000;stroke-opacity:1;stroke-miterlimit:10" d="m1246.23 890.35 141.588 68.267" transform="matrix(.09968 0 0 -.09968 0 199.679)"/><path style="stroke:none;fill-rule:nonzero;fill:#000;fill-opacity:1" d="M103.14 54.398 68.224 4.594l43.722 61.781"/><path style="stroke:none;fill-rule:nonzero;fill:#783770;fill-opacity:1" d="m56.79 111.027-1.892 14.86 15.782 3.586"/><path style="fill:none;stroke-width:5;stroke-linecap:round;stroke-linejoin:round;stroke:#000;stroke-opacity:1;stroke-miterlimit:10" d="m89.114 845.206 461.64-104.907" transform="matrix(.09968 0 0 -.09968 0 199.679)"/><path style="stroke:none;fill-rule:nonzero;fill:#1e0000;fill-opacity:1" d="m111.945 66.375 74.16 14.71-55.593-8.718"/><path style="stroke:none;fill-rule:nonzero;fill:#783770;fill-opacity:1" d="m70.68 129.473 19.773 4.496-8.504 10.48"/><path style="fill:none;stroke-width:5;stroke-linecap:round;stroke-linejoin:round;stroke:#000;stroke-opacity:1;stroke-miterlimit:10" d="m822.133 554.075 340.155-451.763" transform="matrix(.09968 0 0 -.09968 0 199.679)"/><path style="stroke:none;fill-rule:nonzero;fill:#b8380a;fill-opacity:1" d="m125.754 121.46 60.351-40.374-74.351 41.105"/><path style="fill:none;stroke-width:5;stroke-linecap:round;stroke-linejoin:round;stroke:#000;stroke-opacity:1;stroke-miterlimit:10" d="m1246.23 890.35 5.878-40.56" transform="matrix(.09968 0 0 -.09968 0 199.679)"/><path style="stroke:none;fill-rule:nonzero;fill:#eaab8c;fill-opacity:1" d="m125.754 121.46-14 .731 1.043 17.121"/><path style="fill:none;stroke-width:5;stroke-linecap:round;stroke-linejoin:round;stroke:#000;stroke-opacity:1;stroke-miterlimit:10" d="m1162.288 102.312 99.304 682.387" transform="matrix(.09968 0 0 -.09968 0 199.679)"/><path style="stroke:none;fill-rule:nonzero;fill:#c3f09a;fill-opacity:1" d="m56.79 111.027 10.835 17.485 3.055.96"/><path style="stroke:none;fill-rule:nonzero;fill:#000;fill-opacity:1" d="m70.68 129.473-3.055-.961 22.828 5.457"/><path style="fill:none;stroke-width:5;stroke-linecap:round;stroke-linejoin:round;stroke:#000;stroke-opacity:1;stroke-miterlimit:10" d="m550.754 740.299 158.32-35.975M709.075 704.324l113.058-150.249" transform="matrix(.09968 0 0 -.09968 0 199.679)"/><path style="stroke:none;fill-rule:nonzero;fill:#dacccc;fill-opacity:1" d="m100.621 78.406 11.324-12.031L68.223 4.594"/><path style="fill:none;stroke-width:5;stroke-linecap:round;stroke-linejoin:round;stroke:#000;stroke-opacity:1;stroke-miterlimit:10" d="m1120.71 1334.826 22.141-31.508" transform="matrix(.09968 0 0 -.09968 0 199.679)"/><path style="stroke:none;fill-rule:nonzero;fill:#a5c2ee;fill-opacity:1" d="m111.945 66.375-11.324 12.031 20.649.645M121.27 79.05l64.835 2.036-74.16-14.711"/><path style="stroke:none;fill-rule:nonzero;fill:#7767b2;fill-opacity:1" d="m61.531 66.906 6.692-62.312 7.554 73.035"/><path style="fill:none;stroke-width:5;stroke-linecap:round;stroke-linejoin:round;stroke:#000;stroke-opacity:1;stroke-miterlimit:10" d="m750.223 1231.956.94-10.66" transform="matrix(.09968 0 0 -.09968 0 199.679)"/><path style="stroke:none;fill-rule:nonzero;fill:#b29bc0;fill-opacity:1" d="M75.777 77.629 68.223 4.594l24.375 55.531"/><path style="fill:none;stroke-width:5;stroke-linecap:round;stroke-linejoin:round;stroke:#000;stroke-opacity:1;stroke-miterlimit:10" d="m923.357 1394.196 25.707-60.507M602.482 1227.097l81.943 730.04M684.425 1957.137l438.636-619.803" transform="matrix(.09968 0 0 -.09968 0 199.679)"/><path style="stroke:none;fill-rule:nonzero;fill:#ba7f92;fill-opacity:1" d="m90.453 133.969 21.3-11.778 1.044 17.121"/><path style="stroke:none;fill-rule:nonzero;fill:#7767b2;fill-opacity:1" d="M61.531 66.906 75.777 77.63 59.383 86.89"/><path style="stroke:none;fill-rule:nonzero;fill:#c3f09a;fill-opacity:1" d="m56.79 111.027-.095 14.043 10.93 3.442"/><path style="stroke:none;fill-rule:nonzero;fill:#00001d;fill-opacity:1" d="m56.695 125.07.094-14.043 2.594-24.136"/><path style="fill:none;stroke-width:5;stroke-linecap:round;stroke-linejoin:round;stroke:#000;stroke-opacity:1;stroke-miterlimit:10" d="M577.911 878.477 706.92 707.145M89.114 845.206l480.607 44.165" transform="matrix(.09968 0 0 -.09968 0 199.679)"/><path style="stroke:none;fill-rule:nonzero;fill:#266bdb;fill-opacity:1" d="m59.383 86.89 16.394-9.261L58.79 95.3"/><path style="fill:none;stroke-width:5;stroke-linecap:round;stroke-linejoin:round;stroke:#000;stroke-opacity:1;stroke-miterlimit:10" d="m569.72 889.371 26.022 242.145M595.742 1131.516l88.683 825.621M465.362 1057.803l130.38 73.713M595.742 1131.516l6.74 95.58" transform="matrix(.09968 0 0 -.09968 0 199.679)"/><path style="stroke:none;fill-rule:nonzero;fill:#b8380a;fill-opacity:1" d="m90.453 133.969-33.758-8.899 55.059-2.879"/><path style="stroke:none;fill-rule:nonzero;fill:#000;fill-opacity:1" d="m67.625 128.512-10.93-3.442 33.758 8.899"/><path style="fill:none;stroke-width:5;stroke-linecap:round;stroke-linejoin:round;stroke:#000;stroke-opacity:1;stroke-miterlimit:10" d="m907.446 659.218 254.842-556.906M709.075 704.324l198.371-45.106" transform="matrix(.09968 0 0 -.09968 0 199.679)"/><path style="stroke:none;fill-rule:nonzero;fill:#eaab8c;fill-opacity:1" d="m56.695 125.07 53.754-24.27 1.305 21.391"/><path style="stroke:none;fill-rule:nonzero;fill:#ba7f92;fill-opacity:1" d="M186.105 81.086 110.45 100.8l1.305 21.39"/><path style="fill:none;stroke-width:5;stroke-linecap:round;stroke-linejoin:round;stroke:#000;stroke-opacity:1;stroke-miterlimit:10" d="m1121.14 777.37 41.148-675.058M1121.14 777.37l140.452 7.329M907.446 659.218l213.695 118.153" transform="matrix(.09968 0 0 -.09968 0 199.679)"/><path style="stroke:none;fill-rule:nonzero;fill:#b29bc0;fill-opacity:1" d="m92.598 60.125 8.023 18.281-24.844-.777"/><path style="fill:none;stroke-width:5;stroke-linecap:round;stroke-linejoin:round;stroke:#000;stroke-opacity:1;stroke-miterlimit:10" d="m684.425 1957.137 244.536-557.102" transform="matrix(.09968 0 0 -.09968 0 199.679)"/><path style="stroke:none;fill-rule:nonzero;fill:#266bdb;fill-opacity:1" d="M75.777 77.629 56.695 125.07 58.79 95.3"/><path style="stroke:none;fill-rule:nonzero;fill:#a5c2ee;fill-opacity:1" d="m90.746 88.895-34.05 36.175L75.776 77.63"/><path style="fill:none;stroke-width:5;stroke-linecap:round;stroke-linejoin:round;stroke:#000;stroke-opacity:1;stroke-miterlimit:10" d="m589.785 1047.144 5.957 84.372" transform="matrix(.09968 0 0 -.09968 0 199.679)"/><path style="stroke:none;fill-rule:nonzero;fill:#a5c2ee;fill-opacity:1" d="m75.777 77.629 24.844.777-9.875 10.489"/><path style="fill:none;stroke-width:5;stroke-linecap:round;stroke-linejoin:round;stroke:#000;stroke-opacity:1;stroke-miterlimit:10" d="m595.742 1131.516 164.474 92.916M684.425 1957.137l75.79-732.705" transform="matrix(.09968 0 0 -.09968 0 199.679)"/><path style="stroke:none;fill-rule:nonzero;fill:#b29bc0;fill-opacity:1" d="m110.45 100.8 75.655-19.714-85.484-2.68"/><path style="fill:none;stroke-width:5;stroke-linecap:round;stroke-linejoin:round;stroke:#000;stroke-opacity:1;stroke-miterlimit:10" d="m1261.592 784.699 605.46 405.051M1123.06 1337.334l743.992-147.584M1121.14 777.37l745.912 412.38" transform="matrix(.09968 0 0 -.09968 0 199.679)"/><path style="stroke:none;fill-rule:nonzero;fill:#dacccc;fill-opacity:1" d="m90.746 88.895 9.875-10.489 9.828 22.395"/><path style="fill:none;stroke-width:5;stroke-linecap:round;stroke-linejoin:round;stroke:#000;stroke-opacity:1;stroke-miterlimit:10" d="m1009.454 1216.633 113.607 120.7M928.96 1400.035l80.494-183.402M1009.454 1216.633l857.598-26.883M760.216 1224.432l249.238-7.799" transform="matrix(.09968 0 0 -.09968 0 199.679)"/><path style="stroke:none;fill-rule:nonzero;fill:#dacccc;fill-opacity:1" d="m110.45 100.8-53.755 24.27 34.051-36.175"/><path style="fill:none;stroke-width:5;stroke-linecap:round;stroke-linejoin:round;stroke:#000;stroke-opacity:1;stroke-miterlimit:10" d="m568.78 748.489 539.272 243.477M1108.052 991.966l759 197.784M1009.454 1216.633l98.598-224.667M847.723 1044.832l161.73 171.801M1108.052 991.966l13.089-214.595M568.78 748.489l191.436 475.943M568.78 748.489l429.31 22.455M568.78 748.489l278.943 296.343M568.78 748.489l140.295-44.165M568.78 748.489l21.005 298.655M568.78 748.489l.94 140.882M568.78 748.489l338.666-89.271M998.09 770.944l123.05 6.427" transform="matrix(.09968 0 0 -.09968 0 199.679)"/></svg>