<svg xmlns="http://www.w3.org/2000/svg" width="209pt" height="200pt" viewBox="0 0 209 200" version="1.2"><path style="fill-rule:nonzero;fill:#9c8ec4;fill-opacity:1;stroke-width:6.58441;stroke-linecap:round;stroke-linejoin:round;stroke:#000;stroke-opacity:1;stroke-miterlimit:10" d="m1029.57 469.727 116.758 592.734 570.938-10.078" transform="matrix(.1 0 0 -.1 0 200)"/><path style="fill-rule:nonzero;fill:#c192a6;fill-opacity:1;stroke-width:6.58441;stroke-linecap:round;stroke-linejoin:round;stroke:#000;stroke-opacity:1;stroke-miterlimit:10" d="M1146.328 1062.46 556.953 890.587l-130.547 591.758" transform="matrix(.1 0 0 -.1 0 200)"/><path style="fill-rule:nonzero;fill:#c192a6;fill-opacity:1;stroke-width:6.58441;stroke-linecap:round;stroke-linejoin:round;stroke:#000;stroke-opacity:1;stroke-miterlimit:10" d="m426.406 1482.344 608.75 166.054 111.172-585.937" transform="matrix(.1 0 0 -.1 0 200)"/><path style="stroke:none;fill-rule:nonzero;fill:#89baf6;fill-opacity:1" d="M114.633 93.754 55.695 110.94l39.028 1.188"/><path style="fill:none;stroke-width:6.58441;stroke-linecap:round;stroke-linejoin:round;stroke:#000;stroke-opacity:1;stroke-miterlimit:10" d="M1146.328 1062.46 556.953 890.587" transform="matrix(.1 0 0 -.1 0 200)"/><path style="fill-rule:nonzero;fill:#ccc8d5;fill-opacity:1;stroke-width:6.58441;stroke-linecap:round;stroke-linejoin:round;stroke:#000;stroke-opacity:1;stroke-miterlimit:10" d="m726.953 157.422-502.46 451.562 332.46 281.602M556.953 890.586l472.617-420.86-302.617-312.304" transform="matrix(.1 0 0 -.1 0 200)"/><path style="stroke:none;fill-rule:nonzero;fill:#edc0a4;fill-opacity:1" d="m102.957 153.027 11.676-59.273-19.91 18.375"/><path style="fill:none;stroke-width:6.58441;stroke-linecap:round;stroke-linejoin:round;stroke:#000;stroke-opacity:1;stroke-miterlimit:10" d="m1029.57 469.727 116.758 592.734" transform="matrix(.1 0 0 -.1 0 200)"/><path style="stroke:none;fill-rule:nonzero;fill:#996c9c;fill-opacity:1" d="m55.695 110.941 47.262 42.086-16.82-83.523"/><path style="fill:none;stroke-width:6.58441;stroke-linecap:round;stroke-linejoin:round;stroke:#000;stroke-opacity:1;stroke-miterlimit:10" d="m556.953 890.586 472.617-420.86" transform="matrix(.1 0 0 -.1 0 200)"/><path style="stroke:none;fill-rule:nonzero;fill:#edc0a4;fill-opacity:1" d="m72.89 132.277 30.067 20.75-8.234-40.898"/><path style="stroke:none;fill-rule:nonzero;fill:#89baf6;fill-opacity:1" d="m55.695 110.941-33.246 28.16 50.442-6.824"/><path style="fill:none;stroke-width:6.58441;stroke-linecap:round;stroke-linejoin:round;stroke:#000;stroke-opacity:1;stroke-miterlimit:10" d="m556.953 890.586-332.46-281.602" transform="matrix(.1 0 0 -.1 0 200)"/><path style="stroke:none;fill-rule:nonzero;fill:#89baf6;fill-opacity:1" d="m94.723 112.129-39.028-1.188 17.196 21.336"/><path style="stroke:none;fill-rule:nonzero;fill:#996c9c;fill-opacity:1" d="m42.64 51.766 13.055 59.175 30.442-41.437"/><path style="fill:none;stroke-width:6.58441;stroke-linecap:round;stroke-linejoin:round;stroke:#000;stroke-opacity:1;stroke-miterlimit:10" d="m426.406 1482.344 130.547-591.758" transform="matrix(.1 0 0 -.1 0 200)"/><path style="stroke:none;fill-rule:nonzero;fill:#966799;fill-opacity:1" d="M22.45 139.102 7.44 76.687l31.977.208"/><path style="fill:none;stroke-width:6.58441;stroke-linecap:round;stroke-linejoin:round;stroke:#000;stroke-opacity:1;stroke-miterlimit:10" d="M224.492 608.984 74.414 1233.125" transform="matrix(.1 0 0 -.1 0 200)"/><path style="stroke:none;fill-rule:nonzero;fill:#7bbbfb;fill-opacity:1" d="m7.441 76.688 35.2-24.922L59.34 69.074"/><path style="fill:none;stroke-width:6.58441;stroke-linecap:round;stroke-linejoin:round;stroke:#000;stroke-opacity:1;stroke-miterlimit:10" d="m74.414 1233.125 351.992 249.219" transform="matrix(.1 0 0 -.1 0 200)"/><path style="stroke:none;fill-rule:nonzero;fill:#7bbbfb;fill-opacity:1" d="m49.066 76.96-41.625-.272 51.899-7.614"/><path style="stroke:none;fill-rule:nonzero;fill:#966799;fill-opacity:1" d="m53.305 96.203-30.856 42.899 22.297-81.758"/><path style="stroke:none;fill-rule:nonzero;fill:#996c9c;fill-opacity:1" d="m82.477 51.313-39.836.453 43.496 17.738"/><path style="stroke:none;fill-rule:nonzero;fill:#edc0a4;fill-opacity:1" d="M114.633 93.754 103.516 35.16l-54.45 41.8"/><path style="fill:none;stroke-width:6.58441;stroke-linecap:round;stroke-linejoin:round;stroke:#000;stroke-opacity:1;stroke-miterlimit:10" d="m1146.328 1062.46-111.172 585.938" transform="matrix(.1 0 0 -.1 0 200)"/><path style="stroke:none;fill-rule:nonzero;fill:#7bbbfb;fill-opacity:1" d="m42.64 51.766 60.876-16.606-3.868 15.953"/><path style="fill:none;stroke-width:6.58441;stroke-linecap:round;stroke-linejoin:round;stroke:#000;stroke-opacity:1;stroke-miterlimit:10" d="m426.406 1482.344 608.75 166.054" transform="matrix(.1 0 0 -.1 0 200)"/><path style="stroke:none;fill-rule:nonzero;fill:#996c9c;fill-opacity:1" d="M78.746 32.797 42.641 51.766l39.836-.453"/><path style="stroke:none;fill-rule:nonzero;fill:#edc0a4;fill-opacity:1" d="m53.305 96.203 61.328-2.45-65.567-16.792"/><path style="fill-rule:nonzero;fill:#892843;fill-opacity:1;stroke-width:6.58441;stroke-linecap:round;stroke-linejoin:round;stroke:#000;stroke-opacity:1;stroke-miterlimit:10" d="M1035.156 1648.398 733.594 1939.57l613.437 26.446" transform="matrix(.1 0 0 -.1 0 200)"/><path style="fill-rule:nonzero;fill:#892843;fill-opacity:1;stroke-width:6.58441;stroke-linecap:round;stroke-linejoin:round;stroke:#000;stroke-opacity:1;stroke-miterlimit:10" d="m1347.031 1966.016 271.758-304.57-583.633-13.048" transform="matrix(.1 0 0 -.1 0 200)"/><path style="stroke:none;fill-rule:nonzero;fill:#7bbbfb;fill-opacity:1" d="M66.352 63.691 42.64 51.766l39.836-.453"/><path style="stroke:none;fill-rule:nonzero;fill:#edc0a4;fill-opacity:1" d="m91.21 94.691 3.513 17.438 19.91-18.375"/><path style="fill-rule:nonzero;fill:#9c8ec4;fill-opacity:1;stroke-width:6.58441;stroke-linecap:round;stroke-linejoin:round;stroke:#000;stroke-opacity:1;stroke-miterlimit:10" d="m1717.266 1052.383-106.68-616.524-581.016 33.868" transform="matrix(.1 0 0 -.1 0 200)"/><path style="stroke:none;fill-rule:nonzero;fill:#89baf6;fill-opacity:1" d="m153.742 113.93-39.11-20.176-19.91 18.375"/><path style="stroke:none;fill-rule:nonzero;fill:#f3c59e;fill-opacity:1" d="m171.727 94.762-10.668 61.652-7.317-42.484"/><path style="fill:none;stroke-width:6.58441;stroke-linecap:round;stroke-linejoin:round;stroke:#000;stroke-opacity:1;stroke-miterlimit:10" d="m1717.266 1052.383-106.68-616.524" transform="matrix(.1 0 0 -.1 0 200)"/><path style="stroke:none;fill-rule:nonzero;fill:#89baf6;fill-opacity:1" d="m198.45 115.29-37.055-9.52-7.653 8.16"/><path style="stroke:none;fill-rule:nonzero;fill:#89baf6;fill-opacity:1" d="m161.395 105.77-46.762-12.016 39.11 20.176"/><path style="stroke:none;fill-rule:nonzero;fill:#89baf6;fill-opacity:1" d="m171.727 94.762-57.094-1.008 46.762 12.016"/><path style="fill:none;stroke-width:6.58441;stroke-linecap:round;stroke-linejoin:round;stroke:#000;stroke-opacity:1;stroke-miterlimit:10" d="m1717.266 1052.383-570.938 10.078" transform="matrix(.1 0 0 -.1 0 200)"/><path style="stroke:none;fill-rule:nonzero;fill:#89baf6;fill-opacity:1" d="m198.45 115.29-26.723-20.528-10.332 11.008"/><path style="fill:none;stroke-width:6.58441;stroke-linecap:round;stroke-linejoin:round;stroke:#000;stroke-opacity:1;stroke-miterlimit:10" d="m1984.492 847.11-267.226 205.273" transform="matrix(.1 0 0 -.1 0 200)"/><path style="stroke:none;fill-rule:nonzero;fill:#996c9c;fill-opacity:1" d="m102.957 153.027 58.102 3.387-18.22-105.793"/><path style="fill:none;stroke-width:6.58441;stroke-linecap:round;stroke-linejoin:round;stroke:#000;stroke-opacity:1;stroke-miterlimit:10" d="m1029.57 469.727 581.016-33.868" transform="matrix(.1 0 0 -.1 0 200)"/><path style="stroke:none;fill-rule:nonzero;fill:#7bbbfb;fill-opacity:1" d="m103.516 35.16 58.363-1.305-19.04 16.766"/><path style="fill:none;stroke-width:6.58441;stroke-linecap:round;stroke-linejoin:round;stroke:#000;stroke-opacity:1;stroke-miterlimit:10" d="m1035.156 1648.398 583.633 13.047" transform="matrix(.1 0 0 -.1 0 200)"/><path style="stroke:none;fill-rule:nonzero;fill:#7bbbfb;fill-opacity:1" d="m99.648 51.113 3.868-15.953 39.324 15.461"/><path style="stroke:none;fill-rule:nonzero;fill:#996c9c;fill-opacity:1" d="m134.703 3.398-10.062 47.43 18.199-.207"/><path style="stroke:none;fill-rule:nonzero;fill:#996c9c;fill-opacity:1" d="m124.64 50.828-21.683 102.2L142.84 50.62"/><path style="stroke:none;fill-rule:nonzero;fill:#996c9c;fill-opacity:1" d="M124.64 50.828 86.138 69.504l16.82 83.523"/><path style="stroke:none;fill-rule:nonzero;fill:#996c9c;fill-opacity:1" d="m99.648 51.113-13.511 18.39 38.504-18.675"/><path style="stroke:none;fill-rule:nonzero;fill:#edc0a4;fill-opacity:1" d="m53.305 96.203 41.418 15.926L91.21 94.69"/><path style="stroke:none;fill-rule:nonzero;fill:#f3c59e;fill-opacity:1" d="m153.742 113.93 7.317 42.484-27.114-21.387M134.703 3.398l37.024 91.364-17.985 19.168"/><path style="fill-rule:nonzero;fill:#280872;fill-opacity:1;stroke-width:6.58441;stroke-linecap:round;stroke-linejoin:round;stroke:#000;stroke-opacity:1;stroke-miterlimit:10" d="m1717.266 1052.383-98.477 609.062 267.852-162.422" transform="matrix(.1 0 0 -.1 0 200)"/><path style="fill-rule:nonzero;fill:#280872;fill-opacity:1;stroke-width:6.58441;stroke-linecap:round;stroke-linejoin:round;stroke:#000;stroke-opacity:1;stroke-miterlimit:10" d="m1886.64 1499.023 97.852-651.914-267.226 205.274" transform="matrix(.1 0 0 -.1 0 200)"/><path style="fill-rule:nonzero;fill:#f3c59e;fill-opacity:1;stroke-width:6.58441;stroke-linecap:round;stroke-linejoin:round;stroke:#000;stroke-opacity:1;stroke-miterlimit:10" d="m1347.031 1966.016 271.758-304.57 98.477-609.063" transform="matrix(.1 0 0 -.1 0 200)"/><path style="stroke:none;fill-rule:nonzero;fill:#996c9c;fill-opacity:1" d="m161.059 156.414 37.39-41.125-36.965-64.879"/><path style="fill:none;stroke-width:6.58441;stroke-linecap:round;stroke-linejoin:round;stroke:#000;stroke-opacity:1;stroke-miterlimit:10" d="m1610.586 435.86 373.906 411.25" transform="matrix(.1 0 0 -.1 0 200)"/><path style="stroke:none;fill-rule:nonzero;fill:#7bbbfb;fill-opacity:1" d="m161.879 33.855 26.785 16.243-45.824.523"/><path style="fill:none;stroke-width:6.58441;stroke-linecap:round;stroke-linejoin:round;stroke:#000;stroke-opacity:1;stroke-miterlimit:10" d="m1618.79 1661.445 267.85-162.422" transform="matrix(.1 0 0 -.1 0 200)"/><path style="stroke:none;fill-rule:nonzero;fill:#996c9c;fill-opacity:1" d="m134.703 3.398 8.137 47.223 18.644-.21"/><path style="stroke:none;fill-rule:nonzero;fill:#996c9c;fill-opacity:1" d="m142.84 50.621 18.219 105.793.425-106.004"/><path style="stroke:none;fill-rule:nonzero;fill:#89baf6;fill-opacity:1" d="m72.89 132.277-50.44 6.825 40.765 2.105"/><path style="stroke:none;fill-rule:nonzero;fill:#edc0a4;fill-opacity:1" d="m72.695 184.258 30.262-31.23-30.066-20.75"/><path style="fill:none;stroke-width:6.58441;stroke-linecap:round;stroke-linejoin:round;stroke:#000;stroke-opacity:1;stroke-miterlimit:10" d="m726.953 157.422 302.617 312.305" transform="matrix(.1 0 0 -.1 0 200)"/><path style="stroke:none;fill-rule:nonzero;fill:#966799;fill-opacity:1" d="M72.695 184.258 22.45 139.102l40.766 2.105"/><path style="fill:none;stroke-width:6.58441;stroke-linecap:round;stroke-linejoin:round;stroke:#000;stroke-opacity:1;stroke-miterlimit:10" d="m726.953 157.422-502.46 451.562" transform="matrix(.1 0 0 -.1 0 200)"/><path style="stroke:none;fill-rule:nonzero;fill:#edc0a4;fill-opacity:1" d="m53.14 150.508 19.555 33.75.196-51.98"/><path style="stroke:none;fill-rule:nonzero;fill:#89baf6;fill-opacity:1" d="m72.89 132.277-9.675 8.93 43.246 2.23"/><path style="stroke:none;fill-rule:nonzero;fill:#966799;fill-opacity:1" d="m53.305 96.203 9.91 45.004-40.766-2.105"/><path style="stroke:none;fill-rule:nonzero;fill:#edc0a4;fill-opacity:1" d="m59.164 122.809 4.05 18.398 9.677-8.93M55.04 104.066l39.683 8.063-41.418-15.926"/><path style="stroke:none;fill-rule:nonzero;fill:#edc0a4;fill-opacity:1" d="m55.04 104.066 17.85 28.211 21.833-20.148"/><path style="stroke:none;fill-rule:nonzero;fill:#edc0a4;fill-opacity:1" d="m59.164 122.809 13.727 9.468-17.852-28.21"/><path style="stroke:none;fill-rule:nonzero;fill:#966799;fill-opacity:1" d="m67.063 77.074 3.39 64.508-17.148-45.379M70.453 141.582l2.242 42.676-9.48-43.051"/><path style="stroke:none;fill-rule:nonzero;fill:#966799;fill-opacity:1" d="m70.453 141.582-7.238-.375-9.91-45.004"/><path style="stroke:none;fill-rule:nonzero;fill:#89baf6;fill-opacity:1" d="m133.945 135.027-61.054-2.75 33.57 11.16M198.45 115.29l-52.677 7.128-11.828 12.61"/><path style="stroke:none;fill-rule:nonzero;fill:#89baf6;fill-opacity:1" d="m145.773 122.418-72.882 9.86 61.054 2.75"/><path style="stroke:none;fill-rule:nonzero;fill:#89baf6;fill-opacity:1" d="m133.945 135.027-27.484 8.41 18.687.965"/><path style="stroke:none;fill-rule:nonzero;fill:#7bbbfb;fill-opacity:1" d="M112.46 77.371 99.649 51.113l43.192-.492"/><path style="stroke:none;fill-rule:nonzero;fill:#89baf6;fill-opacity:1" d="m198.45 115.29-103.727-3.161-21.832 20.148"/><path style="stroke:none;fill-rule:nonzero;fill:#966799;fill-opacity:1" d="m133.633 189.215-60.938-4.957 8.118-42.145"/><path style="fill:none;stroke-width:6.58441;stroke-linecap:round;stroke-linejoin:round;stroke:#000;stroke-opacity:1;stroke-miterlimit:10" d="m1336.328 107.852-609.375 49.57" transform="matrix(.1 0 0 -.1 0 200)"/><path style="stroke:none;fill-rule:nonzero;fill:#966799;fill-opacity:1" d="M93.309 77.246 117.352 144l-36.54-1.887"/><path style="stroke:none;fill-rule:nonzero;fill:#966799;fill-opacity:1" d="m117.352 144 16.28 45.215-52.82-47.102"/><path style="stroke:none;fill-rule:nonzero;fill:#f3c59e;fill-opacity:1" d="m161.059 156.414-27.426 32.8.312-54.187"/><path style="fill:none;stroke-width:6.58441;stroke-linecap:round;stroke-linejoin:round;stroke:#000;stroke-opacity:1;stroke-miterlimit:10" d="m1610.586 435.86-274.258-328.008" transform="matrix(.1 0 0 -.1 0 200)"/><path style="fill-rule:nonzero;fill:#000085;fill-opacity:1;stroke-width:6.58441;stroke-linecap:round;stroke-linejoin:round;stroke:#000;stroke-opacity:1;stroke-miterlimit:10" d="m1336.328 107.852 274.258 328.007 373.906 411.25" transform="matrix(.1 0 0 -.1 0 200)"/><path style="fill-rule:nonzero;fill:#000085;fill-opacity:1;stroke-width:6.58441;stroke-linecap:round;stroke-linejoin:round;stroke:#000;stroke-opacity:1;stroke-miterlimit:10" d="m1984.492 847.11-261.445-315.43-386.719-423.828" transform="matrix(.1 0 0 -.1 0 200)"/><path style="stroke:none;fill-rule:nonzero;fill:#89baf6;fill-opacity:1" d="m172.305 146.832 26.144-31.543-54.125 30.102"/><path style="fill:none;stroke-width:6.58441;stroke-linecap:round;stroke-linejoin:round;stroke:#000;stroke-opacity:1;stroke-miterlimit:10" d="m1723.047 531.68 261.445 315.43" transform="matrix(.1 0 0 -.1 0 200)"/><path style="stroke:none;fill-rule:nonzero;fill:#966799;fill-opacity:1" d="m112.46 77.371 21.173 111.844L93.309 77.246"/><path style="stroke:none;fill-rule:nonzero;fill:#f3c59e;fill-opacity:1" d="m133.633 189.215-31.344-20.445 22.86-24.368"/><path style="fill:none;stroke-width:6.58441;stroke-linecap:round;stroke-linejoin:round;stroke:#000;stroke-opacity:1;stroke-miterlimit:10" d="m1336.328 107.852-313.437 204.453" transform="matrix(.1 0 0 -.1 0 200)"/><path style="stroke:none;fill-rule:nonzero;fill:#f3c59e;fill-opacity:1" d="m133.945 135.027-.312 54.188-8.485-44.813"/><path style="stroke:none;fill-rule:nonzero;fill:#89baf6;fill-opacity:1" d="m198.45 115.29-64.505 19.737 10.38 10.364"/><path style="stroke:none;fill-rule:nonzero;fill:#89baf6;fill-opacity:1" d="m133.945 135.027-8.797 9.375 19.176.989"/><path style="stroke:none;fill-rule:nonzero;fill:#966799;fill-opacity:1" d="m172.305 146.832-38.672 42.383-8.485-44.813"/><path style="fill:none;stroke-width:6.58441;stroke-linecap:round;stroke-linejoin:round;stroke:#000;stroke-opacity:1;stroke-miterlimit:10" d="m1723.047 531.68-386.719-423.828" transform="matrix(.1 0 0 -.1 0 200)"/><path style="stroke:none;fill-rule:nonzero;fill:#966799;fill-opacity:1" d="m93.309 77.246-12.496 64.867-13.75-65.039M80.813 142.113l-8.118 42.145-2.242-42.676"/><path style="stroke:none;fill-rule:nonzero;fill:#966799;fill-opacity:1" d="m80.813 142.113-10.36-.531-3.39-64.508"/><path style="stroke:none;fill-rule:nonzero;fill:#89baf6;fill-opacity:1" d="m22.45 139.102 15.698 25.234 25.067-23.129"/><path style="fill:none;stroke-width:6.58441;stroke-linecap:round;stroke-linejoin:round;stroke:#000;stroke-opacity:1;stroke-miterlimit:10" d="m224.492 608.984 156.992-252.343" transform="matrix(.1 0 0 -.1 0 200)"/><path style="fill-rule:nonzero;fill:#edc0a4;fill-opacity:1;stroke-width:6.58441;stroke-linecap:round;stroke-linejoin:round;stroke:#000;stroke-opacity:1;stroke-miterlimit:10" d="m223.906 1025.625 157.578-668.984 345.47-199.22" transform="matrix(.1 0 0 -.1 0 200)"/><path style="stroke:none;fill-rule:nonzero;fill:#89baf6;fill-opacity:1" d="m38.148 164.336 64.141 4.434 17.89-19.07"/><path style="fill:none;stroke-width:6.58441;stroke-linecap:round;stroke-linejoin:round;stroke:#000;stroke-opacity:1;stroke-miterlimit:10" d="m381.484 356.64 641.407-44.335" transform="matrix(.1 0 0 -.1 0 200)"/><path style="stroke:none;fill-rule:nonzero;fill:#89baf6;fill-opacity:1" d="m106.46 143.438-68.312 20.898 106.176-18.945"/><path style="stroke:none;fill-rule:nonzero;fill:#f3c59e;fill-opacity:1" d="m134.703 3.398-.758 131.63-31.656 33.742"/><path style="stroke:none;fill-rule:nonzero;fill:#f3c59e;fill-opacity:1" d="m134.703 3.398 19.04 110.532-19.798 21.097"/><path style="stroke:none;fill-rule:nonzero;fill:#7bbbfb;fill-opacity:1" d="m88.074 98.848 5.235-21.602 19.152.125"/><path style="stroke:none;fill-rule:nonzero;fill:#7bbbfb;fill-opacity:1" d="m93.309 77.246 6.34-26.133 12.812 26.258"/><path style="stroke:none;fill-rule:nonzero;fill:#996c9c;fill-opacity:1" d="M134.703 3.398 99.648 51.113l24.993-.285"/><path style="stroke:none;fill-rule:nonzero;fill:#7bbbfb;fill-opacity:1" d="M67.063 77.074 42.64 51.766l50.668 25.48"/><path style="stroke:none;fill-rule:nonzero;fill:#996c9c;fill-opacity:1" d="M73.36 6.043 42.64 51.766l36.106-18.97"/><path style="fill:none;stroke-width:6.58441;stroke-linecap:round;stroke-linejoin:round;stroke:#000;stroke-opacity:1;stroke-miterlimit:10" d="m733.594 1939.57-307.188-457.226" transform="matrix(.1 0 0 -.1 0 200)"/><path style="stroke:none;fill-rule:nonzero;fill:#edc0a4;fill-opacity:1" d="M103.516 35.16 73.359 6.043l7.579 37.64"/><path style="fill:none;stroke-width:6.58441;stroke-linecap:round;stroke-linejoin:round;stroke:#000;stroke-opacity:1;stroke-miterlimit:10" d="M1035.156 1648.398 733.594 1939.57" transform="matrix(.1 0 0 -.1 0 200)"/><path style="stroke:none;fill-rule:nonzero;fill:#996c9c;fill-opacity:1" d="M134.703 3.398 73.36 6.043l5.387 26.754"/><path style="fill:none;stroke-width:6.58441;stroke-linecap:round;stroke-linejoin:round;stroke:#000;stroke-opacity:1;stroke-miterlimit:10" d="m1347.031 1966.016-613.437-26.446" transform="matrix(.1 0 0 -.1 0 200)"/><path style="stroke:none;fill-rule:nonzero;fill:#edc0a4;fill-opacity:1" d="m44.746 57.344 36.191-13.66L73.36 6.043"/><path style="stroke:none;fill-rule:nonzero;fill:#966799;fill-opacity:1" d="m67.063 77.074-13.758 19.13-4.239-19.243"/><path style="stroke:none;fill-rule:nonzero;fill:#edc0a4;fill-opacity:1" d="m22.39 97.438 30.915-1.235-4.239-19.242"/><path style="stroke:none;fill-rule:nonzero;fill:#7bbbfb;fill-opacity:1" d="M88.074 98.848 7.441 76.688l59.621.386"/><path style="stroke:none;fill-rule:nonzero;fill:#966799;fill-opacity:1" d="m44.746 57.344-5.328 19.55-31.977-.207"/><path style="stroke:none;fill-rule:nonzero;fill:#edc0a4;fill-opacity:1" d="m22.39 97.438 32.65 6.628-1.735-7.863"/><path style="fill-rule:nonzero;fill:#7bbbfb;fill-opacity:1;stroke-width:6.58441;stroke-linecap:round;stroke-linejoin:round;stroke:#000;stroke-opacity:1;stroke-miterlimit:10" d="m880.742 1011.523-656.836 14.102-149.492 207.5" transform="matrix(.1 0 0 -.1 0 200)"/><path style="stroke:none;fill-rule:nonzero;fill:#edc0a4;fill-opacity:1" d="M22.39 97.438 49.067 76.96l-4.32-19.617"/><path style="stroke:none;fill-rule:nonzero;fill:#edc0a4;fill-opacity:1" d="m49.066 76.96 54.45-41.8-58.77 22.184"/><path style="stroke:none;fill-rule:nonzero;fill:#996c9c;fill-opacity:1" d="M134.703 3.398 78.746 32.797l3.73 18.516M99.648 51.113l-17.171.2 3.66 18.19"/><path style="stroke:none;fill-rule:nonzero;fill:#996c9c;fill-opacity:1" d="M134.703 3.398 82.477 51.313l17.171-.2"/><path style="stroke:none;fill-rule:nonzero;fill:#7bbbfb;fill-opacity:1" d="M93.309 77.246 66.352 63.691l33.296-12.578"/><path style="stroke:none;fill-rule:nonzero;fill:#7bbbfb;fill-opacity:1" d="m66.352 63.691 16.125-12.379 17.171-.199"/><path style="stroke:none;fill-rule:nonzero;fill:#966799;fill-opacity:1" d="m102.957 27.168 9.504 50.203-19.152-.125"/><path style="stroke:none;fill-rule:nonzero;fill:#89baf6;fill-opacity:1" d="m106.46 143.438-43.245-2.231-25.067 23.129"/><path style="stroke:none;fill-rule:nonzero;fill:#f3c59e;fill-opacity:1" d="M102.29 168.77 88.073 98.848l46.63-95.45"/><path style="fill:none;stroke-width:6.58441;stroke-linecap:round;stroke-linejoin:round;stroke:#000;stroke-opacity:1;stroke-miterlimit:10" d="m1022.89 312.305-142.148 699.218" transform="matrix(.1 0 0 -.1 0 200)"/><path style="stroke:none;fill-rule:nonzero;fill:#7bbbfb;fill-opacity:1" d="m112.46 77.371 30.38-26.75L132.12 77.5"/><path style="stroke:none;fill-rule:nonzero;fill:#966799;fill-opacity:1" d="m102.957 27.168-9.648 50.078-26.246-.172"/><path style="stroke:none;fill-rule:nonzero;fill:#7bbbfb;fill-opacity:1" d="M88.074 98.848 67.063 77.074l26.246.172"/><path style="fill-rule:nonzero;fill:#f3c59e;fill-opacity:1;stroke-width:6.58441;stroke-linecap:round;stroke-linejoin:round;stroke:#000;stroke-opacity:1;stroke-miterlimit:10" d="m880.742 1011.523 148.828 716.797 317.461 237.696" transform="matrix(.1 0 0 -.1 0 200)"/><path style="stroke:none;fill-rule:nonzero;fill:#966799;fill-opacity:1" d="m112.46 77.371 59.845 69.461-47.157-2.43M132.121 77.5l40.184 69.332-59.844-69.46"/><path style="fill-rule:nonzero;fill:#996c9c;fill-opacity:1;stroke-width:6.58441;stroke-linecap:round;stroke-linejoin:round;stroke:#000;stroke-opacity:1;stroke-miterlimit:10" d="m1984.492 847.11-97.851 651.913-539.61 466.993" transform="matrix(.1 0 0 -.1 0 200)"/><path style="stroke:none;fill-rule:nonzero;fill:#7bbbfb;fill-opacity:1" d="m188.664 50.098-27.82 27.586-28.723-.184"/><path style="fill:none;stroke-width:6.58441;stroke-linecap:round;stroke-linejoin:round;stroke:#000;stroke-opacity:1;stroke-miterlimit:10" d="m1886.64 1499.023-278.203-275.859" transform="matrix(.1 0 0 -.1 0 200)"/><path style="stroke:none;fill-rule:nonzero;fill:#7bbbfb;fill-opacity:1" d="m132.121 77.5 10.719-26.879 45.824-.523"/><path style="fill-rule:nonzero;fill:#966799;fill-opacity:1;stroke-width:6.58441;stroke-linecap:round;stroke-linejoin:round;stroke:#000;stroke-opacity:1;stroke-miterlimit:10" d="m1029.57 1728.32 578.868-505.156 114.609-691.484" transform="matrix(.1 0 0 -.1 0 200)"/><path style="stroke:none;fill-rule:nonzero;fill:#7bbbfb;fill-opacity:1" d="m160.844 77.684-72.77 21.164L132.121 77.5"/><path style="fill:none;stroke-width:6.58441;stroke-linecap:round;stroke-linejoin:round;stroke:#000;stroke-opacity:1;stroke-miterlimit:10" d="m1608.438 1223.164-727.696-211.64" transform="matrix(.1 0 0 -.1 0 200)"/><path style="stroke:none;fill-rule:nonzero;fill:#966799;fill-opacity:1" d="M102.957 27.168 132.121 77.5l-19.66-.129"/><path style="stroke:none;fill-rule:nonzero;fill:#89baf6;fill-opacity:1" d="m144.324 145.39-24.144 4.31-17.89 19.07M102.29 168.77l70.015-21.938-27.98-1.441"/><path style="fill:none;stroke-width:6.58441;stroke-linecap:round;stroke-linejoin:round;stroke:#000;stroke-opacity:1;stroke-miterlimit:10" d="m1022.89 312.305 700.157 219.375" transform="matrix(.1 0 0 -.1 0 200)"/><path style="stroke:none;fill-rule:nonzero;fill:#edc0a4;fill-opacity:1" d="m22.39 97.438 30.75 53.07 10.075-9.301M22.39 97.438l40.825 43.769-4.05-18.398"/><path style="stroke:none;fill-rule:nonzero;fill:#7bbbfb;fill-opacity:1" d="m88.074 98.848 24.387-21.477 19.66.129M67.063 77.074l-17.997-.113 10.274-7.887"/><path style="stroke:none;fill-rule:nonzero;fill:#966799;fill-opacity:1" d="M102.957 27.168 67.063 77.074l-22.317-19.73"/><path style="stroke:none;fill-rule:nonzero;fill:#966799;fill-opacity:1" d="m67.063 77.074-17.997-.113-4.32-19.617"/><path style="stroke:none;fill-rule:nonzero;fill:#edc0a4;fill-opacity:1" d="m22.39 97.438 36.774 25.37-4.125-18.742"/><path style="fill-rule:nonzero;fill:#d8620c;fill-opacity:1;stroke-width:6.58441;stroke-linecap:round;stroke-linejoin:round;stroke:#000;stroke-opacity:1;stroke-miterlimit:10" d="m733.594 1939.57-307.188-457.226-351.992-249.219" transform="matrix(.1 0 0 -.1 0 200)"/><path style="fill-rule:nonzero;fill:#002;fill-opacity:1;stroke-width:6.58441;stroke-linecap:round;stroke-linejoin:round;stroke:#000;stroke-opacity:1;stroke-miterlimit:10" d="m74.414 1233.125 150.078-624.14L381.484 356.64" transform="matrix(.1 0 0 -.1 0 200)"/><path style="fill-rule:nonzero;fill:#590000;fill-opacity:1;stroke-width:6.58441;stroke-linecap:round;stroke-linejoin:round;stroke:#000;stroke-opacity:1;stroke-miterlimit:10" d="m726.953 157.422 609.375-49.57-313.437 204.453" transform="matrix(.1 0 0 -.1 0 200)"/><path style="fill-rule:nonzero;fill:#590000;fill-opacity:1;stroke-width:6.58441;stroke-linecap:round;stroke-linejoin:round;stroke:#000;stroke-opacity:1;stroke-miterlimit:10" d="M1022.89 312.305 381.485 356.64l345.47-199.22" transform="matrix(.1 0 0 -.1 0 200)"/><path style="fill-rule:nonzero;fill:#d8620c;fill-opacity:1;stroke-width:6.58441;stroke-linecap:round;stroke-linejoin:round;stroke:#000;stroke-opacity:1;stroke-miterlimit:10" d="M74.414 1233.125 385 1710.391l348.594 229.18" transform="matrix(.1 0 0 -.1 0 200)"/><path style="stroke:none;fill-rule:nonzero;fill:#edc0a4;fill-opacity:1" d="M73.36 6.043 38.5 28.961l6.246 28.383"/><path style="fill:none;stroke-width:6.58441;stroke-linecap:round;stroke-linejoin:round;stroke:#000;stroke-opacity:1;stroke-miterlimit:10" d="M733.594 1939.57 385 1710.39" transform="matrix(.1 0 0 -.1 0 200)"/><path style="stroke:none;fill-rule:nonzero;fill:#966799;fill-opacity:1" d="m38.5 28.96 64.457-1.792-58.21 30.176"/><path style="fill:none;stroke-width:6.58441;stroke-linecap:round;stroke-linejoin:round;stroke:#000;stroke-opacity:1;stroke-miterlimit:10" d="m385 1710.39 644.57 17.93" transform="matrix(.1 0 0 -.1 0 200)"/><path style="stroke:none;fill-rule:nonzero;fill:#966799;fill-opacity:1" d="M7.441 76.688 38.5 28.96l6.246 28.383"/><path style="fill:none;stroke-width:6.58441;stroke-linecap:round;stroke-linejoin:round;stroke:#000;stroke-opacity:1;stroke-miterlimit:10" d="M74.414 1233.125 385 1710.391" transform="matrix(.1 0 0 -.1 0 200)"/><path style="stroke:none;fill-rule:nonzero;fill:#edc0a4;fill-opacity:1" d="M38.5 28.96 22.39 97.438l22.356-40.093"/><path style="fill:none;stroke-width:6.58441;stroke-linecap:round;stroke-linejoin:round;stroke:#000;stroke-opacity:1;stroke-miterlimit:10" d="m385 1710.39-161.094-684.765" transform="matrix(.1 0 0 -.1 0 200)"/><path style="fill-rule:nonzero;fill:#002;fill-opacity:1;stroke-width:6.58441;stroke-linecap:round;stroke-linejoin:round;stroke:#000;stroke-opacity:1;stroke-miterlimit:10" d="m381.484 356.64-157.578 668.985-149.492 207.5" transform="matrix(.1 0 0 -.1 0 200)"/><path style="fill-rule:nonzero;fill:#d1d8de;fill-opacity:1;stroke-width:6.58441;stroke-linecap:round;stroke-linejoin:round;stroke:#000;stroke-opacity:1;stroke-miterlimit:10" d="m1347.031 1966.016-317.46-237.696 578.867-505.156M1608.438 1223.164l278.203 275.86-539.61 466.992" transform="matrix(.1 0 0 -.1 0 200)"/><path style="fill-rule:nonzero;fill:#948cc8;fill-opacity:1;stroke-width:6.58441;stroke-linecap:round;stroke-linejoin:round;stroke:#000;stroke-opacity:1;stroke-miterlimit:10" d="M1029.57 1728.32 385 1710.39l-161.094-684.765" transform="matrix(.1 0 0 -.1 0 200)"/><path style="fill-rule:nonzero;fill:#c492a2;fill-opacity:1;stroke-width:6.58441;stroke-linecap:round;stroke-linejoin:round;stroke:#000;stroke-opacity:1;stroke-miterlimit:10" d="m1022.89 312.305 700.157 219.375-114.61 691.484" transform="matrix(.1 0 0 -.1 0 200)"/><path style="fill-rule:nonzero;fill:#948cc8;fill-opacity:1;stroke-width:6.58441;stroke-linecap:round;stroke-linejoin:round;stroke:#000;stroke-opacity:1;stroke-miterlimit:10" d="m223.906 1025.625 656.836-14.102 148.828 716.797" transform="matrix(.1 0 0 -.1 0 200)"/><path style="fill-rule:nonzero;fill:#c492a2;fill-opacity:1;stroke-width:6.58441;stroke-linecap:round;stroke-linejoin:round;stroke:#000;stroke-opacity:1;stroke-miterlimit:10" d="m1608.438 1223.164-727.696-211.64 142.149-699.22" transform="matrix(.1 0 0 -.1 0 200)"/></svg>