<svg xmlns="http://www.w3.org/2000/svg" width="213.5pt" height="266.413" viewBox="0 0 213.5 199.81" version="1.2"><path style="fill-rule:nonzero;fill:#006dd4;fill-opacity:1;stroke-width:5;stroke-linecap:round;stroke-linejoin:round;stroke:#000;stroke-opacity:1;stroke-miterlimit:10" d="m1082.96 603.063-157.79 26.272 362.761 103.523" transform="matrix(.09977 0 0 -.09977 0 199.482)"/><path style="fill-rule:nonzero;fill:#724b94;fill-opacity:1;stroke-width:5;stroke-linecap:round;stroke-linejoin:round;stroke:#000;stroke-opacity:1;stroke-miterlimit:10" d="M1380.1 1003.373 925.17 629.335l268.987 544.201" transform="matrix(.09977 0 0 -.09977 0 199.482)"/><path style="fill-rule:nonzero;fill:#9b8cc2;fill-opacity:1;stroke-width:5;stroke-linecap:round;stroke-linejoin:round;stroke:#000;stroke-opacity:1;stroke-miterlimit:10" d="m1194.157 1173.536 492.988 731.358-307.045-901.52" transform="matrix(.09977 0 0 -.09977 0 199.482)"/><path style="fill-rule:nonzero;fill:#be96ae;fill-opacity:1;stroke-width:5;stroke-linecap:round;stroke-linejoin:round;stroke:#000;stroke-opacity:1;stroke-miterlimit:10" d="m943.963 1294.522 743.182 610.372-492.988-731.358" transform="matrix(.09977 0 0 -.09977 0 199.482)"/><path style="fill-rule:nonzero;fill:#a46180;fill-opacity:1;stroke-width:5;stroke-linecap:round;stroke-linejoin:round;stroke:#000;stroke-opacity:1;stroke-miterlimit:10" d="m1194.157 1173.536-268.988-544.2 18.794 665.186" transform="matrix(.09977 0 0 -.09977 0 199.482)"/><path style="fill-rule:nonzero;fill:#be96ae;fill-opacity:1;stroke-width:5;stroke-linecap:round;stroke-linejoin:round;stroke:#000;stroke-opacity:1;stroke-miterlimit:10" d="M1194.157 1173.536 989.46 869.976l-45.497 424.546" transform="matrix(.09977 0 0 -.09977 0 199.482)"/><path style="fill-rule:nonzero;fill:#a46180;fill-opacity:1;stroke-width:5;stroke-linecap:round;stroke-linejoin:round;stroke:#000;stroke-opacity:1;stroke-miterlimit:10" d="m943.963 1294.522 373.843 129.17-123.649-250.156" transform="matrix(.09977 0 0 -.09977 0 199.482)"/><path style="fill-rule:nonzero;fill:#724b94;fill-opacity:1;stroke-width:5;stroke-linecap:round;stroke-linejoin:round;stroke:#000;stroke-opacity:1;stroke-miterlimit:10" d="m1194.157 1173.536 123.649 250.155 62.294-420.318" transform="matrix(.09977 0 0 -.09977 0 199.482)"/><path style="fill-rule:nonzero;fill:#9b8cc2;fill-opacity:1;stroke-width:5;stroke-linecap:round;stroke-linejoin:round;stroke:#000;stroke-opacity:1;stroke-miterlimit:10" d="M1380.1 1003.373 989.46 869.976l204.697 303.56M1380.1 1003.373l686.486-628.265-778.655 357.75" transform="matrix(.09977 0 0 -.09977 0 199.482)"/><path style="fill-rule:nonzero;fill:#324abb;fill-opacity:1;stroke-width:5;stroke-linecap:round;stroke-linejoin:round;stroke:#000;stroke-opacity:1;stroke-miterlimit:10" d="m1380.1 1003.373 80.226-221.337-172.395-49.178" transform="matrix(.09977 0 0 -.09977 0 199.482)"/><path style="fill-rule:nonzero;fill:#324abb;fill-opacity:1;stroke-width:5;stroke-linecap:round;stroke-linejoin:round;stroke:#000;stroke-opacity:1;stroke-miterlimit:10" d="M1287.931 732.858 925.17 629.335l454.93 374.038" transform="matrix(.09977 0 0 -.09977 0 199.482)"/><path style="fill-rule:nonzero;fill:#9b8cc2;fill-opacity:1;stroke-width:5;stroke-linecap:round;stroke-linejoin:round;stroke:#000;stroke-opacity:1;stroke-miterlimit:10" d="m1287.931 732.858-298.47 137.118 390.639 133.397" transform="matrix(.09977 0 0 -.09977 0 199.482)"/><path style="fill-rule:nonzero;fill:#a9bde8;fill-opacity:1;stroke-width:5;stroke-linecap:round;stroke-linejoin:round;stroke:#000;stroke-opacity:1;stroke-miterlimit:10" d="m1082.96 603.063-93.5 266.913 298.471-137.118M1287.931 732.858l778.655-357.75-983.626 227.955" transform="matrix(.09977 0 0 -.09977 0 199.482)"/><path style="fill-rule:nonzero;fill:#006dd4;fill-opacity:1;stroke-width:5;stroke-linecap:round;stroke-linejoin:round;stroke:#000;stroke-opacity:1;stroke-miterlimit:10" d="m1287.931 732.858 172.395 49.178-377.366-178.973" transform="matrix(.09977 0 0 -.09977 0 199.482)"/><path style="fill-rule:nonzero;fill:#d6c5ca;fill-opacity:1;stroke-width:5;stroke-linecap:round;stroke-linejoin:round;stroke:#000;stroke-opacity:1;stroke-miterlimit:10" d="m638.367 905.723-577.913 815.97 663.268-608.101" transform="matrix(.09977 0 0 -.09977 0 199.482)"/><path style="fill-rule:nonzero;fill:#d3877b;fill-opacity:1;stroke-width:5;stroke-linecap:round;stroke-linejoin:round;stroke:#000;stroke-opacity:1;stroke-miterlimit:10" d="M943.963 1294.522 925.17 629.335l-201.447 484.257" transform="matrix(.09977 0 0 -.09977 0 199.482)"/><path style="fill-rule:nonzero;fill:#be96ae;fill-opacity:1;stroke-width:5;stroke-linecap:round;stroke-linejoin:round;stroke:#000;stroke-opacity:1;stroke-miterlimit:10" d="m943.963 1294.522 45.497-424.546-265.738 243.616" transform="matrix(.09977 0 0 -.09977 0 199.482)"/><path style="fill-rule:nonzero;fill:#be96ae;fill-opacity:1;stroke-width:5;stroke-linecap:round;stroke-linejoin:round;stroke:#000;stroke-opacity:1;stroke-miterlimit:10" d="m723.722 1113.592-663.268 608.1 883.51-427.17" transform="matrix(.09977 0 0 -.09977 0 199.482)"/><path style="fill-rule:nonzero;fill:#d3877b;fill-opacity:1;stroke-width:5;stroke-linecap:round;stroke-linejoin:round;stroke:#000;stroke-opacity:1;stroke-miterlimit:10" d="m723.722 1113.592-93.97 225.996 314.211-45.066" transform="matrix(.09977 0 0 -.09977 0 199.482)"/><path style="fill-rule:nonzero;fill:#fdc887;fill-opacity:1;stroke-width:5;stroke-linecap:round;stroke-linejoin:round;stroke:#000;stroke-opacity:1;stroke-miterlimit:10" d="m638.367 905.723-8.614 433.865 93.97-225.996" transform="matrix(.09977 0 0 -.09977 0 199.482)"/><path style="fill-rule:nonzero;fill:#fdc887;fill-opacity:1;stroke-width:5;stroke-linecap:round;stroke-linejoin:round;stroke:#000;stroke-opacity:1;stroke-miterlimit:10" d="M723.722 1113.592 925.17 629.335 638.367 905.723" transform="matrix(.09977 0 0 -.09977 0 199.482)"/><path style="fill-rule:nonzero;fill:#d6c5ca;fill-opacity:1;stroke-width:5;stroke-linecap:round;stroke-linejoin:round;stroke:#000;stroke-opacity:1;stroke-miterlimit:10" d="M723.722 1113.592 989.46 869.976l-351.093 35.747" transform="matrix(.09977 0 0 -.09977 0 199.482)"/><path style="stroke:none;fill-rule:nonzero;fill:#c3f09a;fill-opacity:1" d="m63.688 109.121 7.515 7.242 1.3 5.207"/><path style="fill:none;stroke-width:5;stroke-linecap:round;stroke-linejoin:round;stroke:#000;stroke-opacity:1;stroke-miterlimit:10" d="m638.367 905.723 75.332-72.591" transform="matrix(.09977 0 0 -.09977 0 199.482)"/><path style="fill-rule:nonzero;fill:#c3f09a;fill-opacity:1;stroke-width:5;stroke-linecap:round;stroke-linejoin:round;stroke:#000;stroke-opacity:1;stroke-miterlimit:10" d="m713.699 833.132 211.47-203.797-117.618 37.51" transform="matrix(.09977 0 0 -.09977 0 199.482)"/><path style="fill-rule:nonzero;fill:#d6c5ca;fill-opacity:1;stroke-width:5;stroke-linecap:round;stroke-linejoin:round;stroke:#000;stroke-opacity:1;stroke-miterlimit:10" d="M807.55 666.845 314.29 116.379 564.6 726.006" transform="matrix(.09977 0 0 -.09977 0 199.482)"/><path style="stroke:none;fill-rule:nonzero;fill:#d6c5ca;fill-opacity:1" d="m56.328 127.05 7.36-17.929 16.878 23.832"/><path style="fill:none;stroke-width:5;stroke-linecap:round;stroke-linejoin:round;stroke:#000;stroke-opacity:1;stroke-miterlimit:10" d="m564.6 726.006 73.767 179.717" transform="matrix(.09977 0 0 -.09977 0 199.482)"/><path style="stroke:none;fill-rule:nonzero;fill:#c3f09a;fill-opacity:1" d="m80.297 132.473-5.395-1.328-3.699-14.782"/><path style="fill:none;stroke-width:5;stroke-linecap:round;stroke-linejoin:round;stroke:#000;stroke-opacity:1;stroke-miterlimit:10" d="m804.85 671.66-54.072 13.313" transform="matrix(.09977 0 0 -.09977 0 199.482)"/><path style="fill-rule:nonzero;fill:#d6c5ca;fill-opacity:1;stroke-width:5;stroke-linecap:round;stroke-linejoin:round;stroke:#000;stroke-opacity:1;stroke-miterlimit:10" d="m638.367 905.723 351.093-35.747-181.91-203.131" transform="matrix(.09977 0 0 -.09977 0 199.482)"/><path style="fill-rule:nonzero;fill:#555;fill-opacity:1;stroke-width:5;stroke-linecap:round;stroke-linejoin:round;stroke:#000;stroke-opacity:1;stroke-miterlimit:10" d="m807.55 666.845 117.62-37.51 116.052-19.342" transform="matrix(.09977 0 0 -.09977 0 199.482)"/><path style="stroke:none;fill-rule:nonzero;fill:#555;fill-opacity:1" d="m103.879 138.625 4.164.691-27.477-6.363"/><path style="fill:none;stroke-width:5;stroke-linecap:round;stroke-linejoin:round;stroke:#000;stroke-opacity:1;stroke-miterlimit:10" d="m1041.222 609.993 41.738-6.93" transform="matrix(.09977 0 0 -.09977 0 199.482)"/><path style="fill-rule:nonzero;fill:#a9bde8;fill-opacity:1;stroke-width:5;stroke-linecap:round;stroke-linejoin:round;stroke:#000;stroke-opacity:1;stroke-miterlimit:10" d="m989.46 869.976 93.5-266.913-176.35-111.667" transform="matrix(.09977 0 0 -.09977 0 199.482)"/><path style="stroke:none;fill-rule:nonzero;fill:#a9bde8;fill-opacity:1" d="m80.566 132.953 18.149-20.266-8.266 37.77"/><path style="fill:none;stroke-width:5;stroke-linecap:round;stroke-linejoin:round;stroke:#000;stroke-opacity:1;stroke-miterlimit:10" d="m807.55 666.845 181.91 203.13" transform="matrix(.09977 0 0 -.09977 0 199.482)"/><path style="fill-rule:nonzero;fill:#555;fill-opacity:1;stroke-width:5;stroke-linecap:round;stroke-linejoin:round;stroke:#000;stroke-opacity:1;stroke-miterlimit:10" d="m1082.96 603.063-332.182 81.91 56.773-18.128" transform="matrix(.09977 0 0 -.09977 0 199.482)"/><path style="stroke:none;fill-rule:nonzero;fill:#c3f09a;fill-opacity:1" d="M74.902 131.145 63.687 109.12l8.817 12.45"/><path style="fill:none;stroke-width:5;stroke-linecap:round;stroke-linejoin:round;stroke:#000;stroke-opacity:1;stroke-miterlimit:10" d="m750.778 684.973-112.411 220.75" transform="matrix(.09977 0 0 -.09977 0 199.482)"/><path style="fill-rule:nonzero;fill:#a9bde8;fill-opacity:1;stroke-width:5;stroke-linecap:round;stroke-linejoin:round;stroke:#000;stroke-opacity:1;stroke-miterlimit:10" d="M906.61 491.396 314.29 116.379l493.262 550.466" transform="matrix(.09977 0 0 -.09977 0 199.482)"/><path style="fill-rule:nonzero;fill:#324abb;fill-opacity:1;stroke-width:5;stroke-linecap:round;stroke-linejoin:round;stroke:#000;stroke-opacity:1;stroke-miterlimit:10" d="m1455.667 1225.259 231.478 679.635-157.203-778.303" transform="matrix(.09977 0 0 -.09977 0 199.482)"/><path style="stroke:none;fill-rule:nonzero;fill:#636363;fill-opacity:1" d="m131.473 57.445 14.46 19.492 3.56 5.383"/><path style="fill:none;stroke-width:5;stroke-linecap:round;stroke-linejoin:round;stroke:#000;stroke-opacity:1;stroke-miterlimit:10" d="m1317.806 1423.691 144.948-195.378" transform="matrix(.09977 0 0 -.09977 0 199.482)"/><path style="fill-rule:nonzero;fill:#ffc870;fill-opacity:1;stroke-width:5;stroke-linecap:round;stroke-linejoin:round;stroke:#000;stroke-opacity:1;stroke-miterlimit:10" d="m1529.942 1126.59 157.203 778.304-224.391-676.581" transform="matrix(.09977 0 0 -.09977 0 199.482)"/><path style="stroke:none;fill-rule:nonzero;fill:#636363;fill-opacity:1" d="m152.637 87.086-21.164-29.64 29.082 40.148"/><path style="fill:none;stroke-width:5;stroke-linecap:round;stroke-linejoin:round;stroke:#000;stroke-opacity:1;stroke-miterlimit:10" d="m1529.942 1126.59-212.136 297.101" transform="matrix(.09977 0 0 -.09977 0 199.482)"/><path style="stroke:none;fill-rule:nonzero;fill:#324abb;fill-opacity:1" d="m137.688 99.379 7.539-22.137 7.41 9.844"/><path style="fill:none;stroke-width:5;stroke-linecap:round;stroke-linejoin:round;stroke:#000;stroke-opacity:1;stroke-miterlimit:10" d="m1380.1 1003.373 75.567 221.886" transform="matrix(.09977 0 0 -.09977 0 199.482)"/><path style="fill-rule:nonzero;fill:#724b94;fill-opacity:1;stroke-width:5;stroke-linecap:round;stroke-linejoin:round;stroke:#000;stroke-opacity:1;stroke-miterlimit:10" d="m1529.942 1126.59 536.644-751.482-686.486 628.265" transform="matrix(.09977 0 0 -.09977 0 199.482)"/><path style="fill-rule:nonzero;fill:#324abb;fill-opacity:1;stroke-width:5;stroke-linecap:round;stroke-linejoin:round;stroke:#000;stroke-opacity:1;stroke-miterlimit:10" d="m1529.942 1126.59-69.616-344.554-80.226 221.337" transform="matrix(.09977 0 0 -.09977 0 199.482)"/><path style="fill-rule:nonzero;fill:#724b94;fill-opacity:1;stroke-width:5;stroke-linecap:round;stroke-linejoin:round;stroke:#000;stroke-opacity:1;stroke-miterlimit:10" d="m1380.1 1003.373-62.294 420.318 212.136-297.1" transform="matrix(.09977 0 0 -.09977 0 199.482)"/><path style="fill-rule:nonzero;fill:#ffc870;fill-opacity:1;stroke-width:5;stroke-linecap:round;stroke-linejoin:round;stroke:#000;stroke-opacity:1;stroke-miterlimit:10" d="m1462.754 1228.313-2.428-446.277 69.616 344.555" transform="matrix(.09977 0 0 -.09977 0 199.482)"/><path style="stroke:none;fill-rule:nonzero;fill:#636363;fill-opacity:1" d="m145.934 76.938 14.62 20.656-11.062-15.274"/><path style="fill:none;stroke-width:5;stroke-linecap:round;stroke-linejoin:round;stroke:#000;stroke-opacity:1;stroke-miterlimit:10" d="m1462.754 1228.313 146.553-207.046" transform="matrix(.09977 0 0 -.09977 0 199.482)"/><path style="fill-rule:nonzero;fill:#636363;fill-opacity:1;stroke-width:5;stroke-linecap:round;stroke-linejoin:round;stroke:#000;stroke-opacity:1;stroke-miterlimit:10" d="m1609.307 1021.267 457.28-646.159-536.645 751.483" transform="matrix(.09977 0 0 -.09977 0 199.482)"/><path style="stroke:none;fill-rule:nonzero;fill:#a46180;fill-opacity:1" d="M94.176 70.332 73.207 60.195 94.785 48.75"/><path style="fill:none;stroke-width:5;stroke-linecap:round;stroke-linejoin:round;stroke:#000;stroke-opacity:1;stroke-miterlimit:10" d="m943.963 1294.522-210.178 101.605" transform="matrix(.09977 0 0 -.09977 0 199.482)"/><path style="fill-rule:nonzero;fill:#d3877b;fill-opacity:1;stroke-width:5;stroke-linecap:round;stroke-linejoin:round;stroke:#000;stroke-opacity:1;stroke-miterlimit:10" d="m950.071 1510.848 737.074 394.046-561.625-461.273" transform="matrix(.09977 0 0 -.09977 0 199.482)"/><path style="stroke:none;fill-rule:nonzero;fill:#d3877b;fill-opacity:1" d="M112.29 55.457 94.175 70.332l.61-21.582"/><path style="fill:none;stroke-width:5;stroke-linecap:round;stroke-linejoin:round;stroke:#000;stroke-opacity:1;stroke-miterlimit:10" d="m1125.52 1443.62-181.557-149.098" transform="matrix(.09977 0 0 -.09977 0 199.482)"/><path style="fill-rule:nonzero;fill:#543636;fill-opacity:1;stroke-width:5;stroke-linecap:round;stroke-linejoin:round;stroke:#000;stroke-opacity:1;stroke-miterlimit:10" d="m998.387 1535.437 319.419-111.746-367.735 87.157M950.071 1510.848 60.454 1721.692l704.34-139.858" transform="matrix(.09977 0 0 -.09977 0 199.482)"/><path style="stroke:none;fill-rule:nonzero;fill:#a46180;fill-opacity:1" d="m94.785 48.75.07.02-.074.039"/><path style="fill:none;stroke-width:5;stroke-linecap:round;stroke-linejoin:round;stroke:#000;stroke-opacity:1;stroke-miterlimit:10" d="m950.071 1510.848.705-.196" transform="matrix(.09977 0 0 -.09977 0 199.482)"/><path style="stroke:none;fill-rule:nonzero;fill:#a46180;fill-opacity:1" d="m94.855 48.77 36.618 8.675L94.78 48.81"/><path style="fill:none;stroke-width:5;stroke-linecap:round;stroke-linejoin:round;stroke:#000;stroke-opacity:1;stroke-miterlimit:10" d="m950.776 1510.652 367.03-86.96" transform="matrix(.09977 0 0 -.09977 0 199.482)"/><path style="stroke:none;fill-rule:nonzero;fill:#a46180;fill-opacity:1" d="M131.473 57.445 94.176 70.332l.605-21.523"/><path style="fill:none;stroke-width:5;stroke-linecap:round;stroke-linejoin:round;stroke:#000;stroke-opacity:1;stroke-miterlimit:10" d="m1317.806 1423.691-373.843-129.169" transform="matrix(.09977 0 0 -.09977 0 199.482)"/><path style="fill-rule:nonzero;fill:#d3877b;fill-opacity:1;stroke-width:5;stroke-linecap:round;stroke-linejoin:round;stroke:#000;stroke-opacity:1;stroke-miterlimit:10" d="m943.963 1294.522-314.21 45.066 320.318 171.26" transform="matrix(.09977 0 0 -.09977 0 199.482)"/><path style="fill-rule:nonzero;fill:#003fa1;fill-opacity:1;stroke-width:5;stroke-linecap:round;stroke-linejoin:round;stroke:#000;stroke-opacity:1;stroke-miterlimit:10" d="m629.753 1339.588 368.634 195.849 176.154 94.478M1174.541 1629.915l512.604 274.979-737.074-394.046" transform="matrix(.09977 0 0 -.09977 0 199.482)"/><path style="stroke:none;fill-rule:nonzero;fill:#003fa1;fill-opacity:1" d="M94.785 48.75 62.828 65.836 117.18 36.87"/><path style="fill:none;stroke-width:5;stroke-linecap:round;stroke-linejoin:round;stroke:#000;stroke-opacity:1;stroke-miterlimit:10" d="m950.071 1510.848-320.318-171.26" transform="matrix(.09977 0 0 -.09977 0 199.482)"/><path style="stroke:none;fill-rule:nonzero;fill:#543636;fill-opacity:1" d="m76.3 41.668 23.305 4.629-4.82 2.453"/><path style="fill:none;stroke-width:5;stroke-linecap:round;stroke-linejoin:round;stroke:#000;stroke-opacity:1;stroke-miterlimit:10" d="m764.795 1581.834 233.592-46.397" transform="matrix(.09977 0 0 -.09977 0 199.482)"/><path style="fill-rule:nonzero;fill:#a46180;fill-opacity:1;stroke-width:5;stroke-linecap:round;stroke-linejoin:round;stroke:#000;stroke-opacity:1;stroke-miterlimit:10" d="M733.785 1396.127 60.454 1721.692l889.617-210.844" transform="matrix(.09977 0 0 -.09977 0 199.482)"/><path style="fill-rule:nonzero;fill:#636363;fill-opacity:1;stroke-width:5;stroke-linecap:round;stroke-linejoin:round;stroke:#000;stroke-opacity:1;stroke-miterlimit:10" d="m1462.754 1228.313-144.948 195.378-32.028 54.66" transform="matrix(.09977 0 0 -.09977 0 199.482)"/><path style="fill-rule:nonzero;fill:#a5c2ee;fill-opacity:1;stroke-width:5;stroke-linecap:round;stroke-linejoin:round;stroke:#000;stroke-opacity:1;stroke-miterlimit:10" d="m1285.778 1478.35 401.367 426.544-512.604-274.979" transform="matrix(.09977 0 0 -.09977 0 199.482)"/><path style="fill-rule:nonzero;fill:#dacccc;fill-opacity:1;stroke-width:5;stroke-linecap:round;stroke-linejoin:round;stroke:#000;stroke-opacity:1;stroke-miterlimit:10" d="m1099.17 1280.035 363.584-51.722 57.83 174.353" transform="matrix(.09977 0 0 -.09977 0 199.482)"/><path style="fill-rule:nonzero;fill:#dacccc;fill-opacity:1;stroke-width:5;stroke-linecap:round;stroke-linejoin:round;stroke:#000;stroke-opacity:1;stroke-miterlimit:10" d="m1520.584 1402.666 166.561 502.228-401.367-426.544" transform="matrix(.09977 0 0 -.09977 0 199.482)"/><path style="stroke:none;fill-rule:nonzero;fill:#a5c2ee;fill-opacity:1" d="m117.18 36.871-17.575 9.426 28.672 5.695"/><path style="fill:none;stroke-width:5;stroke-linecap:round;stroke-linejoin:round;stroke:#000;stroke-opacity:1;stroke-miterlimit:10" d="m1174.541 1629.915-176.154-94.478" transform="matrix(.09977 0 0 -.09977 0 199.482)"/><path style="fill-rule:nonzero;fill:#543636;fill-opacity:1;stroke-width:5;stroke-linecap:round;stroke-linejoin:round;stroke:#000;stroke-opacity:1;stroke-miterlimit:10" d="m1317.806 1423.691-319.419 111.746 42.835 21.77" transform="matrix(.09977 0 0 -.09977 0 199.482)"/><path style="stroke:none;fill-rule:nonzero;fill:#543636;fill-opacity:1" d="m128.277 51.992 3.196 5.453-27.594-13.32"/><path style="fill:none;stroke-width:5;stroke-linecap:round;stroke-linejoin:round;stroke:#000;stroke-opacity:1;stroke-miterlimit:10" d="m1285.778 1478.35 32.028-54.659" transform="matrix(.09977 0 0 -.09977 0 199.482)"/><path style="stroke:none;fill-rule:nonzero;fill:#dacccc;fill-opacity:1" d="M128.277 51.992 109.66 71.777l42.043-12.234"/><path style="fill:none;stroke-width:5;stroke-linecap:round;stroke-linejoin:round;stroke:#000;stroke-opacity:1;stroke-miterlimit:10" d="m1285.778 1478.35-186.608-198.315" transform="matrix(.09977 0 0 -.09977 0 199.482)"/><path style="fill-rule:nonzero;fill:#543636;fill-opacity:1;stroke-width:5;stroke-linecap:round;stroke-linejoin:round;stroke:#000;stroke-opacity:1;stroke-miterlimit:10" d="m1041.222 1557.206 152.857 77.838 91.699-156.694" transform="matrix(.09977 0 0 -.09977 0 199.482)"/><path style="fill-rule:nonzero;fill:#636363;fill-opacity:1;stroke-width:5;stroke-linecap:round;stroke-linejoin:round;stroke:#000;stroke-opacity:1;stroke-miterlimit:10" d="m1285.778 1478.35-91.699 156.694 209.435-316.99" transform="matrix(.09977 0 0 -.09977 0 199.482)"/><path style="stroke:none;fill-rule:nonzero;fill:#636363;fill-opacity:1" d="m140.023 67.984 5.91 8.954-17.656-24.946"/><path style="fill:none;stroke-width:5;stroke-linecap:round;stroke-linejoin:round;stroke:#000;stroke-opacity:1;stroke-miterlimit:10" d="m1403.514 1318.054 59.24-89.741" transform="matrix(.09977 0 0 -.09977 0 199.482)"/><path style="fill-rule:nonzero;fill:#a5c2ee;fill-opacity:1;stroke-width:5;stroke-linecap:round;stroke-linejoin:round;stroke:#000;stroke-opacity:1;stroke-miterlimit:10" d="m998.387 1535.437 100.783-255.402 186.608 198.315" transform="matrix(.09977 0 0 -.09977 0 199.482)"/><path style="fill-rule:nonzero;fill:#c3f09a;fill-opacity:1;stroke-width:5;stroke-linecap:round;stroke-linejoin:round;stroke:#000;stroke-opacity:1;stroke-miterlimit:10" d="m541.852 998.792-481.398 722.9 437.741-618.045" transform="matrix(.09977 0 0 -.09977 0 199.482)"/><path style="stroke:none;fill-rule:nonzero;fill:#c3f09a;fill-opacity:1" d="m49.703 89.375 13.984 19.746-9.628-9.285"/><path style="fill:none;stroke-width:5;stroke-linecap:round;stroke-linejoin:round;stroke:#000;stroke-opacity:1;stroke-miterlimit:10" d="m498.195 1103.647 140.172-197.924" transform="matrix(.09977 0 0 -.09977 0 199.482)"/><path style="fill-rule:nonzero;fill:#fdc887;fill-opacity:1;stroke-width:5;stroke-linecap:round;stroke-linejoin:round;stroke:#000;stroke-opacity:1;stroke-miterlimit:10" d="m541.852 998.792 92.873 90.563 3.642-183.632" transform="matrix(.09977 0 0 -.09977 0 199.482)"/><path style="fill-rule:nonzero;fill:#0c31b1;fill-opacity:1;stroke-width:5;stroke-linecap:round;stroke-linejoin:round;stroke:#000;stroke-opacity:1;stroke-miterlimit:10" d="m674.584 1128.274-44.831 211.314-87.901-340.796" transform="matrix(.09977 0 0 -.09977 0 199.482)"/><path style="stroke:none;fill-rule:nonzero;fill:#fdc887;fill-opacity:1" d="m63.688 109.121-7.36 17.93-2.27-27.215"/><path style="fill:none;stroke-width:5;stroke-linecap:round;stroke-linejoin:round;stroke:#000;stroke-opacity:1;stroke-miterlimit:10" d="M638.367 905.723 564.6 726.006" transform="matrix(.09977 0 0 -.09977 0 199.482)"/><path style="fill-rule:nonzero;fill:#fdc887;fill-opacity:1;stroke-width:5;stroke-linecap:round;stroke-linejoin:round;stroke:#000;stroke-opacity:1;stroke-miterlimit:10" d="M564.6 726.006 314.29 116.38l227.563 882.413" transform="matrix(.09977 0 0 -.09977 0 199.482)"/><path style="fill-rule:nonzero;fill:#0c31b1;fill-opacity:1;stroke-width:5;stroke-linecap:round;stroke-linejoin:round;stroke:#000;stroke-opacity:1;stroke-miterlimit:10" d="M541.852 998.792 314.289 116.38l274.234 770.198" transform="matrix(.09977 0 0 -.09977 0 199.482)"/><path style="fill-rule:nonzero;fill:#653e8d;fill-opacity:1;stroke-width:5;stroke-linecap:round;stroke-linejoin:round;stroke:#000;stroke-opacity:1;stroke-miterlimit:10" d="m750.778 684.973-76.194 443.301-156.107 150.86" transform="matrix(.09977 0 0 -.09977 0 199.482)"/><path style="fill-rule:nonzero;fill:#c3f09a;fill-opacity:1;stroke-width:5;stroke-linecap:round;stroke-linejoin:round;stroke:#000;stroke-opacity:1;stroke-miterlimit:10" d="m638.367 905.723 112.41-220.75-208.925 313.82" transform="matrix(.09977 0 0 -.09977 0 199.482)"/><path style="stroke:none;fill-rule:nonzero;fill:#653e8d;fill-opacity:1" d="m54.059 99.836 20.843 31.309-23.175-59.278"/><path style="fill:none;stroke-width:5;stroke-linecap:round;stroke-linejoin:round;stroke:#000;stroke-opacity:1;stroke-miterlimit:10" d="m541.852 998.792 208.926-313.819" transform="matrix(.09977 0 0 -.09977 0 199.482)"/><path style="stroke:none;fill-rule:nonzero;fill:#0c31b1;fill-opacity:1" d="M58.715 111.031 67.3 86.918 54.059 99.836"/><path style="fill:none;stroke-width:5;stroke-linecap:round;stroke-linejoin:round;stroke:#000;stroke-opacity:1;stroke-miterlimit:10" d="m588.523 886.577 86.06 241.697" transform="matrix(.09977 0 0 -.09977 0 199.482)"/><path style="fill-rule:nonzero;fill:#653e8d;fill-opacity:1;stroke-width:5;stroke-linecap:round;stroke-linejoin:round;stroke:#000;stroke-opacity:1;stroke-miterlimit:10" d="M518.477 1279.135 60.454 1721.692l481.398-722.9" transform="matrix(.09977 0 0 -.09977 0 199.482)"/><path style="fill-rule:nonzero;fill:#988bc4;fill-opacity:1;stroke-width:5;stroke-linecap:round;stroke-linejoin:round;stroke:#000;stroke-opacity:1;stroke-miterlimit:10" d="m674.584 1128.274 424.586 151.761-321.807 136.843" transform="matrix(.09977 0 0 -.09977 0 199.482)"/><path style="stroke:none;fill-rule:nonzero;fill:#0c31b1;fill-opacity:1" d="m62.828 65.836 4.473 21.082 5.375-15.082"/><path style="fill:none;stroke-width:5;stroke-linecap:round;stroke-linejoin:round;stroke:#000;stroke-opacity:1;stroke-miterlimit:10" d="m629.753 1339.588 44.83-211.314" transform="matrix(.09977 0 0 -.09977 0 199.482)"/><path style="stroke:none;fill-rule:nonzero;fill:#0c31b1;fill-opacity:1" d="m77.555 58.125-14.727 7.71 16.059 9.782"/><path style="fill:none;stroke-width:5;stroke-linecap:round;stroke-linejoin:round;stroke:#000;stroke-opacity:1;stroke-miterlimit:10" d="m777.363 1416.878-147.61-77.29" transform="matrix(.09977 0 0 -.09977 0 199.482)"/><path style="fill-rule:nonzero;fill:#003fa1;fill-opacity:1;stroke-width:5;stroke-linecap:round;stroke-linejoin:round;stroke:#000;stroke-opacity:1;stroke-miterlimit:10" d="m998.387 1535.437-368.634-195.849 147.61 77.29" transform="matrix(.09977 0 0 -.09977 0 199.482)"/><path style="fill-rule:nonzero;fill:#a5c2ee;fill-opacity:1;stroke-width:5;stroke-linecap:round;stroke-linejoin:round;stroke:#000;stroke-opacity:1;stroke-miterlimit:10" d="m1099.17 1280.035-100.783 255.402-233.592 46.397" transform="matrix(.09977 0 0 -.09977 0 199.482)"/><path style="stroke:none;fill-rule:nonzero;fill:#a5c2ee;fill-opacity:1" d="m77.555 58.125 32.105 13.652L76.3 41.668"/><path style="fill:none;stroke-width:5;stroke-linecap:round;stroke-linejoin:round;stroke:#000;stroke-opacity:1;stroke-miterlimit:10" d="m777.363 1416.878 321.807-136.843" transform="matrix(.09977 0 0 -.09977 0 199.482)"/><path style="fill-rule:nonzero;fill:#003fa1;fill-opacity:1;stroke-width:5;stroke-linecap:round;stroke-linejoin:round;stroke:#000;stroke-opacity:1;stroke-miterlimit:10" d="m777.363 1416.878 416.716 218.166-152.857-77.838" transform="matrix(.09977 0 0 -.09977 0 199.482)"/><path style="stroke:none;fill-rule:nonzero;fill:#003fa1;fill-opacity:1" d="m103.879 44.125-4.274 2.172-22.05 11.828"/><path style="fill:none;stroke-width:5;stroke-linecap:round;stroke-linejoin:round;stroke:#000;stroke-opacity:1;stroke-miterlimit:10" d="m1041.222 1557.206-42.835-21.77" transform="matrix(.09977 0 0 -.09977 0 199.482)"/><path style="fill-rule:nonzero;fill:#988bc4;fill-opacity:1;stroke-width:5;stroke-linecap:round;stroke-linejoin:round;stroke:#000;stroke-opacity:1;stroke-miterlimit:10" d="m777.363 1416.878-716.91 304.814 458.024-442.557" transform="matrix(.09977 0 0 -.09977 0 199.482)"/><path style="stroke:none;fill-rule:nonzero;fill:#988bc4;fill-opacity:1" d="M51.727 71.867 67.3 86.918l10.254-28.793"/><path style="fill:none;stroke-width:5;stroke-linecap:round;stroke-linejoin:round;stroke:#000;stroke-opacity:1;stroke-miterlimit:10" d="m518.477 1279.135 156.107-150.86" transform="matrix(.09977 0 0 -.09977 0 199.482)"/><path style="stroke:none;fill-rule:nonzero;fill:#0c31b1;fill-opacity:1" d="m67.3 86.918 11.587-11.3-6.211-3.782"/><path style="fill:none;stroke-width:5;stroke-linecap:round;stroke-linejoin:round;stroke:#000;stroke-opacity:1;stroke-miterlimit:10" d="m674.584 1128.274 116.13 113.273" transform="matrix(.09977 0 0 -.09977 0 199.482)"/><path style="fill-rule:nonzero;fill:#0c31b1;fill-opacity:1;stroke-width:5;stroke-linecap:round;stroke-linejoin:round;stroke:#000;stroke-opacity:1;stroke-miterlimit:10" d="m790.715 1241.547 403.364 393.497-416.716-218.166" transform="matrix(.09977 0 0 -.09977 0 199.482)"/><path style="fill-rule:nonzero;fill:#a5c2ee;fill-opacity:1;stroke-width:5;stroke-linecap:round;stroke-linejoin:round;stroke:#000;stroke-opacity:1;stroke-miterlimit:10" d="M764.795 1581.834 60.454 1721.692l716.91-304.814" transform="matrix(.09977 0 0 -.09977 0 199.482)"/><path style="fill-rule:nonzero;fill:#006dd4;fill-opacity:1;stroke-width:5;stroke-linecap:round;stroke-linejoin:round;stroke:#000;stroke-opacity:1;stroke-miterlimit:10" d="m1082.96 603.063 377.366 178.973-323.53-187.978" transform="matrix(.09977 0 0 -.09977 0 199.482)"/><path style="fill-rule:nonzero;fill:#a05878;fill-opacity:1;stroke-width:5;stroke-linecap:round;stroke-linejoin:round;stroke:#000;stroke-opacity:1;stroke-miterlimit:10" d="M1148.543 808.19 750.778 684.974l386.019-90.915" transform="matrix(.09977 0 0 -.09977 0 199.482)"/><path style="stroke:none;fill-rule:nonzero;fill:#d7836f;fill-opacity:1" d="m145.691 121.46-31.105-2.608-.617 11.3"/><path style="fill:none;stroke-width:5;stroke-linecap:round;stroke-linejoin:round;stroke:#000;stroke-opacity:1;stroke-miterlimit:10" d="m1460.326 782.036-311.783 26.155" transform="matrix(.09977 0 0 -.09977 0 199.482)"/><path style="stroke:none;fill-rule:nonzero;fill:#d7836f;fill-opacity:1" d="m113.414 140.215 32.277-18.754-51.144 14.012"/><path style="fill:none;stroke-width:5;stroke-linecap:round;stroke-linejoin:round;stroke:#000;stroke-opacity:1;stroke-miterlimit:10" d="m1136.797 594.058 323.529 187.978" transform="matrix(.09977 0 0 -.09977 0 199.482)"/><path style="fill-rule:nonzero;fill:#a05878;fill-opacity:1;stroke-width:5;stroke-linecap:round;stroke-linejoin:round;stroke:#000;stroke-opacity:1;stroke-miterlimit:10" d="m1136.797 594.058 929.79-218.95-918.044 433.083" transform="matrix(.09977 0 0 -.09977 0 199.482)"/><path style="stroke:none;fill-rule:nonzero;fill:#d7836f;fill-opacity:1" d="m114.586 118.852-20.04 16.62 19.423-5.32"/><path style="fill:none;stroke-width:5;stroke-linecap:round;stroke-linejoin:round;stroke:#000;stroke-opacity:1;stroke-miterlimit:10" d="m1148.543 808.19-200.86-166.6" transform="matrix(.09977 0 0 -.09977 0 199.482)"/><path style="stroke:none;fill-rule:nonzero;fill:#555;fill-opacity:1" d="m108.043 139.316 23.187 5.371-17.816-4.472"/><path style="fill:none;stroke-width:5;stroke-linecap:round;stroke-linejoin:round;stroke:#000;stroke-opacity:1;stroke-miterlimit:10" d="m1082.96 603.063 232.418-53.837" transform="matrix(.09977 0 0 -.09977 0 199.482)"/><path style="fill-rule:nonzero;fill:#555;fill-opacity:1;stroke-width:5;stroke-linecap:round;stroke-linejoin:round;stroke:#000;stroke-opacity:1;stroke-miterlimit:10" d="m1136.797 594.058-386.02 90.915 332.183-81.91" transform="matrix(.09977 0 0 -.09977 0 199.482)"/><path style="fill-rule:nonzero;fill:#006dd4;fill-opacity:1;stroke-width:5;stroke-linecap:round;stroke-linejoin:round;stroke:#000;stroke-opacity:1;stroke-miterlimit:10" d="M1136.797 594.058 314.289 116.379l768.671 486.684" transform="matrix(.09977 0 0 -.09977 0 199.482)"/><path style="fill-rule:nonzero;fill:#d7836f;fill-opacity:1;stroke-width:5;stroke-linecap:round;stroke-linejoin:round;stroke:#000;stroke-opacity:1;stroke-miterlimit:10" d="M947.683 641.59 314.289 116.38l822.508 477.679" transform="matrix(.09977 0 0 -.09977 0 199.482)"/><path style="fill-rule:nonzero;fill:#555;fill-opacity:1;stroke-width:5;stroke-linecap:round;stroke-linejoin:round;stroke:#000;stroke-opacity:1;stroke-miterlimit:10" d="m1315.378 549.226 751.208-174.118-929.79 218.95" transform="matrix(.09977 0 0 -.09977 0 199.482)"/><path style="fill-rule:nonzero;fill:#dacccc;fill-opacity:1;stroke-width:5;stroke-linecap:round;stroke-linejoin:round;stroke:#000;stroke-opacity:1;stroke-miterlimit:10" d="m1462.754 1228.313-363.584 51.722 290.561-271.807" transform="matrix(.09977 0 0 -.09977 0 199.482)"/><path style="fill-rule:nonzero;fill:#ffc870;fill-opacity:1;stroke-width:5;stroke-linecap:round;stroke-linejoin:round;stroke:#000;stroke-opacity:1;stroke-miterlimit:10" d="m1460.326 782.036 2.428 446.277-59.24 89.74M1403.514 1318.054l-209.435 316.99 195.652-626.816" transform="matrix(.09977 0 0 -.09977 0 199.482)"/><path style="stroke:none;fill-rule:nonzero;fill:#ffc870;fill-opacity:1" d="m138.648 98.895 7.043 22.566-5.668-53.477"/><path style="fill:none;stroke-width:5;stroke-linecap:round;stroke-linejoin:round;stroke:#000;stroke-opacity:1;stroke-miterlimit:10" d="m1389.731 1008.228 70.595-226.192" transform="matrix(.09977 0 0 -.09977 0 199.482)"/><path style="fill-rule:nonzero;fill:#d7836f;fill-opacity:1;stroke-width:5;stroke-linecap:round;stroke-linejoin:round;stroke:#000;stroke-opacity:1;stroke-miterlimit:10" d="m1148.543 808.19 311.783-26.154-70.595 226.192" transform="matrix(.09977 0 0 -.09977 0 199.482)"/><path style="fill-rule:nonzero;fill:#bf96ae;fill-opacity:1;stroke-width:5;stroke-linecap:round;stroke-linejoin:round;stroke:#000;stroke-opacity:1;stroke-miterlimit:10" d="m1099.17 1280.035 49.373-471.844 227.602-107.321" transform="matrix(.09977 0 0 -.09977 0 199.482)"/><path style="fill-rule:nonzero;fill:#bf96ae;fill-opacity:1;stroke-width:5;stroke-linecap:round;stroke-linejoin:round;stroke:#000;stroke-opacity:1;stroke-miterlimit:10" d="m1376.145 700.87 690.441-325.762-676.855 633.12" transform="matrix(.09977 0 0 -.09977 0 199.482)"/><path style="stroke:none;fill-rule:nonzero;fill:#bf96ae;fill-opacity:1" d="M138.648 98.895 109.66 71.777l27.633 57.782"/><path style="fill:none;stroke-width:5;stroke-linecap:round;stroke-linejoin:round;stroke:#000;stroke-opacity:1;stroke-miterlimit:10" d="m1389.731 1008.228-290.561 271.807" transform="matrix(.09977 0 0 -.09977 0 199.482)"/><path style="fill-rule:nonzero;fill:#dacccc;fill-opacity:1;stroke-width:5;stroke-linecap:round;stroke-linejoin:round;stroke:#000;stroke-opacity:1;stroke-miterlimit:10" d="m1389.731 1008.228 676.855-633.12-457.28 646.159" transform="matrix(.09977 0 0 -.09977 0 199.482)"/><path style="stroke:none;fill-rule:nonzero;fill:#dacccc;fill-opacity:1" d="m160.555 97.594-14.621-20.656-7.286 21.957"/><path style="fill:none;stroke-width:5;stroke-linecap:round;stroke-linejoin:round;stroke:#000;stroke-opacity:1;stroke-miterlimit:10" d="m1609.307 1021.267-146.553 207.046" transform="matrix(.09977 0 0 -.09977 0 199.482)"/><path style="fill-rule:nonzero;fill:#d7836f;fill-opacity:1;stroke-width:5;stroke-linecap:round;stroke-linejoin:round;stroke:#000;stroke-opacity:1;stroke-miterlimit:10" d="m1389.731 1008.228-195.652 626.816-35.278-640.48" transform="matrix(.09977 0 0 -.09977 0 199.482)"/><path style="stroke:none;fill-rule:nonzero;fill:#d7836f;fill-opacity:1" d="m115.61 100.258-1.024 18.594 24.062-19.957"/><path style="fill:none;stroke-width:5;stroke-linecap:round;stroke-linejoin:round;stroke:#000;stroke-opacity:1;stroke-miterlimit:10" d="m1158.801 994.564-10.258-186.373" transform="matrix(.09977 0 0 -.09977 0 199.482)"/><path style="fill-rule:nonzero;fill:#653e8d;fill-opacity:1;stroke-width:5;stroke-linecap:round;stroke-linejoin:round;stroke:#000;stroke-opacity:1;stroke-miterlimit:10" d="m674.584 1128.274 76.194-443.3 118.91 254.813" transform="matrix(.09977 0 0 -.09977 0 199.482)"/><path style="fill-rule:nonzero;fill:#988bc4;fill-opacity:1;stroke-width:5;stroke-linecap:round;stroke-linejoin:round;stroke:#000;stroke-opacity:1;stroke-miterlimit:10" d="M674.584 1128.274 314.289 116.38l555.4 823.408" transform="matrix(.09977 0 0 -.09977 0 199.482)"/><path style="fill-rule:nonzero;fill:#988bc4;fill-opacity:1;stroke-width:5;stroke-linecap:round;stroke-linejoin:round;stroke:#000;stroke-opacity:1;stroke-miterlimit:10" d="m869.688 939.787 229.482 340.248-424.586-151.76" transform="matrix(.09977 0 0 -.09977 0 199.482)"/><path style="fill-rule:nonzero;fill:#653e8d;fill-opacity:1;stroke-width:5;stroke-linecap:round;stroke-linejoin:round;stroke:#000;stroke-opacity:1;stroke-miterlimit:10" d="m869.688 939.787 324.391 695.257-519.495-506.77" transform="matrix(.09977 0 0 -.09977 0 199.482)"/><path style="fill-rule:nonzero;fill:#bf96ae;fill-opacity:1;stroke-width:5;stroke-linecap:round;stroke-linejoin:round;stroke:#000;stroke-opacity:1;stroke-miterlimit:10" d="m1148.543 808.19-49.373 471.845-229.482-340.248" transform="matrix(.09977 0 0 -.09977 0 199.482)"/><path style="fill-rule:nonzero;fill:#a05878;fill-opacity:1;stroke-width:5;stroke-linecap:round;stroke-linejoin:round;stroke:#000;stroke-opacity:1;stroke-miterlimit:10" d="m869.688 939.787-118.91-254.814 397.765 123.218" transform="matrix(.09977 0 0 -.09977 0 199.482)"/><path style="fill-rule:nonzero;fill:#bf96ae;fill-opacity:1;stroke-width:5;stroke-linecap:round;stroke-linejoin:round;stroke:#000;stroke-opacity:1;stroke-miterlimit:10" d="M869.688 939.787 314.29 116.38l834.254 691.812" transform="matrix(.09977 0 0 -.09977 0 199.482)"/><path style="fill-rule:nonzero;fill:#a05878;fill-opacity:1;stroke-width:5;stroke-linecap:round;stroke-linejoin:round;stroke:#000;stroke-opacity:1;stroke-miterlimit:10" d="m1148.543 808.19 45.536 826.854-324.39-695.257" transform="matrix(.09977 0 0 -.09977 0 199.482)"/></svg>