<svg xmlns="http://www.w3.org/2000/svg" width="200pt" height="200pt" viewBox="0 0 200 200" version="1.2"><path style="fill-rule:nonzero;fill:#b69abb;fill-opacity:1;stroke-width:6.59289;stroke-linecap:round;stroke-linejoin:round;stroke:#000;stroke-opacity:1;stroke-miterlimit:10" d="m968.164 418.125-485.312 432.11 431.796 472.812M914.648 1323.047l482.579-424.063-429.063-480.859" transform="matrix(.1 0 0 -.1 0 200)"/><path style="stroke:none;fill-rule:nonzero;fill:#b47388;fill-opacity:1" d="m124.453 23.355-32.988 44.34-34.34-41.066"/><path style="fill:none;stroke-width:6.59289;stroke-linecap:round;stroke-linejoin:round;stroke:#000;stroke-opacity:1;stroke-miterlimit:10" d="m1244.531 1766.445-329.883-443.398L571.25 1733.71Zm0 0" transform="matrix(.1 0 0 -.1 0 200)"/><path style="stroke:none;fill-rule:nonzero;fill:#b69abb;fill-opacity:1" d="m57.125 26.629 67.328-3.274-18.469 20.18"/><path style="fill:none;stroke-width:6.59289;stroke-linecap:round;stroke-linejoin:round;stroke:#000;stroke-opacity:1;stroke-miterlimit:10" d="m571.25 1733.71 673.281 32.735" transform="matrix(.1 0 0 -.1 0 200)"/><path style="stroke:none;fill-rule:nonzero;fill:#ca4e00;fill-opacity:1" d="m124.453 23.355-32.988 44.34 1.347-9.765"/><path style="fill:none;stroke-width:6.59289;stroke-linecap:round;stroke-linejoin:round;stroke:#000;stroke-opacity:1;stroke-miterlimit:10" d="m1244.531 1766.445-329.883-443.398" transform="matrix(.1 0 0 -.1 0 200)"/><path style="stroke:none;fill-rule:nonzero;fill:#7c68b1;fill-opacity:1" d="m139.723 110.102 35.586-42.57 5.125 67.257"/><path style="fill:none;stroke-width:6.59289;stroke-linecap:round;stroke-linejoin:round;stroke:#000;stroke-opacity:1;stroke-miterlimit:10" d="m1397.227 898.984 355.859 425.703 51.25-672.578Zm0 0" transform="matrix(.1 0 0 -.1 0 200)"/><path style="stroke:none;fill-rule:nonzero;fill:#a22400;fill-opacity:1" d="m139.723 110.102 35.586-42.57-31.422 35.198"/><path style="fill:none;stroke-width:6.59289;stroke-linecap:round;stroke-linejoin:round;stroke:#000;stroke-opacity:1;stroke-miterlimit:10" d="m1397.227 898.984 355.859 425.703" transform="matrix(.1 0 0 -.1 0 200)"/><path style="stroke:none;fill-rule:nonzero;fill:#b69abb;fill-opacity:1" d="m175.309 67.531 5.125 67.258-36.547-32.059"/><path style="fill:none;stroke-width:6.59289;stroke-linecap:round;stroke-linejoin:round;stroke:#000;stroke-opacity:1;stroke-miterlimit:10" d="m1753.086 1324.688 51.25-672.579" transform="matrix(.1 0 0 -.1 0 200)"/><path style="stroke:none;fill-rule:nonzero;fill:#b69abb;fill-opacity:1" d="m57.125 26.629 48.86 16.906L92.812 57.93M92.813 57.93l82.496 9.601-31.422 35.2"/><path style="stroke:none;fill-rule:nonzero;fill:#b69abb;fill-opacity:1" d="m105.984 43.535 69.325 23.996-82.496-9.601"/><path style="stroke:none;fill-rule:nonzero;fill:#a22400;fill-opacity:1" d="m164.895 74.8-21.008 27.93 31.422-35.199"/><path style="stroke:none;fill-rule:nonzero;fill:#ca4e00;fill-opacity:1" d="m95.012 42.023 29.441-18.668-31.64 34.575"/><path style="stroke:none;fill-rule:nonzero;fill:#b69bbc;fill-opacity:1" d="m56.16 8.04 38.852 33.983 14.328-15.605"/><path style="stroke:none;fill-rule:nonzero;fill:#ca4e00;fill-opacity:1" d="m96.816 28.953 12.524-2.535-14.328 15.605"/><path style="stroke:none;fill-rule:nonzero;fill:#ca4e00;fill-opacity:1" d="m109.34 26.418 15.113-3.063-29.441 18.668"/><path style="stroke:none;fill-rule:nonzero;fill:#b69bbc;fill-opacity:1" d="M129.414 4.547 56.16 8.039l53.18 18.379"/><path style="fill:none;stroke-width:6.59289;stroke-linecap:round;stroke-linejoin:round;stroke:#000;stroke-opacity:1;stroke-miterlimit:10" d="m1294.14 1954.531-732.538-34.922" transform="matrix(.1 0 0 -.1 0 200)"/><path style="stroke:none;fill-rule:nonzero;fill:#b69abb;fill-opacity:1" d="m124.453 23.355 50.856 44.176-69.325-23.996"/><path style="fill:none;stroke-width:6.59289;stroke-linecap:round;stroke-linejoin:round;stroke:#000;stroke-opacity:1;stroke-miterlimit:10" d="m1244.531 1766.445 508.555-441.757" transform="matrix(.1 0 0 -.1 0 200)"/><path style="fill-rule:nonzero;fill:#290020;fill-opacity:1;stroke-width:6.59289;stroke-linecap:round;stroke-linejoin:round;stroke:#000;stroke-opacity:1;stroke-miterlimit:10" d="m1753.086 1324.688-508.555 441.757 49.61 188.086" transform="matrix(.1 0 0 -.1 0 200)"/><path style="fill-rule:nonzero;fill:#ca4e00;fill-opacity:1;stroke-width:6.59289;stroke-linecap:round;stroke-linejoin:round;stroke:#000;stroke-opacity:1;stroke-miterlimit:10" d="m968.164 1710.469 325.977 244.062-49.61-188.086" transform="matrix(.1 0 0 -.1 0 200)"/><path style="fill-rule:nonzero;fill:#290020;fill-opacity:1;stroke-width:6.59289;stroke-linecap:round;stroke-linejoin:round;stroke:#000;stroke-opacity:1;stroke-miterlimit:10" d="m1294.14 1954.531 554.102-479.57-95.156-150.274" transform="matrix(.1 0 0 -.1 0 200)"/><path style="stroke:none;fill-rule:nonzero;fill:#b69bbc;fill-opacity:1" d="m184.824 52.504-55.41-47.957-20.074 21.871"/><path style="fill:none;stroke-width:6.59289;stroke-linecap:round;stroke-linejoin:round;stroke:#000;stroke-opacity:1;stroke-miterlimit:10" d="m1848.242 1474.96-554.101 479.571" transform="matrix(.1 0 0 -.1 0 200)"/><path style="stroke:none;fill-rule:nonzero;fill:#b69bbc;fill-opacity:1" d="m109.34 26.418 47.238 57.687 28.246-31.601"/><path style="stroke:none;fill-rule:nonzero;fill:#a22400;fill-opacity:1" d="m150.676 90.71-6.79 12.02 21.009-27.93"/><path style="stroke:none;fill-rule:nonzero;fill:#b69bbc;fill-opacity:1" d="m95.012 42.023 55.664 48.688-41.336-64.293M150.676 90.71l39.87 34.88-33.968-41.485"/><path style="stroke:none;fill-rule:nonzero;fill:#b69bbc;fill-opacity:1" d="m150.676 90.71 5.902-6.605-47.238-57.687"/><path style="stroke:none;fill-rule:nonzero;fill:#0b0001;fill-opacity:1" d="M139.723 110.102 91.465 67.695l5.351-38.742"/><path style="fill:none;stroke-width:6.59289;stroke-linecap:round;stroke-linejoin:round;stroke:#000;stroke-opacity:1;stroke-miterlimit:10" d="m1397.227 898.984-482.579 424.063" transform="matrix(.1 0 0 -.1 0 200)"/><path style="stroke:none;fill-rule:nonzero;fill:#0b0001;fill-opacity:1" d="m180.434 134.79-40.711-24.688-42.907-81.149"/><path style="fill:none;stroke-width:6.59289;stroke-linecap:round;stroke-linejoin:round;stroke:#000;stroke-opacity:1;stroke-miterlimit:10" d="m1804.336 652.11-407.11 246.874" transform="matrix(.1 0 0 -.1 0 200)"/><path style="stroke:none;fill-rule:nonzero;fill:#a22400;fill-opacity:1" d="m96.816 158.188 42.907-48.086 4.164-7.372"/><path style="fill:none;stroke-width:6.59289;stroke-linecap:round;stroke-linejoin:round;stroke:#000;stroke-opacity:1;stroke-miterlimit:10" d="m968.164 418.125 429.063 480.86" transform="matrix(.1 0 0 -.1 0 200)"/><path style="stroke:none;fill-rule:nonzero;fill:#a22400;fill-opacity:1" d="m117.441 132.352-20.625 25.835 47.07-55.457"/><path style="stroke:none;fill-rule:nonzero;fill:#ca4e00;fill-opacity:1" d="m91.465 67.695-43.18 47.282 12.34-21.872"/><path style="fill:none;stroke-width:6.59289;stroke-linecap:round;stroke-linejoin:round;stroke:#000;stroke-opacity:1;stroke-miterlimit:10" d="M914.648 1323.047 482.852 850.234" transform="matrix(.1 0 0 -.1 0 200)"/><path style="stroke:none;fill-rule:nonzero;fill:#0b0001;fill-opacity:1" d="M91.465 67.695 57.125 26.63l35.688 31.3"/><path style="fill:none;stroke-width:6.59289;stroke-linecap:round;stroke-linejoin:round;stroke:#000;stroke-opacity:1;stroke-miterlimit:10" d="M914.648 1323.047 571.25 1733.71" transform="matrix(.1 0 0 -.1 0 200)"/><path style="stroke:none;fill-rule:nonzero;fill:#ca4e00;fill-opacity:1" d="m92.813 57.93-1.348 9.765-30.84 25.41"/><path style="stroke:none;fill-rule:nonzero;fill:#b69abb;fill-opacity:1" d="m79.547 72.426 58.89 36.402-26.523 29.711M92.813 57.93l51.074 44.8-64.34-30.304"/><path style="stroke:none;fill-rule:nonzero;fill:#b69abb;fill-opacity:1" d="m143.887 102.73-5.45 6.098-58.89-36.402"/><path style="stroke:none;fill-rule:nonzero;fill:#a22400;fill-opacity:1" d="m156.254 80.828-5.578 9.883 14.219-15.91"/><path style="stroke:none;fill-rule:nonzero;fill:#0b0001;fill-opacity:1" d="m190.547 125.59-10.113 9.2L96.816 28.952"/><path style="fill:none;stroke-width:6.59289;stroke-linecap:round;stroke-linejoin:round;stroke:#000;stroke-opacity:1;stroke-miterlimit:10" d="m1905.469 744.102-101.133-91.993" transform="matrix(.1 0 0 -.1 0 200)"/><path style="stroke:none;fill-rule:nonzero;fill:#a22400;fill-opacity:1" d="m136.344 106.75-24.43 31.79 38.762-47.83M111.914 138.54l-15.098 19.648 20.625-25.836"/><path style="stroke:none;fill-rule:nonzero;fill:#a22400;fill-opacity:1" d="m111.914 138.54 5.527-6.188 33.235-41.641"/><path style="stroke:none;fill-rule:nonzero;fill:#b69abb;fill-opacity:1" d="m143.887 102.73 36.547 32.06-41.996-25.962"/><path style="stroke:none;fill-rule:nonzero;fill:#b69abb;fill-opacity:1" d="m180.434 134.79-45.149 51.48-23.37-47.73"/><path style="fill:none;stroke-width:6.59289;stroke-linecap:round;stroke-linejoin:round;stroke:#000;stroke-opacity:1;stroke-miterlimit:10" d="m1804.336 652.11-451.484-514.805" transform="matrix(.1 0 0 -.1 0 200)"/><path style="stroke:none;fill-rule:nonzero;fill:#b69abb;fill-opacity:1" d="m138.438 108.828 41.996 25.961-68.52 3.75"/><path style="stroke:none;fill-rule:nonzero;fill:#a22400;fill-opacity:1" d="m150.676 90.71-33.235 41.642 26.446-29.622"/><path style="stroke:none;fill-rule:nonzero;fill:#0b0001;fill-opacity:1" d="M96.816 28.953 92.812 57.93 57.126 26.629"/><path style="stroke:none;fill-rule:nonzero;fill:#b69abb;fill-opacity:1" d="m57.125 26.629 35.688 31.3-13.266 14.497"/><path style="stroke:none;fill-rule:nonzero;fill:#e4c2b4;fill-opacity:1" d="m48.285 114.977-34.137 28.918-2.91-67.973"/><path style="fill:none;stroke-width:6.59289;stroke-linecap:round;stroke-linejoin:round;stroke:#000;stroke-opacity:1;stroke-miterlimit:10" d="m482.852 850.234-341.368-289.18-29.101 679.727Zm0 0" transform="matrix(.1 0 0 -.1 0 200)"/><path style="stroke:none;fill-rule:nonzero;fill:#000;fill-opacity:1" d="m11.238 75.922 37.047 39.055-1.152-7.125"/><path style="fill:none;stroke-width:6.59289;stroke-linecap:round;stroke-linejoin:round;stroke:#000;stroke-opacity:1;stroke-miterlimit:10" d="m112.383 1240.781 370.469-390.547" transform="matrix(.1 0 0 -.1 0 200)"/><path style="stroke:none;fill-rule:nonzero;fill:#b69abb;fill-opacity:1" d="m11.238 75.922 45.887-49.293-24.906 67.957"/><path style="fill:none;stroke-width:6.59289;stroke-linecap:round;stroke-linejoin:round;stroke:#000;stroke-opacity:1;stroke-miterlimit:10" d="m112.383 1240.781 458.867 492.93" transform="matrix(.1 0 0 -.1 0 200)"/><path style="stroke:none;fill-rule:nonzero;fill:#000;fill-opacity:1" d="m48.285 114.977 48.531 43.21-13.43-18.085"/><path style="fill:none;stroke-width:6.59289;stroke-linecap:round;stroke-linejoin:round;stroke:#000;stroke-opacity:1;stroke-miterlimit:10" d="m482.852 850.234 485.312-432.109" transform="matrix(.1 0 0 -.1 0 200)"/><path style="stroke:none;fill-rule:nonzero;fill:#ca4e00;fill-opacity:1" d="m48.285 114.977-34.137 28.918 46.477-50.79"/><path style="fill:none;stroke-width:6.59289;stroke-linecap:round;stroke-linejoin:round;stroke:#000;stroke-opacity:1;stroke-miterlimit:10" d="m482.852 850.234-341.368-289.18" transform="matrix(.1 0 0 -.1 0 200)"/><path style="stroke:none;fill-rule:nonzero;fill:#b69abb;fill-opacity:1" d="m57.125 26.629 4.98 94.539L32.22 94.586"/><path style="stroke:none;fill-rule:nonzero;fill:#000;fill-opacity:1" d="m47.133 107.852 1.152 7.125 35.102 25.125"/><path style="stroke:none;fill-rule:nonzero;fill:#b69abb;fill-opacity:1" d="m57.125 26.629 54.79 111.91-13.403 15.02"/><path style="stroke:none;fill-rule:nonzero;fill:#b69abb;fill-opacity:1" d="m57.125 26.629 41.387 126.93-36.407-32.391"/><path style="stroke:none;fill-rule:nonzero;fill:#a22400;fill-opacity:1" d="m111.914 138.54-13.402 15.019-1.696 4.629"/><path style="stroke:none;fill-rule:nonzero;fill:#000;fill-opacity:1" d="m96.816 158.188 38.47 28.082-36.774-32.711"/><path style="fill:none;stroke-width:6.59289;stroke-linecap:round;stroke-linejoin:round;stroke:#000;stroke-opacity:1;stroke-miterlimit:10" d="m968.164 418.125 384.688-280.82" transform="matrix(.1 0 0 -.1 0 200)"/><path style="stroke:none;fill-rule:nonzero;fill:#000;fill-opacity:1" d="m83.387 140.102 13.43 18.085 1.695-4.628"/><path style="stroke:none;fill-rule:nonzero;fill:#a22400;fill-opacity:1" d="m65.746 190.262 31.07-32.075 1.696-4.628"/><path style="fill:none;stroke-width:6.59289;stroke-linecap:round;stroke-linejoin:round;stroke:#000;stroke-opacity:1;stroke-miterlimit:10" d="m657.46 97.383 310.704 320.742" transform="matrix(.1 0 0 -.1 0 200)"/><path style="stroke:none;fill-rule:nonzero;fill:#a4bfec;fill-opacity:1" d="m65.746 190.262 31.07-32.075 38.47 28.083"/><path style="fill:none;stroke-width:6.59289;stroke-linecap:round;stroke-linejoin:round;stroke:#000;stroke-opacity:1;stroke-miterlimit:10" d="m657.46 97.383 310.704 320.742 384.688-280.82Zm0 0" transform="matrix(.1 0 0 -.1 0 200)"/><path style="stroke:none;fill-rule:nonzero;fill:#b69abb;fill-opacity:1" d="m135.285 186.27-69.539 3.992 46.168-51.723"/><path style="fill:none;stroke-width:6.59289;stroke-linecap:round;stroke-linejoin:round;stroke:#000;stroke-opacity:1;stroke-miterlimit:10" d="M1352.852 137.305 657.46 97.383" transform="matrix(.1 0 0 -.1 0 200)"/><path style="stroke:none;fill-rule:nonzero;fill:#a22400;fill-opacity:1" d="m136.344 106.75-36.512 43.188 12.082-11.399"/><path style="stroke:none;fill-rule:nonzero;fill:#ca4e00;fill-opacity:1" d="m59.96 80.203.665 12.902-13.492 14.747"/><path style="stroke:none;fill-rule:nonzero;fill:#ca4e00;fill-opacity:1" d="m59.96 80.203-12.827 27.649-1.297-8.008"/><path style="stroke:none;fill-rule:nonzero;fill:#b69abb;fill-opacity:1" d="m65.746 190.262-51.598-46.367 18.07-49.31"/><path style="fill:none;stroke-width:6.59289;stroke-linecap:round;stroke-linejoin:round;stroke:#000;stroke-opacity:1;stroke-miterlimit:10" d="M657.46 97.383 141.485 561.055" transform="matrix(.1 0 0 -.1 0 200)"/><path style="stroke:none;fill-rule:nonzero;fill:#b69abb;fill-opacity:1" d="m62.105 121.168 3.641 69.094L32.22 94.586"/><path style="stroke:none;fill-rule:nonzero;fill:#000;fill-opacity:1" d="M45.246 96.227 11.238 75.922l35.895 31.93"/><path style="fill-rule:nonzero;fill:#d8620c;fill-opacity:1;stroke-width:6.59289;stroke-linecap:round;stroke-linejoin:round;stroke:#000;stroke-opacity:1;stroke-miterlimit:10" d="m561.602 1919.61 9.648-185.9-458.867-492.929" transform="matrix(.1 0 0 -.1 0 200)"/><path style="stroke:none;fill-rule:nonzero;fill:#b69bbc;fill-opacity:1" d="M56.16 8.04 29.004 81.796l16.242 14.43"/><path style="fill-rule:nonzero;fill:#0b0001;fill-opacity:1;stroke-width:6.59289;stroke-linecap:round;stroke-linejoin:round;stroke:#000;stroke-opacity:1;stroke-miterlimit:10" d="m571.25 1733.71-9.648 185.9 406.562-209.141" transform="matrix(.1 0 0 -.1 0 200)"/><path style="stroke:none;fill-rule:nonzero;fill:#b69bbc;fill-opacity:1" d="M56.16 8.04 45.246 96.226l14.715-16.024"/><path style="stroke:none;fill-rule:nonzero;fill:#000;fill-opacity:1" d="m43.7 86.66-14.696-4.863 16.242 14.43M29.004 81.797l-17.766-5.875 34.008 20.305"/><path style="stroke:none;fill-rule:nonzero;fill:#b69abb;fill-opacity:1" d="m14.148 143.895-2.91-67.973 20.98 18.664"/><path style="fill:none;stroke-width:6.59289;stroke-linecap:round;stroke-linejoin:round;stroke:#000;stroke-opacity:1;stroke-miterlimit:10" d="m141.484 561.055-29.101 679.726" transform="matrix(.1 0 0 -.1 0 200)"/><path style="stroke:none;fill-rule:nonzero;fill:#ca4e00;fill-opacity:1" d="m14.148 143.895-4.898-8.461 50.71-55.23"/><path style="fill:none;stroke-width:6.59289;stroke-linecap:round;stroke-linejoin:round;stroke:#000;stroke-opacity:1;stroke-miterlimit:10" d="M141.484 561.055 92.5 645.665" transform="matrix(.1 0 0 -.1 0 200)"/><path style="stroke:none;fill-rule:nonzero;fill:#ca4e00;fill-opacity:1" d="m45.836 99.844 1.297 8.008-32.985 36.043"/><path style="stroke:none;fill-rule:nonzero;fill:#000;fill-opacity:1" d="m61.57 110.723-14.437-2.871 36.254 32.25"/><path style="stroke:none;fill-rule:nonzero;fill:#b69bbc;fill-opacity:1" d="M29.004 81.797 9.25 135.434l35.996-39.207M56.16 8.04l24.414 49.71 14.438-15.727"/><path style="stroke:none;fill-rule:nonzero;fill:#000;fill-opacity:1" d="m68.348 116.746 15.039 23.356 15.125 13.457"/><path style="stroke:none;fill-rule:nonzero;fill:#a22400;fill-opacity:1" d="m99.832 149.938-1.32 3.62 13.402-15.019"/><path style="stroke:none;fill-rule:nonzero;fill:#000;fill-opacity:1" d="m84.777 131.332 13.735 22.227 1.902-5.215"/><path style="stroke:none;fill-rule:nonzero;fill:#000;fill-opacity:1" d="m68.348 116.746 30.164 36.813-13.735-22.227"/><path style="stroke:none;fill-rule:nonzero;fill:#b69abb;fill-opacity:1" d="m62.105 121.168 36.407 32.39-32.766 36.704"/><path style="stroke:none;fill-rule:nonzero;fill:#a22400;fill-opacity:1" d="m115.883 129.645-15.469 18.699 35.93-41.594"/><path style="stroke:none;fill-rule:nonzero;fill:#a22400;fill-opacity:1" d="m100.414 148.344-.582 1.594 36.512-43.188"/><path style="fill-rule:nonzero;fill:#000085;fill-opacity:1;stroke-width:6.59289;stroke-linecap:round;stroke-linejoin:round;stroke:#000;stroke-opacity:1;stroke-miterlimit:10" d="m1352.852 137.305 451.484 514.804 101.133 91.993" transform="matrix(.1 0 0 -.1 0 200)"/><path style="fill-rule:nonzero;fill:#000085;fill-opacity:1;stroke-width:6.59289;stroke-linecap:round;stroke-linejoin:round;stroke:#000;stroke-opacity:1;stroke-miterlimit:10" d="M1905.469 744.102 1414.14 183.555l-61.29-46.25" transform="matrix(.1 0 0 -.1 0 200)"/><path style="stroke:none;fill-rule:nonzero;fill:#ca4e00;fill-opacity:1" d="m80.574 57.75 12.239.18-32.188 35.175"/><path style="stroke:none;fill-rule:nonzero;fill:#ca4e00;fill-opacity:1" d="M80.574 57.75 60.625 93.105l-.664-12.902"/><path style="stroke:none;fill-rule:nonzero;fill:#b69bbc;fill-opacity:1" d="m56.16 8.04 5.41 102.683 39.703 35.265"/><path style="stroke:none;fill-rule:nonzero;fill:#b69bbc;fill-opacity:1" d="m56.16 8.04 45.113 137.948 14.61-16.343"/><path style="stroke:none;fill-rule:nonzero;fill:#ca4e00;fill-opacity:1" d="m96.816 28.953-36.855 51.25-14.715 16.024M44.633 92.414l.613 3.813L9.25 135.434"/><path style="stroke:none;fill-rule:nonzero;fill:#ca4e00;fill-opacity:1" d="m96.816 28.953-51.57 67.274-.613-3.813"/><path style="stroke:none;fill-rule:nonzero;fill:#b69bbc;fill-opacity:1" d="M59.96 80.203 45.247 96.227l16.324 14.496"/><path style="fill-rule:nonzero;fill:#ca4e00;fill-opacity:1;stroke-width:6.59289;stroke-linecap:round;stroke-linejoin:round;stroke:#000;stroke-opacity:1;stroke-miterlimit:10" d="m92.5 645.664 344.492 487.734 531.172 577.07" transform="matrix(.1 0 0 -.1 0 200)"/><path style="stroke:none;fill-rule:nonzero;fill:#000;fill-opacity:1" d="m43.7 86.66 56.714 61.684 1.766-4.836"/><path style="stroke:none;fill-rule:nonzero;fill:#000;fill-opacity:1" d="M103.55 139.754 43.7 86.66l58.48 56.848"/><path style="fill:none;stroke-width:6.59289;stroke-linecap:round;stroke-linejoin:round;stroke:#000;stroke-opacity:1;stroke-miterlimit:10" d="m1035.508 602.46-598.516 530.938" transform="matrix(.1 0 0 -.1 0 200)"/><path style="stroke:none;fill-rule:nonzero;fill:#a22400;fill-opacity:1" d="m115.883 129.645-14.61 16.343-.859 2.356"/><path style="stroke:none;fill-rule:nonzero;fill:#000;fill-opacity:1" d="m61.57 110.723 21.817 29.379-15.04-23.356"/><path style="stroke:none;fill-rule:nonzero;fill:#b69bbc;fill-opacity:1" d="m61.57 110.723 3.961 75.257 35.742-39.992M95.012 42.023l26.886 80.891 28.778-32.203"/><path style="stroke:none;fill-rule:nonzero;fill:#ca4e00;fill-opacity:1" d="m95.012 42.023-2.2 15.907-12.238-.18"/><path style="stroke:none;fill-rule:nonzero;fill:#b69bbc;fill-opacity:1" d="m80.574 57.75 60.84 123.895L95.012 42.023"/><path style="fill-rule:nonzero;fill:#a22400;fill-opacity:1;stroke-width:6.59289;stroke-linecap:round;stroke-linejoin:round;stroke:#000;stroke-opacity:1;stroke-miterlimit:10" d="m1753.086 1324.688 95.156 150.273-285.703-283.242" transform="matrix(.1 0 0 -.1 0 200)"/><path style="stroke:none;fill-rule:nonzero;fill:#b69bbc;fill-opacity:1" d="m190.547 125.59-5.723-73.086-28.246 31.601"/><path style="fill:none;stroke-width:6.59289;stroke-linecap:round;stroke-linejoin:round;stroke:#000;stroke-opacity:1;stroke-miterlimit:10" d="m1905.469 744.102-57.227 730.859" transform="matrix(.1 0 0 -.1 0 200)"/><path style="fill-rule:nonzero;fill:#0b0001;fill-opacity:1;stroke-width:6.59289;stroke-linecap:round;stroke-linejoin:round;stroke:#000;stroke-opacity:1;stroke-miterlimit:10" d="m968.164 1710.469 594.375-518.75 342.93-447.617" transform="matrix(.1 0 0 -.1 0 200)"/><path style="stroke:none;fill-rule:nonzero;fill:#a22400;fill-opacity:1" d="M156.254 80.828 65.53 185.98l50.352-56.335"/><path style="stroke:none;fill-rule:nonzero;fill:#b69bbc;fill-opacity:1" d="m115.883 129.645-10.676 11.94 36.207 40.06"/><path style="stroke:none;fill-rule:nonzero;fill:#b69bbc;fill-opacity:1" d="m102.883 144.188-1.61 1.8 40.141 35.657"/><path style="fill-rule:nonzero;fill:#a22400;fill-opacity:1;stroke-width:6.59289;stroke-linecap:round;stroke-linejoin:round;stroke:#000;stroke-opacity:1;stroke-miterlimit:10" d="M1562.54 1191.719 1035.507 602.46 655.312 140.195" transform="matrix(.1 0 0 -.1 0 200)"/><path style="stroke:none;fill-rule:nonzero;fill:#000;fill-opacity:1" d="m141.414 181.645-37.863-41.891-1.371 3.754"/><path style="fill:none;stroke-width:6.59289;stroke-linecap:round;stroke-linejoin:round;stroke:#000;stroke-opacity:1;stroke-miterlimit:10" d="M1414.14 183.555 1035.509 602.46" transform="matrix(.1 0 0 -.1 0 200)"/><path style="stroke:none;fill-rule:nonzero;fill:#a22400;fill-opacity:1" d="m65.531 185.98.215 4.282 34.668-41.918"/><path style="fill:none;stroke-width:6.59289;stroke-linecap:round;stroke-linejoin:round;stroke:#000;stroke-opacity:1;stroke-miterlimit:10" d="m655.313 140.195 2.148-42.812" transform="matrix(.1 0 0 -.1 0 200)"/><path style="stroke:none;fill-rule:nonzero;fill:#a22400;fill-opacity:1" d="M101.273 145.988 65.531 185.98l34.883-37.636"/><path style="stroke:none;fill-rule:nonzero;fill:#000;fill-opacity:1" d="m135.285 186.27 6.13-4.625-39.235-38.137"/><path style="fill:none;stroke-width:6.59289;stroke-linecap:round;stroke-linejoin:round;stroke:#000;stroke-opacity:1;stroke-miterlimit:10" d="m1352.852 137.305 61.289 46.25" transform="matrix(.1 0 0 -.1 0 200)"/><path style="stroke:none;fill-rule:nonzero;fill:#000;fill-opacity:1" d="m100.414 148.344 34.871 37.926-33.105-42.762"/><path style="stroke:none;fill-rule:nonzero;fill:#a22400;fill-opacity:1" d="m100.414 148.344-34.668 41.918 34.086-40.325"/><path style="stroke:none;fill-rule:nonzero;fill:#a22400;fill-opacity:1" d="m99.832 149.938-34.086 40.324 32.766-36.703"/><path style="stroke:none;fill-rule:nonzero;fill:#000;fill-opacity:1" d="m100.414 148.344-1.902 5.215 36.773 32.71"/><path style="stroke:none;fill-rule:nonzero;fill:#b69bbc;fill-opacity:1" d="m65.531 185.98 75.883-4.335-40.14-35.657"/><path style="fill:none;stroke-width:6.59289;stroke-linecap:round;stroke-linejoin:round;stroke:#000;stroke-opacity:1;stroke-miterlimit:10" d="m655.313 140.195 758.828 43.36" transform="matrix(.1 0 0 -.1 0 200)"/><path style="stroke:none;fill-rule:nonzero;fill:#000;fill-opacity:1" d="m43.7 86.66 24.648 30.086 16.43 14.586"/><path style="stroke:none;fill-rule:nonzero;fill:#000;fill-opacity:1" d="m43.7 86.66 17.87 24.063 6.778 6.023"/><path style="stroke:none;fill-rule:nonzero;fill:#000;fill-opacity:1" d="m43.7 86.66 1.546 9.567 16.324 14.496"/><path style="stroke:none;fill-rule:nonzero;fill:#000;fill-opacity:1" d="m45.246 96.227 1.887 11.625 14.437 2.87"/><path style="stroke:none;fill-rule:nonzero;fill:#b69bbc;fill-opacity:1" d="M45.246 96.227 9.25 135.434l52.32-24.711M9.25 135.434l56.281 50.546-3.96-75.257"/><path style="fill:none;stroke-width:6.59289;stroke-linecap:round;stroke-linejoin:round;stroke:#000;stroke-opacity:1;stroke-miterlimit:10" d="m92.5 645.664 562.813-505.469" transform="matrix(.1 0 0 -.1 0 200)"/><path style="stroke:none;fill-rule:nonzero;fill:#a22400;fill-opacity:1" d="m156.254 80.828-40.371 48.817 20.46-22.895"/><path style="stroke:none;fill-rule:nonzero;fill:#b69bbc;fill-opacity:1" d="m141.414 181.645 49.133-56.055-39.871-34.88"/><path style="fill:none;stroke-width:6.59289;stroke-linecap:round;stroke-linejoin:round;stroke:#000;stroke-opacity:1;stroke-miterlimit:10" d="m1414.14 183.555 491.329 560.547" transform="matrix(.1 0 0 -.1 0 200)"/><path style="stroke:none;fill-rule:nonzero;fill:#b69bbc;fill-opacity:1" d="m121.898 122.914 19.516 58.73 9.262-90.933"/><path style="stroke:none;fill-rule:nonzero;fill:#ca4e00;fill-opacity:1" d="m96.816 28.953-1.804 13.07L80.574 57.75"/><path style="stroke:none;fill-rule:nonzero;fill:#a22400;fill-opacity:1" d="m156.254 80.828-19.91 25.922 14.332-16.04"/><path style="stroke:none;fill-rule:nonzero;fill:#ca4e00;fill-opacity:1" d="M96.816 28.953 80.574 57.75 59.961 80.203"/><path style="fill-rule:nonzero;fill:#d8620c;fill-opacity:1;stroke-width:6.59289;stroke-linecap:round;stroke-linejoin:round;stroke:#000;stroke-opacity:1;stroke-miterlimit:10" d="M112.383 1240.781 61.484 1385.04l500.118 534.57" transform="matrix(.1 0 0 -.1 0 200)"/><path style="stroke:none;fill-rule:nonzero;fill:#000;fill-opacity:1" d="m6.148 61.496 5.09 14.426 17.766 5.875"/><path style="fill:none;stroke-width:6.59289;stroke-linecap:round;stroke-linejoin:round;stroke:#000;stroke-opacity:1;stroke-miterlimit:10" d="m61.484 1385.04 50.899-144.259" transform="matrix(.1 0 0 -.1 0 200)"/><path style="stroke:none;fill-rule:nonzero;fill:#b69bbc;fill-opacity:1" d="m6.148 61.496 3.102 73.938 19.754-53.637"/><path style="fill:none;stroke-width:6.59289;stroke-linecap:round;stroke-linejoin:round;stroke:#000;stroke-opacity:1;stroke-miterlimit:10" d="M61.484 1385.04 92.5 645.663" transform="matrix(.1 0 0 -.1 0 200)"/><path style="stroke:none;fill-rule:nonzero;fill:#b69bbc;fill-opacity:1" d="M56.16 8.04 6.148 61.495l22.856 20.3"/><path style="fill:none;stroke-width:6.59289;stroke-linecap:round;stroke-linejoin:round;stroke:#000;stroke-opacity:1;stroke-miterlimit:10" d="M561.602 1919.61 61.484 1385.04" transform="matrix(.1 0 0 -.1 0 200)"/><path style="stroke:none;fill-rule:nonzero;fill:#000;fill-opacity:1" d="M43.7 86.66 6.147 61.496l22.856 20.3"/><path style="fill:none;stroke-width:6.59289;stroke-linecap:round;stroke-linejoin:round;stroke:#000;stroke-opacity:1;stroke-miterlimit:10" d="M436.992 1133.398 61.484 1385.04" transform="matrix(.1 0 0 -.1 0 200)"/><path style="fill-rule:nonzero;fill:#000;fill-opacity:1;stroke-width:6.59289;stroke-linecap:round;stroke-linejoin:round;stroke:#000;stroke-opacity:1;stroke-miterlimit:10" d="m92.5 645.664 48.984-84.61L657.461 97.384" transform="matrix(.1 0 0 -.1 0 200)"/><path style="fill-rule:nonzero;fill:#000;fill-opacity:1;stroke-width:6.59289;stroke-linecap:round;stroke-linejoin:round;stroke:#000;stroke-opacity:1;stroke-miterlimit:10" d="m657.46 97.383-2.148 42.812L92.5 645.665" transform="matrix(.1 0 0 -.1 0 200)"/><path style="stroke:none;fill-rule:nonzero;fill:#90cbfc;fill-opacity:1" d="M129.414 4.547 56.16 8.039l40.656 20.914"/><path style="fill:none;stroke-width:6.59289;stroke-linecap:round;stroke-linejoin:round;stroke:#000;stroke-opacity:1;stroke-miterlimit:10" d="m1294.14 1954.531-732.538-34.922 406.562-209.14Zm0 0" transform="matrix(.1 0 0 -.1 0 200)"/><path style="stroke:none;fill-rule:nonzero;fill:#f2d0ae;fill-opacity:1" d="m190.547 125.59-5.723-73.086-28.57 28.324"/><path style="fill:none;stroke-width:6.59289;stroke-linecap:round;stroke-linejoin:round;stroke:#000;stroke-opacity:1;stroke-miterlimit:10" d="m1905.469 744.102-57.227 730.859-285.703-283.242Zm0 0" transform="matrix(.1 0 0 -.1 0 200)"/><path style="stroke:none;fill-rule:nonzero;fill:#6254ab;fill-opacity:1" d="m6.148 61.496 3.102 73.938L43.7 86.66"/><path style="fill:none;stroke-width:6.59289;stroke-linecap:round;stroke-linejoin:round;stroke:#000;stroke-opacity:1;stroke-miterlimit:10" d="M61.484 1385.04 92.5 645.663l344.492 487.734Zm0 0" transform="matrix(.1 0 0 -.1 0 200)"/><path style="stroke:none;fill-rule:nonzero;fill:#b16577;fill-opacity:1" d="m65.531 185.98 75.883-4.335-37.863-41.891"/><path style="fill:none;stroke-width:6.59289;stroke-linecap:round;stroke-linejoin:round;stroke:#000;stroke-opacity:1;stroke-miterlimit:10" d="m655.313 140.195 758.828 43.36-378.633 418.906Zm0 0" transform="matrix(.1 0 0 -.1 0 200)"/><path style="fill-rule:nonzero;fill:#b69bbd;fill-opacity:1;stroke-width:6.59289;stroke-linecap:round;stroke-linejoin:round;stroke:#000;stroke-opacity:1;stroke-miterlimit:10" d="m1035.508 602.46 527.031 589.259-594.375 518.75" transform="matrix(.1 0 0 -.1 0 200)"/><path style="fill-rule:nonzero;fill:#b69bbd;fill-opacity:1;stroke-width:6.59289;stroke-linecap:round;stroke-linejoin:round;stroke:#000;stroke-opacity:1;stroke-miterlimit:10" d="m968.164 1710.469-531.172-577.07 598.516-530.938" transform="matrix(.1 0 0 -.1 0 200)"/></svg>