<svg xmlns="http://www.w3.org/2000/svg" width="284.747" height="265.84" viewBox="0 0 213.56 199.38" version="1.2"><path style="stroke:none;fill-rule:nonzero;fill:#ada9d3;fill-opacity:1" d="m85.7 62.469 23.652 43.773-19.91-.082"/><path style="fill:none;stroke-width:5;stroke-linecap:round;stroke-linejoin:round;stroke:#000;stroke-opacity:1;stroke-miterlimit:10" d="m858.537 1367.17 237.259-439.096-199.721.823Zm0 0" transform="matrix(.09969 0 0 -.09969 .112 198.762)"/><path style="stroke:none;fill-rule:nonzero;fill:#7658a1;fill-opacity:1" d="m85.7 62.469 40.195 10.472-6.567 15.95"/><path style="fill:none;stroke-width:5;stroke-linecap:round;stroke-linejoin:round;stroke:#000;stroke-opacity:1;stroke-miterlimit:10" d="m858.537 1367.17 403.203-105.052-65.869-159.988Zm0 0" transform="matrix(.09969 0 0 -.09969 .112 198.762)"/><path style="stroke:none;fill-rule:nonzero;fill:#ccc4d2;fill-opacity:1" d="m85.7 62.469 3.741 43.691-17.789-1.828"/><path style="fill:none;stroke-width:5;stroke-linecap:round;stroke-linejoin:round;stroke:#000;stroke-opacity:1;stroke-miterlimit:10" d="m858.537 1367.17 37.538-438.273-178.444 18.338Zm0 0" transform="matrix(.09969 0 0 -.09969 .112 198.762)"/><path style="stroke:none;fill-rule:nonzero;fill:#9085c3;fill-opacity:1" d="M109.352 106.242 85.699 62.47l33.63 26.422"/><path style="fill:none;stroke-width:5;stroke-linecap:round;stroke-linejoin:round;stroke:#000;stroke-opacity:1;stroke-miterlimit:10" d="m1095.796 928.074-237.26 439.096 337.335-265.04Zm0 0" transform="matrix(.09969 0 0 -.09969 .112 198.762)"/><path style="stroke:none;fill-rule:nonzero;fill:#601e63;fill-opacity:1" d="m85.7 62.469 27.6-5.282 12.595 15.754"/><path style="fill:none;stroke-width:5;stroke-linecap:round;stroke-linejoin:round;stroke:#000;stroke-opacity:1;stroke-miterlimit:10" d="m858.537 1367.17 276.874 52.977 126.329-158.03Zm0 0" transform="matrix(.09969 0 0 -.09969 .112 198.762)"/><path style="fill-rule:nonzero;fill:#ecd0b9;fill-opacity:1;stroke-width:5;stroke-linecap:round;stroke-linejoin:round;stroke:#000;stroke-opacity:1;stroke-miterlimit:10" d="m641.222 1133.242 217.315 233.928-112.693-335.846" transform="matrix(.09969 0 0 -.09969 .112 198.762)"/><path style="stroke:none;fill-rule:nonzero;fill:#680c12;fill-opacity:1" d="m113.3 57.188-27.6 5.28 12.316-13.234"/><path style="fill:none;stroke-width:5;stroke-linecap:round;stroke-linejoin:round;stroke:#000;stroke-opacity:1;stroke-miterlimit:10" d="m1135.41 1420.147-276.873-52.977 123.547 132.755Zm0 0" transform="matrix(.09969 0 0 -.09969 .112 198.762)"/><path style="stroke:none;fill-rule:nonzero;fill:#fab571;fill-opacity:1" d="m85.7 62.469-21.665 23.32-.25-16.64"/><path style="fill:none;stroke-width:5;stroke-linecap:round;stroke-linejoin:round;stroke:#000;stroke-opacity:1;stroke-miterlimit:10" d="m858.537 1367.17-217.315-233.928-2.507 166.923Zm0 0" transform="matrix(.09969 0 0 -.09969 .112 198.762)"/><path style="stroke:none;fill-rule:nonzero;fill:#8b0707;fill-opacity:1" d="m85.7 62.469-7.13-7.563 19.446-5.672"/><path style="fill:none;stroke-width:5;stroke-linecap:round;stroke-linejoin:round;stroke:#000;stroke-opacity:1;stroke-miterlimit:10" d="m858.537 1367.17-71.511 75.86 195.058 56.895Zm0 0" transform="matrix(.09969 0 0 -.09969 .112 198.762)"/><path style="stroke:none;fill-rule:nonzero;fill:#d05500;fill-opacity:1" d="m85.7 62.469-21.915 6.68L78.57 54.905"/><path style="fill:none;stroke-width:5;stroke-linecap:round;stroke-linejoin:round;stroke:#000;stroke-opacity:1;stroke-miterlimit:10" d="m858.537 1367.17-219.822-67.005 148.31 142.865Zm0 0" transform="matrix(.09969 0 0 -.09969 .112 198.762)"/><path style="stroke:none;fill-rule:nonzero;fill:#6d71c6;fill-opacity:1" d="m83.645 157.996 35.226-34.785 6.285 12.281"/><path style="fill:none;stroke-width:5;stroke-linecap:round;stroke-linejoin:round;stroke:#000;stroke-opacity:1;stroke-miterlimit:10" d="m837.926 408.926 353.36 348.933 63.048-123.194Zm0 0" transform="matrix(.09969 0 0 -.09969 .112 198.762)"/><path style="fill-rule:nonzero;fill:#2270df;fill-opacity:1;stroke-width:5;stroke-linecap:round;stroke-linejoin:round;stroke:#000;stroke-opacity:1;stroke-miterlimit:10" d="m1121.696 494.386-283.77-85.46 333.26 180.638M1171.186 589.564l83.148 45.1-132.638-140.278" transform="matrix(.09969 0 0 -.09969 .112 198.762)"/><path style="fill-rule:nonzero;fill:#c1d2e7;fill-opacity:1;stroke-width:5;stroke-linecap:round;stroke-linejoin:round;stroke:#000;stroke-opacity:1;stroke-miterlimit:10" d="m1121.696 494.386 411.118-375.069-462.958 275.346" transform="matrix(.09969 0 0 -.09969 .112 198.762)"/><path style="stroke:none;fill-rule:nonzero;fill:#6c2e2e;fill-opacity:1" d="m83.645 157.996 28.289-8.52-15.848 3.59"/><path style="fill:none;stroke-width:5;stroke-linecap:round;stroke-linejoin:round;stroke:#000;stroke-opacity:1;stroke-miterlimit:10" d="m837.926 408.926 283.77 85.46-158.97-36.01Zm0 0" transform="matrix(.09969 0 0 -.09969 .112 198.762)"/><path style="fill-rule:nonzero;fill:#c1d2e7;fill-opacity:1;stroke-width:5;stroke-linecap:round;stroke-linejoin:round;stroke:#000;stroke-opacity:1;stroke-miterlimit:10" d="m1069.856 394.663-107.13 63.713 158.97 36.01" transform="matrix(.09969 0 0 -.09969 .112 198.762)"/><path style="stroke:none;fill-rule:nonzero;fill:#cb97a0;fill-opacity:1" d="m83.645 157.996-11.993-53.664 17.79 1.828"/><path style="fill:none;stroke-width:5;stroke-linecap:round;stroke-linejoin:round;stroke:#000;stroke-opacity:1;stroke-miterlimit:10" d="M837.926 408.926 717.63 947.236l178.444-18.339Zm0 0" transform="matrix(.09969 0 0 -.09969 .112 198.762)"/><path style="stroke:none;fill-rule:nonzero;fill:#e9b9a1;fill-opacity:1" d="m83.645 157.996-20.54-37.328 8.547-16.336"/><path style="fill:none;stroke-width:5;stroke-linecap:round;stroke-linejoin:round;stroke:#000;stroke-opacity:1;stroke-miterlimit:10" d="m837.926 408.926-206.03 374.442 85.735 163.867Zm0 0" transform="matrix(.09969 0 0 -.09969 .112 198.762)"/><path style="stroke:none;fill-rule:nonzero;fill:#9377b1;fill-opacity:1" d="m118.871 123.21-35.226 34.786 25.707-51.754"/><path style="fill:none;stroke-width:5;stroke-linecap:round;stroke-linejoin:round;stroke:#000;stroke-opacity:1;stroke-miterlimit:10" d="M1191.287 757.86 837.926 408.925l257.87 519.148Zm0 0" transform="matrix(.09969 0 0 -.09969 .112 198.762)"/><path style="stroke:none;fill-rule:nonzero;fill:#af83a5;fill-opacity:1" d="m109.352 106.242-25.707 51.754 5.796-51.836"/><path style="fill:none;stroke-width:5;stroke-linecap:round;stroke-linejoin:round;stroke:#000;stroke-opacity:1;stroke-miterlimit:10" d="m1095.796 928.074-257.87-519.148 58.149 519.971Zm0 0" transform="matrix(.09969 0 0 -.09969 .112 198.762)"/><path style="stroke:none;fill-rule:nonzero;fill:#f9eba1;fill-opacity:1" d="m83.645 157.996-21.563-25.152 1.023-12.176"/><path style="fill:none;stroke-width:5;stroke-linecap:round;stroke-linejoin:round;stroke:#000;stroke-opacity:1;stroke-miterlimit:10" d="M837.926 408.926 621.63 661.232l10.267 122.136Zm0 0" transform="matrix(.09969 0 0 -.09969 .112 198.762)"/><path style="stroke:none;fill-rule:nonzero;fill:#533232;fill-opacity:1" d="m76.402 148.14 7.243 9.856 12.44-4.93"/><path style="fill:none;stroke-width:5;stroke-linecap:round;stroke-linejoin:round;stroke:#000;stroke-opacity:1;stroke-miterlimit:10" d="m765.279 507.787 72.647-98.861 124.8 49.45Zm0 0" transform="matrix(.09969 0 0 -.09969 .112 198.762)"/><path style="fill-rule:nonzero;fill:#aabce7;fill-opacity:1;stroke-width:5;stroke-linecap:round;stroke-linejoin:round;stroke:#000;stroke-opacity:1;stroke-miterlimit:10" d="m765.279 507.787 197.448-49.41-93.885-56.778" transform="matrix(.09969 0 0 -.09969 .112 198.762)"/><path style="fill-rule:nonzero;fill:#616161;fill-opacity:1;stroke-width:5;stroke-linecap:round;stroke-linejoin:round;stroke:#000;stroke-opacity:1;stroke-miterlimit:10" d="m665.477 610.096 172.449-201.17-72.647 98.861" transform="matrix(.09969 0 0 -.09969 .112 198.762)"/><path style="fill-rule:nonzero;fill:#aabce7;fill-opacity:1;stroke-width:5;stroke-linecap:round;stroke-linejoin:round;stroke:#000;stroke-opacity:1;stroke-miterlimit:10" d="M868.842 401.599 449.456 148.117l315.823 359.67" transform="matrix(.09969 0 0 -.09969 .112 198.762)"/><path style="fill-rule:nonzero;fill:#616161;fill-opacity:1;stroke-width:5;stroke-linecap:round;stroke-linejoin:round;stroke:#000;stroke-opacity:1;stroke-miterlimit:10" d="M765.279 507.787 621.63 661.232l43.847-51.136" transform="matrix(.09969 0 0 -.09969 .112 198.762)"/><path style="stroke:none;fill-rule:nonzero;fill:#aabce7;fill-opacity:1" d="m168.578 109.246-43.422 26.246-6.285-12.281"/><path style="fill:none;stroke-width:5;stroke-linecap:round;stroke-linejoin:round;stroke:#000;stroke-opacity:1;stroke-miterlimit:10" d="m1689.903 897.942-435.57-263.277-63.046 123.194Zm0 0" transform="matrix(.09969 0 0 -.09969 .112 198.762)"/><path style="stroke:none;fill-rule:nonzero;fill:#beaec9;fill-opacity:1" d="m168.578 109.246-49.707 13.965-9.52-16.969"/><path style="fill:none;stroke-width:5;stroke-linecap:round;stroke-linejoin:round;stroke:#000;stroke-opacity:1;stroke-miterlimit:10" d="m1689.903 897.942-498.616-140.083-95.491 170.215Zm0 0" transform="matrix(.09969 0 0 -.09969 .112 198.762)"/><path style="stroke:none;fill-rule:nonzero;fill:#b07590;fill-opacity:1" d="m168.578 109.246-49.25-20.355 6.567-15.95"/><path style="fill:none;stroke-width:5;stroke-linecap:round;stroke-linejoin:round;stroke:#000;stroke-opacity:1;stroke-miterlimit:10" d="M1689.903 897.942 1195.87 1102.13l65.869 159.988Zm0 0" transform="matrix(.09969 0 0 -.09969 .112 198.762)"/><path style="fill-rule:nonzero;fill:#4fa3f7;fill-opacity:1;stroke-width:5;stroke-linecap:round;stroke-linejoin:round;stroke:#000;stroke-opacity:1;stroke-miterlimit:10" d="m1340.852 686.936 349.05 211.006-254.029-223.427" transform="matrix(.09969 0 0 -.09969 .112 198.762)"/><path style="stroke:none;fill-rule:nonzero;fill:#9f1c00;fill-opacity:1" d="m168.578 109.246-15.32 11.012-10.004 11.262"/><path style="fill:none;stroke-width:5;stroke-linecap:round;stroke-linejoin:round;stroke:#000;stroke-opacity:1;stroke-miterlimit:10" d="m1689.903 897.942-153.68-110.46-100.35-112.967Zm0 0" transform="matrix(.09969 0 0 -.09969 .112 198.762)"/><path style="stroke:none;fill-rule:nonzero;fill:#524aaa;fill-opacity:1" d="m143.254 131.52 10.004-11.262-2.645 12.226"/><path style="fill:none;stroke-width:5;stroke-linecap:round;stroke-linejoin:round;stroke:#000;stroke-opacity:1;stroke-miterlimit:10" d="m1435.873 674.515 100.35 112.967" transform="matrix(.09969 0 0 -.09969 .112 198.762)"/><path style="stroke:none;fill-rule:nonzero;fill:#524aaa;fill-opacity:1" d="m146.637 150.895-3.383-19.375 7.36.964"/><path style="fill:none;stroke-width:5;stroke-linecap:round;stroke-linejoin:round;stroke:#000;stroke-opacity:1;stroke-miterlimit:10" d="m1469.807 480.162-33.934 194.353" transform="matrix(.09969 0 0 -.09969 .112 198.762)"/><path style="fill-rule:nonzero;fill:#4fa3f7;fill-opacity:1;stroke-width:5;stroke-linecap:round;stroke-linejoin:round;stroke:#000;stroke-opacity:1;stroke-miterlimit:10" d="m1435.873 674.515-181.54-39.85 86.52 52.271" transform="matrix(.09969 0 0 -.09969 .112 198.762)"/><path style="stroke:none;fill-rule:nonzero;fill:#333;fill-opacity:1" d="M168.578 109.246 143.684 74.11l9.777 6.016"/><path style="fill:none;stroke-width:5;stroke-linecap:round;stroke-linejoin:round;stroke:#000;stroke-opacity:1;stroke-miterlimit:10" d="m1689.903 897.942-249.72 352.46 98.078-60.344Zm0 0" transform="matrix(.09969 0 0 -.09969 .112 198.762)"/><path style="stroke:none;fill-rule:nonzero;fill:#833460;fill-opacity:1" d="m168.578 109.246-42.683-36.305 17.789 1.168"/><path style="fill:none;stroke-width:5;stroke-linecap:round;stroke-linejoin:round;stroke:#000;stroke-opacity:1;stroke-miterlimit:10" d="m1689.903 897.942-428.163 364.176 178.444-11.716Zm0 0" transform="matrix(.09969 0 0 -.09969 .112 198.762)"/><path style="stroke:none;fill-rule:nonzero;fill:#be97ae;fill-opacity:1" d="m168.578 109.246-59.226-3.004 9.976-17.351"/><path style="fill:none;stroke-width:5;stroke-linecap:round;stroke-linejoin:round;stroke:#000;stroke-opacity:1;stroke-miterlimit:10" d="m1689.903 897.942-594.107 30.132 100.075 174.056Zm0 0" transform="matrix(.09969 0 0 -.09969 .112 198.762)"/><path style="fill-rule:nonzero;fill:#e4e275;fill-opacity:1;stroke-width:5;stroke-linecap:round;stroke-linejoin:round;stroke:#000;stroke-opacity:1;stroke-miterlimit:10" d="m1597.742 986.498 92.16-88.556-120.882 232.87" transform="matrix(.09969 0 0 -.09969 .112 198.762)"/><path style="stroke:none;fill-rule:nonzero;fill:#f8ac46;fill-opacity:1" d="m168.578 109.246-9.187-8.828-6.133 19.84"/><path style="fill:none;stroke-width:5;stroke-linecap:round;stroke-linejoin:round;stroke:#000;stroke-opacity:1;stroke-miterlimit:10" d="m1689.903 897.942-92.16 88.556-61.52-199.016Zm0 0" transform="matrix(.09969 0 0 -.09969 .112 198.762)"/><path style="fill-rule:nonzero;fill:#6d71c6;fill-opacity:1;stroke-width:5;stroke-linecap:round;stroke-linejoin:round;stroke:#000;stroke-opacity:1;stroke-miterlimit:10" d="m1597.742 986.498 440.702 73.235-410.922-222.761" transform="matrix(.09969 0 0 -.09969 .112 198.762)"/><path style="fill-rule:nonzero;fill:#6d71c6;fill-opacity:1;stroke-width:5;stroke-linecap:round;stroke-linejoin:round;stroke:#000;stroke-opacity:1;stroke-miterlimit:10" d="m1627.522 836.972-91.299-49.49 61.52 199.016" transform="matrix(.09969 0 0 -.09969 .112 198.762)"/><path style="fill-rule:nonzero;fill:#e4e275;fill-opacity:1;stroke-width:5;stroke-linecap:round;stroke-linejoin:round;stroke:#000;stroke-opacity:1;stroke-miterlimit:10" d="m1569.02 1130.812-30.759 59.246 59.481-203.56" transform="matrix(.09969 0 0 -.09969 .112 198.762)"/><path style="fill-rule:nonzero;fill:#ecd0b9;fill-opacity:1;stroke-width:5;stroke-linecap:round;stroke-linejoin:round;stroke:#000;stroke-opacity:1;stroke-miterlimit:10" d="m745.844 1031.324-28.213-84.089-76.409 186.007" transform="matrix(.09969 0 0 -.09969 .112 198.762)"/><path style="stroke:none;fill-rule:nonzero;fill:#beaec9;fill-opacity:1" d="m8.79 101.145 62.862 3.187-8.547 16.336"/><path style="fill:none;stroke-width:5;stroke-linecap:round;stroke-linejoin:round;stroke:#000;stroke-opacity:1;stroke-miterlimit:10" d="m87.043 979.21 630.588-31.975-85.734-163.867Zm0 0" transform="matrix(.09969 0 0 -.09969 .112 198.762)"/><path style="stroke:none;fill-rule:nonzero;fill:#be97ae;fill-opacity:1" d="M71.652 104.332 8.79 101.145l55.246-15.356"/><path style="fill:none;stroke-width:5;stroke-linecap:round;stroke-linejoin:round;stroke:#000;stroke-opacity:1;stroke-miterlimit:10" d="M717.631 947.235 87.043 979.21l554.18 154.033Zm0 0" transform="matrix(.09969 0 0 -.09969 .112 198.762)"/><path style="stroke:none;fill-rule:nonzero;fill:#9377b1;fill-opacity:1" d="M153.785 16.785 143.684 74.11l-17.79-1.168"/><path style="fill:none;stroke-width:5;stroke-linecap:round;stroke-linejoin:round;stroke:#000;stroke-opacity:1;stroke-miterlimit:10" d="m1541.513 1825.426-101.33-575.024-178.443 11.716Zm0 0" transform="matrix(.09969 0 0 -.09969 .112 198.762)"/><path style="fill-rule:nonzero;fill:#af83a5;fill-opacity:1;stroke-width:5;stroke-linecap:round;stroke-linejoin:round;stroke:#000;stroke-opacity:1;stroke-miterlimit:10" d="m1314.05 1367.483-52.31-105.365-126.33 158.029" transform="matrix(.09969 0 0 -.09969 .112 198.762)"/><path style="stroke:none;fill-rule:nonzero;fill:#c2808b;fill-opacity:1" d="m8.79 101.145 54.995-31.997.25 16.641"/><path style="fill:none;stroke-width:5;stroke-linecap:round;stroke-linejoin:round;stroke:#000;stroke-opacity:1;stroke-miterlimit:10" d="m87.043 979.21 551.672 320.955 2.507-166.923Zm0 0" transform="matrix(.09969 0 0 -.09969 .112 198.762)"/><path style="stroke:none;fill-rule:nonzero;fill:#c2808b;fill-opacity:1" d="m153.785 16.785-40.484 40.403-15.285-7.954"/><path style="fill:none;stroke-width:5;stroke-linecap:round;stroke-linejoin:round;stroke:#000;stroke-opacity:1;stroke-miterlimit:10" d="m1541.513 1825.426-406.102-405.28-153.327 79.78Zm0 0" transform="matrix(.09969 0 0 -.09969 .112 198.762)"/><path style="fill-rule:nonzero;fill:#af83a5;fill-opacity:1;stroke-width:5;stroke-linecap:round;stroke-linejoin:round;stroke:#000;stroke-opacity:1;stroke-miterlimit:10" d="m1135.41 1420.147 406.103 405.28-227.463-457.944" transform="matrix(.09969 0 0 -.09969 .112 198.762)"/><path style="stroke:none;fill-rule:nonzero;fill:#c1d2e7;fill-opacity:1" d="m8.79 101.145 54.315 19.523-1.023 12.176"/><path style="fill:none;stroke-width:5;stroke-linecap:round;stroke-linejoin:round;stroke:#000;stroke-opacity:1;stroke-miterlimit:10" d="m87.043 979.21 544.854-195.842-10.267-122.136Zm0 0" transform="matrix(.09969 0 0 -.09969 .112 198.762)"/><path style="fill-rule:nonzero;fill:#eec148;fill-opacity:1;stroke-width:5;stroke-linecap:round;stroke-linejoin:round;stroke:#000;stroke-opacity:1;stroke-miterlimit:10" d="m492.911 715.501-43.455-567.384 17.045 559.548" transform="matrix(.09969 0 0 -.09969 .112 198.762)"/><path style="fill-rule:nonzero;fill:#8dedce;fill-opacity:1;stroke-width:5;stroke-linecap:round;stroke-linejoin:round;stroke:#000;stroke-opacity:1;stroke-miterlimit:10" d="M492.911 715.501 87.043 979.21 517.91 722.946" transform="matrix(.09969 0 0 -.09969 .112 198.762)"/><path style="stroke:none;fill-rule:nonzero;fill:#440648;fill-opacity:1" d="m8.79 101.145 40.46 26.289-2.238-12.172"/><path style="fill:none;stroke-width:5;stroke-linecap:round;stroke-linejoin:round;stroke:#000;stroke-opacity:1;stroke-miterlimit:10" d="M87.043 979.21 492.911 715.5 470.459 837.6Zm0 0" transform="matrix(.09969 0 0 -.09969 .112 198.762)"/><path style="fill-rule:nonzero;fill:#eec148;fill-opacity:1;stroke-width:5;stroke-linecap:round;stroke-linejoin:round;stroke:#000;stroke-opacity:1;stroke-miterlimit:10" d="m466.501 707.665 3.958 129.934L492.91 715.5" transform="matrix(.09969 0 0 -.09969 .112 198.762)"/><path style="fill-rule:nonzero;fill:#8dedce;fill-opacity:1;stroke-width:5;stroke-linecap:round;stroke-linejoin:round;stroke:#000;stroke-opacity:1;stroke-miterlimit:10" d="m517.91 722.946 103.72-61.714-128.719 54.27" transform="matrix(.09969 0 0 -.09969 .112 198.762)"/><path style="fill-rule:nonzero;fill:#c55535;fill-opacity:1;stroke-width:5;stroke-linecap:round;stroke-linejoin:round;stroke:#000;stroke-opacity:1;stroke-miterlimit:10" d="m510.583 1307.218 128.132-7.053-105.719-61.518" transform="matrix(.09969 0 0 -.09969 .112 198.762)"/><path style="fill-rule:nonzero;fill:#c55535;fill-opacity:1;stroke-width:5;stroke-linecap:round;stroke-linejoin:round;stroke:#000;stroke-opacity:1;stroke-miterlimit:10" d="M532.996 1238.647 87.043 979.209l423.54 328.01" transform="matrix(.09969 0 0 -.09969 .112 198.762)"/><path style="stroke:none;fill-rule:nonzero;fill:#0046c2;fill-opacity:1" d="m8.79 101.145 39.483-27.27 2.739-5.43"/><path style="fill:none;stroke-width:5;stroke-linecap:round;stroke-linejoin:round;stroke:#000;stroke-opacity:1;stroke-miterlimit:10" d="m87.043 979.21 396.072 273.543 27.468 54.465Zm0 0" transform="matrix(.09969 0 0 -.09969 .112 198.762)"/><path style="fill-rule:nonzero;fill:#eec148;fill-opacity:1;stroke-width:5;stroke-linecap:round;stroke-linejoin:round;stroke:#000;stroke-opacity:1;stroke-miterlimit:10" d="m510.583 1307.218-27.468-54.465 3.84 126.642" transform="matrix(.09969 0 0 -.09969 .112 198.762)"/><path style="fill-rule:nonzero;fill:#eec148;fill-opacity:1;stroke-width:5;stroke-linecap:round;stroke-linejoin:round;stroke:#000;stroke-opacity:1;stroke-miterlimit:10" d="m486.955 1379.395 16.065 527.965 7.563-600.142" transform="matrix(.09969 0 0 -.09969 .112 198.762)"/><path style="stroke:none;fill-rule:nonzero;fill:#65489a;fill-opacity:1" d="M41.191 94.121 8.79 101.145l38.223 14.117"/><path style="fill:none;stroke-width:5;stroke-linecap:round;stroke-linejoin:round;stroke:#000;stroke-opacity:1;stroke-miterlimit:10" d="M412.074 1049.662 87.044 979.21 470.458 837.6Zm0 0" transform="matrix(.09969 0 0 -.09969 .112 198.762)"/><path style="fill-rule:nonzero;fill:#f9eba1;fill-opacity:1;stroke-width:5;stroke-linecap:round;stroke-linejoin:round;stroke:#000;stroke-opacity:1;stroke-miterlimit:10" d="M412.074 1049.662 470.46 837.6l-49.842 58.149" transform="matrix(.09969 0 0 -.09969 .112 198.762)"/><path style="fill-rule:nonzero;fill:#5665c5;fill-opacity:1;stroke-width:5;stroke-linecap:round;stroke-linejoin:round;stroke:#000;stroke-opacity:1;stroke-miterlimit:10" d="M403.807 1197.974 87.043 979.209l325.031 70.453" transform="matrix(.09969 0 0 -.09969 .112 198.762)"/><path style="fill-rule:nonzero;fill:#f9eba1;fill-opacity:1;stroke-width:5;stroke-linecap:round;stroke-linejoin:round;stroke:#000;stroke-opacity:1;stroke-miterlimit:10" d="m420.617 895.748-229.658 267.979 221.115-114.065" transform="matrix(.09969 0 0 -.09969 .112 198.762)"/><path style="fill-rule:nonzero;fill:#5665c5;fill-opacity:1;stroke-width:5;stroke-linecap:round;stroke-linejoin:round;stroke:#000;stroke-opacity:1;stroke-miterlimit:10" d="m412.074 1049.662 71.041 203.09-79.308-54.778" transform="matrix(.09969 0 0 -.09969 .112 198.762)"/><path style="stroke:none;fill-rule:nonzero;fill:#ada9d3;fill-opacity:1" d="m125.156 135.492 27.762 51.375-40.984-37.39"/><path style="fill:none;stroke-width:5;stroke-linecap:round;stroke-linejoin:round;stroke:#000;stroke-opacity:1;stroke-miterlimit:10" d="m1254.334 634.665 278.48-515.348-411.118 375.07Zm0 0" transform="matrix(.09969 0 0 -.09969 .112 198.762)"/><path style="stroke:none;fill-rule:nonzero;fill:#9085c3;fill-opacity:1" d="m152.918 186.867-27.762-51.375 18.098-3.972"/><path style="fill:none;stroke-width:5;stroke-linecap:round;stroke-linejoin:round;stroke:#000;stroke-opacity:1;stroke-miterlimit:10" d="m1532.814 119.317-278.48 515.348 181.54 39.85Zm0 0" transform="matrix(.09969 0 0 -.09969 .112 198.762)"/><path style="fill-rule:nonzero;fill:#b07590;fill-opacity:1;stroke-width:5;stroke-linecap:round;stroke-linejoin:round;stroke:#000;stroke-opacity:1;stroke-miterlimit:10" d="m893.214 1575.55 88.87-75.625-195.058-56.895M787.026 1443.03 503.02 1907.36l390.194-331.81" transform="matrix(.09969 0 0 -.09969 .112 198.762)"/><path style="stroke:none;fill-rule:nonzero;fill:#cb97a0;fill-opacity:1" d="M63.785 69.148 50.258 8.618 78.57 54.905"/><path style="fill:none;stroke-width:5;stroke-linecap:round;stroke-linejoin:round;stroke:#000;stroke-opacity:1;stroke-miterlimit:10" d="M638.715 1300.165 503.02 1907.36l284.006-464.33Zm0 0" transform="matrix(.09969 0 0 -.09969 .112 198.762)"/><path style="stroke:none;fill-rule:nonzero;fill:#524aaa;fill-opacity:1" d="m153.785 16.785-.324 63.34-9.777-6.016"/><path style="fill:none;stroke-width:5;stroke-linecap:round;stroke-linejoin:round;stroke:#000;stroke-opacity:1;stroke-miterlimit:10" d="m1541.513 1825.426-3.252-635.368-98.077 60.344Zm0 0" transform="matrix(.09969 0 0 -.09969 .112 198.762)"/><path style="stroke:none;fill-rule:nonzero;fill:#e9b9a1;fill-opacity:1" d="m51.012 68.445-.754-59.828 13.527 60.531"/><path style="fill:none;stroke-width:5;stroke-linecap:round;stroke-linejoin:round;stroke:#000;stroke-opacity:1;stroke-miterlimit:10" d="m510.583 1307.218-7.563 600.142 135.695-607.195Zm0 0" transform="matrix(.09969 0 0 -.09969 .112 198.762)"/><path style="fill-rule:nonzero;fill:#575757;fill-opacity:1;stroke-width:5;stroke-linecap:round;stroke-linejoin:round;stroke:#000;stroke-opacity:1;stroke-miterlimit:10" d="M1025.852 1607.329 503.02 1907.36l456.886-252.227" transform="matrix(.09969 0 0 -.09969 .112 198.762)"/><path style="fill-rule:nonzero;fill:#c55535;fill-opacity:1;stroke-width:5;stroke-linecap:round;stroke-linejoin:round;stroke:#000;stroke-opacity:1;stroke-miterlimit:10" d="m1025.852 1607.329 515.661 218.097-452.927-263.55" transform="matrix(.09969 0 0 -.09969 .112 198.762)"/><path style="stroke:none;fill-rule:nonzero;fill:#0f89e3;fill-opacity:1" d="M153.785 16.785 102.38 38.527l4.398 1.29"/><path style="fill:none;stroke-width:5;stroke-linecap:round;stroke-linejoin:round;stroke:#000;stroke-opacity:1;stroke-miterlimit:10" d="m1541.513 1825.426-515.66-218.097 44.12-12.931Zm0 0" transform="matrix(.09969 0 0 -.09969 .112 198.762)"/><path style="fill-rule:nonzero;fill:#575757;fill-opacity:1;stroke-width:5;stroke-linecap:round;stroke-linejoin:round;stroke:#000;stroke-opacity:1;stroke-miterlimit:10" d="m959.906 1655.133 110.067-60.735-44.12 12.93" transform="matrix(.09969 0 0 -.09969 .112 198.762)"/><path style="fill-rule:nonzero;fill:#c55535;fill-opacity:1;stroke-width:5;stroke-linecap:round;stroke-linejoin:round;stroke:#000;stroke-opacity:1;stroke-miterlimit:10" d="m1088.586 1561.875-106.502-61.95 43.768 107.404" transform="matrix(.09969 0 0 -.09969 .112 198.762)"/><path style="stroke:none;fill-rule:nonzero;fill:#833460;fill-opacity:1" d="m50.258 8.617 52.12 29.91-4.362 10.707"/><path style="fill:none;stroke-width:5;stroke-linecap:round;stroke-linejoin:round;stroke:#000;stroke-opacity:1;stroke-miterlimit:10" d="m503.02 1907.36 522.832-300.031-43.768-107.404Zm0 0" transform="matrix(.09969 0 0 -.09969 .112 198.762)"/><path style="fill-rule:nonzero;fill:#454551;fill-opacity:1;stroke-width:5;stroke-linecap:round;stroke-linejoin:round;stroke:#000;stroke-opacity:1;stroke-miterlimit:10" d="m1538.927 1312.94 2.586 512.486.862-503.435" transform="matrix(.09969 0 0 -.09969 .112 198.762)"/><path style="stroke:none;fill-rule:nonzero;fill:#f4dcb4;fill-opacity:1" d="M153.785 16.785 142.887 59.75l10.984 7.223"/><path style="fill:none;stroke-width:5;stroke-linecap:round;stroke-linejoin:round;stroke:#000;stroke-opacity:1;stroke-miterlimit:10" d="m1541.513 1825.426-109.323-430.984 110.185-72.451Zm0 0" transform="matrix(.09969 0 0 -.09969 .112 198.762)"/><path style="fill-rule:nonzero;fill:#575757;fill-opacity:1;stroke-width:5;stroke-linecap:round;stroke-linejoin:round;stroke:#000;stroke-opacity:1;stroke-miterlimit:10" d="m1542.375 1321.99-110.185 72.452 113.83-62.851" transform="matrix(.09969 0 0 -.09969 .112 198.762)"/><path style="fill-rule:nonzero;fill:#575757;fill-opacity:1;stroke-width:5;stroke-linecap:round;stroke-linejoin:round;stroke:#000;stroke-opacity:1;stroke-miterlimit:10" d="m1546.02 1331.59 492.424-271.857-496.069 262.258" transform="matrix(.09969 0 0 -.09969 .112 198.762)"/><path style="fill-rule:nonzero;fill:#454551;fill-opacity:1;stroke-width:5;stroke-linecap:round;stroke-linejoin:round;stroke:#000;stroke-opacity:1;stroke-miterlimit:10" d="m1542.375 1321.99-4.114-131.932.666 122.881" transform="matrix(.09969 0 0 -.09969 .112 198.762)"/><path style="stroke:none;fill-rule:nonzero;fill:#cfcdd7;fill-opacity:1" d="m142.887 59.75 10.898-42.965-26.242 27.176"/><path style="fill:none;stroke-width:5;stroke-linecap:round;stroke-linejoin:round;stroke:#000;stroke-opacity:1;stroke-miterlimit:10" d="m1432.19 1394.442 109.323 430.984-263.238-272.602Zm0 0" transform="matrix(.09969 0 0 -.09969 .112 198.762)"/><path style="fill-rule:nonzero;fill:#a4c3ef;fill-opacity:1;stroke-width:5;stroke-linecap:round;stroke-linejoin:round;stroke:#000;stroke-opacity:1;stroke-miterlimit:10" d="m1278.275 1552.824 263.238 272.602-377.655-185.026" transform="matrix(.09969 0 0 -.09969 .112 198.762)"/><path style="fill-rule:nonzero;fill:#333;fill-opacity:1;stroke-width:5;stroke-linecap:round;stroke-linejoin:round;stroke:#000;stroke-opacity:1;stroke-miterlimit:10" d="m1278.275 1552.824-42.397 219.822 161.32-310.808" transform="matrix(.09969 0 0 -.09969 .112 198.762)"/><path style="fill-rule:nonzero;fill:#333;fill-opacity:1;stroke-width:5;stroke-linecap:round;stroke-linejoin:round;stroke:#000;stroke-opacity:1;stroke-miterlimit:10" d="m1397.199 1461.838 34.991-67.396-153.915 158.382" transform="matrix(.09969 0 0 -.09969 .112 198.762)"/><path style="fill-rule:nonzero;fill:#a4c3ef;fill-opacity:1;stroke-width:5;stroke-linecap:round;stroke-linejoin:round;stroke:#000;stroke-opacity:1;stroke-miterlimit:10" d="m1163.858 1640.4-93.885-46.002 208.302-41.574" transform="matrix(.09969 0 0 -.09969 .112 198.762)"/><path style="stroke:none;fill-rule:nonzero;fill:#ccc4d2;fill-opacity:1" d="m44.918 183.996 17.164-51.152 14.32 15.297"/><path style="fill:none;stroke-width:5;stroke-linecap:round;stroke-linejoin:round;stroke:#000;stroke-opacity:1;stroke-miterlimit:10" d="M449.456 148.117 621.63 661.232 765.28 507.787Zm0 0" transform="matrix(.09969 0 0 -.09969 .112 198.762)"/><path style="stroke:none;fill-rule:nonzero;fill:#ecd0b9;fill-opacity:1" d="m44.918 183.996 4.332-56.562 12.832 5.41"/><path style="fill:none;stroke-width:5;stroke-linecap:round;stroke-linejoin:round;stroke:#000;stroke-opacity:1;stroke-miterlimit:10" d="m449.456 148.117 43.455 567.384 128.72-54.27Zm0 0" transform="matrix(.09969 0 0 -.09969 .112 198.762)"/><path style="stroke:none;fill-rule:nonzero;fill:#601e63;fill-opacity:1" d="m203.324 93.117-49.863-12.992.41-13.152"/><path style="fill:none;stroke-width:5;stroke-linecap:round;stroke-linejoin:round;stroke:#000;stroke-opacity:1;stroke-miterlimit:10" d="m2038.444 1059.733-500.183 130.325 4.114 131.933Zm0 0" transform="matrix(.09969 0 0 -.09969 .112 198.762)"/><path style="stroke:none;fill-rule:nonzero;fill:#7658a1;fill-opacity:1" d="m203.324 93.117-43.933 7.301-5.93-20.293"/><path style="fill:none;stroke-width:5;stroke-linecap:round;stroke-linejoin:round;stroke:#000;stroke-opacity:1;stroke-miterlimit:10" d="m2038.444 1059.733-440.702-73.235-59.481 203.56Zm0 0" transform="matrix(.09969 0 0 -.09969 .112 198.762)"/><path style="fill-rule:nonzero;fill:#524aaa;fill-opacity:1;stroke-width:5;stroke-linecap:round;stroke-linejoin:round;stroke:#000;stroke-opacity:1;stroke-miterlimit:10" d="m1536.223 787.482-3.409-668.165-63.007 360.845" transform="matrix(.09969 0 0 -.09969 .112 198.762)"/><path style="fill-rule:nonzero;fill:#8dedce;fill-opacity:1;stroke-width:5;stroke-linecap:round;stroke-linejoin:round;stroke:#000;stroke-opacity:1;stroke-miterlimit:10" d="m1004.85 410.61-42.123 47.766 107.129-63.713" transform="matrix(.09969 0 0 -.09969 .112 198.762)"/><path style="stroke:none;fill-rule:nonzero;fill:#4fa3f7;fill-opacity:1" d="m44.918 183.996 51.168-30.93 4.2 4.762"/><path style="fill:none;stroke-width:5;stroke-linecap:round;stroke-linejoin:round;stroke:#000;stroke-opacity:1;stroke-miterlimit:10" d="m449.456 148.117 513.27 310.26 42.124-47.766Zm0 0" transform="matrix(.09969 0 0 -.09969 .112 198.762)"/><path style="fill-rule:nonzero;fill:#b73300;fill-opacity:1;stroke-width:5;stroke-linecap:round;stroke-linejoin:round;stroke:#000;stroke-opacity:1;stroke-miterlimit:10" d="m1004.85 410.61 46.942 83.07-115.475-66.26" transform="matrix(.09969 0 0 -.09969 .112 198.762)"/><path style="fill-rule:nonzero;fill:#b73300;fill-opacity:1;stroke-width:5;stroke-linecap:round;stroke-linejoin:round;stroke:#000;stroke-opacity:1;stroke-miterlimit:10" d="M936.317 427.42 449.456 148.118l555.394 262.494" transform="matrix(.09969 0 0 -.09969 .112 198.762)"/><path style="fill-rule:nonzero;fill:#8dedce;fill-opacity:1;stroke-width:5;stroke-linecap:round;stroke-linejoin:round;stroke:#000;stroke-opacity:1;stroke-miterlimit:10" d="m1069.856 394.663 462.958-275.346-527.964 291.294" transform="matrix(.09969 0 0 -.09969 .112 198.762)"/><path style="stroke:none;fill-rule:nonzero;fill:#2270df;fill-opacity:1" d="m203.324 93.117-49.758 34.168-.308-7.027"/><path style="fill:none;stroke-width:5;stroke-linecap:round;stroke-linejoin:round;stroke:#000;stroke-opacity:1;stroke-miterlimit:10" d="M2038.444 1059.733 1539.32 716.99l-3.096 70.492Zm0 0" transform="matrix(.09969 0 0 -.09969 .112 198.762)"/><path style="fill-rule:nonzero;fill:#b73300;fill-opacity:1;stroke-width:5;stroke-linecap:round;stroke-linejoin:round;stroke:#000;stroke-opacity:1;stroke-miterlimit:10" d="m1539.319 716.99 499.125 342.743-495.167-284.123" transform="matrix(.09969 0 0 -.09969 .112 198.762)"/><path style="fill-rule:nonzero;fill:#454551;fill-opacity:1;stroke-width:5;stroke-linecap:round;stroke-linejoin:round;stroke:#000;stroke-opacity:1;stroke-miterlimit:10" d="m1535.557 661.467.666 126.015 3.096-70.492" transform="matrix(.09969 0 0 -.09969 .112 198.762)"/><path style="fill-rule:nonzero;fill:#b73300;fill-opacity:1;stroke-width:5;stroke-linecap:round;stroke-linejoin:round;stroke:#000;stroke-opacity:1;stroke-miterlimit:10" d="M1543.277 775.61 1426.9 708.88l112.419 8.11" transform="matrix(.09969 0 0 -.09969 .112 198.762)"/><path style="fill-rule:nonzero;fill:#454551;fill-opacity:1;stroke-width:5;stroke-linecap:round;stroke-linejoin:round;stroke:#000;stroke-opacity:1;stroke-miterlimit:10" d="m1539.319 716.99-6.505-597.673 2.743 542.15" transform="matrix(.09969 0 0 -.09969 .112 198.762)"/><path style="fill-rule:nonzero;fill:#2f2f9f;fill-opacity:1;stroke-width:5;stroke-linecap:round;stroke-linejoin:round;stroke:#000;stroke-opacity:1;stroke-miterlimit:10" d="m566.46 1383.94-63.44 523.42-16.065-527.965" transform="matrix(.09969 0 0 -.09969 .112 198.762)"/><path style="stroke:none;fill-rule:nonzero;fill:#8882c5;fill-opacity:1" d="m50.258 8.617 6.324 52.18 18.559-5.48"/><path style="fill:none;stroke-width:5;stroke-linecap:round;stroke-linejoin:round;stroke:#000;stroke-opacity:1;stroke-miterlimit:10" d="m503.02 1907.36 63.44-523.42 186.162 54.976Zm0 0" transform="matrix(.09969 0 0 -.09969 .112 198.762)"/><path style="fill-rule:nonzero;fill:#0046c2;fill-opacity:1;stroke-width:5;stroke-linecap:round;stroke-linejoin:round;stroke:#000;stroke-opacity:1;stroke-miterlimit:10" d="m901.521 1579.194-148.899-140.278 87.577 60.5" transform="matrix(.09969 0 0 -.09969 .112 198.762)"/><path style="fill-rule:nonzero;fill:#bedeef;fill-opacity:1;stroke-width:5;stroke-linecap:round;stroke-linejoin:round;stroke:#000;stroke-opacity:1;stroke-miterlimit:10" d="m901.521 1579.194 168.452 15.204-110.067 60.735" transform="matrix(.09969 0 0 -.09969 .112 198.762)"/><path style="stroke:none;fill-rule:nonzero;fill:#8b0707;fill-opacity:1" d="m123.316 22.047-16.539 17.77-16.793 1.515"/><path style="fill:none;stroke-width:5;stroke-linecap:round;stroke-linejoin:round;stroke:#000;stroke-opacity:1;stroke-miterlimit:10" d="m1235.878 1772.646-165.905-178.248-168.452-15.204Zm0 0" transform="matrix(.09969 0 0 -.09969 .112 198.762)"/><path style="fill-rule:nonzero;fill:#0046c2;fill-opacity:1;stroke-width:5;stroke-linecap:round;stroke-linejoin:round;stroke:#000;stroke-opacity:1;stroke-miterlimit:10" d="m840.199 1499.416 395.68 273.23-334.358-193.452" transform="matrix(.09969 0 0 -.09969 .112 198.762)"/><path style="fill-rule:nonzero;fill:#bedeef;fill-opacity:1;stroke-width:5;stroke-linecap:round;stroke-linejoin:round;stroke:#000;stroke-opacity:1;stroke-miterlimit:10" d="M959.906 1655.133 503.02 1907.36l398.501-328.166" transform="matrix(.09969 0 0 -.09969 .112 198.762)"/><path style="stroke:none;fill-rule:nonzero;fill:#abacd8;fill-opacity:1" d="M89.984 41.332 50.258 8.617l24.883 46.7"/><path style="fill:none;stroke-width:5;stroke-linecap:round;stroke-linejoin:round;stroke:#000;stroke-opacity:1;stroke-miterlimit:10" d="m901.521 1579.194-398.5 328.166 249.601-468.444Zm0 0" transform="matrix(.09969 0 0 -.09969 .112 198.762)"/><path style="stroke:none;fill-rule:nonzero;fill:#701544;fill-opacity:1" d="m152.918 186.867-47.953-37.32-4.68 8.281"/><path style="fill:none;stroke-width:5;stroke-linecap:round;stroke-linejoin:round;stroke:#000;stroke-opacity:1;stroke-miterlimit:10" d="m1532.814 119.317-481.022 374.364-46.942-83.07Zm0 0" transform="matrix(.09969 0 0 -.09969 .112 198.762)"/><path style="stroke:none;fill-rule:nonzero;fill:#ce989c;fill-opacity:1" d="m126.398 143.98 26.52 42.887-10.559-58.773"/><path style="fill:none;stroke-width:5;stroke-linecap:round;stroke-linejoin:round;stroke:#000;stroke-opacity:1;stroke-miterlimit:10" d="m1266.794 549.518 266.02-430.2L1426.9 708.878Zm0 0" transform="matrix(.09969 0 0 -.09969 .112 198.762)"/><path style="stroke:none;fill-rule:nonzero;fill:#f2bf98;fill-opacity:1" d="m152.918 186.867.648-59.582-11.207.809"/><path style="fill:none;stroke-width:5;stroke-linecap:round;stroke-linejoin:round;stroke:#000;stroke-opacity:1;stroke-miterlimit:10" d="m1532.814 119.317 6.505 597.673-112.419-8.11Zm0 0" transform="matrix(.09969 0 0 -.09969 .112 198.762)"/><path style="stroke:none;fill-rule:nonzero;fill:#ae6e88;fill-opacity:1" d="m152.918 186.867-26.52-42.887-21.433 5.567"/><path style="fill:none;stroke-width:5;stroke-linecap:round;stroke-linejoin:round;stroke:#000;stroke-opacity:1;stroke-miterlimit:10" d="m1532.814 119.317-266.02 430.201-215.002-55.837Zm0 0" transform="matrix(.09969 0 0 -.09969 .112 198.762)"/><path style="fill-rule:nonzero;fill:#2f2f9f;fill-opacity:1;stroke-width:5;stroke-linecap:round;stroke-linejoin:round;stroke:#000;stroke-opacity:1;stroke-miterlimit:10" d="m486.955 1379.395-3.84-126.642 83.344 131.188" transform="matrix(.09969 0 0 -.09969 .112 198.762)"/><path style="stroke:none;fill-rule:nonzero;fill:#fab571;fill-opacity:1" d="m19.148 82.75 29.125-8.875-7.082 20.246"/><path style="fill:none;stroke-width:5;stroke-linecap:round;stroke-linejoin:round;stroke:#000;stroke-opacity:1;stroke-miterlimit:10" d="m190.96 1163.727 292.155 89.026-71.04-203.09Zm0 0" transform="matrix(.09969 0 0 -.09969 .112 198.762)"/><path style="stroke:none;fill-rule:nonzero;fill:#d05500;fill-opacity:1" d="M48.273 73.875 19.148 82.75l37.434-21.953"/><path style="fill:none;stroke-width:5;stroke-linecap:round;stroke-linejoin:round;stroke:#000;stroke-opacity:1;stroke-miterlimit:10" d="m483.115 1252.753-292.156-89.026 375.5 220.214Zm0 0" transform="matrix(.09969 0 0 -.09969 .112 198.762)"/><path style="stroke:none;fill-rule:nonzero;fill:#680c12;fill-opacity:1" d="m123.316 22.047 4.227 21.914-20.766-4.145"/><path style="fill:none;stroke-width:5;stroke-linecap:round;stroke-linejoin:round;stroke:#000;stroke-opacity:1;stroke-miterlimit:10" d="m1235.878 1772.646 42.397-219.822-208.302 41.574Zm0 0" transform="matrix(.09969 0 0 -.09969 .112 198.762)"/><path style="stroke:none;fill-rule:nonzero;fill:#2f2f9f;fill-opacity:1" d="m44.918 183.996 9.895-61.148-7.801-7.586"/><path style="fill:none;stroke-width:5;stroke-linecap:round;stroke-linejoin:round;stroke:#000;stroke-opacity:1;stroke-miterlimit:10" d="m449.456 148.117 99.253 613.386-78.25 76.096Zm0 0" transform="matrix(.09969 0 0 -.09969 .112 198.762)"/><path style="stroke:none;fill-rule:nonzero;fill:#616161;fill-opacity:1" d="m19.148 82.75 27.864 32.512 7.8 7.586"/><path style="fill:none;stroke-width:5;stroke-linecap:round;stroke-linejoin:round;stroke:#000;stroke-opacity:1;stroke-miterlimit:10" d="m190.96 1163.727 279.499-326.128 78.25-76.096Zm0 0" transform="matrix(.09969 0 0 -.09969 .112 198.762)"/><path style="stroke:none;fill-rule:nonzero;fill:#e4e275;fill-opacity:1" d="m123.316 22.047 20.625 49.281-1.054-11.578"/><path style="fill:none;stroke-width:5;stroke-linecap:round;stroke-linejoin:round;stroke:#000;stroke-opacity:1;stroke-miterlimit:10" d="M1235.878 1772.646 1442.77 1278.3l-10.58 116.141Zm0 0" transform="matrix(.09969 0 0 -.09969 .112 198.762)"/><path style="stroke:none;fill-rule:nonzero;fill:#bedeef;fill-opacity:1" d="m143.941 71.328 59.383 21.79-60.437-33.368"/><path style="fill:none;stroke-width:5;stroke-linecap:round;stroke-linejoin:round;stroke:#000;stroke-opacity:1;stroke-miterlimit:10" d="m1442.77 1278.3 595.674-218.567-606.254 334.709Zm0 0" transform="matrix(.09969 0 0 -.09969 .112 198.762)"/><path style="stroke:none;fill-rule:nonzero;fill:#0f89e3;fill-opacity:1" d="m19.148 82.75 55.993-27.434-18.559 5.48"/><path style="fill:none;stroke-width:5;stroke-linecap:round;stroke-linejoin:round;stroke:#000;stroke-opacity:1;stroke-miterlimit:10" d="m190.96 1163.727 561.662 275.189-186.163-54.975Zm0 0" transform="matrix(.09969 0 0 -.09969 .112 198.762)"/><path style="stroke:none;fill-rule:nonzero;fill:#8c72af;fill-opacity:1" d="m54.813 122.848-9.895 61.148 28.543-58.969"/><path style="fill:none;stroke-width:5;stroke-linecap:round;stroke-linejoin:round;stroke:#000;stroke-opacity:1;stroke-miterlimit:10" d="m548.709 761.503-99.253-613.386L735.773 739.64Zm0 0" transform="matrix(.09969 0 0 -.09969 .112 198.762)"/><path style="stroke:none;fill-rule:nonzero;fill:#ae81a3;fill-opacity:1" d="m73.46 125.027-28.542 58.97 42.984-41.536"/><path style="fill:none;stroke-width:5;stroke-linecap:round;stroke-linejoin:round;stroke:#000;stroke-opacity:1;stroke-miterlimit:10" d="M735.773 739.639 449.456 148.117l431.18 416.644Zm0 0" transform="matrix(.09969 0 0 -.09969 .112 198.762)"/><path style="stroke:none;fill-rule:nonzero;fill:#c47c81;fill-opacity:1" d="m87.902 142.46-42.984 41.536 60.047-34.45"/><path style="fill:none;stroke-width:5;stroke-linecap:round;stroke-linejoin:round;stroke:#000;stroke-opacity:1;stroke-miterlimit:10" d="m880.636 564.76-431.18-416.643 602.336 345.564Zm0 0" transform="matrix(.09969 0 0 -.09969 .112 198.762)"/><path style="stroke:none;fill-rule:nonzero;fill:#6c2e2e;fill-opacity:1" d="m121.797 142.875-16.832 6.672 21.433-5.567"/><path style="fill:none;stroke-width:5;stroke-linecap:round;stroke-linejoin:round;stroke:#000;stroke-opacity:1;stroke-miterlimit:10" d="m1220.636 560.607-168.844-66.926 215.002 55.837Zm0 0" transform="matrix(.09969 0 0 -.09969 .112 198.762)"/><path style="stroke:none;fill-rule:nonzero;fill:#533232;fill-opacity:1" d="m121.797 142.875-33.895-.414 17.063 7.086"/><path style="fill:none;stroke-width:5;stroke-linecap:round;stroke-linejoin:round;stroke:#000;stroke-opacity:1;stroke-miterlimit:10" d="m1220.636 560.607-340 4.154 171.156-71.08Zm0 0" transform="matrix(.09969 0 0 -.09969 .112 198.762)"/><path style="stroke:none;fill-rule:nonzero;fill:#c47c81;fill-opacity:1" d="m142.36 128.094 60.964-34.977-59.672 17.29"/><path style="fill:none;stroke-width:5;stroke-linecap:round;stroke-linejoin:round;stroke:#000;stroke-opacity:1;stroke-miterlimit:10" d="m1426.9 708.88 611.544 350.853-598.574-173.429Zm0 0" transform="matrix(.09969 0 0 -.09969 .112 198.762)"/><path style="stroke:none;fill-rule:nonzero;fill:#f8ac46;fill-opacity:1" d="m121.797 142.875 20.562-14.781 1.293-17.688"/><path style="fill:none;stroke-width:5;stroke-linecap:round;stroke-linejoin:round;stroke:#000;stroke-opacity:1;stroke-miterlimit:10" d="M1220.636 560.607 1426.9 708.88l12.97 177.425Zm0 0" transform="matrix(.09969 0 0 -.09969 .112 198.762)"/><path style="stroke:none;fill-rule:nonzero;fill:#9f1c00;fill-opacity:1" d="m121.797 142.875 4.601 1.105 15.961-15.886"/><path style="fill:none;stroke-width:5;stroke-linecap:round;stroke-linejoin:round;stroke:#000;stroke-opacity:1;stroke-miterlimit:10" d="m1220.636 560.607 46.158-11.089L1426.9 708.879Zm0 0" transform="matrix(.09969 0 0 -.09969 .112 198.762)"/><path style="stroke:none;fill-rule:nonzero;fill:#701544;fill-opacity:1" d="m19.148 82.75 35.665 40.098 18.648 2.18"/><path style="fill:none;stroke-width:5;stroke-linecap:round;stroke-linejoin:round;stroke:#000;stroke-opacity:1;stroke-miterlimit:10" d="m190.96 1163.727 357.749-402.224 187.064-21.864Zm0 0" transform="matrix(.09969 0 0 -.09969 .112 198.762)"/><path style="stroke:none;fill-rule:nonzero;fill:#5665c5;fill-opacity:1" d="m123.316 22.047-48.175 33.27 5.972 12.12"/><path style="fill:none;stroke-width:5;stroke-linecap:round;stroke-linejoin:round;stroke:#000;stroke-opacity:1;stroke-miterlimit:10" d="m1235.878 1772.646-483.256-333.73 59.913-121.588Zm0 0" transform="matrix(.09969 0 0 -.09969 .112 198.762)"/><path style="stroke:none;fill-rule:nonzero;fill:#a4c3ef;fill-opacity:1" d="m19.148 82.75 61.965-15.313-5.972-12.12"/><path style="fill:none;stroke-width:5;stroke-linecap:round;stroke-linejoin:round;stroke:#000;stroke-opacity:1;stroke-miterlimit:10" d="m190.96 1163.727 621.575 153.6-59.913 121.589Zm0 0" transform="matrix(.09969 0 0 -.09969 .112 198.762)"/><path style="stroke:none;fill-rule:nonzero;fill:#c097ad;fill-opacity:1" d="m203.324 93.117-67.933-3.824 8.261 21.113"/><path style="fill:none;stroke-width:5;stroke-linecap:round;stroke-linejoin:round;stroke:#000;stroke-opacity:1;stroke-miterlimit:10" d="m2038.444 1059.733-681.448 38.36 82.874-211.789Zm0 0" transform="matrix(.09969 0 0 -.09969 .112 198.762)"/><path style="stroke:none;fill-rule:nonzero;fill:#c0b2cd;fill-opacity:1" d="m203.324 93.117-59.383-21.789-8.55 17.965"/><path style="fill:none;stroke-width:5;stroke-linecap:round;stroke-linejoin:round;stroke:#000;stroke-opacity:1;stroke-miterlimit:10" d="M2038.444 1059.733 1442.77 1278.3l-85.774-180.207Zm0 0" transform="matrix(.09969 0 0 -.09969 .112 198.762)"/><path style="stroke:none;fill-rule:nonzero;fill:#f2bf98;fill-opacity:1" d="m143.941 71.328-20.625-49.281 12.075 67.246"/><path style="fill:none;stroke-width:5;stroke-linecap:round;stroke-linejoin:round;stroke:#000;stroke-opacity:1;stroke-miterlimit:10" d="m1442.77 1278.3-206.892 494.346 121.118-674.552Zm0 0" transform="matrix(.09969 0 0 -.09969 .112 198.762)"/><path style="stroke:none;fill-rule:nonzero;fill:#440648;fill-opacity:1" d="M121.797 142.875 73.46 125.027l14.441 17.434"/><path style="fill:none;stroke-width:5;stroke-linecap:round;stroke-linejoin:round;stroke:#000;stroke-opacity:1;stroke-miterlimit:10" d="M1220.636 560.607 735.773 739.64 880.636 564.76Zm0 0" transform="matrix(.09969 0 0 -.09969 .112 198.762)"/><path style="fill-rule:nonzero;fill:#f4dcb4;fill-opacity:1;stroke-width:5;stroke-linecap:round;stroke-linejoin:round;stroke:#000;stroke-opacity:1;stroke-miterlimit:10" d="m1365.146 775.296 74.724 111.008-82.874 211.79" transform="matrix(.09969 0 0 -.09969 .112 198.762)"/><path style="stroke:none;fill-rule:nonzero;fill:#65489a;fill-opacity:1" d="m121.797 142.875-41.582-35.637-6.754 17.79"/><path style="fill:none;stroke-width:5;stroke-linecap:round;stroke-linejoin:round;stroke:#000;stroke-opacity:1;stroke-miterlimit:10" d="M1220.636 560.607 803.522 918.082 735.773 739.64Zm0 0" transform="matrix(.09969 0 0 -.09969 .112 198.762)"/><path style="stroke:none;fill-rule:nonzero;fill:#ae6e88;fill-opacity:1" d="m19.148 82.75 54.313 42.277 6.754-17.789"/><path style="fill:none;stroke-width:5;stroke-linecap:round;stroke-linejoin:round;stroke:#000;stroke-opacity:1;stroke-miterlimit:10" d="m190.96 1163.727 544.813-424.088 67.75 178.443Zm0 0" transform="matrix(.09969 0 0 -.09969 .112 198.762)"/><path style="stroke:none;fill-rule:nonzero;fill:#cfcdd7;fill-opacity:1" d="m121.797 142.875 13.594-53.582-19.973-2.402"/><path style="fill:none;stroke-width:5;stroke-linecap:round;stroke-linejoin:round;stroke:#000;stroke-opacity:1;stroke-miterlimit:10" d="m1220.636 560.607 136.36 537.487-200.348 24.098Zm0 0" transform="matrix(.09969 0 0 -.09969 .112 198.762)"/><path style="fill-rule:nonzero;fill:#f4dcb4;fill-opacity:1;stroke-width:5;stroke-linecap:round;stroke-linejoin:round;stroke:#000;stroke-opacity:1;stroke-miterlimit:10" d="m1356.996 1098.094-136.36-537.487 144.51 214.69" transform="matrix(.09969 0 0 -.09969 .112 198.762)"/><path style="stroke:none;fill-rule:nonzero;fill:#ce989c;fill-opacity:1" d="m135.39 89.293-12.074-67.246-7.898 64.844"/><path style="fill:none;stroke-width:5;stroke-linecap:round;stroke-linejoin:round;stroke:#000;stroke-opacity:1;stroke-miterlimit:10" d="m1356.996 1098.094-121.118 674.552-79.23-650.454Zm0 0" transform="matrix(.09969 0 0 -.09969 .112 198.762)"/><path style="fill-rule:nonzero;fill:#8c72af;fill-opacity:1;stroke-width:5;stroke-linecap:round;stroke-linejoin:round;stroke:#000;stroke-opacity:1;stroke-miterlimit:10" d="m812.535 1317.328 108.657-194.705 58.658 121.157M979.85 1243.78l256.028 528.866-423.343-455.318" transform="matrix(.09969 0 0 -.09969 .112 198.762)"/><path style="stroke:none;fill-rule:nonzero;fill:#c0b2cd;fill-opacity:1" d="m19.148 82.75 72.797 4.098-10.832-19.41"/><path style="fill:none;stroke-width:5;stroke-linecap:round;stroke-linejoin:round;stroke:#000;stroke-opacity:1;stroke-miterlimit:10" d="m190.96 1163.727 730.232-41.104-108.657 194.705Zm0 0" transform="matrix(.09969 0 0 -.09969 .112 198.762)"/><path style="stroke:none;fill-rule:nonzero;fill:#8882c5;fill-opacity:1" d="M121.797 142.875 91.945 86.848l-11.73 20.39"/><path style="fill:none;stroke-width:5;stroke-linecap:round;stroke-linejoin:round;stroke:#000;stroke-opacity:1;stroke-miterlimit:10" d="m1220.636 560.607-299.444 562.016-117.67-204.54Zm0 0" transform="matrix(.09969 0 0 -.09969 .112 198.762)"/><path style="stroke:none;fill-rule:nonzero;fill:#ae81a3;fill-opacity:1" d="m123.316 22.047-31.37 64.8 23.472.044"/><path style="fill:none;stroke-width:5;stroke-linecap:round;stroke-linejoin:round;stroke:#000;stroke-opacity:1;stroke-miterlimit:10" d="m1235.878 1772.646-314.686-650.023 235.456-.431Zm0 0" transform="matrix(.09969 0 0 -.09969 .112 198.762)"/><path style="stroke:none;fill-rule:nonzero;fill:#c097ad;fill-opacity:1" d="m19.148 82.75 61.067 24.488 11.73-20.39"/><path style="fill:none;stroke-width:5;stroke-linecap:round;stroke-linejoin:round;stroke:#000;stroke-opacity:1;stroke-miterlimit:10" d="m190.96 1163.727 612.562-245.645 117.67 204.54Zm0 0" transform="matrix(.09969 0 0 -.09969 .112 198.762)"/><path style="stroke:none;fill-rule:nonzero;fill:#abacd8;fill-opacity:1" d="m121.797 142.875-6.379-55.984-23.473-.043"/><path style="fill:none;stroke-width:5;stroke-linecap:round;stroke-linejoin:round;stroke:#000;stroke-opacity:1;stroke-miterlimit:10" d="m1220.636 560.607-63.988 561.585-235.456.43Zm0 0" transform="matrix(.09969 0 0 -.09969 .112 198.762)"/></svg>