<svg xmlns="http://www.w3.org/2000/svg" width="261.92" height="265.507" viewBox="0 0 196.44 199.13" version="1.2"><path style="stroke:none;fill-rule:nonzero;fill:#c1a8c0;fill-opacity:1" d="m65.668 68.352 51.562 7.757 9.7 51.594"/><path style="fill:none;stroke-width:5;stroke-linecap:round;stroke-linejoin:round;stroke:#000;stroke-opacity:1;stroke-miterlimit:10" d="m658.057 1304.798 517.878-77.917 97.416-518.192Zm0 0" transform="matrix(.09957 0 0 -.09957 .148 198.264)"/><path style="stroke:none;fill-rule:nonzero;fill:#715ba9;fill-opacity:1" d="m126.93 127.703-9.7-51.594 29.598-29.168"/><path style="fill:none;stroke-width:5;stroke-linecap:round;stroke-linejoin:round;stroke:#000;stroke-opacity:1;stroke-miterlimit:10" d="m1273.351 708.69-97.416 518.191 297.27 292.954Zm0 0" transform="matrix(.09957 0 0 -.09957 .148 198.264)"/><path style="stroke:none;fill-rule:nonzero;fill:#ab596b;fill-opacity:1" d="M146.828 46.941 117.23 76.11l-51.562-7.757"/><path style="fill:none;stroke-width:5;stroke-linecap:round;stroke-linejoin:round;stroke:#000;stroke-opacity:1;stroke-miterlimit:10" d="m1473.205 1519.835-297.27-292.954-517.878 77.917Zm0 0" transform="matrix(.09957 0 0 -.09957 .148 198.264)"/><path style="stroke:none;fill-rule:nonzero;fill:#abbbe5;fill-opacity:1" d="m46.926 150.078 28.078-30.371 51.926 7.996"/><path style="fill:none;stroke-width:5;stroke-linecap:round;stroke-linejoin:round;stroke:#000;stroke-opacity:1;stroke-miterlimit:10" d="M469.817 483.962 751.825 789l521.526-80.31Zm0 0" transform="matrix(.09957 0 0 -.09957 .148 198.264)"/><path style="stroke:none;fill-rule:nonzero;fill:#e8bda9;fill-opacity:1" d="m65.668 68.352 9.336 51.355-28.078 30.371"/><path style="fill:none;stroke-width:5;stroke-linecap:round;stroke-linejoin:round;stroke:#000;stroke-opacity:1;stroke-miterlimit:10" d="M658.057 1304.798 751.825 789 469.817 483.962Zm0 0" transform="matrix(.09957 0 0 -.09957 .148 198.264)"/><path style="stroke:none;fill-rule:nonzero;fill:#a87ea5;fill-opacity:1" d="m126.93 127.703-51.926-7.996-9.336-51.355"/><path style="fill:none;stroke-width:5;stroke-linecap:round;stroke-linejoin:round;stroke:#000;stroke-opacity:1;stroke-miterlimit:10" d="M1273.351 708.69 751.825 789l-93.768 515.798Zm0 0" transform="matrix(.09957 0 0 -.09957 .148 198.264)"/><path style="stroke:none;fill-rule:nonzero;fill:#5e7fdb;fill-opacity:1" d="m126.93 127.703 42.285-30.492 16.508 21.277"/><path style="fill:none;stroke-width:5;stroke-linecap:round;stroke-linejoin:round;stroke:#000;stroke-opacity:1;stroke-miterlimit:10" d="m1273.351 708.69 424.7 306.253L1863.85 801.24Zm0 0" transform="matrix(.09957 0 0 -.09957 .148 198.264)"/><path style="stroke:none;fill-rule:nonzero;fill:#abbbe5;fill-opacity:1" d="m126.93 127.703 31.468 30.317-38.476 28.445"/><path style="fill:none;stroke-width:5;stroke-linecap:round;stroke-linejoin:round;stroke:#000;stroke-opacity:1;stroke-miterlimit:10" d="m1273.351 708.69 316.063-304.49-386.447-285.695Zm0 0" transform="matrix(.09957 0 0 -.09957 .148 198.264)"/><path style="stroke:none;fill-rule:nonzero;fill:#a87ea5;fill-opacity:1" d="m146.828 46.941 22.387 50.27-42.285 30.492"/><path style="fill:none;stroke-width:5;stroke-linecap:round;stroke-linejoin:round;stroke:#000;stroke-opacity:1;stroke-miterlimit:10" d="m1473.205 1519.835 224.845-504.892-424.699-306.254Zm0 0" transform="matrix(.09957 0 0 -.09957 .148 198.264)"/><path style="stroke:none;fill-rule:nonzero;fill:#5e7fdb;fill-opacity:1" d="m119.922 186.465-22.043-15.578 29.05-43.184"/><path style="fill:none;stroke-width:5;stroke-linecap:round;stroke-linejoin:round;stroke:#000;stroke-opacity:1;stroke-miterlimit:10" d="M1202.967 118.505 981.574 274.967l291.777 433.722Zm0 0" transform="matrix(.09957 0 0 -.09957 .148 198.264)"/><path style="stroke:none;fill-rule:nonzero;fill:#715ba9;fill-opacity:1" d="m185.723 118.488-27.325 39.532-31.468-30.317"/><path style="fill:none;stroke-width:5;stroke-linecap:round;stroke-linejoin:round;stroke:#000;stroke-opacity:1;stroke-miterlimit:10" d="M1863.85 801.24 1589.414 404.2 1273.35 708.69Zm0 0" transform="matrix(.09957 0 0 -.09957 .148 198.264)"/><path style="stroke:none;fill-rule:nonzero;fill:#c1a8c0;fill-opacity:1" d="m126.93 127.703-29.051 43.184-50.953-20.809"/><path style="fill:none;stroke-width:5;stroke-linecap:round;stroke-linejoin:round;stroke:#000;stroke-opacity:1;stroke-miterlimit:10" d="M1273.351 708.69 981.574 274.966 469.817 483.962Zm0 0" transform="matrix(.09957 0 0 -.09957 .148 198.264)"/><path style="stroke:none;fill-rule:nonzero;fill:#c1a8c0;fill-opacity:1" d="M46.926 150.078 23.934 99.543l41.734-31.191"/><path style="fill:none;stroke-width:5;stroke-linecap:round;stroke-linejoin:round;stroke:#000;stroke-opacity:1;stroke-miterlimit:10" d="M469.817 483.962 238.89 991.522l419.167 313.276Zm0 0" transform="matrix(.09957 0 0 -.09957 .148 198.264)"/><path style="stroke:none;fill-rule:nonzero;fill:#e8bda9;fill-opacity:1" d="M9.453 79.848 35.488 38.94l30.18 29.41"/><path style="fill:none;stroke-width:5;stroke-linecap:round;stroke-linejoin:round;stroke:#000;stroke-opacity:1;stroke-miterlimit:10" d="m93.453 1189.335 261.49 410.85 303.114-295.387Zm0 0" transform="matrix(.09957 0 0 -.09957 .148 198.264)"/><path style="stroke:none;fill-rule:nonzero;fill:#a87ea5;fill-opacity:1" d="m65.668 68.352 29.93-42.758 51.23 21.347"/><path style="fill:none;stroke-width:5;stroke-linecap:round;stroke-linejoin:round;stroke:#000;stroke-opacity:1;stroke-miterlimit:10" d="m658.057 1304.798 300.605 429.446 514.543-214.409Zm0 0" transform="matrix(.09957 0 0 -.09957 .148 198.264)"/><path style="stroke:none;fill-rule:nonzero;fill:#de7e54;fill-opacity:1" d="m75.71 11.5 19.888 14.094-29.93 42.758"/><path style="fill:none;stroke-width:5;stroke-linecap:round;stroke-linejoin:round;stroke:#000;stroke-opacity:1;stroke-miterlimit:10" d="m758.926 1875.798 199.736-141.554-300.605-429.446Zm0 0" transform="matrix(.09957 0 0 -.09957 .148 198.264)"/><path style="stroke:none;fill-rule:nonzero;fill:#de7e54;fill-opacity:1" d="M65.668 68.352 23.934 99.543 9.454 79.848"/><path style="fill:none;stroke-width:5;stroke-linecap:round;stroke-linejoin:round;stroke:#000;stroke-opacity:1;stroke-miterlimit:10" d="M658.057 1304.798 238.89 991.521 93.453 1189.335Zm0 0" transform="matrix(.09957 0 0 -.09957 .148 198.264)"/><path style="stroke:none;fill-rule:nonzero;fill:#ab596b;fill-opacity:1" d="m65.668 68.352-30.18-29.41L75.711 11.5"/><path style="fill:none;stroke-width:5;stroke-linecap:round;stroke-linejoin:round;stroke:#000;stroke-opacity:1;stroke-miterlimit:10" d="m658.057 1304.798-303.115 295.387 403.984 275.613Zm0 0" transform="matrix(.09957 0 0 -.09957 .148 198.264)"/><path style="stroke:none;fill-rule:nonzero;fill:#3f3f3f;fill-opacity:1" d="m185.723 118.488-16.508-21.277-22.387-50.27"/><path style="fill:none;stroke-width:5;stroke-linecap:round;stroke-linejoin:round;stroke:#000;stroke-opacity:1;stroke-miterlimit:10" d="m1863.85 801.24-165.8 213.703-224.845 504.892Zm0 0" transform="matrix(.09957 0 0 -.09957 .148 198.264)"/><path style="stroke:none;fill-rule:nonzero;fill:#82e9db;fill-opacity:1" d="m46.926 150.078 50.953 20.809 22.043 15.578"/><path style="fill:none;stroke-width:5;stroke-linecap:round;stroke-linejoin:round;stroke:#000;stroke-opacity:1;stroke-miterlimit:10" d="m469.817 483.962 511.757-208.995 221.393-156.462Zm0 0" transform="matrix(.09957 0 0 -.09957 .148 198.264)"/><path style="stroke:none;fill-rule:nonzero;fill:#454545;fill-opacity:1" d="m146.828 46.941-51.23-21.347L75.71 11.5"/><path style="fill:none;stroke-width:5;stroke-linecap:round;stroke-linejoin:round;stroke:#000;stroke-opacity:1;stroke-miterlimit:10" d="m1473.205 1519.835-514.543 214.41-199.736 141.553Zm0 0" transform="matrix(.09957 0 0 -.09957 .148 198.264)"/><path style="stroke:none;fill-rule:nonzero;fill:#d2e77e;fill-opacity:1" d="m9.453 79.848 14.48 19.695 22.993 50.535"/><path style="fill:none;stroke-width:5;stroke-linecap:round;stroke-linejoin:round;stroke:#000;stroke-opacity:1;stroke-miterlimit:10" d="M93.453 1189.335 238.89 991.52l230.927-507.56Zm0 0" transform="matrix(.09957 0 0 -.09957 .148 198.264)"/><path style="stroke:none;fill-rule:nonzero;fill:#715ba9;fill-opacity:1" d="m146.828 46.941 38.082 11.684.813 59.863"/><path style="fill:none;stroke-width:5;stroke-linecap:round;stroke-linejoin:round;stroke:#000;stroke-opacity:1;stroke-miterlimit:10" d="m1473.205 1519.835 382.484-117.346 8.16-601.249Zm0 0" transform="matrix(.09957 0 0 -.09957 .148 198.264)"/><path style="stroke:none;fill-rule:nonzero;fill:#454545;fill-opacity:1" d="m156.387 40.852 28.523 17.773-38.082-11.684"/><path style="fill:none;stroke-width:5;stroke-linecap:round;stroke-linejoin:round;stroke:#000;stroke-opacity:1;stroke-miterlimit:10" d="m1569.208 1581 286.481-178.511-382.484 117.346Zm0 0" transform="matrix(.09957 0 0 -.09957 .148 198.264)"/><path style="stroke:none;fill-rule:nonzero;fill:#ab596b;fill-opacity:1" d="m75.71 11.5 60.095-.797 11.023 36.238"/><path style="fill:none;stroke-width:5;stroke-linecap:round;stroke-linejoin:round;stroke:#000;stroke-opacity:1;stroke-miterlimit:10" d="m758.926 1875.798 603.563 8.003 110.716-363.966Zm0 0" transform="matrix(.09957 0 0 -.09957 .148 198.264)"/><path style="stroke:none;fill-rule:nonzero;fill:#3f3f3f;fill-opacity:1" d="m146.828 46.941-11.023-36.238 20.582 30.149"/><path style="fill:none;stroke-width:5;stroke-linecap:round;stroke-linejoin:round;stroke:#000;stroke-opacity:1;stroke-miterlimit:10" d="m1473.205 1519.835-110.716 363.966L1569.209 1581Zm0 0" transform="matrix(.09957 0 0 -.09957 .148 198.264)"/><path style="stroke:none;fill-rule:nonzero;fill:#e8bda9;fill-opacity:1" d="M46.926 150.078 10.53 139.992 9.453 79.848"/><path style="fill:none;stroke-width:5;stroke-linecap:round;stroke-linejoin:round;stroke:#000;stroke-opacity:1;stroke-miterlimit:10" d="m469.817 483.962-365.536 101.3-10.828 604.073Zm0 0" transform="matrix(.09957 0 0 -.09957 .148 198.264)"/><path style="stroke:none;fill-rule:nonzero;fill:#abbbe5;fill-opacity:1" d="m119.922 186.465-59.895 1.133-13.101-37.52"/><path style="fill:none;stroke-width:5;stroke-linecap:round;stroke-linejoin:round;stroke:#000;stroke-opacity:1;stroke-miterlimit:10" d="m1202.967 118.505-601.562-11.378-131.588 376.835Zm0 0" transform="matrix(.09957 0 0 -.09957 .148 198.264)"/><path style="stroke:none;fill-rule:nonzero;fill:#82e9db;fill-opacity:1" d="m41.59 159.363-31.059-19.37 36.395 10.085"/><path style="fill:none;stroke-width:5;stroke-linecap:round;stroke-linejoin:round;stroke:#000;stroke-opacity:1;stroke-miterlimit:10" d="M416.224 390.705 104.281 585.262l365.536-101.3Zm0 0" transform="matrix(.09957 0 0 -.09957 .148 198.264)"/><path style="stroke:none;fill-rule:nonzero;fill:#d2e77e;fill-opacity:1" d="m46.926 150.078 13.101 37.52-18.437-28.235"/><path style="fill:none;stroke-width:5;stroke-linecap:round;stroke-linejoin:round;stroke:#000;stroke-opacity:1;stroke-miterlimit:10" d="m469.817 483.962 131.588-376.835-185.18 283.578Zm0 0" transform="matrix(.09957 0 0 -.09957 .148 198.264)"/><path style="stroke:none;fill-rule:nonzero;fill:#d65f10;fill-opacity:1" d="m119.922 186.465 38.476-28.445 27.325-39.532"/><path style="fill:none;stroke-width:5;stroke-linecap:round;stroke-linejoin:round;stroke:#000;stroke-opacity:1;stroke-miterlimit:10" d="M1202.967 118.505 1589.414 404.2l274.436 397.04Zm0 0" transform="matrix(.09957 0 0 -.09957 .148 198.264)"/><path style="stroke:none;fill-rule:nonzero;fill:#2667d9;fill-opacity:1" d="M75.71 11.5 35.489 38.941 9.453 79.848"/><path style="fill:none;stroke-width:5;stroke-linecap:round;stroke-linejoin:round;stroke:#000;stroke-opacity:1;stroke-miterlimit:10" d="m758.926 1875.798-403.984-275.613-261.489-410.85Zm0 0" transform="matrix(.09957 0 0 -.09957 .148 198.264)"/><path style="stroke:none;fill-rule:nonzero;fill:#f4c89f;fill-opacity:1" d="m185.723 118.488-.813-59.863-28.523-17.773"/><path style="fill:none;stroke-width:5;stroke-linecap:round;stroke-linejoin:round;stroke:#000;stroke-opacity:1;stroke-miterlimit:10" d="m1863.85 801.24-8.16 601.249-286.482 178.51Zm0 0" transform="matrix(.09957 0 0 -.09957 .148 198.264)"/><path style="stroke:none;fill-rule:nonzero;fill:#3f3f3f;fill-opacity:1" d="m156.387 40.852 28.078 58.02 1.258 19.616"/><path style="fill:none;stroke-width:5;stroke-linecap:round;stroke-linejoin:round;stroke:#000;stroke-opacity:1;stroke-miterlimit:10" d="m1569.208 1581 282.008-582.73 12.634-197.03Zm0 0" transform="matrix(.09957 0 0 -.09957 .148 198.264)"/><path style="stroke:none;fill-rule:nonzero;fill:#d65f10;fill-opacity:1" d="m185.723 118.488-1.258-19.617-46.38 38.899"/><path style="fill:none;stroke-width:5;stroke-linecap:round;stroke-linejoin:round;stroke:#000;stroke-opacity:1;stroke-miterlimit:10" d="m1863.85 801.24-12.634 197.03-465.815-390.684Zm0 0" transform="matrix(.09957 0 0 -.09957 .148 198.264)"/><path style="stroke:none;fill-rule:nonzero;fill:#5e7fdb;fill-opacity:1" d="m185.723 118.488-19.356 46.926-46.445 21.05"/><path style="fill:none;stroke-width:5;stroke-linecap:round;stroke-linejoin:round;stroke:#000;stroke-opacity:1;stroke-miterlimit:10" d="m1863.85 801.24-194.4-471.308-466.483-211.427Zm0 0" transform="matrix(.09957 0 0 -.09957 .148 198.264)"/><path style="stroke:none;fill-rule:nonzero;fill:#f4c89f;fill-opacity:1" d="m138.086 137.77 28.281 27.644 19.356-46.926"/><path style="fill:none;stroke-width:5;stroke-linecap:round;stroke-linejoin:round;stroke:#000;stroke-opacity:1;stroke-miterlimit:10" d="m1385.401 607.586 284.048-277.654 194.4 471.308Zm0 0" transform="matrix(.09957 0 0 -.09957 .148 198.264)"/><path style="stroke:none;fill-rule:nonzero;fill:#a23f4a;fill-opacity:1" d="m41.59 159.363 18.437 28.235 59.895-1.133"/><path style="fill:none;stroke-width:5;stroke-linecap:round;stroke-linejoin:round;stroke:#000;stroke-opacity:1;stroke-miterlimit:10" d="m416.224 390.705 185.18-283.578 601.563 11.378Zm0 0" transform="matrix(.09957 0 0 -.09957 .148 198.264)"/><path style="stroke:none;fill-rule:nonzero;fill:#82e9db;fill-opacity:1" d="m119.922 186.465-19.363-.918-58.97-26.184"/><path style="fill:none;stroke-width:5;stroke-linecap:round;stroke-linejoin:round;stroke:#000;stroke-opacity:1;stroke-miterlimit:10" d="m1202.967 118.505-194.479 9.22-592.264 262.98Zm0 0" transform="matrix(.09957 0 0 -.09957 .148 198.264)"/><path style="stroke:none;fill-rule:nonzero;fill:#d65f10;fill-opacity:1" d="m138.086 137.77-37.527 47.777 19.363.918"/><path style="fill:none;stroke-width:5;stroke-linecap:round;stroke-linejoin:round;stroke:#000;stroke-opacity:1;stroke-miterlimit:10" d="m1385.401 607.586-376.913-479.861 194.479-9.22Zm0 0" transform="matrix(.09957 0 0 -.09957 .148 198.264)"/><path style="stroke:none;fill-rule:nonzero;fill:#a23f4a;fill-opacity:1" d="m119.922 186.465 46.445-21.05-28.281-27.645"/><path style="fill:none;stroke-width:5;stroke-linecap:round;stroke-linejoin:round;stroke:#000;stroke-opacity:1;stroke-miterlimit:10" d="m1202.967 118.505 466.482 211.427-284.048 277.654Zm0 0" transform="matrix(.09957 0 0 -.09957 .148 198.264)"/><path style="stroke:none;fill-rule:nonzero;fill:#a2c5f1;fill-opacity:1" d="m156.387 40.852-20.582-30.149-60.094.797"/><path style="fill:none;stroke-width:5;stroke-linecap:round;stroke-linejoin:round;stroke:#000;stroke-opacity:1;stroke-miterlimit:10" d="M1569.208 1581 1362.49 1883.8l-603.563-8.003Zm0 0" transform="matrix(.09957 0 0 -.09957 .148 198.264)"/><path style="stroke:none;fill-rule:nonzero;fill:#5443a0;fill-opacity:1" d="m9.453 79.848 1.078 60.144 31.059 19.371"/><path style="fill:none;stroke-width:5;stroke-linecap:round;stroke-linejoin:round;stroke:#000;stroke-opacity:1;stroke-miterlimit:10" d="m93.453 1189.335 10.828-604.073 311.943-194.557Zm0 0" transform="matrix(.09957 0 0 -.09957 .148 198.264)"/><path style="stroke:none;fill-rule:nonzero;fill:#454545;fill-opacity:1" d="m75.71 11.5 22.169 3.074 58.508 26.278"/><path style="fill:none;stroke-width:5;stroke-linecap:round;stroke-linejoin:round;stroke:#000;stroke-opacity:1;stroke-miterlimit:10" d="m758.926 1875.798 222.648-30.877L1569.208 1581Zm0 0" transform="matrix(.09957 0 0 -.09957 .148 198.264)"/><path style="stroke:none;fill-rule:nonzero;fill:#2667d9;fill-opacity:1" d="m61.348 63.426 36.53-48.852L75.712 11.5"/><path style="fill:none;stroke-width:5;stroke-linecap:round;stroke-linejoin:round;stroke:#000;stroke-opacity:1;stroke-miterlimit:10" d="m614.666 1354.271 366.908 490.65-222.648 30.877Zm0 0" transform="matrix(.09957 0 0 -.09957 .148 198.264)"/><path style="stroke:none;fill-rule:nonzero;fill:#de7e54;fill-opacity:1" d="M9.453 79.848 30.48 33.762 75.71 11.5"/><path style="fill:none;stroke-width:5;stroke-linecap:round;stroke-linejoin:round;stroke:#000;stroke-opacity:1;stroke-miterlimit:10" d="m93.453 1189.335 211.192 462.873 454.281 223.59Zm0 0" transform="matrix(.09957 0 0 -.09957 .148 198.264)"/><path style="stroke:none;fill-rule:nonzero;fill:#a2c5f1;fill-opacity:1" d="M75.71 11.5 30.48 33.762l30.868 29.664"/><path style="fill:none;stroke-width:5;stroke-linecap:round;stroke-linejoin:round;stroke:#000;stroke-opacity:1;stroke-miterlimit:10" d="m758.926 1875.798-454.28-223.59 310.02-297.937Zm0 0" transform="matrix(.09957 0 0 -.09957 .148 198.264)"/><path style="stroke:none;fill-rule:nonzero;fill:#d2e77e;fill-opacity:1" d="m41.59 159.363-28.078-57.742-4.059-21.773"/><path style="fill:none;stroke-width:5;stroke-linecap:round;stroke-linejoin:round;stroke:#000;stroke-opacity:1;stroke-miterlimit:10" d="M416.224 390.705 134.216 970.649l-40.763 218.686Zm0 0" transform="matrix(.09957 0 0 -.09957 .148 198.264)"/><path style="stroke:none;fill-rule:nonzero;fill:#5443a0;fill-opacity:1" d="M61.348 63.426 30.48 33.762 9.453 79.848"/><path style="fill:none;stroke-width:5;stroke-linecap:round;stroke-linejoin:round;stroke:#000;stroke-opacity:1;stroke-miterlimit:10" d="m614.666 1354.271-310.02 297.937-211.193-462.873Zm0 0" transform="matrix(.09957 0 0 -.09957 .148 198.264)"/><path style="stroke:none;fill-rule:nonzero;fill:#2667d9;fill-opacity:1" d="m9.453 79.848 4.059 21.773 47.836-38.195"/><path style="fill:none;stroke-width:5;stroke-linecap:round;stroke-linejoin:round;stroke:#000;stroke-opacity:1;stroke-miterlimit:10" d="m93.453 1189.335 40.763-218.686 480.45 383.622Zm0 0" transform="matrix(.09957 0 0 -.09957 .148 198.264)"/><path style="stroke:none;fill-rule:nonzero;fill:#c4adc2;fill-opacity:1" d="m138.086 137.77 46.379-38.899-28.078-58.02"/><path style="fill:none;stroke-width:5;stroke-linecap:round;stroke-linejoin:round;stroke:#000;stroke-opacity:1;stroke-miterlimit:10" d="m1385.401 607.586 465.815 390.683L1569.208 1581Zm0 0" transform="matrix(.09957 0 0 -.09957 .148 198.264)"/><path style="stroke:none;fill-rule:nonzero;fill:#a2c5f1;fill-opacity:1" d="m61.348 63.426 66.328 9.148 28.71-31.722"/><path style="fill:none;stroke-width:5;stroke-linecap:round;stroke-linejoin:round;stroke:#000;stroke-opacity:1;stroke-miterlimit:10" d="m614.666 1354.271 666.179-91.884L1569.208 1581Zm0 0" transform="matrix(.09957 0 0 -.09957 .148 198.264)"/><path style="stroke:none;fill-rule:nonzero;fill:#c4adc2;fill-opacity:1" d="M156.387 40.852 97.879 14.574 61.348 63.426"/><path style="fill:none;stroke-width:5;stroke-linecap:round;stroke-linejoin:round;stroke:#000;stroke-opacity:1;stroke-miterlimit:10" d="M1569.208 1581 981.574 1844.92l-366.908-490.65Zm0 0" transform="matrix(.09957 0 0 -.09957 .148 198.264)"/><path style="stroke:none;fill-rule:nonzero;fill:#f4c89f;fill-opacity:1" d="m156.387 40.852-28.711 31.722 10.41 65.196"/><path style="fill:none;stroke-width:5;stroke-linecap:round;stroke-linejoin:round;stroke:#000;stroke-opacity:1;stroke-miterlimit:10" d="m1569.208 1581-288.363-318.613L1385.4 607.586Zm0 0" transform="matrix(.09957 0 0 -.09957 .148 198.264)"/><path style="stroke:none;fill-rule:nonzero;fill:#a478a2;fill-opacity:1" d="m41.59 159.363 58.969 26.184 37.527-47.777"/><path style="fill:none;stroke-width:5;stroke-linecap:round;stroke-linejoin:round;stroke:#000;stroke-opacity:1;stroke-miterlimit:10" d="m416.224 390.705 592.264-262.98 376.913 479.86Zm0 0" transform="matrix(.09957 0 0 -.09957 .148 198.264)"/><path style="stroke:none;fill-rule:nonzero;fill:#a23f4a;fill-opacity:1" d="m138.086 137.77-65.418-8.41-31.078 30.003"/><path style="fill:none;stroke-width:5;stroke-linecap:round;stroke-linejoin:round;stroke:#000;stroke-opacity:1;stroke-miterlimit:10" d="m1385.401 607.586-657.038 84.469-312.139-301.35Zm0 0" transform="matrix(.09957 0 0 -.09957 .148 198.264)"/><path style="stroke:none;fill-rule:nonzero;fill:#a478a2;fill-opacity:1" d="M61.348 63.426 13.512 101.62l28.078 57.742"/><path style="fill:none;stroke-width:5;stroke-linecap:round;stroke-linejoin:round;stroke:#000;stroke-opacity:1;stroke-miterlimit:10" d="M614.666 1354.271 134.216 970.65l282.008-579.944Zm0 0" transform="matrix(.09957 0 0 -.09957 .148 198.264)"/><path style="stroke:none;fill-rule:nonzero;fill:#5443a0;fill-opacity:1" d="m41.59 159.363 31.078-30.004-11.32-65.933"/><path style="fill:none;stroke-width:5;stroke-linecap:round;stroke-linejoin:round;stroke:#000;stroke-opacity:1;stroke-miterlimit:10" d="m416.224 390.705 312.14 301.35-113.698 662.216Zm0 0" transform="matrix(.09957 0 0 -.09957 .148 198.264)"/><path style="stroke:none;fill-rule:nonzero;fill:#c4adc2;fill-opacity:1" d="m61.348 63.426 11.32 65.933 65.418 8.41"/><path style="fill:none;stroke-width:5;stroke-linecap:round;stroke-linejoin:round;stroke:#000;stroke-opacity:1;stroke-miterlimit:10" d="m614.666 1354.271 113.697-662.216 657.038-84.47Zm0 0" transform="matrix(.09957 0 0 -.09957 .148 198.264)"/><path style="stroke:none;fill-rule:nonzero;fill:#a478a2;fill-opacity:1" d="m138.086 137.77-10.41-65.196-66.328-9.148"/><path style="fill:none;stroke-width:5;stroke-linecap:round;stroke-linejoin:round;stroke:#000;stroke-opacity:1;stroke-miterlimit:10" d="m1385.401 607.586-104.556 654.801-666.18 91.884Zm0 0" transform="matrix(.09957 0 0 -.09957 .148 198.264)"/></svg>