<svg xmlns="http://www.w3.org/2000/svg" width="305.667" height="266.84" viewBox="0 0 229.25 200.13" version="1.2"><path style="stroke:none;fill-rule:nonzero;fill:#b97f94;fill-opacity:1" d="m74.844 118.941 10.054-44.726 25.692 1.984"/><path style="fill:none;stroke-width:5;stroke-linecap:round;stroke-linejoin:round;stroke:#000;stroke-opacity:1;stroke-miterlimit:10" d="m750.458 806.715 100.984 449.21 258.031-19.93Zm0 0" transform="matrix(.09957 0 0 -.09957 .123 199.264)"/><path style="stroke:none;fill-rule:nonzero;fill:#9e9cd1;fill-opacity:1" d="m111.773 142.023-36.93-23.082 54.524 4.391"/><path style="fill:none;stroke-width:5;stroke-linecap:round;stroke-linejoin:round;stroke:#000;stroke-opacity:1;stroke-miterlimit:10" d="M1121.36 574.892 750.458 806.715l547.605-44.097Zm0 0" transform="matrix(.09957 0 0 -.09957 .123 199.264)"/><path style="stroke:none;fill-rule:nonzero;fill:#aabbe6;fill-opacity:1" d="m74.844 118.941 36.93 23.082-18.032 12.504"/><path style="fill:none;stroke-width:5;stroke-linecap:round;stroke-linejoin:round;stroke:#000;stroke-opacity:1;stroke-miterlimit:10" d="m750.458 806.715 370.902-231.823-181.096-125.583Zm0 0" transform="matrix(.09957 0 0 -.09957 .123 199.264)"/><path style="stroke:none;fill-rule:nonzero;fill:#c5dfeb;fill-opacity:1" d="m74.844 118.941 18.898 35.586L69.22 143.43"/><path style="fill:none;stroke-width:5;stroke-linecap:round;stroke-linejoin:round;stroke:#000;stroke-opacity:1;stroke-miterlimit:10" d="M750.458 806.715 940.264 449.31l-246.3 111.459Zm0 0" transform="matrix(.09957 0 0 -.09957 .123 199.264)"/><path style="stroke:none;fill-rule:nonzero;fill:#9e87ba;fill-opacity:1" d="m74.844 118.941 45.734-19.136 8.79 23.527"/><path style="fill:none;stroke-width:5;stroke-linecap:round;stroke-linejoin:round;stroke:#000;stroke-opacity:1;stroke-miterlimit:10" d="m750.458 806.715 459.332 192.2 88.273-236.297Zm0 0" transform="matrix(.09957 0 0 -.09957 .123 199.264)"/><path style="stroke:none;fill-rule:nonzero;fill:#e7eed1;fill-opacity:1" d="m51.152 125.094 23.692-6.153-5.625 24.489"/><path style="fill:none;stroke-width:5;stroke-linecap:round;stroke-linejoin:round;stroke:#000;stroke-opacity:1;stroke-miterlimit:10" d="m512.514 744.924 237.944 61.791-56.494-245.947Zm0 0" transform="matrix(.09957 0 0 -.09957 .123 199.264)"/><path style="stroke:none;fill-rule:nonzero;fill:#a87ea5;fill-opacity:1" d="M74.844 118.941 110.59 76.2l9.988 23.606"/><path style="fill:none;stroke-width:5;stroke-linecap:round;stroke-linejoin:round;stroke:#000;stroke-opacity:1;stroke-miterlimit:10" d="m750.458 806.715 359.015 429.28 100.317-237.08Zm0 0" transform="matrix(.09957 0 0 -.09957 .123 199.264)"/><path style="stroke:none;fill-rule:nonzero;fill:#f8d7a7;fill-opacity:1" d="m52.313 100.398 22.53 18.543-23.69 6.153"/><path style="fill:none;stroke-width:5;stroke-linecap:round;stroke-linejoin:round;stroke:#000;stroke-opacity:1;stroke-miterlimit:10" d="m524.166 992.951 226.292-186.236-237.944-61.79Zm0 0" transform="matrix(.09957 0 0 -.09957 .123 199.264)"/><path style="stroke:none;fill-rule:nonzero;fill:#ebae8e;fill-opacity:1" d="m62.746 75.96 12.098 42.981-22.531-18.543"/><path style="fill:none;stroke-width:5;stroke-linecap:round;stroke-linejoin:round;stroke:#000;stroke-opacity:1;stroke-miterlimit:10" d="m628.956 1238.388 121.502-431.673-226.292 186.236Zm0 0" transform="matrix(.09957 0 0 -.09957 .123 199.264)"/><path style="stroke:none;fill-rule:nonzero;fill:#d18e8b;fill-opacity:1" d="m74.844 118.941-12.098-42.98 22.152-1.746"/><path style="fill:none;stroke-width:5;stroke-linecap:round;stroke-linejoin:round;stroke:#000;stroke-opacity:1;stroke-miterlimit:10" d="m750.458 806.715-121.502 431.673 222.486 17.537Zm0 0" transform="matrix(.09957 0 0 -.09957 .123 199.264)"/><path style="stroke:none;fill-rule:nonzero;fill:#7180d2;fill-opacity:1" d="m169.453 80.746 3.234 42.406-18.91 2.145"/><path style="fill:none;stroke-width:5;stroke-linecap:round;stroke-linejoin:round;stroke:#000;stroke-opacity:1;stroke-miterlimit:10" d="m1700.665 1190.329 32.484-425.906-189.924-21.539Zm0 0" transform="matrix(.09957 0 0 -.09957 .123 199.264)"/><path style="stroke:none;fill-rule:nonzero;fill:#9e9cd1;fill-opacity:1" d="m169.453 80.746-15.676 44.55-24.41-1.964"/><path style="fill:none;stroke-width:5;stroke-linecap:round;stroke-linejoin:round;stroke:#000;stroke-opacity:1;stroke-miterlimit:10" d="m1700.665 1190.329-157.44-447.445-245.162 19.734Zm0 0" transform="matrix(.09957 0 0 -.09957 .123 199.264)"/><path style="stroke:none;fill-rule:nonzero;fill:#bd96af;fill-opacity:1" d="m169.453 80.746-48.875 19.059-9.988-23.606"/><path style="fill:none;stroke-width:5;stroke-linecap:round;stroke-linejoin:round;stroke:#000;stroke-opacity:1;stroke-miterlimit:10" d="M1700.665 1190.329 1209.79 998.914l-100.317 237.081Zm0 0" transform="matrix(.09957 0 0 -.09957 .123 199.264)"/><path style="stroke:none;fill-rule:nonzero;fill:#2337ae;fill-opacity:1" d="m169.453 80.746 12.89 17.375-9.655 25.031"/><path style="fill:none;stroke-width:5;stroke-linecap:round;stroke-linejoin:round;stroke:#000;stroke-opacity:1;stroke-miterlimit:10" d="m1700.665 1190.329 129.466-174.505-96.982-251.401Zm0 0" transform="matrix(.09957 0 0 -.09957 .123 199.264)"/><path style="stroke:none;fill-rule:nonzero;fill:#b97f94;fill-opacity:1" d="M169.453 80.746 110.59 76.2l15.914-19.027"/><path style="fill:none;stroke-width:5;stroke-linecap:round;stroke-linejoin:round;stroke:#000;stroke-opacity:1;stroke-miterlimit:10" d="m1700.665 1190.329-591.192 45.666 159.832 191.1Zm0 0" transform="matrix(.09957 0 0 -.09957 .123 199.264)"/><path style="stroke:none;fill-rule:nonzero;fill:#640d43;fill-opacity:1" d="m169.453 80.746-28.621-36.851 23.93 10.656"/><path style="fill:none;stroke-width:5;stroke-linecap:round;stroke-linejoin:round;stroke:#000;stroke-opacity:1;stroke-miterlimit:10" d="m1700.665 1190.329-287.455 370.118 240.337-107.026Zm0 0" transform="matrix(.09957 0 0 -.09957 .123 199.264)"/><path style="stroke:none;fill-rule:nonzero;fill:#b4a0c3;fill-opacity:1" d="m169.453 80.746-40.086 42.586-8.789-23.527"/><path style="fill:none;stroke-width:5;stroke-linecap:round;stroke-linejoin:round;stroke:#000;stroke-opacity:1;stroke-miterlimit:10" d="m1700.665 1190.329-402.602-427.71-88.273 236.295Zm0 0" transform="matrix(.09957 0 0 -.09957 .123 199.264)"/><path style="stroke:none;fill-rule:nonzero;fill:#000057;fill-opacity:1" d="m169.453 80.746 11.5-8.121 1.39 25.496"/><path style="fill:none;stroke-width:5;stroke-linecap:round;stroke-linejoin:round;stroke:#000;stroke-opacity:1;stroke-miterlimit:10" d="m1700.665 1190.329 115.5 81.564 13.966-256.07Zm0 0" transform="matrix(.09957 0 0 -.09957 .123 199.264)"/><path style="stroke:none;fill-rule:nonzero;fill:#a15571;fill-opacity:1" d="m169.453 80.746-42.95-23.574 14.329-13.277"/><path style="fill:none;stroke-width:5;stroke-linecap:round;stroke-linejoin:round;stroke:#000;stroke-opacity:1;stroke-miterlimit:10" d="m1700.665 1190.329-431.36 236.767 143.905 133.35Zm0 0" transform="matrix(.09957 0 0 -.09957 .123 199.264)"/><path style="stroke:none;fill-rule:nonzero;fill:#020026;fill-opacity:1" d="m180.953 72.625-11.5 8.121-4.691-26.195"/><path style="fill:none;stroke-width:5;stroke-linecap:round;stroke-linejoin:round;stroke:#000;stroke-opacity:1;stroke-miterlimit:10" d="m1816.165 1271.893-115.5-81.564-47.118 263.092Zm0 0" transform="matrix(.09957 0 0 -.09957 .123 199.264)"/><path style="stroke:none;fill-rule:nonzero;fill:#bd96af;fill-opacity:1" d="m86.727 19.805 23.863 56.394-25.692-1.984"/><path style="fill:none;stroke-width:5;stroke-linecap:round;stroke-linejoin:round;stroke:#000;stroke-opacity:1;stroke-miterlimit:10" d="m869.803 1802.392 239.67-566.397-258.03 19.93Zm0 0" transform="matrix(.09957 0 0 -.09957 .123 199.264)"/><path style="stroke:none;fill-rule:nonzero;fill:#a87ea5;fill-opacity:1" d="M110.59 76.2 86.727 19.804l39.777 37.367"/><path style="fill:none;stroke-width:5;stroke-linecap:round;stroke-linejoin:round;stroke:#000;stroke-opacity:1;stroke-miterlimit:10" d="m1109.473 1235.995-239.67 566.397 399.502-375.296Zm0 0" transform="matrix(.09957 0 0 -.09957 .123 199.264)"/><path style="stroke:none;fill-rule:nonzero;fill:#9e87ba;fill-opacity:1" d="m150.64 180.285-21.273-56.953 24.41 1.965"/><path style="fill:none;stroke-width:5;stroke-linecap:round;stroke-linejoin:round;stroke:#000;stroke-opacity:1;stroke-miterlimit:10" d="m1511.722 190.611-213.66 572.007 245.163-19.734Zm0 0" transform="matrix(.09957 0 0 -.09957 .123 199.264)"/><path style="stroke:none;fill-rule:nonzero;fill:#b4a0c3;fill-opacity:1" d="m129.367 123.332 21.274 56.953-38.868-38.262"/><path style="fill:none;stroke-width:5;stroke-linecap:round;stroke-linejoin:round;stroke:#000;stroke-opacity:1;stroke-miterlimit:10" d="m1298.063 762.618 213.659-572.007-390.362 384.28Zm0 0" transform="matrix(.09957 0 0 -.09957 .123 199.264)"/><path style="stroke:none;fill-rule:nonzero;fill:#d3a7ab;fill-opacity:1" d="m86.727 19.805-1.829 54.41-22.152 1.746"/><path style="fill:none;stroke-width:5;stroke-linecap:round;stroke-linejoin:round;stroke:#000;stroke-opacity:1;stroke-miterlimit:10" d="m869.803 1802.392-18.36-546.467-222.487-17.537Zm0 0" transform="matrix(.09957 0 0 -.09957 .123 199.264)"/><path style="stroke:none;fill-rule:nonzero;fill:#c3bbd2;fill-opacity:1" d="m150.64 180.285-56.898-25.758 18.031-12.504"/><path style="fill:none;stroke-width:5;stroke-linecap:round;stroke-linejoin:round;stroke:#000;stroke-opacity:1;stroke-miterlimit:10" d="M1511.722 190.611 940.264 449.31l181.096 125.583Zm0 0" transform="matrix(.09957 0 0 -.09957 .123 199.264)"/><path style="stroke:none;fill-rule:nonzero;fill:#8e588b;fill-opacity:1" d="m86.727 19.805 54.105 24.09-14.328 13.277"/><path style="fill:none;stroke-width:5;stroke-linecap:round;stroke-linejoin:round;stroke:#000;stroke-opacity:1;stroke-miterlimit:10" d="m869.803 1802.392 543.407-241.945-143.905-133.351Zm0 0" transform="matrix(.09957 0 0 -.09957 .123 199.264)"/><path style="stroke:none;fill-rule:nonzero;fill:#ebae8e;fill-opacity:1" d="M86.727 19.805 62.747 75.96l-5.599-19.906"/><path style="fill:none;stroke-width:5;stroke-linecap:round;stroke-linejoin:round;stroke:#000;stroke-opacity:1;stroke-miterlimit:10" d="m869.803 1802.392-240.847-564.004-56.22 199.928Zm0 0" transform="matrix(.09957 0 0 -.09957 .123 199.264)"/><path style="stroke:none;fill-rule:nonzero;fill:#e57b1a;fill-opacity:1" d="m60.27 41.957 26.457-22.152-29.579 36.25"/><path style="fill:none;stroke-width:5;stroke-linecap:round;stroke-linejoin:round;stroke:#000;stroke-opacity:1;stroke-miterlimit:10" d="m604.082 1579.906 265.72 222.486-297.066-364.076Zm0 0" transform="matrix(.09957 0 0 -.09957 .123 199.264)"/><path style="stroke:none;fill-rule:nonzero;fill:#640d43;fill-opacity:1" d="m86.727 19.805 40.898 7.082 13.207 17.008"/><path style="fill:none;stroke-width:5;stroke-linecap:round;stroke-linejoin:round;stroke:#000;stroke-opacity:1;stroke-miterlimit:10" d="m869.803 1802.392 410.762-71.128 132.645-170.817Zm0 0" transform="matrix(.09957 0 0 -.09957 .123 199.264)"/><path style="fill-rule:nonzero;fill:#0037ac;fill-opacity:1;stroke-width:5;stroke-linecap:round;stroke-linejoin:round;stroke:#000;stroke-opacity:1;stroke-miterlimit:10" d="m834.65 1746.33 35.153 56.062-174.859-146.415" transform="matrix(.09957 0 0 -.09957 .123 199.264)"/><path style="stroke:none;fill-rule:nonzero;fill:#0b0000;fill-opacity:1" d="m127.625 26.887-40.898-7.082 24.441.992"/><path style="fill:none;stroke-width:5;stroke-linecap:round;stroke-linejoin:round;stroke:#000;stroke-opacity:1;stroke-miterlimit:10" d="m1280.565 1731.264-410.762 71.128 245.476-9.965Zm0 0" transform="matrix(.09957 0 0 -.09957 .123 199.264)"/><path style="stroke:none;fill-rule:nonzero;fill:#199fe0;fill-opacity:1" d="m111.168 20.797-24.441-.992-3.5 5.582"/><path style="fill:none;stroke-width:5;stroke-linecap:round;stroke-linejoin:round;stroke:#000;stroke-opacity:1;stroke-miterlimit:10" d="m1115.28 1792.427-245.477 9.965-35.152-56.063Zm0 0" transform="matrix(.09957 0 0 -.09957 .123 199.264)"/><path style="fill-rule:nonzero;fill:#9b241f;fill-opacity:1;stroke-width:5;stroke-linecap:round;stroke-linejoin:round;stroke:#000;stroke-opacity:1;stroke-miterlimit:10" d="M834.65 1746.33 686.275 1951.2l295.89-109.497" transform="matrix(.09957 0 0 -.09957 .123 199.264)"/><path style="fill-rule:nonzero;fill:#9b241f;fill-opacity:1;stroke-width:5;stroke-linecap:round;stroke-linejoin:round;stroke:#000;stroke-opacity:1;stroke-miterlimit:10" d="m982.164 1841.703 133.115-49.276-280.628-46.098" transform="matrix(.09957 0 0 -.09957 .123 199.264)"/><path style="fill-rule:nonzero;fill:#0037ac;fill-opacity:1;stroke-width:5;stroke-linecap:round;stroke-linejoin:round;stroke:#000;stroke-opacity:1;stroke-miterlimit:10" d="m694.944 1655.977-90.862-76.071 230.569 166.423" transform="matrix(.09957 0 0 -.09957 .123 199.264)"/><path style="stroke:none;fill-rule:nonzero;fill:#7a6bb5;fill-opacity:1" d="m150.64 180.285 3.137-54.988 18.91-2.145"/><path style="fill:none;stroke-width:5;stroke-linecap:round;stroke-linejoin:round;stroke:#000;stroke-opacity:1;stroke-miterlimit:10" d="m1511.722 190.611 31.503 552.273 189.924 21.539Zm0 0" transform="matrix(.09957 0 0 -.09957 .123 199.264)"/><path style="stroke:none;fill-rule:nonzero;fill:#6adce5;fill-opacity:1" d="m102.582 171.164 48.059 9.121-37.032-3.426"/><path style="fill:none;stroke-width:5;stroke-linecap:round;stroke-linejoin:round;stroke:#000;stroke-opacity:1;stroke-miterlimit:10" d="m1029.047 282.219 482.675-91.608-371.922 34.407Zm0 0" transform="matrix(.09957 0 0 -.09957 .123 199.264)"/><path style="fill-rule:nonzero;fill:#2337ae;fill-opacity:1;stroke-width:5;stroke-linecap:round;stroke-linejoin:round;stroke:#000;stroke-opacity:1;stroke-miterlimit:10" d="m1748.293 566.025-236.571-375.414 148.337 384.36" transform="matrix(.09957 0 0 -.09957 .123 199.264)"/><path style="fill-rule:nonzero;fill:#2337ae;fill-opacity:1;stroke-width:5;stroke-linecap:round;stroke-linejoin:round;stroke:#000;stroke-opacity:1;stroke-miterlimit:10" d="m1660.06 574.97 73.09 189.453 15.143-198.398" transform="matrix(.09957 0 0 -.09957 .123 199.264)"/><path style="fill-rule:nonzero;fill:#2579e4;fill-opacity:1;stroke-width:5;stroke-linecap:round;stroke-linejoin:round;stroke:#000;stroke-opacity:1;stroke-miterlimit:10" d="M1748.293 566.025 2221.16 819.78l-378.553-263.406" transform="matrix(.09957 0 0 -.09957 .123 199.264)"/><path style="stroke:none;fill-rule:nonzero;fill:#9b3000;fill-opacity:1" d="m150.64 180.285 23.555-37.379-8.722 13.563"/><path style="fill:none;stroke-width:5;stroke-linecap:round;stroke-linejoin:round;stroke:#000;stroke-opacity:1;stroke-miterlimit:10" d="m1511.722 190.611 236.57 375.414-87.605-136.214Zm0 0" transform="matrix(.09957 0 0 -.09957 .123 199.264)"/><path style="fill-rule:nonzero;fill:#2579e4;fill-opacity:1;stroke-width:5;stroke-linecap:round;stroke-linejoin:round;stroke:#000;stroke-opacity:1;stroke-miterlimit:10" d="m1842.607 556.374-181.92-126.563 87.606 136.214" transform="matrix(.09957 0 0 -.09957 .123 199.264)"/><path style="stroke:none;fill-rule:nonzero;fill:#bb3500;fill-opacity:1" d="m150.64 180.285 14.833-23.816-23.575 16.402"/><path style="fill:none;stroke-width:5;stroke-linecap:round;stroke-linejoin:round;stroke:#000;stroke-opacity:1;stroke-miterlimit:10" d="m1511.722 190.611 148.965 239.2-236.767-164.737Zm0 0" transform="matrix(.09957 0 0 -.09957 .123 199.264)"/><path style="stroke:none;fill-rule:nonzero;fill:#c5dfeb;fill-opacity:1" d="m150.64 180.285-48.058-9.12-8.84-16.638"/><path style="fill:none;stroke-width:5;stroke-linecap:round;stroke-linejoin:round;stroke:#000;stroke-opacity:1;stroke-miterlimit:10" d="m1511.722 190.611-482.675 91.608-88.783 167.09Zm0 0" transform="matrix(.09957 0 0 -.09957 .123 199.264)"/><path style="fill-rule:nonzero;fill:#2579e4;fill-opacity:1;stroke-width:5;stroke-linecap:round;stroke-linejoin:round;stroke:#000;stroke-opacity:1;stroke-miterlimit:10" d="m1423.92 265.074 236.767 164.737-70.775-110.008" transform="matrix(.09957 0 0 -.09957 .123 199.264)"/><path style="fill-rule:nonzero;fill:#6a0000;fill-opacity:1;stroke-width:5;stroke-linecap:round;stroke-linejoin:round;stroke:#000;stroke-opacity:1;stroke-miterlimit:10" d="m1266.795 213.287 244.927-22.676-87.802 74.463" transform="matrix(.09957 0 0 -.09957 .123 199.264)"/><path style="fill-rule:nonzero;fill:#2579e4;fill-opacity:1;stroke-width:5;stroke-linecap:round;stroke-linejoin:round;stroke:#000;stroke-opacity:1;stroke-miterlimit:10" d="m1589.912 319.803-157.95-245.555-8.042 190.826" transform="matrix(.09957 0 0 -.09957 .123 199.264)"/><path style="fill-rule:nonzero;fill:#6a0000;fill-opacity:1;stroke-width:5;stroke-linecap:round;stroke-linejoin:round;stroke:#000;stroke-opacity:1;stroke-miterlimit:10" d="m1423.92 265.074-284.12-40.056 126.995-11.73" transform="matrix(.09957 0 0 -.09957 .123 199.264)"/><path style="stroke:none;fill-rule:nonzero;fill:#d3a7ab;fill-opacity:1" d="m7.078 80.355 55.668-4.394-10.434 24.437"/><path style="fill:none;stroke-width:5;stroke-linecap:round;stroke-linejoin:round;stroke:#000;stroke-opacity:1;stroke-miterlimit:10" d="m69.856 1194.252 559.1 44.136-104.79-245.437Zm0 0" transform="matrix(.09957 0 0 -.09957 .123 199.264)"/><path style="stroke:none;fill-rule:nonzero;fill:#d18e8b;fill-opacity:1" d="m7.078 80.355 50.07-24.3 5.598 19.906"/><path style="fill:none;stroke-width:5;stroke-linecap:round;stroke-linejoin:round;stroke:#000;stroke-opacity:1;stroke-miterlimit:10" d="m69.856 1194.252 502.88 244.064 56.22-199.928Zm0 0" transform="matrix(.09957 0 0 -.09957 .123 199.264)"/><path style="stroke:none;fill-rule:nonzero;fill:#dac3c2;fill-opacity:1" d="m7.078 80.355 45.234 20.043-1.16 24.696"/><path style="fill:none;stroke-width:5;stroke-linecap:round;stroke-linejoin:round;stroke:#000;stroke-opacity:1;stroke-miterlimit:10" d="m69.856 1194.252 454.31-201.3-11.652-248.028Zm0 0" transform="matrix(.09957 0 0 -.09957 .123 199.264)"/><path style="stroke:none;fill-rule:nonzero;fill:#aabbe6;fill-opacity:1" d="m48.281 186.063 45.461-31.536 8.84 16.637"/><path style="fill:none;stroke-width:5;stroke-linecap:round;stroke-linejoin:round;stroke:#000;stroke-opacity:1;stroke-miterlimit:10" d="m483.678 132.587 456.586 316.722 88.783-167.09Zm0 0" transform="matrix(.09957 0 0 -.09957 .123 199.264)"/><path style="stroke:none;fill-rule:nonzero;fill:#c3bbd2;fill-opacity:1" d="M48.281 186.063 69.22 143.43l24.523 11.097"/><path style="fill:none;stroke-width:5;stroke-linecap:round;stroke-linejoin:round;stroke:#000;stroke-opacity:1;stroke-miterlimit:10" d="m483.678 132.587 210.286 428.181 246.3-111.459Zm0 0" transform="matrix(.09957 0 0 -.09957 .123 199.264)"/><path style="stroke:none;fill-rule:nonzero;fill:#dac3c2;fill-opacity:1" d="M69.219 143.43 48.28 186.062l2.871-60.968"/><path style="fill:none;stroke-width:5;stroke-linecap:round;stroke-linejoin:round;stroke:#000;stroke-opacity:1;stroke-miterlimit:10" d="M693.964 560.768 483.678 132.587l28.836 612.337Zm0 0" transform="matrix(.09957 0 0 -.09957 .123 199.264)"/><path style="stroke:none;fill-rule:nonzero;fill:#a15571;fill-opacity:1" d="m177.527 9.895-36.695 34-13.207-17.008"/><path style="fill:none;stroke-width:5;stroke-linecap:round;stroke-linejoin:round;stroke:#000;stroke-opacity:1;stroke-miterlimit:10" d="m1781.758 1901.925-368.548-341.478-132.645 170.817Zm0 0" transform="matrix(.09957 0 0 -.09957 .123 199.264)"/><path style="stroke:none;fill-rule:nonzero;fill:#8e588b;fill-opacity:1" d="M177.527 9.895 164.762 54.55l-23.93-10.656"/><path style="fill:none;stroke-width:5;stroke-linecap:round;stroke-linejoin:round;stroke:#000;stroke-opacity:1;stroke-miterlimit:10" d="m1781.758 1901.925-128.211-448.504-240.337 107.026Zm0 0" transform="matrix(.09957 0 0 -.09957 .123 199.264)"/><path style="stroke:none;fill-rule:nonzero;fill:#7180d2;fill-opacity:1" d="m221.277 117.64-47.082 25.266-1.507-19.754"/><path style="fill:none;stroke-width:5;stroke-linecap:round;stroke-linejoin:round;stroke:#000;stroke-opacity:1;stroke-miterlimit:10" d="m2221.16 819.78-472.867-253.755-15.144 198.398Zm0 0" transform="matrix(.09957 0 0 -.09957 .123 199.264)"/><path style="stroke:none;fill-rule:nonzero;fill:#7a6bb5;fill-opacity:1" d="m221.277 117.64-48.59 5.512 9.657-25.03"/><path style="fill:none;stroke-width:5;stroke-linecap:round;stroke-linejoin:round;stroke:#000;stroke-opacity:1;stroke-miterlimit:10" d="m2221.16 819.78-488.01-55.357 96.981 251.4Zm0 0" transform="matrix(.09957 0 0 -.09957 .123 199.264)"/><path style="stroke:none;fill-rule:nonzero;fill:#f8d7a7;fill-opacity:1" d="m51.152 125.094-2.87 60.969-8.45-58.032"/><path style="fill:none;stroke-width:5;stroke-linecap:round;stroke-linejoin:round;stroke:#000;stroke-opacity:1;stroke-miterlimit:10" d="m512.514 744.924-28.836-612.337-84.86 582.835Zm0 0" transform="matrix(.09957 0 0 -.09957 .123 199.264)"/><path style="fill-rule:nonzero;fill:#000;fill-opacity:1;stroke-width:5;stroke-linecap:round;stroke-linejoin:round;stroke:#000;stroke-opacity:1;stroke-miterlimit:10" d="m398.819 715.422 84.86-582.835-55.436 400.365" transform="matrix(.09957 0 0 -.09957 .123 199.264)"/><path style="fill-rule:nonzero;fill:#e7eed1;fill-opacity:1;stroke-width:5;stroke-linecap:round;stroke-linejoin:round;stroke:#000;stroke-opacity:1;stroke-miterlimit:10" d="m370.925 888.672 141.59-143.748-113.696-29.502" transform="matrix(.09957 0 0 -.09957 .123 199.264)"/><path style="fill-rule:nonzero;fill:#000;fill-opacity:1;stroke-width:5;stroke-linecap:round;stroke-linejoin:round;stroke:#000;stroke-opacity:1;stroke-miterlimit:10" d="m428.243 532.952-27.816 200.83-1.608-18.36" transform="matrix(.09957 0 0 -.09957 .123 199.264)"/><path style="fill-rule:nonzero;fill:#e7eed1;fill-opacity:1;stroke-width:5;stroke-linecap:round;stroke-linejoin:round;stroke:#000;stroke-opacity:1;stroke-miterlimit:10" d="m398.819 715.422-328.963 478.83 301.069-305.58" transform="matrix(.09957 0 0 -.09957 .123 199.264)"/><path style="stroke:none;fill-rule:nonzero;fill:#65408f;fill-opacity:1" d="m177.527 9.895 3.426 62.73-16.191-18.074"/><path style="fill:none;stroke-width:5;stroke-linecap:round;stroke-linejoin:round;stroke:#000;stroke-opacity:1;stroke-miterlimit:10" d="m1781.758 1901.925 34.407-630.032-162.618 181.528Zm0 0" transform="matrix(.09957 0 0 -.09957 .123 199.264)"/><path style="stroke:none;fill-rule:nonzero;fill:#cd623f;fill-opacity:1" d="m57.148 56.055-50.07 24.3L60.27 41.957"/><path style="fill:none;stroke-width:5;stroke-linecap:round;stroke-linejoin:round;stroke:#000;stroke-opacity:1;stroke-miterlimit:10" d="m572.736 1438.316-502.88-244.064 534.226 385.654Zm0 0" transform="matrix(.09957 0 0 -.09957 .123 199.264)"/><path style="stroke:none;fill-rule:nonzero;fill:#65408f;fill-opacity:1" d="m180.953 72.625 40.324 45.016-38.933-19.52"/><path style="fill:none;stroke-width:5;stroke-linecap:round;stroke-linejoin:round;stroke:#000;stroke-opacity:1;stroke-miterlimit:10" d="M1816.165 1271.893 2221.16 819.78l-391.029 196.044Zm0 0" transform="matrix(.09957 0 0 -.09957 .123 199.264)"/><path style="stroke:none;fill-rule:nonzero;fill:#6cbdfd;fill-opacity:1" d="m113.61 176.86-65.329 9.202 54.301-14.898"/><path style="fill:none;stroke-width:5;stroke-linecap:round;stroke-linejoin:round;stroke:#000;stroke-opacity:1;stroke-miterlimit:10" d="m1139.8 225.018-656.122-92.431 545.369 149.632Zm0 0" transform="matrix(.09957 0 0 -.09957 .123 199.264)"/><path style="stroke:none;fill-rule:nonzero;fill:#9b241f;fill-opacity:1" d="m111.168 20.797 66.36-10.902-49.903 16.992"/><path style="fill:none;stroke-width:5;stroke-linecap:round;stroke-linejoin:round;stroke:#000;stroke-opacity:1;stroke-miterlimit:10" d="m1115.28 1792.427 666.478 109.498-501.193-170.661Zm0 0" transform="matrix(.09957 0 0 -.09957 .123 199.264)"/><path style="fill-rule:nonzero;fill:#000057;fill-opacity:1;stroke-width:5;stroke-linecap:round;stroke-linejoin:round;stroke:#000;stroke-opacity:1;stroke-miterlimit:10" d="m1871.757 1311.164-55.592-39.271-10.946 200.752" transform="matrix(.09957 0 0 -.09957 .123 199.264)"/><path style="stroke:none;fill-rule:nonzero;fill:#020026;fill-opacity:1" d="m221.277 117.64-40.324-45.015 5.535-3.91"/><path style="fill:none;stroke-width:5;stroke-linecap:round;stroke-linejoin:round;stroke:#000;stroke-opacity:1;stroke-miterlimit:10" d="m2221.16 819.78-404.995 452.113 55.592 39.271Zm0 0" transform="matrix(.09957 0 0 -.09957 .123 199.264)"/><path style="fill-rule:nonzero;fill:#e0fdc1;fill-opacity:1;stroke-width:5;stroke-linecap:round;stroke-linejoin:round;stroke:#000;stroke-opacity:1;stroke-miterlimit:10" d="m1871.757 1311.164-69.206-9.886 139.392-160.382" transform="matrix(.09957 0 0 -.09957 .123 199.264)"/><path style="fill-rule:nonzero;fill:#e0fdc1;fill-opacity:1;stroke-width:5;stroke-linecap:round;stroke-linejoin:round;stroke:#000;stroke-opacity:1;stroke-miterlimit:10" d="M1941.943 1140.896 2221.16 819.78l-349.403 491.384" transform="matrix(.09957 0 0 -.09957 .123 199.264)"/><path style="fill-rule:nonzero;fill:#000057;fill-opacity:1;stroke-width:5;stroke-linecap:round;stroke-linejoin:round;stroke:#000;stroke-opacity:1;stroke-miterlimit:10" d="m1805.219 1472.645-23.461 429.28 89.999-590.76" transform="matrix(.09957 0 0 -.09957 .123 199.264)"/><path style="stroke:none;fill-rule:nonzero;fill:#000;fill-opacity:1" d="M39.992 126.203 7.078 80.355l32.754 47.676"/><path style="fill:none;stroke-width:5;stroke-linecap:round;stroke-linejoin:round;stroke:#000;stroke-opacity:1;stroke-miterlimit:10" d="m400.427 733.782-330.571 460.47 328.963-478.83Zm0 0" transform="matrix(.09957 0 0 -.09957 .123 199.264)"/><path style="stroke:none;fill-rule:nonzero;fill:#3f1979;fill-opacity:1" d="m7.078 80.355 32.914 45.848-3.722-26.906"/><path style="fill:none;stroke-width:5;stroke-linecap:round;stroke-linejoin:round;stroke:#000;stroke-opacity:1;stroke-miterlimit:10" d="m69.856 1194.252 330.571-460.47-37.388 270.233Zm0 0" transform="matrix(.09957 0 0 -.09957 .123 199.264)"/><path style="stroke:none;fill-rule:nonzero;fill:#635bb2;fill-opacity:1" d="M7.078 80.355 36.27 99.297l9.44-27.664"/><path style="fill:none;stroke-width:5;stroke-linecap:round;stroke-linejoin:round;stroke:#000;stroke-opacity:1;stroke-miterlimit:10" d="m69.856 1194.252 293.183-190.237 94.825 277.843Zm0 0" transform="matrix(.09957 0 0 -.09957 .123 199.264)"/><path style="fill-rule:nonzero;fill:#000084;fill-opacity:1;stroke-width:5;stroke-linecap:round;stroke-linejoin:round;stroke:#000;stroke-opacity:1;stroke-miterlimit:10" d="m478.382 1474.606-20.518-192.748 73.52 215.385" transform="matrix(.09957 0 0 -.09957 .123 199.264)"/><path style="fill-rule:nonzero;fill:#0037ac;fill-opacity:1;stroke-width:5;stroke-linecap:round;stroke-linejoin:round;stroke:#000;stroke-opacity:1;stroke-miterlimit:10" d="m478.382 1474.606 125.7 105.3L428.91 1453.42" transform="matrix(.09957 0 0 -.09957 .123 199.264)"/><path style="stroke:none;fill-rule:nonzero;fill:#e57b1a;fill-opacity:1" d="m47.754 52.441 20.7-47.453-8.184 36.969"/><path style="fill:none;stroke-width:5;stroke-linecap:round;stroke-linejoin:round;stroke:#000;stroke-opacity:1;stroke-miterlimit:10" d="M478.382 1474.606 686.274 1951.2l-82.192-371.294Zm0 0" transform="matrix(.09957 0 0 -.09957 .123 199.264)"/><path style="fill-rule:nonzero;fill:#000084;fill-opacity:1;stroke-width:5;stroke-linecap:round;stroke-linejoin:round;stroke:#000;stroke-opacity:1;stroke-miterlimit:10" d="m531.385 1497.243 154.89 453.957-207.893-476.594" transform="matrix(.09957 0 0 -.09957 .123 199.264)"/><path style="fill-rule:nonzero;fill:#0037ac;fill-opacity:1;stroke-width:5;stroke-linecap:round;stroke-linejoin:round;stroke:#000;stroke-opacity:1;stroke-miterlimit:10" d="M428.91 1453.42 69.856 1194.253l408.526 280.354" transform="matrix(.09957 0 0 -.09957 .123 199.264)"/><path style="stroke:none;fill-rule:nonzero;fill:#5072d6;fill-opacity:1" d="M47.754 52.441 7.078 80.355l38.633-8.722"/><path style="fill:none;stroke-width:5;stroke-linecap:round;stroke-linejoin:round;stroke:#000;stroke-opacity:1;stroke-miterlimit:10" d="M478.382 1474.606 69.856 1194.252l388.008 87.606Zm0 0" transform="matrix(.09957 0 0 -.09957 .123 199.264)"/><path style="stroke:none;fill-rule:nonzero;fill:#cd623f;fill-opacity:1" d="m68.453 4.988 14.774 20.399-22.957 16.57"/><path style="fill:none;stroke-width:5;stroke-linecap:round;stroke-linejoin:round;stroke:#000;stroke-opacity:1;stroke-miterlimit:10" d="m686.274 1951.2 148.377-204.87-230.569-166.424Zm0 0" transform="matrix(.09957 0 0 -.09957 .123 199.264)"/><path style="stroke:none;fill-rule:nonzero;fill:#80437c;fill-opacity:1" d="M48.281 186.063 80.5 160.101l-25.527-13.04"/><path style="fill:none;stroke-width:5;stroke-linecap:round;stroke-linejoin:round;stroke:#000;stroke-opacity:1;stroke-miterlimit:10" d="m483.678 132.587 323.589 260.737-256.384 130.958Zm0 0" transform="matrix(.09957 0 0 -.09957 .123 199.264)"/><path style="fill-rule:nonzero;fill:#6a0000;fill-opacity:1;stroke-width:5;stroke-linecap:round;stroke-linejoin:round;stroke:#000;stroke-opacity:1;stroke-miterlimit:10" d="m924.336 194.691 215.464 30.327-175.447 16.281" transform="matrix(.09957 0 0 -.09957 .123 199.264)"/><path style="stroke:none;fill-rule:nonzero;fill:#6adce5;fill-opacity:1" d="m142.7 191.871-46.56-16.633 17.47 1.621"/><path style="fill:none;stroke-width:5;stroke-linecap:round;stroke-linejoin:round;stroke:#000;stroke-opacity:1;stroke-miterlimit:10" d="M1431.963 74.248 964.353 241.3l175.447-16.281Zm0 0" transform="matrix(.09957 0 0 -.09957 .123 199.264)"/><path style="fill-rule:nonzero;fill:#280000;fill-opacity:1;stroke-width:5;stroke-linecap:round;stroke-linejoin:round;stroke:#000;stroke-opacity:1;stroke-miterlimit:10" d="m964.353 241.3 467.61-167.052-424.73 216.916" transform="matrix(.09957 0 0 -.09957 .123 199.264)"/><path style="fill-rule:nonzero;fill:#280000;fill-opacity:1;stroke-width:5;stroke-linecap:round;stroke-linejoin:round;stroke:#000;stroke-opacity:1;stroke-miterlimit:10" d="m1007.234 291.164-199.967 102.16L964.353 241.3" transform="matrix(.09957 0 0 -.09957 .123 199.264)"/><path style="fill-rule:nonzero;fill:#6a0000;fill-opacity:1;stroke-width:5;stroke-linecap:round;stroke-linejoin:round;stroke:#000;stroke-opacity:1;stroke-miterlimit:10" d="M964.353 241.3 483.678 132.586l440.658 62.104" transform="matrix(.09957 0 0 -.09957 .123 199.264)"/><path style="stroke:none;fill-rule:nonzero;fill:#963b56;fill-opacity:1" d="m48.281 186.063 47.86-10.825L80.5 160.102"/><path style="fill:none;stroke-width:5;stroke-linecap:round;stroke-linejoin:round;stroke:#000;stroke-opacity:1;stroke-miterlimit:10" d="m483.678 132.587 480.675 108.712-157.086 152.025Zm0 0" transform="matrix(.09957 0 0 -.09957 .123 199.264)"/><path style="stroke:none;fill-rule:nonzero;fill:#3f1979;fill-opacity:1" d="m48.281 186.063 6.692-39-14.98-20.86"/><path style="fill:none;stroke-width:5;stroke-linecap:round;stroke-linejoin:round;stroke:#000;stroke-opacity:1;stroke-miterlimit:10" d="m483.678 132.587 67.205 391.695-150.456 209.5Zm0 0" transform="matrix(.09957 0 0 -.09957 .123 199.264)"/><path style="fill-rule:nonzero;fill:#199fe0;fill-opacity:1;stroke-width:5;stroke-linecap:round;stroke-linejoin:round;stroke:#000;stroke-opacity:1;stroke-miterlimit:10" d="m1232.702 1787.64 549.056 114.285-450.505-74.032" transform="matrix(.09957 0 0 -.09957 .123 199.264)"/><path style="fill-rule:nonzero;fill:#199fe0;fill-opacity:1;stroke-width:5;stroke-linecap:round;stroke-linejoin:round;stroke:#000;stroke-opacity:1;stroke-miterlimit:10" d="m1331.253 1827.893-215.974-35.466 117.423-4.786" transform="matrix(.09957 0 0 -.09957 .123 199.264)"/><path style="stroke:none;fill-rule:nonzero;fill:#0b0000;fill-opacity:1" d="m68.453 4.988 54.406 16.285-11.691-.476"/><path style="fill:none;stroke-width:5;stroke-linecap:round;stroke-linejoin:round;stroke:#000;stroke-opacity:1;stroke-miterlimit:10" d="m686.274 1951.2 546.428-163.56-117.423 4.787Zm0 0" transform="matrix(.09957 0 0 -.09957 .123 199.264)"/><path style="fill-rule:nonzero;fill:#bcf1f2;fill-opacity:1;stroke-width:5;stroke-linecap:round;stroke-linejoin:round;stroke:#000;stroke-opacity:1;stroke-miterlimit:10" d="M1232.702 1787.64 686.274 1951.2l441.207-206.519" transform="matrix(.09957 0 0 -.09957 .123 199.264)"/><path style="fill-rule:nonzero;fill:#bcf1f2;fill-opacity:1;stroke-width:5;stroke-linecap:round;stroke-linejoin:round;stroke:#000;stroke-opacity:1;stroke-miterlimit:10" d="m1127.48 1744.681 212.13-99.297-106.908 142.257" transform="matrix(.09957 0 0 -.09957 .123 199.264)"/><path style="stroke:none;fill-rule:nonzero;fill:#6cbdfd;fill-opacity:1" d="m141.898 172.871.801 19-29.09-15.012"/><path style="fill:none;stroke-width:5;stroke-linecap:round;stroke-linejoin:round;stroke:#000;stroke-opacity:1;stroke-miterlimit:10" d="m1423.92 265.074 8.043-190.826-292.163 150.77Zm0 0" transform="matrix(.09957 0 0 -.09957 .123 199.264)"/><path style="stroke:none;fill-rule:nonzero;fill:#fde08a;fill-opacity:1" d="m186.488 68.715-8.96-58.82 2.07 59.804"/><path style="fill:none;stroke-width:5;stroke-linecap:round;stroke-linejoin:round;stroke:#000;stroke-opacity:1;stroke-miterlimit:10" d="m1871.757 1311.164-90 590.76 20.794-600.646Zm0 0" transform="matrix(.09957 0 0 -.09957 .123 199.264)"/><path style="stroke:none;fill-rule:nonzero;fill:#e3cfc3;fill-opacity:1" d="M177.527 9.895 160.992 48.3l18.606 21.398"/><path style="fill:none;stroke-width:5;stroke-linecap:round;stroke-linejoin:round;stroke:#000;stroke-opacity:1;stroke-miterlimit:10" d="m1781.758 1901.925-166.07-385.733 186.863-214.914Zm0 0" transform="matrix(.09957 0 0 -.09957 .123 199.264)"/><path style="stroke:none;fill-rule:nonzero;fill:#c6c5d9;fill-opacity:1" d="m177.527 9.895-44.023 25.543L160.992 48.3"/><path style="fill:none;stroke-width:5;stroke-linecap:round;stroke-linejoin:round;stroke:#000;stroke-opacity:1;stroke-miterlimit:10" d="m1781.758 1901.925-442.148-256.54 276.078-129.193Zm0 0" transform="matrix(.09957 0 0 -.09957 .123 199.264)"/><path style="stroke:none;fill-rule:nonzero;fill:#a2c5f2;fill-opacity:1" d="M177.527 9.895 122.86 21.273l10.645 14.165"/><path style="fill:none;stroke-width:5;stroke-linecap:round;stroke-linejoin:round;stroke:#000;stroke-opacity:1;stroke-miterlimit:10" d="m1781.758 1901.925-549.056-114.284 106.908-142.257Zm0 0" transform="matrix(.09957 0 0 -.09957 .123 199.264)"/><path style="stroke:none;fill-rule:nonzero;fill:#bb3500;fill-opacity:1" d="m221.277 117.64-48.73 27.47-7.074 11.359"/><path style="fill:none;stroke-width:5;stroke-linecap:round;stroke-linejoin:round;stroke:#000;stroke-opacity:1;stroke-miterlimit:10" d="m2221.16 819.78-489.423-275.882-71.05-114.087Zm0 0" transform="matrix(.09957 0 0 -.09957 .123 199.264)"/><path style="stroke:none;fill-rule:nonzero;fill:#9b3000;fill-opacity:1" d="m142.7 191.871 22.773-35.402 7.074-11.36"/><path style="fill:none;stroke-width:5;stroke-linecap:round;stroke-linejoin:round;stroke:#000;stroke-opacity:1;stroke-miterlimit:10" d="m1431.963 74.248 228.724 355.563 71.05 114.087Zm0 0" transform="matrix(.09957 0 0 -.09957 .123 199.264)"/><path style="stroke:none;fill-rule:nonzero;fill:#d7897a;fill-opacity:1" d="m172.547 145.11 48.73-27.47-51.89 7.137"/><path style="fill:none;stroke-width:5;stroke-linecap:round;stroke-linejoin:round;stroke:#000;stroke-opacity:1;stroke-miterlimit:10" d="M1731.737 543.898 2221.16 819.78l-521.162-71.678Zm0 0" transform="matrix(.09957 0 0 -.09957 .123 199.264)"/><path style="stroke:none;fill-rule:nonzero;fill:#daaca7;fill-opacity:1" d="m221.277 117.64-40.742-20.902-11.148 28.04"/><path style="fill:none;stroke-width:5;stroke-linecap:round;stroke-linejoin:round;stroke:#000;stroke-opacity:1;stroke-miterlimit:10" d="m2221.16 819.78-409.193 209.932-111.97-281.61Zm0 0" transform="matrix(.09957 0 0 -.09957 .123 199.264)"/><path style="stroke:none;fill-rule:nonzero;fill:#e3cfc3;fill-opacity:1" d="m221.277 117.64-41.68-47.94.938 27.038"/><path style="fill:none;stroke-width:5;stroke-linecap:round;stroke-linejoin:round;stroke:#000;stroke-opacity:1;stroke-miterlimit:10" d="m2221.16 819.78-418.609 481.498 9.416-271.566Zm0 0" transform="matrix(.09957 0 0 -.09957 .123 199.264)"/><path style="stroke:none;fill-rule:nonzero;fill:#000;fill-opacity:1" d="m40.422 121.309-.43 4.894 14.98 20.86"/><path style="fill:none;stroke-width:5;stroke-linecap:round;stroke-linejoin:round;stroke:#000;stroke-opacity:1;stroke-miterlimit:10" d="m404.743 782.94-4.316-49.158 150.456-209.5Zm0 0" transform="matrix(.09957 0 0 -.09957 .123 199.264)"/><path style="stroke:none;fill-rule:nonzero;fill:#000;fill-opacity:1" d="M40.422 121.309 36.27 99.297l3.722 26.906"/><path style="fill:none;stroke-width:5;stroke-linecap:round;stroke-linejoin:round;stroke:#000;stroke-opacity:1;stroke-miterlimit:10" d="m404.743 782.94-41.704 221.075 37.388-270.233Zm0 0" transform="matrix(.09957 0 0 -.09957 .123 199.264)"/><path style="stroke:none;fill-rule:nonzero;fill:#000084;fill-opacity:1" d="m40.422 121.309 5.289-49.676-9.441 27.664"/><path style="fill:none;stroke-width:5;stroke-linecap:round;stroke-linejoin:round;stroke:#000;stroke-opacity:1;stroke-miterlimit:10" d="m404.743 782.94 53.12 498.918-94.824-277.843Zm0 0" transform="matrix(.09957 0 0 -.09957 .123 199.264)"/><path style="stroke:none;fill-rule:nonzero;fill:#f7af75;fill-opacity:1" d="m169.387 124.777-26.688 67.094 29.848-46.762"/><path style="fill:none;stroke-width:5;stroke-linecap:round;stroke-linejoin:round;stroke:#000;stroke-opacity:1;stroke-miterlimit:10" d="M1699.998 748.102 1431.963 74.248l299.774 469.65Zm0 0" transform="matrix(.09957 0 0 -.09957 .123 199.264)"/><path style="stroke:none;fill-rule:nonzero;fill:#280000;fill-opacity:1" d="m40.422 121.309 14.55 25.754L80.5 160.101"/><path style="fill:none;stroke-width:5;stroke-linecap:round;stroke-linejoin:round;stroke:#000;stroke-opacity:1;stroke-miterlimit:10" d="m404.743 782.94 146.14-258.658 256.384-130.958Zm0 0" transform="matrix(.09957 0 0 -.09957 .123 199.264)"/><path style="stroke:none;fill-rule:nonzero;fill:#e0fdc1;fill-opacity:1" d="m161.227 72.332 18.37-2.633-18.605-21.398"/><path style="fill:none;stroke-width:5;stroke-linecap:round;stroke-linejoin:round;stroke:#000;stroke-opacity:1;stroke-miterlimit:10" d="m1618.041 1274.835 184.51 26.443-186.863 214.914Zm0 0" transform="matrix(.09957 0 0 -.09957 .123 199.264)"/><path style="stroke:none;fill-rule:nonzero;fill:#fde08a;fill-opacity:1" d="m161.227 72.332 19.308 24.406-.937-27.039"/><path style="fill:none;stroke-width:5;stroke-linecap:round;stroke-linejoin:round;stroke:#000;stroke-opacity:1;stroke-miterlimit:10" d="m1618.041 1274.835 193.926-245.123-9.416 271.566Zm0 0" transform="matrix(.09957 0 0 -.09957 .123 199.264)"/><path style="stroke:none;fill-rule:nonzero;fill:#635bb2;fill-opacity:1" d="M68.453 4.988 45.711 71.633l18.21-4.106"/><path style="fill:none;stroke-width:5;stroke-linecap:round;stroke-linejoin:round;stroke:#000;stroke-opacity:1;stroke-miterlimit:10" d="m686.274 1951.2-228.41-669.342 182.9 41.233Zm0 0" transform="matrix(.09957 0 0 -.09957 .123 199.264)"/><path style="stroke:none;fill-rule:nonzero;fill:#5072d6;fill-opacity:1" d="m45.71 71.633-5.288 49.676 23.5-53.782"/><path style="fill:none;stroke-width:5;stroke-linecap:round;stroke-linejoin:round;stroke:#000;stroke-opacity:1;stroke-miterlimit:10" d="M457.864 1281.858 404.743 782.94l236.022 540.15Zm0 0" transform="matrix(.09957 0 0 -.09957 .123 199.264)"/><path style="stroke:none;fill-rule:nonzero;fill:#963b56;fill-opacity:1" d="M40.422 121.309 80.5 160.102l15.152-12.211"/><path style="fill:none;stroke-width:5;stroke-linecap:round;stroke-linejoin:round;stroke:#000;stroke-opacity:1;stroke-miterlimit:10" d="m404.743 782.94 402.524-389.616 152.182 122.64Zm0 0" transform="matrix(.09957 0 0 -.09957 .123 199.264)"/><path style="stroke:none;fill-rule:nonzero;fill:#80437c;fill-opacity:1" d="m142.7 191.871-47.048-43.98L80.5 160.1"/><path style="fill:none;stroke-width:5;stroke-linecap:round;stroke-linejoin:round;stroke:#000;stroke-opacity:1;stroke-miterlimit:10" d="M1431.963 74.248 959.449 515.965l-152.182-122.64Zm0 0" transform="matrix(.09957 0 0 -.09957 .123 199.264)"/><path style="stroke:none;fill-rule:nonzero;fill:#bcf1f2;fill-opacity:1" d="m161.227 72.332-.235-24.031-27.488-12.864"/><path style="fill:none;stroke-width:5;stroke-linecap:round;stroke-linejoin:round;stroke:#000;stroke-opacity:1;stroke-miterlimit:10" d="m1618.041 1274.835-2.353 241.357-276.078 129.192Zm0 0" transform="matrix(.09957 0 0 -.09957 .123 199.264)"/><path style="stroke:none;fill-rule:nonzero;fill:#a2c5f2;fill-opacity:1" d="m113.113 47.266 48.114 25.066-27.723-36.894"/><path style="fill:none;stroke-width:5;stroke-linecap:round;stroke-linejoin:round;stroke:#000;stroke-opacity:1;stroke-miterlimit:10" d="m1134.817 1526.589 483.224-251.754-278.431 370.55Zm0 0" transform="matrix(.09957 0 0 -.09957 .123 199.264)"/><path style="stroke:none;fill-rule:nonzero;fill:#c6c5d9;fill-opacity:1" d="m133.504 35.438-65.05-30.45 44.66 42.278"/><path style="fill:none;stroke-width:5;stroke-linecap:round;stroke-linejoin:round;stroke:#000;stroke-opacity:1;stroke-miterlimit:10" d="M1339.61 1645.384 686.274 1951.2l448.543-424.611Zm0 0" transform="matrix(.09957 0 0 -.09957 .123 199.264)"/><path style="stroke:none;fill-rule:nonzero;fill:#f7af75;fill-opacity:1" d="m161.227 72.332 8.16 52.445 11.148-28.039"/><path style="fill:none;stroke-width:5;stroke-linecap:round;stroke-linejoin:round;stroke:#000;stroke-opacity:1;stroke-miterlimit:10" d="m1618.041 1274.835 81.957-526.733 111.969 281.61Zm0 0" transform="matrix(.09957 0 0 -.09957 .123 199.264)"/><path style="stroke:none;fill-rule:nonzero;fill:#d7897a;fill-opacity:1" d="m161.227 72.332-15.825 55.742 23.985-3.297"/><path style="fill:none;stroke-width:5;stroke-linecap:round;stroke-linejoin:round;stroke:#000;stroke-opacity:1;stroke-miterlimit:10" d="m1618.041 1274.835-158.93-559.845 240.887 33.112Zm0 0" transform="matrix(.09957 0 0 -.09957 .123 199.264)"/><path style="stroke:none;fill-rule:nonzero;fill:#daaca7;fill-opacity:1" d="m142.7 191.871 26.687-67.094-23.985 3.297"/><path style="fill:none;stroke-width:5;stroke-linecap:round;stroke-linejoin:round;stroke:#000;stroke-opacity:1;stroke-miterlimit:10" d="m1431.963 74.248 268.035 673.854-240.887-33.112Zm0 0" transform="matrix(.09957 0 0 -.09957 .123 199.264)"/><path style="stroke:none;fill-rule:nonzero;fill:#b4a2c6;fill-opacity:1" d="m68.453 4.988 23.414 63.918 21.246-21.64"/><path style="fill:none;stroke-width:5;stroke-linecap:round;stroke-linejoin:round;stroke:#000;stroke-opacity:1;stroke-miterlimit:10" d="m686.274 1951.2 235.159-641.958 213.384 217.347Zm0 0" transform="matrix(.09957 0 0 -.09957 .123 199.264)"/><path style="stroke:none;fill-rule:nonzero;fill:#9984bb;fill-opacity:1" d="m68.453 4.988-4.531 62.54 27.945 1.378"/><path style="fill:none;stroke-width:5;stroke-linecap:round;stroke-linejoin:round;stroke:#000;stroke-opacity:1;stroke-miterlimit:10" d="m686.274 1951.2-45.51-628.109 280.669-13.849Zm0 0" transform="matrix(.09957 0 0 -.09957 .123 199.264)"/><path style="stroke:none;fill-rule:nonzero;fill:#979dd8;fill-opacity:1" d="m63.922 67.527-23.5 53.782 51.445-52.403"/><path style="fill:none;stroke-width:5;stroke-linecap:round;stroke-linejoin:round;stroke:#000;stroke-opacity:1;stroke-miterlimit:10" d="m640.765 1323.091-236.022-540.15 516.69 526.301Zm0 0" transform="matrix(.09957 0 0 -.09957 .123 199.264)"/><path style="stroke:none;fill-rule:nonzero;fill:#be96ad;fill-opacity:1" d="M114.578 126.09 142.7 191.87l2.703-63.797"/><path style="fill:none;stroke-width:5;stroke-linecap:round;stroke-linejoin:round;stroke:#000;stroke-opacity:1;stroke-miterlimit:10" d="m1149.53 734.92 282.433-660.672 27.148 640.742Zm0 0" transform="matrix(.09957 0 0 -.09957 .123 199.264)"/><path style="stroke:none;fill-rule:nonzero;fill:#a478a2;fill-opacity:1" d="m142.7 191.871-28.122-65.781-18.926 21.8"/><path style="fill:none;stroke-width:5;stroke-linecap:round;stroke-linejoin:round;stroke:#000;stroke-opacity:1;stroke-miterlimit:10" d="M1431.963 74.248 1149.529 734.92 959.45 515.965Zm0 0" transform="matrix(.09957 0 0 -.09957 .123 199.264)"/><path style="stroke:none;fill-rule:nonzero;fill:#b9798c;fill-opacity:1" d="m40.422 121.309 55.23 26.582 18.926-21.801"/><path style="fill:none;stroke-width:5;stroke-linecap:round;stroke-linejoin:round;stroke:#000;stroke-opacity:1;stroke-miterlimit:10" d="m404.743 782.94 554.706-266.975 190.08 218.955Zm0 0" transform="matrix(.09957 0 0 -.09957 .123 199.264)"/><path style="stroke:none;fill-rule:nonzero;fill:#979dd8;fill-opacity:1" d="m161.227 72.332-48.114-25.066-21.246 21.64"/><path style="fill:none;stroke-width:5;stroke-linecap:round;stroke-linejoin:round;stroke:#000;stroke-opacity:1;stroke-miterlimit:10" d="m1618.041 1274.835-483.224 251.754-213.384-217.347Zm0 0" transform="matrix(.09957 0 0 -.09957 .123 199.264)"/><path style="stroke:none;fill-rule:nonzero;fill:#b9798c;fill-opacity:1" d="m145.402 128.074 15.825-55.742-46.649 53.758"/><path style="fill:none;stroke-width:5;stroke-linecap:round;stroke-linejoin:round;stroke:#000;stroke-opacity:1;stroke-miterlimit:10" d="m1459.111 714.99 158.93 559.845L1149.53 734.92Zm0 0" transform="matrix(.09957 0 0 -.09957 .123 199.264)"/><path style="stroke:none;fill-rule:nonzero;fill:#9984bb;fill-opacity:1" d="m102.27 97.305 58.957-24.973-69.36-3.426"/><path style="fill:none;stroke-width:5;stroke-linecap:round;stroke-linejoin:round;stroke:#000;stroke-opacity:1;stroke-miterlimit:10" d="m1025.908 1024.023 592.133 250.812-696.608 34.407Zm0 0" transform="matrix(.09957 0 0 -.09957 .123 199.264)"/><path style="stroke:none;fill-rule:nonzero;fill:#b4a2c6;fill-opacity:1" d="m40.422 121.309 61.848-24.004-10.403-28.399"/><path style="fill:none;stroke-width:5;stroke-linecap:round;stroke-linejoin:round;stroke:#000;stroke-opacity:1;stroke-miterlimit:10" d="m404.743 782.94 621.165 241.083-104.475 285.219Zm0 0" transform="matrix(.09957 0 0 -.09957 .123 199.264)"/><path style="stroke:none;fill-rule:nonzero;fill:#be96ad;fill-opacity:1" d="m102.27 97.305-61.848 24.004 74.156 4.78"/><path style="fill:none;stroke-width:5;stroke-linecap:round;stroke-linejoin:round;stroke:#000;stroke-opacity:1;stroke-miterlimit:10" d="M1025.908 1024.023 404.743 782.941l744.786-48.02Zm0 0" transform="matrix(.09957 0 0 -.09957 .123 199.264)"/><path style="stroke:none;fill-rule:nonzero;fill:#a478a2;fill-opacity:1" d="m114.578 126.09 46.649-53.758-58.957 24.973"/><path style="fill:none;stroke-width:5;stroke-linecap:round;stroke-linejoin:round;stroke:#000;stroke-opacity:1;stroke-miterlimit:10" d="m1149.53 734.92 468.511 539.915-592.133-250.812Zm0 0" transform="matrix(.09957 0 0 -.09957 .123 199.264)"/></svg>