<svg xmlns="http://www.w3.org/2000/svg" width="203pt" height="200pt" viewBox="0 0 203 200" version="1.2"><path style="fill-rule:nonzero;fill:#b296ba;fill-opacity:1;stroke-width:5.95555;stroke-linecap:round;stroke-linejoin:round;stroke:#000;stroke-opacity:1;stroke-miterlimit:10" d="m613.594 763.71 204.297 486.954 527.968-35.508" transform="matrix(.1 0 0 -.1 0 200)"/><path style="stroke:none;fill-rule:nonzero;fill:#c98080;fill-opacity:1" d="m81.79 74.934-47.313 6.078 45.46-68.418"/><path style="fill:none;stroke-width:5.95555;stroke-linecap:round;stroke-linejoin:round;stroke:#000;stroke-opacity:1;stroke-miterlimit:10" d="m817.89 1250.664-473.124-60.781" transform="matrix(.1 0 0 -.1 0 200)"/><path style="fill-rule:nonzero;fill:#c98080;fill-opacity:1;stroke-width:5.95555;stroke-linecap:round;stroke-linejoin:round;stroke:#000;stroke-opacity:1;stroke-miterlimit:10" d="m799.375 1874.063 298.984-221.954-280.468-401.445" transform="matrix(.1 0 0 -.1 0 200)"/><path style="stroke:none;fill-rule:nonzero;fill:#b296ba;fill-opacity:1" d="m101.91 158.016-40.55-34.387 73.226-45.145"/><path style="fill:none;stroke-width:5.95555;stroke-linecap:round;stroke-linejoin:round;stroke:#000;stroke-opacity:1;stroke-miterlimit:10" d="M1019.102 419.844 613.594 763.71" transform="matrix(.1 0 0 -.1 0 200)"/><path style="fill-rule:nonzero;fill:#b296ba;fill-opacity:1;stroke-width:5.95555;stroke-linecap:round;stroke-linejoin:round;stroke:#000;stroke-opacity:1;stroke-miterlimit:10" d="M1345.86 1215.156 1475.312 702.5l-456.211-282.656" transform="matrix(.1 0 0 -.1 0 200)"/><path style="stroke:none;fill-rule:nonzero;fill:#eed7ba;fill-opacity:1" d="m147.531 129.75-12.945-51.266-19.399 14.157"/><path style="fill:none;stroke-width:5.95555;stroke-linecap:round;stroke-linejoin:round;stroke:#000;stroke-opacity:1;stroke-miterlimit:10" d="m1475.313 702.5-129.454 512.656" transform="matrix(.1 0 0 -.1 0 200)"/><path style="fill-rule:nonzero;fill:#5462c3;fill-opacity:1;stroke-width:5.95555;stroke-linecap:round;stroke-linejoin:round;stroke:#000;stroke-opacity:1;stroke-miterlimit:10" d="m1475.313 702.5 305.703 389.688 192.265-181.563" transform="matrix(.1 0 0 -.1 0 200)"/><path style="stroke:none;fill-rule:nonzero;fill:#5462c3;fill-opacity:1" d="m144.582 173.926 2.95-44.176 49.796-20.813"/><path style="fill:none;stroke-width:5.95555;stroke-linecap:round;stroke-linejoin:round;stroke:#000;stroke-opacity:1;stroke-miterlimit:10" d="m1445.82 260.742 29.493 441.758" transform="matrix(.1 0 0 -.1 0 200)"/><path style="stroke:none;fill-rule:nonzero;fill:#95d3fd;fill-opacity:1" d="M115.188 92.64 81.788 74.935l20.121 27.398"/><path style="stroke:none;fill-rule:nonzero;fill:#95d3fd;fill-opacity:1" d="m134.586 78.484-52.797-3.55 33.398 17.707"/><path style="fill:none;stroke-width:5.95555;stroke-linecap:round;stroke-linejoin:round;stroke:#000;stroke-opacity:1;stroke-miterlimit:10" d="m1345.86 1215.156-527.97 35.508" transform="matrix(.1 0 0 -.1 0 200)"/><path style="stroke:none;fill-rule:nonzero;fill:#cb7b75;fill-opacity:1" d="m147.531 129.75-45.62 28.266v-55.684"/><path style="fill:none;stroke-width:5.95555;stroke-linecap:round;stroke-linejoin:round;stroke:#000;stroke-opacity:1;stroke-miterlimit:10" d="m1475.313 702.5-456.211-282.656" transform="matrix(.1 0 0 -.1 0 200)"/><path style="stroke:none;fill-rule:nonzero;fill:#95d3fd;fill-opacity:1" d="m126.445 98.61 8.14-20.126-19.398 14.157M150.074 95.027l-15.488-16.543-8.14 20.125"/><path style="stroke:none;fill-rule:nonzero;fill:#eed7ba;fill-opacity:1" d="m144.582 173.926 2.95-44.176-32.345-37.11"/><path style="fill:none;stroke-width:5.95555;stroke-linecap:round;stroke-linejoin:round;stroke:#000;stroke-opacity:1;stroke-miterlimit:10" d="m1445.82 260.742 29.493 441.758" transform="matrix(.1 0 0 -.1 0 200)"/><path style="stroke:none;fill-rule:nonzero;fill:#eed7ba;fill-opacity:1" d="m104.484 80.363 6.555 15.301 4.148-3.023M111.04 95.664l33.542 78.262-29.394-81.285"/><path style="stroke:none;fill-rule:nonzero;fill:#3a52c0;fill-opacity:1" d="m105.078 75.328-3.168 27.004-20.12-27.398"/><path style="stroke:none;fill-rule:nonzero;fill:#eed7ba;fill-opacity:1" d="m106.945 59.406 8.243 33.235 19.398-14.157"/><path style="stroke:none;fill-rule:nonzero;fill:#3a52c0;fill-opacity:1" d="m81.79 74.934 28.046-40.145-3.816 32.508"/><path style="fill:none;stroke-width:5.95555;stroke-linecap:round;stroke-linejoin:round;stroke:#000;stroke-opacity:1;stroke-miterlimit:10" d="m817.89 1250.664 280.47 401.445" transform="matrix(.1 0 0 -.1 0 200)"/><path style="stroke:none;fill-rule:nonzero;fill:#eed7ba;fill-opacity:1" d="m104.484 80.363 10.704 12.278-8.243-33.235"/><path style="fill-rule:nonzero;fill:#80457f;fill-opacity:1;stroke-width:5.95555;stroke-linecap:round;stroke-linejoin:round;stroke:#000;stroke-opacity:1;stroke-miterlimit:10" d="m1781.016 1092.188-435.157 122.968-247.5 436.953" transform="matrix(.1 0 0 -.1 0 200)"/><path style="stroke:none;fill-rule:nonzero;fill:#eed7ba;fill-opacity:1" d="m134.586 78.484-24.75-43.695-2.89 24.617"/><path style="fill:none;stroke-width:5.95555;stroke-linecap:round;stroke-linejoin:round;stroke:#000;stroke-opacity:1;stroke-miterlimit:10" d="m1345.86 1215.156-247.5 436.953" transform="matrix(.1 0 0 -.1 0 200)"/><path style="stroke:none;fill-rule:nonzero;fill:#eed7ba;fill-opacity:1" d="m101.91 102.332 42.672 71.594-33.543-78.262"/><path style="stroke:none;fill-rule:nonzero;fill:#eed7ba;fill-opacity:1" d="m101.91 102.332 9.13-6.668-6.556-15.3"/><path style="stroke:none;fill-rule:nonzero;fill:#3a52c0;fill-opacity:1" d="m61.36 123.629 20.43-48.695 20.12 27.398"/><path style="fill:none;stroke-width:5.95555;stroke-linecap:round;stroke-linejoin:round;stroke:#000;stroke-opacity:1;stroke-miterlimit:10" d="m613.594 763.71 204.297 486.954" transform="matrix(.1 0 0 -.1 0 200)"/><path style="fill-rule:nonzero;fill:#e8cfbc;fill-opacity:1;stroke-width:5.95555;stroke-linecap:round;stroke-linejoin:round;stroke:#000;stroke-opacity:1;stroke-miterlimit:10" d="M344.766 1189.883 613.594 763.71l-68.477-435.977" transform="matrix(.1 0 0 -.1 0 200)"/><path style="stroke:none;fill-rule:nonzero;fill:#cb7b75;fill-opacity:1" d="m132.102 97.754 15.43 31.996-21.087-31.14M126.445 98.61l21.086 31.14-45.62-27.418"/><path style="stroke:none;fill-rule:nonzero;fill:#cb7b75;fill-opacity:1" d="m178.102 90.781-30.57 38.969-15.43-31.996"/><path style="fill:none;stroke-width:5.95555;stroke-linecap:round;stroke-linejoin:round;stroke:#000;stroke-opacity:1;stroke-miterlimit:10" d="M1781.016 1092.188 1475.312 702.5" transform="matrix(.1 0 0 -.1 0 200)"/><path style="fill-rule:nonzero;fill:#5462c3;fill-opacity:1;stroke-width:5.95555;stroke-linecap:round;stroke-linejoin:round;stroke:#000;stroke-opacity:1;stroke-miterlimit:10" d="m1973.281 910.625-218.906-548.79-308.555-101.093" transform="matrix(.1 0 0 -.1 0 200)"/><path style="stroke:none;fill-rule:nonzero;fill:#b297bb;fill-opacity:1" d="m175.438 163.816 21.89-54.879-47.875-3.312"/><path style="fill:none;stroke-width:5.95555;stroke-linecap:round;stroke-linejoin:round;stroke:#000;stroke-opacity:1;stroke-miterlimit:10" d="m1754.375 361.836 218.906 548.789" transform="matrix(.1 0 0 -.1 0 200)"/><path style="stroke:none;fill-rule:nonzero;fill:#95d3fd;fill-opacity:1" d="m178.102 90.781-43.516-12.297 26.137 27.918"/><path style="fill:none;stroke-width:5.95555;stroke-linecap:round;stroke-linejoin:round;stroke:#000;stroke-opacity:1;stroke-miterlimit:10" d="m1781.016 1092.188-435.157 122.968" transform="matrix(.1 0 0 -.1 0 200)"/><path style="stroke:none;fill-rule:nonzero;fill:#95d3fd;fill-opacity:1" d="M180.031 127.027 179 107.668l-18.277-1.266"/><path style="stroke:none;fill-rule:nonzero;fill:#95d3fd;fill-opacity:1" d="m179 107.668-.898-16.887-17.38 15.621"/><path style="stroke:none;fill-rule:nonzero;fill:#cb7b75;fill-opacity:1" d="m126.883 86.926 51.219 3.855-46 6.973"/><path style="stroke:none;fill-rule:nonzero;fill:#cb7b75;fill-opacity:1" d="m151.793 71.566 26.309 19.215-51.22-3.855"/><path style="stroke:none;fill-rule:nonzero;fill:#95d3fd;fill-opacity:1" d="m138.195 104.844 11.88-9.817-23.63 3.582"/><path style="stroke:none;fill-rule:nonzero;fill:#b297bb;fill-opacity:1" d="m115.66 69.156 11.223 17.77-2.797-38.102"/><path style="stroke:none;fill-rule:nonzero;fill:#95d3fd;fill-opacity:1" d="m126.445 98.61-11.257-5.97-13.278 9.692"/><path style="stroke:none;fill-rule:nonzero;fill:#cb7b75;fill-opacity:1" d="m126.883 86.926 5.219 10.828-30.192 4.578"/><path style="fill-rule:nonzero;fill:#a1cdf6;fill-opacity:1;stroke-width:5.95555;stroke-linecap:round;stroke-linejoin:round;stroke:#000;stroke-opacity:1;stroke-miterlimit:10" d="m545.117 327.734 473.985 92.11 426.718-159.102" transform="matrix(.1 0 0 -.1 0 200)"/><path style="stroke:none;fill-rule:nonzero;fill:#743573;fill-opacity:1" d="m144.582 173.926-42.672-15.91v-55.684"/><path style="fill:none;stroke-width:5.95555;stroke-linecap:round;stroke-linejoin:round;stroke:#000;stroke-opacity:1;stroke-miterlimit:10" d="m1445.82 260.742-426.718 159.102" transform="matrix(.1 0 0 -.1 0 200)"/><path style="stroke:none;fill-rule:nonzero;fill:#95d3fd;fill-opacity:1" d="m138.195 104.844-11.75-6.235-24.535 3.723"/><path style="stroke:none;fill-rule:nonzero;fill:#3a52c0;fill-opacity:1" d="m105.078 75.328.942-8.031 11.972-3.777"/><path style="stroke:none;fill-rule:nonzero;fill:#b297bb;fill-opacity:1" d="m126.883 86.926 5.887-3.63-8.684-34.472"/><path style="stroke:none;fill-rule:nonzero;fill:#95d3fd;fill-opacity:1" d="m160.723 106.402-10.649-11.375-11.879 9.817"/><path style="stroke:none;fill-rule:nonzero;fill:#b297bb;fill-opacity:1" d="m138.195 104.844 11.258.781-11.422-25.57M132.77 83.297l5.261-3.242-13.945-31.23"/><path style="stroke:none;fill-rule:nonzero;fill:#b297bb;fill-opacity:1" d="m138.195 104.844-.164-24.79-5.261 3.243"/><path style="stroke:none;fill-rule:nonzero;fill:#80457f;fill-opacity:1" d="m109.836 34.79 27.766-18.575 40.5 74.566"/><path style="fill:none;stroke-width:5.95555;stroke-linecap:round;stroke-linejoin:round;stroke:#000;stroke-opacity:1;stroke-miterlimit:10" d="m1098.36 1652.11 277.656 185.742" transform="matrix(.1 0 0 -.1 0 200)"/><path style="fill-rule:nonzero;fill:#80457f;fill-opacity:1;stroke-width:5.95555;stroke-linecap:round;stroke-linejoin:round;stroke:#000;stroke-opacity:1;stroke-miterlimit:10" d="m1376.016 1837.852 448.906-364.18-43.906-381.485" transform="matrix(.1 0 0 -.1 0 200)"/><path style="stroke:none;fill-rule:nonzero;fill:#cb7b75;fill-opacity:1" d="m182.492 52.633-4.39 38.148-26.309-19.215"/><path style="fill:none;stroke-width:5.95555;stroke-linecap:round;stroke-linejoin:round;stroke:#000;stroke-opacity:1;stroke-miterlimit:10" d="m1824.922 1473.672-43.906-381.485" transform="matrix(.1 0 0 -.1 0 200)"/><path style="stroke:none;fill-rule:nonzero;fill:#b297bb;fill-opacity:1" d="m124.086 48.824 13.945 31.23 13.762-8.488"/><path style="fill-rule:nonzero;fill:#c98080;fill-opacity:1;stroke-width:5.95555;stroke-linecap:round;stroke-linejoin:round;stroke:#000;stroke-opacity:1;stroke-miterlimit:10" d="m344.766 1189.883-38.438 382.773 493.047 301.407" transform="matrix(.1 0 0 -.1 0 200)"/><path style="stroke:none;fill-rule:nonzero;fill:#95d3fd;fill-opacity:1" d="m81.79 74.934-47.313 6.078 67.433 21.32"/><path style="fill:none;stroke-width:5.95555;stroke-linecap:round;stroke-linejoin:round;stroke:#000;stroke-opacity:1;stroke-miterlimit:10" d="m817.89 1250.664-473.124-60.781" transform="matrix(.1 0 0 -.1 0 200)"/><path style="stroke:none;fill-rule:nonzero;fill:#743573;fill-opacity:1" d="m101.91 158.016-40.55-34.387 18.288-39.914"/><path style="fill:none;stroke-width:5.95555;stroke-linecap:round;stroke-linejoin:round;stroke:#000;stroke-opacity:1;stroke-miterlimit:10" d="M1019.102 419.844 613.594 763.71" transform="matrix(.1 0 0 -.1 0 200)"/><path style="stroke:none;fill-rule:nonzero;fill:#3a52c0;fill-opacity:1" d="m105.078 75.328-23.289-.394 24.23-7.637"/><path style="stroke:none;fill-rule:nonzero;fill:#b297bb;fill-opacity:1" d="m79.938 12.594-5.516 66.754 27.488 22.984"/><path style="stroke:none;fill-rule:nonzero;fill:#743573;fill-opacity:1" d="M101.91 102.332v55.684L79.648 83.715"/><path style="stroke:none;fill-rule:nonzero;fill:#3a52c0;fill-opacity:1" d="m54.512 167.227 6.847-43.598 40.551-21.297"/><path style="fill:none;stroke-width:5.95555;stroke-linecap:round;stroke-linejoin:round;stroke:#000;stroke-opacity:1;stroke-miterlimit:10" d="m545.117 327.734 68.477 435.977" transform="matrix(.1 0 0 -.1 0 200)"/><path style="stroke:none;fill-rule:nonzero;fill:#cb7b75;fill-opacity:1" d="m101.91 158.016-47.398 9.21 16.433-45.804"/><path style="fill:none;stroke-width:5.95555;stroke-linecap:round;stroke-linejoin:round;stroke:#000;stroke-opacity:1;stroke-miterlimit:10" d="m1019.102 419.844-473.985-92.11" transform="matrix(.1 0 0 -.1 0 200)"/><path style="stroke:none;fill-rule:nonzero;fill:#cb7b75;fill-opacity:1" d="M101.91 102.332v55.684l-30.965-36.594"/><path style="stroke:none;fill-rule:nonzero;fill:#a1cdf6;fill-opacity:1" d="m65.203 190.875-10.691-23.648 90.07 6.699"/><path style="fill:none;stroke-width:5.95555;stroke-linecap:round;stroke-linejoin:round;stroke:#000;stroke-opacity:1;stroke-miterlimit:10" d="M652.031 91.25 545.117 327.734" transform="matrix(.1 0 0 -.1 0 200)"/><path style="fill-rule:nonzero;fill:#a1cdf6;fill-opacity:1;stroke-width:5.95555;stroke-linecap:round;stroke-linejoin:round;stroke:#000;stroke-opacity:1;stroke-miterlimit:10" d="M1445.82 260.742 1246.914 46.055 652.031 91.25" transform="matrix(.1 0 0 -.1 0 200)"/><path style="stroke:none;fill-rule:nonzero;fill:#b297bb;fill-opacity:1" d="m65.203 190.875 59.488 4.52-22.78-93.063"/><path style="fill:none;stroke-width:5.95555;stroke-linecap:round;stroke-linejoin:round;stroke:#000;stroke-opacity:1;stroke-miterlimit:10" d="m652.031 91.25 594.883-45.195" transform="matrix(.1 0 0 -.1 0 200)"/><path style="stroke:none;fill-rule:nonzero;fill:#743573;fill-opacity:1" d="m129.723 125.586 14.859 48.34-42.672-71.594"/><path style="stroke:none;fill-rule:nonzero;fill:#eed7ba;fill-opacity:1" d="m124.691 195.395 19.891-21.47-42.672-71.593"/><path style="fill:none;stroke-width:5.95555;stroke-linecap:round;stroke-linejoin:round;stroke:#000;stroke-opacity:1;stroke-miterlimit:10" d="m1246.914 46.055 198.906 214.687" transform="matrix(.1 0 0 -.1 0 200)"/><path style="stroke:none;fill-rule:nonzero;fill:#3a52c0;fill-opacity:1" d="m99.203 125.375-11.195 10.48 13.902-33.523M88.008 135.855l-33.496 31.372 47.398-64.895"/><path style="stroke:none;fill-rule:nonzero;fill:#743573;fill-opacity:1" d="M61.36 123.629 34.476 81.012l23.12-15.735"/><path style="fill:none;stroke-width:5.95555;stroke-linecap:round;stroke-linejoin:round;stroke:#000;stroke-opacity:1;stroke-miterlimit:10" d="m613.594 763.71-268.828 426.173" transform="matrix(.1 0 0 -.1 0 200)"/><path style="stroke:none;fill-rule:nonzero;fill:#b297bb;fill-opacity:1" d="m79.938 12.594-22.34 52.683 16.824 14.07"/><path style="stroke:none;fill-rule:nonzero;fill:#743573;fill-opacity:1" d="M79.648 83.715 61.36 123.629l-3.761-58.352"/><path style="fill-rule:nonzero;fill:#e8cfbc;fill-opacity:1;stroke-width:5.95555;stroke-linecap:round;stroke-linejoin:round;stroke:#000;stroke-opacity:1;stroke-miterlimit:10" d="M206.328 475.508 78.125 1041.875l266.64 148.008" transform="matrix(.1 0 0 -.1 0 200)"/><path style="stroke:none;fill-rule:nonzero;fill:#e8cfbc;fill-opacity:1" d="m54.512 167.227-33.88-14.778 13.845-71.437"/><path style="fill:none;stroke-width:5.95555;stroke-linecap:round;stroke-linejoin:round;stroke:#000;stroke-opacity:1;stroke-miterlimit:10" d="M545.117 327.734 206.328 475.508" transform="matrix(.1 0 0 -.1 0 200)"/><path style="stroke:none;fill-rule:nonzero;fill:#95d3fd;fill-opacity:1" d="m34.477 81.012-26.664 14.8 62.585 4.336"/><path style="fill:none;stroke-width:5.95555;stroke-linecap:round;stroke-linejoin:round;stroke:#000;stroke-opacity:1;stroke-miterlimit:10" d="M344.766 1189.883 78.125 1041.875" transform="matrix(.1 0 0 -.1 0 200)"/><path style="stroke:none;fill-rule:nonzero;fill:#b297bb;fill-opacity:1" d="m7.813 95.813 12.82 56.636 22.965-54.16"/><path style="fill:none;stroke-width:5.95555;stroke-linecap:round;stroke-linejoin:round;stroke:#000;stroke-opacity:1;stroke-miterlimit:10" d="m78.125 1041.875 128.203-566.367" transform="matrix(.1 0 0 -.1 0 200)"/><path style="stroke:none;fill-rule:nonzero;fill:#95d3fd;fill-opacity:1" d="m101.91 102.332-67.433-21.32 35.921 19.136"/><path style="stroke:none;fill-rule:nonzero;fill:#b297bb;fill-opacity:1" d="m79.938 12.594-35.86 41.379 13.52 11.304"/><path style="stroke:none;fill-rule:nonzero;fill:#743573;fill-opacity:1" d="m34.477 81.012-3.844-38.278 26.965 22.543"/><path style="fill:none;stroke-width:5.95555;stroke-linecap:round;stroke-linejoin:round;stroke:#000;stroke-opacity:1;stroke-miterlimit:10" d="m344.766 1189.883-38.438 382.773" transform="matrix(.1 0 0 -.1 0 200)"/><path style="fill-rule:nonzero;fill:#b297bb;fill-opacity:1;stroke-width:5.95555;stroke-linecap:round;stroke-linejoin:round;stroke:#000;stroke-opacity:1;stroke-miterlimit:10" d="m799.375 1874.063-493.047-301.407-228.203-530.781" transform="matrix(.1 0 0 -.1 0 200)"/><path style="stroke:none;fill-rule:nonzero;fill:#eed7ba;fill-opacity:1" d="m54.902 23.477 52.043 35.93 2.89-24.618"/><path style="stroke:none;fill-rule:nonzero;fill:#743573;fill-opacity:1" d="m64.246 39.148-6.648 26.13-26.965-22.544"/><path style="stroke:none;fill-rule:nonzero;fill:#3a52c0;fill-opacity:1" d="m105.078 75.328 12.914-11.808-2.332 5.636M124.086 48.824 106.02 67.297l3.816-32.508"/><path style="stroke:none;fill-rule:nonzero;fill:#3a52c0;fill-opacity:1" d="m133.914 58.508-15.922 5.012 6.094-14.696"/><path style="stroke:none;fill-rule:nonzero;fill:#3a52c0;fill-opacity:1" d="m117.992 63.52-11.972 3.777 18.066-18.473"/><path style="stroke:none;fill-rule:nonzero;fill:#b297bb;fill-opacity:1" d="m197.328 108.938-14.836-56.305-51.633-20.16"/><path style="fill:none;stroke-width:5.95555;stroke-linecap:round;stroke-linejoin:round;stroke:#000;stroke-opacity:1;stroke-miterlimit:10" d="m1973.281 910.625-148.36 563.047" transform="matrix(.1 0 0 -.1 0 200)"/><path style="fill-rule:nonzero;fill:#eed7ba;fill-opacity:1;stroke-width:5.95555;stroke-linecap:round;stroke-linejoin:round;stroke:#000;stroke-opacity:1;stroke-miterlimit:10" d="m1098.36 1652.11-298.985 221.953-250.352-108.829" transform="matrix(.1 0 0 -.1 0 200)"/><path style="fill-rule:nonzero;fill:#95d3fd;fill-opacity:1;stroke-width:5.95555;stroke-linecap:round;stroke-linejoin:round;stroke:#000;stroke-opacity:1;stroke-miterlimit:10" d="m1800.313 729.727 172.968 180.898-192.265 181.563" transform="matrix(.1 0 0 -.1 0 200)"/><path style="stroke:none;fill-rule:nonzero;fill:#b297bb;fill-opacity:1" d="m124.086 48.824 73.242 60.114-66.469-76.465"/><path style="stroke:none;fill-rule:nonzero;fill:#3a52c0;fill-opacity:1" d="m109.836 34.79 27.766-18.575-9.766 23.562"/><path style="fill:none;stroke-width:5.95555;stroke-linecap:round;stroke-linejoin:round;stroke:#000;stroke-opacity:1;stroke-miterlimit:10" d="m1098.36 1652.11 277.656 185.742" transform="matrix(.1 0 0 -.1 0 200)"/><path style="stroke:none;fill-rule:nonzero;fill:#b297bb;fill-opacity:1" d="m137.602 16.215-57.665-3.621 50.922 19.879"/><path style="fill:none;stroke-width:5.95555;stroke-linecap:round;stroke-linejoin:round;stroke:#000;stroke-opacity:1;stroke-miterlimit:10" d="m1376.016 1837.852-576.641 36.21" transform="matrix(.1 0 0 -.1 0 200)"/><path style="stroke:none;fill-rule:nonzero;fill:#b297bb;fill-opacity:1" d="m182.492 52.633-44.89-36.418-6.743 16.258"/><path style="fill:none;stroke-width:5.95555;stroke-linecap:round;stroke-linejoin:round;stroke:#000;stroke-opacity:1;stroke-miterlimit:10" d="m1824.922 1473.672-448.906 364.18" transform="matrix(.1 0 0 -.1 0 200)"/><path style="stroke:none;fill-rule:nonzero;fill:#3a52c0;fill-opacity:1" d="m144.266 44.328-16.43-4.55 9.766-23.563"/><path style="stroke:none;fill-rule:nonzero;fill:#cb7b75;fill-opacity:1" d="m133.914 58.508 48.578-5.875-30.699 18.933"/><path style="stroke:none;fill-rule:nonzero;fill:#cb7b75;fill-opacity:1" d="m144.266 44.328 38.226 8.305-48.578 5.875"/><path style="stroke:none;fill-rule:nonzero;fill:#b297bb;fill-opacity:1" d="m151.793 71.566-2.34 34.059 47.875 3.313"/><path style="stroke:none;fill-rule:nonzero;fill:#b297bb;fill-opacity:1" d="m138.031 80.055 11.422 25.57 2.34-34.059M79.938 12.594l35.722 56.562 7.63-18.41"/><path style="stroke:none;fill-rule:nonzero;fill:#cb7b75;fill-opacity:1" d="m101.91 35.129 21.38 15.617-6.403 15.45"/><path style="stroke:none;fill-rule:nonzero;fill:#3a52c0;fill-opacity:1" d="m115.66 69.156 2.332-5.636 15.922-5.012"/><path style="stroke:none;fill-rule:nonzero;fill:#b297bb;fill-opacity:1" d="m115.66 69.156-13.75 33.176 36.285 2.512"/><path style="stroke:none;fill-rule:nonzero;fill:#3a52c0;fill-opacity:1" d="m121.426 75.605-8.383-.144 20.871-16.953M113.043 75.46l2.617-6.304 18.254-10.648"/><path style="stroke:none;fill-rule:nonzero;fill:#cb7b75;fill-opacity:1" d="m133.914 58.508 17.879 13.058-24.648-3.793M121.426 75.605l30.367-4.039-24.91 15.36"/><path style="stroke:none;fill-rule:nonzero;fill:#cb7b75;fill-opacity:1" d="m116.887 66.195 10.258 1.578-5.72 7.832M127.145 67.773l24.648 3.793-30.367 4.04"/><path style="stroke:none;fill-rule:nonzero;fill:#3a52c0;fill-opacity:1" d="m121.426 75.605-19.516 26.727 3.168-27.004"/><path style="stroke:none;fill-rule:nonzero;fill:#cb7b75;fill-opacity:1" d="m121.426 75.605 5.457 11.32-24.973 15.407"/><path style="stroke:none;fill-rule:nonzero;fill:#b297bb;fill-opacity:1" d="m126.883 86.926 11.312 17.918-5.425-21.547"/><path style="stroke:none;fill-rule:nonzero;fill:#3a52c0;fill-opacity:1" d="m151.797 76.121-49.887 26.211 19.516-26.727M137.602 16.215l17.25 13.62-10.586 14.493"/><path style="fill:none;stroke-width:5.95555;stroke-linecap:round;stroke-linejoin:round;stroke:#000;stroke-opacity:1;stroke-miterlimit:10" d="m1376.016 1837.852 172.5-136.211" transform="matrix(.1 0 0 -.1 0 200)"/><path style="stroke:none;fill-rule:nonzero;fill:#3a52c0;fill-opacity:1" d="m133.914 58.508-24.078-23.719 34.43 9.54"/><path style="stroke:none;fill-rule:nonzero;fill:#b297bb;fill-opacity:1" d="m79.938 12.594 44.148 36.23 6.773-16.351M79.938 12.594l43.351 38.152-13.918-13.996"/><path style="fill-rule:nonzero;fill:#cb7b75;fill-opacity:1;stroke-width:5.95555;stroke-linecap:round;stroke-linejoin:round;stroke:#000;stroke-opacity:1;stroke-miterlimit:10" d="m1019.102 1648.71 529.414 52.93 276.406-227.968" transform="matrix(.1 0 0 -.1 0 200)"/><path style="stroke:none;fill-rule:nonzero;fill:#3a52c0;fill-opacity:1" d="m154.852 29.836-3.055 46.285-7.531-31.793"/><path style="fill:none;stroke-width:5.95555;stroke-linecap:round;stroke-linejoin:round;stroke:#000;stroke-opacity:1;stroke-miterlimit:10" d="m1548.516 1701.64-30.547-462.85" transform="matrix(.1 0 0 -.1 0 200)"/><path style="stroke:none;fill-rule:nonzero;fill:#cb7b75;fill-opacity:1" d="m123.29 50.746 10.624 7.762-17.027 7.687"/><path style="stroke:none;fill-rule:nonzero;fill:#cb7b75;fill-opacity:1" d="m133.914 58.508-6.77 9.265-10.257-1.578"/><path style="stroke:none;fill-rule:nonzero;fill:#3a52c0;fill-opacity:1" d="m151.797 76.121-17.883-17.613 10.352-14.18"/><path style="stroke:none;fill-rule:nonzero;fill:#b297bb;fill-opacity:1" d="m109.371 36.75 13.918 13.996.797-1.922"/><path style="stroke:none;fill-rule:nonzero;fill:#cb7b75;fill-opacity:1" d="m101.91 35.129 42.356 9.2-10.352 14.179"/><path style="stroke:none;fill-rule:nonzero;fill:#3a52c0;fill-opacity:1" d="m113.043 75.46-7.965-.132 10.582-6.172"/><path style="stroke:none;fill-rule:nonzero;fill:#eed7ba;fill-opacity:1" d="m54.902 23.477 49.582 56.886 2.461-20.957"/><path style="stroke:none;fill-rule:nonzero;fill:#eed7ba;fill-opacity:1" d="m93.422 67.668 8.488 34.664 2.574-21.969"/><path style="stroke:none;fill-rule:nonzero;fill:#eed7ba;fill-opacity:1" d="m54.902 23.477 47.008 78.855-8.488-34.664"/><path style="stroke:none;fill-rule:nonzero;fill:#b297bb;fill-opacity:1" d="m79.938 12.594 21.972 89.738 13.75-33.176"/><path style="stroke:none;fill-rule:nonzero;fill:#743573;fill-opacity:1" d="m101.91 35.129-28.504 19.39-9.16-15.37"/><path style="stroke:none;fill-rule:nonzero;fill:#743573;fill-opacity:1" d="M73.406 54.52 57.598 65.277l6.648-26.129"/><path style="stroke:none;fill-rule:nonzero;fill:#b297bb;fill-opacity:1" d="M57.598 65.277 7.813 95.812l35.785 2.477"/><path style="stroke:none;fill-rule:nonzero;fill:#b297bb;fill-opacity:1" d="M44.078 53.973 7.812 95.813l49.786-30.536M72.691 100.305l-52.058 52.144 50.312-31.027"/><path style="stroke:none;fill-rule:nonzero;fill:#b297bb;fill-opacity:1" d="m43.598 98.29-22.965 54.16 52.058-52.145"/><path style="stroke:none;fill-rule:nonzero;fill:#eed7ba;fill-opacity:1" d="m98.543 130.984 26.148 64.41-22.78-93.062"/><path style="stroke:none;fill-rule:nonzero;fill:#743573;fill-opacity:1" d="m175.438 163.816-30.856 10.11-14.86-48.34"/><path style="fill:none;stroke-width:5.95555;stroke-linecap:round;stroke-linejoin:round;stroke:#000;stroke-opacity:1;stroke-miterlimit:10" d="M1754.375 361.836 1445.82 260.742" transform="matrix(.1 0 0 -.1 0 200)"/><path style="stroke:none;fill-rule:nonzero;fill:#b297bb;fill-opacity:1" d="m101.91 102.332 32.598 27.258 3.687-24.746"/><path style="stroke:none;fill-rule:nonzero;fill:#b297bb;fill-opacity:1" d="m138.195 104.844-3.687 24.746 40.93 34.226"/><path style="stroke:none;fill-rule:nonzero;fill:#b297bb;fill-opacity:1" d="m138.195 104.844 37.243 58.972-25.985-58.191"/><path style="stroke:none;fill-rule:nonzero;fill:#95d3fd;fill-opacity:1" d="m180.031 127.027-41.836-22.183-36.285-2.512M180.031 127.027l-19.308-20.625-22.528-1.558"/><path style="stroke:none;fill-rule:nonzero;fill:#3a52c0;fill-opacity:1" d="m151.797 76.121-30.371-.516 12.488-17.097"/><path style="stroke:none;fill-rule:nonzero;fill:#cb7b75;fill-opacity:1" d="m101.91 35.129 19.516 40.476-19.516 26.727"/><path style="stroke:none;fill-rule:nonzero;fill:#743573;fill-opacity:1" d="m101.91 35.129 73.528 128.687-45.715-38.23"/><path style="stroke:none;fill-rule:nonzero;fill:#b297bb;fill-opacity:1" d="m101.91 102.332 22.781 93.063 9.817-65.805"/><path style="stroke:none;fill-rule:nonzero;fill:#3a52c0;fill-opacity:1" d="m65.203 190.875-10.691-23.648 33.496-31.372"/><path style="fill:none;stroke-width:5.95555;stroke-linecap:round;stroke-linejoin:round;stroke:#000;stroke-opacity:1;stroke-miterlimit:10" d="M652.031 91.25 545.117 327.734" transform="matrix(.1 0 0 -.1 0 200)"/><path style="stroke:none;fill-rule:nonzero;fill:#743573;fill-opacity:1" d="m101.91 35.129 27.813 90.457-27.813-23.254M180.031 127.027l-4.594 36.79L101.91 35.128"/><path style="fill:none;stroke-width:5.95555;stroke-linecap:round;stroke-linejoin:round;stroke:#000;stroke-opacity:1;stroke-miterlimit:10" d="m1800.313 729.727-45.938-367.891" transform="matrix(.1 0 0 -.1 0 200)"/><path style="stroke:none;fill-rule:nonzero;fill:#95d3fd;fill-opacity:1" d="m180.031 127.027-78.12-24.695 8.921 12.152"/><path style="stroke:none;fill-rule:nonzero;fill:#3a52c0;fill-opacity:1" d="m99.203 125.375-34 65.5 22.805-55.02"/><path style="stroke:none;fill-rule:nonzero;fill:#eed7ba;fill-opacity:1" d="m92.64 181.258 32.051 14.137-26.148-64.41"/><path style="fill:none;stroke-width:5.95555;stroke-linecap:round;stroke-linejoin:round;stroke:#000;stroke-opacity:1;stroke-miterlimit:10" d="m926.406 187.422 320.508-141.367" transform="matrix(.1 0 0 -.1 0 200)"/><path style="stroke:none;fill-rule:nonzero;fill:#3a52c0;fill-opacity:1" d="m110.832 114.484-12.883 21.57 1.254-10.679"/><path style="stroke:none;fill-rule:nonzero;fill:#3a52c0;fill-opacity:1" d="m97.95 136.055-32.747 54.82 34-65.5"/><path style="stroke:none;fill-rule:nonzero;fill:#b297bb;fill-opacity:1" d="m74.422 79.348-1.73 20.957 29.218 2.027"/><path style="stroke:none;fill-rule:nonzero;fill:#b297bb;fill-opacity:1" d="m72.691 100.305-1.746 21.117 30.965-19.09"/><path style="stroke:none;fill-rule:nonzero;fill:#cb7b75;fill-opacity:1" d="m49.895 110.21 21.05 11.212-50.312 31.027"/><path style="stroke:none;fill-rule:nonzero;fill:#cb7b75;fill-opacity:1" d="m76.41 106.191-5.465 15.23-21.05-11.21"/><path style="stroke:none;fill-rule:nonzero;fill:#b297bb;fill-opacity:1" d="m70.945 121.422-5.742 69.453 36.707-88.543"/><path style="stroke:none;fill-rule:nonzero;fill:#cb7b75;fill-opacity:1" d="m76.41 106.191 25.5-3.859-30.965 19.09"/><path style="stroke:none;fill-rule:nonzero;fill:#95d3fd;fill-opacity:1" d="m7.813 95.813 7.804 19.593 34.278-5.195"/><path style="fill:none;stroke-width:5.95555;stroke-linecap:round;stroke-linejoin:round;stroke:#000;stroke-opacity:1;stroke-miterlimit:10" d="m78.125 1041.875 78.047-195.938" transform="matrix(.1 0 0 -.1 0 200)"/><path style="stroke:none;fill-rule:nonzero;fill:#95d3fd;fill-opacity:1" d="M60.145 108.656 7.812 95.812l42.083 14.399M84.902 114.734l-24.757-6.078 17.8 11.156"/><path style="stroke:none;fill-rule:nonzero;fill:#3a52c0;fill-opacity:1" d="m116.758 122.555-51.555 68.32 45.629-76.39"/><path style="stroke:none;fill-rule:nonzero;fill:#95d3fd;fill-opacity:1" d="m180.031 127.027-69.199-12.543 5.926 8.07"/><path style="stroke:none;fill-rule:nonzero;fill:#3a52c0;fill-opacity:1" d="m92.64 181.258-27.437 9.617 51.555-68.32"/><path style="fill:none;stroke-width:5.95555;stroke-linecap:round;stroke-linejoin:round;stroke:#000;stroke-opacity:1;stroke-miterlimit:10" d="M926.406 187.422 652.031 91.25" transform="matrix(.1 0 0 -.1 0 200)"/><path style="stroke:none;fill-rule:nonzero;fill:#95d3fd;fill-opacity:1" d="m180.031 127.027-63.273-4.472 5.047 6.87"/><path style="fill-rule:nonzero;fill:#743573;fill-opacity:1;stroke-width:5.95555;stroke-linecap:round;stroke-linejoin:round;stroke:#000;stroke-opacity:1;stroke-miterlimit:10" d="m1019.102 1648.71 498.867-409.92 282.343-509.063" transform="matrix(.1 0 0 -.1 0 200)"/><path style="stroke:none;fill-rule:nonzero;fill:#3a52c0;fill-opacity:1" d="m151.797 76.121-29.992 53.305-5.047-6.871"/><path style="stroke:none;fill-rule:nonzero;fill:#3a52c0;fill-opacity:1" d="M121.805 129.426 92.64 181.258l24.117-58.703"/><path style="stroke:none;fill-rule:nonzero;fill:#eed7ba;fill-opacity:1" d="m90.34 110.77 2.3 70.488 5.903-50.274"/><path style="stroke:none;fill-rule:nonzero;fill:#cb7b75;fill-opacity:1" d="m54.512 167.227-33.88-14.778 50.313-31.027"/><path style="fill:none;stroke-width:5.95555;stroke-linecap:round;stroke-linejoin:round;stroke:#000;stroke-opacity:1;stroke-miterlimit:10" d="M545.117 327.734 206.328 475.508" transform="matrix(.1 0 0 -.1 0 200)"/><path style="stroke:none;fill-rule:nonzero;fill:#eed7ba;fill-opacity:1" d="m77.945 119.813 14.696 61.445-2.301-70.488M90.34 110.77l8.203 20.214 3.367-28.652"/><path style="stroke:none;fill-rule:nonzero;fill:#3a52c0;fill-opacity:1" d="m110.832 114.484-11.629 10.891 2.707-23.043"/><path style="stroke:none;fill-rule:nonzero;fill:#95d3fd;fill-opacity:1" d="M110.832 114.484 90.34 110.77l26.418 11.785M90.34 110.77 7.812 95.813l77.09 18.921"/><path style="stroke:none;fill-rule:nonzero;fill:#95d3fd;fill-opacity:1" d="m90.34 110.77-5.438 3.964 31.856 7.82M101.91 102.332l-31.512-2.184 10.165 5.415"/><path style="stroke:none;fill-rule:nonzero;fill:#b297bb;fill-opacity:1" d="M74.422 79.348 43.598 98.289l29.093 2.016"/><path style="stroke:none;fill-rule:nonzero;fill:#b297bb;fill-opacity:1" d="m57.598 65.277-14 33.012 30.824-18.941"/><path style="stroke:none;fill-rule:nonzero;fill:#95d3fd;fill-opacity:1" d="m90.34 110.77-19.942-10.622-62.585-4.335"/><path style="stroke:none;fill-rule:nonzero;fill:#cb7b75;fill-opacity:1" d="m69.04 82.57 7.37 23.621-26.515 4.02"/><path style="stroke:none;fill-rule:nonzero;fill:#743573;fill-opacity:1" d="M101.91 35.129 79.648 83.715l-22.05-18.438"/><path style="stroke:none;fill-rule:nonzero;fill:#743573;fill-opacity:1" d="m84.496 73.125 17.414 29.207-22.262-18.617"/><path style="fill-rule:nonzero;fill:#743573;fill-opacity:1;stroke-width:5.95555;stroke-linecap:round;stroke-linejoin:round;stroke:#000;stroke-opacity:1;stroke-miterlimit:10" d="m306.328 1572.656 242.695 192.578 470.079-116.523" transform="matrix(.1 0 0 -.1 0 200)"/><path style="stroke:none;fill-rule:nonzero;fill:#eed7ba;fill-opacity:1" d="m54.902 23.477 27.172 66.93 19.836 11.925"/><path style="stroke:none;fill-rule:nonzero;fill:#eed7ba;fill-opacity:1" d="M54.902 23.477 69.04 82.57l13.035 7.836"/><path style="stroke:none;fill-rule:nonzero;fill:#743573;fill-opacity:1" d="M101.91 35.129v67.203L84.496 73.125"/><path style="stroke:none;fill-rule:nonzero;fill:#cb7b75;fill-opacity:1" d="M101.91 35.129 82.074 90.406 69.04 82.57M82.074 90.406l-5.664 15.785-7.37-23.62M101.91 35.129v67.203l-25.5 3.86"/><path style="stroke:none;fill-rule:nonzero;fill:#95d3fd;fill-opacity:1" d="m101.91 102.332-21.347 3.23 9.777 5.208"/><path style="stroke:none;fill-rule:nonzero;fill:#eed7ba;fill-opacity:1" d="m82.074 90.406 8.266 20.364 11.57-8.438"/><path style="stroke:none;fill-rule:nonzero;fill:#b297bb;fill-opacity:1" d="m20.633 152.45 44.57 38.425 5.742-69.453"/><path style="fill:none;stroke-width:5.95555;stroke-linecap:round;stroke-linejoin:round;stroke:#000;stroke-opacity:1;stroke-miterlimit:10" d="M206.328 475.508 652.031 91.25" transform="matrix(.1 0 0 -.1 0 200)"/><path style="stroke:none;fill-rule:nonzero;fill:#cb7b75;fill-opacity:1" d="m20.633 152.45-5.016-37.044 34.278-5.195"/><path style="fill:none;stroke-width:5.95555;stroke-linecap:round;stroke-linejoin:round;stroke:#000;stroke-opacity:1;stroke-miterlimit:10" d="m206.328 475.508-50.156 370.43" transform="matrix(.1 0 0 -.1 0 200)"/><path style="stroke:none;fill-rule:nonzero;fill:#95d3fd;fill-opacity:1" d="m15.617 115.406 45.735 16.516 12.156-8.871"/><path style="fill:none;stroke-width:5.95555;stroke-linecap:round;stroke-linejoin:round;stroke:#000;stroke-opacity:1;stroke-miterlimit:10" d="M156.172 845.938 613.516 680.78" transform="matrix(.1 0 0 -.1 0 200)"/><path style="stroke:none;fill-rule:nonzero;fill:#eed7ba;fill-opacity:1" d="m61.352 131.922 31.289 49.336-14.696-61.446"/><path style="fill:none;stroke-width:5.95555;stroke-linecap:round;stroke-linejoin:round;stroke:#000;stroke-opacity:1;stroke-miterlimit:10" d="m613.516 680.781 312.89-493.36" transform="matrix(.1 0 0 -.1 0 200)"/><path style="stroke:none;fill-rule:nonzero;fill:#95d3fd;fill-opacity:1" d="m77.945 119.813-62.328-4.407 57.89 7.645"/><path style="stroke:none;fill-rule:nonzero;fill:#cb7b75;fill-opacity:1" d="m69.04 82.57-19.145 27.64 8.128-34.257"/><path style="stroke:none;fill-rule:nonzero;fill:#95d3fd;fill-opacity:1" d="m60.145 108.656-10.25 1.555 28.05 9.602"/><path style="stroke:none;fill-rule:nonzero;fill:#95d3fd;fill-opacity:1" d="m77.945 119.813-28.05-9.602-34.278 5.195"/><path style="stroke:none;fill-rule:nonzero;fill:#eed7ba;fill-opacity:1" d="m54.902 23.477 3.121 52.476L69.04 82.57"/><path style="stroke:none;fill-rule:nonzero;fill:#cb7b75;fill-opacity:1" d="M15.617 115.406 46.56 69.062l11.464 6.891"/><path style="fill:none;stroke-width:5.95555;stroke-linecap:round;stroke-linejoin:round;stroke:#000;stroke-opacity:1;stroke-miterlimit:10" d="m156.172 845.938 309.414 463.437" transform="matrix(.1 0 0 -.1 0 200)"/><path style="stroke:none;fill-rule:nonzero;fill:#cb7b75;fill-opacity:1" d="m58.023 75.953-8.128 34.258-34.278 5.195"/><path style="fill-rule:nonzero;fill:#eed7ba;fill-opacity:1;stroke-width:5.95555;stroke-linecap:round;stroke-linejoin:round;stroke:#000;stroke-opacity:1;stroke-miterlimit:10" d="m549.023 1765.234-83.437-455.859 147.93-628.594" transform="matrix(.1 0 0 -.1 0 200)"/><path style="stroke:none;fill-rule:nonzero;fill:#cb7b75;fill-opacity:1" d="m46.559 69.063 55.351-33.934-43.887 40.824"/><path style="fill:none;stroke-width:5.95555;stroke-linecap:round;stroke-linejoin:round;stroke:#000;stroke-opacity:1;stroke-miterlimit:10" d="m465.586 1309.375 553.516 339.336" transform="matrix(.1 0 0 -.1 0 200)"/><path style="stroke:none;fill-rule:nonzero;fill:#eed7ba;fill-opacity:1" d="m69.04 82.57-7.688 49.352 16.593-12.11M58.023 75.953l3.329 55.969 7.687-49.352"/><path style="stroke:none;fill-rule:nonzero;fill:#95d3fd;fill-opacity:1" d="m116.758 122.555-38.813-2.743 43.86 9.614"/><path style="stroke:none;fill-rule:nonzero;fill:#95d3fd;fill-opacity:1" d="m77.945 119.813-4.437 3.238 48.297 6.375"/><path style="stroke:none;fill-rule:nonzero;fill:#95d3fd;fill-opacity:1" d="m121.805 129.426-48.297-6.375-12.156 8.87"/><path style="stroke:none;fill-rule:nonzero;fill:#eed7ba;fill-opacity:1" d="m82.074 90.406-4.129 29.406 12.395-9.042"/><path style="stroke:none;fill-rule:nonzero;fill:#eed7ba;fill-opacity:1" d="m69.04 82.57 8.905 37.243 4.13-29.407"/><path style="stroke:none;fill-rule:nonzero;fill:#cb7b75;fill-opacity:1" d="M101.91 35.129 69.04 82.57l-11.017-6.617"/><path style="stroke:none;fill-rule:nonzero;fill:#95d3fd;fill-opacity:1" d="m116.758 122.555-31.856-7.82-6.957 5.078"/><path style="stroke:none;fill-rule:nonzero;fill:#3a52c0;fill-opacity:1" d="m151.797 76.121-35.04 46.434-5.925-8.07"/><path style="stroke:none;fill-rule:nonzero;fill:#b297bb;fill-opacity:1" d="m124.691 195.395 50.746-31.579-40.93-34.226"/><path style="fill:none;stroke-width:5.95555;stroke-linecap:round;stroke-linejoin:round;stroke:#000;stroke-opacity:1;stroke-miterlimit:10" d="m1246.914 46.055 507.461 315.78" transform="matrix(.1 0 0 -.1 0 200)"/><path style="stroke:none;fill-rule:nonzero;fill:#3a52c0;fill-opacity:1" d="m151.797 76.121-40.965 38.363-8.922-12.152"/><path style="stroke:none;fill-rule:nonzero;fill:#95d3fd;fill-opacity:1" d="m110.832 114.484-8.922-12.152-11.57 8.438"/><path style="stroke:none;fill-rule:nonzero;fill:#7ed5fe;fill-opacity:1" d="M79.938 12.594 54.901 23.477l99.95 6.359"/><path style="fill:none;stroke-width:5.95555;stroke-linecap:round;stroke-linejoin:round;stroke:#000;stroke-opacity:1;stroke-miterlimit:10" d="m799.375 1874.063-250.352-108.829" transform="matrix(.1 0 0 -.1 0 200)"/><path style="fill-rule:nonzero;fill:#7ed5fe;fill-opacity:1;stroke-width:5.95555;stroke-linecap:round;stroke-linejoin:round;stroke:#000;stroke-opacity:1;stroke-miterlimit:10" d="m1548.516 1701.64-172.5 136.212-576.641 36.21" transform="matrix(.1 0 0 -.1 0 200)"/><path style="fill-rule:nonzero;fill:#1239b7;fill-opacity:1;stroke-width:5.95555;stroke-linecap:round;stroke-linejoin:round;stroke:#000;stroke-opacity:1;stroke-miterlimit:10" d="m549.023 1765.234-242.695-192.578-228.203-530.781" transform="matrix(.1 0 0 -.1 0 200)"/><path style="stroke:none;fill-rule:nonzero;fill:#1239b7;fill-opacity:1" d="m7.813 95.813 7.804 19.593 39.285-91.93"/><path style="fill:none;stroke-width:5.95555;stroke-linecap:round;stroke-linejoin:round;stroke:#000;stroke-opacity:1;stroke-miterlimit:10" d="m78.125 1041.875 78.047-195.938" transform="matrix(.1 0 0 -.1 0 200)"/><path style="stroke:none;fill-rule:nonzero;fill:#f5e1b6;fill-opacity:1" d="m182.492 52.633-27.64-22.797 25.18 97.191"/><path style="fill:none;stroke-width:5.95555;stroke-linecap:round;stroke-linejoin:round;stroke:#000;stroke-opacity:1;stroke-miterlimit:10" d="m1824.922 1473.672-276.406 227.969" transform="matrix(.1 0 0 -.1 0 200)"/><path style="fill-rule:nonzero;fill:#f5e1b6;fill-opacity:1;stroke-width:5.95555;stroke-linecap:round;stroke-linejoin:round;stroke:#000;stroke-opacity:1;stroke-miterlimit:10" d="m1800.313 729.727 172.968 180.898-148.36 563.047" transform="matrix(.1 0 0 -.1 0 200)"/><path style="fill-rule:nonzero;fill:#631f62;fill-opacity:1;stroke-width:5.95555;stroke-linecap:round;stroke-linejoin:round;stroke:#000;stroke-opacity:1;stroke-miterlimit:10" d="m156.172 845.938 50.156-370.43L652.031 91.25" transform="matrix(.1 0 0 -.1 0 200)"/><path style="stroke:none;fill-rule:nonzero;fill:#631f62;fill-opacity:1" d="m65.203 190.875 27.438-9.617-77.024-65.852"/><path style="fill:none;stroke-width:5.95555;stroke-linecap:round;stroke-linejoin:round;stroke:#000;stroke-opacity:1;stroke-miterlimit:10" d="m652.031 91.25 274.375 96.172" transform="matrix(.1 0 0 -.1 0 200)"/><path style="fill-rule:nonzero;fill:#cd7567;fill-opacity:1;stroke-width:5.95555;stroke-linecap:round;stroke-linejoin:round;stroke:#000;stroke-opacity:1;stroke-miterlimit:10" d="m1246.914 46.055 507.461 315.78 45.938 367.892" transform="matrix(.1 0 0 -.1 0 200)"/><path style="stroke:none;fill-rule:nonzero;fill:#cd7567;fill-opacity:1" d="m92.64 181.258 32.051 14.137 55.34-68.368"/><path style="fill:none;stroke-width:5.95555;stroke-linecap:round;stroke-linejoin:round;stroke:#000;stroke-opacity:1;stroke-miterlimit:10" d="m926.406 187.422 320.508-141.367" transform="matrix(.1 0 0 -.1 0 200)"/><path style="fill-rule:nonzero;fill:#1239b7;fill-opacity:1;stroke-width:5.95555;stroke-linecap:round;stroke-linejoin:round;stroke:#000;stroke-opacity:1;stroke-miterlimit:10" d="m156.172 845.938 309.414 463.437 83.437 455.86" transform="matrix(.1 0 0 -.1 0 200)"/><path style="fill-rule:nonzero;fill:#7ed5fe;fill-opacity:1;stroke-width:5.95555;stroke-linecap:round;stroke-linejoin:round;stroke:#000;stroke-opacity:1;stroke-miterlimit:10" d="m549.023 1765.234 470.079-116.523 529.414 52.93" transform="matrix(.1 0 0 -.1 0 200)"/><path style="fill-rule:nonzero;fill:#f5e1b6;fill-opacity:1;stroke-width:5.95555;stroke-linecap:round;stroke-linejoin:round;stroke:#000;stroke-opacity:1;stroke-miterlimit:10" d="m1548.516 1701.64-30.547-462.85 282.343-509.063" transform="matrix(.1 0 0 -.1 0 200)"/><path style="fill-rule:nonzero;fill:#631f62;fill-opacity:1;stroke-width:5.95555;stroke-linecap:round;stroke-linejoin:round;stroke:#000;stroke-opacity:1;stroke-miterlimit:10" d="m926.406 187.422-312.89 493.36-457.344 165.155" transform="matrix(.1 0 0 -.1 0 200)"/><path style="fill-rule:nonzero;fill:#cd7567;fill-opacity:1;stroke-width:5.95555;stroke-linecap:round;stroke-linejoin:round;stroke:#000;stroke-opacity:1;stroke-miterlimit:10" d="m1800.313 729.727-529.376-96.055-344.53-446.25" transform="matrix(.1 0 0 -.1 0 200)"/><path style="stroke:none;fill-rule:nonzero;fill:#3a52c0;fill-opacity:1" d="M127.094 136.633 92.64 181.258l29.164-51.832"/><path style="fill:none;stroke-width:5.95555;stroke-linecap:round;stroke-linejoin:round;stroke:#000;stroke-opacity:1;stroke-miterlimit:10" d="m1270.938 633.672-344.532-446.25" transform="matrix(.1 0 0 -.1 0 200)"/><path style="stroke:none;fill-rule:nonzero;fill:#95d3fd;fill-opacity:1" d="m127.094 136.633 52.937-9.606-58.226 2.399"/><path style="fill:none;stroke-width:5.95555;stroke-linecap:round;stroke-linejoin:round;stroke:#000;stroke-opacity:1;stroke-miterlimit:10" d="m1270.938 633.672 529.374 96.055" transform="matrix(.1 0 0 -.1 0 200)"/><path style="stroke:none;fill-rule:nonzero;fill:#3a52c0;fill-opacity:1" d="m151.797 76.121-24.703 60.512-5.29-7.207"/><path style="fill:none;stroke-width:5.95555;stroke-linecap:round;stroke-linejoin:round;stroke:#000;stroke-opacity:1;stroke-miterlimit:10" d="m1517.969 1238.79-247.032-605.118" transform="matrix(.1 0 0 -.1 0 200)"/><path style="stroke:none;fill-rule:nonzero;fill:#95d3fd;fill-opacity:1" d="m61.352 131.922 65.742 4.71-5.29-7.206"/><path style="fill:none;stroke-width:5.95555;stroke-linecap:round;stroke-linejoin:round;stroke:#000;stroke-opacity:1;stroke-miterlimit:10" d="m613.516 680.781 657.422-47.11" transform="matrix(.1 0 0 -.1 0 200)"/><path style="fill-rule:nonzero;fill:#b297bc;fill-opacity:1;stroke-width:5.95555;stroke-linecap:round;stroke-linejoin:round;stroke:#000;stroke-opacity:1;stroke-miterlimit:10" d="m1270.938 633.672 247.03 605.117-498.866 409.922" transform="matrix(.1 0 0 -.1 0 200)"/><path style="stroke:none;fill-rule:nonzero;fill:#b297bc;fill-opacity:1" d="m61.352 131.922 65.742 4.71L101.91 35.13"/><path style="fill:none;stroke-width:5.95555;stroke-linecap:round;stroke-linejoin:round;stroke:#000;stroke-opacity:1;stroke-miterlimit:10" d="m613.516 680.781 657.422-47.11" transform="matrix(.1 0 0 -.1 0 200)"/><path style="fill-rule:nonzero;fill:#b297bc;fill-opacity:1;stroke-width:5.95555;stroke-linecap:round;stroke-linejoin:round;stroke:#000;stroke-opacity:1;stroke-miterlimit:10" d="m1019.102 1648.71-553.516-339.335 147.93-628.594" transform="matrix(.1 0 0 -.1 0 200)"/></svg>