<svg xmlns="http://www.w3.org/2000/svg" width="202pt" height="205pt" viewBox="0 0 202 205" version="1.2"><path style="fill-rule:nonzero;fill:#b699ba;fill-opacity:1;stroke-width:6.34674;stroke-linecap:round;stroke-linejoin:round;stroke:#000;stroke-opacity:1;stroke-miterlimit:10" d="m594.414 640.156 105 624.805 626.68-102.188" transform="matrix(.1 0 0 -.1 0 205)"/><path style="fill-rule:nonzero;fill:#b699ba;fill-opacity:1;stroke-width:6.34674;stroke-linecap:round;stroke-linejoin:round;stroke:#000;stroke-opacity:1;stroke-miterlimit:10" d="m1326.094 1162.773-97.344-625.625-634.336 103.008" transform="matrix(.1 0 0 -.1 0 205)"/><path style="stroke:none;fill-rule:nonzero;fill:#9582bc;fill-opacity:1" d="m175.656 122.996-52.781 28.29 9.734-62.563"/><path style="fill:none;stroke-width:6.34674;stroke-linecap:round;stroke-linejoin:round;stroke:#000;stroke-opacity:1;stroke-miterlimit:10" d="M1756.563 820.04 1228.75 537.147l97.344 625.625Zm0 0" transform="matrix(.1 0 0 -.1 0 205)"/><path style="stroke:none;fill-rule:nonzero;fill:#b07d9d;fill-opacity:1" d="m109.633 33.602 22.976 55.12-62.668-10.218"/><path style="fill:none;stroke-width:6.34674;stroke-linecap:round;stroke-linejoin:round;stroke:#000;stroke-opacity:1;stroke-miterlimit:10" d="m1096.328 1713.984 229.766-551.21-626.68 102.187Zm0 0" transform="matrix(.1 0 0 -.1 0 205)"/><path style="stroke:none;fill-rule:nonzero;fill:#945f90;fill-opacity:1" d="m168.957 56.883-36.348 31.84-22.976-55.121"/><path style="fill:none;stroke-width:6.34674;stroke-linecap:round;stroke-linejoin:round;stroke:#000;stroke-opacity:1;stroke-miterlimit:10" d="m1689.57 1481.172-363.476-318.399-229.766 551.211Zm0 0" transform="matrix(.1 0 0 -.1 0 205)"/><path style="stroke:none;fill-rule:nonzero;fill:#8161a3;fill-opacity:1" d="m168.957 56.883 6.7 66.113-43.048-34.273"/><path style="fill:none;stroke-width:6.34674;stroke-linecap:round;stroke-linejoin:round;stroke:#000;stroke-opacity:1;stroke-miterlimit:10" d="m1689.57 1481.172 66.993-661.133-430.47 342.734Zm0 0" transform="matrix(.1 0 0 -.1 0 205)"/><path style="stroke:none;fill-rule:nonzero;fill:#d1abb2;fill-opacity:1" d="m69.941 78.504-10.5 62.48-40.773-43.55"/><path style="fill:none;stroke-width:6.34674;stroke-linecap:round;stroke-linejoin:round;stroke:#000;stroke-opacity:1;stroke-miterlimit:10" d="m699.414 1264.96-105-624.804-407.734 435.508Zm0 0" transform="matrix(.1 0 0 -.1 0 205)"/><path style="stroke:none;fill-rule:nonzero;fill:#d69a95;fill-opacity:1" d="M46.223 36.8 69.94 78.505l-51.273 18.93"/><path style="fill:none;stroke-width:6.34674;stroke-linecap:round;stroke-linejoin:round;stroke:#000;stroke-opacity:1;stroke-miterlimit:10" d="m462.227 1681.992 237.187-417.031-512.734-189.297Zm0 0" transform="matrix(.1 0 0 -.1 0 205)"/><path style="stroke:none;fill-rule:nonzero;fill:#c07d88;fill-opacity:1" d="M109.633 33.602 69.94 78.504 46.223 36.8"/><path style="fill:none;stroke-width:6.34674;stroke-linecap:round;stroke-linejoin:round;stroke:#000;stroke-opacity:1;stroke-miterlimit:10" d="m1096.328 1713.984-396.914-449.023-237.187 417.031Zm0 0" transform="matrix(.1 0 0 -.1 0 205)"/><path style="stroke:none;fill-rule:nonzero;fill:#b7b4d7;fill-opacity:1" d="M84.465 189.18 59.44 140.984l63.434 10.301"/><path style="fill:none;stroke-width:6.34674;stroke-linecap:round;stroke-linejoin:round;stroke:#000;stroke-opacity:1;stroke-miterlimit:10" d="M844.648 158.203 594.414 640.156l634.336-103.008Zm0 0" transform="matrix(.1 0 0 -.1 0 205)"/><path style="stroke:none;fill-rule:nonzero;fill:#7f88d2;fill-opacity:1" d="m150.543 180.04-27.668-28.755 52.781-28.289"/><path style="fill:none;stroke-width:6.34674;stroke-linecap:round;stroke-linejoin:round;stroke:#000;stroke-opacity:1;stroke-miterlimit:10" d="m1505.43 249.61-276.68 287.538 527.813 282.891Zm0 0" transform="matrix(.1 0 0 -.1 0 205)"/><path style="stroke:none;fill-rule:nonzero;fill:#95ade7;fill-opacity:1" d="m150.543 180.04-66.078 9.14 38.41-37.895"/><path style="fill:none;stroke-width:6.34674;stroke-linecap:round;stroke-linejoin:round;stroke:#000;stroke-opacity:1;stroke-miterlimit:10" d="m1505.43 249.61-660.782-91.407 384.102 378.945Zm0 0" transform="matrix(.1 0 0 -.1 0 205)"/><path style="stroke:none;fill-rule:nonzero;fill:#ced4dd;fill-opacity:1" d="m24.84 159.668 34.601-18.684 25.024 48.196"/><path style="fill:none;stroke-width:6.34674;stroke-linecap:round;stroke-linejoin:round;stroke:#000;stroke-opacity:1;stroke-miterlimit:10" d="m248.398 453.32 346.016 186.836 250.234-481.953Zm0 0" transform="matrix(.1 0 0 -.1 0 205)"/><path style="stroke:none;fill-rule:nonzero;fill:#e1ccc2;fill-opacity:1" d="m18.668 97.434 40.773 43.55-34.601 18.684"/><path style="fill:none;stroke-width:6.34674;stroke-linecap:round;stroke-linejoin:round;stroke:#000;stroke-opacity:1;stroke-miterlimit:10" d="m186.68 1075.664 407.734-435.508L248.398 453.32Zm0 0" transform="matrix(.1 0 0 -.1 0 205)"/><path style="stroke:none;fill-rule:nonzero;fill:#ad4441;fill-opacity:1" d="m94.45 8.95 15.183 24.652-63.41 3.199"/><path style="fill:none;stroke-width:6.34674;stroke-linecap:round;stroke-linejoin:round;stroke:#000;stroke-opacity:1;stroke-miterlimit:10" d="m944.492 1960.508 151.836-246.524-634.101-31.992Zm0 0" transform="matrix(.1 0 0 -.1 0 205)"/><path style="fill-rule:nonzero;fill:#46000a;fill-opacity:1;stroke-width:6.34674;stroke-linecap:round;stroke-linejoin:round;stroke:#000;stroke-opacity:1;stroke-miterlimit:10" d="m1096.328 1713.984-151.836 246.524 642.266-246.446" transform="matrix(.1 0 0 -.1 0 205)"/><path style="fill-rule:nonzero;fill:#46000a;fill-opacity:1;stroke-width:6.34674;stroke-linecap:round;stroke-linejoin:round;stroke:#000;stroke-opacity:1;stroke-miterlimit:10" d="m1586.758 1714.063 102.812-232.891-593.242 232.812" transform="matrix(.1 0 0 -.1 0 205)"/><path style="stroke:none;fill-rule:nonzero;fill:#271281;fill-opacity:1" d="m193.277 96.473-17.62 26.523-6.7-66.113"/><path style="fill:none;stroke-width:6.34674;stroke-linecap:round;stroke-linejoin:round;stroke:#000;stroke-opacity:1;stroke-miterlimit:10" d="m1932.773 1085.273-176.21-265.234-66.993 661.133Zm0 0" transform="matrix(.1 0 0 -.1 0 205)"/><path style="fill-rule:nonzero;fill:#00007c;fill-opacity:1;stroke-width:6.34674;stroke-linecap:round;stroke-linejoin:round;stroke:#000;stroke-opacity:1;stroke-miterlimit:10" d="m1756.563 820.04 176.21 265.233-266.328-610.585M1666.445 474.688 1505.43 249.608l251.132 570.43" transform="matrix(.1 0 0 -.1 0 205)"/><path style="stroke:none;fill-rule:nonzero;fill:#fce392;fill-opacity:1" d="m4.375 105.328 14.293-7.894 6.172 62.234"/><path style="fill:none;stroke-width:6.34674;stroke-linecap:round;stroke-linejoin:round;stroke:#000;stroke-opacity:1;stroke-miterlimit:10" d="m43.75 996.719 142.93 78.945 61.718-622.344Zm0 0" transform="matrix(.1 0 0 -.1 0 205)"/><path style="fill-rule:nonzero;fill:#e58312;fill-opacity:1;stroke-width:6.34674;stroke-linecap:round;stroke-linejoin:round;stroke:#000;stroke-opacity:1;stroke-miterlimit:10" d="M186.68 1075.664 43.75 996.72l299.922 663.203M343.672 1659.922l118.555 22.07-275.547-606.328" transform="matrix(.1 0 0 -.1 0 205)"/><path style="stroke:none;fill-rule:nonzero;fill:#000;fill-opacity:1" d="m158.676 33.594 34.601 62.879-24.32-39.59"/><path style="fill:none;stroke-width:6.34674;stroke-linecap:round;stroke-linejoin:round;stroke:#000;stroke-opacity:1;stroke-miterlimit:10" d="m1586.758 1714.063 346.015-628.79-243.203 395.899Zm0 0" transform="matrix(.1 0 0 -.1 0 205)"/><path style="stroke:none;fill-rule:nonzero;fill:#760000;fill-opacity:1" d="M94.45 8.95 46.222 36.8l-11.856 2.208"/><path style="fill:none;stroke-width:6.34674;stroke-linecap:round;stroke-linejoin:round;stroke:#000;stroke-opacity:1;stroke-miterlimit:10" d="m944.492 1960.508-482.265-278.516-118.555-22.07Zm0 0" transform="matrix(.1 0 0 -.1 0 205)"/><path style="stroke:none;fill-rule:nonzero;fill:#40b2f4;fill-opacity:1" d="m104.29 196.02-19.825-6.84 66.078-9.14"/><path style="fill:none;stroke-width:6.34674;stroke-linecap:round;stroke-linejoin:round;stroke:#000;stroke-opacity:1;stroke-miterlimit:10" d="m1042.89 89.805-198.242 68.398 660.782 91.406Zm0 0" transform="matrix(.1 0 0 -.1 0 205)"/><path style="fill-rule:nonzero;fill:#000;fill-opacity:1;stroke-width:6.34674;stroke-linecap:round;stroke-linejoin:round;stroke:#000;stroke-opacity:1;stroke-miterlimit:10" d="m844.648 158.203 198.243-68.398-647.852 321.367" transform="matrix(.1 0 0 -.1 0 205)"/><path style="fill-rule:nonzero;fill:#000;fill-opacity:1;stroke-width:6.34674;stroke-linecap:round;stroke-linejoin:round;stroke:#000;stroke-opacity:1;stroke-miterlimit:10" d="M395.04 411.172 248.397 453.32l596.25-295.117" transform="matrix(.1 0 0 -.1 0 205)"/><path style="stroke:none;fill-rule:nonzero;fill:#af2500;fill-opacity:1" d="m166.645 157.531-62.356 38.489 46.254-15.98"/><path style="fill:none;stroke-width:6.34674;stroke-linecap:round;stroke-linejoin:round;stroke:#000;stroke-opacity:1;stroke-miterlimit:10" d="M1666.445 474.688 1042.891 89.805l462.539 159.804Zm0 0" transform="matrix(.1 0 0 -.1 0 205)"/><path style="stroke:none;fill-rule:nonzero;fill:#000018;fill-opacity:1" d="m4.375 105.328 20.465 54.34 14.664 4.215"/><path style="fill:none;stroke-width:6.34674;stroke-linecap:round;stroke-linejoin:round;stroke:#000;stroke-opacity:1;stroke-miterlimit:10" d="M43.75 996.719 248.398 453.32l146.641-42.148Zm0 0" transform="matrix(.1 0 0 -.1 0 205)"/><path style="stroke:none;fill-rule:nonzero;fill:#7db1f5;fill-opacity:1" d="M98.426 37.273 94.449 8.95 34.367 39.008"/><path style="fill:none;stroke-width:6.34674;stroke-linecap:round;stroke-linejoin:round;stroke:#000;stroke-opacity:1;stroke-miterlimit:10" d="m984.258 1677.266-39.766 283.242-600.82-300.586Zm0 0" transform="matrix(.1 0 0 -.1 0 205)"/><path style="stroke:none;fill-rule:nonzero;fill:#adddf8;fill-opacity:1" d="m98.426 37.273 60.25-3.68L94.449 8.95"/><path style="fill:none;stroke-width:6.34674;stroke-linecap:round;stroke-linejoin:round;stroke:#000;stroke-opacity:1;stroke-miterlimit:10" d="m984.258 1677.266 602.5 36.796-642.266 246.446Zm0 0" transform="matrix(.1 0 0 -.1 0 205)"/><path style="stroke:none;fill-rule:nonzero;fill:#eedfc1;fill-opacity:1" d="m156.695 89.055 36.582 7.418-34.601-62.88"/><path style="fill:none;stroke-width:6.34674;stroke-linecap:round;stroke-linejoin:round;stroke:#000;stroke-opacity:1;stroke-miterlimit:10" d="m1566.953 1159.453 365.82-74.18-346.015 628.79Zm0 0" transform="matrix(.1 0 0 -.1 0 205)"/><path style="stroke:none;fill-rule:nonzero;fill:#eeba9a;fill-opacity:1" d="m156.695 89.055 9.95 68.476 26.632-61.058"/><path style="fill:none;stroke-width:6.34674;stroke-linecap:round;stroke-linejoin:round;stroke:#000;stroke-opacity:1;stroke-miterlimit:10" d="m1566.953 1159.453 99.492-684.765 266.328 610.585Zm0 0" transform="matrix(.1 0 0 -.1 0 205)"/><path style="stroke:none;fill-rule:nonzero;fill:#6b4b99;fill-opacity:1" d="M45.61 94.21 4.374 105.329l35.129 58.555"/><path style="fill:none;stroke-width:6.34674;stroke-linecap:round;stroke-linejoin:round;stroke:#000;stroke-opacity:1;stroke-miterlimit:10" d="M456.094 1107.89 43.75 996.72l351.29-585.547Zm0 0" transform="matrix(.1 0 0 -.1 0 205)"/><path style="stroke:none;fill-rule:nonzero;fill:#5d60bd;fill-opacity:1" d="m34.367 39.008-29.992 66.32 41.234-11.117"/><path style="fill:none;stroke-width:6.34674;stroke-linecap:round;stroke-linejoin:round;stroke:#000;stroke-opacity:1;stroke-miterlimit:10" d="M343.672 1659.922 43.75 996.719l412.344 111.172Zm0 0" transform="matrix(.1 0 0 -.1 0 205)"/><path style="stroke:none;fill-rule:nonzero;fill:#ccc8d6;fill-opacity:1" d="m98.426 37.273 58.27 51.782 1.98-55.461"/><path style="fill:none;stroke-width:6.34674;stroke-linecap:round;stroke-linejoin:round;stroke:#000;stroke-opacity:1;stroke-miterlimit:10" d="m984.258 1677.266 582.695-517.813 19.805 554.61Zm0 0" transform="matrix(.1 0 0 -.1 0 205)"/><path style="stroke:none;fill-rule:nonzero;fill:#c27376;fill-opacity:1" d="m104.254 147.09.035 48.93 62.356-38.489"/><path style="fill:none;stroke-width:6.34674;stroke-linecap:round;stroke-linejoin:round;stroke:#000;stroke-opacity:1;stroke-miterlimit:10" d="m1042.54 579.102.35-489.297 623.555 384.882Zm0 0" transform="matrix(.1 0 0 -.1 0 205)"/><path style="stroke:none;fill-rule:nonzero;fill:#9f5676;fill-opacity:1" d="m104.254 147.09-64.75 16.793 64.785 32.137"/><path style="fill:none;stroke-width:6.34674;stroke-linecap:round;stroke-linejoin:round;stroke:#000;stroke-opacity:1;stroke-miterlimit:10" d="m1042.54 579.102-647.5-167.93 647.85-321.367Zm0 0" transform="matrix(.1 0 0 -.1 0 205)"/><path style="stroke:none;fill-rule:nonzero;fill:#9193d2;fill-opacity:1" d="m98.426 37.273-64.059 1.735L45.61 94.21"/><path style="fill:none;stroke-width:6.34674;stroke-linecap:round;stroke-linejoin:round;stroke:#000;stroke-opacity:1;stroke-miterlimit:10" d="m984.258 1677.266-640.586-17.344 112.422-552.031Zm0 0" transform="matrix(.1 0 0 -.1 0 205)"/><path style="stroke:none;fill-rule:nonzero;fill:#cf9a9f;fill-opacity:1" d="m156.695 89.055-52.441 58.035 62.39 10.441"/><path style="fill:none;stroke-width:6.34674;stroke-linecap:round;stroke-linejoin:round;stroke:#000;stroke-opacity:1;stroke-miterlimit:10" d="M1566.953 1159.453 1042.54 579.102l623.906-104.414Zm0 0" transform="matrix(.1 0 0 -.1 0 205)"/><path style="stroke:none;fill-rule:nonzero;fill:#9b6e9e;fill-opacity:1" d="m45.61 94.21-6.106 69.673 64.75-16.793"/><path style="fill:none;stroke-width:6.34674;stroke-linecap:round;stroke-linejoin:round;stroke:#000;stroke-opacity:1;stroke-miterlimit:10" d="m456.094 1107.89-61.055-696.718 647.5 167.93Zm0 0" transform="matrix(.1 0 0 -.1 0 205)"/><path style="fill-rule:nonzero;fill:#b69abb;fill-opacity:1;stroke-width:6.34674;stroke-linecap:round;stroke-linejoin:round;stroke:#000;stroke-opacity:1;stroke-miterlimit:10" d="m1042.54 579.102 524.413 580.351-582.695 517.813" transform="matrix(.1 0 0 -.1 0 205)"/><path style="fill-rule:nonzero;fill:#b69abb;fill-opacity:1;stroke-width:6.34674;stroke-linecap:round;stroke-linejoin:round;stroke:#000;stroke-opacity:1;stroke-miterlimit:10" d="M984.258 1677.266 456.094 1107.89l586.445-528.79" transform="matrix(.1 0 0 -.1 0 205)"/></svg>