<svg xmlns="http://www.w3.org/2000/svg" width="264" height="268" viewBox="0 0 198 201" version="1.2"><path style="stroke:none;fill-rule:nonzero;fill:#bb93ae;fill-opacity:1" d="m106.18 89.195-35.075 14.688 5.43-37.746"/><path style="fill:none;stroke-width:6.28999;stroke-linecap:round;stroke-linejoin:round;stroke:#000;stroke-opacity:1;stroke-miterlimit:10" d="M1061.797 1118.047 711.055 971.172l54.297 377.46Zm0 0" transform="matrix(.1 0 0 -.1 0 201)"/><path style="fill-rule:nonzero;fill:#b39cc0;fill-opacity:1;stroke-width:6.28999;stroke-linecap:round;stroke-linejoin:round;stroke:#000;stroke-opacity:1;stroke-miterlimit:10" d="m743.203 600.04-32.148 371.132 350.742 146.875" transform="matrix(.1 0 0 -.1 0 201)"/><path style="stroke:none;fill-rule:nonzero;fill:#b39cc0;fill-opacity:1" d="m112.246 149.148-37.926-8.152 31.86-51.8"/><path style="fill:none;stroke-width:6.28999;stroke-linecap:round;stroke-linejoin:round;stroke:#000;stroke-opacity:1;stroke-miterlimit:10" d="m1122.46 518.516-379.257 81.523" transform="matrix(.1 0 0 -.1 0 201)"/><path style="fill-rule:nonzero;fill:#b39cc0;fill-opacity:1;stroke-width:6.28999;stroke-linecap:round;stroke-linejoin:round;stroke:#000;stroke-opacity:1;stroke-miterlimit:10" d="m1061.797 1118.047 255.312-274.61-194.648-324.921" transform="matrix(.1 0 0 -.1 0 201)"/><path style="stroke:none;fill-rule:nonzero;fill:#a484b2;fill-opacity:1" d="m141.262 79.496-9.551 37.16-25.531-27.46"/><path style="fill:none;stroke-width:6.28999;stroke-linecap:round;stroke-linejoin:round;stroke:#000;stroke-opacity:1;stroke-miterlimit:10" d="m1412.617 1215.04-95.508-371.602-255.312 274.609Zm0 0" transform="matrix(.1 0 0 -.1 0 201)"/><path style="stroke:none;fill-rule:nonzero;fill:#b385a4;fill-opacity:1" d="m112.664 53.324-6.484 35.871-29.645-23.058"/><path style="fill:none;stroke-width:6.28999;stroke-linecap:round;stroke-linejoin:round;stroke:#000;stroke-opacity:1;stroke-miterlimit:10" d="m1126.64 1476.758-64.843-358.711-296.445 230.586Zm0 0" transform="matrix(.1 0 0 -.1 0 201)"/><path style="stroke:none;fill-rule:nonzero;fill:#a77da6;fill-opacity:1" d="m112.664 53.324 28.598 26.172-35.082 9.7"/><path style="fill:none;stroke-width:6.28999;stroke-linecap:round;stroke-linejoin:round;stroke:#000;stroke-opacity:1;stroke-miterlimit:10" d="m1126.64 1476.758 285.977-261.719-350.82-96.992Zm0 0" transform="matrix(.1 0 0 -.1 0 201)"/><path style="stroke:none;fill-rule:nonzero;fill:#c7aec1;fill-opacity:1" d="m71.105 103.883 3.215 37.113-32.61-19.734"/><path style="fill:none;stroke-width:6.28999;stroke-linecap:round;stroke-linejoin:round;stroke:#000;stroke-opacity:1;stroke-miterlimit:10" d="m711.055 971.172 32.148-371.133L417.11 797.383Zm0 0" transform="matrix(.1 0 0 -.1 0 201)"/><path style="stroke:none;fill-rule:nonzero;fill:#cdaab5;fill-opacity:1" d="m43.012 82.184 28.093 21.699-29.394 17.379"/><path style="fill:none;stroke-width:6.28999;stroke-linecap:round;stroke-linejoin:round;stroke:#000;stroke-opacity:1;stroke-miterlimit:10" d="m430.117 1188.164 280.938-216.992-293.946-173.79Zm0 0" transform="matrix(.1 0 0 -.1 0 201)"/><path style="stroke:none;fill-rule:nonzero;fill:#c69bab;fill-opacity:1" d="m76.535 66.137-5.43 37.746-28.093-21.7"/><path style="fill:none;stroke-width:6.28999;stroke-linecap:round;stroke-linejoin:round;stroke:#000;stroke-opacity:1;stroke-miterlimit:10" d="m765.352 1348.633-54.297-377.461-280.938 216.992Zm0 0" transform="matrix(.1 0 0 -.1 0 201)"/><path style="stroke:none;fill-rule:nonzero;fill:#cb949c;fill-opacity:1" d="m52.242 45.645 24.293 20.492-33.523 16.047"/><path style="fill:none;stroke-width:6.28999;stroke-linecap:round;stroke-linejoin:round;stroke:#000;stroke-opacity:1;stroke-miterlimit:10" d="m522.422 1553.555 242.93-204.922-335.235-160.469Zm0 0" transform="matrix(.1 0 0 -.1 0 201)"/><path style="stroke:none;fill-rule:nonzero;fill:#b87587;fill-opacity:1" d="M76.535 66.137 52.242 45.645l60.442-21.778"/><path style="fill:none;stroke-width:6.28999;stroke-linecap:round;stroke-linejoin:round;stroke:#000;stroke-opacity:1;stroke-miterlimit:10" d="m765.352 1348.633-242.93 204.922" transform="matrix(.1 0 0 -.1 0 201)"/><path style="fill-rule:nonzero;fill:#b87587;fill-opacity:1;stroke-width:6.28999;stroke-linecap:round;stroke-linejoin:round;stroke:#000;stroke-opacity:1;stroke-miterlimit:10" d="m1126.836 1771.328-.195-294.57-361.29-128.125" transform="matrix(.1 0 0 -.1 0 201)"/><path style="stroke:none;fill-rule:nonzero;fill:#9d93c9;fill-opacity:1" d="m148.734 144.11-36.488 5.038 19.465-32.492"/><path style="fill:none;stroke-width:6.28999;stroke-linecap:round;stroke-linejoin:round;stroke:#000;stroke-opacity:1;stroke-miterlimit:10" d="m1487.344 568.906-364.883-50.39 194.648 324.922Zm0 0" transform="matrix(.1 0 0 -.1 0 201)"/><path style="stroke:none;fill-rule:nonzero;fill:#947bb4;fill-opacity:1" d="m163.902 107.45-32.191 9.206 9.55-37.16"/><path style="fill:none;stroke-width:6.28999;stroke-linecap:round;stroke-linejoin:round;stroke:#000;stroke-opacity:1;stroke-miterlimit:10" d="m1639.023 935.508-321.914-92.07 95.508 371.601Zm0 0" transform="matrix(.1 0 0 -.1 0 201)"/><path style="stroke:none;fill-rule:nonzero;fill:#8f82c1;fill-opacity:1" d="m163.902 107.45-15.168 36.66-17.023-27.454"/><path style="fill:none;stroke-width:6.28999;stroke-linecap:round;stroke-linejoin:round;stroke:#000;stroke-opacity:1;stroke-miterlimit:10" d="m1639.023 935.508-151.68-366.602-170.234 274.532Zm0 0" transform="matrix(.1 0 0 -.1 0 201)"/><path style="stroke:none;fill-rule:nonzero;fill:#9b6b99;fill-opacity:1" d="m145.61 45.883-4.348 33.613-28.598-26.172"/><path style="fill:none;stroke-width:6.28999;stroke-linecap:round;stroke-linejoin:round;stroke:#000;stroke-opacity:1;stroke-miterlimit:10" d="m1456.094 1551.172-43.477-336.133-285.976 261.719Zm0 0" transform="matrix(.1 0 0 -.1 0 201)"/><path style="stroke:none;fill-rule:nonzero;fill:#9c5f86;fill-opacity:1" d="m112.684 23.867 32.925 22.016-32.945 7.441"/><path style="fill:none;stroke-width:6.28999;stroke-linecap:round;stroke-linejoin:round;stroke:#000;stroke-opacity:1;stroke-miterlimit:10" d="m1126.836 1771.328 329.258-220.156-329.453-74.414Zm0 0" transform="matrix(.1 0 0 -.1 0 201)"/><path style="fill-rule:nonzero;fill:#755098;fill-opacity:1;stroke-width:6.28999;stroke-linecap:round;stroke-linejoin:round;stroke:#000;stroke-opacity:1;stroke-miterlimit:10" d="m1412.617 1215.04 43.477 336.132 267.617-62.266" transform="matrix(.1 0 0 -.1 0 201)"/><path style="stroke:none;fill-rule:nonzero;fill:#755098;fill-opacity:1" d="m163.902 107.45-22.64-27.954 31.11-27.387"/><path style="fill:none;stroke-width:6.28999;stroke-linecap:round;stroke-linejoin:round;stroke:#000;stroke-opacity:1;stroke-miterlimit:10" d="m1639.023 935.508-226.406 279.531" transform="matrix(.1 0 0 -.1 0 201)"/><path style="stroke:none;fill-rule:nonzero;fill:#b5b1d5;fill-opacity:1" d="m85.988 171.016-11.668-30.02 37.926 8.152"/><path style="fill:none;stroke-width:6.28999;stroke-linecap:round;stroke-linejoin:round;stroke:#000;stroke-opacity:1;stroke-miterlimit:10" d="m859.883 299.844-116.68 300.195 379.258-81.523Zm0 0" transform="matrix(.1 0 0 -.1 0 201)"/><path style="stroke:none;fill-rule:nonzero;fill:#c2c1d8;fill-opacity:1" d="m48.66 156.398 25.66-15.402 11.668 30.02"/><path style="fill:none;stroke-width:6.28999;stroke-linecap:round;stroke-linejoin:round;stroke:#000;stroke-opacity:1;stroke-miterlimit:10" d="m486.602 446.016 256.601 154.023 116.68-300.195Zm0 0" transform="matrix(.1 0 0 -.1 0 201)"/><path style="stroke:none;fill-rule:nonzero;fill:#cdbecc;fill-opacity:1" d="m41.71 121.262 32.61 19.734-25.66 15.402"/><path style="fill:none;stroke-width:6.28999;stroke-linecap:round;stroke-linejoin:round;stroke:#000;stroke-opacity:1;stroke-miterlimit:10" d="m417.11 797.383 326.093-197.344-256.601-154.023Zm0 0" transform="matrix(.1 0 0 -.1 0 201)"/><path style="stroke:none;fill-rule:nonzero;fill:#979dd8;fill-opacity:1" d="m125.27 173.047-13.024-23.899 36.488-5.039"/><path style="fill:none;stroke-width:6.28999;stroke-linecap:round;stroke-linejoin:round;stroke:#000;stroke-opacity:1;stroke-miterlimit:10" d="m1252.695 279.531-130.234 238.985 364.883 50.39Zm0 0" transform="matrix(.1 0 0 -.1 0 201)"/><path style="stroke:none;fill-rule:nonzero;fill:#a5b0df;fill-opacity:1" d="m125.27 173.047-39.282-2.031 26.258-21.868"/><path style="fill:none;stroke-width:6.28999;stroke-linecap:round;stroke-linejoin:round;stroke:#000;stroke-opacity:1;stroke-miterlimit:10" d="m1252.695 279.531-392.812 20.313 262.578 218.672Zm0 0" transform="matrix(.1 0 0 -.1 0 201)"/><path style="fill-rule:nonzero;fill:#e8bfaa;fill-opacity:1;stroke-width:6.28999;stroke-linecap:round;stroke-linejoin:round;stroke:#000;stroke-opacity:1;stroke-miterlimit:10" d="m223.047 1354.258 207.07-166.094-13.008-390.781" transform="matrix(.1 0 0 -.1 0 201)"/><path style="stroke:none;fill-rule:nonzero;fill:#d99c93;fill-opacity:1" d="m52.242 45.645-9.23 36.539-20.707-16.61"/><path style="fill:none;stroke-width:6.28999;stroke-linecap:round;stroke-linejoin:round;stroke:#000;stroke-opacity:1;stroke-miterlimit:10" d="m522.422 1553.555-92.305-365.39-207.07 166.093Zm0 0" transform="matrix(.1 0 0 -.1 0 201)"/><path style="stroke:none;fill-rule:nonzero;fill:#dcceca;fill-opacity:1" d="m19.945 131.64 21.766-10.378 6.95 35.136"/><path style="fill:none;stroke-width:6.28999;stroke-linecap:round;stroke-linejoin:round;stroke:#000;stroke-opacity:1;stroke-miterlimit:10" d="M199.453 693.594 417.11 797.383l69.493-351.367Zm0 0" transform="matrix(.1 0 0 -.1 0 201)"/><path style="stroke:none;fill-rule:nonzero;fill:#e8bfaa;fill-opacity:1" d="M41.71 121.262 19.946 131.64l2.36-66.067"/><path style="fill:none;stroke-width:6.28999;stroke-linecap:round;stroke-linejoin:round;stroke:#000;stroke-opacity:1;stroke-miterlimit:10" d="m417.11 797.383-217.657-103.79" transform="matrix(.1 0 0 -.1 0 201)"/><path style="stroke:none;fill-rule:nonzero;fill:#7473c3;fill-opacity:1" d="m176.277 132.465-27.543 11.644 15.168-36.66"/><path style="fill:none;stroke-width:6.28999;stroke-linecap:round;stroke-linejoin:round;stroke:#000;stroke-opacity:1;stroke-miterlimit:10" d="m1762.773 685.352-275.43-116.446 151.68 366.602Zm0 0" transform="matrix(.1 0 0 -.1 0 201)"/><path style="stroke:none;fill-rule:nonzero;fill:#5852b0;fill-opacity:1" d="m184.086 91.863-7.809 40.602-12.375-25.016"/><path style="fill:none;stroke-width:6.28999;stroke-linecap:round;stroke-linejoin:round;stroke:#000;stroke-opacity:1;stroke-miterlimit:10" d="m1840.86 1091.367-78.087-406.015-123.75 250.156Zm0 0" transform="matrix(.1 0 0 -.1 0 201)"/><path style="fill-rule:nonzero;fill:#755098;fill-opacity:1;stroke-width:6.28999;stroke-linecap:round;stroke-linejoin:round;stroke:#000;stroke-opacity:1;stroke-miterlimit:10" d="m1723.71 1488.906 117.15-397.539-201.837-155.86" transform="matrix(.1 0 0 -.1 0 201)"/><path style="fill-rule:nonzero;fill:#4d7ee0;fill-opacity:1;stroke-width:6.28999;stroke-linecap:round;stroke-linejoin:round;stroke:#000;stroke-opacity:1;stroke-miterlimit:10" d="m1487.344 568.906 275.43 116.446-58.32-227.618" transform="matrix(.1 0 0 -.1 0 201)"/><path style="stroke:none;fill-rule:nonzero;fill:#4d7ee0;fill-opacity:1" d="m125.27 173.047 23.464-28.938 21.711 11.118"/><path style="fill:none;stroke-width:6.28999;stroke-linecap:round;stroke-linejoin:round;stroke:#000;stroke-opacity:1;stroke-miterlimit:10" d="m1252.695 279.531 234.649 289.375" transform="matrix(.1 0 0 -.1 0 201)"/><path style="stroke:none;fill-rule:nonzero;fill:#de8d72;fill-opacity:1" d="m38.23 31.676 14.012 13.969-29.937 19.93"/><path style="fill:none;stroke-width:6.28999;stroke-linecap:round;stroke-linejoin:round;stroke:#000;stroke-opacity:1;stroke-miterlimit:10" d="m382.305 1693.242 140.117-139.687-299.375-199.297Zm0 0" transform="matrix(.1 0 0 -.1 0 201)"/><path style="stroke:none;fill-rule:nonzero;fill:#cd7262;fill-opacity:1" d="m74.262 18.48-22.02 27.165-14.012-13.97"/><path style="fill:none;stroke-width:6.28999;stroke-linecap:round;stroke-linejoin:round;stroke:#000;stroke-opacity:1;stroke-miterlimit:10" d="m742.617 1825.195-220.195-271.64-140.117 139.687Zm0 0" transform="matrix(.1 0 0 -.1 0 201)"/><path style="fill-rule:nonzero;fill:#b87587;fill-opacity:1;stroke-width:6.28999;stroke-linecap:round;stroke-linejoin:round;stroke:#000;stroke-opacity:1;stroke-miterlimit:10" d="m522.422 1553.555 220.195 271.64 384.219-53.867" transform="matrix(.1 0 0 -.1 0 201)"/><path style="stroke:none;fill-rule:nonzero;fill:#843967;fill-opacity:1" d="m143.535 22.11 2.074 23.773-32.925-22.016"/><path style="fill:none;stroke-width:6.28999;stroke-linecap:round;stroke-linejoin:round;stroke:#000;stroke-opacity:1;stroke-miterlimit:10" d="m1435.352 1788.906 20.742-237.734-329.258 220.156Zm0 0" transform="matrix(.1 0 0 -.1 0 201)"/><path style="stroke:none;fill-rule:nonzero;fill:#621d60;fill-opacity:1" d="m172.371 52.11-26.762-6.227-2.074-23.774"/><path style="fill:none;stroke-width:6.28999;stroke-linecap:round;stroke-linejoin:round;stroke:#000;stroke-opacity:1;stroke-miterlimit:10" d="m1723.71 1488.906-267.616 62.266-20.742 237.734Zm0 0" transform="matrix(.1 0 0 -.1 0 201)"/><path style="stroke:none;fill-rule:nonzero;fill:#9bc1f2;fill-opacity:1" d="m97.305 188.46-11.317-17.444 39.282 2.03"/><path style="fill:none;stroke-width:6.28999;stroke-linecap:round;stroke-linejoin:round;stroke:#000;stroke-opacity:1;stroke-miterlimit:10" d="M973.047 125.39 859.883 299.845l392.812-20.313Zm0 0" transform="matrix(.1 0 0 -.1 0 201)"/><path style="fill-rule:nonzero;fill:#b9ebf5;fill-opacity:1;stroke-width:6.28999;stroke-linecap:round;stroke-linejoin:round;stroke:#000;stroke-opacity:1;stroke-miterlimit:10" d="M859.883 299.844 973.047 125.39l-328.281 40.351" transform="matrix(.1 0 0 -.1 0 201)"/><path style="stroke:none;fill-rule:nonzero;fill:#b9ebf5;fill-opacity:1" d="m48.66 156.398 37.328 14.618-21.511 13.41"/><path style="fill:none;stroke-width:6.28999;stroke-linecap:round;stroke-linejoin:round;stroke:#000;stroke-opacity:1;stroke-miterlimit:10" d="m486.602 446.016 373.28-146.172" transform="matrix(.1 0 0 -.1 0 201)"/><path style="stroke:none;fill-rule:nonzero;fill:#9c3743;fill-opacity:1" d="m105.5 7.184 7.184 16.683-38.422-5.387"/><path style="fill:none;stroke-width:6.28999;stroke-linecap:round;stroke-linejoin:round;stroke:#000;stroke-opacity:1;stroke-miterlimit:10" d="m1055 1938.164 71.836-166.836-384.219 53.867Zm0 0" transform="matrix(.1 0 0 -.1 0 201)"/><path style="stroke:none;fill-rule:nonzero;fill:#791333;fill-opacity:1" d="m105.5 7.184 38.035 14.925-30.851 1.758"/><path style="fill:none;stroke-width:6.28999;stroke-linecap:round;stroke-linejoin:round;stroke:#000;stroke-opacity:1;stroke-miterlimit:10" d="m1055 1938.164 380.352-149.258-308.516-17.578Zm0 0" transform="matrix(.1 0 0 -.1 0 201)"/><path style="stroke:none;fill-rule:nonzero;fill:#e2e9d6;fill-opacity:1" d="m19.945 131.64 28.715 24.758-14.926 7.262"/><path style="fill:none;stroke-width:6.28999;stroke-linecap:round;stroke-linejoin:round;stroke:#000;stroke-opacity:1;stroke-miterlimit:10" d="m199.453 693.594 287.149-247.578-149.258-72.618Zm0 0" transform="matrix(.1 0 0 -.1 0 201)"/><path style="fill-rule:nonzero;fill:#b9ebf5;fill-opacity:1;stroke-width:6.28999;stroke-linecap:round;stroke-linejoin:round;stroke:#000;stroke-opacity:1;stroke-miterlimit:10" d="M644.766 165.742 337.344 373.398l149.258 72.618" transform="matrix(.1 0 0 -.1 0 201)"/><path style="stroke:none;fill-rule:nonzero;fill:#67b3fb;fill-opacity:1" d="m137.246 181.438-39.941 7.023 27.965-15.414"/><path style="fill:none;stroke-width:6.28999;stroke-linecap:round;stroke-linejoin:round;stroke:#000;stroke-opacity:1;stroke-miterlimit:10" d="m1372.46 195.625-399.413-70.234 279.648 154.14Zm0 0" transform="matrix(.1 0 0 -.1 0 201)"/><path style="fill-rule:nonzero;fill:#4d7ee0;fill-opacity:1;stroke-width:6.28999;stroke-linecap:round;stroke-linejoin:round;stroke:#000;stroke-opacity:1;stroke-miterlimit:10" d="m1704.453 457.734-331.992-262.109-119.766 83.906" transform="matrix(.1 0 0 -.1 0 201)"/><path style="fill-rule:nonzero;fill:#e8bfaa;fill-opacity:1;stroke-width:6.28999;stroke-linecap:round;stroke-linejoin:round;stroke:#000;stroke-opacity:1;stroke-miterlimit:10" d="M199.453 693.594 70.195 1046.406l152.852 307.852" transform="matrix(.1 0 0 -.1 0 201)"/><path style="stroke:none;fill-rule:nonzero;fill:#faae59;fill-opacity:1" d="m13.973 57.941 8.332 7.633L7.02 96.36"/><path style="fill:none;stroke-width:6.28999;stroke-linecap:round;stroke-linejoin:round;stroke:#000;stroke-opacity:1;stroke-miterlimit:10" d="m139.727 1430.586 83.32-76.328-152.852-307.852Zm0 0" transform="matrix(.1 0 0 -.1 0 201)"/><path style="stroke:none;fill-rule:nonzero;fill:#ec8a41;fill-opacity:1" d="M38.23 31.676 22.305 65.574l-8.332-7.633"/><path style="fill:none;stroke-width:6.28999;stroke-linecap:round;stroke-linejoin:round;stroke:#000;stroke-opacity:1;stroke-miterlimit:10" d="m382.305 1693.242-159.258-338.984-83.32 76.328Zm0 0" transform="matrix(.1 0 0 -.1 0 201)"/><path style="stroke:none;fill-rule:nonzero;fill:#b8390e;fill-opacity:1" d="m65.727 10.992 8.535 7.488L38.23 31.676"/><path style="fill:none;stroke-width:6.28999;stroke-linecap:round;stroke-linejoin:round;stroke:#000;stroke-opacity:1;stroke-miterlimit:10" d="m657.266 1900.078 85.351-74.883-360.312-131.953Zm0 0" transform="matrix(.1 0 0 -.1 0 201)"/><path style="stroke:none;fill-rule:nonzero;fill:#8d0500;fill-opacity:1" d="M105.5 7.184 74.262 18.48l-8.535-7.488"/><path style="fill:none;stroke-width:6.28999;stroke-linecap:round;stroke-linejoin:round;stroke:#000;stroke-opacity:1;stroke-miterlimit:10" d="m1055 1938.164-312.383-112.969-85.351 74.883Zm0 0" transform="matrix(.1 0 0 -.1 0 201)"/><path style="stroke:none;fill-rule:nonzero;fill:#e8fab3;fill-opacity:1" d="m11.258 131.957 8.687-.316 13.79 32.02"/><path style="fill:none;stroke-width:6.28999;stroke-linecap:round;stroke-linejoin:round;stroke:#000;stroke-opacity:1;stroke-miterlimit:10" d="m112.578 690.43 86.875 3.164 137.89-320.196Zm0 0" transform="matrix(.1 0 0 -.1 0 201)"/><path style="stroke:none;fill-rule:nonzero;fill:#f9e893;fill-opacity:1" d="m7.02 96.36 12.925 35.28-8.687.317"/><path style="fill:none;stroke-width:6.28999;stroke-linecap:round;stroke-linejoin:round;stroke:#000;stroke-opacity:1;stroke-miterlimit:10" d="m70.195 1046.406 129.258-352.812-86.875-3.164Zm0 0" transform="matrix(.1 0 0 -.1 0 201)"/><path style="stroke:none;fill-rule:nonzero;fill:#000f93;fill-opacity:1" d="m188.43 115.758-12.153 16.707 7.809-40.602"/><path style="fill:none;stroke-width:6.28999;stroke-linecap:round;stroke-linejoin:round;stroke:#000;stroke-opacity:1;stroke-miterlimit:10" d="m1884.297 852.422-121.524-167.07 78.086 406.015Zm0 0" transform="matrix(.1 0 0 -.1 0 201)"/><path style="stroke:none;fill-rule:nonzero;fill:#00008c;fill-opacity:1" d="m170.445 155.227 5.832-22.762 12.153-16.707"/><path style="fill:none;stroke-width:6.28999;stroke-linecap:round;stroke-linejoin:round;stroke:#000;stroke-opacity:1;stroke-miterlimit:10" d="m1704.453 457.734 58.32 227.618 121.524 167.07Zm0 0" transform="matrix(.1 0 0 -.1 0 201)"/><path style="stroke:none;fill-rule:nonzero;fill:#000049;fill-opacity:1" d="m186.367 72.363-2.281 19.5L172.37 52.11"/><path style="fill:none;stroke-width:6.28999;stroke-linecap:round;stroke-linejoin:round;stroke:#000;stroke-opacity:1;stroke-miterlimit:10" d="m1863.672 1286.367-22.813-195-117.148 397.54Zm0 0" transform="matrix(.1 0 0 -.1 0 201)"/><path style="stroke:none;fill-rule:nonzero;fill:#000031;fill-opacity:1" d="m186.367 72.363 2.063 43.395-4.344-23.895"/><path style="fill:none;stroke-width:6.28999;stroke-linecap:round;stroke-linejoin:round;stroke:#000;stroke-opacity:1;stroke-miterlimit:10" d="m1863.672 1286.367 20.625-433.945-43.438 238.945Zm0 0" transform="matrix(.1 0 0 -.1 0 201)"/><path style="stroke:none;fill-rule:nonzero;fill:#000;fill-opacity:1" d="m164.504 34.648 7.867 17.461-28.836-30"/><path style="fill:none;stroke-width:6.28999;stroke-linecap:round;stroke-linejoin:round;stroke:#000;stroke-opacity:1;stroke-miterlimit:10" d="m1645.04 1663.516 78.67-174.61-288.358 300Zm0 0" transform="matrix(.1 0 0 -.1 0 201)"/><path style="stroke:none;fill-rule:nonzero;fill:#000;fill-opacity:1" d="m164.504 34.648 21.863 37.715-13.996-20.254"/><path style="fill:none;stroke-width:6.28999;stroke-linecap:round;stroke-linejoin:round;stroke:#000;stroke-opacity:1;stroke-miterlimit:10" d="m1645.04 1663.516 218.632-377.149-139.961 202.54Zm0 0" transform="matrix(.1 0 0 -.1 0 201)"/><path style="stroke:none;fill-rule:nonzero;fill:#81e8db;fill-opacity:1" d="M143.535 22.11 105.5 7.183l32.395 20.011"/><path style="fill:none;stroke-width:6.28999;stroke-linecap:round;stroke-linejoin:round;stroke:#000;stroke-opacity:1;stroke-miterlimit:10" d="M1435.352 1788.906 1055 1938.164" transform="matrix(.1 0 0 -.1 0 201)"/><path style="fill-rule:nonzero;fill:#81e8db;fill-opacity:1;stroke-width:6.28999;stroke-linecap:round;stroke-linejoin:round;stroke:#000;stroke-opacity:1;stroke-miterlimit:10" d="m1378.945 1738.047 266.094-74.531-209.687 125.39" transform="matrix(.1 0 0 -.1 0 201)"/><path style="stroke:none;fill-rule:nonzero;fill:#004bc8;fill-opacity:1" d="M38.23 31.676 13.973 57.94 59.52 24.152"/><path style="fill:none;stroke-width:6.28999;stroke-linecap:round;stroke-linejoin:round;stroke:#000;stroke-opacity:1;stroke-miterlimit:10" d="m382.305 1693.242-242.578-262.656" transform="matrix(.1 0 0 -.1 0 201)"/><path style="fill-rule:nonzero;fill:#004bc8;fill-opacity:1;stroke-width:6.28999;stroke-linecap:round;stroke-linejoin:round;stroke:#000;stroke-opacity:1;stroke-miterlimit:10" d="m595.195 1768.477 62.07 131.601-274.96-206.836" transform="matrix(.1 0 0 -.1 0 201)"/><path style="stroke:none;fill-rule:nonzero;fill:#0081be;fill-opacity:1" d="m105.816 187.742-8.511.719 39.941-7.024"/><path style="fill:none;stroke-width:6.28999;stroke-linecap:round;stroke-linejoin:round;stroke:#000;stroke-opacity:1;stroke-miterlimit:10" d="m1058.164 132.578-85.117-7.187 399.414 70.234Zm0 0" transform="matrix(.1 0 0 -.1 0 201)"/><path style="stroke:none;fill-rule:nonzero;fill:#080000;fill-opacity:1" d="m64.477 184.426 32.828 4.035 8.511-.719"/><path style="fill:none;stroke-width:6.28999;stroke-linecap:round;stroke-linejoin:round;stroke:#000;stroke-opacity:1;stroke-miterlimit:10" d="m644.766 165.742 328.28-40.351 85.118 7.187Zm0 0" transform="matrix(.1 0 0 -.1 0 201)"/><path style="stroke:none;fill-rule:nonzero;fill:#000001;fill-opacity:1" d="m7.852 92.727-.832 3.632 4.238 35.598"/><path style="fill:none;stroke-width:6.28999;stroke-linecap:round;stroke-linejoin:round;stroke:#000;stroke-opacity:1;stroke-miterlimit:10" d="m78.516 1082.734-8.32-36.328 42.382-355.976Zm0 0" transform="matrix(.1 0 0 -.1 0 201)"/><path style="stroke:none;fill-rule:nonzero;fill:#000023;fill-opacity:1" d="M13.973 57.941 7.02 96.36l.832-3.632"/><path style="fill:none;stroke-width:6.28999;stroke-linecap:round;stroke-linejoin:round;stroke:#000;stroke-opacity:1;stroke-miterlimit:10" d="m139.727 1430.586-69.532-384.18 8.32 36.328Zm0 0" transform="matrix(.1 0 0 -.1 0 201)"/><path style="stroke:none;fill-rule:nonzero;fill:#0e9cce;fill-opacity:1" d="m99.871 9.39 5.629-2.206-39.773 3.808"/><path style="fill:none;stroke-width:6.28999;stroke-linecap:round;stroke-linejoin:round;stroke:#000;stroke-opacity:1;stroke-miterlimit:10" d="m998.71 1916.094 56.29 22.07-397.734-38.086Zm0 0" transform="matrix(.1 0 0 -.1 0 201)"/><path style="fill-rule:nonzero;fill:#81e8db;fill-opacity:1;stroke-width:6.28999;stroke-linecap:round;stroke-linejoin:round;stroke:#000;stroke-opacity:1;stroke-miterlimit:10" d="m1055 1938.164-56.29-22.07 380.235-178.047" transform="matrix(.1 0 0 -.1 0 201)"/><path style="stroke:none;fill-rule:nonzero;fill:#000;fill-opacity:1" d="m34.535 159.898-.8 3.762 30.742 20.766"/><path style="fill:none;stroke-width:6.28999;stroke-linecap:round;stroke-linejoin:round;stroke:#000;stroke-opacity:1;stroke-miterlimit:10" d="m345.352 411.016-8.008-37.618 307.422-207.656Zm0 0" transform="matrix(.1 0 0 -.1 0 201)"/><path style="stroke:none;fill-rule:nonzero;fill:#000;fill-opacity:1" d="m11.258 131.957 22.476 31.703.801-3.762"/><path style="fill:none;stroke-width:6.28999;stroke-linecap:round;stroke-linejoin:round;stroke:#000;stroke-opacity:1;stroke-miterlimit:10" d="m112.578 690.43 224.766-317.032 8.008 37.618Zm0 0" transform="matrix(.1 0 0 -.1 0 201)"/><path style="stroke:none;fill-rule:nonzero;fill:#a91d00;fill-opacity:1" d="m145.246 169.875-8 11.563 33.2-26.211"/><path style="fill:none;stroke-width:6.28999;stroke-linecap:round;stroke-linejoin:round;stroke:#000;stroke-opacity:1;stroke-miterlimit:10" d="m1452.46 311.25-80-115.625 331.993 262.11Zm0 0" transform="matrix(.1 0 0 -.1 0 201)"/><path style="stroke:none;fill-rule:nonzero;fill:#9f1300;fill-opacity:1" d="m145.246 169.875-39.43 17.867 31.43-6.304"/><path style="fill:none;stroke-width:6.28999;stroke-linecap:round;stroke-linejoin:round;stroke:#000;stroke-opacity:1;stroke-miterlimit:10" d="m1452.46 311.25-394.296-178.672 314.297 63.047Zm0 0" transform="matrix(.1 0 0 -.1 0 201)"/><path style="stroke:none;fill-rule:nonzero;fill:#0022a7;fill-opacity:1" d="m25.734 54.785-11.761 3.156-6.121 34.786"/><path style="fill:none;stroke-width:6.28999;stroke-linecap:round;stroke-linejoin:round;stroke:#000;stroke-opacity:1;stroke-miterlimit:10" d="m257.344 1462.148-117.617-31.562-61.211-347.852Zm0 0" transform="matrix(.1 0 0 -.1 0 201)"/><path style="fill-rule:nonzero;fill:#004bc8;fill-opacity:1;stroke-width:6.28999;stroke-linecap:round;stroke-linejoin:round;stroke:#000;stroke-opacity:1;stroke-miterlimit:10" d="m139.727 1430.586 117.617 31.562 337.851 306.329" transform="matrix(.1 0 0 -.1 0 201)"/><path style="stroke:none;fill-rule:nonzero;fill:#60b2fb;fill-opacity:1" d="m99.871 9.39-34.144 1.602-6.207 13.16"/><path style="fill:none;stroke-width:6.28999;stroke-linecap:round;stroke-linejoin:round;stroke:#000;stroke-opacity:1;stroke-miterlimit:10" d="m998.71 1916.094-341.444-16.016-62.07-131.601Zm0 0" transform="matrix(.1 0 0 -.1 0 201)"/><path style="stroke:none;fill-rule:nonzero;fill:#ec8c22;fill-opacity:1" d="m172.938 134.328-2.493 20.899 17.985-39.47"/><path style="fill:none;stroke-width:6.28999;stroke-linecap:round;stroke-linejoin:round;stroke:#000;stroke-opacity:1;stroke-miterlimit:10" d="m1729.375 666.719-24.922-208.985 179.844 394.688Zm0 0" transform="matrix(.1 0 0 -.1 0 201)"/><path style="stroke:none;fill-rule:nonzero;fill:#e37b3b;fill-opacity:1" d="m172.938 134.328-27.692 35.547 25.2-14.648"/><path style="fill:none;stroke-width:6.28999;stroke-linecap:round;stroke-linejoin:round;stroke:#000;stroke-opacity:1;stroke-miterlimit:10" d="M1729.375 666.719 1452.461 311.25l251.992 146.484Zm0 0" transform="matrix(.1 0 0 -.1 0 201)"/><path style="stroke:none;fill-rule:nonzero;fill:#f8cc9c;fill-opacity:1" d="m188.43 115.758-2.063-43.395-26.129 27.532"/><path style="fill:none;stroke-width:6.28999;stroke-linecap:round;stroke-linejoin:round;stroke:#000;stroke-opacity:1;stroke-miterlimit:10" d="m1884.297 852.422-20.625 433.945" transform="matrix(.1 0 0 -.1 0 201)"/><path style="fill-rule:nonzero;fill:#f8cc9c;fill-opacity:1;stroke-width:6.28999;stroke-linecap:round;stroke-linejoin:round;stroke:#000;stroke-opacity:1;stroke-miterlimit:10" d="m1602.383 1011.055 126.992-344.336 154.922 185.703" transform="matrix(.1 0 0 -.1 0 201)"/><path style="stroke:none;fill-rule:nonzero;fill:#522d84;fill-opacity:1" d="m11.258 131.957 23.277 27.941-4.77-65.503"/><path style="fill:none;stroke-width:6.28999;stroke-linecap:round;stroke-linejoin:round;stroke:#000;stroke-opacity:1;stroke-miterlimit:10" d="m112.578 690.43 232.774-279.414" transform="matrix(.1 0 0 -.1 0 201)"/><path style="fill-rule:nonzero;fill:#522d84;fill-opacity:1;stroke-width:6.28999;stroke-linecap:round;stroke-linejoin:round;stroke:#000;stroke-opacity:1;stroke-miterlimit:10" d="m297.656 1066.055-219.14 16.68 34.062-392.305" transform="matrix(.1 0 0 -.1 0 201)"/><path style="stroke:none;fill-rule:nonzero;fill:#eef8ba;fill-opacity:1" d="m169.328 60.578 17.04 11.785-21.864-37.715"/><path style="fill:none;stroke-width:6.28999;stroke-linecap:round;stroke-linejoin:round;stroke:#000;stroke-opacity:1;stroke-miterlimit:10" d="m1693.281 1404.219 170.39-117.852-218.632 377.149Zm0 0" transform="matrix(.1 0 0 -.1 0 201)"/><path style="fill-rule:nonzero;fill:#f8cc9c;fill-opacity:1;stroke-width:6.28999;stroke-linecap:round;stroke-linejoin:round;stroke:#000;stroke-opacity:1;stroke-miterlimit:10" d="m1863.672 1286.367-170.39 117.852-90.9-393.164" transform="matrix(.1 0 0 -.1 0 201)"/><path style="stroke:none;fill-rule:nonzero;fill:#75031a;fill-opacity:1" d="m72.95 172.629-8.473 11.797 41.34 3.316"/><path style="fill:none;stroke-width:6.28999;stroke-linecap:round;stroke-linejoin:round;stroke:#000;stroke-opacity:1;stroke-miterlimit:10" d="m729.492 283.71-84.726-117.968 413.398-33.164Zm0 0" transform="matrix(.1 0 0 -.1 0 201)"/><path style="stroke:none;fill-rule:nonzero;fill:#5c002f;fill-opacity:1" d="m72.95 172.629-38.415-12.73 29.942 24.527"/><path style="fill:none;stroke-width:6.28999;stroke-linecap:round;stroke-linejoin:round;stroke:#000;stroke-opacity:1;stroke-miterlimit:10" d="m729.492 283.71-384.14 127.306 299.414-245.274Zm0 0" transform="matrix(.1 0 0 -.1 0 201)"/><path style="stroke:none;fill-rule:nonzero;fill:#deeddb;fill-opacity:1" d="m137.895 27.195 31.433 33.383-4.824-25.93"/><path style="fill:none;stroke-width:6.28999;stroke-linecap:round;stroke-linejoin:round;stroke:#000;stroke-opacity:1;stroke-miterlimit:10" d="m1378.945 1738.047 314.336-333.828-48.242 259.297Zm0 0" transform="matrix(.1 0 0 -.1 0 201)"/><path style="stroke:none;fill-rule:nonzero;fill:#b76874;fill-opacity:1" d="m105.816 187.742 39.43-17.867-52.922-26.457"/><path style="fill:none;stroke-width:6.28999;stroke-linecap:round;stroke-linejoin:round;stroke:#000;stroke-opacity:1;stroke-miterlimit:10" d="m1058.164 132.578 394.297 178.672" transform="matrix(.1 0 0 -.1 0 201)"/><path style="fill-rule:nonzero;fill:#b76874;fill-opacity:1;stroke-width:6.28999;stroke-linecap:round;stroke-linejoin:round;stroke:#000;stroke-opacity:1;stroke-miterlimit:10" d="m923.242 575.82-193.75-292.11 328.672-151.132" transform="matrix(.1 0 0 -.1 0 201)"/><path style="stroke:none;fill-rule:nonzero;fill:#5755b4;fill-opacity:1" d="M25.734 54.785 7.852 92.727l21.914 1.668"/><path style="fill:none;stroke-width:6.28999;stroke-linecap:round;stroke-linejoin:round;stroke:#000;stroke-opacity:1;stroke-miterlimit:10" d="M257.344 1462.148 78.516 1082.734l219.14-16.68Zm0 0" transform="matrix(.1 0 0 -.1 0 201)"/><path style="stroke:none;fill-rule:nonzero;fill:#9ab8ed;fill-opacity:1" d="m97.492 33.133 2.38-23.742L59.52 24.152"/><path style="fill:none;stroke-width:6.28999;stroke-linecap:round;stroke-linejoin:round;stroke:#000;stroke-opacity:1;stroke-miterlimit:10" d="m974.922 1678.672 23.789 237.422-403.516-147.617Zm0 0" transform="matrix(.1 0 0 -.1 0 201)"/><path style="stroke:none;fill-rule:nonzero;fill:#b3cbec;fill-opacity:1" d="m97.492 33.133 40.403-5.938L99.87 9.391"/><path style="fill:none;stroke-width:6.28999;stroke-linecap:round;stroke-linejoin:round;stroke:#000;stroke-opacity:1;stroke-miterlimit:10" d="m974.922 1678.672 404.023 59.375-380.234 178.047Zm0 0" transform="matrix(.1 0 0 -.1 0 201)"/><path style="stroke:none;fill-rule:nonzero;fill:#7f3d73;fill-opacity:1" d="m47.16 137.945-12.625 21.953 38.414 12.73"/><path style="fill:none;stroke-width:6.28999;stroke-linecap:round;stroke-linejoin:round;stroke:#000;stroke-opacity:1;stroke-miterlimit:10" d="m471.602 630.547-126.25-219.531 384.14-127.305Zm0 0" transform="matrix(.1 0 0 -.1 0 201)"/><path style="fill-rule:nonzero;fill:#522d84;fill-opacity:1;stroke-width:6.28999;stroke-linecap:round;stroke-linejoin:round;stroke:#000;stroke-opacity:1;stroke-miterlimit:10" d="m345.352 411.016 126.25 219.53-173.946 435.509" transform="matrix(.1 0 0 -.1 0 201)"/><path style="stroke:none;fill-rule:nonzero;fill:#d98c7a;fill-opacity:1" d="m138.82 141.996 6.426 27.879 27.691-35.547"/><path style="fill:none;stroke-width:6.28999;stroke-linecap:round;stroke-linejoin:round;stroke:#000;stroke-opacity:1;stroke-miterlimit:10" d="m1388.203 590.04 64.258-278.79 276.914 355.469Zm0 0" transform="matrix(.1 0 0 -.1 0 201)"/><path style="fill-rule:nonzero;fill:#b76874;fill-opacity:1;stroke-width:6.28999;stroke-linecap:round;stroke-linejoin:round;stroke:#000;stroke-opacity:1;stroke-miterlimit:10" d="m1452.46 311.25-64.257 278.79-464.96-14.22" transform="matrix(.1 0 0 -.1 0 201)"/><path style="stroke:none;fill-rule:nonzero;fill:#807bc3;fill-opacity:1" d="m57.703 57.691-31.969-2.906 4.032 39.61"/><path style="fill:none;stroke-width:6.28999;stroke-linecap:round;stroke-linejoin:round;stroke:#000;stroke-opacity:1;stroke-miterlimit:10" d="m577.031 1433.086-319.687 29.062 40.312-396.093Zm0 0" transform="matrix(.1 0 0 -.1 0 201)"/><path style="stroke:none;fill-rule:nonzero;fill:#808cd6;fill-opacity:1" d="M59.52 24.152 25.734 54.785l31.97 2.906"/><path style="fill:none;stroke-width:6.28999;stroke-linecap:round;stroke-linejoin:round;stroke:#000;stroke-opacity:1;stroke-miterlimit:10" d="m595.195 1768.477-337.851-306.329 319.687-29.062Zm0 0" transform="matrix(.1 0 0 -.1 0 201)"/><path style="stroke:none;fill-rule:nonzero;fill:#daa199;fill-opacity:1" d="m160.238 99.895-21.418 42.101 34.118-7.668"/><path style="fill:none;stroke-width:6.28999;stroke-linecap:round;stroke-linejoin:round;stroke:#000;stroke-opacity:1;stroke-miterlimit:10" d="m1602.383 1011.055-214.18-421.016 341.172 76.68Zm0 0" transform="matrix(.1 0 0 -.1 0 201)"/><path style="stroke:none;fill-rule:nonzero;fill:#9aa2da;fill-opacity:1" d="m97.492 33.133-37.972-8.98-1.817 33.538"/><path style="fill:none;stroke-width:6.28999;stroke-linecap:round;stroke-linejoin:round;stroke:#000;stroke-opacity:1;stroke-miterlimit:10" d="m974.922 1678.672-379.727 89.805-18.164-335.391Zm0 0" transform="matrix(.1 0 0 -.1 0 201)"/><path style="stroke:none;fill-rule:nonzero;fill:#d3ccd2;fill-opacity:1" d="m134.602 60.8 34.726-.222-31.433-33.383"/><path style="fill:none;stroke-width:6.28999;stroke-linecap:round;stroke-linejoin:round;stroke:#000;stroke-opacity:1;stroke-miterlimit:10" d="m1346.016 1401.992 347.265 2.227-314.336 333.828Zm0 0" transform="matrix(.1 0 0 -.1 0 201)"/><path style="stroke:none;fill-rule:nonzero;fill:#c1c0d8;fill-opacity:1" d="m97.492 33.133 37.11 27.668 3.293-33.606"/><path style="fill:none;stroke-width:6.28999;stroke-linecap:round;stroke-linejoin:round;stroke:#000;stroke-opacity:1;stroke-miterlimit:10" d="m974.922 1678.672 371.094-276.68 32.93 336.055Zm0 0" transform="matrix(.1 0 0 -.1 0 201)"/><path style="stroke:none;fill-rule:nonzero;fill:#d8bec0;fill-opacity:1" d="m134.602 60.8 25.636 39.095 9.09-39.317"/><path style="fill:none;stroke-width:6.28999;stroke-linecap:round;stroke-linejoin:round;stroke:#000;stroke-opacity:1;stroke-miterlimit:10" d="m1346.016 1401.992 256.367-390.937 90.898 393.164Zm0 0" transform="matrix(.1 0 0 -.1 0 201)"/><path style="stroke:none;fill-rule:nonzero;fill:#9d638b;fill-opacity:1" d="m92.324 143.418-45.164-5.473 25.79 34.684"/><path style="fill:none;stroke-width:6.28999;stroke-linecap:round;stroke-linejoin:round;stroke:#000;stroke-opacity:1;stroke-miterlimit:10" d="m923.242 575.82-451.64 54.727 257.89-346.836Zm0 0" transform="matrix(.1 0 0 -.1 0 201)"/><path style="stroke:none;fill-rule:nonzero;fill:#9371a9;fill-opacity:1" d="m29.766 94.395 17.394 43.55 22.434-36.289"/><path style="fill:none;stroke-width:6.28999;stroke-linecap:round;stroke-linejoin:round;stroke:#000;stroke-opacity:1;stroke-miterlimit:10" d="m297.656 1066.055 173.946-435.508 224.336 362.89Zm0 0" transform="matrix(.1 0 0 -.1 0 201)"/><path style="stroke:none;fill-rule:nonzero;fill:#9681ba;fill-opacity:1" d="M57.703 57.691 29.766 94.395l39.828 7.261"/><path style="fill:none;stroke-width:6.28999;stroke-linecap:round;stroke-linejoin:round;stroke:#000;stroke-opacity:1;stroke-miterlimit:10" d="m577.031 1433.086-279.375-367.031 398.281-72.618Zm0 0" transform="matrix(.1 0 0 -.1 0 201)"/><path style="fill-rule:nonzero;fill:#b29ec3;fill-opacity:1;stroke-width:6.28999;stroke-linecap:round;stroke-linejoin:round;stroke:#000;stroke-opacity:1;stroke-miterlimit:10" d="m1179.414 972.93 166.602 429.062-371.094 276.68" transform="matrix(.1 0 0 -.1 0 201)"/><path style="stroke:none;fill-rule:nonzero;fill:#b29ec3;fill-opacity:1" d="m69.594 101.656 48.347 2.051-20.449-70.574"/><path style="fill:none;stroke-width:6.28999;stroke-linecap:round;stroke-linejoin:round;stroke:#000;stroke-opacity:1;stroke-miterlimit:10" d="m695.938 993.438 483.476-20.508" transform="matrix(.1 0 0 -.1 0 201)"/><path style="fill-rule:nonzero;fill:#b29ec3;fill-opacity:1;stroke-width:6.28999;stroke-linecap:round;stroke-linejoin:round;stroke:#000;stroke-opacity:1;stroke-miterlimit:10" d="m974.922 1678.672-397.89-245.586 118.905-439.649" transform="matrix(.1 0 0 -.1 0 201)"/><path style="stroke:none;fill-rule:nonzero;fill:#a277a2;fill-opacity:1" d="m69.594 101.656-22.434 36.29 45.164 5.472"/><path style="fill:none;stroke-width:6.28999;stroke-linecap:round;stroke-linejoin:round;stroke:#000;stroke-opacity:1;stroke-miterlimit:10" d="M695.938 993.438 471.601 630.546l451.64-54.727Zm0 0" transform="matrix(.1 0 0 -.1 0 201)"/><path style="stroke:none;fill-rule:nonzero;fill:#cb9da8;fill-opacity:1" d="m117.941 103.707 20.88 38.29 21.417-42.102"/><path style="fill:none;stroke-width:6.28999;stroke-linecap:round;stroke-linejoin:round;stroke:#000;stroke-opacity:1;stroke-miterlimit:10" d="m1179.414 972.93 208.79-382.89 214.179 421.015Zm0 0" transform="matrix(.1 0 0 -.1 0 201)"/><path style="stroke:none;fill-rule:nonzero;fill:#caaab9;fill-opacity:1" d="m134.602 60.8-16.66 42.907 42.296-3.812"/><path style="fill:none;stroke-width:6.28999;stroke-linecap:round;stroke-linejoin:round;stroke:#000;stroke-opacity:1;stroke-miterlimit:10" d="M1346.016 1401.992 1179.414 972.93l422.969 38.125Zm0 0" transform="matrix(.1 0 0 -.1 0 201)"/><path style="stroke:none;fill-rule:nonzero;fill:#be8ca1;fill-opacity:1" d="m117.941 103.707-25.617 39.711 46.496-1.422"/><path style="fill:none;stroke-width:6.28999;stroke-linecap:round;stroke-linejoin:round;stroke:#000;stroke-opacity:1;stroke-miterlimit:10" d="M1179.414 972.93 923.242 575.82l464.961 14.22Zm0 0" transform="matrix(.1 0 0 -.1 0 201)"/><path style="stroke:none;fill-rule:nonzero;fill:#b289aa;fill-opacity:1" d="m117.941 103.707-48.347-2.05 22.73 41.761"/><path style="fill:none;stroke-width:6.28999;stroke-linecap:round;stroke-linejoin:round;stroke:#000;stroke-opacity:1;stroke-miterlimit:10" d="m1179.414 972.93-483.476 20.508L923.241 575.82Zm0 0" transform="matrix(.1 0 0 -.1 0 201)"/></svg>