<svg xmlns="http://www.w3.org/2000/svg" width="235.787" height="250.973" viewBox="0 0 176.84 188.23" version="1.2"><defs><clipPath id="a"><path d="M167 44h9.398v79H167Zm0 0"/></clipPath><clipPath id="b"><path d="M166 43h10.398v80H166Zm0 0"/></clipPath><clipPath id="c"><path d="M159 87h17.398v82H159Zm0 0"/></clipPath><clipPath id="d"><path d="M159 87h17.398v83H159Zm0 0"/></clipPath><clipPath id="e"><path d="M130 17h46.398v71H130Zm0 0"/></clipPath><clipPath id="f"><path d="M129 17h47.398v71H129Zm0 0"/></clipPath><clipPath id="g"><path d="M.281 61H40v73H.281Zm0 0"/></clipPath><clipPath id="h"><path d="M.281 0H50v66H.281Zm0 0"/></clipPath><clipPath id="i"><path d="M80 154h80v33.465H80Zm0 0"/></clipPath><clipPath id="j"><path d="M79 154h81v33.465H79Zm0 0"/></clipPath><clipPath id="k"><path d="M30 133h70v54.465H30Zm0 0"/></clipPath><clipPath id="l"><path d="M29 132h72v55.465H29Zm0 0"/></clipPath><clipPath id="m"><path d="M30 130h51v57.465H30Zm0 0"/></clipPath><clipPath id="n"><path d="M29 129h52v58.465H29Zm0 0"/></clipPath><clipPath id="o"><path d="M.281 65H34v69H.281Zm0 0"/></clipPath><clipPath id="p"><path d="M.281 0H74v66H.281Zm0 0"/></clipPath><clipPath id="q"><path d="M80 125h80v62.465H80Zm0 0"/></clipPath><clipPath id="r"><path d="M79 124h81v63.465H79Zm0 0"/></clipPath><clipPath id="s"><path d="M121 87h55.398v82H121Zm0 0"/></clipPath><clipPath id="t"><path d="M121 87h55.398v83H121Zm0 0"/></clipPath><clipPath id="u"><path d="M121 17h55.398v109H121Zm0 0"/></clipPath><clipPath id="v"><path d="M.281 51H74v80H.281Zm0 0"/></clipPath><clipPath id="w"><path d="M33 125h89v62.465H33Zm0 0"/></clipPath><clipPath id="x"><path d="M33 124h90v63.465H33Zm0 0"/></clipPath></defs><path style="stroke:none;fill-rule:nonzero;fill:#b299ab;fill-opacity:1" d="m170.203 122.078-64.066-37.695 60.941-40.168 3.125 77.863"/><path style="fill:none;stroke-width:6.7;stroke-linecap:round;stroke-linejoin:round;stroke:#231f20;stroke-opacity:1;stroke-miterlimit:10" d="m1706.177 656.525-643.285 378.495 611.907 403.323Zm0 0" transform="matrix(.0996 0 0 -.0996 .28 187.463)"/><path style="stroke:none;fill-rule:nonzero;fill:#bba9bc;fill-opacity:1" d="m170.203 122.078-70.27 32.5 6.204-70.195 64.066 37.695"/><path style="fill:none;stroke-width:6.7;stroke-linecap:round;stroke-linejoin:round;stroke:#231f20;stroke-opacity:1;stroke-miterlimit:10" d="m1706.177 656.525-705.57-326.33 62.285 704.825Zm0 0" transform="matrix(.0996 0 0 -.0996 .28 187.463)"/><path style="stroke:none;fill-rule:nonzero;fill:#c7a7aa;fill-opacity:1" d="m97.047 10.39 9.09 73.993-67.043-22.91L97.047 10.39"/><path style="fill:none;stroke-width:6.7;stroke-linecap:round;stroke-linejoin:round;stroke:#231f20;stroke-opacity:1;stroke-miterlimit:10" d="m971.622 1777.969 91.27-742.949-673.172 230.039Zm0 0" transform="matrix(.0996 0 0 -.0996 .28 187.463)"/><path style="stroke:none;fill-rule:nonzero;fill:#b599a7;fill-opacity:1" d="m106.137 84.383-9.09-73.992 70.031 33.824-60.941 40.168"/><path style="fill:none;stroke-width:6.7;stroke-linecap:round;stroke-linejoin:round;stroke:#231f20;stroke-opacity:1;stroke-miterlimit:10" d="m1062.892 1035.02-91.27 742.949 703.177-339.626Zm0 0" transform="matrix(.0996 0 0 -.0996 .28 187.463)"/><path style="fill-rule:nonzero;fill:#cebac0;fill-opacity:1;stroke-width:6.7;stroke-linecap:round;stroke-linejoin:round;stroke:#231f20;stroke-opacity:1;stroke-miterlimit:10" d="m389.72 1265.059 673.172-230.039-62.285-704.825" transform="matrix(.0996 0 0 -.0996 .28 187.463)"/><path style="stroke:none;fill-rule:nonzero;fill:#362e2c;fill-opacity:1" d="m130.219 17.625 36.86 26.59L97.046 10.39l33.172 7.234"/><path style="fill:none;stroke-width:6.7;stroke-linecap:round;stroke-linejoin:round;stroke:#231f20;stroke-opacity:1;stroke-miterlimit:10" d="m1304.697 1705.329 370.102-266.986-703.177 339.626Zm0 0" transform="matrix(.0996 0 0 -.0996 .28 187.463)"/><path style="stroke:none;fill-rule:nonzero;fill:#d49d89;fill-opacity:1" d="M97.047 10.39 39.094 61.474 49.297.332l47.75 10.059"/><path style="fill:none;stroke-width:6.7;stroke-linecap:round;stroke-linejoin:round;stroke:#231f20;stroke-opacity:1;stroke-miterlimit:10" d="m971.622 1777.969-581.902-512.91 102.448 613.907Zm0 0" transform="matrix(.0996 0 0 -.0996 .28 187.463)"/><path style="stroke:none;fill-rule:nonzero;fill:#5699b6;fill-opacity:1" d="m49.297.332 80.922 17.293-33.172-7.234L49.297.332"/><path style="fill:none;stroke-width:6.7;stroke-linecap:round;stroke-linejoin:round;stroke:#231f20;stroke-opacity:1;stroke-miterlimit:10" d="m492.168 1878.966 812.53-173.637-333.076 72.64Zm0 0" transform="matrix(.0996 0 0 -.0996 .28 187.463)"/><g clip-path="url(#a)"><path style="stroke:none;fill-rule:nonzero;fill:#473f52;fill-opacity:1" d="m167.078 44.215 8.984 43.351-5.859 34.512-3.125-77.863"/></g><g clip-path="url(#b)"><path style="fill:none;stroke-width:6.7;stroke-linecap:round;stroke-linejoin:round;stroke:#231f20;stroke-opacity:1;stroke-miterlimit:10" d="m1674.799 1438.343 90.211-435.29-58.833-346.528Zm0 0" transform="matrix(.0996 0 0 -.0996 .28 187.463)"/></g><path style="stroke:none;fill-rule:nonzero;fill:#a5a4c9;fill-opacity:1" d="m99.934 154.578 70.27-32.5-10.563 46.899-59.707-14.399"/><path style="fill:none;stroke-width:6.7;stroke-linecap:round;stroke-linejoin:round;stroke:#231f20;stroke-opacity:1;stroke-miterlimit:10" d="m1000.607 330.195 705.57 326.33-106.057-470.903Zm0 0" transform="matrix(.0996 0 0 -.0996 .28 187.463)"/><g clip-path="url(#c)"><path style="stroke:none;fill-rule:nonzero;fill:#c39231;fill-opacity:1" d="m176.063 87.566-16.422 81.41 10.562-46.898 5.86-34.512"/></g><g clip-path="url(#d)"><path style="fill:none;stroke-width:6.7;stroke-linecap:round;stroke-linejoin:round;stroke:#231f20;stroke-opacity:1;stroke-miterlimit:10" d="m1765.01 1003.054-164.89-817.432 106.057 470.903Zm0 0" transform="matrix(.0996 0 0 -.0996 .28 187.463)"/></g><g clip-path="url(#e)"><path style="stroke:none;fill-rule:nonzero;fill:#edefce;fill-opacity:1" d="m167.078 44.215-36.86-26.59 45.845 69.941-8.985-43.351"/></g><g clip-path="url(#f)"><path style="fill:none;stroke-width:6.7;stroke-linecap:round;stroke-linejoin:round;stroke:#231f20;stroke-opacity:1;stroke-miterlimit:10" d="m1674.799 1438.343-370.102 266.986 460.313-702.275Zm0 0" transform="matrix(.0996 0 0 -.0996 .28 187.463)"/></g><g clip-path="url(#g)"><path style="stroke:none;fill-rule:nonzero;fill:#e8c8ae;fill-opacity:1" d="m.613 65.48 38.48-4.007-8.808 71.773L.613 65.48"/><path style="fill:none;stroke-width:6.7;stroke-linecap:round;stroke-linejoin:round;stroke:#231f20;stroke-opacity:1;stroke-miterlimit:10" d="m3.34 1224.817 386.38 40.242-88.447-720.67Zm0 0" transform="matrix(.0996 0 0 -.0996 .28 187.463)"/></g><g clip-path="url(#h)"><path style="stroke:none;fill-rule:nonzero;fill:#e3a47b;fill-opacity:1" d="M39.094 61.473.614 65.48 49.296.332l-10.203 61.14"/><path style="fill:none;stroke-width:6.7;stroke-linecap:round;stroke-linejoin:round;stroke:#231f20;stroke-opacity:1;stroke-miterlimit:10" d="M389.72 1265.059 3.34 1224.817l488.828 654.15Zm0 0" transform="matrix(.0996 0 0 -.0996 .28 187.463)"/></g><path style="fill-rule:nonzero;fill:#cebac0;fill-opacity:1;stroke-width:6.7;stroke-linecap:round;stroke-linejoin:round;stroke:#231f20;stroke-opacity:1;stroke-miterlimit:10" d="M1000.607 330.195 301.273 544.388l88.447 720.67" transform="matrix(.0996 0 0 -.0996 .28 187.463)"/><g clip-path="url(#i)"><path style="stroke:none;fill-rule:nonzero;fill:#9faed8;fill-opacity:1" d="m80.02 187.129 19.914-32.55 59.707 14.398-79.621 18.152"/></g><g clip-path="url(#j)"><path style="fill:none;stroke-width:6.7;stroke-linecap:round;stroke-linejoin:round;stroke:#231f20;stroke-opacity:1;stroke-miterlimit:10" d="m800.652 3.356 199.955 326.84 599.513-144.574Zm0 0" transform="matrix(.0996 0 0 -.0996 .28 187.463)"/></g><g clip-path="url(#k)"><path style="stroke:none;fill-rule:nonzero;fill:#cfd1dd;fill-opacity:1" d="m80.02 187.129-49.735-53.883 69.649 21.332-19.914 32.55"/></g><g clip-path="url(#l)"><path style="fill:none;stroke-width:6.7;stroke-linecap:round;stroke-linejoin:round;stroke:#231f20;stroke-opacity:1;stroke-miterlimit:10" d="M800.652 3.356 301.273 544.388l699.334-214.193Zm0 0" transform="matrix(.0996 0 0 -.0996 .28 187.463)"/></g><g clip-path="url(#m)"><path style="stroke:none;fill-rule:nonzero;fill:#231f20;fill-opacity:1" d="M30.285 133.246 80.02 187.13l-46.47-57.031-3.265 3.148"/></g><g clip-path="url(#n)"><path style="fill:none;stroke-width:6.7;stroke-linecap:round;stroke-linejoin:round;stroke:#231f20;stroke-opacity:1;stroke-miterlimit:10" d="M301.273 544.388 800.652 3.356 334.063 576.001Zm0 0" transform="matrix(.0996 0 0 -.0996 .28 187.463)"/></g><g clip-path="url(#o)"><path style="stroke:none;fill-rule:nonzero;fill:#231f20;fill-opacity:1" d="m.613 65.48 29.672 67.766 3.266-3.148L.613 65.48"/><path style="fill:none;stroke-width:6.7;stroke-linecap:round;stroke-linejoin:round;stroke:#231f20;stroke-opacity:1;stroke-miterlimit:10" d="m3.34 1224.817 297.933-680.429 32.79 31.613Zm0 0" transform="matrix(.0996 0 0 -.0996 .28 187.463)"/></g><path style="stroke:none;fill-rule:nonzero;fill:#bdb8d0;fill-opacity:1" d="m49.297.332 24.191 51.102 56.73-33.809L49.298.332"/><path style="fill:none;stroke-width:6.7;stroke-linecap:round;stroke-linejoin:round;stroke:#231f20;stroke-opacity:1;stroke-miterlimit:10" d="m492.168 1878.966 242.904-513.106 569.625 339.469Zm0 0" transform="matrix(.0996 0 0 -.0996 .28 187.463)"/><g clip-path="url(#p)"><path style="stroke:none;fill-rule:nonzero;fill:#a599bb;fill-opacity:1" d="M73.488 51.434 49.297.332.613 65.48l72.875-14.046"/><path style="fill:none;stroke-width:6.7;stroke-linecap:round;stroke-linejoin:round;stroke:#231f20;stroke-opacity:1;stroke-miterlimit:10" d="m735.072 1365.86-242.904 513.106-488.827-654.15Zm0 0" transform="matrix(.0996 0 0 -.0996 .28 187.463)"/></g><g clip-path="url(#q)"><path style="stroke:none;fill-rule:nonzero;fill:#c5968f;fill-opacity:1" d="m159.64 168.977-37.93-43.825-41.69 61.977 79.62-18.152"/></g><g clip-path="url(#r)"><path style="fill:none;stroke-width:6.7;stroke-linecap:round;stroke-linejoin:round;stroke:#231f20;stroke-opacity:1;stroke-miterlimit:10" d="M1600.12 185.622 1219.27 625.657 800.651 3.356Zm0 0" transform="matrix(.0996 0 0 -.0996 .28 187.463)"/></g><g clip-path="url(#s)"><path style="stroke:none;fill-rule:nonzero;fill:#dbb2a1;fill-opacity:1" d="m159.64 168.977 16.423-81.41-54.352 37.585 37.93 43.825"/></g><g clip-path="url(#t)"><path style="fill:none;stroke-width:6.7;stroke-linecap:round;stroke-linejoin:round;stroke:#231f20;stroke-opacity:1;stroke-miterlimit:10" d="m1600.12 185.622 164.89 817.432-545.739-377.397Zm0 0" transform="matrix(.0996 0 0 -.0996 .28 187.463)"/></g><path style="fill-rule:nonzero;fill:#d0bdc2;fill-opacity:1;stroke-width:6.7;stroke-linecap:round;stroke-linejoin:round;stroke:#231f20;stroke-opacity:1;stroke-miterlimit:10" d="M1304.697 1705.329 735.072 1365.86l484.2-740.203" transform="matrix(.0996 0 0 -.0996 .28 187.463)"/><g clip-path="url(#u)"><path style="fill-rule:nonzero;fill:#d0bdc2;fill-opacity:1;stroke-width:6.7;stroke-linecap:round;stroke-linejoin:round;stroke:#231f20;stroke-opacity:1;stroke-miterlimit:10" d="m1219.271 625.657 545.74 377.397-460.314 702.275" transform="matrix(.0996 0 0 -.0996 .28 187.463)"/></g><g clip-path="url(#v)"><path style="stroke:none;fill-rule:nonzero;fill:#aa97b3;fill-opacity:1" d="m33.55 130.098 39.938-78.664L.613 65.48l32.938 64.618"/><path style="fill:none;stroke-width:6.7;stroke-linecap:round;stroke-linejoin:round;stroke:#231f20;stroke-opacity:1;stroke-miterlimit:10" d="m334.063 576.001 401.009 789.859L3.341 1224.817Zm0 0" transform="matrix(.0996 0 0 -.0996 .28 187.463)"/></g><g clip-path="url(#w)"><path style="stroke:none;fill-rule:nonzero;fill:#bd9599;fill-opacity:1" d="m121.71 125.152-88.16 4.946 46.47 57.03 41.69-61.976"/></g><g clip-path="url(#x)"><path style="fill:none;stroke-width:6.7;stroke-linecap:round;stroke-linejoin:round;stroke:#231f20;stroke-opacity:1;stroke-miterlimit:10" d="M1219.271 625.657 334.063 576 800.652 3.356Zm0 0" transform="matrix(.0996 0 0 -.0996 .28 187.463)"/></g><path style="stroke:none;fill-rule:nonzero;fill:#bea7b3;fill-opacity:1" d="m33.55 130.098 88.16-4.946-48.222-73.718-39.937 78.664"/><path style="fill:none;stroke-width:6.7;stroke-linecap:round;stroke-linejoin:round;stroke:#231f20;stroke-opacity:1;stroke-miterlimit:10" d="m334.063 576.001 885.208 49.656-484.199 740.203Zm0 0" transform="matrix(.0996 0 0 -.0996 .28 187.463)"/></svg>