<svg xmlns="http://www.w3.org/2000/svg" width="245pt" height="200pt" viewBox="0 0 245 200" version="1.2"><path style="stroke:none;fill-rule:nonzero;fill:#9c8dc3;fill-opacity:1" d="m192.89 77.52-10.562 110.675-82.773-49.12"/><path style="fill:none;stroke-width:7.98;stroke-linecap:round;stroke-linejoin:round;stroke:#000;stroke-opacity:1;stroke-miterlimit:10" d="M1928.906 1224.805 1823.281 118.047l-827.734 491.21Zm0 0" transform="matrix(.1 0 0 -.1 0 200)"/><path style="stroke:none;fill-rule:nonzero;fill:#caa2af;fill-opacity:1" d="m99.555 139.074-92.32-41.91 82.773-71.016"/><path style="fill:none;stroke-width:7.98;stroke-linecap:round;stroke-linejoin:round;stroke:#000;stroke-opacity:1;stroke-miterlimit:10" d="M995.547 609.258 72.344 1028.359l827.734 710.157Zm0 0" transform="matrix(.1 0 0 -.1 0 200)"/><path style="stroke:none;fill-rule:nonzero;fill:#d5cdd2;fill-opacity:1" d="m99.555 139.074-35.09 57.86-57.23-99.77"/><path style="fill:none;stroke-width:7.98;stroke-linecap:round;stroke-linejoin:round;stroke:#000;stroke-opacity:1;stroke-miterlimit:10" d="M995.547 609.258 644.648 30.664 72.344 1028.36Zm0 0" transform="matrix(.1 0 0 -.1 0 200)"/><path style="stroke:none;fill-rule:nonzero;fill:#ad88ae;fill-opacity:1" d="M99.555 139.074 90.008 26.148 192.89 77.52"/><path style="fill:none;stroke-width:7.98;stroke-linecap:round;stroke-linejoin:round;stroke:#000;stroke-opacity:1;stroke-miterlimit:10" d="m995.547 609.258-95.469 1129.258 1028.828-513.711Zm0 0" transform="matrix(.1 0 0 -.1 0 200)"/><path style="stroke:none;fill-rule:nonzero;fill:#afc0e6;fill-opacity:1" d="m182.328 188.195-117.863 8.739 35.09-57.86"/><path style="fill:none;stroke-width:7.98;stroke-linecap:round;stroke-linejoin:round;stroke:#000;stroke-opacity:1;stroke-miterlimit:10" d="M1823.281 118.047 644.648 30.664l350.899 578.594Zm0 0" transform="matrix(.1 0 0 -.1 0 200)"/><path style="stroke:none;fill-rule:nonzero;fill:#6c1446;fill-opacity:1" d="m90.008 26.148 57.527-10.539 45.356 61.91"/><path style="fill:none;stroke-width:7.98;stroke-linecap:round;stroke-linejoin:round;stroke:#000;stroke-opacity:1;stroke-miterlimit:10" d="m900.078 1738.516 575.274 105.39 453.554-619.101Zm0 0" transform="matrix(.1 0 0 -.1 0 200)"/><path style="fill-rule:nonzero;fill:#3e84e8;fill-opacity:1;stroke-width:7.98;stroke-linecap:round;stroke-linejoin:round;stroke:#000;stroke-opacity:1;stroke-miterlimit:10" d="m589.96 1066.992 885.392 776.914-575.274-105.39" transform="matrix(.1 0 0 -.1 0 200)"/><path style="fill-rule:nonzero;fill:#3e84e8;fill-opacity:1;stroke-width:7.98;stroke-linecap:round;stroke-linejoin:round;stroke:#000;stroke-opacity:1;stroke-miterlimit:10" d="M900.078 1738.516 72.344 1028.359l517.617 38.633" transform="matrix(.1 0 0 -.1 0 200)"/><path style="stroke:none;fill-rule:nonzero;fill:#5657b7;fill-opacity:1" d="m239.063 102.32-56.735 85.875L192.891 77.52"/><path style="fill:none;stroke-width:7.98;stroke-linecap:round;stroke-linejoin:round;stroke:#000;stroke-opacity:1;stroke-miterlimit:10" d="m2390.625 976.797-567.344-858.75 105.625 1106.758Zm0 0" transform="matrix(.1 0 0 -.1 0 200)"/><path style="stroke:none;fill-rule:nonzero;fill:#000;fill-opacity:1" d="m192.89 77.52-45.355-61.91 91.528 86.71"/><path style="fill:none;stroke-width:7.98;stroke-linecap:round;stroke-linejoin:round;stroke:#000;stroke-opacity:1;stroke-miterlimit:10" d="m1928.906 1224.805-453.554 619.101 915.273-867.11Zm0 0" transform="matrix(.1 0 0 -.1 0 200)"/><path style="stroke:none;fill-rule:nonzero;fill:#572f84;fill-opacity:1" d="M64.465 196.934 58.996 93.3 7.234 97.164"/><path style="fill:none;stroke-width:7.98;stroke-linecap:round;stroke-linejoin:round;stroke:#000;stroke-opacity:1;stroke-miterlimit:10" d="m644.648 30.664-54.687 1036.328-517.617-38.633Zm0 0" transform="matrix(.1 0 0 -.1 0 200)"/><path style="stroke:none;fill-rule:nonzero;fill:#310000;fill-opacity:1" d="m182.328 188.195-29.195-2.91-88.668 11.649"/><path style="fill:none;stroke-width:7.98;stroke-linecap:round;stroke-linejoin:round;stroke:#000;stroke-opacity:1;stroke-miterlimit:10" d="m1823.281 118.047-291.953 29.101-886.68-116.484Zm0 0" transform="matrix(.1 0 0 -.1 0 200)"/><path style="stroke:none;fill-rule:nonzero;fill:#dd6b1d;fill-opacity:1" d="m239.063 102.32-85.93 82.965 29.195 2.91"/><path style="fill:none;stroke-width:7.98;stroke-linecap:round;stroke-linejoin:round;stroke:#000;stroke-opacity:1;stroke-miterlimit:10" d="m2390.625 976.797-859.297-829.649 291.953-29.101Zm0 0" transform="matrix(.1 0 0 -.1 0 200)"/><path style="stroke:none;fill-rule:nonzero;fill:#895891;fill-opacity:1" d="m58.996 93.3 5.469 103.634 88.668-11.649"/><path style="fill:none;stroke-width:7.98;stroke-linecap:round;stroke-linejoin:round;stroke:#000;stroke-opacity:1;stroke-miterlimit:10" d="M589.96 1066.992 644.649 30.664l886.68 116.484Zm0 0" transform="matrix(.1 0 0 -.1 0 200)"/><path style="fill-rule:nonzero;fill:#bba7c5;fill-opacity:1;stroke-width:7.98;stroke-linecap:round;stroke-linejoin:round;stroke:#000;stroke-opacity:1;stroke-miterlimit:10" d="m1531.328 147.148 859.297 829.649-915.273 867.11M1475.352 1843.906 589.96 1066.992l941.367-919.844" transform="matrix(.1 0 0 -.1 0 200)"/></svg>