<svg xmlns="http://www.w3.org/2000/svg" width="384" height="260" viewBox="0 0 288 195" version="1.2"><path style="fill-rule:nonzero;fill:#a9bde8;fill-opacity:1;stroke-width:9.8648;stroke-linecap:round;stroke-linejoin:round;stroke:#000;stroke-opacity:1;stroke-miterlimit:10" d="m2830.938 506.719-763.516 1255.234L104.57 1426.016" transform="matrix(.1 0 0 -.1 0 195)"/><path style="stroke:none;fill-rule:nonzero;fill:#780000;fill-opacity:1" d="M206.742 18.805 10.457 52.398l129.16-47.3"/><path style="fill:none;stroke-width:9.8648;stroke-linecap:round;stroke-linejoin:round;stroke:#000;stroke-opacity:1;stroke-miterlimit:10" d="M2067.422 1761.953 104.57 1426.016l1291.602 473.007Zm0 0" transform="matrix(.1 0 0 -.1 0 195)"/><path style="stroke:none;fill-rule:nonzero;fill:#d2ffd4;fill-opacity:1" d="M283.094 144.328 206.742 18.805 139.617 5.098"/><path style="fill:none;stroke-width:9.8648;stroke-linecap:round;stroke-linejoin:round;stroke:#000;stroke-opacity:1;stroke-miterlimit:10" d="m2830.938 506.719-763.516 1255.234-671.25 137.07Zm0 0" transform="matrix(.1 0 0 -.1 0 195)"/><path style="stroke:none;fill-rule:nonzero;fill:#d2ffd4;fill-opacity:1" d="M283.094 144.328 206.742 18.805 139.617 5.098"/><path style="fill:none;stroke-width:9.8648;stroke-linecap:round;stroke-linejoin:round;stroke:#000;stroke-opacity:1;stroke-miterlimit:10" d="m2830.938 506.719-763.516 1255.234-671.25 137.07Zm0 0" transform="matrix(.1 0 0 -.1 0 195)"/><path style="fill-rule:nonzero;fill:#a9bde8;fill-opacity:1;stroke-width:9.8648;stroke-linecap:round;stroke-linejoin:round;stroke:#000;stroke-opacity:1;stroke-miterlimit:10" d="M104.57 1426.016 580.742 53.359l2250.195 453.36" transform="matrix(.1 0 0 -.1 0 195)"/><path style="stroke:none;fill-rule:nonzero;fill:#6876cd;fill-opacity:1" d="m10.457 52.398 47.617 137.266L139.617 5.098"/><path style="fill:none;stroke-width:9.8648;stroke-linecap:round;stroke-linejoin:round;stroke:#000;stroke-opacity:1;stroke-miterlimit:10" d="M104.57 1426.016 580.742 53.359l815.43 1845.664Zm0 0" transform="matrix(.1 0 0 -.1 0 195)"/><path style="stroke:none;fill-rule:nonzero;fill:#bfa4bd;fill-opacity:1" d="m58.074 189.664 225.02-45.336L139.617 5.098"/><path style="fill:none;stroke-width:9.8648;stroke-linecap:round;stroke-linejoin:round;stroke:#000;stroke-opacity:1;stroke-miterlimit:10" d="m580.742 53.36 2250.195 453.359-1434.765 1392.304Zm0 0" transform="matrix(.1 0 0 -.1 0 195)"/></svg>