<svg xmlns="http://www.w3.org/2000/svg" width="260pt" height="200pt" viewBox="0 0 260 200" version="1.2"><path style="stroke:none;fill-rule:nonzero;fill:#914063;fill-opacity:1" d="m145.3 12.723 80.04 41.863-77.778 4.703"/><path style="fill:none;stroke-width:9.02;stroke-linecap:round;stroke-linejoin:round;stroke:#000;stroke-opacity:1;stroke-miterlimit:10" d="m1453.008 1872.773 800.39-418.632-777.773-47.032Zm0 0" transform="matrix(.1 0 0 -.1 0 200)"/><path style="fill-rule:nonzero;fill:#c06865;fill-opacity:1;stroke-width:9.02;stroke-linecap:round;stroke-linejoin:round;stroke:#000;stroke-opacity:1;stroke-miterlimit:10" d="m1475.625 1407.11-855.938-282.93-85.625 449.336" transform="matrix(.1 0 0 -.1 0 200)"/><path style="fill-rule:nonzero;fill:#c06865;fill-opacity:1;stroke-width:9.02;stroke-linecap:round;stroke-linejoin:round;stroke:#000;stroke-opacity:1;stroke-miterlimit:10" d="m534.063 1573.516 918.945 299.257 22.617-465.664" transform="matrix(.1 0 0 -.1 0 200)"/><path style="fill-rule:nonzero;fill:#9588c3;fill-opacity:1;stroke-width:9.02;stroke-linecap:round;stroke-linejoin:round;stroke:#000;stroke-opacity:1;stroke-miterlimit:10" d="m1475.625 1407.11 777.773 47.03-150.703-894.843" transform="matrix(.1 0 0 -.1 0 200)"/><path style="fill-rule:nonzero;fill:#9588c3;fill-opacity:1;stroke-width:9.02;stroke-linecap:round;stroke-linejoin:round;stroke:#000;stroke-opacity:1;stroke-miterlimit:10" d="m2102.695 559.297-788.906-7.695 161.836 855.507" transform="matrix(.1 0 0 -.1 0 200)"/><path style="stroke:none;fill-rule:nonzero;fill:#b49dc0;fill-opacity:1" d="m131.379 144.84-69.41-57.258 85.594-28.293"/><path style="fill:none;stroke-width:9.02;stroke-linecap:round;stroke-linejoin:round;stroke:#000;stroke-opacity:1;stroke-miterlimit:10" d="M1313.79 551.602 619.687 1124.18l855.937 282.93Zm0 0" transform="matrix(.1 0 0 -.1 0 200)"/><path style="stroke:none;fill-rule:nonzero;fill:#ea9769;fill-opacity:1" d="m53.406 42.648 8.563 44.934-54.016 39.332"/><path style="fill:none;stroke-width:9.02;stroke-linecap:round;stroke-linejoin:round;stroke:#000;stroke-opacity:1;stroke-miterlimit:10" d="m534.063 1573.516 85.625-449.336L79.53 730.86Zm0 0" transform="matrix(.1 0 0 -.1 0 200)"/><path style="fill-rule:nonzero;fill:#c5c0d5;fill-opacity:1;stroke-width:9.02;stroke-linecap:round;stroke-linejoin:round;stroke:#000;stroke-opacity:1;stroke-miterlimit:10" d="m79.531 730.86 540.157 393.32 694.101-572.578" transform="matrix(.1 0 0 -.1 0 200)"/><path style="fill-rule:nonzero;fill:#c5c0d5;fill-opacity:1;stroke-width:9.02;stroke-linecap:round;stroke-linejoin:round;stroke:#000;stroke-opacity:1;stroke-miterlimit:10" d="M1313.79 551.602 808.124 117.188 79.531 730.859" transform="matrix(.1 0 0 -.1 0 200)"/><path style="fill-rule:nonzero;fill:#83b2f3;fill-opacity:1;stroke-width:9.02;stroke-linecap:round;stroke-linejoin:round;stroke:#000;stroke-opacity:1;stroke-miterlimit:10" d="m808.125 117.188 505.664 434.414 788.906 7.695" transform="matrix(.1 0 0 -.1 0 200)"/><path style="stroke:none;fill-rule:nonzero;fill:#3f49b4;fill-opacity:1" d="m210.27 144.07 15.07-89.484 29.191 24.137"/><path style="fill:none;stroke-width:9.02;stroke-linecap:round;stroke-linejoin:round;stroke:#000;stroke-opacity:1;stroke-miterlimit:10" d="m2102.695 559.297 150.703 894.844 291.914-241.368Zm0 0" transform="matrix(.1 0 0 -.1 0 200)"/><path style="fill-rule:nonzero;fill:#8becce;fill-opacity:1;stroke-width:9.02;stroke-linecap:round;stroke-linejoin:round;stroke:#000;stroke-opacity:1;stroke-miterlimit:10" d="m2545.313 1212.773-291.915 241.368-800.39 418.632" transform="matrix(.1 0 0 -.1 0 200)"/><path style="stroke:none;fill-rule:nonzero;fill:#c5fedd;fill-opacity:1" d="M80.813 188.281 19.94 157.61 7.953 126.914"/><path style="fill:none;stroke-width:9.02;stroke-linecap:round;stroke-linejoin:round;stroke:#000;stroke-opacity:1;stroke-miterlimit:10" d="m808.125 117.188-608.71 306.718L79.53 730.86Zm0 0" transform="matrix(.1 0 0 -.1 0 200)"/><path style="fill-rule:nonzero;fill:#173fba;fill-opacity:1;stroke-width:9.02;stroke-linecap:round;stroke-linejoin:round;stroke:#000;stroke-opacity:1;stroke-miterlimit:10" d="m79.531 730.86 119.883-306.954 494.063 909.102" transform="matrix(.1 0 0 -.1 0 200)"/><path style="fill-rule:nonzero;fill:#173fba;fill-opacity:1;stroke-width:9.02;stroke-linecap:round;stroke-linejoin:round;stroke:#000;stroke-opacity:1;stroke-miterlimit:10" d="m693.477 1333.008-159.414 240.508L79.53 730.859" transform="matrix(.1 0 0 -.1 0 200)"/><path style="fill-rule:nonzero;fill:#83b2f3;fill-opacity:1;stroke-width:9.02;stroke-linecap:round;stroke-linejoin:round;stroke:#000;stroke-opacity:1;stroke-miterlimit:10" d="m2102.695 559.297-480.234-455.82-814.336 13.71" transform="matrix(.1 0 0 -.1 0 200)"/><path style="fill-rule:nonzero;fill:#cb5200;fill-opacity:1;stroke-width:9.02;stroke-linecap:round;stroke-linejoin:round;stroke:#000;stroke-opacity:1;stroke-miterlimit:10" d="m1622.46 103.477 480.235 455.82 442.617 653.476" transform="matrix(.1 0 0 -.1 0 200)"/><path style="fill-rule:nonzero;fill:#8becce;fill-opacity:1;stroke-width:9.02;stroke-linecap:round;stroke-linejoin:round;stroke:#000;stroke-opacity:1;stroke-miterlimit:10" d="m1453.008 1872.773 233.71-213.32 858.594-446.68" transform="matrix(.1 0 0 -.1 0 200)"/><path style="fill-rule:nonzero;fill:#6ab1fa;fill-opacity:1;stroke-width:9.02;stroke-linecap:round;stroke-linejoin:round;stroke:#000;stroke-opacity:1;stroke-miterlimit:10" d="m693.477 1333.008 993.242 326.445-233.711 213.32" transform="matrix(.1 0 0 -.1 0 200)"/><path style="fill-rule:nonzero;fill:#6ab1fa;fill-opacity:1;stroke-width:9.02;stroke-linecap:round;stroke-linejoin:round;stroke:#000;stroke-opacity:1;stroke-miterlimit:10" d="m1453.008 1872.773-918.946-299.257 159.415-240.508" transform="matrix(.1 0 0 -.1 0 200)"/><path style="fill-rule:nonzero;fill:#680004;fill-opacity:1;stroke-width:9.02;stroke-linecap:round;stroke-linejoin:round;stroke:#000;stroke-opacity:1;stroke-miterlimit:10" d="m1037.93 425.82-838.516-1.914 608.711-306.719" transform="matrix(.1 0 0 -.1 0 200)"/><path style="fill-rule:nonzero;fill:#680004;fill-opacity:1;stroke-width:9.02;stroke-linecap:round;stroke-linejoin:round;stroke:#000;stroke-opacity:1;stroke-miterlimit:10" d="m808.125 117.188 814.336-13.711L1037.93 425.82" transform="matrix(.1 0 0 -.1 0 200)"/><path style="stroke:none;fill-rule:nonzero;fill:#d0c9d3;fill-opacity:1" d="m168.672 34.055 38.039 88.46 47.82-43.792"/><path style="fill:none;stroke-width:9.02;stroke-linecap:round;stroke-linejoin:round;stroke:#000;stroke-opacity:1;stroke-miterlimit:10" d="m1686.719 1659.453 380.39-884.61 478.204 437.93Zm0 0" transform="matrix(.1 0 0 -.1 0 200)"/><path style="fill-rule:nonzero;fill:#cb5200;fill-opacity:1;stroke-width:9.02;stroke-linecap:round;stroke-linejoin:round;stroke:#000;stroke-opacity:1;stroke-miterlimit:10" d="m2545.313 1212.773-478.204-437.93-444.648-671.366" transform="matrix(.1 0 0 -.1 0 200)"/><path style="stroke:none;fill-rule:nonzero;fill:#c26e6d;fill-opacity:1" d="m162.246 189.652 44.465-67.136-102.918 34.902"/><path style="fill:none;stroke-width:9.02;stroke-linecap:round;stroke-linejoin:round;stroke:#000;stroke-opacity:1;stroke-miterlimit:10" d="m1622.46 103.477 444.65 671.367L1037.93 425.82Zm0 0" transform="matrix(.1 0 0 -.1 0 200)"/><path style="stroke:none;fill-rule:nonzero;fill:#8f7ebc;fill-opacity:1" d="M69.348 66.7 19.94 157.61l83.852-.192"/><path style="fill:none;stroke-width:9.02;stroke-linecap:round;stroke-linejoin:round;stroke:#000;stroke-opacity:1;stroke-miterlimit:10" d="M693.477 1333.008 199.414 423.906l838.516 1.914Zm0 0" transform="matrix(.1 0 0 -.1 0 200)"/><path style="fill-rule:nonzero;fill:#b1a3ca;fill-opacity:1;stroke-width:9.02;stroke-linecap:round;stroke-linejoin:round;stroke:#000;stroke-opacity:1;stroke-miterlimit:10" d="m1037.93 425.82 1029.18 349.024-380.391 884.61" transform="matrix(.1 0 0 -.1 0 200)"/><path style="fill-rule:nonzero;fill:#b1a3ca;fill-opacity:1;stroke-width:9.02;stroke-linecap:round;stroke-linejoin:round;stroke:#000;stroke-opacity:1;stroke-miterlimit:10" d="m1686.719 1659.453-993.242-326.445L1037.93 425.82" transform="matrix(.1 0 0 -.1 0 200)"/></svg>