<svg xmlns="http://www.w3.org/2000/svg" width="207.5pt" height="245.627" viewBox="0 0 207.5 184.22" version="1.2"><defs><clipPath id="a"><path d="M.188 99H76v55H.187Zm0 0"/></clipPath><clipPath id="b"><path d="M.188 99H77v55H.187Zm0 0"/></clipPath><clipPath id="c"><path d="M.188 66H76v61H.187Zm0 0"/></clipPath><clipPath id="d"><path d="M.188 66H77v61H.187Zm0 0"/></clipPath><clipPath id="e"><path d="M75 124h84v59.441H75Zm0 0"/></clipPath><clipPath id="f"><path d="M75 123h84v60.441H75Zm0 0"/></clipPath><clipPath id="g"><path d="M130 92h29v91.441h-29Zm0 0"/></clipPath><clipPath id="h"><path d="M129 92h30v91.441h-30Zm0 0"/></clipPath><clipPath id="i"><path d="M125 41h81.813v84H125Zm0 0"/></clipPath><clipPath id="j"><path d="M124 41h82.813v84H124Zm0 0"/></clipPath><clipPath id="k"><path d="M130 64h76.813v61H130Zm0 0"/></clipPath><clipPath id="l"><path d="M129 64h77.813v61H129Zm0 0"/></clipPath><clipPath id="m"><path d="M.188 66H76v88H.187Zm0 0"/></clipPath><clipPath id="n"><path d="M.188 66H77v88H.187Zm0 0"/></clipPath><clipPath id="o"><path d="M125 41h81.813v52H125Zm0 0"/></clipPath><clipPath id="p"><path d="M124 41h82.813v52H124Zm0 0"/></clipPath><clipPath id="q"><path d="M75 92h84v91.441H75Zm0 0"/></clipPath></defs><path style="stroke:none;fill-rule:nonzero;fill:#a9bde8;fill-opacity:1" d="m75.824 99.61 68.867-24.743 6.293 49.29-75.16-24.548"/><path style="fill:none;stroke-width:5;stroke-linecap:round;stroke-linejoin:round;stroke:#000;stroke-opacity:1;stroke-miterlimit:10" d="m759.56 841.889 691.588 248.47 63.196-494.978Zm0 0" transform="matrix(.09958 0 0 -.09958 .188 183.443)"/><path style="stroke:none;fill-rule:nonzero;fill:#ce6f59;fill-opacity:1" d="m125.02 41.313 19.671 33.554L75.824 99.61l49.196-58.296"/><path style="fill:none;stroke-width:5;stroke-linecap:round;stroke-linejoin:round;stroke:#000;stroke-opacity:1;stroke-miterlimit:10" d="m1253.596 1427.326 197.552-336.968-691.588-248.47Zm0 0" transform="matrix(.09958 0 0 -.09958 .188 183.443)"/><path style="stroke:none;fill-rule:nonzero;fill:#e7e379;fill-opacity:1" d="m150.984 124.156-6.293-49.289-19.671-33.555 25.964 82.844"/><path style="fill:none;stroke-width:5;stroke-linecap:round;stroke-linejoin:round;stroke:#000;stroke-opacity:1;stroke-miterlimit:10" d="m1514.344 595.38-63.196 494.978-197.552 336.968Zm0 0" transform="matrix(.09958 0 0 -.09958 .188 183.443)"/><path style="stroke:none;fill-rule:nonzero;fill:#9872a5;fill-opacity:1" d="m150.984 124.156-50.039 53.637-25.12-78.184 75.16 24.547"/><path style="fill:none;stroke-width:5;stroke-linecap:round;stroke-linejoin:round;stroke:#000;stroke-opacity:1;stroke-miterlimit:10" d="m1514.344 595.38-502.51-538.638L759.56 841.89Zm0 0" transform="matrix(.09958 0 0 -.09958 .188 183.443)"/><path style="stroke:none;fill-rule:nonzero;fill:#f7eb97;fill-opacity:1" d="m75.824 99.61 25.121 78.183-25.02-24.121-.1-54.063"/><path style="fill:none;stroke-width:5;stroke-linecap:round;stroke-linejoin:round;stroke:#000;stroke-opacity:1;stroke-miterlimit:10" d="m759.56 841.889 252.274-785.147L760.58 298.975Zm0 0" transform="matrix(.09958 0 0 -.09958 .188 183.443)"/><path style="stroke:none;fill-rule:nonzero;fill:#ce6545;fill-opacity:1" d="m75.926 153.672 25.02 24.121 50.038-53.637-75.058 29.516"/><path style="fill:none;stroke-width:5;stroke-linecap:round;stroke-linejoin:round;stroke:#000;stroke-opacity:1;stroke-miterlimit:10" d="m760.58 298.975 251.254-242.233 502.51 538.639Zm0 0" transform="matrix(.09958 0 0 -.09958 .188 183.443)"/><path style="stroke:none;fill-rule:nonzero;fill:#9872a5;fill-opacity:1" d="m75.824 99.61 49.196-58.297 25.964 82.843-75.16-24.547"/><path style="fill:none;stroke-width:5;stroke-linecap:round;stroke-linejoin:round;stroke:#000;stroke-opacity:1;stroke-miterlimit:10" d="m759.56 841.889 494.036 585.437 260.748-831.945Zm0 0" transform="matrix(.09958 0 0 -.09958 .188 183.443)"/><path style="stroke:none;fill-rule:nonzero;fill:#a9bde8;fill-opacity:1" d="m75.926 153.672-.102-54.063 75.16 24.547-75.058 29.516"/><path style="fill:none;stroke-width:5;stroke-linecap:round;stroke-linejoin:round;stroke:#000;stroke-opacity:1;stroke-miterlimit:10" d="m760.58 298.975-1.02 542.914 754.784-246.508Zm0 0" transform="matrix(.09958 0 0 -.09958 .188 183.443)"/><g clip-path="url(#a)"><path style="stroke:none;fill-rule:nonzero;fill:#a9bde8;fill-opacity:1" d="M75.926 153.672.437 126.695 75.825 99.61l.102 54.063"/></g><g clip-path="url(#b)"><path style="fill:none;stroke-width:5;stroke-linecap:round;stroke-linejoin:round;stroke:#000;stroke-opacity:1;stroke-miterlimit:10" d="M760.58 298.975 2.5 569.883l757.06 272.006Zm0 0" transform="matrix(.09958 0 0 -.09958 .188 183.443)"/></g><path style="stroke:none;fill-rule:nonzero;fill:#9872a5;fill-opacity:1" d="M75.824 99.61 50.238 19.976l74.782 21.335L75.824 99.61"/><path style="fill:none;stroke-width:5;stroke-linecap:round;stroke-linejoin:round;stroke:#000;stroke-opacity:1;stroke-miterlimit:10" d="m759.56 841.889-256.943 799.7 750.979-214.263Zm0 0" transform="matrix(.09958 0 0 -.09958 .188 183.443)"/><g clip-path="url(#c)"><path style="stroke:none;fill-rule:nonzero;fill:#ce6f59;fill-opacity:1" d="M75.824 99.61.438 126.694l47.46-59.703L75.824 99.61"/></g><g clip-path="url(#d)"><path style="fill:none;stroke-width:5;stroke-linecap:round;stroke-linejoin:round;stroke:#000;stroke-opacity:1;stroke-miterlimit:10" d="M759.56 841.889 2.5 569.883l476.62 599.559Zm0 0" transform="matrix(.09958 0 0 -.09958 .188 183.443)"/></g><path style="stroke:none;fill-rule:nonzero;fill:#f7eb97;fill-opacity:1" d="m75.926 153.672-28.028-86.68L75.824 99.61l.102 54.063"/><path style="fill:none;stroke-width:5;stroke-linecap:round;stroke-linejoin:round;stroke:#000;stroke-opacity:1;stroke-miterlimit:10" d="m760.58 298.975-281.46 870.467 280.44-327.553Zm0 0" transform="matrix(.09958 0 0 -.09958 .188 183.443)"/><path style="stroke:none;fill-rule:nonzero;fill:#f7eb97;fill-opacity:1" d="m47.898 66.992 2.34-47.015 25.586 79.632-27.926-32.617"/><path style="fill:none;stroke-width:5;stroke-linecap:round;stroke-linejoin:round;stroke:#000;stroke-opacity:1;stroke-miterlimit:10" d="m479.12 1169.442 23.497 472.147 256.943-799.7Zm0 0" transform="matrix(.09958 0 0 -.09958 .188 183.443)"/><path style="stroke:none;fill-rule:nonzero;fill:#ce6f59;fill-opacity:1" d="M125.02 41.313 75.824 99.608 47.898 66.992l77.122-25.68"/><path style="fill:none;stroke-width:5;stroke-linecap:round;stroke-linejoin:round;stroke:#000;stroke-opacity:1;stroke-miterlimit:10" d="M1253.596 1427.326 759.56 841.889l-280.44 327.553Zm0 0" transform="matrix(.09958 0 0 -.09958 .188 183.443)"/><path style="stroke:none;fill-rule:nonzero;fill:#a5c2ed;fill-opacity:1" d="M125.02 41.313 50.238 19.977l-2.34 47.015 77.122-25.68"/><path style="fill:none;stroke-width:5;stroke-linecap:round;stroke-linejoin:round;stroke:#000;stroke-opacity:1;stroke-miterlimit:10" d="m1253.596 1427.326-750.979 214.263-23.497-472.147Zm0 0" transform="matrix(.09958 0 0 -.09958 .188 183.443)"/><g clip-path="url(#e)"><path style="stroke:none;fill-rule:nonzero;fill:#a9bde8;fill-opacity:1" d="m150.984 124.156 7.54 59.04-82.598-29.524 75.058-29.516"/></g><g clip-path="url(#f)"><path style="fill:none;stroke-width:5;stroke-linecap:round;stroke-linejoin:round;stroke:#000;stroke-opacity:1;stroke-miterlimit:10" d="m1514.344 595.38 75.71-592.89L760.58 298.975Zm0 0" transform="matrix(.09958 0 0 -.09958 .188 183.443)"/></g><path style="stroke:none;fill-rule:nonzero;fill:#ce6545;fill-opacity:1" d="M150.984 124.156 130.043 92.7l-54.117 60.973 75.058-29.516"/><path style="fill:none;stroke-width:5;stroke-linecap:round;stroke-linejoin:round;stroke:#000;stroke-opacity:1;stroke-miterlimit:10" d="m1514.344 595.38-210.301 315.903L760.58 298.975Zm0 0" transform="matrix(.09958 0 0 -.09958 .188 183.443)"/><path style="stroke:none;fill-rule:nonzero;fill:#e7e379;fill-opacity:1" d="m130.043 92.7 20.941 31.456-25.964-82.844 5.023 51.387"/><path style="fill:none;stroke-width:5;stroke-linecap:round;stroke-linejoin:round;stroke:#000;stroke-opacity:1;stroke-miterlimit:10" d="m1304.043 911.283 210.3-315.902-260.747 831.945Zm0 0" transform="matrix(.09958 0 0 -.09958 .188 183.443)"/><g clip-path="url(#g)"><path style="stroke:none;fill-rule:nonzero;fill:#e7e379;fill-opacity:1" d="m130.043 92.7 28.48 90.495-7.539-59.039L130.043 92.7"/></g><g clip-path="url(#h)"><path style="fill:none;stroke-width:5;stroke-linecap:round;stroke-linejoin:round;stroke:#000;stroke-opacity:1;stroke-miterlimit:10" d="M1304.043 911.283 1590.053 2.49l-75.71 592.89Zm0 0" transform="matrix(.09958 0 0 -.09958 .188 183.443)"/></g><g clip-path="url(#i)"><path style="stroke:none;fill-rule:nonzero;fill:#9872a5;fill-opacity:1" d="m125.02 41.313 81.546 23.265-55.582 59.578-25.964-82.844"/></g><g clip-path="url(#j)"><path style="fill:none;stroke-width:5;stroke-linecap:round;stroke-linejoin:round;stroke:#000;stroke-opacity:1;stroke-miterlimit:10" d="m1253.596 1427.326 818.921-233.642-558.173-598.303Zm0 0" transform="matrix(.09958 0 0 -.09958 .188 183.443)"/></g><g clip-path="url(#k)"><path style="stroke:none;fill-rule:nonzero;fill:#ce6545;fill-opacity:1" d="m150.984 124.156 55.582-59.578L130.043 92.7l20.941 31.457"/></g><g clip-path="url(#l)"><path style="fill:none;stroke-width:5;stroke-linecap:round;stroke-linejoin:round;stroke:#000;stroke-opacity:1;stroke-miterlimit:10" d="m1514.344 595.38 558.173 598.304-768.474-282.401Zm0 0" transform="matrix(.09958 0 0 -.09958 .188 183.443)"/></g><g clip-path="url(#m)"><path style="stroke:none;fill-rule:nonzero;fill:#956ea3;fill-opacity:1" d="M47.898 66.992.438 126.695l75.488 26.977-28.028-86.68"/></g><g clip-path="url(#n)"><path style="fill:none;stroke-width:5;stroke-linecap:round;stroke-linejoin:round;stroke:#000;stroke-opacity:1;stroke-miterlimit:10" d="M479.12 1169.442 2.5 569.882l758.08-270.907Zm0 0" transform="matrix(.09958 0 0 -.09958 .188 183.443)"/></g><path style="stroke:none;fill-rule:nonzero;fill:#ce6f59;fill-opacity:1" d="M47.898 66.992 100.945.25l24.075 41.063-77.122 25.68"/><path style="fill:none;stroke-width:5;stroke-linecap:round;stroke-linejoin:round;stroke:#000;stroke-opacity:1;stroke-miterlimit:10" d="m479.12 1169.442 532.714 670.247 241.762-412.363Zm0 0" transform="matrix(.09958 0 0 -.09958 .188 183.443)"/><g clip-path="url(#o)"><path style="stroke:none;fill-rule:nonzero;fill:#a5c2ed;fill-opacity:1" d="m130.043 92.7 76.523-28.122-81.546-23.266 5.023 51.387"/></g><g clip-path="url(#p)"><path style="fill:none;stroke-width:5;stroke-linecap:round;stroke-linejoin:round;stroke:#000;stroke-opacity:1;stroke-miterlimit:10" d="m1304.043 911.283 768.474 282.401-818.921 233.642Zm0 0" transform="matrix(.09958 0 0 -.09958 .188 183.443)"/></g><path style="stroke:none;fill-rule:nonzero;fill:#a5c2ed;fill-opacity:1" d="m125.02 41.313-77.122 25.68 82.145 25.706-5.023-51.386"/><path style="fill:none;stroke-width:5;stroke-linecap:round;stroke-linejoin:round;stroke:#000;stroke-opacity:1;stroke-miterlimit:10" d="M1253.596 1427.326 479.12 1169.442l824.923-258.16Zm0 0" transform="matrix(.09958 0 0 -.09958 .188 183.443)"/><path style="stroke:none;fill-rule:nonzero;fill:#e7e379;fill-opacity:1" d="M125.02 41.313 100.945.25l29.098 92.45-5.023-51.388"/><path style="fill:none;stroke-width:5;stroke-linecap:round;stroke-linejoin:round;stroke:#000;stroke-opacity:1;stroke-miterlimit:10" d="m1253.596 1427.326-241.762 412.363 292.209-928.406Zm0 0" transform="matrix(.09958 0 0 -.09958 .188 183.443)"/><path style="stroke:none;fill-rule:nonzero;fill:#f7eb97;fill-opacity:1" d="m75.926 153.672-30.864-29.75 2.836-56.93 28.028 86.68"/><path style="fill:none;stroke-width:5;stroke-linecap:round;stroke-linejoin:round;stroke:#000;stroke-opacity:1;stroke-miterlimit:10" d="m760.58 298.975-309.94 298.76 28.48 571.707Zm0 0" transform="matrix(.09958 0 0 -.09958 .188 183.443)"/><path style="stroke:none;fill-rule:nonzero;fill:#956ea3;fill-opacity:1" d="m47.898 66.992 28.028 86.68 54.117-60.973-82.145-25.707"/><path style="fill:none;stroke-width:5;stroke-linecap:round;stroke-linejoin:round;stroke:#000;stroke-opacity:1;stroke-miterlimit:10" d="m479.12 1169.442 281.46-870.467 543.463 612.308Zm0 0" transform="matrix(.09958 0 0 -.09958 .188 183.443)"/><path style="stroke:none;fill-rule:nonzero;fill:#ce6545;fill-opacity:1" d="m130.043 92.7-84.98 31.222 30.863 29.75 54.117-60.973"/><path style="fill:none;stroke-width:5;stroke-linecap:round;stroke-linejoin:round;stroke:#000;stroke-opacity:1;stroke-miterlimit:10" d="M1304.043 911.283 450.64 597.734l309.94-298.76Zm0 0" transform="matrix(.09958 0 0 -.09958 .188 183.443)"/><g clip-path="url(#q)"><path style="stroke:none;fill-rule:nonzero;fill:#956ea3;fill-opacity:1" d="m75.926 153.672 82.597 29.523-28.48-90.496-54.117 60.973"/><path style="fill:none;stroke-width:5;stroke-linecap:round;stroke-linejoin:round;stroke:#000;stroke-opacity:1;stroke-miterlimit:10" d="M760.58 298.975 1590.054 2.49l-286.011 908.793Zm0 0" transform="matrix(.09958 0 0 -.09958 .188 183.443)"/></g><path style="stroke:none;fill-rule:nonzero;fill:#a5c2ed;fill-opacity:1" d="m47.898 66.992-2.836 56.93 84.981-31.223-82.145-25.707"/><path style="fill:none;stroke-width:5;stroke-linecap:round;stroke-linejoin:round;stroke:#000;stroke-opacity:1;stroke-miterlimit:10" d="m479.12 1169.442-28.48-571.708 853.403 313.549Zm0 0" transform="matrix(.09958 0 0 -.09958 .188 183.443)"/><path style="stroke:none;fill-rule:nonzero;fill:#956ea3;fill-opacity:1" d="M130.043 92.7 100.945.25 47.898 66.992 130.043 92.7"/><path style="fill:none;stroke-width:5;stroke-linecap:round;stroke-linejoin:round;stroke:#000;stroke-opacity:1;stroke-miterlimit:10" d="m1304.043 911.283-292.209 928.406-532.714-670.247Zm0 0" transform="matrix(.09958 0 0 -.09958 .188 183.443)"/></svg>