<svg xmlns="http://www.w3.org/2000/svg" width="280" height="240" viewBox="0 0 210 180" version="1.2"><path style="stroke:none;fill-rule:nonzero;fill:#e9e1c9;fill-opacity:1" d="M7.828 41.922 99.04 164.336l-76.383 8.375"/><path style="fill:none;stroke-width:8.22334;stroke-linecap:round;stroke-linejoin:round;stroke:#000;stroke-opacity:1;stroke-miterlimit:10" d="m78.281 1380.781 912.11-1224.14-763.828-83.75Zm0 0" transform="matrix(.1 0 0 -.1 0 180)"/><path style="stroke:none;fill-rule:nonzero;fill:#6d6abe;fill-opacity:1" d="M99.04 164.336 166.44 25.434l32.774 126.757"/><path style="fill:none;stroke-width:8.22334;stroke-linecap:round;stroke-linejoin:round;stroke:#000;stroke-opacity:1;stroke-miterlimit:10" d="m990.39 156.64 674.024 1389.024 327.734-1267.578Zm0 0" transform="matrix(.1 0 0 -.1 0 180)"/><path style="stroke:none;fill-rule:nonzero;fill:#b0afd6;fill-opacity:1" d="m7.828 41.922 158.613-16.488L99.04 94.473"/><path style="fill:none;stroke-width:8.22334;stroke-linecap:round;stroke-linejoin:round;stroke:#000;stroke-opacity:1;stroke-miterlimit:10" d="m78.281 1380.781 1586.133 164.883" transform="matrix(.1 0 0 -.1 0 180)"/><path style="stroke:none;fill-rule:nonzero;fill:#6b0000;fill-opacity:1" d="M166.441 25.434 7.828 41.922 99.04 10.168"/><path style="fill:none;stroke-width:8.22334;stroke-linecap:round;stroke-linejoin:round;stroke:#000;stroke-opacity:1;stroke-miterlimit:10" d="M1664.414 1545.664 78.281 1380.781l912.11 317.54Zm0 0" transform="matrix(.1 0 0 -.1 0 180)"/><path style="stroke:none;fill-rule:nonzero;fill:#ec9a6a;fill-opacity:1" d="M166.441 25.434 99.04 164.336V94.473"/><path style="fill:none;stroke-width:8.22334;stroke-linecap:round;stroke-linejoin:round;stroke:#000;stroke-opacity:1;stroke-miterlimit:10" d="M1664.414 1545.664 990.391 156.641" transform="matrix(.1 0 0 -.1 0 180)"/><path style="stroke:none;fill-rule:nonzero;fill:#ec9a6a;fill-opacity:1" d="m99.04 10.168 67.401 15.266L99.04 94.473"/><path style="fill:none;stroke-width:8.22334;stroke-linecap:round;stroke-linejoin:round;stroke:#000;stroke-opacity:1;stroke-miterlimit:10" d="m990.39 1698.32 674.024-152.656" transform="matrix(.1 0 0 -.1 0 180)"/><path style="stroke:none;fill-rule:nonzero;fill:#743573;fill-opacity:1" d="M7.828 41.922 99.04 10.168v84.305"/><path style="fill:none;stroke-width:8.22334;stroke-linecap:round;stroke-linejoin:round;stroke:#000;stroke-opacity:1;stroke-miterlimit:10" d="m78.281 1380.781 912.11 317.54" transform="matrix(.1 0 0 -.1 0 180)"/><path style="stroke:none;fill-rule:nonzero;fill:#743573;fill-opacity:1" d="M99.04 164.336 7.827 41.922l91.211 52.55"/><path style="fill:none;stroke-width:8.22334;stroke-linecap:round;stroke-linejoin:round;stroke:#000;stroke-opacity:1;stroke-miterlimit:10" d="M990.39 156.64 78.282 1380.782" transform="matrix(.1 0 0 -.1 0 180)"/><path style="stroke:none;fill-rule:nonzero;fill:#b0afd6;fill-opacity:1" d="M22.656 172.71 7.828 41.923l91.211 52.55"/><path style="fill:none;stroke-width:8.22334;stroke-linecap:round;stroke-linejoin:round;stroke:#000;stroke-opacity:1;stroke-miterlimit:10" d="M226.563 72.89 78.28 1380.782" transform="matrix(.1 0 0 -.1 0 180)"/><path style="stroke:none;fill-rule:nonzero;fill:#ec9a6a;fill-opacity:1" d="m99.04 164.336-76.384 8.375L99.04 94.473"/><path style="fill:none;stroke-width:8.22334;stroke-linecap:round;stroke-linejoin:round;stroke:#000;stroke-opacity:1;stroke-miterlimit:10" d="M990.39 156.64 226.564 72.89" transform="matrix(.1 0 0 -.1 0 180)"/><path style="stroke:none;fill-rule:nonzero;fill:#b0afd6;fill-opacity:1" d="m166.441 25.434 32.774 126.757L99.039 94.473"/><path style="fill:none;stroke-width:8.22334;stroke-linecap:round;stroke-linejoin:round;stroke:#000;stroke-opacity:1;stroke-miterlimit:10" d="m1664.414 1545.664 327.734-1267.578" transform="matrix(.1 0 0 -.1 0 180)"/><path style="fill-rule:nonzero;fill:#743573;fill-opacity:1;stroke-width:8.22334;stroke-linecap:round;stroke-linejoin:round;stroke:#000;stroke-opacity:1;stroke-miterlimit:10" d="M990.39 1698.32 1992.149 278.086 990.391 156.64" transform="matrix(.1 0 0 -.1 0 180)"/><path style="stroke:none;fill-rule:nonzero;fill:#b0afd6;fill-opacity:1" d="m199.215 152.191-176.559 20.52L99.04 94.473"/><path style="fill:none;stroke-width:8.22334;stroke-linecap:round;stroke-linejoin:round;stroke:#000;stroke-opacity:1;stroke-miterlimit:10" d="M1992.148 278.086 226.563 72.89" transform="matrix(.1 0 0 -.1 0 180)"/><path style="stroke:none;fill-rule:nonzero;fill:#ec9a6a;fill-opacity:1" d="M22.656 172.71 99.04 10.169v84.305"/><path style="fill:none;stroke-width:8.22334;stroke-linecap:round;stroke-linejoin:round;stroke:#000;stroke-opacity:1;stroke-miterlimit:10" d="M226.563 72.89 990.39 1698.32" transform="matrix(.1 0 0 -.1 0 180)"/><path style="stroke:none;fill-rule:nonzero;fill:#ba8da7;fill-opacity:1" d="M99.04 10.168 22.655 172.711l176.559-20.52"/><path style="fill:none;stroke-width:8.22334;stroke-linecap:round;stroke-linejoin:round;stroke:#000;stroke-opacity:1;stroke-miterlimit:10" d="M990.39 1698.32 226.564 72.89l1765.585 205.196Zm0 0" transform="matrix(.1 0 0 -.1 0 180)"/></svg>