<svg xmlns="http://www.w3.org/2000/svg" width="231.573" height="236.36" viewBox="0 0 173.68 177.27" version="1.2"><defs><clipPath id="a"><path d="M76 139h21v37.543H76Zm0 0"/></clipPath><clipPath id="b"><path d="M76 137h23v39.543H76Zm0 0"/></clipPath><clipPath id="c"><path d="M76 137h23v39.543H76Zm0 0"/></clipPath><clipPath id="d"><path d="M.195 108H37v4H.195Zm0 0"/></clipPath><clipPath id="e"><path d="M.195 98H37v14H.195Zm0 0"/></clipPath><clipPath id="f"><path d="M.195 108H37v4H.195Zm0 0"/></clipPath><clipPath id="g"><path d="M.195 108H45v5H.195Zm0 0"/></clipPath><clipPath id="h"><path d="M96 67h77.164v78H96Zm0 0"/></clipPath><clipPath id="i"><path d="M.195 108H39v5H.195Zm0 0"/></clipPath><clipPath id="j"><path d="M.195 82H37v27H.195Zm0 0"/></clipPath><clipPath id="k"><path d="M.195 82H140v27H.195Zm0 0"/></clipPath><clipPath id="l"><path d="M67 133h16v43.543H67Zm0 0"/></clipPath><clipPath id="m"><path d="M58 133h19v43.543H58Zm0 0"/></clipPath><clipPath id="n"><path d="M.195 78H37v31H.195Zm0 0"/></clipPath><clipPath id="o"><path d="M.195 108H1v1H.195Zm0 0"/></clipPath><clipPath id="p"><path d="M58 138h19v38.543H58Zm0 0"/></clipPath><clipPath id="q"><path d="M.195 78H33v31H.195Zm0 0"/></clipPath><clipPath id="r"><path d="M.195 101H40v12H.195Zm0 0"/></clipPath><clipPath id="s"><path d="M.195 108H1v1H.195Zm0 0"/></clipPath><clipPath id="t"><path d="M.195 89H40v20H.195Zm0 0"/></clipPath><clipPath id="u"><path d="M.195 53h172.97v56H.194Zm0 0"/></clipPath><clipPath id="v"><path d="M76 136h10v40.543H76Zm0 0"/></clipPath><clipPath id="w"><path d="M67 136h12v40.543H67Zm0 0"/></clipPath><clipPath id="x"><path d="M58 140h20v36.543H58Zm0 0"/></clipPath><clipPath id="y"><path d="M76 141h16v35.543H76Zm0 0"/></clipPath><clipPath id="z"><path d="M76 144h21v32.543H76Zm0 0"/></clipPath><clipPath id="A"><path d="M137 67h36.164v27H137Zm0 0"/></clipPath><clipPath id="B"><path d="M76 125h38v51.543H76Zm0 0"/></clipPath><clipPath id="C"><path d="M135 67h38.164v34H135Zm0 0"/></clipPath><clipPath id="D"><path d="M.195 94H43v17H.195Zm0 0"/></clipPath><clipPath id="E"><path d="M67 31h100v145.543H67Zm0 0"/></clipPath></defs><path style="stroke:none;fill-rule:nonzero;fill:#a05879;fill-opacity:1" d="m66.082 112.977 3.09-26.258-10.082 1.828M66.082 112.977l26.961-11.364-11.176-6.972"/><path style="stroke:none;fill-rule:nonzero;fill:#a05879;fill-opacity:1" d="M66.082 112.977 81.867 94.64l-12.695-7.922"/><path style="stroke:none;fill-rule:nonzero;fill:#3886ea;fill-opacity:1" d="m66.082 112.977 12.254 2.441 12.793-9.211M66.082 112.977l.719 10.738"/><path style="stroke:none;fill-rule:nonzero;fill:#cdc949;fill-opacity:1" d="m66.082 112.977.719 10.738M66.082 112.977l.719 10.738"/><path style="stroke:none;fill-rule:nonzero;fill:#3886ea;fill-opacity:1" d="m66.082 112.977.719 10.738 11.535-8.297M66.082 112.977l.719 10.738-.719-10.738"/><path style="stroke:none;fill-rule:nonzero;fill:#ca939b;fill-opacity:1" d="m90.621 116.547-12.285-1.129M90.621 116.547l.508-10.34-12.793 9.211M90.621 116.547l-12.285-1.129"/><path style="stroke:none;fill-rule:nonzero;fill:#29b3c8;fill-opacity:1" d="m107.098 118.059-16.477-1.512"/><path style="stroke:none;fill-rule:nonzero;fill:#ca939b;fill-opacity:1" d="m121.523 119.383-30.902-2.836M121.523 119.383 91.13 106.207l-.508 10.34M121.523 119.383l-30.902-2.836"/><path style="stroke:none;fill-rule:nonzero;fill:#29b3c8;fill-opacity:1" d="m90.621 116.547-4.023.516 13.96.925"/><path style="stroke:none;fill-rule:nonzero;fill:#ca939b;fill-opacity:1" d="m103.82 97.07 11.266-8.11-11.266 8.11M121.523 119.383l-6.437-30.422-11.266 8.11M115.086 88.96l-11.266 8.11"/><path style="stroke:none;fill-rule:nonzero;fill:#3886ea;fill-opacity:1" d="m93.043 101.613-1.914 4.594 8.617-6.203M103.82 97.07l-4.074 2.934 4.074-2.934M93.043 101.613l6.703-1.61 4.074-2.933"/><path style="stroke:none;fill-rule:nonzero;fill:#ca939b;fill-opacity:1" d="M121.523 119.383 103.82 97.07l-12.691 9.137"/><path style="stroke:none;fill-rule:nonzero;fill:#29b3c8;fill-opacity:1" d="m121.523 119.383-14.425-1.324-6.54-.07M107.098 118.059l-16.477-1.512 9.938 1.441"/><path style="stroke:none;fill-rule:nonzero;fill:#3886ea;fill-opacity:1" d="m66.8 123.715 19.798-6.653-8.262-1.644"/><path style="stroke:none;fill-rule:nonzero;fill:#cdc949;fill-opacity:1" d="m66.8 123.715.302 4.441M66.8 123.715l-2.534-9.594 2.836 14.035M66.8 123.715l.302 4.441M66.082 112.977l-1.816 1.144 2.535 9.594"/><path style="stroke:none;fill-rule:nonzero;fill:#cdc949;fill-opacity:1" d="M66.082 112.977 61.5 100.465l2.766 13.656"/><path style="stroke:none;fill-rule:nonzero;fill:#cdc949;fill-opacity:1" d="m66.082 112.977-6.992-24.43 2.41 11.918"/><path style="stroke:none;fill-rule:nonzero;fill:#3886ea;fill-opacity:1" d="m66.082 112.977 25.047-6.77 1.914-4.594"/><path style="fill:none;stroke-width:5;stroke-linecap:round;stroke-linejoin:round;stroke:#000;stroke-opacity:1;stroke-miterlimit:10" d="M661.565 638.282h0m0 0h0m0 0h0m0 0h0m0 0h0" transform="matrix(.09959 0 0 -.09959 .197 176.543)"/><path style="stroke:none;fill-rule:nonzero;fill:#79549a;fill-opacity:1" d="m53.04 58.625 27.253 1.398-5.313-9.968"/><path style="stroke:none;fill-rule:nonzero;fill:#d8e9e0;fill-opacity:1" d="m53.04 58.625 20.69 25.848"/><path style="stroke:none;fill-rule:nonzero;fill:#79549a;fill-opacity:1" d="m53.04 58.625 20.69 25.848M53.04 58.625l20.69 25.848-20.69-25.848"/><path style="stroke:none;fill-rule:nonzero;fill:#d8e9e0;fill-opacity:1" d="m53.04 58.625 20.69 25.848"/><path style="stroke:none;fill-rule:nonzero;fill:#79549a;fill-opacity:1" d="m73.73 84.473 18.56-1.934-15.505-9.45M73.73 84.473l8.137 10.168"/><path style="stroke:none;fill-rule:nonzero;fill:#d8e9e0;fill-opacity:1" d="m73.73 84.473 8.137 10.168"/><path style="stroke:none;fill-rule:nonzero;fill:#a05879;fill-opacity:1" d="m93.043 101.613-11.176-6.972"/><path style="stroke:none;fill-rule:nonzero;fill:#d8e9e0;fill-opacity:1" d="m73.73 84.473 8.137 10.168"/><path style="stroke:none;fill-rule:nonzero;fill:#a05879;fill-opacity:1" d="m93.043 101.613-11.176-6.972M93.043 101.613l-.754-19.074-10.422 12.102"/><path style="stroke:none;fill-rule:nonzero;fill:#79549a;fill-opacity:1" d="m73.73 84.473 8.137 10.168L92.29 82.539"/><path style="stroke:none;fill-rule:nonzero;fill:#79549a;fill-opacity:1" d="m73.73 84.473 8.137 10.168-8.137-10.168"/><path style="stroke:none;fill-rule:nonzero;fill:#d8e9e0;fill-opacity:1" d="m73.73 84.473-4.554 2.246 12.691 7.922"/><path style="stroke:none;fill-rule:nonzero;fill:#d8e9e0;fill-opacity:1" d="m53.04 58.625 16.136 28.094 4.554-2.246"/><path style="stroke:none;fill-rule:nonzero;fill:#d8e9e0;fill-opacity:1" d="m53.04 58.625 3.222 20.043 12.914 8.05"/><path style="stroke:none;fill-rule:nonzero;fill:#79549a;fill-opacity:1" d="M53.04 58.625 76.784 73.09l3.508-13.067"/><path style="stroke:none;fill-rule:nonzero;fill:#79549a;fill-opacity:1" d="m53.04 58.625 20.69 25.848 3.055-11.383"/><path style="stroke:none;fill-rule:nonzero;fill:#d8e9e0;fill-opacity:1" d="m53.04 58.625-8.517 12.719 11.739 7.324"/><path style="stroke:none;fill-rule:nonzero;fill:#1074e1;fill-opacity:1" d="m53.04 58.625 11.667-.547-11.719 9.152"/><path style="stroke:none;fill-rule:nonzero;fill:#1074e1;fill-opacity:1" d="m53.04 58.625-.052 8.605-8.465 4.114M53.04 58.625l21.94-8.57-10.273 8.023"/><path style="stroke:none;fill-rule:nonzero;fill:#79549a;fill-opacity:1" d="m53.04 58.625 21.94-8.57M53.04 58.625l21.94-8.57"/><path style="fill:none;stroke-width:5;stroke-linecap:round;stroke-linejoin:round;stroke:#000;stroke-opacity:1;stroke-miterlimit:10" d="M530.599 1184.036h0m0 0h0m0 0h0m0 0h0m0 0h0m687.664-610.08h0m0 0h0" transform="matrix(.09959 0 0 -.09959 .197 176.543)"/><path style="stroke:none;fill-rule:nonzero;fill:#29b3c8;fill-opacity:1" d="m121.523 119.383-9.453.277 11.223 1.145"/><path style="stroke:none;fill-rule:nonzero;fill:#29b3c8;fill-opacity:1" d="m121.523 119.383-20.964-1.395 11.511 1.672"/><path style="stroke:none;fill-rule:nonzero;fill:#c1acc4;fill-opacity:1" d="m144.219 67.988-28.016 23.86 10.602 4.132"/><path style="stroke:none;fill-rule:nonzero;fill:#4e4e4e;fill-opacity:1" d="m121.523 119.383-5.32-27.535-1.113-2.887M121.523 119.383l1.77 1.422-3.371-13.762"/><path style="stroke:none;fill-rule:nonzero;fill:#4e4e4e;fill-opacity:1" d="m121.523 119.383-1.601-12.34-3.719-15.195"/><path style="stroke:none;fill-rule:nonzero;fill:#c1acc4;fill-opacity:1" d="m119.922 107.043-3.719-15.195 3.719 15.195M126.805 95.98l-10.602-4.132 3.719 15.195M116.203 91.848l3.719 15.195"/><path style="stroke:none;fill-rule:nonzero;fill:#4e4e4e;fill-opacity:1" d="m116.203 91.848 3.719 15.195-3.719-15.195M119.922 107.043l-3.719-15.195"/><path style="fill:none;stroke-width:5;stroke-linecap:round;stroke-linejoin:round;stroke:#000;stroke-opacity:1;stroke-miterlimit:10" d="M1218.263 573.956h0m-144.852 13.296 144.852-13.296" transform="matrix(.09959 0 0 -.09959 .197 176.543)"/><path style="stroke:none;fill-rule:nonzero;fill:#f29a50;fill-opacity:1" d="M94.93 40.598 83.54 60.996"/><path style="stroke:none;fill-rule:nonzero;fill:#968ec9;fill-opacity:1" d="M100.992 29.746 83.54 60.996l12.145.941"/><path style="stroke:none;fill-rule:nonzero;fill:#514141;fill-opacity:1" d="m109.293 63.637.312-.617-13.921-1.083"/><path style="stroke:none;fill-rule:nonzero;fill:#968ec9;fill-opacity:1" d="m109.605 63.02-13.921-1.083 13.921 1.083"/><path style="stroke:none;fill-rule:nonzero;fill:#968ec9;fill-opacity:1" d="m100.992 29.746-5.308 32.192 13.921 1.082M95.684 61.938l13.921 1.082M100.992 29.746l8.613 33.274 7.739-8.723"/><path style="stroke:none;fill-rule:nonzero;fill:#c1acc4;fill-opacity:1" d="m144.219 67.988-34.926-4.351 3.238 13.226"/><path style="stroke:none;fill-rule:nonzero;fill:#4e4e4e;fill-opacity:1" d="m115.09 88.96 1.113 2.888-3.672-14.985"/><path style="stroke:none;fill-rule:nonzero;fill:#c1acc4;fill-opacity:1" d="m116.203 91.848-3.672-14.985 3.672 14.985M144.219 67.988l-31.688 8.875 3.672 14.985M112.531 76.863l3.672 14.985"/><path style="stroke:none;fill-rule:nonzero;fill:#4e4e4e;fill-opacity:1" d="m112.531 76.863 3.672 14.985-3.672-14.985M116.203 91.848l-3.672-14.985"/><path style="stroke:none;fill-rule:nonzero;fill:#514141;fill-opacity:1" d="m144.219 67.988-20.32-3.855-14.294-1.113M144.219 67.988l-34.614-4.968-.312.617"/><path style="stroke:none;fill-rule:nonzero;fill:#ee8f2e;fill-opacity:1" d="m141.797 67.031-4.781-1.883"/><path style="stroke:none;fill-rule:nonzero;fill:#514141;fill-opacity:1" d="m144.219 67.988-7.203-2.84M144.219 67.988l-7.203-2.84-13.118-1.015M144.219 67.988l-7.203-2.84 7.203 2.84"/><path style="stroke:none;fill-rule:nonzero;fill:#ee8f2e;fill-opacity:1" d="m137.016 65.148-2.989-1.175"/><path style="stroke:none;fill-rule:nonzero;fill:#968ec9;fill-opacity:1" d="m117.344 54.297-7.739 8.723 14.293 1.113"/><path style="stroke:none;fill-rule:nonzero;fill:#d7f3e2;fill-opacity:1" d="m117.344 54.297 6.554 9.836-13.55-2.574"/><path style="stroke:none;fill-rule:nonzero;fill:#514141;fill-opacity:1" d="m137.016 65.148-26.668-3.59 13.55 2.575"/><path style="stroke:none;fill-rule:nonzero;fill:#ee8f2e;fill-opacity:1" d="m137.016 65.148-2.989-1.175"/><path style="stroke:none;fill-rule:nonzero;fill:#514141;fill-opacity:1" d="m137.016 65.148-2.989-1.175-23.68-2.414"/><path style="stroke:none;fill-rule:nonzero;fill:#ee8f2e;fill-opacity:1" d="M137.016 65.148 131.44 75.45l2.586-11.476M144.219 67.988 131.44 75.45l5.575-10.3M144.219 67.988l-7.203-2.84 4.78 1.883"/><path style="stroke:none;fill-rule:nonzero;fill:#968ec9;fill-opacity:1" d="m123.898 64.133-14.293-1.113 14.293 1.113M109.605 63.02l14.293 1.113"/><path style="stroke:none;fill-rule:nonzero;fill:#514141;fill-opacity:1" d="m109.605 63.02 14.293 1.113-14.293-1.113M123.898 64.133l-14.293-1.113M95.684 61.938l13.921 1.082-13.921-1.083M109.605 63.02l-13.921-1.083"/><path style="stroke:none;fill-rule:nonzero;fill:#968ec9;fill-opacity:1" d="m83.54 60.996 8.75 21.543 3.394-20.602"/><path style="stroke:none;fill-rule:nonzero;fill:#f29a50;fill-opacity:1" d="M83.54 60.996 76.784 73.09M83.54 60.996 76.784 73.09"/><path style="stroke:none;fill-rule:nonzero;fill:#968ec9;fill-opacity:1" d="M83.54 60.996 76.784 73.09l15.504 9.45"/><path style="stroke:none;fill-rule:nonzero;fill:#f29a50;fill-opacity:1" d="m83.54 60.996-3.247-.973-3.508 13.067"/><path style="stroke:none;fill-rule:nonzero;fill:#f29a50;fill-opacity:1" d="M100.992 29.746 80.293 60.023l3.246.973"/><path style="stroke:none;fill-rule:nonzero;fill:#f29a50;fill-opacity:1" d="M100.992 29.746 83.54 60.996l11.39-20.398"/><path style="fill:none;stroke-width:5;stroke-linecap:round;stroke-linejoin:round;stroke:#000;stroke-opacity:1;stroke-miterlimit:10" d="M1012.105 1474.014h0m0 0h0" transform="matrix(.09959 0 0 -.09959 .197 176.543)"/><path style="stroke:none;fill-rule:nonzero;fill:#f29a50;fill-opacity:1" d="m100.992 29.746-13.777 4.461-3.313 12.363"/><path style="stroke:none;fill-rule:nonzero;fill:#f29a50;fill-opacity:1" d="M100.992 29.746 83.902 46.57l-3.609 13.453"/><path style="stroke:none;fill-rule:nonzero;fill:#ca939b;fill-opacity:1" d="m106.602 48.82-12.348-6.289 12.348 6.29"/><path style="stroke:none;fill-rule:nonzero;fill:#d7f3e2;fill-opacity:1" d="m100.992 29.746-6.738 12.785-7.04-8.324M100.992 29.746l16.352 24.55-10.742-5.476"/><path style="stroke:none;fill-rule:nonzero;fill:#ca939b;fill-opacity:1" d="m94.254 42.531 12.348 6.29"/><path style="stroke:none;fill-rule:nonzero;fill:#d7f3e2;fill-opacity:1" d="m94.254 42.531 12.348 6.29-12.348-6.29M100.992 29.746l5.61 19.074-12.348-6.289M106.602 48.82l-12.348-6.289"/><path style="stroke:none;fill-rule:nonzero;fill:#79549a;fill-opacity:1" d="m83.902 46.57-3.609 13.453 3.61-13.453"/><path style="stroke:none;fill-rule:nonzero;fill:#1074e1;fill-opacity:1" d="m74.98 50.055 8.922-3.485-8.922 3.485"/><path style="stroke:none;fill-rule:nonzero;fill:#79549a;fill-opacity:1" d="m74.98 50.055 8.922-3.485M74.98 50.055l5.313 9.968 3.61-13.453"/><path style="stroke:none;fill-rule:nonzero;fill:#1074e1;fill-opacity:1" d="m74.98 50.055 8.922-3.485M74.98 50.055l8.922-3.485L72.59 57.71"/><path style="stroke:none;fill-rule:nonzero;fill:#f29a50;fill-opacity:1" d="M87.215 34.207 72.59 57.711l11.312-11.14M84.184 45.508l-.282 1.062"/><path style="stroke:none;fill-rule:nonzero;fill:#f29a50;fill-opacity:1" d="M87.215 34.207 83.902 46.57l.282-1.062M87.215 34.207l-5.68 1.844-8.945 21.66"/><path style="stroke:none;fill-rule:nonzero;fill:#ca939b;fill-opacity:1" d="m94.254 42.531-12.719-6.48 12.719 6.48M81.535 36.047v.004l12.719 6.48"/><path style="stroke:none;fill-rule:nonzero;fill:#d7f3e2;fill-opacity:1" d="m81.535 36.05 12.719 6.481-12.719-6.48"/><path style="stroke:none;fill-rule:nonzero;fill:#d7f3e2;fill-opacity:1" d="m87.215 34.207 7.039 8.324-12.719-6.48M94.254 42.531l-12.719-6.48"/><path style="stroke:none;fill-rule:nonzero;fill:#ca939b;fill-opacity:1" d="M96.328.254 81.535 36.047l12.719 6.484"/><path style="stroke:none;fill-rule:nonzero;fill:#ca939b;fill-opacity:1" d="M96.328.254 94.254 42.53l9.594-6.726M103.848 35.805l-9.594 6.726 12.348 6.29"/><path style="fill:none;stroke-width:5;stroke-linecap:round;stroke-linejoin:round;stroke:#000;stroke-opacity:1;stroke-miterlimit:10" d="m1035.246 1439.223 141.048-211.728m0 0h0M820.067 822.396h0m0 0h0" transform="matrix(.09959 0 0 -.09959 .197 176.543)"/><path style="stroke:none;fill-rule:nonzero;fill:#a05879;fill-opacity:1" d="m93.043 101.613 10.777-4.543-11.53-14.53"/><path style="fill:none;stroke-width:5;stroke-linecap:round;stroke-linejoin:round;stroke:#000;stroke-opacity:1;stroke-miterlimit:10" d="m661.565 638.282 270.72 114.1m-270.72-114.1 270.72 114.1m0 0L1040.502 798m113.16 81.427 64.6-305.471" transform="matrix(.09959 0 0 -.09959 .197 176.543)"/><path style="stroke:none;fill-rule:nonzero;fill:#ee8f2e;fill-opacity:1" d="M144.219 67.988 126.805 95.98l2.144-9.507"/><path style="fill:none;stroke-width:5;stroke-linecap:round;stroke-linejoin:round;stroke:#000;stroke-opacity:1;stroke-miterlimit:10" d="M1271.293 808.943h0" transform="matrix(.09959 0 0 -.09959 .197 176.543)"/><path style="stroke:none;fill-rule:nonzero;fill:#ee8f2e;fill-opacity:1" d="m144.219 67.988-15.27 18.485 2.492-11.024"/><path style="fill:none;stroke-width:5;stroke-linecap:round;stroke-linejoin:round;stroke:#000;stroke-opacity:1;stroke-miterlimit:10" d="m1421.832 1099.627 24.318-9.61m0 0h0m0 0h0m-626.083-267.62h0M692.63 901.94l127.437-79.545m0 0h0m-51.03 216.396h0" transform="matrix(.09959 0 0 -.09959 .197 176.543)"/><path style="stroke:none;fill-rule:nonzero;fill:#a05879;fill-opacity:1" d="m59.09 88.547 10.082-1.828-12.91-8.051"/><path style="fill:none;stroke-width:5;stroke-linecap:round;stroke-linejoin:round;stroke:#000;stroke-opacity:1;stroke-miterlimit:10" d="m692.591 901.941 127.476-79.545m-228.711 61.189v-.04" transform="matrix(.09959 0 0 -.09959 .197 176.543)"/><path style="stroke:none;fill-rule:nonzero;fill:#cdc949;fill-opacity:1" d="m59.09 88.547-.68 3.48 3.09 8.438"/><path style="stroke:none;fill-rule:nonzero;fill:#cdc949;fill-opacity:1" d="m59.09 88.547-2.828-9.879 2.148 13.36"/><path style="fill:none;stroke-width:5;stroke-linecap:round;stroke-linejoin:round;stroke:#000;stroke-opacity:1;stroke-miterlimit:10" d="m591.356 883.585 70.21-245.303m-98.608 344.499h.04" transform="matrix(.09959 0 0 -.09959 .197 176.543)"/><path style="stroke:none;fill-rule:nonzero;fill:#ca939b;fill-opacity:1" d="m115.086 88.96-22.797-6.42 11.531 14.53"/><path style="fill:none;stroke-width:5;stroke-linecap:round;stroke-linejoin:round;stroke:#000;stroke-opacity:1;stroke-miterlimit:10" d="M1040.502 798h0m-108.217-45.617L1040.502 798" transform="matrix(.09959 0 0 -.09959 .197 176.543)"/><path style="stroke:none;fill-rule:nonzero;fill:#ca939b;fill-opacity:1" d="m115.086 88.96-2.555-12.097L92.29 82.54"/><path style="fill:none;stroke-width:5;stroke-linecap:round;stroke-linejoin:round;stroke:#000;stroke-opacity:1;stroke-miterlimit:10" d="m1153.623 879.427 64.64-305.471m-90.293 426.946h0m0-.04 25.692-121.435" transform="matrix(.09959 0 0 -.09959 .197 176.543)"/><path style="stroke:none;fill-rule:nonzero;fill:#29b3c8;fill-opacity:1" d="m90.621 116.547-12.285-1.129 8.262 1.644"/><path style="fill:none;stroke-width:5;stroke-linecap:round;stroke-linejoin:round;stroke:#000;stroke-opacity:1;stroke-miterlimit:10" d="M784.61 613.767h0m123.357-11.335h0m-138.93 436.36h0m0 0 35.223 131.202m-35.222-131.202 35.222 131.202m232.555-374.622 3.687 2.628m-127.436-91.744 113.355 81.624m-26.829-19.337 40.91 29.457m-127.436-91.744 86.526 62.287" transform="matrix(.09959 0 0 -.09959 .197 176.543)"/><path style="stroke:none;fill-rule:nonzero;fill:#c1acc4;fill-opacity:1" d="M109.293 63.637 92.289 82.539l20.242-5.676"/><path style="fill:none;stroke-width:5;stroke-linecap:round;stroke-linejoin:round;stroke:#000;stroke-opacity:1;stroke-miterlimit:10" d="m1127.97 1000.902 25.653-121.475m-58.169 254.285 242.322-30.163" transform="matrix(.09959 0 0 -.09959 .197 176.543)"/><path style="stroke:none;fill-rule:nonzero;fill:#c1acc4;fill-opacity:1" d="m109.293 63.637-13.61-1.7L92.29 82.54"/><path style="fill:none;stroke-width:5;stroke-linecap:round;stroke-linejoin:round;stroke:#000;stroke-opacity:1;stroke-miterlimit:10" d="m1095.454 1133.712 38.714-4.785m-314.1-306.53L924.714 943.91m-155.677 94.882 155.677-94.882m0 0L1040.502 798m43.656 337.124 11.296-1.412M958.8 1150.774l125.358-15.65m-125.358 15.65h0m0 0 136.654-17.062M562.958 982.781l129.633-80.84m-129.633 80.84h0m0 0h0m221.651-369.014 128.457 92.49m-128.457-92.49 128.457 92.49m11.649 237.653 34.085 206.864m0 0 139.792-10.864M958.8 1150.774l139.792-10.864" transform="matrix(.09959 0 0 -.09959 .197 176.543)"/><path style="stroke:none;fill-rule:nonzero;fill:#f29a50;fill-opacity:1" d="m54.582 112.852 6.918-12.387"/><path style="stroke:none;fill-rule:nonzero;fill:#968ec9;fill-opacity:1" d="m54.582 112.852 6.918-12.387M54.582 112.852l6.918-12.387"/><path style="stroke:none;fill-rule:nonzero;fill:#f29a50;fill-opacity:1" d="m54.582 112.852 6.918-12.387-3.09-8.438M54.582 112.852l6.918-12.387-6.918 12.387"/><path style="stroke:none;fill-rule:nonzero;fill:#968ec9;fill-opacity:1" d="m54.582 112.852 9.684 1.27-2.766-13.657"/><path style="fill:none;stroke-width:5;stroke-linecap:round;stroke-linejoin:round;stroke:#000;stroke-opacity:1;stroke-miterlimit:10" d="M615.556 763.914h0m0 0h0M924.715 943.91l203.255 56.992m0 0 36.87-150.46m-36.87 150.46 36.87-150.46M784.61 613.766h0m-254.011 570.269 220.317 86.056" transform="matrix(.09959 0 0 -.09959 .197 176.543)"/><path style="stroke:none;fill-rule:nonzero;fill:#1074e1;fill-opacity:1" d="m74.98 50.055-2.39 7.656-7.883.367"/><path style="fill:none;stroke-width:5;stroke-linecap:round;stroke-linejoin:round;stroke:#000;stroke-opacity:1;stroke-miterlimit:10" d="m750.916 1270.092 9.257 3.57m-229.574-89.626 220.317 86.056m0 0 9.257 3.57" transform="matrix(.09959 0 0 -.09959 .197 176.543)"/><path style="stroke:none;fill-rule:nonzero;fill:#f29a50;fill-opacity:1" d="m36.227 145.727 18.355-32.875M36.227 145.727l18.355-32.875-18.355 32.875"/><path style="stroke:none;fill-rule:nonzero;fill:#9c4f6f;fill-opacity:1" d="m36.227 145.727 1.527-23.48"/><path style="stroke:none;fill-rule:nonzero;fill:#968ec9;fill-opacity:1" d="m36.227 145.727 18.355-32.875"/><path style="stroke:none;fill-rule:nonzero;fill:#9c4f6f;fill-opacity:1" d="m36.227 145.727 1.527-23.48-1.527 23.48"/><path style="stroke:none;fill-rule:nonzero;fill:#968ec9;fill-opacity:1" d="m36.227 145.727 18.355-32.875M36.227 145.727l30.875-17.57-2.836-14.036"/><path style="stroke:none;fill-rule:nonzero;fill:#9c4f6f;fill-opacity:1" d="m36.227 145.727 33.48-4.692M36.227 145.727l33.48-4.692"/><path style="stroke:none;fill-rule:nonzero;fill:#968ec9;fill-opacity:1" d="m36.227 145.727 33.48-4.692-2.605-12.879"/><path style="stroke:none;fill-rule:nonzero;fill:#9c4f6f;fill-opacity:1" d="m69.707 141.035 13.246-1.86"/><path style="stroke:none;fill-rule:nonzero;fill:#968ec9;fill-opacity:1" d="m69.707 141.035 16.89-23.972-19.495 11.093"/><path style="stroke:none;fill-rule:nonzero;fill:#9c4f6f;fill-opacity:1" d="m69.707 141.035 13.246-1.86"/><path style="stroke:none;fill-rule:nonzero;fill:#968ec9;fill-opacity:1" d="m69.707 141.035 13.246-1.86 3.645-22.113"/><path style="stroke:none;fill-rule:nonzero;fill:#9c4f6f;fill-opacity:1" d="m69.707 141.035-2.254-7.664 15.5 5.805"/><path style="stroke:none;fill-rule:nonzero;fill:#968ec9;fill-opacity:1" d="m36.227 145.727 33.48-4.692-33.48 4.692"/><path style="stroke:none;fill-rule:nonzero;fill:#f29a50;fill-opacity:1" d="M36.227 145.727 49.832 112.8l-5.582-.059"/><path style="stroke:none;fill-rule:nonzero;fill:#968ec9;fill-opacity:1" d="m36.227 145.727 33.48-4.692"/><path style="stroke:none;fill-rule:nonzero;fill:#9c4f6f;fill-opacity:1" d="m36.227 145.727 31.226-12.356 2.254 7.664"/><path style="stroke:none;fill-rule:nonzero;fill:#f29a50;fill-opacity:1" d="m36.227 145.727 18.355-32.875-18.355 32.875"/><path style="stroke:none;fill-rule:nonzero;fill:#f29a50;fill-opacity:1" d="m36.227 145.727 18.355-32.875-4.75-.051M54.582 112.852l3.828-20.825-8.578 20.774"/><path style="stroke:none;fill-rule:nonzero;fill:#968ec9;fill-opacity:1" d="m36.227 145.727 28.039-31.606-9.684-1.27"/><path style="stroke:none;fill-rule:nonzero;fill:#9c4f6f;fill-opacity:1" d="m36.227 145.727 15.601-18.211 15.625 5.855"/><path style="stroke:none;fill-rule:nonzero;fill:#f29a50;fill-opacity:1" d="m36.227 145.727 1.527-23.48M36.227 145.727l8.023-32.985-6.496 9.504"/><path style="stroke:none;fill-rule:nonzero;fill:#9c4f6f;fill-opacity:1" d="m37.754 122.246 24.422-6.805-10.348 12.075"/><path style="stroke:none;fill-rule:nonzero;fill:#f29a50;fill-opacity:1" d="m37.754 122.246 6.496-9.504-5.871-.066"/><path style="stroke:none;fill-rule:nonzero;fill:#9c4f6f;fill-opacity:1" d="m37.754 122.246.625-9.57 23.797 2.765"/><path style="stroke:none;fill-rule:nonzero;fill:#f29a50;fill-opacity:1" d="m37.754 122.246.625-9.57M37.754 122.246l.625-9.57M36.227 145.727l1.527-23.48"/><path style="stroke:none;fill-rule:nonzero;fill:#9c4f6f;fill-opacity:1" d="m36.227 145.727 1.527-23.48 14.074 5.269"/><path style="fill:none;stroke-width:5;stroke-linecap:round;stroke-linejoin:round;stroke:#000;stroke-opacity:1;stroke-miterlimit:10" d="M361.781 309.433h0m0 0h0m253.775 454.481 27.77-137.124m-27.77 137.124 27.77-137.124M361.782 309.433h0m0 0h0" transform="matrix(.09959 0 0 -.09959 .197 176.543)"/><path style="stroke:none;fill-rule:nonzero;fill:#3886ea;fill-opacity:1" d="m66.8 123.715.302 4.441 19.496-11.094"/><path style="fill:none;stroke-width:5;stroke-linecap:round;stroke-linejoin:round;stroke:#000;stroke-opacity:1;stroke-miterlimit:10" d="M671.803 485.86h0" transform="matrix(.09959 0 0 -.09959 .197 176.543)"/><path style="stroke:none;fill-rule:nonzero;fill:#d8e9e0;fill-opacity:1" d="M44.523 71.344 58.41 92.027l-2.148-13.359"/><path style="fill:none;stroke-width:5;stroke-linecap:round;stroke-linejoin:round;stroke:#000;stroke-opacity:1;stroke-miterlimit:10" d="m562.958 982.78 129.672-80.839m-129.672 80.84 28.398-99.196" transform="matrix(.09959 0 0 -.09959 .197 176.543)"/><path style="stroke:none;fill-rule:nonzero;fill:#ee8f2e;fill-opacity:1" d="m126.805 95.98-7.961 2.73 10.105-12.237M126.805 95.98l-6.883 11.063-1.078-8.332"/><path style="fill:none;stroke-width:5;stroke-linecap:round;stroke-linejoin:round;stroke:#000;stroke-opacity:1;stroke-miterlimit:10" d="m1271.293 808.943 174.857 281.074m-243.969-392.155h0m0 0h0m-397.92 472.132 36.241 135.085m0 0h0m-36.242-135.085 36.242 135.085" transform="matrix(.09959 0 0 -.09959 .197 176.543)"/><path style="stroke:none;fill-rule:nonzero;fill:#79549a;fill-opacity:1" d="m109.145 128.715 2.925-9.055-11.511-1.672"/><path style="stroke:none;fill-rule:nonzero;fill:#d8e9e0;fill-opacity:1" d="m109.145 128.715-8.586-10.727-13.961-.925"/><path style="fill:none;stroke-width:5;stroke-linecap:round;stroke-linejoin:round;stroke:#000;stroke-opacity:1;stroke-miterlimit:10" d="M1007.75 587.958h0m157.09 262.483 37.341-152.579" transform="matrix(.09959 0 0 -.09959 .197 176.543)"/><path style="stroke:none;fill-rule:nonzero;fill:#d8e9e0;fill-opacity:1" d="m44.523 71.344-3.503 5.234 17.39 15.45"/><path style="stroke:none;fill-rule:nonzero;fill:#1074e1;fill-opacity:1" d="m44.523 71.344 8.465-4.114-11.968 9.348"/><path style="fill:none;stroke-width:5;stroke-linecap:round;stroke-linejoin:round;stroke:#000;stroke-opacity:1;stroke-miterlimit:10" d="m445.092 1056.325 85.507 127.71" transform="matrix(.09959 0 0 -.09959 .197 176.543)"/><path style="stroke:none;fill-rule:nonzero;fill:#514141;fill-opacity:1" d="m50.605 56.324 14.102 1.754 7.883-.367"/><path style="stroke:none;fill-rule:nonzero;fill:#c1acc4;fill-opacity:1" d="m50.605 56.324 2.383 10.906 11.719-9.152"/><path style="fill:none;stroke-width:5;stroke-linecap:round;stroke-linejoin:round;stroke:#000;stroke-opacity:1;stroke-miterlimit:10" d="M647.759 1189.527h0m0 0h0m0 0h0m594.351-60.796h0m-65.816 98.764h0m65.816-98.764h0m-60.404 90.684 51.893-77.858" transform="matrix(.09959 0 0 -.09959 .197 176.543)"/><path style="stroke:none;fill-rule:nonzero;fill:#d7f3e2;fill-opacity:1" d="m117.344 54.297-6.996 7.262-3.746-12.739"/><path style="fill:none;stroke-width:5;stroke-linecap:round;stroke-linejoin:round;stroke:#000;stroke-opacity:1;stroke-miterlimit:10" d="m1176.294 1227.495 5.412-8.08m-5.412 8.08h0m-77.702-87.585 143.518-11.18m-143.518 11.18 143.518-11.18M643.327 626.79l28.476-140.93m-28.476 140.93 28.476-140.93M361.78 309.433l15.337 235.772M361.78 309.433h0m0 0 336.184 47.108M361.78 309.433h0m0 0h0m0 0 15.337 235.772M361.78 309.433h0" transform="matrix(.09959 0 0 -.09959 .197 176.543)"/><path style="stroke:none;fill-rule:nonzero;fill:#4e4e4e;fill-opacity:1" d="m123.293 120.805-4.45-22.094 1.079 8.332"/><path style="fill:none;stroke-width:5;stroke-linecap:round;stroke-linejoin:round;stroke:#000;stroke-opacity:1;stroke-miterlimit:10" d="m1164.84 850.441 37.341-152.579m4.55 7.296 64.562 103.785" transform="matrix(.09959 0 0 -.09959 .197 176.543)"/><path style="stroke:none;fill-rule:nonzero;fill:#79549a;fill-opacity:1" d="M132.324 157.672 112.07 119.66l-2.925 9.055"/><path style="fill:none;stroke-width:5;stroke-linecap:round;stroke-linejoin:round;stroke:#000;stroke-opacity:1;stroke-miterlimit:10" d="m1085.217 491.194 8.747-10.943" transform="matrix(.09959 0 0 -.09959 .197 176.543)"/><path style="stroke:none;fill-rule:nonzero;fill:#c1acc4;fill-opacity:1" d="m96.719 144.336 7.328-11.777-17.45-15.496"/><path style="stroke:none;fill-rule:nonzero;fill:#ee8f2e;fill-opacity:1" d="m96.723 144.336 1.359-7.277 5.965-4.5"/><path style="stroke:none;fill-rule:nonzero;fill:#d8e9e0;fill-opacity:1" d="m98.082 137.059 5.965-4.5-5.965 4.5M132.324 157.672l-28.277-25.113-5.965 4.5M104.047 132.559l-5.965 4.5"/><path style="stroke:none;fill-rule:nonzero;fill:#c1acc4;fill-opacity:1" d="m96.719 144.336-10.121-27.274-3.645 22.114"/><g clip-path="url(#a)"><path style="stroke:none;fill-rule:nonzero;fill:#c1acc4;fill-opacity:1" d="m76.836 176.293 19.883-31.957-13.766-5.16"/></g><g clip-path="url(#b)"><path style="stroke:none;fill-rule:nonzero;fill:#ee8f2e;fill-opacity:1" d="m76.836 176.293 21.246-39.234-1.36 7.277"/></g><path style="stroke:none;fill-rule:nonzero;fill:#ee8f2e;fill-opacity:1" d="m104.047 132.559-5.965 4.5 5.965-4.5"/><path style="stroke:none;fill-rule:nonzero;fill:#d8e9e0;fill-opacity:1" d="m132.324 157.672-34.242-20.613 5.328 9.27"/><g clip-path="url(#c)"><path style="stroke:none;fill-rule:nonzero;fill:#ee8f2e;fill-opacity:1" d="m76.836 176.293 14.977-34.512 6.269-4.722"/></g><path style="stroke:none;fill-rule:nonzero;fill:#d8e9e0;fill-opacity:1" d="m103.41 146.328-5.328-9.27-6.27 4.723"/><path style="stroke:none;fill-rule:nonzero;fill:#ee8f2e;fill-opacity:1" d="m98.082 137.059-6.27 4.722 6.27-4.722M91.813 141.781l6.269-4.722M98.082 137.059l5.965-4.5"/><path style="stroke:none;fill-rule:nonzero;fill:#d8e9e0;fill-opacity:1" d="m104.047 132.559 5.098-3.844-5.098 3.844M132.324 157.672l-23.18-28.957-5.097 3.844M109.145 128.715l-5.098 3.844"/><path style="fill:none;stroke-width:5;stroke-linecap:round;stroke-linejoin:round;stroke:#000;stroke-opacity:1;stroke-miterlimit:10" d="m1093.964 480.251 16.984-21.22" transform="matrix(.09959 0 0 -.09959 .197 176.543)"/><path style="stroke:none;fill-rule:nonzero;fill:#d8e9e0;fill-opacity:1" d="m109.145 128.715-22.547-11.653 17.449 15.497"/><path style="fill:none;stroke-width:5;stroke-linecap:round;stroke-linejoin:round;stroke:#000;stroke-opacity:1;stroke-miterlimit:10" d="m1029.834 560.384 64.13-80.133m-86.213 107.707 115.591-16.787m-115.591 16.787 115.591-16.787M784.61 613.767l82.958-16.513m0 0 140.184-9.296" transform="matrix(.09959 0 0 -.09959 .197 176.543)"/><path style="stroke:none;fill-rule:nonzero;fill:#514141;fill-opacity:1" d="m12.922 51.625 37.683 4.7-1.011-.962"/><path style="stroke:none;fill-rule:nonzero;fill:#cdc949;fill-opacity:1" d="m49.594 55.363-1.188-1.125 1.188 1.125"/><path style="stroke:none;fill-rule:nonzero;fill:#a05879;fill-opacity:1" d="m46.445 44.363 3.149 11 22.996 2.348"/><path style="stroke:none;fill-rule:nonzero;fill:#ca939b;fill-opacity:1" d="m69.84 30.09 2.75 27.62 8.945-21.66M69.84 30.09 59.719 41.488l12.87 16.223"/><path style="stroke:none;fill-rule:nonzero;fill:#928dcb;fill-opacity:1" d="m69.84 30.09 5.043 8.117-15.164 3.281M63.602 37.121l-3.883 4.367"/><path style="stroke:none;fill-rule:nonzero;fill:#928dcb;fill-opacity:1" d="M69.84 30.09 59.719 41.488l3.883-4.367"/><path style="stroke:none;fill-rule:nonzero;fill:#ca939b;fill-opacity:1" d="M69.84 30.09 59.719 41.488M69.84 30.09 59.719 41.488l10.12-11.398"/><path style="stroke:none;fill-rule:nonzero;fill:#a05879;fill-opacity:1" d="M46.445 44.363 72.59 57.711 59.719 41.488"/><path style="stroke:none;fill-rule:nonzero;fill:#cdc949;fill-opacity:1" d="m46.445 44.363 1.961 9.875 1.188 1.125M48.406 54.238l1.188 1.125"/><path style="stroke:none;fill-rule:nonzero;fill:#514141;fill-opacity:1" d="m50.605 56.324-1.011-.96M50.605 56.324l21.985 1.387-22.996-2.348M50.605 56.324l-1.011-.96"/><path style="fill:none;stroke-width:5;stroke-linecap:round;stroke-linejoin:round;stroke:#000;stroke-opacity:1;stroke-miterlimit:10" d="m506.163 1207.138 141.596-17.61m0 0 79.153 3.686" transform="matrix(.09959 0 0 -.09959 .197 176.543)"/><path style="stroke:none;fill-rule:nonzero;fill:#c1acc4;fill-opacity:1" d="M12.922 51.625 52.988 67.23l-2.383-10.906"/><path style="fill:none;stroke-width:5;stroke-linecap:round;stroke-linejoin:round;stroke:#000;stroke-opacity:1;stroke-miterlimit:10" d="m506.163 1207.138 141.596-17.61" transform="matrix(.09959 0 0 -.09959 .197 176.543)"/><path style="stroke:none;fill-rule:nonzero;fill:#4e4e4e;fill-opacity:1" d="m123.293 120.805.734.593"/><path style="stroke:none;fill-rule:nonzero;fill:#29b3c8;fill-opacity:1" d="m123.742 121.172.285.226"/><path style="stroke:none;fill-rule:nonzero;fill:#4e4e4e;fill-opacity:1" d="m123.293 120.805.734.593-5.183-22.687M123.293 120.805l.734.593-.734-.593"/><path style="stroke:none;fill-rule:nonzero;fill:#29b3c8;fill-opacity:1" d="m123.293 120.805-11.223-1.145 11.957 1.738"/><path style="stroke:none;fill-rule:nonzero;fill:#29b3c8;fill-opacity:1" d="m123.293 120.805.734.593-.285-.226"/><path style="fill:none;stroke-width:5;stroke-linecap:round;stroke-linejoin:round;stroke:#000;stroke-opacity:1;stroke-miterlimit:10" d="M1123.342 571.17h0m94.92 2.786 17.769-14.278m-17.768 14.278 17.768-14.278m0 0 .824-.666m-400.118 742.34 3.765 3.727m-113.59-111.865 109.825 108.139m3.765 3.726h0" transform="matrix(.09959 0 0 -.09959 .197 176.543)"/><path style="stroke:none;fill-rule:nonzero;fill:#3886ea;fill-opacity:1" d="m140.676 81.531-11.727 4.942-10.105 12.238M172.918 67.938 140.676 81.53"/><path style="stroke:none;fill-rule:nonzero;fill:#3886ea;fill-opacity:1" d="M172.918 67.938 140.676 81.53l-1.461 5.59"/><path style="stroke:none;fill-rule:nonzero;fill:#3886ea;fill-opacity:1" d="M172.918 67.938 140.676 81.53l32.242-13.594"/><path style="stroke:none;fill-rule:nonzero;fill:#a05879;fill-opacity:1" d="m128.95 86.473 2.491-11.024-2.492 11.024M140.676 81.531l-11.727 4.942"/><path style="stroke:none;fill-rule:nonzero;fill:#a05879;fill-opacity:1" d="m140.676 81.531-9.235-6.082-2.492 11.024"/><path style="stroke:none;fill-rule:nonzero;fill:#c1acc4;fill-opacity:1" d="M12.922 51.625 41.02 76.578l11.968-9.348"/><path style="fill:none;stroke-width:5;stroke-linecap:round;stroke-linejoin:round;stroke:#000;stroke-opacity:1;stroke-miterlimit:10" d="m530.089 1097.627 117.67 91.9" transform="matrix(.09959 0 0 -.09959 .197 176.543)"/><path style="stroke:none;fill-rule:nonzero;fill:#79549a;fill-opacity:1" d="m132.324 157.672-8.297-36.274-11.957-1.738"/><path style="fill:none;stroke-width:5;stroke-linecap:round;stroke-linejoin:round;stroke:#000;stroke-opacity:1;stroke-miterlimit:10" d="m1236.03 559.678 4.512-3.687m0 0h0m-117.2 15.18h0m-29.378-90.92 232.751-290.763m-203.373 381.683 120.063-17.455m-174.976 728.77h0" transform="matrix(.09959 0 0 -.09959 .197 176.543)"/><path style="stroke:none;fill-rule:nonzero;fill:#4e4e4e;fill-opacity:1" d="m103.848 35.805 2.754 13.015 3.746 12.739"/><path style="fill:none;stroke-width:5;stroke-linecap:round;stroke-linejoin:round;stroke:#000;stroke-opacity:1;stroke-miterlimit:10" d="m1040.777 1413.179 27.652-130.693" transform="matrix(.09959 0 0 -.09959 .197 176.543)"/><path style="stroke:none;fill-rule:nonzero;fill:#ca939b;fill-opacity:1" d="m36.602 111.586 13.23 1.215"/><path style="stroke:none;fill-rule:nonzero;fill:#29b3c8;fill-opacity:1" d="m36.602 111.586 13.23 1.215M36.602 111.586l13.23 1.215"/><path style="stroke:none;fill-rule:nonzero;fill:#ca939b;fill-opacity:1" d="m36.602 111.586 13.23 1.215 8.578-20.774M36.602 111.586l13.23 1.215-13.23-1.215"/><path style="stroke:none;fill-rule:nonzero;fill:#ca939b;fill-opacity:1" d="M36.602 111.586 58.41 92.027l-21.664 6.067"/><g clip-path="url(#d)"><path style="stroke:none;fill-rule:nonzero;fill:#29b3c8;fill-opacity:1" d="m.445 108.266 36.157 3.32M.445 108.266l36.157 3.32"/><path style="stroke:none;fill-rule:nonzero;fill:#ca939b;fill-opacity:1" d="m.445 108.266 36.157 3.32"/></g><g clip-path="url(#e)"><path style="stroke:none;fill-rule:nonzero;fill:#ca939b;fill-opacity:1" d="m.445 108.266 36.157 3.32.144-13.492"/></g><g clip-path="url(#f)"><path style="stroke:none;fill-rule:nonzero;fill:#ca939b;fill-opacity:1" d="m.445 108.266 36.157 3.32-36.157-3.32"/></g><g clip-path="url(#g)"><path style="stroke:none;fill-rule:nonzero;fill:#29b3c8;fill-opacity:1" d="m.445 108.266 37.934 4.41 5.871.066"/><path style="stroke:none;fill-rule:nonzero;fill:#29b3c8;fill-opacity:1" d="m.445 108.266 43.805 4.476-7.648-1.156"/></g><path style="stroke:none;fill-rule:nonzero;fill:#29b3c8;fill-opacity:1" d="m36.602 111.586 7.648 1.156 5.582.059"/><path style="fill:none;stroke-width:5;stroke-linecap:round;stroke-linejoin:round;stroke:#000;stroke-opacity:1;stroke-miterlimit:10" d="m442.346 640.635 56.05-.588m0 0h0m0 0h0m-.039 0h.04m-56.05.588 56.05-.588M671.802 485.86l195.764 111.394M671.803 485.86h0" transform="matrix(.09959 0 0 -.09959 .197 176.543)"/><path style="stroke:none;fill-rule:nonzero;fill:#514141;fill-opacity:1" d="m12.922 51.625 35.484 2.613-11.164-1.601M12.922 51.625l36.672 3.738-1.188-1.125"/><path style="stroke:none;fill-rule:nonzero;fill:#c1acc4;fill-opacity:1" d="M12.922 51.625 30.09 85.113l10.93-8.535"/><path style="stroke:none;fill-rule:nonzero;fill:#6f4a95;fill-opacity:1" d="m12.922 51.625 7.445.309 16.719 15.058M20.367 51.934l16.875.703"/><path style="stroke:none;fill-rule:nonzero;fill:#514141;fill-opacity:1" d="m12.922 51.625 24.32 1.012-4.629-.196"/><path style="stroke:none;fill-rule:nonzero;fill:#6f4a95;fill-opacity:1" d="m20.367 51.934 16.875.703-.156 14.355"/><path style="stroke:none;fill-rule:nonzero;fill:#514141;fill-opacity:1" d="m32.613 52.441 4.63.196"/><path style="fill:none;stroke-width:5;stroke-linecap:round;stroke-linejoin:round;stroke:#000;stroke-opacity:1;stroke-miterlimit:10" d="m371.744 1223.926 134.419-16.788m-378.388 47.186h0m243.97-30.398 134.418-16.788" transform="matrix(.09959 0 0 -.09959 .197 176.543)"/><path style="stroke:none;fill-rule:nonzero;fill:#c1acc4;fill-opacity:1" d="m30.09 85.113 28.32 6.914-17.39-15.449"/><path style="stroke:none;fill-rule:nonzero;fill:#6f4a95;fill-opacity:1" d="m12.922 51.625 23.992 31.082-6.824 2.406"/><path style="stroke:none;fill-rule:nonzero;fill:#6f4a95;fill-opacity:1" d="m12.922 51.625 24.164 15.367-.172 15.715"/><path style="fill:none;stroke-width:5;stroke-linecap:round;stroke-linejoin:round;stroke:#000;stroke-opacity:1;stroke-miterlimit:10" d="M127.775 1254.324h0m0 0 66.876-2.785m-66.876 2.785 74.76-3.099m-74.76 3.1h0m74.76-3.1h.117m207.256-247.46 120.18 93.862m286.645 313.08h0" transform="matrix(.09959 0 0 -.09959 .197 176.543)"/><path style="stroke:none;fill-rule:nonzero;fill:#c1acc4;fill-opacity:1" d="m30.09 85.113 6.656 12.98 21.664-6.066"/><path style="fill:none;stroke-width:5;stroke-linecap:round;stroke-linejoin:round;stroke:#000;stroke-opacity:1;stroke-miterlimit:10" d="m498.396 640.047 86.135 208.59M562.958 982.78l21.573-134.144m0 0 31.025-84.723m-205.648 239.851 174.623-155.128m283.036-251.383 175.21-155.599m403.373 648.362h0m0 0h0m0 0h0" transform="matrix(.09959 0 0 -.09959 .197 176.543)"/><path style="stroke:none;fill-rule:nonzero;fill:#3886ea;fill-opacity:1" d="m140.676 81.531-21.832 17.18 20.37-11.59"/><path style="stroke:none;fill-rule:nonzero;fill:#968ec9;fill-opacity:1" d="m146.375 97.875-7.16-10.754-20.371 11.59"/><path style="stroke:none;fill-rule:nonzero;fill:#d7f3e2;fill-opacity:1" d="m139.215 87.121-1.715 6.547 1.715-6.547M146.375 97.871l-8.875-4.203 1.715-6.547M137.5 93.668l1.715-6.547"/><path style="stroke:none;fill-rule:nonzero;fill:#3886ea;fill-opacity:1" d="m140.676 81.531-1.461 5.59M140.676 81.531l-1.461 5.59"/><path style="fill:none;stroke-width:5;stroke-linecap:round;stroke-linejoin:round;stroke:#000;stroke-opacity:1;stroke-miterlimit:10" d="m1293.022 905.275 24.829 109.826" transform="matrix(.09959 0 0 -.09959 .197 176.543)"/><path style="stroke:none;fill-rule:nonzero;fill:#a05879;fill-opacity:1" d="M172.918 67.938 140.676 81.53"/><path style="stroke:none;fill-rule:nonzero;fill:#3886ea;fill-opacity:1" d="M172.918 67.938 139.215 87.12l-1.715 6.547"/><path style="stroke:none;fill-rule:nonzero;fill:#a05879;fill-opacity:1" d="m172.918 67.938-41.477 7.511 9.235 6.082"/><path style="stroke:none;fill-rule:nonzero;fill:#a05879;fill-opacity:1" d="m172.918 67.938-38.89-3.965-2.587 11.476M136.434 53.309l-26.086 8.25 23.68 2.414"/><path style="stroke:none;fill-rule:nonzero;fill:#c3afc6;fill-opacity:1" d="m172.918 67.938-36.484-14.63M172.918 67.938l-36.484-14.63"/><path style="stroke:none;fill-rule:nonzero;fill:#a05879;fill-opacity:1" d="m136.434 53.309-14.11-5.66M136.434 53.309l-14.11-5.66-11.976 13.91"/><path style="stroke:none;fill-rule:nonzero;fill:#c3afc6;fill-opacity:1" d="m136.434 53.309-14.11-5.66"/><path style="stroke:none;fill-rule:nonzero;fill:#79549a;fill-opacity:1" d="m115.059 34.402 7.265 13.246M115.059 34.402l-4.711 27.157 11.976-13.91"/><path style="stroke:none;fill-rule:nonzero;fill:#c3afc6;fill-opacity:1" d="m122.324 47.648 8.196 14.942-8.196-14.942"/><path style="stroke:none;fill-rule:nonzero;fill:#c3afc6;fill-opacity:1" d="m136.434 53.309-5.914 9.28-8.196-14.94M130.52 62.59l-8.196-14.942M136.434 53.309l-14.11-5.66"/><path style="stroke:none;fill-rule:nonzero;fill:#79549a;fill-opacity:1" d="m115.059 34.402 7.265 13.246"/><path style="stroke:none;fill-rule:nonzero;fill:#a05879;fill-opacity:1" d="m136.434 53.309-14.11-5.66 14.11 5.66M172.918 67.938l-36.484-14.63-2.407 10.665"/><path style="stroke:none;fill-rule:nonzero;fill:#c3afc6;fill-opacity:1" d="M172.918 67.938 130.52 62.59l5.914-9.281M172.918 67.938l-34.125 9.742-8.273-15.09"/><path style="stroke:none;fill-rule:nonzero;fill:#a05879;fill-opacity:1" d="M172.918 67.938 140.676 81.53"/><path style="stroke:none;fill-rule:nonzero;fill:#3886ea;fill-opacity:1" d="M172.918 67.938 137.5 93.668l8.766-2.367"/><path style="stroke:none;fill-rule:nonzero;fill:#c3afc6;fill-opacity:1" d="M172.918 67.938 146.262 91.3l-7.469-13.621"/><g clip-path="url(#h)"><path style="fill:none;stroke-width:5;stroke-linecap:round;stroke-linejoin:round;stroke:#000;stroke-opacity:1;stroke-miterlimit:10" d="M1734.324 1090.527h0m0 0h0m0 0h0m0 0h0m-441.498-186.115 25.025 110.689m-275.074-573.446h0m-73.543-118.258 3.137 5.099" transform="matrix(.09959 0 0 -.09959 .197 176.543)"/></g><path style="stroke:none;fill-rule:nonzero;fill:#79549a;fill-opacity:1" d="m132.324 157.672 2.805-34.66-11.102-1.614"/><path style="fill:none;stroke-width:5;stroke-linecap:round;stroke-linejoin:round;stroke:#000;stroke-opacity:1;stroke-miterlimit:10" d="m1110.948 459.031 215.767-269.543" transform="matrix(.09959 0 0 -.09959 .197 176.543)"/><path style="stroke:none;fill-rule:nonzero;fill:#79549a;fill-opacity:1" d="M135.129 123.012 118.844 98.71l5.183 22.687"/><path style="stroke:none;fill-rule:nonzero;fill:#cd9397;fill-opacity:1" d="m132.324 157.672-7.43-35.574 10.235.914"/><path style="fill:none;stroke-width:5;stroke-linecap:round;stroke-linejoin:round;stroke:#000;stroke-opacity:1;stroke-miterlimit:10" d="m1326.715 189.488.589 7.06" transform="matrix(.09959 0 0 -.09959 .197 176.543)"/><path style="stroke:none;fill-rule:nonzero;fill:#cd9397;fill-opacity:1" d="m132.324 157.672-28.914-11.344 10.145-11.441"/><path style="fill:none;stroke-width:5;stroke-linecap:round;stroke-linejoin:round;stroke:#000;stroke-opacity:1;stroke-miterlimit:10" d="m982.883 396.47 59.894 45.185m-59.894-45.185 59.894 45.185" transform="matrix(.09959 0 0 -.09959 .197 176.543)"/><path style="stroke:none;fill-rule:nonzero;fill:#cd9397;fill-opacity:1" d="m132.324 157.672-18.77-22.785 11.34-12.79"/><path style="stroke:none;fill-rule:nonzero;fill:#4e4e4e;fill-opacity:1" d="m96.328.254 7.52 35.55 1.183 2.516"/><path style="stroke:none;fill-rule:nonzero;fill:#79549a;fill-opacity:1" d="M115.059 34.402 105.03 38.32l5.317 23.239"/><path style="stroke:none;fill-rule:nonzero;fill:#1074e1;fill-opacity:1" d="m115.059 34.402-8.633 6.871-.953-2.023"/><path style="stroke:none;fill-rule:nonzero;fill:#1074e1;fill-opacity:1" d="m115.059 34.402-9.586 4.848-.442-.93"/><path style="stroke:none;fill-rule:nonzero;fill:#4e4e4e;fill-opacity:1" d="m96.328.254 8.703 38.066 1.395 2.953M105.031 38.32l.04.082"/><path style="stroke:none;fill-rule:nonzero;fill:#4e4e4e;fill-opacity:1" d="m105.031 38.32.04.082 1.355 2.871"/><path style="stroke:none;fill-rule:nonzero;fill:#1074e1;fill-opacity:1" d="m105.031 38.32.442.93-.442-.93"/><path style="stroke:none;fill-rule:nonzero;fill:#4e4e4e;fill-opacity:1" d="m96.328.254 8.262 31.52M96.328.254l10.098 41.02-1.836-9.5"/><path style="stroke:none;fill-rule:nonzero;fill:#928dcb;fill-opacity:1" d="m100.172 14.926 4.418 16.847"/><path style="stroke:none;fill-rule:nonzero;fill:#4e4e4e;fill-opacity:1" d="m96.328.254 8.262 31.52"/><path style="stroke:none;fill-rule:nonzero;fill:#928dcb;fill-opacity:1" d="M104.59 31.773 86.598 57.055l3.804-22.211M96.328.254l3.844 14.672-9.77 19.918"/><path style="stroke:none;fill-rule:nonzero;fill:#928dcb;fill-opacity:1" d="m100.172 14.926 4.418 16.847-14.188 3.07"/><path style="fill:none;stroke-width:5;stroke-linecap:round;stroke-linejoin:round;stroke:#000;stroke-opacity:1;stroke-miterlimit:10" d="M965.272 1770.15h0m0 0h0m0 0h0m70.602-333.83 4.903-23.141" transform="matrix(.09959 0 0 -.09959 .197 176.543)"/><path style="stroke:none;fill-rule:nonzero;fill:#4e4e4e;fill-opacity:1" d="m103.848 35.805 6.5 25.754-5.317-23.239"/><path style="fill:none;stroke-width:5;stroke-linecap:round;stroke-linejoin:round;stroke:#000;stroke-opacity:1;stroke-miterlimit:10" d="m1040.777 1413.179 27.652-130.693m-32.555 153.834 4.903-23.141m65.268-258.6 136.065-25.848m-277.936 206.864 104.255-53.109m-104.255 53.109 104.255-53.109m0 0 37.616-127.907m-408.08-798.038 133.006 18.67m-14.238 1035.497 79.977-40.753m-400.706-153.168 230.908-23.573m-230.908 23.573h0m0 0h0m821.847-201.686 17.925 79.545m-17.925-79.545 17.925 79.545" transform="matrix(.09959 0 0 -.09959 .197 176.543)"/><path style="stroke:none;fill-rule:nonzero;fill:#6f4a95;fill-opacity:1" d="m30.09 85.113 6.824-2.406-.168 15.387"/><path style="fill:none;stroke-width:5;stroke-linecap:round;stroke-linejoin:round;stroke:#000;stroke-opacity:1;stroke-miterlimit:10" d="m300.161 918.062 66.837-130.339m-239.223 466.601L300.16 918.062m823.181-346.891 120.063-17.455m0 0h0M597.67 1356.11l129.24-162.895M366.999 787.723h0" transform="matrix(.09959 0 0 -.09959 .197 176.543)"/><g clip-path="url(#i)"><path style="stroke:none;fill-rule:nonzero;fill:#29b3c8;fill-opacity:1" d="m.445 108.266 32.407 4.347 5.527.063"/></g><g clip-path="url(#j)"><path style="stroke:none;fill-rule:nonzero;fill:#ca939b;fill-opacity:1" d="m.445 108.266 36.301-10.172.168-15.387"/></g><g clip-path="url(#k)"><path style="fill:none;stroke-width:5;stroke-linecap:round;stroke-linejoin:round;stroke:#000;stroke-opacity:1;stroke-miterlimit:10" d="M368.685 942.224h0m-1.687-154.501 217.533 60.914M2.495 685.585h0m1393.41 212.316h0" transform="matrix(.09959 0 0 -.09959 .197 176.543)"/></g><path style="stroke:none;fill-rule:nonzero;fill:#968ec9;fill-opacity:1" d="m146.375 97.875-27.531.836 17.394 10.598"/><path style="stroke:none;fill-rule:nonzero;fill:#79549a;fill-opacity:1" d="m135.129 123.012 1.11-13.703-17.395-10.598"/><path style="fill:none;stroke-width:5;stroke-linecap:round;stroke-linejoin:round;stroke:#000;stroke-opacity:1;stroke-miterlimit:10" d="m1191.355 781.526 52.05-227.81m-52.05 227.81 10.826-83.664m-10.826 83.664 101.471 122.886m-101.47-122.886 204.55 116.375m-68.602-701.352 27.574 340.968M830.97 375.211h0" transform="matrix(.09959 0 0 -.09959 .197 176.543)"/><g clip-path="url(#l)"><path style="stroke:none;fill-rule:nonzero;fill:#c1acc4;fill-opacity:1" d="m76.836 176.293 6.117-37.117-15.5-5.805"/></g><path style="fill:none;stroke-width:5;stroke-linecap:round;stroke-linejoin:round;stroke:#000;stroke-opacity:1;stroke-miterlimit:10" d="M675.333 433.497h0M830.97 375.21l36.596 222.043m-484.174 44.048 58.953-.667" transform="matrix(.09959 0 0 -.09959 .197 176.543)"/><g clip-path="url(#m)"><path style="stroke:none;fill-rule:nonzero;fill:#c1acc4;fill-opacity:1" d="m76.836 176.293-9.383-42.922-8.785 7.48"/></g><path style="stroke:none;fill-rule:nonzero;fill:#c1acc4;fill-opacity:1" d="m58.668 140.852 8.785-7.48-15.621-5.856"/><path style="fill:none;stroke-width:5;stroke-linecap:round;stroke-linejoin:round;stroke:#000;stroke-opacity:1;stroke-miterlimit:10" d="M675.333 433.497 830.97 375.21" transform="matrix(.09959 0 0 -.09959 .197 176.543)"/><path style="stroke:none;fill-rule:nonzero;fill:#ca939b;fill-opacity:1" d="M96.328.254 69.84 30.09l11.695 5.96"/><path style="fill:none;stroke-width:5;stroke-linecap:round;stroke-linejoin:round;stroke:#000;stroke-opacity:1;stroke-miterlimit:10" d="m726.912 1193.214 89.821 217.494m0 0 79.977-40.753m68.562 400.195h0m140.773-615.57 120.258 139.673m-173.641 93.666 53.383-233.34m0 0 208.55-21.259" transform="matrix(.09959 0 0 -.09959 .197 176.543)"/><path style="stroke:none;fill-rule:nonzero;fill:#6f4a95;fill-opacity:1" d="m58.668 140.852-6.84-13.336 10.348-12.075"/><path style="fill:none;stroke-width:5;stroke-linecap:round;stroke-linejoin:round;stroke:#000;stroke-opacity:1;stroke-miterlimit:10" d="m601.318 461.228 74.015-27.731M1395.905 897.9h0m0 0h0" transform="matrix(.09959 0 0 -.09959 .197 176.543)"/><g clip-path="url(#n)"><path style="stroke:none;fill-rule:nonzero;fill:#ca939b;fill-opacity:1" d="m.445 108.266 36.47-25.559-9.954-4.312"/></g><g clip-path="url(#o)"><path style="fill:none;stroke-width:5;stroke-linecap:round;stroke-linejoin:round;stroke:#000;stroke-opacity:1;stroke-miterlimit:10" d="M2.495 685.585h0" transform="matrix(.09959 0 0 -.09959 .197 176.543)"/></g><path style="stroke:none;fill-rule:nonzero;fill:#6f4a95;fill-opacity:1" d="m37.242 52.637-.156 14.355"/><path style="stroke:none;fill-rule:nonzero;fill:#ca939b;fill-opacity:1" d="m37.086 66.992-.172 15.715.172-15.715"/><path style="stroke:none;fill-rule:nonzero;fill:#6f4a95;fill-opacity:1" d="m37.242 52.637 15.692 24.43-15.848-10.075M37.242 52.637l-.156 14.355"/><path style="stroke:none;fill-rule:nonzero;fill:#ca939b;fill-opacity:1" d="m26.96 78.395 9.954 4.312.172-15.715M36.914 82.707l.172-15.715"/><path style="fill:none;stroke-width:5;stroke-linecap:round;stroke-linejoin:round;stroke:#000;stroke-opacity:1;stroke-miterlimit:10" d="m366.998 787.723 1.687 154.5" transform="matrix(.09959 0 0 -.09959 .197 176.543)"/><path style="stroke:none;fill-rule:nonzero;fill:#a05879;fill-opacity:1" d="m37.668 13.695 8.777 30.668 13.274-2.875"/><path style="fill:none;stroke-width:5;stroke-linecap:round;stroke-linejoin:round;stroke:#000;stroke-opacity:1;stroke-miterlimit:10" d="M464.39 1327.24h0" transform="matrix(.09959 0 0 -.09959 .197 176.543)"/><path style="stroke:none;fill-rule:nonzero;fill:#cdc949;fill-opacity:1" d="m37.668 13.695 10.738 40.543-1.96-9.875"/><path style="fill:none;stroke-width:5;stroke-linecap:round;stroke-linejoin:round;stroke:#000;stroke-opacity:1;stroke-miterlimit:10" d="m464.39 1327.24 31.614-110.453" transform="matrix(.09959 0 0 -.09959 .197 176.543)"/><g clip-path="url(#p)"><path style="stroke:none;fill-rule:nonzero;fill:#6f4a95;fill-opacity:1" d="m76.836 176.293-18.168-35.441 9.152-1.993"/></g><path style="stroke:none;fill-rule:nonzero;fill:#6f4a95;fill-opacity:1" d="m58.668 140.852 3.508-25.41 5.644 23.417"/><path style="fill:none;stroke-width:5;stroke-linecap:round;stroke-linejoin:round;stroke:#000;stroke-opacity:1;stroke-miterlimit:10" d="m518.44 492.293 68.68-133.909m465.542 1029.535h0m0 0 4.432-9.335m0 0 .902-1.961" transform="matrix(.09959 0 0 -.09959 .197 176.543)"/><path style="stroke:none;fill-rule:nonzero;fill:#cd9397;fill-opacity:1" d="m135.129 123.012-10.234-.914 11.343-12.79"/><path style="fill:none;stroke-width:5;stroke-linecap:round;stroke-linejoin:round;stroke:#000;stroke-opacity:1;stroke-miterlimit:10" d="m1354.878 537.517 11.139 137.596m0 0h0m-39.302-485.625 28.163 348.03m-163.523 244.008 174.662-106.413" transform="matrix(.09959 0 0 -.09959 .197 176.543)"/><path style="stroke:none;fill-rule:nonzero;fill:#928dcb;fill-opacity:1" d="M96.328.254 74.883 38.207 69.84 30.09"/><path style="stroke:none;fill-rule:nonzero;fill:#928dcb;fill-opacity:1" d="m96.328.254-5.926 34.59-15.52 3.363"/><path style="fill:none;stroke-width:5;stroke-linecap:round;stroke-linejoin:round;stroke:#000;stroke-opacity:1;stroke-miterlimit:10" d="m699.298 1470.562 265.974 299.588m0 0 38.596-147.322m-304.57-152.266 265.974 299.588m-328.613-370.19 62.64 70.602M597.67 1356.11l16.63 18.67m-16.63-18.67h0" transform="matrix(.09959 0 0 -.09959 .197 176.543)"/><path style="stroke:none;fill-rule:nonzero;fill:#a05879;fill-opacity:1" d="m37.668 13.695 22.05 27.793 15.165-3.281"/><path style="fill:none;stroke-width:5;stroke-linecap:round;stroke-linejoin:round;stroke:#000;stroke-opacity:1;stroke-miterlimit:10" d="m597.67 1356.109 152.266 32.947m-77.584 51.108 26.946 30.398M597.671 1356.11h0" transform="matrix(.09959 0 0 -.09959 .197 176.543)"/><path style="stroke:none;fill-rule:nonzero;fill:#6f4a95;fill-opacity:1" d="m37.242 52.637 9.906.414"/><path style="stroke:none;fill-rule:nonzero;fill:#514141;fill-opacity:1" d="m37.242 52.637 11.164 1.601-1.258-1.187"/><path style="stroke:none;fill-rule:nonzero;fill:#6f4a95;fill-opacity:1" d="m37.242 52.637 9.906.414 5.786 24.015M37.242 52.637l9.906.414-9.906-.414"/><path style="stroke:none;fill-rule:nonzero;fill:#514141;fill-opacity:1" d="m37.242 52.637 9.906.414M37.242 52.637l9.906.414"/><path style="fill:none;stroke-width:5;stroke-linecap:round;stroke-linejoin:round;stroke:#000;stroke-opacity:1;stroke-miterlimit:10" d="m484.08 1228.084 11.924-11.297m-170.504 29.34 46.48-1.962" transform="matrix(.09959 0 0 -.09959 .197 176.543)"/><path style="stroke:none;fill-rule:nonzero;fill:#cdc949;fill-opacity:1" d="m37.668 13.695 9.48 39.356 1.258 1.187"/><path style="fill:none;stroke-width:5;stroke-linecap:round;stroke-linejoin:round;stroke:#000;stroke-opacity:1;stroke-miterlimit:10" d="m475.882 1235.81 8.198-7.726m0 0 11.924-11.297" transform="matrix(.09959 0 0 -.09959 .197 176.543)"/><path style="stroke:none;fill-rule:nonzero;fill:#928dcb;fill-opacity:1" d="m26.96 78.395 10.126-11.403 15.848 10.074"/><path style="fill:none;stroke-width:5;stroke-linecap:round;stroke-linejoin:round;stroke:#000;stroke-opacity:1;stroke-miterlimit:10" d="M370.41 1100.02h0m-1.725-157.796.549 48.44m-166.582 260.561 169.327-7.06" transform="matrix(.09959 0 0 -.09959 .197 176.543)"/><g clip-path="url(#q)"><path style="stroke:none;fill-rule:nonzero;fill:#928dcb;fill-opacity:1" d="m.445 108.266 26.516-29.871 5.64 10.757"/></g><path style="stroke:none;fill-rule:nonzero;fill:#928dcb;fill-opacity:1" d="m26.96 78.395 25.974-1.329-20.332 12.086"/><path style="fill:none;stroke-width:5;stroke-linecap:round;stroke-linejoin:round;stroke:#000;stroke-opacity:1;stroke-miterlimit:10" d="M268.744 985.526 370.41 1100.02" transform="matrix(.09959 0 0 -.09959 .197 176.543)"/><g clip-path="url(#r)"><path style="stroke:none;fill-rule:nonzero;fill:#928dcb;fill-opacity:1" d="m.445 108.266 38.657-6.72-6.25 11.067"/></g><g clip-path="url(#s)"><path style="fill:none;stroke-width:5;stroke-linecap:round;stroke-linejoin:round;stroke:#000;stroke-opacity:1;stroke-miterlimit:10" d="M2.495 685.585h0m0 0h0m0 0h0m0 0h0" transform="matrix(.09959 0 0 -.09959 .197 176.543)"/></g><g clip-path="url(#t)"><path style="stroke:none;fill-rule:nonzero;fill:#928dcb;fill-opacity:1" d="m.445 108.266 32.157-19.114 6.5 12.395"/></g><g clip-path="url(#u)"><path style="fill:none;stroke-width:5;stroke-linecap:round;stroke-linejoin:round;stroke:#000;stroke-opacity:1;stroke-miterlimit:10" d="m2.495 685.585 266.249 299.941M2.495 685.586h0m1731.83 404.941h0m-366.347 146.892 366.346-146.892" transform="matrix(.09959 0 0 -.09959 .197 176.543)"/></g><path style="stroke:none;fill-rule:nonzero;fill:#968ec9;fill-opacity:1" d="m166.125 127.516-19.75-29.641-10.137 11.434"/><path style="stroke:none;fill-rule:nonzero;fill:#968ec9;fill-opacity:1" d="m166.125 127.516-29.887-18.207-11.343 12.789"/><path style="stroke:none;fill-rule:nonzero;fill:#d7f3e2;fill-opacity:1" d="M166.125 127.516 137.5 93.668l8.875 4.203"/><path style="fill:none;stroke-width:5;stroke-linecap:round;stroke-linejoin:round;stroke:#000;stroke-opacity:1;stroke-miterlimit:10" d="m1430.383 846.127 37.419-56.208m-37.42 56.208 37.42-56.168m-101.785-114.846h0m-113.905-128.418 113.905 128.418" transform="matrix(.09959 0 0 -.09959 .197 176.543)"/><path style="stroke:none;fill-rule:nonzero;fill:#968ec9;fill-opacity:1" d="m166.125 127.516-41.23-5.418 2.8 10.808"/><path style="stroke:none;fill-rule:nonzero;fill:#968ec9;fill-opacity:1" d="m166.125 127.516-38.43 5.39 6.89-.969"/><path style="stroke:none;fill-rule:nonzero;fill:#9c4f6f;fill-opacity:1" d="m166.125 127.516-12.367 1.738-27.95-6.422M153.758 129.254l-26.063 3.652"/><path style="stroke:none;fill-rule:nonzero;fill:#9c4f6f;fill-opacity:1" d="m153.758 129.254-26.063 3.652-1.886-10.074"/><path style="stroke:none;fill-rule:nonzero;fill:#968ec9;fill-opacity:1" d="m134.586 131.938-6.89.968"/><path style="stroke:none;fill-rule:nonzero;fill:#9c4f6f;fill-opacity:1" d="m127.695 132.906-14.14 1.98"/><path style="stroke:none;fill-rule:nonzero;fill:#968ec9;fill-opacity:1" d="m127.695 132.906-2.8-10.808-11.34 12.789"/><path style="stroke:none;fill-rule:nonzero;fill:#9c4f6f;fill-opacity:1" d="m127.695 132.906-14.14 1.98-12.278-14.906M127.695 132.906l-14.14 1.98 14.14-1.98"/><path style="stroke:none;fill-rule:nonzero;fill:#968ec9;fill-opacity:1" d="m127.695 132.906-14.14 1.98M127.695 132.906l-14.14 1.98"/><path style="fill:none;stroke-width:5;stroke-linecap:round;stroke-linejoin:round;stroke:#000;stroke-opacity:1;stroke-miterlimit:10" d="m1252.112 546.695 113.905 128.418m-227.77-256.835h0m55.266 62.326 58.6 66.091m-58.6-66.09 58.6 66.09" transform="matrix(.09959 0 0 -.09959 .197 176.543)"/><path style="stroke:none;fill-rule:nonzero;fill:#cd9397;fill-opacity:1" d="m103.41 146.328-2.133-26.348 12.278 14.907"/><path style="fill:none;stroke-width:5;stroke-linecap:round;stroke-linejoin:round;stroke:#000;stroke-opacity:1;stroke-miterlimit:10" d="M1036.384 303.393h0" transform="matrix(.09959 0 0 -.09959 .197 176.543)"/><path style="stroke:none;fill-rule:nonzero;fill:#cd9397;fill-opacity:1" d="m103.41 146.328-11.597-4.547 9.464-21.8"/><path style="fill:none;stroke-width:5;stroke-linecap:round;stroke-linejoin:round;stroke:#000;stroke-opacity:1;stroke-miterlimit:10" d="M919.93 349.049h0m116.454-45.656 290.331-113.905M919.93 349.048h0" transform="matrix(.09959 0 0 -.09959 .197 176.543)"/><path style="stroke:none;fill-rule:nonzero;fill:#3886ea;fill-opacity:1" d="m67.82 138.86 10.649-2.313-10.649 2.312"/><g clip-path="url(#v)"><path style="stroke:none;fill-rule:nonzero;fill:#6f4a95;fill-opacity:1" d="m76.836 176.293 1.633-39.746 7.465 9.672"/></g><path style="stroke:none;fill-rule:nonzero;fill:#3886ea;fill-opacity:1" d="m78.469 136.547-10.649 2.312"/><g clip-path="url(#w)"><path style="stroke:none;fill-rule:nonzero;fill:#6f4a95;fill-opacity:1" d="m76.836 176.293-9.016-37.434 10.649-2.312"/></g><path style="stroke:none;fill-rule:nonzero;fill:#3886ea;fill-opacity:1" d="m68.164 144.031 10.305-7.484-10.649 2.312"/><g clip-path="url(#x)"><path style="fill:none;stroke-width:5;stroke-linecap:round;stroke-linejoin:round;stroke:#000;stroke-opacity:1;stroke-miterlimit:10" d="M769.547 2.51h0m0 0h0M587.12 358.385h0m0 0L769.547 2.511m0 0h0" transform="matrix(.09959 0 0 -.09959 .197 176.543)"/></g><g clip-path="url(#y)"><path style="stroke:none;fill-rule:nonzero;fill:#ee8f2e;fill-opacity:1" d="m76.836 176.293 9.098-30.074 5.879-4.438"/></g><g clip-path="url(#z)"><path style="fill:none;stroke-width:5;stroke-linecap:round;stroke-linejoin:round;stroke:#000;stroke-opacity:1;stroke-miterlimit:10" d="m769.547 2.51 199.687 320.887" transform="matrix(.09959 0 0 -.09959 .197 176.543)"/></g><path style="stroke:none;fill-rule:nonzero;fill:#29b3c8;fill-opacity:1" d="m32.852 112.613 29.324 2.828-23.797-2.765"/><path style="fill:none;stroke-width:5;stroke-linecap:round;stroke-linejoin:round;stroke:#000;stroke-opacity:1;stroke-miterlimit:10" d="M383.393 641.302h0m-6.275-96.097 5.962 91.39m-5.962-91.39 5.962 91.39m.313 4.707 58.953-.667" transform="matrix(.09959 0 0 -.09959 .197 176.543)"/><path style="stroke:none;fill-rule:nonzero;fill:#cdc949;fill-opacity:1" d="m68.164 144.031-.344-5.172-5.644-23.418"/><path style="stroke:none;fill-rule:nonzero;fill:#79549a;fill-opacity:1" d="m143.184 23.418-28.125 10.984 7.265 13.246"/><path style="stroke:none;fill-rule:nonzero;fill:#79549a;fill-opacity:1" d="m143.184 23.418-20.86 24.23 8.196 14.942M143.184 23.418 130.52 62.59l9.457.484"/><path style="stroke:none;fill-rule:nonzero;fill:#cd9397;fill-opacity:1" d="m143.184 23.418-3.207 39.656-13.165-1.941"/><path style="stroke:none;fill-rule:nonzero;fill:#1074e1;fill-opacity:1" d="m143.184 23.418-36.758 17.855 8.633-6.87"/><path style="fill:none;stroke-width:5;stroke-linecap:round;stroke-linejoin:round;stroke:#000;stroke-opacity:1;stroke-miterlimit:10" d="m1060.35 1390.939 92.998 36.32" transform="matrix(.09959 0 0 -.09959 .197 176.543)"/><path style="stroke:none;fill-rule:nonzero;fill:#a05879;fill-opacity:1" d="m37.668 13.695 37.215 24.512 1.082-9.152M75.965 29.055l-1.082 9.152 15.52-3.363"/><path style="stroke:none;fill-rule:nonzero;fill:#c3afc6;fill-opacity:1" d="m75.965 29.055 10.726 4.304-.093 23.696M86.691 33.36l3.711 1.484"/><path style="stroke:none;fill-rule:nonzero;fill:#c3afc6;fill-opacity:1" d="m86.691 33.36 3.711 1.484-3.804 22.21"/><path style="stroke:none;fill-rule:nonzero;fill:#a05879;fill-opacity:1" d="m75.965 29.055 14.437 5.789M75.965 29.055l14.437 5.789"/><path style="fill:none;stroke-width:5;stroke-linecap:round;stroke-linejoin:round;stroke:#000;stroke-opacity:1;stroke-miterlimit:10" d="m597.67 1356.109 152.266 32.947m0 0 42.283 9.14m113.551 24.632h0m-155.834-33.772 42.283 9.14m748.42-923.515 1.295.157" transform="matrix(.09959 0 0 -.09959 .197 176.543)"/><path style="stroke:none;fill-rule:nonzero;fill:#9c4f6f;fill-opacity:1" d="m127.695 132.906-26.418-12.926 24.532 2.852"/><path style="fill:none;stroke-width:5;stroke-linecap:round;stroke-linejoin:round;stroke:#000;stroke-opacity:1;stroke-miterlimit:10" d="m1280.236 438.164 260.403 36.517m-402.392-56.403 141.989 19.886m-141.989-19.886 141.989 19.886m0 0 69.19 9.728" transform="matrix(.09959 0 0 -.09959 .197 176.543)"/><path style="stroke:none;fill-rule:nonzero;fill:#d7f3e2;fill-opacity:1" d="m166.125 127.516-30.426-26.961 1.801-6.887"/><path style="fill:none;stroke-width:5;stroke-linecap:round;stroke-linejoin:round;stroke:#000;stroke-opacity:1;stroke-miterlimit:10" d="m1378.686 832.163 17.22 65.738" transform="matrix(.09959 0 0 -.09959 .197 176.543)"/><path style="stroke:none;fill-rule:nonzero;fill:#3886ea;fill-opacity:1" d="m146.266 91.3-8.766 2.368-1.8 6.887"/><g clip-path="url(#A)"><path style="fill:none;stroke-width:5;stroke-linecap:round;stroke-linejoin:round;stroke:#000;stroke-opacity:1;stroke-miterlimit:10" d="m1378.686 832.163 17.22 65.738m70.797-41.969 267.621 234.595" transform="matrix(.09959 0 0 -.09959 .197 176.543)"/></g><path style="stroke:none;fill-rule:nonzero;fill:#d8e9e0;fill-opacity:1" d="m28.55 95.195 10.552 6.352-6.5-12.395"/><path style="stroke:none;fill-rule:nonzero;fill:#1074e1;fill-opacity:1" d="m28.55 95.195 4.052-6.043 20.332-12.086"/><path style="fill:none;stroke-width:5;stroke-linecap:round;stroke-linejoin:round;stroke:#000;stroke-opacity:1;stroke-miterlimit:10" d="m1226.303 1294.253 57.973-105.706m18.866-34.36 5.452-9.963m-82.29 150.03 57.972-105.707" transform="matrix(.09959 0 0 -.09959 .197 176.543)"/><path style="stroke:none;fill-rule:nonzero;fill:#cdc949;fill-opacity:1" d="m68.164 144.031-5.988-28.59 2.527 15.707"/><path style="stroke:none;fill-rule:nonzero;fill:#29b3c8;fill-opacity:1" d="m32.852 112.613 12.968 1.739 16.356 1.09"/><path style="stroke:none;fill-rule:nonzero;fill:#d8e9e0;fill-opacity:1" d="m52.02 126.172 10.156-10.73-16.356-1.09"/><path style="stroke:none;fill-rule:nonzero;fill:#d8e9e0;fill-opacity:1" d="m52.02 126.172 12.683 4.976-2.527-15.707"/><path style="fill:none;stroke-width:5;stroke-linecap:round;stroke-linejoin:round;stroke:#000;stroke-opacity:1;stroke-miterlimit:10" d="m622.342 613.532 56.678-235.144M518.44 492.293l9.138 10.63m-144.185 138.38 238.95-27.771" transform="matrix(.09959 0 0 -.09959 .197 176.543)"/><path style="stroke:none;fill-rule:nonzero;fill:#ee8f2e;fill-opacity:1" d="m85.934 146.219 15.343-26.239-9.465 21.801"/><path style="fill:none;stroke-width:5;stroke-linecap:round;stroke-linejoin:round;stroke:#000;stroke-opacity:1;stroke-miterlimit:10" d="m919.93 349.049 116.454-45.656" transform="matrix(.09959 0 0 -.09959 .197 176.543)"/><path style="stroke:none;fill-rule:nonzero;fill:#1074e1;fill-opacity:1" d="m143.184 23.418-35.29 20.973-1.468-3.118"/><path style="stroke:none;fill-rule:nonzero;fill:#cd9397;fill-opacity:1" d="m143.184 23.418-16.371 37.715-15.114-2.23"/><path style="stroke:none;fill-rule:nonzero;fill:#928dcb;fill-opacity:1" d="m104.59 31.773 3.305 12.618"/><path style="stroke:none;fill-rule:nonzero;fill:#4e4e4e;fill-opacity:1" d="m104.59 31.773 1.836 9.5 1.469 3.118"/><path style="stroke:none;fill-rule:nonzero;fill:#928dcb;fill-opacity:1" d="m104.59 31.773 3.305 12.618-21.297 12.664"/><path style="stroke:none;fill-rule:nonzero;fill:#928dcb;fill-opacity:1" d="m104.59 31.773 3.305 12.618-3.305-12.618"/><path style="stroke:none;fill-rule:nonzero;fill:#4e4e4e;fill-opacity:1" d="m104.59 31.773 3.305 12.618M104.59 31.773l3.305 12.618"/><path style="fill:none;stroke-width:5;stroke-linecap:round;stroke-linejoin:round;stroke:#000;stroke-opacity:1;stroke-miterlimit:10" d="M1081.412 1326.966h0m-116.14 443.184 82.957-316.493m-43.145 164.66 43.145-164.66" transform="matrix(.09959 0 0 -.09959 .197 176.543)"/><path style="stroke:none;fill-rule:nonzero;fill:#79549a;fill-opacity:1" d="m139.977 63.074-9.457-.484 8.273 15.09"/><path style="fill:none;stroke-width:5;stroke-linecap:round;stroke-linejoin:round;stroke:#000;stroke-opacity:1;stroke-miterlimit:10" d="m1303.142 1154.187 5.452-9.963M905.77 1422.828h0" transform="matrix(.09959 0 0 -.09959 .197 176.543)"/><path style="stroke:none;fill-rule:nonzero;fill:#cdc949;fill-opacity:1" d="m45.96 51.926 6.974 25.14-5.786-24.015M45.96 51.926l3.247 14.969 3.727 10.171"/><path style="fill:none;stroke-width:5;stroke-linecap:round;stroke-linejoin:round;stroke:#000;stroke-opacity:1;stroke-miterlimit:10" d="m471.45 1240.008 12.63-11.924m-112.1 16.081 89.9-3.726m-89.9 3.726 89.9-3.726" transform="matrix(.09959 0 0 -.09959 .197 176.543)"/><path style="stroke:none;fill-rule:nonzero;fill:#f29a50;fill-opacity:1" d="m40.563 79.125 12.37-2.059-3.726-10.171"/><path style="fill:none;stroke-width:5;stroke-linecap:round;stroke-linejoin:round;stroke:#000;stroke-opacity:1;stroke-miterlimit:10" d="m370.41 1100.02 83.507-53.07" transform="matrix(.09959 0 0 -.09959 .197 176.543)"/><path style="stroke:none;fill-rule:nonzero;fill:#1074e1;fill-opacity:1" d="m28.55 95.195 11.31-5.257M28.55 95.195l24.384-18.129-13.075 12.871M28.55 95.195l11.31-5.257"/><path style="stroke:none;fill-rule:nonzero;fill:#f29a50;fill-opacity:1" d="m40.563 79.125-.704 10.813 13.075-12.872"/><path style="stroke:none;fill-rule:nonzero;fill:#9c4f6f;fill-opacity:1" d="m40.563 79.125 12.332 4.754-13.036 6.058M52.895 83.879l-13.036 6.058"/><path style="fill:none;stroke-width:5;stroke-linecap:round;stroke-linejoin:round;stroke:#000;stroke-opacity:1;stroke-miterlimit:10" d="m325.382 877.505 76.329 45.382m69.739 317.12 58.09-241.145m-50.05-49.264 50.05 49.264" transform="matrix(.09959 0 0 -.09959 .197 176.543)"/><path style="stroke:none;fill-rule:nonzero;fill:#cd9397;fill-opacity:1" d="m139.977 63.074-1.184 14.606-21.867 6.242"/><path style="fill:none;stroke-width:5;stroke-linecap:round;stroke-linejoin:round;stroke:#000;stroke-opacity:1;stroke-miterlimit:10" d="m1308.594 1144.224 33.261-60.64m-33.261 60.64 33.261-60.64m49.814-90.88h0" transform="matrix(.09959 0 0 -.09959 .197 176.543)"/><path style="stroke:none;fill-rule:nonzero;fill:#c3afc6;fill-opacity:1" d="m146.262 91.3-29.336-7.378 21.867-6.242"/><path style="fill:none;stroke-width:5;stroke-linecap:round;stroke-linejoin:round;stroke:#000;stroke-opacity:1;stroke-miterlimit:10" d="M1391.67 992.704h0" transform="matrix(.09959 0 0 -.09959 .197 176.543)"/><path style="stroke:none;fill-rule:nonzero;fill:#ee8f2e;fill-opacity:1" d="m85.934 146.219 3.656-12.086 11.687-14.153"/><path style="stroke:none;fill-rule:nonzero;fill:#3886ea;fill-opacity:1" d="m99.953 131.879 1.324-11.899-11.687 14.153"/><path style="stroke:none;fill-rule:nonzero;fill:#6f4a95;fill-opacity:1" d="m85.934 146.219-7.465-9.672 11.12-2.414M78.469 136.547l11.12-2.414"/><path style="stroke:none;fill-rule:nonzero;fill:#3886ea;fill-opacity:1" d="m69.16 158.863 9.309-22.316-10.305 7.484M69.16 158.863l20.43-24.73-11.121 2.414M69.16 158.863l18.875-16.539 1.555-8.191M88.035 142.324l11.918-10.445"/><path style="stroke:none;fill-rule:nonzero;fill:#3886ea;fill-opacity:1" d="m88.035 142.324 11.918-10.445-10.363 2.254"/><path style="stroke:none;fill-rule:nonzero;fill:#c3afc6;fill-opacity:1" d="m69.16 158.863 6.93-40.449 17.71 1.793"/><path style="stroke:none;fill-rule:nonzero;fill:#c3afc6;fill-opacity:1" d="M70.176 157.973 93.8 120.207l6.152 11.672M69.16 158.863l24.64-38.656-23.624 37.766"/><path style="stroke:none;fill-rule:nonzero;fill:#29b3c8;fill-opacity:1" d="m90.23 120.309 3.57-.102-1.976-.203M76.09 118.414l15.734 1.59-15.734-1.59"/><path style="stroke:none;fill-rule:nonzero;fill:#29b3c8;fill-opacity:1" d="m90.23 120.309 1.594-.305-15.734-1.59"/><path style="stroke:none;fill-rule:nonzero;fill:#c3afc6;fill-opacity:1" d="m93.8 120.207-17.71-1.793 17.71 1.793M76.09 118.414l17.71 1.793M69.16 158.863l1.016-.89"/><path style="fill:none;stroke-width:5;stroke-linecap:round;stroke-linejoin:round;stroke:#000;stroke-opacity:1;stroke-miterlimit:10" d="m919.93 349.049 19.494 44.871" transform="matrix(.09959 0 0 -.09959 .197 176.543)"/><path style="stroke:none;fill-rule:nonzero;fill:#3886ea;fill-opacity:1" d="m99.953 131.879 11.309-9.91-9.985-1.989"/><g clip-path="url(#B)"><path style="fill:none;stroke-width:5;stroke-linecap:round;stroke-linejoin:round;stroke:#000;stroke-opacity:1;stroke-miterlimit:10" d="m1066.547 505.315 71.7-87.037M769.547 2.511 860.9 304.49" transform="matrix(.09959 0 0 -.09959 .197 176.543)"/></g><path style="stroke:none;fill-rule:nonzero;fill:#c3afc6;fill-opacity:1" d="M111.262 121.969 93.8 120.207l17.46 1.762"/><path style="stroke:none;fill-rule:nonzero;fill:#c3afc6;fill-opacity:1" d="m99.953 131.879-6.152-11.672 17.46 1.762M93.8 120.207l17.462 1.762"/><path style="stroke:none;fill-rule:nonzero;fill:#29b3c8;fill-opacity:1" d="M126.676 123.527h-.004l-15.41-1.558"/><path style="stroke:none;fill-rule:nonzero;fill:#29b3c8;fill-opacity:1" d="m126.672 123.527-25.395-3.547 9.985 1.989M126.672 123.527l-15.41-1.558M126.676 123.527l-.867-.695-24.532-2.852"/><path style="fill:none;stroke-width:5;stroke-linecap:round;stroke-linejoin:round;stroke:#000;stroke-opacity:1;stroke-miterlimit:10" d="m1007.476 558.894 7.492 9.06m100.255-19.964h0m-100.255 19.965 100.255-19.965" transform="matrix(.09959 0 0 -.09959 .197 176.543)"/><path style="stroke:none;fill-rule:nonzero;fill:#c3afc6;fill-opacity:1" d="m37.668 13.695 38.297 15.36-8.074 11.422"/><path style="stroke:none;fill-rule:nonzero;fill:#c3afc6;fill-opacity:1" d="m75.965 29.055 10.633 28L67.89 40.477"/><path style="fill:none;stroke-width:5;stroke-linecap:round;stroke-linejoin:round;stroke:#000;stroke-opacity:1;stroke-miterlimit:10" d="m760.8 1480.957 107.708-43.224M760.8 1480.957l144.97-58.13m-173.407 69.504 28.437-11.374" transform="matrix(.09959 0 0 -.09959 .197 176.543)"/><path style="stroke:none;fill-rule:nonzero;fill:#cdc949;fill-opacity:1" d="m37.668 13.695 8.293 38.23 1.187 1.126"/><path style="fill:none;stroke-width:5;stroke-linecap:round;stroke-linejoin:round;stroke:#000;stroke-opacity:1;stroke-miterlimit:10" d="m376.255 1635.183 356.109-142.852m-354.227 136.184.314-1.06m-2.196 7.728 1.882-6.668m-1.882 6.668 88.135-307.943m7.06-87.232 4.432-4.197" transform="matrix(.09959 0 0 -.09959 .197 176.543)"/><path style="stroke:none;fill-rule:nonzero;fill:#c3afc6;fill-opacity:1" d="m146.262 91.3-10.563 9.255-18.773-16.633"/><g clip-path="url(#C)"><path style="fill:none;stroke-width:5;stroke-linecap:round;stroke-linejoin:round;stroke:#000;stroke-opacity:1;stroke-miterlimit:10" d="m1466.664 855.932 267.66 234.595m-373.72-327.515h0" transform="matrix(.09959 0 0 -.09959 .197 176.543)"/></g><path style="stroke:none;fill-rule:nonzero;fill:#928dcb;fill-opacity:1" d="m32.852 112.613 6.25-11.066.742 1.418"/><path style="stroke:none;fill-rule:nonzero;fill:#d8e9e0;fill-opacity:1" d="m17.402 111.852 21.7-10.305-10.551-6.352M17.008 112.438l22.094-10.891-21.7 10.305"/><path style="stroke:none;fill-rule:nonzero;fill:#928dcb;fill-opacity:1" d="m32.852 112.613 6.992-9.648 5.976 11.387"/><path style="stroke:none;fill-rule:nonzero;fill:#d8e9e0;fill-opacity:1" d="m17.008 112.438 28.812 1.914-6.718-12.805"/><path style="stroke:none;fill-rule:nonzero;fill:#1074e1;fill-opacity:1" d="m17.008 112.438 7.172-10.708 15.68-11.793M24.18 101.73l4.37-6.535"/><path style="stroke:none;fill-rule:nonzero;fill:#1074e1;fill-opacity:1" d="m24.18 101.73 4.37-6.535 11.31-5.257"/><path style="stroke:none;fill-rule:nonzero;fill:#d8e9e0;fill-opacity:1" d="m17.008 112.438.394-.586"/><path style="stroke:none;fill-rule:nonzero;fill:#928dcb;fill-opacity:1" d="m45.82 114.352-5.976-11.387 5.976 11.387"/><g clip-path="url(#D)"><path style="fill:none;stroke-width:5;stroke-linecap:round;stroke-linejoin:round;stroke:#000;stroke-opacity:1;stroke-miterlimit:10" d="M390.65 753.05h0m-37.694 71.935 37.694-71.935M2.495 685.585l178.349-23.926m209.806 91.39 28.79-54.912M2.495 685.585l178.349-23.926" transform="matrix(.09959 0 0 -.09959 .197 176.543)"/></g><path style="stroke:none;fill-rule:nonzero;fill:#9c4f6f;fill-opacity:1" d="m166.125 127.516-40.316-4.684-2.188-11.695"/><path style="stroke:none;fill-rule:nonzero;fill:#4e4e4e;fill-opacity:1" d="m126.672 123.527-3.05-12.39 2.187 11.695"/><g clip-path="url(#E)"><path style="fill:none;stroke-width:5;stroke-linecap:round;stroke-linejoin:round;stroke:#000;stroke-opacity:1;stroke-miterlimit:10" d="M1261.29 539.321h0m-246.322 28.634 246.323-28.634m0 0h0m404.824-47.028h0M679.02 378.388l49.696 10.747M769.547 2.511 860.9 304.49m187.33 1149.166 33.183-126.691" transform="matrix(.09959 0 0 -.09959 .197 176.543)"/></g><path style="stroke:none;fill-rule:nonzero;fill:#cd9397;fill-opacity:1" d="m139.977 63.074-23.051 20.848 9.886-22.79"/><path style="fill:none;stroke-width:5;stroke-linecap:round;stroke-linejoin:round;stroke:#000;stroke-opacity:1;stroke-miterlimit:10" d="m1391.67 992.704 11.884 146.656m-11.885-146.656 11.885 146.656" transform="matrix(.09959 0 0 -.09959 .197 176.543)"/><path style="stroke:none;fill-rule:nonzero;fill:#cdc949;fill-opacity:1" d="m69.16 158.863-.996-14.832-3.46-12.883"/><path style="fill:none;stroke-width:5;stroke-linecap:round;stroke-linejoin:round;stroke:#000;stroke-opacity:1;stroke-miterlimit:10" d="m679.02 378.388 3.452-51.932m-3.452 51.932 3.452-51.932" transform="matrix(.09959 0 0 -.09959 .197 176.543)"/><path style="stroke:none;fill-rule:nonzero;fill:#f29a50;fill-opacity:1" d="m67.89 40.477-9.23 13.05 9.23-13.05"/><path style="stroke:none;fill-rule:nonzero;fill:#c3afc6;fill-opacity:1" d="M37.668 13.695 58.66 53.527l-12.7-1.601"/><path style="stroke:none;fill-rule:nonzero;fill:#f29a50;fill-opacity:1" d="m58.66 53.527 9.23-13.05"/><path style="stroke:none;fill-rule:nonzero;fill:#c3afc6;fill-opacity:1" d="m58.66 53.527 9.23-13.05-9.23 13.05M37.668 13.695l30.223 26.782-9.23 13.05M67.89 40.477l-9.23 13.05"/><path style="stroke:none;fill-rule:nonzero;fill:#f29a50;fill-opacity:1" d="m42.543 48.691 16.117 4.836 2.656-10.922M61.316 42.605 58.66 53.527l9.23-13.05"/><path style="fill:none;stroke-width:5;stroke-linecap:round;stroke-linejoin:round;stroke:#000;stroke-opacity:1;stroke-miterlimit:10" d="m376.255 1635.183 74.446-343.126m-74.446 343.126 74.446-343.126m-74.446 343.126L760.8 1480.957" transform="matrix(.09959 0 0 -.09959 .197 176.543)"/><path style="stroke:none;fill-rule:nonzero;fill:#d7f3e2;fill-opacity:1" d="m61.316 42.605 6.575-2.128 18.707 16.578"/><path style="fill:none;stroke-width:5;stroke-linecap:round;stroke-linejoin:round;stroke:#000;stroke-opacity:1;stroke-miterlimit:10" d="m613.713 1344.89 66.013 21.378M284.707 816.827l40.675 60.678" transform="matrix(.09959 0 0 -.09959 .197 176.543)"/><path style="stroke:none;fill-rule:nonzero;fill:#1074e1;fill-opacity:1" d="m109.285 47.332-22.687 9.723 21.297-12.664"/><path style="stroke:none;fill-rule:nonzero;fill:#cd9397;fill-opacity:1" d="m143.184 23.418-31.485 35.484-2.414-11.57"/><path style="stroke:none;fill-rule:nonzero;fill:#1074e1;fill-opacity:1" d="m143.184 23.418-33.899 23.914-1.39-2.941"/><path style="stroke:none;fill-rule:nonzero;fill:#cd9397;fill-opacity:1" d="m143.184 23.418-33.899 23.914M143.184 23.418l-33.899 23.914"/><path style="fill:none;stroke-width:5;stroke-linecap:round;stroke-linejoin:round;stroke:#000;stroke-opacity:1;stroke-miterlimit:10" d="m1048.23 1453.657 33.182-126.691" transform="matrix(.09959 0 0 -.09959 .197 176.543)"/><path style="stroke:none;fill-rule:nonzero;fill:#1074e1;fill-opacity:1" d="m109.285 47.332-13.14 9.273-9.547.45"/><path style="stroke:none;fill-rule:nonzero;fill:#cd9397;fill-opacity:1" d="m109.285 47.332-13.14 9.273M109.285 47.332l2.414 11.57-15.554-2.297M109.285 47.332l-13.14 9.273"/><path style="stroke:none;fill-rule:nonzero;fill:#1074e1;fill-opacity:1" d="m109.285 47.332-13.14 9.273M109.285 47.332l-13.14 9.273 13.14-9.273"/><path style="stroke:none;fill-rule:nonzero;fill:#d7f3e2;fill-opacity:1" d="m61.316 42.605 25.282 14.45-15.938-3.028"/><path style="stroke:none;fill-rule:nonzero;fill:#6f4a95;fill-opacity:1" d="m81.84 54.492-11.18-.465M81.84 54.492l-11.18-.465"/><path style="stroke:none;fill-rule:nonzero;fill:#514141;fill-opacity:1" d="m81.84 54.492-11.18-.465M81.84 54.492l-11.18-.465 15.938 3.028M81.84 54.492l-11.18-.465 11.18.465M123.32 59.758l-11.62-.856 15.112 2.23"/><path style="stroke:none;fill-rule:nonzero;fill:#ee8f2e;fill-opacity:1" d="m123.32 59.758 3.493 1.375M123.32 59.758l3.493 1.375-9.887 22.789M123.32 59.758l3.493 1.375-3.493-1.375M113.277 55.8l10.043 3.958"/><path style="stroke:none;fill-rule:nonzero;fill:#514141;fill-opacity:1" d="m113.277 55.8-1.578 3.102 11.621.856"/><path style="stroke:none;fill-rule:nonzero;fill:#ee8f2e;fill-opacity:1" d="m113.277 55.8 10.043 3.958-10.043-3.957"/><path style="stroke:none;fill-rule:nonzero;fill:#514141;fill-opacity:1" d="m113.277 55.8-17.132.805 15.554 2.297"/><path style="stroke:none;fill-rule:nonzero;fill:#6f4a95;fill-opacity:1" d="M113.277 55.8 92.22 80.38l-10.89-13.32"/><path style="stroke:none;fill-rule:nonzero;fill:#ee8f2e;fill-opacity:1" d="m113.277 55.8 2.344 18.055-8.695 15.903"/><path style="stroke:none;fill-rule:nonzero;fill:#514141;fill-opacity:1" d="M113.277 55.8 81.84 54.493l14.305 2.113"/><path style="stroke:none;fill-rule:nonzero;fill:#6f4a95;fill-opacity:1" d="M113.277 55.8 81.84 54.493"/><path style="stroke:none;fill-rule:nonzero;fill:#514141;fill-opacity:1" d="m81.84 54.492 4.758 2.563 9.547-.45"/><path style="stroke:none;fill-rule:nonzero;fill:#6f4a95;fill-opacity:1" d="M113.277 55.8 81.328 67.06l.512-12.567M113.277 55.8 81.84 54.493"/><path style="stroke:none;fill-rule:nonzero;fill:#ee8f2e;fill-opacity:1" d="m113.277 55.8-6.351 33.958-4.758 2.777"/><path style="stroke:none;fill-rule:nonzero;fill:#6f4a95;fill-opacity:1" d="m102.168 92.535-21.965 1.867L92.22 80.38"/><path style="stroke:none;fill-rule:nonzero;fill:#ee8f2e;fill-opacity:1" d="m102.168 92.535 4.758-2.777-8.774 16.058"/><path style="stroke:none;fill-rule:nonzero;fill:#6f4a95;fill-opacity:1" d="m102.168 92.535-4.016 13.281-17.949-11.414"/><path style="stroke:none;fill-rule:nonzero;fill:#928dcb;fill-opacity:1" d="M90.23 120.309 80.203 94.402l17.95 11.414"/><path style="stroke:none;fill-rule:nonzero;fill:#ee8f2e;fill-opacity:1" d="m102.168 92.535-4.016 13.281M102.168 92.535l-4.016 13.281M113.277 55.8l10.043 3.958-7.699 14.097"/><path style="stroke:none;fill-rule:nonzero;fill:#514141;fill-opacity:1" d="m113.277 55.8 10.043 3.958"/><path style="stroke:none;fill-rule:nonzero;fill:#ee8f2e;fill-opacity:1" d="m123.32 59.758-6.394 24.164-1.305-10.067"/><path style="stroke:none;fill-rule:nonzero;fill:#514141;fill-opacity:1" d="m113.277 55.8 10.043 3.958"/><path style="stroke:none;fill-rule:nonzero;fill:#6f4a95;fill-opacity:1" d="m113.277 55.8-11.109 36.735M113.277 55.8l-11.109 36.735-9.95-12.156M113.277 55.8l-11.109 36.735 11.11-36.734"/><path style="stroke:none;fill-rule:nonzero;fill:#ee8f2e;fill-opacity:1" d="m113.277 55.8-11.109 36.735M113.277 55.8l-11.109 36.735"/><path style="stroke:none;fill-rule:nonzero;fill:#514141;fill-opacity:1" d="m123.32 59.758 3.493 1.375M123.32 59.758l3.493 1.375"/><path style="stroke:none;fill-rule:nonzero;fill:#6f4a95;fill-opacity:1" d="m81.84 54.492-.512 12.567L70.66 54.027"/><path style="fill:none;stroke-width:5;stroke-linecap:round;stroke-linejoin:round;stroke:#000;stroke-opacity:1;stroke-miterlimit:10" d="M707.535 1230.202h0m197.294-8.237 176.583 105m-209.805-103.588 34.163 199.45m-226.044-56.56 159.757-141.557" transform="matrix(.09959 0 0 -.09959 .197 176.543)"/><path style="stroke:none;fill-rule:nonzero;fill:#d7f3e2;fill-opacity:1" d="m134.004 107.027-12.656-8.074-4.422-15.031"/><path style="stroke:none;fill-rule:nonzero;fill:#d7f3e2;fill-opacity:1" d="m134.004 107.027-17.078-23.105 18.773 16.633"/><path style="stroke:none;fill-rule:nonzero;fill:#928dcb;fill-opacity:1" d="m119.227 87.621-3.606-13.766"/><path style="stroke:none;fill-rule:nonzero;fill:#4e4e4e;fill-opacity:1" d="m119.227 87.621-2.301-3.7 4.422 15.032"/><path style="stroke:none;fill-rule:nonzero;fill:#4e4e4e;fill-opacity:1" d="m119.227 87.621-3.606-13.766 1.305 10.067"/><path style="stroke:none;fill-rule:nonzero;fill:#928dcb;fill-opacity:1" d="m119.227 87.621-12.301 2.137 8.695-15.903M119.227 87.621l-3.606-13.766"/><path style="fill:none;stroke-width:5;stroke-linecap:round;stroke-linejoin:round;stroke:#000;stroke-opacity:1;stroke-miterlimit:10" d="m1184.53 933.555 207.14 59.15m-211.258-43.421 90.96 209.57m-112.376-127.75h0m0 0h0" transform="matrix(.09959 0 0 -.09959 .197 176.543)"/><path style="stroke:none;fill-rule:nonzero;fill:#d7f3e2;fill-opacity:1" d="m166.125 127.516-32.121-20.489 1.695-6.472"/><path style="fill:none;stroke-width:5;stroke-linecap:round;stroke-linejoin:round;stroke:#000;stroke-opacity:1;stroke-miterlimit:10" d="m1360.604 763.012 106.06 92.92m-277.152 58.64 171.092-151.56m107.198 26.947 198.313-297.666m-198.313 297.626 198.313-297.626m-305.51 270.72 106.098 92.92m-106.099-92.92h0M860.9 304.49l8.472 28.045m-8.472-28.045 8.472 28.045" transform="matrix(.09959 0 0 -.09959 .197 176.543)"/><path style="stroke:none;fill-rule:nonzero;fill:#9c4f6f;fill-opacity:1" d="m166.125 127.516-42.504-16.38 10.383-4.109"/><path style="fill:none;stroke-width:5;stroke-linecap:round;stroke-linejoin:round;stroke:#000;stroke-opacity:1;stroke-miterlimit:10" d="m1541.934 474.838 124.181 17.455m-262.561 647.067 32.202 398.196m-32.202-398.196 32.202 398.196m0 0h0m0 0h0m-282.408-110.296 282.408 110.296m0 0h0m0 0h0" transform="matrix(.09959 0 0 -.09959 .197 176.543)"/><path style="stroke:none;fill-rule:nonzero;fill:#d8e9e0;fill-opacity:1" d="m17.008 112.438 35.012 13.734-6.2-11.82"/><path style="fill:none;stroke-width:5;stroke-linecap:round;stroke-linejoin:round;stroke:#000;stroke-opacity:1;stroke-miterlimit:10" d="M458.114 624.475h0m0 0 164.228-10.943m-224.24 125.28 60.012-114.337m778.191 548.186 35.066-13.807m0 0h0m-142.028 20.985h0m10.551-1.569h0" transform="matrix(.09959 0 0 -.09959 .197 176.543)"/><path style="stroke:none;fill-rule:nonzero;fill:#cd9397;fill-opacity:1" d="m64.703 131.148-3.976-14.796 3.976 14.796M52.02 126.172l8.707-9.82 3.976 14.796"/><path style="stroke:none;fill-rule:nonzero;fill:#cdc949;fill-opacity:1" d="m60.727 116.352 3.976 14.796-3.976-14.796M64.703 131.148l-3.976-14.796"/><path style="stroke:none;fill-rule:nonzero;fill:#cd9397;fill-opacity:1" d="m60.727 116.352 3.976 14.796M17.008 112.438l43.719 3.914-8.707 9.82"/><path style="stroke:none;fill-rule:nonzero;fill:#cdc949;fill-opacity:1" d="m69.16 158.863-8.433-42.511-.696.441M69.16 158.863l-4.457-27.715-3.976-14.796"/><path style="fill:none;stroke-width:5;stroke-linecap:round;stroke-linejoin:round;stroke:#000;stroke-opacity:1;stroke-miterlimit:10" d="M647.72 455.815h0m-25.378 157.717 25.378-157.717m0 0h0m-127.359 49.97 110.296-43.263m17.063-6.707h0m-127.359 49.97 110.296-43.263" transform="matrix(.09959 0 0 -.09959 .197 176.543)"/><path style="stroke:none;fill-rule:nonzero;fill:#c3afc6;fill-opacity:1" d="m49.207 66.895 9.453-13.368-9.453 13.368"/><path style="stroke:none;fill-rule:nonzero;fill:#c3afc6;fill-opacity:1" d="m45.96 51.926 12.7 1.601-9.453 13.368"/><path style="stroke:none;fill-rule:nonzero;fill:#f29a50;fill-opacity:1" d="m58.66 53.527-9.453 13.368 9.453-13.368M49.207 66.895l9.453-13.368"/><path style="stroke:none;fill-rule:nonzero;fill:#c3afc6;fill-opacity:1" d="m58.66 53.527-9.453 13.368"/><path style="stroke:none;fill-rule:nonzero;fill:#f29a50;fill-opacity:1" d="m42.543 48.691 6.664 18.204 9.453-13.368"/><path style="fill:none;stroke-width:5;stroke-linecap:round;stroke-linejoin:round;stroke:#000;stroke-opacity:1;stroke-miterlimit:10" d="m587.041 1235.222 53.971 76.329" transform="matrix(.09959 0 0 -.09959 .197 176.543)"/><path style="stroke:none;fill-rule:nonzero;fill:#9c4f6f;fill-opacity:1" d="m134.004 107.027-10.383 4.11-2.273-12.184"/><path style="stroke:none;fill-rule:nonzero;fill:#928dcb;fill-opacity:1" d="M129.164 125.535v-.004l-9.937-37.91"/><path style="stroke:none;fill-rule:nonzero;fill:#4e4e4e;fill-opacity:1" d="m129.164 125.535-5.543-14.398 3.05 12.39"/><path style="stroke:none;fill-rule:nonzero;fill:#29b3c8;fill-opacity:1" d="m129.164 125.535-2.488-2.008-15.414-1.558"/><path style="stroke:none;fill-rule:nonzero;fill:#4e4e4e;fill-opacity:1" d="m129.164 125.535-7.816-26.582 2.273 12.184"/><path style="stroke:none;fill-rule:nonzero;fill:#928dcb;fill-opacity:1" d="m129.164 125.531-9.937-37.91"/><path style="stroke:none;fill-rule:nonzero;fill:#4e4e4e;fill-opacity:1" d="m129.164 125.535-9.937-37.914M129.164 125.531l-9.937-37.91 2.12 11.332"/><path style="stroke:none;fill-rule:nonzero;fill:#4e4e4e;fill-opacity:1" d="m129.164 125.535-9.937-37.914 9.937 37.91"/><path style="stroke:none;fill-rule:nonzero;fill:#29b3c8;fill-opacity:1" d="m129.164 125.535-17.902-3.566-17.461-1.762"/><path style="stroke:none;fill-rule:nonzero;fill:#29b3c8;fill-opacity:1" d="m129.164 125.535-35.363-5.328-3.57.102"/><path style="stroke:none;fill-rule:nonzero;fill:#928dcb;fill-opacity:1" d="M129.164 125.531 90.23 120.31l7.922-14.493M129.164 125.531l-31.012-19.715 8.774-16.058M129.164 125.531l-31.012-19.715 31.012 19.715"/><path style="stroke:none;fill-rule:nonzero;fill:#928dcb;fill-opacity:1" d="m129.164 125.531-22.238-35.773 12.3-2.137"/><path style="fill:none;stroke-width:5;stroke-linecap:round;stroke-linejoin:round;stroke:#000;stroke-opacity:1;stroke-miterlimit:10" d="m1343.581 698.02 322.534-205.727" transform="matrix(.09959 0 0 -.09959 .197 176.543)"/><path style="stroke:none;fill-rule:nonzero;fill:#1074e1;fill-opacity:1" d="m17.008 112.438 22.851-22.5 13.036-6.06"/><path style="fill:none;stroke-width:5;stroke-linecap:round;stroke-linejoin:round;stroke:#000;stroke-opacity:1;stroke-miterlimit:10" d="m398.26 869.621 123.357 57.345m-122.73-57.11 56.874 26.476m-57.502-26.71.628.235m-.628-.236h0M240.817 751.206l43.89 65.62m113.552 52.795.588 9.492m0 0h0M492.121 1101h0m802.863-588.821h0" transform="matrix(.09959 0 0 -.09959 .197 176.543)"/><path style="stroke:none;fill-rule:nonzero;fill:#d7f3e2;fill-opacity:1" d="m42.543 48.691 18.773-6.086 9.344 11.422"/><path style="fill:none;stroke-width:5;stroke-linecap:round;stroke-linejoin:round;stroke:#000;stroke-opacity:1;stroke-miterlimit:10" d="m492.12 1101 94.921 134.222m26.672 109.669 66.013 21.377" transform="matrix(.09959 0 0 -.09959 .197 176.543)"/><path style="stroke:none;fill-rule:nonzero;fill:#f29a50;fill-opacity:1" d="m42.543 48.691-1.98 30.434 8.644-12.23"/><path style="fill:none;stroke-width:5;stroke-linecap:round;stroke-linejoin:round;stroke:#000;stroke-opacity:1;stroke-miterlimit:10" d="m425.206 1283.78 188.507 61.11M492.121 1101l37.419-102.138M492.12 1101h0m603.256 196.43 340.38 240.126m-340.38-240.125 340.38 240.125m-367.209-348.735h0m41.46-6.119h0M983.588 710.178h0m0 0h0" transform="matrix(.09959 0 0 -.09959 .197 176.543)"/><path style="stroke:none;fill-rule:nonzero;fill:#d7f3e2;fill-opacity:1" d="m78.813 71.828 2.515-4.77 10.89 13.32"/><path style="stroke:none;fill-rule:nonzero;fill:#9c4f6f;fill-opacity:1" d="m78.816 71.828 1.387 22.574-13.832-16.789"/><path style="stroke:none;fill-rule:nonzero;fill:#9c4f6f;fill-opacity:1" d="m78.816 71.828 13.403 8.55-12.016 14.024"/><path style="stroke:none;fill-rule:nonzero;fill:#cd9397;fill-opacity:1" d="m52.875 87.133 27.328 7.27-23.566 6.726"/><path style="stroke:none;fill-rule:nonzero;fill:#cd9397;fill-opacity:1" d="m52.875 87.133 13.496-9.52 13.832 16.79"/><path style="stroke:none;fill-rule:nonzero;fill:#cdc949;fill-opacity:1" d="m56.637 101.129 4.09 15.223-4.09-15.223"/><path style="stroke:none;fill-rule:nonzero;fill:#cd9397;fill-opacity:1" d="m17.008 112.438 39.629-11.31 4.09 15.224"/><path style="stroke:none;fill-rule:nonzero;fill:#cdc949;fill-opacity:1" d="m60.031 116.793.696-.441-4.09-15.223M60.727 116.352l-4.09-15.223"/><path style="stroke:none;fill-rule:nonzero;fill:#cd9397;fill-opacity:1" d="m60.727 116.352-4.09-15.223 4.09 15.223M56.637 101.129l4.09 15.223"/><path style="stroke:none;fill-rule:nonzero;fill:#c3afc6;fill-opacity:1" d="m60.031 116.793 20.172-22.39-4.113 24.011"/><path style="fill:none;stroke-width:5;stroke-linecap:round;stroke-linejoin:round;stroke:#000;stroke-opacity:1;stroke-miterlimit:10" d="m609.202 599.137 38.518-143.322" transform="matrix(.09959 0 0 -.09959 .197 176.543)"/><path style="stroke:none;fill-rule:nonzero;fill:#c3afc6;fill-opacity:1" d="m60.031 116.793-3.394-15.664 23.566-6.727"/><path style="stroke:none;fill-rule:nonzero;fill:#928dcb;fill-opacity:1" d="m90.23 120.309-14.14-1.895 4.113-24.012"/><path style="fill:none;stroke-width:5;stroke-linecap:round;stroke-linejoin:round;stroke:#000;stroke-opacity:1;stroke-miterlimit:10" d="m803.358 824.79 180.231-114.612M803.358 824.79l120.651 140.812m77.662-517.12 102.02 89.39m-102.02-89.39 102.02 89.39m123.044 234.673 116.846-74.525" transform="matrix(.09959 0 0 -.09959 .197 176.543)"/><path style="stroke:none;fill-rule:nonzero;fill:#1074e1;fill-opacity:1" d="m17.008 112.438 35.887-28.56-.02 3.255"/><path style="fill:none;stroke-width:5;stroke-linecap:round;stroke-linejoin:round;stroke:#000;stroke-opacity:1;stroke-miterlimit:10" d="m398.847 879.113 6.472 99.079" transform="matrix(.09959 0 0 -.09959 .197 176.543)"/><path style="stroke:none;fill-rule:nonzero;fill:#1074e1;fill-opacity:1" d="m52.875 87.133.02-3.254 13.476-6.266"/><path style="stroke:none;fill-rule:nonzero;fill:#d7f3e2;fill-opacity:1" d="m42.543 48.691 28.117 5.336L81.328 67.06M42.543 48.691 81.328 67.06l-2.516 4.77"/><path style="stroke:none;fill-rule:nonzero;fill:#9c4f6f;fill-opacity:1" d="M42.543 48.691 52.895 83.88l-12.333-4.754"/><path style="fill:none;stroke-width:5;stroke-linecap:round;stroke-linejoin:round;stroke:#000;stroke-opacity:1;stroke-miterlimit:10" d="m398.26 869.621 7.06 108.57m19.886 305.59h0" transform="matrix(.09959 0 0 -.09959 .197 176.543)"/><path style="stroke:none;fill-rule:nonzero;fill:#9c4f6f;fill-opacity:1" d="m42.543 48.691 23.828 28.922-13.476 6.266"/><path style="fill:none;stroke-width:5;stroke-linecap:round;stroke-linejoin:round;stroke:#000;stroke-opacity:1;stroke-miterlimit:10" d="m707.535 1230.202 107.12-130.85m-107.12 130.85h0m0 0 107.12-130.85m-107.12 130.85h0M405.32 978.192l19.887 305.589m-19.887-305.59 19.887 305.59m558.619-65.072 111.55 78.722m-111.55-78.722 111.55 78.722m40.087-85.037h0m0 0h0m0 0h0m0 0h0m0 0 100.843-39.733M882.001 343.597l119.67 104.883" transform="matrix(.09959 0 0 -.09959 .197 176.543)"/><path style="stroke:none;fill-rule:nonzero;fill:#cd9397;fill-opacity:1" d="m17.008 112.438 35.867-25.305 3.762 13.996"/><path style="fill:none;stroke-width:5;stroke-linecap:round;stroke-linejoin:round;stroke:#000;stroke-opacity:1;stroke-miterlimit:10" d="m566.723 757.246 34.086-157.285m-432.007 43.734 72.015 107.511m-68.053-101.628 17.533 26.162m-21.495-32.045 3.962 5.883m-3.962-5.883 351.56-137.91m-351.56 137.91 351.56-137.91m46.361 251.461 236.635 67.543m355.638 206.315L1195.2 892.88m-123.514-21.455 87.311 159.678m0 0L1195.2 892.88m-123.514-21.455 87.311 159.678m0 0h0m-396.94-447.42 141.988-19.024" transform="matrix(.09959 0 0 -.09959 .197 176.543)"/><path style="stroke:none;fill-rule:nonzero;fill:#c3afc6;fill-opacity:1" d="m69.16 158.863-9.129-42.07 16.059 1.621"/><path style="fill:none;stroke-width:5;stroke-linecap:round;stroke-linejoin:round;stroke:#000;stroke-opacity:1;stroke-miterlimit:10" d="m762.056 583.683 141.988-19.023m-337.32 192.586 34.085-157.285m139.83-380.231 141.362 123.867M692.474 177.525h0m0 0h0m0 0 10.198 8.943m0 0h.039m0 0 298.96 262.012M762.056 583.683l41.302 241.106M692.474 177.525h0m0 0h0m122.18 921.828L924.01 965.6m-109.355 133.752L924.01 965.6m59.58-255.423h0m0 0 88.096 161.248m-88.096-161.248 88.096 161.248M600.809 599.96l91.665-422.436m-91.665 422.436 91.665-422.436m0 0h0M528.95 897.784l135.517 95.587" transform="matrix(.09959 0 0 -.09959 .197 176.543)"/><path style="stroke:none;fill-rule:nonzero;fill:#9c4f6f;fill-opacity:1" d="m42.543 48.691 36.273 23.137-12.445 5.785"/><path style="fill:none;stroke-width:5;stroke-linecap:round;stroke-linejoin:round;stroke:#000;stroke-opacity:1;stroke-miterlimit:10" d="m528.951 897.784 135.517 95.587m-239.262 290.41h0m282.33-53.58 112.257-4.667m-112.258 4.668 112.258-4.668M664.468 993.371l138.89-168.582m-138.89 168.582h0m-239.262 290.41 188.507 61.11m369.876-634.713 40.322 133.36m-40.322-133.36 40.322 133.36m111.551 368.856h0m-315.67 13.14 315.67-13.14m0 0h0m-315.67 13.14 315.67-13.14m-966.66-568.7 360.15 254.09m-360.15-254.09 360.15 254.09m666.247-4.903 99.785-380.702m-99.785 380.702 99.785-380.702m-390.94 52.48 390.94-52.48m-390.94 52.48 390.94-52.48m0 0h0m-505.55 539.282 134.575-85.86m-498.803 318.18h0m0 0 364.228-232.32m234.477-207.923 111.551 368.856m0 0h0m-111.551-368.856 111.551 368.856m0 0h0" transform="matrix(.09959 0 0 -.09959 .197 176.543)"/></svg>