<svg xmlns="http://www.w3.org/2000/svg" width="227.707" height="243.24" viewBox="0 0 170.78 182.43" version="1.2"><defs><clipPath id="a"><path d="M118 0h52.406v101H118Zm0 0"/></clipPath><clipPath id="b"><path d="M116 0h54.406v103H116Zm0 0"/></clipPath><clipPath id="c"><path d="M118 74h52.406v87H118Zm0 0"/></clipPath><clipPath id="d"><path d="M116 71h54.406v92H116Zm0 0"/></clipPath><clipPath id="e"><path d="M.156 104H53v77H.156Zm0 0"/></clipPath><clipPath id="f"><path d="M.156 101H55v80.863H.156Zm0 0"/></clipPath><clipPath id="g"><path d="M.156 15H30v102H.156Zm0 0"/></clipPath><clipPath id="h"><path d="M.156 12H33v108H.156Zm0 0"/></clipPath><clipPath id="i"><path d="M26 113h66v68.863H26Zm0 0"/></clipPath><clipPath id="j"><path d="M49 149h107v32.863H49Zm0 0"/></clipPath><clipPath id="k"><path d="M122 0h48.406v75H122Zm0 0"/></clipPath><clipPath id="l"><path d="M119 0h51.406v78H119Zm0 0"/></clipPath><clipPath id="m"><path d="M152 54h18.406v107H152Zm0 0"/></clipPath><clipPath id="n"><path d="M149 51h21.406v112H149Zm0 0"/></clipPath><clipPath id="o"><path d="M49 142h107v39.863H49Zm0 0"/></clipPath><clipPath id="p"><path d="M.156 15H47v90H.156Zm0 0"/></clipPath><clipPath id="q"><path d="M.156 12H50v95H.156Zm0 0"/></clipPath><clipPath id="r"><path d="M.156 73H53v108H.156Zm0 0"/></clipPath><clipPath id="s"><path d="M.156 70H55v111.863H.156Zm0 0"/></clipPath><clipPath id="t"><path d="M44 70h76v111.863H44Zm0 0"/></clipPath></defs><path style="stroke:none;fill-rule:evenodd;fill:#a36879;fill-opacity:1" d="m65.672 43.813 53.234 56.417L122.641.785 65.67 43.813"/><path style="fill:none;stroke-width:4.88301;stroke-linecap:butt;stroke-linejoin:miter;stroke:#231f20;stroke-opacity:1;stroke-miterlimit:4" d="m657.203 1384.806 534.007-565.942 37.46 997.56Zm0 0" transform="matrix(.09969 0 0 -.09969 .156 181.862)"/><path style="stroke:none;fill-rule:evenodd;fill:#bf9297;fill-opacity:1" d="m65.672 43.813 53.234 56.417-89.242 16.286 36.008-72.704"/><path style="fill:none;stroke-width:4.88301;stroke-linecap:butt;stroke-linejoin:miter;stroke:#231f20;stroke-opacity:1;stroke-miterlimit:4" d="m657.203 1384.806 534.007-565.942L296 655.504Zm0 0" transform="matrix(.09969 0 0 -.09969 .156 181.862)"/><g clip-path="url(#a)"><path style="stroke:none;fill-rule:evenodd;fill:#8c5875;fill-opacity:1" d="m170.05 74.352-51.144 25.878L122.641.785l47.41 73.567"/></g><g clip-path="url(#b)"><path style="fill:none;stroke-width:4.88301;stroke-linecap:butt;stroke-linejoin:miter;stroke:#231f20;stroke-opacity:1;stroke-miterlimit:4" d="M1704.253 1078.461 1191.21 818.864l37.46 997.56Zm0 0" transform="matrix(.09969 0 0 -.09969 .156 181.862)"/></g><g clip-path="url(#c)"><path style="stroke:none;fill-rule:evenodd;fill:#716292;fill-opacity:1" d="m170.05 74.352-51.144 25.878 33.356 59.829 17.789-85.707"/></g><g clip-path="url(#d)"><path style="fill:none;stroke-width:4.88301;stroke-linecap:butt;stroke-linejoin:miter;stroke:#231f20;stroke-opacity:1;stroke-miterlimit:4" d="M1704.253 1078.461 1191.21 818.864l334.597-600.15Zm0 0" transform="matrix(.09969 0 0 -.09969 .156 181.862)"/></g><path style="stroke:none;fill-rule:evenodd;fill:#9891b8;fill-opacity:1" d="m88.262 152.285 30.644-52.055 33.356 59.829-64-7.774"/><path style="fill:none;stroke-width:4.88301;stroke-linecap:butt;stroke-linejoin:miter;stroke:#231f20;stroke-opacity:1;stroke-miterlimit:4" d="m883.807 296.69 307.403 522.174 334.597-600.15Zm0 0" transform="matrix(.09969 0 0 -.09969 .156 181.862)"/><path style="stroke:none;fill-rule:evenodd;fill:#b8a2b4;fill-opacity:1" d="m88.262 152.285 30.644-52.055-89.242 16.286 58.598 35.77"/><path style="fill:none;stroke-width:4.88301;stroke-linecap:butt;stroke-linejoin:miter;stroke:#231f20;stroke-opacity:1;stroke-miterlimit:4" d="m883.807 296.69 307.403 522.174L296 655.504Zm0 0" transform="matrix(.09969 0 0 -.09969 .156 181.862)"/><path style="stroke:none;fill-rule:evenodd;fill:#e09f7c;fill-opacity:1" d="m65.672 43.813-43.434-28.68 7.426 101.383 36.008-72.704"/><path style="fill:none;stroke-width:4.88301;stroke-linecap:butt;stroke-linejoin:miter;stroke:#231f20;stroke-opacity:1;stroke-miterlimit:4" d="M657.203 1384.806 221.51 1672.5 296 655.503Zm0 0" transform="matrix(.09969 0 0 -.09969 .156 181.862)"/><path style="stroke:none;fill-rule:evenodd;fill:#b75b4f;fill-opacity:1" d="M65.672 43.813 122.64.785 22.238 15.133l43.434 28.68"/><path style="fill:none;stroke-width:4.88301;stroke-linecap:butt;stroke-linejoin:miter;stroke:#231f20;stroke-opacity:1;stroke-miterlimit:4" d="m657.203 1384.806 571.467 431.618-1007.16-143.925Zm0 0" transform="matrix(.09969 0 0 -.09969 .156 181.862)"/><g clip-path="url(#e)"><path style="stroke:none;fill-rule:evenodd;fill:#e5f0ba;fill-opacity:1" d="m.816 104.09 51.371 76.906-22.523-64.48L.816 104.09"/></g><g clip-path="url(#f)"><path style="fill:none;stroke-width:4.88301;stroke-linecap:butt;stroke-linejoin:miter;stroke:#231f20;stroke-opacity:1;stroke-miterlimit:4" d="M6.622 780.15 521.938 8.683l-225.939 646.82Zm0 0" transform="matrix(.09969 0 0 -.09969 .156 181.862)"/></g><g clip-path="url(#g)"><path style="stroke:none;fill-rule:evenodd;fill:#f7ba71;fill-opacity:1" d="m.816 104.09 21.422-88.957 7.426 101.383L.816 104.09"/></g><g clip-path="url(#h)"><path style="fill:none;stroke-width:4.88301;stroke-linecap:butt;stroke-linejoin:miter;stroke:#231f20;stroke-opacity:1;stroke-miterlimit:4" d="M6.622 780.15 221.51 1672.5 296 655.502Zm0 0" transform="matrix(.09969 0 0 -.09969 .156 181.862)"/></g><path style="stroke:none;fill-rule:evenodd;fill:#c2c6d6;fill-opacity:1" d="m88.262 152.285-36.075 28.711-22.523-64.48 58.598 35.77"/><g clip-path="url(#i)"><path style="fill:none;stroke-width:4.88301;stroke-linecap:butt;stroke-linejoin:miter;stroke:#231f20;stroke-opacity:1;stroke-miterlimit:4" d="M883.807 296.69 521.937 8.684 296 655.504Zm0 0" transform="matrix(.09969 0 0 -.09969 .156 181.862)"/></g><path style="stroke:none;fill-rule:evenodd;fill:#88abdd;fill-opacity:1" d="m88.262 152.285-36.075 28.711 100.075-20.937-64-7.774"/><g clip-path="url(#j)"><path style="fill:none;stroke-width:4.88301;stroke-linecap:butt;stroke-linejoin:miter;stroke:#231f20;stroke-opacity:1;stroke-miterlimit:4" d="M883.807 296.69 521.937 8.684l1003.87 210.03Zm0 0" transform="matrix(.09969 0 0 -.09969 .156 181.862)"/></g><g clip-path="url(#k)"><path style="stroke:none;fill-rule:evenodd;fill:#231f20;fill-opacity:1" d="M170.05 74.352 122.64.785l38.587 53.332 8.824 20.235"/></g><g clip-path="url(#l)"><path style="fill:none;stroke-width:4.88301;stroke-linecap:butt;stroke-linejoin:miter;stroke:#231f20;stroke-opacity:1;stroke-miterlimit:4" d="m1704.253 1078.461-475.583 737.963 387.065-534.987Zm0 0" transform="matrix(.09969 0 0 -.09969 .156 181.862)"/></g><g clip-path="url(#m)"><path style="stroke:none;fill-rule:evenodd;fill:#e7a532;fill-opacity:1" d="m170.05 74.352-8.823-20.235-8.965 105.942 17.789-85.707"/></g><g clip-path="url(#n)"><path style="fill:none;stroke-width:4.88301;stroke-linecap:butt;stroke-linejoin:miter;stroke:#231f20;stroke-opacity:1;stroke-miterlimit:4" d="m1704.253 1078.461-88.518 202.976-89.928-1062.724Zm0 0" transform="matrix(.09969 0 0 -.09969 .156 181.862)"/></g><path style="stroke:none;fill-rule:evenodd;fill:#bbd9e9;fill-opacity:1" d="M88.262 13.629 122.64.785l38.586 53.332L88.262 13.63"/><path style="fill:none;stroke-width:4.88301;stroke-linecap:butt;stroke-linejoin:miter;stroke:#231f20;stroke-opacity:1;stroke-miterlimit:4" d="m883.807 1687.585 344.863 128.839 387.065-534.987Zm0 0" transform="matrix(.09969 0 0 -.09969 .156 181.862)"/><path style="stroke:none;fill-rule:evenodd;fill:#4090ca;fill-opacity:1" d="M88.262 13.629 122.64.785 22.238 15.133l66.024-1.504"/><path style="fill:none;stroke-width:4.88301;stroke-linecap:butt;stroke-linejoin:miter;stroke:#231f20;stroke-opacity:1;stroke-miterlimit:4" d="m883.807 1687.585 344.863 128.839-1007.16-143.925Zm0 0" transform="matrix(.09969 0 0 -.09969 .156 181.862)"/><path style="stroke:none;fill-rule:evenodd;fill:#a7382a;fill-opacity:1" d="m116.574 145.008-64.386 35.988 100.074-20.937-35.688-15.051"/><g clip-path="url(#o)"><path style="fill:none;stroke-width:4.88301;stroke-linecap:butt;stroke-linejoin:miter;stroke:#231f20;stroke-opacity:1;stroke-miterlimit:4" d="M1167.817 369.691 521.937 8.684l1003.87 210.03Zm0 0" transform="matrix(.09969 0 0 -.09969 .156 181.862)"/></g><path style="stroke:none;fill-rule:evenodd;fill:#eba064;fill-opacity:1" d="m116.574 145.008 44.653-90.89-8.965 105.94-35.688-15.05"/><path style="fill:none;stroke-width:4.88301;stroke-linecap:butt;stroke-linejoin:miter;stroke:#231f20;stroke-opacity:1;stroke-miterlimit:4" d="m1167.817 369.691 447.918 911.746-89.928-1062.724Zm0 0" transform="matrix(.09969 0 0 -.09969 .156 181.862)"/><g clip-path="url(#p)"><path style="stroke:none;fill-rule:evenodd;fill:#4a4e86;fill-opacity:1" d="M.816 104.09 46.898 73.19l-24.66-58.058L.816 104.09"/></g><g clip-path="url(#q)"><path style="fill:none;stroke-width:4.88301;stroke-linecap:butt;stroke-linejoin:miter;stroke:#231f20;stroke-opacity:1;stroke-miterlimit:4" d="m6.622 780.15 462.26 309.95-247.372 582.4Zm0 0" transform="matrix(.09969 0 0 -.09969 .156 181.862)"/></g><path style="stroke:none;fill-rule:evenodd;fill:#868fc0;fill-opacity:1" d="M88.262 13.629 46.898 73.19l-24.66-58.058 66.024-1.504"/><path style="fill:none;stroke-width:4.88301;stroke-linecap:butt;stroke-linejoin:miter;stroke:#231f20;stroke-opacity:1;stroke-miterlimit:4" d="M883.807 1687.585 468.882 1090.1 221.51 1672.5Zm0 0" transform="matrix(.09969 0 0 -.09969 .156 181.862)"/><g clip-path="url(#r)"><path style="stroke:none;fill-rule:evenodd;fill:#7a4467;fill-opacity:1" d="m.816 104.09 51.371 76.906-5.289-107.805L.816 104.09"/></g><g clip-path="url(#s)"><path style="fill:none;stroke-width:4.88301;stroke-linecap:butt;stroke-linejoin:miter;stroke:#231f20;stroke-opacity:1;stroke-miterlimit:4" d="M6.622 780.15 521.938 8.683l-53.056 1081.415Zm0 0" transform="matrix(.09969 0 0 -.09969 .156 181.862)"/></g><path style="stroke:none;fill-rule:evenodd;fill:#9b5c6e;fill-opacity:1" d="m116.574 145.008-64.386 35.988-5.29-107.805 69.676 71.817"/><g clip-path="url(#t)"><path style="fill:none;stroke-width:4.88301;stroke-linecap:butt;stroke-linejoin:miter;stroke:#231f20;stroke-opacity:1;stroke-miterlimit:4" d="M1167.817 369.691 521.937 8.684l-53.055 1081.415Zm0 0" transform="matrix(.09969 0 0 -.09969 .156 181.862)"/></g><path style="stroke:none;fill-rule:evenodd;fill:#b8a9bd;fill-opacity:1" d="M88.262 13.629 46.898 73.19l114.329-19.074L88.262 13.63"/><path style="fill:none;stroke-width:4.88301;stroke-linecap:butt;stroke-linejoin:miter;stroke:#231f20;stroke-opacity:1;stroke-miterlimit:4" d="M883.807 1687.585 468.882 1090.1l1146.853 191.338Zm0 0" transform="matrix(.09969 0 0 -.09969 .156 181.862)"/><path style="stroke:none;fill-rule:evenodd;fill:#c29496;fill-opacity:1" d="M116.574 145.008 46.898 73.19l114.329-19.074-44.653 90.89"/><path style="fill:none;stroke-width:4.88301;stroke-linecap:butt;stroke-linejoin:miter;stroke:#231f20;stroke-opacity:1;stroke-miterlimit:4" d="M1167.817 369.691 468.882 1090.1l1146.853 191.338Zm0 0" transform="matrix(.09969 0 0 -.09969 .156 181.862)"/></svg>