<svg xmlns="http://www.w3.org/2000/svg" width="149.84" height="176.027" viewBox="0 0 112.38 132.02" version="1.2"><defs><clipPath id="a"><path d="M.105 47H111.66v84H.105Zm0 0"/></clipPath><clipPath id="b"><path d="M.105 45H111.66v86.047H.105Zm0 0"/></clipPath><clipPath id="c"><path d="M.105 0H103v87H.105Zm0 0"/></clipPath><clipPath id="d"><path d="M.105 0H105v89H.105Zm0 0"/></clipPath><clipPath id="e"><path d="M69 0h42.66v131H69Zm0 0"/></clipPath><clipPath id="f"><path d="M67 0h44.66v131.047H67Zm0 0"/></clipPath><clipPath id="g"><path d="M.105 0H111.66v131H.105Zm0 0"/></clipPath><clipPath id="h"><path d="M.105 0H111.66v131.047H.105Zm0 0"/></clipPath></defs><g clip-path="url(#a)"><path style="stroke:none;fill-rule:evenodd;fill:#b3b5d4;fill-opacity:1" d="m102.117 47.402 9.227 83.313L.707 86.465l101.41-39.063"/></g><g clip-path="url(#b)"><path style="fill:none;stroke-width:3.906;stroke-linecap:butt;stroke-linejoin:miter;stroke:#231f20;stroke-opacity:1;stroke-miterlimit:4" d="m1027.681 842.658 92.95-839.31L6.052 449.133Zm0 0" transform="matrix(.09926 0 0 -.09926 .106 131.047)"/></g><g clip-path="url(#c)"><path style="stroke:none;fill-rule:evenodd;fill:#cf8360;fill-opacity:1" d="m69.918.406 32.2 46.996L.706 86.465 69.918.406"/></g><g clip-path="url(#d)"><path style="fill:none;stroke-width:3.906;stroke-linecap:butt;stroke-linejoin:miter;stroke:#231f20;stroke-opacity:1;stroke-miterlimit:4" d="m703.299 1316.107 324.382-473.45L6.051 449.134Zm0 0" transform="matrix(.09926 0 0 -.09926 .106 131.047)"/></g><g clip-path="url(#e)"><path style="stroke:none;fill-rule:evenodd;fill:#efe58b;fill-opacity:1" d="m69.918.406 41.426 130.309-9.227-83.313L69.918.406"/></g><g clip-path="url(#f)"><path style="fill:none;stroke-width:3.906;stroke-linecap:butt;stroke-linejoin:miter;stroke:#231f20;stroke-opacity:1;stroke-miterlimit:4" d="M703.299 1316.107 1120.632 3.348l-92.95 839.31Zm0 0" transform="matrix(.09926 0 0 -.09926 .106 131.047)"/></g><g clip-path="url(#g)"><path style="stroke:none;fill-rule:evenodd;fill:#a3879c;fill-opacity:1" d="M69.918.406.707 86.465l110.637 44.25L69.918.406"/></g><g clip-path="url(#h)"><path style="fill:none;stroke-width:3.906;stroke-linecap:butt;stroke-linejoin:miter;stroke:#231f20;stroke-opacity:1;stroke-miterlimit:4" d="M703.299 1316.107 6.052 449.133 1120.632 3.348Zm0 0" transform="matrix(.09926 0 0 -.09926 .106 131.047)"/></g></svg>