<svg width="560" height="600" xmlns="http://www.w3.org/2000/svg"><g stroke="#000" stroke-linecap="round" stroke-linejoin="round"><path d="m49.07 121.11 191.5 110.56V10.55z" fill="#d0b3d0"/><path d="M49.07 121.11 9.6 189.463l54.526 42.23z" fill="#ac4f39"/><path d="m9.6 189.46-.002 221.1 54.478-42.205 9.354-68.353-9.304-68.313z" fill="#ffe6a5"/><path d="m73.43 300.01 167.14 68.326 39.45-68.325z" fill="#ac4f39"/><path d="m280.02 300.01-39.45-68.345-167.14 68.344z" fill="#7feafb"/><path d="M240.57 231.66V10.55l142.72 110.56z" fill="#ffe6a5"/><path d="m240.57 10.55 88.196 68.327-9.313-68.334z" fill="#3232a3"/><path d="m383.29 121.11-54.52-42.239-9.313-68.334 191.49 110.56-63.839 26.097z" fill="#76b5ff"/><path d="m447.11 147.2 103.3 42.248-39.46-68.345z" fill="#7feafb"/><path d="m280.02 300.01 103.27-178.89-142.72 110.56z" fill="#e0ffbf"/><path d="m280.02 300.01 78.879-.014 24.391-178.88z" fill="#356b35"/><path d="m358.9 299.99 191.51-110.54-167.12-68.336z" fill="#753451"/><path d="M240.57 368.33 383.29 478.9 280.02 300.01z" fill="#da6d32"/><path d="M280.02 300.01 383.29 478.9l-24.395-178.91z" fill="#3232a3"/><path d="m358.9 299.99 191.51 110.58-167.12 68.331z" fill="#76b5ff"/><path d="m358.91 300 191.5 110.57-.004-221.12z" fill="#d0b3d0"/><path d="m550.41 410.57-39.468 68.346-63.831-26.102z" fill="#ac4f39"/><path d="m240.55 589.47 88.206-68.328-9.302 68.318z" fill="#356b35"/><path d="m319.45 589.46 191.49-110.54-63.831-26.102-63.825 26.087-54.531 42.241z" fill="#753451"/><path d="M383.29 478.9 240.57 368.34l-.02 221.13z" fill="#ffe6a5"/><path d="M240.57 368.33 49.05 478.9l191.5 110.57z" fill="#d0b3d0"/><path d="m9.598 410.56 39.454 68.336 15.024-110.54z" fill="#e0ffbf"/><path d="M73.43 300.01 49.052 478.9l191.52-110.57z" fill="#753451"/><path d="m49.07 121.11 24.36 178.9 167.14-68.347z" fill="#76b5ff"/></g><g fill="none" stroke="#000" stroke-linecap="round" stroke-linejoin="round" stroke-width=".7"><path d="m73.43 300.01 182.2-42.25 127.66-136.64-142.72 26.079-191.5-26.083 127.66 136.65 103.29 42.244 15.061-110.59L240.57 10.54l-73.153 178.87z"/><path d="m311.91 65.82 7.545-55.276 63.835 110.57 127.66-.009-44.114 34.167"/><path d="m383.29 121.11-54.514 178.9L383.29 478.9l48.765-136.65 118.36-152.8-182.18 42.229-88.205 68.328 88.214 68.331 182.18 42.231-118.35-152.79z"/><path d="m466.85 444.74 44.096 34.175-127.66-.015-63.836 110.56-7.54-55.275"/><path d="M383.29 478.9 255.62 342.24 73.43 300.006l93.951 110.56 73.169 178.9 54.508-178.9-15.038-110.56-103.31 42.229-127.66 136.66 191.52-26.1z"/><path d="M61.24 389.46 9.598 410.564l63.832-110.56L9.6 189.464l51.639 21.097"/></g></svg>