<svg xmlns="http://www.w3.org/2000/svg" width="245.92" height="252.493" viewBox="0 0 184.44 189.37" version="1.2"><defs><clipPath id="a"><path d="M114 12h69.855v53H114Zm0 0"/></clipPath><clipPath id="b"><path d="M137 50h46.855v39H137Zm0 0"/></clipPath><clipPath id="c"><path d="M136 50h47.855v40H136Zm0 0"/></clipPath><clipPath id="d"><path d="M.027 48H41v64H.027Zm0 0"/></clipPath><clipPath id="e"><path d="M.027 19H54v58H.027Zm0 0"/></clipPath><clipPath id="f"><path d="M.027 19H54v59H.027Zm0 0"/></clipPath><clipPath id="g"><path d="M114 0h69.855v51H114Zm0 0"/></clipPath><clipPath id="h"><path d="M53 153h59v35.742H53Zm0 0"/></clipPath><clipPath id="i"><path d="M53 152h60v36.742H53Zm0 0"/></clipPath><clipPath id="j"><path d="M102 146h55v42.742h-55Zm0 0"/></clipPath><clipPath id="k"><path d="M101 146h57v42.742h-57Zm0 0"/></clipPath><clipPath id="l"><path d="M.027 13H54v36H.027Zm0 0"/></clipPath><clipPath id="m"><path d="M.027 13H54v37H.027Zm0 0"/></clipPath><clipPath id="n"><path d="M163 50h20.855v39H163Zm0 0"/></clipPath><clipPath id="o"><path d="M162 50h21.855v40H162Zm0 0"/></clipPath><clipPath id="p"><path d="M.027 48H15v64H.027Zm0 0"/></clipPath><clipPath id="q"><path d="M.027 13H35v61H.027Zm0 0"/></clipPath><clipPath id="r"><path d="M.027 13H36v61H.027Zm0 0"/></clipPath><clipPath id="s"><path d="M111 146h46v42.742h-46Zm0 0"/></clipPath><clipPath id="t"><path d="M111 146h47v42.742h-47Zm0 0"/></clipPath><clipPath id="u"><path d="M53 159h59v29.742H53Zm0 0"/></clipPath><clipPath id="v"><path d="M53 159h60v29.742H53Zm0 0"/></clipPath><clipPath id="w"><path d="M77 149h69v39.742H77Zm0 0"/></clipPath><clipPath id="x"><path d="M76 149h71v39.742H76Zm0 0"/></clipPath><clipPath id="y"><path d="M141 0h42.855v51H141Zm0 0"/></clipPath><clipPath id="z"><path d="M140 0h43.855v51H140Zm0 0"/></clipPath><clipPath id="A"><path d="M157 15h26.855v72H157Zm0 0"/></clipPath><clipPath id="B"><path d="M157 15h26.855v73H157Zm0 0"/></clipPath></defs><path style="stroke:none;fill-rule:nonzero;fill:#9b96cc;fill-opacity:1" d="m92.258 102.61 44.945-38.54 19.488 82.395"/><path style="fill:none;stroke-width:6.86001;stroke-linecap:round;stroke-linejoin:round;stroke:#231f20;stroke-opacity:1;stroke-miterlimit:10" d="m925.38 864.193 450.948 386.672" transform="matrix(.09967 0 0 -.09967 .027 188.742)"/><path style="fill-rule:nonzero;fill:#9b96cc;fill-opacity:1;stroke-width:6.86001;stroke-linecap:round;stroke-linejoin:round;stroke:#231f20;stroke-opacity:1;stroke-miterlimit:10" d="m1571.859 424.179-548.303-68.156-98.177 508.17" transform="matrix(.09967 0 0 -.09967 .027 188.742)"/><path style="fill-rule:nonzero;fill:#cbc2d4;fill-opacity:1;stroke-width:6.86001;stroke-linecap:round;stroke-linejoin:round;stroke:#231f20;stroke-opacity:1;stroke-miterlimit:10" d="m925.38 864.193 98.176-508.17L538.12 278.07" transform="matrix(.09967 0 0 -.09967 .027 188.742)"/><path style="stroke:none;fill-rule:nonzero;fill:#cbc2d4;fill-opacity:1" d="m40.61 76.828 51.648 25.781-38.598 58.418"/><path style="fill:none;stroke-width:6.86001;stroke-linecap:round;stroke-linejoin:round;stroke:#231f20;stroke-opacity:1;stroke-miterlimit:10" d="m407.177 1122.863 518.202-258.67" transform="matrix(.09967 0 0 -.09967 .027 188.742)"/><path style="stroke:none;fill-rule:nonzero;fill:#bb92b2;fill-opacity:1" d="M92.258 102.61 40.609 76.827l73.871-64.59"/><path style="fill:none;stroke-width:6.86001;stroke-linecap:round;stroke-linejoin:round;stroke:#231f20;stroke-opacity:1;stroke-miterlimit:10" d="m925.38 864.193-518.203 258.67" transform="matrix(.09967 0 0 -.09967 .027 188.742)"/><path style="fill-rule:nonzero;fill:#bb92b2;fill-opacity:1;stroke-width:6.86001;stroke-linecap:round;stroke-linejoin:round;stroke:#231f20;stroke-opacity:1;stroke-miterlimit:10" d="m1148.345 1770.91 227.983-520.045-450.949-386.672" transform="matrix(.09967 0 0 -.09967 .027 188.742)"/><path style="fill-rule:nonzero;fill:#9b96cc;fill-opacity:1;stroke-width:6.86001;stroke-linecap:round;stroke-linejoin:round;stroke:#231f20;stroke-opacity:1;stroke-miterlimit:10" d="m1376.328 1250.865 413.872-248.284L1571.86 424.18" transform="matrix(.09967 0 0 -.09967 .027 188.742)"/><g clip-path="url(#a)"><path style="stroke:none;fill-rule:nonzero;fill:#764a91;fill-opacity:1" d="M137.203 64.07 114.48 12.238l69.036 38.242"/></g><path style="fill:none;stroke-width:6.86001;stroke-linecap:round;stroke-linejoin:round;stroke:#231f20;stroke-opacity:1;stroke-miterlimit:10" d="m1376.328 1250.865-227.983 520.045" transform="matrix(.09967 0 0 -.09967 .027 188.742)"/><g clip-path="url(#b)"><path style="stroke:none;fill-rule:nonzero;fill:#764a91;fill-opacity:1" d="m183.516 50.48-5.063 38.336-41.25-24.746"/></g><g clip-path="url(#c)"><path style="fill:none;stroke-width:6.86001;stroke-linecap:round;stroke-linejoin:round;stroke:#231f20;stroke-opacity:1;stroke-miterlimit:10" d="M1840.993 1387.216 1790.2 1002.58l-413.872 248.284" transform="matrix(.09967 0 0 -.09967 .027 188.742)"/></g><g clip-path="url(#d)"><path style="stroke:none;fill-rule:nonzero;fill:#dcc2c2;fill-opacity:1" d="M.367 48.906 40.61 76.828l-26.457 34.227L.367 48.906"/><path style="fill:none;stroke-width:6.86001;stroke-linecap:round;stroke-linejoin:round;stroke:#231f20;stroke-opacity:1;stroke-miterlimit:10" d="m3.416 1403.01 403.76-280.147-265.45-343.404Zm0 0" transform="matrix(.09967 0 0 -.09967 .027 188.742)"/></g><g clip-path="url(#e)"><path style="stroke:none;fill-rule:nonzero;fill:#cc9ba9;fill-opacity:1" d="M.367 48.906 53.164 19.97 40.61 76.829.367 48.905"/></g><g clip-path="url(#f)"><path style="fill:none;stroke-width:6.86001;stroke-linecap:round;stroke-linejoin:round;stroke:#231f20;stroke-opacity:1;stroke-miterlimit:10" d="m3.416 1403.01 529.725 290.338-125.964-570.485Zm0 0" transform="matrix(.09967 0 0 -.09967 .027 188.742)"/></g><path style="fill-rule:nonzero;fill:#cbc2d4;fill-opacity:1;stroke-width:6.86001;stroke-linecap:round;stroke-linejoin:round;stroke:#231f20;stroke-opacity:1;stroke-miterlimit:10" d="M538.119 278.07 141.726 779.458l265.45 343.404" transform="matrix(.09967 0 0 -.09967 .027 188.742)"/><path style="fill-rule:nonzero;fill:#bb92b2;fill-opacity:1;stroke-width:6.86001;stroke-linecap:round;stroke-linejoin:round;stroke:#231f20;stroke-opacity:1;stroke-miterlimit:10" d="m407.177 1122.863 125.964 570.485 615.204 77.562" transform="matrix(.09967 0 0 -.09967 .027 188.742)"/><g clip-path="url(#g)"><path style="fill-rule:nonzero;fill:#764a91;fill-opacity:1;stroke-width:6.86001;stroke-linecap:round;stroke-linejoin:round;stroke:#231f20;stroke-opacity:1;stroke-miterlimit:10" d="m1148.345 1770.91 267.802 119.38 424.846-503.074" transform="matrix(.09967 0 0 -.09967 .027 188.742)"/></g><path style="stroke:none;fill-rule:nonzero;fill:#822023;fill-opacity:1" d="m114.48 12.238-61.316 7.73L91.367.626"/><path style="fill:none;stroke-width:6.86001;stroke-linecap:round;stroke-linejoin:round;stroke:#231f20;stroke-opacity:1;stroke-miterlimit:10" d="m1148.345 1770.91-615.204-77.562" transform="matrix(.09967 0 0 -.09967 .027 188.742)"/><path style="fill-rule:nonzero;fill:#822023;fill-opacity:1;stroke-width:6.86001;stroke-linecap:round;stroke-linejoin:round;stroke:#231f20;stroke-opacity:1;stroke-miterlimit:10" d="m916.444 1887.43 499.703 2.86-267.802-119.38" transform="matrix(.09967 0 0 -.09967 .027 188.742)"/><g clip-path="url(#h)"><path style="stroke:none;fill-rule:nonzero;fill:#bcd1e8;fill-opacity:1" d="m102.043 153.258 9.836 35.14-58.219-27.37 48.383-7.77"/></g><g clip-path="url(#i)"><path style="fill:none;stroke-width:6.86001;stroke-linecap:round;stroke-linejoin:round;stroke:#231f20;stroke-opacity:1;stroke-miterlimit:10" d="m1023.556 356.023 98.687-352.575L538.12 278.069Zm0 0" transform="matrix(.09967 0 0 -.09967 .027 188.742)"/></g><g clip-path="url(#j)"><path style="stroke:none;fill-rule:nonzero;fill:#91a7da;fill-opacity:1" d="m111.879 188.398-9.836-35.14 54.648-6.793-44.812 41.933"/></g><g clip-path="url(#k)"><path style="fill:none;stroke-width:6.86001;stroke-linecap:round;stroke-linejoin:round;stroke:#231f20;stroke-opacity:1;stroke-miterlimit:10" d="m1122.243 3.448-98.687 352.575 548.303 68.156Zm0 0" transform="matrix(.09967 0 0 -.09967 .027 188.742)"/></g><g clip-path="url(#l)"><path style="stroke:none;fill-rule:nonzero;fill:#c86339;fill-opacity:1" d="m.367 48.906 34.488-35.254 18.31 6.317L.366 48.906"/></g><g clip-path="url(#m)"><path style="fill:none;stroke-width:6.86001;stroke-linecap:round;stroke-linejoin:round;stroke:#231f20;stroke-opacity:1;stroke-miterlimit:10" d="m3.416 1403.01 346.03 353.712 183.695-63.374Zm0 0" transform="matrix(.09967 0 0 -.09967 .027 188.742)"/></g><path style="fill-rule:nonzero;fill:#822023;fill-opacity:1;stroke-width:6.86001;stroke-linecap:round;stroke-linejoin:round;stroke:#231f20;stroke-opacity:1;stroke-miterlimit:10" d="m533.141 1693.348-183.695 63.374 566.998 130.707" transform="matrix(.09967 0 0 -.09967 .027 188.742)"/><path style="fill-rule:nonzero;fill:#eba13d;fill-opacity:1;stroke-width:6.86001;stroke-linecap:round;stroke-linejoin:round;stroke:#231f20;stroke-opacity:1;stroke-miterlimit:10" d="m1462.08 391.728 109.779 32.45 218.341 578.403" transform="matrix(.09967 0 0 -.09967 .027 188.742)"/><path style="stroke:none;fill-rule:nonzero;fill:#eba13d;fill-opacity:1" d="m163.05 86.79-17.3 62.91 32.703-60.884"/><path style="fill:none;stroke-width:6.86001;stroke-linecap:round;stroke-linejoin:round;stroke:#231f20;stroke-opacity:1;stroke-miterlimit:10" d="m1635.664 1022.922-173.583-631.194" transform="matrix(.09967 0 0 -.09967 .027 188.742)"/><g clip-path="url(#n)"><path style="stroke:none;fill-rule:nonzero;fill:#eba13d;fill-opacity:1" d="m178.453 88.816 5.063-38.336-20.465 36.31"/></g><g clip-path="url(#o)"><path style="fill:none;stroke-width:6.86001;stroke-linecap:round;stroke-linejoin:round;stroke:#231f20;stroke-opacity:1;stroke-miterlimit:10" d="m1790.2 1002.581 50.793 384.635-205.329-364.294" transform="matrix(.09967 0 0 -.09967 .027 188.742)"/></g><g clip-path="url(#p)"><path style="stroke:none;fill-rule:nonzero;fill:#252021;fill-opacity:1" d="m8.84 73.406-8.473-24.5 13.785 62.149L8.84 73.406"/><path style="fill:none;stroke-width:6.86001;stroke-linecap:round;stroke-linejoin:round;stroke:#231f20;stroke-opacity:1;stroke-miterlimit:10" d="M88.425 1157.195 3.416 1403.01l138.31-623.551Zm0 0" transform="matrix(.09967 0 0 -.09967 .027 188.742)"/></g><g clip-path="url(#q)"><path style="stroke:none;fill-rule:nonzero;fill:#4070c0;fill-opacity:1" d="m.367 48.906 8.473 24.5 26.015-59.754L.367 48.906"/></g><g clip-path="url(#r)"><path style="fill:none;stroke-width:6.86001;stroke-linecap:round;stroke-linejoin:round;stroke:#231f20;stroke-opacity:1;stroke-miterlimit:10" d="m3.416 1403.01 85.009-245.815 261.021 599.527Zm0 0" transform="matrix(.09967 0 0 -.09967 .027 188.742)"/></g><path style="fill-rule:nonzero;fill:#552973;fill-opacity:1;stroke-width:6.86001;stroke-linecap:round;stroke-linejoin:round;stroke:#231f20;stroke-opacity:1;stroke-miterlimit:10" d="m490.265 868.386-401.84 288.81 53.301-377.737" transform="matrix(.09967 0 0 -.09967 .027 188.742)"/><path style="stroke:none;fill-rule:nonzero;fill:#552973;fill-opacity:1" d="M77.332 159.383 48.891 102.19l-34.739 8.864"/><path style="fill:none;stroke-width:6.86001;stroke-linecap:round;stroke-linejoin:round;stroke:#231f20;stroke-opacity:1;stroke-miterlimit:10" d="m775.625 294.57-285.36 573.816" transform="matrix(.09967 0 0 -.09967 .027 188.742)"/><path style="fill-rule:nonzero;fill:#552973;fill-opacity:1;stroke-width:6.86001;stroke-linecap:round;stroke-linejoin:round;stroke:#231f20;stroke-opacity:1;stroke-miterlimit:10" d="m141.726 779.459 396.393-501.39 237.506 16.5" transform="matrix(.09967 0 0 -.09967 .027 188.742)"/><g clip-path="url(#s)"><path style="stroke:none;fill-rule:nonzero;fill:#b74828;fill-opacity:1" d="m111.879 188.398 44.812-41.933-10.941 3.234-33.871 38.7"/></g><g clip-path="url(#t)"><path style="fill:none;stroke-width:6.86001;stroke-linecap:round;stroke-linejoin:round;stroke:#231f20;stroke-opacity:1;stroke-miterlimit:10" d="m1122.243 3.448 449.616 420.73-109.778-32.45Zm0 0" transform="matrix(.09967 0 0 -.09967 .027 188.742)"/></g><g clip-path="url(#u)"><path style="stroke:none;fill-rule:nonzero;fill:#4a1118;fill-opacity:1" d="m111.879 188.398-34.547-29.015-23.672 1.644 58.219 27.371"/></g><g clip-path="url(#v)"><path style="fill:none;stroke-width:6.86001;stroke-linecap:round;stroke-linejoin:round;stroke:#231f20;stroke-opacity:1;stroke-miterlimit:10" d="M1122.243 3.448 775.625 294.569l-237.506-16.5Zm0 0" transform="matrix(.09967 0 0 -.09967 .027 188.742)"/></g><g clip-path="url(#w)"><path style="stroke:none;fill-rule:nonzero;fill:#ba7589;fill-opacity:1" d="M111.879 188.398 145.75 149.7l-68.418 9.684 34.547 29.015"/></g><g clip-path="url(#x)"><path style="fill:none;stroke-width:6.86001;stroke-linecap:round;stroke-linejoin:round;stroke:#231f20;stroke-opacity:1;stroke-miterlimit:10" d="m1122.243 3.448 339.838 388.28-686.456-97.159Zm0 0" transform="matrix(.09967 0 0 -.09967 .027 188.742)"/></g><g clip-path="url(#y)"><path style="stroke:none;fill-rule:nonzero;fill:#231f20;fill-opacity:1" d="m141.172.34 16.336 15.5 26.008 34.64L141.172.34"/></g><g clip-path="url(#z)"><path style="fill:none;stroke-width:6.86001;stroke-linecap:round;stroke-linejoin:round;stroke:#231f20;stroke-opacity:1;stroke-miterlimit:10" d="m1416.147 1890.29 163.903-155.515 260.943-347.56Zm0 0" transform="matrix(.09967 0 0 -.09967 .027 188.742)"/></g><path style="stroke:none;fill-rule:nonzero;fill:#8ddaf8;fill-opacity:1" d="M157.508 15.84 141.172.34 91.367.625l66.14 15.215"/><path style="fill:none;stroke-width:6.86001;stroke-linecap:round;stroke-linejoin:round;stroke:#231f20;stroke-opacity:1;stroke-miterlimit:10" d="m1580.05 1734.775-163.903 155.515-499.703-2.86Zm0 0" transform="matrix(.09967 0 0 -.09967 .027 188.742)"/><path style="fill-rule:nonzero;fill:#9395cd;fill-opacity:1;stroke-width:6.86001;stroke-linecap:round;stroke-linejoin:round;stroke:#231f20;stroke-opacity:1;stroke-miterlimit:10" d="m1031.67 1337.56-115.226 549.87-566.998-130.708" transform="matrix(.09967 0 0 -.09967 .027 188.742)"/><path style="stroke:none;fill-rule:nonzero;fill:#9395cd;fill-opacity:1" d="m48.89 102.191 53.962-46.761-67.997-41.778"/><path style="fill:none;stroke-width:6.86001;stroke-linecap:round;stroke-linejoin:round;stroke:#231f20;stroke-opacity:1;stroke-miterlimit:10" d="m490.265 868.386 541.404 469.173" transform="matrix(.09967 0 0 -.09967 .027 188.742)"/><path style="fill-rule:nonzero;fill:#9395cd;fill-opacity:1;stroke-width:6.86001;stroke-linecap:round;stroke-linejoin:round;stroke:#231f20;stroke-opacity:1;stroke-miterlimit:10" d="M349.446 1756.722 88.425 1157.195l401.84-288.809" transform="matrix(.09967 0 0 -.09967 .027 188.742)"/><g clip-path="url(#A)"><path style="stroke:none;fill-rule:nonzero;fill:#eecbab;fill-opacity:1" d="m157.508 15.84 5.543 70.95 20.465-36.31-26.008-34.64"/></g><g clip-path="url(#B)"><path style="fill:none;stroke-width:6.86001;stroke-linecap:round;stroke-linejoin:round;stroke:#231f20;stroke-opacity:1;stroke-miterlimit:10" d="m1580.05 1734.775 55.614-711.853 205.33 364.294Zm0 0" transform="matrix(.09967 0 0 -.09967 .027 188.742)"/></g><path style="fill-rule:nonzero;fill:#bc8fae;fill-opacity:1;stroke-width:6.86001;stroke-linecap:round;stroke-linejoin:round;stroke:#231f20;stroke-opacity:1;stroke-miterlimit:10" d="m775.625 294.57 686.456 97.158 173.583 631.194" transform="matrix(.09967 0 0 -.09967 .027 188.742)"/><path style="stroke:none;fill-rule:nonzero;fill:#aeaddc;fill-opacity:1" d="M157.508 15.84 91.368.625l11.484 54.805 54.656-39.59"/><path style="fill:none;stroke-width:6.86001;stroke-linecap:round;stroke-linejoin:round;stroke:#231f20;stroke-opacity:1;stroke-miterlimit:10" d="m1580.05 1734.775-663.606 152.654 115.225-549.87Zm0 0" transform="matrix(.09967 0 0 -.09967 .027 188.742)"/><path style="fill-rule:nonzero;fill:#bc8fae;fill-opacity:1;stroke-width:6.86001;stroke-linecap:round;stroke-linejoin:round;stroke:#231f20;stroke-opacity:1;stroke-miterlimit:10" d="M1031.67 1337.56 490.264 868.385l285.36-573.817" transform="matrix(.09967 0 0 -.09967 .027 188.742)"/><path style="stroke:none;fill-rule:nonzero;fill:#bc8fae;fill-opacity:1" d="m163.05 86.79-60.198-31.36-25.52 103.953"/><path style="fill:none;stroke-width:6.86001;stroke-linecap:round;stroke-linejoin:round;stroke:#231f20;stroke-opacity:1;stroke-miterlimit:10" d="M1635.664 1022.922 1031.67 1337.56" transform="matrix(.09967 0 0 -.09967 .027 188.742)"/><path style="stroke:none;fill-rule:nonzero;fill:#c4a5bf;fill-opacity:1" d="m157.508 15.84-54.656 39.59 60.199 31.36-5.543-70.95"/><path style="fill:none;stroke-width:6.86001;stroke-linecap:round;stroke-linejoin:round;stroke:#231f20;stroke-opacity:1;stroke-miterlimit:10" d="m1580.05 1734.775-548.38-397.216 603.994-314.637Zm0 0" transform="matrix(.09967 0 0 -.09967 .027 188.742)"/></svg>