<svg xmlns="http://www.w3.org/2000/svg" width="186.453" height="204.093" viewBox="0 0 139.84 153.07" version="1.2"><defs><clipPath id="a"><path d="M.344 0H73v91H.344Zm0 0"/></clipPath><clipPath id="b"><path d="M.344 0H73v92H.344Zm0 0"/></clipPath><clipPath id="c"><path d="M.344 51H73v101H.344Zm0 0"/></clipPath><clipPath id="d"><path d="M.344 51H73v101.145H.344Zm0 0"/></clipPath><clipPath id="e"><path d="M14 90h117v62.145H14Zm0 0"/></clipPath><clipPath id="f"><path d="M70 0h69.34v150H70Zm0 0"/></clipPath><clipPath id="g"><path d="M.344 0H139.34v52H.344Zm0 0"/></clipPath><clipPath id="h"><path d="M.344 0H139.34v53H.344Zm0 0"/></clipPath><clipPath id="i"><path d="M14 50h125.34v102H14Zm0 0"/></clipPath><clipPath id="j"><path d="M14 49h125.34v103.145H14Zm0 0"/></clipPath><clipPath id="k"><path d="M.344 50H139.34v102H.344Zm0 0"/></clipPath><clipPath id="l"><path d="M.344 49H139.34v103.145H.344Zm0 0"/></clipPath></defs><g clip-path="url(#a)"><path style="stroke:none;fill-rule:nonzero;fill:#efa475;fill-opacity:1" d="M.59 51.98 70.477.254l2.18 90.695"/></g><g clip-path="url(#b)"><path style="fill:none;stroke-width:5;stroke-linecap:round;stroke-linejoin:round;stroke:#231f20;stroke-opacity:1;stroke-miterlimit:10" d="M2.486 1007.737 705.6 1528.146l21.93-912.464" transform="matrix(.0994 0 0 -.0994 .343 152.146)"/></g><g clip-path="url(#c)"><path style="stroke:none;fill-rule:nonzero;fill:#efa475;fill-opacity:1" d="m72.656 90.95-58.18 60.948L.59 51.98"/></g><g clip-path="url(#d)"><path style="fill:none;stroke-width:5;stroke-linecap:round;stroke-linejoin:round;stroke:#231f20;stroke-opacity:1;stroke-miterlimit:10" d="M727.529 615.682 142.197 2.487 2.487 1007.737" transform="matrix(.0994 0 0 -.0994 .343 152.146)"/></g><path style="fill-rule:nonzero;fill:#442a80;fill-opacity:1;stroke-width:5;stroke-linecap:round;stroke-linejoin:round;stroke:#231f20;stroke-opacity:1;stroke-miterlimit:10" d="M1311.092 25.006 727.529 615.682l-21.93 912.464" transform="matrix(.0994 0 0 -.0994 .343 152.146)"/><path style="stroke:none;fill-rule:nonzero;fill:#afb8e3;fill-opacity:1" d="M130.66 149.66 72.656 90.95l-58.18 60.948Zm0 0"/><g clip-path="url(#e)"><path style="fill:none;stroke-width:5;stroke-linecap:round;stroke-linejoin:round;stroke:#231f20;stroke-opacity:1;stroke-miterlimit:10" d="M1311.092 25.006 727.529 615.682 142.197 2.487Zm0 0" transform="matrix(.0994 0 0 -.0994 .343 152.146)"/></g><g clip-path="url(#f)"><path style="fill-rule:nonzero;fill:#442a80;fill-opacity:1;stroke-width:5;stroke-linecap:round;stroke-linejoin:round;stroke:#231f20;stroke-opacity:1;stroke-miterlimit:10" d="m705.6 1528.146 690.301-500.72-84.81-1002.42" transform="matrix(.0994 0 0 -.0994 .343 152.146)"/></g><g clip-path="url(#g)"><path style="stroke:none;fill-rule:nonzero;fill:#a7c8ec;fill-opacity:1" d="M139.09 50.023 70.477.253.59 51.98Zm0 0"/></g><g clip-path="url(#h)"><path style="fill:none;stroke-width:5;stroke-linecap:round;stroke-linejoin:round;stroke:#231f20;stroke-opacity:1;stroke-miterlimit:10" d="m1395.901 1027.426-690.302 500.72L2.486 1007.737Zm0 0" transform="matrix(.0994 0 0 -.0994 .343 152.146)"/></g><g clip-path="url(#i)"><path style="stroke:none;fill-rule:nonzero;fill:#af5d85;fill-opacity:1" d="m14.477 151.898 116.183-2.238 8.43-99.637"/></g><g clip-path="url(#j)"><path style="fill:none;stroke-width:5;stroke-linecap:round;stroke-linejoin:round;stroke:#231f20;stroke-opacity:1;stroke-miterlimit:10" d="m142.197 2.487 1168.895 22.519 84.809 1002.42" transform="matrix(.0994 0 0 -.0994 .343 152.146)"/></g><g clip-path="url(#k)"><path style="stroke:none;fill-rule:nonzero;fill:#af5d85;fill-opacity:1" d="M139.09 50.023.59 51.98l13.887 99.918"/></g><g clip-path="url(#l)"><path style="fill:none;stroke-width:5;stroke-linecap:round;stroke-linejoin:round;stroke:#231f20;stroke-opacity:1;stroke-miterlimit:10" d="M1395.901 1027.426 2.486 1007.737 142.197 2.487" transform="matrix(.0994 0 0 -.0994 .343 152.146)"/></g></svg>