<svg xmlns="http://www.w3.org/2000/svg" width="212.5pt" height="262.587" viewBox="0 0 212.5 196.94" version="1.2"><path style="stroke:none;fill-rule:nonzero;fill:#cba5b2;fill-opacity:1" d="M106.406 71.992 8.52 27.442l99.636 155.75"/><path style="fill:none;stroke-width:5;stroke-linecap:round;stroke-linejoin:round;stroke:#000;stroke-opacity:1;stroke-miterlimit:10" d="m1066.566 1249.801-981.17 446.556 998.711-1561.165Zm0 0" transform="matrix(.09977 0 0 -.09977 0 196.679)"/><path style="stroke:none;fill-rule:nonzero;fill:#9d80b2;fill-opacity:1" d="m106.406 71.992 1.75 111.2 96.078-158.57"/><path style="fill:none;stroke-width:5;stroke-linecap:round;stroke-linejoin:round;stroke:#000;stroke-opacity:1;stroke-miterlimit:10" d="m1066.566 1249.801 17.541-1114.609 963.042 1589.435Zm0 0" transform="matrix(.09977 0 0 -.09977 0 196.679)"/><path style="stroke:none;fill-rule:nonzero;fill:#f1eec1;fill-opacity:1" d="M47.824 133.746 8.52 27.441l99.636 155.75"/><path style="fill:none;stroke-width:5;stroke-linecap:round;stroke-linejoin:round;stroke:#000;stroke-opacity:1;stroke-miterlimit:10" d="M479.367 630.809 85.396 1696.357l998.711-1561.165Zm0 0" transform="matrix(.09977 0 0 -.09977 0 196.679)"/><path style="stroke:none;fill-rule:nonzero;fill:#300;fill-opacity:1" d="m47.824 133.746 60.332 49.445 3.649-50.507"/><path style="fill:none;stroke-width:5;stroke-linecap:round;stroke-linejoin:round;stroke:#000;stroke-opacity:1;stroke-miterlimit:10" d="m479.367 630.809 604.74-495.617 36.57 506.267Zm0 0" transform="matrix(.09977 0 0 -.09977 0 196.679)"/><path style="stroke:none;fill-rule:nonzero;fill:#3751c1;fill-opacity:1" d="m170.21 131.652 34.024-107.03-96.078 158.57"/><path style="fill:none;stroke-width:5;stroke-linecap:round;stroke-linejoin:round;stroke:#000;stroke-opacity:1;stroke-miterlimit:10" d="m1706.114 651.796 341.035 1072.83-963.042-1589.434Zm0 0" transform="matrix(.09977 0 0 -.09977 0 196.679)"/><path style="stroke:none;fill-rule:nonzero;fill:#ad2300;fill-opacity:1" d="m170.21 131.652-58.405 1.032-3.649 50.507"/><path style="fill:none;stroke-width:5;stroke-linecap:round;stroke-linejoin:round;stroke:#000;stroke-opacity:1;stroke-miterlimit:10" d="m1706.114 651.796-585.436-10.337-36.57-506.267Zm0 0" transform="matrix(.09977 0 0 -.09977 0 196.679)"/><path style="stroke:none;fill-rule:nonzero;fill:#af687d;fill-opacity:1" d="M106.406 71.992 8.52 27.442l195.714-2.82"/><path style="fill:none;stroke-width:5;stroke-linecap:round;stroke-linejoin:round;stroke:#000;stroke-opacity:1;stroke-miterlimit:10" d="m1066.566 1249.801-981.17 446.556 1961.753 28.27Zm0 0" transform="matrix(.09977 0 0 -.09977 0 196.679)"/><path style="stroke:none;fill-rule:nonzero;fill:#18a5cd;fill-opacity:1" d="M108.156 28.965 8.52 27.44l195.714-2.82"/><path style="fill:none;stroke-width:5;stroke-linecap:round;stroke-linejoin:round;stroke:#000;stroke-opacity:1;stroke-miterlimit:10" d="m1084.107 1681.087-998.711 15.27 1961.753 28.27Zm0 0" transform="matrix(.09977 0 0 -.09977 0 196.679)"/><path style="stroke:none;fill-rule:nonzero;fill:#cecdd8;fill-opacity:1" d="m108.156 28.965 3.649 103.719 92.43-108.063"/><path style="fill:none;stroke-width:5;stroke-linecap:round;stroke-linejoin:round;stroke:#000;stroke-opacity:1;stroke-miterlimit:10" d="m1084.107 1681.087 36.57-1039.628 926.472 1083.168Zm0 0" transform="matrix(.09977 0 0 -.09977 0 196.679)"/><path style="stroke:none;fill-rule:nonzero;fill:#f8be89;fill-opacity:1" d="m170.21 131.652-58.405 1.032 92.43-108.063"/><path style="fill:none;stroke-width:5;stroke-linecap:round;stroke-linejoin:round;stroke:#000;stroke-opacity:1;stroke-miterlimit:10" d="m1706.114 651.796-585.436-10.337 926.471 1083.168Zm0 0" transform="matrix(.09977 0 0 -.09977 0 196.679)"/><path style="stroke:none;fill-rule:nonzero;fill:#8b94d7;fill-opacity:1" d="M108.156 28.965 8.52 27.44l103.285 105.243"/><path style="fill:none;stroke-width:5;stroke-linecap:round;stroke-linejoin:round;stroke:#000;stroke-opacity:1;stroke-miterlimit:10" d="m1084.107 1681.087-998.711 15.27L1120.678 641.46Zm0 0" transform="matrix(.09977 0 0 -.09977 0 196.679)"/><path style="stroke:none;fill-rule:nonzero;fill:#452b8c;fill-opacity:1" d="M47.824 133.746 8.52 27.441l103.285 105.243"/><path style="fill:none;stroke-width:5;stroke-linecap:round;stroke-linejoin:round;stroke:#000;stroke-opacity:1;stroke-miterlimit:10" d="M479.367 630.809 85.396 1696.357 1120.678 641.46Zm0 0" transform="matrix(.09977 0 0 -.09977 0 196.679)"/></svg>