<svg xmlns="http://www.w3.org/2000/svg" width="221pt" height="260" viewBox="0 0 221 195" version="1.2"><path style="stroke:none;fill-rule:nonzero;fill:#ed8f26;fill-opacity:1" d="M44.582 68.43 5.055 176.44l50.683-79.066"/><path style="fill:none;stroke-width:5.06092;stroke-linecap:round;stroke-linejoin:round;stroke:#000;stroke-opacity:1;stroke-miterlimit:10" d="M445.82 1265.703 50.547 185.586 557.383 976.25Zm0 0" transform="matrix(.1 0 0 -.1 0 195)"/><path style="stroke:none;fill-rule:nonzero;fill:#cdbfcd;fill-opacity:1" d="M110.262 192.059 5.055 176.44l50.683-79.066"/><path style="fill:none;stroke-width:5.06092;stroke-linecap:round;stroke-linejoin:round;stroke:#000;stroke-opacity:1;stroke-miterlimit:10" d="M1102.617 29.414 50.547 185.586 557.383 976.25Zm0 0" transform="matrix(.1 0 0 -.1 0 195)"/><path style="stroke:none;fill-rule:nonzero;fill:#b39cc0;fill-opacity:1" d="m55.738 97.375 54.524 94.684 54.597-95.094"/><path style="fill:none;stroke-width:5.06092;stroke-linecap:round;stroke-linejoin:round;stroke:#000;stroke-opacity:1;stroke-miterlimit:10" d="m557.383 976.25 545.234-946.836 545.977 950.938Zm0 0" transform="matrix(.1 0 0 -.1 0 195)"/><path style="stroke:none;fill-rule:nonzero;fill:#e4781d;fill-opacity:1" d="M55.738 97.375 44.582 68.43l64.754-63.215"/><path style="fill:none;stroke-width:5.06092;stroke-linecap:round;stroke-linejoin:round;stroke:#000;stroke-opacity:1;stroke-miterlimit:10" d="M557.383 976.25 445.82 1265.703l647.54 632.149Zm0 0" transform="matrix(.1 0 0 -.1 0 195)"/><path style="stroke:none;fill-rule:nonzero;fill:#b282a0;fill-opacity:1" d="m164.86 96.965-109.122.41 53.598-92.16"/><path style="fill:none;stroke-width:5.06092;stroke-linecap:round;stroke-linejoin:round;stroke:#000;stroke-opacity:1;stroke-miterlimit:10" d="M1648.594 980.352 557.383 976.25l535.976 921.602Zm0 0" transform="matrix(.1 0 0 -.1 0 195)"/><path style="stroke:none;fill-rule:nonzero;fill:#000017;fill-opacity:1" d="m172.16 67.867 41.93 108.153-49.23-79.055"/><path style="fill:none;stroke-width:5.06092;stroke-linecap:round;stroke-linejoin:round;stroke:#000;stroke-opacity:1;stroke-miterlimit:10" d="m1721.602 1271.328 419.296-1081.523-492.304 790.547Zm0 0" transform="matrix(.1 0 0 -.1 0 195)"/><path style="stroke:none;fill-rule:nonzero;fill:#8f8dcc;fill-opacity:1" d="m110.262 192.059 103.828-16.04-49.23-79.054"/><path style="fill:none;stroke-width:5.06092;stroke-linecap:round;stroke-linejoin:round;stroke:#000;stroke-opacity:1;stroke-miterlimit:10" d="m1102.617 29.414 1038.281 160.39-492.304 790.548Zm0 0" transform="matrix(.1 0 0 -.1 0 195)"/><path style="stroke:none;fill-rule:nonzero;fill:#000010;fill-opacity:1" d="m172.16 67.867-7.3 29.098-55.524-91.75"/><path style="fill:none;stroke-width:5.06092;stroke-linecap:round;stroke-linejoin:round;stroke:#000;stroke-opacity:1;stroke-miterlimit:10" d="m1721.602 1271.328-73.008-290.976-555.235 917.5Zm0 0" transform="matrix(.1 0 0 -.1 0 195)"/><path style="stroke:none;fill-rule:nonzero;fill:#2e0000;fill-opacity:1" d="m108.246 178.621-103.191-2.18 105.207 15.618"/><path style="fill:none;stroke-width:5.06092;stroke-linecap:round;stroke-linejoin:round;stroke:#000;stroke-opacity:1;stroke-miterlimit:10" d="M1082.46 163.79 50.548 185.585l1052.07-156.172Zm0 0" transform="matrix(.1 0 0 -.1 0 195)"/><path style="stroke:none;fill-rule:nonzero;fill:#500000;fill-opacity:1" d="m108.246 178.621 105.844-2.601-103.828 16.039"/><path style="fill:none;stroke-width:5.06092;stroke-linecap:round;stroke-linejoin:round;stroke:#000;stroke-opacity:1;stroke-miterlimit:10" d="m1082.46 163.79 1058.438 26.015-1038.28-160.39Zm0 0" transform="matrix(.1 0 0 -.1 0 195)"/><path style="stroke:none;fill-rule:nonzero;fill:#a8bce8;fill-opacity:1" d="m44.582 68.43 127.578-.563-62.824-62.652"/><path style="fill:none;stroke-width:5.06092;stroke-linecap:round;stroke-linejoin:round;stroke:#000;stroke-opacity:1;stroke-miterlimit:10" d="m445.82 1265.703 1275.782 5.625-628.243 626.524Zm0 0" transform="matrix(.1 0 0 -.1 0 195)"/><path style="stroke:none;fill-rule:nonzero;fill:#8d6eaa;fill-opacity:1" d="m108.246 178.621-103.191-2.18L44.582 68.43"/><path style="fill:none;stroke-width:5.06092;stroke-linecap:round;stroke-linejoin:round;stroke:#000;stroke-opacity:1;stroke-miterlimit:10" d="M1082.46 163.79 50.548 185.585 445.82 1265.703Zm0 0" transform="matrix(.1 0 0 -.1 0 195)"/><path style="stroke:none;fill-rule:nonzero;fill:#d2a6ab;fill-opacity:1" d="m108.246 178.621 105.844-2.601-41.93-108.153"/><path style="fill:none;stroke-width:5.06092;stroke-linecap:round;stroke-linejoin:round;stroke:#000;stroke-opacity:1;stroke-miterlimit:10" d="m1082.46 163.79 1058.438 26.015-419.296 1081.523Zm0 0" transform="matrix(.1 0 0 -.1 0 195)"/><path style="stroke:none;fill-rule:nonzero;fill:#b39dc2;fill-opacity:1" d="m44.582 68.43 63.664 110.191L172.16 67.867"/><path style="fill:none;stroke-width:5.06092;stroke-linecap:round;stroke-linejoin:round;stroke:#000;stroke-opacity:1;stroke-miterlimit:10" d="M445.82 1265.703 1082.46 163.79l639.142 1107.54Zm0 0" transform="matrix(.1 0 0 -.1 0 195)"/></svg>