<svg xmlns="http://www.w3.org/2000/svg" width="265.707" height="245.053" viewBox="0 0 199.28 183.79" version="1.2"><defs><clipPath id="a"><path d="M137 42h61.563v95H137Zm0 0"/></clipPath><clipPath id="b"><path d="M137 42h61.563v95H137Zm0 0"/></clipPath><clipPath id="c"><path d="M71 .227h76V51H71Zm0 0"/></clipPath><clipPath id="d"><path d="M89 .227h73V55H89Zm0 0"/></clipPath><clipPath id="e"><path d="M73 42h74v141.355H73Zm0 0"/></clipPath><clipPath id="f"><path d="M89 42h69v141.355H89Zm0 0"/></clipPath><clipPath id="g"><path d="M0 65h99v118.355H0Zm0 0"/></clipPath><clipPath id="h"><path d="M0 65h99v118.355H0Zm0 0"/></clipPath><clipPath id="i"><path d="M28 142h71v41.355H28Zm0 0"/></clipPath><clipPath id="j"><path d="M89 128h109.563v55.355H89Zm0 0"/></clipPath><clipPath id="k"><path d="M89 119h109.563v64.355H89Zm0 0"/></clipPath><clipPath id="l"><path d="M31 159h87v24.355H31Zm0 0"/></clipPath><clipPath id="m"><path d="M0 .227h99V74H0Zm0 0"/></clipPath><clipPath id="n"><path d="M0 .227h99V76H0Zm0 0"/></clipPath><clipPath id="o"><path d="M89 .227h109.563V137H89Zm0 0"/></clipPath><clipPath id="p"><path d="M31 128h167.563v52H31Zm0 0"/></clipPath><clipPath id="q"><path d="M24 .227h75V168H24Zm0 0"/></clipPath><clipPath id="r"><path d="M31 94h167.563v74H31Zm0 0"/></clipPath><clipPath id="s"><path d="M89 .227h109.563V137H89Zm0 0"/></clipPath><clipPath id="t"><path d="M31 .227h88V168H31Zm0 0"/></clipPath></defs><path style="stroke:none;fill-rule:evenodd;fill:#be6f65;fill-opacity:1" d="M142.129 46.793 76.012 27.41 1.372 69.613l140.757-22.82"/><path style="fill:none;stroke-width:7.344;stroke-linecap:butt;stroke-linejoin:miter;stroke:#231f20;stroke-opacity:1;stroke-miterlimit:4" d="m1426.424 1370.55-663.56 194.528L13.76 1141.522Zm0 0" transform="matrix(.09964 0 0 -.09964 0 183.355)"/><path style="stroke:none;fill-rule:evenodd;fill:#c08b8c;fill-opacity:1" d="M142.129 46.793 77.14 99.508 1.37 69.613l140.758-22.82"/><path style="fill:none;stroke-width:7.344;stroke-linecap:butt;stroke-linejoin:miter;stroke:#231f20;stroke-opacity:1;stroke-miterlimit:4" d="m1426.424 1370.55-652.23-529.053L13.76 1141.522Zm0 0" transform="matrix(.09964 0 0 -.09964 0 183.355)"/><path style="stroke:none;fill-rule:evenodd;fill:#5c4c7f;fill-opacity:1" d="m142.129 46.793 11.105 77.316 44.04 8.227-55.145-85.543"/><g clip-path="url(#a)"><path style="fill:none;stroke-width:7.344;stroke-linecap:butt;stroke-linejoin:miter;stroke:#231f20;stroke-opacity:1;stroke-miterlimit:4" d="m1426.424 1370.55 111.456-775.958 441.982-82.563Zm0 0" transform="matrix(.09964 0 0 -.09964 0 183.355)"/></g><path style="stroke:none;fill-rule:evenodd;fill:#353640;fill-opacity:1" d="m142.129 46.793 15.25 3.66 39.894 81.883-55.144-85.543"/><g clip-path="url(#b)"><path style="fill:none;stroke-width:7.344;stroke-linecap:butt;stroke-linejoin:miter;stroke:#231f20;stroke-opacity:1;stroke-miterlimit:4" d="m1426.424 1370.55 153.051-36.734 400.387-821.787Zm0 0" transform="matrix(.09964 0 0 -.09964 0 183.355)"/></g><path style="stroke:none;fill-rule:evenodd;fill:#892a2f;fill-opacity:1" d="M94.027 1.555 76.012 27.41l66.117 19.383L94.027 1.555"/><g clip-path="url(#c)"><path style="fill:none;stroke-width:7.344;stroke-linecap:butt;stroke-linejoin:miter;stroke:#231f20;stroke-opacity:1;stroke-miterlimit:4" d="m943.67 1824.567-180.807-259.489 663.561-194.528Zm0 0" transform="matrix(.09964 0 0 -.09964 0 183.355)"/></g><path style="stroke:none;fill-rule:evenodd;fill:#231f20;fill-opacity:1" d="m94.027 1.555 63.352 48.898-15.25-3.66L94.027 1.555"/><g clip-path="url(#d)"><path style="fill:none;stroke-width:7.344;stroke-linecap:butt;stroke-linejoin:miter;stroke:#231f20;stroke-opacity:1;stroke-miterlimit:4" d="m943.67 1824.567 635.805-490.751-153.05 36.734Zm0 0" transform="matrix(.09964 0 0 -.09964 0 183.355)"/></g><path style="stroke:none;fill-rule:evenodd;fill:#b18d9e;fill-opacity:1" d="M94.027 181.996 77.141 99.508l64.988-52.715-48.102 135.203"/><g clip-path="url(#e)"><path style="fill:none;stroke-width:7.344;stroke-linecap:butt;stroke-linejoin:miter;stroke:#231f20;stroke-opacity:1;stroke-miterlimit:4" d="M943.67 13.634 774.194 841.497l652.231 529.053Zm0 0" transform="matrix(.09964 0 0 -.09964 0 183.355)"/></g><path style="stroke:none;fill-rule:evenodd;fill:#937b9e;fill-opacity:1" d="m94.027 181.996 59.207-57.887-11.105-77.316-48.102 135.203"/><g clip-path="url(#f)"><path style="fill:none;stroke-width:7.344;stroke-linecap:butt;stroke-linejoin:miter;stroke:#231f20;stroke-opacity:1;stroke-miterlimit:4" d="m943.67 13.634 594.21 580.958-111.456 775.958Zm0 0" transform="matrix(.09964 0 0 -.09964 0 183.355)"/></g><path style="stroke:none;fill-rule:evenodd;fill:#caa7a8;fill-opacity:1" d="M94.027 181.996 77.141 99.508 1.37 69.613l92.656 112.383"/><g clip-path="url(#g)"><path style="fill:none;stroke-width:7.344;stroke-linecap:butt;stroke-linejoin:miter;stroke:#231f20;stroke-opacity:1;stroke-miterlimit:4" d="M943.67 13.634 774.194 841.497 13.76 1141.522Zm0 0" transform="matrix(.09964 0 0 -.09964 0 183.355)"/></g><path style="stroke:none;fill-rule:evenodd;fill:#e1d4c3;fill-opacity:1" d="m94.027 181.996-61.414-35.379L1.371 69.613l92.656 112.383"/><g clip-path="url(#h)"><path style="fill:none;stroke-width:7.344;stroke-linecap:butt;stroke-linejoin:miter;stroke:#231f20;stroke-opacity:1;stroke-miterlimit:4" d="M943.67 13.634 327.312 368.7l-313.55 772.821Zm0 0" transform="matrix(.09964 0 0 -.09964 0 183.355)"/></g><path style="stroke:none;fill-rule:evenodd;fill:#a5d9cc;fill-opacity:1" d="m94.027 181.996-61.414-35.379 2.649 16.79 58.765 18.59"/><g clip-path="url(#i)"><path style="fill:none;stroke-width:7.344;stroke-linecap:butt;stroke-linejoin:miter;stroke:#231f20;stroke-opacity:1;stroke-miterlimit:4" d="M943.67 13.634 327.312 368.7l26.58-168.497Zm0 0" transform="matrix(.09964 0 0 -.09964 0 183.355)"/></g><path style="stroke:none;fill-rule:evenodd;fill:#21588f;fill-opacity:1" d="m94.027 181.996 19.102-6.512 84.144-43.148-103.246 49.66"/><g clip-path="url(#j)"><path style="fill:none;stroke-width:7.344;stroke-linecap:butt;stroke-linejoin:miter;stroke:#231f20;stroke-opacity:1;stroke-miterlimit:4" d="m943.67 13.634 191.706 65.352 844.486 433.043Zm0 0" transform="matrix(.09964 0 0 -.09964 0 183.355)"/></g><path style="stroke:none;fill-rule:evenodd;fill:#5c6ba6;fill-opacity:1" d="m94.027 181.996 59.207-57.887 44.04 8.227-103.247 49.66"/><g clip-path="url(#k)"><path style="fill:none;stroke-width:7.344;stroke-linecap:butt;stroke-linejoin:miter;stroke:#231f20;stroke-opacity:1;stroke-miterlimit:4" d="m943.67 13.634 594.21 580.958 441.982-82.563Zm0 0" transform="matrix(.09964 0 0 -.09964 0 183.355)"/></g><path style="stroke:none;fill-rule:evenodd;fill:#543236;fill-opacity:1" d="m94.027 181.996 19.102-6.512-77.867-12.078 58.765 18.59"/><g clip-path="url(#l)"><path style="fill:none;stroke-width:7.344;stroke-linecap:butt;stroke-linejoin:miter;stroke:#231f20;stroke-opacity:1;stroke-miterlimit:4" d="m943.67 13.634 191.706 65.352-781.485 121.218Zm0 0" transform="matrix(.09964 0 0 -.09964 0 183.355)"/></g><path style="stroke:none;fill-rule:evenodd;fill:#bdc065;fill-opacity:1" d="m35.262 163.406-2.649-16.789L1.371 69.613l33.89 93.793"/><path style="fill:none;stroke-width:7.344;stroke-linecap:butt;stroke-linejoin:miter;stroke:#231f20;stroke-opacity:1;stroke-miterlimit:4" d="M353.891 200.204 327.311 368.7l-313.55 772.821Zm0 0" transform="matrix(.09964 0 0 -.09964 0 183.355)"/><path style="stroke:none;fill-rule:evenodd;fill:#35396d;fill-opacity:1" d="M35.262 163.406 28.14 71.652 1.37 69.613l33.89 93.793"/><path style="fill:none;stroke-width:7.344;stroke-linecap:butt;stroke-linejoin:miter;stroke:#231f20;stroke-opacity:1;stroke-miterlimit:4" d="m353.891 200.204-71.468 920.854-268.663 20.464Zm0 0" transform="matrix(.09964 0 0 -.09964 0 183.355)"/><path style="stroke:none;fill-rule:evenodd;fill:#a72f2b;fill-opacity:1" d="M94.027 1.555 76.012 27.41 1.372 69.613 94.026 1.555"/><g clip-path="url(#m)"><path style="fill:none;stroke-width:7.344;stroke-linecap:butt;stroke-linejoin:miter;stroke:#231f20;stroke-opacity:1;stroke-miterlimit:4" d="m943.67 1824.567-180.807-259.489L13.76 1141.522Zm0 0" transform="matrix(.09964 0 0 -.09964 0 183.355)"/></g><path style="stroke:none;fill-rule:evenodd;fill:#2c5899;fill-opacity:1" d="M94.027 1.555 28.141 71.652 1.37 69.613 94.027 1.555"/><g clip-path="url(#n)"><path style="fill:none;stroke-width:7.344;stroke-linecap:butt;stroke-linejoin:miter;stroke:#231f20;stroke-opacity:1;stroke-miterlimit:4" d="m943.67 1824.567-661.247-703.51-268.663 20.465Zm0 0" transform="matrix(.09964 0 0 -.09964 0 183.355)"/></g><path style="stroke:none;fill-rule:evenodd;fill:#e8e6c9;fill-opacity:1" d="m94.027 1.555 63.352 48.898 39.894 81.883L94.027 1.555"/><g clip-path="url(#o)"><path style="fill:none;stroke-width:7.344;stroke-linecap:butt;stroke-linejoin:miter;stroke:#231f20;stroke-opacity:1;stroke-miterlimit:4" d="m943.67 1824.567 635.805-490.751 400.387-821.787Zm0 0" transform="matrix(.09964 0 0 -.09964 0 183.355)"/></g><path style="stroke:none;fill-rule:evenodd;fill:#bc6253;fill-opacity:1" d="m35.262 163.406 77.867 12.078 84.144-43.148-162.011 31.07"/><g clip-path="url(#p)"><path style="fill:none;stroke-width:7.344;stroke-linecap:butt;stroke-linejoin:miter;stroke:#231f20;stroke-opacity:1;stroke-miterlimit:4" d="m353.891 200.204 781.485-121.218 844.486 433.043Zm0 0" transform="matrix(.09964 0 0 -.09964 0 183.355)"/></g><path style="stroke:none;fill-rule:evenodd;fill:#8a759e;fill-opacity:1" d="M94.027 1.555 28.141 71.652l7.12 91.754L94.028 1.555"/><g clip-path="url(#q)"><path style="fill:none;stroke-width:7.344;stroke-linecap:butt;stroke-linejoin:miter;stroke:#231f20;stroke-opacity:1;stroke-miterlimit:4" d="m943.67 1824.567-661.247-703.51 71.468-920.853Zm0 0" transform="matrix(.09964 0 0 -.09964 0 183.355)"/></g><path style="stroke:none;fill-rule:evenodd;fill:#c38b88;fill-opacity:1" d="m35.262 163.406 79.328-64.402 82.683 33.332-162.011 31.07"/><g clip-path="url(#r)"><path style="fill:none;stroke-width:7.344;stroke-linecap:butt;stroke-linejoin:miter;stroke:#231f20;stroke-opacity:1;stroke-miterlimit:4" d="m353.891 200.204 796.148 646.35 829.823-334.525Zm0 0" transform="matrix(.09964 0 0 -.09964 0 183.355)"/></g><path style="stroke:none;fill-rule:evenodd;fill:#cfaeab;fill-opacity:1" d="m94.027 1.555 20.563 97.449 82.683 33.332L94.027 1.555"/><g clip-path="url(#s)"><path style="fill:none;stroke-width:7.344;stroke-linecap:butt;stroke-linejoin:miter;stroke:#231f20;stroke-opacity:1;stroke-miterlimit:4" d="m943.67 1824.567 206.369-978.013 829.823-334.525Zm0 0" transform="matrix(.09964 0 0 -.09964 0 183.355)"/></g><path style="stroke:none;fill-rule:evenodd;fill:#b18d9f;fill-opacity:1" d="m94.027 1.555 20.563 97.449-79.328 64.402L94.027 1.555"/><g clip-path="url(#t)"><path style="fill:none;stroke-width:7.344;stroke-linecap:butt;stroke-linejoin:miter;stroke:#231f20;stroke-opacity:1;stroke-miterlimit:4" d="m943.67 1824.567 206.369-978.013-796.148-646.35Zm0 0" transform="matrix(.09964 0 0 -.09964 0 183.355)"/></g></svg>