<svg xmlns="http://www.w3.org/2000/svg" width="197pt" height="199pt" viewBox="0 0 197 199" version="1.2"><path style="stroke:none;fill-rule:nonzero;fill:#c6b3c7;fill-opacity:1" d="M91.48 166.723 49.273 214l-19.812-64.715"/><path style="fill:none;stroke-width:6.46;stroke-linecap:round;stroke-linejoin:round;stroke:#000;stroke-opacity:1;stroke-miterlimit:10" d="M914.805 322.773 492.735-150 294.608 497.148Zm0 0" transform="matrix(.1 0 0 -.1 0 199)"/><path style="stroke:none;fill-rule:nonzero;fill:#4b86e7;fill-opacity:1" d="M104.297 192.36 49.273 214l42.207-47.277"/><path style="fill:none;stroke-width:6.46;stroke-linecap:round;stroke-linejoin:round;stroke:#000;stroke-opacity:1;stroke-miterlimit:10" d="M1042.969 66.406 492.734-150l422.07 472.773Zm0 0" transform="matrix(.1 0 0 -.1 0 199)"/><path style="fill-rule:nonzero;fill:#4079e1;fill-opacity:1;stroke-width:6.46;stroke-linecap:round;stroke-linejoin:round;stroke:#000;stroke-opacity:1;stroke-miterlimit:10" d="m914.805 322.773 489.53 427.461 197.11-198.047" transform="matrix(.1 0 0 -.1 0 199)"/><path style="fill-rule:nonzero;fill:#4079e1;fill-opacity:1;stroke-width:6.46;stroke-linecap:round;stroke-linejoin:round;stroke:#000;stroke-opacity:1;stroke-miterlimit:10" d="M1601.445 552.188 1042.97 66.406 914.805 322.773" transform="matrix(.1 0 0 -.1 0 199)"/><path style="stroke:none;fill-rule:nonzero;fill:#bd8fa5;fill-opacity:1" d="m91.48 166.723-62.02-17.438L66.896 39.008"/><path style="fill:none;stroke-width:6.46;stroke-linecap:round;stroke-linejoin:round;stroke:#000;stroke-opacity:1;stroke-miterlimit:10" d="M914.805 322.773 294.609 497.148" transform="matrix(.1 0 0 -.1 0 199)"/><path style="stroke:none;fill-rule:nonzero;fill:#bd8fa5;fill-opacity:1" d="M140.434 123.977 91.48 166.723 66.895 39.008"/><path style="fill:none;stroke-width:6.46;stroke-linecap:round;stroke-linejoin:round;stroke:#000;stroke-opacity:1;stroke-miterlimit:10" d="m1404.336 750.234-489.531-427.46" transform="matrix(.1 0 0 -.1 0 199)"/><path style="stroke:none;fill-rule:nonzero;fill:#966a9c;fill-opacity:1" d="m130.27 60.563 61.574 29.082-51.41 34.332"/><path style="fill:none;stroke-width:6.46;stroke-linecap:round;stroke-linejoin:round;stroke:#000;stroke-opacity:1;stroke-miterlimit:10" d="m1302.695 1384.375 615.743-290.82-514.102-343.32Zm0 0" transform="matrix(.1 0 0 -.1 0 199)"/><path style="stroke:none;fill-rule:nonzero;fill:#386dd9;fill-opacity:1" d="m160.145 143.781-19.711-19.804 51.41-34.332"/><path style="fill:none;stroke-width:6.46;stroke-linecap:round;stroke-linejoin:round;stroke:#000;stroke-opacity:1;stroke-miterlimit:10" d="m1601.445 552.188-197.11 198.046 514.102 343.32Zm0 0" transform="matrix(.1 0 0 -.1 0 199)"/><path style="fill-rule:nonzero;fill:#bd8fa5;fill-opacity:1;stroke-width:6.46;stroke-linecap:round;stroke-linejoin:round;stroke:#000;stroke-opacity:1;stroke-miterlimit:10" d="m668.945 1599.922 633.75-215.547 101.64-634.14" transform="matrix(.1 0 0 -.1 0 199)"/><path style="stroke:none;fill-rule:nonzero;fill:#c2cb4e;fill-opacity:1" d="m33.813 173.316-4.352-24.03L49.273 214"/><path style="fill:none;stroke-width:6.46;stroke-linecap:round;stroke-linejoin:round;stroke:#000;stroke-opacity:1;stroke-miterlimit:10" d="m338.125 256.836-43.516 240.312L492.734-150Zm0 0" transform="matrix(.1 0 0 -.1 0 199)"/><path style="fill-rule:nonzero;fill:#b7b52e;fill-opacity:1;stroke-width:6.46;stroke-linecap:round;stroke-linejoin:round;stroke:#000;stroke-opacity:1;stroke-miterlimit:10" d="M149.492 1138.984 294.61 497.148l43.516-240.312" transform="matrix(.1 0 0 -.1 0 199)"/><path style="fill-rule:nonzero;fill:#bd8fa5;fill-opacity:1;stroke-width:6.46;stroke-linecap:round;stroke-linejoin:round;stroke:#000;stroke-opacity:1;stroke-miterlimit:10" d="m294.61 497.148-145.118 641.836 519.453 460.938" transform="matrix(.1 0 0 -.1 0 199)"/><path style="stroke:none;fill-rule:nonzero;fill:#5dd1b4;fill-opacity:1" d="m149.316 71.977 42.528 17.668-61.574-29.082"/><path style="fill:none;stroke-width:6.46;stroke-linecap:round;stroke-linejoin:round;stroke:#000;stroke-opacity:1;stroke-miterlimit:10" d="m1493.164 1270.234 425.274-176.68-615.743 290.821Zm0 0" transform="matrix(.1 0 0 -.1 0 199)"/><path style="fill-rule:nonzero;fill:#5bd3c7;fill-opacity:1;stroke-width:6.46;stroke-linecap:round;stroke-linejoin:round;stroke:#000;stroke-opacity:1;stroke-miterlimit:10" d="m1302.695 1384.375-633.75 215.547 101.992-85.82" transform="matrix(.1 0 0 -.1 0 199)"/><path style="fill-rule:nonzero;fill:#5bd3c7;fill-opacity:1;stroke-width:6.46;stroke-linecap:round;stroke-linejoin:round;stroke:#000;stroke-opacity:1;stroke-miterlimit:10" d="m770.938 1514.102 722.226-243.868-190.469 114.141" transform="matrix(.1 0 0 -.1 0 199)"/><path style="stroke:none;fill-rule:nonzero;fill:#9d4256;fill-opacity:1" d="M33.813 173.316 49.273 214l55.024-21.64"/><path style="fill:none;stroke-width:6.46;stroke-linecap:round;stroke-linejoin:round;stroke:#000;stroke-opacity:1;stroke-miterlimit:10" d="M338.125 256.836 492.735-150l550.234 216.406Zm0 0" transform="matrix(.1 0 0 -.1 0 199)"/><path style="stroke:none;fill-rule:nonzero;fill:#d18378;fill-opacity:1" d="M14.95 85.102 7.745 27.8l59.149 11.207"/><path style="fill:none;stroke-width:6.46;stroke-linecap:round;stroke-linejoin:round;stroke:#000;stroke-opacity:1;stroke-miterlimit:10" d="m149.492 1138.984-72.031 573.008 591.484-112.07Zm0 0" transform="matrix(.1 0 0 -.1 0 199)"/><path style="fill-rule:nonzero;fill:#b7b52e;fill-opacity:1;stroke-width:6.46;stroke-linecap:round;stroke-linejoin:round;stroke:#000;stroke-opacity:1;stroke-miterlimit:10" d="m338.125 256.836-165 727.773-23.633 154.375" transform="matrix(.1 0 0 -.1 0 199)"/><path style="stroke:none;fill-rule:nonzero;fill:#000;fill-opacity:1" d="M17.313 100.54 7.745 27.8l7.203 57.302"/><path style="fill:none;stroke-width:6.46;stroke-linecap:round;stroke-linejoin:round;stroke:#000;stroke-opacity:1;stroke-miterlimit:10" d="m173.125 984.61-95.664 727.382 72.031-573.008Zm0 0" transform="matrix(.1 0 0 -.1 0 199)"/><path style="stroke:none;fill-rule:nonzero;fill:#53cfd2;fill-opacity:1" d="m77.094 47.59-10.2-8.582L7.747 27.8"/><path style="fill:none;stroke-width:6.46;stroke-linecap:round;stroke-linejoin:round;stroke:#000;stroke-opacity:1;stroke-miterlimit:10" d="m770.938 1514.102-101.993 85.82-591.484 112.07Zm0 0" transform="matrix(.1 0 0 -.1 0 199)"/><path style="stroke:none;fill-rule:nonzero;fill:#ecba9f;fill-opacity:1" d="m160.145 143.781 31.699-54.136-42.528-17.668"/><path style="fill:none;stroke-width:6.46;stroke-linecap:round;stroke-linejoin:round;stroke:#000;stroke-opacity:1;stroke-miterlimit:10" d="m1601.445 552.188 316.993 541.367-425.274 176.68Zm0 0" transform="matrix(.1 0 0 -.1 0 199)"/><path style="fill-rule:nonzero;fill:#bf8ea2;fill-opacity:1;stroke-width:6.46;stroke-linecap:round;stroke-linejoin:round;stroke:#000;stroke-opacity:1;stroke-miterlimit:10" d="m338.125 256.836 704.844-190.43 558.476 485.781" transform="matrix(.1 0 0 -.1 0 199)"/><path style="stroke:none;fill-rule:nonzero;fill:#bf8ea2;fill-opacity:1" d="m160.145 143.781-10.829-71.804-115.504 101.34"/><path style="fill:none;stroke-width:6.46;stroke-linecap:round;stroke-linejoin:round;stroke:#000;stroke-opacity:1;stroke-miterlimit:10" d="m1601.445 552.188-108.28 718.046" transform="matrix(.1 0 0 -.1 0 199)"/><path style="fill-rule:nonzero;fill:#bf8ea2;fill-opacity:1;stroke-width:6.46;stroke-linecap:round;stroke-linejoin:round;stroke:#000;stroke-opacity:1;stroke-miterlimit:10" d="M770.938 1514.102 173.125 984.609l165-727.773" transform="matrix(.1 0 0 -.1 0 199)"/><path style="stroke:none;fill-rule:nonzero;fill:#bf8ea2;fill-opacity:1" d="M149.316 71.977 77.094 47.59 33.813 173.316"/><path style="fill:none;stroke-width:6.46;stroke-linecap:round;stroke-linejoin:round;stroke:#000;stroke-opacity:1;stroke-miterlimit:10" d="m1493.164 1270.234-722.226 243.868" transform="matrix(.1 0 0 -.1 0 199)"/><path style="stroke:none;fill-rule:nonzero;fill:#a190c3;fill-opacity:1" d="M77.094 47.59 7.746 27.8l9.566 72.74"/><path style="fill:none;stroke-width:6.46;stroke-linecap:round;stroke-linejoin:round;stroke:#000;stroke-opacity:1;stroke-miterlimit:10" d="M770.938 1514.102 77.46 1711.992l95.664-727.383Zm0 0" transform="matrix(.1 0 0 -.1 0 199)"/></svg>