<svg xmlns="http://www.w3.org/2000/svg" width="152" height="193pt" viewBox="0 0 114 193" version="1.2"><path style="stroke:none;fill-rule:evenodd;fill:#bba5b6;fill-opacity:1" d="m2.125 93.668 110.715 1.2-57.278 96.698L2.126 93.668"/><path style="fill:none;stroke-width:3.438;stroke-linecap:butt;stroke-linejoin:miter;stroke:#231f20;stroke-opacity:1;stroke-miterlimit:4" d="m21.25 993.32 1107.148-11.992L555.625 14.336Zm0 0" transform="matrix(.1 0 0 -.1 0 193)"/><path style="stroke:none;fill-rule:evenodd;fill:#332e32;fill-opacity:1" d="M51.707 120.61 2.125 93.667l53.438 97.898-3.856-70.957"/><path style="fill:none;stroke-width:3.438;stroke-linecap:butt;stroke-linejoin:miter;stroke:#231f20;stroke-opacity:1;stroke-miterlimit:4" d="M517.07 723.906 21.25 993.32 555.625 14.336Zm0 0" transform="matrix(.1 0 0 -.1 0 193)"/><path style="stroke:none;fill-rule:evenodd;fill:#b18182;fill-opacity:1" d="m2.125 93.668 110.715 1.2L55.652 1.64 2.125 93.668"/><path style="fill:none;stroke-width:3.438;stroke-linecap:butt;stroke-linejoin:miter;stroke:#231f20;stroke-opacity:1;stroke-miterlimit:4" d="m21.25 993.32 1107.148-11.992-571.875 932.266Zm0 0" transform="matrix(.1 0 0 -.1 0 193)"/><path style="stroke:none;fill-rule:evenodd;fill:#4d4e82;fill-opacity:1" d="M51.707 120.61 2.125 93.667 55.652 1.641l-3.945 118.968"/><path style="fill:none;stroke-width:3.438;stroke-linecap:butt;stroke-linejoin:miter;stroke:#231f20;stroke-opacity:1;stroke-miterlimit:4" d="M517.07 723.906 21.25 993.32l535.273 920.274Zm0 0" transform="matrix(.1 0 0 -.1 0 193)"/><path style="stroke:none;fill-rule:evenodd;fill:#e7933b;fill-opacity:1" d="M112.84 94.867 51.707 120.61l3.855 70.957 57.278-96.699"/><path style="fill:none;stroke-width:3.438;stroke-linecap:butt;stroke-linejoin:miter;stroke:#231f20;stroke-opacity:1;stroke-miterlimit:4" d="M1128.398 981.328 517.07 723.906l38.555-709.57Zm0 0" transform="matrix(.1 0 0 -.1 0 193)"/><path style="stroke:none;fill-rule:evenodd;fill:#f8e0a6;fill-opacity:1" d="M112.84 94.867 51.707 120.61 55.652 1.641l57.188 93.226"/><path style="fill:none;stroke-width:3.438;stroke-linecap:butt;stroke-linejoin:miter;stroke:#231f20;stroke-opacity:1;stroke-miterlimit:4" d="M1128.398 981.328 517.07 723.906l39.453 1189.688Zm0 0" transform="matrix(.1 0 0 -.1 0 193)"/></svg>