<svg xmlns="http://www.w3.org/2000/svg" width="253.747" height="199pt" viewBox="0 0 190.31 199" version="1.2"><path style="stroke:none;fill-rule:nonzero;fill:#b17a96;fill-opacity:1" d="M61.695 85.914 111.04 13.48l-1.508 50.372"/><path style="fill:none;stroke-width:5;stroke-linecap:round;stroke-linejoin:round;stroke:#000;stroke-opacity:1;stroke-miterlimit:10" d="m619.19 1131.352 495.227 726.962-15.133-505.537Zm0 0" transform="matrix(.09964 0 0 -.09964 0 198.64)"/><path style="stroke:none;fill-rule:nonzero;fill:#e5bead;fill-opacity:1" d="M61.695 85.914 9.38 138.133l16.836-52.031"/><path style="fill:none;stroke-width:5;stroke-linecap:round;stroke-linejoin:round;stroke:#000;stroke-opacity:1;stroke-miterlimit:10" d="M619.19 1131.352 94.13 607.272l168.969 522.198Zm0 0" transform="matrix(.09964 0 0 -.09964 0 198.64)"/><path style="stroke:none;fill-rule:nonzero;fill:#c6b6ca;fill-opacity:1" d="M95.813 170.512 61.694 85.914l-7.875 47.254"/><path style="fill:none;stroke-width:5;stroke-linecap:round;stroke-linejoin:round;stroke:#000;stroke-opacity:1;stroke-miterlimit:10" d="M961.599 282.308 619.19 1131.352 540.154 657.1Zm0 0" transform="matrix(.09964 0 0 -.09964 0 198.64)"/><path style="stroke:none;fill-rule:nonzero;fill:#b7a4c5;fill-opacity:1" d="M95.813 170.512 61.694 85.914l42.54 32.332"/><path style="fill:none;stroke-width:5;stroke-linecap:round;stroke-linejoin:round;stroke:#000;stroke-opacity:1;stroke-miterlimit:10" d="M961.599 282.308 619.19 1131.352l426.933-324.493Zm0 0" transform="matrix(.09964 0 0 -.09964 0 198.64)"/><path style="stroke:none;fill-rule:nonzero;fill:#e4a893;fill-opacity:1" d="m61.695 85.914-43.511-50.18 8.03 50.368"/><path style="fill:none;stroke-width:5;stroke-linecap:round;stroke-linejoin:round;stroke:#000;stroke-opacity:1;stroke-miterlimit:10" d="m619.19 1131.352-436.695 503.616L263.1 1129.47Zm0 0" transform="matrix(.09964 0 0 -.09964 0 198.64)"/><path style="stroke:none;fill-rule:nonzero;fill:#d48d84;fill-opacity:1" d="m61.695 85.914-43.511-50.18 43.925 6.762"/><path style="fill:none;stroke-width:5;stroke-linecap:round;stroke-linejoin:round;stroke:#000;stroke-opacity:1;stroke-miterlimit:10" d="m619.19 1131.352-436.695 503.616 440.85-67.862Zm0 0" transform="matrix(.09964 0 0 -.09964 0 198.64)"/><path style="stroke:none;fill-rule:nonzero;fill:#d9c2c3;fill-opacity:1" d="M61.695 85.914 9.38 138.133l44.441-4.965"/><path style="fill:none;stroke-width:5;stroke-linecap:round;stroke-linejoin:round;stroke:#000;stroke-opacity:1;stroke-miterlimit:10" d="M619.19 1131.352 94.13 607.272 540.153 657.1Zm0 0" transform="matrix(.09964 0 0 -.09964 0 198.64)"/><path style="stroke:none;fill-rule:nonzero;fill:#c07c88;fill-opacity:1" d="M61.695 85.914 111.04 13.48 62.11 42.496"/><path style="fill:none;stroke-width:5;stroke-linecap:round;stroke-linejoin:round;stroke:#000;stroke-opacity:1;stroke-miterlimit:10" d="m619.19 1131.352 495.227 726.962-491.071-291.208Zm0 0" transform="matrix(.09964 0 0 -.09964 0 198.64)"/><path style="stroke:none;fill-rule:nonzero;fill:#ab82a8;fill-opacity:1" d="m154.242 95.867-92.547-9.953 47.836-22.062"/><path style="fill:none;stroke-width:5;stroke-linecap:round;stroke-linejoin:round;stroke:#000;stroke-opacity:1;stroke-miterlimit:10" d="m1548.014 1031.46-928.824 99.892 480.094 221.425Zm0 0" transform="matrix(.09964 0 0 -.09964 0 198.64)"/><path style="stroke:none;fill-rule:nonzero;fill:#ae91b9;fill-opacity:1" d="m154.242 95.867-92.547-9.953 42.54 32.332"/><path style="fill:none;stroke-width:5;stroke-linecap:round;stroke-linejoin:round;stroke:#000;stroke-opacity:1;stroke-miterlimit:10" d="m1548.014 1031.46-928.824 99.892 426.933-324.493Zm0 0" transform="matrix(.09964 0 0 -.09964 0 198.64)"/><path style="stroke:none;fill-rule:nonzero;fill:#a597c7;fill-opacity:1" d="m95.813 170.512 58.43-74.645-50.009 22.38"/><path style="fill:none;stroke-width:5;stroke-linecap:round;stroke-linejoin:round;stroke:#000;stroke-opacity:1;stroke-miterlimit:10" d="m961.599 282.308 586.415 749.152-501.891-224.6Zm0 0" transform="matrix(.09964 0 0 -.09964 0 198.64)"/><path style="stroke:none;fill-rule:nonzero;fill:#53267b;fill-opacity:1" d="M154.242 95.867 186.465 52.2l-32.945-.71"/><path style="fill:none;stroke-width:5;stroke-linecap:round;stroke-linejoin:round;stroke:#000;stroke-opacity:1;stroke-miterlimit:10" d="m1548.014 1031.46 323.395 438.263-330.648 7.135Zm0 0" transform="matrix(.09964 0 0 -.09964 0 198.64)"/><path style="stroke:none;fill-rule:nonzero;fill:#8e90d1;fill-opacity:1" d="m95.813 170.512 58.43-74.645-10.192 47.922"/><path style="fill:none;stroke-width:5;stroke-linecap:round;stroke-linejoin:round;stroke:#000;stroke-opacity:1;stroke-miterlimit:10" d="m961.599 282.308 586.415 749.152-102.283-480.956Zm0 0" transform="matrix(.09964 0 0 -.09964 0 198.64)"/><path style="stroke:none;fill-rule:nonzero;fill:#3a42af;fill-opacity:1" d="m175.188 158.012-20.946-62.145 22.547 6.555"/><path style="fill:none;stroke-width:5;stroke-linecap:round;stroke-linejoin:round;stroke:#000;stroke-opacity:1;stroke-miterlimit:10" d="m1758.227 407.761-210.213 623.699 226.286-65.785Zm0 0" transform="matrix(.09964 0 0 -.09964 0 198.64)"/><path style="stroke:none;fill-rule:nonzero;fill:#2e1d89;fill-opacity:1" d="M154.242 95.867 186.465 52.2l-9.676 50.223"/><path style="fill:none;stroke-width:5;stroke-linecap:round;stroke-linejoin:round;stroke:#000;stroke-opacity:1;stroke-miterlimit:10" d="m1548.014 1031.46 323.395 438.263-97.109-504.048Zm0 0" transform="matrix(.09964 0 0 -.09964 0 198.64)"/><path style="stroke:none;fill-rule:nonzero;fill:#6775cc;fill-opacity:1" d="m175.188 158.012-20.946-62.145-10.191 47.922"/><path style="fill:none;stroke-width:5;stroke-linecap:round;stroke-linejoin:round;stroke:#000;stroke-opacity:1;stroke-miterlimit:10" d="m1758.227 407.761-210.213 623.699-102.283-480.956Zm0 0" transform="matrix(.09964 0 0 -.09964 0 198.64)"/><path style="stroke:none;fill-rule:nonzero;fill:#804984;fill-opacity:1" d="M154.242 95.867 111.04 13.48l42.48 38.008"/><path style="fill:none;stroke-width:5;stroke-linecap:round;stroke-linejoin:round;stroke:#000;stroke-opacity:1;stroke-miterlimit:10" d="m1548.014 1031.46-433.597 826.854 426.344-381.456Zm0 0" transform="matrix(.09964 0 0 -.09964 0 198.64)"/><path style="stroke:none;fill-rule:nonzero;fill:#9e6b96;fill-opacity:1" d="M154.242 95.867 111.04 13.48l-1.508 50.372"/><path style="fill:none;stroke-width:5;stroke-linecap:round;stroke-linejoin:round;stroke:#000;stroke-opacity:1;stroke-miterlimit:10" d="m1548.014 1031.46-433.597 826.854-15.133-505.537Zm0 0" transform="matrix(.09964 0 0 -.09964 0 198.64)"/><path style="stroke:none;fill-rule:nonzero;fill:#d1cfd7;fill-opacity:1" d="m95.813 170.512-86.434-32.38 44.441-4.964"/><path style="fill:none;stroke-width:5;stroke-linecap:round;stroke-linejoin:round;stroke:#000;stroke-opacity:1;stroke-miterlimit:10" d="M961.599 282.308 94.129 607.271 540.154 657.1Zm0 0" transform="matrix(.09964 0 0 -.09964 0 198.64)"/><path style="stroke:none;fill-rule:nonzero;fill:#7192e3;fill-opacity:1" d="m95.813 170.512 79.374-12.5-31.136-14.223"/><path style="fill:none;stroke-width:5;stroke-linecap:round;stroke-linejoin:round;stroke:#000;stroke-opacity:1;stroke-miterlimit:10" d="m961.599 282.308 796.628 125.453-312.496 142.743Zm0 0" transform="matrix(.09964 0 0 -.09964 0 198.64)"/><path style="stroke:none;fill-rule:nonzero;fill:#50a1f6;fill-opacity:1" d="m95.813 170.512 79.374-12.5-57.105 20.203"/><path style="fill:none;stroke-width:5;stroke-linecap:round;stroke-linejoin:round;stroke:#000;stroke-opacity:1;stroke-miterlimit:10" d="m961.599 282.308 796.628 125.453-573.125-202.763Zm0 0" transform="matrix(.09964 0 0 -.09964 0 198.64)"/><path style="stroke:none;fill-rule:nonzero;fill:#52c1f7;fill-opacity:1" d="M95.813 170.512 78.55 189.953l39.531-11.738"/><path style="fill:none;stroke-width:5;stroke-linecap:round;stroke-linejoin:round;stroke:#000;stroke-opacity:1;stroke-miterlimit:10" d="M961.599 282.308 788.356 87.19l396.746 117.809Zm0 0" transform="matrix(.09964 0 0 -.09964 0 198.64)"/><path style="stroke:none;fill-rule:nonzero;fill:#caebec;fill-opacity:1" d="m95.813 170.512-86.434-32.38 49.488 32.65"/><path style="fill:none;stroke-width:5;stroke-linecap:round;stroke-linejoin:round;stroke:#000;stroke-opacity:1;stroke-miterlimit:10" d="M961.599 282.308 94.129 607.271l496.677-327.668Zm0 0" transform="matrix(.09964 0 0 -.09964 0 198.64)"/><path style="stroke:none;fill-rule:nonzero;fill:#93e9f8;fill-opacity:1" d="M95.813 170.512 78.55 189.953l-19.684-19.172"/><path style="fill:none;stroke-width:5;stroke-linecap:round;stroke-linejoin:round;stroke:#000;stroke-opacity:1;stroke-miterlimit:10" d="M961.599 282.308 788.356 87.19l-197.55 192.414Zm0 0" transform="matrix(.09964 0 0 -.09964 0 198.64)"/><path style="stroke:none;fill-rule:nonzero;fill:#c66a60;fill-opacity:1" d="M111.04 13.48 18.183 35.734l43.925 6.762"/><path style="fill:none;stroke-width:5;stroke-linecap:round;stroke-linejoin:round;stroke:#000;stroke-opacity:1;stroke-miterlimit:10" d="m1114.417 1858.314-931.922-223.346 440.85-67.862Zm0 0" transform="matrix(.09964 0 0 -.09964 0 198.64)"/><path style="stroke:none;fill-rule:nonzero;fill:#643535;fill-opacity:1" d="m95.813 8.379 15.226 5.101-37.648.13"/><path style="fill:none;stroke-width:5;stroke-linecap:round;stroke-linejoin:round;stroke:#000;stroke-opacity:1;stroke-miterlimit:10" d="m961.599 1909.515 152.818-51.2-377.85-1.295Zm0 0" transform="matrix(.09964 0 0 -.09964 0 198.64)"/><path style="stroke:none;fill-rule:nonzero;fill:#a62200;fill-opacity:1" d="M111.04 13.48 18.183 35.734 73.39 13.61"/><path style="fill:none;stroke-width:5;stroke-linecap:round;stroke-linejoin:round;stroke:#000;stroke-opacity:1;stroke-miterlimit:10" d="m1114.417 1858.314-931.922-223.346 554.072 222.052Zm0 0" transform="matrix(.09964 0 0 -.09964 0 198.64)"/><path style="stroke:none;fill-rule:nonzero;fill:#4d044c;fill-opacity:1" d="m111.04 13.48 75.425 38.72-32.945-.712"/><path style="fill:none;stroke-width:5;stroke-linecap:round;stroke-linejoin:round;stroke:#000;stroke-opacity:1;stroke-miterlimit:10" d="m1114.417 1858.314 756.992-388.591-330.648 7.135Zm0 0" transform="matrix(.09964 0 0 -.09964 0 198.64)"/><path style="stroke:none;fill-rule:nonzero;fill:#3b3b3b;fill-opacity:1" d="m111.04 13.48 75.425 38.72-52.516-33.013"/><path style="fill:none;stroke-width:5;stroke-linecap:round;stroke-linejoin:round;stroke:#000;stroke-opacity:1;stroke-miterlimit:10" d="m1114.417 1858.314 756.992-388.591-527.06 331.314Zm0 0" transform="matrix(.09964 0 0 -.09964 0 198.64)"/><path style="stroke:none;fill-rule:nonzero;fill:#585858;fill-opacity:1" d="m95.813 8.379 15.226 5.101 22.91 5.707"/><path style="fill:none;stroke-width:5;stroke-linecap:round;stroke-linejoin:round;stroke:#000;stroke-opacity:1;stroke-miterlimit:10" d="m961.599 1909.515 152.818-51.2 229.932-57.278Zm0 0" transform="matrix(.09964 0 0 -.09964 0 198.64)"/><path style="stroke:none;fill-rule:nonzero;fill:#f9c18a;fill-opacity:1" d="m9.379 138.133 8.805-102.399 8.03 50.368"/><path style="fill:none;stroke-width:5;stroke-linecap:round;stroke-linejoin:round;stroke:#000;stroke-opacity:1;stroke-miterlimit:10" d="m94.13 607.271 88.365 1027.697L263.1 1129.47Zm0 0" transform="matrix(.09964 0 0 -.09964 0 198.64)"/><path style="stroke:none;fill-rule:nonzero;fill:#1d1d79;fill-opacity:1" d="m175.188 158.012 11.277-105.813-9.676 50.223"/><path style="fill:none;stroke-width:5;stroke-linecap:round;stroke-linejoin:round;stroke:#000;stroke-opacity:1;stroke-miterlimit:10" d="m1758.227 407.761 113.182 1061.962-97.109-504.048Zm0 0" transform="matrix(.09964 0 0 -.09964 0 198.64)"/><path style="stroke:none;fill-rule:nonzero;fill:#1f105a;fill-opacity:1" d="m9.379 138.133 13.98-41.547 8.371 49.242"/><path style="fill:none;stroke-width:5;stroke-linecap:round;stroke-linejoin:round;stroke:#000;stroke-opacity:1;stroke-miterlimit:10" d="m94.13 607.271 140.31 416.975 84.015-494.207Zm0 0" transform="matrix(.09964 0 0 -.09964 0 198.64)"/><path style="stroke:none;fill-rule:nonzero;fill:#e3ac28;fill-opacity:1" d="m9.379 138.133 8.805-102.399-7.649 53.891"/><path style="fill:none;stroke-width:5;stroke-linecap:round;stroke-linejoin:round;stroke:#000;stroke-opacity:1;stroke-miterlimit:10" d="m94.13 607.271 88.365 1027.697-76.761-540.86Zm0 0" transform="matrix(.09964 0 0 -.09964 0 198.64)"/><path style="stroke:none;fill-rule:nonzero;fill:#1f1f6c;fill-opacity:1" d="m9.379 138.133 13.98-41.547-12.824-6.961"/><path style="fill:none;stroke-width:5;stroke-linecap:round;stroke-linejoin:round;stroke:#000;stroke-opacity:1;stroke-miterlimit:10" d="m94.13 607.271 140.31 416.975-128.706 69.862Zm0 0" transform="matrix(.09964 0 0 -.09964 0 198.64)"/><path style="stroke:none;fill-rule:nonzero;fill:#93eec6;fill-opacity:1" d="M78.55 189.953 9.38 138.133l49.488 32.648"/><path style="fill:none;stroke-width:5;stroke-linecap:round;stroke-linejoin:round;stroke:#000;stroke-opacity:1;stroke-miterlimit:10" d="M788.356 87.19 94.129 607.27l496.677-327.668Zm0 0" transform="matrix(.09964 0 0 -.09964 0 198.64)"/><path style="stroke:none;fill-rule:nonzero;fill:#313131;fill-opacity:1" d="M78.55 189.953 9.38 138.133l22.351 7.695"/><path style="fill:none;stroke-width:5;stroke-linecap:round;stroke-linejoin:round;stroke:#000;stroke-opacity:1;stroke-miterlimit:10" d="M788.356 87.19 94.129 607.27l224.326-77.232Zm0 0" transform="matrix(.09964 0 0 -.09964 0 198.64)"/><path style="stroke:none;fill-rule:nonzero;fill:#006cc7;fill-opacity:1" d="m95.813 8.379-77.63 27.355L73.392 13.61"/><path style="fill:none;stroke-width:5;stroke-linecap:round;stroke-linejoin:round;stroke:#000;stroke-opacity:1;stroke-miterlimit:10" d="m961.599 1909.515-779.104-274.547 554.072 222.052Zm0 0" transform="matrix(.09964 0 0 -.09964 0 198.64)"/><path style="stroke:none;fill-rule:nonzero;fill:#3f83e8;fill-opacity:1" d="m95.813 8.379-77.63 27.355 22.762 6.317"/><path style="fill:none;stroke-width:5;stroke-linecap:round;stroke-linejoin:round;stroke:#000;stroke-opacity:1;stroke-miterlimit:10" d="m961.599 1909.515-779.104-274.547 228.443-63.393Zm0 0" transform="matrix(.09964 0 0 -.09964 0 198.64)"/><path style="stroke:none;fill-rule:nonzero;fill:#00008d;fill-opacity:1" d="m18.184 35.734 5.175 60.852-12.824-6.961"/><path style="fill:none;stroke-width:5;stroke-linecap:round;stroke-linejoin:round;stroke:#000;stroke-opacity:1;stroke-miterlimit:10" d="m182.495 1634.968 51.946-610.722-128.707 69.862Zm0 0" transform="matrix(.09964 0 0 -.09964 0 198.64)"/><path style="stroke:none;fill-rule:nonzero;fill:#375ccb;fill-opacity:1" d="m18.184 35.734 5.175 60.852L40.945 42.05"/><path style="fill:none;stroke-width:5;stroke-linecap:round;stroke-linejoin:round;stroke:#000;stroke-opacity:1;stroke-miterlimit:10" d="m182.495 1634.968 51.946-610.722 176.497 547.33Zm0 0" transform="matrix(.09964 0 0 -.09964 0 198.64)"/><path style="stroke:none;fill-rule:nonzero;fill:#752424;fill-opacity:1" d="m78.55 189.953 96.638-31.941-57.106 20.203"/><path style="fill:none;stroke-width:5;stroke-linecap:round;stroke-linejoin:round;stroke:#000;stroke-opacity:1;stroke-miterlimit:10" d="m788.356 87.19 969.87 320.571-573.124-202.763Zm0 0" transform="matrix(.09964 0 0 -.09964 0 198.64)"/><path style="stroke:none;fill-rule:nonzero;fill:#fabd53;fill-opacity:1" d="m175.188 158.012 11.277-105.813-12.371 55.336"/><path style="fill:none;stroke-width:5;stroke-linecap:round;stroke-linejoin:round;stroke:#000;stroke-opacity:1;stroke-miterlimit:10" d="m1758.227 407.761 113.182 1061.962-124.16-555.366Zm0 0" transform="matrix(.09964 0 0 -.09964 0 198.64)"/><path style="stroke:none;fill-rule:nonzero;fill:#f1ab7d;fill-opacity:1" d="M175.188 158.012 140.016 109.5l34.078-1.965"/><path style="fill:none;stroke-width:5;stroke-linecap:round;stroke-linejoin:round;stroke:#000;stroke-opacity:1;stroke-miterlimit:10" d="m1758.227 407.761-352.994 486.876 342.017 19.72Zm0 0" transform="matrix(.09964 0 0 -.09964 0 198.64)"/><path style="stroke:none;fill-rule:nonzero;fill:#db866c;fill-opacity:1" d="M175.188 158.012 140.016 109.5l-5.22 48.793"/><path style="fill:none;stroke-width:5;stroke-linecap:round;stroke-linejoin:round;stroke:#000;stroke-opacity:1;stroke-miterlimit:10" d="m1758.227 407.761-352.994 486.876-52.377-489.698Zm0 0" transform="matrix(.09964 0 0 -.09964 0 198.64)"/><path style="stroke:none;fill-rule:nonzero;fill:#c04b2a;fill-opacity:1" d="m78.55 189.953 96.638-31.941-40.391.281"/><path style="fill:none;stroke-width:5;stroke-linecap:round;stroke-linejoin:round;stroke:#000;stroke-opacity:1;stroke-miterlimit:10" d="m788.356 87.19 969.87 320.571-405.37-2.822Zm0 0" transform="matrix(.09964 0 0 -.09964 0 198.64)"/><path style="stroke:none;fill-rule:nonzero;fill:#b1fae5;fill-opacity:1" d="m95.813 8.379 90.652 43.82-52.516-33.011"/><path style="fill:none;stroke-width:5;stroke-linecap:round;stroke-linejoin:round;stroke:#000;stroke-opacity:1;stroke-miterlimit:10" d="m961.599 1909.515 909.81-439.792-527.06 331.314Zm0 0" transform="matrix(.09964 0 0 -.09964 0 198.64)"/><path style="stroke:none;fill-rule:nonzero;fill:#f3caa4;fill-opacity:1" d="m140.016 109.5 46.449-57.3-12.371 55.335"/><path style="fill:none;stroke-width:5;stroke-linecap:round;stroke-linejoin:round;stroke:#000;stroke-opacity:1;stroke-miterlimit:10" d="m1405.233 894.637 466.176 575.086-124.16-555.366Zm0 0" transform="matrix(.09964 0 0 -.09964 0 198.64)"/><path style="stroke:none;fill-rule:nonzero;fill:#d7e3df;fill-opacity:1" d="m95.813 8.379 90.652 43.82-40.906.18"/><path style="fill:none;stroke-width:5;stroke-linecap:round;stroke-linejoin:round;stroke:#000;stroke-opacity:1;stroke-miterlimit:10" d="m961.599 1909.515 909.81-439.792-410.546-1.804Zm0 0" transform="matrix(.09964 0 0 -.09964 0 198.64)"/><path style="stroke:none;fill-rule:nonzero;fill:#e3d0c5;fill-opacity:1" d="m140.016 109.5 46.449-57.3-40.906.179"/><path style="fill:none;stroke-width:5;stroke-linecap:round;stroke-linejoin:round;stroke:#000;stroke-opacity:1;stroke-miterlimit:10" d="m1405.233 894.637 466.176 575.086-410.546-1.804Zm0 0" transform="matrix(.09964 0 0 -.09964 0 198.64)"/><path style="stroke:none;fill-rule:nonzero;fill:#65266b;fill-opacity:1" d="M78.55 189.953 23.36 96.586l8.37 49.242"/><path style="fill:none;stroke-width:5;stroke-linecap:round;stroke-linejoin:round;stroke:#000;stroke-opacity:1;stroke-miterlimit:10" d="M788.356 87.19 234.44 1024.245l84.014-494.207Zm0 0" transform="matrix(.09964 0 0 -.09964 0 198.64)"/><path style="stroke:none;fill-rule:nonzero;fill:#b0718c;fill-opacity:1" d="m78.55 189.953 61.466-80.453L78.8 136.281"/><path style="fill:none;stroke-width:5;stroke-linecap:round;stroke-linejoin:round;stroke:#000;stroke-opacity:1;stroke-miterlimit:10" d="m788.356 87.19 616.877 807.447-614.368-268.783Zm0 0" transform="matrix(.09964 0 0 -.09964 0 198.64)"/><path style="stroke:none;fill-rule:nonzero;fill:#c27275;fill-opacity:1" d="m78.55 189.953 61.466-80.453-5.22 48.793"/><path style="fill:none;stroke-width:5;stroke-linecap:round;stroke-linejoin:round;stroke:#000;stroke-opacity:1;stroke-miterlimit:10" d="m788.356 87.19 616.877 807.447-52.377-489.698Zm0 0" transform="matrix(.09964 0 0 -.09964 0 198.64)"/><path style="stroke:none;fill-rule:nonzero;fill:#955c8b;fill-opacity:1" d="M78.55 189.953 23.36 96.586 78.8 136.28"/><path style="fill:none;stroke-width:5;stroke-linecap:round;stroke-linejoin:round;stroke:#000;stroke-opacity:1;stroke-miterlimit:10" d="M788.356 87.19 234.44 1024.245l556.424-398.392Zm0 0" transform="matrix(.09964 0 0 -.09964 0 198.64)"/><path style="stroke:none;fill-rule:nonzero;fill:#7d8dd8;fill-opacity:1" d="M95.813 8.379 23.359 96.586 40.945 42.05"/><path style="fill:none;stroke-width:5;stroke-linecap:round;stroke-linejoin:round;stroke:#000;stroke-opacity:1;stroke-miterlimit:10" d="M961.599 1909.515 234.44 1024.246l176.497 547.33Zm0 0" transform="matrix(.09964 0 0 -.09964 0 198.64)"/><path style="stroke:none;fill-rule:nonzero;fill:#cbc1d0;fill-opacity:1" d="M95.813 8.379 140.016 109.5l5.543-57.121"/><path style="fill:none;stroke-width:5;stroke-linecap:round;stroke-linejoin:round;stroke:#000;stroke-opacity:1;stroke-miterlimit:10" d="m961.599 1909.515 443.634-1014.878 55.63 573.282Zm0 0" transform="matrix(.09964 0 0 -.09964 0 198.64)"/><path style="stroke:none;fill-rule:nonzero;fill:#b7a9ca;fill-opacity:1" d="M95.813 8.379 140.016 109.5 85.21 68.43"/><path style="fill:none;stroke-width:5;stroke-linecap:round;stroke-linejoin:round;stroke:#000;stroke-opacity:1;stroke-miterlimit:10" d="m961.599 1909.515 443.634-1014.878-550.034 412.193Zm0 0" transform="matrix(.09964 0 0 -.09964 0 198.64)"/><path style="stroke:none;fill-rule:nonzero;fill:#a098cc;fill-opacity:1" d="M95.813 8.379 23.359 96.586 85.211 68.43"/><path style="fill:none;stroke-width:5;stroke-linecap:round;stroke-linejoin:round;stroke:#000;stroke-opacity:1;stroke-miterlimit:10" d="M961.599 1909.515 234.44 1024.246l620.758 282.584Zm0 0" transform="matrix(.09964 0 0 -.09964 0 198.64)"/><path style="stroke:none;fill-rule:nonzero;fill:#a97ea4;fill-opacity:1" d="M23.36 96.586 140.015 109.5 78.8 136.281"/><path style="fill:none;stroke-width:5;stroke-linecap:round;stroke-linejoin:round;stroke:#000;stroke-opacity:1;stroke-miterlimit:10" d="m234.44 1024.246 1170.793-129.609-614.368-268.783Zm0 0" transform="matrix(.09964 0 0 -.09964 0 198.64)"/><path style="stroke:none;fill-rule:nonzero;fill:#ac91ba;fill-opacity:1" d="M23.36 96.586 140.015 109.5 85.21 68.43"/><path style="fill:none;stroke-width:5;stroke-linecap:round;stroke-linejoin:round;stroke:#000;stroke-opacity:1;stroke-miterlimit:10" d="m234.44 1024.246 1170.793-129.609-550.034 412.193Zm0 0" transform="matrix(.09964 0 0 -.09964 0 198.64)"/></svg>