<svg xmlns="http://www.w3.org/2000/svg" width="164.293" height="257.08" viewBox="0 0 123.22 192.81" version="1.2"><defs><clipPath id="a"><path d="M6 .512h62V35H6Zm0 0"/></clipPath><clipPath id="b"><path d="M5 .512h63V35H5Zm0 0"/></clipPath><clipPath id="c"><path d="M57 .512h50V54H57Zm0 0"/></clipPath><clipPath id="d"><path d="M57 .512h50V55H57Zm0 0"/></clipPath><clipPath id="e"><path d="M106 53h16.445v68H106Zm0 0"/></clipPath><clipPath id="f"><path d="M105 53h17.445v69H105Zm0 0"/></clipPath><clipPath id="g"><path d="M12 164h64v28.11H12Zm0 0"/></clipPath><clipPath id="h"><path d="M63 91h59.445v101H63Zm0 0"/></clipPath><clipPath id="i"><path d="M108 91h14.445v31H108Zm0 0"/></clipPath><clipPath id="j"><path d="M62 120h48v72.11H62Zm0 0"/></clipPath><clipPath id="k"><path d="M6 .512h62V26H6Zm0 0"/></clipPath><clipPath id="l"><path d="M5 .512h63V26H5Zm0 0"/></clipPath><clipPath id="m"><path d="M54 .512h53V54H54Zm0 0"/></clipPath><clipPath id="n"><path d="M54 .512h53V55H54Zm0 0"/></clipPath><clipPath id="o"><path d="M54 .512h68.445V92H54Zm0 0"/></clipPath><clipPath id="p"><path d="M105 53h17.445v40H105Zm0 0"/></clipPath><clipPath id="q"><path d="M12 137h52v55.11H12Zm0 0"/></clipPath><clipPath id="r"><path d="M6 .512h49V64H6Zm0 0"/></clipPath><clipPath id="s"><path d="M5 .512h50V64H5Zm0 0"/></clipPath><clipPath id="t"><path d="M54 .512h68.445V92H54Zm0 0"/></clipPath><clipPath id="u"><path d="M54 .512h68.445V93H54Zm0 0"/></clipPath><clipPath id="v"><path d="M90 60h32.445v76H90Zm0 0"/></clipPath><clipPath id="w"><path d="M89 60h33.445v77H89Zm0 0"/></clipPath><clipPath id="x"><path d="M63 91h59.445v101H63Zm0 0"/></clipPath><clipPath id="y"><path d="M62 91h60.445v101.11H62Zm0 0"/></clipPath><clipPath id="z"><path d="M19 135h75v57.11H19Zm0 0"/></clipPath><clipPath id="A"><path d="M16 .512h75V64H16Zm0 0"/></clipPath></defs><path style="stroke:none;fill-rule:nonzero;fill:#c5bad1;fill-opacity:1" d="M3.7 123.465 32.894 85.52l29.78 52.37L3.7 123.466"/><path style="fill:none;stroke-width:6.76001;stroke-linecap:round;stroke-linejoin:round;stroke:#231f20;stroke-opacity:1;stroke-miterlimit:10" d="m37.226 690.789 293.802 381.855 299.697-527.026Zm0 0" transform="matrix(.09937 0 0 -.09937 0 192.11)"/><path style="stroke:none;fill-rule:nonzero;fill:#dfb9b5;fill-opacity:1" d="M32.895 85.52 3.699 123.465.336 57.895 32.895 85.52"/><path style="fill:none;stroke-width:6.76001;stroke-linecap:round;stroke-linejoin:round;stroke:#231f20;stroke-opacity:1;stroke-miterlimit:10" d="M331.028 1072.644 37.226 690.789 3.381 1350.642Zm0 0" transform="matrix(.09937 0 0 -.09937 0 192.11)"/><path style="stroke:none;fill-rule:nonzero;fill:#c98f9d;fill-opacity:1" d="M32.895 85.52.335 57.895 57.86 34.14 32.895 85.52"/><path style="fill:none;stroke-width:6.76001;stroke-linecap:round;stroke-linejoin:round;stroke:#231f20;stroke-opacity:1;stroke-miterlimit:10" d="M331.028 1072.644 3.38 1350.642l578.875 239.043Zm0 0" transform="matrix(.09937 0 0 -.09937 0 192.11)"/><path style="stroke:none;fill-rule:nonzero;fill:#9580ba;fill-opacity:1" d="m32.895 85.52 24.964-51.38 51.317 86.731"/><path style="fill:none;stroke-width:6.76001;stroke-linecap:round;stroke-linejoin:round;stroke:#231f20;stroke-opacity:1;stroke-miterlimit:10" d="m331.028 1072.644 251.228 517.041" transform="matrix(.09937 0 0 -.09937 0 192.11)"/><path style="fill-rule:nonzero;fill:#9580ba;fill-opacity:1;stroke-width:6.76001;stroke-linecap:round;stroke-linejoin:round;stroke:#231f20;stroke-opacity:1;stroke-miterlimit:10" d="M1098.669 716.89 630.725 545.618l-299.697 527.026" transform="matrix(.09937 0 0 -.09937 0 192.11)"/><path style="stroke:none;fill-rule:nonzero;fill:#858fcf;fill-opacity:1" d="m75.184 178.664-12.508-40.773 46.5-17.02-33.992 57.793"/><path style="fill:none;stroke-width:6.76001;stroke-linecap:round;stroke-linejoin:round;stroke:#231f20;stroke-opacity:1;stroke-miterlimit:10" d="m756.595 135.302-125.87 410.316L1098.67 716.89Zm0 0" transform="matrix(.09937 0 0 -.09937 0 192.11)"/><path style="fill-rule:nonzero;fill:#c4cee1;fill-opacity:1;stroke-width:6.76001;stroke-linecap:round;stroke-linejoin:round;stroke:#231f20;stroke-opacity:1;stroke-miterlimit:10" d="m37.226 690.789 593.5-145.171 125.87-410.316" transform="matrix(.09937 0 0 -.09937 0 192.11)"/><path style="fill-rule:nonzero;fill:#9580ba;fill-opacity:1;stroke-width:6.76001;stroke-linecap:round;stroke-linejoin:round;stroke:#231f20;stroke-opacity:1;stroke-miterlimit:10" d="m582.256 1589.685 487.756-199.065 28.657-673.73" transform="matrix(.09937 0 0 -.09937 0 192.11)"/><path style="fill-rule:nonzero;fill:#c9756d;fill-opacity:1;stroke-width:6.76001;stroke-linecap:round;stroke-linejoin:round;stroke:#231f20;stroke-opacity:1;stroke-miterlimit:10" d="M582.256 1589.685 3.381 1350.642l57.706 327.254" transform="matrix(.09937 0 0 -.09937 0 192.11)"/><g clip-path="url(#a)"><path style="stroke:none;fill-rule:nonzero;fill:#c9756d;fill-opacity:1" d="M6.07 25.375 67.078.844 57.86 34.14"/></g><g clip-path="url(#b)"><path style="fill:none;stroke-width:6.76001;stroke-linecap:round;stroke-linejoin:round;stroke:#231f20;stroke-opacity:1;stroke-miterlimit:10" d="m61.087 1677.896 613.94 246.866-92.77-335.077" transform="matrix(.09937 0 0 -.09937 0 192.11)"/></g><g clip-path="url(#c)"><path style="stroke:none;fill-rule:nonzero;fill:#824f8e;fill-opacity:1" d="M57.86 34.14 67.077.845l39.25 53.078L57.86 34.14"/></g><g clip-path="url(#d)"><path style="fill:none;stroke-width:6.76001;stroke-linecap:round;stroke-linejoin:round;stroke:#231f20;stroke-opacity:1;stroke-miterlimit:10" d="m582.256 1589.685 92.771 335.077 394.985-534.142Zm0 0" transform="matrix(.09937 0 0 -.09937 0 192.11)"/></g><path style="fill-rule:nonzero;fill:#2d3071;fill-opacity:1;stroke-width:6.76001;stroke-linecap:round;stroke-linejoin:round;stroke:#231f20;stroke-opacity:1;stroke-miterlimit:10" d="M61.087 1677.896 3.381 1350.642 37.226 690.79" transform="matrix(.09937 0 0 -.09937 0 192.11)"/><path style="stroke:none;fill-rule:nonzero;fill:#2d3071;fill-opacity:1" d="M16.336 63.324 6.07 25.375l-2.37 98.09"/><path style="fill:none;stroke-width:6.76001;stroke-linecap:round;stroke-linejoin:round;stroke:#231f20;stroke-opacity:1;stroke-miterlimit:10" d="M164.393 1296.002 61.087 1677.896" transform="matrix(.09937 0 0 -.09937 0 192.11)"/><path style="fill-rule:nonzero;fill:#c4cee1;fill-opacity:1;stroke-width:6.76001;stroke-linecap:round;stroke-linejoin:round;stroke:#231f20;stroke-opacity:1;stroke-miterlimit:10" d="m756.595 135.302-624.553 142.93L37.226 690.79" transform="matrix(.09937 0 0 -.09937 0 192.11)"/><path style="stroke:none;fill-rule:nonzero;fill:#2d3071;fill-opacity:1" d="m20.04 137.355-3.704-74.03-12.637 60.14"/><path style="fill:none;stroke-width:6.76001;stroke-linecap:round;stroke-linejoin:round;stroke:#231f20;stroke-opacity:1;stroke-miterlimit:10" d="m201.66 551.003-37.267 744.999" transform="matrix(.09937 0 0 -.09937 0 192.11)"/><path style="fill-rule:nonzero;fill:#2d3071;fill-opacity:1;stroke-width:6.76001;stroke-linecap:round;stroke-linejoin:round;stroke:#231f20;stroke-opacity:1;stroke-miterlimit:10" d="m37.226 690.789 94.816-412.556 69.617 272.77" transform="matrix(.09937 0 0 -.09937 0 192.11)"/><g clip-path="url(#e)"><path style="stroke:none;fill-rule:nonzero;fill:#323394;fill-opacity:1" d="m109.176 120.871-2.848-66.95L122.11 91.93l-12.933 28.941"/></g><g clip-path="url(#f)"><path style="fill:none;stroke-width:6.76001;stroke-linecap:round;stroke-linejoin:round;stroke:#231f20;stroke-opacity:1;stroke-miterlimit:10" d="m1098.669 716.89-28.657 673.73 158.811-382.484Zm0 0" transform="matrix(.09937 0 0 -.09937 0 192.11)"/></g><path style="stroke:none;fill-rule:nonzero;fill:#aee3f4;fill-opacity:1" d="m75.184 178.664-11.871 13.11L13.12 164.46l62.063 14.203"/><g clip-path="url(#g)"><path style="fill:none;stroke-width:6.76001;stroke-linecap:round;stroke-linejoin:round;stroke:#231f20;stroke-opacity:1;stroke-miterlimit:10" d="M756.595 135.302 637.133 3.38 132.042 278.233Zm0 0" transform="matrix(.09937 0 0 -.09937 0 192.11)"/></g><g clip-path="url(#h)"><path style="stroke:none;fill-rule:nonzero;fill:#c36a21;fill-opacity:1" d="m109.176 120.871 12.933-28.941-58.796 99.843"/></g><g clip-path="url(#i)"><path style="fill:none;stroke-width:6.76001;stroke-linecap:round;stroke-linejoin:round;stroke:#231f20;stroke-opacity:1;stroke-miterlimit:10" d="m1098.669 716.89 130.154 291.246" transform="matrix(.09937 0 0 -.09937 0 192.11)"/></g><path style="stroke:none;fill-rule:nonzero;fill:#c36a21;fill-opacity:1" d="m63.313 191.773 11.87-13.109 33.993-57.793"/><g clip-path="url(#j)"><path style="fill:none;stroke-width:6.76001;stroke-linecap:round;stroke-linejoin:round;stroke:#231f20;stroke-opacity:1;stroke-miterlimit:10" d="m637.133 3.379 119.462 131.923L1098.67 716.89" transform="matrix(.09937 0 0 -.09937 0 192.11)"/></g><g clip-path="url(#k)"><path style="stroke:none;fill-rule:nonzero;fill:#862223;fill-opacity:1" d="M6.07 25.375 54.414.953l12.664-.11L6.07 25.376"/></g><g clip-path="url(#l)"><path style="fill:none;stroke-width:6.76001;stroke-linecap:round;stroke-linejoin:round;stroke:#231f20;stroke-opacity:1;stroke-miterlimit:10" d="m61.087 1677.896 486.498 245.765 127.442 1.1Zm0 0" transform="matrix(.09937 0 0 -.09937 0 192.11)"/></g><g clip-path="url(#m)"><path style="stroke:none;fill-rule:nonzero;fill:#e1f2be;fill-opacity:1" d="M106.328 53.922 67.078.844l-12.664.11"/></g><g clip-path="url(#n)"><path style="fill:none;stroke-width:6.76001;stroke-linecap:round;stroke-linejoin:round;stroke:#231f20;stroke-opacity:1;stroke-miterlimit:10" d="m1070.012 1390.62-394.985 534.142-127.442-1.101" transform="matrix(.09937 0 0 -.09937 0 192.11)"/></g><g clip-path="url(#o)"><path style="stroke:none;fill-rule:nonzero;fill:#e1f2be;fill-opacity:1" d="m122.11 91.93-15.782-38.008L54.414.953"/></g><g clip-path="url(#p)"><path style="fill:none;stroke-width:6.76001;stroke-linecap:round;stroke-linejoin:round;stroke:#231f20;stroke-opacity:1;stroke-miterlimit:10" d="m1228.823 1008.136-158.811 382.484" transform="matrix(.09937 0 0 -.09937 0 192.11)"/></g><path style="stroke:none;fill-rule:nonzero;fill:#6c3074;fill-opacity:1" d="m63.313 191.773-43.274-54.418-6.918 27.106 50.191 27.312"/><g clip-path="url(#q)"><path style="fill:none;stroke-width:6.76001;stroke-linecap:round;stroke-linejoin:round;stroke:#231f20;stroke-opacity:1;stroke-miterlimit:10" d="M637.133 3.379 201.659 551.003l-69.617-272.77Zm0 0" transform="matrix(.09937 0 0 -.09937 0 192.11)"/></g><g clip-path="url(#r)"><path style="stroke:none;fill-rule:nonzero;fill:#7289ce;fill-opacity:1" d="m6.07 25.375 10.266 37.95L54.414.952 6.07 25.375"/></g><g clip-path="url(#s)"><path style="fill:none;stroke-width:6.76001;stroke-linecap:round;stroke-linejoin:round;stroke:#231f20;stroke-opacity:1;stroke-miterlimit:10" d="m61.087 1677.896 103.306-381.894 383.192 627.659Zm0 0" transform="matrix(.09937 0 0 -.09937 0 192.11)"/></g><g clip-path="url(#t)"><path style="stroke:none;fill-rule:nonzero;fill:#e1f2be;fill-opacity:1" d="m54.414.953 35.738 59.692L122.11 91.93"/></g><g clip-path="url(#u)"><path style="fill:none;stroke-width:6.76001;stroke-linecap:round;stroke-linejoin:round;stroke:#231f20;stroke-opacity:1;stroke-miterlimit:10" d="m547.585 1923.661 359.645-600.693 321.593-314.832" transform="matrix(.09937 0 0 -.09937 0 192.11)"/></g><g clip-path="url(#v)"><path style="stroke:none;fill-rule:nonzero;fill:#e7bfae;fill-opacity:1" d="m90.152 60.645 3.297 75.109 28.66-43.824-31.957-31.285"/></g><g clip-path="url(#w)"><path style="fill:none;stroke-width:6.76001;stroke-linecap:round;stroke-linejoin:round;stroke:#231f20;stroke-opacity:1;stroke-miterlimit:10" d="m907.23 1322.968 33.178-755.848 288.415 441.016Zm0 0" transform="matrix(.09937 0 0 -.09937 0 192.11)"/></g><g clip-path="url(#x)"><path style="stroke:none;fill-rule:nonzero;fill:#c36a21;fill-opacity:1" d="m122.11 91.93-28.66 43.824-30.138 56.02"/></g><g clip-path="url(#y)"><path style="fill:none;stroke-width:6.76001;stroke-linecap:round;stroke-linejoin:round;stroke:#231f20;stroke-opacity:1;stroke-miterlimit:10" d="M1228.823 1008.136 940.408 567.12 637.133 3.38" transform="matrix(.09937 0 0 -.09937 0 192.11)"/></g><path style="stroke:none;fill-rule:nonzero;fill:#ae85ae;fill-opacity:1" d="m20.04 137.355 43.273 54.418 30.136-56.02-73.41 1.602"/><g clip-path="url(#z)"><path style="fill:none;stroke-width:6.76001;stroke-linecap:round;stroke-linejoin:round;stroke:#231f20;stroke-opacity:1;stroke-miterlimit:10" d="M201.66 551.003 637.132 3.38 940.408 567.12Zm0 0" transform="matrix(.09937 0 0 -.09937 0 192.11)"/></g><g clip-path="url(#A)"><path style="stroke:none;fill-rule:nonzero;fill:#ae9dce;fill-opacity:1" d="m16.336 63.324 73.816-2.68L54.414.955l-38.078 62.37"/><path style="fill:none;stroke-width:6.76001;stroke-linecap:round;stroke-linejoin:round;stroke:#231f20;stroke-opacity:1;stroke-miterlimit:10" d="m164.393 1296.002 742.837 26.966-359.645 600.693Zm0 0" transform="matrix(.09937 0 0 -.09937 0 192.11)"/></g><path style="fill-rule:nonzero;fill:#af91bf;fill-opacity:1;stroke-width:6.76001;stroke-linecap:round;stroke-linejoin:round;stroke:#231f20;stroke-opacity:1;stroke-miterlimit:10" d="m907.23 1322.968-742.837-26.966 37.266-744.999M201.66 551.003l738.748 16.117-33.178 755.848" transform="matrix(.09937 0 0 -.09937 0 192.11)"/></svg>