<svg xmlns="http://www.w3.org/2000/svg" width="265.52" height="258.76" viewBox="0 0 199.14 194.07" version="1.2"><defs><clipPath id="a"><path d="M45 187h40v6.145H45Zm0 0"/></clipPath><clipPath id="b"><path d="M84 186h49v7.145H84Zm0 0"/></clipPath><clipPath id="c"><path d="M190 60h8.238v59H190Zm0 0"/></clipPath><clipPath id="d"><path d="M176 104h22.238v56H176Zm0 0"/></clipPath><clipPath id="e"><path d="M.047 47H29v94H.047Zm0 0"/></clipPath><clipPath id="f"><path d="M.047 127H6v14H.047Zm0 0"/></clipPath><clipPath id="g"><path d="M.047 127H27v31H.047Zm0 0"/></clipPath><clipPath id="h"><path d="M.047 127H27v32H.047Zm0 0"/></clipPath><clipPath id="i"><path d="M163 23h35.238v83H163Zm0 0"/></clipPath><clipPath id="j"><path d="M180 104h18.238v37H180Zm0 0"/></clipPath><clipPath id="k"><path d="M167 104h31.238v71H167Zm0 0"/></clipPath><clipPath id="l"><path d="M45 161h40v32.145H45Zm0 0"/></clipPath><clipPath id="m"><path d="M.047 47H29v81H.047Zm0 0"/></clipPath><clipPath id="n"><path d="M.047 47H29v82H.047Zm0 0"/></clipPath><clipPath id="o"><path d="M.047 92H27v66H.047Zm0 0"/></clipPath><clipPath id="p"><path d="M.047 91H27v68H.047Zm0 0"/></clipPath><clipPath id="q"><path d="M84 186h49v7.145H84Zm0 0"/></clipPath><clipPath id="r"><path d="M65 135h39v58.145H65Zm0 0"/></clipPath></defs><path style="fill-rule:nonzero;fill:#b4a1cb;fill-opacity:1;stroke-width:7.36001;stroke-linecap:round;stroke-linejoin:round;stroke:#231f20;stroke-opacity:1;stroke-miterlimit:10" d="m753.83 836.135 419.186 48.552 51.456-404.939" transform="matrix(.09952 0 0 -.09952 .047 193.144)"/><path style="stroke:none;fill-rule:nonzero;fill:#b699bf;fill-opacity:1" d="m116.79 105.098-41.72 4.832 16.723-38.547 24.996 33.715"/><path style="fill:none;stroke-width:7.36001;stroke-linecap:round;stroke-linejoin:round;stroke:#231f20;stroke-opacity:1;stroke-miterlimit:10" d="m1173.016 884.687-419.187-48.552 168.028 387.316Zm0 0" transform="matrix(.09952 0 0 -.09952 .047 193.144)"/><path style="fill-rule:nonzero;fill:#a292c7;fill-opacity:1;stroke-width:7.36001;stroke-linecap:round;stroke-linejoin:round;stroke:#231f20;stroke-opacity:1;stroke-miterlimit:10" d="m1173.016 884.687 328.049 228.159 266.309-265.878" transform="matrix(.09952 0 0 -.09952 .047 193.144)"/><path style="stroke:none;fill-rule:nonzero;fill:#a292c7;fill-opacity:1" d="m121.91 145.398-5.12-40.3 59.151 3.754"/><path style="fill:none;stroke-width:7.36001;stroke-linecap:round;stroke-linejoin:round;stroke:#231f20;stroke-opacity:1;stroke-miterlimit:10" d="m1224.472 479.748-51.456 404.94" transform="matrix(.09952 0 0 -.09952 .047 193.144)"/><path style="fill-rule:nonzero;fill:#ad8cb9;fill-opacity:1;stroke-width:7.36001;stroke-linecap:round;stroke-linejoin:round;stroke:#231f20;stroke-opacity:1;stroke-miterlimit:10" d="m1501.065 1112.846-328.05-228.159-251.158 338.764" transform="matrix(.09952 0 0 -.09952 .047 193.144)"/><path style="fill-rule:nonzero;fill:#c7b0c8;fill-opacity:1;stroke-width:7.36001;stroke-linecap:round;stroke-linejoin:round;stroke:#231f20;stroke-opacity:1;stroke-miterlimit:10" d="m387.394 984.146 366.435-148.01 46.786-405.646" transform="matrix(.09952 0 0 -.09952 .047 193.144)"/><path style="fill-rule:nonzero;fill:#b4a1cb;fill-opacity:1;stroke-width:7.36001;stroke-linecap:round;stroke-linejoin:round;stroke:#231f20;stroke-opacity:1;stroke-miterlimit:10" d="M1224.472 479.748 800.615 430.49l-46.786 405.645" transform="matrix(.09952 0 0 -.09952 .047 193.144)"/><path style="fill-rule:nonzero;fill:#c19cb9;fill-opacity:1;stroke-width:7.36001;stroke-linecap:round;stroke-linejoin:round;stroke:#231f20;stroke-opacity:1;stroke-miterlimit:10" d="M921.857 1223.451 753.829 836.135l-366.435 148.01" transform="matrix(.09952 0 0 -.09952 .047 193.144)"/><path style="fill-rule:nonzero;fill:#b886a6;fill-opacity:1;stroke-width:7.36001;stroke-linecap:round;stroke-linejoin:round;stroke:#231f20;stroke-opacity:1;stroke-miterlimit:10" d="m1247.12 1457.026-325.263-233.575-364.551 154.251" transform="matrix(.09952 0 0 -.09952 .047 193.144)"/><path style="fill-rule:nonzero;fill:#c19cb9;fill-opacity:1;stroke-width:7.36001;stroke-linecap:round;stroke-linejoin:round;stroke:#231f20;stroke-opacity:1;stroke-miterlimit:10" d="m387.394 984.146 169.912 393.556 364.551-154.25" transform="matrix(.09952 0 0 -.09952 .047 193.144)"/><path style="fill-rule:nonzero;fill:#ad8cb9;fill-opacity:1;stroke-width:7.36001;stroke-linecap:round;stroke-linejoin:round;stroke:#231f20;stroke-opacity:1;stroke-miterlimit:10" d="m921.857 1223.451 325.262 233.575 253.946-344.18" transform="matrix(.09952 0 0 -.09952 .047 193.144)"/><path style="fill-rule:nonzero;fill:#a292c7;fill-opacity:1;stroke-width:7.36001;stroke-linecap:round;stroke-linejoin:round;stroke:#231f20;stroke-opacity:1;stroke-miterlimit:10" d="m1767.374 846.968-175.172-399.17-367.73 31.95" transform="matrix(.09952 0 0 -.09952 .047 193.144)"/><path style="fill-rule:nonzero;fill:#90c7ed;fill-opacity:1;stroke-width:7.36001;stroke-linecap:round;stroke-linejoin:round;stroke:#231f20;stroke-opacity:1;stroke-miterlimit:10" d="m800.615 430.49 423.857 49.258 367.73-31.95" transform="matrix(.09952 0 0 -.09952 .047 193.144)"/><path style="stroke:none;fill-rule:nonzero;fill:#c7b0c8;fill-opacity:1" d="m19.594 126.977 19.008-31.778 41.125 55.102"/><path style="fill:none;stroke-width:7.36001;stroke-linecap:round;stroke-linejoin:round;stroke:#231f20;stroke-opacity:1;stroke-miterlimit:10" d="m196.405 664.85 190.989 319.296" transform="matrix(.09952 0 0 -.09952 .047 193.144)"/><path style="fill-rule:nonzero;fill:#c7b0c8;fill-opacity:1;stroke-width:7.36001;stroke-linecap:round;stroke-linejoin:round;stroke:#231f20;stroke-opacity:1;stroke-miterlimit:10" d="m800.615 430.49-342.61-114.766-261.6 349.126" transform="matrix(.09952 0 0 -.09952 .047 193.144)"/><path style="fill-rule:nonzero;fill:#90c7ed;fill-opacity:1;stroke-width:7.36001;stroke-linecap:round;stroke-linejoin:round;stroke:#231f20;stroke-opacity:1;stroke-miterlimit:10" d="m320.12 171.245 137.884 144.479 342.61 114.766" transform="matrix(.09952 0 0 -.09952 .047 193.144)"/><path style="stroke:none;fill-rule:nonzero;fill:#90c7ed;fill-opacity:1" d="m45.867 188.238-13.96-12.136 47.82-25.801"/><path style="fill:none;stroke-width:7.36001;stroke-linecap:round;stroke-linejoin:round;stroke:#231f20;stroke-opacity:1;stroke-miterlimit:10" d="M460.398 49.297 320.12 171.245" transform="matrix(.09952 0 0 -.09952 .047 193.144)"/><path style="stroke:none;fill-rule:nonzero;fill:#90c7ed;fill-opacity:1" d="m84.465 192.777-38.598-4.539 33.86-37.937"/><g clip-path="url(#a)"><path style="fill:none;stroke-width:7.36001;stroke-linecap:round;stroke-linejoin:round;stroke:#231f20;stroke-opacity:1;stroke-miterlimit:10" d="M848.225 3.689 460.398 49.297" transform="matrix(.09952 0 0 -.09952 .047 193.144)"/></g><path style="stroke:none;fill-rule:nonzero;fill:#90c7ed;fill-opacity:1" d="m132.027 187.219-47.562 5.558-4.738-42.476"/><g clip-path="url(#b)"><path style="fill:none;stroke-width:7.36001;stroke-linecap:round;stroke-linejoin:round;stroke:#231f20;stroke-opacity:1;stroke-miterlimit:10" d="M1326.129 59.54 848.225 3.69" transform="matrix(.09952 0 0 -.09952 .047 193.144)"/></g><path style="stroke:none;fill-rule:nonzero;fill:#90c7ed;fill-opacity:1" d="m167.422 174.047-35.395 13.172-52.3-36.918"/><path style="fill:none;stroke-width:7.36001;stroke-linecap:round;stroke-linejoin:round;stroke:#231f20;stroke-opacity:1;stroke-miterlimit:10" d="M1681.77 191.89 1326.13 59.54" transform="matrix(.09952 0 0 -.09952 .047 193.144)"/><path style="stroke:none;fill-rule:nonzero;fill:#90c7ed;fill-opacity:1" d="m176.594 159.234-9.172 14.813L79.727 150.3"/><path style="fill:none;stroke-width:7.36001;stroke-linecap:round;stroke-linejoin:round;stroke:#231f20;stroke-opacity:1;stroke-miterlimit:10" d="M1773.929 340.726 1681.77 191.89" transform="matrix(.09952 0 0 -.09952 .047 193.144)"/><path style="stroke:none;fill-rule:nonzero;fill:#90c7ed;fill-opacity:1" d="m158.508 148.578 18.086 10.656-96.867-8.933"/><path style="fill:none;stroke-width:7.36001;stroke-linecap:round;stroke-linejoin:round;stroke:#231f20;stroke-opacity:1;stroke-miterlimit:10" d="m1592.202 447.799 181.727-107.073" transform="matrix(.09952 0 0 -.09952 .047 193.144)"/><path style="stroke:none;fill-rule:nonzero;fill:#a17cb1;fill-opacity:1" d="M161.016 49.227 149.438 82.39l-25.274-34.254 36.852 1.09"/><path style="fill:none;stroke-width:7.36001;stroke-linecap:round;stroke-linejoin:round;stroke:#231f20;stroke-opacity:1;stroke-miterlimit:10" d="m1617.4 1446.075-116.335-333.23-253.946 344.181Zm0 0" transform="matrix(.09952 0 0 -.09952 .047 193.144)"/><path style="fill-rule:nonzero;fill:#8e75b4;fill-opacity:1;stroke-width:7.36001;stroke-linecap:round;stroke-linejoin:round;stroke:#231f20;stroke-opacity:1;stroke-miterlimit:10" d="m1501.065 1112.846 116.336 333.23 275.297-265.407" transform="matrix(.09952 0 0 -.09952 .047 193.144)"/><path style="fill-rule:nonzero;fill:#8e75b4;fill-opacity:1;stroke-width:7.36001;stroke-linecap:round;stroke-linejoin:round;stroke:#231f20;stroke-opacity:1;stroke-miterlimit:10" d="m1892.698 1180.669-125.324-333.7-266.31 265.877" transform="matrix(.09952 0 0 -.09952 .047 193.144)"/><path style="stroke:none;fill-rule:nonzero;fill:#eea15e;fill-opacity:1" d="m38.602 95.2-19.008 31.777 8.707-79.07"/><path style="fill:none;stroke-width:7.36001;stroke-linecap:round;stroke-linejoin:round;stroke:#231f20;stroke-opacity:1;stroke-miterlimit:10" d="M387.394 984.146 196.405 664.85" transform="matrix(.09952 0 0 -.09952 .047 193.144)"/><path style="stroke:none;fill-rule:nonzero;fill:#eea15e;fill-opacity:1" d="M55.512 56.031 38.602 95.2 28.3 47.906"/><path style="fill:none;stroke-width:7.36001;stroke-linecap:round;stroke-linejoin:round;stroke:#231f20;stroke-opacity:1;stroke-miterlimit:10" d="M557.306 1377.702 387.394 984.146" transform="matrix(.09952 0 0 -.09952 .047 193.144)"/><path style="fill-rule:nonzero;fill:#b886a6;fill-opacity:1;stroke-width:7.36001;stroke-linecap:round;stroke-linejoin:round;stroke:#231f20;stroke-opacity:1;stroke-miterlimit:10" d="m651.113 1718.507 436.77 50.044 159.236-311.525" transform="matrix(.09952 0 0 -.09952 .047 193.144)"/><path style="stroke:none;fill-rule:nonzero;fill:#b886a6;fill-opacity:1" d="m55.512 56.031 9.336-33.918 59.316 26.024"/><path style="fill:none;stroke-width:7.36001;stroke-linecap:round;stroke-linejoin:round;stroke:#231f20;stroke-opacity:1;stroke-miterlimit:10" d="m557.306 1377.702 93.807 340.805" transform="matrix(.09952 0 0 -.09952 .047 193.144)"/><path style="fill-rule:nonzero;fill:#9f6a9a;fill-opacity:1;stroke-width:7.36001;stroke-linecap:round;stroke-linejoin:round;stroke:#231f20;stroke-opacity:1;stroke-miterlimit:10" d="m1617.4 1446.075-370.28 10.951-159.237 311.525" transform="matrix(.09952 0 0 -.09952 .047 193.144)"/><path style="stroke:none;fill-rule:nonzero;fill:#eea15e;fill-opacity:1" d="m64.848 22.113-9.336 33.918L28.3 47.906"/><path style="fill:none;stroke-width:7.36001;stroke-linecap:round;stroke-linejoin:round;stroke:#231f20;stroke-opacity:1;stroke-miterlimit:10" d="m651.113 1718.507-93.807-340.805" transform="matrix(.09952 0 0 -.09952 .047 193.144)"/><path style="fill-rule:nonzero;fill:#777fc8;fill-opacity:1;stroke-width:7.36001;stroke-linecap:round;stroke-linejoin:round;stroke:#231f20;stroke-opacity:1;stroke-miterlimit:10" d="m1592.202 447.799 175.172 399.17 188.516-92.552M1955.89 754.417 1773.93 340.726l-181.727 107.073" transform="matrix(.09952 0 0 -.09952 .047 193.144)"/><path style="fill-rule:nonzero;fill:#dcd4d5;fill-opacity:1;stroke-width:7.36001;stroke-linecap:round;stroke-linejoin:round;stroke:#231f20;stroke-opacity:1;stroke-miterlimit:10" d="m48.355 533.01 148.05 131.84 261.6-349.126M458.004 315.724 320.12 171.245 48.355 533.01" transform="matrix(.09952 0 0 -.09952 .047 193.144)"/><path style="stroke:none;fill-rule:nonzero;fill:#6c67b5;fill-opacity:1" d="m188.414 75.64 6.29 42.422-18.763-9.21 12.473-33.211"/><path style="fill:none;stroke-width:7.36001;stroke-linecap:round;stroke-linejoin:round;stroke:#231f20;stroke-opacity:1;stroke-miterlimit:10" d="m1892.698 1180.669 63.192-426.252-188.516 92.551Zm0 0" transform="matrix(.09952 0 0 -.09952 .047 193.144)"/><path style="stroke:none;fill-rule:nonzero;fill:#eea15e;fill-opacity:1" d="m19.594 126.977-14.735 13.12 23.442-92.19"/><path style="fill:none;stroke-width:7.36001;stroke-linecap:round;stroke-linejoin:round;stroke:#231f20;stroke-opacity:1;stroke-miterlimit:10" d="M196.405 664.85 48.355 533.01" transform="matrix(.09952 0 0 -.09952 .047 193.144)"/><path style="stroke:none;fill-rule:nonzero;fill:#52286b;fill-opacity:1" d="m161.016 49.227-15.274-31.668 45.551 43.32"/><path style="fill:none;stroke-width:7.36001;stroke-linecap:round;stroke-linejoin:round;stroke:#231f20;stroke-opacity:1;stroke-miterlimit:10" d="m1617.4 1446.075-153.466 318.198" transform="matrix(.09952 0 0 -.09952 .047 193.144)"/><path style="fill-rule:nonzero;fill:#52286b;fill-opacity:1;stroke-width:7.36001;stroke-linecap:round;stroke-linejoin:round;stroke:#231f20;stroke-opacity:1;stroke-miterlimit:10" d="m1921.625 1328.994-28.927-148.325-275.297 265.406" transform="matrix(.09952 0 0 -.09952 .047 193.144)"/><path style="fill-rule:nonzero;fill:#9f6a9a;fill-opacity:1;stroke-width:7.36001;stroke-linecap:round;stroke-linejoin:round;stroke:#231f20;stroke-opacity:1;stroke-miterlimit:10" d="m1087.883 1768.55 376.051-4.277 153.467-318.198" transform="matrix(.09952 0 0 -.09952 .047 193.144)"/><path style="fill-rule:nonzero;fill:#af5b69;fill-opacity:1;stroke-width:7.36001;stroke-linecap:round;stroke-linejoin:round;stroke:#231f20;stroke-opacity:1;stroke-miterlimit:10" d="m631.252 1885.083 453.766 51.928 2.865-168.46" transform="matrix(.09952 0 0 -.09952 .047 193.144)"/><path style="fill-rule:nonzero;fill:#af5b69;fill-opacity:1;stroke-width:7.36001;stroke-linecap:round;stroke-linejoin:round;stroke:#231f20;stroke-opacity:1;stroke-miterlimit:10" d="m1087.883 1768.55-436.77-50.043-19.86 166.576" transform="matrix(.09952 0 0 -.09952 .047 193.144)"/><path style="stroke:none;fill-rule:nonzero;fill:#954469;fill-opacity:1" d="m145.742 17.559-37.426-.426-.285-16.766 37.711 17.192"/><path style="fill:none;stroke-width:7.36001;stroke-linecap:round;stroke-linejoin:round;stroke:#231f20;stroke-opacity:1;stroke-miterlimit:10" d="m1463.934 1764.273-376.05 4.278-2.866 168.46Zm0 0" transform="matrix(.09952 0 0 -.09952 .047 193.144)"/><path style="stroke:none;fill-rule:nonzero;fill:#eea15e;fill-opacity:1" d="m62.871 5.535 1.977 16.578L28.3 47.906"/><path style="fill:none;stroke-width:7.36001;stroke-linecap:round;stroke-linejoin:round;stroke:#231f20;stroke-opacity:1;stroke-miterlimit:10" d="m631.252 1885.083 19.86-166.576" transform="matrix(.09952 0 0 -.09952 .047 193.144)"/><path style="fill-rule:nonzero;fill:#292960;fill-opacity:1;stroke-width:7.36001;stroke-linecap:round;stroke-linejoin:round;stroke:#231f20;stroke-opacity:1;stroke-miterlimit:10" d="m1955.89 754.417-63.192 426.252 28.927 148.325" transform="matrix(.09952 0 0 -.09952 .047 193.144)"/><path style="fill-rule:nonzero;fill:#52286b;fill-opacity:1;stroke-width:7.36001;stroke-linecap:round;stroke-linejoin:round;stroke:#231f20;stroke-opacity:1;stroke-miterlimit:10" d="m1463.934 1764.273 182.708-60.445 274.983-374.834" transform="matrix(.09952 0 0 -.09952 .047 193.144)"/><path style="fill-rule:nonzero;fill:#231f20;fill-opacity:1;stroke-width:7.36001;stroke-linecap:round;stroke-linejoin:round;stroke:#231f20;stroke-opacity:1;stroke-miterlimit:10" d="m1256.147 1882.218 390.495-178.39-182.708 60.445" transform="matrix(.09952 0 0 -.09952 .047 193.144)"/><path style="fill-rule:nonzero;fill:#231f20;fill-opacity:1;stroke-width:7.36001;stroke-linecap:round;stroke-linejoin:round;stroke:#231f20;stroke-opacity:1;stroke-miterlimit:10" d="m1463.934 1764.273-378.916 172.738 171.129-54.793" transform="matrix(.09952 0 0 -.09952 .047 193.144)"/><path style="stroke:none;fill-rule:nonzero;fill:#292960;fill-opacity:1" d="m191.293 60.879 6.574 43.93-3.164 13.254"/><g clip-path="url(#c)"><path style="fill:none;stroke-width:7.36001;stroke-linecap:round;stroke-linejoin:round;stroke:#231f20;stroke-opacity:1;stroke-miterlimit:10" d="m1921.625 1328.994 66.057-441.402-31.792-133.175" transform="matrix(.09952 0 0 -.09952 .047 193.144)"/></g><path style="stroke:none;fill-rule:nonzero;fill:#cf7e20;fill-opacity:1" d="m176.594 159.234 18.11-41.172 3.163-13.253"/><g clip-path="url(#d)"><path style="fill:none;stroke-width:7.36001;stroke-linecap:round;stroke-linejoin:round;stroke:#231f20;stroke-opacity:1;stroke-miterlimit:10" d="m1773.929 340.726 181.961 413.691 31.792 133.175" transform="matrix(.09952 0 0 -.09952 .047 193.144)"/></g><path style="stroke:none;fill-rule:nonzero;fill:#cf7e20;fill-opacity:1" d="m167.422 174.047 9.172-14.813 21.273-54.425"/><path style="fill:none;stroke-width:7.36001;stroke-linecap:round;stroke-linejoin:round;stroke:#231f20;stroke-opacity:1;stroke-miterlimit:10" d="m1681.77 191.89 92.159 148.836" transform="matrix(.09952 0 0 -.09952 .047 193.144)"/><path style="fill-rule:nonzero;fill:#231f20;fill-opacity:1;stroke-width:7.36001;stroke-linecap:round;stroke-linejoin:round;stroke:#231f20;stroke-opacity:1;stroke-miterlimit:10" d="M320.12 171.245 460.398 49.297l-196.17 304.106" transform="matrix(.09952 0 0 -.09952 .047 193.144)"/><path style="stroke:none;fill-rule:nonzero;fill:#231f20;fill-opacity:1" d="m4.86 140.098 27.046 36.004-5.562-18.13"/><path style="fill:none;stroke-width:7.36001;stroke-linecap:round;stroke-linejoin:round;stroke:#231f20;stroke-opacity:1;stroke-miterlimit:10" d="M48.355 533.01 320.12 171.245" transform="matrix(.09952 0 0 -.09952 .047 193.144)"/><g clip-path="url(#e)"><path style="stroke:none;fill-rule:nonzero;fill:#eea15e;fill-opacity:1" d="M4.86 140.098.413 127.695l27.887-79.789"/></g><g clip-path="url(#f)"><path style="fill:none;stroke-width:7.36001;stroke-linecap:round;stroke-linejoin:round;stroke:#231f20;stroke-opacity:1;stroke-miterlimit:10" d="M48.355 533.01 3.69 657.628" transform="matrix(.09952 0 0 -.09952 .047 193.144)"/></g><g clip-path="url(#g)"><path style="stroke:none;fill-rule:nonzero;fill:#231f20;fill-opacity:1" d="M26.344 157.973.414 127.695l4.445 12.403"/></g><g clip-path="url(#h)"><path style="fill:none;stroke-width:7.36001;stroke-linecap:round;stroke-linejoin:round;stroke:#231f20;stroke-opacity:1;stroke-miterlimit:10" d="M264.228 353.403 3.69 657.628 48.355 533.01" transform="matrix(.09952 0 0 -.09952 .047 193.144)"/></g><path style="fill-rule:nonzero;fill:#69c8f2;fill-opacity:1;stroke-width:7.36001;stroke-linecap:round;stroke-linejoin:round;stroke:#231f20;stroke-opacity:1;stroke-miterlimit:10" d="m885.983 1790.884 370.164 91.334-171.129 54.793" transform="matrix(.09952 0 0 -.09952 .047 193.144)"/><path style="fill-rule:nonzero;fill:#eea15e;fill-opacity:1;stroke-width:7.36001;stroke-linecap:round;stroke-linejoin:round;stroke:#231f20;stroke-opacity:1;stroke-miterlimit:10" d="m283.893 1459.342 209.554 335.545 137.805 90.196" transform="matrix(.09952 0 0 -.09952 .047 193.144)"/><path style="stroke:none;fill-rule:nonzero;fill:#69c8f2;fill-opacity:1" d="m49.156 14.512 39.067.398L108.03.367"/><path style="fill:none;stroke-width:7.36001;stroke-linecap:round;stroke-linejoin:round;stroke:#231f20;stroke-opacity:1;stroke-miterlimit:10" d="m493.447 1794.887 392.536-4.003" transform="matrix(.09952 0 0 -.09952 .047 193.144)"/><path style="fill-rule:nonzero;fill:#69c8f2;fill-opacity:1;stroke-width:7.36001;stroke-linecap:round;stroke-linejoin:round;stroke:#231f20;stroke-opacity:1;stroke-miterlimit:10" d="m1085.018 1937.01-453.766-51.927-137.805-90.196" transform="matrix(.09952 0 0 -.09952 .047 193.144)"/><path style="stroke:none;fill-rule:nonzero;fill:#cab4ca;fill-opacity:1" d="m197.867 104.809-6.574-43.93-27.367-37.305"/><g clip-path="url(#i)"><path style="fill:none;stroke-width:7.36001;stroke-linecap:round;stroke-linejoin:round;stroke:#231f20;stroke-opacity:1;stroke-miterlimit:10" d="m1987.682 887.592-66.057 441.402-274.983 374.834" transform="matrix(.09952 0 0 -.09952 .047 193.144)"/></g><path style="stroke:none;fill-rule:nonzero;fill:#cab4ca;fill-opacity:1" d="m180.629 140.023 17.238-35.214-33.941-81.235"/><g clip-path="url(#j)"><path style="fill:none;stroke-width:7.36001;stroke-linecap:round;stroke-linejoin:round;stroke:#231f20;stroke-opacity:1;stroke-miterlimit:10" d="m1814.473 533.756 173.21 353.836" transform="matrix(.09952 0 0 -.09952 .047 193.144)"/></g><path style="stroke:none;fill-rule:nonzero;fill:#cab4ca;fill-opacity:1" d="m144.605 152.688 36.024-12.665-16.703-116.449"/><path style="fill:none;stroke-width:7.36001;stroke-linecap:round;stroke-linejoin:round;stroke:#231f20;stroke-opacity:1;stroke-miterlimit:10" d="m1452.513 406.508 361.96 127.248" transform="matrix(.09952 0 0 -.09952 .047 193.144)"/><path style="stroke:none;fill-rule:nonzero;fill:#cab4ca;fill-opacity:1" d="m103.047 136.16 41.558 16.528 19.32-129.114"/><path style="fill:none;stroke-width:7.36001;stroke-linecap:round;stroke-linejoin:round;stroke:#231f20;stroke-opacity:1;stroke-miterlimit:10" d="m1034.935 572.574 417.578-166.066" transform="matrix(.09952 0 0 -.09952 .047 193.144)"/><path style="stroke:none;fill-rule:nonzero;fill:#cab4ca;fill-opacity:1" d="m73.2 96.04 29.847 40.12 60.879-112.586"/><path style="fill:none;stroke-width:7.36001;stroke-linecap:round;stroke-linejoin:round;stroke:#231f20;stroke-opacity:1;stroke-miterlimit:10" d="m735.028 975.707 299.907-403.133" transform="matrix(.09952 0 0 -.09952 .047 193.144)"/><path style="stroke:none;fill-rule:nonzero;fill:#cab4ca;fill-opacity:1" d="m67.79 49.137 5.41 46.902 90.726-72.465"/><path style="fill:none;stroke-width:7.36001;stroke-linecap:round;stroke-linejoin:round;stroke:#231f20;stroke-opacity:1;stroke-miterlimit:10" d="m680.668 1446.978 54.36-471.27" transform="matrix(.09952 0 0 -.09952 .047 193.144)"/><path style="stroke:none;fill-rule:nonzero;fill:#cab4ca;fill-opacity:1" d="M88.223 14.91 67.789 49.137l96.137-25.563"/><path style="fill:none;stroke-width:7.36001;stroke-linecap:round;stroke-linejoin:round;stroke:#231f20;stroke-opacity:1;stroke-miterlimit:10" d="m885.983 1790.884-205.315-343.906" transform="matrix(.09952 0 0 -.09952 .047 193.144)"/><path style="fill-rule:nonzero;fill:#cab4ca;fill-opacity:1;stroke-width:7.36001;stroke-linecap:round;stroke-linejoin:round;stroke:#231f20;stroke-opacity:1;stroke-miterlimit:10" d="m1646.642 1703.828-390.495 178.39-370.164-91.334" transform="matrix(.09952 0 0 -.09952 .047 193.144)"/><path style="fill-rule:nonzero;fill:#d38d88;fill-opacity:1;stroke-width:7.36001;stroke-linecap:round;stroke-linejoin:round;stroke:#231f20;stroke-opacity:1;stroke-miterlimit:10" d="m1326.129 59.54 355.641 132.35 132.703 341.866" transform="matrix(.09952 0 0 -.09952 .047 193.144)"/><path style="stroke:none;fill-rule:nonzero;fill:#cf7e20;fill-opacity:1" d="m197.867 104.809-17.238 35.214-13.207 34.024"/><g clip-path="url(#k)"><path style="fill:none;stroke-width:7.36001;stroke-linecap:round;stroke-linejoin:round;stroke:#231f20;stroke-opacity:1;stroke-miterlimit:10" d="m1987.682 887.592-173.209-353.836L1681.77 191.89" transform="matrix(.09952 0 0 -.09952 .047 193.144)"/></g><path style="stroke:none;fill-rule:nonzero;fill:#95588a;fill-opacity:1" d="m45.867 188.238 38.598 4.54-18.934-30.883"/><g clip-path="url(#l)"><path style="fill:none;stroke-width:7.36001;stroke-linecap:round;stroke-linejoin:round;stroke:#231f20;stroke-opacity:1;stroke-miterlimit:10" d="M460.398 49.297 848.225 3.689 657.98 313.997" transform="matrix(.09952 0 0 -.09952 .047 193.144)"/></g><path style="fill-rule:nonzero;fill:#95588a;fill-opacity:1;stroke-width:7.36001;stroke-linecap:round;stroke-linejoin:round;stroke:#231f20;stroke-opacity:1;stroke-miterlimit:10" d="m657.981 313.997-393.753 39.406 196.17-304.106" transform="matrix(.09952 0 0 -.09952 .047 193.144)"/><g clip-path="url(#m)"><path style="stroke:none;fill-rule:nonzero;fill:#eea15e;fill-opacity:1" d="M.414 127.695 9.23 92.227l19.07-44.32"/></g><g clip-path="url(#n)"><path style="fill:none;stroke-width:7.36001;stroke-linecap:round;stroke-linejoin:round;stroke:#231f20;stroke-opacity:1;stroke-miterlimit:10" d="m3.689 657.628 88.587 356.387 191.617 445.327" transform="matrix(.09952 0 0 -.09952 .047 193.144)"/></g><g clip-path="url(#o)"><path style="stroke:none;fill-rule:nonzero;fill:#8067b0;fill-opacity:1" d="M9.23 92.227.414 127.695l25.93 30.278"/></g><g clip-path="url(#p)"><path style="fill:none;stroke-width:7.36001;stroke-linecap:round;stroke-linejoin:round;stroke:#231f20;stroke-opacity:1;stroke-miterlimit:10" d="M92.276 1014.015 3.689 657.628l260.54-304.225" transform="matrix(.09952 0 0 -.09952 .047 193.144)"/></g><path style="fill-rule:nonzero;fill:#98a5d8;fill-opacity:1;stroke-width:7.36001;stroke-linecap:round;stroke-linejoin:round;stroke:#231f20;stroke-opacity:1;stroke-miterlimit:10" d="m680.668 1446.978 205.315 343.906-392.536 4.003M493.447 1794.887l-209.554-335.545 396.775-12.364" transform="matrix(.09952 0 0 -.09952 .047 193.144)"/><path style="fill-rule:nonzero;fill:#b8829f;fill-opacity:1;stroke-width:7.36001;stroke-linecap:round;stroke-linejoin:round;stroke:#231f20;stroke-opacity:1;stroke-miterlimit:10" d="m1326.129 59.54 126.384 346.968-417.578 166.066" transform="matrix(.09952 0 0 -.09952 .047 193.144)"/><path style="stroke:none;fill-rule:nonzero;fill:#b8829f;fill-opacity:1" d="m84.465 192.777 47.562-5.558-28.98-51.059"/><g clip-path="url(#q)"><path style="fill:none;stroke-width:7.36001;stroke-linecap:round;stroke-linejoin:round;stroke:#231f20;stroke-opacity:1;stroke-miterlimit:10" d="m848.225 3.689 477.904 55.852" transform="matrix(.09952 0 0 -.09952 .047 193.144)"/></g><path style="fill-rule:nonzero;fill:#d38d88;fill-opacity:1;stroke-width:7.36001;stroke-linecap:round;stroke-linejoin:round;stroke:#231f20;stroke-opacity:1;stroke-miterlimit:10" d="m1814.473 533.756-361.96-127.248-126.384-346.967" transform="matrix(.09952 0 0 -.09952 .047 193.144)"/><path style="stroke:none;fill-rule:nonzero;fill:#b8829f;fill-opacity:1" d="M103.047 136.16 65.53 161.895l18.934 30.882"/><g clip-path="url(#r)"><path style="fill:none;stroke-width:7.36001;stroke-linecap:round;stroke-linejoin:round;stroke:#231f20;stroke-opacity:1;stroke-miterlimit:10" d="M1034.935 572.574 657.981 313.997 848.225 3.689" transform="matrix(.09952 0 0 -.09952 .047 193.144)"/></g><path style="stroke:none;fill-rule:nonzero;fill:#9a75ac;fill-opacity:1" d="m36.074 122.512-9.73 35.46 39.187 3.923-29.457-39.383"/><path style="fill:none;stroke-width:7.36001;stroke-linecap:round;stroke-linejoin:round;stroke:#231f20;stroke-opacity:1;stroke-miterlimit:10" d="m362 709.712-97.772-356.309 393.753-39.406Zm0 0" transform="matrix(.09952 0 0 -.09952 .047 193.144)"/><path style="fill-rule:nonzero;fill:#8067b0;fill-opacity:1;stroke-width:7.36001;stroke-linecap:round;stroke-linejoin:round;stroke:#231f20;stroke-opacity:1;stroke-miterlimit:10" d="M264.228 353.403 362 709.712 92.276 1014.015" transform="matrix(.09952 0 0 -.09952 .047 193.144)"/><path style="fill-rule:nonzero;fill:#9d8fc6;fill-opacity:1;stroke-width:7.36001;stroke-linecap:round;stroke-linejoin:round;stroke:#231f20;stroke-opacity:1;stroke-miterlimit:10" d="M283.893 1459.342 92.276 1014.015l269.723-304.303M735.028 975.707l-54.36 471.271-396.775 12.364" transform="matrix(.09952 0 0 -.09952 .047 193.144)"/><path style="stroke:none;fill-rule:nonzero;fill:#9d8fc6;fill-opacity:1" d="M36.074 122.512 73.2 96.039 28.301 47.906"/><path style="fill:none;stroke-width:7.36001;stroke-linecap:round;stroke-linejoin:round;stroke:#231f20;stroke-opacity:1;stroke-miterlimit:10" d="m362 709.712 373.028 265.995" transform="matrix(.09952 0 0 -.09952 .047 193.144)"/><path style="fill-rule:nonzero;fill:#ab8ab8;fill-opacity:1;stroke-width:7.36001;stroke-linecap:round;stroke-linejoin:round;stroke:#231f20;stroke-opacity:1;stroke-miterlimit:10" d="m657.981 313.997 376.954 258.577-299.907 403.133" transform="matrix(.09952 0 0 -.09952 .047 193.144)"/><path style="fill-rule:nonzero;fill:#ab8ab8;fill-opacity:1;stroke-width:7.36001;stroke-linecap:round;stroke-linejoin:round;stroke:#231f20;stroke-opacity:1;stroke-miterlimit:10" d="M735.028 975.707 362 709.712l295.982-395.715" transform="matrix(.09952 0 0 -.09952 .047 193.144)"/></svg>