<svg xmlns="http://www.w3.org/2000/svg" width="206pt" height="200pt" viewBox="0 0 206 200" version="1.2"><path style="fill-rule:nonzero;fill:#ab81a7;fill-opacity:1;stroke-width:7.36;stroke-linecap:round;stroke-linejoin:round;stroke:#000;stroke-opacity:1;stroke-miterlimit:10" d="m1305.547 1474.766 156.484-357.032-351.328-131.093" transform="matrix(.1 0 0 -.1 0 200)"/><path style="fill-rule:nonzero;fill:#ab81a7;fill-opacity:1;stroke-width:7.36;stroke-linecap:round;stroke-linejoin:round;stroke:#000;stroke-opacity:1;stroke-miterlimit:10" d="m1110.703 986.64-157.265 350.704 352.109 137.422" transform="matrix(.1 0 0 -.1 0 200)"/><path style="stroke:none;fill-rule:nonzero;fill:#b891ae;fill-opacity:1" d="m72.508 97.957 22.836-31.691 15.726 35.07"/><path style="fill:none;stroke-width:7.36;stroke-linecap:round;stroke-linejoin:round;stroke:#000;stroke-opacity:1;stroke-miterlimit:10" d="m725.078 1020.43 228.36 316.914 157.265-350.703Zm0 0" transform="matrix(.1 0 0 -.1 0 200)"/><path style="fill-rule:nonzero;fill:#ba9ebc;fill-opacity:1;stroke-width:7.36;stroke-linecap:round;stroke-linejoin:round;stroke:#000;stroke-opacity:1;stroke-miterlimit:10" d="m1110.703 986.64-21.992-382.617-389.492 31.914M699.219 635.938l25.86 384.492 385.624-33.79" transform="matrix(.1 0 0 -.1 0 200)"/><path style="fill-rule:nonzero;fill:#a28cbc;fill-opacity:1;stroke-width:7.36;stroke-linecap:round;stroke-linejoin:round;stroke:#000;stroke-opacity:1;stroke-miterlimit:10" d="m1088.71 604.023 21.993 382.618 351.328 131.093" transform="matrix(.1 0 0 -.1 0 200)"/><path style="fill-rule:nonzero;fill:#c493a3;fill-opacity:1;stroke-width:7.36;stroke-linecap:round;stroke-linejoin:round;stroke:#000;stroke-opacity:1;stroke-miterlimit:10" d="m953.438 1337.344-228.36-316.914-291.719 189.922" transform="matrix(.1 0 0 -.1 0 200)"/><path style="fill-rule:nonzero;fill:#d0afb8;fill-opacity:1;stroke-width:7.36;stroke-linecap:round;stroke-linejoin:round;stroke:#000;stroke-opacity:1;stroke-miterlimit:10" d="m725.078 1020.43-25.86-384.492-313.75-63.868" transform="matrix(.1 0 0 -.1 0 200)"/><path style="stroke:none;fill-rule:nonzero;fill:#d0afb8;fill-opacity:1" d="m43.336 78.965 29.172 18.992-33.961 44.836"/><path style="fill:none;stroke-width:7.36;stroke-linecap:round;stroke-linejoin:round;stroke:#000;stroke-opacity:1;stroke-miterlimit:10" d="m433.36 1210.352 291.718-189.922" transform="matrix(.1 0 0 -.1 0 200)"/><path style="fill-rule:nonzero;fill:#b2728b;fill-opacity:1;stroke-width:7.36;stroke-linecap:round;stroke-linejoin:round;stroke:#000;stroke-opacity:1;stroke-miterlimit:10" d="m1305.547 1474.766-352.11-137.422-287.07 198.281" transform="matrix(.1 0 0 -.1 0 200)"/><path style="fill-rule:nonzero;fill:#c493a3;fill-opacity:1;stroke-width:7.36;stroke-linecap:round;stroke-linejoin:round;stroke:#000;stroke-opacity:1;stroke-miterlimit:10" d="m433.36 1210.352 233.007 325.273 287.07-198.281" transform="matrix(.1 0 0 -.1 0 200)"/><path style="stroke:none;fill-rule:nonzero;fill:#b9abcb;fill-opacity:1" d="m89.027 168.031-19.105-31.625 38.95 3.192"/><path style="fill:none;stroke-width:7.36;stroke-linecap:round;stroke-linejoin:round;stroke:#000;stroke-opacity:1;stroke-miterlimit:10" d="M890.273 319.688 699.22 635.938l389.492-31.915Zm0 0" transform="matrix(.1 0 0 -.1 0 200)"/><path style="fill-rule:nonzero;fill:#a28cbc;fill-opacity:1;stroke-width:7.36;stroke-linecap:round;stroke-linejoin:round;stroke:#000;stroke-opacity:1;stroke-miterlimit:10" d="m1667.46 811.016-236.17-323.164-342.58 116.171" transform="matrix(.1 0 0 -.1 0 200)"/><path style="stroke:none;fill-rule:nonzero;fill:#a28cbc;fill-opacity:1" d="m146.203 88.227 20.543 30.671-57.875 20.7"/><path style="fill:none;stroke-width:7.36;stroke-linecap:round;stroke-linejoin:round;stroke:#000;stroke-opacity:1;stroke-miterlimit:10" d="m1462.031 1117.734 205.43-306.718" transform="matrix(.1 0 0 -.1 0 200)"/><path style="fill-rule:nonzero;fill:#a9a5d3;fill-opacity:1;stroke-width:7.36;stroke-linecap:round;stroke-linejoin:round;stroke:#000;stroke-opacity:1;stroke-miterlimit:10" d="m890.273 319.688 198.438 284.335 342.578-116.171" transform="matrix(.1 0 0 -.1 0 200)"/><path style="fill-rule:nonzero;fill:#91659b;fill-opacity:1;stroke-width:7.36;stroke-linecap:round;stroke-linejoin:round;stroke:#000;stroke-opacity:1;stroke-miterlimit:10" d="m1759.96 1189.102-297.929-71.368-156.484 357.032" transform="matrix(.1 0 0 -.1 0 200)"/><path style="stroke:none;fill-rule:nonzero;fill:#8d71ad;fill-opacity:1" d="m146.203 88.227 29.793-7.137-9.25 37.808"/><path style="fill:none;stroke-width:7.36;stroke-linecap:round;stroke-linejoin:round;stroke:#000;stroke-opacity:1;stroke-miterlimit:10" d="m1462.031 1117.734 297.93 71.368-92.5-378.086Zm0 0" transform="matrix(.1 0 0 -.1 0 200)"/><path style="fill-rule:nonzero;fill:#c8bfd2;fill-opacity:1;stroke-width:7.36;stroke-linecap:round;stroke-linejoin:round;stroke:#000;stroke-opacity:1;stroke-miterlimit:10" d="m699.219 635.938 191.054-316.25-313.867-75.04" transform="matrix(.1 0 0 -.1 0 200)"/><path style="fill-rule:nonzero;fill:#c8bfd2;fill-opacity:1;stroke-width:7.36;stroke-linecap:round;stroke-linejoin:round;stroke:#000;stroke-opacity:1;stroke-miterlimit:10" d="M576.406 244.648 385.47 572.07l313.75 63.867" transform="matrix(.1 0 0 -.1 0 200)"/><path style="stroke:none;fill-rule:nonzero;fill:#b2728b;fill-opacity:1" d="m124.871 22.953 5.684 29.57-63.918-6.086"/><path style="fill:none;stroke-width:7.36;stroke-linecap:round;stroke-linejoin:round;stroke:#000;stroke-opacity:1;stroke-miterlimit:10" d="m1248.71 1770.469 56.837-295.703" transform="matrix(.1 0 0 -.1 0 200)"/><path style="stroke:none;fill-rule:nonzero;fill:#955783;fill-opacity:1" d="m130.555 52.523-5.684-29.57 35.23 21.176"/><path style="fill:none;stroke-width:7.36;stroke-linecap:round;stroke-linejoin:round;stroke:#000;stroke-opacity:1;stroke-miterlimit:10" d="m1305.547 1474.766-56.836 295.703 352.305-211.758Zm0 0" transform="matrix(.1 0 0 -.1 0 200)"/><path style="fill-rule:nonzero;fill:#91659b;fill-opacity:1;stroke-width:7.36;stroke-linecap:round;stroke-linejoin:round;stroke:#000;stroke-opacity:1;stroke-miterlimit:10" d="m1305.547 1474.766 295.469 83.945 158.945-369.61" transform="matrix(.1 0 0 -.1 0 200)"/><path style="fill-rule:nonzero;fill:#d7948b;fill-opacity:1;stroke-width:7.36;stroke-linecap:round;stroke-linejoin:round;stroke:#000;stroke-opacity:1;stroke-miterlimit:10" d="M666.367 1535.625 433.36 1210.352l-216.289 120" transform="matrix(.1 0 0 -.1 0 200)"/><path style="stroke:none;fill-rule:nonzero;fill:#e1ad9e;fill-opacity:1" d="m21.41 106.441.297-39.476 21.629 12"/><path style="fill:none;stroke-width:7.36;stroke-linecap:round;stroke-linejoin:round;stroke:#000;stroke-opacity:1;stroke-miterlimit:10" d="m214.102 935.586 2.968 394.766 216.29-120Zm0 0" transform="matrix(.1 0 0 -.1 0 200)"/><path style="fill-rule:nonzero;fill:#d0afb8;fill-opacity:1;stroke-width:7.36;stroke-linecap:round;stroke-linejoin:round;stroke:#000;stroke-opacity:1;stroke-miterlimit:10" d="M385.469 572.07 214.102 935.586l219.257 274.766" transform="matrix(.1 0 0 -.1 0 200)"/><path style="fill-rule:nonzero;fill:#7e80ca;fill-opacity:1;stroke-width:7.36;stroke-linecap:round;stroke-linejoin:round;stroke:#000;stroke-opacity:1;stroke-miterlimit:10" d="m1857.578 657.031-246.523-336.054-179.766 166.875" transform="matrix(.1 0 0 -.1 0 200)"/><path style="fill-rule:nonzero;fill:#7e80ca;fill-opacity:1;stroke-width:7.36;stroke-linecap:round;stroke-linejoin:round;stroke:#000;stroke-opacity:1;stroke-miterlimit:10" d="m1431.29 487.852 236.17 323.164 190.118-153.985" transform="matrix(.1 0 0 -.1 0 200)"/><path style="stroke:none;fill-rule:nonzero;fill:#8e9adb;fill-opacity:1" d="m123.738 180.555 19.39-29.34 17.977 16.687"/><path style="fill:none;stroke-width:7.36;stroke-linecap:round;stroke-linejoin:round;stroke:#000;stroke-opacity:1;stroke-miterlimit:10" d="m1237.383 194.453 193.906 293.399 179.766-166.875Zm0 0" transform="matrix(.1 0 0 -.1 0 200)"/><path style="fill-rule:nonzero;fill:#a9a5d3;fill-opacity:1;stroke-width:7.36;stroke-linecap:round;stroke-linejoin:round;stroke:#000;stroke-opacity:1;stroke-miterlimit:10" d="m1431.29 487.852-193.907-293.399-347.11 125.234" transform="matrix(.1 0 0 -.1 0 200)"/><path style="stroke:none;fill-rule:nonzero;fill:#c67674;fill-opacity:1" d="m45.898 33.066 38.215-14.168-17.476 27.54"/><path style="fill:none;stroke-width:7.36;stroke-linecap:round;stroke-linejoin:round;stroke:#000;stroke-opacity:1;stroke-miterlimit:10" d="m458.984 1669.336 382.149 141.68-174.766-275.391Zm0 0" transform="matrix(.1 0 0 -.1 0 200)"/><path style="fill-rule:nonzero;fill:#b2728b;fill-opacity:1;stroke-width:7.36;stroke-linecap:round;stroke-linejoin:round;stroke:#000;stroke-opacity:1;stroke-miterlimit:10" d="m666.367 1535.625 174.766 275.39 407.578-40.546" transform="matrix(.1 0 0 -.1 0 200)"/><path style="fill-rule:nonzero;fill:#d7948b;fill-opacity:1;stroke-width:7.36;stroke-linecap:round;stroke-linejoin:round;stroke:#000;stroke-opacity:1;stroke-miterlimit:10" d="m217.07 1330.352 241.914 338.984 207.383-133.711" transform="matrix(.1 0 0 -.1 0 200)"/><path style="fill-rule:nonzero;fill:#6758ad;fill-opacity:1;stroke-width:7.36;stroke-linecap:round;stroke-linejoin:round;stroke:#000;stroke-opacity:1;stroke-miterlimit:10" d="m1956.719 1048.79-99.14-391.759-190.118 153.985" transform="matrix(.1 0 0 -.1 0 200)"/><path style="fill-rule:nonzero;fill:#6758ad;fill-opacity:1;stroke-width:7.36;stroke-linecap:round;stroke-linejoin:round;stroke:#000;stroke-opacity:1;stroke-miterlimit:10" d="m1667.46 811.016 92.5 378.086 196.759-140.313" transform="matrix(.1 0 0 -.1 0 200)"/><path style="fill-rule:nonzero;fill:#abcef2;fill-opacity:1;stroke-width:7.36;stroke-linecap:round;stroke-linejoin:round;stroke:#000;stroke-opacity:1;stroke-miterlimit:10" d="M726.21 61.21 576.407 244.649l313.867 75.04" transform="matrix(.1 0 0 -.1 0 200)"/><path style="stroke:none;fill-rule:nonzero;fill:#abcef2;fill-opacity:1" d="m115.277 197.012-42.656-3.133 16.406-25.848"/><path style="fill:none;stroke-width:7.36;stroke-linecap:round;stroke-linejoin:round;stroke:#000;stroke-opacity:1;stroke-miterlimit:10" d="M1152.773 29.883 726.211 61.21" transform="matrix(.1 0 0 -.1 0 200)"/><path style="fill-rule:nonzero;fill:#abcef2;fill-opacity:1;stroke-width:7.36;stroke-linecap:round;stroke-linejoin:round;stroke:#000;stroke-opacity:1;stroke-miterlimit:10" d="m890.273 319.688 347.11-125.235-84.61-164.57" transform="matrix(.1 0 0 -.1 0 200)"/><path style="fill-rule:nonzero;fill:#eedabd;fill-opacity:1;stroke-width:7.36;stroke-linecap:round;stroke-linejoin:round;stroke:#000;stroke-opacity:1;stroke-miterlimit:10" d="M214.102 935.586 385.469 572.07 262.5 426.523" transform="matrix(.1 0 0 -.1 0 200)"/><path style="stroke:none;fill-rule:nonzero;fill:#dbddd7;fill-opacity:1" d="m57.64 175.535-31.39-18.187 12.297-14.555"/><path style="fill:none;stroke-width:7.36;stroke-linecap:round;stroke-linejoin:round;stroke:#000;stroke-opacity:1;stroke-miterlimit:10" d="M576.406 244.648 262.5 426.523 385.469 572.07Zm0 0" transform="matrix(.1 0 0 -.1 0 200)"/><path style="fill-rule:nonzero;fill:#360664;fill-opacity:1;stroke-width:7.36;stroke-linecap:round;stroke-linejoin:round;stroke:#000;stroke-opacity:1;stroke-miterlimit:10" d="m1956.719 1048.79-196.758 140.312-158.945 369.609" transform="matrix(.1 0 0 -.1 0 200)"/><path style="fill-rule:nonzero;fill:#fcc484;fill-opacity:1;stroke-width:7.36;stroke-linecap:round;stroke-linejoin:round;stroke:#000;stroke-opacity:1;stroke-miterlimit:10" d="m217.07 1330.352-2.968-394.766-132.11-130.04" transform="matrix(.1 0 0 -.1 0 200)"/><path style="fill-rule:nonzero;fill:#eedabd;fill-opacity:1;stroke-width:7.36;stroke-linecap:round;stroke-linejoin:round;stroke:#000;stroke-opacity:1;stroke-miterlimit:10" d="M262.5 426.523 81.992 805.547l132.11 130.039" transform="matrix(.1 0 0 -.1 0 200)"/><path style="fill-rule:nonzero;fill:#62a2f3;fill-opacity:1;stroke-width:7.36;stroke-linecap:round;stroke-linejoin:round;stroke:#000;stroke-opacity:1;stroke-miterlimit:10" d="M1542.656 159.727 1152.773 29.883l84.61 164.57" transform="matrix(.1 0 0 -.1 0 200)"/><path style="fill-rule:nonzero;fill:#62a2f3;fill-opacity:1;stroke-width:7.36;stroke-linecap:round;stroke-linejoin:round;stroke:#000;stroke-opacity:1;stroke-miterlimit:10" d="m1237.383 194.453 373.672 126.524-68.399-161.25" transform="matrix(.1 0 0 -.1 0 200)"/><path style="stroke:none;fill-rule:nonzero;fill:#360664;fill-opacity:1" d="m191.98 65.059 3.692 30.062-35.57-50.992"/><path style="fill:none;stroke-width:7.36;stroke-linecap:round;stroke-linejoin:round;stroke:#000;stroke-opacity:1;stroke-miterlimit:10" d="m1919.805 1349.414 36.914-300.625" transform="matrix(.1 0 0 -.1 0 200)"/><path style="fill-rule:nonzero;fill:#360664;fill-opacity:1;stroke-width:7.36;stroke-linecap:round;stroke-linejoin:round;stroke:#000;stroke-opacity:1;stroke-miterlimit:10" d="m1601.016 1558.71 89.023 115 229.766-324.296" transform="matrix(.1 0 0 -.1 0 200)"/><path style="fill-rule:nonzero;fill:#660f44;fill-opacity:1;stroke-width:7.36;stroke-linecap:round;stroke-linejoin:round;stroke:#000;stroke-opacity:1;stroke-miterlimit:10" d="m1690.04 1673.71-89.024-115-352.305 211.759" transform="matrix(.1 0 0 -.1 0 200)"/><path style="fill-rule:nonzero;fill:#8c1d29;fill-opacity:1;stroke-width:7.36;stroke-linecap:round;stroke-linejoin:round;stroke:#000;stroke-opacity:1;stroke-miterlimit:10" d="m1320.703 1895.898-71.992-125.43-407.578 40.548" transform="matrix(.1 0 0 -.1 0 200)"/><path style="fill-rule:nonzero;fill:#660f44;fill-opacity:1;stroke-width:7.36;stroke-linecap:round;stroke-linejoin:round;stroke:#000;stroke-opacity:1;stroke-miterlimit:10" d="m1248.71 1770.469 71.993 125.43 369.336-222.188" transform="matrix(.1 0 0 -.1 0 200)"/><path style="fill-rule:nonzero;fill:#8c1d29;fill-opacity:1;stroke-width:7.36;stroke-linecap:round;stroke-linejoin:round;stroke:#000;stroke-opacity:1;stroke-miterlimit:10" d="m841.133 1811.016 52.5 128.203 427.07-43.32" transform="matrix(.1 0 0 -.1 0 200)"/><path style="fill-rule:nonzero;fill:#b3340e;fill-opacity:1;stroke-width:7.36;stroke-linecap:round;stroke-linejoin:round;stroke:#000;stroke-opacity:1;stroke-miterlimit:10" d="m841.133 1811.016-382.149-141.68 34.102 122.539" transform="matrix(.1 0 0 -.1 0 200)"/><path style="fill-rule:nonzero;fill:#b3340e;fill-opacity:1;stroke-width:7.36;stroke-linecap:round;stroke-linejoin:round;stroke:#000;stroke-opacity:1;stroke-miterlimit:10" d="m493.086 1791.875 400.547 147.344-52.5-128.203" transform="matrix(.1 0 0 -.1 0 200)"/><path style="fill-rule:nonzero;fill:#c0fde1;fill-opacity:1;stroke-width:7.36;stroke-linecap:round;stroke-linejoin:round;stroke:#000;stroke-opacity:1;stroke-miterlimit:10" d="m262.5 426.523 313.906-181.875L726.211 61.211" transform="matrix(.1 0 0 -.1 0 200)"/><path style="fill-rule:nonzero;fill:#d05b00;fill-opacity:1;stroke-width:7.36;stroke-linecap:round;stroke-linejoin:round;stroke:#000;stroke-opacity:1;stroke-miterlimit:10" d="M217.07 1330.352 82.97 1216.797l170.898 289.492" transform="matrix(.1 0 0 -.1 0 200)"/><path style="stroke:none;fill-rule:nonzero;fill:#d05b00;fill-opacity:1" d="M45.898 33.066 21.707 66.965l3.68-17.594"/><path style="fill:none;stroke-width:7.36;stroke-linecap:round;stroke-linejoin:round;stroke:#000;stroke-opacity:1;stroke-miterlimit:10" d="M458.984 1669.336 217.07 1330.352" transform="matrix(.1 0 0 -.1 0 200)"/><path style="fill-rule:nonzero;fill:#fcc484;fill-opacity:1;stroke-width:7.36;stroke-linecap:round;stroke-linejoin:round;stroke:#000;stroke-opacity:1;stroke-miterlimit:10" d="m81.992 805.547.977 411.25 134.101 113.555" transform="matrix(.1 0 0 -.1 0 200)"/><path style="fill-rule:nonzero;fill:#001ca8;fill-opacity:1;stroke-width:7.36;stroke-linecap:round;stroke-linejoin:round;stroke:#000;stroke-opacity:1;stroke-miterlimit:10" d="m1762.734 413.906-220.078-254.18 68.399 161.25" transform="matrix(.1 0 0 -.1 0 200)"/><path style="stroke:none;fill-rule:nonzero;fill:#001ca8;fill-opacity:1" d="m196.098 127.047-19.825 31.562-15.168 9.293"/><path style="fill:none;stroke-width:7.36;stroke-linecap:round;stroke-linejoin:round;stroke:#000;stroke-opacity:1;stroke-miterlimit:10" d="m1960.977 729.531-198.243-315.625" transform="matrix(.1 0 0 -.1 0 200)"/><path style="fill-rule:nonzero;fill:#001ca8;fill-opacity:1;stroke-width:7.36;stroke-linecap:round;stroke-linejoin:round;stroke:#000;stroke-opacity:1;stroke-miterlimit:10" d="m1611.055 320.977 246.523 336.054 103.399 72.5" transform="matrix(.1 0 0 -.1 0 200)"/><path style="fill-rule:nonzero;fill:#d05b00;fill-opacity:1;stroke-width:7.36;stroke-linecap:round;stroke-linejoin:round;stroke:#000;stroke-opacity:1;stroke-miterlimit:10" d="m253.867 1506.29 239.219 285.585-34.102-122.54" transform="matrix(.1 0 0 -.1 0 200)"/><path style="stroke:none;fill-rule:nonzero;fill:#000c92;fill-opacity:1" d="m185.758 134.297 9.914-39.176.426 31.926"/><path style="fill:none;stroke-width:7.36;stroke-linecap:round;stroke-linejoin:round;stroke:#000;stroke-opacity:1;stroke-miterlimit:10" d="m1857.578 657.031 99.14 391.758 4.259-319.258Zm0 0" transform="matrix(.1 0 0 -.1 0 200)"/><path style="fill-rule:nonzero;fill:#d9ba35;fill-opacity:1;stroke-width:7.36;stroke-linecap:round;stroke-linejoin:round;stroke:#000;stroke-opacity:1;stroke-miterlimit:10" d="m1922.93 1028.79 38.047-299.259-4.258 319.258" transform="matrix(.1 0 0 -.1 0 200)"/><path style="fill-rule:nonzero;fill:#d9ba35;fill-opacity:1;stroke-width:7.36;stroke-linecap:round;stroke-linejoin:round;stroke:#000;stroke-opacity:1;stroke-miterlimit:10" d="m1956.719 1048.79-36.914 300.624 3.125-320.625" transform="matrix(.1 0 0 -.1 0 200)"/><path style="fill-rule:nonzero;fill:#c0fde1;fill-opacity:1;stroke-width:7.36;stroke-linecap:round;stroke-linejoin:round;stroke:#000;stroke-opacity:1;stroke-miterlimit:10" d="M726.21 61.21 402.54 246.134 262.5 426.523" transform="matrix(.1 0 0 -.1 0 200)"/><path style="fill-rule:nonzero;fill:#000008;fill-opacity:1;stroke-width:7.36;stroke-linecap:round;stroke-linejoin:round;stroke:#000;stroke-opacity:1;stroke-miterlimit:10" d="M81.992 805.547 262.5 426.523l140.04-180.39" transform="matrix(.1 0 0 -.1 0 200)"/><path style="stroke:none;fill-rule:nonzero;fill:#00001c;fill-opacity:1" d="M9.79 111.238 8.296 78.32l-.098 41.125"/><path style="fill:none;stroke-width:7.36;stroke-linecap:round;stroke-linejoin:round;stroke:#000;stroke-opacity:1;stroke-miterlimit:10" d="m97.89 887.617-14.921 329.18-.977-411.25Zm0 0" transform="matrix(.1 0 0 -.1 0 200)"/><path style="stroke:none;fill-rule:nonzero;fill:#000008;fill-opacity:1" d="m9.79 111.238-1.59 8.207 32.054 55.942"/><path style="fill:none;stroke-width:7.36;stroke-linecap:round;stroke-linejoin:round;stroke:#000;stroke-opacity:1;stroke-miterlimit:10" d="m97.89 887.617-15.898-82.07" transform="matrix(.1 0 0 -.1 0 200)"/><path style="stroke:none;fill-rule:nonzero;fill:#000;fill-opacity:1" d="m115.277 197.012-16.37-1.453-26.286-1.68"/><path style="fill:none;stroke-width:7.36;stroke-linecap:round;stroke-linejoin:round;stroke:#000;stroke-opacity:1;stroke-miterlimit:10" d="m1152.773 29.883-163.71 14.531L726.21 61.211Zm0 0" transform="matrix(.1 0 0 -.1 0 200)"/><path style="fill-rule:nonzero;fill:#870000;fill-opacity:1;stroke-width:7.36;stroke-linecap:round;stroke-linejoin:round;stroke:#000;stroke-opacity:1;stroke-miterlimit:10" d="m989.063 44.414 163.71-14.531 389.883 129.844" transform="matrix(.1 0 0 -.1 0 200)"/><path style="fill-rule:nonzero;fill:#dcfeca;fill-opacity:1;stroke-width:7.36;stroke-linecap:round;stroke-linejoin:round;stroke:#000;stroke-opacity:1;stroke-miterlimit:10" d="m1746.484 1441.25 173.32-91.836-229.765 324.297" transform="matrix(.1 0 0 -.1 0 200)"/><path style="fill-rule:nonzero;fill:#dcfeca;fill-opacity:1;stroke-width:7.36;stroke-linecap:round;stroke-linejoin:round;stroke:#000;stroke-opacity:1;stroke-miterlimit:10" d="m1690.04 1673.71-180.08 104.688 236.524-337.148" transform="matrix(.1 0 0 -.1 0 200)"/><path style="stroke:none;fill-rule:nonzero;fill:#63cfa1;fill-opacity:1" d="m132.07 10.41 18.926 11.75 18.008 10.469"/><path style="fill:none;stroke-width:7.36;stroke-linecap:round;stroke-linejoin:round;stroke:#000;stroke-opacity:1;stroke-miterlimit:10" d="m1320.703 1895.898 189.258-117.5 180.078-104.687Zm0 0" transform="matrix(.1 0 0 -.1 0 200)"/><path style="fill-rule:nonzero;fill:#91ddfe;fill-opacity:1;stroke-width:7.36;stroke-linecap:round;stroke-linejoin:round;stroke:#000;stroke-opacity:1;stroke-miterlimit:10" d="m1509.96 1778.398-189.257 117.5-427.07 43.32" transform="matrix(.1 0 0 -.1 0 200)"/><path style="fill-rule:nonzero;fill:#4e0006;fill-opacity:1;stroke-width:7.36;stroke-linecap:round;stroke-linejoin:round;stroke:#000;stroke-opacity:1;stroke-miterlimit:10" d="M402.54 246.133 726.21 61.21l262.852-16.797" transform="matrix(.1 0 0 -.1 0 200)"/><path style="stroke:none;fill-rule:nonzero;fill:#91ddfe;fill-opacity:1" d="m117.883 25.434 33.113-3.274L89.363 6.078"/><path style="fill:none;stroke-width:7.36;stroke-linecap:round;stroke-linejoin:round;stroke:#000;stroke-opacity:1;stroke-miterlimit:10" d="m1178.828 1745.664 331.133 32.734" transform="matrix(.1 0 0 -.1 0 200)"/><path style="fill-rule:nonzero;fill:#91ddfe;fill-opacity:1;stroke-width:7.36;stroke-linecap:round;stroke-linejoin:round;stroke:#000;stroke-opacity:1;stroke-miterlimit:10" d="m893.633 1939.219-106.602-88.477 391.797-105.078" transform="matrix(.1 0 0 -.1 0 200)"/><path style="stroke:none;fill-rule:nonzero;fill:#1c94e9;fill-opacity:1" d="m78.703 14.926 10.66-8.848L49.31 20.813"/><path style="fill:none;stroke-width:7.36;stroke-linecap:round;stroke-linejoin:round;stroke:#000;stroke-opacity:1;stroke-miterlimit:10" d="m787.031 1850.742 106.602 88.477-400.547-147.344Zm0 0" transform="matrix(.1 0 0 -.1 0 200)"/><path style="fill-rule:nonzero;fill:#2b39ac;fill-opacity:1;stroke-width:7.36;stroke-linecap:round;stroke-linejoin:round;stroke:#000;stroke-opacity:1;stroke-miterlimit:10" d="m82.969 1216.797 14.922-329.18 177.539 288.36M275.43 1175.977l-21.563 330.312L82.97 1216.797" transform="matrix(.1 0 0 -.1 0 200)"/><path style="fill-rule:nonzero;fill:#870000;fill-opacity:1;stroke-width:7.36;stroke-linecap:round;stroke-linejoin:round;stroke:#000;stroke-opacity:1;stroke-miterlimit:10" d="m1542.656 159.727-147.383 21.132-406.21-136.445" transform="matrix(.1 0 0 -.1 0 200)"/><path style="stroke:none;fill-rule:nonzero;fill:#cd5620;fill-opacity:1" d="m154.266 184.027 22.007-25.418-36.746 23.305"/><path style="fill:none;stroke-width:7.36;stroke-linecap:round;stroke-linejoin:round;stroke:#000;stroke-opacity:1;stroke-miterlimit:10" d="m1542.656 159.727 220.078 254.18-367.46-233.048Zm0 0" transform="matrix(.1 0 0 -.1 0 200)"/><path style="fill-rule:nonzero;fill:#618ee6;fill-opacity:1;stroke-width:7.36;stroke-linecap:round;stroke-linejoin:round;stroke:#000;stroke-opacity:1;stroke-miterlimit:10" d="m493.086 1791.875-239.219-285.586 293.047 49.297" transform="matrix(.1 0 0 -.1 0 200)"/><path style="fill-rule:nonzero;fill:#618ee6;fill-opacity:1;stroke-width:7.36;stroke-linecap:round;stroke-linejoin:round;stroke:#000;stroke-opacity:1;stroke-miterlimit:10" d="m546.914 1555.586 240.117 295.156-293.945-58.867" transform="matrix(.1 0 0 -.1 0 200)"/><path style="fill-rule:nonzero;fill:#f4b07d;fill-opacity:1;stroke-width:7.36;stroke-linecap:round;stroke-linejoin:round;stroke:#000;stroke-opacity:1;stroke-miterlimit:10" d="m1715.781 709.531 46.953-295.625 198.243 315.625" transform="matrix(.1 0 0 -.1 0 200)"/><path style="fill-rule:nonzero;fill:#f4b07d;fill-opacity:1;stroke-width:7.36;stroke-linecap:round;stroke-linejoin:round;stroke:#000;stroke-opacity:1;stroke-miterlimit:10" d="m1960.977 729.531-38.047 299.258-207.149-319.258" transform="matrix(.1 0 0 -.1 0 200)"/><path style="stroke:none;fill-rule:nonzero;fill:#f6e5b5;fill-opacity:1" d="m191.98 65.059-17.332-9.184 17.645 41.246"/><path style="fill:none;stroke-width:7.36;stroke-linecap:round;stroke-linejoin:round;stroke:#000;stroke-opacity:1;stroke-miterlimit:10" d="m1919.805 1349.414-173.32 91.836 176.445-412.46Zm0 0" transform="matrix(.1 0 0 -.1 0 200)"/><path style="fill-rule:nonzero;fill:#000008;fill-opacity:1;stroke-width:7.36;stroke-linecap:round;stroke-linejoin:round;stroke:#000;stroke-opacity:1;stroke-miterlimit:10" d="M402.54 246.133 303.983 530.39 97.891 887.617" transform="matrix(.1 0 0 -.1 0 200)"/><path style="stroke:none;fill-rule:nonzero;fill:#661f5f;fill-opacity:1" d="m65.902 176.324-35.504-29.363 9.856 28.426"/><path style="fill:none;stroke-width:7.36;stroke-linecap:round;stroke-linejoin:round;stroke:#000;stroke-opacity:1;stroke-miterlimit:10" d="M659.023 236.758 303.984 530.39l98.555-284.258Zm0 0" transform="matrix(.1 0 0 -.1 0 200)"/><path style="fill-rule:nonzero;fill:#4e0006;fill-opacity:1;stroke-width:7.36;stroke-linecap:round;stroke-linejoin:round;stroke:#000;stroke-opacity:1;stroke-miterlimit:10" d="m989.063 44.414-330.04 192.344-256.484 9.375" transform="matrix(.1 0 0 -.1 0 200)"/><path style="fill-rule:nonzero;fill:#af667b;fill-opacity:1;stroke-width:7.36;stroke-linecap:round;stroke-linejoin:round;stroke:#000;stroke-opacity:1;stroke-miterlimit:10" d="m659.023 236.758 330.04-192.344 406.21 136.445" transform="matrix(.1 0 0 -.1 0 200)"/><path style="fill-rule:nonzero;fill:#cdcdda;fill-opacity:1;stroke-width:7.36;stroke-linecap:round;stroke-linejoin:round;stroke:#000;stroke-opacity:1;stroke-miterlimit:10" d="m1746.484 1441.25-236.523 337.148-331.133-32.734" transform="matrix(.1 0 0 -.1 0 200)"/><path style="stroke:none;fill-rule:nonzero;fill:#737acc;fill-opacity:1" d="m27.543 82.402 27.148-37.96-29.304 4.93"/><path style="fill:none;stroke-width:7.36;stroke-linecap:round;stroke-linejoin:round;stroke:#000;stroke-opacity:1;stroke-miterlimit:10" d="m275.43 1175.977 271.484 379.609-293.047-49.297Zm0 0" transform="matrix(.1 0 0 -.1 0 200)"/><path style="fill-rule:nonzero;fill:#d38b82;fill-opacity:1;stroke-width:7.36;stroke-linecap:round;stroke-linejoin:round;stroke:#000;stroke-opacity:1;stroke-miterlimit:10" d="m1333.008 471.719 62.265-290.86 367.461 233.047" transform="matrix(.1 0 0 -.1 0 200)"/><path style="fill-rule:nonzero;fill:#d38b82;fill-opacity:1;stroke-width:7.36;stroke-linecap:round;stroke-linejoin:round;stroke:#000;stroke-opacity:1;stroke-miterlimit:10" d="m1762.734 413.906-46.953 295.625-382.773-237.812" transform="matrix(.1 0 0 -.1 0 200)"/><path style="fill-rule:nonzero;fill:#7557a2;fill-opacity:1;stroke-width:7.36;stroke-linecap:round;stroke-linejoin:round;stroke:#000;stroke-opacity:1;stroke-miterlimit:10" d="M275.43 1175.977 97.89 887.617l206.094-357.226" transform="matrix(.1 0 0 -.1 0 200)"/><path style="fill-rule:nonzero;fill:#a3aadc;fill-opacity:1;stroke-width:7.36;stroke-linecap:round;stroke-linejoin:round;stroke:#000;stroke-opacity:1;stroke-miterlimit:10" d="m787.031 1850.742-240.117-295.156L944.414 1440M944.414 1440l234.414 305.664-391.797 105.078" transform="matrix(.1 0 0 -.1 0 200)"/><path style="fill-rule:nonzero;fill:#d8b7b8;fill-opacity:1;stroke-width:7.36;stroke-linecap:round;stroke-linejoin:round;stroke:#000;stroke-opacity:1;stroke-miterlimit:10" d="m1392.969 929.531 322.812-220 207.149 319.258" transform="matrix(.1 0 0 -.1 0 200)"/><path style="stroke:none;fill-rule:nonzero;fill:#d8b7b8;fill-opacity:1" d="m141.64 60.441-2.343 46.606 52.996-9.926"/><path style="fill:none;stroke-width:7.36;stroke-linecap:round;stroke-linejoin:round;stroke:#000;stroke-opacity:1;stroke-miterlimit:10" d="M1416.406 1395.586 1392.97 929.53" transform="matrix(.1 0 0 -.1 0 200)"/><path style="fill-rule:nonzero;fill:#d8b7b8;fill-opacity:1;stroke-width:7.36;stroke-linecap:round;stroke-linejoin:round;stroke:#000;stroke-opacity:1;stroke-miterlimit:10" d="m1922.93 1028.79-176.446 412.46-330.078-45.664" transform="matrix(.1 0 0 -.1 0 200)"/><path style="stroke:none;fill-rule:nonzero;fill:#af667b;fill-opacity:1" d="m86.133 149.047-20.23 27.277 73.624 5.59"/><path style="fill:none;stroke-width:7.36;stroke-linecap:round;stroke-linejoin:round;stroke:#000;stroke-opacity:1;stroke-miterlimit:10" d="M861.328 509.531 659.023 236.758" transform="matrix(.1 0 0 -.1 0 200)"/><path style="fill-rule:nonzero;fill:#af667b;fill-opacity:1;stroke-width:7.36;stroke-linecap:round;stroke-linejoin:round;stroke:#000;stroke-opacity:1;stroke-miterlimit:10" d="m1395.273 180.86-62.265 290.859-471.68 37.812" transform="matrix(.1 0 0 -.1 0 200)"/><path style="fill-rule:nonzero;fill:#cdcdda;fill-opacity:1;stroke-width:7.36;stroke-linecap:round;stroke-linejoin:round;stroke:#000;stroke-opacity:1;stroke-miterlimit:10" d="m1178.828 1745.664 237.578-350.078 330.078 45.664" transform="matrix(.1 0 0 -.1 0 200)"/><path style="fill-rule:nonzero;fill:#946193;fill-opacity:1;stroke-width:7.36;stroke-linecap:round;stroke-linejoin:round;stroke:#000;stroke-opacity:1;stroke-miterlimit:10" d="m303.984 530.39 355.04-293.632L861.327 509.53M861.328 509.531 492.852 812.578 303.984 530.391" transform="matrix(.1 0 0 -.1 0 200)"/><path style="fill-rule:nonzero;fill:#7557a2;fill-opacity:1;stroke-width:7.36;stroke-linecap:round;stroke-linejoin:round;stroke:#000;stroke-opacity:1;stroke-miterlimit:10" d="m303.984 530.39 188.868 282.188-217.422 363.399" transform="matrix(.1 0 0 -.1 0 200)"/><path style="stroke:none;fill-rule:nonzero;fill:#bab1d0;fill-opacity:1" d="m141.64 60.441-23.757-35.007L94.44 56"/><path style="fill:none;stroke-width:7.36;stroke-linecap:round;stroke-linejoin:round;stroke:#000;stroke-opacity:1;stroke-miterlimit:10" d="m1416.406 1395.586-237.578 350.078L944.414 1440Zm0 0" transform="matrix(.1 0 0 -.1 0 200)"/><path style="fill-rule:nonzero;fill:#9d8abe;fill-opacity:1;stroke-width:7.36;stroke-linecap:round;stroke-linejoin:round;stroke:#000;stroke-opacity:1;stroke-miterlimit:10" d="m275.43 1175.977 217.422-363.399 422.304 158.594" transform="matrix(.1 0 0 -.1 0 200)"/><path style="stroke:none;fill-rule:nonzero;fill:#9d8abe;fill-opacity:1" d="M54.691 44.441 27.543 82.402l63.973 20.48"/><path style="fill:none;stroke-width:7.36;stroke-linecap:round;stroke-linejoin:round;stroke:#000;stroke-opacity:1;stroke-miterlimit:10" d="m546.914 1555.586-271.484-379.61" transform="matrix(.1 0 0 -.1 0 200)"/><path style="fill-rule:nonzero;fill:#9d8abe;fill-opacity:1;stroke-width:7.36;stroke-linecap:round;stroke-linejoin:round;stroke:#000;stroke-opacity:1;stroke-miterlimit:10" d="M915.156 971.172 944.414 1440l-397.5 115.586" transform="matrix(.1 0 0 -.1 0 200)"/><path style="stroke:none;fill-rule:nonzero;fill:#cb99a3;fill-opacity:1" d="m171.578 129.047-32.281-22-5.996 45.781"/><path style="fill:none;stroke-width:7.36;stroke-linecap:round;stroke-linejoin:round;stroke:#000;stroke-opacity:1;stroke-miterlimit:10" d="m1715.781 709.531-322.812 220-59.961-457.812Zm0 0" transform="matrix(.1 0 0 -.1 0 200)"/><path style="fill-rule:nonzero;fill:#b98ca7;fill-opacity:1;stroke-width:7.36;stroke-linecap:round;stroke-linejoin:round;stroke:#000;stroke-opacity:1;stroke-miterlimit:10" d="m915.156 971.172-53.828-461.64 471.68-37.813" transform="matrix(.1 0 0 -.1 0 200)"/><path style="fill-rule:nonzero;fill:#b98ca7;fill-opacity:1;stroke-width:7.36;stroke-linecap:round;stroke-linejoin:round;stroke:#000;stroke-opacity:1;stroke-miterlimit:10" d="m1333.008 471.719 59.96 457.812-477.812 41.64" transform="matrix(.1 0 0 -.1 0 200)"/><path style="fill-rule:nonzero;fill:#bba1be;fill-opacity:1;stroke-width:7.36;stroke-linecap:round;stroke-linejoin:round;stroke:#000;stroke-opacity:1;stroke-miterlimit:10" d="m1392.969 929.531 23.437 466.055L944.414 1440" transform="matrix(.1 0 0 -.1 0 200)"/><path style="stroke:none;fill-rule:nonzero;fill:#a680a9;fill-opacity:1" d="m86.133 149.047 5.383-46.164-42.23 15.86"/><path style="fill:none;stroke-width:7.36;stroke-linecap:round;stroke-linejoin:round;stroke:#000;stroke-opacity:1;stroke-miterlimit:10" d="m861.328 509.531 53.828 461.64-422.304-158.593Zm0 0" transform="matrix(.1 0 0 -.1 0 200)"/><path style="fill-rule:nonzero;fill:#bba1be;fill-opacity:1;stroke-width:7.36;stroke-linecap:round;stroke-linejoin:round;stroke:#000;stroke-opacity:1;stroke-miterlimit:10" d="m944.414 1440-29.258-468.828 477.813-41.64" transform="matrix(.1 0 0 -.1 0 200)"/></svg>