<svg xmlns="http://www.w3.org/2000/svg" width="272" height="200pt" viewBox="0 0 204 200" version="1.2"><path style="stroke:none;fill-rule:nonzero;fill:#d7b8ba;fill-opacity:1" d="m69.223 93.574 4.43 35.524L20.53 92.8"/><path style="fill:none;stroke-width:6.06023;stroke-linecap:round;stroke-linejoin:round;stroke:#000;stroke-opacity:1;stroke-miterlimit:10" d="m692.227 1064.258 44.296-355.235" transform="matrix(.1 0 0 -.1 0 200)"/><path style="fill-rule:nonzero;fill:#d7b8ba;fill-opacity:1;stroke-width:6.06023;stroke-linecap:round;stroke-linejoin:round;stroke:#000;stroke-opacity:1;stroke-miterlimit:10" d="m205.313 1071.992 228.945 177.11 257.969-184.844" transform="matrix(.1 0 0 -.1 0 200)"/><path style="fill-rule:nonzero;fill:#ad91b9;fill-opacity:1;stroke-width:6.06023;stroke-linecap:round;stroke-linejoin:round;stroke:#000;stroke-opacity:1;stroke-miterlimit:10" d="m692.227 1064.258 215.586 287.969 353.125 56.718" transform="matrix(.1 0 0 -.1 0 200)"/><path style="stroke:none;fill-rule:nonzero;fill:#ad91b9;fill-opacity:1" d="m73.652 129.098-4.43-35.524 56.872-34.469"/><path style="fill:none;stroke-width:6.06023;stroke-linecap:round;stroke-linejoin:round;stroke:#000;stroke-opacity:1;stroke-miterlimit:10" d="m736.523 709.023-44.296 355.235" transform="matrix(.1 0 0 -.1 0 200)"/><path style="fill-rule:nonzero;fill:#c795a2;fill-opacity:1;stroke-width:6.06023;stroke-linecap:round;stroke-linejoin:round;stroke:#000;stroke-opacity:1;stroke-miterlimit:10" d="m692.227 1064.258-257.97 184.844 221.173 295.664M655.43 1544.766l252.383-192.54-215.586-287.968" transform="matrix(.1 0 0 -.1 0 200)"/><path style="stroke:none;fill-rule:nonzero;fill:#b06d85;fill-opacity:1" d="M90.781 64.777 65.543 45.523 113.18 12.54"/><path style="fill:none;stroke-width:6.06023;stroke-linecap:round;stroke-linejoin:round;stroke:#000;stroke-opacity:1;stroke-miterlimit:10" d="M907.813 1352.227 655.43 1544.766" transform="matrix(.1 0 0 -.1 0 200)"/><path style="stroke:none;fill-rule:nonzero;fill:#b06d85;fill-opacity:1" d="M126.094 59.105 90.78 64.777 113.18 12.54"/><path style="fill:none;stroke-width:6.06023;stroke-linecap:round;stroke-linejoin:round;stroke:#000;stroke-opacity:1;stroke-miterlimit:10" d="m1260.938 1408.945-353.126-56.718" transform="matrix(.1 0 0 -.1 0 200)"/><path style="fill-rule:nonzero;fill:#c1bad4;fill-opacity:1;stroke-width:6.06023;stroke-linecap:round;stroke-linejoin:round;stroke:#000;stroke-opacity:1;stroke-miterlimit:10" d="m522.305 517.227 214.218 191.796 282.852-218.398" transform="matrix(.1 0 0 -.1 0 200)"/><path style="stroke:none;fill-rule:nonzero;fill:#d7b8ba;fill-opacity:1" d="m73.652 129.098-21.422 19.18L20.531 92.8"/><path style="fill:none;stroke-width:6.06023;stroke-linecap:round;stroke-linejoin:round;stroke:#000;stroke-opacity:1;stroke-miterlimit:10" d="M736.523 709.023 522.305 517.227" transform="matrix(.1 0 0 -.1 0 200)"/><path style="stroke:none;fill-rule:nonzero;fill:#ad91b9;fill-opacity:1" d="m101.938 150.938-28.286-21.84 52.442-69.993"/><path style="fill:none;stroke-width:6.06023;stroke-linecap:round;stroke-linejoin:round;stroke:#000;stroke-opacity:1;stroke-miterlimit:10" d="M1019.375 490.625 736.523 709.023" transform="matrix(.1 0 0 -.1 0 200)"/><path style="stroke:none;fill-rule:nonzero;fill:#ad91b9;fill-opacity:1" d="m137.91 145.824-35.972 5.113 24.156-91.832"/><path style="fill:none;stroke-width:6.06023;stroke-linecap:round;stroke-linejoin:round;stroke:#000;stroke-opacity:1;stroke-miterlimit:10" d="m1379.102 541.758-359.727-51.133" transform="matrix(.1 0 0 -.1 0 200)"/><path style="stroke:none;fill-rule:nonzero;fill:#ad91b9;fill-opacity:1" d="m160.031 116.344-22.12 29.48-11.817-86.719"/><path style="fill:none;stroke-width:6.06023;stroke-linecap:round;stroke-linejoin:round;stroke:#000;stroke-opacity:1;stroke-miterlimit:10" d="m1600.313 836.563-221.211-294.805" transform="matrix(.1 0 0 -.1 0 200)"/><path style="fill-rule:nonzero;fill:#ad91b9;fill-opacity:1;stroke-width:6.06023;stroke-linecap:round;stroke-linejoin:round;stroke:#000;stroke-opacity:1;stroke-miterlimit:10" d="m1260.938 1408.945 288.437-211.601 50.938-360.782" transform="matrix(.1 0 0 -.1 0 200)"/><path style="fill-rule:nonzero;fill:#916094;fill-opacity:1;stroke-width:6.06023;stroke-linecap:round;stroke-linejoin:round;stroke:#000;stroke-opacity:1;stroke-miterlimit:10" d="m1549.375 1197.344-288.438 211.601 121.172 256.172" transform="matrix(.1 0 0 -.1 0 200)"/><path style="fill-rule:nonzero;fill:#b06d85;fill-opacity:1;stroke-width:6.06023;stroke-linecap:round;stroke-linejoin:round;stroke:#000;stroke-opacity:1;stroke-miterlimit:10" d="m1131.797 1874.61 250.312-209.493-121.171-256.172" transform="matrix(.1 0 0 -.1 0 200)"/><path style="fill-rule:nonzero;fill:#c1bad4;fill-opacity:1;stroke-width:6.06023;stroke-linecap:round;stroke-linejoin:round;stroke:#000;stroke-opacity:1;stroke-miterlimit:10" d="M1019.375 490.625 812.5 289.453 522.305 517.227" transform="matrix(.1 0 0 -.1 0 200)"/><path style="stroke:none;fill-rule:nonzero;fill:#97b2e9;fill-opacity:1" d="m101.938 150.938 35.972-5.114-1.816 36.399"/><path style="fill:none;stroke-width:6.06023;stroke-linecap:round;stroke-linejoin:round;stroke:#000;stroke-opacity:1;stroke-miterlimit:10" d="m1019.375 490.625 359.727 51.133" transform="matrix(.1 0 0 -.1 0 200)"/><path style="stroke:none;fill-rule:nonzero;fill:#97b2e9;fill-opacity:1" d="m81.25 171.055 20.688-20.118 34.156 31.286"/><path style="fill:none;stroke-width:6.06023;stroke-linecap:round;stroke-linejoin:round;stroke:#000;stroke-opacity:1;stroke-miterlimit:10" d="m812.5 289.453 206.875 201.172" transform="matrix(.1 0 0 -.1 0 200)"/><path style="fill-rule:nonzero;fill:#916094;fill-opacity:1;stroke-width:6.06023;stroke-linecap:round;stroke-linejoin:round;stroke:#000;stroke-opacity:1;stroke-miterlimit:10" d="m1382.11 1665.117 299.765-216.328-132.5-251.445" transform="matrix(.1 0 0 -.1 0 200)"/><path style="fill-rule:nonzero;fill:#604ba2;fill-opacity:1;stroke-width:6.06023;stroke-linecap:round;stroke-linejoin:round;stroke:#000;stroke-opacity:1;stroke-miterlimit:10" d="m1549.375 1197.344 132.5 251.445 198.71-113.672" transform="matrix(.1 0 0 -.1 0 200)"/><path style="stroke:none;fill-rule:nonzero;fill:#604ba2;fill-opacity:1" d="m160.031 116.344-5.094-36.078 33.122-13.778"/><path style="fill:none;stroke-width:6.06023;stroke-linecap:round;stroke-linejoin:round;stroke:#000;stroke-opacity:1;stroke-miterlimit:10" d="m1600.313 836.563-50.938 360.78" transform="matrix(.1 0 0 -.1 0 200)"/><path style="fill-rule:nonzero;fill:#97b2e9;fill-opacity:1;stroke-width:6.06023;stroke-linecap:round;stroke-linejoin:round;stroke:#000;stroke-opacity:1;stroke-miterlimit:10" d="m1379.102 541.758 180.156-148.828-198.32-215.157" transform="matrix(.1 0 0 -.1 0 200)"/><path style="fill-rule:nonzero;fill:#7f82cd;fill-opacity:1;stroke-width:6.06023;stroke-linecap:round;stroke-linejoin:round;stroke:#000;stroke-opacity:1;stroke-miterlimit:10" d="m1379.102 541.758 221.21 294.804 189.649-136.484" transform="matrix(.1 0 0 -.1 0 200)"/><path style="fill-rule:nonzero;fill:#7f82cd;fill-opacity:1;stroke-width:6.06023;stroke-linecap:round;stroke-linejoin:round;stroke:#000;stroke-opacity:1;stroke-miterlimit:10" d="M1789.96 700.078 1559.259 392.93l-180.156 148.828" transform="matrix(.1 0 0 -.1 0 200)"/><path style="stroke:none;fill-rule:nonzero;fill:#604ba2;fill-opacity:1" d="m178.996 129.992-18.965-13.648 28.028-49.856"/><path style="fill:none;stroke-width:6.06023;stroke-linecap:round;stroke-linejoin:round;stroke:#000;stroke-opacity:1;stroke-miterlimit:10" d="m1789.96 700.078-189.648 136.485" transform="matrix(.1 0 0 -.1 0 200)"/><path style="stroke:none;fill-rule:nonzero;fill:#e78548;fill-opacity:1" d="M43.426 75.09 20.53 92.8 43.293 27.13"/><path style="fill:none;stroke-width:6.06023;stroke-linecap:round;stroke-linejoin:round;stroke:#000;stroke-opacity:1;stroke-miterlimit:10" d="m434.258 1249.102-228.945-177.11" transform="matrix(.1 0 0 -.1 0 200)"/><path style="stroke:none;fill-rule:nonzero;fill:#e78548;fill-opacity:1" d="M65.543 45.523 43.426 75.09l-.133-47.961"/><path style="fill:none;stroke-width:6.06023;stroke-linecap:round;stroke-linejoin:round;stroke:#000;stroke-opacity:1;stroke-miterlimit:10" d="m655.43 1544.766-221.172-295.664" transform="matrix(.1 0 0 -.1 0 200)"/><path style="fill-rule:nonzero;fill:#b06d85;fill-opacity:1;stroke-width:6.06023;stroke-linecap:round;stroke-linejoin:round;stroke:#000;stroke-opacity:1;stroke-miterlimit:10" d="m655.43 1544.766 102.226 265.898 374.14 63.945" transform="matrix(.1 0 0 -.1 0 200)"/><path style="stroke:none;fill-rule:nonzero;fill:#e78548;fill-opacity:1" d="m75.766 18.934-10.223 26.59-22.25-18.395"/><path style="fill:none;stroke-width:6.06023;stroke-linecap:round;stroke-linejoin:round;stroke:#000;stroke-opacity:1;stroke-miterlimit:10" d="M757.656 1810.664 655.43 1544.766" transform="matrix(.1 0 0 -.1 0 200)"/><path style="fill-rule:nonzero;fill:#d7b8ba;fill-opacity:1;stroke-width:6.06023;stroke-linecap:round;stroke-linejoin:round;stroke:#000;stroke-opacity:1;stroke-miterlimit:10" d="m522.305 517.227-273.36 177.539-43.632 377.226" transform="matrix(.1 0 0 -.1 0 200)"/><path style="stroke:none;fill-rule:nonzero;fill:#abf8cd;fill-opacity:1" d="m52.23 148.277 29.02 22.778-53.348-27.938"/><path style="fill:none;stroke-width:6.06023;stroke-linecap:round;stroke-linejoin:round;stroke:#000;stroke-opacity:1;stroke-miterlimit:10" d="M522.305 517.227 812.5 289.453" transform="matrix(.1 0 0 -.1 0 200)"/><path style="stroke:none;fill-rule:nonzero;fill:#abf8cd;fill-opacity:1" d="m24.895 130.523 27.335 17.754-24.328-5.16"/><path style="fill:none;stroke-width:6.06023;stroke-linecap:round;stroke-linejoin:round;stroke:#000;stroke-opacity:1;stroke-miterlimit:10" d="m248.945 694.766 273.36-177.54" transform="matrix(.1 0 0 -.1 0 200)"/><path style="stroke:none;fill-rule:nonzero;fill:#000;fill-opacity:1" d="M138.21 33.488 113.18 12.54l11.976.652"/><path style="fill:none;stroke-width:6.06023;stroke-linecap:round;stroke-linejoin:round;stroke:#000;stroke-opacity:1;stroke-miterlimit:10" d="m1382.11 1665.117-250.313 209.492" transform="matrix(.1 0 0 -.1 0 200)"/><path style="stroke:none;fill-rule:nonzero;fill:#000;fill-opacity:1" d="M168.188 55.121 138.21 33.488l-13.055-20.297"/><path style="fill:none;stroke-width:6.06023;stroke-linecap:round;stroke-linejoin:round;stroke:#000;stroke-opacity:1;stroke-miterlimit:10" d="m1681.875 1448.79-299.766 216.327" transform="matrix(.1 0 0 -.1 0 200)"/><path style="fill-rule:nonzero;fill:#97b2e9;fill-opacity:1;stroke-width:6.06023;stroke-linecap:round;stroke-linejoin:round;stroke:#000;stroke-opacity:1;stroke-miterlimit:10" d="M1360.938 177.773 972.89 125.508 812.5 289.453" transform="matrix(.1 0 0 -.1 0 200)"/><path style="stroke:none;fill-rule:nonzero;fill:#abf8cd;fill-opacity:1" d="m81.25 171.055 16.04 16.394-69.388-44.332"/><path style="fill:none;stroke-width:6.06023;stroke-linecap:round;stroke-linejoin:round;stroke:#000;stroke-opacity:1;stroke-miterlimit:10" d="m812.5 289.453 160.39-163.945" transform="matrix(.1 0 0 -.1 0 200)"/><path style="stroke:none;fill-rule:nonzero;fill:#000;fill-opacity:1" d="m188.059 66.488-19.871-11.367-43.032-41.93"/><path style="fill:none;stroke-width:6.06023;stroke-linecap:round;stroke-linejoin:round;stroke:#000;stroke-opacity:1;stroke-miterlimit:10" d="m1880.586 1335.117-198.711 113.672" transform="matrix(.1 0 0 -.1 0 200)"/><path style="fill-rule:nonzero;fill:#fede97;fill-opacity:1;stroke-width:6.06023;stroke-linecap:round;stroke-linejoin:round;stroke:#000;stroke-opacity:1;stroke-miterlimit:10" d="m93.398 1120.898 111.915-48.906 43.632-377.226" transform="matrix(.1 0 0 -.1 0 200)"/><path style="stroke:none;fill-rule:nonzero;fill:#e78548;fill-opacity:1" d="M20.531 92.8 9.34 87.91 43.293 27.13"/><path style="fill:none;stroke-width:6.06023;stroke-linecap:round;stroke-linejoin:round;stroke:#000;stroke-opacity:1;stroke-miterlimit:10" d="m205.313 1071.992-111.915 48.906" transform="matrix(.1 0 0 -.1 0 200)"/><path style="fill-rule:nonzero;fill:#e78548;fill-opacity:1;stroke-width:6.06023;stroke-linecap:round;stroke-linejoin:round;stroke:#000;stroke-opacity:1;stroke-miterlimit:10" d="m432.93 1728.71 241.172 169.142 83.554-87.188" transform="matrix(.1 0 0 -.1 0 200)"/><path style="fill-rule:nonzero;fill:#900f03;fill-opacity:1;stroke-width:6.06023;stroke-linecap:round;stroke-linejoin:round;stroke:#000;stroke-opacity:1;stroke-miterlimit:10" d="m757.656 1810.664-83.554 87.188 393.007 68.007" transform="matrix(.1 0 0 -.1 0 200)"/><path style="fill-rule:nonzero;fill:#900f03;fill-opacity:1;stroke-width:6.06023;stroke-linecap:round;stroke-linejoin:round;stroke:#000;stroke-opacity:1;stroke-miterlimit:10" d="m1067.11 1965.86 64.687-91.25-374.14-63.946" transform="matrix(.1 0 0 -.1 0 200)"/><path style="stroke:none;fill-rule:nonzero;fill:#c50;fill-opacity:1" d="m155.926 160.707 23.07-30.715-7.894-7.797"/><path style="fill:none;stroke-width:6.06023;stroke-linecap:round;stroke-linejoin:round;stroke:#000;stroke-opacity:1;stroke-miterlimit:10" d="m1559.258 392.93 230.703 307.148" transform="matrix(.1 0 0 -.1 0 200)"/><path style="stroke:none;fill-rule:nonzero;fill:#c50;fill-opacity:1" d="m136.094 182.223 19.832-21.516 15.176-38.512"/><path style="fill:none;stroke-width:6.06023;stroke-linecap:round;stroke-linejoin:round;stroke:#000;stroke-opacity:1;stroke-miterlimit:10" d="m1360.938 177.773 198.32 215.157" transform="matrix(.1 0 0 -.1 0 200)"/><path style="fill-rule:nonzero;fill:#604ba2;fill-opacity:1;stroke-width:6.06023;stroke-linecap:round;stroke-linejoin:round;stroke:#000;stroke-opacity:1;stroke-miterlimit:10" d="m1880.586 1335.117 57.46-388.906-148.085-246.133" transform="matrix(.1 0 0 -.1 0 200)"/><path style="stroke:none;fill-rule:nonzero;fill:#c50;fill-opacity:1" d="m178.996 129.992 14.809-24.613-22.703 16.816"/><path style="fill:none;stroke-width:6.06023;stroke-linecap:round;stroke-linejoin:round;stroke:#000;stroke-opacity:1;stroke-miterlimit:10" d="m1789.96 700.078 148.087 246.133" transform="matrix(.1 0 0 -.1 0 200)"/><path style="fill-rule:nonzero;fill:#abf8cd;fill-opacity:1;stroke-width:6.06023;stroke-linecap:round;stroke-linejoin:round;stroke:#000;stroke-opacity:1;stroke-miterlimit:10" d="M279.023 568.828 138.437 724.414l110.508-29.648" transform="matrix(.1 0 0 -.1 0 200)"/><path style="fill-rule:nonzero;fill:#fede97;fill-opacity:1;stroke-width:6.06023;stroke-linecap:round;stroke-linejoin:round;stroke:#000;stroke-opacity:1;stroke-miterlimit:10" d="m248.945 694.766-110.507 29.648-45.04 396.484" transform="matrix(.1 0 0 -.1 0 200)"/><path style="fill-rule:nonzero;fill:#000;fill-opacity:1;stroke-width:6.06023;stroke-linecap:round;stroke-linejoin:round;stroke:#000;stroke-opacity:1;stroke-miterlimit:10" d="m1131.797 1874.61-64.688 91.25 184.454-97.774" transform="matrix(.1 0 0 -.1 0 200)"/><path style="fill-rule:nonzero;fill:#280000;fill-opacity:1;stroke-width:6.06023;stroke-linecap:round;stroke-linejoin:round;stroke:#000;stroke-opacity:1;stroke-miterlimit:10" d="m972.89 125.508 388.048 52.265-54.57 2.852" transform="matrix(.1 0 0 -.1 0 200)"/><path style="stroke:none;fill-rule:nonzero;fill:#abf8cd;fill-opacity:1" d="m97.29 187.45-7.485-.005-61.903-44.328"/><path style="fill:none;stroke-width:6.06023;stroke-linecap:round;stroke-linejoin:round;stroke:#000;stroke-opacity:1;stroke-miterlimit:10" d="m972.89 125.508-74.843.039" transform="matrix(.1 0 0 -.1 0 200)"/><path style="fill-rule:nonzero;fill:#280000;fill-opacity:1;stroke-width:6.06023;stroke-linecap:round;stroke-linejoin:round;stroke:#000;stroke-opacity:1;stroke-miterlimit:10" d="m1306.367 180.625-408.32-55.078 74.844-.04" transform="matrix(.1 0 0 -.1 0 200)"/><path style="stroke:none;fill-rule:nonzero;fill:#000;fill-opacity:1" d="m185.422 60 2.637 6.488-62.903-53.297"/><path style="fill:none;stroke-width:6.06023;stroke-linecap:round;stroke-linejoin:round;stroke:#000;stroke-opacity:1;stroke-miterlimit:10" d="m1854.219 1400 26.367-64.883" transform="matrix(.1 0 0 -.1 0 200)"/><path style="fill-rule:nonzero;fill:#ccbd37;fill-opacity:1;stroke-width:6.06023;stroke-linecap:round;stroke-linejoin:round;stroke:#000;stroke-opacity:1;stroke-miterlimit:10" d="m1938.047 946.21-57.461 388.907-26.367 64.883" transform="matrix(.1 0 0 -.1 0 200)"/><path style="stroke:none;fill-rule:nonzero;fill:#c50;fill-opacity:1" d="m130.637 181.938 5.457.285 35.008-60.028"/><path style="fill:none;stroke-width:6.06023;stroke-linecap:round;stroke-linejoin:round;stroke:#000;stroke-opacity:1;stroke-miterlimit:10" d="m1306.367 180.625 54.57-2.852" transform="matrix(.1 0 0 -.1 0 200)"/><path style="fill-rule:nonzero;fill:#c50;fill-opacity:1;stroke-width:6.06023;stroke-linecap:round;stroke-linejoin:round;stroke:#000;stroke-opacity:1;stroke-miterlimit:10" d="m1938.047 946.21-23.438 44.376-203.593-212.54" transform="matrix(.1 0 0 -.1 0 200)"/><path style="fill-rule:nonzero;fill:#ccbd37;fill-opacity:1;stroke-width:6.06023;stroke-linecap:round;stroke-linejoin:round;stroke:#000;stroke-opacity:1;stroke-miterlimit:10" d="m1854.219 1400 60.39-409.414 23.438-44.375" transform="matrix(.1 0 0 -.1 0 200)"/><path style="fill-rule:nonzero;fill:#e78548;fill-opacity:1;stroke-width:6.06023;stroke-linecap:round;stroke-linejoin:round;stroke:#000;stroke-opacity:1;stroke-miterlimit:10" d="m93.398 1120.898 89.922 273.75 249.61 334.063" transform="matrix(.1 0 0 -.1 0 200)"/><path style="stroke:none;fill-rule:nonzero;fill:#2c1f8d;fill-opacity:1" d="m9.34 87.91 4.504 39.649 19.215-54.2"/><path style="fill:none;stroke-width:6.06023;stroke-linecap:round;stroke-linejoin:round;stroke:#000;stroke-opacity:1;stroke-miterlimit:10" d="m93.398 1120.898 45.04-396.484" transform="matrix(.1 0 0 -.1 0 200)"/><path style="fill-rule:nonzero;fill:#2c1f8d;fill-opacity:1;stroke-width:6.06023;stroke-linecap:round;stroke-linejoin:round;stroke:#000;stroke-opacity:1;stroke-miterlimit:10" d="M330.586 1266.406 183.32 1394.648l-89.922-273.75" transform="matrix(.1 0 0 -.1 0 200)"/><path style="stroke:none;fill-rule:nonzero;fill:#7fb7f8;fill-opacity:1" d="M67.41 10.215 43.293 27.129l58.645 4.074"/><path style="fill:none;stroke-width:6.06023;stroke-linecap:round;stroke-linejoin:round;stroke:#000;stroke-opacity:1;stroke-miterlimit:10" d="M674.102 1897.852 432.93 1728.71" transform="matrix(.1 0 0 -.1 0 200)"/><path style="stroke:none;fill-rule:nonzero;fill:#7fb7f8;fill-opacity:1" d="m106.71 3.414-39.3 6.8 34.528 20.99"/><path style="fill:none;stroke-width:6.06023;stroke-linecap:round;stroke-linejoin:round;stroke:#000;stroke-opacity:1;stroke-miterlimit:10" d="m1067.11 1965.86-393.008-68.008" transform="matrix(.1 0 0 -.1 0 200)"/><path style="stroke:none;fill-rule:nonzero;fill:#2c1f8d;fill-opacity:1" d="m13.844 127.559 14.058 15.558L33.06 73.36"/><path style="fill:none;stroke-width:6.06023;stroke-linecap:round;stroke-linejoin:round;stroke:#000;stroke-opacity:1;stroke-miterlimit:10" d="m138.438 724.414 140.585-155.586" transform="matrix(.1 0 0 -.1 0 200)"/><path style="fill-rule:nonzero;fill:#7fb7f8;fill-opacity:1;stroke-width:6.06023;stroke-linecap:round;stroke-linejoin:round;stroke:#000;stroke-opacity:1;stroke-miterlimit:10" d="m1019.375 1687.969 232.188 180.117-184.454 97.773" transform="matrix(.1 0 0 -.1 0 200)"/><path style="fill-rule:nonzero;fill:#abf8cd;fill-opacity:1;stroke-width:6.06023;stroke-linecap:round;stroke-linejoin:round;stroke:#000;stroke-opacity:1;stroke-miterlimit:10" d="M898.047 125.547 604.96 311.328l-325.938 257.5" transform="matrix(.1 0 0 -.1 0 200)"/><path style="stroke:none;fill-rule:nonzero;fill:#ac5e73;fill-opacity:1" d="m89.805 187.445 40.832-5.507-14.746-45.352"/><path style="fill:none;stroke-width:6.06023;stroke-linecap:round;stroke-linejoin:round;stroke:#000;stroke-opacity:1;stroke-miterlimit:10" d="m898.047 125.547 408.32 55.078" transform="matrix(.1 0 0 -.1 0 200)"/><path style="stroke:none;fill-rule:nonzero;fill:#ac5e73;fill-opacity:1" d="m60.496 168.867 29.309 18.578 26.086-50.86"/><path style="fill:none;stroke-width:6.06023;stroke-linecap:round;stroke-linejoin:round;stroke:#000;stroke-opacity:1;stroke-miterlimit:10" d="m604.96 311.328 293.087-185.781" transform="matrix(.1 0 0 -.1 0 200)"/><path style="fill-rule:nonzero;fill:#000;fill-opacity:1;stroke-width:6.06023;stroke-linecap:round;stroke-linejoin:round;stroke:#000;stroke-opacity:1;stroke-miterlimit:10" d="m1251.563 1868.086 338.203-242.734L1854.219 1400" transform="matrix(.1 0 0 -.1 0 200)"/><path style="fill-rule:nonzero;fill:#e1c3ba;fill-opacity:1;stroke-width:6.06023;stroke-linecap:round;stroke-linejoin:round;stroke:#000;stroke-opacity:1;stroke-miterlimit:10" d="m1854.219 1400-264.453 225.352-221.446-192.11" transform="matrix(.1 0 0 -.1 0 200)"/><path style="stroke:none;fill-rule:nonzero;fill:#e1c3ba;fill-opacity:1" d="M191.46 100.941 185.423 60l-48.59-3.324"/><path style="fill:none;stroke-width:6.06023;stroke-linecap:round;stroke-linejoin:round;stroke:#000;stroke-opacity:1;stroke-miterlimit:10" d="M1914.61 990.586 1854.218 1400" transform="matrix(.1 0 0 -.1 0 200)"/><path style="fill-rule:nonzero;fill:#6076d1;fill-opacity:1;stroke-width:6.06023;stroke-linecap:round;stroke-linejoin:round;stroke:#000;stroke-opacity:1;stroke-miterlimit:10" d="m183.32 1394.648 147.266-128.242 261.797 350.117M592.383 1616.523 432.93 1728.711l-249.61-334.063" transform="matrix(.1 0 0 -.1 0 200)"/><path style="fill-rule:nonzero;fill:#7fb7f8;fill-opacity:1;stroke-width:6.06023;stroke-linecap:round;stroke-linejoin:round;stroke:#000;stroke-opacity:1;stroke-miterlimit:10" d="m432.93 1728.71 159.453-112.187 426.992 71.446" transform="matrix(.1 0 0 -.1 0 200)"/><path style="fill-rule:nonzero;fill:#c50;fill-opacity:1;stroke-width:6.06023;stroke-linecap:round;stroke-linejoin:round;stroke:#000;stroke-opacity:1;stroke-miterlimit:10" d="m1711.016 778.047-261.914-348.828-142.735-248.594" transform="matrix(.1 0 0 -.1 0 200)"/><path style="fill-rule:nonzero;fill:#ac5e73;fill-opacity:1;stroke-width:6.06023;stroke-linecap:round;stroke-linejoin:round;stroke:#000;stroke-opacity:1;stroke-miterlimit:10" d="m1306.367 180.625 142.735 248.594-290.196 204.922" transform="matrix(.1 0 0 -.1 0 200)"/><path style="stroke:none;fill-rule:nonzero;fill:#e1c3ba;fill-opacity:1" d="m171.102 122.195 20.359-21.254-54.629-44.265"/><path style="fill:none;stroke-width:6.06023;stroke-linecap:round;stroke-linejoin:round;stroke:#000;stroke-opacity:1;stroke-miterlimit:10" d="m1711.016 778.047 203.593 212.539" transform="matrix(.1 0 0 -.1 0 200)"/><path style="fill-rule:nonzero;fill:#814b86;fill-opacity:1;stroke-width:6.06023;stroke-linecap:round;stroke-linejoin:round;stroke:#000;stroke-opacity:1;stroke-miterlimit:10" d="m381.563 835.742-102.54-266.914 325.938-257.5" transform="matrix(.1 0 0 -.1 0 200)"/><path style="fill-rule:nonzero;fill:#2c1f8d;fill-opacity:1;stroke-width:6.06023;stroke-linecap:round;stroke-linejoin:round;stroke:#000;stroke-opacity:1;stroke-miterlimit:10" d="m279.023 568.828 102.54 266.914-50.977 430.664" transform="matrix(.1 0 0 -.1 0 200)"/><path style="fill-rule:nonzero;fill:#c3c7dd;fill-opacity:1;stroke-width:6.06023;stroke-linecap:round;stroke-linejoin:round;stroke:#000;stroke-opacity:1;stroke-miterlimit:10" d="m1589.766 1625.352-338.204 242.734-232.187-180.117" transform="matrix(.1 0 0 -.1 0 200)"/><path style="fill-rule:nonzero;fill:#814b86;fill-opacity:1;stroke-width:6.06023;stroke-linecap:round;stroke-linejoin:round;stroke:#000;stroke-opacity:1;stroke-miterlimit:10" d="m604.96 311.328 117.227 259.61-340.625 264.804" transform="matrix(.1 0 0 -.1 0 200)"/><path style="fill-rule:nonzero;fill:#ac5e73;fill-opacity:1;stroke-width:6.06023;stroke-linecap:round;stroke-linejoin:round;stroke:#000;stroke-opacity:1;stroke-miterlimit:10" d="m1158.906 634.14-436.718-63.202-117.227-259.61" transform="matrix(.1 0 0 -.1 0 200)"/><path style="fill-rule:nonzero;fill:#c3c7dd;fill-opacity:1;stroke-width:6.06023;stroke-linecap:round;stroke-linejoin:round;stroke:#000;stroke-opacity:1;stroke-miterlimit:10" d="m1019.375 1687.969 348.945-254.727 221.446 192.11" transform="matrix(.1 0 0 -.1 0 200)"/><path style="fill-rule:nonzero;fill:#cc959c;fill-opacity:1;stroke-width:6.06023;stroke-linecap:round;stroke-linejoin:round;stroke:#000;stroke-opacity:1;stroke-miterlimit:10" d="m1449.102 429.219 261.914 348.828-281.993 216.289M1429.023 994.336 1158.906 634.14l290.196-204.922" transform="matrix(.1 0 0 -.1 0 200)"/><path style="fill-rule:nonzero;fill:#e1c3ba;fill-opacity:1;stroke-width:6.06023;stroke-linecap:round;stroke-linejoin:round;stroke:#000;stroke-opacity:1;stroke-miterlimit:10" d="m1368.32 1433.242 60.703-438.906 281.993-216.29" transform="matrix(.1 0 0 -.1 0 200)"/><path style="stroke:none;fill-rule:nonzero;fill:#ab90ba;fill-opacity:1" d="m33.059 73.36 5.097 43.066 63.782-85.223"/><path style="fill:none;stroke-width:6.06023;stroke-linecap:round;stroke-linejoin:round;stroke:#000;stroke-opacity:1;stroke-miterlimit:10" d="m330.586 1266.406 50.976-430.664" transform="matrix(.1 0 0 -.1 0 200)"/><path style="fill-rule:nonzero;fill:#ab90ba;fill-opacity:1;stroke-width:6.06023;stroke-linecap:round;stroke-linejoin:round;stroke:#000;stroke-opacity:1;stroke-miterlimit:10" d="m1019.375 1687.969-426.992-71.446-261.797-350.117" transform="matrix(.1 0 0 -.1 0 200)"/><path style="stroke:none;fill-rule:nonzero;fill:#ab90ba;fill-opacity:1" d="m38.156 116.426 34.063 26.48 29.719-111.703"/><path style="fill:none;stroke-width:6.06023;stroke-linecap:round;stroke-linejoin:round;stroke:#000;stroke-opacity:1;stroke-miterlimit:10" d="m381.563 835.742 340.625-264.804" transform="matrix(.1 0 0 -.1 0 200)"/><path style="fill-rule:nonzero;fill:#ab90ba;fill-opacity:1;stroke-width:6.06023;stroke-linecap:round;stroke-linejoin:round;stroke:#000;stroke-opacity:1;stroke-miterlimit:10" d="m1429.023 994.336-60.703 438.906-348.945 254.727" transform="matrix(.1 0 0 -.1 0 200)"/><path style="stroke:none;fill-rule:nonzero;fill:#ab90ba;fill-opacity:1" d="m115.89 136.586 27.012-36.02-40.964-69.363"/><path style="fill:none;stroke-width:6.06023;stroke-linecap:round;stroke-linejoin:round;stroke:#000;stroke-opacity:1;stroke-miterlimit:10" d="m1158.906 634.14 270.117 360.196" transform="matrix(.1 0 0 -.1 0 200)"/><path style="stroke:none;fill-rule:nonzero;fill:#ab90ba;fill-opacity:1" d="m72.219 142.906 43.672-6.32-13.954-105.383"/><path style="fill:none;stroke-width:6.06023;stroke-linecap:round;stroke-linejoin:round;stroke:#000;stroke-opacity:1;stroke-miterlimit:10" d="m722.188 570.938 436.718 63.203" transform="matrix(.1 0 0 -.1 0 200)"/></svg>