<svg xmlns="http://www.w3.org/2000/svg" width="187pt" height="200pt" viewBox="0 0 187 200" version="1.2"><path style="fill-rule:nonzero;fill:#afb2da;fill-opacity:1;stroke-width:5.33919;stroke-linecap:round;stroke-linejoin:round;stroke:#000;stroke-opacity:1;stroke-miterlimit:10" d="m1399.61 963.32-793.165 77.617-556.64-380.976" transform="matrix(.1 0 0 -.1 0 200)"/><path style="fill-rule:nonzero;fill:#a66482;fill-opacity:1;stroke-width:5.33919;stroke-linecap:round;stroke-linejoin:round;stroke:#000;stroke-opacity:1;stroke-miterlimit:10" d="m129.414 1499.18 477.031-458.243 793.164-77.617" transform="matrix(.1 0 0 -.1 0 200)"/><path style="stroke:none;fill-rule:nonzero;fill:#d1a8ae;fill-opacity:1" d="M60.645 95.906 4.98 134.004l7.961-83.922"/><path style="fill:none;stroke-width:5.33919;stroke-linecap:round;stroke-linejoin:round;stroke:#000;stroke-opacity:1;stroke-miterlimit:10" d="M606.445 1040.938 49.805 659.96l79.61 839.219Zm0 0" transform="matrix(.1 0 0 -.1 0 200)"/><path style="stroke:none;fill-rule:nonzero;fill:#afb2da;fill-opacity:1" d="m172.98 151.48-33.02-47.812L4.98 134.004"/><path style="fill:none;stroke-width:5.33919;stroke-linecap:round;stroke-linejoin:round;stroke:#000;stroke-opacity:1;stroke-miterlimit:10" d="M1729.805 485.195 1399.609 963.32" transform="matrix(.1 0 0 -.1 0 200)"/><path style="stroke:none;fill-rule:nonzero;fill:#a66482;fill-opacity:1" d="M47.066 6.441 12.941 50.082l127.02 53.586"/><path style="fill:none;stroke-width:5.33919;stroke-linecap:round;stroke-linejoin:round;stroke:#000;stroke-opacity:1;stroke-miterlimit:10" d="m470.664 1935.586-341.25-436.406" transform="matrix(.1 0 0 -.1 0 200)"/><path style="stroke:none;fill-rule:nonzero;fill:#a66482;fill-opacity:1" d="m136.59 14.102-89.524-7.66 92.895 97.226"/><path style="fill:none;stroke-width:5.33919;stroke-linecap:round;stroke-linejoin:round;stroke:#000;stroke-opacity:1;stroke-miterlimit:10" d="m1365.898 1858.984-895.234 76.602" transform="matrix(.1 0 0 -.1 0 200)"/><path style="fill-rule:nonzero;fill:#a66482;fill-opacity:1;stroke-width:5.33919;stroke-linecap:round;stroke-linejoin:round;stroke:#000;stroke-opacity:1;stroke-miterlimit:10" d="m1399.61 963.32 412.187 380.899-445.899 514.765" transform="matrix(.1 0 0 -.1 0 200)"/><path style="stroke:none;fill-rule:nonzero;fill:#7765b1;fill-opacity:1" d="m172.98 151.48-33.02-47.812 41.22-38.09"/><path style="fill:none;stroke-width:5.33919;stroke-linecap:round;stroke-linejoin:round;stroke:#000;stroke-opacity:1;stroke-miterlimit:10" d="M1729.805 485.195 1399.609 963.32l412.188 380.899Zm0 0" transform="matrix(.1 0 0 -.1 0 200)"/><path style="stroke:none;fill-rule:nonzero;fill:#afb2da;fill-opacity:1" d="m119.258 196.05 53.722-44.57-168-17.476"/><path style="fill:none;stroke-width:5.33919;stroke-linecap:round;stroke-linejoin:round;stroke:#000;stroke-opacity:1;stroke-miterlimit:10" d="m1192.578 39.492 537.227 445.703" transform="matrix(.1 0 0 -.1 0 200)"/><path style="fill-rule:nonzero;fill:#afb2da;fill-opacity:1;stroke-width:5.33919;stroke-linecap:round;stroke-linejoin:round;stroke:#000;stroke-opacity:1;stroke-miterlimit:10" d="M49.805 659.96 300 138.556l892.578-99.063" transform="matrix(.1 0 0 -.1 0 200)"/><path style="fill-rule:nonzero;fill:#6054ad;fill-opacity:1;stroke-width:5.33919;stroke-linecap:round;stroke-linejoin:round;stroke:#000;stroke-opacity:1;stroke-miterlimit:10" d="M680.04 504.297 300 138.555 49.805 659.96" transform="matrix(.1 0 0 -.1 0 200)"/><path style="stroke:none;fill-rule:nonzero;fill:#6054ad;fill-opacity:1" d="m77.195 52.89-9.191 96.68L4.98 134.004"/><path style="fill:none;stroke-width:5.33919;stroke-linecap:round;stroke-linejoin:round;stroke:#000;stroke-opacity:1;stroke-miterlimit:10" d="M771.953 1471.094 680.04 504.297" transform="matrix(.1 0 0 -.1 0 200)"/><path style="stroke:none;fill-rule:nonzero;fill:#6054ad;fill-opacity:1" d="m47.066 6.441 30.13 46.45L4.98 134.004"/><path style="fill:none;stroke-width:5.33919;stroke-linecap:round;stroke-linejoin:round;stroke:#000;stroke-opacity:1;stroke-miterlimit:10" d="m470.664 1935.586 301.29-464.492" transform="matrix(.1 0 0 -.1 0 200)"/><path style="fill-rule:nonzero;fill:#6054ad;fill-opacity:1;stroke-width:5.33919;stroke-linecap:round;stroke-linejoin:round;stroke:#000;stroke-opacity:1;stroke-miterlimit:10" d="m49.805 659.96 79.61 839.22 341.25 436.406" transform="matrix(.1 0 0 -.1 0 200)"/><path style="fill-rule:nonzero;fill:#d7acac;fill-opacity:1;stroke-width:5.33919;stroke-linecap:round;stroke-linejoin:round;stroke:#000;stroke-opacity:1;stroke-miterlimit:10" d="m1811.797 1344.219-81.992-859.024-537.227-445.703" transform="matrix(.1 0 0 -.1 0 200)"/><path style="stroke:none;fill-rule:nonzero;fill:#d7acac;fill-opacity:1" d="m136.59 14.102 44.59 51.476-61.922 130.473"/><path style="fill:none;stroke-width:5.33919;stroke-linecap:round;stroke-linejoin:round;stroke:#000;stroke-opacity:1;stroke-miterlimit:10" d="m1365.898 1858.984 445.899-514.765" transform="matrix(.1 0 0 -.1 0 200)"/><path style="stroke:none;fill-rule:nonzero;fill:#a05472;fill-opacity:1" d="M119.258 196.05 30 186.146l38.004-36.575"/><path style="fill:none;stroke-width:5.33919;stroke-linecap:round;stroke-linejoin:round;stroke:#000;stroke-opacity:1;stroke-miterlimit:10" d="M1192.578 39.492 300 138.555l380.04 365.742Zm0 0" transform="matrix(.1 0 0 -.1 0 200)"/><path style="stroke:none;fill-rule:nonzero;fill:#acb8e2;fill-opacity:1" d="M136.59 14.102 77.195 52.89 47.066 6.44"/><path style="fill:none;stroke-width:5.33919;stroke-linecap:round;stroke-linejoin:round;stroke:#000;stroke-opacity:1;stroke-miterlimit:10" d="m1365.898 1858.984-593.945-387.89-301.289 464.492Zm0 0" transform="matrix(.1 0 0 -.1 0 200)"/><path style="stroke:none;fill-rule:nonzero;fill:#d7acac;fill-opacity:1" d="m77.195 52.89 59.395-38.788-17.332 181.949"/><path style="fill:none;stroke-width:5.33919;stroke-linecap:round;stroke-linejoin:round;stroke:#000;stroke-opacity:1;stroke-miterlimit:10" d="m771.953 1471.094 593.945 387.89" transform="matrix(.1 0 0 -.1 0 200)"/><path style="fill-rule:nonzero;fill:#d7acac;fill-opacity:1;stroke-width:5.33919;stroke-linecap:round;stroke-linejoin:round;stroke:#000;stroke-opacity:1;stroke-miterlimit:10" d="M1192.578 39.492 680.04 504.297l91.914 966.797" transform="matrix(.1 0 0 -.1 0 200)"/></svg>