<svg xmlns="http://www.w3.org/2000/svg" width="193pt" height="205pt" viewBox="0 0 193 205" version="1.2"><path style="stroke:none;fill-rule:nonzero;fill:#be9cb4;fill-opacity:1" d="m107.063 107.008-44.305 8.023 15.8-43.273"/><path style="fill:none;stroke-width:4.36718;stroke-linecap:round;stroke-linejoin:round;stroke:#000;stroke-opacity:1;stroke-miterlimit:10" d="m1070.625 979.922-443.047-80.235 158.008 432.735Zm0 0" transform="matrix(.1 0 0 -.1 0 205)"/><path style="stroke:none;fill-rule:nonzero;fill:#925e8f;fill-opacity:1" d="m107.063 107.008-28.504-35.25 78.136-54.332"/><path style="fill:none;stroke-width:4.36718;stroke-linecap:round;stroke-linejoin:round;stroke:#000;stroke-opacity:1;stroke-miterlimit:10" d="m1070.625 979.922-285.04 352.5" transform="matrix(.1 0 0 -.1 0 205)"/><path style="stroke:none;fill-rule:nonzero;fill:#925e8f;fill-opacity:1" d="m148.703 120.621-41.64-13.613 49.632-89.582"/><path style="fill:none;stroke-width:4.36718;stroke-linecap:round;stroke-linejoin:round;stroke:#000;stroke-opacity:1;stroke-miterlimit:10" d="m1487.031 843.79-416.406 136.132" transform="matrix(.1 0 0 -.1 0 205)"/><path style="fill-rule:nonzero;fill:#abbae3;fill-opacity:1;stroke-width:4.36718;stroke-linecap:round;stroke-linejoin:round;stroke:#000;stroke-opacity:1;stroke-miterlimit:10" d="m627.578 899.688 443.047 80.234 416.406-136.133" transform="matrix(.1 0 0 -.1 0 205)"/><path style="stroke:none;fill-rule:nonzero;fill:#efaf86;fill-opacity:1" d="M78.559 71.758 62.758 115.03 56.484 12.746"/><path style="fill:none;stroke-width:4.36718;stroke-linecap:round;stroke-linejoin:round;stroke:#000;stroke-opacity:1;stroke-miterlimit:10" d="M785.586 1332.422 627.578 899.687" transform="matrix(.1 0 0 -.1 0 205)"/><path style="fill-rule:nonzero;fill:#efaf86;fill-opacity:1;stroke-width:4.36718;stroke-linecap:round;stroke-linejoin:round;stroke:#000;stroke-opacity:1;stroke-miterlimit:10" d="m564.844 1922.54 206.992-180.352 13.75-409.766" transform="matrix(.1 0 0 -.1 0 205)"/><path style="stroke:none;fill-rule:nonzero;fill:#925e8f;fill-opacity:1" d="M78.559 71.758 77.184 30.78l79.511-13.355"/><path style="fill:none;stroke-width:4.36718;stroke-linecap:round;stroke-linejoin:round;stroke:#000;stroke-opacity:1;stroke-miterlimit:10" d="m785.586 1332.422-13.75 409.765" transform="matrix(.1 0 0 -.1 0 205)"/><path style="stroke:none;fill-rule:nonzero;fill:#efaf86;fill-opacity:1" d="m62.758 115.031-26.633 27.223 20.36-129.508"/><path style="fill:none;stroke-width:4.36718;stroke-linecap:round;stroke-linejoin:round;stroke:#000;stroke-opacity:1;stroke-miterlimit:10" d="M627.578 899.688 361.25 627.46" transform="matrix(.1 0 0 -.1 0 205)"/><path style="stroke:none;fill-rule:nonzero;fill:#abbae3;fill-opacity:1" d="m36.125 142.254 26.633-27.223 85.945 5.59"/><path style="fill:none;stroke-width:4.36718;stroke-linecap:round;stroke-linejoin:round;stroke:#000;stroke-opacity:1;stroke-miterlimit:10" d="m361.25 627.46 266.328 272.227" transform="matrix(.1 0 0 -.1 0 205)"/><path style="stroke:none;fill-rule:nonzero;fill:#7471c1;fill-opacity:1" d="m148.703 120.621 18.57 30.856 16.442-47.93"/><path style="fill:none;stroke-width:4.36718;stroke-linecap:round;stroke-linejoin:round;stroke:#000;stroke-opacity:1;stroke-miterlimit:10" d="m1487.031 843.79 185.703-308.556 164.414 479.297Zm0 0" transform="matrix(.1 0 0 -.1 0 205)"/><path style="stroke:none;fill-rule:nonzero;fill:#925e8f;fill-opacity:1" d="m183.715 103.547-35.012 17.074 7.992-103.195"/><path style="fill:none;stroke-width:4.36718;stroke-linecap:round;stroke-linejoin:round;stroke:#000;stroke-opacity:1;stroke-miterlimit:10" d="M1837.148 1014.531 1487.031 843.79" transform="matrix(.1 0 0 -.1 0 205)"/><path style="stroke:none;fill-rule:nonzero;fill:#abbae3;fill-opacity:1" d="m45.8 177.031-9.675-34.777 112.578-21.633"/><path style="fill:none;stroke-width:4.36718;stroke-linecap:round;stroke-linejoin:round;stroke:#000;stroke-opacity:1;stroke-miterlimit:10" d="M458.008 279.688 361.25 627.46" transform="matrix(.1 0 0 -.1 0 205)"/><path style="stroke:none;fill-rule:nonzero;fill:#abbae3;fill-opacity:1" d="m93.234 196.738-47.433-19.707 102.902-56.41"/><path style="fill:none;stroke-width:4.36718;stroke-linecap:round;stroke-linejoin:round;stroke:#000;stroke-opacity:1;stroke-miterlimit:10" d="m932.344 82.617-474.336 197.07" transform="matrix(.1 0 0 -.1 0 205)"/><path style="stroke:none;fill-rule:nonzero;fill:#abbae3;fill-opacity:1" d="m146.477 184.73-53.243 12.008 55.47-76.117"/><path style="fill:none;stroke-width:4.36718;stroke-linecap:round;stroke-linejoin:round;stroke:#000;stroke-opacity:1;stroke-miterlimit:10" d="M1464.766 202.695 932.344 82.617" transform="matrix(.1 0 0 -.1 0 205)"/><path style="fill-rule:nonzero;fill:#abbae3;fill-opacity:1;stroke-width:4.36718;stroke-linecap:round;stroke-linejoin:round;stroke:#000;stroke-opacity:1;stroke-miterlimit:10" d="m1487.031 843.79 185.703-308.556-207.968-332.539" transform="matrix(.1 0 0 -.1 0 205)"/><path style="stroke:none;fill-rule:nonzero;fill:#b24944;fill-opacity:1" d="m108.047 6.074-51.563 6.672 20.7 18.035"/><path style="fill:none;stroke-width:4.36718;stroke-linecap:round;stroke-linejoin:round;stroke:#000;stroke-opacity:1;stroke-miterlimit:10" d="m1080.469 1989.258-515.625-66.719 206.992-180.351Zm0 0" transform="matrix(.1 0 0 -.1 0 205)"/><path style="fill-rule:nonzero;fill:#925e8f;fill-opacity:1;stroke-width:4.36718;stroke-linecap:round;stroke-linejoin:round;stroke:#000;stroke-opacity:1;stroke-miterlimit:10" d="m771.836 1742.188 308.633 247.07 486.484-113.516" transform="matrix(.1 0 0 -.1 0 205)"/><path style="stroke:none;fill-rule:nonzero;fill:#e6f6d1;fill-opacity:1" d="m45.8 177.031-9.675-34.777-25.64-6.383"/><path style="fill:none;stroke-width:4.36718;stroke-linecap:round;stroke-linejoin:round;stroke:#000;stroke-opacity:1;stroke-miterlimit:10" d="M458.008 279.688 361.25 627.46l-256.406 63.828Zm0 0" transform="matrix(.1 0 0 -.1 0 205)"/><path style="stroke:none;fill-rule:nonzero;fill:#efaf86;fill-opacity:1" d="m36.125 142.254-25.64-6.383 46-123.125"/><path style="fill:none;stroke-width:4.36718;stroke-linecap:round;stroke-linejoin:round;stroke:#000;stroke-opacity:1;stroke-miterlimit:10" d="m361.25 627.46-256.406 63.83" transform="matrix(.1 0 0 -.1 0 205)"/><path style="fill-rule:nonzero;fill:#925e8f;fill-opacity:1;stroke-width:4.36718;stroke-linecap:round;stroke-linejoin:round;stroke:#000;stroke-opacity:1;stroke-miterlimit:10" d="m1566.953 1875.742 326.563-429.297-56.368-431.914" transform="matrix(.1 0 0 -.1 0 205)"/><path style="stroke:none;fill-rule:nonzero;fill:#000;fill-opacity:1" d="m156.695 17.426 22.785 26.238 9.872 16.691"/><path style="fill:none;stroke-width:4.36718;stroke-linecap:round;stroke-linejoin:round;stroke:#000;stroke-opacity:1;stroke-miterlimit:10" d="m1566.953 1875.742 227.852-262.383 98.71-166.914Zm0 0" transform="matrix(.1 0 0 -.1 0 205)"/><path style="stroke:none;fill-rule:nonzero;fill:#f8a94f;fill-opacity:1" d="m183.715 103.547-16.442 47.93L179.48 43.664"/><path style="fill:none;stroke-width:4.36718;stroke-linecap:round;stroke-linejoin:round;stroke:#000;stroke-opacity:1;stroke-miterlimit:10" d="m1837.148 1014.531-164.414-479.297" transform="matrix(.1 0 0 -.1 0 205)"/><path style="fill-rule:nonzero;fill:#f8a94f;fill-opacity:1;stroke-width:4.36718;stroke-linecap:round;stroke-linejoin:round;stroke:#000;stroke-opacity:1;stroke-miterlimit:10" d="m1794.805 1613.36 98.71-166.915-56.367-431.914" transform="matrix(.1 0 0 -.1 0 205)"/><path style="stroke:none;fill-rule:nonzero;fill:#f8a94f;fill-opacity:1" d="m167.273 151.477-20.796 33.253L179.48 43.664"/><path style="fill:none;stroke-width:4.36718;stroke-linecap:round;stroke-linejoin:round;stroke:#000;stroke-opacity:1;stroke-miterlimit:10" d="m1672.734 535.234-207.968-332.539" transform="matrix(.1 0 0 -.1 0 205)"/><path style="fill-rule:nonzero;fill:#9fc7f4;fill-opacity:1;stroke-width:4.36718;stroke-linecap:round;stroke-linejoin:round;stroke:#000;stroke-opacity:1;stroke-miterlimit:10" d="m564.844 1922.54 515.625 66.718 486.484-113.516" transform="matrix(.1 0 0 -.1 0 205)"/><path style="fill-rule:nonzero;fill:#efaf86;fill-opacity:1;stroke-width:4.36718;stroke-linecap:round;stroke-linejoin:round;stroke:#000;stroke-opacity:1;stroke-miterlimit:10" d="m37.11 1141.914 208.163 550.664 319.57 229.961" transform="matrix(.1 0 0 -.1 0 205)"/><path style="stroke:none;fill-rule:nonzero;fill:#efaf86;fill-opacity:1" d="M10.484 135.871 3.711 90.81l52.773-78.063"/><path style="fill:none;stroke-width:4.36718;stroke-linecap:round;stroke-linejoin:round;stroke:#000;stroke-opacity:1;stroke-miterlimit:10" d="m104.844 691.29-67.735 450.624" transform="matrix(.1 0 0 -.1 0 205)"/><path style="stroke:none;fill-rule:nonzero;fill:#9fc7f4;fill-opacity:1" d="m24.527 35.742 31.957-22.996 100.211 4.68"/><path style="fill:none;stroke-width:4.36718;stroke-linecap:round;stroke-linejoin:round;stroke:#000;stroke-opacity:1;stroke-miterlimit:10" d="m245.273 1692.578 319.57 229.961" transform="matrix(.1 0 0 -.1 0 205)"/><path style="stroke:none;fill-rule:nonzero;fill:#80437c;fill-opacity:1" d="m45.8 177.031-35.316-41.16 81.141-52.324"/><path style="fill:none;stroke-width:4.36718;stroke-linecap:round;stroke-linejoin:round;stroke:#000;stroke-opacity:1;stroke-miterlimit:10" d="M458.008 279.688 104.844 691.288" transform="matrix(.1 0 0 -.1 0 205)"/><path style="stroke:none;fill-rule:nonzero;fill:#80437c;fill-opacity:1" d="m93.234 196.738-47.433-19.707 45.824-93.484"/><path style="fill:none;stroke-width:4.36718;stroke-linecap:round;stroke-linejoin:round;stroke:#000;stroke-opacity:1;stroke-miterlimit:10" d="m932.344 82.617-474.336 197.07" transform="matrix(.1 0 0 -.1 0 205)"/><path style="stroke:none;fill-rule:nonzero;fill:#9fc7f4;fill-opacity:1" d="M34.879 65.977 24.527 35.742l132.168-18.316"/><path style="fill:none;stroke-width:4.36718;stroke-linecap:round;stroke-linejoin:round;stroke:#000;stroke-opacity:1;stroke-miterlimit:10" d="m348.79 1390.234-103.517 302.344" transform="matrix(.1 0 0 -.1 0 205)"/><path style="stroke:none;fill-rule:nonzero;fill:#9fc7f4;fill-opacity:1" d="m91.625 83.547-56.746-17.57 121.816-48.551"/><path style="fill:none;stroke-width:4.36718;stroke-linecap:round;stroke-linejoin:round;stroke:#000;stroke-opacity:1;stroke-miterlimit:10" d="m916.25 1214.531-567.46 175.703" transform="matrix(.1 0 0 -.1 0 205)"/><path style="stroke:none;fill-rule:nonzero;fill:#9fc7f4;fill-opacity:1" d="M155.703 72.805 91.625 83.547l65.07-66.121"/><path style="fill:none;stroke-width:4.36718;stroke-linecap:round;stroke-linejoin:round;stroke:#000;stroke-opacity:1;stroke-miterlimit:10" d="M1557.031 1321.953 916.25 1214.531" transform="matrix(.1 0 0 -.1 0 205)"/><path style="fill-rule:nonzero;fill:#9fc7f4;fill-opacity:1;stroke-width:4.36718;stroke-linecap:round;stroke-linejoin:round;stroke:#000;stroke-opacity:1;stroke-miterlimit:10" d="m1566.953 1875.742 227.852-262.383-237.774-291.406" transform="matrix(.1 0 0 -.1 0 205)"/><path style="stroke:none;fill-rule:nonzero;fill:#80437c;fill-opacity:1" d="M10.484 135.871 3.711 90.81l87.914-7.262"/><path style="fill:none;stroke-width:4.36718;stroke-linecap:round;stroke-linejoin:round;stroke:#000;stroke-opacity:1;stroke-miterlimit:10" d="m104.844 691.29-67.735 450.624" transform="matrix(.1 0 0 -.1 0 205)"/><path style="stroke:none;fill-rule:nonzero;fill:#620000;fill-opacity:1" d="m93.234 196.738 53.243-12.008-15.356-1.992"/><path style="fill:none;stroke-width:4.36718;stroke-linecap:round;stroke-linejoin:round;stroke:#000;stroke-opacity:1;stroke-miterlimit:10" d="m932.344 82.617 532.422 120.078-153.555 19.922Zm0 0" transform="matrix(.1 0 0 -.1 0 205)"/><path style="stroke:none;fill-rule:nonzero;fill:#f8a94f;fill-opacity:1" d="m146.477 184.73-15.356-1.992 48.36-139.074"/><path style="fill:none;stroke-width:4.36718;stroke-linecap:round;stroke-linejoin:round;stroke:#000;stroke-opacity:1;stroke-miterlimit:10" d="m1464.766 202.695-153.555 19.922" transform="matrix(.1 0 0 -.1 0 205)"/><path style="stroke:none;fill-rule:nonzero;fill:#80437c;fill-opacity:1" d="m131.121 182.738-37.887 14-1.609-113.191"/><path style="fill:none;stroke-width:4.36718;stroke-linecap:round;stroke-linejoin:round;stroke:#000;stroke-opacity:1;stroke-miterlimit:10" d="m1311.21 222.617-378.866-140" transform="matrix(.1 0 0 -.1 0 205)"/><path style="stroke:none;fill-rule:nonzero;fill:#2c46ba;fill-opacity:1" d="M34.879 65.977 24.527 35.742 3.711 90.81"/><path style="fill:none;stroke-width:4.36718;stroke-linecap:round;stroke-linejoin:round;stroke:#000;stroke-opacity:1;stroke-miterlimit:10" d="m348.79 1390.234-103.517 302.344L37.11 1141.914Zm0 0" transform="matrix(.1 0 0 -.1 0 205)"/><path style="fill-rule:nonzero;fill:#80437c;fill-opacity:1;stroke-width:4.36718;stroke-linecap:round;stroke-linejoin:round;stroke:#000;stroke-opacity:1;stroke-miterlimit:10" d="m37.11 1141.914 311.68 248.32 567.46-175.703" transform="matrix(.1 0 0 -.1 0 205)"/><path style="fill-rule:nonzero;fill:#f8a94f;fill-opacity:1;stroke-width:4.36718;stroke-linecap:round;stroke-linejoin:round;stroke:#000;stroke-opacity:1;stroke-miterlimit:10" d="m1336.836 693.516 220.195 628.437 237.774 291.406" transform="matrix(.1 0 0 -.1 0 205)"/><path style="stroke:none;fill-rule:nonzero;fill:#f8a94f;fill-opacity:1" d="m131.121 182.738 2.563-47.09 45.796-91.984"/><path style="fill:none;stroke-width:4.36718;stroke-linecap:round;stroke-linejoin:round;stroke:#000;stroke-opacity:1;stroke-miterlimit:10" d="m1311.21 222.617 25.626 470.899" transform="matrix(.1 0 0 -.1 0 205)"/><path style="fill-rule:nonzero;fill:#80437c;fill-opacity:1;stroke-width:4.36718;stroke-linecap:round;stroke-linejoin:round;stroke:#000;stroke-opacity:1;stroke-miterlimit:10" d="m916.25 1214.531 420.586-521.015-25.625-470.899" transform="matrix(.1 0 0 -.1 0 205)"/><path style="stroke:none;fill-rule:nonzero;fill:#c4a0b4;fill-opacity:1" d="m91.625 83.547 64.078-10.742-22.02 62.843"/><path style="fill:none;stroke-width:4.36718;stroke-linecap:round;stroke-linejoin:round;stroke:#000;stroke-opacity:1;stroke-miterlimit:10" d="m916.25 1214.531 640.781 107.422-220.195-628.437Zm0 0" transform="matrix(.1 0 0 -.1 0 205)"/></svg>