<svg xmlns="http://www.w3.org/2000/svg" width="202pt" height="205pt" viewBox="0 0 202 205" version="1.2"><path style="stroke:none;fill-rule:nonzero;fill:#c9939d;fill-opacity:1" d="m84.2 93.938-31.958 8.832 26.309-64.606"/><path style="fill:none;stroke-width:6.23495;stroke-linecap:round;stroke-linejoin:round;stroke:#000;stroke-opacity:1;stroke-miterlimit:10" d="m841.992 1110.625-319.57-88.32" transform="matrix(.1 0 0 -.1 0 205)"/><path style="fill-rule:nonzero;fill:#c9939d;fill-opacity:1;stroke-width:6.23495;stroke-linecap:round;stroke-linejoin:round;stroke:#000;stroke-opacity:1;stroke-miterlimit:10" d="m785.508 1668.36 187.695-243.008-131.21-314.727" transform="matrix(.1 0 0 -.1 0 205)"/><path style="stroke:none;fill-rule:nonzero;fill:#c0aac3;fill-opacity:1" d="m84.2 93.938 25.816 22.906-37.45 42.644"/><path style="fill:none;stroke-width:6.23495;stroke-linecap:round;stroke-linejoin:round;stroke:#000;stroke-opacity:1;stroke-miterlimit:10" d="m841.992 1110.625 258.164-229.063" transform="matrix(.1 0 0 -.1 0 205)"/><path style="stroke:none;fill-rule:nonzero;fill:#c0aac3;fill-opacity:1" d="M52.242 102.77 84.2 93.938l-11.633 65.55"/><path style="fill:none;stroke-width:6.23495;stroke-linecap:round;stroke-linejoin:round;stroke:#000;stroke-opacity:1;stroke-miterlimit:10" d="m522.422 1022.305 319.57 88.32" transform="matrix(.1 0 0 -.1 0 205)"/><path style="stroke:none;fill-rule:nonzero;fill:#ac86ac;fill-opacity:1" d="m84.2 93.938 25.816 22.906 21.847-50.903"/><path style="fill:none;stroke-width:6.23495;stroke-linecap:round;stroke-linejoin:round;stroke:#000;stroke-opacity:1;stroke-miterlimit:10" d="m841.992 1110.625 258.164-229.063" transform="matrix(.1 0 0 -.1 0 205)"/><path style="fill-rule:nonzero;fill:#ac86ac;fill-opacity:1;stroke-width:6.23495;stroke-linecap:round;stroke-linejoin:round;stroke:#000;stroke-opacity:1;stroke-miterlimit:10" d="m1318.633 1390.586-345.43 34.766-131.21-314.727" transform="matrix(.1 0 0 -.1 0 205)"/><path style="fill-rule:nonzero;fill:#998ec7;fill-opacity:1;stroke-width:6.23495;stroke-linecap:round;stroke-linejoin:round;stroke:#000;stroke-opacity:1;stroke-miterlimit:10" d="m1047.89 555.39 52.266 326.173 295.664 169.375" transform="matrix(.1 0 0 -.1 0 205)"/><path style="fill-rule:nonzero;fill:#c0aac3;fill-opacity:1;stroke-width:6.23495;stroke-linecap:round;stroke-linejoin:round;stroke:#000;stroke-opacity:1;stroke-miterlimit:10" d="m1100.156 881.563-52.265-326.172-322.227-100.274" transform="matrix(.1 0 0 -.1 0 205)"/><path style="fill-rule:nonzero;fill:#ac86ac;fill-opacity:1;stroke-width:6.23495;stroke-linecap:round;stroke-linejoin:round;stroke:#000;stroke-opacity:1;stroke-miterlimit:10" d="m1100.156 881.563 295.664 169.375-77.187 339.648" transform="matrix(.1 0 0 -.1 0 205)"/><path style="stroke:none;fill-rule:nonzero;fill:#a25f80;fill-opacity:1" d="m97.32 62.465-18.77-24.3 71.4 6.831"/><path style="fill:none;stroke-width:6.23495;stroke-linecap:round;stroke-linejoin:round;stroke:#000;stroke-opacity:1;stroke-miterlimit:10" d="m973.203 1425.352-187.695 243.007" transform="matrix(.1 0 0 -.1 0 205)"/><path style="fill-rule:nonzero;fill:#a25f80;fill-opacity:1;stroke-width:6.23495;stroke-linecap:round;stroke-linejoin:round;stroke:#000;stroke-opacity:1;stroke-miterlimit:10" d="m1499.492 1600.04-180.86-209.454-345.429 34.766" transform="matrix(.1 0 0 -.1 0 205)"/><path style="stroke:none;fill-rule:nonzero;fill:#7f5b9d;fill-opacity:1" d="m139.582 99.906-7.719-33.965 45.668-6.629"/><path style="fill:none;stroke-width:6.23495;stroke-linecap:round;stroke-linejoin:round;stroke:#000;stroke-opacity:1;stroke-miterlimit:10" d="m1395.82 1050.938-77.187 339.648" transform="matrix(.1 0 0 -.1 0 205)"/><path style="stroke:none;fill-rule:nonzero;fill:#7f5b9d;fill-opacity:1" d="m165.637 115.3-26.055-15.394 37.95-40.594"/><path style="fill:none;stroke-width:6.23495;stroke-linecap:round;stroke-linejoin:round;stroke:#000;stroke-opacity:1;stroke-miterlimit:10" d="m1656.367 896.992-260.547 153.946" transform="matrix(.1 0 0 -.1 0 205)"/><path style="stroke:none;fill-rule:nonzero;fill:#998ec7;fill-opacity:1" d="m139.582 99.906 26.055 15.395-60.848 34.16"/><path style="fill:none;stroke-width:6.23495;stroke-linecap:round;stroke-linejoin:round;stroke:#000;stroke-opacity:1;stroke-miterlimit:10" d="m1395.82 1050.938 260.547-153.946" transform="matrix(.1 0 0 -.1 0 205)"/><path style="stroke:none;fill-rule:nonzero;fill:#c9939d;fill-opacity:1" d="m52.242 102.77-20.25-23.282 46.559-41.324"/><path style="fill:none;stroke-width:6.23495;stroke-linecap:round;stroke-linejoin:round;stroke:#000;stroke-opacity:1;stroke-miterlimit:10" d="m522.422 1022.305-202.5 232.812" transform="matrix(.1 0 0 -.1 0 205)"/><path style="fill-rule:nonzero;fill:#c0aac3;fill-opacity:1;stroke-width:6.23495;stroke-linecap:round;stroke-linejoin:round;stroke:#000;stroke-opacity:1;stroke-miterlimit:10" d="m725.664 455.117-267.5 238.008 64.258 329.18" transform="matrix(.1 0 0 -.1 0 205)"/><path style="fill-rule:nonzero;fill:#e2beb3;fill-opacity:1;stroke-width:6.23495;stroke-linecap:round;stroke-linejoin:round;stroke:#000;stroke-opacity:1;stroke-miterlimit:10" d="m458.164 693.125 64.258 329.18-202.5 232.812" transform="matrix(.1 0 0 -.1 0 205)"/><path style="fill-rule:nonzero;fill:#7f5b9d;fill-opacity:1;stroke-width:6.23495;stroke-linecap:round;stroke-linejoin:round;stroke:#000;stroke-opacity:1;stroke-miterlimit:10" d="m1318.633 1390.586 180.86 209.453 275.82-143.164" transform="matrix(.1 0 0 -.1 0 205)"/><path style="fill-rule:nonzero;fill:#998ec7;fill-opacity:1;stroke-width:6.23495;stroke-linecap:round;stroke-linejoin:round;stroke:#000;stroke-opacity:1;stroke-miterlimit:10" d="M1612.813 556.953 1299.57 384.805 1047.89 555.39" transform="matrix(.1 0 0 -.1 0 205)"/><path style="stroke:none;fill-rule:nonzero;fill:#998ec7;fill-opacity:1" d="m165.637 115.3-4.356 34.005-56.492.156"/><path style="fill:none;stroke-width:6.23495;stroke-linecap:round;stroke-linejoin:round;stroke:#000;stroke-opacity:1;stroke-miterlimit:10" d="m1656.367 896.992-43.554-340.039" transform="matrix(.1 0 0 -.1 0 205)"/><path style="fill-rule:nonzero;fill:#abbae4;fill-opacity:1;stroke-width:6.23495;stroke-linecap:round;stroke-linejoin:round;stroke:#000;stroke-opacity:1;stroke-miterlimit:10" d="M1299.57 384.805 1047.89 555.39 725.665 455.117" transform="matrix(.1 0 0 -.1 0 205)"/><path style="fill-rule:nonzero;fill:#d7e1de;fill-opacity:1;stroke-width:6.23495;stroke-linecap:round;stroke-linejoin:round;stroke:#000;stroke-opacity:1;stroke-miterlimit:10" d="m458.164 693.125 267.5-238.008 37.422-245" transform="matrix(.1 0 0 -.1 0 205)"/><path style="stroke:none;fill-rule:nonzero;fill:#d7e1de;fill-opacity:1" d="m20.488 134.293 25.328 1.394 30.493 48.301"/><path style="fill:none;stroke-width:6.23495;stroke-linecap:round;stroke-linejoin:round;stroke:#000;stroke-opacity:1;stroke-miterlimit:10" d="m204.883 707.07 253.281-13.945" transform="matrix(.1 0 0 -.1 0 205)"/><path style="stroke:none;fill-rule:nonzero;fill:#e2beb3;fill-opacity:1" d="m20.488 134.293 25.328 1.394-13.824-56.199"/><path style="fill:none;stroke-width:6.23495;stroke-linecap:round;stroke-linejoin:round;stroke:#000;stroke-opacity:1;stroke-miterlimit:10" d="m204.883 707.07 253.281-13.945" transform="matrix(.1 0 0 -.1 0 205)"/><path style="stroke:none;fill-rule:nonzero;fill:#abbae4;fill-opacity:1" d="m72.566 159.488 3.743 24.5 53.648-17.468"/><path style="fill:none;stroke-width:6.23495;stroke-linecap:round;stroke-linejoin:round;stroke:#000;stroke-opacity:1;stroke-miterlimit:10" d="m725.664 455.117 37.422-245" transform="matrix(.1 0 0 -.1 0 205)"/><path style="fill-rule:nonzero;fill:#c9939d;fill-opacity:1;stroke-width:6.23495;stroke-linecap:round;stroke-linejoin:round;stroke:#000;stroke-opacity:1;stroke-miterlimit:10" d="m319.922 1255.117 131.68 331.719 333.906 81.523" transform="matrix(.1 0 0 -.1 0 205)"/><path style="stroke:none;fill-rule:nonzero;fill:#a25f80;fill-opacity:1" d="m78.55 38.164 16.43-22.496 54.97 29.328"/><path style="fill:none;stroke-width:6.23495;stroke-linecap:round;stroke-linejoin:round;stroke:#000;stroke-opacity:1;stroke-miterlimit:10" d="m785.508 1668.36 164.297 224.96" transform="matrix(.1 0 0 -.1 0 205)"/><path style="stroke:none;fill-rule:nonzero;fill:#c36154;fill-opacity:1" d="m78.55 38.164-33.39 8.152L70.762 8.812"/><path style="fill:none;stroke-width:6.23495;stroke-linecap:round;stroke-linejoin:round;stroke:#000;stroke-opacity:1;stroke-miterlimit:10" d="m785.508 1668.36-333.906-81.524" transform="matrix(.1 0 0 -.1 0 205)"/><path style="fill-rule:nonzero;fill:#c36154;fill-opacity:1;stroke-width:6.23495;stroke-linecap:round;stroke-linejoin:round;stroke:#000;stroke-opacity:1;stroke-miterlimit:10" d="m707.617 1961.875 242.188-68.555-164.297-224.96" transform="matrix(.1 0 0 -.1 0 205)"/><path style="fill-rule:nonzero;fill:#7f5b9d;fill-opacity:1;stroke-width:6.23495;stroke-linecap:round;stroke-linejoin:round;stroke:#000;stroke-opacity:1;stroke-miterlimit:10" d="m1775.313 1456.875 79.648-364.219-198.594-195.664" transform="matrix(.1 0 0 -.1 0 205)"/><path style="stroke:none;fill-rule:nonzero;fill:#4a53b9;fill-opacity:1" d="m165.637 115.3-4.356 34.005 33.332-30.88"/><path style="fill:none;stroke-width:6.23495;stroke-linecap:round;stroke-linejoin:round;stroke:#000;stroke-opacity:1;stroke-miterlimit:10" d="m1656.367 896.992-43.554-340.039" transform="matrix(.1 0 0 -.1 0 205)"/><path style="fill-rule:nonzero;fill:#4a53b9;fill-opacity:1;stroke-width:6.23495;stroke-linecap:round;stroke-linejoin:round;stroke:#000;stroke-opacity:1;stroke-miterlimit:10" d="m1946.133 865.742-91.172 226.914-198.594-195.664" transform="matrix(.1 0 0 -.1 0 205)"/><path style="fill-rule:nonzero;fill:#f19e64;fill-opacity:1;stroke-width:6.23495;stroke-linecap:round;stroke-linejoin:round;stroke:#000;stroke-opacity:1;stroke-miterlimit:10" d="m451.602 1586.836-131.68-331.719-205.469-186.992" transform="matrix(.1 0 0 -.1 0 205)"/><path style="fill-rule:nonzero;fill:#e2beb3;fill-opacity:1;stroke-width:6.23495;stroke-linecap:round;stroke-linejoin:round;stroke:#000;stroke-opacity:1;stroke-miterlimit:10" d="m319.922 1255.117-205.469-186.992 90.43-361.055" transform="matrix(.1 0 0 -.1 0 205)"/><path style="fill-rule:nonzero;fill:#518eeb;fill-opacity:1;stroke-width:6.23495;stroke-linecap:round;stroke-linejoin:round;stroke:#000;stroke-opacity:1;stroke-miterlimit:10" d="m1285.469 103.36-153.438 59.609 167.54 221.836" transform="matrix(.1 0 0 -.1 0 205)"/><path style="stroke:none;fill-rule:nonzero;fill:#518eeb;fill-opacity:1" d="m162.898 176.148-34.351 18.516 1.41-28.144"/><path style="fill:none;stroke-width:6.23495;stroke-linecap:round;stroke-linejoin:round;stroke:#000;stroke-opacity:1;stroke-miterlimit:10" d="M1628.984 288.516 1285.47 103.359" transform="matrix(.1 0 0 -.1 0 205)"/><path style="stroke:none;fill-rule:nonzero;fill:#518eeb;fill-opacity:1" d="m178.746 153.012-15.848 23.136-32.941-9.628"/><path style="fill:none;stroke-width:6.23495;stroke-linecap:round;stroke-linejoin:round;stroke:#000;stroke-opacity:1;stroke-miterlimit:10" d="m1787.46 519.883-158.476-231.367" transform="matrix(.1 0 0 -.1 0 205)"/><path style="fill-rule:nonzero;fill:#518eeb;fill-opacity:1;stroke-width:6.23495;stroke-linecap:round;stroke-linejoin:round;stroke:#000;stroke-opacity:1;stroke-miterlimit:10" d="m1299.57 384.805 313.243 172.148 174.648-37.07" transform="matrix(.1 0 0 -.1 0 205)"/><path style="fill-rule:nonzero;fill:#abbae4;fill-opacity:1;stroke-width:6.23495;stroke-linecap:round;stroke-linejoin:round;stroke:#000;stroke-opacity:1;stroke-miterlimit:10" d="m763.086 210.117 368.945-47.148 167.54 221.836" transform="matrix(.1 0 0 -.1 0 205)"/><path style="fill-rule:nonzero;fill:#a25f80;fill-opacity:1;stroke-width:6.23495;stroke-linecap:round;stroke-linejoin:round;stroke:#000;stroke-opacity:1;stroke-miterlimit:10" d="m949.805 1893.32 369.414-33.398 180.273-259.883" transform="matrix(.1 0 0 -.1 0 205)"/><path style="fill-rule:nonzero;fill:#44003b;fill-opacity:1;stroke-width:6.23495;stroke-linecap:round;stroke-linejoin:round;stroke:#000;stroke-opacity:1;stroke-miterlimit:10" d="m1499.492 1600.04-180.273 259.882 163.125 32.695" transform="matrix(.1 0 0 -.1 0 205)"/><path style="stroke:none;fill-rule:nonzero;fill:#44003b;fill-opacity:1" d="M177.531 59.313 149.95 44.995l-1.715-29.258"/><path style="fill:none;stroke-width:6.23495;stroke-linecap:round;stroke-linejoin:round;stroke:#000;stroke-opacity:1;stroke-miterlimit:10" d="m1775.313 1456.875-275.82 143.164" transform="matrix(.1 0 0 -.1 0 205)"/><path style="fill-rule:nonzero;fill:#f19e64;fill-opacity:1;stroke-width:6.23495;stroke-linecap:round;stroke-linejoin:round;stroke:#000;stroke-opacity:1;stroke-miterlimit:10" d="m170.273 1583.477 216.407 178.242 64.922-174.883" transform="matrix(.1 0 0 -.1 0 205)"/><path style="stroke:none;fill-rule:nonzero;fill:#f19e64;fill-opacity:1" d="m2.95 82.973 14.077-36.32 28.133-.337"/><path style="fill:none;stroke-width:6.23495;stroke-linecap:round;stroke-linejoin:round;stroke:#000;stroke-opacity:1;stroke-miterlimit:10" d="m29.492 1220.273 140.781 363.204" transform="matrix(.1 0 0 -.1 0 205)"/><path style="stroke:none;fill-rule:nonzero;fill:#f19e64;fill-opacity:1" d="M11.445 98.188 2.95 82.972 45.16 46.316"/><path style="fill:none;stroke-width:6.23495;stroke-linecap:round;stroke-linejoin:round;stroke:#000;stroke-opacity:1;stroke-miterlimit:10" d="m114.453 1068.125-84.96 152.148" transform="matrix(.1 0 0 -.1 0 205)"/><path style="fill-rule:nonzero;fill:#c36154;fill-opacity:1;stroke-width:6.23495;stroke-linecap:round;stroke-linejoin:round;stroke:#000;stroke-opacity:1;stroke-miterlimit:10" d="m451.602 1586.836-64.922 174.883 320.937 200.156" transform="matrix(.1 0 0 -.1 0 205)"/><path style="fill-rule:nonzero;fill:#4a53b9;fill-opacity:1;stroke-width:6.23495;stroke-linecap:round;stroke-linejoin:round;stroke:#000;stroke-opacity:1;stroke-miterlimit:10" d="m1612.813 556.953 174.648-37.07 158.672 345.86" transform="matrix(.1 0 0 -.1 0 205)"/><path style="stroke:none;fill-rule:nonzero;fill:#3d0000;fill-opacity:1" d="M94.98 15.668 70.762 8.813l54.21-.38"/><path style="fill:none;stroke-width:6.23495;stroke-linecap:round;stroke-linejoin:round;stroke:#000;stroke-opacity:1;stroke-miterlimit:10" d="m949.805 1893.32-242.188 68.555" transform="matrix(.1 0 0 -.1 0 205)"/><path style="stroke:none;fill-rule:nonzero;fill:#3d0000;fill-opacity:1" d="m131.922 19.008-36.942-3.34 29.993-7.234"/><path style="fill:none;stroke-width:6.23495;stroke-linecap:round;stroke-linejoin:round;stroke:#000;stroke-opacity:1;stroke-miterlimit:10" d="m1319.219 1859.922-369.414 33.398" transform="matrix(.1 0 0 -.1 0 205)"/><path style="stroke:none;fill-rule:nonzero;fill:#ecdf71;fill-opacity:1" d="M20.488 134.293 22 158.715 2.95 82.973"/><path style="fill:none;stroke-width:6.23495;stroke-linecap:round;stroke-linejoin:round;stroke:#000;stroke-opacity:1;stroke-miterlimit:10" d="M204.883 707.07 220 462.852" transform="matrix(.1 0 0 -.1 0 205)"/><path style="fill-rule:nonzero;fill:#ecdf71;fill-opacity:1;stroke-width:6.23495;stroke-linecap:round;stroke-linejoin:round;stroke:#000;stroke-opacity:1;stroke-miterlimit:10" d="m29.492 1220.273 84.961-152.148 90.43-361.055" transform="matrix(.1 0 0 -.1 0 205)"/><path style="stroke:none;fill-rule:nonzero;fill:#d7e1de;fill-opacity:1" d="m22 158.715-1.512-24.422 55.82 49.695"/><path style="fill:none;stroke-width:6.23495;stroke-linecap:round;stroke-linejoin:round;stroke:#000;stroke-opacity:1;stroke-miterlimit:10" d="M220 462.852 204.883 707.07" transform="matrix(.1 0 0 -.1 0 205)"/><path style="stroke:none;fill-rule:nonzero;fill:#000020;fill-opacity:1" d="m185.496 95.734-7.965-36.421 18.48 44.374"/><path style="fill:none;stroke-width:6.23495;stroke-linecap:round;stroke-linejoin:round;stroke:#000;stroke-opacity:1;stroke-miterlimit:10" d="m1854.96 1092.656-79.648 364.219" transform="matrix(.1 0 0 -.1 0 205)"/><path style="fill-rule:nonzero;fill:#000020;fill-opacity:1;stroke-width:6.23495;stroke-linecap:round;stroke-linejoin:round;stroke:#000;stroke-opacity:1;stroke-miterlimit:10" d="m1960.117 1013.125-13.984-147.383-91.172 226.914" transform="matrix(.1 0 0 -.1 0 205)"/><path style="fill-rule:nonzero;fill:#d7e1de;fill-opacity:1;stroke-width:6.23495;stroke-linecap:round;stroke-linejoin:round;stroke:#000;stroke-opacity:1;stroke-miterlimit:10" d="M763.086 210.117 511.68 202.93 220 462.852" transform="matrix(.1 0 0 -.1 0 205)"/><path style="fill-rule:nonzero;fill:#56ceea;fill-opacity:1;stroke-width:6.23495;stroke-linecap:round;stroke-linejoin:round;stroke:#000;stroke-opacity:1;stroke-miterlimit:10" d="m511.68 202.93 251.406 7.187 368.945-47.148" transform="matrix(.1 0 0 -.1 0 205)"/><path style="fill-rule:nonzero;fill:#3d0000;fill-opacity:1;stroke-width:6.23495;stroke-linecap:round;stroke-linejoin:round;stroke:#000;stroke-opacity:1;stroke-miterlimit:10" d="m1249.727 1965.664 232.617-73.047-163.125-32.695" transform="matrix(.1 0 0 -.1 0 205)"/><path style="stroke:none;fill-rule:nonzero;fill:#000020;fill-opacity:1" d="m177.531 59.313.426-17.329 18.055 61.703"/><path style="fill:none;stroke-width:6.23495;stroke-linecap:round;stroke-linejoin:round;stroke:#000;stroke-opacity:1;stroke-miterlimit:10" d="m1775.313 1456.875 4.257 173.281" transform="matrix(.1 0 0 -.1 0 205)"/><path style="fill-rule:nonzero;fill:#44003b;fill-opacity:1;stroke-width:6.23495;stroke-linecap:round;stroke-linejoin:round;stroke:#000;stroke-opacity:1;stroke-miterlimit:10" d="m1482.344 1892.617 297.226-262.46-4.257-173.282" transform="matrix(.1 0 0 -.1 0 205)"/><path style="stroke:none;fill-rule:nonzero;fill:#56ceea;fill-opacity:1" d="m63.598 190.672-12.43-5.965 62.035 3.996"/><path style="fill:none;stroke-width:6.23495;stroke-linecap:round;stroke-linejoin:round;stroke:#000;stroke-opacity:1;stroke-miterlimit:10" d="M635.977 143.281 511.68 202.93" transform="matrix(.1 0 0 -.1 0 205)"/><path style="stroke:none;fill-rule:nonzero;fill:#56ceea;fill-opacity:1" d="m104.262 195.945-40.664-5.273 49.605-1.969"/><path style="fill:none;stroke-width:6.23495;stroke-linecap:round;stroke-linejoin:round;stroke:#000;stroke-opacity:1;stroke-miterlimit:10" d="m1042.617 90.547-406.64 52.734" transform="matrix(.1 0 0 -.1 0 205)"/><path style="fill-rule:nonzero;fill:#56ceea;fill-opacity:1;stroke-width:6.23495;stroke-linecap:round;stroke-linejoin:round;stroke:#000;stroke-opacity:1;stroke-miterlimit:10" d="m1132.031 162.969 153.438-59.61-242.852-12.812" transform="matrix(.1 0 0 -.1 0 205)"/><path style="fill-rule:nonzero;fill:#3d0000;fill-opacity:1;stroke-width:6.23495;stroke-linecap:round;stroke-linejoin:round;stroke:#000;stroke-opacity:1;stroke-miterlimit:10" d="m707.617 1961.875 134.961 39.688 407.149-35.899" transform="matrix(.1 0 0 -.1 0 205)"/><path style="stroke:none;fill-rule:nonzero;fill:#005acc;fill-opacity:1" d="m38.668 28.828-21.64 17.824 67.23-41.808"/><path style="fill:none;stroke-width:6.23495;stroke-linecap:round;stroke-linejoin:round;stroke:#000;stroke-opacity:1;stroke-miterlimit:10" d="m386.68 1761.719-216.407-178.242" transform="matrix(.1 0 0 -.1 0 205)"/><path style="fill-rule:nonzero;fill:#005acc;fill-opacity:1;stroke-width:6.23495;stroke-linecap:round;stroke-linejoin:round;stroke:#000;stroke-opacity:1;stroke-miterlimit:10" d="m842.578 2001.563-134.96-39.688-320.938-200.156" transform="matrix(.1 0 0 -.1 0 205)"/><path style="stroke:none;fill-rule:nonzero;fill:#df7b05;fill-opacity:1" d="m178.746 153.012 15.867-34.586-14.812 7.832"/><path style="fill:none;stroke-width:6.23495;stroke-linecap:round;stroke-linejoin:round;stroke:#000;stroke-opacity:1;stroke-miterlimit:10" d="m1787.46 519.883 158.673 345.86" transform="matrix(.1 0 0 -.1 0 205)"/><path style="stroke:none;fill-rule:nonzero;fill:#df7b05;fill-opacity:1" d="m162.898 176.148 15.848-23.136 1.055-26.754"/><path style="fill:none;stroke-width:6.23495;stroke-linecap:round;stroke-linejoin:round;stroke:#000;stroke-opacity:1;stroke-miterlimit:10" d="m1628.984 288.516 158.477 231.367" transform="matrix(.1 0 0 -.1 0 205)"/><path style="stroke:none;fill-rule:nonzero;fill:#ecdf71;fill-opacity:1" d="m22 158.715-8.254-12.457L2.95 82.973"/><path style="fill:none;stroke-width:6.23495;stroke-linecap:round;stroke-linejoin:round;stroke:#000;stroke-opacity:1;stroke-miterlimit:10" d="m220 462.852-82.54 124.57" transform="matrix(.1 0 0 -.1 0 205)"/><path style="fill-rule:nonzero;fill:#000;fill-opacity:1;stroke-width:6.23495;stroke-linecap:round;stroke-linejoin:round;stroke:#000;stroke-opacity:1;stroke-miterlimit:10" d="M511.68 202.93 220 462.852l-82.54 124.57" transform="matrix(.1 0 0 -.1 0 205)"/><path style="stroke:none;fill-rule:nonzero;fill:#000;fill-opacity:1" d="m63.598 190.672-12.43-5.965-37.422-38.45"/><path style="fill:none;stroke-width:6.23495;stroke-linecap:round;stroke-linejoin:round;stroke:#000;stroke-opacity:1;stroke-miterlimit:10" d="M635.977 143.281 511.68 202.93" transform="matrix(.1 0 0 -.1 0 205)"/><path style="fill-rule:nonzero;fill:#df7b05;fill-opacity:1;stroke-width:6.23495;stroke-linecap:round;stroke-linejoin:round;stroke:#000;stroke-opacity:1;stroke-miterlimit:10" d="m1946.133 865.742 13.984 147.383-162.11-225.703" transform="matrix(.1 0 0 -.1 0 205)"/><path style="fill-rule:nonzero;fill:#ecdf71;fill-opacity:1;stroke-width:6.23495;stroke-linecap:round;stroke-linejoin:round;stroke:#000;stroke-opacity:1;stroke-miterlimit:10" d="M137.46 587.422 36.954 985.586l-7.46 234.687" transform="matrix(.1 0 0 -.1 0 205)"/><path style="stroke:none;fill-rule:nonzero;fill:#00149d;fill-opacity:1" d="m2.95 82.973.745 23.468 24.117-61.683"/><path style="fill:none;stroke-width:6.23495;stroke-linecap:round;stroke-linejoin:round;stroke:#000;stroke-opacity:1;stroke-miterlimit:10" d="m29.492 1220.273 7.461-234.687" transform="matrix(.1 0 0 -.1 0 205)"/><path style="fill-rule:nonzero;fill:#00149d;fill-opacity:1;stroke-width:6.23495;stroke-linecap:round;stroke-linejoin:round;stroke:#000;stroke-opacity:1;stroke-miterlimit:10" d="m278.125 1602.422-107.852-18.945-140.78-363.204" transform="matrix(.1 0 0 -.1 0 205)"/><path style="fill-rule:nonzero;fill:#d4fbe0;fill-opacity:1;stroke-width:6.23495;stroke-linecap:round;stroke-linejoin:round;stroke:#000;stroke-opacity:1;stroke-miterlimit:10" d="m1482.344 1892.617-232.617 73.047 70.625-208.36" transform="matrix(.1 0 0 -.1 0 205)"/><path style="stroke:none;fill-rule:nonzero;fill:#d4fbe0;fill-opacity:1" d="m177.957 41.984-29.723-26.246-16.199 13.532"/><path style="fill:none;stroke-width:6.23495;stroke-linecap:round;stroke-linejoin:round;stroke:#000;stroke-opacity:1;stroke-miterlimit:10" d="m1779.57 1630.156-297.226 262.461" transform="matrix(.1 0 0 -.1 0 205)"/><path style="fill-rule:nonzero;fill:#000020;fill-opacity:1;stroke-width:6.23495;stroke-linecap:round;stroke-linejoin:round;stroke:#000;stroke-opacity:1;stroke-miterlimit:10" d="m1779.57 1630.156 93.243-215 87.304-402.031" transform="matrix(.1 0 0 -.1 0 205)"/><path style="stroke:none;fill-rule:nonzero;fill:#d4fbe0;fill-opacity:1" d="m187.281 63.484-9.324-21.5-45.922-12.714"/><path style="fill:none;stroke-width:6.23495;stroke-linecap:round;stroke-linejoin:round;stroke:#000;stroke-opacity:1;stroke-miterlimit:10" d="m1872.813 1415.156-93.243 215" transform="matrix(.1 0 0 -.1 0 205)"/><path style="fill-rule:nonzero;fill:#b22f02;fill-opacity:1;stroke-width:6.23495;stroke-linecap:round;stroke-linejoin:round;stroke:#000;stroke-opacity:1;stroke-miterlimit:10" d="m1285.469 103.36 343.515 185.156-3.906 118.671" transform="matrix(.1 0 0 -.1 0 205)"/><path style="stroke:none;fill-rule:nonzero;fill:#b22f02;fill-opacity:1" d="m104.262 195.945 24.285-1.28 33.96-30.384"/><path style="fill:none;stroke-width:6.23495;stroke-linecap:round;stroke-linejoin:round;stroke:#000;stroke-opacity:1;stroke-miterlimit:10" d="m1042.617 90.547 242.852 12.812" transform="matrix(.1 0 0 -.1 0 205)"/><path style="stroke:none;fill-rule:nonzero;fill:#005acc;fill-opacity:1" d="m17.027 46.652 10.785-1.894L84.258 4.844"/><path style="fill:none;stroke-width:6.23495;stroke-linecap:round;stroke-linejoin:round;stroke:#000;stroke-opacity:1;stroke-miterlimit:10" d="m170.273 1583.477 107.852 18.945" transform="matrix(.1 0 0 -.1 0 205)"/><path style="fill-rule:nonzero;fill:#df7b05;fill-opacity:1;stroke-width:6.23495;stroke-linecap:round;stroke-linejoin:round;stroke:#000;stroke-opacity:1;stroke-miterlimit:10" d="m1798.008 787.422-172.93-380.235 3.906-118.671" transform="matrix(.1 0 0 -.1 0 205)"/><path style="fill-rule:nonzero;fill:#005acc;fill-opacity:1;stroke-width:6.23495;stroke-linecap:round;stroke-linejoin:round;stroke:#000;stroke-opacity:1;stroke-miterlimit:10" d="m278.125 1602.422 352.773 218.71 211.68 180.43" transform="matrix(.1 0 0 -.1 0 205)"/><path style="stroke:none;fill-rule:nonzero;fill:#a0c7f3;fill-opacity:1" d="M84.258 4.844 63.09 22.887l68.945 6.383"/><path style="fill:none;stroke-width:6.23495;stroke-linecap:round;stroke-linejoin:round;stroke:#000;stroke-opacity:1;stroke-miterlimit:10" d="m842.578 2001.563-211.68-180.43" transform="matrix(.1 0 0 -.1 0 205)"/><path style="fill-rule:nonzero;fill:#a0c7f3;fill-opacity:1;stroke-width:6.23495;stroke-linecap:round;stroke-linejoin:round;stroke:#000;stroke-opacity:1;stroke-miterlimit:10" d="m1320.352 1757.305-70.625 208.36-407.149 35.898" transform="matrix(.1 0 0 -.1 0 205)"/><path style="fill-rule:nonzero;fill:#633e8f;fill-opacity:1;stroke-width:6.23495;stroke-linecap:round;stroke-linejoin:round;stroke:#000;stroke-opacity:1;stroke-miterlimit:10" d="m36.953 985.586 100.508-398.164 263.125-199.844" transform="matrix(.1 0 0 -.1 0 205)"/><path style="fill-rule:nonzero;fill:#000;fill-opacity:1;stroke-width:6.23495;stroke-linecap:round;stroke-linejoin:round;stroke:#000;stroke-opacity:1;stroke-miterlimit:10" d="m137.46 587.422 263.126-199.844 235.39-244.297" transform="matrix(.1 0 0 -.1 0 205)"/><path style="stroke:none;fill-rule:nonzero;fill:#964564;fill-opacity:1" d="m63.598 190.672 40.664 5.273-46.274-50.742"/><path style="fill:none;stroke-width:6.23495;stroke-linecap:round;stroke-linejoin:round;stroke:#000;stroke-opacity:1;stroke-miterlimit:10" d="m635.977 143.281 406.64-52.734" transform="matrix(.1 0 0 -.1 0 205)"/><path style="fill-rule:nonzero;fill:#964564;fill-opacity:1;stroke-width:6.23495;stroke-linecap:round;stroke-linejoin:round;stroke:#000;stroke-opacity:1;stroke-miterlimit:10" d="m579.883 597.969-179.297-210.39 235.39-244.298" transform="matrix(.1 0 0 -.1 0 205)"/><path style="stroke:none;fill-rule:nonzero;fill:#f1cead;fill-opacity:1" d="m196.012 103.688-16.211 22.57-15.035-68.051"/><path style="fill:none;stroke-width:6.23495;stroke-linecap:round;stroke-linejoin:round;stroke:#000;stroke-opacity:1;stroke-miterlimit:10" d="m1960.117 1013.125-162.11-225.703" transform="matrix(.1 0 0 -.1 0 205)"/><path style="fill-rule:nonzero;fill:#f1cead;fill-opacity:1;stroke-width:6.23495;stroke-linecap:round;stroke-linejoin:round;stroke:#000;stroke-opacity:1;stroke-miterlimit:10" d="m1647.656 1467.93 225.157-52.774 87.304-402.031" transform="matrix(.1 0 0 -.1 0 205)"/><path style="fill-rule:nonzero;fill:#633e8f;fill-opacity:1;stroke-width:6.23495;stroke-linecap:round;stroke-linejoin:round;stroke:#000;stroke-opacity:1;stroke-miterlimit:10" d="M474.297 1030.313 194.53 1216.68 36.953 985.586" transform="matrix(.1 0 0 -.1 0 205)"/><path style="stroke:none;fill-rule:nonzero;fill:#633e8f;fill-opacity:1" d="M57.988 145.203 47.43 101.97 3.695 106.44"/><path style="fill:none;stroke-width:6.23495;stroke-linecap:round;stroke-linejoin:round;stroke:#000;stroke-opacity:1;stroke-miterlimit:10" d="m579.883 597.969-105.586 432.343" transform="matrix(.1 0 0 -.1 0 205)"/><path style="stroke:none;fill-rule:nonzero;fill:#633e8f;fill-opacity:1" d="m40.059 166.242 17.93-21.039-54.294-38.762"/><path style="fill:none;stroke-width:6.23495;stroke-linecap:round;stroke-linejoin:round;stroke:#000;stroke-opacity:1;stroke-miterlimit:10" d="m400.586 387.578 179.297 210.39" transform="matrix(.1 0 0 -.1 0 205)"/><path style="fill-rule:nonzero;fill:#00149d;fill-opacity:1;stroke-width:6.23495;stroke-linecap:round;stroke-linejoin:round;stroke:#000;stroke-opacity:1;stroke-miterlimit:10" d="m36.953 985.586 157.578 231.094 83.594 385.742" transform="matrix(.1 0 0 -.1 0 205)"/><path style="fill-rule:nonzero;fill:#d4fbe0;fill-opacity:1;stroke-width:6.23495;stroke-linecap:round;stroke-linejoin:round;stroke:#000;stroke-opacity:1;stroke-miterlimit:10" d="m1320.352 1757.305 327.304-289.375 225.157-52.774" transform="matrix(.1 0 0 -.1 0 205)"/><path style="stroke:none;fill-rule:nonzero;fill:#964564;fill-opacity:1" d="m104.262 195.945 20.36-19.14-66.634-31.602"/><path style="fill:none;stroke-width:6.23495;stroke-linecap:round;stroke-linejoin:round;stroke:#000;stroke-opacity:1;stroke-miterlimit:10" d="m1042.617 90.547 203.594 191.406" transform="matrix(.1 0 0 -.1 0 205)"/><path style="fill-rule:nonzero;fill:#b22f02;fill-opacity:1;stroke-width:6.23495;stroke-linecap:round;stroke-linejoin:round;stroke:#000;stroke-opacity:1;stroke-miterlimit:10" d="m1625.078 407.188-378.867-125.235-203.594-191.406" transform="matrix(.1 0 0 -.1 0 205)"/><path style="fill-rule:nonzero;fill:#8d8ccd;fill-opacity:1;stroke-width:6.23495;stroke-linecap:round;stroke-linejoin:round;stroke:#000;stroke-opacity:1;stroke-miterlimit:10" d="m630.898 1821.133-352.773-218.711-83.594-385.742" transform="matrix(.1 0 0 -.1 0 205)"/><path style="stroke:none;fill-rule:nonzero;fill:#cf9293;fill-opacity:1" d="m162.508 164.281 17.293-38.023-77.79 24.219"/><path style="fill:none;stroke-width:6.23495;stroke-linecap:round;stroke-linejoin:round;stroke:#000;stroke-opacity:1;stroke-miterlimit:10" d="m1625.078 407.188 172.93 380.234" transform="matrix(.1 0 0 -.1 0 205)"/><path style="fill-rule:nonzero;fill:#cf9293;fill-opacity:1;stroke-width:6.23495;stroke-linecap:round;stroke-linejoin:round;stroke:#000;stroke-opacity:1;stroke-miterlimit:10" d="m1020.117 545.234 226.094-263.28 378.867 125.233" transform="matrix(.1 0 0 -.1 0 205)"/><path style="fill-rule:nonzero;fill:#8d8ccd;fill-opacity:1;stroke-width:6.23495;stroke-linecap:round;stroke-linejoin:round;stroke:#000;stroke-opacity:1;stroke-miterlimit:10" d="m852.54 1254.492 72.265 405.274-293.907 161.367" transform="matrix(.1 0 0 -.1 0 205)"/><path style="stroke:none;fill-rule:nonzero;fill:#8d8ccd;fill-opacity:1" d="M47.43 101.969 85.254 79.55 63.09 22.887"/><path style="fill:none;stroke-width:6.23495;stroke-linecap:round;stroke-linejoin:round;stroke:#000;stroke-opacity:1;stroke-miterlimit:10" d="m474.297 1030.313 378.242 224.18" transform="matrix(.1 0 0 -.1 0 205)"/><path style="stroke:none;fill-rule:nonzero;fill:#8d8ccd;fill-opacity:1" d="m19.453 83.332 27.977 18.637 15.66-79.082"/><path style="fill:none;stroke-width:6.23495;stroke-linecap:round;stroke-linejoin:round;stroke:#000;stroke-opacity:1;stroke-miterlimit:10" d="m194.531 1216.68 279.766-186.368" transform="matrix(.1 0 0 -.1 0 205)"/><path style="fill-rule:nonzero;fill:#a0c7f3;fill-opacity:1;stroke-width:6.23495;stroke-linecap:round;stroke-linejoin:round;stroke:#000;stroke-opacity:1;stroke-miterlimit:10" d="m630.898 1821.133 293.907-161.367 395.547 97.539" transform="matrix(.1 0 0 -.1 0 205)"/><path style="stroke:none;fill-rule:nonzero;fill:#cf9293;fill-opacity:1" d="m179.8 126.258-20.363-27.95-57.425 52.169"/><path style="fill:none;stroke-width:6.23495;stroke-linecap:round;stroke-linejoin:round;stroke:#000;stroke-opacity:1;stroke-miterlimit:10" d="m1798.008 787.422-203.633 279.492" transform="matrix(.1 0 0 -.1 0 205)"/><path style="fill-rule:nonzero;fill:#f1cead;fill-opacity:1;stroke-width:6.23495;stroke-linecap:round;stroke-linejoin:round;stroke:#000;stroke-opacity:1;stroke-miterlimit:10" d="m1798.008 787.422-203.633 279.492 53.281 401.016" transform="matrix(.1 0 0 -.1 0 205)"/><path style="fill-rule:nonzero;fill:#964564;fill-opacity:1;stroke-width:6.23495;stroke-linecap:round;stroke-linejoin:round;stroke:#000;stroke-opacity:1;stroke-miterlimit:10" d="m1246.21 281.953-226.093 263.281-440.234 52.735" transform="matrix(.1 0 0 -.1 0 205)"/><path style="fill-rule:nonzero;fill:#c4b1c8;fill-opacity:1;stroke-width:6.23495;stroke-linecap:round;stroke-linejoin:round;stroke:#000;stroke-opacity:1;stroke-miterlimit:10" d="m852.54 1254.492 72.265 405.274 395.547 97.539" transform="matrix(.1 0 0 -.1 0 205)"/><path style="stroke:none;fill-rule:nonzero;fill:#c4b1c8;fill-opacity:1" d="M119.508 109.934 85.254 79.55l46.781-50.281"/><path style="fill:none;stroke-width:6.23495;stroke-linecap:round;stroke-linejoin:round;stroke:#000;stroke-opacity:1;stroke-miterlimit:10" d="M1195.078 950.664 852.54 1254.492" transform="matrix(.1 0 0 -.1 0 205)"/><path style="stroke:none;fill-rule:nonzero;fill:#c4b1c8;fill-opacity:1" d="m159.438 98.309-39.93 11.625 12.527-80.664"/><path style="fill:none;stroke-width:6.23495;stroke-linecap:round;stroke-linejoin:round;stroke:#000;stroke-opacity:1;stroke-miterlimit:10" d="m1594.375 1066.914-399.297-116.25" transform="matrix(.1 0 0 -.1 0 205)"/><path style="fill-rule:nonzero;fill:#c4b1c8;fill-opacity:1;stroke-width:6.23495;stroke-linecap:round;stroke-linejoin:round;stroke:#000;stroke-opacity:1;stroke-miterlimit:10" d="m1320.352 1757.305 327.304-289.375-53.281-401.016" transform="matrix(.1 0 0 -.1 0 205)"/><path style="fill-rule:nonzero;fill:#a982a9;fill-opacity:1;stroke-width:6.23495;stroke-linecap:round;stroke-linejoin:round;stroke:#000;stroke-opacity:1;stroke-miterlimit:10" d="m579.883 597.969-105.586 432.343 378.242 224.18" transform="matrix(.1 0 0 -.1 0 205)"/><path style="stroke:none;fill-rule:nonzero;fill:#a982a9;fill-opacity:1" d="m102.012 150.477-44.024-5.274 27.266-65.652"/><path style="fill:none;stroke-width:6.23495;stroke-linecap:round;stroke-linejoin:round;stroke:#000;stroke-opacity:1;stroke-miterlimit:10" d="M1020.117 545.234 579.883 597.97" transform="matrix(.1 0 0 -.1 0 205)"/><path style="fill-rule:nonzero;fill:#cf9293;fill-opacity:1;stroke-width:6.23495;stroke-linecap:round;stroke-linejoin:round;stroke:#000;stroke-opacity:1;stroke-miterlimit:10" d="m1594.375 1066.914-399.297-116.25-174.96-405.43" transform="matrix(.1 0 0 -.1 0 205)"/><path style="fill-rule:nonzero;fill:#a982a9;fill-opacity:1;stroke-width:6.23495;stroke-linecap:round;stroke-linejoin:round;stroke:#000;stroke-opacity:1;stroke-miterlimit:10" d="m852.54 1254.492 342.538-303.828-174.96-405.43" transform="matrix(.1 0 0 -.1 0 205)"/></svg>