<svg xmlns="http://www.w3.org/2000/svg" width="264" height="205pt" viewBox="0 0 198 205" version="1.2"><path style="stroke:none;fill-rule:nonzero;fill:#ac86ac;fill-opacity:1" d="M68.328 107.469 63.36 86.797l51.875 46.047"/><path style="fill:none;stroke-width:6.12;stroke-linecap:round;stroke-linejoin:round;stroke:#000;stroke-opacity:1;stroke-miterlimit:10" d="m683.281 975.313-49.687 206.718" transform="matrix(.1 0 0 -.1 0 205)"/><path style="fill-rule:nonzero;fill:#ac86ac;fill-opacity:1;stroke-width:6.12;stroke-linecap:round;stroke-linejoin:round;stroke:#000;stroke-opacity:1;stroke-miterlimit:10" d="m1152.344 721.563-210.86 24.414-258.203 229.336" transform="matrix(.1 0 0 -.1 0 205)"/><path style="fill-rule:nonzero;fill:#e3bfb3;fill-opacity:1;stroke-width:6.12;stroke-linecap:round;stroke-linejoin:round;stroke:#000;stroke-opacity:1;stroke-miterlimit:10" d="m633.594 1182.031 49.687-206.718-59.61-324.61" transform="matrix(.1 0 0 -.1 0 205)"/><path style="stroke:none;fill-rule:nonzero;fill:#c0aac3;fill-opacity:1" d="m68.328 107.469 25.82 22.933-31.78 9.528"/><path style="fill:none;stroke-width:6.12;stroke-linecap:round;stroke-linejoin:round;stroke:#000;stroke-opacity:1;stroke-miterlimit:10" d="m683.281 975.313 258.203-229.336-317.812-95.274Zm0 0" transform="matrix(.1 0 0 -.1 0 205)"/><path style="fill-rule:nonzero;fill:#abbae4;fill-opacity:1;stroke-width:6.12;stroke-linecap:round;stroke-linejoin:round;stroke:#000;stroke-opacity:1;stroke-miterlimit:10" d="m941.484 745.977-317.812-95.274-114.024-125.078" transform="matrix(.1 0 0 -.1 0 205)"/><path style="stroke:none;fill-rule:nonzero;fill:#abbae4;fill-opacity:1" d="m115.234 132.844-21.086-2.442-43.183 22.036"/><path style="fill:none;stroke-width:6.12;stroke-linecap:round;stroke-linejoin:round;stroke:#000;stroke-opacity:1;stroke-miterlimit:10" d="m1152.344 721.563-210.86 24.414" transform="matrix(.1 0 0 -.1 0 205)"/><path style="stroke:none;fill-rule:nonzero;fill:#ac86ac;fill-opacity:1" d="m63.36 86.797 12.984-31.68 38.89 77.727"/><path style="fill:none;stroke-width:6.12;stroke-linecap:round;stroke-linejoin:round;stroke:#000;stroke-opacity:1;stroke-miterlimit:10" d="m633.594 1182.031 129.843 316.797" transform="matrix(.1 0 0 -.1 0 205)"/><path style="stroke:none;fill-rule:nonzero;fill:#e3bfb3;fill-opacity:1" d="M43.781 63.395 63.36 86.797l-.992 53.133"/><path style="fill:none;stroke-width:6.12;stroke-linecap:round;stroke-linejoin:round;stroke:#000;stroke-opacity:1;stroke-miterlimit:10" d="m437.813 1416.055 195.78-234.024" transform="matrix(.1 0 0 -.1 0 205)"/><path style="stroke:none;fill-rule:nonzero;fill:#c9939d;fill-opacity:1" d="M63.36 86.797 43.78 63.395l32.563-8.278"/><path style="fill:none;stroke-width:6.12;stroke-linecap:round;stroke-linejoin:round;stroke:#000;stroke-opacity:1;stroke-miterlimit:10" d="m633.594 1182.031-195.782 234.024 325.625 82.773Zm0 0" transform="matrix(.1 0 0 -.1 0 205)"/><path style="fill-rule:nonzero;fill:#ac86ac;fill-opacity:1;stroke-width:6.12;stroke-linecap:round;stroke-linejoin:round;stroke:#000;stroke-opacity:1;stroke-miterlimit:10" d="m1537.11 1085.469-86.563-195.586-298.203-168.32" transform="matrix(.1 0 0 -.1 0 205)"/><path style="stroke:none;fill-rule:nonzero;fill:#ac86ac;fill-opacity:1" d="m146.004 62.05 7.707 34.403-38.477 36.39"/><path style="fill:none;stroke-width:6.12;stroke-linecap:round;stroke-linejoin:round;stroke:#000;stroke-opacity:1;stroke-miterlimit:10" d="m1460.04 1429.492 77.07-344.023" transform="matrix(.1 0 0 -.1 0 205)"/><path style="stroke:none;fill-rule:nonzero;fill:#ac86ac;fill-opacity:1" d="m129.54 47.492 16.464 14.559-30.77 70.793"/><path style="fill:none;stroke-width:6.12;stroke-linecap:round;stroke-linejoin:round;stroke:#000;stroke-opacity:1;stroke-miterlimit:10" d="m1295.39 1575.078 164.65-145.586" transform="matrix(.1 0 0 -.1 0 205)"/><path style="stroke:none;fill-rule:nonzero;fill:#ac86ac;fill-opacity:1" d="m94.586 44.11 34.953 3.382-14.305 85.352"/><path style="fill:none;stroke-width:6.12;stroke-linecap:round;stroke-linejoin:round;stroke:#000;stroke-opacity:1;stroke-miterlimit:10" d="m945.86 1608.906 349.53-33.828" transform="matrix(.1 0 0 -.1 0 205)"/><path style="stroke:none;fill-rule:nonzero;fill:#ac86ac;fill-opacity:1" d="M76.344 55.117 94.586 44.11l20.648 88.735"/><path style="fill:none;stroke-width:6.12;stroke-linecap:round;stroke-linejoin:round;stroke:#000;stroke-opacity:1;stroke-miterlimit:10" d="m763.438 1498.828 182.421 110.078" transform="matrix(.1 0 0 -.1 0 205)"/><path style="stroke:none;fill-rule:nonzero;fill:#abbae4;fill-opacity:1" d="m140.473 149.203-25.239-16.36-64.27 19.595"/><path style="fill:none;stroke-width:6.12;stroke-linecap:round;stroke-linejoin:round;stroke:#000;stroke-opacity:1;stroke-miterlimit:10" d="m1404.727 557.969-252.383 163.593" transform="matrix(.1 0 0 -.1 0 205)"/><path style="stroke:none;fill-rule:nonzero;fill:#998fc7;fill-opacity:1" d="m145.055 116.012-4.582 33.191-25.239-16.36"/><path style="fill:none;stroke-width:6.12;stroke-linecap:round;stroke-linejoin:round;stroke:#000;stroke-opacity:1;stroke-miterlimit:10" d="m1450.547 889.883-45.82-331.914-252.383 163.593Zm0 0" transform="matrix(.1 0 0 -.1 0 205)"/><path style="stroke:none;fill-rule:nonzero;fill:#c35f51;fill-opacity:1" d="M76.344 55.117 94.586 44.11 85.914 3.77"/><path style="fill:none;stroke-width:6.12;stroke-linecap:round;stroke-linejoin:round;stroke:#000;stroke-opacity:1;stroke-miterlimit:10" d="m763.438 1498.828 182.421 110.078" transform="matrix(.1 0 0 -.1 0 205)"/><path style="stroke:none;fill-rule:nonzero;fill:#c35f51;fill-opacity:1" d="m43.781 63.395 32.563-8.278 9.57-51.347"/><path style="fill:none;stroke-width:6.12;stroke-linecap:round;stroke-linejoin:round;stroke:#000;stroke-opacity:1;stroke-miterlimit:10" d="m437.813 1416.055 325.625 82.773" transform="matrix(.1 0 0 -.1 0 205)"/><path style="stroke:none;fill-rule:nonzero;fill:#4751b8;fill-opacity:1" d="m145.055 116.012 8.656-19.559-9.07 67.39"/><path style="fill:none;stroke-width:6.12;stroke-linecap:round;stroke-linejoin:round;stroke:#000;stroke-opacity:1;stroke-miterlimit:10" d="m1450.547 889.883 86.562 195.586" transform="matrix(.1 0 0 -.1 0 205)"/><path style="fill-rule:nonzero;fill:#4751b8;fill-opacity:1;stroke-width:6.12;stroke-linecap:round;stroke-linejoin:round;stroke:#000;stroke-opacity:1;stroke-miterlimit:10" d="m1446.406 411.563-41.68 146.406 45.82 331.914" transform="matrix(.1 0 0 -.1 0 205)"/><path style="stroke:none;fill-rule:nonzero;fill:#e3bfb3;fill-opacity:1" d="m28.441 60.688 15.34 2.707 18.586 76.535"/><path style="fill:none;stroke-width:6.12;stroke-linecap:round;stroke-linejoin:round;stroke:#000;stroke-opacity:1;stroke-miterlimit:10" d="m284.414 1443.125 153.399-27.07" transform="matrix(.1 0 0 -.1 0 205)"/><path style="stroke:none;fill-rule:nonzero;fill:#e3bfb3;fill-opacity:1" d="m7.574 78.918 20.867-18.23 33.926 79.242"/><path style="fill:none;stroke-width:6.12;stroke-linecap:round;stroke-linejoin:round;stroke:#000;stroke-opacity:1;stroke-miterlimit:10" d="m75.742 1260.82 208.672 182.305" transform="matrix(.1 0 0 -.1 0 205)"/><path style="stroke:none;fill-rule:nonzero;fill:#e3bfb3;fill-opacity:1" d="m2.75 100.55 4.824-21.632 54.793 61.012"/><path style="fill:none;stroke-width:6.12;stroke-linecap:round;stroke-linejoin:round;stroke:#000;stroke-opacity:1;stroke-miterlimit:10" d="m27.5 1044.492 48.242 216.328" transform="matrix(.1 0 0 -.1 0 205)"/><path style="stroke:none;fill-rule:nonzero;fill:#e3bfb3;fill-opacity:1" d="M12.082 137.57 2.75 100.55l59.617 39.38"/><path style="fill:none;stroke-width:6.12;stroke-linecap:round;stroke-linejoin:round;stroke:#000;stroke-opacity:1;stroke-miterlimit:10" d="M120.82 674.297 27.5 1044.492" transform="matrix(.1 0 0 -.1 0 205)"/><path style="stroke:none;fill-rule:nonzero;fill:#e3bfb3;fill-opacity:1" d="M25.809 151.824 12.082 137.57l50.285 2.36"/><path style="fill:none;stroke-width:6.12;stroke-linecap:round;stroke-linejoin:round;stroke:#000;stroke-opacity:1;stroke-miterlimit:10" d="M258.086 531.758 120.82 674.297" transform="matrix(.1 0 0 -.1 0 205)"/><path style="fill-rule:nonzero;fill:#e3bfb3;fill-opacity:1;stroke-width:6.12;stroke-linecap:round;stroke-linejoin:round;stroke:#000;stroke-opacity:1;stroke-miterlimit:10" d="M623.672 650.703 509.648 525.625l-251.562 6.133" transform="matrix(.1 0 0 -.1 0 205)"/><path style="stroke:none;fill-rule:nonzero;fill:#c35f51;fill-opacity:1" d="m94.586 44.11 16.86-21.84-25.532-18.5"/><path style="fill:none;stroke-width:6.12;stroke-linecap:round;stroke-linejoin:round;stroke:#000;stroke-opacity:1;stroke-miterlimit:10" d="m945.86 1608.906 168.593 218.399" transform="matrix(.1 0 0 -.1 0 205)"/><path style="stroke:none;fill-rule:nonzero;fill:#a35f80;fill-opacity:1" d="m94.586 44.11 34.953 3.382-18.094-25.222"/><path style="fill:none;stroke-width:6.12;stroke-linecap:round;stroke-linejoin:round;stroke:#000;stroke-opacity:1;stroke-miterlimit:10" d="m945.86 1608.906 349.53-33.828-180.937 252.227Zm0 0" transform="matrix(.1 0 0 -.1 0 205)"/><path style="stroke:none;fill-rule:nonzero;fill:#4751b8;fill-opacity:1" d="m153.71 96.453 19.157-19.875-28.226 87.266"/><path style="fill:none;stroke-width:6.12;stroke-linecap:round;stroke-linejoin:round;stroke:#000;stroke-opacity:1;stroke-miterlimit:10" d="m1537.11 1085.469 191.562 198.75" transform="matrix(.1 0 0 -.1 0 205)"/><path style="stroke:none;fill-rule:nonzero;fill:#805b9d;fill-opacity:1" d="m153.71 96.453 19.157-19.875-26.863-14.527"/><path style="fill:none;stroke-width:6.12;stroke-linecap:round;stroke-linejoin:round;stroke:#000;stroke-opacity:1;stroke-miterlimit:10" d="m1537.11 1085.469 191.562 198.75-268.633 145.273Zm0 0" transform="matrix(.1 0 0 -.1 0 205)"/><path style="stroke:none;fill-rule:nonzero;fill:#400037;fill-opacity:1" d="m129.54 47.492 16.464 14.559-2.988-46.067"/><path style="fill:none;stroke-width:6.12;stroke-linecap:round;stroke-linejoin:round;stroke:#000;stroke-opacity:1;stroke-miterlimit:10" d="m1295.39 1575.078 164.65-145.586" transform="matrix(.1 0 0 -.1 0 205)"/><path style="stroke:none;fill-rule:nonzero;fill:#400037;fill-opacity:1" d="m111.445 22.27 18.094 25.222 13.477-31.508"/><path style="fill:none;stroke-width:6.12;stroke-linecap:round;stroke-linejoin:round;stroke:#000;stroke-opacity:1;stroke-miterlimit:10" d="m1114.453 1827.305 180.938-252.227" transform="matrix(.1 0 0 -.1 0 205)"/><path style="stroke:none;fill-rule:nonzero;fill:#400037;fill-opacity:1" d="m146.004 62.05 26.863 14.528-29.851-60.594"/><path style="fill:none;stroke-width:6.12;stroke-linecap:round;stroke-linejoin:round;stroke:#000;stroke-opacity:1;stroke-miterlimit:10" d="m1460.04 1429.492 268.632-145.273" transform="matrix(.1 0 0 -.1 0 205)"/><path style="stroke:none;fill-rule:nonzero;fill:#c35f51;fill-opacity:1" d="m28.441 60.688 15.34 2.707L85.914 3.77"/><path style="fill:none;stroke-width:6.12;stroke-linecap:round;stroke-linejoin:round;stroke:#000;stroke-opacity:1;stroke-miterlimit:10" d="m284.414 1443.125 153.399-27.07" transform="matrix(.1 0 0 -.1 0 205)"/><path style="stroke:none;fill-rule:nonzero;fill:#abbae4;fill-opacity:1" d="m144.64 163.844-4.167-14.64-89.508 3.233"/><path style="fill:none;stroke-width:6.12;stroke-linecap:round;stroke-linejoin:round;stroke:#000;stroke-opacity:1;stroke-miterlimit:10" d="m1446.406 411.563-41.68 146.406" transform="matrix(.1 0 0 -.1 0 205)"/><path style="stroke:none;fill-rule:nonzero;fill:#abbae4;fill-opacity:1" d="m128.36 186.297 16.28-22.453-93.675-11.406"/><path style="fill:none;stroke-width:6.12;stroke-linecap:round;stroke-linejoin:round;stroke:#000;stroke-opacity:1;stroke-miterlimit:10" d="m1283.594 187.031 162.812 224.531" transform="matrix(.1 0 0 -.1 0 205)"/><path style="stroke:none;fill-rule:nonzero;fill:#abbae4;fill-opacity:1" d="m107.172 193.465 21.187-7.168-77.394-33.86"/><path style="fill:none;stroke-width:6.12;stroke-linecap:round;stroke-linejoin:round;stroke:#000;stroke-opacity:1;stroke-miterlimit:10" d="m1071.719 115.352 211.875 71.68" transform="matrix(.1 0 0 -.1 0 205)"/><path style="stroke:none;fill-rule:nonzero;fill:#abbae4;fill-opacity:1" d="m69.34 188.574 37.832 4.89-56.207-41.026"/><path style="fill:none;stroke-width:6.12;stroke-linecap:round;stroke-linejoin:round;stroke:#000;stroke-opacity:1;stroke-miterlimit:10" d="m693.398 164.258 378.32-48.906" transform="matrix(.1 0 0 -.1 0 205)"/><path style="fill-rule:nonzero;fill:#abbae4;fill-opacity:1;stroke-width:6.12;stroke-linecap:round;stroke-linejoin:round;stroke:#000;stroke-opacity:1;stroke-miterlimit:10" d="m509.648 525.625 29.102-243.867 154.648-117.5" transform="matrix(.1 0 0 -.1 0 205)"/><path style="stroke:none;fill-rule:nonzero;fill:#d6e1de;fill-opacity:1" d="m25.809 151.824 25.156.613 2.91 24.387"/><path style="fill:none;stroke-width:6.12;stroke-linecap:round;stroke-linejoin:round;stroke:#000;stroke-opacity:1;stroke-miterlimit:10" d="m258.086 531.758 251.562-6.133 29.102-243.867Zm0 0" transform="matrix(.1 0 0 -.1 0 205)"/><path style="stroke:none;fill-rule:nonzero;fill:#c35f51;fill-opacity:1" d="m21.184 43.973 7.257 16.715L85.914 3.77"/><path style="fill:none;stroke-width:6.12;stroke-linecap:round;stroke-linejoin:round;stroke:#000;stroke-opacity:1;stroke-miterlimit:10" d="m211.836 1610.273 72.578-167.148" transform="matrix(.1 0 0 -.1 0 205)"/><path style="stroke:none;fill-rule:nonzero;fill:#f19e65;fill-opacity:1" d="m21.184 43.973 7.257 16.715-20.867 18.23"/><path style="fill:none;stroke-width:6.12;stroke-linecap:round;stroke-linejoin:round;stroke:#000;stroke-opacity:1;stroke-miterlimit:10" d="m211.836 1610.273 72.578-167.148L75.742 1260.82Zm0 0" transform="matrix(.1 0 0 -.1 0 205)"/><path style="fill-rule:nonzero;fill:#c35f51;fill-opacity:1;stroke-width:6.12;stroke-linecap:round;stroke-linejoin:round;stroke:#000;stroke-opacity:1;stroke-miterlimit:10" d="m1114.453 1827.305-17.578 113.593-237.734 71.407" transform="matrix(.1 0 0 -.1 0 205)"/><path style="stroke:none;fill-rule:nonzero;fill:#400037;fill-opacity:1" d="m109.688 10.91 1.757 11.36 31.57-6.286"/><path style="fill:none;stroke-width:6.12;stroke-linecap:round;stroke-linejoin:round;stroke:#000;stroke-opacity:1;stroke-miterlimit:10" d="m1096.875 1940.898 17.578-113.593" transform="matrix(.1 0 0 -.1 0 205)"/><path style="stroke:none;fill-rule:nonzero;fill:#4751b8;fill-opacity:1" d="m172.867 76.578 11.051-.05-39.277 87.316"/><path style="fill:none;stroke-width:6.12;stroke-linecap:round;stroke-linejoin:round;stroke:#000;stroke-opacity:1;stroke-miterlimit:10" d="m1728.672 1284.219 110.508.508" transform="matrix(.1 0 0 -.1 0 205)"/><path style="stroke:none;fill-rule:nonzero;fill:#400037;fill-opacity:1" d="m172.867 76.578 11.051-.05-40.902-60.544"/><path style="fill:none;stroke-width:6.12;stroke-linecap:round;stroke-linejoin:round;stroke:#000;stroke-opacity:1;stroke-miterlimit:10" d="m1728.672 1284.219 110.508.508" transform="matrix(.1 0 0 -.1 0 205)"/><path style="fill-rule:nonzero;fill:#4751b8;fill-opacity:1;stroke-width:6.12;stroke-linecap:round;stroke-linejoin:round;stroke:#000;stroke-opacity:1;stroke-miterlimit:10" d="m1744.102 480.273-130.04-114.414-167.656 45.704" transform="matrix(.1 0 0 -.1 0 205)"/><path style="stroke:none;fill-rule:nonzero;fill:#4751b8;fill-opacity:1" d="m190.703 121.496-16.293 35.477-29.77 6.87"/><path style="fill:none;stroke-width:6.12;stroke-linecap:round;stroke-linejoin:round;stroke:#000;stroke-opacity:1;stroke-miterlimit:10" d="m1907.031 835.04-162.93-354.767" transform="matrix(.1 0 0 -.1 0 205)"/><path style="stroke:none;fill-rule:nonzero;fill:#4751b8;fill-opacity:1" d="m193.238 98.688-2.535 22.808-46.062 42.348"/><path style="fill:none;stroke-width:6.12;stroke-linecap:round;stroke-linejoin:round;stroke:#000;stroke-opacity:1;stroke-miterlimit:10" d="m1932.383 1063.125-25.352-228.086" transform="matrix(.1 0 0 -.1 0 205)"/><path style="stroke:none;fill-rule:nonzero;fill:#4751b8;fill-opacity:1" d="m183.918 76.527 9.32 22.16-48.597 65.157"/><path style="fill:none;stroke-width:6.12;stroke-linecap:round;stroke-linejoin:round;stroke:#000;stroke-opacity:1;stroke-miterlimit:10" d="m1839.18 1284.727 93.203-221.602" transform="matrix(.1 0 0 -.1 0 205)"/><path style="stroke:none;fill-rule:nonzero;fill:#538eeb;fill-opacity:1" d="m161.406 168.414-33.047 17.883 16.282-22.453"/><path style="fill:none;stroke-width:6.12;stroke-linecap:round;stroke-linejoin:round;stroke:#000;stroke-opacity:1;stroke-miterlimit:10" d="m1614.063 365.86-330.47-178.829 162.813 224.531Zm0 0" transform="matrix(.1 0 0 -.1 0 205)"/><path style="fill-rule:nonzero;fill:#000;fill-opacity:1;stroke-width:6.12;stroke-linecap:round;stroke-linejoin:round;stroke:#000;stroke-opacity:1;stroke-miterlimit:10" d="m120.82 674.297 137.266-142.54 280.664-250" transform="matrix(.1 0 0 -.1 0 205)"/><path style="stroke:none;fill-rule:nonzero;fill:#ede074;fill-opacity:1" d="m2.75 100.55.816 23.727 8.516 13.293"/><path style="fill:none;stroke-width:6.12;stroke-linecap:round;stroke-linejoin:round;stroke:#000;stroke-opacity:1;stroke-miterlimit:10" d="m27.5 1044.492 8.164-237.265 85.156-132.93Zm0 0" transform="matrix(.1 0 0 -.1 0 205)"/><path style="stroke:none;fill-rule:nonzero;fill:#000;fill-opacity:1" d="m3.566 124.277 8.516 13.293 41.793 39.254"/><path style="fill:none;stroke-width:6.12;stroke-linecap:round;stroke-linejoin:round;stroke:#000;stroke-opacity:1;stroke-miterlimit:10" d="m35.664 807.227 85.156-132.93" transform="matrix(.1 0 0 -.1 0 205)"/><path style="stroke:none;fill-rule:nonzero;fill:#000;fill-opacity:1" d="m9.742 125.918-6.176-1.64 50.309 52.546"/><path style="fill:none;stroke-width:6.12;stroke-linecap:round;stroke-linejoin:round;stroke:#000;stroke-opacity:1;stroke-miterlimit:10" d="m97.422 790.82-61.758 16.407" transform="matrix(.1 0 0 -.1 0 205)"/><path style="stroke:none;fill-rule:nonzero;fill:#000;fill-opacity:1" d="M36.406 145.516 9.742 125.918l44.133 50.906"/><path style="fill:none;stroke-width:6.12;stroke-linecap:round;stroke-linejoin:round;stroke:#000;stroke-opacity:1;stroke-miterlimit:10" d="M364.063 594.844 97.421 790.82" transform="matrix(.1 0 0 -.1 0 205)"/><path style="stroke:none;fill-rule:nonzero;fill:#000;fill-opacity:1" d="m56.457 163.371-20.05-17.855 17.468 31.308"/><path style="fill:none;stroke-width:6.12;stroke-linecap:round;stroke-linejoin:round;stroke:#000;stroke-opacity:1;stroke-miterlimit:10" d="M564.57 416.29 364.062 594.843" transform="matrix(.1 0 0 -.1 0 205)"/><path style="stroke:none;fill-rule:nonzero;fill:#000;fill-opacity:1" d="m79.723 188.23-23.266-24.859-2.582 13.453"/><path style="fill:none;stroke-width:6.12;stroke-linecap:round;stroke-linejoin:round;stroke:#000;stroke-opacity:1;stroke-miterlimit:10" d="M797.227 167.695 564.57 416.29" transform="matrix(.1 0 0 -.1 0 205)"/><path style="stroke:none;fill-rule:nonzero;fill:#59cfec;fill-opacity:1" d="m82.684 194.734-13.344-6.16 37.832 4.89"/><path style="fill:none;stroke-width:6.12;stroke-linecap:round;stroke-linejoin:round;stroke:#000;stroke-opacity:1;stroke-miterlimit:10" d="m826.836 102.656-133.438 61.602 378.32-48.906Zm0 0" transform="matrix(.1 0 0 -.1 0 205)"/><path style="stroke:none;fill-rule:nonzero;fill:#000;fill-opacity:1" d="m82.684 194.734-2.961-6.504-25.848-11.406"/><path style="fill:none;stroke-width:6.12;stroke-linecap:round;stroke-linejoin:round;stroke:#000;stroke-opacity:1;stroke-miterlimit:10" d="m826.836 102.656-29.61 65.04" transform="matrix(.1 0 0 -.1 0 205)"/><path style="fill-rule:nonzero;fill:#000;fill-opacity:1;stroke-width:6.12;stroke-linecap:round;stroke-linejoin:round;stroke:#000;stroke-opacity:1;stroke-miterlimit:10" d="m538.75 281.758 154.648-117.5 133.438-61.602" transform="matrix(.1 0 0 -.1 0 205)"/><path style="fill-rule:nonzero;fill:#400037;fill-opacity:1;stroke-width:6.12;stroke-linecap:round;stroke-linejoin:round;stroke:#000;stroke-opacity:1;stroke-miterlimit:10" d="m1430.156 1890.156-179.765 87.696-153.516-36.954" transform="matrix(.1 0 0 -.1 0 205)"/><path style="stroke:none;fill-rule:nonzero;fill:#400000;fill-opacity:1" d="m109.688 10.91 15.351-3.695L85.914 3.77"/><path style="fill:none;stroke-width:6.12;stroke-linecap:round;stroke-linejoin:round;stroke:#000;stroke-opacity:1;stroke-miterlimit:10" d="m1096.875 1940.898 153.516 36.954-391.25 34.453Zm0 0" transform="matrix(.1 0 0 -.1 0 205)"/><path style="stroke:none;fill-rule:nonzero;fill:#400037;fill-opacity:1" d="m183.918 76.527.95-16.465-41.852-44.078"/><path style="fill:none;stroke-width:6.12;stroke-linecap:round;stroke-linejoin:round;stroke:#000;stroke-opacity:1;stroke-miterlimit:10" d="m1839.18 1284.727 9.492 164.648" transform="matrix(.1 0 0 -.1 0 205)"/><path style="stroke:none;fill-rule:nonzero;fill:#000024;fill-opacity:1" d="m193.238 98.688-9.32-22.16.95-16.466"/><path style="fill:none;stroke-width:6.12;stroke-linecap:round;stroke-linejoin:round;stroke:#000;stroke-opacity:1;stroke-miterlimit:10" d="m1932.383 1063.125-93.203 221.602 9.492 164.648Zm0 0" transform="matrix(.1 0 0 -.1 0 205)"/><path style="stroke:none;fill-rule:nonzero;fill:#c35f51;fill-opacity:1" d="m30.55 29.402-9.366 14.57L85.914 3.77"/><path style="fill:none;stroke-width:6.12;stroke-linecap:round;stroke-linejoin:round;stroke:#000;stroke-opacity:1;stroke-miterlimit:10" d="m305.508 1755.977-93.672-145.704" transform="matrix(.1 0 0 -.1 0 205)"/><path style="stroke:none;fill-rule:nonzero;fill:#001aa1;fill-opacity:1" d="m7.574 78.918 13.61-34.945 20.902-17.38"/><path style="fill:none;stroke-width:6.12;stroke-linecap:round;stroke-linejoin:round;stroke:#000;stroke-opacity:1;stroke-miterlimit:10" d="m75.742 1260.82 136.094 349.453" transform="matrix(.1 0 0 -.1 0 205)"/><path style="stroke:none;fill-rule:nonzero;fill:#001aa1;fill-opacity:1" d="m2.75 100.55 4.824-21.632 34.512-52.324"/><path style="fill:none;stroke-width:6.12;stroke-linecap:round;stroke-linejoin:round;stroke:#000;stroke-opacity:1;stroke-miterlimit:10" d="m27.5 1044.492 48.242 216.328" transform="matrix(.1 0 0 -.1 0 205)"/><path style="fill-rule:nonzero;fill:#b43309;fill-opacity:1;stroke-width:6.12;stroke-linecap:round;stroke-linejoin:round;stroke:#000;stroke-opacity:1;stroke-miterlimit:10" d="m1071.719 115.352 211.875 71.68 330.468 178.827" transform="matrix(.1 0 0 -.1 0 205)"/><path style="fill-rule:nonzero;fill:#001aa1;fill-opacity:1;stroke-width:6.12;stroke-linecap:round;stroke-linejoin:round;stroke:#000;stroke-opacity:1;stroke-miterlimit:10" d="m211.836 1610.273 93.672 145.704 115.351 28.085" transform="matrix(.1 0 0 -.1 0 205)"/><path style="stroke:none;fill-rule:nonzero;fill:#001aa1;fill-opacity:1" d="m3.566 124.277-.816-23.726 39.336-73.957"/><path style="fill:none;stroke-width:6.12;stroke-linecap:round;stroke-linejoin:round;stroke:#000;stroke-opacity:1;stroke-miterlimit:10" d="M35.664 807.227 27.5 1044.492" transform="matrix(.1 0 0 -.1 0 205)"/><path style="fill-rule:nonzero;fill:#b43309;fill-opacity:1;stroke-width:6.12;stroke-linecap:round;stroke-linejoin:round;stroke:#000;stroke-opacity:1;stroke-miterlimit:10" d="m797.227 167.695 29.609-65.039 244.883 12.696" transform="matrix(.1 0 0 -.1 0 205)"/><path style="stroke:none;fill-rule:nonzero;fill:#b43309;fill-opacity:1" d="M99.23 168.676 79.723 188.23l27.449 5.235"/><path style="fill:none;stroke-width:6.12;stroke-linecap:round;stroke-linejoin:round;stroke:#000;stroke-opacity:1;stroke-miterlimit:10" d="M992.305 363.242 797.227 167.695" transform="matrix(.1 0 0 -.1 0 205)"/><path style="stroke:none;fill-rule:nonzero;fill:#b43309;fill-opacity:1" d="M122.324 155.883 99.23 168.676l7.942 24.789"/><path style="fill:none;stroke-width:6.12;stroke-linecap:round;stroke-linejoin:round;stroke:#000;stroke-opacity:1;stroke-miterlimit:10" d="m1223.242 491.172-230.937-127.93" transform="matrix(.1 0 0 -.1 0 205)"/><path style="stroke:none;fill-rule:nonzero;fill:#b43309;fill-opacity:1" d="m160.8 143.59-38.476 12.293-15.152 37.582"/><path style="fill:none;stroke-width:6.12;stroke-linecap:round;stroke-linejoin:round;stroke:#000;stroke-opacity:1;stroke-miterlimit:10" d="m1608.008 614.102-384.766-122.93" transform="matrix(.1 0 0 -.1 0 205)"/><path style="stroke:none;fill-rule:nonzero;fill:#b43309;fill-opacity:1" d="m174.86 144.281-14.06-.691-53.628 49.875"/><path style="fill:none;stroke-width:6.12;stroke-linecap:round;stroke-linejoin:round;stroke:#000;stroke-opacity:1;stroke-miterlimit:10" d="m1748.594 607.188-140.586 6.914" transform="matrix(.1 0 0 -.1 0 205)"/><path style="stroke:none;fill-rule:nonzero;fill:#b43309;fill-opacity:1" d="m174.41 156.973.45-12.692-67.688 49.184"/><path style="fill:none;stroke-width:6.12;stroke-linecap:round;stroke-linejoin:round;stroke:#000;stroke-opacity:1;stroke-miterlimit:10" d="m1744.102 480.273 4.492 126.914" transform="matrix(.1 0 0 -.1 0 205)"/><path style="stroke:none;fill-rule:nonzero;fill:#b43309;fill-opacity:1" d="m161.406 168.414 13.004-11.441-67.238 36.492"/><path style="fill:none;stroke-width:6.12;stroke-linecap:round;stroke-linejoin:round;stroke:#000;stroke-opacity:1;stroke-miterlimit:10" d="m1614.063 365.86 130.039 114.413" transform="matrix(.1 0 0 -.1 0 205)"/><path style="fill-rule:nonzero;fill:#c35f51;fill-opacity:1;stroke-width:6.12;stroke-linecap:round;stroke-linejoin:round;stroke:#000;stroke-opacity:1;stroke-miterlimit:10" d="m859.14 2012.305-224.609-50.86-329.023-205.468" transform="matrix(.1 0 0 -.1 0 205)"/><path style="stroke:none;fill-rule:nonzero;fill:#0058c9;fill-opacity:1" d="M30.55 29.402 63.454 8.855 42.086 26.594"/><path style="fill:none;stroke-width:6.12;stroke-linecap:round;stroke-linejoin:round;stroke:#000;stroke-opacity:1;stroke-miterlimit:10" d="m305.508 1755.977 329.023 205.468-213.672-177.382Zm0 0" transform="matrix(.1 0 0 -.1 0 205)"/><path style="stroke:none;fill-rule:nonzero;fill:#a1c6f2;fill-opacity:1" d="m85.914 3.77-22.46 5.085L151 36.828"/><path style="fill:none;stroke-width:6.12;stroke-linecap:round;stroke-linejoin:round;stroke:#000;stroke-opacity:1;stroke-miterlimit:10" d="m859.14 2012.305-224.609-50.86" transform="matrix(.1 0 0 -.1 0 205)"/><path style="stroke:none;fill-rule:nonzero;fill:#a1c6f2;fill-opacity:1" d="M125.04 7.215 85.913 3.77 151 36.828"/><path style="fill:none;stroke-width:6.12;stroke-linecap:round;stroke-linejoin:round;stroke:#000;stroke-opacity:1;stroke-miterlimit:10" d="m1250.39 1977.852-391.25 34.453" transform="matrix(.1 0 0 -.1 0 205)"/><path style="stroke:none;fill-rule:nonzero;fill:#f0cdad;fill-opacity:1" d="m193.238 98.688-2.535 22.808L139.59 49.18"/><path style="fill:none;stroke-width:6.12;stroke-linecap:round;stroke-linejoin:round;stroke:#000;stroke-opacity:1;stroke-miterlimit:10" d="m1932.383 1063.125-25.352-228.086" transform="matrix(.1 0 0 -.1 0 205)"/><path style="stroke:none;fill-rule:nonzero;fill:#f0cdad;fill-opacity:1" d="m184.867 60.063 8.371 38.624L139.59 49.18"/><path style="fill:none;stroke-width:6.12;stroke-linecap:round;stroke-linejoin:round;stroke:#000;stroke-opacity:1;stroke-miterlimit:10" d="m1848.672 1449.375 83.71-386.25" transform="matrix(.1 0 0 -.1 0 205)"/><path style="stroke:none;fill-rule:nonzero;fill:#dd7901;fill-opacity:1" d="m174.41 156.973.45-12.692 15.843-22.785"/><path style="fill:none;stroke-width:6.12;stroke-linecap:round;stroke-linejoin:round;stroke:#000;stroke-opacity:1;stroke-miterlimit:10" d="m1744.102 480.273 4.492 126.914L1907.03 835.04Zm0 0" transform="matrix(.1 0 0 -.1 0 205)"/><path style="fill-rule:nonzero;fill:#a1c6f2;fill-opacity:1;stroke-width:6.12;stroke-linecap:round;stroke-linejoin:round;stroke:#000;stroke-opacity:1;stroke-miterlimit:10" d="m1510 1681.719-79.844 208.437-179.765 87.696" transform="matrix(.1 0 0 -.1 0 205)"/><path style="fill-rule:nonzero;fill:#400037;fill-opacity:1;stroke-width:6.12;stroke-linecap:round;stroke-linejoin:round;stroke:#000;stroke-opacity:1;stroke-miterlimit:10" d="m1848.672 1449.375-112.969 170.938-305.547 269.843" transform="matrix(.1 0 0 -.1 0 205)"/><path style="stroke:none;fill-rule:nonzero;fill:#f0cdad;fill-opacity:1" d="m173.57 42.969 11.297 17.093L139.59 49.18"/><path style="fill:none;stroke-width:6.12;stroke-linecap:round;stroke-linejoin:round;stroke:#000;stroke-opacity:1;stroke-miterlimit:10" d="m1735.703 1620.313 112.969-170.938" transform="matrix(.1 0 0 -.1 0 205)"/><path style="stroke:none;fill-rule:nonzero;fill:#a1c6f2;fill-opacity:1" d="M63.453 8.855 42.086 26.594 151 36.828"/><path style="fill:none;stroke-width:6.12;stroke-linecap:round;stroke-linejoin:round;stroke:#000;stroke-opacity:1;stroke-miterlimit:10" d="M634.531 1961.445 420.86 1784.063" transform="matrix(.1 0 0 -.1 0 205)"/><path style="stroke:none;fill-rule:nonzero;fill:#f0cdad;fill-opacity:1" d="m190.703 121.496-15.844 22.785-35.27-95.101"/><path style="fill:none;stroke-width:6.12;stroke-linecap:round;stroke-linejoin:round;stroke:#000;stroke-opacity:1;stroke-miterlimit:10" d="m1907.031 835.04-158.437-227.852" transform="matrix(.1 0 0 -.1 0 205)"/><path style="stroke:none;fill-rule:nonzero;fill:#001aa1;fill-opacity:1" d="m9.742 125.918-6.176-1.64 38.52-97.684"/><path style="fill:none;stroke-width:6.12;stroke-linecap:round;stroke-linejoin:round;stroke:#000;stroke-opacity:1;stroke-miterlimit:10" d="m97.422 790.82-61.758 16.407" transform="matrix(.1 0 0 -.1 0 205)"/><path style="stroke:none;fill-rule:nonzero;fill:#d3fbe0;fill-opacity:1" d="M173.57 42.969 151 36.829l-7.984-20.845"/><path style="fill:none;stroke-width:6.12;stroke-linecap:round;stroke-linejoin:round;stroke:#000;stroke-opacity:1;stroke-miterlimit:10" d="M1735.703 1620.313 1510 1681.718l-79.844 208.437Zm0 0" transform="matrix(.1 0 0 -.1 0 205)"/><path style="fill-rule:nonzero;fill:#f0cdad;fill-opacity:1;stroke-width:6.12;stroke-linecap:round;stroke-linejoin:round;stroke:#000;stroke-opacity:1;stroke-miterlimit:10" d="M1395.898 1558.203 1510 1681.72l225.703-61.407" transform="matrix(.1 0 0 -.1 0 205)"/><path style="stroke:none;fill-rule:nonzero;fill:#001aa1;fill-opacity:1" d="M26.004 103.563 9.742 125.918l32.344-99.324"/><path style="fill:none;stroke-width:6.12;stroke-linecap:round;stroke-linejoin:round;stroke:#000;stroke-opacity:1;stroke-miterlimit:10" d="M260.04 1014.375 97.421 790.82" transform="matrix(.1 0 0 -.1 0 205)"/><path style="stroke:none;fill-rule:nonzero;fill:#001aa1;fill-opacity:1" d="m35.797 79.031-9.793 24.531 16.082-76.968"/><path style="fill:none;stroke-width:6.12;stroke-linecap:round;stroke-linejoin:round;stroke:#000;stroke-opacity:1;stroke-miterlimit:10" d="m357.969 1259.688-97.93-245.313" transform="matrix(.1 0 0 -.1 0 205)"/><path style="fill-rule:nonzero;fill:#001aa1;fill-opacity:1;stroke-width:6.12;stroke-linecap:round;stroke-linejoin:round;stroke:#000;stroke-opacity:1;stroke-miterlimit:10" d="m420.86 1784.063 17.773-133.047-80.664-391.329" transform="matrix(.1 0 0 -.1 0 205)"/><path style="stroke:none;fill-rule:nonzero;fill:#a1c6f2;fill-opacity:1" d="m42.086 26.594 1.777 13.304L151 36.828"/><path style="fill:none;stroke-width:6.12;stroke-linecap:round;stroke-linejoin:round;stroke:#000;stroke-opacity:1;stroke-miterlimit:10" d="m420.86 1784.063 17.773-133.047" transform="matrix(.1 0 0 -.1 0 205)"/><path style="stroke:none;fill-rule:nonzero;fill:#623d8e;fill-opacity:1" d="M26.004 103.563 9.742 125.918l26.664 19.598"/><path style="fill:none;stroke-width:6.12;stroke-linecap:round;stroke-linejoin:round;stroke:#000;stroke-opacity:1;stroke-miterlimit:10" d="M260.04 1014.375 97.421 790.82l266.64-195.976Zm0 0" transform="matrix(.1 0 0 -.1 0 205)"/><path style="stroke:none;fill-rule:nonzero;fill:#964463;fill-opacity:1" d="m99.23 168.676-42.773-5.305 23.266 24.86"/><path style="fill:none;stroke-width:6.12;stroke-linecap:round;stroke-linejoin:round;stroke:#000;stroke-opacity:1;stroke-miterlimit:10" d="M992.305 363.242 564.57 416.29l232.657-248.594Zm0 0" transform="matrix(.1 0 0 -.1 0 205)"/><path style="stroke:none;fill-rule:nonzero;fill:#f0cdad;fill-opacity:1" d="m174.86 144.281-14.06-.691-21.21-94.41"/><path style="fill:none;stroke-width:6.12;stroke-linecap:round;stroke-linejoin:round;stroke:#000;stroke-opacity:1;stroke-miterlimit:10" d="m1748.594 607.188-140.586 6.914" transform="matrix(.1 0 0 -.1 0 205)"/><path style="fill-rule:nonzero;fill:#a1c6f2;fill-opacity:1;stroke-width:6.12;stroke-linecap:round;stroke-linejoin:round;stroke:#000;stroke-opacity:1;stroke-miterlimit:10" d="m999.297 1455.04 396.601 103.163L1510 1681.72" transform="matrix(.1 0 0 -.1 0 205)"/><path style="stroke:none;fill-rule:nonzero;fill:#a1c6f2;fill-opacity:1" d="m72.684 56.77 27.246 2.726L151 36.828"/><path style="fill:none;stroke-width:6.12;stroke-linecap:round;stroke-linejoin:round;stroke:#000;stroke-opacity:1;stroke-miterlimit:10" d="m726.836 1482.305 272.46-27.266" transform="matrix(.1 0 0 -.1 0 205)"/><path style="stroke:none;fill-rule:nonzero;fill:#a1c6f2;fill-opacity:1" d="m43.863 39.898 28.82 16.872L151 36.828"/><path style="fill:none;stroke-width:6.12;stroke-linecap:round;stroke-linejoin:round;stroke:#000;stroke-opacity:1;stroke-miterlimit:10" d="m438.633 1651.016 288.203-168.711" transform="matrix(.1 0 0 -.1 0 205)"/><path style="stroke:none;fill-rule:nonzero;fill:#8c8bcd;fill-opacity:1" d="m35.797 79.031 8.066-39.133 28.82 16.872"/><path style="fill:none;stroke-width:6.12;stroke-linecap:round;stroke-linejoin:round;stroke:#000;stroke-opacity:1;stroke-miterlimit:10" d="m357.969 1259.688 80.664 391.328 288.203-168.711Zm0 0" transform="matrix(.1 0 0 -.1 0 205)"/><path style="stroke:none;fill-rule:nonzero;fill:#f0cdad;fill-opacity:1" d="m160.8 143.59-21.015-27.336-.195-67.074"/><path style="fill:none;stroke-width:6.12;stroke-linecap:round;stroke-linejoin:round;stroke:#000;stroke-opacity:1;stroke-miterlimit:10" d="M1608.008 614.102 1397.852 887.46" transform="matrix(.1 0 0 -.1 0 205)"/><path style="stroke:none;fill-rule:nonzero;fill:#cf9293;fill-opacity:1" d="m139.785 116.254 21.016 27.336-38.477 12.293"/><path style="fill:none;stroke-width:6.12;stroke-linecap:round;stroke-linejoin:round;stroke:#000;stroke-opacity:1;stroke-miterlimit:10" d="m1397.852 887.46 210.156-273.358-384.766-122.93Zm0 0" transform="matrix(.1 0 0 -.1 0 205)"/><path style="stroke:none;fill-rule:nonzero;fill:#a982aa;fill-opacity:1" d="m36.406 145.516-10.402-41.953 46.68-46.793"/><path style="fill:none;stroke-width:6.12;stroke-linecap:round;stroke-linejoin:round;stroke:#000;stroke-opacity:1;stroke-miterlimit:10" d="m364.063 594.844-104.024 419.531" transform="matrix(.1 0 0 -.1 0 205)"/><path style="stroke:none;fill-rule:nonzero;fill:#a982aa;fill-opacity:1" d="m56.457 163.371-20.05-17.855L72.683 56.77"/><path style="fill:none;stroke-width:6.12;stroke-linecap:round;stroke-linejoin:round;stroke:#000;stroke-opacity:1;stroke-miterlimit:10" d="M564.57 416.29 364.062 594.843" transform="matrix(.1 0 0 -.1 0 205)"/><path style="stroke:none;fill-rule:nonzero;fill:#a982aa;fill-opacity:1" d="m99.23 168.676-42.773-5.305L72.684 56.77"/><path style="fill:none;stroke-width:6.12;stroke-linecap:round;stroke-linejoin:round;stroke:#000;stroke-opacity:1;stroke-miterlimit:10" d="M992.305 363.242 564.57 416.29" transform="matrix(.1 0 0 -.1 0 205)"/><path style="fill-rule:nonzero;fill:#a982aa;fill-opacity:1;stroke-width:6.12;stroke-linecap:round;stroke-linejoin:round;stroke:#000;stroke-opacity:1;stroke-miterlimit:10" d="m260.04 1014.375 97.929 245.313 368.867 222.617" transform="matrix(.1 0 0 -.1 0 205)"/><path style="stroke:none;fill-rule:nonzero;fill:#a982aa;fill-opacity:1" d="M122.324 155.883 99.23 168.676 72.684 56.77"/><path style="fill:none;stroke-width:6.12;stroke-linecap:round;stroke-linejoin:round;stroke:#000;stroke-opacity:1;stroke-miterlimit:10" d="m1223.242 491.172-230.937-127.93" transform="matrix(.1 0 0 -.1 0 205)"/><path style="fill-rule:nonzero;fill:#f0cdad;fill-opacity:1;stroke-width:6.12;stroke-linecap:round;stroke-linejoin:round;stroke:#000;stroke-opacity:1;stroke-miterlimit:10" d="m1397.852 887.46-61.055 268.634 59.101 402.11" transform="matrix(.1 0 0 -.1 0 205)"/><path style="stroke:none;fill-rule:nonzero;fill:#c4b2c8;fill-opacity:1" d="M133.68 89.39 99.93 59.497l39.66-10.316"/><path style="fill:none;stroke-width:6.12;stroke-linecap:round;stroke-linejoin:round;stroke:#000;stroke-opacity:1;stroke-miterlimit:10" d="m1336.797 1156.094-337.5 298.945 396.601 103.164Zm0 0" transform="matrix(.1 0 0 -.1 0 205)"/><path style="stroke:none;fill-rule:nonzero;fill:#a982aa;fill-opacity:1" d="m139.785 116.254-17.46 39.629L72.683 56.77"/><path style="fill:none;stroke-width:6.12;stroke-linecap:round;stroke-linejoin:round;stroke:#000;stroke-opacity:1;stroke-miterlimit:10" d="m1397.852 887.46-174.61-396.288" transform="matrix(.1 0 0 -.1 0 205)"/><path style="stroke:none;fill-rule:nonzero;fill:#a982aa;fill-opacity:1" d="m133.68 89.39 6.105 26.864L72.684 56.77"/><path style="fill:none;stroke-width:6.12;stroke-linecap:round;stroke-linejoin:round;stroke:#000;stroke-opacity:1;stroke-miterlimit:10" d="m1336.797 1156.094 61.055-268.633" transform="matrix(.1 0 0 -.1 0 205)"/><path style="fill-rule:nonzero;fill:#a982aa;fill-opacity:1;stroke-width:6.12;stroke-linecap:round;stroke-linejoin:round;stroke:#000;stroke-opacity:1;stroke-miterlimit:10" d="m726.836 1482.305 272.46-27.266 337.5-298.945" transform="matrix(.1 0 0 -.1 0 205)"/></svg>