<svg version="1.1" id="Слой_1" xmlns="http://www.w3.org/2000/svg" x="0" y="0" viewBox="0 0 168 167" style="enable-background:new 0 0 168 167" xml:space="preserve"><style>.st0{fill:#7071c3}.st1,.st2,.st3{fill:none;stroke:#000;stroke-width:.4548;stroke-linecap:round;stroke-linejoin:round;stroke-miterlimit:1}.st2,.st3{fill:#7071c3}.st3{fill:#c0a3bc}.st4{fill:#a27aa6}.st4,.st5{stroke:#000;stroke-width:.4548;stroke-linecap:round;stroke-linejoin:round;stroke-miterlimit:1}.st5,.st6{fill:#c07a84}.st7{fill:#c0a3bc}.st8,.st9{fill:#a3c4f1;stroke:#000;stroke-width:.4548;stroke-linecap:round;stroke-linejoin:round;stroke-miterlimit:1}.st9{fill:#ecb89b}.st10,.st11{fill:#0d002d}.st11{stroke:#000;stroke-width:.4548;stroke-linecap:round;stroke-linejoin:round;stroke-miterlimit:1}.st12,.st13{stroke:#000;stroke-width:.4548;stroke-linecap:round;stroke-linejoin:round;stroke-miterlimit:1}.st13,.st14{fill:#c17175}.st15,.st16,.st17{fill:#5360c3}.st16,.st17{stroke:#000;stroke-width:.4548;stroke-linecap:round;stroke-linejoin:round;stroke-miterlimit:1}.st17{fill:#f9bf87}.st18{fill:#84d0ff}.st18,.st19{stroke:#000;stroke-width:.4548;stroke-linecap:round;stroke-linejoin:round;stroke-miterlimit:1}.st19,.st20{fill:#c2a6bd}.st21{fill:#9d74a3;stroke:#000;stroke-width:.4548;stroke-linecap:round;stroke-linejoin:round;stroke-miterlimit:1}</style><g id="surface1"><path class="st0" d="m110.8 99.6 31.8-27.9-26.9 83.7"/><path class="st1" d="m110.8 99.6 31.8-27.9"/><path class="st2" d="m115.7 155.5-18.2-15.6 13.4-40.3"/><path class="st3" d="m80.9 64.8 29.9 34.8-13.4 40.3"/><path class="st4" d="M110.8 99.6 80.9 64.8l30.8-29M111.7 35.8l30.9 36-31.8 27.9"/><path class="st5" d="m80.9 64.8 30.8-29L98.4 8.1"/><path class="st6" d="m36.5 68.9 44.4-4.1L98.4 8.1"/><path class="st1" d="m36.5 68.9 44.4-4.1"/><path class="st7" d="m36.5 68.9 44.4-4.1 16.6 75.1"/><path class="st1" d="m36.5 68.9 44.4-4.1"/><path class="st7" d="m21.5 109.4 15-40.5 61 71"/><path class="st1" d="m21.5 109.4 15-40.5"/><path class="st3" d="m97.5 139.9-44.9 5.7-31.1-36.1"/><path class="st8" d="m52.6 145.5 44.9-5.7 18.2 15.6"/><path class="st6" d="M19.3 43.4 36.4 69l62-60.9"/><path class="st1" d="M19.3 43.4 36.4 69"/><path class="st9" d="m21.5 109.4 15-40.5-17.2-25.5"/><path class="st0" d="M142.6 71.8 163.5 84l-47.8 71.5"/><path class="st1" d="M142.6 71.8 163.5 84"/><path class="st10" d="M142.6 71.8 163.5 84 118 17.4"/><path class="st1" d="M142.6 71.8 163.5 84"/><path class="st10" d="m111.7 35.8 30.9 36L118 17.4"/><path class="st1" d="m111.7 35.8 30.9 36"/><path class="st11" d="M118.1 17.3 98.4 8.1l13.3 27.7"/><path class="st8" d="m115.7 155.5-47 6.3-16.2-16.2"/><path class="st12" d="m68.8 161.7-16.2-16.2-31.1-36.1"/><path class="st9" d="M19.3 43.4 3.2 85.5l18.3 23.9"/><path d="M21.5 109.4 3.2 85.5l65.6 76.2"/><path class="st1" d="M21.5 109.4 3.2 85.5"/><path class="st2" d="M163.5 83.9 150 127.5l-34.3 28"/><path class="st13" d="m137.9 103 12.1 24.5-34.3 28"/><path class="st14" d="m86.9 108.7 51-5.7-22.2 52.5"/><path class="st1" d="m86.9 108.7 51-5.7"/><path class="st14" d="m52.2 139.5 34.7-30.9 28.8 46.8"/><path class="st1" d="m52.2 139.5 34.7-30.9"/><path class="st13" d="m115.7 155.5-47 6.3-16.6-22.2"/><path class="st5" d="m98.4 8.1-48.1 3.4-31 31.9"/><path class="st15" d="M19.3 43.4 3.2 85.5 67.6 21"/><path class="st1" d="M19.3 43.4 3.2 85.5"/><path class="st16" d="m67.6 21.1-17.3-9.7-31 31.9"/><path class="st11" d="m163.5 83.9-11.1-26.5L118 17.3"/><path class="st17" d="m152.5 57.4 11.1 26.5-13.6 43.6"/><path class="st18" d="M50.4 11.4 98.5 8l19.6 9.3"/><path class="st12" d="m17.5 99.3 34.7 40.3 16.6 22.2"/><path d="m3.2 85.5 14.3 13.7 51.2 62.4"/><path class="st1" d="m3.2 85.5 14.3 13.7"/><path class="st15" d="m3.2 85.5 14.3 13.7L67.6 21"/><path class="st1" d="m3.2 85.5 14.3 13.7"/><path class="st17" d="M150 127.5 137.9 103l14.5-45.5"/><path class="st18" d="M118.1 17.3 67.7 21l-17.3-9.7"/><path class="st19" d="m137.9 103 14.5-45.5L118 17.4"/><path class="st20" d="m86.9 108.7 51-5.7L118 17.4"/><path class="st1" d="m86.9 108.7 51-5.7"/><path class="st20" d="m51 66.9 35.9 41.8 31.2-91.3"/><path class="st1" d="m51 66.9 35.9 41.8"/><path class="st19" d="M118.1 17.3 67.7 21 51 66.9"/><path class="st21" d="m52.2 139.5 34.7-30.9L51 66.9M51 66.9 17.5 99.3l34.7 40.3"/><path class="st16" d="M17.5 99.3 51 66.9l16.7-45.8"/></g></svg>