<svg xmlns="http://www.w3.org/2000/svg" width="249.173" height="198.107" viewBox="0 0 186.88 148.58" version="1.2"><defs><clipPath id="a"><path d="M171 40h15.559v57H171Zm0 0"/></clipPath><clipPath id="b"><path d="M171 39h15.559v58H171Zm0 0"/></clipPath><clipPath id="c"><path d="M157 13h29.559v51H157Zm0 0"/></clipPath><clipPath id="d"><path d="M157 12h29.559v53H157Zm0 0"/></clipPath><clipPath id="e"><path d="M139 13h47.559v88H139Zm0 0"/></clipPath><clipPath id="f"><path d="M157 12h29.559v29H157Zm0 0"/></clipPath><clipPath id="g"><path d="M.203 54H10v58H.203Zm0 0"/></clipPath><clipPath id="h"><path d="M.203 53H11v59H.203Zm0 0"/></clipPath><clipPath id="i"><path d="M.203 23H17v54H.203Zm0 0"/></clipPath><clipPath id="j"><path d="M.203 22H17v55H.203Zm0 0"/></clipPath><clipPath id="k"><path d="M.203 23H140v78H.203Zm0 0"/></clipPath><clipPath id="l"><path d="M.203 22H17v33H.203Zm0 0"/></clipPath><clipPath id="m"><path d="M107 96h79v52.16h-79Zm0 0"/></clipPath><clipPath id="n"><path d="M47 139h62v9.16H47Zm0 0"/></clipPath><clipPath id="o"><path d="M182 40h4.559v57H182Zm0 0"/></clipPath><clipPath id="p"><path d="M181 39h5.559v58H181Zm0 0"/></clipPath><clipPath id="q"><path d="M139 40h47.559v61H139Zm0 0"/></clipPath><clipPath id="r"><path d="M139 39h47.559v62H139Zm0 0"/></clipPath><clipPath id="s"><path d="M.203 54H21v58H.203Zm0 0"/></clipPath><clipPath id="t"><path d="M.203 53H22v59H.203Zm0 0"/></clipPath><clipPath id="u"><path d="M.203 54H140v47H.203Zm0 0"/></clipPath><clipPath id="v"><path d="M.203 53H22v35H.203Zm0 0"/></clipPath><clipPath id="w"><path d="M107 100h56v48.16h-56Zm0 0"/></clipPath><clipPath id="x"><path d="M47 105h62v43.16H47Zm0 0"/></clipPath><clipPath id="y"><path d="M75 100h66v48.16H75Zm0 0"/></clipPath></defs><path style="fill-rule:nonzero;fill:#c78092;fill-opacity:1;stroke-width:5;stroke-linecap:round;stroke-linejoin:round;stroke:#231f20;stroke-opacity:1;stroke-miterlimit:10" d="m581.596 1448.116-206.363-458.95 466.863 122.885Zm0 0" transform="matrix(.09972 0 0 -.09972 .204 148.161)"/><path style="fill-rule:nonzero;fill:#a56299;fill-opacity:1;stroke-width:5;stroke-linecap:round;stroke-linejoin:round;stroke:#231f20;stroke-opacity:1;stroke-miterlimit:10" d="M1101.499 1483.254 842.096 1112.05l496.634-50.807Zm0 0" transform="matrix(.09972 0 0 -.09972 .204 148.161)"/><path style="fill-rule:nonzero;fill:#b66387;fill-opacity:1;stroke-width:5;stroke-linecap:round;stroke-linejoin:round;stroke:#231f20;stroke-opacity:1;stroke-miterlimit:10" d="m1101.499 1483.254-519.903-35.138 260.5-336.065Zm0 0" transform="matrix(.09972 0 0 -.09972 .204 148.161)"/><path style="stroke:none;fill-rule:nonzero;fill:#aebde6;fill-opacity:1" d="M84.176 37.27 37.62 49.523l147.156 47.172"/><path style="fill:none;stroke-width:5;stroke-linecap:round;stroke-linejoin:round;stroke:#231f20;stroke-opacity:1;stroke-miterlimit:10" d="M842.096 1112.051 375.233 989.166" transform="matrix(.09972 0 0 -.09972 .204 148.161)"/><path style="stroke:none;fill-rule:nonzero;fill:#aebde6;fill-opacity:1" d="M133.7 42.336 84.175 37.27l100.601 59.425"/><path style="fill:none;stroke-width:5;stroke-linecap:round;stroke-linejoin:round;stroke:#231f20;stroke-opacity:1;stroke-miterlimit:10" d="m1338.73 1061.244-496.634 50.807" transform="matrix(.09972 0 0 -.09972 .204 148.161)"/><path style="fill-rule:nonzero;fill:#744399;fill-opacity:1;stroke-width:5;stroke-linecap:round;stroke-linejoin:round;stroke:#231f20;stroke-opacity:1;stroke-miterlimit:10" d="m1579.252 1353.121-240.522-291.877 383.895-215.294Zm0 0" transform="matrix(.09972 0 0 -.09972 .204 148.161)"/><path style="fill-rule:nonzero;fill:#8a4489;fill-opacity:1;stroke-width:5;stroke-linecap:round;stroke-linejoin:round;stroke:#231f20;stroke-opacity:1;stroke-miterlimit:10" d="m1579.252 1353.121-477.753 130.133 237.231-422.01Zm0 0" transform="matrix(.09972 0 0 -.09972 .204 148.161)"/><path style="fill-rule:nonzero;fill:#aebde6;fill-opacity:1;stroke-width:5;stroke-linecap:round;stroke-linejoin:round;stroke:#231f20;stroke-opacity:1;stroke-miterlimit:10" d="m1850.955 516.114-128.33 329.836-383.895 215.294" transform="matrix(.09972 0 0 -.09972 .204 148.161)"/><path style="fill-rule:nonzero;fill:#ecaa84;fill-opacity:1;stroke-width:5;stroke-linecap:round;stroke-linejoin:round;stroke:#231f20;stroke-opacity:1;stroke-miterlimit:10" d="M165.54 1253.779 81.906 716.56l293.327 272.605Zm0 0" transform="matrix(.09972 0 0 -.09972 .204 148.161)"/><path style="fill-rule:nonzero;fill:#db8679;fill-opacity:1;stroke-width:5;stroke-linecap:round;stroke-linejoin:round;stroke:#231f20;stroke-opacity:1;stroke-miterlimit:10" d="M581.596 1448.116 165.54 1253.779l209.693-264.613Zm0 0" transform="matrix(.09972 0 0 -.09972 .204 148.161)"/><path style="stroke:none;fill-rule:nonzero;fill:#aebde6;fill-opacity:1" d="M37.621 49.523 8.371 76.707l176.406 19.988"/><path style="fill:none;stroke-width:5;stroke-linecap:round;stroke-linejoin:round;stroke:#231f20;stroke-opacity:1;stroke-miterlimit:10" d="M375.233 989.166 81.906 716.56" transform="matrix(.09972 0 0 -.09972 .204 148.161)"/><path style="stroke:none;fill-rule:nonzero;fill:#aebde6;fill-opacity:1" d="m8.371 76.707 1.477 34.773 174.93-14.785"/><path style="fill:none;stroke-width:5;stroke-linecap:round;stroke-linejoin:round;stroke:#231f20;stroke-opacity:1;stroke-miterlimit:10" d="m81.906 716.561 14.808-348.717" transform="matrix(.09972 0 0 -.09972 .204 148.161)"/><path style="stroke:none;fill-rule:nonzero;fill:#aebde6;fill-opacity:1" d="m9.848 111.48 37.629 28.739 137.3-43.524"/><path style="fill:none;stroke-width:5;stroke-linecap:round;stroke-linejoin:round;stroke:#231f20;stroke-opacity:1;stroke-miterlimit:10" d="M96.714 367.844 474.066 79.649" transform="matrix(.09972 0 0 -.09972 .204 148.161)"/><path style="stroke:none;fill-rule:nonzero;fill:#abc2e8;fill-opacity:1" d="m110.043.254 47.64 12.976-17.726 87.313"/><path style="fill:none;stroke-width:5;stroke-linecap:round;stroke-linejoin:round;stroke:#231f20;stroke-opacity:1;stroke-miterlimit:10" d="m1101.499 1483.254 477.753-130.133" transform="matrix(.09972 0 0 -.09972 .204 148.161)"/><path style="stroke:none;fill-rule:nonzero;fill:#abc2e8;fill-opacity:1" d="M58.2 3.758 110.042.254l29.914 100.289"/><path style="fill:none;stroke-width:5;stroke-linecap:round;stroke-linejoin:round;stroke:#231f20;stroke-opacity:1;stroke-miterlimit:10" d="m581.596 1448.116 519.903 35.138" transform="matrix(.09972 0 0 -.09972 .204 148.161)"/><path style="stroke:none;fill-rule:nonzero;fill:#abc2e8;fill-opacity:1" d="M16.71 23.137 58.2 3.757l81.757 96.786"/><path style="fill:none;stroke-width:5;stroke-linecap:round;stroke-linejoin:round;stroke:#231f20;stroke-opacity:1;stroke-miterlimit:10" d="m165.54 1253.779 416.056 194.337" transform="matrix(.09972 0 0 -.09972 .204 148.161)"/><g clip-path="url(#a)"><path style="stroke:none;fill-rule:nonzero;fill:#272b71;fill-opacity:1" d="M186.305 40.21 171.98 63.806l12.797 32.89Zm0 0"/></g><g clip-path="url(#b)"><path style="fill:none;stroke-width:5;stroke-linecap:round;stroke-linejoin:round;stroke:#231f20;stroke-opacity:1;stroke-miterlimit:10" d="M1866.272 1082.554 1722.625 845.95l128.33-329.836Zm0 0" transform="matrix(.09972 0 0 -.09972 .204 148.161)"/></g><g clip-path="url(#c)"><path style="stroke:none;fill-rule:nonzero;fill:#362970;fill-opacity:1" d="m186.305 40.21-28.621-26.98 14.296 50.575Zm0 0"/></g><g clip-path="url(#d)"><path style="fill:none;stroke-width:5;stroke-linecap:round;stroke-linejoin:round;stroke:#231f20;stroke-opacity:1;stroke-miterlimit:10" d="m1866.272 1082.554-287.02 270.567 143.373-507.171Zm0 0" transform="matrix(.09972 0 0 -.09972 .204 148.161)"/></g><g clip-path="url(#e)"><path style="stroke:none;fill-rule:nonzero;fill:#abc2e8;fill-opacity:1" d="m157.684 13.23 28.62 26.98-46.347 60.333"/></g><g clip-path="url(#f)"><path style="fill:none;stroke-width:5;stroke-linecap:round;stroke-linejoin:round;stroke:#231f20;stroke-opacity:1;stroke-miterlimit:10" d="m1579.252 1353.121 287.02-270.567" transform="matrix(.09972 0 0 -.09972 .204 148.161)"/></g><g clip-path="url(#g)"><path style="stroke:none;fill-rule:nonzero;fill:#d6ca32;fill-opacity:1" d="m.453 54.168 9.395 57.312L8.37 76.707Zm0 0"/></g><g clip-path="url(#h)"><path style="fill:none;stroke-width:5;stroke-linecap:round;stroke-linejoin:round;stroke:#231f20;stroke-opacity:1;stroke-miterlimit:10" d="m2.503 942.59 94.21-574.746-14.807 348.717Zm0 0" transform="matrix(.09972 0 0 -.09972 .204 148.161)"/></g><g clip-path="url(#i)"><path style="stroke:none;fill-rule:nonzero;fill:#f8af3c;fill-opacity:1" d="M16.71 23.137.454 54.168l7.918 22.539Zm0 0"/></g><g clip-path="url(#j)"><path style="fill:none;stroke-width:5;stroke-linecap:round;stroke-linejoin:round;stroke:#231f20;stroke-opacity:1;stroke-miterlimit:10" d="M165.54 1253.779 2.503 942.589l79.403-226.028Zm0 0" transform="matrix(.09972 0 0 -.09972 .204 148.161)"/></g><g clip-path="url(#k)"><path style="stroke:none;fill-rule:nonzero;fill:#abc2e8;fill-opacity:1" d="m.453 54.168 16.258-31.031 123.246 77.406"/></g><g clip-path="url(#l)"><path style="fill:none;stroke-width:5;stroke-linecap:round;stroke-linejoin:round;stroke:#231f20;stroke-opacity:1;stroke-miterlimit:10" d="m2.503 942.59 163.037 311.189" transform="matrix(.09972 0 0 -.09972 .204 148.161)"/></g><path style="stroke:none;fill-rule:nonzero;fill:#aebde6;fill-opacity:1" d="m108.047 147.91 53.933-17.96 22.797-33.255"/><g clip-path="url(#m)"><path style="fill:none;stroke-width:5;stroke-linecap:round;stroke-linejoin:round;stroke:#231f20;stroke-opacity:1;stroke-miterlimit:10" d="m1081.482 2.517 540.86 180.117 228.613 333.48" transform="matrix(.09972 0 0 -.09972 .204 148.161)"/></g><path style="stroke:none;fill-rule:nonzero;fill:#aebde6;fill-opacity:1" d="m47.477 140.219 60.57 7.691 76.73-51.215"/><g clip-path="url(#n)"><path style="fill:none;stroke-width:5;stroke-linecap:round;stroke-linejoin:round;stroke:#231f20;stroke-opacity:1;stroke-miterlimit:10" d="m474.066 79.649 607.416-77.132" transform="matrix(.09972 0 0 -.09972 .204 148.161)"/></g><path style="fill-rule:nonzero;fill:#ef8a1d;fill-opacity:1;stroke-width:5;stroke-linecap:round;stroke-linejoin:round;stroke:#231f20;stroke-opacity:1;stroke-miterlimit:10" d="m1823.378 745.432 27.577-229.318-228.613-333.48Zm0 0" transform="matrix(.09972 0 0 -.09972 .204 148.161)"/><g clip-path="url(#o)"><path style="stroke:none;fill-rule:nonzero;fill:#d0a716;fill-opacity:1" d="m182.027 73.828 4.278-33.617-1.528 56.484Zm0 0"/></g><g clip-path="url(#p)"><path style="fill:none;stroke-width:5;stroke-linecap:round;stroke-linejoin:round;stroke:#231f20;stroke-opacity:1;stroke-miterlimit:10" d="m1823.378 745.432 42.894 337.122-15.317-566.44Zm0 0" transform="matrix(.09972 0 0 -.09972 .204 148.161)"/></g><g clip-path="url(#q)"><path style="stroke:none;fill-rule:nonzero;fill:#abc2e8;fill-opacity:1" d="m186.305 40.21-4.278 33.618-42.07 26.715"/></g><g clip-path="url(#r)"><path style="fill:none;stroke-width:5;stroke-linecap:round;stroke-linejoin:round;stroke:#231f20;stroke-opacity:1;stroke-miterlimit:10" d="m1866.272 1082.554-42.894-337.122-421.893-267.904" transform="matrix(.09972 0 0 -.09972 .204 148.161)"/></g><path style="fill-rule:nonzero;fill:#351e53;fill-opacity:1;stroke-width:5;stroke-linecap:round;stroke-linejoin:round;stroke:#231f20;stroke-opacity:1;stroke-miterlimit:10" d="m208.317 615.182 265.75-535.533L96.713 367.844Zm0 0" transform="matrix(.09972 0 0 -.09972 .204 148.161)"/><g clip-path="url(#s)"><path style="stroke:none;fill-rule:nonzero;fill:#202358;fill-opacity:1" d="m.453 54.168 20.524 32.648-11.13 24.664Zm0 0"/></g><g clip-path="url(#t)"><path style="fill:none;stroke-width:5;stroke-linecap:round;stroke-linejoin:round;stroke:#231f20;stroke-opacity:1;stroke-miterlimit:10" d="m2.503 942.59 205.814-327.408L96.714 367.844Zm0 0" transform="matrix(.09972 0 0 -.09972 .204 148.161)"/></g><g clip-path="url(#u)"><path style="stroke:none;fill-rule:nonzero;fill:#abc2e8;fill-opacity:1" d="M20.977 86.816.453 54.168l139.504 46.375"/></g><g clip-path="url(#v)"><path style="fill:none;stroke-width:5;stroke-linecap:round;stroke-linejoin:round;stroke:#231f20;stroke-opacity:1;stroke-miterlimit:10" d="M208.317 615.182 2.503 942.589" transform="matrix(.09972 0 0 -.09972 .204 148.161)"/></g><path style="stroke:none;fill-rule:nonzero;fill:#ce6866;fill-opacity:1" d="m139.957 100.543 22.023 29.406-53.933 17.961Zm0 0"/><g clip-path="url(#w)"><path style="fill:none;stroke-width:5;stroke-linecap:round;stroke-linejoin:round;stroke:#231f20;stroke-opacity:1;stroke-miterlimit:10" d="m1401.485 477.528 220.857-294.894-540.86-180.117Zm0 0" transform="matrix(.09972 0 0 -.09972 .204 148.161)"/></g><path style="fill-rule:nonzero;fill:#e79374;fill-opacity:1;stroke-width:5;stroke-linecap:round;stroke-linejoin:round;stroke:#231f20;stroke-opacity:1;stroke-miterlimit:10" d="m1401.485 477.528 421.893 267.904-201.036-562.798Zm0 0" transform="matrix(.09972 0 0 -.09972 .204 148.161)"/><path style="stroke:none;fill-rule:nonzero;fill:#994073;fill-opacity:1" d="m75.621 105.98 32.426 41.93-60.57-7.691Zm0 0"/><g clip-path="url(#x)"><path style="fill:none;stroke-width:5;stroke-linecap:round;stroke-linejoin:round;stroke:#231f20;stroke-opacity:1;stroke-miterlimit:10" d="M756.307 423 1081.482 2.516 474.066 79.65Zm0 0" transform="matrix(.09972 0 0 -.09972 .204 148.161)"/></g><path style="fill-rule:nonzero;fill:#80408b;fill-opacity:1;stroke-width:5;stroke-linecap:round;stroke-linejoin:round;stroke:#231f20;stroke-opacity:1;stroke-miterlimit:10" d="m208.317 615.182 547.99-192.183-282.24-343.35Zm0 0" transform="matrix(.09972 0 0 -.09972 .204 148.161)"/><path style="stroke:none;fill-rule:nonzero;fill:#b86688;fill-opacity:1" d="m75.621 105.98 64.336-5.437-31.91 47.367Zm0 0"/><g clip-path="url(#y)"><path style="fill:none;stroke-width:5;stroke-linecap:round;stroke-linejoin:round;stroke:#231f20;stroke-opacity:1;stroke-miterlimit:10" d="m756.307 423 645.178 54.528-320.003-475.01Zm0 0" transform="matrix(.09972 0 0 -.09972 .204 148.161)"/></g><path style="fill-rule:nonzero;fill:#abc2e8;fill-opacity:1;stroke-width:5;stroke-linecap:round;stroke-linejoin:round;stroke:#231f20;stroke-opacity:1;stroke-miterlimit:10" d="M1401.485 477.528 756.307 423l-547.99 192.183" transform="matrix(.09972 0 0 -.09972 .204 148.161)"/></svg>