<?xml version="1.0" encoding="UTF-8"?>
<svg xmlns="http://www.w3.org/2000/svg" xmlns:xlink="http://www.w3.org/1999/xlink" width="263.13pt" height="199.94pt" viewBox="0 0 263.13 199.94" version="1.2">
<g id="surface1">
<path style="fill-rule:nonzero;fill:rgb(72.459412%,48.608398%,56.639099%);fill-opacity:1;stroke-width:5;stroke-linecap:round;stroke-linejoin:round;stroke:rgb(0%,0%,0%);stroke-opacity:1;stroke-miterlimit:10;" d="M 1007.735007 1792.808391 L 1526.044636 1827.532197 L 1519.186096 1395.679358 " transform="matrix(0.0996705,0,0,-0.0996705,0,199.580652)"/>
<path style="fill-rule:nonzero;fill:rgb(72.459412%,48.608398%,56.639099%);fill-opacity:1;stroke-width:5;stroke-linecap:round;stroke-linejoin:round;stroke:rgb(0%,0%,0%);stroke-opacity:1;stroke-miterlimit:10;" d="M 1519.186096 1395.679358 L 1024.39146 1358.99597 L 1007.735007 1792.808391 " transform="matrix(0.0996705,0,0,-0.0996705,0,199.580652)"/>
<path style="fill-rule:nonzero;fill:rgb(57.226562%,36.497498%,56.054688%);fill-opacity:1;stroke-width:5;stroke-linecap:round;stroke-linejoin:round;stroke:rgb(0%,0%,0%);stroke-opacity:1;stroke-miterlimit:10;" d="M 1973.143028 1259.801893 L 1519.186096 1395.679358 L 1526.044636 1827.532197 " transform="matrix(0.0996705,0,0,-0.0996705,0,199.580652)"/>
<path style=" stroke:none;fill-rule:nonzero;fill:rgb(66.209412%,74.414062%,91.014099%);fill-opacity:1;" d="M 151.417969 60.472656 L 102.101562 64.128906 L 219.285156 136.765625 "/>
<path style="fill:none;stroke-width:5;stroke-linecap:round;stroke-linejoin:round;stroke:rgb(0%,0%,0%);stroke-opacity:1;stroke-miterlimit:10;" d="M 1519.186096 1395.679358 L 1024.39146 1358.99597 " transform="matrix(0.0996705,0,0,-0.0996705,0,199.580652)"/>
<path style=" stroke:none;fill-rule:nonzero;fill:rgb(66.209412%,74.414062%,91.014099%);fill-opacity:1;" d="M 196.664062 74.015625 L 151.417969 60.472656 L 219.285156 136.765625 "/>
<path style="fill:none;stroke-width:5;stroke-linecap:round;stroke-linejoin:round;stroke:rgb(0%,0%,0%);stroke-opacity:1;stroke-miterlimit:10;" d="M 1973.143028 1259.801893 L 1519.186096 1395.679358 " transform="matrix(0.0996705,0,0,-0.0996705,0,199.580652)"/>
<path style="fill-rule:nonzero;fill:rgb(86.131287%,60.546875%,55.271912%);fill-opacity:1;stroke-width:5;stroke-linecap:round;stroke-linejoin:round;stroke:rgb(0%,0%,0%);stroke-opacity:1;stroke-miterlimit:10;" d="M 592.773772 1600.455752 L 1007.735007 1792.808391 L 1024.39146 1358.99597 " transform="matrix(0.0996705,0,0,-0.0996705,0,199.580652)"/>
<path style="fill-rule:nonzero;fill:rgb(86.131287%,60.546875%,55.271912%);fill-opacity:1;stroke-width:5;stroke-linecap:round;stroke-linejoin:round;stroke:rgb(0%,0%,0%);stroke-opacity:1;stroke-miterlimit:10;" d="M 1024.39146 1358.99597 L 629.966651 1156.375117 L 592.773772 1600.455752 " transform="matrix(0.0996705,0,0,-0.0996705,0,199.580652)"/>
<path style=" stroke:none;fill-rule:nonzero;fill:rgb(66.209412%,74.414062%,91.014099%);fill-opacity:1;" d="M 102.101562 64.128906 L 62.789062 84.324219 L 219.285156 136.765625 "/>
<path style="fill:none;stroke-width:5;stroke-linecap:round;stroke-linejoin:round;stroke:rgb(0%,0%,0%);stroke-opacity:1;stroke-miterlimit:10;" d="M 1024.39146 1358.99597 L 629.966651 1156.375117 " transform="matrix(0.0996705,0,0,-0.0996705,0,199.580652)"/>
<path style="fill-rule:nonzero;fill:rgb(57.226562%,36.497498%,56.054688%);fill-opacity:1;stroke-width:5;stroke-linecap:round;stroke-linejoin:round;stroke:rgb(0%,0%,0%);stroke-opacity:1;stroke-miterlimit:10;" d="M 1526.044636 1827.532197 L 2002.419194 1698.748421 L 1973.143028 1259.801893 " transform="matrix(0.0996705,0,0,-0.0996705,0,199.580652)"/>
<path style="fill-rule:nonzero;fill:rgb(27.392578%,14.501953%,51.756287%);fill-opacity:1;stroke-width:5;stroke-linecap:round;stroke-linejoin:round;stroke:rgb(0%,0%,0%);stroke-opacity:1;stroke-miterlimit:10;" d="M 2243.565443 978.562581 L 1973.143028 1259.801893 L 2002.419194 1698.748421 " transform="matrix(0.0996705,0,0,-0.0996705,0,199.580652)"/>
<path style="fill-rule:nonzero;fill:rgb(66.209412%,74.414062%,91.014099%);fill-opacity:1;stroke-width:5;stroke-linecap:round;stroke-linejoin:round;stroke:rgb(0%,0%,0%);stroke-opacity:1;stroke-miterlimit:10;" d="M 2200.101898 630.227158 L 2243.565443 978.562581 L 1973.143028 1259.801893 " transform="matrix(0.0996705,0,0,-0.0996705,0,199.580652)"/>
<path style="fill-rule:nonzero;fill:rgb(27.392578%,14.501953%,51.756287%);fill-opacity:1;stroke-width:5;stroke-linecap:round;stroke-linejoin:round;stroke:rgb(0%,0%,0%);stroke-opacity:1;stroke-miterlimit:10;" d="M 2002.419194 1698.748421 L 2288.792612 1430.951847 L 2243.565443 978.562581 " transform="matrix(0.0996705,0,0,-0.0996705,0,199.580652)"/>
<path style=" stroke:none;fill-rule:nonzero;fill:rgb(64.84375%,75.976562%,93.164062%);fill-opacity:1;" d="M 152.101562 17.429688 L 100.441406 20.890625 L 223.882812 90.234375 "/>
<path style="fill:none;stroke-width:5;stroke-linecap:round;stroke-linejoin:round;stroke:rgb(0%,0%,0%);stroke-opacity:1;stroke-miterlimit:10;" d="M 1526.044636 1827.532197 L 1007.735007 1792.808391 " transform="matrix(0.0996705,0,0,-0.0996705,0,199.580652)"/>
<path style=" stroke:none;fill-rule:nonzero;fill:rgb(64.84375%,75.976562%,93.164062%);fill-opacity:1;" d="M 199.582031 30.265625 L 152.101562 17.429688 L 223.882812 90.234375 "/>
<path style="fill:none;stroke-width:5;stroke-linecap:round;stroke-linejoin:round;stroke:rgb(0%,0%,0%);stroke-opacity:1;stroke-miterlimit:10;" d="M 2002.419194 1698.748421 L 1526.044636 1827.532197 " transform="matrix(0.0996705,0,0,-0.0996705,0,199.580652)"/>
<path style="fill-rule:nonzero;fill:rgb(99.609375%,76.951599%,43.406677%);fill-opacity:1;stroke-width:5;stroke-linecap:round;stroke-linejoin:round;stroke:rgb(0%,0%,0%);stroke-opacity:1;stroke-miterlimit:10;" d="M 429.971639 1292.409349 L 592.773772 1600.455752 L 629.966651 1156.375117 " transform="matrix(0.0996705,0,0,-0.0996705,0,199.580652)"/>
<path style="fill-rule:nonzero;fill:rgb(99.609375%,76.951599%,43.406677%);fill-opacity:1;stroke-width:5;stroke-linecap:round;stroke-linejoin:round;stroke:rgb(0%,0%,0%);stroke-opacity:1;stroke-miterlimit:10;" d="M 629.966651 1156.375117 L 477.981416 833.631844 L 429.971639 1292.409349 " transform="matrix(0.0996705,0,0,-0.0996705,0,199.580652)"/>
<path style=" stroke:none;fill-rule:nonzero;fill:rgb(66.209412%,74.414062%,91.014099%);fill-opacity:1;" d="M 62.789062 84.324219 L 47.640625 116.492188 L 219.285156 136.765625 "/>
<path style="fill:none;stroke-width:5;stroke-linecap:round;stroke-linejoin:round;stroke:rgb(0%,0%,0%);stroke-opacity:1;stroke-miterlimit:10;" d="M 629.966651 1156.375117 L 477.981416 833.631844 " transform="matrix(0.0996705,0,0,-0.0996705,0,199.580652)"/>
<path style=" stroke:none;fill-rule:nonzero;fill:rgb(64.84375%,75.976562%,93.164062%);fill-opacity:1;" d="M 100.441406 20.890625 L 59.082031 40.0625 L 223.882812 90.234375 "/>
<path style="fill:none;stroke-width:5;stroke-linecap:round;stroke-linejoin:round;stroke:rgb(0%,0%,0%);stroke-opacity:1;stroke-miterlimit:10;" d="M 1007.735007 1792.808391 L 592.773772 1600.455752 " transform="matrix(0.0996705,0,0,-0.0996705,0,199.580652)"/>
<path style="fill-rule:nonzero;fill:rgb(64.84375%,75.976562%,93.164062%);fill-opacity:1;stroke-width:5;stroke-linecap:round;stroke-linejoin:round;stroke:rgb(0%,0%,0%);stroke-opacity:1;stroke-miterlimit:10;" d="M 2246.230475 1097.078144 L 2288.792612 1430.951847 L 2002.419194 1698.748421 " transform="matrix(0.0996705,0,0,-0.0996705,0,199.580652)"/>
<path style="fill-rule:nonzero;fill:rgb(73.242188%,53.514099%,0%);fill-opacity:1;stroke-width:5;stroke-linecap:round;stroke-linejoin:round;stroke:rgb(0%,0%,0%);stroke-opacity:1;stroke-miterlimit:10;" d="M 2200.101898 630.227158 L 2243.565443 978.562581 L 2288.792612 1430.951847 " transform="matrix(0.0996705,0,0,-0.0996705,0,199.580652)"/>
<path style=" stroke:none;fill-rule:nonzero;fill:rgb(64.84375%,75.976562%,93.164062%);fill-opacity:1;" d="M 59.082031 40.0625 L 42.855469 70.765625 L 223.882812 90.234375 "/>
<path style="fill:none;stroke-width:5;stroke-linecap:round;stroke-linejoin:round;stroke:rgb(0%,0%,0%);stroke-opacity:1;stroke-miterlimit:10;" d="M 592.773772 1600.455752 L 429.971639 1292.409349 " transform="matrix(0.0996705,0,0,-0.0996705,0,199.580652)"/>
<path style="fill-rule:nonzero;fill:rgb(10.496521%,10.496521%,38.597107%);fill-opacity:1;stroke-width:5;stroke-linecap:round;stroke-linejoin:round;stroke:rgb(0%,0%,0%);stroke-opacity:1;stroke-miterlimit:10;" d="M 635.061567 968.059218 L 429.971639 1292.409349 L 477.981416 833.631844 " transform="matrix(0.0996705,0,0,-0.0996705,0,199.580652)"/>
<path style=" stroke:none;fill-rule:nonzero;fill:rgb(66.209412%,74.414062%,91.014099%);fill-opacity:1;" d="M 47.640625 116.492188 L 67.289062 150.117188 L 219.285156 136.765625 "/>
<path style="fill:none;stroke-width:5;stroke-linecap:round;stroke-linejoin:round;stroke:rgb(0%,0%,0%);stroke-opacity:1;stroke-miterlimit:10;" d="M 477.981416 833.631844 L 675.115437 496.270083 " transform="matrix(0.0996705,0,0,-0.0996705,0,199.580652)"/>
<path style="fill-rule:nonzero;fill:rgb(10.496521%,10.496521%,38.597107%);fill-opacity:1;stroke-width:5;stroke-linecap:round;stroke-linejoin:round;stroke:rgb(0%,0%,0%);stroke-opacity:1;stroke-miterlimit:10;" d="M 477.981416 833.631844 L 675.115437 496.270083 L 635.061567 968.059218 " transform="matrix(0.0996705,0,0,-0.0996705,0,199.580652)"/>
<path style="fill-rule:nonzero;fill:rgb(73.242188%,53.514099%,0%);fill-opacity:1;stroke-width:5;stroke-linecap:round;stroke-linejoin:round;stroke:rgb(0%,0%,0%);stroke-opacity:1;stroke-miterlimit:10;" d="M 2288.792612 1430.951847 L 2246.230475 1097.078144 L 2200.101898 630.227158 " transform="matrix(0.0996705,0,0,-0.0996705,0,199.580652)"/>
<path style="fill-rule:nonzero;fill:rgb(66.209412%,74.414062%,91.014099%);fill-opacity:1;stroke-width:5;stroke-linecap:round;stroke-linejoin:round;stroke:rgb(0%,0%,0%);stroke-opacity:1;stroke-miterlimit:10;" d="M 1192.562849 299.33202 L 1800.347024 355.101744 L 2200.101898 630.227158 " transform="matrix(0.0996705,0,0,-0.0996705,0,199.580652)"/>
<path style=" stroke:none;fill-rule:nonzero;fill:rgb(66.209412%,74.414062%,91.014099%);fill-opacity:1;" d="M 67.289062 150.117188 L 118.863281 169.746094 L 219.285156 136.765625 "/>
<path style="fill:none;stroke-width:5;stroke-linecap:round;stroke-linejoin:round;stroke:rgb(0%,0%,0%);stroke-opacity:1;stroke-miterlimit:10;" d="M 675.115437 496.270083 L 1192.562849 299.33202 " transform="matrix(0.0996705,0,0,-0.0996705,0,199.580652)"/>
<path style="fill-rule:nonzero;fill:rgb(90.625%,59.764099%,44.897461%);fill-opacity:1;stroke-width:5;stroke-linecap:round;stroke-linejoin:round;stroke:rgb(0%,0%,0%);stroke-opacity:1;stroke-miterlimit:10;" d="M 1800.347024 355.101744 L 2200.101898 630.227158 L 2246.230475 1097.078144 " transform="matrix(0.0996705,0,0,-0.0996705,0,199.580652)"/>
<path style=" stroke:none;fill-rule:nonzero;fill:rgb(64.84375%,75.976562%,93.164062%);fill-opacity:1;" d="M 42.855469 70.765625 L 63.296875 103.09375 L 223.882812 90.234375 "/>
<path style="fill:none;stroke-width:5;stroke-linecap:round;stroke-linejoin:round;stroke:rgb(0%,0%,0%);stroke-opacity:1;stroke-miterlimit:10;" d="M 429.971639 1292.409349 L 635.061567 968.059218 " transform="matrix(0.0996705,0,0,-0.0996705,0,199.580652)"/>
<path style="fill-rule:nonzero;fill:rgb(50.193787%,26.489258%,48.706055%);fill-opacity:1;stroke-width:5;stroke-linecap:round;stroke-linejoin:round;stroke:rgb(0%,0%,0%);stroke-opacity:1;stroke-miterlimit:10;" d="M 1181.745953 777.62697 L 635.061567 968.059218 L 675.115437 496.270083 " transform="matrix(0.0996705,0,0,-0.0996705,0,199.580652)"/>
<path style="fill-rule:nonzero;fill:rgb(50.193787%,26.489258%,48.706055%);fill-opacity:1;stroke-width:5;stroke-linecap:round;stroke-linejoin:round;stroke:rgb(0%,0%,0%);stroke-opacity:1;stroke-miterlimit:10;" d="M 675.115437 496.270083 L 1192.562849 299.33202 L 1181.745953 777.62697 " transform="matrix(0.0996705,0,0,-0.0996705,0,199.580652)"/>
<path style="fill-rule:nonzero;fill:rgb(90.625%,59.764099%,44.897461%);fill-opacity:1;stroke-width:5;stroke-linecap:round;stroke-linejoin:round;stroke:rgb(0%,0%,0%);stroke-opacity:1;stroke-miterlimit:10;" d="M 2246.230475 1097.078144 L 1825.508066 831.672261 L 1800.347024 355.101744 " transform="matrix(0.0996705,0,0,-0.0996705,0,199.580652)"/>
<path style="fill-rule:nonzero;fill:rgb(72.264099%,44.50531%,50.584412%);fill-opacity:1;stroke-width:5;stroke-linecap:round;stroke-linejoin:round;stroke:rgb(0%,0%,0%);stroke-opacity:1;stroke-miterlimit:10;" d="M 1192.562849 299.33202 L 1800.347024 355.101744 L 1825.508066 831.672261 " transform="matrix(0.0996705,0,0,-0.0996705,0,199.580652)"/>
<path style="fill-rule:nonzero;fill:rgb(64.84375%,75.976562%,93.164062%);fill-opacity:1;stroke-width:5;stroke-linecap:round;stroke-linejoin:round;stroke:rgb(0%,0%,0%);stroke-opacity:1;stroke-miterlimit:10;" d="M 1181.745953 777.62697 L 1825.508066 831.672261 L 2246.230475 1097.078144 " transform="matrix(0.0996705,0,0,-0.0996705,0,199.580652)"/>
<path style=" stroke:none;fill-rule:nonzero;fill:rgb(64.84375%,75.976562%,93.164062%);fill-opacity:1;" d="M 63.296875 103.09375 L 117.785156 122.074219 L 223.882812 90.234375 "/>
<path style="fill:none;stroke-width:5;stroke-linecap:round;stroke-linejoin:round;stroke:rgb(0%,0%,0%);stroke-opacity:1;stroke-miterlimit:10;" d="M 635.061567 968.059218 L 1181.745953 777.62697 " transform="matrix(0.0996705,0,0,-0.0996705,0,199.580652)"/>
<path style="fill-rule:nonzero;fill:rgb(72.264099%,44.50531%,50.584412%);fill-opacity:1;stroke-width:5;stroke-linecap:round;stroke-linejoin:round;stroke:rgb(0%,0%,0%);stroke-opacity:1;stroke-miterlimit:10;" d="M 1825.508066 831.672261 L 1181.745953 777.62697 L 1192.562849 299.33202 " transform="matrix(0.0996705,0,0,-0.0996705,0,199.580652)"/>
</g>
</svg>
