<svg xmlns="http://www.w3.org/2000/svg" width="239.88" height="202.613" viewBox="0 0 179.91 151.96" version="1.2"><defs><clipPath id="a"><path d="M61 .02h55V45H61Zm0 0"/></clipPath><clipPath id="b"><path d="M60 .02h57V45H60Zm0 0"/></clipPath><clipPath id="c"><path d="M88 .02h56V44H88Zm0 0"/></clipPath><clipPath id="d"><path d="M61 43h118.82v56H61Zm0 0"/></clipPath><clipPath id="e"><path d="M115 43h64.82v56H115Zm0 0"/></clipPath><clipPath id="f"><path d="M33 .02h56V45H33Zm0 0"/></clipPath><clipPath id="g"><path d="M16 44h163.82v55H16Zm0 0"/></clipPath><clipPath id="h"><path d="M1 65h178.82v37H1Zm0 0"/></clipPath><clipPath id="i"><path d="M1 98h178.82v40H1Zm0 0"/></clipPath><clipPath id="j"><path d="M88 .02h56V102H88Zm0 0"/></clipPath><clipPath id="k"><path d="M88 .02h56V10H88Zm0 0"/></clipPath><clipPath id="l"><path d="M33 .02h96V102H33Zm0 0"/></clipPath><clipPath id="m"><path d="M33 .02h56V12H33Zm0 0"/></clipPath><clipPath id="n"><path d="M161 36h18.82v63H161Zm0 0"/></clipPath><clipPath id="o"><path d="M143 9h36.82v55H143Zm0 0"/></clipPath><clipPath id="p"><path d="M128 9h51.82v93H128Zm0 0"/></clipPath><clipPath id="q"><path d="M143 9h36.82v29H143Zm0 0"/></clipPath><clipPath id="r"><path d="M93 98h86.82v53.902H93Zm0 0"/></clipPath><clipPath id="s"><path d="M30 98h149.82v53.902H30Zm0 0"/></clipPath><clipPath id="t"><path d="M30 136h64v15.902H30Zm0 0"/></clipPath><clipPath id="u"><path d="M154 73h25.82v62H154Zm0 0"/></clipPath><clipPath id="v"><path d="M154 73h25.82v63H154Zm0 0"/></clipPath><clipPath id="w"><path d="M177 36h2.82v63H177Zm0 0"/></clipPath><clipPath id="x"><path d="M176 36h3.82v63H176Zm0 0"/></clipPath><clipPath id="y"><path d="M128 36h51.82v66H128Zm0 0"/></clipPath><clipPath id="z"><path d="M93 101h62v50.902H93Zm0 0"/></clipPath><clipPath id="A"><path d="M30 102h64v49.902H30Zm0 0"/></clipPath><clipPath id="B"><path d="M57 101h72v50.902H57Zm0 0"/></clipPath><clipPath id="C"><path d="M57 101h73v50.902H57Zm0 0"/></clipPath></defs><g clip-path="url(#a)"><path style="stroke:none;fill-rule:nonzero;fill:#b26d99;fill-opacity:1" d="M88.352.266 61.145 44.199l54.792-.832Zm0 0"/></g><g clip-path="url(#b)"><path style="fill:none;stroke-width:5;stroke-linecap:round;stroke-linejoin:round;stroke:#231f20;stroke-opacity:1;stroke-miterlimit:10" d="M883.958 1517.123 611.75 1077.567l548.204 8.324Zm0 0" transform="matrix(.09995 0 0 -.09995 0 151.902)"/></g><path style="fill-rule:nonzero;fill:#834c9b;fill-opacity:1;stroke-width:5;stroke-linecap:round;stroke-linejoin:round;stroke:#231f20;stroke-opacity:1;stroke-miterlimit:10" d="m1436.265 1424.068-276.31-338.177 459.527-198.771Zm0 0" transform="matrix(.09995 0 0 -.09995 0 151.902)"/><g clip-path="url(#c)"><path style="fill-rule:nonzero;fill:#974d88;fill-opacity:1;stroke-width:5;stroke-linecap:round;stroke-linejoin:round;stroke:#231f20;stroke-opacity:1;stroke-miterlimit:10" d="m1436.265 1424.068-552.307 93.055 275.997-431.232Zm0 0" transform="matrix(.09995 0 0 -.09995 0 151.902)"/></g><g clip-path="url(#d)"><path style="stroke:none;fill-rule:nonzero;fill:#aebde6;fill-opacity:1" d="m115.938 43.367-54.793.832 118.421 54.207"/></g><path style="fill:none;stroke-width:5;stroke-linecap:round;stroke-linejoin:round;stroke:#231f20;stroke-opacity:1;stroke-miterlimit:10" d="m1159.955 1085.891-548.204-8.324" transform="matrix(.09995 0 0 -.09995 0 151.902)"/><g clip-path="url(#e)"><path style="fill-rule:nonzero;fill:#aebde6;fill-opacity:1;stroke-width:5;stroke-linecap:round;stroke-linejoin:round;stroke:#231f20;stroke-opacity:1;stroke-miterlimit:10" d="m1796.562 535.225-177.08 351.895-459.527 198.771" transform="matrix(.09995 0 0 -.09995 0 151.902)"/></g><path style="fill-rule:nonzero;fill:#d89191;fill-opacity:1;stroke-width:5;stroke-linecap:round;stroke-linejoin:round;stroke:#231f20;stroke-opacity:1;stroke-miterlimit:10" d="m339.31 1408.63-172-544.568 444.441 213.505Zm0 0" transform="matrix(.09995 0 0 -.09995 0 151.902)"/><g clip-path="url(#f)"><path style="fill-rule:nonzero;fill:#c36f82;fill-opacity:1;stroke-width:5;stroke-linecap:round;stroke-linejoin:round;stroke:#231f20;stroke-opacity:1;stroke-miterlimit:10" d="M883.958 1517.123 339.31 1408.63l272.441-331.064Zm0 0" transform="matrix(.09995 0 0 -.09995 0 151.902)"/></g><g clip-path="url(#g)"><path style="stroke:none;fill-rule:nonzero;fill:#aebde6;fill-opacity:1" d="M61.145 44.2 16.723 65.54l162.843 32.866"/></g><path style="fill:none;stroke-width:5;stroke-linecap:round;stroke-linejoin:round;stroke:#231f20;stroke-opacity:1;stroke-miterlimit:10" d="m611.751 1077.567-444.44-213.505" transform="matrix(.09995 0 0 -.09995 0 151.902)"/><g clip-path="url(#h)"><path style="stroke:none;fill-rule:nonzero;fill:#aebde6;fill-opacity:1" d="m16.723 65.54-14.75 35.905 177.593-3.039"/></g><path style="fill:none;stroke-width:5;stroke-linecap:round;stroke-linejoin:round;stroke:#231f20;stroke-opacity:1;stroke-miterlimit:10" d="M167.31 864.062 19.736 504.819" transform="matrix(.09995 0 0 -.09995 0 151.902)"/><g clip-path="url(#i)"><path style="stroke:none;fill-rule:nonzero;fill:#aebde6;fill-opacity:1" d="m1.973 101.445 28.41 35.653 149.183-38.692"/></g><path style="fill:none;stroke-width:5;stroke-linecap:round;stroke-linejoin:round;stroke:#231f20;stroke-opacity:1;stroke-miterlimit:10" d="M19.736 504.82 303.98 148.117" transform="matrix(.09995 0 0 -.09995 0 151.902)"/><g clip-path="url(#j)"><path style="stroke:none;fill-rule:nonzero;fill:#abc2e8;fill-opacity:1" d="m88.352.266 55.203 9.3-14.66 92.168"/></g><g clip-path="url(#k)"><path style="fill:none;stroke-width:5;stroke-linecap:round;stroke-linejoin:round;stroke:#231f20;stroke-opacity:1;stroke-miterlimit:10" d="m883.958 1517.123 552.307-93.055" transform="matrix(.09995 0 0 -.09995 0 151.902)"/></g><g clip-path="url(#l)"><path style="stroke:none;fill-rule:nonzero;fill:#abc2e8;fill-opacity:1" d="M33.914 11.11 88.352.265l40.543 101.468"/></g><g clip-path="url(#m)"><path style="fill:none;stroke-width:5;stroke-linecap:round;stroke-linejoin:round;stroke:#231f20;stroke-opacity:1;stroke-miterlimit:10" d="m339.31 1408.63 544.648 108.493" transform="matrix(.09995 0 0 -.09995 0 151.902)"/></g><g clip-path="url(#n)"><path style="fill-rule:nonzero;fill:#2b2e7e;fill-opacity:1;stroke-width:5;stroke-linecap:round;stroke-linejoin:round;stroke:#231f20;stroke-opacity:1;stroke-miterlimit:10" d="m1796.562 1150.69-177.08-263.57 177.08-351.895Zm0 0" transform="matrix(.09995 0 0 -.09995 0 151.902)"/></g><g clip-path="url(#o)"><path style="fill-rule:nonzero;fill:#462979;fill-opacity:1;stroke-width:5;stroke-linecap:round;stroke-linejoin:round;stroke:#231f20;stroke-opacity:1;stroke-miterlimit:10" d="m1796.562 1150.69-360.297 273.378 183.217-536.948Zm0 0" transform="matrix(.09995 0 0 -.09995 0 151.902)"/></g><path style="fill-rule:nonzero;fill:#fbcb6e;fill-opacity:1;stroke-width:5;stroke-linecap:round;stroke-linejoin:round;stroke:#231f20;stroke-opacity:1;stroke-miterlimit:10" d="m2.501 1123.723 17.235-618.904L167.31 864.062Zm0 0" transform="matrix(.09995 0 0 -.09995 0 151.902)"/><path style="fill-rule:nonzero;fill:#f29c64;fill-opacity:1;stroke-width:5;stroke-linecap:round;stroke-linejoin:round;stroke:#231f20;stroke-opacity:1;stroke-miterlimit:10" d="M339.31 1408.63 2.501 1123.724l164.81-259.661Zm0 0" transform="matrix(.09995 0 0 -.09995 0 151.902)"/><g clip-path="url(#p)"><path style="stroke:none;fill-rule:nonzero;fill:#abc2e8;fill-opacity:1" d="m143.555 9.566 36.011 27.325-50.671 64.843"/></g><g clip-path="url(#q)"><path style="fill:none;stroke-width:5;stroke-linecap:round;stroke-linejoin:round;stroke:#231f20;stroke-opacity:1;stroke-miterlimit:10" d="m1436.265 1424.068 360.297-273.379" transform="matrix(.09995 0 0 -.09995 0 151.902)"/></g><path style="stroke:none;fill-rule:nonzero;fill:#abc2e8;fill-opacity:1" d="m.25 39.586 33.664-28.477 94.98 90.625"/><path style="fill:none;stroke-width:5;stroke-linecap:round;stroke-linejoin:round;stroke:#231f20;stroke-opacity:1;stroke-miterlimit:10" d="m2.501 1123.723 336.81 284.908" transform="matrix(.09995 0 0 -.09995 0 151.902)"/><g clip-path="url(#r)"><path style="fill-rule:nonzero;fill:#aebde6;fill-opacity:1;stroke-width:5;stroke-linecap:round;stroke-linejoin:round;stroke:#231f20;stroke-opacity:1;stroke-miterlimit:10" d="m933.63 2.498 613.198 168.444 249.734 364.283" transform="matrix(.09995 0 0 -.09995 0 151.902)"/></g><g clip-path="url(#s)"><path style="stroke:none;fill-rule:nonzero;fill:#aebde6;fill-opacity:1" d="m30.383 137.098 62.933 14.554 86.25-53.246"/></g><g clip-path="url(#t)"><path style="fill:none;stroke-width:5;stroke-linecap:round;stroke-linejoin:round;stroke:#231f20;stroke-opacity:1;stroke-miterlimit:10" d="M303.98 148.118 933.63 2.498" transform="matrix(.09995 0 0 -.09995 0 151.902)"/></g><g clip-path="url(#u)"><path style="stroke:none;fill-rule:nonzero;fill:#ee891a;fill-opacity:1" d="m177.102 73.535 2.464 24.871-24.96 36.41Zm0 0"/></g><g clip-path="url(#v)"><path style="fill:none;stroke-width:5;stroke-linecap:round;stroke-linejoin:round;stroke:#231f20;stroke-opacity:1;stroke-miterlimit:10" d="m1771.902 784.06 24.66-248.835-249.734-364.283Zm0 0" transform="matrix(.09995 0 0 -.09995 0 151.902)"/></g><g clip-path="url(#w)"><path style="stroke:none;fill-rule:nonzero;fill:#c6a418;fill-opacity:1" d="m177.102 73.535 2.464-36.644v61.515Zm0 0"/></g><g clip-path="url(#x)"><path style="fill:none;stroke-width:5;stroke-linecap:round;stroke-linejoin:round;stroke:#231f20;stroke-opacity:1;stroke-miterlimit:10" d="m1771.902 784.06 24.66 366.63V535.224Zm0 0" transform="matrix(.09995 0 0 -.09995 0 151.902)"/></g><path style="fill-rule:nonzero;fill:#14182e;fill-opacity:1;stroke-width:5;stroke-linecap:round;stroke-linejoin:round;stroke:#231f20;stroke-opacity:1;stroke-miterlimit:10" d="M63.078 756.273 303.98 148.118 19.736 504.819Zm0 0" transform="matrix(.09995 0 0 -.09995 0 151.902)"/><path style="fill-rule:nonzero;fill:#151725;fill-opacity:1;stroke-width:5;stroke-linecap:round;stroke-linejoin:round;stroke:#231f20;stroke-opacity:1;stroke-miterlimit:10" d="m2.501 1123.723 60.577-367.45L19.736 504.82Zm0 0" transform="matrix(.09995 0 0 -.09995 0 151.902)"/><g clip-path="url(#y)"><path style="fill-rule:nonzero;fill:#abc2e8;fill-opacity:1;stroke-width:5;stroke-linecap:round;stroke-linejoin:round;stroke:#231f20;stroke-opacity:1;stroke-miterlimit:10" d="m1796.562 1150.69-24.66-366.63-482.312-282.133" transform="matrix(.09995 0 0 -.09995 0 151.902)"/></g><path style="stroke:none;fill-rule:nonzero;fill:#abc2e8;fill-opacity:1" d="M6.305 76.313.25 39.586l128.645 62.148"/><path style="fill:none;stroke-width:5;stroke-linecap:round;stroke-linejoin:round;stroke:#231f20;stroke-opacity:1;stroke-miterlimit:10" d="m63.078 756.273-60.577 367.45" transform="matrix(.09995 0 0 -.09995 0 151.902)"/><g clip-path="url(#z)"><path style="fill-rule:nonzero;fill:#c96368;fill-opacity:1;stroke-width:5;stroke-linecap:round;stroke-linejoin:round;stroke:#231f20;stroke-opacity:1;stroke-miterlimit:10" d="m1289.59 501.927 257.238-330.985L933.631 2.498Zm0 0" transform="matrix(.09995 0 0 -.09995 0 151.902)"/></g><path style="fill-rule:nonzero;fill:#e4927a;fill-opacity:1;stroke-width:5;stroke-linecap:round;stroke-linejoin:round;stroke:#231f20;stroke-opacity:1;stroke-miterlimit:10" d="m1289.59 501.927 482.312 282.134-225.074-613.12Zm0 0" transform="matrix(.09995 0 0 -.09995 0 151.902)"/><g clip-path="url(#A)"><path style="fill-rule:nonzero;fill:#89356f;fill-opacity:1;stroke-width:5;stroke-linecap:round;stroke-linejoin:round;stroke:#231f20;stroke-opacity:1;stroke-miterlimit:10" d="M576.03 489.656 933.63 2.498l-629.65 145.62Zm0 0" transform="matrix(.09995 0 0 -.09995 0 151.902)"/></g><path style="fill-rule:nonzero;fill:#693489;fill-opacity:1;stroke-width:5;stroke-linecap:round;stroke-linejoin:round;stroke:#231f20;stroke-opacity:1;stroke-miterlimit:10" d="M63.078 756.273 576.03 489.656 303.98 148.118Zm0 0" transform="matrix(.09995 0 0 -.09995 0 151.902)"/><path style="fill-rule:nonzero;fill:#abc2e8;fill-opacity:1;stroke-width:5;stroke-linecap:round;stroke-linejoin:round;stroke:#231f20;stroke-opacity:1;stroke-miterlimit:10" d="m1289.59 501.927-713.56-12.271L63.078 756.273" transform="matrix(.09995 0 0 -.09995 0 151.902)"/><g clip-path="url(#B)"><path style="stroke:none;fill-rule:nonzero;fill:#b1628c;fill-opacity:1" d="m57.574 102.96 71.32-1.226-35.578 49.918Zm0 0"/></g><g clip-path="url(#C)"><path style="fill:none;stroke-width:5;stroke-linecap:round;stroke-linejoin:round;stroke:#231f20;stroke-opacity:1;stroke-miterlimit:10" d="m576.03 489.656 713.56 12.271L933.63 2.498Zm0 0" transform="matrix(.09995 0 0 -.09995 0 151.902)"/></g></svg>