<svg xmlns="http://www.w3.org/2000/svg" width="96.19pt" height="266.413" viewBox="0 0 96.19 199.81" version="1.2"><path style="stroke:none;fill-rule:nonzero;fill:#915685;fill-opacity:1" d="m49.582 5.34 24.383 84.222-24.313-1.78"/><path style="fill:none;stroke-width:5;stroke-linecap:round;stroke-linejoin:round;stroke:#000;stroke-opacity:1;stroke-miterlimit:10" d="m499.996 1951.715 245.88-849.32-245.171 17.963Zm0 0" transform="matrix(.09916 0 0 -.09916 0 198.882)"/><path style="stroke:none;fill-rule:nonzero;fill:#9988bf;fill-opacity:1" d="m49.582 177.121 24.383-87.559-24.313-1.78"/><path style="fill:none;stroke-width:5;stroke-linecap:round;stroke-linejoin:round;stroke:#000;stroke-opacity:1;stroke-miterlimit:10" d="m499.996 219.437 245.88 882.959-245.171 17.962Zm0 0" transform="matrix(.09916 0 0 -.09916 0 198.882)"/><path style="stroke:none;fill-rule:nonzero;fill:#c98486;fill-opacity:1" d="m49.582 5.34.07 82.441-24.347 1.766"/><path style="fill:none;stroke-width:5;stroke-linecap:round;stroke-linejoin:round;stroke:#000;stroke-opacity:1;stroke-miterlimit:10" d="m499.996 1951.715.709-831.357-245.527-17.805Zm0 0" transform="matrix(.09916 0 0 -.09916 0 198.882)"/><path style="stroke:none;fill-rule:nonzero;fill:#cbb0bf;fill-opacity:1" d="m49.582 177.121.07-89.34-24.347 1.766"/><path style="fill:none;stroke-width:5;stroke-linecap:round;stroke-linejoin:round;stroke:#000;stroke-opacity:1;stroke-miterlimit:10" d="m499.996 219.437.709 900.921-245.527-17.805Zm0 0" transform="matrix(.09916 0 0 -.09916 0 198.882)"/><path style="stroke:none;fill-rule:nonzero;fill:#f29745;fill-opacity:1" d="M49.582 5.34 25.305 89.547l-11.903 4.586"/><path style="fill:none;stroke-width:5;stroke-linecap:round;stroke-linejoin:round;stroke:#000;stroke-opacity:1;stroke-miterlimit:10" d="m499.996 1951.715-244.818-849.162-120.026-46.245Zm0 0" transform="matrix(.09916 0 0 -.09916 0 198.882)"/><path style="stroke:none;fill-rule:nonzero;fill:#f6e4b4;fill-opacity:1" d="M49.582 177.121 25.305 89.547l-11.903 4.586"/><path style="fill:none;stroke-width:5;stroke-linecap:round;stroke-linejoin:round;stroke:#000;stroke-opacity:1;stroke-miterlimit:10" d="m499.996 219.437-244.818 883.116-120.026-46.245Zm0 0" transform="matrix(.09916 0 0 -.09916 0 198.882)"/><path style="stroke:none;fill-rule:nonzero;fill:#1c1458;fill-opacity:1" d="m49.582 5.34 36.191 88.824-11.808-4.602"/><path style="fill:none;stroke-width:5;stroke-linecap:round;stroke-linejoin:round;stroke:#000;stroke-opacity:1;stroke-miterlimit:10" d="m499.996 1951.715 364.961-895.722-119.08 46.403Zm0 0" transform="matrix(.09916 0 0 -.09916 0 198.882)"/><path style="stroke:none;fill-rule:nonzero;fill:#2f41b3;fill-opacity:1" d="m49.582 177.121 36.191-82.957-11.808-4.602"/><path style="fill:none;stroke-width:5;stroke-linecap:round;stroke-linejoin:round;stroke:#000;stroke-opacity:1;stroke-miterlimit:10" d="m499.996 219.437 364.961 836.556-119.08 46.403Zm0 0" transform="matrix(.09916 0 0 -.09916 0 198.882)"/><path style="stroke:none;fill-rule:nonzero;fill:#e8871b;fill-opacity:1" d="m49.582 177.121 36.191-82.957-9.261 5.09"/><path style="fill:none;stroke-width:5;stroke-linecap:round;stroke-linejoin:round;stroke:#000;stroke-opacity:1;stroke-miterlimit:10" d="m499.996 219.437 364.961 836.556-93.397-51.327Zm0 0" transform="matrix(.09916 0 0 -.09916 0 198.882)"/><path style="stroke:none;fill-rule:nonzero;fill:#cb807d;fill-opacity:1" d="m49.582 177.121-.082-75.598 27.012-2.27"/><path style="fill:none;stroke-width:5;stroke-linecap:round;stroke-linejoin:round;stroke:#000;stroke-opacity:1;stroke-miterlimit:10" d="m499.996 219.437-.828 762.342 272.392 22.887Zm0 0" transform="matrix(.09916 0 0 -.09916 0 198.882)"/><path style="stroke:none;fill-rule:nonzero;fill:#8b4b7d;fill-opacity:1" d="M49.582 177.121 22.543 99.234l26.957 2.29"/><path style="fill:none;stroke-width:5;stroke-linecap:round;stroke-linejoin:round;stroke:#000;stroke-opacity:1;stroke-miterlimit:10" d="m499.996 219.437-272.668 785.426 271.84-23.084Zm0 0" transform="matrix(.09916 0 0 -.09916 0 198.882)"/><path style="stroke:none;fill-rule:nonzero;fill:#2e2e48;fill-opacity:1" d="m49.582 177.121-36.18-82.988 9.141 5.101"/><path style="fill:none;stroke-width:5;stroke-linecap:round;stroke-linejoin:round;stroke:#000;stroke-opacity:1;stroke-miterlimit:10" d="m499.996 219.437-364.844 836.87 92.176-51.444Zm0 0" transform="matrix(.09916 0 0 -.09916 0 198.882)"/><path style="stroke:none;fill-rule:nonzero;fill:#0a28a8;fill-opacity:1" d="m49.582 5.34-36.18 88.793 9.141 5.101"/><path style="fill:none;stroke-width:5;stroke-linecap:round;stroke-linejoin:round;stroke:#000;stroke-opacity:1;stroke-miterlimit:10" d="m499.996 1951.715-364.844-895.407 92.176-51.445Zm0 0" transform="matrix(.09916 0 0 -.09916 0 198.882)"/><path style="stroke:none;fill-rule:nonzero;fill:#f9eba9;fill-opacity:1" d="m49.582 5.34 36.191 88.824-9.261 5.09"/><path style="fill:none;stroke-width:5;stroke-linecap:round;stroke-linejoin:round;stroke:#000;stroke-opacity:1;stroke-miterlimit:10" d="m499.996 1951.715 364.961-895.722-93.397-51.327Zm0 0" transform="matrix(.09916 0 0 -.09916 0 198.882)"/><path style="stroke:none;fill-rule:nonzero;fill:#ceb4c0;fill-opacity:1" d="m49.582 5.34-.082 96.183 27.012-2.27"/><path style="fill:none;stroke-width:5;stroke-linecap:round;stroke-linejoin:round;stroke:#000;stroke-opacity:1;stroke-miterlimit:10" d="m499.996 1951.715-.828-969.936 272.392 22.887Zm0 0" transform="matrix(.09916 0 0 -.09916 0 198.882)"/><path style="stroke:none;fill-rule:nonzero;fill:#9586c0;fill-opacity:1" d="M49.582 5.34 22.543 99.234l26.957 2.29"/><path style="fill:none;stroke-width:5;stroke-linecap:round;stroke-linejoin:round;stroke:#000;stroke-opacity:1;stroke-miterlimit:10" d="m499.996 1951.715-272.668-946.852 271.84-23.084Zm0 0" transform="matrix(.09916 0 0 -.09916 0 198.882)"/></svg>