<svg xmlns="http://www.w3.org/2000/svg" width="214pt" height="266.587" viewBox="0 0 214 199.94" version="1.2"><path style="fill-rule:nonzero;fill:#f0af86;fill-opacity:1;stroke-width:5;stroke-linecap:round;stroke-linejoin:round;stroke:#000;stroke-opacity:1;stroke-miterlimit:10" d="m245.182 1451.775 508.551 402.699 32.979-693.138M786.712 1161.336 332.318 716.242l-87.136 735.533" transform="matrix(.09997 0 0 -.09997 .032 199.88)"/><path style="fill-rule:nonzero;fill:#a66d90;fill-opacity:1;stroke-width:5;stroke-linecap:round;stroke-linejoin:round;stroke:#000;stroke-opacity:1;stroke-miterlimit:10" d="m1560.538 1077.483-773.826 83.853-32.979 693.138" transform="matrix(.09997 0 0 -.09997 .032 199.88)"/><path style="stroke:none;fill-rule:nonzero;fill:#aabce6;fill-opacity:1" d="m78.68 83.781-45.426 44.496 140.707 17.278"/><path style="fill:none;stroke-width:5;stroke-linecap:round;stroke-linejoin:round;stroke:#000;stroke-opacity:1;stroke-miterlimit:10" d="M786.712 1161.336 332.318 716.242" transform="matrix(.09997 0 0 -.09997 .032 199.88)"/><path style="fill-rule:nonzero;fill:#aabce6;fill-opacity:1;stroke-width:5;stroke-linecap:round;stroke-linejoin:round;stroke:#000;stroke-opacity:1;stroke-miterlimit:10" d="m1739.81 543.416-179.272 534.067-773.826 83.853" transform="matrix(.09997 0 0 -.09997 .032 199.88)"/><path style="fill-rule:nonzero;fill:#a66d90;fill-opacity:1;stroke-width:5;stroke-linecap:round;stroke-linejoin:round;stroke:#000;stroke-opacity:1;stroke-miterlimit:10" d="m753.733 1854.474 849.747-75.18-42.942-701.811" transform="matrix(.09997 0 0 -.09997 .032 199.88)"/><path style="fill-rule:nonzero;fill:#151573;fill-opacity:1;stroke-width:5;stroke-linecap:round;stroke-linejoin:round;stroke:#000;stroke-opacity:1;stroke-miterlimit:10" d="m1739.81 543.416-179.272 534.067 42.942 701.812M1603.48 1779.295l206.508-486.474-70.178-749.405" transform="matrix(.09997 0 0 -.09997 .032 199.88)"/><path style="stroke:none;fill-rule:nonzero;fill:#a3c4f0;fill-opacity:1" d="m75.383 14.488-50.84 40.258 156.434 15.89"/><path style="fill:none;stroke-width:5;stroke-linecap:round;stroke-linejoin:round;stroke:#000;stroke-opacity:1;stroke-miterlimit:10" d="m753.733 1854.474-508.55-402.7" transform="matrix(.09997 0 0 -.09997 .032 199.88)"/><path style="fill-rule:nonzero;fill:#a3c4f0;fill-opacity:1;stroke-width:5;stroke-linecap:round;stroke-linejoin:round;stroke:#000;stroke-opacity:1;stroke-miterlimit:10" d="m1809.988 1292.82-206.508 486.475-849.747 75.179" transform="matrix(.09997 0 0 -.09997 .032 199.88)"/><path style="fill-rule:nonzero;fill:#4f1d71;fill-opacity:1;stroke-width:5;stroke-linecap:round;stroke-linejoin:round;stroke:#000;stroke-opacity:1;stroke-miterlimit:10" d="m883.382 1030.633-638.2 421.142 87.136-735.533" transform="matrix(.09997 0 0 -.09997 .032 199.88)"/><path style="fill-rule:nonzero;fill:#aabce6;fill-opacity:1;stroke-width:5;stroke-linecap:round;stroke-linejoin:round;stroke:#000;stroke-opacity:1;stroke-miterlimit:10" d="m332.318 716.242 577.79-454.629 829.702 281.803" transform="matrix(.09997 0 0 -.09997 .032 199.88)"/><path style="fill-rule:nonzero;fill:#4f1d71;fill-opacity:1;stroke-width:5;stroke-linecap:round;stroke-linejoin:round;stroke:#000;stroke-opacity:1;stroke-miterlimit:10" d="m332.318 716.242 577.79-454.629-26.726 769.02" transform="matrix(.09997 0 0 -.09997 .032 199.88)"/><path style="fill-rule:nonzero;fill:#cf8580;fill-opacity:1;stroke-width:5;stroke-linecap:round;stroke-linejoin:round;stroke:#000;stroke-opacity:1;stroke-miterlimit:10" d="m910.108 261.613 829.702 281.803 70.178 749.405" transform="matrix(.09997 0 0 -.09997 .032 199.88)"/><path style="fill-rule:nonzero;fill:#cf8580;fill-opacity:1;stroke-width:5;stroke-linecap:round;stroke-linejoin:round;stroke:#000;stroke-opacity:1;stroke-miterlimit:10" d="m1809.988 1292.82-926.606-262.187 26.726-769.02" transform="matrix(.09997 0 0 -.09997 .032 199.88)"/><path style="fill-rule:nonzero;fill:#a3c4f0;fill-opacity:1;stroke-width:5;stroke-linecap:round;stroke-linejoin:round;stroke:#000;stroke-opacity:1;stroke-miterlimit:10" d="m245.182 1451.775 638.2-421.142 926.606 262.188" transform="matrix(.09997 0 0 -.09997 .032 199.88)"/></svg>