<?xml version="1.0" encoding="UTF-8"?>
<svg xmlns="http://www.w3.org/2000/svg" xmlns:xlink="http://www.w3.org/1999/xlink" width="214pt" height="199.94pt" viewBox="0 0 214 199.94" version="1.2">
<g id="surface1">
<path style="fill-rule:nonzero;fill:rgb(93.943787%,68.554688%,52.539062%);fill-opacity:1;stroke-width:5;stroke-linecap:round;stroke-linejoin:round;stroke:rgb(0%,0%,0%);stroke-opacity:1;stroke-miterlimit:10;" d="M 245.182242 1451.774775 L 753.733245 1854.47371 L 786.711889 1161.336081 " transform="matrix(0.09997,0,0,-0.09997,0.0321,199.880018)"/>
<path style="fill-rule:nonzero;fill:rgb(93.943787%,68.554688%,52.539062%);fill-opacity:1;stroke-width:5;stroke-linecap:round;stroke-linejoin:round;stroke:rgb(0%,0%,0%);stroke-opacity:1;stroke-miterlimit:10;" d="M 786.711889 1161.336081 L 332.317758 716.241615 L 245.182242 1451.774775 " transform="matrix(0.09997,0,0,-0.09997,0.0321,199.880018)"/>
<path style="fill-rule:nonzero;fill:rgb(65.234375%,42.700195%,56.443787%);fill-opacity:1;stroke-width:5;stroke-linecap:round;stroke-linejoin:round;stroke:rgb(0%,0%,0%);stroke-opacity:1;stroke-miterlimit:10;" d="M 1560.537786 1077.4828 L 786.711889 1161.336081 L 753.733245 1854.47371 " transform="matrix(0.09997,0,0,-0.09997,0.0321,199.880018)"/>
<path style=" stroke:none;fill-rule:nonzero;fill:rgb(66.796875%,73.631287%,90.234375%);fill-opacity:1;" d="M 78.679688 83.78125 L 33.253906 128.277344 L 173.960938 145.554688 "/>
<path style="fill:none;stroke-width:5;stroke-linecap:round;stroke-linejoin:round;stroke:rgb(0%,0%,0%);stroke-opacity:1;stroke-miterlimit:10;" d="M 786.711889 1161.336081 L 332.317758 716.241615 " transform="matrix(0.09997,0,0,-0.09997,0.0321,199.880018)"/>
<path style="fill-rule:nonzero;fill:rgb(66.796875%,73.631287%,90.234375%);fill-opacity:1;stroke-width:5;stroke-linecap:round;stroke-linejoin:round;stroke:rgb(0%,0%,0%);stroke-opacity:1;stroke-miterlimit:10;" d="M 1739.810318 543.41633 L 1560.537786 1077.4828 L 786.711889 1161.336081 " transform="matrix(0.09997,0,0,-0.09997,0.0321,199.880018)"/>
<path style="fill-rule:nonzero;fill:rgb(65.234375%,42.700195%,56.443787%);fill-opacity:1;stroke-width:5;stroke-linecap:round;stroke-linejoin:round;stroke:rgb(0%,0%,0%);stroke-opacity:1;stroke-miterlimit:10;" d="M 753.733245 1854.47371 L 1603.480357 1779.294906 L 1560.537786 1077.4828 " transform="matrix(0.09997,0,0,-0.09997,0.0321,199.880018)"/>
<path style="fill-rule:nonzero;fill:rgb(8.105469%,8.105469%,45.288086%);fill-opacity:1;stroke-width:5;stroke-linecap:round;stroke-linejoin:round;stroke:rgb(0%,0%,0%);stroke-opacity:1;stroke-miterlimit:10;" d="M 1739.810318 543.41633 L 1560.537786 1077.4828 L 1603.480357 1779.294906 " transform="matrix(0.09997,0,0,-0.09997,0.0321,199.880018)"/>
<path style="fill-rule:nonzero;fill:rgb(8.105469%,8.105469%,45.288086%);fill-opacity:1;stroke-width:5;stroke-linecap:round;stroke-linejoin:round;stroke:rgb(0%,0%,0%);stroke-opacity:1;stroke-miterlimit:10;" d="M 1603.480357 1779.294906 L 1809.987621 1292.820839 L 1739.810318 543.41633 " transform="matrix(0.09997,0,0,-0.09997,0.0321,199.880018)"/>
<path style=" stroke:none;fill-rule:nonzero;fill:rgb(63.867188%,76.951599%,94.139099%);fill-opacity:1;" d="M 75.382812 14.488281 L 24.542969 54.746094 L 180.976562 70.636719 "/>
<path style="fill:none;stroke-width:5;stroke-linecap:round;stroke-linejoin:round;stroke:rgb(0%,0%,0%);stroke-opacity:1;stroke-miterlimit:10;" d="M 753.733245 1854.47371 L 245.182242 1451.774775 " transform="matrix(0.09997,0,0,-0.09997,0.0321,199.880018)"/>
<path style="fill-rule:nonzero;fill:rgb(63.867188%,76.951599%,94.139099%);fill-opacity:1;stroke-width:5;stroke-linecap:round;stroke-linejoin:round;stroke:rgb(0%,0%,0%);stroke-opacity:1;stroke-miterlimit:10;" d="M 1809.987621 1292.820839 L 1603.480357 1779.294906 L 753.733245 1854.47371 " transform="matrix(0.09997,0,0,-0.09997,0.0321,199.880018)"/>
<path style="fill-rule:nonzero;fill:rgb(31.005859%,11.302185%,44.309998%);fill-opacity:1;stroke-width:5;stroke-linecap:round;stroke-linejoin:round;stroke:rgb(0%,0%,0%);stroke-opacity:1;stroke-miterlimit:10;" d="M 883.381514 1030.632807 L 245.182242 1451.774775 L 332.317758 716.241615 " transform="matrix(0.09997,0,0,-0.09997,0.0321,199.880018)"/>
<path style="fill-rule:nonzero;fill:rgb(66.796875%,73.631287%,90.234375%);fill-opacity:1;stroke-width:5;stroke-linecap:round;stroke-linejoin:round;stroke:rgb(0%,0%,0%);stroke-opacity:1;stroke-miterlimit:10;" d="M 332.317758 716.241615 L 910.108282 261.613039 L 1739.810318 543.41633 " transform="matrix(0.09997,0,0,-0.09997,0.0321,199.880018)"/>
<path style="fill-rule:nonzero;fill:rgb(31.005859%,11.302185%,44.309998%);fill-opacity:1;stroke-width:5;stroke-linecap:round;stroke-linejoin:round;stroke:rgb(0%,0%,0%);stroke-opacity:1;stroke-miterlimit:10;" d="M 332.317758 716.241615 L 910.108282 261.613039 L 883.381514 1030.632807 " transform="matrix(0.09997,0,0,-0.09997,0.0321,199.880018)"/>
<path style="fill-rule:nonzero;fill:rgb(81.054688%,52.146912%,50.193787%);fill-opacity:1;stroke-width:5;stroke-linecap:round;stroke-linejoin:round;stroke:rgb(0%,0%,0%);stroke-opacity:1;stroke-miterlimit:10;" d="M 910.108282 261.613039 L 1739.810318 543.41633 L 1809.987621 1292.820839 " transform="matrix(0.09997,0,0,-0.09997,0.0321,199.880018)"/>
<path style="fill-rule:nonzero;fill:rgb(81.054688%,52.146912%,50.193787%);fill-opacity:1;stroke-width:5;stroke-linecap:round;stroke-linejoin:round;stroke:rgb(0%,0%,0%);stroke-opacity:1;stroke-miterlimit:10;" d="M 1809.987621 1292.820839 L 883.381514 1030.632807 L 910.108282 261.613039 " transform="matrix(0.09997,0,0,-0.09997,0.0321,199.880018)"/>
<path style="fill-rule:nonzero;fill:rgb(63.867188%,76.951599%,94.139099%);fill-opacity:1;stroke-width:5;stroke-linecap:round;stroke-linejoin:round;stroke:rgb(0%,0%,0%);stroke-opacity:1;stroke-miterlimit:10;" d="M 245.182242 1451.774775 L 883.381514 1030.632807 L 1809.987621 1292.820839 " transform="matrix(0.09997,0,0,-0.09997,0.0321,199.880018)"/>
</g>
</svg>
