<svg xmlns="http://www.w3.org/2000/svg" width="188.987" height="202.733" viewBox="0 0 141.74 152.05" version="1.2"><defs><clipPath id="a"><path d="M.313 14H52v103H.312Zm0 0"/></clipPath><clipPath id="b"><path d="M.313 64H135v53H.312Zm0 0"/></clipPath><clipPath id="c"><path d="M.313 63H135v54H.312Zm0 0"/></clipPath><clipPath id="d"><path d="M102 0h39.172v91H102Zm0 0"/></clipPath><clipPath id="e"><path d="M.313 90H135v61H.312Zm0 0"/></clipPath><clipPath id="f"><path d="M.313 90H135v61.105H.312Zm0 0"/></clipPath><clipPath id="g"><path d="M91 53h50.172v98.105H91Zm0 0"/></clipPath><clipPath id="h"><path d="M28 0h113.172v74H28Zm0 0"/></clipPath><clipPath id="i"><path d="M.313 73H92v78H.312Zm0 0"/></clipPath><clipPath id="j"><path d="M.313 72H92v79.105H.312Zm0 0"/></clipPath><clipPath id="k"><path d="M.313 14H29v103H.312Zm0 0"/></clipPath><clipPath id="l"><path d="M28 53h113.172v98.105H28Zm0 0"/></clipPath></defs><g clip-path="url(#a)"><path style="fill-rule:nonzero;fill:#e9b196;fill-opacity:1;stroke-width:5;stroke-linecap:round;stroke-linejoin:round;stroke:#231f20;stroke-opacity:1;stroke-miterlimit:10" d="M51.783 1375.695 2.493 351.365 513.91 874.38Zm0 0" transform="matrix(.09938 0 0 -.09938 .31 151.106)"/></g><path style="fill-rule:nonzero;fill:#945ea4;fill-opacity:1;stroke-width:5;stroke-linecap:round;stroke-linejoin:round;stroke:#231f20;stroke-opacity:1;stroke-miterlimit:10" d="M1027.608 1517.984 513.911 874.38l831.373-266.38Zm0 0" transform="matrix(.09938 0 0 -.09938 .31 151.106)"/><path style="fill-rule:nonzero;fill:#be5e74;fill-opacity:1;stroke-width:5;stroke-linecap:round;stroke-linejoin:round;stroke:#231f20;stroke-opacity:1;stroke-miterlimit:10" d="m1027.608 1517.984-975.825-142.29L513.911 874.38Zm0 0" transform="matrix(.09938 0 0 -.09938 .31 151.106)"/><g clip-path="url(#b)"><path style="stroke:none;fill-rule:nonzero;fill:#afbbe4;fill-opacity:1" d="M134.004 90.684 51.383 64.21.559 116.188"/></g><g clip-path="url(#c)"><path style="fill:none;stroke-width:5;stroke-linecap:round;stroke-linejoin:round;stroke:#231f20;stroke-opacity:1;stroke-miterlimit:10" d="M1345.284 607.998 513.91 874.378 2.493 351.367" transform="matrix(.09938 0 0 -.09938 .31 151.106)"/></g><path style="stroke:none;fill-rule:nonzero;fill:#161726;fill-opacity:1" d="M140.922 53.559 102.434.25l31.57 90.434Zm0 0"/><g clip-path="url(#d)"><path style="fill:none;stroke-width:5;stroke-linecap:round;stroke-linejoin:round;stroke:#231f20;stroke-opacity:1;stroke-miterlimit:10" d="m1414.896 981.568-387.288 536.416 317.676-909.986Zm0 0" transform="matrix(.09938 0 0 -.09938 .31 151.106)"/></g><g clip-path="url(#e)"><path style="stroke:none;fill-rule:nonzero;fill:#afbbe4;fill-opacity:1" d="m.559 116.188 90.89 34.671 42.555-60.175"/></g><g clip-path="url(#f)"><path style="fill:none;stroke-width:5;stroke-linecap:round;stroke-linejoin:round;stroke:#231f20;stroke-opacity:1;stroke-miterlimit:10" d="M2.493 351.366 917.078 2.48l428.206 605.517" transform="matrix(.09938 0 0 -.09938 .31 151.106)"/></g><path style="stroke:none;fill-rule:nonzero;fill:#d55f1d;fill-opacity:1" d="m140.922 53.559-6.918 37.125-42.555 60.175Zm0 0"/><g clip-path="url(#g)"><path style="fill:none;stroke-width:5;stroke-linecap:round;stroke-linejoin:round;stroke:#231f20;stroke-opacity:1;stroke-miterlimit:10" d="m1414.896 981.568-69.612-373.57L917.078 2.481Zm0 0" transform="matrix(.09938 0 0 -.09938 .31 151.106)"/></g><path style="stroke:none;fill-rule:nonzero;fill:#aac4ea;fill-opacity:1" d="m102.434.25 38.488 53.309L28.48 73.125"/><g clip-path="url(#h)"><path style="fill:none;stroke-width:5;stroke-linecap:round;stroke-linejoin:round;stroke:#231f20;stroke-opacity:1;stroke-miterlimit:10" d="m1027.608 1517.984 387.288-536.416L283.456 784.68" transform="matrix(.09938 0 0 -.09938 .31 151.106)"/></g><path style="fill-rule:nonzero;fill:#aac4ea;fill-opacity:1;stroke-width:5;stroke-linecap:round;stroke-linejoin:round;stroke:#231f20;stroke-opacity:1;stroke-miterlimit:10" d="M283.456 784.681 51.783 1375.695l975.825 142.29" transform="matrix(.09938 0 0 -.09938 .31 151.106)"/><g clip-path="url(#i)"><path style="stroke:none;fill-rule:nonzero;fill:#64174d;fill-opacity:1" d="m28.48 73.125 62.97 77.734L.558 116.187Zm0 0"/></g><g clip-path="url(#j)"><path style="fill:none;stroke-width:5;stroke-linecap:round;stroke-linejoin:round;stroke:#231f20;stroke-opacity:1;stroke-miterlimit:10" d="m283.456 784.681 633.622-782.2L2.493 351.366Zm0 0" transform="matrix(.09938 0 0 -.09938 .31 151.106)"/></g><g clip-path="url(#k)"><path style="fill-rule:nonzero;fill:#262b6e;fill-opacity:1;stroke-width:5;stroke-linecap:round;stroke-linejoin:round;stroke:#231f20;stroke-opacity:1;stroke-miterlimit:10" d="M51.783 1375.695 283.456 784.68 2.493 351.366Zm0 0" transform="matrix(.09938 0 0 -.09938 .31 151.106)"/></g><path style="stroke:none;fill-rule:nonzero;fill:#c27e97;fill-opacity:1" d="m28.48 73.125 112.442-19.566-49.473 97.3Zm0 0"/><g clip-path="url(#l)"><path style="fill:none;stroke-width:5;stroke-linecap:round;stroke-linejoin:round;stroke:#231f20;stroke-opacity:1;stroke-miterlimit:10" d="m283.456 784.681 1131.44 196.887L917.078 2.48Zm0 0" transform="matrix(.09938 0 0 -.09938 .31 151.106)"/></g></svg>