<svg xmlns="http://www.w3.org/2000/svg" viewBox="0 0 500 80" width="500" height="80">
  <style type="text/css">
    .st0{fill:#FFFFFF;}
  </style>
  <g>
    <g>
      <path class="st0" d="M30.7,18.5l-7-15.1L6.9,15.7c-0.3,0.2-0.5,0.6-0.6,0.9L0,40.1h16.9L30.7,18.5z"/>
      <polygon class="st0" points="33.4,20.5 19.8,41.6 36.4,62.8 60.6,52.2 59.1,26.6 		"/>
      <path class="st0" d="M60.1,23.4l10.2-10.2L50,0.7c-0.3-0.2-0.6-0.3-1-0.2L26.8,2.1l7,15.1L60.1,23.4z"/>
      <path class="st0" d="M17,43.4H0.1l7.8,22c0.1,0.3,0.4,0.7,0.7,0.8l20.4,12.5l5-13.7L17,43.4z"/>
      <path class="st0" d="M37.2,66.1l-4.9,13.4l23.6-3.2c0.3-0.1,0.6-0.2,0.8-0.3L74,63.5l-11.9-8.3L37.2,66.1z"/>
      <path class="st0" d="M78.8,34.6l-6.3-18.8L62.3,25.9l1.5,26.5l11.7,8.2l3.2-25.3C78.9,35.1,78.8,34.8,78.8,34.6z"/>
    </g>
    <g>
      <path class="st0" d="M93,55.4V19.6h13.9v3.7H98v11.8h7.2v3.5H98v13.1h9v3.6H93z"/>
      <path class="st0" d="M110.6,55.4V29.8h4.7v2.5c0.9-0.8,1.8-1.5,2.8-2c1-0.6,2.2-0.8,3.4-0.8c1,0,1.8,0.3,2.4,0.8			c0.5,0.5,0.9,1.2,1.1,2s0.3,1.6,0.3,2.4v20.7h-4.7V36.1c0-0.9-0.1-1.6-0.4-2.1c-0.3-0.5-0.8-0.8-1.6-0.8c-0.5,0-1.1,0.2-1.7,0.5			c-0.6,0.3-1.1,0.7-1.7,1.1v20.6H110.6z"/>
      <path class="st0" d="M137,55.7c-2.1,0-3.7-0.4-4.8-1.3c-1.1-0.8-1.8-2-2.2-3.6c-0.4-1.5-0.6-3.3-0.6-5.3v-5.9c0-2.2,0.2-4,0.6-5.5			c0.4-1.5,1.1-2.7,2.2-3.5c1.1-0.8,2.6-1.2,4.7-1.2c1.9,0,3.3,0.3,4.3,0.9c1,0.6,1.7,1.5,2.1,2.7c0.4,1.2,0.6,2.7,0.6,4.4V39h-4.3			v-1.5c0-1.1-0.1-2-0.2-2.7c-0.1-0.6-0.4-1.1-0.8-1.4c-0.4-0.3-0.9-0.4-1.6-0.4c-0.8,0-1.4,0.2-1.8,0.5c-0.4,0.4-0.7,1-0.8,1.8			s-0.2,2-0.2,3.4v8c0,2.2,0.2,3.6,0.6,4.4c0.4,0.7,1.1,1.1,2.2,1.1c0.8,0,1.4-0.2,1.7-0.6c0.4-0.4,0.6-0.9,0.7-1.6			c0.1-0.7,0.2-1.4,0.2-2.3v-2.1h4.3v1.8c0,1.7-0.2,3.2-0.6,4.4c-0.4,1.2-1.1,2.2-2.1,2.8C140.3,55.4,138.9,55.7,137,55.7z"/>
      <path class="st0" d="M147.8,61.8v-3.6c1.1,0,2.1-0.1,2.7-0.2c0.7-0.1,1.2-0.3,1.5-0.6c0.3-0.3,0.4-0.7,0.4-1.2			c0-0.3-0.1-0.9-0.3-1.8c-0.2-0.9-0.4-1.9-0.7-2.9l-5.1-21.8h4.8l3.4,19.1l3.3-19.1h4.8l-6.1,27c-0.3,1.2-0.8,2.2-1.5,2.9			c-0.7,0.7-1.6,1.2-2.7,1.6c-1.1,0.3-2.4,0.5-4,0.5H147.8z"/>
      <path class="st0" d="M172.5,55.7c-2.1,0-3.7-0.4-4.8-1.3c-1.1-0.8-1.8-2-2.2-3.6c-0.4-1.5-0.6-3.3-0.6-5.3v-5.9			c0-2.2,0.2-4,0.6-5.5c0.4-1.5,1.1-2.7,2.2-3.5c1.1-0.8,2.6-1.2,4.7-1.2c1.9,0,3.3,0.3,4.3,0.9c1,0.6,1.7,1.5,2.1,2.7			c0.4,1.2,0.6,2.7,0.6,4.4V39h-4.3v-1.5c0-1.1-0.1-2-0.2-2.7c-0.1-0.6-0.4-1.1-0.8-1.4c-0.4-0.3-0.9-0.4-1.6-0.4			c-0.8,0-1.4,0.2-1.8,0.5c-0.4,0.4-0.7,1-0.8,1.8c-0.1,0.8-0.2,2-0.2,3.4v8c0,2.2,0.2,3.6,0.6,4.4c0.4,0.7,1.1,1.1,2.2,1.1			c0.8,0,1.4-0.2,1.7-0.6c0.4-0.4,0.6-0.9,0.7-1.6c0.1-0.7,0.2-1.4,0.2-2.3v-2.1h4.3v1.8c0,1.7-0.2,3.2-0.6,4.4			c-0.4,1.2-1.1,2.2-2.1,2.8C175.8,55.4,174.4,55.7,172.5,55.7z"/>
      <path class="st0" d="M184.2,55.4V19.6h4.7v35.8H184.2z"/>
      <path class="st0" d="M200.9,55.7c-1.9,0-3.4-0.4-4.5-1.1c-1.1-0.8-1.9-1.9-2.3-3.3c-0.5-1.4-0.7-3.1-0.7-5v-7.4			c0-1.9,0.2-3.6,0.7-5c0.5-1.4,1.2-2.5,2.3-3.3c1.1-0.8,2.6-1.1,4.5-1.1c1.9,0,3.4,0.4,4.4,1.1c1.1,0.8,1.8,1.9,2.3,3.3			c0.5,1.4,0.7,3.1,0.7,5v7.4c0,1.9-0.2,3.6-0.7,5c-0.5,1.4-1.2,2.5-2.3,3.3C204.2,55.3,202.8,55.7,200.9,55.7z M200.9,52.2			c0.9,0,1.6-0.3,1.9-0.8c0.4-0.5,0.6-1.2,0.7-2.1c0.1-0.9,0.1-1.8,0.1-2.7v-8c0-1,0-1.9-0.1-2.7c-0.1-0.9-0.3-1.6-0.7-2.1			c-0.4-0.5-1-0.8-1.9-0.8c-0.9,0-1.6,0.3-1.9,0.8c-0.4,0.5-0.6,1.2-0.7,2.1c-0.1,0.9-0.1,1.8-0.1,2.7v8c0,0.9,0,1.9,0.1,2.7			c0.1,0.9,0.3,1.6,0.7,2.1S200,52.2,200.9,52.2z"/>
      <path class="st0" d="M212.6,63.8v-34h4.7v2c0.6-0.6,1.2-1.2,2-1.7c0.8-0.5,1.7-0.7,2.8-0.7c1.3,0,2.4,0.3,3.2,1			c0.8,0.7,1.4,1.6,1.7,2.6c0.4,1,0.6,2.1,0.8,3.2c0.1,1.1,0.2,2,0.2,2.8v6.2c0,1.8-0.2,3.5-0.5,5.1c-0.4,1.6-1,2.9-1.9,3.9			c-0.9,1-2.2,1.5-3.9,1.5c-0.9,0-1.7-0.2-2.4-0.7c-0.7-0.5-1.3-1-1.9-1.6v10.3H212.6z M220.8,52c0.8,0,1.4-0.3,1.8-0.9			c0.4-0.6,0.6-1.4,0.7-2.5c0.1-1,0.1-2.2,0.1-3.4v-6.2c0-1.1-0.1-2-0.2-2.9c-0.1-0.9-0.4-1.6-0.8-2.1c-0.4-0.5-1-0.8-1.8-0.8			c-0.6,0-1.2,0.1-1.8,0.4c-0.6,0.3-1,0.6-1.5,0.9v16.4c0.4,0.3,0.9,0.6,1.5,0.8C219.4,51.9,220.1,52,220.8,52z"/>
      <path class="st0" d="M239.4,55.7c-2,0-3.6-0.4-4.6-1.2c-1.1-0.8-1.9-1.9-2.3-3.4c-0.4-1.5-0.6-3.4-0.6-5.6v-5.8			c0-2.3,0.2-4.2,0.7-5.7c0.4-1.5,1.2-2.6,2.3-3.4c1.1-0.8,2.6-1.1,4.6-1.1c2.2,0,3.7,0.4,4.8,1.3c1,0.9,1.7,2.2,2,3.8			c0.3,1.7,0.5,3.7,0.5,6v2.1h-10.1v5.1c0,1,0.1,1.9,0.3,2.5c0.2,0.6,0.5,1.1,0.9,1.4c0.4,0.3,1,0.5,1.7,0.5c0.7,0,1.2-0.2,1.6-0.5			c0.4-0.3,0.6-0.8,0.8-1.5c0.1-0.6,0.2-1.4,0.2-2.2v-1.5h4.6v1c0,2.6-0.5,4.6-1.6,6.1C243.9,55,242,55.7,239.4,55.7z M236.6,40.1			h5.4v-2.3c0-1.1-0.1-2-0.2-2.7c-0.1-0.7-0.4-1.3-0.7-1.6c-0.4-0.4-1-0.6-1.7-0.6c-0.8,0-1.3,0.2-1.7,0.5c-0.4,0.4-0.7,1-0.8,1.8			c-0.1,0.8-0.2,2-0.2,3.5V40.1z"/>
      <path class="st0" d="M256.9,55.7c-2.2,0-3.8-0.8-4.8-2.4c-1.1-1.6-1.6-4.3-1.6-8v-5c0-1.9,0.2-3.8,0.5-5.4c0.3-1.7,0.9-3,1.8-4			c0.9-1,2.2-1.5,4-1.5c0.9,0,1.6,0.2,2.3,0.6c0.7,0.4,1.3,0.9,1.9,1.4V19.6h4.7v35.8H261v-1.6c-0.6,0.6-1.2,1.1-1.8,1.4			C258.5,55.5,257.7,55.7,256.9,55.7z M258.1,52c0.4,0,0.9-0.1,1.4-0.2c0.5-0.2,1-0.4,1.5-0.7V34.3c-0.4-0.3-0.9-0.6-1.4-0.8			c-0.5-0.2-1-0.3-1.6-0.3c-1.1,0-1.8,0.5-2.2,1.6c-0.4,1-0.6,2.3-0.6,3.8v7.2c0,1.2,0.1,2.2,0.2,3.2c0.1,1,0.4,1.7,0.8,2.3			C256.6,51.7,257.3,52,258.1,52z"/>
      <path class="st0" d="M270.8,26v-5h4.7v5H270.8z M270.8,55.4V29.8h4.7v25.6H270.8z"/>
      <path class="st0" d="M285.2,55.7c-1,0-1.9-0.3-2.7-0.9c-0.8-0.6-1.4-1.3-1.8-2.2c-0.4-0.9-0.7-1.8-0.7-2.9c0-1.6,0.3-2.9,0.8-4			c0.5-1.1,1.3-2,2.2-2.8c0.9-0.8,2-1.4,3.2-2c1.2-0.6,2.5-1.1,3.9-1.6v-1.8c0-1-0.1-1.9-0.2-2.6c-0.1-0.7-0.4-1.2-0.7-1.5			c-0.4-0.3-0.9-0.5-1.7-0.5c-0.6,0-1.2,0.1-1.6,0.4c-0.4,0.3-0.7,0.7-0.9,1.3c-0.2,0.5-0.3,1.2-0.3,1.9v1.3l-4.7-0.2			c0.1-2.8,0.7-4.9,1.9-6.3c1.2-1.3,3.2-2,5.7-2c2.5,0,4.3,0.7,5.4,2.1c1.1,1.4,1.6,3.4,1.6,6v11.7c0,0.8,0,1.6,0.1,2.3			c0,0.7,0.1,1.4,0.2,2.1c0.1,0.6,0.1,1.2,0.2,1.8H291c-0.1-0.5-0.2-1.1-0.3-1.8c-0.1-0.7-0.2-1.4-0.3-2c-0.3,1-0.9,1.9-1.7,2.8			C287.9,55.3,286.7,55.7,285.2,55.7z M287.1,51.7c0.5,0,0.9-0.1,1.3-0.4c0.4-0.3,0.8-0.6,1.1-0.9c0.3-0.3,0.5-0.6,0.7-0.8v-7.3			c-0.7,0.4-1.4,0.8-2.1,1.2c-0.6,0.4-1.2,0.8-1.7,1.3c-0.5,0.5-0.9,1-1.1,1.5c-0.3,0.6-0.4,1.2-0.4,2c0,1,0.2,1.8,0.6,2.4			C285.8,51.4,286.3,51.7,287.1,51.7z"/>
      <path class="st0" d="M310,55.4V19.6h8.9c2.2,0,3.9,0.4,5.2,1.2c1.3,0.8,2.2,1.9,2.8,3.4c0.6,1.5,0.9,3.3,0.9,5.3			c0,1.9-0.3,3.5-1,4.9c-0.7,1.4-1.6,2.5-2.9,3.2c-1.3,0.8-2.9,1.1-4.9,1.1H315v16.7H310z M315,35.1h2.3c1.4,0,2.6-0.2,3.4-0.5			c0.8-0.3,1.4-0.9,1.8-1.7c0.4-0.8,0.5-2,0.5-3.4c0-1.7-0.1-3-0.4-3.9c-0.3-0.9-0.8-1.5-1.6-1.9c-0.8-0.4-2-0.5-3.7-0.5H315V35.1z"/>
      <path class="st0" d="M337.6,55.7c-1.9,0-3.4-0.4-4.5-1.1c-1.1-0.8-1.9-1.9-2.3-3.3c-0.5-1.4-0.7-3.1-0.7-5v-7.4			c0-1.9,0.2-3.6,0.7-5c0.5-1.4,1.2-2.5,2.3-3.3c1.1-0.8,2.6-1.1,4.5-1.1c1.9,0,3.4,0.4,4.4,1.1c1.1,0.8,1.8,1.9,2.3,3.3			c0.5,1.4,0.7,3.1,0.7,5v7.4c0,1.9-0.2,3.6-0.7,5c-0.5,1.4-1.2,2.5-2.3,3.3C340.9,55.3,339.5,55.7,337.6,55.7z M337.6,52.2			c0.9,0,1.6-0.3,1.9-0.8c0.4-0.5,0.6-1.2,0.7-2.1c0.1-0.9,0.1-1.8,0.1-2.7v-8c0-1,0-1.9-0.1-2.7c-0.1-0.9-0.3-1.6-0.7-2.1			c-0.4-0.5-1-0.8-1.9-0.8c-0.9,0-1.6,0.3-1.9,0.8c-0.4,0.5-0.6,1.2-0.7,2.1c-0.1,0.9-0.1,1.8-0.1,2.7v8c0,0.9,0,1.9,0.1,2.7			c0.1,0.9,0.3,1.6,0.7,2.1S336.7,52.2,337.6,52.2z"/>
      <path class="st0" d="M349.8,55.4V19.6h4.7v35.8H349.8z"/>
      <path class="st0" d="M359.1,61.8v-3.6c1.1,0,2.1-0.1,2.7-0.2c0.7-0.1,1.2-0.3,1.5-0.6c0.3-0.3,0.4-0.7,0.4-1.2			c0-0.3-0.1-0.9-0.3-1.8c-0.2-0.9-0.4-1.9-0.7-2.9l-5.1-21.8h4.8l3.4,19.1l3.3-19.1h4.8l-6.1,27c-0.3,1.2-0.8,2.2-1.5,2.9			c-0.7,0.7-1.6,1.2-2.7,1.6c-1.1,0.3-2.4,0.5-4,0.5H359.1z"/>
      <path class="st0" d="M376.9,55.4V19.6h4.7v12.9c0.9-0.8,1.8-1.5,2.9-2.1c1.1-0.6,2.2-0.9,3.5-0.9c1,0,1.8,0.3,2.3,0.8			c0.5,0.5,0.9,1.2,1.1,2c0.2,0.8,0.3,1.6,0.3,2.4v20.7h-4.7V36.1c0-0.9-0.1-1.6-0.4-2.1c-0.3-0.5-0.8-0.8-1.6-0.8			c-0.6,0-1.1,0.2-1.7,0.5c-0.6,0.3-1.2,0.7-1.7,1.2v20.5H376.9z"/>
      <path class="st0" d="M403.5,55.7c-2,0-3.6-0.4-4.6-1.2c-1.1-0.8-1.9-1.9-2.3-3.4c-0.4-1.5-0.6-3.4-0.6-5.6v-5.8			c0-2.3,0.2-4.2,0.7-5.7c0.4-1.5,1.2-2.6,2.3-3.4c1.1-0.8,2.6-1.1,4.6-1.1c2.2,0,3.7,0.4,4.8,1.3c1,0.9,1.7,2.2,2,3.8			c0.3,1.7,0.5,3.7,0.5,6v2.1h-10.1v5.1c0,1,0.1,1.9,0.3,2.5c0.2,0.6,0.5,1.1,0.9,1.4c0.4,0.3,1,0.5,1.7,0.5c0.7,0,1.2-0.2,1.6-0.5			c0.4-0.3,0.6-0.8,0.8-1.5c0.1-0.6,0.2-1.4,0.2-2.2v-1.5h4.6v1c0,2.6-0.5,4.6-1.6,6.1C408,55,406.2,55.7,403.5,55.7z M400.7,40.1			h5.4v-2.3c0-1.1-0.1-2-0.2-2.7c-0.1-0.7-0.4-1.3-0.7-1.6c-0.4-0.4-1-0.6-1.7-0.6c-0.8,0-1.3,0.2-1.7,0.5c-0.4,0.4-0.7,1-0.8,1.8			c-0.1,0.8-0.2,2-0.2,3.5V40.1z"/>
      <path class="st0" d="M421,55.7c-2.2,0-3.8-0.8-4.8-2.4c-1.1-1.6-1.6-4.3-1.6-8v-5c0-1.9,0.2-3.8,0.5-5.4c0.3-1.7,0.9-3,1.8-4			c0.9-1,2.2-1.5,4-1.5c0.9,0,1.6,0.2,2.3,0.6c0.7,0.4,1.3,0.9,1.9,1.4V19.6h4.7v35.8h-4.7v-1.6c-0.6,0.6-1.2,1.1-1.8,1.4			C422.6,55.5,421.9,55.7,421,55.7z M422.2,52c0.4,0,0.9-0.1,1.4-0.2c0.5-0.2,1-0.4,1.5-0.7V34.3c-0.4-0.3-0.9-0.6-1.4-0.8			c-0.5-0.2-1-0.3-1.6-0.3c-1.1,0-1.8,0.5-2.2,1.6c-0.4,1-0.6,2.3-0.6,3.8v7.2c0,1.2,0.1,2.2,0.2,3.2c0.1,1,0.4,1.7,0.8,2.3			C420.7,51.7,421.4,52,422.2,52z"/>
      <path class="st0" d="M434.7,55.4V29.8h4.7v3.6c0.9-1.6,1.9-2.6,2.8-3.1c0.9-0.5,1.9-0.8,2.8-0.8c0.1,0,0.2,0,0.3,0			c0.1,0,0.2,0,0.4,0v5.2c-0.4-0.1-0.8-0.3-1.2-0.4c-0.5-0.1-0.9-0.2-1.4-0.2c-0.7,0-1.4,0.2-2,0.5c-0.6,0.3-1.2,1-1.8,2v18.7H434.7			z"/>
      <path class="st0" d="M455.8,55.7c-1.9,0-3.4-0.4-4.5-1.1c-1.1-0.8-1.9-1.9-2.3-3.3c-0.5-1.4-0.7-3.1-0.7-5v-7.4			c0-1.9,0.2-3.6,0.7-5c0.5-1.4,1.2-2.5,2.3-3.3c1.1-0.8,2.6-1.1,4.5-1.1c1.9,0,3.4,0.4,4.4,1.1c1.1,0.8,1.8,1.9,2.3,3.3			c0.5,1.4,0.7,3.1,0.7,5v7.4c0,1.9-0.2,3.6-0.7,5c-0.5,1.4-1.2,2.5-2.3,3.3C459.2,55.3,457.7,55.7,455.8,55.7z M455.8,52.2			c0.9,0,1.6-0.3,1.9-0.8c0.4-0.5,0.6-1.2,0.7-2.1c0.1-0.9,0.1-1.8,0.1-2.7v-8c0-1,0-1.9-0.1-2.7c-0.1-0.9-0.3-1.6-0.7-2.1			c-0.4-0.5-1-0.8-1.9-0.8c-0.9,0-1.6,0.3-1.9,0.8c-0.4,0.5-0.6,1.2-0.7,2.1c-0.1,0.9-0.1,1.8-0.1,2.7v8c0,0.9,0,1.9,0.1,2.7			c0.1,0.9,0.3,1.6,0.7,2.1S454.9,52.2,455.8,52.2z"/>
      <path class="st0" d="M467.6,55.4V29.8h4.7v2.5c0.9-0.8,1.8-1.5,2.8-2c1-0.6,2.2-0.8,3.4-0.8c1,0,1.8,0.3,2.4,0.8			c0.5,0.5,0.9,1.2,1.1,2c0.2,0.8,0.3,1.6,0.3,2.4v20.7h-4.7V36.1c0-0.9-0.1-1.6-0.4-2.1c-0.3-0.5-0.8-0.8-1.6-0.8			c-0.5,0-1.1,0.2-1.7,0.5s-1.1,0.7-1.7,1.1v20.6H467.6z"/>
      <path class="st0" d="M492.9,55.7c-2.1,0-3.8-0.7-5-2c-1.3-1.3-2-3-2.2-5.2l3.9-1.2c0.2,1.6,0.6,2.8,1.2,3.6			c0.6,0.8,1.4,1.2,2.5,1.2c0.9,0,1.5-0.2,1.9-0.7c0.4-0.5,0.7-1.1,0.7-2c0-0.7-0.2-1.4-0.5-2c-0.3-0.6-0.9-1.2-1.6-1.8l-4.4-3.8			c-0.9-0.8-1.6-1.6-2.2-2.6c-0.6-0.9-0.9-2.2-0.9-3.7c0-1.4,0.3-2.5,0.8-3.4c0.5-0.9,1.3-1.6,2.3-2.1c1-0.5,2.1-0.7,3.5-0.7			c2,0,3.6,0.7,4.7,2c1.1,1.3,1.7,2.9,1.8,4.8l-3.2,1.2c-0.1-0.9-0.3-1.7-0.5-2.3c-0.2-0.7-0.6-1.2-1-1.5c-0.4-0.4-1-0.6-1.6-0.6			c-0.8,0-1.4,0.3-1.8,0.8c-0.5,0.5-0.7,1.1-0.7,1.8c0,0.4,0.1,0.9,0.3,1.3c0.2,0.4,0.5,0.8,1,1.3l4.5,4.2c0.6,0.6,1.2,1.2,1.7,1.8			c0.5,0.6,1,1.4,1.3,2.2c0.4,0.8,0.5,1.8,0.5,2.9c0,1.4-0.3,2.7-0.9,3.6c-0.6,1-1.4,1.7-2.5,2.2C495.6,55.5,494.3,55.7,492.9,55.7z			"/>
    </g>
  </g>
</svg>
