<svg xmlns="http://www.w3.org/2000/svg" viewBox="0 0 500 160" width="500" height="160">
  <style type="text/css">
    .st0{fill:#ffffff;}
  </style>
  <g>
    <g>
      <path class="st0" d="M55.6,36.2L43,8.9L12.5,31.1c-0.5,0.4-0.9,1-1.1,1.6L0,75.3h30.5L55.6,36.2z"/>
      <polygon class="st0" points="60.4,39.9 35.8,78.1 65.9,116.4 109.7,97.3 106.9,50.8 		"/>
      <path class="st0" d="M108.8,45.1l18.4-18.4L90.4,4.1c-0.5-0.3-1.1-0.5-1.8-0.4L48.5,6.5l12.6,27.4L108.8,45.1z"/>
      <path class="st0" d="M30.7,81.3H0.2l14.2,39.8c0.2,0.6,0.7,1.2,1.2,1.5l37,22.7l9-24.7L30.7,81.3z"/>
      <path class="st0" d="M67.4,122.3l-8.9,24.3l42.7-5.7c0.5-0.1,1-0.3,1.4-0.5l31.3-22.8l-21.5-15L67.4,122.3z"/>
      <path class="st0" d="M142.5,65.4l-11.4-34.1l-18.3,18.3l2.8,48l21.2,14.8l5.7-45.7C142.7,66.3,142.6,65.8,142.5,65.4z"/>
    </g>
    <g>
      <path class="st0" d="M175.7,61V3.6h22.3v6h-14.2v19h11.6v5.7h-11.6v21h14.4V61H175.7z"/>
      <path class="st0" d="M203.9,61v-41h7.6v4c1.4-1.3,2.9-2.4,4.5-3.3c1.7-0.9,3.5-1.3,5.5-1.3c1.7,0,2.9,0.4,3.8,1.3
			c0.9,0.9,1.5,1.9,1.8,3.2c0.4,1.3,0.5,2.6,0.5,3.9V61h-7.6v-31c0-1.5-0.2-2.6-0.6-3.4c-0.4-0.8-1.3-1.2-2.6-1.2
			c-0.9,0-1.7,0.2-2.7,0.7c-0.9,0.5-1.8,1.1-2.7,1.8v33H203.9z"/>
      <path class="st0" d="M246.2,61.6c-3.4,0-5.9-0.7-7.6-2c-1.7-1.3-2.9-3.2-3.5-5.7c-0.6-2.5-0.9-5.3-0.9-8.6v-9.4
			c0-3.4,0.3-6.4,0.9-8.8c0.6-2.4,1.8-4.3,3.5-5.6c1.7-1.3,4.2-1.9,7.5-1.9c3,0,5.3,0.5,6.9,1.5c1.6,1,2.8,2.4,3.4,4.3
			c0.6,1.9,0.9,4.3,0.9,7.1v2.4h-6.9v-2.5c0-1.8-0.1-3.2-0.4-4.3c-0.2-1-0.7-1.8-1.3-2.3c-0.6-0.5-1.5-0.7-2.6-0.7
			c-1.2,0-2.2,0.3-2.8,0.9c-0.7,0.6-1.1,1.5-1.3,2.9c-0.2,1.3-0.3,3.2-0.3,5.5v12.9c0,3.5,0.3,5.8,1,7c0.7,1.2,1.8,1.8,3.5,1.8
			c1.3,0,2.2-0.3,2.8-0.9c0.6-0.6,1-1.4,1.1-2.5c0.2-1.1,0.2-2.3,0.2-3.7v-3.3h6.9v2.8c0,2.7-0.3,5.1-1,7.1c-0.6,2-1.8,3.5-3.4,4.5
			C251.4,61.1,249.1,61.6,246.2,61.6z"/>
      <path class="st0" d="M263.5,71.3v-5.8c1.8,0,3.3-0.1,4.4-0.2c1.1-0.2,1.9-0.5,2.3-0.9c0.5-0.4,0.7-1.1,0.7-1.9
			c0-0.4-0.2-1.4-0.5-2.8c-0.3-1.5-0.7-3-1.1-4.7l-8.2-34.9h7.7l5.5,30.6l5.3-30.6h7.7l-9.8,43.2c-0.4,2-1.2,3.6-2.3,4.7
			c-1.1,1.2-2.6,2-4.4,2.5c-1.8,0.5-3.9,0.8-6.4,0.8H263.5z"/>
      <path class="st0" d="M303.1,61.6c-3.4,0-5.9-0.7-7.6-2c-1.7-1.3-2.9-3.2-3.5-5.7c-0.6-2.5-0.9-5.3-0.9-8.6v-9.4
			c0-3.4,0.3-6.4,0.9-8.8c0.6-2.4,1.8-4.3,3.5-5.6c1.7-1.3,4.2-1.9,7.5-1.9c3,0,5.3,0.5,6.9,1.5c1.6,1,2.8,2.4,3.4,4.3
			c0.6,1.9,0.9,4.3,0.9,7.1v2.4h-6.9v-2.5c0-1.8-0.1-3.2-0.4-4.3c-0.2-1-0.7-1.8-1.3-2.3c-0.6-0.5-1.5-0.7-2.6-0.7
			c-1.2,0-2.2,0.3-2.8,0.9c-0.7,0.6-1.1,1.5-1.3,2.9c-0.2,1.3-0.3,3.2-0.3,5.5v12.9c0,3.5,0.3,5.8,1,7c0.7,1.2,1.8,1.8,3.5,1.8
			c1.3,0,2.2-0.3,2.8-0.9c0.6-0.6,1-1.4,1.1-2.5c0.2-1.1,0.2-2.3,0.2-3.7v-3.3h6.9v2.8c0,2.7-0.3,5.1-1,7.1S311.6,59,310,60
			C308.3,61.1,306,61.6,303.1,61.6z"/>
      <path class="st0" d="M321.8,61V3.6h7.6V61H321.8z"/>
      <path class="st0" d="M348.5,61.6c-3,0-5.4-0.6-7.2-1.8c-1.7-1.2-3-3-3.7-5.2c-0.7-2.3-1.1-4.9-1.1-8V34.6c0-3.1,0.4-5.7,1.1-8
			c0.7-2.3,2-4,3.7-5.2c1.7-1.2,4.1-1.8,7.2-1.8c3,0,5.4,0.6,7.1,1.8c1.7,1.2,3,3,3.7,5.2c0.7,2.3,1.1,4.9,1.1,8v11.9
			c0,3.1-0.4,5.7-1.1,8c-0.7,2.3-2,4-3.7,5.2C353.9,61,351.6,61.6,348.5,61.6z M348.5,56c1.5,0,2.5-0.4,3.1-1.3
			c0.6-0.9,0.9-2,1.1-3.4c0.1-1.4,0.2-2.8,0.2-4.4V34.2c0-1.6-0.1-3-0.2-4.4c-0.1-1.4-0.5-2.5-1.1-3.4c-0.6-0.9-1.6-1.3-3.1-1.3
			c-1.5,0-2.5,0.4-3.1,1.3c-0.6,0.9-1,2-1.1,3.4c-0.1,1.4-0.2,2.8-0.2,4.4V47c0,1.5,0.1,3,0.2,4.4c0.1,1.4,0.5,2.5,1.1,3.4
			C346,55.6,347.1,56,348.5,56z"/>
      <path class="st0" d="M367.4,74.5V20.1h7.6v3.3c0.9-1,2-1.9,3.3-2.7c1.3-0.8,2.8-1.1,4.5-1.1c2.1,0,3.8,0.6,5.1,1.7
			c1.3,1.1,2.2,2.5,2.8,4.2c0.6,1.7,1,3.4,1.2,5.1c0.2,1.7,0.3,3.2,0.3,4.4v9.9c0,2.9-0.3,5.6-0.9,8.2c-0.6,2.6-1.6,4.7-3.1,6.2
			c-1.5,1.6-3.6,2.4-6.3,2.4c-1.5,0-2.8-0.4-3.9-1.1c-1.1-0.7-2.2-1.6-3-2.5v16.5H367.4z M380.4,55.7c1.3,0,2.3-0.5,2.8-1.5
			c0.6-1,0.9-2.3,1.1-3.9c0.1-1.7,0.2-3.5,0.2-5.5v-9.9c0-1.7-0.1-3.3-0.3-4.7c-0.2-1.4-0.6-2.6-1.2-3.4c-0.6-0.9-1.6-1.3-2.9-1.3
			c-1,0-1.9,0.2-2.8,0.6c-0.9,0.4-1.7,0.9-2.3,1.5v26.2c0.7,0.5,1.5,1,2.4,1.3C378.3,55.5,379.3,55.7,380.4,55.7z"/>
      <path class="st0" d="M410.3,61.6c-3.2,0-5.7-0.6-7.4-1.9c-1.7-1.3-3-3.1-3.6-5.5c-0.7-2.4-1-5.4-1-9v-9.4c0-3.6,0.4-6.7,1.1-9.1
			c0.7-2.4,1.9-4.2,3.7-5.5c1.8-1.2,4.2-1.8,7.3-1.8c3.4,0,6,0.7,7.6,2.1c1.6,1.4,2.7,3.5,3.2,6.1c0.5,2.7,0.8,5.9,0.8,9.6v3.3
			h-16.2v8.2c0,1.7,0.2,3,0.5,4c0.3,1,0.8,1.8,1.5,2.3c0.7,0.5,1.6,0.7,2.7,0.7c1.1,0,2-0.3,2.6-0.8c0.6-0.5,1-1.3,1.2-2.3
			c0.2-1,0.3-2.2,0.3-3.6v-2.5h7.4v1.6c0,4.1-0.9,7.3-2.6,9.7C417.5,60.4,414.6,61.6,410.3,61.6z M405.8,36.6h8.7v-3.7
			c0-1.7-0.1-3.1-0.3-4.3c-0.2-1.2-0.6-2-1.2-2.6c-0.6-0.6-1.5-0.9-2.8-0.9c-1.2,0-2.2,0.3-2.8,0.9s-1.1,1.5-1.3,2.9
			c-0.2,1.3-0.4,3.2-0.4,5.6V36.6z"/>
      <path class="st0" d="M438.3,61.6c-3.4,0-6-1.3-7.7-3.8c-1.7-2.5-2.6-6.8-2.6-12.9V37c0-3.1,0.3-6,0.8-8.7c0.5-2.7,1.5-4.8,2.9-6.4
			c1.4-1.6,3.6-2.4,6.3-2.4c1.4,0,2.6,0.3,3.8,0.9c1.1,0.6,2.1,1.4,3,2.3V3.6h7.6V61h-7.6v-2.6c-0.9,0.9-1.9,1.7-2.9,2.3
			C440.9,61.3,439.7,61.6,438.3,61.6z M440.3,55.7c0.7,0,1.5-0.1,2.3-0.4c0.8-0.3,1.6-0.6,2.4-1.2V27.2c-0.7-0.5-1.4-0.9-2.2-1.2
			c-0.8-0.4-1.7-0.5-2.6-0.5c-1.7,0-2.9,0.8-3.5,2.5c-0.6,1.7-0.9,3.7-0.9,6.1v11.6c0,1.9,0.1,3.6,0.3,5.1c0.2,1.5,0.6,2.7,1.3,3.6
			C437.9,55.2,438.9,55.7,440.3,55.7z"/>
      <path class="st0" d="M460.7,14V6h7.6V14H460.7z M460.7,61v-41h7.6v41H460.7z"/>
      <path class="st0" d="M483.8,61.6c-1.6,0-3-0.5-4.3-1.4c-1.2-0.9-2.2-2.1-2.9-3.5c-0.7-1.4-1.1-3-1.1-4.6c0-2.6,0.4-4.7,1.3-6.4
			c0.9-1.7,2-3.2,3.5-4.4c1.5-1.2,3.2-2.3,5.2-3.2c2-0.9,4-1.8,6.2-2.6v-2.9c0-1.7-0.1-3-0.3-4.1c-0.2-1.1-0.6-1.9-1.2-2.4
			c-0.6-0.5-1.5-0.8-2.7-0.8c-1,0-1.9,0.2-2.5,0.7c-0.6,0.5-1.1,1.1-1.4,2c-0.3,0.9-0.4,1.9-0.4,3.1V33l-7.5-0.3
			c0.1-4.5,1.1-7.9,3.1-10c2-2.1,5.1-3.2,9.2-3.2c4.1,0,6.9,1.1,8.6,3.3c1.7,2.2,2.6,5.4,2.6,9.6v18.7c0,1.3,0,2.5,0.1,3.7
			c0.1,1.2,0.2,2.3,0.3,3.3c0.1,1,0.2,2,0.3,2.9h-6.9c-0.1-0.8-0.3-1.7-0.5-2.9c-0.2-1.2-0.4-2.2-0.5-3.2c-0.5,1.6-1.4,3.1-2.7,4.5
			C488,60.9,486.1,61.6,483.8,61.6z M486.7,55.1c0.8,0,1.5-0.2,2.1-0.6c0.7-0.4,1.3-0.9,1.8-1.5c0.5-0.5,0.9-1,1.1-1.3V40.1
			c-1.2,0.7-2.3,1.3-3.3,2c-1,0.7-1.9,1.4-2.7,2.1c-0.8,0.7-1.4,1.6-1.8,2.5c-0.4,0.9-0.7,2-0.7,3.2c0,1.7,0.3,3,0.9,3.9
			C484.7,54.6,485.6,55.1,486.7,55.1z"/>
      <path class="st0" d="M175.7,146.1V88.7h14.2c3.4,0,6.2,0.6,8.3,1.9c2.1,1.3,3.6,3.1,4.5,5.4c0.9,2.4,1.4,5.2,1.4,8.6
			c0,3-0.5,5.6-1.6,7.9c-1.1,2.2-2.6,3.9-4.7,5.1c-2.1,1.2-4.7,1.8-7.8,1.8h-6.3v26.7H175.7z M183.7,113.6h3.7
			c2.3,0,4.1-0.3,5.5-0.8c1.3-0.5,2.3-1.4,2.8-2.7c0.6-1.3,0.9-3.1,0.9-5.5c0-2.7-0.2-4.8-0.6-6.3c-0.4-1.5-1.2-2.5-2.5-3
			c-1.3-0.6-3.3-0.9-6-0.9h-3.8V113.6z"/>
      <path class="st0" d="M219.9,146.7c-3,0-5.4-0.6-7.2-1.8c-1.7-1.2-3-3-3.7-5.2c-0.7-2.3-1.1-4.9-1.1-8v-11.9c0-3.1,0.4-5.7,1.1-8
			c0.7-2.3,2-4,3.7-5.2c1.7-1.2,4.1-1.8,7.2-1.8c3,0,5.4,0.6,7.1,1.8c1.7,1.2,3,3,3.7,5.2c0.7,2.3,1.1,4.9,1.1,8v11.9
			c0,3.1-0.4,5.7-1.1,8c-0.7,2.3-2,4-3.7,5.2C225.3,146,222.9,146.7,219.9,146.7z M219.9,141.1c1.5,0,2.5-0.4,3.1-1.3
			c0.6-0.9,0.9-2,1.1-3.4c0.1-1.4,0.2-2.8,0.2-4.4v-12.8c0-1.6-0.1-3-0.2-4.4c-0.1-1.4-0.5-2.5-1.1-3.4c-0.6-0.9-1.6-1.3-3.1-1.3
			c-1.5,0-2.5,0.4-3.1,1.3c-0.6,0.9-1,2-1.1,3.4c-0.1,1.4-0.2,2.8-0.2,4.4v12.8c0,1.5,0.1,3,0.2,4.4c0.1,1.4,0.5,2.5,1.1,3.4
			C217.4,140.6,218.4,141.1,219.9,141.1z"/>
      <path class="st0" d="M239.5,146.1V88.7h7.6v57.4H239.5z"/>
      <path class="st0" d="M254.4,156.4v-5.8c1.8,0,3.3-0.1,4.4-0.2c1.1-0.2,1.9-0.5,2.3-0.9c0.5-0.4,0.7-1.1,0.7-1.9
			c0-0.4-0.2-1.4-0.5-2.8c-0.3-1.5-0.7-3-1.1-4.7l-8.2-34.9h7.7l5.5,30.6l5.3-30.6h7.7l-9.8,43.2c-0.4,2-1.2,3.6-2.3,4.7
			c-1.1,1.2-2.6,2-4.4,2.5c-1.8,0.5-3.9,0.8-6.4,0.8H254.4z"/>
      <path class="st0" d="M283,146.1V88.7h7.6v20.7c1.4-1.3,2.9-2.5,4.6-3.4c1.7-0.9,3.6-1.4,5.7-1.4c1.6,0,2.8,0.4,3.7,1.3
			c0.9,0.9,1.5,1.9,1.8,3.2c0.4,1.3,0.5,2.6,0.5,3.9v33.2h-7.6v-31c0-1.5-0.2-2.6-0.6-3.4c-0.4-0.8-1.3-1.2-2.6-1.2
			c-0.9,0-1.8,0.3-2.8,0.8c-1,0.5-1.9,1.2-2.7,1.9v32.9H283z"/>
      <path class="st0" d="M325.7,146.7c-3.2,0-5.7-0.6-7.4-1.9c-1.7-1.3-3-3.1-3.6-5.5c-0.7-2.4-1-5.4-1-9v-9.4c0-3.6,0.4-6.7,1.1-9.1
			c0.7-2.4,1.9-4.2,3.7-5.5c1.8-1.2,4.2-1.8,7.3-1.8c3.4,0,6,0.7,7.6,2.1c1.6,1.4,2.7,3.5,3.2,6.1c0.5,2.7,0.8,5.9,0.8,9.6v3.3
			h-16.2v8.2c0,1.7,0.2,3,0.5,4c0.3,1,0.8,1.8,1.5,2.3c0.7,0.5,1.6,0.7,2.7,0.7c1.1,0,2-0.3,2.6-0.8c0.6-0.5,1-1.3,1.2-2.3
			c0.2-1,0.3-2.2,0.3-3.6v-2.5h7.4v1.6c0,4.1-0.9,7.3-2.6,9.7C332.8,145.5,329.9,146.7,325.7,146.7z M321.1,121.6h8.7V118
			c0-1.7-0.1-3.1-0.3-4.3c-0.2-1.2-0.6-2-1.2-2.6c-0.6-0.6-1.5-0.9-2.8-0.9c-1.2,0-2.2,0.3-2.8,0.9c-0.6,0.6-1.1,1.5-1.3,2.9
			c-0.2,1.3-0.4,3.2-0.4,5.6V121.6z"/>
      <path class="st0" d="M353.6,146.7c-3.4,0-6-1.3-7.7-3.8c-1.7-2.5-2.6-6.8-2.6-12.9v-7.9c0-3.1,0.3-6,0.8-8.7
			c0.5-2.7,1.5-4.8,2.9-6.4c1.4-1.6,3.6-2.4,6.3-2.4c1.4,0,2.6,0.3,3.8,0.9c1.1,0.6,2.1,1.4,3,2.3V88.7h7.6v57.4h-7.6v-2.6
			c-0.9,0.9-1.9,1.7-2.9,2.3C356.2,146.4,355,146.7,353.6,146.7z M355.6,140.7c0.7,0,1.5-0.1,2.3-0.4c0.8-0.3,1.6-0.6,2.4-1.2v-26.9
			c-0.7-0.5-1.4-0.9-2.2-1.2c-0.8-0.4-1.7-0.5-2.6-0.5c-1.7,0-2.9,0.8-3.5,2.5c-0.6,1.7-0.9,3.7-0.9,6.1v11.6c0,1.9,0.1,3.6,0.3,5.1
			c0.2,1.5,0.6,2.7,1.3,3.6C353.2,140.3,354.2,140.7,355.6,140.7z"/>
      <path class="st0" d="M375.7,146.1v-41h7.6v5.8c1.5-2.5,3-4.2,4.5-5c1.5-0.9,3-1.3,4.5-1.3c0.2,0,0.4,0,0.5,0c0.2,0,0.4,0,0.7,0.1
			v8.4c-0.6-0.2-1.2-0.4-1.9-0.6c-0.7-0.2-1.5-0.2-2.2-0.2c-1.2,0-2.3,0.3-3.2,0.8c-1,0.5-1.9,1.6-2.9,3.2v29.9H375.7z"/>
      <path class="st0" d="M409.5,146.7c-3,0-5.4-0.6-7.2-1.8c-1.7-1.2-3-3-3.7-5.2c-0.7-2.3-1.1-4.9-1.1-8v-11.9c0-3.1,0.4-5.7,1.1-8
			c0.7-2.3,2-4,3.7-5.2c1.7-1.2,4.1-1.8,7.2-1.8c3,0,5.4,0.6,7.1,1.8c1.7,1.2,3,3,3.7,5.2c0.7,2.3,1.1,4.9,1.1,8v11.9
			c0,3.1-0.4,5.7-1.1,8c-0.7,2.3-2,4-3.7,5.2C414.9,146,412.5,146.7,409.5,146.7z M409.5,141.1c1.5,0,2.5-0.4,3.1-1.3
			c0.6-0.9,0.9-2,1.1-3.4c0.1-1.4,0.2-2.8,0.2-4.4v-12.8c0-1.6-0.1-3-0.2-4.4c-0.1-1.4-0.5-2.5-1.1-3.4c-0.6-0.9-1.6-1.3-3.1-1.3
			c-1.5,0-2.5,0.4-3.1,1.3c-0.6,0.9-1,2-1.1,3.4c-0.1,1.4-0.2,2.8-0.2,4.4v12.8c0,1.5,0.1,3,0.2,4.4c0.1,1.4,0.5,2.5,1.1,3.4
			C407,140.6,408,141.1,409.5,141.1z"/>
      <path class="st0" d="M428.3,146.1v-41h7.6v4c1.4-1.3,2.9-2.4,4.5-3.3c1.7-0.9,3.5-1.3,5.5-1.3c1.7,0,2.9,0.4,3.8,1.3
			c0.9,0.9,1.5,1.9,1.8,3.2c0.4,1.3,0.5,2.6,0.5,3.9v33.2h-7.6v-31c0-1.5-0.2-2.6-0.6-3.4c-0.4-0.8-1.3-1.2-2.6-1.2
			c-0.9,0-1.7,0.2-2.7,0.7c-0.9,0.5-1.8,1.1-2.7,1.8v33H428.3z"/>
      <path class="st0" d="M469,146.7c-3.4,0-6-1.1-8.1-3.2c-2-2.1-3.2-4.9-3.5-8.3l6.3-1.9c0.4,2.6,1,4.5,1.9,5.8
			c0.9,1.3,2.2,1.9,4,1.9c1.4,0,2.4-0.4,3.1-1.2s1.1-1.8,1.1-3.2c0-1.2-0.3-2.2-0.8-3.2c-0.5-0.9-1.4-1.9-2.6-2.9l-7-6
			c-1.4-1.2-2.6-2.6-3.6-4.1c-1-1.5-1.5-3.5-1.5-5.9c0-2.2,0.4-4,1.3-5.5c0.9-1.5,2.1-2.6,3.7-3.4c1.6-0.8,3.4-1.2,5.6-1.2
			c3.3,0,5.8,1.1,7.5,3.2c1.7,2.1,2.7,4.6,2.9,7.6l-5.1,1.9c-0.2-1.4-0.5-2.7-0.9-3.7c-0.4-1.1-0.9-1.9-1.6-2.5
			c-0.7-0.6-1.5-0.9-2.6-0.9c-1.2,0-2.2,0.4-2.9,1.2c-0.7,0.8-1.1,1.8-1.1,2.9c0,0.7,0.2,1.4,0.5,2.1c0.3,0.7,0.8,1.4,1.6,2l7.2,6.7
			c1,0.9,1.9,1.9,2.8,2.9c0.9,1,1.6,2.2,2.2,3.5c0.6,1.3,0.9,2.9,0.9,4.6c0,2.3-0.5,4.3-1.4,5.8c-0.9,1.6-2.3,2.7-4,3.5
			C473.2,146.3,471.2,146.7,469,146.7z"/>
    </g>
  </g>
</svg>
