<?xml version="1.0" encoding="UTF-8"?>
<svg xmlns="http://www.w3.org/2000/svg" xmlns:xlink="http://www.w3.org/1999/xlink" width="173.95pt" height="183.06pt" viewBox="0 0 173.95 183.06" version="1.2">
<defs>
<clipPath id="clip1">
  <path d="M 0.417969 75 L 82 75 L 82 182 L 0.417969 182 Z M 0.417969 75 "/>
</clipPath>
<clipPath id="clip2">
  <path d="M 0.417969 75 L 83 75 L 83 182.125 L 0.417969 182.125 Z M 0.417969 75 "/>
</clipPath>
<clipPath id="clip3">
  <path d="M 81 55 L 173.480469 55 L 173.480469 174 L 81 174 Z M 81 55 "/>
</clipPath>
<clipPath id="clip4">
  <path d="M 81 54 L 173.480469 54 L 173.480469 175 L 81 175 Z M 81 54 "/>
</clipPath>
<clipPath id="clip5">
  <path d="M 63 119 L 173.480469 119 L 173.480469 182 L 63 182 Z M 63 119 "/>
</clipPath>
<clipPath id="clip6">
  <path d="M 62 118 L 173.480469 118 L 173.480469 182.125 L 62 182.125 Z M 62 118 "/>
</clipPath>
<clipPath id="clip7">
  <path d="M 0.417969 0 L 91 0 L 91 120 L 0.417969 120 Z M 0.417969 0 "/>
</clipPath>
<clipPath id="clip8">
  <path d="M 0.417969 0 L 92 0 L 92 120 L 0.417969 120 Z M 0.417969 0 "/>
</clipPath>
<clipPath id="clip9">
  <path d="M 162 55 L 173.480469 55 L 173.480469 174 L 162 174 Z M 162 55 "/>
</clipPath>
<clipPath id="clip10">
  <path d="M 162 54 L 173.480469 54 L 173.480469 175 L 162 175 Z M 162 54 "/>
</clipPath>
<clipPath id="clip11">
  <path d="M 63 111 L 173.480469 111 L 173.480469 182 L 63 182 Z M 63 111 "/>
</clipPath>
<clipPath id="clip12">
  <path d="M 62 111 L 173.480469 111 L 173.480469 182.125 L 62 182.125 Z M 62 111 "/>
</clipPath>
<clipPath id="clip13">
  <path d="M 0.417969 0 L 91 0 L 91 98 L 0.417969 98 Z M 0.417969 0 "/>
</clipPath>
<clipPath id="clip14">
  <path d="M 0.417969 0 L 92 0 L 92 98 L 0.417969 98 Z M 0.417969 0 "/>
</clipPath>
<clipPath id="clip15">
  <path d="M 0.417969 75 L 64 75 L 64 182 L 0.417969 182 Z M 0.417969 75 "/>
</clipPath>
<clipPath id="clip16">
  <path d="M 0.417969 75 L 64 75 L 64 182.125 L 0.417969 182.125 Z M 0.417969 75 "/>
</clipPath>
<clipPath id="clip17">
  <path d="M 27 97 L 163 97 L 163 182.125 L 27 182.125 Z M 27 97 "/>
</clipPath>
</defs>
<g id="surface1">
<g clip-path="url(#clip1)" clip-rule="nonzero">
<path style=" stroke:none;fill-rule:nonzero;fill:rgb(88.81073%,89.842224%,84.301758%);fill-opacity:1;" d="M 0.769531 75.929688 L 81.691406 119.082031 L 63.289062 181.777344 L 0.769531 75.929688 "/>
</g>
<g clip-path="url(#clip2)" clip-rule="nonzero">
<path style="fill:none;stroke-width:7.00001;stroke-linecap:round;stroke-linejoin:round;stroke:rgb(13.729858%,12.159729%,12.548828%);stroke-opacity:1;stroke-miterlimit:10;" d="M 3.518723 1067.40419 L 816.892754 633.66491 L 631.924369 3.492426 Z M 3.518723 1067.40419 " transform="matrix(0.0994891,0,0,-0.0994891,0.419457,182.124802)"/>
</g>
<g clip-path="url(#clip3)" clip-rule="nonzero">
<path style=" stroke:none;fill-rule:nonzero;fill:rgb(60.105896%,52.461243%,74.909973%);fill-opacity:1;" d="M 173.128906 173.683594 L 81.691406 119.082031 L 167.304688 55.160156 L 173.128906 173.683594 "/>
</g>
<g clip-path="url(#clip4)" clip-rule="nonzero">
<path style="fill:none;stroke-width:7.00001;stroke-linecap:round;stroke-linejoin:round;stroke:rgb(13.729858%,12.159729%,12.548828%);stroke-opacity:1;stroke-miterlimit:10;" d="M 1735.963004 84.845534 L 816.892754 633.66491 L 1677.421747 1276.166003 Z M 1735.963004 84.845534 " transform="matrix(0.0994891,0,0,-0.0994891,0.419457,182.124802)"/>
</g>
<g clip-path="url(#clip5)" clip-rule="nonzero">
<path style=" stroke:none;fill-rule:nonzero;fill:rgb(70.968628%,82.96051%,93.345642%);fill-opacity:1;" d="M 63.289062 181.777344 L 81.691406 119.082031 L 173.128906 173.683594 L 63.289062 181.777344 "/>
</g>
<g clip-path="url(#clip6)" clip-rule="nonzero">
<path style="fill:none;stroke-width:7.00001;stroke-linecap:round;stroke-linejoin:round;stroke:rgb(13.729858%,12.159729%,12.548828%);stroke-opacity:1;stroke-miterlimit:10;" d="M 631.924369 3.492426 L 816.892754 633.66491 L 1735.963004 84.845534 Z M 631.924369 3.492426 " transform="matrix(0.0994891,0,0,-0.0994891,0.419457,182.124802)"/>
</g>
<path style="fill-rule:nonzero;fill:rgb(74.084473%,45.101929%,50.779724%);fill-opacity:1;stroke-width:7.00001;stroke-linecap:round;stroke-linejoin:round;stroke:rgb(13.729858%,12.159729%,12.548828%);stroke-opacity:1;stroke-miterlimit:10;" d="M 909.749945 1827.105586 L 1677.421747 1276.166003 L 816.892754 633.66491 " transform="matrix(0.0994891,0,0,-0.0994891,0.419457,182.124802)"/>
<g clip-path="url(#clip7)" clip-rule="nonzero">
<path style=" stroke:none;fill-rule:nonzero;fill:rgb(74.084473%,45.101929%,50.779724%);fill-opacity:1;" d="M 81.691406 119.082031 L 0.769531 75.929688 L 90.929688 0.347656 "/>
</g>
<g clip-path="url(#clip8)" clip-rule="nonzero">
<path style="fill:none;stroke-width:7.00001;stroke-linecap:round;stroke-linejoin:round;stroke:rgb(13.729858%,12.159729%,12.548828%);stroke-opacity:1;stroke-miterlimit:10;" d="M 816.892754 633.66491 L 3.518723 1067.40419 L 909.749945 1827.105586 " transform="matrix(0.0994891,0,0,-0.0994891,0.419457,182.124802)"/>
</g>
<path style=" stroke:none;fill-rule:nonzero;fill:rgb(89.31427%,93.951416%,82.086182%);fill-opacity:1;" d="M 167.304688 55.160156 L 90.929688 0.347656 L 162.570312 111.726562 L 167.304688 55.160156 "/>
<path style="fill:none;stroke-width:7.00001;stroke-linecap:round;stroke-linejoin:round;stroke:rgb(13.729858%,12.159729%,12.548828%);stroke-opacity:1;stroke-miterlimit:10;" d="M 1677.421747 1276.166003 L 909.749945 1827.105586 L 1629.83489 707.597296 Z M 1677.421747 1276.166003 " transform="matrix(0.0994891,0,0,-0.0994891,0.419457,182.124802)"/>
<g clip-path="url(#clip9)" clip-rule="nonzero">
<path style=" stroke:none;fill-rule:nonzero;fill:rgb(83.711243%,72.512817%,22.543335%);fill-opacity:1;" d="M 173.128906 173.683594 L 167.304688 55.160156 L 162.570312 111.726562 L 173.128906 173.683594 "/>
</g>
<g clip-path="url(#clip10)" clip-rule="nonzero">
<path style="fill:none;stroke-width:7.00001;stroke-linecap:round;stroke-linejoin:round;stroke:rgb(13.729858%,12.159729%,12.548828%);stroke-opacity:1;stroke-miterlimit:10;" d="M 1735.963004 84.845534 L 1677.421747 1276.166003 L 1629.83489 707.597296 Z M 1735.963004 84.845534 " transform="matrix(0.0994891,0,0,-0.0994891,0.419457,182.124802)"/>
</g>
<g clip-path="url(#clip11)" clip-rule="nonzero">
<path style=" stroke:none;fill-rule:nonzero;fill:rgb(73.753357%,38.719177%,38.076782%);fill-opacity:1;" d="M 173.128906 173.683594 L 162.570312 111.726562 L 63.289062 181.777344 L 173.128906 173.683594 "/>
</g>
<g clip-path="url(#clip12)" clip-rule="nonzero">
<path style="fill:none;stroke-width:7.00001;stroke-linecap:round;stroke-linejoin:round;stroke:rgb(13.729858%,12.159729%,12.548828%);stroke-opacity:1;stroke-miterlimit:10;" d="M 1735.963004 84.845534 L 1629.83489 707.597296 L 631.924369 3.492426 Z M 1735.963004 84.845534 " transform="matrix(0.0994891,0,0,-0.0994891,0.419457,182.124802)"/>
</g>
<g clip-path="url(#clip13)" clip-rule="nonzero">
<path style=" stroke:none;fill-rule:nonzero;fill:rgb(12.472534%,44.700623%,76.220703%);fill-opacity:1;" d="M 0.769531 75.929688 L 27.730469 97.597656 L 90.929688 0.347656 L 0.769531 75.929688 "/>
</g>
<g clip-path="url(#clip14)" clip-rule="nonzero">
<path style="fill:none;stroke-width:7.00001;stroke-linecap:round;stroke-linejoin:round;stroke:rgb(13.729858%,12.159729%,12.548828%);stroke-opacity:1;stroke-miterlimit:10;" d="M 3.518723 1067.40419 L 274.512523 849.611868 L 909.749945 1827.105586 Z M 3.518723 1067.40419 " transform="matrix(0.0994891,0,0,-0.0994891,0.419457,182.124802)"/>
</g>
<g clip-path="url(#clip15)" clip-rule="nonzero">
<path style=" stroke:none;fill-rule:nonzero;fill:rgb(13.729858%,12.159729%,12.548828%);fill-opacity:1;" d="M 0.769531 75.929688 L 63.289062 181.777344 L 27.730469 97.597656 L 0.769531 75.929688 "/>
</g>
<g clip-path="url(#clip16)" clip-rule="nonzero">
<path style="fill:none;stroke-width:7.00001;stroke-linecap:round;stroke-linejoin:round;stroke:rgb(13.729858%,12.159729%,12.548828%);stroke-opacity:1;stroke-miterlimit:10;" d="M 3.518723 1067.40419 L 631.924369 3.492426 L 274.512523 849.611868 Z M 3.518723 1067.40419 " transform="matrix(0.0994891,0,0,-0.0994891,0.419457,182.124802)"/>
</g>
<path style=" stroke:none;fill-rule:nonzero;fill:rgb(72.306824%,42.123413%,48.342896%);fill-opacity:1;" d="M 27.730469 97.597656 L 63.289062 181.777344 L 162.570312 111.726562 L 27.730469 97.597656 "/>
<g clip-path="url(#clip17)" clip-rule="nonzero">
<path style="fill:none;stroke-width:7.00001;stroke-linecap:round;stroke-linejoin:round;stroke:rgb(13.729858%,12.159729%,12.548828%);stroke-opacity:1;stroke-miterlimit:10;" d="M 274.512523 849.611868 L 631.924369 3.492426 L 1629.83489 707.597296 Z M 274.512523 849.611868 " transform="matrix(0.0994891,0,0,-0.0994891,0.419457,182.124802)"/>
</g>
<path style=" stroke:none;fill-rule:nonzero;fill:rgb(78.381348%,74.966431%,83.560181%);fill-opacity:1;" d="M 90.929688 0.347656 L 27.730469 97.597656 L 162.570312 111.726562 L 90.929688 0.347656 "/>
<path style="fill:none;stroke-width:7.00001;stroke-linecap:round;stroke-linejoin:round;stroke:rgb(13.729858%,12.159729%,12.548828%);stroke-opacity:1;stroke-miterlimit:10;" d="M 909.749945 1827.105586 L 274.512523 849.611868 L 1629.83489 707.597296 Z M 909.749945 1827.105586 " transform="matrix(0.0994891,0,0,-0.0994891,0.419457,182.124802)"/>
</g>
</svg>
