<?xml version="1.0" encoding="UTF-8"?>
<svg xmlns="http://www.w3.org/2000/svg" xmlns:xlink="http://www.w3.org/1999/xlink" width="176pt" height="192pt" viewBox="0 0 176 192" version="1.2">
<g id="surface1">
<path style=" stroke:none;fill-rule:evenodd;fill:rgb(67.904663%,58.64563%,67.547607%);fill-opacity:1;" d="M 66.769531 108.917969 L 145.355469 135.085938 L 126.4375 48.121094 L 66.769531 108.917969 "/>
<path style="fill:none;stroke-width:6.25;stroke-linecap:butt;stroke-linejoin:miter;stroke:rgb(13.729858%,12.159729%,12.548828%);stroke-opacity:1;stroke-miterlimit:4;" d="M 667.695312 830.820312 L 1453.554688 569.140625 L 1264.375 1438.789062 Z M 667.695312 830.820312 " transform="matrix(0.1,0,0,-0.1,0,192)"/>
<path style=" stroke:none;fill-rule:evenodd;fill:rgb(87.709045%,78.314209%,73.562622%);fill-opacity:1;" d="M 20.160156 159.359375 L 66.769531 108.917969 L 2.574219 68.203125 L 20.160156 159.359375 "/>
<path style="fill:none;stroke-width:6.25;stroke-linecap:butt;stroke-linejoin:miter;stroke:rgb(13.729858%,12.159729%,12.548828%);stroke-opacity:1;stroke-miterlimit:4;" d="M 201.601562 326.40625 L 667.695312 830.820312 L 25.742188 1237.96875 Z M 201.601562 326.40625 " transform="matrix(0.1,0,0,-0.1,0,192)"/>
<path style="fill-rule:evenodd;fill:rgb(77.661133%,59.051514%,56.314087%);fill-opacity:1;stroke-width:6.25;stroke-linecap:butt;stroke-linejoin:miter;stroke:rgb(13.729858%,12.159729%,12.548828%);stroke-opacity:1;stroke-miterlimit:4;" d="M 25.742188 1237.96875 L 667.695312 830.820312 L 1264.375 1438.789062 " transform="matrix(0.1,0,0,-0.1,0,192)"/>
<path style="fill-rule:evenodd;fill:rgb(69.973755%,71.046448%,83.288574%);fill-opacity:1;stroke-width:6.25;stroke-linecap:butt;stroke-linejoin:miter;stroke:rgb(13.729858%,12.159729%,12.548828%);stroke-opacity:1;stroke-miterlimit:4;" d="M 1041.71875 10.3125 L 201.601562 326.40625 L 667.695312 830.820312 " transform="matrix(0.1,0,0,-0.1,0,192)"/>
<path style="fill-rule:evenodd;fill:rgb(69.973755%,71.046448%,83.288574%);fill-opacity:1;stroke-width:6.25;stroke-linecap:butt;stroke-linejoin:miter;stroke:rgb(13.729858%,12.159729%,12.548828%);stroke-opacity:1;stroke-miterlimit:4;" d="M 667.695312 830.820312 L 1453.554688 569.140625 L 1041.71875 10.3125 " transform="matrix(0.1,0,0,-0.1,0,192)"/>
<path style=" stroke:none;fill-rule:evenodd;fill:rgb(44.367981%,27.97699%,27.964783%);fill-opacity:1;" d="M 64.765625 1.09375 L 152.828125 24.40625 L 126.4375 48.121094 L 64.765625 1.09375 "/>
<path style="fill:none;stroke-width:6.25;stroke-linecap:butt;stroke-linejoin:miter;stroke:rgb(13.729858%,12.159729%,12.548828%);stroke-opacity:1;stroke-miterlimit:4;" d="M 647.65625 1909.0625 L 1528.28125 1675.9375 L 1264.375 1438.789062 Z M 647.65625 1909.0625 " transform="matrix(0.1,0,0,-0.1,0,192)"/>
<path style="fill-rule:evenodd;fill:rgb(33.306885%,26.15509%,39.544678%);fill-opacity:1;stroke-width:6.25;stroke-linecap:butt;stroke-linejoin:miter;stroke:rgb(13.729858%,12.159729%,12.548828%);stroke-opacity:1;stroke-miterlimit:4;" d="M 1749.6875 686.054688 L 1528.28125 1675.9375 L 1264.375 1438.789062 " transform="matrix(0.1,0,0,-0.1,0,192)"/>
<path style="fill-rule:evenodd;fill:rgb(33.306885%,26.15509%,39.544678%);fill-opacity:1;stroke-width:6.25;stroke-linecap:butt;stroke-linejoin:miter;stroke:rgb(13.729858%,12.159729%,12.548828%);stroke-opacity:1;stroke-miterlimit:4;" d="M 1264.375 1438.789062 L 1453.554688 569.140625 L 1749.6875 686.054688 " transform="matrix(0.1,0,0,-0.1,0,192)"/>
<path style="fill-rule:evenodd;fill:rgb(77.661133%,59.051514%,56.314087%);fill-opacity:1;stroke-width:6.25;stroke-linecap:butt;stroke-linejoin:miter;stroke:rgb(13.729858%,12.159729%,12.548828%);stroke-opacity:1;stroke-miterlimit:4;" d="M 1264.375 1438.789062 L 647.65625 1909.0625 L 25.742188 1237.96875 " transform="matrix(0.1,0,0,-0.1,0,192)"/>
<path style=" stroke:none;fill-rule:evenodd;fill:rgb(24.098206%,34.228516%,58.395386%);fill-opacity:1;" d="M 104.171875 190.96875 L 145.355469 135.085938 L 174.96875 123.394531 L 104.171875 190.96875 "/>
<path style="fill:none;stroke-width:6.25;stroke-linecap:butt;stroke-linejoin:miter;stroke:rgb(13.729858%,12.159729%,12.548828%);stroke-opacity:1;stroke-miterlimit:4;" d="M 1041.71875 10.3125 L 1453.554688 569.140625 L 1749.6875 686.054688 Z M 1041.71875 10.3125 " transform="matrix(0.1,0,0,-0.1,0,192)"/>
<path style=" stroke:none;fill-rule:evenodd;fill:rgb(70.161438%,36.676025%,20.526123%);fill-opacity:1;" d="M 11.972656 46.277344 L 64.765625 1.09375 L 2.574219 68.203125 L 11.972656 46.277344 "/>
<path style="fill:none;stroke-width:6.25;stroke-linecap:butt;stroke-linejoin:miter;stroke:rgb(13.729858%,12.159729%,12.548828%);stroke-opacity:1;stroke-miterlimit:4;" d="M 119.726562 1457.226562 L 647.65625 1909.0625 L 25.742188 1237.96875 Z M 119.726562 1457.226562 " transform="matrix(0.1,0,0,-0.1,0,192)"/>
<path style="fill-rule:evenodd;fill:rgb(23.925781%,21.414185%,25.010681%);fill-opacity:1;stroke-width:6.25;stroke-linecap:butt;stroke-linejoin:miter;stroke:rgb(13.729858%,12.159729%,12.548828%);stroke-opacity:1;stroke-miterlimit:4;" d="M 25.742188 1237.96875 L 119.726562 1457.226562 L 323.945312 412.617188 " transform="matrix(0.1,0,0,-0.1,0,192)"/>
<path style="fill-rule:evenodd;fill:rgb(23.925781%,21.414185%,25.010681%);fill-opacity:1;stroke-width:6.25;stroke-linecap:butt;stroke-linejoin:miter;stroke:rgb(13.729858%,12.159729%,12.548828%);stroke-opacity:1;stroke-miterlimit:4;" d="M 323.945312 412.617188 L 201.601562 326.40625 L 25.742188 1237.96875 " transform="matrix(0.1,0,0,-0.1,0,192)"/>
<path style=" stroke:none;fill-rule:evenodd;fill:rgb(15.202332%,13.421631%,13.600159%);fill-opacity:1;" d="M 20.160156 159.359375 L 104.171875 190.96875 L 32.394531 150.738281 L 20.160156 159.359375 "/>
<path style="fill:none;stroke-width:6.25;stroke-linecap:butt;stroke-linejoin:miter;stroke:rgb(13.729858%,12.159729%,12.548828%);stroke-opacity:1;stroke-miterlimit:4;" d="M 201.601562 326.40625 L 1041.71875 10.3125 L 323.945312 412.617188 Z M 201.601562 326.40625 " transform="matrix(0.1,0,0,-0.1,0,192)"/>
<path style="fill-rule:evenodd;fill:rgb(65.887451%,71.734619%,86.282349%);fill-opacity:1;stroke-width:6.25;stroke-linecap:butt;stroke-linejoin:miter;stroke:rgb(13.729858%,12.159729%,12.548828%);stroke-opacity:1;stroke-miterlimit:4;" d="M 1068.984375 1168.945312 L 119.726562 1457.226562 L 647.65625 1909.0625 " transform="matrix(0.1,0,0,-0.1,0,192)"/>
<path style="fill-rule:evenodd;fill:rgb(65.887451%,71.734619%,86.282349%);fill-opacity:1;stroke-width:6.25;stroke-linecap:butt;stroke-linejoin:miter;stroke:rgb(13.729858%,12.159729%,12.548828%);stroke-opacity:1;stroke-miterlimit:4;" d="M 647.65625 1909.0625 L 1528.28125 1675.9375 L 1068.984375 1168.945312 " transform="matrix(0.1,0,0,-0.1,0,192)"/>
<path style="fill-rule:evenodd;fill:rgb(78.15094%,57.154846%,52.336121%);fill-opacity:1;stroke-width:6.25;stroke-linecap:butt;stroke-linejoin:miter;stroke:rgb(13.729858%,12.159729%,12.548828%);stroke-opacity:1;stroke-miterlimit:4;" d="M 1749.6875 686.054688 L 1041.71875 10.3125 L 323.945312 412.617188 " transform="matrix(0.1,0,0,-0.1,0,192)"/>
<path style=" stroke:none;fill-rule:evenodd;fill:rgb(91.532898%,82.49054%,73.065186%);fill-opacity:1;" d="M 106.898438 75.105469 L 152.828125 24.40625 L 174.96875 123.394531 L 106.898438 75.105469 "/>
<path style="fill:none;stroke-width:6.25;stroke-linecap:butt;stroke-linejoin:miter;stroke:rgb(13.729858%,12.159729%,12.548828%);stroke-opacity:1;stroke-miterlimit:4;" d="M 1068.984375 1168.945312 L 1528.28125 1675.9375 L 1749.6875 686.054688 Z M 1068.984375 1168.945312 " transform="matrix(0.1,0,0,-0.1,0,192)"/>
<path style="fill-rule:evenodd;fill:rgb(78.15094%,57.154846%,52.336121%);fill-opacity:1;stroke-width:6.25;stroke-linecap:butt;stroke-linejoin:miter;stroke:rgb(13.729858%,12.159729%,12.548828%);stroke-opacity:1;stroke-miterlimit:4;" d="M 323.945312 412.617188 L 1068.984375 1168.945312 L 1749.6875 686.054688 " transform="matrix(0.1,0,0,-0.1,0,192)"/>
<path style=" stroke:none;fill-rule:evenodd;fill:rgb(66.049194%,56.959534%,66.851807%);fill-opacity:1;" d="M 11.972656 46.277344 L 106.898438 75.105469 L 32.394531 150.738281 L 11.972656 46.277344 "/>
<path style="fill:none;stroke-width:6.25;stroke-linecap:butt;stroke-linejoin:miter;stroke:rgb(13.729858%,12.159729%,12.548828%);stroke-opacity:1;stroke-miterlimit:4;" d="M 119.726562 1457.226562 L 1068.984375 1168.945312 L 323.945312 412.617188 Z M 119.726562 1457.226562 " transform="matrix(0.1,0,0,-0.1,0,192)"/>
</g>
</svg>
