<?xml version="1.0" encoding="UTF-8"?>
<svg xmlns="http://www.w3.org/2000/svg" xmlns:xlink="http://www.w3.org/1999/xlink" width="80.13pt" height="199.94pt" viewBox="0 0 80.13 199.94" version="1.2">
<g id="surface1">
<path style=" stroke:none;fill-rule:nonzero;fill:rgb(67.381287%,44.091797%,56.25%);fill-opacity:1;" d="M 41.011719 5.714844 L 51.527344 91.019531 L 34.703125 90.777344 "/>
<path style="fill:none;stroke-width:5;stroke-linecap:round;stroke-linejoin:round;stroke:rgb(0%,0%,0%);stroke-opacity:1;stroke-miterlimit:10;" d="M 414.569976 1952.185181 L 520.867945 1089.876472 L 350.799092 1092.324642 Z M 414.569976 1952.185181 " transform="matrix(0.0989259,0,0,-0.0989259,0,198.83657)"/>
<path style=" stroke:none;fill-rule:nonzero;fill:rgb(68.75%,58.396912%,73.4375%);fill-opacity:1;" d="M 41.011719 179.941406 L 51.527344 91.019531 L 34.703125 90.777344 "/>
<path style="fill:none;stroke-width:5;stroke-linecap:round;stroke-linejoin:round;stroke:rgb(0%,0%,0%);stroke-opacity:1;stroke-miterlimit:10;" d="M 414.569976 191.003157 L 520.867945 1089.876472 L 350.799092 1092.324642 Z M 414.569976 191.003157 " transform="matrix(0.0989259,0,0,-0.0989259,0,198.83657)"/>
<path style=" stroke:none;fill-rule:nonzero;fill:rgb(83.201599%,56.443787%,53.318787%);fill-opacity:1;" d="M 41.011719 5.714844 L 34.703125 90.777344 L 19.945312 92.375 "/>
<path style="fill:none;stroke-width:5;stroke-linecap:round;stroke-linejoin:round;stroke:rgb(0%,0%,0%);stroke-opacity:1;stroke-miterlimit:10;" d="M 414.569976 1952.185181 L 350.799092 1092.324642 L 201.618659 1076.174616 Z M 414.569976 1952.185181 " transform="matrix(0.0989259,0,0,-0.0989259,0,198.83657)"/>
<path style=" stroke:none;fill-rule:nonzero;fill:rgb(83.396912%,71.289062%,73.046875%);fill-opacity:1;" d="M 41.011719 179.941406 L 34.703125 90.777344 L 19.945312 92.375 "/>
<path style="fill:none;stroke-width:5;stroke-linecap:round;stroke-linejoin:round;stroke:rgb(0%,0%,0%);stroke-opacity:1;stroke-miterlimit:10;" d="M 414.569976 191.003157 L 350.799092 1092.324642 L 201.618659 1076.174616 Z M 414.569976 191.003157 " transform="matrix(0.0989259,0,0,-0.0989259,0,198.83657)"/>
<path style=" stroke:none;fill-rule:nonzero;fill:rgb(43.896484%,23.706055%,50.78125%);fill-opacity:1;" d="M 41.011719 5.714844 L 64.878906 93.039062 L 51.527344 91.019531 "/>
<path style="fill:none;stroke-width:5;stroke-linecap:round;stroke-linejoin:round;stroke:rgb(0%,0%,0%);stroke-opacity:1;stroke-miterlimit:10;" d="M 414.569976 1952.185181 L 655.833197 1069.461892 L 520.867945 1089.876472 Z M 414.569976 1952.185181 " transform="matrix(0.0989259,0,0,-0.0989259,0,198.83657)"/>
<path style=" stroke:none;fill-rule:nonzero;fill:rgb(48.388672%,43.406677%,72.65625%);fill-opacity:1;" d="M 41.011719 179.941406 L 64.878906 93.039062 L 51.527344 91.019531 "/>
<path style="fill:none;stroke-width:5;stroke-linecap:round;stroke-linejoin:round;stroke:rgb(0%,0%,0%);stroke-opacity:1;stroke-miterlimit:10;" d="M 414.569976 191.003157 L 655.833197 1069.461892 L 520.867945 1089.876472 Z M 414.569976 191.003157 " transform="matrix(0.0989259,0,0,-0.0989259,0,198.83657)"/>
<path style=" stroke:none;fill-rule:nonzero;fill:rgb(96.289062%,63.28125%,31.005859%);fill-opacity:1;" d="M 41.011719 5.714844 L 19.945312 92.375 L 12.445312 95.351562 "/>
<path style="fill:none;stroke-width:5;stroke-linecap:round;stroke-linejoin:round;stroke:rgb(0%,0%,0%);stroke-opacity:1;stroke-miterlimit:10;" d="M 414.569976 1952.185181 L 201.618659 1076.174616 L 125.804357 1046.085815 Z M 414.569976 1952.185181 " transform="matrix(0.0989259,0,0,-0.0989259,0,198.83657)"/>
<path style=" stroke:none;fill-rule:nonzero;fill:rgb(97.65625%,87.889099%,67.1875%);fill-opacity:1;" d="M 41.011719 179.941406 L 19.945312 92.375 L 12.445312 95.351562 "/>
<path style="fill:none;stroke-width:5;stroke-linecap:round;stroke-linejoin:round;stroke:rgb(0%,0%,0%);stroke-opacity:1;stroke-miterlimit:10;" d="M 414.569976 191.003157 L 201.618659 1076.174616 L 125.804357 1046.085815 Z M 414.569976 191.003157 " transform="matrix(0.0989259,0,0,-0.0989259,0,198.83657)"/>
<path style=" stroke:none;fill-rule:nonzero;fill:rgb(0%,8.105469%,60.742188%);fill-opacity:1;" d="M 41.011719 179.941406 L 69.84375 96.226562 L 64.878906 93.039062 "/>
<path style="fill:none;stroke-width:5;stroke-linecap:round;stroke-linejoin:round;stroke:rgb(0%,0%,0%);stroke-opacity:1;stroke-miterlimit:10;" d="M 414.569976 191.003157 L 706.020685 1037.240813 L 655.833197 1069.461892 Z M 414.569976 191.003157 " transform="matrix(0.0989259,0,0,-0.0989259,0,198.83657)"/>
<path style=" stroke:none;fill-rule:nonzero;fill:rgb(94.139099%,59.179688%,18.701172%);fill-opacity:1;" d="M 41.011719 179.941406 L 69.84375 96.226562 L 63.714844 99.464844 "/>
<path style="fill:none;stroke-width:5;stroke-linecap:round;stroke-linejoin:round;stroke:rgb(0%,0%,0%);stroke-opacity:1;stroke-miterlimit:10;" d="M 414.569976 191.003157 L 706.020685 1037.240813 L 644.066185 1004.506409 Z M 414.569976 191.003157 " transform="matrix(0.0989259,0,0,-0.0989259,0,198.83657)"/>
<path style=" stroke:none;fill-rule:nonzero;fill:rgb(84.568787%,55.859375%,50.389099%);fill-opacity:1;" d="M 41.011719 179.941406 L 48.066406 101.390625 L 63.714844 99.464844 "/>
<path style="fill:none;stroke-width:5;stroke-linecap:round;stroke-linejoin:round;stroke:rgb(0%,0%,0%);stroke-opacity:1;stroke-miterlimit:10;" d="M 414.569976 191.003157 L 485.882804 985.039508 L 644.066185 1004.506409 Z M 414.569976 191.003157 " transform="matrix(0.0989259,0,0,-0.0989259,0,198.83657)"/>
<path style=" stroke:none;fill-rule:nonzero;fill:rgb(66.796875%,42.30957%,54.296875%);fill-opacity:1;" d="M 41.011719 179.941406 L 29.320312 101.085938 L 48.066406 101.390625 "/>
<path style="fill:none;stroke-width:5;stroke-linecap:round;stroke-linejoin:round;stroke:rgb(0%,0%,0%);stroke-opacity:1;stroke-miterlimit:10;" d="M 414.569976 191.003157 L 296.386536 988.119464 L 485.882804 985.039508 Z M 414.569976 191.003157 " transform="matrix(0.0989259,0,0,-0.0989259,0,198.83657)"/>
<path style=" stroke:none;fill-rule:nonzero;fill:rgb(38.989258%,17.893982%,46.897888%);fill-opacity:1;" d="M 41.011719 179.941406 L 15.675781 98.707031 L 29.320312 101.085938 "/>
<path style="fill:none;stroke-width:5;stroke-linecap:round;stroke-linejoin:round;stroke:rgb(0%,0%,0%);stroke-opacity:1;stroke-miterlimit:10;" d="M 414.569976 191.003157 L 158.459788 1012.166813 L 296.386536 988.119464 Z M 414.569976 191.003157 " transform="matrix(0.0989259,0,0,-0.0989259,0,198.83657)"/>
<path style=" stroke:none;fill-rule:nonzero;fill:rgb(27.392578%,27.392578%,27.392578%);fill-opacity:1;" d="M 41.011719 179.941406 L 12.445312 95.351562 L 15.675781 98.707031 "/>
<path style="fill:none;stroke-width:5;stroke-linecap:round;stroke-linejoin:round;stroke:rgb(0%,0%,0%);stroke-opacity:1;stroke-miterlimit:10;" d="M 414.569976 191.003157 L 125.804357 1046.085815 L 158.459788 1012.166813 Z M 414.569976 191.003157 " transform="matrix(0.0989259,0,0,-0.0989259,0,198.83657)"/>
<path style=" stroke:none;fill-rule:nonzero;fill:rgb(17.601013%,17.601013%,32.200623%);fill-opacity:1;" d="M 41.011719 5.714844 L 69.84375 96.226562 L 64.878906 93.039062 "/>
<path style="fill:none;stroke-width:5;stroke-linecap:round;stroke-linejoin:round;stroke:rgb(0%,0%,0%);stroke-opacity:1;stroke-miterlimit:10;" d="M 414.569976 1952.185181 L 706.020685 1037.240813 L 655.833197 1069.461892 Z M 414.569976 1952.185181 " transform="matrix(0.0989259,0,0,-0.0989259,0,198.83657)"/>
<path style=" stroke:none;fill-rule:nonzero;fill:rgb(2.600098%,2.600098%,54.881287%);fill-opacity:1;" d="M 41.011719 5.714844 L 12.445312 95.351562 L 15.675781 98.707031 "/>
<path style="fill:none;stroke-width:5;stroke-linecap:round;stroke-linejoin:round;stroke:rgb(0%,0%,0%);stroke-opacity:1;stroke-miterlimit:10;" d="M 414.569976 1952.185181 L 125.804357 1046.085815 L 158.459788 1012.166813 Z M 414.569976 1952.185181 " transform="matrix(0.0989259,0,0,-0.0989259,0,198.83657)"/>
<path style=" stroke:none;fill-rule:nonzero;fill:rgb(98.4375%,90.039062%,63.28125%);fill-opacity:1;" d="M 41.011719 5.714844 L 69.84375 96.226562 L 63.714844 99.464844 "/>
<path style="fill:none;stroke-width:5;stroke-linecap:round;stroke-linejoin:round;stroke:rgb(0%,0%,0%);stroke-opacity:1;stroke-miterlimit:10;" d="M 414.569976 1952.185181 L 706.020685 1037.240813 L 644.066185 1004.506409 Z M 414.569976 1952.185181 " transform="matrix(0.0989259,0,0,-0.0989259,0,198.83657)"/>
<path style=" stroke:none;fill-rule:nonzero;fill:rgb(44.993591%,41.088867%,72.459412%);fill-opacity:1;" d="M 41.011719 5.714844 L 15.675781 98.707031 L 29.320312 101.085938 "/>
<path style="fill:none;stroke-width:5;stroke-linecap:round;stroke-linejoin:round;stroke:rgb(0%,0%,0%);stroke-opacity:1;stroke-miterlimit:10;" d="M 414.569976 1952.185181 L 158.459788 1012.166813 L 296.386536 988.119464 Z M 414.569976 1952.185181 " transform="matrix(0.0989259,0,0,-0.0989259,0,198.83657)"/>
<path style=" stroke:none;fill-rule:nonzero;fill:rgb(84.764099%,72.851562%,73.046875%);fill-opacity:1;" d="M 41.011719 5.714844 L 48.066406 101.390625 L 63.714844 99.464844 "/>
<path style="fill:none;stroke-width:5;stroke-linecap:round;stroke-linejoin:round;stroke:rgb(0%,0%,0%);stroke-opacity:1;stroke-miterlimit:10;" d="M 414.569976 1952.185181 L 485.882804 985.039508 L 644.066185 1004.506409 Z M 414.569976 1952.185181 " transform="matrix(0.0989259,0,0,-0.0989259,0,198.83657)"/>
<path style=" stroke:none;fill-rule:nonzero;fill:rgb(68.359375%,58.396912%,73.631287%);fill-opacity:1;" d="M 41.011719 5.714844 L 29.320312 101.085938 L 48.066406 101.390625 "/>
<path style="fill:none;stroke-width:5;stroke-linecap:round;stroke-linejoin:round;stroke:rgb(0%,0%,0%);stroke-opacity:1;stroke-miterlimit:10;" d="M 414.569976 1952.185181 L 296.386536 988.119464 L 485.882804 985.039508 Z M 414.569976 1952.185181 " transform="matrix(0.0989259,0,0,-0.0989259,0,198.83657)"/>
</g>
</svg>
