<?xml version="1.0" encoding="UTF-8"?>
<svg xmlns="http://www.w3.org/2000/svg" xmlns:xlink="http://www.w3.org/1999/xlink" width="187.73pt" height="183.72pt" viewBox="0 0 187.73 183.72" version="1.2">
<defs>
<clipPath id="clip1">
  <path d="M 135 41 L 187.453125 41 L 187.453125 123 L 135 123 Z M 135 41 "/>
</clipPath>
<clipPath id="clip2">
  <path d="M 135 30 L 187.453125 30 L 187.453125 79 L 135 79 Z M 135 30 "/>
</clipPath>
<clipPath id="clip3">
  <path d="M 26 145 L 97 145 L 97 183.441406 L 26 183.441406 Z M 26 145 "/>
</clipPath>
<clipPath id="clip4">
  <path d="M 22 141 L 101 141 L 101 183.441406 L 22 183.441406 Z M 22 141 "/>
</clipPath>
<clipPath id="clip5">
  <path d="M 92 159 L 160 159 L 160 183.441406 L 92 183.441406 Z M 92 159 "/>
</clipPath>
<clipPath id="clip6">
  <path d="M 63 163 L 119 163 L 119 183.441406 L 63 183.441406 Z M 63 163 "/>
</clipPath>
<clipPath id="clip7">
  <path d="M 59 159 L 123 159 L 123 183.441406 L 59 183.441406 Z M 59 159 "/>
</clipPath>
<clipPath id="clip8">
  <path d="M 152 115 L 187.453125 115 L 187.453125 168 L 152 168 Z M 152 115 "/>
</clipPath>
<clipPath id="clip9">
  <path d="M 160 71 L 187.453125 71 L 187.453125 124 L 160 124 Z M 160 71 "/>
</clipPath>
<clipPath id="clip10">
  <path d="M 0.0078125 64 L 27 64 L 27 146 L 0.0078125 146 Z M 0.0078125 64 "/>
</clipPath>
<clipPath id="clip11">
  <path d="M 0.0078125 61 L 30 61 L 30 149 L 0.0078125 149 Z M 0.0078125 61 "/>
</clipPath>
<clipPath id="clip12">
  <path d="M 0.0078125 58 L 20 58 L 20 108 L 0.0078125 108 Z M 0.0078125 58 "/>
</clipPath>
<clipPath id="clip13">
  <path d="M 0.0078125 54 L 23 54 L 23 112 L 0.0078125 112 Z M 0.0078125 54 "/>
</clipPath>
<clipPath id="clip14">
  <path d="M 166 30 L 187.453125 30 L 187.453125 124 L 166 124 Z M 166 30 "/>
</clipPath>
<clipPath id="clip15">
  <path d="M 115 116 L 187.453125 116 L 187.453125 183.441406 L 115 183.441406 Z M 115 116 "/>
</clipPath>
<clipPath id="clip16">
  <path d="M 26 145 L 64 145 L 64 183.441406 L 26 183.441406 Z M 26 145 "/>
</clipPath>
<clipPath id="clip17">
  <path d="M 22 141 L 68 141 L 68 183.441406 L 22 183.441406 Z M 22 141 "/>
</clipPath>
<clipPath id="clip18">
  <path d="M 0.0078125 107 L 46 107 L 46 147 L 0.0078125 147 Z M 0.0078125 107 "/>
</clipPath>
<clipPath id="clip19">
  <path d="M 0.0078125 104 L 49 104 L 49 151 L 0.0078125 151 Z M 0.0078125 104 "/>
</clipPath>
<clipPath id="clip20">
  <path d="M 45 146 L 119 146 L 119 183.441406 L 45 183.441406 Z M 45 146 "/>
</clipPath>
<clipPath id="clip21">
  <path d="M 41 143 L 123 143 L 123 183.441406 L 41 183.441406 Z M 41 143 "/>
</clipPath>
<clipPath id="clip22">
  <path d="M 159 30 L 187.453125 30 L 187.453125 124 L 159 124 Z M 159 30 "/>
</clipPath>
<clipPath id="clip23">
  <path d="M 0.0078125 58 L 46 58 L 46 147 L 0.0078125 147 Z M 0.0078125 58 "/>
</clipPath>
<clipPath id="clip24">
  <path d="M 0.0078125 54 L 49 54 L 49 151 L 0.0078125 151 Z M 0.0078125 54 "/>
</clipPath>
<clipPath id="clip25">
  <path d="M 41 143 L 132 143 L 132 183.441406 L 41 183.441406 Z M 41 143 "/>
</clipPath>
<clipPath id="clip26">
  <path d="M 115 116 L 187.453125 116 L 187.453125 183.441406 L 115 183.441406 Z M 115 116 "/>
</clipPath>
<clipPath id="clip27">
  <path d="M 117 47 L 187.453125 47 L 187.453125 124 L 117 124 Z M 117 47 "/>
</clipPath>
<clipPath id="clip28">
  <path d="M 117 86 L 187.453125 86 L 187.453125 157 L 117 157 Z M 117 86 "/>
</clipPath>
</defs>
<g id="surface1">
<path style=" stroke:none;fill-rule:evenodd;fill:rgb(69.076538%,50.138855%,55.392456%);fill-opacity:1;" d="M 77.648438 91.113281 L 125.5625 108.308594 L 138.660156 44.960938 L 77.648438 91.113281 "/>
<path style="fill:none;stroke-width:6.406;stroke-linecap:butt;stroke-linejoin:miter;stroke:rgb(13.729858%,12.159729%,12.548828%);stroke-opacity:1;stroke-miterlimit:4;" d="M 777.587225 924.678568 L 1257.458088 752.463376 L 1388.634267 1386.905394 " transform="matrix(0.0998478,0,0,-0.0998478,0.00804348,183.440426)"/>
<path style=" stroke:none;fill-rule:evenodd;fill:rgb(69.076538%,50.138855%,55.392456%);fill-opacity:1;" d="M 138.660156 44.960938 L 71.636719 41.230469 L 77.648438 91.113281 L 138.660156 44.960938 "/>
<path style="fill:none;stroke-width:6.406;stroke-linecap:butt;stroke-linejoin:miter;stroke:rgb(13.729858%,12.159729%,12.548828%);stroke-opacity:1;stroke-miterlimit:4;" d="M 1388.634267 1386.905394 L 717.378416 1424.266936 L 777.587225 924.678568 " transform="matrix(0.0998478,0,0,-0.0998478,0.00804348,183.440426)"/>
<path style=" stroke:none;fill-rule:evenodd;fill:rgb(81.636047%,62.437439%,58.444214%);fill-opacity:1;" d="M 77.648438 91.113281 L 41.550781 123.734375 L 15.578125 64.917969 L 77.648438 91.113281 "/>
<path style="fill:none;stroke-width:6.406;stroke-linecap:butt;stroke-linejoin:miter;stroke:rgb(13.729858%,12.159729%,12.548828%);stroke-opacity:1;stroke-miterlimit:4;" d="M 777.587225 924.678568 L 416.060513 597.970466 L 155.938112 1187.030925 " transform="matrix(0.0998478,0,0,-0.0998478,0.00804348,183.440426)"/>
<path style=" stroke:none;fill-rule:evenodd;fill:rgb(81.636047%,62.437439%,58.444214%);fill-opacity:1;" d="M 15.578125 64.917969 L 71.636719 41.230469 L 77.648438 91.113281 L 15.578125 64.917969 "/>
<path style="fill:none;stroke-width:6.406;stroke-linecap:butt;stroke-linejoin:miter;stroke:rgb(13.729858%,12.159729%,12.548828%);stroke-opacity:1;stroke-miterlimit:4;" d="M 155.938112 1187.030925 L 717.378416 1424.266936 L 777.587225 924.678568 " transform="matrix(0.0998478,0,0,-0.0998478,0.00804348,183.440426)"/>
<path style=" stroke:none;fill-rule:evenodd;fill:rgb(72.97821%,62.458801%,68.302917%);fill-opacity:1;" d="M 77.648438 91.113281 L 41.550781 123.734375 L 96.597656 163.191406 L 77.648438 91.113281 "/>
<path style="fill:none;stroke-width:6.406;stroke-linecap:butt;stroke-linejoin:miter;stroke:rgb(13.729858%,12.159729%,12.548828%);stroke-opacity:1;stroke-miterlimit:4;" d="M 777.587225 924.678568 L 416.060513 597.970466 L 967.36821 202.798805 " transform="matrix(0.0998478,0,0,-0.0998478,0.00804348,183.440426)"/>
<path style=" stroke:none;fill-rule:evenodd;fill:rgb(72.97821%,62.458801%,68.302917%);fill-opacity:1;" d="M 96.597656 163.191406 L 125.5625 108.308594 L 77.648438 91.113281 L 96.597656 163.191406 "/>
<path style="fill:none;stroke-width:6.406;stroke-linecap:butt;stroke-linejoin:miter;stroke:rgb(13.729858%,12.159729%,12.548828%);stroke-opacity:1;stroke-miterlimit:4;" d="M 967.36821 202.798805 L 1257.458088 752.463376 L 777.587225 924.678568 " transform="matrix(0.0998478,0,0,-0.0998478,0.00804348,183.440426)"/>
<path style=" stroke:none;fill-rule:evenodd;fill:rgb(53.701782%,39.997864%,54.019165%);fill-opacity:1;" d="M 163.867188 119.066406 L 125.5625 108.308594 L 138.660156 44.960938 L 163.867188 119.066406 "/>
<path style="fill:none;stroke-width:6.406;stroke-linecap:butt;stroke-linejoin:miter;stroke:rgb(13.729858%,12.159729%,12.548828%);stroke-opacity:1;stroke-miterlimit:4;" d="M 1641.088749 644.721296 L 1257.458088 752.463376 L 1388.634267 1386.905394 " transform="matrix(0.0998478,0,0,-0.0998478,0.00804348,183.440426)"/>
<path style=" stroke:none;fill-rule:evenodd;fill:rgb(56.436157%,53.218079%,69.512939%);fill-opacity:1;" d="M 96.597656 163.191406 L 125.5625 108.308594 L 163.867188 119.066406 L 96.597656 163.191406 "/>
<path style="fill:none;stroke-width:6.406;stroke-linecap:butt;stroke-linejoin:miter;stroke:rgb(13.729858%,12.159729%,12.548828%);stroke-opacity:1;stroke-miterlimit:4;" d="M 967.36821 202.798805 L 1257.458088 752.463376 L 1641.088749 644.721296 " transform="matrix(0.0998478,0,0,-0.0998478,0.00804348,183.440426)"/>
<path style=" stroke:none;fill-rule:evenodd;fill:rgb(65.174866%,34.87854%,37.449646%);fill-opacity:1;" d="M 138.660156 44.960938 L 71.636719 41.230469 L 75.988281 8.628906 L 138.660156 44.960938 "/>
<path style="fill:none;stroke-width:6.406;stroke-linecap:butt;stroke-linejoin:miter;stroke:rgb(13.729858%,12.159729%,12.548828%);stroke-opacity:1;stroke-miterlimit:4;" d="M 1388.634267 1386.905394 L 717.378416 1424.266936 L 760.960361 1750.779428 " transform="matrix(0.0998478,0,0,-0.0998478,0.00804348,183.440426)"/>
<path style=" stroke:none;fill-rule:evenodd;fill:rgb(82.141113%,47.75238%,33.639526%);fill-opacity:1;" d="M 15.578125 64.917969 L 71.636719 41.230469 L 75.988281 8.628906 L 15.578125 64.917969 "/>
<path style="fill:none;stroke-width:6.406;stroke-linecap:butt;stroke-linejoin:miter;stroke:rgb(13.729858%,12.159729%,12.548828%);stroke-opacity:1;stroke-miterlimit:4;" d="M 155.938112 1187.030925 L 717.378416 1424.266936 L 760.960361 1750.779428 " transform="matrix(0.0998478,0,0,-0.0998478,0.00804348,183.440426)"/>
<path style=" stroke:none;fill-rule:evenodd;fill:rgb(53.701782%,39.997864%,54.019165%);fill-opacity:1;" d="M 138.660156 44.960938 L 186.78125 75.011719 L 163.867188 119.066406 L 138.660156 44.960938 "/>
<g clip-path="url(#clip1)" clip-rule="nonzero">
<path style="fill:none;stroke-width:6.406;stroke-linecap:butt;stroke-linejoin:miter;stroke:rgb(13.729858%,12.159729%,12.548828%);stroke-opacity:1;stroke-miterlimit:4;" d="M 1388.634267 1386.905394 L 1870.578598 1085.93959 L 1641.088749 644.721296 " transform="matrix(0.0998478,0,0,-0.0998478,0.00804348,183.440426)"/>
</g>
<path style=" stroke:none;fill-rule:evenodd;fill:rgb(38.546753%,17.382812%,30.863953%);fill-opacity:1;" d="M 170.113281 34.199219 L 128.929688 0.824219 L 138.660156 44.960938 L 170.113281 34.199219 "/>
<path style="fill:none;stroke-width:6.406;stroke-linecap:butt;stroke-linejoin:miter;stroke:rgb(13.729858%,12.159729%,12.548828%);stroke-opacity:1;stroke-miterlimit:4;" d="M 1703.644881 1494.686596 L 1291.181281 1828.945251 L 1388.634267 1386.905394 " transform="matrix(0.0998478,0,0,-0.0998478,0.00804348,183.440426)"/>
<path style=" stroke:none;fill-rule:evenodd;fill:rgb(38.546753%,17.382812%,30.863953%);fill-opacity:1;" d="M 138.660156 44.960938 L 186.78125 75.011719 L 170.113281 34.199219 L 138.660156 44.960938 "/>
<g clip-path="url(#clip2)" clip-rule="nonzero">
<path style="fill:none;stroke-width:6.406;stroke-linecap:butt;stroke-linejoin:miter;stroke:rgb(13.729858%,12.159729%,12.548828%);stroke-opacity:1;stroke-miterlimit:4;" d="M 1388.634267 1386.905394 L 1870.578598 1085.93959 L 1703.644881 1494.686596 " transform="matrix(0.0998478,0,0,-0.0998478,0.00804348,183.440426)"/>
</g>
<path style=" stroke:none;fill-rule:evenodd;fill:rgb(65.174866%,34.87854%,37.449646%);fill-opacity:1;" d="M 75.988281 8.628906 L 128.929688 0.824219 L 138.660156 44.960938 L 75.988281 8.628906 "/>
<path style="fill:none;stroke-width:6.406;stroke-linecap:butt;stroke-linejoin:miter;stroke:rgb(13.729858%,12.159729%,12.548828%);stroke-opacity:1;stroke-miterlimit:4;" d="M 760.960361 1750.779428 L 1291.181281 1828.945251 L 1388.634267 1386.905394 " transform="matrix(0.0998478,0,0,-0.0998478,0.00804348,183.440426)"/>
<path style=" stroke:none;fill-rule:evenodd;fill:rgb(96.356201%,85.520935%,64.71405%);fill-opacity:1;" d="M 26.03125 145.246094 L 41.550781 123.734375 L 15.578125 64.917969 L 26.03125 145.246094 "/>
<path style="fill:none;stroke-width:6.406;stroke-linecap:butt;stroke-linejoin:miter;stroke:rgb(13.729858%,12.159729%,12.548828%);stroke-opacity:1;stroke-miterlimit:4;" d="M 260.628674 382.525427 L 416.060513 597.970466 L 155.938112 1187.030925 " transform="matrix(0.0998478,0,0,-0.0998478,0.00804348,183.440426)"/>
<path style=" stroke:none;fill-rule:evenodd;fill:rgb(79.640198%,82.595825%,85.487366%);fill-opacity:1;" d="M 26.03125 145.246094 L 41.550781 123.734375 L 96.597656 163.191406 L 26.03125 145.246094 "/>
<path style="fill:none;stroke-width:6.406;stroke-linecap:butt;stroke-linejoin:miter;stroke:rgb(13.729858%,12.159729%,12.548828%);stroke-opacity:1;stroke-miterlimit:4;" d="M 260.628674 382.525427 L 416.060513 597.970466 L 967.36821 202.798805 " transform="matrix(0.0998478,0,0,-0.0998478,0.00804348,183.440426)"/>
<g clip-path="url(#clip3)" clip-rule="nonzero">
<path style=" stroke:none;fill-rule:evenodd;fill:rgb(79.640198%,82.595825%,85.487366%);fill-opacity:1;" d="M 96.597656 163.191406 L 63.496094 183.039062 L 26.03125 145.246094 L 96.597656 163.191406 "/>
</g>
<g clip-path="url(#clip4)" clip-rule="nonzero">
<path style="fill:none;stroke-width:6.406;stroke-linecap:butt;stroke-linejoin:miter;stroke:rgb(13.729858%,12.159729%,12.548828%);stroke-opacity:1;stroke-miterlimit:4;" d="M 967.36821 202.798805 L 635.848098 4.019753 L 260.628674 382.525427 " transform="matrix(0.0998478,0,0,-0.0998478,0.00804348,183.440426)"/>
</g>
<path style=" stroke:none;fill-rule:evenodd;fill:rgb(39.138794%,62.322998%,85.122681%);fill-opacity:1;" d="M 118.867188 179.707031 L 155.769531 164.085938 L 96.597656 163.191406 L 118.867188 179.707031 "/>
<g clip-path="url(#clip5)" clip-rule="nonzero">
<path style="fill:none;stroke-width:6.406;stroke-linecap:butt;stroke-linejoin:miter;stroke:rgb(13.729858%,12.159729%,12.548828%);stroke-opacity:1;stroke-miterlimit:4;" d="M 1190.402923 37.390847 L 1559.988774 193.83986 L 967.36821 202.798805 " transform="matrix(0.0998478,0,0,-0.0998478,0.00804348,183.440426)"/>
</g>
<g clip-path="url(#clip6)" clip-rule="nonzero">
<path style=" stroke:none;fill-rule:evenodd;fill:rgb(39.138794%,62.322998%,85.122681%);fill-opacity:1;" d="M 96.597656 163.191406 L 63.496094 183.039062 L 118.867188 179.707031 L 96.597656 163.191406 "/>
</g>
<g clip-path="url(#clip7)" clip-rule="nonzero">
<path style="fill:none;stroke-width:6.406;stroke-linecap:butt;stroke-linejoin:miter;stroke:rgb(13.729858%,12.159729%,12.548828%);stroke-opacity:1;stroke-miterlimit:4;" d="M 967.36821 202.798805 L 635.848098 4.019753 L 1190.402923 37.390847 " transform="matrix(0.0998478,0,0,-0.0998478,0.00804348,183.440426)"/>
</g>
<path style=" stroke:none;fill-rule:evenodd;fill:rgb(56.436157%,53.218079%,69.512939%);fill-opacity:1;" d="M 163.867188 119.066406 L 155.769531 164.085938 L 96.597656 163.191406 L 163.867188 119.066406 "/>
<path style="fill:none;stroke-width:6.406;stroke-linecap:butt;stroke-linejoin:miter;stroke:rgb(13.729858%,12.159729%,12.548828%);stroke-opacity:1;stroke-miterlimit:4;" d="M 1641.088749 644.721296 L 1559.988774 193.83986 L 967.36821 202.798805 " transform="matrix(0.0998478,0,0,-0.0998478,0.00804348,183.440426)"/>
<path style=" stroke:none;fill-rule:evenodd;fill:rgb(16.821289%,25.598145%,48.284912%);fill-opacity:1;" d="M 163.867188 119.066406 L 155.769531 164.085938 L 186.882812 119.765625 L 163.867188 119.066406 "/>
<g clip-path="url(#clip8)" clip-rule="nonzero">
<path style="fill:none;stroke-width:6.406;stroke-linecap:butt;stroke-linejoin:miter;stroke:rgb(13.729858%,12.159729%,12.548828%);stroke-opacity:1;stroke-miterlimit:4;" d="M 1641.088749 644.721296 L 1559.988774 193.83986 L 1871.595771 637.718452 " transform="matrix(0.0998478,0,0,-0.0998478,0.00804348,183.440426)"/>
</g>
<path style=" stroke:none;fill-rule:evenodd;fill:rgb(16.821289%,25.598145%,48.284912%);fill-opacity:1;" d="M 186.882812 119.765625 L 186.78125 75.011719 L 163.867188 119.066406 L 186.882812 119.765625 "/>
<g clip-path="url(#clip9)" clip-rule="nonzero">
<path style="fill:none;stroke-width:6.406;stroke-linecap:butt;stroke-linejoin:miter;stroke:rgb(13.729858%,12.159729%,12.548828%);stroke-opacity:1;stroke-miterlimit:4;" d="M 1871.595771 637.718452 L 1870.578598 1085.93959 L 1641.088749 644.721296 " transform="matrix(0.0998478,0,0,-0.0998478,0.00804348,183.440426)"/>
</g>
<path style=" stroke:none;fill-rule:evenodd;fill:rgb(82.141113%,47.75238%,33.639526%);fill-opacity:1;" d="M 75.988281 8.628906 L 34.941406 14.554688 L 15.578125 64.917969 L 75.988281 8.628906 "/>
<path style="fill:none;stroke-width:6.406;stroke-linecap:butt;stroke-linejoin:miter;stroke:rgb(13.729858%,12.159729%,12.548828%);stroke-opacity:1;stroke-miterlimit:4;" d="M 760.960361 1750.779428 L 349.866033 1691.431303 L 155.938112 1187.030925 " transform="matrix(0.0998478,0,0,-0.0998478,0.00804348,183.440426)"/>
<path style=" stroke:none;fill-rule:evenodd;fill:rgb(20.314026%,20.646667%,31.96106%);fill-opacity:1;" d="M 19.125 58.371094 L 34.941406 14.554688 L 15.578125 64.917969 L 19.125 58.371094 "/>
<path style="fill:none;stroke-width:6.406;stroke-linecap:butt;stroke-linejoin:miter;stroke:rgb(13.729858%,12.159729%,12.548828%);stroke-opacity:1;stroke-miterlimit:4;" d="M 191.460919 1252.599453 L 349.866033 1691.431303 L 155.938112 1187.030925 " transform="matrix(0.0998478,0,0,-0.0998478,0.00804348,183.440426)"/>
<g clip-path="url(#clip10)" clip-rule="nonzero">
<path style=" stroke:none;fill-rule:evenodd;fill:rgb(96.356201%,85.520935%,64.71405%);fill-opacity:1;" d="M 15.578125 64.917969 L 0.386719 107.765625 L 26.03125 145.246094 L 15.578125 64.917969 "/>
</g>
<g clip-path="url(#clip11)" clip-rule="nonzero">
<path style="fill:none;stroke-width:6.406;stroke-linecap:butt;stroke-linejoin:miter;stroke:rgb(13.729858%,12.159729%,12.548828%);stroke-opacity:1;stroke-miterlimit:4;" d="M 155.938112 1187.030925 L 3.792524 757.901339 L 260.628674 382.525427 " transform="matrix(0.0998478,0,0,-0.0998478,0.00804348,183.440426)"/>
</g>
<g clip-path="url(#clip12)" clip-rule="nonzero">
<path style=" stroke:none;fill-rule:evenodd;fill:rgb(20.314026%,20.646667%,31.96106%);fill-opacity:1;" d="M 15.578125 64.917969 L 0.386719 107.765625 L 19.125 58.371094 L 15.578125 64.917969 "/>
</g>
<g clip-path="url(#clip13)" clip-rule="nonzero">
<path style="fill:none;stroke-width:6.406;stroke-linecap:butt;stroke-linejoin:miter;stroke:rgb(13.729858%,12.159729%,12.548828%);stroke-opacity:1;stroke-miterlimit:4;" d="M 155.938112 1187.030925 L 3.792524 757.901339 L 191.460919 1252.599453 " transform="matrix(0.0998478,0,0,-0.0998478,0.00804348,183.440426)"/>
</g>
<path style=" stroke:none;fill-rule:evenodd;fill:rgb(28.889465%,20.092773%,21.464539%);fill-opacity:1;" d="M 75.988281 8.628906 L 34.941406 14.554688 L 96.597656 5.402344 L 75.988281 8.628906 "/>
<path style="fill:none;stroke-width:6.406;stroke-linecap:butt;stroke-linejoin:miter;stroke:rgb(13.729858%,12.159729%,12.548828%);stroke-opacity:1;stroke-miterlimit:4;" d="M 760.960361 1750.779428 L 349.866033 1691.431303 L 967.36821 1783.094228 " transform="matrix(0.0998478,0,0,-0.0998478,0.00804348,183.440426)"/>
<path style=" stroke:none;fill-rule:evenodd;fill:rgb(28.889465%,20.092773%,21.464539%);fill-opacity:1;" d="M 96.597656 17.386719 L 128.929688 12.808594 L 75.988281 20.609375 L 96.597656 17.386719 "/>
<path style="fill:none;stroke-width:6.406;stroke-linecap:butt;stroke-linejoin:miter;stroke:rgb(13.729858%,12.159729%,12.548828%);stroke-opacity:1;stroke-miterlimit:4;" d="M 967.36821 1783.094228 L 1291.181281 1828.945251 L 760.960361 1750.779428 " transform="matrix(0.0998478,0,0,-0.0998478,0.00804348,183.440426)"/>
<path style=" stroke:none;fill-rule:evenodd;fill:rgb(94.480896%,86.627197%,49.710083%);fill-opacity:1;" d="M 186.882812 119.765625 L 186.78125 75.011719 L 170.113281 34.199219 L 186.882812 119.765625 "/>
<g clip-path="url(#clip14)" clip-rule="nonzero">
<path style="fill:none;stroke-width:6.406;stroke-linecap:butt;stroke-linejoin:miter;stroke:rgb(13.729858%,12.159729%,12.548828%);stroke-opacity:1;stroke-miterlimit:4;" d="M 1871.595771 637.718452 L 1870.578598 1085.93959 L 1703.644881 1494.686596 " transform="matrix(0.0998478,0,0,-0.0998478,0.00804348,183.440426)"/>
</g>
<path style=" stroke:none;fill-rule:evenodd;fill:rgb(79.747009%,37.902832%,16.835022%);fill-opacity:1;" d="M 118.867188 179.707031 L 155.769531 164.085938 L 186.882812 119.765625 L 118.867188 179.707031 "/>
<g clip-path="url(#clip15)" clip-rule="nonzero">
<path style="fill:none;stroke-width:6.406;stroke-linecap:butt;stroke-linejoin:miter;stroke:rgb(13.729858%,12.159729%,12.548828%);stroke-opacity:1;stroke-miterlimit:4;" d="M 1190.402923 37.390847 L 1559.988774 193.83986 L 1871.595771 637.718452 " transform="matrix(0.0998478,0,0,-0.0998478,0.00804348,183.440426)"/>
</g>
<g clip-path="url(#clip16)" clip-rule="nonzero">
<path style=" stroke:none;fill-rule:evenodd;fill:rgb(13.729858%,12.159729%,12.548828%);fill-opacity:1;" d="M 26.03125 145.246094 L 63.496094 183.039062 L 45.210938 146.933594 L 26.03125 145.246094 "/>
</g>
<g clip-path="url(#clip17)" clip-rule="nonzero">
<path style="fill:none;stroke-width:6.406;stroke-linecap:butt;stroke-linejoin:miter;stroke:rgb(13.729858%,12.159729%,12.548828%);stroke-opacity:1;stroke-miterlimit:4;" d="M 260.628674 382.525427 L 635.848098 4.019753 L 452.717859 365.624709 " transform="matrix(0.0998478,0,0,-0.0998478,0.00804348,183.440426)"/>
</g>
<g clip-path="url(#clip18)" clip-rule="nonzero">
<path style=" stroke:none;fill-rule:evenodd;fill:rgb(13.729858%,12.159729%,12.548828%);fill-opacity:1;" d="M 45.210938 146.933594 L 0.386719 107.765625 L 26.03125 145.246094 L 45.210938 146.933594 "/>
</g>
<g clip-path="url(#clip19)" clip-rule="nonzero">
<path style="fill:none;stroke-width:6.406;stroke-linecap:butt;stroke-linejoin:miter;stroke:rgb(13.729858%,12.159729%,12.548828%);stroke-opacity:1;stroke-miterlimit:4;" d="M 452.717859 365.624709 L 3.792524 757.901339 L 260.628674 382.525427 " transform="matrix(0.0998478,0,0,-0.0998478,0.00804348,183.440426)"/>
</g>
<path style=" stroke:none;fill-rule:evenodd;fill:rgb(76.350403%,89.460754%,90.513611%);fill-opacity:1;" d="M 96.597656 5.402344 L 128.929688 0.824219 L 170.113281 34.199219 L 96.597656 5.402344 "/>
<path style="fill:none;stroke-width:6.406;stroke-linecap:butt;stroke-linejoin:miter;stroke:rgb(13.729858%,12.159729%,12.548828%);stroke-opacity:1;stroke-miterlimit:4;" d="M 967.36821 1783.094228 L 1291.181281 1828.945251 L 1703.644881 1494.686596 " transform="matrix(0.0998478,0,0,-0.0998478,0.00804348,183.440426)"/>
<g clip-path="url(#clip20)" clip-rule="nonzero">
<path style=" stroke:none;fill-rule:evenodd;fill:rgb(60.516357%,25.317383%,28.303528%);fill-opacity:1;" d="M 118.867188 179.707031 L 63.496094 183.039062 L 45.210938 146.933594 L 118.867188 179.707031 "/>
</g>
<g clip-path="url(#clip21)" clip-rule="nonzero">
<path style="fill:none;stroke-width:6.406;stroke-linecap:butt;stroke-linejoin:miter;stroke:rgb(13.729858%,12.159729%,12.548828%);stroke-opacity:1;stroke-miterlimit:4;" d="M 1190.402923 37.390847 L 635.848098 4.019753 L 452.717859 365.624709 " transform="matrix(0.0998478,0,0,-0.0998478,0.00804348,183.440426)"/>
</g>
<path style=" stroke:none;fill-rule:evenodd;fill:rgb(94.480896%,86.627197%,49.710083%);fill-opacity:1;" d="M 170.113281 34.199219 L 163.480469 50.917969 L 186.882812 119.765625 L 170.113281 34.199219 "/>
<g clip-path="url(#clip22)" clip-rule="nonzero">
<path style="fill:none;stroke-width:6.406;stroke-linecap:butt;stroke-linejoin:miter;stroke:rgb(13.729858%,12.159729%,12.548828%);stroke-opacity:1;stroke-miterlimit:4;" d="M 1703.644881 1494.686596 L 1637.215668 1327.244293 L 1871.595771 637.718452 " transform="matrix(0.0998478,0,0,-0.0998478,0.00804348,183.440426)"/>
</g>
<path style=" stroke:none;fill-rule:evenodd;fill:rgb(76.350403%,89.460754%,90.513611%);fill-opacity:1;" d="M 170.113281 34.199219 L 163.480469 50.917969 L 96.597656 5.402344 L 170.113281 34.199219 "/>
<path style="fill:none;stroke-width:6.406;stroke-linecap:butt;stroke-linejoin:miter;stroke:rgb(13.729858%,12.159729%,12.548828%);stroke-opacity:1;stroke-miterlimit:4;" d="M 1703.644881 1494.686596 L 1637.215668 1327.244293 L 967.36821 1783.094228 " transform="matrix(0.0998478,0,0,-0.0998478,0.00804348,183.440426)"/>
<path style=" stroke:none;fill-rule:evenodd;fill:rgb(48.939514%,51.202393%,71.192932%);fill-opacity:1;" d="M 19.125 58.371094 L 34.941406 14.554688 L 96.597656 5.402344 L 19.125 58.371094 "/>
<path style="fill:none;stroke-width:6.406;stroke-linecap:butt;stroke-linejoin:miter;stroke:rgb(13.729858%,12.159729%,12.548828%);stroke-opacity:1;stroke-miterlimit:4;" d="M 191.460919 1252.599453 L 349.866033 1691.431303 L 967.36821 1783.094228 " transform="matrix(0.0998478,0,0,-0.0998478,0.00804348,183.440426)"/>
<g clip-path="url(#clip23)" clip-rule="nonzero">
<path style=" stroke:none;fill-rule:evenodd;fill:rgb(46.679688%,34.489441%,50.947571%);fill-opacity:1;" d="M 45.210938 146.933594 L 0.386719 107.765625 L 19.125 58.371094 L 45.210938 146.933594 "/>
</g>
<g clip-path="url(#clip24)" clip-rule="nonzero">
<path style="fill:none;stroke-width:6.406;stroke-linecap:butt;stroke-linejoin:miter;stroke:rgb(13.729858%,12.159729%,12.548828%);stroke-opacity:1;stroke-miterlimit:4;" d="M 452.717859 365.624709 L 3.792524 757.901339 L 191.460919 1252.599453 " transform="matrix(0.0998478,0,0,-0.0998478,0.00804348,183.440426)"/>
</g>
<path style=" stroke:none;fill-rule:evenodd;fill:rgb(60.516357%,25.317383%,28.303528%);fill-opacity:1;" d="M 45.210938 146.933594 L 127.65625 152.605469 L 118.867188 179.707031 L 45.210938 146.933594 "/>
<g clip-path="url(#clip25)" clip-rule="nonzero">
<path style="fill:none;stroke-width:6.406;stroke-linecap:butt;stroke-linejoin:miter;stroke:rgb(13.729858%,12.159729%,12.548828%);stroke-opacity:1;stroke-miterlimit:4;" d="M 452.717859 365.624709 L 1278.427498 308.819516 L 1190.402923 37.390847 " transform="matrix(0.0998478,0,0,-0.0998478,0.00804348,183.440426)"/>
</g>
<path style=" stroke:none;fill-rule:evenodd;fill:rgb(79.747009%,37.902832%,16.835022%);fill-opacity:1;" d="M 186.882812 119.765625 L 127.65625 152.605469 L 118.867188 179.707031 L 186.882812 119.765625 "/>
<g clip-path="url(#clip26)" clip-rule="nonzero">
<path style="fill:none;stroke-width:6.406;stroke-linecap:butt;stroke-linejoin:miter;stroke:rgb(13.729858%,12.159729%,12.548828%);stroke-opacity:1;stroke-miterlimit:4;" d="M 1871.595771 637.718452 L 1278.427498 308.819516 L 1190.402923 37.390847 " transform="matrix(0.0998478,0,0,-0.0998478,0.00804348,183.440426)"/>
</g>
<path style=" stroke:none;fill-rule:evenodd;fill:rgb(84.812927%,64.700317%,57.15332%);fill-opacity:1;" d="M 121.195312 90.53125 L 163.480469 50.917969 L 186.882812 119.765625 L 121.195312 90.53125 "/>
<g clip-path="url(#clip27)" clip-rule="nonzero">
<path style="fill:none;stroke-width:6.406;stroke-linecap:butt;stroke-linejoin:miter;stroke:rgb(13.729858%,12.159729%,12.548828%);stroke-opacity:1;stroke-miterlimit:4;" d="M 1213.719655 930.507751 L 1637.215668 1327.244293 L 1871.595771 637.718452 " transform="matrix(0.0998478,0,0,-0.0998478,0.00804348,183.440426)"/>
</g>
<path style=" stroke:none;fill-rule:evenodd;fill:rgb(84.812927%,64.700317%,57.15332%);fill-opacity:1;" d="M 186.882812 119.765625 L 127.65625 152.605469 L 121.195312 90.53125 L 186.882812 119.765625 "/>
<g clip-path="url(#clip28)" clip-rule="nonzero">
<path style="fill:none;stroke-width:6.406;stroke-linecap:butt;stroke-linejoin:miter;stroke:rgb(13.729858%,12.159729%,12.548828%);stroke-opacity:1;stroke-miterlimit:4;" d="M 1871.595771 637.718452 L 1278.427498 308.819516 L 1213.719655 930.507751 " transform="matrix(0.0998478,0,0,-0.0998478,0.00804348,183.440426)"/>
</g>
<path style=" stroke:none;fill-rule:evenodd;fill:rgb(46.679688%,34.489441%,50.947571%);fill-opacity:1;" d="M 19.125 58.371094 L 59.023438 68.222656 L 45.210938 146.933594 L 19.125 58.371094 "/>
<path style="fill:none;stroke-width:6.406;stroke-linecap:butt;stroke-linejoin:miter;stroke:rgb(13.729858%,12.159729%,12.548828%);stroke-opacity:1;stroke-miterlimit:4;" d="M 191.460919 1252.599453 L 591.053369 1153.933684 L 452.717859 365.624709 " transform="matrix(0.0998478,0,0,-0.0998478,0.00804348,183.440426)"/>
<path style=" stroke:none;fill-rule:evenodd;fill:rgb(48.939514%,51.202393%,71.192932%);fill-opacity:1;" d="M 96.597656 5.402344 L 59.023438 68.222656 L 19.125 58.371094 L 96.597656 5.402344 "/>
<path style="fill:none;stroke-width:6.406;stroke-linecap:butt;stroke-linejoin:miter;stroke:rgb(13.729858%,12.159729%,12.548828%);stroke-opacity:1;stroke-miterlimit:4;" d="M 967.36821 1783.094228 L 591.053369 1153.933684 L 191.460919 1252.599453 " transform="matrix(0.0998478,0,0,-0.0998478,0.00804348,183.440426)"/>
<path style=" stroke:none;fill-rule:evenodd;fill:rgb(73.451233%,64.547729%,70.613098%);fill-opacity:1;" d="M 121.195312 90.53125 L 163.480469 50.917969 L 96.597656 5.402344 L 121.195312 90.53125 "/>
<path style="fill:none;stroke-width:6.406;stroke-linecap:butt;stroke-linejoin:miter;stroke:rgb(13.729858%,12.159729%,12.548828%);stroke-opacity:1;stroke-miterlimit:4;" d="M 1213.719655 930.507751 L 1637.215668 1327.244293 L 967.36821 1783.094228 " transform="matrix(0.0998478,0,0,-0.0998478,0.00804348,183.440426)"/>
<path style=" stroke:none;fill-rule:evenodd;fill:rgb(73.451233%,64.547729%,70.613098%);fill-opacity:1;" d="M 96.597656 5.402344 L 59.023438 68.222656 L 121.195312 90.53125 L 96.597656 5.402344 "/>
<path style="fill:none;stroke-width:6.406;stroke-linecap:butt;stroke-linejoin:miter;stroke:rgb(13.729858%,12.159729%,12.548828%);stroke-opacity:1;stroke-miterlimit:4;" d="M 967.36821 1783.094228 L 591.053369 1153.933684 L 1213.719655 930.507751 " transform="matrix(0.0998478,0,0,-0.0998478,0.00804348,183.440426)"/>
<path style=" stroke:none;fill-rule:evenodd;fill:rgb(68.574524%,48.760986%,53.968811%);fill-opacity:1;" d="M 121.195312 90.53125 L 59.023438 68.222656 L 45.210938 146.933594 L 121.195312 90.53125 "/>
<path style="fill:none;stroke-width:6.406;stroke-linecap:butt;stroke-linejoin:miter;stroke:rgb(13.729858%,12.159729%,12.548828%);stroke-opacity:1;stroke-miterlimit:4;" d="M 1213.719655 930.507751 L 591.053369 1153.933684 L 452.717859 365.624709 " transform="matrix(0.0998478,0,0,-0.0998478,0.00804348,183.440426)"/>
<path style=" stroke:none;fill-rule:evenodd;fill:rgb(68.574524%,48.760986%,53.968811%);fill-opacity:1;" d="M 45.210938 146.933594 L 127.65625 152.605469 L 121.195312 90.53125 L 45.210938 146.933594 "/>
<path style="fill:none;stroke-width:6.406;stroke-linecap:butt;stroke-linejoin:miter;stroke:rgb(13.729858%,12.159729%,12.548828%);stroke-opacity:1;stroke-miterlimit:4;" d="M 452.717859 365.624709 L 1278.427498 308.819516 L 1213.719655 930.507751 " transform="matrix(0.0998478,0,0,-0.0998478,0.00804348,183.440426)"/>
</g>
</svg>
