<?xml version="1.0" encoding="UTF-8"?>
<svg xmlns="http://www.w3.org/2000/svg" xmlns:xlink="http://www.w3.org/1999/xlink" width="198.19pt" height="201.19pt" viewBox="0 0 198.19 201.19" version="1.2">
<g id="surface1">
<path style=" stroke:none;fill-rule:nonzero;fill:rgb(72.459412%,60.742188%,72.65625%);fill-opacity:1;" d="M 72.601562 102.960938 L 100.773438 98.542969 L 107.464844 142.988281 "/>
<path style="fill:none;stroke-width:5;stroke-linecap:round;stroke-linejoin:round;stroke:rgb(0%,0%,0%);stroke-opacity:1;stroke-miterlimit:10;" d="M 728.982842 978.143929 L 1011.852973 1022.504179 L 1079.040512 576.23458 Z M 728.982842 978.143929 " transform="matrix(0.099593,0,0,-0.099593,0,200.377191)"/>
<path style=" stroke:none;fill-rule:nonzero;fill:rgb(67.576599%,56.25%,71.875%);fill-opacity:1;" d="M 128.910156 94.394531 L 100.773438 98.542969 L 107.464844 142.988281 "/>
<path style="fill:none;stroke-width:5;stroke-linecap:round;stroke-linejoin:round;stroke:rgb(0%,0%,0%);stroke-opacity:1;stroke-miterlimit:10;" d="M 1294.370104 1064.1581 L 1011.852973 1022.504179 L 1079.040512 576.23458 Z M 1294.370104 1064.1581 " transform="matrix(0.099593,0,0,-0.099593,0,200.377191)"/>
<path style=" stroke:none;fill-rule:nonzero;fill:rgb(73.242188%,57.421875%,67.771912%);fill-opacity:1;" d="M 93.921875 54.28125 L 100.773438 98.542969 L 72.601562 102.960938 "/>
<path style="fill:none;stroke-width:5;stroke-linecap:round;stroke-linejoin:round;stroke:rgb(0%,0%,0%);stroke-opacity:1;stroke-miterlimit:10;" d="M 943.057325 1466.930337 L 1011.852973 1022.504179 L 728.982842 978.143929 Z M 943.057325 1466.930337 " transform="matrix(0.099593,0,0,-0.099593,0,200.377191)"/>
<path style=" stroke:none;fill-rule:nonzero;fill:rgb(68.359375%,52.929688%,66.992188%);fill-opacity:1;" d="M 93.921875 54.28125 L 100.773438 98.542969 L 128.910156 94.394531 "/>
<path style="fill:none;stroke-width:5;stroke-linecap:round;stroke-linejoin:round;stroke:rgb(0%,0%,0%);stroke-opacity:1;stroke-miterlimit:10;" d="M 943.057325 1466.930337 L 1011.852973 1022.504179 L 1294.370104 1064.1581 Z M 943.057325 1466.930337 " transform="matrix(0.099593,0,0,-0.099593,0,200.377191)"/>
<path style=" stroke:none;fill-rule:nonzero;fill:rgb(75.976562%,66.40625%,75.78125%);fill-opacity:1;" d="M 72.601562 102.960938 L 64.996094 129.375 L 107.464844 142.988281 "/>
<path style="fill:none;stroke-width:5;stroke-linecap:round;stroke-linejoin:round;stroke:rgb(0%,0%,0%);stroke-opacity:1;stroke-miterlimit:10;" d="M 728.982842 978.143929 L 652.61732 712.923765 L 1079.040512 576.23458 Z M 728.982842 978.143929 " transform="matrix(0.099593,0,0,-0.099593,0,200.377191)"/>
<path style=" stroke:none;fill-rule:nonzero;fill:rgb(80.859375%,69.139099%,73.4375%);fill-opacity:1;" d="M 25.453125 111.230469 L 64.996094 129.375 L 72.601562 102.960938 "/>
<path style="fill:none;stroke-width:5;stroke-linecap:round;stroke-linejoin:round;stroke:rgb(0%,0%,0%);stroke-opacity:1;stroke-miterlimit:10;" d="M 255.571516 895.110642 L 652.61732 712.923765 L 728.982842 978.143929 Z M 255.571516 895.110642 " transform="matrix(0.099593,0,0,-0.099593,0,200.377191)"/>
<path style=" stroke:none;fill-rule:nonzero;fill:rgb(81.639099%,65.234375%,67.96875%);fill-opacity:1;" d="M 25.453125 111.230469 L 57.445312 80.722656 L 72.601562 102.960938 "/>
<path style="fill:none;stroke-width:5;stroke-linecap:round;stroke-linejoin:round;stroke:rgb(0%,0%,0%);stroke-opacity:1;stroke-miterlimit:10;" d="M 255.571516 895.110642 L 576.800908 1201.435618 L 728.982842 978.143929 Z M 255.571516 895.110642 " transform="matrix(0.099593,0,0,-0.099593,0,200.377191)"/>
<path style=" stroke:none;fill-rule:nonzero;fill:rgb(77.539062%,59.375%,65.234375%);fill-opacity:1;" d="M 93.921875 54.28125 L 57.445312 80.722656 L 72.601562 102.960938 "/>
<path style="fill:none;stroke-width:5;stroke-linecap:round;stroke-linejoin:round;stroke:rgb(0%,0%,0%);stroke-opacity:1;stroke-miterlimit:10;" d="M 943.057325 1466.930337 L 576.800908 1201.435618 L 728.982842 978.143929 Z M 943.057325 1466.930337 " transform="matrix(0.099593,0,0,-0.099593,0,200.377191)"/>
<path style=" stroke:none;fill-rule:nonzero;fill:rgb(76.951599%,71.875%,80.46875%);fill-opacity:1;" d="M 107.464844 142.988281 L 64.996094 129.375 L 60.175781 154.484375 "/>
<path style="fill:none;stroke-width:5;stroke-linecap:round;stroke-linejoin:round;stroke:rgb(0%,0%,0%);stroke-opacity:1;stroke-miterlimit:10;" d="M 1079.040512 576.23458 L 652.61732 712.923765 L 604.217189 460.803798 Z M 1079.040512 576.23458 " transform="matrix(0.099593,0,0,-0.099593,0,200.377191)"/>
<path style=" stroke:none;fill-rule:nonzero;fill:rgb(74.021912%,74.609375%,85.742188%);fill-opacity:1;" d="M 107.464844 142.988281 L 85.203125 169.949219 L 60.175781 154.484375 "/>
<path style="fill:none;stroke-width:5;stroke-linecap:round;stroke-linejoin:round;stroke:rgb(0%,0%,0%);stroke-opacity:1;stroke-miterlimit:10;" d="M 1079.040512 576.23458 L 855.513491 305.523314 L 604.217189 460.803798 Z M 1079.040512 576.23458 " transform="matrix(0.099593,0,0,-0.099593,0,200.377191)"/>
<path style=" stroke:none;fill-rule:nonzero;fill:rgb(67.1875%,72.851562%,89.256287%);fill-opacity:1;" d="M 107.464844 142.988281 L 85.203125 169.949219 L 112.320312 179.601562 "/>
<path style="fill:none;stroke-width:5;stroke-linecap:round;stroke-linejoin:round;stroke:rgb(0%,0%,0%);stroke-opacity:1;stroke-miterlimit:10;" d="M 1079.040512 576.23458 L 855.513491 305.523314 L 1127.793642 208.605387 Z M 1079.040512 576.23458 " transform="matrix(0.099593,0,0,-0.099593,0,200.377191)"/>
<path style=" stroke:none;fill-rule:nonzero;fill:rgb(59.959412%,66.209412%,88.084412%);fill-opacity:1;" d="M 107.464844 142.988281 L 135.746094 162.359375 L 112.320312 179.601562 "/>
<path style="fill:none;stroke-width:5;stroke-linecap:round;stroke-linejoin:round;stroke:rgb(0%,0%,0%);stroke-opacity:1;stroke-miterlimit:10;" d="M 1079.040512 576.23458 L 1363.008863 381.731948 L 1127.793642 208.605387 Z M 1079.040512 576.23458 " transform="matrix(0.099593,0,0,-0.099593,0,200.377191)"/>
<path style=" stroke:none;fill-rule:nonzero;fill:rgb(58.201599%,54.296875%,77.734375%);fill-opacity:1;" d="M 155.351562 140.136719 L 143.761719 117.453125 L 107.464844 142.988281 "/>
<path style="fill:none;stroke-width:5;stroke-linecap:round;stroke-linejoin:round;stroke:rgb(0%,0%,0%);stroke-opacity:1;stroke-miterlimit:10;" d="M 1559.864824 604.866748 L 1443.492711 832.629761 L 1079.040512 576.23458 Z M 1559.864824 604.866748 " transform="matrix(0.099593,0,0,-0.099593,0,200.377191)"/>
<path style=" stroke:none;fill-rule:nonzero;fill:rgb(56.639099%,58.789062%,83.201599%);fill-opacity:1;" d="M 155.351562 140.136719 L 135.746094 162.359375 L 107.464844 142.988281 "/>
<path style="fill:none;stroke-width:5;stroke-linecap:round;stroke-linejoin:round;stroke:rgb(0%,0%,0%);stroke-opacity:1;stroke-miterlimit:10;" d="M 1559.864824 604.866748 L 1363.008863 381.731948 L 1079.040512 576.23458 Z M 1559.864824 604.866748 " transform="matrix(0.099593,0,0,-0.099593,0,200.377191)"/>
<path style=" stroke:none;fill-rule:nonzero;fill:rgb(62.5%,53.709412%,73.631287%);fill-opacity:1;" d="M 128.910156 94.394531 L 143.761719 117.453125 L 107.464844 142.988281 "/>
<path style="fill:none;stroke-width:5;stroke-linecap:round;stroke-linejoin:round;stroke:rgb(0%,0%,0%);stroke-opacity:1;stroke-miterlimit:10;" d="M 1294.370104 1064.1581 L 1443.492711 832.629761 L 1079.040512 576.23458 Z M 1294.370104 1064.1581 " transform="matrix(0.099593,0,0,-0.099593,0,200.377191)"/>
<path style=" stroke:none;fill-rule:nonzero;fill:rgb(57.8125%,42.797852%,64.0625%);fill-opacity:1;" d="M 175.714844 88.375 L 136.4375 68.65625 L 128.910156 94.394531 "/>
<path style="fill:none;stroke-width:5;stroke-linecap:round;stroke-linejoin:round;stroke:rgb(0%,0%,0%);stroke-opacity:1;stroke-miterlimit:10;" d="M 1764.329881 1124.59943 L 1369.951183 1322.592833 L 1294.370104 1064.1581 Z M 1764.329881 1124.59943 " transform="matrix(0.099593,0,0,-0.099593,0,200.377191)"/>
<path style=" stroke:none;fill-rule:nonzero;fill:rgb(57.03125%,46.801758%,69.921875%);fill-opacity:1;" d="M 175.714844 88.375 L 143.761719 117.453125 L 128.910156 94.394531 "/>
<path style="fill:none;stroke-width:5;stroke-linecap:round;stroke-linejoin:round;stroke:rgb(0%,0%,0%);stroke-opacity:1;stroke-miterlimit:10;" d="M 1764.329881 1124.59943 L 1443.492711 832.629761 L 1294.370104 1064.1581 Z M 1764.329881 1124.59943 " transform="matrix(0.099593,0,0,-0.099593,0,200.377191)"/>
<path style=" stroke:none;fill-rule:nonzero;fill:rgb(63.867188%,46.289062%,63.084412%);fill-opacity:1;" d="M 93.921875 54.28125 L 136.4375 68.65625 L 128.910156 94.394531 "/>
<path style="fill:none;stroke-width:5;stroke-linecap:round;stroke-linejoin:round;stroke:rgb(0%,0%,0%);stroke-opacity:1;stroke-miterlimit:10;" d="M 943.057325 1466.930337 L 1369.951183 1322.592833 L 1294.370104 1064.1581 Z M 943.057325 1466.930337 " transform="matrix(0.099593,0,0,-0.099593,0,200.377191)"/>
<path style=" stroke:none;fill-rule:nonzero;fill:rgb(80.076599%,57.226562%,59.179688%);fill-opacity:1;" d="M 93.921875 54.28125 L 57.445312 80.722656 L 45.339844 59.269531 "/>
<path style="fill:none;stroke-width:5;stroke-linecap:round;stroke-linejoin:round;stroke:rgb(0%,0%,0%);stroke-opacity:1;stroke-miterlimit:10;" d="M 943.057325 1466.930337 L 576.800908 1201.435618 L 455.251471 1416.843654 Z M 943.057325 1466.930337 " transform="matrix(0.099593,0,0,-0.099593,0,200.377191)"/>
<path style=" stroke:none;fill-rule:nonzero;fill:rgb(60.742188%,38.890076%,55.859375%);fill-opacity:1;" d="M 141.058594 44.582031 L 136.4375 68.65625 L 93.921875 54.28125 "/>
<path style="fill:none;stroke-width:5;stroke-linecap:round;stroke-linejoin:round;stroke:rgb(0%,0%,0%);stroke-opacity:1;stroke-miterlimit:10;" d="M 1416.350984 1564.31893 L 1369.951183 1322.592833 L 943.057325 1466.930337 Z M 1416.350984 1564.31893 " transform="matrix(0.099593,0,0,-0.099593,0,200.377191)"/>
<path style=" stroke:none;fill-rule:nonzero;fill:rgb(79.101562%,50.584412%,50.389099%);fill-opacity:1;" d="M 64.730469 37.304688 L 45.339844 59.269531 L 93.921875 54.28125 "/>
<path style="fill:none;stroke-width:5;stroke-linecap:round;stroke-linejoin:round;stroke:rgb(0%,0%,0%);stroke-opacity:1;stroke-miterlimit:10;" d="M 649.950213 1637.389792 L 455.251471 1416.843654 L 943.057325 1466.930337 Z M 649.950213 1637.389792 " transform="matrix(0.099593,0,0,-0.099593,0,200.377191)"/>
<path style=" stroke:none;fill-rule:nonzero;fill:rgb(60.9375%,33.105469%,47.093201%);fill-opacity:1;" d="M 115.675781 29.457031 L 141.058594 44.582031 L 93.921875 54.28125 "/>
<path style="fill:none;stroke-width:5;stroke-linecap:round;stroke-linejoin:round;stroke:rgb(0%,0%,0%);stroke-opacity:1;stroke-miterlimit:10;" d="M 1161.485467 1716.187087 L 1416.350984 1564.31893 L 943.057325 1466.930337 Z M 1161.485467 1716.187087 " transform="matrix(0.099593,0,0,-0.099593,0,200.377191)"/>
<path style=" stroke:none;fill-rule:nonzero;fill:rgb(73.4375%,40.501404%,42.30957%);fill-opacity:1;" d="M 88.039062 20.59375 L 64.730469 37.304688 L 93.921875 54.28125 "/>
<path style="fill:none;stroke-width:5;stroke-linecap:round;stroke-linejoin:round;stroke:rgb(0%,0%,0%);stroke-opacity:1;stroke-miterlimit:10;" d="M 883.98877 1805.182141 L 649.950213 1637.389792 L 943.057325 1466.930337 Z M 883.98877 1805.182141 " transform="matrix(0.099593,0,0,-0.099593,0,200.377191)"/>
<path style=" stroke:none;fill-rule:nonzero;fill:rgb(65.625%,33.105469%,40.893555%);fill-opacity:1;" d="M 88.039062 20.59375 L 115.675781 29.457031 L 93.921875 54.28125 "/>
<path style="fill:none;stroke-width:5;stroke-linecap:round;stroke-linejoin:round;stroke:rgb(0%,0%,0%);stroke-opacity:1;stroke-miterlimit:10;" d="M 883.98877 1805.182141 L 1161.485467 1716.187087 L 943.057325 1466.930337 Z M 883.98877 1805.182141 " transform="matrix(0.099593,0,0,-0.099593,0,200.377191)"/>
<path style=" stroke:none;fill-rule:nonzero;fill:rgb(82.226562%,75.193787%,78.318787%);fill-opacity:1;" d="M 25.453125 111.230469 L 64.996094 129.375 L 60.175781 154.484375 "/>
<path style="fill:none;stroke-width:5;stroke-linecap:round;stroke-linejoin:round;stroke:rgb(0%,0%,0%);stroke-opacity:1;stroke-miterlimit:10;" d="M 255.571516 895.110642 L 652.61732 712.923765 L 604.217189 460.803798 Z M 255.571516 895.110642 " transform="matrix(0.099593,0,0,-0.099593,0,200.377191)"/>
<path style=" stroke:none;fill-rule:nonzero;fill:rgb(51.5625%,46.409607%,73.631287%);fill-opacity:1;" d="M 175.714844 88.375 L 143.761719 117.453125 L 155.351562 140.136719 "/>
<path style="fill:none;stroke-width:5;stroke-linecap:round;stroke-linejoin:round;stroke:rgb(0%,0%,0%);stroke-opacity:1;stroke-miterlimit:10;" d="M 1764.329881 1124.59943 L 1443.492711 832.629761 L 1559.864824 604.866748 Z M 1764.329881 1124.59943 " transform="matrix(0.099593,0,0,-0.099593,0,200.377191)"/>
<path style=" stroke:none;fill-rule:nonzero;fill:rgb(84.959412%,63.867188%,61.71875%);fill-opacity:1;" d="M 45.339844 59.269531 L 57.445312 80.722656 L 25.453125 111.230469 "/>
<path style="fill:none;stroke-width:5;stroke-linecap:round;stroke-linejoin:round;stroke:rgb(0%,0%,0%);stroke-opacity:1;stroke-miterlimit:10;" d="M 455.251471 1416.843654 L 576.800908 1201.435618 L 255.571516 895.110642 Z M 455.251471 1416.843654 " transform="matrix(0.099593,0,0,-0.099593,0,200.377191)"/>
<path style=" stroke:none;fill-rule:nonzero;fill:rgb(53.318787%,34.104919%,56.443787%);fill-opacity:1;" d="M 141.058594 44.582031 L 136.4375 68.65625 L 175.714844 88.375 "/>
<path style="fill:none;stroke-width:5;stroke-linecap:round;stroke-linejoin:round;stroke:rgb(0%,0%,0%);stroke-opacity:1;stroke-miterlimit:10;" d="M 1416.350984 1564.31893 L 1369.951183 1322.592833 L 1764.329881 1124.59943 Z M 1416.350984 1564.31893 " transform="matrix(0.099593,0,0,-0.099593,0,200.377191)"/>
<path style=" stroke:none;fill-rule:nonzero;fill:rgb(75.976562%,83.201599%,90.625%);fill-opacity:1;" d="M 62.34375 189.980469 L 85.203125 169.949219 L 60.175781 154.484375 "/>
<path style="fill:none;stroke-width:5;stroke-linecap:round;stroke-linejoin:round;stroke:rgb(0%,0%,0%);stroke-opacity:1;stroke-miterlimit:10;" d="M 625.985481 104.39214 L 855.513491 305.523314 L 604.217189 460.803798 Z M 625.985481 104.39214 " transform="matrix(0.099593,0,0,-0.099593,0,200.377191)"/>
<path style=" stroke:none;fill-rule:nonzero;fill:rgb(83.201599%,88.867188%,88.28125%);fill-opacity:1;" d="M 62.34375 189.980469 L 38.75 152.898438 L 60.175781 154.484375 "/>
<path style="fill:none;stroke-width:5;stroke-linecap:round;stroke-linejoin:round;stroke:rgb(0%,0%,0%);stroke-opacity:1;stroke-miterlimit:10;" d="M 625.985481 104.39214 L 389.083708 476.72799 L 604.217189 460.803798 Z M 625.985481 104.39214 " transform="matrix(0.099593,0,0,-0.099593,0,200.377191)"/>
<path style=" stroke:none;fill-rule:nonzero;fill:rgb(86.521912%,83.396912%,81.25%);fill-opacity:1;" d="M 25.453125 111.230469 L 38.75 152.898438 L 60.175781 154.484375 "/>
<path style="fill:none;stroke-width:5;stroke-linecap:round;stroke-linejoin:round;stroke:rgb(0%,0%,0%);stroke-opacity:1;stroke-miterlimit:10;" d="M 255.571516 895.110642 L 389.083708 476.72799 L 604.217189 460.803798 Z M 255.571516 895.110642 " transform="matrix(0.099593,0,0,-0.099593,0,200.377191)"/>
<path style=" stroke:none;fill-rule:nonzero;fill:rgb(33.105469%,42.405701%,80.664062%);fill-opacity:1;" d="M 162.246094 175.023438 L 174.710938 132.386719 L 155.351562 140.136719 "/>
<path style="fill:none;stroke-width:5;stroke-linecap:round;stroke-linejoin:round;stroke:rgb(0%,0%,0%);stroke-opacity:1;stroke-miterlimit:10;" d="M 1629.091915 254.573744 L 1754.249789 682.683489 L 1559.864824 604.866748 Z M 1629.091915 254.573744 " transform="matrix(0.099593,0,0,-0.099593,0,200.377191)"/>
<path style=" stroke:none;fill-rule:nonzero;fill:rgb(45.288086%,54.881287%,86.326599%);fill-opacity:1;" d="M 162.246094 175.023438 L 135.746094 162.359375 L 155.351562 140.136719 "/>
<path style="fill:none;stroke-width:5;stroke-linecap:round;stroke-linejoin:round;stroke:rgb(0%,0%,0%);stroke-opacity:1;stroke-miterlimit:10;" d="M 1629.091915 254.573744 L 1363.008863 381.731948 L 1559.864824 604.866748 Z M 1629.091915 254.573744 " transform="matrix(0.099593,0,0,-0.099593,0,200.377191)"/>
<path style=" stroke:none;fill-rule:nonzero;fill:rgb(39.305115%,39.305115%,74.021912%);fill-opacity:1;" d="M 175.714844 88.375 L 174.710938 132.386719 L 155.351562 140.136719 "/>
<path style="fill:none;stroke-width:5;stroke-linecap:round;stroke-linejoin:round;stroke:rgb(0%,0%,0%);stroke-opacity:1;stroke-miterlimit:10;" d="M 1764.329881 1124.59943 L 1754.249789 682.683489 L 1559.864824 604.866748 Z M 1764.329881 1124.59943 " transform="matrix(0.099593,0,0,-0.099593,0,200.377191)"/>
<path style=" stroke:none;fill-rule:nonzero;fill:rgb(92.96875%,91.209412%,77.929688%);fill-opacity:1;" d="M 25.453125 111.230469 L 38.75 152.898438 L 21.460938 146.226562 "/>
<path style="fill:none;stroke-width:5;stroke-linecap:round;stroke-linejoin:round;stroke:rgb(0%,0%,0%);stroke-opacity:1;stroke-miterlimit:10;" d="M 255.571516 895.110642 L 389.083708 476.72799 L 215.486481 543.719419 Z M 255.571516 895.110642 " transform="matrix(0.099593,0,0,-0.099593,0,200.377191)"/>
<path style=" stroke:none;fill-rule:nonzero;fill:rgb(98.046875%,91.209412%,63.867188%);fill-opacity:1;" d="M 12.183594 115.113281 L 21.460938 146.226562 L 25.453125 111.230469 "/>
<path style="fill:none;stroke-width:5;stroke-linecap:round;stroke-linejoin:round;stroke:rgb(0%,0%,0%);stroke-opacity:1;stroke-miterlimit:10;" d="M 122.333879 856.123827 L 215.486481 543.719419 L 255.571516 895.110642 Z M 122.333879 856.123827 " transform="matrix(0.099593,0,0,-0.099593,0,200.377191)"/>
<path style=" stroke:none;fill-rule:nonzero;fill:rgb(90.818787%,65.818787%,54.881287%);fill-opacity:1;" d="M 45.339844 59.269531 L 25.558594 68.929688 L 25.453125 111.230469 "/>
<path style="fill:none;stroke-width:5;stroke-linecap:round;stroke-linejoin:round;stroke:rgb(0%,0%,0%);stroke-opacity:1;stroke-miterlimit:10;" d="M 455.251471 1416.843654 L 256.630514 1319.847282 L 255.571516 895.110642 Z M 455.251471 1416.843654 " transform="matrix(0.099593,0,0,-0.099593,0,200.377191)"/>
<path style=" stroke:none;fill-rule:nonzero;fill:rgb(100%,82.226562%,49.804688%);fill-opacity:1;" d="M 11.394531 82.570312 L 12.183594 115.113281 L 25.453125 111.230469 "/>
<path style="fill:none;stroke-width:5;stroke-linecap:round;stroke-linejoin:round;stroke:rgb(0%,0%,0%);stroke-opacity:1;stroke-miterlimit:10;" d="M 114.411006 1182.883542 L 122.333879 856.123827 L 255.571516 895.110642 Z M 114.411006 1182.883542 " transform="matrix(0.099593,0,0,-0.099593,0,200.377191)"/>
<path style=" stroke:none;fill-rule:nonzero;fill:rgb(97.459412%,72.264099%,48.706055%);fill-opacity:1;" d="M 11.394531 82.570312 L 25.558594 68.929688 L 25.453125 111.230469 "/>
<path style="fill:none;stroke-width:5;stroke-linecap:round;stroke-linejoin:round;stroke:rgb(0%,0%,0%);stroke-opacity:1;stroke-miterlimit:10;" d="M 114.411006 1182.883542 L 256.630514 1319.847282 L 255.571516 895.110642 Z M 114.411006 1182.883542 " transform="matrix(0.099593,0,0,-0.099593,0,200.377191)"/>
<path style=" stroke:none;fill-rule:nonzero;fill:rgb(90.429688%,56.834412%,40.087891%);fill-opacity:1;" d="M 37.074219 27.976562 L 25.558594 68.929688 L 45.339844 59.269531 "/>
<path style="fill:none;stroke-width:5;stroke-linecap:round;stroke-linejoin:round;stroke:rgb(0%,0%,0%);stroke-opacity:1;stroke-miterlimit:10;" d="M 372.257406 1731.052281 L 256.630514 1319.847282 L 455.251471 1416.843654 Z M 372.257406 1731.052281 " transform="matrix(0.099593,0,0,-0.099593,0,200.377191)"/>
<path style=" stroke:none;fill-rule:nonzero;fill:rgb(83.201599%,48.193359%,38.890076%);fill-opacity:1;" d="M 37.074219 27.976562 L 64.730469 37.304688 L 45.339844 59.269531 "/>
<path style="fill:none;stroke-width:5;stroke-linecap:round;stroke-linejoin:round;stroke:rgb(0%,0%,0%);stroke-opacity:1;stroke-miterlimit:10;" d="M 372.257406 1731.052281 L 649.950213 1637.389792 L 455.251471 1416.843654 Z M 372.257406 1731.052281 " transform="matrix(0.099593,0,0,-0.099593,0,200.377191)"/>
<path style=" stroke:none;fill-rule:nonzero;fill:rgb(17.405701%,20.896912%,65.818787%);fill-opacity:1;" d="M 175.714844 88.375 L 174.710938 132.386719 L 188.453125 120.992188 "/>
<path style="fill:none;stroke-width:5;stroke-linecap:round;stroke-linejoin:round;stroke:rgb(0%,0%,0%);stroke-opacity:1;stroke-miterlimit:10;" d="M 1764.329881 1124.59943 L 1754.249789 682.683489 L 1892.233305 797.094495 Z M 1764.329881 1124.59943 " transform="matrix(0.099593,0,0,-0.099593,0,200.377191)"/>
<path style=" stroke:none;fill-rule:nonzero;fill:rgb(0%,0%,45.506287%);fill-opacity:1;" d="M 188.042969 88.375 L 188.453125 120.992188 L 175.714844 88.375 "/>
<path style="fill:none;stroke-width:5;stroke-linecap:round;stroke-linejoin:round;stroke:rgb(0%,0%,0%);stroke-opacity:1;stroke-miterlimit:10;" d="M 1888.11498 1124.59943 L 1892.233305 797.094495 L 1764.329881 1124.59943 Z M 1888.11498 1124.59943 " transform="matrix(0.099593,0,0,-0.099593,0,200.377191)"/>
<path style=" stroke:none;fill-rule:nonzero;fill:rgb(41.601562%,19.189453%,46.289062%);fill-opacity:1;" d="M 162.199219 47.988281 L 141.058594 44.582031 L 175.714844 88.375 "/>
<path style="fill:none;stroke-width:5;stroke-linecap:round;stroke-linejoin:round;stroke:rgb(0%,0%,0%);stroke-opacity:1;stroke-miterlimit:10;" d="M 1628.621249 1530.117217 L 1416.350984 1564.31893 L 1764.329881 1124.59943 Z M 1628.621249 1530.117217 " transform="matrix(0.099593,0,0,-0.099593,0,200.377191)"/>
<path style=" stroke:none;fill-rule:nonzero;fill:rgb(18.701172%,0%,34.397888%);fill-opacity:1;" d="M 179.019531 56.933594 L 162.199219 47.988281 L 175.714844 88.375 "/>
<path style="fill:none;stroke-width:5;stroke-linecap:round;stroke-linejoin:round;stroke:rgb(0%,0%,0%);stroke-opacity:1;stroke-miterlimit:10;" d="M 1797.511818 1440.298499 L 1628.621249 1530.117217 L 1764.329881 1124.59943 Z M 1797.511818 1440.298499 " transform="matrix(0.099593,0,0,-0.099593,0,200.377191)"/>
<path style=" stroke:none;fill-rule:nonzero;fill:rgb(0%,0%,30.297852%);fill-opacity:1;" d="M 179.019531 56.933594 L 188.042969 88.375 L 175.714844 88.375 "/>
<path style="fill:none;stroke-width:5;stroke-linecap:round;stroke-linejoin:round;stroke:rgb(0%,0%,0%);stroke-opacity:1;stroke-miterlimit:10;" d="M 1797.511818 1440.298499 L 1888.11498 1124.59943 L 1764.329881 1124.59943 Z M 1797.511818 1440.298499 " transform="matrix(0.099593,0,0,-0.099593,0,200.377191)"/>
<path style=" stroke:none;fill-rule:nonzero;fill:rgb(50.193787%,16.50238%,32.788086%);fill-opacity:1;" d="M 137.941406 12.40625 L 115.675781 29.457031 L 141.058594 44.582031 "/>
<path style="fill:none;stroke-width:5;stroke-linecap:round;stroke-linejoin:round;stroke:rgb(0%,0%,0%);stroke-opacity:1;stroke-miterlimit:10;" d="M 1385.05171 1887.391763 L 1161.485467 1716.187087 L 1416.350984 1564.31893 Z M 1385.05171 1887.391763 " transform="matrix(0.099593,0,0,-0.099593,0,200.377191)"/>
<path style=" stroke:none;fill-rule:nonzero;fill:rgb(36.497498%,5.599976%,30.200195%);fill-opacity:1;" d="M 137.941406 12.40625 L 162.199219 47.988281 L 141.058594 44.582031 "/>
<path style="fill:none;stroke-width:5;stroke-linecap:round;stroke-linejoin:round;stroke:rgb(0%,0%,0%);stroke-opacity:1;stroke-miterlimit:10;" d="M 1385.05171 1887.391763 L 1628.621249 1530.117217 L 1416.350984 1564.31893 Z M 1385.05171 1887.391763 " transform="matrix(0.099593,0,0,-0.099593,0,200.377191)"/>
<path style=" stroke:none;fill-rule:nonzero;fill:rgb(66.992188%,81.054688%,95.117188%);fill-opacity:1;" d="M 62.34375 189.980469 L 85.203125 169.949219 L 112.320312 179.601562 "/>
<path style="fill:none;stroke-width:5;stroke-linecap:round;stroke-linejoin:round;stroke:rgb(0%,0%,0%);stroke-opacity:1;stroke-miterlimit:10;" d="M 625.985481 104.39214 L 855.513491 305.523314 L 1127.793642 208.605387 Z M 625.985481 104.39214 " transform="matrix(0.099593,0,0,-0.099593,0,200.377191)"/>
<path style=" stroke:none;fill-rule:nonzero;fill:rgb(48.094177%,63.671875%,92.381287%);fill-opacity:1;" d="M 162.246094 175.023438 L 135.746094 162.359375 L 112.320312 179.601562 "/>
<path style="fill:none;stroke-width:5;stroke-linecap:round;stroke-linejoin:round;stroke:rgb(0%,0%,0%);stroke-opacity:1;stroke-miterlimit:10;" d="M 1629.091915 254.573744 L 1363.008863 381.731948 L 1127.793642 208.605387 Z M 1629.091915 254.573744 " transform="matrix(0.099593,0,0,-0.099593,0,200.377191)"/>
<path style=" stroke:none;fill-rule:nonzero;fill:rgb(75.584412%,33.909607%,26.097107%);fill-opacity:1;" d="M 37.074219 27.976562 L 64.730469 37.304688 L 88.039062 20.59375 "/>
<path style="fill:none;stroke-width:5;stroke-linecap:round;stroke-linejoin:round;stroke:rgb(0%,0%,0%);stroke-opacity:1;stroke-miterlimit:10;" d="M 372.257406 1731.052281 L 649.950213 1637.389792 L 883.98877 1805.182141 Z M 372.257406 1731.052281 " transform="matrix(0.099593,0,0,-0.099593,0,200.377191)"/>
<path style=" stroke:none;fill-rule:nonzero;fill:rgb(54.6875%,13.890076%,22.093201%);fill-opacity:1;" d="M 137.941406 12.40625 L 115.675781 29.457031 L 88.039062 20.59375 "/>
<path style="fill:none;stroke-width:5;stroke-linecap:round;stroke-linejoin:round;stroke:rgb(0%,0%,0%);stroke-opacity:1;stroke-miterlimit:10;" d="M 1385.05171 1887.391763 L 1161.485467 1716.187087 L 883.98877 1805.182141 Z M 1385.05171 1887.391763 " transform="matrix(0.099593,0,0,-0.099593,0,200.377191)"/>
<path style=" stroke:none;fill-rule:nonzero;fill:rgb(50.78125%,80.859375%,99.804688%);fill-opacity:1;" d="M 62.34375 189.980469 L 113.238281 189.152344 L 112.320312 179.601562 "/>
<path style="fill:none;stroke-width:5;stroke-linecap:round;stroke-linejoin:round;stroke:rgb(0%,0%,0%);stroke-opacity:1;stroke-miterlimit:10;" d="M 625.985481 104.39214 L 1137.010847 112.707235 L 1127.793642 208.605387 Z M 625.985481 104.39214 " transform="matrix(0.099593,0,0,-0.099593,0,200.377191)"/>
<path style=" stroke:none;fill-rule:nonzero;fill:rgb(37.5%,68.75%,98.046875%);fill-opacity:1;" d="M 162.246094 175.023438 L 113.238281 189.152344 L 112.320312 179.601562 "/>
<path style="fill:none;stroke-width:5;stroke-linecap:round;stroke-linejoin:round;stroke:rgb(0%,0%,0%);stroke-opacity:1;stroke-miterlimit:10;" d="M 1629.091915 254.573744 L 1137.010847 112.707235 L 1127.793642 208.605387 Z M 1629.091915 254.573744 " transform="matrix(0.099593,0,0,-0.099593,0,200.377191)"/>
<path style=" stroke:none;fill-rule:nonzero;fill:rgb(87.109375%,98.046875%,84.375%);fill-opacity:1;" d="M 21.460938 146.226562 L 38.75 152.898438 L 62.34375 189.980469 "/>
<path style="fill:none;stroke-width:5;stroke-linecap:round;stroke-linejoin:round;stroke:rgb(0%,0%,0%);stroke-opacity:1;stroke-miterlimit:10;" d="M 215.486481 543.719419 L 389.083708 476.72799 L 625.985481 104.39214 Z M 215.486481 543.719419 " transform="matrix(0.099593,0,0,-0.099593,0,200.377191)"/>
<path style=" stroke:none;fill-rule:nonzero;fill:rgb(59.375%,5.200195%,0%);fill-opacity:1;" d="M 86.398438 13.417969 L 88.039062 20.59375 L 37.074219 27.976562 "/>
<path style="fill:none;stroke-width:5;stroke-linecap:round;stroke-linejoin:round;stroke:rgb(0%,0%,0%);stroke-opacity:1;stroke-miterlimit:10;" d="M 867.515468 1877.233227 L 883.98877 1805.182141 L 372.257406 1731.052281 Z M 867.515468 1877.233227 " transform="matrix(0.099593,0,0,-0.099593,0,200.377191)"/>
<path style=" stroke:none;fill-rule:nonzero;fill:rgb(44.50531%,0%,0%);fill-opacity:1;" d="M 137.941406 12.40625 L 86.398438 13.417969 L 88.039062 20.59375 "/>
<path style="fill:none;stroke-width:5;stroke-linecap:round;stroke-linejoin:round;stroke:rgb(0%,0%,0%);stroke-opacity:1;stroke-miterlimit:10;" d="M 1385.05171 1887.391763 L 867.515468 1877.233227 L 883.98877 1805.182141 Z M 1385.05171 1887.391763 " transform="matrix(0.099593,0,0,-0.099593,0,200.377191)"/>
<path style=" stroke:none;fill-rule:nonzero;fill:rgb(2.397156%,19.798279%,70.506287%);fill-opacity:1;" d="M 188.453125 120.992188 L 174.710938 132.386719 L 162.246094 175.023438 "/>
<path style="fill:none;stroke-width:5;stroke-linecap:round;stroke-linejoin:round;stroke:rgb(0%,0%,0%);stroke-opacity:1;stroke-miterlimit:10;" d="M 1892.233305 797.094495 L 1754.249789 682.683489 L 1629.091915 254.573744 Z M 1892.233305 797.094495 " transform="matrix(0.099593,0,0,-0.099593,0,200.377191)"/>
<path style=" stroke:none;fill-rule:nonzero;fill:rgb(94.53125%,58.59375%,24.291992%);fill-opacity:1;" d="M 37.074219 27.976562 L 25.558594 68.929688 L 11.394531 82.570312 "/>
<path style="fill:none;stroke-width:5;stroke-linecap:round;stroke-linejoin:round;stroke:rgb(0%,0%,0%);stroke-opacity:1;stroke-miterlimit:10;" d="M 372.257406 1731.052281 L 256.630514 1319.847282 L 114.411006 1182.883542 Z M 372.257406 1731.052281 " transform="matrix(0.099593,0,0,-0.099593,0,200.377191)"/>
<path style=" stroke:none;fill-rule:nonzero;fill:rgb(3.697205%,0%,6.394958%);fill-opacity:1;" d="M 137.941406 12.40625 L 162.199219 47.988281 L 179.019531 56.933594 "/>
<path style="fill:none;stroke-width:5;stroke-linecap:round;stroke-linejoin:round;stroke:rgb(0%,0%,0%);stroke-opacity:1;stroke-miterlimit:10;" d="M 1385.05171 1887.391763 L 1628.621249 1530.117217 L 1797.511818 1440.298499 Z M 1385.05171 1887.391763 " transform="matrix(0.099593,0,0,-0.099593,0,200.377191)"/>
<path style=" stroke:none;fill-rule:nonzero;fill:rgb(10.400391%,65.429688%,81.443787%);fill-opacity:1;" d="M 112.902344 190.828125 L 113.238281 189.152344 L 62.34375 189.980469 "/>
<path style="fill:none;stroke-width:5;stroke-linecap:round;stroke-linejoin:round;stroke:rgb(0%,0%,0%);stroke-opacity:1;stroke-miterlimit:10;" d="M 1133.637742 95.880934 L 1137.010847 112.707235 L 625.985481 104.39214 Z M 1133.637742 95.880934 " transform="matrix(0.099593,0,0,-0.099593,0,200.377191)"/>
<path style=" stroke:none;fill-rule:nonzero;fill:rgb(27.488708%,0%,0%);fill-opacity:1;" d="M 112.902344 190.828125 L 81.898438 184.25 L 62.34375 189.980469 "/>
<path style="fill:none;stroke-width:5;stroke-linecap:round;stroke-linejoin:round;stroke:rgb(0%,0%,0%);stroke-opacity:1;stroke-miterlimit:10;" d="M 1133.637742 95.880934 L 822.331554 161.931031 L 625.985481 104.39214 Z M 1133.637742 95.880934 " transform="matrix(0.099593,0,0,-0.099593,0,200.377191)"/>
<path style=" stroke:none;fill-rule:nonzero;fill:rgb(61.71875%,89.256287%,58.201599%);fill-opacity:1;" d="M 21.460938 146.226562 L 32.53125 159.933594 L 62.34375 189.980469 "/>
<path style="fill:none;stroke-width:5;stroke-linecap:round;stroke-linejoin:round;stroke:rgb(0%,0%,0%);stroke-opacity:1;stroke-miterlimit:10;" d="M 215.486481 543.719419 L 326.642048 406.088902 L 625.985481 104.39214 Z M 215.486481 543.719419 " transform="matrix(0.099593,0,0,-0.099593,0,200.377191)"/>
<path style=" stroke:none;fill-rule:nonzero;fill:rgb(27.098083%,0%,0%);fill-opacity:1;" d="M 51.707031 168.734375 L 81.898438 184.25 L 62.34375 189.980469 "/>
<path style="fill:none;stroke-width:5;stroke-linecap:round;stroke-linejoin:round;stroke:rgb(0%,0%,0%);stroke-opacity:1;stroke-miterlimit:10;" d="M 519.183572 317.721402 L 822.331554 161.931031 L 625.985481 104.39214 Z M 519.183572 317.721402 " transform="matrix(0.099593,0,0,-0.099593,0,200.377191)"/>
<path style=" stroke:none;fill-rule:nonzero;fill:rgb(0%,0%,0%);fill-opacity:1;" d="M 51.707031 168.734375 L 32.53125 159.933594 L 62.34375 189.980469 "/>
<path style="fill:none;stroke-width:5;stroke-linecap:round;stroke-linejoin:round;stroke:rgb(0%,0%,0%);stroke-opacity:1;stroke-miterlimit:10;" d="M 519.183572 317.721402 L 326.642048 406.088902 L 625.985481 104.39214 Z M 519.183572 317.721402 " transform="matrix(0.099593,0,0,-0.099593,0,200.377191)"/>
<path style=" stroke:none;fill-rule:nonzero;fill:rgb(0%,47.605896%,77.734375%);fill-opacity:1;" d="M 162.246094 175.023438 L 113.238281 189.152344 L 112.902344 190.828125 "/>
<path style="fill:none;stroke-width:5;stroke-linecap:round;stroke-linejoin:round;stroke:rgb(0%,0%,0%);stroke-opacity:1;stroke-miterlimit:10;" d="M 1629.091915 254.573744 L 1137.010847 112.707235 L 1133.637742 95.880934 Z M 1629.091915 254.573744 " transform="matrix(0.099593,0,0,-0.099593,0,200.377191)"/>
<path style=" stroke:none;fill-rule:nonzero;fill:rgb(74.609375%,77.34375%,27.293396%);fill-opacity:1;" d="M 11.128906 117.464844 L 12.183594 115.113281 L 21.460938 146.226562 "/>
<path style="fill:none;stroke-width:5;stroke-linecap:round;stroke-linejoin:round;stroke:rgb(0%,0%,0%);stroke-opacity:1;stroke-miterlimit:10;" d="M 111.743899 832.512094 L 122.333879 856.123827 L 215.486481 543.719419 Z M 111.743899 832.512094 " transform="matrix(0.099593,0,0,-0.099593,0,200.377191)"/>
<path style=" stroke:none;fill-rule:nonzero;fill:rgb(0%,0%,0%);fill-opacity:1;" d="M 11.128906 117.464844 L 32.53125 159.933594 L 21.460938 146.226562 "/>
<path style="fill:none;stroke-width:5;stroke-linecap:round;stroke-linejoin:round;stroke:rgb(0%,0%,0%);stroke-opacity:1;stroke-miterlimit:10;" d="M 111.743899 832.512094 L 326.642048 406.088902 L 215.486481 543.719419 Z M 111.743899 832.512094 " transform="matrix(0.099593,0,0,-0.099593,0,200.377191)"/>
<path style=" stroke:none;fill-rule:nonzero;fill:rgb(61.914062%,5.899048%,0%);fill-opacity:1;" d="M 140.125 175.527344 L 112.902344 190.828125 L 162.246094 175.023438 "/>
<path style="fill:none;stroke-width:5;stroke-linecap:round;stroke-linejoin:round;stroke:rgb(0%,0%,0%);stroke-opacity:1;stroke-miterlimit:10;" d="M 1406.976891 249.514087 L 1133.637742 95.880934 L 1629.091915 254.573744 Z M 1406.976891 249.514087 " transform="matrix(0.099593,0,0,-0.099593,0,200.377191)"/>
<path style=" stroke:none;fill-rule:nonzero;fill:rgb(0%,0%,34.593201%);fill-opacity:1;" d="M 188.453125 120.992188 L 180.921875 137.574219 L 162.246094 175.023438 "/>
<path style="fill:none;stroke-width:5;stroke-linecap:round;stroke-linejoin:round;stroke:rgb(0%,0%,0%);stroke-opacity:1;stroke-miterlimit:10;" d="M 1892.233305 797.094495 L 1816.613004 630.596477 L 1629.091915 254.573744 Z M 1892.233305 797.094495 " transform="matrix(0.099593,0,0,-0.099593,0,200.377191)"/>
<path style=" stroke:none;fill-rule:nonzero;fill:rgb(87.889099%,44.309998%,6.591797%);fill-opacity:1;" d="M 164.136719 151.832031 L 180.921875 137.574219 L 162.246094 175.023438 "/>
<path style="fill:none;stroke-width:5;stroke-linecap:round;stroke-linejoin:round;stroke:rgb(0%,0%,0%);stroke-opacity:1;stroke-miterlimit:10;" d="M 1648.075434 487.435637 L 1816.613004 630.596477 L 1629.091915 254.573744 Z M 1648.075434 487.435637 " transform="matrix(0.099593,0,0,-0.099593,0,200.377191)"/>
<path style=" stroke:none;fill-rule:nonzero;fill:rgb(81.443787%,34.692383%,10.301208%);fill-opacity:1;" d="M 164.136719 151.832031 L 140.125 175.527344 L 162.246094 175.023438 "/>
<path style="fill:none;stroke-width:5;stroke-linecap:round;stroke-linejoin:round;stroke:rgb(0%,0%,0%);stroke-opacity:1;stroke-miterlimit:10;" d="M 1648.075434 487.435637 L 1406.976891 249.514087 L 1629.091915 254.573744 Z M 1648.075434 487.435637 " transform="matrix(0.099593,0,0,-0.099593,0,200.377191)"/>
<path style=" stroke:none;fill-rule:nonzero;fill:rgb(75.389099%,62.889099%,6.492615%);fill-opacity:1;" d="M 11.128906 117.464844 L 12.183594 115.113281 L 11.394531 82.570312 "/>
<path style="fill:none;stroke-width:5;stroke-linecap:round;stroke-linejoin:round;stroke:rgb(0%,0%,0%);stroke-opacity:1;stroke-miterlimit:10;" d="M 111.743899 832.512094 L 122.333879 856.123827 L 114.411006 1182.883542 Z M 111.743899 832.512094 " transform="matrix(0.099593,0,0,-0.099593,0,200.377191)"/>
<path style=" stroke:none;fill-rule:nonzero;fill:rgb(64.0625%,27.806091%,0%);fill-opacity:1;" d="M 37.074219 27.976562 L 18.089844 68.304688 L 11.394531 82.570312 "/>
<path style="fill:none;stroke-width:5;stroke-linecap:round;stroke-linejoin:round;stroke:rgb(0%,0%,0%);stroke-opacity:1;stroke-miterlimit:10;" d="M 372.257406 1731.052281 L 181.637767 1326.122826 L 114.411006 1182.883542 Z M 372.257406 1731.052281 " transform="matrix(0.099593,0,0,-0.099593,0,200.377191)"/>
<path style=" stroke:none;fill-rule:nonzero;fill:rgb(0%,0%,40.696716%);fill-opacity:1;" d="M 18.089844 68.304688 L 11.394531 82.570312 L 11.128906 117.464844 "/>
<path style="fill:none;stroke-width:5;stroke-linecap:round;stroke-linejoin:round;stroke:rgb(0%,0%,0%);stroke-opacity:1;stroke-miterlimit:10;" d="M 181.637767 1326.122826 L 114.411006 1182.883542 L 111.743899 832.512094 Z M 181.637767 1326.122826 " transform="matrix(0.099593,0,0,-0.099593,0,200.377191)"/>
<path style=" stroke:none;fill-rule:nonzero;fill:rgb(71.679688%,59.179688%,1.800537%);fill-opacity:1;" d="M 187.859375 90.605469 L 188.042969 88.375 L 188.453125 120.992188 "/>
<path style="fill:none;stroke-width:5;stroke-linecap:round;stroke-linejoin:round;stroke:rgb(0%,0%,0%);stroke-opacity:1;stroke-miterlimit:10;" d="M 1886.271539 1102.203583 L 1888.11498 1124.59943 L 1892.233305 797.094495 Z M 1886.271539 1102.203583 " transform="matrix(0.099593,0,0,-0.099593,0,200.377191)"/>
<path style=" stroke:none;fill-rule:nonzero;fill:rgb(91.601562%,63.084412%,13.989258%);fill-opacity:1;" d="M 187.859375 90.605469 L 180.921875 137.574219 L 188.453125 120.992188 "/>
<path style="fill:none;stroke-width:5;stroke-linecap:round;stroke-linejoin:round;stroke:rgb(0%,0%,0%);stroke-opacity:1;stroke-miterlimit:10;" d="M 1886.271539 1102.203583 L 1816.613004 630.596477 L 1892.233305 797.094495 Z M 1886.271539 1102.203583 " transform="matrix(0.099593,0,0,-0.099593,0,200.377191)"/>
<path style=" stroke:none;fill-rule:nonzero;fill:rgb(71.289062%,74.021912%,22.900391%);fill-opacity:1;" d="M 187.859375 90.605469 L 188.042969 88.375 L 179.019531 56.933594 "/>
<path style="fill:none;stroke-width:5;stroke-linecap:round;stroke-linejoin:round;stroke:rgb(0%,0%,0%);stroke-opacity:1;stroke-miterlimit:10;" d="M 1886.271539 1102.203583 L 1888.11498 1124.59943 L 1797.511818 1440.298499 Z M 1886.271539 1102.203583 " transform="matrix(0.099593,0,0,-0.099593,0,200.377191)"/>
<path style=" stroke:none;fill-rule:nonzero;fill:rgb(0%,22.705078%,74.21875%);fill-opacity:1;" d="M 34.109375 56.265625 L 18.089844 68.304688 L 37.074219 27.976562 "/>
<path style="fill:none;stroke-width:5;stroke-linecap:round;stroke-linejoin:round;stroke:rgb(0%,0%,0%);stroke-opacity:1;stroke-miterlimit:10;" d="M 342.487796 1447.005486 L 181.637767 1326.122826 L 372.257406 1731.052281 Z M 342.487796 1447.005486 " transform="matrix(0.099593,0,0,-0.099593,0,200.377191)"/>
<path style=" stroke:none;fill-rule:nonzero;fill:rgb(23.193359%,47.192383%,88.28125%);fill-opacity:1;" d="M 58.257812 31.414062 L 34.109375 56.265625 L 37.074219 27.976562 "/>
<path style="fill:none;stroke-width:5;stroke-linecap:round;stroke-linejoin:round;stroke:rgb(0%,0%,0%);stroke-opacity:1;stroke-miterlimit:10;" d="M 584.959114 1696.536791 L 342.487796 1447.005486 L 372.257406 1731.052281 Z M 584.959114 1696.536791 " transform="matrix(0.099593,0,0,-0.099593,0,200.377191)"/>
<path style=" stroke:none;fill-rule:nonzero;fill:rgb(22.900391%,58.201599%,94.53125%);fill-opacity:1;" d="M 85.972656 14.566406 L 58.257812 31.414062 L 37.074219 27.976562 "/>
<path style="fill:none;stroke-width:5;stroke-linecap:round;stroke-linejoin:round;stroke:rgb(0%,0%,0%);stroke-opacity:1;stroke-miterlimit:10;" d="M 863.240254 1865.701915 L 584.959114 1696.536791 L 372.257406 1731.052281 Z M 863.240254 1865.701915 " transform="matrix(0.099593,0,0,-0.099593,0,200.377191)"/>
<path style=" stroke:none;fill-rule:nonzero;fill:rgb(0%,44.40918%,74.21875%);fill-opacity:1;" d="M 85.972656 14.566406 L 86.398438 13.417969 L 37.074219 27.976562 "/>
<path style="fill:none;stroke-width:5;stroke-linecap:round;stroke-linejoin:round;stroke:rgb(0%,0%,0%);stroke-opacity:1;stroke-miterlimit:10;" d="M 863.240254 1865.701915 L 867.515468 1877.233227 L 372.257406 1731.052281 Z M 863.240254 1865.701915 " transform="matrix(0.099593,0,0,-0.099593,0,200.377191)"/>
<path style=" stroke:none;fill-rule:nonzero;fill:rgb(88.084412%,96.484375%,63.867188%);fill-opacity:1;" d="M 167.289062 45.429688 L 179.019531 56.933594 L 187.859375 90.605469 "/>
<path style="fill:none;stroke-width:5;stroke-linecap:round;stroke-linejoin:round;stroke:rgb(0%,0%,0%);stroke-opacity:1;stroke-miterlimit:10;" d="M 1679.727708 1555.807724 L 1797.511818 1440.298499 L 1886.271539 1102.203583 Z M 1679.727708 1555.807724 " transform="matrix(0.099593,0,0,-0.099593,0,200.377191)"/>
<path style=" stroke:none;fill-rule:nonzero;fill:rgb(58.59375%,86.71875%,54.492188%);fill-opacity:1;" d="M 137.941406 12.40625 L 167.289062 45.429688 L 179.019531 56.933594 "/>
<path style="fill:none;stroke-width:5;stroke-linecap:round;stroke-linejoin:round;stroke:rgb(0%,0%,0%);stroke-opacity:1;stroke-miterlimit:10;" d="M 1385.05171 1887.391763 L 1679.727708 1555.807724 L 1797.511818 1440.298499 Z M 1385.05171 1887.391763 " transform="matrix(0.099593,0,0,-0.099593,0,200.377191)"/>
<path style=" stroke:none;fill-rule:nonzero;fill:rgb(6.492615%,62.693787%,78.125%);fill-opacity:1;" d="M 85.972656 14.566406 L 86.398438 13.417969 L 137.941406 12.40625 "/>
<path style="fill:none;stroke-width:5;stroke-linecap:round;stroke-linejoin:round;stroke:rgb(0%,0%,0%);stroke-opacity:1;stroke-miterlimit:10;" d="M 863.240254 1865.701915 L 867.515468 1877.233227 L 1385.05171 1887.391763 Z M 863.240254 1865.701915 " transform="matrix(0.099593,0,0,-0.099593,0,200.377191)"/>
<path style=" stroke:none;fill-rule:nonzero;fill:rgb(80.076599%,99.021912%,88.084412%);fill-opacity:1;" d="M 147.292969 38.878906 L 167.289062 45.429688 L 137.941406 12.40625 "/>
<path style="fill:none;stroke-width:5;stroke-linecap:round;stroke-linejoin:round;stroke:rgb(0%,0%,0%);stroke-opacity:1;stroke-miterlimit:10;" d="M 1478.949532 1621.583266 L 1679.727708 1555.807724 L 1385.05171 1887.391763 Z M 1478.949532 1621.583266 " transform="matrix(0.099593,0,0,-0.099593,0,200.377191)"/>
<path style=" stroke:none;fill-rule:nonzero;fill:rgb(53.90625%,86.71875%,99.414062%);fill-opacity:1;" d="M 117.015625 22.355469 L 85.972656 14.566406 L 137.941406 12.40625 "/>
<path style="fill:none;stroke-width:5;stroke-linecap:round;stroke-linejoin:round;stroke:rgb(0%,0%,0%);stroke-opacity:1;stroke-miterlimit:10;" d="M 1174.938664 1787.492952 L 863.240254 1865.701915 L 1385.05171 1887.391763 Z M 1174.938664 1787.492952 " transform="matrix(0.099593,0,0,-0.099593,0,200.377191)"/>
<path style=" stroke:none;fill-rule:nonzero;fill:rgb(72.459412%,92.576599%,95.701599%);fill-opacity:1;" d="M 117.015625 22.355469 L 147.292969 38.878906 L 137.941406 12.40625 "/>
<path style="fill:none;stroke-width:5;stroke-linecap:round;stroke-linejoin:round;stroke:rgb(0%,0%,0%);stroke-opacity:1;stroke-miterlimit:10;" d="M 1174.938664 1787.492952 L 1478.949532 1621.583266 L 1385.05171 1887.391763 Z M 1174.938664 1787.492952 " transform="matrix(0.099593,0,0,-0.099593,0,200.377191)"/>
<path style=" stroke:none;fill-rule:nonzero;fill:rgb(17.210388%,0%,24.705505%);fill-opacity:1;" d="M 11.128906 117.464844 L 32.53125 159.933594 L 51.707031 168.734375 "/>
<path style="fill:none;stroke-width:5;stroke-linecap:round;stroke-linejoin:round;stroke:rgb(0%,0%,0%);stroke-opacity:1;stroke-miterlimit:10;" d="M 111.743899 832.512094 L 326.642048 406.088902 L 519.183572 317.721402 Z M 111.743899 832.512094 " transform="matrix(0.099593,0,0,-0.099593,0,200.377191)"/>
<path style=" stroke:none;fill-rule:nonzero;fill:rgb(96.289062%,65.429688%,39.598083%);fill-opacity:1;" d="M 187.859375 90.605469 L 180.921875 137.574219 L 164.136719 151.832031 "/>
<path style="fill:none;stroke-width:5;stroke-linecap:round;stroke-linejoin:round;stroke:rgb(0%,0%,0%);stroke-opacity:1;stroke-miterlimit:10;" d="M 1886.271539 1102.203583 L 1816.613004 630.596477 L 1648.075434 487.435637 Z M 1886.271539 1102.203583 " transform="matrix(0.099593,0,0,-0.099593,0,200.377191)"/>
<path style=" stroke:none;fill-rule:nonzero;fill:rgb(15.501404%,24.09668%,70.117188%);fill-opacity:1;" d="M 34.109375 56.265625 L 18.089844 68.304688 L 11.128906 117.464844 "/>
<path style="fill:none;stroke-width:5;stroke-linecap:round;stroke-linejoin:round;stroke:rgb(0%,0%,0%);stroke-opacity:1;stroke-miterlimit:10;" d="M 342.487796 1447.005486 L 181.637767 1326.122826 L 111.743899 832.512094 Z M 342.487796 1447.005486 " transform="matrix(0.099593,0,0,-0.099593,0,200.377191)"/>
<path style=" stroke:none;fill-rule:nonzero;fill:rgb(70.506287%,27.488708%,22.509766%);fill-opacity:1;" d="M 107.617188 163.191406 L 140.125 175.527344 L 112.902344 190.828125 "/>
<path style="fill:none;stroke-width:5;stroke-linecap:round;stroke-linejoin:round;stroke:rgb(0%,0%,0%);stroke-opacity:1;stroke-miterlimit:10;" d="M 1080.570176 373.37763 L 1406.976891 249.514087 L 1133.637742 95.880934 Z M 1080.570176 373.37763 " transform="matrix(0.099593,0,0,-0.099593,0,200.377191)"/>
<path style=" stroke:none;fill-rule:nonzero;fill:rgb(58.59375%,15.989685%,20.092773%);fill-opacity:1;" d="M 107.617188 163.191406 L 81.898438 184.25 L 112.902344 190.828125 "/>
<path style="fill:none;stroke-width:5;stroke-linecap:round;stroke-linejoin:round;stroke:rgb(0%,0%,0%);stroke-opacity:1;stroke-miterlimit:10;" d="M 1080.570176 373.37763 L 822.331554 161.931031 L 1133.637742 95.880934 Z M 1080.570176 373.37763 " transform="matrix(0.099593,0,0,-0.099593,0,200.377191)"/>
<path style=" stroke:none;fill-rule:nonzero;fill:rgb(90.429688%,93.554688%,82.226562%);fill-opacity:1;" d="M 147.292969 38.878906 L 167.289062 45.429688 L 187.859375 90.605469 "/>
<path style="fill:none;stroke-width:5;stroke-linecap:round;stroke-linejoin:round;stroke:rgb(0%,0%,0%);stroke-opacity:1;stroke-miterlimit:10;" d="M 1478.949532 1621.583266 L 1679.727708 1555.807724 L 1886.271539 1102.203583 Z M 1478.949532 1621.583266 " transform="matrix(0.099593,0,0,-0.099593,0,200.377191)"/>
<path style=" stroke:none;fill-rule:nonzero;fill:rgb(51.5625%,67.96875%,93.943787%);fill-opacity:1;" d="M 85.972656 14.566406 L 58.257812 31.414062 L 89.980469 47.785156 "/>
<path style="fill:none;stroke-width:5;stroke-linecap:round;stroke-linejoin:round;stroke:rgb(0%,0%,0%);stroke-opacity:1;stroke-miterlimit:10;" d="M 863.240254 1865.701915 L 584.959114 1696.536791 L 903.482178 1532.156769 Z M 863.240254 1865.701915 " transform="matrix(0.099593,0,0,-0.099593,0,200.377191)"/>
<path style=" stroke:none;fill-rule:nonzero;fill:rgb(62.5%,77.929688%,95.506287%);fill-opacity:1;" d="M 117.015625 22.355469 L 85.972656 14.566406 L 89.980469 47.785156 "/>
<path style="fill:none;stroke-width:5;stroke-linecap:round;stroke-linejoin:round;stroke:rgb(0%,0%,0%);stroke-opacity:1;stroke-miterlimit:10;" d="M 1174.938664 1787.492952 L 863.240254 1865.701915 L 903.482178 1532.156769 Z M 1174.938664 1787.492952 " transform="matrix(0.099593,0,0,-0.099593,0,200.377191)"/>
<path style=" stroke:none;fill-rule:nonzero;fill:rgb(53.318787%,18.701172%,32.688904%);fill-opacity:1;" d="M 107.617188 163.191406 L 81.898438 184.25 L 51.707031 168.734375 "/>
<path style="fill:none;stroke-width:5;stroke-linecap:round;stroke-linejoin:round;stroke:rgb(0%,0%,0%);stroke-opacity:1;stroke-miterlimit:10;" d="M 1080.570176 373.37763 L 822.331554 161.931031 L 519.183572 317.721402 Z M 1080.570176 373.37763 " transform="matrix(0.099593,0,0,-0.099593,0,200.377191)"/>
<path style=" stroke:none;fill-rule:nonzero;fill:rgb(80.859375%,44.897461%,37.792969%);fill-opacity:1;" d="M 107.617188 163.191406 L 140.125 175.527344 L 164.136719 151.832031 "/>
<path style="fill:none;stroke-width:5;stroke-linecap:round;stroke-linejoin:round;stroke:rgb(0%,0%,0%);stroke-opacity:1;stroke-miterlimit:10;" d="M 1080.570176 373.37763 L 1406.976891 249.514087 L 1648.075434 487.435637 Z M 1080.570176 373.37763 " transform="matrix(0.099593,0,0,-0.099593,0,200.377191)"/>
<path style=" stroke:none;fill-rule:nonzero;fill:rgb(48.28949%,57.617188%,87.304688%);fill-opacity:1;" d="M 89.980469 47.785156 L 58.257812 31.414062 L 34.109375 56.265625 "/>
<path style="fill:none;stroke-width:5;stroke-linecap:round;stroke-linejoin:round;stroke:rgb(0%,0%,0%);stroke-opacity:1;stroke-miterlimit:10;" d="M 903.482178 1532.156769 L 584.959114 1696.536791 L 342.487796 1447.005486 Z M 903.482178 1532.156769 " transform="matrix(0.099593,0,0,-0.099593,0,200.377191)"/>
<path style=" stroke:none;fill-rule:nonzero;fill:rgb(73.631287%,81.054688%,91.014099%);fill-opacity:1;" d="M 117.015625 22.355469 L 147.292969 38.878906 L 89.980469 47.785156 "/>
<path style="fill:none;stroke-width:5;stroke-linecap:round;stroke-linejoin:round;stroke:rgb(0%,0%,0%);stroke-opacity:1;stroke-miterlimit:10;" d="M 1174.938664 1787.492952 L 1478.949532 1621.583266 L 903.482178 1532.156769 Z M 1174.938664 1787.492952 " transform="matrix(0.099593,0,0,-0.099593,0,200.377191)"/>
<path style=" stroke:none;fill-rule:nonzero;fill:rgb(55.46875%,30.101013%,48.608398%);fill-opacity:1;" d="M 107.617188 163.191406 L 54.152344 143.234375 L 51.707031 168.734375 "/>
<path style="fill:none;stroke-width:5;stroke-linecap:round;stroke-linejoin:round;stroke:rgb(0%,0%,0%);stroke-opacity:1;stroke-miterlimit:10;" d="M 1080.570176 373.37763 L 543.736637 573.763584 L 519.183572 317.721402 Z M 1080.570176 373.37763 " transform="matrix(0.099593,0,0,-0.099593,0,200.377191)"/>
<path style=" stroke:none;fill-rule:nonzero;fill:rgb(43.60199%,21.604919%,48.094177%);fill-opacity:1;" d="M 11.128906 117.464844 L 54.152344 143.234375 L 51.707031 168.734375 "/>
<path style="fill:none;stroke-width:5;stroke-linecap:round;stroke-linejoin:round;stroke:rgb(0%,0%,0%);stroke-opacity:1;stroke-miterlimit:10;" d="M 111.743899 832.512094 L 543.736637 573.763584 L 519.183572 317.721402 Z M 111.743899 832.512094 " transform="matrix(0.099593,0,0,-0.099593,0,200.377191)"/>
<path style=" stroke:none;fill-rule:nonzero;fill:rgb(51.951599%,36.302185%,60.742188%);fill-opacity:1;" d="M 61.898438 111.441406 L 54.152344 143.234375 L 11.128906 117.464844 "/>
<path style="fill:none;stroke-width:5;stroke-linecap:round;stroke-linejoin:round;stroke:rgb(0%,0%,0%);stroke-opacity:1;stroke-miterlimit:10;" d="M 621.514156 892.992646 L 543.736637 573.763584 L 111.743899 832.512094 Z M 621.514156 892.992646 " transform="matrix(0.099593,0,0,-0.099593,0,200.377191)"/>
<path style=" stroke:none;fill-rule:nonzero;fill:rgb(51.171875%,42.088318%,68.943787%);fill-opacity:1;" d="M 44.601562 82.015625 L 61.898438 111.441406 L 11.128906 117.464844 "/>
<path style="fill:none;stroke-width:5;stroke-linecap:round;stroke-linejoin:round;stroke:rgb(0%,0%,0%);stroke-opacity:1;stroke-miterlimit:10;" d="M 447.838485 1188.453087 L 621.514156 892.992646 L 111.743899 832.512094 Z M 447.838485 1188.453087 " transform="matrix(0.099593,0,0,-0.099593,0,200.377191)"/>
<path style=" stroke:none;fill-rule:nonzero;fill:rgb(41.50238%,40.087891%,73.4375%);fill-opacity:1;" d="M 34.109375 56.265625 L 44.601562 82.015625 L 11.128906 117.464844 "/>
<path style="fill:none;stroke-width:5;stroke-linecap:round;stroke-linejoin:round;stroke:rgb(0%,0%,0%);stroke-opacity:1;stroke-miterlimit:10;" d="M 342.487796 1447.005486 L 447.838485 1188.453087 L 111.743899 832.512094 Z M 342.487796 1447.005486 " transform="matrix(0.099593,0,0,-0.099593,0,200.377191)"/>
<path style=" stroke:none;fill-rule:nonzero;fill:rgb(83.006287%,56.25%,53.318787%);fill-opacity:1;" d="M 153.296875 128.257812 L 164.136719 151.832031 L 107.617188 163.191406 "/>
<path style="fill:none;stroke-width:5;stroke-linecap:round;stroke-linejoin:round;stroke:rgb(0%,0%,0%);stroke-opacity:1;stroke-miterlimit:10;" d="M 1539.233974 724.141299 L 1648.075434 487.435637 L 1080.570176 373.37763 Z M 1539.233974 724.141299 " transform="matrix(0.099593,0,0,-0.099593,0,200.377191)"/>
<path style=" stroke:none;fill-rule:nonzero;fill:rgb(89.84375%,65.429688%,56.054688%);fill-opacity:1;" d="M 187.859375 90.605469 L 153.296875 128.257812 L 164.136719 151.832031 "/>
<path style="fill:none;stroke-width:5;stroke-linecap:round;stroke-linejoin:round;stroke:rgb(0%,0%,0%);stroke-opacity:1;stroke-miterlimit:10;" d="M 1886.271539 1102.203583 L 1539.233974 724.141299 L 1648.075434 487.435637 Z M 1886.271539 1102.203583 " transform="matrix(0.099593,0,0,-0.099593,0,200.377191)"/>
<path style=" stroke:none;fill-rule:nonzero;fill:rgb(85.351562%,67.771912%,66.209412%);fill-opacity:1;" d="M 135.765625 100.21875 L 153.296875 128.257812 L 187.859375 90.605469 "/>
<path style="fill:none;stroke-width:5;stroke-linecap:round;stroke-linejoin:round;stroke:rgb(0%,0%,0%);stroke-opacity:1;stroke-miterlimit:10;" d="M 1363.204974 1005.677877 L 1539.233974 724.141299 L 1886.271539 1102.203583 Z M 1363.204974 1005.677877 " transform="matrix(0.099593,0,0,-0.099593,0,200.377191)"/>
<path style=" stroke:none;fill-rule:nonzero;fill:rgb(84.179688%,73.046875%,74.021912%);fill-opacity:1;" d="M 144.109375 66.8125 L 135.765625 100.21875 L 187.859375 90.605469 "/>
<path style="fill:none;stroke-width:5;stroke-linecap:round;stroke-linejoin:round;stroke:rgb(0%,0%,0%);stroke-opacity:1;stroke-miterlimit:10;" d="M 1446.983482 1341.105686 L 1363.204974 1005.677877 L 1886.271539 1102.203583 Z M 1446.983482 1341.105686 " transform="matrix(0.099593,0,0,-0.099593,0,200.377191)"/>
<path style=" stroke:none;fill-rule:nonzero;fill:rgb(86.131287%,81.639099%,80.46875%);fill-opacity:1;" d="M 147.292969 38.878906 L 144.109375 66.8125 L 187.859375 90.605469 "/>
<path style="fill:none;stroke-width:5;stroke-linecap:round;stroke-linejoin:round;stroke:rgb(0%,0%,0%);stroke-opacity:1;stroke-miterlimit:10;" d="M 1478.949532 1621.583266 L 1446.983482 1341.105686 L 1886.271539 1102.203583 Z M 1478.949532 1621.583266 " transform="matrix(0.099593,0,0,-0.099593,0,200.377191)"/>
<path style=" stroke:none;fill-rule:nonzero;fill:rgb(52.146912%,52.146912%,79.6875%);fill-opacity:1;" d="M 89.980469 47.785156 L 44.601562 82.015625 L 34.109375 56.265625 "/>
<path style="fill:none;stroke-width:5;stroke-linecap:round;stroke-linejoin:round;stroke:rgb(0%,0%,0%);stroke-opacity:1;stroke-miterlimit:10;" d="M 903.482178 1532.156769 L 447.838485 1188.453087 L 342.487796 1447.005486 Z M 903.482178 1532.156769 " transform="matrix(0.099593,0,0,-0.099593,0,200.377191)"/>
<path style=" stroke:none;fill-rule:nonzero;fill:rgb(78.709412%,76.756287%,83.59375%);fill-opacity:1;" d="M 89.980469 47.785156 L 144.109375 66.8125 L 147.292969 38.878906 "/>
<path style="fill:none;stroke-width:5;stroke-linecap:round;stroke-linejoin:round;stroke:rgb(0%,0%,0%);stroke-opacity:1;stroke-miterlimit:10;" d="M 903.482178 1532.156769 L 1446.983482 1341.105686 L 1478.949532 1621.583266 Z M 903.482178 1532.156769 " transform="matrix(0.099593,0,0,-0.099593,0,200.377191)"/>
<path style=" stroke:none;fill-rule:nonzero;fill:rgb(60.9375%,41.893005%,59.959412%);fill-opacity:1;" d="M 61.898438 111.441406 L 54.152344 143.234375 L 107.617188 163.191406 "/>
<path style="fill:none;stroke-width:5;stroke-linecap:round;stroke-linejoin:round;stroke:rgb(0%,0%,0%);stroke-opacity:1;stroke-miterlimit:10;" d="M 621.514156 892.992646 L 543.736637 573.763584 L 1080.570176 373.37763 Z M 621.514156 892.992646 " transform="matrix(0.099593,0,0,-0.099593,0,200.377191)"/>
<path style=" stroke:none;fill-rule:nonzero;fill:rgb(79.6875%,59.568787%,63.084412%);fill-opacity:1;" d="M 135.765625 100.21875 L 153.296875 128.257812 L 107.617188 163.191406 "/>
<path style="fill:none;stroke-width:5;stroke-linecap:round;stroke-linejoin:round;stroke:rgb(0%,0%,0%);stroke-opacity:1;stroke-miterlimit:10;" d="M 1363.204974 1005.677877 L 1539.233974 724.141299 L 1080.570176 373.37763 Z M 1363.204974 1005.677877 " transform="matrix(0.099593,0,0,-0.099593,0,200.377191)"/>
<path style=" stroke:none;fill-rule:nonzero;fill:rgb(59.375%,52.146912%,74.414062%);fill-opacity:1;" d="M 89.980469 47.785156 L 44.601562 82.015625 L 61.898438 111.441406 "/>
<path style="fill:none;stroke-width:5;stroke-linecap:round;stroke-linejoin:round;stroke:rgb(0%,0%,0%);stroke-opacity:1;stroke-miterlimit:10;" d="M 903.482178 1532.156769 L 447.838485 1188.453087 L 621.514156 892.992646 Z M 903.482178 1532.156769 " transform="matrix(0.099593,0,0,-0.099593,0,200.377191)"/>
<path style=" stroke:none;fill-rule:nonzero;fill:rgb(77.539062%,69.334412%,77.146912%);fill-opacity:1;" d="M 89.980469 47.785156 L 144.109375 66.8125 L 135.765625 100.21875 "/>
<path style="fill:none;stroke-width:5;stroke-linecap:round;stroke-linejoin:round;stroke:rgb(0%,0%,0%);stroke-opacity:1;stroke-miterlimit:10;" d="M 903.482178 1532.156769 L 1446.983482 1341.105686 L 1363.204974 1005.677877 Z M 903.482178 1532.156769 " transform="matrix(0.099593,0,0,-0.099593,0,200.377191)"/>
<path style=" stroke:none;fill-rule:nonzero;fill:rgb(67.576599%,51.171875%,65.625%);fill-opacity:1;" d="M 98.726562 106.078125 L 61.898438 111.441406 L 107.617188 163.191406 "/>
<path style="fill:none;stroke-width:5;stroke-linecap:round;stroke-linejoin:round;stroke:rgb(0%,0%,0%);stroke-opacity:1;stroke-miterlimit:10;" d="M 991.300567 946.844655 L 621.514156 892.992646 L 1080.570176 373.37763 Z M 991.300567 946.844655 " transform="matrix(0.099593,0,0,-0.099593,0,200.377191)"/>
<path style=" stroke:none;fill-rule:nonzero;fill:rgb(74.021912%,57.226562%,66.796875%);fill-opacity:1;" d="M 135.765625 100.21875 L 98.726562 106.078125 L 107.617188 163.191406 "/>
<path style="fill:none;stroke-width:5;stroke-linecap:round;stroke-linejoin:round;stroke:rgb(0%,0%,0%);stroke-opacity:1;stroke-miterlimit:10;" d="M 1363.204974 1005.677877 L 991.300567 946.844655 L 1080.570176 373.37763 Z M 1363.204974 1005.677877 " transform="matrix(0.099593,0,0,-0.099593,0,200.377191)"/>
<path style=" stroke:none;fill-rule:nonzero;fill:rgb(66.601562%,55.859375%,72.264099%);fill-opacity:1;" d="M 89.980469 47.785156 L 98.726562 106.078125 L 61.898438 111.441406 "/>
<path style="fill:none;stroke-width:5;stroke-linecap:round;stroke-linejoin:round;stroke:rgb(0%,0%,0%);stroke-opacity:1;stroke-miterlimit:10;" d="M 903.482178 1532.156769 L 991.300567 946.844655 L 621.514156 892.992646 Z M 903.482178 1532.156769 " transform="matrix(0.099593,0,0,-0.099593,0,200.377191)"/>
<path style=" stroke:none;fill-rule:nonzero;fill:rgb(73.046875%,61.71875%,73.242188%);fill-opacity:1;" d="M 89.980469 47.785156 L 98.726562 106.078125 L 135.765625 100.21875 "/>
<path style="fill:none;stroke-width:5;stroke-linecap:round;stroke-linejoin:round;stroke:rgb(0%,0%,0%);stroke-opacity:1;stroke-miterlimit:10;" d="M 903.482178 1532.156769 L 991.300567 946.844655 L 1363.204974 1005.677877 Z M 903.482178 1532.156769 " transform="matrix(0.099593,0,0,-0.099593,0,200.377191)"/>
</g>
</svg>
