<?xml version="1.0" encoding="UTF-8"?>
<svg xmlns="http://www.w3.org/2000/svg" xmlns:xlink="http://www.w3.org/1999/xlink" width="201.94pt" height="200.5pt" viewBox="0 0 201.94 200.5" version="1.2">
<g id="surface1">
<path style="fill-rule:nonzero;fill:rgb(84.568787%,40.209961%,0%);fill-opacity:1;stroke-width:5;stroke-linecap:round;stroke-linejoin:round;stroke:rgb(0%,0%,0%);stroke-opacity:1;stroke-miterlimit:10;" d="M 961.311697 931.430993 L 1015.900616 1008.419381 L 1019.816607 942.787368 " transform="matrix(0.0997512,0,0,-0.0997512,0.221244,200.001244)"/>
<path style="fill-rule:nonzero;fill:rgb(84.568787%,40.209961%,0%);fill-opacity:1;stroke-width:5;stroke-linecap:round;stroke-linejoin:round;stroke:rgb(0%,0%,0%);stroke-opacity:1;stroke-miterlimit:10;" d="M 1019.816607 942.787368 L 1027.21783 818.493805 L 981.048293 897.557668 " transform="matrix(0.0997512,0,0,-0.0997512,0.221244,200.001244)"/>
<path style=" stroke:none;fill-rule:nonzero;fill:rgb(84.568787%,40.209961%,0%);fill-opacity:1;" d="M 98.082031 110.46875 L 96.113281 107.089844 L 101.949219 105.957031 "/>
<path style="fill:none;stroke-width:5;stroke-linecap:round;stroke-linejoin:round;stroke:rgb(0%,0%,0%);stroke-opacity:1;stroke-miterlimit:10;" d="M 981.048293 897.557668 L 961.311697 931.430993 " transform="matrix(0.0997512,0,0,-0.0997512,0.221244,200.001244)"/>
<path style=" stroke:none;fill-rule:nonzero;fill:rgb(0%,0%,0%);fill-opacity:1;" d="M 102.6875 118.355469 L 101.832031 114.621094 L 96.113281 107.089844 "/>
<path style="fill:none;stroke-width:5;stroke-linecap:round;stroke-linejoin:round;stroke:rgb(0%,0%,0%);stroke-opacity:1;stroke-miterlimit:10;" d="M 1027.21783 818.493805 L 1018.64181 855.930681 L 961.311697 931.430993 Z M 1027.21783 818.493805 " transform="matrix(0.0997512,0,0,-0.0997512,0.221244,200.001244)"/>
<path style=" stroke:none;fill-rule:nonzero;fill:rgb(8.59375%,41.796875%,86.521912%);fill-opacity:1;" d="M 101.832031 114.621094 L 101.160156 116.464844 L 80.605469 130.847656 "/>
<path style="fill:none;stroke-width:5;stroke-linecap:round;stroke-linejoin:round;stroke:rgb(0%,0%,0%);stroke-opacity:1;stroke-miterlimit:10;" d="M 1018.64181 855.930681 L 1011.906305 837.447202 " transform="matrix(0.0997512,0,0,-0.0997512,0.221244,200.001244)"/>
<path style=" stroke:none;fill-rule:nonzero;fill:rgb(8.59375%,41.796875%,86.521912%);fill-opacity:1;" d="M 34.382812 163.1875 L 82.722656 128.382812 L 80.605469 130.847656 "/>
<path style="fill:none;stroke-width:5;stroke-linecap:round;stroke-linejoin:round;stroke:rgb(0%,0%,0%);stroke-opacity:1;stroke-miterlimit:10;" d="M 342.467597 369.055486 L 827.071517 717.970309 " transform="matrix(0.0997512,0,0,-0.0997512,0.221244,200.001244)"/>
<path style=" stroke:none;fill-rule:nonzero;fill:rgb(8.59375%,41.796875%,86.521912%);fill-opacity:1;" d="M 82.722656 128.382812 L 101.832031 114.621094 L 80.605469 130.847656 "/>
<path style="fill:none;stroke-width:5;stroke-linecap:round;stroke-linejoin:round;stroke:rgb(0%,0%,0%);stroke-opacity:1;stroke-miterlimit:10;" d="M 827.071517 717.970309 L 1018.64181 855.930681 " transform="matrix(0.0997512,0,0,-0.0997512,0.221244,200.001244)"/>
<path style=" stroke:none;fill-rule:nonzero;fill:rgb(0%,0%,23.608398%);fill-opacity:1;" d="M 110.632812 102.171875 L 110.726562 106.863281 L 108.125 110.582031 "/>
<path style="fill:none;stroke-width:5;stroke-linecap:round;stroke-linejoin:round;stroke:rgb(0%,0%,0%);stroke-opacity:1;stroke-miterlimit:10;" d="M 1106.869093 980.733323 L 1107.808931 933.702268 " transform="matrix(0.0997512,0,0,-0.0997512,0.221244,200.001244)"/>
<path style=" stroke:none;fill-rule:nonzero;fill:rgb(0%,0%,23.608398%);fill-opacity:1;" d="M 102.6875 118.355469 L 107.886719 107.765625 L 108.125 110.582031 "/>
<path style="fill:none;stroke-width:5;stroke-linecap:round;stroke-linejoin:round;stroke:rgb(0%,0%,0%);stroke-opacity:1;stroke-miterlimit:10;" d="M 1027.21783 818.493805 L 1079.339674 924.656328 " transform="matrix(0.0997512,0,0,-0.0997512,0.221244,200.001244)"/>
<path style=" stroke:none;fill-rule:nonzero;fill:rgb(0%,0%,23.608398%);fill-opacity:1;" d="M 107.886719 107.765625 L 110.632812 102.171875 L 108.125 110.582031 "/>
<path style="fill:none;stroke-width:5;stroke-linecap:round;stroke-linejoin:round;stroke:rgb(0%,0%,0%);stroke-opacity:1;stroke-miterlimit:10;" d="M 1079.339674 924.656328 L 1106.869093 980.733323 " transform="matrix(0.0997512,0,0,-0.0997512,0.221244,200.001244)"/>
<path style=" stroke:none;fill-rule:nonzero;fill:rgb(0%,0%,23.608398%);fill-opacity:1;" d="M 109.675781 112.523438 L 102.6875 118.355469 L 110.726562 106.863281 "/>
<path style="fill:none;stroke-width:5;stroke-linecap:round;stroke-linejoin:round;stroke:rgb(0%,0%,0%);stroke-opacity:1;stroke-miterlimit:10;" d="M 1097.274914 876.959554 L 1027.21783 818.493805 " transform="matrix(0.0997512,0,0,-0.0997512,0.221244,200.001244)"/>
<path style="fill-rule:nonzero;fill:rgb(27.806091%,0%,0%);fill-opacity:1;stroke-width:5;stroke-linecap:round;stroke-linejoin:round;stroke:rgb(0%,0%,0%);stroke-opacity:1;stroke-miterlimit:10;" d="M 1061.404434 994.556772 L 1106.869093 980.733323 L 1027.21783 818.493805 " transform="matrix(0.0997512,0,0,-0.0997512,0.221244,200.001244)"/>
<path style="fill-rule:nonzero;fill:rgb(27.806091%,0%,0%);fill-opacity:1;stroke-width:5;stroke-linecap:round;stroke-linejoin:round;stroke:rgb(0%,0%,0%);stroke-opacity:1;stroke-miterlimit:10;" d="M 1027.21783 818.493805 L 1015.900616 1008.419381 L 1061.404434 994.556772 " transform="matrix(0.0997512,0,0,-0.0997512,0.221244,200.001244)"/>
<path style="fill-rule:nonzero;fill:rgb(34.301758%,0%,0%);fill-opacity:1;stroke-width:5;stroke-linecap:round;stroke-linejoin:round;stroke:rgb(0%,0%,0%);stroke-opacity:1;stroke-miterlimit:10;" d="M 1018.64181 855.930681 L 1027.21783 818.493805 L 1097.274914 876.959554 " transform="matrix(0.0997512,0,0,-0.0997512,0.221244,200.001244)"/>
<path style="fill-rule:nonzero;fill:rgb(97.65625%,91.992188%,63.476562%);fill-opacity:1;stroke-width:5;stroke-linecap:round;stroke-linejoin:round;stroke:rgb(0%,0%,0%);stroke-opacity:1;stroke-miterlimit:10;" d="M 1011.906305 837.447202 L 1018.64181 855.930681 L 1103.971259 633.345737 " transform="matrix(0.0997512,0,0,-0.0997512,0.221244,200.001244)"/>
<path style=" stroke:none;fill-rule:nonzero;fill:rgb(97.65625%,91.992188%,63.476562%);fill-opacity:1;" d="M 110.34375 136.824219 L 131.9375 193.160156 L 110.613281 140.019531 "/>
<path style="fill:none;stroke-width:5;stroke-linecap:round;stroke-linejoin:round;stroke:rgb(0%,0%,0%);stroke-opacity:1;stroke-miterlimit:10;" d="M 1103.971259 633.345737 L 1320.447257 68.581476 " transform="matrix(0.0997512,0,0,-0.0997512,0.221244,200.001244)"/>
<path style=" stroke:none;fill-rule:nonzero;fill:rgb(97.65625%,91.992188%,63.476562%);fill-opacity:1;" d="M 110.613281 140.019531 L 101.160156 116.464844 L 110.34375 136.824219 "/>
<path style=" stroke:none;fill-rule:nonzero;fill:rgb(4.899597%,20.410156%,70.3125%);fill-opacity:1;" d="M 128.15625 31.847656 L 118.734375 78.742188 L 112.742188 100.078125 "/>
<path style="fill:none;stroke-width:5;stroke-linecap:round;stroke-linejoin:round;stroke:rgb(0%,0%,0%);stroke-opacity:1;stroke-miterlimit:10;" d="M 1282.540461 1685.729232 L 1188.086752 1215.614479 " transform="matrix(0.0997512,0,0,-0.0997512,0.221244,200.001244)"/>
<path style="fill-rule:nonzero;fill:rgb(4.899597%,20.410156%,70.3125%);fill-opacity:1;stroke-width:5;stroke-linecap:round;stroke-linejoin:round;stroke:rgb(0%,0%,0%);stroke-opacity:1;stroke-miterlimit:10;" d="M 1128.015446 1001.723036 L 1106.869093 980.733323 L 1282.540461 1685.729232 " transform="matrix(0.0997512,0,0,-0.0997512,0.221244,200.001244)"/>
<path style=" stroke:none;fill-rule:nonzero;fill:rgb(72.65625%,68.75%,81.054688%);fill-opacity:1;" d="M 128.15625 31.847656 L 110.632812 102.171875 L 101.558594 99.410156 "/>
<path style="fill:none;stroke-width:5;stroke-linecap:round;stroke-linejoin:round;stroke:rgb(0%,0%,0%);stroke-opacity:1;stroke-miterlimit:10;" d="M 1282.540461 1685.729232 L 1106.869093 980.733323 L 1015.900616 1008.419381 Z M 1282.540461 1685.729232 " transform="matrix(0.0997512,0,0,-0.0997512,0.221244,200.001244)"/>
<path style=" stroke:none;fill-rule:nonzero;fill:rgb(4.899597%,20.410156%,70.3125%);fill-opacity:1;" d="M 118.734375 78.742188 L 116.671875 89.015625 L 112.742188 100.078125 "/>
<path style="fill:none;stroke-width:5;stroke-linecap:round;stroke-linejoin:round;stroke:rgb(0%,0%,0%);stroke-opacity:1;stroke-miterlimit:10;" d="M 1188.086752 1215.614479 L 1167.410318 1112.623909 " transform="matrix(0.0997512,0,0,-0.0997512,0.221244,200.001244)"/>
<path style="fill-rule:nonzero;fill:rgb(4.899597%,20.410156%,70.3125%);fill-opacity:1;stroke-width:5;stroke-linecap:round;stroke-linejoin:round;stroke:rgb(0%,0%,0%);stroke-opacity:1;stroke-miterlimit:10;" d="M 1167.410318 1112.623909 L 1149.396758 1022.869389 L 1128.015446 1001.723036 " transform="matrix(0.0997512,0,0,-0.0997512,0.221244,200.001244)"/>
<path style=" stroke:none;fill-rule:nonzero;fill:rgb(88.084412%,80.271912%,76.756287%);fill-opacity:1;" d="M 114.875 97.96875 L 128.15625 31.847656 L 108.3125 92.519531 "/>
<path style="fill:none;stroke-width:5;stroke-linecap:round;stroke-linejoin:round;stroke:rgb(0%,0%,0%);stroke-opacity:1;stroke-miterlimit:10;" d="M 1149.396758 1022.869389 L 1282.540461 1685.729232 L 1083.608105 1077.497467 Z M 1149.396758 1022.869389 " transform="matrix(0.0997512,0,0,-0.0997512,0.221244,200.001244)"/>
<path style="fill-rule:nonzero;fill:rgb(98.826599%,74.414062%,46.409607%);fill-opacity:1;stroke-width:5;stroke-linecap:round;stroke-linejoin:round;stroke:rgb(0%,0%,0%);stroke-opacity:1;stroke-miterlimit:10;" d="M 1000.745729 1068.099088 L 1282.540461 1685.729232 L 1092.889004 1203.866506 " transform="matrix(0.0997512,0,0,-0.0997512,0.221244,200.001244)"/>
<path style="fill-rule:nonzero;fill:rgb(98.826599%,74.414062%,46.409607%);fill-opacity:1;stroke-width:5;stroke-linecap:round;stroke-linejoin:round;stroke:rgb(0%,0%,0%);stroke-opacity:1;stroke-miterlimit:10;" d="M 1092.889004 1203.866506 L 1015.900616 1008.419381 L 1000.745729 1068.099088 " transform="matrix(0.0997512,0,0,-0.0997512,0.221244,200.001244)"/>
<path style=" stroke:none;fill-rule:nonzero;fill:rgb(52.539062%,60.351562%,87.5%);fill-opacity:1;" d="M 128.15625 31.847656 L 100.046875 93.457031 L 108.3125 92.519531 "/>
<path style="fill:none;stroke-width:5;stroke-linecap:round;stroke-linejoin:round;stroke:rgb(0%,0%,0%);stroke-opacity:1;stroke-miterlimit:10;" d="M 1282.540461 1685.729232 L 1000.745729 1068.099088 L 1083.608105 1077.497467 Z M 1282.540461 1685.729232 " transform="matrix(0.0997512,0,0,-0.0997512,0.221244,200.001244)"/>
<path style="fill-rule:nonzero;fill:rgb(63.28125%,58.006287%,77.734375%);fill-opacity:1;stroke-width:5;stroke-linecap:round;stroke-linejoin:round;stroke:rgb(0%,0%,0%);stroke-opacity:1;stroke-miterlimit:10;" d="M 988.645316 969.964347 L 961.311697 931.430993 L 337.964207 1371.431772 " transform="matrix(0.0997512,0,0,-0.0997512,0.221244,200.001244)"/>
<path style="fill-rule:nonzero;fill:rgb(63.28125%,58.006287%,77.734375%);fill-opacity:1;stroke-width:5;stroke-linecap:round;stroke-linejoin:round;stroke:rgb(0%,0%,0%);stroke-opacity:1;stroke-miterlimit:10;" d="M 337.964207 1371.431772 L 1015.900616 1008.419381 L 988.645316 969.964347 " transform="matrix(0.0997512,0,0,-0.0997512,0.221244,200.001244)"/>
<path style="fill-rule:nonzero;fill:rgb(68.359375%,97.65625%,90.039062%);fill-opacity:1;stroke-width:5;stroke-linecap:round;stroke-linejoin:round;stroke:rgb(0%,0%,0%);stroke-opacity:1;stroke-miterlimit:10;" d="M 936.484313 936.835061 L 911.343649 942.317449 L 337.964207 1371.431772 " transform="matrix(0.0997512,0,0,-0.0997512,0.221244,200.001244)"/>
<path style="fill-rule:nonzero;fill:rgb(68.359375%,97.65625%,90.039062%);fill-opacity:1;stroke-width:5;stroke-linecap:round;stroke-linejoin:round;stroke:rgb(0%,0%,0%);stroke-opacity:1;stroke-miterlimit:10;" d="M 337.964207 1371.431772 L 961.311697 931.430993 L 936.484313 936.835061 " transform="matrix(0.0997512,0,0,-0.0997512,0.221244,200.001244)"/>
<path style="fill-rule:nonzero;fill:rgb(36.401367%,7.298279%,33.006287%);fill-opacity:1;stroke-width:5;stroke-linecap:round;stroke-linejoin:round;stroke:rgb(0%,0%,0%);stroke-opacity:1;stroke-miterlimit:10;" d="M 1008.342752 1038.102595 L 1015.900616 1008.419381 L 337.964207 1371.431772 " transform="matrix(0.0997512,0,0,-0.0997512,0.221244,200.001244)"/>
<path style="fill-rule:nonzero;fill:rgb(36.401367%,7.298279%,33.006287%);fill-opacity:1;stroke-width:5;stroke-linecap:round;stroke-linejoin:round;stroke:rgb(0%,0%,0%);stroke-opacity:1;stroke-miterlimit:10;" d="M 337.964207 1371.431772 L 1000.745729 1068.099088 L 1008.342752 1038.102595 " transform="matrix(0.0997512,0,0,-0.0997512,0.221244,200.001244)"/>
<path style="fill-rule:nonzero;fill:rgb(49.804688%,37.693787%,64.646912%);fill-opacity:1;stroke-width:5;stroke-linecap:round;stroke-linejoin:round;stroke:rgb(0%,0%,0%);stroke-opacity:1;stroke-miterlimit:10;" d="M 935.622795 1027.490259 L 337.964207 1371.431772 L 834.159461 1000.07832 " transform="matrix(0.0997512,0,0,-0.0997512,0.221244,200.001244)"/>
<path style=" stroke:none;fill-rule:nonzero;fill:rgb(65.234375%,75.584412%,92.381287%);fill-opacity:1;" d="M 33.933594 63.199219 L 93.550781 97.507812 L 100.046875 93.457031 "/>
<path style="fill:none;stroke-width:5;stroke-linecap:round;stroke-linejoin:round;stroke:rgb(0%,0%,0%);stroke-opacity:1;stroke-miterlimit:10;" d="M 337.964207 1371.431772 L 935.622795 1027.490259 L 1000.745729 1068.099088 Z M 337.964207 1371.431772 " transform="matrix(0.0997512,0,0,-0.0997512,0.221244,200.001244)"/>
<path style=" stroke:none;fill-rule:nonzero;fill:rgb(65.039062%,24.510193%,26.196289%);fill-opacity:1;" d="M 188.996094 110.308594 L 110.632812 102.171875 L 114.875 97.96875 "/>
<path style="fill:none;stroke-width:5;stroke-linecap:round;stroke-linejoin:round;stroke:rgb(0%,0%,0%);stroke-opacity:1;stroke-miterlimit:10;" d="M 1892.456102 899.163225 L 1106.869093 980.733323 L 1149.396758 1022.869389 Z M 1892.456102 899.163225 " transform="matrix(0.0997512,0,0,-0.0997512,0.221244,200.001244)"/>
<path style=" stroke:none;fill-rule:nonzero;fill:rgb(78.90625%,66.992188%,73.242188%);fill-opacity:1;" d="M 188.996094 110.308594 L 110.820312 111.570312 L 110.632812 102.171875 "/>
<path style="fill:none;stroke-width:5;stroke-linecap:round;stroke-linejoin:round;stroke:rgb(0%,0%,0%);stroke-opacity:1;stroke-miterlimit:10;" d="M 1892.456102 899.163225 L 1108.748769 886.514573 L 1106.869093 980.733323 Z M 1892.456102 899.163225 " transform="matrix(0.0997512,0,0,-0.0997512,0.221244,200.001244)"/>
<path style="fill-rule:nonzero;fill:rgb(79.6875%,83.201599%,88.084412%);fill-opacity:1;stroke-width:5;stroke-linecap:round;stroke-linejoin:round;stroke:rgb(0%,0%,0%);stroke-opacity:1;stroke-miterlimit:10;" d="M 1178.100974 953.712983 L 1892.456102 899.163225 L 1248.784617 1006.343906 " transform="matrix(0.0997512,0,0,-0.0997512,0.221244,200.001244)"/>
<path style=" stroke:none;fill-rule:nonzero;fill:rgb(40.989685%,82.421875%,97.264099%);fill-opacity:1;" d="M 188.996094 110.308594 L 115.191406 113.332031 L 110.820312 111.570312 "/>
<path style="fill:none;stroke-width:5;stroke-linecap:round;stroke-linejoin:round;stroke:rgb(0%,0%,0%);stroke-opacity:1;stroke-miterlimit:10;" d="M 1892.456102 899.163225 L 1152.568711 868.853452 L 1108.748769 886.514573 Z M 1892.456102 899.163225 " transform="matrix(0.0997512,0,0,-0.0997512,0.221244,200.001244)"/>
<path style=" stroke:none;fill-rule:nonzero;fill:rgb(80.46875%,55.46875%,56.054688%);fill-opacity:1;" d="M 188.996094 110.308594 L 117.738281 104.867188 L 115.191406 113.332031 "/>
<path style="fill:none;stroke-width:5;stroke-linecap:round;stroke-linejoin:round;stroke:rgb(0%,0%,0%);stroke-opacity:1;stroke-miterlimit:10;" d="M 1892.456102 899.163225 L 1178.100974 953.712983 L 1152.568711 868.853452 Z M 1892.456102 899.163225 " transform="matrix(0.0997512,0,0,-0.0997512,0.221244,200.001244)"/>
<path style="fill-rule:nonzero;fill:rgb(8.59375%,41.796875%,86.521912%);fill-opacity:1;stroke-width:5;stroke-linecap:round;stroke-linejoin:round;stroke:rgb(0%,0%,0%);stroke-opacity:1;stroke-miterlimit:10;" d="M 1011.906305 837.447202 L 1005.09248 818.689604 L 342.467597 369.055486 " transform="matrix(0.0997512,0,0,-0.0997512,0.221244,200.001244)"/>
<path style=" stroke:none;fill-rule:nonzero;fill:rgb(64.451599%,50.976562%,68.554688%);fill-opacity:1;" d="M 34.382812 163.1875 L 96.113281 107.089844 L 101.832031 114.621094 "/>
<path style="fill:none;stroke-width:5;stroke-linecap:round;stroke-linejoin:round;stroke:rgb(0%,0%,0%);stroke-opacity:1;stroke-miterlimit:10;" d="M 342.467597 369.055486 L 961.311697 931.430993 L 1018.64181 855.930681 Z M 342.467597 369.055486 " transform="matrix(0.0997512,0,0,-0.0997512,0.221244,200.001244)"/>
<path style="fill-rule:nonzero;fill:rgb(69.53125%,43.896484%,53.125%);fill-opacity:1;stroke-width:5;stroke-linecap:round;stroke-linejoin:round;stroke:rgb(0%,0%,0%);stroke-opacity:1;stroke-miterlimit:10;" d="M 971.767394 845.435825 L 938.168189 872.299525 L 342.467597 369.055486 " transform="matrix(0.0997512,0,0,-0.0997512,0.221244,200.001244)"/>
<path style="fill-rule:nonzero;fill:rgb(69.53125%,43.896484%,53.125%);fill-opacity:1;stroke-width:5;stroke-linecap:round;stroke-linejoin:round;stroke:rgb(0%,0%,0%);stroke-opacity:1;stroke-miterlimit:10;" d="M 342.467597 369.055486 L 1005.09248 818.689604 L 971.767394 845.435825 " transform="matrix(0.0997512,0,0,-0.0997512,0.221244,200.001244)"/>
<path style=" stroke:none;fill-rule:nonzero;fill:rgb(81.25%,41.209412%,29.101562%);fill-opacity:1;" d="M 34.382812 163.1875 L 91.128906 106.003906 L 96.113281 107.089844 "/>
<path style="fill:none;stroke-width:5;stroke-linecap:round;stroke-linejoin:round;stroke:rgb(0%,0%,0%);stroke-opacity:1;stroke-miterlimit:10;" d="M 342.467597 369.055486 L 911.343649 942.317449 L 961.311697 931.430993 Z M 342.467597 369.055486 " transform="matrix(0.0997512,0,0,-0.0997512,0.221244,200.001244)"/>
<path style="fill-rule:nonzero;fill:rgb(46.99707%,45.896912%,76.367188%);fill-opacity:1;stroke-width:5;stroke-linecap:round;stroke-linejoin:round;stroke:rgb(0%,0%,0%);stroke-opacity:1;stroke-miterlimit:10;" d="M 342.467597 369.055486 L 938.168189 872.299525 L 924.697179 907.465126 " transform="matrix(0.0997512,0,0,-0.0997512,0.221244,200.001244)"/>
<path style=" stroke:none;fill-rule:nonzero;fill:rgb(46.99707%,45.896912%,76.367188%);fill-opacity:1;" d="M 83.621094 113.570312 L 34.382812 163.1875 L 92.460938 109.480469 "/>
<path style="fill:none;stroke-width:5;stroke-linecap:round;stroke-linejoin:round;stroke:rgb(0%,0%,0%);stroke-opacity:1;stroke-miterlimit:10;" d="M 836.078296 866.464698 L 342.467597 369.055486 " transform="matrix(0.0997512,0,0,-0.0997512,0.221244,200.001244)"/>
<path style="fill-rule:nonzero;fill:rgb(97.65625%,91.992188%,63.476562%);fill-opacity:1;stroke-width:5;stroke-linecap:round;stroke-linejoin:round;stroke:rgb(0%,0%,0%);stroke-opacity:1;stroke-miterlimit:10;" d="M 1320.447257 68.581476 L 1005.09248 818.689604 L 1011.906305 837.447202 " transform="matrix(0.0997512,0,0,-0.0997512,0.221244,200.001244)"/>
<path style="fill-rule:nonzero;fill:rgb(0%,0%,23.608398%);fill-opacity:1;stroke-width:5;stroke-linecap:round;stroke-linejoin:round;stroke:rgb(0%,0%,0%);stroke-opacity:1;stroke-miterlimit:10;" d="M 1107.808931 933.702268 L 1108.748769 886.514573 L 1097.274914 876.959554 " transform="matrix(0.0997512,0,0,-0.0997512,0.221244,200.001244)"/>
<path style="fill-rule:nonzero;fill:rgb(34.301758%,0%,0%);fill-opacity:1;stroke-width:5;stroke-linecap:round;stroke-linejoin:round;stroke:rgb(0%,0%,0%);stroke-opacity:1;stroke-miterlimit:10;" d="M 1097.274914 876.959554 L 1108.748769 886.514573 L 1018.64181 855.930681 " transform="matrix(0.0997512,0,0,-0.0997512,0.221244,200.001244)"/>
<path style=" stroke:none;fill-rule:nonzero;fill:rgb(73.4375%,56.25%,65.818787%);fill-opacity:1;" d="M 110.820312 111.570312 L 131.9375 193.160156 L 101.832031 114.621094 "/>
<path style="fill:none;stroke-width:5;stroke-linecap:round;stroke-linejoin:round;stroke:rgb(0%,0%,0%);stroke-opacity:1;stroke-miterlimit:10;" d="M 1108.748769 886.514573 L 1320.447257 68.581476 L 1018.64181 855.930681 Z M 1108.748769 886.514573 " transform="matrix(0.0997512,0,0,-0.0997512,0.221244,200.001244)"/>
<path style="fill-rule:nonzero;fill:rgb(58.396912%,37.304688%,56.25%);fill-opacity:1;stroke-width:5;stroke-linecap:round;stroke-linejoin:round;stroke:rgb(0%,0%,0%);stroke-opacity:1;stroke-miterlimit:10;" d="M 1046.641147 822.566435 L 1005.09248 818.689604 L 1320.447257 68.581476 " transform="matrix(0.0997512,0,0,-0.0997512,0.221244,200.001244)"/>
<path style="fill-rule:nonzero;fill:rgb(58.396912%,37.304688%,56.25%);fill-opacity:1;stroke-width:5;stroke-linecap:round;stroke-linejoin:round;stroke:rgb(0%,0%,0%);stroke-opacity:1;stroke-miterlimit:10;" d="M 1320.447257 68.581476 L 1088.463934 826.521587 L 1046.641147 822.566435 " transform="matrix(0.0997512,0,0,-0.0997512,0.221244,200.001244)"/>
<path style=" stroke:none;fill-rule:nonzero;fill:rgb(20.506287%,5.099487%,43.896484%);fill-opacity:1;" d="M 131.9375 193.160156 L 110.820312 111.570312 L 115.191406 113.332031 "/>
<path style="fill:none;stroke-width:5;stroke-linecap:round;stroke-linejoin:round;stroke:rgb(0%,0%,0%);stroke-opacity:1;stroke-miterlimit:10;" d="M 1320.447257 68.581476 L 1108.748769 886.514573 L 1152.568711 868.853452 Z M 1320.447257 68.581476 " transform="matrix(0.0997512,0,0,-0.0997512,0.221244,200.001244)"/>
<path style=" stroke:none;fill-rule:nonzero;fill:rgb(87.889099%,69.139099%,64.646912%);fill-opacity:1;" d="M 131.9375 193.160156 L 115.191406 113.332031 L 108.796875 117.554688 "/>
<path style="fill:none;stroke-width:5;stroke-linecap:round;stroke-linejoin:round;stroke:rgb(0%,0%,0%);stroke-opacity:1;stroke-miterlimit:10;" d="M 1320.447257 68.581476 L 1152.568711 868.853452 L 1088.463934 826.521587 Z M 1320.447257 68.581476 " transform="matrix(0.0997512,0,0,-0.0997512,0.221244,200.001244)"/>
<path style="fill-rule:nonzero;fill:rgb(79.6875%,83.201599%,88.084412%);fill-opacity:1;stroke-width:5;stroke-linecap:round;stroke-linejoin:round;stroke:rgb(0%,0%,0%);stroke-opacity:1;stroke-miterlimit:10;" d="M 1248.784617 1006.343906 L 1149.396758 1022.869389 L 1178.100974 953.712983 " transform="matrix(0.0997512,0,0,-0.0997512,0.221244,200.001244)"/>
<path style="fill-rule:nonzero;fill:rgb(49.804688%,37.693787%,64.646912%);fill-opacity:1;stroke-width:5;stroke-linecap:round;stroke-linejoin:round;stroke:rgb(0%,0%,0%);stroke-opacity:1;stroke-miterlimit:10;" d="M 834.159461 1000.07832 L 911.343649 942.317449 L 935.622795 1027.490259 " transform="matrix(0.0997512,0,0,-0.0997512,0.221244,200.001244)"/>
<path style="fill-rule:nonzero;fill:rgb(46.99707%,45.896912%,76.367188%);fill-opacity:1;stroke-width:5;stroke-linecap:round;stroke-linejoin:round;stroke:rgb(0%,0%,0%);stroke-opacity:1;stroke-miterlimit:10;" d="M 924.697179 907.465126 L 911.343649 942.317449 L 836.078296 866.464698 " transform="matrix(0.0997512,0,0,-0.0997512,0.221244,200.001244)"/>
<path style=" stroke:none;fill-rule:nonzero;fill:rgb(87.304688%,68.943787%,64.84375%);fill-opacity:1;" d="M 74.257812 9.457031 L 100.046875 93.457031 L 93.550781 97.507812 "/>
<path style="fill:none;stroke-width:5;stroke-linecap:round;stroke-linejoin:round;stroke:rgb(0%,0%,0%);stroke-opacity:1;stroke-miterlimit:10;" d="M 742.211986 1910.193851 L 1000.745729 1068.099088 L 935.622795 1027.490259 Z M 742.211986 1910.193851 " transform="matrix(0.0997512,0,0,-0.0997512,0.221244,200.001244)"/>
<path style=" stroke:none;fill-rule:nonzero;fill:rgb(58.789062%,37.889099%,56.639099%);fill-opacity:1;" d="M 74.257812 9.457031 L 108.3125 92.519531 L 100.046875 93.457031 "/>
<path style="fill:none;stroke-width:5;stroke-linecap:round;stroke-linejoin:round;stroke:rgb(0%,0%,0%);stroke-opacity:1;stroke-miterlimit:10;" d="M 742.211986 1910.193851 L 1083.608105 1077.497467 L 1000.745729 1068.099088 Z M 742.211986 1910.193851 " transform="matrix(0.0997512,0,0,-0.0997512,0.221244,200.001244)"/>
<path style="fill-rule:nonzero;fill:rgb(69.726562%,44.309998%,53.514099%);fill-opacity:1;stroke-width:5;stroke-linecap:round;stroke-linejoin:round;stroke:rgb(0%,0%,0%);stroke-opacity:1;stroke-miterlimit:10;" d="M 1817.699829 1585.871454 L 1149.396758 1022.869389 L 1116.619911 1050.124688 " transform="matrix(0.0997512,0,0,-0.0997512,0.221244,200.001244)"/>
<path style=" stroke:none;fill-rule:nonzero;fill:rgb(47.801208%,46.289062%,76.367188%);fill-opacity:1;" d="M 181.539062 41.808594 L 117.738281 104.867188 L 114.875 97.96875 "/>
<path style="fill:none;stroke-width:5;stroke-linecap:round;stroke-linejoin:round;stroke:rgb(0%,0%,0%);stroke-opacity:1;stroke-miterlimit:10;" d="M 1817.699829 1585.871454 L 1178.100974 953.712983 L 1149.396758 1022.869389 Z M 1817.699829 1585.871454 " transform="matrix(0.0997512,0,0,-0.0997512,0.221244,200.001244)"/>
<path style=" stroke:none;fill-rule:nonzero;fill:rgb(79.492188%,82.617188%,87.693787%);fill-opacity:1;" d="M 8.277344 99.90625 L 91.128906 106.003906 L 93.804688 112.988281 "/>
<path style="fill:none;stroke-width:5;stroke-linecap:round;stroke-linejoin:round;stroke:rgb(0%,0%,0%);stroke-opacity:1;stroke-miterlimit:10;" d="M 80.7619 1003.446072 L 911.343649 942.317449 L 938.168189 872.299525 Z M 80.7619 1003.446072 " transform="matrix(0.0997512,0,0,-0.0997512,0.221244,200.001244)"/>
<path style=" stroke:none;fill-rule:nonzero;fill:rgb(80.271912%,55.664062%,56.443787%);fill-opacity:1;" d="M 91.128906 106.003906 L 8.277344 99.90625 L 93.550781 97.507812 "/>
<path style="fill:none;stroke-width:5;stroke-linecap:round;stroke-linejoin:round;stroke:rgb(0%,0%,0%);stroke-opacity:1;stroke-miterlimit:10;" d="M 911.343649 942.317449 L 80.7619 1003.446072 L 935.622795 1027.490259 Z M 911.343649 942.317449 " transform="matrix(0.0997512,0,0,-0.0997512,0.221244,200.001244)"/>
<path style="fill-rule:nonzero;fill:rgb(69.726562%,44.309998%,53.514099%);fill-opacity:1;stroke-width:5;stroke-linecap:round;stroke-linejoin:round;stroke:rgb(0%,0%,0%);stroke-opacity:1;stroke-miterlimit:10;" d="M 1116.619911 1050.124688 L 1083.608105 1077.497467 L 1817.699829 1585.871454 " transform="matrix(0.0997512,0,0,-0.0997512,0.221244,200.001244)"/>
<path style=" stroke:none;fill-rule:nonzero;fill:rgb(50.389099%,38.305664%,64.84375%);fill-opacity:1;" d="M 185.363281 153.976562 L 115.191406 113.332031 L 117.738281 104.867188 "/>
<path style="fill:none;stroke-width:5;stroke-linecap:round;stroke-linejoin:round;stroke:rgb(0%,0%,0%);stroke-opacity:1;stroke-miterlimit:10;" d="M 1856.037383 461.39456 L 1152.568711 868.853452 L 1178.100974 953.712983 Z M 1856.037383 461.39456 " transform="matrix(0.0997512,0,0,-0.0997512,0.221244,200.001244)"/>
<path style=" stroke:none;fill-rule:nonzero;fill:rgb(65.625%,75.193787%,91.992188%);fill-opacity:1;" d="M 115.191406 113.332031 L 185.363281 153.976562 L 108.796875 117.554688 "/>
<path style="fill:none;stroke-width:5;stroke-linecap:round;stroke-linejoin:round;stroke:rgb(0%,0%,0%);stroke-opacity:1;stroke-miterlimit:10;" d="M 1152.568711 868.853452 L 1856.037383 461.39456 L 1088.463934 826.521587 Z M 1152.568711 868.853452 " transform="matrix(0.0997512,0,0,-0.0997512,0.221244,200.001244)"/>
<path style="fill-rule:nonzero;fill:rgb(53.125%,60.351562%,87.109375%);fill-opacity:1;stroke-width:5;stroke-linecap:round;stroke-linejoin:round;stroke:rgb(0%,0%,0%);stroke-opacity:1;stroke-miterlimit:10;" d="M 993.422826 782.858284 L 1005.09248 818.689604 L 1088.463934 826.521587 " transform="matrix(0.0997512,0,0,-0.0997512,0.221244,200.001244)"/>
<path style="fill-rule:nonzero;fill:rgb(87.693787%,79.6875%,76.756287%);fill-opacity:1;stroke-width:5;stroke-linecap:round;stroke-linejoin:round;stroke:rgb(0%,0%,0%);stroke-opacity:1;stroke-miterlimit:10;" d="M 971.767394 845.435825 L 1005.09248 818.689604 L 993.422826 782.858284 " transform="matrix(0.0997512,0,0,-0.0997512,0.221244,200.001244)"/>
<path style=" stroke:none;fill-rule:nonzero;fill:rgb(4.800415%,39.988708%,85.546875%);fill-opacity:1;" d="M 108.3125 92.519531 L 107.671875 94.257812 L 129.121094 79.03125 "/>
<path style="fill:none;stroke-width:5;stroke-linecap:round;stroke-linejoin:round;stroke:rgb(0%,0%,0%);stroke-opacity:1;stroke-miterlimit:10;" d="M 1083.608105 1077.497467 L 1077.185879 1060.071306 " transform="matrix(0.0997512,0,0,-0.0997512,0.221244,200.001244)"/>
<path style=" stroke:none;fill-rule:nonzero;fill:rgb(4.800415%,39.988708%,85.546875%);fill-opacity:1;" d="M 131.027344 76.789062 L 108.3125 92.519531 L 129.121094 79.03125 "/>
<path style="fill:none;stroke-width:5;stroke-linecap:round;stroke-linejoin:round;stroke:rgb(0%,0%,0%);stroke-opacity:1;stroke-miterlimit:10;" d="M 1311.322997 1235.194436 L 1083.608105 1077.497467 " transform="matrix(0.0997512,0,0,-0.0997512,0.221244,200.001244)"/>
<path style="fill-rule:nonzero;fill:rgb(97.459412%,92.1875%,61.71875%);fill-opacity:1;stroke-width:5;stroke-linecap:round;stroke-linejoin:round;stroke:rgb(0%,0%,0%);stroke-opacity:1;stroke-miterlimit:10;" d="M 1030.076504 1149.786666 L 1070.685334 1042.449345 L 1083.608105 1077.497467 " transform="matrix(0.0997512,0,0,-0.0997512,0.221244,200.001244)"/>
<path style=" stroke:none;fill-rule:nonzero;fill:rgb(97.459412%,92.1875%,61.71875%);fill-opacity:1;" d="M 108.3125 92.519531 L 97.722656 66.691406 L 102.972656 85.308594 "/>
<path style="fill:none;stroke-width:5;stroke-linecap:round;stroke-linejoin:round;stroke:rgb(0%,0%,0%);stroke-opacity:1;stroke-miterlimit:10;" d="M 1083.608105 1077.497467 L 977.445581 1336.42281 " transform="matrix(0.0997512,0,0,-0.0997512,0.221244,200.001244)"/>
<path style="fill-rule:nonzero;fill:rgb(97.459412%,92.1875%,61.71875%);fill-opacity:1;stroke-width:5;stroke-linecap:round;stroke-linejoin:round;stroke:rgb(0%,0%,0%);stroke-opacity:1;stroke-miterlimit:10;" d="M 977.445581 1336.42281 L 742.211986 1910.193851 L 982.066451 1276.586464 " transform="matrix(0.0997512,0,0,-0.0997512,0.221244,200.001244)"/>
<path style=" stroke:none;fill-rule:nonzero;fill:rgb(97.459412%,92.1875%,61.71875%);fill-opacity:1;" d="M 98.183594 72.660156 L 102.972656 85.308594 L 97.722656 66.691406 "/>
<path style="fill:none;stroke-width:5;stroke-linecap:round;stroke-linejoin:round;stroke:rgb(0%,0%,0%);stroke-opacity:1;stroke-miterlimit:10;" d="M 982.066451 1276.586464 L 1030.076504 1149.786666 " transform="matrix(0.0997512,0,0,-0.0997512,0.221244,200.001244)"/>
<path style="fill-rule:nonzero;fill:rgb(0%,0%,19.40918%);fill-opacity:1;stroke-width:5;stroke-linecap:round;stroke-linejoin:round;stroke:rgb(0%,0%,0%);stroke-opacity:1;stroke-miterlimit:10;" d="M 978.15046 1011.160575 L 979.795176 914.200631 L 1005.327439 974.036978 " transform="matrix(0.0997512,0,0,-0.0997512,0.221244,200.001244)"/>
<path style="fill-rule:nonzero;fill:rgb(73.4375%,56.054688%,65.625%);fill-opacity:1;stroke-width:5;stroke-linecap:round;stroke-linejoin:round;stroke:rgb(0%,0%,0%);stroke-opacity:1;stroke-miterlimit:10;" d="M 1024.437477 1026.78538 L 1070.685334 1042.449345 L 1030.076504 1149.786666 " transform="matrix(0.0997512,0,0,-0.0997512,0.221244,200.001244)"/>
<path style="fill-rule:nonzero;fill:rgb(73.4375%,56.054688%,65.625%);fill-opacity:1;stroke-width:5;stroke-linecap:round;stroke-linejoin:round;stroke:rgb(0%,0%,0%);stroke-opacity:1;stroke-miterlimit:10;" d="M 742.211986 1910.193851 L 978.15046 1011.160575 L 1024.437477 1026.78538 " transform="matrix(0.0997512,0,0,-0.0997512,0.221244,200.001244)"/>
<path style=" stroke:none;fill-rule:nonzero;fill:rgb(73.4375%,56.054688%,65.625%);fill-opacity:1;" d="M 102.972656 85.308594 L 74.257812 9.457031 L 102.410156 97.578125 "/>
<path style="fill:none;stroke-width:5;stroke-linecap:round;stroke-linejoin:round;stroke:rgb(0%,0%,0%);stroke-opacity:1;stroke-miterlimit:10;" d="M 1030.076504 1149.786666 L 742.211986 1910.193851 " transform="matrix(0.0997512,0,0,-0.0997512,0.221244,200.001244)"/>
<path style=" stroke:none;fill-rule:nonzero;fill:rgb(38.597107%,0%,0%);fill-opacity:1;" d="M 97.792969 99.136719 L 106.648438 88.433594 L 107.023438 96.015625 "/>
<path style="fill:none;stroke-width:5;stroke-linecap:round;stroke-linejoin:round;stroke:rgb(0%,0%,0%);stroke-opacity:1;stroke-miterlimit:10;" d="M 978.15046 1011.160575 L 1066.925982 1118.458736 L 1070.685334 1042.449345 Z M 978.15046 1011.160575 " transform="matrix(0.0997512,0,0,-0.0997512,0.221244,200.001244)"/>
<path style="fill-rule:nonzero;fill:rgb(0%,0%,19.40918%);fill-opacity:1;stroke-width:5;stroke-linecap:round;stroke-linejoin:round;stroke:rgb(0%,0%,0%);stroke-opacity:1;stroke-miterlimit:10;" d="M 1005.327439 974.036978 L 1066.925982 1118.458736 L 1000.39329 1038.024275 " transform="matrix(0.0997512,0,0,-0.0997512,0.221244,200.001244)"/>
<path style=" stroke:none;fill-rule:nonzero;fill:rgb(0%,0%,19.40918%);fill-opacity:1;" d="M 100.011719 96.457031 L 97.792969 99.136719 L 100.503906 102.839844 "/>
<path style="fill:none;stroke-width:5;stroke-linecap:round;stroke-linejoin:round;stroke:rgb(0%,0%,0%);stroke-opacity:1;stroke-miterlimit:10;" d="M 1000.39329 1038.024275 L 978.15046 1011.160575 " transform="matrix(0.0997512,0,0,-0.0997512,0.221244,200.001244)"/>
<path style="fill-rule:nonzero;fill:rgb(4.800415%,39.988708%,85.546875%);fill-opacity:1;stroke-width:5;stroke-linecap:round;stroke-linejoin:round;stroke:rgb(0%,0%,0%);stroke-opacity:1;stroke-miterlimit:10;" d="M 1077.185879 1060.071306 L 1070.685334 1042.449345 L 1817.699829 1585.871454 " transform="matrix(0.0997512,0,0,-0.0997512,0.221244,200.001244)"/>
<path style=" stroke:none;fill-rule:nonzero;fill:rgb(64.256287%,50.78125%,68.359375%);fill-opacity:1;" d="M 112.914062 103.738281 L 181.539062 41.808594 L 107.023438 96.015625 "/>
<path style="fill:none;stroke-width:5;stroke-linecap:round;stroke-linejoin:round;stroke:rgb(0%,0%,0%);stroke-opacity:1;stroke-miterlimit:10;" d="M 1129.738482 965.030198 L 1817.699829 1585.871454 L 1070.685334 1042.449345 Z M 1129.738482 965.030198 " transform="matrix(0.0997512,0,0,-0.0997512,0.221244,200.001244)"/>
<path style=" stroke:none;fill-rule:nonzero;fill:rgb(0%,0%,0%);fill-opacity:1;" d="M 107.023438 96.015625 L 106.648438 88.433594 L 112.914062 103.738281 "/>
<path style="fill:none;stroke-width:5;stroke-linecap:round;stroke-linejoin:round;stroke:rgb(0%,0%,0%);stroke-opacity:1;stroke-miterlimit:10;" d="M 1070.685334 1042.449345 L 1066.925982 1118.458736 L 1129.738482 965.030198 Z M 1070.685334 1042.449345 " transform="matrix(0.0997512,0,0,-0.0997512,0.221244,200.001244)"/>
<path style=" stroke:none;fill-rule:nonzero;fill:rgb(82.421875%,37.597656%,0%);fill-opacity:1;" d="M 112.914062 103.738281 L 111.34375 99.902344 L 107.289062 110.578125 "/>
<path style="fill:none;stroke-width:5;stroke-linecap:round;stroke-linejoin:round;stroke:rgb(0%,0%,0%);stroke-opacity:1;stroke-miterlimit:10;" d="M 1129.738482 965.030198 L 1113.996197 1003.485232 " transform="matrix(0.0997512,0,0,-0.0997512,0.221244,200.001244)"/>
<path style="fill-rule:nonzero;fill:rgb(82.421875%,37.597656%,0%);fill-opacity:1;stroke-width:5;stroke-linecap:round;stroke-linejoin:round;stroke:rgb(0%,0%,0%);stroke-opacity:1;stroke-miterlimit:10;" d="M 1113.996197 1003.485232 L 1066.925982 1118.458736 L 1071.703491 953.791303 " transform="matrix(0.0997512,0,0,-0.0997512,0.221244,200.001244)"/>
<path style=" stroke:none;fill-rule:nonzero;fill:rgb(82.421875%,37.597656%,0%);fill-opacity:1;" d="M 107.125 104.859375 L 107.289062 110.578125 L 111.34375 99.902344 "/>
<path style="fill:none;stroke-width:5;stroke-linecap:round;stroke-linejoin:round;stroke:rgb(0%,0%,0%);stroke-opacity:1;stroke-miterlimit:10;" d="M 1071.703491 953.791303 L 1073.348208 896.461191 " transform="matrix(0.0997512,0,0,-0.0997512,0.221244,200.001244)"/>
<path style=" stroke:none;fill-rule:nonzero;fill:rgb(4.800415%,39.988708%,85.546875%);fill-opacity:1;" d="M 181.539062 41.808594 L 131.027344 76.789062 L 129.121094 79.03125 "/>
<path style="fill:none;stroke-width:5;stroke-linecap:round;stroke-linejoin:round;stroke:rgb(0%,0%,0%);stroke-opacity:1;stroke-miterlimit:10;" d="M 1817.699829 1585.871454 L 1311.322997 1235.194436 " transform="matrix(0.0997512,0,0,-0.0997512,0.221244,200.001244)"/>
<path style=" stroke:none;fill-rule:nonzero;fill:rgb(18.089294%,2.700806%,42.405701%);fill-opacity:1;" d="M 97.792969 99.136719 L 74.257812 9.457031 L 93.550781 97.507812 "/>
<path style="fill:none;stroke-width:5;stroke-linecap:round;stroke-linejoin:round;stroke:rgb(0%,0%,0%);stroke-opacity:1;stroke-miterlimit:10;" d="M 978.15046 1011.160575 L 742.211986 1910.193851 L 935.622795 1027.490259 Z M 978.15046 1011.160575 " transform="matrix(0.0997512,0,0,-0.0997512,0.221244,200.001244)"/>
<path style="fill-rule:nonzero;fill:rgb(37.889099%,81.443787%,95.896912%);fill-opacity:1;stroke-width:5;stroke-linecap:round;stroke-linejoin:round;stroke:rgb(0%,0%,0%);stroke-opacity:1;stroke-miterlimit:10;" d="M 956.769147 1019.384157 L 935.622795 1027.490259 L 80.7619 1003.446072 " transform="matrix(0.0997512,0,0,-0.0997512,0.221244,200.001244)"/>
<path style=" stroke:none;fill-rule:nonzero;fill:rgb(87.693787%,79.6875%,76.756287%);fill-opacity:1;" d="M 93.804688 112.988281 L 97.15625 115.667969 L 99.316406 121.910156 "/>
<path style="fill:none;stroke-width:5;stroke-linecap:round;stroke-linejoin:round;stroke:rgb(0%,0%,0%);stroke-opacity:1;stroke-miterlimit:10;" d="M 938.168189 872.299525 L 971.767394 845.435825 " transform="matrix(0.0997512,0,0,-0.0997512,0.221244,200.001244)"/>
<path style=" stroke:none;fill-rule:nonzero;fill:rgb(81.25%,40.306091%,27.197266%);fill-opacity:1;" d="M 181.539062 41.808594 L 112.914062 103.738281 L 117.738281 104.867188 "/>
<path style="fill:none;stroke-width:5;stroke-linecap:round;stroke-linejoin:round;stroke:rgb(0%,0%,0%);stroke-opacity:1;stroke-miterlimit:10;" d="M 1817.699829 1585.871454 L 1129.738482 965.030198 L 1178.100974 953.712983 Z M 1817.699829 1585.871454 " transform="matrix(0.0997512,0,0,-0.0997512,0.221244,200.001244)"/>
<path style=" stroke:none;fill-rule:nonzero;fill:rgb(66.209412%,97.264099%,88.671875%);fill-opacity:1;" d="M 185.363281 153.976562 L 117.738281 104.867188 L 112.914062 103.738281 "/>
<path style="fill:none;stroke-width:5;stroke-linecap:round;stroke-linejoin:round;stroke:rgb(0%,0%,0%);stroke-opacity:1;stroke-miterlimit:10;" d="M 1856.037383 461.39456 L 1178.100974 953.712983 L 1129.738482 965.030198 Z M 1856.037383 461.39456 " transform="matrix(0.0997512,0,0,-0.0997512,0.221244,200.001244)"/>
<path style="fill-rule:nonzero;fill:rgb(87.693787%,79.6875%,76.756287%);fill-opacity:1;stroke-width:5;stroke-linecap:round;stroke-linejoin:round;stroke:rgb(0%,0%,0%);stroke-opacity:1;stroke-miterlimit:10;" d="M 993.422826 782.858284 L 765.355494 84.010482 L 938.168189 872.299525 " transform="matrix(0.0997512,0,0,-0.0997512,0.221244,200.001244)"/>
<path style="fill-rule:nonzero;fill:rgb(53.125%,60.351562%,87.109375%);fill-opacity:1;stroke-width:5;stroke-linecap:round;stroke-linejoin:round;stroke:rgb(0%,0%,0%);stroke-opacity:1;stroke-miterlimit:10;" d="M 1088.463934 826.521587 L 765.355494 84.010482 L 993.422826 782.858284 " transform="matrix(0.0997512,0,0,-0.0997512,0.221244,200.001244)"/>
<path style="fill-rule:nonzero;fill:rgb(64.451599%,22.996521%,24.291992%);fill-opacity:1;stroke-width:5;stroke-linecap:round;stroke-linejoin:round;stroke:rgb(0%,0%,0%);stroke-opacity:1;stroke-miterlimit:10;" d="M 80.7619 1003.446072 L 938.168189 872.299525 L 958.883783 893.171758 " transform="matrix(0.0997512,0,0,-0.0997512,0.221244,200.001244)"/>
<path style="fill-rule:nonzero;fill:rgb(1.400757%,18.188477%,69.334412%);fill-opacity:1;stroke-width:5;stroke-linecap:round;stroke-linejoin:round;stroke:rgb(0%,0%,0%);stroke-opacity:1;stroke-miterlimit:10;" d="M 969.18284 873.043563 L 979.795176 914.200631 L 938.168189 872.299525 " transform="matrix(0.0997512,0,0,-0.0997512,0.221244,200.001244)"/>
<path style="fill-rule:nonzero;fill:rgb(1.400757%,18.188477%,69.334412%);fill-opacity:1;stroke-width:5;stroke-linecap:round;stroke-linejoin:round;stroke:rgb(0%,0%,0%);stroke-opacity:1;stroke-miterlimit:10;" d="M 938.168189 872.299525 L 765.355494 84.010482 L 969.18284 873.043563 " transform="matrix(0.0997512,0,0,-0.0997512,0.221244,200.001244)"/>
<path style=" stroke:none;fill-rule:nonzero;fill:rgb(34.788513%,5.099487%,31.201172%);fill-opacity:1;" d="M 185.363281 153.976562 L 107.320312 111.660156 L 108.796875 117.554688 "/>
<path style="fill:none;stroke-width:5;stroke-linecap:round;stroke-linejoin:round;stroke:rgb(0%,0%,0%);stroke-opacity:1;stroke-miterlimit:10;" d="M 1856.037383 461.39456 L 1073.661487 885.613895 L 1088.463934 826.521587 Z M 1856.037383 461.39456 " transform="matrix(0.0997512,0,0,-0.0997512,0.221244,200.001244)"/>
<path style=" stroke:none;fill-rule:nonzero;fill:rgb(99.021912%,74.21875%,44.700623%);fill-opacity:1;" d="M 107.320312 111.660156 L 76.566406 191.621094 L 108.796875 117.554688 "/>
<path style="fill:none;stroke-width:5;stroke-linecap:round;stroke-linejoin:round;stroke:rgb(0%,0%,0%);stroke-opacity:1;stroke-miterlimit:10;" d="M 1073.661487 885.613895 L 765.355494 84.010482 L 1088.463934 826.521587 Z M 1073.661487 885.613895 " transform="matrix(0.0997512,0,0,-0.0997512,0.221244,200.001244)"/>
<path style="fill-rule:nonzero;fill:rgb(37.889099%,81.443787%,95.896912%);fill-opacity:1;stroke-width:5;stroke-linecap:round;stroke-linejoin:round;stroke:rgb(0%,0%,0%);stroke-opacity:1;stroke-miterlimit:10;" d="M 80.7619 1003.446072 L 978.15046 1011.160575 L 956.769147 1019.384157 " transform="matrix(0.0997512,0,0,-0.0997512,0.221244,200.001244)"/>
<path style="fill-rule:nonzero;fill:rgb(64.451599%,22.996521%,24.291992%);fill-opacity:1;stroke-width:5;stroke-linecap:round;stroke-linejoin:round;stroke:rgb(0%,0%,0%);stroke-opacity:1;stroke-miterlimit:10;" d="M 958.883783 893.171758 L 979.795176 914.200631 L 80.7619 1003.446072 " transform="matrix(0.0997512,0,0,-0.0997512,0.221244,200.001244)"/>
<path style="fill-rule:nonzero;fill:rgb(79.101562%,67.1875%,73.242188%);fill-opacity:1;stroke-width:5;stroke-linecap:round;stroke-linejoin:round;stroke:rgb(0%,0%,0%);stroke-opacity:1;stroke-miterlimit:10;" d="M 978.972818 962.719763 L 978.15046 1011.160575 L 80.7619 1003.446072 " transform="matrix(0.0997512,0,0,-0.0997512,0.221244,200.001244)"/>
<path style="fill-rule:nonzero;fill:rgb(82.421875%,37.597656%,0%);fill-opacity:1;stroke-width:5;stroke-linecap:round;stroke-linejoin:round;stroke:rgb(0%,0%,0%);stroke-opacity:1;stroke-miterlimit:10;" d="M 1073.348208 896.461191 L 1073.661487 885.613895 L 1129.738482 965.030198 " transform="matrix(0.0997512,0,0,-0.0997512,0.221244,200.001244)"/>
<path style="fill-rule:nonzero;fill:rgb(63.28125%,58.006287%,77.929688%);fill-opacity:1;stroke-width:5;stroke-linecap:round;stroke-linejoin:round;stroke:rgb(0%,0%,0%);stroke-opacity:1;stroke-miterlimit:10;" d="M 1856.037383 461.39456 L 1129.738482 965.030198 L 1101.739144 925.361206 " transform="matrix(0.0997512,0,0,-0.0997512,0.221244,200.001244)"/>
<path style="fill-rule:nonzero;fill:rgb(79.101562%,67.1875%,73.242188%);fill-opacity:1;stroke-width:5;stroke-linecap:round;stroke-linejoin:round;stroke:rgb(0%,0%,0%);stroke-opacity:1;stroke-miterlimit:10;" d="M 870.2649 925.087087 L 979.795176 914.200631 L 978.972818 962.719763 " transform="matrix(0.0997512,0,0,-0.0997512,0.221244,200.001244)"/>
<path style=" stroke:none;fill-rule:nonzero;fill:rgb(79.101562%,67.1875%,73.242188%);fill-opacity:1;" d="M 74.0625 106.433594 L 87.03125 107.722656 L 97.875 103.96875 "/>
<path style="fill:none;stroke-width:5;stroke-linecap:round;stroke-linejoin:round;stroke:rgb(0%,0%,0%);stroke-opacity:1;stroke-miterlimit:10;" d="M 740.25399 938.009858 L 870.2649 925.087087 " transform="matrix(0.0997512,0,0,-0.0997512,0.221244,200.001244)"/>
<path style=" stroke:none;fill-rule:nonzero;fill:rgb(79.101562%,67.1875%,73.242188%);fill-opacity:1;" d="M 8.277344 99.90625 L 74.0625 106.433594 L 97.875 103.96875 "/>
<path style="fill:none;stroke-width:5;stroke-linecap:round;stroke-linejoin:round;stroke:rgb(0%,0%,0%);stroke-opacity:1;stroke-miterlimit:10;" d="M 80.7619 1003.446072 L 740.25399 938.009858 " transform="matrix(0.0997512,0,0,-0.0997512,0.221244,200.001244)"/>
<path style="fill-rule:nonzero;fill:rgb(63.28125%,58.006287%,77.929688%);fill-opacity:1;stroke-width:5;stroke-linecap:round;stroke-linejoin:round;stroke:rgb(0%,0%,0%);stroke-opacity:1;stroke-miterlimit:10;" d="M 1101.739144 925.361206 L 1073.661487 885.613895 L 1856.037383 461.39456 " transform="matrix(0.0997512,0,0,-0.0997512,0.221244,200.001244)"/>
<path style=" stroke:none;fill-rule:nonzero;fill:rgb(24.705505%,0%,0%);fill-opacity:1;" d="M 106.648438 88.433594 L 97.957031 108.808594 L 107.320312 111.660156 "/>
<path style="fill:none;stroke-width:5;stroke-linecap:round;stroke-linejoin:round;stroke:rgb(0%,0%,0%);stroke-opacity:1;stroke-miterlimit:10;" d="M 1066.925982 1118.458736 L 979.795176 914.200631 L 1073.661487 885.613895 Z M 1066.925982 1118.458736 " transform="matrix(0.0997512,0,0,-0.0997512,0.221244,200.001244)"/>
<path style="fill-rule:nonzero;fill:rgb(72.65625%,68.943787%,81.443787%);fill-opacity:1;stroke-width:5;stroke-linecap:round;stroke-linejoin:round;stroke:rgb(0%,0%,0%);stroke-opacity:1;stroke-miterlimit:10;" d="M 1026.747911 899.907263 L 979.795176 914.200631 L 765.355494 84.010482 " transform="matrix(0.0997512,0,0,-0.0997512,0.221244,200.001244)"/>
<path style="fill-rule:nonzero;fill:rgb(72.65625%,68.943787%,81.443787%);fill-opacity:1;stroke-width:5;stroke-linecap:round;stroke-linejoin:round;stroke:rgb(0%,0%,0%);stroke-opacity:1;stroke-miterlimit:10;" d="M 765.355494 84.010482 L 1073.661487 885.613895 L 1026.747911 899.907263 " transform="matrix(0.0997512,0,0,-0.0997512,0.221244,200.001244)"/>
</g>
</svg>
