<?xml version="1.0" encoding="UTF-8"?>
<svg xmlns="http://www.w3.org/2000/svg" xmlns:xlink="http://www.w3.org/1999/xlink" width="172.54pt" height="151.13pt" viewBox="0 0 172.54 151.13" version="1.2">
<defs>
<clipPath id="clip1">
  <path d="M 18 48 L 171.816406 48 L 171.816406 97 L 18 97 Z M 18 48 "/>
</clipPath>
<clipPath id="clip2">
  <path d="M 75 48 L 171.816406 48 L 171.816406 97 L 75 97 Z M 75 48 "/>
</clipPath>
<clipPath id="clip3">
  <path d="M 74 47 L 171.816406 47 L 171.816406 97 L 74 97 Z M 74 47 "/>
</clipPath>
<clipPath id="clip4">
  <path d="M 138 24 L 171.816406 24 L 171.816406 97 L 138 97 Z M 138 24 "/>
</clipPath>
<clipPath id="clip5">
  <path d="M 0.265625 40 L 19 40 L 19 116 L 0.265625 116 Z M 0.265625 40 "/>
</clipPath>
<clipPath id="clip6">
  <path d="M 0.265625 40 L 20 40 L 20 116 L 0.265625 116 Z M 0.265625 40 "/>
</clipPath>
<clipPath id="clip7">
  <path d="M 0.265625 6 L 42 6 L 42 71 L 0.265625 71 Z M 0.265625 6 "/>
</clipPath>
<clipPath id="clip8">
  <path d="M 0.265625 6 L 42 6 L 42 72 L 0.265625 72 Z M 0.265625 6 "/>
</clipPath>
<clipPath id="clip9">
  <path d="M 8 70 L 171.816406 70 L 171.816406 116 L 8 116 Z M 8 70 "/>
</clipPath>
<clipPath id="clip10">
  <path d="M 0.265625 6 L 106 6 L 106 98 L 0.265625 98 Z M 0.265625 6 "/>
</clipPath>
<clipPath id="clip11">
  <path d="M 0.265625 6 L 42 6 L 42 41 L 0.265625 41 Z M 0.265625 6 "/>
</clipPath>
<clipPath id="clip12">
  <path d="M 165 24 L 171.816406 24 L 171.816406 97 L 165 97 Z M 165 24 "/>
</clipPath>
<clipPath id="clip13">
  <path d="M 63 96 L 171.816406 96 L 171.816406 150.265625 L 63 150.265625 Z M 63 96 "/>
</clipPath>
<clipPath id="clip14">
  <path d="M 8 96 L 171.816406 96 L 171.816406 150.265625 L 8 150.265625 Z M 8 96 "/>
</clipPath>
<clipPath id="clip15">
  <path d="M 8 115 L 64 115 L 64 150.265625 L 8 150.265625 Z M 8 115 "/>
</clipPath>
<clipPath id="clip16">
  <path d="M 141 67 L 171.816406 67 L 171.816406 141 L 141 141 Z M 141 67 "/>
</clipPath>
<clipPath id="clip17">
  <path d="M 8 83 L 64 83 L 64 150.265625 L 8 150.265625 Z M 8 83 "/>
</clipPath>
<clipPath id="clip18">
  <path d="M 8 82 L 64 82 L 64 150.265625 L 8 150.265625 Z M 8 82 "/>
</clipPath>
<clipPath id="clip19">
  <path d="M 0.265625 40 L 25 40 L 25 116 L 0.265625 116 Z M 0.265625 40 "/>
</clipPath>
<clipPath id="clip20">
  <path d="M 0.265625 40 L 106 40 L 106 98 L 0.265625 98 Z M 0.265625 40 "/>
</clipPath>
<clipPath id="clip21">
  <path d="M 0.265625 40 L 107 40 L 107 98 L 0.265625 98 Z M 0.265625 40 "/>
</clipPath>
<clipPath id="clip22">
  <path d="M 63 97 L 142 97 L 142 150.265625 L 63 150.265625 Z M 63 97 "/>
</clipPath>
<clipPath id="clip23">
  <path d="M 24 83 L 106 83 L 106 150.265625 L 24 150.265625 Z M 24 83 "/>
</clipPath>
<clipPath id="clip24">
  <path d="M 24 82 L 107 82 L 107 150.265625 L 24 150.265625 Z M 24 82 "/>
</clipPath>
</defs>
<g id="surface1">
<path style="fill-rule:nonzero;fill:rgb(82.566833%,55.358887%,57.879639%);fill-opacity:1;stroke-width:5;stroke-linecap:round;stroke-linejoin:round;stroke:rgb(13.729858%,12.159729%,12.548828%);stroke-opacity:1;stroke-miterlimit:10;" d="M 409.733259 1446.986578 L 187.288179 799.648607 L 752.240538 1026.572448 Z M 409.733259 1446.986578 " transform="matrix(0.0994276,0,0,-0.0994276,0.265099,150.26498)"/>
<path style="fill-rule:nonzero;fill:rgb(62.982178%,38.061523%,61.183167%);fill-opacity:1;stroke-width:5;stroke-linecap:round;stroke-linejoin:round;stroke:rgb(13.729858%,12.159729%,12.548828%);stroke-opacity:1;stroke-miterlimit:10;" d="M 1099.108714 1508.785608 L 752.240538 1026.572448 L 1393.528254 925.368186 Z M 1099.108714 1508.785608 " transform="matrix(0.0994276,0,0,-0.0994276,0.265099,150.26498)"/>
<path style="fill-rule:nonzero;fill:rgb(72.424316%,38.490295%,51.191711%);fill-opacity:1;stroke-width:5;stroke-linecap:round;stroke-linejoin:round;stroke:rgb(13.729858%,12.159729%,12.548828%);stroke-opacity:1;stroke-miterlimit:10;" d="M 1099.108714 1508.785608 L 409.733259 1446.986578 L 752.240538 1026.572448 Z M 1099.108714 1508.785608 " transform="matrix(0.0994276,0,0,-0.0994276,0.265099,150.26498)"/>
<g clip-path="url(#clip1)" clip-rule="nonzero">
<path style=" stroke:none;fill-rule:nonzero;fill:rgb(68.360901%,73.706055%,89.868164%);fill-opacity:1;" d="M 75.058594 48.195312 L 18.886719 70.757812 L 171.5625 96.679688 "/>
</g>
<path style="fill:none;stroke-width:5;stroke-linecap:round;stroke-linejoin:round;stroke:rgb(13.729858%,12.159729%,12.548828%);stroke-opacity:1;stroke-miterlimit:10;" d="M 752.240538 1026.572448 L 187.288179 799.648607 " transform="matrix(0.0994276,0,0,-0.0994276,0.265099,150.26498)"/>
<g clip-path="url(#clip2)" clip-rule="nonzero">
<path style=" stroke:none;fill-rule:nonzero;fill:rgb(68.360901%,73.706055%,89.868164%);fill-opacity:1;" d="M 171.5625 96.679688 L 138.820312 58.257812 L 75.058594 48.195312 "/>
</g>
<g clip-path="url(#clip3)" clip-rule="nonzero">
<path style="fill:none;stroke-width:5;stroke-linecap:round;stroke-linejoin:round;stroke:rgb(13.729858%,12.159729%,12.548828%);stroke-opacity:1;stroke-miterlimit:10;" d="M 1722.834977 538.93763 L 1393.528254 925.368186 L 752.240538 1026.572448 " transform="matrix(0.0994276,0,0,-0.0994276,0.265099,150.26498)"/>
</g>
<g clip-path="url(#clip4)" clip-rule="nonzero">
<path style="fill-rule:nonzero;fill:rgb(28.089905%,19.299316%,58.679199%);fill-opacity:1;stroke-width:5;stroke-linecap:round;stroke-linejoin:round;stroke:rgb(13.729858%,12.159729%,12.548828%);stroke-opacity:1;stroke-miterlimit:10;" d="M 1666.536177 1265.832522 L 1393.528254 925.368186 L 1722.834977 538.93763 Z M 1666.536177 1265.832522 " transform="matrix(0.0994276,0,0,-0.0994276,0.265099,150.26498)"/>
</g>
<path style="fill-rule:nonzero;fill:rgb(44.05365%,19.888306%,50.614929%);fill-opacity:1;stroke-width:5;stroke-linecap:round;stroke-linejoin:round;stroke:rgb(13.729858%,12.159729%,12.548828%);stroke-opacity:1;stroke-miterlimit:10;" d="M 1666.536177 1265.832522 L 1099.108714 1508.785608 L 1393.528254 925.368186 Z M 1666.536177 1265.832522 " transform="matrix(0.0994276,0,0,-0.0994276,0.265099,150.26498)"/>
<g clip-path="url(#clip5)" clip-rule="nonzero">
<path style=" stroke:none;fill-rule:nonzero;fill:rgb(98.197937%,83.679199%,39.831543%);fill-opacity:1;" d="M 0.511719 40.410156 L 8.390625 115.335938 L 18.886719 70.757812 Z M 0.511719 40.410156 "/>
</g>
<g clip-path="url(#clip6)" clip-rule="nonzero">
<path style="fill:none;stroke-width:5;stroke-linecap:round;stroke-linejoin:round;stroke:rgb(13.729858%,12.159729%,12.548828%);stroke-opacity:1;stroke-miterlimit:10;" d="M 2.480398 1104.872173 L 81.72302 351.301158 L 187.288179 799.648607 Z M 2.480398 1104.872173 " transform="matrix(0.0994276,0,0,-0.0994276,0.265099,150.26498)"/>
</g>
<g clip-path="url(#clip7)" clip-rule="nonzero">
<path style=" stroke:none;fill-rule:nonzero;fill:rgb(94.589233%,59.387207%,36.419678%);fill-opacity:1;" d="M 41.003906 6.394531 L 0.511719 40.410156 L 18.886719 70.757812 Z M 41.003906 6.394531 "/>
</g>
<g clip-path="url(#clip8)" clip-rule="nonzero">
<path style="fill:none;stroke-width:5;stroke-linecap:round;stroke-linejoin:round;stroke:rgb(13.729858%,12.159729%,12.548828%);stroke-opacity:1;stroke-miterlimit:10;" d="M 409.733259 1446.986578 L 2.480398 1104.872173 L 187.288179 799.648607 Z M 409.733259 1446.986578 " transform="matrix(0.0994276,0,0,-0.0994276,0.265099,150.26498)"/>
</g>
<g clip-path="url(#clip9)" clip-rule="nonzero">
<path style=" stroke:none;fill-rule:nonzero;fill:rgb(68.360901%,73.706055%,89.868164%);fill-opacity:1;" d="M 18.886719 70.757812 L 8.390625 115.335938 L 171.5625 96.679688 "/>
</g>
<path style="fill:none;stroke-width:5;stroke-linecap:round;stroke-linejoin:round;stroke:rgb(13.729858%,12.159729%,12.548828%);stroke-opacity:1;stroke-miterlimit:10;" d="M 187.288179 799.648607 L 81.72302 351.301158 " transform="matrix(0.0994276,0,0,-0.0994276,0.265099,150.26498)"/>
<path style=" stroke:none;fill-rule:nonzero;fill:rgb(67.216492%,76.040649%,91.134644%);fill-opacity:1;" d="M 109.546875 0.25 L 165.964844 24.40625 L 105.78125 97.351562 "/>
<path style="fill:none;stroke-width:5;stroke-linecap:round;stroke-linejoin:round;stroke:rgb(13.729858%,12.159729%,12.548828%);stroke-opacity:1;stroke-miterlimit:10;" d="M 1099.108714 1508.785608 L 1666.536177 1265.832522 " transform="matrix(0.0994276,0,0,-0.0994276,0.265099,150.26498)"/>
<path style=" stroke:none;fill-rule:nonzero;fill:rgb(67.216492%,76.040649%,91.134644%);fill-opacity:1;" d="M 41.003906 6.394531 L 109.546875 0.25 L 105.78125 97.351562 "/>
<path style="fill:none;stroke-width:5;stroke-linecap:round;stroke-linejoin:round;stroke:rgb(13.729858%,12.159729%,12.548828%);stroke-opacity:1;stroke-miterlimit:10;" d="M 409.733259 1446.986578 L 1099.108714 1508.785608 " transform="matrix(0.0994276,0,0,-0.0994276,0.265099,150.26498)"/>
<g clip-path="url(#clip10)" clip-rule="nonzero">
<path style=" stroke:none;fill-rule:nonzero;fill:rgb(67.216492%,76.040649%,91.134644%);fill-opacity:1;" d="M 0.511719 40.410156 L 41.003906 6.394531 L 105.78125 97.351562 "/>
</g>
<g clip-path="url(#clip11)" clip-rule="nonzero">
<path style="fill:none;stroke-width:5;stroke-linecap:round;stroke-linejoin:round;stroke:rgb(13.729858%,12.159729%,12.548828%);stroke-opacity:1;stroke-miterlimit:10;" d="M 2.480398 1104.872173 L 409.733259 1446.986578 " transform="matrix(0.0994276,0,0,-0.0994276,0.265099,150.26498)"/>
</g>
<g clip-path="url(#clip12)" clip-rule="nonzero">
<path style="fill-rule:nonzero;fill:rgb(6.30188%,5.761719%,5.056763%);fill-opacity:1;stroke-width:5;stroke-linecap:round;stroke-linejoin:round;stroke:rgb(13.729858%,12.159729%,12.548828%);stroke-opacity:1;stroke-miterlimit:10;" d="M 1711.716651 832.45356 L 1666.536177 1265.832522 L 1722.834977 538.93763 Z M 1711.716651 832.45356 " transform="matrix(0.0994276,0,0,-0.0994276,0.265099,150.26498)"/>
</g>
<g clip-path="url(#clip13)" clip-rule="nonzero">
<path style="fill-rule:nonzero;fill:rgb(68.360901%,73.706055%,89.868164%);fill-opacity:1;stroke-width:5;stroke-linecap:round;stroke-linejoin:round;stroke:rgb(13.729858%,12.159729%,12.548828%);stroke-opacity:1;stroke-miterlimit:10;" d="M 633.789122 2.5079 L 1421.382998 100.137011 L 1722.834977 538.93763 " transform="matrix(0.0994276,0,0,-0.0994276,0.265099,150.26498)"/>
</g>
<g clip-path="url(#clip14)" clip-rule="nonzero">
<path style=" stroke:none;fill-rule:nonzero;fill:rgb(68.360901%,73.706055%,89.868164%);fill-opacity:1;" d="M 8.390625 115.335938 L 63.28125 150.015625 L 171.5625 96.679688 "/>
</g>
<g clip-path="url(#clip15)" clip-rule="nonzero">
<path style="fill:none;stroke-width:5;stroke-linecap:round;stroke-linejoin:round;stroke:rgb(13.729858%,12.159729%,12.548828%);stroke-opacity:1;stroke-miterlimit:10;" d="M 81.72302 351.301158 L 633.789122 2.5079 " transform="matrix(0.0994276,0,0,-0.0994276,0.265099,150.26498)"/>
</g>
<g clip-path="url(#clip16)" clip-rule="nonzero">
<path style="fill-rule:nonzero;fill:rgb(91.300964%,50.611877%,8.49762%);fill-opacity:1;stroke-width:5;stroke-linecap:round;stroke-linejoin:round;stroke:rgb(13.729858%,12.159729%,12.548828%);stroke-opacity:1;stroke-miterlimit:10;" d="M 1711.716651 832.45356 L 1722.834977 538.93763 L 1421.382998 100.137011 Z M 1711.716651 832.45356 " transform="matrix(0.0994276,0,0,-0.0994276,0.265099,150.26498)"/>
</g>
<path style="fill-rule:nonzero;fill:rgb(67.216492%,76.040649%,91.134644%);fill-opacity:1;stroke-width:5;stroke-linecap:round;stroke-linejoin:round;stroke:rgb(13.729858%,12.159729%,12.548828%);stroke-opacity:1;stroke-miterlimit:10;" d="M 1666.536177 1265.832522 L 1711.716651 832.45356 L 1061.235691 532.180202 " transform="matrix(0.0994276,0,0,-0.0994276,0.265099,150.26498)"/>
<g clip-path="url(#clip17)" clip-rule="nonzero">
<path style=" stroke:none;fill-rule:nonzero;fill:rgb(26.443481%,11.341858%,32.800293%);fill-opacity:1;" d="M 24.324219 83.167969 L 63.28125 150.015625 L 8.390625 115.335938 Z M 24.324219 83.167969 "/>
</g>
<g clip-path="url(#clip18)" clip-rule="nonzero">
<path style="fill:none;stroke-width:5;stroke-linecap:round;stroke-linejoin:round;stroke:rgb(13.729858%,12.159729%,12.548828%);stroke-opacity:1;stroke-miterlimit:10;" d="M 241.976196 674.832637 L 633.789122 2.5079 L 81.72302 351.301158 Z M 241.976196 674.832637 " transform="matrix(0.0994276,0,0,-0.0994276,0.265099,150.26498)"/>
</g>
<g clip-path="url(#clip19)" clip-rule="nonzero">
<path style="fill-rule:nonzero;fill:rgb(13.175964%,14.628601%,36.741638%);fill-opacity:1;stroke-width:5;stroke-linecap:round;stroke-linejoin:round;stroke:rgb(13.729858%,12.159729%,12.548828%);stroke-opacity:1;stroke-miterlimit:10;" d="M 2.480398 1104.872173 L 241.976196 674.832637 L 81.72302 351.301158 Z M 2.480398 1104.872173 " transform="matrix(0.0994276,0,0,-0.0994276,0.265099,150.26498)"/>
</g>
<g clip-path="url(#clip20)" clip-rule="nonzero">
<path style=" stroke:none;fill-rule:nonzero;fill:rgb(67.216492%,76.040649%,91.134644%);fill-opacity:1;" d="M 105.78125 97.351562 L 24.324219 83.167969 L 0.511719 40.410156 "/>
</g>
<g clip-path="url(#clip21)" clip-rule="nonzero">
<path style="fill:none;stroke-width:5;stroke-linecap:round;stroke-linejoin:round;stroke:rgb(13.729858%,12.159729%,12.548828%);stroke-opacity:1;stroke-miterlimit:10;" d="M 1061.235691 532.180202 L 241.976196 674.832637 L 2.480398 1104.872173 " transform="matrix(0.0994276,0,0,-0.0994276,0.265099,150.26498)"/>
</g>
<g clip-path="url(#clip22)" clip-rule="nonzero">
<path style="fill-rule:nonzero;fill:rgb(72.297668%,32.199097%,41.287231%);fill-opacity:1;stroke-width:5;stroke-linecap:round;stroke-linejoin:round;stroke:rgb(13.729858%,12.159729%,12.548828%);stroke-opacity:1;stroke-miterlimit:10;" d="M 1061.235691 532.180202 L 1421.382998 100.137011 L 633.789122 2.5079 Z M 1061.235691 532.180202 " transform="matrix(0.0994276,0,0,-0.0994276,0.265099,150.26498)"/>
</g>
<path style="fill-rule:nonzero;fill:rgb(86.027527%,54.890442%,51.005554%);fill-opacity:1;stroke-width:5;stroke-linecap:round;stroke-linejoin:round;stroke:rgb(13.729858%,12.159729%,12.548828%);stroke-opacity:1;stroke-miterlimit:10;" d="M 1061.235691 532.180202 L 1711.716651 832.45356 L 1421.382998 100.137011 Z M 1061.235691 532.180202 " transform="matrix(0.0994276,0,0,-0.0994276,0.265099,150.26498)"/>
<g clip-path="url(#clip23)" clip-rule="nonzero">
<path style=" stroke:none;fill-rule:nonzero;fill:rgb(60.20813%,32.545471%,56.867981%);fill-opacity:1;" d="M 24.324219 83.167969 L 105.78125 97.351562 L 63.28125 150.015625 Z M 24.324219 83.167969 "/>
</g>
<g clip-path="url(#clip24)" clip-rule="nonzero">
<path style="fill:none;stroke-width:5;stroke-linecap:round;stroke-linejoin:round;stroke:rgb(13.729858%,12.159729%,12.548828%);stroke-opacity:1;stroke-miterlimit:10;" d="M 241.976196 674.832637 L 1061.235691 532.180202 L 633.789122 2.5079 Z M 241.976196 674.832637 " transform="matrix(0.0994276,0,0,-0.0994276,0.265099,150.26498)"/>
</g>
</g>
</svg>
