<?xml version="1.0" encoding="UTF-8"?>
<svg xmlns="http://www.w3.org/2000/svg" xmlns:xlink="http://www.w3.org/1999/xlink" width="113.56pt" height="199.88pt" viewBox="0 0 113.56 199.88" version="1.2">
<g id="surface1">
<path style=" stroke:none;fill-rule:nonzero;fill:rgb(64.0625%,38.792419%,52.146912%);fill-opacity:1;" d="M 61.320312 4.867188 L 83.621094 86.363281 L 50.585938 85.367188 "/>
<path style="fill:none;stroke-width:5;stroke-linecap:round;stroke-linejoin:round;stroke:rgb(0%,0%,0%);stroke-opacity:1;stroke-miterlimit:10;" d="M 615.579044 1953.21182 L 839.450924 1135.093232 L 507.81938 1145.092764 Z M 615.579044 1953.21182 " transform="matrix(0.099614,0,0,-0.099614,0,199.434498)"/>
<path style=" stroke:none;fill-rule:nonzero;fill:rgb(66.40625%,58.789062%,75.976562%);fill-opacity:1;" d="M 61.191406 174.039062 L 83.621094 86.363281 L 50.585938 85.367188 "/>
<path style="fill:none;stroke-width:5;stroke-linecap:round;stroke-linejoin:round;stroke:rgb(0%,0%,0%);stroke-opacity:1;stroke-miterlimit:10;" d="M 614.284987 254.93833 L 839.450924 1135.093232 L 507.81938 1145.092764 Z M 614.284987 254.93833 " transform="matrix(0.099614,0,0,-0.099614,0,199.434498)"/>
<path style=" stroke:none;fill-rule:nonzero;fill:rgb(86.521912%,55.271912%,45.410156%);fill-opacity:1;" d="M 61.320312 4.867188 L 50.585938 85.367188 L 24.160156 89.410156 "/>
<path style="fill:none;stroke-width:5;stroke-linecap:round;stroke-linejoin:round;stroke:rgb(0%,0%,0%);stroke-opacity:1;stroke-miterlimit:10;" d="M 615.579044 1953.21182 L 507.81938 1145.092764 L 242.537673 1104.506427 Z M 615.579044 1953.21182 " transform="matrix(0.099614,0,0,-0.099614,0,199.434498)"/>
<path style=" stroke:none;fill-rule:nonzero;fill:rgb(86.71875%,77.34375%,75.78125%);fill-opacity:1;" d="M 61.191406 174.039062 L 50.585938 85.367188 L 24.160156 89.410156 "/>
<path style="fill:none;stroke-width:5;stroke-linecap:round;stroke-linejoin:round;stroke:rgb(0%,0%,0%);stroke-opacity:1;stroke-miterlimit:10;" d="M 614.284987 254.93833 L 507.81938 1145.092764 L 242.537673 1104.506427 Z M 614.284987 254.93833 " transform="matrix(0.099614,0,0,-0.099614,0,199.434498)"/>
<path style=" stroke:none;fill-rule:nonzero;fill:rgb(18.992615%,2.600098%,34.692383%);fill-opacity:1;" d="M 61.320312 4.867188 L 102.433594 91.910156 L 83.621094 86.363281 "/>
<path style="fill:none;stroke-width:5;stroke-linecap:round;stroke-linejoin:round;stroke:rgb(0%,0%,0%);stroke-opacity:1;stroke-miterlimit:10;" d="M 615.579044 1953.21182 L 1028.304833 1079.409562 L 839.450924 1135.093232 Z M 615.579044 1953.21182 " transform="matrix(0.099614,0,0,-0.099614,0,199.434498)"/>
<path style=" stroke:none;fill-rule:nonzero;fill:rgb(29.588318%,34.202576%,74.021912%);fill-opacity:1;" d="M 61.191406 174.039062 L 102.433594 91.910156 L 83.621094 86.363281 "/>
<path style="fill:none;stroke-width:5;stroke-linecap:round;stroke-linejoin:round;stroke:rgb(0%,0%,0%);stroke-opacity:1;stroke-miterlimit:10;" d="M 614.284987 254.93833 L 1028.304833 1079.409562 L 839.450924 1135.093232 Z M 614.284987 254.93833 " transform="matrix(0.099614,0,0,-0.099614,0,199.434498)"/>
<path style=" stroke:none;fill-rule:nonzero;fill:rgb(88.28125%,47.900391%,3.900146%);fill-opacity:1;" d="M 61.191406 174.039062 L 102.433594 91.910156 L 90.800781 98.585938 "/>
<path style="fill:none;stroke-width:5;stroke-linecap:round;stroke-linejoin:round;stroke:rgb(0%,0%,0%);stroke-opacity:1;stroke-miterlimit:10;" d="M 614.284987 254.93833 L 1028.304833 1079.409562 L 911.525983 1012.39309 Z M 614.284987 254.93833 " transform="matrix(0.099614,0,0,-0.099614,0,199.434498)"/>
<path style=" stroke:none;fill-rule:nonzero;fill:rgb(76.171875%,46.09375%,47.509766%);fill-opacity:1;" d="M 61.191406 174.039062 L 53.757812 100.761719 L 90.800781 98.585938 "/>
<path style="fill:none;stroke-width:5;stroke-linecap:round;stroke-linejoin:round;stroke:rgb(0%,0%,0%);stroke-opacity:1;stroke-miterlimit:10;" d="M 614.284987 254.93833 L 539.661027 990.550974 L 911.525983 1012.39309 Z M 614.284987 254.93833 " transform="matrix(0.099614,0,0,-0.099614,0,199.434498)"/>
<path style=" stroke:none;fill-rule:nonzero;fill:rgb(80.076599%,87.889099%,44.604492%);fill-opacity:1;" d="M 61.191406 174.039062 L 24.160156 89.410156 L 23.472656 96.269531 "/>
<path style="fill:none;stroke-width:5;stroke-linecap:round;stroke-linejoin:round;stroke:rgb(0%,0%,0%);stroke-opacity:1;stroke-miterlimit:10;" d="M 614.284987 254.93833 L 242.537673 1104.506427 L 235.636035 1035.646904 Z M 614.284987 254.93833 " transform="matrix(0.099614,0,0,-0.099614,0,199.434498)"/>
<path style=" stroke:none;fill-rule:nonzero;fill:rgb(41.893005%,16.40625%,41.893005%);fill-opacity:1;" d="M 61.191406 174.039062 L 23.472656 96.269531 L 53.757812 100.761719 "/>
<path style="fill:none;stroke-width:5;stroke-linecap:round;stroke-linejoin:round;stroke:rgb(0%,0%,0%);stroke-opacity:1;stroke-miterlimit:10;" d="M 614.284987 254.93833 L 235.636035 1035.646904 L 539.661027 990.550974 Z M 614.284987 254.93833 " transform="matrix(0.099614,0,0,-0.099614,0,199.434498)"/>
<path style=" stroke:none;fill-rule:nonzero;fill:rgb(11.108398%,11.108398%,48.388672%);fill-opacity:1;" d="M 61.320312 4.867188 L 24.160156 89.410156 L 23.472656 96.269531 "/>
<path style="fill:none;stroke-width:5;stroke-linecap:round;stroke-linejoin:round;stroke:rgb(0%,0%,0%);stroke-opacity:1;stroke-miterlimit:10;" d="M 615.579044 1953.21182 L 242.537673 1104.506427 L 235.636035 1035.646904 Z M 615.579044 1953.21182 " transform="matrix(0.099614,0,0,-0.099614,0,199.434498)"/>
<path style=" stroke:none;fill-rule:nonzero;fill:rgb(96.679688%,93.554688%,67.96875%);fill-opacity:1;" d="M 61.320312 4.867188 L 102.433594 91.910156 L 90.800781 98.585938 "/>
<path style="fill:none;stroke-width:5;stroke-linecap:round;stroke-linejoin:round;stroke:rgb(0%,0%,0%);stroke-opacity:1;stroke-miterlimit:10;" d="M 615.579044 1953.21182 L 1028.304833 1079.409562 L 911.525983 1012.39309 Z M 615.579044 1953.21182 " transform="matrix(0.099614,0,0,-0.099614,0,199.434498)"/>
<path style=" stroke:none;fill-rule:nonzero;fill:rgb(77.539062%,68.943787%,76.756287%);fill-opacity:1;" d="M 61.320312 4.867188 L 53.757812 100.761719 L 90.800781 98.585938 "/>
<path style="fill:none;stroke-width:5;stroke-linecap:round;stroke-linejoin:round;stroke:rgb(0%,0%,0%);stroke-opacity:1;stroke-miterlimit:10;" d="M 615.579044 1953.21182 L 539.661027 990.550974 L 911.525983 1012.39309 Z M 615.579044 1953.21182 " transform="matrix(0.099614,0,0,-0.099614,0,199.434498)"/>
<path style=" stroke:none;fill-rule:nonzero;fill:rgb(49.291992%,47.288513%,76.367188%);fill-opacity:1;" d="M 61.320312 4.867188 L 23.472656 96.269531 L 53.757812 100.761719 "/>
<path style="fill:none;stroke-width:5;stroke-linecap:round;stroke-linejoin:round;stroke:rgb(0%,0%,0%);stroke-opacity:1;stroke-miterlimit:10;" d="M 615.579044 1953.21182 L 235.636035 1035.646904 L 539.661027 990.550974 Z M 615.579044 1953.21182 " transform="matrix(0.099614,0,0,-0.099614,0,199.434498)"/>
</g>
</svg>
