<?xml version="1.0" encoding="UTF-8"?>
<svg xmlns="http://www.w3.org/2000/svg" xmlns:xlink="http://www.w3.org/1999/xlink" width="235.75pt" height="199.94pt" viewBox="0 0 235.75 199.94" version="1.2">
<g id="surface1">
<path style="fill-rule:nonzero;fill:rgb(81.443787%,56.25%,55.859375%);fill-opacity:1;stroke-width:5;stroke-linecap:round;stroke-linejoin:round;stroke:rgb(0%,0%,0%);stroke-opacity:1;stroke-miterlimit:10;" d="M 499.943664 1664.843982 L 1199.591066 1873.228791 L 1201.116119 1238.259279 " transform="matrix(0.0998941,0,0,-0.0998941,0,199.804131)"/>
<path style="fill-rule:nonzero;fill:rgb(81.443787%,56.25%,55.859375%);fill-opacity:1;stroke-width:5;stroke-linecap:round;stroke-linejoin:round;stroke:rgb(0%,0%,0%);stroke-opacity:1;stroke-miterlimit:10;" d="M 1201.116119 1238.259279 L 554.650053 1011.261002 L 499.943664 1664.843982 " transform="matrix(0.0998941,0,0,-0.0998941,0,199.804131)"/>
<path style="fill-rule:nonzero;fill:rgb(57.03125%,36.206055%,55.859375%);fill-opacity:1;stroke-width:5;stroke-linecap:round;stroke-linejoin:round;stroke:rgb(0%,0%,0%);stroke-opacity:1;stroke-miterlimit:10;" d="M 1862.910923 1032.689952 L 1201.116119 1238.259279 L 1199.591066 1873.228791 " transform="matrix(0.0998941,0,0,-0.0998941,0,199.804131)"/>
<path style=" stroke:none;fill-rule:nonzero;fill:rgb(66.40625%,73.826599%,90.429688%);fill-opacity:1;" d="M 119.984375 76.109375 L 55.40625 98.785156 L 195.75 147.058594 "/>
<path style="fill:none;stroke-width:5;stroke-linecap:round;stroke-linejoin:round;stroke:rgb(0%,0%,0%);stroke-opacity:1;stroke-miterlimit:10;" d="M 1201.116119 1238.259279 L 554.650053 1011.261002 " transform="matrix(0.0998941,0,0,-0.0998941,0,199.804131)"/>
<path style="fill-rule:nonzero;fill:rgb(66.40625%,73.826599%,90.429688%);fill-opacity:1;stroke-width:5;stroke-linecap:round;stroke-linejoin:round;stroke:rgb(0%,0%,0%);stroke-opacity:1;stroke-miterlimit:10;" d="M 1959.575822 528.014714 L 1862.910923 1032.689952 L 1201.116119 1238.259279 " transform="matrix(0.0998941,0,0,-0.0998941,0,199.804131)"/>
<path style="fill-rule:nonzero;fill:rgb(57.03125%,36.206055%,55.859375%);fill-opacity:1;stroke-width:5;stroke-linecap:round;stroke-linejoin:round;stroke:rgb(0%,0%,0%);stroke-opacity:1;stroke-miterlimit:10;" d="M 1199.591066 1873.228791 L 1915.427492 1684.552359 L 1862.910923 1032.689952 " transform="matrix(0.0998941,0,0,-0.0998941,0,199.804131)"/>
<path style="fill-rule:nonzero;fill:rgb(13.696289%,13.696289%,43.701172%);fill-opacity:1;stroke-width:5;stroke-linecap:round;stroke-linejoin:round;stroke:rgb(0%,0%,0%);stroke-opacity:1;stroke-miterlimit:10;" d="M 1959.575822 528.014714 L 1862.910923 1032.689952 L 1915.427492 1684.552359 " transform="matrix(0.0998941,0,0,-0.0998941,0,199.804131)"/>
<path style="fill-rule:nonzero;fill:rgb(89.646912%,74.021912%,23.706055%);fill-opacity:1;stroke-width:5;stroke-linecap:round;stroke-linejoin:round;stroke:rgb(0%,0%,0%);stroke-opacity:1;stroke-miterlimit:10;" d="M 434.053552 1190.278765 L 499.943664 1664.843982 L 554.650053 1011.261002 " transform="matrix(0.0998941,0,0,-0.0998941,0,199.804131)"/>
<path style="fill-rule:nonzero;fill:rgb(89.646912%,74.021912%,23.706055%);fill-opacity:1;stroke-width:5;stroke-linecap:round;stroke-linejoin:round;stroke:rgb(0%,0%,0%);stroke-opacity:1;stroke-miterlimit:10;" d="M 554.650053 1011.261002 L 500.686638 501.384942 L 434.053552 1190.278765 " transform="matrix(0.0998941,0,0,-0.0998941,0,199.804131)"/>
<path style=" stroke:none;fill-rule:nonzero;fill:rgb(66.40625%,73.826599%,90.429688%);fill-opacity:1;" d="M 55.40625 98.785156 L 50.015625 149.71875 L 195.75 147.058594 "/>
<path style="fill:none;stroke-width:5;stroke-linecap:round;stroke-linejoin:round;stroke:rgb(0%,0%,0%);stroke-opacity:1;stroke-miterlimit:10;" d="M 554.650053 1011.261002 L 500.686638 501.384942 " transform="matrix(0.0998941,0,0,-0.0998941,0,199.804131)"/>
<path style="fill-rule:nonzero;fill:rgb(13.696289%,13.696289%,43.701172%);fill-opacity:1;stroke-width:5;stroke-linecap:round;stroke-linejoin:round;stroke:rgb(0%,0%,0%);stroke-opacity:1;stroke-miterlimit:10;" d="M 1915.427492 1684.552359 L 2027.499337 1215.305276 L 1959.575822 528.014714 " transform="matrix(0.0998941,0,0,-0.0998941,0,199.804131)"/>
<path style=" stroke:none;fill-rule:nonzero;fill:rgb(64.256287%,76.5625%,93.75%);fill-opacity:1;" d="M 119.832031 12.679688 L 49.941406 33.496094 L 202.535156 78.402344 "/>
<path style="fill:none;stroke-width:5;stroke-linecap:round;stroke-linejoin:round;stroke:rgb(0%,0%,0%);stroke-opacity:1;stroke-miterlimit:10;" d="M 1199.591066 1873.228791 L 499.943664 1664.843982 " transform="matrix(0.0998941,0,0,-0.0998941,0,199.804131)"/>
<path style="fill-rule:nonzero;fill:rgb(64.256287%,76.5625%,93.75%);fill-opacity:1;stroke-width:5;stroke-linecap:round;stroke-linejoin:round;stroke:rgb(0%,0%,0%);stroke-opacity:1;stroke-miterlimit:10;" d="M 2027.499337 1215.305276 L 1915.427492 1684.552359 L 1199.591066 1873.228791 " transform="matrix(0.0998941,0,0,-0.0998941,0,199.804131)"/>
<path style=" stroke:none;fill-rule:nonzero;fill:rgb(64.256287%,76.5625%,93.75%);fill-opacity:1;" d="M 49.941406 33.496094 L 43.359375 80.902344 L 202.535156 78.402344 "/>
<path style="fill:none;stroke-width:5;stroke-linecap:round;stroke-linejoin:round;stroke:rgb(0%,0%,0%);stroke-opacity:1;stroke-miterlimit:10;" d="M 499.943664 1664.843982 L 434.053552 1190.278765 " transform="matrix(0.0998941,0,0,-0.0998941,0,199.804131)"/>
<path style="fill-rule:nonzero;fill:rgb(66.40625%,73.826599%,90.429688%);fill-opacity:1;stroke-width:5;stroke-linecap:round;stroke-linejoin:round;stroke:rgb(0%,0%,0%);stroke-opacity:1;stroke-miterlimit:10;" d="M 500.686638 501.384942 L 1244.912513 214.63587 L 1959.575822 528.014714 " transform="matrix(0.0998941,0,0,-0.0998941,0,199.804131)"/>
<path style="fill-rule:nonzero;fill:rgb(84.179688%,54.492188%,48.706055%);fill-opacity:1;stroke-width:5;stroke-linecap:round;stroke-linejoin:round;stroke:rgb(0%,0%,0%);stroke-opacity:1;stroke-miterlimit:10;" d="M 1244.912513 214.63587 L 1959.575822 528.014714 L 2027.499337 1215.305276 " transform="matrix(0.0998941,0,0,-0.0998941,0,199.804131)"/>
<path style="fill-rule:nonzero;fill:rgb(50.78125%,27.098083%,49.19281%);fill-opacity:1;stroke-width:5;stroke-linecap:round;stroke-linejoin:round;stroke:rgb(0%,0%,0%);stroke-opacity:1;stroke-miterlimit:10;" d="M 1247.336957 919.366782 L 434.053552 1190.278765 L 500.686638 501.384942 " transform="matrix(0.0998941,0,0,-0.0998941,0,199.804131)"/>
<path style="fill-rule:nonzero;fill:rgb(50.78125%,27.098083%,49.19281%);fill-opacity:1;stroke-width:5;stroke-linecap:round;stroke-linejoin:round;stroke:rgb(0%,0%,0%);stroke-opacity:1;stroke-miterlimit:10;" d="M 500.686638 501.384942 L 1244.912513 214.63587 L 1247.336957 919.366782 " transform="matrix(0.0998941,0,0,-0.0998941,0,199.804131)"/>
<path style="fill-rule:nonzero;fill:rgb(84.179688%,54.492188%,48.706055%);fill-opacity:1;stroke-width:5;stroke-linecap:round;stroke-linejoin:round;stroke:rgb(0%,0%,0%);stroke-opacity:1;stroke-miterlimit:10;" d="M 2027.499337 1215.305276 L 1247.336957 919.366782 L 1244.912513 214.63587 " transform="matrix(0.0998941,0,0,-0.0998941,0,199.804131)"/>
<path style="fill-rule:nonzero;fill:rgb(64.256287%,76.5625%,93.75%);fill-opacity:1;stroke-width:5;stroke-linecap:round;stroke-linejoin:round;stroke:rgb(0%,0%,0%);stroke-opacity:1;stroke-miterlimit:10;" d="M 434.053552 1190.278765 L 1247.336957 919.366782 L 2027.499337 1215.305276 " transform="matrix(0.0998941,0,0,-0.0998941,0,199.804131)"/>
</g>
</svg>
