<?xml version="1.0" encoding="UTF-8"?>
<svg xmlns="http://www.w3.org/2000/svg" xmlns:xlink="http://www.w3.org/1999/xlink" width="140pt" height="140pt" viewBox="0 0 140 140" version="1.2">
<g id="surface1">
<path style=" stroke:none;fill-rule:nonzero;fill:rgb(75.584412%,66.992188%,76.756287%);fill-opacity:1;" d="M 83.714844 62.171875 L 22.191406 79.222656 L 73.597656 124.941406 "/>
<path style="fill:none;stroke-width:4.13379;stroke-linecap:round;stroke-linejoin:round;stroke:rgb(0%,0%,0%);stroke-opacity:1;stroke-miterlimit:10;" d="M 837.148438 778.28125 L 221.914062 607.773438 L 735.976562 150.585938 Z M 837.148438 778.28125 " transform="matrix(0.1,0,0,-0.1,0,140)"/>
<path style=" stroke:none;fill-rule:nonzero;fill:rgb(59.568787%,55.859375%,78.318787%);fill-opacity:1;" d="M 133.484375 91.773438 L 83.714844 62.171875 L 73.597656 124.941406 "/>
<path style="fill:none;stroke-width:4.13379;stroke-linecap:round;stroke-linejoin:round;stroke:rgb(0%,0%,0%);stroke-opacity:1;stroke-miterlimit:10;" d="M 1334.84375 482.265625 L 837.148438 778.28125 L 735.976562 150.585938 Z M 1334.84375 482.265625 " transform="matrix(0.1,0,0,-0.1,0,140)"/>
<path style=" stroke:none;fill-rule:nonzero;fill:rgb(78.90625%,57.8125%,61.326599%);fill-opacity:1;" d="M 83.714844 62.171875 L 47.632812 15.734375 L 22.191406 79.222656 "/>
<path style="fill:none;stroke-width:4.13379;stroke-linecap:round;stroke-linejoin:round;stroke:rgb(0%,0%,0%);stroke-opacity:1;stroke-miterlimit:10;" d="M 837.148438 778.28125 L 476.328125 1242.65625 L 221.914062 607.773438 Z M 837.148438 778.28125 " transform="matrix(0.1,0,0,-0.1,0,140)"/>
<path style=" stroke:none;fill-rule:nonzero;fill:rgb(49.291992%,35.009766%,61.326599%);fill-opacity:1;" d="M 133.484375 91.773438 L 118.128906 22.292969 L 83.714844 62.171875 "/>
<path style="fill:none;stroke-width:4.13379;stroke-linecap:round;stroke-linejoin:round;stroke:rgb(0%,0%,0%);stroke-opacity:1;stroke-miterlimit:10;" d="M 1334.84375 482.265625 L 1181.289062 1177.070312 L 837.148438 778.28125 Z M 1334.84375 482.265625 " transform="matrix(0.1,0,0,-0.1,0,140)"/>
<path style=" stroke:none;fill-rule:nonzero;fill:rgb(63.476562%,36.59668%,49.388123%);fill-opacity:1;" d="M 118.128906 22.292969 L 47.632812 15.734375 L 83.714844 62.171875 "/>
<path style="fill:none;stroke-width:4.13379;stroke-linecap:round;stroke-linejoin:round;stroke:rgb(0%,0%,0%);stroke-opacity:1;stroke-miterlimit:10;" d="M 1181.289062 1177.070312 L 476.328125 1242.65625 L 837.148438 778.28125 Z M 1181.289062 1177.070312 " transform="matrix(0.1,0,0,-0.1,0,140)"/>
<path style=" stroke:none;fill-rule:nonzero;fill:rgb(84.179688%,88.867188%,87.304688%);fill-opacity:1;" d="M 22.191406 79.222656 L 26.046875 125.289062 L 73.597656 124.941406 "/>
<path style="fill:none;stroke-width:4.13379;stroke-linecap:round;stroke-linejoin:round;stroke:rgb(0%,0%,0%);stroke-opacity:1;stroke-miterlimit:10;" d="M 221.914062 607.773438 L 260.46875 147.109375 L 735.976562 150.585938 Z M 221.914062 607.773438 " transform="matrix(0.1,0,0,-0.1,0,140)"/>
<path style=" stroke:none;fill-rule:nonzero;fill:rgb(90.234375%,85.9375%,41.308594%);fill-opacity:1;" d="M 22.191406 79.222656 L 7.335938 50.34375 L 26.046875 125.289062 "/>
<path style="fill:none;stroke-width:4.13379;stroke-linecap:round;stroke-linejoin:round;stroke:rgb(0%,0%,0%);stroke-opacity:1;stroke-miterlimit:10;" d="M 221.914062 607.773438 L 73.359375 896.5625 L 260.46875 147.109375 Z M 221.914062 607.773438 " transform="matrix(0.1,0,0,-0.1,0,140)"/>
<path style=" stroke:none;fill-rule:nonzero;fill:rgb(94.53125%,61.71875%,37.597656%);fill-opacity:1;" d="M 47.632812 15.734375 L 7.335938 50.34375 L 22.191406 79.222656 "/>
<path style="fill:none;stroke-width:4.13379;stroke-linecap:round;stroke-linejoin:round;stroke:rgb(0%,0%,0%);stroke-opacity:1;stroke-miterlimit:10;" d="M 476.328125 1242.65625 L 73.359375 896.5625 L 221.914062 607.773438 Z M 476.328125 1242.65625 " transform="matrix(0.1,0,0,-0.1,0,140)"/>
<path style=" stroke:none;fill-rule:nonzero;fill:rgb(29.80957%,55.076599%,92.1875%);fill-opacity:1;" d="M 102.550781 134.957031 L 133.484375 91.773438 L 73.597656 124.941406 "/>
<path style="fill:none;stroke-width:4.13379;stroke-linecap:round;stroke-linejoin:round;stroke:rgb(0%,0%,0%);stroke-opacity:1;stroke-miterlimit:10;" d="M 1025.507812 50.429688 L 1334.84375 482.265625 L 735.976562 150.585938 Z M 1025.507812 50.429688 " transform="matrix(0.1,0,0,-0.1,0,140)"/>
<path style=" stroke:none;fill-rule:nonzero;fill:rgb(30.004883%,78.90625%,89.256287%);fill-opacity:1;" d="M 26.046875 125.289062 L 102.550781 134.957031 L 73.597656 124.941406 "/>
<path style="fill:none;stroke-width:4.13379;stroke-linecap:round;stroke-linejoin:round;stroke:rgb(0%,0%,0%);stroke-opacity:1;stroke-miterlimit:10;" d="M 260.46875 147.109375 L 1025.507812 50.429688 L 735.976562 150.585938 Z M 260.46875 147.109375 " transform="matrix(0.1,0,0,-0.1,0,140)"/>
<path style=" stroke:none;fill-rule:nonzero;fill:rgb(20.092773%,0%,0%);fill-opacity:1;" d="M 73.597656 9.679688 L 47.632812 15.734375 L 118.128906 22.292969 "/>
<path style="fill:none;stroke-width:4.13379;stroke-linecap:round;stroke-linejoin:round;stroke:rgb(0%,0%,0%);stroke-opacity:1;stroke-miterlimit:10;" d="M 735.976562 1303.203125 L 476.328125 1242.65625 L 1181.289062 1177.070312 Z M 735.976562 1303.203125 " transform="matrix(0.1,0,0,-0.1,0,140)"/>
<path style=" stroke:none;fill-rule:nonzero;fill:rgb(0%,38.110352%,82.421875%);fill-opacity:1;" d="M 73.597656 9.679688 L 7.335938 50.34375 L 47.632812 15.734375 "/>
<path style="fill:none;stroke-width:4.13379;stroke-linecap:round;stroke-linejoin:round;stroke:rgb(0%,0%,0%);stroke-opacity:1;stroke-miterlimit:10;" d="M 735.976562 1303.203125 L 73.359375 896.5625 L 476.328125 1242.65625 Z M 735.976562 1303.203125 " transform="matrix(0.1,0,0,-0.1,0,140)"/>
<path style=" stroke:none;fill-rule:nonzero;fill:rgb(0%,0%,8.494568%);fill-opacity:1;" d="M 134.621094 63.652344 L 118.128906 22.292969 L 133.484375 91.773438 "/>
<path style="fill:none;stroke-width:4.13379;stroke-linecap:round;stroke-linejoin:round;stroke:rgb(0%,0%,0%);stroke-opacity:1;stroke-miterlimit:10;" d="M 1346.210938 763.476562 L 1181.289062 1177.070312 L 1334.84375 482.265625 Z M 1346.210938 763.476562 " transform="matrix(0.1,0,0,-0.1,0,140)"/>
<path style=" stroke:none;fill-rule:nonzero;fill:rgb(89.451599%,50.584412%,6.199646%);fill-opacity:1;" d="M 102.550781 134.957031 L 134.621094 63.652344 L 133.484375 91.773438 "/>
<path style="fill:none;stroke-width:4.13379;stroke-linecap:round;stroke-linejoin:round;stroke:rgb(0%,0%,0%);stroke-opacity:1;stroke-miterlimit:10;" d="M 1025.507812 50.429688 L 1346.210938 763.476562 L 1334.84375 482.265625 Z M 1025.507812 50.429688 " transform="matrix(0.1,0,0,-0.1,0,140)"/>
<path style=" stroke:none;fill-rule:nonzero;fill:rgb(83.59375%,97.65625%,88.084412%);fill-opacity:1;" d="M 73.597656 9.679688 L 118.128906 22.292969 L 134.621094 63.652344 "/>
<path style="fill:none;stroke-width:4.13379;stroke-linecap:round;stroke-linejoin:round;stroke:rgb(0%,0%,0%);stroke-opacity:1;stroke-miterlimit:10;" d="M 735.976562 1303.203125 L 1181.289062 1177.070312 L 1346.210938 763.476562 Z M 735.976562 1303.203125 " transform="matrix(0.1,0,0,-0.1,0,140)"/>
<path style=" stroke:none;fill-rule:nonzero;fill:rgb(59.568787%,28.001404%,40.501404%);fill-opacity:1;" d="M 26.046875 125.289062 L 60.265625 85.191406 L 102.550781 134.957031 "/>
<path style="fill:none;stroke-width:4.13379;stroke-linecap:round;stroke-linejoin:round;stroke:rgb(0%,0%,0%);stroke-opacity:1;stroke-miterlimit:10;" d="M 260.46875 147.109375 L 602.65625 548.085938 L 1025.507812 50.429688 Z M 260.46875 147.109375 " transform="matrix(0.1,0,0,-0.1,0,140)"/>
<path style=" stroke:none;fill-rule:nonzero;fill:rgb(40.209961%,25.610352%,56.639099%);fill-opacity:1;" d="M 7.335938 50.34375 L 60.265625 85.191406 L 26.046875 125.289062 "/>
<path style="fill:none;stroke-width:4.13379;stroke-linecap:round;stroke-linejoin:round;stroke:rgb(0%,0%,0%);stroke-opacity:1;stroke-miterlimit:10;" d="M 73.359375 896.5625 L 602.65625 548.085938 L 260.46875 147.109375 Z M 73.359375 896.5625 " transform="matrix(0.1,0,0,-0.1,0,140)"/>
<path style=" stroke:none;fill-rule:nonzero;fill:rgb(55.859375%,54.881287%,80.076599%);fill-opacity:1;" d="M 73.597656 9.679688 L 60.265625 85.191406 L 7.335938 50.34375 "/>
<path style="fill:none;stroke-width:4.13379;stroke-linecap:round;stroke-linejoin:round;stroke:rgb(0%,0%,0%);stroke-opacity:1;stroke-miterlimit:10;" d="M 735.976562 1303.203125 L 602.65625 548.085938 L 73.359375 896.5625 Z M 735.976562 1303.203125 " transform="matrix(0.1,0,0,-0.1,0,140)"/>
<path style=" stroke:none;fill-rule:nonzero;fill:rgb(80.859375%,57.421875%,58.201599%);fill-opacity:1;" d="M 60.265625 85.191406 L 134.621094 63.652344 L 102.550781 134.957031 "/>
<path style="fill:none;stroke-width:4.13379;stroke-linecap:round;stroke-linejoin:round;stroke:rgb(0%,0%,0%);stroke-opacity:1;stroke-miterlimit:10;" d="M 602.65625 548.085938 L 1346.210938 763.476562 L 1025.507812 50.429688 Z M 602.65625 548.085938 " transform="matrix(0.1,0,0,-0.1,0,140)"/>
<path style=" stroke:none;fill-rule:nonzero;fill:rgb(76.756287%,69.334412%,78.125%);fill-opacity:1;" d="M 73.597656 9.679688 L 134.621094 63.652344 L 60.265625 85.191406 "/>
<path style="fill:none;stroke-width:4.13379;stroke-linecap:round;stroke-linejoin:round;stroke:rgb(0%,0%,0%);stroke-opacity:1;stroke-miterlimit:10;" d="M 735.976562 1303.203125 L 1346.210938 763.476562 L 602.65625 548.085938 Z M 735.976562 1303.203125 " transform="matrix(0.1,0,0,-0.1,0,140)"/>
</g>
</svg>
