<?xml version="1.0" encoding="UTF-8"?>
<svg xmlns="http://www.w3.org/2000/svg" xmlns:xlink="http://www.w3.org/1999/xlink" width="180.91pt" height="179.4pt" viewBox="0 0 180.91 179.4" version="1.2">
<defs>
<clipPath id="clip1">
  <path d="M 44 139 L 81 139 L 81 178.800781 L 44 178.800781 Z M 44 139 "/>
</clipPath>
<clipPath id="clip2">
  <path d="M 0.257812 80 L 40 80 L 40 107 L 0.257812 107 Z M 0.257812 80 "/>
</clipPath>
<clipPath id="clip3">
  <path d="M 0.257812 60 L 40 60 L 40 97 L 0.257812 97 Z M 0.257812 60 "/>
</clipPath>
<clipPath id="clip4">
  <path d="M 0.257812 70 L 28 70 L 28 107 L 0.257812 107 Z M 0.257812 70 "/>
</clipPath>
<clipPath id="clip5">
  <path d="M 0.257812 60 L 30 60 L 30 81 L 0.257812 81 Z M 0.257812 60 "/>
</clipPath>
<clipPath id="clip6">
  <path d="M 73 147 L 116 147 L 116 178.800781 L 73 178.800781 Z M 73 147 "/>
</clipPath>
<clipPath id="clip7">
  <path d="M 73 145 L 116 145 L 116 178.800781 L 73 178.800781 Z M 73 145 "/>
</clipPath>
<clipPath id="clip8">
  <path d="M 44 139 L 75 139 L 75 178.800781 L 44 178.800781 Z M 44 139 "/>
</clipPath>
<clipPath id="clip9">
  <path d="M 145 100 L 180.5625 100 L 180.5625 122 L 145 122 Z M 145 100 "/>
</clipPath>
<clipPath id="clip10">
  <path d="M 145 73 L 180.5625 73 L 180.5625 109 L 145 109 Z M 145 73 "/>
</clipPath>
<clipPath id="clip11">
  <path d="M 144 82 L 180.5625 82 L 180.5625 122 L 144 122 Z M 144 82 "/>
</clipPath>
<clipPath id="clip12">
  <path d="M 0.257812 0 L 180.5625 0 L 180.5625 178 L 0.257812 178 Z M 0.257812 0 "/>
</clipPath>
<clipPath id="clip13">
  <path d="M 144 73 L 180.5625 73 L 180.5625 101 L 144 101 Z M 144 73 "/>
</clipPath>
<clipPath id="clip14">
  <path d="M 1 0 L 180.5625 0 L 180.5625 178.800781 L 1 178.800781 Z M 1 0 "/>
</clipPath>
<clipPath id="clip15">
  <path d="M 0.257812 25 L 55 25 L 55 115 L 0.257812 115 Z M 0.257812 25 "/>
</clipPath>
<clipPath id="clip16">
  <path d="M 1 25 L 158 25 L 158 178.800781 L 1 178.800781 Z M 1 25 "/>
</clipPath>
</defs>
<g id="surface1">
<path style=" stroke:none;fill-rule:nonzero;fill:rgb(63.084412%,35.693359%,48.631287%);fill-opacity:1;" d="M 58.90625 87.699219 L 98.351562 80.476562 L 61.042969 65.898438 "/>
<path style=" stroke:none;fill-rule:nonzero;fill:rgb(48.242188%,34.104919%,61.131287%);fill-opacity:1;" d="M 77.761719 41.960938 L 98.332031 80.4375 L 98.324219 80.425781 "/>
<path style=" stroke:none;fill-rule:nonzero;fill:rgb(75.78125%,66.992188%,76.951599%);fill-opacity:1;" d="M 98.351562 80.476562 L 61.042969 65.898438 L 98.351562 80.476562 "/>
<path style=" stroke:none;fill-rule:nonzero;fill:rgb(75.78125%,66.992188%,76.951599%);fill-opacity:1;" d="M 96.6875 77.359375 L 98.351562 80.476562 "/>
<path style=" stroke:none;fill-rule:nonzero;fill:rgb(48.242188%,34.104919%,61.131287%);fill-opacity:1;" d="M 77.761719 41.960938 L 98.34375 80.460938 L 77.761719 41.960938 "/>
<path style=" stroke:none;fill-rule:nonzero;fill:rgb(75.78125%,66.992188%,76.951599%);fill-opacity:1;" d="M 96.6875 77.359375 L 61.042969 65.898438 L 98.351562 80.476562 "/>
<path style=" stroke:none;fill-rule:nonzero;fill:rgb(75.78125%,66.992188%,76.951599%);fill-opacity:1;" d="M 77.761719 41.960938 L 61.042969 65.898438 L 96.6875 77.359375 "/>
<path style=" stroke:none;fill-rule:nonzero;fill:rgb(48.242188%,34.104919%,61.131287%);fill-opacity:1;" d="M 98.34375 80.460938 L 98.351562 80.476562 L 77.761719 41.960938 "/>
<path style=" stroke:none;fill-rule:nonzero;fill:rgb(75.78125%,66.992188%,76.951599%);fill-opacity:1;" d="M 77.761719 41.960938 L 96.6875 77.359375 "/>
<path style=" stroke:none;fill-rule:nonzero;fill:rgb(48.242188%,34.104919%,61.131287%);fill-opacity:1;" d="M 77.761719 41.960938 L 98.351562 80.476562 "/>
<path style=" stroke:none;fill-rule:nonzero;fill:rgb(79.296875%,57.617188%,61.131287%);fill-opacity:1;" d="M 128.136719 46.902344 L 100.308594 42.429688 "/>
<path style=" stroke:none;fill-rule:nonzero;fill:rgb(79.296875%,57.617188%,61.131287%);fill-opacity:1;" d="M 128.136719 46.902344 L 100.308594 42.429688 L 98.351562 80.476562 "/>
<path style=" stroke:none;fill-rule:nonzero;fill:rgb(79.296875%,57.617188%,61.131287%);fill-opacity:1;" d="M 128.136719 46.902344 L 100.308594 42.429688 L 128.136719 46.902344 "/>
<path style=" stroke:none;fill-rule:nonzero;fill:rgb(35.693359%,21.556091%,21.556091%);fill-opacity:1;" d="M 77.761719 41.960938 L 100.308594 42.429688 L 63.917969 36.585938 "/>
<path style=" stroke:none;fill-rule:nonzero;fill:rgb(48.242188%,34.104919%,61.131287%);fill-opacity:1;" d="M 77.761719 41.960938 L 98.351562 80.476562 L 100.308594 42.429688 "/>
<path style=" stroke:none;fill-rule:nonzero;fill:rgb(79.296875%,57.617188%,61.131287%);fill-opacity:1;" d="M 100.308594 42.429688 L 98.351562 80.476562 "/>
<path style=" stroke:none;fill-rule:nonzero;fill:rgb(48.242188%,34.104919%,61.131287%);fill-opacity:1;" d="M 101.964844 10.242188 L 100.308594 42.429688 L 130.597656 43.066406 "/>
<path style=" stroke:none;fill-rule:nonzero;fill:rgb(35.693359%,21.556091%,21.556091%);fill-opacity:1;" d="M 128.136719 46.902344 L 130.597656 43.066406 L 100.308594 42.429688 "/>
<path style=" stroke:none;fill-rule:nonzero;fill:rgb(48.242188%,34.104919%,61.131287%);fill-opacity:1;" d="M 100.308594 42.429688 L 130.578125 43.066406 "/>
<path style=" stroke:none;fill-rule:nonzero;fill:rgb(35.693359%,21.556091%,21.556091%);fill-opacity:1;" d="M 100.308594 42.429688 L 63.925781 36.585938 "/>
<path style=" stroke:none;fill-rule:nonzero;fill:rgb(35.693359%,21.556091%,21.556091%);fill-opacity:1;" d="M 100.308594 42.429688 L 63.925781 36.585938 L 63.917969 36.585938 "/>
<path style=" stroke:none;fill-rule:nonzero;fill:rgb(48.242188%,34.104919%,61.131287%);fill-opacity:1;" d="M 100.308594 42.429688 L 98.351562 80.476562 L 100.308594 42.429688 "/>
<path style=" stroke:none;fill-rule:nonzero;fill:rgb(75.78125%,66.992188%,76.951599%);fill-opacity:1;" d="M 77.761719 41.960938 L 61.042969 65.898438 "/>
<path style=" stroke:none;fill-rule:nonzero;fill:rgb(94.921875%,61.131287%,34.910583%);fill-opacity:1;" d="M 77.761719 41.960938 L 63.917969 36.585938 L 61.042969 65.898438 "/>
<path style=" stroke:none;fill-rule:nonzero;fill:rgb(75.78125%,66.992188%,76.951599%);fill-opacity:1;" d="M 77.761719 41.960938 L 61.042969 65.898438 L 77.761719 41.960938 "/>
<path style=" stroke:none;fill-rule:nonzero;fill:rgb(94.921875%,61.131287%,34.910583%);fill-opacity:1;" d="M 58.90625 87.699219 L 61.042969 65.898438 L 39.402344 96.894531 "/>
<path style=" stroke:none;fill-rule:nonzero;fill:rgb(94.921875%,61.131287%,34.910583%);fill-opacity:1;" d="M 61.042969 65.898438 L 39.402344 96.894531 "/>
<path style=" stroke:none;fill-rule:nonzero;fill:rgb(84.375%,90.234375%,87.889099%);fill-opacity:1;" d="M 96.273438 120.875 L 88.5625 140.585938 "/>
<path style=" stroke:none;fill-rule:nonzero;fill:rgb(48.242188%,34.104919%,61.131287%);fill-opacity:1;" d="M 98.351562 80.480469 L 96.273438 120.875 L 98.351562 80.476562 "/>
<path style=" stroke:none;fill-rule:nonzero;fill:rgb(48.242188%,34.104919%,61.131287%);fill-opacity:1;" d="M 96.273438 120.875 L 98.351562 80.480469 "/>
<path style=" stroke:none;fill-rule:nonzero;fill:rgb(79.296875%,57.617188%,61.131287%);fill-opacity:1;" d="M 96.273438 120.875 L 98.351562 80.476562 L 71.703125 110.515625 "/>
<path style=" stroke:none;fill-rule:nonzero;fill:rgb(75.78125%,66.992188%,76.951599%);fill-opacity:1;" d="M 132.71875 144.757812 L 117.183594 115.703125 L 88.5625 140.585938 "/>
<path style=" stroke:none;fill-rule:nonzero;fill:rgb(26.268005%,53.709412%,92.1875%);fill-opacity:1;" d="M 101 119.707031 L 96.273438 120.875 L 117.183594 115.703125 "/>
<path style=" stroke:none;fill-rule:nonzero;fill:rgb(79.296875%,57.617188%,61.131287%);fill-opacity:1;" d="M 96.273438 120.875 L 71.703125 110.515625 "/>
<path style=" stroke:none;fill-rule:nonzero;fill:rgb(26.268005%,53.709412%,92.1875%);fill-opacity:1;" d="M 96.273438 120.875 L 88.5625 140.585938 L 96.273438 120.875 "/>
<path style=" stroke:none;fill-rule:nonzero;fill:rgb(91.796875%,53.318787%,12.156677%);fill-opacity:1;" d="M 132.71875 144.757812 L 145.347656 108.734375 "/>
<path style=" stroke:none;fill-rule:nonzero;fill:rgb(48.242188%,34.104919%,61.131287%);fill-opacity:1;" d="M 132.71875 144.757812 L 145.1875 109.191406 L 117.183594 115.703125 "/>
<path style=" stroke:none;fill-rule:nonzero;fill:rgb(48.242188%,34.104919%,61.131287%);fill-opacity:1;" d="M 145.1875 109.191406 L 145.347656 108.734375 L 117.183594 115.703125 "/>
<path style=" stroke:none;fill-rule:nonzero;fill:rgb(48.242188%,34.104919%,61.131287%);fill-opacity:1;" d="M 132.71875 144.757812 L 145.347656 108.734375 "/>
<path style=" stroke:none;fill-rule:nonzero;fill:rgb(23.535156%,75.389099%,84.764099%);fill-opacity:1;" d="M 132.71875 144.757812 L 88.5625 140.585938 L 125.394531 146.109375 "/>
<path style=" stroke:none;fill-rule:nonzero;fill:rgb(59.179688%,55.664062%,78.514099%);fill-opacity:1;" d="M 108.945312 176.933594 L 125.394531 146.109375 L 88.5625 140.585938 "/>
<path style=" stroke:none;fill-rule:nonzero;fill:rgb(84.375%,90.234375%,87.889099%);fill-opacity:1;" d="M 108.945312 176.933594 L 88.5625 140.585938 "/>
<path style=" stroke:none;fill-rule:nonzero;fill:rgb(26.268005%,53.709412%,92.1875%);fill-opacity:1;" d="M 88.5625 140.585938 L 80.765625 160.523438 L 88.5625 140.585938 "/>
<path style=" stroke:none;fill-rule:nonzero;fill:rgb(86.326599%,82.8125%,35.693359%);fill-opacity:1;" d="M 54.75 169.988281 L 47.769531 136.738281 L 44.476562 139.398438 "/>
<path style=" stroke:none;fill-rule:nonzero;fill:rgb(26.268005%,53.709412%,92.1875%);fill-opacity:1;" d="M 54.75 169.988281 L 88.5625 140.585938 "/>
<path style=" stroke:none;fill-rule:nonzero;fill:rgb(75.78125%,66.992188%,76.951599%);fill-opacity:1;" d="M 54.75 169.988281 L 88.5625 140.585938 L 54.75 169.988281 "/>
<path style=" stroke:none;fill-rule:nonzero;fill:rgb(26.268005%,53.709412%,92.1875%);fill-opacity:1;" d="M 54.75 169.988281 L 80.765625 160.523438 "/>
<path style=" stroke:none;fill-rule:nonzero;fill:rgb(26.268005%,53.709412%,92.1875%);fill-opacity:1;" d="M 54.75 169.988281 L 80.765625 160.523438 L 88.5625 140.585938 "/>
<path style=" stroke:none;fill-rule:nonzero;fill:rgb(26.268005%,53.709412%,92.1875%);fill-opacity:1;" d="M 54.75 169.988281 L 80.765625 160.523438 L 54.75 169.988281 "/>
<path style=" stroke:none;fill-rule:nonzero;fill:rgb(75.78125%,66.992188%,76.951599%);fill-opacity:1;" d="M 54.75 169.988281 L 88.5625 140.585938 L 47.769531 136.738281 "/>
<path style=" stroke:none;fill-rule:nonzero;fill:rgb(84.375%,90.234375%,87.889099%);fill-opacity:1;" d="M 80.765625 160.523438 L 88.5625 140.585938 L 80.765625 160.523438 "/>
<path style=" stroke:none;fill-rule:nonzero;fill:rgb(84.375%,90.234375%,87.889099%);fill-opacity:1;" d="M 108.945312 176.933594 L 88.5625 140.585938 L 80.765625 160.523438 "/>
<path style=" stroke:none;fill-rule:nonzero;fill:rgb(26.268005%,53.709412%,92.1875%);fill-opacity:1;" d="M 80.765625 160.523438 L 88.5625 140.585938 "/>
<path style=" stroke:none;fill-rule:nonzero;fill:rgb(60.351562%,29.417419%,41.967773%);fill-opacity:1;" d="M 115.234375 147.992188 L 80.765625 160.523438 L 115.234375 147.992188 "/>
<path style=" stroke:none;fill-rule:nonzero;fill:rgb(60.351562%,29.417419%,41.967773%);fill-opacity:1;" d="M 108.945312 176.933594 L 80.765625 160.523438 L 115.234375 147.992188 "/>
<path style=" stroke:none;fill-rule:nonzero;fill:rgb(60.351562%,29.417419%,41.967773%);fill-opacity:1;" d="M 80.765625 160.523438 L 115.234375 147.992188 "/>
<path style=" stroke:none;fill-rule:nonzero;fill:rgb(60.351562%,29.417419%,41.967773%);fill-opacity:1;" d="M 54.75 169.988281 L 44.476562 139.398438 L 80.765625 160.523438 "/>
<g clip-path="url(#clip1)" clip-rule="nonzero">
<path style=" stroke:none;fill-rule:nonzero;fill:rgb(84.375%,90.234375%,87.889099%);fill-opacity:1;" d="M 73.710938 178.554688 L 80.765625 160.523438 L 44.476562 139.398438 "/>
</g>
<path style=" stroke:none;fill-rule:nonzero;fill:rgb(84.375%,90.234375%,87.889099%);fill-opacity:1;" d="M 80.765625 160.523438 L 44.476562 139.398438 "/>
<path style=" stroke:none;fill-rule:nonzero;fill:rgb(60.351562%,29.417419%,41.967773%);fill-opacity:1;" d="M 80.765625 160.523438 L 44.476562 139.398438 L 80.765625 160.523438 "/>
<path style=" stroke:none;fill-rule:nonzero;fill:rgb(60.351562%,29.417419%,41.967773%);fill-opacity:1;" d="M 54.75 169.988281 L 44.476562 139.398438 L 54.75 169.988281 "/>
<path style=" stroke:none;fill-rule:nonzero;fill:rgb(86.326599%,82.8125%,35.693359%);fill-opacity:1;" d="M 44.476562 139.398438 L 47.769531 136.738281 L 44.476562 139.398438 "/>
<path style=" stroke:none;fill-rule:nonzero;fill:rgb(86.326599%,82.8125%,35.693359%);fill-opacity:1;" d="M 54.75 169.988281 L 44.476562 139.398438 "/>
<path style=" stroke:none;fill-rule:nonzero;fill:rgb(91.796875%,53.318787%,12.156677%);fill-opacity:1;" d="M 108.945312 176.933594 L 115.234375 147.992188 L 125.394531 146.109375 "/>
<path style=" stroke:none;fill-rule:nonzero;fill:rgb(23.535156%,75.389099%,84.764099%);fill-opacity:1;" d="M 157.066406 150.859375 L 125.394531 146.109375 L 115.234375 147.992188 "/>
<path style=" stroke:none;fill-rule:nonzero;fill:rgb(23.535156%,75.389099%,84.764099%);fill-opacity:1;" d="M 125.394531 146.109375 L 115.234375 147.992188 "/>
<path style=" stroke:none;fill-rule:nonzero;fill:rgb(91.796875%,53.318787%,12.156677%);fill-opacity:1;" d="M 132.71875 144.757812 L 125.394531 146.109375 "/>
<path style=" stroke:none;fill-rule:nonzero;fill:rgb(91.796875%,53.318787%,12.156677%);fill-opacity:1;" d="M 132.71875 144.757812 L 125.394531 146.109375 L 145.347656 108.734375 "/>
<path style=" stroke:none;fill-rule:nonzero;fill:rgb(91.796875%,53.318787%,12.156677%);fill-opacity:1;" d="M 132.71875 144.757812 L 125.394531 146.109375 L 132.71875 144.757812 "/>
<path style=" stroke:none;fill-rule:nonzero;fill:rgb(48.242188%,34.104919%,61.131287%);fill-opacity:1;" d="M 145.1875 109.191406 L 145.347656 108.734375 "/>
<path style=" stroke:none;fill-rule:nonzero;fill:rgb(26.268005%,53.709412%,92.1875%);fill-opacity:1;" d="M 96.273438 120.875 L 88.5625 140.585938 L 117.183594 115.703125 "/>
<path style=" stroke:none;fill-rule:nonzero;fill:rgb(48.242188%,34.104919%,61.131287%);fill-opacity:1;" d="M 117.183594 115.703125 L 145.347656 108.734375 L 117.183594 115.703125 "/>
<path style=" stroke:none;fill-rule:nonzero;fill:rgb(26.268005%,53.709412%,92.1875%);fill-opacity:1;" d="M 96.273438 120.875 L 117.183594 115.703125 "/>
<path style=" stroke:none;fill-rule:nonzero;fill:rgb(48.242188%,34.104919%,61.131287%);fill-opacity:1;" d="M 96.273438 120.875 L 117.183594 115.703125 L 98.351562 80.476562 "/>
<path style=" stroke:none;fill-rule:nonzero;fill:rgb(75.78125%,66.992188%,76.951599%);fill-opacity:1;" d="M 139.300781 96.472656 L 98.351562 80.476562 L 117.183594 115.703125 "/>
<path style=" stroke:none;fill-rule:nonzero;fill:rgb(48.242188%,34.104919%,61.131287%);fill-opacity:1;" d="M 117.183594 115.703125 L 98.351562 80.476562 "/>
<path style=" stroke:none;fill-rule:nonzero;fill:rgb(75.78125%,66.992188%,76.951599%);fill-opacity:1;" d="M 139.300781 96.472656 L 98.351562 80.476562 "/>
<path style=" stroke:none;fill-rule:nonzero;fill:rgb(75.78125%,66.992188%,76.951599%);fill-opacity:1;" d="M 117.183594 115.703125 L 98.351562 80.476562 L 117.183594 115.703125 "/>
<path style=" stroke:none;fill-rule:nonzero;fill:rgb(75.78125%,66.992188%,76.951599%);fill-opacity:1;" d="M 116.613281 116.199219 L 117.183594 115.703125 L 88.625 140.535156 "/>
<path style=" stroke:none;fill-rule:nonzero;fill:rgb(75.78125%,66.992188%,76.951599%);fill-opacity:1;" d="M 117.183594 115.703125 L 88.625 140.535156 L 88.5625 140.585938 "/>
<path style=" stroke:none;fill-rule:nonzero;fill:rgb(26.268005%,53.709412%,92.1875%);fill-opacity:1;" d="M 96.273438 120.875 L 101 119.707031 "/>
<path style=" stroke:none;fill-rule:nonzero;fill:rgb(79.296875%,57.617188%,61.131287%);fill-opacity:1;" d="M 96.273438 120.875 L 71.703125 110.515625 "/>
<path style=" stroke:none;fill-rule:nonzero;fill:rgb(84.375%,90.234375%,87.889099%);fill-opacity:1;" d="M 96.273438 120.875 L 71.703125 110.515625 L 88.5625 140.585938 "/>
<path style=" stroke:none;fill-rule:nonzero;fill:rgb(48.242188%,34.104919%,61.131287%);fill-opacity:1;" d="M 96.273438 120.875 L 98.351562 80.476562 "/>
<path style=" stroke:none;fill-rule:nonzero;fill:rgb(84.375%,90.234375%,87.889099%);fill-opacity:1;" d="M 58.90625 87.699219 L 71.703125 110.515625 "/>
<path style=" stroke:none;fill-rule:nonzero;fill:rgb(59.179688%,55.664062%,78.514099%);fill-opacity:1;" d="M 66.777344 101.734375 L 71.703125 110.515625 "/>
<path style=" stroke:none;fill-rule:nonzero;fill:rgb(84.375%,90.234375%,87.889099%);fill-opacity:1;" d="M 58.90625 87.699219 L 39.402344 96.894531 L 71.703125 110.515625 "/>
<path style=" stroke:none;fill-rule:nonzero;fill:rgb(84.375%,90.234375%,87.889099%);fill-opacity:1;" d="M 58.90625 87.699219 L 71.703125 110.515625 "/>
<path style=" stroke:none;fill-rule:nonzero;fill:rgb(59.179688%,55.664062%,78.514099%);fill-opacity:1;" d="M 58.90625 87.699219 L 66.777344 101.734375 L 98.351562 80.476562 "/>
<path style=" stroke:none;fill-rule:nonzero;fill:rgb(59.179688%,55.664062%,78.514099%);fill-opacity:1;" d="M 66.777344 101.734375 L 71.703125 110.515625 L 98.351562 80.476562 "/>
<path style="fill:none;stroke-width:5.00001;stroke-linecap:round;stroke-linejoin:round;stroke:rgb(0%,0%,0%);stroke-opacity:1;stroke-miterlimit:10;" d="M 588.457358 914.074728 L 588.457358 914.074728 M 588.457358 914.074728 L 984.229724 986.542851 M 588.457358 914.074728 L 588.457358 914.074728 M 984.229724 986.542851 L 984.229724 986.542851 M 984.229724 986.542851 L 984.229724 986.542851 M 588.457358 914.074728 L 588.457358 914.074728 M 609.896008 1132.811664 L 609.896008 1132.811664 M 588.457358 914.074728 L 609.896008 1132.811664 M 588.457358 914.074728 L 653.126045 798.768499 M 963.378972 581.207358 L 963.378972 581.207358 M 1173.17987 633.09908 L 1173.17987 633.09908 M 963.378972 581.207358 L 1173.17987 633.09908 M 1173.17987 633.09908 L 1173.17987 633.09908 M 963.378972 581.207358 L 963.378972 581.207358 M 886.011706 383.438754 L 886.011706 383.438754 M 963.378972 581.207358 L 963.378972 581.207358 M 954.560514 584.891513 L 963.378972 581.207358 M 963.378972 581.207358 L 963.378972 581.207358 M 777.642663 1372.987249 L 777.642663 1372.987249 M 777.642663 1372.987249 L 777.642663 1372.987249 M 1003.865489 1368.284072 L 1003.865489 1368.284072 M 777.642663 1372.987249 L 1003.865489 1368.284072 M 777.642663 1372.987249 L 777.642663 1372.987249 M 876.448579 1370.949206 L 1003.865489 1368.284072 M 789.283027 1372.75209 L 876.448579 1370.949206 M 789.126254 1372.75209 L 789.283027 1372.75209 M 777.642663 1372.987249 L 789.126254 1372.75209 M 777.642663 1372.987249 L 777.642663 1372.987249 M 777.642663 1372.987249 L 777.642663 1372.987249 M 609.896008 1132.811664 L 609.896008 1132.811664 M 1173.17987 633.09908 L 1173.17987 633.09908 " transform="matrix(0.0996667,0,0,-0.0996667,0.256667,178.802)"/>
<path style=" stroke:none;fill-rule:nonzero;fill:rgb(59.179688%,55.664062%,78.514099%);fill-opacity:1;" d="M 128.136719 46.902344 L 98.351562 80.476562 L 135.582031 73.65625 "/>
<path style=" stroke:none;fill-rule:nonzero;fill:rgb(26.660156%,26.660156%,28.24707%);fill-opacity:1;" d="M 128.136719 46.902344 L 135.582031 73.65625 "/>
<path style=" stroke:none;fill-rule:nonzero;fill:rgb(26.660156%,26.660156%,28.24707%);fill-opacity:1;" d="M 128.136719 46.902344 L 135.582031 73.65625 L 130.597656 43.066406 "/>
<path style=" stroke:none;fill-rule:nonzero;fill:rgb(63.084412%,35.693359%,48.631287%);fill-opacity:1;" d="M 167.15625 67.871094 L 130.597656 43.066406 L 135.582031 73.65625 "/>
<path style=" stroke:none;fill-rule:nonzero;fill:rgb(59.179688%,55.664062%,78.514099%);fill-opacity:1;" d="M 167.15625 67.871094 L 135.582031 73.65625 "/>
<path style=" stroke:none;fill-rule:nonzero;fill:rgb(59.179688%,55.664062%,78.514099%);fill-opacity:1;" d="M 167.15625 67.871094 L 135.582031 73.65625 L 145.347656 108.734375 "/>
<path style=" stroke:none;fill-rule:nonzero;fill:rgb(63.084412%,35.693359%,48.631287%);fill-opacity:1;" d="M 139.300781 96.472656 L 135.582031 73.65625 L 98.351562 80.476562 "/>
<path style=" stroke:none;fill-rule:nonzero;fill:rgb(26.660156%,26.660156%,28.24707%);fill-opacity:1;" d="M 139.300781 96.472656 L 145.347656 108.734375 L 135.582031 73.65625 "/>
<path style=" stroke:none;fill-rule:nonzero;fill:rgb(59.179688%,55.664062%,78.514099%);fill-opacity:1;" d="M 135.582031 73.65625 L 145.347656 108.734375 "/>
<path style=" stroke:none;fill-rule:nonzero;fill:rgb(63.084412%,35.693359%,48.631287%);fill-opacity:1;" d="M 130.597656 43.066406 L 135.582031 73.65625 "/>
<path style=" stroke:none;fill-rule:nonzero;fill:rgb(26.660156%,26.660156%,28.24707%);fill-opacity:1;" d="M 128.136719 46.902344 L 135.582031 73.65625 L 128.136719 46.902344 "/>
<path style=" stroke:none;fill-rule:nonzero;fill:rgb(59.179688%,55.664062%,78.514099%);fill-opacity:1;" d="M 167.15625 67.871094 L 135.582031 73.65625 L 167.15625 67.871094 "/>
<path style=" stroke:none;fill-rule:nonzero;fill:rgb(26.660156%,26.660156%,28.24707%);fill-opacity:1;" d="M 135.582031 73.65625 L 130.597656 43.066406 "/>
<path style=" stroke:none;fill-rule:nonzero;fill:rgb(91.796875%,53.318787%,12.156677%);fill-opacity:1;" d="M 167.15625 67.871094 L 145.347656 108.734375 L 157.535156 73.957031 "/>
<path style=" stroke:none;fill-rule:nonzero;fill:rgb(91.796875%,53.318787%,12.156677%);fill-opacity:1;" d="M 167.15625 67.871094 L 145.347656 108.734375 "/>
<path style=" stroke:none;fill-rule:nonzero;fill:rgb(83.984375%,96.484375%,88.28125%);fill-opacity:1;" d="M 167.15625 67.871094 L 157.535156 73.957031 "/>
<path style=" stroke:none;fill-rule:nonzero;fill:rgb(83.984375%,96.484375%,88.28125%);fill-opacity:1;" d="M 167.15625 67.871094 L 157.535156 73.957031 L 130.597656 43.066406 "/>
<path style=" stroke:none;fill-rule:nonzero;fill:rgb(83.984375%,96.484375%,88.28125%);fill-opacity:1;" d="M 167.15625 67.871094 L 157.535156 73.957031 L 167.15625 67.871094 "/>
<path style=" stroke:none;fill-rule:nonzero;fill:rgb(48.242188%,34.104919%,61.131287%);fill-opacity:1;" d="M 168.089844 43.855469 L 130.597656 43.066406 L 157.535156 73.957031 "/>
<path style=" stroke:none;fill-rule:nonzero;fill:rgb(76.5625%,68.943787%,78.125%);fill-opacity:1;" d="M 168.089844 43.855469 L 133.128906 39.121094 "/>
<path style=" stroke:none;fill-rule:nonzero;fill:rgb(35.693359%,21.556091%,21.556091%);fill-opacity:1;" d="M 168.089844 43.855469 L 146.460938 40.929688 L 130.597656 43.066406 "/>
<path style=" stroke:none;fill-rule:nonzero;fill:rgb(35.693359%,21.556091%,21.556091%);fill-opacity:1;" d="M 146.460938 40.929688 L 133.128906 39.121094 L 130.597656 43.066406 "/>
<path style=" stroke:none;fill-rule:nonzero;fill:rgb(76.5625%,68.943787%,78.125%);fill-opacity:1;" d="M 168.089844 43.855469 L 144.238281 82.371094 L 133.128906 39.121094 "/>
<path style=" stroke:none;fill-rule:nonzero;fill:rgb(76.5625%,68.943787%,78.125%);fill-opacity:1;" d="M 168.089844 43.855469 L 133.128906 39.121094 "/>
<path style=" stroke:none;fill-rule:nonzero;fill:rgb(35.693359%,21.556091%,21.556091%);fill-opacity:1;" d="M 146.460938 40.929688 L 133.128906 39.121094 "/>
<path style=" stroke:none;fill-rule:nonzero;fill:rgb(91.796875%,53.318787%,12.156677%);fill-opacity:1;" d="M 168.089844 43.855469 L 157.535156 73.957031 L 144.238281 82.371094 "/>
<path style=" stroke:none;fill-rule:nonzero;fill:rgb(91.796875%,53.318787%,12.156677%);fill-opacity:1;" d="M 157.535156 73.957031 L 144.238281 82.371094 "/>
<path style=" stroke:none;fill-rule:nonzero;fill:rgb(48.242188%,34.104919%,61.131287%);fill-opacity:1;" d="M 168.089844 43.855469 L 157.535156 73.957031 "/>
<path style=" stroke:none;fill-rule:nonzero;fill:rgb(48.242188%,34.104919%,61.131287%);fill-opacity:1;" d="M 168.089844 43.855469 L 157.535156 73.957031 "/>
<path style=" stroke:none;fill-rule:nonzero;fill:rgb(91.796875%,53.318787%,12.156677%);fill-opacity:1;" d="M 157.535156 73.957031 L 145.347656 108.734375 L 157.535156 73.957031 "/>
<path style=" stroke:none;fill-rule:nonzero;fill:rgb(63.084412%,35.693359%,48.631287%);fill-opacity:1;" d="M 135.582031 73.65625 L 130.597656 43.066406 L 135.582031 73.65625 "/>
<path style=" stroke:none;fill-rule:nonzero;fill:rgb(63.084412%,35.693359%,48.631287%);fill-opacity:1;" d="M 135.582031 73.65625 L 98.351562 80.476562 "/>
<path style="fill:none;stroke-width:5.00001;stroke-linecap:round;stroke-linejoin:round;stroke:rgb(0%,0%,0%);stroke-opacity:1;stroke-miterlimit:10;" d="M 1357.779578 1054.97408 L 1357.779578 1054.97408 M 984.229724 986.542851 L 985.248746 986.15092 M 1395.091451 826.046927 L 1395.091451 826.046927 " transform="matrix(0.0996667,0,0,-0.0996667,0.256667,178.802)"/>
<path style=" stroke:none;fill-rule:nonzero;fill:rgb(26.268005%,53.709412%,92.1875%);fill-opacity:1;" d="M 139.300781 96.472656 L 117.183594 115.703125 L 145.347656 108.734375 "/>
<path style="fill:none;stroke-width:5.00001;stroke-linecap:round;stroke-linejoin:round;stroke:rgb(0%,0%,0%);stroke-opacity:1;stroke-miterlimit:10;" d="M 1173.17987 633.09908 L 1395.091451 826.046927 M 1395.091451 826.046927 L 1455.762437 703.019649 M 1173.17987 633.09908 L 1395.091451 826.046927 M 985.248746 986.15092 L 1395.091451 826.046927 M 1357.779578 1054.97408 L 1395.091451 826.046927 M 1357.779578 1054.97408 L 1360.601484 1037.729097 M 1360.601484 1037.729097 L 1395.091451 826.046927 M 1395.091451 826.046927 L 1395.091451 826.046927 M 1395.091451 826.046927 L 1455.762437 703.019649 M 984.229724 986.542851 L 1283.077446 1323.407922 M 984.229724 986.542851 L 984.229724 986.542851 M 1003.865489 1368.284072 L 1003.865489 1368.284072 M 1283.077446 1323.407922 L 1357.779578 1054.97408 M 984.229724 986.542851 L 1283.077446 1323.407922 M 1003.865489 1368.284072 L 1283.077446 1323.407922 M 1283.077446 1323.407922 L 1283.077446 1323.407922 M 984.660849 994.773411 L 1003.865489 1368.284072 M 984.229724 986.542851 L 984.660849 994.773411 M 984.229724 986.542851 L 984.229724 986.542851 M 984.229724 986.542851 L 984.229724 986.542851 M 609.896008 1132.811664 L 984.229724 986.542851 M 984.229724 986.542851 L 984.229724 986.542851 M 990.579013 974.667329 L 1173.17987 633.09908 M 984.229724 986.542851 L 990.579013 974.667329 M 716.854097 685.147575 L 984.229724 986.542851 M 984.229724 986.542851 L 984.229724 986.542851 M 985.640677 983.877717 L 1173.17987 633.09908 M 984.229724 986.542851 L 985.640677 983.877717 M 985.719064 1015.506584 L 1003.865489 1368.284072 M 984.229724 986.542851 L 985.719064 1015.506584 M 984.229724 986.542851 L 1357.779578 1054.97408 M 609.896008 1132.811664 L 984.229724 986.542851 M 609.896008 1132.811664 L 609.896008 1132.811664 " transform="matrix(0.0996667,0,0,-0.0996667,0.256667,178.802)"/>
<path style=" stroke:none;fill-rule:nonzero;fill:rgb(79.296875%,57.617188%,61.131287%);fill-opacity:1;" d="M 50.132812 134.828125 L 71.703125 110.515625 L 50.132812 134.828125 "/>
<path style=" stroke:none;fill-rule:nonzero;fill:rgb(86.326599%,82.8125%,35.693359%);fill-opacity:1;" d="M 50.132812 134.828125 L 47.769531 136.738281 "/>
<path style=" stroke:none;fill-rule:nonzero;fill:rgb(23.535156%,75.389099%,84.764099%);fill-opacity:1;" d="M 50.132812 134.828125 L 50.113281 134.839844 L 88.5625 140.585938 "/>
<path style=" stroke:none;fill-rule:nonzero;fill:rgb(23.535156%,75.389099%,84.764099%);fill-opacity:1;" d="M 50.113281 134.839844 L 47.769531 136.738281 "/>
<path style=" stroke:none;fill-rule:nonzero;fill:rgb(86.326599%,82.8125%,35.693359%);fill-opacity:1;" d="M 50.132812 134.828125 L 47.769531 136.738281 "/>
<path style=" stroke:none;fill-rule:nonzero;fill:rgb(23.535156%,75.389099%,84.764099%);fill-opacity:1;" d="M 50.113281 134.839844 L 47.769531 136.738281 L 88.5625 140.585938 "/>
<path style=" stroke:none;fill-rule:nonzero;fill:rgb(59.179688%,55.664062%,78.514099%);fill-opacity:1;" d="M 50.132812 134.828125 L 71.703125 110.515625 "/>
<path style=" stroke:none;fill-rule:nonzero;fill:rgb(86.326599%,82.8125%,35.693359%);fill-opacity:1;" d="M 50.132812 134.828125 L 39.464844 97.101562 L 50.132812 134.828125 "/>
<path style=" stroke:none;fill-rule:nonzero;fill:rgb(86.326599%,82.8125%,35.693359%);fill-opacity:1;" d="M 50.132812 134.828125 L 39.402344 96.894531 L 47.769531 136.738281 "/>
<path style=" stroke:none;fill-rule:nonzero;fill:rgb(79.296875%,57.617188%,61.131287%);fill-opacity:1;" d="M 50.132812 134.828125 L 71.703125 110.515625 "/>
<path style=" stroke:none;fill-rule:nonzero;fill:rgb(59.179688%,55.664062%,78.514099%);fill-opacity:1;" d="M 50.132812 134.828125 L 71.703125 110.515625 "/>
<path style=" stroke:none;fill-rule:nonzero;fill:rgb(79.296875%,57.617188%,61.131287%);fill-opacity:1;" d="M 50.132812 134.828125 L 71.703125 110.515625 L 39.402344 96.894531 "/>
<path style=" stroke:none;fill-rule:nonzero;fill:rgb(59.179688%,55.664062%,78.514099%);fill-opacity:1;" d="M 50.132812 134.828125 L 88.5625 140.585938 L 71.703125 110.515625 "/>
<path style="fill:none;stroke-width:5.00001;stroke-linecap:round;stroke-linejoin:round;stroke:rgb(0%,0%,0%);stroke-opacity:1;stroke-miterlimit:10;" d="M 716.854097 685.147575 L 716.854097 685.147575 M 716.854097 685.147575 L 886.011706 383.438754 M 886.011706 383.438754 L 886.011706 383.438754 M 716.854097 685.147575 L 716.854097 685.147575 M 716.854097 685.147575 L 716.854097 685.147575 M 716.854097 685.147575 L 716.854097 685.147575 M 716.854097 685.147575 L 716.854097 685.147575 M 716.854097 685.147575 L 984.229724 986.542851 M 716.854097 685.147575 L 963.378972 581.207358 M 716.854097 685.147575 L 716.854097 685.147575 M 716.854097 685.147575 L 716.854097 685.147575 M 392.805184 821.774875 L 716.854097 685.147575 M 716.854097 685.147575 L 716.854097 685.147575 M 716.854097 685.147575 L 716.854097 685.147575 M 716.854097 685.147575 L 886.011706 383.438754 M 543.150084 758.360368 L 716.854097 685.147575 M 886.011706 383.438754 L 886.011706 383.438754 " transform="matrix(0.0996667,0,0,-0.0996667,0.256667,178.802)"/>
<path style=" stroke:none;fill-rule:nonzero;fill:rgb(63.084412%,35.693359%,48.631287%);fill-opacity:1;" d="M 30.378906 53.917969 L 61.042969 65.898438 L 63.917969 36.585938 "/>
<path style="fill:none;stroke-width:5.00001;stroke-linecap:round;stroke-linejoin:round;stroke:rgb(0%,0%,0%);stroke-opacity:1;stroke-miterlimit:10;" d="M 609.896008 1132.811664 L 609.896008 1132.811664 M 609.896008 1132.811664 L 777.642663 1372.987249 M 609.896008 1132.811664 L 609.896008 1132.811664 " transform="matrix(0.0996667,0,0,-0.0996667,0.256667,178.802)"/>
<path style=" stroke:none;fill-rule:nonzero;fill:rgb(75.78125%,66.992188%,76.951599%);fill-opacity:1;" d="M 30.378906 53.917969 L 39.402344 96.894531 L 61.042969 65.898438 "/>
<path style="fill:none;stroke-width:5.00001;stroke-linecap:round;stroke-linejoin:round;stroke:rgb(0%,0%,0%);stroke-opacity:1;stroke-miterlimit:10;" d="M 419.534908 1207.161058 L 609.896008 1132.811664 M 609.896008 1132.811664 L 609.896008 1132.811664 M 302.229829 1253.017036 L 302.229829 1253.017036 M 392.765991 821.814068 L 588.457358 914.074728 M 886.638796 383.948265 L 1173.17987 633.09908 M 886.011706 383.438754 L 886.638796 383.948265 M 886.011706 383.438754 L 886.011706 383.438754 M 1173.17987 633.09908 L 1173.17987 633.09908 M 1173.17987 633.09908 L 1295.893604 403.58403 M 1173.17987 633.09908 L 1173.17987 633.09908 M 1173.17987 633.09908 L 1295.893604 403.58403 M 1173.17987 633.09908 L 1454.939381 702.823683 M 886.011706 383.438754 L 1173.17987 633.09908 M 1173.17987 633.09908 L 1173.17987 633.09908 " transform="matrix(0.0996667,0,0,-0.0996667,0.256667,178.802)"/>
<path style=" stroke:none;fill-rule:nonzero;fill:rgb(86.326599%,82.8125%,35.693359%);fill-opacity:1;" d="M 30.378906 53.917969 L 29.15625 60.65625 L 39.402344 96.894531 "/>
<path style=" stroke:none;fill-rule:nonzero;fill:rgb(0%,41.967773%,85.546875%);fill-opacity:1;" d="M 30.378906 53.917969 L 63.917969 36.585938 L 29.15625 60.65625 "/>
<path style="fill:none;stroke-width:5.00001;stroke-linecap:round;stroke-linejoin:round;stroke:rgb(0%,0%,0%);stroke-opacity:1;stroke-miterlimit:10;" d="M 356.786685 1231.695966 L 419.534908 1207.161058 M 886.011706 383.438754 L 1265.989235 347.537834 M 886.011706 383.438754 L 886.011706 383.438754 M 1255.563859 328.019649 L 1255.563859 328.019649 M 886.011706 383.438754 L 1265.989235 347.537834 M 1329.051003 341.580477 L 1454.155518 698.473244 " transform="matrix(0.0996667,0,0,-0.0996667,0.256667,178.802)"/>
<path style=" stroke:none;fill-rule:nonzero;fill:rgb(79.296875%,57.617188%,61.131287%);fill-opacity:1;" d="M 101.964844 10.242188 L 63.917969 36.585938 L 100.308594 42.429688 "/>
<path style="fill:none;stroke-width:5.00001;stroke-linecap:round;stroke-linejoin:round;stroke:rgb(0%,0%,0%);stroke-opacity:1;stroke-miterlimit:10;" d="M 638.742161 1426.917015 L 667.549122 1422.292224 M 1003.865489 1368.284072 L 1020.483382 1691.235577 M 1003.865489 1368.284072 L 1003.865489 1368.284072 M 1003.865489 1368.284072 L 1003.865489 1368.284072 M 665.119147 1416.687605 L 777.642663 1372.987249 M 1003.865489 1368.284072 L 1003.865489 1368.284072 M 1455.762437 703.019649 L 1455.762437 703.019649 M 1357.779578 1054.97408 L 1455.762437 703.019649 M 1357.779578 1054.97408 L 1357.779578 1054.97408 M 1357.779578 1054.97408 L 1357.779578 1054.97408 M 1674.577759 1113.019126 L 1674.577759 1113.019126 M 1674.577759 1113.019126 L 1674.577759 1113.019126 M 1357.779578 1054.97408 L 1419.27362 1066.261706 M 1516.825355 1084.133779 L 1516.825355 1084.133779 M 1674.577759 1113.019126 L 1674.577759 1113.019126 M 1307.808319 1361.582044 L 1357.779578 1054.97408 M 1357.779578 1054.97408 L 1357.779578 1054.97408 " transform="matrix(0.0996667,0,0,-0.0996667,0.256667,178.802)"/>
<g clip-path="url(#clip2)" clip-rule="nonzero">
<path style=" stroke:none;fill-rule:nonzero;fill:rgb(84.375%,90.234375%,87.889099%);fill-opacity:1;" d="M 0.503906 80.492188 L 19.691406 106.191406 L 39.402344 96.894531 "/>
</g>
<path style=" stroke:none;fill-rule:nonzero;fill:rgb(75.78125%,66.992188%,76.951599%);fill-opacity:1;" d="M 13.824219 133.53125 L 47.769531 136.738281 "/>
<path style=" stroke:none;fill-rule:nonzero;fill:rgb(75.78125%,66.992188%,76.951599%);fill-opacity:1;" d="M 13.824219 133.53125 L 47.769531 136.738281 L 13.824219 133.53125 "/>
<path style=" stroke:none;fill-rule:nonzero;fill:rgb(23.535156%,75.389099%,84.764099%);fill-opacity:1;" d="M 13.824219 133.53125 L 44.476562 139.398438 L 47.769531 136.738281 "/>
<path style=" stroke:none;fill-rule:nonzero;fill:rgb(23.535156%,75.389099%,84.764099%);fill-opacity:1;" d="M 13.824219 133.53125 L 47.769531 136.738281 "/>
<path style=" stroke:none;fill-rule:nonzero;fill:rgb(94.921875%,61.131287%,34.910583%);fill-opacity:1;" d="M 13.824219 133.53125 L 39.402344 96.894531 L 19.691406 106.191406 "/>
<path style=" stroke:none;fill-rule:nonzero;fill:rgb(23.535156%,75.389099%,84.764099%);fill-opacity:1;" d="M 13.824219 133.53125 L 47.769531 136.738281 "/>
<path style=" stroke:none;fill-rule:nonzero;fill:rgb(75.78125%,66.992188%,76.951599%);fill-opacity:1;" d="M 13.824219 133.53125 L 47.769531 136.738281 L 39.402344 96.894531 "/>
<path style=" stroke:none;fill-rule:nonzero;fill:rgb(41.967773%,27.43988%,57.617188%);fill-opacity:1;" d="M 13.824219 133.53125 L 19.691406 106.191406 "/>
<path style=" stroke:none;fill-rule:nonzero;fill:rgb(84.375%,90.234375%,87.889099%);fill-opacity:1;" d="M 1.878906 114.585938 L 19.691406 106.191406 "/>
<path style=" stroke:none;fill-rule:nonzero;fill:rgb(41.967773%,27.43988%,57.617188%);fill-opacity:1;" d="M 13.824219 133.53125 L 19.691406 106.191406 L 44.476562 139.390625 "/>
<path style=" stroke:none;fill-rule:nonzero;fill:rgb(41.967773%,27.43988%,57.617188%);fill-opacity:1;" d="M 13.824219 133.53125 L 19.691406 106.191406 L 13.824219 133.53125 "/>
<path style=" stroke:none;fill-rule:nonzero;fill:rgb(84.375%,90.234375%,87.889099%);fill-opacity:1;" d="M 1.878906 114.585938 L 44.476562 139.398438 L 19.691406 106.191406 "/>
<path style=" stroke:none;fill-rule:nonzero;fill:rgb(60.351562%,29.417419%,41.967773%);fill-opacity:1;" d="M 1.878906 114.585938 L 44.460938 139.386719 "/>
<path style=" stroke:none;fill-rule:nonzero;fill:rgb(84.375%,90.234375%,87.889099%);fill-opacity:1;" d="M 1.878906 114.585938 L 19.691406 106.191406 "/>
<g clip-path="url(#clip3)" clip-rule="nonzero">
<path style=" stroke:none;fill-rule:nonzero;fill:rgb(79.296875%,57.617188%,61.131287%);fill-opacity:1;" d="M 0.503906 80.492188 L 39.402344 96.894531 L 29.15625 60.65625 "/>
</g>
<g clip-path="url(#clip4)" clip-rule="nonzero">
<path style=" stroke:none;fill-rule:nonzero;fill:rgb(41.967773%,27.43988%,57.617188%);fill-opacity:1;" d="M 0.503906 80.492188 L 27.449219 70.015625 L 19.691406 106.191406 "/>
</g>
<path style=" stroke:none;fill-rule:nonzero;fill:rgb(94.921875%,61.131287%,34.910583%);fill-opacity:1;" d="M 1.878906 114.585938 L 19.691406 106.191406 L 27.449219 70.015625 "/>
<path style=" stroke:none;fill-rule:nonzero;fill:rgb(94.921875%,61.131287%,34.910583%);fill-opacity:1;" d="M 19.691406 106.191406 L 27.449219 70.015625 "/>
<path style=" stroke:none;fill-rule:nonzero;fill:rgb(56.443787%,55.271912%,79.6875%);fill-opacity:1;" d="M 1.878906 114.585938 L 27.449219 70.015625 L 27.449219 70.019531 "/>
<path style=" stroke:none;fill-rule:nonzero;fill:rgb(94.921875%,61.131287%,34.910583%);fill-opacity:1;" d="M 19.691406 106.191406 L 39.402344 96.894531 L 19.691406 106.191406 "/>
<path style=" stroke:none;fill-rule:nonzero;fill:rgb(56.443787%,55.271912%,79.6875%);fill-opacity:1;" d="M 34.292969 109.050781 L 27.449219 70.019531 L 34.292969 109.050781 "/>
<path style=" stroke:none;fill-rule:nonzero;fill:rgb(56.443787%,55.271912%,79.6875%);fill-opacity:1;" d="M 1.878906 114.585938 L 27.449219 70.019531 L 34.292969 109.050781 "/>
<path style=" stroke:none;fill-rule:nonzero;fill:rgb(56.443787%,55.271912%,79.6875%);fill-opacity:1;" d="M 27.449219 70.019531 L 34.292969 109.050781 "/>
<path style=" stroke:none;fill-rule:nonzero;fill:rgb(60.351562%,29.417419%,41.967773%);fill-opacity:1;" d="M 1.878906 114.585938 L 34.292969 109.050781 L 44.460938 139.386719 "/>
<path style=" stroke:none;fill-rule:nonzero;fill:rgb(60.351562%,29.417419%,41.967773%);fill-opacity:1;" d="M 1.878906 114.585938 L 44.460938 139.386719 "/>
<path style=" stroke:none;fill-rule:nonzero;fill:rgb(84.375%,90.234375%,87.889099%);fill-opacity:1;" d="M 1.878906 114.585938 L 44.476562 139.398438 L 1.878906 114.585938 "/>
<path style=" stroke:none;fill-rule:nonzero;fill:rgb(86.326599%,82.8125%,35.693359%);fill-opacity:1;" d="M 40.214844 142.84375 L 34.292969 109.050781 "/>
<path style=" stroke:none;fill-rule:nonzero;fill:rgb(60.351562%,29.417419%,41.967773%);fill-opacity:1;" d="M 34.292969 109.050781 L 34.339844 109.195312 L 44.460938 139.386719 "/>
<path style=" stroke:none;fill-rule:nonzero;fill:rgb(86.326599%,82.8125%,35.693359%);fill-opacity:1;" d="M 40.214844 142.84375 L 44.476562 139.398438 L 34.292969 109.050781 "/>
<path style=" stroke:none;fill-rule:nonzero;fill:rgb(86.326599%,82.8125%,35.693359%);fill-opacity:1;" d="M 40.214844 142.84375 L 34.292969 109.050781 "/>
<path style=" stroke:none;fill-rule:nonzero;fill:rgb(86.326599%,82.8125%,35.693359%);fill-opacity:1;" d="M 25.25 82.113281 L 34.292969 109.050781 L 27.449219 70.015625 "/>
<path style=" stroke:none;fill-rule:nonzero;fill:rgb(60.351562%,29.417419%,41.967773%);fill-opacity:1;" d="M 25.25 82.113281 L 76.609375 101.820312 L 76.589844 101.824219 "/>
<path style=" stroke:none;fill-rule:nonzero;fill:rgb(60.351562%,29.417419%,41.967773%);fill-opacity:1;" d="M 34.292969 109.050781 L 76.589844 101.824219 L 34.292969 109.050781 "/>
<path style=" stroke:none;fill-rule:nonzero;fill:rgb(60.351562%,29.417419%,41.967773%);fill-opacity:1;" d="M 25.25 82.113281 L 76.589844 101.824219 L 34.292969 109.050781 "/>
<path style=" stroke:none;fill-rule:nonzero;fill:rgb(86.326599%,82.8125%,35.693359%);fill-opacity:1;" d="M 34.292969 109.050781 L 44.476562 139.398438 L 34.292969 109.050781 "/>
<path style=" stroke:none;fill-rule:nonzero;fill:rgb(60.351562%,29.417419%,41.967773%);fill-opacity:1;" d="M 34.292969 109.050781 L 34.339844 109.195312 "/>
<path style=" stroke:none;fill-rule:nonzero;fill:rgb(60.351562%,29.417419%,41.967773%);fill-opacity:1;" d="M 44.476562 139.398438 L 34.292969 109.050781 L 44.476562 139.398438 "/>
<path style="fill:none;stroke-width:5.00001;stroke-linecap:round;stroke-linejoin:round;stroke:rgb(0%,0%,0%);stroke-opacity:1;stroke-miterlimit:10;" d="M 313.047136 1201.399666 L 371.366534 923.873014 M 444.422554 895.810723 L 609.896008 1132.811664 M 502.506793 873.509824 L 588.457358 914.074728 M 444.422554 895.810723 L 609.896008 1132.811664 M 303.052885 693.299749 L 303.052885 693.299749 M 136.129285 454.221572 L 136.129285 454.221572 M 476.717705 422.044001 L 476.717705 422.044001 M 476.717705 422.044001 L 476.717705 422.044001 M 415.733173 712.543583 L 476.717705 422.044001 M 476.717705 422.044001 L 476.717705 422.044001 M 476.717705 422.044001 L 476.717705 422.044001 M 303.052885 693.299749 L 303.052885 693.299749 M 136.129285 454.221572 L 136.129285 454.221572 M 884.639946 383.556334 L 886.011706 383.438754 M 476.717705 422.044001 L 884.639946 383.556334 M 886.011706 383.438754 L 1255.563859 328.019649 M 886.011706 383.438754 L 886.011706 383.438754 M 807.782191 183.396948 L 884.44398 379.441054 M 884.44398 379.441054 L 886.011706 383.438754 M 1090.52153 18.746551 L 1090.52153 18.746551 M 886.011706 383.438754 L 886.011706 383.438754 M 546.755853 88.431961 L 546.755853 88.431961 M 546.755853 88.431961 L 546.755853 88.431961 M 807.782191 183.396948 L 885.031877 380.969586 M 885.031877 380.969586 L 886.011706 383.438754 M 476.717705 422.044001 L 886.011706 383.438754 M 546.755853 88.431961 L 546.755853 88.431961 M 546.755853 88.431961 L 546.755853 88.431961 M 889.617475 377.011079 L 965.926526 240.89329 M 1090.52153 18.746551 L 1090.52153 18.746551 M 1090.52153 18.746551 L 1090.52153 18.746551 M 886.011706 383.438754 L 889.617475 377.011079 " transform="matrix(0.0996667,0,0,-0.0996667,0.256667,178.802)"/>
<path style=" stroke:none;fill-rule:nonzero;fill:rgb(0%,41.967773%,85.546875%);fill-opacity:1;" d="M 101.964844 10.242188 L 96.34375 19.828125 L 63.917969 36.585938 "/>
<path style="fill:none;stroke-width:5.00001;stroke-linecap:round;stroke-linejoin:round;stroke:rgb(0%,0%,0%);stroke-opacity:1;stroke-miterlimit:10;" d="M 1003.865489 1368.284072 L 1020.483382 1691.235577 " transform="matrix(0.0996667,0,0,-0.0996667,0.256667,178.802)"/>
<path style=" stroke:none;fill-rule:nonzero;fill:rgb(83.984375%,96.484375%,88.28125%);fill-opacity:1;" d="M 101.964844 10.242188 L 130.597656 43.066406 L 96.34375 19.828125 "/>
<path style=" stroke:none;fill-rule:nonzero;fill:rgb(63.084412%,35.693359%,48.631287%);fill-opacity:1;" d="M 124.441406 5.304688 L 130.597656 43.066406 "/>
<path style=" stroke:none;fill-rule:nonzero;fill:rgb(26.660156%,26.660156%,28.24707%);fill-opacity:1;" d="M 124.441406 5.304688 L 130.597656 43.066406 L 133.128906 39.121094 "/>
<path style=" stroke:none;fill-rule:nonzero;fill:rgb(26.660156%,26.660156%,28.24707%);fill-opacity:1;" d="M 124.441406 5.304688 L 130.597656 43.066406 L 124.441406 5.304688 "/>
<path style=" stroke:none;fill-rule:nonzero;fill:rgb(63.084412%,35.693359%,48.631287%);fill-opacity:1;" d="M 124.441406 5.304688 L 96.34375 19.828125 L 130.597656 43.066406 "/>
<path style=" stroke:none;fill-rule:nonzero;fill:rgb(63.084412%,35.693359%,48.631287%);fill-opacity:1;" d="M 96.34375 19.828125 L 130.597656 43.066406 "/>
<path style=" stroke:none;fill-rule:nonzero;fill:rgb(83.984375%,96.484375%,88.28125%);fill-opacity:1;" d="M 96.34375 19.828125 L 130.597656 43.066406 L 96.34375 19.828125 "/>
<path style=" stroke:none;fill-rule:nonzero;fill:rgb(76.5625%,68.943787%,78.125%);fill-opacity:1;" d="M 88.5625 33.085938 L 133.128906 39.121094 L 88.5625 33.085938 "/>
<path style=" stroke:none;fill-rule:nonzero;fill:rgb(0%,41.967773%,85.546875%);fill-opacity:1;" d="M 96.34375 19.828125 L 88.5625 33.085938 L 96.34375 19.828125 "/>
<path style=" stroke:none;fill-rule:nonzero;fill:rgb(83.984375%,96.484375%,88.28125%);fill-opacity:1;" d="M 88.566406 33.082031 L 96.34375 19.828125 L 88.5625 33.085938 "/>
<path style=" stroke:none;fill-rule:nonzero;fill:rgb(83.984375%,96.484375%,88.28125%);fill-opacity:1;" d="M 96.34375 19.828125 L 88.5625 33.085938 "/>
<path style=" stroke:none;fill-rule:nonzero;fill:rgb(0%,41.967773%,85.546875%);fill-opacity:1;" d="M 124.441406 5.304688 L 88.5625 33.085938 L 96.34375 19.828125 "/>
<path style=" stroke:none;fill-rule:nonzero;fill:rgb(0%,41.967773%,85.546875%);fill-opacity:1;" d="M 124.441406 5.304688 L 96.34375 19.828125 "/>
<path style=" stroke:none;fill-rule:nonzero;fill:rgb(63.084412%,35.693359%,48.631287%);fill-opacity:1;" d="M 96.34375 19.828125 L 63.917969 36.585938 L 96.34375 19.828125 "/>
<path style=" stroke:none;fill-rule:nonzero;fill:rgb(63.084412%,35.693359%,48.631287%);fill-opacity:1;" d="M 67.480469 0.246094 L 63.917969 36.585938 L 96.34375 19.828125 "/>
<path style=" stroke:none;fill-rule:nonzero;fill:rgb(94.921875%,61.131287%,34.910583%);fill-opacity:1;" d="M 67.480469 0.246094 L 49.78125 31.097656 L 63.917969 36.585938 "/>
<path style=" stroke:none;fill-rule:nonzero;fill:rgb(56.443787%,55.271912%,79.6875%);fill-opacity:1;" d="M 67.480469 0.246094 L 88.5625 33.085938 L 49.78125 31.097656 "/>
<path style=" stroke:none;fill-rule:nonzero;fill:rgb(79.296875%,57.617188%,61.131287%);fill-opacity:1;" d="M 20.367188 29.589844 L 29.15625 60.65625 L 63.917969 36.585938 "/>
<path style=" stroke:none;fill-rule:nonzero;fill:rgb(94.921875%,61.131287%,34.910583%);fill-opacity:1;" d="M 36.875 26.085938 L 49.78125 31.097656 "/>
<path style=" stroke:none;fill-rule:nonzero;fill:rgb(35.693359%,21.556091%,21.556091%);fill-opacity:1;" d="M 20.367188 29.589844 L 63.917969 36.585938 "/>
<path style=" stroke:none;fill-rule:nonzero;fill:rgb(35.693359%,21.556091%,21.556091%);fill-opacity:1;" d="M 20.367188 29.589844 L 63.917969 36.585938 L 49.78125 31.097656 "/>
<path style=" stroke:none;fill-rule:nonzero;fill:rgb(35.693359%,21.556091%,21.556091%);fill-opacity:1;" d="M 49.78125 31.097656 L 63.917969 36.585938 L 49.78125 31.097656 "/>
<g clip-path="url(#clip5)" clip-rule="nonzero">
<path style=" stroke:none;fill-rule:nonzero;fill:rgb(0%,41.967773%,85.546875%);fill-opacity:1;" d="M 0.503906 80.492188 L 29.15625 60.65625 L 27.449219 70.015625 "/>
</g>
<path style=" stroke:none;fill-rule:nonzero;fill:rgb(86.326599%,82.8125%,35.693359%);fill-opacity:1;" d="M 20.367188 29.589844 L 27.449219 70.015625 L 29.15625 60.65625 "/>
<path style=" stroke:none;fill-rule:nonzero;fill:rgb(56.443787%,55.271912%,79.6875%);fill-opacity:1;" d="M 20.367188 29.589844 L 49.78125 31.097656 L 27.449219 70.015625 "/>
<path style=" stroke:none;fill-rule:nonzero;fill:rgb(94.921875%,61.131287%,34.910583%);fill-opacity:1;" d="M 36.875 26.085938 L 27.449219 70.015625 L 49.78125 31.097656 "/>
<path style=" stroke:none;fill-rule:nonzero;fill:rgb(94.921875%,61.131287%,34.910583%);fill-opacity:1;" d="M 36.875 26.085938 L 49.78125 31.097656 "/>
<path style=" stroke:none;fill-rule:nonzero;fill:rgb(35.693359%,21.556091%,21.556091%);fill-opacity:1;" d="M 36.875 26.085938 L 49.78125 31.097656 L 88.5625 33.085938 "/>
<path style=" stroke:none;fill-rule:nonzero;fill:rgb(76.5625%,68.943787%,78.125%);fill-opacity:1;" d="M 54.417969 59.527344 L 58.652344 56.246094 L 54.417969 59.527344 "/>
<path style=" stroke:none;fill-rule:nonzero;fill:rgb(76.5625%,68.943787%,78.125%);fill-opacity:1;" d="M 58.652344 56.246094 L 88.527344 33.113281 L 54.417969 59.527344 "/>
<path style=" stroke:none;fill-rule:nonzero;fill:rgb(76.5625%,68.943787%,78.125%);fill-opacity:1;" d="M 58.652344 56.246094 L 88.5625 33.085938 L 88.527344 33.113281 "/>
<path style=" stroke:none;fill-rule:nonzero;fill:rgb(0%,41.967773%,85.546875%);fill-opacity:1;" d="M 54.421875 59.523438 L 54.417969 59.527344 L 88.5625 33.085938 "/>
<path style=" stroke:none;fill-rule:nonzero;fill:rgb(35.693359%,21.556091%,21.556091%);fill-opacity:1;" d="M 49.78125 31.097656 L 88.5625 33.085938 "/>
<path style=" stroke:none;fill-rule:nonzero;fill:rgb(56.443787%,55.271912%,79.6875%);fill-opacity:1;" d="M 49.78125 31.097656 L 88.5625 33.085938 L 49.78125 31.097656 "/>
<path style=" stroke:none;fill-rule:nonzero;fill:rgb(76.5625%,68.943787%,78.125%);fill-opacity:1;" d="M 36.875 26.085938 L 88.5625 33.085938 L 55.371094 58.789062 "/>
<path style=" stroke:none;fill-rule:nonzero;fill:rgb(0%,41.967773%,85.546875%);fill-opacity:1;" d="M 88.394531 33.371094 L 54.421875 59.523438 L 88.5625 33.085938 "/>
<path style=" stroke:none;fill-rule:nonzero;fill:rgb(83.984375%,96.484375%,88.28125%);fill-opacity:1;" d="M 78.558594 50.136719 L 88.5625 33.085938 L 109.144531 65.148438 "/>
<path style=" stroke:none;fill-rule:nonzero;fill:rgb(83.984375%,96.484375%,88.28125%);fill-opacity:1;" d="M 127.144531 93.1875 L 109.144531 65.148438 L 144.238281 82.371094 "/>
<path style=" stroke:none;fill-rule:nonzero;fill:rgb(83.984375%,96.484375%,88.28125%);fill-opacity:1;" d="M 109.144531 65.148438 L 144.238281 82.371094 "/>
<g clip-path="url(#clip6)" clip-rule="nonzero">
<path style=" stroke:none;fill-rule:nonzero;fill:rgb(26.268005%,53.709412%,92.1875%);fill-opacity:1;" d="M 73.710938 178.554688 L 115.234375 147.992188 L 80.765625 160.523438 "/>
</g>
<g clip-path="url(#clip7)" clip-rule="nonzero">
<path style=" stroke:none;fill-rule:nonzero;fill:rgb(80.859375%,57.617188%,58.789062%);fill-opacity:1;" d="M 73.710938 178.554688 L 74.972656 145.226562 L 115.234375 147.992188 "/>
</g>
<g clip-path="url(#clip8)" clip-rule="nonzero">
<path style=" stroke:none;fill-rule:nonzero;fill:rgb(41.967773%,27.43988%,57.617188%);fill-opacity:1;" d="M 73.710938 178.554688 L 44.476562 139.398438 L 74.972656 145.226562 "/>
</g>
<path style=" stroke:none;fill-rule:nonzero;fill:rgb(80.859375%,57.617188%,58.789062%);fill-opacity:1;" d="M 40.214844 142.84375 L 74.972656 145.226562 "/>
<path style=" stroke:none;fill-rule:nonzero;fill:rgb(23.535156%,75.389099%,84.764099%);fill-opacity:1;" d="M 102.105469 150.417969 L 115.234375 147.992188 L 74.972656 145.226562 "/>
<path style=" stroke:none;fill-rule:nonzero;fill:rgb(41.967773%,27.43988%,57.617188%);fill-opacity:1;" d="M 74.972656 145.226562 L 44.476562 139.398438 L 74.972656 145.226562 "/>
<path style=" stroke:none;fill-rule:nonzero;fill:rgb(23.535156%,75.389099%,84.764099%);fill-opacity:1;" d="M 40.214844 142.84375 L 74.972656 145.226562 L 44.476562 139.398438 "/>
<path style=" stroke:none;fill-rule:nonzero;fill:rgb(80.859375%,57.617188%,58.789062%);fill-opacity:1;" d="M 74.972656 145.226562 L 76.609375 101.820312 L 74.972656 145.226562 "/>
<path style=" stroke:none;fill-rule:nonzero;fill:rgb(91.796875%,53.318787%,12.156677%);fill-opacity:1;" d="M 102.105469 150.417969 L 121.523438 119.054688 L 115.234375 147.992188 "/>
<path style=" stroke:none;fill-rule:nonzero;fill:rgb(41.967773%,27.43988%,57.617188%);fill-opacity:1;" d="M 102.105469 150.417969 L 74.972656 145.226562 L 76.609375 101.820312 "/>
<path style=" stroke:none;fill-rule:nonzero;fill:rgb(41.967773%,27.43988%,57.617188%);fill-opacity:1;" d="M 102.105469 150.417969 L 76.609375 101.820312 "/>
<path style=" stroke:none;fill-rule:nonzero;fill:rgb(76.5625%,68.943787%,78.125%);fill-opacity:1;" d="M 102.105469 150.417969 L 76.609375 101.820312 L 121.523438 119.054688 "/>
<path style=" stroke:none;fill-rule:nonzero;fill:rgb(41.967773%,27.43988%,57.617188%);fill-opacity:1;" d="M 102.105469 150.417969 L 76.609375 101.820312 "/>
<path style=" stroke:none;fill-rule:nonzero;fill:rgb(76.5625%,68.943787%,78.125%);fill-opacity:1;" d="M 102.105469 150.417969 L 121.523438 119.054688 "/>
<path style=" stroke:none;fill-rule:nonzero;fill:rgb(41.967773%,27.43988%,57.617188%);fill-opacity:1;" d="M 74.972656 145.226562 L 76.609375 101.820312 "/>
<path style=" stroke:none;fill-rule:nonzero;fill:rgb(80.859375%,57.617188%,58.789062%);fill-opacity:1;" d="M 40.214844 142.84375 L 76.609375 101.820312 L 74.972656 145.226562 "/>
<path style=" stroke:none;fill-rule:nonzero;fill:rgb(80.859375%,57.617188%,58.789062%);fill-opacity:1;" d="M 40.214844 142.84375 L 74.972656 145.226562 "/>
<path style=" stroke:none;fill-rule:nonzero;fill:rgb(23.535156%,75.389099%,84.764099%);fill-opacity:1;" d="M 102.105469 150.417969 L 74.972656 145.226562 "/>
<path style=" stroke:none;fill-rule:nonzero;fill:rgb(23.535156%,75.389099%,84.764099%);fill-opacity:1;" d="M 102.105469 150.417969 L 74.972656 145.226562 "/>
<path style=" stroke:none;fill-rule:nonzero;fill:rgb(91.796875%,53.318787%,12.156677%);fill-opacity:1;" d="M 121.523438 119.054688 L 144.238281 82.371094 L 121.523438 119.054688 "/>
<path style=" stroke:none;fill-rule:nonzero;fill:rgb(91.796875%,53.318787%,12.156677%);fill-opacity:1;" d="M 127.144531 93.1875 L 144.238281 82.371094 L 121.523438 119.054688 "/>
<path style=" stroke:none;fill-rule:nonzero;fill:rgb(56.443787%,55.271912%,79.6875%);fill-opacity:1;" d="M 127.144531 93.1875 L 76.609375 101.820312 L 109.144531 65.148438 "/>
<path style=" stroke:none;fill-rule:nonzero;fill:rgb(76.5625%,68.943787%,78.125%);fill-opacity:1;" d="M 124.441406 5.304688 L 133.128906 39.121094 L 88.5625 33.085938 "/>
<path style=" stroke:none;fill-rule:nonzero;fill:rgb(26.660156%,26.660156%,28.24707%);fill-opacity:1;" d="M 135.457031 35.492188 L 133.128906 39.121094 "/>
<path style=" stroke:none;fill-rule:nonzero;fill:rgb(26.660156%,26.660156%,28.24707%);fill-opacity:1;" d="M 135.457031 35.492188 L 133.128906 39.121094 L 135.457031 35.492188 "/>
<path style=" stroke:none;fill-rule:nonzero;fill:rgb(35.693359%,21.556091%,21.556091%);fill-opacity:1;" d="M 135.457031 35.492188 L 88.5625 33.085938 L 133.128906 39.121094 "/>
<path style=" stroke:none;fill-rule:nonzero;fill:rgb(56.443787%,55.271912%,79.6875%);fill-opacity:1;" d="M 135.457031 35.492188 L 88.5625 33.085938 "/>
<path style=" stroke:none;fill-rule:nonzero;fill:rgb(35.693359%,21.556091%,21.556091%);fill-opacity:1;" d="M 135.457031 35.492188 L 88.5625 33.085938 L 135.457031 35.492188 "/>
<path style=" stroke:none;fill-rule:nonzero;fill:rgb(56.443787%,55.271912%,79.6875%);fill-opacity:1;" d="M 135.457031 35.492188 L 135.261719 35.71875 L 88.5625 33.085938 "/>
<path style=" stroke:none;fill-rule:nonzero;fill:rgb(35.693359%,21.556091%,21.556091%);fill-opacity:1;" d="M 135.457031 35.492188 L 133.128906 39.121094 "/>
<path style=" stroke:none;fill-rule:nonzero;fill:rgb(80.859375%,57.617188%,58.789062%);fill-opacity:1;" d="M 135.457031 35.492188 L 144.238281 82.371094 L 135.457031 35.492188 "/>
<path style=" stroke:none;fill-rule:nonzero;fill:rgb(35.693359%,21.556091%,21.556091%);fill-opacity:1;" d="M 135.457031 35.492188 L 133.128906 39.121094 "/>
<path style=" stroke:none;fill-rule:nonzero;fill:rgb(26.660156%,26.660156%,28.24707%);fill-opacity:1;" d="M 135.457031 35.492188 L 133.128906 39.121094 L 144.238281 82.371094 "/>
<path style=" stroke:none;fill-rule:nonzero;fill:rgb(80.859375%,57.617188%,58.789062%);fill-opacity:1;" d="M 135.457031 35.492188 L 144.238281 82.371094 L 109.144531 65.148438 "/>
<path style=" stroke:none;fill-rule:nonzero;fill:rgb(56.443787%,55.271912%,79.6875%);fill-opacity:1;" d="M 135.261719 35.71875 L 109.144531 65.148438 "/>
<path style=" stroke:none;fill-rule:nonzero;fill:rgb(56.443787%,55.271912%,79.6875%);fill-opacity:1;" d="M 135.261719 35.71875 L 109.144531 65.148438 L 88.5625 33.085938 "/>
<path style=" stroke:none;fill-rule:nonzero;fill:rgb(80.859375%,57.617188%,58.789062%);fill-opacity:1;" d="M 135.457031 35.492188 L 109.144531 65.148438 "/>
<path style=" stroke:none;fill-rule:nonzero;fill:rgb(80.859375%,57.617188%,58.789062%);fill-opacity:1;" d="M 135.457031 35.492188 L 109.144531 65.148438 "/>
<path style=" stroke:none;fill-rule:nonzero;fill:rgb(26.660156%,26.660156%,28.24707%);fill-opacity:1;" d="M 135.457031 35.492188 L 144.238281 82.371094 "/>
<path style=" stroke:none;fill-rule:nonzero;fill:rgb(56.443787%,55.271912%,79.6875%);fill-opacity:1;" d="M 127.144531 93.1875 L 109.144531 65.148438 "/>
<g clip-path="url(#clip9)" clip-rule="nonzero">
<path style=" stroke:none;fill-rule:nonzero;fill:rgb(26.268005%,53.709412%,92.1875%);fill-opacity:1;" d="M 180.320312 100.078125 L 145.347656 108.734375 L 151.527344 121.273438 "/>
</g>
<path style=" stroke:none;fill-rule:nonzero;fill:rgb(59.179688%,55.664062%,78.514099%);fill-opacity:1;" d="M 157.066406 150.859375 L 145.347656 108.734375 L 125.394531 146.109375 "/>
<g clip-path="url(#clip10)" clip-rule="nonzero">
<path style=" stroke:none;fill-rule:nonzero;fill:rgb(48.242188%,34.104919%,61.131287%);fill-opacity:1;" d="M 180.320312 100.078125 L 157.535156 73.957031 L 145.347656 108.734375 "/>
</g>
<path style=" stroke:none;fill-rule:nonzero;fill:rgb(26.660156%,26.660156%,28.24707%);fill-opacity:1;" d="M 157.066406 150.859375 L 151.527344 121.273438 L 145.347656 108.734375 "/>
<path style=" stroke:none;fill-rule:nonzero;fill:rgb(80.859375%,57.617188%,58.789062%);fill-opacity:1;" d="M 157.066406 150.859375 L 115.234375 147.992188 L 151.527344 121.273438 "/>
<g clip-path="url(#clip11)" clip-rule="nonzero">
<path style=" stroke:none;fill-rule:nonzero;fill:rgb(80.859375%,57.617188%,58.789062%);fill-opacity:1;" d="M 180.320312 100.078125 L 151.527344 121.273438 L 144.238281 82.371094 "/>
</g>
<path style=" stroke:none;fill-rule:nonzero;fill:rgb(26.660156%,26.660156%,28.24707%);fill-opacity:1;" d="M 151.527344 121.273438 L 144.238281 82.371094 L 151.527344 121.273438 "/>
<path style=" stroke:none;fill-rule:nonzero;fill:rgb(80.859375%,57.617188%,58.789062%);fill-opacity:1;" d="M 151.527344 121.273438 L 144.238281 82.371094 "/>
<path style=" stroke:none;fill-rule:nonzero;fill:rgb(26.268005%,53.709412%,92.1875%);fill-opacity:1;" d="M 157.175781 132.734375 L 151.527344 121.273438 L 115.234375 147.992188 "/>
<path style=" stroke:none;fill-rule:nonzero;fill:rgb(26.660156%,26.660156%,28.24707%);fill-opacity:1;" d="M 157.175781 132.734375 L 144.238281 82.371094 L 151.527344 121.273438 "/>
<path style=" stroke:none;fill-rule:nonzero;fill:rgb(76.5625%,68.943787%,78.125%);fill-opacity:1;" d="M 157.175781 132.734375 L 121.523438 119.054688 L 144.238281 82.371094 "/>
<path style=" stroke:none;fill-rule:nonzero;fill:rgb(60.351562%,29.417419%,41.967773%);fill-opacity:1;" d="M 127.144531 93.1875 L 121.523438 119.054688 L 76.613281 101.824219 "/>
<path style=" stroke:none;fill-rule:nonzero;fill:rgb(76.5625%,68.943787%,78.125%);fill-opacity:1;" d="M 102.105469 150.417969 L 121.523438 119.054688 "/>
<path style=" stroke:none;fill-rule:nonzero;fill:rgb(56.443787%,55.271912%,79.6875%);fill-opacity:1;" d="M 127.144531 93.1875 L 109.144531 65.148438 "/>
<path style=" stroke:none;fill-rule:nonzero;fill:rgb(83.984375%,96.484375%,88.28125%);fill-opacity:1;" d="M 127.144531 93.1875 L 109.144531 65.148438 "/>
<path style=" stroke:none;fill-rule:nonzero;fill:rgb(83.984375%,96.484375%,88.28125%);fill-opacity:1;" d="M 127.144531 93.1875 L 109.144531 65.148438 L 127.144531 93.1875 "/>
<path style=" stroke:none;fill-rule:nonzero;fill:rgb(41.967773%,27.43988%,57.617188%);fill-opacity:1;" d="M 54.417969 59.527344 L 76.609375 101.820312 L 54.417969 59.527344 "/>
<path style=" stroke:none;fill-rule:nonzero;fill:rgb(76.5625%,68.943787%,78.125%);fill-opacity:1;" d="M 25.25 82.113281 L 54.417969 59.527344 L 76.609375 101.820312 "/>
<path style=" stroke:none;fill-rule:nonzero;fill:rgb(76.5625%,68.943787%,78.125%);fill-opacity:1;" d="M 54.417969 59.527344 L 76.609375 101.820312 "/>
<path style=" stroke:none;fill-rule:nonzero;fill:rgb(41.967773%,27.43988%,57.617188%);fill-opacity:1;" d="M 78.558594 50.136719 L 76.609375 101.820312 L 54.417969 59.527344 "/>
<path style=" stroke:none;fill-rule:nonzero;fill:rgb(80.859375%,57.617188%,58.789062%);fill-opacity:1;" d="M 78.558594 50.136719 L 95.136719 58.273438 L 76.609375 101.820312 "/>
<path style=" stroke:none;fill-rule:nonzero;fill:rgb(41.967773%,27.43988%,57.617188%);fill-opacity:1;" d="M 78.558594 50.136719 L 76.609375 101.820312 L 78.558594 50.136719 "/>
<path style=" stroke:none;fill-rule:nonzero;fill:rgb(80.859375%,57.617188%,58.789062%);fill-opacity:1;" d="M 78.558594 50.136719 L 76.609375 101.820312 "/>
<path style=" stroke:none;fill-rule:nonzero;fill:rgb(80.859375%,57.617188%,58.789062%);fill-opacity:1;" d="M 95.136719 58.273438 L 109.144531 65.148438 "/>
<path style=" stroke:none;fill-rule:nonzero;fill:rgb(80.859375%,57.617188%,58.789062%);fill-opacity:1;" d="M 95.136719 58.273438 L 109.144531 65.148438 L 76.609375 101.820312 "/>
<path style=" stroke:none;fill-rule:nonzero;fill:rgb(0%,41.967773%,85.546875%);fill-opacity:1;" d="M 78.558594 50.136719 L 88.394531 33.371094 "/>
<path style=" stroke:none;fill-rule:nonzero;fill:rgb(0%,41.967773%,85.546875%);fill-opacity:1;" d="M 78.558594 50.136719 L 54.417969 59.527344 L 88.394531 33.371094 "/>
<path style=" stroke:none;fill-rule:nonzero;fill:rgb(83.984375%,96.484375%,88.28125%);fill-opacity:1;" d="M 78.558594 50.136719 L 88.554688 33.101562 L 78.558594 50.136719 "/>
<path style=" stroke:none;fill-rule:nonzero;fill:rgb(83.984375%,96.484375%,88.28125%);fill-opacity:1;" d="M 88.554688 33.101562 L 88.5625 33.085938 L 78.558594 50.136719 "/>
<path style=" stroke:none;fill-rule:nonzero;fill:rgb(0%,41.967773%,85.546875%);fill-opacity:1;" d="M 78.558594 50.136719 L 88.394531 33.371094 "/>
<path style=" stroke:none;fill-rule:nonzero;fill:rgb(83.984375%,96.484375%,88.28125%);fill-opacity:1;" d="M 78.558594 50.136719 L 88.5625 33.085938 L 88.554688 33.101562 "/>
<path style=" stroke:none;fill-rule:nonzero;fill:rgb(0%,41.967773%,85.546875%);fill-opacity:1;" d="M 78.558594 50.136719 L 54.417969 59.527344 L 78.558594 50.136719 "/>
<path style=" stroke:none;fill-rule:nonzero;fill:rgb(76.5625%,68.943787%,78.125%);fill-opacity:1;" d="M 88.5625 33.085938 L 54.417969 59.527344 "/>
<path style=" stroke:none;fill-rule:nonzero;fill:rgb(0%,41.967773%,85.546875%);fill-opacity:1;" d="M 78.558594 50.136719 L 54.417969 59.527344 "/>
<path style=" stroke:none;fill-rule:nonzero;fill:rgb(41.967773%,27.43988%,57.617188%);fill-opacity:1;" d="M 36.875 26.085938 L 54.417969 59.527344 L 27.449219 70.015625 "/>
<path style=" stroke:none;fill-rule:nonzero;fill:rgb(41.967773%,27.43988%,57.617188%);fill-opacity:1;" d="M 54.417969 59.527344 L 27.449219 70.015625 "/>
<path style=" stroke:none;fill-rule:nonzero;fill:rgb(83.984375%,96.484375%,88.28125%);fill-opacity:1;" d="M 67.480469 0.246094 L 96.34375 19.828125 L 88.5625 33.085938 "/>
<path style=" stroke:none;fill-rule:nonzero;fill:rgb(0%,41.967773%,85.546875%);fill-opacity:1;" d="M 124.441406 5.304688 L 96.34375 19.828125 "/>
<path style=" stroke:none;fill-rule:nonzero;fill:rgb(76.5625%,68.943787%,78.125%);fill-opacity:1;" d="M 124.441406 5.304688 L 88.5625 33.085938 "/>
<path style=" stroke:none;fill-rule:nonzero;fill:rgb(0%,41.967773%,85.546875%);fill-opacity:1;" d="M 124.441406 5.304688 L 88.5625 33.085938 L 124.441406 5.304688 "/>
<g clip-path="url(#clip12)" clip-rule="nonzero">
<path style="fill:none;stroke-width:5.00001;stroke-linecap:round;stroke-linejoin:round;stroke:rgb(0%,0%,0%);stroke-opacity:1;stroke-miterlimit:10;" d="M 1020.483382 1691.235577 L 1060.773934 1645.066054 M 1020.483382 1691.235577 L 1020.483382 1691.235577 M 964.084448 1595.055602 L 1020.483382 1691.235577 M 1020.483382 1691.235577 L 1020.483382 1691.235577 M 922.422136 1623.313859 L 1020.483382 1691.235577 M 922.422136 1623.313859 L 1020.483382 1691.235577 M 964.084448 1595.055602 L 1020.483382 1691.235577 M 939.588733 1378.591869 L 939.588733 1378.591869 M 1617.708508 1006.492161 L 1674.577759 1113.019126 M 1674.577759 1113.019126 L 1674.577759 1113.019126 M 1613.906773 1154.171927 L 1674.577759 1113.019126 M 1674.577759 1113.019126 L 1674.577759 1113.019126 M 1674.577759 1113.019126 L 1674.577759 1113.019126 M 1617.708508 1006.492161 L 1674.577759 1113.019126 M 1674.577759 1113.019126 L 1674.577759 1113.019126 M 1674.577759 1113.019126 L 1674.577759 1113.019126 M 1613.906773 1154.171927 L 1674.577759 1113.019126 M 546.755853 88.431961 L 546.755853 88.431961 M 546.755853 88.431961 L 546.755853 88.431961 M 136.129285 454.221572 L 136.129285 454.221572 M 546.755853 88.431961 L 546.755853 88.431961 M 546.755853 88.431961 L 546.755853 88.431961 M 480.245088 1317.176212 L 486.594377 1321.565844 M 674.486309 1791.530832 L 674.486309 1791.530832 M 674.486309 1791.530832 L 674.486309 1791.530832 M 841.331522 1531.641095 L 841.331522 1531.641095 M 674.486309 1791.530832 L 674.486309 1791.530832 M 674.486309 1791.530832 L 674.486309 1791.530832 M 619.067203 1226.169732 L 619.067203 1226.169732 M 619.067203 1226.169732 L 619.067203 1226.169732 M 312.184887 1106.82661 L 332.839674 1033.692203 M 1533.247283 924.06898 L 1578.045046 1051.956208 M 1806.658654 789.871656 L 1806.658654 789.871656 M 1806.658654 789.871656 L 1806.658654 789.871656 M 1304.986413 420.593855 L 1369.223976 540.955999 M 1573.341869 280.360786 L 1573.341869 280.360786 M 1573.341869 280.360786 L 1573.341869 280.360786 M 1806.658654 789.871656 L 1806.658654 789.871656 M 1806.658654 789.871656 L 1806.658654 789.871656 M 1249.214569 651.911789 L 1249.214569 651.911789 M 1160.83403 342.24676 L 1192.149352 337.543583 M 1573.341869 280.360786 L 1573.341869 280.360786 M 136.129285 454.221572 L 393.157922 405.07337 M 136.129285 454.221572 L 136.129285 454.221572 M 136.129285 454.221572 L 136.129285 454.221572 M 136.129285 454.221572 L 159.057274 561.140468 M 136.129285 454.221572 L 136.129285 454.221572 M 136.364444 454.182379 L 393.157922 405.07337 M 136.129285 454.221572 L 136.129285 454.221572 M 136.129285 454.221572 L 136.129285 454.221572 M 546.755853 88.431961 L 645.914507 124.528846 M 546.755853 88.431961 L 546.755853 88.431961 M 456.611622 356.944189 L 546.755853 88.431961 M 546.755853 88.431961 L 546.755853 88.431961 M 546.755853 88.431961 L 546.755853 88.431961 M 456.611622 356.944189 L 546.755853 88.431961 M 546.755853 88.431961 L 546.755853 88.431961 M 2.480665 986.386079 L 260.018813 1164.714883 M 312.184887 1106.82661 L 332.839674 1033.692203 M 1090.52153 18.746551 L 1090.52153 18.746551 M 1090.52153 18.746551 L 1090.52153 18.746551 M 1573.341869 280.360786 L 1573.341869 280.360786 M 1573.341869 280.360786 L 1573.341869 280.360786 M 1573.341869 280.360786 L 1573.341869 280.360786 M 1573.341869 280.360786 L 1573.341869 280.360786 M 1573.341869 280.360786 L 1573.341869 280.360786 M 1090.52153 18.746551 L 1090.52153 18.746551 M 1090.52153 18.746551 L 1090.52153 18.746551 M 1090.52153 18.746551 L 1242.277383 303.053616 M 1530.582149 1106.356292 L 1530.582149 1106.356292 M 1578.045046 1051.956208 L 1578.045046 1051.956208 M 1683.944921 1353.978574 L 1683.944921 1353.978574 M 1683.944921 1353.978574 L 1683.944921 1353.978574 M 1683.944921 1353.978574 L 1683.944921 1353.978574 M 1246.000732 1740.775711 L 1246.000732 1740.775711 M 1246.000732 1740.775711 L 1246.000732 1740.775711 M 1246.000732 1740.775711 L 1246.000732 1740.775711 M 1246.000732 1740.775711 L 1246.000732 1740.775711 M 1246.000732 1740.775711 L 1246.000732 1740.775711 M 1683.944921 1353.978574 L 1683.944921 1353.978574 M 1683.944921 1353.978574 L 1683.944921 1353.978574 M 1683.944921 1353.978574 L 1683.944921 1353.978574 M 1530.582149 1106.356292 L 1530.582149 1106.356292 M 1578.045046 1051.956208 L 1578.045046 1051.956208 M 2.480665 986.386079 L 121.275084 827.301108 M 2.480665 986.386079 L 2.480665 986.386079 M 2.480665 986.386079 L 2.480665 986.386079 M 905.451505 126.488503 L 1090.52153 18.746551 M 1090.52153 18.746551 L 1153.622492 309.128554 M 1090.52153 18.746551 L 1090.52153 18.746551 M 905.451505 126.488503 L 1090.52153 18.746551 M 1090.52153 18.746551 L 1090.52153 18.746551 M 201.777801 1497.111936 L 358.158445 1489.116534 M 201.777801 1497.111936 L 201.777801 1497.111936 M 201.777801 1497.111936 L 201.777801 1497.111936 M 201.777801 1497.111936 L 358.158445 1489.116534 M 201.777801 1497.111936 L 201.777801 1497.111936 M 201.777801 1497.111936 L 201.777801 1497.111936 M 1246.000732 1740.775711 L 1246.000732 1740.775711 M 964.084448 1595.055602 L 1246.000732 1740.775711 M 1246.000732 1740.775711 L 1246.000732 1740.775711 M 1246.000732 1740.775711 L 1246.000732 1740.775711 M 964.084448 1595.055602 L 964.084448 1595.055602 M 886.011706 1462.034072 L 886.050899 1462.034072 M 1246.000732 1740.775711 L 1246.000732 1740.775711 M 1246.000732 1740.775711 L 1246.000732 1740.775711 M 674.486309 1791.530832 L 674.486309 1791.530832 M 674.486309 1791.530832 L 674.486309 1791.530832 M 674.486309 1791.530832 L 964.084448 1595.055602 M 964.084448 1595.055602 L 964.084448 1595.055602 M 16.276651 644.308319 L 16.276651 644.308319 M 16.276651 644.308319 L 16.276651 644.308319 M 230.545569 680.914716 L 230.545569 680.914716 M 16.276651 644.308319 L 16.276651 644.308319 M 16.276651 644.308319 L 16.276651 644.308319 M 1578.045046 1051.956208 L 1683.944921 1353.978574 M 1683.944921 1353.978574 L 1683.944921 1353.978574 M 1683.944921 1353.978574 L 1683.944921 1353.978574 M 1578.045046 1051.956208 L 1578.045046 1051.956208 " transform="matrix(0.0996667,0,0,-0.0996667,0.256667,178.802)"/>
</g>
<g clip-path="url(#clip13)" clip-rule="nonzero">
<path style=" stroke:none;fill-rule:nonzero;fill:rgb(83.984375%,96.484375%,88.28125%);fill-opacity:1;" d="M 180.320312 100.078125 L 144.238281 82.371094 L 157.535156 73.957031 "/>
</g>
<g clip-path="url(#clip14)" clip-rule="nonzero">
<path style="fill:none;stroke-width:5.00001;stroke-linecap:round;stroke-linejoin:round;stroke:rgb(0%,0%,0%);stroke-opacity:1;stroke-miterlimit:10;" d="M 1444.631584 967.534176 L 1578.045046 1051.956208 M 1578.045046 1051.956208 L 1806.658654 789.871656 M 1806.658654 789.871656 L 1806.658654 789.871656 M 1444.631584 967.534176 L 1578.045046 1051.956208 M 1578.045046 1051.956208 L 1578.045046 1051.956208 M 1578.045046 1051.956208 L 1578.045046 1051.956208 M 1533.247283 924.06898 L 1533.247283 924.06898 M 1578.045046 1051.956208 L 1578.045046 1051.956208 M 1806.658654 789.871656 L 1806.658654 789.871656 M 1578.045046 1051.956208 L 1806.658654 789.871656 M 1683.944921 1353.978574 L 1683.944921 1353.978574 M 1578.045046 1051.956208 L 1683.944921 1353.978574 M 736.999373 2.481396 L 736.999373 2.481396 M 736.999373 2.481396 L 736.999373 2.481396 M 736.999373 2.481396 L 736.999373 2.481396 M 745.229933 219.807379 L 745.229933 219.807379 M 736.999373 2.481396 L 736.999373 2.481396 M 1541.556229 450.263064 L 1573.341869 280.360786 M 1541.556229 450.263064 L 1573.341869 280.360786 M 1573.341869 280.360786 L 1573.341869 280.360786 M 514.343123 1512.358069 L 674.486309 1791.530832 M 674.486309 1791.530832 L 674.486309 1791.530832 M 514.343123 1512.358069 L 674.486309 1791.530832 M 674.486309 1791.530832 L 674.486309 1791.530832 M 886.011706 1462.034072 L 886.011706 1462.034072 M 674.486309 1791.530832 L 886.011706 1462.034072 M 674.486309 1791.530832 L 674.486309 1791.530832 M 674.486309 1791.530832 L 886.011706 1462.034072 M 1444.631584 967.534176 L 1806.658654 789.871656 M 1540.576401 594.023516 L 1806.658654 789.871656 M 1444.631584 967.534176 L 1806.658654 789.871656 M 1540.576401 594.023516 L 1806.658654 789.871656 M 473.229515 355.846781 L 736.999373 2.481396 M 341.501359 699.845004 L 341.501359 699.845004 M 341.932483 698.473244 L 440.385661 405.269335 M 473.229515 355.846781 L 736.999373 2.481396 M 16.276651 644.308319 L 389.277801 427.060723 M 16.276651 644.308319 L 389.277801 427.060723 M 425.021948 451.046927 L 440.385661 405.269335 M 341.501359 699.845004 L 425.021948 451.046927 M 367.408027 1532.268186 L 367.408027 1532.268186 M 367.408027 1532.268186 L 367.408027 1532.268186 M 367.408027 1532.268186 L 367.408027 1532.268186 M 443.011601 1388.154996 L 446.029473 1393.328491 M 367.408027 1532.268186 L 367.408027 1532.268186 M 367.408027 1532.268186 L 367.408027 1532.268186 M 367.408027 1532.268186 L 367.408027 1532.268186 M 443.011601 1388.154996 L 446.029473 1393.328491 M 886.011706 1462.034072 L 1246.000732 1740.775711 M 886.011706 1462.034072 L 886.011706 1462.034072 M 1246.000732 1740.775711 L 1246.000732 1740.775711 M 1246.000732 1740.775711 L 1246.000732 1740.775711 M 1246.000732 1740.775711 L 1323.407191 1439.576401 M 1246.000732 1740.775711 L 1246.000732 1740.775711 M 1246.000732 1740.775711 L 1246.000732 1740.775711 M 1246.000732 1740.775711 L 1323.407191 1439.576401 M 886.011706 1462.034072 L 1246.000732 1740.775711 M 1246.000732 1740.775711 L 1246.000732 1740.775711 M 1364.128867 1397.286998 L 1683.944921 1353.978574 M 1444.631584 967.534176 L 1683.944921 1353.978574 M 1683.944921 1353.978574 L 1683.944921 1353.978574 M 1444.788357 967.769335 L 1683.944921 1353.978574 M 1683.944921 1353.978574 L 1683.944921 1353.978574 M 1444.631584 967.534176 L 1444.788357 967.769335 M 1683.944921 1353.978574 L 1683.944921 1353.978574 M 1364.128867 1397.286998 L 1683.944921 1353.978574 M 16.276651 644.308319 L 16.276651 644.308319 M 341.501359 699.845004 L 341.501359 699.845004 M 367.408027 1532.268186 L 367.408027 1532.268186 M 16.276651 644.308319 L 16.276651 644.308319 M 16.276651 644.308319 L 16.276651 644.308319 " transform="matrix(0.0996667,0,0,-0.0996667,0.256667,178.802)"/>
</g>
<path style=" stroke:none;fill-rule:nonzero;fill:rgb(0%,41.967773%,85.546875%);fill-opacity:1;" d="M 25.25 82.113281 L 27.449219 70.015625 L 54.417969 59.527344 "/>
<g clip-path="url(#clip15)" clip-rule="nonzero">
<path style="fill:none;stroke-width:5.00001;stroke-linecap:round;stroke-linejoin:round;stroke:rgb(0%,0%,0%);stroke-opacity:1;stroke-miterlimit:10;" d="M 250.769231 970.120924 L 272.834971 1091.50209 M 272.834971 1091.50209 L 543.424436 1196.735681 M 272.834971 1091.50209 L 367.408027 1532.268186 M 543.424436 1196.735681 L 543.424436 1196.735681 M 272.834971 1091.50209 L 272.834971 1091.541283 M 272.834971 1091.541283 L 367.408027 1532.268186 M 288.943353 999.711747 L 288.943353 999.711747 M 250.769231 970.120924 L 272.834971 1091.50209 M 16.276651 644.308319 L 272.834971 1091.50209 M 288.943353 999.711747 L 288.943353 999.711747 M 272.834971 1091.50209 L 272.834971 1091.50209 M 201.777801 1497.111936 L 272.834971 1091.50209 M 2.480665 986.386079 L 272.834971 1091.50209 " transform="matrix(0.0996667,0,0,-0.0996667,0.256667,178.802)"/>
</g>
<path style=" stroke:none;fill-rule:nonzero;fill:rgb(60.351562%,29.417419%,41.967773%);fill-opacity:1;" d="M 157.175781 132.734375 L 115.234375 147.992188 L 121.523438 119.054688 "/>
<g clip-path="url(#clip16)" clip-rule="nonzero">
<path style="fill:none;stroke-width:5.00001;stroke-linecap:round;stroke-linejoin:round;stroke:rgb(0%,0%,0%);stroke-opacity:1;stroke-miterlimit:10;" d="M 1153.622492 309.128554 L 1574.439277 462.216973 M 1574.439277 462.216973 L 1574.439277 462.216973 M 1574.439277 462.216973 L 1574.439277 462.216973 M 1574.439277 462.216973 L 1574.439277 462.216973 M 1153.622492 309.128554 L 1216.723453 599.471363 M 1216.723453 599.471363 L 1216.723453 599.471363 M 1216.723453 599.471363 L 1216.723453 599.471363 M 1574.439277 462.216973 L 1574.439277 462.216973 M 1574.439277 462.216973 L 1574.439277 462.216973 M 1434.48056 515.91158 L 1434.48056 515.91158 M 1434.48056 515.91158 L 1434.48056 515.91158 M 1574.439277 462.216973 L 1574.439277 462.216973 M 1153.622492 309.128554 L 1573.341869 280.360786 M 1153.622492 309.128554 L 1573.341869 280.360786 M 1090.52153 18.746551 L 1153.622492 309.128554 M 1153.622492 309.128554 L 1153.622492 309.128554 M 736.999373 2.481396 L 736.999373 2.481396 M 736.999373 2.481396 L 1153.622492 309.128554 M 749.658758 336.877299 L 749.658758 336.877299 M 736.999373 2.481396 L 736.999373 2.481396 M 1021.894335 284.789611 L 1021.894335 284.789611 M 1021.894335 284.789611 L 1153.622492 309.128554 M 1021.894335 284.789611 L 1021.894335 284.789611 M 1021.894335 284.789611 L 1152.917015 309.050167 M 1152.917015 309.050167 L 1153.622492 309.128554 M 1153.622492 309.128554 L 1216.723453 599.471363 M 1356.525397 1437.891095 L 1356.525397 1437.891095 M 1356.525397 1437.891095 L 1356.525397 1437.891095 M 1356.525397 1437.891095 L 1356.525397 1437.891095 M 341.501359 699.845004 L 341.501359 699.845004 M 16.276651 644.308319 L 341.501359 699.845004 M 16.276651 644.308319 L 16.276651 644.308319 M 16.276651 644.308319 L 341.501359 699.845004 M 16.276651 644.308319 L 16.276651 644.308319 M 736.999373 2.481396 L 749.658758 336.877299 M 736.999373 2.481396 L 749.658758 336.877299 M 543.424436 1196.735681 L 543.424436 1196.735681 M 367.408027 1532.268186 L 886.011706 1462.034072 M 886.011706 1462.034072 L 1356.525397 1437.891095 M 886.011706 1462.034072 L 886.011706 1462.034072 M 1356.525397 1437.891095 L 1356.525397 1437.891095 M 1356.525397 1437.891095 L 1356.525397 1437.891095 M 1356.525397 1437.891095 L 1356.525397 1437.891095 M 1356.525397 1437.891095 L 1356.525397 1437.891095 M 1092.52038 1140.336747 L 1092.52038 1140.336747 M 886.795569 1460.819084 L 1092.52038 1140.336747 M 886.011706 1462.034072 L 886.795569 1460.819084 M 785.638064 1290.955999 L 785.638064 1290.955999 M 785.638064 1290.955999 L 885.619774 1461.367788 M 885.619774 1461.367788 L 886.011706 1462.034072 M 543.424436 1196.735681 L 543.424436 1196.735681 M 543.424436 1196.735681 L 552.987563 1204.143186 M 552.987563 1204.143186 L 552.987563 1204.143186 M 367.408027 1532.268186 L 367.408027 1532.268186 M 367.408027 1532.268186 L 367.408027 1532.268186 M 877.977111 1463.13148 L 886.011706 1462.034072 M 367.408027 1532.268186 L 877.977111 1463.13148 M 1356.525397 1437.891095 L 1356.525397 1437.891095 M 886.011706 1462.034072 L 1356.525397 1437.891095 M 1356.525397 1437.891095 L 1356.525397 1437.891095 M 1356.525397 1437.891095 L 1356.525397 1437.891095 M 886.011706 1462.034072 L 1092.52038 1140.336747 M 1216.723453 599.471363 L 1444.631584 967.534176 M 1273.122387 859.008361 L 1273.122387 859.008361 M 1273.122387 859.008361 L 1444.631584 967.534176 M 1092.52038 1140.336747 L 1092.52038 1140.336747 M 1092.52038 1140.336747 L 1444.474812 967.57337 M 1444.474812 967.57337 L 1444.631584 967.534176 M 1443.769335 972.198161 L 1444.631584 967.534176 M 1356.525397 1437.891095 L 1443.769335 972.198161 M 1356.525397 1437.891095 L 1356.525397 1437.891095 M 1356.525397 1437.891095 L 1444.631584 967.534176 M 1356.525397 1437.891095 L 1356.525397 1437.891095 M 1574.439277 462.216973 L 1574.439277 462.216973 M 1444.631584 967.534176 L 1574.439277 462.216973 M 1216.723453 599.471363 L 1444.631584 967.534176 M 1273.122387 859.008361 L 1273.122387 859.008361 M 1273.122387 859.008361 L 1444.631584 967.534176 M 1092.52038 1140.336747 L 1186.544732 1094.206417 M 1186.544732 1094.206417 L 1444.631584 967.534176 M 250.769231 970.120924 L 250.769231 970.120924 M 250.769231 970.120924 L 341.501359 699.845004 M 341.501359 699.845004 L 341.501359 699.845004 M 250.769231 970.120924 L 341.501359 699.845004 " transform="matrix(0.0996667,0,0,-0.0996667,0.256667,178.802)"/>
</g>
<path style=" stroke:none;fill-rule:nonzero;fill:rgb(56.443787%,55.271912%,79.6875%);fill-opacity:1;" d="M 40.214844 142.84375 L 34.292969 109.050781 L 76.609375 101.820312 "/>
<path style="fill:none;stroke-width:5.00001;stroke-linecap:round;stroke-linejoin:round;stroke:rgb(0%,0%,0%);stroke-opacity:1;stroke-miterlimit:10;" d="M 341.501359 699.845004 L 400.918165 360.785117 M 341.501359 699.845004 L 766.080686 772.391513 M 341.501359 699.845004 L 341.501359 699.845004 M 766.080686 772.391513 L 766.080686 772.391513 M 341.501359 699.845004 L 400.918165 360.785117 M 341.501359 699.845004 L 341.501359 699.845004 M 400.918165 360.785117 L 400.918165 360.785117 M 400.918165 360.785117 L 400.918165 360.785117 M 400.918165 360.785117 L 400.918165 360.785117 M 400.918165 360.785117 L 400.918165 360.785117 M 400.918165 360.785117 L 400.918165 360.82431 M 400.918165 360.785117 L 400.918165 360.785117 M 1021.894335 284.789611 L 1021.894335 284.789611 M 749.658758 336.877299 L 1021.894335 284.789611 M 1021.894335 284.789611 L 1021.894335 284.789611 M 749.658758 336.877299 L 1021.894335 284.789611 M 400.918165 360.785117 L 749.658758 336.877299 M 749.658758 336.877299 L 749.658758 336.877299 M 749.658758 336.877299 L 749.658758 336.877299 M 766.080686 772.391513 L 766.080686 772.391513 M 749.658758 336.877299 L 749.658758 336.877299 M 367.408027 1532.268186 L 543.424436 1196.735681 M 367.408027 1532.268186 L 543.424436 1196.735681 M 543.424436 1196.735681 L 543.424436 1196.735681 M 1481.002822 498.0787 L 1574.439277 462.216973 M 1216.723453 599.471363 L 1481.002822 498.0787 M 1216.723453 599.471363 L 1574.439277 462.216973 M 785.638064 1290.955999 L 785.638064 1290.955999 M 543.424436 1196.735681 L 785.638064 1290.955999 M 543.424436 1196.735681 L 543.424436 1196.735681 M 250.769231 970.120924 L 543.424436 1196.735681 M 785.638064 1290.955999 L 785.638064 1290.955999 M 543.424436 1196.735681 L 785.638064 1290.955999 M 543.424436 1196.735681 L 543.424436 1196.735681 M 543.424436 1196.735681 L 543.424436 1196.735681 M 766.080686 772.391513 L 766.080686 772.391513 M 250.769231 970.120924 L 250.769231 970.120924 M 250.769231 970.120924 L 543.424436 1196.735681 M 1021.894335 284.789611 L 1021.894335 284.789611 M 1273.122387 859.008361 L 1273.122387 859.008361 M 1273.122387 859.008361 L 1273.122387 859.008361 M 1021.894335 284.789611 L 1021.894335 284.789611 M 1021.894335 284.789611 L 1216.723453 599.471363 M 1216.723453 599.471363 L 1216.723453 599.471363 M 766.080686 772.391513 L 766.119879 772.35232 M 1216.723453 599.471363 L 1216.723453 599.471363 M 766.080686 772.391513 L 1216.723453 599.471363 M 1273.122387 859.008361 L 1273.122387 859.008361 M 1216.723453 599.471363 L 1273.122387 859.008361 M 1092.52038 1140.336747 L 1356.525397 1437.891095 M 1092.52038 1140.336747 L 1356.525397 1437.891095 M 1092.52038 1140.336747 L 1273.122387 859.008361 M 785.638064 1290.955999 L 785.638064 1290.955999 M 785.638064 1290.955999 L 785.638064 1290.955999 M 785.638064 1290.955999 L 1017.191158 1177.335075 M 1092.52038 1140.336747 L 1092.52038 1140.336747 M 766.080686 772.391513 L 1092.52038 1140.336747 M 785.638064 1290.955999 L 785.638064 1290.955999 M 785.638064 1290.955999 L 785.638064 1290.955999 M 785.638064 1290.955999 L 1092.52038 1140.336747 M 1273.122387 859.008361 L 1273.122387 859.008361 M 1092.52038 1140.336747 L 1273.122387 859.008361 M 1092.52038 1140.336747 L 1092.52038 1140.336747 M 766.080686 772.391513 L 1092.52038 1140.336747 M 250.769231 970.120924 L 766.080686 772.391513 M 766.080686 772.391513 L 766.080686 772.391513 M 1021.894335 284.789611 L 1021.894335 284.789611 M 811.583926 685.617893 L 1021.894335 284.789611 M 766.080686 772.35232 L 811.583926 685.617893 M 1273.122387 859.008361 L 1273.122387 859.008361 M 766.080686 772.391513 L 1273.122387 859.008361 M 250.769231 970.120924 L 250.769231 970.120924 M 785.638064 1290.955999 L 785.638064 1290.955999 M 766.080686 772.391513 L 785.638064 1290.955999 M 400.918165 360.785117 L 766.080686 772.391513 M 766.080686 772.391513 L 766.080686 772.391513 M 400.918165 360.785117 L 400.918165 360.785117 M 1021.894335 284.789611 L 1021.894335 284.789611 M 766.080686 772.391513 L 1021.894335 284.789611 M 785.638064 1290.955999 L 785.638064 1290.955999 M 766.080686 772.391513 L 785.638064 1290.955999 M 400.918165 360.785117 L 766.080686 772.391513 M 766.080686 772.391513 L 1273.044001 858.969168 " transform="matrix(0.0996667,0,0,-0.0996667,0.256667,178.802)"/>
</g>
</svg>
