<?xml version="1.0" encoding="UTF-8"?>
<svg xmlns="http://www.w3.org/2000/svg" xmlns:xlink="http://www.w3.org/1999/xlink" width="175.74pt" height="149.78pt" viewBox="0 0 175.74 149.78" version="1.2">
<defs>
<clipPath id="clip1">
  <path d="M 40 42 L 175.480469 42 L 175.480469 96 L 40 96 Z M 40 42 "/>
</clipPath>
<clipPath id="clip2">
  <path d="M 97 42 L 175.480469 42 L 175.480469 96 L 97 96 Z M 97 42 "/>
</clipPath>
<clipPath id="clip3">
  <path d="M 97 42 L 175.480469 42 L 175.480469 97 L 97 97 Z M 97 42 "/>
</clipPath>
<clipPath id="clip4">
  <path d="M 5 52 L 175.480469 52 L 175.480469 96 L 5 96 Z M 5 52 "/>
</clipPath>
<clipPath id="clip5">
  <path d="M 151 29 L 175.480469 29 L 175.480469 96 L 151 96 Z M 151 29 "/>
</clipPath>
<clipPath id="clip6">
  <path d="M 151 29 L 175.480469 29 L 175.480469 97 L 151 97 Z M 151 29 "/>
</clipPath>
<clipPath id="clip7">
  <path d="M 5 84 L 175.480469 84 L 175.480469 127 L 5 127 Z M 5 84 "/>
</clipPath>
<clipPath id="clip8">
  <path d="M 79 95 L 175.480469 95 L 175.480469 149.558594 L 79 149.558594 Z M 79 95 "/>
</clipPath>
<clipPath id="clip9">
  <path d="M 18 95 L 175.480469 95 L 175.480469 149.558594 L 18 149.558594 Z M 18 95 "/>
</clipPath>
<clipPath id="clip10">
  <path d="M 18 125 L 80 125 L 80 149.558594 L 18 149.558594 Z M 18 125 "/>
</clipPath>
<clipPath id="clip11">
  <path d="M 148 69 L 175.480469 69 L 175.480469 136 L 148 136 Z M 148 69 "/>
</clipPath>
<clipPath id="clip12">
  <path d="M 147 68 L 175.480469 68 L 175.480469 136 L 147 136 Z M 147 68 "/>
</clipPath>
<clipPath id="clip13">
  <path d="M 172 29 L 175.480469 29 L 175.480469 96 L 172 96 Z M 172 29 "/>
</clipPath>
<clipPath id="clip14">
  <path d="M 172 29 L 175.480469 29 L 175.480469 97 L 172 97 Z M 172 29 "/>
</clipPath>
<clipPath id="clip15">
  <path d="M 18 93 L 80 93 L 80 149.558594 L 18 149.558594 Z M 18 93 "/>
</clipPath>
<clipPath id="clip16">
  <path d="M 18 92 L 80 92 L 80 149.558594 L 18 149.558594 Z M 18 92 "/>
</clipPath>
<clipPath id="clip17">
  <path d="M 79 98 L 149 98 L 149 149.558594 L 79 149.558594 Z M 79 98 "/>
</clipPath>
<clipPath id="clip18">
  <path d="M 79 97 L 149 97 L 149 149.558594 L 79 149.558594 Z M 79 97 "/>
</clipPath>
<clipPath id="clip19">
  <path d="M 41 93 L 119 93 L 119 149.558594 L 41 149.558594 Z M 41 93 "/>
</clipPath>
<clipPath id="clip20">
  <path d="M 41 92 L 119 92 L 119 149.558594 L 41 149.558594 Z M 41 92 "/>
</clipPath>
</defs>
<g id="surface1">
<path style="fill-rule:nonzero;fill:rgb(74.85199%,47.83783%,58.731079%);fill-opacity:1;stroke-width:5;stroke-linecap:round;stroke-linejoin:round;stroke:rgb(13.729858%,12.159729%,12.548828%);stroke-opacity:1;stroke-miterlimit:10;" d="M 665.240554 1495.343388 L 401.061227 972.735416 L 975.855667 1068.541009 Z M 665.240554 1495.343388 " transform="matrix(0.0998523,0,0,-0.0998523,0,149.55953)"/>
<path style="fill-rule:nonzero;fill:rgb(56.689453%,33.250427%,60.935974%);fill-opacity:1;stroke-width:5;stroke-linecap:round;stroke-linejoin:round;stroke:rgb(13.729858%,12.159729%,12.548828%);stroke-opacity:1;stroke-miterlimit:10;" d="M 1285.649255 1462.677945 L 975.855667 1068.541009 L 1515.793929 905.996199 Z M 1285.649255 1462.677945 " transform="matrix(0.0998523,0,0,-0.0998523,0,149.55953)"/>
<path style="fill-rule:nonzero;fill:rgb(65.42511%,34.09729%,53.068542%);fill-opacity:1;stroke-width:5;stroke-linecap:round;stroke-linejoin:round;stroke:rgb(13.729858%,12.159729%,12.548828%);stroke-opacity:1;stroke-miterlimit:10;" d="M 1285.649255 1462.677945 L 665.240554 1495.343388 L 975.855667 1068.541009 Z M 1285.649255 1462.677945 " transform="matrix(0.0998523,0,0,-0.0998523,0,149.55953)"/>
<g clip-path="url(#clip1)" clip-rule="nonzero">
<path style=" stroke:none;fill-rule:nonzero;fill:rgb(68.360901%,73.706055%,89.868164%);fill-opacity:1;" d="M 97.441406 42.863281 L 40.046875 52.429688 L 175.230469 95.773438 "/>
</g>
<path style="fill:none;stroke-width:5;stroke-linecap:round;stroke-linejoin:round;stroke:rgb(13.729858%,12.159729%,12.548828%);stroke-opacity:1;stroke-miterlimit:10;" d="M 975.855667 1068.541009 L 401.061227 972.735416 " transform="matrix(0.0998523,0,0,-0.0998523,0,149.55953)"/>
<g clip-path="url(#clip2)" clip-rule="nonzero">
<path style=" stroke:none;fill-rule:nonzero;fill:rgb(68.360901%,73.706055%,89.868164%);fill-opacity:1;" d="M 175.230469 95.773438 L 151.355469 59.09375 L 97.441406 42.863281 "/>
</g>
<g clip-path="url(#clip3)" clip-rule="nonzero">
<path style="fill:none;stroke-width:5;stroke-linecap:round;stroke-linejoin:round;stroke:rgb(13.729858%,12.159729%,12.548828%);stroke-opacity:1;stroke-miterlimit:10;" d="M 1754.897149 538.656663 L 1515.793929 905.996199 L 975.855667 1068.541009 " transform="matrix(0.0998523,0,0,-0.0998523,0,149.55953)"/>
</g>
<path style="fill-rule:nonzero;fill:rgb(92.634583%,66.989136%,53.533936%);fill-opacity:1;stroke-width:5;stroke-linecap:round;stroke-linejoin:round;stroke:rgb(13.729858%,12.159729%,12.548828%);stroke-opacity:1;stroke-miterlimit:10;" d="M 145.410123 1287.888483 L 57.076505 648.27172 L 401.061227 972.735416 Z M 145.410123 1287.888483 " transform="matrix(0.0998523,0,0,-0.0998523,0,149.55953)"/>
<path style="fill-rule:nonzero;fill:rgb(84.114075%,49.676514%,47.229004%);fill-opacity:1;stroke-width:5;stroke-linecap:round;stroke-linejoin:round;stroke:rgb(13.729858%,12.159729%,12.548828%);stroke-opacity:1;stroke-miterlimit:10;" d="M 665.240554 1495.343388 L 145.410123 1287.888483 L 401.061227 972.735416 Z M 665.240554 1495.343388 " transform="matrix(0.0998523,0,0,-0.0998523,0,149.55953)"/>
<g clip-path="url(#clip4)" clip-rule="nonzero">
<path style=" stroke:none;fill-rule:nonzero;fill:rgb(68.360901%,73.706055%,89.868164%);fill-opacity:1;" d="M 40.046875 52.429688 L 5.699219 84.828125 L 175.230469 95.773438 "/>
</g>
<path style="fill:none;stroke-width:5;stroke-linecap:round;stroke-linejoin:round;stroke:rgb(13.729858%,12.159729%,12.548828%);stroke-opacity:1;stroke-miterlimit:10;" d="M 401.061227 972.735416 L 57.076505 648.27172 " transform="matrix(0.0998523,0,0,-0.0998523,0,149.55953)"/>
<g clip-path="url(#clip5)" clip-rule="nonzero">
<path style=" stroke:none;fill-rule:nonzero;fill:rgb(19.952393%,18.55011%,55.296326%);fill-opacity:1;" d="M 172.992188 29.800781 L 151.355469 59.09375 L 175.230469 95.773438 Z M 172.992188 29.800781 "/>
</g>
<g clip-path="url(#clip6)" clip-rule="nonzero">
<path style="fill:none;stroke-width:5;stroke-linecap:round;stroke-linejoin:round;stroke:rgb(13.729858%,12.159729%,12.548828%);stroke-opacity:1;stroke-miterlimit:10;" d="M 1732.481222 1199.359264 L 1515.793929 905.996199 L 1754.897149 538.656663 Z M 1732.481222 1199.359264 " transform="matrix(0.0998523,0,0,-0.0998523,0,149.55953)"/>
</g>
<path style="fill-rule:nonzero;fill:rgb(35.455322%,16.027832%,49.229431%);fill-opacity:1;stroke-width:5;stroke-linecap:round;stroke-linejoin:round;stroke:rgb(13.729858%,12.159729%,12.548828%);stroke-opacity:1;stroke-miterlimit:10;" d="M 1732.481222 1199.359264 L 1285.649255 1462.677945 L 1515.793929 905.996199 Z M 1732.481222 1199.359264 " transform="matrix(0.0998523,0,0,-0.0998523,0,149.55953)"/>
<g clip-path="url(#clip7)" clip-rule="nonzero">
<path style=" stroke:none;fill-rule:nonzero;fill:rgb(68.360901%,73.706055%,89.868164%);fill-opacity:1;" d="M 5.699219 84.828125 L 18.375 126.039062 L 175.230469 95.773438 "/>
</g>
<path style="fill:none;stroke-width:5;stroke-linecap:round;stroke-linejoin:round;stroke:rgb(13.729858%,12.159729%,12.548828%);stroke-opacity:1;stroke-miterlimit:10;" d="M 57.076505 648.27172 L 184.02185 235.552646 " transform="matrix(0.0998523,0,0,-0.0998523,0,149.55953)"/>
<path style=" stroke:none;fill-rule:nonzero;fill:rgb(67.216492%,76.040649%,91.134644%);fill-opacity:1;" d="M 66.425781 0.246094 L 128.375 3.507812 L 118.375 98.113281 "/>
<path style="fill:none;stroke-width:5;stroke-linecap:round;stroke-linejoin:round;stroke:rgb(13.729858%,12.159729%,12.548828%);stroke-opacity:1;stroke-miterlimit:10;" d="M 665.240554 1495.343388 L 1285.649255 1462.677945 " transform="matrix(0.0998523,0,0,-0.0998523,0,149.55953)"/>
<path style=" stroke:none;fill-rule:nonzero;fill:rgb(67.216492%,76.040649%,91.134644%);fill-opacity:1;" d="M 14.519531 20.960938 L 66.425781 0.246094 L 118.375 98.113281 "/>
<path style="fill:none;stroke-width:5;stroke-linecap:round;stroke-linejoin:round;stroke:rgb(13.729858%,12.159729%,12.548828%);stroke-opacity:1;stroke-miterlimit:10;" d="M 145.410123 1287.888483 L 665.240554 1495.343388 " transform="matrix(0.0998523,0,0,-0.0998523,0,149.55953)"/>
<path style=" stroke:none;fill-rule:nonzero;fill:rgb(67.216492%,76.040649%,91.134644%);fill-opacity:1;" d="M 128.375 3.507812 L 172.992188 29.800781 L 118.375 98.113281 "/>
<path style="fill:none;stroke-width:5;stroke-linecap:round;stroke-linejoin:round;stroke:rgb(13.729858%,12.159729%,12.548828%);stroke-opacity:1;stroke-miterlimit:10;" d="M 1285.649255 1462.677945 L 1732.481222 1199.359264 " transform="matrix(0.0998523,0,0,-0.0998523,0,149.55953)"/>
<path style="fill-rule:nonzero;fill:rgb(93.388367%,66.464233%,14.431763%);fill-opacity:1;stroke-width:5;stroke-linecap:round;stroke-linejoin:round;stroke:rgb(13.729858%,12.159729%,12.548828%);stroke-opacity:1;stroke-miterlimit:10;" d="M 145.410123 1287.888483 L 2.503699 911.277438 L 57.076505 648.27172 Z M 145.410123 1287.888483 " transform="matrix(0.0998523,0,0,-0.0998523,0,149.55953)"/>
<path style="fill-rule:nonzero;fill:rgb(6.30188%,5.761719%,5.056763%);fill-opacity:1;stroke-width:5;stroke-linecap:round;stroke-linejoin:round;stroke:rgb(13.729858%,12.159729%,12.548828%);stroke-opacity:1;stroke-miterlimit:10;" d="M 2.503699 911.277438 L 184.02185 235.552646 L 57.076505 648.27172 Z M 2.503699 911.277438 " transform="matrix(0.0998523,0,0,-0.0998523,0,149.55953)"/>
<path style=" stroke:none;fill-rule:nonzero;fill:rgb(67.216492%,76.040649%,91.134644%);fill-opacity:1;" d="M 0.25 58.566406 L 14.519531 20.960938 L 118.375 98.113281 "/>
<path style="fill:none;stroke-width:5;stroke-linecap:round;stroke-linejoin:round;stroke:rgb(13.729858%,12.159729%,12.548828%);stroke-opacity:1;stroke-miterlimit:10;" d="M 2.503699 911.277438 L 145.410123 1287.888483 " transform="matrix(0.0998523,0,0,-0.0998523,0,149.55953)"/>
<g clip-path="url(#clip8)" clip-rule="nonzero">
<path style="fill-rule:nonzero;fill:rgb(68.360901%,73.706055%,89.868164%);fill-opacity:1;stroke-width:5;stroke-linecap:round;stroke-linejoin:round;stroke:rgb(13.729858%,12.159729%,12.548828%);stroke-opacity:1;stroke-miterlimit:10;" d="M 796.997695 2.51307 L 1484.419455 144.402367 L 1754.897149 538.656663 " transform="matrix(0.0998523,0,0,-0.0998523,0,149.55953)"/>
</g>
<g clip-path="url(#clip9)" clip-rule="nonzero">
<path style=" stroke:none;fill-rule:nonzero;fill:rgb(68.360901%,73.706055%,89.868164%);fill-opacity:1;" d="M 18.375 126.039062 L 79.582031 149.308594 L 175.230469 95.773438 "/>
</g>
<g clip-path="url(#clip10)" clip-rule="nonzero">
<path style="fill:none;stroke-width:5;stroke-linecap:round;stroke-linejoin:round;stroke:rgb(13.729858%,12.159729%,12.548828%);stroke-opacity:1;stroke-miterlimit:10;" d="M 184.02185 235.552646 L 796.997695 2.51307 " transform="matrix(0.0998523,0,0,-0.0998523,0,149.55953)"/>
</g>
<g clip-path="url(#clip11)" clip-rule="nonzero">
<path style=" stroke:none;fill-rule:nonzero;fill:rgb(92.750549%,52.334595%,8.480835%);fill-opacity:1;" d="M 173.296875 69.128906 L 175.230469 95.773438 L 148.222656 135.140625 Z M 173.296875 69.128906 "/>
</g>
<g clip-path="url(#clip12)" clip-rule="nonzero">
<path style="fill:none;stroke-width:5;stroke-linecap:round;stroke-linejoin:round;stroke:rgb(13.729858%,12.159729%,12.548828%);stroke-opacity:1;stroke-miterlimit:10;" d="M 1735.532605 805.49617 L 1754.897149 538.656663 L 1484.419455 144.402367 Z M 1735.532605 805.49617 " transform="matrix(0.0998523,0,0,-0.0998523,0,149.55953)"/>
</g>
<g clip-path="url(#clip13)" clip-rule="nonzero">
<path style=" stroke:none;fill-rule:nonzero;fill:rgb(71.168518%,62.368774%,10.949707%);fill-opacity:1;" d="M 173.296875 69.128906 L 172.992188 29.800781 L 175.230469 95.773438 Z M 173.296875 69.128906 "/>
</g>
<g clip-path="url(#clip14)" clip-rule="nonzero">
<path style="fill:none;stroke-width:5;stroke-linecap:round;stroke-linejoin:round;stroke:rgb(13.729858%,12.159729%,12.548828%);stroke-opacity:1;stroke-miterlimit:10;" d="M 1735.532605 805.49617 L 1732.481222 1199.359264 L 1754.897149 538.656663 Z M 1735.532605 805.49617 " transform="matrix(0.0998523,0,0,-0.0998523,0,149.55953)"/>
</g>
<path style="fill-rule:nonzero;fill:rgb(67.216492%,76.040649%,91.134644%);fill-opacity:1;stroke-width:5;stroke-linecap:round;stroke-linejoin:round;stroke:rgb(13.729858%,12.159729%,12.548828%);stroke-opacity:1;stroke-miterlimit:10;" d="M 1732.481222 1199.359264 L 1735.532605 805.49617 L 1185.501309 515.223609 " transform="matrix(0.0998523,0,0,-0.0998523,0,149.55953)"/>
<g clip-path="url(#clip15)" clip-rule="nonzero">
<path style=" stroke:none;fill-rule:nonzero;fill:rgb(44.178772%,15.153503%,40.579224%);fill-opacity:1;" d="M 41.722656 93.101562 L 79.582031 149.308594 L 18.375 126.039062 Z M 41.722656 93.101562 "/>
</g>
<g clip-path="url(#clip16)" clip-rule="nonzero">
<path style="fill:none;stroke-width:5;stroke-linecap:round;stroke-linejoin:round;stroke:rgb(13.729858%,12.159729%,12.548828%);stroke-opacity:1;stroke-miterlimit:10;" d="M 417.843832 565.414943 L 796.997695 2.51307 L 184.02185 235.552646 Z M 417.843832 565.414943 " transform="matrix(0.0998523,0,0,-0.0998523,0,149.55953)"/>
</g>
<path style="fill-rule:nonzero;fill:rgb(27.079773%,16.542053%,50.506592%);fill-opacity:1;stroke-width:5;stroke-linecap:round;stroke-linejoin:round;stroke:rgb(13.729858%,12.159729%,12.548828%);stroke-opacity:1;stroke-miterlimit:10;" d="M 2.503699 911.277438 L 417.843832 565.414943 L 184.02185 235.552646 Z M 2.503699 911.277438 " transform="matrix(0.0998523,0,0,-0.0998523,0,149.55953)"/>
<path style="fill-rule:nonzero;fill:rgb(67.216492%,76.040649%,91.134644%);fill-opacity:1;stroke-width:5;stroke-linecap:round;stroke-linejoin:round;stroke:rgb(13.729858%,12.159729%,12.548828%);stroke-opacity:1;stroke-miterlimit:10;" d="M 1185.501309 515.223609 L 417.843832 565.414943 L 2.503699 911.277438 " transform="matrix(0.0998523,0,0,-0.0998523,0,149.55953)"/>
<g clip-path="url(#clip17)" clip-rule="nonzero">
<path style=" stroke:none;fill-rule:nonzero;fill:rgb(75.892639%,35.887146%,41.325378%);fill-opacity:1;" d="M 118.375 98.113281 L 148.222656 135.140625 L 79.582031 149.308594 Z M 118.375 98.113281 "/>
</g>
<g clip-path="url(#clip18)" clip-rule="nonzero">
<path style="fill:none;stroke-width:5;stroke-linecap:round;stroke-linejoin:round;stroke:rgb(13.729858%,12.159729%,12.548828%);stroke-opacity:1;stroke-miterlimit:10;" d="M 1185.501309 515.223609 L 1484.419455 144.402367 L 796.997695 2.51307 Z M 1185.501309 515.223609 " transform="matrix(0.0998523,0,0,-0.0998523,0,149.55953)"/>
</g>
<path style="fill-rule:nonzero;fill:rgb(87.809753%,56.175232%,49.14093%);fill-opacity:1;stroke-width:5;stroke-linecap:round;stroke-linejoin:round;stroke:rgb(13.729858%,12.159729%,12.548828%);stroke-opacity:1;stroke-miterlimit:10;" d="M 1185.501309 515.223609 L 1735.532605 805.49617 L 1484.419455 144.402367 Z M 1185.501309 515.223609 " transform="matrix(0.0998523,0,0,-0.0998523,0,149.55953)"/>
<g clip-path="url(#clip19)" clip-rule="nonzero">
<path style=" stroke:none;fill-rule:nonzero;fill:rgb(65.254211%,35.914612%,55.882263%);fill-opacity:1;" d="M 41.722656 93.101562 L 118.375 98.113281 L 79.582031 149.308594 Z M 41.722656 93.101562 "/>
</g>
<g clip-path="url(#clip20)" clip-rule="nonzero">
<path style="fill:none;stroke-width:5;stroke-linecap:round;stroke-linejoin:round;stroke:rgb(13.729858%,12.159729%,12.548828%);stroke-opacity:1;stroke-miterlimit:10;" d="M 417.843832 565.414943 L 1185.501309 515.223609 L 796.997695 2.51307 Z M 417.843832 565.414943 " transform="matrix(0.0998523,0,0,-0.0998523,0,149.55953)"/>
</g>
</g>
</svg>
