<?xml version="1.0" encoding="UTF-8"?>
<svg xmlns="http://www.w3.org/2000/svg" xmlns:xlink="http://www.w3.org/1999/xlink" width="188.06pt" height="199.06pt" viewBox="0 0 188.06 199.06" version="1.2">
<g id="surface1">
<path style="fill-rule:nonzero;fill:rgb(62.109375%,61.326599%,82.03125%);fill-opacity:1;stroke-width:5;stroke-linecap:round;stroke-linejoin:round;stroke:rgb(0%,0%,0%);stroke-opacity:1;stroke-miterlimit:10;" d="M 1359.966982 1048.217815 L 899.669861 965.815797 L 1247.729074 1270.220392 " transform="matrix(0.0995026,0,0,-0.0995026,0,198.097321)"/>
<path style=" stroke:none;fill-rule:nonzero;fill:rgb(66.796875%,49.19281%,63.867188%);fill-opacity:1;" d="M 135.320312 93.796875 L 178.867188 146.046875 L 89.519531 101.996094 "/>
<path style="fill:none;stroke-width:5;stroke-linecap:round;stroke-linejoin:round;stroke:rgb(0%,0%,0%);stroke-opacity:1;stroke-miterlimit:10;" d="M 1359.966982 1048.217815 L 1797.612381 523.106148 L 899.669861 965.815797 Z M 1359.966982 1048.217815 " transform="matrix(0.0995026,0,0,-0.0995026,0,198.097321)"/>
<path style="fill-rule:nonzero;fill:rgb(88.867188%,98.826599%,79.6875%);fill-opacity:1;stroke-width:5;stroke-linecap:round;stroke-linejoin:round;stroke:rgb(0%,0%,0%);stroke-opacity:1;stroke-miterlimit:10;" d="M 1359.966982 1048.217815 L 1168.075099 1094.424187 L 1479.467574 811.807643 " transform="matrix(0.0995026,0,0,-0.0995026,0,198.097321)"/>
<path style="fill-rule:nonzero;fill:rgb(88.867188%,98.826599%,79.6875%);fill-opacity:1;stroke-width:5;stroke-linecap:round;stroke-linejoin:round;stroke:rgb(0%,0%,0%);stroke-opacity:1;stroke-miterlimit:10;" d="M 1479.467574 811.807643 L 1797.612381 523.106148 L 1359.966982 1048.217815 " transform="matrix(0.0995026,0,0,-0.0995026,0,198.097321)"/>
<path style="fill-rule:nonzero;fill:rgb(62.109375%,61.326599%,82.03125%);fill-opacity:1;stroke-width:5;stroke-linecap:round;stroke-linejoin:round;stroke:rgb(0%,0%,0%);stroke-opacity:1;stroke-miterlimit:10;" d="M 1247.729074 1270.220392 L 1626.487848 1601.516546 L 1359.966982 1048.217815 " transform="matrix(0.0995026,0,0,-0.0995026,0,198.097321)"/>
<path style=" stroke:none;fill-rule:nonzero;fill:rgb(66.796875%,49.19281%,63.867188%);fill-opacity:1;" d="M 89.519531 101.996094 L 62.042969 5.882812 L 107.753906 60.722656 "/>
<path style="fill:none;stroke-width:5;stroke-linecap:round;stroke-linejoin:round;stroke:rgb(0%,0%,0%);stroke-opacity:1;stroke-miterlimit:10;" d="M 899.669861 965.815797 L 623.530846 1931.75274 L 1082.925039 1380.613186 Z M 899.669861 965.815797 " transform="matrix(0.0995026,0,0,-0.0995026,0,198.097321)"/>
<path style="fill-rule:nonzero;fill:rgb(88.867188%,98.826599%,79.6875%);fill-opacity:1;stroke-width:5;stroke-linecap:round;stroke-linejoin:round;stroke:rgb(0%,0%,0%);stroke-opacity:1;stroke-miterlimit:10;" d="M 1082.925039 1380.613186 L 623.530846 1931.75274 L 904.027471 1500.427839 " transform="matrix(0.0995026,0,0,-0.0995026,0,198.097321)"/>
<path style="fill-rule:nonzero;fill:rgb(84.375%,56.25%,51.367188%);fill-opacity:1;stroke-width:5;stroke-linecap:round;stroke-linejoin:round;stroke:rgb(0%,0%,0%);stroke-opacity:1;stroke-miterlimit:10;" d="M 1247.729074 1270.220392 L 899.669861 965.815797 L 1082.925039 1380.613186 " transform="matrix(0.0995026,0,0,-0.0995026,0,198.097321)"/>
<path style="fill-rule:nonzero;fill:rgb(88.867188%,98.826599%,79.6875%);fill-opacity:1;stroke-width:5;stroke-linecap:round;stroke-linejoin:round;stroke:rgb(0%,0%,0%);stroke-opacity:1;stroke-miterlimit:10;" d="M 904.027471 1500.427839 L 1168.075099 1094.424187 L 1082.925039 1380.613186 " transform="matrix(0.0995026,0,0,-0.0995026,0,198.097321)"/>
<path style="fill-rule:nonzero;fill:rgb(84.375%,56.25%,51.367188%);fill-opacity:1;stroke-width:5;stroke-linecap:round;stroke-linejoin:round;stroke:rgb(0%,0%,0%);stroke-opacity:1;stroke-miterlimit:10;" d="M 1082.925039 1380.613186 L 1626.487848 1601.516546 L 1247.729074 1270.220392 " transform="matrix(0.0995026,0,0,-0.0995026,0,198.097321)"/>
<path style=" stroke:none;fill-rule:nonzero;fill:rgb(97.068787%,70.506287%,47.509766%);fill-opacity:1;" d="M 135.320312 93.796875 L 161.839844 38.742188 L 116.226562 89.199219 "/>
<path style="fill:none;stroke-width:5;stroke-linecap:round;stroke-linejoin:round;stroke:rgb(0%,0%,0%);stroke-opacity:1;stroke-miterlimit:10;" d="M 1359.966982 1048.217815 L 1626.487848 1601.516546 L 1168.075099 1094.424187 Z M 1359.966982 1048.217815 " transform="matrix(0.0995026,0,0,-0.0995026,0,198.097321)"/>
<path style=" stroke:none;fill-rule:nonzero;fill:rgb(65.234375%,75.584412%,92.576599%);fill-opacity:1;" d="M 161.839844 38.742188 L 107.753906 60.722656 L 116.226562 89.199219 "/>
<path style="fill:none;stroke-width:5;stroke-linecap:round;stroke-linejoin:round;stroke:rgb(0%,0%,0%);stroke-opacity:1;stroke-miterlimit:10;" d="M 1626.487848 1601.516546 L 1082.925039 1380.613186 L 1168.075099 1094.424187 Z M 1626.487848 1601.516546 " transform="matrix(0.0995026,0,0,-0.0995026,0,198.097321)"/>
<path style="fill-rule:nonzero;fill:rgb(98.826599%,87.889099%,62.693787%);fill-opacity:1;stroke-width:5;stroke-linecap:round;stroke-linejoin:round;stroke:rgb(0%,0%,0%);stroke-opacity:1;stroke-miterlimit:10;" d="M 774.359122 784.248703 L 899.669861 965.815797 L 887.539216 549.055521 " transform="matrix(0.0995026,0,0,-0.0995026,0,198.097321)"/>
<path style=" stroke:none;fill-rule:nonzero;fill:rgb(84.375%,56.25%,51.367188%);fill-opacity:1;" d="M 6.203125 101.984375 L 71.203125 75.574219 L 89.519531 101.996094 "/>
<path style="fill:none;stroke-width:5;stroke-linecap:round;stroke-linejoin:round;stroke:rgb(0%,0%,0%);stroke-opacity:1;stroke-miterlimit:10;" d="M 62.341307 965.93357 L 715.59027 1231.355219 L 899.669861 965.815797 Z M 62.341307 965.93357 " transform="matrix(0.0995026,0,0,-0.0995026,0,198.097321)"/>
<path style="fill-rule:nonzero;fill:rgb(98.826599%,87.889099%,62.693787%);fill-opacity:1;stroke-width:5;stroke-linecap:round;stroke-linejoin:round;stroke:rgb(0%,0%,0%);stroke-opacity:1;stroke-miterlimit:10;" d="M 715.59027 1231.355219 L 623.530846 1931.75274 L 772.199946 1411.705324 " transform="matrix(0.0995026,0,0,-0.0995026,0,198.097321)"/>
<path style="fill-rule:nonzero;fill:rgb(98.826599%,87.889099%,62.693787%);fill-opacity:1;stroke-width:5;stroke-linecap:round;stroke-linejoin:round;stroke:rgb(0%,0%,0%);stroke-opacity:1;stroke-miterlimit:10;" d="M 772.199946 1411.705324 L 899.669861 965.815797 L 715.59027 1231.355219 " transform="matrix(0.0995026,0,0,-0.0995026,0,198.097321)"/>
<path style="fill-rule:nonzero;fill:rgb(65.234375%,75.584412%,92.576599%);fill-opacity:1;stroke-width:5;stroke-linecap:round;stroke-linejoin:round;stroke:rgb(0%,0%,0%);stroke-opacity:1;stroke-miterlimit:10;" d="M 715.59027 1231.355219 L 62.341307 965.93357 L 653.798572 1034.673891 " transform="matrix(0.0995026,0,0,-0.0995026,0,198.097321)"/>
<path style="fill-rule:nonzero;fill:rgb(65.234375%,75.584412%,92.576599%);fill-opacity:1;stroke-width:5;stroke-linecap:round;stroke-linejoin:round;stroke:rgb(0%,0%,0%);stroke-opacity:1;stroke-miterlimit:10;" d="M 653.798572 1034.673891 L 1168.075099 1094.424187 L 715.59027 1231.355219 " transform="matrix(0.0995026,0,0,-0.0995026,0,198.097321)"/>
<path style=" stroke:none;fill-rule:nonzero;fill:rgb(76.367188%,89.451599%,93.554688%);fill-opacity:1;" d="M 6.203125 101.984375 L 89.519531 101.996094 L 77.050781 120.0625 "/>
<path style="fill:none;stroke-width:5;stroke-linecap:round;stroke-linejoin:round;stroke:rgb(0%,0%,0%);stroke-opacity:1;stroke-miterlimit:10;" d="M 62.341307 965.93357 L 899.669861 965.815797 L 774.359122 784.248703 Z M 62.341307 965.93357 " transform="matrix(0.0995026,0,0,-0.0995026,0,198.097321)"/>
<path style="fill-rule:nonzero;fill:rgb(76.367188%,89.451599%,93.554688%);fill-opacity:1;stroke-width:5;stroke-linecap:round;stroke-linejoin:round;stroke:rgb(0%,0%,0%);stroke-opacity:1;stroke-miterlimit:10;" d="M 1182.600467 680.058634 L 899.669861 965.815797 L 1322.907666 757.160855 " transform="matrix(0.0995026,0,0,-0.0995026,0,198.097321)"/>
<path style="fill-rule:nonzero;fill:rgb(76.367188%,89.451599%,93.554688%);fill-opacity:1;stroke-width:5;stroke-linecap:round;stroke-linejoin:round;stroke:rgb(0%,0%,0%);stroke-opacity:1;stroke-miterlimit:10;" d="M 1322.907666 757.160855 L 1797.612381 523.106148 L 1182.600467 680.058634 " transform="matrix(0.0995026,0,0,-0.0995026,0,198.097321)"/>
<path style=" stroke:none;fill-rule:nonzero;fill:rgb(62.109375%,61.326599%,82.03125%);fill-opacity:1;" d="M 117.671875 130.429688 L 86.828125 194.46875 L 89.519531 101.996094 "/>
<path style="fill:none;stroke-width:5;stroke-linecap:round;stroke-linejoin:round;stroke:rgb(0%,0%,0%);stroke-opacity:1;stroke-miterlimit:10;" d="M 1182.600467 680.058634 L 872.621271 36.467077 L 899.669861 965.815797 Z M 1182.600467 680.058634 " transform="matrix(0.0995026,0,0,-0.0995026,0,198.097321)"/>
<path style="fill-rule:nonzero;fill:rgb(97.068787%,70.506287%,47.509766%);fill-opacity:1;stroke-width:5;stroke-linecap:round;stroke-linejoin:round;stroke:rgb(0%,0%,0%);stroke-opacity:1;stroke-miterlimit:10;" d="M 1182.600467 680.058634 L 1168.075099 1094.424187 L 1028.710086 595.458182 " transform="matrix(0.0995026,0,0,-0.0995026,0,198.097321)"/>
<path style="fill-rule:nonzero;fill:rgb(97.068787%,70.506287%,47.509766%);fill-opacity:1;stroke-width:5;stroke-linecap:round;stroke-linejoin:round;stroke:rgb(0%,0%,0%);stroke-opacity:1;stroke-miterlimit:10;" d="M 1028.710086 595.458182 L 872.621271 36.467077 L 1182.600467 680.058634 " transform="matrix(0.0995026,0,0,-0.0995026,0,198.097321)"/>
<path style="fill-rule:nonzero;fill:rgb(74.021912%,48.997498%,55.076599%);fill-opacity:1;stroke-width:5;stroke-linecap:round;stroke-linejoin:round;stroke:rgb(0%,0%,0%);stroke-opacity:1;stroke-miterlimit:10;" d="M 774.359122 784.248703 L 1168.075099 1094.424187 L 653.798572 1034.673891 " transform="matrix(0.0995026,0,0,-0.0995026,0,198.097321)"/>
<path style="fill-rule:nonzero;fill:rgb(74.021912%,48.997498%,55.076599%);fill-opacity:1;stroke-width:5;stroke-linecap:round;stroke-linejoin:round;stroke:rgb(0%,0%,0%);stroke-opacity:1;stroke-miterlimit:10;" d="M 653.798572 1034.673891 L 62.341307 965.93357 L 774.359122 784.248703 " transform="matrix(0.0995026,0,0,-0.0995026,0,198.097321)"/>
<path style="fill-rule:nonzero;fill:rgb(98.826599%,87.889099%,62.693787%);fill-opacity:1;stroke-width:5;stroke-linecap:round;stroke-linejoin:round;stroke:rgb(0%,0%,0%);stroke-opacity:1;stroke-miterlimit:10;" d="M 887.539216 549.055521 L 872.621271 36.467077 L 774.359122 784.248703 " transform="matrix(0.0995026,0,0,-0.0995026,0,198.097321)"/>
<path style=" stroke:none;fill-rule:nonzero;fill:rgb(74.021912%,48.997498%,55.076599%);fill-opacity:1;" d="M 117.671875 130.429688 L 178.867188 146.046875 L 116.226562 89.199219 "/>
<path style="fill:none;stroke-width:5;stroke-linecap:round;stroke-linejoin:round;stroke:rgb(0%,0%,0%);stroke-opacity:1;stroke-miterlimit:10;" d="M 1182.600467 680.058634 L 1797.612381 523.106148 L 1168.075099 1094.424187 Z M 1182.600467 680.058634 " transform="matrix(0.0995026,0,0,-0.0995026,0,198.097321)"/>
<path style=" stroke:none;fill-rule:nonzero;fill:rgb(61.914062%,52.734375%,72.65625%);fill-opacity:1;" d="M 62.042969 5.882812 L 71.203125 75.574219 L 116.226562 89.199219 "/>
<path style="fill:none;stroke-width:5;stroke-linecap:round;stroke-linejoin:round;stroke:rgb(0%,0%,0%);stroke-opacity:1;stroke-miterlimit:10;" d="M 623.530846 1931.75274 L 715.59027 1231.355219 L 1168.075099 1094.424187 Z M 623.530846 1931.75274 " transform="matrix(0.0995026,0,0,-0.0995026,0,198.097321)"/>
<path style=" stroke:none;fill-rule:nonzero;fill:rgb(61.914062%,52.734375%,72.65625%);fill-opacity:1;" d="M 77.050781 120.0625 L 86.828125 194.46875 L 116.226562 89.199219 "/>
<path style="fill:none;stroke-width:5;stroke-linecap:round;stroke-linejoin:round;stroke:rgb(0%,0%,0%);stroke-opacity:1;stroke-miterlimit:10;" d="M 774.359122 784.248703 L 872.621271 36.467077 L 1168.075099 1094.424187 Z M 774.359122 784.248703 " transform="matrix(0.0995026,0,0,-0.0995026,0,198.097321)"/>
</g>
</svg>
