<?xml version="1.0" encoding="UTF-8"?>
<svg xmlns="http://www.w3.org/2000/svg" xmlns:xlink="http://www.w3.org/1999/xlink" width="183.18pt" height="186.89pt" viewBox="0 0 183.18 186.89" version="1.2">
<defs>
<clipPath id="clip1">
  <path d="M 57 0.363281 L 107 0.363281 L 107 32 L 57 32 Z M 57 0.363281 "/>
</clipPath>
<clipPath id="clip2">
  <path d="M 54 0.363281 L 110 0.363281 L 110 36 L 54 36 Z M 54 0.363281 "/>
</clipPath>
<clipPath id="clip3">
  <path d="M 101 0.363281 L 148 0.363281 L 148 32 L 101 32 Z M 101 0.363281 "/>
</clipPath>
<clipPath id="clip4">
  <path d="M 97 0.363281 L 152 0.363281 L 152 36 L 97 36 Z M 97 0.363281 "/>
</clipPath>
<clipPath id="clip5">
  <path d="M 148 68 L 182.363281 68 L 182.363281 122 L 148 122 Z M 148 68 "/>
</clipPath>
<clipPath id="clip6">
  <path d="M 144 26 L 182.363281 26 L 182.363281 76 L 144 76 Z M 144 26 "/>
</clipPath>
<clipPath id="clip7">
  <path d="M 77 157 L 143 157 L 143 186.417969 L 77 186.417969 Z M 77 157 "/>
</clipPath>
<clipPath id="clip8">
  <path d="M 34 150 L 95 150 L 95 186.417969 L 34 186.417969 Z M 34 150 "/>
</clipPath>
<clipPath id="clip9">
  <path d="M 27 150 L 85 150 L 85 186.417969 L 27 186.417969 Z M 27 150 "/>
</clipPath>
<clipPath id="clip10">
  <path d="M 39 0.363281 L 102 0.363281 L 102 22 L 39 22 Z M 39 0.363281 "/>
</clipPath>
<clipPath id="clip11">
  <path d="M 36 0.363281 L 105 0.363281 L 105 25 L 36 25 Z M 36 0.363281 "/>
</clipPath>
<clipPath id="clip12">
  <path d="M 164 68 L 182.363281 68 L 182.363281 138 L 164 138 Z M 164 68 "/>
</clipPath>
<clipPath id="clip13">
  <path d="M 77 162 L 143 162 L 143 186.417969 L 77 186.417969 Z M 77 162 "/>
</clipPath>
<clipPath id="clip14">
  <path d="M 144 21 L 182.363281 21 L 182.363281 76 L 144 76 Z M 144 21 "/>
</clipPath>
<clipPath id="clip15">
  <path d="M 101 0.363281 L 151 0.363281 L 151 30 L 101 30 Z M 101 0.363281 "/>
</clipPath>
<clipPath id="clip16">
  <path d="M 97 0.363281 L 154 0.363281 L 154 33 L 97 33 Z M 97 0.363281 "/>
</clipPath>
<clipPath id="clip17">
  <path d="M 39 0.363281 L 102 0.363281 L 102 16 L 39 16 Z M 39 0.363281 "/>
</clipPath>
<clipPath id="clip18">
  <path d="M 36 0.363281 L 105 0.363281 L 105 19 L 36 19 Z M 36 0.363281 "/>
</clipPath>
<clipPath id="clip19">
  <path d="M 91 0.363281 L 151 0.363281 L 151 26 L 91 26 Z M 91 0.363281 "/>
</clipPath>
<clipPath id="clip20">
  <path d="M 87 0.363281 L 154 0.363281 L 154 29 L 87 29 Z M 87 0.363281 "/>
</clipPath>
<clipPath id="clip21">
  <path d="M 165 68 L 182.363281 68 L 182.363281 138 L 165 138 Z M 165 68 "/>
</clipPath>
<clipPath id="clip22">
  <path d="M 147 21 L 182.363281 21 L 182.363281 86 L 147 86 Z M 147 21 "/>
</clipPath>
<clipPath id="clip23">
  <path d="M 69 164 L 132 164 L 132 186.417969 L 69 186.417969 Z M 69 164 "/>
</clipPath>
<clipPath id="clip24">
  <path d="M 27 157 L 85 157 L 85 186.417969 L 27 186.417969 Z M 27 157 "/>
</clipPath>
</defs>
<g id="surface1">
<path style=" stroke:none;fill-rule:evenodd;fill:rgb(62.136841%,47.344971%,57.853699%);fill-opacity:1;" d="M 104.042969 80.519531 L 127.785156 126.039062 L 151.621094 72.070312 L 104.042969 80.519531 "/>
<path style="fill:none;stroke-width:5.938;stroke-linecap:butt;stroke-linejoin:miter;stroke:rgb(13.729858%,12.159729%,12.548828%);stroke-opacity:1;stroke-miterlimit:4;" d="M 1045.087141 1063.733292 L 1283.571828 606.500311 L 1522.998212 1148.603707 Z M 1045.087141 1063.733292 " transform="matrix(0.0995543,0,0,-0.0995543,0,186.418805)"/>
<path style=" stroke:none;fill-rule:evenodd;fill:rgb(68.597412%,55.340576%,62.93335%);fill-opacity:1;" d="M 104.042969 80.519531 L 69.574219 119.316406 L 127.785156 126.039062 L 104.042969 80.519531 "/>
<path style="fill:none;stroke-width:5.938;stroke-linecap:butt;stroke-linejoin:miter;stroke:rgb(13.729858%,12.159729%,12.548828%);stroke-opacity:1;stroke-miterlimit:4;" d="M 1045.087141 1063.733292 L 698.856657 674.027811 L 1283.571828 606.500311 Z M 1045.087141 1063.733292 " transform="matrix(0.0995543,0,0,-0.0995543,0,186.418805)"/>
<path style=" stroke:none;fill-rule:evenodd;fill:rgb(73.71521%,56.468201%,59.407043%);fill-opacity:1;" d="M 104.042969 80.519531 L 69.574219 119.316406 L 55.875 62.242188 L 104.042969 80.519531 "/>
<path style="fill:none;stroke-width:5.938;stroke-linecap:butt;stroke-linejoin:miter;stroke:rgb(13.729858%,12.159729%,12.548828%);stroke-opacity:1;stroke-miterlimit:4;" d="M 1045.087141 1063.733292 L 698.856657 674.027811 L 561.251228 1247.32491 Z M 1045.087141 1063.733292 " transform="matrix(0.0995543,0,0,-0.0995543,0,186.418805)"/>
<path style=" stroke:none;fill-rule:evenodd;fill:rgb(70.858765%,49.093628%,52.116394%);fill-opacity:1;" d="M 104.042969 80.519531 L 106.222656 31.914062 L 55.875 62.242188 L 104.042969 80.519531 "/>
<path style="fill:none;stroke-width:5.938;stroke-linecap:butt;stroke-linejoin:miter;stroke:rgb(13.729858%,12.159729%,12.548828%);stroke-opacity:1;stroke-miterlimit:4;" d="M 1045.087141 1063.733292 L 1066.981589 1551.96379 L 561.251228 1247.32491 Z M 1045.087141 1063.733292 " transform="matrix(0.0995543,0,0,-0.0995543,0,186.418805)"/>
<path style=" stroke:none;fill-rule:evenodd;fill:rgb(63.400269%,43.289185%,51.10321%);fill-opacity:1;" d="M 104.042969 80.519531 L 151.621094 72.070312 L 106.222656 31.914062 L 104.042969 80.519531 "/>
<path style="fill:none;stroke-width:5.938;stroke-linecap:butt;stroke-linejoin:miter;stroke:rgb(13.729858%,12.159729%,12.548828%);stroke-opacity:1;stroke-miterlimit:4;" d="M 1045.087141 1063.733292 L 1522.998212 1148.603707 L 1066.981589 1551.96379 Z M 1045.087141 1063.733292 " transform="matrix(0.0995543,0,0,-0.0995543,0,186.418805)"/>
<path style=" stroke:none;fill-rule:evenodd;fill:rgb(75.619507%,70.413208%,75.891113%);fill-opacity:1;" d="M 91.113281 160.722656 L 38.222656 153.703125 L 69.574219 119.316406 L 91.113281 160.722656 "/>
<path style="fill:none;stroke-width:5.938;stroke-linecap:butt;stroke-linejoin:miter;stroke:rgb(13.729858%,12.159729%,12.548828%);stroke-opacity:1;stroke-miterlimit:4;" d="M 915.211472 258.111773 L 383.937589 328.621312 L 698.856657 674.027811 Z M 915.211472 258.111773 " transform="matrix(0.0995543,0,0,-0.0995543,0,186.418805)"/>
<path style=" stroke:none;fill-rule:evenodd;fill:rgb(68.605042%,61.000061%,70.40863%);fill-opacity:1;" d="M 91.113281 160.722656 L 69.574219 119.316406 L 127.785156 126.039062 L 91.113281 160.722656 "/>
<path style="fill:none;stroke-width:5.938;stroke-linecap:butt;stroke-linejoin:miter;stroke:rgb(13.729858%,12.159729%,12.548828%);stroke-opacity:1;stroke-miterlimit:4;" d="M 915.211472 258.111773 L 698.856657 674.027811 L 1283.571828 606.500311 Z M 915.211472 258.111773 " transform="matrix(0.0995543,0,0,-0.0995543,0,186.418805)"/>
<path style=" stroke:none;fill-rule:evenodd;fill:rgb(80.49469%,63.88092%,61.923218%);fill-opacity:1;" d="M 25.4375 102.3125 L 69.574219 119.316406 L 55.875 62.242188 L 25.4375 102.3125 "/>
<path style="fill:none;stroke-width:5.938;stroke-linecap:butt;stroke-linejoin:miter;stroke:rgb(13.729858%,12.159729%,12.548828%);stroke-opacity:1;stroke-miterlimit:4;" d="M 255.513702 844.828049 L 698.856657 674.027811 L 561.251228 1247.32491 Z M 255.513702 844.828049 " transform="matrix(0.0995543,0,0,-0.0995543,0,186.418805)"/>
<path style=" stroke:none;fill-rule:evenodd;fill:rgb(82.577515%,72.317505%,70.755005%);fill-opacity:1;" d="M 25.4375 102.3125 L 38.222656 153.703125 L 69.574219 119.316406 L 25.4375 102.3125 "/>
<path style="fill:none;stroke-width:5.938;stroke-linecap:butt;stroke-linejoin:miter;stroke:rgb(13.729858%,12.159729%,12.548828%);stroke-opacity:1;stroke-miterlimit:4;" d="M 255.513702 844.828049 L 383.937589 328.621312 L 698.856657 674.027811 Z M 255.513702 844.828049 " transform="matrix(0.0995543,0,0,-0.0995543,0,186.418805)"/>
<path style=" stroke:none;fill-rule:evenodd;fill:rgb(86.248779%,64.520264%,54.556274%);fill-opacity:1;" d="M 25.4375 102.3125 L 55.875 62.242188 L 13.75 54.890625 L 25.4375 102.3125 "/>
<path style="fill:none;stroke-width:5.938;stroke-linecap:butt;stroke-linejoin:miter;stroke:rgb(13.729858%,12.159729%,12.548828%);stroke-opacity:1;stroke-miterlimit:4;" d="M 255.513702 844.828049 L 561.251228 1247.32491 L 138.115515 1321.169626 Z M 255.513702 844.828049 " transform="matrix(0.0995543,0,0,-0.0995543,0,186.418805)"/>
<path style=" stroke:none;fill-rule:evenodd;fill:rgb(82.458496%,53.482056%,43.273926%);fill-opacity:1;" d="M 57.945312 21.210938 L 55.875 62.242188 L 13.75 54.890625 L 57.945312 21.210938 "/>
<path style="fill:none;stroke-width:5.938;stroke-linecap:butt;stroke-linejoin:miter;stroke:rgb(13.729858%,12.159729%,12.548828%);stroke-opacity:1;stroke-miterlimit:4;" d="M 582.04703 1659.474162 L 561.251228 1247.32491 L 138.115515 1321.169626 Z M 582.04703 1659.474162 " transform="matrix(0.0995543,0,0,-0.0995543,0,186.418805)"/>
<path style=" stroke:none;fill-rule:evenodd;fill:rgb(73.934937%,46.220398%,44.194031%);fill-opacity:1;" d="M 57.945312 21.210938 L 106.222656 31.914062 L 55.875 62.242188 L 57.945312 21.210938 "/>
<path style="fill:none;stroke-width:5.938;stroke-linecap:butt;stroke-linejoin:miter;stroke:rgb(13.729858%,12.159729%,12.548828%);stroke-opacity:1;stroke-miterlimit:4;" d="M 582.04703 1659.474162 L 1066.981589 1551.96379 L 561.251228 1247.32491 Z M 582.04703 1659.474162 " transform="matrix(0.0995543,0,0,-0.0995543,0,186.418805)"/>
<path style=" stroke:none;fill-rule:evenodd;fill:rgb(59.065247%,57.917786%,73.632812%);fill-opacity:1;" d="M 91.113281 160.722656 L 127.785156 126.039062 L 139.132812 166.246094 L 91.113281 160.722656 "/>
<path style="fill:none;stroke-width:5.938;stroke-linecap:butt;stroke-linejoin:miter;stroke:rgb(13.729858%,12.159729%,12.548828%);stroke-opacity:1;stroke-miterlimit:4;" d="M 915.211472 258.111773 L 1283.571828 606.500311 L 1397.556365 202.630142 Z M 915.211472 258.111773 " transform="matrix(0.0995543,0,0,-0.0995543,0,186.418805)"/>
<path style=" stroke:none;fill-rule:evenodd;fill:rgb(48.233032%,46.487427%,65.745544%);fill-opacity:1;" d="M 167.605469 118.335938 L 127.785156 126.039062 L 139.132812 166.246094 L 167.605469 118.335938 "/>
<path style="fill:none;stroke-width:5.938;stroke-linecap:butt;stroke-linejoin:miter;stroke:rgb(13.729858%,12.159729%,12.548828%);stroke-opacity:1;stroke-miterlimit:4;" d="M 1683.557498 683.876389 L 1283.571828 606.500311 L 1397.556365 202.630142 Z M 1683.557498 683.876389 " transform="matrix(0.0995543,0,0,-0.0995543,0,186.418805)"/>
<path style=" stroke:none;fill-rule:evenodd;fill:rgb(52.279663%,42.330933%,58.006287%);fill-opacity:1;" d="M 167.605469 118.335938 L 127.785156 126.039062 L 151.621094 72.070312 L 167.605469 118.335938 "/>
<path style="fill:none;stroke-width:5.938;stroke-linecap:butt;stroke-linejoin:miter;stroke:rgb(13.729858%,12.159729%,12.548828%);stroke-opacity:1;stroke-miterlimit:4;" d="M 1683.557498 683.876389 L 1283.571828 606.500311 L 1522.998212 1148.603707 Z M 1683.557498 683.876389 " transform="matrix(0.0995543,0,0,-0.0995543,0,186.418805)"/>
<g clip-path="url(#clip1)" clip-rule="nonzero">
<path style=" stroke:none;fill-rule:evenodd;fill:rgb(66.172791%,31.051636%,30.686951%);fill-opacity:1;" d="M 57.945312 21.210938 L 101.328125 0.945312 L 106.222656 31.914062 L 57.945312 21.210938 "/>
</g>
<g clip-path="url(#clip2)" clip-rule="nonzero">
<path style="fill:none;stroke-width:5.938;stroke-linecap:butt;stroke-linejoin:miter;stroke:rgb(13.729858%,12.159729%,12.548828%);stroke-opacity:1;stroke-miterlimit:4;" d="M 582.04703 1659.474162 L 1017.817174 1863.037597 L 1066.981589 1551.96379 Z M 582.04703 1659.474162 " transform="matrix(0.0995543,0,0,-0.0995543,0,186.418805)"/>
</g>
<g clip-path="url(#clip3)" clip-rule="nonzero">
<path style=" stroke:none;fill-rule:evenodd;fill:rgb(53.559875%,21.542358%,29.30603%);fill-opacity:1;" d="M 147.988281 29.601562 L 101.328125 0.945312 L 106.222656 31.914062 L 147.988281 29.601562 "/>
</g>
<g clip-path="url(#clip4)" clip-rule="nonzero">
<path style="fill:none;stroke-width:5.938;stroke-linecap:butt;stroke-linejoin:miter;stroke:rgb(13.729858%,12.159729%,12.548828%);stroke-opacity:1;stroke-miterlimit:4;" d="M 1486.507465 1575.192308 L 1017.817174 1863.037597 L 1066.981589 1551.96379 Z M 1486.507465 1575.192308 " transform="matrix(0.0995543,0,0,-0.0995543,0,186.418805)"/>
</g>
<path style=" stroke:none;fill-rule:evenodd;fill:rgb(54.852295%,31.373596%,41.662598%);fill-opacity:1;" d="M 147.988281 29.601562 L 151.621094 72.070312 L 106.222656 31.914062 L 147.988281 29.601562 "/>
<path style="fill:none;stroke-width:5.938;stroke-linecap:butt;stroke-linejoin:miter;stroke:rgb(13.729858%,12.159729%,12.548828%);stroke-opacity:1;stroke-miterlimit:4;" d="M 1486.507465 1575.192308 L 1522.998212 1148.603707 L 1066.981589 1551.96379 Z M 1486.507465 1575.192308 " transform="matrix(0.0995543,0,0,-0.0995543,0,186.418805)"/>
<path style=" stroke:none;fill-rule:evenodd;fill:rgb(37.014771%,28.175354%,46.995544%);fill-opacity:1;" d="M 167.605469 118.335938 L 181.757812 72.019531 L 151.621094 72.070312 L 167.605469 118.335938 "/>
<g clip-path="url(#clip5)" clip-rule="nonzero">
<path style="fill:none;stroke-width:5.938;stroke-linecap:butt;stroke-linejoin:miter;stroke:rgb(13.729858%,12.159729%,12.548828%);stroke-opacity:1;stroke-miterlimit:4;" d="M 1683.557498 683.876389 L 1825.714461 1149.113792 L 1522.998212 1148.603707 Z M 1683.557498 683.876389 " transform="matrix(0.0995543,0,0,-0.0995543,0,186.418805)"/>
</g>
<path style=" stroke:none;fill-rule:evenodd;fill:rgb(38.426208%,20.898438%,36.946106%);fill-opacity:1;" d="M 147.988281 29.601562 L 181.757812 72.019531 L 151.621094 72.070312 L 147.988281 29.601562 "/>
<g clip-path="url(#clip6)" clip-rule="nonzero">
<path style="fill:none;stroke-width:5.938;stroke-linecap:butt;stroke-linejoin:miter;stroke:rgb(13.729858%,12.159729%,12.548828%);stroke-opacity:1;stroke-miterlimit:4;" d="M 1486.507465 1575.192308 L 1825.714461 1149.113792 L 1522.998212 1148.603707 Z M 1486.507465 1575.192308 " transform="matrix(0.0995543,0,0,-0.0995543,0,186.418805)"/>
</g>
<path style=" stroke:none;fill-rule:evenodd;fill:rgb(92.352295%,84.230042%,71.542358%);fill-opacity:1;" d="M 25.4375 102.3125 L 38.222656 153.703125 L 0.648438 114.367188 L 25.4375 102.3125 "/>
<path style="fill:none;stroke-width:5.938;stroke-linecap:butt;stroke-linejoin:miter;stroke:rgb(13.729858%,12.159729%,12.548828%);stroke-opacity:1;stroke-miterlimit:4;" d="M 255.513702 844.828049 L 383.937589 328.621312 L 6.513402 723.741549 Z M 255.513702 844.828049 " transform="matrix(0.0995543,0,0,-0.0995543,0,186.418805)"/>
<path style=" stroke:none;fill-rule:evenodd;fill:rgb(95.690918%,77.122498%,55.084229%);fill-opacity:1;" d="M 25.4375 102.3125 L 13.75 54.890625 L 0.648438 114.367188 L 25.4375 102.3125 "/>
<path style="fill:none;stroke-width:5.938;stroke-linecap:butt;stroke-linejoin:miter;stroke:rgb(13.729858%,12.159729%,12.548828%);stroke-opacity:1;stroke-miterlimit:4;" d="M 255.513702 844.828049 L 138.115515 1321.169626 L 6.513402 723.741549 Z M 255.513702 844.828049 " transform="matrix(0.0995543,0,0,-0.0995543,0,186.418805)"/>
<path style=" stroke:none;fill-rule:evenodd;fill:rgb(54.620361%,65.686035%,84.727478%);fill-opacity:1;" d="M 91.113281 160.722656 L 80.863281 185.796875 L 139.132812 166.246094 L 91.113281 160.722656 "/>
<g clip-path="url(#clip7)" clip-rule="nonzero">
<path style="fill:none;stroke-width:5.938;stroke-linecap:butt;stroke-linejoin:miter;stroke:rgb(13.729858%,12.159729%,12.548828%);stroke-opacity:1;stroke-miterlimit:4;" d="M 915.211472 258.111773 L 812.252634 6.247145 L 1397.556365 202.630142 Z M 915.211472 258.111773 " transform="matrix(0.0995543,0,0,-0.0995543,0,186.418805)"/>
</g>
<path style=" stroke:none;fill-rule:evenodd;fill:rgb(70.99762%,77.789307%,87.634277%);fill-opacity:1;" d="M 91.113281 160.722656 L 80.863281 185.796875 L 38.222656 153.703125 L 91.113281 160.722656 "/>
<g clip-path="url(#clip8)" clip-rule="nonzero">
<path style="fill:none;stroke-width:5.938;stroke-linecap:butt;stroke-linejoin:miter;stroke:rgb(13.729858%,12.159729%,12.548828%);stroke-opacity:1;stroke-miterlimit:4;" d="M 915.211472 258.111773 L 812.252634 6.247145 L 383.937589 328.621312 Z M 915.211472 258.111773 " transform="matrix(0.0995543,0,0,-0.0995543,0,186.418805)"/>
</g>
<path style=" stroke:none;fill-rule:evenodd;fill:rgb(85.566711%,93.395996%,73.808289%);fill-opacity:1;" d="M 30.421875 161.105469 L 38.222656 153.703125 L 0.648438 114.367188 L 30.421875 161.105469 "/>
<path style="fill:none;stroke-width:5.938;stroke-linecap:butt;stroke-linejoin:miter;stroke:rgb(13.729858%,12.159729%,12.548828%);stroke-opacity:1;stroke-miterlimit:4;" d="M 305.580576 254.266511 L 383.937589 328.621312 L 6.513402 723.741549 Z M 305.580576 254.266511 " transform="matrix(0.0995543,0,0,-0.0995543,0,186.418805)"/>
<path style=" stroke:none;fill-rule:evenodd;fill:rgb(66.828918%,86.647034%,87.391663%);fill-opacity:1;" d="M 30.421875 161.105469 L 80.863281 185.796875 L 38.222656 153.703125 L 30.421875 161.105469 "/>
<g clip-path="url(#clip9)" clip-rule="nonzero">
<path style="fill:none;stroke-width:5.938;stroke-linecap:butt;stroke-linejoin:miter;stroke:rgb(13.729858%,12.159729%,12.548828%);stroke-opacity:1;stroke-miterlimit:4;" d="M 305.580576 254.266511 L 812.252634 6.247145 L 383.937589 328.621312 Z M 305.580576 254.266511 " transform="matrix(0.0995543,0,0,-0.0995543,0,186.418805)"/>
</g>
<path style=" stroke:none;fill-rule:evenodd;fill:rgb(80.828857%,39.746094%,18.79425%);fill-opacity:1;" d="M 57.945312 21.210938 L 39.734375 15.0625 L 13.75 54.890625 L 57.945312 21.210938 "/>
<path style="fill:none;stroke-width:5.938;stroke-linecap:butt;stroke-linejoin:miter;stroke:rgb(13.729858%,12.159729%,12.548828%);stroke-opacity:1;stroke-miterlimit:4;" d="M 582.04703 1659.474162 L 399.122448 1721.23377 L 138.115515 1321.169626 Z M 582.04703 1659.474162 " transform="matrix(0.0995543,0,0,-0.0995543,0,186.418805)"/>
<g clip-path="url(#clip10)" clip-rule="nonzero">
<path style=" stroke:none;fill-rule:evenodd;fill:rgb(62.168884%,16.133118%,17.591858%);fill-opacity:1;" d="M 57.945312 21.210938 L 101.328125 0.945312 L 39.734375 15.0625 L 57.945312 21.210938 "/>
</g>
<g clip-path="url(#clip11)" clip-rule="nonzero">
<path style="fill:none;stroke-width:5.938;stroke-linecap:butt;stroke-linejoin:miter;stroke:rgb(13.729858%,12.159729%,12.548828%);stroke-opacity:1;stroke-miterlimit:4;" d="M 582.04703 1659.474162 L 1017.817174 1863.037597 L 399.122448 1721.23377 Z M 582.04703 1659.474162 " transform="matrix(0.0995543,0,0,-0.0995543,0,186.418805)"/>
</g>
<path style=" stroke:none;fill-rule:evenodd;fill:rgb(15.997314%,31.822205%,56.44989%);fill-opacity:1;" d="M 167.605469 118.335938 L 139.132812 166.246094 L 174.625 134.582031 L 167.605469 118.335938 "/>
<path style="fill:none;stroke-width:5.938;stroke-linecap:butt;stroke-linejoin:miter;stroke:rgb(13.729858%,12.159729%,12.548828%);stroke-opacity:1;stroke-miterlimit:4;" d="M 1683.557498 683.876389 L 1397.556365 202.630142 L 1754.067038 520.6882 Z M 1683.557498 683.876389 " transform="matrix(0.0995543,0,0,-0.0995543,0,186.418805)"/>
<path style=" stroke:none;fill-rule:evenodd;fill:rgb(19.706726%,20.265198%,38.708496%);fill-opacity:1;" d="M 167.605469 118.335938 L 181.757812 72.019531 L 174.625 134.582031 L 167.605469 118.335938 "/>
<g clip-path="url(#clip12)" clip-rule="nonzero">
<path style="fill:none;stroke-width:5.938;stroke-linecap:butt;stroke-linejoin:miter;stroke:rgb(13.729858%,12.159729%,12.548828%);stroke-opacity:1;stroke-miterlimit:4;" d="M 1683.557498 683.876389 L 1825.714461 1149.113792 L 1754.067038 520.6882 Z M 1683.557498 683.876389 " transform="matrix(0.0995543,0,0,-0.0995543,0,186.418805)"/>
</g>
<path style=" stroke:none;fill-rule:evenodd;fill:rgb(85.551453%,60.150146%,14.335632%);fill-opacity:1;" d="M 6.550781 65.441406 L 13.75 54.890625 L 0.648438 114.367188 L 6.550781 65.441406 "/>
<path style="fill:none;stroke-width:5.938;stroke-linecap:butt;stroke-linejoin:miter;stroke:rgb(13.729858%,12.159729%,12.548828%);stroke-opacity:1;stroke-miterlimit:4;" d="M 65.801056 1215.18951 L 138.115515 1321.169626 L 6.513402 723.741549 Z M 65.801056 1215.18951 " transform="matrix(0.0995543,0,0,-0.0995543,0,186.418805)"/>
<path style=" stroke:none;fill-rule:evenodd;fill:rgb(63.516235%,26.73645%,16.574097%);fill-opacity:1;" d="M 6.550781 65.441406 L 39.734375 15.0625 L 13.75 54.890625 L 6.550781 65.441406 "/>
<path style="fill:none;stroke-width:5.938;stroke-linecap:butt;stroke-linejoin:miter;stroke:rgb(13.729858%,12.159729%,12.548828%);stroke-opacity:1;stroke-miterlimit:4;" d="M 65.801056 1215.18951 L 399.122448 1721.23377 L 138.115515 1321.169626 Z M 65.801056 1215.18951 " transform="matrix(0.0995543,0,0,-0.0995543,0,186.418805)"/>
<path style=" stroke:none;fill-rule:evenodd;fill:rgb(9.544373%,42.895508%,65.638733%);fill-opacity:1;" d="M 128.066406 173.433594 L 80.863281 185.796875 L 139.132812 166.246094 L 128.066406 173.433594 "/>
<g clip-path="url(#clip13)" clip-rule="nonzero">
<path style="fill:none;stroke-width:5.938;stroke-linecap:butt;stroke-linejoin:miter;stroke:rgb(13.729858%,12.159729%,12.548828%);stroke-opacity:1;stroke-miterlimit:4;" d="M 1286.396918 130.433396 L 812.252634 6.247145 L 1397.556365 202.630142 Z M 1286.396918 130.433396 " transform="matrix(0.0995543,0,0,-0.0995543,0,186.418805)"/>
</g>
<path style=" stroke:none;fill-rule:evenodd;fill:rgb(58.566284%,15.869141%,18.061829%);fill-opacity:1;" d="M 128.066406 173.433594 L 139.132812 166.246094 L 174.625 134.582031 L 128.066406 173.433594 "/>
<path style="fill:none;stroke-width:5.938;stroke-linecap:butt;stroke-linejoin:miter;stroke:rgb(13.729858%,12.159729%,12.548828%);stroke-opacity:1;stroke-miterlimit:4;" d="M 1286.396918 130.433396 L 1397.556365 202.630142 L 1754.067038 520.6882 Z M 1286.396918 130.433396 " transform="matrix(0.0995543,0,0,-0.0995543,0,186.418805)"/>
<path style=" stroke:none;fill-rule:evenodd;fill:rgb(13.729858%,12.159729%,12.548828%);fill-opacity:1;" d="M 147.988281 29.601562 L 150.527344 25.269531 L 181.757812 72.019531 L 147.988281 29.601562 "/>
<g clip-path="url(#clip14)" clip-rule="nonzero">
<path style="fill:none;stroke-width:5.938;stroke-linecap:butt;stroke-linejoin:miter;stroke:rgb(13.729858%,12.159729%,12.548828%);stroke-opacity:1;stroke-miterlimit:4;" d="M 1486.507465 1575.192308 L 1512.011751 1618.706543 L 1825.714461 1149.113792 Z M 1486.507465 1575.192308 " transform="matrix(0.0995543,0,0,-0.0995543,0,186.418805)"/>
</g>
<g clip-path="url(#clip15)" clip-rule="nonzero">
<path style=" stroke:none;fill-rule:evenodd;fill:rgb(13.729858%,12.159729%,12.548828%);fill-opacity:1;" d="M 147.988281 29.601562 L 150.527344 25.269531 L 101.328125 0.945312 L 147.988281 29.601562 "/>
</g>
<g clip-path="url(#clip16)" clip-rule="nonzero">
<path style="fill:none;stroke-width:5.938;stroke-linecap:butt;stroke-linejoin:miter;stroke:rgb(13.729858%,12.159729%,12.548828%);stroke-opacity:1;stroke-miterlimit:4;" d="M 1486.507465 1575.192308 L 1512.011751 1618.706543 L 1017.817174 1863.037597 Z M 1486.507465 1575.192308 " transform="matrix(0.0995543,0,0,-0.0995543,0,186.418805)"/>
</g>
<g clip-path="url(#clip17)" clip-rule="nonzero">
<path style=" stroke:none;fill-rule:evenodd;fill:rgb(31.098938%,58.642578%,82.156372%);fill-opacity:1;" d="M 91.113281 13.566406 L 101.328125 0.945312 L 39.734375 15.0625 L 91.113281 13.566406 "/>
</g>
<g clip-path="url(#clip18)" clip-rule="nonzero">
<path style="fill:none;stroke-width:5.938;stroke-linecap:butt;stroke-linejoin:miter;stroke:rgb(13.729858%,12.159729%,12.548828%);stroke-opacity:1;stroke-miterlimit:4;" d="M 915.211472 1736.26168 L 1017.817174 1863.037597 L 399.122448 1721.23377 Z M 915.211472 1736.26168 " transform="matrix(0.0995543,0,0,-0.0995543,0,186.418805)"/>
</g>
<g clip-path="url(#clip19)" clip-rule="nonzero">
<path style=" stroke:none;fill-rule:evenodd;fill:rgb(60.340881%,80.343628%,92.094421%);fill-opacity:1;" d="M 91.113281 13.566406 L 150.527344 25.269531 L 101.328125 0.945312 L 91.113281 13.566406 "/>
</g>
<g clip-path="url(#clip20)" clip-rule="nonzero">
<path style="fill:none;stroke-width:5.938;stroke-linecap:butt;stroke-linejoin:miter;stroke:rgb(13.729858%,12.159729%,12.548828%);stroke-opacity:1;stroke-miterlimit:4;" d="M 915.211472 1736.26168 L 1512.011751 1618.706543 L 1017.817174 1863.037597 Z M 915.211472 1736.26168 " transform="matrix(0.0995543,0,0,-0.0995543,0,186.418805)"/>
</g>
<path style=" stroke:none;fill-rule:evenodd;fill:rgb(20.823669%,20.965576%,26.303101%);fill-opacity:1;" d="M 30.421875 161.105469 L 0.648438 114.367188 L 18.039062 118.75 L 30.421875 161.105469 "/>
<path style="fill:none;stroke-width:5.938;stroke-linecap:butt;stroke-linejoin:miter;stroke:rgb(13.729858%,12.159729%,12.548828%);stroke-opacity:1;stroke-miterlimit:4;" d="M 305.580576 254.266511 L 6.513402 723.741549 L 181.198138 679.717229 Z M 305.580576 254.266511 " transform="matrix(0.0995543,0,0,-0.0995543,0,186.418805)"/>
<path style=" stroke:none;fill-rule:evenodd;fill:rgb(19.842529%,20.350647%,37.208557%);fill-opacity:1;" d="M 6.550781 65.441406 L 0.648438 114.367188 L 18.039062 118.75 L 6.550781 65.441406 "/>
<path style="fill:none;stroke-width:5.938;stroke-linecap:butt;stroke-linejoin:miter;stroke:rgb(13.729858%,12.159729%,12.548828%);stroke-opacity:1;stroke-miterlimit:4;" d="M 65.801056 1215.18951 L 6.513402 723.741549 L 181.198138 679.717229 Z M 65.801056 1215.18951 " transform="matrix(0.0995543,0,0,-0.0995543,0,186.418805)"/>
<path style=" stroke:none;fill-rule:evenodd;fill:rgb(97.076416%,77.723694%,37.565613%);fill-opacity:1;" d="M 168.96875 82.429688 L 181.757812 72.019531 L 174.625 134.582031 L 168.96875 82.429688 "/>
<g clip-path="url(#clip21)" clip-rule="nonzero">
<path style="fill:none;stroke-width:5.938;stroke-linecap:butt;stroke-linejoin:miter;stroke:rgb(13.729858%,12.159729%,12.548828%);stroke-opacity:1;stroke-miterlimit:4;" d="M 1697.251337 1044.546222 L 1825.714461 1149.113792 L 1754.067038 520.6882 Z M 1697.251337 1044.546222 " transform="matrix(0.0995543,0,0,-0.0995543,0,186.418805)"/>
</g>
<path style=" stroke:none;fill-rule:evenodd;fill:rgb(95.384216%,92.276001%,66.719055%);fill-opacity:1;" d="M 168.96875 82.429688 L 150.527344 25.269531 L 181.757812 72.019531 L 168.96875 82.429688 "/>
<g clip-path="url(#clip22)" clip-rule="nonzero">
<path style="fill:none;stroke-width:5.938;stroke-linecap:butt;stroke-linejoin:miter;stroke:rgb(13.729858%,12.159729%,12.548828%);stroke-opacity:1;stroke-miterlimit:4;" d="M 1697.251337 1044.546222 L 1512.011751 1618.706543 L 1825.714461 1149.113792 Z M 1697.251337 1044.546222 " transform="matrix(0.0995543,0,0,-0.0995543,0,186.418805)"/>
</g>
<path style=" stroke:none;fill-rule:evenodd;fill:rgb(57.778931%,15.982056%,18.151855%);fill-opacity:1;" d="M 128.066406 173.433594 L 80.863281 185.796875 L 72.804688 167.496094 L 128.066406 173.433594 "/>
<g clip-path="url(#clip23)" clip-rule="nonzero">
<path style="fill:none;stroke-width:5.938;stroke-linecap:butt;stroke-linejoin:miter;stroke:rgb(13.729858%,12.159729%,12.548828%);stroke-opacity:1;stroke-miterlimit:4;" d="M 1286.396918 130.433396 L 812.252634 6.247145 L 731.305956 190.074187 Z M 1286.396918 130.433396 " transform="matrix(0.0995543,0,0,-0.0995543,0,186.418805)"/>
</g>
<path style=" stroke:none;fill-rule:evenodd;fill:rgb(34.915161%,19.235229%,20.773315%);fill-opacity:1;" d="M 30.421875 161.105469 L 80.863281 185.796875 L 72.804688 167.496094 L 30.421875 161.105469 "/>
<g clip-path="url(#clip24)" clip-rule="nonzero">
<path style="fill:none;stroke-width:5.938;stroke-linecap:butt;stroke-linejoin:miter;stroke:rgb(13.729858%,12.159729%,12.548828%);stroke-opacity:1;stroke-miterlimit:4;" d="M 305.580576 254.266511 L 812.252634 6.247145 L 731.305956 190.074187 Z M 305.580576 254.266511 " transform="matrix(0.0995543,0,0,-0.0995543,0,186.418805)"/>
</g>
<path style=" stroke:none;fill-rule:evenodd;fill:rgb(46.200562%,20.999146%,33.345032%);fill-opacity:1;" d="M 30.421875 161.105469 L 18.039062 118.75 L 72.804688 167.496094 L 30.421875 161.105469 "/>
<path style="fill:none;stroke-width:5.938;stroke-linecap:butt;stroke-linejoin:miter;stroke:rgb(13.729858%,12.159729%,12.548828%);stroke-opacity:1;stroke-miterlimit:4;" d="M 305.580576 254.266511 L 181.198138 679.717229 L 731.305956 190.074187 Z M 305.580576 254.266511 " transform="matrix(0.0995543,0,0,-0.0995543,0,186.418805)"/>
<path style=" stroke:none;fill-rule:evenodd;fill:rgb(33.502197%,40.458679%,64.144897%);fill-opacity:1;" d="M 6.550781 65.441406 L 39.734375 15.0625 L 44.851562 51.808594 L 6.550781 65.441406 "/>
<path style="fill:none;stroke-width:5.938;stroke-linecap:butt;stroke-linejoin:miter;stroke:rgb(13.729858%,12.159729%,12.548828%);stroke-opacity:1;stroke-miterlimit:4;" d="M 65.801056 1215.18951 L 399.122448 1721.23377 L 450.523392 1352.127904 Z M 65.801056 1215.18951 " transform="matrix(0.0995543,0,0,-0.0995543,0,186.418805)"/>
<path style=" stroke:none;fill-rule:evenodd;fill:rgb(51.062012%,57.099915%,77.166748%);fill-opacity:1;" d="M 91.113281 13.566406 L 39.734375 15.0625 L 44.851562 51.808594 L 91.113281 13.566406 "/>
<path style="fill:none;stroke-width:5.938;stroke-linecap:butt;stroke-linejoin:miter;stroke:rgb(13.729858%,12.159729%,12.548828%);stroke-opacity:1;stroke-miterlimit:4;" d="M 915.211472 1736.26168 L 399.122448 1721.23377 L 450.523392 1352.127904 Z M 915.211472 1736.26168 " transform="matrix(0.0995543,0,0,-0.0995543,0,186.418805)"/>
<path style=" stroke:none;fill-rule:evenodd;fill:rgb(84.625244%,49.804688%,32.055664%);fill-opacity:1;" d="M 128.066406 173.433594 L 135.8125 132.496094 L 174.625 134.582031 L 128.066406 173.433594 "/>
<path style="fill:none;stroke-width:5.938;stroke-linecap:butt;stroke-linejoin:miter;stroke:rgb(13.729858%,12.159729%,12.548828%);stroke-opacity:1;stroke-miterlimit:4;" d="M 1286.396918 130.433396 L 1364.204607 541.640952 L 1754.067038 520.6882 Z M 1286.396918 130.433396 " transform="matrix(0.0995543,0,0,-0.0995543,0,186.418805)"/>
<path style=" stroke:none;fill-rule:evenodd;fill:rgb(91.281128%,67.155457%,49.372864%);fill-opacity:1;" d="M 168.96875 82.429688 L 135.8125 132.496094 L 174.625 134.582031 L 168.96875 82.429688 "/>
<path style="fill:none;stroke-width:5.938;stroke-linecap:butt;stroke-linejoin:miter;stroke:rgb(13.729858%,12.159729%,12.548828%);stroke-opacity:1;stroke-miterlimit:4;" d="M 1697.251337 1044.546222 L 1364.204607 541.640952 L 1754.067038 520.6882 Z M 1697.251337 1044.546222 " transform="matrix(0.0995543,0,0,-0.0995543,0,186.418805)"/>
<path style=" stroke:none;fill-rule:evenodd;fill:rgb(43.217468%,36.643982%,55.567932%);fill-opacity:1;" d="M 6.550781 65.441406 L 44.851562 51.808594 L 18.039062 118.75 L 6.550781 65.441406 "/>
<path style="fill:none;stroke-width:5.938;stroke-linecap:butt;stroke-linejoin:miter;stroke:rgb(13.729858%,12.159729%,12.548828%);stroke-opacity:1;stroke-miterlimit:4;" d="M 65.801056 1215.18951 L 450.523392 1352.127904 L 181.198138 679.717229 Z M 65.801056 1215.18951 " transform="matrix(0.0995543,0,0,-0.0995543,0,186.418805)"/>
<path style=" stroke:none;fill-rule:evenodd;fill:rgb(73.820496%,41.397095%,36.978149%);fill-opacity:1;" d="M 128.066406 173.433594 L 72.804688 167.496094 L 135.8125 132.496094 L 128.066406 173.433594 "/>
<path style="fill:none;stroke-width:5.938;stroke-linecap:butt;stroke-linejoin:miter;stroke:rgb(13.729858%,12.159729%,12.548828%);stroke-opacity:1;stroke-miterlimit:4;" d="M 1286.396918 130.433396 L 731.305956 190.074187 L 1364.204607 541.640952 Z M 1286.396918 130.433396 " transform="matrix(0.0995543,0,0,-0.0995543,0,186.418805)"/>
<path style=" stroke:none;fill-rule:evenodd;fill:rgb(86.399841%,78.88031%,74.165344%);fill-opacity:1;" d="M 168.96875 82.429688 L 119.128906 59.273438 L 150.527344 25.269531 L 168.96875 82.429688 "/>
<path style="fill:none;stroke-width:5.938;stroke-linecap:butt;stroke-linejoin:miter;stroke:rgb(13.729858%,12.159729%,12.548828%);stroke-opacity:1;stroke-miterlimit:4;" d="M 1697.251337 1044.546222 L 1196.621834 1277.145305 L 1512.011751 1618.706543 Z M 1697.251337 1044.546222 " transform="matrix(0.0995543,0,0,-0.0995543,0,186.418805)"/>
<path style=" stroke:none;fill-rule:evenodd;fill:rgb(76.24054%,75.860596%,81.636047%);fill-opacity:1;" d="M 91.113281 13.566406 L 119.128906 59.273438 L 150.527344 25.269531 L 91.113281 13.566406 "/>
<path style="fill:none;stroke-width:5.938;stroke-linecap:butt;stroke-linejoin:miter;stroke:rgb(13.729858%,12.159729%,12.548828%);stroke-opacity:1;stroke-miterlimit:4;" d="M 915.211472 1736.26168 L 1196.621834 1277.145305 L 1512.011751 1618.706543 Z M 915.211472 1736.26168 " transform="matrix(0.0995543,0,0,-0.0995543,0,186.418805)"/>
<path style=" stroke:none;fill-rule:evenodd;fill:rgb(67.362976%,62.750244%,73.686218%);fill-opacity:1;" d="M 91.113281 13.566406 L 119.128906 59.273438 L 44.851562 51.808594 L 91.113281 13.566406 "/>
<path style="fill:none;stroke-width:5.938;stroke-linecap:butt;stroke-linejoin:miter;stroke:rgb(13.729858%,12.159729%,12.548828%);stroke-opacity:1;stroke-miterlimit:4;" d="M 915.211472 1736.26168 L 1196.621834 1277.145305 L 450.523392 1352.127904 Z M 915.211472 1736.26168 " transform="matrix(0.0995543,0,0,-0.0995543,0,186.418805)"/>
<path style=" stroke:none;fill-rule:evenodd;fill:rgb(83.509827%,66.925049%,62.121582%);fill-opacity:1;" d="M 168.96875 82.429688 L 119.128906 59.273438 L 135.8125 132.496094 L 168.96875 82.429688 "/>
<path style="fill:none;stroke-width:5.938;stroke-linecap:butt;stroke-linejoin:miter;stroke:rgb(13.729858%,12.159729%,12.548828%);stroke-opacity:1;stroke-miterlimit:4;" d="M 1697.251337 1044.546222 L 1196.621834 1277.145305 L 1364.204607 541.640952 Z M 1697.251337 1044.546222 " transform="matrix(0.0995543,0,0,-0.0995543,0,186.418805)"/>
<path style=" stroke:none;fill-rule:evenodd;fill:rgb(59.066772%,44.91272%,56.863403%);fill-opacity:1;" d="M 74.117188 109.902344 L 44.851562 51.808594 L 18.039062 118.75 L 74.117188 109.902344 "/>
<path style="fill:none;stroke-width:5.938;stroke-linecap:butt;stroke-linejoin:miter;stroke:rgb(13.729858%,12.159729%,12.548828%);stroke-opacity:1;stroke-miterlimit:4;" d="M 744.48971 768.589854 L 450.523392 1352.127904 L 181.198138 679.717229 Z M 744.48971 768.589854 " transform="matrix(0.0995543,0,0,-0.0995543,0,186.418805)"/>
<path style=" stroke:none;fill-rule:evenodd;fill:rgb(60.592651%,39.175415%,47.904968%);fill-opacity:1;" d="M 74.117188 109.902344 L 18.039062 118.75 L 72.804688 167.496094 L 74.117188 109.902344 "/>
<path style="fill:none;stroke-width:5.938;stroke-linecap:butt;stroke-linejoin:miter;stroke:rgb(13.729858%,12.159729%,12.548828%);stroke-opacity:1;stroke-miterlimit:4;" d="M 744.48971 768.589854 L 181.198138 679.717229 L 731.305956 190.074187 Z M 744.48971 768.589854 " transform="matrix(0.0995543,0,0,-0.0995543,0,186.418805)"/>
<path style=" stroke:none;fill-rule:evenodd;fill:rgb(70.620728%,47.042847%,49.317932%);fill-opacity:1;" d="M 74.117188 109.902344 L 72.804688 167.496094 L 135.8125 132.496094 L 74.117188 109.902344 "/>
<path style="fill:none;stroke-width:5.938;stroke-linecap:butt;stroke-linejoin:miter;stroke:rgb(13.729858%,12.159729%,12.548828%);stroke-opacity:1;stroke-miterlimit:4;" d="M 744.48971 768.589854 L 731.305956 190.074187 L 1364.204607 541.640952 Z M 744.48971 768.589854 " transform="matrix(0.0995543,0,0,-0.0995543,0,186.418805)"/>
<path style=" stroke:none;fill-rule:evenodd;fill:rgb(67.892456%,55.400085%,63.696289%);fill-opacity:1;" d="M 74.117188 109.902344 L 119.128906 59.273438 L 44.851562 51.808594 L 74.117188 109.902344 "/>
<path style="fill:none;stroke-width:5.938;stroke-linecap:butt;stroke-linejoin:miter;stroke:rgb(13.729858%,12.159729%,12.548828%);stroke-opacity:1;stroke-miterlimit:4;" d="M 744.48971 768.589854 L 1196.621834 1277.145305 L 450.523392 1352.127904 Z M 744.48971 768.589854 " transform="matrix(0.0995543,0,0,-0.0995543,0,186.418805)"/>
<path style=" stroke:none;fill-rule:evenodd;fill:rgb(74.612427%,56.915283%,59.121704%);fill-opacity:1;" d="M 74.117188 109.902344 L 119.128906 59.273438 L 135.8125 132.496094 L 74.117188 109.902344 "/>
<path style="fill:none;stroke-width:5.938;stroke-linecap:butt;stroke-linejoin:miter;stroke:rgb(13.729858%,12.159729%,12.548828%);stroke-opacity:1;stroke-miterlimit:4;" d="M 744.48971 768.589854 L 1196.621834 1277.145305 L 1364.204607 541.640952 Z M 744.48971 768.589854 " transform="matrix(0.0995543,0,0,-0.0995543,0,186.418805)"/>
</g>
</svg>
