<?xml version="1.0" encoding="UTF-8"?>
<svg xmlns="http://www.w3.org/2000/svg" xmlns:xlink="http://www.w3.org/1999/xlink" width="209.56pt" height="200.25pt" viewBox="0 0 209.56 200.25" version="1.2">
<g id="surface1">
<path style=" stroke:none;fill-rule:nonzero;fill:rgb(78.125%,69.726562%,77.146912%);fill-opacity:1;" d="M 80.238281 81.050781 L 101.6875 60.265625 L 102.191406 111.191406 "/>
<path style="fill:none;stroke-width:5;stroke-linecap:round;stroke-linejoin:round;stroke:rgb(0%,0%,0%);stroke-opacity:1;stroke-miterlimit:10;" d="M 803.663647 1188.956578 L 1018.959176 1397.58661 L 1024.017111 886.421465 Z M 803.663647 1188.956578 " transform="matrix(0.0996269,0,0,-0.0996269,0.171791,199.502799)"/>
<path style=" stroke:none;fill-rule:nonzero;fill:rgb(75.193787%,32.493591%,23.997498%);fill-opacity:1;" d="M 101.863281 45.347656 L 101.6875 60.265625 L 66.65625 55.84375 "/>
<path style="fill:none;stroke-width:5;stroke-linecap:round;stroke-linejoin:round;stroke:rgb(0%,0%,0%);stroke-opacity:1;stroke-miterlimit:10;" d="M 1020.723572 1547.325023 L 1018.959176 1397.58661 L 667.334644 1441.970974 Z M 1020.723572 1547.325023 " transform="matrix(0.0996269,0,0,-0.0996269,0.171791,199.502799)"/>
<path style=" stroke:none;fill-rule:nonzero;fill:rgb(61.914062%,56.443787%,77.146912%);fill-opacity:1;" d="M 123.695312 80.769531 L 101.6875 60.265625 L 102.191406 111.191406 "/>
<path style="fill:none;stroke-width:5;stroke-linecap:round;stroke-linejoin:round;stroke:rgb(0%,0%,0%);stroke-opacity:1;stroke-miterlimit:10;" d="M 1239.861564 1191.779611 L 1018.959176 1397.58661 L 1024.017111 886.421465 Z M 1239.861564 1191.779611 " transform="matrix(0.0996269,0,0,-0.0996269,0.171791,199.502799)"/>
<path style=" stroke:none;fill-rule:nonzero;fill:rgb(44.604492%,7.788086%,24.510193%);fill-opacity:1;" d="M 101.863281 45.347656 L 101.6875 60.265625 L 137.363281 55.410156 "/>
<path style="fill:none;stroke-width:5;stroke-linecap:round;stroke-linejoin:round;stroke:rgb(0%,0%,0%);stroke-opacity:1;stroke-miterlimit:10;" d="M 1020.723572 1547.325023 L 1018.959176 1397.58661 L 1377.05316 1446.323151 Z M 1020.723572 1547.325023 " transform="matrix(0.0996269,0,0,-0.0996269,0.171791,199.502799)"/>
<path style=" stroke:none;fill-rule:nonzero;fill:rgb(88.867188%,66.40625%,59.375%);fill-opacity:1;" d="M 101.6875 60.265625 L 80.238281 81.050781 L 66.65625 55.84375 "/>
<path style="fill:none;stroke-width:5;stroke-linecap:round;stroke-linejoin:round;stroke:rgb(0%,0%,0%);stroke-opacity:1;stroke-miterlimit:10;" d="M 1018.959176 1397.58661 L 803.663647 1188.956578 L 667.334644 1441.970974 Z M 1018.959176 1397.58661 " transform="matrix(0.0996269,0,0,-0.0996269,0.171791,199.502799)"/>
<path style=" stroke:none;fill-rule:nonzero;fill:rgb(45.800781%,31.297302%,59.568787%);fill-opacity:1;" d="M 101.6875 60.265625 L 123.695312 80.769531 L 137.363281 55.410156 "/>
<path style="fill:none;stroke-width:5;stroke-linecap:round;stroke-linejoin:round;stroke:rgb(0%,0%,0%);stroke-opacity:1;stroke-miterlimit:10;" d="M 1018.959176 1397.58661 L 1239.861564 1191.779611 L 1377.05316 1446.323151 Z M 1018.959176 1397.58661 " transform="matrix(0.0996269,0,0,-0.0996269,0.171791,199.502799)"/>
<path style=" stroke:none;fill-rule:nonzero;fill:rgb(69.334412%,67.96875%,83.201599%);fill-opacity:1;" d="M 137.96875 121.167969 L 153.722656 95.996094 L 102.191406 111.191406 "/>
<path style="fill:none;stroke-width:5;stroke-linecap:round;stroke-linejoin:round;stroke:rgb(0%,0%,0%);stroke-opacity:1;stroke-miterlimit:10;" d="M 1383.130524 786.282186 L 1541.259621 1038.943703 L 1024.017111 886.421465 Z M 1383.130524 786.282186 " transform="matrix(0.0996269,0,0,-0.0996269,0.171791,199.502799)"/>
<path style=" stroke:none;fill-rule:nonzero;fill:rgb(0%,0%,45.896912%);fill-opacity:1;" d="M 161.15625 85.851562 L 153.722656 95.996094 L 161.097656 121.121094 "/>
<path style="fill:none;stroke-width:5;stroke-linecap:round;stroke-linejoin:round;stroke:rgb(0%,0%,0%);stroke-opacity:1;stroke-miterlimit:10;" d="M 1615.87397 1140.768961 L 1541.259621 1038.943703 L 1615.285838 786.752692 Z M 1615.87397 1140.768961 " transform="matrix(0.0996269,0,0,-0.0996269,0.171791,199.502799)"/>
<path style=" stroke:none;fill-rule:nonzero;fill:rgb(37.010193%,52.34375%,87.889099%);fill-opacity:1;" d="M 137.96875 121.167969 L 153.722656 95.996094 L 161.097656 121.121094 "/>
<path style="fill:none;stroke-width:5;stroke-linecap:round;stroke-linejoin:round;stroke:rgb(0%,0%,0%);stroke-opacity:1;stroke-miterlimit:10;" d="M 1383.130524 786.282186 L 1541.259621 1038.943703 L 1615.285838 786.752692 Z M 1383.130524 786.282186 " transform="matrix(0.0996269,0,0,-0.0996269,0.171791,199.502799)"/>
<path style=" stroke:none;fill-rule:nonzero;fill:rgb(75.389099%,59.959412%,68.75%);fill-opacity:1;" d="M 153.722656 95.996094 L 123.695312 80.769531 L 102.191406 111.191406 "/>
<path style="fill:none;stroke-width:5;stroke-linecap:round;stroke-linejoin:round;stroke:rgb(0%,0%,0%);stroke-opacity:1;stroke-miterlimit:10;" d="M 1541.259621 1038.943703 L 1239.861564 1191.779611 L 1024.017111 886.421465 Z M 1541.259621 1038.943703 " transform="matrix(0.0996269,0,0,-0.0996269,0.171791,199.502799)"/>
<path style=" stroke:none;fill-rule:nonzero;fill:rgb(22.801208%,0%,29.393005%);fill-opacity:1;" d="M 153.722656 95.996094 L 161.15625 85.851562 L 137.363281 55.410156 "/>
<path style="fill:none;stroke-width:5;stroke-linecap:round;stroke-linejoin:round;stroke:rgb(0%,0%,0%);stroke-opacity:1;stroke-miterlimit:10;" d="M 1541.259621 1038.943703 L 1615.87397 1140.768961 L 1377.05316 1446.323151 Z M 1541.259621 1038.943703 " transform="matrix(0.0996269,0,0,-0.0996269,0.171791,199.502799)"/>
<path style=" stroke:none;fill-rule:nonzero;fill:rgb(65.039062%,38.792419%,50.78125%);fill-opacity:1;" d="M 123.695312 80.769531 L 153.722656 95.996094 L 137.363281 55.410156 "/>
<path style="fill:none;stroke-width:5;stroke-linecap:round;stroke-linejoin:round;stroke:rgb(0%,0%,0%);stroke-opacity:1;stroke-miterlimit:10;" d="M 1239.861564 1191.779611 L 1541.259621 1038.943703 L 1377.05316 1446.323151 Z M 1239.861564 1191.779611 " transform="matrix(0.0996269,0,0,-0.0996269,0.171791,199.502799)"/>
<path style=" stroke:none;fill-rule:nonzero;fill:rgb(97.264099%,84.764099%,44.309998%);fill-opacity:1;" d="M 43.199219 86.628906 L 50.210938 96.691406 L 44.03125 121.945312 "/>
<path style="fill:none;stroke-width:5;stroke-linecap:round;stroke-linejoin:round;stroke:rgb(0%,0%,0%);stroke-opacity:1;stroke-miterlimit:10;" d="M 431.885791 1132.966409 L 502.26559 1031.964537 L 440.237266 778.479635 Z M 431.885791 1132.966409 " transform="matrix(0.0996269,0,0,-0.0996269,0.171791,199.502799)"/>
<path style=" stroke:none;fill-rule:nonzero;fill:rgb(69.334412%,67.96875%,83.201599%);fill-opacity:1;" d="M 66.652344 121.667969 L 50.210938 96.691406 L 102.191406 111.191406 "/>
<path style="fill:none;stroke-width:5;stroke-linecap:round;stroke-linejoin:round;stroke:rgb(0%,0%,0%);stroke-opacity:1;stroke-miterlimit:10;" d="M 667.295435 781.26346 L 502.26559 1031.964537 L 1024.017111 886.421465 Z M 667.295435 781.26346 " transform="matrix(0.0996269,0,0,-0.0996269,0.171791,199.502799)"/>
<path style=" stroke:none;fill-rule:nonzero;fill:rgb(84.375%,91.796875%,88.28125%);fill-opacity:1;" d="M 66.652344 121.667969 L 50.210938 96.691406 L 44.03125 121.945312 "/>
<path style="fill:none;stroke-width:5;stroke-linecap:round;stroke-linejoin:round;stroke:rgb(0%,0%,0%);stroke-opacity:1;stroke-miterlimit:10;" d="M 667.295435 781.26346 L 502.26559 1031.964537 L 440.237266 778.479635 Z M 667.295435 781.26346 " transform="matrix(0.0996269,0,0,-0.0996269,0.171791,199.502799)"/>
<path style=" stroke:none;fill-rule:nonzero;fill:rgb(66.209412%,52.539062%,68.75%);fill-opacity:1;" d="M 50.210938 96.691406 L 80.238281 81.050781 L 102.191406 111.191406 "/>
<path style="fill:none;stroke-width:5;stroke-linecap:round;stroke-linejoin:round;stroke:rgb(0%,0%,0%);stroke-opacity:1;stroke-miterlimit:10;" d="M 502.26559 1031.964537 L 803.663647 1188.956578 L 1024.017111 886.421465 Z M 502.26559 1031.964537 " transform="matrix(0.0996269,0,0,-0.0996269,0.171791,199.502799)"/>
<path style=" stroke:none;fill-rule:nonzero;fill:rgb(90.039062%,51.5625%,28.393555%);fill-opacity:1;" d="M 50.210938 96.691406 L 43.199219 86.628906 L 66.65625 55.84375 "/>
<path style="fill:none;stroke-width:5;stroke-linecap:round;stroke-linejoin:round;stroke:rgb(0%,0%,0%);stroke-opacity:1;stroke-miterlimit:10;" d="M 502.26559 1031.964537 L 431.885791 1132.966409 L 667.334644 1441.970974 Z M 502.26559 1031.964537 " transform="matrix(0.0996269,0,0,-0.0996269,0.171791,199.502799)"/>
<path style=" stroke:none;fill-rule:nonzero;fill:rgb(72.264099%,44.700623%,50.78125%);fill-opacity:1;" d="M 80.238281 81.050781 L 50.210938 96.691406 L 66.65625 55.84375 "/>
<path style="fill:none;stroke-width:5;stroke-linecap:round;stroke-linejoin:round;stroke:rgb(0%,0%,0%);stroke-opacity:1;stroke-miterlimit:10;" d="M 803.663647 1188.956578 L 502.26559 1031.964537 L 667.334644 1441.970974 Z M 803.663647 1188.956578 " transform="matrix(0.0996269,0,0,-0.0996269,0.171791,199.502799)"/>
<path style=" stroke:none;fill-rule:nonzero;fill:rgb(78.125%,69.726562%,77.146912%);fill-opacity:1;" d="M 102.550781 147.03125 L 135.171875 156.449219 L 102.191406 111.191406 "/>
<path style="fill:none;stroke-width:5;stroke-linecap:round;stroke-linejoin:round;stroke:rgb(0%,0%,0%);stroke-opacity:1;stroke-miterlimit:10;" d="M 1027.624321 526.680712 L 1355.057022 432.148291 L 1024.017111 886.421465 Z M 1027.624321 526.680712 " transform="matrix(0.0996269,0,0,-0.0996269,0.171791,199.502799)"/>
<path style=" stroke:none;fill-rule:nonzero;fill:rgb(61.914062%,56.443787%,77.146912%);fill-opacity:1;" d="M 102.550781 147.03125 L 69.855469 156.941406 L 102.191406 111.191406 "/>
<path style="fill:none;stroke-width:5;stroke-linecap:round;stroke-linejoin:round;stroke:rgb(0%,0%,0%);stroke-opacity:1;stroke-miterlimit:10;" d="M 1027.624321 526.680712 L 699.446653 427.207982 L 1024.017111 886.421465 Z M 1027.624321 526.680712 " transform="matrix(0.0996269,0,0,-0.0996269,0.171791,199.502799)"/>
<path style=" stroke:none;fill-rule:nonzero;fill:rgb(66.209412%,52.539062%,68.75%);fill-opacity:1;" d="M 135.171875 156.449219 L 137.96875 121.167969 L 102.191406 111.191406 "/>
<path style="fill:none;stroke-width:5;stroke-linecap:round;stroke-linejoin:round;stroke:rgb(0%,0%,0%);stroke-opacity:1;stroke-miterlimit:10;" d="M 1355.057022 432.148291 L 1383.130524 786.282186 L 1024.017111 886.421465 Z M 1355.057022 432.148291 " transform="matrix(0.0996269,0,0,-0.0996269,0.171791,199.502799)"/>
<path style=" stroke:none;fill-rule:nonzero;fill:rgb(75.389099%,59.959412%,68.75%);fill-opacity:1;" d="M 69.855469 156.941406 L 66.652344 121.667969 L 102.191406 111.191406 "/>
<path style="fill:none;stroke-width:5;stroke-linecap:round;stroke-linejoin:round;stroke:rgb(0%,0%,0%);stroke-opacity:1;stroke-miterlimit:10;" d="M 699.446653 427.207982 L 667.295435 781.26346 L 1024.017111 886.421465 Z M 699.446653 427.207982 " transform="matrix(0.0996269,0,0,-0.0996269,0.171791,199.502799)"/>
<path style=" stroke:none;fill-rule:nonzero;fill:rgb(74.21875%,90.429688%,94.921875%);fill-opacity:1;" d="M 102.550781 147.03125 L 135.171875 156.449219 L 102.980469 163.820312 "/>
<path style="fill:none;stroke-width:5;stroke-linecap:round;stroke-linejoin:round;stroke:rgb(0%,0%,0%);stroke-opacity:1;stroke-miterlimit:10;" d="M 1027.624321 526.680712 L 1355.057022 432.148291 L 1031.937289 358.161283 Z M 1027.624321 526.680712 " transform="matrix(0.0996269,0,0,-0.0996269,0.171791,199.502799)"/>
<path style="fill-rule:nonzero;fill:rgb(0%,0.39978%,57.421875%);fill-opacity:1;stroke-width:5;stroke-linecap:round;stroke-linejoin:round;stroke:rgb(0%,0%,0%);stroke-opacity:1;stroke-miterlimit:10;" d="M 1404.891409 449.713834 L 1355.057022 432.148291 L 1478.525538 600.393258 " transform="matrix(0.0996269,0,0,-0.0996269,0.171791,199.502799)"/>
<path style="fill-rule:nonzero;fill:rgb(0%,0.39978%,57.421875%);fill-opacity:1;stroke-width:5;stroke-linecap:round;stroke-linejoin:round;stroke:rgb(0%,0%,0%);stroke-opacity:1;stroke-miterlimit:10;" d="M 1478.525538 600.393258 L 1615.285838 786.752692 L 1404.891409 449.713834 " transform="matrix(0.0996269,0,0,-0.0996269,0.171791,199.502799)"/>
<path style="fill-rule:nonzero;fill:rgb(66.796875%,73.4375%,90.039062%);fill-opacity:1;stroke-width:5;stroke-linecap:round;stroke-linejoin:round;stroke:rgb(0%,0%,0%);stroke-opacity:1;stroke-miterlimit:10;" d="M 1404.891409 449.713834 L 1614.344827 225.08661 L 1327.140356 290.722144 " transform="matrix(0.0996269,0,0,-0.0996269,0.171791,199.502799)"/>
<path style=" stroke:none;fill-rule:nonzero;fill:rgb(40.087891%,32.688904%,65.818787%);fill-opacity:1;" d="M 135.171875 156.449219 L 137.96875 121.167969 L 161.097656 121.121094 "/>
<path style="fill:none;stroke-width:5;stroke-linecap:round;stroke-linejoin:round;stroke:rgb(0%,0%,0%);stroke-opacity:1;stroke-miterlimit:10;" d="M 1355.057022 432.148291 L 1383.130524 786.282186 L 1615.285838 786.752692 Z M 1355.057022 432.148291 " transform="matrix(0.0996269,0,0,-0.0996269,0.171791,199.502799)"/>
<path style=" stroke:none;fill-rule:nonzero;fill:rgb(20.605469%,0%,0%);fill-opacity:1;" d="M 135.171875 156.449219 L 140.136719 154.699219 L 102.980469 163.820312 "/>
<path style="fill:none;stroke-width:5;stroke-linecap:round;stroke-linejoin:round;stroke:rgb(0%,0%,0%);stroke-opacity:1;stroke-miterlimit:10;" d="M 1355.057022 432.148291 L 1404.891409 449.713834 L 1031.937289 358.161283 Z M 1355.057022 432.148291 " transform="matrix(0.0996269,0,0,-0.0996269,0.171791,199.502799)"/>
<path style="fill-rule:nonzero;fill:rgb(66.796875%,73.4375%,90.039062%);fill-opacity:1;stroke-width:5;stroke-linecap:round;stroke-linejoin:round;stroke:rgb(0%,0%,0%);stroke-opacity:1;stroke-miterlimit:10;" d="M 1327.140356 290.722144 L 1031.937289 358.161283 L 1404.891409 449.713834 " transform="matrix(0.0996269,0,0,-0.0996269,0.171791,199.502799)"/>
<path style="fill-rule:nonzero;fill:rgb(76.171875%,92.1875%,55.664062%);fill-opacity:1;stroke-width:5;stroke-linecap:round;stroke-linejoin:round;stroke:rgb(0%,0%,0%);stroke-opacity:1;stroke-miterlimit:10;" d="M 655.572004 444.106976 L 699.446653 427.207982 L 576.487851 593.845389 " transform="matrix(0.0996269,0,0,-0.0996269,0.171791,199.502799)"/>
<path style="fill-rule:nonzero;fill:rgb(76.171875%,92.1875%,55.664062%);fill-opacity:1;stroke-width:5;stroke-linecap:round;stroke-linejoin:round;stroke:rgb(0%,0%,0%);stroke-opacity:1;stroke-miterlimit:10;" d="M 576.487851 593.845389 L 440.237266 778.479635 L 655.572004 444.106976 " transform="matrix(0.0996269,0,0,-0.0996269,0.171791,199.502799)"/>
<path style="fill-rule:nonzero;fill:rgb(66.796875%,73.4375%,90.039062%);fill-opacity:1;stroke-width:5;stroke-linecap:round;stroke-linejoin:round;stroke:rgb(0%,0%,0%);stroke-opacity:1;stroke-miterlimit:10;" d="M 655.572004 444.106976 L 453.489841 216.107795 L 738.969125 286.213132 " transform="matrix(0.0996269,0,0,-0.0996269,0.171791,199.502799)"/>
<path style=" stroke:none;fill-rule:nonzero;fill:rgb(43.089294%,64.451599%,94.726562%);fill-opacity:1;" d="M 102.550781 147.03125 L 69.855469 156.941406 L 102.980469 163.820312 "/>
<path style="fill:none;stroke-width:5;stroke-linecap:round;stroke-linejoin:round;stroke:rgb(0%,0%,0%);stroke-opacity:1;stroke-miterlimit:10;" d="M 1027.624321 526.680712 L 699.446653 427.207982 L 1031.937289 358.161283 Z M 1027.624321 526.680712 " transform="matrix(0.0996269,0,0,-0.0996269,0.171791,199.502799)"/>
<path style=" stroke:none;fill-rule:nonzero;fill:rgb(92.1875%,75.389099%,65.818787%);fill-opacity:1;" d="M 69.855469 156.941406 L 66.652344 121.667969 L 44.03125 121.945312 "/>
<path style="fill:none;stroke-width:5;stroke-linecap:round;stroke-linejoin:round;stroke:rgb(0%,0%,0%);stroke-opacity:1;stroke-miterlimit:10;" d="M 699.446653 427.207982 L 667.295435 781.26346 L 440.237266 778.479635 Z M 699.446653 427.207982 " transform="matrix(0.0996269,0,0,-0.0996269,0.171791,199.502799)"/>
<path style=" stroke:none;fill-rule:nonzero;fill:rgb(0%,0%,0%);fill-opacity:1;" d="M 69.855469 156.941406 L 65.484375 155.257812 L 102.980469 163.820312 "/>
<path style="fill:none;stroke-width:5;stroke-linecap:round;stroke-linejoin:round;stroke:rgb(0%,0%,0%);stroke-opacity:1;stroke-miterlimit:10;" d="M 699.446653 427.207982 L 655.572004 444.106976 L 1031.937289 358.161283 Z M 699.446653 427.207982 " transform="matrix(0.0996269,0,0,-0.0996269,0.171791,199.502799)"/>
<path style="fill-rule:nonzero;fill:rgb(66.796875%,73.4375%,90.039062%);fill-opacity:1;stroke-width:5;stroke-linecap:round;stroke-linejoin:round;stroke:rgb(0%,0%,0%);stroke-opacity:1;stroke-miterlimit:10;" d="M 738.969125 286.213132 L 1031.937289 358.161283 L 655.572004 444.106976 " transform="matrix(0.0996269,0,0,-0.0996269,0.171791,199.502799)"/>
<path style=" stroke:none;fill-rule:nonzero;fill:rgb(78.125%,58.201599%,63.084412%);fill-opacity:1;" d="M 101.863281 45.347656 L 101.734375 9.816406 L 66.65625 55.84375 "/>
<path style="fill:none;stroke-width:5;stroke-linecap:round;stroke-linejoin:round;stroke:rgb(0%,0%,0%);stroke-opacity:1;stroke-miterlimit:10;" d="M 1020.723572 1547.325023 L 1019.429682 1903.968282 L 667.334644 1441.970974 Z M 1020.723572 1547.325023 " transform="matrix(0.0996269,0,0,-0.0996269,0.171791,199.502799)"/>
<path style=" stroke:none;fill-rule:nonzero;fill:rgb(61.914062%,44.993591%,62.889099%);fill-opacity:1;" d="M 101.863281 45.347656 L 101.734375 9.816406 L 137.363281 55.410156 "/>
<path style="fill:none;stroke-width:5;stroke-linecap:round;stroke-linejoin:round;stroke:rgb(0%,0%,0%);stroke-opacity:1;stroke-miterlimit:10;" d="M 1020.723572 1547.325023 L 1019.429682 1903.968282 L 1377.05316 1446.323151 Z M 1020.723572 1547.325023 " transform="matrix(0.0996269,0,0,-0.0996269,0.171791,199.502799)"/>
<path style=" stroke:none;fill-rule:nonzero;fill:rgb(52.929688%,50.976562%,77.734375%);fill-opacity:1;" d="M 192.386719 71 L 161.15625 85.851562 L 161.097656 121.121094 "/>
<path style="fill:none;stroke-width:5;stroke-linecap:round;stroke-linejoin:round;stroke:rgb(0%,0%,0%);stroke-opacity:1;stroke-miterlimit:10;" d="M 1929.348338 1289.840824 L 1615.87397 1140.768961 L 1615.285838 786.752692 Z M 1929.348338 1289.840824 " transform="matrix(0.0996269,0,0,-0.0996269,0.171791,199.502799)"/>
<path style=" stroke:none;fill-rule:nonzero;fill:rgb(61.914062%,44.993591%,62.889099%);fill-opacity:1;" d="M 161.15625 85.851562 L 192.386719 71 L 137.363281 55.410156 "/>
<path style="fill:none;stroke-width:5;stroke-linecap:round;stroke-linejoin:round;stroke:rgb(0%,0%,0%);stroke-opacity:1;stroke-miterlimit:10;" d="M 1615.87397 1140.768961 L 1929.348338 1289.840824 L 1377.05316 1446.323151 Z M 1615.87397 1140.768961 " transform="matrix(0.0996269,0,0,-0.0996269,0.171791,199.502799)"/>
<path style=" stroke:none;fill-rule:nonzero;fill:rgb(83.984375%,76.5625%,77.929688%);fill-opacity:1;" d="M 11.964844 72.15625 L 43.199219 86.628906 L 44.03125 121.945312 "/>
<path style="fill:none;stroke-width:5;stroke-linecap:round;stroke-linejoin:round;stroke:rgb(0%,0%,0%);stroke-opacity:1;stroke-miterlimit:10;" d="M 118.372214 1278.235019 L 431.885791 1132.966409 L 440.237266 778.479635 Z M 118.372214 1278.235019 " transform="matrix(0.0996269,0,0,-0.0996269,0.171791,199.502799)"/>
<path style=" stroke:none;fill-rule:nonzero;fill:rgb(78.125%,58.201599%,63.084412%);fill-opacity:1;" d="M 43.199219 86.628906 L 11.964844 72.15625 L 66.65625 55.84375 "/>
<path style="fill:none;stroke-width:5;stroke-linecap:round;stroke-linejoin:round;stroke:rgb(0%,0%,0%);stroke-opacity:1;stroke-miterlimit:10;" d="M 431.885791 1132.966409 L 118.372214 1278.235019 L 667.334644 1441.970974 Z M 431.885791 1132.966409 " transform="matrix(0.0996269,0,0,-0.0996269,0.171791,199.502799)"/>
<path style="fill-rule:nonzero;fill:rgb(0%,0%,0%);fill-opacity:1;stroke-width:5;stroke-linecap:round;stroke-linejoin:round;stroke:rgb(0%,0%,0%);stroke-opacity:1;stroke-miterlimit:10;" d="M 1644.261142 1482.748127 L 1602.190098 1864.053722 L 1630.812523 1606.255852 " transform="matrix(0.0996269,0,0,-0.0996269,0.171791,199.502799)"/>
<path style="fill-rule:nonzero;fill:rgb(44.604492%,7.788086%,24.510193%);fill-opacity:1;stroke-width:5;stroke-linecap:round;stroke-linejoin:round;stroke:rgb(0%,0%,0%);stroke-opacity:1;stroke-miterlimit:10;" d="M 1644.261142 1482.748127 L 1929.348338 1289.840824 L 1656.847168 1367.042954 " transform="matrix(0.0996269,0,0,-0.0996269,0.171791,199.502799)"/>
<path style=" stroke:none;fill-rule:nonzero;fill:rgb(82.226562%,98.631287%,87.693787%);fill-opacity:1;" d="M 192.386719 71 L 163.984375 51.78125 L 165.769531 67.546875 "/>
<path style="fill:none;stroke-width:5;stroke-linecap:round;stroke-linejoin:round;stroke:rgb(0%,0%,0%);stroke-opacity:1;stroke-miterlimit:10;" d="M 1929.348338 1289.840824 L 1644.261142 1482.748127 L 1662.179565 1324.501404 Z M 1929.348338 1289.840824 " transform="matrix(0.0996269,0,0,-0.0996269,0.171791,199.502799)"/>
<path style="fill-rule:nonzero;fill:rgb(0%,0%,0%);fill-opacity:1;stroke-width:5;stroke-linecap:round;stroke-linejoin:round;stroke:rgb(0%,0%,0%);stroke-opacity:1;stroke-miterlimit:10;" d="M 1630.812523 1606.255852 L 1662.179565 1324.501404 L 1644.261142 1482.748127 " transform="matrix(0.0996269,0,0,-0.0996269,0.171791,199.502799)"/>
<path style="fill-rule:nonzero;fill:rgb(44.604492%,7.788086%,24.510193%);fill-opacity:1;stroke-width:5;stroke-linecap:round;stroke-linejoin:round;stroke:rgb(0%,0%,0%);stroke-opacity:1;stroke-miterlimit:10;" d="M 1656.847168 1367.042954 L 1377.05316 1446.323151 L 1644.261142 1482.748127 " transform="matrix(0.0996269,0,0,-0.0996269,0.171791,199.502799)"/>
<path style="fill-rule:nonzero;fill:rgb(22.801208%,0%,29.393005%);fill-opacity:1;stroke-width:5;stroke-linecap:round;stroke-linejoin:round;stroke:rgb(0%,0%,0%);stroke-opacity:1;stroke-miterlimit:10;" d="M 1194.026475 1680.556531 L 1019.429682 1903.968282 L 1257.035019 1744.113998 " transform="matrix(0.0996269,0,0,-0.0996269,0.171791,199.502799)"/>
<path style=" stroke:none;fill-rule:nonzero;fill:rgb(66.209412%,95.3125%,94.921875%);fill-opacity:1;" d="M 125.40625 25.742188 L 101.734375 9.816406 L 102.339844 24.523438 "/>
<path style="fill:none;stroke-width:5;stroke-linecap:round;stroke-linejoin:round;stroke:rgb(0%,0%,0%);stroke-opacity:1;stroke-miterlimit:10;" d="M 1257.035019 1744.113998 L 1019.429682 1903.968282 L 1025.507046 1756.347144 Z M 1257.035019 1744.113998 " transform="matrix(0.0996269,0,0,-0.0996269,0.171791,199.502799)"/>
<path style="fill-rule:nonzero;fill:rgb(54.101562%,0%,0%);fill-opacity:1;stroke-width:5;stroke-linecap:round;stroke-linejoin:round;stroke:rgb(0%,0%,0%);stroke-opacity:1;stroke-miterlimit:10;" d="M 1257.035019 1744.113998 L 1025.507046 1756.347144 L 1324.552575 1812.180478 " transform="matrix(0.0996269,0,0,-0.0996269,0.171791,199.502799)"/>
<path style="fill-rule:nonzero;fill:rgb(54.101562%,0%,0%);fill-opacity:1;stroke-width:5;stroke-linecap:round;stroke-linejoin:round;stroke:rgb(0%,0%,0%);stroke-opacity:1;stroke-miterlimit:10;" d="M 1324.552575 1812.180478 L 1602.190098 1864.053722 L 1257.035019 1744.113998 " transform="matrix(0.0996269,0,0,-0.0996269,0.171791,199.502799)"/>
<path style="fill-rule:nonzero;fill:rgb(22.801208%,0%,29.393005%);fill-opacity:1;stroke-width:5;stroke-linecap:round;stroke-linejoin:round;stroke:rgb(0%,0%,0%);stroke-opacity:1;stroke-miterlimit:10;" d="M 1257.035019 1744.113998 L 1377.05316 1446.323151 L 1194.026475 1680.556531 " transform="matrix(0.0996269,0,0,-0.0996269,0.171791,199.502799)"/>
<path style=" stroke:none;fill-rule:nonzero;fill:rgb(45.800781%,31.297302%,59.568787%);fill-opacity:1;" d="M 159.792969 13.792969 L 163.984375 51.78125 L 137.363281 55.410156 "/>
<path style="fill:none;stroke-width:5;stroke-linecap:round;stroke-linejoin:round;stroke:rgb(0%,0%,0%);stroke-opacity:1;stroke-miterlimit:10;" d="M 1602.190098 1864.053722 L 1644.261142 1482.748127 L 1377.05316 1446.323151 Z M 1602.190098 1864.053722 " transform="matrix(0.0996269,0,0,-0.0996269,0.171791,199.502799)"/>
<path style=" stroke:none;fill-rule:nonzero;fill:rgb(65.039062%,38.792419%,50.78125%);fill-opacity:1;" d="M 125.40625 25.742188 L 159.792969 13.792969 L 137.363281 55.410156 "/>
<path style="fill:none;stroke-width:5;stroke-linecap:round;stroke-linejoin:round;stroke:rgb(0%,0%,0%);stroke-opacity:1;stroke-miterlimit:10;" d="M 1257.035019 1744.113998 L 1602.190098 1864.053722 L 1377.05316 1446.323151 Z M 1257.035019 1744.113998 " transform="matrix(0.0996269,0,0,-0.0996269,0.171791,199.502799)"/>
<path style=" stroke:none;fill-rule:nonzero;fill:rgb(88.867188%,66.40625%,59.375%);fill-opacity:1;" d="M 44.351562 14.441406 L 40.472656 52.539062 L 66.65625 55.84375 "/>
<path style="fill:none;stroke-width:5;stroke-linecap:round;stroke-linejoin:round;stroke:rgb(0%,0%,0%);stroke-opacity:1;stroke-miterlimit:10;" d="M 443.452388 1857.545061 L 404.518048 1475.14162 L 667.334644 1441.970974 Z M 443.452388 1857.545061 " transform="matrix(0.0996269,0,0,-0.0996269,0.171791,199.502799)"/>
<path style="fill-rule:nonzero;fill:rgb(0%,0%,10.888672%);fill-opacity:1;stroke-width:5;stroke-linecap:round;stroke-linejoin:round;stroke:rgb(0%,0%,0%);stroke-opacity:1;stroke-miterlimit:10;" d="M 404.518048 1475.14162 L 443.452388 1857.545061 L 420.593656 1599.041433 " transform="matrix(0.0996269,0,0,-0.0996269,0.171791,199.502799)"/>
<path style="fill-rule:nonzero;fill:rgb(75.193787%,32.493591%,23.997498%);fill-opacity:1;stroke-width:5;stroke-linecap:round;stroke-linejoin:round;stroke:rgb(0%,0%,0%);stroke-opacity:1;stroke-miterlimit:10;" d="M 389.422659 1359.083567 L 667.334644 1441.970974 L 404.518048 1475.14162 " transform="matrix(0.0996269,0,0,-0.0996269,0.171791,199.502799)"/>
<path style="fill-rule:nonzero;fill:rgb(0%,0%,10.888672%);fill-opacity:1;stroke-width:5;stroke-linecap:round;stroke-linejoin:round;stroke:rgb(0%,0%,0%);stroke-opacity:1;stroke-miterlimit:10;" d="M 420.593656 1599.041433 L 395.656859 1316.4636 L 404.518048 1475.14162 " transform="matrix(0.0996269,0,0,-0.0996269,0.171791,199.502799)"/>
<path style="fill-rule:nonzero;fill:rgb(75.193787%,32.493591%,23.997498%);fill-opacity:1;stroke-width:5;stroke-linecap:round;stroke-linejoin:round;stroke:rgb(0%,0%,0%);stroke-opacity:1;stroke-miterlimit:10;" d="M 404.518048 1475.14162 L 118.372214 1278.235019 L 389.422659 1359.083567 " transform="matrix(0.0996269,0,0,-0.0996269,0.171791,199.502799)"/>
<path style="fill-rule:nonzero;fill:rgb(90.039062%,51.5625%,28.393555%);fill-opacity:1;stroke-width:5;stroke-linecap:round;stroke-linejoin:round;stroke:rgb(0%,0%,0%);stroke-opacity:1;stroke-miterlimit:10;" d="M 847.616713 1678.517673 L 1019.429682 1903.968282 L 787.8625 1741.369382 " transform="matrix(0.0996269,0,0,-0.0996269,0.171791,199.502799)"/>
<path style=" stroke:none;fill-rule:nonzero;fill:rgb(23.509216%,59.764099%,94.921875%);fill-opacity:1;" d="M 78.664062 26.015625 L 101.734375 9.816406 L 102.339844 24.523438 "/>
<path style="fill:none;stroke-width:5;stroke-linecap:round;stroke-linejoin:round;stroke:rgb(0%,0%,0%);stroke-opacity:1;stroke-miterlimit:10;" d="M 787.8625 1741.369382 L 1019.429682 1903.968282 L 1025.507046 1756.347144 Z M 787.8625 1741.369382 " transform="matrix(0.0996269,0,0,-0.0996269,0.171791,199.502799)"/>
<path style="fill-rule:nonzero;fill:rgb(27.293396%,0%,0%);fill-opacity:1;stroke-width:5;stroke-linecap:round;stroke-linejoin:round;stroke:rgb(0%,0%,0%);stroke-opacity:1;stroke-miterlimit:10;" d="M 787.8625 1741.369382 L 1025.507046 1756.347144 L 723.873736 1808.808521 " transform="matrix(0.0996269,0,0,-0.0996269,0.171791,199.502799)"/>
<path style="fill-rule:nonzero;fill:rgb(27.293396%,0%,0%);fill-opacity:1;stroke-width:5;stroke-linecap:round;stroke-linejoin:round;stroke:rgb(0%,0%,0%);stroke-opacity:1;stroke-miterlimit:10;" d="M 723.873736 1808.808521 L 443.452388 1857.545061 L 787.8625 1741.369382 " transform="matrix(0.0996269,0,0,-0.0996269,0.171791,199.502799)"/>
<path style="fill-rule:nonzero;fill:rgb(90.039062%,51.5625%,28.393555%);fill-opacity:1;stroke-width:5;stroke-linecap:round;stroke-linejoin:round;stroke:rgb(0%,0%,0%);stroke-opacity:1;stroke-miterlimit:10;" d="M 787.8625 1741.369382 L 667.334644 1441.970974 L 847.616713 1678.517673 " transform="matrix(0.0996269,0,0,-0.0996269,0.171791,199.502799)"/>
<path style=" stroke:none;fill-rule:nonzero;fill:rgb(72.264099%,44.700623%,50.78125%);fill-opacity:1;" d="M 78.664062 26.015625 L 44.351562 14.441406 L 66.65625 55.84375 "/>
<path style="fill:none;stroke-width:5;stroke-linecap:round;stroke-linejoin:round;stroke:rgb(0%,0%,0%);stroke-opacity:1;stroke-miterlimit:10;" d="M 787.8625 1741.369382 L 443.452388 1857.545061 L 667.334644 1441.970974 Z M 787.8625 1741.369382 " transform="matrix(0.0996269,0,0,-0.0996269,0.171791,199.502799)"/>
<path style=" stroke:none;fill-rule:nonzero;fill:rgb(52.929688%,50.976562%,77.734375%);fill-opacity:1;" d="M 161.003906 177.078125 L 140.136719 154.699219 L 161.097656 121.121094 "/>
<path style="fill:none;stroke-width:5;stroke-linecap:round;stroke-linejoin:round;stroke:rgb(0%,0%,0%);stroke-opacity:1;stroke-miterlimit:10;" d="M 1614.344827 225.08661 L 1404.891409 449.713834 L 1615.285838 786.752692 Z M 1614.344827 225.08661 " transform="matrix(0.0996269,0,0,-0.0996269,0.171791,199.502799)"/>
<path style="fill-rule:nonzero;fill:rgb(0%,0%,45.896912%);fill-opacity:1;stroke-width:5;stroke-linecap:round;stroke-linejoin:round;stroke:rgb(0%,0%,0%);stroke-opacity:1;stroke-miterlimit:10;" d="M 1614.815332 504.253277 L 1615.285838 786.752692 L 1671.550468 594.982444 " transform="matrix(0.0996269,0,0,-0.0996269,0.171791,199.502799)"/>
<path style=" stroke:none;fill-rule:nonzero;fill:rgb(37.010193%,52.34375%,87.889099%);fill-opacity:1;" d="M 166.703125 140.226562 L 199.953125 121.042969 L 161.097656 121.121094 "/>
<path style="fill:none;stroke-width:5;stroke-linecap:round;stroke-linejoin:round;stroke:rgb(0%,0%,0%);stroke-opacity:1;stroke-miterlimit:10;" d="M 1671.550468 594.982444 L 2005.295787 787.536868 L 1615.285838 786.752692 Z M 1671.550468 594.982444 " transform="matrix(0.0996269,0,0,-0.0996269,0.171791,199.502799)"/>
<path style="fill-rule:nonzero;fill:rgb(68.164062%,15.795898%,0%);fill-opacity:1;stroke-width:5;stroke-linecap:round;stroke-linejoin:round;stroke:rgb(0%,0%,0%);stroke-opacity:1;stroke-miterlimit:10;" d="M 1671.550468 594.982444 L 1437.317088 588.826662 L 1732.284902 692.024228 " transform="matrix(0.0996269,0,0,-0.0996269,0.171791,199.502799)"/>
<path style="fill-rule:nonzero;fill:rgb(68.164062%,15.795898%,0%);fill-opacity:1;stroke-width:5;stroke-linecap:round;stroke-linejoin:round;stroke:rgb(0%,0%,0%);stroke-opacity:1;stroke-miterlimit:10;" d="M 1732.284902 692.024228 L 2005.295787 787.536868 L 1671.550468 594.982444 " transform="matrix(0.0996269,0,0,-0.0996269,0.171791,199.502799)"/>
<path style="fill-rule:nonzero;fill:rgb(0%,0%,45.896912%);fill-opacity:1;stroke-width:5;stroke-linecap:round;stroke-linejoin:round;stroke:rgb(0%,0%,0%);stroke-opacity:1;stroke-miterlimit:10;" d="M 1671.550468 594.982444 L 1614.344827 225.08661 L 1614.815332 504.253277 " transform="matrix(0.0996269,0,0,-0.0996269,0.171791,199.502799)"/>
<path style="fill-rule:nonzero;fill:rgb(0%,0%,0%);fill-opacity:1;stroke-width:5;stroke-linecap:round;stroke-linejoin:round;stroke:rgb(0%,0%,0%);stroke-opacity:1;stroke-miterlimit:10;" d="M 1805.997449 1046.707046 L 2005.295787 787.536868 L 1838.148666 1049.098783 " transform="matrix(0.0996269,0,0,-0.0996269,0.171791,199.502799)"/>
<path style="fill-rule:nonzero;fill:rgb(0%,0.39978%,57.421875%);fill-opacity:1;stroke-width:5;stroke-linecap:round;stroke-linejoin:round;stroke:rgb(0%,0%,0%);stroke-opacity:1;stroke-miterlimit:10;" d="M 1805.997449 1046.707046 L 1929.348338 1289.840824 L 1776.159551 1044.472144 " transform="matrix(0.0996269,0,0,-0.0996269,0.171791,199.502799)"/>
<path style=" stroke:none;fill-rule:nonzero;fill:rgb(96.679688%,79.296875%,61.521912%);fill-opacity:1;" d="M 192.386719 71 L 180.097656 95.222656 L 165.769531 67.546875 "/>
<path style="fill:none;stroke-width:5;stroke-linecap:round;stroke-linejoin:round;stroke:rgb(0%,0%,0%);stroke-opacity:1;stroke-miterlimit:10;" d="M 1929.348338 1289.840824 L 1805.997449 1046.707046 L 1662.179565 1324.501404 Z M 1929.348338 1289.840824 " transform="matrix(0.0996269,0,0,-0.0996269,0.171791,199.502799)"/>
<path style="fill-rule:nonzero;fill:rgb(0%,0%,0%);fill-opacity:1;stroke-width:5;stroke-linecap:round;stroke-linejoin:round;stroke:rgb(0%,0%,0%);stroke-opacity:1;stroke-miterlimit:10;" d="M 1838.148666 1049.098783 L 1662.179565 1324.501404 L 1805.997449 1046.707046 " transform="matrix(0.0996269,0,0,-0.0996269,0.171791,199.502799)"/>
<path style="fill-rule:nonzero;fill:rgb(0%,0.39978%,57.421875%);fill-opacity:1;stroke-width:5;stroke-linecap:round;stroke-linejoin:round;stroke:rgb(0%,0%,0%);stroke-opacity:1;stroke-miterlimit:10;" d="M 1776.159551 1044.472144 L 1615.285838 786.752692 L 1805.997449 1046.707046 " transform="matrix(0.0996269,0,0,-0.0996269,0.171791,199.502799)"/>
<path style=" stroke:none;fill-rule:nonzero;fill:rgb(40.087891%,32.688904%,65.818787%);fill-opacity:1;" d="M 199.953125 121.042969 L 180.097656 95.222656 L 161.097656 121.121094 "/>
<path style="fill:none;stroke-width:5;stroke-linecap:round;stroke-linejoin:round;stroke:rgb(0%,0%,0%);stroke-opacity:1;stroke-miterlimit:10;" d="M 2005.295787 787.536868 L 1805.997449 1046.707046 L 1615.285838 786.752692 Z M 2005.295787 787.536868 " transform="matrix(0.0996269,0,0,-0.0996269,0.171791,199.502799)"/>
<path style=" stroke:none;fill-rule:nonzero;fill:rgb(83.984375%,76.5625%,77.929688%);fill-opacity:1;" d="M 45.351562 177.972656 L 65.484375 155.257812 L 44.03125 121.945312 "/>
<path style="fill:none;stroke-width:5;stroke-linecap:round;stroke-linejoin:round;stroke:rgb(0%,0%,0%);stroke-opacity:1;stroke-miterlimit:10;" d="M 453.489841 216.107795 L 655.572004 444.106976 L 440.237266 778.479635 Z M 453.489841 216.107795 " transform="matrix(0.0996269,0,0,-0.0996269,0.171791,199.502799)"/>
<path style="fill-rule:nonzero;fill:rgb(97.264099%,84.764099%,44.309998%);fill-opacity:1;stroke-width:5;stroke-linecap:round;stroke-linejoin:round;stroke:rgb(0%,0%,0%);stroke-opacity:1;stroke-miterlimit:10;" d="M 446.902762 495.588132 L 440.237266 778.479635 L 393.029869 585.650749 " transform="matrix(0.0996269,0,0,-0.0996269,0.171791,199.502799)"/>
<path style=" stroke:none;fill-rule:nonzero;fill:rgb(84.375%,91.796875%,88.28125%);fill-opacity:1;" d="M 39.328125 141.15625 L 5.96875 122.410156 L 44.03125 121.945312 "/>
<path style="fill:none;stroke-width:5;stroke-linecap:round;stroke-linejoin:round;stroke:rgb(0%,0%,0%);stroke-opacity:1;stroke-miterlimit:10;" d="M 393.029869 585.650749 L 58.186704 773.813787 L 440.237266 778.479635 Z M 393.029869 585.650749 " transform="matrix(0.0996269,0,0,-0.0996269,0.171791,199.502799)"/>
<path style="fill-rule:nonzero;fill:rgb(26.292419%,0%,0%);fill-opacity:1;stroke-width:5;stroke-linecap:round;stroke-linejoin:round;stroke:rgb(0%,0%,0%);stroke-opacity:1;stroke-miterlimit:10;" d="M 393.029869 585.650749 L 634.399251 583.023759 L 335.392931 682.025983 " transform="matrix(0.0996269,0,0,-0.0996269,0.171791,199.502799)"/>
<path style="fill-rule:nonzero;fill:rgb(26.292419%,0%,0%);fill-opacity:1;stroke-width:5;stroke-linecap:round;stroke-linejoin:round;stroke:rgb(0%,0%,0%);stroke-opacity:1;stroke-miterlimit:10;" d="M 335.392931 682.025983 L 58.186704 773.813787 L 393.029869 585.650749 " transform="matrix(0.0996269,0,0,-0.0996269,0.171791,199.502799)"/>
<path style="fill-rule:nonzero;fill:rgb(97.264099%,84.764099%,44.309998%);fill-opacity:1;stroke-width:5;stroke-linecap:round;stroke-linejoin:round;stroke:rgb(0%,0%,0%);stroke-opacity:1;stroke-miterlimit:10;" d="M 393.029869 585.650749 L 453.489841 216.107795 L 446.902762 495.588132 " transform="matrix(0.0996269,0,0,-0.0996269,0.171791,199.502799)"/>
<path style="fill-rule:nonzero;fill:rgb(77.929688%,34.49707%,0%);fill-opacity:1;stroke-width:5;stroke-linecap:round;stroke-linejoin:round;stroke:rgb(0%,0%,0%);stroke-opacity:1;stroke-miterlimit:10;" d="M 249.996161 1036.238296 L 58.186704 773.813787 L 222.628418 1038.277154 " transform="matrix(0.0996269,0,0,-0.0996269,0.171791,199.502799)"/>
<path style="fill-rule:nonzero;fill:rgb(76.171875%,92.1875%,55.664062%);fill-opacity:1;stroke-width:5;stroke-linecap:round;stroke-linejoin:round;stroke:rgb(0%,0%,0%);stroke-opacity:1;stroke-miterlimit:10;" d="M 249.996161 1036.238296 L 118.372214 1278.235019 L 275.403464 1034.395482 " transform="matrix(0.0996269,0,0,-0.0996269,0.171791,199.502799)"/>
<path style=" stroke:none;fill-rule:nonzero;fill:rgb(27.709961%,22.509766%,61.71875%);fill-opacity:1;" d="M 11.964844 72.15625 L 25.078125 96.265625 L 39.589844 68.347656 "/>
<path style="fill:none;stroke-width:5;stroke-linecap:round;stroke-linejoin:round;stroke:rgb(0%,0%,0%);stroke-opacity:1;stroke-miterlimit:10;" d="M 118.372214 1278.235019 L 249.996161 1036.238296 L 395.656859 1316.4636 Z M 118.372214 1278.235019 " transform="matrix(0.0996269,0,0,-0.0996269,0.171791,199.502799)"/>
<path style="fill-rule:nonzero;fill:rgb(77.929688%,34.49707%,0%);fill-opacity:1;stroke-width:5;stroke-linecap:round;stroke-linejoin:round;stroke:rgb(0%,0%,0%);stroke-opacity:1;stroke-miterlimit:10;" d="M 222.628418 1038.277154 L 395.656859 1316.4636 L 249.996161 1036.238296 " transform="matrix(0.0996269,0,0,-0.0996269,0.171791,199.502799)"/>
<path style="fill-rule:nonzero;fill:rgb(76.171875%,92.1875%,55.664062%);fill-opacity:1;stroke-width:5;stroke-linecap:round;stroke-linejoin:round;stroke:rgb(0%,0%,0%);stroke-opacity:1;stroke-miterlimit:10;" d="M 275.403464 1034.395482 L 440.237266 778.479635 L 249.996161 1036.238296 " transform="matrix(0.0996269,0,0,-0.0996269,0.171791,199.502799)"/>
<path style=" stroke:none;fill-rule:nonzero;fill:rgb(92.1875%,75.389099%,65.818787%);fill-opacity:1;" d="M 5.96875 122.410156 L 25.078125 96.265625 L 44.03125 121.945312 "/>
<path style="fill:none;stroke-width:5;stroke-linecap:round;stroke-linejoin:round;stroke:rgb(0%,0%,0%);stroke-opacity:1;stroke-miterlimit:10;" d="M 58.186704 773.813787 L 249.996161 1036.238296 L 440.237266 778.479635 Z M 58.186704 773.813787 " transform="matrix(0.0996269,0,0,-0.0996269,0.171791,199.502799)"/>
<path style=" stroke:none;fill-rule:nonzero;fill:rgb(17.210388%,44.700623%,87.693787%);fill-opacity:1;" d="M 11.964844 72.15625 L 40.472656 52.539062 L 39.589844 68.347656 "/>
<path style="fill:none;stroke-width:5;stroke-linecap:round;stroke-linejoin:round;stroke:rgb(0%,0%,0%);stroke-opacity:1;stroke-miterlimit:10;" d="M 118.372214 1278.235019 L 404.518048 1475.14162 L 395.656859 1316.4636 Z M 118.372214 1278.235019 " transform="matrix(0.0996269,0,0,-0.0996269,0.171791,199.502799)"/>
<path style="fill-rule:nonzero;fill:rgb(0%,0%,1.699829%);fill-opacity:1;stroke-width:5;stroke-linecap:round;stroke-linejoin:round;stroke:rgb(0%,0%,0%);stroke-opacity:1;stroke-miterlimit:10;" d="M 788.725094 302.445576 L 634.399251 583.023759 L 842.245108 319.932701 " transform="matrix(0.0996269,0,0,-0.0996269,0.171791,199.502799)"/>
<path style="fill-rule:nonzero;fill:rgb(20.605469%,0%,0%);fill-opacity:1;stroke-width:5;stroke-linecap:round;stroke-linejoin:round;stroke:rgb(0%,0%,0%);stroke-opacity:1;stroke-miterlimit:10;" d="M 788.725094 302.445576 L 1031.937289 358.161283 L 738.969125 286.213132 " transform="matrix(0.0996269,0,0,-0.0996269,0.171791,199.502799)"/>
<path style=" stroke:none;fill-rule:nonzero;fill:rgb(74.21875%,90.429688%,94.921875%);fill-opacity:1;" d="M 78.75 169.371094 L 103.722656 192.484375 L 102.980469 163.820312 "/>
<path style="fill:none;stroke-width:5;stroke-linecap:round;stroke-linejoin:round;stroke:rgb(0%,0%,0%);stroke-opacity:1;stroke-miterlimit:10;" d="M 788.725094 302.445576 L 1039.386962 70.447097 L 1031.937289 358.161283 Z M 788.725094 302.445576 " transform="matrix(0.0996269,0,0,-0.0996269,0.171791,199.502799)"/>
<path style="fill-rule:nonzero;fill:rgb(0%,0%,1.699829%);fill-opacity:1;stroke-width:5;stroke-linecap:round;stroke-linejoin:round;stroke:rgb(0%,0%,0%);stroke-opacity:1;stroke-miterlimit:10;" d="M 842.245108 319.932701 L 1039.386962 70.447097 L 788.725094 302.445576 " transform="matrix(0.0996269,0,0,-0.0996269,0.171791,199.502799)"/>
<path style="fill-rule:nonzero;fill:rgb(20.605469%,0%,0%);fill-opacity:1;stroke-width:5;stroke-linecap:round;stroke-linejoin:round;stroke:rgb(0%,0%,0%);stroke-opacity:1;stroke-miterlimit:10;" d="M 738.969125 286.213132 L 453.489841 216.107795 L 788.725094 302.445576 " transform="matrix(0.0996269,0,0,-0.0996269,0.171791,199.502799)"/>
<path style="fill-rule:nonzero;fill:rgb(84.375%,38.597107%,0%);fill-opacity:1;stroke-width:5;stroke-linecap:round;stroke-linejoin:round;stroke:rgb(0%,0%,0%);stroke-opacity:1;stroke-miterlimit:10;" d="M 1281.85419 306.24883 L 1437.317088 588.826662 L 1233.196067 322.91257 " transform="matrix(0.0996269,0,0,-0.0996269,0.171791,199.502799)"/>
<path style="fill-rule:nonzero;fill:rgb(0%,0%,0%);fill-opacity:1;stroke-width:5;stroke-linecap:round;stroke-linejoin:round;stroke:rgb(0%,0%,0%);stroke-opacity:1;stroke-miterlimit:10;" d="M 1281.85419 306.24883 L 1031.937289 358.161283 L 1327.140356 290.722144 " transform="matrix(0.0996269,0,0,-0.0996269,0.171791,199.502799)"/>
<path style=" stroke:none;fill-rule:nonzero;fill:rgb(43.089294%,64.451599%,94.726562%);fill-opacity:1;" d="M 127.878906 168.992188 L 103.722656 192.484375 L 102.980469 163.820312 "/>
<path style="fill:none;stroke-width:5;stroke-linecap:round;stroke-linejoin:round;stroke:rgb(0%,0%,0%);stroke-opacity:1;stroke-miterlimit:10;" d="M 1281.85419 306.24883 L 1039.386962 70.447097 L 1031.937289 358.161283 Z M 1281.85419 306.24883 " transform="matrix(0.0996269,0,0,-0.0996269,0.171791,199.502799)"/>
<path style="fill-rule:nonzero;fill:rgb(84.375%,38.597107%,0%);fill-opacity:1;stroke-width:5;stroke-linecap:round;stroke-linejoin:round;stroke:rgb(0%,0%,0%);stroke-opacity:1;stroke-miterlimit:10;" d="M 1233.196067 322.91257 L 1039.386962 70.447097 L 1281.85419 306.24883 " transform="matrix(0.0996269,0,0,-0.0996269,0.171791,199.502799)"/>
<path style="fill-rule:nonzero;fill:rgb(0%,0%,0%);fill-opacity:1;stroke-width:5;stroke-linecap:round;stroke-linejoin:round;stroke:rgb(0%,0%,0%);stroke-opacity:1;stroke-miterlimit:10;" d="M 1327.140356 290.722144 L 1614.344827 225.08661 L 1281.85419 306.24883 " transform="matrix(0.0996269,0,0,-0.0996269,0.171791,199.502799)"/>
<path style=" stroke:none;fill-rule:nonzero;fill:rgb(86.71875%,81.054688%,79.101562%);fill-opacity:1;" d="M 159.792969 13.792969 L 142.773438 31.554688 L 165.769531 67.546875 "/>
<path style="fill:none;stroke-width:5;stroke-linecap:round;stroke-linejoin:round;stroke:rgb(0%,0%,0%);stroke-opacity:1;stroke-miterlimit:10;" d="M 1602.190098 1864.053722 L 1431.35735 1685.771301 L 1662.179565 1324.501404 Z M 1602.190098 1864.053722 " transform="matrix(0.0996269,0,0,-0.0996269,0.171791,199.502799)"/>
<path style="fill-rule:nonzero;fill:rgb(63.867188%,76.951599%,94.334412%);fill-opacity:1;stroke-width:5;stroke-linecap:round;stroke-linejoin:round;stroke:rgb(0%,0%,0%);stroke-opacity:1;stroke-miterlimit:10;" d="M 1431.35735 1685.771301 L 1602.190098 1864.053722 L 1324.552575 1812.180478 " transform="matrix(0.0996269,0,0,-0.0996269,0.171791,199.502799)"/>
<path style="fill-rule:nonzero;fill:rgb(0%,0%,0%);fill-opacity:1;stroke-width:5;stroke-linecap:round;stroke-linejoin:round;stroke:rgb(0%,0%,0%);stroke-opacity:1;stroke-miterlimit:10;" d="M 1431.35735 1685.771301 L 1425.593656 1781.479986 L 1544.474743 1551.834036 " transform="matrix(0.0996269,0,0,-0.0996269,0.171791,199.502799)"/>
<path style="fill-rule:nonzero;fill:rgb(0%,0%,0%);fill-opacity:1;stroke-width:5;stroke-linecap:round;stroke-linejoin:round;stroke:rgb(0%,0%,0%);stroke-opacity:1;stroke-miterlimit:10;" d="M 1544.474743 1551.834036 L 1662.179565 1324.501404 L 1431.35735 1685.771301 " transform="matrix(0.0996269,0,0,-0.0996269,0.171791,199.502799)"/>
<path style="fill-rule:nonzero;fill:rgb(63.867188%,76.951599%,94.334412%);fill-opacity:1;stroke-width:5;stroke-linecap:round;stroke-linejoin:round;stroke:rgb(0%,0%,0%);stroke-opacity:1;stroke-miterlimit:10;" d="M 1324.552575 1812.180478 L 1025.507046 1756.347144 L 1431.35735 1685.771301 " transform="matrix(0.0996269,0,0,-0.0996269,0.171791,199.502799)"/>
<path style=" stroke:none;fill-rule:nonzero;fill:rgb(47.093201%,48.28949%,78.90625%);fill-opacity:1;" d="M 44.351562 14.441406 L 62.175781 32.027344 L 39.589844 68.347656 "/>
<path style="fill:none;stroke-width:5;stroke-linecap:round;stroke-linejoin:round;stroke:rgb(0%,0%,0%);stroke-opacity:1;stroke-miterlimit:10;" d="M 443.452388 1857.545061 L 622.362149 1681.027037 L 395.656859 1316.4636 Z M 443.452388 1857.545061 " transform="matrix(0.0996269,0,0,-0.0996269,0.171791,199.502799)"/>
<path style="fill-rule:nonzero;fill:rgb(63.867188%,76.951599%,94.334412%);fill-opacity:1;stroke-width:5;stroke-linecap:round;stroke-linejoin:round;stroke:rgb(0%,0%,0%);stroke-opacity:1;stroke-miterlimit:10;" d="M 622.362149 1681.027037 L 443.452388 1857.545061 L 723.873736 1808.808521 " transform="matrix(0.0996269,0,0,-0.0996269,0.171791,199.502799)"/>
<path style="fill-rule:nonzero;fill:rgb(77.929688%,34.49707%,0%);fill-opacity:1;stroke-width:5;stroke-linecap:round;stroke-linejoin:round;stroke:rgb(0%,0%,0%);stroke-opacity:1;stroke-miterlimit:10;" d="M 622.362149 1681.027037 L 635.026592 1776.970974 L 514.733989 1545.639045 " transform="matrix(0.0996269,0,0,-0.0996269,0.171791,199.502799)"/>
<path style="fill-rule:nonzero;fill:rgb(77.929688%,34.49707%,0%);fill-opacity:1;stroke-width:5;stroke-linecap:round;stroke-linejoin:round;stroke:rgb(0%,0%,0%);stroke-opacity:1;stroke-miterlimit:10;" d="M 514.733989 1545.639045 L 395.656859 1316.4636 L 622.362149 1681.027037 " transform="matrix(0.0996269,0,0,-0.0996269,0.171791,199.502799)"/>
<path style="fill-rule:nonzero;fill:rgb(63.867188%,76.951599%,94.334412%);fill-opacity:1;stroke-width:5;stroke-linecap:round;stroke-linejoin:round;stroke:rgb(0%,0%,0%);stroke-opacity:1;stroke-miterlimit:10;" d="M 723.873736 1808.808521 L 1025.507046 1756.347144 L 622.362149 1681.027037 " transform="matrix(0.0996269,0,0,-0.0996269,0.171791,199.502799)"/>
<path style=" stroke:none;fill-rule:nonzero;fill:rgb(92.771912%,67.771912%,54.101562%);fill-opacity:1;" d="M 166.703125 140.226562 L 161.003906 177.078125 L 143.367188 140.839844 "/>
<path style="fill:none;stroke-width:5;stroke-linecap:round;stroke-linejoin:round;stroke:rgb(0%,0%,0%);stroke-opacity:1;stroke-miterlimit:10;" d="M 1671.550468 594.982444 L 1614.344827 225.08661 L 1437.317088 588.826662 Z M 1671.550468 594.982444 " transform="matrix(0.0996269,0,0,-0.0996269,0.171791,199.502799)"/>
<path style=" stroke:none;fill-rule:nonzero;fill:rgb(71.875%,40.405273%,44.50531%);fill-opacity:1;" d="M 127.878906 168.992188 L 161.003906 177.078125 L 143.367188 140.839844 "/>
<path style="fill:none;stroke-width:5;stroke-linecap:round;stroke-linejoin:round;stroke:rgb(0%,0%,0%);stroke-opacity:1;stroke-miterlimit:10;" d="M 1281.85419 306.24883 L 1614.344827 225.08661 L 1437.317088 588.826662 Z M 1281.85419 306.24883 " transform="matrix(0.0996269,0,0,-0.0996269,0.171791,199.502799)"/>
<path style=" stroke:none;fill-rule:nonzero;fill:rgb(36.59668%,21.801758%,54.492188%);fill-opacity:1;" d="M 39.328125 141.15625 L 45.351562 177.972656 L 63.375 141.417969 "/>
<path style="fill:none;stroke-width:5;stroke-linecap:round;stroke-linejoin:round;stroke:rgb(0%,0%,0%);stroke-opacity:1;stroke-miterlimit:10;" d="M 393.029869 585.650749 L 453.489841 216.107795 L 634.399251 583.023759 Z M 393.029869 585.650749 " transform="matrix(0.0996269,0,0,-0.0996269,0.171791,199.502799)"/>
<path style=" stroke:none;fill-rule:nonzero;fill:rgb(62.693787%,32.788086%,44.50531%);fill-opacity:1;" d="M 78.75 169.371094 L 45.351562 177.972656 L 63.375 141.417969 "/>
<path style="fill:none;stroke-width:5;stroke-linecap:round;stroke-linejoin:round;stroke:rgb(0%,0%,0%);stroke-opacity:1;stroke-miterlimit:10;" d="M 788.725094 302.445576 L 453.489841 216.107795 L 634.399251 583.023759 Z M 788.725094 302.445576 " transform="matrix(0.0996269,0,0,-0.0996269,0.171791,199.502799)"/>
<path style=" stroke:none;fill-rule:nonzero;fill:rgb(27.293396%,0%,0%);fill-opacity:1;" d="M 142.199219 22.019531 L 142.773438 31.554688 L 102.339844 24.523438 "/>
<path style="fill:none;stroke-width:5;stroke-linecap:round;stroke-linejoin:round;stroke:rgb(0%,0%,0%);stroke-opacity:1;stroke-miterlimit:10;" d="M 1425.593656 1781.479986 L 1431.35735 1685.771301 L 1025.507046 1756.347144 Z M 1425.593656 1781.479986 " transform="matrix(0.0996269,0,0,-0.0996269,0.171791,199.502799)"/>
<path style=" stroke:none;fill-rule:nonzero;fill:rgb(23.509216%,59.764099%,94.921875%);fill-opacity:1;" d="M 102.804688 35.851562 L 142.199219 22.019531 L 102.339844 24.523438 "/>
<path style="fill:none;stroke-width:5;stroke-linecap:round;stroke-linejoin:round;stroke:rgb(0%,0%,0%);stroke-opacity:1;stroke-miterlimit:10;" d="M 1030.172893 1642.64162 L 1425.593656 1781.479986 L 1025.507046 1756.347144 Z M 1030.172893 1642.64162 " transform="matrix(0.0996269,0,0,-0.0996269,0.171791,199.502799)"/>
<path style=" stroke:none;fill-rule:nonzero;fill:rgb(54.101562%,0%,0%);fill-opacity:1;" d="M 63.4375 22.46875 L 62.175781 32.027344 L 102.339844 24.523438 "/>
<path style="fill:none;stroke-width:5;stroke-linecap:round;stroke-linejoin:round;stroke:rgb(0%,0%,0%);stroke-opacity:1;stroke-miterlimit:10;" d="M 635.026592 1776.970974 L 622.362149 1681.027037 L 1025.507046 1756.347144 Z M 635.026592 1776.970974 " transform="matrix(0.0996269,0,0,-0.0996269,0.171791,199.502799)"/>
<path style=" stroke:none;fill-rule:nonzero;fill:rgb(66.209412%,95.3125%,94.921875%);fill-opacity:1;" d="M 102.804688 35.851562 L 63.4375 22.46875 L 102.339844 24.523438 "/>
<path style="fill:none;stroke-width:5;stroke-linecap:round;stroke-linejoin:round;stroke:rgb(0%,0%,0%);stroke-opacity:1;stroke-miterlimit:10;" d="M 1030.172893 1642.64162 L 635.026592 1776.970974 L 1025.507046 1756.347144 Z M 1030.172893 1642.64162 " transform="matrix(0.0996269,0,0,-0.0996269,0.171791,199.502799)"/>
<path style=" stroke:none;fill-rule:nonzero;fill:rgb(79.881287%,58.201599%,60.9375%);fill-opacity:1;" d="M 170.054688 106.070312 L 199.953125 121.042969 L 143.367188 140.839844 "/>
<path style="fill:none;stroke-width:5;stroke-linecap:round;stroke-linejoin:round;stroke:rgb(0%,0%,0%);stroke-opacity:1;stroke-miterlimit:10;" d="M 1705.19162 937.824204 L 2005.295787 787.536868 L 1437.317088 588.826662 Z M 1705.19162 937.824204 " transform="matrix(0.0996269,0,0,-0.0996269,0.171791,199.502799)"/>
<path style="fill-rule:nonzero;fill:rgb(84.375%,38.597107%,0%);fill-opacity:1;stroke-width:5;stroke-linecap:round;stroke-linejoin:round;stroke:rgb(0%,0%,0%);stroke-opacity:1;stroke-miterlimit:10;" d="M 1705.19162 937.824204 L 1437.317088 588.826662 L 1564.471231 820.001756 " transform="matrix(0.0996269,0,0,-0.0996269,0.171791,199.502799)"/>
<path style="fill-rule:nonzero;fill:rgb(86.71875%,81.054688%,79.101562%);fill-opacity:1;stroke-width:5;stroke-linecap:round;stroke-linejoin:round;stroke:rgb(0%,0%,0%);stroke-opacity:1;stroke-miterlimit:10;" d="M 1705.19162 937.824204 L 1662.179565 1324.501404 L 1838.148666 1049.098783 " transform="matrix(0.0996269,0,0,-0.0996269,0.171791,199.502799)"/>
<path style=" stroke:none;fill-rule:nonzero;fill:rgb(0%,0%,0%);fill-opacity:1;" d="M 170.054688 106.070312 L 168.828125 94.550781 L 165.769531 67.546875 "/>
<path style="fill:none;stroke-width:5;stroke-linecap:round;stroke-linejoin:round;stroke:rgb(0%,0%,0%);stroke-opacity:1;stroke-miterlimit:10;" d="M 1705.19162 937.824204 L 1692.880056 1053.45096 L 1662.179565 1324.501404 Z M 1705.19162 937.824204 " transform="matrix(0.0996269,0,0,-0.0996269,0.171791,199.502799)"/>
<path style="fill-rule:nonzero;fill:rgb(84.375%,38.597107%,0%);fill-opacity:1;stroke-width:5;stroke-linecap:round;stroke-linejoin:round;stroke:rgb(0%,0%,0%);stroke-opacity:1;stroke-miterlimit:10;" d="M 1564.471231 820.001756 L 1692.880056 1053.45096 L 1705.19162 937.824204 " transform="matrix(0.0996269,0,0,-0.0996269,0.171791,199.502799)"/>
<path style="fill-rule:nonzero;fill:rgb(86.71875%,81.054688%,79.101562%);fill-opacity:1;stroke-width:5;stroke-linecap:round;stroke-linejoin:round;stroke:rgb(0%,0%,0%);stroke-opacity:1;stroke-miterlimit:10;" d="M 1838.148666 1049.098783 L 2005.295787 787.536868 L 1705.19162 937.824204 " transform="matrix(0.0996269,0,0,-0.0996269,0.171791,199.502799)"/>
<path style=" stroke:none;fill-rule:nonzero;fill:rgb(96.679688%,79.296875%,61.521912%);fill-opacity:1;" d="M 142.199219 22.019531 L 145.492188 64.914062 L 165.769531 67.546875 "/>
<path style="fill:none;stroke-width:5;stroke-linecap:round;stroke-linejoin:round;stroke:rgb(0%,0%,0%);stroke-opacity:1;stroke-miterlimit:10;" d="M 1425.593656 1781.479986 L 1458.646676 1350.928137 L 1662.179565 1324.501404 Z M 1425.593656 1781.479986 " transform="matrix(0.0996269,0,0,-0.0996269,0.171791,199.502799)"/>
<path style=" stroke:none;fill-rule:nonzero;fill:rgb(82.226562%,98.631287%,87.693787%);fill-opacity:1;" d="M 168.828125 94.550781 L 145.492188 64.914062 L 165.769531 67.546875 "/>
<path style="fill:none;stroke-width:5;stroke-linecap:round;stroke-linejoin:round;stroke:rgb(0%,0%,0%);stroke-opacity:1;stroke-miterlimit:10;" d="M 1692.880056 1053.45096 L 1458.646676 1350.928137 L 1662.179565 1324.501404 Z M 1692.880056 1053.45096 " transform="matrix(0.0996269,0,0,-0.0996269,0.171791,199.502799)"/>
<path style=" stroke:none;fill-rule:nonzero;fill:rgb(59.764099%,41.796875%,60.9375%);fill-opacity:1;" d="M 36.175781 106.988281 L 5.96875 122.410156 L 63.375 141.417969 "/>
<path style="fill:none;stroke-width:5;stroke-linecap:round;stroke-linejoin:round;stroke:rgb(0%,0%,0%);stroke-opacity:1;stroke-miterlimit:10;" d="M 361.388366 928.610136 L 58.186704 773.813787 L 634.399251 583.023759 Z M 361.388366 928.610136 " transform="matrix(0.0996269,0,0,-0.0996269,0.171791,199.502799)"/>
<path style=" stroke:none;fill-rule:nonzero;fill:rgb(47.093201%,48.28949%,78.90625%);fill-opacity:1;" d="M 5.96875 122.410156 L 36.175781 106.988281 L 39.589844 68.347656 "/>
<path style="fill:none;stroke-width:5;stroke-linecap:round;stroke-linejoin:round;stroke:rgb(0%,0%,0%);stroke-opacity:1;stroke-miterlimit:10;" d="M 58.186704 773.813787 L 361.388366 928.610136 L 395.656859 1316.4636 Z M 58.186704 773.813787 " transform="matrix(0.0996269,0,0,-0.0996269,0.171791,199.502799)"/>
<path style=" stroke:none;fill-rule:nonzero;fill:rgb(17.210388%,44.700623%,87.693787%);fill-opacity:1;" d="M 38.078125 95.421875 L 60.609375 65.449219 L 39.589844 68.347656 "/>
<path style="fill:none;stroke-width:5;stroke-linecap:round;stroke-linejoin:round;stroke:rgb(0%,0%,0%);stroke-opacity:1;stroke-miterlimit:10;" d="M 380.483052 1044.707397 L 606.639419 1345.556531 L 395.656859 1316.4636 Z M 380.483052 1044.707397 " transform="matrix(0.0996269,0,0,-0.0996269,0.171791,199.502799)"/>
<path style=" stroke:none;fill-rule:nonzero;fill:rgb(27.709961%,22.509766%,61.71875%);fill-opacity:1;" d="M 63.4375 22.46875 L 60.609375 65.449219 L 39.589844 68.347656 "/>
<path style="fill:none;stroke-width:5;stroke-linecap:round;stroke-linejoin:round;stroke:rgb(0%,0%,0%);stroke-opacity:1;stroke-miterlimit:10;" d="M 635.026592 1776.970974 L 606.639419 1345.556531 L 395.656859 1316.4636 Z M 635.026592 1776.970974 " transform="matrix(0.0996269,0,0,-0.0996269,0.171791,199.502799)"/>
<path style=" stroke:none;fill-rule:nonzero;fill:rgb(0%,0%,10.888672%);fill-opacity:1;" d="M 36.175781 106.988281 L 38.078125 95.421875 L 39.589844 68.347656 "/>
<path style="fill:none;stroke-width:5;stroke-linecap:round;stroke-linejoin:round;stroke:rgb(0%,0%,0%);stroke-opacity:1;stroke-miterlimit:10;" d="M 361.388366 928.610136 L 380.483052 1044.707397 L 395.656859 1316.4636 Z M 361.388366 928.610136 " transform="matrix(0.0996269,0,0,-0.0996269,0.171791,199.502799)"/>
<path style=" stroke:none;fill-rule:nonzero;fill:rgb(59.764099%,41.796875%,60.9375%);fill-opacity:1;" d="M 103.609375 154.742188 L 103.722656 192.484375 L 63.375 141.417969 "/>
<path style="fill:none;stroke-width:5;stroke-linecap:round;stroke-linejoin:round;stroke:rgb(0%,0%,0%);stroke-opacity:1;stroke-miterlimit:10;" d="M 1038.249906 449.282537 L 1039.386962 70.447097 L 634.399251 583.023759 Z M 1038.249906 449.282537 " transform="matrix(0.0996269,0,0,-0.0996269,0.171791,199.502799)"/>
<path style=" stroke:none;fill-rule:nonzero;fill:rgb(79.881287%,58.201599%,60.9375%);fill-opacity:1;" d="M 103.609375 154.742188 L 103.722656 192.484375 L 143.367188 140.839844 "/>
<path style="fill:none;stroke-width:5;stroke-linecap:round;stroke-linejoin:round;stroke:rgb(0%,0%,0%);stroke-opacity:1;stroke-miterlimit:10;" d="M 1038.249906 449.282537 L 1039.386962 70.447097 L 1437.317088 588.826662 Z M 1038.249906 449.282537 " transform="matrix(0.0996269,0,0,-0.0996269,0.171791,199.502799)"/>
<path style=" stroke:none;fill-rule:nonzero;fill:rgb(92.771912%,67.771912%,54.101562%);fill-opacity:1;" d="M 130.191406 113.769531 L 103.941406 141.867188 L 143.367188 140.839844 "/>
<path style="fill:none;stroke-width:5;stroke-linecap:round;stroke-linejoin:round;stroke:rgb(0%,0%,0%);stroke-opacity:1;stroke-miterlimit:10;" d="M 1305.065801 860.543656 L 1041.582654 578.514747 L 1437.317088 588.826662 Z M 1305.065801 860.543656 " transform="matrix(0.0996269,0,0,-0.0996269,0.171791,199.502799)"/>
<path style=" stroke:none;fill-rule:nonzero;fill:rgb(71.875%,40.405273%,44.50531%);fill-opacity:1;" d="M 130.191406 113.769531 L 168.828125 94.550781 L 143.367188 140.839844 "/>
<path style="fill:none;stroke-width:5;stroke-linecap:round;stroke-linejoin:round;stroke:rgb(0%,0%,0%);stroke-opacity:1;stroke-miterlimit:10;" d="M 1305.065801 860.543656 L 1692.880056 1053.45096 L 1437.317088 588.826662 Z M 1305.065801 860.543656 " transform="matrix(0.0996269,0,0,-0.0996269,0.171791,199.502799)"/>
<path style=" stroke:none;fill-rule:nonzero;fill:rgb(68.164062%,15.795898%,0%);fill-opacity:1;" d="M 103.941406 141.867188 L 103.609375 154.742188 L 143.367188 140.839844 "/>
<path style="fill:none;stroke-width:5;stroke-linecap:round;stroke-linejoin:round;stroke:rgb(0%,0%,0%);stroke-opacity:1;stroke-miterlimit:10;" d="M 1041.582654 578.514747 L 1038.249906 449.282537 L 1437.317088 588.826662 Z M 1041.582654 578.514747 " transform="matrix(0.0996269,0,0,-0.0996269,0.171791,199.502799)"/>
<path style=" stroke:none;fill-rule:nonzero;fill:rgb(36.59668%,21.801758%,54.492188%);fill-opacity:1;" d="M 76.832031 114.140625 L 103.941406 141.867188 L 63.375 141.417969 "/>
<path style="fill:none;stroke-width:5;stroke-linecap:round;stroke-linejoin:round;stroke:rgb(0%,0%,0%);stroke-opacity:1;stroke-miterlimit:10;" d="M 769.473572 856.81882 L 1041.582654 578.514747 L 634.399251 583.023759 Z M 769.473572 856.81882 " transform="matrix(0.0996269,0,0,-0.0996269,0.171791,199.502799)"/>
<path style=" stroke:none;fill-rule:nonzero;fill:rgb(62.693787%,32.788086%,44.50531%);fill-opacity:1;" d="M 76.832031 114.140625 L 38.078125 95.421875 L 63.375 141.417969 "/>
<path style="fill:none;stroke-width:5;stroke-linecap:round;stroke-linejoin:round;stroke:rgb(0%,0%,0%);stroke-opacity:1;stroke-miterlimit:10;" d="M 769.473572 856.81882 L 380.483052 1044.707397 L 634.399251 583.023759 Z M 769.473572 856.81882 " transform="matrix(0.0996269,0,0,-0.0996269,0.171791,199.502799)"/>
<path style=" stroke:none;fill-rule:nonzero;fill:rgb(26.292419%,0%,0%);fill-opacity:1;" d="M 103.941406 141.867188 L 103.609375 154.742188 L 63.375 141.417969 "/>
<path style="fill:none;stroke-width:5;stroke-linecap:round;stroke-linejoin:round;stroke:rgb(0%,0%,0%);stroke-opacity:1;stroke-miterlimit:10;" d="M 1041.582654 578.514747 L 1038.249906 449.282537 L 634.399251 583.023759 Z M 1041.582654 578.514747 " transform="matrix(0.0996269,0,0,-0.0996269,0.171791,199.502799)"/>
<path style=" stroke:none;fill-rule:nonzero;fill:rgb(0%,0%,1.699829%);fill-opacity:1;" d="M 38.078125 95.421875 L 36.175781 106.988281 L 63.375 141.417969 "/>
<path style="fill:none;stroke-width:5;stroke-linecap:round;stroke-linejoin:round;stroke:rgb(0%,0%,0%);stroke-opacity:1;stroke-miterlimit:10;" d="M 380.483052 1044.707397 L 361.388366 928.610136 L 634.399251 583.023759 Z M 380.483052 1044.707397 " transform="matrix(0.0996269,0,0,-0.0996269,0.171791,199.502799)"/>
<path style=" stroke:none;fill-rule:nonzero;fill:rgb(59.568787%,55.859375%,78.318787%);fill-opacity:1;" d="M 142.199219 22.019531 L 102.804688 35.851562 L 103.246094 76.914062 "/>
<path style="fill:none;stroke-width:5;stroke-linecap:round;stroke-linejoin:round;stroke:rgb(0%,0%,0%);stroke-opacity:1;stroke-miterlimit:10;" d="M 1425.593656 1781.479986 L 1030.172893 1642.64162 L 1034.603488 1230.478699 Z M 1425.593656 1781.479986 " transform="matrix(0.0996269,0,0,-0.0996269,0.171791,199.502799)"/>
<path style=" stroke:none;fill-rule:nonzero;fill:rgb(79.6875%,72.459412%,78.514099%);fill-opacity:1;" d="M 63.4375 22.46875 L 102.804688 35.851562 L 103.246094 76.914062 "/>
<path style="fill:none;stroke-width:5;stroke-linecap:round;stroke-linejoin:round;stroke:rgb(0%,0%,0%);stroke-opacity:1;stroke-miterlimit:10;" d="M 635.026592 1776.970974 L 1030.172893 1642.64162 L 1034.603488 1230.478699 Z M 635.026592 1776.970974 " transform="matrix(0.0996269,0,0,-0.0996269,0.171791,199.502799)"/>
<path style=" stroke:none;fill-rule:nonzero;fill:rgb(76.171875%,60.351562%,68.164062%);fill-opacity:1;" d="M 145.492188 64.914062 L 142.199219 22.019531 L 103.246094 76.914062 "/>
<path style="fill:none;stroke-width:5;stroke-linecap:round;stroke-linejoin:round;stroke:rgb(0%,0%,0%);stroke-opacity:1;stroke-miterlimit:10;" d="M 1458.646676 1350.928137 L 1425.593656 1781.479986 L 1034.603488 1230.478699 Z M 1458.646676 1350.928137 " transform="matrix(0.0996269,0,0,-0.0996269,0.171791,199.502799)"/>
<path style=" stroke:none;fill-rule:nonzero;fill:rgb(68.554688%,70.117188%,85.9375%);fill-opacity:1;" d="M 145.492188 64.914062 L 168.828125 94.550781 L 103.246094 76.914062 "/>
<path style="fill:none;stroke-width:5;stroke-linecap:round;stroke-linejoin:round;stroke:rgb(0%,0%,0%);stroke-opacity:1;stroke-miterlimit:10;" d="M 1458.646676 1350.928137 L 1692.880056 1053.45096 L 1034.603488 1230.478699 Z M 1458.646676 1350.928137 " transform="matrix(0.0996269,0,0,-0.0996269,0.171791,199.502799)"/>
<path style=" stroke:none;fill-rule:nonzero;fill:rgb(65.039062%,51.367188%,68.164062%);fill-opacity:1;" d="M 60.609375 65.449219 L 63.4375 22.46875 L 103.246094 76.914062 "/>
<path style="fill:none;stroke-width:5;stroke-linecap:round;stroke-linejoin:round;stroke:rgb(0%,0%,0%);stroke-opacity:1;stroke-miterlimit:10;" d="M 606.639419 1345.556531 L 635.026592 1776.970974 L 1034.603488 1230.478699 Z M 606.639419 1345.556531 " transform="matrix(0.0996269,0,0,-0.0996269,0.171791,199.502799)"/>
<path style=" stroke:none;fill-rule:nonzero;fill:rgb(68.554688%,70.117188%,85.9375%);fill-opacity:1;" d="M 60.609375 65.449219 L 38.078125 95.421875 L 103.246094 76.914062 "/>
<path style="fill:none;stroke-width:5;stroke-linecap:round;stroke-linejoin:round;stroke:rgb(0%,0%,0%);stroke-opacity:1;stroke-miterlimit:10;" d="M 606.639419 1345.556531 L 380.483052 1044.707397 L 1034.603488 1230.478699 Z M 606.639419 1345.556531 " transform="matrix(0.0996269,0,0,-0.0996269,0.171791,199.502799)"/>
<path style=" stroke:none;fill-rule:nonzero;fill:rgb(65.039062%,51.367188%,68.164062%);fill-opacity:1;" d="M 130.191406 113.769531 L 168.828125 94.550781 L 103.246094 76.914062 "/>
<path style="fill:none;stroke-width:5;stroke-linecap:round;stroke-linejoin:round;stroke:rgb(0%,0%,0%);stroke-opacity:1;stroke-miterlimit:10;" d="M 1305.065801 860.543656 L 1692.880056 1053.45096 L 1034.603488 1230.478699 Z M 1305.065801 860.543656 " transform="matrix(0.0996269,0,0,-0.0996269,0.171791,199.502799)"/>
<path style=" stroke:none;fill-rule:nonzero;fill:rgb(76.171875%,60.351562%,68.164062%);fill-opacity:1;" d="M 76.832031 114.140625 L 38.078125 95.421875 L 103.246094 76.914062 "/>
<path style="fill:none;stroke-width:5;stroke-linecap:round;stroke-linejoin:round;stroke:rgb(0%,0%,0%);stroke-opacity:1;stroke-miterlimit:10;" d="M 769.473572 856.81882 L 380.483052 1044.707397 L 1034.603488 1230.478699 Z M 769.473572 856.81882 " transform="matrix(0.0996269,0,0,-0.0996269,0.171791,199.502799)"/>
<path style=" stroke:none;fill-rule:nonzero;fill:rgb(59.568787%,55.859375%,78.318787%);fill-opacity:1;" d="M 103.941406 141.867188 L 76.832031 114.140625 L 103.246094 76.914062 "/>
<path style="fill:none;stroke-width:5;stroke-linecap:round;stroke-linejoin:round;stroke:rgb(0%,0%,0%);stroke-opacity:1;stroke-miterlimit:10;" d="M 1041.582654 578.514747 L 769.473572 856.81882 L 1034.603488 1230.478699 Z M 1041.582654 578.514747 " transform="matrix(0.0996269,0,0,-0.0996269,0.171791,199.502799)"/>
<path style=" stroke:none;fill-rule:nonzero;fill:rgb(79.6875%,72.459412%,78.514099%);fill-opacity:1;" d="M 103.941406 141.867188 L 130.191406 113.769531 L 103.246094 76.914062 "/>
<path style="fill:none;stroke-width:5;stroke-linecap:round;stroke-linejoin:round;stroke:rgb(0%,0%,0%);stroke-opacity:1;stroke-miterlimit:10;" d="M 1041.582654 578.514747 L 1305.065801 860.543656 L 1034.603488 1230.478699 Z M 1041.582654 578.514747 " transform="matrix(0.0996269,0,0,-0.0996269,0.171791,199.502799)"/>
</g>
</svg>
