<?xml version="1.0" encoding="UTF-8"?>
<svg xmlns="http://www.w3.org/2000/svg" xmlns:xlink="http://www.w3.org/1999/xlink" width="197.75pt" height="201pt" viewBox="0 0 197.75 201" version="1.2">
<g id="surface1">
<path style=" stroke:none;fill-rule:nonzero;fill:rgb(70.117188%,62.889099%,77.146912%);fill-opacity:1;" d="M 61.261719 94.046875 L 110.273438 105.203125 L 73.980469 119.667969 "/>
<path style="fill:none;stroke-width:5;stroke-linecap:round;stroke-linejoin:round;stroke:rgb(0%,0%,0%);stroke-opacity:1;stroke-miterlimit:10;" d="M 613.391672 1069.612832 L 1104.128477 957.909292 L 740.739965 813.077987 Z M 613.391672 1069.612832 " transform="matrix(0.0998737,0,0,-0.0998737,0,200.873106)"/>
<path style=" stroke:none;fill-rule:nonzero;fill:rgb(80.664062%,76.171875%,81.25%);fill-opacity:1;" d="M 43.035156 128.695312 L 61.261719 94.046875 L 73.980469 119.667969 "/>
<path style="fill:none;stroke-width:5;stroke-linecap:round;stroke-linejoin:round;stroke:rgb(0%,0%,0%);stroke-opacity:1;stroke-miterlimit:10;" d="M 430.895623 722.690424 L 613.391672 1069.612832 L 740.739965 813.077987 Z M 430.895623 722.690424 " transform="matrix(0.0998737,0,0,-0.0998737,0,200.873106)"/>
<path style=" stroke:none;fill-rule:nonzero;fill:rgb(67.771912%,51.756287%,66.209412%);fill-opacity:1;" d="M 61.261719 94.046875 L 84.121094 76.066406 L 110.273438 105.203125 "/>
<path style="fill:none;stroke-width:5;stroke-linecap:round;stroke-linejoin:round;stroke:rgb(0%,0%,0%);stroke-opacity:1;stroke-miterlimit:10;" d="M 613.391672 1069.612832 L 842.274415 1249.644832 L 1104.128477 957.909292 Z M 613.391672 1069.612832 " transform="matrix(0.0998737,0,0,-0.0998737,0,200.873106)"/>
<path style="fill-rule:nonzero;fill:rgb(92.381287%,78.514099%,68.943787%);fill-opacity:1;stroke-width:5;stroke-linecap:round;stroke-linejoin:round;stroke:rgb(0%,0%,0%);stroke-opacity:1;stroke-miterlimit:10;" d="M 439.891356 1119.871602 L 613.391672 1069.612832 L 555.466972 959.512879 " transform="matrix(0.0998737,0,0,-0.0998737,0,200.873106)"/>
<path style=" stroke:none;fill-rule:nonzero;fill:rgb(74.21875%,48.901367%,54.492188%);fill-opacity:1;" d="M 84.121094 76.066406 L 61.261719 94.046875 L 60.871094 52.621094 "/>
<path style="fill:none;stroke-width:5;stroke-linecap:round;stroke-linejoin:round;stroke:rgb(0%,0%,0%);stroke-opacity:1;stroke-miterlimit:10;" d="M 842.274415 1249.644832 L 613.391672 1069.612832 L 609.480484 1484.394358 Z M 842.274415 1249.644832 " transform="matrix(0.0998737,0,0,-0.0998737,0,200.873106)"/>
<path style=" stroke:none;fill-rule:nonzero;fill:rgb(88.084412%,60.742188%,52.146912%);fill-opacity:1;" d="M 61.261719 94.046875 L 43.933594 89.027344 L 60.871094 52.621094 "/>
<path style="fill:none;stroke-width:5;stroke-linecap:round;stroke-linejoin:round;stroke:rgb(0%,0%,0%);stroke-opacity:1;stroke-miterlimit:10;" d="M 613.391672 1069.612832 L 439.891356 1119.871602 L 609.480484 1484.394358 Z M 613.391672 1069.612832 " transform="matrix(0.0998737,0,0,-0.0998737,0,200.873106)"/>
<path style=" stroke:none;fill-rule:nonzero;fill:rgb(60.9375%,48.997498%,69.139099%);fill-opacity:1;" d="M 105.25 54.695312 L 128.332031 71.367188 L 110.273438 105.203125 "/>
<path style="fill:none;stroke-width:5;stroke-linecap:round;stroke-linejoin:round;stroke:rgb(0%,0%,0%);stroke-opacity:1;stroke-miterlimit:10;" d="M 1053.830594 1463.625948 L 1284.942715 1296.696429 L 1104.128477 957.909292 Z M 1053.830594 1463.625948 " transform="matrix(0.0998737,0,0,-0.0998737,0,200.873106)"/>
<path style=" stroke:none;fill-rule:nonzero;fill:rgb(73.046875%,59.764099%,70.896912%);fill-opacity:1;" d="M 84.121094 76.066406 L 105.25 54.695312 L 110.273438 105.203125 "/>
<path style="fill:none;stroke-width:5;stroke-linecap:round;stroke-linejoin:round;stroke:rgb(0%,0%,0%);stroke-opacity:1;stroke-miterlimit:10;" d="M 842.274415 1249.644832 L 1053.830594 1463.625948 L 1104.128477 957.909292 Z M 842.274415 1249.644832 " transform="matrix(0.0998737,0,0,-0.0998737,0,200.873106)"/>
<path style=" stroke:none;fill-rule:nonzero;fill:rgb(48.706055%,28.393555%,52.929688%);fill-opacity:1;" d="M 128.332031 71.367188 L 105.25 54.695312 L 138.171875 43.863281 "/>
<path style="fill:none;stroke-width:5;stroke-linecap:round;stroke-linejoin:round;stroke:rgb(0%,0%,0%);stroke-opacity:1;stroke-miterlimit:10;" d="M 1284.942715 1296.696429 L 1053.830594 1463.625948 L 1383.46555 1572.083202 Z M 1284.942715 1296.696429 " transform="matrix(0.0998737,0,0,-0.0998737,0,200.873106)"/>
<path style=" stroke:none;fill-rule:nonzero;fill:rgb(80.664062%,58.789062%,60.546875%);fill-opacity:1;" d="M 60.871094 52.621094 L 105.25 54.695312 L 84.121094 76.066406 "/>
<path style="fill:none;stroke-width:5;stroke-linecap:round;stroke-linejoin:round;stroke:rgb(0%,0%,0%);stroke-opacity:1;stroke-miterlimit:10;" d="M 609.480484 1484.394358 L 1053.830594 1463.625948 L 842.274415 1249.644832 Z M 609.480484 1484.394358 " transform="matrix(0.0998737,0,0,-0.0998737,0,200.873106)"/>
<path style=" stroke:none;fill-rule:nonzero;fill:rgb(51.5625%,15.087891%,28.709412%);fill-opacity:1;" d="M 105.25 54.695312 L 99.402344 39.21875 L 138.171875 43.863281 "/>
<path style="fill:none;stroke-width:5;stroke-linecap:round;stroke-linejoin:round;stroke:rgb(0%,0%,0%);stroke-opacity:1;stroke-miterlimit:10;" d="M 1053.830594 1463.625948 L 995.280104 1618.587231 L 1383.46555 1572.083202 Z M 1053.830594 1463.625948 " transform="matrix(0.0998737,0,0,-0.0998737,0,200.873106)"/>
<path style=" stroke:none;fill-rule:nonzero;fill:rgb(74.21875%,38.696289%,37.693787%);fill-opacity:1;" d="M 99.402344 39.21875 L 105.25 54.695312 L 60.871094 52.621094 "/>
<path style="fill:none;stroke-width:5;stroke-linecap:round;stroke-linejoin:round;stroke:rgb(0%,0%,0%);stroke-opacity:1;stroke-miterlimit:10;" d="M 995.280104 1618.587231 L 1053.830594 1463.625948 L 609.480484 1484.394358 Z M 995.280104 1618.587231 " transform="matrix(0.0998737,0,0,-0.0998737,0,200.873106)"/>
<path style=" stroke:none;fill-rule:nonzero;fill:rgb(73.046875%,59.764099%,70.896912%);fill-opacity:1;" d="M 83.527344 148.515625 L 73.980469 119.667969 L 110.273438 105.203125 "/>
<path style="fill:none;stroke-width:5;stroke-linecap:round;stroke-linejoin:round;stroke:rgb(0%,0%,0%);stroke-opacity:1;stroke-miterlimit:10;" d="M 836.329409 524.236726 L 740.739965 813.077987 L 1104.128477 957.909292 Z M 836.329409 524.236726 " transform="matrix(0.0998737,0,0,-0.0998737,0,200.873106)"/>
<path style=" stroke:none;fill-rule:nonzero;fill:rgb(62.304688%,56.25%,76.367188%);fill-opacity:1;" d="M 111.914062 142.839844 L 83.527344 148.515625 L 110.273438 105.203125 "/>
<path style="fill:none;stroke-width:5;stroke-linecap:round;stroke-linejoin:round;stroke:rgb(0%,0%,0%);stroke-opacity:1;stroke-miterlimit:10;" d="M 1120.555468 581.066293 L 836.329409 524.236726 L 1104.128477 957.909292 Z M 1120.555468 581.066293 " transform="matrix(0.0998737,0,0,-0.0998737,0,200.873106)"/>
<path style=" stroke:none;fill-rule:nonzero;fill:rgb(62.304688%,56.25%,76.367188%);fill-opacity:1;" d="M 110.273438 105.203125 L 156.242188 84.339844 L 146.058594 112.8125 "/>
<path style="fill:none;stroke-width:5;stroke-linecap:round;stroke-linejoin:round;stroke:rgb(0%,0%,0%);stroke-opacity:1;stroke-miterlimit:10;" d="M 1104.128477 957.909292 L 1564.397124 1166.805863 L 1462.432443 881.719343 Z M 1104.128477 957.909292 " transform="matrix(0.0998737,0,0,-0.0998737,0,200.873106)"/>
<path style=" stroke:none;fill-rule:nonzero;fill:rgb(67.771912%,51.756287%,66.209412%);fill-opacity:1;" d="M 128.332031 71.367188 L 156.242188 84.339844 L 110.273438 105.203125 "/>
<path style="fill:none;stroke-width:5;stroke-linecap:round;stroke-linejoin:round;stroke:rgb(0%,0%,0%);stroke-opacity:1;stroke-miterlimit:10;" d="M 1284.942715 1296.696429 L 1564.397124 1166.805863 L 1104.128477 957.909292 Z M 1284.942715 1296.696429 " transform="matrix(0.0998737,0,0,-0.0998737,0,200.873106)"/>
<path style=" stroke:none;fill-rule:nonzero;fill:rgb(60.9375%,48.997498%,69.139099%);fill-opacity:1;" d="M 142.804688 143.34375 L 110.273438 105.203125 L 146.058594 112.8125 "/>
<path style="fill:none;stroke-width:5;stroke-linecap:round;stroke-linejoin:round;stroke:rgb(0%,0%,0%);stroke-opacity:1;stroke-miterlimit:10;" d="M 1429.852244 576.02086 L 1104.128477 957.909292 L 1462.432443 881.719343 Z M 1429.852244 576.02086 " transform="matrix(0.0998737,0,0,-0.0998737,0,200.873106)"/>
<path style=" stroke:none;fill-rule:nonzero;fill:rgb(70.117188%,62.889099%,77.146912%);fill-opacity:1;" d="M 142.804688 143.34375 L 111.914062 142.839844 L 110.273438 105.203125 "/>
<path style="fill:none;stroke-width:5;stroke-linecap:round;stroke-linejoin:round;stroke:rgb(0%,0%,0%);stroke-opacity:1;stroke-miterlimit:10;" d="M 1429.852244 576.02086 L 1120.555468 581.066293 L 1104.128477 957.909292 Z M 1429.852244 576.02086 " transform="matrix(0.0998737,0,0,-0.0998737,0,200.873106)"/>
<path style=" stroke:none;fill-rule:nonzero;fill:rgb(64.646912%,84.959412%,97.851562%);fill-opacity:1;" d="M 71.84375 157.933594 L 83.527344 148.515625 L 109.265625 169.820312 "/>
<path style="fill:none;stroke-width:5;stroke-linecap:round;stroke-linejoin:round;stroke:rgb(0%,0%,0%);stroke-opacity:1;stroke-miterlimit:10;" d="M 719.345765 429.937974 L 836.329409 524.236726 L 1094.037611 310.920512 Z M 719.345765 429.937974 " transform="matrix(0.0998737,0,0,-0.0998737,0,200.873106)"/>
<path style=" stroke:none;fill-rule:nonzero;fill:rgb(85.546875%,88.671875%,85.9375%);fill-opacity:1;" d="M 43.035156 128.695312 L 83.527344 148.515625 L 71.84375 157.933594 "/>
<path style="fill:none;stroke-width:5;stroke-linecap:round;stroke-linejoin:round;stroke:rgb(0%,0%,0%);stroke-opacity:1;stroke-miterlimit:10;" d="M 430.895623 722.690424 L 836.329409 524.236726 L 719.345765 429.937974 Z M 430.895623 722.690424 " transform="matrix(0.0998737,0,0,-0.0998737,0,200.873106)"/>
<path style=" stroke:none;fill-rule:nonzero;fill:rgb(55.271912%,64.256287%,89.256287%);fill-opacity:1;" d="M 83.527344 148.515625 L 111.914062 142.839844 L 109.265625 169.820312 "/>
<path style="fill:none;stroke-width:5;stroke-linecap:round;stroke-linejoin:round;stroke:rgb(0%,0%,0%);stroke-opacity:1;stroke-miterlimit:10;" d="M 836.329409 524.236726 L 1120.555468 581.066293 L 1094.037611 310.920512 Z M 836.329409 524.236726 " transform="matrix(0.0998737,0,0,-0.0998737,0,200.873106)"/>
<path style=" stroke:none;fill-rule:nonzero;fill:rgb(83.789062%,71.875%,73.4375%);fill-opacity:1;" d="M 73.980469 119.667969 L 83.527344 148.515625 L 43.035156 128.695312 "/>
<path style="fill:none;stroke-width:5;stroke-linecap:round;stroke-linejoin:round;stroke:rgb(0%,0%,0%);stroke-opacity:1;stroke-miterlimit:10;" d="M 740.739965 813.077987 L 836.329409 524.236726 L 430.895623 722.690424 Z M 740.739965 813.077987 " transform="matrix(0.0998737,0,0,-0.0998737,0,200.873106)"/>
<path style="fill-rule:nonzero;fill:rgb(92.381287%,78.514099%,68.943787%);fill-opacity:1;stroke-width:5;stroke-linecap:round;stroke-linejoin:round;stroke:rgb(0%,0%,0%);stroke-opacity:1;stroke-miterlimit:10;" d="M 555.466972 959.512879 L 430.895623 722.690424 L 439.891356 1119.871602 " transform="matrix(0.0998737,0,0,-0.0998737,0,200.873106)"/>
<path style=" stroke:none;fill-rule:nonzero;fill:rgb(58.984375%,33.789062%,50.389099%);fill-opacity:1;" d="M 138.171875 43.863281 L 156.242188 84.339844 L 128.332031 71.367188 "/>
<path style="fill:none;stroke-width:5;stroke-linecap:round;stroke-linejoin:round;stroke:rgb(0%,0%,0%);stroke-opacity:1;stroke-miterlimit:10;" d="M 1383.46555 1572.083202 L 1564.397124 1166.805863 L 1284.942715 1296.696429 Z M 1383.46555 1572.083202 " transform="matrix(0.0998737,0,0,-0.0998737,0,200.873106)"/>
<path style=" stroke:none;fill-rule:nonzero;fill:rgb(39.793396%,42.601013%,77.34375%);fill-opacity:1;" d="M 146.058594 112.8125 L 156.242188 84.339844 L 169.769531 116.84375 "/>
<path style="fill:none;stroke-width:5;stroke-linecap:round;stroke-linejoin:round;stroke:rgb(0%,0%,0%);stroke-opacity:1;stroke-miterlimit:10;" d="M 1462.432443 881.719343 L 1564.397124 1166.805863 L 1699.841577 841.355879 Z M 1462.432443 881.719343 " transform="matrix(0.0998737,0,0,-0.0998737,0,200.873106)"/>
<path style=" stroke:none;fill-rule:nonzero;fill:rgb(24.09668%,1.499939%,31.492615%);fill-opacity:1;" d="M 156.242188 84.339844 L 138.171875 43.863281 L 164.0625 76.53125 "/>
<path style="fill:none;stroke-width:5;stroke-linecap:round;stroke-linejoin:round;stroke:rgb(0%,0%,0%);stroke-opacity:1;stroke-miterlimit:10;" d="M 1564.397124 1166.805863 L 1383.46555 1572.083202 L 1642.699115 1244.990518 Z M 1564.397124 1166.805863 " transform="matrix(0.0998737,0,0,-0.0998737,0,200.873106)"/>
<path style=" stroke:none;fill-rule:nonzero;fill:rgb(1.300049%,1.300049%,47.996521%);fill-opacity:1;" d="M 169.769531 116.84375 L 156.242188 84.339844 L 164.0625 76.53125 "/>
<path style="fill:none;stroke-width:5;stroke-linecap:round;stroke-linejoin:round;stroke:rgb(0%,0%,0%);stroke-opacity:1;stroke-miterlimit:10;" d="M 1699.841577 841.355879 L 1564.397124 1166.805863 L 1642.699115 1244.990518 Z M 1699.841577 841.355879 " transform="matrix(0.0998737,0,0,-0.0998737,0,200.873106)"/>
<path style=" stroke:none;fill-rule:nonzero;fill:rgb(66.992188%,73.242188%,89.646912%);fill-opacity:1;" d="M 111.914062 142.839844 L 142.804688 143.34375 L 109.265625 169.820312 "/>
<path style="fill:none;stroke-width:5;stroke-linecap:round;stroke-linejoin:round;stroke:rgb(0%,0%,0%);stroke-opacity:1;stroke-miterlimit:10;" d="M 1120.555468 581.066293 L 1429.852244 576.02086 L 1094.037611 310.920512 Z M 1120.555468 581.066293 " transform="matrix(0.0998737,0,0,-0.0998737,0,200.873106)"/>
<path style=" stroke:none;fill-rule:nonzero;fill:rgb(31.201172%,60.9375%,95.3125%);fill-opacity:1;" d="M 142.804688 143.34375 L 147.011719 151.542969 L 109.265625 169.820312 "/>
<path style="fill:none;stroke-width:5;stroke-linecap:round;stroke-linejoin:round;stroke:rgb(0%,0%,0%);stroke-opacity:1;stroke-miterlimit:10;" d="M 1429.852244 576.02086 L 1471.975743 493.925016 L 1094.037611 310.920512 Z M 1429.852244 576.02086 " transform="matrix(0.0998737,0,0,-0.0998737,0,200.873106)"/>
<path style=" stroke:none;fill-rule:nonzero;fill:rgb(38.110352%,32.00531%,66.40625%);fill-opacity:1;" d="M 169.769531 116.84375 L 142.804688 143.34375 L 146.058594 112.8125 "/>
<path style="fill:none;stroke-width:5;stroke-linecap:round;stroke-linejoin:round;stroke:rgb(0%,0%,0%);stroke-opacity:1;stroke-miterlimit:10;" d="M 1699.841577 841.355879 L 1429.852244 576.02086 L 1462.432443 881.719343 Z M 1699.841577 841.355879 " transform="matrix(0.0998737,0,0,-0.0998737,0,200.873106)"/>
<path style=" stroke:none;fill-rule:nonzero;fill:rgb(2.49939%,23.706055%,74.021912%);fill-opacity:1;" d="M 142.804688 143.34375 L 169.769531 116.84375 L 147.011719 151.542969 "/>
<path style="fill:none;stroke-width:5;stroke-linecap:round;stroke-linejoin:round;stroke:rgb(0%,0%,0%);stroke-opacity:1;stroke-miterlimit:10;" d="M 1429.852244 576.02086 L 1699.841577 841.355879 L 1471.975743 493.925016 Z M 1429.852244 576.02086 " transform="matrix(0.0998737,0,0,-0.0998737,0,200.873106)"/>
<path style=" stroke:none;fill-rule:nonzero;fill:rgb(83.789062%,71.875%,73.4375%);fill-opacity:1;" d="M 17.367188 82.125 L 43.933594 89.027344 L 43.035156 128.695312 "/>
<path style="fill:none;stroke-width:5;stroke-linecap:round;stroke-linejoin:round;stroke:rgb(0%,0%,0%);stroke-opacity:1;stroke-miterlimit:10;" d="M 173.891435 1188.982301 L 439.891356 1119.871602 L 430.895623 722.690424 Z M 173.891435 1188.982301 " transform="matrix(0.0998737,0,0,-0.0998737,0,200.873106)"/>
<path style=" stroke:none;fill-rule:nonzero;fill:rgb(80.664062%,58.789062%,60.546875%);fill-opacity:1;" d="M 17.367188 82.125 L 60.871094 52.621094 L 43.933594 89.027344 "/>
<path style="fill:none;stroke-width:5;stroke-linecap:round;stroke-linejoin:round;stroke:rgb(0%,0%,0%);stroke-opacity:1;stroke-miterlimit:10;" d="M 173.891435 1188.982301 L 609.480484 1484.394358 L 439.891356 1119.871602 Z M 173.891435 1188.982301 " transform="matrix(0.0998737,0,0,-0.0998737,0,200.873106)"/>
<path style=" stroke:none;fill-rule:nonzero;fill:rgb(74.21875%,48.901367%,54.492188%);fill-opacity:1;" d="M 60.871094 52.621094 L 93.390625 13.476562 L 99.402344 39.21875 "/>
<path style="fill:none;stroke-width:5;stroke-linecap:round;stroke-linejoin:round;stroke:rgb(0%,0%,0%);stroke-opacity:1;stroke-miterlimit:10;" d="M 609.480484 1484.394358 L 935.086915 1876.334545 L 995.280104 1618.587231 Z M 609.480484 1484.394358 " transform="matrix(0.0998737,0,0,-0.0998737,0,200.873106)"/>
<path style=" stroke:none;fill-rule:nonzero;fill:rgb(58.984375%,33.789062%,50.389099%);fill-opacity:1;" d="M 93.390625 13.476562 L 138.171875 43.863281 L 99.402344 39.21875 "/>
<path style="fill:none;stroke-width:5;stroke-linecap:round;stroke-linejoin:round;stroke:rgb(0%,0%,0%);stroke-opacity:1;stroke-miterlimit:10;" d="M 935.086915 1876.334545 L 1383.46555 1572.083202 L 995.280104 1618.587231 Z M 935.086915 1876.334545 " transform="matrix(0.0998737,0,0,-0.0998737,0,200.873106)"/>
<path style=" stroke:none;fill-rule:nonzero;fill:rgb(74.21875%,38.696289%,37.693787%);fill-opacity:1;" d="M 35.675781 29.65625 L 67.4375 26.984375 L 60.871094 52.621094 "/>
<path style="fill:none;stroke-width:5;stroke-linecap:round;stroke-linejoin:round;stroke:rgb(0%,0%,0%);stroke-opacity:1;stroke-miterlimit:10;" d="M 357.208834 1714.333123 L 675.22756 1741.085651 L 609.480484 1484.394358 Z M 357.208834 1714.333123 " transform="matrix(0.0998737,0,0,-0.0998737,0,200.873106)"/>
<path style=" stroke:none;fill-rule:nonzero;fill:rgb(88.084412%,60.742188%,52.146912%);fill-opacity:1;" d="M 31.359375 59.617188 L 35.675781 29.65625 L 60.871094 52.621094 "/>
<path style="fill:none;stroke-width:5;stroke-linecap:round;stroke-linejoin:round;stroke:rgb(0%,0%,0%);stroke-opacity:1;stroke-miterlimit:10;" d="M 313.990202 1414.344975 L 357.208834 1714.333123 L 609.480484 1484.394358 Z M 313.990202 1414.344975 " transform="matrix(0.0998737,0,0,-0.0998737,0,200.873106)"/>
<path style="fill-rule:nonzero;fill:rgb(84.179688%,45.092773%,31.005859%);fill-opacity:1;stroke-width:5;stroke-linecap:round;stroke-linejoin:round;stroke:rgb(0%,0%,0%);stroke-opacity:1;stroke-miterlimit:10;" d="M 825.690977 1744.605721 L 609.480484 1484.394358 L 675.22756 1741.085651 " transform="matrix(0.0998737,0,0,-0.0998737,0,200.873106)"/>
<path style="fill-rule:nonzero;fill:rgb(84.179688%,45.092773%,31.005859%);fill-opacity:1;stroke-width:5;stroke-linecap:round;stroke-linejoin:round;stroke:rgb(0%,0%,0%);stroke-opacity:1;stroke-miterlimit:10;" d="M 319.074747 1287.466024 L 173.891435 1188.982301 L 313.990202 1414.344975 " transform="matrix(0.0998737,0,0,-0.0998737,0,200.873106)"/>
<path style=" stroke:none;fill-rule:nonzero;fill:rgb(6.687927%,6.687927%,50.78125%);fill-opacity:1;" d="M 17.367188 82.125 L 20.609375 80.511719 L 31.359375 59.617188 "/>
<path style="fill:none;stroke-width:5;stroke-linecap:round;stroke-linejoin:round;stroke:rgb(0%,0%,0%);stroke-opacity:1;stroke-miterlimit:10;" d="M 173.891435 1188.982301 L 206.354298 1205.135509 L 313.990202 1414.344975 Z M 173.891435 1188.982301 " transform="matrix(0.0998737,0,0,-0.0998737,0,200.873106)"/>
<path style="fill-rule:nonzero;fill:rgb(93.943787%,65.234375%,18.896484%);fill-opacity:1;stroke-width:5;stroke-linecap:round;stroke-linejoin:round;stroke:rgb(0%,0%,0%);stroke-opacity:1;stroke-miterlimit:10;" d="M 313.990202 1414.344975 L 206.354298 1205.135509 L 308.592762 1550.258771 " transform="matrix(0.0998737,0,0,-0.0998737,0,200.873106)"/>
<path style="fill-rule:nonzero;fill:rgb(93.943787%,65.234375%,18.896484%);fill-opacity:1;stroke-width:5;stroke-linecap:round;stroke-linejoin:round;stroke:rgb(0%,0%,0%);stroke-opacity:1;stroke-miterlimit:10;" d="M 308.592762 1550.258771 L 357.208834 1714.333123 L 313.990202 1414.344975 " transform="matrix(0.0998737,0,0,-0.0998737,0,200.873106)"/>
<path style="fill-rule:nonzero;fill:rgb(84.179688%,45.092773%,31.005859%);fill-opacity:1;stroke-width:5;stroke-linecap:round;stroke-linejoin:round;stroke:rgb(0%,0%,0%);stroke-opacity:1;stroke-miterlimit:10;" d="M 313.990202 1414.344975 L 609.480484 1484.394358 L 319.074747 1287.466024 " transform="matrix(0.0998737,0,0,-0.0998737,0,200.873106)"/>
<path style=" stroke:none;fill-rule:nonzero;fill:rgb(80.664062%,76.171875%,81.25%);fill-opacity:1;" d="M 71.84375 157.933594 L 55.28125 177.09375 L 43.035156 128.695312 "/>
<path style="fill:none;stroke-width:5;stroke-linecap:round;stroke-linejoin:round;stroke:rgb(0%,0%,0%);stroke-opacity:1;stroke-miterlimit:10;" d="M 719.345765 429.937974 L 553.511378 238.094185 L 430.895623 722.690424 Z M 719.345765 429.937974 " transform="matrix(0.0998737,0,0,-0.0998737,0,200.873106)"/>
<path style=" stroke:none;fill-rule:nonzero;fill:rgb(85.546875%,88.671875%,85.9375%);fill-opacity:1;" d="M 38.101562 152.117188 L 10.859375 134.609375 L 43.035156 128.695312 "/>
<path style="fill:none;stroke-width:5;stroke-linecap:round;stroke-linejoin:round;stroke:rgb(0%,0%,0%);stroke-opacity:1;stroke-miterlimit:10;" d="M 381.497314 488.175569 L 108.731037 663.475032 L 430.895623 722.690424 Z M 381.497314 488.175569 " transform="matrix(0.0998737,0,0,-0.0998737,0,200.873106)"/>
<path style="fill-rule:nonzero;fill:rgb(93.943787%,65.234375%,18.896484%);fill-opacity:1;stroke-width:5;stroke-linecap:round;stroke-linejoin:round;stroke:rgb(0%,0%,0%);stroke-opacity:1;stroke-miterlimit:10;" d="M 201.934655 939.956937 L 108.731037 663.475032 L 140.294327 838.813606 " transform="matrix(0.0998737,0,0,-0.0998737,0,200.873106)"/>
<path style="fill-rule:nonzero;fill:rgb(94.726562%,91.796875%,74.804688%);fill-opacity:1;stroke-width:5;stroke-linecap:round;stroke-linejoin:round;stroke:rgb(0%,0%,0%);stroke-opacity:1;stroke-miterlimit:10;" d="M 201.934655 939.956937 L 173.891435 1188.982301 L 259.272677 1034.099241 " transform="matrix(0.0998737,0,0,-0.0998737,0,200.873106)"/>
<path style=" stroke:none;fill-rule:nonzero;fill:rgb(24.19281%,24.19281%,34.008789%);fill-opacity:1;" d="M 17.367188 82.125 L 20.167969 106.996094 L 20.609375 80.511719 "/>
<path style="fill:none;stroke-width:5;stroke-linecap:round;stroke-linejoin:round;stroke:rgb(0%,0%,0%);stroke-opacity:1;stroke-miterlimit:10;" d="M 173.891435 1188.982301 L 201.934655 939.956937 L 206.354298 1205.135509 Z M 173.891435 1188.982301 " transform="matrix(0.0998737,0,0,-0.0998737,0,200.873106)"/>
<path style="fill-rule:nonzero;fill:rgb(93.943787%,65.234375%,18.896484%);fill-opacity:1;stroke-width:5;stroke-linecap:round;stroke-linejoin:round;stroke:rgb(0%,0%,0%);stroke-opacity:1;stroke-miterlimit:10;" d="M 140.294327 838.813606 L 206.354298 1205.135509 L 201.934655 939.956937 " transform="matrix(0.0998737,0,0,-0.0998737,0,200.873106)"/>
<path style="fill-rule:nonzero;fill:rgb(94.726562%,91.796875%,74.804688%);fill-opacity:1;stroke-width:5;stroke-linecap:round;stroke-linejoin:round;stroke:rgb(0%,0%,0%);stroke-opacity:1;stroke-miterlimit:10;" d="M 259.272677 1034.099241 L 430.895623 722.690424 L 201.934655 939.956937 " transform="matrix(0.0998737,0,0,-0.0998737,0,200.873106)"/>
<path style="fill-rule:nonzero;fill:rgb(94.726562%,91.796875%,74.804688%);fill-opacity:1;stroke-width:5;stroke-linecap:round;stroke-linejoin:round;stroke:rgb(0%,0%,0%);stroke-opacity:1;stroke-miterlimit:10;" d="M 381.497314 488.175569 L 430.895623 722.690424 L 512.170117 401.581858 " transform="matrix(0.0998737,0,0,-0.0998737,0,200.873106)"/>
<path style="fill-rule:nonzero;fill:rgb(38.305664%,38.305664%,38.305664%);fill-opacity:1;stroke-width:5;stroke-linecap:round;stroke-linejoin:round;stroke:rgb(0%,0%,0%);stroke-opacity:1;stroke-miterlimit:10;" d="M 381.497314 488.175569 L 527.228192 403.263669 L 242.415455 580.362279 " transform="matrix(0.0998737,0,0,-0.0998737,0,200.873106)"/>
<path style="fill-rule:nonzero;fill:rgb(38.305664%,38.305664%,38.305664%);fill-opacity:1;stroke-width:5;stroke-linecap:round;stroke-linejoin:round;stroke:rgb(0%,0%,0%);stroke-opacity:1;stroke-miterlimit:10;" d="M 242.415455 580.362279 L 108.731037 663.475032 L 381.497314 488.175569 " transform="matrix(0.0998737,0,0,-0.0998737,0,200.873106)"/>
<path style="fill-rule:nonzero;fill:rgb(94.726562%,91.796875%,74.804688%);fill-opacity:1;stroke-width:5;stroke-linecap:round;stroke-linejoin:round;stroke:rgb(0%,0%,0%);stroke-opacity:1;stroke-miterlimit:10;" d="M 512.170117 401.581858 L 553.511378 238.094185 L 381.497314 488.175569 " transform="matrix(0.0998737,0,0,-0.0998737,0,200.873106)"/>
<path style=" stroke:none;fill-rule:nonzero;fill:rgb(92.381287%,78.514099%,68.943787%);fill-opacity:1;" d="M 10.859375 134.609375 L 20.167969 106.996094 L 43.035156 128.695312 "/>
<path style="fill:none;stroke-width:5;stroke-linecap:round;stroke-linejoin:round;stroke:rgb(0%,0%,0%);stroke-opacity:1;stroke-miterlimit:10;" d="M 108.731037 663.475032 L 201.934655 939.956937 L 430.895623 722.690424 Z M 108.731037 663.475032 " transform="matrix(0.0998737,0,0,-0.0998737,0,200.873106)"/>
<path style=" stroke:none;fill-rule:nonzero;fill:rgb(66.992188%,73.242188%,89.646912%);fill-opacity:1;" d="M 55.28125 177.09375 L 71.84375 157.933594 L 109.265625 169.820312 "/>
<path style="fill:none;stroke-width:5;stroke-linecap:round;stroke-linejoin:round;stroke:rgb(0%,0%,0%);stroke-opacity:1;stroke-miterlimit:10;" d="M 553.511378 238.094185 L 719.345765 429.937974 L 1094.037611 310.920512 Z M 553.511378 238.094185 " transform="matrix(0.0998737,0,0,-0.0998737,0,200.873106)"/>
<path style=" stroke:none;fill-rule:nonzero;fill:rgb(24.09668%,1.499939%,31.492615%);fill-opacity:1;" d="M 138.171875 43.863281 L 142.398438 16.832031 L 158.238281 45.371094 "/>
<path style="fill:none;stroke-width:5;stroke-linecap:round;stroke-linejoin:round;stroke:rgb(0%,0%,0%);stroke-opacity:1;stroke-miterlimit:10;" d="M 1383.46555 1572.083202 L 1425.784608 1842.737437 L 1584.383296 1556.986015 Z M 1383.46555 1572.083202 " transform="matrix(0.0998737,0,0,-0.0998737,0,200.873106)"/>
<path style=" stroke:none;fill-rule:nonzero;fill:rgb(48.706055%,28.393555%,52.929688%);fill-opacity:1;" d="M 138.171875 43.863281 L 182.976562 64.460938 L 164.0625 76.53125 "/>
<path style="fill:none;stroke-width:5;stroke-linecap:round;stroke-linejoin:round;stroke:rgb(0%,0%,0%);stroke-opacity:1;stroke-miterlimit:10;" d="M 1383.46555 1572.083202 L 1832.078856 1365.846239 L 1642.699115 1244.990518 Z M 1383.46555 1572.083202 " transform="matrix(0.0998737,0,0,-0.0998737,0,200.873106)"/>
<path style="fill-rule:nonzero;fill:rgb(28.393555%,12.010193%,12.010193%);fill-opacity:1;stroke-width:5;stroke-linecap:round;stroke-linejoin:round;stroke:rgb(0%,0%,0%);stroke-opacity:1;stroke-miterlimit:10;" d="M 1680.246523 1435.621839 L 1383.46555 1572.083202 L 1584.383296 1556.986015 " transform="matrix(0.0998737,0,0,-0.0998737,0,200.873106)"/>
<path style=" stroke:none;fill-rule:nonzero;fill:rgb(51.5625%,15.087891%,28.709412%);fill-opacity:1;" d="M 115.644531 21.207031 L 142.398438 16.832031 L 138.171875 43.863281 "/>
<path style="fill:none;stroke-width:5;stroke-linecap:round;stroke-linejoin:round;stroke:rgb(0%,0%,0%);stroke-opacity:1;stroke-miterlimit:10;" d="M 1157.907317 1798.932127 L 1425.784608 1842.737437 L 1383.46555 1572.083202 Z M 1157.907317 1798.932127 " transform="matrix(0.0998737,0,0,-0.0998737,0,200.873106)"/>
<path style="fill-rule:nonzero;fill:rgb(28.393555%,12.010193%,12.010193%);fill-opacity:1;stroke-width:5;stroke-linecap:round;stroke-linejoin:round;stroke:rgb(0%,0%,0%);stroke-opacity:1;stroke-miterlimit:10;" d="M 1083.712073 1775.425885 L 935.086915 1876.334545 L 1157.907317 1798.932127 " transform="matrix(0.0998737,0,0,-0.0998737,0,200.873106)"/>
<path style="fill-rule:nonzero;fill:rgb(84.179688%,45.092773%,31.005859%);fill-opacity:1;stroke-width:5;stroke-linecap:round;stroke-linejoin:round;stroke:rgb(0%,0%,0%);stroke-opacity:1;stroke-miterlimit:10;" d="M 675.22756 1741.085651 L 935.086915 1876.334545 L 825.690977 1744.605721 " transform="matrix(0.0998737,0,0,-0.0998737,0,200.873106)"/>
<path style=" stroke:none;fill-rule:nonzero;fill:rgb(47.509766%,86.71875%,96.875%);fill-opacity:1;" d="M 93.390625 13.476562 L 84.882812 22.484375 L 115.644531 21.207031 "/>
<path style="fill:none;stroke-width:5;stroke-linecap:round;stroke-linejoin:round;stroke:rgb(0%,0%,0%);stroke-opacity:1;stroke-miterlimit:10;" d="M 935.086915 1876.334545 L 849.901233 1786.142541 L 1157.907317 1798.932127 Z M 935.086915 1876.334545 " transform="matrix(0.0998737,0,0,-0.0998737,0,200.873106)"/>
<path style="fill-rule:nonzero;fill:rgb(41.308594%,18.896484%,18.896484%);fill-opacity:1;stroke-width:5;stroke-linecap:round;stroke-linejoin:round;stroke:rgb(0%,0%,0%);stroke-opacity:1;stroke-miterlimit:10;" d="M 1157.907317 1798.932127 L 849.901233 1786.142541 L 1238.008454 1824.276628 " transform="matrix(0.0998737,0,0,-0.0998737,0,200.873106)"/>
<path style="fill-rule:nonzero;fill:rgb(41.308594%,18.896484%,18.896484%);fill-opacity:1;stroke-width:5;stroke-linecap:round;stroke-linejoin:round;stroke:rgb(0%,0%,0%);stroke-opacity:1;stroke-miterlimit:10;" d="M 1238.008454 1824.276628 L 1425.784608 1842.737437 L 1157.907317 1798.932127 " transform="matrix(0.0998737,0,0,-0.0998737,0,200.873106)"/>
<path style="fill-rule:nonzero;fill:rgb(28.393555%,12.010193%,12.010193%);fill-opacity:1;stroke-width:5;stroke-linecap:round;stroke-linejoin:round;stroke:rgb(0%,0%,0%);stroke-opacity:1;stroke-miterlimit:10;" d="M 1157.907317 1798.932127 L 1383.46555 1572.083202 L 1083.712073 1775.425885 " transform="matrix(0.0998737,0,0,-0.0998737,0,200.873106)"/>
<path style=" stroke:none;fill-rule:nonzero;fill:rgb(38.110352%,32.00531%,66.40625%);fill-opacity:1;" d="M 164.0625 76.53125 L 182.976562 64.460938 L 169.769531 116.84375 "/>
<path style="fill:none;stroke-width:5;stroke-linecap:round;stroke-linejoin:round;stroke:rgb(0%,0%,0%);stroke-opacity:1;stroke-miterlimit:10;" d="M 1642.699115 1244.990518 L 1832.078856 1365.846239 L 1699.841577 841.355879 Z M 1642.699115 1244.990518 " transform="matrix(0.0998737,0,0,-0.0998737,0,200.873106)"/>
<path style=" stroke:none;fill-rule:nonzero;fill:rgb(39.793396%,42.601013%,77.34375%);fill-opacity:1;" d="M 159.386719 168.734375 L 147.011719 151.542969 L 169.769531 116.84375 "/>
<path style="fill:none;stroke-width:5;stroke-linecap:round;stroke-linejoin:round;stroke:rgb(0%,0%,0%);stroke-opacity:1;stroke-miterlimit:10;" d="M 1595.88219 321.793616 L 1471.975743 493.925016 L 1699.841577 841.355879 Z M 1595.88219 321.793616 " transform="matrix(0.0998737,0,0,-0.0998737,0,200.873106)"/>
<path style=" stroke:none;fill-rule:nonzero;fill:rgb(55.271912%,64.256287%,89.256287%);fill-opacity:1;" d="M 159.386719 168.734375 L 109.265625 169.820312 L 147.011719 151.542969 "/>
<path style="fill:none;stroke-width:5;stroke-linecap:round;stroke-linejoin:round;stroke:rgb(0%,0%,0%);stroke-opacity:1;stroke-miterlimit:10;" d="M 1595.88219 321.793616 L 1094.037611 310.920512 L 1471.975743 493.925016 Z M 1595.88219 321.793616 " transform="matrix(0.0998737,0,0,-0.0998737,0,200.873106)"/>
<path style="fill-rule:nonzero;fill:rgb(28.100586%,72.851562%,96.09375%);fill-opacity:1;stroke-width:5;stroke-linecap:round;stroke-linejoin:round;stroke:rgb(0%,0%,0%);stroke-opacity:1;stroke-miterlimit:10;" d="M 1290.105484 267.154314 L 1094.037611 310.920512 L 1426.136615 318.117099 " transform="matrix(0.0998737,0,0,-0.0998737,0,200.873106)"/>
<path style=" stroke:none;fill-rule:nonzero;fill:rgb(31.201172%,60.9375%,95.3125%);fill-opacity:1;" d="M 128.847656 174.191406 L 102.136719 192.160156 L 109.265625 169.820312 "/>
<path style="fill:none;stroke-width:5;stroke-linecap:round;stroke-linejoin:round;stroke:rgb(0%,0%,0%);stroke-opacity:1;stroke-miterlimit:10;" d="M 1290.105484 267.154314 L 1022.658423 87.239649 L 1094.037611 310.920512 Z M 1290.105484 267.154314 " transform="matrix(0.0998737,0,0,-0.0998737,0,200.873106)"/>
<path style="fill-rule:nonzero;fill:rgb(78.90625%,29.393005%,0%);fill-opacity:1;stroke-width:5;stroke-linecap:round;stroke-linejoin:round;stroke:rgb(0%,0%,0%);stroke-opacity:1;stroke-miterlimit:10;" d="M 1290.105484 267.154314 L 1402.200142 477.380689 L 1144.726612 212.710572 " transform="matrix(0.0998737,0,0,-0.0998737,0,200.873106)"/>
<path style="fill-rule:nonzero;fill:rgb(78.90625%,29.393005%,0%);fill-opacity:1;stroke-width:5;stroke-linecap:round;stroke-linejoin:round;stroke:rgb(0%,0%,0%);stroke-opacity:1;stroke-miterlimit:10;" d="M 1144.726612 212.710572 L 1022.658423 87.239649 L 1290.105484 267.154314 " transform="matrix(0.0998737,0,0,-0.0998737,0,200.873106)"/>
<path style="fill-rule:nonzero;fill:rgb(28.100586%,72.851562%,96.09375%);fill-opacity:1;stroke-width:5;stroke-linecap:round;stroke-linejoin:round;stroke:rgb(0%,0%,0%);stroke-opacity:1;stroke-miterlimit:10;" d="M 1426.136615 318.117099 L 1595.88219 321.793616 L 1290.105484 267.154314 " transform="matrix(0.0998737,0,0,-0.0998737,0,200.873106)"/>
<path style=" stroke:none;fill-rule:nonzero;fill:rgb(64.646912%,84.959412%,97.851562%);fill-opacity:1;" d="M 102.136719 192.160156 L 79.34375 178.125 L 109.265625 169.820312 "/>
<path style="fill:none;stroke-width:5;stroke-linecap:round;stroke-linejoin:round;stroke:rgb(0%,0%,0%);stroke-opacity:1;stroke-miterlimit:10;" d="M 1022.658423 87.239649 L 794.440582 227.768647 L 1094.037611 310.920512 Z M 1022.658423 87.239649 " transform="matrix(0.0998737,0,0,-0.0998737,0,200.873106)"/>
<path style="fill-rule:nonzero;fill:rgb(38.305664%,38.305664%,38.305664%);fill-opacity:1;stroke-width:5;stroke-linecap:round;stroke-linejoin:round;stroke:rgb(0%,0%,0%);stroke-opacity:1;stroke-miterlimit:10;" d="M 794.440582 227.768647 L 1022.658423 87.239649 L 860.85256 190.495022 " transform="matrix(0.0998737,0,0,-0.0998737,0,200.873106)"/>
<path style="fill-rule:nonzero;fill:rgb(28.100586%,72.851562%,96.09375%);fill-opacity:1;stroke-width:5;stroke-linecap:round;stroke-linejoin:round;stroke:rgb(0%,0%,0%);stroke-opacity:1;stroke-miterlimit:10;" d="M 732.995812 262.304441 L 1094.037611 310.920512 L 794.440582 227.768647 " transform="matrix(0.0998737,0,0,-0.0998737,0,200.873106)"/>
<path style="fill-rule:nonzero;fill:rgb(38.305664%,38.305664%,38.305664%);fill-opacity:1;stroke-width:5;stroke-linecap:round;stroke-linejoin:round;stroke:rgb(0%,0%,0%);stroke-opacity:1;stroke-miterlimit:10;" d="M 860.85256 190.495022 L 527.228192 403.263669 L 794.440582 227.768647 " transform="matrix(0.0998737,0,0,-0.0998737,0,200.873106)"/>
<path style="fill-rule:nonzero;fill:rgb(28.100586%,72.851562%,96.09375%);fill-opacity:1;stroke-width:5;stroke-linecap:round;stroke-linejoin:round;stroke:rgb(0%,0%,0%);stroke-opacity:1;stroke-miterlimit:10;" d="M 794.440582 227.768647 L 553.511378 238.094185 L 732.995812 262.304441 " transform="matrix(0.0998737,0,0,-0.0998737,0,200.873106)"/>
<path style=" stroke:none;fill-rule:nonzero;fill:rgb(0%,42.088318%,80.664062%);fill-opacity:1;" d="M 84.882812 22.484375 L 93.390625 13.476562 L 67.4375 26.984375 "/>
<path style="fill:none;stroke-width:5;stroke-linecap:round;stroke-linejoin:round;stroke:rgb(0%,0%,0%);stroke-opacity:1;stroke-miterlimit:10;" d="M 849.901233 1786.142541 L 935.086915 1876.334545 L 675.22756 1741.085651 Z M 849.901233 1786.142541 " transform="matrix(0.0998737,0,0,-0.0998737,0,200.873106)"/>
<path style="fill-rule:nonzero;fill:rgb(13.890076%,13.890076%,46.604919%);fill-opacity:1;stroke-width:5;stroke-linecap:round;stroke-linejoin:round;stroke:rgb(0%,0%,0%);stroke-opacity:1;stroke-miterlimit:10;" d="M 1785.261931 1098.086283 L 1699.841577 841.355879 L 1787.843315 1190.390329 " transform="matrix(0.0998737,0,0,-0.0998737,0,200.873106)"/>
<path style=" stroke:none;fill-rule:nonzero;fill:rgb(1.300049%,1.300049%,47.996521%);fill-opacity:1;" d="M 178.300781 91.203125 L 186.738281 118.308594 L 169.769531 116.84375 "/>
<path style="fill:none;stroke-width:5;stroke-linecap:round;stroke-linejoin:round;stroke:rgb(0%,0%,0%);stroke-opacity:1;stroke-miterlimit:10;" d="M 1785.261931 1098.086283 L 1869.7436 826.688922 L 1699.841577 841.355879 Z M 1785.261931 1098.086283 " transform="matrix(0.0998737,0,0,-0.0998737,0,200.873106)"/>
<path style="fill-rule:nonzero;fill:rgb(90.818787%,95.3125%,61.326599%);fill-opacity:1;stroke-width:5;stroke-linecap:round;stroke-linejoin:round;stroke:rgb(0%,0%,0%);stroke-opacity:1;stroke-miterlimit:10;" d="M 1785.261931 1098.086283 L 1601.944532 1354.464681 L 1782.484987 998.663875 " transform="matrix(0.0998737,0,0,-0.0998737,0,200.873106)"/>
<path style="fill-rule:nonzero;fill:rgb(90.818787%,95.3125%,61.326599%);fill-opacity:1;stroke-width:5;stroke-linecap:round;stroke-linejoin:round;stroke:rgb(0%,0%,0%);stroke-opacity:1;stroke-miterlimit:10;" d="M 1782.484987 998.663875 L 1869.7436 826.688922 L 1785.261931 1098.086283 " transform="matrix(0.0998737,0,0,-0.0998737,0,200.873106)"/>
<path style="fill-rule:nonzero;fill:rgb(13.890076%,13.890076%,46.604919%);fill-opacity:1;stroke-width:5;stroke-linecap:round;stroke-linejoin:round;stroke:rgb(0%,0%,0%);stroke-opacity:1;stroke-miterlimit:10;" d="M 1787.843315 1190.390329 L 1832.078856 1365.846239 L 1785.261931 1098.086283 " transform="matrix(0.0998737,0,0,-0.0998737,0,200.873106)"/>
<path style=" stroke:none;fill-rule:nonzero;fill:rgb(2.49939%,23.706055%,74.021912%);fill-opacity:1;" d="M 169.769531 116.84375 L 186.738281 118.308594 L 167.074219 140.855469 "/>
<path style="fill:none;stroke-width:5;stroke-linecap:round;stroke-linejoin:round;stroke:rgb(0%,0%,0%);stroke-opacity:1;stroke-miterlimit:10;" d="M 1699.841577 841.355879 L 1869.7436 826.688922 L 1672.854377 600.93513 Z M 1699.841577 841.355879 " transform="matrix(0.0998737,0,0,-0.0998737,0,200.873106)"/>
<path style="fill-rule:nonzero;fill:rgb(78.90625%,29.393005%,0%);fill-opacity:1;stroke-width:5;stroke-linecap:round;stroke-linejoin:round;stroke:rgb(0%,0%,0%);stroke-opacity:1;stroke-miterlimit:10;" d="M 1672.854377 600.93513 L 1869.7436 826.688922 L 1717.989491 713.342683 " transform="matrix(0.0998737,0,0,-0.0998737,0,200.873106)"/>
<path style="fill-rule:nonzero;fill:rgb(13.890076%,13.890076%,46.604919%);fill-opacity:1;stroke-width:5;stroke-linecap:round;stroke-linejoin:round;stroke:rgb(0%,0%,0%);stroke-opacity:1;stroke-miterlimit:10;" d="M 1630.809102 496.349953 L 1699.841577 841.355879 L 1672.854377 600.93513 " transform="matrix(0.0998737,0,0,-0.0998737,0,200.873106)"/>
<path style="fill-rule:nonzero;fill:rgb(78.90625%,29.393005%,0%);fill-opacity:1;stroke-width:5;stroke-linecap:round;stroke-linejoin:round;stroke:rgb(0%,0%,0%);stroke-opacity:1;stroke-miterlimit:10;" d="M 1717.989491 713.342683 L 1402.200142 477.380689 L 1672.854377 600.93513 " transform="matrix(0.0998737,0,0,-0.0998737,0,200.873106)"/>
<path style="fill-rule:nonzero;fill:rgb(13.890076%,13.890076%,46.604919%);fill-opacity:1;stroke-width:5;stroke-linecap:round;stroke-linejoin:round;stroke:rgb(0%,0%,0%);stroke-opacity:1;stroke-miterlimit:10;" d="M 1672.854377 600.93513 L 1595.88219 321.793616 L 1630.809102 496.349953 " transform="matrix(0.0998737,0,0,-0.0998737,0,200.873106)"/>
<path style=" stroke:none;fill-rule:nonzero;fill:rgb(39.892578%,6.394958%,6.394958%);fill-opacity:1;" d="M 55.28125 177.09375 L 79.34375 178.125 L 52.65625 160.597656 "/>
<path style="fill:none;stroke-width:5;stroke-linecap:round;stroke-linejoin:round;stroke:rgb(0%,0%,0%);stroke-opacity:1;stroke-miterlimit:10;" d="M 553.511378 238.094185 L 794.440582 227.768647 L 527.228192 403.263669 Z M 553.511378 238.094185 " transform="matrix(0.0998737,0,0,-0.0998737,0,200.873106)"/>
<path style=" stroke:none;fill-rule:nonzero;fill:rgb(22.996521%,22.996521%,22.996521%);fill-opacity:1;" d="M 38.101562 152.117188 L 55.28125 177.09375 L 52.65625 160.597656 "/>
<path style="fill:none;stroke-width:5;stroke-linecap:round;stroke-linejoin:round;stroke:rgb(0%,0%,0%);stroke-opacity:1;stroke-miterlimit:10;" d="M 381.497314 488.175569 L 553.511378 238.094185 L 527.228192 403.263669 Z M 381.497314 488.175569 " transform="matrix(0.0998737,0,0,-0.0998737,0,200.873106)"/>
<path style="fill-rule:nonzero;fill:rgb(28.393555%,12.010193%,12.010193%);fill-opacity:1;stroke-width:5;stroke-linecap:round;stroke-linejoin:round;stroke:rgb(0%,0%,0%);stroke-opacity:1;stroke-miterlimit:10;" d="M 1584.383296 1556.986015 L 1832.078856 1365.846239 L 1680.246523 1435.621839 " transform="matrix(0.0998737,0,0,-0.0998737,0,200.873106)"/>
<path style=" stroke:none;fill-rule:nonzero;fill:rgb(41.308594%,18.896484%,18.896484%);fill-opacity:1;" d="M 35.675781 29.65625 L 84.882812 22.484375 L 67.4375 26.984375 "/>
<path style="fill:none;stroke-width:5;stroke-linecap:round;stroke-linejoin:round;stroke:rgb(0%,0%,0%);stroke-opacity:1;stroke-miterlimit:10;" d="M 357.208834 1714.333123 L 849.901233 1786.142541 L 675.22756 1741.085651 Z M 357.208834 1714.333123 " transform="matrix(0.0998737,0,0,-0.0998737,0,200.873106)"/>
<path style=" stroke:none;fill-rule:nonzero;fill:rgb(85.546875%,97.65625%,86.131287%);fill-opacity:1;" d="M 182.976562 64.460938 L 158.238281 45.371094 L 159.992188 65.597656 "/>
<path style="fill:none;stroke-width:5;stroke-linecap:round;stroke-linejoin:round;stroke:rgb(0%,0%,0%);stroke-opacity:1;stroke-miterlimit:10;" d="M 1832.078856 1365.846239 L 1584.383296 1556.986015 L 1601.944532 1354.464681 Z M 1832.078856 1365.846239 " transform="matrix(0.0998737,0,0,-0.0998737,0,200.873106)"/>
<path style=" stroke:none;fill-rule:nonzero;fill:rgb(97.851562%,84.375%,64.0625%);fill-opacity:1;" d="M 178.300781 91.203125 L 182.976562 64.460938 L 159.992188 65.597656 "/>
<path style="fill:none;stroke-width:5;stroke-linecap:round;stroke-linejoin:round;stroke:rgb(0%,0%,0%);stroke-opacity:1;stroke-miterlimit:10;" d="M 1785.261931 1098.086283 L 1832.078856 1365.846239 L 1601.944532 1354.464681 Z M 1785.261931 1098.086283 " transform="matrix(0.0998737,0,0,-0.0998737,0,200.873106)"/>
<path style=" stroke:none;fill-rule:nonzero;fill:rgb(71.289062%,26.196289%,17.993164%);fill-opacity:1;" d="M 159.386719 168.734375 L 140.042969 153.195312 L 128.847656 174.191406 "/>
<path style="fill:none;stroke-width:5;stroke-linecap:round;stroke-linejoin:round;stroke:rgb(0%,0%,0%);stroke-opacity:1;stroke-miterlimit:10;" d="M 1595.88219 321.793616 L 1402.200142 477.380689 L 1290.105484 267.154314 Z M 1595.88219 321.793616 " transform="matrix(0.0998737,0,0,-0.0998737,0,200.873106)"/>
<path style=" stroke:none;fill-rule:nonzero;fill:rgb(91.992188%,59.179688%,40.405273%);fill-opacity:1;" d="M 159.386719 168.734375 L 167.074219 140.855469 L 140.042969 153.195312 "/>
<path style="fill:none;stroke-width:5;stroke-linecap:round;stroke-linejoin:round;stroke:rgb(0%,0%,0%);stroke-opacity:1;stroke-miterlimit:10;" d="M 1595.88219 321.793616 L 1672.854377 600.93513 L 1402.200142 477.380689 Z M 1595.88219 321.793616 " transform="matrix(0.0998737,0,0,-0.0998737,0,200.873106)"/>
<path style=" stroke:none;fill-rule:nonzero;fill:rgb(21.508789%,32.200623%,75.78125%);fill-opacity:1;" d="M 35.675781 29.65625 L 20.609375 80.511719 L 43.582031 42.132812 "/>
<path style="fill:none;stroke-width:5;stroke-linecap:round;stroke-linejoin:round;stroke:rgb(0%,0%,0%);stroke-opacity:1;stroke-miterlimit:10;" d="M 357.208834 1714.333123 L 206.354298 1205.135509 L 436.371286 1589.409766 Z M 357.208834 1714.333123 " transform="matrix(0.0998737,0,0,-0.0998737,0,200.873106)"/>
<path style=" stroke:none;fill-rule:nonzero;fill:rgb(45.410156%,64.256287%,93.75%);fill-opacity:1;" d="M 84.882812 22.484375 L 35.675781 29.65625 L 43.582031 42.132812 "/>
<path style="fill:none;stroke-width:5;stroke-linecap:round;stroke-linejoin:round;stroke:rgb(0%,0%,0%);stroke-opacity:1;stroke-miterlimit:10;" d="M 849.901233 1786.142541 L 357.208834 1714.333123 L 436.371286 1589.409766 Z M 849.901233 1786.142541 " transform="matrix(0.0998737,0,0,-0.0998737,0,200.873106)"/>
<path style="fill-rule:nonzero;fill:rgb(37.400818%,14.598083%,43.406677%);fill-opacity:1;stroke-width:5;stroke-linecap:round;stroke-linejoin:round;stroke:rgb(0%,0%,0%);stroke-opacity:1;stroke-miterlimit:10;" d="M 242.259008 766.065503 L 108.731037 663.475032 L 242.415455 580.362279 " transform="matrix(0.0998737,0,0,-0.0998737,0,200.873106)"/>
<path style=" stroke:none;fill-rule:nonzero;fill:rgb(19.604492%,17.405701%,60.546875%);fill-opacity:1;" d="M 20.609375 80.511719 L 10.859375 134.609375 L 24.195312 124.363281 "/>
<path style="fill:none;stroke-width:5;stroke-linecap:round;stroke-linejoin:round;stroke:rgb(0%,0%,0%);stroke-opacity:1;stroke-miterlimit:10;" d="M 206.354298 1205.135509 L 108.731037 663.475032 L 242.259008 766.065503 Z M 206.354298 1205.135509 " transform="matrix(0.0998737,0,0,-0.0998737,0,200.873106)"/>
<path style=" stroke:none;fill-rule:nonzero;fill:rgb(90.818787%,95.3125%,61.326599%);fill-opacity:1;" d="M 158.238281 45.371094 L 142.398438 16.832031 L 159.992188 65.597656 "/>
<path style="fill:none;stroke-width:5;stroke-linecap:round;stroke-linejoin:round;stroke:rgb(0%,0%,0%);stroke-opacity:1;stroke-miterlimit:10;" d="M 1584.383296 1556.986015 L 1425.784608 1842.737437 L 1601.944532 1354.464681 Z M 1584.383296 1556.986015 " transform="matrix(0.0998737,0,0,-0.0998737,0,200.873106)"/>
<path style="fill-rule:nonzero;fill:rgb(37.400818%,14.598083%,43.406677%);fill-opacity:1;stroke-width:5;stroke-linecap:round;stroke-linejoin:round;stroke:rgb(0%,0%,0%);stroke-opacity:1;stroke-miterlimit:10;" d="M 242.415455 580.362279 L 527.228192 403.263669 L 242.259008 766.065503 " transform="matrix(0.0998737,0,0,-0.0998737,0,200.873106)"/>
<path style=" stroke:none;fill-rule:nonzero;fill:rgb(82.8125%,81.639099%,83.789062%);fill-opacity:1;" d="M 159.992188 65.597656 L 142.398438 16.832031 L 126.917969 32.417969 "/>
<path style="fill:none;stroke-width:5;stroke-linecap:round;stroke-linejoin:round;stroke:rgb(0%,0%,0%);stroke-opacity:1;stroke-miterlimit:10;" d="M 1601.944532 1354.464681 L 1425.784608 1842.737437 L 1270.784213 1686.681021 Z M 1601.944532 1354.464681 " transform="matrix(0.0998737,0,0,-0.0998737,0,200.873106)"/>
<path style=" stroke:none;fill-rule:nonzero;fill:rgb(63.28125%,77.539062%,94.921875%);fill-opacity:1;" d="M 126.917969 32.417969 L 142.398438 16.832031 L 84.882812 22.484375 "/>
<path style="fill:none;stroke-width:5;stroke-linecap:round;stroke-linejoin:round;stroke:rgb(0%,0%,0%);stroke-opacity:1;stroke-miterlimit:10;" d="M 1270.784213 1686.681021 L 1425.784608 1842.737437 L 849.901233 1786.142541 Z M 1270.784213 1686.681021 " transform="matrix(0.0998737,0,0,-0.0998737,0,200.873106)"/>
<path style=" stroke:none;fill-rule:nonzero;fill:rgb(21.508789%,32.200623%,75.78125%);fill-opacity:1;" d="M 20.609375 80.511719 L 26.066406 117.464844 L 39.570312 83.046875 "/>
<path style="fill:none;stroke-width:5;stroke-linecap:round;stroke-linejoin:round;stroke:rgb(0%,0%,0%);stroke-opacity:1;stroke-miterlimit:10;" d="M 206.354298 1205.135509 L 260.9936 835.137089 L 396.203382 1179.751896 Z M 206.354298 1205.135509 " transform="matrix(0.0998737,0,0,-0.0998737,0,200.873106)"/>
<path style=" stroke:none;fill-rule:nonzero;fill:rgb(19.604492%,17.405701%,60.546875%);fill-opacity:1;" d="M 42.921875 45.96875 L 20.609375 80.511719 L 39.570312 83.046875 "/>
<path style="fill:none;stroke-width:5;stroke-linecap:round;stroke-linejoin:round;stroke:rgb(0%,0%,0%);stroke-opacity:1;stroke-miterlimit:10;" d="M 429.761378 1551.001896 L 206.354298 1205.135509 L 396.203382 1179.751896 Z M 429.761378 1551.001896 " transform="matrix(0.0998737,0,0,-0.0998737,0,200.873106)"/>
<path style=" stroke:none;fill-rule:nonzero;fill:rgb(24.19281%,24.19281%,34.008789%);fill-opacity:1;" d="M 26.066406 117.464844 L 20.609375 80.511719 L 24.195312 124.363281 "/>
<path style="fill:none;stroke-width:5;stroke-linecap:round;stroke-linejoin:round;stroke:rgb(0%,0%,0%);stroke-opacity:1;stroke-miterlimit:10;" d="M 260.9936 835.137089 L 206.354298 1205.135509 L 242.259008 766.065503 Z M 260.9936 835.137089 " transform="matrix(0.0998737,0,0,-0.0998737,0,200.873106)"/>
<path style=" stroke:none;fill-rule:nonzero;fill:rgb(6.687927%,6.687927%,50.78125%);fill-opacity:1;" d="M 20.609375 80.511719 L 42.921875 45.96875 L 43.582031 42.132812 "/>
<path style="fill:none;stroke-width:5;stroke-linecap:round;stroke-linejoin:round;stroke:rgb(0%,0%,0%);stroke-opacity:1;stroke-miterlimit:10;" d="M 206.354298 1205.135509 L 429.761378 1551.001896 L 436.371286 1589.409766 Z M 206.354298 1205.135509 " transform="matrix(0.0998737,0,0,-0.0998737,0,200.873106)"/>
<path style=" stroke:none;fill-rule:nonzero;fill:rgb(74.804688%,45.288086%,48.28949%);fill-opacity:1;" d="M 102.136719 192.160156 L 140.042969 153.195312 L 95.488281 168.824219 "/>
<path style="fill:none;stroke-width:5;stroke-linecap:round;stroke-linejoin:round;stroke:rgb(0%,0%,0%);stroke-opacity:1;stroke-miterlimit:10;" d="M 1022.658423 87.239649 L 1402.200142 477.380689 L 956.089997 320.894042 Z M 1022.658423 87.239649 " transform="matrix(0.0998737,0,0,-0.0998737,0,200.873106)"/>
<path style=" stroke:none;fill-rule:nonzero;fill:rgb(53.125%,23.706055%,41.209412%);fill-opacity:1;" d="M 52.65625 160.597656 L 102.136719 192.160156 L 95.488281 168.824219 "/>
<path style="fill:none;stroke-width:5;stroke-linecap:round;stroke-linejoin:round;stroke:rgb(0%,0%,0%);stroke-opacity:1;stroke-miterlimit:10;" d="M 527.228192 403.263669 L 1022.658423 87.239649 L 956.089997 320.894042 Z M 527.228192 403.263669 " transform="matrix(0.0998737,0,0,-0.0998737,0,200.873106)"/>
<path style=" stroke:none;fill-rule:nonzero;fill:rgb(45.410156%,64.256287%,93.75%);fill-opacity:1;" d="M 80.234375 46.464844 L 115.1875 37.613281 L 84.882812 22.484375 "/>
<path style="fill:none;stroke-width:5;stroke-linecap:round;stroke-linejoin:round;stroke:rgb(0%,0%,0%);stroke-opacity:1;stroke-miterlimit:10;" d="M 803.358091 1546.034687 L 1153.331226 1634.662216 L 849.901233 1786.142541 Z M 803.358091 1546.034687 " transform="matrix(0.0998737,0,0,-0.0998737,0,200.873106)"/>
<path style=" stroke:none;fill-rule:nonzero;fill:rgb(0%,42.088318%,80.664062%);fill-opacity:1;" d="M 42.921875 45.96875 L 84.882812 22.484375 L 43.582031 42.132812 "/>
<path style="fill:none;stroke-width:5;stroke-linecap:round;stroke-linejoin:round;stroke:rgb(0%,0%,0%);stroke-opacity:1;stroke-miterlimit:10;" d="M 429.761378 1551.001896 L 849.901233 1786.142541 L 436.371286 1589.409766 Z M 429.761378 1551.001896 " transform="matrix(0.0998737,0,0,-0.0998737,0,200.873106)"/>
<path style=" stroke:none;fill-rule:nonzero;fill:rgb(47.509766%,86.71875%,96.875%);fill-opacity:1;" d="M 84.882812 22.484375 L 115.1875 37.613281 L 126.917969 32.417969 "/>
<path style="fill:none;stroke-width:5;stroke-linecap:round;stroke-linejoin:round;stroke:rgb(0%,0%,0%);stroke-opacity:1;stroke-miterlimit:10;" d="M 849.901233 1786.142541 L 1153.331226 1634.662216 L 1270.784213 1686.681021 Z M 849.901233 1786.142541 " transform="matrix(0.0998737,0,0,-0.0998737,0,200.873106)"/>
<path style=" stroke:none;fill-rule:nonzero;fill:rgb(63.28125%,77.539062%,94.921875%);fill-opacity:1;" d="M 42.921875 45.96875 L 80.234375 46.464844 L 84.882812 22.484375 "/>
<path style="fill:none;stroke-width:5;stroke-linecap:round;stroke-linejoin:round;stroke:rgb(0%,0%,0%);stroke-opacity:1;stroke-miterlimit:10;" d="M 429.761378 1551.001896 L 803.358091 1546.034687 L 849.901233 1786.142541 Z M 429.761378 1551.001896 " transform="matrix(0.0998737,0,0,-0.0998737,0,200.873106)"/>
<path style=" stroke:none;fill-rule:nonzero;fill:rgb(22.996521%,22.996521%,22.996521%);fill-opacity:1;" d="M 26.066406 117.464844 L 24.195312 124.363281 L 52.65625 160.597656 "/>
<path style="fill:none;stroke-width:5;stroke-linecap:round;stroke-linejoin:round;stroke:rgb(0%,0%,0%);stroke-opacity:1;stroke-miterlimit:10;" d="M 260.9936 835.137089 L 242.259008 766.065503 L 527.228192 403.263669 Z M 260.9936 835.137089 " transform="matrix(0.0998737,0,0,-0.0998737,0,200.873106)"/>
<path style=" stroke:none;fill-rule:nonzero;fill:rgb(39.892578%,6.394958%,6.394958%);fill-opacity:1;" d="M 87.867188 155.828125 L 52.65625 160.597656 L 95.488281 168.824219 "/>
<path style="fill:none;stroke-width:5;stroke-linecap:round;stroke-linejoin:round;stroke:rgb(0%,0%,0%);stroke-opacity:1;stroke-miterlimit:10;" d="M 879.782712 451.019279 L 527.228192 403.263669 L 956.089997 320.894042 Z M 879.782712 451.019279 " transform="matrix(0.0998737,0,0,-0.0998737,0,200.873106)"/>
<path style=" stroke:none;fill-rule:nonzero;fill:rgb(37.400818%,14.598083%,43.406677%);fill-opacity:1;" d="M 52.65625 160.597656 L 87.867188 155.828125 L 59.949219 133.417969 "/>
<path style="fill:none;stroke-width:5;stroke-linecap:round;stroke-linejoin:round;stroke:rgb(0%,0%,0%);stroke-opacity:1;stroke-miterlimit:10;" d="M 527.228192 403.263669 L 879.782712 451.019279 L 600.250079 675.404156 Z M 527.228192 403.263669 " transform="matrix(0.0998737,0,0,-0.0998737,0,200.873106)"/>
<path style=" stroke:none;fill-rule:nonzero;fill:rgb(53.125%,23.706055%,41.209412%);fill-opacity:1;" d="M 26.066406 117.464844 L 52.65625 160.597656 L 59.949219 133.417969 "/>
<path style="fill:none;stroke-width:5;stroke-linecap:round;stroke-linejoin:round;stroke:rgb(0%,0%,0%);stroke-opacity:1;stroke-miterlimit:10;" d="M 260.9936 835.137089 L 527.228192 403.263669 L 600.250079 675.404156 Z M 260.9936 835.137089 " transform="matrix(0.0998737,0,0,-0.0998737,0,200.873106)"/>
<path style=" stroke:none;fill-rule:nonzero;fill:rgb(83.006287%,58.59375%,56.639099%);fill-opacity:1;" d="M 186.738281 118.308594 L 160.972656 111.355469 L 140.042969 153.195312 "/>
<path style="fill:none;stroke-width:5;stroke-linecap:round;stroke-linejoin:round;stroke:rgb(0%,0%,0%);stroke-opacity:1;stroke-miterlimit:10;" d="M 1869.7436 826.688922 L 1611.761615 896.308075 L 1402.200142 477.380689 Z M 1869.7436 826.688922 " transform="matrix(0.0998737,0,0,-0.0998737,0,200.873106)"/>
<path style=" stroke:none;fill-rule:nonzero;fill:rgb(87.109375%,75.976562%,73.4375%);fill-opacity:1;" d="M 160.972656 111.355469 L 186.738281 118.308594 L 159.992188 65.597656 "/>
<path style="fill:none;stroke-width:5;stroke-linecap:round;stroke-linejoin:round;stroke:rgb(0%,0%,0%);stroke-opacity:1;stroke-miterlimit:10;" d="M 1611.761615 896.308075 L 1869.7436 826.688922 L 1601.944532 1354.464681 Z M 1611.761615 896.308075 " transform="matrix(0.0998737,0,0,-0.0998737,0,200.873106)"/>
<path style=" stroke:none;fill-rule:nonzero;fill:rgb(85.546875%,97.65625%,86.131287%);fill-opacity:1;" d="M 126.917969 32.417969 L 115.1875 37.613281 L 159.992188 65.597656 "/>
<path style="fill:none;stroke-width:5;stroke-linecap:round;stroke-linejoin:round;stroke:rgb(0%,0%,0%);stroke-opacity:1;stroke-miterlimit:10;" d="M 1270.784213 1686.681021 L 1153.331226 1634.662216 L 1601.944532 1354.464681 Z M 1270.784213 1686.681021 " transform="matrix(0.0998737,0,0,-0.0998737,0,200.873106)"/>
<path style=" stroke:none;fill-rule:nonzero;fill:rgb(82.8125%,81.639099%,83.789062%);fill-opacity:1;" d="M 144.449219 105.992188 L 159.992188 65.597656 L 127.0625 73.789062 "/>
<path style="fill:none;stroke-width:5;stroke-linecap:round;stroke-linejoin:round;stroke:rgb(0%,0%,0%);stroke-opacity:1;stroke-miterlimit:10;" d="M 1446.318347 950.008692 L 1601.944532 1354.464681 L 1272.231353 1272.447061 Z M 1446.318347 950.008692 " transform="matrix(0.0998737,0,0,-0.0998737,0,200.873106)"/>
<path style=" stroke:none;fill-rule:nonzero;fill:rgb(87.109375%,75.976562%,73.4375%);fill-opacity:1;" d="M 115.1875 37.613281 L 127.0625 73.789062 L 159.992188 65.597656 "/>
<path style="fill:none;stroke-width:5;stroke-linecap:round;stroke-linejoin:round;stroke:rgb(0%,0%,0%);stroke-opacity:1;stroke-miterlimit:10;" d="M 1153.331226 1634.662216 L 1272.231353 1272.447061 L 1601.944532 1354.464681 Z M 1153.331226 1634.662216 " transform="matrix(0.0998737,0,0,-0.0998737,0,200.873106)"/>
<path style=" stroke:none;fill-rule:nonzero;fill:rgb(97.851562%,84.375%,64.0625%);fill-opacity:1;" d="M 159.992188 65.597656 L 144.449219 105.992188 L 160.972656 111.355469 "/>
<path style="fill:none;stroke-width:5;stroke-linecap:round;stroke-linejoin:round;stroke:rgb(0%,0%,0%);stroke-opacity:1;stroke-miterlimit:10;" d="M 1601.944532 1354.464681 L 1446.318347 950.008692 L 1611.761615 896.308075 Z M 1601.944532 1354.464681 " transform="matrix(0.0998737,0,0,-0.0998737,0,200.873106)"/>
<path style=" stroke:none;fill-rule:nonzero;fill:rgb(71.289062%,26.196289%,17.993164%);fill-opacity:1;" d="M 140.042969 153.195312 L 87.867188 155.828125 L 95.488281 168.824219 "/>
<path style="fill:none;stroke-width:5;stroke-linecap:round;stroke-linejoin:round;stroke:rgb(0%,0%,0%);stroke-opacity:1;stroke-miterlimit:10;" d="M 1402.200142 477.380689 L 879.782712 451.019279 L 956.089997 320.894042 Z M 1402.200142 477.380689 " transform="matrix(0.0998737,0,0,-0.0998737,0,200.873106)"/>
<path style=" stroke:none;fill-rule:nonzero;fill:rgb(83.006287%,58.59375%,56.639099%);fill-opacity:1;" d="M 114.515625 128.40625 L 87.867188 155.828125 L 140.042969 153.195312 "/>
<path style="fill:none;stroke-width:5;stroke-linecap:round;stroke-linejoin:round;stroke:rgb(0%,0%,0%);stroke-opacity:1;stroke-miterlimit:10;" d="M 1146.603982 725.584703 L 879.782712 451.019279 L 1402.200142 477.380689 Z M 1146.603982 725.584703 " transform="matrix(0.0998737,0,0,-0.0998737,0,200.873106)"/>
<path style=" stroke:none;fill-rule:nonzero;fill:rgb(74.804688%,45.288086%,48.28949%);fill-opacity:1;" d="M 144.449219 105.992188 L 114.515625 128.40625 L 140.042969 153.195312 "/>
<path style="fill:none;stroke-width:5;stroke-linecap:round;stroke-linejoin:round;stroke:rgb(0%,0%,0%);stroke-opacity:1;stroke-miterlimit:10;" d="M 1446.318347 950.008692 L 1146.603982 725.584703 L 1402.200142 477.380689 Z M 1446.318347 950.008692 " transform="matrix(0.0998737,0,0,-0.0998737,0,200.873106)"/>
<path style=" stroke:none;fill-rule:nonzero;fill:rgb(91.992188%,59.179688%,40.405273%);fill-opacity:1;" d="M 160.972656 111.355469 L 144.449219 105.992188 L 140.042969 153.195312 "/>
<path style="fill:none;stroke-width:5;stroke-linecap:round;stroke-linejoin:round;stroke:rgb(0%,0%,0%);stroke-opacity:1;stroke-miterlimit:10;" d="M 1611.761615 896.308075 L 1446.318347 950.008692 L 1402.200142 477.380689 Z M 1611.761615 896.308075 " transform="matrix(0.0998737,0,0,-0.0998737,0,200.873106)"/>
<path style=" stroke:none;fill-rule:nonzero;fill:rgb(59.764099%,55.46875%,77.734375%);fill-opacity:1;" d="M 39.570312 83.046875 L 26.066406 117.464844 L 81.492188 91.730469 "/>
<path style="fill:none;stroke-width:5;stroke-linecap:round;stroke-linejoin:round;stroke:rgb(0%,0%,0%);stroke-opacity:1;stroke-miterlimit:10;" d="M 396.203382 1179.751896 L 260.9936 835.137089 L 815.952118 1092.806179 Z M 396.203382 1179.751896 " transform="matrix(0.0998737,0,0,-0.0998737,0,200.873106)"/>
<path style=" stroke:none;fill-rule:nonzero;fill:rgb(57.8125%,46.289062%,68.554688%);fill-opacity:1;" d="M 42.921875 45.96875 L 39.570312 83.046875 L 81.492188 91.730469 "/>
<path style="fill:none;stroke-width:5;stroke-linecap:round;stroke-linejoin:round;stroke:rgb(0%,0%,0%);stroke-opacity:1;stroke-miterlimit:10;" d="M 429.761378 1551.001896 L 396.203382 1179.751896 L 815.952118 1092.806179 Z M 429.761378 1551.001896 " transform="matrix(0.0998737,0,0,-0.0998737,0,200.873106)"/>
<path style=" stroke:none;fill-rule:nonzero;fill:rgb(69.726562%,64.0625%,78.709412%);fill-opacity:1;" d="M 80.234375 46.464844 L 42.921875 45.96875 L 81.492188 91.730469 "/>
<path style="fill:none;stroke-width:5;stroke-linecap:round;stroke-linejoin:round;stroke:rgb(0%,0%,0%);stroke-opacity:1;stroke-miterlimit:10;" d="M 803.358091 1546.034687 L 429.761378 1551.001896 L 815.952118 1092.806179 Z M 803.358091 1546.034687 " transform="matrix(0.0998737,0,0,-0.0998737,0,200.873106)"/>
<path style=" stroke:none;fill-rule:nonzero;fill:rgb(59.764099%,55.46875%,77.734375%);fill-opacity:1;" d="M 81.492188 91.730469 L 115.1875 37.613281 L 80.234375 46.464844 "/>
<path style="fill:none;stroke-width:5;stroke-linecap:round;stroke-linejoin:round;stroke:rgb(0%,0%,0%);stroke-opacity:1;stroke-miterlimit:10;" d="M 815.952118 1092.806179 L 1153.331226 1634.662216 L 803.358091 1546.034687 Z M 815.952118 1092.806179 " transform="matrix(0.0998737,0,0,-0.0998737,0,200.873106)"/>
<path style=" stroke:none;fill-rule:nonzero;fill:rgb(66.992188%,50.193787%,64.84375%);fill-opacity:1;" d="M 81.492188 91.730469 L 26.066406 117.464844 L 59.949219 133.417969 "/>
<path style="fill:none;stroke-width:5;stroke-linecap:round;stroke-linejoin:round;stroke:rgb(0%,0%,0%);stroke-opacity:1;stroke-miterlimit:10;" d="M 815.952118 1092.806179 L 260.9936 835.137089 L 600.250079 675.404156 Z M 815.952118 1092.806179 " transform="matrix(0.0998737,0,0,-0.0998737,0,200.873106)"/>
<path style=" stroke:none;fill-rule:nonzero;fill:rgb(57.8125%,46.289062%,68.554688%);fill-opacity:1;" d="M 87.867188 155.828125 L 81.492188 91.730469 L 59.949219 133.417969 "/>
<path style="fill:none;stroke-width:5;stroke-linecap:round;stroke-linejoin:round;stroke:rgb(0%,0%,0%);stroke-opacity:1;stroke-miterlimit:10;" d="M 879.782712 451.019279 L 815.952118 1092.806179 L 600.250079 675.404156 Z M 879.782712 451.019279 " transform="matrix(0.0998737,0,0,-0.0998737,0,200.873106)"/>
<path style=" stroke:none;fill-rule:nonzero;fill:rgb(73.631287%,60.351562%,71.09375%);fill-opacity:1;" d="M 115.1875 37.613281 L 81.492188 91.730469 L 127.0625 73.789062 "/>
<path style="fill:none;stroke-width:5;stroke-linecap:round;stroke-linejoin:round;stroke:rgb(0%,0%,0%);stroke-opacity:1;stroke-miterlimit:10;" d="M 1153.331226 1634.662216 L 815.952118 1092.806179 L 1272.231353 1272.447061 Z M 1153.331226 1634.662216 " transform="matrix(0.0998737,0,0,-0.0998737,0,200.873106)"/>
<path style=" stroke:none;fill-rule:nonzero;fill:rgb(69.726562%,64.0625%,78.709412%);fill-opacity:1;" d="M 81.492188 91.730469 L 144.449219 105.992188 L 127.0625 73.789062 "/>
<path style="fill:none;stroke-width:5;stroke-linecap:round;stroke-linejoin:round;stroke:rgb(0%,0%,0%);stroke-opacity:1;stroke-miterlimit:10;" d="M 815.952118 1092.806179 L 1446.318347 950.008692 L 1272.231353 1272.447061 Z M 815.952118 1092.806179 " transform="matrix(0.0998737,0,0,-0.0998737,0,200.873106)"/>
<path style=" stroke:none;fill-rule:nonzero;fill:rgb(73.631287%,60.351562%,71.09375%);fill-opacity:1;" d="M 87.867188 155.828125 L 114.515625 128.40625 L 81.492188 91.730469 "/>
<path style="fill:none;stroke-width:5;stroke-linecap:round;stroke-linejoin:round;stroke:rgb(0%,0%,0%);stroke-opacity:1;stroke-miterlimit:10;" d="M 879.782712 451.019279 L 1146.603982 725.584703 L 815.952118 1092.806179 Z M 879.782712 451.019279 " transform="matrix(0.0998737,0,0,-0.0998737,0,200.873106)"/>
<path style=" stroke:none;fill-rule:nonzero;fill:rgb(66.992188%,50.193787%,64.84375%);fill-opacity:1;" d="M 114.515625 128.40625 L 144.449219 105.992188 L 81.492188 91.730469 "/>
<path style="fill:none;stroke-width:5;stroke-linecap:round;stroke-linejoin:round;stroke:rgb(0%,0%,0%);stroke-opacity:1;stroke-miterlimit:10;" d="M 1146.603982 725.584703 L 1446.318347 950.008692 L 815.952118 1092.806179 Z M 1146.603982 725.584703 " transform="matrix(0.0998737,0,0,-0.0998737,0,200.873106)"/>
</g>
</svg>
