<?xml version="1.0" encoding="UTF-8"?>
<svg xmlns="http://www.w3.org/2000/svg" xmlns:xlink="http://www.w3.org/1999/xlink" width="213.56pt" height="199.38pt" viewBox="0 0 213.56 199.38" version="1.2">
<g id="surface1">
<path style=" stroke:none;fill-rule:nonzero;fill:rgb(67.771912%,66.209412%,82.617188%);fill-opacity:1;" d="M 85.699219 62.46875 L 109.351562 106.242188 L 89.441406 106.160156 "/>
<path style="fill:none;stroke-width:5;stroke-linecap:round;stroke-linejoin:round;stroke:rgb(0%,0%,0%);stroke-opacity:1;stroke-miterlimit:10;" d="M 858.536651 1367.169947 L 1095.795591 928.074376 L 896.074895 928.897239 Z M 858.536651 1367.169947 " transform="matrix(0.09969,0,0,-0.09969,0.1117,198.761922)"/>
<path style=" stroke:none;fill-rule:nonzero;fill:rgb(46.289062%,34.397888%,63.28125%);fill-opacity:1;" d="M 85.699219 62.46875 L 125.894531 72.941406 L 119.328125 88.890625 "/>
<path style="fill:none;stroke-width:5;stroke-linecap:round;stroke-linejoin:round;stroke:rgb(0%,0%,0%);stroke-opacity:1;stroke-miterlimit:10;" d="M 858.536651 1367.169947 L 1261.739706 1262.117722 L 1195.871451 1102.129572 Z M 858.536651 1367.169947 " transform="matrix(0.09969,0,0,-0.09969,0.1117,198.761922)"/>
<path style=" stroke:none;fill-rule:nonzero;fill:rgb(80.076599%,76.951599%,82.421875%);fill-opacity:1;" d="M 85.699219 62.46875 L 89.441406 106.160156 L 71.652344 104.332031 "/>
<path style="fill:none;stroke-width:5;stroke-linecap:round;stroke-linejoin:round;stroke:rgb(0%,0%,0%);stroke-opacity:1;stroke-miterlimit:10;" d="M 858.536651 1367.169947 L 896.074895 928.897239 L 717.631094 947.235337 Z M 858.536651 1367.169947 " transform="matrix(0.09969,0,0,-0.09969,0.1117,198.761922)"/>
<path style=" stroke:none;fill-rule:nonzero;fill:rgb(56.639099%,52.146912%,76.5625%);fill-opacity:1;" d="M 109.351562 106.242188 L 85.699219 62.46875 L 119.328125 88.890625 "/>
<path style="fill:none;stroke-width:5;stroke-linecap:round;stroke-linejoin:round;stroke:rgb(0%,0%,0%);stroke-opacity:1;stroke-miterlimit:10;" d="M 1095.795591 928.074376 L 858.536651 1367.169947 L 1195.871451 1102.129572 Z M 1095.795591 928.074376 " transform="matrix(0.09969,0,0,-0.09969,0.1117,198.761922)"/>
<path style=" stroke:none;fill-rule:nonzero;fill:rgb(37.597656%,11.69281%,38.792419%);fill-opacity:1;" d="M 85.699219 62.46875 L 113.300781 57.1875 L 125.894531 72.941406 "/>
<path style="fill:none;stroke-width:5;stroke-linecap:round;stroke-linejoin:round;stroke:rgb(0%,0%,0%);stroke-opacity:1;stroke-miterlimit:10;" d="M 858.536651 1367.169947 L 1135.410585 1420.146675 L 1261.739706 1262.117722 Z M 858.536651 1367.169947 " transform="matrix(0.09969,0,0,-0.09969,0.1117,198.761922)"/>
<path style="fill-rule:nonzero;fill:rgb(92.381287%,81.639099%,72.459412%);fill-opacity:1;stroke-width:5;stroke-linecap:round;stroke-linejoin:round;stroke:rgb(0%,0%,0%);stroke-opacity:1;stroke-miterlimit:10;" d="M 641.222352 1133.241644 L 858.536651 1367.169947 L 745.843553 1031.324137 " transform="matrix(0.09969,0,0,-0.09969,0.1117,198.761922)"/>
<path style=" stroke:none;fill-rule:nonzero;fill:rgb(40.795898%,4.899597%,7.102966%);fill-opacity:1;" d="M 113.300781 57.1875 L 85.699219 62.46875 L 98.015625 49.234375 "/>
<path style="fill:none;stroke-width:5;stroke-linecap:round;stroke-linejoin:round;stroke:rgb(0%,0%,0%);stroke-opacity:1;stroke-miterlimit:10;" d="M 1135.410585 1420.146675 L 858.536651 1367.169947 L 982.083709 1499.925238 Z M 1135.410585 1420.146675 " transform="matrix(0.09969,0,0,-0.09969,0.1117,198.761922)"/>
<path style=" stroke:none;fill-rule:nonzero;fill:rgb(98.046875%,71.09375%,44.189453%);fill-opacity:1;" d="M 85.699219 62.46875 L 64.035156 85.789062 L 63.785156 69.148438 "/>
<path style="fill:none;stroke-width:5;stroke-linecap:round;stroke-linejoin:round;stroke:rgb(0%,0%,0%);stroke-opacity:1;stroke-miterlimit:10;" d="M 858.536651 1367.169947 L 641.222352 1133.241644 L 638.714578 1300.165358 Z M 858.536651 1367.169947 " transform="matrix(0.09969,0,0,-0.09969,0.1117,198.761922)"/>
<path style=" stroke:none;fill-rule:nonzero;fill:rgb(54.492188%,2.89917%,2.89917%);fill-opacity:1;" d="M 85.699219 62.46875 L 78.570312 54.90625 L 98.015625 49.234375 "/>
<path style="fill:none;stroke-width:5;stroke-linecap:round;stroke-linejoin:round;stroke:rgb(0%,0%,0%);stroke-opacity:1;stroke-miterlimit:10;" d="M 858.536651 1367.169947 L 787.025905 1443.030113 L 982.083709 1499.925238 Z M 858.536651 1367.169947 " transform="matrix(0.09969,0,0,-0.09969,0.1117,198.761922)"/>
<path style=" stroke:none;fill-rule:nonzero;fill:rgb(81.639099%,33.300781%,0%);fill-opacity:1;" d="M 85.699219 62.46875 L 63.785156 69.148438 L 78.570312 54.90625 "/>
<path style="fill:none;stroke-width:5;stroke-linecap:round;stroke-linejoin:round;stroke:rgb(0%,0%,0%);stroke-opacity:1;stroke-miterlimit:10;" d="M 858.536651 1367.169947 L 638.714578 1300.165358 L 787.025905 1443.030113 Z M 858.536651 1367.169947 " transform="matrix(0.09969,0,0,-0.09969,0.1117,198.761922)"/>
<path style=" stroke:none;fill-rule:nonzero;fill:rgb(42.601013%,44.309998%,77.539062%);fill-opacity:1;" d="M 83.644531 157.996094 L 118.871094 123.210938 L 125.15625 135.492188 "/>
<path style="fill:none;stroke-width:5;stroke-linecap:round;stroke-linejoin:round;stroke:rgb(0%,0%,0%);stroke-opacity:1;stroke-miterlimit:10;" d="M 837.925883 408.925953 L 1191.286927 757.859209 L 1254.333935 634.664806 Z M 837.925883 408.925953 " transform="matrix(0.09969,0,0,-0.09969,0.1117,198.761922)"/>
<path style="fill-rule:nonzero;fill:rgb(13.500977%,43.797302%,87.5%);fill-opacity:1;stroke-width:5;stroke-linecap:round;stroke-linejoin:round;stroke:rgb(0%,0%,0%);stroke-opacity:1;stroke-miterlimit:10;" d="M 1121.696196 494.386192 L 837.925883 408.925953 L 1171.18555 589.564056 " transform="matrix(0.09969,0,0,-0.09969,0.1117,198.761922)"/>
<path style="fill-rule:nonzero;fill:rgb(13.500977%,43.797302%,87.5%);fill-opacity:1;stroke-width:5;stroke-linecap:round;stroke-linejoin:round;stroke:rgb(0%,0%,0%);stroke-opacity:1;stroke-miterlimit:10;" d="M 1171.18555 589.564056 L 1254.333935 634.664806 L 1121.696196 494.386192 " transform="matrix(0.09969,0,0,-0.09969,0.1117,198.761922)"/>
<path style="fill-rule:nonzero;fill:rgb(75.584412%,82.421875%,90.625%);fill-opacity:1;stroke-width:5;stroke-linecap:round;stroke-linejoin:round;stroke:rgb(0%,0%,0%);stroke-opacity:1;stroke-miterlimit:10;" d="M 1121.696196 494.386192 L 1532.814412 119.317228 L 1069.855803 394.662988 " transform="matrix(0.09969,0,0,-0.09969,0.1117,198.761922)"/>
<path style=" stroke:none;fill-rule:nonzero;fill:rgb(42.30957%,17.893982%,17.893982%);fill-opacity:1;" d="M 83.644531 157.996094 L 111.933594 149.476562 L 96.085938 153.066406 "/>
<path style="fill:none;stroke-width:5;stroke-linecap:round;stroke-linejoin:round;stroke:rgb(0%,0%,0%);stroke-opacity:1;stroke-miterlimit:10;" d="M 837.925883 408.925953 L 1121.696196 494.386192 L 962.726828 458.376123 Z M 837.925883 408.925953 " transform="matrix(0.09969,0,0,-0.09969,0.1117,198.761922)"/>
<path style="fill-rule:nonzero;fill:rgb(75.584412%,82.421875%,90.625%);fill-opacity:1;stroke-width:5;stroke-linecap:round;stroke-linejoin:round;stroke:rgb(0%,0%,0%);stroke-opacity:1;stroke-miterlimit:10;" d="M 1069.855803 394.662988 L 962.726828 458.376123 L 1121.696196 494.386192 " transform="matrix(0.09969,0,0,-0.09969,0.1117,198.761922)"/>
<path style=" stroke:none;fill-rule:nonzero;fill:rgb(79.492188%,59.375%,62.889099%);fill-opacity:1;" d="M 83.644531 157.996094 L 71.652344 104.332031 L 89.441406 106.160156 "/>
<path style="fill:none;stroke-width:5;stroke-linecap:round;stroke-linejoin:round;stroke:rgb(0%,0%,0%);stroke-opacity:1;stroke-miterlimit:10;" d="M 837.925883 408.925953 L 717.631094 947.235337 L 896.074895 928.897239 Z M 837.925883 408.925953 " transform="matrix(0.09969,0,0,-0.09969,0.1117,198.761922)"/>
<path style=" stroke:none;fill-rule:nonzero;fill:rgb(91.40625%,72.459412%,63.084412%);fill-opacity:1;" d="M 83.644531 157.996094 L 63.105469 120.667969 L 71.652344 104.332031 "/>
<path style="fill:none;stroke-width:5;stroke-linecap:round;stroke-linejoin:round;stroke:rgb(0%,0%,0%);stroke-opacity:1;stroke-miterlimit:10;" d="M 837.925883 408.925953 L 631.896567 783.367973 L 717.631094 947.235337 Z M 837.925883 408.925953 " transform="matrix(0.09969,0,0,-0.09969,0.1117,198.761922)"/>
<path style=" stroke:none;fill-rule:nonzero;fill:rgb(57.617188%,46.801758%,69.334412%);fill-opacity:1;" d="M 118.871094 123.210938 L 83.644531 157.996094 L 109.351562 106.242188 "/>
<path style="fill:none;stroke-width:5;stroke-linecap:round;stroke-linejoin:round;stroke:rgb(0%,0%,0%);stroke-opacity:1;stroke-miterlimit:10;" d="M 1191.286927 757.859209 L 837.925883 408.925953 L 1095.795591 928.074376 Z M 1191.286927 757.859209 " transform="matrix(0.09969,0,0,-0.09969,0.1117,198.761922)"/>
<path style=" stroke:none;fill-rule:nonzero;fill:rgb(68.75%,51.5625%,64.84375%);fill-opacity:1;" d="M 109.351562 106.242188 L 83.644531 157.996094 L 89.441406 106.160156 "/>
<path style="fill:none;stroke-width:5;stroke-linecap:round;stroke-linejoin:round;stroke:rgb(0%,0%,0%);stroke-opacity:1;stroke-miterlimit:10;" d="M 1095.795591 928.074376 L 837.925883 408.925953 L 896.074895 928.897239 Z M 1095.795591 928.074376 " transform="matrix(0.09969,0,0,-0.09969,0.1117,198.761922)"/>
<path style=" stroke:none;fill-rule:nonzero;fill:rgb(97.65625%,92.1875%,63.084412%);fill-opacity:1;" d="M 83.644531 157.996094 L 62.082031 132.84375 L 63.105469 120.667969 "/>
<path style="fill:none;stroke-width:5;stroke-linecap:round;stroke-linejoin:round;stroke:rgb(0%,0%,0%);stroke-opacity:1;stroke-miterlimit:10;" d="M 837.925883 408.925953 L 621.630367 661.231538 L 631.896567 783.367973 Z M 837.925883 408.925953 " transform="matrix(0.09969,0,0,-0.09969,0.1117,198.761922)"/>
<path style=" stroke:none;fill-rule:nonzero;fill:rgb(32.592773%,19.604492%,19.604492%);fill-opacity:1;" d="M 76.402344 148.140625 L 83.644531 157.996094 L 96.085938 153.066406 "/>
<path style="fill:none;stroke-width:5;stroke-linecap:round;stroke-linejoin:round;stroke:rgb(0%,0%,0%);stroke-opacity:1;stroke-miterlimit:10;" d="M 765.278802 507.78711 L 837.925883 408.925953 L 962.726828 458.376123 Z M 765.278802 507.78711 " transform="matrix(0.09969,0,0,-0.09969,0.1117,198.761922)"/>
<path style="fill-rule:nonzero;fill:rgb(66.601562%,73.826599%,90.429688%);fill-opacity:1;stroke-width:5;stroke-linecap:round;stroke-linejoin:round;stroke:rgb(0%,0%,0%);stroke-opacity:1;stroke-miterlimit:10;" d="M 765.278802 507.78711 L 962.726828 458.376123 L 868.842035 401.598551 " transform="matrix(0.09969,0,0,-0.09969,0.1117,198.761922)"/>
<path style="fill-rule:nonzero;fill:rgb(37.988281%,37.988281%,37.988281%);fill-opacity:1;stroke-width:5;stroke-linecap:round;stroke-linejoin:round;stroke:rgb(0%,0%,0%);stroke-opacity:1;stroke-miterlimit:10;" d="M 665.477229 610.096457 L 837.925883 408.925953 L 765.278802 507.78711 " transform="matrix(0.09969,0,0,-0.09969,0.1117,198.761922)"/>
<path style="fill-rule:nonzero;fill:rgb(66.601562%,73.826599%,90.429688%);fill-opacity:1;stroke-width:5;stroke-linecap:round;stroke-linejoin:round;stroke:rgb(0%,0%,0%);stroke-opacity:1;stroke-miterlimit:10;" d="M 868.842035 401.598551 L 449.456001 148.117447 L 765.278802 507.78711 " transform="matrix(0.09969,0,0,-0.09969,0.1117,198.761922)"/>
<path style="fill-rule:nonzero;fill:rgb(37.988281%,37.988281%,37.988281%);fill-opacity:1;stroke-width:5;stroke-linecap:round;stroke-linejoin:round;stroke:rgb(0%,0%,0%);stroke-opacity:1;stroke-miterlimit:10;" d="M 765.278802 507.78711 L 621.630367 661.231538 L 665.477229 610.096457 " transform="matrix(0.09969,0,0,-0.09969,0.1117,198.761922)"/>
<path style=" stroke:none;fill-rule:nonzero;fill:rgb(66.601562%,73.826599%,90.429688%);fill-opacity:1;" d="M 168.578125 109.246094 L 125.15625 135.492188 L 118.871094 123.210938 "/>
<path style="fill:none;stroke-width:5;stroke-linecap:round;stroke-linejoin:round;stroke:rgb(0%,0%,0%);stroke-opacity:1;stroke-miterlimit:10;" d="M 1689.902949 897.941902 L 1254.333935 634.664806 L 1191.286927 757.859209 Z M 1689.902949 897.941902 " transform="matrix(0.09969,0,0,-0.09969,0.1117,198.761922)"/>
<path style=" stroke:none;fill-rule:nonzero;fill:rgb(74.414062%,68.164062%,78.90625%);fill-opacity:1;" d="M 168.578125 109.246094 L 118.871094 123.210938 L 109.351562 106.242188 "/>
<path style="fill:none;stroke-width:5;stroke-linecap:round;stroke-linejoin:round;stroke:rgb(0%,0%,0%);stroke-opacity:1;stroke-miterlimit:10;" d="M 1689.902949 897.941902 L 1191.286927 757.859209 L 1095.795591 928.074376 Z M 1689.902949 897.941902 " transform="matrix(0.09969,0,0,-0.09969,0.1117,198.761922)"/>
<path style=" stroke:none;fill-rule:nonzero;fill:rgb(68.943787%,45.701599%,56.443787%);fill-opacity:1;" d="M 168.578125 109.246094 L 119.328125 88.890625 L 125.894531 72.941406 "/>
<path style="fill:none;stroke-width:5;stroke-linecap:round;stroke-linejoin:round;stroke:rgb(0%,0%,0%);stroke-opacity:1;stroke-miterlimit:10;" d="M 1689.902949 897.941902 L 1195.871451 1102.129572 L 1261.739706 1262.117722 Z M 1689.902949 897.941902 " transform="matrix(0.09969,0,0,-0.09969,0.1117,198.761922)"/>
<path style="fill-rule:nonzero;fill:rgb(30.809021%,64.0625%,96.679688%);fill-opacity:1;stroke-width:5;stroke-linecap:round;stroke-linejoin:round;stroke:rgb(0%,0%,0%);stroke-opacity:1;stroke-miterlimit:10;" d="M 1340.852142 686.936222 L 1689.902949 897.941902 L 1435.87327 674.514904 " transform="matrix(0.09969,0,0,-0.09969,0.1117,198.761922)"/>
<path style=" stroke:none;fill-rule:nonzero;fill:rgb(62.5%,11.108398%,0%);fill-opacity:1;" d="M 168.578125 109.246094 L 153.257812 120.257812 L 143.253906 131.519531 "/>
<path style="fill:none;stroke-width:5;stroke-linecap:round;stroke-linejoin:round;stroke:rgb(0%,0%,0%);stroke-opacity:1;stroke-miterlimit:10;" d="M 1689.902949 897.941902 L 1536.223418 787.48229 L 1435.87327 674.514904 Z M 1689.902949 897.941902 " transform="matrix(0.09969,0,0,-0.09969,0.1117,198.761922)"/>
<path style=" stroke:none;fill-rule:nonzero;fill:rgb(32.200623%,28.90625%,66.601562%);fill-opacity:1;" d="M 143.253906 131.519531 L 153.257812 120.257812 L 150.613281 132.484375 "/>
<path style="fill:none;stroke-width:5;stroke-linecap:round;stroke-linejoin:round;stroke:rgb(0%,0%,0%);stroke-opacity:1;stroke-miterlimit:10;" d="M 1435.87327 674.514904 L 1536.223418 787.48229 " transform="matrix(0.09969,0,0,-0.09969,0.1117,198.761922)"/>
<path style=" stroke:none;fill-rule:nonzero;fill:rgb(32.200623%,28.90625%,66.601562%);fill-opacity:1;" d="M 146.636719 150.894531 L 143.253906 131.519531 L 150.613281 132.484375 "/>
<path style="fill:none;stroke-width:5;stroke-linecap:round;stroke-linejoin:round;stroke:rgb(0%,0%,0%);stroke-opacity:1;stroke-miterlimit:10;" d="M 1469.806588 480.162411 L 1435.87327 674.514904 " transform="matrix(0.09969,0,0,-0.09969,0.1117,198.761922)"/>
<path style="fill-rule:nonzero;fill:rgb(30.809021%,64.0625%,96.679688%);fill-opacity:1;stroke-width:5;stroke-linecap:round;stroke-linejoin:round;stroke:rgb(0%,0%,0%);stroke-opacity:1;stroke-miterlimit:10;" d="M 1435.87327 674.514904 L 1254.333935 634.664806 L 1340.852142 686.936222 " transform="matrix(0.09969,0,0,-0.09969,0.1117,198.761922)"/>
<path style=" stroke:none;fill-rule:nonzero;fill:rgb(20.188904%,20.188904%,20.188904%);fill-opacity:1;" d="M 168.578125 109.246094 L 143.683594 74.109375 L 153.460938 80.125 "/>
<path style="fill:none;stroke-width:5;stroke-linecap:round;stroke-linejoin:round;stroke:rgb(0%,0%,0%);stroke-opacity:1;stroke-miterlimit:10;" d="M 1689.902949 897.941902 L 1440.183506 1250.401715 L 1538.260984 1190.058401 Z M 1689.902949 897.941902 " transform="matrix(0.09969,0,0,-0.09969,0.1117,198.761922)"/>
<path style=" stroke:none;fill-rule:nonzero;fill:rgb(51.5625%,20.410156%,37.792969%);fill-opacity:1;" d="M 168.578125 109.246094 L 125.894531 72.941406 L 143.683594 74.109375 "/>
<path style="fill:none;stroke-width:5;stroke-linecap:round;stroke-linejoin:round;stroke:rgb(0%,0%,0%);stroke-opacity:1;stroke-miterlimit:10;" d="M 1689.902949 897.941902 L 1261.739706 1262.117722 L 1440.183506 1250.401715 Z M 1689.902949 897.941902 " transform="matrix(0.09969,0,0,-0.09969,0.1117,198.761922)"/>
<path style=" stroke:none;fill-rule:nonzero;fill:rgb(74.609375%,59.179688%,68.359375%);fill-opacity:1;" d="M 168.578125 109.246094 L 109.351562 106.242188 L 119.328125 88.890625 "/>
<path style="fill:none;stroke-width:5;stroke-linecap:round;stroke-linejoin:round;stroke:rgb(0%,0%,0%);stroke-opacity:1;stroke-miterlimit:10;" d="M 1689.902949 897.941902 L 1095.795591 928.074376 L 1195.871451 1102.129572 Z M 1689.902949 897.941902 " transform="matrix(0.09969,0,0,-0.09969,0.1117,198.761922)"/>
<path style="fill-rule:nonzero;fill:rgb(89.256287%,88.476562%,45.800781%);fill-opacity:1;stroke-width:5;stroke-linecap:round;stroke-linejoin:round;stroke:rgb(0%,0%,0%);stroke-opacity:1;stroke-miterlimit:10;" d="M 1597.742251 986.497675 L 1689.902949 897.941902 L 1569.020401 1130.812238 " transform="matrix(0.09969,0,0,-0.09969,0.1117,198.761922)"/>
<path style=" stroke:none;fill-rule:nonzero;fill:rgb(97.068787%,67.576599%,27.392578%);fill-opacity:1;" d="M 168.578125 109.246094 L 159.390625 100.417969 L 153.257812 120.257812 "/>
<path style="fill:none;stroke-width:5;stroke-linecap:round;stroke-linejoin:round;stroke:rgb(0%,0%,0%);stroke-opacity:1;stroke-miterlimit:10;" d="M 1689.902949 897.941902 L 1597.742251 986.497675 L 1536.223418 787.48229 Z M 1689.902949 897.941902 " transform="matrix(0.09969,0,0,-0.09969,0.1117,198.761922)"/>
<path style="fill-rule:nonzero;fill:rgb(42.601013%,44.309998%,77.539062%);fill-opacity:1;stroke-width:5;stroke-linecap:round;stroke-linejoin:round;stroke:rgb(0%,0%,0%);stroke-opacity:1;stroke-miterlimit:10;" d="M 1597.742251 986.497675 L 2038.444365 1059.732516 L 1627.522068 836.971645 " transform="matrix(0.09969,0,0,-0.09969,0.1117,198.761922)"/>
<path style="fill-rule:nonzero;fill:rgb(42.601013%,44.309998%,77.539062%);fill-opacity:1;stroke-width:5;stroke-linecap:round;stroke-linejoin:round;stroke:rgb(0%,0%,0%);stroke-opacity:1;stroke-miterlimit:10;" d="M 1627.522068 836.971645 L 1536.223418 787.48229 L 1597.742251 986.497675 " transform="matrix(0.09969,0,0,-0.09969,0.1117,198.761922)"/>
<path style="fill-rule:nonzero;fill:rgb(89.256287%,88.476562%,45.800781%);fill-opacity:1;stroke-width:5;stroke-linecap:round;stroke-linejoin:round;stroke:rgb(0%,0%,0%);stroke-opacity:1;stroke-miterlimit:10;" d="M 1569.020401 1130.812238 L 1538.260984 1190.058401 L 1597.742251 986.497675 " transform="matrix(0.09969,0,0,-0.09969,0.1117,198.761922)"/>
<path style="fill-rule:nonzero;fill:rgb(92.381287%,81.639099%,72.459412%);fill-opacity:1;stroke-width:5;stroke-linecap:round;stroke-linejoin:round;stroke:rgb(0%,0%,0%);stroke-opacity:1;stroke-miterlimit:10;" d="M 745.843553 1031.324137 L 717.631094 947.235337 L 641.222352 1133.241644 " transform="matrix(0.09969,0,0,-0.09969,0.1117,198.761922)"/>
<path style=" stroke:none;fill-rule:nonzero;fill:rgb(74.414062%,68.164062%,78.90625%);fill-opacity:1;" d="M 8.789062 101.144531 L 71.652344 104.332031 L 63.105469 120.667969 "/>
<path style="fill:none;stroke-width:5;stroke-linecap:round;stroke-linejoin:round;stroke:rgb(0%,0%,0%);stroke-opacity:1;stroke-miterlimit:10;" d="M 87.04346 979.209457 L 717.631094 947.235337 L 631.896567 783.367973 Z M 87.04346 979.209457 " transform="matrix(0.09969,0,0,-0.09969,0.1117,198.761922)"/>
<path style=" stroke:none;fill-rule:nonzero;fill:rgb(74.609375%,59.179688%,68.359375%);fill-opacity:1;" d="M 71.652344 104.332031 L 8.789062 101.144531 L 64.035156 85.789062 "/>
<path style="fill:none;stroke-width:5;stroke-linecap:round;stroke-linejoin:round;stroke:rgb(0%,0%,0%);stroke-opacity:1;stroke-miterlimit:10;" d="M 717.631094 947.235337 L 87.04346 979.209457 L 641.222352 1133.241644 Z M 717.631094 947.235337 " transform="matrix(0.09969,0,0,-0.09969,0.1117,198.761922)"/>
<path style=" stroke:none;fill-rule:nonzero;fill:rgb(57.617188%,46.801758%,69.334412%);fill-opacity:1;" d="M 153.785156 16.785156 L 143.683594 74.109375 L 125.894531 72.941406 "/>
<path style="fill:none;stroke-width:5;stroke-linecap:round;stroke-linejoin:round;stroke:rgb(0%,0%,0%);stroke-opacity:1;stroke-miterlimit:10;" d="M 1541.513254 1825.42648 L 1440.183506 1250.401715 L 1261.739706 1262.117722 Z M 1541.513254 1825.42648 " transform="matrix(0.09969,0,0,-0.09969,0.1117,198.761922)"/>
<path style="fill-rule:nonzero;fill:rgb(68.75%,51.5625%,64.84375%);fill-opacity:1;stroke-width:5;stroke-linecap:round;stroke-linejoin:round;stroke:rgb(0%,0%,0%);stroke-opacity:1;stroke-miterlimit:10;" d="M 1314.050306 1367.483419 L 1261.739706 1262.117722 L 1135.410585 1420.146675 " transform="matrix(0.09969,0,0,-0.09969,0.1117,198.761922)"/>
<path style=" stroke:none;fill-rule:nonzero;fill:rgb(76.171875%,50.389099%,54.492188%);fill-opacity:1;" d="M 8.789062 101.144531 L 63.785156 69.148438 L 64.035156 85.789062 "/>
<path style="fill:none;stroke-width:5;stroke-linecap:round;stroke-linejoin:round;stroke:rgb(0%,0%,0%);stroke-opacity:1;stroke-miterlimit:10;" d="M 87.04346 979.209457 L 638.714578 1300.165358 L 641.222352 1133.241644 Z M 87.04346 979.209457 " transform="matrix(0.09969,0,0,-0.09969,0.1117,198.761922)"/>
<path style=" stroke:none;fill-rule:nonzero;fill:rgb(76.171875%,50.389099%,54.492188%);fill-opacity:1;" d="M 153.785156 16.785156 L 113.300781 57.1875 L 98.015625 49.234375 "/>
<path style="fill:none;stroke-width:5;stroke-linecap:round;stroke-linejoin:round;stroke:rgb(0%,0%,0%);stroke-opacity:1;stroke-miterlimit:10;" d="M 1541.513254 1825.42648 L 1135.410585 1420.146675 L 982.083709 1499.925238 Z M 1541.513254 1825.42648 " transform="matrix(0.09969,0,0,-0.09969,0.1117,198.761922)"/>
<path style="fill-rule:nonzero;fill:rgb(68.75%,51.5625%,64.84375%);fill-opacity:1;stroke-width:5;stroke-linecap:round;stroke-linejoin:round;stroke:rgb(0%,0%,0%);stroke-opacity:1;stroke-miterlimit:10;" d="M 1135.410585 1420.146675 L 1541.513254 1825.42648 L 1314.050306 1367.483419 " transform="matrix(0.09969,0,0,-0.09969,0.1117,198.761922)"/>
<path style=" stroke:none;fill-rule:nonzero;fill:rgb(75.584412%,82.421875%,90.625%);fill-opacity:1;" d="M 8.789062 101.144531 L 63.105469 120.667969 L 62.082031 132.84375 "/>
<path style="fill:none;stroke-width:5;stroke-linecap:round;stroke-linejoin:round;stroke:rgb(0%,0%,0%);stroke-opacity:1;stroke-miterlimit:10;" d="M 87.04346 979.209457 L 631.896567 783.367973 L 621.630367 661.231538 Z M 87.04346 979.209457 " transform="matrix(0.09969,0,0,-0.09969,0.1117,198.761922)"/>
<path style="fill-rule:nonzero;fill:rgb(93.359375%,75.78125%,28.196716%);fill-opacity:1;stroke-width:5;stroke-linecap:round;stroke-linejoin:round;stroke:rgb(0%,0%,0%);stroke-opacity:1;stroke-miterlimit:10;" d="M 492.911024 715.501337 L 449.456001 148.117447 L 466.501028 707.664543 " transform="matrix(0.09969,0,0,-0.09969,0.1117,198.761922)"/>
<path style="fill-rule:nonzero;fill:rgb(55.46875%,92.96875%,80.859375%);fill-opacity:1;stroke-width:5;stroke-linecap:round;stroke-linejoin:round;stroke:rgb(0%,0%,0%);stroke-opacity:1;stroke-miterlimit:10;" d="M 492.911024 715.501337 L 87.04346 979.209457 L 517.910397 722.946291 " transform="matrix(0.09969,0,0,-0.09969,0.1117,198.761922)"/>
<path style=" stroke:none;fill-rule:nonzero;fill:rgb(26.609802%,2.301025%,28.196716%);fill-opacity:1;" d="M 8.789062 101.144531 L 49.25 127.433594 L 47.011719 115.261719 "/>
<path style="fill:none;stroke-width:5;stroke-linecap:round;stroke-linejoin:round;stroke:rgb(0%,0%,0%);stroke-opacity:1;stroke-miterlimit:10;" d="M 87.04346 979.209457 L 492.911024 715.501337 L 470.458609 837.598588 Z M 87.04346 979.209457 " transform="matrix(0.09969,0,0,-0.09969,0.1117,198.761922)"/>
<path style="fill-rule:nonzero;fill:rgb(93.359375%,75.78125%,28.196716%);fill-opacity:1;stroke-width:5;stroke-linecap:round;stroke-linejoin:round;stroke:rgb(0%,0%,0%);stroke-opacity:1;stroke-miterlimit:10;" d="M 466.501028 707.664543 L 470.458609 837.598588 L 492.911024 715.501337 " transform="matrix(0.09969,0,0,-0.09969,0.1117,198.761922)"/>
<path style="fill-rule:nonzero;fill:rgb(55.46875%,92.96875%,80.859375%);fill-opacity:1;stroke-width:5;stroke-linecap:round;stroke-linejoin:round;stroke:rgb(0%,0%,0%);stroke-opacity:1;stroke-miterlimit:10;" d="M 517.910397 722.946291 L 621.630367 661.231538 L 492.911024 715.501337 " transform="matrix(0.09969,0,0,-0.09969,0.1117,198.761922)"/>
<path style="fill-rule:nonzero;fill:rgb(77.34375%,33.496094%,20.701599%);fill-opacity:1;stroke-width:5;stroke-linecap:round;stroke-linejoin:round;stroke:rgb(0%,0%,0%);stroke-opacity:1;stroke-miterlimit:10;" d="M 510.582995 1307.218472 L 638.714578 1300.165358 L 532.996226 1238.646524 " transform="matrix(0.09969,0,0,-0.09969,0.1117,198.761922)"/>
<path style="fill-rule:nonzero;fill:rgb(77.34375%,33.496094%,20.701599%);fill-opacity:1;stroke-width:5;stroke-linecap:round;stroke-linejoin:round;stroke:rgb(0%,0%,0%);stroke-opacity:1;stroke-miterlimit:10;" d="M 532.996226 1238.646524 L 87.04346 979.209457 L 510.582995 1307.218472 " transform="matrix(0.09969,0,0,-0.09969,0.1117,198.761922)"/>
<path style=" stroke:none;fill-rule:nonzero;fill:rgb(0%,27.392578%,76.171875%);fill-opacity:1;" d="M 8.789062 101.144531 L 48.273438 73.875 L 51.011719 68.445312 "/>
<path style="fill:none;stroke-width:5;stroke-linecap:round;stroke-linejoin:round;stroke:rgb(0%,0%,0%);stroke-opacity:1;stroke-miterlimit:10;" d="M 87.04346 979.209457 L 483.115032 1252.752754 L 510.582995 1307.218472 Z M 87.04346 979.209457 " transform="matrix(0.09969,0,0,-0.09969,0.1117,198.761922)"/>
<path style="fill-rule:nonzero;fill:rgb(93.359375%,75.78125%,28.196716%);fill-opacity:1;stroke-width:5;stroke-linecap:round;stroke-linejoin:round;stroke:rgb(0%,0%,0%);stroke-opacity:1;stroke-miterlimit:10;" d="M 510.582995 1307.218472 L 483.115032 1252.752754 L 486.955061 1379.395346 " transform="matrix(0.09969,0,0,-0.09969,0.1117,198.761922)"/>
<path style="fill-rule:nonzero;fill:rgb(93.359375%,75.78125%,28.196716%);fill-opacity:1;stroke-width:5;stroke-linecap:round;stroke-linejoin:round;stroke:rgb(0%,0%,0%);stroke-opacity:1;stroke-miterlimit:10;" d="M 486.955061 1379.395346 L 503.020489 1907.360162 L 510.582995 1307.218472 " transform="matrix(0.09969,0,0,-0.09969,0.1117,198.761922)"/>
<path style=" stroke:none;fill-rule:nonzero;fill:rgb(39.697266%,28.196716%,60.351562%);fill-opacity:1;" d="M 41.191406 94.121094 L 8.789062 101.144531 L 47.011719 115.261719 "/>
<path style="fill:none;stroke-width:5;stroke-linecap:round;stroke-linejoin:round;stroke:rgb(0%,0%,0%);stroke-opacity:1;stroke-miterlimit:10;" d="M 412.074493 1049.662235 L 87.04346 979.209457 L 470.458609 837.598588 Z M 412.074493 1049.662235 " transform="matrix(0.09969,0,0,-0.09969,0.1117,198.761922)"/>
<path style="fill-rule:nonzero;fill:rgb(97.65625%,92.1875%,63.084412%);fill-opacity:1;stroke-width:5;stroke-linecap:round;stroke-linejoin:round;stroke:rgb(0%,0%,0%);stroke-opacity:1;stroke-miterlimit:10;" d="M 412.074493 1049.662235 L 470.458609 837.598588 L 420.616599 895.7476 " transform="matrix(0.09969,0,0,-0.09969,0.1117,198.761922)"/>
<path style="fill-rule:nonzero;fill:rgb(33.68988%,39.501953%,77.34375%);fill-opacity:1;stroke-width:5;stroke-linecap:round;stroke-linejoin:round;stroke:rgb(0%,0%,0%);stroke-opacity:1;stroke-miterlimit:10;" d="M 403.806676 1197.973563 L 87.04346 979.209457 L 412.074493 1049.662235 " transform="matrix(0.09969,0,0,-0.09969,0.1117,198.761922)"/>
<path style="fill-rule:nonzero;fill:rgb(97.65625%,92.1875%,63.084412%);fill-opacity:1;stroke-width:5;stroke-linecap:round;stroke-linejoin:round;stroke:rgb(0%,0%,0%);stroke-opacity:1;stroke-miterlimit:10;" d="M 420.616599 895.7476 L 190.959349 1163.726773 L 412.074493 1049.662235 " transform="matrix(0.09969,0,0,-0.09969,0.1117,198.761922)"/>
<path style="fill-rule:nonzero;fill:rgb(33.68988%,39.501953%,77.34375%);fill-opacity:1;stroke-width:5;stroke-linecap:round;stroke-linejoin:round;stroke:rgb(0%,0%,0%);stroke-opacity:1;stroke-miterlimit:10;" d="M 412.074493 1049.662235 L 483.115032 1252.752754 L 403.806676 1197.973563 " transform="matrix(0.09969,0,0,-0.09969,0.1117,198.761922)"/>
<path style=" stroke:none;fill-rule:nonzero;fill:rgb(67.771912%,66.209412%,82.617188%);fill-opacity:1;" d="M 125.15625 135.492188 L 152.917969 186.867188 L 111.933594 149.476562 "/>
<path style="fill:none;stroke-width:5;stroke-linecap:round;stroke-linejoin:round;stroke:rgb(0%,0%,0%);stroke-opacity:1;stroke-miterlimit:10;" d="M 1254.333935 634.664806 L 1532.814412 119.317228 L 1121.696196 494.386192 Z M 1254.333935 634.664806 " transform="matrix(0.09969,0,0,-0.09969,0.1117,198.761922)"/>
<path style=" stroke:none;fill-rule:nonzero;fill:rgb(56.639099%,52.146912%,76.5625%);fill-opacity:1;" d="M 152.917969 186.867188 L 125.15625 135.492188 L 143.253906 131.519531 "/>
<path style="fill:none;stroke-width:5;stroke-linecap:round;stroke-linejoin:round;stroke:rgb(0%,0%,0%);stroke-opacity:1;stroke-miterlimit:10;" d="M 1532.814412 119.317228 L 1254.333935 634.664806 L 1435.87327 674.514904 Z M 1532.814412 119.317228 " transform="matrix(0.09969,0,0,-0.09969,0.1117,198.761922)"/>
<path style="fill-rule:nonzero;fill:rgb(68.943787%,45.701599%,56.443787%);fill-opacity:1;stroke-width:5;stroke-linecap:round;stroke-linejoin:round;stroke:rgb(0%,0%,0%);stroke-opacity:1;stroke-miterlimit:10;" d="M 893.214465 1575.550301 L 982.083709 1499.925238 L 787.025905 1443.030113 " transform="matrix(0.09969,0,0,-0.09969,0.1117,198.761922)"/>
<path style="fill-rule:nonzero;fill:rgb(68.943787%,45.701599%,56.443787%);fill-opacity:1;stroke-width:5;stroke-linecap:round;stroke-linejoin:round;stroke:rgb(0%,0%,0%);stroke-opacity:1;stroke-miterlimit:10;" d="M 787.025905 1443.030113 L 503.020489 1907.360162 L 893.214465 1575.550301 " transform="matrix(0.09969,0,0,-0.09969,0.1117,198.761922)"/>
<path style=" stroke:none;fill-rule:nonzero;fill:rgb(79.492188%,59.375%,62.889099%);fill-opacity:1;" d="M 63.785156 69.148438 L 50.257812 8.617188 L 78.570312 54.90625 "/>
<path style="fill:none;stroke-width:5;stroke-linecap:round;stroke-linejoin:round;stroke:rgb(0%,0%,0%);stroke-opacity:1;stroke-miterlimit:10;" d="M 638.714578 1300.165358 L 503.020489 1907.360162 L 787.025905 1443.030113 Z M 638.714578 1300.165358 " transform="matrix(0.09969,0,0,-0.09969,0.1117,198.761922)"/>
<path style=" stroke:none;fill-rule:nonzero;fill:rgb(32.200623%,28.90625%,66.601562%);fill-opacity:1;" d="M 153.785156 16.785156 L 153.460938 80.125 L 143.683594 74.109375 "/>
<path style="fill:none;stroke-width:5;stroke-linecap:round;stroke-linejoin:round;stroke:rgb(0%,0%,0%);stroke-opacity:1;stroke-miterlimit:10;" d="M 1541.513254 1825.42648 L 1538.260984 1190.058401 L 1440.183506 1250.401715 Z M 1541.513254 1825.42648 " transform="matrix(0.09969,0,0,-0.09969,0.1117,198.761922)"/>
<path style=" stroke:none;fill-rule:nonzero;fill:rgb(91.40625%,72.459412%,63.084412%);fill-opacity:1;" d="M 51.011719 68.445312 L 50.257812 8.617188 L 63.785156 69.148438 "/>
<path style="fill:none;stroke-width:5;stroke-linecap:round;stroke-linejoin:round;stroke:rgb(0%,0%,0%);stroke-opacity:1;stroke-miterlimit:10;" d="M 510.582995 1307.218472 L 503.020489 1907.360162 L 638.714578 1300.165358 Z M 510.582995 1307.218472 " transform="matrix(0.09969,0,0,-0.09969,0.1117,198.761922)"/>
<path style="fill-rule:nonzero;fill:rgb(34.008789%,34.008789%,34.008789%);fill-opacity:1;stroke-width:5;stroke-linecap:round;stroke-linejoin:round;stroke:rgb(0%,0%,0%);stroke-opacity:1;stroke-miterlimit:10;" d="M 1025.852204 1607.328501 L 503.020489 1907.360162 L 959.905582 1655.132945 " transform="matrix(0.09969,0,0,-0.09969,0.1117,198.761922)"/>
<path style="fill-rule:nonzero;fill:rgb(77.34375%,33.496094%,20.701599%);fill-opacity:1;stroke-width:5;stroke-linecap:round;stroke-linejoin:round;stroke:rgb(0%,0%,0%);stroke-opacity:1;stroke-miterlimit:10;" d="M 1025.852204 1607.328501 L 1541.513254 1825.42648 L 1088.585741 1561.875095 " transform="matrix(0.09969,0,0,-0.09969,0.1117,198.761922)"/>
<path style=" stroke:none;fill-rule:nonzero;fill:rgb(5.799866%,53.90625%,89.0625%);fill-opacity:1;" d="M 153.785156 16.785156 L 102.378906 38.527344 L 106.777344 39.816406 "/>
<path style="fill:none;stroke-width:5;stroke-linecap:round;stroke-linejoin:round;stroke:rgb(0%,0%,0%);stroke-opacity:1;stroke-miterlimit:10;" d="M 1541.513254 1825.42648 L 1025.852204 1607.328501 L 1069.973355 1594.397791 Z M 1541.513254 1825.42648 " transform="matrix(0.09969,0,0,-0.09969,0.1117,198.761922)"/>
<path style="fill-rule:nonzero;fill:rgb(34.008789%,34.008789%,34.008789%);fill-opacity:1;stroke-width:5;stroke-linecap:round;stroke-linejoin:round;stroke:rgb(0%,0%,0%);stroke-opacity:1;stroke-miterlimit:10;" d="M 959.905582 1655.132945 L 1069.973355 1594.397791 L 1025.852204 1607.328501 " transform="matrix(0.09969,0,0,-0.09969,0.1117,198.761922)"/>
<path style="fill-rule:nonzero;fill:rgb(77.34375%,33.496094%,20.701599%);fill-opacity:1;stroke-width:5;stroke-linecap:round;stroke-linejoin:round;stroke:rgb(0%,0%,0%);stroke-opacity:1;stroke-miterlimit:10;" d="M 1088.585741 1561.875095 L 982.083709 1499.925238 L 1025.852204 1607.328501 " transform="matrix(0.09969,0,0,-0.09969,0.1117,198.761922)"/>
<path style=" stroke:none;fill-rule:nonzero;fill:rgb(51.5625%,20.410156%,37.792969%);fill-opacity:1;" d="M 50.257812 8.617188 L 102.378906 38.527344 L 98.015625 49.234375 "/>
<path style="fill:none;stroke-width:5;stroke-linecap:round;stroke-linejoin:round;stroke:rgb(0%,0%,0%);stroke-opacity:1;stroke-miterlimit:10;" d="M 503.020489 1907.360162 L 1025.852204 1607.328501 L 982.083709 1499.925238 Z M 503.020489 1907.360162 " transform="matrix(0.09969,0,0,-0.09969,0.1117,198.761922)"/>
<path style="fill-rule:nonzero;fill:rgb(26.904297%,26.904297%,31.591797%);fill-opacity:1;stroke-width:5;stroke-linecap:round;stroke-linejoin:round;stroke:rgb(0%,0%,0%);stroke-opacity:1;stroke-miterlimit:10;" d="M 1538.927112 1312.939332 L 1541.513254 1825.42648 L 1542.375301 1321.990829 " transform="matrix(0.09969,0,0,-0.09969,0.1117,198.761922)"/>
<path style=" stroke:none;fill-rule:nonzero;fill:rgb(95.506287%,86.131287%,70.506287%);fill-opacity:1;" d="M 153.785156 16.785156 L 142.886719 59.75 L 153.871094 66.972656 "/>
<path style="fill:none;stroke-width:5;stroke-linecap:round;stroke-linejoin:round;stroke:rgb(0%,0%,0%);stroke-opacity:1;stroke-miterlimit:10;" d="M 1541.513254 1825.42648 L 1432.189976 1394.44199 L 1542.375301 1321.990829 Z M 1541.513254 1825.42648 " transform="matrix(0.09969,0,0,-0.09969,0.1117,198.761922)"/>
<path style="fill-rule:nonzero;fill:rgb(34.008789%,34.008789%,34.008789%);fill-opacity:1;stroke-width:5;stroke-linecap:round;stroke-linejoin:round;stroke:rgb(0%,0%,0%);stroke-opacity:1;stroke-miterlimit:10;" d="M 1542.375301 1321.990829 L 1432.189976 1394.44199 L 1546.01941 1331.590902 " transform="matrix(0.09969,0,0,-0.09969,0.1117,198.761922)"/>
<path style="fill-rule:nonzero;fill:rgb(34.008789%,34.008789%,34.008789%);fill-opacity:1;stroke-width:5;stroke-linecap:round;stroke-linejoin:round;stroke:rgb(0%,0%,0%);stroke-opacity:1;stroke-miterlimit:10;" d="M 1546.01941 1331.590902 L 2038.444365 1059.732516 L 1542.375301 1321.990829 " transform="matrix(0.09969,0,0,-0.09969,0.1117,198.761922)"/>
<path style="fill-rule:nonzero;fill:rgb(26.904297%,26.904297%,31.591797%);fill-opacity:1;stroke-width:5;stroke-linecap:round;stroke-linejoin:round;stroke:rgb(0%,0%,0%);stroke-opacity:1;stroke-miterlimit:10;" d="M 1542.375301 1321.990829 L 1538.260984 1190.058401 L 1538.927112 1312.939332 " transform="matrix(0.09969,0,0,-0.09969,0.1117,198.761922)"/>
<path style=" stroke:none;fill-rule:nonzero;fill:rgb(81.25%,80.46875%,84.375%);fill-opacity:1;" d="M 142.886719 59.75 L 153.785156 16.785156 L 127.542969 43.960938 "/>
<path style="fill:none;stroke-width:5;stroke-linecap:round;stroke-linejoin:round;stroke:rgb(0%,0%,0%);stroke-opacity:1;stroke-miterlimit:10;" d="M 1432.189976 1394.44199 L 1541.513254 1825.42648 L 1278.275341 1552.823598 Z M 1432.189976 1394.44199 " transform="matrix(0.09969,0,0,-0.09969,0.1117,198.761922)"/>
<path style="fill-rule:nonzero;fill:rgb(64.256287%,76.5625%,93.75%);fill-opacity:1;stroke-width:5;stroke-linecap:round;stroke-linejoin:round;stroke:rgb(0%,0%,0%);stroke-opacity:1;stroke-miterlimit:10;" d="M 1278.275341 1552.823598 L 1541.513254 1825.42648 L 1163.858148 1640.399772 " transform="matrix(0.09969,0,0,-0.09969,0.1117,198.761922)"/>
<path style="fill-rule:nonzero;fill:rgb(20.188904%,20.188904%,20.188904%);fill-opacity:1;stroke-width:5;stroke-linecap:round;stroke-linejoin:round;stroke:rgb(0%,0%,0%);stroke-opacity:1;stroke-miterlimit:10;" d="M 1278.275341 1552.823598 L 1235.878285 1772.645672 L 1397.198691 1461.838419 " transform="matrix(0.09969,0,0,-0.09969,0.1117,198.761922)"/>
<path style="fill-rule:nonzero;fill:rgb(20.188904%,20.188904%,20.188904%);fill-opacity:1;stroke-width:5;stroke-linecap:round;stroke-linejoin:round;stroke:rgb(0%,0%,0%);stroke-opacity:1;stroke-miterlimit:10;" d="M 1397.198691 1461.838419 L 1432.189976 1394.44199 L 1278.275341 1552.823598 " transform="matrix(0.09969,0,0,-0.09969,0.1117,198.761922)"/>
<path style="fill-rule:nonzero;fill:rgb(64.256287%,76.5625%,93.75%);fill-opacity:1;stroke-width:5;stroke-linecap:round;stroke-linejoin:round;stroke:rgb(0%,0%,0%);stroke-opacity:1;stroke-miterlimit:10;" d="M 1163.858148 1640.399772 L 1069.973355 1594.397791 L 1278.275341 1552.823598 " transform="matrix(0.09969,0,0,-0.09969,0.1117,198.761922)"/>
<path style=" stroke:none;fill-rule:nonzero;fill:rgb(80.076599%,76.951599%,82.421875%);fill-opacity:1;" d="M 44.917969 183.996094 L 62.082031 132.84375 L 76.402344 148.140625 "/>
<path style="fill:none;stroke-width:5;stroke-linecap:round;stroke-linejoin:round;stroke:rgb(0%,0%,0%);stroke-opacity:1;stroke-miterlimit:10;" d="M 449.456001 148.117447 L 621.630367 661.231538 L 765.278802 507.78711 Z M 449.456001 148.117447 " transform="matrix(0.09969,0,0,-0.09969,0.1117,198.761922)"/>
<path style=" stroke:none;fill-rule:nonzero;fill:rgb(92.381287%,81.639099%,72.459412%);fill-opacity:1;" d="M 44.917969 183.996094 L 49.25 127.433594 L 62.082031 132.84375 "/>
<path style="fill:none;stroke-width:5;stroke-linecap:round;stroke-linejoin:round;stroke:rgb(0%,0%,0%);stroke-opacity:1;stroke-miterlimit:10;" d="M 449.456001 148.117447 L 492.911024 715.501337 L 621.630367 661.231538 Z M 449.456001 148.117447 " transform="matrix(0.09969,0,0,-0.09969,0.1117,198.761922)"/>
<path style=" stroke:none;fill-rule:nonzero;fill:rgb(37.597656%,11.69281%,38.792419%);fill-opacity:1;" d="M 203.324219 93.117188 L 153.460938 80.125 L 153.871094 66.972656 "/>
<path style="fill:none;stroke-width:5;stroke-linecap:round;stroke-linejoin:round;stroke:rgb(0%,0%,0%);stroke-opacity:1;stroke-miterlimit:10;" d="M 2038.444365 1059.732516 L 1538.260984 1190.058401 L 1542.375301 1321.990829 Z M 2038.444365 1059.732516 " transform="matrix(0.09969,0,0,-0.09969,0.1117,198.761922)"/>
<path style=" stroke:none;fill-rule:nonzero;fill:rgb(46.289062%,34.397888%,63.28125%);fill-opacity:1;" d="M 203.324219 93.117188 L 159.390625 100.417969 L 153.460938 80.125 "/>
<path style="fill:none;stroke-width:5;stroke-linecap:round;stroke-linejoin:round;stroke:rgb(0%,0%,0%);stroke-opacity:1;stroke-miterlimit:10;" d="M 2038.444365 1059.732516 L 1597.742251 986.497675 L 1538.260984 1190.058401 Z M 2038.444365 1059.732516 " transform="matrix(0.09969,0,0,-0.09969,0.1117,198.761922)"/>
<path style="fill-rule:nonzero;fill:rgb(32.200623%,28.90625%,66.601562%);fill-opacity:1;stroke-width:5;stroke-linecap:round;stroke-linejoin:round;stroke:rgb(0%,0%,0%);stroke-opacity:1;stroke-miterlimit:10;" d="M 1536.223418 787.48229 L 1532.814412 119.317228 L 1469.806588 480.162411 " transform="matrix(0.09969,0,0,-0.09969,0.1117,198.761922)"/>
<path style="fill-rule:nonzero;fill:rgb(55.46875%,92.96875%,80.859375%);fill-opacity:1;stroke-width:5;stroke-linecap:round;stroke-linejoin:round;stroke:rgb(0%,0%,0%);stroke-opacity:1;stroke-miterlimit:10;" d="M 1004.849596 410.610864 L 962.726828 458.376123 L 1069.855803 394.662988 " transform="matrix(0.09969,0,0,-0.09969,0.1117,198.761922)"/>
<path style=" stroke:none;fill-rule:nonzero;fill:rgb(30.809021%,64.0625%,96.679688%);fill-opacity:1;" d="M 44.917969 183.996094 L 96.085938 153.066406 L 100.285156 157.828125 "/>
<path style="fill:none;stroke-width:5;stroke-linecap:round;stroke-linejoin:round;stroke:rgb(0%,0%,0%);stroke-opacity:1;stroke-miterlimit:10;" d="M 449.456001 148.117447 L 962.726828 458.376123 L 1004.849596 410.610864 Z M 449.456001 148.117447 " transform="matrix(0.09969,0,0,-0.09969,0.1117,198.761922)"/>
<path style="fill-rule:nonzero;fill:rgb(71.875%,19.993591%,0%);fill-opacity:1;stroke-width:5;stroke-linecap:round;stroke-linejoin:round;stroke:rgb(0%,0%,0%);stroke-opacity:1;stroke-miterlimit:10;" d="M 1004.849596 410.610864 L 1051.791993 493.680881 L 936.316832 427.420787 " transform="matrix(0.09969,0,0,-0.09969,0.1117,198.761922)"/>
<path style="fill-rule:nonzero;fill:rgb(71.875%,19.993591%,0%);fill-opacity:1;stroke-width:5;stroke-linecap:round;stroke-linejoin:round;stroke:rgb(0%,0%,0%);stroke-opacity:1;stroke-miterlimit:10;" d="M 936.316832 427.420787 L 449.456001 148.117447 L 1004.849596 410.610864 " transform="matrix(0.09969,0,0,-0.09969,0.1117,198.761922)"/>
<path style="fill-rule:nonzero;fill:rgb(55.46875%,92.96875%,80.859375%);fill-opacity:1;stroke-width:5;stroke-linecap:round;stroke-linejoin:round;stroke:rgb(0%,0%,0%);stroke-opacity:1;stroke-miterlimit:10;" d="M 1069.855803 394.662988 L 1532.814412 119.317228 L 1004.849596 410.610864 " transform="matrix(0.09969,0,0,-0.09969,0.1117,198.761922)"/>
<path style=" stroke:none;fill-rule:nonzero;fill:rgb(13.500977%,43.797302%,87.5%);fill-opacity:1;" d="M 203.324219 93.117188 L 153.566406 127.285156 L 153.257812 120.257812 "/>
<path style="fill:none;stroke-width:5;stroke-linecap:round;stroke-linejoin:round;stroke:rgb(0%,0%,0%);stroke-opacity:1;stroke-miterlimit:10;" d="M 2038.444365 1059.732516 L 1539.318951 716.990328 L 1536.223418 787.48229 Z M 2038.444365 1059.732516 " transform="matrix(0.09969,0,0,-0.09969,0.1117,198.761922)"/>
<path style="fill-rule:nonzero;fill:rgb(71.875%,19.993591%,0%);fill-opacity:1;stroke-width:5;stroke-linecap:round;stroke-linejoin:round;stroke:rgb(0%,0%,0%);stroke-opacity:1;stroke-miterlimit:10;" d="M 1539.318951 716.990328 L 2038.444365 1059.732516 L 1543.276532 775.609547 " transform="matrix(0.09969,0,0,-0.09969,0.1117,198.761922)"/>
<path style="fill-rule:nonzero;fill:rgb(26.904297%,26.904297%,31.591797%);fill-opacity:1;stroke-width:5;stroke-linecap:round;stroke-linejoin:round;stroke:rgb(0%,0%,0%);stroke-opacity:1;stroke-miterlimit:10;" d="M 1535.55729 661.466642 L 1536.223418 787.48229 L 1539.318951 716.990328 " transform="matrix(0.09969,0,0,-0.09969,0.1117,198.761922)"/>
<path style="fill-rule:nonzero;fill:rgb(71.875%,19.993591%,0%);fill-opacity:1;stroke-width:5;stroke-linecap:round;stroke-linejoin:round;stroke:rgb(0%,0%,0%);stroke-opacity:1;stroke-miterlimit:10;" d="M 1543.276532 775.609547 L 1426.90014 708.879246 L 1539.318951 716.990328 " transform="matrix(0.09969,0,0,-0.09969,0.1117,198.761922)"/>
<path style="fill-rule:nonzero;fill:rgb(26.904297%,26.904297%,31.591797%);fill-opacity:1;stroke-width:5;stroke-linecap:round;stroke-linejoin:round;stroke:rgb(0%,0%,0%);stroke-opacity:1;stroke-miterlimit:10;" d="M 1539.318951 716.990328 L 1532.814412 119.317228 L 1535.55729 661.466642 " transform="matrix(0.09969,0,0,-0.09969,0.1117,198.761922)"/>
<path style="fill-rule:nonzero;fill:rgb(18.505859%,18.505859%,62.304688%);fill-opacity:1;stroke-width:5;stroke-linecap:round;stroke-linejoin:round;stroke:rgb(0%,0%,0%);stroke-opacity:1;stroke-miterlimit:10;" d="M 566.459336 1383.940686 L 503.020489 1907.360162 L 486.955061 1379.395346 " transform="matrix(0.09969,0,0,-0.09969,0.1117,198.761922)"/>
<path style=" stroke:none;fill-rule:nonzero;fill:rgb(53.514099%,50.976562%,77.34375%);fill-opacity:1;" d="M 50.257812 8.617188 L 56.582031 60.796875 L 75.140625 55.316406 "/>
<path style="fill:none;stroke-width:5;stroke-linecap:round;stroke-linejoin:round;stroke:rgb(0%,0%,0%);stroke-opacity:1;stroke-miterlimit:10;" d="M 503.020489 1907.360162 L 566.459336 1383.940686 L 752.622379 1438.915796 Z M 503.020489 1907.360162 " transform="matrix(0.09969,0,0,-0.09969,0.1117,198.761922)"/>
<path style="fill-rule:nonzero;fill:rgb(0%,27.392578%,76.171875%);fill-opacity:1;stroke-width:5;stroke-linecap:round;stroke-linejoin:round;stroke:rgb(0%,0%,0%);stroke-opacity:1;stroke-miterlimit:10;" d="M 901.521467 1579.19441 L 752.622379 1438.915796 L 840.198553 1499.415847 " transform="matrix(0.09969,0,0,-0.09969,0.1117,198.761922)"/>
<path style="fill-rule:nonzero;fill:rgb(74.609375%,87.109375%,93.75%);fill-opacity:1;stroke-width:5;stroke-linecap:round;stroke-linejoin:round;stroke:rgb(0%,0%,0%);stroke-opacity:1;stroke-miterlimit:10;" d="M 901.521467 1579.19441 L 1069.973355 1594.397791 L 959.905582 1655.132945 " transform="matrix(0.09969,0,0,-0.09969,0.1117,198.761922)"/>
<path style=" stroke:none;fill-rule:nonzero;fill:rgb(54.492188%,2.89917%,2.89917%);fill-opacity:1;" d="M 123.316406 22.046875 L 106.777344 39.816406 L 89.984375 41.332031 "/>
<path style="fill:none;stroke-width:5;stroke-linecap:round;stroke-linejoin:round;stroke:rgb(0%,0%,0%);stroke-opacity:1;stroke-miterlimit:10;" d="M 1235.878285 1772.645672 L 1069.973355 1594.397791 L 901.521467 1579.19441 Z M 1235.878285 1772.645672 " transform="matrix(0.09969,0,0,-0.09969,0.1117,198.761922)"/>
<path style="fill-rule:nonzero;fill:rgb(0%,27.392578%,76.171875%);fill-opacity:1;stroke-width:5;stroke-linecap:round;stroke-linejoin:round;stroke:rgb(0%,0%,0%);stroke-opacity:1;stroke-miterlimit:10;" d="M 840.198553 1499.415847 L 1235.878285 1772.645672 L 901.521467 1579.19441 " transform="matrix(0.09969,0,0,-0.09969,0.1117,198.761922)"/>
<path style="fill-rule:nonzero;fill:rgb(74.609375%,87.109375%,93.75%);fill-opacity:1;stroke-width:5;stroke-linecap:round;stroke-linejoin:round;stroke:rgb(0%,0%,0%);stroke-opacity:1;stroke-miterlimit:10;" d="M 959.905582 1655.132945 L 503.020489 1907.360162 L 901.521467 1579.19441 " transform="matrix(0.09969,0,0,-0.09969,0.1117,198.761922)"/>
<path style=" stroke:none;fill-rule:nonzero;fill:rgb(66.992188%,67.576599%,84.764099%);fill-opacity:1;" d="M 89.984375 41.332031 L 50.257812 8.617188 L 75.140625 55.316406 "/>
<path style="fill:none;stroke-width:5;stroke-linecap:round;stroke-linejoin:round;stroke:rgb(0%,0%,0%);stroke-opacity:1;stroke-miterlimit:10;" d="M 901.521467 1579.19441 L 503.020489 1907.360162 L 752.622379 1438.915796 Z M 901.521467 1579.19441 " transform="matrix(0.09969,0,0,-0.09969,0.1117,198.761922)"/>
<path style=" stroke:none;fill-rule:nonzero;fill:rgb(43.797302%,8.299255%,26.489258%);fill-opacity:1;" d="M 152.917969 186.867188 L 104.964844 149.546875 L 100.285156 157.828125 "/>
<path style="fill:none;stroke-width:5;stroke-linecap:round;stroke-linejoin:round;stroke:rgb(0%,0%,0%);stroke-opacity:1;stroke-miterlimit:10;" d="M 1532.814412 119.317228 L 1051.791993 493.680881 L 1004.849596 410.610864 Z M 1532.814412 119.317228 " transform="matrix(0.09969,0,0,-0.09969,0.1117,198.761922)"/>
<path style=" stroke:none;fill-rule:nonzero;fill:rgb(80.859375%,59.568787%,61.326599%);fill-opacity:1;" d="M 126.398438 143.980469 L 152.917969 186.867188 L 142.359375 128.09375 "/>
<path style="fill:none;stroke-width:5;stroke-linecap:round;stroke-linejoin:round;stroke:rgb(0%,0%,0%);stroke-opacity:1;stroke-miterlimit:10;" d="M 1266.794438 549.518038 L 1532.814412 119.317228 L 1426.90014 708.879246 Z M 1266.794438 549.518038 " transform="matrix(0.09969,0,0,-0.09969,0.1117,198.761922)"/>
<path style=" stroke:none;fill-rule:nonzero;fill:rgb(94.921875%,74.804688%,59.568787%);fill-opacity:1;" d="M 152.917969 186.867188 L 153.566406 127.285156 L 142.359375 128.09375 "/>
<path style="fill:none;stroke-width:5;stroke-linecap:round;stroke-linejoin:round;stroke:rgb(0%,0%,0%);stroke-opacity:1;stroke-miterlimit:10;" d="M 1532.814412 119.317228 L 1539.318951 716.990328 L 1426.90014 708.879246 Z M 1532.814412 119.317228 " transform="matrix(0.09969,0,0,-0.09969,0.1117,198.761922)"/>
<path style=" stroke:none;fill-rule:nonzero;fill:rgb(68.359375%,43.089294%,53.514099%);fill-opacity:1;" d="M 152.917969 186.867188 L 126.398438 143.980469 L 104.964844 149.546875 "/>
<path style="fill:none;stroke-width:5;stroke-linecap:round;stroke-linejoin:round;stroke:rgb(0%,0%,0%);stroke-opacity:1;stroke-miterlimit:10;" d="M 1532.814412 119.317228 L 1266.794438 549.518038 L 1051.791993 493.680881 Z M 1532.814412 119.317228 " transform="matrix(0.09969,0,0,-0.09969,0.1117,198.761922)"/>
<path style="fill-rule:nonzero;fill:rgb(18.505859%,18.505859%,62.304688%);fill-opacity:1;stroke-width:5;stroke-linecap:round;stroke-linejoin:round;stroke:rgb(0%,0%,0%);stroke-opacity:1;stroke-miterlimit:10;" d="M 486.955061 1379.395346 L 483.115032 1252.752754 L 566.459336 1383.940686 " transform="matrix(0.09969,0,0,-0.09969,0.1117,198.761922)"/>
<path style=" stroke:none;fill-rule:nonzero;fill:rgb(98.046875%,71.09375%,44.189453%);fill-opacity:1;" d="M 19.148438 82.75 L 48.273438 73.875 L 41.191406 94.121094 "/>
<path style="fill:none;stroke-width:5;stroke-linecap:round;stroke-linejoin:round;stroke:rgb(0%,0%,0%);stroke-opacity:1;stroke-miterlimit:10;" d="M 190.959349 1163.726773 L 483.115032 1252.752754 L 412.074493 1049.662235 Z M 190.959349 1163.726773 " transform="matrix(0.09969,0,0,-0.09969,0.1117,198.761922)"/>
<path style=" stroke:none;fill-rule:nonzero;fill:rgb(81.639099%,33.300781%,0%);fill-opacity:1;" d="M 48.273438 73.875 L 19.148438 82.75 L 56.582031 60.796875 "/>
<path style="fill:none;stroke-width:5;stroke-linecap:round;stroke-linejoin:round;stroke:rgb(0%,0%,0%);stroke-opacity:1;stroke-miterlimit:10;" d="M 483.115032 1252.752754 L 190.959349 1163.726773 L 566.459336 1383.940686 Z M 483.115032 1252.752754 " transform="matrix(0.09969,0,0,-0.09969,0.1117,198.761922)"/>
<path style=" stroke:none;fill-rule:nonzero;fill:rgb(40.795898%,4.899597%,7.102966%);fill-opacity:1;" d="M 123.316406 22.046875 L 127.542969 43.960938 L 106.777344 39.816406 "/>
<path style="fill:none;stroke-width:5;stroke-linecap:round;stroke-linejoin:round;stroke:rgb(0%,0%,0%);stroke-opacity:1;stroke-miterlimit:10;" d="M 1235.878285 1772.645672 L 1278.275341 1552.823598 L 1069.973355 1594.397791 Z M 1235.878285 1772.645672 " transform="matrix(0.09969,0,0,-0.09969,0.1117,198.761922)"/>
<path style=" stroke:none;fill-rule:nonzero;fill:rgb(18.505859%,18.505859%,62.304688%);fill-opacity:1;" d="M 44.917969 183.996094 L 54.8125 122.847656 L 47.011719 115.261719 "/>
<path style="fill:none;stroke-width:5;stroke-linecap:round;stroke-linejoin:round;stroke:rgb(0%,0%,0%);stroke-opacity:1;stroke-miterlimit:10;" d="M 449.456001 148.117447 L 548.708998 761.503318 L 470.458609 837.598588 Z M 449.456001 148.117447 " transform="matrix(0.09969,0,0,-0.09969,0.1117,198.761922)"/>
<path style=" stroke:none;fill-rule:nonzero;fill:rgb(37.988281%,37.988281%,37.988281%);fill-opacity:1;" d="M 19.148438 82.75 L 47.011719 115.261719 L 54.8125 122.847656 "/>
<path style="fill:none;stroke-width:5;stroke-linecap:round;stroke-linejoin:round;stroke:rgb(0%,0%,0%);stroke-opacity:1;stroke-miterlimit:10;" d="M 190.959349 1163.726773 L 470.458609 837.598588 L 548.708998 761.503318 Z M 190.959349 1163.726773 " transform="matrix(0.09969,0,0,-0.09969,0.1117,198.761922)"/>
<path style=" stroke:none;fill-rule:nonzero;fill:rgb(89.256287%,88.476562%,45.800781%);fill-opacity:1;" d="M 123.316406 22.046875 L 143.941406 71.328125 L 142.886719 59.75 "/>
<path style="fill:none;stroke-width:5;stroke-linecap:round;stroke-linejoin:round;stroke:rgb(0%,0%,0%);stroke-opacity:1;stroke-miterlimit:10;" d="M 1235.878285 1772.645672 L 1442.769648 1278.300702 L 1432.189976 1394.44199 Z M 1235.878285 1772.645672 " transform="matrix(0.09969,0,0,-0.09969,0.1117,198.761922)"/>
<path style=" stroke:none;fill-rule:nonzero;fill:rgb(74.609375%,87.109375%,93.75%);fill-opacity:1;" d="M 143.941406 71.328125 L 203.324219 93.117188 L 142.886719 59.75 "/>
<path style="fill:none;stroke-width:5;stroke-linecap:round;stroke-linejoin:round;stroke:rgb(0%,0%,0%);stroke-opacity:1;stroke-miterlimit:10;" d="M 1442.769648 1278.300702 L 2038.444365 1059.732516 L 1432.189976 1394.44199 Z M 1442.769648 1278.300702 " transform="matrix(0.09969,0,0,-0.09969,0.1117,198.761922)"/>
<path style=" stroke:none;fill-rule:nonzero;fill:rgb(5.799866%,53.90625%,89.0625%);fill-opacity:1;" d="M 19.148438 82.75 L 75.140625 55.316406 L 56.582031 60.796875 "/>
<path style="fill:none;stroke-width:5;stroke-linecap:round;stroke-linejoin:round;stroke:rgb(0%,0%,0%);stroke-opacity:1;stroke-miterlimit:10;" d="M 190.959349 1163.726773 L 752.622379 1438.915796 L 566.459336 1383.940686 Z M 190.959349 1163.726773 " transform="matrix(0.09969,0,0,-0.09969,0.1117,198.761922)"/>
<path style=" stroke:none;fill-rule:nonzero;fill:rgb(55.076599%,44.604492%,68.75%);fill-opacity:1;" d="M 54.8125 122.847656 L 44.917969 183.996094 L 73.460938 125.027344 "/>
<path style="fill:none;stroke-width:5;stroke-linecap:round;stroke-linejoin:round;stroke:rgb(0%,0%,0%);stroke-opacity:1;stroke-miterlimit:10;" d="M 548.708998 761.503318 L 449.456001 148.117447 L 735.773272 739.638662 Z M 548.708998 761.503318 " transform="matrix(0.09969,0,0,-0.09969,0.1117,198.761922)"/>
<path style=" stroke:none;fill-rule:nonzero;fill:rgb(68.359375%,50.584412%,63.867188%);fill-opacity:1;" d="M 73.460938 125.027344 L 44.917969 183.996094 L 87.902344 142.460938 "/>
<path style="fill:none;stroke-width:5;stroke-linecap:round;stroke-linejoin:round;stroke:rgb(0%,0%,0%);stroke-opacity:1;stroke-miterlimit:10;" d="M 735.773272 739.638662 L 449.456001 148.117447 L 880.63641 564.760603 Z M 735.773272 739.638662 " transform="matrix(0.09969,0,0,-0.09969,0.1117,198.761922)"/>
<path style=" stroke:none;fill-rule:nonzero;fill:rgb(76.756287%,48.509216%,50.78125%);fill-opacity:1;" d="M 87.902344 142.460938 L 44.917969 183.996094 L 104.964844 149.546875 "/>
<path style="fill:none;stroke-width:5;stroke-linecap:round;stroke-linejoin:round;stroke:rgb(0%,0%,0%);stroke-opacity:1;stroke-miterlimit:10;" d="M 880.63641 564.760603 L 449.456001 148.117447 L 1051.791993 493.680881 Z M 880.63641 564.760603 " transform="matrix(0.09969,0,0,-0.09969,0.1117,198.761922)"/>
<path style=" stroke:none;fill-rule:nonzero;fill:rgb(42.30957%,17.893982%,17.893982%);fill-opacity:1;" d="M 121.796875 142.875 L 104.964844 149.546875 L 126.398438 143.980469 "/>
<path style="fill:none;stroke-width:5;stroke-linecap:round;stroke-linejoin:round;stroke:rgb(0%,0%,0%);stroke-opacity:1;stroke-miterlimit:10;" d="M 1220.635721 560.607102 L 1051.791993 493.680881 L 1266.794438 549.518038 Z M 1220.635721 560.607102 " transform="matrix(0.09969,0,0,-0.09969,0.1117,198.761922)"/>
<path style=" stroke:none;fill-rule:nonzero;fill:rgb(32.592773%,19.604492%,19.604492%);fill-opacity:1;" d="M 121.796875 142.875 L 87.902344 142.460938 L 104.964844 149.546875 "/>
<path style="fill:none;stroke-width:5;stroke-linecap:round;stroke-linejoin:round;stroke:rgb(0%,0%,0%);stroke-opacity:1;stroke-miterlimit:10;" d="M 1220.635721 560.607102 L 880.63641 564.760603 L 1051.791993 493.680881 Z M 1220.635721 560.607102 " transform="matrix(0.09969,0,0,-0.09969,0.1117,198.761922)"/>
<path style=" stroke:none;fill-rule:nonzero;fill:rgb(76.756287%,48.509216%,50.78125%);fill-opacity:1;" d="M 142.359375 128.09375 L 203.324219 93.117188 L 143.652344 110.40625 "/>
<path style="fill:none;stroke-width:5;stroke-linecap:round;stroke-linejoin:round;stroke:rgb(0%,0%,0%);stroke-opacity:1;stroke-miterlimit:10;" d="M 1426.90014 708.879246 L 2038.444365 1059.732516 L 1439.870035 886.304263 Z M 1426.90014 708.879246 " transform="matrix(0.09969,0,0,-0.09969,0.1117,198.761922)"/>
<path style=" stroke:none;fill-rule:nonzero;fill:rgb(97.068787%,67.576599%,27.392578%);fill-opacity:1;" d="M 121.796875 142.875 L 142.359375 128.09375 L 143.652344 110.40625 "/>
<path style="fill:none;stroke-width:5;stroke-linecap:round;stroke-linejoin:round;stroke:rgb(0%,0%,0%);stroke-opacity:1;stroke-miterlimit:10;" d="M 1220.635721 560.607102 L 1426.90014 708.879246 L 1439.870035 886.304263 Z M 1220.635721 560.607102 " transform="matrix(0.09969,0,0,-0.09969,0.1117,198.761922)"/>
<path style=" stroke:none;fill-rule:nonzero;fill:rgb(62.5%,11.108398%,0%);fill-opacity:1;" d="M 121.796875 142.875 L 126.398438 143.980469 L 142.359375 128.09375 "/>
<path style="fill:none;stroke-width:5;stroke-linecap:round;stroke-linejoin:round;stroke:rgb(0%,0%,0%);stroke-opacity:1;stroke-miterlimit:10;" d="M 1220.635721 560.607102 L 1266.794438 549.518038 L 1426.90014 708.879246 Z M 1220.635721 560.607102 " transform="matrix(0.09969,0,0,-0.09969,0.1117,198.761922)"/>
<path style=" stroke:none;fill-rule:nonzero;fill:rgb(43.797302%,8.299255%,26.489258%);fill-opacity:1;" d="M 19.148438 82.75 L 54.8125 122.847656 L 73.460938 125.027344 "/>
<path style="fill:none;stroke-width:5;stroke-linecap:round;stroke-linejoin:round;stroke:rgb(0%,0%,0%);stroke-opacity:1;stroke-miterlimit:10;" d="M 190.959349 1163.726773 L 548.708998 761.503318 L 735.773272 739.638662 Z M 190.959349 1163.726773 " transform="matrix(0.09969,0,0,-0.09969,0.1117,198.761922)"/>
<path style=" stroke:none;fill-rule:nonzero;fill:rgb(33.68988%,39.501953%,77.34375%);fill-opacity:1;" d="M 123.316406 22.046875 L 75.140625 55.316406 L 81.113281 67.4375 "/>
<path style="fill:none;stroke-width:5;stroke-linecap:round;stroke-linejoin:round;stroke:rgb(0%,0%,0%);stroke-opacity:1;stroke-miterlimit:10;" d="M 1235.878285 1772.645672 L 752.622379 1438.915796 L 812.53467 1317.327937 Z M 1235.878285 1772.645672 " transform="matrix(0.09969,0,0,-0.09969,0.1117,198.761922)"/>
<path style=" stroke:none;fill-rule:nonzero;fill:rgb(64.256287%,76.5625%,93.75%);fill-opacity:1;" d="M 19.148438 82.75 L 81.113281 67.4375 L 75.140625 55.316406 "/>
<path style="fill:none;stroke-width:5;stroke-linecap:round;stroke-linejoin:round;stroke:rgb(0%,0%,0%);stroke-opacity:1;stroke-miterlimit:10;" d="M 190.959349 1163.726773 L 812.53467 1317.327937 L 752.622379 1438.915796 Z M 190.959349 1163.726773 " transform="matrix(0.09969,0,0,-0.09969,0.1117,198.761922)"/>
<path style=" stroke:none;fill-rule:nonzero;fill:rgb(75.193787%,59.375%,67.96875%);fill-opacity:1;" d="M 203.324219 93.117188 L 135.390625 89.292969 L 143.652344 110.40625 "/>
<path style="fill:none;stroke-width:5;stroke-linecap:round;stroke-linejoin:round;stroke:rgb(0%,0%,0%);stroke-opacity:1;stroke-miterlimit:10;" d="M 2038.444365 1059.732516 L 1356.995937 1098.093623 L 1439.870035 886.304263 Z M 2038.444365 1059.732516 " transform="matrix(0.09969,0,0,-0.09969,0.1117,198.761922)"/>
<path style=" stroke:none;fill-rule:nonzero;fill:rgb(75.193787%,69.921875%,80.271912%);fill-opacity:1;" d="M 203.324219 93.117188 L 143.941406 71.328125 L 135.390625 89.292969 "/>
<path style="fill:none;stroke-width:5;stroke-linecap:round;stroke-linejoin:round;stroke:rgb(0%,0%,0%);stroke-opacity:1;stroke-miterlimit:10;" d="M 2038.444365 1059.732516 L 1442.769648 1278.300702 L 1356.995937 1098.093623 Z M 2038.444365 1059.732516 " transform="matrix(0.09969,0,0,-0.09969,0.1117,198.761922)"/>
<path style=" stroke:none;fill-rule:nonzero;fill:rgb(94.921875%,74.804688%,59.568787%);fill-opacity:1;" d="M 143.941406 71.328125 L 123.316406 22.046875 L 135.390625 89.292969 "/>
<path style="fill:none;stroke-width:5;stroke-linecap:round;stroke-linejoin:round;stroke:rgb(0%,0%,0%);stroke-opacity:1;stroke-miterlimit:10;" d="M 1442.769648 1278.300702 L 1235.878285 1772.645672 L 1356.995937 1098.093623 Z M 1442.769648 1278.300702 " transform="matrix(0.09969,0,0,-0.09969,0.1117,198.761922)"/>
<path style=" stroke:none;fill-rule:nonzero;fill:rgb(26.609802%,2.301025%,28.196716%);fill-opacity:1;" d="M 121.796875 142.875 L 73.460938 125.027344 L 87.902344 142.460938 "/>
<path style="fill:none;stroke-width:5;stroke-linecap:round;stroke-linejoin:round;stroke:rgb(0%,0%,0%);stroke-opacity:1;stroke-miterlimit:10;" d="M 1220.635721 560.607102 L 735.773272 739.638662 L 880.63641 564.760603 Z M 1220.635721 560.607102 " transform="matrix(0.09969,0,0,-0.09969,0.1117,198.761922)"/>
<path style="fill-rule:nonzero;fill:rgb(95.506287%,86.131287%,70.506287%);fill-opacity:1;stroke-width:5;stroke-linecap:round;stroke-linejoin:round;stroke:rgb(0%,0%,0%);stroke-opacity:1;stroke-miterlimit:10;" d="M 1365.146203 775.296075 L 1439.870035 886.304263 L 1356.995937 1098.093623 " transform="matrix(0.09969,0,0,-0.09969,0.1117,198.761922)"/>
<path style=" stroke:none;fill-rule:nonzero;fill:rgb(39.697266%,28.196716%,60.351562%);fill-opacity:1;" d="M 121.796875 142.875 L 80.214844 107.238281 L 73.460938 125.027344 "/>
<path style="fill:none;stroke-width:5;stroke-linecap:round;stroke-linejoin:round;stroke:rgb(0%,0%,0%);stroke-opacity:1;stroke-miterlimit:10;" d="M 1220.635721 560.607102 L 803.522357 918.082463 L 735.773272 739.638662 Z M 1220.635721 560.607102 " transform="matrix(0.09969,0,0,-0.09969,0.1117,198.761922)"/>
<path style=" stroke:none;fill-rule:nonzero;fill:rgb(68.359375%,43.089294%,53.514099%);fill-opacity:1;" d="M 19.148438 82.75 L 73.460938 125.027344 L 80.214844 107.238281 "/>
<path style="fill:none;stroke-width:5;stroke-linecap:round;stroke-linejoin:round;stroke:rgb(0%,0%,0%);stroke-opacity:1;stroke-miterlimit:10;" d="M 190.959349 1163.726773 L 735.773272 739.638662 L 803.522357 918.082463 Z M 190.959349 1163.726773 " transform="matrix(0.09969,0,0,-0.09969,0.1117,198.761922)"/>
<path style=" stroke:none;fill-rule:nonzero;fill:rgb(81.25%,80.46875%,84.375%);fill-opacity:1;" d="M 121.796875 142.875 L 135.390625 89.292969 L 115.417969 86.890625 "/>
<path style="fill:none;stroke-width:5;stroke-linecap:round;stroke-linejoin:round;stroke:rgb(0%,0%,0%);stroke-opacity:1;stroke-miterlimit:10;" d="M 1220.635721 560.607102 L 1356.995937 1098.093623 L 1156.648297 1122.191764 Z M 1220.635721 560.607102 " transform="matrix(0.09969,0,0,-0.09969,0.1117,198.761922)"/>
<path style="fill-rule:nonzero;fill:rgb(95.506287%,86.131287%,70.506287%);fill-opacity:1;stroke-width:5;stroke-linecap:round;stroke-linejoin:round;stroke:rgb(0%,0%,0%);stroke-opacity:1;stroke-miterlimit:10;" d="M 1356.995937 1098.093623 L 1220.635721 560.607102 L 1365.146203 775.296075 " transform="matrix(0.09969,0,0,-0.09969,0.1117,198.761922)"/>
<path style=" stroke:none;fill-rule:nonzero;fill:rgb(80.859375%,59.568787%,61.326599%);fill-opacity:1;" d="M 135.390625 89.292969 L 123.316406 22.046875 L 115.417969 86.890625 "/>
<path style="fill:none;stroke-width:5;stroke-linecap:round;stroke-linejoin:round;stroke:rgb(0%,0%,0%);stroke-opacity:1;stroke-miterlimit:10;" d="M 1356.995937 1098.093623 L 1235.878285 1772.645672 L 1156.648297 1122.191764 Z M 1356.995937 1098.093623 " transform="matrix(0.09969,0,0,-0.09969,0.1117,198.761922)"/>
<path style="fill-rule:nonzero;fill:rgb(55.076599%,44.604492%,68.75%);fill-opacity:1;stroke-width:5;stroke-linecap:round;stroke-linejoin:round;stroke:rgb(0%,0%,0%);stroke-opacity:1;stroke-miterlimit:10;" d="M 812.53467 1317.327937 L 921.19182 1122.622788 L 979.850223 1243.779624 " transform="matrix(0.09969,0,0,-0.09969,0.1117,198.761922)"/>
<path style="fill-rule:nonzero;fill:rgb(55.076599%,44.604492%,68.75%);fill-opacity:1;stroke-width:5;stroke-linecap:round;stroke-linejoin:round;stroke:rgb(0%,0%,0%);stroke-opacity:1;stroke-miterlimit:10;" d="M 979.850223 1243.779624 L 1235.878285 1772.645672 L 812.53467 1317.327937 " transform="matrix(0.09969,0,0,-0.09969,0.1117,198.761922)"/>
<path style=" stroke:none;fill-rule:nonzero;fill:rgb(75.193787%,69.921875%,80.271912%);fill-opacity:1;" d="M 19.148438 82.75 L 91.945312 86.847656 L 81.113281 67.4375 "/>
<path style="fill:none;stroke-width:5;stroke-linecap:round;stroke-linejoin:round;stroke:rgb(0%,0%,0%);stroke-opacity:1;stroke-miterlimit:10;" d="M 190.959349 1163.726773 L 921.19182 1122.622788 L 812.53467 1317.327937 Z M 190.959349 1163.726773 " transform="matrix(0.09969,0,0,-0.09969,0.1117,198.761922)"/>
<path style=" stroke:none;fill-rule:nonzero;fill:rgb(53.514099%,50.976562%,77.34375%);fill-opacity:1;" d="M 121.796875 142.875 L 91.945312 86.847656 L 80.214844 107.238281 "/>
<path style="fill:none;stroke-width:5;stroke-linecap:round;stroke-linejoin:round;stroke:rgb(0%,0%,0%);stroke-opacity:1;stroke-miterlimit:10;" d="M 1220.635721 560.607102 L 921.19182 1122.622788 L 803.522357 918.082463 Z M 1220.635721 560.607102 " transform="matrix(0.09969,0,0,-0.09969,0.1117,198.761922)"/>
<path style=" stroke:none;fill-rule:nonzero;fill:rgb(68.359375%,50.584412%,63.867188%);fill-opacity:1;" d="M 123.316406 22.046875 L 91.945312 86.847656 L 115.417969 86.890625 "/>
<path style="fill:none;stroke-width:5;stroke-linecap:round;stroke-linejoin:round;stroke:rgb(0%,0%,0%);stroke-opacity:1;stroke-miterlimit:10;" d="M 1235.878285 1772.645672 L 921.19182 1122.622788 L 1156.648297 1122.191764 Z M 1235.878285 1772.645672 " transform="matrix(0.09969,0,0,-0.09969,0.1117,198.761922)"/>
<path style=" stroke:none;fill-rule:nonzero;fill:rgb(75.193787%,59.375%,67.96875%);fill-opacity:1;" d="M 19.148438 82.75 L 80.214844 107.238281 L 91.945312 86.847656 "/>
<path style="fill:none;stroke-width:5;stroke-linecap:round;stroke-linejoin:round;stroke:rgb(0%,0%,0%);stroke-opacity:1;stroke-miterlimit:10;" d="M 190.959349 1163.726773 L 803.522357 918.082463 L 921.19182 1122.622788 Z M 190.959349 1163.726773 " transform="matrix(0.09969,0,0,-0.09969,0.1117,198.761922)"/>
<path style=" stroke:none;fill-rule:nonzero;fill:rgb(66.992188%,67.576599%,84.764099%);fill-opacity:1;" d="M 121.796875 142.875 L 115.417969 86.890625 L 91.945312 86.847656 "/>
<path style="fill:none;stroke-width:5;stroke-linecap:round;stroke-linejoin:round;stroke:rgb(0%,0%,0%);stroke-opacity:1;stroke-miterlimit:10;" d="M 1220.635721 560.607102 L 1156.648297 1122.191764 L 921.19182 1122.622788 Z M 1220.635721 560.607102 " transform="matrix(0.09969,0,0,-0.09969,0.1117,198.761922)"/>
</g>
</svg>
