<?xml version="1.0" encoding="UTF-8"?>
<svg xmlns="http://www.w3.org/2000/svg" xmlns:xlink="http://www.w3.org/1999/xlink" width="196.44pt" height="215.88pt" viewBox="0 0 196.44 215.88" version="1.2">
<g id="surface1">
<path style=" stroke:none;fill-rule:nonzero;fill:rgb(79.6875%,61.131287%,65.234375%);fill-opacity:1;" d="M 91.554688 95.550781 L 69.054688 120.929688 L 45.96875 114.402344 "/>
<path style="fill:none;stroke-width:5;stroke-linecap:round;stroke-linejoin:round;stroke:rgb(0%,0%,0%);stroke-opacity:1;stroke-miterlimit:10;" d="M 918.156864 1203.045372 L 692.515447 948.532822 L 460.997951 1013.992338 Z M 918.156864 1203.045372 " transform="matrix(0.0997157,0,0,-0.0997157,0,215.513336)"/>
<path style=" stroke:none;fill-rule:nonzero;fill:rgb(64.451599%,51.367188%,68.75%);fill-opacity:1;" d="M 91.554688 95.550781 L 113.214844 70.144531 L 145.5625 79.980469 "/>
<path style="fill:none;stroke-width:5;stroke-linecap:round;stroke-linejoin:round;stroke:rgb(0%,0%,0%);stroke-opacity:1;stroke-miterlimit:10;" d="M 918.156864 1203.045372 L 1135.375902 1457.832139 L 1459.774613 1359.192367 Z M 918.156864 1203.045372 " transform="matrix(0.0997157,0,0,-0.0997157,0,215.513336)"/>
<path style=" stroke:none;fill-rule:nonzero;fill:rgb(66.209412%,46.897888%,61.326599%);fill-opacity:1;" d="M 91.554688 95.550781 L 82.46875 64.289062 L 102.597656 49.035156 "/>
<path style="fill:none;stroke-width:5;stroke-linecap:round;stroke-linejoin:round;stroke:rgb(0%,0%,0%);stroke-opacity:1;stroke-miterlimit:10;" d="M 918.156864 1203.045372 L 827.038472 1516.553751 L 1028.901358 1669.527663 Z M 918.156864 1203.045372 " transform="matrix(0.0997157,0,0,-0.0997157,0,215.513336)"/>
<path style=" stroke:none;fill-rule:nonzero;fill:rgb(76.756287%,65.429688%,73.631287%);fill-opacity:1;" d="M 45.96875 114.402344 L 58.710938 91.738281 L 91.554688 95.550781 "/>
<path style="fill:none;stroke-width:5;stroke-linecap:round;stroke-linejoin:round;stroke:rgb(0%,0%,0%);stroke-opacity:1;stroke-miterlimit:10;" d="M 460.997951 1013.992338 L 588.783073 1241.279057 L 918.156864 1203.045372 Z M 460.997951 1013.992338 " transform="matrix(0.0997157,0,0,-0.0997157,0,215.513336)"/>
<path style=" stroke:none;fill-rule:nonzero;fill:rgb(76.756287%,65.429688%,73.631287%);fill-opacity:1;" d="M 91.554688 95.550781 L 104.191406 127.25 L 82.609375 151.992188 "/>
<path style="fill:none;stroke-width:5;stroke-linecap:round;stroke-linejoin:round;stroke:rgb(0%,0%,0%);stroke-opacity:1;stroke-miterlimit:10;" d="M 918.156864 1203.045372 L 1044.884292 885.149521 L 828.448731 637.02231 Z M 918.156864 1203.045372 " transform="matrix(0.0997157,0,0,-0.0997157,0,215.513336)"/>
<path style=" stroke:none;fill-rule:nonzero;fill:rgb(69.921875%,60.742188%,75.193787%);fill-opacity:1;" d="M 91.554688 95.550781 L 124.601562 103.90625 L 129.804688 129.511719 "/>
<path style="fill:none;stroke-width:5;stroke-linecap:round;stroke-linejoin:round;stroke:rgb(0%,0%,0%);stroke-opacity:1;stroke-miterlimit:10;" d="M 918.156864 1203.045372 L 1249.567696 1119.252492 L 1301.747273 862.467858 Z M 918.156864 1203.045372 " transform="matrix(0.0997157,0,0,-0.0997157,0,215.513336)"/>
<path style=" stroke:none;fill-rule:nonzero;fill:rgb(69.921875%,60.742188%,75.193787%);fill-opacity:1;" d="M 82.609375 151.992188 L 69.054688 120.929688 L 91.554688 95.550781 "/>
<path style="fill:none;stroke-width:5;stroke-linecap:round;stroke-linejoin:round;stroke:rgb(0%,0%,0%);stroke-opacity:1;stroke-miterlimit:10;" d="M 828.448731 637.02231 L 692.515447 948.532822 L 918.156864 1203.045372 Z M 828.448731 637.02231 " transform="matrix(0.0997157,0,0,-0.0997157,0,215.513336)"/>
<path style=" stroke:none;fill-rule:nonzero;fill:rgb(79.6875%,61.131287%,65.234375%);fill-opacity:1;" d="M 50.789062 62.007812 L 82.46875 64.289062 L 91.554688 95.550781 "/>
<path style="fill:none;stroke-width:5;stroke-linecap:round;stroke-linejoin:round;stroke:rgb(0%,0%,0%);stroke-opacity:1;stroke-miterlimit:10;" d="M 509.338491 1539.431284 L 827.038472 1516.553751 L 918.156864 1203.045372 Z M 509.338491 1539.431284 " transform="matrix(0.0997157,0,0,-0.0997157,0,215.513336)"/>
<path style=" stroke:none;fill-rule:nonzero;fill:rgb(64.451599%,51.367188%,68.75%);fill-opacity:1;" d="M 129.804688 129.511719 L 104.191406 127.25 L 91.554688 95.550781 "/>
<path style="fill:none;stroke-width:5;stroke-linecap:round;stroke-linejoin:round;stroke:rgb(0%,0%,0%);stroke-opacity:1;stroke-miterlimit:10;" d="M 1301.747273 862.467858 L 1044.884292 885.149521 L 918.156864 1203.045372 Z M 1301.747273 862.467858 " transform="matrix(0.0997157,0,0,-0.0997157,0,215.513336)"/>
<path style=" stroke:none;fill-rule:nonzero;fill:rgb(74.414062%,52.146912%,59.179688%);fill-opacity:1;" d="M 91.554688 95.550781 L 58.710938 91.738281 L 50.789062 62.007812 "/>
<path style="fill:none;stroke-width:5;stroke-linecap:round;stroke-linejoin:round;stroke:rgb(0%,0%,0%);stroke-opacity:1;stroke-miterlimit:10;" d="M 918.156864 1203.045372 L 588.783073 1241.279057 L 509.338491 1539.431284 Z M 918.156864 1203.045372 " transform="matrix(0.0997157,0,0,-0.0997157,0,215.513336)"/>
<path style=" stroke:none;fill-rule:nonzero;fill:rgb(74.414062%,52.146912%,59.179688%);fill-opacity:1;" d="M 102.597656 49.035156 L 113.214844 70.144531 L 91.554688 95.550781 "/>
<path style="fill:none;stroke-width:5;stroke-linecap:round;stroke-linejoin:round;stroke:rgb(0%,0%,0%);stroke-opacity:1;stroke-miterlimit:10;" d="M 1028.901358 1669.527663 L 1135.375902 1457.832139 L 918.156864 1203.045372 Z M 1028.901358 1669.527663 " transform="matrix(0.0997157,0,0,-0.0997157,0,215.513336)"/>
<path style=" stroke:none;fill-rule:nonzero;fill:rgb(66.209412%,46.897888%,61.326599%);fill-opacity:1;" d="M 145.5625 79.980469 L 124.601562 103.90625 L 91.554688 95.550781 "/>
<path style="fill:none;stroke-width:5;stroke-linecap:round;stroke-linejoin:round;stroke:rgb(0%,0%,0%);stroke-opacity:1;stroke-miterlimit:10;" d="M 1459.774613 1359.192367 L 1249.567696 1119.252492 L 918.156864 1203.045372 Z M 1459.774613 1359.192367 " transform="matrix(0.0997157,0,0,-0.0997157,0,215.513336)"/>
<path style=" stroke:none;fill-rule:nonzero;fill:rgb(64.84375%,63.476562%,82.226562%);fill-opacity:1;" d="M 82.609375 151.992188 L 104.191406 127.25 L 129.804688 129.511719 "/>
<path style="fill:none;stroke-width:5;stroke-linecap:round;stroke-linejoin:round;stroke:rgb(0%,0%,0%);stroke-opacity:1;stroke-miterlimit:10;" d="M 828.448731 637.02231 L 1044.884292 885.149521 L 1301.747273 862.467858 Z M 828.448731 637.02231 " transform="matrix(0.0997157,0,0,-0.0997157,0,215.513336)"/>
<path style=" stroke:none;fill-rule:nonzero;fill:rgb(53.709412%,45.092773%,70.506287%);fill-opacity:1;" d="M 129.804688 129.511719 L 124.601562 103.90625 L 145.5625 79.980469 "/>
<path style="fill:none;stroke-width:5;stroke-linecap:round;stroke-linejoin:round;stroke:rgb(0%,0%,0%);stroke-opacity:1;stroke-miterlimit:10;" d="M 1301.747273 862.467858 L 1249.567696 1119.252492 L 1459.774613 1359.192367 Z M 1301.747273 862.467858 " transform="matrix(0.0997157,0,0,-0.0997157,0,215.513336)"/>
<path style=" stroke:none;fill-rule:nonzero;fill:rgb(82.421875%,75.976562%,79.296875%);fill-opacity:1;" d="M 45.96875 114.402344 L 69.054688 120.929688 L 82.609375 151.992188 "/>
<path style="fill:none;stroke-width:5;stroke-linecap:round;stroke-linejoin:round;stroke:rgb(0%,0%,0%);stroke-opacity:1;stroke-miterlimit:10;" d="M 460.997951 1013.992338 L 692.515447 948.532822 L 828.448731 637.02231 Z M 460.997951 1013.992338 " transform="matrix(0.0997157,0,0,-0.0997157,0,215.513336)"/>
<path style=" stroke:none;fill-rule:nonzero;fill:rgb(56.834412%,31.591797%,49.388123%);fill-opacity:1;" d="M 145.5625 79.980469 L 113.214844 70.144531 L 102.597656 49.035156 "/>
<path style="fill:none;stroke-width:5;stroke-linecap:round;stroke-linejoin:round;stroke:rgb(0%,0%,0%);stroke-opacity:1;stroke-miterlimit:10;" d="M 1459.774613 1359.192367 L 1135.375902 1457.832139 L 1028.901358 1669.527663 Z M 1459.774613 1359.192367 " transform="matrix(0.0997157,0,0,-0.0997157,0,215.513336)"/>
<path style=" stroke:none;fill-rule:nonzero;fill:rgb(69.921875%,60.742188%,75.193787%);fill-opacity:1;" d="M 129.804688 129.511719 L 117.421875 153.078125 L 82.609375 151.992188 "/>
<path style="fill:none;stroke-width:5;stroke-linecap:round;stroke-linejoin:round;stroke:rgb(0%,0%,0%);stroke-opacity:1;stroke-miterlimit:10;" d="M 1301.747273 862.467858 L 1177.566146 626.131978 L 828.448731 637.02231 Z M 1301.747273 862.467858 " transform="matrix(0.0997157,0,0,-0.0997157,0,215.513336)"/>
<path style=" stroke:none;fill-rule:nonzero;fill:rgb(52.734375%,52.929688%,80.076599%);fill-opacity:1;" d="M 132.34375 174.726562 L 117.421875 153.078125 L 129.804688 129.511719 "/>
<path style="fill:none;stroke-width:5;stroke-linecap:round;stroke-linejoin:round;stroke:rgb(0%,0%,0%);stroke-opacity:1;stroke-miterlimit:10;" d="M 1327.21028 409.030462 L 1177.566146 626.131978 L 1301.747273 862.467858 Z M 1327.21028 409.030462 " transform="matrix(0.0997157,0,0,-0.0997157,0,215.513336)"/>
<path style=" stroke:none;fill-rule:nonzero;fill:rgb(52.734375%,52.929688%,80.076599%);fill-opacity:1;" d="M 129.804688 129.511719 L 151.238281 114.570312 L 173.082031 128.542969 "/>
<path style="fill:none;stroke-width:5;stroke-linecap:round;stroke-linejoin:round;stroke:rgb(0%,0%,0%);stroke-opacity:1;stroke-miterlimit:10;" d="M 1301.747273 862.467858 L 1516.694228 1012.307862 L 1735.754437 872.182975 Z M 1301.747273 862.467858 " transform="matrix(0.0997157,0,0,-0.0997157,0,215.513336)"/>
<path style=" stroke:none;fill-rule:nonzero;fill:rgb(64.451599%,51.367188%,68.75%);fill-opacity:1;" d="M 145.5625 79.980469 L 151.238281 114.570312 L 129.804688 129.511719 "/>
<path style="fill:none;stroke-width:5;stroke-linecap:round;stroke-linejoin:round;stroke:rgb(0%,0%,0%);stroke-opacity:1;stroke-miterlimit:10;" d="M 1459.774613 1359.192367 L 1516.694228 1012.307862 L 1301.747273 862.467858 Z M 1459.774613 1359.192367 " transform="matrix(0.0997157,0,0,-0.0997157,0,215.513336)"/>
<path style=" stroke:none;fill-rule:nonzero;fill:rgb(53.709412%,45.092773%,70.506287%);fill-opacity:1;" d="M 173.082031 128.542969 L 147.035156 145.5625 L 129.804688 129.511719 "/>
<path style="fill:none;stroke-width:5;stroke-linecap:round;stroke-linejoin:round;stroke:rgb(0%,0%,0%);stroke-opacity:1;stroke-miterlimit:10;" d="M 1735.754437 872.182975 L 1474.543157 701.502479 L 1301.747273 862.467858 Z M 1735.754437 872.182975 " transform="matrix(0.0997157,0,0,-0.0997157,0,215.513336)"/>
<path style=" stroke:none;fill-rule:nonzero;fill:rgb(64.84375%,63.476562%,82.226562%);fill-opacity:1;" d="M 129.804688 129.511719 L 147.035156 145.5625 L 132.34375 174.726562 "/>
<path style="fill:none;stroke-width:5;stroke-linecap:round;stroke-linejoin:round;stroke:rgb(0%,0%,0%);stroke-opacity:1;stroke-miterlimit:10;" d="M 1301.747273 862.467858 L 1474.543157 701.502479 L 1327.21028 409.030462 Z M 1301.747273 862.467858 " transform="matrix(0.0997157,0,0,-0.0997157,0,215.513336)"/>
<path style=" stroke:none;fill-rule:nonzero;fill:rgb(88.867188%,67.96875%,61.326599%);fill-opacity:1;" d="M 50.789062 62.007812 L 58.710938 91.738281 L 45.96875 114.402344 "/>
<path style="fill:none;stroke-width:5;stroke-linecap:round;stroke-linejoin:round;stroke:rgb(0%,0%,0%);stroke-opacity:1;stroke-miterlimit:10;" d="M 509.338491 1539.431284 L 588.783073 1241.279057 L 460.997951 1013.992338 Z M 509.338491 1539.431284 " transform="matrix(0.0997157,0,0,-0.0997157,0,215.513336)"/>
<path style=" stroke:none;fill-rule:nonzero;fill:rgb(74.021912%,41.40625%,42.797852%);fill-opacity:1;" d="M 102.597656 49.035156 L 82.46875 64.289062 L 50.789062 62.007812 "/>
<path style="fill:none;stroke-width:5;stroke-linecap:round;stroke-linejoin:round;stroke:rgb(0%,0%,0%);stroke-opacity:1;stroke-miterlimit:10;" d="M 1028.901358 1669.527663 L 827.038472 1516.553751 L 509.338491 1539.431284 Z M 1028.901358 1669.527663 " transform="matrix(0.0997157,0,0,-0.0997157,0,215.513336)"/>
<path style=" stroke:none;fill-rule:nonzero;fill:rgb(82.421875%,75.976562%,79.296875%);fill-opacity:1;" d="M 82.609375 151.992188 L 64.746094 172.535156 L 33.972656 157.789062 "/>
<path style="fill:none;stroke-width:5;stroke-linecap:round;stroke-linejoin:round;stroke:rgb(0%,0%,0%);stroke-opacity:1;stroke-miterlimit:10;" d="M 828.448731 637.02231 L 649.306682 431.006995 L 340.695036 578.888306 Z M 828.448731 637.02231 " transform="matrix(0.0997157,0,0,-0.0997157,0,215.513336)"/>
<path style=" stroke:none;fill-rule:nonzero;fill:rgb(67.1875%,72.851562%,89.256287%);fill-opacity:1;" d="M 80.71875 188.261719 L 64.746094 172.535156 L 82.609375 151.992188 "/>
<path style="fill:none;stroke-width:5;stroke-linecap:round;stroke-linejoin:round;stroke:rgb(0%,0%,0%);stroke-opacity:1;stroke-miterlimit:10;" d="M 809.488584 273.293047 L 649.306682 431.006995 L 828.448731 637.02231 Z M 809.488584 273.293047 " transform="matrix(0.0997157,0,0,-0.0997157,0,215.513336)"/>
<path style=" stroke:none;fill-rule:nonzero;fill:rgb(67.1875%,72.851562%,89.256287%);fill-opacity:1;" d="M 82.609375 151.992188 L 117.421875 153.078125 L 132.34375 174.726562 "/>
<path style="fill:none;stroke-width:5;stroke-linecap:round;stroke-linejoin:round;stroke:rgb(0%,0%,0%);stroke-opacity:1;stroke-miterlimit:10;" d="M 828.448731 637.02231 L 1177.566146 626.131978 L 1327.21028 409.030462 Z M 828.448731 637.02231 " transform="matrix(0.0997157,0,0,-0.0997157,0,215.513336)"/>
<path style=" stroke:none;fill-rule:nonzero;fill:rgb(78.318787%,81.443787%,87.693787%);fill-opacity:1;" d="M 33.972656 157.789062 L 50.253906 141.28125 L 82.609375 151.992188 "/>
<path style="fill:none;stroke-width:5;stroke-linecap:round;stroke-linejoin:round;stroke:rgb(0%,0%,0%);stroke-opacity:1;stroke-miterlimit:10;" d="M 340.695036 578.888306 L 503.971672 744.437027 L 828.448731 637.02231 Z M 340.695036 578.888306 " transform="matrix(0.0997157,0,0,-0.0997157,0,215.513336)"/>
<path style=" stroke:none;fill-rule:nonzero;fill:rgb(78.318787%,81.443787%,87.693787%);fill-opacity:1;" d="M 82.609375 151.992188 L 96.824219 178.003906 L 80.71875 188.261719 "/>
<path style="fill:none;stroke-width:5;stroke-linecap:round;stroke-linejoin:round;stroke:rgb(0%,0%,0%);stroke-opacity:1;stroke-miterlimit:10;" d="M 828.448731 637.02231 L 971.002397 376.163595 L 809.488584 273.293047 Z M 828.448731 637.02231 " transform="matrix(0.0997157,0,0,-0.0997157,0,215.513336)"/>
<path style=" stroke:none;fill-rule:nonzero;fill:rgb(76.756287%,65.429688%,73.631287%);fill-opacity:1;" d="M 82.609375 151.992188 L 50.253906 141.28125 L 45.96875 114.402344 "/>
<path style="fill:none;stroke-width:5;stroke-linecap:round;stroke-linejoin:round;stroke:rgb(0%,0%,0%);stroke-opacity:1;stroke-miterlimit:10;" d="M 828.448731 637.02231 L 503.971672 744.437027 L 460.997951 1013.992338 Z M 828.448731 637.02231 " transform="matrix(0.0997157,0,0,-0.0997157,0,215.513336)"/>
<path style=" stroke:none;fill-rule:nonzero;fill:rgb(64.84375%,63.476562%,82.226562%);fill-opacity:1;" d="M 132.34375 174.726562 L 96.824219 178.003906 L 82.609375 151.992188 "/>
<path style="fill:none;stroke-width:5;stroke-linecap:round;stroke-linejoin:round;stroke:rgb(0%,0%,0%);stroke-opacity:1;stroke-miterlimit:10;" d="M 1327.21028 409.030462 L 971.002397 376.163595 L 828.448731 637.02231 Z M 1327.21028 409.030462 " transform="matrix(0.0997157,0,0,-0.0997157,0,215.513336)"/>
<path style=" stroke:none;fill-rule:nonzero;fill:rgb(40.696716%,29.393005%,61.131287%);fill-opacity:1;" d="M 173.082031 128.542969 L 151.238281 114.570312 L 145.5625 79.980469 "/>
<path style="fill:none;stroke-width:5;stroke-linecap:round;stroke-linejoin:round;stroke:rgb(0%,0%,0%);stroke-opacity:1;stroke-miterlimit:10;" d="M 1735.754437 872.182975 L 1516.694228 1012.307862 L 1459.774613 1359.192367 Z M 1735.754437 872.182975 " transform="matrix(0.0997157,0,0,-0.0997157,0,215.513336)"/>
<path style=" stroke:none;fill-rule:nonzero;fill:rgb(40.696716%,29.393005%,61.131287%);fill-opacity:1;" d="M 145.5625 79.980469 L 162.09375 61.183594 L 178.773438 76.53125 "/>
<path style="fill:none;stroke-width:5;stroke-linecap:round;stroke-linejoin:round;stroke:rgb(0%,0%,0%);stroke-opacity:1;stroke-miterlimit:10;" d="M 1459.774613 1359.192367 L 1625.558377 1547.696968 L 1792.830747 1393.782883 Z M 1459.774613 1359.192367 " transform="matrix(0.0997157,0,0,-0.0997157,0,215.513336)"/>
<path style=" stroke:none;fill-rule:nonzero;fill:rgb(53.709412%,45.092773%,70.506287%);fill-opacity:1;" d="M 145.5625 79.980469 L 172.128906 92.273438 L 173.082031 128.542969 "/>
<path style="fill:none;stroke-width:5;stroke-linecap:round;stroke-linejoin:round;stroke:rgb(0%,0%,0%);stroke-opacity:1;stroke-miterlimit:10;" d="M 1459.774613 1359.192367 L 1726.196016 1235.912238 L 1735.754437 872.182975 Z M 1459.774613 1359.192367 " transform="matrix(0.0997157,0,0,-0.0997157,0,215.513336)"/>
<path style=" stroke:none;fill-rule:nonzero;fill:rgb(66.209412%,46.897888%,61.326599%);fill-opacity:1;" d="M 102.597656 49.035156 L 129.808594 49.777344 L 145.5625 79.980469 "/>
<path style="fill:none;stroke-width:5;stroke-linecap:round;stroke-linejoin:round;stroke:rgb(0%,0%,0%);stroke-opacity:1;stroke-miterlimit:10;" d="M 1028.901358 1669.527663 L 1301.786447 1662.08463 L 1459.774613 1359.192367 Z M 1028.901358 1669.527663 " transform="matrix(0.0997157,0,0,-0.0997157,0,215.513336)"/>
<path style=" stroke:none;fill-rule:nonzero;fill:rgb(56.834412%,31.591797%,49.388123%);fill-opacity:1;" d="M 142.082031 33.410156 L 162.09375 61.183594 L 145.5625 79.980469 "/>
<path style="fill:none;stroke-width:5;stroke-linecap:round;stroke-linejoin:round;stroke:rgb(0%,0%,0%);stroke-opacity:1;stroke-miterlimit:10;" d="M 1424.870706 1826.223092 L 1625.558377 1547.696968 L 1459.774613 1359.192367 Z M 1424.870706 1826.223092 " transform="matrix(0.0997157,0,0,-0.0997157,0,215.513336)"/>
<path style=" stroke:none;fill-rule:nonzero;fill:rgb(41.088867%,18.701172%,46.09375%);fill-opacity:1;" d="M 178.773438 76.53125 L 172.128906 92.273438 L 145.5625 79.980469 "/>
<path style="fill:none;stroke-width:5;stroke-linecap:round;stroke-linejoin:round;stroke:rgb(0%,0%,0%);stroke-opacity:1;stroke-miterlimit:10;" d="M 1792.830747 1393.782883 L 1726.196016 1235.912238 L 1459.774613 1359.192367 Z M 1792.830747 1393.782883 " transform="matrix(0.0997157,0,0,-0.0997157,0,215.513336)"/>
<path style=" stroke:none;fill-rule:nonzero;fill:rgb(41.088867%,18.701172%,46.09375%);fill-opacity:1;" d="M 145.5625 79.980469 L 129.808594 49.777344 L 142.082031 33.410156 "/>
<path style="fill:none;stroke-width:5;stroke-linecap:round;stroke-linejoin:round;stroke:rgb(0%,0%,0%);stroke-opacity:1;stroke-miterlimit:10;" d="M 1459.774613 1359.192367 L 1301.786447 1662.08463 L 1424.870706 1826.223092 Z M 1459.774613 1359.192367 " transform="matrix(0.0997157,0,0,-0.0997157,0,215.513336)"/>
<path style=" stroke:none;fill-rule:nonzero;fill:rgb(88.867188%,67.96875%,61.326599%);fill-opacity:1;" d="M 45.96875 114.402344 L 27.0625 124.21875 L 12.464844 99.339844 "/>
<path style="fill:none;stroke-width:5;stroke-linecap:round;stroke-linejoin:round;stroke:rgb(0%,0%,0%);stroke-opacity:1;stroke-miterlimit:10;" d="M 460.997951 1013.992338 L 271.396482 915.548435 L 125.003778 1165.046731 Z M 460.997951 1013.992338 " transform="matrix(0.0997157,0,0,-0.0997157,0,215.513336)"/>
<path style=" stroke:none;fill-rule:nonzero;fill:rgb(91.796875%,80.271912%,71.679688%);fill-opacity:1;" d="M 45.96875 114.402344 L 50.253906 141.28125 L 33.972656 157.789062 "/>
<path style="fill:none;stroke-width:5;stroke-linecap:round;stroke-linejoin:round;stroke:rgb(0%,0%,0%);stroke-opacity:1;stroke-miterlimit:10;" d="M 460.997951 1013.992338 L 503.971672 744.437027 L 340.695036 578.888306 Z M 460.997951 1013.992338 " transform="matrix(0.0997157,0,0,-0.0997157,0,215.513336)"/>
<path style=" stroke:none;fill-rule:nonzero;fill:rgb(82.421875%,75.976562%,79.296875%);fill-opacity:1;" d="M 33.972656 157.789062 L 27.0625 124.21875 L 45.96875 114.402344 "/>
<path style="fill:none;stroke-width:5;stroke-linecap:round;stroke-linejoin:round;stroke:rgb(0%,0%,0%);stroke-opacity:1;stroke-miterlimit:10;" d="M 340.695036 578.888306 L 271.396482 915.548435 L 460.997951 1013.992338 Z M 340.695036 578.888306 " transform="matrix(0.0997157,0,0,-0.0997157,0,215.513336)"/>
<path style=" stroke:none;fill-rule:nonzero;fill:rgb(91.796875%,80.271912%,71.679688%);fill-opacity:1;" d="M 12.464844 99.339844 L 32.722656 92.808594 L 45.96875 114.402344 "/>
<path style="fill:none;stroke-width:5;stroke-linecap:round;stroke-linejoin:round;stroke:rgb(0%,0%,0%);stroke-opacity:1;stroke-miterlimit:10;" d="M 125.003778 1165.046731 L 328.159401 1230.54542 L 460.997951 1013.992338 Z M 125.003778 1165.046731 " transform="matrix(0.0997157,0,0,-0.0997157,0,215.513336)"/>
<path style=" stroke:none;fill-rule:nonzero;fill:rgb(79.6875%,61.131287%,65.234375%);fill-opacity:1;" d="M 45.96875 114.402344 L 32.722656 92.808594 L 50.789062 62.007812 "/>
<path style="fill:none;stroke-width:5;stroke-linecap:round;stroke-linejoin:round;stroke:rgb(0%,0%,0%);stroke-opacity:1;stroke-miterlimit:10;" d="M 460.997951 1013.992338 L 328.159401 1230.54542 L 509.338491 1539.431284 Z M 460.997951 1013.992338 " transform="matrix(0.0997157,0,0,-0.0997157,0,215.513336)"/>
<path style=" stroke:none;fill-rule:nonzero;fill:rgb(74.414062%,52.146912%,59.179688%);fill-opacity:1;" d="M 50.789062 62.007812 L 78.464844 39.785156 L 102.597656 49.035156 "/>
<path style="fill:none;stroke-width:5;stroke-linecap:round;stroke-linejoin:round;stroke:rgb(0%,0%,0%);stroke-opacity:1;stroke-miterlimit:10;" d="M 509.338491 1539.431284 L 786.885269 1762.291357 L 1028.901358 1669.527663 Z M 509.338491 1539.431284 " transform="matrix(0.0997157,0,0,-0.0997157,0,215.513336)"/>
<path style=" stroke:none;fill-rule:nonzero;fill:rgb(74.021912%,41.40625%,42.797852%);fill-opacity:1;" d="M 79.84375 21.089844 L 108.410156 30.1875 L 102.597656 49.035156 "/>
<path style="fill:none;stroke-width:5;stroke-linecap:round;stroke-linejoin:round;stroke:rgb(0%,0%,0%);stroke-opacity:1;stroke-miterlimit:10;" d="M 800.71364 1949.777437 L 1087.192058 1858.541524 L 1028.901358 1669.527663 Z M 800.71364 1949.777437 " transform="matrix(0.0997157,0,0,-0.0997157,0,215.513336)"/>
<path style=" stroke:none;fill-rule:nonzero;fill:rgb(58.984375%,22.192383%,31.297302%);fill-opacity:1;" d="M 142.082031 33.410156 L 129.808594 49.777344 L 102.597656 49.035156 "/>
<path style="fill:none;stroke-width:5;stroke-linecap:round;stroke-linejoin:round;stroke:rgb(0%,0%,0%);stroke-opacity:1;stroke-miterlimit:10;" d="M 1424.870706 1826.223092 L 1301.786447 1662.08463 L 1028.901358 1669.527663 Z M 1424.870706 1826.223092 " transform="matrix(0.0997157,0,0,-0.0997157,0,215.513336)"/>
<path style=" stroke:none;fill-rule:nonzero;fill:rgb(56.834412%,31.591797%,49.388123%);fill-opacity:1;" d="M 102.597656 49.035156 L 108.410156 30.1875 L 142.082031 33.410156 "/>
<path style="fill:none;stroke-width:5;stroke-linecap:round;stroke-linejoin:round;stroke:rgb(0%,0%,0%);stroke-opacity:1;stroke-miterlimit:10;" d="M 1028.901358 1669.527663 L 1087.192058 1858.541524 L 1424.870706 1826.223092 Z M 1028.901358 1669.527663 " transform="matrix(0.0997157,0,0,-0.0997157,0,215.513336)"/>
<path style=" stroke:none;fill-rule:nonzero;fill:rgb(58.984375%,22.192383%,31.297302%);fill-opacity:1;" d="M 102.597656 49.035156 L 78.464844 39.785156 L 79.84375 21.089844 "/>
<path style="fill:none;stroke-width:5;stroke-linecap:round;stroke-linejoin:round;stroke:rgb(0%,0%,0%);stroke-opacity:1;stroke-miterlimit:10;" d="M 1028.901358 1669.527663 L 786.885269 1762.291357 L 800.71364 1949.777437 Z M 1028.901358 1669.527663 " transform="matrix(0.0997157,0,0,-0.0997157,0,215.513336)"/>
<path style=" stroke:none;fill-rule:nonzero;fill:rgb(33.006287%,45.896912%,83.984375%);fill-opacity:1;" d="M 132.34375 174.726562 L 147.035156 145.5625 L 173.082031 128.542969 "/>
<path style="fill:none;stroke-width:5;stroke-linecap:round;stroke-linejoin:round;stroke:rgb(0%,0%,0%);stroke-opacity:1;stroke-miterlimit:10;" d="M 1327.21028 409.030462 L 1474.543157 701.502479 L 1735.754437 872.182975 Z M 1327.21028 409.030462 " transform="matrix(0.0997157,0,0,-0.0997157,0,215.513336)"/>
<path style=" stroke:none;fill-rule:nonzero;fill:rgb(92.576599%,60.742188%,42.088318%);fill-opacity:1;" d="M 50.789062 62.007812 L 32.722656 92.808594 L 12.464844 99.339844 "/>
<path style="fill:none;stroke-width:5;stroke-linecap:round;stroke-linejoin:round;stroke:rgb(0%,0%,0%);stroke-opacity:1;stroke-miterlimit:10;" d="M 509.338491 1539.431284 L 328.159401 1230.54542 L 125.003778 1165.046731 Z M 509.338491 1539.431284 " transform="matrix(0.0997157,0,0,-0.0997157,0,215.513336)"/>
<path style=" stroke:none;fill-rule:nonzero;fill:rgb(88.867188%,67.96875%,61.326599%);fill-opacity:1;" d="M 12.464844 99.339844 L 25.859375 64.722656 L 50.789062 62.007812 "/>
<path style="fill:none;stroke-width:5;stroke-linecap:round;stroke-linejoin:round;stroke:rgb(0%,0%,0%);stroke-opacity:1;stroke-miterlimit:10;" d="M 125.003778 1165.046731 L 259.330934 1512.205453 L 509.338491 1539.431284 Z M 125.003778 1165.046731 " transform="matrix(0.0997157,0,0,-0.0997157,0,215.513336)"/>
<path style=" stroke:none;fill-rule:nonzero;fill:rgb(81.443787%,40.600586%,27.488708%);fill-opacity:1;" d="M 79.84375 21.089844 L 78.464844 39.785156 L 50.789062 62.007812 "/>
<path style="fill:none;stroke-width:5;stroke-linecap:round;stroke-linejoin:round;stroke:rgb(0%,0%,0%);stroke-opacity:1;stroke-miterlimit:10;" d="M 800.71364 1949.777437 L 786.885269 1762.291357 L 509.338491 1539.431284 Z M 800.71364 1949.777437 " transform="matrix(0.0997157,0,0,-0.0997157,0,215.513336)"/>
<path style=" stroke:none;fill-rule:nonzero;fill:rgb(92.576599%,60.742188%,42.088318%);fill-opacity:1;" d="M 30.59375 48.164062 L 47.898438 39.070312 L 50.789062 62.007812 "/>
<path style="fill:none;stroke-width:5;stroke-linecap:round;stroke-linejoin:round;stroke:rgb(0%,0%,0%);stroke-opacity:1;stroke-miterlimit:10;" d="M 306.809649 1678.263433 L 480.349836 1769.460173 L 509.338491 1539.431284 Z M 306.809649 1678.263433 " transform="matrix(0.0997157,0,0,-0.0997157,0,215.513336)"/>
<path style=" stroke:none;fill-rule:nonzero;fill:rgb(81.443787%,40.600586%,27.488708%);fill-opacity:1;" d="M 50.789062 62.007812 L 25.859375 64.722656 L 30.59375 48.164062 "/>
<path style="fill:none;stroke-width:5;stroke-linecap:round;stroke-linejoin:round;stroke:rgb(0%,0%,0%);stroke-opacity:1;stroke-miterlimit:10;" d="M 509.338491 1539.431284 L 259.330934 1512.205453 L 306.809649 1678.263433 Z M 509.338491 1539.431284 " transform="matrix(0.0997157,0,0,-0.0997157,0,215.513336)"/>
<path style=" stroke:none;fill-rule:nonzero;fill:rgb(74.021912%,41.40625%,42.797852%);fill-opacity:1;" d="M 50.789062 62.007812 L 47.898438 39.070312 L 79.84375 21.089844 "/>
<path style="fill:none;stroke-width:5;stroke-linecap:round;stroke-linejoin:round;stroke:rgb(0%,0%,0%);stroke-opacity:1;stroke-miterlimit:10;" d="M 509.338491 1539.431284 L 480.349836 1769.460173 L 800.71364 1949.777437 Z M 509.338491 1539.431284 " transform="matrix(0.0997157,0,0,-0.0997157,0,215.513336)"/>
<path style=" stroke:none;fill-rule:nonzero;fill:rgb(48.193359%,75.389099%,98.826599%);fill-opacity:1;" d="M 80.71875 188.261719 L 96.824219 178.003906 L 132.34375 174.726562 "/>
<path style="fill:none;stroke-width:5;stroke-linecap:round;stroke-linejoin:round;stroke:rgb(0%,0%,0%);stroke-opacity:1;stroke-miterlimit:10;" d="M 809.488584 273.293047 L 971.002397 376.163595 L 1327.21028 409.030462 Z M 809.488584 273.293047 " transform="matrix(0.0997157,0,0,-0.0997157,0,215.513336)"/>
<path style=" stroke:none;fill-rule:nonzero;fill:rgb(75.78125%,97.459412%,92.1875%);fill-opacity:1;" d="M 33.972656 157.789062 L 64.746094 172.535156 L 80.71875 188.261719 "/>
<path style="fill:none;stroke-width:5;stroke-linecap:round;stroke-linejoin:round;stroke:rgb(0%,0%,0%);stroke-opacity:1;stroke-miterlimit:10;" d="M 340.695036 578.888306 L 649.306682 431.006995 L 809.488584 273.293047 Z M 340.695036 578.888306 " transform="matrix(0.0997157,0,0,-0.0997157,0,215.513336)"/>
<path style=" stroke:none;fill-rule:nonzero;fill:rgb(97.459412%,92.381287%,63.867188%);fill-opacity:1;" d="M 12.464844 99.339844 L 27.0625 124.21875 L 33.972656 157.789062 "/>
<path style="fill:none;stroke-width:5;stroke-linecap:round;stroke-linejoin:round;stroke:rgb(0%,0%,0%);stroke-opacity:1;stroke-miterlimit:10;" d="M 125.003778 1165.046731 L 271.396482 915.548435 L 340.695036 578.888306 Z M 125.003778 1165.046731 " transform="matrix(0.0997157,0,0,-0.0997157,0,215.513336)"/>
<path style=" stroke:none;fill-rule:nonzero;fill:rgb(52.734375%,52.929688%,80.076599%);fill-opacity:1;" d="M 173.082031 128.542969 L 163.144531 161.871094 L 132.34375 174.726562 "/>
<path style="fill:none;stroke-width:5;stroke-linecap:round;stroke-linejoin:round;stroke:rgb(0%,0%,0%);stroke-opacity:1;stroke-miterlimit:10;" d="M 1735.754437 872.182975 L 1636.096144 537.951625 L 1327.21028 409.030462 Z M 1735.754437 872.182975 " transform="matrix(0.0997157,0,0,-0.0997157,0,215.513336)"/>
<path style=" stroke:none;fill-rule:nonzero;fill:rgb(33.006287%,45.896912%,83.984375%);fill-opacity:1;" d="M 167.179688 167.527344 L 145.4375 185.140625 L 132.34375 174.726562 "/>
<path style="fill:none;stroke-width:5;stroke-linecap:round;stroke-linejoin:round;stroke:rgb(0%,0%,0%);stroke-opacity:1;stroke-miterlimit:10;" d="M 1676.562739 481.22788 L 1458.52105 304.592958 L 1327.21028 409.030462 Z M 1676.562739 481.22788 " transform="matrix(0.0997157,0,0,-0.0997157,0,215.513336)"/>
<path style=" stroke:none;fill-rule:nonzero;fill:rgb(17.797852%,53.709412%,92.576599%);fill-opacity:1;" d="M 118.429688 198.550781 L 108.660156 193.722656 L 132.34375 174.726562 "/>
<path style="fill:none;stroke-width:5;stroke-linecap:round;stroke-linejoin:round;stroke:rgb(0%,0%,0%);stroke-opacity:1;stroke-miterlimit:10;" d="M 1187.673001 170.109107 L 1089.699185 218.527994 L 1327.21028 409.030462 Z M 1187.673001 170.109107 " transform="matrix(0.0997157,0,0,-0.0997157,0,215.513336)"/>
<path style=" stroke:none;fill-rule:nonzero;fill:rgb(17.797852%,53.709412%,92.576599%);fill-opacity:1;" d="M 132.34375 174.726562 L 163.144531 161.871094 L 167.179688 167.527344 "/>
<path style="fill:none;stroke-width:5;stroke-linecap:round;stroke-linejoin:round;stroke:rgb(0%,0%,0%);stroke-opacity:1;stroke-miterlimit:10;" d="M 1327.21028 409.030462 L 1636.096144 537.951625 L 1676.562739 481.22788 Z M 1327.21028 409.030462 " transform="matrix(0.0997157,0,0,-0.0997157,0,215.513336)"/>
<path style=" stroke:none;fill-rule:nonzero;fill:rgb(67.1875%,72.851562%,89.256287%);fill-opacity:1;" d="M 132.34375 174.726562 L 108.660156 193.722656 L 80.71875 188.261719 "/>
<path style="fill:none;stroke-width:5;stroke-linecap:round;stroke-linejoin:round;stroke:rgb(0%,0%,0%);stroke-opacity:1;stroke-miterlimit:10;" d="M 1327.21028 409.030462 L 1089.699185 218.527994 L 809.488584 273.293047 Z M 1327.21028 409.030462 " transform="matrix(0.0997157,0,0,-0.0997157,0,215.513336)"/>
<path style=" stroke:none;fill-rule:nonzero;fill:rgb(48.193359%,75.389099%,98.826599%);fill-opacity:1;" d="M 132.34375 174.726562 L 145.4375 185.140625 L 118.429688 198.550781 "/>
<path style="fill:none;stroke-width:5;stroke-linecap:round;stroke-linejoin:round;stroke:rgb(0%,0%,0%);stroke-opacity:1;stroke-miterlimit:10;" d="M 1327.21028 409.030462 L 1458.52105 304.592958 L 1187.673001 170.109107 Z M 1327.21028 409.030462 " transform="matrix(0.0997157,0,0,-0.0997157,0,215.513336)"/>
<path style=" stroke:none;fill-rule:nonzero;fill:rgb(0.59967%,0.59967%,49.804688%);fill-opacity:1;" d="M 173.082031 128.542969 L 172.128906 92.273438 L 178.773438 76.53125 "/>
<path style="fill:none;stroke-width:5;stroke-linecap:round;stroke-linejoin:round;stroke:rgb(0%,0%,0%);stroke-opacity:1;stroke-miterlimit:10;" d="M 1735.754437 872.182975 L 1726.196016 1235.912238 L 1792.830747 1393.782883 Z M 1735.754437 872.182975 " transform="matrix(0.0997157,0,0,-0.0997157,0,215.513336)"/>
<path style=" stroke:none;fill-rule:nonzero;fill:rgb(33.006287%,45.896912%,83.984375%);fill-opacity:1;" d="M 173.082031 128.542969 L 182.742188 142.976562 L 167.179688 167.527344 "/>
<path style="fill:none;stroke-width:5;stroke-linecap:round;stroke-linejoin:round;stroke:rgb(0%,0%,0%);stroke-opacity:1;stroke-miterlimit:10;" d="M 1735.754437 872.182975 L 1832.631386 727.435573 L 1676.562739 481.22788 Z M 1735.754437 872.182975 " transform="matrix(0.0997157,0,0,-0.0997157,0,215.513336)"/>
<path style=" stroke:none;fill-rule:nonzero;fill:rgb(0.59967%,0.59967%,49.804688%);fill-opacity:1;" d="M 190.839844 116.539062 L 182.742188 142.976562 L 173.082031 128.542969 "/>
<path style="fill:none;stroke-width:5;stroke-linecap:round;stroke-linejoin:round;stroke:rgb(0%,0%,0%);stroke-opacity:1;stroke-miterlimit:10;" d="M 1913.838791 992.564238 L 1832.631386 727.435573 L 1735.754437 872.182975 Z M 1913.838791 992.564238 " transform="matrix(0.0997157,0,0,-0.0997157,0,215.513336)"/>
<path style=" stroke:none;fill-rule:nonzero;fill:rgb(40.696716%,29.393005%,61.131287%);fill-opacity:1;" d="M 178.773438 76.53125 L 187.5 104.265625 L 173.082031 128.542969 "/>
<path style="fill:none;stroke-width:5;stroke-linecap:round;stroke-linejoin:round;stroke:rgb(0%,0%,0%);stroke-opacity:1;stroke-miterlimit:10;" d="M 1792.830747 1393.782883 L 1880.345144 1115.648497 L 1735.754437 872.182975 Z M 1792.830747 1393.782883 " transform="matrix(0.0997157,0,0,-0.0997157,0,215.513336)"/>
<path style=" stroke:none;fill-rule:nonzero;fill:rgb(0%,4.499817%,60.351562%);fill-opacity:1;" d="M 167.179688 167.527344 L 163.144531 161.871094 L 173.082031 128.542969 "/>
<path style="fill:none;stroke-width:5;stroke-linecap:round;stroke-linejoin:round;stroke:rgb(0%,0%,0%);stroke-opacity:1;stroke-miterlimit:10;" d="M 1676.562739 481.22788 L 1636.096144 537.951625 L 1735.754437 872.182975 Z M 1676.562739 481.22788 " transform="matrix(0.0997157,0,0,-0.0997157,0,215.513336)"/>
<path style=" stroke:none;fill-rule:nonzero;fill:rgb(0%,4.499817%,60.351562%);fill-opacity:1;" d="M 173.082031 128.542969 L 187.5 104.265625 L 190.839844 116.539062 "/>
<path style="fill:none;stroke-width:5;stroke-linecap:round;stroke-linejoin:round;stroke:rgb(0%,0%,0%);stroke-opacity:1;stroke-miterlimit:10;" d="M 1735.754437 872.182975 L 1880.345144 1115.648497 L 1913.838791 992.564238 Z M 1735.754437 872.182975 " transform="matrix(0.0997157,0,0,-0.0997157,0,215.513336)"/>
<path style=" stroke:none;fill-rule:nonzero;fill:rgb(39.697266%,13.792419%,13.792419%);fill-opacity:1;" d="M 142.082031 33.410156 L 108.410156 30.1875 L 79.84375 21.089844 "/>
<path style="fill:none;stroke-width:5;stroke-linecap:round;stroke-linejoin:round;stroke:rgb(0%,0%,0%);stroke-opacity:1;stroke-miterlimit:10;" d="M 1424.870706 1826.223092 L 1087.192058 1858.541524 L 800.71364 1949.777437 Z M 1424.870706 1826.223092 " transform="matrix(0.0997157,0,0,-0.0997157,0,215.513336)"/>
<path style=" stroke:none;fill-rule:nonzero;fill:rgb(21.18988%,21.18988%,21.18988%);fill-opacity:1;" d="M 178.773438 76.53125 L 162.09375 61.183594 L 142.082031 33.410156 "/>
<path style="fill:none;stroke-width:5;stroke-linecap:round;stroke-linejoin:round;stroke:rgb(0%,0%,0%);stroke-opacity:1;stroke-miterlimit:10;" d="M 1792.830747 1393.782883 L 1625.558377 1547.696968 L 1424.870706 1826.223092 Z M 1792.830747 1393.782883 " transform="matrix(0.0997157,0,0,-0.0997157,0,215.513336)"/>
<path style=" stroke:none;fill-rule:nonzero;fill:rgb(91.796875%,80.271912%,71.679688%);fill-opacity:1;" d="M 33.972656 157.789062 L 12.789062 135.492188 L 12.464844 99.339844 "/>
<path style="fill:none;stroke-width:5;stroke-linecap:round;stroke-linejoin:round;stroke:rgb(0%,0%,0%);stroke-opacity:1;stroke-miterlimit:10;" d="M 340.695036 578.888306 L 128.255208 802.492683 L 125.003778 1165.046731 Z M 340.695036 578.888306 " transform="matrix(0.0997157,0,0,-0.0997157,0,215.513336)"/>
<path style=" stroke:none;fill-rule:nonzero;fill:rgb(72.851562%,94.726562%,64.0625%);fill-opacity:1;" d="M 33.972656 157.789062 L 54.328125 184.59375 L 52.007812 187.425781 "/>
<path style="fill:none;stroke-width:5;stroke-linecap:round;stroke-linejoin:round;stroke:rgb(0%,0%,0%);stroke-opacity:1;stroke-miterlimit:10;" d="M 340.695036 578.888306 L 544.830005 310.077298 L 521.560734 281.676252 Z M 340.695036 578.888306 " transform="matrix(0.0997157,0,0,-0.0997157,0,215.513336)"/>
<path style=" stroke:none;fill-rule:nonzero;fill:rgb(75.78125%,97.459412%,92.1875%);fill-opacity:1;" d="M 52.007812 187.425781 L 25.519531 164.671875 L 33.972656 157.789062 "/>
<path style="fill:none;stroke-width:5;stroke-linecap:round;stroke-linejoin:round;stroke:rgb(0%,0%,0%);stroke-opacity:1;stroke-miterlimit:10;" d="M 521.560734 281.676252 L 255.922809 509.86397 L 340.695036 578.888306 Z M 521.560734 281.676252 " transform="matrix(0.0997157,0,0,-0.0997157,0,215.513336)"/>
<path style=" stroke:none;fill-rule:nonzero;fill:rgb(78.318787%,81.443787%,87.693787%);fill-opacity:1;" d="M 80.71875 188.261719 L 54.328125 184.59375 L 33.972656 157.789062 "/>
<path style="fill:none;stroke-width:5;stroke-linecap:round;stroke-linejoin:round;stroke:rgb(0%,0%,0%);stroke-opacity:1;stroke-miterlimit:10;" d="M 809.488584 273.293047 L 544.830005 310.077298 L 340.695036 578.888306 Z M 809.488584 273.293047 " transform="matrix(0.0997157,0,0,-0.0997157,0,215.513336)"/>
<path style=" stroke:none;fill-rule:nonzero;fill:rgb(72.851562%,94.726562%,64.0625%);fill-opacity:1;" d="M 13.5625 140.710938 L 12.789062 135.492188 L 33.972656 157.789062 "/>
<path style="fill:none;stroke-width:5;stroke-linecap:round;stroke-linejoin:round;stroke:rgb(0%,0%,0%);stroke-opacity:1;stroke-miterlimit:10;" d="M 136.011632 750.15641 L 128.255208 802.492683 L 340.695036 578.888306 Z M 136.011632 750.15641 " transform="matrix(0.0997157,0,0,-0.0997157,0,215.513336)"/>
<path style=" stroke:none;fill-rule:nonzero;fill:rgb(97.459412%,92.381287%,63.867188%);fill-opacity:1;" d="M 33.972656 157.789062 L 25.519531 164.671875 L 13.5625 140.710938 "/>
<path style="fill:none;stroke-width:5;stroke-linecap:round;stroke-linejoin:round;stroke:rgb(0%,0%,0%);stroke-opacity:1;stroke-miterlimit:10;" d="M 340.695036 578.888306 L 255.922809 509.86397 L 136.011632 750.15641 Z M 340.695036 578.888306 " transform="matrix(0.0997157,0,0,-0.0997157,0,215.513336)"/>
<path style=" stroke:none;fill-rule:nonzero;fill:rgb(75.78125%,97.459412%,92.1875%);fill-opacity:1;" d="M 80.71875 188.261719 L 82.152344 198.449219 L 52.007812 187.425781 "/>
<path style="fill:none;stroke-width:5;stroke-linecap:round;stroke-linejoin:round;stroke:rgb(0%,0%,0%);stroke-opacity:1;stroke-miterlimit:10;" d="M 809.488584 273.293047 L 823.86539 171.127627 L 521.560734 281.676252 Z M 809.488584 273.293047 " transform="matrix(0.0997157,0,0,-0.0997157,0,215.513336)"/>
<path style=" stroke:none;fill-rule:nonzero;fill:rgb(30.688477%,79.881287%,85.9375%);fill-opacity:1;" d="M 80.71875 188.261719 L 108.660156 193.722656 L 118.429688 198.550781 "/>
<path style="fill:none;stroke-width:5;stroke-linecap:round;stroke-linejoin:round;stroke:rgb(0%,0%,0%);stroke-opacity:1;stroke-miterlimit:10;" d="M 809.488584 273.293047 L 1089.699185 218.527994 L 1187.673001 170.109107 Z M 809.488584 273.293047 " transform="matrix(0.0997157,0,0,-0.0997157,0,215.513336)"/>
<path style=" stroke:none;fill-rule:nonzero;fill:rgb(48.193359%,75.389099%,98.826599%);fill-opacity:1;" d="M 118.429688 198.550781 L 82.152344 198.449219 L 80.71875 188.261719 "/>
<path style="fill:none;stroke-width:5;stroke-linecap:round;stroke-linejoin:round;stroke:rgb(0%,0%,0%);stroke-opacity:1;stroke-miterlimit:10;" d="M 1187.673001 170.109107 L 823.86539 171.127627 L 809.488584 273.293047 Z M 1187.673001 170.109107 " transform="matrix(0.0997157,0,0,-0.0997157,0,215.513336)"/>
<path style=" stroke:none;fill-rule:nonzero;fill:rgb(30.688477%,79.881287%,85.9375%);fill-opacity:1;" d="M 52.007812 187.425781 L 54.328125 184.59375 L 80.71875 188.261719 "/>
<path style="fill:none;stroke-width:5;stroke-linecap:round;stroke-linejoin:round;stroke:rgb(0%,0%,0%);stroke-opacity:1;stroke-miterlimit:10;" d="M 521.560734 281.676252 L 544.830005 310.077298 L 809.488584 273.293047 Z M 521.560734 281.676252 " transform="matrix(0.0997157,0,0,-0.0997157,0,215.513336)"/>
<path style=" stroke:none;fill-rule:nonzero;fill:rgb(78.709412%,44.309998%,0%);fill-opacity:1;" d="M 30.59375 48.164062 L 25.859375 64.722656 L 12.464844 99.339844 "/>
<path style="fill:none;stroke-width:5;stroke-linecap:round;stroke-linejoin:round;stroke:rgb(0%,0%,0%);stroke-opacity:1;stroke-miterlimit:10;" d="M 306.809649 1678.263433 L 259.330934 1512.205453 L 125.003778 1165.046731 Z M 306.809649 1678.263433 " transform="matrix(0.0997157,0,0,-0.0997157,0,215.513336)"/>
<path style=" stroke:none;fill-rule:nonzero;fill:rgb(48.388672%,9.106445%,9.106445%);fill-opacity:1;" d="M 79.84375 21.089844 L 47.898438 39.070312 L 30.59375 48.164062 "/>
<path style="fill:none;stroke-width:5;stroke-linecap:round;stroke-linejoin:round;stroke:rgb(0%,0%,0%);stroke-opacity:1;stroke-miterlimit:10;" d="M 800.71364 1949.777437 L 480.349836 1769.460173 L 306.809649 1678.263433 Z M 800.71364 1949.777437 " transform="matrix(0.0997157,0,0,-0.0997157,0,215.513336)"/>
<path style=" stroke:none;fill-rule:nonzero;fill:rgb(58.984375%,22.192383%,31.297302%);fill-opacity:1;" d="M 79.84375 21.089844 L 115.125 17.132812 L 142.082031 33.410156 "/>
<path style="fill:none;stroke-width:5;stroke-linecap:round;stroke-linejoin:round;stroke:rgb(0%,0%,0%);stroke-opacity:1;stroke-miterlimit:10;" d="M 800.71364 1949.777437 L 1154.531918 1989.460555 L 1424.870706 1826.223092 Z M 800.71364 1949.777437 " transform="matrix(0.0997157,0,0,-0.0997157,0,215.513336)"/>
<path style=" stroke:none;fill-rule:nonzero;fill:rgb(41.601562%,83.006287%,64.256287%);fill-opacity:1;" d="M 142.082031 33.410156 L 115.125 17.132812 L 118.234375 19.730469 "/>
<path style="fill:none;stroke-width:5;stroke-linecap:round;stroke-linejoin:round;stroke:rgb(0%,0%,0%);stroke-opacity:1;stroke-miterlimit:10;" d="M 1424.870706 1826.223092 L 1154.531918 1989.460555 L 1185.714308 1963.40994 Z M 1424.870706 1826.223092 " transform="matrix(0.0997157,0,0,-0.0997157,0,215.513336)"/>
<path style=" stroke:none;fill-rule:nonzero;fill:rgb(39.697266%,13.792419%,13.792419%);fill-opacity:1;" d="M 118.234375 19.730469 L 145.121094 27.03125 L 142.082031 33.410156 "/>
<path style="fill:none;stroke-width:5;stroke-linecap:round;stroke-linejoin:round;stroke:rgb(0%,0%,0%);stroke-opacity:1;stroke-miterlimit:10;" d="M 1185.714308 1963.40994 L 1455.347967 1890.194001 L 1424.870706 1826.223092 Z M 1185.714308 1963.40994 " transform="matrix(0.0997157,0,0,-0.0997157,0,215.513336)"/>
<path style=" stroke:none;fill-rule:nonzero;fill:rgb(41.088867%,18.701172%,46.09375%);fill-opacity:1;" d="M 142.082031 33.410156 L 170.644531 51.539062 L 178.773438 76.53125 "/>
<path style="fill:none;stroke-width:5;stroke-linecap:round;stroke-linejoin:round;stroke:rgb(0%,0%,0%);stroke-opacity:1;stroke-miterlimit:10;" d="M 1424.870706 1826.223092 L 1711.30995 1644.417221 L 1792.830747 1393.782883 Z M 1424.870706 1826.223092 " transform="matrix(0.0997157,0,0,-0.0997157,0,215.513336)"/>
<path style=" stroke:none;fill-rule:nonzero;fill:rgb(41.601562%,83.006287%,64.256287%);fill-opacity:1;" d="M 170.253906 52.164062 L 170.644531 51.539062 L 142.082031 33.410156 "/>
<path style="fill:none;stroke-width:5;stroke-linecap:round;stroke-linejoin:round;stroke:rgb(0%,0%,0%);stroke-opacity:1;stroke-miterlimit:10;" d="M 1707.392564 1638.149404 L 1711.30995 1644.417221 L 1424.870706 1826.223092 Z M 1707.392564 1638.149404 " transform="matrix(0.0997157,0,0,-0.0997157,0,215.513336)"/>
<path style=" stroke:none;fill-rule:nonzero;fill:rgb(21.18988%,21.18988%,21.18988%);fill-opacity:1;" d="M 142.082031 33.410156 L 145.121094 27.03125 L 170.253906 52.164062 "/>
<path style="fill:none;stroke-width:5;stroke-linecap:round;stroke-linejoin:round;stroke:rgb(0%,0%,0%);stroke-opacity:1;stroke-miterlimit:10;" d="M 1424.870706 1826.223092 L 1455.347967 1890.194001 L 1707.392564 1638.149404 Z M 1424.870706 1826.223092 " transform="matrix(0.0997157,0,0,-0.0997157,0,215.513336)"/>
<path style=" stroke:none;fill-rule:nonzero;fill:rgb(92.576599%,60.742188%,42.088318%);fill-opacity:1;" d="M 12.464844 99.339844 L 13.132812 71.714844 L 30.59375 48.164062 "/>
<path style="fill:none;stroke-width:5;stroke-linecap:round;stroke-linejoin:round;stroke:rgb(0%,0%,0%);stroke-opacity:1;stroke-miterlimit:10;" d="M 125.003778 1165.046731 L 131.702508 1442.084249 L 306.809649 1678.263433 Z M 125.003778 1165.046731 " transform="matrix(0.0997157,0,0,-0.0997157,0,215.513336)"/>
<path style=" stroke:none;fill-rule:nonzero;fill:rgb(26.292419%,26.292419%,32.298279%);fill-opacity:1;" d="M 12.464844 99.339844 L 12.789062 135.492188 L 13.5625 140.710938 "/>
<path style="fill:none;stroke-width:5;stroke-linecap:round;stroke-linejoin:round;stroke:rgb(0%,0%,0%);stroke-opacity:1;stroke-miterlimit:10;" d="M 125.003778 1165.046731 L 128.255208 802.492683 L 136.011632 750.15641 Z M 125.003778 1165.046731 " transform="matrix(0.0997157,0,0,-0.0997157,0,215.513336)"/>
<path style=" stroke:none;fill-rule:nonzero;fill:rgb(26.292419%,26.292419%,32.298279%);fill-opacity:1;" d="M 14.132812 83.921875 L 13.132812 71.714844 L 12.464844 99.339844 "/>
<path style="fill:none;stroke-width:5;stroke-linecap:round;stroke-linejoin:round;stroke:rgb(0%,0%,0%);stroke-opacity:1;stroke-miterlimit:10;" d="M 141.731015 1319.665945 L 131.702508 1442.084249 L 125.003778 1165.046731 Z M 141.731015 1319.665945 " transform="matrix(0.0997157,0,0,-0.0997157,0,215.513336)"/>
<path style=" stroke:none;fill-rule:nonzero;fill:rgb(78.709412%,44.309998%,0%);fill-opacity:1;" d="M 12.464844 99.339844 L 5.675781 111.191406 L 14.132812 83.921875 "/>
<path style="fill:none;stroke-width:5;stroke-linecap:round;stroke-linejoin:round;stroke:rgb(0%,0%,0%);stroke-opacity:1;stroke-miterlimit:10;" d="M 125.003778 1165.046731 L 56.919614 1046.193248 L 141.731015 1319.665945 Z M 125.003778 1165.046731 " transform="matrix(0.0997157,0,0,-0.0997157,0,215.513336)"/>
<path style=" stroke:none;fill-rule:nonzero;fill:rgb(97.459412%,92.381287%,63.867188%);fill-opacity:1;" d="M 13.5625 140.710938 L 5.675781 111.191406 L 12.464844 99.339844 "/>
<path style="fill:none;stroke-width:5;stroke-linecap:round;stroke-linejoin:round;stroke:rgb(0%,0%,0%);stroke-opacity:1;stroke-miterlimit:10;" d="M 136.011632 750.15641 L 56.919614 1046.193248 L 125.003778 1165.046731 Z M 136.011632 750.15641 " transform="matrix(0.0997157,0,0,-0.0997157,0,215.513336)"/>
<path style=" stroke:none;fill-rule:nonzero;fill:rgb(70.701599%,75.193787%,24.705505%);fill-opacity:1;" d="M 190.839844 116.539062 L 187.5 104.265625 L 178.773438 76.53125 "/>
<path style="fill:none;stroke-width:5;stroke-linecap:round;stroke-linejoin:round;stroke:rgb(0%,0%,0%);stroke-opacity:1;stroke-miterlimit:10;" d="M 1913.838791 992.564238 L 1880.345144 1115.648497 L 1792.830747 1393.782883 Z M 1913.838791 992.564238 " transform="matrix(0.0997157,0,0,-0.0997157,0,215.513336)"/>
<path style=" stroke:none;fill-rule:nonzero;fill:rgb(0.59967%,0.59967%,49.804688%);fill-opacity:1;" d="M 178.773438 76.53125 L 187.152344 78.964844 L 190.839844 116.539062 "/>
<path style="fill:none;stroke-width:5;stroke-linecap:round;stroke-linejoin:round;stroke:rgb(0%,0%,0%);stroke-opacity:1;stroke-miterlimit:10;" d="M 1792.830747 1393.782883 L 1876.85867 1369.37757 L 1913.838791 992.564238 Z M 1792.830747 1393.782883 " transform="matrix(0.0997157,0,0,-0.0997157,0,215.513336)"/>
<path style=" stroke:none;fill-rule:nonzero;fill:rgb(70.701599%,75.193787%,24.705505%);fill-opacity:1;" d="M 178.773438 76.53125 L 170.644531 51.539062 L 170.253906 52.164062 "/>
<path style="fill:none;stroke-width:5;stroke-linecap:round;stroke-linejoin:round;stroke:rgb(0%,0%,0%);stroke-opacity:1;stroke-miterlimit:10;" d="M 1792.830747 1393.782883 L 1711.30995 1644.417221 L 1707.392564 1638.149404 Z M 1792.830747 1393.782883 " transform="matrix(0.0997157,0,0,-0.0997157,0,215.513336)"/>
<path style=" stroke:none;fill-rule:nonzero;fill:rgb(21.18988%,21.18988%,21.18988%);fill-opacity:1;" d="M 170.253906 52.164062 L 187.152344 78.964844 L 178.773438 76.53125 "/>
<path style="fill:none;stroke-width:5;stroke-linecap:round;stroke-linejoin:round;stroke:rgb(0%,0%,0%);stroke-opacity:1;stroke-miterlimit:10;" d="M 1707.392564 1638.149404 L 1876.85867 1369.37757 L 1792.830747 1393.782883 Z M 1707.392564 1638.149404 " transform="matrix(0.0997157,0,0,-0.0997157,0,215.513336)"/>
<path style=" stroke:none;fill-rule:nonzero;fill:rgb(12.304688%,64.0625%,88.867188%);fill-opacity:1;" d="M 118.234375 19.730469 L 115.125 17.132812 L 79.84375 21.089844 "/>
<path style="fill:none;stroke-width:5;stroke-linecap:round;stroke-linejoin:round;stroke:rgb(0%,0%,0%);stroke-opacity:1;stroke-miterlimit:10;" d="M 1185.714308 1963.40994 L 1154.531918 1989.460555 L 800.71364 1949.777437 Z M 1185.714308 1963.40994 " transform="matrix(0.0997157,0,0,-0.0997157,0,215.513336)"/>
<path style=" stroke:none;fill-rule:nonzero;fill:rgb(39.697266%,13.792419%,13.792419%);fill-opacity:1;" d="M 79.84375 21.089844 L 87.976562 15.648438 L 118.234375 19.730469 "/>
<path style="fill:none;stroke-width:5;stroke-linecap:round;stroke-linejoin:round;stroke:rgb(0%,0%,0%);stroke-opacity:1;stroke-miterlimit:10;" d="M 800.71364 1949.777437 L 882.273611 2004.34662 L 1185.714308 1963.40994 Z M 800.71364 1949.777437 " transform="matrix(0.0997157,0,0,-0.0997157,0,215.513336)"/>
<path style=" stroke:none;fill-rule:nonzero;fill:rgb(81.443787%,40.600586%,27.488708%);fill-opacity:1;" d="M 30.59375 48.164062 L 50.613281 28.050781 L 79.84375 21.089844 "/>
<path style="fill:none;stroke-width:5;stroke-linecap:round;stroke-linejoin:round;stroke:rgb(0%,0%,0%);stroke-opacity:1;stroke-miterlimit:10;" d="M 306.809649 1678.263433 L 507.575667 1879.969624 L 800.71364 1949.777437 Z M 306.809649 1678.263433 " transform="matrix(0.0997157,0,0,-0.0997157,0,215.513336)"/>
<path style=" stroke:none;fill-rule:nonzero;fill:rgb(12.304688%,64.0625%,88.867188%);fill-opacity:1;" d="M 79.84375 21.089844 L 50.613281 28.050781 L 59.972656 30.601562 "/>
<path style="fill:none;stroke-width:5;stroke-linecap:round;stroke-linejoin:round;stroke:rgb(0%,0%,0%);stroke-opacity:1;stroke-miterlimit:10;" d="M 800.71364 1949.777437 L 507.575667 1879.969624 L 601.436229 1854.389095 Z M 800.71364 1949.777437 " transform="matrix(0.0997157,0,0,-0.0997157,0,215.513336)"/>
<path style=" stroke:none;fill-rule:nonzero;fill:rgb(48.388672%,9.106445%,9.106445%);fill-opacity:1;" d="M 59.972656 30.601562 L 87.976562 15.648438 L 79.84375 21.089844 "/>
<path style="fill:none;stroke-width:5;stroke-linecap:round;stroke-linejoin:round;stroke:rgb(0%,0%,0%);stroke-opacity:1;stroke-miterlimit:10;" d="M 601.436229 1854.389095 L 882.273611 2004.34662 L 800.71364 1949.777437 Z M 601.436229 1854.389095 " transform="matrix(0.0997157,0,0,-0.0997157,0,215.513336)"/>
<path style=" stroke:none;fill-rule:nonzero;fill:rgb(71.484375%,17.993164%,0%);fill-opacity:1;" d="M 118.429688 198.550781 L 145.4375 185.140625 L 167.179688 167.527344 "/>
<path style="fill:none;stroke-width:5;stroke-linecap:round;stroke-linejoin:round;stroke:rgb(0%,0%,0%);stroke-opacity:1;stroke-miterlimit:10;" d="M 1187.673001 170.109107 L 1458.52105 304.592958 L 1676.562739 481.22788 Z M 1187.673001 170.109107 " transform="matrix(0.0997157,0,0,-0.0997157,0,215.513336)"/>
<path style=" stroke:none;fill-rule:nonzero;fill:rgb(91.014099%,51.367188%,12.205505%);fill-opacity:1;" d="M 167.179688 167.527344 L 182.742188 142.976562 L 190.839844 116.539062 "/>
<path style="fill:none;stroke-width:5;stroke-linecap:round;stroke-linejoin:round;stroke:rgb(0%,0%,0%);stroke-opacity:1;stroke-miterlimit:10;" d="M 1676.562739 481.22788 L 1832.631386 727.435573 L 1913.838791 992.564238 Z M 1676.562739 481.22788 " transform="matrix(0.0997157,0,0,-0.0997157,0,215.513336)"/>
<path style=" stroke:none;fill-rule:nonzero;fill:rgb(0%,28.90625%,78.709412%);fill-opacity:1;" d="M 59.972656 30.601562 L 50.613281 28.050781 L 30.59375 48.164062 "/>
<path style="fill:none;stroke-width:5;stroke-linecap:round;stroke-linejoin:round;stroke:rgb(0%,0%,0%);stroke-opacity:1;stroke-miterlimit:10;" d="M 601.436229 1854.389095 L 507.575667 1879.969624 L 306.809649 1678.263433 Z M 601.436229 1854.389095 " transform="matrix(0.0997157,0,0,-0.0997157,0,215.513336)"/>
<path style=" stroke:none;fill-rule:nonzero;fill:rgb(48.388672%,9.106445%,9.106445%);fill-opacity:1;" d="M 30.59375 48.164062 L 28.445312 48.605469 L 59.972656 30.601562 "/>
<path style="fill:none;stroke-width:5;stroke-linecap:round;stroke-linejoin:round;stroke:rgb(0%,0%,0%);stroke-opacity:1;stroke-miterlimit:10;" d="M 306.809649 1678.263433 L 285.264028 1673.836788 L 601.436229 1854.389095 Z M 306.809649 1678.263433 " transform="matrix(0.0997157,0,0,-0.0997157,0,215.513336)"/>
<path style=" stroke:none;fill-rule:nonzero;fill:rgb(0%,28.90625%,78.709412%);fill-opacity:1;" d="M 30.59375 48.164062 L 13.132812 71.714844 L 14.132812 83.921875 "/>
<path style="fill:none;stroke-width:5;stroke-linecap:round;stroke-linejoin:round;stroke:rgb(0%,0%,0%);stroke-opacity:1;stroke-miterlimit:10;" d="M 306.809649 1678.263433 L 131.702508 1442.084249 L 141.731015 1319.665945 Z M 306.809649 1678.263433 " transform="matrix(0.0997157,0,0,-0.0997157,0,215.513336)"/>
<path style=" stroke:none;fill-rule:nonzero;fill:rgb(78.709412%,44.309998%,0%);fill-opacity:1;" d="M 14.132812 83.921875 L 28.445312 48.605469 L 30.59375 48.164062 "/>
<path style="fill:none;stroke-width:5;stroke-linecap:round;stroke-linejoin:round;stroke:rgb(0%,0%,0%);stroke-opacity:1;stroke-miterlimit:10;" d="M 141.731015 1319.665945 L 285.264028 1673.836788 L 306.809649 1678.263433 Z M 141.731015 1319.665945 " transform="matrix(0.0997157,0,0,-0.0997157,0,215.513336)"/>
<path style=" stroke:none;fill-rule:nonzero;fill:rgb(46.09375%,2.200317%,3.297424%);fill-opacity:1;" d="M 52.007812 187.425781 L 82.152344 198.449219 L 118.429688 198.550781 "/>
<path style="fill:none;stroke-width:5;stroke-linecap:round;stroke-linejoin:round;stroke:rgb(0%,0%,0%);stroke-opacity:1;stroke-miterlimit:10;" d="M 521.560734 281.676252 L 823.86539 171.127627 L 1187.673001 170.109107 Z M 521.560734 281.676252 " transform="matrix(0.0997157,0,0,-0.0997157,0,215.513336)"/>
<path style=" stroke:none;fill-rule:nonzero;fill:rgb(17.797852%,53.709412%,92.576599%);fill-opacity:1;" d="M 167.179688 167.527344 L 153.503906 181.738281 L 118.429688 198.550781 "/>
<path style="fill:none;stroke-width:5;stroke-linecap:round;stroke-linejoin:round;stroke:rgb(0%,0%,0%);stroke-opacity:1;stroke-miterlimit:10;" d="M 1676.562739 481.22788 L 1539.415065 338.713388 L 1187.673001 170.109107 Z M 1676.562739 481.22788 " transform="matrix(0.0997157,0,0,-0.0997157,0,215.513336)"/>
<path style=" stroke:none;fill-rule:nonzero;fill:rgb(0%,4.499817%,60.351562%);fill-opacity:1;" d="M 190.839844 116.539062 L 177.789062 154.308594 L 167.179688 167.527344 "/>
<path style="fill:none;stroke-width:5;stroke-linecap:round;stroke-linejoin:round;stroke:rgb(0%,0%,0%);stroke-opacity:1;stroke-miterlimit:10;" d="M 1913.838791 992.564238 L 1782.958935 613.792213 L 1676.562739 481.22788 Z M 1913.838791 992.564238 " transform="matrix(0.0997157,0,0,-0.0997157,0,215.513336)"/>
<path style=" stroke:none;fill-rule:nonzero;fill:rgb(91.014099%,51.367188%,12.205505%);fill-opacity:1;" d="M 155.769531 162.101562 L 153.503906 181.738281 L 167.179688 167.527344 "/>
<path style="fill:none;stroke-width:5;stroke-linecap:round;stroke-linejoin:round;stroke:rgb(0%,0%,0%);stroke-opacity:1;stroke-miterlimit:10;" d="M 1562.135902 535.640368 L 1539.415065 338.713388 L 1676.562739 481.22788 Z M 1562.135902 535.640368 " transform="matrix(0.0997157,0,0,-0.0997157,0,215.513336)"/>
<path style=" stroke:none;fill-rule:nonzero;fill:rgb(71.484375%,17.993164%,0%);fill-opacity:1;" d="M 167.179688 167.527344 L 177.789062 154.308594 L 155.769531 162.101562 "/>
<path style="fill:none;stroke-width:5;stroke-linecap:round;stroke-linejoin:round;stroke:rgb(0%,0%,0%);stroke-opacity:1;stroke-miterlimit:10;" d="M 1676.562739 481.22788 L 1782.958935 613.792213 L 1562.135902 535.640368 Z M 1676.562739 481.22788 " transform="matrix(0.0997157,0,0,-0.0997157,0,215.513336)"/>
<path style=" stroke:none;fill-rule:nonzero;fill:rgb(22.509766%,3.697205%,30.200195%);fill-opacity:1;" d="M 13.5625 140.710938 L 25.519531 164.671875 L 52.007812 187.425781 "/>
<path style="fill:none;stroke-width:5;stroke-linecap:round;stroke-linejoin:round;stroke:rgb(0%,0%,0%);stroke-opacity:1;stroke-miterlimit:10;" d="M 136.011632 750.15641 L 255.922809 509.86397 L 521.560734 281.676252 Z M 136.011632 750.15641 " transform="matrix(0.0997157,0,0,-0.0997157,0,215.513336)"/>
<path style=" stroke:none;fill-rule:nonzero;fill:rgb(97.65625%,87.693787%,66.992188%);fill-opacity:1;" d="M 190.839844 116.539062 L 187.152344 78.964844 L 170.253906 52.164062 "/>
<path style="fill:none;stroke-width:5;stroke-linecap:round;stroke-linejoin:round;stroke:rgb(0%,0%,0%);stroke-opacity:1;stroke-miterlimit:10;" d="M 1913.838791 992.564238 L 1876.85867 1369.37757 L 1707.392564 1638.149404 Z M 1913.838791 992.564238 " transform="matrix(0.0997157,0,0,-0.0997157,0,215.513336)"/>
<path style=" stroke:none;fill-rule:nonzero;fill:rgb(21.604919%,11.888123%,52.34375%);fill-opacity:1;" d="M 14.132812 83.921875 L 5.675781 111.191406 L 13.5625 140.710938 "/>
<path style="fill:none;stroke-width:5;stroke-linecap:round;stroke-linejoin:round;stroke:rgb(0%,0%,0%);stroke-opacity:1;stroke-miterlimit:10;" d="M 141.731015 1319.665945 L 56.919614 1046.193248 L 136.011632 750.15641 Z M 141.731015 1319.665945 " transform="matrix(0.0997157,0,0,-0.0997157,0,215.513336)"/>
<path style=" stroke:none;fill-rule:nonzero;fill:rgb(78.514099%,90.039062%,92.381287%);fill-opacity:1;" d="M 170.253906 52.164062 L 145.121094 27.03125 L 118.234375 19.730469 "/>
<path style="fill:none;stroke-width:5;stroke-linecap:round;stroke-linejoin:round;stroke:rgb(0%,0%,0%);stroke-opacity:1;stroke-miterlimit:10;" d="M 1707.392564 1638.149404 L 1455.347967 1890.194001 L 1185.714308 1963.40994 Z M 1707.392564 1638.149404 " transform="matrix(0.0997157,0,0,-0.0997157,0,215.513336)"/>
<path style=" stroke:none;fill-rule:nonzero;fill:rgb(46.09375%,2.200317%,3.297424%);fill-opacity:1;" d="M 118.429688 198.550781 L 122.316406 187.125 L 93.878906 178.9375 "/>
<path style="fill:none;stroke-width:5;stroke-linecap:round;stroke-linejoin:round;stroke:rgb(0%,0%,0%);stroke-opacity:1;stroke-miterlimit:10;" d="M 1187.673001 170.109107 L 1226.650989 284.692639 L 941.465309 366.801044 Z M 1187.673001 170.109107 " transform="matrix(0.0997157,0,0,-0.0997157,0,215.513336)"/>
<path style=" stroke:none;fill-rule:nonzero;fill:rgb(71.484375%,17.993164%,0%);fill-opacity:1;" d="M 155.769531 162.101562 L 122.316406 187.125 L 118.429688 198.550781 "/>
<path style="fill:none;stroke-width:5;stroke-linecap:round;stroke-linejoin:round;stroke:rgb(0%,0%,0%);stroke-opacity:1;stroke-miterlimit:10;" d="M 1562.135902 535.640368 L 1226.650989 284.692639 L 1187.673001 170.109107 Z M 1562.135902 535.640368 " transform="matrix(0.0997157,0,0,-0.0997157,0,215.513336)"/>
<path style=" stroke:none;fill-rule:nonzero;fill:rgb(30.688477%,79.881287%,85.9375%);fill-opacity:1;" d="M 118.429688 198.550781 L 87.636719 195.277344 L 52.007812 187.425781 "/>
<path style="fill:none;stroke-width:5;stroke-linecap:round;stroke-linejoin:round;stroke:rgb(0%,0%,0%);stroke-opacity:1;stroke-miterlimit:10;" d="M 1187.673001 170.109107 L 878.865485 202.936799 L 521.560734 281.676252 Z M 1187.673001 170.109107 " transform="matrix(0.0997157,0,0,-0.0997157,0,215.513336)"/>
<path style=" stroke:none;fill-rule:nonzero;fill:rgb(72.068787%,30.393982%,25.610352%);fill-opacity:1;" d="M 93.878906 178.9375 L 87.636719 195.277344 L 118.429688 198.550781 "/>
<path style="fill:none;stroke-width:5;stroke-linecap:round;stroke-linejoin:round;stroke:rgb(0%,0%,0%);stroke-opacity:1;stroke-miterlimit:10;" d="M 941.465309 366.801044 L 878.865485 202.936799 L 1187.673001 170.109107 Z M 941.465309 366.801044 " transform="matrix(0.0997157,0,0,-0.0997157,0,215.513336)"/>
<path style=" stroke:none;fill-rule:nonzero;fill:rgb(72.068787%,30.393982%,25.610352%);fill-opacity:1;" d="M 118.429688 198.550781 L 153.503906 181.738281 L 155.769531 162.101562 "/>
<path style="fill:none;stroke-width:5;stroke-linecap:round;stroke-linejoin:round;stroke:rgb(0%,0%,0%);stroke-opacity:1;stroke-miterlimit:10;" d="M 1187.673001 170.109107 L 1539.415065 338.713388 L 1562.135902 535.640368 Z M 1187.673001 170.109107 " transform="matrix(0.0997157,0,0,-0.0997157,0,215.513336)"/>
<path style=" stroke:none;fill-rule:nonzero;fill:rgb(72.851562%,94.726562%,64.0625%);fill-opacity:1;" d="M 52.007812 187.425781 L 27.128906 160.058594 L 13.5625 140.710938 "/>
<path style="fill:none;stroke-width:5;stroke-linecap:round;stroke-linejoin:round;stroke:rgb(0%,0%,0%);stroke-opacity:1;stroke-miterlimit:10;" d="M 521.560734 281.676252 L 272.062438 556.128295 L 136.011632 750.15641 Z M 521.560734 281.676252 " transform="matrix(0.0997157,0,0,-0.0997157,0,215.513336)"/>
<path style=" stroke:none;fill-rule:nonzero;fill:rgb(21.604919%,11.888123%,52.34375%);fill-opacity:1;" d="M 13.5625 140.710938 L 27.128906 160.058594 L 40.578125 141.921875 "/>
<path style="fill:none;stroke-width:5;stroke-linecap:round;stroke-linejoin:round;stroke:rgb(0%,0%,0%);stroke-opacity:1;stroke-miterlimit:10;" d="M 136.011632 750.15641 L 272.062438 556.128295 L 406.938028 738.012514 Z M 136.011632 750.15641 " transform="matrix(0.0997157,0,0,-0.0997157,0,215.513336)"/>
<path style=" stroke:none;fill-rule:nonzero;fill:rgb(22.509766%,3.697205%,30.200195%);fill-opacity:1;" d="M 40.578125 141.921875 L 14.273438 125.316406 L 13.5625 140.710938 "/>
<path style="fill:none;stroke-width:5;stroke-linecap:round;stroke-linejoin:round;stroke:rgb(0%,0%,0%);stroke-opacity:1;stroke-miterlimit:10;" d="M 406.938028 738.012514 L 143.141274 904.540581 L 136.011632 750.15641 Z M 406.938028 738.012514 " transform="matrix(0.0997157,0,0,-0.0997157,0,215.513336)"/>
<path style=" stroke:none;fill-rule:nonzero;fill:rgb(26.292419%,26.292419%,32.298279%);fill-opacity:1;" d="M 13.5625 140.710938 L 14.273438 125.316406 L 14.132812 83.921875 "/>
<path style="fill:none;stroke-width:5;stroke-linecap:round;stroke-linejoin:round;stroke:rgb(0%,0%,0%);stroke-opacity:1;stroke-miterlimit:10;" d="M 136.011632 750.15641 L 143.141274 904.540581 L 141.731015 1319.665945 Z M 136.011632 750.15641 " transform="matrix(0.0997157,0,0,-0.0997157,0,215.513336)"/>
<path style=" stroke:none;fill-rule:nonzero;fill:rgb(62.889099%,77.734375%,95.3125%);fill-opacity:1;" d="M 118.234375 19.730469 L 87.976562 15.648438 L 59.972656 30.601562 "/>
<path style="fill:none;stroke-width:5;stroke-linecap:round;stroke-linejoin:round;stroke:rgb(0%,0%,0%);stroke-opacity:1;stroke-miterlimit:10;" d="M 1185.714308 1963.40994 L 882.273611 2004.34662 L 601.436229 1854.389095 Z M 1185.714308 1963.40994 " transform="matrix(0.0997157,0,0,-0.0997157,0,215.513336)"/>
<path style=" stroke:none;fill-rule:nonzero;fill:rgb(91.014099%,51.367188%,12.205505%);fill-opacity:1;" d="M 190.839844 116.539062 L 176.894531 125.257812 L 155.769531 162.101562 "/>
<path style="fill:none;stroke-width:5;stroke-linecap:round;stroke-linejoin:round;stroke:rgb(0%,0%,0%);stroke-opacity:1;stroke-miterlimit:10;" d="M 1913.838791 992.564238 L 1773.988121 905.128189 L 1562.135902 535.640368 Z M 1913.838791 992.564238 " transform="matrix(0.0997157,0,0,-0.0997157,0,215.513336)"/>
<path style=" stroke:none;fill-rule:nonzero;fill:rgb(97.65625%,87.693787%,66.992188%);fill-opacity:1;" d="M 163.808594 99.308594 L 176.894531 125.257812 L 190.839844 116.539062 "/>
<path style="fill:none;stroke-width:5;stroke-linecap:round;stroke-linejoin:round;stroke:rgb(0%,0%,0%);stroke-opacity:1;stroke-miterlimit:10;" d="M 1642.7557 1165.360122 L 1773.988121 905.128189 L 1913.838791 992.564238 Z M 1642.7557 1165.360122 " transform="matrix(0.0997157,0,0,-0.0997157,0,215.513336)"/>
<path style=" stroke:none;fill-rule:nonzero;fill:rgb(70.701599%,75.193787%,24.705505%);fill-opacity:1;" d="M 170.253906 52.164062 L 181.523438 88.476562 L 190.839844 116.539062 "/>
<path style="fill:none;stroke-width:5;stroke-linecap:round;stroke-linejoin:round;stroke:rgb(0%,0%,0%);stroke-opacity:1;stroke-miterlimit:10;" d="M 1707.392564 1638.149404 L 1820.409142 1273.989228 L 1913.838791 992.564238 Z M 1707.392564 1638.149404 " transform="matrix(0.0997157,0,0,-0.0997157,0,215.513336)"/>
<path style=" stroke:none;fill-rule:nonzero;fill:rgb(94.53125%,70.3125%,54.296875%);fill-opacity:1;" d="M 190.839844 116.539062 L 181.523438 88.476562 L 163.808594 99.308594 "/>
<path style="fill:none;stroke-width:5;stroke-linecap:round;stroke-linejoin:round;stroke:rgb(0%,0%,0%);stroke-opacity:1;stroke-miterlimit:10;" d="M 1913.838791 992.564238 L 1820.409142 1273.989228 L 1642.7557 1165.360122 Z M 1913.838791 992.564238 " transform="matrix(0.0997157,0,0,-0.0997157,0,215.513336)"/>
<path style=" stroke:none;fill-rule:nonzero;fill:rgb(94.53125%,70.3125%,54.296875%);fill-opacity:1;" d="M 155.769531 162.101562 L 177.789062 154.308594 L 190.839844 116.539062 "/>
<path style="fill:none;stroke-width:5;stroke-linecap:round;stroke-linejoin:round;stroke:rgb(0%,0%,0%);stroke-opacity:1;stroke-miterlimit:10;" d="M 1562.135902 535.640368 L 1782.958935 613.792213 L 1913.838791 992.564238 Z M 1562.135902 535.640368 " transform="matrix(0.0997157,0,0,-0.0997157,0,215.513336)"/>
<path style=" stroke:none;fill-rule:nonzero;fill:rgb(46.09375%,2.200317%,3.297424%);fill-opacity:1;" d="M 93.878906 178.9375 L 61.449219 176.800781 L 52.007812 187.425781 "/>
<path style="fill:none;stroke-width:5;stroke-linecap:round;stroke-linejoin:round;stroke:rgb(0%,0%,0%);stroke-opacity:1;stroke-miterlimit:10;" d="M 941.465309 366.801044 L 616.243947 388.229143 L 521.560734 281.676252 Z M 941.465309 366.801044 " transform="matrix(0.0997157,0,0,-0.0997157,0,215.513336)"/>
<path style=" stroke:none;fill-rule:nonzero;fill:rgb(48.28949%,18.089294%,37.693787%);fill-opacity:1;" d="M 40.578125 141.921875 L 27.128906 160.058594 L 52.007812 187.425781 "/>
<path style="fill:none;stroke-width:5;stroke-linecap:round;stroke-linejoin:round;stroke:rgb(0%,0%,0%);stroke-opacity:1;stroke-miterlimit:10;" d="M 406.938028 738.012514 L 272.062438 556.128295 L 521.560734 281.676252 Z M 406.938028 738.012514 " transform="matrix(0.0997157,0,0,-0.0997157,0,215.513336)"/>
<path style=" stroke:none;fill-rule:nonzero;fill:rgb(48.28949%,18.089294%,37.693787%);fill-opacity:1;" d="M 52.007812 187.425781 L 87.636719 195.277344 L 93.878906 178.9375 "/>
<path style="fill:none;stroke-width:5;stroke-linecap:round;stroke-linejoin:round;stroke:rgb(0%,0%,0%);stroke-opacity:1;stroke-miterlimit:10;" d="M 521.560734 281.676252 L 878.865485 202.936799 L 941.465309 366.801044 Z M 521.560734 281.676252 " transform="matrix(0.0997157,0,0,-0.0997157,0,215.513336)"/>
<path style=" stroke:none;fill-rule:nonzero;fill:rgb(22.509766%,3.697205%,30.200195%);fill-opacity:1;" d="M 52.007812 187.425781 L 61.449219 176.800781 L 40.578125 141.921875 "/>
<path style="fill:none;stroke-width:5;stroke-linecap:round;stroke-linejoin:round;stroke:rgb(0%,0%,0%);stroke-opacity:1;stroke-miterlimit:10;" d="M 521.560734 281.676252 L 616.243947 388.229143 L 406.938028 738.012514 Z M 521.560734 281.676252 " transform="matrix(0.0997157,0,0,-0.0997157,0,215.513336)"/>
<path style=" stroke:none;fill-rule:nonzero;fill:rgb(43.309021%,49.388123%,82.226562%);fill-opacity:1;" d="M 59.972656 30.601562 L 28.445312 48.605469 L 14.132812 83.921875 "/>
<path style="fill:none;stroke-width:5;stroke-linecap:round;stroke-linejoin:round;stroke:rgb(0%,0%,0%);stroke-opacity:1;stroke-miterlimit:10;" d="M 601.436229 1854.389095 L 285.264028 1673.836788 L 141.731015 1319.665945 Z M 601.436229 1854.389095 " transform="matrix(0.0997157,0,0,-0.0997157,0,215.513336)"/>
<path style=" stroke:none;fill-rule:nonzero;fill:rgb(78.514099%,90.039062%,92.381287%);fill-opacity:1;" d="M 118.234375 19.730469 L 100.816406 25.117188 L 118.914062 51.714844 "/>
<path style="fill:none;stroke-width:5;stroke-linecap:round;stroke-linejoin:round;stroke:rgb(0%,0%,0%);stroke-opacity:1;stroke-miterlimit:10;" d="M 1185.714308 1963.40994 L 1011.038079 1909.389191 L 1192.53056 1642.654397 Z M 1185.714308 1963.40994 " transform="matrix(0.0997157,0,0,-0.0997157,0,215.513336)"/>
<path style=" stroke:none;fill-rule:nonzero;fill:rgb(12.304688%,64.0625%,88.867188%);fill-opacity:1;" d="M 59.972656 30.601562 L 100.816406 25.117188 L 118.234375 19.730469 "/>
<path style="fill:none;stroke-width:5;stroke-linecap:round;stroke-linejoin:round;stroke:rgb(0%,0%,0%);stroke-opacity:1;stroke-miterlimit:10;" d="M 601.436229 1854.389095 L 1011.038079 1909.389191 L 1185.714308 1963.40994 Z M 601.436229 1854.389095 " transform="matrix(0.0997157,0,0,-0.0997157,0,215.513336)"/>
<path style=" stroke:none;fill-rule:nonzero;fill:rgb(62.889099%,77.734375%,95.3125%);fill-opacity:1;" d="M 118.914062 51.714844 L 137.960938 32.46875 L 118.234375 19.730469 "/>
<path style="fill:none;stroke-width:5;stroke-linecap:round;stroke-linejoin:round;stroke:rgb(0%,0%,0%);stroke-opacity:1;stroke-miterlimit:10;" d="M 1192.53056 1642.654397 L 1383.542287 1835.663992 L 1185.714308 1963.40994 Z M 1192.53056 1642.654397 " transform="matrix(0.0997157,0,0,-0.0997157,0,215.513336)"/>
<path style=" stroke:none;fill-rule:nonzero;fill:rgb(41.601562%,83.006287%,64.256287%);fill-opacity:1;" d="M 118.234375 19.730469 L 137.960938 32.46875 L 170.253906 52.164062 "/>
<path style="fill:none;stroke-width:5;stroke-linecap:round;stroke-linejoin:round;stroke:rgb(0%,0%,0%);stroke-opacity:1;stroke-miterlimit:10;" d="M 1185.714308 1963.40994 L 1383.542287 1835.663992 L 1707.392564 1638.149404 Z M 1185.714308 1963.40994 " transform="matrix(0.0997157,0,0,-0.0997157,0,215.513336)"/>
<path style=" stroke:none;fill-rule:nonzero;fill:rgb(97.65625%,87.693787%,66.992188%);fill-opacity:1;" d="M 170.253906 52.164062 L 157.839844 66.542969 L 163.808594 99.308594 "/>
<path style="fill:none;stroke-width:5;stroke-linecap:round;stroke-linejoin:round;stroke:rgb(0%,0%,0%);stroke-opacity:1;stroke-miterlimit:10;" d="M 1707.392564 1638.149404 L 1582.898046 1493.950436 L 1642.7557 1165.360122 Z M 1707.392564 1638.149404 " transform="matrix(0.0997157,0,0,-0.0997157,0,215.513336)"/>
<path style=" stroke:none;fill-rule:nonzero;fill:rgb(78.514099%,90.039062%,92.381287%);fill-opacity:1;" d="M 118.914062 51.714844 L 157.839844 66.542969 L 170.253906 52.164062 "/>
<path style="fill:none;stroke-width:5;stroke-linecap:round;stroke-linejoin:round;stroke:rgb(0%,0%,0%);stroke-opacity:1;stroke-miterlimit:10;" d="M 1192.53056 1642.654397 L 1582.898046 1493.950436 L 1707.392564 1638.149404 Z M 1192.53056 1642.654397 " transform="matrix(0.0997157,0,0,-0.0997157,0,215.513336)"/>
<path style=" stroke:none;fill-rule:nonzero;fill:rgb(85.742188%,82.226562%,81.25%);fill-opacity:1;" d="M 163.808594 99.308594 L 181.523438 88.476562 L 170.253906 52.164062 "/>
<path style="fill:none;stroke-width:5;stroke-linecap:round;stroke-linejoin:round;stroke:rgb(0%,0%,0%);stroke-opacity:1;stroke-miterlimit:10;" d="M 1642.7557 1165.360122 L 1820.409142 1273.989228 L 1707.392564 1638.149404 Z M 1642.7557 1165.360122 " transform="matrix(0.0997157,0,0,-0.0997157,0,215.513336)"/>
<path style=" stroke:none;fill-rule:nonzero;fill:rgb(85.742188%,82.226562%,81.25%);fill-opacity:1;" d="M 170.253906 52.164062 L 137.960938 32.46875 L 118.914062 51.714844 "/>
<path style="fill:none;stroke-width:5;stroke-linecap:round;stroke-linejoin:round;stroke:rgb(0%,0%,0%);stroke-opacity:1;stroke-miterlimit:10;" d="M 1707.392564 1638.149404 L 1383.542287 1835.663992 L 1192.53056 1642.654397 Z M 1707.392564 1638.149404 " transform="matrix(0.0997157,0,0,-0.0997157,0,215.513336)"/>
<path style=" stroke:none;fill-rule:nonzero;fill:rgb(0%,28.90625%,78.709412%);fill-opacity:1;" d="M 14.132812 83.921875 L 40.007812 61.679688 L 59.972656 30.601562 "/>
<path style="fill:none;stroke-width:5;stroke-linecap:round;stroke-linejoin:round;stroke:rgb(0%,0%,0%);stroke-opacity:1;stroke-miterlimit:10;" d="M 141.731015 1319.665945 L 401.218645 1542.721888 L 601.436229 1854.389095 Z M 141.731015 1319.665945 " transform="matrix(0.0997157,0,0,-0.0997157,0,215.513336)"/>
<path style=" stroke:none;fill-rule:nonzero;fill:rgb(46.409607%,39.501953%,69.334412%);fill-opacity:1;" d="M 14.132812 83.921875 L 14.273438 125.316406 L 40.578125 141.921875 "/>
<path style="fill:none;stroke-width:5;stroke-linecap:round;stroke-linejoin:round;stroke:rgb(0%,0%,0%);stroke-opacity:1;stroke-miterlimit:10;" d="M 141.731015 1319.665945 L 143.141274 904.540581 L 406.938028 738.012514 Z M 141.731015 1319.665945 " transform="matrix(0.0997157,0,0,-0.0997157,0,215.513336)"/>
<path style=" stroke:none;fill-rule:nonzero;fill:rgb(43.309021%,49.388123%,82.226562%);fill-opacity:1;" d="M 14.132812 83.921875 L 33.292969 99.046875 L 58.839844 79.703125 "/>
<path style="fill:none;stroke-width:5;stroke-linecap:round;stroke-linejoin:round;stroke:rgb(0%,0%,0%);stroke-opacity:1;stroke-miterlimit:10;" d="M 141.731015 1319.665945 L 333.878785 1167.98477 L 590.07581 1361.973711 Z M 141.731015 1319.665945 " transform="matrix(0.0997157,0,0,-0.0997157,0,215.513336)"/>
<path style=" stroke:none;fill-rule:nonzero;fill:rgb(46.409607%,39.501953%,69.334412%);fill-opacity:1;" d="M 58.839844 79.703125 L 40.007812 61.679688 L 14.132812 83.921875 "/>
<path style="fill:none;stroke-width:5;stroke-linecap:round;stroke-linejoin:round;stroke:rgb(0%,0%,0%);stroke-opacity:1;stroke-miterlimit:10;" d="M 590.07581 1361.973711 L 401.218645 1542.721888 L 141.731015 1319.665945 Z M 590.07581 1361.973711 " transform="matrix(0.0997157,0,0,-0.0997157,0,215.513336)"/>
<path style=" stroke:none;fill-rule:nonzero;fill:rgb(21.604919%,11.888123%,52.34375%);fill-opacity:1;" d="M 40.578125 141.921875 L 33.292969 99.046875 L 14.132812 83.921875 "/>
<path style="fill:none;stroke-width:5;stroke-linecap:round;stroke-linejoin:round;stroke:rgb(0%,0%,0%);stroke-opacity:1;stroke-miterlimit:10;" d="M 406.938028 738.012514 L 333.878785 1167.98477 L 141.731015 1319.665945 Z M 406.938028 738.012514 " transform="matrix(0.0997157,0,0,-0.0997157,0,215.513336)"/>
<path style=" stroke:none;fill-rule:nonzero;fill:rgb(62.889099%,77.734375%,95.3125%);fill-opacity:1;" d="M 59.972656 30.601562 L 75.109375 50.613281 L 118.914062 51.714844 "/>
<path style="fill:none;stroke-width:5;stroke-linecap:round;stroke-linejoin:round;stroke:rgb(0%,0%,0%);stroke-opacity:1;stroke-miterlimit:10;" d="M 601.436229 1854.389095 L 753.234925 1653.701425 L 1192.53056 1642.654397 Z M 601.436229 1854.389095 " transform="matrix(0.0997157,0,0,-0.0997157,0,215.513336)"/>
<path style=" stroke:none;fill-rule:nonzero;fill:rgb(61.914062%,64.84375%,85.742188%);fill-opacity:1;" d="M 118.914062 51.714844 L 100.816406 25.117188 L 59.972656 30.601562 "/>
<path style="fill:none;stroke-width:5;stroke-linecap:round;stroke-linejoin:round;stroke:rgb(0%,0%,0%);stroke-opacity:1;stroke-miterlimit:10;" d="M 1192.53056 1642.654397 L 1011.038079 1909.389191 L 601.436229 1854.389095 Z M 1192.53056 1642.654397 " transform="matrix(0.0997157,0,0,-0.0997157,0,215.513336)"/>
<path style=" stroke:none;fill-rule:nonzero;fill:rgb(43.309021%,49.388123%,82.226562%);fill-opacity:1;" d="M 58.839844 79.703125 L 75.109375 50.613281 L 59.972656 30.601562 "/>
<path style="fill:none;stroke-width:5;stroke-linecap:round;stroke-linejoin:round;stroke:rgb(0%,0%,0%);stroke-opacity:1;stroke-miterlimit:10;" d="M 590.07581 1361.973711 L 753.234925 1653.701425 L 601.436229 1854.389095 Z M 590.07581 1361.973711 " transform="matrix(0.0997157,0,0,-0.0997157,0,215.513336)"/>
<path style=" stroke:none;fill-rule:nonzero;fill:rgb(61.914062%,64.84375%,85.742188%);fill-opacity:1;" d="M 59.972656 30.601562 L 40.007812 61.679688 L 58.839844 79.703125 "/>
<path style="fill:none;stroke-width:5;stroke-linecap:round;stroke-linejoin:round;stroke:rgb(0%,0%,0%);stroke-opacity:1;stroke-miterlimit:10;" d="M 601.436229 1854.389095 L 401.218645 1542.721888 L 590.07581 1361.973711 Z M 601.436229 1854.389095 " transform="matrix(0.0997157,0,0,-0.0997157,0,215.513336)"/>
<path style=" stroke:none;fill-rule:nonzero;fill:rgb(75.389099%,49.804688%,54.492188%);fill-opacity:1;" d="M 93.878906 178.9375 L 122.316406 187.125 L 155.769531 162.101562 "/>
<path style="fill:none;stroke-width:5;stroke-linecap:round;stroke-linejoin:round;stroke:rgb(0%,0%,0%);stroke-opacity:1;stroke-miterlimit:10;" d="M 941.465309 366.801044 L 1226.650989 284.692639 L 1562.135902 535.640368 Z M 941.465309 366.801044 " transform="matrix(0.0997157,0,0,-0.0997157,0,215.513336)"/>
<path style=" stroke:none;fill-rule:nonzero;fill:rgb(82.226562%,61.914062%,62.889099%);fill-opacity:1;" d="M 155.769531 162.101562 L 176.894531 125.257812 L 163.808594 99.308594 "/>
<path style="fill:none;stroke-width:5;stroke-linecap:round;stroke-linejoin:round;stroke:rgb(0%,0%,0%);stroke-opacity:1;stroke-miterlimit:10;" d="M 1562.135902 535.640368 L 1773.988121 905.128189 L 1642.7557 1165.360122 Z M 1562.135902 535.640368 " transform="matrix(0.0997157,0,0,-0.0997157,0,215.513336)"/>
<path style=" stroke:none;fill-rule:nonzero;fill:rgb(94.53125%,70.3125%,54.296875%);fill-opacity:1;" d="M 163.808594 99.308594 L 149.515625 127.90625 L 155.769531 162.101562 "/>
<path style="fill:none;stroke-width:5;stroke-linecap:round;stroke-linejoin:round;stroke:rgb(0%,0%,0%);stroke-opacity:1;stroke-miterlimit:10;" d="M 1642.7557 1165.360122 L 1499.418557 878.568313 L 1562.135902 535.640368 Z M 1642.7557 1165.360122 " transform="matrix(0.0997157,0,0,-0.0997157,0,215.513336)"/>
<path style=" stroke:none;fill-rule:nonzero;fill:rgb(82.226562%,61.914062%,62.889099%);fill-opacity:1;" d="M 108.058594 123.648438 L 119.132812 162.457031 L 155.769531 162.101562 "/>
<path style="fill:none;stroke-width:5;stroke-linecap:round;stroke-linejoin:round;stroke:rgb(0%,0%,0%);stroke-opacity:1;stroke-miterlimit:10;" d="M 1083.666411 921.267818 L 1194.724296 532.075547 L 1562.135902 535.640368 Z M 1083.666411 921.267818 " transform="matrix(0.0997157,0,0,-0.0997157,0,215.513336)"/>
<path style=" stroke:none;fill-rule:nonzero;fill:rgb(72.068787%,30.393982%,25.610352%);fill-opacity:1;" d="M 155.769531 162.101562 L 119.132812 162.457031 L 93.878906 178.9375 "/>
<path style="fill:none;stroke-width:5;stroke-linecap:round;stroke-linejoin:round;stroke:rgb(0%,0%,0%);stroke-opacity:1;stroke-miterlimit:10;" d="M 1562.135902 535.640368 L 1194.724296 532.075547 L 941.465309 366.801044 Z M 1562.135902 535.640368 " transform="matrix(0.0997157,0,0,-0.0997157,0,215.513336)"/>
<path style=" stroke:none;fill-rule:nonzero;fill:rgb(75.389099%,49.804688%,54.492188%);fill-opacity:1;" d="M 155.769531 162.101562 L 149.515625 127.90625 L 108.058594 123.648438 "/>
<path style="fill:none;stroke-width:5;stroke-linecap:round;stroke-linejoin:round;stroke:rgb(0%,0%,0%);stroke-opacity:1;stroke-miterlimit:10;" d="M 1562.135902 535.640368 L 1499.418557 878.568313 L 1083.666411 921.267818 Z M 1562.135902 535.640368 " transform="matrix(0.0997157,0,0,-0.0997157,0,215.513336)"/>
<path style=" stroke:none;fill-rule:nonzero;fill:rgb(64.451599%,43.089294%,58.006287%);fill-opacity:1;" d="M 40.578125 141.921875 L 61.449219 176.800781 L 93.878906 178.9375 "/>
<path style="fill:none;stroke-width:5;stroke-linecap:round;stroke-linejoin:round;stroke:rgb(0%,0%,0%);stroke-opacity:1;stroke-miterlimit:10;" d="M 406.938028 738.012514 L 616.243947 388.229143 L 941.465309 366.801044 Z M 406.938028 738.012514 " transform="matrix(0.0997157,0,0,-0.0997157,0,215.513336)"/>
<path style=" stroke:none;fill-rule:nonzero;fill:rgb(75.389099%,49.804688%,54.492188%);fill-opacity:1;" d="M 108.058594 123.648438 L 80.035156 155.65625 L 93.878906 178.9375 "/>
<path style="fill:none;stroke-width:5;stroke-linecap:round;stroke-linejoin:round;stroke:rgb(0%,0%,0%);stroke-opacity:1;stroke-miterlimit:10;" d="M 1083.666411 921.267818 L 802.633159 600.277232 L 941.465309 366.801044 Z M 1083.666411 921.267818 " transform="matrix(0.0997157,0,0,-0.0997157,0,215.513336)"/>
<path style=" stroke:none;fill-rule:nonzero;fill:rgb(64.451599%,43.089294%,58.006287%);fill-opacity:1;" d="M 93.878906 178.9375 L 119.132812 162.457031 L 108.058594 123.648438 "/>
<path style="fill:none;stroke-width:5;stroke-linecap:round;stroke-linejoin:round;stroke:rgb(0%,0%,0%);stroke-opacity:1;stroke-miterlimit:10;" d="M 941.465309 366.801044 L 1194.724296 532.075547 L 1083.666411 921.267818 Z M 941.465309 366.801044 " transform="matrix(0.0997157,0,0,-0.0997157,0,215.513336)"/>
<path style=" stroke:none;fill-rule:nonzero;fill:rgb(48.28949%,18.089294%,37.693787%);fill-opacity:1;" d="M 93.878906 178.9375 L 80.035156 155.65625 L 40.578125 141.921875 "/>
<path style="fill:none;stroke-width:5;stroke-linecap:round;stroke-linejoin:round;stroke:rgb(0%,0%,0%);stroke-opacity:1;stroke-miterlimit:10;" d="M 941.465309 366.801044 L 802.633159 600.277232 L 406.938028 738.012514 Z M 941.465309 366.801044 " transform="matrix(0.0997157,0,0,-0.0997157,0,215.513336)"/>
<path style=" stroke:none;fill-rule:nonzero;fill:rgb(78.514099%,67.771912%,74.414062%);fill-opacity:1;" d="M 163.808594 99.308594 L 157.839844 66.542969 L 118.914062 51.714844 "/>
<path style="fill:none;stroke-width:5;stroke-linecap:round;stroke-linejoin:round;stroke:rgb(0%,0%,0%);stroke-opacity:1;stroke-miterlimit:10;" d="M 1642.7557 1165.360122 L 1582.898046 1493.950436 L 1192.53056 1642.654397 Z M 1642.7557 1165.360122 " transform="matrix(0.0997157,0,0,-0.0997157,0,215.513336)"/>
<path style=" stroke:none;fill-rule:nonzero;fill:rgb(82.226562%,61.914062%,62.889099%);fill-opacity:1;" d="M 163.808594 99.308594 L 137.058594 90.429688 L 108.058594 123.648438 "/>
<path style="fill:none;stroke-width:5;stroke-linecap:round;stroke-linejoin:round;stroke:rgb(0%,0%,0%);stroke-opacity:1;stroke-miterlimit:10;" d="M 1642.7557 1165.360122 L 1374.493126 1254.402299 L 1083.666411 921.267818 Z M 1642.7557 1165.360122 " transform="matrix(0.0997157,0,0,-0.0997157,0,215.513336)"/>
<path style=" stroke:none;fill-rule:nonzero;fill:rgb(78.514099%,67.771912%,74.414062%);fill-opacity:1;" d="M 108.058594 123.648438 L 149.515625 127.90625 L 163.808594 99.308594 "/>
<path style="fill:none;stroke-width:5;stroke-linecap:round;stroke-linejoin:round;stroke:rgb(0%,0%,0%);stroke-opacity:1;stroke-miterlimit:10;" d="M 1083.666411 921.267818 L 1499.418557 878.568313 L 1642.7557 1165.360122 Z M 1083.666411 921.267818 " transform="matrix(0.0997157,0,0,-0.0997157,0,215.513336)"/>
<path style=" stroke:none;fill-rule:nonzero;fill:rgb(85.742188%,82.226562%,81.25%);fill-opacity:1;" d="M 118.914062 51.714844 L 137.058594 90.429688 L 163.808594 99.308594 "/>
<path style="fill:none;stroke-width:5;stroke-linecap:round;stroke-linejoin:round;stroke:rgb(0%,0%,0%);stroke-opacity:1;stroke-miterlimit:10;" d="M 1192.53056 1642.654397 L 1374.493126 1254.402299 L 1642.7557 1165.360122 Z M 1192.53056 1642.654397 " transform="matrix(0.0997157,0,0,-0.0997157,0,215.513336)"/>
<path style=" stroke:none;fill-rule:nonzero;fill:rgb(64.451599%,43.089294%,58.006287%);fill-opacity:1;" d="M 108.058594 123.648438 L 64.746094 112.550781 L 40.578125 141.921875 "/>
<path style="fill:none;stroke-width:5;stroke-linecap:round;stroke-linejoin:round;stroke:rgb(0%,0%,0%);stroke-opacity:1;stroke-miterlimit:10;" d="M 1083.666411 921.267818 L 649.306682 1032.560746 L 406.938028 738.012514 Z M 1083.666411 921.267818 " transform="matrix(0.0997157,0,0,-0.0997157,0,215.513336)"/>
<path style=" stroke:none;fill-rule:nonzero;fill:rgb(62.304688%,49.19281%,68.164062%);fill-opacity:1;" d="M 58.839844 79.703125 L 33.292969 99.046875 L 40.578125 141.921875 "/>
<path style="fill:none;stroke-width:5;stroke-linecap:round;stroke-linejoin:round;stroke:rgb(0%,0%,0%);stroke-opacity:1;stroke-miterlimit:10;" d="M 590.07581 1361.973711 L 333.878785 1167.98477 L 406.938028 738.012514 Z M 590.07581 1361.973711 " transform="matrix(0.0997157,0,0,-0.0997157,0,215.513336)"/>
<path style=" stroke:none;fill-rule:nonzero;fill:rgb(46.409607%,39.501953%,69.334412%);fill-opacity:1;" d="M 40.578125 141.921875 L 64.746094 112.550781 L 58.839844 79.703125 "/>
<path style="fill:none;stroke-width:5;stroke-linecap:round;stroke-linejoin:round;stroke:rgb(0%,0%,0%);stroke-opacity:1;stroke-miterlimit:10;" d="M 406.938028 738.012514 L 649.306682 1032.560746 L 590.07581 1361.973711 Z M 406.938028 738.012514 " transform="matrix(0.0997157,0,0,-0.0997157,0,215.513336)"/>
<path style=" stroke:none;fill-rule:nonzero;fill:rgb(62.304688%,49.19281%,68.164062%);fill-opacity:1;" d="M 40.578125 141.921875 L 80.035156 155.65625 L 108.058594 123.648438 "/>
<path style="fill:none;stroke-width:5;stroke-linecap:round;stroke-linejoin:round;stroke:rgb(0%,0%,0%);stroke-opacity:1;stroke-miterlimit:10;" d="M 406.938028 738.012514 L 802.633159 600.277232 L 1083.666411 921.267818 Z M 406.938028 738.012514 " transform="matrix(0.0997157,0,0,-0.0997157,0,215.513336)"/>
<path style=" stroke:none;fill-rule:nonzero;fill:rgb(69.726562%,61.71875%,76.367188%);fill-opacity:1;" d="M 118.914062 51.714844 L 75.109375 50.613281 L 58.839844 79.703125 "/>
<path style="fill:none;stroke-width:5;stroke-linecap:round;stroke-linejoin:round;stroke:rgb(0%,0%,0%);stroke-opacity:1;stroke-miterlimit:10;" d="M 1192.53056 1642.654397 L 753.234925 1653.701425 L 590.07581 1361.973711 Z M 1192.53056 1642.654397 " transform="matrix(0.0997157,0,0,-0.0997157,0,215.513336)"/>
<path style=" stroke:none;fill-rule:nonzero;fill:rgb(61.914062%,64.84375%,85.742188%);fill-opacity:1;" d="M 58.839844 79.703125 L 91.386719 81.867188 L 118.914062 51.714844 "/>
<path style="fill:none;stroke-width:5;stroke-linecap:round;stroke-linejoin:round;stroke:rgb(0%,0%,0%);stroke-opacity:1;stroke-miterlimit:10;" d="M 590.07581 1361.973711 L 916.472388 1340.271394 L 1192.53056 1642.654397 Z M 590.07581 1361.973711 " transform="matrix(0.0997157,0,0,-0.0997157,0,215.513336)"/>
<path style=" stroke:none;fill-rule:nonzero;fill:rgb(78.514099%,67.771912%,74.414062%);fill-opacity:1;" d="M 118.914062 51.714844 L 91.386719 81.867188 L 108.058594 123.648438 "/>
<path style="fill:none;stroke-width:5;stroke-linecap:round;stroke-linejoin:round;stroke:rgb(0%,0%,0%);stroke-opacity:1;stroke-miterlimit:10;" d="M 1192.53056 1642.654397 L 916.472388 1340.271394 L 1083.666411 921.267818 Z M 1192.53056 1642.654397 " transform="matrix(0.0997157,0,0,-0.0997157,0,215.513336)"/>
<path style=" stroke:none;fill-rule:nonzero;fill:rgb(69.726562%,61.71875%,76.367188%);fill-opacity:1;" d="M 108.058594 123.648438 L 137.058594 90.429688 L 118.914062 51.714844 "/>
<path style="fill:none;stroke-width:5;stroke-linecap:round;stroke-linejoin:round;stroke:rgb(0%,0%,0%);stroke-opacity:1;stroke-miterlimit:10;" d="M 1083.666411 921.267818 L 1374.493126 1254.402299 L 1192.53056 1642.654397 Z M 1083.666411 921.267818 " transform="matrix(0.0997157,0,0,-0.0997157,0,215.513336)"/>
<path style=" stroke:none;fill-rule:nonzero;fill:rgb(69.726562%,61.71875%,76.367188%);fill-opacity:1;" d="M 58.839844 79.703125 L 64.746094 112.550781 L 108.058594 123.648438 "/>
<path style="fill:none;stroke-width:5;stroke-linecap:round;stroke-linejoin:round;stroke:rgb(0%,0%,0%);stroke-opacity:1;stroke-miterlimit:10;" d="M 590.07581 1361.973711 L 649.306682 1032.560746 L 1083.666411 921.267818 Z M 590.07581 1361.973711 " transform="matrix(0.0997157,0,0,-0.0997157,0,215.513336)"/>
<path style=" stroke:none;fill-rule:nonzero;fill:rgb(62.304688%,49.19281%,68.164062%);fill-opacity:1;" d="M 108.058594 123.648438 L 91.386719 81.867188 L 58.839844 79.703125 "/>
<path style="fill:none;stroke-width:5;stroke-linecap:round;stroke-linejoin:round;stroke:rgb(0%,0%,0%);stroke-opacity:1;stroke-miterlimit:10;" d="M 1083.666411 921.267818 L 916.472388 1340.271394 L 590.07581 1361.973711 Z M 1083.666411 921.267818 " transform="matrix(0.0997157,0,0,-0.0997157,0,215.513336)"/>
</g>
</svg>
