<?xml version="1.0" encoding="UTF-8"?>
<svg xmlns="http://www.w3.org/2000/svg" xmlns:xlink="http://www.w3.org/1999/xlink" width="229.25pt" height="200.13pt" viewBox="0 0 229.25 200.13" version="1.2">
<g id="surface1">
<path style=" stroke:none;fill-rule:nonzero;fill:rgb(72.459412%,49.804688%,58.201599%);fill-opacity:1;" d="M 74.84375 118.941406 L 84.898438 74.214844 L 110.589844 76.199219 "/>
<path style="fill:none;stroke-width:5;stroke-linecap:round;stroke-linejoin:round;stroke:rgb(0%,0%,0%);stroke-opacity:1;stroke-miterlimit:10;" d="M 750.45814 806.715347 L 851.44211 1255.925314 L 1109.473022 1235.9953 Z M 750.45814 806.715347 " transform="matrix(0.0995672,0,0,-0.0995672,0.122761,199.263766)"/>
<path style=" stroke:none;fill-rule:nonzero;fill:rgb(62.109375%,61.131287%,81.834412%);fill-opacity:1;" d="M 111.773438 142.023438 L 74.84375 118.941406 L 129.367188 123.332031 "/>
<path style="fill:none;stroke-width:5;stroke-linecap:round;stroke-linejoin:round;stroke:rgb(0%,0%,0%);stroke-opacity:1;stroke-miterlimit:10;" d="M 1121.360413 574.891619 L 750.45814 806.715347 L 1298.062744 762.618229 Z M 1121.360413 574.891619 " transform="matrix(0.0995672,0,0,-0.0995672,0.122761,199.263766)"/>
<path style=" stroke:none;fill-rule:nonzero;fill:rgb(66.796875%,73.4375%,90.039062%);fill-opacity:1;" d="M 74.84375 118.941406 L 111.773438 142.023438 L 93.742188 154.527344 "/>
<path style="fill:none;stroke-width:5;stroke-linecap:round;stroke-linejoin:round;stroke:rgb(0%,0%,0%);stroke-opacity:1;stroke-miterlimit:10;" d="M 750.45814 806.715347 L 1121.360413 574.891619 L 940.264063 449.308989 Z M 750.45814 806.715347 " transform="matrix(0.0995672,0,0,-0.0995672,0.122761,199.263766)"/>
<path style=" stroke:none;fill-rule:nonzero;fill:rgb(77.34375%,87.304688%,92.1875%);fill-opacity:1;" d="M 74.84375 118.941406 L 93.742188 154.527344 L 69.21875 143.429688 "/>
<path style="fill:none;stroke-width:5;stroke-linecap:round;stroke-linejoin:round;stroke:rgb(0%,0%,0%);stroke-opacity:1;stroke-miterlimit:10;" d="M 750.45814 806.715347 L 940.264063 449.308989 L 693.963611 560.767986 Z M 750.45814 806.715347 " transform="matrix(0.0995672,0,0,-0.0995672,0.122761,199.263766)"/>
<path style=" stroke:none;fill-rule:nonzero;fill:rgb(62.109375%,53.125%,73.046875%);fill-opacity:1;" d="M 74.84375 118.941406 L 120.578125 99.804688 L 129.367188 123.332031 "/>
<path style="fill:none;stroke-width:5;stroke-linecap:round;stroke-linejoin:round;stroke:rgb(0%,0%,0%);stroke-opacity:1;stroke-miterlimit:10;" d="M 750.45814 806.715347 L 1209.790043 998.914441 L 1298.062744 762.618229 Z M 750.45814 806.715347 " transform="matrix(0.0995672,0,0,-0.0995672,0.122761,199.263766)"/>
<path style=" stroke:none;fill-rule:nonzero;fill:rgb(90.429688%,93.164062%,82.03125%);fill-opacity:1;" d="M 51.152344 125.09375 L 74.84375 118.941406 L 69.21875 143.429688 "/>
<path style="fill:none;stroke-width:5;stroke-linecap:round;stroke-linejoin:round;stroke:rgb(0%,0%,0%);stroke-opacity:1;stroke-miterlimit:10;" d="M 512.51417 744.924457 L 750.45814 806.715347 L 693.963611 560.767986 Z M 512.51417 744.924457 " transform="matrix(0.0995672,0,0,-0.0995672,0.122761,199.263766)"/>
<path style=" stroke:none;fill-rule:nonzero;fill:rgb(65.818787%,49.291992%,64.84375%);fill-opacity:1;" d="M 74.84375 118.941406 L 110.589844 76.199219 L 120.578125 99.804688 "/>
<path style="fill:none;stroke-width:5;stroke-linecap:round;stroke-linejoin:round;stroke:rgb(0%,0%,0%);stroke-opacity:1;stroke-miterlimit:10;" d="M 750.45814 806.715347 L 1109.473022 1235.9953 L 1209.790043 998.914441 Z M 750.45814 806.715347 " transform="matrix(0.0995672,0,0,-0.0995672,0.122761,199.263766)"/>
<path style=" stroke:none;fill-rule:nonzero;fill:rgb(97.068787%,84.179688%,65.625%);fill-opacity:1;" d="M 52.3125 100.398438 L 74.84375 118.941406 L 51.152344 125.09375 "/>
<path style="fill:none;stroke-width:5;stroke-linecap:round;stroke-linejoin:round;stroke:rgb(0%,0%,0%);stroke-opacity:1;stroke-miterlimit:10;" d="M 524.166167 992.95113 L 750.45814 806.715347 L 512.51417 744.924457 Z M 524.166167 992.95113 " transform="matrix(0.0995672,0,0,-0.0995672,0.122761,199.263766)"/>
<path style=" stroke:none;fill-rule:nonzero;fill:rgb(92.1875%,68.164062%,55.664062%);fill-opacity:1;" d="M 62.746094 75.960938 L 74.84375 118.941406 L 52.3125 100.398438 "/>
<path style="fill:none;stroke-width:5;stroke-linecap:round;stroke-linejoin:round;stroke:rgb(0%,0%,0%);stroke-opacity:1;stroke-miterlimit:10;" d="M 628.955671 1238.388471 L 750.45814 806.715347 L 524.166167 992.95113 Z M 628.955671 1238.388471 " transform="matrix(0.0995672,0,0,-0.0995672,0.122761,199.263766)"/>
<path style=" stroke:none;fill-rule:nonzero;fill:rgb(81.834412%,55.664062%,54.492188%);fill-opacity:1;" d="M 74.84375 118.941406 L 62.746094 75.960938 L 84.898438 74.214844 "/>
<path style="fill:none;stroke-width:5;stroke-linecap:round;stroke-linejoin:round;stroke:rgb(0%,0%,0%);stroke-opacity:1;stroke-miterlimit:10;" d="M 750.45814 806.715347 L 628.955671 1238.388471 L 851.44211 1255.925314 Z M 750.45814 806.715347 " transform="matrix(0.0995672,0,0,-0.0995672,0.122761,199.263766)"/>
<path style=" stroke:none;fill-rule:nonzero;fill:rgb(44.50531%,50.389099%,82.421875%);fill-opacity:1;" d="M 169.453125 80.746094 L 172.6875 123.152344 L 153.777344 125.296875 "/>
<path style="fill:none;stroke-width:5;stroke-linecap:round;stroke-linejoin:round;stroke:rgb(0%,0%,0%);stroke-opacity:1;stroke-miterlimit:10;" d="M 1700.664724 1190.328889 L 1733.149078 764.422915 L 1543.225458 742.884376 Z M 1700.664724 1190.328889 " transform="matrix(0.0995672,0,0,-0.0995672,0.122761,199.263766)"/>
<path style=" stroke:none;fill-rule:nonzero;fill:rgb(62.109375%,61.131287%,81.834412%);fill-opacity:1;" d="M 169.453125 80.746094 L 153.777344 125.296875 L 129.367188 123.332031 "/>
<path style="fill:none;stroke-width:5;stroke-linecap:round;stroke-linejoin:round;stroke:rgb(0%,0%,0%);stroke-opacity:1;stroke-miterlimit:10;" d="M 1700.664724 1190.328889 L 1543.225458 742.884376 L 1298.062744 762.618229 Z M 1700.664724 1190.328889 " transform="matrix(0.0995672,0,0,-0.0995672,0.122761,199.263766)"/>
<path style=" stroke:none;fill-rule:nonzero;fill:rgb(74.021912%,58.789062%,68.554688%);fill-opacity:1;" d="M 169.453125 80.746094 L 120.578125 99.804688 L 110.589844 76.199219 "/>
<path style="fill:none;stroke-width:5;stroke-linecap:round;stroke-linejoin:round;stroke:rgb(0%,0%,0%);stroke-opacity:1;stroke-miterlimit:10;" d="M 1700.664724 1190.328889 L 1209.790043 998.914441 L 1109.473022 1235.9953 Z M 1700.664724 1190.328889 " transform="matrix(0.0995672,0,0,-0.0995672,0.122761,199.263766)"/>
<path style=" stroke:none;fill-rule:nonzero;fill:rgb(13.696289%,21.508789%,68.164062%);fill-opacity:1;" d="M 169.453125 80.746094 L 182.34375 98.121094 L 172.6875 123.152344 "/>
<path style="fill:none;stroke-width:5;stroke-linecap:round;stroke-linejoin:round;stroke:rgb(0%,0%,0%);stroke-opacity:1;stroke-miterlimit:10;" d="M 1700.664724 1190.328889 L 1830.131352 1015.823567 L 1733.149078 764.422915 Z M 1700.664724 1190.328889 " transform="matrix(0.0995672,0,0,-0.0995672,0.122761,199.263766)"/>
<path style=" stroke:none;fill-rule:nonzero;fill:rgb(72.459412%,49.804688%,58.201599%);fill-opacity:1;" d="M 169.453125 80.746094 L 110.589844 76.199219 L 126.503906 57.171875 "/>
<path style="fill:none;stroke-width:5;stroke-linecap:round;stroke-linejoin:round;stroke:rgb(0%,0%,0%);stroke-opacity:1;stroke-miterlimit:10;" d="M 1700.664724 1190.328889 L 1109.473022 1235.9953 L 1269.305459 1427.095889 Z M 1700.664724 1190.328889 " transform="matrix(0.0995672,0,0,-0.0995672,0.122761,199.263766)"/>
<path style=" stroke:none;fill-rule:nonzero;fill:rgb(39.305115%,5.200195%,26.390076%);fill-opacity:1;" d="M 169.453125 80.746094 L 140.832031 43.894531 L 164.761719 54.550781 "/>
<path style="fill:none;stroke-width:5;stroke-linecap:round;stroke-linejoin:round;stroke:rgb(0%,0%,0%);stroke-opacity:1;stroke-miterlimit:10;" d="M 1700.664724 1190.328889 L 1413.209578 1560.446516 L 1653.546718 1453.42077 Z M 1700.664724 1190.328889 " transform="matrix(0.0995672,0,0,-0.0995672,0.122761,199.263766)"/>
<path style=" stroke:none;fill-rule:nonzero;fill:rgb(70.701599%,62.693787%,76.367188%);fill-opacity:1;" d="M 169.453125 80.746094 L 129.367188 123.332031 L 120.578125 99.804688 "/>
<path style="fill:none;stroke-width:5;stroke-linecap:round;stroke-linejoin:round;stroke:rgb(0%,0%,0%);stroke-opacity:1;stroke-miterlimit:10;" d="M 1700.664724 1190.328889 L 1298.062744 762.618229 L 1209.790043 998.914441 Z M 1700.664724 1190.328889 " transform="matrix(0.0995672,0,0,-0.0995672,0.122761,199.263766)"/>
<path style=" stroke:none;fill-rule:nonzero;fill:rgb(0%,0%,34.301758%);fill-opacity:1;" d="M 169.453125 80.746094 L 180.953125 72.625 L 182.34375 98.121094 "/>
<path style="fill:none;stroke-width:5;stroke-linecap:round;stroke-linejoin:round;stroke:rgb(0%,0%,0%);stroke-opacity:1;stroke-miterlimit:10;" d="M 1700.664724 1190.328889 L 1816.164649 1271.892865 L 1830.131352 1015.823567 Z M 1700.664724 1190.328889 " transform="matrix(0.0995672,0,0,-0.0995672,0.122761,199.263766)"/>
<path style=" stroke:none;fill-rule:nonzero;fill:rgb(63.28125%,33.300781%,44.50531%);fill-opacity:1;" d="M 169.453125 80.746094 L 126.503906 57.171875 L 140.832031 43.894531 "/>
<path style="fill:none;stroke-width:5;stroke-linecap:round;stroke-linejoin:round;stroke:rgb(0%,0%,0%);stroke-opacity:1;stroke-miterlimit:10;" d="M 1700.664724 1190.328889 L 1269.305459 1427.095889 L 1413.209578 1560.446516 Z M 1700.664724 1190.328889 " transform="matrix(0.0995672,0,0,-0.0995672,0.122761,199.263766)"/>
<path style=" stroke:none;fill-rule:nonzero;fill:rgb(0.900269%,0%,15.087891%);fill-opacity:1;" d="M 180.953125 72.625 L 169.453125 80.746094 L 164.761719 54.550781 "/>
<path style="fill:none;stroke-width:5;stroke-linecap:round;stroke-linejoin:round;stroke:rgb(0%,0%,0%);stroke-opacity:1;stroke-miterlimit:10;" d="M 1816.164649 1271.892865 L 1700.664724 1190.328889 L 1653.546718 1453.42077 Z M 1816.164649 1271.892865 " transform="matrix(0.0995672,0,0,-0.0995672,0.122761,199.263766)"/>
<path style=" stroke:none;fill-rule:nonzero;fill:rgb(74.021912%,58.789062%,68.554688%);fill-opacity:1;" d="M 86.726562 19.804688 L 110.589844 76.199219 L 84.898438 74.214844 "/>
<path style="fill:none;stroke-width:5;stroke-linecap:round;stroke-linejoin:round;stroke:rgb(0%,0%,0%);stroke-opacity:1;stroke-miterlimit:10;" d="M 869.802831 1802.392181 L 1109.473022 1235.9953 L 851.44211 1255.925314 Z M 869.802831 1802.392181 " transform="matrix(0.0995672,0,0,-0.0995672,0.122761,199.263766)"/>
<path style=" stroke:none;fill-rule:nonzero;fill:rgb(65.818787%,49.291992%,64.84375%);fill-opacity:1;" d="M 110.589844 76.199219 L 86.726562 19.804688 L 126.503906 57.171875 "/>
<path style="fill:none;stroke-width:5;stroke-linecap:round;stroke-linejoin:round;stroke:rgb(0%,0%,0%);stroke-opacity:1;stroke-miterlimit:10;" d="M 1109.473022 1235.9953 L 869.802831 1802.392181 L 1269.305459 1427.095889 Z M 1109.473022 1235.9953 " transform="matrix(0.0995672,0,0,-0.0995672,0.122761,199.263766)"/>
<path style=" stroke:none;fill-rule:nonzero;fill:rgb(62.109375%,53.125%,73.046875%);fill-opacity:1;" d="M 150.640625 180.285156 L 129.367188 123.332031 L 153.777344 125.296875 "/>
<path style="fill:none;stroke-width:5;stroke-linecap:round;stroke-linejoin:round;stroke:rgb(0%,0%,0%);stroke-opacity:1;stroke-miterlimit:10;" d="M 1511.721912 190.611127 L 1298.062744 762.618229 L 1543.225458 742.884376 Z M 1511.721912 190.611127 " transform="matrix(0.0995672,0,0,-0.0995672,0.122761,199.263766)"/>
<path style=" stroke:none;fill-rule:nonzero;fill:rgb(70.701599%,62.693787%,76.367188%);fill-opacity:1;" d="M 129.367188 123.332031 L 150.640625 180.285156 L 111.773438 142.023438 "/>
<path style="fill:none;stroke-width:5;stroke-linecap:round;stroke-linejoin:round;stroke:rgb(0%,0%,0%);stroke-opacity:1;stroke-miterlimit:10;" d="M 1298.062744 762.618229 L 1511.721912 190.611127 L 1121.360413 574.891619 Z M 1298.062744 762.618229 " transform="matrix(0.0995672,0,0,-0.0995672,0.122761,199.263766)"/>
<path style=" stroke:none;fill-rule:nonzero;fill:rgb(82.617188%,65.429688%,67.1875%);fill-opacity:1;" d="M 86.726562 19.804688 L 84.898438 74.214844 L 62.746094 75.960938 "/>
<path style="fill:none;stroke-width:5;stroke-linecap:round;stroke-linejoin:round;stroke:rgb(0%,0%,0%);stroke-opacity:1;stroke-miterlimit:10;" d="M 869.802831 1802.392181 L 851.44211 1255.925314 L 628.955671 1238.388471 Z M 869.802831 1802.392181 " transform="matrix(0.0995672,0,0,-0.0995672,0.122761,199.263766)"/>
<path style=" stroke:none;fill-rule:nonzero;fill:rgb(76.5625%,73.242188%,82.226562%);fill-opacity:1;" d="M 150.640625 180.285156 L 93.742188 154.527344 L 111.773438 142.023438 "/>
<path style="fill:none;stroke-width:5;stroke-linecap:round;stroke-linejoin:round;stroke:rgb(0%,0%,0%);stroke-opacity:1;stroke-miterlimit:10;" d="M 1511.721912 190.611127 L 940.264063 449.308989 L 1121.360413 574.891619 Z M 1511.721912 190.611127 " transform="matrix(0.0995672,0,0,-0.0995672,0.122761,199.263766)"/>
<path style=" stroke:none;fill-rule:nonzero;fill:rgb(55.859375%,34.49707%,54.6875%);fill-opacity:1;" d="M 86.726562 19.804688 L 140.832031 43.894531 L 126.503906 57.171875 "/>
<path style="fill:none;stroke-width:5;stroke-linecap:round;stroke-linejoin:round;stroke:rgb(0%,0%,0%);stroke-opacity:1;stroke-miterlimit:10;" d="M 869.802831 1802.392181 L 1413.209578 1560.446516 L 1269.305459 1427.095889 Z M 869.802831 1802.392181 " transform="matrix(0.0995672,0,0,-0.0995672,0.122761,199.263766)"/>
<path style=" stroke:none;fill-rule:nonzero;fill:rgb(92.1875%,68.164062%,55.664062%);fill-opacity:1;" d="M 86.726562 19.804688 L 62.746094 75.960938 L 57.148438 56.054688 "/>
<path style="fill:none;stroke-width:5;stroke-linecap:round;stroke-linejoin:round;stroke:rgb(0%,0%,0%);stroke-opacity:1;stroke-miterlimit:10;" d="M 869.802831 1802.392181 L 628.955671 1238.388471 L 572.735769 1438.31633 Z M 869.802831 1802.392181 " transform="matrix(0.0995672,0,0,-0.0995672,0.122761,199.263766)"/>
<path style=" stroke:none;fill-rule:nonzero;fill:rgb(89.646912%,48.094177%,10.301208%);fill-opacity:1;" d="M 60.269531 41.957031 L 86.726562 19.804688 L 57.148438 56.054688 "/>
<path style="fill:none;stroke-width:5;stroke-linecap:round;stroke-linejoin:round;stroke:rgb(0%,0%,0%);stroke-opacity:1;stroke-miterlimit:10;" d="M 604.082386 1579.905742 L 869.802831 1802.392181 L 572.735769 1438.31633 Z M 604.082386 1579.905742 " transform="matrix(0.0995672,0,0,-0.0995672,0.122761,199.263766)"/>
<path style=" stroke:none;fill-rule:nonzero;fill:rgb(39.305115%,5.200195%,26.390076%);fill-opacity:1;" d="M 86.726562 19.804688 L 127.625 26.886719 L 140.832031 43.894531 "/>
<path style="fill:none;stroke-width:5;stroke-linecap:round;stroke-linejoin:round;stroke:rgb(0%,0%,0%);stroke-opacity:1;stroke-miterlimit:10;" d="M 869.802831 1802.392181 L 1280.565133 1731.264 L 1413.209578 1560.446516 Z M 869.802831 1802.392181 " transform="matrix(0.0995672,0,0,-0.0995672,0.122761,199.263766)"/>
<path style="fill-rule:nonzero;fill:rgb(0%,21.702576%,67.576599%);fill-opacity:1;stroke-width:5;stroke-linecap:round;stroke-linejoin:round;stroke:rgb(0%,0%,0%);stroke-opacity:1;stroke-miterlimit:10;" d="M 834.65068 1746.329208 L 869.802831 1802.392181 L 694.944419 1655.977194 " transform="matrix(0.0995672,0,0,-0.0995672,0.122761,199.263766)"/>
<path style=" stroke:none;fill-rule:nonzero;fill:rgb(4.199219%,0%,0%);fill-opacity:1;" d="M 127.625 26.886719 L 86.726562 19.804688 L 111.167969 20.796875 "/>
<path style="fill:none;stroke-width:5;stroke-linecap:round;stroke-linejoin:round;stroke:rgb(0%,0%,0%);stroke-opacity:1;stroke-miterlimit:10;" d="M 1280.565133 1731.264 L 869.802831 1802.392181 L 1115.279404 1792.427174 Z M 1280.565133 1731.264 " transform="matrix(0.0995672,0,0,-0.0995672,0.122761,199.263766)"/>
<path style=" stroke:none;fill-rule:nonzero;fill:rgb(9.912109%,62.304688%,87.889099%);fill-opacity:1;" d="M 111.167969 20.796875 L 86.726562 19.804688 L 83.226562 25.386719 "/>
<path style="fill:none;stroke-width:5;stroke-linecap:round;stroke-linejoin:round;stroke:rgb(0%,0%,0%);stroke-opacity:1;stroke-miterlimit:10;" d="M 1115.279404 1792.427174 L 869.802831 1802.392181 L 834.65068 1746.329208 Z M 1115.279404 1792.427174 " transform="matrix(0.0995672,0,0,-0.0995672,0.122761,199.263766)"/>
<path style="fill-rule:nonzero;fill:rgb(60.9375%,14.208984%,12.109375%);fill-opacity:1;stroke-width:5;stroke-linecap:round;stroke-linejoin:round;stroke:rgb(0%,0%,0%);stroke-opacity:1;stroke-miterlimit:10;" d="M 834.65068 1746.329208 L 686.274078 1951.200338 L 982.164171 1841.702957 " transform="matrix(0.0995672,0,0,-0.0995672,0.122761,199.263766)"/>
<path style="fill-rule:nonzero;fill:rgb(60.9375%,14.208984%,12.109375%);fill-opacity:1;stroke-width:5;stroke-linecap:round;stroke-linejoin:round;stroke:rgb(0%,0%,0%);stroke-opacity:1;stroke-miterlimit:10;" d="M 982.164171 1841.702957 L 1115.279404 1792.427174 L 834.65068 1746.329208 " transform="matrix(0.0995672,0,0,-0.0995672,0.122761,199.263766)"/>
<path style="fill-rule:nonzero;fill:rgb(0%,21.702576%,67.576599%);fill-opacity:1;stroke-width:5;stroke-linecap:round;stroke-linejoin:round;stroke:rgb(0%,0%,0%);stroke-opacity:1;stroke-miterlimit:10;" d="M 694.944419 1655.977194 L 604.082386 1579.905742 L 834.65068 1746.329208 " transform="matrix(0.0995672,0,0,-0.0995672,0.122761,199.263766)"/>
<path style=" stroke:none;fill-rule:nonzero;fill:rgb(47.801208%,41.796875%,71.09375%);fill-opacity:1;" d="M 150.640625 180.285156 L 153.777344 125.296875 L 172.6875 123.152344 "/>
<path style="fill:none;stroke-width:5;stroke-linecap:round;stroke-linejoin:round;stroke:rgb(0%,0%,0%);stroke-opacity:1;stroke-miterlimit:10;" d="M 1511.721912 190.611127 L 1543.225458 742.884376 L 1733.149078 764.422915 Z M 1511.721912 190.611127 " transform="matrix(0.0995672,0,0,-0.0995672,0.122761,199.263766)"/>
<path style=" stroke:none;fill-rule:nonzero;fill:rgb(41.697693%,86.131287%,89.646912%);fill-opacity:1;" d="M 102.582031 171.164062 L 150.640625 180.285156 L 113.609375 176.859375 "/>
<path style="fill:none;stroke-width:5;stroke-linecap:round;stroke-linejoin:round;stroke:rgb(0%,0%,0%);stroke-opacity:1;stroke-miterlimit:10;" d="M 1029.046784 282.218575 L 1511.721912 190.611127 L 1139.799599 225.017865 Z M 1029.046784 282.218575 " transform="matrix(0.0995672,0,0,-0.0995672,0.122761,199.263766)"/>
<path style="fill-rule:nonzero;fill:rgb(13.696289%,21.508789%,68.164062%);fill-opacity:1;stroke-width:5;stroke-linecap:round;stroke-linejoin:round;stroke:rgb(0%,0%,0%);stroke-opacity:1;stroke-miterlimit:10;" d="M 1748.29275 566.025116 L 1511.721912 190.611127 L 1660.059282 574.970083 " transform="matrix(0.0995672,0,0,-0.0995672,0.122761,199.263766)"/>
<path style="fill-rule:nonzero;fill:rgb(13.696289%,21.508789%,68.164062%);fill-opacity:1;stroke-width:5;stroke-linecap:round;stroke-linejoin:round;stroke:rgb(0%,0%,0%);stroke-opacity:1;stroke-miterlimit:10;" d="M 1660.059282 574.970083 L 1733.149078 764.422915 L 1748.29275 566.025116 " transform="matrix(0.0995672,0,0,-0.0995672,0.122761,199.263766)"/>
<path style="fill-rule:nonzero;fill:rgb(14.697266%,47.288513%,89.451599%);fill-opacity:1;stroke-width:5;stroke-linecap:round;stroke-linejoin:round;stroke:rgb(0%,0%,0%);stroke-opacity:1;stroke-miterlimit:10;" d="M 1748.29275 566.025116 L 2221.159801 819.779707 L 1842.607227 556.373968 " transform="matrix(0.0995672,0,0,-0.0995672,0.122761,199.263766)"/>
<path style=" stroke:none;fill-rule:nonzero;fill:rgb(60.742188%,18.701172%,0%);fill-opacity:1;" d="M 150.640625 180.285156 L 174.195312 142.90625 L 165.472656 156.46875 "/>
<path style="fill:none;stroke-width:5;stroke-linecap:round;stroke-linejoin:round;stroke:rgb(0%,0%,0%);stroke-opacity:1;stroke-miterlimit:10;" d="M 1511.721912 190.611127 L 1748.29275 566.025116 L 1660.686999 429.810531 Z M 1511.721912 190.611127 " transform="matrix(0.0995672,0,0,-0.0995672,0.122761,199.263766)"/>
<path style="fill-rule:nonzero;fill:rgb(14.697266%,47.288513%,89.451599%);fill-opacity:1;stroke-width:5;stroke-linecap:round;stroke-linejoin:round;stroke:rgb(0%,0%,0%);stroke-opacity:1;stroke-miterlimit:10;" d="M 1842.607227 556.373968 L 1660.686999 429.810531 L 1748.29275 566.025116 " transform="matrix(0.0995672,0,0,-0.0995672,0.122761,199.263766)"/>
<path style=" stroke:none;fill-rule:nonzero;fill:rgb(73.242188%,20.896912%,0%);fill-opacity:1;" d="M 150.640625 180.285156 L 165.472656 156.46875 L 141.898438 172.871094 "/>
<path style="fill:none;stroke-width:5;stroke-linecap:round;stroke-linejoin:round;stroke:rgb(0%,0%,0%);stroke-opacity:1;stroke-miterlimit:10;" d="M 1511.721912 190.611127 L 1660.686999 429.810531 L 1423.919999 265.074055 Z M 1511.721912 190.611127 " transform="matrix(0.0995672,0,0,-0.0995672,0.122761,199.263766)"/>
<path style=" stroke:none;fill-rule:nonzero;fill:rgb(77.34375%,87.304688%,92.1875%);fill-opacity:1;" d="M 150.640625 180.285156 L 102.582031 171.164062 L 93.742188 154.527344 "/>
<path style="fill:none;stroke-width:5;stroke-linecap:round;stroke-linejoin:round;stroke:rgb(0%,0%,0%);stroke-opacity:1;stroke-miterlimit:10;" d="M 1511.721912 190.611127 L 1029.046784 282.218575 L 940.264063 449.308989 Z M 1511.721912 190.611127 " transform="matrix(0.0995672,0,0,-0.0995672,0.122761,199.263766)"/>
<path style="fill-rule:nonzero;fill:rgb(14.697266%,47.288513%,89.451599%);fill-opacity:1;stroke-width:5;stroke-linecap:round;stroke-linejoin:round;stroke:rgb(0%,0%,0%);stroke-opacity:1;stroke-miterlimit:10;" d="M 1423.919999 265.074055 L 1660.686999 429.810531 L 1589.911909 319.803129 " transform="matrix(0.0995672,0,0,-0.0995672,0.122761,199.263766)"/>
<path style="fill-rule:nonzero;fill:rgb(41.601562%,0%,0%);fill-opacity:1;stroke-width:5;stroke-linecap:round;stroke-linejoin:round;stroke:rgb(0%,0%,0%);stroke-opacity:1;stroke-miterlimit:10;" d="M 1266.794591 213.287404 L 1511.721912 190.611127 L 1423.919999 265.074055 " transform="matrix(0.0995672,0,0,-0.0995672,0.122761,199.263766)"/>
<path style="fill-rule:nonzero;fill:rgb(14.697266%,47.288513%,89.451599%);fill-opacity:1;stroke-width:5;stroke-linecap:round;stroke-linejoin:round;stroke:rgb(0%,0%,0%);stroke-opacity:1;stroke-miterlimit:10;" d="M 1589.911909 319.803129 L 1431.962623 74.248092 L 1423.919999 265.074055 " transform="matrix(0.0995672,0,0,-0.0995672,0.122761,199.263766)"/>
<path style="fill-rule:nonzero;fill:rgb(41.601562%,0%,0%);fill-opacity:1;stroke-width:5;stroke-linecap:round;stroke-linejoin:round;stroke:rgb(0%,0%,0%);stroke-opacity:1;stroke-miterlimit:10;" d="M 1423.919999 265.074055 L 1139.799599 225.017865 L 1266.794591 213.287404 " transform="matrix(0.0995672,0,0,-0.0995672,0.122761,199.263766)"/>
<path style=" stroke:none;fill-rule:nonzero;fill:rgb(82.617188%,65.429688%,67.1875%);fill-opacity:1;" d="M 7.078125 80.355469 L 62.746094 75.960938 L 52.3125 100.398438 "/>
<path style="fill:none;stroke-width:5;stroke-linecap:round;stroke-linejoin:round;stroke:rgb(0%,0%,0%);stroke-opacity:1;stroke-miterlimit:10;" d="M 69.856 1194.25212 L 628.955671 1238.388471 L 524.166167 992.95113 Z M 69.856 1194.25212 " transform="matrix(0.0995672,0,0,-0.0995672,0.122761,199.263766)"/>
<path style=" stroke:none;fill-rule:nonzero;fill:rgb(81.834412%,55.664062%,54.492188%);fill-opacity:1;" d="M 7.078125 80.355469 L 57.148438 56.054688 L 62.746094 75.960938 "/>
<path style="fill:none;stroke-width:5;stroke-linecap:round;stroke-linejoin:round;stroke:rgb(0%,0%,0%);stroke-opacity:1;stroke-miterlimit:10;" d="M 69.856 1194.25212 L 572.735769 1438.31633 L 628.955671 1238.388471 Z M 69.856 1194.25212 " transform="matrix(0.0995672,0,0,-0.0995672,0.122761,199.263766)"/>
<path style=" stroke:none;fill-rule:nonzero;fill:rgb(85.546875%,76.367188%,75.976562%);fill-opacity:1;" d="M 7.078125 80.355469 L 52.3125 100.398438 L 51.152344 125.09375 "/>
<path style="fill:none;stroke-width:5;stroke-linecap:round;stroke-linejoin:round;stroke:rgb(0%,0%,0%);stroke-opacity:1;stroke-miterlimit:10;" d="M 69.856 1194.25212 L 524.166167 992.95113 L 512.51417 744.924457 Z M 69.856 1194.25212 " transform="matrix(0.0995672,0,0,-0.0995672,0.122761,199.263766)"/>
<path style=" stroke:none;fill-rule:nonzero;fill:rgb(66.796875%,73.4375%,90.039062%);fill-opacity:1;" d="M 48.28125 186.0625 L 93.742188 154.527344 L 102.582031 171.164062 "/>
<path style="fill:none;stroke-width:5;stroke-linecap:round;stroke-linejoin:round;stroke:rgb(0%,0%,0%);stroke-opacity:1;stroke-miterlimit:10;" d="M 483.678422 132.586539 L 940.264063 449.308989 L 1029.046784 282.218575 Z M 483.678422 132.586539 " transform="matrix(0.0995672,0,0,-0.0995672,0.122761,199.263766)"/>
<path style=" stroke:none;fill-rule:nonzero;fill:rgb(76.5625%,73.242188%,82.226562%);fill-opacity:1;" d="M 48.28125 186.0625 L 69.21875 143.429688 L 93.742188 154.527344 "/>
<path style="fill:none;stroke-width:5;stroke-linecap:round;stroke-linejoin:round;stroke:rgb(0%,0%,0%);stroke-opacity:1;stroke-miterlimit:10;" d="M 483.678422 132.586539 L 693.963611 560.767986 L 940.264063 449.308989 Z M 483.678422 132.586539 " transform="matrix(0.0995672,0,0,-0.0995672,0.122761,199.263766)"/>
<path style=" stroke:none;fill-rule:nonzero;fill:rgb(85.546875%,76.367188%,75.976562%);fill-opacity:1;" d="M 69.21875 143.429688 L 48.28125 186.0625 L 51.152344 125.09375 "/>
<path style="fill:none;stroke-width:5;stroke-linecap:round;stroke-linejoin:round;stroke:rgb(0%,0%,0%);stroke-opacity:1;stroke-miterlimit:10;" d="M 693.963611 560.767986 L 483.678422 132.586539 L 512.51417 744.924457 Z M 693.963611 560.767986 " transform="matrix(0.0995672,0,0,-0.0995672,0.122761,199.263766)"/>
<path style=" stroke:none;fill-rule:nonzero;fill:rgb(63.28125%,33.300781%,44.50531%);fill-opacity:1;" d="M 177.527344 9.894531 L 140.832031 43.894531 L 127.625 26.886719 "/>
<path style="fill:none;stroke-width:5;stroke-linecap:round;stroke-linejoin:round;stroke:rgb(0%,0%,0%);stroke-opacity:1;stroke-miterlimit:10;" d="M 1781.757912 1901.924555 L 1413.209578 1560.446516 L 1280.565133 1731.264 Z M 1781.757912 1901.924555 " transform="matrix(0.0995672,0,0,-0.0995672,0.122761,199.263766)"/>
<path style=" stroke:none;fill-rule:nonzero;fill:rgb(55.859375%,34.49707%,54.6875%);fill-opacity:1;" d="M 177.527344 9.894531 L 164.761719 54.550781 L 140.832031 43.894531 "/>
<path style="fill:none;stroke-width:5;stroke-linecap:round;stroke-linejoin:round;stroke:rgb(0%,0%,0%);stroke-opacity:1;stroke-miterlimit:10;" d="M 1781.757912 1901.924555 L 1653.546718 1453.42077 L 1413.209578 1560.446516 Z M 1781.757912 1901.924555 " transform="matrix(0.0995672,0,0,-0.0995672,0.122761,199.263766)"/>
<path style=" stroke:none;fill-rule:nonzero;fill:rgb(44.50531%,50.389099%,82.421875%);fill-opacity:1;" d="M 221.277344 117.640625 L 174.195312 142.90625 L 172.6875 123.152344 "/>
<path style="fill:none;stroke-width:5;stroke-linecap:round;stroke-linejoin:round;stroke:rgb(0%,0%,0%);stroke-opacity:1;stroke-miterlimit:10;" d="M 2221.159801 819.779707 L 1748.29275 566.025116 L 1733.149078 764.422915 Z M 2221.159801 819.779707 " transform="matrix(0.0995672,0,0,-0.0995672,0.122761,199.263766)"/>
<path style=" stroke:none;fill-rule:nonzero;fill:rgb(47.801208%,41.796875%,71.09375%);fill-opacity:1;" d="M 221.277344 117.640625 L 172.6875 123.152344 L 182.34375 98.121094 "/>
<path style="fill:none;stroke-width:5;stroke-linecap:round;stroke-linejoin:round;stroke:rgb(0%,0%,0%);stroke-opacity:1;stroke-miterlimit:10;" d="M 2221.159801 819.779707 L 1733.149078 764.422915 L 1830.131352 1015.823567 Z M 2221.159801 819.779707 " transform="matrix(0.0995672,0,0,-0.0995672,0.122761,199.263766)"/>
<path style=" stroke:none;fill-rule:nonzero;fill:rgb(97.068787%,84.179688%,65.625%);fill-opacity:1;" d="M 51.152344 125.09375 L 48.28125 186.0625 L 39.832031 128.03125 "/>
<path style="fill:none;stroke-width:5;stroke-linecap:round;stroke-linejoin:round;stroke:rgb(0%,0%,0%);stroke-opacity:1;stroke-miterlimit:10;" d="M 512.51417 744.924457 L 483.678422 132.586539 L 398.818932 715.421758 Z M 512.51417 744.924457 " transform="matrix(0.0995672,0,0,-0.0995672,0.122761,199.263766)"/>
<path style="fill-rule:nonzero;fill:rgb(0%,0%,0%);fill-opacity:1;stroke-width:5;stroke-linecap:round;stroke-linejoin:round;stroke:rgb(0%,0%,0%);stroke-opacity:1;stroke-miterlimit:10;" d="M 398.818932 715.421758 L 483.678422 132.586539 L 428.243165 532.952278 " transform="matrix(0.0995672,0,0,-0.0995672,0.122761,199.263766)"/>
<path style="fill-rule:nonzero;fill:rgb(90.429688%,93.164062%,82.03125%);fill-opacity:1;stroke-width:5;stroke-linecap:round;stroke-linejoin:round;stroke:rgb(0%,0%,0%);stroke-opacity:1;stroke-miterlimit:10;" d="M 370.924758 888.671646 L 512.51417 744.924457 L 398.818932 715.421758 " transform="matrix(0.0995672,0,0,-0.0995672,0.122761,199.263766)"/>
<path style="fill-rule:nonzero;fill:rgb(0%,0%,0%);fill-opacity:1;stroke-width:5;stroke-linecap:round;stroke-linejoin:round;stroke:rgb(0%,0%,0%);stroke-opacity:1;stroke-miterlimit:10;" d="M 428.243165 532.952278 L 400.427457 733.78248 L 398.818932 715.421758 " transform="matrix(0.0995672,0,0,-0.0995672,0.122761,199.263766)"/>
<path style="fill-rule:nonzero;fill:rgb(90.429688%,93.164062%,82.03125%);fill-opacity:1;stroke-width:5;stroke-linecap:round;stroke-linejoin:round;stroke:rgb(0%,0%,0%);stroke-opacity:1;stroke-miterlimit:10;" d="M 398.818932 715.421758 L 69.856 1194.25212 L 370.924758 888.671646 " transform="matrix(0.0995672,0,0,-0.0995672,0.122761,199.263766)"/>
<path style=" stroke:none;fill-rule:nonzero;fill:rgb(39.793396%,25%,56.054688%);fill-opacity:1;" d="M 177.527344 9.894531 L 180.953125 72.625 L 164.761719 54.550781 "/>
<path style="fill:none;stroke-width:5;stroke-linecap:round;stroke-linejoin:round;stroke:rgb(0%,0%,0%);stroke-opacity:1;stroke-miterlimit:10;" d="M 1781.757912 1901.924555 L 1816.164649 1271.892865 L 1653.546718 1453.42077 Z M 1781.757912 1901.924555 " transform="matrix(0.0995672,0,0,-0.0995672,0.122761,199.263766)"/>
<path style=" stroke:none;fill-rule:nonzero;fill:rgb(80.46875%,38.500977%,24.804688%);fill-opacity:1;" d="M 57.148438 56.054688 L 7.078125 80.355469 L 60.269531 41.957031 "/>
<path style="fill:none;stroke-width:5;stroke-linecap:round;stroke-linejoin:round;stroke:rgb(0%,0%,0%);stroke-opacity:1;stroke-miterlimit:10;" d="M 572.735769 1438.31633 L 69.856 1194.25212 L 604.082386 1579.905742 Z M 572.735769 1438.31633 " transform="matrix(0.0995672,0,0,-0.0995672,0.122761,199.263766)"/>
<path style=" stroke:none;fill-rule:nonzero;fill:rgb(39.793396%,25%,56.054688%);fill-opacity:1;" d="M 180.953125 72.625 L 221.277344 117.640625 L 182.34375 98.121094 "/>
<path style="fill:none;stroke-width:5;stroke-linecap:round;stroke-linejoin:round;stroke:rgb(0%,0%,0%);stroke-opacity:1;stroke-miterlimit:10;" d="M 1816.164649 1271.892865 L 2221.159801 819.779707 L 1830.131352 1015.823567 Z M 1816.164649 1271.892865 " transform="matrix(0.0995672,0,0,-0.0995672,0.122761,199.263766)"/>
<path style=" stroke:none;fill-rule:nonzero;fill:rgb(42.210388%,74.021912%,99.21875%);fill-opacity:1;" d="M 113.609375 176.859375 L 48.28125 186.0625 L 102.582031 171.164062 "/>
<path style="fill:none;stroke-width:5;stroke-linecap:round;stroke-linejoin:round;stroke:rgb(0%,0%,0%);stroke-opacity:1;stroke-miterlimit:10;" d="M 1139.799599 225.017865 L 483.678422 132.586539 L 1029.046784 282.218575 Z M 1139.799599 225.017865 " transform="matrix(0.0995672,0,0,-0.0995672,0.122761,199.263766)"/>
<path style=" stroke:none;fill-rule:nonzero;fill:rgb(60.9375%,14.208984%,12.109375%);fill-opacity:1;" d="M 111.167969 20.796875 L 177.527344 9.894531 L 127.625 26.886719 "/>
<path style="fill:none;stroke-width:5;stroke-linecap:round;stroke-linejoin:round;stroke:rgb(0%,0%,0%);stroke-opacity:1;stroke-miterlimit:10;" d="M 1115.279404 1792.427174 L 1781.757912 1901.924555 L 1280.565133 1731.264 Z M 1115.279404 1792.427174 " transform="matrix(0.0995672,0,0,-0.0995672,0.122761,199.263766)"/>
<path style="fill-rule:nonzero;fill:rgb(0%,0%,34.301758%);fill-opacity:1;stroke-width:5;stroke-linecap:round;stroke-linejoin:round;stroke:rgb(0%,0%,0%);stroke-opacity:1;stroke-miterlimit:10;" d="M 1871.756835 1311.164408 L 1816.164649 1271.892865 L 1805.218834 1472.644603 " transform="matrix(0.0995672,0,0,-0.0995672,0.122761,199.263766)"/>
<path style=" stroke:none;fill-rule:nonzero;fill:rgb(0.900269%,0%,15.087891%);fill-opacity:1;" d="M 221.277344 117.640625 L 180.953125 72.625 L 186.488281 68.714844 "/>
<path style="fill:none;stroke-width:5;stroke-linecap:round;stroke-linejoin:round;stroke:rgb(0%,0%,0%);stroke-opacity:1;stroke-miterlimit:10;" d="M 2221.159801 819.779707 L 1816.164649 1271.892865 L 1871.756835 1311.164408 Z M 2221.159801 819.779707 " transform="matrix(0.0995672,0,0,-0.0995672,0.122761,199.263766)"/>
<path style="fill-rule:nonzero;fill:rgb(87.889099%,99.21875%,75.78125%);fill-opacity:1;stroke-width:5;stroke-linecap:round;stroke-linejoin:round;stroke:rgb(0%,0%,0%);stroke-opacity:1;stroke-miterlimit:10;" d="M 1871.756835 1311.164408 L 1802.551037 1301.277866 L 1941.94344 1140.896177 " transform="matrix(0.0995672,0,0,-0.0995672,0.122761,199.263766)"/>
<path style="fill-rule:nonzero;fill:rgb(87.889099%,99.21875%,75.78125%);fill-opacity:1;stroke-width:5;stroke-linecap:round;stroke-linejoin:round;stroke:rgb(0%,0%,0%);stroke-opacity:1;stroke-miterlimit:10;" d="M 1941.94344 1140.896177 L 2221.159801 819.779707 L 1871.756835 1311.164408 " transform="matrix(0.0995672,0,0,-0.0995672,0.122761,199.263766)"/>
<path style="fill-rule:nonzero;fill:rgb(0%,0%,34.301758%);fill-opacity:1;stroke-width:5;stroke-linecap:round;stroke-linejoin:round;stroke:rgb(0%,0%,0%);stroke-opacity:1;stroke-miterlimit:10;" d="M 1805.218834 1472.644603 L 1781.757912 1901.924555 L 1871.756835 1311.164408 " transform="matrix(0.0995672,0,0,-0.0995672,0.122761,199.263766)"/>
<path style=" stroke:none;fill-rule:nonzero;fill:rgb(0%,0%,0%);fill-opacity:1;" d="M 39.992188 126.203125 L 7.078125 80.355469 L 39.832031 128.03125 "/>
<path style="fill:none;stroke-width:5;stroke-linecap:round;stroke-linejoin:round;stroke:rgb(0%,0%,0%);stroke-opacity:1;stroke-miterlimit:10;" d="M 400.427457 733.78248 L 69.856 1194.25212 L 398.818932 715.421758 Z M 400.427457 733.78248 " transform="matrix(0.0995672,0,0,-0.0995672,0.122761,199.263766)"/>
<path style=" stroke:none;fill-rule:nonzero;fill:rgb(24.804688%,9.912109%,47.410583%);fill-opacity:1;" d="M 7.078125 80.355469 L 39.992188 126.203125 L 36.269531 99.296875 "/>
<path style="fill:none;stroke-width:5;stroke-linecap:round;stroke-linejoin:round;stroke:rgb(0%,0%,0%);stroke-opacity:1;stroke-miterlimit:10;" d="M 69.856 1194.25212 L 400.427457 733.78248 L 363.039064 1004.014642 Z M 69.856 1194.25212 " transform="matrix(0.0995672,0,0,-0.0995672,0.122761,199.263766)"/>
<path style=" stroke:none;fill-rule:nonzero;fill:rgb(38.989258%,35.496521%,69.921875%);fill-opacity:1;" d="M 7.078125 80.355469 L 36.269531 99.296875 L 45.710938 71.632812 "/>
<path style="fill:none;stroke-width:5;stroke-linecap:round;stroke-linejoin:round;stroke:rgb(0%,0%,0%);stroke-opacity:1;stroke-miterlimit:10;" d="M 69.856 1194.25212 L 363.039064 1004.014642 L 457.863561 1281.857872 Z M 69.856 1194.25212 " transform="matrix(0.0995672,0,0,-0.0995672,0.122761,199.263766)"/>
<path style="fill-rule:nonzero;fill:rgb(0%,0%,51.951599%);fill-opacity:1;stroke-width:5;stroke-linecap:round;stroke-linejoin:round;stroke:rgb(0%,0%,0%);stroke-opacity:1;stroke-miterlimit:10;" d="M 478.382059 1474.606218 L 457.863561 1281.857872 L 531.384912 1497.243262 " transform="matrix(0.0995672,0,0,-0.0995672,0.122761,199.263766)"/>
<path style="fill-rule:nonzero;fill:rgb(0%,21.702576%,67.576599%);fill-opacity:1;stroke-width:5;stroke-linecap:round;stroke-linejoin:round;stroke:rgb(0%,0%,0%);stroke-opacity:1;stroke-miterlimit:10;" d="M 478.382059 1474.606218 L 604.082386 1579.905742 L 428.910115 1453.42077 " transform="matrix(0.0995672,0,0,-0.0995672,0.122761,199.263766)"/>
<path style=" stroke:none;fill-rule:nonzero;fill:rgb(89.646912%,48.094177%,10.301208%);fill-opacity:1;" d="M 47.753906 52.441406 L 68.453125 4.988281 L 60.269531 41.957031 "/>
<path style="fill:none;stroke-width:5;stroke-linecap:round;stroke-linejoin:round;stroke:rgb(0%,0%,0%);stroke-opacity:1;stroke-miterlimit:10;" d="M 478.382059 1474.606218 L 686.274078 1951.200338 L 604.082386 1579.905742 Z M 478.382059 1474.606218 " transform="matrix(0.0995672,0,0,-0.0995672,0.122761,199.263766)"/>
<path style="fill-rule:nonzero;fill:rgb(0%,0%,51.951599%);fill-opacity:1;stroke-width:5;stroke-linecap:round;stroke-linejoin:round;stroke:rgb(0%,0%,0%);stroke-opacity:1;stroke-miterlimit:10;" d="M 531.384912 1497.243262 L 686.274078 1951.200338 L 478.382059 1474.606218 " transform="matrix(0.0995672,0,0,-0.0995672,0.122761,199.263766)"/>
<path style="fill-rule:nonzero;fill:rgb(0%,21.702576%,67.576599%);fill-opacity:1;stroke-width:5;stroke-linecap:round;stroke-linejoin:round;stroke:rgb(0%,0%,0%);stroke-opacity:1;stroke-miterlimit:10;" d="M 428.910115 1453.42077 L 69.856 1194.25212 L 478.382059 1474.606218 " transform="matrix(0.0995672,0,0,-0.0995672,0.122761,199.263766)"/>
<path style=" stroke:none;fill-rule:nonzero;fill:rgb(31.492615%,44.897461%,83.789062%);fill-opacity:1;" d="M 47.753906 52.441406 L 7.078125 80.355469 L 45.710938 71.632812 "/>
<path style="fill:none;stroke-width:5;stroke-linecap:round;stroke-linejoin:round;stroke:rgb(0%,0%,0%);stroke-opacity:1;stroke-miterlimit:10;" d="M 478.382059 1474.606218 L 69.856 1194.25212 L 457.863561 1281.857872 Z M 478.382059 1474.606218 " transform="matrix(0.0995672,0,0,-0.0995672,0.122761,199.263766)"/>
<path style=" stroke:none;fill-rule:nonzero;fill:rgb(80.46875%,38.500977%,24.804688%);fill-opacity:1;" d="M 68.453125 4.988281 L 83.226562 25.386719 L 60.269531 41.957031 "/>
<path style="fill:none;stroke-width:5;stroke-linecap:round;stroke-linejoin:round;stroke:rgb(0%,0%,0%);stroke-opacity:1;stroke-miterlimit:10;" d="M 686.274078 1951.200338 L 834.65068 1746.329208 L 604.082386 1579.905742 Z M 686.274078 1951.200338 " transform="matrix(0.0995672,0,0,-0.0995672,0.122761,199.263766)"/>
<path style=" stroke:none;fill-rule:nonzero;fill:rgb(50.389099%,26.390076%,48.509216%);fill-opacity:1;" d="M 48.28125 186.0625 L 80.5 160.101562 L 54.972656 147.0625 "/>
<path style="fill:none;stroke-width:5;stroke-linecap:round;stroke-linejoin:round;stroke:rgb(0%,0%,0%);stroke-opacity:1;stroke-miterlimit:10;" d="M 483.678422 132.586539 L 807.266527 393.324481 L 550.883371 524.281937 Z M 483.678422 132.586539 " transform="matrix(0.0995672,0,0,-0.0995672,0.122761,199.263766)"/>
<path style="fill-rule:nonzero;fill:rgb(41.601562%,0%,0%);fill-opacity:1;stroke-width:5;stroke-linecap:round;stroke-linejoin:round;stroke:rgb(0%,0%,0%);stroke-opacity:1;stroke-miterlimit:10;" d="M 924.335744 194.691288 L 1139.799599 225.017865 L 964.352702 241.299274 " transform="matrix(0.0995672,0,0,-0.0995672,0.122761,199.263766)"/>
<path style=" stroke:none;fill-rule:nonzero;fill:rgb(41.697693%,86.131287%,89.646912%);fill-opacity:1;" d="M 142.699219 191.871094 L 96.140625 175.238281 L 113.609375 176.859375 "/>
<path style="fill:none;stroke-width:5;stroke-linecap:round;stroke-linejoin:round;stroke:rgb(0%,0%,0%);stroke-opacity:1;stroke-miterlimit:10;" d="M 1431.962623 74.248092 L 964.352702 241.299274 L 1139.799599 225.017865 Z M 1431.962623 74.248092 " transform="matrix(0.0995672,0,0,-0.0995672,0.122761,199.263766)"/>
<path style="fill-rule:nonzero;fill:rgb(15.696716%,0%,0%);fill-opacity:1;stroke-width:5;stroke-linecap:round;stroke-linejoin:round;stroke:rgb(0%,0%,0%);stroke-opacity:1;stroke-miterlimit:10;" d="M 964.352702 241.299274 L 1431.962623 74.248092 L 1007.233618 291.163542 " transform="matrix(0.0995672,0,0,-0.0995672,0.122761,199.263766)"/>
<path style="fill-rule:nonzero;fill:rgb(15.696716%,0%,0%);fill-opacity:1;stroke-width:5;stroke-linecap:round;stroke-linejoin:round;stroke:rgb(0%,0%,0%);stroke-opacity:1;stroke-miterlimit:10;" d="M 1007.233618 291.163542 L 807.266527 393.324481 L 964.352702 241.299274 " transform="matrix(0.0995672,0,0,-0.0995672,0.122761,199.263766)"/>
<path style="fill-rule:nonzero;fill:rgb(41.601562%,0%,0%);fill-opacity:1;stroke-width:5;stroke-linecap:round;stroke-linejoin:round;stroke:rgb(0%,0%,0%);stroke-opacity:1;stroke-miterlimit:10;" d="M 964.352702 241.299274 L 483.678422 132.586539 L 924.335744 194.691288 " transform="matrix(0.0995672,0,0,-0.0995672,0.122761,199.263766)"/>
<path style=" stroke:none;fill-rule:nonzero;fill:rgb(58.789062%,23.28949%,33.59375%);fill-opacity:1;" d="M 48.28125 186.0625 L 96.140625 175.238281 L 80.5 160.101562 "/>
<path style="fill:none;stroke-width:5;stroke-linecap:round;stroke-linejoin:round;stroke:rgb(0%,0%,0%);stroke-opacity:1;stroke-miterlimit:10;" d="M 483.678422 132.586539 L 964.352702 241.299274 L 807.266527 393.324481 Z M 483.678422 132.586539 " transform="matrix(0.0995672,0,0,-0.0995672,0.122761,199.263766)"/>
<path style=" stroke:none;fill-rule:nonzero;fill:rgb(24.804688%,9.912109%,47.410583%);fill-opacity:1;" d="M 48.28125 186.0625 L 54.972656 147.0625 L 39.992188 126.203125 "/>
<path style="fill:none;stroke-width:5;stroke-linecap:round;stroke-linejoin:round;stroke:rgb(0%,0%,0%);stroke-opacity:1;stroke-miterlimit:10;" d="M 483.678422 132.586539 L 550.883371 524.281937 L 400.427457 733.78248 Z M 483.678422 132.586539 " transform="matrix(0.0995672,0,0,-0.0995672,0.122761,199.263766)"/>
<path style="fill-rule:nonzero;fill:rgb(9.912109%,62.304688%,87.889099%);fill-opacity:1;stroke-width:5;stroke-linecap:round;stroke-linejoin:round;stroke:rgb(0%,0%,0%);stroke-opacity:1;stroke-miterlimit:10;" d="M 1232.701713 1787.640832 L 1781.757912 1901.924555 L 1331.253279 1827.893183 " transform="matrix(0.0995672,0,0,-0.0995672,0.122761,199.263766)"/>
<path style="fill-rule:nonzero;fill:rgb(9.912109%,62.304688%,87.889099%);fill-opacity:1;stroke-width:5;stroke-linecap:round;stroke-linejoin:round;stroke:rgb(0%,0%,0%);stroke-opacity:1;stroke-miterlimit:10;" d="M 1331.253279 1827.893183 L 1115.279404 1792.427174 L 1232.701713 1787.640832 " transform="matrix(0.0995672,0,0,-0.0995672,0.122761,199.263766)"/>
<path style=" stroke:none;fill-rule:nonzero;fill:rgb(4.199219%,0%,0%);fill-opacity:1;" d="M 68.453125 4.988281 L 122.859375 21.273438 L 111.167969 20.796875 "/>
<path style="fill:none;stroke-width:5;stroke-linecap:round;stroke-linejoin:round;stroke:rgb(0%,0%,0%);stroke-opacity:1;stroke-miterlimit:10;" d="M 686.274078 1951.200338 L 1232.701713 1787.640832 L 1115.279404 1792.427174 Z M 686.274078 1951.200338 " transform="matrix(0.0995672,0,0,-0.0995672,0.122761,199.263766)"/>
<path style="fill-rule:nonzero;fill:rgb(73.826599%,94.53125%,94.726562%);fill-opacity:1;stroke-width:5;stroke-linecap:round;stroke-linejoin:round;stroke:rgb(0%,0%,0%);stroke-opacity:1;stroke-miterlimit:10;" d="M 1232.701713 1787.640832 L 686.274078 1951.200338 L 1127.480653 1744.68145 " transform="matrix(0.0995672,0,0,-0.0995672,0.122761,199.263766)"/>
<path style="fill-rule:nonzero;fill:rgb(73.826599%,94.53125%,94.726562%);fill-opacity:1;stroke-width:5;stroke-linecap:round;stroke-linejoin:round;stroke:rgb(0%,0%,0%);stroke-opacity:1;stroke-miterlimit:10;" d="M 1127.480653 1744.68145 L 1339.609761 1645.38447 L 1232.701713 1787.640832 " transform="matrix(0.0995672,0,0,-0.0995672,0.122761,199.263766)"/>
<path style=" stroke:none;fill-rule:nonzero;fill:rgb(42.210388%,74.021912%,99.21875%);fill-opacity:1;" d="M 141.898438 172.871094 L 142.699219 191.871094 L 113.609375 176.859375 "/>
<path style="fill:none;stroke-width:5;stroke-linecap:round;stroke-linejoin:round;stroke:rgb(0%,0%,0%);stroke-opacity:1;stroke-miterlimit:10;" d="M 1423.919999 265.074055 L 1431.962623 74.248092 L 1139.799599 225.017865 Z M 1423.919999 265.074055 " transform="matrix(0.0995672,0,0,-0.0995672,0.122761,199.263766)"/>
<path style=" stroke:none;fill-rule:nonzero;fill:rgb(99.021912%,87.889099%,54.101562%);fill-opacity:1;" d="M 186.488281 68.714844 L 177.527344 9.894531 L 179.597656 69.699219 "/>
<path style="fill:none;stroke-width:5;stroke-linecap:round;stroke-linejoin:round;stroke:rgb(0%,0%,0%);stroke-opacity:1;stroke-miterlimit:10;" d="M 1871.756835 1311.164408 L 1781.757912 1901.924555 L 1802.551037 1301.277866 Z M 1871.756835 1311.164408 " transform="matrix(0.0995672,0,0,-0.0995672,0.122761,199.263766)"/>
<path style=" stroke:none;fill-rule:nonzero;fill:rgb(89.0625%,81.25%,76.5625%);fill-opacity:1;" d="M 177.527344 9.894531 L 160.992188 48.300781 L 179.597656 69.699219 "/>
<path style="fill:none;stroke-width:5;stroke-linecap:round;stroke-linejoin:round;stroke:rgb(0%,0%,0%);stroke-opacity:1;stroke-miterlimit:10;" d="M 1781.757912 1901.924555 L 1615.687537 1516.192468 L 1802.551037 1301.277866 Z M 1781.757912 1901.924555 " transform="matrix(0.0995672,0,0,-0.0995672,0.122761,199.263766)"/>
<path style=" stroke:none;fill-rule:nonzero;fill:rgb(77.734375%,77.146912%,84.959412%);fill-opacity:1;" d="M 177.527344 9.894531 L 133.503906 35.4375 L 160.992188 48.300781 "/>
<path style="fill:none;stroke-width:5;stroke-linecap:round;stroke-linejoin:round;stroke:rgb(0%,0%,0%);stroke-opacity:1;stroke-miterlimit:10;" d="M 1781.757912 1901.924555 L 1339.609761 1645.38447 L 1615.687537 1516.192468 Z M 1781.757912 1901.924555 " transform="matrix(0.0995672,0,0,-0.0995672,0.122761,199.263766)"/>
<path style=" stroke:none;fill-rule:nonzero;fill:rgb(63.476562%,77.34375%,94.726562%);fill-opacity:1;" d="M 177.527344 9.894531 L 122.859375 21.273438 L 133.503906 35.4375 "/>
<path style="fill:none;stroke-width:5;stroke-linecap:round;stroke-linejoin:round;stroke:rgb(0%,0%,0%);stroke-opacity:1;stroke-miterlimit:10;" d="M 1781.757912 1901.924555 L 1232.701713 1787.640832 L 1339.609761 1645.38447 Z M 1781.757912 1901.924555 " transform="matrix(0.0995672,0,0,-0.0995672,0.122761,199.263766)"/>
<path style=" stroke:none;fill-rule:nonzero;fill:rgb(73.242188%,20.896912%,0%);fill-opacity:1;" d="M 221.277344 117.640625 L 172.546875 145.109375 L 165.472656 156.46875 "/>
<path style="fill:none;stroke-width:5;stroke-linecap:round;stroke-linejoin:round;stroke:rgb(0%,0%,0%);stroke-opacity:1;stroke-miterlimit:10;" d="M 2221.159801 819.779707 L 1731.736715 543.898092 L 1660.686999 429.810531 Z M 2221.159801 819.779707 " transform="matrix(0.0995672,0,0,-0.0995672,0.122761,199.263766)"/>
<path style=" stroke:none;fill-rule:nonzero;fill:rgb(60.742188%,18.701172%,0%);fill-opacity:1;" d="M 142.699219 191.871094 L 165.472656 156.46875 L 172.546875 145.109375 "/>
<path style="fill:none;stroke-width:5;stroke-linecap:round;stroke-linejoin:round;stroke:rgb(0%,0%,0%);stroke-opacity:1;stroke-miterlimit:10;" d="M 1431.962623 74.248092 L 1660.686999 429.810531 L 1731.736715 543.898092 Z M 1431.962623 74.248092 " transform="matrix(0.0995672,0,0,-0.0995672,0.122761,199.263766)"/>
<path style=" stroke:none;fill-rule:nonzero;fill:rgb(84.179688%,53.90625%,47.996521%);fill-opacity:1;" d="M 172.546875 145.109375 L 221.277344 117.640625 L 169.386719 124.777344 "/>
<path style="fill:none;stroke-width:5;stroke-linecap:round;stroke-linejoin:round;stroke:rgb(0%,0%,0%);stroke-opacity:1;stroke-miterlimit:10;" d="M 1731.736715 543.898092 L 2221.159801 819.779707 L 1699.997775 748.102274 Z M 1731.736715 543.898092 " transform="matrix(0.0995672,0,0,-0.0995672,0.122761,199.263766)"/>
<path style=" stroke:none;fill-rule:nonzero;fill:rgb(85.351562%,67.381287%,65.625%);fill-opacity:1;" d="M 221.277344 117.640625 L 180.535156 96.738281 L 169.386719 124.777344 "/>
<path style="fill:none;stroke-width:5;stroke-linecap:round;stroke-linejoin:round;stroke:rgb(0%,0%,0%);stroke-opacity:1;stroke-miterlimit:10;" d="M 2221.159801 819.779707 L 1811.966792 1029.711806 L 1699.997775 748.102274 Z M 2221.159801 819.779707 " transform="matrix(0.0995672,0,0,-0.0995672,0.122761,199.263766)"/>
<path style=" stroke:none;fill-rule:nonzero;fill:rgb(89.0625%,81.25%,76.5625%);fill-opacity:1;" d="M 221.277344 117.640625 L 179.597656 69.699219 L 180.535156 96.738281 "/>
<path style="fill:none;stroke-width:5;stroke-linecap:round;stroke-linejoin:round;stroke:rgb(0%,0%,0%);stroke-opacity:1;stroke-miterlimit:10;" d="M 2221.159801 819.779707 L 1802.551037 1301.277866 L 1811.966792 1029.711806 Z M 2221.159801 819.779707 " transform="matrix(0.0995672,0,0,-0.0995672,0.122761,199.263766)"/>
<path style=" stroke:none;fill-rule:nonzero;fill:rgb(0%,0%,0%);fill-opacity:1;" d="M 40.421875 121.308594 L 39.992188 126.203125 L 54.972656 147.0625 "/>
<path style="fill:none;stroke-width:5;stroke-linecap:round;stroke-linejoin:round;stroke:rgb(0%,0%,0%);stroke-opacity:1;stroke-miterlimit:10;" d="M 404.743011 782.940566 L 400.427457 733.78248 L 550.883371 524.281937 Z M 404.743011 782.940566 " transform="matrix(0.0995672,0,0,-0.0995672,0.122761,199.263766)"/>
<path style=" stroke:none;fill-rule:nonzero;fill:rgb(0%,0%,0%);fill-opacity:1;" d="M 40.421875 121.308594 L 36.269531 99.296875 L 39.992188 126.203125 "/>
<path style="fill:none;stroke-width:5;stroke-linecap:round;stroke-linejoin:round;stroke:rgb(0%,0%,0%);stroke-opacity:1;stroke-miterlimit:10;" d="M 404.743011 782.940566 L 363.039064 1004.014642 L 400.427457 733.78248 Z M 404.743011 782.940566 " transform="matrix(0.0995672,0,0,-0.0995672,0.122761,199.263766)"/>
<path style=" stroke:none;fill-rule:nonzero;fill:rgb(0%,0%,51.951599%);fill-opacity:1;" d="M 40.421875 121.308594 L 45.710938 71.632812 L 36.269531 99.296875 "/>
<path style="fill:none;stroke-width:5;stroke-linecap:round;stroke-linejoin:round;stroke:rgb(0%,0%,0%);stroke-opacity:1;stroke-miterlimit:10;" d="M 404.743011 782.940566 L 457.863561 1281.857872 L 363.039064 1004.014642 Z M 404.743011 782.940566 " transform="matrix(0.0995672,0,0,-0.0995672,0.122761,199.263766)"/>
<path style=" stroke:none;fill-rule:nonzero;fill:rgb(96.679688%,68.75%,45.701599%);fill-opacity:1;" d="M 169.386719 124.777344 L 142.699219 191.871094 L 172.546875 145.109375 "/>
<path style="fill:none;stroke-width:5;stroke-linecap:round;stroke-linejoin:round;stroke:rgb(0%,0%,0%);stroke-opacity:1;stroke-miterlimit:10;" d="M 1699.997775 748.102274 L 1431.962623 74.248092 L 1731.736715 543.898092 Z M 1699.997775 748.102274 " transform="matrix(0.0995672,0,0,-0.0995672,0.122761,199.263766)"/>
<path style=" stroke:none;fill-rule:nonzero;fill:rgb(15.696716%,0%,0%);fill-opacity:1;" d="M 40.421875 121.308594 L 54.972656 147.0625 L 80.5 160.101562 "/>
<path style="fill:none;stroke-width:5;stroke-linecap:round;stroke-linejoin:round;stroke:rgb(0%,0%,0%);stroke-opacity:1;stroke-miterlimit:10;" d="M 404.743011 782.940566 L 550.883371 524.281937 L 807.266527 393.324481 Z M 404.743011 782.940566 " transform="matrix(0.0995672,0,0,-0.0995672,0.122761,199.263766)"/>
<path style=" stroke:none;fill-rule:nonzero;fill:rgb(87.889099%,99.21875%,75.78125%);fill-opacity:1;" d="M 161.226562 72.332031 L 179.597656 69.699219 L 160.992188 48.300781 "/>
<path style="fill:none;stroke-width:5;stroke-linecap:round;stroke-linejoin:round;stroke:rgb(0%,0%,0%);stroke-opacity:1;stroke-miterlimit:10;" d="M 1618.041476 1274.835288 L 1802.551037 1301.277866 L 1615.687537 1516.192468 Z M 1618.041476 1274.835288 " transform="matrix(0.0995672,0,0,-0.0995672,0.122761,199.263766)"/>
<path style=" stroke:none;fill-rule:nonzero;fill:rgb(99.021912%,87.889099%,54.101562%);fill-opacity:1;" d="M 161.226562 72.332031 L 180.535156 96.738281 L 179.597656 69.699219 "/>
<path style="fill:none;stroke-width:5;stroke-linecap:round;stroke-linejoin:round;stroke:rgb(0%,0%,0%);stroke-opacity:1;stroke-miterlimit:10;" d="M 1618.041476 1274.835288 L 1811.966792 1029.711806 L 1802.551037 1301.277866 Z M 1618.041476 1274.835288 " transform="matrix(0.0995672,0,0,-0.0995672,0.122761,199.263766)"/>
<path style=" stroke:none;fill-rule:nonzero;fill:rgb(38.989258%,35.496521%,69.921875%);fill-opacity:1;" d="M 68.453125 4.988281 L 45.710938 71.632812 L 63.921875 67.527344 "/>
<path style="fill:none;stroke-width:5;stroke-linecap:round;stroke-linejoin:round;stroke:rgb(0%,0%,0%);stroke-opacity:1;stroke-miterlimit:10;" d="M 686.274078 1951.200338 L 457.863561 1281.857872 L 640.764597 1323.091031 Z M 686.274078 1951.200338 " transform="matrix(0.0995672,0,0,-0.0995672,0.122761,199.263766)"/>
<path style=" stroke:none;fill-rule:nonzero;fill:rgb(31.492615%,44.897461%,83.789062%);fill-opacity:1;" d="M 45.710938 71.632812 L 40.421875 121.308594 L 63.921875 67.527344 "/>
<path style="fill:none;stroke-width:5;stroke-linecap:round;stroke-linejoin:round;stroke:rgb(0%,0%,0%);stroke-opacity:1;stroke-miterlimit:10;" d="M 457.863561 1281.857872 L 404.743011 782.940566 L 640.764597 1323.091031 Z M 457.863561 1281.857872 " transform="matrix(0.0995672,0,0,-0.0995672,0.122761,199.263766)"/>
<path style=" stroke:none;fill-rule:nonzero;fill:rgb(58.789062%,23.28949%,33.59375%);fill-opacity:1;" d="M 40.421875 121.308594 L 80.5 160.101562 L 95.652344 147.890625 "/>
<path style="fill:none;stroke-width:5;stroke-linecap:round;stroke-linejoin:round;stroke:rgb(0%,0%,0%);stroke-opacity:1;stroke-miterlimit:10;" d="M 404.743011 782.940566 L 807.266527 393.324481 L 959.448663 515.964687 Z M 404.743011 782.940566 " transform="matrix(0.0995672,0,0,-0.0995672,0.122761,199.263766)"/>
<path style=" stroke:none;fill-rule:nonzero;fill:rgb(50.389099%,26.390076%,48.509216%);fill-opacity:1;" d="M 142.699219 191.871094 L 95.652344 147.890625 L 80.5 160.101562 "/>
<path style="fill:none;stroke-width:5;stroke-linecap:round;stroke-linejoin:round;stroke:rgb(0%,0%,0%);stroke-opacity:1;stroke-miterlimit:10;" d="M 1431.962623 74.248092 L 959.448663 515.964687 L 807.266527 393.324481 Z M 1431.962623 74.248092 " transform="matrix(0.0995672,0,0,-0.0995672,0.122761,199.263766)"/>
<path style=" stroke:none;fill-rule:nonzero;fill:rgb(73.826599%,94.53125%,94.726562%);fill-opacity:1;" d="M 161.226562 72.332031 L 160.992188 48.300781 L 133.503906 35.4375 "/>
<path style="fill:none;stroke-width:5;stroke-linecap:round;stroke-linejoin:round;stroke:rgb(0%,0%,0%);stroke-opacity:1;stroke-miterlimit:10;" d="M 1618.041476 1274.835288 L 1615.687537 1516.192468 L 1339.609761 1645.38447 Z M 1618.041476 1274.835288 " transform="matrix(0.0995672,0,0,-0.0995672,0.122761,199.263766)"/>
<path style=" stroke:none;fill-rule:nonzero;fill:rgb(63.476562%,77.34375%,94.726562%);fill-opacity:1;" d="M 113.113281 47.265625 L 161.226562 72.332031 L 133.503906 35.4375 "/>
<path style="fill:none;stroke-width:5;stroke-linecap:round;stroke-linejoin:round;stroke:rgb(0%,0%,0%);stroke-opacity:1;stroke-miterlimit:10;" d="M 1134.817095 1526.589031 L 1618.041476 1274.835288 L 1339.609761 1645.38447 Z M 1134.817095 1526.589031 " transform="matrix(0.0995672,0,0,-0.0995672,0.122761,199.263766)"/>
<path style=" stroke:none;fill-rule:nonzero;fill:rgb(77.734375%,77.146912%,84.959412%);fill-opacity:1;" d="M 133.503906 35.4375 L 68.453125 4.988281 L 113.113281 47.265625 "/>
<path style="fill:none;stroke-width:5;stroke-linecap:round;stroke-linejoin:round;stroke:rgb(0%,0%,0%);stroke-opacity:1;stroke-miterlimit:10;" d="M 1339.609761 1645.38447 L 686.274078 1951.200338 L 1134.817095 1526.589031 Z M 1339.609761 1645.38447 " transform="matrix(0.0995672,0,0,-0.0995672,0.122761,199.263766)"/>
<path style=" stroke:none;fill-rule:nonzero;fill:rgb(96.679688%,68.75%,45.701599%);fill-opacity:1;" d="M 161.226562 72.332031 L 169.386719 124.777344 L 180.535156 96.738281 "/>
<path style="fill:none;stroke-width:5;stroke-linecap:round;stroke-linejoin:round;stroke:rgb(0%,0%,0%);stroke-opacity:1;stroke-miterlimit:10;" d="M 1618.041476 1274.835288 L 1699.997775 748.102274 L 1811.966792 1029.711806 Z M 1618.041476 1274.835288 " transform="matrix(0.0995672,0,0,-0.0995672,0.122761,199.263766)"/>
<path style=" stroke:none;fill-rule:nonzero;fill:rgb(84.179688%,53.90625%,47.996521%);fill-opacity:1;" d="M 161.226562 72.332031 L 145.402344 128.074219 L 169.386719 124.777344 "/>
<path style="fill:none;stroke-width:5;stroke-linecap:round;stroke-linejoin:round;stroke:rgb(0%,0%,0%);stroke-opacity:1;stroke-miterlimit:10;" d="M 1618.041476 1274.835288 L 1459.111382 714.990203 L 1699.997775 748.102274 Z M 1618.041476 1274.835288 " transform="matrix(0.0995672,0,0,-0.0995672,0.122761,199.263766)"/>
<path style=" stroke:none;fill-rule:nonzero;fill:rgb(85.351562%,67.381287%,65.625%);fill-opacity:1;" d="M 142.699219 191.871094 L 169.386719 124.777344 L 145.402344 128.074219 "/>
<path style="fill:none;stroke-width:5;stroke-linecap:round;stroke-linejoin:round;stroke:rgb(0%,0%,0%);stroke-opacity:1;stroke-miterlimit:10;" d="M 1431.962623 74.248092 L 1699.997775 748.102274 L 1459.111382 714.990203 Z M 1431.962623 74.248092 " transform="matrix(0.0995672,0,0,-0.0995672,0.122761,199.263766)"/>
<path style=" stroke:none;fill-rule:nonzero;fill:rgb(70.701599%,63.671875%,77.539062%);fill-opacity:1;" d="M 68.453125 4.988281 L 91.867188 68.90625 L 113.113281 47.265625 "/>
<path style="fill:none;stroke-width:5;stroke-linecap:round;stroke-linejoin:round;stroke:rgb(0%,0%,0%);stroke-opacity:1;stroke-miterlimit:10;" d="M 686.274078 1951.200338 L 921.432553 1309.242025 L 1134.817095 1526.589031 Z M 686.274078 1951.200338 " transform="matrix(0.0995672,0,0,-0.0995672,0.122761,199.263766)"/>
<path style=" stroke:none;fill-rule:nonzero;fill:rgb(59.959412%,51.756287%,73.4375%);fill-opacity:1;" d="M 68.453125 4.988281 L 63.921875 67.527344 L 91.867188 68.90625 "/>
<path style="fill:none;stroke-width:5;stroke-linecap:round;stroke-linejoin:round;stroke:rgb(0%,0%,0%);stroke-opacity:1;stroke-miterlimit:10;" d="M 686.274078 1951.200338 L 640.764597 1323.091031 L 921.432553 1309.242025 Z M 686.274078 1951.200338 " transform="matrix(0.0995672,0,0,-0.0995672,0.122761,199.263766)"/>
<path style=" stroke:none;fill-rule:nonzero;fill:rgb(59.179688%,61.521912%,84.568787%);fill-opacity:1;" d="M 63.921875 67.527344 L 40.421875 121.308594 L 91.867188 68.90625 "/>
<path style="fill:none;stroke-width:5;stroke-linecap:round;stroke-linejoin:round;stroke:rgb(0%,0%,0%);stroke-opacity:1;stroke-miterlimit:10;" d="M 640.764597 1323.091031 L 404.743011 782.940566 L 921.432553 1309.242025 Z M 640.764597 1323.091031 " transform="matrix(0.0995672,0,0,-0.0995672,0.122761,199.263766)"/>
<path style=" stroke:none;fill-rule:nonzero;fill:rgb(74.609375%,58.984375%,67.96875%);fill-opacity:1;" d="M 114.578125 126.089844 L 142.699219 191.871094 L 145.402344 128.074219 "/>
<path style="fill:none;stroke-width:5;stroke-linecap:round;stroke-linejoin:round;stroke:rgb(0%,0%,0%);stroke-opacity:1;stroke-miterlimit:10;" d="M 1149.529212 734.920217 L 1431.962623 74.248092 L 1459.111382 714.990203 Z M 1149.529212 734.920217 " transform="matrix(0.0995672,0,0,-0.0995672,0.122761,199.263766)"/>
<path style=" stroke:none;fill-rule:nonzero;fill:rgb(64.451599%,47.192383%,63.476562%);fill-opacity:1;" d="M 142.699219 191.871094 L 114.578125 126.089844 L 95.652344 147.890625 "/>
<path style="fill:none;stroke-width:5;stroke-linecap:round;stroke-linejoin:round;stroke:rgb(0%,0%,0%);stroke-opacity:1;stroke-miterlimit:10;" d="M 1431.962623 74.248092 L 1149.529212 734.920217 L 959.448663 515.964687 Z M 1431.962623 74.248092 " transform="matrix(0.0995672,0,0,-0.0995672,0.122761,199.263766)"/>
<path style=" stroke:none;fill-rule:nonzero;fill:rgb(72.459412%,47.509766%,54.881287%);fill-opacity:1;" d="M 40.421875 121.308594 L 95.652344 147.890625 L 114.578125 126.089844 "/>
<path style="fill:none;stroke-width:5;stroke-linecap:round;stroke-linejoin:round;stroke:rgb(0%,0%,0%);stroke-opacity:1;stroke-miterlimit:10;" d="M 404.743011 782.940566 L 959.448663 515.964687 L 1149.529212 734.920217 Z M 404.743011 782.940566 " transform="matrix(0.0995672,0,0,-0.0995672,0.122761,199.263766)"/>
<path style=" stroke:none;fill-rule:nonzero;fill:rgb(59.179688%,61.521912%,84.568787%);fill-opacity:1;" d="M 161.226562 72.332031 L 113.113281 47.265625 L 91.867188 68.90625 "/>
<path style="fill:none;stroke-width:5;stroke-linecap:round;stroke-linejoin:round;stroke:rgb(0%,0%,0%);stroke-opacity:1;stroke-miterlimit:10;" d="M 1618.041476 1274.835288 L 1134.817095 1526.589031 L 921.432553 1309.242025 Z M 1618.041476 1274.835288 " transform="matrix(0.0995672,0,0,-0.0995672,0.122761,199.263766)"/>
<path style=" stroke:none;fill-rule:nonzero;fill:rgb(72.459412%,47.509766%,54.881287%);fill-opacity:1;" d="M 145.402344 128.074219 L 161.226562 72.332031 L 114.578125 126.089844 "/>
<path style="fill:none;stroke-width:5;stroke-linecap:round;stroke-linejoin:round;stroke:rgb(0%,0%,0%);stroke-opacity:1;stroke-miterlimit:10;" d="M 1459.111382 714.990203 L 1618.041476 1274.835288 L 1149.529212 734.920217 Z M 1459.111382 714.990203 " transform="matrix(0.0995672,0,0,-0.0995672,0.122761,199.263766)"/>
<path style=" stroke:none;fill-rule:nonzero;fill:rgb(59.959412%,51.756287%,73.4375%);fill-opacity:1;" d="M 102.269531 97.304688 L 161.226562 72.332031 L 91.867188 68.90625 "/>
<path style="fill:none;stroke-width:5;stroke-linecap:round;stroke-linejoin:round;stroke:rgb(0%,0%,0%);stroke-opacity:1;stroke-miterlimit:10;" d="M 1025.908199 1024.023121 L 1618.041476 1274.835288 L 921.432553 1309.242025 Z M 1025.908199 1024.023121 " transform="matrix(0.0995672,0,0,-0.0995672,0.122761,199.263766)"/>
<path style=" stroke:none;fill-rule:nonzero;fill:rgb(70.701599%,63.671875%,77.539062%);fill-opacity:1;" d="M 40.421875 121.308594 L 102.269531 97.304688 L 91.867188 68.90625 "/>
<path style="fill:none;stroke-width:5;stroke-linecap:round;stroke-linejoin:round;stroke:rgb(0%,0%,0%);stroke-opacity:1;stroke-miterlimit:10;" d="M 404.743011 782.940566 L 1025.908199 1024.023121 L 921.432553 1309.242025 Z M 404.743011 782.940566 " transform="matrix(0.0995672,0,0,-0.0995672,0.122761,199.263766)"/>
<path style=" stroke:none;fill-rule:nonzero;fill:rgb(74.609375%,58.984375%,67.96875%);fill-opacity:1;" d="M 102.269531 97.304688 L 40.421875 121.308594 L 114.578125 126.089844 "/>
<path style="fill:none;stroke-width:5;stroke-linecap:round;stroke-linejoin:round;stroke:rgb(0%,0%,0%);stroke-opacity:1;stroke-miterlimit:10;" d="M 1025.908199 1024.023121 L 404.743011 782.940566 L 1149.529212 734.920217 Z M 1025.908199 1024.023121 " transform="matrix(0.0995672,0,0,-0.0995672,0.122761,199.263766)"/>
<path style=" stroke:none;fill-rule:nonzero;fill:rgb(64.451599%,47.192383%,63.476562%);fill-opacity:1;" d="M 114.578125 126.089844 L 161.226562 72.332031 L 102.269531 97.304688 "/>
<path style="fill:none;stroke-width:5;stroke-linecap:round;stroke-linejoin:round;stroke:rgb(0%,0%,0%);stroke-opacity:1;stroke-miterlimit:10;" d="M 1149.529212 734.920217 L 1618.041476 1274.835288 L 1025.908199 1024.023121 Z M 1149.529212 734.920217 " transform="matrix(0.0995672,0,0,-0.0995672,0.122761,199.263766)"/>
</g>
</svg>
