<?xml version="1.0" encoding="UTF-8"?>
<svg xmlns="http://www.w3.org/2000/svg" xmlns:xlink="http://www.w3.org/1999/xlink" width="141.74pt" height="152.05pt" viewBox="0 0 141.74 152.05" version="1.2">
<defs>
<clipPath id="clip1">
  <path d="M 0.3125 14 L 52 14 L 52 117 L 0.3125 117 Z M 0.3125 14 "/>
</clipPath>
<clipPath id="clip2">
  <path d="M 0.3125 64 L 135 64 L 135 117 L 0.3125 117 Z M 0.3125 64 "/>
</clipPath>
<clipPath id="clip3">
  <path d="M 0.3125 63 L 135 63 L 135 117 L 0.3125 117 Z M 0.3125 63 "/>
</clipPath>
<clipPath id="clip4">
  <path d="M 102 0 L 141.171875 0 L 141.171875 91 L 102 91 Z M 102 0 "/>
</clipPath>
<clipPath id="clip5">
  <path d="M 0.3125 90 L 135 90 L 135 151 L 0.3125 151 Z M 0.3125 90 "/>
</clipPath>
<clipPath id="clip6">
  <path d="M 0.3125 90 L 135 90 L 135 151.105469 L 0.3125 151.105469 Z M 0.3125 90 "/>
</clipPath>
<clipPath id="clip7">
  <path d="M 91 53 L 141.171875 53 L 141.171875 151.105469 L 91 151.105469 Z M 91 53 "/>
</clipPath>
<clipPath id="clip8">
  <path d="M 28 0 L 141.171875 0 L 141.171875 74 L 28 74 Z M 28 0 "/>
</clipPath>
<clipPath id="clip9">
  <path d="M 0.3125 73 L 92 73 L 92 151 L 0.3125 151 Z M 0.3125 73 "/>
</clipPath>
<clipPath id="clip10">
  <path d="M 0.3125 72 L 92 72 L 92 151.105469 L 0.3125 151.105469 Z M 0.3125 72 "/>
</clipPath>
<clipPath id="clip11">
  <path d="M 0.3125 14 L 29 14 L 29 117 L 0.3125 117 Z M 0.3125 14 "/>
</clipPath>
<clipPath id="clip12">
  <path d="M 28 53 L 141.171875 53 L 141.171875 151.105469 L 28 151.105469 Z M 28 53 "/>
</clipPath>
</defs>
<g id="surface1">
<g clip-path="url(#clip1)" clip-rule="nonzero">
<path style="fill-rule:nonzero;fill:rgb(91.340637%,69.229126%,58.985901%);fill-opacity:1;stroke-width:5;stroke-linecap:round;stroke-linejoin:round;stroke:rgb(13.729858%,12.159729%,12.548828%);stroke-opacity:1;stroke-miterlimit:10;" d="M 51.783346 1375.694632 L 2.49292 351.365669 L 513.910576 874.378761 Z M 51.783346 1375.694632 " transform="matrix(0.0993791,0,0,-0.0993791,0.31085,151.105899)"/>
</g>
<path style="fill-rule:nonzero;fill:rgb(57.939148%,36.775208%,64.450073%);fill-opacity:1;stroke-width:5;stroke-linecap:round;stroke-linejoin:round;stroke:rgb(13.729858%,12.159729%,12.548828%);stroke-opacity:1;stroke-miterlimit:10;" d="M 1027.608013 1517.98438 L 513.910576 874.378761 L 1345.283634 607.998202 Z M 1027.608013 1517.98438 " transform="matrix(0.0993791,0,0,-0.0993791,0.31085,151.105899)"/>
<path style="fill-rule:nonzero;fill:rgb(74.523926%,36.685181%,45.388794%);fill-opacity:1;stroke-width:5;stroke-linecap:round;stroke-linejoin:round;stroke:rgb(13.729858%,12.159729%,12.548828%);stroke-opacity:1;stroke-miterlimit:10;" d="M 1027.608013 1517.98438 L 51.783346 1375.694632 L 513.910576 874.378761 Z M 1027.608013 1517.98438 " transform="matrix(0.0993791,0,0,-0.0993791,0.31085,151.105899)"/>
<g clip-path="url(#clip2)" clip-rule="nonzero">
<path style=" stroke:none;fill-rule:nonzero;fill:rgb(68.736267%,73.138428%,89.555359%);fill-opacity:1;" d="M 134.003906 90.683594 L 51.382812 64.210938 L 0.558594 116.1875 "/>
</g>
<g clip-path="url(#clip3)" clip-rule="nonzero">
<path style="fill:none;stroke-width:5;stroke-linecap:round;stroke-linejoin:round;stroke:rgb(13.729858%,12.159729%,12.548828%);stroke-opacity:1;stroke-miterlimit:10;" d="M 1345.283634 607.998202 L 513.910576 874.378761 L 2.49292 351.365669 " transform="matrix(0.0993791,0,0,-0.0993791,0.31085,151.105899)"/>
</g>
<path style=" stroke:none;fill-rule:nonzero;fill:rgb(8.460999%,9.01947%,14.97345%);fill-opacity:1;" d="M 140.921875 53.558594 L 102.433594 0.25 L 134.003906 90.683594 Z M 140.921875 53.558594 "/>
<g clip-path="url(#clip4)" clip-rule="nonzero">
<path style="fill:none;stroke-width:5;stroke-linecap:round;stroke-linejoin:round;stroke:rgb(13.729858%,12.159729%,12.548828%);stroke-opacity:1;stroke-miterlimit:10;" d="M 1414.895552 981.567751 L 1027.608013 1517.98438 L 1345.283634 607.998202 Z M 1414.895552 981.567751 " transform="matrix(0.0993791,0,0,-0.0993791,0.31085,151.105899)"/>
</g>
<g clip-path="url(#clip5)" clip-rule="nonzero">
<path style=" stroke:none;fill-rule:nonzero;fill:rgb(68.736267%,73.138428%,89.555359%);fill-opacity:1;" d="M 0.558594 116.1875 L 91.449219 150.859375 L 134.003906 90.683594 "/>
</g>
<g clip-path="url(#clip6)" clip-rule="nonzero">
<path style="fill:none;stroke-width:5;stroke-linecap:round;stroke-linejoin:round;stroke:rgb(13.729858%,12.159729%,12.548828%);stroke-opacity:1;stroke-miterlimit:10;" d="M 2.49292 351.365669 L 917.077966 2.48064 L 1345.283634 607.998202 " transform="matrix(0.0993791,0,0,-0.0993791,0.31085,151.105899)"/>
</g>
<path style=" stroke:none;fill-rule:nonzero;fill:rgb(83.628845%,37.313843%,11.26709%);fill-opacity:1;" d="M 140.921875 53.558594 L 134.003906 90.683594 L 91.449219 150.859375 Z M 140.921875 53.558594 "/>
<g clip-path="url(#clip7)" clip-rule="nonzero">
<path style="fill:none;stroke-width:5;stroke-linecap:round;stroke-linejoin:round;stroke:rgb(13.729858%,12.159729%,12.548828%);stroke-opacity:1;stroke-miterlimit:10;" d="M 1414.895552 981.567751 L 1345.283634 607.998202 L 917.077966 2.48064 Z M 1414.895552 981.567751 " transform="matrix(0.0993791,0,0,-0.0993791,0.31085,151.105899)"/>
</g>
<path style=" stroke:none;fill-rule:nonzero;fill:rgb(66.828918%,76.939392%,91.621399%);fill-opacity:1;" d="M 102.433594 0.25 L 140.921875 53.558594 L 28.480469 73.125 "/>
<g clip-path="url(#clip8)" clip-rule="nonzero">
<path style="fill:none;stroke-width:5;stroke-linecap:round;stroke-linejoin:round;stroke:rgb(13.729858%,12.159729%,12.548828%);stroke-opacity:1;stroke-miterlimit:10;" d="M 1027.608013 1517.98438 L 1414.895552 981.567751 L 283.456213 784.68119 " transform="matrix(0.0993791,0,0,-0.0993791,0.31085,151.105899)"/>
</g>
<path style="fill-rule:nonzero;fill:rgb(66.828918%,76.939392%,91.621399%);fill-opacity:1;stroke-width:5;stroke-linecap:round;stroke-linejoin:round;stroke:rgb(13.729858%,12.159729%,12.548828%);stroke-opacity:1;stroke-miterlimit:10;" d="M 283.456213 784.68119 L 51.783346 1375.694632 L 1027.608013 1517.98438 " transform="matrix(0.0993791,0,0,-0.0993791,0.31085,151.105899)"/>
<g clip-path="url(#clip9)" clip-rule="nonzero">
<path style=" stroke:none;fill-rule:nonzero;fill:rgb(39.344788%,9.214783%,30.143738%);fill-opacity:1;" d="M 28.480469 73.125 L 91.449219 150.859375 L 0.558594 116.1875 Z M 28.480469 73.125 "/>
</g>
<g clip-path="url(#clip10)" clip-rule="nonzero">
<path style="fill:none;stroke-width:5;stroke-linecap:round;stroke-linejoin:round;stroke:rgb(13.729858%,12.159729%,12.548828%);stroke-opacity:1;stroke-miterlimit:10;" d="M 283.456213 784.68119 L 917.077966 2.48064 L 2.49292 351.365669 Z M 283.456213 784.68119 " transform="matrix(0.0993791,0,0,-0.0993791,0.31085,151.105899)"/>
</g>
<g clip-path="url(#clip11)" clip-rule="nonzero">
<path style="fill-rule:nonzero;fill:rgb(14.790344%,16.696167%,43.251038%);fill-opacity:1;stroke-width:5;stroke-linecap:round;stroke-linejoin:round;stroke:rgb(13.729858%,12.159729%,12.548828%);stroke-opacity:1;stroke-miterlimit:10;" d="M 51.783346 1375.694632 L 283.456213 784.68119 L 2.49292 351.365669 Z M 51.783346 1375.694632 " transform="matrix(0.0993791,0,0,-0.0993791,0.31085,151.105899)"/>
</g>
<path style=" stroke:none;fill-rule:nonzero;fill:rgb(76.222229%,49.253845%,59.373474%);fill-opacity:1;" d="M 28.480469 73.125 L 140.921875 53.558594 L 91.449219 150.859375 Z M 28.480469 73.125 "/>
<g clip-path="url(#clip12)" clip-rule="nonzero">
<path style="fill:none;stroke-width:5;stroke-linecap:round;stroke-linejoin:round;stroke:rgb(13.729858%,12.159729%,12.548828%);stroke-opacity:1;stroke-miterlimit:10;" d="M 283.456213 784.68119 L 1414.895552 981.567751 L 917.077966 2.48064 Z M 283.456213 784.68119 " transform="matrix(0.0993791,0,0,-0.0993791,0.31085,151.105899)"/>
</g>
</g>
</svg>
