<?xml version="1.0" encoding="UTF-8"?>
<svg xmlns="http://www.w3.org/2000/svg" xmlns:xlink="http://www.w3.org/1999/xlink" width="199.28pt" height="183.79pt" viewBox="0 0 199.28 183.79" version="1.2">
<defs>
<clipPath id="clip1">
  <path d="M 137 42 L 198.5625 42 L 198.5625 137 L 137 137 Z M 137 42 "/>
</clipPath>
<clipPath id="clip2">
  <path d="M 137 42 L 198.5625 42 L 198.5625 137 L 137 137 Z M 137 42 "/>
</clipPath>
<clipPath id="clip3">
  <path d="M 71 0.226562 L 147 0.226562 L 147 51 L 71 51 Z M 71 0.226562 "/>
</clipPath>
<clipPath id="clip4">
  <path d="M 89 0.226562 L 162 0.226562 L 162 55 L 89 55 Z M 89 0.226562 "/>
</clipPath>
<clipPath id="clip5">
  <path d="M 73 42 L 147 42 L 147 183.355469 L 73 183.355469 Z M 73 42 "/>
</clipPath>
<clipPath id="clip6">
  <path d="M 89 42 L 158 42 L 158 183.355469 L 89 183.355469 Z M 89 42 "/>
</clipPath>
<clipPath id="clip7">
  <path d="M 0 65 L 99 65 L 99 183.355469 L 0 183.355469 Z M 0 65 "/>
</clipPath>
<clipPath id="clip8">
  <path d="M 0 65 L 99 65 L 99 183.355469 L 0 183.355469 Z M 0 65 "/>
</clipPath>
<clipPath id="clip9">
  <path d="M 28 142 L 99 142 L 99 183.355469 L 28 183.355469 Z M 28 142 "/>
</clipPath>
<clipPath id="clip10">
  <path d="M 89 128 L 198.5625 128 L 198.5625 183.355469 L 89 183.355469 Z M 89 128 "/>
</clipPath>
<clipPath id="clip11">
  <path d="M 89 119 L 198.5625 119 L 198.5625 183.355469 L 89 183.355469 Z M 89 119 "/>
</clipPath>
<clipPath id="clip12">
  <path d="M 31 159 L 118 159 L 118 183.355469 L 31 183.355469 Z M 31 159 "/>
</clipPath>
<clipPath id="clip13">
  <path d="M 0 0.226562 L 99 0.226562 L 99 74 L 0 74 Z M 0 0.226562 "/>
</clipPath>
<clipPath id="clip14">
  <path d="M 0 0.226562 L 99 0.226562 L 99 76 L 0 76 Z M 0 0.226562 "/>
</clipPath>
<clipPath id="clip15">
  <path d="M 89 0.226562 L 198.5625 0.226562 L 198.5625 137 L 89 137 Z M 89 0.226562 "/>
</clipPath>
<clipPath id="clip16">
  <path d="M 31 128 L 198.5625 128 L 198.5625 180 L 31 180 Z M 31 128 "/>
</clipPath>
<clipPath id="clip17">
  <path d="M 24 0.226562 L 99 0.226562 L 99 168 L 24 168 Z M 24 0.226562 "/>
</clipPath>
<clipPath id="clip18">
  <path d="M 31 94 L 198.5625 94 L 198.5625 168 L 31 168 Z M 31 94 "/>
</clipPath>
<clipPath id="clip19">
  <path d="M 89 0.226562 L 198.5625 0.226562 L 198.5625 137 L 89 137 Z M 89 0.226562 "/>
</clipPath>
<clipPath id="clip20">
  <path d="M 31 0.226562 L 119 0.226562 L 119 168 L 31 168 Z M 31 0.226562 "/>
</clipPath>
</defs>
<g id="surface1">
<path style=" stroke:none;fill-rule:evenodd;fill:rgb(74.31488%,43.466187%,39.517212%);fill-opacity:1;" d="M 142.128906 46.792969 L 76.011719 27.410156 L 1.371094 69.613281 L 142.128906 46.792969 "/>
<path style="fill:none;stroke-width:7.344;stroke-linecap:butt;stroke-linejoin:miter;stroke:rgb(13.729858%,12.159729%,12.548828%);stroke-opacity:1;stroke-miterlimit:4;" d="M 1426.42419 1370.549852 L 762.863496 1565.078279 L 13.760475 1141.522228 Z M 1426.42419 1370.549852 " transform="matrix(0.09964,0,0,-0.09964,0,183.354556)"/>
<path style=" stroke:none;fill-rule:evenodd;fill:rgb(75.416565%,54.664612%,54.867554%);fill-opacity:1;" d="M 142.128906 46.792969 L 77.140625 99.507812 L 1.371094 69.613281 L 142.128906 46.792969 "/>
<path style="fill:none;stroke-width:7.344;stroke-linecap:butt;stroke-linejoin:miter;stroke:rgb(13.729858%,12.159729%,12.548828%);stroke-opacity:1;stroke-miterlimit:4;" d="M 1426.42419 1370.549852 L 774.193346 841.496824 L 13.760475 1141.522228 Z M 1426.42419 1370.549852 " transform="matrix(0.09964,0,0,-0.09964,0,183.354556)"/>
<path style=" stroke:none;fill-rule:evenodd;fill:rgb(36.11908%,29.840088%,49.633789%);fill-opacity:1;" d="M 142.128906 46.792969 L 153.234375 124.109375 L 197.273438 132.335938 L 142.128906 46.792969 "/>
<g clip-path="url(#clip1)" clip-rule="nonzero">
<path style="fill:none;stroke-width:7.344;stroke-linecap:butt;stroke-linejoin:miter;stroke:rgb(13.729858%,12.159729%,12.548828%);stroke-opacity:1;stroke-miterlimit:4;" d="M 1426.42419 1370.549852 L 1537.880118 594.592342 L 1979.861878 512.029491 Z M 1426.42419 1370.549852 " transform="matrix(0.09964,0,0,-0.09964,0,183.354556)"/>
</g>
<path style=" stroke:none;fill-rule:evenodd;fill:rgb(20.94574%,21.043396%,24.940491%);fill-opacity:1;" d="M 142.128906 46.792969 L 157.378906 50.453125 L 197.273438 132.335938 L 142.128906 46.792969 "/>
<g clip-path="url(#clip2)" clip-rule="nonzero">
<path style="fill:none;stroke-width:7.344;stroke-linecap:butt;stroke-linejoin:miter;stroke:rgb(13.729858%,12.159729%,12.548828%);stroke-opacity:1;stroke-miterlimit:4;" d="M 1426.42419 1370.549852 L 1579.475173 1333.816048 L 1979.861878 512.029491 Z M 1426.42419 1370.549852 " transform="matrix(0.09964,0,0,-0.09964,0,183.354556)"/>
</g>
<path style=" stroke:none;fill-rule:evenodd;fill:rgb(53.83606%,16.543579%,18.603516%);fill-opacity:1;" d="M 94.027344 1.554688 L 76.011719 27.410156 L 142.128906 46.792969 L 94.027344 1.554688 "/>
<g clip-path="url(#clip3)" clip-rule="nonzero">
<path style="fill:none;stroke-width:7.344;stroke-linecap:butt;stroke-linejoin:miter;stroke:rgb(13.729858%,12.159729%,12.548828%);stroke-opacity:1;stroke-miterlimit:4;" d="M 943.670652 1824.567127 L 762.863496 1565.078279 L 1426.42419 1370.549852 Z M 943.670652 1824.567127 " transform="matrix(0.09964,0,0,-0.09964,0,183.354556)"/>
</g>
<path style=" stroke:none;fill-rule:evenodd;fill:rgb(13.729858%,12.159729%,12.548828%);fill-opacity:1;" d="M 94.027344 1.554688 L 157.378906 50.453125 L 142.128906 46.792969 L 94.027344 1.554688 "/>
<g clip-path="url(#clip4)" clip-rule="nonzero">
<path style="fill:none;stroke-width:7.344;stroke-linecap:butt;stroke-linejoin:miter;stroke:rgb(13.729858%,12.159729%,12.548828%);stroke-opacity:1;stroke-miterlimit:4;" d="M 943.670652 1824.567127 L 1579.475173 1333.816048 L 1426.42419 1370.549852 Z M 943.670652 1824.567127 " transform="matrix(0.09964,0,0,-0.09964,0,183.354556)"/>
</g>
<path style=" stroke:none;fill-rule:evenodd;fill:rgb(69.497681%,55.230713%,61.999512%);fill-opacity:1;" d="M 94.027344 181.996094 L 77.140625 99.507812 L 142.128906 46.792969 L 94.027344 181.996094 "/>
<g clip-path="url(#clip5)" clip-rule="nonzero">
<path style="fill:none;stroke-width:7.344;stroke-linecap:butt;stroke-linejoin:miter;stroke:rgb(13.729858%,12.159729%,12.548828%);stroke-opacity:1;stroke-miterlimit:4;" d="M 943.670652 13.633704 L 774.193346 841.496824 L 1426.42419 1370.549852 Z M 943.670652 13.633704 " transform="matrix(0.09964,0,0,-0.09964,0,183.354556)"/>
</g>
<path style=" stroke:none;fill-rule:evenodd;fill:rgb(57.772827%,48.091125%,62.010193%);fill-opacity:1;" d="M 94.027344 181.996094 L 153.234375 124.109375 L 142.128906 46.792969 L 94.027344 181.996094 "/>
<g clip-path="url(#clip6)" clip-rule="nonzero">
<path style="fill:none;stroke-width:7.344;stroke-linecap:butt;stroke-linejoin:miter;stroke:rgb(13.729858%,12.159729%,12.548828%);stroke-opacity:1;stroke-miterlimit:4;" d="M 943.670652 13.633704 L 1537.880118 594.592342 L 1426.42419 1370.549852 Z M 943.670652 13.633704 " transform="matrix(0.09964,0,0,-0.09964,0,183.354556)"/>
</g>
<path style=" stroke:none;fill-rule:evenodd;fill:rgb(79.168701%,65.544128%,65.789795%);fill-opacity:1;" d="M 94.027344 181.996094 L 77.140625 99.507812 L 1.371094 69.613281 L 94.027344 181.996094 "/>
<g clip-path="url(#clip7)" clip-rule="nonzero">
<path style="fill:none;stroke-width:7.344;stroke-linecap:butt;stroke-linejoin:miter;stroke:rgb(13.729858%,12.159729%,12.548828%);stroke-opacity:1;stroke-miterlimit:4;" d="M 943.670652 13.633704 L 774.193346 841.496824 L 13.760475 1141.522228 Z M 943.670652 13.633704 " transform="matrix(0.09964,0,0,-0.09964,0,183.354556)"/>
</g>
<path style=" stroke:none;fill-rule:evenodd;fill:rgb(88.186646%,83.044434%,76.541138%);fill-opacity:1;" d="M 94.027344 181.996094 L 32.613281 146.617188 L 1.371094 69.613281 L 94.027344 181.996094 "/>
<g clip-path="url(#clip8)" clip-rule="nonzero">
<path style="fill:none;stroke-width:7.344;stroke-linecap:butt;stroke-linejoin:miter;stroke:rgb(13.729858%,12.159729%,12.548828%);stroke-opacity:1;stroke-miterlimit:4;" d="M 943.670652 13.633704 L 327.311133 368.701009 L 13.760475 1141.522228 Z M 943.670652 13.633704 " transform="matrix(0.09964,0,0,-0.09964,0,183.354556)"/>
</g>
<path style=" stroke:none;fill-rule:evenodd;fill:rgb(64.569092%,84.906006%,79.96521%);fill-opacity:1;" d="M 94.027344 181.996094 L 32.613281 146.617188 L 35.261719 163.40625 L 94.027344 181.996094 "/>
<g clip-path="url(#clip9)" clip-rule="nonzero">
<path style="fill:none;stroke-width:7.344;stroke-linecap:butt;stroke-linejoin:miter;stroke:rgb(13.729858%,12.159729%,12.548828%);stroke-opacity:1;stroke-miterlimit:4;" d="M 943.670652 13.633704 L 327.311133 368.701009 L 353.891196 200.203794 Z M 943.670652 13.633704 " transform="matrix(0.09964,0,0,-0.09964,0,183.354556)"/>
</g>
<path style=" stroke:none;fill-rule:evenodd;fill:rgb(13.02948%,34.558105%,55.995178%);fill-opacity:1;" d="M 94.027344 181.996094 L 113.128906 175.484375 L 197.273438 132.335938 L 94.027344 181.996094 "/>
<g clip-path="url(#clip10)" clip-rule="nonzero">
<path style="fill:none;stroke-width:7.344;stroke-linecap:butt;stroke-linejoin:miter;stroke:rgb(13.729858%,12.159729%,12.548828%);stroke-opacity:1;stroke-miterlimit:4;" d="M 943.670652 13.633704 L 1135.376418 78.98616 L 1979.861878 512.029491 Z M 943.670652 13.633704 " transform="matrix(0.09964,0,0,-0.09964,0,183.354556)"/>
</g>
<path style=" stroke:none;fill-rule:evenodd;fill:rgb(36.083984%,41.900635%,65.092468%);fill-opacity:1;" d="M 94.027344 181.996094 L 153.234375 124.109375 L 197.273438 132.335938 L 94.027344 181.996094 "/>
<g clip-path="url(#clip11)" clip-rule="nonzero">
<path style="fill:none;stroke-width:7.344;stroke-linecap:butt;stroke-linejoin:miter;stroke:rgb(13.729858%,12.159729%,12.548828%);stroke-opacity:1;stroke-miterlimit:4;" d="M 943.670652 13.633704 L 1537.880118 594.592342 L 1979.861878 512.029491 Z M 943.670652 13.633704 " transform="matrix(0.09964,0,0,-0.09964,0,183.354556)"/>
</g>
<path style=" stroke:none;fill-rule:evenodd;fill:rgb(32.8125%,19.534302%,21.014404%);fill-opacity:1;" d="M 94.027344 181.996094 L 113.128906 175.484375 L 35.261719 163.40625 L 94.027344 181.996094 "/>
<g clip-path="url(#clip12)" clip-rule="nonzero">
<path style="fill:none;stroke-width:7.344;stroke-linecap:butt;stroke-linejoin:miter;stroke:rgb(13.729858%,12.159729%,12.548828%);stroke-opacity:1;stroke-miterlimit:4;" d="M 943.670652 13.633704 L 1135.376418 78.98616 L 353.891196 200.203794 Z M 943.670652 13.633704 " transform="matrix(0.09964,0,0,-0.09964,0,183.354556)"/>
</g>
<path style=" stroke:none;fill-rule:evenodd;fill:rgb(74.256897%,75.485229%,39.582825%);fill-opacity:1;" d="M 35.261719 163.40625 L 32.613281 146.617188 L 1.371094 69.613281 L 35.261719 163.40625 "/>
<path style="fill:none;stroke-width:7.344;stroke-linecap:butt;stroke-linejoin:miter;stroke:rgb(13.729858%,12.159729%,12.548828%);stroke-opacity:1;stroke-miterlimit:4;" d="M 353.891196 200.203794 L 327.311133 368.701009 L 13.760475 1141.522228 Z M 353.891196 200.203794 " transform="matrix(0.09964,0,0,-0.09964,0,183.354556)"/>
<path style=" stroke:none;fill-rule:evenodd;fill:rgb(20.832825%,22.323608%,42.736816%);fill-opacity:1;" d="M 35.261719 163.40625 L 28.140625 71.652344 L 1.371094 69.613281 L 35.261719 163.40625 "/>
<path style="fill:none;stroke-width:7.344;stroke-linecap:butt;stroke-linejoin:miter;stroke:rgb(13.729858%,12.159729%,12.548828%);stroke-opacity:1;stroke-miterlimit:4;" d="M 353.891196 200.203794 L 282.422973 1121.057931 L 13.760475 1141.522228 Z M 353.891196 200.203794 " transform="matrix(0.09964,0,0,-0.09964,0,183.354556)"/>
<path style=" stroke:none;fill-rule:evenodd;fill:rgb(65.325928%,18.499756%,16.984558%);fill-opacity:1;" d="M 94.027344 1.554688 L 76.011719 27.410156 L 1.371094 69.613281 L 94.027344 1.554688 "/>
<g clip-path="url(#clip13)" clip-rule="nonzero">
<path style="fill:none;stroke-width:7.344;stroke-linecap:butt;stroke-linejoin:miter;stroke:rgb(13.729858%,12.159729%,12.548828%);stroke-opacity:1;stroke-miterlimit:4;" d="M 943.670652 1824.567127 L 762.863496 1565.078279 L 13.760475 1141.522228 Z M 943.670652 1824.567127 " transform="matrix(0.09964,0,0,-0.09964,0,183.354556)"/>
</g>
<path style=" stroke:none;fill-rule:evenodd;fill:rgb(17.253113%,34.594727%,59.965515%);fill-opacity:1;" d="M 94.027344 1.554688 L 28.140625 71.652344 L 1.371094 69.613281 L 94.027344 1.554688 "/>
<g clip-path="url(#clip14)" clip-rule="nonzero">
<path style="fill:none;stroke-width:7.344;stroke-linecap:butt;stroke-linejoin:miter;stroke:rgb(13.729858%,12.159729%,12.548828%);stroke-opacity:1;stroke-miterlimit:4;" d="M 943.670652 1824.567127 L 282.422973 1121.057931 L 13.760475 1141.522228 Z M 943.670652 1824.567127 " transform="matrix(0.09964,0,0,-0.09964,0,183.354556)"/>
</g>
<path style=" stroke:none;fill-rule:evenodd;fill:rgb(91.07666%,90.368652%,78.747559%);fill-opacity:1;" d="M 94.027344 1.554688 L 157.378906 50.453125 L 197.273438 132.335938 L 94.027344 1.554688 "/>
<g clip-path="url(#clip15)" clip-rule="nonzero">
<path style="fill:none;stroke-width:7.344;stroke-linecap:butt;stroke-linejoin:miter;stroke:rgb(13.729858%,12.159729%,12.548828%);stroke-opacity:1;stroke-miterlimit:4;" d="M 943.670652 1824.567127 L 1579.475173 1333.816048 L 1979.861878 512.029491 Z M 943.670652 1824.567127 " transform="matrix(0.09964,0,0,-0.09964,0,183.354556)"/>
</g>
<path style=" stroke:none;fill-rule:evenodd;fill:rgb(73.783875%,38.597107%,32.4646%);fill-opacity:1;" d="M 35.261719 163.40625 L 113.128906 175.484375 L 197.273438 132.335938 L 35.261719 163.40625 "/>
<g clip-path="url(#clip16)" clip-rule="nonzero">
<path style="fill:none;stroke-width:7.344;stroke-linecap:butt;stroke-linejoin:miter;stroke:rgb(13.729858%,12.159729%,12.548828%);stroke-opacity:1;stroke-miterlimit:4;" d="M 353.891196 200.203794 L 1135.376418 78.98616 L 1979.861878 512.029491 Z M 353.891196 200.203794 " transform="matrix(0.09964,0,0,-0.09964,0,183.354556)"/>
</g>
<path style=" stroke:none;fill-rule:evenodd;fill:rgb(53.981018%,46.022034%,61.846924%);fill-opacity:1;" d="M 94.027344 1.554688 L 28.140625 71.652344 L 35.261719 163.40625 L 94.027344 1.554688 "/>
<g clip-path="url(#clip17)" clip-rule="nonzero">
<path style="fill:none;stroke-width:7.344;stroke-linecap:butt;stroke-linejoin:miter;stroke:rgb(13.729858%,12.159729%,12.548828%);stroke-opacity:1;stroke-miterlimit:4;" d="M 943.670652 1824.567127 L 282.422973 1121.057931 L 353.891196 200.203794 Z M 943.670652 1824.567127 " transform="matrix(0.09964,0,0,-0.09964,0,183.354556)"/>
</g>
<path style=" stroke:none;fill-rule:evenodd;fill:rgb(76.391602%,54.483032%,53.466797%);fill-opacity:1;" d="M 35.261719 163.40625 L 114.589844 99.003906 L 197.273438 132.335938 L 35.261719 163.40625 "/>
<g clip-path="url(#clip18)" clip-rule="nonzero">
<path style="fill:none;stroke-width:7.344;stroke-linecap:butt;stroke-linejoin:miter;stroke:rgb(13.729858%,12.159729%,12.548828%);stroke-opacity:1;stroke-miterlimit:4;" d="M 353.891196 200.203794 L 1150.038576 846.554092 L 1979.861878 512.029491 Z M 353.891196 200.203794 " transform="matrix(0.09964,0,0,-0.09964,0,183.354556)"/>
</g>
<path style=" stroke:none;fill-rule:evenodd;fill:rgb(81.069946%,68.066406%,66.944885%);fill-opacity:1;" d="M 94.027344 1.554688 L 114.589844 99.003906 L 197.273438 132.335938 L 94.027344 1.554688 "/>
<g clip-path="url(#clip19)" clip-rule="nonzero">
<path style="fill:none;stroke-width:7.344;stroke-linecap:butt;stroke-linejoin:miter;stroke:rgb(13.729858%,12.159729%,12.548828%);stroke-opacity:1;stroke-miterlimit:4;" d="M 943.670652 1824.567127 L 1150.038576 846.554092 L 1979.861878 512.029491 Z M 943.670652 1824.567127 " transform="matrix(0.09964,0,0,-0.09964,0,183.354556)"/>
</g>
<path style=" stroke:none;fill-rule:evenodd;fill:rgb(69.233704%,55.270386%,62.303162%);fill-opacity:1;" d="M 94.027344 1.554688 L 114.589844 99.003906 L 35.261719 163.40625 L 94.027344 1.554688 "/>
<g clip-path="url(#clip20)" clip-rule="nonzero">
<path style="fill:none;stroke-width:7.344;stroke-linecap:butt;stroke-linejoin:miter;stroke:rgb(13.729858%,12.159729%,12.548828%);stroke-opacity:1;stroke-miterlimit:4;" d="M 943.670652 1824.567127 L 1150.038576 846.554092 L 353.891196 200.203794 Z M 943.670652 1824.567127 " transform="matrix(0.09964,0,0,-0.09964,0,183.354556)"/>
</g>
</g>
</svg>
