<?xml version="1.0" encoding="utf-8"?>
<!-- Generator: Adobe Illustrator 23.1.0, SVG Export Plug-In . SVG Version: 6.00 Build 0)  -->
<svg version="1.1" id="Слой_1" xmlns="http://www.w3.org/2000/svg" xmlns:xlink="http://www.w3.org/1999/xlink" x="0px" y="0px"
	 viewBox="0 0 168 167" style="enable-background:new 0 0 168 167;" xml:space="preserve">
<style type="text/css">
	.st0{fill:#7071C3;}
	.st1{fill:none;stroke:#000000;stroke-width:0.4548;stroke-linecap:round;stroke-linejoin:round;stroke-miterlimit:1;}
	.st2{fill:#7071C3;stroke:#000000;stroke-width:0.4548;stroke-linecap:round;stroke-linejoin:round;stroke-miterlimit:1;}
	.st3{fill:#C0A3BC;stroke:#000000;stroke-width:0.4548;stroke-linecap:round;stroke-linejoin:round;stroke-miterlimit:1;}
	.st4{fill:#A27AA6;stroke:#000000;stroke-width:0.4548;stroke-linecap:round;stroke-linejoin:round;stroke-miterlimit:1;}
	.st5{fill:#C07A84;stroke:#000000;stroke-width:0.4548;stroke-linecap:round;stroke-linejoin:round;stroke-miterlimit:1;}
	.st6{fill:#C07A84;}
	.st7{fill:#C0A3BC;}
	.st8{fill:#A3C4F1;stroke:#000000;stroke-width:0.4548;stroke-linecap:round;stroke-linejoin:round;stroke-miterlimit:1;}
	.st9{fill:#ECB89B;stroke:#000000;stroke-width:0.4548;stroke-linecap:round;stroke-linejoin:round;stroke-miterlimit:1;}
	.st10{fill:#0D002D;}
	.st11{fill:#0D002D;stroke:#000000;stroke-width:0.4548;stroke-linecap:round;stroke-linejoin:round;stroke-miterlimit:1;}
	.st12{stroke:#000000;stroke-width:0.4548;stroke-linecap:round;stroke-linejoin:round;stroke-miterlimit:1;}
	.st13{fill:#C17175;stroke:#000000;stroke-width:0.4548;stroke-linecap:round;stroke-linejoin:round;stroke-miterlimit:1;}
	.st14{fill:#C17175;}
	.st15{fill:#5360C3;}
	.st16{fill:#5360C3;stroke:#000000;stroke-width:0.4548;stroke-linecap:round;stroke-linejoin:round;stroke-miterlimit:1;}
	.st17{fill:#F9BF87;stroke:#000000;stroke-width:0.4548;stroke-linecap:round;stroke-linejoin:round;stroke-miterlimit:1;}
	.st18{fill:#84D0FF;stroke:#000000;stroke-width:0.4548;stroke-linecap:round;stroke-linejoin:round;stroke-miterlimit:1;}
	.st19{fill:#C2A6BD;stroke:#000000;stroke-width:0.4548;stroke-linecap:round;stroke-linejoin:round;stroke-miterlimit:1;}
	.st20{fill:#C2A6BD;}
	.st21{fill:#9D74A3;stroke:#000000;stroke-width:0.4548;stroke-linecap:round;stroke-linejoin:round;stroke-miterlimit:1;}
</style>
<g id="surface1">
	<path class="st0" d="M110.8,99.6l31.8-27.9l-26.9,83.7"/>
	<path class="st1" d="M110.8,99.6l31.8-27.9"/>
	<path class="st2" d="M115.7,155.5l-18.2-15.6l13.4-40.3"/>
	<path class="st3" d="M80.9,64.8l29.9,34.8l-13.4,40.3"/>
	<path class="st4" d="M110.8,99.6L80.9,64.8l30.8-29"/>
	<path class="st4" d="M111.7,35.8l30.9,36l-31.8,27.9"/>
	<path class="st5" d="M80.9,64.8l30.8-29L98.4,8.1"/>
	<path class="st6" d="M36.5,68.9l44.4-4.1L98.4,8.1"/>
	<path class="st1" d="M36.5,68.9l44.4-4.1"/>
	<path class="st7" d="M36.5,68.9l44.4-4.1l16.6,75.1"/>
	<path class="st1" d="M36.5,68.9l44.4-4.1"/>
	<path class="st7" d="M21.5,109.4l15-40.5l61,71"/>
	<path class="st1" d="M21.5,109.4l15-40.5"/>
	<path class="st3" d="M97.5,139.9l-44.9,5.7l-31.1-36.1"/>
	<path class="st8" d="M52.6,145.5l44.9-5.7l18.2,15.6"/>
	<path class="st6" d="M19.3,43.4l17.1,25.6l62-60.9"/>
	<path class="st1" d="M19.3,43.4l17.1,25.6"/>
	<path class="st9" d="M21.5,109.4l15-40.5L19.3,43.4"/>
	<path class="st0" d="M142.6,71.8l20.9,12.2l-47.8,71.5"/>
	<path class="st1" d="M142.6,71.8l20.9,12.2"/>
	<path class="st10" d="M142.6,71.8l20.9,12.2l-45.5-66.6"/>
	<path class="st1" d="M142.6,71.8l20.9,12.2"/>
	<path class="st10" d="M111.7,35.8l30.9,36l-24.6-54.4"/>
	<path class="st1" d="M111.7,35.8l30.9,36"/>
	<path class="st11" d="M118.1,17.3L98.4,8.1l13.3,27.7"/>
	<path class="st8" d="M115.7,155.5l-47,6.3l-16.2-16.2"/>
	<path class="st12" d="M68.8,161.7l-16.2-16.2l-31.1-36.1"/>
	<path class="st9" d="M19.3,43.4L3.2,85.5l18.3,23.9"/>
	<path d="M21.5,109.4L3.2,85.5l65.6,76.2"/>
	<path class="st1" d="M21.5,109.4L3.2,85.5"/>
	<path class="st2" d="M163.5,83.9L150,127.5l-34.3,28"/>
	<path class="st13" d="M137.9,103l12.1,24.5l-34.3,28"/>
	<path class="st14" d="M86.9,108.7l51-5.7l-22.2,52.5"/>
	<path class="st1" d="M86.9,108.7l51-5.7"/>
	<path class="st14" d="M52.2,139.5l34.7-30.9l28.8,46.8"/>
	<path class="st1" d="M52.2,139.5l34.7-30.9"/>
	<path class="st13" d="M115.7,155.5l-47,6.3l-16.6-22.2"/>
	<path class="st5" d="M98.4,8.1l-48.1,3.4l-31,31.9"/>
	<path class="st15" d="M19.3,43.4L3.2,85.5l64.4-64.5"/>
	<path class="st1" d="M19.3,43.4L3.2,85.5"/>
	<path class="st16" d="M67.6,21.1l-17.3-9.7l-31,31.9"/>
	<path class="st11" d="M163.5,83.9l-11.1-26.5l-34.4-40.1"/>
	<path class="st17" d="M152.5,57.4l11.1,26.5L150,127.5"/>
	<path class="st18" d="M50.4,11.4l48.1-3.4l19.6,9.3"/>
	<path class="st12" d="M17.5,99.3l34.7,40.3l16.6,22.2"/>
	<path d="M3.2,85.5l14.3,13.7l51.2,62.4"/>
	<path class="st1" d="M3.2,85.5l14.3,13.7"/>
	<path class="st15" d="M3.2,85.5l14.3,13.7l50.1-78.2"/>
	<path class="st1" d="M3.2,85.5l14.3,13.7"/>
	<path class="st17" d="M150,127.5L137.9,103l14.5-45.5"/>
	<path class="st18" d="M118.1,17.3l-50.4,3.7l-17.3-9.7"/>
	<path class="st19" d="M137.9,103l14.5-45.5l-34.4-40.1"/>
	<path class="st20" d="M86.9,108.7l51-5.7l-19.9-85.6"/>
	<path class="st1" d="M86.9,108.7l51-5.7"/>
	<path class="st20" d="M51,66.9l35.9,41.8l31.2-91.3"/>
	<path class="st1" d="M51,66.9l35.9,41.8"/>
	<path class="st19" d="M118.1,17.3l-50.4,3.7L51,66.9"/>
	<path class="st21" d="M52.2,139.5l34.7-30.9L51,66.9"/>
	<path class="st21" d="M51,66.9L17.5,99.3l34.7,40.3"/>
	<path class="st16" d="M17.5,99.3L51,66.9l16.7-45.8"/>
</g>
</svg>
