<?xml version="1.0" encoding="utf-8"?>
<!-- Generator: Adobe Illustrator 27.8.1, SVG Export Plug-In . SVG Version: 6.00 Build 0)  -->
<svg version="1.1" id="Layer_1" xmlns="http://www.w3.org/2000/svg" xmlns:xlink="http://www.w3.org/1999/xlink" x="0px" y="0px"
	 viewBox="0 0 200 200" style="enable-background:new 0 0 200 200;" xml:space="preserve">
<style type="text/css">
	.st0{fill:#C9939D;}
	.st1{fill:none;stroke:#000000;stroke-width:0.6235;stroke-linecap:round;stroke-linejoin:round;stroke-miterlimit:1;}
	.st2{fill:#C9939D;stroke:#000000;stroke-width:0.6235;stroke-linecap:round;stroke-linejoin:round;stroke-miterlimit:1;}
	.st3{fill:#C0AAC3;}
	.st4{fill:#AC86AC;}
	.st5{fill:#AC86AC;stroke:#000000;stroke-width:0.6235;stroke-linecap:round;stroke-linejoin:round;stroke-miterlimit:1;}
	.st6{fill:#998EC7;stroke:#000000;stroke-width:0.6235;stroke-linecap:round;stroke-linejoin:round;stroke-miterlimit:1;}
	.st7{fill:#C0AAC3;stroke:#000000;stroke-width:0.6235;stroke-linecap:round;stroke-linejoin:round;stroke-miterlimit:1;}
	.st8{fill:#A25F80;}
	.st9{fill:#A25F80;stroke:#000000;stroke-width:0.6235;stroke-linecap:round;stroke-linejoin:round;stroke-miterlimit:1;}
	.st10{fill:#7F5B9D;}
	.st11{fill:#998EC7;}
	.st12{fill:#E2BEB3;stroke:#000000;stroke-width:0.6235;stroke-linecap:round;stroke-linejoin:round;stroke-miterlimit:1;}
	.st13{fill:#7F5B9D;stroke:#000000;stroke-width:0.6235;stroke-linecap:round;stroke-linejoin:round;stroke-miterlimit:1;}
	.st14{fill:#ABBAE4;stroke:#000000;stroke-width:0.6235;stroke-linecap:round;stroke-linejoin:round;stroke-miterlimit:1;}
	.st15{fill:#D7E1DE;stroke:#000000;stroke-width:0.6235;stroke-linecap:round;stroke-linejoin:round;stroke-miterlimit:1;}
	.st16{fill:#D7E1DE;}
	.st17{fill:#E2BEB3;}
	.st18{fill:#ABBAE4;}
	.st19{fill:#C36154;}
	.st20{fill:#C36154;stroke:#000000;stroke-width:0.6235;stroke-linecap:round;stroke-linejoin:round;stroke-miterlimit:1;}
	.st21{fill:#4A53B9;}
	.st22{fill:#4A53B9;stroke:#000000;stroke-width:0.6235;stroke-linecap:round;stroke-linejoin:round;stroke-miterlimit:1;}
	.st23{fill:#F19E64;stroke:#000000;stroke-width:0.6235;stroke-linecap:round;stroke-linejoin:round;stroke-miterlimit:1;}
	.st24{fill:#518EEB;stroke:#000000;stroke-width:0.6235;stroke-linecap:round;stroke-linejoin:round;stroke-miterlimit:1;}
	.st25{fill:#518EEB;}
	.st26{fill:#44003B;stroke:#000000;stroke-width:0.6235;stroke-linecap:round;stroke-linejoin:round;stroke-miterlimit:1;}
	.st27{fill:#44003B;}
	.st28{fill:#F19E64;}
	.st29{fill:#3D0000;}
	.st30{fill:#ECDF71;}
	.st31{fill:#ECDF71;stroke:#000000;stroke-width:0.6235;stroke-linecap:round;stroke-linejoin:round;stroke-miterlimit:1;}
	.st32{fill:#000020;}
	.st33{fill:#000020;stroke:#000000;stroke-width:0.6235;stroke-linecap:round;stroke-linejoin:round;stroke-miterlimit:1;}
	.st34{fill:#56CEEA;stroke:#000000;stroke-width:0.6235;stroke-linecap:round;stroke-linejoin:round;stroke-miterlimit:1;}
	.st35{fill:#3D0000;stroke:#000000;stroke-width:0.6235;stroke-linecap:round;stroke-linejoin:round;stroke-miterlimit:1;}
	.st36{fill:#56CEEA;}
	.st37{stroke:#000000;stroke-width:0.6235;stroke-linecap:round;stroke-linejoin:round;stroke-miterlimit:1;}
	.st38{fill:#DF7B05;stroke:#000000;stroke-width:0.6235;stroke-linecap:round;stroke-linejoin:round;stroke-miterlimit:1;}
	.st39{fill:#005ACC;stroke:#000000;stroke-width:0.6235;stroke-linecap:round;stroke-linejoin:round;stroke-miterlimit:1;}
	.st40{fill:#633E8F;}
	.st41{fill:#00149D;stroke:#000000;stroke-width:0.6235;stroke-linecap:round;stroke-linejoin:round;stroke-miterlimit:1;}
	.st42{fill:#D4FBE0;stroke:#000000;stroke-width:0.6235;stroke-linecap:round;stroke-linejoin:round;stroke-miterlimit:1;}
	.st43{fill:#B22F02;stroke:#000000;stroke-width:0.6235;stroke-linecap:round;stroke-linejoin:round;stroke-miterlimit:1;}
	.st44{fill:#8D8CCD;}
	.st45{fill:#A0C7F3;stroke:#000000;stroke-width:0.6235;stroke-linecap:round;stroke-linejoin:round;stroke-miterlimit:1;}
	.st46{fill:#F1CEAD;stroke:#000000;stroke-width:0.6235;stroke-linecap:round;stroke-linejoin:round;stroke-miterlimit:1;}
	.st47{fill:#964564;stroke:#000000;stroke-width:0.6235;stroke-linecap:round;stroke-linejoin:round;stroke-miterlimit:1;}
	.st48{fill:#C4B1C8;stroke:#000000;stroke-width:0.6235;stroke-linecap:round;stroke-linejoin:round;stroke-miterlimit:1;}
	.st49{fill:#CF9293;stroke:#000000;stroke-width:0.6235;stroke-linecap:round;stroke-linejoin:round;stroke-miterlimit:1;}
	.st50{fill:#A982A9;stroke:#000000;stroke-width:0.6235;stroke-linecap:round;stroke-linejoin:round;stroke-miterlimit:1;}
</style>
<path class="st0" d="M84.7,93.5l-32,8.8l26.3-64.6"/>
<path class="st1" d="M84.7,93.5l-32,8.8"/>
<path class="st2" d="M79.1,37.8l18.8,24.3L84.7,93.5"/>
<path class="st3" d="M84.7,93.5l25.8,22.9l-37.4,42.6"/>
<path class="st1" d="M84.7,93.5l25.8,22.9"/>
<path class="st3" d="M52.8,102.4l32-8.8l-11.6,65.6"/>
<path class="st1" d="M52.8,102.4l32-8.8"/>
<path class="st4" d="M84.7,93.5l25.8,22.9l21.8-50.9"/>
<path class="st1" d="M84.7,93.5l25.8,22.9"/>
<path class="st5" d="M132.4,65.5l-34.5-3.5L84.7,93.5"/>
<path class="st6" d="M105.3,149.1l5.2-32.6l29.6-16.9"/>
<path class="st7" d="M110.5,116.4l-5.2,32.6l-32.2,10"/>
<path class="st5" d="M110.5,116.4l29.6-16.9l-7.7-34"/>
<path class="st8" d="M97.8,62.1L79.1,37.8l71.4,6.8"/>
<path class="st1" d="M97.8,62.1L79.1,37.8"/>
<path class="st9" d="M150.5,44.6l-18.1,20.9l-34.5-3.5"/>
<path class="st10" d="M140.1,99.5l-7.7-34l45.7-6.6"/>
<path class="st1" d="M140.1,99.5l-7.7-34"/>
<path class="st10" d="M166.2,114.9l-26.1-15.4l37.9-40.6"/>
<path class="st1" d="M166.2,114.9l-26.1-15.4"/>
<path class="st11" d="M140.1,99.5l26.1,15.4l-60.8,34.2"/>
<path class="st1" d="M140.1,99.5l26.1,15.4"/>
<path class="st0" d="M52.8,102.4L32.5,79.1l46.6-41.3"/>
<path class="st1" d="M52.8,102.4L32.5,79.1"/>
<path class="st7" d="M73.1,159.1l-26.8-23.8l6.4-32.9"/>
<path class="st12" d="M46.3,135.3l6.4-32.9L32.5,79.1"/>
<path class="st13" d="M132.4,65.5l18.1-20.9l27.6,14.3"/>
<path class="st6" d="M161.8,148.9l-31.3,17.2l-25.2-17.1"/>
<path class="st11" d="M166.2,114.9l-4.4,34l-56.5,0.2"/>
<path class="st1" d="M166.2,114.9l-4.4,34"/>
<path class="st14" d="M130.5,166.1l-25.2-17.1l-32.2,10"/>
<path class="st15" d="M46.3,135.3l26.8,23.8l3.7,24.5"/>
<path class="st16" d="M21,133.9l25.3,1.4l30.5,48.3"/>
<path class="st1" d="M21,133.9l25.3,1.4"/>
<path class="st17" d="M21,133.9l25.3,1.4L32.5,79.1"/>
<path class="st1" d="M21,133.9l25.3,1.4"/>
<path class="st18" d="M73.1,159.1l3.7,24.5l53.6-17.5"/>
<path class="st1" d="M73.1,159.1l3.7,24.5"/>
<path class="st2" d="M32.5,79.1l13.2-33.2l33.4-8.2"/>
<path class="st8" d="M79.1,37.8l16.4-22.5l55,29.3"/>
<path class="st1" d="M79.1,37.8l16.4-22.5"/>
<path class="st19" d="M79.1,37.8l-33.4,8.2L71.3,8.4"/>
<path class="st1" d="M79.1,37.8l-33.4,8.2"/>
<path class="st20" d="M71.3,8.4l24.2,6.9L79.1,37.8"/>
<path class="st13" d="M178.1,58.9l8,36.4l-19.9,19.6"/>
<path class="st21" d="M166.2,114.9l-4.4,34l33.3-30.9"/>
<path class="st1" d="M166.2,114.9l-4.4,34"/>
<path class="st22" d="M195.1,118L186,95.3l-19.9,19.6"/>
<path class="st23" d="M45.7,45.9L32.5,79.1L12,97.8"/>
<path class="st12" d="M32.5,79.1L12,97.8l9,36.1"/>
<path class="st24" d="M129.1,194.3l-15.3-6l16.8-22.2"/>
<path class="st25" d="M163.4,175.8l-34.4,18.5l1.4-28.1"/>
<path class="st1" d="M163.4,175.8l-34.4,18.5"/>
<path class="st25" d="M179.3,152.6l-15.8,23.1l-32.9-9.6"/>
<path class="st1" d="M179.3,152.6l-15.8,23.1"/>
<path class="st24" d="M130.5,166.1l31.3-17.2l17.5,3.7"/>
<path class="st14" d="M76.8,183.6l36.9,4.7l16.8-22.2"/>
<path class="st9" d="M95.5,15.3l36.9,3.3l18,26"/>
<path class="st26" d="M150.5,44.6l-18-26l16.3-3.3"/>
<path class="st27" d="M178.1,58.9l-27.6-14.3l-1.7-29.3"/>
<path class="st1" d="M178.1,58.9l-27.6-14.3"/>
<path class="st23" d="M17.5,46.3l21.6-17.8l6.5,17.5"/>
<path class="st28" d="M3.5,82.6l14.1-36.3l28.1-0.3"/>
<path class="st1" d="M3.5,82.6l14.1-36.3"/>
<path class="st28" d="M12,97.8L3.5,82.6l42.2-36.7"/>
<path class="st1" d="M12,97.8L3.5,82.6"/>
<path class="st20" d="M45.7,45.9l-6.5-17.5l32.1-20"/>
<path class="st22" d="M161.8,148.9l17.5,3.7l15.9-34.6"/>
<path class="st29" d="M95.5,15.3L71.3,8.4L125.5,8"/>
<path class="st1" d="M95.5,15.3L71.3,8.4"/>
<path class="st29" d="M132.4,18.6l-36.9-3.3l30-7.2"/>
<path class="st1" d="M132.4,18.6l-36.9-3.3"/>
<path class="st30" d="M21,133.9l1.5,24.4L3.5,82.6"/>
<path class="st1" d="M21,133.9l1.5,24.4"/>
<path class="st31" d="M3.5,82.6L12,97.8l9,36.1"/>
<path class="st16" d="M22.5,158.3L21,133.9l55.8,49.7"/>
<path class="st1" d="M22.5,158.3L21,133.9"/>
<path class="st32" d="M186,95.3l-8-36.4l18.5,44.4"/>
<path class="st1" d="M186,95.3l-8-36.4"/>
<path class="st33" d="M196.5,103.3l-1.4,14.7L186,95.3"/>
<path class="st15" d="M76.8,183.6l-25.1,0.7l-29.2-26"/>
<path class="st34" d="M51.7,184.3l25.1-0.7l36.9,4.7"/>
<path class="st35" d="M125.5,8l23.3,7.3l-16.3,3.3"/>
<path class="st32" d="M178.1,58.9l0.4-17.3l18.1,61.7"/>
<path class="st1" d="M178.1,58.9l0.4-17.3"/>
<path class="st26" d="M148.8,15.3l29.7,26.2l-0.4,17.3"/>
<path class="st36" d="M64.1,190.3l-12.4-6l62,4"/>
<path class="st1" d="M64.1,190.3l-12.4-6"/>
<path class="st36" d="M104.8,195.6l-40.7-5.3l49.6-2"/>
<path class="st1" d="M104.8,195.6l-40.7-5.3"/>
<path class="st34" d="M113.7,188.3l15.3,6l-24.3,1.3"/>
<path class="st35" d="M71.3,8.4l13.5-4L125.5,8"/>
<path class="st1" d="M39.2,28.4L17.5,46.3"/>
<path class="st1" d="M179.3,152.6l15.9-34.6"/>
<path class="st1" d="M163.4,175.8l15.8-23.1"/>
<path class="st30" d="M22.5,158.3l-8.3-12.5L3.5,82.6"/>
<path class="st1" d="M22.5,158.3l-8.3-12.5"/>
<path class="st37" d="M51.7,184.3l-29.2-26l-8.3-12.5"/>
<path d="M64.1,190.3l-12.4-6l-37.4-38.4"/>
<path class="st1" d="M64.1,190.3l-12.4-6"/>
<path class="st31" d="M14.3,145.9L4.2,106L3.5,82.6"/>
<path class="st1" d="M3.5,82.6L4.2,106"/>
<path class="st1" d="M178.5,41.6l-29.7-26.2"/>
<path class="st33" d="M178.5,41.6l9.3,21.5l8.7,40.2"/>
<path class="st1" d="M187.8,63.1l-9.3-21.5"/>
<path class="st1" d="M104.8,195.6l24.3-1.3"/>
<path class="st1" d="M17.5,46.3l10.8-1.9"/>
<polygon class="st38" points="180.3,125.9 163,163.9 163.4,175.8 179.3,152.6 195.1,118 196.5,103.3 "/>
<polygon class="st39" points="71.3,8.4 39.2,28.4 17.5,46.3 28.3,44.4 63.6,22.5 84.8,4.4 "/>
<path class="st1" d="M84.8,4.4l-21.2,18"/>
<path class="st37" d="M14.3,145.9l26.3,20l23.5,24.4"/>
<path class="st1" d="M64.1,190.3l40.7,5.3"/>
<path class="st1" d="M196.5,103.3l-16.2,22.6"/>
<path class="st1" d="M58.5,144.8l-10.6-43.2"/>
<polygon class="st40" points="47.9,101.6 20,82.9 4.2,106 14.3,145.9 40.6,165.8 58.5,144.8 "/>
<path class="st1" d="M40.6,165.8l17.9-21"/>
<polygon class="st41" points="17.5,46.3 3.5,82.6 4.2,106 20,82.9 28.3,44.4 "/>
<polygon class="st42" points="178.5,41.6 148.8,15.3 125.5,8 132.6,28.9 165.3,57.8 187.8,63.1 "/>
<path class="st1" d="M104.8,195.6l20.4-19.1"/>
<polygon class="st43" points="163,163.9 125.1,176.4 104.8,195.6 129.1,194.3 163.4,175.8 "/>
<path class="st1" d="M163,163.9l17.3-38"/>
<path class="st1" d="M47.9,101.6l37.8-22.4"/>
<polygon class="st44" points="63.6,22.5 28.3,44.4 20,82.9 47.9,101.6 85.8,79.2 93,38.6 "/>
<path class="st1" d="M20,82.9l28,18.6"/>
<polygon class="st45" points="125.5,8 84.8,4.4 63.6,22.5 93,38.6 132.6,28.9 "/>
<path class="st1" d="M180.3,125.9L160,97.9"/>
<polygon class="st46" points="187.8,63.1 165.3,57.8 160,97.9 180.3,125.9 196.5,103.3 "/>
<polygon class="st47" points="102.5,150.1 58.5,144.8 40.6,165.8 64.1,190.3 104.8,195.6 125.1,176.4 "/>
<path class="st1" d="M120,109.5L85.8,79.2"/>
<path class="st1" d="M160,97.9L120,109.5"/>
<polygon class="st48" points="132.6,28.9 93,38.6 85.8,79.2 120,109.5 160,97.9 165.3,57.8 "/>
<path class="st1" d="M102.5,150.1l-44-5.3"/>
<polygon class="st49" points="160,97.9 120,109.5 102.5,150.1 125.1,176.4 163,163.9 180.3,125.9 "/>
<polygon class="st50" points="85.8,79.2 47.9,101.6 58.5,144.8 102.5,150.1 120,109.5 "/>
</svg>
