<svg xmlns="http://www.w3.org/2000/svg" width="1000" height="1000"><style>.st0,.st1,.st10,.st12,.st13,.st14,.st2,.st3,.st4,.st5,.st6,.st7,.st9{fill:none;stroke:#58b947;stroke-width:5;stroke-linecap:round;stroke-linejoin:round;stroke-miterlimit:10}.st1,.st10,.st12,.st13,.st14,.st2,.st3,.st4,.st5,.st6,.st7,.st9{stroke:#af55a0}.st10,.st12,.st13,.st14,.st2,.st3,.st4,.st5,.st6,.st7,.st9{stroke:#ef4723}.st10,.st12,.st13,.st14,.st3,.st4,.st5,.st6,.st7,.st9{stroke:#50b748}.st10,.st12,.st13,.st14,.st4,.st5,.st6,.st7,.st9{stroke:#e9ba1f}.st10,.st12,.st13,.st14,.st5,.st6,.st7,.st9{stroke:#1cacb7}.st10,.st12,.st13,.st14,.st6,.st7,.st9{stroke:#e8ba20}.st10,.st12,.st13,.st14,.st7,.st9{stroke:#ef4623}.st10,.st12,.st13,.st14,.st9{stroke:#ff9d00}.st10,.st12,.st13,.st14{stroke:#1cacb7}.st13,.st14{stroke:#af55a0}.st14{stroke:#2cc6a8}</style><path class="st0" d="m745.2 185.5 19.6 39.8 43.9 6.3-31.8 31 7.5 43.8-39.2-20.7-39.3 20.7 7.5-43.8-31.8-31 43.9-6.3zM446.4 256.8l-57.3 41.6 21.9 67.3h70.7l21.9-67.3z"/><path class="st1" d="m546.3 678.7 80-138.7H466.2z"/><path class="st2" d="M624.5 421h93.2v93.2h-93.2z"/><path class="st3" d="m585.9 975.3-161.1-161h161.1z"/><circle class="st4" cx="821.3" cy="433.4" r="54.1"/><path class="st0" d="M286.1 170.9V80.3l45.3 45.3z"/><path class="st4" d="M632 376.9v-90.6l45.3 45.3z"/><path class="st2" d="M831.6 246v107"/><circle class="st5" cx="905.9" cy="614.7" r="74.3"/><path class="st0" d="M951.4 507.9H838.8"/><path class="st6" d="M247.3 236h93.2v93.2h-93.2zM584.5 685.2l-55.1 40 21.1 64.7h68l21-64.7z"/><path class="st1" d="M424.6 464.5v-71.4l35.7 35.7z"/><path class="st6" d="M231.7 28.2h-60.2l-30.1 52.1 30.1 52.2h60.2l30.1-52.2z"/><path class="st5" d="M101.9 241.8 21.8 380.6H182z"/><circle class="st4" cx="385.4" cy="536.5" r="50.1"/><path class="st1" d="M389.1 741.1v102.2"/><path class="st2" d="M185.7 583v102.2"/><path class="st5" d="M686.1 544.1v102.2"/><path class="st2" d="M341.8 802.2v142l-71-71z"/><path class="st1" d="M904.7 440h35.5v35.5h-35.5z"/><path class="st7" d="M115.9 401H82.4l-16.8 29.2 16.8 29.1h33.5l16.9-29.1z"/><path class="st1" d="m241.7 394.3 13.3 26.9 29.8 4.4-21.6 21 5.1 29.7-26.6-14.1-26.7 14.1 5.1-29.7-21.5-21 29.8-4.4z"/><path class="st4" d="M364.8 734.7 226 654.6v160.2z"/><path class="st0" d="m162.6 463.5-41.2 71.4h82.5z"/><path class="st7" d="M539.1 71.6H474l-46.1 46v65.1l46.1 46h65.1l46-46v-65.1z"/><path class="st2" d="m523.405 358.127 28.92-28.92 28.92 28.92-28.92 28.92z"/><path class="st5" d="m507.1 421.4 25.9 16 27.8-12.4-7.2 29.6 20.4 22.7-30.4 2.3-15.3 26.3-11.5-28.1-29.8-6.4 23.2-19.7z"/><path transform="rotate(-45.001 904.759 756.317)" style="fill:none;stroke:#ef4523;stroke-width:5;stroke-linecap:round;stroke-linejoin:round;stroke-miterlimit:10" d="M875.5 727H934v58.5h-58.5z"/><path class="st7" d="M351.1 369.6 315.8 390v40.8l35.3 20.4 35.4-20.4V390z"/><path class="st9" d="M300.6 483.6V558l-37.2-37.2z"/><path class="st0" d="m156.3 282.6 62.1 69.7V246.7z"/><path class="st10" d="m543.142 273.207 65.901-65.902 32.951 32.95-65.902 65.902z"/><path transform="rotate(-45.001 100.338 588.696)" style="fill:none;stroke:#e8ba20;stroke-width:5;stroke-linecap:round;stroke-linejoin:round;stroke-miterlimit:10" d="M74.6 562.9h51.5v51.5H74.6z"/><path class="st1" d="M26.7 556.2V447l54.6 54.6zM321.3 201.5l67.8-67.8v67.8z"/><path class="st10" d="m369.463 244.433 21.991-21.991 21.99 21.99-21.99 21.992zM326.877 59.249l39.951-39.952 39.951 39.952-39.951 39.95zM717.484 116.966l64.629-64.629 64.629 64.629-64.63 64.629z"/><path class="st0" d="m546.3 559.6-22.5 38.8h44.9z"/><path class="st6" d="m506.5 109.2 12.8 25.9 28.6 4.2-20.7 20.2 4.9 28.4-25.6-13.4-25.6 13.4 4.9-28.4-20.7-20.2 28.6-4.2z"/><path class="st12" d="m228.127 605.744 23.3-40.356 145.228 83.85-23.3 40.356z"/><path class="st0" d="M477.7 626.3h-40.1l-20 34.7 20 34.8h40.1l20.1-34.8z"/><path class="st13" d="m63.513 744.556 41.366-41.366 41.365 41.366-41.365 41.365z"/><path class="st5" d="m100.5 655-72.3 72.3"/><path class="st13" d="m733.706 567.603 43.699-43.699 43.699 43.7-43.7 43.698z"/><path class="st1" d="M729.8 327.9 699.7 380h60.1z"/><path class="st10" d="m250.202 734.778 26.728-26.728 26.728 26.728-26.728 26.729z"/><path class="st1" d="M115.4 170.9h129.8v36.4H115.4z"/><path class="st0" d="m751.4 651.2-60.2 24.9-24.9 60.1 24.9 60.2 60.1 24.8 60.2-24.9 24.9-60.1-24.9-60.1zM155.4 634.1v74.4l-37.2-37.2z"/><path class="st6" d="M971.6 693.4v74.4"/><path class="st2" d="M28.2 685.2v-84.4L70.4 643z"/><path class="st0" d="m935.5 408.4 57.3-41.6-21.8-67.3h-70.8l-21.9 67.3z"/><path class="st10" d="m389.1 879.9 102.8 102.7H389.1z"/><path class="st1" d="m656.5 46.3 40 79.3-40 79.3-39.9-79.3z"/><path class="st12" d="m166.2 756.3 40 79.3-40 79.3-40-79.3z"/><path class="st7" d="m49.3 116 40 79.2-40 79.3-39.9-79.3z"/><path class="st2" d="m430.925 751.248 33.375-33.375 33.375 33.375-33.375 33.376zM904.8 576.2l11.8 24 26.5 3.9-19.2 18.7 4.6 26.4-23.7-12.5-23.8 12.5 4.6-26.4-19.2-18.7 26.5-3.9z"/><path class="st10" d="m284.9 391.1 22.4-38.8h-44.8z"/><path class="st0" d="m122 97.1-29.4 51h58.9z"/><path class="st5" d="M9.5 40.9 71.7 9.5l62.2 31.4-62.2 61.6z"/><path class="st0" d="m368.106 536.422 17.254-17.254 17.253 17.254-17.253 17.253z"/><path class="st9" d="m653.77 467.644 17.253-17.254 17.254 17.254-17.254 17.253z"/><path class="st5" d="m853.9 785.9 31.3 62.2-31.3 62.2-61.6-62.2z"/><path class="st6" d="M945.7 143.7h-60.2l-30.1 52.1 30.1 52.1h60.2l30.1-52.1z"/><path class="st2" d="M809.1 421.2h24.4v24.4h-24.4zM769.8 104.7h24.4v24.4h-24.4z"/><path class="st0" d="M595.3 34.3 652.6 23l-57.3 57.3L538.1 23z"/><path class="st9" d="m78.934 329.12 22.98-22.981 22.982 22.98-22.981 22.981z"/><path class="st14" d="M644.1 598.4v78.4l-39.2-39.2z"/><path class="st9" d="m719.6 592.2 33.8 33.7h-33.8z"/><circle class="st7" cx="293.9" cy="282.6" r="16.7"/><circle class="st1" cx="915.6" cy="195.8" r="16.7"/><path class="st13" d="m752.4 757.6 22.4-38.8h-44.9z"/><path class="st3" d="m233 866.9-66.8 115.7h133.5z"/><path class="st6" d="m875.4 982.7 102.7-102.8v102.8z"/><path class="st13" d="M986.6 795.2 966.5 856l-60.8 20.1 20-60.9z"/><path class="st9" d="m505.36 862.264 26.729-26.728 26.728 26.728-26.728 26.729z"/><circle class="st0" cx="935.6" cy="64.7" r="45.4"/><path class="st14" d="m446.3 340.1 19.9-14.4-7.6-23.3h-24.5l-7.6 23.3z"/><path class="st4" d="m711.6 71.3 33.6-58.1h-67.1z"/><path class="st3" d="M55.8 777.8 15 801.4v47.1L55.8 872l40.8-23.5v-47.1z"/><circle class="st2" cx="96.6" cy="933.4" r="50.1"/><path class="st1" d="M21.8 880.2v102.1"/><path class="st2" d="m440.5 878.7 72.2 72.3"/><path class="st1" d="M510.3 38h-75.7"/><path class="st7" d="m294.9 58.7 22.4-38.8h-44.8z"/><circle class="st2" cx="666.3" cy="872" r="50.1"/><path class="st1" d="M626.7 940.9h174.9v35.5H626.7z"/><path class="st9" d="m747.1 853.7 60.7 60.6h-60.7z"/><circle class="st2" cx="847.4" cy="949.4" r="17.4"/><path class="st9" d="m842.7 73.7 30.9-22.4L861.8 15h-38.2l-11.8 36.3z"/></svg>