<svg xmlns="http://www.w3.org/2000/svg"><style>:root svg:not(:target){display:none}</style><svg id="github" viewBox="0 0 500 500"><path d="M250.2 4.2C111.8 4.2 0 116.8 0 256.2 0 367.7 71.7 462 171.1 495.4c12.4 2.5 17-5.4 17-12.1 0-5.8-.4-25.9-.4-46.7-69.6 15-84.1-30-84.1-30-11.2-29.2-27.8-36.7-27.8-36.7-22.8-15.4 1.7-15.4 1.7-15.4 25.3 1.7 38.5 25.9 38.5 25.9 22.4 38.4 58.4 27.5 72.9 20.9 2.1-16.3 8.7-27.5 15.7-33.8-55.5-5.8-113.9-27.5-113.9-124.4 0-27.5 9.9-50.1 25.7-67.6-2.5-6.3-11.2-32.1 2.5-66.8 0 0 21.1-6.7 68.8 25.9 20.4-5.5 41.4-8.3 62.6-8.3 21.1 0 42.7 2.9 62.5 8.3 47.6-32.6 68.8-25.9 68.8-25.9 13.7 34.6 5 60.5 2.5 66.8 16.2 17.5 25.7 40.1 25.7 67.6 0 96.8-58.4 118.1-114.3 124.4 9.1 7.9 17 22.9 17 46.7 0 33.8-.4 60.9-.4 69.3 0 6.7 4.6 14.6 17 12.1C428.3 462 500 367.7 500 256.2c.4-139.4-111.9-252-249.8-252z" style="fill:#fff"></path></svg><svg id="mail" viewBox="0 0 500 500"><path d="M250 0C111.9 0 0 111.9 0 250s111.9 250 250 250 250-111.9 250-250S388.1 0 250 0zM105.6 131.3l288.4-.6c10.3 0 11 8.3 8.4 13.5L256.6 279.7c-3.8 3.9-9.6 3.9-13.5 0L97.2 144.8c-5.8-6.4.7-13.5 8.4-13.5zm273.7 238H121.2c-14.2 0-25.8-11.6-25.8-25.8 0 0 0-148.3.6-146.4 0-7.1 7.7-10.3 12.9-5.8l113.6 105.8c7.7 6.4 17.4 10.3 27.7 10.3s20-3.9 27.7-11l114.2-105.1c5.2-4.5 12.9-.7 12.9 5.8 0 29 0 107.7.1 146.4 0 14.2-11.6 25.8-25.8 25.8z" style="fill:#fff"></path></svg><svg id="site" viewBox="0 0 500 500"><path d="M250 0C111.9 0 0 111.9 0 250s111.9 250 250 250 250-111.9 250-250S388.1 0 250 0zm128 334.1-56.1 56.1-100.6-100.5v87.2H142V123.1h79.3v87.2l16.5-16.4 84.1-84.1 56.1 56.1-84.1 84.1 84.1 84.1z" style="fill-rule:evenodd;clip-rule:evenodd;fill:#fff"></path></svg><svg id="telegram" viewBox="0 0 500 500"><path d="M250 0C111.9 0 0 111.9 0 250s111.9 250 250 250 250-111.9 250-250S388.1 0 250 0zm115.9 170c-3.8 39.5-20 135.5-28.3 179.7-3.5 18.7-10.4 25-17.1 25.6-14.5 1.3-25.5-9.6-39.6-18.8-22-14.4-34.4-23.4-55.8-37.5-24.7-16.3-8.7-25.2 5.4-39.8 3.7-3.8 67.6-62 68.9-67.3.2-.7.3-3.1-1.2-4.4-1.5-1.3-3.6-.9-5.2-.5-2.2.5-37.4 23.7-105.5 69.7-10 6.9-19 10.2-27.1 10-8.9-.2-26.1-5-38.9-9.2-15.7-5.1-28.1-7.8-27-16.4.6-4.5 6.8-9.1 18.6-13.8 72.9-31.8 121.5-52.7 145.8-62.8 69.4-28.9 83.9-33.9 93.3-34.1 2.1 0 6.7.5 9.7 2.9 2.5 2.1 3.2 4.8 3.6 6.8.3 2 .7 6.5.4 9.9z" style="fill-rule:evenodd;clip-rule:evenodd;fill:#fff"></path></svg></svg>