<svg xmlns="http://www.w3.org/2000/svg" width="145pt" height="140pt" viewBox="0 0 145 140" version="1.2"><path style="stroke:none;fill-rule:nonzero;fill:#e5c2b2;fill-opacity:1" d="m66.238 81.531 9.946 41.906 10.332-64.101"/><path style="fill:none;stroke-width:4.22137;stroke-linecap:round;stroke-linejoin:round;stroke:#000;stroke-opacity:1;stroke-miterlimit:10" d="m662.383 584.688 99.453-419.063 103.32 641.016Zm0 0" transform="matrix(.1 0 0 -.1 0 140)"/><path style="stroke:none;fill-rule:nonzero;fill:#a9bde7;fill-opacity:1" d="m66.238 81.531 20.278-22.195L23.69 76.75"/><path style="fill:none;stroke-width:4.22137;stroke-linecap:round;stroke-linejoin:round;stroke:#000;stroke-opacity:1;stroke-miterlimit:10" d="M662.383 584.688 865.156 806.64 236.914 632.5Zm0 0" transform="matrix(.1 0 0 -.1 0 140)"/><path style="stroke:none;fill-rule:nonzero;fill:#3947b6;fill-opacity:1" d="m93.02 84.55-6.504-25.214-10.332 64.102"/><path style="fill:none;stroke-width:4.22137;stroke-linecap:round;stroke-linejoin:round;stroke:#000;stroke-opacity:1;stroke-miterlimit:10" d="m930.195 554.492-65.039 252.149-103.32-641.016Zm0 0" transform="matrix(.1 0 0 -.1 0 140)"/><path style="stroke:none;fill-rule:nonzero;fill:#a9bde7;fill-opacity:1" d="m93.02 84.55 44.32 5.016-50.824-30.23"/><path style="fill:none;stroke-width:4.22137;stroke-linecap:round;stroke-linejoin:round;stroke:#000;stroke-opacity:1;stroke-miterlimit:10" d="m930.195 554.492 443.203-50.156L865.156 806.64Zm0 0" transform="matrix(.1 0 0 -.1 0 140)"/><path style="stroke:none;fill-rule:nonzero;fill:#c15845;fill-opacity:1" d="M59.988 55.246 23.691 76.75l62.825-17.414"/><path style="fill:none;stroke-width:4.22137;stroke-linecap:round;stroke-linejoin:round;stroke:#000;stroke-opacity:1;stroke-miterlimit:10" d="M599.883 847.54 236.914 632.5l628.242 174.14Zm0 0" transform="matrix(.1 0 0 -.1 0 140)"/><path style="stroke:none;fill-rule:nonzero;fill:#e5c2b2;fill-opacity:1" d="m59.988 55.246 26.528 4.09-36.848-47.422"/><path style="fill:none;stroke-width:4.22137;stroke-linecap:round;stroke-linejoin:round;stroke:#000;stroke-opacity:1;stroke-miterlimit:10" d="m599.883 847.54 265.273-40.9-368.476 474.22Zm0 0" transform="matrix(.1 0 0 -.1 0 140)"/><path style="stroke:none;fill-rule:nonzero;fill:#2d0023;fill-opacity:1" d="m103.734 59.852-17.218-.516 50.824 30.23"/><path style="fill:none;stroke-width:4.22137;stroke-linecap:round;stroke-linejoin:round;stroke:#000;stroke-opacity:1;stroke-miterlimit:10" d="m1037.344 801.484-172.188 5.157 508.242-302.305Zm0 0" transform="matrix(.1 0 0 -.1 0 140)"/><path style="stroke:none;fill-rule:nonzero;fill:#3948b6;fill-opacity:1" d="m103.734 59.852 17.926-41.239-35.144 40.723"/><path style="fill:none;stroke-width:4.22137;stroke-linecap:round;stroke-linejoin:round;stroke:#000;stroke-opacity:1;stroke-miterlimit:10" d="m1037.344 801.484 179.258 412.383-351.446-407.226Zm0 0" transform="matrix(.1 0 0 -.1 0 140)"/><path style="stroke:none;fill-rule:nonzero;fill:#c15845;fill-opacity:1" d="m83.07 41.547 3.446 17.789 35.144-40.723"/><path style="fill:none;stroke-width:4.22137;stroke-linecap:round;stroke-linejoin:round;stroke:#000;stroke-opacity:1;stroke-miterlimit:10" d="m830.703 984.531 34.453-177.89 351.446 407.226Zm0 0" transform="matrix(.1 0 0 -.1 0 140)"/><path style="stroke:none;fill-rule:nonzero;fill:#2d0023;fill-opacity:1" d="M83.07 41.547 49.668 11.914l36.848 47.422"/><path style="fill:none;stroke-width:4.22137;stroke-linecap:round;stroke-linejoin:round;stroke:#000;stroke-opacity:1;stroke-miterlimit:10" d="M830.703 984.531 496.68 1280.86l368.476-474.218Zm0 0" transform="matrix(.1 0 0 -.1 0 140)"/><path style="stroke:none;fill-rule:nonzero;fill:#ac85ac;fill-opacity:1" d="M66.238 81.531 23.691 76.75l52.493 46.688"/><path style="fill:none;stroke-width:4.22137;stroke-linecap:round;stroke-linejoin:round;stroke:#000;stroke-opacity:1;stroke-miterlimit:10" d="M662.383 584.688 236.914 632.5l524.922-466.875Zm0 0" transform="matrix(.1 0 0 -.1 0 140)"/><path style="stroke:none;fill-rule:nonzero;fill:#000;fill-opacity:1" d="m52.445 96.629 23.739 26.808L23.69 76.75"/><path style="fill:none;stroke-width:4.22137;stroke-linecap:round;stroke-linejoin:round;stroke:#000;stroke-opacity:1;stroke-miterlimit:10" d="m524.453 433.71 237.383-268.085L236.914 632.5Zm0 0" transform="matrix(.1 0 0 -.1 0 140)"/><path style="stroke:none;fill-rule:nonzero;fill:#a9bde7;fill-opacity:1" d="M52.445 96.629 23.691 76.75l3.938 47.043"/><path style="fill:none;stroke-width:4.22137;stroke-linecap:round;stroke-linejoin:round;stroke:#000;stroke-opacity:1;stroke-miterlimit:10" d="M524.453 433.71 236.914 632.5l39.375-470.43Zm0 0" transform="matrix(.1 0 0 -.1 0 140)"/><path style="stroke:none;fill-rule:nonzero;fill:#102cab;fill-opacity:1" d="m36.563 78.742-8.934 45.051L23.69 76.75"/><path style="fill:none;stroke-width:4.22137;stroke-linecap:round;stroke-linejoin:round;stroke:#000;stroke-opacity:1;stroke-miterlimit:10" d="M365.625 612.578 276.289 162.07 236.914 632.5Zm0 0" transform="matrix(.1 0 0 -.1 0 140)"/><path style="stroke:none;fill-rule:nonzero;fill:#ac85ac;fill-opacity:1" d="m59.988 55.246-10.32-43.332L23.691 76.75"/><path style="fill:none;stroke-width:4.22137;stroke-linecap:round;stroke-linejoin:round;stroke:#000;stroke-opacity:1;stroke-miterlimit:10" d="M599.883 847.54 496.68 1280.86 236.914 632.5Zm0 0" transform="matrix(.1 0 0 -.1 0 140)"/><path style="stroke:none;fill-rule:nonzero;fill:#102cab;fill-opacity:1" d="M41.746 52.422 23.691 76.75l25.977-64.836"/><path style="fill:none;stroke-width:4.22137;stroke-linecap:round;stroke-linejoin:round;stroke:#000;stroke-opacity:1;stroke-miterlimit:10" d="M417.46 875.781 236.915 632.5l259.766 648.36Zm0 0" transform="matrix(.1 0 0 -.1 0 140)"/><path style="stroke:none;fill-rule:nonzero;fill:#c15845;fill-opacity:1" d="M41.746 52.422 8.52 47.258 23.69 76.75"/><path style="fill:none;stroke-width:4.22137;stroke-linecap:round;stroke-linejoin:round;stroke:#000;stroke-opacity:1;stroke-miterlimit:10" d="m417.46 875.781-332.265 51.64L236.915 632.5Zm0 0" transform="matrix(.1 0 0 -.1 0 140)"/><path style="stroke:none;fill-rule:nonzero;fill:#000;fill-opacity:1" d="M36.563 78.742 23.69 76.75 8.52 47.258"/><path style="fill:none;stroke-width:4.22137;stroke-linecap:round;stroke-linejoin:round;stroke:#000;stroke-opacity:1;stroke-miterlimit:10" d="M365.625 612.578 236.915 632.5 85.194 927.422Zm0 0" transform="matrix(.1 0 0 -.1 0 140)"/><path style="stroke:none;fill-rule:nonzero;fill:#ac85ac;fill-opacity:1" d="m93.02 84.55-16.836 38.888 61.156-33.872"/><path style="fill:none;stroke-width:4.22137;stroke-linecap:round;stroke-linejoin:round;stroke:#000;stroke-opacity:1;stroke-miterlimit:10" d="m930.195 554.492-168.36-388.867 611.563 338.71Zm0 0" transform="matrix(.1 0 0 -.1 0 140)"/><path style="stroke:none;fill-rule:nonzero;fill:#bb4321;fill-opacity:1" d="m97.52 101.926 39.82-12.36-61.156 33.871"/><path style="fill:none;stroke-width:4.22137;stroke-linecap:round;stroke-linejoin:round;stroke:#000;stroke-opacity:1;stroke-miterlimit:10" d="m975.195 380.742 398.203 123.594-611.562-338.711Zm0 0" transform="matrix(.1 0 0 -.1 0 140)"/><path style="stroke:none;fill-rule:nonzero;fill:#3948b6;fill-opacity:1" d="m97.52 101.926-21.336 21.511 29.57 10.227"/><path style="fill:none;stroke-width:4.22137;stroke-linecap:round;stroke-linejoin:round;stroke:#000;stroke-opacity:1;stroke-miterlimit:10" d="m975.195 380.742-213.36-215.117L1057.54 63.359Zm0 0" transform="matrix(.1 0 0 -.1 0 140)"/><path style="stroke:none;fill-rule:nonzero;fill:#e5c2b2;fill-opacity:1" d="M52.445 96.629 27.63 123.793l48.555-.356"/><path style="fill:none;stroke-width:4.22137;stroke-linecap:round;stroke-linejoin:round;stroke:#000;stroke-opacity:1;stroke-miterlimit:10" d="M524.453 433.71 276.29 162.07l485.547 3.555Zm0 0" transform="matrix(.1 0 0 -.1 0 140)"/><path style="stroke:none;fill-rule:nonzero;fill:#bb4321;fill-opacity:1" d="m71.7 109.98 4.484 13.457-48.555.356"/><path style="fill:none;stroke-width:4.22137;stroke-linecap:round;stroke-linejoin:round;stroke:#000;stroke-opacity:1;stroke-miterlimit:10" d="m716.992 300.195 44.844-134.57-485.547-3.555Zm0 0" transform="matrix(.1 0 0 -.1 0 140)"/><path style="stroke:none;fill-rule:nonzero;fill:#000;fill-opacity:1" d="m71.7 109.98 34.054 23.684-29.57-10.226"/><path style="fill:none;stroke-width:4.22137;stroke-linecap:round;stroke-linejoin:round;stroke:#000;stroke-opacity:1;stroke-miterlimit:10" d="M716.992 300.195 1057.54 63.36 761.836 165.625Zm0 0" transform="matrix(.1 0 0 -.1 0 140)"/><path style="stroke:none;fill-rule:nonzero;fill:#e5c2b2;fill-opacity:1" d="m41.746 52.422 7.922-40.508L8.52 47.258"/><path style="fill:none;stroke-width:4.22137;stroke-linecap:round;stroke-linejoin:round;stroke:#000;stroke-opacity:1;stroke-miterlimit:10" d="m417.46 875.781 79.22 405.078L85.195 927.422Zm0 0" transform="matrix(.1 0 0 -.1 0 140)"/><path style="stroke:none;fill-rule:nonzero;fill:#ac85ac;fill-opacity:1" d="m83.07 41.547 38.59-22.934-71.992-6.699"/><path style="fill:none;stroke-width:4.22137;stroke-linecap:round;stroke-linejoin:round;stroke:#000;stroke-opacity:1;stroke-miterlimit:10" d="m830.703 984.531 385.899 229.336-719.922 66.992Zm0 0" transform="matrix(.1 0 0 -.1 0 140)"/><path style="stroke:none;fill-rule:nonzero;fill:#a4c3ef;fill-opacity:1" d="m80.66 29.055-30.992-17.14 71.992 6.698"/><path style="fill:none;stroke-width:4.22137;stroke-linecap:round;stroke-linejoin:round;stroke:#000;stroke-opacity:1;stroke-miterlimit:10" d="M806.602 1109.453 496.68 1280.86l719.922-66.992Zm0 0" transform="matrix(.1 0 0 -.1 0 140)"/><path style="stroke:none;fill-rule:nonzero;fill:#2e0024;fill-opacity:1" d="M80.66 29.055 76.184 5.73l-26.516 6.184"/><path style="fill:none;stroke-width:4.22137;stroke-linecap:round;stroke-linejoin:round;stroke:#000;stroke-opacity:1;stroke-miterlimit:10" d="m806.602 1109.453-44.766 233.242-265.156-61.836Zm0 0" transform="matrix(.1 0 0 -.1 0 140)"/><path style="stroke:none;fill-rule:nonzero;fill:#0f2caa;fill-opacity:1" d="m54.04 35.797-4.372-23.883L76.184 5.73"/><path style="fill:none;stroke-width:4.22137;stroke-linecap:round;stroke-linejoin:round;stroke:#000;stroke-opacity:1;stroke-miterlimit:10" d="m540.39 1042.031-43.71 238.828 265.156 61.836Zm0 0" transform="matrix(.1 0 0 -.1 0 140)"/><path style="stroke:none;fill-rule:nonzero;fill:#a4c3ef;fill-opacity:1" d="M54.04 35.797 8.52 47.257l41.148-35.343"/><path style="fill:none;stroke-width:4.22137;stroke-linecap:round;stroke-linejoin:round;stroke:#000;stroke-opacity:1;stroke-miterlimit:10" d="M540.39 1042.031 85.196 927.421 496.68 1280.86Zm0 0" transform="matrix(.1 0 0 -.1 0 140)"/><path style="stroke:none;fill-rule:nonzero;fill:#ac85ac;fill-opacity:1" d="m103.734 59.852 33.606 29.714-15.68-70.953"/><path style="fill:none;stroke-width:4.22137;stroke-linecap:round;stroke-linejoin:round;stroke:#000;stroke-opacity:1;stroke-miterlimit:10" d="m1037.344 801.484 336.054-297.148-156.796 709.531Zm0 0" transform="matrix(.1 0 0 -.1 0 140)"/><path style="stroke:none;fill-rule:nonzero;fill:#a9bde7;fill-opacity:1" d="m97.52 101.926 8.234 31.738 31.586-44.098"/><path style="fill:none;stroke-width:4.22137;stroke-linecap:round;stroke-linejoin:round;stroke:#000;stroke-opacity:1;stroke-miterlimit:10" d="M975.195 380.742 1057.54 63.36l315.86 440.977Zm0 0" transform="matrix(.1 0 0 -.1 0 140)"/><path style="stroke:none;fill-rule:nonzero;fill:#ecc9b0;fill-opacity:1" d="m112.105 87.273 25.235 2.293-31.586 44.098"/><path style="fill:none;stroke-width:4.22137;stroke-linecap:round;stroke-linejoin:round;stroke:#000;stroke-opacity:1;stroke-miterlimit:10" d="m1121.055 527.266 252.343-22.93L1057.54 63.359Zm0 0" transform="matrix(.1 0 0 -.1 0 140)"/><path style="stroke:none;fill-rule:nonzero;fill:#ecc9af;fill-opacity:1" d="m115.852 60.207 5.808-41.594 15.68 70.953"/><path style="fill:none;stroke-width:4.22137;stroke-linecap:round;stroke-linejoin:round;stroke:#000;stroke-opacity:1;stroke-miterlimit:10" d="m1158.516 797.93 58.086 415.937 156.796-709.531Zm0 0" transform="matrix(.1 0 0 -.1 0 140)"/><path style="stroke:none;fill-rule:nonzero;fill:#2e0024;fill-opacity:1" d="m115.852 60.207 21.488 29.36 1.16-28.72"/><path style="fill:none;stroke-width:4.22137;stroke-linecap:round;stroke-linejoin:round;stroke:#000;stroke-opacity:1;stroke-miterlimit:10" d="m1158.516 797.93 214.882-293.594L1385 791.523Zm0 0" transform="matrix(.1 0 0 -.1 0 140)"/><path style="stroke:none;fill-rule:nonzero;fill:#ba4220;fill-opacity:1" d="M112.105 87.273 138.5 60.848l-1.16 28.718"/><path style="fill:none;stroke-width:4.22137;stroke-linecap:round;stroke-linejoin:round;stroke:#000;stroke-opacity:1;stroke-miterlimit:10" d="M1121.055 527.266 1385 791.523l-11.602-287.187Zm0 0" transform="matrix(.1 0 0 -.1 0 140)"/><path style="stroke:none;fill-rule:nonzero;fill:#3a48b6;fill-opacity:1" d="m115.852 60.207 22.648.64-16.84-42.234"/><path style="fill:none;stroke-width:4.22137;stroke-linecap:round;stroke-linejoin:round;stroke:#000;stroke-opacity:1;stroke-miterlimit:10" d="M1158.516 797.93 1385 791.523l-168.398 422.344Zm0 0" transform="matrix(.1 0 0 -.1 0 140)"/><path style="stroke:none;fill-rule:nonzero;fill:#c25946;fill-opacity:1" d="m80.66 29.055 41-10.442L76.184 5.73"/><path style="fill:none;stroke-width:4.22137;stroke-linecap:round;stroke-linejoin:round;stroke:#000;stroke-opacity:1;stroke-miterlimit:10" d="m806.602 1109.453 410 104.414-454.766 128.828Zm0 0" transform="matrix(.1 0 0 -.1 0 140)"/><path style="stroke:none;fill-rule:nonzero;fill:#a4c3ef;fill-opacity:1" d="m101.496 40.531 20.164-21.918 16.84 42.235"/><path style="fill:none;stroke-width:4.22137;stroke-linecap:round;stroke-linejoin:round;stroke:#000;stroke-opacity:1;stroke-miterlimit:10" d="m1014.96 994.688 201.642 219.18L1385 791.522Zm0 0" transform="matrix(.1 0 0 -.1 0 140)"/><path style="stroke:none;fill-rule:nonzero;fill:#ecc9af;fill-opacity:1" d="m101.496 40.531-25.312-34.8 45.476 12.882"/><path style="fill:none;stroke-width:4.22137;stroke-linecap:round;stroke-linejoin:round;stroke:#000;stroke-opacity:1;stroke-miterlimit:10" d="m1014.96 994.688-253.124 348.007 454.766-128.828Zm0 0" transform="matrix(.1 0 0 -.1 0 140)"/><path style="stroke:none;fill-rule:nonzero;fill:#e5c2b2;fill-opacity:1" d="M36.563 78.742 8.52 47.258l19.109 76.535"/><path style="fill:none;stroke-width:4.22137;stroke-linecap:round;stroke-linejoin:round;stroke:#000;stroke-opacity:1;stroke-miterlimit:10" d="M365.625 612.578 85.195 927.422 276.29 162.07Zm0 0" transform="matrix(.1 0 0 -.1 0 140)"/><path style="stroke:none;fill-rule:nonzero;fill:#a9bde7;fill-opacity:1" d="m71.7 109.98-44.071 13.813 78.125 9.871"/><path style="fill:none;stroke-width:4.22137;stroke-linecap:round;stroke-linejoin:round;stroke:#000;stroke-opacity:1;stroke-miterlimit:10" d="M716.992 300.195 276.29 162.07l781.25-98.71Zm0 0" transform="matrix(.1 0 0 -.1 0 140)"/><path style="stroke:none;fill-rule:nonzero;fill:#c15946;fill-opacity:1" d="M54.04 35.797 76.183 5.73 8.52 47.258"/><path style="fill:none;stroke-width:4.22137;stroke-linecap:round;stroke-linejoin:round;stroke:#000;stroke-opacity:1;stroke-miterlimit:10" d="m540.39 1042.031 221.446 300.664-676.64-415.273Zm0 0" transform="matrix(.1 0 0 -.1 0 140)"/><path style="stroke:none;fill-rule:nonzero;fill:#3a48b6;fill-opacity:1" d="m112.105 87.273-6.351 46.391L138.5 60.848"/><path style="fill:none;stroke-width:4.22137;stroke-linecap:round;stroke-linejoin:round;stroke:#000;stroke-opacity:1;stroke-miterlimit:10" d="m1121.055 527.266-63.516-463.907L1385 791.523Zm0 0" transform="matrix(.1 0 0 -.1 0 140)"/><path style="stroke:none;fill-rule:nonzero;fill:#2e0024;fill-opacity:1" d="M101.496 40.531 138.5 60.848 76.184 5.73"/><path style="fill:none;stroke-width:4.22137;stroke-linecap:round;stroke-linejoin:round;stroke:#000;stroke-opacity:1;stroke-miterlimit:10" d="M1014.96 994.688 1385 791.523l-623.164 551.172Zm0 0" transform="matrix(.1 0 0 -.1 0 140)"/><path style="stroke:none;fill-rule:nonzero;fill:#aa83ab;fill-opacity:1" d="m68.531 100.527 37.223 33.137-78.125-9.871"/><path style="fill:none;stroke-width:4.22137;stroke-linecap:round;stroke-linejoin:round;stroke:#000;stroke-opacity:1;stroke-miterlimit:10" d="m685.313 394.727 372.226-331.368-781.25 98.711Zm0 0" transform="matrix(.1 0 0 -.1 0 140)"/><path style="stroke:none;fill-rule:nonzero;fill:#bb4220;fill-opacity:1" d="M68.531 100.527 27.63 123.793l34.941-40.95"/><path style="fill:none;stroke-width:4.22137;stroke-linecap:round;stroke-linejoin:round;stroke:#000;stroke-opacity:1;stroke-miterlimit:10" d="M685.313 394.727 276.288 162.07l349.414 409.493Zm0 0" transform="matrix(.1 0 0 -.1 0 140)"/><path style="stroke:none;fill-rule:nonzero;fill:#ab83ab;fill-opacity:1" d="M45.613 80.16 27.63 123.793 8.519 47.258"/><path style="fill:none;stroke-width:4.22137;stroke-linecap:round;stroke-linejoin:round;stroke:#000;stroke-opacity:1;stroke-miterlimit:10" d="M456.133 598.398 276.289 162.07 85.195 927.422Zm0 0" transform="matrix(.1 0 0 -.1 0 140)"/><path style="stroke:none;fill-rule:nonzero;fill:#0f2caa;fill-opacity:1" d="m45.613 80.16 16.957 2.684-34.941 40.949"/><path style="fill:none;stroke-width:4.22137;stroke-linecap:round;stroke-linejoin:round;stroke:#000;stroke-opacity:1;stroke-miterlimit:10" d="m456.133 598.398 169.57-26.836L276.29 162.07Zm0 0" transform="matrix(.1 0 0 -.1 0 140)"/><path style="stroke:none;fill-rule:nonzero;fill:#000;fill-opacity:1" d="M45.613 80.16 8.52 47.258l54.05 35.586"/><path style="fill:none;stroke-width:4.22137;stroke-linecap:round;stroke-linejoin:round;stroke:#000;stroke-opacity:1;stroke-miterlimit:10" d="M456.133 598.398 85.195 927.422l540.508-355.86Zm0 0" transform="matrix(.1 0 0 -.1 0 140)"/><path style="stroke:none;fill-rule:nonzero;fill:#aa83aa;fill-opacity:1" d="M57.05 52.355 8.52 47.258 76.184 5.73"/><path style="fill:none;stroke-width:4.22137;stroke-linecap:round;stroke-linejoin:round;stroke:#000;stroke-opacity:1;stroke-miterlimit:10" d="M570.508 876.445 85.195 927.422l676.64 415.273Zm0 0" transform="matrix(.1 0 0 -.1 0 140)"/><path style="stroke:none;fill-rule:nonzero;fill:#a4c3ef;fill-opacity:1" d="m57.05 52.355 5.52 30.489L8.52 47.258"/><path style="fill:none;stroke-width:4.22137;stroke-linecap:round;stroke-linejoin:round;stroke:#000;stroke-opacity:1;stroke-miterlimit:10" d="m570.508 876.445 55.195-304.883-540.508 355.86Zm0 0" transform="matrix(.1 0 0 -.1 0 140)"/><path style="stroke:none;fill-rule:nonzero;fill:#000;fill-opacity:1" d="m68.531 100.527-5.96-17.683 43.183 50.82"/><path style="fill:none;stroke-width:4.22137;stroke-linecap:round;stroke-linejoin:round;stroke:#000;stroke-opacity:1;stroke-miterlimit:10" d="m685.313 394.727-59.61 176.836L1057.54 63.358Zm0 0" transform="matrix(.1 0 0 -.1 0 140)"/><path style="stroke:none;fill-rule:nonzero;fill:#edc9af;fill-opacity:1" d="m94.64 85.703 11.114 47.961-43.184-50.82"/><path style="fill:none;stroke-width:4.22137;stroke-linecap:round;stroke-linejoin:round;stroke:#000;stroke-opacity:1;stroke-miterlimit:10" d="m946.406 542.969 111.133-479.61-431.836 508.204Zm0 0" transform="matrix(.1 0 0 -.1 0 140)"/><path style="stroke:none;fill-rule:nonzero;fill:#aa83ab;fill-opacity:1" d="m94.64 85.703 43.86-24.855-32.746 72.816"/><path style="fill:none;stroke-width:4.22137;stroke-linecap:round;stroke-linejoin:round;stroke:#000;stroke-opacity:1;stroke-miterlimit:10" d="M946.406 542.969 1385 791.523 1057.54 63.36Zm0 0" transform="matrix(.1 0 0 -.1 0 140)"/><path style="stroke:none;fill-rule:nonzero;fill:#0f2baa;fill-opacity:1" d="M57.05 52.355 76.185 5.73 62.57 82.844"/><path style="fill:none;stroke-width:4.22137;stroke-linecap:round;stroke-linejoin:round;stroke:#000;stroke-opacity:1;stroke-miterlimit:10" d="m570.508 876.445 191.328 466.25-136.133-771.132Zm0 0" transform="matrix(.1 0 0 -.1 0 140)"/><path style="stroke:none;fill-rule:nonzero;fill:#ba4220;fill-opacity:1" d="m94.64 85.703-32.07-2.86 75.93-21.995"/><path style="fill:none;stroke-width:4.22137;stroke-linecap:round;stroke-linejoin:round;stroke:#000;stroke-opacity:1;stroke-miterlimit:10" d="m946.406 542.969-320.703 28.593L1385 791.524Zm0 0" transform="matrix(.1 0 0 -.1 0 140)"/><path style="stroke:none;fill-rule:nonzero;fill:#edc9af;fill-opacity:1" d="M87.676 55.559 62.57 82.844 76.184 5.73"/><path style="fill:none;stroke-width:4.22137;stroke-linecap:round;stroke-linejoin:round;stroke:#000;stroke-opacity:1;stroke-miterlimit:10" d="M876.758 844.414 625.703 571.563l136.133 771.132Zm0 0" transform="matrix(.1 0 0 -.1 0 140)"/><path style="stroke:none;fill-rule:nonzero;fill:#a4c3ef;fill-opacity:1" d="m87.676 55.559 50.824 5.289-75.93 21.996"/><path style="fill:none;stroke-width:4.22137;stroke-linecap:round;stroke-linejoin:round;stroke:#000;stroke-opacity:1;stroke-miterlimit:10" d="M876.758 844.414 1385 791.524 625.703 571.561Zm0 0" transform="matrix(.1 0 0 -.1 0 140)"/><path style="stroke:none;fill-rule:nonzero;fill:#aa83aa;fill-opacity:1" d="M87.676 55.559 76.184 5.73 138.5 60.848"/><path style="fill:none;stroke-width:4.22137;stroke-linecap:round;stroke-linejoin:round;stroke:#000;stroke-opacity:1;stroke-miterlimit:10" d="m876.758 844.414-114.922 498.281L1385 791.523Zm0 0" transform="matrix(.1 0 0 -.1 0 140)"/></svg>