<svg xmlns="http://www.w3.org/2000/svg" viewBox="0 0 140 140" style="enable-background:new 0 0 140 140" xml:space="preserve"><path style="fill:#b5350c" d="m104.1 122.3 25.5-22.7-27.9-1.5-45.3 25.1 5.8 13.2 41.9-14.1z"/><path d="m62.2 136.4-5.8-13.2-39.3-35-12.5-3.1 27 28.2 30.6 23.1z"/><path style="fill:#001ca2" d="M32.7 13.8 14 42.4 4.6 85.1l12.5 3.1 19.3-48z"/><path style="fill:#f0ccad" d="M112.2 21.1 89.7 45.5l12 52.6 27.9 1.5 5.1-44.9z"/><path style="fill:#a1c6f2" d="m36.4 40.2 53.3 5.3 22.5-24.4L76.9 3.6 32.7 13.8l3.7 26.4"/><path style="fill:#aa82aa" d="m101.7 98.1-12-52.6-53.3-5.3-19.3 48 39.3 35 45.3-25.1z"/></svg>