<?xml version="1.0" encoding="utf-8"?>
<!-- Generator: Adobe Illustrator 23.1.0, SVG Export Plug-In . SVG Version: 6.00 Build 0)  -->
<svg version="1.1" id="Слой_1" xmlns="http://www.w3.org/2000/svg" xmlns:xlink="http://www.w3.org/1999/xlink" x="0px" y="0px"
	 viewBox="0 0 140 140" style="enable-background:new 0 0 140 140;" xml:space="preserve">
<style type="text/css">
	.st0{fill:#B5350C;}
	.st1{fill:#001CA2;}
	.st2{fill:#F0CCAD;}
	.st3{fill:#A1C6F2;}
	.st4{fill:#AA82AA;}
</style>
<polygon class="st0" points="104.1,122.3 129.6,99.6 101.7,98.1 56.4,123.2 62.2,136.4 62.2,136.4 104.1,122.3 "/>
<polygon points="62.2,136.4 62.2,136.4 56.4,123.2 17.1,88.2 4.6,85.1 31.6,113.3 31.6,113.3 62.2,136.4 62.2,136.4 62.2,136.4 "/>
<polygon class="st1" points="32.7,13.8 32.7,13.8 32.7,13.8 32.7,13.8 32.7,13.8 32.7,13.8 32.7,13.8 14,42.4 4.6,85.1 4.6,85.1 
	17.1,88.2 36.4,40.2 "/>
<polygon class="st2" points="112.2,21.1 112.2,21.1 112.2,21.1 112.2,21.1 112.2,21.1 112.2,21.1 112.2,21.1 89.7,45.5 101.7,98.1 
	101.7,98.1 129.6,99.6 134.7,54.7 "/>
<polyline class="st3" points="36.4,40.2 89.7,45.5 112.2,21.1 112.2,21.1 112.2,21.1 112.2,21.1 76.9,3.6 32.7,13.8 36.4,40.2 "/>
<polygon class="st4" points="101.7,98.1 101.7,98.1 101.7,98.1 89.7,45.5 36.4,40.2 36.4,40.2 36.4,40.2 17.1,88.2 56.4,123.2 
	56.4,123.2 101.7,98.1 101.7,98.1 "/>
</svg>
