<svg xmlns="http://www.w3.org/2000/svg" width="168" height="266.587" viewBox="0 0 126 199.94" version="1.2"><path style="stroke:none;fill-rule:nonzero;fill:#4b0d5d;fill-opacity:1" d="m67.125 4.441 47.602 84.457-30.508-6.582"/><path style="fill:none;stroke-width:5;stroke-linecap:round;stroke-linejoin:round;stroke:#000;stroke-opacity:1;stroke-miterlimit:10" d="m671.262 1954.973 476.159-844.824-305.17 65.84Zm0 0" transform="matrix(.09997 0 0 -.09997 .019 199.88)"/><path style="stroke:none;fill-rule:nonzero;fill:#666cc4;fill-opacity:1" d="m67.125 170.059 47.602-81.16-30.508-6.583"/><path style="fill:none;stroke-width:5;stroke-linecap:round;stroke-linejoin:round;stroke:#000;stroke-opacity:1;stroke-miterlimit:10" d="m671.262 298.304 476.159 811.845-305.17 65.84Zm0 0" transform="matrix(.09997 0 0 -.09997 .019 199.88)"/><path style="stroke:none;fill-rule:nonzero;fill:#b77080;fill-opacity:1" d="m67.125 4.441 17.094 77.875-44.406.996"/><path style="fill:none;stroke-width:5;stroke-linecap:round;stroke-linejoin:round;stroke:#000;stroke-opacity:1;stroke-miterlimit:10" d="m671.262 1954.973 170.99-778.984-444.197-9.964Zm0 0" transform="matrix(.09997 0 0 -.09997 .019 199.88)"/><path style="stroke:none;fill-rule:nonzero;fill:#bba7c5;fill-opacity:1" d="m67.125 170.059 17.094-87.743-44.406.996"/><path style="fill:none;stroke-width:5;stroke-linecap:round;stroke-linejoin:round;stroke:#000;stroke-opacity:1;stroke-miterlimit:10" d="m671.262 298.304 170.99 877.685-444.197-9.964Zm0 0" transform="matrix(.09997 0 0 -.09997 .019 199.88)"/><path style="stroke:none;fill-rule:nonzero;fill:#eb8734;fill-opacity:1" d="M67.125 4.441 39.812 83.312l-21.554 7.946"/><path style="fill:none;stroke-width:5;stroke-linecap:round;stroke-linejoin:round;stroke:#000;stroke-opacity:1;stroke-miterlimit:10" d="m671.262 1954.973-273.207-788.948-215.611-79.477Zm0 0" transform="matrix(.09997 0 0 -.09997 .019 199.88)"/><path style="stroke:none;fill-rule:nonzero;fill:#f2e7bf;fill-opacity:1" d="M67.125 170.059 39.812 83.313l-21.554 7.945"/><path style="fill:none;stroke-width:5;stroke-linecap:round;stroke-linejoin:round;stroke:#000;stroke-opacity:1;stroke-miterlimit:10" d="m671.262 298.304-273.207 867.721-215.611-79.477Zm0 0" transform="matrix(.09997 0 0 -.09997 .019 199.88)"/><path style="stroke:none;fill-rule:nonzero;fill:#d86b00;fill-opacity:1" d="m67.125 170.059 47.602-81.16-15.477 9.105"/><path style="fill:none;stroke-width:5;stroke-linecap:round;stroke-linejoin:round;stroke:#000;stroke-opacity:1;stroke-miterlimit:10" d="m671.262 298.304 476.159 811.845-154.812-91.082Zm0 0" transform="matrix(.09997 0 0 -.09997 .019 199.88)"/><path style="stroke:none;fill-rule:nonzero;fill:#b66774;fill-opacity:1" d="M67.125 170.059 46.477 99.422l52.773-1.418"/><path style="fill:none;stroke-width:5;stroke-linecap:round;stroke-linejoin:round;stroke:#000;stroke-opacity:1;stroke-miterlimit:10" d="m671.262 298.304-206.546 706.579 527.893 14.184Zm0 0" transform="matrix(.09997 0 0 -.09997 .019 199.88)"/><path style="stroke:none;fill-rule:nonzero;fill:#330f4a;fill-opacity:1" d="M67.125 170.059 18.258 91.258l28.219 8.164"/><path style="fill:none;stroke-width:5;stroke-linecap:round;stroke-linejoin:round;stroke:#000;stroke-opacity:1;stroke-miterlimit:10" d="m671.262 298.304-488.818 788.244 282.272-81.665Zm0 0" transform="matrix(.09997 0 0 -.09997 .019 199.88)"/><path style="stroke:none;fill-rule:nonzero;fill:#f4f2b4;fill-opacity:1" d="m67.125 4.441 47.602 84.457-15.477 9.106"/><path style="fill:none;stroke-width:5;stroke-linecap:round;stroke-linejoin:round;stroke:#000;stroke-opacity:1;stroke-miterlimit:10" d="m671.262 1954.973 476.159-844.824-154.812-91.082Zm0 0" transform="matrix(.09997 0 0 -.09997 .019 199.88)"/><path style="stroke:none;fill-rule:nonzero;fill:#4f5fc3;fill-opacity:1" d="M67.125 4.441 18.258 91.258l28.219 8.164"/><path style="fill:none;stroke-width:5;stroke-linecap:round;stroke-linejoin:round;stroke:#000;stroke-opacity:1;stroke-miterlimit:10" d="m671.262 1954.973-488.818-868.425 282.272-81.665Zm0 0" transform="matrix(.09997 0 0 -.09997 .019 199.88)"/><path style="stroke:none;fill-rule:nonzero;fill:#bcaac8;fill-opacity:1" d="m67.125 4.441-20.648 94.98 52.773-1.417"/><path style="fill:none;stroke-width:5;stroke-linecap:round;stroke-linejoin:round;stroke:#000;stroke-opacity:1;stroke-miterlimit:10" d="m671.262 1954.973-206.546-950.09 527.893 14.184Zm0 0" transform="matrix(.09997 0 0 -.09997 .019 199.88)"/></svg>