<svg xmlns="http://www.w3.org/2000/svg" width="200" height="200" viewBox="0 0 150 150" version="1.2"><path style="stroke:none;fill-rule:nonzero;fill:#c15845;fill-opacity:1" d="m86.117 65.668-27.652-4.285 24.074-14.285"/><path style="fill:none;stroke-width:4.39653;stroke-linecap:round;stroke-linejoin:round;stroke:#000;stroke-opacity:1;stroke-miterlimit:10" d="m861.172 843.32-276.524 42.852 240.743 142.851Zm0 0" transform="matrix(.1 0 0 -.1 0 150)"/><path style="stroke:none;fill-rule:nonzero;fill:#e5c2b2;fill-opacity:1" d="M86.117 65.668 64.984 88.797l-6.52-27.414"/><path style="fill:none;stroke-width:4.39653;stroke-linecap:round;stroke-linejoin:round;stroke:#000;stroke-opacity:1;stroke-miterlimit:10" d="M861.172 843.32 649.844 612.031l-65.196 274.14Zm0 0" transform="matrix(.1 0 0 -.1 0 150)"/><path style="stroke:none;fill-rule:nonzero;fill:#a9bde7;fill-opacity:1" d="m86.117 65.668 6.801 26.277-27.934-3.148"/><path style="fill:none;stroke-width:4.39653;stroke-linecap:round;stroke-linejoin:round;stroke:#000;stroke-opacity:1;stroke-miterlimit:10" d="m861.172 843.32 68.008-262.773-279.336 31.484Zm0 0" transform="matrix(.1 0 0 -.1 0 150)"/><path style="stroke:none;fill-rule:nonzero;fill:#3948b6;fill-opacity:1" d="m86.117 65.668 17.977.52-11.176 25.757"/><path style="fill:none;stroke-width:4.39653;stroke-linecap:round;stroke-linejoin:round;stroke:#000;stroke-opacity:1;stroke-miterlimit:10" d="m861.172 843.32 179.765-5.195L929.18 580.547Zm0 0" transform="matrix(.1 0 0 -.1 0 150)"/><path style="stroke:none;fill-rule:nonzero;fill:#2e0024;fill-opacity:1" d="m86.117 65.668-3.578-18.57 21.555 19.09"/><path style="fill:none;stroke-width:4.39653;stroke-linecap:round;stroke-linejoin:round;stroke:#000;stroke-opacity:1;stroke-miterlimit:10" d="m861.172 843.32-35.781 185.703 215.547-190.898Zm0 0" transform="matrix(.1 0 0 -.1 0 150)"/><path style="stroke:none;fill-rule:nonzero;fill:#a9bde7;fill-opacity:1" d="m20.688 83.8 44.296 4.997-14.39 15.75"/><path style="fill:none;stroke-width:4.39653;stroke-linecap:round;stroke-linejoin:round;stroke:#000;stroke-opacity:1;stroke-miterlimit:10" d="m206.875 661.992 442.969-49.96-143.907-157.5Zm0 0" transform="matrix(.1 0 0 -.1 0 150)"/><path style="stroke:none;fill-rule:nonzero;fill:#ac85ac;fill-opacity:1" d="m20.688 83.8 37.777-22.417 6.52 27.414"/><path style="fill:none;stroke-width:4.39653;stroke-linecap:round;stroke-linejoin:round;stroke:#000;stroke-opacity:1;stroke-miterlimit:10" d="m206.875 661.992 377.773 224.18 65.196-274.14Zm0 0" transform="matrix(.1 0 0 -.1 0 150)"/><path style="stroke:none;fill-rule:nonzero;fill:#c15845;fill-opacity:1" d="m20.688 83.8 18.746-25.366 19.03 2.949"/><path style="fill:none;stroke-width:4.39653;stroke-linecap:round;stroke-linejoin:round;stroke:#000;stroke-opacity:1;stroke-miterlimit:10" d="m206.875 661.992 187.46 253.672 190.313-29.492Zm0 0" transform="matrix(.1 0 0 -.1 0 150)"/><path style="stroke:none;fill-rule:nonzero;fill:#0f2caa;fill-opacity:1" d="m20.688 83.8 13.34 2.095 5.406-27.461"/><path style="fill:none;stroke-width:4.39653;stroke-linecap:round;stroke-linejoin:round;stroke:#000;stroke-opacity:1;stroke-miterlimit:10" d="m206.875 661.992 133.398-20.937 54.063 274.61Zm0 0" transform="matrix(.1 0 0 -.1 0 150)"/><path style="stroke:none;fill-rule:nonzero;fill:#000;fill-opacity:1" d="m20.688 83.8 29.906 20.747-16.567-18.652"/><path style="fill:none;stroke-width:4.39653;stroke-linecap:round;stroke-linejoin:round;stroke:#000;stroke-opacity:1;stroke-miterlimit:10" d="m206.875 661.992 299.063-207.46-165.665 186.523Zm0 0" transform="matrix(.1 0 0 -.1 0 150)"/><path style="stroke:none;fill-rule:nonzero;fill:#ac85ac;fill-opacity:1" d="m75.355 132.426-10.37-43.63 27.933 3.15"/><path style="fill:none;stroke-width:4.39653;stroke-linecap:round;stroke-linejoin:round;stroke:#000;stroke-opacity:1;stroke-miterlimit:10" d="m753.555 175.742-103.711 436.29 279.336-31.485Zm0 0" transform="matrix(.1 0 0 -.1 0 150)"/><path style="stroke:none;fill-rule:nonzero;fill:#e5c2b2;fill-opacity:1" d="m75.355 132.426-24.761-27.88 14.39-15.75"/><path style="fill:none;stroke-width:4.39653;stroke-linecap:round;stroke-linejoin:round;stroke:#000;stroke-opacity:1;stroke-miterlimit:10" d="m753.555 175.742-247.617 278.79 143.906 157.5Zm0 0" transform="matrix(.1 0 0 -.1 0 150)"/><path style="stroke:none;fill-rule:nonzero;fill:#000;fill-opacity:1" d="m75.355 132.426-4.675-13.95-20.086-13.93"/><path style="fill:none;stroke-width:4.39653;stroke-linecap:round;stroke-linejoin:round;stroke:#000;stroke-opacity:1;stroke-miterlimit:10" d="m753.555 175.742-46.758 139.492-200.86 139.297Zm0 0" transform="matrix(.1 0 0 -.1 0 150)"/><path style="stroke:none;fill-rule:nonzero;fill:#3948b6;fill-opacity:1" d="m75.355 132.426 17.563-40.48 4.691 18.132"/><path style="fill:none;stroke-width:4.39653;stroke-linecap:round;stroke-linejoin:round;stroke:#000;stroke-opacity:1;stroke-miterlimit:10" d="M753.555 175.742 929.18 580.547l46.914-181.328Zm0 0" transform="matrix(.1 0 0 -.1 0 150)"/><path style="stroke:none;fill-rule:nonzero;fill:#ba4220;fill-opacity:1" d="m75.355 132.426 22.254-22.348-26.93 8.399"/><path style="fill:none;stroke-width:4.39653;stroke-linecap:round;stroke-linejoin:round;stroke:#000;stroke-opacity:1;stroke-miterlimit:10" d="M753.555 175.742 976.094 399.22l-269.297-83.985Zm0 0" transform="matrix(.1 0 0 -.1 0 150)"/><path style="stroke:none;fill-rule:nonzero;fill:#e5c2b2;fill-opacity:1" d="m47.742 16.277 10.723 45.106-19.031-2.95"/><path style="fill:none;stroke-width:4.39653;stroke-linecap:round;stroke-linejoin:round;stroke:#000;stroke-opacity:1;stroke-miterlimit:10" d="m477.422 1337.227 107.226-451.055-190.312 29.492Zm0 0" transform="matrix(.1 0 0 -.1 0 150)"/><path style="stroke:none;fill-rule:nonzero;fill:#ac85ac;fill-opacity:1" d="m47.742 16.277 34.797 30.82-24.074 14.286"/><path style="fill:none;stroke-width:4.39653;stroke-linecap:round;stroke-linejoin:round;stroke:#000;stroke-opacity:1;stroke-miterlimit:10" d="m477.422 1337.227 347.969-308.204-240.743-142.851Zm0 0" transform="matrix(.1 0 0 -.1 0 150)"/><path style="stroke:none;fill-rule:nonzero;fill:#ac85ac;fill-opacity:1" d="m139.05 97.148-46.132-5.203 11.176-25.757"/><path style="fill:none;stroke-width:4.39653;stroke-linecap:round;stroke-linejoin:round;stroke:#000;stroke-opacity:1;stroke-miterlimit:10" d="m1390.508 528.516-461.328 52.03 111.758 257.579Zm0 0" transform="matrix(.1 0 0 -.1 0 150)"/><path style="stroke:none;fill-rule:nonzero;fill:#a9bde7;fill-opacity:1" d="m139.05 97.148-41.44 12.93-4.692-18.133"/><path style="fill:none;stroke-width:4.39653;stroke-linecap:round;stroke-linejoin:round;stroke:#000;stroke-opacity:1;stroke-miterlimit:10" d="M1390.508 528.516 976.094 399.219 929.18 580.547Zm0 0" transform="matrix(.1 0 0 -.1 0 150)"/><path style="stroke:none;fill-rule:nonzero;fill:#2e0024;fill-opacity:1" d="M47.742 16.277 80.027 34.06l2.512 13.039"/><path style="fill:none;stroke-width:4.39653;stroke-linecap:round;stroke-linejoin:round;stroke:#000;stroke-opacity:1;stroke-miterlimit:10" d="m477.422 1337.227 322.851-177.813 25.118-130.39Zm0 0" transform="matrix(.1 0 0 -.1 0 150)"/><path style="stroke:none;fill-rule:nonzero;fill:#a4c3ef;fill-opacity:1" d="m47.742 16.277 4.512 24.813 27.773-7.031"/><path style="fill:none;stroke-width:4.39653;stroke-linecap:round;stroke-linejoin:round;stroke:#000;stroke-opacity:1;stroke-miterlimit:10" d="m477.422 1337.227 45.117-248.125 277.734 70.312Zm0 0" transform="matrix(.1 0 0 -.1 0 150)"/><path style="stroke:none;fill-rule:nonzero;fill:#0f2caa;fill-opacity:1" d="m47.742 16.277-8.308 42.157 12.82-17.344"/><path style="fill:none;stroke-width:4.39653;stroke-linecap:round;stroke-linejoin:round;stroke:#000;stroke-opacity:1;stroke-miterlimit:10" d="m477.422 1337.227-83.086-421.563 128.203 173.438Zm0 0" transform="matrix(.1 0 0 -.1 0 150)"/><path style="stroke:none;fill-rule:nonzero;fill:#c15845;fill-opacity:1" d="M122.723 23.25 82.539 47.098l-2.512-13.04"/><path style="fill:none;stroke-width:4.39653;stroke-linecap:round;stroke-linejoin:round;stroke:#000;stroke-opacity:1;stroke-miterlimit:10" d="M1227.227 1267.5 825.39 1029.023l-25.118 130.391Zm0 0" transform="matrix(.1 0 0 -.1 0 150)"/><path style="stroke:none;fill-rule:nonzero;fill:#ac85ac;fill-opacity:1" d="m122.723 23.25-18.63 42.938-21.554-19.09"/><path style="fill:none;stroke-width:4.39653;stroke-linecap:round;stroke-linejoin:round;stroke:#000;stroke-opacity:1;stroke-miterlimit:10" d="m1227.227 1267.5-186.29-429.375-215.546 190.898Zm0 0" transform="matrix(.1 0 0 -.1 0 150)"/><path style="stroke:none;fill-rule:nonzero;fill:#2e0024;fill-opacity:1" d="m139.05 97.148-34.956-30.96 12.64.367"/><path style="fill:none;stroke-width:4.39653;stroke-linecap:round;stroke-linejoin:round;stroke:#000;stroke-opacity:1;stroke-miterlimit:10" d="m1390.508 528.516-349.57 309.609 126.406-3.672Zm0 0" transform="matrix(.1 0 0 -.1 0 150)"/><path style="stroke:none;fill-rule:nonzero;fill:#3948b6;fill-opacity:1" d="m122.723 23.25-5.989 43.305-12.64-.368"/><path style="fill:none;stroke-width:4.39653;stroke-linecap:round;stroke-linejoin:round;stroke:#000;stroke-opacity:1;stroke-miterlimit:10" d="m1227.227 1267.5-59.883-433.047-126.407 3.672Zm0 0" transform="matrix(.1 0 0 -.1 0 150)"/><path style="stroke:none;fill-rule:nonzero;fill:#ba4220;fill-opacity:1" d="m139.05 97.148-26.222-2.355-15.219 15.285"/><path style="fill:none;stroke-width:4.39653;stroke-linecap:round;stroke-linejoin:round;stroke:#000;stroke-opacity:1;stroke-miterlimit:10" d="M1390.508 528.516 1128.28 552.07 976.094 399.22Zm0 0" transform="matrix(.1 0 0 -.1 0 150)"/><path style="stroke:none;fill-rule:nonzero;fill:#ecc9af;fill-opacity:1" d="m139.05 97.148-22.316-30.593-3.906 28.238"/><path style="fill:none;stroke-width:4.39653;stroke-linecap:round;stroke-linejoin:round;stroke:#000;stroke-opacity:1;stroke-miterlimit:10" d="m1390.508 528.516-223.164 305.937-39.063-282.383Zm0 0" transform="matrix(.1 0 0 -.1 0 150)"/><path style="stroke:none;fill-rule:nonzero;fill:#a4c3ef;fill-opacity:1" d="M122.723 23.25 80.027 34.059l21.735 11.976"/><path style="fill:none;stroke-width:4.39653;stroke-linecap:round;stroke-linejoin:round;stroke:#000;stroke-opacity:1;stroke-miterlimit:10" d="m1227.227 1267.5-426.954-108.086 217.344-119.766Zm0 0" transform="matrix(.1 0 0 -.1 0 150)"/><path style="stroke:none;fill-rule:nonzero;fill:#ecc9af;fill-opacity:1" d="m122.723 23.25-20.961 22.785 14.972 20.52"/><path style="fill:none;stroke-width:4.39653;stroke-linecap:round;stroke-linejoin:round;stroke:#000;stroke-opacity:1;stroke-miterlimit:10" d="m1227.227 1267.5-209.61-227.852 149.727-205.195Zm0 0" transform="matrix(.1 0 0 -.1 0 150)"/><path style="stroke:none;fill-rule:nonzero;fill:#a9bde7;fill-opacity:1" d="m24.785 132.797 25.809-28.25 20.086 13.93"/><path style="fill:none;stroke-width:4.39653;stroke-linecap:round;stroke-linejoin:round;stroke:#000;stroke-opacity:1;stroke-miterlimit:10" d="m247.852 172.031 258.086 282.5 200.859-139.297Zm0 0" transform="matrix(.1 0 0 -.1 0 150)"/><path style="stroke:none;fill-rule:nonzero;fill:#e5c2b2;fill-opacity:1" d="m24.785 132.797 9.242-46.902 16.567 18.652"/><path style="fill:none;stroke-width:4.39653;stroke-linecap:round;stroke-linejoin:round;stroke:#000;stroke-opacity:1;stroke-miterlimit:10" d="m247.852 172.031 92.421 469.024L505.937 454.53Zm0 0" transform="matrix(.1 0 0 -.1 0 150)"/><path style="stroke:none;fill-rule:nonzero;fill:#e5c2b2;fill-opacity:1" d="m4.887 53.086 34.547 5.348-5.407 27.46"/><path style="fill:none;stroke-width:4.39653;stroke-linecap:round;stroke-linejoin:round;stroke:#000;stroke-opacity:1;stroke-miterlimit:10" d="m48.867 969.14 345.469-53.476-54.063-274.61Zm0 0" transform="matrix(.1 0 0 -.1 0 150)"/><path style="stroke:none;fill-rule:nonzero;fill:#c15845;fill-opacity:1" d="M4.887 53.086 52.254 41.09l-12.82 17.344"/><path style="fill:none;stroke-width:4.39653;stroke-linecap:round;stroke-linejoin:round;stroke:#000;stroke-opacity:1;stroke-miterlimit:10" d="m48.867 969.14 473.672 119.962-128.203-173.438Zm0 0" transform="matrix(.1 0 0 -.1 0 150)"/><path style="stroke:none;fill-rule:nonzero;fill:#3948b6;fill-opacity:1" d="m106.152 143.078-8.543-33 15.22-15.285"/><path style="fill:none;stroke-width:4.39653;stroke-linecap:round;stroke-linejoin:round;stroke:#000;stroke-opacity:1;stroke-miterlimit:10" d="m1061.523 69.219-85.43 330 152.188 152.851Zm0 0" transform="matrix(.1 0 0 -.1 0 150)"/><path style="stroke:none;fill-rule:nonzero;fill:#a9bde7;fill-opacity:1" d="M106.152 143.078 70.68 118.477l26.93-8.399"/><path style="fill:none;stroke-width:4.39653;stroke-linecap:round;stroke-linejoin:round;stroke:#000;stroke-opacity:1;stroke-miterlimit:10" d="M1061.523 69.219 706.797 315.234l269.297 83.985Zm0 0" transform="matrix(.1 0 0 -.1 0 150)"/><path style="stroke:none;fill-rule:nonzero;fill:#c15845;fill-opacity:1" d="m75.355 9.836 4.672 24.223-27.773 7.03"/><path style="fill:none;stroke-width:4.39653;stroke-linecap:round;stroke-linejoin:round;stroke:#000;stroke-opacity:1;stroke-miterlimit:10" d="m753.555 1401.64 46.718-242.226-277.734-70.312Zm0 0" transform="matrix(.1 0 0 -.1 0 150)"/><path style="stroke:none;fill-rule:nonzero;fill:#2e0024;fill-opacity:1" d="m75.355 9.836 26.407 36.2-21.735-11.977"/><path style="fill:none;stroke-width:4.39653;stroke-linecap:round;stroke-linejoin:round;stroke:#000;stroke-opacity:1;stroke-miterlimit:10" d="m753.555 1401.64 264.062-361.992-217.344 119.766Zm0 0" transform="matrix(.1 0 0 -.1 0 150)"/><path style="stroke:none;fill-rule:nonzero;fill:#0f2caa;fill-opacity:1" d="M24.785 132.797 43.47 87.37l-9.442-1.476"/><path style="fill:none;stroke-width:4.39653;stroke-linecap:round;stroke-linejoin:round;stroke:#000;stroke-opacity:1;stroke-miterlimit:10" d="M247.852 172.031 434.687 626.29l-94.414 14.766Zm0 0" transform="matrix(.1 0 0 -.1 0 150)"/><path style="stroke:none;fill-rule:nonzero;fill:#000;fill-opacity:1" d="m4.887 53.086 29.14 32.809 9.442 1.476"/><path style="fill:none;stroke-width:4.39653;stroke-linecap:round;stroke-linejoin:round;stroke:#000;stroke-opacity:1;stroke-miterlimit:10" d="m48.867 969.14 291.406-328.085 94.414-14.766Zm0 0" transform="matrix(.1 0 0 -.1 0 150)"/><path style="stroke:none;fill-rule:nonzero;fill:#2e0024;fill-opacity:1" d="m140.262 67.238-23.528-.683-14.972-20.52"/><path style="fill:none;stroke-width:4.39653;stroke-linecap:round;stroke-linejoin:round;stroke:#000;stroke-opacity:1;stroke-miterlimit:10" d="m1402.617 827.617-235.273 6.836-149.727 205.195Zm0 0" transform="matrix(.1 0 0 -.1 0 150)"/><path style="stroke:none;fill-rule:nonzero;fill:#3948b6;fill-opacity:1" d="m140.262 67.238-27.434 27.555 3.906-28.238"/><path style="fill:none;stroke-width:4.39653;stroke-linecap:round;stroke-linejoin:round;stroke:#000;stroke-opacity:1;stroke-miterlimit:10" d="M1402.617 827.617 1128.281 552.07l39.063 282.383Zm0 0" transform="matrix(.1 0 0 -.1 0 150)"/><path style="stroke:none;fill-rule:nonzero;fill:#000;fill-opacity:1" d="m106.152 143.078-38.777-34.46 3.305 9.859"/><path style="fill:none;stroke-width:4.39653;stroke-linecap:round;stroke-linejoin:round;stroke:#000;stroke-opacity:1;stroke-miterlimit:10" d="M1061.523 69.219 673.75 413.829l33.047-98.595Zm0 0" transform="matrix(.1 0 0 -.1 0 150)"/><path style="stroke:none;fill-rule:nonzero;fill:#ba4220;fill-opacity:1" d="m24.785 132.797 45.895-14.32-3.305-9.86"/><path style="fill:none;stroke-width:4.39653;stroke-linecap:round;stroke-linejoin:round;stroke:#000;stroke-opacity:1;stroke-miterlimit:10" d="m247.852 172.031 458.945 143.203-33.047 98.594Zm0 0" transform="matrix(.1 0 0 -.1 0 150)"/><path style="stroke:none;fill-rule:nonzero;fill:#a4c3ef;fill-opacity:1" d="m4.887 53.086 50.511 5.277-3.144-17.273"/><path style="fill:none;stroke-width:4.39653;stroke-linecap:round;stroke-linejoin:round;stroke:#000;stroke-opacity:1;stroke-miterlimit:10" d="m48.867 969.14 505.117-52.773-31.445 172.735Zm0 0" transform="matrix(.1 0 0 -.1 0 150)"/><path style="stroke:none;fill-rule:nonzero;fill:#0f2caa;fill-opacity:1" d="M75.355 9.836 52.254 41.09l3.144 17.273"/><path style="fill:none;stroke-width:4.39653;stroke-linecap:round;stroke-linejoin:round;stroke:#000;stroke-opacity:1;stroke-miterlimit:10" d="m753.555 1401.64-231.016-312.538 31.445-172.735Zm0 0" transform="matrix(.1 0 0 -.1 0 150)"/><path style="stroke:none;fill-rule:nonzero;fill:#ecc9af;fill-opacity:1" d="m106.152 143.078 6.676-48.285-18.215-1.64"/><path style="fill:none;stroke-width:4.39653;stroke-linecap:round;stroke-linejoin:round;stroke:#000;stroke-opacity:1;stroke-miterlimit:10" d="m1061.523 69.219 66.758 482.851-182.148 16.407Zm0 0" transform="matrix(.1 0 0 -.1 0 150)"/><path style="stroke:none;fill-rule:nonzero;fill:#ba4220;fill-opacity:1" d="M140.262 67.238 94.613 93.152l18.215 1.641"/><path style="fill:none;stroke-width:4.39653;stroke-linecap:round;stroke-linejoin:round;stroke:#000;stroke-opacity:1;stroke-miterlimit:10" d="m1402.617 827.617-456.484-259.14 182.148-16.407Zm0 0" transform="matrix(.1 0 0 -.1 0 150)"/><path style="stroke:none;fill-rule:nonzero;fill:#a4c3ef;fill-opacity:1" d="m140.262 67.238-38.5-21.203-14.414 15.672"/><path style="fill:none;stroke-width:4.39653;stroke-linecap:round;stroke-linejoin:round;stroke:#000;stroke-opacity:1;stroke-miterlimit:10" d="m1402.617 827.617-385 212.031-144.14-156.718Zm0 0" transform="matrix(.1 0 0 -.1 0 150)"/><path style="stroke:none;fill-rule:nonzero;fill:#ecc9af;fill-opacity:1" d="m75.355 9.836 11.993 51.871 14.414-15.672"/><path style="fill:none;stroke-width:4.39653;stroke-linecap:round;stroke-linejoin:round;stroke:#000;stroke-opacity:1;stroke-miterlimit:10" d="m753.555 1401.64 119.922-518.71 144.14 156.718Zm0 0" transform="matrix(.1 0 0 -.1 0 150)"/><path style="stroke:none;fill-rule:nonzero;fill:#aa83ab;fill-opacity:1" d="m24.785 132.797 42.59-24.18-23.906-21.246"/><path style="fill:none;stroke-width:4.39653;stroke-linecap:round;stroke-linejoin:round;stroke:#000;stroke-opacity:1;stroke-miterlimit:10" d="M247.852 172.031 673.75 413.828 434.687 626.29Zm0 0" transform="matrix(.1 0 0 -.1 0 150)"/><path style="stroke:none;fill-rule:nonzero;fill:#aa83ab;fill-opacity:1" d="M4.887 53.086 43.469 87.37l11.93-29.008"/><path style="fill:none;stroke-width:4.39653;stroke-linecap:round;stroke-linejoin:round;stroke:#000;stroke-opacity:1;stroke-miterlimit:10" d="m48.867 969.14 385.82-342.85 119.297 290.077Zm0 0" transform="matrix(.1 0 0 -.1 0 150)"/><path style="stroke:none;fill-rule:nonzero;fill:#0f2caa;fill-opacity:1" d="m61.18 90.148-17.711-2.777 11.93-29.008"/><path style="fill:none;stroke-width:4.39653;stroke-linecap:round;stroke-linejoin:round;stroke:#000;stroke-opacity:1;stroke-miterlimit:10" d="m611.797 598.516-177.11 27.773 119.297 290.078Zm0 0" transform="matrix(.1 0 0 -.1 0 150)"/><path style="stroke:none;fill-rule:nonzero;fill:#000;fill-opacity:1" d="m61.18 90.148 6.195 18.47L43.469 87.37"/><path style="fill:none;stroke-width:4.39653;stroke-linecap:round;stroke-linejoin:round;stroke:#000;stroke-opacity:1;stroke-miterlimit:10" d="m611.797 598.516 61.953-184.688L434.687 626.29Zm0 0" transform="matrix(.1 0 0 -.1 0 150)"/><path style="stroke:none;fill-rule:nonzero;fill:#aa83ab;fill-opacity:1" d="M106.152 143.078 94.613 93.152l-27.238 15.465"/><path style="fill:none;stroke-width:4.39653;stroke-linecap:round;stroke-linejoin:round;stroke:#000;stroke-opacity:1;stroke-miterlimit:10" d="m1061.523 69.219-115.39 499.258L673.75 413.828Zm0 0" transform="matrix(.1 0 0 -.1 0 150)"/><path style="stroke:none;fill-rule:nonzero;fill:#ba4220;fill-opacity:1" d="m61.18 90.148 33.433 3.004-27.238 15.465"/><path style="fill:none;stroke-width:4.39653;stroke-linecap:round;stroke-linejoin:round;stroke:#000;stroke-opacity:1;stroke-miterlimit:10" d="m611.797 598.516 334.336-30.04L673.75 413.829Zm0 0" transform="matrix(.1 0 0 -.1 0 150)"/><path style="stroke:none;fill-rule:nonzero;fill:#a4c3ef;fill-opacity:1" d="m61.18 90.148-5.782-31.785 31.95 3.344"/><path style="fill:none;stroke-width:4.39653;stroke-linecap:round;stroke-linejoin:round;stroke:#000;stroke-opacity:1;stroke-miterlimit:10" d="m611.797 598.516-57.813 317.851 319.493-33.437Zm0 0" transform="matrix(.1 0 0 -.1 0 150)"/><path style="stroke:none;fill-rule:nonzero;fill:#aa83ab;fill-opacity:1" d="M75.355 9.836 55.398 58.363l31.95 3.344"/><path style="fill:none;stroke-width:4.39653;stroke-linecap:round;stroke-linejoin:round;stroke:#000;stroke-opacity:1;stroke-miterlimit:10" d="m753.555 1401.64-199.57-485.273 319.492-33.437Zm0 0" transform="matrix(.1 0 0 -.1 0 150)"/><path style="stroke:none;fill-rule:nonzero;fill:#ecc9af;fill-opacity:1" d="m61.18 90.148 26.168-28.441 7.265 31.445"/><path style="fill:none;stroke-width:4.39653;stroke-linecap:round;stroke-linejoin:round;stroke:#000;stroke-opacity:1;stroke-miterlimit:10" d="m611.797 598.516 261.68 284.414 72.656-314.453Zm0 0" transform="matrix(.1 0 0 -.1 0 150)"/><path style="stroke:none;fill-rule:nonzero;fill:#aa83ab;fill-opacity:1" d="m140.262 67.238-52.914-5.531 7.265 31.445"/><path style="fill:none;stroke-width:4.39653;stroke-linecap:round;stroke-linejoin:round;stroke:#000;stroke-opacity:1;stroke-miterlimit:10" d="m1402.617 827.617-529.14 55.313 72.656-314.453Zm0 0" transform="matrix(.1 0 0 -.1 0 150)"/></svg>