<svg xmlns="http://www.w3.org/2000/svg" width="250.747" height="265.413" viewBox="0 0 188.06 199.06" version="1.2"><path style="fill-rule:nonzero;fill:#9e9cd1;fill-opacity:1;stroke-width:5;stroke-linecap:round;stroke-linejoin:round;stroke:#000;stroke-opacity:1;stroke-miterlimit:10" d="M1359.967 1048.218 899.67 965.816l348.06 304.404" transform="matrix(.0995 0 0 -.0995 0 198.097)"/><path style="stroke:none;fill-rule:nonzero;fill:#aa7da3;fill-opacity:1" d="m135.32 93.797 43.547 52.25-89.347-44.05"/><path style="fill:none;stroke-width:5;stroke-linecap:round;stroke-linejoin:round;stroke:#000;stroke-opacity:1;stroke-miterlimit:10" d="m1359.967 1048.218 437.645-525.112-897.942 442.71Zm0 0" transform="matrix(.0995 0 0 -.0995 0 198.097)"/><path style="fill-rule:nonzero;fill:#e3fccb;fill-opacity:1;stroke-width:5;stroke-linecap:round;stroke-linejoin:round;stroke:#000;stroke-opacity:1;stroke-miterlimit:10" d="m1359.967 1048.218-191.892 46.206 311.393-282.616" transform="matrix(.0995 0 0 -.0995 0 198.097)"/><path style="fill-rule:nonzero;fill:#e3fccb;fill-opacity:1;stroke-width:5;stroke-linecap:round;stroke-linejoin:round;stroke:#000;stroke-opacity:1;stroke-miterlimit:10" d="m1479.468 811.808 318.144-288.702-437.645 525.112" transform="matrix(.0995 0 0 -.0995 0 198.097)"/><path style="fill-rule:nonzero;fill:#9e9cd1;fill-opacity:1;stroke-width:5;stroke-linecap:round;stroke-linejoin:round;stroke:#000;stroke-opacity:1;stroke-miterlimit:10" d="m1247.73 1270.22 378.758 331.297-266.521-553.3" transform="matrix(.0995 0 0 -.0995 0 198.097)"/><path style="stroke:none;fill-rule:nonzero;fill:#aa7da3;fill-opacity:1" d="M89.52 101.996 62.043 5.883l45.71 54.84"/><path style="fill:none;stroke-width:5;stroke-linecap:round;stroke-linejoin:round;stroke:#000;stroke-opacity:1;stroke-miterlimit:10" d="m899.67 965.816-276.14 965.937 459.395-551.14Zm0 0" transform="matrix(.0995 0 0 -.0995 0 198.097)"/><path style="fill-rule:nonzero;fill:#e3fccb;fill-opacity:1;stroke-width:5;stroke-linecap:round;stroke-linejoin:round;stroke:#000;stroke-opacity:1;stroke-miterlimit:10" d="m1082.925 1380.613-459.394 551.14 280.496-431.325" transform="matrix(.0995 0 0 -.0995 0 198.097)"/><path style="fill-rule:nonzero;fill:#d78f83;fill-opacity:1;stroke-width:5;stroke-linecap:round;stroke-linejoin:round;stroke:#000;stroke-opacity:1;stroke-miterlimit:10" d="M1247.73 1270.22 899.67 965.816l183.255 414.797" transform="matrix(.0995 0 0 -.0995 0 198.097)"/><path style="fill-rule:nonzero;fill:#e3fccb;fill-opacity:1;stroke-width:5;stroke-linecap:round;stroke-linejoin:round;stroke:#000;stroke-opacity:1;stroke-miterlimit:10" d="m904.027 1500.428 264.048-406.004-85.15 286.19" transform="matrix(.0995 0 0 -.0995 0 198.097)"/><path style="fill-rule:nonzero;fill:#d78f83;fill-opacity:1;stroke-width:5;stroke-linecap:round;stroke-linejoin:round;stroke:#000;stroke-opacity:1;stroke-miterlimit:10" d="m1082.925 1380.613 543.563 220.904-378.759-331.297" transform="matrix(.0995 0 0 -.0995 0 198.097)"/><path style="stroke:none;fill-rule:nonzero;fill:#f8b479;fill-opacity:1" d="m135.32 93.797 26.52-55.055L116.227 89.2"/><path style="fill:none;stroke-width:5;stroke-linecap:round;stroke-linejoin:round;stroke:#000;stroke-opacity:1;stroke-miterlimit:10" d="m1359.967 1048.218 266.52 553.299-458.412-507.093Zm0 0" transform="matrix(.0995 0 0 -.0995 0 198.097)"/><path style="stroke:none;fill-rule:nonzero;fill:#a6c1ec;fill-opacity:1" d="m161.84 38.742-54.086 21.98 8.473 28.477"/><path style="fill:none;stroke-width:5;stroke-linecap:round;stroke-linejoin:round;stroke:#000;stroke-opacity:1;stroke-miterlimit:10" d="m1626.488 1601.517-543.563-220.904 85.15-286.189Zm0 0" transform="matrix(.0995 0 0 -.0995 0 198.097)"/><path style="fill-rule:nonzero;fill:#fce0a0;fill-opacity:1;stroke-width:5;stroke-linecap:round;stroke-linejoin:round;stroke:#000;stroke-opacity:1;stroke-miterlimit:10" d="m774.36 784.249 125.31 181.567-12.13-416.76" transform="matrix(.0995 0 0 -.0995 0 198.097)"/><path style="stroke:none;fill-rule:nonzero;fill:#d78f83;fill-opacity:1" d="m6.203 101.984 65-26.41 18.317 26.422"/><path style="fill:none;stroke-width:5;stroke-linecap:round;stroke-linejoin:round;stroke:#000;stroke-opacity:1;stroke-miterlimit:10" d="m62.341 965.934 653.25 265.421 184.079-265.54Zm0 0" transform="matrix(.0995 0 0 -.0995 0 198.097)"/><path style="fill-rule:nonzero;fill:#fce0a0;fill-opacity:1;stroke-width:5;stroke-linecap:round;stroke-linejoin:round;stroke:#000;stroke-opacity:1;stroke-miterlimit:10" d="m715.59 1231.355-92.06 700.398 148.67-520.048M772.2 1411.705l127.47-445.89-184.08 265.54" transform="matrix(.0995 0 0 -.0995 0 198.097)"/><path style="fill-rule:nonzero;fill:#a6c1ec;fill-opacity:1;stroke-width:5;stroke-linecap:round;stroke-linejoin:round;stroke:#000;stroke-opacity:1;stroke-miterlimit:10" d="M715.59 1231.355 62.341 965.934l591.458 68.74" transform="matrix(.0995 0 0 -.0995 0 198.097)"/><path style="fill-rule:nonzero;fill:#a6c1ec;fill-opacity:1;stroke-width:5;stroke-linecap:round;stroke-linejoin:round;stroke:#000;stroke-opacity:1;stroke-miterlimit:10" d="m653.799 1034.674 514.276 59.75-452.485 136.931" transform="matrix(.0995 0 0 -.0995 0 198.097)"/><path style="stroke:none;fill-rule:nonzero;fill:#c3e4ef;fill-opacity:1" d="m6.203 101.984 83.317.012-12.47 18.067"/><path style="fill:none;stroke-width:5;stroke-linecap:round;stroke-linejoin:round;stroke:#000;stroke-opacity:1;stroke-miterlimit:10" d="m62.341 965.934 837.329-.118-125.31-181.567Zm0 0" transform="matrix(.0995 0 0 -.0995 0 198.097)"/><path style="fill-rule:nonzero;fill:#c3e4ef;fill-opacity:1;stroke-width:5;stroke-linecap:round;stroke-linejoin:round;stroke:#000;stroke-opacity:1;stroke-miterlimit:10" d="M1182.6 680.059 899.67 965.816l423.238-208.655" transform="matrix(.0995 0 0 -.0995 0 198.097)"/><path style="fill-rule:nonzero;fill:#c3e4ef;fill-opacity:1;stroke-width:5;stroke-linecap:round;stroke-linejoin:round;stroke:#000;stroke-opacity:1;stroke-miterlimit:10" d="m1322.908 757.16 474.704-234.054L1182.6 680.06" transform="matrix(.0995 0 0 -.0995 0 198.097)"/><path style="stroke:none;fill-rule:nonzero;fill:#9e9cd1;fill-opacity:1" d="m117.672 130.43-30.844 64.039 2.692-92.473"/><path style="fill:none;stroke-width:5;stroke-linecap:round;stroke-linejoin:round;stroke:#000;stroke-opacity:1;stroke-miterlimit:10" d="M1182.6 680.059 872.621 36.467l27.049 929.349Zm0 0" transform="matrix(.0995 0 0 -.0995 0 198.097)"/><path style="fill-rule:nonzero;fill:#f8b479;fill-opacity:1;stroke-width:5;stroke-linecap:round;stroke-linejoin:round;stroke:#000;stroke-opacity:1;stroke-miterlimit:10" d="m1182.6 680.059-14.525 414.365-139.365-498.966M1028.71 595.458 872.621 36.468l309.98 643.59" transform="matrix(.0995 0 0 -.0995 0 198.097)"/><path style="fill-rule:nonzero;fill:#bd7d8c;fill-opacity:1;stroke-width:5;stroke-linecap:round;stroke-linejoin:round;stroke:#000;stroke-opacity:1;stroke-miterlimit:10" d="m774.36 784.249 393.715 310.175-514.276-59.75M653.799 1034.674 62.34 965.934 774.36 784.249" transform="matrix(.0995 0 0 -.0995 0 198.097)"/><path style="fill-rule:nonzero;fill:#fce0a0;fill-opacity:1;stroke-width:5;stroke-linecap:round;stroke-linejoin:round;stroke:#000;stroke-opacity:1;stroke-miterlimit:10" d="M887.54 549.056 872.62 36.467 774.36 784.25" transform="matrix(.0995 0 0 -.0995 0 198.097)"/><path style="stroke:none;fill-rule:nonzero;fill:#bd7d8c;fill-opacity:1" d="m117.672 130.43 61.195 15.617-62.64-56.848"/><path style="fill:none;stroke-width:5;stroke-linecap:round;stroke-linejoin:round;stroke:#000;stroke-opacity:1;stroke-miterlimit:10" d="m1182.6 680.059 615.012-156.953-629.537 571.318Zm0 0" transform="matrix(.0995 0 0 -.0995 0 198.097)"/><path style="stroke:none;fill-rule:nonzero;fill:#9e86b9;fill-opacity:1" d="m62.043 5.883 9.16 69.691L116.227 89.2"/><path style="fill:none;stroke-width:5;stroke-linecap:round;stroke-linejoin:round;stroke:#000;stroke-opacity:1;stroke-miterlimit:10" d="m623.53 1931.753 92.06-700.398 452.485-136.93Zm0 0" transform="matrix(.0995 0 0 -.0995 0 198.097)"/><path style="stroke:none;fill-rule:nonzero;fill:#9e86b9;fill-opacity:1" d="m77.05 120.063 9.778 74.406 29.399-105.27"/><path style="fill:none;stroke-width:5;stroke-linecap:round;stroke-linejoin:round;stroke:#000;stroke-opacity:1;stroke-miterlimit:10" d="M774.36 784.249 872.62 36.467l295.454 1057.957Zm0 0" transform="matrix(.0995 0 0 -.0995 0 198.097)"/></svg>