<svg xmlns="http://www.w3.org/2000/svg" width="275.173" height="266.413" viewBox="0 0 206.38 199.81" version="1.2"><path style="stroke:none;fill-rule:nonzero;fill:#a9bee8;fill-opacity:1" d="m126.77 109.86-5.32-40.212-28.915 31"/><path style="fill:none;stroke-width:5;stroke-linecap:round;stroke-linejoin:round;stroke:#000;stroke-opacity:1;stroke-miterlimit:10" d="m1271.504 898.257-53.363 403.318-290.01-310.932Zm0 0" transform="matrix(.0997 0 0 -.0997 0 199.416)"/><path style="stroke:none;fill-rule:nonzero;fill:#f3b587;fill-opacity:1" d="M121.45 69.648 90.921 67.84l1.613 32.808"/><path style="fill:none;stroke-width:5;stroke-linecap:round;stroke-linejoin:round;stroke:#000;stroke-opacity:1;stroke-miterlimit:10" d="m1218.14 1301.575-306.19 18.14 16.181-329.072Zm0 0" transform="matrix(.0997 0 0 -.0997 0 199.416)"/><path style="stroke:none;fill-rule:nonzero;fill:#00004e;fill-opacity:1" d="m121.45 69.648 5.32 40.211 1.98-37.496"/><path style="fill:none;stroke-width:5;stroke-linecap:round;stroke-linejoin:round;stroke:#000;stroke-opacity:1;stroke-miterlimit:10" d="m1218.14 1301.575 53.364-403.318 19.864 376.088Zm0 0" transform="matrix(.0997 0 0 -.0997 0 199.416)"/><path style="stroke:none;fill-rule:nonzero;fill:#29b3c5;fill-opacity:1" d="m90.922 67.84 30.527 1.808 7.301 2.715"/><path style="fill:none;stroke-width:5;stroke-linecap:round;stroke-linejoin:round;stroke:#000;stroke-opacity:1;stroke-miterlimit:10" d="m911.95 1319.715 306.19-18.14 73.228-27.23Zm0 0" transform="matrix(.0997 0 0 -.0997 0 199.416)"/><path style="stroke:none;fill-rule:nonzero;fill:#f3b587;fill-opacity:1" d="m95.09 152.617-21.356-31.812 18.801-20.157"/><path style="fill:none;stroke-width:5;stroke-linecap:round;stroke-linejoin:round;stroke:#000;stroke-opacity:1;stroke-miterlimit:10" d="M953.755 469.395 739.56 788.475 928.13 990.643Zm0 0" transform="matrix(.0997 0 0 -.0997 0 199.416)"/><path style="stroke:none;fill-rule:nonzero;fill:#966292;fill-opacity:1" d="m95.09 152.617 31.68-42.758-34.235-9.21"/><path style="fill:none;stroke-width:5;stroke-linecap:round;stroke-linejoin:round;stroke:#000;stroke-opacity:1;stroke-miterlimit:10" d="m953.755 469.395 317.749 428.862-343.373 92.386Zm0 0" transform="matrix(.0997 0 0 -.0997 0 199.416)"/><path style="stroke:none;fill-rule:nonzero;fill:#000083;fill-opacity:1" d="m126.77 109.86-31.68 42.757 12.5-13.27"/><path style="fill:none;stroke-width:5;stroke-linecap:round;stroke-linejoin:round;stroke:#000;stroke-opacity:1;stroke-miterlimit:10" d="M1271.504 898.257 953.755 469.395l125.376 133.094Zm0 0" transform="matrix(.0997 0 0 -.0997 0 199.416)"/><path style="stroke:none;fill-rule:nonzero;fill:#480019;fill-opacity:1" d="m73.734 120.805 21.356 31.812 12.5-13.27"/><path style="fill:none;stroke-width:5;stroke-linecap:round;stroke-linejoin:round;stroke:#000;stroke-opacity:1;stroke-miterlimit:10" d="m739.559 788.475 214.196-319.08 125.376 133.094Zm0 0" transform="matrix(.0997 0 0 -.0997 0 199.416)"/><path style="stroke:none;fill-rule:nonzero;fill:#a9bee8;fill-opacity:1" d="M73.734 120.805 36.891 85.672l55.644 14.976"/><path style="fill:none;stroke-width:5;stroke-linecap:round;stroke-linejoin:round;stroke:#000;stroke-opacity:1;stroke-miterlimit:10" d="M739.559 788.475 370.015 1140.86 928.13 990.643Zm0 0" transform="matrix(.0997 0 0 -.0997 0 199.416)"/><path style="stroke:none;fill-rule:nonzero;fill:#966292;fill-opacity:1" d="M36.89 85.672 90.923 67.84l1.613 32.808"/><path style="fill:none;stroke-width:5;stroke-linecap:round;stroke-linejoin:round;stroke:#000;stroke-opacity:1;stroke-miterlimit:10" d="m370.015 1140.859 541.935 178.856 16.181-329.072Zm0 0" transform="matrix(.0997 0 0 -.0997 0 199.416)"/><path style="stroke:none;fill-rule:nonzero;fill:#310263;fill-opacity:1" d="m36.89 85.672 36.844 35.133-12.8-35.477"/><path style="fill:none;stroke-width:5;stroke-linecap:round;stroke-linejoin:round;stroke:#000;stroke-opacity:1;stroke-miterlimit:10" d="m370.015 1140.859 369.544-352.384-128.393 355.832Zm0 0" transform="matrix(.0997 0 0 -.0997 0 199.416)"/><path style="stroke:none;fill-rule:nonzero;fill:#1d89ea;fill-opacity:1" d="M90.922 67.84 36.89 85.672l24.043-.344"/><path style="fill:none;stroke-width:5;stroke-linecap:round;stroke-linejoin:round;stroke:#000;stroke-opacity:1;stroke-miterlimit:10" d="m911.95 1319.715-541.935-178.856 241.151 3.448Zm0 0" transform="matrix(.0997 0 0 -.0997 0 199.416)"/><path style="stroke:none;fill-rule:nonzero;fill:#b48dac;fill-opacity:1" d="m126.77 109.86 66.351-29.805-64.371-7.692"/><path style="fill:none;stroke-width:5;stroke-linecap:round;stroke-linejoin:round;stroke:#000;stroke-opacity:1;stroke-miterlimit:10" d="m1271.504 898.257 665.509 298.942-645.645 77.146Zm0 0" transform="matrix(.0997 0 0 -.0997 0 199.416)"/><path style="stroke:none;fill-rule:nonzero;fill:#4097f2;fill-opacity:1" d="m193.121 80.055-66.351 29.804 19.054 1.07"/><path style="fill:none;stroke-width:5;stroke-linecap:round;stroke-linejoin:round;stroke:#000;stroke-opacity:1;stroke-miterlimit:10" d="m1937.013 1197.2-665.51-298.943 191.12-10.735Zm0 0" transform="matrix(.0997 0 0 -.0997 0 199.416)"/><path style="stroke:none;fill-rule:nonzero;fill:#bcabc8;fill-opacity:1" d="m165.68 171.164-38.91-61.305-19.18 29.489"/><path style="fill:none;stroke-width:5;stroke-linecap:round;stroke-linejoin:round;stroke:#000;stroke-opacity:1;stroke-miterlimit:10" d="m1661.774 283.369-390.27 614.888L1079.13 602.49Zm0 0" transform="matrix(.0997 0 0 -.0997 0 199.416)"/><path style="stroke:none;fill-rule:nonzero;fill:#471972;fill-opacity:1" d="m126.77 109.86 38.91 61.304-19.856-60.234"/><path style="fill:none;stroke-width:5;stroke-linecap:round;stroke-linejoin:round;stroke:#000;stroke-opacity:1;stroke-miterlimit:10" d="m1271.504 898.257 390.27-614.888-199.151 604.153Zm0 0" transform="matrix(.0997 0 0 -.0997 0 199.416)"/><path style="fill-rule:nonzero;fill:#29b3c5;fill-opacity:1;stroke-width:5;stroke-linecap:round;stroke-linejoin:round;stroke:#000;stroke-opacity:1;stroke-miterlimit:10" d="m1513.204 1247.859-221.836 26.486 49.797-18.532" transform="matrix(.0997 0 0 -.0997 0 199.416)"/><path style="stroke:none;fill-rule:nonzero;fill:#00004e;fill-opacity:1" d="m132.21 6.828 1.505 67.383-4.965-1.848"/><path style="fill:none;stroke-width:5;stroke-linecap:round;stroke-linejoin:round;stroke:#000;stroke-opacity:1;stroke-miterlimit:10" d="m1326.081 1931.665 15.084-675.852-49.797 18.532Zm0 0" transform="matrix(.0997 0 0 -.0997 0 199.416)"/><path style="stroke:none;fill-rule:nonzero;fill:#b48dac;fill-opacity:1" d="M90.922 67.84 132.21 6.828l-3.461 65.535"/><path style="fill:none;stroke-width:5;stroke-linecap:round;stroke-linejoin:round;stroke:#000;stroke-opacity:1;stroke-miterlimit:10" d="m911.95 1319.715 414.131 611.95-34.713-657.32Zm0 0" transform="matrix(.0997 0 0 -.0997 0 199.416)"/><path style="stroke:none;fill-rule:nonzero;fill:#a73600;fill-opacity:1" d="M132.21 6.828 90.923 67.84l7.394-12.867"/><path style="fill:none;stroke-width:5;stroke-linecap:round;stroke-linejoin:round;stroke:#000;stroke-opacity:1;stroke-miterlimit:10" d="m1326.081 1931.665-414.13-611.95 74.167 129.058Zm0 0" transform="matrix(.0997 0 0 -.0997 0 199.416)"/><path style="stroke:none;fill-rule:nonzero;fill:#bdadc9;fill-opacity:1" d="M133.715 74.21 132.21 6.829 98.316 54.973"/><path style="fill:none;stroke-width:5;stroke-linecap:round;stroke-linejoin:round;stroke:#000;stroke-opacity:1;stroke-miterlimit:10" d="m1341.165 1255.813-15.084 675.852-339.963-482.892Zm0 0" transform="matrix(.0997 0 0 -.0997 0 199.416)"/><path style="stroke:none;fill-rule:nonzero;fill:#5e0135;fill-opacity:1" d="m113.07 29.305 20.645 44.906-35.399-19.238"/><path style="fill:none;stroke-width:5;stroke-linecap:round;stroke-linejoin:round;stroke:#000;stroke-opacity:1;stroke-miterlimit:10" d="m1134.1 1706.224 207.065-450.411-355.047 192.96Zm0 0" transform="matrix(.0997 0 0 -.0997 0 199.416)"/><path style="fill-rule:nonzero;fill:#f8b67c;fill-opacity:1;stroke-width:5;stroke-linecap:round;stroke-linejoin:round;stroke:#000;stroke-opacity:1;stroke-miterlimit:10" d="M1341.165 1255.813 1134.1 1706.224l12.968-441.4" transform="matrix(.0997 0 0 -.0997 0 199.416)"/><path style="fill-rule:nonzero;fill:#f8b67c;fill-opacity:1;stroke-width:5;stroke-linecap:round;stroke-linejoin:round;stroke:#000;stroke-opacity:1;stroke-miterlimit:10" d="m1147.068 1264.824 6.426-218.075 187.671 209.064" transform="matrix(.0997 0 0 -.0997 0 199.416)"/><path style="fill-rule:nonzero;fill:#29b3c5;fill-opacity:1;stroke-width:5;stroke-linecap:round;stroke-linejoin:round;stroke:#000;stroke-opacity:1;stroke-miterlimit:10" d="m1341.165 1255.813 595.848-58.614-423.809 50.66" transform="matrix(.0997 0 0 -.0997 0 199.416)"/><path style="stroke:none;fill-rule:nonzero;fill:#d4aaae;fill-opacity:1" d="m193.121 80.055-59.406-5.844 12.11 36.719"/><path style="fill:none;stroke-width:5;stroke-linecap:round;stroke-linejoin:round;stroke:#000;stroke-opacity:1;stroke-miterlimit:10" d="m1937.013 1197.2-595.848 58.613 121.458-368.291Zm0 0" transform="matrix(.0997 0 0 -.0997 0 199.416)"/><path style="stroke:none;fill-rule:nonzero;fill:#d1a8af;fill-opacity:1" d="M90.922 67.84 38.195 22.305l22.739 63.023"/><path style="fill:none;stroke-width:5;stroke-linecap:round;stroke-linejoin:round;stroke:#000;stroke-opacity:1;stroke-miterlimit:10" d="m911.95 1319.715-528.85 456.72 228.066-632.128Zm0 0" transform="matrix(.0997 0 0 -.0997 0 199.416)"/><path style="stroke:none;fill-rule:nonzero;fill:#5e0135;fill-opacity:1" d="M38.195 22.305 90.922 67.84l7.394-12.867"/><path style="fill:none;stroke-width:5;stroke-linecap:round;stroke-linejoin:round;stroke:#000;stroke-opacity:1;stroke-miterlimit:10" d="m383.1 1776.434 528.85-456.72 74.168 129.06Zm0 0" transform="matrix(.0997 0 0 -.0997 0 199.416)"/><path style="stroke:none;fill-rule:nonzero;fill:#d1a8af;fill-opacity:1" d="m73.734 120.805-67.84-3.387 55.04-32.09"/><path style="fill:none;stroke-width:5;stroke-linecap:round;stroke-linejoin:round;stroke:#000;stroke-opacity:1;stroke-miterlimit:10" d="m739.559 788.475-680.437 33.97 552.044 321.862Zm0 0" transform="matrix(.0997 0 0 -.0997 0 199.416)"/><path style="stroke:none;fill-rule:nonzero;fill:#bcabc8;fill-opacity:1" d="m72.672 193.027 1.062-72.222 33.856 18.543"/><path style="fill:none;stroke-width:5;stroke-linecap:round;stroke-linejoin:round;stroke:#000;stroke-opacity:1;stroke-miterlimit:10" d="m728.902 64.079 10.657 724.396L1079.13 602.49Zm0 0" transform="matrix(.0997 0 0 -.0997 0 199.416)"/><path style="stroke:none;fill-rule:nonzero;fill:#002;fill-opacity:1" d="m73.734 120.805-1.062 72.222 2.773-67.43"/><path style="fill:none;stroke-width:5;stroke-linecap:round;stroke-linejoin:round;stroke:#000;stroke-opacity:1;stroke-miterlimit:10" d="M739.559 788.475 728.902 64.08l27.818 676.323Zm0 0" transform="matrix(.0997 0 0 -.0997 0 199.416)"/><path style="stroke:none;fill-rule:nonzero;fill:#55cee8;fill-opacity:1" d="m5.895 117.418 67.84 3.387 1.71 4.793"/><path style="fill:none;stroke-width:5;stroke-linecap:round;stroke-linejoin:round;stroke:#000;stroke-opacity:1;stroke-miterlimit:10" d="m59.122 822.444 680.437-33.969 17.16-48.073Zm0 0" transform="matrix(.0997 0 0 -.0997 0 199.416)"/><path style="stroke:none;fill-rule:nonzero;fill:#480019;fill-opacity:1" d="m116.043 130.375 49.637 40.79-58.09-31.817"/><path style="fill:none;stroke-width:5;stroke-linecap:round;stroke-linejoin:round;stroke:#000;stroke-opacity:1;stroke-miterlimit:10" d="m1163.916 692.485 497.858-409.116-582.643 319.12Zm0 0" transform="matrix(.0997 0 0 -.0997 0 199.416)"/><path style="stroke:none;fill-rule:nonzero;fill:#000083;fill-opacity:1" d="m116.043 130.375-43.371 62.652 34.918-53.68"/><path style="fill:none;stroke-width:5;stroke-linecap:round;stroke-linejoin:round;stroke:#000;stroke-opacity:1;stroke-miterlimit:10" d="M1163.916 692.485 728.902 64.079l350.229 538.41Zm0 0" transform="matrix(.0997 0 0 -.0997 0 199.416)"/><path style="stroke:none;fill-rule:nonzero;fill:#d4aaae;fill-opacity:1" d="m165.68 171.164-49.637-40.789 29.781-19.445"/><path style="fill:none;stroke-width:5;stroke-linecap:round;stroke-linejoin:round;stroke:#000;stroke-opacity:1;stroke-miterlimit:10" d="m1661.774 283.369-497.858 409.116 298.707 195.037Zm0 0" transform="matrix(.0997 0 0 -.0997 0 199.416)"/><path style="stroke:none;fill-rule:nonzero;fill:#310263;fill-opacity:1" d="M38.195 22.305 77.11 85.094l-16.175.234"/><path style="fill:none;stroke-width:5;stroke-linecap:round;stroke-linejoin:round;stroke:#000;stroke-opacity:1;stroke-miterlimit:10" d="m383.1 1776.434 390.31-629.777-162.244-2.35Zm0 0" transform="matrix(.0997 0 0 -.0997 0 199.416)"/><path style="stroke:none;fill-rule:nonzero;fill:#1d89ea;fill-opacity:1" d="M77.11 85.094 5.894 117.418l55.039-32.09"/><path style="fill:none;stroke-width:5;stroke-linecap:round;stroke-linejoin:round;stroke:#000;stroke-opacity:1;stroke-miterlimit:10" d="M773.41 1146.657 59.122 822.444l552.044 321.863Zm0 0" transform="matrix(.0997 0 0 -.0997 0 199.416)"/><path style="stroke:none;fill-rule:nonzero;fill:#4097f2;fill-opacity:1" d="m183.46 113.05-67.417 17.325 29.781-19.445"/><path style="fill:none;stroke-width:5;stroke-linecap:round;stroke-linejoin:round;stroke:#000;stroke-opacity:1;stroke-miterlimit:10" d="m1840.12 866.247-676.204-173.762 298.707 195.037Zm0 0" transform="matrix(.0997 0 0 -.0997 0 199.416)"/><path style="stroke:none;fill-rule:nonzero;fill:#471972;fill-opacity:1" d="m133.715 74.21 49.746 38.84-37.637-2.12"/><path style="fill:none;stroke-width:5;stroke-linecap:round;stroke-linejoin:round;stroke:#000;stroke-opacity:1;stroke-miterlimit:10" d="m1341.165 1255.813 498.956-389.566-377.498 21.275Zm0 0" transform="matrix(.0997 0 0 -.0997 0 199.416)"/><path style="stroke:none;fill-rule:nonzero;fill:#bdadc9;fill-opacity:1" d="m77.11 85.094-38.915-62.79 60.121 32.669"/><path style="fill:none;stroke-width:5;stroke-linecap:round;stroke-linejoin:round;stroke:#000;stroke-opacity:1;stroke-miterlimit:10" d="M773.41 1146.657 383.1 1776.434l603.018-327.66Zm0 0" transform="matrix(.0997 0 0 -.0997 0 199.416)"/><path style="stroke:none;fill-rule:nonzero;fill:#b48cac;fill-opacity:1" d="m72.672 193.027 43.371-62.652-40.598-4.777"/><path style="fill:none;stroke-width:5;stroke-linecap:round;stroke-linejoin:round;stroke:#000;stroke-opacity:1;stroke-miterlimit:10" d="m728.902 64.079 435.014 628.406-407.196 47.917Zm0 0" transform="matrix(.0997 0 0 -.0997 0 199.416)"/><path style="stroke:none;fill-rule:nonzero;fill:#a73600;fill-opacity:1" d="M113.07 29.305 77.11 85.094l21.206-30.121"/><path style="fill:none;stroke-width:5;stroke-linecap:round;stroke-linejoin:round;stroke:#000;stroke-opacity:1;stroke-miterlimit:10" d="m1134.1 1706.224-360.69-559.567 212.708 302.116Zm0 0" transform="matrix(.0997 0 0 -.0997 0 199.416)"/><path style="stroke:none;fill-rule:nonzero;fill:#a5c2ed;fill-opacity:1" d="m183.46 113.05-49.745-38.84-18.711 20.845"/><path style="fill:none;stroke-width:5;stroke-linecap:round;stroke-linejoin:round;stroke:#000;stroke-opacity:1;stroke-miterlimit:10" d="m1840.12 866.247-498.955 389.566-187.671-209.064Zm0 0" transform="matrix(.0997 0 0 -.0997 0 199.416)"/><path style="stroke:none;fill-rule:nonzero;fill:#55cee8;fill-opacity:1" d="m78.902 135.277 37.141-4.902-40.598-4.777"/><path style="fill:none;stroke-width:5;stroke-linecap:round;stroke-linejoin:round;stroke:#000;stroke-opacity:1;stroke-miterlimit:10" d="m791.394 643.314 372.522 49.17-407.196 47.918Zm0 0" transform="matrix(.0997 0 0 -.0997 0 199.416)"/><path style="stroke:none;fill-rule:nonzero;fill:#925c8e;fill-opacity:1" d="m116.043 130.375 67.418-17.324-68.457-17.996"/><path style="fill:none;stroke-width:5;stroke-linecap:round;stroke-linejoin:round;stroke:#000;stroke-opacity:1;stroke-miterlimit:10" d="m1163.916 692.485 676.205 173.762-686.627 180.502Zm0 0" transform="matrix(.0997 0 0 -.0997 0 199.416)"/><path style="stroke:none;fill-rule:nonzero;fill:#f8b67c;fill-opacity:1" d="m116.043 130.375-37.14 4.902 36.1-40.222"/><path style="fill:none;stroke-width:5;stroke-linecap:round;stroke-linejoin:round;stroke:#000;stroke-opacity:1;stroke-miterlimit:10" d="m1163.916 692.485-372.522-49.171 362.1 403.435Zm0 0" transform="matrix(.0997 0 0 -.0997 0 199.416)"/><path style="stroke:none;fill-rule:nonzero;fill:#b48cac;fill-opacity:1" d="m5.895 117.418 71.214-32.324-1.664 40.504"/><path style="fill:none;stroke-width:5;stroke-linecap:round;stroke-linejoin:round;stroke:#000;stroke-opacity:1;stroke-miterlimit:10" d="m59.122 822.444 714.288 324.213-16.69-406.255Zm0 0" transform="matrix(.0997 0 0 -.0997 0 199.416)"/><path style="stroke:none;fill-rule:nonzero;fill:#002;fill-opacity:1" d="m77.11 85.094 1.792 50.183-3.457-9.68"/><path style="fill:none;stroke-width:5;stroke-linecap:round;stroke-linejoin:round;stroke:#000;stroke-opacity:1;stroke-miterlimit:10" d="m773.41 1146.657 17.984-503.343-34.674 97.088Zm0 0" transform="matrix(.0997 0 0 -.0997 0 199.416)"/><path style="stroke:none;fill-rule:nonzero;fill:#925c8e;fill-opacity:1" d="m77.11 85.094 35.96-55.79 1.934 65.75"/><path style="fill:none;stroke-width:5;stroke-linecap:round;stroke-linejoin:round;stroke:#000;stroke-opacity:1;stroke-miterlimit:10" d="m773.41 1146.657 360.69 559.567 19.394-659.475Zm0 0" transform="matrix(.0997 0 0 -.0997 0 199.416)"/><path style="stroke:none;fill-rule:nonzero;fill:#a5c2ed;fill-opacity:1" d="M78.902 135.277 77.11 85.094l37.895 9.96"/><path style="fill:none;stroke-width:5;stroke-linecap:round;stroke-linejoin:round;stroke:#000;stroke-opacity:1;stroke-miterlimit:10" d="m791.394 643.314-17.984 503.343 380.084-99.908Zm0 0" transform="matrix(.0997 0 0 -.0997 0 199.416)"/></svg>