<svg xmlns="http://www.w3.org/2000/svg" width="269.253" height="200.5pt" viewBox="0 0 201.94 200.5" version="1.2"><path style="fill-rule:nonzero;fill:#d86700;fill-opacity:1;stroke-width:5;stroke-linecap:round;stroke-linejoin:round;stroke:#000;stroke-opacity:1;stroke-miterlimit:10" d="m961.312 931.431 54.589 76.988 3.916-65.632" transform="matrix(.09975 0 0 -.09975 .221 200.001)"/><path style="fill-rule:nonzero;fill:#d86700;fill-opacity:1;stroke-width:5;stroke-linecap:round;stroke-linejoin:round;stroke:#000;stroke-opacity:1;stroke-miterlimit:10" d="m1019.817 942.787 7.4-124.293-46.169 79.064" transform="matrix(.09975 0 0 -.09975 .221 200.001)"/><path style="stroke:none;fill-rule:nonzero;fill:#d86700;fill-opacity:1" d="m98.082 110.469-1.969-3.38 5.836-1.132"/><path style="fill:none;stroke-width:5;stroke-linecap:round;stroke-linejoin:round;stroke:#000;stroke-opacity:1;stroke-miterlimit:10" d="m981.048 897.558-19.736 33.873" transform="matrix(.09975 0 0 -.09975 .221 200.001)"/><path style="stroke:none;fill-rule:nonzero;fill:#000;fill-opacity:1" d="m102.688 118.355-.856-3.734-5.719-7.531"/><path style="fill:none;stroke-width:5;stroke-linecap:round;stroke-linejoin:round;stroke:#000;stroke-opacity:1;stroke-miterlimit:10" d="m1027.218 818.494-8.576 37.437-57.33 75.5Zm0 0" transform="matrix(.09975 0 0 -.09975 .221 200.001)"/><path style="stroke:none;fill-rule:nonzero;fill:#166bdd;fill-opacity:1" d="m101.832 114.621-.672 1.844-20.555 14.383"/><path style="fill:none;stroke-width:5;stroke-linecap:round;stroke-linejoin:round;stroke:#000;stroke-opacity:1;stroke-miterlimit:10" d="m1018.642 855.93-6.736-18.483" transform="matrix(.09975 0 0 -.09975 .221 200.001)"/><path style="stroke:none;fill-rule:nonzero;fill:#166bdd;fill-opacity:1" d="m34.383 163.188 48.34-34.805-2.118 2.465"/><path style="fill:none;stroke-width:5;stroke-linecap:round;stroke-linejoin:round;stroke:#000;stroke-opacity:1;stroke-miterlimit:10" d="M342.468 369.055 827.072 717.97" transform="matrix(.09975 0 0 -.09975 .221 200.001)"/><path style="stroke:none;fill-rule:nonzero;fill:#166bdd;fill-opacity:1" d="m82.723 128.383 19.109-13.762-21.227 16.227"/><path style="fill:none;stroke-width:5;stroke-linecap:round;stroke-linejoin:round;stroke:#000;stroke-opacity:1;stroke-miterlimit:10" d="m827.072 717.97 191.57 137.96" transform="matrix(.09975 0 0 -.09975 .221 200.001)"/><path style="stroke:none;fill-rule:nonzero;fill:#00003c;fill-opacity:1" d="m110.633 102.172.094 4.691-2.602 3.719"/><path style="fill:none;stroke-width:5;stroke-linecap:round;stroke-linejoin:round;stroke:#000;stroke-opacity:1;stroke-miterlimit:10" d="m1106.87 980.733.939-47.03" transform="matrix(.09975 0 0 -.09975 .221 200.001)"/><path style="stroke:none;fill-rule:nonzero;fill:#00003c;fill-opacity:1" d="m102.688 118.355 5.199-10.59.238 2.817"/><path style="fill:none;stroke-width:5;stroke-linecap:round;stroke-linejoin:round;stroke:#000;stroke-opacity:1;stroke-miterlimit:10" d="m1027.218 818.494 52.122 106.162" transform="matrix(.09975 0 0 -.09975 .221 200.001)"/><path style="stroke:none;fill-rule:nonzero;fill:#00003c;fill-opacity:1" d="m107.887 107.766 2.746-5.594-2.508 8.41"/><path style="fill:none;stroke-width:5;stroke-linecap:round;stroke-linejoin:round;stroke:#000;stroke-opacity:1;stroke-miterlimit:10" d="m1079.34 924.656 27.53 56.077" transform="matrix(.09975 0 0 -.09975 .221 200.001)"/><path style="stroke:none;fill-rule:nonzero;fill:#00003c;fill-opacity:1" d="m109.676 112.523-6.989 5.832 8.04-11.492"/><path style="fill:none;stroke-width:5;stroke-linecap:round;stroke-linejoin:round;stroke:#000;stroke-opacity:1;stroke-miterlimit:10" d="m1097.275 876.96-70.057-58.466" transform="matrix(.09975 0 0 -.09975 .221 200.001)"/><path style="fill-rule:nonzero;fill:#470000;fill-opacity:1;stroke-width:5;stroke-linecap:round;stroke-linejoin:round;stroke:#000;stroke-opacity:1;stroke-miterlimit:10" d="m1061.404 994.557 45.465-13.824-79.651-162.24M1027.218 818.494l-11.317 189.925 45.503-13.862" transform="matrix(.09975 0 0 -.09975 .221 200.001)"/><path style="fill-rule:nonzero;fill:#570000;fill-opacity:1;stroke-width:5;stroke-linecap:round;stroke-linejoin:round;stroke:#000;stroke-opacity:1;stroke-miterlimit:10" d="m1018.642 855.93 8.576-37.436 70.057 58.466" transform="matrix(.09975 0 0 -.09975 .221 200.001)"/><path style="fill-rule:nonzero;fill:#f9eba2;fill-opacity:1;stroke-width:5;stroke-linecap:round;stroke-linejoin:round;stroke:#000;stroke-opacity:1;stroke-miterlimit:10" d="m1011.906 837.447 6.736 18.484 85.33-222.585" transform="matrix(.09975 0 0 -.09975 .221 200.001)"/><path style="stroke:none;fill-rule:nonzero;fill:#f9eba2;fill-opacity:1" d="m110.344 136.824 21.594 56.336-21.325-53.14"/><path style="fill:none;stroke-width:5;stroke-linecap:round;stroke-linejoin:round;stroke:#000;stroke-opacity:1;stroke-miterlimit:10" d="M1103.971 633.346 1320.447 68.58" transform="matrix(.09975 0 0 -.09975 .221 200.001)"/><path style="stroke:none;fill-rule:nonzero;fill:#f9eba2;fill-opacity:1" d="m110.613 140.02-9.453-23.555 9.184 20.36"/><path style="stroke:none;fill-rule:nonzero;fill:#0c34b3;fill-opacity:1" d="m128.156 31.848-9.422 46.894-5.992 21.336"/><path style="fill:none;stroke-width:5;stroke-linecap:round;stroke-linejoin:round;stroke:#000;stroke-opacity:1;stroke-miterlimit:10" d="m1282.54 1685.73-94.453-470.116" transform="matrix(.09975 0 0 -.09975 .221 200.001)"/><path style="fill-rule:nonzero;fill:#0c34b3;fill-opacity:1;stroke-width:5;stroke-linecap:round;stroke-linejoin:round;stroke:#000;stroke-opacity:1;stroke-miterlimit:10" d="m1128.015 1001.723-21.146-20.99 175.671 704.996" transform="matrix(.09975 0 0 -.09975 .221 200.001)"/><path style="stroke:none;fill-rule:nonzero;fill:#b9afcf;fill-opacity:1" d="m128.156 31.848-17.523 70.324-9.074-2.762"/><path style="fill:none;stroke-width:5;stroke-linecap:round;stroke-linejoin:round;stroke:#000;stroke-opacity:1;stroke-miterlimit:10" d="m1282.54 1685.73-175.67-704.997-90.97 27.686Zm0 0" transform="matrix(.09975 0 0 -.09975 .221 200.001)"/><path style="stroke:none;fill-rule:nonzero;fill:#0c34b3;fill-opacity:1" d="m118.734 78.742-2.062 10.274-3.93 11.062"/><path style="fill:none;stroke-width:5;stroke-linecap:round;stroke-linejoin:round;stroke:#000;stroke-opacity:1;stroke-miterlimit:10" d="m1188.087 1215.614-20.677-102.99" transform="matrix(.09975 0 0 -.09975 .221 200.001)"/><path style="fill-rule:nonzero;fill:#0c34b3;fill-opacity:1;stroke-width:5;stroke-linecap:round;stroke-linejoin:round;stroke:#000;stroke-opacity:1;stroke-miterlimit:10" d="m1167.41 1112.624-18.013-89.755-21.382-21.146" transform="matrix(.09975 0 0 -.09975 .221 200.001)"/><path style="stroke:none;fill-rule:nonzero;fill:#e1cdc4;fill-opacity:1" d="m114.875 97.969 13.281-66.121-19.844 60.672"/><path style="fill:none;stroke-width:5;stroke-linecap:round;stroke-linejoin:round;stroke:#000;stroke-opacity:1;stroke-miterlimit:10" d="m1149.397 1022.87 133.143 662.86-198.932-608.233Zm0 0" transform="matrix(.09975 0 0 -.09975 .221 200.001)"/><path style="fill-rule:nonzero;fill:#fcbe76;fill-opacity:1;stroke-width:5;stroke-linecap:round;stroke-linejoin:round;stroke:#000;stroke-opacity:1;stroke-miterlimit:10" d="m1000.746 1068.1 281.794 617.63-189.651-481.863M1092.889 1203.867l-76.988-195.448-15.155 59.68" transform="matrix(.09975 0 0 -.09975 .221 200.001)"/><path style="stroke:none;fill-rule:nonzero;fill:#869adf;fill-opacity:1" d="m128.156 31.848-28.11 61.609 8.266-.937"/><path style="fill:none;stroke-width:5;stroke-linecap:round;stroke-linejoin:round;stroke:#000;stroke-opacity:1;stroke-miterlimit:10" d="m1282.54 1685.73-281.794-617.63 82.862 9.397Zm0 0" transform="matrix(.09975 0 0 -.09975 .221 200.001)"/><path style="fill-rule:nonzero;fill:#a194c6;fill-opacity:1;stroke-width:5;stroke-linecap:round;stroke-linejoin:round;stroke:#000;stroke-opacity:1;stroke-miterlimit:10" d="m988.645 969.964-27.333-38.533-623.348 440M337.964 1371.432l677.937-363.013-27.256-38.455" transform="matrix(.09975 0 0 -.09975 .221 200.001)"/><path style="fill-rule:nonzero;fill:#aef9e6;fill-opacity:1;stroke-width:5;stroke-linecap:round;stroke-linejoin:round;stroke:#000;stroke-opacity:1;stroke-miterlimit:10" d="m936.484 936.835-25.14 5.482-573.38 429.115" transform="matrix(.09975 0 0 -.09975 .221 200.001)"/><path style="fill-rule:nonzero;fill:#aef9e6;fill-opacity:1;stroke-width:5;stroke-linecap:round;stroke-linejoin:round;stroke:#000;stroke-opacity:1;stroke-miterlimit:10" d="M337.964 1371.432 961.312 931.43l-24.828 5.404" transform="matrix(.09975 0 0 -.09975 .221 200.001)"/><path style="fill-rule:nonzero;fill:#5d1354;fill-opacity:1;stroke-width:5;stroke-linecap:round;stroke-linejoin:round;stroke:#000;stroke-opacity:1;stroke-miterlimit:10" d="m1008.343 1038.103 7.558-29.684-677.937 363.013" transform="matrix(.09975 0 0 -.09975 .221 200.001)"/><path style="fill-rule:nonzero;fill:#5d1354;fill-opacity:1;stroke-width:5;stroke-linecap:round;stroke-linejoin:round;stroke:#000;stroke-opacity:1;stroke-miterlimit:10" d="m337.964 1371.432 662.782-303.333 7.597-29.996" transform="matrix(.09975 0 0 -.09975 .221 200.001)"/><path style="fill-rule:nonzero;fill:#7f60a5;fill-opacity:1;stroke-width:5;stroke-linecap:round;stroke-linejoin:round;stroke:#000;stroke-opacity:1;stroke-miterlimit:10" d="m935.623 1027.49-597.659 343.942 496.195-371.354" transform="matrix(.09975 0 0 -.09975 .221 200.001)"/><path style="stroke:none;fill-rule:nonzero;fill:#a6c1ec;fill-opacity:1" d="M33.934 63.2 93.55 97.507l6.496-4.051"/><path style="fill:none;stroke-width:5;stroke-linecap:round;stroke-linejoin:round;stroke:#000;stroke-opacity:1;stroke-miterlimit:10" d="m337.964 1371.432 597.659-343.942 65.123 40.61Zm0 0" transform="matrix(.09975 0 0 -.09975 .221 200.001)"/><path style="stroke:none;fill-rule:nonzero;fill:#a63f43;fill-opacity:1" d="m188.996 110.309-78.363-8.137 4.242-4.203"/><path style="fill:none;stroke-width:5;stroke-linecap:round;stroke-linejoin:round;stroke:#000;stroke-opacity:1;stroke-miterlimit:10" d="m1892.456 899.163-785.587 81.57 42.528 42.136Zm0 0" transform="matrix(.09975 0 0 -.09975 .221 200.001)"/><path style="stroke:none;fill-rule:nonzero;fill:#c9abbb;fill-opacity:1" d="m188.996 110.309-78.176 1.261-.187-9.398"/><path style="fill:none;stroke-width:5;stroke-linecap:round;stroke-linejoin:round;stroke:#000;stroke-opacity:1;stroke-miterlimit:10" d="m1892.456 899.163-783.707-12.648-1.88 94.218Zm0 0" transform="matrix(.09975 0 0 -.09975 .221 200.001)"/><path style="fill-rule:nonzero;fill:#cbd4e1;fill-opacity:1;stroke-width:5;stroke-linecap:round;stroke-linejoin:round;stroke:#000;stroke-opacity:1;stroke-miterlimit:10" d="m1178.101 953.713 714.355-54.55-643.671 107.18" transform="matrix(.09975 0 0 -.09975 .221 200.001)"/><path style="stroke:none;fill-rule:nonzero;fill:#69d2f8;fill-opacity:1" d="m188.996 110.309-73.805 3.023-4.37-1.762"/><path style="fill:none;stroke-width:5;stroke-linecap:round;stroke-linejoin:round;stroke:#000;stroke-opacity:1;stroke-miterlimit:10" d="m1892.456 899.163-739.887-30.31-43.82 17.662Zm0 0" transform="matrix(.09975 0 0 -.09975 .221 200.001)"/><path style="stroke:none;fill-rule:nonzero;fill:#cd8d8f;fill-opacity:1" d="m188.996 110.309-71.258-5.442-2.547 8.465"/><path style="fill:none;stroke-width:5;stroke-linecap:round;stroke-linejoin:round;stroke:#000;stroke-opacity:1;stroke-miterlimit:10" d="m1892.456 899.163-714.355 54.55-25.532-84.86Zm0 0" transform="matrix(.09975 0 0 -.09975 .221 200.001)"/><path style="fill-rule:nonzero;fill:#166bdd;fill-opacity:1;stroke-width:5;stroke-linecap:round;stroke-linejoin:round;stroke:#000;stroke-opacity:1;stroke-miterlimit:10" d="m1011.906 837.447-6.814-18.757-662.624-449.635" transform="matrix(.09975 0 0 -.09975 .221 200.001)"/><path style="stroke:none;fill-rule:nonzero;fill:#a482af;fill-opacity:1" d="m34.383 163.188 61.73-56.098 5.719 7.531"/><path style="fill:none;stroke-width:5;stroke-linecap:round;stroke-linejoin:round;stroke:#000;stroke-opacity:1;stroke-miterlimit:10" d="m342.468 369.055 618.844 562.376 57.33-75.5Zm0 0" transform="matrix(.09975 0 0 -.09975 .221 200.001)"/><path style="fill-rule:nonzero;fill:#b17087;fill-opacity:1;stroke-width:5;stroke-linecap:round;stroke-linejoin:round;stroke:#000;stroke-opacity:1;stroke-miterlimit:10" d="M971.767 845.436 938.168 872.3l-595.7-503.245M342.468 369.055l662.624 449.635-33.325 26.746" transform="matrix(.09975 0 0 -.09975 .221 200.001)"/><path style="stroke:none;fill-rule:nonzero;fill:#cf694a;fill-opacity:1" d="m34.383 163.188 56.746-57.184 4.984 1.086"/><path style="fill:none;stroke-width:5;stroke-linecap:round;stroke-linejoin:round;stroke:#000;stroke-opacity:1;stroke-miterlimit:10" d="m342.468 369.055 568.876 573.262 49.968-10.886Zm0 0" transform="matrix(.09975 0 0 -.09975 .221 200.001)"/><path style="fill-rule:nonzero;fill:#7875c3;fill-opacity:1;stroke-width:5;stroke-linecap:round;stroke-linejoin:round;stroke:#000;stroke-opacity:1;stroke-miterlimit:10" d="m342.468 369.055 595.7 503.245-13.47 35.165" transform="matrix(.09975 0 0 -.09975 .221 200.001)"/><path style="stroke:none;fill-rule:nonzero;fill:#7875c3;fill-opacity:1" d="m83.621 113.57-49.238 49.618L92.46 109.48"/><path style="fill:none;stroke-width:5;stroke-linecap:round;stroke-linejoin:round;stroke:#000;stroke-opacity:1;stroke-miterlimit:10" d="m836.078 866.465-493.61-497.41" transform="matrix(.09975 0 0 -.09975 .221 200.001)"/><path style="fill-rule:nonzero;fill:#f9eba2;fill-opacity:1;stroke-width:5;stroke-linecap:round;stroke-linejoin:round;stroke:#000;stroke-opacity:1;stroke-miterlimit:10" d="M1320.447 68.581 1005.092 818.69l6.814 18.757" transform="matrix(.09975 0 0 -.09975 .221 200.001)"/><path style="fill-rule:nonzero;fill:#00003c;fill-opacity:1;stroke-width:5;stroke-linecap:round;stroke-linejoin:round;stroke:#000;stroke-opacity:1;stroke-miterlimit:10" d="m1107.809 933.702.94-47.187-11.474-9.555" transform="matrix(.09975 0 0 -.09975 .221 200.001)"/><path style="fill-rule:nonzero;fill:#570000;fill-opacity:1;stroke-width:5;stroke-linecap:round;stroke-linejoin:round;stroke:#000;stroke-opacity:1;stroke-miterlimit:10" d="m1097.275 876.96 11.474 9.555-90.107-30.584" transform="matrix(.09975 0 0 -.09975 .221 200.001)"/><path style="stroke:none;fill-rule:nonzero;fill:#bb8fa8;fill-opacity:1" d="m110.82 111.57 21.118 81.59-30.106-78.539"/><path style="fill:none;stroke-width:5;stroke-linecap:round;stroke-linejoin:round;stroke:#000;stroke-opacity:1;stroke-miterlimit:10" d="M1108.749 886.515 1320.447 68.58l-301.805 787.35Zm0 0" transform="matrix(.09975 0 0 -.09975 .221 200.001)"/><path style="fill-rule:nonzero;fill:#955f8f;fill-opacity:1;stroke-width:5;stroke-linecap:round;stroke-linejoin:round;stroke:#000;stroke-opacity:1;stroke-miterlimit:10" d="m1046.641 822.566-41.549-3.876L1320.447 68.58" transform="matrix(.09975 0 0 -.09975 .221 200.001)"/><path style="fill-rule:nonzero;fill:#955f8f;fill-opacity:1;stroke-width:5;stroke-linecap:round;stroke-linejoin:round;stroke:#000;stroke-opacity:1;stroke-miterlimit:10" d="m1320.447 68.581-231.983 757.94-41.823-3.955" transform="matrix(.09975 0 0 -.09975 .221 200.001)"/><path style="stroke:none;fill-rule:nonzero;fill:#340d70;fill-opacity:1" d="m131.938 193.16-21.118-81.59 4.371 1.762"/><path style="fill:none;stroke-width:5;stroke-linecap:round;stroke-linejoin:round;stroke:#000;stroke-opacity:1;stroke-miterlimit:10" d="M1320.447 68.581 1108.75 886.515l43.82-17.662Zm0 0" transform="matrix(.09975 0 0 -.09975 .221 200.001)"/><path style="stroke:none;fill-rule:nonzero;fill:#e0b0a5;fill-opacity:1" d="m131.938 193.16-16.747-79.828-6.394 4.223"/><path style="fill:none;stroke-width:5;stroke-linecap:round;stroke-linejoin:round;stroke:#000;stroke-opacity:1;stroke-miterlimit:10" d="M1320.447 68.581 1152.57 868.853l-64.105-42.331Zm0 0" transform="matrix(.09975 0 0 -.09975 .221 200.001)"/><path style="fill-rule:nonzero;fill:#cbd4e1;fill-opacity:1;stroke-width:5;stroke-linecap:round;stroke-linejoin:round;stroke:#000;stroke-opacity:1;stroke-miterlimit:10" d="m1248.785 1006.344-99.388 16.525 28.704-69.156" transform="matrix(.09975 0 0 -.09975 .221 200.001)"/><path style="fill-rule:nonzero;fill:#7f60a5;fill-opacity:1;stroke-width:5;stroke-linecap:round;stroke-linejoin:round;stroke:#000;stroke-opacity:1;stroke-miterlimit:10" d="m834.16 1000.078 77.184-57.76 24.279 85.172" transform="matrix(.09975 0 0 -.09975 .221 200.001)"/><path style="fill-rule:nonzero;fill:#7875c3;fill-opacity:1;stroke-width:5;stroke-linecap:round;stroke-linejoin:round;stroke:#000;stroke-opacity:1;stroke-miterlimit:10" d="m924.697 907.465-13.353 34.852-75.266-75.852" transform="matrix(.09975 0 0 -.09975 .221 200.001)"/><path style="stroke:none;fill-rule:nonzero;fill:#dfb0a5;fill-opacity:1" d="m74.258 9.457 25.789 84-6.496 4.05"/><path style="fill:none;stroke-width:5;stroke-linecap:round;stroke-linejoin:round;stroke:#000;stroke-opacity:1;stroke-miterlimit:10" d="m742.212 1910.194 258.534-842.095-65.123-40.609Zm0 0" transform="matrix(.09975 0 0 -.09975 .221 200.001)"/><path style="stroke:none;fill-rule:nonzero;fill:#966190;fill-opacity:1" d="m74.258 9.457 34.055 83.063-8.266.937"/><path style="fill:none;stroke-width:5;stroke-linecap:round;stroke-linejoin:round;stroke:#000;stroke-opacity:1;stroke-miterlimit:10" d="m742.212 1910.194 341.396-832.697-82.862-9.398Zm0 0" transform="matrix(.09975 0 0 -.09975 .221 200.001)"/><path style="fill-rule:nonzero;fill:#b27188;fill-opacity:1;stroke-width:5;stroke-linecap:round;stroke-linejoin:round;stroke:#000;stroke-opacity:1;stroke-miterlimit:10" d="m1817.7 1585.871-668.303-563.002-32.777 27.256" transform="matrix(.09975 0 0 -.09975 .221 200.001)"/><path style="stroke:none;fill-rule:nonzero;fill:#7a76c3;fill-opacity:1" d="m181.54 41.809-63.802 63.058-2.863-6.898"/><path style="fill:none;stroke-width:5;stroke-linecap:round;stroke-linejoin:round;stroke:#000;stroke-opacity:1;stroke-miterlimit:10" d="M1817.7 1585.871 1178.1 953.713l-28.704 69.156Zm0 0" transform="matrix(.09975 0 0 -.09975 .221 200.001)"/><path style="stroke:none;fill-rule:nonzero;fill:#cbd3e0;fill-opacity:1" d="m8.277 99.906 82.852 6.098 2.676 6.984"/><path style="fill:none;stroke-width:5;stroke-linecap:round;stroke-linejoin:round;stroke:#000;stroke-opacity:1;stroke-miterlimit:10" d="m80.762 1003.446 830.582-61.129 26.824-70.017Zm0 0" transform="matrix(.09975 0 0 -.09975 .221 200.001)"/><path style="stroke:none;fill-rule:nonzero;fill:#cd8e90;fill-opacity:1" d="M91.129 106.004 8.277 99.906l85.274-2.398"/><path style="fill:none;stroke-width:5;stroke-linecap:round;stroke-linejoin:round;stroke:#000;stroke-opacity:1;stroke-miterlimit:10" d="m911.344 942.317-830.582 61.13 854.86 24.043Zm0 0" transform="matrix(.09975 0 0 -.09975 .221 200.001)"/><path style="fill-rule:nonzero;fill:#b27188;fill-opacity:1;stroke-width:5;stroke-linecap:round;stroke-linejoin:round;stroke:#000;stroke-opacity:1;stroke-miterlimit:10" d="m1116.62 1050.125-33.012 27.372 734.092 508.374" transform="matrix(.09975 0 0 -.09975 .221 200.001)"/><path style="stroke:none;fill-rule:nonzero;fill:#8062a5;fill-opacity:1" d="m185.363 153.977-70.172-40.645 2.547-8.465"/><path style="fill:none;stroke-width:5;stroke-linecap:round;stroke-linejoin:round;stroke:#000;stroke-opacity:1;stroke-miterlimit:10" d="M1856.037 461.395 1152.57 868.853l25.532 84.86Zm0 0" transform="matrix(.09975 0 0 -.09975 .221 200.001)"/><path style="stroke:none;fill-rule:nonzero;fill:#a7c0eb;fill-opacity:1" d="m115.191 113.332 70.172 40.645-76.566-36.422"/><path style="fill:none;stroke-width:5;stroke-linecap:round;stroke-linejoin:round;stroke:#000;stroke-opacity:1;stroke-miterlimit:10" d="m1152.569 868.853 703.468-407.458-767.573 365.127Zm0 0" transform="matrix(.09975 0 0 -.09975 .221 200.001)"/><path style="fill-rule:nonzero;fill:#879ade;fill-opacity:1;stroke-width:5;stroke-linecap:round;stroke-linejoin:round;stroke:#000;stroke-opacity:1;stroke-miterlimit:10" d="m993.423 782.858 11.67 35.832 83.37 7.832" transform="matrix(.09975 0 0 -.09975 .221 200.001)"/><path style="fill-rule:nonzero;fill:#e0cbc4;fill-opacity:1;stroke-width:5;stroke-linecap:round;stroke-linejoin:round;stroke:#000;stroke-opacity:1;stroke-miterlimit:10" d="m971.767 845.436 33.325-26.746-11.67-35.832" transform="matrix(.09975 0 0 -.09975 .221 200.001)"/><path style="stroke:none;fill-rule:nonzero;fill:#0c66da;fill-opacity:1" d="m108.313 92.52-.641 1.738 21.45-15.227"/><path style="fill:none;stroke-width:5;stroke-linecap:round;stroke-linejoin:round;stroke:#000;stroke-opacity:1;stroke-miterlimit:10" d="m1083.608 1077.497-6.422-17.426" transform="matrix(.09975 0 0 -.09975 .221 200.001)"/><path style="stroke:none;fill-rule:nonzero;fill:#0c66da;fill-opacity:1" d="m131.027 76.79-22.714 15.73L129.12 79.03"/><path style="fill:none;stroke-width:5;stroke-linecap:round;stroke-linejoin:round;stroke:#000;stroke-opacity:1;stroke-miterlimit:10" d="m1311.323 1235.194-227.715-157.697" transform="matrix(.09975 0 0 -.09975 .221 200.001)"/><path style="fill-rule:nonzero;fill:#f9eb9d;fill-opacity:1;stroke-width:5;stroke-linecap:round;stroke-linejoin:round;stroke:#000;stroke-opacity:1;stroke-miterlimit:10" d="m1030.077 1149.787 40.608-107.338 12.923 35.048" transform="matrix(.09975 0 0 -.09975 .221 200.001)"/><path style="stroke:none;fill-rule:nonzero;fill:#f9eb9d;fill-opacity:1" d="M108.313 92.52 97.722 66.69l5.25 18.618"/><path style="fill:none;stroke-width:5;stroke-linecap:round;stroke-linejoin:round;stroke:#000;stroke-opacity:1;stroke-miterlimit:10" d="m1083.608 1077.497-106.162 258.926" transform="matrix(.09975 0 0 -.09975 .221 200.001)"/><path style="fill-rule:nonzero;fill:#f9eb9d;fill-opacity:1;stroke-width:5;stroke-linecap:round;stroke-linejoin:round;stroke:#000;stroke-opacity:1;stroke-miterlimit:10" d="m977.446 1336.423-235.234 573.77 239.854-633.607" transform="matrix(.09975 0 0 -.09975 .221 200.001)"/><path style="stroke:none;fill-rule:nonzero;fill:#f9eb9d;fill-opacity:1" d="m98.184 72.66 4.789 12.649-5.25-18.618"/><path style="fill:none;stroke-width:5;stroke-linecap:round;stroke-linejoin:round;stroke:#000;stroke-opacity:1;stroke-miterlimit:10" d="m982.066 1276.586 48.01-126.8" transform="matrix(.09975 0 0 -.09975 .221 200.001)"/><path style="fill-rule:nonzero;fill:#000031;fill-opacity:1;stroke-width:5;stroke-linecap:round;stroke-linejoin:round;stroke:#000;stroke-opacity:1;stroke-miterlimit:10" d="m978.15 1011.16 1.645-96.96 25.532 59.837" transform="matrix(.09975 0 0 -.09975 .221 200.001)"/><path style="fill-rule:nonzero;fill:#bb8fa7;fill-opacity:1;stroke-width:5;stroke-linecap:round;stroke-linejoin:round;stroke:#000;stroke-opacity:1;stroke-miterlimit:10" d="m1024.437 1026.785 46.248 15.664-40.608 107.338M742.212 1910.194 978.15 1011.16l46.287 15.624" transform="matrix(.09975 0 0 -.09975 .221 200.001)"/><path style="stroke:none;fill-rule:nonzero;fill:#bb8fa7;fill-opacity:1" d="M102.973 85.309 74.258 9.457l28.152 88.121"/><path style="fill:none;stroke-width:5;stroke-linecap:round;stroke-linejoin:round;stroke:#000;stroke-opacity:1;stroke-miterlimit:10" d="m1030.077 1149.787-287.865 760.407" transform="matrix(.09975 0 0 -.09975 .221 200.001)"/><path style="stroke:none;fill-rule:nonzero;fill:#620000;fill-opacity:1" d="m97.793 99.137 8.855-10.703.375 7.582"/><path style="fill:none;stroke-width:5;stroke-linecap:round;stroke-linejoin:round;stroke:#000;stroke-opacity:1;stroke-miterlimit:10" d="m978.15 1011.16 88.776 107.299 3.76-76.01Zm0 0" transform="matrix(.09975 0 0 -.09975 .221 200.001)"/><path style="fill-rule:nonzero;fill:#000031;fill-opacity:1;stroke-width:5;stroke-linecap:round;stroke-linejoin:round;stroke:#000;stroke-opacity:1;stroke-miterlimit:10" d="m1005.327 974.037 61.599 144.422-66.533-80.435" transform="matrix(.09975 0 0 -.09975 .221 200.001)"/><path style="stroke:none;fill-rule:nonzero;fill:#000031;fill-opacity:1" d="m100.012 96.457-2.219 2.68 2.71 3.703"/><path style="fill:none;stroke-width:5;stroke-linecap:round;stroke-linejoin:round;stroke:#000;stroke-opacity:1;stroke-miterlimit:10" d="m1000.393 1038.024-22.243-26.863" transform="matrix(.09975 0 0 -.09975 .221 200.001)"/><path style="fill-rule:nonzero;fill:#0c66da;fill-opacity:1;stroke-width:5;stroke-linecap:round;stroke-linejoin:round;stroke:#000;stroke-opacity:1;stroke-miterlimit:10" d="m1077.186 1060.071-6.5-17.622 747.014 543.422" transform="matrix(.09975 0 0 -.09975 .221 200.001)"/><path style="stroke:none;fill-rule:nonzero;fill:#a481ae;fill-opacity:1" d="m112.914 103.738 68.625-61.93-74.516 54.208"/><path style="fill:none;stroke-width:5;stroke-linecap:round;stroke-linejoin:round;stroke:#000;stroke-opacity:1;stroke-miterlimit:10" d="m1129.738 965.03 687.962 620.841-747.015-543.422Zm0 0" transform="matrix(.09975 0 0 -.09975 .221 200.001)"/><path style="stroke:none;fill-rule:nonzero;fill:#000;fill-opacity:1" d="m107.023 96.016-.375-7.582 6.266 15.304"/><path style="fill:none;stroke-width:5;stroke-linecap:round;stroke-linejoin:round;stroke:#000;stroke-opacity:1;stroke-miterlimit:10" d="m1070.685 1042.45-3.759 76.009 62.812-153.429Zm0 0" transform="matrix(.09975 0 0 -.09975 .221 200.001)"/><path style="stroke:none;fill-rule:nonzero;fill:#d26000;fill-opacity:1" d="m112.914 103.738-1.57-3.836-4.055 10.676"/><path style="fill:none;stroke-width:5;stroke-linecap:round;stroke-linejoin:round;stroke:#000;stroke-opacity:1;stroke-miterlimit:10" d="m1129.738 965.03-15.742 38.455" transform="matrix(.09975 0 0 -.09975 .221 200.001)"/><path style="fill-rule:nonzero;fill:#d26000;fill-opacity:1;stroke-width:5;stroke-linecap:round;stroke-linejoin:round;stroke:#000;stroke-opacity:1;stroke-miterlimit:10" d="m1113.996 1003.485-47.07 114.974 4.777-164.668" transform="matrix(.09975 0 0 -.09975 .221 200.001)"/><path style="stroke:none;fill-rule:nonzero;fill:#d26000;fill-opacity:1" d="m107.125 104.86.164 5.718 4.055-10.676"/><path style="fill:none;stroke-width:5;stroke-linecap:round;stroke-linejoin:round;stroke:#000;stroke-opacity:1;stroke-miterlimit:10" d="m1071.703 953.791 1.645-57.33" transform="matrix(.09975 0 0 -.09975 .221 200.001)"/><path style="stroke:none;fill-rule:nonzero;fill:#0c66da;fill-opacity:1" d="m181.54 41.809-50.513 34.98-1.906 2.242"/><path style="fill:none;stroke-width:5;stroke-linecap:round;stroke-linejoin:round;stroke:#000;stroke-opacity:1;stroke-miterlimit:10" d="m1817.7 1585.871-506.377-350.677" transform="matrix(.09975 0 0 -.09975 .221 200.001)"/><path style="stroke:none;fill-rule:nonzero;fill:#2e076c;fill-opacity:1" d="M97.793 99.137 74.258 9.457l19.293 88.05"/><path style="fill:none;stroke-width:5;stroke-linecap:round;stroke-linejoin:round;stroke:#000;stroke-opacity:1;stroke-miterlimit:10" d="m978.15 1011.16-235.938 899.034 193.41-882.704Zm0 0" transform="matrix(.09975 0 0 -.09975 .221 200.001)"/><path style="fill-rule:nonzero;fill:#61d0f5;fill-opacity:1;stroke-width:5;stroke-linecap:round;stroke-linejoin:round;stroke:#000;stroke-opacity:1;stroke-miterlimit:10" d="m956.77 1019.384-21.147 8.106-854.861-24.044" transform="matrix(.09975 0 0 -.09975 .221 200.001)"/><path style="stroke:none;fill-rule:nonzero;fill:#e0cbc4;fill-opacity:1" d="m93.805 112.988 3.351 2.68 2.16 6.242"/><path style="fill:none;stroke-width:5;stroke-linecap:round;stroke-linejoin:round;stroke:#000;stroke-opacity:1;stroke-miterlimit:10" d="m938.168 872.3 33.6-26.864" transform="matrix(.09975 0 0 -.09975 .221 200.001)"/><path style="stroke:none;fill-rule:nonzero;fill:#cf6745;fill-opacity:1" d="m181.54 41.809-68.626 61.93 4.824 1.128"/><path style="fill:none;stroke-width:5;stroke-linecap:round;stroke-linejoin:round;stroke:#000;stroke-opacity:1;stroke-miterlimit:10" d="m1817.7 1585.871-687.962-620.84 48.363-11.318Zm0 0" transform="matrix(.09975 0 0 -.09975 .221 200.001)"/><path style="stroke:none;fill-rule:nonzero;fill:#a9f8e2;fill-opacity:1" d="m185.363 153.977-67.625-49.11-4.824-1.129"/><path style="fill:none;stroke-width:5;stroke-linecap:round;stroke-linejoin:round;stroke:#000;stroke-opacity:1;stroke-miterlimit:10" d="m1856.037 461.395-677.936 492.318-48.363 11.317Zm0 0" transform="matrix(.09975 0 0 -.09975 .221 200.001)"/><path style="fill-rule:nonzero;fill:#e0cbc4;fill-opacity:1;stroke-width:5;stroke-linecap:round;stroke-linejoin:round;stroke:#000;stroke-opacity:1;stroke-miterlimit:10" d="M993.423 782.858 765.355 84.01 938.168 872.3" transform="matrix(.09975 0 0 -.09975 .221 200.001)"/><path style="fill-rule:nonzero;fill:#879ade;fill-opacity:1;stroke-width:5;stroke-linecap:round;stroke-linejoin:round;stroke:#000;stroke-opacity:1;stroke-miterlimit:10" d="M1088.464 826.522 765.355 84.01l228.068 698.848" transform="matrix(.09975 0 0 -.09975 .221 200.001)"/><path style="fill-rule:nonzero;fill:#a43b3e;fill-opacity:1;stroke-width:5;stroke-linecap:round;stroke-linejoin:round;stroke:#000;stroke-opacity:1;stroke-miterlimit:10" d="M80.762 1003.446 938.168 872.3l20.716 20.872" transform="matrix(.09975 0 0 -.09975 .221 200.001)"/><path style="fill-rule:nonzero;fill:#042eb1;fill-opacity:1;stroke-width:5;stroke-linecap:round;stroke-linejoin:round;stroke:#000;stroke-opacity:1;stroke-miterlimit:10" d="m969.183 873.044 10.612 41.157-41.627-41.901M938.168 872.3 765.355 84.01l203.828 789.034" transform="matrix(.09975 0 0 -.09975 .221 200.001)"/><path style="stroke:none;fill-rule:nonzero;fill:#590d50;fill-opacity:1" d="M185.363 153.977 107.32 111.66l1.477 5.895"/><path style="fill:none;stroke-width:5;stroke-linecap:round;stroke-linejoin:round;stroke:#000;stroke-opacity:1;stroke-miterlimit:10" d="m1856.037 461.395-782.376 424.219 14.803-59.092Zm0 0" transform="matrix(.09975 0 0 -.09975 .221 200.001)"/><path style="stroke:none;fill-rule:nonzero;fill:#fdbd72;fill-opacity:1" d="m107.32 111.66-30.754 79.961 32.23-74.066"/><path style="fill:none;stroke-width:5;stroke-linecap:round;stroke-linejoin:round;stroke:#000;stroke-opacity:1;stroke-miterlimit:10" d="M1073.661 885.614 765.355 84.01l323.109 742.512Zm0 0" transform="matrix(.09975 0 0 -.09975 .221 200.001)"/><path style="fill-rule:nonzero;fill:#61d0f5;fill-opacity:1;stroke-width:5;stroke-linecap:round;stroke-linejoin:round;stroke:#000;stroke-opacity:1;stroke-miterlimit:10" d="m80.762 1003.446 897.388 7.715-21.38 8.223" transform="matrix(.09975 0 0 -.09975 .221 200.001)"/><path style="fill-rule:nonzero;fill:#a43b3e;fill-opacity:1;stroke-width:5;stroke-linecap:round;stroke-linejoin:round;stroke:#000;stroke-opacity:1;stroke-miterlimit:10" d="m958.884 893.172 20.911 21.029-899.033 89.245" transform="matrix(.09975 0 0 -.09975 .221 200.001)"/><path style="fill-rule:nonzero;fill:#caabbb;fill-opacity:1;stroke-width:5;stroke-linecap:round;stroke-linejoin:round;stroke:#000;stroke-opacity:1;stroke-miterlimit:10" d="m978.973 962.72-.823 48.44-897.388-7.714" transform="matrix(.09975 0 0 -.09975 .221 200.001)"/><path style="fill-rule:nonzero;fill:#d26000;fill-opacity:1;stroke-width:5;stroke-linecap:round;stroke-linejoin:round;stroke:#000;stroke-opacity:1;stroke-miterlimit:10" d="m1073.348 896.461.313-10.847 56.077 79.416" transform="matrix(.09975 0 0 -.09975 .221 200.001)"/><path style="fill-rule:nonzero;fill:#a194c7;fill-opacity:1;stroke-width:5;stroke-linecap:round;stroke-linejoin:round;stroke:#000;stroke-opacity:1;stroke-miterlimit:10" d="M1856.037 461.395 1129.738 965.03l-27.999-39.669" transform="matrix(.09975 0 0 -.09975 .221 200.001)"/><path style="fill-rule:nonzero;fill:#caabbb;fill-opacity:1;stroke-width:5;stroke-linecap:round;stroke-linejoin:round;stroke:#000;stroke-opacity:1;stroke-miterlimit:10" d="m870.265 925.087 109.53-10.886-.822 48.519" transform="matrix(.09975 0 0 -.09975 .221 200.001)"/><path style="stroke:none;fill-rule:nonzero;fill:#caabbb;fill-opacity:1" d="m74.063 106.434 12.968 1.289 10.844-3.754"/><path style="fill:none;stroke-width:5;stroke-linecap:round;stroke-linejoin:round;stroke:#000;stroke-opacity:1;stroke-miterlimit:10" d="m740.254 938.01 130.01-12.923" transform="matrix(.09975 0 0 -.09975 .221 200.001)"/><path style="stroke:none;fill-rule:nonzero;fill:#caabbb;fill-opacity:1" d="m8.277 99.906 65.785 6.528 23.813-2.465"/><path style="fill:none;stroke-width:5;stroke-linecap:round;stroke-linejoin:round;stroke:#000;stroke-opacity:1;stroke-miterlimit:10" d="m80.762 1003.446 659.492-65.436" transform="matrix(.09975 0 0 -.09975 .221 200.001)"/><path style="fill-rule:nonzero;fill:#a194c7;fill-opacity:1;stroke-width:5;stroke-linecap:round;stroke-linejoin:round;stroke:#000;stroke-opacity:1;stroke-miterlimit:10" d="m1101.74 925.361-28.079-39.747 782.376-424.22" transform="matrix(.09975 0 0 -.09975 .221 200.001)"/><path style="stroke:none;fill-rule:nonzero;fill:#3f0000;fill-opacity:1" d="m106.648 88.434-8.691 20.375 9.363 2.851"/><path style="fill:none;stroke-width:5;stroke-linecap:round;stroke-linejoin:round;stroke:#000;stroke-opacity:1;stroke-miterlimit:10" d="M1066.926 1118.459 979.796 914.2l93.865-28.587Zm0 0" transform="matrix(.09975 0 0 -.09975 .221 200.001)"/><path style="fill-rule:nonzero;fill:#b9b0d0;fill-opacity:1;stroke-width:5;stroke-linecap:round;stroke-linejoin:round;stroke:#000;stroke-opacity:1;stroke-miterlimit:10" d="m1026.748 899.907-46.953 14.294-214.44-830.19M765.355 84.01l308.306 801.604-46.913 14.293" transform="matrix(.09975 0 0 -.09975 .221 200.001)"/></svg>