<svg xmlns="http://www.w3.org/2000/svg" width="203pt" height="200pt" viewBox="0 0 203 200" version="1.2"><path style="fill-rule:nonzero;fill:#b296ba;fill-opacity:1;stroke-width:5.86692;stroke-linecap:round;stroke-linejoin:round;stroke:#000;stroke-opacity:1;stroke-miterlimit:10" d="M1013.867 433.008 614.414 771.797l201.29 479.726" transform="matrix(.1 0 0 -.1 0 200)"/><path style="stroke:none;fill-rule:nonzero;fill:#b296ba;fill-opacity:1" d="m146.332 128.852-44.945 27.847L81.57 74.848"/><path style="fill:none;stroke-width:5.86692;stroke-linecap:round;stroke-linejoin:round;stroke:#000;stroke-opacity:1;stroke-miterlimit:10" d="m1463.32 711.484-449.453-278.476" transform="matrix(.1 0 0 -.1 0 200)"/><path style="fill-rule:nonzero;fill:#b296ba;fill-opacity:1;stroke-width:5.86692;stroke-linecap:round;stroke-linejoin:round;stroke:#000;stroke-opacity:1;stroke-miterlimit:10" d="m815.703 1251.523 520.078-35 127.54-505.039" transform="matrix(.1 0 0 -.1 0 200)"/><path style="stroke:none;fill-rule:nonzero;fill:#cca2ad;fill-opacity:1" d="m34.96 80.84 46.61-5.992-20.129 47.972"/><path style="fill:none;stroke-width:5.86692;stroke-linecap:round;stroke-linejoin:round;stroke:#000;stroke-opacity:1;stroke-miterlimit:10" d="m349.61 1191.602 466.093 59.921-201.289-479.726Zm0 0" transform="matrix(.1 0 0 -.1 0 200)"/><path style="stroke:none;fill-rule:nonzero;fill:#af7c9c;fill-opacity:1" d="m109.195 35.305 24.383 43.043-52.008-3.5"/><path style="fill:none;stroke-width:5.86692;stroke-linecap:round;stroke-linejoin:round;stroke:#000;stroke-opacity:1;stroke-miterlimit:10" d="m1091.953 1646.953 243.828-430.43-520.078 35Zm0 0" transform="matrix(.1 0 0 -.1 0 200)"/><path style="fill-rule:nonzero;fill:#c98080;fill-opacity:1;stroke-width:5.86692;stroke-linecap:round;stroke-linejoin:round;stroke:#000;stroke-opacity:1;stroke-miterlimit:10" d="m815.703 1251.523-466.094-59.921-37.89 377.109" transform="matrix(.1 0 0 -.1 0 200)"/><path style="stroke:none;fill-rule:nonzero;fill:#c98080;fill-opacity:1" d="M109.195 35.305 81.57 74.848l-50.398-31.72"/><path style="fill:none;stroke-width:5.86692;stroke-linecap:round;stroke-linejoin:round;stroke:#000;stroke-opacity:1;stroke-miterlimit:10" d="m1091.953 1646.953-276.25-395.43" transform="matrix(.1 0 0 -.1 0 200)"/><path style="stroke:none;fill-rule:nonzero;fill:#9176b0;fill-opacity:1" d="m176.445 90.465-30.113 38.387-12.754-50.504"/><path style="fill:none;stroke-width:5.86692;stroke-linecap:round;stroke-linejoin:round;stroke:#000;stroke-opacity:1;stroke-miterlimit:10" d="M1764.453 1095.352 1463.32 711.484l-127.539 505.04Zm0 0" transform="matrix(.1 0 0 -.1 0 200)"/><path style="fill-rule:nonzero;fill:#80457f;fill-opacity:1;stroke-width:5.86692;stroke-linecap:round;stroke-linejoin:round;stroke:#000;stroke-opacity:1;stroke-miterlimit:10" d="m1335.781 1216.523-243.828 430.43 273.555 183.008" transform="matrix(.1 0 0 -.1 0 200)"/><path style="stroke:none;fill-rule:nonzero;fill:#80457f;fill-opacity:1" d="m176.445 90.465-42.867-12.117 2.973-61.344"/><path style="fill:none;stroke-width:5.86692;stroke-linecap:round;stroke-linejoin:round;stroke:#000;stroke-opacity:1;stroke-miterlimit:10" d="m1764.453 1095.352-428.672 121.171" transform="matrix(.1 0 0 -.1 0 200)"/><path style="stroke:none;fill-rule:nonzero;fill:#c4b9cf;fill-opacity:1" d="m61.441 122.82 39.946 33.88-46.692 9.073"/><path style="fill:none;stroke-width:5.86692;stroke-linecap:round;stroke-linejoin:round;stroke:#000;stroke-opacity:1;stroke-miterlimit:10" d="m614.414 771.797 399.453-338.79-466.914-90.741Zm0 0" transform="matrix(.1 0 0 -.1 0 200)"/><path style="fill-rule:nonzero;fill:#e8cfbc;fill-opacity:1;stroke-width:5.86692;stroke-linecap:round;stroke-linejoin:round;stroke:#000;stroke-opacity:1;stroke-miterlimit:10" d="m349.61 1191.602 264.804-419.805-67.46-429.531" transform="matrix(.1 0 0 -.1 0 200)"/><path style="stroke:none;fill-rule:nonzero;fill:#9c9cd2;fill-opacity:1" d="m143.426 172.367-42.04-15.668 44.946-27.847"/><path style="fill:none;stroke-width:5.86692;stroke-linecap:round;stroke-linejoin:round;stroke:#000;stroke-opacity:1;stroke-miterlimit:10" d="m1434.258 276.328-420.39 156.68 449.452 278.476Zm0 0" transform="matrix(.1 0 0 -.1 0 200)"/><path style="stroke:none;fill-rule:nonzero;fill:#5462c3;fill-opacity:1" d="m146.332 128.852 30.113-38.387-2.62 71.945"/><path style="fill:none;stroke-width:5.86692;stroke-linecap:round;stroke-linejoin:round;stroke:#000;stroke-opacity:1;stroke-miterlimit:10" d="m1463.32 711.484 301.133 383.868" transform="matrix(.1 0 0 -.1 0 200)"/><path style="fill-rule:nonzero;fill:#5462c3;fill-opacity:1;stroke-width:5.86692;stroke-linecap:round;stroke-linejoin:round;stroke:#000;stroke-opacity:1;stroke-miterlimit:10" d="m1738.242 375.898-303.984-99.57 29.062 435.156" transform="matrix(.1 0 0 -.1 0 200)"/><path style="fill-rule:nonzero;fill:#a1cdf6;fill-opacity:1;stroke-width:5.86692;stroke-linecap:round;stroke-linejoin:round;stroke:#000;stroke-opacity:1;stroke-miterlimit:10" d="m546.953 342.266 466.914 90.742 420.39-156.68" transform="matrix(.1 0 0 -.1 0 200)"/><path style="fill-rule:nonzero;fill:#c98080;fill-opacity:1;stroke-width:5.86692;stroke-linecap:round;stroke-linejoin:round;stroke:#000;stroke-opacity:1;stroke-miterlimit:10" d="m311.719 1568.71 485.742 296.876 294.492-218.633" transform="matrix(.1 0 0 -.1 0 200)"/><path style="stroke:none;fill-rule:nonzero;fill:#963346;fill-opacity:1" d="m136.55 17.004-27.355 18.3-29.449-21.863"/><path style="fill:none;stroke-width:5.86692;stroke-linecap:round;stroke-linejoin:round;stroke:#000;stroke-opacity:1;stroke-miterlimit:10" d="m1365.508 1829.96-273.555-183.007-294.492 218.633Zm0 0" transform="matrix(.1 0 0 -.1 0 200)"/><path style="fill-rule:nonzero;fill:#e8cfbc;fill-opacity:1;stroke-width:5.86692;stroke-linecap:round;stroke-linejoin:round;stroke:#000;stroke-opacity:1;stroke-miterlimit:10" d="M213.203 487.852 86.914 1045.82l262.695 145.782" transform="matrix(.1 0 0 -.1 0 200)"/><path style="stroke:none;fill-rule:nonzero;fill:#e8cfbc;fill-opacity:1" d="M54.695 165.773 21.32 151.215 34.96 80.84"/><path style="fill:none;stroke-width:5.86692;stroke-linecap:round;stroke-linejoin:round;stroke:#000;stroke-opacity:1;stroke-miterlimit:10" d="m546.953 342.266-333.75 145.586" transform="matrix(.1 0 0 -.1 0 200)"/><path style="stroke:none;fill-rule:nonzero;fill:#f2aa78;fill-opacity:1" d="m31.172 43.129 3.789 37.71L8.69 95.419"/><path style="fill:none;stroke-width:5.86692;stroke-linecap:round;stroke-linejoin:round;stroke:#000;stroke-opacity:1;stroke-miterlimit:10" d="m311.719 1568.71 37.89-377.108L86.914 1045.82Zm0 0" transform="matrix(.1 0 0 -.1 0 200)"/><path style="fill-rule:nonzero;fill:#5462c3;fill-opacity:1;stroke-width:5.86692;stroke-linecap:round;stroke-linejoin:round;stroke:#000;stroke-opacity:1;stroke-miterlimit:10" d="m1764.453 1095.352 189.414-178.829-215.625-540.625" transform="matrix(.1 0 0 -.1 0 200)"/><path style="stroke:none;fill-rule:nonzero;fill:#13006e;fill-opacity:1" d="m180.773 52.883 14.614 55.465-18.942-17.883"/><path style="fill:none;stroke-width:5.86692;stroke-linecap:round;stroke-linejoin:round;stroke:#000;stroke-opacity:1;stroke-miterlimit:10" d="m1807.734 1471.172 146.133-554.649-189.414 178.829Zm0 0" transform="matrix(.1 0 0 -.1 0 200)"/><path style="fill-rule:nonzero;fill:#80457f;fill-opacity:1;stroke-width:5.86692;stroke-linecap:round;stroke-linejoin:round;stroke:#000;stroke-opacity:1;stroke-miterlimit:10" d="m1365.508 1829.96 442.226-358.788-43.28-375.82" transform="matrix(.1 0 0 -.1 0 200)"/><path style="stroke:none;fill-rule:nonzero;fill:#a1cdf6;fill-opacity:1" d="m65.23 189.066-10.535-23.293 88.73 6.594"/><path style="fill:none;stroke-width:5.86692;stroke-linecap:round;stroke-linejoin:round;stroke:#000;stroke-opacity:1;stroke-miterlimit:10" d="m652.305 109.336-105.352 232.93" transform="matrix(.1 0 0 -.1 0 200)"/><path style="stroke:none;fill-rule:nonzero;fill:#ccfde0;fill-opacity:1" d="m21.32 151.215 33.375 14.558 10.535 23.293"/><path style="fill:none;stroke-width:5.86692;stroke-linecap:round;stroke-linejoin:round;stroke:#000;stroke-opacity:1;stroke-miterlimit:10" d="m213.203 487.852 333.75-145.586 105.352-232.93Zm0 0" transform="matrix(.1 0 0 -.1 0 200)"/><path style="fill-rule:nonzero;fill:#a1cdf6;fill-opacity:1;stroke-width:5.86692;stroke-linecap:round;stroke-linejoin:round;stroke:#000;stroke-opacity:1;stroke-miterlimit:10" d="M1434.258 276.328 1238.32 64.805l-586.015 44.53" transform="matrix(.1 0 0 -.1 0 200)"/><path style="stroke:none;fill-rule:nonzero;fill:#0d76e1;fill-opacity:1" d="m173.824 162.41-49.992 31.11 19.594-21.153"/><path style="fill:none;stroke-width:5.86692;stroke-linecap:round;stroke-linejoin:round;stroke:#000;stroke-opacity:1;stroke-miterlimit:10" d="M1738.242 375.898 1238.32 64.805l195.938 211.523Zm0 0" transform="matrix(.1 0 0 -.1 0 200)"/><path style="stroke:none;fill-rule:nonzero;fill:#8b0000;fill-opacity:1" d="m55.082 24.16 24.664-10.719L31.172 43.13"/><path style="fill:none;stroke-width:5.86692;stroke-linecap:round;stroke-linejoin:round;stroke:#000;stroke-opacity:1;stroke-miterlimit:10" d="m550.82 1758.398 246.64 107.188-485.74-296.876Zm0 0" transform="matrix(.1 0 0 -.1 0 200)"/><path style="fill-rule:nonzero;fill:#7ed5fe;fill-opacity:1;stroke-width:5.86692;stroke-linecap:round;stroke-linejoin:round;stroke:#000;stroke-opacity:1;stroke-miterlimit:10" d="m797.46 1865.586-246.64-107.188 463.047-114.765" transform="matrix(.1 0 0 -.1 0 200)"/><path style="stroke:none;fill-rule:nonzero;fill:#7ed5fe;fill-opacity:1" d="M136.55 17.004 79.747 13.44l21.64 22.196"/><path style="fill:none;stroke-width:5.86692;stroke-linecap:round;stroke-linejoin:round;stroke:#000;stroke-opacity:1;stroke-miterlimit:10" d="m1365.508 1829.96-568.047 35.626" transform="matrix(.1 0 0 -.1 0 200)"/><path style="fill-rule:nonzero;fill:#1239b7;fill-opacity:1;stroke-width:5.86692;stroke-linecap:round;stroke-linejoin:round;stroke:#000;stroke-opacity:1;stroke-miterlimit:10" d="m550.82 1758.398-239.1-189.687L86.914 1045.82" transform="matrix(.1 0 0 -.1 0 200)"/><path style="stroke:none;fill-rule:nonzero;fill:#000;fill-opacity:1" d="m153.54 30.426 27.233 22.457-44.222-35.88"/><path style="fill:none;stroke-width:5.86692;stroke-linecap:round;stroke-linejoin:round;stroke:#000;stroke-opacity:1;stroke-miterlimit:10" d="m1535.39 1695.742 272.344-224.57-442.226 358.789Zm0 0" transform="matrix(.1 0 0 -.1 0 200)"/><path style="fill-rule:nonzero;fill:#7ed5fe;fill-opacity:1;stroke-width:5.86692;stroke-linecap:round;stroke-linejoin:round;stroke:#000;stroke-opacity:1;stroke-miterlimit:10" d="m1013.867 1643.633 521.524 52.11-169.883 134.218" transform="matrix(.1 0 0 -.1 0 200)"/><path style="stroke:none;fill-rule:nonzero;fill:#000005;fill-opacity:1" d="M16.379 114.719 8.69 95.418l12.63 55.797"/><path style="fill:none;stroke-width:5.86692;stroke-linecap:round;stroke-linejoin:round;stroke:#000;stroke-opacity:1;stroke-miterlimit:10" d="M163.79 852.813 86.913 1045.82l126.29-557.968Zm0 0" transform="matrix(.1 0 0 -.1 0 200)"/><path style="stroke:none;fill-rule:nonzero;fill:#1239b7;fill-opacity:1" d="m8.691 95.418 7.688 19.3L55.082 24.16"/><path style="fill:none;stroke-width:5.86692;stroke-linecap:round;stroke-linejoin:round;stroke:#000;stroke-opacity:1;stroke-miterlimit:10" d="m86.914 1045.82 76.875-193.007" transform="matrix(.1 0 0 -.1 0 200)"/><path style="fill-rule:nonzero;fill:#f5e1b6;fill-opacity:1;stroke-width:5.86692;stroke-linecap:round;stroke-linejoin:round;stroke:#000;stroke-opacity:1;stroke-miterlimit:10" d="m1807.734 1471.172-272.343 224.57-30.04-455.976" transform="matrix(.1 0 0 -.1 0 200)"/><path style="stroke:none;fill-rule:nonzero;fill:#f5e1b6;fill-opacity:1" d="m195.387 108.348-14.614-55.465-30.238 23.14"/><path style="fill:none;stroke-width:5.86692;stroke-linecap:round;stroke-linejoin:round;stroke:#000;stroke-opacity:1;stroke-miterlimit:10" d="m1953.867 916.523-146.133 554.649" transform="matrix(.1 0 0 -.1 0 200)"/><path style="stroke:none;fill-rule:nonzero;fill:#631f62;fill-opacity:1" d="m21.32 151.215 43.91 37.851-3.796-58.078"/><path style="fill:none;stroke-width:5.86692;stroke-linecap:round;stroke-linejoin:round;stroke:#000;stroke-opacity:1;stroke-miterlimit:10" d="m213.203 487.852 439.102-378.516" transform="matrix(.1 0 0 -.1 0 200)"/><path style="fill-rule:nonzero;fill:#631f62;fill-opacity:1;stroke-width:5.86692;stroke-linecap:round;stroke-linejoin:round;stroke:#000;stroke-opacity:1;stroke-miterlimit:10" d="M614.336 690.117 163.789 852.813l49.414-364.961" transform="matrix(.1 0 0 -.1 0 200)"/><path style="stroke:none;fill-rule:nonzero;fill:#f19a31;fill-opacity:1" d="m178.352 126.168-4.528 36.242 21.563-54.062"/><path style="fill:none;stroke-width:5.86692;stroke-linecap:round;stroke-linejoin:round;stroke:#000;stroke-opacity:1;stroke-miterlimit:10" d="m1783.516 738.32-45.274-362.422 215.625 540.625Zm0 0" transform="matrix(.1 0 0 -.1 0 200)"/><path style="fill-rule:nonzero;fill:#f5e1b6;fill-opacity:1;stroke-width:5.86692;stroke-linecap:round;stroke-linejoin:round;stroke:#000;stroke-opacity:1;stroke-miterlimit:10" d="m1505.352 1239.766 278.164-501.446 170.351 178.203" transform="matrix(.1 0 0 -.1 0 200)"/><path style="stroke:none;fill-rule:nonzero;fill:#690000;fill-opacity:1" d="m92.258 179.59-27.028 9.476 58.602 4.454"/><path style="fill:none;stroke-width:5.86692;stroke-linecap:round;stroke-linejoin:round;stroke:#000;stroke-opacity:1;stroke-miterlimit:10" d="m922.578 204.102-270.273-94.766 586.015-44.531Zm0 0" transform="matrix(.1 0 0 -.1 0 200)"/><path style="fill-rule:nonzero;fill:#631f62;fill-opacity:1;stroke-width:5.86692;stroke-linecap:round;stroke-linejoin:round;stroke:#000;stroke-opacity:1;stroke-miterlimit:10" d="m652.305 109.336 270.273 94.766-308.242 486.015" transform="matrix(.1 0 0 -.1 0 200)"/><path style="fill-rule:nonzero;fill:#cd7567;fill-opacity:1;stroke-width:5.86692;stroke-linecap:round;stroke-linejoin:round;stroke:#000;stroke-opacity:1;stroke-miterlimit:10" d="m1238.32 64.805 499.922 311.093 45.274 362.422" transform="matrix(.1 0 0 -.1 0 200)"/><path style="stroke:none;fill-rule:nonzero;fill:#cd7567;fill-opacity:1" d="m92.258 179.59 31.574 13.93 54.52-67.352"/><path style="fill:none;stroke-width:5.86692;stroke-linecap:round;stroke-linejoin:round;stroke:#000;stroke-opacity:1;stroke-miterlimit:10" d="M922.578 204.102 1238.32 64.805" transform="matrix(.1 0 0 -.1 0 200)"/><path style="fill-rule:nonzero;fill:#1239b7;fill-opacity:1;stroke-width:5.86692;stroke-linecap:round;stroke-linejoin:round;stroke:#000;stroke-opacity:1;stroke-miterlimit:10" d="m163.79 852.813 304.843 456.523 82.187 449.062" transform="matrix(.1 0 0 -.1 0 200)"/><path style="stroke:none;fill-rule:nonzero;fill:#919ddb;fill-opacity:1" d="M101.387 35.637 55.082 24.16l-8.219 44.906"/><path style="fill:none;stroke-width:5.86692;stroke-linecap:round;stroke-linejoin:round;stroke:#000;stroke-opacity:1;stroke-miterlimit:10" d="M1013.867 1643.633 550.82 1758.398l-82.187-449.062Zm0 0" transform="matrix(.1 0 0 -.1 0 200)"/><path style="stroke:none;fill-rule:nonzero;fill:#c7c4d7;fill-opacity:1" d="m101.387 35.637 49.148 40.386 3.004-45.597"/><path style="fill:none;stroke-width:5.86692;stroke-linecap:round;stroke-linejoin:round;stroke:#000;stroke-opacity:1;stroke-miterlimit:10" d="m1013.867 1643.633 491.485-403.867 30.039 455.976Zm0 0" transform="matrix(.1 0 0 -.1 0 200)"/><path style="stroke:none;fill-rule:nonzero;fill:#856bad;fill-opacity:1" d="M46.863 69.066 16.38 114.72l45.055 16.27"/><path style="fill:none;stroke-width:5.86692;stroke-linecap:round;stroke-linejoin:round;stroke:#000;stroke-opacity:1;stroke-miterlimit:10" d="M468.633 1309.336 163.789 852.812l450.547-162.695Zm0 0" transform="matrix(.1 0 0 -.1 0 200)"/><path style="fill-rule:nonzero;fill:#cd7567;fill-opacity:1;stroke-width:5.86692;stroke-linecap:round;stroke-linejoin:round;stroke:#000;stroke-opacity:1;stroke-miterlimit:10" d="m1783.516 738.32-521.524-94.648-339.414-439.57" transform="matrix(.1 0 0 -.1 0 200)"/><path style="stroke:none;fill-rule:nonzero;fill:#d2a5aa;fill-opacity:1" d="m150.535 76.023-24.336 59.61 52.153-9.465"/><path style="fill:none;stroke-width:5.86692;stroke-linecap:round;stroke-linejoin:round;stroke:#000;stroke-opacity:1;stroke-miterlimit:10" d="m1505.352 1239.766-243.36-596.094 521.524 94.648Zm0 0" transform="matrix(.1 0 0 -.1 0 200)"/><path style="stroke:none;fill-rule:nonzero;fill:#ad7594;fill-opacity:1" d="m126.2 135.633-64.766-4.645 30.824 48.602"/><path style="fill:none;stroke-width:5.86692;stroke-linecap:round;stroke-linejoin:round;stroke:#000;stroke-opacity:1;stroke-miterlimit:10" d="m1261.992 643.672-647.656 46.445 308.242-486.015Zm0 0" transform="matrix(.1 0 0 -.1 0 200)"/><path style="fill-rule:nonzero;fill:#b297bc;fill-opacity:1;stroke-width:5.86692;stroke-linecap:round;stroke-linejoin:round;stroke:#000;stroke-opacity:1;stroke-miterlimit:10" d="m1261.992 643.672 243.36 596.094-491.485 403.867" transform="matrix(.1 0 0 -.1 0 200)"/><path style="stroke:none;fill-rule:nonzero;fill:#b297bc;fill-opacity:1" d="m61.434 130.988 64.765 4.645-24.812-99.996"/><path style="fill:none;stroke-width:5.86692;stroke-linecap:round;stroke-linejoin:round;stroke:#000;stroke-opacity:1;stroke-miterlimit:10" d="m614.336 690.117 647.656-46.445" transform="matrix(.1 0 0 -.1 0 200)"/><path style="fill-rule:nonzero;fill:#b297bc;fill-opacity:1;stroke-width:5.86692;stroke-linecap:round;stroke-linejoin:round;stroke:#000;stroke-opacity:1;stroke-miterlimit:10" d="m1013.867 1643.633-545.234-334.297 145.703-619.219" transform="matrix(.1 0 0 -.1 0 200)"/></svg>