<svg xmlns="http://www.w3.org/2000/svg" width="223.8" height="249" viewBox="0 0 167.85 186.75" version="1.2"><defs><clipPath id="a"><path d="M55 125h32v61.5H55Zm0 0"/></clipPath><clipPath id="b"><path d="M52 122h38v64.5H52Zm0 0"/></clipPath><clipPath id="c"><path d="M81 125h32v61.5H81Zm0 0"/></clipPath><clipPath id="d"><path d="M78 122h38v64.5H78Zm0 0"/></clipPath><clipPath id="e"><path d="M121 47h46.664v31H121Zm0 0"/></clipPath><clipPath id="f"><path d="M121 22h46.664v32H121Zm0 0"/></clipPath><clipPath id="g"><path d="M86 153h51v33.5H86Zm0 0"/></clipPath><clipPath id="h"><path d="M83 149h57v37.5H83Zm0 0"/></clipPath><clipPath id="i"><path d="M7 135h80v51.5H7Zm0 0"/></clipPath><clipPath id="j"><path d="M4 131h86v55.5H4Zm0 0"/></clipPath><clipPath id="k"><path d="M154 47h13.664v86H154Zm0 0"/></clipPath><clipPath id="l"><path d="M159 50h8.664v80H159Zm0 0"/></clipPath><clipPath id="m"><path d="M156 47h11.664v86H156Zm0 0"/></clipPath><clipPath id="n"><path d="M142 110h25.664v35H142Zm0 0"/></clipPath><clipPath id="o"><path d="M139 106h28.664v42H139Zm0 0"/></clipPath><clipPath id="p"><path d="M7 135h80v51.5H7Zm0 0"/></clipPath><clipPath id="q"><path d="M4 131h86v55.5H4Zm0 0"/></clipPath><clipPath id="r"><path d="M.04 55H8v81H.04Zm0 0"/></clipPath><clipPath id="s"><path d="M.04 52H11v87H.04Zm0 0"/></clipPath><clipPath id="t"><path d="M.04 55H8v81H.04Zm0 0"/></clipPath><clipPath id="u"><path d="M.04 52H11v87H.04Zm0 0"/></clipPath><clipPath id="v"><path d="M.04 112H38v40H.04Zm0 0"/></clipPath><clipPath id="w"><path d="M.04 28H33v52H.04Zm0 0"/></clipPath><clipPath id="x"><path d="M.04 25H36v58H.04Zm0 0"/></clipPath><clipPath id="y"><path d="M113 21h54.664v33H113Zm0 0"/></clipPath><clipPath id="z"><path d="M.04 0H81v56H.04Zm0 0"/></clipPath><clipPath id="A"><path d="M.04 0H85v59H.04Zm0 0"/></clipPath><clipPath id="B"><path d="M34 148h53v38.5H34Zm0 0"/></clipPath><clipPath id="C"><path d="M31 144h59v42.5H31Zm0 0"/></clipPath><clipPath id="D"><path d="M34 148h55v38.5H34Zm0 0"/></clipPath><clipPath id="E"><path d="M31 144h61v42.5H31Zm0 0"/></clipPath><clipPath id="F"><path d="M86 144h57v42.5H86Zm0 0"/></clipPath><clipPath id="G"><path d="M83 140h63v46.5H83Zm0 0"/></clipPath><clipPath id="H"><path d="M86 144h57v42.5H86Zm0 0"/></clipPath><clipPath id="I"><path d="M83 140h63v46.5H83Zm0 0"/></clipPath><clipPath id="J"><path d="M.04 0H81v56H.04Zm0 0"/></clipPath><clipPath id="K"><path d="M.04 0H85v59H.04Zm0 0"/></clipPath><clipPath id="L"><path d="M141 80h26.664v65H141Zm0 0"/></clipPath><clipPath id="M"><path d="M138 77h29.664v71H138Zm0 0"/></clipPath><clipPath id="N"><path d="M141 50h26.664v61H141Zm0 0"/></clipPath><clipPath id="O"><path d="M138 47h29.664v67H138Zm0 0"/></clipPath><clipPath id="P"><path d="M113 21h54.664v63H113Zm0 0"/></clipPath><clipPath id="Q"><path d="M.04 55H35v94H.04Zm0 0"/></clipPath><clipPath id="R"><path d="M.04 52H38v100H.04Zm0 0"/></clipPath><clipPath id="S"><path d="M.04 55H35v94H.04Zm0 0"/></clipPath><clipPath id="T"><path d="M.04 52H38v100H.04Zm0 0"/></clipPath><clipPath id="U"><path d="M.04 26H52v59H.04Zm0 0"/></clipPath><clipPath id="V"><path d="M.04 23H55v65H.04Zm0 0"/></clipPath></defs><g clip-path="url(#a)"><path style="stroke:none;fill-rule:evenodd;fill:#acabc9;fill-opacity:1" d="M81.348 125.355 55.512 155.18l31.082 31.058-5.246-60.883"/></g><g clip-path="url(#b)"><path style="fill:none;stroke-width:5.664;stroke-linecap:butt;stroke-linejoin:miter;stroke:#231f20;stroke-opacity:1;stroke-miterlimit:4" d="M814.192 612.267 555.487 313.626 866.723 2.624" transform="matrix(.09987 0 0 -.09987 .037 186.5)"/></g><g clip-path="url(#c)"><path style="stroke:none;fill-rule:evenodd;fill:#acabc9;fill-opacity:1" d="m86.594 186.238 25.43-33.207-30.676-27.676 5.246 60.883"/></g><g clip-path="url(#d)"><path style="fill:none;stroke-width:5.664;stroke-linecap:butt;stroke-linejoin:miter;stroke:#231f20;stroke-opacity:1;stroke-miterlimit:4" d="m866.723 2.624 254.638 332.515-307.169 277.128" transform="matrix(.09987 0 0 -.09987 .037 186.5)"/></g><path style="stroke:none;fill-rule:evenodd;fill:#ceb8ba;fill-opacity:1" d="m55.512 155.18 25.836-29.825-44.578-19.859 18.742 49.684"/><path style="fill:none;stroke-width:5.664;stroke-linecap:butt;stroke-linejoin:miter;stroke:#231f20;stroke-opacity:1;stroke-miterlimit:4" d="m555.487 313.626 258.705 298.641-446.378 198.86" transform="matrix(.09987 0 0 -.09987 .037 186.5)"/><path style="stroke:none;fill-rule:evenodd;fill:#9785a8;fill-opacity:1" d="m81.348 125.355 30.675 27.676 47.29-23.547-77.965-4.129"/><path style="fill:none;stroke-width:5.664;stroke-linecap:butt;stroke-linejoin:miter;stroke:#231f20;stroke-opacity:1;stroke-miterlimit:4" d="m814.192 612.267 307.169-277.128 473.523 235.784" transform="matrix(.09987 0 0 -.09987 .037 186.5)"/><path style="stroke:none;fill-rule:evenodd;fill:#9785a8;fill-opacity:1" d="m159.313 129.484-33.786-27.047-44.18 22.918 77.966 4.13"/><path style="fill:none;stroke-width:5.664;stroke-linecap:butt;stroke-linejoin:miter;stroke:#231f20;stroke-opacity:1;stroke-miterlimit:4" d="m1594.884 570.923-338.304 270.83-442.388-229.486" transform="matrix(.09987 0 0 -.09987 .037 186.5)"/><path style="stroke:none;fill-rule:evenodd;fill:#c49799;fill-opacity:1" d="M81.348 125.355 36.77 105.496 34.89 53.02l46.458 72.335"/><path style="fill:none;stroke-width:5.664;stroke-linecap:butt;stroke-linejoin:miter;stroke:#231f20;stroke-opacity:1;stroke-miterlimit:4" d="m814.192 612.267-446.378 198.86L349 1336.595" transform="matrix(.09987 0 0 -.09987 .037 186.5)"/><path style="stroke:none;fill-rule:evenodd;fill:#c49799;fill-opacity:1" d="m34.89 53.02 44.9 21.406 1.558 50.93L34.89 53.02"/><path style="fill:none;stroke-width:5.664;stroke-linecap:butt;stroke-linejoin:miter;stroke:#231f20;stroke-opacity:1;stroke-miterlimit:4" d="m349 1336.595 449.585-214.35 15.607-509.978" transform="matrix(.09987 0 0 -.09987 .037 186.5)"/><path style="stroke:none;fill-rule:evenodd;fill:#a97f93;fill-opacity:1" d="m81.348 125.355 44.18-22.918-1.317-52.171-42.863 75.09"/><path style="fill:none;stroke-width:5.664;stroke-linecap:butt;stroke-linejoin:miter;stroke:#231f20;stroke-opacity:1;stroke-miterlimit:4" d="m814.192 612.267 442.388 229.487-13.181 522.417" transform="matrix(.09987 0 0 -.09987 .037 186.5)"/><path style="stroke:none;fill-rule:evenodd;fill:#a97f93;fill-opacity:1" d="m124.21 50.266-44.42 24.16 1.558 50.93 42.863-75.09"/><path style="fill:none;stroke-width:5.664;stroke-linecap:butt;stroke-linejoin:miter;stroke:#231f20;stroke-opacity:1;stroke-miterlimit:4" d="m1243.399 1364.17-444.814-241.924 15.607-509.979" transform="matrix(.09987 0 0 -.09987 .037 186.5)"/><path style="stroke:none;fill-rule:evenodd;fill:#b5777b;fill-opacity:1" d="m34.89 53.02 44.9 21.406 44.42-24.16-89.32 2.754"/><path style="fill:none;stroke-width:5.664;stroke-linecap:butt;stroke-linejoin:miter;stroke:#231f20;stroke-opacity:1;stroke-miterlimit:4" d="m349 1336.595 449.585-214.35 444.814 241.926" transform="matrix(.09987 0 0 -.09987 .037 186.5)"/><path style="stroke:none;fill-rule:evenodd;fill:#826086;fill-opacity:1" d="m159.313 129.484-33.786-27.047-1.316-52.171 35.102 79.218"/><path style="fill:none;stroke-width:5.664;stroke-linecap:butt;stroke-linejoin:miter;stroke:#231f20;stroke-opacity:1;stroke-miterlimit:4" d="m1594.884 570.923-338.304 270.83-13.181 522.418" transform="matrix(.09987 0 0 -.09987 .037 186.5)"/><path style="stroke:none;fill-rule:evenodd;fill:#ceb8ba;fill-opacity:1" d="m36.77 105.496-29.24 29.52 47.98 20.164-18.741-49.684"/><path style="fill:none;stroke-width:5.664;stroke-linecap:butt;stroke-linejoin:miter;stroke:#231f20;stroke-opacity:1;stroke-miterlimit:4" d="M367.814 811.127 75.04 515.537l480.447-201.911" transform="matrix(.09987 0 0 -.09987 .037 186.5)"/><path style="stroke:none;fill-rule:evenodd;fill:#e4b799;fill-opacity:1" d="m7.531 135.016 29.239-29.52-1.88-52.476-27.359 81.996"/><path style="fill:none;stroke-width:5.664;stroke-linecap:butt;stroke-linejoin:miter;stroke:#231f20;stroke-opacity:1;stroke-miterlimit:4" d="m75.04 515.536 292.774 295.59L349 1336.596" transform="matrix(.09987 0 0 -.09987 .037 186.5)"/><path style="stroke:none;fill-rule:evenodd;fill:#b5777b;fill-opacity:1" d="M124.21 50.266 79.587 27.703 34.89 53.02l89.32-2.754"/><path style="fill:none;stroke-width:5.664;stroke-linecap:butt;stroke-linejoin:miter;stroke:#231f20;stroke-opacity:1;stroke-miterlimit:4" d="M1243.399 1364.17 796.55 1590.099 349 1336.595" transform="matrix(.09987 0 0 -.09987 .037 186.5)"/><path style="stroke:none;fill-rule:evenodd;fill:#826086;fill-opacity:1" d="m124.21 50.266 33.942 24.347 1.16 54.871-35.101-79.218"/><path style="fill:none;stroke-width:5.664;stroke-linecap:butt;stroke-linejoin:miter;stroke:#231f20;stroke-opacity:1;stroke-miterlimit:4" d="m1243.399 1364.17 339.868-243.802 11.617-549.445" transform="matrix(.09987 0 0 -.09987 .037 186.5)"/><path style="stroke:none;fill-rule:evenodd;fill:#5c2d51;fill-opacity:1" d="m124.21 50.266 33.942 24.347 8.024-24.183-41.965-.164"/><g clip-path="url(#e)"><path style="fill:none;stroke-width:5.664;stroke-linecap:butt;stroke-linejoin:miter;stroke:#231f20;stroke-opacity:1;stroke-miterlimit:4" d="m1243.399 1364.17 339.868-243.802 80.342 242.16" transform="matrix(.09987 0 0 -.09987 .037 186.5)"/></g><path style="stroke:none;fill-rule:evenodd;fill:#5c2d51;fill-opacity:1" d="m166.176 50.43-37.074-24.907-4.891 24.743 41.965.164"/><g clip-path="url(#f)"><path style="fill:none;stroke-width:5.664;stroke-linecap:butt;stroke-linejoin:miter;stroke:#231f20;stroke-opacity:1;stroke-miterlimit:4" d="m1663.609 1362.528-371.239 249.396-48.971-247.753" transform="matrix(.09987 0 0 -.09987 .037 186.5)"/></g><path style="stroke:none;fill-rule:evenodd;fill:#913e4d;fill-opacity:1" d="M124.21 50.266 79.587 27.703 80.992.36l43.219 49.907"/><path style="fill:none;stroke-width:5.664;stroke-linecap:butt;stroke-linejoin:miter;stroke:#231f20;stroke-opacity:1;stroke-miterlimit:4" d="M1243.399 1364.17 796.55 1590.099l14.082 273.803" transform="matrix(.09987 0 0 -.09987 .037 186.5)"/><path style="stroke:none;fill-rule:evenodd;fill:#913e4d;fill-opacity:1" d="m80.992.36 48.11 25.163-4.891 24.743L80.992.359"/><path style="fill:none;stroke-width:5.664;stroke-linecap:butt;stroke-linejoin:miter;stroke:#231f20;stroke-opacity:1;stroke-miterlimit:4" d="m810.633 1863.901 481.737-251.977-48.971-247.753" transform="matrix(.09987 0 0 -.09987 .037 186.5)"/><path style="stroke:none;fill-rule:evenodd;fill:#e4b799;fill-opacity:1" d="M34.89 53.02 5.345 79.594l2.187 55.422 27.36-81.996"/><path style="fill:none;stroke-width:5.664;stroke-linecap:butt;stroke-linejoin:miter;stroke:#231f20;stroke-opacity:1;stroke-miterlimit:4" d="M349 1336.595 53.136 1070.497l21.904-554.96" transform="matrix(.09987 0 0 -.09987 .037 186.5)"/><path style="stroke:none;fill-rule:evenodd;fill:#e68d42;fill-opacity:1" d="M5.344 79.594 34.89 53.02l-2.184-24.692L5.344 79.594"/><path style="fill:none;stroke-width:5.664;stroke-linecap:butt;stroke-linejoin:miter;stroke:#231f20;stroke-opacity:1;stroke-miterlimit:4" d="M53.136 1070.497 349 1336.595l-21.865 247.245" transform="matrix(.09987 0 0 -.09987 .037 186.5)"/><path style="stroke:none;fill-rule:evenodd;fill:#bd5e49;fill-opacity:1" d="m34.89 53.02 44.696-25.317L80.992.36 34.891 53.02"/><path style="fill:none;stroke-width:5.664;stroke-linecap:butt;stroke-linejoin:miter;stroke:#231f20;stroke-opacity:1;stroke-miterlimit:4" d="m349 1336.595 447.551 253.503 14.082 273.803" transform="matrix(.09987 0 0 -.09987 .037 186.5)"/><path style="stroke:none;fill-rule:evenodd;fill:#bd5e49;fill-opacity:1" d="M80.992.36 32.707 28.327l2.184 24.692L80.992.36"/><path style="fill:none;stroke-width:5.664;stroke-linecap:butt;stroke-linejoin:miter;stroke:#231f20;stroke-opacity:1;stroke-miterlimit:4" d="M810.633 1863.901 327.135 1583.84 349 1336.595" transform="matrix(.09987 0 0 -.09987 .037 186.5)"/><g clip-path="url(#g)"><path style="stroke:none;fill-rule:evenodd;fill:#5f80be;fill-opacity:1" d="m112.023 153.031-25.43 33.207 49.637-24.23-24.207-8.977"/></g><g clip-path="url(#h)"><path style="fill:none;stroke-width:5.664;stroke-linecap:butt;stroke-linejoin:miter;stroke:#231f20;stroke-opacity:1;stroke-miterlimit:4" d="M1121.36 335.139 866.724 2.624l497.032 242.63" transform="matrix(.09987 0 0 -.09987 .037 186.5)"/></g><path style="stroke:none;fill-rule:evenodd;fill:#5f80be;fill-opacity:1" d="m136.23 162.008 23.083-32.524-47.29 23.547 24.207 8.977"/><path style="fill:none;stroke-width:5.664;stroke-linecap:butt;stroke-linejoin:miter;stroke:#231f20;stroke-opacity:1;stroke-miterlimit:4" d="m1363.755 245.253 231.13 325.67-473.524-235.784" transform="matrix(.09987 0 0 -.09987 .037 186.5)"/><g clip-path="url(#i)"><path style="stroke:none;fill-rule:evenodd;fill:#c2e0e8;fill-opacity:1" d="M86.594 186.238 55.512 155.18l-47.98-20.164 79.062 51.222"/></g><g clip-path="url(#j)"><path style="fill:none;stroke-width:5.664;stroke-linecap:butt;stroke-linejoin:miter;stroke:#231f20;stroke-opacity:1;stroke-miterlimit:4" d="M866.723 2.624 555.487 313.626 75.04 515.536" transform="matrix(.09987 0 0 -.09987 .037 186.5)"/></g><path style="stroke:none;fill-rule:evenodd;fill:#bd5c23;fill-opacity:1" d="m159.313 129.484-23.083 32.524 6.563-17.88 16.52-14.644"/><path style="fill:none;stroke-width:5.664;stroke-linecap:butt;stroke-linejoin:miter;stroke:#231f20;stroke-opacity:1;stroke-miterlimit:4" d="m1594.884 570.923-231.13-325.67 65.714 179.029" transform="matrix(.09987 0 0 -.09987 .037 186.5)"/><path style="stroke:none;fill-rule:evenodd;fill:#333456;fill-opacity:1" d="m159.313 129.484-1.16-54.87 8.023-24.184-6.863 79.054"/><g clip-path="url(#k)"><path style="fill:none;stroke-width:5.664;stroke-linecap:butt;stroke-linejoin:miter;stroke:#231f20;stroke-opacity:1;stroke-miterlimit:4" d="m1594.884 570.923-11.617 549.445 80.342 242.16" transform="matrix(.09987 0 0 -.09987 .037 186.5)"/></g><g clip-path="url(#l)"><path style="stroke:none;fill-rule:evenodd;fill:#333456;fill-opacity:1" d="m166.176 50.43 1.199 59.605-8.063 19.45 6.864-79.055"/></g><g clip-path="url(#m)"><path style="fill:none;stroke-width:5.664;stroke-linecap:butt;stroke-linejoin:miter;stroke:#231f20;stroke-opacity:1;stroke-miterlimit:4" d="m1663.609 1362.528 12.008-596.853-80.733-194.752" transform="matrix(.09987 0 0 -.09987 .037 186.5)"/></g><g clip-path="url(#n)"><path style="stroke:none;fill-rule:evenodd;fill:#bd5c23;fill-opacity:1" d="m142.793 144.129 24.582-34.094-8.063 19.45-16.519 14.644"/></g><g clip-path="url(#o)"><path style="fill:none;stroke-width:5.664;stroke-linecap:butt;stroke-linejoin:miter;stroke:#231f20;stroke-opacity:1;stroke-miterlimit:4" d="m1429.468 424.282 246.15 341.393-80.734-194.752" transform="matrix(.09987 0 0 -.09987 .037 186.5)"/></g><g clip-path="url(#p)"><path style="stroke:none;fill-rule:evenodd;fill:#c2e0e8;fill-opacity:1" d="m7.531 135.016 29.235 30.84 49.828 20.382L7.53 135.016"/></g><g clip-path="url(#q)"><path style="fill:none;stroke-width:5.664;stroke-linecap:butt;stroke-linejoin:miter;stroke:#231f20;stroke-opacity:1;stroke-miterlimit:4" d="m75.04 515.536 292.735-308.811L866.723 2.624" transform="matrix(.09987 0 0 -.09987 .037 186.5)"/></g><path style="stroke:none;fill-rule:evenodd;fill:#231f20;fill-opacity:1" d="m7.531 135.016 29.235 30.84-2.29-17.672-26.945-13.168"/><path style="fill:none;stroke-width:5.664;stroke-linecap:butt;stroke-linejoin:miter;stroke:#231f20;stroke-opacity:1;stroke-miterlimit:4" d="m75.04 515.536 292.735-308.811-22.921 176.955" transform="matrix(.09987 0 0 -.09987 .037 186.5)"/><g clip-path="url(#r)"><path style="stroke:none;fill-rule:evenodd;fill:#d8af3a;fill-opacity:1" d="m7.531 135.016-4.61-19.207L.517 55.555l7.015 79.46"/></g><g clip-path="url(#s)"><path style="fill:none;stroke-width:5.664;stroke-linecap:butt;stroke-linejoin:miter;stroke:#231f20;stroke-opacity:1;stroke-miterlimit:4" d="M75.04 515.536 28.884 707.864 4.79 1311.209" transform="matrix(.09987 0 0 -.09987 .037 186.5)"/></g><g clip-path="url(#t)"><path style="stroke:none;fill-rule:evenodd;fill:#d8af3a;fill-opacity:1" d="m.516 55.555 4.828 24.039 2.187 55.422L.516 55.555"/></g><g clip-path="url(#u)"><path style="fill:none;stroke-width:5.664;stroke-linecap:butt;stroke-linejoin:miter;stroke:#231f20;stroke-opacity:1;stroke-miterlimit:4" d="m4.79 1311.21 48.346-240.713 21.904-554.96" transform="matrix(.09987 0 0 -.09987 .037 186.5)"/></g><path style="stroke:none;fill-rule:evenodd;fill:#231f20;fill-opacity:1" d="M34.477 148.184 2.922 115.809l4.61 19.207 26.945 13.168"/><g clip-path="url(#v)"><path style="fill:none;stroke-width:5.664;stroke-linecap:butt;stroke-linejoin:miter;stroke:#231f20;stroke-opacity:1;stroke-miterlimit:4" d="M344.854 383.68 28.884 707.864 75.04 515.536" transform="matrix(.09987 0 0 -.09987 .037 186.5)"/></g><g clip-path="url(#w)"><path style="stroke:none;fill-rule:evenodd;fill:#e68d42;fill-opacity:1" d="M32.707 28.328.516 55.555l4.828 24.039 27.363-51.266"/></g><g clip-path="url(#x)"><path style="fill:none;stroke-width:5.664;stroke-linecap:butt;stroke-linejoin:miter;stroke:#231f20;stroke-opacity:1;stroke-miterlimit:4" d="M327.135 1583.84 4.79 1311.21l48.346-240.713" transform="matrix(.09987 0 0 -.09987 .037 186.5)"/></g><path style="stroke:none;fill-rule:evenodd;fill:#8ac8c5;fill-opacity:1" d="m129.102 25.523 37.074 24.907-49.867-25.903 12.793.996"/><g clip-path="url(#y)"><path style="fill:none;stroke-width:5.664;stroke-linecap:butt;stroke-linejoin:miter;stroke:#231f20;stroke-opacity:1;stroke-miterlimit:4" d="m1292.37 1611.924 371.239-249.396-499.34 259.37" transform="matrix(.09987 0 0 -.09987 .037 186.5)"/></g><path style="stroke:none;fill-rule:evenodd;fill:#8ac8c5;fill-opacity:1" d="M116.309 24.527 80.992.36l48.11 25.164-12.793-.996"/><path style="fill:none;stroke-width:5.664;stroke-linecap:butt;stroke-linejoin:miter;stroke:#231f20;stroke-opacity:1;stroke-miterlimit:4" d="m1164.27 1621.898-353.637 242.003 481.737-251.977" transform="matrix(.09987 0 0 -.09987 .037 186.5)"/><g clip-path="url(#z)"><path style="stroke:none;fill-rule:evenodd;fill:#1c63a5;fill-opacity:1" d="m.516 55.555 32.191-27.227L80.992.36.516 55.555"/></g><g clip-path="url(#A)"><path style="fill:none;stroke-width:5.664;stroke-linecap:butt;stroke-linejoin:miter;stroke:#231f20;stroke-opacity:1;stroke-miterlimit:4" d="m4.79 1311.21 322.345 272.63 483.498 280.06" transform="matrix(.09987 0 0 -.09987 .037 186.5)"/></g><g clip-path="url(#B)"><path style="stroke:none;fill-rule:evenodd;fill:#722d32;fill-opacity:1" d="m86.594 186.238-49.828-20.383-2.29-17.671 52.118 38.054"/></g><g clip-path="url(#C)"><path style="fill:none;stroke-width:5.664;stroke-linecap:butt;stroke-linejoin:miter;stroke:#231f20;stroke-opacity:1;stroke-miterlimit:4" d="M866.723 2.624 367.775 206.725 344.854 383.68" transform="matrix(.09987 0 0 -.09987 .037 186.5)"/></g><g clip-path="url(#D)"><path style="stroke:none;fill-rule:evenodd;fill:#722d32;fill-opacity:1" d="M34.477 148.184 88.69 170.91l-2.097 15.328-52.117-38.054"/></g><g clip-path="url(#E)"><path style="fill:none;stroke-width:5.664;stroke-linecap:butt;stroke-linejoin:miter;stroke:#231f20;stroke-opacity:1;stroke-miterlimit:4" d="m344.854 383.68 542.874-227.57L866.723 2.624" transform="matrix(.09987 0 0 -.09987 .037 186.5)"/></g><g clip-path="url(#F)"><path style="stroke:none;fill-rule:evenodd;fill:#ac392a;fill-opacity:1" d="m86.594 186.238 2.097-15.328 54.102-26.781-56.2 42.11"/></g><g clip-path="url(#G)"><path style="fill:none;stroke-width:5.664;stroke-linecap:butt;stroke-linejoin:miter;stroke:#231f20;stroke-opacity:1;stroke-miterlimit:4" d="m866.723 2.624 21.005 153.486 541.74 268.172" transform="matrix(.09987 0 0 -.09987 .037 186.5)"/></g><g clip-path="url(#H)"><path style="stroke:none;fill-rule:evenodd;fill:#ac392a;fill-opacity:1" d="m142.793 144.129-6.563 17.879-49.636 24.23 56.199-42.11"/></g><g clip-path="url(#I)"><path style="fill:none;stroke-width:5.664;stroke-linecap:butt;stroke-linejoin:miter;stroke:#231f20;stroke-opacity:1;stroke-miterlimit:4" d="m1429.468 424.282-65.713-179.029L866.723 2.624" transform="matrix(.09987 0 0 -.09987 .037 186.5)"/></g><g clip-path="url(#J)"><path style="stroke:none;fill-rule:evenodd;fill:#1c63a5;fill-opacity:1" d="m80.992.36-29.8 26.058L.515 55.555 80.992.359"/></g><g clip-path="url(#K)"><path style="fill:none;stroke-width:5.664;stroke-linecap:butt;stroke-linejoin:miter;stroke:#231f20;stroke-opacity:1;stroke-miterlimit:4" d="m810.633 1863.901-298.407-260.934L4.79 1311.209" transform="matrix(.09987 0 0 -.09987 .037 186.5)"/></g><path style="stroke:none;fill-rule:evenodd;fill:#a2b2d8;fill-opacity:1" d="M116.309 24.527 80.992.36l-29.8 26.059 65.117-1.89"/><path style="fill:none;stroke-width:5.664;stroke-linecap:butt;stroke-linejoin:miter;stroke:#231f20;stroke-opacity:1;stroke-miterlimit:4" d="m1164.27 1621.898-353.637 242.003-298.407-260.934" transform="matrix(.09987 0 0 -.09987 .037 186.5)"/><g clip-path="url(#L)"><path style="stroke:none;fill-rule:evenodd;fill:#f3c48f;fill-opacity:1" d="m167.375 110.035-24.582 34.094-1.473-63.426 26.055 29.332"/></g><g clip-path="url(#M)"><path style="fill:none;stroke-width:5.664;stroke-linecap:butt;stroke-linejoin:miter;stroke:#231f20;stroke-opacity:1;stroke-miterlimit:4" d="m1675.617 765.675-246.15-341.393-14.746 635.106" transform="matrix(.09987 0 0 -.09987 .037 186.5)"/></g><g clip-path="url(#N)"><path style="stroke:none;fill-rule:evenodd;fill:#f3c48f;fill-opacity:1" d="m141.32 80.703 24.856-30.273 1.199 59.605-26.055-29.332"/></g><g clip-path="url(#O)"><path style="fill:none;stroke-width:5.664;stroke-linecap:butt;stroke-linejoin:miter;stroke:#231f20;stroke-opacity:1;stroke-miterlimit:4" d="m1414.721 1059.388 248.888 303.14 12.008-596.853" transform="matrix(.09987 0 0 -.09987 .037 186.5)"/></g><path style="stroke:none;fill-rule:evenodd;fill:#d4c7c4;fill-opacity:1" d="m141.32 80.703 24.856-30.273-49.867-25.903 25.011 56.176"/><g clip-path="url(#P)"><path style="fill:none;stroke-width:5.664;stroke-linecap:butt;stroke-linejoin:miter;stroke:#231f20;stroke-opacity:1;stroke-miterlimit:4" d="m1414.721 1059.388 248.888 303.14-499.34 259.37" transform="matrix(.09987 0 0 -.09987 .037 186.5)"/></g><g clip-path="url(#Q)"><path style="stroke:none;fill-rule:evenodd;fill:#6c4f7c;fill-opacity:1" d="M34.477 148.184 2.922 115.809.516 55.555l33.96 92.629"/></g><g clip-path="url(#R)"><path style="fill:none;stroke-width:5.664;stroke-linecap:butt;stroke-linejoin:miter;stroke:#231f20;stroke-opacity:1;stroke-miterlimit:4" d="M344.854 383.68 28.884 707.864 4.79 1311.209" transform="matrix(.09987 0 0 -.09987 .037 186.5)"/></g><g clip-path="url(#S)"><path style="stroke:none;fill-rule:evenodd;fill:#6c4f7c;fill-opacity:1" d="m.516 55.555 31.64 28.75 2.32 63.879-33.96-92.63"/></g><g clip-path="url(#T)"><path style="fill:none;stroke-width:5.664;stroke-linecap:butt;stroke-linejoin:miter;stroke:#231f20;stroke-opacity:1;stroke-miterlimit:4" d="m4.79 1311.21 316.83-287.885 23.234-639.645" transform="matrix(.09987 0 0 -.09987 .037 186.5)"/></g><g clip-path="url(#U)"><path style="stroke:none;fill-rule:evenodd;fill:#8b80ab;fill-opacity:1" d="M32.156 84.305.516 55.555 51.19 26.418 32.156 84.305"/></g><g clip-path="url(#V)"><path style="fill:none;stroke-width:5.664;stroke-linecap:butt;stroke-linejoin:miter;stroke:#231f20;stroke-opacity:1;stroke-miterlimit:4" d="M321.62 1023.325 4.79 1311.209l507.436 291.758" transform="matrix(.09987 0 0 -.09987 .037 186.5)"/></g><path style="stroke:none;fill-rule:evenodd;fill:#d4c7c4;fill-opacity:1" d="M116.309 24.527 87.043 54.023l54.277 26.68-25.011-56.176"/><path style="fill:none;stroke-width:5.664;stroke-linecap:butt;stroke-linejoin:miter;stroke:#231f20;stroke-opacity:1;stroke-miterlimit:4" d="m1164.27 1621.898-293.05-295.356 543.5-267.154" transform="matrix(.09987 0 0 -.09987 .037 186.5)"/><path style="stroke:none;fill-rule:evenodd;fill:#a2b2d8;fill-opacity:1" d="m51.191 26.418 35.852 27.605 29.266-29.496-65.118 1.891"/><path style="fill:none;stroke-width:5.664;stroke-linecap:butt;stroke-linejoin:miter;stroke:#231f20;stroke-opacity:1;stroke-miterlimit:4" d="m512.226 1602.967 358.995-276.425 293.048 295.356" transform="matrix(.09987 0 0 -.09987 .037 186.5)"/><path style="stroke:none;fill-rule:evenodd;fill:#b46f71;fill-opacity:1" d="M34.477 148.184 88.69 170.91l54.102-26.781-108.316 4.055"/><path style="fill:none;stroke-width:5.664;stroke-linecap:butt;stroke-linejoin:miter;stroke:#231f20;stroke-opacity:1;stroke-miterlimit:4" d="m344.854 383.68 542.874-227.57 541.74 268.172" transform="matrix(.09987 0 0 -.09987 .037 186.5)"/><path style="stroke:none;fill-rule:evenodd;fill:#8b80ab;fill-opacity:1" d="m51.191 26.418 35.852 27.605-54.887 30.282 19.035-57.887"/><path style="fill:none;stroke-width:5.664;stroke-linecap:butt;stroke-linejoin:miter;stroke:#231f20;stroke-opacity:1;stroke-miterlimit:4" d="m512.226 1602.967 358.995-276.425-549.602-303.217" transform="matrix(.09987 0 0 -.09987 .037 186.5)"/><path style="stroke:none;fill-rule:evenodd;fill:#b46f71;fill-opacity:1" d="m142.793 144.129-53.8-24.27-54.516 28.325 108.316-4.055"/><path style="fill:none;stroke-width:5.664;stroke-linecap:butt;stroke-linejoin:miter;stroke:#231f20;stroke-opacity:1;stroke-miterlimit:4" d="M1429.468 424.282 890.74 667.302 344.854 383.68" transform="matrix(.09987 0 0 -.09987 .037 186.5)"/><path style="stroke:none;fill-rule:evenodd;fill:#c89b99;fill-opacity:1" d="m142.793 144.129-53.8-24.27-1.95-65.836 55.75 90.106"/><path style="fill:none;stroke-width:5.664;stroke-linecap:butt;stroke-linejoin:miter;stroke:#231f20;stroke-opacity:1;stroke-miterlimit:4" d="M1429.468 424.282 890.74 667.302l-19.519 659.24" transform="matrix(.09987 0 0 -.09987 .037 186.5)"/><path style="stroke:none;fill-rule:evenodd;fill:#c89b99;fill-opacity:1" d="m87.043 54.023 54.277 26.68 1.473 63.426-55.75-90.106"/><path style="fill:none;stroke-width:5.664;stroke-linecap:butt;stroke-linejoin:miter;stroke:#231f20;stroke-opacity:1;stroke-miterlimit:4" d="m871.221 1326.542 543.5-267.154 14.747-635.106" transform="matrix(.09987 0 0 -.09987 .037 186.5)"/><path style="stroke:none;fill-rule:evenodd;fill:#a67c91;fill-opacity:1" d="m34.477 148.184 54.515-28.325-1.949-65.836-52.566 94.16"/><path style="fill:none;stroke-width:5.664;stroke-linecap:butt;stroke-linejoin:miter;stroke:#231f20;stroke-opacity:1;stroke-miterlimit:4" d="M344.854 383.68 890.74 667.302l-19.519 659.24" transform="matrix(.09987 0 0 -.09987 .037 186.5)"/><path style="stroke:none;fill-rule:evenodd;fill:#a67c91;fill-opacity:1" d="M87.043 54.023 32.156 84.305l2.32 63.879 52.567-94.16"/><path style="fill:none;stroke-width:5.664;stroke-linecap:butt;stroke-linejoin:miter;stroke:#231f20;stroke-opacity:1;stroke-miterlimit:4" d="M871.221 1326.542 321.62 1023.325l23.235-639.645" transform="matrix(.09987 0 0 -.09987 .037 186.5)"/></svg>