<?xml version="1.0" encoding="utf-8"?>
<!-- Generator: Adobe Illustrator 23.1.0, SVG Export Plug-In . SVG Version: 6.00 Build 0)  -->
<svg version="1.1" id="Слой_1" xmlns="http://www.w3.org/2000/svg" xmlns:xlink="http://www.w3.org/1999/xlink" x="0px" y="0px"
	 viewBox="0 0 151.4 250.7" style="enable-background:new 0 0 151.4 250.7;" xml:space="preserve">
<style type="text/css">
	.st0{fill:#EBC2A7;stroke:#231F20;stroke-width:0.4421;stroke-linecap:round;stroke-linejoin:round;stroke-miterlimit:10;}
	.st1{clip-path:url(#SVGID_2_);}
	.st2{fill:#9C87BE;stroke:#231F20;stroke-width:0.4421;stroke-linecap:round;stroke-linejoin:round;stroke-miterlimit:10;}
	.st3{clip-path:url(#SVGID_4_);}
	.st4{fill:#D9E8E5;}
	.st5{clip-path:url(#SVGID_6_);}
	.st6{fill:none;stroke:#231F20;stroke-width:0.4421;stroke-linecap:round;stroke-linejoin:round;stroke-miterlimit:10;}
	.st7{clip-path:url(#SVGID_8_);}
	.st8{fill:#97A9DB;}
	.st9{clip-path:url(#SVGID_10_);}
	.st10{clip-path:url(#SVGID_12_);}
	.st11{fill:#D67A57;}
	.st12{clip-path:url(#SVGID_14_);}
	.st13{clip-path:url(#SVGID_16_);}
	.st14{fill:#995C89;}
	.st15{clip-path:url(#SVGID_18_);}
	.st16{fill:#F2C998;}
	.st17{clip-path:url(#SVGID_20_);}
	.st18{clip-path:url(#SVGID_22_);}
	.st19{clip-path:url(#SVGID_24_);}
	.st20{clip-path:url(#SVGID_26_);}
	.st21{fill:#C75E22;}
	.st22{clip-path:url(#SVGID_28_);}
	.st23{clip-path:url(#SVGID_30_);}
	.st24{fill:#D1EFDE;}
	.st25{clip-path:url(#SVGID_32_);}
	.st26{fill:#8D4271;}
	.st27{clip-path:url(#SVGID_34_);}
	.st28{clip-path:url(#SVGID_36_);}
	.st29{fill:#8BABDD;}
	.st30{fill:#9782BD;stroke:#231F20;stroke-width:0.4421;stroke-linecap:round;stroke-linejoin:round;stroke-miterlimit:10;}
</style>
<g id="surface1">
	<path class="st0" d="M0.5,180.9l56.4-10.8l-0.1-91.9"/>
	<g>
		<defs>
			<rect id="SVGID_1_" x="56" y="75.6" width="94.7" height="100.2"/>
		</defs>
		<clipPath id="SVGID_2_">
			<use xlink:href="#SVGID_1_"  style="overflow:visible;"/>
		</clipPath>
		<g class="st1">
			<path class="st2" d="M56.9,170.2l93.3,5.3l0.3-98.7"/>
		</g>
	</g>
	<g>
		<defs>
			<rect id="SVGID_3_" x="56" y="75.6" width="94.7" height="95"/>
		</defs>
		<clipPath id="SVGID_4_">
			<use xlink:href="#SVGID_3_"  style="overflow:visible;"/>
		</clipPath>
		<g class="st3">
			<path class="st2" d="M150.5,76.7l-93.7,1.5l0.1,91.9"/>
		</g>
	</g>
	<path class="st4" d="M56.9,170.2L0.5,180.9L78,249.8L56.9,170.2"/>
	<g>
		<defs>
			<rect id="SVGID_5_" y="169.3" width="79" height="80.8"/>
		</defs>
		<clipPath id="SVGID_6_">
			<use xlink:href="#SVGID_5_"  style="overflow:visible;"/>
		</clipPath>
		<g class="st5">
			<path class="st6" d="M56.9,170.2L0.5,180.9L78,249.8L56.9,170.2z"/>
		</g>
	</g>
	<g>
		<defs>
			<rect id="SVGID_7_" x="56" y="169.3" width="94.7" height="80.7"/>
		</defs>
		<clipPath id="SVGID_8_">
			<use xlink:href="#SVGID_7_"  style="overflow:visible;"/>
		</clipPath>
		<g class="st7">
			<path class="st8" d="M150.3,175.4l-93.3-5.3L78,249.8L150.3,175.4"/>
		</g>
	</g>
	<g>
		<defs>
			<rect id="SVGID_9_" x="56" y="169.3" width="94.7" height="80.8"/>
		</defs>
		<clipPath id="SVGID_10_">
			<use xlink:href="#SVGID_9_"  style="overflow:visible;"/>
		</clipPath>
		<g class="st9">
			<path class="st6" d="M150.3,175.4l-93.3-5.3L78,249.8L150.3,175.4z"/>
		</g>
	</g>
	<path class="st0" d="M56.8,78.3L0.2,75.1l0.3,105.8"/>
	<g>
		<defs>
			<rect id="SVGID_11_" y="3" width="78" height="76.5"/>
		</defs>
		<clipPath id="SVGID_12_">
			<use xlink:href="#SVGID_11_"  style="overflow:visible;"/>
		</clipPath>
		<g class="st10">
			<path class="st11" d="M56.8,78.3L0.2,75.1L78,3.3L56.8,78.3"/>
		</g>
	</g>
	<g>
		<defs>
			<rect id="SVGID_13_" y="3" width="79" height="76.5"/>
		</defs>
		<clipPath id="SVGID_14_">
			<use xlink:href="#SVGID_13_"  style="overflow:visible;"/>
		</clipPath>
		<g class="st12">
			<path class="st6" d="M56.8,78.3L0.2,75.1L78,3.3L56.8,78.3z"/>
		</g>
	</g>
	<g>
		<defs>
			<rect id="SVGID_15_" x="56" y="3" width="94.7" height="76.5"/>
		</defs>
		<clipPath id="SVGID_16_">
			<use xlink:href="#SVGID_15_"  style="overflow:visible;"/>
		</clipPath>
		<g class="st13">
			<path class="st14" d="M150.5,76.7l-93.7,1.5L78,3.3L150.5,76.7"/>
			<path class="st6" d="M150.5,76.7l-93.7,1.5L78,3.3L150.5,76.7z"/>
		</g>
	</g>
	<g>
		<defs>
			<rect id="SVGID_17_" x="104" y="73" width="46.7" height="115.8"/>
		</defs>
		<clipPath id="SVGID_18_">
			<use xlink:href="#SVGID_17_"  style="overflow:visible;"/>
		</clipPath>
		<g class="st15">
			<path class="st16" d="M150.3,175.4L104.4,188l0.1-114.9"/>
		</g>
	</g>
	<g>
		<defs>
			<rect id="SVGID_19_" x="104" y="71.7" width="46.7" height="117.1"/>
		</defs>
		<clipPath id="SVGID_20_">
			<use xlink:href="#SVGID_19_"  style="overflow:visible;"/>
		</clipPath>
		<g class="st17">
			<path class="st6" d="M150.3,175.4L104.4,188l0.1-114.9"/>
		</g>
	</g>
	<g>
		<defs>
			<rect id="SVGID_21_" x="104" y="73" width="46.7" height="102.8"/>
		</defs>
		<clipPath id="SVGID_22_">
			<use xlink:href="#SVGID_21_"  style="overflow:visible;"/>
		</clipPath>
		<g class="st18">
			<path class="st16" d="M104.5,73.1l46.1,3.7l-0.3,98.7"/>
		</g>
	</g>
	<g>
		<defs>
			<rect id="SVGID_23_" x="104" y="71.7" width="46.7" height="104.1"/>
		</defs>
		<clipPath id="SVGID_24_">
			<use xlink:href="#SVGID_23_"  style="overflow:visible;"/>
		</clipPath>
		<g class="st19">
			<path class="st6" d="M104.5,73.1l46.1,3.7l-0.3,98.7"/>
		</g>
	</g>
	<g>
		<defs>
			<rect id="SVGID_25_" x="77" y="174.5" width="73.7" height="75.5"/>
		</defs>
		<clipPath id="SVGID_26_">
			<use xlink:href="#SVGID_25_"  style="overflow:visible;"/>
		</clipPath>
		<g class="st20">
			<path class="st21" d="M104.4,188l45.9-12.6L78,249.8L104.4,188"/>
		</g>
	</g>
	<g>
		<defs>
			<rect id="SVGID_27_" x="77" y="174.5" width="73.7" height="75.6"/>
		</defs>
		<clipPath id="SVGID_28_">
			<use xlink:href="#SVGID_27_"  style="overflow:visible;"/>
		</clipPath>
		<g class="st22">
			<path class="st6" d="M104.4,188l45.9-12.6L78,249.8L104.4,188z"/>
		</g>
	</g>
	<g>
		<defs>
			<rect id="SVGID_29_" x="77" y="3" width="73.7" height="73.9"/>
		</defs>
		<clipPath id="SVGID_30_">
			<use xlink:href="#SVGID_29_"  style="overflow:visible;"/>
		</clipPath>
		<g class="st23">
			<path class="st24" d="M104.5,73.1l46.1,3.7L78,3.3L104.5,73.1"/>
		</g>
	</g>
	<g>
		<defs>
			<rect id="SVGID_31_" x="77" y="3" width="73.7" height="75.2"/>
		</defs>
		<clipPath id="SVGID_32_">
			<use xlink:href="#SVGID_31_"  style="overflow:visible;"/>
		</clipPath>
		<g class="st25">
			<path class="st6" d="M104.5,73.1l46.1,3.7L78,3.3L104.5,73.1z"/>
		</g>
	</g>
	<path class="st26" d="M0.5,180.9l103.8,7L78,249.8L0.5,180.9"/>
	<g>
		<defs>
			<rect id="SVGID_33_" y="179.7" width="105" height="70.4"/>
		</defs>
		<clipPath id="SVGID_34_">
			<use xlink:href="#SVGID_33_"  style="overflow:visible;"/>
		</clipPath>
		<g class="st27">
			<path class="st6" d="M0.5,180.9l103.8,7L78,249.8L0.5,180.9z"/>
		</g>
	</g>
	<g>
		<defs>
			<rect id="SVGID_35_" y="3" width="105" height="72.6"/>
		</defs>
		<clipPath id="SVGID_36_">
			<use xlink:href="#SVGID_35_"  style="overflow:visible;"/>
		</clipPath>
		<g class="st28">
			<path class="st29" d="M0.2,75.1l104.2-2L78,3.3L0.2,75.1"/>
			<path class="st6" d="M0.2,75.1l104.2-2L78,3.3L0.2,75.1z"/>
		</g>
	</g>
	<path class="st30" d="M104.4,188l-103.8-7L0.2,75.1"/>
	<path class="st30" d="M0.2,75.1l104.2-2L104.4,188"/>
</g>
</svg>
