<?xml version="1.0" encoding="utf-8"?>
<!-- Generator: Adobe Illustrator 23.1.0, SVG Export Plug-In . SVG Version: 6.00 Build 0)  -->
<svg version="1.1" id="Слой_1" xmlns="http://www.w3.org/2000/svg" xmlns:xlink="http://www.w3.org/1999/xlink" x="0px" y="0px"
	 viewBox="0 0 123 219.3" style="enable-background:new 0 0 123 219.3;" xml:space="preserve">
<style type="text/css">
	.st0{fill:#A789B4;stroke:#000000;stroke-width:0.3092;stroke-linecap:round;stroke-linejoin:round;stroke-miterlimit:1;}
	.st1{fill:#A5A0D0;}
	.st2{fill:none;stroke:#000000;stroke-width:0.3092;stroke-linecap:round;stroke-linejoin:round;stroke-miterlimit:1;}
	.st3{fill:#000068;stroke:#000000;stroke-width:0.3092;stroke-linecap:round;stroke-linejoin:round;stroke-miterlimit:1;}
	.st4{fill:#A56E93;}
	.st5{fill:#0018A6;}
	.st6{fill:#E4BAAC;stroke:#000000;stroke-width:0.3092;stroke-linecap:round;stroke-linejoin:round;stroke-miterlimit:1;}
	.st7{fill:#DDDCD5;}
	.st8{fill:#DD8E75;}
</style>
<g id="surface1">
	<path class="st0" d="M118.2,70.7L4.8,72.5l-0.1,75.9"/>
	<path class="st0" d="M4.8,148.4l113.4,1.4l0-79.2"/>
	<path class="st1" d="M118.2,149.8L4.8,148.4l46.6,69.1"/>
	<path class="st2" d="M118.2,149.8L4.8,148.4l46.6,69.1L118.2,149.8z"/>
	<path class="st3" d="M30.5,154.9l-25.8-6.5l0.1-75.9"/>
	<path class="st4" d="M118.2,70.7L4.8,72.5L51.4,2.8"/>
	<path class="st2" d="M118.2,70.7L4.8,72.5L51.4,2.8L118.2,70.7z"/>
	<path class="st3" d="M4.8,72.5l25.7-8.7l0,91.1"/>
	<path class="st5" d="M4.8,72.5l25.7-8.7l20.9-61"/>
	<path class="st2" d="M4.8,72.5l25.7-8.7l20.9-61L4.8,72.5z"/>
	<path d="M4.8,148.4l25.8,6.5l20.9,62.6"/>
	<path class="st2" d="M4.8,148.4l25.8,6.5l20.9,62.6L4.8,148.4z"/>
	<path class="st6" d="M30.6,63.9l87.6,6.8l0,79.2"/>
	<path class="st7" d="M30.6,63.9l87.6,6.8L51.4,2.8"/>
	<path class="st2" d="M30.6,63.9l87.6,6.8L51.4,2.8L30.6,63.9z"/>
	<path class="st6" d="M118.2,149.8l-87.7,5.1l0-91.1"/>
	<path class="st8" d="M30.5,154.9l87.7-5.1l-66.8,67.7"/>
	<path class="st2" d="M30.5,154.9l87.7-5.1l-66.8,67.7L30.5,154.9z"/>
</g>
</svg>
